mtllib Tile_+031_+022_L19_000101.mtl
v 6.18501305e+03 5.26299785e+03 3.08118025e+01
v 6.18371201e+03 5.25241974e+03 2.98245727e+01
v 6.18633523e+03 5.25413194e+03 2.97527594e+01
v 6.16727081e+03 5.28129976e+03 3.69417595e+01
v 6.18376715e+03 5.26119151e+03 3.06125596e+01
v 6.18438278e+03 5.25237279e+03 2.68872444e+01
v 6.18544524e+03 5.25000000e+03 2.69501583e+01
v 6.15618263e+03 5.27576889e+03 3.43239286e+01
v 6.15663083e+03 5.27486027e+03 3.70256294e+01
v 6.16730040e+03 5.26024161e+03 2.94841889e+01
v 6.16675426e+03 5.25954780e+03 2.99942204e+01
v 6.16004804e+03 5.27708309e+03 2.71785083e+01
v 6.16236624e+03 5.27833685e+03 2.43913802e+01
v 6.16048965e+03 5.27742239e+03 2.39867911e+01
v 6.16182294e+03 5.27814423e+03 3.08042418e+01
v 6.16011453e+03 5.27732634e+03 2.89273169e+01
v 6.16139309e+03 5.27779108e+03 3.51053032e+01
v 6.15940263e+03 5.27718208e+03 3.50768503e+01
v 6.15662870e+03 5.27552602e+03 3.21719863e+01
v 6.15658276e+03 5.27501420e+03 3.34342179e+01
v 6.16061740e+03 5.27729465e+03 3.36465691e+01
v 6.16547803e+03 5.28051691e+03 2.73920087e+01
v 6.16575820e+03 5.28075455e+03 3.01459649e+01
v 6.16463486e+03 5.27942090e+03 2.49726587e+01
v 6.16503285e+03 5.27960042e+03 2.68276613e+01
v 6.16341379e+03 5.27919582e+03 1.80944297e+01
v 6.16257091e+03 5.27823598e+03 1.82809014e+01
v 6.16395497e+03 5.27843376e+03 1.91823995e+01
v 6.16499839e+03 5.28059680e+03 1.73711084e+01
v 6.16292651e+03 5.27884982e+03 1.57412752e+01
v 6.16361264e+03 5.27975953e+03 1.70689930e+01
v 6.16429410e+03 5.27995743e+03 1.74119871e+01
v 6.16154921e+03 5.27813533e+03 1.92262512e+01
v 6.15998907e+03 5.27732857e+03 2.10204848e+01
v 6.16736221e+03 5.26474651e+03 1.66788192e+01
v 6.16699687e+03 5.26401010e+03 1.58039255e+01
v 6.16779007e+03 5.27722851e+03 1.63281059e+01
v 6.16837508e+03 5.27715154e+03 1.55779509e+01
v 6.16544110e+03 5.28068467e+03 2.05474251e+01
v 6.16696756e+03 5.28136981e+03 1.81707385e+01
v 6.15671918e+03 5.27521272e+03 1.93337934e+01
v 6.15678742e+03 5.27521014e+03 2.04216529e+01
v 6.16332328e+03 5.27819748e+03 3.12637737e+01
v 6.16583266e+03 5.28059856e+03 3.38043238e+01
v 6.15801869e+03 5.28080149e+03 3.94920498e+01
v 6.15872311e+03 5.28137639e+03 4.02400915e+01
v 6.15985696e+03 5.28146311e+03 3.92875612e+01
v 6.15969407e+03 5.28087976e+03 4.15649362e+01
v 6.15954167e+03 5.28099755e+03 3.99990981e+01
v 6.15975284e+03 5.28035562e+03 3.89966868e+01
v 6.16216113e+03 5.27947347e+03 3.77468170e+01
v 6.15727226e+03 5.27751465e+03 3.80683655e+01
v 6.16164853e+03 5.27759903e+03 3.69159296e+01
v 6.15846936e+03 5.27567071e+03 3.68576742e+01
v 6.15755648e+03 5.27548067e+03 3.47638908e+01
v 6.16557668e+03 5.28017274e+03 3.68760808e+01
v 6.16432011e+03 5.27992041e+03 3.59257501e+01
v 6.16349010e+03 5.27975483e+03 3.47855297e+01
v 6.15658917e+03 5.27632657e+03 3.77429789e+01
v 6.15824638e+03 5.27663391e+03 3.77132333e+01
v 6.16537321e+03 5.28054828e+03 3.19577085e+01
v 6.16506324e+03 5.27908362e+03 3.34936971e+01
v 6.16503458e+03 5.28000018e+03 3.45473022e+01
v 6.16451367e+03 5.27918611e+03 3.15358536e+01
v 6.16426000e+03 5.27848858e+03 3.37292920e+01
v 6.16232066e+03 5.27830195e+03 3.37525750e+01
v 6.15858321e+03 5.27603416e+03 3.33865228e+01
v 6.15941736e+03 5.27709983e+03 3.16601780e+01
v 6.16488774e+03 5.27894216e+03 3.06427910e+01
v 6.15939681e+03 5.27677305e+03 3.06357479e+01
v 6.16366650e+03 5.27848406e+03 2.87816742e+01
v 6.16651927e+03 5.25946737e+03 2.95210709e+01
v 6.16732052e+03 5.25868041e+03 2.98020569e+01
v 6.16760646e+03 5.25816701e+03 2.89010663e+01
v 6.16721447e+03 5.25931239e+03 2.85379652e+01
v 6.15682537e+03 5.27529219e+03 2.84846001e+01
v 6.16793149e+03 5.26003176e+03 2.69175516e+01
v 6.16768654e+03 5.25774167e+03 2.98892173e+01
v 6.16676273e+03 5.28142528e+03 2.39183495e+01
v 6.16699826e+03 5.25884864e+03 2.68826061e+01
v 6.16912327e+03 5.25910068e+03 3.02507782e+01
v 6.15681155e+03 5.27509856e+03 3.05215786e+01
v 6.15745242e+03 5.27561450e+03 3.17745208e+01
v 6.15916574e+03 5.27686156e+03 2.76923993e+01
v 6.16733523e+03 5.25868762e+03 2.32739348e+01
v 6.16706336e+03 5.25888114e+03 2.31899238e+01
v 6.16724226e+03 5.25918767e+03 2.36562801e+01
v 6.16712664e+03 5.25882546e+03 2.35389138e+01
v 6.16746774e+03 5.25861102e+03 2.37005772e+01
v 6.16527629e+03 5.28039847e+03 1.57343984e+01
v 6.16766258e+03 5.25997096e+03 2.06978552e+01
v 6.16713674e+03 5.25892366e+03 2.25740838e+01
v 6.16246997e+03 5.27849599e+03 2.76726194e+01
v 6.16556896e+03 5.28068620e+03 2.37554731e+01
v 6.16788515e+03 5.25832938e+03 2.11803496e+01
v 6.16716730e+03 5.25870957e+03 2.33277122e+01
v 6.16355735e+03 5.27837000e+03 2.46238464e+01
v 6.15942551e+03 5.27705669e+03 2.47617186e+01
v 6.15679886e+03 5.27522325e+03 2.39888769e+01
v 6.15786484e+03 5.27563806e+03 2.62491096e+01
v 6.15663010e+03 5.27534377e+03 2.65128460e+01
v 6.16450513e+03 5.27934611e+03 2.82576643e+01
v 6.16510162e+03 5.27969229e+03 2.34075694e+01
v 6.16472262e+03 5.27931812e+03 2.08704233e+01
v 6.16272855e+03 5.27849662e+03 2.10065488e+01
v 6.16350155e+03 5.27834651e+03 2.03842511e+01
v 6.15892497e+03 5.27640387e+03 1.92683339e+01
v 6.16526384e+03 5.27959741e+03 1.87071740e+01
v 6.16186688e+03 5.27840552e+03 1.78467695e+01
v 6.16179223e+03 5.27824450e+03 1.66647614e+01
v 6.15669436e+03 5.27521720e+03 1.64336617e+01
v 6.15827001e+03 5.27564222e+03 1.82038769e+01
v 6.16742170e+03 5.25905888e+03 1.96559930e+01
v 6.16779323e+03 5.25813312e+03 1.85763455e+01
v 6.16714361e+03 5.25949845e+03 1.77100098e+01
v 6.15941792e+03 5.27666354e+03 1.71553813e+01
v 6.15615348e+03 5.27560473e+03 1.83240919e+01
v 6.15994691e+03 5.27663164e+03 1.80848225e+01
v 6.16574715e+03 5.28060125e+03 1.78878391e+01
v 6.15792321e+03 5.25236800e+03 1.61288916e+01
v 6.16231929e+03 5.27892835e+03 1.74026617e+01
v 6.16824756e+03 5.26038068e+03 1.66787810e+01
v 6.16271637e+03 5.27406710e+03 1.63710628e+01
v 6.16100654e+03 5.27300379e+03 1.67256024e+01
v 6.16802698e+03 5.26632833e+03 1.71563513e+01
v 6.16690853e+03 5.26566109e+03 1.67264909e+01
v 6.16659205e+03 5.26623937e+03 1.58435019e+01
v 6.16242595e+03 5.27360376e+03 1.61342066e+01
v 6.15801189e+03 5.27081277e+03 1.59830508e+01
v 6.15724808e+03 5.27309530e+03 1.62554723e+01
v 6.16290187e+03 5.26807547e+03 1.60352803e+01
v 6.16422433e+03 5.27482633e+03 1.60000208e+01
v 6.16028220e+03 5.27743966e+03 1.71551195e+01
v 6.16017748e+03 5.27355106e+03 1.59646988e+01
v 6.15987353e+03 5.27247092e+03 1.68252612e+01
v 6.16730335e+03 5.27756840e+03 1.57520333e+01
v 6.16401431e+03 5.27561835e+03 1.59111311e+01
v 6.16707886e+03 5.28149213e+03 1.54588620e+01
v 6.16520730e+03 5.27569342e+03 1.65965622e+01
v 6.15906408e+03 5.27196920e+03 1.59002034e+01
v 6.15866973e+03 5.27455632e+03 1.59127181e+01
v 6.15762872e+03 5.27566057e+03 1.59124784e+01
v 6.16630839e+03 5.27591831e+03 1.57389483e+01
v 6.15626944e+03 5.27393902e+03 1.60946171e+01
v 6.15803931e+03 5.26270474e+03 1.61210989e+01
v 6.16017644e+03 5.27709528e+03 1.58892065e+01
v 6.16183176e+03 5.27105369e+03 1.59589227e+01
v 6.16434912e+03 5.27919306e+03 1.57006921e+01
v 6.16901342e+03 5.27845092e+03 1.55805999e+01
v 6.16069702e+03 5.27253190e+03 1.61305195e+01
v 6.16765986e+03 5.27203428e+03 1.57166239e+01
v 6.16860350e+03 5.26194074e+03 1.62732800e+01
v 6.16693400e+03 5.25974539e+03 1.61016536e+01
v 6.16809689e+03 5.25822012e+03 1.60804668e+01
v 6.16469527e+03 5.25611994e+03 1.59407898e+01
v 6.16402828e+03 5.26128811e+03 1.59236588e+01
v 6.15831413e+03 5.25000000e+03 1.73424767e+01
v 6.16905209e+03 5.27509357e+03 1.56554588e+01
v 6.16913053e+03 5.25000000e+03 1.58368604e+01
v 6.15699509e+03 5.25067721e+03 1.70511651e+01
v 6.15920112e+03 5.25000000e+03 1.60770690e+01
v 6.15662258e+03 5.25000000e+03 1.68873979e+01
v 6.17868651e+03 5.26050378e+03 3.12095054e+01
v 6.16974134e+03 5.26107357e+03 2.88287931e+01
v 6.17001203e+03 5.26205461e+03 2.98638130e+01
v 6.16891571e+03 5.26087253e+03 2.85134918e+01
v 6.16999896e+03 5.26121179e+03 2.77903731e+01
v 6.16822756e+03 5.26033133e+03 2.88823367e+01
v 6.17459403e+03 5.26517186e+03 2.98409373e+01
v 6.17248028e+03 5.26376232e+03 2.98434144e+01
v 6.17322234e+03 5.26344617e+03 2.79861103e+01
v 6.17741110e+03 5.26695458e+03 2.98783782e+01
v 6.18089565e+03 5.26933709e+03 2.98098225e+01
v 6.18017916e+03 5.26831247e+03 2.89685169e+01
v 6.17849218e+03 5.26718040e+03 2.88848595e+01
v 6.17750200e+03 5.26612493e+03 2.75543354e+01
v 6.16824354e+03 5.26087897e+03 2.98718154e+01
v 6.17429770e+03 5.25795372e+03 3.11143752e+01
v 6.16967943e+03 5.25690417e+03 2.93981070e+01
v 6.16967754e+03 5.25751369e+03 2.68995873e+01
v 6.16984972e+03 5.25696144e+03 2.99301615e+01
v 6.18274733e+03 5.27019112e+03 2.86085829e+01
v 6.18460832e+03 5.27109959e+03 2.87637388e+01
v 6.18387782e+03 5.27121494e+03 2.98932313e+01
v 6.18435731e+03 5.27095697e+03 2.76200462e+01
v 6.18349040e+03 5.27042943e+03 2.86696563e+01
v 6.18749098e+03 5.26735118e+03 3.00176646e+01
v 6.18747315e+03 5.26775418e+03 2.96448450e+01
v 6.18486743e+03 5.27174220e+03 2.98677434e+01
v 6.18273578e+03 5.26363407e+03 3.10963381e+01
v 6.18577963e+03 5.26885692e+03 2.83517789e+01
v 6.18511217e+03 5.27036440e+03 2.83009253e+01
v 6.18669025e+03 5.26746479e+03 2.78524720e+01
v 6.18726141e+03 5.26623036e+03 2.75798003e+01
v 6.18737071e+03 5.26522116e+03 3.00428637e+01
v 6.17806454e+03 5.25833515e+03 3.08869248e+01
v 6.18302563e+03 5.25155847e+03 2.97364244e+01
v 6.18044183e+03 5.25000000e+03 3.04782632e+01
v 6.18389670e+03 5.25000000e+03 2.96902272e+01
v 6.18351377e+03 5.25000000e+03 2.99918395e+01
v 6.18395660e+03 5.25433608e+03 2.99043047e+01
v 6.17669691e+03 5.25563149e+03 3.04341303e+01
v 6.18052278e+03 5.25147874e+03 3.04144633e+01
v 6.17890223e+03 5.25372253e+03 3.01847164e+01
v 6.17909507e+03 5.25536314e+03 3.01153203e+01
v 6.18188811e+03 5.25332034e+03 2.97495772e+01
v 6.17344581e+03 5.25166519e+03 3.01087816e+01
v 6.17312809e+03 5.24996396e+03 2.98551387e+01
v 6.17539432e+03 5.25129972e+03 2.98343404e+01
v 6.17630649e+03 5.25141284e+03 2.97543015e+01
v 6.18447054e+03 5.25734329e+03 2.97631827e+01
v 6.17239495e+03 5.25068111e+03 2.96167524e+01
v 6.17152221e+03 5.25229525e+03 2.98754936e+01
v 6.17132675e+03 5.25440490e+03 2.98289076e+01
v 6.18171075e+03 5.25486408e+03 2.94082236e+01
v 6.18208556e+03 5.25430800e+03 2.92563378e+01
v 6.17134290e+03 5.25617224e+03 2.80684905e+01
v 6.17279547e+03 5.25491891e+03 3.01294406e+01
v 6.18135102e+03 5.25594813e+03 3.00035407e+01
v 6.18468240e+03 5.25573080e+03 2.89008596e+01
v 6.18547077e+03 5.25535042e+03 2.97821368e+01
v 6.18483225e+03 5.25297584e+03 2.96666354e+01
v 6.18375024e+03 5.25727120e+03 2.79499476e+01
v 6.18455761e+03 5.25651301e+03 2.86756770e+01
v 6.18756363e+03 5.25000011e+03 2.65482856e+01
v 6.18619812e+03 5.25416886e+03 2.65842015e+01
v 6.18590365e+03 5.25384765e+03 2.70403769e+01
v 6.18756227e+03 5.25000000e+03 2.65485505e+01
v 6.17214724e+03 5.25195583e+03 2.84542515e+01
v 6.17216077e+03 5.25365764e+03 2.81223948e+01
v 6.17425533e+03 5.25544843e+03 3.07455774e+01
v 6.17678175e+03 5.25119887e+03 2.72159336e+01
v 6.17754219e+03 5.25000000e+03 2.88864751e+01
v 6.17735418e+03 5.25000000e+03 2.97391244e+01
v 6.17602314e+03 5.25236047e+03 2.87419428e+01
v 6.18602100e+03 5.25402256e+03 2.86332883e+01
v 6.18513488e+03 5.25536767e+03 2.89792900e+01
v 6.17213890e+03 5.25296288e+03 2.45032556e+01
v 6.17194779e+03 5.25153578e+03 2.67032120e+01
v 6.17438538e+03 5.25148643e+03 2.71931551e+01
v 6.17517256e+03 5.25000000e+03 2.68203569e+01
v 6.17396973e+03 5.25000000e+03 2.65806378e+01
v 6.17262379e+03 5.25107095e+03 2.83642224e+01
v 6.17452701e+03 5.25000000e+03 2.48485640e+01
v 6.17391811e+03 5.25083648e+03 2.47378866e+01
v 6.17576624e+03 5.25197135e+03 2.71033382e+01
v 6.18386481e+03 5.25254465e+03 2.82582939e+01
v 6.17361361e+03 5.25046312e+03 2.65947087e+01
v 6.17201056e+03 5.25165724e+03 2.36384521e+01
v 6.17308675e+03 5.25069477e+03 2.66963012e+01
v 6.17429730e+03 5.25000000e+03 2.09341473e+01
v 6.17379603e+03 5.25066433e+03 2.17377140e+01
v 6.17760923e+03 5.25000000e+03 2.71589529e+01
v 6.17578035e+03 5.25243202e+03 2.75703708e+01
v 6.17323816e+03 5.25049142e+03 2.86552006e+01
v 6.17202401e+03 5.25466213e+03 2.43717552e+01
v 6.18305511e+03 5.25652158e+03 2.71987236e+01
v 6.18384409e+03 5.25181145e+03 2.90115434e+01
v 6.18484082e+03 5.25610723e+03 2.78185731e+01
v 6.17618747e+03 5.25000000e+03 2.71193657e+01
v 6.18398888e+03 5.25785636e+03 2.65690797e+01
v 6.18536775e+03 5.25840458e+03 2.62741539e+01
v 6.18728765e+03 5.26008254e+03 2.62704853e+01
v 6.18669019e+03 5.25732916e+03 2.62641696e+01
v 6.18507478e+03 5.25644953e+03 2.73178340e+01
v 6.18617344e+03 5.25233905e+03 2.66597535e+01
v 6.17935362e+03 5.26770790e+03 2.66840711e+01
v 6.17958905e+03 5.26750099e+03 2.74994499e+01
v 6.18712061e+03 5.26697442e+03 2.66141743e+01
v 6.18138333e+03 5.26871729e+03 2.75606702e+01
v 6.18632049e+03 5.25580147e+03 2.63226454e+01
v 6.18574432e+03 5.25914235e+03 2.66758931e+01
v 6.18631604e+03 5.25930920e+03 2.60403248e+01
v 6.18436912e+03 5.27101381e+03 2.56782314e+01
v 6.18234825e+03 5.26971117e+03 2.68542215e+01
v 6.18296810e+03 5.27025678e+03 2.21088895e+01
v 6.18504711e+03 5.27051714e+03 2.33167689e+01
v 6.18433168e+03 5.27096067e+03 2.07687591e+01
v 6.18667179e+03 5.26875720e+03 2.04008960e+01
v 6.17019787e+03 5.26163864e+03 2.68576503e+01
v 6.17121541e+03 5.25640889e+03 2.49966940e+01
v 6.17091461e+03 5.25672324e+03 2.12630750e+01
v 6.17611354e+03 5.26549097e+03 2.72234188e+01
v 6.17156057e+03 5.26242578e+03 2.36543011e+01
v 6.17711053e+03 5.26591395e+03 1.87536127e+01
v 6.17668343e+03 5.26589973e+03 1.76802546e+01
v 6.17324741e+03 5.26367220e+03 2.65880268e+01
v 6.17049657e+03 5.25683327e+03 2.87086807e+01
v 6.17174029e+03 5.25527684e+03 2.74523426e+01
v 6.17633278e+03 5.26562781e+03 2.21154792e+01
v 6.17306241e+03 5.25068549e+03 2.35722177e+01
v 6.18467687e+03 5.25070388e+03 2.76308016e+01
v 6.18737200e+03 5.27019482e+03 2.12018176e+01
v 6.18678915e+03 5.26736251e+03 2.09150162e+01
v 6.17468220e+03 5.26450253e+03 1.85688416e+01
v 6.16915906e+03 5.26080216e+03 1.83480067e+01
v 6.17239845e+03 5.26296151e+03 1.86676818e+01
v 6.18173391e+03 5.26911856e+03 2.18835966e+01
v 6.18605597e+03 5.27033458e+03 2.11542608e+01
v 6.18515335e+03 5.27041052e+03 2.02638615e+01
v 6.18228391e+03 5.26950469e+03 1.87508373e+01
v 6.18703145e+03 5.27164103e+03 1.99467331e+01
v 6.18729720e+03 5.27284005e+03 1.90842977e+01
v 6.18758181e+03 5.27222721e+03 2.05494064e+01
v 6.18528520e+03 5.26973735e+03 2.09143255e+01
v 6.18746618e+03 5.27222124e+03 1.96472924e+01
v 6.17925227e+03 5.26756837e+03 1.86528668e+01
v 6.18109505e+03 5.26883520e+03 1.88380558e+01
v 6.18517490e+03 5.27039510e+03 1.90867847e+01
v 6.18569907e+03 5.27015726e+03 1.80898906e+01
v 6.17231040e+03 5.25180113e+03 2.03507417e+01
v 6.17200033e+03 5.25493823e+03 2.07901259e+01
v 6.17196103e+03 5.25376352e+03 2.17632128e+01
v 6.16967418e+03 5.25755584e+03 1.93203865e+01
v 6.17291078e+03 5.25077904e+03 1.92997608e+01
v 6.17380396e+03 5.25069313e+03 1.99965213e+01
v 6.17181392e+03 5.25549847e+03 1.84425728e+01
v 6.18301564e+03 5.27021575e+03 1.64788186e+01
v 6.17077734e+03 5.25671086e+03 1.90132893e+01
v 6.17208643e+03 5.25320556e+03 1.92611661e+01
v 6.17457542e+03 5.25000000e+03 1.86179762e+01
v 6.17377565e+03 5.25090324e+03 1.81181702e+01
v 6.17215977e+03 5.25402341e+03 1.66564664e+01
v 6.18661352e+03 5.27184889e+03 1.65612356e+01
v 6.18712601e+03 5.27273191e+03 1.59691710e+01
v 6.16922875e+03 5.26120813e+03 1.62081383e+01
v 6.17073318e+03 5.26225214e+03 1.64787369e+01
v 6.17004825e+03 5.26762589e+03 1.63700568e+01
v 6.16936338e+03 5.26819288e+03 1.59699971e+01
v 6.16961282e+03 5.26523509e+03 1.61207916e+01
v 6.17160951e+03 5.26817840e+03 1.60254830e+01
v 6.17275660e+03 5.26562339e+03 1.60827209e+01
v 6.17215583e+03 5.25218042e+03 1.75090425e+01
v 6.17142961e+03 5.25616430e+03 1.66888511e+01
v 6.17128955e+03 5.27920087e+03 1.59659199e+01
v 6.17126991e+03 5.27871167e+03 1.55882279e+01
v 6.17326156e+03 5.27661396e+03 1.53519327e+01
v 6.16966956e+03 5.27782085e+03 1.54920734e+01
v 6.16971497e+03 5.27824443e+03 1.60954161e+01
v 6.17183778e+03 5.27450491e+03 1.55855178e+01
v 6.17124660e+03 5.28018719e+03 1.53918712e+01
v 6.17218594e+03 5.28123257e+03 1.55854792e+01
v 6.16980043e+03 5.25756184e+03 1.64847072e+01
v 6.18448722e+03 5.27108581e+03 1.64558832e+01
v 6.18572721e+03 5.27050241e+03 1.70106811e+01
v 6.18059326e+03 5.26845742e+03 1.68254596e+01
v 6.17712857e+03 5.27068076e+03 1.54684175e+01
v 6.17807723e+03 5.27243334e+03 1.64881188e+01
v 6.17695902e+03 5.27298028e+03 1.68377971e+01
v 6.18696445e+03 5.27095171e+03 1.84759223e+01
v 6.17659095e+03 5.27139017e+03 1.69049267e+01
v 6.17571262e+03 5.27205993e+03 1.67076203e+01
v 6.17767962e+03 5.27368869e+03 1.62572164e+01
v 6.18591835e+03 5.27236122e+03 1.58892658e+01
v 6.17092725e+03 5.26996138e+03 1.57177653e+01
v 6.17371264e+03 5.27096872e+03 1.56814953e+01
v 6.17048569e+03 5.26172455e+03 1.73511540e+01
v 6.17138033e+03 5.25284023e+03 1.60253734e+01
v 6.17293409e+03 5.25076761e+03 1.59772799e+01
v 6.17315874e+03 5.26365360e+03 1.63857364e+01
v 6.17178339e+03 5.26938258e+03 1.59727158e+01
v 6.17268874e+03 5.26957203e+03 1.69403563e+01
v 6.17238162e+03 5.26803227e+03 1.68667519e+01
v 6.17215288e+03 5.26723445e+03 1.56847226e+01
v 6.17519738e+03 5.27051086e+03 1.59076446e+01
v 6.17385080e+03 5.27035772e+03 1.64866002e+01
v 6.17683233e+03 5.26595730e+03 1.66427718e+01
v 6.17448821e+03 5.26937910e+03 1.64262005e+01
v 6.17592162e+03 5.27042938e+03 1.58679943e+01
v 6.18027651e+03 5.26919309e+03 1.60838719e+01
v 6.17598978e+03 5.26576280e+03 1.61325361e+01
v 6.17564260e+03 5.26799393e+03 1.60879789e+01
v 6.17885712e+03 5.26760629e+03 1.62026221e+01
v 6.17448659e+03 5.25000000e+03 1.69518959e+01
v 6.17391939e+03 5.25093559e+03 1.70447335e+01
v 6.17323718e+03 5.26855767e+03 1.69529491e+01
v 6.17200692e+03 5.26867517e+03 1.70518674e+01
v 6.17558958e+03 5.26945516e+03 1.55128922e+01
v 6.17452355e+03 5.27379967e+03 1.54684575e+01
v 6.17595779e+03 5.27299754e+03 1.57806629e+01
v 6.17475360e+03 5.27181573e+03 1.56544960e+01
v 6.17372453e+03 5.26801955e+03 1.63409954e+01
v 6.17360110e+03 5.25000000e+03 1.60159673e+01
v 6.18088871e+03 5.27145320e+03 1.58053708e+01
v 6.17869147e+03 5.27181502e+03 1.54516108e+01
v 6.17904387e+03 5.27357203e+03 1.62357793e+01
v 6.18013199e+03 5.27308400e+03 1.58631727e+01
v 6.17941485e+03 5.27514363e+03 1.55479221e+01
v 6.18366977e+03 5.27401868e+03 1.52940839e+01
v 6.18115469e+03 5.27320371e+03 1.52500914e+01
v 6.18536160e+03 5.27524372e+03 1.51274088e+01
v 6.18637236e+03 5.27515996e+03 1.54783592e+01
v 6.18604193e+03 5.27393399e+03 1.52975796e+01
v 6.18450154e+03 5.27687387e+03 1.51959004e+01
v 6.17763007e+03 5.27500343e+03 1.55848359e+01
v 6.18107293e+03 5.27723136e+03 1.51121053e+01
v 6.18735969e+03 5.27566226e+03 1.51584701e+01
v 6.17260547e+03 5.28073687e+03 1.61358168e+01
v 6.17257714e+03 5.27969190e+03 1.53646522e+01
v 6.17569495e+03 5.27902788e+03 1.52925054e+01
v 6.17953457e+03 5.27943928e+03 1.51836174e+01
v 6.18428184e+03 5.27902416e+03 1.52549136e+01
v 6.18428236e+03 5.28127886e+03 1.52993334e+01
v 6.17961199e+03 5.28108333e+03 1.49618822e+01
v 6.17307664e+03 5.28083002e+03 1.55578588e+01
v 6.18640716e+03 5.28050159e+03 1.51047653e+01
v 6.18599167e+03 5.27734330e+03 1.52016671e+01
v 6.18543917e+03 5.27673784e+03 1.55097646e+01
v 6.17443277e+03 5.25000000e+03 1.77308258e+01
v 6.18381643e+03 5.25000000e+03 2.90375162e+01
v 6.18481524e+03 5.25000000e+03 2.73107063e+01
v 6.18756365e+03 5.25000000e+03 2.65483210e+01
v 6.18756350e+03 5.25000000e+03 2.65483217e+01
v 6.18441132e+03 5.25000000e+03 2.76821304e+01
v 6.15600000e+03 5.27618642e+03 1.93095858e+01
v 6.15600000e+03 5.27641409e+03 1.87989369e+01
v 6.15600000e+03 5.27662826e+03 1.81052637e+01
v 6.15600000e+03 5.25102263e+03 1.63125771e+01
v 6.15600000e+03 5.25082181e+03 1.63406457e+01
v 6.15600000e+03 5.25121773e+03 1.61564177e+01
v 6.15600000e+03 5.27557437e+03 1.64979728e+01
v 6.15600000e+03 5.27446542e+03 1.62176152e+01
v 6.15600000e+03 5.27388273e+03 1.61408098e+01
v 6.15600000e+03 5.27378568e+03 1.60683234e+01
v 6.15600000e+03 5.27180731e+03 1.59330289e+01
v 6.15600000e+03 5.27021362e+03 1.60438571e+01
v 6.15600000e+03 5.25944650e+03 1.61625048e+01
v 6.15600000e+03 5.26237230e+03 1.61347818e+01
v 6.15600000e+03 5.26497868e+03 1.61334324e+01
v 6.15600000e+03 5.27609409e+03 1.76295968e+01
v 6.15600000e+03 5.27608586e+03 1.80726796e+01
v 6.15600000e+03 5.27411143e+03 1.60851742e+01
v 6.15600000e+03 5.27638245e+03 1.66940728e+01
v 6.15600000e+03 5.25346592e+03 1.61657072e+01
v 6.15600000e+03 5.27630906e+03 2.00983755e+01
v 6.15600000e+03 5.27635477e+03 2.06212799e+01
v 6.15600000e+03 5.27636806e+03 2.22173164e+01
v 6.15600000e+03 5.27647378e+03 3.73139037e+01
v 6.15600000e+03 5.27689034e+03 3.75625695e+01
v 6.15600000e+03 5.27948367e+03 3.81099659e+01
v 6.15600000e+03 5.27581958e+03 3.69779266e+01
v 6.15600000e+03 5.27562671e+03 3.63176586e+01
v 6.15600000e+03 5.27632389e+03 2.38722967e+01
v 6.15600000e+03 5.27625407e+03 2.54613208e+01
v 6.15600000e+03 5.27644637e+03 2.89401830e+01
v 6.15600000e+03 5.27630412e+03 2.76046204e+01
v 6.15600000e+03 5.27648513e+03 2.57516319e+01
v 6.15600000e+03 5.27626575e+03 2.69513783e+01
v 6.15600000e+03 5.27634309e+03 3.15280848e+01
v 6.15600000e+03 5.27626627e+03 3.07844360e+01
v 6.15600000e+03 5.27635181e+03 2.99701991e+01
v 6.15600000e+03 5.27635076e+03 3.24342728e+01
v 6.15600000e+03 5.27610769e+03 3.43877838e+01
v 6.15600000e+03 5.27604154e+03 3.42101670e+01
v 6.15600000e+03 5.27582512e+03 3.51193960e+01
v 6.15600000e+03 5.27730826e+03 3.77674094e+01
v 6.15600000e+03 5.27889938e+03 3.80093393e+01
v 6.15600000e+03 5.27294740e+03 1.61074358e+01
v 6.15600000e+03 5.27592424e+03 3.33610291e+01
v 6.15600000e+03 5.25000000e+03 1.60915730e+01
v 6.18775000e+03 5.26017598e+03 2.99093344e+01
v 6.18775000e+03 5.25998573e+03 2.98717856e+01
v 6.18775000e+03 5.26793832e+03 2.06134052e+01
v 6.18775000e+03 5.26655364e+03 2.04438488e+01
v 6.18775000e+03 5.27194788e+03 2.06781808e+01
v 6.18775000e+03 5.27179133e+03 2.10347733e+01
v 6.18775000e+03 5.27989083e+03 1.50632399e+01
v 6.18775000e+03 5.27935170e+03 1.50943442e+01
v 6.18775000e+03 5.27543528e+03 1.51505610e+01
v 6.18775000e+03 5.27572525e+03 1.51494096e+01
v 6.18775000e+03 5.27311952e+03 1.49999978e+01
v 6.18775000e+03 5.27316141e+03 1.49853594e+01
v 6.18775000e+03 5.27699871e+03 1.51570694e+01
v 6.18775000e+03 5.27341764e+03 1.49965782e+01
v 6.18775000e+03 5.27185660e+03 1.96106155e+01
v 6.18775000e+03 5.27198465e+03 2.03705726e+01
v 6.18775000e+03 5.27311022e+03 1.50479156e+01
v 6.18775000e+03 5.27293115e+03 1.57714681e+01
v 6.18775000e+03 5.27288939e+03 1.68550449e+01
v 6.18775000e+03 5.27289143e+03 1.69453021e+01
v 6.18775000e+03 5.27274355e+03 1.90771765e+01
v 6.18775000e+03 5.27235418e+03 1.94550892e+01
v 6.18775000e+03 5.26602292e+03 2.06779720e+01
v 6.18775000e+03 5.27119159e+03 2.15484712e+01
v 6.18775000e+03 5.27091873e+03 2.14608447e+01
v 6.18775000e+03 5.26920016e+03 2.09805910e+01
v 6.18775000e+03 5.27009507e+03 2.13109096e+01
v 6.18775000e+03 5.25318290e+03 2.63406285e+01
v 6.18775000e+03 5.25445784e+03 2.62514944e+01
v 6.18775000e+03 5.25570809e+03 2.62859247e+01
v 6.18775000e+03 5.26606473e+03 2.39434762e+01
v 6.18775000e+03 5.26605955e+03 2.67046625e+01
v 6.18775000e+03 5.26852703e+03 2.08070917e+01
v 6.18775000e+03 5.26036273e+03 2.58530237e+01
v 6.18775000e+03 5.25943498e+03 2.59652280e+01
v 6.18775000e+03 5.26008451e+03 2.82784007e+01
v 6.18775000e+03 5.26017250e+03 2.76084936e+01
v 6.18775000e+03 5.26039936e+03 2.60728856e+01
v 6.18775000e+03 5.26593982e+03 2.71938048e+01
v 6.18775000e+03 5.25615126e+03 2.62028230e+01
v 6.18775000e+03 5.25736593e+03 2.61327869e+01
v 6.18775000e+03 5.25015757e+03 2.65215932e+01
v 6.18775000e+03 5.25008324e+03 2.65492947e+01
v 6.18775000e+03 5.25266517e+03 2.63607373e+01
v 6.18775000e+03 5.25084015e+03 2.65045660e+01
v 6.18775000e+03 5.25015826e+03 2.65216401e+01
v 6.18775000e+03 5.25041096e+03 2.65355335e+01
v 6.18775000e+03 5.25000008e+03 2.65921800e+01
v 6.18775000e+03 5.26483878e+03 3.00203416e+01
v 6.18775000e+03 5.26239354e+03 3.03546582e+01
v 6.18775000e+03 5.25971754e+03 2.98187734e+01
v 6.18775000e+03 5.25997783e+03 2.86431023e+01
v 6.18775000e+03 5.26506390e+03 3.00273140e+01
v 6.18775000e+03 5.26728460e+03 2.96877456e+01
v 6.18775000e+03 5.26696031e+03 3.00096813e+01
v 6.18775000e+03 5.26680308e+03 2.89123528e+01
v 6.18775000e+03 5.26568530e+03 2.76088674e+01
v 6.18775000e+03 5.26735314e+03 2.96431890e+01
v 6.18775000e+03 5.26723231e+03 2.95217690e+01
v 6.18775000e+03 5.25000000e+03 2.65922035e+01
v 6.16668816e+03 5.28150000e+03 1.66213244e+01
v 6.16672033e+03 5.28150000e+03 1.67270293e+01
v 6.16707694e+03 5.28150000e+03 1.81027007e+01
v 6.16667927e+03 5.28150000e+03 1.66150767e+01
v 6.16668562e+03 5.28150000e+03 1.65973808e+01
v 6.16692009e+03 5.28150000e+03 1.59390621e+01
v 6.16708694e+03 5.28150000e+03 1.54754299e+01
v 6.16762577e+03 5.28150000e+03 1.83995591e+01
v 6.16693721e+03 5.28150000e+03 1.91433526e+01
v 6.16686736e+03 5.28150000e+03 2.03871795e+01
v 6.16686779e+03 5.28150000e+03 1.94519064e+01
v 6.16668489e+03 5.28150000e+03 2.08247216e+01
v 6.15648156e+03 5.28150000e+03 3.90825955e+01
v 6.16684007e+03 5.28150000e+03 3.08957077e+01
v 6.16686688e+03 5.28150000e+03 3.02634399e+01
v 6.16666008e+03 5.28150000e+03 2.76926449e+01
v 6.16689147e+03 5.28150000e+03 2.93518797e+01
v 6.16683740e+03 5.28150000e+03 2.39760907e+01
v 6.16688244e+03 5.28150000e+03 2.41524109e+01
v 6.16696538e+03 5.28150000e+03 2.72244327e+01
v 6.16684923e+03 5.28150000e+03 2.34967552e+01
v 6.16686788e+03 5.28150000e+03 2.38037862e+01
v 6.16688228e+03 5.28150000e+03 2.39070961e+01
v 6.16685816e+03 5.28150000e+03 3.44214498e+01
v 6.16695812e+03 5.28150000e+03 3.58930284e+01
v 6.16739458e+03 5.28150000e+03 3.66471946e+01
v 6.16605680e+03 5.28150000e+03 3.75419842e+01
v 6.16549547e+03 5.28150000e+03 3.77588013e+01
v 6.15962657e+03 5.28150000e+03 4.12012448e+01
v 6.15984508e+03 5.28150000e+03 3.93331878e+01
v 6.15889262e+03 5.28150000e+03 4.18595271e+01
v 6.15885236e+03 5.28150000e+03 4.16686515e+01
v 6.15868783e+03 5.28150000e+03 4.02838369e+01
v 6.15943107e+03 5.28150000e+03 4.17291995e+01
v 6.16091418e+03 5.28150000e+03 3.90361344e+01
v 6.15985580e+03 5.28150000e+03 3.93055489e+01
v 6.16402216e+03 5.28150000e+03 3.80374607e+01
v 6.15857555e+03 5.28150000e+03 4.02055663e+01
v 6.15753149e+03 5.28150000e+03 3.95234379e+01
v 6.16693921e+03 5.28150000e+03 3.71991827e+01
v 6.16686599e+03 5.28150000e+03 3.28501112e+01
v 6.16697572e+03 5.28150000e+03 3.15714842e+01
v 6.16725487e+03 5.28150000e+03 3.36850191e+01
v 6.17895339e+03 5.28150000e+03 1.51419531e+01
v 6.18003176e+03 5.28150000e+03 1.49585224e+01
v 6.17394181e+03 5.28150000e+03 1.52350787e+01
v 6.17494597e+03 5.28150000e+03 1.52018564e+01
v 6.17283808e+03 5.28150000e+03 1.58173282e+01
v 6.17320807e+03 5.28150000e+03 1.60400261e+01
v 6.18156827e+03 5.28150000e+03 1.50024701e+01
v 6.18031518e+03 5.28150000e+03 1.49398472e+01
v 6.18417787e+03 5.28150000e+03 1.52493616e+01
v 6.18434175e+03 5.28150000e+03 1.52871347e+01
v 6.18441822e+03 5.28150000e+03 1.52799782e+01
v 6.18373089e+03 5.28150000e+03 1.50170660e+01
v 6.18266574e+03 5.28150000e+03 1.49240570e+01
v 6.18652457e+03 5.28150000e+03 1.50674279e+01
v 6.18747874e+03 5.28150000e+03 1.50439085e+01
v 6.17790990e+03 5.28150000e+03 1.51668774e+01
v 6.17639937e+03 5.28150000e+03 1.52246289e+01
v 6.17330783e+03 5.28150000e+03 1.58979578e+01
v 6.17373105e+03 5.28150000e+03 1.53961652e+01
v 6.17272933e+03 5.28150000e+03 1.54935157e+01
v 6.17198386e+03 5.28150000e+03 1.55474850e+01
v 6.16709100e+03 5.28150000e+03 1.54590755e+01
v 6.16924711e+03 5.28150000e+03 1.55255106e+01
v 6.17175073e+03 5.28150000e+03 1.55721571e+01
v 6.16708926e+03 5.28150000e+03 1.54644119e+01
v 6.16738198e+03 5.28150000e+03 3.70162972e+01
v 6.16760451e+03 5.28150000e+03 3.69384521e+01
v 6.17035620e+03 5.28150000e+03 1.54424076e+01
v 6.16751813e+03 5.28150000e+03 3.67818896e+01
v 6.15643692e+03 5.28150000e+03 3.90593303e+01
v 6.15600000e+03 5.28150000e+03 3.88316068e+01
v 6.18775000e+03 5.28150000e+03 1.50332187e+01
vt 0.014487252 0.5041157
vt 0.020309305 0.5146935
vt 0.0047717602 0.52010345
vt 0.0047703991 0.51696539
vt 0.040912356 0.50410247
vt 0.03483114 0.54111719
vt 0.0047693024 0.50412714
vt 0.0047746673 0.52315366
vt 0.054787107 0.50411105
vt 0.0047859298 0.55828154
vt 0.20993795 0.50406325
vt 0.0048162336 0.65172869
vt 0.14066637 0.59970921
vt 0.036697514 0.70262909
vt 0.19382587 0.63250601
vt 0.13027093 0.68046582
vt 0.0048313802 0.6974448
vt 0.17566296 0.65634406
vt 0.2451033 0.54842871
vt 0.17667055 0.72298324
vt 0.0048445864 0.73816979
vt 0.269371 0.51603651
vt 0.24588193 0.60036033
vt 0.11270367 0.78652328
vt 0.0048721787 0.81996691
vt 0.27978873 0.50403869
vt 0.22043546 0.6222074
vt 0.20175804 0.69063634
vt 0.17035599 0.75781739
vt 0.036311872 0.82931912
vt 0.21754731 0.74210733
vt 0.19618361 0.66625786
vt 0.18707155 0.84835923
vt 0.09599904 0.83306438
vt 0.0048816055 0.84486961
vt 0.18237203 0.73447883
vt 0.23503359 0.69548911
vt 0.21152477 0.6791867
vt 0.21366666 0.78832579
vt 0.052759267 0.84738398
vt 0.024385404 0.86498493
vt 0.19276123 0.75918651
vt 0.17528725 0.74877095
vt 0.26667151 0.74815893
vt 0.23811433 0.81595337
vt 0.13340178 0.89199972
vt 0.078274034 0.85616553
vt 0.0048852307 0.86268187
vt 0.22436 0.77945894
vt 0.27294132 0.71737564
vt 0.25725144 0.77333903
vt 0.24876179 0.78808755
vt 0.28164169 0.83167946
vt 0.10529408 0.87290478
vt 0.1659741 0.90905404
vt 0.046610404 0.88780987
vt 0.0048899539 0.87578052
vt 0.31719026 0.75032032
vt 0.28180447 0.78559148
vt 0.25148538 0.80690271
vt 0.25236598 0.8869431
vt 0.10983142 0.88014054
vt 0.20884143 0.89615446
vt 0.070163421 0.87209445
vt 0.030350106 0.90506911
vt 0.0091003664 0.87817478
vt 0.27418491 0.79399592
vt 0.29432914 0.87591124
vt 0.083105415 0.86353123
vt 0.19827445 0.92831457
vt 0.070165999 0.9274739
vt 0.0048895534 0.87729609
vt 0.31177744 0.7851842
vt 0.29374295 0.80682993
vt 0.31673139 0.8633675
vt 0.27462614 0.91989237
vt 0.21850532 0.9387669
vt 0.13012534 0.9043771
vt 0.015742052 0.89814079
vt 0.0048913951 0.88087016
vt 0.36200124 0.77910972
vt 0.31096345 0.80802226
vt 0.28378755 0.82212347
vt 0.29791141 0.84490895
vt 0.34287342 0.89470321
vt 0.11314683 0.95487618
vt 0.0048937229 0.90372437
vt 0.0048915581 0.88639987
vt 0.38418877 0.80389774
vt 0.33501706 0.82716489
vt 0.30483574 0.82451558
vt 0.34363273 0.87415314
vt 0.31266093 0.95759833
vt 0.24351424 0.95267689
vt 0.14875783 0.90553689
vt 0.13537733 0.96023256
vt 0.0048954012 0.9163487
vt 0.38912526 0.79239351
vt 0.31615213 0.82323909
vt 0.31288448 0.84870899
vt 0.36494893 0.87232363
vt 0.37265876 0.96400821
vt 0.26394749 0.96798879
vt 0.21920955 0.9453789
vt 0.18152866 0.93483162
vt 0.14987023 0.9790622
vt 0.42698824 0.81985885
vt 0.3937692 0.83921188
vt 0.32660264 0.83823735
vt 0.3707619 0.89688516
vt 0.34983638 0.85453379
vt 0.39668542 0.92950225
vt 0.37387946 0.98969847
vt 0.28528127 0.99623483
vt 0.24381888 0.96031678
vt 0.18912491 0.92951256
vt 0.35944337 0.8448801
vt 0.33236259 0.86308181
vt 0.38195306 0.86469644
vt 0.40444812 0.99619859
vt 0.36358869 0.9962104
vt 0.30097175 0.99623013
vt 0.27175561 0.98576748
vt 0.20825513 0.94861424
vt 0.26438591 0.98430848
vt 0.44998643 0.83344644
vt 0.39794093 0.86656809
vt 0.42159715 0.99619383
vt 0.38486931 0.99620557
vt 0.38044059 0.99620682
vt 0.34728384 0.99621546
vt 0.32368088 0.9962225
vt 0.28198612 0.9962343
vt 0.24315986 0.97573423
vt 0.17804442 0.99614447
vt 0.43724272 0.87928879
vt 0.43823907 0.99618751
vt 0.27536717 0.99623126
vt 0.21192271 0.99625564
vt 0.25784004 0.99206161
vt 0.17823419 0.99626726
vt 0.47236133 0.85337335
vt 0.45025492 0.92389816
vt 0.44683221 0.95749712
vt 0.2292534 0.99625093
vt 0.26802829 0.99623448
vt 0.25104141 0.99624252
vt 0.17820691 0.99626726
vt 0.46935168 0.82431865
vt 0.46368599 0.89842331
vt 0.44522035 0.99618286
vt 0.27380672 0.9962303
vt 0.25468433 0.99624157
vt 0.47430751 0.87795353
vt 0.46490091 0.92176473
vt 0.4735406 0.93122542
vt 0.44685122 0.9927265
vt 0.50099564 0.86522174
vt 0.47947454 0.89710575
vt 0.48004979 0.98057294
vt 0.44778046 0.99618161
vt 0.50099605 0.86587644
vt 0.49490809 0.90495253
vt 0.50102603 0.96259898
vt 0.44897541 0.99618131
vt 0.50100702 0.90593499
vt 0.5010134 0.92583269
vt 0.50102913 0.97102338
vt 0.48188987 0.99617279
vt 0.50099719 0.86987996
vt 0.50100553 0.90140414
vt 0.49679917 0.9961682
vt 0.50103766 0.99616694
vt 0.96075886 0.80334729
vt 0.94984096 0.84995037
vt 0.93872559 0.78740233
vt 0.9604972 0.77793849
vt 0.96229589 0.83421195
vt 0.92384452 0.81376487
vt 0.96704006 0.87960488
vt 0.87918413 0.89700389
vt 0.89883894 0.79848498
vt 0.96303827 0.8963567
vt 0.94621962 0.94706845
vt 0.86382037 0.81945777
vt 0.91868788 0.78015053
vt 0.90319598 0.94655913
vt 0.82129943 0.81840259
vt 0.8903749 0.78466809
vt 0.84772062 0.78390878
vt 0.969491 0.94673592
vt 0.91003245 0.96127617
vt 0.8466723 0.94302219
vt 0.79050267 0.87404084
vt 0.78119522 0.78882772
vt 0.96210515 0.97235465
vt 0.93967545 0.97769034
vt 0.79454798 0.95362383
vt 0.78352696 0.80493963
vt 0.7928884 0.78041571
vt 0.95123678 0.98647869
vt 0.9260385 0.97202903
vt 0.84938979 0.96496958
vt 0.73388875 0.94588137
vt 0.77851158 0.82196856
vt 0.73640519 0.82069814
vt 0.7404778 0.78218615
vt 0.96841437 0.98707104
vt 0.93367326 0.99272215
vt 0.91446596 0.97738492
vt 0.90093547 0.9929868
vt 0.76416612 0.99485677
vt 0.77193058 0.95930344
vt 0.71157765 0.79250401
vt 0.96487927 0.99455589
vt 0.85453105 0.99316251
vt 0.81535536 0.993586
vt 0.74938935 0.97997069
vt 0.70184994 0.82396007
vt 0.7334159 0.95891559
vt 0.69157827 0.8716886
vt 0.66515291 0.78752291
vt 0.71804881 0.98163849
vt 0.66534895 0.87523693
vt 0.68112826 0.82295161
vt 0.69895613 0.99450594
vt 0.69995129 0.96024758
vt 0.67832237 0.94918412
vt 0.64486724 0.99654049
vt 0.66867554 0.97646487
vt 0.64132851 0.93132436
vt 0.6422441 0.85479355
vt 0.63906419 0.78756958
vt 0.65764523 0.97777045
vt 0.6421001 0.96163297
vt 0.63773012 0.97953755
vt 0.62793916 0.99645793
vt 0.25471446 0.55545765
vt 0.26356024 0.54190373
vt 0.29172504 0.54845661
vt 0.27799278 0.57625103
vt 0.26927346 0.527233
vt 0.30563173 0.59461164
vt 0.30306894 0.5150305
vt 0.44114697 0.5703218
vt 0.32613599 0.47507775
vt 0.37255958 0.53050017
vt 0.34420723 0.62128252
vt 0.34908381 0.48309869
vt 0.41004416 0.49420989
vt 0.37724194 0.64329606
vt 0.35922924 0.4322558
vt 0.3718895 0.49135876
vt 0.43142176 0.53644329
vt 0.42126763 0.6711365
vt 0.32917884 0.44211274
vt 0.4475182 0.49000812
vt 0.52054334 0.58104819
vt 0.50443459 0.61921358
vt 0.3542594 0.40567821
vt 0.48277199 0.49913836
vt 0.44449595 0.46437359
vt 0.5315249 0.52092451
vt 0.40393075 0.42830211
vt 0.52233207 0.73767227
vt 0.38967642 0.42653829
vt 0.48839465 0.48220414
vt 0.46980298 0.42930359
vt 0.54001749 0.60926402
vt 0.58277875 0.56219524
vt 0.46852997 0.40619779
vt 0.5768767 0.64399958
vt 0.49115387 0.45807874
vt 0.50891906 0.43054366
vt 0.58277929 0.56516743
vt 0.58277804 0.55800515
vt 0.42029414 0.40622109
vt 0.53779793 0.74590588
vt 0.49425015 0.47351509
vt 0.5348376 0.49573708
vt 0.58278507 0.59981239
vt 0.58280152 0.63802302
vt 0.57876706 0.6772809
vt 0.519647 0.44399673
vt 0.52347749 0.47393775
vt 0.51653534 0.4061873
vt 0.58280253 0.64154047
vt 0.58281237 0.67117238
vt 0.56064469 0.47073746
vt 0.54714328 0.48978037
vt 0.53715563 0.45268178
vt 0.74610931 0.55277383
vt 0.73214757 0.54832399
vt 0.7380448 0.495691
vt 0.74528921 0.48665196
vt 0.74850553 0.61759174
vt 0.69429129 0.49482024
vt 0.72074592 0.46736091
vt 0.76958901 0.49438196
vt 0.77604711 0.58727312
vt 0.73497623 0.59943759
vt 0.70096409 0.54135555
vt 0.75141984 0.46817273
vt 0.77786666 0.53393131
vt 0.76961559 0.55820096
vt 0.76728344 0.60938042
vt 0.74148977 0.65625799
vt 0.69225091 0.59105432
vt 0.63513887 0.48477155
vt 0.67230546 0.46742952
vt 0.7335096 0.45327646
vt 0.77878469 0.46083367
vt 0.79236645 0.48884434
vt 0.79089141 0.59570909
vt 0.79658133 0.63866955
vt 0.76731348 0.64713991
vt 0.72378355 0.64806211
vt 0.6955747 0.61818683
vt 0.68489397 0.55294943
vt 0.63535219 0.54038656
vt 0.68643028 0.44953769
vt 0.75337279 0.45025814
vt 0.72727746 0.44587952
vt 0.78642166 0.43907166
vt 0.79379267 0.5389511
vt 0.76562375 0.66061556
vt 0.75525719 0.69515026
vt 0.67979902 0.59860116
vt 0.65191829 0.57607871
vt 0.65672177 0.45093161
vt 0.69888675 0.43468213
vt 0.73802572 0.43889016
vt 0.72472751 0.42751712
vt 0.7950176 0.44765908
vt 0.81530786 0.54179382
vt 0.78995472 0.66679484
vt 0.81719273 0.64073896
vt 0.77078086 0.69160861
vt 0.73110497 0.69426769
vt 0.68144953 0.64472151
vt 0.63440406 0.46776015
vt 0.6807397 0.43464553
vt 0.77155936 0.43968099
vt 0.74415493 0.41347921
vt 0.81714946 0.45237017
vt 0.81536853 0.42791718
vt 0.81526399 0.49344999
vt 0.81746835 0.54547298
vt 0.81687623 0.65057749
vt 0.81748831 0.62654436
vt 0.70090824 0.69214714
vt 0.7802031 0.7073344
vt 0.63631773 0.61044711
vt 0.63421458 0.42252314
vt 0.69402885 0.41512543
vt 0.64962524 0.41473508
vt 0.76166826 0.43399394
vt 0.78751034 0.4138993
vt 0.8181743 0.46741587
vt 0.81526703 0.42781341
vt 0.81709927 0.53522694
vt 0.81735623 0.48675853
vt 0.81836706 0.59342808
vt 0.81695646 0.54269183
vt 0.79571152 0.695876
vt 0.81487054 0.60051012
vt 0.71503931 0.71507537
vt 0.6340639 0.64233959
vt 0.81573445 0.4295882
vt 0.81737608 0.47217697
vt 0.82605517 0.45631081
vt 0.81730753 0.5400272
vt 0.81747037 0.54164815
vt 0.8184157 0.6612103
vt 0.75993437 0.71012843
vt 0.68580335 0.71366322
vt 0.77116597 0.72837508
vt 0.64686543 0.66194856
vt 0.81533986 0.42754209
vt 0.8197878 0.45129079
vt 0.81714118 0.68106711
vt 0.71588314 0.74362969
vt 0.66423422 0.68757677
vt 0.78819966 0.74390119
vt 0.6365028 0.66762316
vt 0.81976831 0.41007793
vt 0.82157207 0.69436169
vt 0.64658082 0.70872939
vt 0.68514991 0.66046548
vt 0.65900469 0.74188405
vt 0.81702667 0.70556021
vt 0.63050371 0.68764985
vt 0.81802994 0.41744554
vt 0.81814539 0.72857499
vt 0.81994414 0.41033614
vt 0.62935531 0.74379212
vt 0.81956851 0.74529755
vt 0.81997085 0.41016603
vt 0.82312125 0.74064469
vt 0.82453102 0.7428329
vt 0.82551569 0.74533546
vt 0.61071867 0.67258221
vt 0.62135965 0.68842757
vt 0.59806544 0.66984284
vt 0.60384101 0.66892064
vt 0.62103379 0.64320028
vt 0.60034448 0.68049365
vt 0.60375428 0.66201925
vt 0.60276783 0.68828082
vt 0.6006856 0.64765465
vt 0.6014604 0.70067167
vt 0.62216538 0.70543402
vt 0.60097265 0.70885873
vt 0.62214953 0.76106524
vt 0.60082793 0.73375106
vt 0.60129493 0.7595185
vt 0.61893141 0.80038559
vt 0.60203534 0.78423804
vt 0.62170976 0.83122516
vt 0.59957433 0.78894043
vt 0.59998089 0.83862036
vt 0.60190797 0.807477
vt 0.60149813 0.81769031
vt 0.60098571 0.85460615
vt 0.60189492 0.86723477
vt 0.62360954 0.8628239
vt 0.60107547 0.87888694
vt 0.6169638 0.88874978
vt 0.60099208 0.89302027
vt 0.6218859 0.90800434
vt 0.60553193 0.90714264
vt 0.60428119 0.9204703
vt 0.60927254 0.92216587
vt 0.62805068 0.92978472
vt 0.60357648 0.9232899
vt 0.62406754 0.96391124
vt 0.60658383 0.93447989
vt 0.60869431 0.95300931
vt 0.60663927 0.96345019
vt 0.01753322 0.37896657
vt 0.030778026 0.35844678
vt 0.022169432 0.38997597
vt 0.020785186 0.39047307
vt 0.017409503 0.33460593
vt 0.017674316 0.38828731
vt 0.024109207 0.39677578
vt 0.032979429 0.3178283
vt 0.018873733 0.3937608
vt 0.014445609 0.39616275
vt 0.017739007 0.44517928
vt 0.0093569774 0.30436617
vt 0.053216424 0.3327508
vt 0.033664558 0.27998549
vt 0.073014244 0.36459941
vt 0.053872827 0.44983381
vt 0.0044903923 0.27930516
vt 0.053923689 0.28920555
vt 0.072305068 0.32953328
vt 0.031350352 0.47700638
vt 0.079433531 0.42262912
vt 0.10539892 0.35788912
vt 0.062589779 0.48786652
vt 0.012511062 0.47165573
vt 0.084251806 0.29447418
vt 0.083636031 0.47013992
vt 0.096208312 0.32175249
vt 0.068811044 0.4788723
vt 0.037932385 0.49204069
vt 0.022207301 0.49081242
vt 0.10950409 0.41302115
vt 0.098939873 0.46060789
vt 0.13065511 0.33279896
vt 0.062861606 0.49650216
vt 0.005869667 0.48552543
vt 0.11944606 0.29348236
vt 0.12190778 0.37172645
vt 0.12472066 0.4703117
vt 0.10874911 0.49562913
vt 0.0062237359 0.49340957
vt 0.13134679 0.28095973
vt 0.13447461 0.41368151
vt 0.14571188 0.30489731
vt 0.15212063 0.34877425
vt 0.14008704 0.49475765
vt 0.17082152 0.28153002
vt 0.15362045 0.44591624
vt 0.15227476 0.39880669
vt 0.14890939 0.47379422
vt 0.17052458 0.3328315
vt 0.16867664 0.49106973
vt 0.17288233 0.44741666
vt 0.16457054 0.47256917
vt 0.17284532 0.39908218
vt 0.18358397 0.49562091
vt 0.17675748 0.47781277
vt 0.28077802 0.23344678
vt 0.27410921 0.27177578
vt 0.2644456 0.27116275
vt 0.36557034 0.28978789
vt 0.2852211 0.30809516
vt 0.29003584 0.28757948
vt 0.28443953 0.26907259
vt 0.32379186 0.34981936
vt 0.2659432 0.29752469
vt 0.34245262 0.26657915
vt 0.34224772 0.3274461
vt 0.31011873 0.36800784
vt 0.26699063 0.31408143
vt 0.41581863 0.26507366
vt 0.25357205 0.27537262
vt 0.34516335 0.34295493
vt 0.35334527 0.34153134
vt 0.32365963 0.36223656
vt 0.30954313 0.36822528
vt 0.28100687 0.33444113
vt 0.26331148 0.30786145
vt 0.43369833 0.28103858
vt 0.25964493 0.30138695
vt 0.33793518 0.35555637
vt 0.36731625 0.33186412
vt 0.33712083 0.35800248
vt 0.28615367 0.34199029
vt 0.42645174 0.28691798
vt 0.44760874 0.26513785
vt 0.25388581 0.29155558
vt 0.35365498 0.34208918
vt 0.40743634 0.30055654
vt 0.30390897 0.37035364
vt 0.44509006 0.27178389
vt 0.33856836 0.3575775
vt 0.45080638 0.26707292
vt 0.45367897 0.26479226
vt 0.53050464 0.84392995
vt 0.52988774 0.85603511
vt 0.51405615 0.84568727
vt 0.52038085 0.82870728
vt 0.51275492 0.86229491
vt 0.50458002 0.82821465
vt 0.53151727 0.86996752
vt 0.50418544 0.88000429
vt 0.51531243 0.89143819
vt 0.52833259 0.90587825
vt 0.5155251 0.91855574
vt 0.50690728 0.9466486
vt 0.53095192 0.96706784
vt 0.51508224 0.96554697
vt 0.50708103 0.99537748
vt 0.52457613 0.99367344
vt 0.51557255 0.99399251
vt 0.95071948 0.60426039
vt 0.95939392 0.5945397
vt 0.96174991 0.64214021
vt 0.90823394 0.60353011
vt 0.97464871 0.60224521
vt 0.90032208 0.69232005
vt 0.92442596 0.59649634
vt 0.97479588 0.67885113
vt 0.93570477 0.71989059
vt 0.88298202 0.59949684
vt 0.88863283 0.59625214
vt 0.95938903 0.71977299
vt 0.91046715 0.71169269
vt 0.8834334 0.65043795
vt 0.97432935 0.70907223
vt 0.90459955 0.7404151
vt 0.890791 0.70690632
vt 0.88338345 0.69348097
vt 0.97297984 0.72719038
vt 0.8821094 0.70101523
vt 0.97686172 0.74507737
vt 0.89130491 0.72846663
vt 0.87940007 0.70729172
vt 0.90010512 0.74593234
vt 0.89587659 0.73829526
vt 0.89643377 0.74092281
vt 0.89716339 0.74028051
vt 0.89298123 0.7456941
vt 0.95728421 0.45693129
vt 0.93581754 0.50035113
vt 0.9071033 0.49798936
vt 0.91832638 0.48232442
vt 0.9486087 0.47839034
vt 0.92002833 0.52270889
vt 0.92933255 0.46771711
vt 0.97039902 0.48693568
vt 0.97040814 0.49598354
vt 0.90254575 0.50425106
vt 0.93679315 0.5093624
vt 0.93323344 0.46194947
vt 0.983823 0.45493257
vt 0.88648063 0.52677506
vt 0.94344258 0.53818852
vt 0.94392604 0.44711715
vt 0.97954375 0.43509805
vt 0.99679857 0.47440022
vt 0.99710524 0.50166655
vt 0.9088394 0.55811864
vt 0.96213925 0.42155349
vt 0.97030586 0.40986139
vt 0.88270253 0.53205442
vt 0.88047796 0.53496385
vt 0.88150829 0.53852361
vt 0.88047189 0.53497177
vt 0.88149172 0.53850961
vt 0.8814925 0.53851235
vt 0.87981766 0.53602433
vt 0.88149053 0.5385111
vt 0.87908578 0.53727555
vt 0.87908506 0.53727669
vt 0.51877409 0.82421076
vt 0.49831602 0.81515074
vt 0.53431576 0.80887216
vt 0.56519002 0.81796747
vt 0.47257102 0.82250398
vt 0.57150441 0.80468976
vt 0.59851295 0.8123222
vt 0.59377515 0.80187964
vt 0.42489147 0.77026457
vt 0.41660404 0.7570709
vt 0.44947678 0.76083577
vt 0.43913627 0.79463714
vt 0.41457641 0.7644906
vt 0.45042402 0.78350872
vt 0.41134715 0.79395014
vt 0.41327465 0.7713964
vt 0.47691146 0.75955415
vt 0.44800347 0.80788165
vt 0.43263033 0.80804223
vt 0.47994295 0.78371513
vt 0.46010643 0.80244845
vt 0.41159666 0.80370724
vt 0.48277479 0.75188679
vt 0.41036317 0.80948031
vt 0.49766183 0.7925505
vt 0.48261034 0.79998863
vt 0.50804126 0.77613187
vt 0.49846646 0.80382681
vt 0.51332599 0.79037595
vt 0.24982682 0.63440824
vt 0.23766842 0.62842369
vt 0.25814861 0.62478328
vt 0.2774891 0.62849092
vt 0.21606423 0.63244486
vt 0.28576505 0.62210429
vt 0.2827616 0.6601249
vt 0.21605052 0.68296874
vt 0.28615189 0.62550497
vt 0.28370994 0.64961505
vt 0.20707968 0.6542381
vt 0.2816191 0.6658901
vt 0.1911601 0.64258611
vt 0.27882668 0.68441331
vt 0.29343447 0.71242368
vt 0.29440194 0.70204675
vt 0.30565119 0.70406497
vt 0.33096269 0.71409905
vt 0.2873255 0.69092035
vt 0.29803747 0.72167301
vt 0.33694753 0.69529706
vt 0.28510779 0.69605392
vt 0.3061702 0.73045182
vt 0.34505057 0.70725715
vt 0.29038849 0.70220757
vt 0.32261151 0.72889078
vt 0.34752682 0.72197229
vt 0.30986547 0.73115897
vt 0.32102174 0.7344656
vt 0.3331407 0.73634589
vt 0.34225729 0.73852694
vt 0.35022998 0.74000537
vt 0.3689864 0.7464081
vt 0.40295622 0.74183643
vt 0.38712907 0.72768968
vt 0.40546337 0.68860054
vt 0.41104361 0.71936893
vt 0.39018804 0.67907983
vt 0.42994699 0.69597501
vt 0.43396363 0.71303713
vt 0.38139319 0.6932199
vt 0.40793794 0.67724741
vt 0.43743539 0.72802901
vt 0.3813729 0.69462562
vt 0.38093093 0.6762948
vt 0.37891141 0.66412699
vt 0.43753627 0.74635398
vt 0.38298273 0.72797346
vt 0.37901124 0.66488099
vt 0.54552901 0.92830324
vt 0.55457628 0.92907584
vt 0.56395167 0.94384551
vt 0.5376876 0.9483586
vt 0.53828591 0.92531139
vt 0.54188251 0.96444303
vt 0.57186258 0.95729643
vt 0.53575516 0.97207749
vt 0.56025892 0.9714396
vt 0.58294362 0.9722628
vt 0.53861976 0.98611653
vt 0.58242613 0.98923272
vt 0.55366427 0.99377769
vt 0.58096331 0.99602187
vt 0.99739301 0.93111318
vt 0.99804533 0.99576646
vt 0.97355586 0.95497465
vt 0.97663152 0.93758553
vt 0.98224884 0.97044712
vt 0.98266536 0.98782766
vt 0.018975614 0.97956818
vt 0.0046992628 0.96481884
vt 0.031635121 0.9687748
vt 0.038267381 0.97970629
vt 0.062158369 0.97294253
vt 0.044880524 0.96353
vt 0.031893149 0.92147374
vt 0.060837701 0.94386458
vt 0.058533568 0.9638294
vt 0.0082757156 0.91496658
vt 0.057897639 0.92571211
vt 0.0090356926 0.94514734
vt 0.0039561633 0.96506149
vt 0.58975041 0.9091053
vt 0.57994193 0.92075622
vt 0.57208222 0.90327066
vt 0.58573192 0.92647994
vt 0.56248206 0.92133105
vt 0.57195461 0.93304014
vt 0.5355702 0.91073793
vt 0.54278433 0.9239791
vt 0.61137432 0.97882324
vt 0.59734571 0.99670297
vt 0.5824393 0.9864288
vt 0.62108505 0.99631906
vt 0.63625389 0.97980666
vt 0.065527961 0.94824278
vt 0.067412317 0.9315632
vt 0.081198655 0.98108417
vt 0.56631881 0.87614834
vt 0.58019757 0.90161961
vt 0.55583781 0.90256083
vt 0.53588128 0.87594002
vt 0.55756831 0.82747883
vt 0.56382239 0.8412677
vt 0.54785413 0.85346723
vt 0.54026335 0.8404358
vt 0.5602473 0.87087655
vt 0.53590006 0.85646731
vt 0.9830609 0.99585199
vt 0.97571772 0.98939258
vt 0.97203213 0.95543492
vt 0.090590112 0.97966796
vt 0.090789966 0.94963527
vt 0.091315314 0.9503938
vt 0.081317812 0.98463613
vt 0.091350079 0.94993812
vt 0.08995565 0.98834413
vt 0.082649469 0.96118414
vt 0.13205795 0.97051919
vt 0.11722726 0.98051864
vt 0.10512707 0.96203387
vt 0.097683363 0.97999823
vt 0.57620299 0.87069857
vt 0.5659318 0.85693514
vt 0.6003111 0.85506094
vt 0.58091849 0.93298095
vt 0.57825303 0.95517474
vt 0.56652302 0.94303489
vt 0.58624274 0.96528333
vt 0.59731573 0.85084188
vt 0.56576079 0.85549247
vt 0.58720708 0.8306734
vt 0.57394153 0.83484989
vt 0.91873467 0.97572118
vt 0.92444086 0.98865157
vt 0.92000526 0.98642844
vt 0.92577636 0.97573757
vt 0.91964191 0.9911142
vt 0.92366296 0.97145033
vt 0.91809225 0.99699843
vt 0.58306128 0.92826056
vt 0.59713703 0.92598253
vt 0.60009265 0.94368654
vt 0.58449239 0.94891798
vt 0.58393711 0.94651908
vt 0.59193355 0.95006841
vt 0.58167195 0.92974377
vt 0.5816319 0.98003107
vt 0.58585948 0.96920609
vt 0.59492403 0.96807808
vt 0.60417956 0.96205491
vt 0.1440502 0.97714585
vt 0.13382876 0.96908742
vt 0.14477447 0.97453421
vt 0.12911944 0.97982383
vt 0.004545141 0.9914099
vt 0.014005561 0.99227959
vt 0.0030479061 0.99568343
vt 0.014843477 0.9883554
vt 0.53032678 0.98839879
vt 0.53419393 0.99249232
vt 0.52794689 0.99462444
vt 0.53545624 0.98746628
vt 0.53496212 0.99616849
usemtl Tile_+031_+022_L19_000101_0
f 97/292 13/293 105/294
f 40/345 119/334 521/346
f 13/293 14/302 34/297
f 92/440 95/441 85/442
f 24/305 97/292 103/304
f 162/1 160/2 418/3
f 115/174 91/175 122/176
f 120/6 155/13 156/16
f 31/357 90/358 32/343
f 36/20 35/36 126/43
f 151/33 158/63 143/55
f 148/96 90/106 30/86
f 121/332 110/333 30/344
f 111/354 142/356 112/330
f 154/453 115/451 153/456
f 418/3 120/6 420/8
f 155/13 159/11 154/15
f 127/29 151/33 131/24
f 131/24 36/20 127/29
f 131/24 151/33 147/34
f 126/761 127/762 36/763
f 36/20 156/16 153/18
f 154/15 153/18 155/13
f 36/20 153/18 152/28
f 147/34 151/33 132/46
f 128/54 147/34 132/46
f 131/24 147/34 129/30
f 90/106 148/96 136/105
f 148/96 30/86 137/78
f 139/610 132/611 143/612
f 90/358 29/324 32/343
f 148/96 137/78 136/105
f 30/344 26/322 121/332
f 132/46 151/33 143/55
f 524/360 90/358 525/379
f 138/135 90/106 149/124
f 90/106 136/105 149/124
f 31/357 30/344 90/358
f 146/71 141/56 134/64
f 135/708 140/709 150/710
f 150/47 147/34 128/54
f 140/40 129/30 147/34
f 130/41 141/56 142/65
f 150/47 140/40 147/34
f 142/65 141/56 146/71
f 137/78 123/62 139/95
f 124/711 150/710 128/712
f 134/64 137/78 146/71
f 128/54 123/62 124/69
f 144/66 111/79 421/87
f 133/331 110/333 33/298
f 144/66 130/41 142/65
f 130/41 129/30 140/40
f 156/16 145/14 120/6
f 145/14 129/30 426/25
f 36/20 131/24 145/14
f 156/16 36/20 145/14
f 33/298 107/310 118/321
f 107/310 112/330 118/321
f 110/333 121/332 109/323
f 146/355 133/331 116/342
f 117/402 41/403 417/404
f 116/342 112/330 142/356
f 116/342 142/356 146/355
f 134/64 141/56 140/40
f 118/321 116/342 133/331
f 521/346 29/324 524/360
f 139/610 143/612 37/613
f 30/344 110/333 146/355
f 136/105 139/95 37/116
f 137/78 134/64 123/62
f 132/611 139/610 123/614
f 142/65 111/79 144/66
f 132/46 123/62 128/54
f 135/708 150/710 124/711
f 123/62 134/64 124/69
f 140/757 135/758 134/759
f 131/24 129/30 145/14
f 140/40 141/56 130/41
f 153/18 156/16 155/13
f 107/310 42/309 112/330
f 125/42 126/43 35/36
f 127/29 126/43 125/42
f 134/759 135/758 124/760
f 153/177 115/174 122/176
f 159/11 155/13 120/6
f 157/5 161/9 120/6
f 120/6 160/2 157/5
f 120/6 145/14 427/12
f 119/334 39/313 108/312
f 27/311 109/323 121/332
f 108/312 28/303 29/324
f 33/298 110/333 109/323
f 112/330 116/342 118/321
f 33/298 109/323 27/311
f 115/451 114/447 113/444
f 91/175 115/174 113/178
f 115/451 154/453 114/447
f 41/341 111/354 112/330
f 41/403 117/402 111/406
f 33/298 118/321 133/331
f 104/299 97/292 106/295
f 114/447 95/441 113/444
f 92/440 85/442 96/443
f 91/175 113/178 92/180
f 95/441 92/440 113/444
f 34/297 14/302 42/309
f 13/293 34/297 105/294
f 104/299 39/313 103/304
f 97/292 104/299 103/304
f 34/297 33/298 105/294
f 104/299 28/303 108/312
f 28/303 33/298 27/311
f 104/299 106/295 28/303
f 107/310 33/298 34/297
f 33/298 106/295 105/294
f 28/303 106/295 33/298
f 39/313 104/299 108/312
f 42/309 107/310 34/297
f 42/309 41/341 112/330
f 436/413 99/414 437/415
f 71/296 25/300 102/306
f 10/201 72/208 11/215
f 51/499 52/500 60/501
f 51/499 53/505 56/509
f 45/503 52/500 51/499
f 58/375 63/352 57/377
f 16/318 70/340 84/328
f 67/383 20/392 83/378
f 534/349 23/315 535/337
f 93/301 13/293 71/296
f 68/734 70/735 21/736
f 88/448 96/443 80/450
f 85/442 89/446 96/443
f 103/304 39/313 94/325
f 22/314 102/306 25/300
f 89/446 80/450 96/443
f 25/300 71/296 97/292
f 97/292 24/305 25/300
f 97/292 71/296 13/293
f 12/308 93/301 16/318
f 443/416 101/417 444/418
f 101/417 76/419 445/421
f 76/419 101/417 99/414
f 100/329 76/353 99/320
f 98/319 100/329 99/320
f 100/329 98/319 12/308
f 84/328 76/353 100/329
f 12/308 84/328 100/329
f 98/319 99/320 14/302
f 71/296 43/307 93/301
f 105/294 106/295 97/292
f 91/175 92/180 87/183
f 99/320 42/309 14/302
f 85/798 88/799 89/800
f 80/450 87/449 88/448
f 87/449 86/445 85/442
f 95/496 89/497 87/498
f 88/799 87/802 89/800
f 86/445 92/440 96/443
f 87/747 85/748 95/749
f 86/801 88/799 85/798
f 96/443 88/448 86/445
f 89/446 95/441 80/450
f 77/184 91/175 87/183
f 80/191 77/184 87/183
f 80/450 74/459 75/463
f 94/325 79/335 22/314
f 83/378 19/385 82/368
f 82/426 19/428 449/427
f 83/378 82/368 70/340
f 82/368 76/353 70/340
f 11/238 73/239 81/240
f 78/242 81/240 73/239
f 72/474 75/463 73/469
f 72/208 10/201 75/196
f 10/201 77/184 75/196
f 76/419 82/426 450/425
f 84/328 70/340 76/353
f 74/459 73/469 75/463
f 11/479 72/474 73/469
f 78/468 73/469 74/459
f 177/209 10/201 11/215
f 64/326 43/307 69/316
f 22/314 23/315 102/306
f 43/307 71/296 69/316
f 44/365 62/338 61/336
f 69/316 61/336 64/326
f 23/315 69/316 71/296
f 71/296 102/306 23/315
f 66/339 17/367 21/351
f 67/383 83/378 70/340
f 23/315 61/336 69/316
f 70/340 68/389 67/383
f 65/737 63/738 58/739
f 43/307 64/326 62/338
f 67/383 21/351 18/376
f 18/376 55/388 67/383
f 44/365 57/377 63/352
f 66/339 15/317 65/327
f 58/739 66/740 65/737
f 64/326 61/336 62/338
f 44/365 63/352 62/338
f 65/327 62/338 63/352
f 55/388 20/392 67/383
f 19/385 83/378 20/392
f 8/433 20/430 55/434
f 54/390 55/388 18/376
f 8/433 9/436 442/438
f 58/375 57/377 53/382
f 66/339 58/375 17/367
f 56/384 57/377 44/365
f 56/384 44/365 544/391
f 4/397 56/384 545/394
f 56/384 53/382 57/377
f 54/390 18/376 53/382
f 9/396 55/388 54/390
f 17/367 53/382 18/376
f 51/499 60/501 54/502
f 54/502 60/501 59/504
f 53/505 51/499 54/502
f 52/500 59/504 60/501
f 9/510 54/502 59/504
f 9/510 59/504 438/518
f 51/499 56/509 547/517
f 51/499 47/512 50/506
f 46/779 49/780 48/781
f 47/512 49/511 50/506
f 549/750 47/751 550/752
f 46/519 45/503 49/511
f 50/506 49/511 45/503
f 45/503 51/499 50/506
f 46/779 48/781 551/782
f 48/753 49/756 47/751
f 47/512 51/499 555/520
f 45/503 46/519 558/521
f 533/507 45/503 559/513
f 547/517 4/524 560/529
f 456/508 52/500 457/515
f 22/314 79/335 539/348
f 29/324 119/334 108/312
f 40/345 39/313 119/334
f 425/35 130/41 458/48
f 24/305 103/304 94/325
f 143/612 38/615 37/613
f 137/78 30/86 146/71
f 120/6 161/9 159/11
f 525/379 138/386 526/393
f 130/41 144/66 424/57
f 110/333 133/331 146/355
f 111/406 117/402 430/408
f 26/322 31/357 32/343
f 435/411 42/412 436/413
f 32/343 29/324 26/322
f 31/357 26/322 30/344
f 28/303 27/311 26/322
f 136/105 137/78 139/95
f 121/332 26/322 27/311
f 28/303 26/322 29/324
f 39/313 40/345 529/359
f 79/335 94/325 39/313
f 92/440 86/445 87/449
f 79/335 39/313 532/347
f 67/383 68/389 21/351
f 21/351 70/340 15/317
f 22/314 25/300 24/305
f 15/317 70/340 16/318
f 12/308 14/302 13/293
f 84/328 12/308 16/318
f 13/293 93/301 12/308
f 98/319 14/302 12/308
f 43/307 15/317 93/301
f 80/191 75/196 77/184
f 24/305 94/325 22/314
f 535/337 22/314 537/350
f 93/301 15/317 16/318
f 15/317 66/339 21/351
f 452/429 20/430 459/431
f 20/430 8/433 454/432
f 21/351 17/367 18/376
f 15/317 43/307 65/327
f 65/327 43/307 62/338
f 55/434 9/436 8/433
f 53/382 17/367 58/375
f 44/365 61/336 534/349
f 292/618 7/619 6/620
f 461/275 5/258 462/270
f 2/284 222/291 3/289
f 312/461 282/454 319/458
f 305/550 300/551 277/552
f 302/672 303/673 324/674
f 323/475 320/472 317/466
f 327/189 357/182 360/190
f 344/702 278/703 310/704
f 286/199 367/195 295/188
f 374/533 409/534 375/535
f 409/534 322/537 375/535
f 272/639 262/640 273/641
f 315/489 333/482 359/485
f 336/94 335/115 339/104
f 315/540 322/537 316/541
f 388/110 395/85 386/101
f 399/103 405/123 398/125
f 358/480 323/475 334/464
f 382/59 368/74 376/67
f 356/53 381/84 380/75
f 372/73 371/58 373/81
f 354/680 324/674 325/676
f 564/121 404/113 565/130
f 344/233 318/222 278/232
f 566/114 400/93 567/122
f 400/93 337/76 395/85
f 568/146 398/125 569/152
f 347/90 378/82 372/73
f 389/136 396/112 390/127
f 370/89 384/108 347/90
f 404/113 401/102 570/120
f 407/156 394/143 408/155
f 396/112 394/143 402/144
f 402/144 394/143 407/156
f 407/156 408/155 391/150
f 397/163 407/156 391/150
f 396/112 402/144 575/137
f 574/165 406/160 577/169
f 393/154 354/142 471/158
f 407/156 397/163 470/166
f 384/108 370/89 318/107
f 468/164 407/156 473/167
f 570/120 396/112 576/128
f 475/772 304/773 476/774
f 348/111 349/118 351/109
f 394/143 391/150 408/155
f 399/103 398/125 335/115
f 569/790 405/791 581/792
f 395/85 401/102 400/93
f 337/76 400/93 399/103
f 335/115 336/94 399/103
f 341/134 335/115 398/125
f 342/140 341/134 398/125
f 337/76 399/103 336/94
f 401/102 404/113 400/93
f 406/160 403/157 402/144
f 402/144 403/157 572/151
f 402/144 407/156 406/160
f 391/150 392/159 397/163
f 396/112 401/102 395/85
f 391/150 394/143 389/136
f 397/163 392/159 393/154
f 394/143 396/112 389/136
f 393/154 392/159 391/150
f 393/154 391/150 354/142
f 471/684 325/676 477/687
f 395/85 388/110 396/112
f 390/127 388/110 387/119
f 381/84 365/91 352/100
f 386/101 387/119 388/110
f 387/119 386/101 385/117
f 307/206 346/214 367/195
f 315/540 359/538 375/535
f 389/136 390/127 384/108
f 385/117 384/108 387/119
f 385/117 386/101 348/111
f 384/108 385/117 347/90
f 395/85 380/75 353/92
f 395/85 353/92 386/101
f 337/76 379/68 395/85
f 356/53 380/75 379/68
f 359/538 383/536 375/535
f 331/721 377/722 361/723
f 337/76 340/61 379/68
f 332/44 371/58 382/59
f 365/91 369/99 351/109
f 373/207 367/195 346/214
f 351/109 352/100 365/91
f 378/82 368/74 382/59
f 362/725 376/726 366/728
f 365/91 381/84 356/53
f 368/74 366/83 376/67
f 365/91 356/53 366/83
f 364/764 363/765 331/766
f 362/725 366/728 356/727
f 356/727 361/723 362/725
f 327/37 360/50 332/44
f 330/31 332/44 364/51
f 159/11 359/22 358/19
f 343/457 334/464 319/458
f 364/51 382/59 376/67
f 359/485 333/482 358/480
f 376/767 363/765 364/764
f 363/724 377/722 331/721
f 377/722 362/725 361/723
f 362/725 377/722 376/726
f 377/722 363/724 376/726
f 301/225 308/219 298/221
f 371/200 367/195 373/207
f 367/195 371/200 360/190
f 297/185 367/195 360/190
f 370/89 346/98 318/107
f 373/81 370/89 372/73
f 386/101 353/92 348/111
f 349/118 352/100 351/109
f 353/92 349/118 348/111
f 348/111 351/109 347/90
f 479/679 303/673 480/682
f 345/705 344/702 310/704
f 318/222 346/214 308/219
f 324/674 345/677 350/675
f 319/458 314/452 343/457
f 334/464 317/466 319/458
f 340/61 158/63 151/33
f 143/55 158/63 38/70
f 361/60 355/45 331/52
f 36/20 152/28 330/31
f 125/42 35/36 330/31
f 122/176 357/182 326/186
f 125/42 328/49 329/39
f 355/45 356/53 151/33
f 355/45 151/33 329/39
f 340/61 337/76 158/63
f 38/615 338/617 339/616
f 136/105 37/116 149/124
f 38/70 158/63 338/77
f 585/141 149/124 586/139
f 335/115 341/134 149/124
f 338/77 337/76 336/94
f 339/104 338/77 336/94
f 37/613 38/615 339/616
f 149/124 339/104 335/115
f 125/42 330/31 328/49
f 364/51 331/52 330/31
f 331/52 328/49 330/31
f 329/39 328/49 331/52
f 327/37 332/44 330/31
f 329/39 127/29 125/42
f 35/36 36/20 330/31
f 320/472 311/483 313/476
f 152/28 153/18 122/32
f 154/453 343/457 314/452
f 343/27 154/15 334/23
f 154/15 358/19 334/23
f 290/194 267/204 307/206
f 295/188 367/195 297/185
f 304/653 306/654 302/655
f 295/188 290/194 286/199
f 318/222 308/219 301/225
f 286/199 285/205 307/206
f 303/673 325/676 324/674
f 300/659 299/656 302/655
f 367/195 286/199 307/206
f 307/206 308/219 346/214
f 301/225 276/224 318/222
f 122/176 296/179 357/182
f 91/175 296/179 122/176
f 322/537 321/539 316/541
f 322/537 315/540 375/535
f 315/489 311/483 333/482
f 320/472 333/482 311/483
f 314/452 95/441 114/447
f 319/458 317/466 312/461
f 315/540 316/541 252/543
f 315/489 249/487 311/483
f 311/483 238/481 313/476
f 315/489 291/493 249/487
f 252/543 291/544 315/540
f 245/546 291/544 252/543
f 256/470 281/460 312/461
f 249/487 238/481 311/483
f 304/653 302/655 299/656
f 302/655 306/654 303/657
f 302/672 310/678 309/681
f 481/660 306/654 482/663
f 300/707 309/706 278/703
f 278/232 318/222 276/224
f 308/219 307/206 267/204
f 285/205 286/199 290/194
f 284/181 297/185 296/179
f 357/182 296/179 297/185
f 464/560 294/553 483/559
f 279/556 305/550 294/553
f 466/658 299/656 484/661
f 484/661 293/664 485/666
f 300/659 305/662 299/656
f 279/665 293/664 299/656
f 298/221 308/219 267/204
f 295/188 297/185 284/181
f 91/175 284/181 296/179
f 290/194 295/188 284/181
f 278/554 277/552 300/551
f 293/664 279/665 486/668
f 277/552 269/555 294/553
f 258/621 292/618 6/620
f 282/454 314/452 319/458
f 211/263 219/261 215/267
f 370/89 373/81 346/98
f 175/218 268/220 267/204
f 213/484 212/490 208/494
f 80/450 95/441 180/455
f 171/203 287/193 167/192
f 206/273 216/279 215/267
f 275/228 267/204 270/227
f 187/283 189/278 195/272
f 172/255 190/259 184/265
f 163/245 5/258 190/259
f 214/478 217/465 230/477
f 196/254 202/250 205/257
f 178/247 218/249 231/253
f 222/630 2/627 247/623
f 227/626 236/629 247/623
f 177/768 165/769 166/770
f 250/547 291/544 245/546
f 264/578 226/579 488/580
f 6/620 227/626 247/623
f 274/231 276/224 275/228
f 274/557 192/561 277/552
f 283/198 287/193 171/203
f 180/455 95/441 282/454
f 313/476 256/470 312/461
f 91/175 77/184 284/181
f 11/238 81/240 177/241
f 95/441 314/452 282/454
f 327/189 326/186 357/182
f 283/198 290/194 284/181
f 281/460 256/470 289/471
f 256/470 313/476 238/481
f 167/192 280/187 77/184
f 282/454 281/460 180/455
f 180/455 281/460 217/465
f 180/455 288/467 179/462
f 217/465 288/467 180/455
f 77/184 168/197 167/192
f 280/187 167/192 287/193
f 211/646 261/643 272/639
f 284/181 287/193 283/198
f 287/193 284/181 280/187
f 77/184 280/187 284/181
f 183/568 192/561 185/564
f 269/555 277/552 191/558
f 267/204 275/228 276/224
f 176/213 175/218 267/204
f 274/557 185/564 192/561
f 269/555 193/562 194/566
f 267/204 268/220 174/223
f 182/230 270/227 174/223
f 174/223 270/227 267/204
f 191/558 193/562 269/555
f 267/204 283/198 176/213
f 494/599 264/578 495/598
f 261/643 211/646 223/649
f 496/645 263/642 497/648
f 264/578 273/594 262/590
f 273/641 263/642 272/639
f 265/585 271/582 264/578
f 265/585 261/595 257/596
f 237/634 236/629 226/632
f 264/578 271/582 226/579
f 257/596 259/586 265/585
f 257/651 261/643 223/649
f 261/595 265/585 262/590
f 226/579 271/582 259/586
f 264/578 262/590 265/585
f 272/639 261/643 262/640
f 283/198 267/204 290/194
f 227/588 6/592 266/583
f 227/588 266/583 226/579
f 244/545 252/543 251/542
f 245/546 248/549 250/547
f 282/454 312/461 281/460
f 239/486 249/487 250/491
f 249/487 291/493 250/491
f 245/546 244/545 242/548
f 256/470 238/481 230/477
f 250/491 243/492 239/486
f 248/688 242/689 241/690
f 209/713 240/714 235/715
f 246/693 254/695 240/691
f 3/635 236/629 221/637
f 208/494 212/490 243/492
f 243/492 255/495 208/494
f 246/693 260/694 232/696
f 241/690 246/693 240/691
f 2/627 258/621 247/623
f 232/696 254/695 246/693
f 257/741 223/742 224/743
f 230/477 289/471 256/470
f 232/696 235/698 254/695
f 239/486 243/492 229/488
f 243/492 250/491 255/495
f 250/692 248/688 240/691
f 248/688 241/690 240/691
f 209/713 208/720 255/719
f 7/597 228/602 506/601
f 488/580 266/583 504/587
f 505/591 7/597 507/600
f 236/629 227/626 226/632
f 211/745 224/743 223/742
f 259/636 237/634 226/632
f 247/623 236/629 222/630
f 247/623 258/621 6/620
f 215/267 216/279 220/280
f 201/285 221/290 220/280
f 220/280 211/263 215/267
f 221/786 237/787 220/788
f 236/629 3/635 222/630
f 221/290 201/285 3/289
f 197/274 205/257 203/268
f 209/713 235/715 210/716
f 198/271 210/264 234/277
f 234/701 210/700 233/699
f 230/477 229/488 213/484
f 232/696 233/699 210/700
f 214/246 213/256 207/252
f 254/718 235/715 240/714
f 78/468 179/462 181/473
f 214/478 230/477 213/484
f 224/743 259/744 257/741
f 220/280 216/279 201/285
f 205/257 206/273 215/267
f 197/274 2/284 206/273
f 179/462 217/465 214/478
f 214/478 181/473 179/462
f 181/244 214/246 81/240
f 214/246 218/249 81/240
f 178/247 81/240 218/249
f 202/250 204/262 205/257
f 215/267 219/261 205/257
f 219/261 196/254 205/257
f 219/261 211/263 196/254
f 196/254 163/245 202/250
f 163/245 178/247 202/250
f 207/252 231/253 218/249
f 202/250 231/253 207/252
f 218/249 214/246 207/252
f 209/266 210/264 207/252
f 208/260 207/252 213/256
f 208/260 209/266 207/252
f 3/289 201/285 2/284
f 205/257 204/262 203/268
f 202/250 198/271 203/268
f 203/268 204/262 202/250
f 206/273 2/284 201/285
f 197/628 200/633 199/631
f 203/268 198/271 197/274
f 200/286 197/274 198/271
f 206/273 205/257 197/274
f 509/282 1/269 510/281
f 169/251 170/248 163/245
f 1/269 190/259 5/258
f 163/245 196/254 5/258
f 211/263 5/258 196/254
f 462/270 211/263 511/276
f 211/646 272/639 496/645
f 188/565 193/562 191/558
f 193/562 188/565 194/566
f 514/575 187/573 515/577
f 194/566 188/565 516/571
f 191/558 192/561 188/565
f 189/570 187/573 188/565
f 184/229 189/237 183/236
f 183/236 185/235 184/229
f 184/229 185/235 186/234
f 173/226 182/230 174/223
f 189/278 184/265 195/272
f 190/259 195/272 184/265
f 190/259 1/269 195/272
f 187/283 195/272 513/287
f 190/259 172/255 163/245
f 184/229 173/226 172/212
f 175/218 174/223 268/220
f 172/255 169/251 163/245
f 170/216 169/217 171/203
f 175/218 172/212 174/223
f 172/212 173/226 174/223
f 170/216 171/203 165/211
f 171/203 167/192 165/211
f 165/243 177/241 81/240
f 177/209 168/197 10/201
f 166/202 167/192 168/197
f 10/201 168/197 77/184
f 74/459 80/450 180/455
f 181/244 81/240 78/242
f 78/468 74/459 179/462
f 81/240 178/247 163/245
f 81/240 163/245 165/243
f 170/248 165/243 163/245
f 178/247 231/253 202/250
f 344/126 345/149 354/142
f 389/136 354/142 391/150
f 307/206 285/205 290/194
f 275/228 182/230 274/231
f 317/466 320/472 312/461
f 314/452 114/447 154/453
f 327/37 330/31 152/28
f 339/104 149/124 37/116
f 358/480 333/482 323/475
f 317/466 334/464 323/475
f 390/127 396/112 388/110
f 360/50 371/58 332/44
f 355/45 361/60 356/53
f 586/139 341/134 591/145
f 278/703 309/706 310/704
f 405/123 399/103 566/114
f 374/533 375/535 383/536
f 158/63 337/76 338/77
f 397/163 393/154 472/162
f 318/107 344/126 384/108
f 345/677 310/678 350/675
f 379/68 340/61 356/53
f 351/109 369/99 347/90
f 384/108 344/126 389/136
f 344/126 354/142 389/136
f 384/108 390/127 387/119
f 380/729 349/730 353/731
f 381/733 352/732 380/729
f 364/51 332/44 382/59
f 379/68 380/75 395/85
f 352/732 349/730 380/729
f 371/58 372/73 382/59
f 365/91 378/82 369/99
f 368/74 378/82 365/91
f 366/83 368/74 365/91
f 297/185 360/190 357/182
f 356/53 340/61 151/33
f 372/73 378/82 382/59
f 370/89 347/90 372/73
f 347/90 385/117 348/111
f 347/90 369/99 378/82
f 324/674 350/675 302/672
f 345/677 324/674 354/680
f 409/534 321/539 322/537
f 159/11 358/19 154/15
f 152/28 326/38 327/37
f 355/45 329/39 331/52
f 151/33 127/29 329/39
f 341/134 342/140 587/147
f 122/32 326/38 152/28
f 309/681 300/685 302/672
f 305/662 279/665 299/656
f 333/482 320/472 323/475
f 251/542 316/541 321/539
f 313/476 312/461 320/472
f 302/672 350/675 310/678
f 301/225 298/221 276/224
f 294/553 305/550 277/552
f 483/559 269/555 491/563
f 216/279 206/273 201/285
f 217/465 289/471 230/477
f 229/488 243/492 212/490
f 197/628 258/621 2/627
f 259/636 224/638 237/634
f 192/561 183/568 189/570
f 189/570 188/565 192/561
f 276/224 298/221 267/204
f 283/198 171/203 172/212
f 182/230 275/228 270/227
f 165/769 164/771 166/770
f 289/471 217/465 281/460
f 179/462 288/467 217/465
f 274/231 278/232 276/224
f 274/557 277/552 278/554
f 186/234 185/235 274/231
f 274/231 182/230 186/234
f 191/558 277/552 192/561
f 263/642 273/641 494/644
f 499/569 194/566 517/572
f 259/586 271/582 265/585
f 6/592 7/597 266/583
f 238/481 249/487 239/486
f 238/481 239/486 230/477
f 237/634 221/637 236/629
f 229/488 230/477 239/486
f 7/619 292/618 411/622
f 197/628 410/624 258/621
f 410/624 292/618 258/621
f 220/788 237/787 224/789
f 210/700 235/698 232/696
f 410/624 197/628 199/631
f 255/719 250/717 209/713
f 240/714 209/713 250/717
f 213/484 229/488 212/490
f 210/264 202/250 207/252
f 182/230 173/226 184/229
f 184/229 186/234 182/230
f 171/203 169/217 172/212
f 172/212 176/213 283/198
f 167/192 164/210 165/211
f 172/212 175/218 176/213
f 168/197 177/209 166/202
f 167/192 166/202 164/210
f 180/455 179/462 74/459
f 211/745 220/746 224/743
f 157/5 160/2 162/1
f 383/26 359/22 159/11
f 251/542 252/543 316/541
f 244/545 245/546 252/543
f 232/696 253/697 233/699
f 242/548 248/549 245/546
f 241/690 260/694 246/693
f 253/697 232/696 260/694
f 412/607 225/604 413/605
f 508/608 412/607 520/609
f 413/605 225/604 228/602
f 228/602 225/604 502/603
f 414/625 292/618 410/624
f 198/271 202/250 210/264
f 411/622 292/618 414/625
f 415/409 41/403 435/411
f 416/407 41/403 415/409
f 417/404 41/403 416/407
f 418/3 160/2 120/6
f 419/4 162/1 418/3
f 420/8 120/6 434/10
f 421/87 111/79 433/97
f 422/88 144/66 421/87
f 423/72 144/66 432/80
f 424/57 144/66 423/72
f 425/35 129/30 130/41
f 426/25 129/30 425/35
f 427/12 145/14 428/17
f 428/17 145/14 429/21
f 429/21 145/14 426/25
f 430/408 117/402 431/405
f 431/405 117/402 417/404
f 432/80 144/66 422/88
f 433/410 111/406 430/408
f 434/10 120/6 427/12
f 435/411 41/403 42/412
f 436/413 42/412 99/414
f 437/415 99/414 443/416
f 438/518 59/504 439/516
f 439/516 59/504 456/508
f 440/522 52/500 593/514
f 441/525 9/510 438/518
f 442/438 9/436 441/439
f 443/416 99/414 101/417
f 444/418 101/417 447/420
f 445/421 76/419 451/424
f 446/423 101/417 445/421
f 447/420 101/417 448/422
f 448/422 101/417 446/423
f 449/427 19/428 452/429
f 450/425 82/426 449/427
f 451/424 76/419 450/425
f 452/429 19/428 20/430
f 453/435 8/433 455/437
f 454/432 8/433 453/435
f 455/437 8/433 442/438
f 456/508 59/504 52/500
f 457/515 52/500 440/522
f 458/48 130/41 424/57
f 459/431 20/430 454/432
f 460/7 162/1 419/4
f 461/275 1/269 5/258
f 462/270 5/258 211/263
f 463/670 279/665 464/671
f 464/560 279/556 294/553
f 465/776 304/773 466/778
f 466/658 304/653 299/656
f 467/168 406/160 468/164
f 578/172 467/168 595/173
f 468/164 406/160 407/156
f 469/171 397/163 474/170
f 470/166 397/163 469/171
f 471/684 354/680 325/676
f 472/162 393/154 471/158
f 473/167 407/156 470/166
f 474/170 397/163 472/162
f 475/772 306/775 304/773
f 476/774 304/773 465/776
f 477/687 325/676 478/683
f 478/683 325/676 479/679
f 479/679 325/676 303/673
f 480/682 303/673 481/686
f 481/660 303/657 306/654
f 482/777 306/775 475/772
f 483/559 294/553 269/555
f 484/661 299/656 293/664
f 485/666 293/664 487/667
f 486/668 279/665 493/669
f 487/667 293/664 486/668
f 488/580 226/579 266/583
f 489/581 264/578 488/580
f 490/584 264/578 489/581
f 491/563 269/555 492/567
f 492/567 269/555 499/569
f 493/669 279/665 463/670
f 494/599 273/594 264/578
f 495/598 264/578 501/593
f 496/645 272/639 263/642
f 497/648 263/642 498/647
f 498/647 263/642 494/644
f 499/569 269/555 194/566
f 500/589 264/578 490/584
f 501/593 264/578 500/589
f 502/603 225/604 503/606
f 503/606 225/604 508/608
f 504/587 266/583 505/591
f 505/591 266/583 7/597
f 506/601 228/602 502/603
f 507/600 7/597 506/601
f 508/608 225/604 412/607
f 509/282 195/272 1/269
f 510/281 1/269 461/275
f 511/652 211/646 512/650
f 512/650 211/646 496/645
f 513/287 195/272 509/282
f 514/575 188/565 187/573
f 515/288 187/283 513/287
f 516/571 188/565 519/574
f 517/572 194/566 516/571
f 518/576 188/565 514/575
f 519/574 188/565 518/576
f 521/346 119/334 29/324
f 522/369 40/345 521/346
f 523/380 40/345 522/369
f 524/360 29/324 90/358
f 525/379 90/358 138/386
f 526/393 138/386 527/395
f 527/395 138/386 588/398
f 528/371 40/345 523/380
f 529/359 40/345 528/371
f 530/362 39/313 531/370
f 531/370 39/313 529/359
f 532/347 39/313 530/362
f 533/507 52/500 45/503
f 534/349 61/336 23/315
f 535/337 23/315 22/314
f 536/366 22/314 540/363
f 537/350 22/314 536/366
f 538/364 79/335 543/373
f 539/348 79/335 538/364
f 540/363 22/314 539/348
f 541/361 79/335 532/347
f 542/372 79/335 541/361
f 543/373 79/335 542/372
f 544/391 44/365 563/387
f 545/394 56/384 544/391
f 546/399 4/397 545/394
f 547/517 56/509 4/524
f 548/523 51/499 547/517
f 549/750 48/753 47/751
f 550/752 47/751 556/754
f 551/782 48/781 554/784
f 552/783 46/779 551/782
f 553/785 46/779 552/783
f 554/755 48/753 549/750
f 555/520 51/499 557/527
f 556/526 47/512 555/520
f 557/527 51/499 548/523
f 558/521 46/519 553/530
f 559/513 45/503 558/521
f 560/529 4/524 589/531
f 561/381 44/365 562/374
f 562/374 44/365 534/349
f 563/387 44/365 561/381
f 564/121 400/93 404/113
f 565/130 404/113 571/129
f 566/114 399/103 400/93
f 567/122 400/93 580/132
f 568/146 342/140 398/125
f 569/790 398/793 405/791
f 570/120 401/102 396/112
f 571/129 404/113 570/120
f 572/151 403/157 573/161
f 573/161 403/157 574/165
f 574/165 403/157 406/160
f 575/137 402/144 572/151
f 576/128 396/112 575/137
f 577/169 406/160 578/172
f 578/172 406/160 467/168
f 579/131 400/93 564/121
f 580/132 400/93 579/131
f 581/138 405/123 582/133
f 582/133 405/123 566/114
f 583/794 342/795 568/796
f 584/797 342/795 583/794
f 585/141 138/135 149/124
f 586/139 149/124 341/134
f 587/147 342/140 584/153
f 588/148 138/135 585/141
f 589/531 4/524 590/532
f 590/401 4/397 592/400
f 591/145 341/134 587/147
f 592/400 4/397 546/399
f 593/514 52/500 533/507
f 594/528 440/522 593/514
usemtl Tile_+031_+022_L19_000101_untextured
