mtllib Tile_+032_+024_L21_00013100.mtl
v 6.48290042e+03 5.83294495e+03 1.53391869e+00
v 6.48393344e+03 5.83200731e+03 1.54688353e+00
v 6.48261443e+03 5.83216475e+03 1.39004270e+00
v 6.48434390e+03 5.83138496e+03 1.68938361e+00
v 6.48455862e+03 5.83177150e+03 1.68565139e+00
v 6.48449221e+03 5.83512971e+03 1.83287734e+00
v 6.48504148e+03 5.83524292e+03 1.82576006e+00
v 6.48476082e+03 5.83493497e+03 1.82300622e+00
v 6.48422607e+03 5.84029417e+03 1.41903874e+00
v 6.48308464e+03 5.84122323e+03 1.39360426e+00
v 6.48457561e+03 5.84212439e+03 1.46844981e+00
v 6.47509628e+03 5.82832403e+03 1.54317569e+00
v 6.47422617e+03 5.82673316e+03 1.52332394e+00
v 6.47339177e+03 5.82820095e+03 1.60316630e+00
v 6.48239589e+03 5.84230973e+03 1.48893360e+00
v 6.48285300e+03 5.84377672e+03 1.58465763e+00
v 6.48306445e+03 5.83728648e+03 1.42208845e+00
v 6.48262399e+03 5.83424139e+03 1.36387466e+00
v 6.47920581e+03 5.83511679e+03 1.45241944e+00
v 6.48032305e+03 5.84246235e+03 1.44241356e+00
v 6.48016107e+03 5.83916228e+03 1.48074203e+00
v 6.48106485e+03 5.82637128e+03 1.79445828e+00
v 6.48090265e+03 5.82780888e+03 1.64482320e+00
v 6.48198175e+03 5.82760483e+03 1.55126878e+00
v 6.48241238e+03 5.82654622e+03 1.69822688e+00
v 6.48473513e+03 5.83789149e+03 1.38634390e+00
v 6.48399495e+03 5.83627628e+03 1.40965619e+00
v 6.48128130e+03 5.83877665e+03 1.46699782e+00
v 6.48409963e+03 5.83456694e+03 1.57700431e+00
v 6.48425246e+03 5.83502048e+03 1.78245239e+00
v 6.48341465e+03 5.82071811e+03 1.55641340e+00
v 6.48282340e+03 5.81902823e+03 1.55858078e+00
v 6.48111286e+03 5.82063431e+03 1.47401666e+00
v 6.48424296e+03 5.83078161e+03 1.60041052e+00
v 6.48406851e+03 5.82984092e+03 1.66862719e+00
v 6.48295371e+03 5.83104918e+03 1.46535068e+00
v 6.48373465e+03 5.83510267e+03 1.50055881e+00
v 6.48479976e+03 5.84352118e+03 1.45824055e+00
v 6.46972756e+03 5.84165489e+03 1.32793643e+00
v 6.47918306e+03 5.84047491e+03 1.41744974e+00
v 6.48422572e+03 5.82677919e+03 1.63146055e+00
v 6.48531548e+03 5.82590733e+03 1.80112676e+00
v 6.48338271e+03 5.82630389e+03 1.75670542e+00
v 6.48425743e+03 5.83570539e+03 1.52910389e+00
v 6.48465765e+03 5.83621553e+03 1.52798675e+00
v 6.48493288e+03 5.83582515e+03 1.80896324e+00
v 6.48125269e+03 5.83342846e+03 1.38656096e+00
v 6.48087197e+03 5.83141343e+03 1.34682405e+00
v 6.48008603e+03 5.83257338e+03 1.44927723e+00
v 6.48213591e+03 5.82949720e+03 1.52978455e+00
v 6.48482012e+03 5.83929679e+03 1.38447436e+00
v 6.47999382e+03 5.82350116e+03 1.54102546e+00
v 6.48113304e+03 5.82339902e+03 1.58138744e+00
v 6.48064570e+03 5.82220141e+03 1.67450002e+00
v 6.47918462e+03 5.82241449e+03 1.55662810e+00
v 6.47909690e+03 5.82784070e+03 1.53304866e+00
v 6.47973727e+03 5.82718859e+03 1.56683927e+00
v 6.48457233e+03 5.83461914e+03 1.66027213e+00
v 6.48497265e+03 5.83471910e+03 1.61338874e+00
v 6.48312936e+03 5.82885135e+03 1.64035840e+00
v 6.48166199e+03 5.83012832e+03 1.41312296e+00
v 6.47906391e+03 5.82994316e+03 1.41833226e+00
v 6.47149731e+03 5.82465460e+03 1.44745523e+00
v 6.47279328e+03 5.82610844e+03 1.53512324e+00
v 6.47380536e+03 5.82494299e+03 1.51959172e+00
v 6.46895016e+03 5.82244967e+03 1.42333857e+00
v 6.46956892e+03 5.82063592e+03 1.44237652e+00
v 6.47434484e+03 5.82342431e+03 1.41537961e+00
v 6.47143485e+03 5.82294852e+03 1.41919234e+00
v 6.47250521e+03 5.81974110e+03 1.40441076e+00
v 6.47921762e+03 5.82677649e+03 1.87867695e+00
v 6.47886599e+03 5.82651869e+03 1.66898979e+00
v 6.47878819e+03 5.82704650e+03 1.68262620e+00
v 6.47401561e+03 5.83135753e+03 1.40837461e+00
v 6.47500985e+03 5.82962839e+03 1.44795861e+00
v 6.47345734e+03 5.82907690e+03 1.51512228e+00
v 6.47002193e+03 5.82554744e+03 1.45573875e+00
v 6.47117593e+03 5.82676273e+03 1.58634524e+00
v 6.47156862e+03 5.82605305e+03 1.42867997e+00
v 6.47698943e+03 5.82189982e+03 1.49167293e+00
v 6.47612484e+03 5.82301968e+03 1.53256772e+00
v 6.47740847e+03 5.82287524e+03 1.39460207e+00
v 6.47436370e+03 5.82070868e+03 1.30124269e+00
v 6.47690360e+03 5.82136655e+03 1.40611706e+00
v 6.47625641e+03 5.81900233e+03 1.40015593e+00
v 6.47782604e+03 5.82127582e+03 1.47586664e+00
v 6.47439162e+03 5.82219752e+03 1.41511240e+00
v 6.47351750e+03 5.82262988e+03 1.45878413e+00
v 6.47807610e+03 5.82747153e+03 1.63065399e+00
v 6.47687927e+03 5.82884240e+03 1.48921054e+00
v 6.47687654e+03 5.83104083e+03 1.40885089e+00
v 6.46954151e+03 5.82960994e+03 1.31659735e+00
v 6.46988195e+03 5.83080096e+03 1.32223167e+00
v 6.47637530e+03 5.82612107e+03 1.53020267e+00
v 6.47401690e+03 5.82595253e+03 1.44320167e+00
v 6.46903514e+03 5.81623093e+03 1.36840936e+00
v 6.46948809e+03 5.81851262e+03 1.47043664e+00
v 6.46982952e+03 5.83913838e+03 1.42382304e+00
v 6.47138338e+03 5.83995500e+03 1.33678325e+00
v 6.47126351e+03 5.83909361e+03 1.29079394e+00
v 6.47803200e+03 5.82606835e+03 1.46359268e+00
v 6.47339746e+03 5.83159934e+03 1.53159283e+00
v 6.47357215e+03 5.83214534e+03 1.61492018e+00
v 6.47084271e+03 5.83127905e+03 1.30788335e+00
v 6.47175171e+03 5.83069325e+03 1.46585499e+00
v 6.47949340e+03 5.82467626e+03 1.48099719e+00
v 6.47785730e+03 5.82441038e+03 1.53605637e+00
v 6.47863007e+03 5.82483272e+03 1.48745960e+00
v 6.47605494e+03 5.82460043e+03 1.46730030e+00
v 6.47984008e+03 5.81862951e+03 1.48530192e+00
v 6.48058483e+03 5.82469966e+03 1.65914505e+00
v 6.48014797e+03 5.82560525e+03 1.60953373e+00
v 6.48389779e+03 5.82772855e+03 1.63858798e+00
v 6.48467097e+03 5.83421185e+03 1.49298622e+00
v 6.48512998e+03 5.83152413e+03 1.67709072e+00
v 6.48452761e+03 5.83231074e+03 1.58404463e+00
v 6.48507799e+03 5.83207900e+03 1.60508603e+00
v 6.48495716e+03 5.83683884e+03 1.40871879e+00
v 6.47335130e+03 5.83674087e+03 1.45487656e+00
v 6.47255999e+03 5.83761535e+03 1.42998648e+00
v 6.47362728e+03 5.83783761e+03 1.40971297e+00
v 6.48253263e+03 5.82166299e+03 1.72743164e+00
v 6.48308297e+03 5.82290922e+03 1.66943511e+00
v 6.48429918e+03 5.82172433e+03 1.68230128e+00
v 6.48487776e+03 5.82009165e+03 1.59228578e+00
v 6.47325741e+03 5.82712918e+03 1.67658111e+00
v 6.48483314e+03 5.82388123e+03 1.67496417e+00
v 6.48389529e+03 5.82493902e+03 1.66120692e+00
v 6.48520933e+03 5.82469995e+03 1.66614242e+00
v 6.48186506e+03 5.82474303e+03 1.62963815e+00
v 6.48021714e+03 5.82890452e+03 1.49854849e+00
v 6.47456049e+03 5.83773568e+03 1.51318073e+00
v 6.47430284e+03 5.83700946e+03 1.40930764e+00
v 6.48021529e+03 5.83743619e+03 1.41764288e+00
v 6.47186592e+03 5.84094217e+03 1.26239676e+00
v 6.47309455e+03 5.84063009e+03 1.29307608e+00
v 6.47225749e+03 5.84009503e+03 1.51519164e+00
v 6.48479117e+03 5.82541273e+03 1.71627316e+00
v 6.47735833e+03 5.83620557e+03 1.49199741e+00
v 6.47844760e+03 5.83646032e+03 1.49962155e+00
v 6.47927684e+03 5.82727856e+03 1.62508623e+00
v 6.48483242e+03 5.83056894e+03 1.65206444e+00
v 6.48465973e+03 5.83025790e+03 1.73768024e+00
v 6.47806819e+03 5.83040648e+03 1.46516366e+00
v 6.47739810e+03 5.83253373e+03 1.50399071e+00
v 6.47648368e+03 5.82803037e+03 1.68748957e+00
v 6.48410331e+03 5.83338277e+03 1.41929098e+00
v 6.48384224e+03 5.81673538e+03 1.60051109e+00
v 6.48421958e+03 5.81831038e+03 1.49206973e+00
v 6.48486642e+03 5.81740366e+03 1.58241127e+00
v 6.47747636e+03 5.83799463e+03 1.43634104e+00
v 6.47753908e+03 5.84036234e+03 1.45579137e+00
v 6.47851460e+03 5.82271945e+03 1.55967865e+00
v 6.47823327e+03 5.82861940e+03 1.40045985e+00
v 6.47952863e+03 5.82913577e+03 1.55309241e+00
v 6.47113012e+03 5.83439194e+03 1.75067611e+00
v 6.47083314e+03 5.83534279e+03 1.37000125e+00
v 6.47132891e+03 5.83518533e+03 1.52352535e+00
v 6.47889706e+03 5.83251487e+03 1.40932028e+00
v 6.47138401e+03 5.83340337e+03 1.96088066e+00
v 6.47190729e+03 5.83368376e+03 1.87353515e+00
v 6.47061386e+03 5.83716942e+03 1.44708416e+00
v 6.46944462e+03 5.83666345e+03 1.48617960e+00
v 6.46947063e+03 5.83765244e+03 1.43258996e+00
v 6.47531601e+03 5.83844726e+03 1.36383017e+00
v 6.47655019e+03 5.83900259e+03 1.35498647e+00
v 6.47618593e+03 5.83788293e+03 1.51411513e+00
v 6.47022418e+03 5.83420591e+03 1.41971582e+00
v 6.46910941e+03 5.83443117e+03 1.49074437e+00
v 6.46994995e+03 5.83481291e+03 1.27372857e+00
v 6.46921217e+03 5.83190256e+03 1.34233550e+00
v 6.46886096e+03 5.83221199e+03 1.29232185e+00
v 6.47364865e+03 5.83929992e+03 1.24140094e+00
v 6.47284481e+03 5.83236285e+03 1.98871054e+00
v 6.47359978e+03 5.83260552e+03 1.55272552e+00
v 6.47305868e+03 5.83209796e+03 1.86696075e+00
v 6.47783601e+03 5.84174867e+03 1.47672697e+00
v 6.47271501e+03 5.82754323e+03 1.96865989e+00
v 6.47250868e+03 5.82845309e+03 1.99518937e+00
v 6.46885045e+03 5.83601568e+03 1.28738783e+00
v 6.47018222e+03 5.83620824e+03 1.68847929e+00
v 6.46949569e+03 5.83542485e+03 1.32977226e+00
v 6.46957315e+03 5.84081973e+03 1.47857344e+00
v 6.47853459e+03 5.84343730e+03 1.34700089e+00
v 6.47854338e+03 5.81550249e+03 1.66132378e+00
v 6.47858765e+03 5.81419287e+03 1.53328324e+00
v 6.47772487e+03 5.81436109e+03 1.61949220e+00
v 6.48477958e+03 5.82792344e+03 1.67623445e+00
v 6.48457668e+03 5.82717409e+03 1.65272398e+00
v 6.47094915e+03 5.83780164e+03 1.50628829e+00
v 6.47051804e+03 5.83794537e+03 1.62661993e+00
v 6.48365841e+03 5.81756542e+03 1.64656992e+00
v 6.48248386e+03 5.81376182e+03 1.64160529e+00
v 6.47625494e+03 5.81322994e+03 1.49845305e+00
v 6.47360934e+03 5.81921457e+03 1.34638895e+00
v 6.47031163e+03 5.84130057e+03 1.30028464e+00
v 6.47850982e+03 5.81344557e+03 1.60120538e+00
v 6.47232903e+03 5.81635309e+03 1.35839497e+00
v 6.47024484e+03 5.81561612e+03 1.41562855e+00
v 6.47092639e+03 5.81742224e+03 1.41941780e+00
v 6.47753095e+03 5.84271263e+03 1.38776679e+00
v 6.47439689e+03 5.81511603e+03 1.47565933e+00
v 6.47147176e+03 5.81432399e+03 1.33700710e+00
v 6.47365496e+03 5.81557813e+03 1.36470350e+00
v 6.50000000e+03 5.83544417e+03 1.98532995e+00
v 6.50000000e+03 5.83452588e+03 1.99562256e+00
v 6.50000000e+03 5.83087470e+03 2.03981302e+00
v 6.50000000e+03 5.83073397e+03 2.09552620e+00
v 6.50000000e+03 5.83134376e+03 2.03348131e+00
v 6.49989410e+03 5.83082941e+03 2.03367566e+00
v 6.50000000e+03 5.82524547e+03 2.07687377e+00
v 6.50000000e+03 5.82472673e+03 2.05844535e+00
v 6.50000000e+03 5.82206389e+03 2.26237914e+00
v 6.50000000e+03 5.82180645e+03 2.23822416e+00
v 6.50000000e+03 5.82731837e+03 2.17380477e+00
v 6.50000000e+03 5.82722868e+03 2.16852515e+00
v 6.49990850e+03 5.82734000e+03 2.15503944e+00
v 6.50000000e+03 5.82746995e+03 2.17464663e+00
v 6.50000000e+03 5.82738730e+03 2.17120527e+00
v 6.50000000e+03 5.82982325e+03 2.36123290e+00
v 6.50000000e+03 5.82947127e+03 2.47473585e+00
v 6.50000000e+03 5.83028631e+03 2.25555974e+00
v 6.49962919e+03 5.83036064e+03 2.13188889e+00
v 6.50000000e+03 5.83414814e+03 2.01203563e+00
v 6.50000000e+03 5.83322888e+03 1.99661425e+00
v 6.50000000e+03 5.83784272e+03 1.99851889e+00
v 6.50000000e+03 5.83753121e+03 1.97633813e+00
v 6.50000000e+03 5.83579067e+03 1.96603990e+00
v 6.49987632e+03 5.83582960e+03 1.97023641e+00
v 6.50000000e+03 5.83598797e+03 2.01532359e+00
v 6.50000000e+03 5.83433638e+03 2.01125554e+00
v 6.50000000e+03 5.84164684e+03 2.03087686e+00
v 6.50000000e+03 5.84134942e+03 2.05320786e+00
v 6.49982661e+03 5.84160863e+03 1.98158250e+00
v 6.50000000e+03 5.83896685e+03 2.05617701e+00
v 6.50000000e+03 5.83840243e+03 2.03301548e+00
v 6.49969415e+03 5.83921412e+03 2.07551355e+00
v 6.50000000e+03 5.82448186e+03 2.04668795e+00
v 6.49940289e+03 5.82476994e+03 2.01559057e+00
v 6.50000000e+03 5.81962714e+03 2.20791249e+00
v 6.50000000e+03 5.81899985e+03 2.16198513e+00
v 6.49945832e+03 5.81975857e+03 2.15374082e+00
v 6.50000000e+03 5.81651147e+03 1.94765292e+00
v 6.50000000e+03 5.81599699e+03 1.93702290e+00
v 6.50000000e+03 5.81827777e+03 2.04470758e+00
v 6.50000000e+03 5.82891462e+03 2.33334538e+00
v 6.50000000e+03 5.84026787e+03 2.07040882e+00
v 6.50000000e+03 5.83999691e+03 2.01403035e+00
v 6.50000000e+03 5.82928719e+03 2.45085228e+00
v 6.49925043e+03 5.82870337e+03 2.26646374e+00
v 6.50000000e+03 5.82017019e+03 2.17970452e+00
v 6.50000000e+03 5.82628552e+03 2.21077458e+00
v 6.50000000e+03 5.82611259e+03 2.18176565e+00
v 6.49952367e+03 5.82608549e+03 2.17548843e+00
v 6.50000000e+03 5.82218365e+03 2.24321960e+00
v 6.49976232e+03 5.82207683e+03 2.24296135e+00
v 6.50000000e+03 5.81675522e+03 1.93263303e+00
v 6.49946156e+03 5.81676577e+03 1.91370181e+00
v 6.50000000e+03 5.81361953e+03 1.97145798e+00
v 6.50000000e+03 5.84236118e+03 2.12573098e+00
v 6.50000000e+03 5.84217615e+03 2.12174449e+00
v 6.49984258e+03 5.84230792e+03 2.10557061e+00
v 6.50000000e+03 5.84368545e+03 2.03659854e+00
v 6.50000000e+03 5.84334621e+03 2.07965618e+00
v 6.49984993e+03 5.84360354e+03 2.04602553e+00
v 6.50000000e+03 5.83937149e+03 2.09891734e+00
v 6.49968790e+03 5.84012322e+03 1.95120961e+00
v 6.50000000e+03 5.83697809e+03 2.08891215e+00
v 6.49936366e+03 5.83713092e+03 1.92885558e+00
v 6.50000000e+03 5.82420705e+03 2.08233389e+00
v 6.50000000e+03 5.82122813e+03 2.20194478e+00
v 6.50000000e+03 5.81712217e+03 1.96278312e+00
v 6.49911092e+03 5.81869760e+03 2.03514793e+00
v 6.50000000e+03 5.83223209e+03 2.02579540e+00
v 6.49883243e+03 5.83266131e+03 1.97516091e+00
v 6.50000000e+03 5.84279430e+03 2.07823890e+00
v 6.49962226e+03 5.82299442e+03 2.08375574e+00
v 6.49634587e+03 5.83173737e+03 1.91019189e+00
v 6.49744204e+03 5.83215749e+03 2.06523293e+00
v 6.49186197e+03 5.83791853e+03 1.94125615e+00
v 6.49111516e+03 5.83797818e+03 1.64777374e+00
v 6.49270128e+03 5.83617262e+03 1.77552124e+00
v 6.49350355e+03 5.83607937e+03 1.77022848e+00
v 6.49222627e+03 5.83713773e+03 1.65938630e+00
v 6.48624718e+03 5.82962244e+03 2.18579077e+00
v 6.48697999e+03 5.82952932e+03 2.01450188e+00
v 6.48603328e+03 5.82901697e+03 1.87199934e+00
v 6.49708885e+03 5.82861381e+03 2.27909493e+00
v 6.49841236e+03 5.82767549e+03 2.22818573e+00
v 6.49145233e+03 5.83726714e+03 1.69284236e+00
v 6.49188537e+03 5.82731257e+03 1.86559098e+00
v 6.49107882e+03 5.82711066e+03 1.89306111e+00
v 6.49744483e+03 5.83008072e+03 2.29376659e+00
v 6.49647956e+03 5.82963918e+03 2.17238510e+00
v 6.49857540e+03 5.83453445e+03 1.87143264e+00
v 6.49779327e+03 5.83750105e+03 1.98100810e+00
v 6.49922224e+03 5.83826642e+03 2.00548919e+00
v 6.49654660e+03 5.84035428e+03 1.78070503e+00
v 6.49702226e+03 5.84158904e+03 1.76228136e+00
v 6.49844798e+03 5.84070437e+03 1.96365547e+00
v 6.49824885e+03 5.84169789e+03 1.85253836e+00
v 6.50000000e+03 5.83214653e+03 2.03521920e+00
v 6.49898724e+03 5.84168136e+03 1.99751544e+00
v 6.49891027e+03 5.82656017e+03 2.22085260e+00
v 6.49833352e+03 5.82872145e+03 2.38210560e+00
v 6.49720657e+03 5.83109811e+03 2.10149051e+00
v 6.49665555e+03 5.83287149e+03 1.88985112e+00
v 6.49128686e+03 5.82858535e+03 1.91943040e+00
v 6.49211013e+03 5.82895610e+03 2.13191738e+00
v 6.49766740e+03 5.82918098e+03 2.43599411e+00
v 6.49739579e+03 5.83419151e+03 1.82547707e+00
v 6.48857099e+03 5.83047881e+03 2.02437159e+00
v 6.48929121e+03 5.83115242e+03 1.66055868e+00
v 6.48952155e+03 5.83009685e+03 1.68963693e+00
v 6.49952071e+03 5.81361958e+03 1.96060998e+00
v 6.48744371e+03 5.82170680e+03 1.69578715e+00
v 6.48843509e+03 5.82312934e+03 1.88132209e+00
v 6.49881134e+03 5.82281866e+03 2.16596529e+00
v 6.49247158e+03 5.81437797e+03 1.85312255e+00
v 6.48572753e+03 5.83042194e+03 2.38040219e+00
v 6.48541494e+03 5.82987134e+03 2.01619151e+00
v 6.48695071e+03 5.83004459e+03 2.26036753e+00
v 6.49603053e+03 5.84183192e+03 1.82507581e+00
v 6.49771847e+03 5.82433483e+03 2.02613910e+00
v 6.49836239e+03 5.82349966e+03 2.16046903e+00
v 6.48994638e+03 5.81949546e+03 1.69709995e+00
v 6.49183985e+03 5.81982471e+03 1.74310390e+00
v 6.49610615e+03 5.81503225e+03 1.89171573e+00
v 6.48801960e+03 5.81496626e+03 1.65529681e+00
v 6.48964655e+03 5.81371368e+03 1.76968382e+00
v 6.48820732e+03 5.82937180e+03 1.66653867e+00
v 6.48815061e+03 5.83016685e+03 1.91980897e+00
v 6.48859113e+03 5.82997707e+03 1.95704961e+00
v 6.49066118e+03 5.82787964e+03 2.01347515e+00
v 6.48488610e+03 5.82964208e+03 1.86805763e+00
v 6.48530495e+03 5.83024361e+03 2.00292139e+00
v 6.48890947e+03 5.82217414e+03 1.82069568e+00
v 6.49850655e+03 5.83194396e+03 2.05322464e+00
v 6.49156247e+03 5.82498001e+03 1.96387345e+00
v 6.49325501e+03 5.82471158e+03 2.06935107e+00
v 6.48981157e+03 5.82730768e+03 1.75569625e+00
v 6.48896664e+03 5.82922092e+03 1.66035923e+00
v 6.48936475e+03 5.83178600e+03 1.68562604e+00
v 6.49050449e+03 5.83185580e+03 1.84053090e+00
v 6.48910890e+03 5.82602527e+03 1.81498890e+00
v 6.48986758e+03 5.82511421e+03 1.93529810e+00
v 6.49100346e+03 5.83730204e+03 1.51133559e+00
v 6.49065339e+03 5.83572357e+03 1.52280979e+00
v 6.49195863e+03 5.83634261e+03 1.87881702e+00
v 6.49170699e+03 5.82800104e+03 1.95146307e+00
v 6.48487107e+03 5.82895229e+03 1.70531315e+00
v 6.48551235e+03 5.82738841e+03 1.90516321e+00
v 6.48552360e+03 5.82844373e+03 1.73703837e+00
v 6.48739352e+03 5.83247495e+03 1.92554862e+00
v 6.48808171e+03 5.83159865e+03 1.81486430e+00
v 6.48739713e+03 5.83157791e+03 1.79209312e+00
v 6.49065747e+03 5.83092751e+03 1.63891693e+00
v 6.49157950e+03 5.83194782e+03 1.63609161e+00
v 6.48643091e+03 5.83013275e+03 2.60312474e+00
v 6.49179909e+03 5.83559198e+03 1.71982130e+00
v 6.49341671e+03 5.83708904e+03 1.65047556e+00
v 6.49230245e+03 5.83988378e+03 1.54528279e+00
v 6.49346209e+03 5.83932383e+03 1.92542788e+00
v 6.49912770e+03 5.84245466e+03 2.10708535e+00
v 6.49912329e+03 5.82945923e+03 2.34610377e+00
v 6.48416829e+03 5.82913486e+03 1.59094564e+00
v 6.49835559e+03 5.83916519e+03 1.80721504e+00
v 6.48971079e+03 5.84046386e+03 1.30928005e+00
v 6.49065895e+03 5.83944396e+03 1.41331752e+00
v 6.48957331e+03 5.83844701e+03 1.38727664e+00
v 6.48607960e+03 5.83605732e+03 1.56466520e+00
v 6.48673630e+03 5.83625018e+03 1.60132009e+00
v 6.48638148e+03 5.83530879e+03 1.40604682e+00
v 6.48483132e+03 5.83356346e+03 1.46879030e+00
v 6.48581215e+03 5.83403279e+03 1.51235391e+00
v 6.48977684e+03 5.83461883e+03 1.56944418e+00
v 6.48888274e+03 5.83330068e+03 1.58223529e+00
v 6.49567959e+03 5.83020778e+03 2.20276248e+00
v 6.49671752e+03 5.83038578e+03 2.06409248e+00
v 6.48590138e+03 5.82769466e+03 1.87119727e+00
v 6.48501097e+03 5.83106436e+03 1.65073226e+00
v 6.48559593e+03 5.83144160e+03 1.82408007e+00
v 6.48514350e+03 5.83061962e+03 1.73262622e+00
v 6.48797182e+03 5.82692718e+03 1.71056363e+00
v 6.48706208e+03 5.83993812e+03 1.36074635e+00
v 6.48679857e+03 5.83678262e+03 1.52006239e+00
v 6.48555582e+03 5.83679779e+03 1.42785528e+00
v 6.48687403e+03 5.83750726e+03 1.53717224e+00
v 6.48502883e+03 5.83417554e+03 1.40662648e+00
v 6.48751959e+03 5.83315454e+03 1.68677363e+00
v 6.48628686e+03 5.82065933e+03 1.73284800e+00
v 6.48565436e+03 5.81946424e+03 1.62636024e+00
v 6.49515337e+03 5.82467917e+03 1.95323380e+00
v 6.49696839e+03 5.82331756e+03 2.13413341e+00
v 6.49254723e+03 5.82905937e+03 2.30127708e+00
v 6.49264039e+03 5.82939192e+03 2.31074440e+00
v 6.49196478e+03 5.82952478e+03 1.92584916e+00
v 6.48748836e+03 5.83581217e+03 1.55756694e+00
v 6.48741291e+03 5.83490194e+03 1.47017388e+00
v 6.49116938e+03 5.82347938e+03 1.93831798e+00
v 6.49362191e+03 5.82522552e+03 1.90847810e+00
v 6.49357084e+03 5.82638572e+03 2.01838941e+00
v 6.49458592e+03 5.82643631e+03 1.97444012e+00
v 6.48609734e+03 5.83020291e+03 2.53519075e+00
v 6.48640236e+03 5.83129897e+03 2.12990084e+00
v 6.48653029e+03 5.83048132e+03 2.44161881e+00
v 6.48593708e+03 5.83123513e+03 2.17859628e+00
v 6.48616249e+03 5.83085424e+03 2.43580288e+00
v 6.49690925e+03 5.84242083e+03 1.83962615e+00
v 6.49276343e+03 5.83239230e+03 1.63165302e+00
v 6.49410764e+03 5.83149272e+03 1.85787948e+00
v 6.48984189e+03 5.83699254e+03 1.43563655e+00
v 6.49743597e+03 5.83985876e+03 1.84649139e+00
v 6.49666419e+03 5.83940958e+03 1.91778761e+00
v 6.49746133e+03 5.83843763e+03 1.85256841e+00
v 6.48937013e+03 5.84321892e+03 1.41549071e+00
v 6.48622896e+03 5.84355022e+03 1.48000465e+00
v 6.49440161e+03 5.84294919e+03 1.62122019e+00
v 6.49335550e+03 5.84044590e+03 1.56532895e+00
v 6.49349309e+03 5.84236002e+03 1.59735098e+00
v 6.49517697e+03 5.82726048e+03 1.98138361e+00
v 6.49365810e+03 5.82724009e+03 2.19899656e+00
v 6.49484967e+03 5.82792937e+03 2.06555789e+00
v 6.48506161e+03 5.82721337e+03 1.76151862e+00
v 6.49872282e+03 5.84351514e+03 1.78824594e+00
v 6.48879327e+03 5.83518761e+03 1.58782905e+00
v 6.48797517e+03 5.83689228e+03 1.35648200e+00
v 6.49438930e+03 5.83635074e+03 1.90827817e+00
v 6.48865377e+03 5.84179167e+03 1.37439622e+00
v 6.49151878e+03 5.83858452e+03 1.65831988e+00
v 6.49208607e+03 5.84291124e+03 1.45564008e+00
v 6.48783415e+03 5.82987195e+03 1.71175820e+00
v 6.48772262e+03 5.83072915e+03 1.81773616e+00
v 6.49685661e+03 5.84336850e+03 1.71371564e+00
v 6.49798446e+03 5.84248664e+03 1.88831791e+00
v 6.49683805e+03 5.82609604e+03 2.06997812e+00
v 6.49658386e+03 5.82538231e+03 2.03875624e+00
v 6.49748626e+03 5.83561325e+03 1.96352814e+00
v 6.49649406e+03 5.83525809e+03 1.78779583e+00
v 6.49619676e+03 5.83643374e+03 1.73355702e+00
v 6.49795133e+03 5.83632260e+03 1.92450456e+00
v 6.49448689e+03 5.83763044e+03 1.71215711e+00
v 6.49531561e+03 5.83779490e+03 1.93661078e+00
v 6.49585599e+03 5.82174948e+03 1.97622877e+00
v 6.49502735e+03 5.82191378e+03 1.99781002e+00
v 6.49439722e+03 5.83402469e+03 1.68728773e+00
v 6.49475261e+03 5.83291376e+03 1.75633732e+00
v 6.49766772e+03 5.83305153e+03 1.92960411e+00
v 6.49572190e+03 5.83884279e+03 1.79042501e+00
v 6.49807444e+03 5.83066655e+03 2.17347180e+00
v 6.49852724e+03 5.83008978e+03 2.15000022e+00
v 6.49239460e+03 5.83903670e+03 1.65406758e+00
v 6.48953589e+03 5.83084070e+03 1.59612884e+00
v 6.49426846e+03 5.83963963e+03 1.69731400e+00
v 6.49454035e+03 5.83538558e+03 1.70508225e+00
v 6.49118857e+03 5.82782124e+03 2.05460129e+00
v 6.48554319e+03 5.82223379e+03 1.73357623e+00
v 6.49229967e+03 5.83534825e+03 1.73874609e+00
v 6.49635308e+03 5.83100750e+03 2.09508251e+00
v 6.49542637e+03 5.83103996e+03 2.17124504e+00
v 6.49516944e+03 5.83019109e+03 2.33293398e+00
v 6.49101108e+03 5.83357677e+03 1.60309766e+00
v 6.48628176e+03 5.83182848e+03 1.71794934e+00
v 6.49788893e+03 5.82618022e+03 2.25064375e+00
v 6.49801047e+03 5.82670672e+03 2.42179812e+00
v 6.48563600e+03 5.82661075e+03 1.71954112e+00
v 6.49641879e+03 5.83826532e+03 1.68517903e+00
v 6.49417551e+03 5.83709979e+03 1.66609223e+00
v 6.49509509e+03 5.83734563e+03 1.98179689e+00
v 6.49488617e+03 5.83681765e+03 1.84043582e+00
v 6.49655391e+03 5.83734257e+03 1.76749024e+00
v 6.49126560e+03 5.84047399e+03 1.49469263e+00
v 6.49357979e+03 5.83275419e+03 1.72610456e+00
v 6.48762103e+03 5.81989507e+03 1.65500605e+00
v 6.49091410e+03 5.82586006e+03 1.78320533e+00
v 6.49228599e+03 5.82671947e+03 1.91363578e+00
v 6.49274223e+03 5.82589533e+03 1.80061777e+00
v 6.48569031e+03 5.83196590e+03 1.57567063e+00
v 6.49154583e+03 5.82647240e+03 1.90258735e+00
v 6.49358758e+03 5.82882025e+03 1.95935898e+00
v 6.49326613e+03 5.82790831e+03 1.99555040e+00
v 6.49251795e+03 5.82816559e+03 1.92663230e+00
v 6.49260430e+03 5.82862881e+03 2.02340242e+00
v 6.49438018e+03 5.82859496e+03 2.01419311e+00
v 6.49290667e+03 5.82695734e+03 2.12596673e+00
v 6.49611182e+03 5.82667492e+03 2.10342536e+00
v 6.49680189e+03 5.82687476e+03 2.38001519e+00
v 6.49267261e+03 5.82748533e+03 2.11939014e+00
v 6.48733463e+03 5.82742393e+03 1.94669080e+00
v 6.48680642e+03 5.82794948e+03 1.67479163e+00
v 6.48687969e+03 5.82655381e+03 1.75469820e+00
v 6.48655286e+03 5.82721047e+03 1.81494616e+00
v 6.48843648e+03 5.83089691e+03 1.89151856e+00
v 6.48857374e+03 5.83181627e+03 1.69913796e+00
v 6.48915940e+03 5.82972957e+03 1.73646684e+00
v 6.48654986e+03 5.82865595e+03 1.69374350e+00
v 6.49155476e+03 5.83019129e+03 1.74046439e+00
v 6.49022955e+03 5.82870477e+03 1.72500148e+00
v 6.49774835e+03 5.82751194e+03 2.22161412e+00
v 6.49724751e+03 5.82736121e+03 2.34468114e+00
v 6.49761341e+03 5.82685036e+03 2.36666769e+00
v 6.49681186e+03 5.82786576e+03 2.43174858e+00
v 6.48757196e+03 5.82983427e+03 1.71660737e+00
v 6.49670761e+03 5.81858156e+03 1.98674079e+00
v 6.49754190e+03 5.81751540e+03 1.92879369e+00
v 6.49464829e+03 5.81909719e+03 1.88401826e+00
v 6.49348566e+03 5.82062877e+03 1.83824915e+00
v 6.48725365e+03 5.82361201e+03 1.69875419e+00
v 6.48842984e+03 5.82404115e+03 1.79137832e+00
v 6.49532625e+03 5.82818278e+03 2.21176982e+00
v 6.49518529e+03 5.82902228e+03 2.11707564e+00
v 6.48911019e+03 5.82064787e+03 1.86582045e+00
v 6.49421269e+03 5.82232557e+03 1.90611108e+00
v 6.49448859e+03 5.82406010e+03 2.03185784e+00
v 6.49779029e+03 5.82108849e+03 1.97822121e+00
v 6.50000000e+03 5.82296192e+03 2.11697530e+00
v 6.49878190e+03 5.82179693e+03 2.17497515e+00
v 6.49303645e+03 5.82919063e+03 2.30372135e+00
v 6.49911967e+03 5.83377663e+03 1.98112653e+00
v 6.49831907e+03 5.83355307e+03 2.12005604e+00
v 6.48703466e+03 5.83084201e+03 1.90167491e+00
v 6.48731752e+03 5.83039485e+03 1.90846162e+00
v 6.48731427e+03 5.83109667e+03 1.77545858e+00
v 6.49407431e+03 5.82928432e+03 2.04406698e+00
v 6.49348163e+03 5.83042131e+03 2.00405369e+00
v 6.49528054e+03 5.82576472e+03 2.06920256e+00
v 6.49615738e+03 5.82807712e+03 2.26590119e+00
v 6.49461262e+03 5.82530422e+03 1.92699346e+00
v 6.49559021e+03 5.82883888e+03 2.23052150e+00
v 6.49318393e+03 5.83853582e+03 1.80117627e+00
v 6.49574909e+03 5.82954590e+03 2.12613539e+00
v 6.48561565e+03 5.82946898e+03 1.87409771e+00
v 6.49060719e+03 5.82234732e+03 1.85422693e+00
v 6.49309787e+03 5.82265604e+03 1.94209894e+00
v 6.49471839e+03 5.81667972e+03 1.85724979e+00
v 6.49305193e+03 5.81967358e+03 1.89788043e+00
v 6.48733839e+03 5.82906497e+03 1.81700639e+00
v 6.48752677e+03 5.82616631e+03 1.73553422e+00
v 6.48806038e+03 5.82535971e+03 1.92953449e+00
v 6.49095164e+03 5.81540574e+03 1.74624992e+00
v 6.48702124e+03 5.83118933e+03 1.74170651e+00
v 6.49166481e+03 5.83436740e+03 1.83829621e+00
v 6.49262298e+03 5.83335318e+03 1.62165529e+00
v 6.48813264e+03 5.82779146e+03 1.66707974e+00
v 6.48735909e+03 5.82810565e+03 1.64693714e+00
v 6.48616056e+03 5.81547079e+03 1.67083307e+00
v 6.49066594e+03 5.81715956e+03 1.77313782e+00
v 6.48692999e+03 5.81722150e+03 1.63828592e+00
v 6.49154681e+03 5.81849013e+03 1.71130586e+00
v 6.48482220e+03 5.82294592e+03 1.66674648e+00
v 6.49271836e+03 5.83800106e+03 1.89609918e+00
v 6.49399163e+03 5.82999797e+03 2.13660165e+00
v 6.48495823e+03 5.82667302e+03 1.70054915e+00
v 6.48643952e+03 5.83332172e+03 1.76404340e+00
v 6.48544274e+03 5.83497801e+03 1.55806915e+00
v 6.49150657e+03 5.83098002e+03 1.62441998e+00
v 6.48530540e+03 5.83251976e+03 1.62834068e+00
v 6.48483834e+03 5.83312014e+03 1.53251083e+00
v 6.49163587e+03 5.82270971e+03 1.84843958e+00
v 6.48556117e+03 5.83309047e+03 1.75285482e+00
v 6.48640462e+03 5.83261299e+03 1.80419299e+00
v 6.49285422e+03 5.83426641e+03 1.75266462e+00
v 6.48647613e+03 5.83859373e+03 1.41532869e+00
v 6.49457554e+03 5.83052094e+03 2.27078688e+00
v 6.49293444e+03 5.82995436e+03 2.03784965e+00
v 6.49649159e+03 5.82869095e+03 2.18246270e+00
v 6.49271626e+03 5.82919673e+03 2.47301267e+00
v 6.49543372e+03 5.83195926e+03 1.94586356e+00
v 6.49445198e+03 5.83847175e+03 1.74699288e+00
v 6.49156791e+03 5.84166521e+03 1.43460101e+00
v 6.49442970e+03 5.82976131e+03 2.15225367e+00
v 6.48572105e+03 5.83469702e+03 1.42908137e+00
v 6.48514976e+03 5.83650134e+03 1.54917613e+00
v 6.48518563e+03 5.83627173e+03 1.75078361e+00
v 6.49051752e+03 5.84166675e+03 1.30209654e+00
v 6.48476219e+03 5.83543527e+03 1.92077845e+00
v 6.49064813e+03 5.84305170e+03 1.56901217e+00
v 6.48759191e+03 5.83820220e+03 1.33127392e+00
v 6.48706613e+03 5.82534392e+03 1.77348724e+00
v 6.48480092e+03 5.83261867e+03 1.55311020e+00
v 6.48474759e+03 5.81498348e+03 1.60173388e+00
v 6.48467776e+03 5.81645365e+03 1.57398896e+00
v 6.48550927e+03 5.81357211e+03 1.60316378e+00
v 6.46945386e+03 5.81376693e+03 1.31320846e+00
v 6.47127835e+03 5.81320851e+03 1.43438105e+00
v 6.47365755e+03 5.83323873e+03 1.36650232e+00
v 6.47435553e+03 5.83265476e+03 1.42460475e+00
v 6.47588465e+03 5.83173413e+03 1.45111227e+00
v 6.47196302e+03 5.82820289e+03 1.53965215e+00
v 6.47195128e+03 5.82726259e+03 1.75883916e+00
v 6.48133812e+03 5.81575284e+03 1.53200133e+00
v 6.48015227e+03 5.81521853e+03 1.55449263e+00
v 6.46885608e+03 5.81440327e+03 1.42186218e+00
v 6.46930340e+03 5.84004841e+03 1.49502371e+00
v 6.47411495e+03 5.83514245e+03 1.38718366e+00
v 6.47510095e+03 5.83608831e+03 1.36070713e+00
v 6.47502924e+03 5.83464402e+03 1.47157663e+00
v 6.47163322e+03 5.83236941e+03 1.76117788e+00
v 6.47205828e+03 5.83278597e+03 1.62477936e+00
v 6.47223497e+03 5.83544775e+03 1.38795918e+00
v 6.47240704e+03 5.83438825e+03 1.84161364e+00
v 6.47242092e+03 5.83402309e+03 1.96403993e+00
v 6.46882814e+03 5.83318797e+03 1.58308589e+00
v 6.46953824e+03 5.83314460e+03 1.75218117e+00
v 6.47651694e+03 5.83481049e+03 1.42735307e+00
v 6.47147212e+03 5.83589304e+03 1.36246931e+00
v 6.47180255e+03 5.83775910e+03 1.34427476e+00
v 6.47245361e+03 5.83858423e+03 1.28779337e+00
v 6.47602087e+03 5.83638482e+03 1.48767967e+00
v 6.47545557e+03 5.83734334e+03 1.41999355e+00
v 6.47812546e+03 5.83453175e+03 1.48311361e+00
v 6.47273864e+03 5.83267254e+03 1.83219039e+00
v 6.47252551e+03 5.83314945e+03 1.71919202e+00
v 6.47234678e+03 5.83165793e+03 1.69231922e+00
v 6.46970847e+03 5.83382607e+03 1.79757243e+00
v 6.46978433e+03 5.83257837e+03 1.50101849e+00
v 6.47033012e+03 5.83290863e+03 1.49929281e+00
v 6.47060131e+03 5.83218163e+03 1.43725433e+00
v 6.46985878e+03 5.83801054e+03 1.55314100e+00
v 6.47718922e+03 5.82001388e+03 1.43788580e+00
v 6.47082060e+03 5.84059611e+03 1.22816667e+00
v 6.46943485e+03 5.82595689e+03 1.41492605e+00
v 6.46987781e+03 5.82755722e+03 1.56889154e+00
v 6.47678911e+03 5.83722049e+03 1.43495293e+00
v 6.47003229e+03 5.82824031e+03 1.45992681e+00
v 6.47323046e+03 5.83455287e+03 1.49312313e+00
v 6.47296787e+03 5.83535078e+03 1.32298262e+00
v 6.47229392e+03 5.82888885e+03 1.63884745e+00
v 6.48321317e+03 5.82970570e+03 1.77617219e+00
v 6.47719285e+03 5.81796509e+03 1.49161515e+00
v 6.47747047e+03 5.81869615e+03 1.52546573e+00
v 6.47410319e+03 5.83367612e+03 1.34575430e+00
v 6.47099584e+03 5.82771817e+03 1.47134249e+00
v 6.47209934e+03 5.82938603e+03 1.51788366e+00
v 6.47403657e+03 5.83448058e+03 1.41211802e+00
v 6.47166018e+03 5.83185814e+03 1.67926707e+00
v 6.46912955e+03 5.83714725e+03 1.51706970e+00
v 6.46898353e+03 5.83820493e+03 1.29248825e+00
v 6.48408852e+03 5.82405242e+03 1.75589755e+00
v 6.47121145e+03 5.83002881e+03 1.52866434e+00
v 6.47763746e+03 5.83693594e+03 1.58987723e+00
v 6.47039494e+03 5.83379598e+03 1.71823887e+00
v 6.47093413e+03 5.83375547e+03 1.87474303e+00
v 6.47586092e+03 5.83251876e+03 1.39547045e+00
v 6.47323406e+03 5.83408927e+03 1.53674283e+00
v 6.47531000e+03 5.84042748e+03 1.36898659e+00
v 6.47654212e+03 5.84271299e+03 1.30018756e+00
v 6.47073153e+03 5.83339255e+03 1.76935104e+00
v 6.46916982e+03 5.84344863e+03 1.28659113e+00
v 6.47221875e+03 5.83207930e+03 1.74135641e+00
v 6.47785592e+03 5.81685309e+03 1.64819549e+00
v 6.47086560e+03 5.84330411e+03 1.19982279e+00
v 6.48004717e+03 5.81404661e+03 1.53052347e+00
v 6.47194814e+03 5.81781679e+03 1.30015455e+00
v 6.47226288e+03 5.82750133e+03 1.96740567e+00
v 6.46982062e+03 5.84369909e+03 1.30109591e+00
v 6.47016497e+03 5.84323115e+03 1.24331045e+00
v 6.47248506e+03 5.82735172e+03 1.92638440e+00
v 6.47917521e+03 5.82605101e+03 1.65780440e+00
v 6.47965852e+03 5.82639958e+03 1.69765476e+00
v 6.47268494e+03 5.82910599e+03 1.60213863e+00
v 6.47579889e+03 5.81459205e+03 1.43626315e+00
v 6.47715060e+03 5.81601690e+03 1.60746436e+00
v 6.47887741e+03 5.81680947e+03 1.63425452e+00
v 6.48010844e+03 5.81627147e+03 1.50704591e+00
v 6.48291169e+03 5.81496850e+03 1.64871341e+00
v 6.47229588e+03 5.81325325e+03 1.39569598e+00
v 6.48244686e+03 5.81778666e+03 1.56916379e+00
v 6.47394484e+03 5.81744733e+03 1.30673693e+00
v 6.47296723e+03 5.81791166e+03 1.40493310e+00
v 6.48052457e+03 5.81753407e+03 1.55117656e+00
v 6.47414210e+03 5.81319625e+03 1.42168883e+00
v 6.47814822e+03 5.81627271e+03 1.81105566e+00
v 6.47113268e+03 5.83294747e+03 1.94099762e+00
v 6.47257132e+03 5.84137231e+03 1.22991103e+00
v 6.47070971e+03 5.84256417e+03 1.37292762e+00
v 6.48155931e+03 5.81744876e+03 1.62560693e+00
v 6.47221646e+03 5.84256068e+03 1.24858384e+00
v 6.47119147e+03 5.84177238e+03 1.44368056e+00
v 6.47398932e+03 5.84284569e+03 1.26219906e+00
v 6.47502125e+03 5.84362626e+03 1.20829211e+00
v 6.47413538e+03 5.84114041e+03 1.25923883e+00
v 6.47172652e+03 5.84196075e+03 1.39571164e+00
v 6.47303176e+03 5.83325943e+03 1.62710497e+00
v 6.46868750e+03 5.83229419e+03 1.29598084e+00
v 6.46868750e+03 5.83252560e+03 1.35884189e+00
v 6.46868750e+03 5.84134265e+03 1.30654912e+00
v 6.46868750e+03 5.84146981e+03 1.28175514e+00
v 6.46868750e+03 5.83162204e+03 1.41530466e+00
v 6.46868750e+03 5.83195265e+03 1.34957027e+00
v 6.46868750e+03 5.84305565e+03 1.33442794e+00
v 6.46868750e+03 5.81854217e+03 1.47181000e+00
v 6.46868750e+03 5.81806033e+03 1.51575119e+00
v 6.46868750e+03 5.81598584e+03 1.38723864e+00
v 6.46868750e+03 5.81684675e+03 1.43927171e+00
v 6.46868750e+03 5.83005606e+03 1.33200468e+00
v 6.46868750e+03 5.83058077e+03 1.33651867e+00
v 6.46868750e+03 5.82204051e+03 1.43462063e+00
v 6.46868750e+03 5.82017717e+03 1.46522139e+00
v 6.46868750e+03 5.83302182e+03 1.50943156e+00
v 6.46868750e+03 5.83322750e+03 1.55031051e+00
v 6.46868750e+03 5.83903064e+03 1.52388003e+00
v 6.46868750e+03 5.83847476e+03 1.39009074e+00
v 6.46868750e+03 5.84114557e+03 1.32112936e+00
v 6.46868750e+03 5.83616450e+03 1.32151398e+00
v 6.46868750e+03 5.83595632e+03 1.31472898e+00
v 6.46868750e+03 5.83674312e+03 1.47862671e+00
v 6.46868750e+03 5.83826075e+03 1.33721696e+00
v 6.46868750e+03 5.83129548e+03 1.43164627e+00
v 6.46868750e+03 5.84017615e+03 1.41771588e+00
v 6.46868750e+03 5.82478187e+03 1.50908625e+00
v 6.46868750e+03 5.82325761e+03 1.46289160e+00
v 6.46868750e+03 5.84334861e+03 1.32183168e+00
v 6.46868750e+03 5.83721681e+03 1.45290629e+00
v 6.46868750e+03 5.83779941e+03 1.34484217e+00
v 6.46868750e+03 5.81873756e+03 1.48318173e+00
v 6.46868750e+03 5.82770792e+03 1.60399791e+00
v 6.46868750e+03 5.82766422e+03 1.61049213e+00
v 6.46868750e+03 5.82504940e+03 1.48604174e+00
v 6.46868750e+03 5.81338547e+03 1.37407554e+00
v 6.46868750e+03 5.83216969e+03 1.29891567e+00
v 6.46868750e+03 5.83402344e+03 1.38735014e+00
v 6.46868750e+03 5.83470999e+03 1.45703345e+00
v 6.46868750e+03 5.82606681e+03 1.38516182e+00
v 6.46868750e+03 5.83287778e+03 1.47632508e+00
v 6.46868750e+03 5.82852615e+03 1.42251680e+00
v 6.46868750e+03 5.82748799e+03 1.59228545e+00
v 6.46868750e+03 5.82242981e+03 1.42045420e+00
v 6.46868750e+03 5.82933866e+03 1.33924637e+00
v 6.46868750e+03 5.83386003e+03 1.40943452e+00
v 6.46868750e+03 5.83350131e+03 1.47403450e+00
v 6.46868750e+03 5.83557557e+03 1.34516609e+00
v 6.46868750e+03 5.83948450e+03 1.53575308e+00
v 6.46868750e+03 5.83809946e+03 1.32455505e+00
v 6.46868750e+03 5.83702176e+03 1.49966977e+00
v 6.46868750e+03 5.82278053e+03 1.42496533e+00
v 6.46868750e+03 5.81409485e+03 1.42054464e+00
v 6.46868750e+03 5.81431606e+03 1.40790680e+00
v 6.46868750e+03 5.81467401e+03 1.42097419e+00
v 6.47698334e+03 5.81243750e+03 1.55127662e+00
v 6.47642991e+03 5.81243750e+03 1.50975468e+00
v 6.48135275e+03 5.81243750e+03 1.60487995e+00
v 6.48216109e+03 5.81243750e+03 1.59649255e+00
v 6.47178548e+03 5.81243750e+03 1.41305488e+00
v 6.47150238e+03 5.81243750e+03 1.42384995e+00
v 6.47554970e+03 5.81243750e+03 1.46738252e+00
v 6.48028540e+03 5.81243750e+03 1.55749362e+00
v 6.48284653e+03 5.81243750e+03 1.61868733e+00
v 6.47254534e+03 5.81243750e+03 1.43574157e+00
v 6.47336169e+03 5.81243750e+03 1.44609539e+00
v 6.47435354e+03 5.81243750e+03 1.42405629e+00
v 6.48541963e+03 5.81243750e+03 1.64155170e+00
v 6.48423002e+03 5.81243750e+03 1.60232888e+00
v 6.47041489e+03 5.81243750e+03 1.36789470e+00
v 6.46924595e+03 5.81243750e+03 1.28710134e+00
v 6.47944989e+03 5.81243750e+03 1.58863042e+00
v 6.47873780e+03 5.81243750e+03 1.57779585e+00
v 6.47810681e+03 5.81243750e+03 1.60491870e+00
v 6.48544621e+03 5.81243750e+03 1.64854595e+00
v 6.48848755e+03 5.81243750e+03 1.72163089e+00
v 6.49046225e+03 5.81243750e+03 1.79177774e+00
v 6.48800392e+03 5.81243750e+03 1.70592646e+00
v 6.49166017e+03 5.81243750e+03 1.82677518e+00
v 6.49784417e+03 5.81243750e+03 1.95051645e+00
v 6.49810672e+03 5.81243750e+03 1.95279347e+00
v 6.48817784e+03 5.81243750e+03 1.70353194e+00
v 6.49505235e+03 5.81243750e+03 1.88466708e+00
v 6.49372357e+03 5.81243750e+03 1.87014575e+00
v 6.49772608e+03 5.81243750e+03 1.94695936e+00
v 6.49252891e+03 5.81243750e+03 1.87577124e+00
v 6.49962296e+03 5.81243750e+03 1.96106012e+00
v 6.50000000e+03 5.81243750e+03 1.96959401e+00
v 6.49993807e+03 5.81243750e+03 1.96819224e+00
v 6.46887730e+03 5.81243750e+03 1.32276051e+00
v 6.46868750e+03 5.81243750e+03 1.34111907e+00
v 6.47790807e+03 5.84381250e+03 1.41470396e+00
v 6.47824808e+03 5.84381250e+03 1.38835856e+00
v 6.47848914e+03 5.84381250e+03 1.35013703e+00
v 6.48281161e+03 5.84381250e+03 1.58608888e+00
v 6.48286420e+03 5.84381250e+03 1.58270355e+00
v 6.48121673e+03 5.84381250e+03 1.39021704e+00
v 6.48246904e+03 5.84381250e+03 1.53979835e+00
v 6.47593930e+03 5.84381250e+03 1.27365167e+00
v 6.47510795e+03 5.84381250e+03 1.21672570e+00
v 6.48434660e+03 5.84381250e+03 1.48003023e+00
v 6.48472967e+03 5.84381250e+03 1.46422618e+00
v 6.46955766e+03 5.84381250e+03 1.24656059e+00
v 6.46989509e+03 5.84381250e+03 1.28353366e+00
v 6.47480428e+03 5.84381250e+03 1.20452430e+00
v 6.47769205e+03 5.84381250e+03 1.39557212e+00
v 6.47755637e+03 5.84381250e+03 1.33186066e+00
v 6.47193577e+03 5.84381250e+03 1.17064741e+00
v 6.47188442e+03 5.84381250e+03 1.17019448e+00
v 6.47374288e+03 5.84381250e+03 1.22536368e+00
v 6.47915446e+03 5.84381250e+03 1.39138701e+00
v 6.48105014e+03 5.84381250e+03 1.38710433e+00
v 6.47070189e+03 5.84381250e+03 1.18305405e+00
v 6.46911734e+03 5.84381250e+03 1.29941252e+00
v 6.48286487e+03 5.84381250e+03 1.52194410e+00
v 6.48613574e+03 5.84381250e+03 1.47680060e+00
v 6.48633797e+03 5.84381250e+03 1.48143305e+00
v 6.49011079e+03 5.84381250e+03 1.42601366e+00
v 6.49088420e+03 5.84381250e+03 1.50742347e+00
v 6.48496633e+03 5.84381250e+03 1.45883219e+00
v 6.49404050e+03 5.84381250e+03 1.50717379e+00
v 6.49524254e+03 5.84381250e+03 1.63502497e+00
v 6.48912035e+03 5.84381250e+03 1.42821860e+00
v 6.49372843e+03 5.84381250e+03 1.47969430e+00
v 6.49316926e+03 5.84381250e+03 1.44342322e+00
v 6.50000000e+03 5.84381250e+03 2.00259744e+00
v 6.49989796e+03 5.84381250e+03 1.99410196e+00
v 6.49911529e+03 5.84381250e+03 1.81204889e+00
v 6.49982433e+03 5.84381250e+03 1.98797246e+00
v 6.49830421e+03 5.84381250e+03 1.78812840e+00
v 6.49873272e+03 5.84381250e+03 1.77431823e+00
v 6.49707750e+03 5.84381250e+03 1.74398287e+00
v 6.49629400e+03 5.84381250e+03 1.67910156e+00
v 6.49159223e+03 5.84381250e+03 1.44780807e+00
v 6.49212002e+03 5.84381250e+03 1.50110770e+00
v 6.46871101e+03 5.84381250e+03 1.36702784e+00
v 6.46868750e+03 5.84381250e+03 1.36924337e+00
vt 0.15500212 0.23242527
vt 0.13525948 0.24473357
vt 0.07713633 0.21136993
vt 0.09906248 0.18286073
vt 0.14299276 0.29448658
vt 0.099972278 0.26537299
vt 0.071976468 0.181678
vt 0.14820461 0.1813271
vt 0.22830591 0.25637901
vt 0.044487547 0.24577338
vt 0.023419207 0.19655973
vt 0.085469209 0.16115111
vt 0.10569479 0.1611442
vt 0.19231686 0.2184664
vt 0.22944964 0.30823755
vt 0.11697252 0.30685335
vt 0.062644534 0.29384321
vt 0.04898743 0.16116363
vt 0.077933438 0.16115338
vt 0.12742449 0.16113698
vt 0.20444319 0.18220443
vt 0.24357753 0.21229923
vt 0.24708675 0.27863008
vt 0.13407674 0.34152967
vt 0.08984752 0.3043384
vt 0.012293668 0.26214975
vt 0.0075107249 0.21350151
vt 0.017873986 0.16117495
vt 0.15382618 0.16112876
vt 0.18566486 0.16111779
vt 0.25485903 0.2631765
vt 0.29992008 0.32590061
vt 0.20453416 0.33585644
vt 0.10469024 0.35555357
vt 0.024367997 0.32287878
vt 0.0030155547 0.18641156
vt 0.0080603994 0.16117758
vt 0.20909348 0.16110957
vt 0.2644639 0.18792313
vt 0.26537371 0.24267352
vt 0.27427673 0.27746034
vt 0.23684502 0.32769424
vt 0.15417029 0.38129437
vt 0.0030530747 0.31084579
vt 0.0030377144 0.25562859
vt 0.0030207578 0.2052933
vt 0.22382399 0.16110414
vt 0.26654345 0.20781523
vt 0.31812903 0.29673511
vt 0.24633291 0.39635807
vt 0.22937167 0.36277348
vt 0.22178134 0.39878201
vt 0.026538517 0.3793968
vt 0.0030441142 0.27854359
vt 0.0030580915 0.32367212
vt 0.0030257422 0.22070962
vt 0.0030229129 0.2111817
vt 0.0030080294 0.16117895
vt 0.25372788 0.16109359
vt 0.30539185 0.20390964
vt 0.30819923 0.23510271
vt 0.30704248 0.26313102
vt 0.34566996 0.2944541
vt 0.33381659 0.37925386
vt 0.15492412 0.42092264
vt 0.22406884 0.41297489
vt 0.076226532 0.44093817
vt 0.0030723165 0.3671931
vt 0.0030595527 0.32887304
vt 0.27052402 0.16108859
vt 0.31171882 0.16107553
vt 0.33976924 0.24931508
vt 0.37933251 0.33648682
vt 0.28250393 0.42665434
vt 0.010084156 0.42768115
vt 0.0030889816 0.41679209
vt 0.2894783 0.16108227
vt 0.37024751 0.19630629
vt 0.34012869 0.16106558
vt 0.36929873 0.30344158
vt 0.40643153 0.27544576
vt 0.39508504 0.38146335
vt 0.26467186 0.43477756
vt 0.32139131 0.42096812
vt 0.13165927 0.43243808
vt 0.20106393 0.44279027
vt 0.077903159 0.48635018
vt 0.4015446 0.2975409
vt 0.38164601 0.22842216
vt 0.43402442 0.36477506
vt 0.37161222 0.40661931
vt 0.30405316 0.45557296
vt 0.1536894 0.45357788
vt 0.23523337 0.43893665
vt 0.038638841 0.51012838
vt 0.0030926161 0.4271549
vt 0.36164537 0.16105872
vt 0.4164913 0.31736803
vt 0.4286696 0.26793993
vt 0.41863582 0.4082374
vt 0.24719073 0.47979313
vt 0.33437544 0.45284355
vt 0.19921833 0.48486847
vt 0.079813741 0.52357394
vt 0.0031111529 0.48976111
vt 0.13934058 0.49400544
vt 0.0030955512 0.43649024
vt 0.4305152 0.2288056
vt 0.37989029 0.16105247
vt 0.43369949 0.29322588
vt 0.45468986 0.34806722
vt 0.45175248 0.4217869
vt 0.38627297 0.43978792
vt 0.2907441 0.48685706
vt 0.31979269 0.48746789
vt 0.069364049 0.54246521
vt 0.11241053 0.5250361
vt 0.0030989193 0.44918883
vt 0.023016296 0.52103299
vt 0.45077771 0.19123089
vt 0.46812886 0.24176371
vt 0.47153413 0.37987119
vt 0.43256873 0.44074976
vt 0.26776516 0.49102914
vt 0.35387114 0.48861164
vt 0.20775744 0.52534151
vt 0.14498132 0.520877
vt 0.090003483 0.55576134
vt 0.0031139117 0.4968825
vt 0.41671652 0.16104078
vt 0.50704229 0.35951769
vt 0.43286768 0.46564573
vt 0.30817324 0.51157761
vt 0.25185668 0.52392483
vt 0.41304705 0.47020775
vt 0.33258185 0.53195703
vt 0.09032841 0.58079374
vt 0.034817688 0.56362456
vt 0.10420934 0.55812681
vt 0.0031246645 0.52396584
vt 0.1247708 0.55220008
vt 0.44838107 0.16102993
vt 0.48862535 0.28835845
vt 0.50233734 0.40774351
vt 0.44288847 0.4874354
vt 0.28228298 0.52345049
vt 0.40791318 0.49381047
vt 0.36845392 0.53660357
vt 0.1505571 0.54165292
vt 0.25303942 0.56127208
vt 0.064581104 0.56790066
vt 0.1048462 0.5874418
vt 0.0031340101 0.56648242
vt 0.11033099 0.56322169
vt 0.098295651 0.56211042
vt 0.0031328483 0.56179178
vt 0.44908845 0.16102958
vt 0.51760894 0.22831821
vt 0.56893456 0.34886009
vt 0.54668349 0.37953979
vt 0.49729443 0.4584583
vt 0.29515013 0.5327239
vt 0.27405578 0.53590167
vt 0.39427921 0.53014398
vt 0.35700345 0.56478781
vt 0.17373097 0.58399105
vt 0.21065581 0.57616031
vt 0.27198926 0.54995155
vt 0.093967609 0.61228579
vt 0.099140465 0.59904826
vt 0.0031345142 0.56764579
vt 0.038937777 0.58180755
vt 0.12835801 0.58072877
vt 0.51716882 0.16100663
vt 0.58806634 0.28667533
vt 0.54135466 0.42016882
vt 0.52873445 0.44559765
vt 0.49231651 0.50455916
vt 0.4317629 0.50641119
vt 0.29725567 0.55372727
vt 0.28341371 0.54275769
vt 0.32827979 0.57022715
vt 0.22119647 0.59777451
vt 0.28021643 0.57109141
vt 0.10955116 0.6048255
vt 0.52179831 0.16100514
vt 0.59565669 0.23998964
vt 0.61152619 0.32208598
vt 0.61933744 0.35760713
vt 0.58654571 0.42476326
vt 0.52860451 0.46986979
vt 0.51877868 0.50496852
vt 0.44572183 0.51957083
vt 0.40800416 0.56806308
vt 0.36112353 0.6151582
vt 0.13011262 0.60404563
vt 0.25723749 0.59182835
vt 0.28499937 0.55612522
vt 0.025888661 0.61827099
vt 0.0031451331 0.58942837
vt 0.53004199 0.16100222
vt 0.56090236 0.19496107
vt 0.69592953 0.27386665
vt 0.5045858 0.52644628
vt 0.48736462 0.53676599
vt 0.31004483 0.59939915
vt 0.41672525 0.54279017
vt 0.38755968 0.59795648
vt 0.17144348 0.6187129
vt 0.25285748 0.6393978
vt 0.29171887 0.60555983
vt 0.07033883 0.629403
vt 0.63610375 0.2126177
vt 0.69408393 0.33821541
vt 0.65159631 0.35357153
vt 0.65284401 0.43295795
vt 0.56688106 0.49841797
vt 0.54669648 0.52267712
vt 0.45426095 0.53829318
vt 0.43622094 0.53995681
vt 0.42607018 0.55329835
vt 0.41521758 0.6054948
vt 0.38979518 0.62069494
vt 0.34851632 0.63196349
vt 0.19474733 0.67475653
vt 0.14499432 0.66474867
vt 0.22114448 0.65629411
vt 0.27935863 0.62705708
vt 0.084726654 0.64708561
vt 0.034960654 0.64997101
vt 0.0031537735 0.61105704
vt 0.58260357 0.1609841
vt 0.73285437 0.23000133
vt 0.77109188 0.29608524
vt 0.66315073 0.37899387
vt 0.61393064 0.43440062
vt 0.60151839 0.45489061
vt 0.5164392 0.54669583
vt 0.47866955 0.55424714
vt 0.43147698 0.57324243
vt 0.23503841 0.69602633
vt 0.2749396 0.69551289
vt 0.0031601007 0.63015324
vt 0.61448914 0.16097319
vt 0.70478177 0.16094303
vt 0.74889278 0.32447094
vt 0.68251646 0.42415243
vt 0.61199409 0.49483079
vt 0.59474689 0.51826459
vt 0.56541234 0.55680758
vt 0.49947795 0.55992043
vt 0.45097268 0.55899107
vt 0.43897632 0.5543381
vt 0.41256616 0.62428868
vt 0.45128459 0.58708441
vt 0.38290671 0.65646303
vt 0.32749996 0.66617841
vt 0.15405332 0.69927561
vt 0.30658761 0.69705957
vt 0.12853996 0.67118877
vt 0.060539 0.66268867
vt 0.0031645354 0.64411992
vt 0.6376127 0.16096497
vt 0.66941231 0.16095471
vt 0.77595037 0.16091901
vt 0.77909356 0.16091794
vt 0.81286466 0.32753825
vt 0.77773345 0.39119172
vt 0.72625178 0.40880281
vt 0.70419568 0.41318285
vt 0.68987286 0.4703182
vt 0.52072823 0.56970072
vt 0.48542804 0.57391828
vt 0.46133137 0.56714028
vt 0.43432334 0.61898583
vt 0.43392044 0.60062742
vt 0.19412346 0.69564289
vt 0.13319294 0.68571961
vt 0.25441712 0.74920404
vt 0.28317976 0.76476812
vt 0.10057015 0.67275494
vt 0.082296185 0.67809021
vt 0.054118421 0.68671381
vt 0.0031688286 0.66314274
vt 0.82373023 0.19236815
vt 0.82218361 0.27611512
vt 0.65704209 0.48766935
vt 0.75587225 0.45053005
vt 0.64340812 0.51918739
vt 0.61156517 0.53455651
vt 0.54294032 0.60774332
vt 0.50014079 0.57807088
vt 0.44547489 0.63499177
vt 0.41721913 0.64932764
vt 0.45374104 0.61437184
vt 0.3738867 0.68616146
vt 0.33765072 0.71981102
vt 0.2116046 0.75663841
vt 0.13393377 0.69796932
vt 0.11951996 0.68445885
vt 0.017141595 0.679299
vt 0.0031719648 0.67183542
vt 0.78608221 0.16091561
vt 0.82211858 0.35577452
vt 0.83651811 0.28559661
vt 0.66681594 0.50134885
vt 0.7075749 0.48679203
vt 0.59913993 0.55155027
vt 0.5765509 0.59399235
vt 0.52272981 0.61176592
vt 0.47860456 0.59272516
vt 0.44839925 0.62508148
vt 0.42830569 0.6353817
vt 0.40899196 0.68195689
vt 0.46485358 0.60233653
vt 0.17200236 0.75221938
vt 0.13548043 0.71482664
vt 0.23401164 0.79376471
vt 0.37415966 0.74143827
vt 0.097164899 0.68397146
vt 0.068259291 0.7070868
vt 0.032374226 0.69728053
vt 0.82644165 0.16090244
vt 0.83648771 0.19236237
vt 0.83653039 0.33557379
vt 0.80413055 0.41003752
vt 0.83652645 0.31635541
vt 0.83651555 0.27582955
vt 0.69318712 0.5034349
vt 0.77584881 0.47760308
vt 0.6312688 0.54112655
vt 0.62061113 0.55691803
vt 0.58802736 0.57202071
vt 0.55771804 0.63105369
vt 0.54807419 0.62127984
vt 0.49959493 0.60360372
vt 0.4567174 0.63972926
vt 0.44118583 0.64500606
vt 0.41990954 0.6653856
vt 0.43290666 0.6436609
vt 0.47054633 0.61844647
vt 0.38150302 0.70692438
vt 0.17392592 0.79066485
vt 0.14734681 0.72646558
vt 0.11881811 0.715379
vt 0.11382721 0.69150978
vt 0.19841251 0.79854763
vt 0.26300824 0.80053616
vt 0.38590905 0.82248831
vt 0.081581347 0.69169825
vt 0.057588652 0.71894026
vt 0.0077966619 0.68753916
vt 0.046905015 0.70606661
vt 0.83650887 0.25564653
vt 0.83653492 0.35227048
vt 0.83654881 0.3948862
vt 0.8365131 0.26934105
vt 0.80492342 0.43723398
vt 0.69248527 0.53356874
vt 0.66546422 0.53223002
vt 0.79297906 0.455365
vt 0.74565649 0.50549495
vt 0.71096718 0.51568466
vt 0.6158672 0.57524401
vt 0.60206425 0.57046103
vt 0.60468966 0.5908016
vt 0.6118381 0.63354909
vt 0.53294551 0.62786937
vt 0.50582051 0.62408066
vt 0.49005502 0.615964
vt 0.46230617 0.66137594
vt 0.46655622 0.63389349
vt 0.43766361 0.65684646
vt 0.42562827 0.67567277
vt 0.42480946 0.69002813
vt 0.14767173 0.7654959
vt 0.14557919 0.74787831
vt 0.12421192 0.73746765
vt 0.11100684 0.6997565
vt 0.21886998 0.8207857
vt 0.31007081 0.82649791
vt 0.241446 0.8132019
vt 0.41352794 0.71856982
vt 0.41066858 0.79559076
vt 0.33845654 0.86216855
vt 0.092901841 0.70278478
vt 0.074952811 0.71921968
vt 0.0031761061 0.68063664
vt 0.025823675 0.71235067
vt 0.048633631 0.72968233
vt 0.83482909 0.16089958
vt 0.83654016 0.3667261
vt 0.83022881 0.41747838
vt 0.82651162 0.44190645
vt 0.78039783 0.52671921
vt 0.64778817 0.54744965
vt 0.64156252 0.56150603
vt 0.6374554 0.5796175
vt 0.58796239 0.65315527
vt 0.52122211 0.63292527
vt 0.51279998 0.62508148
vt 0.46829784 0.65123171
vt 0.45323417 0.66688025
vt 0.44083491 0.66908324
vt 0.48927519 0.62967598
vt 0.43208784 0.69822282
vt 0.15268862 0.81519043
vt 0.18337484 0.82406747
vt 0.10534009 0.71245468
vt 0.10255871 0.73570651
vt 0.30864114 0.87244278
vt 0.23716994 0.84138614
vt 0.41343698 0.75008786
vt 0.40372813 0.7643522
vt 0.43038523 0.83857876
vt 0.41685522 0.90253764
vt 0.062982455 0.72859704
vt 0.0031789723 0.68641472
vt 0.0031808636 0.69588745
vt 0.83647758 0.16089904
vt 0.8365531 0.41027927
vt 0.73310131 0.53990483
vt 0.66779071 0.55496848
vt 0.8206889 0.48917055
vt 0.8075878 0.53682446
vt 0.752428 0.52449024
vt 0.6397559 0.59194529
vt 0.62274271 0.61580157
vt 0.53241265 0.64122391
vt 0.61056435 0.65454596
vt 0.55810797 0.65085477
vt 0.50983667 0.64789796
vt 0.47543326 0.6320219
vt 0.47469243 0.66307211
vt 0.47808468 0.64130187
vt 0.47149512 0.67717397
vt 0.43945721 0.68385446
vt 0.12735723 0.80804849
vt 0.12412094 0.74980843
vt 0.10219479 0.74542832
vt 0.20281854 0.83842278
vt 0.43308863 0.71157086
vt 0.42864361 0.74063241
vt 0.41764805 0.78039062
vt 0.43628591 0.81055695
vt 0.43265972 0.87598449
vt 0.38648093 0.92727768
vt 0.088885732 0.72668004
vt 0.068207301 0.74553883
vt 0.0031801031 0.6897285
vt 0.030359672 0.73048818
vt 0.0031815923 0.70526004
vt 0.83655488 0.4171316
vt 0.83656543 0.44103783
vt 0.70822477 0.55550134
vt 0.83657682 0.47418147
vt 0.78363413 0.54073012
vt 0.75146621 0.54521418
vt 0.65736705 0.57276154
vt 0.66593212 0.59703368
vt 0.62660283 0.60065985
vt 0.64855498 0.627226
vt 0.5515964 0.65915346
vt 0.644032 0.69212711
vt 0.61251396 0.68030626
vt 0.55355901 0.67601722
vt 0.52883846 0.65235591
vt 0.49904904 0.63900137
vt 0.45575562 0.68083918
vt 0.44551387 0.69558442
vt 0.1595511 0.83451718
vt 0.13471361 0.8372401
vt 0.11714149 0.77105218
vt 0.17967066 0.85345399
vt 0.28262091 0.90739202
vt 0.43290666 0.72337222
vt 0.43817049 0.73966414
vt 0.42601818 0.751472
vt 0.41750506 0.76215565
vt 0.42830569 0.79396611
vt 0.45222038 0.80945873
vt 0.47673297 0.85725564
vt 0.49234253 0.89303672
vt 0.42617416 0.95125085
vt 0.044097636 0.74059993
vt 0.0069258544 0.71351391
vt 0.0031821837 0.70909369
vt 0.83655626 0.42031974
vt 0.73432302 0.57722604
vt 0.69951671 0.57330739
vt 0.83657992 0.48149687
vt 0.8239122 0.52418482
vt 0.79434377 0.5665164
vt 0.77306747 0.54455781
vt 0.65125841 0.60689199
vt 0.63823527 0.60340226
vt 0.64071769 0.61225331
vt 0.66312474 0.6396513
vt 0.67980009 0.668167
vt 0.58389425 0.67786276
vt 0.49897105 0.6576848
vt 0.49152371 0.6509068
vt 0.49117279 0.66015422
vt 0.4747704 0.69805384
vt 0.10630188 0.83133286
vt 0.097632796 0.77363861
vt 0.21252739 0.86822522
vt 0.36815497 0.95620275
vt 0.31298217 0.96028388
vt 0.23885956 0.90440923
vt 0.45232436 0.71077156
vt 0.42388666 0.76506054
vt 0.43562305 0.78356844
vt 0.44140679 0.80156946
vt 0.48731264 0.82833052
vt 0.014425196 0.74660462
vt 0.0031913742 0.73140681
vt 0.71220189 0.58004642
vt 0.6870265 0.59102905
vt 0.83658177 0.48801476
vt 0.83416694 0.55757439
vt 0.8365913 0.52490187
vt 0.77666765 0.5621689
vt 0.76333261 0.55815923
vt 0.67889029 0.60938096
vt 0.53250366 0.67682958
vt 0.59739828 0.7236712
vt 0.6657632 0.70175153
vt 0.51940256 0.67103934
vt 0.50118059 0.67049342
vt 0.50108957 0.6943692
vt 0.13529848 0.87616646
vt 0.086143337 0.83516705
vt 0.1034815 0.85712564
vt 0.073510133 0.76665914
vt 0.17952769 0.90616381
vt 0.24677482 0.94130808
vt 0.4590179 0.735856
vt 0.43667582 0.75412995
vt 0.43103507 0.7598747
vt 0.43107405 0.77319026
vt 0.44235557 0.79545432
vt 0.48529807 0.80904281
vt 0.5064314 0.84682548
vt 0.47019541 0.98918945
vt 0.43215284 0.98842913
vt 0.060318049 0.77085721
vt 0.036806248 0.75676185
vt 0.0031932166 0.7357567
vt 0.0031831539 0.71456778
vt 0.0031870126 0.72185719
vt 0.75173914 0.57159179
vt 0.71923333 0.59750807
vt 0.70845872 0.602395
vt 0.83658588 0.50182235
vt 0.8366012 0.55461037
vt 0.83659226 0.52950442
vt 0.75912154 0.59150338
vt 0.81665981 0.59386885
vt 0.67669374 0.62837625
vt 0.64273226 0.60705447
vt 0.64030182 0.71770549
vt 0.69698226 0.70598859
vt 0.54074383 0.71634078
vt 0.50445586 0.71246111
vt 0.07733129 0.7854985
vt 0.33678275 0.99621558
vt 0.23866461 0.96697086
vt 0.21234544 0.96699035
vt 0.47570619 0.71691918
vt 0.45660043 0.75353861
vt 0.44919205 0.7610184
vt 0.43850842 0.76806939
vt 0.46615332 0.78974205
vt 0.51662117 0.81195414
vt 0.55917376 0.853324
vt 0.53472614 0.94236082
vt 0.42009252 0.99618715
vt 0.02471892 0.77305377
vt 0.0031977668 0.75403035
vt 0.72347039 0.61632788
vt 0.83660185 0.55699766
vt 0.79225123 0.5943563
vt 0.83660316 0.56103253
vt 0.68835217 0.62207264
vt 0.69223833 0.64228964
vt 0.61480147 0.74470699
vt 0.71510029 0.68057275
vt 0.68753338 0.73556352
vt 0.64646244 0.74201012
vt 0.56455457 0.75142002
vt 0.14826959 0.92515266
vt 0.098269656 0.89733875
vt 0.071807511 0.87069464
vt 0.054495335 0.81947947
vt 0.33234864 0.99621701
vt 0.38033327 0.99524611
vt 0.2653867 0.98625213
vt 0.47418553 0.76981747
vt 0.50163549 0.75897789
vt 0.50365001 0.7832045
vt 0.48363444 0.79486942
vt 0.56285191 0.90700865
vt 0.46771619 0.99617177
vt 0.55380595 0.98034495
vt 0.38065073 0.99619931
vt 0.43028954 0.99618411
vt 0.0075497166 0.78878677
vt 0.74322605 0.59356344
vt 0.83660251 0.55883265
vt 0.77452314 0.60659307
vt 0.83661252 0.5994845
vt 0.81328058 0.6139884
vt 0.71489233 0.65609908
vt 0.74763209 0.70484483
vt 0.76734871 0.73997605
vt 0.53837836 0.76656818
vt 0.14439645 0.97054511
vt 0.12055973 0.91157711
vt 0.075004801 0.89362162
vt 0.063424364 0.83630431
vt 0.042992879 0.79389465
vt 0.28188905 0.99623334
vt 0.37011406 0.99620247
vt 0.24871176 0.99624372
vt 0.26418003 0.99623972
vt 0.56630915 0.81460559
vt 0.58807933 0.87985116
vt 0.43658903 0.99618214
vt 0.47309914 0.99616998
vt 0.58433616 0.93902057
vt 0.0032074263 0.77707219
vt 0.74291414 0.61880386
vt 0.83661348 0.60939986
vt 0.83661455 0.61429948
vt 0.7080428 0.63350362
vt 0.63171071 0.77081174
vt 0.58789742 0.78081954
vt 0.73956084 0.65522832
vt 0.73937887 0.67465901
vt 0.69135451 0.77178657
vt 0.1066398 0.93133926
vt 0.08785896 0.91989529
vt 0.033634949 0.87189692
vt 0.051947899 0.84013194
vt 0.023367219 0.80602098
vt 0.17187238 0.99131447
vt 0.37923181 0.99619883
vt 0.24296215 0.99624592
vt 0.2577627 0.99624121
vt 0.60020566 0.84082729
vt 0.60423476 0.90726209
vt 0.612293 0.9389686
vt 0.54716206 0.99614674
vt 0.5878194 0.97588038
vt 0.0032113069 0.78720766
vt 0.72162485 0.63394552
vt 0.79742408 0.6307807
vt 0.7686094 0.63054681
vt 0.82675856 0.63798112
vt 0.77457511 0.70962775
vt 0.76855743 0.68583006
vt 0.74335599 0.7683748
vt 0.097203895 0.96297425
vt 0.060032111 0.91069335
vt 0.034401778 0.84187353
vt 0.024069063 0.83234668
vt 0.16609885 0.99627376
vt 0.19630958 0.99626291
vt 0.38063166 0.99619842
vt 0.23935196 0.99624807
vt 0.5972293 0.82283276
vt 0.63182765 0.89154208
vt 0.61095428 0.85696322
vt 0.57352585 0.99613822
vt 0.0032129684 0.79274887
vt 0.74925673 0.63867646
vt 0.83661979 0.6236701
vt 0.61838865 0.77730381
vt 0.76227981 0.65763277
vt 0.79191327 0.72296929
vt 0.76976615 0.77781719
vt 0.73545378 0.79967189
vt 0.66376162 0.79026198
vt 0.061253842 0.98277539
vt 0.084154777 0.9470073
vt 0.06990993 0.94199693
vt 0.019637045 0.89612353
vt 0.014984072 0.81890112
vt 0.13784574 0.99628258
vt 0.17418161 0.9962709
vt 0.60917372 0.82189697
vt 0.65986246 0.90649527
vt 0.63427114 0.86899203
vt 0.62007827 0.83922863
vt 0.62609595 0.97213072
vt 0.59411108 0.99613035
vt 0.0032148708 0.80814838
vt 0.78537571 0.64613682
vt 0.83662587 0.63599765
vt 0.64240736 0.7927509
vt 0.6226387 0.79728043
vt 0.80557328 0.69923007
vt 0.79874974 0.74909353
vt 0.79689115 0.68013728
vt 0.70056945 0.80990064
vt 0.68733841 0.79747534
vt 0.089744776 0.99629903
vt 0.046489105 0.92944819
vt 0.0032337029 0.86903721
vt 0.026824454 0.9166525
vt 0.0032194594 0.82075751
vt 0.66268283 0.87662137
vt 0.83381599 0.65045834
vt 0.81322855 0.72891551
vt 0.78215241 0.79669553
vt 0.70613223 0.82395053
vt 0.66146111 0.81713998
vt 0.62977415 0.81844622
vt 0.05709476 0.96307826
vt 0.088378102 0.99629945
vt 0.0032373823 0.88111794
vt 0.011110929 0.84705937
vt 0.0032579037 0.93058217
vt 0.0032168594 0.81556493
vt 0.66354066 0.95744401
vt 0.65527451 0.85565048
vt 0.68415409 0.88502401
vt 0.61295873 0.9961251
vt 0.83663285 0.64791596
vt 0.83666557 0.74380696
vt 0.83664715 0.68779433
vt 0.74496764 0.82385951
vt 0.81975311 0.81819928
vt 0.68165869 0.81741947
vt 0.68995082 0.83154082
vt 0.042602964 0.98083884
vt 0.056901123 0.99630946
vt 0.030944543 0.93888408
vt 0.0032456638 0.89953023
vt 0.0032315382 0.85424286
vt 0.0032559184 0.92533606
vt 0.0032266048 0.83626693
vt 0.64287525 0.84141862
vt 0.68772835 0.97311854
vt 0.66981995 0.99610621
vt 0.68902802 0.85393488
vt 0.72283357 0.86379969
vt 0.62700641 0.99611974
vt 0.8366462 0.68551654
vt 0.83663517 0.65166271
vt 0.8366639 0.73879623
vt 0.83666748 0.7488513
vt 0.83665627 0.71432757
vt 0.77795434 0.82806408
vt 0.83338714 0.78355545
vt 0.71200693 0.83590788
vt 0.03343999 0.99329656
vt 0.035423409 0.99631488
vt 0.0032307319 0.84854704
vt 0.003259487 0.93396717
vt 0.0032295899 0.8442539
vt 0.73107374 0.94336158
vt 0.67812604 0.99610311
vt 0.65493643 0.99611157
vt 0.74479872 0.90402579
vt 0.83663934 0.66414845
vt 0.76912934 0.85299909
vt 0.83668679 0.81412327
vt 0.81599694 0.84842408
vt 0.74138045 0.84842408
vt 0.016114824 0.98663551
vt 0.0032721241 0.97617859
vt 0.75307786 0.98425704
vt 0.71011955 0.99609077
vt 0.74791801 0.87887633
vt 0.83667564 0.77329469
vt 0.79294008 0.87235832
vt 0.8366797 0.7877692
vt 0.83669376 0.82884794
vt 0.026442397 0.9963184
vt 0.75747091 0.93688905
vt 0.75446856 0.95902961
vt 0.76846647 0.89082724
vt 0.83667898 0.78251821
vt 0.83669603 0.83713943
vt 0.82856518 0.87364501
vt 0.014720872 0.99632138
vt 0.0032748973 0.9839769
vt 0.79011965 0.93977439
vt 0.73810673 0.99608099
vt 0.78308821 0.96077126
vt 0.7954095 0.91332525
vt 0.8367002 0.85203749
vt 0.82840919 0.89784569
vt 0.0039036607 0.99632388
vt 0.75896078 0.99607325
vt 0.80275291 0.98814321
vt 0.83671433 0.89447987
vt 0.83670461 0.86706078
vt 0.0032779654 0.996324
vt 0.80977136 0.93932599
vt 0.79161274 0.99606204
vt 0.81351453 0.95990694
vt 0.83211339 0.93738294
vt 0.83670723 0.87783092
vt 0.83671552 0.90169144
vt 0.8325423 0.95599478
vt 0.80301929 0.99605852
vt 0.83672518 0.93048072
vt 0.83673251 0.95741081
vt 0.81320184 0.99605465
vt 0.83672822 0.93839782
vt 0.83673102 0.95248556
vt 0.83673716 0.96894026
vt 0.83275026 0.99048269
vt 0.83674192 0.98363125
vt 0.83207184 0.99604583
vt 0.8340314 0.99604511
vt 0.83674568 0.99266177
vt 0.83674741 0.9960441
vt 0.85490286 0.99579889
vt 0.81235117 0.99398404
vt 0.85491168 0.99416542
vt 0.85388923 0.99586821
vt 0.86015558 0.99530631
vt 0.85460126 0.98994696
vt 0.86869627 0.98995191
usemtl Tile_+032_+024_L21_00013100_0
f 202/1 204/2 203/3
f 90/183 154/197 144/210
f 196/709 39/739 183/711
f 776/625 184/598 777/650
f 43/164 25/148 130/125
f 198/6 200/17 199/10
f 186/48 187/22 197/39
f 195/24 85/33 83/43
f 122/91 33/64 31/82
f 149/98 32/73 192/88
f 12/166 146/167 90/183
f 190/621 191/645 162/595
f 188/240 113/194 189/221
f 185/40 187/22 186/48
f 687/724 39/739 688/761
f 176/300 103/278 175/299
f 174/346 176/300 175/299
f 136/619 137/593 173/532
f 689/302 172/352 690/388
f 180/608 182/579 181/622
f 14/173 179/152 178/154
f 178/154 126/141 14/173
f 40/475 177/537 152/510
f 168/485 170/548 169/516
f 165/474 167/441 166/507
f 162/595 164/667 163/646
f 160/387 161/448 156/449
f 144/210 62/228 159/242
f 156/449 158/535 157/547
f 107/101 153/83 52/92
f 56/184 155/211 154/197
f 86/50 55/74 153/83
f 151/412 40/475 152/510
f 148/81 150/110 149/98
f 147/383 29/413 18/319
f 90/183 146/167 89/150
f 124/100 122/91 31/82
f 57/180 141/198 71/181
f 33/64 54/84 55/74
f 144/210 145/241 91/227
f 37/414 30/479 44/444
f 30/479 6/512 44/444
f 34/294 143/313 142/340
f 56/184 73/168 141/198
f 131/206 50/195 61/224
f 111/115 112/133 106/114
f 132/471 121/472 133/407
f 19/280 140/348 139/318
f 51/446 9/416 17/349
f 138/179 42/193 43/164
f 135/643 137/593 136/619
f 77/95 63/87 79/104
f 134/381 19/280 28/385
f 61/224 48/257 62/228
f 24/165 60/208 50/195
f 58/478 59/539 8/540
f 34/294 2/314 36/256
f 56/184 141/198 57/180
f 52/92 55/74 54/84
f 54/84 53/102 52/92
f 26/415 51/446 17/349
f 3/296 48/257 36/256
f 50/195 23/182 24/165
f 47/297 49/259 48/257
f 18/319 37/414 27/384
f 44/444 46/513 45/480
f 41/207 43/164 42/193
f 40/475 21/411 20/509
f 38/546 15/508 11/484
f 29/413 37/414 18/319
f 36/256 35/254 34/294
f 31/82 33/64 32/73
f 30/479 29/413 6/512
f 21/411 28/385 10/447
f 26/415 17/349 27/384
f 22/136 25/148 24/165
f 23/182 22/136 24/165
f 20/509 21/411 15/508
f 17/349 19/280 18/319
f 781/567 16/597 782/624
f 12/166 14/173 13/149
f 9/416 11/484 10/447
f 6/512 8/540 7/573
f 4/339 5/374 2/314
f 1/342 3/296 2/314
f 62/228 48/257 49/259
f 131/206 61/224 62/228
f 130/125 128/147 43/164
f 130/125 111/115 53/102
f 127/132 129/145 128/147
f 125/90 31/82 32/73
f 13/149 126/141 95/127
f 122/91 54/84 33/64
f 124/100 31/82 125/90
f 124/100 123/113 122/91
f 119/438 121/472 120/505
f 37/414 29/413 30/479
f 6/512 58/478 8/540
f 29/413 58/478 6/512
f 44/444 45/480 27/384
f 118/445 27/384 45/480
f 2/314 5/374 116/375
f 5/374 117/437 116/375
f 4/339 115/404 5/374
f 58/478 29/413 114/443
f 18/319 19/280 47/297
f 61/224 36/256 48/257
f 48/257 3/296 47/297
f 43/164 113/194 24/165
f 108/124 106/114 112/133
f 111/115 52/92 53/102
f 33/64 86/50 110/32
f 107/101 109/103 82/94
f 109/103 107/101 94/126
f 108/124 107/101 106/114
f 104/261 93/230 105/229
f 102/260 74/226 103/278
f 89/150 101/134 73/168
f 63/87 77/95 66/75
f 98/644 100/594 99/620
f 87/65 81/86 68/93
f 65/106 95/127 64/117
f 68/93 88/85 87/65
f 12/166 13/149 94/126
f 696/243 93/230 697/262
f 144/210 91/227 90/183
f 89/150 73/168 56/184
f 87/65 88/85 69/67
f 86/50 80/66 84/52
f 83/43 85/33 84/52
f 80/66 82/94 81/86
f 79/104 78/116 77/95
f 74/226 76/196 75/209
f 71/181 73/168 72/163
f 69/67 67/53 70/34
f 63/87 69/67 68/93
f 69/67 88/85 68/93
f 67/53 66/75 698/76
f 63/87 65/106 64/117
f 80/66 83/43 84/52
f 91/227 588/225 90/183
f 107/101 82/94 153/83
f 588/225 91/227 145/241
f 159/242 145/241 144/210
f 604/389 616/322 642/390
f 650/320 614/281 176/300
f 640/212 105/229 93/230
f 93/230 92/199 640/212
f 175/299 684/345 612/379
f 588/225 75/209 90/183
f 644/277 588/225 145/241
f 101/134 72/163 73/168
f 152/510 166/507 151/412
f 139/318 611/279 19/280
f 21/411 140/348 134/381
f 140/348 151/412 641/382
f 49/259 159/242 62/228
f 156/449 157/547 168/485
f 151/412 166/507 167/441
f 120/505 607/533 119/438
f 642/390 615/451 604/389
f 168/485 157/547 170/548
f 157/547 158/535 606/566
f 648/351 642/390 617/353
f 600/506 606/566 158/535
f 182/579 180/608 169/516
f 161/448 160/387 599/386
f 674/321 648/351 618/283
f 674/321 598/350 160/387
f 674/321 160/387 648/351
f 681/647 647/569 783/669
f 25/148 22/136 130/125
f 183/711 594/688 621/665
f 638/723 98/644 702/710
f 177/537 40/475 20/509
f 177/537 20/509 201/568
f 680/618 678/664 675/642
f 165/474 646/536 173/532
f 680/618 675/642 682/592
f 684/345 645/378 602/410
f 608/534 120/505 121/472
f 676/720 657/737 39/739
f 595/376 119/438 627/473
f 594/688 183/711 687/724
f 621/665 196/709 183/711
f 787/781 656/758 788/759
f 679/687 135/643 683/686
f 621/665 135/643 679/687
f 98/644 191/645 100/594
f 70/34 87/65 69/67
f 14/173 76/196 179/152
f 705/676 163/646 707/698
f 590/128 658/139 655/155
f 171/301 618/283 616/322
f 172/352 171/301 616/322
f 626/439 645/378 635/377
f 675/642 678/664 683/686
f 608/534 173/532 137/593
f 135/643 675/642 683/686
f 152/510 646/536 166/507
f 680/618 682/592 646/536
f 136/619 173/532 682/592
f 154/197 62/228 144/210
f 12/166 75/209 76/196
f 126/141 13/149 14/173
f 69/67 66/75 67/53
f 81/86 87/65 80/66
f 95/127 65/106 109/103
f 679/687 676/720 196/709
f 196/709 621/665 679/687
f 599/386 613/409 161/448
f 602/410 613/409 684/345
f 634/169 628/170 661/185
f 74/226 75/209 588/225
f 86/50 33/64 55/74
f 57/180 131/206 56/184
f 85/33 620/51 84/52
f 152/510 177/537 647/569
f 632/344 645/378 586/317
f 586/317 645/378 684/345
f 599/386 650/320 612/379
f 66/75 77/95 711/105
f 195/24 670/16 669/5
f 657/737 649/772 39/739
f 691/773 649/772 713/789
f 714/712 638/723 715/743
f 652/685 680/618 792/708
f 680/618 647/569 681/647
f 680/618 681/647 789/668
f 649/772 657/737 656/758
f 366/222 35/254 629/223
f 678/664 652/685 679/687
f 148/81 668/80 677/63
f 666/89 591/72 193/78
f 32/73 33/64 110/32
f 110/32 671/49 677/63
f 744/12 585/7 745/19
f 97/35 67/53 699/68
f 585/7 667/4 203/3
f 742/79 653/60 747/71
f 194/21 662/14 672/8
f 192/88 148/81 149/98
f 669/5 670/16 198/6
f 200/17 97/35 96/26
f 197/39 187/22 194/21
f 185/40 592/61 665/62
f 662/14 202/1 672/8
f 583/120 581/108 193/78
f 70/34 67/53 97/35
f 677/63 668/80 32/73
f 664/41 110/32 651/23
f 672/8 667/4 749/13
f 85/33 195/24 630/15
f 671/49 665/62 591/72
f 195/24 669/5 630/15
f 663/9 187/22 673/31
f 591/72 677/63 671/49
f 199/10 203/3 198/6
f 204/2 669/5 198/6
f 663/9 673/31 651/23
f 664/41 673/31 185/40
f 97/35 200/17 70/34
f 746/30 672/8 751/29
f 86/50 631/42 110/32
f 664/41 671/49 110/32
f 654/25 200/17 198/6
f 198/6 670/16 654/25
f 669/5 204/2 202/1
f 663/9 669/5 202/1
f 148/81 666/89 582/99
f 32/73 668/80 192/88
f 96/26 199/10 200/17
f 203/3 667/4 202/1
f 631/42 620/51 85/33
f 392/111 149/98 150/110
f 581/108 666/89 193/78
f 583/120 193/78 748/109
f 665/62 664/41 185/40
f 125/90 32/73 149/98
f 392/111 125/90 149/98
f 663/9 630/15 669/5
f 593/27 584/11 199/10
f 131/206 23/182 50/195
f 652/685 676/720 679/687
f 605/298 611/279 139/318
f 68/93 65/106 63/87
f 77/95 78/116 622/119
f 679/687 683/686 678/664
f 10/447 15/508 21/411
f 170/548 157/547 182/579
f 647/569 201/568 776/625
f 675/642 136/619 682/592
f 678/664 680/618 652/685
f 19/280 134/381 140/348
f 139/318 624/380 609/347
f 605/298 139/318 609/347
f 589/137 634/169 633/151
f 623/138 625/172 717/171
f 635/377 632/344 597/316
f 711/105 622/119 719/129
f 190/621 607/533 100/594
f 137/593 99/620 608/534
f 650/320 598/350 636/282
f 104/261 105/229 636/282
f 674/321 618/283 636/282
f 177/537 201/568 647/569
f 651/23 673/31 664/41
f 774/37 720/36 775/58
f 114/443 29/413 147/383
f 663/9 662/14 187/22
f 662/14 194/21 187/22
f 141/198 73/168 71/181
f 22/136 57/180 660/162
f 71/181 660/162 57/180
f 629/223 60/208 366/222
f 590/128 655/155 179/152
f 112/133 22/136 660/162
f 96/26 97/35 693/44
f 123/113 639/135 130/125
f 199/10 96/26 593/27
f 592/61 653/60 193/78
f 202/1 662/14 663/9
f 639/135 128/147 130/125
f 53/102 123/113 130/125
f 661/185 179/152 76/196
f 179/152 661/185 628/170
f 108/124 112/133 659/146
f 108/124 659/146 101/134
f 71/181 72/163 659/146
f 25/148 43/164 24/165
f 112/133 660/162 659/146
f 659/146 660/162 71/181
f 35/254 366/222 335/275
f 590/128 79/104 64/117
f 178/154 658/139 64/117
f 658/139 590/128 64/117
f 126/141 178/154 64/117
f 655/155 658/139 178/154
f 179/152 655/155 178/154
f 652/685 657/737 676/720
f 657/737 652/685 656/758
f 131/206 155/211 56/184
f 102/260 176/300 614/281
f 93/230 618/283 171/301
f 13/149 95/127 94/126
f 70/34 654/25 195/24
f 670/16 195/24 654/25
f 186/48 197/39 653/60
f 74/226 634/169 76/196
f 630/15 663/9 651/23
f 204/2 198/6 203/3
f 70/34 83/43 87/65
f 94/126 101/134 89/150
f 686/419 604/389 725/452
f 174/346 612/379 650/320
f 612/379 174/346 175/299
f 196/709 676/720 39/739
f 111/115 130/125 22/136
f 20/509 184/598 201/568
f 108/124 101/134 107/101
f 93/230 171/301 689/302
f 156/449 643/417 160/387
f 160/387 643/417 648/351
f 647/569 646/536 152/510
f 98/644 619/666 191/645
f 654/25 70/34 200/17
f 136/619 675/642 135/643
f 173/532 608/534 121/472
f 615/451 642/390 168/485
f 169/516 615/451 168/485
f 601/440 602/410 645/378
f 164/667 637/689 163/646
f 587/258 644/277 605/298
f 156/449 601/440 158/535
f 161/448 601/440 156/449
f 642/390 643/417 156/449
f 139/318 641/382 624/380
f 113/194 41/207 189/221
f 189/221 41/207 553/220
f 146/167 12/166 94/126
f 62/228 155/211 131/206
f 19/280 49/259 47/297
f 68/93 81/86 109/103
f 165/474 132/471 610/408
f 1/342 18/319 47/297
f 20/509 15/508 781/567
f 154/197 90/183 89/150
f 580/406 558/442 147/383
f 381/373 34/294 142/340
f 54/84 122/91 53/102
f 336/293 143/313 35/254
f 98/644 621/665 594/688
f 634/169 640/212 92/199
f 11/484 15/508 10/447
f 60/208 113/194 366/222
f 19/280 17/349 28/385
f 1/342 116/375 580/406
f 127/132 639/135 123/113
f 17/349 9/416 28/385
f 22/136 112/133 111/115
f 44/444 6/512 576/541
f 9/416 10/447 28/385
f 113/194 60/208 24/165
f 147/383 18/319 1/342
f 122/91 123/113 53/102
f 27/384 17/349 18/319
f 3/296 1/342 47/297
f 780/822 15/823 799/824
f 27/384 118/445 26/415
f 147/383 1/342 580/406
f 1/342 2/314 116/375
f 15/508 38/546 785/578
f 28/385 21/411 134/381
f 597/316 632/344 587/258
f 34/294 4/339 2/314
f 366/222 113/194 188/240
f 188/240 353/255 366/222
f 128/147 639/135 127/132
f 138/179 43/164 128/147
f 64/117 95/127 126/141
f 52/92 111/115 106/114
f 123/113 550/123 127/132
f 110/32 631/42 630/15
f 106/114 107/101 52/92
f 23/182 131/206 57/180
f 118/445 45/480 573/514
f 389/477 114/443 147/383
f 629/223 35/254 36/256
f 36/256 61/224 629/223
f 35/254 143/313 34/294
f 36/256 2/314 3/296
f 44/444 27/384 37/414
f 50/195 629/223 61/224
f 631/42 85/33 630/15
f 179/152 628/170 589/137
f 634/169 589/137 628/170
f 101/134 94/126 107/101
f 109/103 65/106 68/93
f 56/184 154/197 89/150
f 627/473 600/506 626/439
f 626/439 595/376 627/473
f 21/411 40/475 151/412
f 109/103 81/86 82/94
f 726/200 92/199 729/231
f 151/412 167/441 624/380
f 610/408 624/380 167/441
f 102/260 103/278 176/300
f 622/119 78/116 623/138
f 621/665 98/644 99/620
f 78/116 79/104 590/128
f 14/173 12/166 76/196
f 86/50 153/83 80/66
f 642/390 648/351 643/417
f 74/226 587/258 103/278
f 121/472 132/471 173/532
f 140/348 21/411 151/412
f 620/51 86/50 84/52
f 153/83 55/74 52/92
f 153/83 82/94 80/66
f 63/87 64/117 79/104
f 164/667 619/666 98/644
f 66/75 69/67 63/87
f 87/65 83/43 80/66
f 86/50 620/51 631/42
f 23/182 57/180 22/136
f 70/34 195/24 83/43
f 62/228 154/197 155/211
f 76/196 634/169 661/185
f 618/283 648/351 617/353
f 616/322 618/283 617/353
f 617/353 642/390 616/322
f 603/486 615/451 730/517
f 176/300 174/346 650/320
f 105/229 102/260 614/281
f 607/533 190/621 162/595
f 132/471 165/474 173/532
f 684/345 613/409 612/379
f 90/183 75/209 12/166
f 159/242 49/259 19/280
f 596/343 605/298 609/347
f 19/280 611/279 159/242
f 145/241 159/242 611/279
f 151/412 624/380 641/382
f 600/506 627/473 119/438
f 168/485 642/390 156/449
f 610/408 609/347 624/380
f 99/620 100/594 608/534
f 597/316 605/298 596/343
f 606/566 600/506 607/533
f 607/533 600/506 119/438
f 605/298 597/316 587/258
f 605/298 644/277 145/241
f 181/622 182/579 157/547
f 604/389 603/486 700/487
f 604/389 615/451 603/486
f 615/451 169/516 722/549
f 161/448 602/410 601/440
f 161/448 613/409 602/410
f 601/440 600/506 158/535
f 170/548 182/579 169/516
f 723/580 180/608 732/632
f 599/386 598/350 650/320
f 598/350 599/386 160/387
f 595/376 597/316 596/343
f 610/408 167/441 165/474
f 140/348 641/382 139/318
f 646/536 682/592 173/532
f 98/644 638/723 164/667
f 702/710 594/688 733/722
f 74/226 102/260 105/229
f 105/229 634/169 74/226
f 646/536 165/474 166/507
f 99/620 137/593 135/643
f 119/438 595/376 133/407
f 132/471 133/407 610/408
f 133/407 595/376 596/343
f 133/407 596/343 610/408
f 610/408 596/343 609/347
f 589/137 633/151 78/116
f 133/407 121/472 119/438
f 162/595 606/566 607/533
f 181/622 606/566 162/595
f 626/439 600/506 601/440
f 135/643 621/665 99/620
f 162/595 191/645 619/666
f 181/622 163/646 180/608
f 637/689 164/667 714/712
f 707/698 637/689 735/725
f 607/533 120/505 608/534
f 105/229 614/281 636/282
f 191/645 190/621 100/594
f 105/229 640/212 634/169
f 635/377 595/376 626/439
f 595/376 635/377 597/316
f 645/378 626/439 601/440
f 604/389 172/352 616/322
f 645/378 632/344 635/377
f 611/279 605/298 145/241
f 89/150 146/167 94/126
f 634/169 92/199 625/172
f 622/119 623/138 718/153
f 109/103 94/126 95/127
f 181/622 162/595 163/646
f 93/230 104/261 618/283
f 625/172 623/138 633/151
f 164/667 162/595 619/666
f 175/299 586/317 684/345
f 175/299 103/278 587/258
f 612/379 613/409 599/386
f 788/759 652/685 797/738
f 754/18 584/11 755/28
f 197/39 194/21 740/47
f 592/61 185/40 186/48
f 150/110 148/81 582/99
f 193/78 591/72 592/61
f 148/81 192/88 668/80
f 747/71 197/39 756/77
f 32/73 110/32 677/63
f 110/32 630/15 651/23
f 185/40 673/31 187/22
f 592/61 186/48 653/60
f 550/123 123/113 124/100
f 591/72 665/62 592/61
f 582/99 666/89 581/108
f 720/36 593/27 737/46
f 148/81 677/63 591/72
f 666/89 148/81 591/72
f 664/41 665/62 671/49
f 203/3 199/10 584/11
f 672/8 202/1 667/4
f 78/116 633/151 623/138
f 78/116 590/128 589/137
f 587/258 74/226 588/225
f 588/225 644/277 587/258
f 647/569 680/618 646/536
f 634/169 625/172 633/151
f 586/317 175/299 587/258
f 587/258 632/344 586/317
f 608/534 100/594 607/533
f 614/281 650/320 636/282
f 618/283 104/261 636/282
f 598/350 674/321 636/282
f 778/626 20/509 795/623
f 585/7 203/3 584/11
f 179/152 589/137 590/128
f 593/27 96/26 694/45
f 43/164 41/207 113/194
f 101/134 659/146 72/163
f 381/373 4/339 34/294
f 50/195 60/208 629/223
f 181/622 157/547 606/566
f 546/121 583/120 752/142
f 547/175 549/188 326/159
f 490/273 380/274 492/239
f 292/308 341/250 479/290
f 287/315 285/341 532/295
f 527/489 421/455 486/422
f 458/637 446/589 455/641
f 546/121 582/99 581/108
f 579/178 538/204 491/205
f 561/504 463/436 354/531
f 802/675 577/655 803/697
f 382/403 478/469 115/404
f 342/291 498/309 314/334
f 273/267 258/286 272/305
f 385/483 563/482 578/544
f 457/112 316/144 508/161
f 538/204 579/178 539/192
f 508/161 579/178 129/145
f 457/112 508/161 129/145
f 427/575 386/543 398/601
f 278/640 307/615 568/588
f 480/460 524/525 518/495
f 481/459 422/423 484/519
f 377/564 494/526 343/466
f 428/707 455/641 470/706
f 368/603 575/631 429/577
f 557/470 580/406 117/437
f 541/503 405/434 521/502
f 339/248 475/249 346/217
f 466/219 42/193 491/205
f 59/539 7/573 8/540
f 388/515 578/544 563/482
f 336/293 383/338 143/313
f 449/748 569/747 443/757
f 570/653 419/693 431/696
f 552/560 571/585 564/586
f 577/655 416/605 575/631
f 571/585 524/525 511/554
f 322/405 503/369 522/468
f 7/573 46/513 576/541
f 575/631 368/603 570/653
f 556/430 497/367 410/464
f 407/371 320/337 408/402
f 42/193 138/179 129/145
f 368/603 429/577 385/483
f 368/603 385/483 370/576
f 565/462 396/497 518/495
f 256/393 517/326 271/356
f 542/587 562/590 458/637
f 512/160 316/144 474/131
f 390/565 354/531 494/526
f 45/480 46/513 574/542
f 572/571 555/572 389/477
f 553/220 424/253 189/221
f 574/542 573/514 45/480
f 331/310 544/272 342/291
f 26/415 118/445 387/481
f 545/292 537/336 496/311
f 343/466 313/463 453/431
f 561/504 557/470 478/469
f 373/599 371/574 572/571
f 381/373 115/404 4/339
f 490/273 496/311 353/255
f 26/415 387/481 388/515
f 375/538 560/511 554/570
f 494/526 355/529 493/467
f 455/641 440/683 470/706
f 286/370 537/336 503/369
f 322/405 286/370 503/369
f 147/383 374/476 389/477
f 558/442 560/511 374/476
f 555/572 7/573 59/539
f 491/205 42/193 579/178
f 466/219 492/239 352/252
f 370/576 578/544 427/575
f 426/617 376/591 348/638
f 387/481 573/514 574/542
f 390/565 554/570 561/504
f 354/531 390/565 561/504
f 399/600 377/564 426/617
f 346/217 509/191 533/190
f 538/204 384/238 491/205
f 489/251 544/272 545/292
f 389/477 375/538 572/571
f 348/638 412/627 427/575
f 371/574 574/542 46/513
f 551/744 361/718 569/747
f 482/398 488/397 481/459
f 38/546 417/545 800/604
f 497/367 397/428 565/462
f 440/683 469/717 470/706
f 440/683 455/641 439/663
f 454/728 363/713 569/747
f 570/653 431/696 577/655
f 314/334 498/309 497/367
f 534/216 559/236 533/190
f 444/269 506/214 515/268
f 369/628 362/673 472/652
f 385/483 429/577 417/545
f 530/727 551/744 569/747
f 571/585 461/636 564/586
f 564/586 461/636 460/614
f 570/653 472/652 419/693
f 527/489 566/609 531/581
f 569/747 361/718 442/736
f 446/589 562/590 473/528
f 440/683 471/733 469/717
f 383/338 336/293 407/371
f 520/681 311/616 448/661
f 229/756 269/734 295/704
f 444/269 394/288 513/247
f 471/733 467/771 443/757
f 449/748 443/757 467/771
f 569/747 449/748 454/728
f 447/563 568/588 307/615
f 361/718 468/735 442/736
f 309/461 350/364 483/427
f 403/359 528/329 526/363
f 567/826 395/827 518/828
f 396/497 567/561 518/495
f 396/497 395/496 567/561
f 267/795 367/778 237/787
f 294/633 566/609 288/558
f 248/799 237/787 266/806
f 295/704 520/681 519/715
f 565/462 525/498 497/367
f 433/432 332/400 493/467
f 300/793 413/784 267/795
f 530/727 452/694 280/695
f 564/586 411/499 552/560
f 411/499 525/498 552/560
f 401/306 514/271 528/329
f 531/581 294/633 378/657
f 234/805 300/793 267/795
f 443/757 469/717 471/733
f 527/489 288/558 566/609
f 441/716 296/755 471/733
f 433/432 522/468 503/369
f 511/554 531/581 571/585
f 278/640 568/588 459/639
f 51/446 563/482 385/483
f 411/499 460/614 568/588
f 431/696 420/726 808/746
f 26/415 563/482 51/446
f 370/576 385/483 578/544
f 542/587 458/637 348/638
f 543/562 462/527 410/464
f 562/590 543/562 473/528
f 535/203 506/214 549/188
f 406/435 404/372 359/433
f 322/405 406/435 359/433
f 497/367 556/430 357/399
f 477/289 475/249 339/248
f 283/684 458/637 455/641
f 493/467 355/529 433/432
f 560/511 557/470 561/504
f 346/217 539/192 509/191
f 410/464 473/528 543/562
f 287/315 353/255 496/311
f 533/190 559/236 400/237
f 509/191 539/192 508/161
f 492/239 466/219 491/205
f 129/145 138/179 128/147
f 478/469 117/437 115/404
f 382/403 407/371 463/436
f 561/504 554/570 560/511
f 463/436 541/503 356/530
f 356/530 354/531 463/436
f 331/310 342/291 495/335
f 545/292 496/311 490/273
f 453/431 357/399 343/466
f 488/397 482/398 291/332
f 557/470 560/511 558/442
f 410/464 358/465 556/430
f 482/398 350/364 291/332
f 462/527 358/465 410/464
f 399/600 373/599 375/538
f 372/602 398/601 386/543
f 46/513 7/573 371/574
f 371/574 7/573 555/572
f 117/437 5/374 115/404
f 375/538 554/570 399/600
f 399/600 554/570 390/565
f 125/90 391/122 457/112
f 527/489 487/458 502/552
f 525/498 411/499 497/367
f 466/219 553/220 42/193
f 524/525 552/560 518/495
f 280/695 284/719 551/744
f 356/530 523/501 433/432
f 188/240 189/221 424/253
f 546/121 329/158 548/143
f 392/111 548/143 474/131
f 392/111 546/121 548/143
f 535/203 328/233 505/234
f 258/286 315/285 259/324
f 547/175 540/187 535/203
f 476/331 485/396 488/397
f 516/454 256/393 255/488
f 549/188 547/175 535/203
f 506/214 504/246 515/268
f 457/112 550/123 124/100
f 506/214 536/215 549/188
f 327/189 549/188 536/215
f 548/143 326/159 474/131
f 547/175 326/159 548/143
f 548/143 329/158 547/175
f 150/110 546/121 392/111
f 545/292 544/272 331/310
f 544/272 384/238 341/250
f 526/363 437/362 486/422
f 371/574 555/572 572/571
f 542/587 462/527 543/562
f 462/527 542/587 376/591
f 462/527 377/564 343/466
f 487/458 436/426 464/395
f 513/247 534/216 507/235
f 314/334 495/335 342/291
f 319/213 540/187 330/202
f 534/216 533/190 327/189
f 541/503 521/502 523/501
f 265/816 263/820 810/821
f 427/575 578/544 388/515
f 353/255 532/295 351/276
f 517/326 318/358 394/288
f 264/817 425/798 276/815
f 9/416 51/446 385/483
f 329/158 540/187 547/175
f 529/553 527/489 531/581
f 538/204 539/192 345/218
f 341/250 334/333 498/309
f 281/651 347/672 290/692
f 331/310 503/369 537/336
f 517/326 515/268 242/304
f 270/456 277/394 516/454
f 515/268 504/246 273/267
f 273/267 242/304 515/268
f 394/288 514/271 513/247
f 512/160 474/131 326/159
f 510/518 511/554 423/490
f 317/177 509/191 508/161
f 457/112 124/100 125/90
f 507/235 506/214 444/269
f 579/178 508/161 539/192
f 582/99 546/121 150/110
f 319/213 330/202 761/232
f 505/234 258/286 273/267
f 324/330 437/362 393/307
f 535/203 505/234 506/214
f 505/234 504/246 506/214
f 394/288 325/361 324/330
f 327/189 536/215 507/235
f 315/285 505/234 764/266
f 504/246 505/234 273/267
f 515/268 517/326 394/288
f 535/203 540/187 319/213
f 242/304 273/267 241/325
f 514/271 401/306 340/287
f 317/177 337/176 533/190
f 339/248 400/237 534/216
f 514/271 340/287 534/216
f 327/189 533/190 512/160
f 513/247 507/235 445/270
f 533/190 337/176 512/160
f 532/295 321/312 335/275
f 487/458 501/494 500/524
f 333/368 314/334 312/429
f 312/429 493/467 332/400
f 531/581 461/636 571/585
f 452/694 530/727 363/713
f 510/518 529/553 511/554
f 514/271 393/307 528/329
f 482/398 483/427 350/364
f 324/330 239/424 304/425
f 510/518 527/489 529/553
f 393/307 526/363 528/329
f 450/699 451/658 223/660
f 338/705 275/703 279/662
f 365/613 223/660 451/658
f 565/462 518/495 525/498
f 499/523 465/457 289/493
f 527/489 510/518 421/455
f 464/395 324/330 304/425
f 511/554 524/525 484/519
f 501/494 465/457 499/523
f 304/425 254/492 217/521
f 565/462 397/428 396/497
f 300/793 303/802 301/790
f 295/704 519/715 231/731
f 401/306 477/289 340/287
f 406/435 408/402 404/372
f 338/705 450/699 210/714
f 522/468 433/432 523/501
f 448/661 279/662 275/703
f 296/755 441/716 269/734
f 406/435 522/468 521/502
f 234/805 303/802 300/793
f 297/770 269/734 227/780
f 812/812 265/816 813/818
f 299/782 301/790 409/783
f 295/704 441/716 438/682
f 486/422 421/455 403/359
f 403/359 526/363 486/422
f 231/731 275/703 224/752
f 520/681 275/703 519/715
f 552/560 525/498 518/495
f 483/427 518/495 395/496
f 484/519 422/423 423/490
f 411/499 564/586 460/614
f 495/335 314/334 333/368
f 313/463 494/526 493/467
f 288/558 310/611 294/633
f 489/251 492/239 491/205
f 384/238 489/251 491/205
f 545/292 490/273 489/251
f 285/341 404/372 321/312
f 568/588 447/563 411/499
f 422/423 481/459 488/397
f 486/422 436/426 487/458
f 422/423 402/360 403/359
f 422/423 485/396 402/360
f 291/332 476/331 488/397
f 479/290 476/331 291/332
f 210/714 223/660 222/700
f 422/423 488/397 485/396
f 484/519 524/525 480/460
f 531/581 511/554 529/553
f 460/614 459/639 568/588
f 480/460 483/427 482/398
f 482/398 481/459 480/460
f 284/719 349/702 282/701
f 349/702 284/719 290/692
f 301/790 435/792 409/783
f 223/660 365/613 221/635
f 503/369 331/310 432/401
f 365/613 305/583 250/559
f 288/558 502/552 500/524
f 324/330 464/395 437/362
f 487/458 464/395 501/494
f 288/558 500/524 499/523
f 497/367 498/309 308/366
f 537/336 286/370 496/311
f 397/428 497/367 308/366
f 282/701 360/679 458/637
f 475/249 479/290 341/250
f 321/312 532/295 285/341
f 281/651 412/627 347/672
f 527/489 486/422 487/458
f 476/331 479/290 477/289
f 479/290 475/249 477/289
f 561/504 478/469 463/436
f 307/615 311/616 447/563
f 476/331 477/289 402/360
f 475/249 341/250 345/218
f 316/144 457/112 474/131
f 457/112 391/122 474/131
f 495/335 333/368 331/310
f 447/563 473/528 411/499
f 216/556 254/492 252/557
f 518/495 483/427 480/460
f 420/726 418/745 805/764
f 484/519 480/460 481/459
f 368/603 472/652 570/653
f 467/771 471/733 415/768
f 278/640 459/639 306/680
f 379/677 306/680 459/639
f 442/736 468/735 470/706
f 469/717 442/736 470/706
f 428/707 470/706 468/735
f 449/748 467/771 414/776
f 414/776 467/771 415/768
f 580/406 116/375 117/437
f 580/406 557/470 558/442
f 466/219 424/253 553/220
f 304/425 465/457 464/395
f 405/434 541/503 463/436
f 26/415 388/515 563/482
f 142/340 383/338 381/373
f 383/338 142/340 143/313
f 293/659 306/680 379/677
f 462/527 344/500 358/465
f 118/445 573/514 387/481
f 461/636 378/657 460/614
f 460/614 378/657 459/639
f 414/776 415/768 367/778
f 464/395 465/457 501/494
f 352/252 188/240 424/253
f 421/455 423/490 422/423
f 422/423 403/359 421/455
f 418/745 420/726 419/693
f 250/559 305/583 289/493
f 801/630 416/605 807/654
f 296/755 415/768 471/733
f 322/405 522/468 406/435
f 413/784 414/776 367/778
f 576/541 6/512 7/573
f 576/541 46/513 44/444
f 427/575 412/627 370/576
f 411/499 410/464 497/367
f 323/763 299/782 409/783
f 408/402 405/434 407/371
f 408/402 406/435 405/434
f 320/337 404/372 408/402
f 406/435 521/502 405/434
f 401/306 403/359 402/360
f 477/289 401/306 402/360
f 400/237 346/217 533/190
f 478/469 557/470 117/437
f 399/600 398/601 373/599
f 397/428 309/461 396/497
f 309/461 395/496 396/497
f 271/356 242/304 251/392
f 393/307 514/271 394/288
f 125/90 392/111 391/122
f 390/565 494/526 377/564
f 147/383 558/442 374/476
f 389/477 555/572 59/539
f 492/239 380/274 352/252
f 402/360 485/396 476/331
f 389/477 59/539 58/478
f 388/515 387/481 386/543
f 387/481 371/574 386/543
f 11/484 9/416 385/483
f 489/251 384/238 544/272
f 384/238 538/204 345/218
f 381/373 383/338 382/403
f 380/274 490/273 353/255
f 294/633 379/677 378/657
f 377/564 376/591 426/617
f 42/193 553/220 41/207
f 560/511 375/538 374/476
f 375/538 389/477 374/476
f 352/252 424/253 466/219
f 398/601 372/602 373/599
f 371/574 373/599 372/602
f 371/574 387/481 574/542
f 399/600 390/565 377/564
f 532/295 353/255 287/315
f 368/603 370/576 369/628
f 550/123 457/112 127/132
f 457/112 129/145 127/132
f 388/515 386/543 427/575
f 391/122 392/111 474/131
f 456/365 350/364 308/366
f 292/308 456/365 334/333
f 577/655 575/631 570/653
f 11/484 385/483 417/545
f 368/603 369/628 472/652
f 301/790 303/802 364/804
f 530/727 569/747 363/713
f 419/693 420/726 431/696
f 364/804 435/792 301/790
f 414/776 413/784 298/766
f 449/748 414/776 298/766
f 362/673 419/693 472/652
f 370/576 412/627 281/651
f 221/635 250/559 249/634
f 545/292 331/310 537/336
f 806/775 434/774 817/791
f 311/616 439/663 455/641
f 454/728 419/693 363/713
f 357/399 453/431 314/334
f 320/337 407/371 336/293
f 323/763 418/745 419/693
f 452/694 362/673 369/628
f 369/628 430/674 452/694
f 293/659 310/611 451/658
f 450/699 306/680 293/659
f 275/703 520/681 448/661
f 450/699 338/705 306/680
f 233/810 267/795 247/807
f 455/641 446/589 311/616
f 298/766 419/693 449/748
f 419/693 454/728 449/748
f 418/745 323/763 434/774
f 318/358 325/361 394/288
f 311/616 307/615 448/661
f 447/563 446/589 473/528
f 367/778 415/768 296/755
f 803/697 431/696 818/729
f 513/247 445/270 444/269
f 469/717 443/757 442/736
f 569/747 442/736 443/757
f 446/589 447/563 311/616
f 441/716 440/683 438/682
f 440/683 439/663 438/682
f 439/663 311/616 438/682
f 428/707 468/735 361/718
f 437/362 436/426 486/422
f 309/461 483/427 395/496
f 435/792 364/804 425/798
f 409/783 434/774 323/763
f 294/633 531/581 566/609
f 434/774 425/798 814/803
f 452/694 430/674 280/695
f 434/774 409/783 435/792
f 527/489 502/552 288/558
f 425/798 262/808 260/811
f 432/401 332/400 433/432
f 503/369 432/401 433/432
f 458/637 562/590 446/589
f 369/628 370/576 281/651
f 281/651 430/674 369/628
f 416/605 429/577 575/631
f 283/684 428/707 361/718
f 455/641 428/707 283/684
f 38/546 11/484 417/545
f 531/581 378/657 461/636
f 411/499 473/528 410/464
f 426/617 348/638 427/575
f 427/575 398/601 426/617
f 362/673 452/694 363/713
f 417/545 429/577 416/605
f 284/719 361/718 551/744
f 497/367 357/399 314/334
f 458/637 360/679 348/638
f 543/562 562/590 542/587
f 541/503 523/501 356/530
f 359/433 404/372 285/341
f 357/399 556/430 358/465
f 344/500 357/399 358/465
f 356/530 355/529 354/531
f 354/531 355/529 494/526
f 407/371 405/434 463/436
f 352/252 380/274 353/255
f 188/240 352/252 353/255
f 351/276 532/295 335/275
f 350/364 456/365 292/308
f 341/250 292/308 334/333
f 349/702 290/692 348/638
f 348/638 347/672 412/627
f 346/217 345/218 539/192
f 343/466 494/526 313/463
f 344/500 343/466 357/399
f 344/500 462/527 343/466
f 341/250 498/309 342/291
f 345/218 341/250 384/238
f 346/217 475/249 345/218
f 386/543 371/574 372/602
f 463/436 478/469 382/403
f 340/287 339/248 534/216
f 274/732 338/705 302/750
f 512/160 337/176 316/144
f 462/527 376/591 377/564
f 376/591 542/587 348/638
f 572/571 375/538 373/599
f 426/617 398/601 399/600
f 58/478 114/443 389/477
f 382/403 115/404 381/373
f 407/371 382/403 383/338
f 335/275 321/312 336/293
f 308/366 498/309 334/333
f 355/529 356/530 433/432
f 331/310 333/368 332/400
f 760/201 329/158 766/186
f 546/121 581/108 583/120
f 329/158 546/121 762/174
f 767/245 319/213 768/264
f 327/189 326/159 549/188
f 329/158 330/202 540/187
f 342/291 544/272 341/250
f 324/330 325/361 277/394
f 534/216 513/247 514/271
f 440/683 441/716 471/733
f 298/766 323/763 419/693
f 326/159 327/189 512/160
f 394/288 324/330 393/307
f 367/778 297/770 237/787
f 217/521 250/559 289/493
f 351/276 366/222 353/255
f 451/658 310/611 365/613
f 451/658 450/699 293/659
f 425/798 364/804 262/808
f 764/266 328/233 769/265
f 360/679 349/702 348/638
f 285/341 322/405 359/433
f 336/293 321/312 320/337
f 321/312 404/372 320/337
f 394/288 444/269 515/268
f 325/361 318/358 277/394
f 517/326 256/393 318/358
f 393/307 437/362 526/363
f 346/217 400/237 339/248
f 510/518 423/490 421/455
f 334/333 456/365 308/366
f 316/144 337/176 317/177
f 328/233 535/203 319/213
f 579/178 42/193 129/145
f 317/177 508/161 316/144
f 507/235 534/216 327/189
f 258/286 505/234 315/285
f 506/214 507/235 536/215
f 509/191 317/177 533/190
f 400/237 559/236 534/216
f 444/269 445/270 507/235
f 366/222 351/276 335/275
f 336/293 35/254 335/275
f 502/552 487/458 500/524
f 499/523 500/524 501/494
f 332/400 333/368 312/429
f 312/429 314/334 313/463
f 295/704 311/616 520/681
f 310/611 305/583 365/613
f 363/713 419/693 362/673
f 311/616 295/704 438/682
f 308/366 350/364 309/461
f 528/329 403/359 401/306
f 477/289 339/248 340/287
f 304/425 239/424 254/492
f 448/661 307/615 279/662
f 450/699 223/660 210/714
f 306/680 338/705 279/662
f 379/677 459/639 378/657
f 250/559 217/521 218/584
f 253/522 239/424 211/555
f 310/611 288/558 305/583
f 304/425 217/521 289/493
f 236/794 297/770 226/786
f 234/805 262/808 303/802
f 261/814 234/805 232/813
f 302/750 210/714 209/767
f 268/769 229/756 230/779
f 523/501 521/502 522/468
f 262/808 364/804 303/802
f 300/793 301/790 298/766
f 301/790 299/782 298/766
f 298/766 413/784 300/793
f 298/766 299/782 323/763
f 413/784 367/778 267/795
f 297/770 296/755 269/734
f 296/755 297/770 367/778
f 229/756 295/704 206/753
f 269/734 441/716 295/704
f 308/366 309/461 397/428
f 511/554 484/519 423/490
f 314/334 453/431 313/463
f 493/467 312/429 313/463
f 293/659 379/677 294/633
f 310/611 293/659 294/633
f 490/273 492/239 489/251
f 464/395 436/426 437/362
f 291/332 350/364 292/308
f 479/290 291/332 292/308
f 571/585 552/560 524/525
f 290/692 347/672 348/638
f 280/695 290/692 284/719
f 332/400 432/401 331/310
f 465/457 304/425 289/493
f 288/558 499/523 289/493
f 288/558 289/493 305/583
f 285/341 287/315 286/370
f 287/315 496/311 286/370
f 286/370 322/405 285/341
f 361/718 284/719 283/684
f 458/637 283/684 282/701
f 349/702 360/679 282/701
f 425/798 434/774 435/792
f 282/701 283/684 284/719
f 280/695 430/674 281/651
f 280/695 551/744 530/727
f 278/640 306/680 279/662
f 280/695 281/651 290/692
f 239/424 324/330 277/394
f 277/394 318/358 256/393
f 307/615 278/640 279/662
f 272/305 258/286 257/328
f 245/327 273/267 272/305
f 271/356 517/326 242/304
f 214/421 256/393 271/356
f 238/491 239/424 270/456
f 270/456 239/424 277/394
f 268/769 269/734 229/756
f 227/780 269/734 268/769
f 248/799 267/795 237/787
f 266/806 237/787 235/800
f 263/820 265/816 264/817
f 264/817 265/816 425/798
f 260/811 262/808 261/814
f 261/814 262/808 234/805
f 259/324 315/285 771/323
f 244/354 258/286 259/324
f 257/328 258/286 243/357
f 516/454 277/394 256/393
f 255/488 256/393 213/453
f 276/815 425/798 260/811
f 225/754 275/703 274/732
f 274/732 275/703 338/705
f 241/325 273/267 245/327
f 243/357 258/286 244/354
f 240/355 242/304 241/325
f 212/520 239/424 238/491
f 235/800 237/787 236/794
f 236/794 237/787 297/770
f 233/810 234/805 267/795
f 232/813 234/805 233/810
f 231/731 519/715 275/703
f 206/753 295/704 231/731
f 230/779 229/756 228/785
f 228/785 229/756 205/777
f 226/786 297/770 227/780
f 224/752 275/703 225/754
f 222/700 223/660 220/678
f 208/730 210/714 222/700
f 221/635 365/613 250/559
f 220/678 223/660 221/635
f 219/610 217/521 215/582
f 218/584 217/521 219/610
f 215/582 217/521 216/556
f 216/556 217/521 254/492
f 252/557 254/492 253/522
f 253/522 254/492 239/424
f 251/392 242/304 240/355
f 249/634 250/559 246/612
f 247/807 267/795 248/799
f 246/612 250/559 218/584
f 302/750 338/705 210/714
f 213/453 256/393 214/421
f 211/555 239/424 212/520
f 209/767 210/714 207/751
f 207/751 210/714 208/730
f 205/777 229/756 206/753
f 685/450 172/352 686/419
f 686/419 172/352 604/389
f 687/724 183/711 39/739
f 688/761 39/739 691/773
f 689/302 171/301 172/352
f 690/388 172/352 721/418
f 691/773 39/739 649/772
f 692/55 97/35 716/69
f 693/44 97/35 692/55
f 694/45 96/26 695/54
f 695/54 96/26 693/44
f 696/243 92/199 93/230
f 697/262 93/230 709/284
f 698/76 66/75 728/96
f 699/68 67/53 698/76
f 700/487 603/486 701/550
f 701/550 603/486 731/551
f 702/710 98/644 594/688
f 703/741 638/723 702/710
f 704/742 594/688 687/724
f 705/676 180/608 163/646
f 706/656 180/608 705/676
f 707/698 163/646 637/689
f 708/760 638/723 703/741
f 709/284 93/230 689/302
f 710/740 594/688 704/742
f 711/105 77/95 622/119
f 712/118 66/75 711/105
f 713/789 649/772 820/796
f 714/712 164/667 638/723
f 715/743 638/723 734/762
f 716/69 97/35 699/68
f 717/171 625/172 726/200
f 718/153 623/138 717/171
f 719/129 622/119 724/140
f 720/36 584/11 593/27
f 721/418 172/352 685/450
f 722/549 169/516 723/580
f 723/580 169/516 180/608
f 724/140 622/119 727/156
f 725/452 604/389 700/487
f 726/200 625/172 92/199
f 727/156 622/119 718/153
f 728/96 66/75 736/107
f 729/231 92/199 696/243
f 730/517 615/451 722/549
f 731/551 603/486 730/517
f 732/632 180/608 706/656
f 733/722 594/688 710/740
f 734/762 638/723 708/760
f 735/725 637/689 714/712
f 736/107 66/75 712/118
f 737/46 593/27 738/57
f 738/57 593/27 739/56
f 739/56 593/27 694/45
f 740/47 194/21 741/38
f 741/38 194/21 746/30
f 742/79 193/78 653/60
f 743/97 193/78 742/79
f 744/12 667/4 585/7
f 745/19 585/7 754/18
f 746/30 194/21 672/8
f 747/71 653/60 197/39
f 748/109 193/78 743/97
f 749/13 667/4 744/12
f 750/20 672/8 749/13
f 751/29 672/8 750/20
f 752/142 583/120 753/130
f 753/130 583/120 748/109
f 754/18 585/7 584/11
f 755/28 584/11 774/37
f 756/77 197/39 757/70
f 757/70 197/39 758/59
f 758/59 197/39 740/47
f 759/157 546/121 752/142
f 760/201 330/202 329/158
f 761/232 330/202 760/201
f 762/174 546/121 759/157
f 763/244 319/213 761/232
f 764/266 505/234 328/233
f 765/303 315/285 764/266
f 766/186 329/158 762/174
f 767/245 328/233 319/213
f 768/264 319/213 770/263
f 769/265 328/233 767/245
f 770/263 319/213 763/244
f 771/323 315/285 765/303
f 772/420 259/324 773/391
f 773/391 259/324 771/323
f 774/37 584/11 720/36
f 776/625 201/568 184/598
f 777/650 184/598 778/626
f 778/626 184/598 20/509
f 779/648 16/597 780/670
f 780/822 16/825 15/823
f 781/567 15/508 16/597
f 782/624 16/597 779/648
f 783/669 647/569 791/671
f 784/691 681/647 783/669
f 785/578 38/546 786/607
f 786/607 38/546 804/629
f 787/781 649/772 656/758
f 788/759 656/758 652/685
f 789/668 681/647 784/691
f 790/649 647/569 776/625
f 791/671 647/569 790/649
f 792/708 680/618 794/690
f 793/721 652/685 792/708
f 794/690 680/618 789/668
f 795/623 20/509 796/596
f 796/596 20/509 781/567
f 797/738 652/685 793/721
f 798/788 649/772 787/781
f 799/606 15/508 785/578
f 800/604 417/545 801/630
f 801/630 417/545 416/605
f 802/675 416/605 577/655
f 803/697 577/655 431/696
f 804/629 38/546 800/604
f 805/764 418/745 806/775
f 806/775 418/745 434/774
f 807/654 416/605 802/675
f 808/746 420/726 805/764
f 809/765 431/696 808/746
f 811/819 265/816 810/821
f 812/812 425/798 265/816
f 813/818 265/816 811/819
f 814/803 425/798 815/809
f 815/809 425/798 812/812
f 816/797 434/774 814/803
f 817/791 434/774 816/797
f 818/729 431/696 819/749
f 819/749 431/696 809/765
f 820/796 649/772 798/788
f 821/801 713/789 820/796
usemtl Tile_+032_+024_L21_00013100_untextured
