mtllib Tile_+032_+024_L20_0003120.mtl
v 6.45365171e+03 5.93467181e+03 2.21812271e-01
v 6.45269023e+03 5.93380465e+03 2.39705934e-01
v 6.43812966e+03 5.91071471e+03 1.76621904e+00
v 6.43898017e+03 5.91061526e+03 1.72222986e+00
v 6.43745545e+03 5.91769926e+03 2.07973288e+00
v 6.43795335e+03 5.91938480e+03 2.12855268e+00
v 6.45124903e+03 5.92919234e+03 1.25555532e-01
v 6.45294253e+03 5.92746695e+03 -1.11258333e-01
v 6.45621155e+03 5.92054317e+03 -1.30991816e-02
v 6.45741548e+03 5.92023727e+03 1.47361265e-02
v 6.44068102e+03 5.92196815e+03 1.68498691e+00
v 6.44187006e+03 5.92162501e+03 1.62826233e+00
v 6.43775101e+03 5.90734349e+03 1.62122010e+00
v 6.43775362e+03 5.90878073e+03 1.26371247e+00
v 6.44295669e+03 5.91088827e+03 1.61872782e-01
v 6.44464007e+03 5.91121653e+03 -1.61401023e-01
v 6.44743789e+03 5.91864133e+03 -3.85000773e-01
v 6.44308828e+03 5.91619964e+03 6.03561118e-02
v 6.44366835e+03 5.91941017e+03 7.61676290e-02
v 6.45106061e+03 5.92636586e+03 2.15765205e-01
v 6.45552978e+03 5.92428176e+03 -1.64418687e-01
v 6.45886528e+03 5.92526418e+03 -2.42057482e-02
v 6.43994714e+03 5.92720345e+03 4.38507586e-01
v 6.44067396e+03 5.92697972e+03 4.64120228e-01
v 6.44184666e+03 5.93018031e+03 1.58158947e+00
v 6.44215008e+03 5.92951391e+03 1.93341818e+00
v 6.44118294e+03 5.92477648e+03 1.21658729e+00
v 6.44111321e+03 5.92312979e+03 1.75088790e+00
v 6.43931273e+03 5.93002173e+03 2.04965608e+00
v 6.43958798e+03 5.92908805e+03 1.91167758e+00
v 6.43917267e+03 5.92909071e+03 1.60952133e+00
v 6.44456190e+03 5.92638366e+03 5.24473641e-01
v 6.44518045e+03 5.92768603e+03 7.29235188e-01
v 6.44249519e+03 5.90973043e+03 3.01777711e-02
v 6.44337260e+03 5.90880287e+03 1.78055094e-01
v 6.44251485e+03 5.90878164e+03 4.11926632e-01
v 6.44275368e+03 5.91232098e+03 1.17896278e-01
v 6.44170642e+03 5.91393210e+03 4.07184422e-01
v 6.44323520e+03 5.91432515e+03 -5.19121409e-02
v 6.44191454e+03 5.92875341e+03 2.10960808e+00
v 6.45373076e+03 5.91334649e+03 9.72582328e-01
v 6.45212176e+03 5.91304503e+03 8.98577412e-01
v 6.44206466e+03 5.91092542e+03 6.04254204e-01
v 6.45207208e+03 5.91502057e+03 7.34200049e-02
v 6.45345492e+03 5.91426182e+03 8.28948531e-01
v 6.45156894e+03 5.92381837e+03 -1.22425038e-01
v 6.45696485e+03 5.93712958e+03 1.98257158e-01
v 6.43893780e+03 5.91989350e+03 1.67513357e+00
v 6.43893645e+03 5.92090833e+03 2.13842000e+00
v 6.43940605e+03 5.92047516e+03 1.73576820e+00
v 6.43909287e+03 5.91882465e+03 1.72018267e+00
v 6.43799169e+03 5.92545653e+03 1.54538216e+00
v 6.43883517e+03 5.92982654e+03 1.71227686e+00
v 6.43878909e+03 5.92901784e+03 7.92056751e-01
v 6.43778377e+03 5.92245104e+03 2.12481425e+00
v 6.43997767e+03 5.92831123e+03 9.93127112e-01
v 6.44056012e+03 5.92756310e+03 3.64871562e-01
v 6.44512883e+03 5.93184913e+03 1.94516211e+00
v 6.44594752e+03 5.93260761e+03 2.04313808e+00
v 6.44661879e+03 5.93428717e+03 1.71059182e+00
v 6.44704673e+03 5.93207944e+03 1.84223977e+00
v 6.44264094e+03 5.93628074e+03 2.53054599e+00
v 6.44229035e+03 5.93445255e+03 2.61188227e+00
v 6.44162914e+03 5.92693077e+03 8.86861581e-01
v 6.44307789e+03 5.92732130e+03 7.86747367e-01
v 6.43928336e+03 5.92830889e+03 9.46963607e-01
v 6.44500372e+03 5.92239655e+03 1.13588023e-01
v 6.44393042e+03 5.92365931e+03 5.17298329e-01
v 6.45027964e+03 5.91680294e+03 -2.50861746e-01
v 6.45350224e+03 5.91680915e+03 1.94447120e-01
v 6.44560319e+03 5.91429513e+03 -1.82802671e-01
v 6.44505322e+03 5.90815229e+03 8.34175827e-01
v 6.44434632e+03 5.90891266e+03 2.12217951e-01
v 6.44747459e+03 5.91164869e+03 5.72757450e-02
v 6.44793352e+03 5.91025081e+03 8.10669580e-01
v 6.44639087e+03 5.91103624e+03 8.60583281e-02
v 6.45475001e+03 5.91252465e+03 1.72946849e+00
v 6.45483602e+03 5.91397803e+03 1.59226423e+00
v 6.45610800e+03 5.91428111e+03 1.61200498e+00
v 6.44635139e+03 5.90931925e+03 1.11755806e+00
v 6.45583684e+03 5.91920713e+03 1.27282146e-01
v 6.45433406e+03 5.91790455e+03 2.42470198e-02
v 6.45316492e+03 5.90997931e+03 1.23183754e+00
v 6.45158123e+03 5.90917269e+03 1.06973373e+00
v 6.45430189e+03 5.91554667e+03 1.22946311e+00
v 6.45517431e+03 5.91543834e+03 1.40946355e+00
v 6.45046412e+03 5.91397670e+03 2.44350106e-01
v 6.44361769e+03 5.90622568e+03 2.11230957e-01
v 6.44382578e+03 5.90786277e+03 3.66008403e-01
v 6.45201912e+03 5.91046413e+03 9.28716700e-01
v 6.45317103e+03 5.91078826e+03 1.33122474e+00
v 6.44244757e+03 5.90688319e+03 4.77524662e-01
v 6.43986367e+03 5.91967248e+03 1.83468985e+00
v 6.44299059e+03 5.90769165e+03 2.87272470e-01
v 6.43856235e+03 5.91365342e+03 1.68070824e+00
v 6.43802727e+03 5.91251136e+03 1.97419075e+00
v 6.44374982e+03 5.91039655e+03 5.13830845e-02
v 6.44496301e+03 5.92491673e+03 3.35074252e-01
v 6.44713352e+03 5.92441625e+03 -1.27153587e-01
v 6.44718430e+03 5.92607762e+03 -1.86336933e-01
v 6.44868090e+03 5.92500546e+03 5.10775097e-02
v 6.44471393e+03 5.92056316e+03 -9.11712375e-02
v 6.44559320e+03 5.92680122e+03 1.21718572e-01
v 6.44471978e+03 5.92440233e+03 2.16030263e-01
v 6.45075641e+03 5.93033336e+03 3.42999170e-01
v 6.45172710e+03 5.93194022e+03 1.24629888e-01
v 6.44873159e+03 5.93125720e+03 1.51206631e+00
v 6.44902057e+03 5.93267861e+03 1.62814767e+00
v 6.44355719e+03 5.92194256e+03 1.71699330e-01
v 6.44628214e+03 5.92235460e+03 -2.63879879e-01
v 6.45616922e+03 5.92240605e+03 4.76138521e-02
v 6.44912382e+03 5.92636156e+03 2.58750142e-01
v 6.45604864e+03 5.91778285e+03 5.56392549e-01
v 6.44830970e+03 5.91271003e+03 1.64678883e-01
v 6.44394648e+03 5.92549857e+03 1.46009772e+00
v 6.44414896e+03 5.92635391e+03 7.99113280e-01
v 6.44520002e+03 5.92566803e+03 1.43444804e-01
v 6.44828507e+03 5.92696935e+03 1.92456819e-01
v 6.44827654e+03 5.92820235e+03 1.08264674e+00
v 6.44784551e+03 5.92924566e+03 1.62338668e+00
v 6.44323961e+03 5.93092879e+03 2.16891646e+00
v 6.44399481e+03 5.92970905e+03 1.88860712e+00
v 6.44741687e+03 5.93312440e+03 1.55101392e+00
v 6.44026901e+03 5.92981576e+03 2.24865390e+00
v 6.44181879e+03 5.92063930e+03 1.27082633e+00
v 6.44148849e+03 5.91914539e+03 1.48798767e+00
v 6.45106199e+03 5.92843926e+03 1.52375891e-01
v 6.45010174e+03 5.92740548e+03 8.07656573e-01
v 6.45809061e+03 5.91970083e+03 2.29165235e-01
v 6.45744545e+03 5.92124839e+03 4.99568306e-01
v 6.45699868e+03 5.91845024e+03 7.20764316e-01
v 6.45846496e+03 5.91803980e+03 1.36907550e+00
v 6.45278821e+03 5.90912142e+03 1.16230916e+00
v 6.45808022e+03 5.92182144e+03 4.76411999e-01
v 6.45892242e+03 5.92123877e+03 9.84979751e-01
v 6.45036490e+03 5.92887205e+03 1.22798963e+00
v 6.45791031e+03 5.92293179e+03 4.69223000e-01
v 6.45313744e+03 5.93308921e+03 6.95954236e-03
v 6.45202163e+03 5.93318553e+03 1.73941503e-01
v 6.45786949e+03 5.93513305e+03 -9.94735403e-02
v 6.45405244e+03 5.93592455e+03 1.12268667e+00
v 6.45475844e+03 5.93696798e+03 1.37152136e+00
v 6.44916057e+03 5.93614922e+03 1.57015047e+00
v 6.45094661e+03 5.93596250e+03 1.27226378e+00
v 6.45503065e+03 5.93466078e+03 -3.31017755e-02
v 6.45566476e+03 5.93582714e+03 2.53155860e-01
v 6.44329796e+03 5.93432940e+03 2.43403279e+00
v 6.44462405e+03 5.93280564e+03 1.75511265e+00
v 6.45192096e+03 5.93759839e+03 1.08136152e+00
v 6.45162242e+03 5.93463547e+03 1.24436791e+00
v 6.45055238e+03 5.93464703e+03 8.79555914e-01
v 6.45819634e+03 5.92092172e+03 2.79588048e-01
v 6.44793601e+03 5.93141644e+03 1.50200363e+00
v 6.45117893e+03 5.93263450e+03 5.62848035e-01
v 6.44576636e+03 5.93347351e+03 2.15032698e+00
v 6.45019929e+03 5.93098539e+03 6.78157035e-01
v 6.44479735e+03 5.93396665e+03 1.92274493e+00
v 6.44802191e+03 5.93545059e+03 2.02246636e+00
v 6.43836532e+03 5.92594158e+03 1.25822518e+00
v 6.44250252e+03 5.92181277e+03 8.36607372e-01
v 6.43966384e+03 5.93328798e+03 2.53750443e+00
v 6.43921951e+03 5.93251576e+03 2.68751111e+00
v 6.44954591e+03 5.93071014e+03 1.22441124e+00
v 6.44243955e+03 5.91867833e+03 3.55876584e-01
v 6.44411541e+03 5.92459384e+03 1.18254862e+00
v 6.44538388e+03 5.90948039e+03 3.51513712e-01
v 6.45751649e+03 5.91500677e+03 1.76319553e+00
v 6.44237064e+03 5.92838647e+03 1.88002639e+00
v 6.44192980e+03 5.92751253e+03 1.09573571e+00
v 6.44266727e+03 5.92053487e+03 2.29711670e-01
v 6.45780894e+03 5.90855817e+03 1.46183319e+00
v 6.45881050e+03 5.90661336e+03 1.30895084e+00
v 6.44262950e+03 5.91979007e+03 2.40206367e-02
v 6.45500990e+03 5.90996944e+03 1.53522722e+00
v 6.45460873e+03 5.90870959e+03 1.72090354e+00
v 6.44946578e+03 5.93377530e+03 1.49478960e+00
v 6.43814414e+03 5.92832572e+03 4.37213090e-01
v 6.45544663e+03 5.91654012e+03 7.35334100e-01
v 6.44210044e+03 5.91680316e+03 3.40156042e-01
v 6.44139525e+03 5.91503097e+03 2.83854710e-01
v 6.44194477e+03 5.91593473e+03 4.22940785e-01
v 6.44318293e+03 5.92269567e+03 1.02469402e+00
v 6.44182154e+03 5.92419025e+03 1.10748677e+00
v 6.44332018e+03 5.92382950e+03 1.28403366e+00
v 6.44094340e+03 5.92537111e+03 7.30172285e-01
v 6.44133115e+03 5.92579139e+03 4.45507853e-01
v 6.44181573e+03 5.92504015e+03 9.90311875e-01
v 6.44041014e+03 5.92665966e+03 6.26637056e-01
v 6.44904471e+03 5.92765952e+03 1.10155892e+00
v 6.44072836e+03 5.92595708e+03 6.44770874e-01
v 6.44258454e+03 5.92618846e+03 9.75117422e-01
v 6.44001564e+03 5.92643452e+03 1.45551285e+00
v 6.43915704e+03 5.92778859e+03 8.35773406e-01
v 6.44671657e+03 5.92908837e+03 1.47698047e+00
v 6.44734673e+03 5.92822725e+03 9.11620123e-01
v 6.44125616e+03 5.92807914e+03 1.11028443e+00
v 6.44076391e+03 5.92914759e+03 1.55080123e+00
v 6.45164715e+03 5.93375955e+03 1.02844621e+00
v 6.45120488e+03 5.93328224e+03 6.37562479e-01
v 6.43958975e+03 5.93120257e+03 2.35005892e+00
v 6.45259181e+03 5.93506091e+03 1.13761454e+00
v 6.43841875e+03 5.93240059e+03 2.05109028e+00
v 6.43877336e+03 5.93325572e+03 2.24637014e+00
v 6.45589635e+03 5.93719067e+03 3.66664956e-01
v 6.44915678e+03 5.92951938e+03 1.21844405e+00
v 6.45549499e+03 5.93737920e+03 1.08419003e+00
v 6.45222853e+03 5.93405057e+03 9.37035369e-01
v 6.44524522e+03 5.92914636e+03 1.49823693e+00
v 6.45048662e+03 5.93363642e+03 6.69896838e-01
v 6.44607204e+03 5.93013660e+03 1.75253463e+00
v 6.44636204e+03 5.93121002e+03 1.76076623e+00
v 6.45525830e+03 5.93594143e+03 5.07743210e-01
v 6.44796199e+03 5.93426713e+03 1.61664074e+00
v 6.43901048e+03 5.92679790e+03 1.23430484e+00
v 6.44832295e+03 5.93038091e+03 1.40366389e+00
v 6.44993381e+03 5.93426252e+03 1.12317173e+00
v 6.44892709e+03 5.93484179e+03 1.52619939e+00
v 6.45302943e+03 5.93570588e+03 1.33757755e+00
v 6.45507080e+03 5.93638035e+03 1.15892023e+00
v 6.44302953e+03 5.92509472e+03 1.31385963e+00
v 6.44101699e+03 5.91695015e+03 1.39767623e+00
v 6.44064128e+03 5.91515439e+03 1.10433981e+00
v 6.43965601e+03 5.91398419e+03 1.47857021e+00
v 6.44728150e+03 5.92749607e+03 5.95155374e-01
v 6.45757650e+03 5.91388616e+03 1.42581242e+00
v 6.45736838e+03 5.91275692e+03 1.60983927e+00
v 6.44109683e+03 5.91777937e+03 1.31414031e+00
v 6.44018797e+03 5.92490303e+03 1.98239096e+00
v 6.43948674e+03 5.92500215e+03 1.94897921e+00
v 6.44012801e+03 5.92535131e+03 1.65315722e+00
v 6.44020343e+03 5.92103645e+03 1.50543770e+00
v 6.43947197e+03 5.91847631e+03 1.56520717e+00
v 6.44040393e+03 5.91789293e+03 1.64314934e+00
v 6.43999132e+03 5.91544418e+03 1.29033659e+00
v 6.44262554e+03 5.92310486e+03 1.25632903e+00
v 6.45882955e+03 5.91312957e+03 1.04986173e+00
v 6.45681776e+03 5.91726177e+03 1.31723180e+00
v 6.45627179e+03 5.91612125e+03 1.27062931e+00
v 6.45755203e+03 5.91578009e+03 1.54653106e+00
v 6.45937984e+03 5.91619946e+03 1.30853588e+00
v 6.45917164e+03 5.91725284e+03 1.31505657e+00
v 6.43908391e+03 5.91754091e+03 1.87737601e+00
v 6.44203963e+03 5.92218429e+03 1.54807659e+00
v 6.44728167e+03 5.93037869e+03 1.36642093e+00
v 6.44129331e+03 5.92974149e+03 1.64492679e+00
v 6.44130070e+03 5.92921198e+03 1.59499859e+00
v 6.44313704e+03 5.93309422e+03 1.90999451e+00
v 6.44989288e+03 5.91264059e+03 8.16447530e-01
v 6.45239741e+03 5.91122906e+03 1.09313025e+00
v 6.45280297e+03 5.91235182e+03 9.78831890e-01
v 6.44979101e+03 5.91079678e+03 1.32563596e+00
v 6.44973811e+03 5.90861686e+03 1.43267839e+00
v 6.45561403e+03 5.90880994e+03 1.41966117e+00
v 6.45662874e+03 5.90968770e+03 1.12014127e+00
v 6.45475278e+03 5.90691970e+03 1.51198083e+00
v 6.45301200e+03 5.90750213e+03 1.41633019e+00
v 6.45416200e+03 5.90792953e+03 1.38164626e+00
v 6.45405792e+03 5.90676860e+03 1.30165475e+00
v 6.45352830e+03 5.90865873e+03 1.39964576e+00
v 6.44181589e+03 5.91264776e+03 3.54571344e-01
v 6.44013410e+03 5.91266563e+03 1.75368915e+00
v 6.44067179e+03 5.91184343e+03 1.08987334e+00
v 6.44719191e+03 5.90816847e+03 1.16736924e+00
v 6.44058423e+03 5.91092700e+03 1.06617457e+00
v 6.44168549e+03 5.91022918e+03 1.05447793e+00
v 6.44150517e+03 5.90947591e+03 1.00591916e+00
v 6.44906567e+03 5.90655930e+03 1.25892350e+00
v 6.43961284e+03 5.91183135e+03 1.65671384e+00
v 6.43869363e+03 5.90662789e+03 1.43448311e+00
v 6.44049057e+03 5.90648234e+03 1.65413234e+00
v 6.45522295e+03 5.90790868e+03 1.18040355e+00
v 6.45589361e+03 5.91133821e+03 1.58459220e+00
v 6.44675562e+03 5.93152190e+03 1.90542408e+00
v 6.45673356e+03 5.90757924e+03 1.39712205e+00
v 6.45650571e+03 5.90845743e+03 1.33139767e+00
v 6.45600023e+03 5.91010286e+03 1.05778749e+00
v 6.45835592e+03 5.90960080e+03 1.05689068e+00
v 6.44920278e+03 5.90712942e+03 1.41859221e+00
v 6.44707918e+03 5.90739273e+03 1.26307871e+00
v 6.44632085e+03 5.90623477e+03 1.05889242e+00
v 6.44027869e+03 5.90932254e+03 1.44255008e+00
v 6.44128491e+03 5.90872501e+03 1.20204970e+00
v 6.44573632e+03 5.90861565e+03 8.33866267e-01
v 6.45265354e+03 5.90657088e+03 1.57583942e+00
v 6.45094400e+03 5.90798104e+03 1.47118049e+00
v 6.45100925e+03 5.91100719e+03 1.25037001e+00
v 6.45439215e+03 5.91182043e+03 1.69716459e+00
v 6.45374742e+03 5.91145753e+03 1.28242575e+00
v 6.44087461e+03 5.90770002e+03 1.35115312e+00
v 6.45165324e+03 5.91152577e+03 1.34369719e+00
v 6.45175173e+03 5.90708633e+03 1.39916707e+00
v 6.45753626e+03 5.91121700e+03 1.24019487e+00
v 6.45706594e+03 5.91191094e+03 1.75858217e+00
v 6.43919385e+03 5.91511417e+03 1.25867714e+00
v 6.43907907e+03 5.90854319e+03 1.35463037e+00
v 6.43845823e+03 5.90752199e+03 1.66328775e+00
v 6.43826254e+03 5.91480945e+03 1.61937799e+00
v 6.43814954e+03 5.92983720e+03 1.08204198e+00
v 6.43759620e+03 5.92980523e+03 1.51446660e+00
v 6.43765832e+03 5.92996675e+03 1.73895411e+00
v 6.43844352e+03 5.93046136e+03 1.98847411e+00
v 6.43778079e+03 5.92758383e+03 5.74112923e-01
v 6.44308429e+03 5.93009877e+03 2.04747567e+00
v 6.44162747e+03 5.93129160e+03 2.06148082e+00
v 6.43804128e+03 5.93003927e+03 1.80053442e+00
v 6.43786532e+03 5.93001515e+03 1.71688482e+00
v 6.43841748e+03 5.92698096e+03 9.34460469e-01
v 6.43753296e+03 5.92831370e+03 5.31569224e-01
v 6.43756029e+03 5.93031552e+03 2.04361236e+00
v 6.43977220e+03 5.92247999e+03 1.97630249e+00
v 6.44183568e+03 5.93660791e+03 2.24747426e+00
v 6.44734866e+03 5.93698444e+03 1.99627728e+00
v 6.44608370e+03 5.93683729e+03 2.19301282e+00
v 6.44376699e+03 5.93643339e+03 2.30881971e+00
v 6.44479047e+03 5.93682463e+03 2.53826746e+00
v 6.44546972e+03 5.93651716e+03 2.64482340e+00
v 6.44614660e+03 5.93578653e+03 2.04183214e+00
v 6.44052409e+03 5.93595561e+03 2.44848489e+00
v 6.43894804e+03 5.93680131e+03 2.28032394e+00
v 6.44305748e+03 5.93673472e+03 2.39408200e+00
v 6.43786383e+03 5.93730761e+03 2.47442941e+00
v 6.44551399e+03 5.93447996e+03 1.93916311e+00
v 6.44500261e+03 5.93605693e+03 2.65455629e+00
v 6.44610273e+03 5.93488382e+03 1.76076642e+00
v 6.46083236e+03 5.90740381e+03 1.22401385e+00
v 6.46115687e+03 5.90658599e+03 8.39135228e-01
v 6.46006689e+03 5.90641187e+03 6.82157940e-01
v 6.46457014e+03 5.90774533e+03 5.68974361e-01
v 6.46668741e+03 5.90790346e+03 7.75966940e-01
v 6.46600419e+03 5.90803666e+03 7.39402246e-01
v 6.46244337e+03 5.90637845e+03 7.39308231e-01
v 6.46250567e+03 5.90731739e+03 1.36495993e+00
v 6.46539483e+03 5.90760447e+03 8.64481322e-01
v 6.46506575e+03 5.90717285e+03 6.03486270e-01
v 6.46784473e+03 5.91731707e+03 1.78795591e+00
v 6.46753812e+03 5.91615776e+03 2.06546827e+00
v 6.46682525e+03 5.91765200e+03 1.98247452e+00
v 6.46209328e+03 5.91697412e+03 9.34491016e-01
v 6.45992325e+03 5.91515530e+03 1.07909466e+00
v 6.46642540e+03 5.91539190e+03 2.02463055e+00
v 6.46642641e+03 5.91346384e+03 1.12358373e+00
v 6.46528382e+03 5.91466298e+03 1.83030056e+00
v 6.45949989e+03 5.90824855e+03 1.27014340e+00
v 6.46208129e+03 5.91405876e+03 1.72180839e+00
v 6.46440980e+03 5.91339880e+03 1.48311310e+00
v 6.46389308e+03 5.92013007e+03 1.52708114e+00
v 6.46394313e+03 5.91929658e+03 1.74827635e+00
v 6.46390527e+03 5.92324338e+03 1.35611440e+00
v 6.46484156e+03 5.92244463e+03 1.73833878e+00
v 6.46215642e+03 5.91074047e+03 1.79312113e+00
v 6.46346194e+03 5.91165337e+03 1.69741327e+00
v 6.45947883e+03 5.91122807e+03 1.94898830e+00
v 6.45996468e+03 5.91218867e+03 1.99659107e+00
v 6.46040758e+03 5.91012809e+03 1.51766406e+00
v 6.45937539e+03 5.91020641e+03 1.26160328e+00
v 6.46752339e+03 5.91046094e+03 5.24685103e-01
v 6.46781728e+03 5.90976429e+03 6.10106649e-01
v 6.46643198e+03 5.90912701e+03 9.71911918e-01
v 6.46181468e+03 5.91863283e+03 1.41093774e+00
v 6.46227274e+03 5.91950645e+03 1.71725973e+00
v 6.46344003e+03 5.91511491e+03 1.54372539e+00
v 6.46879448e+03 5.91547396e+03 1.40690720e+00
v 6.46836906e+03 5.91681317e+03 1.38384432e+00
v 6.46831357e+03 5.91445089e+03 1.45292866e+00
v 6.46823390e+03 5.91346669e+03 6.72937842e-01
v 6.46859192e+03 5.91306687e+03 5.34381192e-01
v 6.46160429e+03 5.91279199e+03 1.71606963e+00
v 6.46169892e+03 5.91142946e+03 1.99516924e+00
v 6.46444497e+03 5.91831235e+03 1.78337542e+00
v 6.46495699e+03 5.91978401e+03 1.64810241e+00
v 6.46545321e+03 5.91862554e+03 1.44496000e+00
v 6.46796341e+03 5.92171765e+03 9.17621569e-01
v 6.46870436e+03 5.92156473e+03 1.02799826e+00
v 6.46352485e+03 5.92198049e+03 1.48118343e+00
v 6.46728927e+03 5.92251929e+03 9.37806427e-01
v 6.46848091e+03 5.92273195e+03 1.37691537e+00
v 6.46512012e+03 5.92552310e+03 7.53949012e-01
v 6.46523692e+03 5.92425647e+03 1.29142741e+00
v 6.46411471e+03 5.92480611e+03 1.27825067e+00
v 6.46479416e+03 5.91683154e+03 2.10796348e+00
v 6.46630317e+03 5.92777119e+03 8.63701788e-01
v 6.46721470e+03 5.92858411e+03 1.01680966e+00
v 6.46320190e+03 5.91768426e+03 1.32581782e+00
v 6.45883472e+03 5.92029596e+03 1.65469620e-01
v 6.46598489e+03 5.91170649e+03 4.01292396e-01
v 6.46570262e+03 5.91189150e+03 1.00295096e+00
v 6.46561475e+03 5.91666811e+03 2.04379698e+00
v 6.46654460e+03 5.92336485e+03 1.47059952e+00
v 6.46449641e+03 5.92088375e+03 1.53884019e+00
v 6.46619502e+03 5.92409347e+03 1.43549309e+00
v 6.46876763e+03 5.91829324e+03 1.78890618e+00
v 6.46869625e+03 5.92649766e+03 1.26476823e+00
v 6.46796766e+03 5.92614899e+03 1.35523984e+00
v 6.46880756e+03 5.93151058e+03 1.01767239e+00
v 6.46869072e+03 5.93280249e+03 2.53955213e-01
v 6.46666106e+03 5.92901601e+03 1.08890828e+00
v 6.46727843e+03 5.93013354e+03 5.14864425e-01
v 6.46814294e+03 5.92982442e+03 9.99760830e-01
v 6.46738359e+03 5.90900401e+03 8.10619501e-01
v 6.46749662e+03 5.90812998e+03 7.45881764e-01
v 6.46544168e+03 5.92191516e+03 1.83433139e+00
v 6.46666105e+03 5.92177439e+03 1.32495525e+00
v 6.46622155e+03 5.92080031e+03 1.41774088e+00
v 6.46385061e+03 5.91792156e+03 1.64389158e+00
v 6.46106780e+03 5.92012243e+03 1.53145660e+00
v 6.46885645e+03 5.91956304e+03 1.85956389e+00
v 6.46017044e+03 5.92222601e+03 7.73085965e-01
v 6.45958171e+03 5.92341877e+03 6.47163261e-01
v 6.45983614e+03 5.91926454e+03 1.19713306e+00
v 6.46842902e+03 5.92702200e+03 9.30225895e-01
v 6.46834757e+03 5.92810251e+03 1.11038041e+00
v 6.46101883e+03 5.92268740e+03 3.00837297e-01
v 6.46282487e+03 5.92152179e+03 1.29672905e+00
v 6.46782883e+03 5.92059741e+03 1.54684891e+00
v 6.46807965e+03 5.91906935e+03 1.61326854e+00
v 6.46718315e+03 5.91849053e+03 1.68699474e+00
v 6.46585338e+03 5.92654708e+03 6.54516480e-01
v 6.46663874e+03 5.92678837e+03 4.76544148e-01
v 6.46704992e+03 5.90625092e+03 1.18073207e+00
v 6.46821448e+03 5.90739331e+03 1.05421748e+00
v 6.46587881e+03 5.90689013e+03 1.43790103e+00
v 6.46588076e+03 5.90738664e+03 1.35693738e+00
v 6.46480149e+03 5.90828782e+03 5.87016690e-01
v 6.46567973e+03 5.91013127e+03 2.70850070e-01
v 6.46502592e+03 5.90951327e+03 3.39383941e-01
v 6.45878314e+03 5.91113615e+03 1.29951420e+00
v 6.46496638e+03 5.90657771e+03 3.43234803e-01
v 6.45905134e+03 5.91237662e+03 1.33063072e+00
v 6.45815754e+03 5.91094866e+03 1.09239727e+00
v 6.46263991e+03 5.90892921e+03 1.80227418e+00
v 6.46353441e+03 5.92440052e+03 1.05426621e+00
v 6.46338416e+03 5.92551170e+03 6.34685251e-01
v 6.46869537e+03 5.92437325e+03 1.45939308e+00
v 6.46265644e+03 5.91625166e+03 1.30756667e+00
v 6.46434568e+03 5.90912183e+03 1.09289362e+00
v 6.46385108e+03 5.90962405e+03 1.65824771e+00
v 6.46703526e+03 5.92443557e+03 1.38347814e+00
v 6.46793650e+03 5.93114549e+03 9.66604461e-01
v 6.46536775e+03 5.91064535e+03 4.34611692e-01
v 6.44242505e+03 5.93266552e+03 2.06676427e+00
v 6.43857704e+03 5.92453411e+03 1.81299527e+00
v 6.43905170e+03 5.92566367e+03 1.59854158e+00
v 6.43906891e+03 5.93559218e+03 2.45337102e+00
v 6.43773248e+03 5.93580761e+03 2.23328374e+00
v 6.44148499e+03 5.93525935e+03 2.32821758e+00
v 6.44097648e+03 5.93064957e+03 2.00925610e+00
v 6.43815819e+03 5.93164311e+03 1.96698199e+00
v 6.43830376e+03 5.93453434e+03 2.37196149e+00
v 6.43743296e+03 5.92065395e+03 2.28692913e+00
v 6.44089896e+03 5.93191117e+03 2.19491476e+00
v 6.43747868e+03 5.93373563e+03 2.31945043e+00
v 6.44074863e+03 5.93425250e+03 2.48868250e+00
v 6.43896013e+03 5.93161380e+03 2.43485763e+00
v 6.43914936e+03 5.92183749e+03 2.18525039e+00
v 6.46446075e+03 5.93191185e+03 -9.94776877e-02
v 6.46562353e+03 5.92498825e+03 8.03843767e-01
v 6.46781993e+03 5.91282658e+03 2.55858569e-01
v 6.46198832e+03 5.92765339e+03 -3.43926123e-02
v 6.46078673e+03 5.92393430e+03 2.11570999e-01
v 6.46147818e+03 5.92218080e+03 8.28540649e-01
v 6.46178347e+03 5.92313225e+03 2.22836402e-01
v 6.46156455e+03 5.92448148e+03 1.48122234e-01
v 6.46443621e+03 5.91138367e+03 1.48143957e+00
v 6.46625603e+03 5.91084750e+03 1.39420422e-01
v 6.46761985e+03 5.91189093e+03 2.75950073e-01
v 6.46015626e+03 5.92057450e+03 9.84766467e-01
v 6.46548068e+03 5.92839190e+03 6.13630549e-01
v 6.46453266e+03 5.92795010e+03 2.55232792e-01
v 6.46075298e+03 5.92177003e+03 1.22772127e+00
v 6.46308546e+03 5.92343224e+03 8.54204059e-01
v 6.46754311e+03 5.93226374e+03 3.22131430e-01
v 6.45885008e+03 5.92213451e+03 7.55779753e-01
v 6.45955260e+03 5.92077808e+03 8.10924657e-01
v 6.45992913e+03 5.92163290e+03 9.85287962e-01
v 6.46667788e+03 5.92563995e+03 1.07170905e+00
v 6.45994850e+03 5.90732809e+03 1.18753352e+00
v 6.46252491e+03 5.92279103e+03 6.66721381e-01
v 6.46570498e+03 5.92995504e+03 3.35057971e-01
v 6.46791402e+03 5.93395210e+03 2.95974332e-03
v 6.46713074e+03 5.93084480e+03 5.74191127e-01
v 6.46310176e+03 5.92481420e+03 4.89874002e-01
v 6.46605100e+03 5.92859033e+03 7.16824092e-01
v 6.46752413e+03 5.91352888e+03 6.97092128e-01
v 6.46715161e+03 5.91262672e+03 3.58990820e-01
v 6.45934106e+03 5.91919430e+03 8.97954858e-01
v 6.46512848e+03 5.92664871e+03 4.00331039e-01
v 6.46566179e+03 5.92788505e+03 9.62782828e-01
v 6.46068708e+03 5.92118910e+03 1.39541735e+00
v 6.45942875e+03 5.92010961e+03 4.62921147e-01
v 6.46545903e+03 5.92080633e+03 1.80676427e+00
v 6.46821356e+03 5.92524986e+03 1.47487162e+00
v 6.46784775e+03 5.92418332e+03 1.25325188e+00
v 6.46683138e+03 5.91988928e+03 1.66252304e+00
v 6.46583336e+03 5.91978874e+03 1.47848820e+00
v 6.46348856e+03 5.91639620e+03 1.30632167e+00
v 6.46547245e+03 5.91235952e+03 1.32693216e+00
v 6.46006448e+03 5.91345416e+03 1.27909111e+00
v 6.46100340e+03 5.91506730e+03 1.18132727e+00
v 6.45940006e+03 5.91811128e+03 1.29743698e+00
v 6.45828524e+03 5.91251137e+03 1.33661285e+00
v 6.46093572e+03 5.90862293e+03 1.52221595e+00
v 6.46180933e+03 5.90770364e+03 1.82789893e+00
v 6.46183398e+03 5.90846602e+03 1.82796144e+00
v 6.46499192e+03 5.91119275e+03 1.13615113e+00
v 6.46539916e+03 5.90861599e+03 4.68391397e-01
v 6.46134826e+03 5.90948383e+03 1.37667423e+00
v 6.46652489e+03 5.91227908e+03 2.65329520e-01
v 6.46844175e+03 5.91105693e+03 8.30560515e-01
v 6.43991109e+03 5.93403120e+03 2.63560494e+00
v 6.44446361e+03 5.93554124e+03 2.39726426e+00
v 6.43780054e+03 5.92378084e+03 1.84180615e+00
v 6.43850711e+03 5.91675725e+03 1.64489351e+00
v 6.44149064e+03 5.93329471e+03 2.50663532e+00
v 6.44358076e+03 5.93170561e+03 1.95521764e+00
v 6.43737500e+03 5.92240534e+03 2.15522577e+00
v 6.43737500e+03 5.92339384e+03 2.03770346e+00
v 6.43737500e+03 5.92562165e+03 1.72804049e+00
v 6.43737500e+03 5.92469236e+03 1.80529721e+00
v 6.43737500e+03 5.92073682e+03 2.28432754e+00
v 6.43737500e+03 5.90835180e+03 1.39722742e+00
v 6.43737500e+03 5.90890739e+03 1.45481725e+00
v 6.43737500e+03 5.91426480e+03 1.74125906e+00
v 6.43737500e+03 5.91299717e+03 1.93107768e+00
v 6.43737500e+03 5.91128447e+03 1.83206058e+00
v 6.43737500e+03 5.90981609e+03 1.76024022e+00
v 6.43737500e+03 5.91589891e+03 1.82968735e+00
v 6.43737500e+03 5.91525010e+03 1.80559699e+00
v 6.43737500e+03 5.91163256e+03 1.87235728e+00
v 6.43737500e+03 5.93553186e+03 2.15350224e+00
v 6.43737500e+03 5.93459996e+03 2.15958212e+00
v 6.43737500e+03 5.92646051e+03 1.22042691e+00
v 6.43737500e+03 5.92664517e+03 1.13867376e+00
v 6.43737500e+03 5.93143966e+03 1.96675072e+00
v 6.43737500e+03 5.93170062e+03 2.07911779e+00
v 6.43737500e+03 5.93198677e+03 1.97303722e+00
v 6.43737500e+03 5.92057635e+03 2.31255174e+00
v 6.43737500e+03 5.91740411e+03 2.05743469e+00
v 6.43737500e+03 5.91954702e+03 2.35009178e+00
v 6.43737500e+03 5.92402683e+03 1.90514408e+00
v 6.43737500e+03 5.92430756e+03 1.92540618e+00
v 6.43737500e+03 5.93020894e+03 2.02781655e+00
v 6.43737500e+03 5.92999888e+03 1.91988953e+00
v 6.43737500e+03 5.93381637e+03 2.28407820e+00
v 6.43737500e+03 5.93370570e+03 2.29625427e+00
v 6.43737500e+03 5.93029355e+03 2.04667799e+00
v 6.43737500e+03 5.93048602e+03 2.02923331e+00
v 6.43737500e+03 5.93637381e+03 2.25951411e+00
v 6.43737500e+03 5.93585739e+03 2.23541194e+00
v 6.43737500e+03 5.93714077e+03 2.36493981e+00
v 6.43737500e+03 5.93695043e+03 2.40957938e+00
v 6.43737500e+03 5.92681936e+03 1.08526472e+00
v 6.43737500e+03 5.92705195e+03 9.35261659e-01
v 6.43737500e+03 5.92992687e+03 1.67860285e+00
v 6.43737500e+03 5.92996978e+03 1.84304287e+00
v 6.43737500e+03 5.92929494e+03 1.23294602e+00
v 6.43737500e+03 5.92879276e+03 1.01781389e+00
v 6.43737500e+03 5.93239823e+03 2.01368346e+00
v 6.43737500e+03 5.91245851e+03 1.74567134e+00
v 6.43737500e+03 5.90720386e+03 1.67831504e+00
v 6.43737500e+03 5.90765358e+03 1.57081852e+00
v 6.43737500e+03 5.92596502e+03 1.56562269e+00
v 6.43737500e+03 5.91893708e+03 2.15652871e+00
v 6.43737500e+03 5.91781986e+03 2.09387943e+00
v 6.43737500e+03 5.92986459e+03 1.68264441e+00
v 6.43737500e+03 5.93291852e+03 2.06170191e+00
v 6.43737500e+03 5.92952049e+03 1.43894289e+00
v 6.43737500e+03 5.91770008e+03 2.10611719e+00
v 6.43737500e+03 5.92820240e+03 6.21063565e-01
v 6.43737500e+03 5.92771868e+03 7.18903698e-01
v 6.43737500e+03 5.92852126e+03 7.57751373e-01
v 6.46887500e+03 5.91440977e+03 1.09861163e+00
v 6.46887500e+03 5.91402291e+03 7.74184792e-01
v 6.46887500e+03 5.91315399e+03 6.49482338e-01
v 6.46887500e+03 5.91292702e+03 6.68797391e-01
v 6.46887500e+03 5.92710516e+03 1.15915561e+00
v 6.46887500e+03 5.92767374e+03 1.27433640e+00
v 6.46887500e+03 5.92455675e+03 1.45160728e+00
v 6.46887500e+03 5.92444352e+03 1.43190124e+00
v 6.46887500e+03 5.90728157e+03 1.27216237e+00
v 6.46887500e+03 5.90685955e+03 1.15444891e+00
v 6.46887500e+03 5.91529475e+03 1.31392601e+00
v 6.46887500e+03 5.91243269e+03 8.60678413e-01
v 6.46887500e+03 5.91199474e+03 9.73251809e-01
v 6.46887500e+03 5.91109018e+03 8.17369022e-01
v 6.46887500e+03 5.91172126e+03 1.00296610e+00
v 6.46887500e+03 5.90959193e+03 7.54670786e-01
v 6.46887500e+03 5.90992048e+03 7.86504651e-01
v 6.46887500e+03 5.90765196e+03 1.21378415e+00
v 6.46887500e+03 5.90827570e+03 1.12783251e+00
v 6.46887500e+03 5.90660702e+03 1.19120409e+00
v 6.46887500e+03 5.91827440e+03 1.77962749e+00
v 6.46887500e+03 5.91835688e+03 1.78046414e+00
v 6.46887500e+03 5.92265215e+03 1.43018221e+00
v 6.46887500e+03 5.92177346e+03 1.13327006e+00
v 6.46887500e+03 5.92543341e+03 1.44814595e+00
v 6.46887500e+03 5.92131689e+03 1.09635013e+00
v 6.46887500e+03 5.91959150e+03 1.84301724e+00
v 6.46887500e+03 5.92833572e+03 1.19563555e+00
v 6.46887500e+03 5.92924883e+03 1.15656823e+00
v 6.46887500e+03 5.92640053e+03 1.28265357e+00
v 6.46887500e+03 5.93144229e+03 1.03151898e+00
v 6.46887500e+03 5.93154373e+03 9.73262857e-01
v 6.46887500e+03 5.92666827e+03 1.30933794e+00
v 6.46887500e+03 5.91689562e+03 1.17901611e+00
v 6.46887500e+03 5.91810389e+03 1.66264774e+00
v 6.46887500e+03 5.91360215e+03 6.58636502e-01
v 6.46887500e+03 5.91555161e+03 1.36519300e+00
v 6.46887500e+03 5.91543976e+03 1.34116783e+00
v 6.46887500e+03 5.91656028e+03 1.22482842e+00
v 6.46887500e+03 5.93472271e+03 2.78062698e-02
v 6.46887500e+03 5.93373488e+03 2.62475063e-01
v 6.46887500e+03 5.93329548e+03 2.81081481e-01
v 6.46887500e+03 5.93080990e+03 1.09631933e+00
v 6.46887500e+03 5.93010053e+03 1.09894870e+00
v 6.46887500e+03 5.92962792e+03 1.19827895e+00
v 6.46887500e+03 5.93271628e+03 2.42743910e-01
v 6.46887500e+03 5.93280104e+03 2.17979523e-01
v 6.46887500e+03 5.92423926e+03 1.48842514e+00
v 6.46887500e+03 5.92157718e+03 9.96024343e-01
v 6.46887500e+03 5.91954864e+03 1.85648623e+00
v 6.46887500e+03 5.92298737e+03 1.45519192e+00
v 6.46887500e+03 5.90801716e+03 1.20569683e+00
v 6.46887500e+03 5.90785653e+03 1.18666747e+00
v 6.46887500e+03 5.92147229e+03 1.02869386e+00
v 6.46887500e+03 5.92802380e+03 1.26094268e+00
v 6.45091783e+03 5.90612500e+03 1.31443748e+00
v 6.44933507e+03 5.90612500e+03 1.28957714e+00
v 6.44714109e+03 5.90612500e+03 1.08094163e+00
v 6.44633233e+03 5.90612500e+03 1.06790148e+00
v 6.45278498e+03 5.90612500e+03 1.55831111e+00
v 6.45110151e+03 5.90612500e+03 1.33051663e+00
v 6.43762050e+03 5.90612500e+03 1.49351483e+00
v 6.43829901e+03 5.90612500e+03 1.41913286e+00
v 6.43853124e+03 5.90612500e+03 1.37375131e+00
v 6.45097708e+03 5.90612500e+03 1.31980128e+00
v 6.44229694e+03 5.90612500e+03 7.22941552e-01
v 6.44174642e+03 5.90612500e+03 1.08398532e+00
v 6.43995461e+03 5.90612500e+03 1.61506651e+00
v 6.44062695e+03 5.90612500e+03 1.53798756e+00
v 6.44103548e+03 5.90612500e+03 1.42635570e+00
v 6.44362240e+03 5.90612500e+03 2.49237200e-01
v 6.44344039e+03 5.90612500e+03 3.01758584e-01
v 6.44805120e+03 5.90612500e+03 1.12318168e+00
v 6.44526502e+03 5.90612500e+03 1.00680253e+00
v 6.44623345e+03 5.90612500e+03 1.06254811e+00
v 6.44376836e+03 5.90612500e+03 2.87188412e-01
v 6.45591395e+03 5.90612500e+03 2.09926601e+00
v 6.45773793e+03 5.90612500e+03 1.71561618e+00
v 6.43876367e+03 5.90612500e+03 1.47585806e+00
v 6.44837204e+03 5.90612500e+03 1.14409079e+00
v 6.45332681e+03 5.90612500e+03 1.48512277e+00
v 6.45103661e+03 5.90612500e+03 1.31943567e+00
v 6.44809527e+03 5.90612500e+03 1.11188903e+00
v 6.44827997e+03 5.90612500e+03 1.14515318e+00
v 6.45838617e+03 5.90612500e+03 1.57781243e+00
v 6.45401844e+03 5.90612500e+03 1.51486036e+00
v 6.45367904e+03 5.90612500e+03 1.38596133e+00
v 6.45563060e+03 5.90612500e+03 2.06341576e+00
v 6.45345020e+03 5.90612500e+03 1.46234150e+00
v 6.46524518e+03 5.90612500e+03 4.65378007e-01
v 6.46561660e+03 5.90612500e+03 8.61715196e-01
v 6.45916087e+03 5.90612500e+03 1.01834556e+00
v 6.45989746e+03 5.90612500e+03 6.82531592e-01
v 6.46066406e+03 5.90612500e+03 8.12239170e-01
v 6.46129099e+03 5.90612500e+03 9.14077832e-01
v 6.46364605e+03 5.90612500e+03 2.81703498e-01
v 6.46406381e+03 5.90612500e+03 2.74336747e-01
v 6.46479128e+03 5.90612500e+03 3.78398093e-01
v 6.46693200e+03 5.90612500e+03 1.12880428e+00
v 6.46615444e+03 5.90612500e+03 1.12597326e+00
v 6.46292311e+03 5.90612500e+03 5.03145991e-01
v 6.46711760e+03 5.90612500e+03 1.18152483e+00
v 6.46200222e+03 5.90612500e+03 8.36600851e-01
v 6.46749642e+03 5.90612500e+03 1.22739672e+00
v 6.46014655e+03 5.90612500e+03 6.80697876e-01
v 6.43744670e+03 5.90612500e+03 1.52804268e+00
v 6.43737500e+03 5.90612500e+03 1.54228692e+00
v 6.46787633e+03 5.90612500e+03 1.24492248e+00
v 6.46887500e+03 5.90612500e+03 1.29099229e+00
v 6.44753480e+03 5.93762500e+03 2.04414501e+00
v 6.44801929e+03 5.93762500e+03 1.70014330e+00
v 6.44493417e+03 5.93762500e+03 2.56691502e+00
v 6.44476426e+03 5.93762500e+03 2.53971831e+00
v 6.44518300e+03 5.93762500e+03 2.42795403e+00
v 6.43762091e+03 5.93762500e+03 2.34082291e+00
v 6.43796163e+03 5.93762500e+03 2.43839643e+00
v 6.44005980e+03 5.93762500e+03 2.25601449e+00
v 6.43931943e+03 5.93762500e+03 2.27669955e+00
v 6.44157925e+03 5.93762500e+03 2.23740785e+00
v 6.44211091e+03 5.93762500e+03 2.14445300e+00
v 6.43881041e+03 5.93762500e+03 2.35284326e+00
v 6.44396326e+03 5.93762500e+03 2.46118405e+00
v 6.44424783e+03 5.93762500e+03 2.49687225e+00
v 6.44451519e+03 5.93762500e+03 2.48474165e+00
v 6.44685838e+03 5.93762500e+03 2.23726237e+00
v 6.44650257e+03 5.93762500e+03 2.30237618e+00
v 6.44992647e+03 5.93762500e+03 1.57028395e+00
v 6.44868384e+03 5.93762500e+03 1.49920473e+00
v 6.45201889e+03 5.93762500e+03 1.10053557e+00
v 6.45321529e+03 5.93762500e+03 1.34060541e+00
v 6.45189803e+03 5.93762500e+03 1.09734792e+00
v 6.45192174e+03 5.93762500e+03 1.08530221e+00
v 6.45007952e+03 5.93762500e+03 1.54607190e+00
v 6.45579956e+03 5.93762500e+03 7.46530321e-01
v 6.45553792e+03 5.93762500e+03 1.14890547e+00
v 6.44843499e+03 5.93762500e+03 1.57557984e+00
v 6.45162710e+03 5.93762500e+03 1.15626757e+00
v 6.45602090e+03 5.93762500e+03 2.96436336e-01
v 6.45337973e+03 5.93762500e+03 1.30527645e+00
v 6.45675938e+03 5.93762500e+03 2.14376573e-01
v 6.45671048e+03 5.93762500e+03 1.83231261e-01
v 6.45375674e+03 5.93762500e+03 1.35137268e+00
v 6.45454211e+03 5.93762500e+03 1.19313323e+00
v 6.44582677e+03 5.93762500e+03 2.17917466e+00
v 6.44257518e+03 5.93762500e+03 2.24985894e+00
v 6.45490070e+03 5.93762500e+03 1.15323601e+00
v 6.46381078e+03 5.93762500e+03 -1.82744901e-01
v 6.46734220e+03 5.93762500e+03 -2.09381550e-01
v 6.46816255e+03 5.93762500e+03 -1.61436282e-01
v 6.45826054e+03 5.93762500e+03 -1.11584873e-01
v 6.45721961e+03 5.93762500e+03 1.51166817e-01
v 6.43769649e+03 5.93762500e+03 2.36246657e+00
v 6.43737500e+03 5.93762500e+03 2.26913932e+00
v 6.46851967e+03 5.93762500e+03 -1.38119965e-01
v 6.46887500e+03 5.93762500e+03 -1.14920008e-01
vt 0.45564231 0.9195208
vt 0.47184736 0.94931036
vt 0.46145895 0.95222998
vt 0.42040756 0.9198103
vt 0.52817595 0.93156403
vt 0.47777328 0.98414314
vt 0.40725961 0.87938428
vt 0.43063903 0.95179999
vt 0.50507474 0.98257589
vt 0.40223566 0.73574656
vt 0.39583561 0.89766324
vt 0.3933146 0.92974705
vt 0.45665997 0.96343619
vt 0.53818768 0.9952268
vt 0.46831113 0.65434849
vt 0.48096025 0.99523956
vt 0.37121582 0.85003912
vt 0.37875 0.88185209
vt 0.40449673 0.94621867
vt 0.44868043 0.97844893
vt 0.51158851 0.99523169
vt 0.67999017 0.9951818
vt 0.69654715 0.84921193
vt 0.36711243 0.64254183
vt 0.49858034 0.99523544
vt 0.35897902 0.77983862
vt 0.3840287 0.90394002
vt 0.40926099 0.99524796
vt 0.3761974 0.99458247
vt 0.41346291 0.99524713
vt 0.46750703 0.98895276
vt 0.49982885 0.99523461
vt 0.63334358 0.74043369
vt 0.33411685 0.46331966
vt 0.35413992 0.70762599
vt 0.35720831 0.86777538
vt 0.34639859 0.80899096
vt 0.35419351 0.76059961
vt 0.36854243 0.91888416
vt 0.36917102 0.89650846
vt 0.37869903 0.99526125
vt 0.35128677 0.95279312
vt 0.42309406 0.99524331
vt 0.77021372 0.99515295
vt 0.55353397 0.67941839
vt 0.69834489 0.74798918
vt 0.4377059 0.49142677
vt 0.26153198 0.51031339
vt 0.32963964 0.73418653
vt 0.30465683 0.70753169
vt 0.35787502 0.88432294
vt 0.33216399 0.82564938
vt 0.33636713 0.77164716
vt 0.32914251 0.99527103
vt 0.37621728 0.99526232
vt 0.44316226 0.99523908
vt 0.78478843 0.90130758
vt 0.48462832 0.60641849
vt 0.62248713 0.65939665
vt 0.71355373 0.71473336
vt 0.72831106 0.79920179
vt 0.41644162 0.46344531
vt 0.4856956 0.55882484
vt 0.25379866 0.65785366
vt 0.21461807 0.39928621
vt 0.29333359 0.67289174
vt 0.33952689 0.89337736
vt 0.31545836 0.81861478
vt 0.34121123 0.91919351
vt 0.36868832 0.99526376
vt 0.32523176 0.99527192
vt 0.37561136 0.99526232
vt 0.45232454 0.99523664
vt 0.79117161 0.99514544
vt 0.77529228 0.85817093
vt 0.52910733 0.61983001
vt 0.66897482 0.68569541
vt 0.60260892 0.64542252
vt 0.71332425 0.68597054
vt 0.73206836 0.71212721
vt 0.72256249 0.75926358
vt 0.76850867 0.80374652
vt 0.37989038 0.41776288
vt 0.46610561 0.45654798
vt 0.47610855 0.52469194
vt 0.23203242 0.60519028
vt 0.28374603 0.35876173
vt 0.15037666 0.44796139
vt 0.30263051 0.74068141
vt 0.25511077 0.70029986
vt 0.30204523 0.86890513
vt 0.30565184 0.95757413
vt 0.46860465 0.99523145
vt 0.80934602 0.92098743
vt 0.80461776 0.87192667
vt 0.76474011 0.82191873
vt 0.53343886 0.59146059
vt 0.57180995 0.6322552
vt 0.51721621 0.57682484
vt 0.66175705 0.66787958
vt 0.62806755 0.62492287
vt 0.72717881 0.74630773
vt 0.73713309 0.76432693
vt 0.75271577 0.77519208
vt 0.33879742 0.39110458
vt 0.43684158 0.43116909
vt 0.48149988 0.48829556
vt 0.53369147 0.53728515
vt 0.19834039 0.67065156
vt 0.19194864 0.55943203
vt 0.26240337 0.33165449
vt 0.15411678 0.40007097
vt 0.1652229 0.52998102
vt 0.28323424 0.72306764
vt 0.32539997 0.9093715
vt 0.31343132 0.89692229
vt 0.29465252 0.83259416
vt 0.3055068 0.78819567
vt 0.29348573 0.99528325
vt 0.80029494 0.99514216
vt 0.80933344 0.89574641
vt 0.80757797 0.8389082
vt 0.78532147 0.82958865
vt 0.55310506 0.59944856
vt 0.5868389 0.60177529
vt 0.5164513 0.55099928
vt 0.66132212 0.63256741
vt 0.67279661 0.65729898
vt 0.68762141 0.66765332
vt 0.60852683 0.6135627
vt 0.64699906 0.61619258
vt 0.7531178 0.68893862
vt 0.74356616 0.74339485
vt 0.79058421 0.79583478
vt 0.38112766 0.36727846
vt 0.41519952 0.39835578
vt 0.50113112 0.47496551
vt 0.45912644 0.42839164
vt 0.5057745 0.50533634
vt 0.2044054 0.68984699
vt 0.19212405 0.65751314
vt 0.19936375 0.60626733
vt 0.32418099 0.35696507
vt 0.23471007 0.31601566
vt 0.27410242 0.29592586
vt 0.1899858 0.32063979
vt 0.12115248 0.44119734
vt 0.13381746 0.51128954
vt 0.25759098 0.73652732
vt 0.21446042 0.71879572
vt 0.26107797 0.88030875
vt 0.28420728 0.810211
vt 0.28300953 0.75455666
vt 0.29967684 0.92417371
vt 0.27654633 0.93972802
vt 0.80937272 0.99513888
vt 0.80930191 0.83975518
vt 0.80932945 0.88451993
vt 0.55494148 0.5765599
vt 0.53640193 0.56847572
vt 0.71628761 0.65360123
vt 0.62024856 0.60060847
vt 0.7261802 0.67230105
vt 0.75213867 0.71828794
vt 0.76685822 0.7641542
vt 0.45046803 0.39108282
vt 0.48717377 0.44583189
vt 0.56562203 0.52432424
vt 0.17666645 0.66239703
vt 0.1881011 0.70813036
vt 0.13868578 0.53969622
vt 0.162402 0.59467959
vt 0.23366761 0.27213448
vt 0.14179482 0.34886879
vt 0.10710813 0.41811424
vt 0.12513846 0.46338445
vt 0.27432823 0.83666927
vt 0.27199581 0.78120768
vt 0.28712645 0.9952842
vt 0.8093254 0.86972272
vt 0.80929995 0.83716285
vt 0.80932653 0.8718887
vt 0.58066493 0.58662093
vt 0.6822561 0.62772828
vt 0.67252421 0.59546459
vt 0.70616341 0.60730815
vt 0.65464032 0.58375382
vt 0.74076182 0.64942676
vt 0.79787111 0.72423542
vt 0.7957958 0.7518391
vt 0.80929351 0.82100523
vt 0.36913666 0.32846087
vt 0.42223668 0.37496597
vt 0.51987416 0.43710136
vt 0.54322046 0.49482876
vt 0.48296744 0.39881533
vt 0.51895559 0.41734123
vt 0.55270869 0.55248475
vt 0.17235297 0.68550932
vt 0.17194508 0.63853228
vt 0.1396531 0.55872148
vt 0.32155353 0.309852
vt 0.20896491 0.27627033
vt 0.25513124 0.24272603
vt 0.11504652 0.39003509
vt 0.1469689 0.31226254
vt 0.097438827 0.46713388
vt 0.10950148 0.5232141
vt 0.099487081 0.48831975
vt 0.2592575 0.75520301
vt 0.2039111 0.74139607
vt 0.2750133 0.90949869
vt 0.25160736 0.85361052
vt 0.25760457 0.81016344
vt 0.27650335 0.99528593
vt 0.60170972 0.59011424
vt 0.57104117 0.56478715
vt 0.74968636 0.63080812
vt 0.60001808 0.57527018
vt 0.76223266 0.65816081
vt 0.7860688 0.70192909
vt 0.80928761 0.80288178
vt 0.80927116 0.75779176
vt 0.39852443 0.34956115
vt 0.35268119 0.31521851
vt 0.44825599 0.35394979
vt 0.5612697 0.4747178
vt 0.56711286 0.49664837
vt 0.56787807 0.54771465
vt 0.14892554 0.67520106
vt 0.15634128 0.64287448
vt 0.17754564 0.70736986
vt 0.11795668 0.5613817
vt 0.13544287 0.59136283
vt 0.15283036 0.61391139
vt 0.32018188 0.25415677
vt 0.16723022 0.29969478
vt 0.21795313 0.25416768
vt 0.11783388 0.3572219
vt 0.12417067 0.31321287
vt 0.087830566 0.42126191
vt 0.24315423 0.77720064
vt 0.20556329 0.77869391
vt 0.24069481 0.91002047
vt 0.24416406 0.83936745
vt 0.25935873 0.97892195
vt 0.58645892 0.5595783
vt 0.69733596 0.56743538
vt 0.72148943 0.59377462
vt 0.60973358 0.54801321
vt 0.79234141 0.67895377
vt 0.80468774 0.71083224
vt 0.80926168 0.72635329
vt 0.80928183 0.79080582
vt 0.80927944 0.78112102
vt 0.80926734 0.74982172
vt 0.3881515 0.32087791
vt 0.56658018 0.44780374
vt 0.51515597 0.35986412
vt 0.52048606 0.38871545
vt 0.57826549 0.52611035
vt 0.15018941 0.73209441
vt 0.13757195 0.70315313
vt 0.18245456 0.26177627
vt 0.23286305 0.19333136
vt 0.30649292 0.2161594
vt 0.074839875 0.35767245
vt 0.088583022 0.33667129
vt 0.13517095 0.28268719
vt 0.062641487 0.39136779
vt 0.071223959 0.42866826
vt 0.081779033 0.49122214
vt 0.067987323 0.53668892
vt 0.21890122 0.88923323
vt 0.22352459 0.86711073
vt 0.23410869 0.83140469
vt 0.2266908 0.80398273
vt 0.22751412 0.92526746
vt 0.26411879 0.99528503
vt 0.22863711 0.94832617
vt 0.6819157 0.54818511
vt 0.75265104 0.59017527
vt 0.64050961 0.53226328
vt 0.78299087 0.65171129
vt 0.76871461 0.6092068
vt 0.80926418 0.74087811
vt 0.40790832 0.30960608
vt 0.37848344 0.30134022
vt 0.42264071 0.32670087
vt 0.6359185 0.46757835
vt 0.58045942 0.42112577
vt 0.62880516 0.50995147
vt 0.50741917 0.3382507
vt 0.11805935 0.65210605
vt 0.1179203 0.67382145
vt 0.13858864 0.62436688
vt 0.11926799 0.58655989
vt 0.12360634 0.60084844
vt 0.15757729 0.25897992
vt 0.20049681 0.24233508
vt 0.25224298 0.22290635
vt 0.35098475 0.23790181
vt 0.27819508 0.19051141
vt 0.086338826 0.31325889
vt 0.11446891 0.2954216
vt 0.076685362 0.57153845
vt 0.13210829 0.75929821
vt 0.21246578 0.9149518
vt 0.2468337 0.9952879
vt 0.22703587 0.97517002
vt 0.72192395 0.56544578
vt 0.70909202 0.53933322
vt 0.74141264 0.56529105
vt 0.80464405 0.65655375
vt 0.80924237 0.68363822
vt 0.80925524 0.71518898
vt 0.43910789 0.3359614
vt 0.4774664 0.32363051
vt 0.53858352 0.35358685
vt 0.55250049 0.36938059
vt 0.10555635 0.6930266
vt 0.11317068 0.72212726
vt 0.36728266 0.26834732
vt 0.16914406 0.23495519
vt 0.20588809 0.19053632
vt 0.25381774 0.19051975
vt 0.27706903 0.19051158
vt 0.37161526 0.21503758
vt 0.28291321 0.19050938
vt 0.06151744 0.33636338
vt 0.034693569 0.38292319
vt 0.10985662 0.27617878
vt 0.1356581 0.25844109
vt 0.050847583 0.4202441
vt 0.048046928 0.48223621
vt 0.057975117 0.50613552
vt 0.056304146 0.55720145
vt 0.17361425 0.79307479
vt 0.12045406 0.76867342
vt 0.12085304 0.73698509
vt 0.1897188 0.87218505
vt 0.19415274 0.90184361
vt 0.20260374 0.84774089
vt 0.21133825 0.9669897
vt 0.68318331 0.52688706
vt 0.78593189 0.5887205
vt 0.75698072 0.54200709
vt 0.68081033 0.4917593
vt 0.8092351 0.6612407
vt 0.80925351 0.70834923
vt 0.40774733 0.28894001
vt 0.45487827 0.2886681
vt 0.60805297 0.41886711
vt 0.66424054 0.48570663
vt 0.51943922 0.32052499
vt 0.58404964 0.3776598
vt 0.10174674 0.6670872
vt 0.09994147 0.62500942
vt 0.095640905 0.68228811
vt 0.088891312 0.59533554
vt 0.14780606 0.23059136
vt 0.16381702 0.19313359
vt 0.23062901 0.1905275
vt 0.23315516 0.1905266
vt 0.3518174 0.19048452
vt 0.39811718 0.26702619
vt 0.28526556 0.19050866
vt 0.045342296 0.30529827
vt 0.078512251 0.27226406
vt 0.03330854 0.46222275
vt 0.04828947 0.51503611
vt 0.044302639 0.56826675
vt 0.044337314 0.54234576
vt 0.18563017 0.94206828
vt 0.19940035 0.95523536
vt 0.23774187 0.99528992
vt 0.1976663 0.99529916
vt 0.73148549 0.53944933
vt 0.69599599 0.50173664
vt 0.78247225 0.56009197
vt 0.79915291 0.61462367
vt 0.8092345 0.65834796
vt 0.63557297 0.39308357
vt 0.67155415 0.4527964
vt 0.48018998 0.29207569
vt 0.55815542 0.35013777
vt 0.53531283 0.31366616
vt 0.088775627 0.72339201
vt 0.090153433 0.69726169
vt 0.065670975 0.60841572
vt 0.10364695 0.75146669
vt 0.16766405 0.19055903
vt 0.35333839 0.19048405
vt 0.35030389 0.19048512
vt 0.41701722 0.25519562
vt 0.30298838 0.20159703
vt 0.021007814 0.35374516
vt 0.027044533 0.41246164
vt 0.023612838 0.30784553
vt 0.10421954 0.25699323
vt 0.093725637 0.23080724
vt 0.0064395419 0.4862923
vt 0.12648155 0.78810382
vt 0.15583867 0.91111654
vt 0.16305113 0.84408659
vt 0.1543247 0.82423973
vt 0.22047848 0.99529725
vt 0.19398899 0.9748525
vt 0.20402637 0.99529904
vt 0.72176409 0.50973451
vt 0.80485874 0.58480603
vt 0.7659561 0.50626749
vt 0.70489889 0.46389645
vt 0.80923176 0.65312856
vt 0.4446151 0.25648135
vt 0.65029341 0.44911039
vt 0.47030562 0.25904125
vt 0.49624303 0.28146273
vt 0.58147579 0.34531885
vt 0.074791275 0.68177581
vt 0.076313213 0.67031759
vt 0.082029611 0.71521467
vt 0.085873805 0.73829883
vt 0.049748935 0.59200305
vt 0.13392226 0.20993793
vt 0.16393563 0.19056082
vt 0.35499644 0.19048333
vt 0.40381655 0.22565007
vt 0.30986696 0.19049859
vt 0.013999042 0.2584452
vt 0.047858879 0.2523641
vt 0.004374058 0.44030011
vt 0.019173341 0.52935082
vt 0.0058854041 0.56177783
vt 0.15035191 0.80303699
vt 0.104785 0.78040177
vt 0.15172701 0.87956804
vt 0.16784149 0.96486849
vt 0.19332591 0.99530095
vt 0.7567997 0.48484296
vt 0.8087123 0.53365231
vt 0.80921972 0.6125809
vt 0.78886658 0.52104926
vt 0.80922204 0.62114495
vt 0.62337589 0.36072332
vt 0.67029905 0.42005801
vt 0.55129367 0.31844807
vt 0.54037064 0.27922922
vt 0.56905603 0.32078153
vt 0.070208564 0.72911417
vt 0.071933024 0.70945424
vt 0.058399264 0.67285621
vt 0.070987277 0.7574085
vt 0.01486619 0.60769063
vt 0.13006291 0.19056499
vt 0.1592847 0.19056159
vt 0.39464772 0.20185858
vt 0.4332017 0.23656058
vt 0.0043622144 0.39855206
vt 0.0043358291 0.32240731
vt 0.0043233186 0.2616815
vt 0.0043691462 0.42372406
vt 0.0043821908 0.47875261
vt 0.11874166 0.8051371
vt 0.10459968 0.79392958
vt 0.09107101 0.7787618
vt 0.10965404 0.88469547
vt 0.1335301 0.86861908
vt 0.13906699 0.96097469
vt 0.11314175 0.83352387
vt 0.72586375 0.45971513
vt 0.80921495 0.57847154
vt 0.80921805 0.59013593
vt 0.8064338 0.50121236
vt 0.46031111 0.23602188
vt 0.67082727 0.33161801
vt 0.6950624 0.3762067
vt 0.71739632 0.40849251
vt 0.49308547 0.25002897
vt 0.56641769 0.29469025
vt 0.52637982 0.25259
vt 0.62577701 0.32590789
vt 0.050020035 0.74406469
vt 0.035156209 0.6609081
vt 0.39800227 0.19046617
vt 0.43053448 0.20690227
vt 0.0043481225 0.36616307
vt 0.004337945 0.33130002
vt 0.0043250415 0.28489321
vt 0.031982999 0.22627455
vt 0.004319814 0.2474879
vt 0.037994068 0.20343286
vt 0.11599126 0.19056439
vt 0.0043929955 0.51791656
vt 0.0043837158 0.48631358
vt 0.0044035991 0.55979556
vt 0.13009323 0.91426861
vt 0.14971547 0.97257173
vt 0.18696351 0.99530381
vt 0.78284699 0.47628033
vt 0.77499855 0.44665998
vt 0.80918664 0.5343796
vt 0.80921751 0.5824427
vt 0.809219 0.58512318
vt 0.63746369 0.30830425
vt 0.56958234 0.24466854
vt 0.59278339 0.29267699
vt 0.046259727 0.7187494
vt 0.04729661 0.68976593
vt 0.053249516 0.75735509
vt 0.061020236 0.77724528
vt 0.015310989 0.64166898
vt 0.0044217193 0.60652602
vt 0.41184682 0.19046271
vt 0.44828442 0.21075386
vt 0.0043471837 0.35240376
vt 0.013913801 0.22172046
vt 0.083897941 0.19969606
vt 0.0043849396 0.48937398
vt 0.0043943692 0.53349698
vt 0.0044054622 0.56389558
vt 0.078419194 0.79582673
vt 0.094532035 0.84935713
vt 0.10952951 0.934892
vt 0.18013257 0.99530584
vt 0.1185017 0.96934408
vt 0.74656451 0.42710322
vt 0.80917758 0.50283754
vt 0.80918598 0.53328431
vt 0.79624635 0.46340787
vt 0.4988983 0.22758967
vt 0.69572049 0.32472259
vt 0.72220588 0.34964788
vt 0.55195493 0.20289671
vt 0.61681378 0.27621132
vt 0.031116677 0.72343564
vt 0.020214116 0.68448335
vt 0.050415333 0.77732098
vt 0.024153708 0.75780159
vt 0.0044398829 0.64795631
vt 0.0044321287 0.63178229
vt 0.41499966 0.19046199
vt 0.42951638 0.19045657
vt 0.004310742 0.22964662
vt 0.070202664 0.19057161
vt 0.097821094 0.19056535
vt 0.096505634 0.81712711
vt 0.062981136 0.88453829
vt 0.090705149 0.90917212
vt 0.17286298 0.9953087
vt 0.74659145 0.37785661
vt 0.79480779 0.40305424
vt 0.80917692 0.5007304
vt 0.8091768 0.46551293
vt 0.68075335 0.279769
vt 0.58103746 0.22114944
vt 0.60626417 0.2542178
vt 0.64980114 0.26202464
vt 0.029769389 0.69687665
vt 0.0044472851 0.66496128
vt 0.053993195 0.80109996
vt 0.004441821 0.65512848
vt 0.42084777 0.19046122
vt 0.47069466 0.19043535
vt 0.010571772 0.19059271
vt 0.0043049809 0.2181555
vt 0.039778437 0.19058347
vt 0.087381572 0.19056714
vt 0.061074629 0.83126223
vt 0.05162001 0.86481047
vt 0.084983259 0.95268679
vt 0.13740343 0.99532318
vt 0.80710357 0.42918885
vt 0.8091777 0.49637586
vt 0.80917317 0.45694488
vt 0.47793299 0.19043243
vt 0.70992309 0.31984514
vt 0.72808886 0.33769327
vt 0.52454054 0.19042283
vt 0.5840643 0.19774735
vt 0.6036188 0.22307611
vt 0.6292063 0.25019729
vt 0.014861893 0.73884839
vt 0.0044760946 0.71486235
vt 0.0044564409 0.68870437
vt 0.0044730157 0.71014339
vt 0.041796893 0.79612172
vt 0.027908111 0.19058818
vt 0.033842109 0.19058686
vt 0.040235821 0.88372552
vt 0.06930232 0.90352321
vt 0.047802307 0.94341356
vt 0.044727374 0.97430873
vt 0.12554392 0.99532855
vt 0.8091622 0.43117273
vt 0.77464521 0.37951535
vt 0.80915779 0.40200394
vt 0.64636624 0.22085226
vt 0.69339621 0.26694196
vt 0.54110473 0.19041944
vt 0.5609079 0.19042104
vt 0.6285702 0.23071951
vt 0.008537123 0.75749838
vt 0.0044785501 0.71931332
vt 0.0044623641 0.69747925
vt 0.021514118 0.80156207
vt 0.044990394 0.84177256
vt 0.0061307498 0.19059366
vt 0.028246477 0.91639471
vt 0.031172724 0.86188388
vt 0.073138669 0.99534392
vt 0.11195897 0.99533165
vt 0.80916172 0.4283154
vt 0.76512682 0.35647422
vt 0.79277879 0.3779211
vt 0.80916101 0.42461109
vt 0.69912946 0.23177975
vt 0.70504421 0.2456376
vt 0.7107929 0.27694798
vt 0.61191022 0.2021848
vt 0.57973307 0.19041973
vt 0.004498804 0.75465471
vt 0.0044833212 0.72525787
vt 0.031790715 0.81233984
vt 0.0042986348 0.19059402
vt 0.0071612829 0.89599639
vt 0.013664303 0.94893181
vt 0.0542228 0.99534976
vt 0.74911392 0.34759927
vt 0.78220499 0.3615765
vt 0.80916071 0.39212501
vt 0.64477861 0.19687319
vt 0.71953368 0.30586672
vt 0.59931636 0.19041157
vt 0.58609712 0.19041771
vt 0.0044929446 0.74229503
vt 0.017020049 0.80094838
vt 0.024511162 0.84253466
vt 0.0045225443 0.91808188
vt 0.0045125512 0.8952328
vt 0.0045353267 0.96339995
vt 0.017027993 0.98725021
vt 0.73531014 0.33297288
vt 0.77708519 0.33767319
vt 0.80192512 0.36770523
vt 0.67551214 0.19039446
vt 0.72031885 0.25401866
vt 0.72750318 0.29273254
vt 0.61533171 0.19040489
vt 0.0092232414 0.80862045
vt 0.0045303712 0.94189072
vt 0.0045136977 0.89806044
vt 0.0045104884 0.87512487
vt 0.0045044613 0.85132122
vt 0.0045315106 0.95020646
vt 0.041216586 0.99535292
vt 0.8091594 0.38137668
vt 0.65703791 0.19039726
vt 0.70924729 0.20194858
vt 0.73576653 0.2392087
vt 0.74223542 0.31102824
vt 0.63350391 0.19040012
vt 0.0045000534 0.83734328
vt 0.0045070946 0.86183286
vt 0.0045000799 0.84400892
vt 0.0045372499 0.97812963
vt 0.019529887 0.99535877
vt 0.80914587 0.35149568
vt 0.80915582 0.36992699
vt 0.68618554 0.19039106
vt 0.71178621 0.21714926
vt 0.72019225 0.22816998
vt 0.74670064 0.26705861
vt 0.0044909762 0.81297803
vt 0.0045396723 0.9829933
vt 0.012757281 0.99536204
vt 0.77460426 0.30113608
vt 0.80914015 0.34030509
vt 0.80915362 0.36412781
vt 0.70476925 0.19038355
vt 0.73254067 0.20990729
vt 0.73259604 0.22259355
vt 0.75322014 0.23579937
vt 0.0044890526 0.80806053
vt 0.010826763 0.99536294
vt 0.7980662 0.316351
vt 0.7163642 0.19037855
vt 0.77101499 0.26391053
vt 0.78210515 0.28333396
vt 0.0045454972 0.99536598
vt 0.80913734 0.33331758
vt 0.72584605 0.19036978
vt 0.76246053 0.19357032
vt 0.77389669 0.24158049
vt 0.80912441 0.27891958
vt 0.80913562 0.31719714
vt 0.73958212 0.19036156
vt 0.75944757 0.19035506
vt 0.80910283 0.23868006
vt 0.80910647 0.24528652
vt 0.8091265 0.28731328
vt 0.79222512 0.22274905
vt 0.76418841 0.1903528
vt 0.80910188 0.23457628
vt 0.80909425 0.20910543
vt 0.80909967 0.22934961
vt 0.77386594 0.19034898
vt 0.80909145 0.20265293
vt 0.8090955 0.21988559
vt 0.78357178 0.19034559
vt 0.80908561 0.19033664
vt 0.8442865 0.96759391
vt 0.89677233 0.99257118
vt 0.84526008 0.98812789
vt 0.81699181 0.99605006
vt 0.94826692 0.94687229
vt 0.95836735 0.96167523
vt 0.95107281 0.97839934
vt 0.93328524 0.96888852
vt 0.95968533 0.93483686
vt 0.9308629 0.98528367
vt 0.93011707 0.92818725
vt 0.91346025 0.98753148
vt 0.91205806 0.9619745
vt 0.9133203 0.98199892
vt 0.91388065 0.9935016
vt 0.91105217 0.9484337
vt 0.91882861 0.97647381
vt 0.91891116 0.99558634
vt 0.9142043 0.93048304
vt 0.91250765 0.96992254
vt 0.91405046 0.9954862
vt 0.91051126 0.93866014
vt 0.91319489 0.98084384
vt 0.90987259 0.93006086
vt 0.91340327 0.98564816
vt 0.83953524 0.93763852
vt 0.84841388 0.96492958
vt 0.82507861 0.94522381
vt 0.82701385 0.95213521
vt 0.82516116 0.96433634
vt 0.81965327 0.95439816
vt 0.88710731 0.93771112
vt 0.88656086 0.96133918
vt 0.85622758 0.96194369
vt 0.8477717 0.94094294
vt 0.89663368 0.95095074
vt 0.89322519 0.96397001
vt 0.8995198 0.93725872
vt 0.83828783 0.93266499
vt 0.83875281 0.90614188
vt 0.85830343 0.90372431
vt 0.81713957 0.90718913
vt 0.86103415 0.92341214
vt 0.87152028 0.92234182
vt 0.87154448 0.93415558
vt 0.86578411 0.92170453
vt 0.85966879 0.90341079
vt 0.87917793 0.92136097
vt 0.84751076 0.93164313
vt 0.87887019 0.92581594
usemtl Tile_+032_+024_L20_0003120_0
f 145/1 146/2 212/3
f 244/214 153/177 273/245
f 448/609 203/590 161/548
f 448/609 451/626 203/590
f 18/88 179/176 181/147
f 163/68 154/36 108/91
f 247/437 440/468 514/405
f 441/484 310/390 229/452
f 130/99 152/160 134/97
f 123/151 213/212 60/244
f 450/523 513/467 161/548
f 191/263 187/295 220/230
f 155/274 322/308 157/342
f 449/434 55/454 515/513
f 220/230 184/231 165/169
f 192/451 214/508 442/509
f 177/539 308/603 302/583
f 302/583 307/536 177/539
f 307/536 193/483 177/539
f 54/716 31/717 53/718
f 281/369 264/304 4/368
f 250/224 42/135 290/192
f 73/264 35/299 89/324
f 76/144 166/203 80/173
f 85/106 70/62 44/83
f 202/610 453/607 162/570
f 315/408 314/438 510/374
f 185/359 190/389 230/420
f 58/343 148/341 514/405
f 202/610 447/638 453/607
f 21/15 46/24 69/34
f 69/34 71/65 114/87
f 226/259 293/293 500/319
f 429/387 292/355 254/418
f 292/355 429/387 500/319
f 96/397 3/399 268/330
f 96/397 297/398 522/459
f 84/323 285/302 133/366
f 271/475 257/458 255/515
f 295/431 296/490 269/492
f 291/328 285/302 278/266
f 115/199 165/169 98/109
f 288/289 250/224 91/287
f 175/415 271/475 253/417
f 113/107 82/47 178/84
f 233/272 126/208 93/273
f 234/271 512/370 294/334
f 297/398 512/370 526/432
f 93/273 50/337 48/373
f 49/372 454/424 449/434
f 251/202 248/143 75/145
f 178/84 70/62 85/106
f 524/460 96/397 528/488
f 294/334 297/398 95/331
f 448/609 444/627 529/651
f 245/465 246/436 26/403
f 531/586 159/559 532/584
f 12/297 160/234 243/298
f 28/358 310/390 243/298
f 514/405 121/406 58/343
f 323/375 322/308 317/280
f 324/278 317/280 322/308
f 68/200 165/169 184/231
f 513/467 450/523 440/468
f 245/465 197/466 246/436
f 215/152 153/177 244/214
f 247/437 514/405 148/341
f 513/467 452/549 161/548
f 151/69 209/67 199/51
f 301/624 447/638 309/650
f 310/390 454/424 11/360
f 210/277 122/338 208/243
f 157/342 148/341 155/274
f 155/274 148/341 59/275
f 211/276 273/245 59/275
f 147/404 63/497 513/467
f 247/437 147/404 513/467
f 304/470 446/547 245/465
f 441/484 511/512 55/454
f 318/571 445/524 311/526
f 526/432 5/402 537/463
f 45/136 44/83 42/135
f 86/138 238/167 178/84
f 6/433 449/434 536/496
f 516/541 511/512 539/540
f 539/540 441/484 540/562
f 132/195 237/137 241/227
f 55/454 454/424 310/390
f 157/342 322/308 510/374
f 305/721 309/729 541/726
f 453/607 200/569 162/570
f 162/570 200/569 450/523
f 29/561 124/522 200/569
f 309/650 447/638 533/663
f 443/592 509/591 452/549
f 443/592 448/609 161/548
f 161/548 509/591 443/592
f 161/548 203/590 162/570
f 122/338 303/435 26/403
f 63/497 445/524 513/467
f 315/408 316/344 682/377
f 682/377 313/310 684/409
f 444/627 319/593 547/641
f 158/155 312/246 317/280
f 314/438 320/498 62/469
f 547/641 321/642 550/666
f 321/642 319/593 688/628
f 692/550 320/498 693/525
f 62/469 147/404 314/438
f 147/404 510/374 314/438
f 687/611 311/526 689/612
f 318/571 311/526 319/593
f 323/375 317/280 316/344
f 314/438 315/408 683/439
f 693/525 314/438 694/499
f 313/310 312/246 695/309
f 273/245 61/213 59/275
f 510/374 323/375 315/408
f 60/244 322/308 155/274
f 317/280 324/278 158/155
f 228/421 229/452 310/390
f 310/390 28/358 228/421
f 301/738 309/741 300/740
f 305/754 300/755 309/756
f 532/584 307/536 551/604
f 301/760 298/758 306/757
f 305/606 301/624 306/637
f 303/435 121/406 304/470
f 551/604 302/583 552/623
f 300/755 298/758 553/759
f 298/737 301/738 299/739
f 300/740 299/739 301/738
f 177/722 298/719 555/724
f 512/370 242/335 5/402
f 29/561 53/587 31/538
f 305/721 298/719 53/718
f 535/654 202/610 557/664
f 441/484 52/537 518/560
f 51/371 48/373 6/433
f 11/360 454/424 49/372
f 269/492 13/517 632/565
f 14/430 296/490 295/431
f 632/565 559/566 676/608
f 14/430 295/431 4/368
f 521/461 3/399 525/489
f 289/401 282/400 281/369
f 95/331 96/397 268/330
f 3/399 4/368 268/330
f 261/267 223/270 95/331
f 234/271 294/334 223/270
f 278/266 267/396 626/394
f 166/203 76/144 16/146
f 292/355 293/293 272/318
f 636/455 289/401 637/493
f 279/301 280/265 628/326
f 289/401 94/361 36/333
f 264/304 281/369 265/305
f 166/203 73/264 283/238
f 282/400 289/401 36/333
f 262/268 268/330 264/304
f 80/173 166/203 283/238
f 295/431 281/369 4/368
f 280/265 72/300 644/325
f 637/493 270/518 640/546
f 281/369 295/431 289/401
f 644/325 88/362 646/392
f 252/236 84/323 90/288
f 251/202 286/225 248/143
f 288/289 83/351 174/352
f 250/224 288/289 77/226
f 248/143 114/87 75/145
f 275/479 171/481 254/418
f 288/289 287/317 77/226
f 174/352 272/318 77/226
f 42/135 248/143 290/192
f 638/545 269/492 649/567
f 266/332 36/333 34/269
f 265/305 266/332 34/269
f 262/268 264/304 43/240
f 265/305 43/240 264/304
f 80/173 263/204 75/145
f 37/174 262/268 43/240
f 260/239 38/205 261/267
f 258/486 257/458 256/428
f 258/486 255/515 257/458
f 253/417 275/479 254/418
f 174/352 287/317 288/289
f 249/257 290/192 286/225
f 248/143 286/225 290/192
f 285/302 84/323 252/236
f 271/475 175/415 257/458
f 631/427 291/328 652/393
f 252/236 251/202 75/145
f 263/204 279/301 643/327
f 280/265 263/204 283/238
f 282/400 266/332 281/369
f 92/425 94/361 289/401
f 280/265 279/301 263/204
f 278/266 263/204 653/303
f 650/367 278/266 654/329
f 83/351 133/366 259/395
f 286/225 251/202 252/236
f 288/289 91/287 83/351
f 275/479 253/417 271/475
f 277/448 429/387 254/418
f 174/352 175/415 253/417
f 254/418 276/385 253/417
f 274/531 171/481 275/479
f 172/534 274/531 648/579
f 656/543 258/486 657/563
f 647/576 255/515 658/564
f 274/531 275/479 271/475
f 271/475 255/515 274/531
f 204/743 206/744 219/745
f 131/139 113/107 237/137
f 241/227 237/137 239/194
f 243/298 160/234 182/235
f 165/169 115/199 220/230
f 109/172 182/235 160/234
f 12/297 11/360 231/306
f 310/390 11/360 243/298
f 51/371 242/335 232/336
f 227/209 221/207 179/176
f 221/207 181/147 179/176
f 233/272 242/335 234/271
f 239/194 240/258 241/227
f 86/138 167/197 238/167
f 240/258 239/194 167/197
f 167/197 239/194 238/167
f 178/84 238/167 237/137
f 225/260 226/259 236/320
f 220/230 187/295 183/294
f 233/272 227/209 126/208
f 234/271 222/241 221/207
f 232/336 233/272 93/273
f 233/272 221/207 227/209
f 231/306 11/360 49/372
f 27/357 185/359 230/420
f 229/452 228/421 230/420
f 167/197 79/196 225/260
f 77/226 226/259 79/196
f 79/196 226/259 225/260
f 189/89 118/114 112/50
f 699/41 218/19 700/28
f 206/31 142/20 219/13
f 209/67 216/115 176/116
f 194/242 244/214 210/277
f 244/214 194/242 120/178
f 25/464 245/465 26/403
f 31/538 66/510 56/453
f 122/338 211/276 58/343
f 192/451 230/420 190/389
f 211/276 210/277 244/214
f 273/245 211/276 244/214
f 61/213 273/245 153/177
f 176/116 217/154 123/151
f 120/178 215/152 244/214
f 158/155 213/212 217/154
f 143/92 158/155 217/154
f 150/39 201/12 144/42
f 205/118 119/153 189/89
f 143/92 217/154 216/115
f 163/68 107/117 215/152
f 168/307 65/262 208/243
f 214/508 192/451 23/450
f 216/115 151/69 143/92
f 40/339 246/436 196/391
f 217/154 213/212 123/151
f 145/1 212/3 1/4
f 697/71 144/42 703/54
f 176/116 216/115 217/154
f 201/12 150/39 207/27
f 201/12 218/19 149/29
f 150/39 198/40 207/27
f 206/744 204/743 704/747
f 194/242 208/243 224/149
f 45/136 41/193 78/166
f 164/148 173/171 126/208
f 223/270 261/267 38/205
f 222/241 180/175 221/207
f 183/294 184/231 220/230
f 110/86 99/64 98/109
f 191/263 186/321 187/295
f 120/178 205/118 215/152
f 216/115 209/67 151/69
f 158/155 143/92 698/119
f 219/745 212/746 204/743
f 212/3 219/13 141/8
f 139/18 207/27 198/40
f 201/12 207/27 2/11
f 141/8 219/13 142/20
f 150/39 151/69 198/40
f 120/178 119/153 205/118
f 128/49 136/53 189/89
f 154/36 163/68 156/52
f 196/391 197/466 56/453
f 193/483 23/450 57/423
f 224/149 195/210 194/242
f 196/391 246/436 197/466
f 192/750 188/751 23/752
f 209/67 154/36 199/51
f 189/89 112/50 128/49
f 1/4 212/3 141/8
f 156/52 106/17 154/36
f 188/422 186/321 24/388
f 185/359 187/295 186/321
f 24/388 64/322 57/423
f 186/321 64/322 24/388
f 184/231 183/294 235/296
f 184/231 182/235 68/200
f 39/112 181/147 180/175
f 126/208 227/209 164/148
f 164/148 179/176 18/88
f 82/47 70/62 178/84
f 98/109 117/140 32/170
f 67/142 110/86 104/141
f 113/107 131/139 81/85
f 152/160 130/99 10/126
f 131/139 129/108 81/85
f 146/2 47/9 204/6
f 54/716 66/720 31/717
f 121/406 514/405 440/468
f 202/610 162/570 203/590
f 1/4 141/8 201/12
f 446/547 200/569 124/522
f 170/201 173/171 102/110
f 171/481 274/531 172/534
f 169/340 65/262 168/307
f 73/264 166/203 97/237
f 161/548 452/549 509/591
f 19/113 173/171 164/148
f 156/52 163/68 136/53
f 193/483 214/508 23/450
f 12/297 125/233 160/234
f 269/492 296/490 13/517
f 35/299 73/264 97/237
f 324/278 60/244 158/155
f 82/47 21/15 69/34
f 105/37 156/52 136/53
f 145/1 1/4 138/7
f 317/280 313/310 316/344
f 110/86 17/48 99/64
f 700/28 141/8 709/30
f 139/18 2/11 207/27
f 144/42 151/69 150/39
f 147/404 247/437 148/341
f 140/5 47/9 146/2
f 139/18 138/7 2/11
f 138/7 8/10 145/1
f 2/11 1/4 201/12
f 59/275 61/213 155/274
f 213/212 158/155 60/244
f 108/91 209/67 176/116
f 199/51 154/36 139/18
f 2/11 138/7 1/4
f 146/2 145/1 140/5
f 123/151 61/213 153/177
f 137/76 111/58 134/97
f 10/126 129/108 152/160
f 111/58 137/76 22/45
f 112/50 101/66 46/24
f 17/48 110/86 102/110
f 101/66 99/64 46/24
f 107/117 163/68 108/91
f 105/37 7/26 106/17
f 110/86 67/142 102/110
f 100/90 99/64 101/66
f 102/110 109/172 170/201
f 34/269 97/237 15/206
f 89/324 35/299 94/361
f 51/371 232/336 93/273
f 88/362 92/425 636/455
f 83/351 91/287 90/288
f 72/300 89/324 88/362
f 87/105 42/135 44/83
f 78/166 86/138 85/106
f 90/288 84/323 83/351
f 22/45 21/15 111/58
f 82/47 81/85 9/63
f 171/481 277/448 254/418
f 21/15 82/47 9/63
f 237/137 238/167 239/194
f 74/111 76/144 80/173
f 77/226 79/196 78/166
f 73/264 72/300 283/238
f 75/145 74/111 80/173
f 76/144 74/111 71/65
f 261/267 262/268 260/239
f 43/240 265/305 34/269
f 16/146 76/144 71/65
f 70/62 82/47 69/34
f 86/138 178/84 85/106
f 44/83 70/62 69/34
f 125/233 170/201 160/234
f 20/35 112/50 46/24
f 104/141 68/200 67/142
f 8/10 20/35 46/24
f 68/200 109/172 67/142
f 102/110 67/142 109/172
f 112/50 118/114 100/90
f 101/66 112/50 100/90
f 140/5 8/10 21/15
f 7/26 127/38 8/10
f 128/49 127/38 136/53
f 7/26 105/37 136/53
f 199/51 198/40 151/69
f 152/160 135/159 134/97
f 84/323 133/366 83/351
f 131/139 237/137 132/195
f 141/8 218/19 201/12
f 136/53 127/38 7/26
f 9/63 10/126 130/99
f 129/108 10/126 9/63
f 17/48 69/34 46/24
f 156/52 105/37 106/17
f 108/91 123/151 107/117
f 303/435 122/338 121/406
f 100/90 118/114 103/150
f 99/64 100/90 117/140
f 32/170 116/232 115/199
f 107/117 153/177 215/152
f 65/262 33/211 208/243
f 99/64 17/48 46/24
f 32/170 115/199 98/109
f 114/87 74/111 75/145
f 77/226 78/166 41/193
f 234/271 221/207 233/272
f 88/362 94/361 92/425
f 94/361 35/299 36/333
f 42/135 41/193 45/136
f 26/403 246/436 40/339
f 43/240 15/206 37/174
f 180/175 38/205 39/112
f 95/331 223/270 294/334
f 37/174 39/112 38/205
f 34/269 36/333 35/299
f 34/269 15/206 43/240
f 160/234 170/201 109/172
f 109/172 68/200 182/235
f 32/170 103/150 33/211
f 54/716 298/719 177/722
f 29/561 31/538 30/511
f 27/357 228/421 28/358
f 23/450 188/422 24/388
f 191/263 65/262 64/322
f 62/469 445/524 63/497
f 61/213 60/244 155/274
f 157/342 510/374 147/404
f 58/343 211/276 59/275
f 69/34 17/48 71/65
f 205/118 163/68 215/152
f 56/453 193/483 57/423
f 66/510 193/483 56/453
f 260/239 262/268 37/174
f 280/265 283/238 72/300
f 39/112 37/174 16/146
f 298/719 54/716 53/718
f 310/390 441/484 55/454
f 51/371 6/433 5/402
f 48/373 50/337 49/372
f 17/48 102/110 19/113
f 16/146 97/237 166/203
f 9/63 111/58 21/15
f 71/65 74/111 114/87
f 21/15 8/10 46/24
f 19/113 18/88 17/48
f 71/65 17/48 18/88
f 15/206 97/237 16/146
f 37/174 15/206 16/146
f 13/517 296/490 14/430
f 5/402 6/433 562/494
f 297/398 294/334 512/370
f 4/368 3/399 14/430
f 140/5 145/1 8/10
f 130/99 111/58 9/63
f 34/269 35/299 97/237
f 300/755 306/757 298/758
f 305/754 306/757 300/755
f 182/235 184/231 235/296
f 446/547 304/470 450/523
f 291/328 284/457 256/428
f 449/434 454/424 55/454
f 299/739 300/740 554/742
f 231/306 93/273 125/233
f 161/548 162/570 450/523
f 202/610 203/590 451/626
f 202/610 451/626 544/640
f 453/607 301/624 29/561
f 200/569 453/607 29/561
f 452/549 445/524 318/571
f 214/508 307/536 159/559
f 442/509 214/508 159/559
f 302/583 308/603 568/622
f 290/192 249/257 250/224
f 28/358 183/294 27/357
f 708/16 47/9 711/25
f 301/624 305/606 29/561
f 138/7 106/17 8/10
f 157/342 147/404 148/341
f 510/374 322/308 323/375
f 106/17 7/26 8/10
f 114/87 87/105 69/34
f 85/106 45/136 78/166
f 293/293 292/355 500/319
f 85/106 44/83 45/136
f 259/395 133/366 291/328
f 278/266 285/302 252/236
f 77/226 287/317 174/352
f 257/458 259/395 256/428
f 48/373 49/372 449/434
f 126/208 125/233 93/273
f 48/373 51/371 93/273
f 268/330 4/368 264/304
f 449/434 6/433 48/373
f 77/226 41/193 250/224
f 242/335 51/371 5/402
f 304/470 25/464 303/435
f 451/626 448/609 530/639
f 197/466 245/465 124/522
f 124/522 30/511 197/466
f 192/750 190/753 188/751
f 122/338 210/277 211/276
f 40/339 168/307 208/243
f 208/243 122/338 40/339
f 200/569 446/547 450/523
f 192/451 442/509 229/452
f 229/452 230/420 192/451
f 305/606 53/587 29/561
f 124/522 245/465 446/547
f 208/243 194/242 210/277
f 148/341 58/343 59/275
f 452/549 513/467 445/524
f 245/465 25/464 304/470
f 121/406 122/338 58/343
f 453/607 447/638 301/624
f 440/468 247/437 513/467
f 180/175 181/147 221/207
f 311/526 445/524 62/469
f 303/435 25/464 26/403
f 63/497 147/404 62/469
f 318/571 443/592 452/549
f 298/719 305/721 542/723
f 319/593 443/592 318/571
f 230/420 228/421 27/357
f 712/43 206/31 713/56
f 315/408 323/375 316/344
f 62/469 320/498 311/526
f 319/593 444/627 443/592
f 444/627 448/609 443/592
f 681/215 158/155 706/179
f 60/244 324/278 322/308
f 703/54 149/29 707/70
f 242/335 512/370 234/271
f 49/372 50/337 231/306
f 441/484 442/509 52/537
f 441/484 229/452 442/509
f 555/724 299/728 566/731
f 308/730 177/722 556/727
f 193/483 66/510 177/539
f 442/509 159/559 52/537
f 66/720 54/716 177/722
f 64/322 186/321 191/263
f 193/483 307/536 214/508
f 243/298 11/360 12/297
f 261/267 95/331 268/330
f 96/397 95/331 297/398
f 270/518 289/401 269/492
f 94/361 88/362 89/324
f 75/145 263/204 252/236
f 249/257 90/288 91/287
f 41/193 42/135 250/224
f 261/267 268/330 262/268
f 258/486 284/457 651/514
f 256/428 284/457 258/486
f 286/225 252/236 90/288
f 90/288 249/257 286/225
f 272/318 293/293 77/226
f 291/328 278/266 635/365
f 293/293 226/259 77/226
f 276/385 292/355 272/318
f 174/352 276/385 272/318
f 263/204 80/173 283/238
f 281/369 266/332 265/305
f 289/401 295/431 269/492
f 259/395 257/458 175/415
f 276/385 174/352 253/417
f 133/366 285/302 291/328
f 237/137 113/107 178/84
f 83/351 259/395 175/415
f 291/328 256/428 259/395
f 252/236 263/204 278/266
f 266/332 282/400 36/333
f 83/351 175/415 174/352
f 276/385 254/418 292/355
f 86/138 79/196 167/197
f 182/235 235/296 243/298
f 61/213 123/151 60/244
f 243/298 235/296 28/358
f 125/233 12/297 231/306
f 116/232 32/170 65/262
f 38/205 180/175 222/241
f 242/335 233/272 232/336
f 78/166 79/196 86/138
f 220/230 115/199 191/263
f 27/357 183/294 187/295
f 165/169 68/200 104/141
f 165/169 104/141 98/109
f 113/107 81/85 82/47
f 231/306 50/337 93/273
f 235/296 183/294 28/358
f 179/176 164/148 227/209
f 224/149 103/150 118/114
f 154/36 209/67 108/91
f 163/68 205/118 136/53
f 65/262 169/340 64/322
f 30/511 31/538 56/453
f 56/453 197/466 30/511
f 149/29 144/42 201/12
f 20/35 8/10 128/49
f 120/178 194/242 195/210
f 186/321 188/422 190/389
f 57/423 196/391 56/453
f 168/307 40/339 169/340
f 40/339 196/391 169/340
f 26/403 40/339 122/338
f 440/468 450/523 304/470
f 304/470 121/406 440/468
f 108/91 176/116 123/151
f 196/391 57/423 64/322
f 119/153 120/178 195/210
f 224/149 119/153 195/210
f 64/322 169/340 196/391
f 139/18 198/40 199/51
f 144/42 143/92 151/69
f 709/30 142/20 712/43
f 185/359 27/357 187/295
f 38/205 222/241 223/270
f 222/241 234/271 223/270
f 189/89 119/153 224/149
f 33/211 65/262 32/170
f 115/199 116/232 191/263
f 103/150 224/149 33/211
f 136/53 205/118 189/89
f 112/50 20/35 128/49
f 208/243 33/211 224/149
f 191/263 116/232 65/262
f 186/321 190/389 185/359
f 128/49 8/10 127/38
f 189/89 224/149 118/114
f 57/423 23/450 24/388
f 173/171 170/201 125/233
f 125/233 126/208 173/171
f 19/113 102/110 173/171
f 248/143 87/105 114/87
f 87/105 248/143 42/135
f 103/150 32/170 117/140
f 98/109 104/141 110/86
f 9/63 81/85 129/108
f 212/3 146/2 204/6
f 139/18 106/17 138/7
f 154/36 106/17 139/18
f 153/177 107/117 123/151
f 111/58 130/99 134/97
f 19/113 164/148 18/88
f 250/224 249/257 91/287
f 89/324 72/300 73/264
f 30/511 124/522 29/561
f 98/109 99/64 117/140
f 100/90 103/150 117/140
f 312/246 313/310 317/280
f 38/205 260/239 37/174
f 39/112 18/88 181/147
f 44/83 69/34 87/105
f 71/65 18/88 39/112
f 71/65 39/112 16/146
f 13/517 14/430 520/491
f 359/292 383/354 404/348
f 375/285 388/218 402/282
f 717/22 455/23 718/44
f 379/129 432/77 431/128
f 336/501 364/552 362/573
f 429/387 426/447 428/386
f 421/681 427/659 660/687
f 419/693 422/682 421/681
f 419/693 420/702 400/694
f 329/683 419/693 400/694
f 367/445 353/419 368/482
f 571/597 365/615 572/631
f 416/412 415/443 414/380
f 360/283 346/281 413/187
f 407/125 412/130 408/98
f 411/190 410/189 575/253
f 408/98 137/76 407/125
f 403/313 402/282 401/249
f 329/683 400/694 399/688
f 398/134 397/82 396/104
f 373/411 372/346 414/380
f 380/413 361/446 342/478
f 335/500 336/501 363/530
f 377/79 379/129 378/161
f 375/285 372/346 376/381
f 374/185 349/186 348/184
f 369/379 371/410 370/312
f 378/161 349/186 388/218
f 336/501 337/440 387/471
f 385/712 341/713 386/714
f 367/445 368/482 350/505
f 336/501 340/527 364/552
f 361/446 344/383 345/477
f 358/673 357/689 356/677
f 344/383 351/476 345/477
f 340/527 342/478 341/551
f 240/258 339/291 338/290
f 335/500 337/440 336/501
f 328/617 332/598 331/632
f 325/581 327/580 326/620
f 485/168 489/229 384/198
f 501/557 506/535 354/507
f 172/534 343/506 171/481
f 501/557 503/582 506/535
f 327/580 172/534 662/601
f 326/620 327/580 664/634
f 427/659 328/617 666/646
f 427/659 334/671 328/617
f 505/647 423/618 328/617
f 358/673 424/648 505/647
f 422/682 329/683 330/660
f 669/698 421/681 670/697
f 334/671 427/659 421/681
f 666/646 331/632 671/658
f 330/660 333/672 422/682
f 508/686 356/677 357/689
f 436/555 430/558 332/598
f 457/630 465/644 366/645
f 362/573 364/552 571/597
f 582/668 465/644 583/678
f 345/477 463/532 496/533
f 457/630 484/614 465/644
f 508/686 357/689 586/695
f 341/551 507/629 484/614
f 358/673 330/660 329/683
f 507/629 385/643 465/644
f 463/532 436/555 504/577
f 350/505 368/482 506/535
f 356/677 508/686 465/644
f 583/678 508/686 585/691
f 385/643 507/629 341/551
f 399/688 358/673 329/683
f 330/660 505/647 328/617
f 430/558 506/535 503/582
f 330/660 328/617 333/672
f 328/617 334/671 333/672
f 332/598 328/617 436/555
f 476/556 343/506 172/534
f 277/448 171/481 343/506
f 425/619 424/648 439/633
f 350/505 430/558 436/555
f 502/602 332/598 430/558
f 421/681 333/672 334/671
f 328/617 423/618 436/555
f 430/558 503/582 502/602
f 325/581 502/602 501/557
f 331/632 332/598 325/581
f 332/598 502/602 325/581
f 352/449 426/447 355/480
f 504/577 439/633 385/643
f 351/476 463/532 345/477
f 367/445 350/505 351/476
f 436/555 463/532 350/505
f 367/445 351/476 344/383
f 500/319 429/387 428/386
f 354/507 355/480 343/506
f 343/506 501/557 354/507
f 430/558 350/505 506/535
f 353/419 352/449 368/482
f 352/449 353/419 428/386
f 353/419 367/445 497/356
f 352/449 354/507 368/482
f 354/507 506/535 368/482
f 426/447 429/387 355/480
f 426/447 352/449 428/386
f 236/320 428/386 497/356
f 429/387 277/448 355/480
f 277/448 343/506 355/480
f 502/602 503/582 501/557
f 343/506 476/556 325/581
f 423/618 435/599 436/555
f 358/673 399/688 357/689
f 580/705 419/693 590/708
f 439/633 504/577 425/619
f 463/532 504/577 496/533
f 386/578 496/533 504/577
f 385/712 386/714 504/715
f 341/551 496/533 386/578
f 390/188 456/163 378/161
f 359/292 338/290 383/354
f 391/474 416/412 335/500
f 391/474 415/443 416/412
f 433/314 491/251 492/284
f 348/184 470/127 374/185
f 488/219 469/216 474/183
f 462/59 481/100 432/77
f 491/251 475/132 437/220
f 337/440 369/379 387/471
f 490/311 370/312 494/378
f 490/311 401/249 389/248
f 337/440 371/410 369/379
f 404/348 383/354 380/413
f 347/345 404/348 369/379
f 339/291 498/353 338/290
f 339/291 240/258 167/197
f 132/195 499/228 485/168
f 466/247 473/217 489/229
f 346/281 347/345 370/312
f 460/162 488/219 413/187
f 338/290 359/292 241/227
f 500/319 428/386 236/320
f 236/320 226/259 500/319
f 432/77 377/79 458/33
f 409/261 485/168 499/228
f 241/227 359/292 499/228
f 497/356 498/353 339/291
f 236/320 339/291 225/260
f 367/445 344/383 497/356
f 370/312 371/410 494/378
f 359/292 409/261 499/228
f 132/195 485/168 131/139
f 167/197 225/260 339/291
f 495/384 434/416 361/446
f 380/413 387/471 369/379
f 347/345 346/281 360/283
f 364/552 340/527 341/551
f 342/478 340/527 387/471
f 342/478 345/477 496/533
f 380/413 342/478 387/471
f 416/412 337/440 335/500
f 388/218 375/285 437/220
f 383/354 338/290 495/384
f 403/313 494/378 493/347
f 379/129 349/186 378/161
f 389/248 401/249 374/185
f 437/220 492/284 491/251
f 593/442 373/411 594/473
f 491/251 433/314 577/349
f 372/346 373/411 376/381
f 596/472 406/441 597/502
f 346/281 389/248 413/187
f 349/186 401/249 388/218
f 398/134 411/190 598/223
f 392/252 491/251 595/315
f 411/190 418/164 410/189
f 418/164 417/80 475/132
f 377/79 486/60 458/33
f 393/221 392/252 410/189
f 575/253 392/252 603/316
f 410/189 418/164 475/132
f 396/104 482/103 382/165
f 468/46 486/60 417/80
f 384/198 489/229 473/217
f 417/80 381/133 487/102
f 382/165 381/133 411/190
f 388/218 437/220 390/188
f 431/128 348/184 379/129
f 348/184 349/186 379/129
f 391/474 363/530 604/554
f 572/631 366/645 606/657
f 409/261 466/247 489/229
f 344/383 498/353 497/356
f 460/162 469/216 488/219
f 477/131 460/162 413/187
f 477/131 470/127 462/59
f 129/108 485/168 384/198
f 472/124 135/159 474/183
f 374/185 477/131 413/187
f 474/183 407/125 472/124
f 135/159 152/160 384/198
f 473/217 135/159 384/198
f 474/183 135/159 473/217
f 137/76 134/97 472/124
f 472/124 407/125 137/76
f 363/530 362/573 607/595
f 414/380 372/346 402/282
f 484/614 483/596 341/551
f 432/77 481/100 431/128
f 396/104 382/165 398/134
f 381/133 418/164 411/190
f 377/79 417/80 486/60
f 487/102 381/133 482/103
f 482/103 467/81 487/102
f 398/134 382/165 411/190
f 482/103 381/133 382/165
f 438/123 394/122 471/75
f 611/121 395/95 612/158
f 397/82 480/96 455/23
f 438/123 480/96 397/82
f 468/46 455/23 458/33
f 416/412 494/378 371/410
f 481/100 462/59 470/127
f 376/381 433/314 375/285
f 458/33 22/45 462/59
f 601/181 438/123 613/191
f 476/556 172/534 327/580
f 389/248 346/281 370/312
f 395/95 394/122 602/157
f 455/23 480/96 471/75
f 466/247 488/219 474/183
f 385/643 439/633 464/661
f 458/33 486/60 468/46
f 479/57 455/23 471/75
f 719/74 610/94 724/120
f 467/81 482/103 478/61
f 455/23 478/61 397/82
f 388/218 401/249 402/282
f 433/314 492/284 375/285
f 21/15 458/33 455/23
f 395/95 479/57 471/75
f 47/9 140/5 720/14
f 140/5 21/15 455/23
f 475/132 491/251 393/221
f 490/311 389/248 370/312
f 466/247 474/183 473/217
f 135/159 472/124 134/97
f 353/419 497/356 428/386
f 342/478 496/533 341/551
f 431/128 481/100 470/127
f 478/61 455/23 468/46
f 474/183 469/216 407/125
f 478/61 482/103 396/104
f 22/45 408/98 459/78
f 129/108 384/198 152/160
f 405/250 488/219 466/247
f 409/261 359/292 405/250
f 475/132 390/188 437/220
f 462/59 459/78 461/101
f 385/643 464/661 465/644
f 475/132 393/221 410/189
f 477/131 461/101 460/162
f 412/130 461/101 459/78
f 21/15 22/45 458/33
f 488/219 405/250 413/187
f 366/645 365/615 457/630
f 378/161 456/163 377/79
f 718/44 479/57 719/74
f 613/191 398/134 614/222
f 341/551 483/596 364/552
f 457/630 483/596 484/614
f 468/46 467/81 478/61
f 338/290 434/416 495/384
f 406/441 391/474 592/528
f 618/414 376/381 621/444
f 470/127 477/131 374/185
f 327/580 325/581 476/556
f 344/383 434/416 338/290
f 465/644 464/661 356/677
f 425/619 435/599 423/618
f 425/619 505/647 424/648
f 464/661 424/648 358/673
f 461/101 412/130 460/162
f 405/250 359/292 360/283
f 406/441 415/443 391/474
f 414/380 406/441 373/411
f 22/45 137/76 408/98
f 387/471 340/527 336/501
f 380/413 369/379 404/348
f 417/80 418/164 381/133
f 360/283 404/348 347/345
f 360/283 359/292 404/348
f 438/123 471/75 480/96
f 365/615 483/596 457/630
f 390/188 378/161 388/218
f 504/577 435/599 425/619
f 436/555 435/599 504/577
f 361/446 380/413 495/384
f 338/290 498/353 344/383
f 362/573 363/530 336/501
f 589/700 399/688 622/699
f 338/290 241/227 240/258
f 501/557 343/506 325/581
f 331/632 326/620 665/649
f 236/320 497/356 339/291
f 505/647 330/660 358/673
f 465/644 484/614 507/629
f 358/673 356/677 464/661
f 355/480 354/507 352/449
f 421/681 422/682 333/672
f 423/618 505/647 425/619
f 622/699 400/694 623/704
f 400/694 420/702 588/706
f 326/620 331/632 325/581
f 463/532 351/476 350/505
f 485/168 129/108 131/139
f 419/693 329/683 422/682
f 365/615 364/552 483/596
f 432/77 458/33 462/59
f 401/249 349/186 374/185
f 403/313 490/311 494/378
f 374/185 413/187 389/248
f 370/312 347/345 369/379
f 391/474 335/500 363/530
f 405/250 360/283 413/187
f 412/130 459/78 408/98
f 460/162 412/130 407/125
f 469/216 460/162 407/125
f 344/383 361/446 434/416
f 337/440 416/412 371/410
f 375/285 492/284 437/220
f 380/413 383/354 495/384
f 494/378 416/412 493/347
f 414/380 493/347 416/412
f 403/313 493/347 402/282
f 392/252 393/221 491/251
f 377/79 432/77 379/129
f 401/249 490/311 403/313
f 487/102 467/81 468/46
f 470/127 348/184 431/128
f 395/95 471/75 394/122
f 487/102 468/46 417/80
f 377/79 475/132 417/80
f 456/163 390/188 475/132
f 414/380 402/282 493/347
f 406/441 414/380 415/443
f 372/346 375/285 402/282
f 499/228 132/195 241/227
f 489/229 485/168 409/261
f 22/45 459/78 462/59
f 377/79 456/163 475/132
f 398/134 438/123 397/82
f 409/261 405/250 466/247
f 439/633 424/648 464/661
f 397/82 478/61 396/104
f 345/477 342/478 361/446
f 461/101 477/131 462/59
f 515/513 55/454 516/541
f 516/541 55/454 511/512
f 517/585 52/537 561/605
f 518/560 52/537 517/585
f 519/521 449/434 515/513
f 520/491 14/430 521/461
f 521/461 14/430 3/399
f 522/459 297/398 527/462
f 523/487 96/397 522/459
f 524/460 3/399 96/397
f 525/489 3/399 524/460
f 526/432 512/370 5/402
f 527/462 297/398 526/432
f 528/488 96/397 558/516
f 529/651 444/627 548/655
f 530/639 448/609 529/651
f 531/586 52/537 159/559
f 532/584 159/559 307/536
f 533/663 447/638 534/665
f 534/665 447/638 535/654
f 535/654 447/638 202/610
f 536/496 449/434 519/521
f 537/463 5/402 567/495
f 538/520 6/433 536/496
f 539/540 511/512 441/484
f 540/562 441/484 518/560
f 541/726 309/729 545/732
f 542/723 305/721 541/726
f 543/652 451/626 530/639
f 544/640 451/626 543/652
f 545/684 309/650 546/674
f 546/674 309/650 533/663
f 547/641 319/593 321/642
f 548/655 444/627 547/641
f 549/675 321/642 685/685
f 550/666 321/642 549/675
f 551/604 307/536 302/583
f 552/623 302/583 569/636
f 553/725 298/719 542/723
f 554/761 300/755 553/759
f 555/724 298/719 299/728
f 556/727 177/722 555/724
f 557/664 202/610 565/653
f 558/516 96/397 523/487
f 559/566 13/517 560/544
f 560/544 13/517 520/491
f 561/605 52/537 531/586
f 562/494 6/433 538/520
f 563/519 5/402 562/494
f 564/734 299/728 554/736
f 565/653 202/610 544/640
f 566/731 299/728 564/734
f 567/495 5/402 563/519
f 568/735 308/730 570/733
f 569/636 302/583 568/622
f 570/733 308/730 556/727
f 571/597 364/552 365/615
f 572/631 365/615 366/645
f 573/669 366/645 574/679
f 574/679 366/645 582/668
f 575/253 410/189 392/252
f 576/286 411/190 575/253
f 577/349 433/314 578/382
f 578/382 433/314 618/414
f 579/709 420/702 580/705
f 580/705 420/702 419/693
f 581/616 362/573 571/597
f 582/668 366/645 465/644
f 583/678 465/644 508/686
f 584/696 508/686 587/701
f 585/691 508/686 584/696
f 586/695 357/689 589/700
f 587/701 508/686 586/695
f 588/706 420/702 579/709
f 589/700 357/689 399/688
f 590/708 419/693 678/710
f 591/553 391/474 605/574
f 592/528 391/474 591/553
f 593/442 376/381 373/411
f 594/473 373/411 619/504
f 595/315 491/251 577/349
f 596/472 373/411 406/441
f 597/502 406/441 620/529
f 598/223 411/190 625/256
f 599/255 398/134 598/223
f 600/350 392/252 595/315
f 601/181 394/122 438/123
f 602/157 394/122 601/181
f 603/316 392/252 600/350
f 604/554 363/530 609/575
f 605/574 391/474 604/554
f 606/657 366/645 573/669
f 607/595 362/573 608/613
f 608/613 362/573 581/616
f 609/575 363/530 607/595
f 610/94 479/57 611/121
f 611/121 479/57 395/95
f 612/158 395/95 617/182
f 613/191 438/123 398/134
f 614/222 398/134 615/254
f 615/254 398/134 599/255
f 616/180 395/95 602/157
f 617/182 395/95 616/180
f 618/414 433/314 376/381
f 619/504 373/411 624/503
f 620/529 406/441 592/528
f 621/444 376/381 593/442
f 622/699 399/688 400/694
f 623/704 400/694 588/706
f 624/503 373/411 596/472
f 625/256 411/190 576/286
f 626/394 267/396 627/429
f 627/429 267/396 650/367
f 628/326 280/265 629/364
f 629/364 280/265 645/363
f 630/485 284/457 631/427
f 631/427 284/457 291/328
f 632/565 13/517 559/566
f 633/588 269/492 632/565
f 634/589 269/492 633/588
f 635/365 278/266 626/394
f 636/455 92/425 289/401
f 637/493 289/401 270/518
f 638/545 270/518 269/492
f 639/568 270/518 638/545
f 640/546 270/518 639/568
f 641/426 88/362 642/456
f 642/456 88/362 636/455
f 643/327 279/301 628/326
f 644/325 72/300 88/362
f 645/363 280/265 644/325
f 646/392 88/362 641/426
f 647/576 274/531 255/515
f 648/579 274/531 647/576
f 649/567 269/492 634/589
f 650/367 267/396 278/266
f 651/514 284/457 630/485
f 652/393 291/328 635/365
f 653/303 263/204 643/327
f 654/329 278/266 653/303
f 655/600 172/534 648/579
f 656/543 255/515 258/486
f 657/563 258/486 659/542
f 658/564 255/515 656/543
f 659/542 258/486 651/514
f 660/687 427/659 668/680
f 661/692 421/681 660/687
f 662/601 172/534 655/600
f 663/621 327/580 662/601
f 664/634 327/580 675/635
f 665/649 326/620 664/634
f 666/646 328/617 331/632
f 667/670 427/659 666/646
f 668/680 427/659 667/670
f 669/698 419/693 421/681
f 670/697 421/681 661/692
f 671/658 331/632 673/662
f 672/703 419/693 669/698
f 673/662 331/632 665/649
f 674/707 419/693 672/703
f 675/635 327/580 663/621
f 676/608 559/566 677/625
f 678/710 419/693 674/707
f 679/711 590/708 678/710
f 680/279 312/246 681/215
f 681/215 312/246 158/155
f 682/377 316/344 313/310
f 683/439 315/408 682/377
f 684/409 313/310 714/407
f 685/685 321/642 722/676
f 686/667 321/642 691/656
f 687/611 319/593 311/526
f 688/628 319/593 687/611
f 689/612 311/526 690/594
f 690/594 311/526 715/572
f 691/656 321/642 688/628
f 692/550 311/526 320/498
f 693/525 320/498 314/438
f 694/499 314/438 683/439
f 695/309 312/246 680/279
f 696/376 313/310 695/309
f 697/71 143/92 144/42
f 698/119 143/92 697/71
f 699/41 149/29 218/19
f 700/28 218/19 141/8
f 701/72 149/29 702/55
f 702/55 149/29 699/41
f 703/54 144/42 149/29
f 704/747 204/743 708/749
f 705/748 206/744 704/747
f 706/179 158/155 698/119
f 707/70 149/29 701/72
f 708/16 204/6 47/9
f 709/30 141/8 142/20
f 710/32 47/9 721/21
f 711/25 47/9 710/32
f 712/43 142/20 206/31
f 713/56 206/31 716/73
f 714/407 313/310 696/376
f 715/572 311/526 692/550
f 716/73 206/31 705/93
f 717/22 140/5 455/23
f 718/44 455/23 479/57
f 719/74 479/57 610/94
f 720/14 140/5 717/22
f 721/21 47/9 720/14
f 722/676 321/642 686/667
f 723/690 549/675 685/685
f 724/120 610/94 725/156
usemtl Tile_+032_+024_L20_0003120_untextured
