mtllib Tile_+032_+024_L20_0001200.mtl
v 6.39426328e+03 5.84108328e+03 2.37175116e+00
v 6.39421407e+03 5.84011090e+03 2.63554288e+00
v 6.39394269e+03 5.83947521e+03 2.47348691e+00
v 6.39357037e+03 5.84021427e+03 2.81488749e+00
v 6.39117959e+03 5.83569354e+03 1.92478071e+00
v 6.38984373e+03 5.83482359e+03 2.11569205e+00
v 6.40609808e+03 5.83220851e+03 2.65262888e+00
v 6.40312664e+03 5.84096064e+03 3.00969528e+00
v 6.40427475e+03 5.84185446e+03 2.64327773e+00
v 6.40248855e+03 5.82955018e+03 2.72431202e+00
v 6.40230137e+03 5.83026232e+03 2.80635520e+00
v 6.40165804e+03 5.83651561e+03 2.65694402e+00
v 6.40229543e+03 5.83785156e+03 3.02895028e+00
v 6.39999733e+03 5.83335691e+03 3.03981627e+00
v 6.40042753e+03 5.83232656e+03 2.61338209e+00
v 6.39575014e+03 5.82518065e+03 2.32554648e+00
v 6.39484711e+03 5.82694401e+03 2.11937882e+00
v 6.39489643e+03 5.82589075e+03 1.38096630e+00
v 6.39559444e+03 5.82681523e+03 2.43343785e+00
v 6.39615502e+03 5.82554565e+03 2.40830871e+00
v 6.39677822e+03 5.82486691e+03 1.64283597e+00
v 6.39783128e+03 5.82542124e+03 1.24974664e+00
v 6.38778450e+03 5.84235951e+03 4.52932425e-01
v 6.38863375e+03 5.84265622e+03 1.55997731e+00
v 6.38786510e+03 5.84065847e+03 1.07009442e+00
v 6.38674453e+03 5.84090907e+03 4.26809156e-01
v 6.39478501e+03 5.82287281e+03 3.77225973e-01
v 6.39868310e+03 5.81764820e+03 6.62558639e-01
v 6.38518722e+03 5.81252199e+03 1.31436403e-01
v 6.38599588e+03 5.81658071e+03 5.04612565e-01
v 6.38637410e+03 5.81409468e+03 5.07830789e-01
v 6.37562564e+03 5.81634212e+03 -2.30509409e-01
v 6.37721251e+03 5.81259432e+03 2.34739661e-02
v 6.40409992e+03 5.84110310e+03 2.73710503e+00
v 6.40417700e+03 5.84031317e+03 2.58831994e+00
v 6.39965970e+03 5.84080942e+03 2.77597797e+00
v 6.40126742e+03 5.84132964e+03 2.95311309e+00
v 6.39623310e+03 5.82925699e+03 2.47268626e+00
v 6.39640636e+03 5.83031024e+03 2.69614844e+00
v 6.39904563e+03 5.83237611e+03 2.56457971e+00
v 6.39800387e+03 5.83291650e+03 2.61642131e+00
v 6.39494101e+03 5.83231606e+03 2.61595171e+00
v 6.39446428e+03 5.83289061e+03 2.42818270e+00
v 6.39761433e+03 5.84188326e+03 2.45063979e+00
v 6.39649426e+03 5.84172778e+03 2.72089130e+00
v 6.40218983e+03 5.82810869e+03 2.45599909e+00
v 6.40167686e+03 5.82909779e+03 2.85174373e+00
v 6.40267753e+03 5.82853302e+03 2.44305135e+00
v 6.40254234e+03 5.82760103e+03 1.26127601e+00
v 6.39940438e+03 5.82737619e+03 2.26585763e+00
v 6.39852013e+03 5.82803401e+03 2.32839684e+00
v 6.39976530e+03 5.83891599e+03 2.72206012e+00
v 6.40073758e+03 5.83730639e+03 2.42517945e+00
v 6.40612961e+03 5.83076251e+03 2.52046979e+00
v 6.39881557e+03 5.83345216e+03 2.79890690e+00
v 6.39849411e+03 5.83412751e+03 2.46095943e+00
v 6.39320170e+03 5.84118858e+03 2.48028937e+00
v 6.39203286e+03 5.84270302e+03 2.31801882e+00
v 6.40493380e+03 5.83315250e+03 2.25556899e+00
v 6.40383814e+03 5.83306088e+03 2.15116060e+00
v 6.40535228e+03 5.83496819e+03 2.42903995e+00
v 6.39807999e+03 5.82942710e+03 1.98284457e+00
v 6.39949216e+03 5.82994616e+03 2.39131165e+00
v 6.39233357e+03 5.82693119e+03 2.12530552e+00
v 6.39279982e+03 5.82753915e+03 2.51904999e+00
v 6.39462256e+03 5.82770578e+03 2.19418992e+00
v 6.39494965e+03 5.82799301e+03 1.89700777e+00
v 6.39590645e+03 5.83768524e+03 2.72038230e+00
v 6.39670711e+03 5.83703009e+03 2.21214661e+00
v 6.39731723e+03 5.83361084e+03 2.02655131e+00
v 6.39612217e+03 5.83327057e+03 1.67691207e+00
v 6.40572848e+03 5.81529695e+03 7.30197668e-01
v 6.40526919e+03 5.81647703e+03 8.25332743e-01
v 6.40307678e+03 5.81613425e+03 9.05478536e-01
v 6.40069591e+03 5.81507883e+03 9.02931044e-01
v 6.40252448e+03 5.81259041e+03 7.72257916e-01
v 6.39627580e+03 5.82636592e+03 2.33494047e+00
v 6.38344971e+03 5.81656767e+03 1.86970611e-01
v 6.38207166e+03 5.81586549e+03 -1.37899610e-01
v 6.37971875e+03 5.81307301e+03 4.35106783e-01
v 6.38063754e+03 5.81310096e+03 2.68688895e-01
v 6.37769736e+03 5.81557465e+03 -1.15066478e-01
v 6.38590930e+03 5.81291980e+03 2.24945029e-01
v 6.37920844e+03 5.81600768e+03 -1.64518225e-01
v 6.38210742e+03 5.81253285e+03 3.39745829e-01
v 6.40306851e+03 5.83643339e+03 2.77559058e+00
v 6.40397148e+03 5.83715980e+03 2.24996527e+00
v 6.38694925e+03 5.82765157e+03 1.50476579e+00
v 6.38745555e+03 5.82696342e+03 8.73568919e-01
v 6.40268549e+03 5.83438086e+03 2.67137636e+00
v 6.40235508e+03 5.83561616e+03 2.50722040e+00
v 6.40629426e+03 5.84197103e+03 2.34267828e+00
v 6.40578256e+03 5.84139125e+03 2.36099450e+00
v 6.38616226e+03 5.83621086e+03 1.31496144e+00
v 6.38675662e+03 5.83530083e+03 2.34097352e+00
v 6.38156453e+03 5.82641327e+03 -1.52230485e-01
v 6.38301763e+03 5.82752557e+03 1.83938237e-01
v 6.39617358e+03 5.84266759e+03 2.27472042e+00
v 6.39787150e+03 5.82416592e+03 8.57016518e-01
v 6.39595490e+03 5.82433727e+03 1.68557732e+00
v 6.39451416e+03 5.82482906e+03 3.86393216e-01
v 6.39441550e+03 5.82710521e+03 2.22399907e+00
v 6.39358891e+03 5.82542577e+03 1.44274100e+00
v 6.39341563e+03 5.82663987e+03 2.47008656e+00
v 6.40525482e+03 5.83096503e+03 2.15418573e+00
v 6.39450669e+03 5.82587739e+03 1.30428959e+00
v 6.39023757e+03 5.82936430e+03 2.67784626e+00
v 6.39113478e+03 5.83044889e+03 2.46390029e+00
v 6.39055407e+03 5.83088597e+03 2.68481682e+00
v 6.40394215e+03 5.83456471e+03 2.14782956e+00
v 6.40346811e+03 5.83371603e+03 2.04257133e+00
v 6.39640294e+03 5.82726785e+03 2.05651238e+00
v 6.40500636e+03 5.83687507e+03 2.44588501e+00
v 6.40511840e+03 5.83804777e+03 2.17683562e+00
v 6.40503244e+03 5.84109298e+03 2.85647103e+00
v 6.40613521e+03 5.84016595e+03 2.02453413e+00
v 6.40152441e+03 5.82766084e+03 1.49827338e+00
v 6.40436285e+03 5.84310228e+03 2.80507446e+00
v 6.40232695e+03 5.83148909e+03 2.52321854e+00
v 6.40136182e+03 5.83027206e+03 2.49300871e+00
v 6.40573690e+03 5.83587032e+03 2.06644190e+00
v 6.40218707e+03 5.84180750e+03 2.52102505e+00
v 6.40265260e+03 5.84270507e+03 2.63283059e+00
v 6.40513314e+03 5.82943386e+03 1.45669625e+00
v 6.40612975e+03 5.82962082e+03 1.06921111e+00
v 6.40537649e+03 5.82895518e+03 6.96761664e-01
v 6.39518966e+03 5.83362514e+03 1.90125397e+00
v 6.40020863e+03 5.83588215e+03 2.30713478e+00
v 6.40114118e+03 5.83575950e+03 2.65568203e+00
v 6.40096045e+03 5.83436292e+03 2.34821370e+00
v 6.39819481e+03 5.83101485e+03 2.33519794e+00
v 6.39758071e+03 5.83200149e+03 2.13700467e+00
v 6.39359377e+03 5.83182735e+03 2.48853435e+00
v 6.39303356e+03 5.83107650e+03 2.17545240e+00
v 6.40088851e+03 5.82709331e+03 1.28418475e+00
v 6.40058982e+03 5.82782073e+03 2.10001129e+00
v 6.38639803e+03 5.83046180e+03 2.86458658e+00
v 6.38639157e+03 5.83099715e+03 2.72757706e+00
v 6.39913609e+03 5.83133243e+03 2.71470670e+00
v 6.40498436e+03 5.82717817e+03 4.55182946e-01
v 6.38837999e+03 5.82709343e+03 1.39580947e+00
v 6.39936656e+03 5.84300186e+03 2.91111968e+00
v 6.40507938e+03 5.84248174e+03 2.55801405e+00
v 6.38479249e+03 5.83283894e+03 1.85688803e+00
v 6.38440835e+03 5.83107287e+03 1.85570842e+00
v 6.38634437e+03 5.83709151e+03 6.99841119e-01
v 6.39956522e+03 5.84190389e+03 2.55729168e+00
v 6.40425810e+03 5.83862496e+03 2.40471342e+00
v 6.40588479e+03 5.83874588e+03 2.21483951e+00
v 6.40569937e+03 5.82970705e+03 1.99162367e+00
v 6.39558557e+03 5.83194042e+03 2.49998800e+00
v 6.38816667e+03 5.83070031e+03 2.14497701e+00
v 6.38626676e+03 5.82910742e+03 2.76463445e+00
v 6.38525913e+03 5.82809046e+03 2.08040894e+00
v 6.39086559e+03 5.82722361e+03 1.78832797e+00
v 6.39066531e+03 5.82647550e+03 1.34907873e+00
v 6.39730865e+03 5.82889395e+03 1.82117051e+00
v 6.38824495e+03 5.82700259e+03 4.91266561e-01
v 6.38797792e+03 5.83320314e+03 2.77410519e+00
v 6.38783352e+03 5.83412386e+03 2.91631033e+00
v 6.38461117e+03 5.83485355e+03 6.06208408e-01
v 6.38484083e+03 5.83423211e+03 1.74174703e+00
v 6.39496744e+03 5.84339030e+03 2.64429501e+00
v 6.39363850e+03 5.83797914e+03 2.64352149e+00
v 6.39291369e+03 5.83798011e+03 2.21698516e+00
v 6.38893147e+03 5.84114357e+03 1.69919729e+00
v 6.38411351e+03 5.82037602e+03 3.38305294e-01
v 6.38357081e+03 5.81771537e+03 1.73599806e-01
v 6.39422688e+03 5.84286298e+03 2.49676176e+00
v 6.38326442e+03 5.82170203e+03 -3.68902334e-02
v 6.38106439e+03 5.81848173e+03 -1.21631124e-01
v 6.39649742e+03 5.83599056e+03 2.51473513e+00
v 6.39475598e+03 5.82526421e+03 1.08934336e+00
v 6.40429719e+03 5.83647279e+03 2.25745692e+00
v 6.39223487e+03 5.82642381e+03 1.34179142e+00
v 6.39750330e+03 5.82331194e+03 9.96580436e-01
v 6.39747773e+03 5.82244509e+03 4.58662001e-01
v 6.37737829e+03 5.84163351e+03 -4.64368023e-01
v 6.39298980e+03 5.83972070e+03 2.63275178e+00
v 6.37654270e+03 5.82085698e+03 -2.92496104e-01
v 6.37853815e+03 5.82937684e+03 -2.98218349e-01
v 6.38576402e+03 5.83529224e+03 1.76002985e+00
v 6.38615450e+03 5.83483927e+03 2.25299414e+00
v 6.39614763e+03 5.82357855e+03 1.36958620e+00
v 6.39664697e+03 5.82357710e+03 1.48735831e+00
v 6.39122658e+03 5.84185377e+03 2.58650475e+00
v 6.39522944e+03 5.83998098e+03 2.86327352e+00
v 6.39260121e+03 5.84079881e+03 2.36725890e+00
v 6.39869183e+03 5.83886216e+03 2.81738249e+00
v 6.39764170e+03 5.83969639e+03 2.55060611e+00
v 6.39811828e+03 5.84124269e+03 2.33469601e+00
v 6.39694583e+03 5.84102891e+03 2.84437948e+00
v 6.39751972e+03 5.84371124e+03 2.55282555e+00
v 6.39009342e+03 5.84311644e+03 1.87678740e+00
v 6.39214520e+03 5.83980901e+03 2.57229940e+00
v 6.39035401e+03 5.84052513e+03 2.62605164e+00
v 6.39105566e+03 5.83917625e+03 2.63868149e+00
v 6.39175512e+03 5.83643779e+03 2.07695424e+00
v 6.39227614e+03 5.83768458e+03 2.12153143e+00
v 6.39253153e+03 5.83701291e+03 2.12145925e+00
v 6.38728204e+03 5.83621809e+03 2.59306398e+00
v 6.38828110e+03 5.83699496e+03 2.63697334e+00
v 6.38950776e+03 5.83402814e+03 2.21501966e+00
v 6.40241237e+03 5.84063008e+03 2.93959022e+00
v 6.40466287e+03 5.83956562e+03 2.50140896e+00
v 6.40359316e+03 5.84263355e+03 2.59780725e+00
v 6.40512769e+03 5.84022437e+03 2.76228004e+00
v 6.40138210e+03 5.84282320e+03 2.73436873e+00
v 6.40275824e+03 5.84370051e+03 2.53802527e+00
v 6.40341135e+03 5.83935490e+03 2.93353278e+00
v 6.39529242e+03 5.82745587e+03 2.02902306e+00
v 6.39617599e+03 5.82864475e+03 2.15062822e+00
v 6.39531982e+03 5.82884172e+03 2.11387278e+00
v 6.39746282e+03 5.83426975e+03 2.34127329e+00
v 6.39598170e+03 5.83419735e+03 2.08397281e+00
v 6.39687767e+03 5.83455717e+03 2.59866563e+00
v 6.39767102e+03 5.83553178e+03 2.50554521e+00
v 6.39508040e+03 5.82974528e+03 2.59394653e+00
v 6.39791576e+03 5.83722249e+03 2.64843326e+00
v 6.39775478e+03 5.83856363e+03 2.58549013e+00
v 6.39699690e+03 5.82957150e+03 2.13179415e+00
v 6.39923057e+03 5.83820550e+03 2.82063096e+00
v 6.40164712e+03 5.83265555e+03 2.70034240e+00
v 6.40077207e+03 5.83307914e+03 2.70323078e+00
v 6.40506629e+03 5.83577942e+03 2.31180146e+00
v 6.40331416e+03 5.83788836e+03 2.76772884e+00
v 6.39551541e+03 5.83608728e+03 2.67421057e+00
v 6.39485706e+03 5.83706708e+03 2.49317580e+00
v 6.39583285e+03 5.83682016e+03 2.52478111e+00
v 6.39922188e+03 5.83499450e+03 2.67000925e+00
v 6.39855162e+03 5.83536675e+03 2.72170908e+00
v 6.40572059e+03 5.83732968e+03 2.09838482e+00
v 6.39458531e+03 5.83913533e+03 2.71463146e+00
v 6.39734091e+03 5.83757056e+03 2.39239176e+00
v 6.39555323e+03 5.83539011e+03 2.49487158e+00
v 6.39462380e+03 5.83339435e+03 2.39796990e+00
v 6.39672107e+03 5.83167866e+03 2.59260459e+00
v 6.39808101e+03 5.82725998e+03 1.95254998e+00
v 6.39340611e+03 5.83643839e+03 2.43795651e+00
v 6.39450494e+03 5.83497139e+03 2.78651831e+00
v 6.39234937e+03 5.83551606e+03 2.63325443e+00
v 6.38804960e+03 5.82735409e+03 2.06571136e+00
v 6.38738632e+03 5.82855591e+03 2.41780573e+00
v 6.39041948e+03 5.82770063e+03 2.51594427e+00
v 6.39101816e+03 5.82858013e+03 2.67614999e+00
v 6.39163827e+03 5.82807849e+03 2.45874319e+00
v 6.39263478e+03 5.82927326e+03 2.18862761e+00
v 6.38605301e+03 5.83210807e+03 2.62992625e+00
v 6.38936277e+03 5.82841427e+03 2.71204812e+00
v 6.38942051e+03 5.82704982e+03 2.43293720e+00
v 6.38879126e+03 5.83171367e+03 2.36360233e+00
v 6.38878378e+03 5.83085142e+03 2.34035556e+00
v 6.39749503e+03 5.82753994e+03 1.65149615e+00
v 6.39662676e+03 5.83836633e+03 2.98047165e+00
v 6.39585305e+03 5.83934333e+03 2.76529485e+00
v 6.39445127e+03 5.83653791e+03 2.36278658e+00
v 6.40410148e+03 5.82976450e+03 2.64248189e+00
v 6.40403026e+03 5.82932702e+03 2.26009978e+00
v 6.40311826e+03 5.82917560e+03 2.65271236e+00
v 6.40011088e+03 5.82829337e+03 2.35832275e+00
v 6.39887085e+03 5.82666594e+03 1.66538802e+00
v 6.39192483e+03 5.83306024e+03 2.76707917e+00
v 6.39082943e+03 5.83259322e+03 2.84308366e+00
v 6.39368057e+03 5.83281558e+03 2.35849676e+00
v 6.38916648e+03 5.83077545e+03 2.73918275e+00
v 6.38920818e+03 5.83308867e+03 2.17468203e+00
v 6.39064531e+03 5.83392348e+03 2.64222727e+00
v 6.39137863e+03 5.83471353e+03 2.17208707e+00
v 6.38916543e+03 5.83216942e+03 2.35051497e+00
v 6.39592993e+03 5.83254787e+03 2.00133301e+00
v 6.40142491e+03 5.82843799e+03 2.66691316e+00
v 6.39396844e+03 5.83066047e+03 2.69153915e+00
v 6.39457640e+03 5.82914755e+03 2.64194994e+00
v 6.38870243e+03 5.82985440e+03 2.03902171e+00
v 6.38860695e+03 5.82910560e+03 2.14136360e+00
v 6.39406216e+03 5.82787527e+03 2.69326808e+00
v 6.39445148e+03 5.83392497e+03 2.74561676e+00
v 6.38995277e+03 5.83156026e+03 2.70776882e+00
v 6.39230461e+03 5.83416387e+03 2.62110638e+00
v 6.38847380e+03 5.83231726e+03 2.62663169e+00
v 6.38531345e+03 5.83038799e+03 2.10847363e+00
v 6.39128232e+03 5.82761700e+03 2.33623229e+00
v 6.38850716e+03 5.82813771e+03 2.32040553e+00
v 6.39218547e+03 5.83185959e+03 2.67610063e+00
v 6.39380286e+03 5.82907827e+03 2.66675123e+00
v 6.38785090e+03 5.82950789e+03 2.60958228e+00
v 6.38850190e+03 5.82964698e+03 2.03939181e+00
v 6.39343310e+03 5.83513217e+03 2.66449771e+00
v 6.39448349e+03 5.83584118e+03 2.57396265e+00
v 6.39749198e+03 5.84047298e+03 2.59109697e+00
v 6.39013064e+03 5.83642188e+03 2.30258632e+00
v 6.38915258e+03 5.83541049e+03 2.55804406e+00
v 6.38713888e+03 5.83736716e+03 1.85184589e+00
v 6.38794540e+03 5.83833033e+03 2.33621325e+00
v 6.38694373e+03 5.83911264e+03 1.11564797e+00
v 6.38759525e+03 5.83981182e+03 1.68920353e+00
v 6.38637458e+03 5.83330031e+03 2.71423442e+00
v 6.38343553e+03 5.83093787e+03 1.38469262e+00
v 6.38934928e+03 5.82938854e+03 2.45528597e+00
v 6.39724271e+03 5.84274860e+03 2.23414733e+00
v 6.39320520e+03 5.84371215e+03 2.07698641e+00
v 6.38568265e+03 5.83630163e+03 6.65724651e-01
v 6.39004284e+03 5.84113709e+03 2.34946798e+00
v 6.39521118e+03 5.83856264e+03 2.64508706e+00
v 6.39187177e+03 5.83083981e+03 2.48467018e+00
v 6.39285837e+03 5.83014869e+03 2.26644787e+00
v 6.39820529e+03 5.82637690e+03 1.51247844e+00
v 6.39703159e+03 5.82666805e+03 1.35220598e+00
v 6.39902738e+03 5.83650087e+03 2.60962935e+00
v 6.39515642e+03 5.84246719e+03 2.28528149e+00
v 6.40213095e+03 5.83897563e+03 3.01800725e+00
v 6.40550551e+03 5.83954919e+03 2.31725778e+00
v 6.40334037e+03 5.83579299e+03 2.50805452e+00
v 6.40488291e+03 5.83205225e+03 2.49224769e+00
v 6.40252588e+03 5.83336682e+03 2.70662404e+00
v 6.40416050e+03 5.83256830e+03 2.04361363e+00
v 6.40490518e+03 5.82980544e+03 2.39265421e+00
v 6.40297723e+03 5.83247399e+03 2.31782938e+00
v 6.39702404e+03 5.83277305e+03 1.89720196e+00
v 6.40347354e+03 5.83128996e+03 2.82224224e+00
v 6.40421217e+03 5.83095061e+03 2.67063483e+00
v 6.40473737e+03 5.83022550e+03 2.51744127e+00
v 6.39998406e+03 5.83409751e+03 2.97566750e+00
v 6.39944579e+03 5.83397484e+03 2.94349206e+00
v 6.40488164e+03 5.83116535e+03 2.15431772e+00
v 6.40437698e+03 5.83161627e+03 2.32431654e+00
v 6.38242994e+03 5.83012417e+03 1.09545976e+00
v 6.40546158e+03 5.83057072e+03 2.37573570e+00
v 6.38759773e+03 5.84320795e+03 1.99073149e-01
v 6.38730617e+03 5.84006844e+03 1.11987809e+00
v 6.38783103e+03 5.84154173e+03 9.05952678e-01
v 6.38752881e+03 5.82676718e+03 4.64713465e-01
v 6.38689525e+03 5.82601544e+03 1.80258984e-01
v 6.38685129e+03 5.82685212e+03 5.58154381e-01
v 6.39042213e+03 5.82580363e+03 9.66697049e-01
v 6.38925121e+03 5.82628252e+03 1.27106164e+00
v 6.38812107e+03 5.82648932e+03 1.31833958e-01
v 6.38807487e+03 5.82468359e+03 1.43212931e-01
v 6.39004481e+03 5.82327722e+03 3.56643956e-01
v 6.39063690e+03 5.82511498e+03 2.48646467e-01
v 6.39321378e+03 5.82486214e+03 3.28744258e-01
v 6.39553573e+03 5.82340670e+03 7.61805594e-01
v 6.40017500e+03 5.82437423e+03 5.67335876e-01
v 6.39880789e+03 5.82429397e+03 7.29165822e-01
v 6.40138893e+03 5.82599829e+03 8.99165368e-01
v 6.40071782e+03 5.82399194e+03 5.11436446e-01
v 6.39869288e+03 5.82341196e+03 1.06279410e+00
v 6.39920531e+03 5.82360146e+03 7.36774021e-01
v 6.39171177e+03 5.82511319e+03 1.95538742e-01
v 6.39388099e+03 5.82500070e+03 4.93591828e-01
v 6.40298597e+03 5.82622718e+03 4.85365824e-01
v 6.40504282e+03 5.82127017e+03 6.73081824e-01
v 6.40040475e+03 5.81998770e+03 6.34354530e-01
v 6.40326254e+03 5.82330839e+03 6.52595169e-01
v 6.39614787e+03 5.82312236e+03 5.51263062e-01
v 6.39302784e+03 5.82026999e+03 4.81353695e-01
v 6.39899895e+03 5.82261773e+03 4.89145575e-01
v 6.40396931e+03 5.82724777e+03 5.01749792e-01
v 6.40407666e+03 5.82866164e+03 1.06299450e+00
v 6.39927437e+03 5.82549988e+03 1.21465455e+00
v 6.40471425e+03 5.82454146e+03 7.12522969e-01
v 6.37595453e+03 5.81247212e+03 1.28134586e-01
v 6.38848860e+03 5.82742069e+03 2.12277362e+00
v 6.39099888e+03 5.83699748e+03 2.56355821e+00
v 6.38556061e+03 5.82307477e+03 2.37621924e-01
v 6.38302233e+03 5.82409860e+03 -1.73327030e-01
v 6.38584399e+03 5.82687141e+03 5.15184019e-01
v 6.38523824e+03 5.82611323e+03 3.49633031e-02
v 6.38583531e+03 5.82729086e+03 1.49923877e+00
v 6.38395101e+03 5.83560688e+03 1.47313303e-01
v 6.38425754e+03 5.83960726e+03 -2.05468969e-01
v 6.38555640e+03 5.83722274e+03 1.98032305e-01
v 6.38530237e+03 5.83531978e+03 6.50467331e-01
v 6.38199055e+03 5.83347158e+03 5.06845467e-02
v 6.38114646e+03 5.83152884e+03 1.12341637e-01
v 6.40160734e+03 5.81734145e+03 7.01848626e-01
v 6.38438832e+03 5.83341117e+03 1.34869756e+00
v 6.38198329e+03 5.83134356e+03 5.43716593e-01
v 6.39230027e+03 5.81584702e+03 7.00548183e-01
v 6.38600700e+03 5.82661039e+03 1.89117984e-01
v 6.38423634e+03 5.82783867e+03 1.57659113e+00
v 6.38431449e+03 5.82677642e+03 6.63375330e-01
v 6.37891393e+03 5.81383151e+03 -7.39128431e-02
v 6.38411825e+03 5.82979969e+03 1.73675948e+00
v 6.38363376e+03 5.82878116e+03 1.14335940e+00
v 6.39674840e+03 5.81367796e+03 8.02412528e-01
v 6.38362620e+03 5.82763347e+03 5.63457749e-01
v 6.38353268e+03 5.82598612e+03 6.72658425e-02
v 6.38369677e+03 5.81386917e+03 3.83396226e-02
v 6.38490714e+03 5.81464670e+03 4.09024846e-01
v 6.37869102e+03 5.81268452e+03 2.78601908e-01
v 6.40013041e+03 5.81306957e+03 8.27835065e-01
v 6.38000866e+03 5.81272107e+03 1.08231507e+00
v 6.38531499e+03 5.83169824e+03 1.98982060e+00
v 6.37799741e+03 5.81278444e+03 1.26189303e-01
v 6.37508280e+03 5.83653165e+03 -2.75692158e-01
v 6.40573554e+03 5.81320431e+03 8.53925642e-01
v 6.38385117e+03 5.83427013e+03 2.63233713e-01
v 6.38201271e+03 5.82940575e+03 1.14111547e-01
v 6.38281164e+03 5.82901612e+03 8.65890678e-01
v 6.38051378e+03 5.83626499e+03 -3.23256335e-01
v 6.38663133e+03 5.83975047e+03 8.36017235e-01
v 6.38596147e+03 5.83996800e+03 -8.81121788e-03
v 6.38600640e+03 5.84140617e+03 5.05071264e-02
v 6.38270686e+03 5.83236553e+03 4.99438647e-01
v 6.38359877e+03 5.83299284e+03 7.15633048e-01
v 6.38257026e+03 5.82813840e+03 2.27018647e-01
v 6.38646971e+03 5.83779494e+03 8.07497426e-01
v 6.38950875e+03 5.82557699e+03 3.61882915e-01
v 6.39196504e+03 5.82597094e+03 8.44947396e-01
v 6.40507301e+03 5.81769642e+03 6.70489613e-01
v 6.40393569e+03 5.81894905e+03 6.38153038e-01
v 6.38754892e+03 5.81824359e+03 4.02278029e-01
v 6.38641505e+03 5.81340314e+03 5.62183827e-01
v 6.39130268e+03 5.81460299e+03 7.27744091e-01
v 6.38814378e+03 5.81652896e+03 5.91102332e-01
v 6.39712465e+03 5.82566616e+03 1.50479977e+00
v 6.38307800e+03 5.83180880e+03 1.15295487e+00
v 6.38488203e+03 5.82873705e+03 2.21412271e+00
v 6.38997482e+03 5.83814717e+03 2.72049283e+00
v 6.37487500e+03 5.82381821e+03 -2.82251789e-01
v 6.37487500e+03 5.82078619e+03 -2.85456080e-01
v 6.37487500e+03 5.81718225e+03 -2.38662556e-01
v 6.37487500e+03 5.81609818e+03 -2.01103093e-01
v 6.37487500e+03 5.84015502e+03 -3.32426912e-01
v 6.37487500e+03 5.83662099e+03 -2.68571513e-01
v 6.37487500e+03 5.83622475e+03 -2.79451702e-01
v 6.37487500e+03 5.81305652e+03 -2.03409607e-02
v 6.37487500e+03 5.82610605e+03 -2.57589086e-01
v 6.37487500e+03 5.82646345e+03 -2.50977729e-01
v 6.37487500e+03 5.83393396e+03 -3.19758370e-01
v 6.37487500e+03 5.83168581e+03 -3.10941037e-01
v 6.37487500e+03 5.82731624e+03 -2.80356675e-01
v 6.37487500e+03 5.81370773e+03 2.22183954e-02
v 6.40637500e+03 5.82274768e+03 6.27945053e-01
v 6.40637500e+03 5.82146095e+03 7.07691164e-01
v 6.40637500e+03 5.82444196e+03 6.41137243e-01
v 6.40637500e+03 5.82575135e+03 6.01273368e-01
v 6.40637500e+03 5.83033088e+03 2.10448932e+00
v 6.40637500e+03 5.83045170e+03 2.35287582e+00
v 6.40637500e+03 5.83049437e+03 2.38906415e+00
v 6.40637500e+03 5.82402256e+03 6.02272135e-01
v 6.40637500e+03 5.81733708e+03 8.41836278e-01
v 6.40637500e+03 5.81875343e+03 8.08894107e-01
v 6.40637500e+03 5.82931195e+03 7.55109674e-01
v 6.40637500e+03 5.82914021e+03 6.12846778e-01
v 6.40637500e+03 5.81921003e+03 8.27478147e-01
v 6.40637500e+03 5.81993068e+03 8.10792508e-01
v 6.40637500e+03 5.82700502e+03 4.78345768e-01
v 6.40637500e+03 5.83807272e+03 2.17818426e+00
v 6.40637500e+03 5.83805550e+03 2.17631787e+00
v 6.40637500e+03 5.83057691e+03 2.41724197e+00
v 6.40637500e+03 5.83394103e+03 2.48375863e+00
v 6.40637500e+03 5.83392791e+03 2.48766131e+00
v 6.40637500e+03 5.83391778e+03 2.48698596e+00
v 6.40637500e+03 5.84064467e+03 2.03009501e+00
v 6.40637500e+03 5.84127977e+03 2.14354272e+00
v 6.40637500e+03 5.84322011e+03 2.26959873e+00
v 6.40637500e+03 5.84298034e+03 2.24903110e+00
v 6.40637500e+03 5.84251205e+03 2.28464391e+00
v 6.40637500e+03 5.82900599e+03 5.91226945e-01
v 6.40637500e+03 5.83516831e+03 2.04442137e+00
v 6.40637500e+03 5.83163764e+03 2.61318802e+00
v 6.40637500e+03 5.83204614e+03 2.69792625e+00
v 6.40637500e+03 5.81619200e+03 9.23206778e-01
v 6.40637500e+03 5.81640098e+03 9.49934217e-01
v 6.40637500e+03 5.83388174e+03 2.49183407e+00
v 6.40637500e+03 5.83121276e+03 2.61775914e+00
v 6.40637500e+03 5.83809406e+03 2.17934629e+00
v 6.40637500e+03 5.84180889e+03 2.27620413e+00
v 6.40637500e+03 5.82981875e+03 1.13739694e+00
v 6.40637500e+03 5.83919544e+03 2.19987964e+00
v 6.40637500e+03 5.84011437e+03 2.05887459e+00
v 6.40637500e+03 5.81580601e+03 9.45536245e-01
v 6.40637500e+03 5.81364064e+03 8.50366459e-01
v 6.40637500e+03 5.81704191e+03 8.74519675e-01
v 6.40637500e+03 5.81317933e+03 8.47608344e-01
v 6.40637500e+03 5.82969687e+03 1.07852811e+00
v 6.40637500e+03 5.83700207e+03 2.02037520e+00
v 6.40637500e+03 5.83870038e+03 2.14678268e+00
v 6.40637500e+03 5.84197727e+03 2.27269558e+00
v 6.40637500e+03 5.83609647e+03 2.00165484e+00
v 6.40637500e+03 5.83583713e+03 2.06727670e+00
v 6.37591627e+03 5.81237500e+03 1.33560578e-01
v 6.40043381e+03 5.81237500e+03 8.32732608e-01
v 6.40110780e+03 5.81237500e+03 9.34230800e-01
v 6.37886993e+03 5.81237500e+03 6.74402194e-01
v 6.37846533e+03 5.81237500e+03 4.59244097e-01
v 6.37801141e+03 5.81237500e+03 4.03521403e-01
v 6.38030636e+03 5.81237500e+03 1.12111829e+00
v 6.38004944e+03 5.81237500e+03 1.29173469e+00
v 6.38512752e+03 5.81237500e+03 1.68947872e-01
v 6.38420469e+03 5.81237500e+03 3.24224885e-01
v 6.37599832e+03 5.81237500e+03 1.41255850e-01
v 6.37711609e+03 5.81237500e+03 6.62171352e-02
v 6.38344304e+03 5.81237500e+03 4.45693705e-01
v 6.38286330e+03 5.81237500e+03 4.18922802e-01
v 6.38218517e+03 5.81237500e+03 3.55266478e-01
v 6.38125455e+03 5.81237500e+03 5.21244387e-01
v 6.38208215e+03 5.81237500e+03 4.15106762e-01
v 6.37789540e+03 5.81237500e+03 2.40394313e-01
v 6.37727550e+03 5.81237500e+03 1.09487943e-01
v 6.38077226e+03 5.81237500e+03 7.45236551e-01
v 6.37905109e+03 5.81237500e+03 7.68906265e-01
v 6.37921045e+03 5.81237500e+03 8.90715862e-01
v 6.38793348e+03 5.81237500e+03 6.64282736e-01
v 6.38745968e+03 5.81237500e+03 5.14619527e-01
v 6.38882895e+03 5.81237500e+03 7.02565505e-01
v 6.38842151e+03 5.81237500e+03 6.90381742e-01
v 6.38809774e+03 5.81237500e+03 6.66682017e-01
v 6.39244532e+03 5.81237500e+03 7.61393569e-01
v 6.38623325e+03 5.81237500e+03 3.49006708e-01
v 6.39594965e+03 5.81237500e+03 8.04179927e-01
v 6.39321846e+03 5.81237500e+03 7.57419408e-01
v 6.40263972e+03 5.81237500e+03 7.84236936e-01
v 6.40500141e+03 5.81237500e+03 8.61508370e-01
v 6.40226881e+03 5.81237500e+03 8.47161128e-01
v 6.39908438e+03 5.81237500e+03 8.37245812e-01
v 6.39959938e+03 5.81237500e+03 9.16781457e-01
v 6.39728747e+03 5.81237500e+03 8.30063922e-01
v 6.40010961e+03 5.81237500e+03 8.34779311e-01
v 6.40158966e+03 5.81237500e+03 9.88607508e-01
v 6.40620944e+03 5.81237500e+03 9.51483054e-01
v 6.38545573e+03 5.81237500e+03 1.99688080e-01
v 6.37573330e+03 5.81237500e+03 1.25159240e-01
v 6.37487500e+03 5.81237500e+03 6.59240265e-02
v 6.40620630e+03 5.81237500e+03 9.51248992e-01
v 6.40637500e+03 5.81237500e+03 9.49031998e-01
v 6.39408511e+03 5.84387500e+03 2.08132042e+00
v 6.39346065e+03 5.84387500e+03 2.03207949e+00
v 6.38885719e+03 5.84387500e+03 1.44338703e+00
v 6.38989172e+03 5.84387500e+03 1.58085274e+00
v 6.39095811e+03 5.84387500e+03 1.96781239e+00
v 6.38881877e+03 5.84387500e+03 1.43330893e+00
v 6.38883159e+03 5.84387500e+03 1.43824404e+00
v 6.39682646e+03 5.84387500e+03 2.58051502e+00
v 6.39546976e+03 5.84387500e+03 2.63107082e+00
v 6.38812989e+03 5.84387500e+03 7.29467596e-01
v 6.38786267e+03 5.84387500e+03 4.03703734e-01
v 6.38632757e+03 5.84387500e+03 3.49263490e-02
v 6.38737218e+03 5.84387500e+03 1.78413303e-01
v 6.38482201e+03 5.84387500e+03 -1.42528870e-01
v 6.38430354e+03 5.84387500e+03 -2.21261250e-01
v 6.38209214e+03 5.84387500e+03 -3.01821017e-01
v 6.40275277e+03 5.84387500e+03 2.57979179e+00
v 6.40212193e+03 5.84387500e+03 2.76241554e+00
v 6.37881830e+03 5.84387500e+03 -4.03528441e-01
v 6.40416038e+03 5.84387500e+03 2.64142965e+00
v 6.40503236e+03 5.84387500e+03 2.46415059e+00
v 6.40005256e+03 5.84387500e+03 2.75894290e+00
v 6.40052053e+03 5.84387500e+03 2.71381819e+00
v 6.39741941e+03 5.84387500e+03 2.58251806e+00
v 6.39758814e+03 5.84387500e+03 2.53751923e+00
v 6.40334779e+03 5.84387500e+03 2.56265588e+00
v 6.40116131e+03 5.84387500e+03 2.83836471e+00
v 6.39932670e+03 5.84387500e+03 2.79385063e+00
v 6.39314541e+03 5.84387500e+03 2.08052184e+00
v 6.39476294e+03 5.84387500e+03 2.42926180e+00
v 6.39443520e+03 5.84387500e+03 2.23778933e+00
v 6.39213348e+03 5.84387500e+03 2.03000131e+00
v 6.39123524e+03 5.84387500e+03 2.02423879e+00
v 6.40614515e+03 5.84387500e+03 2.38817996e+00
v 6.40584469e+03 5.84387500e+03 2.46975406e+00
v 6.40402438e+03 5.84387500e+03 2.59471737e+00
v 6.39505437e+03 5.84387500e+03 2.53997881e+00
v 6.39849738e+03 5.84387500e+03 2.66139381e+00
v 6.40526751e+03 5.84387500e+03 2.36649423e+00
v 6.37609633e+03 5.84387500e+03 -3.69086869e-01
v 6.37487500e+03 5.84387500e+03 -2.98047573e-01
v 6.40637500e+03 5.84387500e+03 2.16304841e+00
vt 0.012425113 0.24212968
vt 0.025014086 0.36587465
vt 0.0021579079 0.36394894
vt 0.0021414282 0.26516432
vt 0.040813364 0.22107321
vt 0.0021713334 0.44705635
vt 0.0021362291 0.23544961
vt 0.034153897 0.13938463
vt 0.061525151 0.23292971
vt 0.11383042 0.45466787
vt 0.016911682 0.13604456
vt 0.044910651 0.14458728
vt 0.057478324 0.17328227
vt 0.086971462 0.30072623
vt 0.0021812343 0.50976563
vt 0.11713625 0.38897359
vt 0.0021233149 0.16992372
vt 0.04350958 0.13336354
vt 0.017511168 0.13338196
vt 0.08109358 0.15323728
vt 0.10076464 0.22900647
vt 0.093861364 0.51812559
vt 0.14860862 0.42657578
vt 0.0021208632 0.15207481
vt 0.035015207 0.13337111
vt 0.045097943 0.13335997
vt 0.054414514 0.14183968
vt 0.032830961 0.13337326
vt 0.016386745 0.13338286
vt 0.068499751 0.15247673
vt 0.10123499 0.13765121
vt 0.12876327 0.35261434
vt 0.11965054 0.24823582
vt 0.0021827526 0.51956177
vt 0.12083068 0.50639641
vt 0.14420615 0.5098657
vt 0.013879308 0.13338459
vt 0.051318262 0.13335502
vt 0.089543767 0.13332927
vt 0.12131546 0.27969342
vt 0.12302594 0.17427027
vt 0.052399568 0.59938598
vt 0.13154271 0.52804214
vt 0.18307464 0.47065258
vt 0.0021169484 0.13339317
vt 0.056861106 0.13334805
vt 0.10088713 0.13332361
vt 0.082931802 0.13333005
vt 0.15454246 0.24856561
vt 0.13961379 0.1955657
vt 0.11953774 0.13331103
vt 0.0021868409 0.54293716
vt 0.10001414 0.60014099
vt 0.12211457 0.55154157
vt 0.21006425 0.43208319
vt 0.16691352 0.50716829
vt 0.059342843 0.13334495
vt 0.1022997 0.13332361
vt 0.17583536 0.29413289
vt 0.15334259 0.14822555
vt 0.11159279 0.13331658
vt 0.12997745 0.13330615
vt 0.0022065521 0.66270757
vt 0.10764863 0.56539619
vt 0.088151731 0.65834248
vt 0.13046691 0.55714464
vt 0.11377746 0.54859531
vt 0.15237917 0.54211628
vt 0.21818814 0.48245233
vt 0.18371604 0.5201472
vt 0.18397824 0.24712682
vt 0.15971489 0.1804204
vt 0.14344572 0.13732952
vt 0.0022166222 0.72432941
vt 0.110954 0.58944237
vt 0.099615209 0.65324998
vt 0.09972918 0.71158648
vt 0.12221729 0.58299041
vt 0.14448029 0.56402922
vt 0.23291963 0.48239464
vt 0.20272775 0.49512446
vt 0.15777861 0.13328773
vt 0.16027255 0.16146404
vt 0.14262645 0.13330042
vt 0.0795063 0.78817272
vt 0.10572546 0.6198138
vt 0.10953666 0.68125618
vt 0.12885554 0.61089474
vt 0.13931362 0.58175349
vt 0.16764729 0.55199319
vt 0.24093877 0.22839606
vt 0.25350219 0.47549796
vt 0.18776515 0.13326287
vt 0.14712417 0.13329703
vt 0.17458504 0.1332742
vt 0.18107696 0.13326764
vt 0.0022263746 0.78711915
vt 0.11461394 0.66598272
vt 0.12176086 0.6984396
vt 0.12660576 0.77009612
vt 0.1195076 0.64210367
vt 0.15828721 0.59188449
vt 0.17363186 0.57676303
vt 0.22726101 0.19430584
vt 0.25093189 0.34962642
vt 0.27502659 0.42095572
vt 0.18332806 0.13326615
vt 0.19334894 0.13325906
vt 0.0050755683 0.79552937
vt 0.12523033 0.73345482
vt 0.1308281 0.87974906
vt 0.13283589 0.64578795
vt 0.18272038 0.54382074
vt 0.24291059 0.13322598
vt 0.32842362 0.27771032
vt 0.2713232 0.4745788
vt 0.036559787 0.93535364
vt 0.0022280212 0.79797983
vt 0.13257699 0.70988905
vt 0.13564506 0.74943411
vt 0.14861423 0.81437171
vt 0.14523457 0.62700367
vt 0.13810833 0.69419265
vt 0.18000118 0.60284948
vt 0.18899222 0.56529176
vt 0.25350657 0.13321918
vt 0.3018896 0.16890109
vt 0.28531355 0.43557692
vt 0.0022443668 0.89484847
vt 0.13877818 0.73238063
vt 0.14511967 0.76220667
vt 0.16112733 0.83003801
vt 0.13147768 0.99672741
vt 0.16009133 0.62900507
vt 0.1452627 0.66291916
vt 0.19036588 0.59182346
vt 0.18873657 0.54564148
vt 0.29093689 0.13319421
vt 0.36849862 0.26927561
vt 0.31192747 0.40920681
vt 0.29370388 0.42778105
vt 0.018999554 0.99680269
vt 0.15033554 0.78911561
vt 0.15417999 0.88961869
vt 0.1594076 0.81075966
vt 0.10117123 0.99674833
vt 0.13858239 0.99672157
vt 0.16000655 0.64368129
vt 0.15537255 0.67413616
vt 0.18433893 0.63553822
vt 0.18892962 0.60666525
vt 0.20071545 0.57285833
vt 0.20150363 0.53546286
vt 0.30927151 0.13318187
vt 0.35599527 0.20726234
vt 0.35202956 0.34182107
vt 0.0022605243 0.9968124
vt 0.056304466 0.99677902
vt 0.16762641 0.8661468
vt 0.15480155 0.92903751
vt 0.17028569 0.81829011
vt 0.19167881 0.61234879
vt 0.20053753 0.59956729
vt 0.33389795 0.13316578
vt 0.34823704 0.15219468
vt 0.38862982 0.23617005
vt 0.4004164 0.3133201
vt 0.33277622 0.41392493
vt 0.31227627 0.43295842
vt 0.15677941 0.74900335
vt 0.16335082 0.88363707
vt 0.16491152 0.91539955
vt 0.15921432 0.99670541
vt 0.18855038 0.67984843
vt 0.18175671 0.70413262
vt 0.21270919 0.59889162
vt 0.21519646 0.55329132
vt 0.36162791 0.13314629
vt 0.38104609 0.13904059
vt 0.41559941 0.37693161
vt 0.35633922 0.45157635
vt 0.32857922 0.43568838
vt 0.15978405 0.70681113
vt 0.17259789 0.89234221
vt 0.18133833 0.8446759
vt 0.1797999 0.93272364
vt 0.17661721 0.97840786
vt 0.19290112 0.66330552
vt 0.17978042 0.72936869
vt 0.19279504 0.63967162
vt 0.19803548 0.63757956
vt 0.22340363 0.57739043
vt 0.34095529 0.13315994
vt 0.36823121 0.13314116
vt 0.35239196 0.13315386
vt 0.37754041 0.13313735
vt 0.42505547 0.15583766
vt 0.41599745 0.27897519
vt 0.39121002 0.43281531
vt 0.43384624 0.32044894
vt 0.33560619 0.44088298
vt 0.31732768 0.45636499
vt 0.16503266 0.76164788
vt 0.17655268 0.88529682
vt 0.18593 0.80806577
vt 0.17917039 0.95514631
vt 0.18026116 0.90851068
vt 0.17352912 0.99669385
vt 0.19803132 0.67579448
vt 0.19862315 0.70099342
vt 0.20273259 0.7267409
vt 0.22501239 0.6286155
vt 0.21705344 0.64059752
vt 0.2270232 0.55099428
vt 0.34794876 0.13315672
vt 0.38262436 0.13313502
vt 0.42496938 0.2131989
vt 0.41867903 0.24554735
vt 0.43384439 0.30793393
vt 0.43386397 0.4174189
vt 0.4338496 0.34020221
vt 0.38743433 0.51282418
vt 0.33016279 0.45986849
vt 0.30233926 0.47557646
vt 0.17223497 0.78678143
vt 0.20914677 0.83963144
vt 0.21009608 0.92159009
vt 0.19079937 0.96325427
vt 0.19487149 0.92178798
vt 0.18024904 0.99668598
vt 0.19786747 0.76462889
vt 0.24556753 0.59638262
vt 0.20881537 0.65908474
vt 0.23190232 0.56363863
vt 0.43383184 0.23772347
vt 0.4149906 0.13311279
vt 0.43383777 0.26911128
vt 0.4338699 0.45236385
vt 0.43385744 0.38214839
vt 0.36554161 0.50655824
vt 0.41111052 0.46659982
vt 0.34890091 0.46205866
vt 0.30053642 0.44022626
vt 0.31677797 0.49076742
vt 0.21127886 0.79234636
vt 0.18390788 0.99667853
vt 0.22083324 0.68738836
vt 0.21831782 0.72385532
vt 0.20734166 0.7485429
vt 0.23511441 0.63932365
vt 0.24781828 0.54884398
vt 0.4338299 0.22714305
vt 0.43150255 0.13310069
vt 0.43383613 0.26102018
vt 0.43387136 0.46385884
vt 0.38135245 0.55047333
vt 0.41482672 0.53887361
vt 0.33655614 0.49291056
vt 0.291053 0.46106559
vt 0.30709213 0.49748284
vt 0.22317789 0.80811185
vt 0.21435507 0.90480942
vt 0.19334181 0.99666137
vt 0.23941624 0.66727006
vt 0.24863495 0.62037474
vt 0.24142975 0.53218997
vt 0.43382126 0.1677919
vt 0.4338325 0.24345112
vt 0.43154562 0.13310063
vt 0.40238702 0.57953405
vt 0.35868433 0.53657103
vt 0.43387759 0.4997499
vt 0.40091527 0.54078972
vt 0.29379347 0.49417406
vt 0.30582273 0.52494794
vt 0.32190537 0.51695454
vt 0.23354474 0.79277164
vt 0.22396506 0.86783004
vt 0.22631994 0.9412201
vt 0.23584852 0.70018077
vt 0.22837628 0.74551153
vt 0.22565536 0.7723791
vt 0.25104088 0.6458059
vt 0.26157019 0.59102005
vt 0.25625443 0.52418989
vt 0.43381923 0.15514743
vt 0.36739969 0.55211794
vt 0.43388441 0.53411478
vt 0.33102655 0.52486861
vt 0.28824383 0.48417419
vt 0.24069041 0.82694077
vt 0.23890065 0.88516539
vt 0.21080285 0.975851
vt 0.24515671 0.91229486
vt 0.19351734 0.99666119
vt 0.25871864 0.66637671
vt 0.26384634 0.63438624
vt 0.2651183 0.55804306
vt 0.43381464 0.1330992
vt 0.35458571 0.55649948
vt 0.43389213 0.58895946
vt 0.42020622 0.58757412
vt 0.28611624 0.52897781
vt 0.29545325 0.51665765
vt 0.31217492 0.54883736
vt 0.32020152 0.54115391
vt 0.24167913 0.76749301
vt 0.24418749 0.80852795
vt 0.19386813 0.99666089
vt 0.23737642 0.96449506
vt 0.253387 0.92297143
vt 0.24105975 0.73043001
vt 0.27217212 0.59291244
vt 0.25991398 0.69346553
vt 0.26996222 0.53693998
vt 0.43389249 0.59263808
vt 0.33833554 0.54432243
vt 0.27587783 0.53251934
vt 0.29720253 0.54138291
vt 0.25616783 0.79276764
vt 0.24942832 0.83503401
vt 0.2504749 0.88273633
vt 0.20804495 0.99664956
vt 0.22265583 0.99663401
vt 0.27718347 0.67975837
vt 0.27908254 0.60929251
vt 0.27729008 0.56127501
vt 0.27065429 0.69551396
vt 0.27280301 0.55340004
vt 0.34802124 0.56945455
vt 0.28198394 0.54654688
vt 0.30962491 0.5859499
vt 0.32621914 0.56236017
vt 0.25652954 0.75696039
vt 0.25935739 0.83499432
vt 0.2674444 0.96885723
vt 0.22645332 0.99663067
vt 0.25843191 0.89625716
vt 0.27048033 0.72386074
vt 0.36602741 0.57340205
vt 0.32019678 0.60055411
vt 0.29409736 0.57912433
vt 0.27092928 0.7763865
vt 0.27605525 0.80998635
vt 0.26353475 0.8760016
vt 0.26793662 0.92007744
vt 0.2534503 0.9921487
vt 0.23876365 0.99662256
vt 0.28601661 0.66945803
vt 0.28060439 0.71564925
vt 0.28236476 0.58453125
vt 0.27284315 0.70932055
vt 0.37651131 0.56437266
vt 0.36948144 0.59148216
vt 0.33954862 0.61476243
vt 0.30535224 0.60451925
vt 0.27049288 0.7954874
vt 0.2712172 0.75254214
vt 0.29043758 0.82691705
vt 0.27233788 0.86667591
vt 0.28018415 0.95800376
vt 0.26551017 0.99660444
vt 0.26725513 0.89342076
vt 0.29725626 0.6247645
vt 0.29487947 0.59590012
vt 0.36517277 0.62367737
vt 0.32177386 0.64406765
vt 0.28507173 0.78312135
vt 0.28558877 0.7640143
vt 0.28091356 0.85097402
vt 0.28942701 0.80320907
vt 0.27759457 0.98330212
vt 0.29412526 0.96348792
vt 0.25695249 0.99661076
vt 0.2526316 0.99661279
vt 0.28116783 0.8898471
vt 0.30157652 0.6622718
vt 0.29074392 0.68611318
vt 0.38319728 0.57599938
vt 0.38060901 0.60387683
vt 0.35237613 0.6799975
vt 0.33467153 0.65275818
vt 0.30030975 0.84557521
vt 0.30141294 0.80896026
vt 0.28971261 0.87236512
vt 0.29851148 0.93771797
vt 0.27030653 0.9965989
vt 0.29338515 0.70592558
vt 0.37804601 0.62339699
vt 0.37840497 0.65702695
vt 0.33343801 0.68136865
vt 0.29853141 0.78046393
vt 0.29145995 0.73132348
vt 0.31009966 0.82376629
vt 0.31257591 0.99207801
vt 0.31386548 0.94197375
vt 0.27479625 0.996593
vt 0.30469579 0.91855603
vt 0.31336403 0.67112017
vt 0.3057408 0.69227731
vt 0.38923827 0.59360516
vt 0.36909127 0.68900263
vt 0.30373552 0.74117017
vt 0.31577417 0.85097957
vt 0.31422979 0.88203007
vt 0.31461364 0.76787853
vt 0.31797376 0.81421638
vt 0.30877849 0.96569943
vt 0.30307525 0.99657226
vt 0.27878916 0.99658865
vt 0.30976132 0.71523619
vt 0.39411494 0.65155381
vt 0.38732341 0.6840204
vt 0.35710046 0.70062113
vt 0.3302874 0.71086156
vt 0.31916252 0.69618905
vt 0.28448111 0.99658352
vt 0.3112016 0.99656695
vt 0.31218088 0.90331703
vt 0.40271592 0.60973823
vt 0.38113767 0.70849079
vt 0.35969156 0.7358135
vt 0.34648046 0.70823646
vt 0.31175637 0.73329085
vt 0.32861534 0.85915029
vt 0.33320573 0.79442751
vt 0.33787996 0.97261173
vt 0.31351438 0.99656618
vt 0.32077044 0.92441314
vt 0.40423799 0.64224797
vt 0.40354341 0.68659914
vt 0.38333002 0.73628479
vt 0.34630263 0.72853732
vt 0.33892536 0.72518027
vt 0.32588825 0.72938097
vt 0.33599591 0.84114641
vt 0.34188911 0.91251659
vt 0.32667923 0.76334405
vt 0.34060138 0.94252026
vt 0.41143414 0.62237072
vt 0.4065032 0.6604979
vt 0.39912659 0.70010209
vt 0.39405924 0.71806479
vt 0.36217159 0.77408707
vt 0.34939513 0.77746272
vt 0.33586407 0.7531355
vt 0.34332842 0.86061752
vt 0.35664943 0.81649446
vt 0.36550391 0.96769971
vt 0.32597429 0.99655616
vt 0.41373333 0.61085713
vt 0.41341928 0.64813638
vt 0.41343713 0.67244101
vt 0.41414195 0.70260191
vt 0.40055874 0.74132097
vt 0.37880889 0.77014965
vt 0.37574685 0.86222667
vt 0.34728703 0.99654078
vt 0.3639234 0.92675889
vt 0.33733878 0.99654669
vt 0.42136246 0.63182878
vt 0.41853273 0.64264214
vt 0.41988349 0.75236344
vt 0.39231306 0.77498788
vt 0.36925846 0.79480743
vt 0.35370094 0.99653733
vt 0.37653366 0.93985546
vt 0.43051717 0.63707775
vt 0.43009001 0.67671061
vt 0.43389454 0.72383946
vt 0.4054319 0.79361659
vt 0.38858727 0.79253954
vt 0.37961191 0.90757388
vt 0.36248159 0.9965297
vt 0.38291657 0.96445203
vt 0.4338803 0.62972784
vt 0.43389452 0.72356188
vt 0.41596875 0.77460372
vt 0.43389463 0.72419918
vt 0.39196053 0.83241802
vt 0.37799594 0.83141434
vt 0.39329734 0.87261236
vt 0.37564766 0.99652237
vt 0.38940173 0.91662711
vt 0.38436982 0.99173748
vt 0.4338831 0.66106129
vt 0.43388039 0.63198978
vt 0.43388051 0.62855864
vt 0.43389431 0.72257376
vt 0.42516232 0.77709311
vt 0.40097111 0.81245053
vt 0.41515088 0.80463374
vt 0.40490422 0.85260546
vt 0.38429523 0.99651957
vt 0.40514421 0.94112211
vt 0.39580703 0.96248364
vt 0.43388116 0.64941514
vt 0.43388402 0.67225695
vt 0.43390459 0.75784564
vt 0.40379828 0.89887708
vt 0.40274394 0.9205274
vt 0.39245006 0.99651456
vt 0.42494494 0.81709379
vt 0.43390733 0.77617764
vt 0.41669437 0.83678061
vt 0.41045472 0.87838393
vt 0.40635559 0.97532159
vt 0.41552284 0.92023993
vt 0.40172234 0.99650806
vt 0.43391296 0.80810934
vt 0.43390915 0.78328717
vt 0.42720047 0.85590851
vt 0.41682538 0.89643192
vt 0.41617537 0.95830995
vt 0.40358585 0.99650609
vt 0.43391606 0.8369813
vt 0.43391612 0.83745348
vt 0.42200488 0.87792885
vt 0.4155381 0.99650115
vt 0.42580968 0.92841667
vt 0.43391618 0.83803844
vt 0.4306407 0.89483345
vt 0.41876188 0.99650055
vt 0.43282527 0.94430399
vt 0.43391922 0.85465795
vt 0.43392086 0.86822671
vt 0.42667097 0.99649382
vt 0.43393716 0.97197008
vt 0.4339307 0.92535907
vt 0.43392906 0.9079529
vt 0.4339264 0.89341682
vt 0.43078962 0.99649245
vt 0.43393472 0.95913357
vt 0.43393803 0.97854173
vt 0.43393168 0.93986022
vt 0.43393248 0.94447553
vt 0.43394202 0.99649394
vt 0.46434659 0.98250645
vt 0.44885695 0.97676212
vt 0.46218854 0.94940192
vt 0.47049904 0.95635146
vt 0.44854498 0.95061785
vt 0.47129121 0.94492894
vt 0.4789547 0.98466265
vt 0.4395369 0.92746556
vt 0.45048577 0.93919957
vt 0.46191052 0.92543906
vt 0.48125264 0.94910359
vt 0.48317015 0.96686459
vt 0.47903726 0.9323681
vt 0.48497918 0.98635411
vt 0.49413842 0.94663686
vt 0.49690118 0.91556597
vt 0.49722818 0.98280346
vt 0.50952286 0.92954922
vt 0.51172101 0.90229583
vt 0.51352286 0.94975901
vt 0.53062993 0.92838424
vt 0.51702046 0.97261339
vt 0.52630055 0.89962137
vt 0.53476024 0.94609851
vt 0.51146185 0.99605978
vt 0.5464108 0.89447963
vt 0.52308071 0.98978549
vt 0.53662354 0.97030556
vt 0.55207926 0.92529154
vt 0.55560541 0.89920759
vt 0.55099231 0.96876693
vt 0.56401551 0.89278096
vt 0.56774515 0.91384625
vt 0.56504709 0.97235614
vt 0.56500489 0.93064547
vt 0.58113015 0.93258417
vt 0.57030511 0.93167168
vt 0.58302927 0.90356332
vt 0.5707339 0.96650666
vt 0.57637596 0.86868131
vt 0.58485055 0.88206798
vt 0.58438367 0.85813516
vt 0.5916214 0.88334978
vt 0.6029647 0.86782175
vt 0.69956034 0.97565389
vt 0.70480156 0.95133477
vt 0.71049857 0.98351729
vt 0.71092987 0.99084371
vt 0.69129556 0.9615882
vt 0.70866925 0.95449579
vt 0.68968552 0.98895258
vt 0.69271666 0.93707454
vt 0.70823187 0.95165098
vt 0.7068522 0.93940604
vt 0.67492455 0.94655704
vt 0.67670476 0.98300785
vt 0.7062366 0.93399096
vt 0.67918938 0.99704093
vt 0.65643501 0.9823699
vt 0.66441572 0.99352622
vt 0.65135884 0.94371253
vt 0.64863151 0.97924167
vt 0.63846719 0.95340049
vt 0.62700379 0.97265297
vt 0.75484031 0.9641844
vt 0.75765175 0.93569911
vt 0.77373827 0.95819509
vt 0.75756198 0.98471451
vt 0.74120229 0.95388651
vt 0.76790947 0.92729026
vt 0.74796855 0.99235511
vt 0.7433905 0.9326849
vt 0.78002554 0.91349441
vt 0.72948885 0.93704557
vt 0.72080332 0.96914834
vt 0.73348659 0.99686366
vt 0.78569394 0.99544913
vt 0.76790977 0.98016727
vt 0.79398757 0.96411848
vt 0.59073728 0.9851687
vt 0.5950731 0.96668398
vt 0.60349017 0.98819607
vt 0.60130787 0.99013883
vt 0.58251238 0.96165979
vt 0.58981669 0.99603921
vt 0.58629495 0.99256122
vt 0.57990783 0.9850567
usemtl Tile_+032_+024_L20_0001200_0
f 32/1 180/2 422/3
f 88/538 369/539 334/540
f 390/50 78/33 389/41
f 488/38 395/12 489/26
f 138/148 248/149 394/135
f 64/565 175/561 341/563
f 96/22 388/35 382/43
f 382/43 387/54 96/22
f 176/581 185/580 355/579
f 130/422 323/433 224/414
f 14/423 224/414 323/433
f 381/66 382/43 154/79
f 375/65 374/77 181/42
f 65/251 247/232 246/234
f 248/149 297/183 183/170
f 372/121 371/111 370/100
f 367/542 369/539 368/545
f 265/191 278/233 269/209
f 353/156 28/115 376/139
f 303/227 186/279 194/293
f 95/203 297/183 160/189
f 326/441 316/431 320/412
f 193/395 98/373 300/408
f 307/276 238/306 253/305
f 239/320 164/335 200/308
f 169/336 1/346 310/361
f 301/347 169/336 529/362
f 264/314 277/339 288/334
f 314/453 326/441 325/452
f 7/469 314/453 105/462
f 318/413 316/431 60/442
f 291/245 364/261 420/226
f 281/122 384/88 153/102
f 317/451 322/440 257/420
f 291/245 198/277 364/261
f 270/378 319/400 71/388
f 325/452 105/462 314/453
f 115/508 35/500 207/513
f 174/471 110/455 225/478
f 61/463 121/490 225/478
f 318/413 119/390 320/412
f 366/10 365/23 368/36
f 384/88 385/78 381/66
f 103/566 350/567 173/570
f 316/431 318/413 320/412
f 68/359 304/370 164/335
f 296/204 294/185 303/227
f 150/582 125/583 439/584
f 182/602 373/603 162/604
f 303/227 294/185 420/226
f 239/320 256/357 228/344
f 218/326 39/364 151/349
f 403/144 295/159 402/171
f 197/278 196/262 420/226
f 162/130 398/110 377/119
f 15/381 55/415 40/391
f 250/554 363/551 336/552
f 281/122 145/112 384/88
f 317/588 150/582 440/585
f 46/353 271/340 136/300
f 62/341 221/356 157/332
f 258/593 48/596 359/592
f 318/413 111/443 90/432
f 50/317 51/333 238/306
f 419/89 384/88 381/66
f 145/112 281/122 394/135
f 330/184 296/204 25/207
f 331/186 25/207 166/229
f 127/350 71/388 215/393
f 322/440 328/461 105/462
f 408/132 146/145 293/161
f 292/231 291/245 202/205
f 420/226 196/262 303/227
f 418/98 377/119 406/99
f 534/263 303/227 535/295
f 51/333 62/341 253/305
f 192/398 45/386 187/376
f 163/372 193/395 536/409
f 205/506 312/518 207/513
f 329/187 24/228 538/246
f 229/371 172/392 69/384
f 202/205 291/245 420/226
f 405/87 418/98 406/99
f 385/78 384/88 298/101
f 358/273 140/257 359/270
f 136/601 117/600 46/599
f 120/366 15/381 63/355
f 398/110 406/99 377/119
f 144/123 377/119 418/98
f 378/76 327/86 418/98
f 373/603 182/602 94/606
f 323/433 230/446 324/434
f 296/204 166/229 25/207
f 370/100 373/131 372/121
f 373/131 302/143 372/121
f 381/66 154/79 419/89
f 159/175 160/189 248/149
f 104/568 103/566 102/571
f 323/433 324/434 14/423
f 327/86 298/101 418/98
f 410/558 175/561 156/557
f 141/549 158/548 336/552
f 242/544 141/549 363/551
f 307/276 308/275 22/244
f 360/258 135/271 261/289
f 16/573 173/570 101/569
f 308/275 417/260 22/244
f 340/556 335/555 409/553
f 340/556 349/560 410/558
f 261/289 307/276 360/258
f 307/276 22/244 360/258
f 21/224 100/259 185/243
f 185/243 176/169 21/224
f 354/199 352/180 435/220
f 342/577 184/578 100/575
f 357/168 346/181 348/201
f 99/202 344/223 22/244
f 346/181 354/199 351/222
f 341/563 103/566 64/565
f 337/70 338/44 409/81
f 341/92 339/55 27/106
f 77/304 20/274 308/275
f 411/198 412/167 74/166
f 75/155 74/166 376/139
f 386/127 75/155 376/139
f 31/72 30/49 390/50
f 21/224 22/244 417/260
f 20/274 417/260 308/275
f 33/8 362/11 494/19
f 493/62 389/41 496/51
f 79/21 84/9 85/31
f 85/31 81/20 499/39
f 501/18 33/8 502/25
f 393/617 80/618 504/619
f 80/30 391/27 487/46
f 383/13 395/12 391/27
f 32/1 82/5 180/2
f 496/51 85/31 497/61
f 78/33 79/21 389/41
f 83/60 414/83 31/72
f 389/41 83/60 390/50
f 168/40 167/32 171/14
f 383/13 82/5 395/12
f 180/2 84/9 171/14
f 170/16 167/32 365/23
f 390/50 30/49 78/33
f 506/96 83/60 507/95
f 508/108 416/71 509/93
f 379/91 386/127 28/115
f 416/71 413/59 30/49
f 413/59 416/71 339/55
f 28/115 356/105 379/91
f 509/93 31/72 510/107
f 31/72 414/83 506/96
f 513/138 379/91 514/126
f 397/197 76/179 515/216
f 518/164 386/127 520/154
f 75/155 392/165 486/178
f 412/167 376/139 74/166
f 353/156 376/139 412/167
f 344/223 99/202 347/182
f 386/127 376/139 28/115
f 397/197 72/217 74/166
f 74/166 73/218 411/198
f 361/241 140/257 351/222
f 359/592 126/589 124/586
f 445/591 126/589 446/594
f 360/258 344/223 343/242
f 369/68 382/43 368/36
f 335/555 340/556 410/558
f 409/553 336/552 337/550
f 403/144 371/111 408/132
f 327/614 378/615 399/616
f 158/548 89/541 332/543
f 333/56 368/36 338/44
f 373/131 370/100 161/120
f 387/54 382/43 381/66
f 365/23 167/32 338/44
f 302/143 146/145 372/121
f 371/111 403/144 404/160
f 403/144 26/172 404/160
f 407/64 97/67 387/54
f 374/77 401/85 181/42
f 399/53 375/65 181/42
f 180/2 171/14 170/16
f 170/16 366/10 180/2
f 170/16 365/23 366/10
f 429/15 96/22 430/34
f 96/22 399/53 181/42
f 421/6 366/10 429/15
f 401/85 396/109 427/97
f 401/85 178/117 396/109
f 178/117 401/85 371/111
f 371/111 401/85 370/100
f 181/42 401/85 431/74
f 430/34 181/42 433/52
f 399/53 378/76 375/65
f 400/75 385/78 327/86
f 96/22 407/64 399/53
f 387/54 385/78 407/64
f 418/98 298/101 144/123
f 374/77 370/100 401/85
f 374/77 405/87 406/99
f 408/132 372/121 146/145
f 295/159 330/184 402/171
f 331/186 23/206 404/160
f 338/44 368/36 365/23
f 367/542 380/546 334/540
f 382/43 388/35 368/36
f 333/547 380/546 368/545
f 171/14 167/32 170/16
f 96/22 366/10 388/35
f 374/77 398/110 370/100
f 375/65 378/76 405/87
f 405/87 374/77 375/65
f 398/110 161/120 370/100
f 404/160 329/187 540/173
f 404/160 26/172 331/186
f 178/117 371/111 543/133
f 403/144 402/171 26/172
f 26/172 402/171 330/184
f 339/55 349/80 340/69
f 337/550 158/548 332/543
f 336/552 409/553 335/555
f 250/554 336/552 335/555
f 334/540 332/543 89/541
f 334/540 89/541 88/538
f 333/547 332/543 334/540
f 333/547 337/550 332/543
f 329/187 404/160 23/206
f 416/71 379/91 339/55
f 339/55 340/69 338/44
f 379/91 356/105 339/55
f 28/115 353/156 177/140
f 185/580 184/578 355/579
f 176/169 347/182 99/202
f 342/577 355/579 184/578
f 341/563 410/558 349/560
f 173/570 350/567 101/569
f 344/223 348/201 346/181
f 347/182 176/169 177/140
f 347/182 177/140 357/168
f 351/222 354/199 361/241
f 360/258 343/242 135/271
f 351/222 358/273 359/270
f 437/255 354/199 442/238
f 343/242 345/240 135/271
f 352/180 412/167 447/200
f 353/156 346/181 357/168
f 357/168 177/140 353/156
f 339/55 356/105 27/106
f 27/106 177/140 355/141
f 354/199 353/156 352/180
f 140/257 361/241 438/272
f 351/222 49/256 345/240
f 140/257 358/273 351/222
f 101/569 350/567 341/563
f 347/182 357/168 348/201
f 345/240 343/242 346/181
f 101/116 341/92 27/106
f 101/116 27/106 342/128
f 341/563 350/567 103/566
f 347/182 348/201 344/223
f 346/181 343/242 344/223
f 40/391 139/382 15/381
f 102/315 17/318 211/331
f 260/330 47/354 120/366
f 420/226 364/261 197/278
f 90/432 110/455 313/464
f 130/422 223/402 90/432
f 123/475 122/467 8/484
f 259/401 320/412 11/389
f 197/278 199/291 195/292
f 187/376 255/385 192/398
f 208/449 209/485 545/494
f 277/339 240/358 288/334
f 272/297 134/283 306/265
f 54/468 328/461 317/451
f 272/297 306/265 285/284
f 67/327 66/329 211/331
f 385/78 298/101 327/86
f 305/250 108/212 247/232
f 285/284 247/232 65/251
f 325/452 326/441 321/430
f 105/462 325/452 322/440
f 219/407 309/426 222/436
f 140/257 126/302 359/270
f 385/78 387/54 381/66
f 160/189 159/175 203/211
f 57/311 188/294 179/322
f 52/447 189/425 222/436
f 113/492 225/478 121/490
f 303/227 194/293 531/309
f 4/338 2/363 1/346
f 295/159 408/132 293/161
f 450/517 232/503 451/516
f 279/312 288/334 241/307
f 69/384 172/392 217/406
f 59/454 316/431 314/453
f 223/402 315/421 90/432
f 313/464 86/472 91/456
f 254/383 68/359 234/394
f 86/472 313/464 174/471
f 90/432 315/421 318/413
f 230/446 56/435 324/434
f 223/402 130/422 224/414
f 52/447 53/448 311/457
f 56/435 55/415 324/434
f 48/379 259/401 10/380
f 311/457 53/448 12/465
f 111/443 318/413 60/442
f 12/465 13/481 311/457
f 128/445 230/446 323/433
f 124/586 317/588 258/593
f 110/455 61/463 225/478
f 210/482 35/500 8/484
f 15/381 139/382 63/355
f 257/420 322/440 321/430
f 259/401 257/420 320/412
f 54/468 317/451 441/476
f 320/412 119/390 11/389
f 324/434 55/415 14/423
f 119/390 120/366 11/389
f 50/317 238/306 261/289
f 132/399 319/400 270/378
f 237/377 132/399 270/378
f 70/411 319/400 132/399
f 318/413 315/421 223/402
f 240/358 235/369 289/343
f 235/369 227/368 289/343
f 204/473 37/459 311/457
f 44/396 191/429 147/439
f 255/385 187/376 233/360
f 311/457 13/481 226/480
f 8/484 204/473 210/482
f 210/482 311/457 226/480
f 453/479 61/463 454/470
f 34/501 115/508 9/495
f 550/458 208/449 551/466
f 37/459 36/437 311/457
f 233/360 304/370 255/385
f 190/405 220/404 189/425
f 116/522 312/518 149/512
f 206/496 123/475 9/495
f 142/427 147/439 208/449
f 147/439 142/427 44/396
f 309/426 219/407 217/406
f 219/407 234/394 69/384
f 255/385 190/405 192/398
f 241/307 268/281 279/312
f 68/359 254/383 304/370
f 288/334 239/320 241/307
f 199/291 165/321 195/292
f 276/298 104/285 102/315
f 163/372 169/336 310/361
f 277/339 236/352 127/350
f 53/448 52/447 222/436
f 128/445 53/448 309/426
f 5/282 268/281 241/307
f 240/358 289/343 288/334
f 182/602 183/605 95/608
f 275/136 283/125 249/152
f 65/251 246/234 282/214
f 263/247 109/213 284/264
f 263/247 267/248 266/210
f 292/231 160/189 203/211
f 201/225 160/189 202/205
f 107/176 265/191 299/163
f 284/264 109/213 305/250
f 286/124 137/134 153/102
f 251/188 269/209 280/174
f 269/209 266/210 280/174
f 299/163 265/191 274/162
f 263/247 278/233 109/213
f 153/102 243/103 286/124
f 369/68 154/79 382/43
f 107/176 299/163 249/152
f 244/562 250/554 155/559
f 307/276 261/289 238/306
f 306/265 134/283 305/250
f 283/125 363/137 250/153
f 282/214 246/234 245/192
f 153/102 137/134 281/122
f 137/134 138/148 281/122
f 152/150 251/188 280/174
f 280/174 159/175 138/148
f 152/150 274/162 252/190
f 198/277 291/245 5/282
f 285/284 273/313 272/297
f 102/315 66/329 276/298
f 65/251 276/298 285/284
f 6/249 203/211 267/248
f 274/162 287/151 275/136
f 136/300 260/330 50/317
f 133/296 134/283 272/297
f 237/377 39/364 131/367
f 136/300 271/340 260/330
f 151/349 237/377 270/378
f 240/358 277/339 127/350
f 71/388 127/350 270/378
f 109/213 108/212 305/250
f 267/248 262/280 268/281
f 251/188 252/190 265/191
f 264/314 43/328 277/339
f 183/170 162/130 248/149
f 249/152 299/163 275/136
f 384/88 145/112 298/101
f 108/212 245/192 247/232
f 287/151 274/162 152/150
f 275/136 299/163 274/162
f 419/89 153/102 384/88
f 248/149 138/148 159/175
f 152/150 280/174 138/148
f 294/185 296/204 295/159
f 202/205 294/185 293/161
f 160/189 201/225 95/203
f 6/249 292/231 203/211
f 266/210 203/211 159/175
f 263/247 269/209 278/233
f 420/226 294/185 202/205
f 160/189 292/231 202/205
f 291/245 292/231 6/249
f 164/335 165/321 200/308
f 263/247 262/280 267/248
f 279/312 264/314 288/334
f 190/405 191/429 290/419
f 69/384 234/394 68/359
f 235/369 172/392 227/368
f 256/357 239/320 289/343
f 263/247 266/210 269/209
f 264/314 279/312 262/280
f 43/328 264/314 133/296
f 284/264 133/296 262/280
f 203/211 266/210 267/248
f 120/366 63/355 260/330
f 275/136 287/151 286/124
f 107/176 249/152 245/192
f 65/251 104/285 276/298
f 272/297 273/313 218/326
f 247/232 306/265 305/250
f 284/264 305/250 134/283
f 112/319 308/275 253/305
f 131/367 39/364 221/356
f 131/367 132/399 237/377
f 43/328 42/325 127/350
f 216/403 172/392 235/369
f 234/394 220/404 254/383
f 164/335 228/344 68/359
f 12/465 53/448 128/445
f 309/426 53/448 222/436
f 232/503 113/492 121/490
f 230/446 231/438 217/406
f 227/368 229/371 228/344
f 86/472 226/480 12/465
f 110/455 60/442 61/463
f 322/440 325/452 321/430
f 321/430 320/412 257/420
f 105/462 328/461 54/468
f 314/453 7/469 59/454
f 454/470 59/454 455/477
f 174/471 225/478 113/492
f 223/402 224/414 15/381
f 323/433 130/422 128/445
f 172/392 229/371 227/368
f 189/425 219/407 222/436
f 62/341 131/367 221/356
f 189/425 220/404 219/407
f 217/406 172/392 216/403
f 151/349 42/325 218/326
f 216/403 214/424 217/406
f 56/435 217/406 214/424
f 112/319 212/342 211/331
f 212/342 213/351 67/327
f 63/355 139/382 131/367
f 17/318 19/303 211/331
f 50/317 261/289 136/300
f 38/365 212/342 221/356
f 212/342 157/332 221/356
f 120/366 47/354 10/380
f 271/340 47/354 260/330
f 259/597 258/593 257/595
f 216/403 215/393 70/411
f 256/357 227/368 228/344
f 12/465 129/444 91/456
f 70/411 214/424 216/403
f 149/512 312/518 205/506
f 322/440 317/451 328/461
f 326/441 314/453 316/431
f 148/493 87/491 114/505
f 309/426 230/446 128/445
f 215/393 216/403 235/369
f 235/369 127/350 215/393
f 48/596 258/593 259/597
f 71/388 70/411 215/393
f 132/399 41/416 70/411
f 218/326 213/351 38/365
f 213/351 212/342 38/365
f 63/355 51/333 260/330
f 308/275 112/319 77/304
f 249/152 250/153 244/177
f 175/561 64/565 155/559
f 251/188 152/150 252/190
f 249/152 283/125 250/153
f 281/122 138/148 394/135
f 153/102 154/79 243/103
f 88/90 243/103 154/79
f 66/329 102/315 211/331
f 244/177 282/214 245/192
f 243/103 88/90 242/113
f 275/136 286/124 243/103
f 256/357 289/343 227/368
f 239/320 200/308 198/277
f 241/307 239/320 198/277
f 235/369 240/358 127/350
f 304/370 233/360 164/335
f 164/335 239/320 228/344
f 199/291 200/308 165/321
f 159/175 280/174 266/210
f 198/277 5/282 241/307
f 229/371 68/359 228/344
f 198/277 200/308 199/291
f 179/322 4/338 57/311
f 233/360 3/345 164/335
f 303/227 166/229 296/204
f 195/292 188/294 196/262
f 58/310 301/347 560/348
f 533/324 58/310 561/337
f 2/363 233/360 187/376
f 196/262 188/294 186/279
f 4/338 1/346 57/311
f 115/508 143/514 9/495
f 93/520 116/522 456/530
f 148/493 205/506 210/482
f 206/496 209/485 123/475
f 37/459 122/467 208/449
f 458/534 143/514 459/528
f 554/502 206/496 564/509
f 205/506 35/500 210/482
f 204/473 8/484 122/467
f 36/437 147/439 191/429
f 190/405 290/419 192/398
f 36/437 191/429 190/405
f 189/425 36/437 190/405
f 187/376 45/386 1/346
f 1/346 2/363 187/376
f 57/311 1/346 169/336
f 188/294 57/311 186/279
f 186/279 58/310 194/293
f 169/336 301/347 58/310
f 336/552 158/548 337/550
f 18/574 173/570 16/573
f 100/575 184/578 185/580
f 81/621 393/617 490/623
f 162/604 183/605 182/602
f 362/11 32/1 424/7
f 78/33 168/40 171/14
f 396/109 178/117 425/129
f 311/457 210/482 204/473
f 179/322 195/292 164/335
f 166/229 303/227 24/228
f 195/292 165/321 164/335
f 310/361 98/373 163/372
f 160/189 297/183 248/149
f 175/561 410/558 341/563
f 161/607 398/610 162/604
f 355/141 177/140 176/169
f 379/91 415/104 511/114
f 338/44 337/70 333/56
f 87/491 174/471 113/492
f 106/572 103/566 173/570
f 128/445 129/444 12/465
f 206/496 118/507 548/515
f 339/55 338/44 167/32
f 459/528 92/524 460/533
f 334/540 380/546 333/547
f 377/119 144/123 162/130
f 286/124 287/151 152/150
f 141/549 242/544 89/541
f 269/209 251/188 265/191
f 446/316 140/257 461/301
f 173/570 18/574 106/572
f 103/566 104/568 64/565
f 135/271 345/240 49/256
f 44/396 300/408 98/373
f 135/271 117/287 136/300
f 133/296 284/264 134/283
f 132/399 131/367 40/391
f 130/422 129/444 128/445
f 125/583 124/586 126/589
f 15/381 120/366 119/390
f 118/507 206/496 9/495
f 115/508 207/513 116/522
f 113/492 232/503 114/505
f 87/491 113/492 114/505
f 110/455 111/443 60/442
f 111/443 110/455 90/432
f 262/280 263/247 284/264
f 197/278 195/292 196/262
f 166/229 24/228 331/186
f 21/224 20/274 100/259
f 62/341 51/333 63/355
f 308/275 307/276 253/305
f 22/244 344/223 360/258
f 117/287 135/271 49/256
f 49/598 46/599 117/600
f 359/592 124/586 258/593
f 250/554 156/557 155/559
f 154/79 153/102 419/89
f 42/325 151/349 127/350
f 373/603 161/607 162/604
f 125/583 150/582 124/586
f 148/493 114/505 149/512
f 330/184 295/159 296/204
f 298/101 145/112 144/123
f 253/305 238/306 51/333
f 143/514 115/508 93/520
f 553/428 142/427 566/450
f 98/373 310/361 1/346
f 96/22 97/67 407/64
f 387/54 97/67 96/22
f 313/464 110/455 174/471
f 112/319 19/303 77/304
f 94/606 302/609 373/603
f 94/606 182/602 95/608
f 143/514 93/520 92/524
f 90/432 313/464 91/456
f 403/144 408/132 295/159
f 340/69 409/81 338/44
f 174/471 87/491 86/472
f 107/176 245/192 108/212
f 62/341 157/332 253/305
f 103/566 106/572 102/571
f 7/469 105/462 463/486
f 17/576 102/571 18/574
f 336/552 363/551 141/549
f 101/569 342/577 100/575
f 100/575 16/573 101/569
f 351/222 345/240 346/181
f 89/541 242/544 88/538
f 410/558 156/557 335/555
f 20/274 16/290 100/259
f 176/169 99/202 21/224
f 341/92 349/80 339/55
f 379/91 416/71 415/104
f 517/196 75/155 522/194
f 74/166 76/179 397/197
f 73/218 74/166 72/217
f 73/218 72/217 465/235
f 20/274 21/224 417/260
f 389/41 79/21 85/31
f 82/5 383/13 84/9
f 383/13 81/20 84/9
f 33/8 395/12 82/5
f 80/30 383/13 391/27
f 84/9 81/20 85/31
f 389/41 29/73 83/60
f 393/617 81/621 80/618
f 81/20 383/13 80/30
f 31/72 390/50 83/60
f 171/14 79/21 78/33
f 30/49 413/59 167/32
f 171/14 84/9 79/21
f 32/1 362/11 33/8
f 168/40 30/49 167/32
f 82/5 32/1 33/8
f 82/5 84/9 180/2
f 30/49 168/40 78/33
f 167/32 413/59 339/55
f 416/71 30/49 31/72
f 512/82 29/73 524/94
f 412/167 411/198 444/219
f 392/165 75/155 386/127
f 75/155 76/179 74/166
f 335/555 156/557 250/554
f 27/106 356/105 28/115
f 371/111 404/160 542/147
f 418/98 405/87 378/76
f 400/75 399/53 407/64
f 398/110 374/77 406/99
f 399/53 400/75 327/86
f 385/78 400/75 407/64
f 371/111 372/121 408/132
f 368/36 388/35 366/10
f 369/539 367/542 334/540
f 368/545 380/546 367/542
f 331/186 26/172 25/207
f 330/184 25/207 26/172
f 23/206 331/186 24/228
f 24/228 329/187 23/206
f 158/548 141/549 89/541
f 21/224 99/202 22/244
f 342/128 27/106 355/141
f 346/181 353/156 354/199
f 353/156 412/167 352/180
f 177/140 27/106 28/115
f 359/270 49/256 351/222
f 208/449 123/475 209/485
f 16/290 20/274 19/303
f 19/303 17/318 16/290
f 20/274 77/304 19/303
f 14/423 55/415 15/381
f 10/380 259/401 11/389
f 8/484 34/501 9/495
f 455/477 7/469 467/489
f 143/514 118/507 9/495
f 5/282 291/245 6/249
f 4/338 179/322 3/345
f 3/345 2/363 4/338
f 189/425 52/447 36/437
f 319/400 70/411 71/388
f 16/573 17/576 18/574
f 69/384 68/359 229/371
f 64/266 104/285 65/251
f 12/465 226/480 13/481
f 59/454 61/463 60/442
f 162/130 144/123 248/149
f 293/161 294/185 295/159
f 57/311 169/336 58/310
f 56/435 230/446 217/406
f 463/486 54/468 468/497
f 60/442 316/431 59/454
f 115/508 116/522 93/520
f 149/512 114/505 450/517
f 131/367 62/341 63/355
f 86/472 148/493 226/480
f 309/426 231/438 230/446
f 260/330 51/333 50/317
f 48/596 46/599 49/598
f 46/353 48/379 47/354
f 12/465 91/456 86/472
f 98/373 45/386 44/396
f 257/595 258/593 317/588
f 10/380 47/354 48/379
f 47/354 271/340 46/353
f 11/389 120/366 10/380
f 55/415 41/416 40/391
f 41/416 132/399 40/391
f 39/364 38/365 221/356
f 155/559 156/557 175/561
f 108/212 109/213 107/176
f 52/447 311/457 36/437
f 219/407 69/384 217/406
f 195/292 179/322 188/294
f 115/508 34/501 35/500
f 147/439 36/437 37/459
f 92/524 93/520 457/529
f 142/427 193/395 44/396
f 210/482 226/480 148/493
f 123/475 8/484 9/495
f 35/500 34/501 8/484
f 208/449 147/439 37/459
f 98/373 193/395 163/372
f 122/467 123/475 208/449
f 37/459 204/473 122/467
f 290/419 191/429 44/396
f 220/404 234/394 219/407
f 107/176 109/213 265/191
f 109/213 278/233 265/191
f 255/385 304/370 254/383
f 146/611 302/609 94/606
f 146/611 94/606 293/612
f 45/386 192/398 44/396
f 44/396 192/398 290/419
f 303/227 196/262 186/279
f 3/345 233/360 2/363
f 44/396 193/395 300/408
f 201/225 202/205 293/161
f 276/298 66/329 67/327
f 67/327 273/313 276/298
f 70/411 41/416 55/415
f 43/328 236/352 277/339
f 152/150 138/148 137/134
f 42/325 133/296 272/297
f 282/564 155/559 64/565
f 282/564 244/562 155/559
f 154/79 369/68 88/90
f 272/297 218/326 42/325
f 261/289 135/271 136/300
f 276/298 273/313 285/284
f 268/281 5/282 6/249
f 67/327 211/331 212/342
f 133/296 264/314 262/280
f 139/382 40/391 131/367
f 65/251 282/214 64/266
f 56/435 70/411 55/415
f 56/435 214/424 70/411
f 151/349 270/378 127/350
f 306/265 247/232 285/284
f 95/608 201/613 293/612
f 94/606 95/608 293/612
f 274/162 265/191 252/190
f 152/150 137/134 286/124
f 249/152 244/177 245/192
f 95/203 183/170 297/183
f 262/280 279/312 268/281
f 364/261 199/291 197/278
f 239/320 288/334 289/343
f 245/192 246/234 247/232
f 133/296 42/325 43/328
f 237/377 151/349 39/364
f 127/350 236/352 43/328
f 87/491 148/493 86/472
f 124/586 150/582 317/588
f 320/412 321/430 326/441
f 119/390 318/413 223/402
f 15/381 224/414 14/423
f 112/319 211/331 19/303
f 218/326 273/313 67/327
f 106/572 18/574 102/571
f 67/327 213/351 218/326
f 255/385 254/383 190/405
f 90/432 129/444 130/422
f 90/432 91/456 129/444
f 223/402 15/381 119/390
f 205/506 148/493 149/512
f 38/365 39/364 218/326
f 49/598 359/592 48/596
f 212/342 112/319 157/332
f 253/305 157/332 112/319
f 248/149 144/123 394/135
f 242/113 363/137 283/125
f 283/125 275/136 243/103
f 243/103 242/113 283/125
f 268/281 6/249 267/248
f 199/291 364/261 198/277
f 144/123 145/112 394/135
f 58/310 186/279 57/311
f 116/522 207/513 312/518
f 549/519 143/514 567/523
f 35/500 205/506 207/513
f 254/383 220/404 190/405
f 45/386 98/373 1/346
f 164/335 3/345 179/322
f 529/362 163/372 559/387
f 217/406 231/438 309/426
f 116/522 149/512 472/526
f 443/237 73/218 476/254
f 465/235 397/197 474/252
f 479/510 121/490 482/511
f 421/6 180/2 366/10
f 422/3 180/2 421/6
f 423/4 32/1 422/3
f 424/7 32/1 423/4
f 425/129 178/117 568/142
f 426/118 396/109 425/129
f 427/97 396/109 426/118
f 525/37 428/24 526/45
f 428/24 362/11 434/17
f 429/15 366/10 96/22
f 430/34 96/22 181/42
f 431/74 401/85 427/97
f 432/63 181/42 431/74
f 433/52 181/42 432/63
f 434/17 362/11 424/7
f 435/220 352/180 436/239
f 436/239 352/180 448/221
f 437/255 361/241 354/199
f 438/272 361/241 437/255
f 439/584 125/583 471/587
f 440/585 150/582 439/584
f 441/476 317/451 440/488
f 442/238 354/199 435/220
f 443/237 411/198 73/218
f 444/219 411/198 443/237
f 445/591 125/583 126/589
f 446/316 126/302 140/257
f 447/200 412/167 444/219
f 448/221 352/180 447/200
f 449/288 140/257 438/272
f 450/517 114/505 232/503
f 451/516 232/503 479/510
f 452/487 54/468 441/476
f 453/479 121/490 61/463
f 454/470 61/463 59/454
f 455/477 59/454 7/469
f 456/530 116/522 473/531
f 457/529 93/520 456/530
f 143/514 458/534 562/532
f 459/528 143/514 92/524
f 460/533 92/524 481/536
f 461/301 140/257 449/288
f 462/499 121/490 453/479
f 463/486 105/462 54/468
f 464/498 7/469 463/486
f 465/235 72/217 397/197
f 466/268 73/218 465/235
f 467/489 7/469 464/498
f 468/497 54/468 452/487
f 469/521 149/512 450/517
f 470/535 92/524 457/529
f 471/587 125/583 478/590
f 472/526 149/512 480/525
f 473/531 116/522 472/526
f 474/252 397/197 475/267
f 475/267 397/197 477/286
f 476/254 73/218 466/268
f 477/286 397/197 523/269
f 478/590 125/583 445/591
f 479/510 232/503 121/490
f 480/525 149/512 469/521
f 481/536 92/524 470/535
f 482/511 121/490 483/504
f 483/504 121/490 462/499
f 484/29 362/11 525/37
f 485/195 392/165 521/215
f 486/178 392/165 485/195
f 487/46 391/27 488/38
f 488/38 391/27 395/12
f 489/26 395/12 501/18
f 490/623 393/617 491/622
f 491/622 393/617 505/620
f 492/84 29/73 493/62
f 493/62 29/73 389/41
f 494/19 362/11 484/29
f 495/28 33/8 494/19
f 496/51 389/41 85/31
f 497/61 85/31 498/58
f 498/58 85/31 500/47
f 499/39 81/20 503/48
f 500/47 85/31 499/39
f 501/18 395/12 33/8
f 502/25 33/8 495/28
f 503/624 81/621 490/623
f 504/57 80/30 487/46
f 505/620 393/617 504/619
f 506/96 414/83 83/60
f 507/95 83/60 512/82
f 508/108 415/104 416/71
f 509/93 416/71 31/72
f 510/107 31/72 506/96
f 511/114 415/104 508/108
f 512/82 83/60 29/73
f 513/138 386/127 379/91
f 514/126 379/91 511/114
f 515/216 76/179 517/196
f 516/236 397/197 515/216
f 517/196 76/179 75/155
f 518/164 392/165 386/127
f 519/193 392/165 518/164
f 520/154 386/127 513/138
f 521/215 392/165 519/193
f 522/194 75/155 486/178
f 523/269 397/197 527/253
f 524/94 29/73 492/84
f 525/37 362/11 428/24
f 527/253 397/197 516/236
f 528/299 477/286 523/269
f 529/362 169/336 163/372
f 530/374 301/347 529/362
f 531/309 194/293 532/323
f 532/323 194/293 533/324
f 533/324 194/293 58/310
f 534/263 24/228 303/227
f 535/295 303/227 531/309
f 536/409 193/395 552/418
f 537/417 163/372 536/409
f 538/246 24/228 534/263
f 539/230 329/187 538/246
f 540/173 329/187 541/208
f 541/208 329/187 539/230
f 542/147 404/160 540/173
f 543/133 371/111 542/147
f 544/146 178/117 543/133
f 545/494 209/485 554/502
f 546/483 208/449 545/494
f 547/158 178/117 544/146
f 548/515 118/507 549/519
f 549/519 118/507 143/514
f 550/458 142/427 208/449
f 551/466 208/449 555/474
f 552/418 193/395 553/428
f 553/428 193/395 142/427
f 554/502 209/485 206/496
f 555/474 208/449 546/483
f 556/460 142/427 550/458
f 557/375 301/347 530/374
f 558/397 163/372 565/410
f 559/387 163/372 558/397
f 560/348 301/347 557/375
f 561/337 58/310 560/348
f 562/532 458/534 570/537
f 563/527 143/514 562/532
f 564/509 206/496 548/515
f 565/410 163/372 537/417
f 566/450 142/427 556/460
f 567/523 143/514 563/527
f 568/142 178/117 547/158
f 569/157 425/129 568/142
usemtl Tile_+032_+024_L20_0001200_untextured
