mtllib Tile_+032_+021_L19_000010.mtl
v 6.33786490e+03 5.00000000e+03 1.72697576e+01
v 6.33904058e+03 5.00000000e+03 1.71024498e+01
v 6.32913936e+03 5.00000000e+03 1.83042587e+01
v 6.32872485e+03 5.00000000e+03 1.82266490e+01
v 6.34027943e+03 5.00000000e+03 1.87541905e+01
v 6.33956026e+03 5.00000000e+03 1.87250190e+01
v 6.32769075e+03 5.00000000e+03 1.74692029e+01
v 6.32668962e+03 5.00000000e+03 1.75269963e+01
v 6.32588033e+03 5.00000000e+03 1.78587182e+01
v 6.32672099e+03 5.00080571e+03 1.78104617e+01
v 6.32988518e+03 5.00000000e+03 1.80489890e+01
v 6.33110965e+03 5.00000000e+03 1.72026980e+01
v 6.33102404e+03 5.00000000e+03 1.72024029e+01
v 6.32314546e+03 5.00000000e+03 1.78094194e+01
v 6.32125089e+03 5.00000000e+03 1.78370920e+01
v 6.33407573e+03 5.00000000e+03 1.73166021e+01
v 6.33277193e+03 5.00152798e+03 1.71192383e+01
v 6.31822669e+03 5.00000000e+03 3.74765072e+01
v 6.31842305e+03 5.00000000e+03 3.79394680e+01
v 6.31404660e+03 5.00000000e+03 1.41682016e+01
v 6.31940171e+03 5.00000000e+03 2.51239356e+01
v 6.31949235e+03 5.00000000e+03 2.58522776e+01
v 6.34299083e+03 5.00000000e+03 1.10603983e+01
v 6.34307531e+03 5.00000000e+03 1.10932950e+01
v 6.34325920e+03 5.00000000e+03 1.00852005e+01
v 6.34299464e+03 5.00000000e+03 1.03781554e+01
v 6.34285100e+03 5.00000000e+03 1.09747088e+01
v 6.34344222e+03 5.00000000e+03 1.10549942e+01
v 6.34363545e+03 5.00000000e+03 1.04932634e+01
v 6.34317854e+03 5.00031885e+03 1.03387882e+01
v 6.34087880e+03 5.00000000e+03 1.85608645e+01
v 6.34134551e+03 5.00000000e+03 1.73010542e+01
v 6.31958844e+03 5.00000000e+03 2.66438996e+01
v 6.31452908e+03 5.00000000e+03 3.35286349e+01
v 6.31458057e+03 5.00000000e+03 3.16659204e+01
v 6.31907992e+03 5.00000000e+03 1.78079887e+01
v 6.31938264e+03 5.00000000e+03 2.21699896e+01
v 6.31469332e+03 5.00000000e+03 2.65282500e+01
v 6.31537214e+03 5.00000000e+03 2.55691134e+01
v 6.31486045e+03 5.00000000e+03 1.45478046e+01
v 6.31679898e+03 5.00000000e+03 3.77470509e+01
v 6.31625879e+03 5.00000000e+03 3.78070581e+01
v 6.31487963e+03 5.00000000e+03 3.80472073e+01
v 6.31800580e+03 5.00000000e+03 3.69559538e+01
v 6.31745538e+03 5.00047478e+03 3.67480916e+01
v 6.31593291e+03 5.00000000e+03 3.49153960e+01
v 6.31577435e+03 5.00000000e+03 3.43373678e+01
v 6.31459313e+03 5.00000000e+03 3.38680226e+01
v 6.31949400e+03 5.00000000e+03 2.46191113e+01
v 6.31525985e+03 5.00000000e+03 2.94802545e+01
v 6.31942678e+03 5.00000000e+03 2.97272858e+01
v 6.31937524e+03 5.00000000e+03 3.11593657e+01
v 6.31930544e+03 5.00000000e+03 2.77808848e+01
v 6.31931862e+03 5.00000000e+03 2.76527386e+01
v 6.31458930e+03 5.00000000e+03 2.83980399e+01
v 6.33039616e+03 5.00272199e+03 1.78050042e+01
v 6.33069225e+03 5.00236279e+03 1.72542280e+01
v 6.33781768e+03 5.00487293e+03 1.71618079e+01
v 6.33915744e+03 5.00560559e+03 1.76364733e+01
v 6.34068078e+03 5.01199845e+03 1.24838239e+01
v 6.33849953e+03 5.01339637e+03 1.20885641e+01
v 6.33237381e+03 5.00946243e+03 1.31575420e+01
v 6.33013774e+03 5.00938797e+03 1.37151041e+01
v 6.33170766e+03 5.01124831e+03 1.29725323e+01
v 6.32514924e+03 5.01012293e+03 1.39722590e+01
v 6.32678075e+03 5.01213380e+03 1.35474056e+01
v 6.32021246e+03 5.01802757e+03 1.34356115e+01
v 6.32083683e+03 5.01979896e+03 1.26843606e+01
v 6.31933996e+03 5.01876199e+03 1.26559387e+01
v 6.32137354e+03 5.01857134e+03 1.44987135e+01
v 6.31675131e+03 5.01036127e+03 1.44420070e+01
v 6.31582520e+03 5.01160073e+03 1.35692172e+01
v 6.31236675e+03 5.00521189e+03 1.40546272e+01
v 6.31229239e+03 5.00628924e+03 1.42205316e+01
v 6.31705693e+03 5.00174452e+03 1.42079264e+01
v 6.31490521e+03 5.00283430e+03 1.43438770e+01
v 6.32052096e+03 5.01804351e+03 1.56152861e+01
v 6.31754137e+03 5.02223102e+03 1.50378270e+01
v 6.31616916e+03 5.02186995e+03 1.43490520e+01
v 6.31583582e+03 5.03043770e+03 1.33608643e+01
v 6.31619141e+03 5.03051584e+03 1.25682516e+01
v 6.32045414e+03 5.02935158e+03 1.23285526e+01
v 6.31802595e+03 5.03067937e+03 1.23950468e+01
v 6.31245581e+03 5.02844760e+03 1.29884581e+01
v 6.31543504e+03 5.02620462e+03 1.31882651e+01
v 6.31424469e+03 5.02502328e+03 1.59275371e+01
v 6.31231689e+03 5.02387992e+03 1.34760738e+01
v 6.31418028e+03 5.02559508e+03 1.35527240e+01
v 6.31544576e+03 5.03001556e+03 1.42757939e+01
v 6.31522080e+03 5.02932174e+03 1.56243453e+01
v 6.31434153e+03 5.02569439e+03 1.37500000e+01
v 6.31349851e+03 5.02901127e+03 1.24750207e+01
v 6.31620904e+03 5.01719727e+03 1.25515490e+01
v 6.31885464e+03 5.01751265e+03 1.33656946e+01
v 6.31718690e+03 5.01496348e+03 1.35563535e+01
v 6.31913308e+03 5.01470315e+03 1.36050106e+01
v 6.31824954e+03 5.02348169e+03 1.31336419e+01
v 6.32017585e+03 5.00340997e+03 1.68264118e+01
v 6.31856537e+03 5.00220716e+03 1.56652713e+01
v 6.31283723e+03 5.02753596e+03 2.47603199e+01
v 6.31301028e+03 5.02761128e+03 2.75751937e+01
v 6.31303742e+03 5.02764138e+03 2.07421327e+01
v 6.31272833e+03 5.02143681e+03 1.44378991e+01
v 6.31870735e+03 5.03114245e+03 1.62477576e+01
v 6.31282637e+03 5.02843357e+03 1.95490590e+01
v 6.31233057e+03 5.02720929e+03 1.75151951e+01
v 6.31549759e+03 5.02931758e+03 1.74543146e+01
v 6.31637294e+03 5.03017251e+03 1.51853402e+01
v 6.31556600e+03 5.02367378e+03 1.88847961e+01
v 6.31443474e+03 5.02346732e+03 1.68963007e+01
v 6.31997850e+03 5.01704094e+03 1.92549144e+01
v 6.32098820e+03 5.01562612e+03 1.83298737e+01
v 6.31662004e+03 5.02613630e+03 1.53255289e+01
v 6.31773475e+03 5.02627999e+03 1.72484203e+01
v 6.31337061e+03 5.02423415e+03 1.49660503e+01
v 6.31459411e+03 5.02223704e+03 1.56372056e+01
v 6.31503284e+03 5.02170497e+03 1.49239692e+01
v 6.31947783e+03 5.02622398e+03 1.65562022e+01
v 6.32087364e+03 5.02995850e+03 1.28161530e+01
v 6.32108898e+03 5.02825730e+03 1.30351531e+01
v 6.31601034e+03 5.00122783e+03 1.41573620e+01
v 6.31233134e+03 5.00323982e+03 1.41807491e+01
v 6.31889552e+03 5.00192026e+03 1.69282208e+01
v 6.31988464e+03 5.01007682e+03 1.36131954e+01
v 6.31971824e+03 5.00933677e+03 1.39789504e+01
v 6.31251947e+03 5.01197257e+03 1.41706867e+01
v 6.31495502e+03 5.01372659e+03 1.35838929e+01
v 6.31798811e+03 5.02667342e+03 1.31391930e+01
v 6.31819973e+03 5.02836383e+03 1.23294126e+01
v 6.31572148e+03 5.02550293e+03 1.85700699e+01
v 6.31348193e+03 5.02415317e+03 1.58203683e+01
v 6.31823858e+03 5.02166641e+03 1.69803771e+01
v 6.31633299e+03 5.02666945e+03 1.26877162e+01
v 6.31668308e+03 5.01572029e+03 1.34307648e+01
v 6.31977592e+03 5.02442588e+03 1.22096805e+01
v 6.32096917e+03 5.02296622e+03 1.23765524e+01
v 6.31848724e+03 5.02331601e+03 1.50177655e+01
v 6.31849534e+03 5.02394920e+03 1.57580094e+01
v 6.31945809e+03 5.00376921e+03 1.47406995e+01
v 6.31902689e+03 5.01712384e+03 1.43067605e+01
v 6.31846500e+03 5.02588994e+03 1.81739050e+01
v 6.31334843e+03 5.03069880e+03 1.42427250e+01
v 6.31258534e+03 5.03145826e+03 1.29281753e+01
v 6.31753118e+03 5.00126613e+03 3.77813917e+01
v 6.31231801e+03 5.03106982e+03 3.76019152e+01
v 6.31309938e+03 5.03116770e+03 3.69784787e+01
v 6.31577808e+03 5.00000000e+03 3.60376900e+01
v 6.31602692e+03 5.02970148e+03 3.04726203e+01
v 6.31513279e+03 5.02964308e+03 2.94246033e+01
v 6.31666730e+03 5.00106798e+03 3.53793015e+01
v 6.31686881e+03 5.00110125e+03 3.62555322e+01
v 6.31665924e+03 5.00035658e+03 3.42207346e+01
v 6.31706787e+03 5.00213113e+03 3.46263988e+01
v 6.31294585e+03 5.02761040e+03 3.34435723e+01
v 6.31295385e+03 5.02758459e+03 3.61540573e+01
v 6.31424715e+03 5.02969568e+03 1.60641229e+01
v 6.31857902e+03 5.00000000e+03 3.48649592e+01
v 6.31790691e+03 5.00000000e+03 3.48537926e+01
v 6.31742707e+03 5.00039176e+03 3.47008598e+01
v 6.31813962e+03 5.00192669e+03 2.67231642e+01
v 6.31734346e+03 5.00196681e+03 2.89228806e+01
v 6.31403661e+03 5.02876735e+03 2.95787237e+01
v 6.31236620e+03 5.03085937e+03 3.98239277e+01
v 6.31789238e+03 5.00201526e+03 2.94589034e+01
v 6.31584866e+03 5.02952433e+03 3.64178091e+01
v 6.31430538e+03 5.02912772e+03 3.54621783e+01
v 6.31865384e+03 5.03139279e+03 3.64340940e+01
v 6.31246540e+03 5.02760390e+03 3.72099444e+01
v 6.31706588e+03 5.00222859e+03 3.64995943e+01
v 6.31947280e+03 5.00000000e+03 3.18811279e+01
v 6.31787157e+03 5.00209216e+03 3.23859513e+01
v 6.31460601e+03 5.00000000e+03 2.36896226e+01
v 6.31730472e+03 5.00207013e+03 3.24841707e+01
v 6.31769571e+03 5.03138826e+03 2.67728578e+01
v 6.31596952e+03 5.02968749e+03 2.49338016e+01
v 6.31734426e+03 5.00187271e+03 3.54097669e+01
v 6.31645413e+03 5.00129107e+03 3.38268029e+01
v 6.31669970e+03 5.00137383e+03 3.07767057e+01
v 6.31599915e+03 5.02965815e+03 3.33675498e+01
v 6.31505604e+03 5.02954482e+03 3.23510499e+01
v 6.31293834e+03 5.02758071e+03 3.04924473e+01
v 6.31560983e+03 5.02941322e+03 2.76022053e+01
v 6.31733763e+03 5.03072696e+03 2.76584202e+01
v 6.31369956e+03 5.02858721e+03 3.23754159e+01
v 6.31787338e+03 5.00197576e+03 3.38407252e+01
v 6.31425872e+03 5.02834208e+03 3.65220039e+01
v 6.31679038e+03 5.00145767e+03 3.80024034e+01
v 6.31378010e+03 5.02862161e+03 2.67342173e+01
v 6.31660476e+03 5.03048087e+03 3.50495874e+01
v 6.34171652e+03 5.01099244e+03 1.40066985e+01
v 6.34247770e+03 5.01467554e+03 1.70863828e+01
v 6.34196429e+03 5.01071888e+03 1.32143095e+01
v 6.34146038e+03 5.01302761e+03 1.19951191e+01
v 6.33882960e+03 5.01727125e+03 1.20562611e+01
v 6.34232421e+03 5.00936630e+03 1.09228158e+01
v 6.34173611e+03 5.01059233e+03 1.17512630e+01
v 6.34350142e+03 5.01065505e+03 1.08272132e+01
v 6.34130667e+03 5.01096925e+03 1.28441309e+01
v 6.34331896e+03 5.00157273e+03 1.77605980e+01
v 6.34183832e+03 5.00068599e+03 1.85698660e+01
v 6.34333379e+03 5.01184784e+03 1.38558514e+01
v 6.34019015e+03 5.01176565e+03 1.56953596e+01
v 6.34030275e+03 5.01056828e+03 1.41589123e+01
v 6.34189671e+03 5.01148171e+03 1.14793662e+01
v 6.34322498e+03 5.00865847e+03 1.10643037e+01
v 6.34197393e+03 5.00915435e+03 1.16179110e+01
v 6.34387346e+03 5.00000000e+03 1.04366839e+01
v 6.34384188e+03 5.02081076e+03 1.20013160e+01
v 6.34159875e+03 5.00930579e+03 1.13957509e+01
v 6.34203914e+03 5.01533644e+03 1.20816546e+01
v 6.34338442e+03 5.00000000e+03 1.10057782e+01
v 6.34254913e+03 5.02960075e+03 1.19108983e+01
v 6.34043071e+03 5.02360475e+03 1.19525190e+01
v 6.33970008e+03 5.01108396e+03 1.35583374e+01
v 6.33968149e+03 5.01088232e+03 1.72903806e+01
v 6.34080433e+03 5.01121240e+03 1.69375502e+01
v 6.34149379e+03 5.01245723e+03 1.71693730e+01
v 6.33965290e+03 5.01252712e+03 1.71000344e+01
v 6.34256576e+03 5.01047425e+03 1.70568412e+01
v 6.34274070e+03 5.00803663e+03 1.69067749e+01
v 6.34210470e+03 5.00762717e+03 1.72717348e+01
v 6.34197797e+03 5.00582087e+03 1.70377667e+01
v 6.34274128e+03 5.00287815e+03 1.71570035e+01
v 6.33989434e+03 5.00227966e+03 1.71577492e+01
v 6.34061176e+03 5.00122401e+03 1.80406165e+01
v 6.34375694e+03 5.00155765e+03 1.72690990e+01
v 6.33884493e+03 5.00741088e+03 1.71775316e+01
v 6.34291319e+03 5.00241538e+03 1.87044625e+01
v 6.34313368e+03 5.00156713e+03 1.86683201e+01
v 6.34151842e+03 5.00143513e+03 1.87288133e+01
v 6.34059680e+03 5.00081071e+03 1.86010463e+01
v 6.34301745e+03 5.00233594e+03 1.77493650e+01
v 6.34212289e+03 5.00236515e+03 1.77259906e+01
v 6.33995544e+03 5.01962616e+03 1.19279222e+01
v 6.32991421e+03 5.02432415e+03 1.29134215e+01
v 6.33176844e+03 5.02209296e+03 1.29529686e+01
v 6.32457160e+03 5.01641522e+03 1.34729703e+01
v 6.32751278e+03 5.01357609e+03 1.36327457e+01
v 6.32241685e+03 5.01658694e+03 1.40626364e+01
v 6.32864003e+03 5.02014840e+03 1.43133672e+01
v 6.32756290e+03 5.02104672e+03 1.45126777e+01
v 6.32708146e+03 5.01785526e+03 1.30355294e+01
v 6.32750993e+03 5.01907004e+03 1.33082078e+01
v 6.32914845e+03 5.01994037e+03 1.28551785e+01
v 6.33924401e+03 5.01179749e+03 1.39044514e+01
v 6.32411862e+03 5.00249461e+03 1.75261726e+01
v 6.32241700e+03 5.00390510e+03 1.68933623e+01
v 6.32318318e+03 5.01643144e+03 1.59740126e+01
v 6.32352426e+03 5.01707740e+03 1.60618505e+01
v 6.32259647e+03 5.02795208e+03 1.33329506e+01
v 6.33366413e+03 5.00862102e+03 1.70179167e+01
v 6.33680470e+03 5.01010303e+03 1.41683532e+01
v 6.32748778e+03 5.00163841e+03 1.77497345e+01
v 6.32998138e+03 5.00045485e+03 1.82613296e+01
v 6.32843774e+03 5.00065613e+03 1.77683174e+01
v 6.32815841e+03 5.02165480e+03 1.84561050e+01
v 6.32707761e+03 5.02154521e+03 1.70808833e+01
v 6.32229312e+03 5.01887491e+03 1.90674011e+01
v 6.32049932e+03 5.01872180e+03 1.85422242e+01
v 6.32469948e+03 5.00201445e+03 1.59567554e+01
v 6.32266801e+03 5.00309434e+03 1.56230845e+01
v 6.32160041e+03 5.00391405e+03 1.65456040e+01
v 6.32215737e+03 5.00398352e+03 1.48554782e+01
v 6.32223107e+03 5.01575066e+03 1.34164802e+01
v 6.32136129e+03 5.01500924e+03 1.34703735e+01
v 6.32400597e+03 5.02407009e+03 1.22131201e+01
v 6.32811474e+03 5.01981680e+03 1.59180685e+01
v 6.32764432e+03 5.02209538e+03 1.40254063e+01
v 6.32357325e+03 5.01843516e+03 1.43651121e+01
v 6.32298773e+03 5.01805888e+03 1.38225643e+01
v 6.32306341e+03 5.01763692e+03 1.47320830e+01
v 6.32560304e+03 5.00278292e+03 1.43096110e+01
v 6.32426104e+03 5.00254192e+03 1.41610714e+01
v 6.32523817e+03 5.00216165e+03 1.46678801e+01
v 6.32896512e+03 5.02374924e+03 1.71721295e+01
v 6.33001460e+03 5.02323968e+03 1.60701562e+01
v 6.33514095e+03 5.01895185e+03 1.20427062e+01
v 6.33281797e+03 5.01674496e+03 1.29997617e+01
v 6.33962923e+03 5.01162463e+03 1.50095030e+01
v 6.33082368e+03 5.02260457e+03 1.45484186e+01
v 6.33116122e+03 5.02091838e+03 1.54287199e+01
v 6.32299904e+03 5.01972611e+03 1.41536529e+01
v 6.32247747e+03 5.01847382e+03 1.46468591e+01
v 6.32247622e+03 5.02987111e+03 1.31901891e+01
v 6.32321921e+03 5.03090936e+03 1.27813306e+01
v 6.32243445e+03 5.03114413e+03 1.21321029e+01
v 6.32215868e+03 5.02622844e+03 1.22321027e+01
v 6.32326379e+03 5.02000443e+03 1.31626370e+01
v 6.32357687e+03 5.02086544e+03 1.24308950e+01
v 6.32409372e+03 5.02940417e+03 1.35568828e+01
v 6.32338841e+03 5.01737873e+03 1.33928548e+01
v 6.32462528e+03 5.01773540e+03 1.41467690e+01
v 6.32172753e+03 5.01616276e+03 1.40866020e+01
v 6.32301863e+03 5.01833216e+03 1.52723893e+01
v 6.32364988e+03 5.00435264e+03 1.41996663e+01
v 6.32066877e+03 5.00524954e+03 1.42186349e+01
v 6.32126389e+03 5.01255277e+03 1.33662030e+01
v 6.32493679e+03 5.01129359e+03 1.35803334e+01
v 6.32103316e+03 5.00808940e+03 1.37854817e+01
v 6.32280914e+03 5.00740517e+03 1.41536659e+01
v 6.32066767e+03 5.00418542e+03 1.51127938e+01
v 6.32271229e+03 5.00242802e+03 1.46200418e+01
v 6.32463931e+03 5.00520808e+03 1.41910364e+01
v 6.32235646e+03 5.00640248e+03 1.38462922e+01
v 6.32331900e+03 5.01537915e+03 1.35846781e+01
v 6.32413796e+03 5.01347310e+03 1.34504299e+01
v 6.32419928e+03 5.02753118e+03 1.20506197e+01
v 6.32411190e+03 5.02038768e+03 1.27988277e+01
v 6.33111175e+03 5.02536524e+03 1.19212852e+01
v 6.33277208e+03 5.02701314e+03 1.19118708e+01
v 6.33267686e+03 5.02231247e+03 1.20201505e+01
v 6.33599403e+03 5.02221532e+03 1.19659717e+01
v 6.33670116e+03 5.02344908e+03 1.24600233e+01
v 6.33603761e+03 5.02442707e+03 1.19737562e+01
v 6.33738184e+03 5.02197641e+03 1.21751160e+01
v 6.32794719e+03 5.02370560e+03 1.21635996e+01
v 6.32589359e+03 5.02716807e+03 1.20516089e+01
v 6.32597130e+03 5.02226296e+03 1.23046295e+01
v 6.32774507e+03 5.02971329e+03 1.18496429e+01
v 6.32707360e+03 5.02995341e+03 1.26209142e+01
v 6.32599314e+03 5.03014325e+03 1.30827983e+01
v 6.32528614e+03 5.02904943e+03 1.32901228e+01
v 6.32892503e+03 5.02249570e+03 1.32346740e+01
v 6.32930312e+03 5.02329943e+03 1.28774759e+01
v 6.32818704e+03 5.02208205e+03 1.31981314e+01
v 6.33022196e+03 5.02262070e+03 1.32776542e+01
v 6.33045323e+03 5.02195803e+03 1.30735864e+01
v 6.32711277e+03 5.02252846e+03 1.30739663e+01
v 6.32663466e+03 5.02190463e+03 1.38952997e+01
v 6.32616436e+03 5.02893608e+03 1.22051282e+01
v 6.32571967e+03 5.01794804e+03 1.35253521e+01
v 6.32768658e+03 5.01961388e+03 1.39170406e+01
v 6.32552453e+03 5.02018576e+03 1.33116460e+01
v 6.32639273e+03 5.01937545e+03 1.30533475e+01
v 6.32477215e+03 5.01862434e+03 1.28144781e+01
v 6.32866065e+03 5.02334165e+03 1.44867002e+01
v 6.32731830e+03 5.02253189e+03 1.50852595e+01
v 6.33706076e+03 5.01561661e+03 1.20650596e+01
v 6.33521782e+03 5.01345066e+03 1.29615287e+01
v 6.32983939e+03 5.02076367e+03 1.37823268e+01
v 6.32560651e+03 5.02131234e+03 1.30566427e+01
v 6.32983030e+03 5.01450668e+03 1.29612148e+01
v 6.32946868e+03 5.02420095e+03 1.55618271e+01
v 6.32976710e+03 5.02340928e+03 1.44209864e+01
v 6.32989939e+03 5.02154778e+03 1.36418466e+01
v 6.33043822e+03 5.02069797e+03 1.29076312e+01
v 6.33101986e+03 5.01832823e+03 1.30259338e+01
v 6.32868700e+03 5.01773399e+03 1.29802465e+01
v 6.32997682e+03 5.02009342e+03 1.48314711e+01
v 6.33623625e+03 5.01218534e+03 1.31825567e+01
v 6.33735858e+03 5.01140878e+03 1.34373342e+01
v 6.33856395e+03 5.01237422e+03 1.30247321e+01
v 6.33697880e+03 5.01193262e+03 1.34930392e+01
v 6.33500871e+03 5.00896600e+03 1.38274626e+01
v 6.33318447e+03 5.00873633e+03 1.36100199e+01
v 6.33217016e+03 5.00870392e+03 1.40542959e+01
v 6.32815525e+03 5.01113825e+03 1.36353227e+01
v 6.32823073e+03 5.00934937e+03 1.36423763e+01
v 6.33225594e+03 5.00774254e+03 1.42558692e+01
v 6.33156860e+03 5.00670599e+03 1.51842548e+01
v 6.32876700e+03 5.00560958e+03 1.45302887e+01
v 6.32741946e+03 5.00800783e+03 1.40903014e+01
v 6.32828514e+03 5.00455421e+03 1.54029174e+01
v 6.33667819e+03 5.00000000e+03 1.70566992e+01
v 6.32505701e+03 5.00631393e+03 1.38775293e+01
v 6.33036612e+03 5.00075432e+03 1.71432195e+01
v 6.32791066e+03 5.00438492e+03 1.76453994e+01
v 6.33047742e+03 5.00639947e+03 1.70856296e+01
v 6.32707688e+03 5.01035853e+03 1.42680122e+01
v 6.33128712e+03 5.00616054e+03 1.73565534e+01
v 6.32233211e+03 5.00455176e+03 1.78720453e+01
v 6.32917126e+03 5.00551151e+03 1.63922907e+01
v 6.33147751e+03 5.00731169e+03 1.68030579e+01
v 6.33541742e+03 5.00972175e+03 1.73317668e+01
v 6.33750759e+03 5.01101425e+03 1.73398905e+01
v 6.33595019e+03 5.00697467e+03 1.72104192e+01
v 6.33334113e+03 5.00357054e+03 1.71584005e+01
v 6.33012989e+03 5.00604532e+03 1.41006560e+01
v 6.32397417e+03 5.00738406e+03 1.39591867e+01
v 6.32238038e+03 5.01541602e+03 1.70369903e+01
v 6.32128775e+03 5.01544026e+03 1.65336207e+01
v 6.32155259e+03 5.01886721e+03 1.62211590e+01
v 6.32297829e+03 5.01912301e+03 1.74184325e+01
v 6.33689645e+03 5.01043321e+03 1.59580996e+01
v 6.33075283e+03 5.02075603e+03 1.74782138e+01
v 6.33054602e+03 5.02247990e+03 1.74609709e+01
v 6.33195271e+03 5.02142338e+03 1.65426924e+01
v 6.33136654e+03 5.02241407e+03 1.66750494e+01
v 6.32328838e+03 5.01643742e+03 1.78261309e+01
v 6.32806136e+03 5.02263614e+03 1.83661347e+01
v 6.33839634e+03 5.01181391e+03 1.62655277e+01
v 6.32897527e+03 5.02383729e+03 1.59888549e+01
v 6.33992805e+03 5.00467460e+03 1.72260457e+01
v 6.32783125e+03 5.02318685e+03 1.65513056e+01
v 6.32764840e+03 5.02085063e+03 1.74107766e+01
v 6.32962797e+03 5.01987476e+03 1.72712546e+01
v 6.32299588e+03 5.01859970e+03 1.84085607e+01
v 6.32347882e+03 5.01875627e+03 1.67442844e+01
v 6.32880000e+03 5.00155825e+03 1.78364973e+01
v 6.32579835e+03 5.00298541e+03 1.69743358e+01
v 6.32567713e+03 5.00233915e+03 1.81219277e+01
v 6.33214484e+03 5.00386988e+03 1.79249185e+01
v 6.33068092e+03 5.00597236e+03 1.80179700e+01
v 6.33761933e+03 5.00686772e+03 1.74949037e+01
v 6.33833133e+03 5.00687589e+03 1.81355799e+01
v 6.33969877e+03 5.00075974e+03 1.76193878e+01
v 6.33963976e+03 5.00000000e+03 1.80187170e+01
v 6.33027741e+03 5.00000000e+03 1.75896302e+01
v 6.33026571e+03 5.00000000e+03 1.76150705e+01
v 6.33953895e+03 5.00000000e+03 1.74855757e+01
v 6.33029421e+03 5.02270188e+03 1.84310926e+01
v 6.33028047e+03 5.02165829e+03 1.91835844e+01
v 6.32935234e+03 5.02302113e+03 1.84862877e+01
v 6.32968716e+03 5.02041204e+03 1.88893796e+01
v 6.32945838e+03 5.02215065e+03 1.95641389e+01
v 6.32192024e+03 5.01801833e+03 1.96507553e+01
v 6.32131237e+03 5.01740723e+03 2.08133955e+01
v 6.32216732e+03 5.01609400e+03 2.00032371e+01
v 6.32257245e+03 5.01583320e+03 1.85881769e+01
v 6.32145402e+03 5.01562073e+03 1.93261655e+01
v 6.32264388e+03 5.01717510e+03 1.90959062e+01
v 6.32247029e+03 5.01702423e+03 2.00200166e+01
v 6.32093710e+03 5.01695375e+03 2.03720980e+01
v 6.32110094e+03 5.01554925e+03 1.46165164e+01
v 6.32415057e+03 5.00200944e+03 1.78574617e+01
v 6.33335046e+03 5.01122634e+03 1.35027289e+01
v 6.31989210e+03 5.03124387e+03 1.23253697e+01
v 6.32029551e+03 5.03020260e+03 1.28833166e+01
v 6.31526948e+03 5.02965093e+03 1.25043495e+01
v 6.31794897e+03 5.01270698e+03 1.33889134e+01
v 6.31788532e+03 5.01124681e+03 1.37094857e+01
v 6.31850421e+03 5.01654743e+03 1.43172131e+01
v 6.32021791e+03 5.02540927e+03 1.23195943e+01
v 6.32068184e+03 5.02764093e+03 1.26224925e+01
v 6.31903601e+03 5.02697266e+03 1.23526817e+01
v 6.31888344e+03 5.02493983e+03 1.34570077e+01
v 6.31845473e+03 5.02310045e+03 1.25881596e+01
v 6.31693808e+03 5.02257910e+03 1.31815450e+01
v 6.31591741e+03 5.02142812e+03 1.34407448e+01
v 6.31995693e+03 5.01754840e+03 1.44601949e+01
v 6.31870231e+03 5.02138826e+03 1.25781646e+01
v 6.31816007e+03 5.01656073e+03 1.32146481e+01
v 6.31986437e+03 5.01541539e+03 1.45415011e+01
v 6.31419871e+03 5.03083151e+03 1.34706887e+01
v 6.31442576e+03 5.03075665e+03 1.44906762e+01
v 6.31259195e+03 5.02524756e+03 1.25302613e+01
v 6.31384538e+03 5.02555465e+03 1.27618593e+01
v 6.31439484e+03 5.02646894e+03 1.24974470e+01
v 6.31397828e+03 5.02620254e+03 1.25808627e+01
v 6.31595058e+03 5.01910358e+03 1.25308775e+01
v 6.31411240e+03 5.01836222e+03 1.29259470e+01
v 6.31587249e+03 5.01493781e+03 1.43152837e+01
v 6.31439752e+03 5.01548531e+03 1.33815073e+01
v 6.31474535e+03 5.01417492e+03 1.42235191e+01
v 6.31307412e+03 5.01299216e+03 1.43688600e+01
v 6.31322923e+03 5.02362404e+03 1.43619920e+01
v 6.31879355e+03 5.02556231e+03 1.52183540e+01
v 6.31844311e+03 5.02482264e+03 1.52389266e+01
v 6.31353778e+03 5.03144932e+03 1.30153469e+01
v 6.31321281e+03 5.02011883e+03 1.40504623e+01
v 6.31293794e+03 5.03101628e+03 1.24550693e+01
v 6.31352120e+03 5.02246951e+03 1.38743739e+01
v 6.31959672e+03 5.01610217e+03 1.51192814e+01
v 6.31261143e+03 5.01122427e+03 1.42013775e+01
v 6.31807333e+03 5.02610422e+03 1.51749047e+01
v 6.31863010e+03 5.00896803e+03 1.49210901e+01
v 6.31874551e+03 5.00804353e+03 1.39174252e+01
v 6.31259176e+03 5.00858077e+03 1.42172319e+01
v 6.31300552e+03 5.00745019e+03 1.36823672e+01
v 6.31771821e+03 5.00867742e+03 1.46800250e+01
v 6.31769239e+03 5.01008023e+03 1.42389106e+01
v 6.31410065e+03 5.00893195e+03 1.35421888e+01
v 6.31589329e+03 5.00881988e+03 1.43820135e+01
v 6.31510516e+03 5.00952654e+03 1.40798966e+01
v 6.31569405e+03 5.00778480e+03 1.38752673e+01
v 6.31276824e+03 5.00971530e+03 1.35685425e+01
v 6.31412631e+03 5.00644333e+03 1.38675095e+01
v 6.31629918e+03 5.00461226e+03 1.39496872e+01
v 6.31891821e+03 5.00507171e+03 1.40168647e+01
v 6.31819116e+03 5.00277202e+03 1.38272929e+01
v 6.31462103e+03 5.00000000e+03 1.84106878e+01
v 6.31652369e+03 5.00124971e+03 1.76894188e+01
v 6.31956381e+03 5.00289744e+03 1.77496408e+01
v 6.31825208e+03 5.00185975e+03 1.77100301e+01
v 6.31727619e+03 5.00210064e+03 1.71946663e+01
v 6.31248649e+03 5.01139155e+03 1.67755515e+01
v 6.32005266e+03 5.01669083e+03 1.74933326e+01
v 6.31545456e+03 5.02223098e+03 1.78181291e+01
v 6.31583162e+03 5.02152432e+03 1.64359237e+01
v 6.31325157e+03 5.02053176e+03 1.48521895e+01
v 6.31232702e+03 5.01029281e+03 1.70036769e+01
v 6.31411946e+03 5.02169185e+03 1.49924511e+01
v 6.31602463e+03 5.02925066e+03 1.62676473e+01
v 6.31893424e+03 5.02407528e+03 1.69443636e+01
v 6.31857804e+03 5.02403913e+03 1.83535000e+01
v 6.31287038e+03 5.01087085e+03 1.85478514e+01
v 6.31660836e+03 5.02202088e+03 1.74230014e+01
v 6.31466484e+03 5.02448662e+03 1.80929277e+01
v 6.31910052e+03 5.02563517e+03 1.76353272e+01
v 6.31920144e+03 5.02313250e+03 1.68002967e+01
v 6.31995299e+03 5.01769215e+03 1.90951559e+01
v 6.31764074e+03 5.03034968e+03 2.13491953e+01
v 6.31384708e+03 5.02849001e+03 2.01356689e+01
v 6.31790946e+03 5.02428202e+03 1.92857528e+01
v 6.31772535e+03 5.02365210e+03 1.92105627e+01
v 6.31675177e+03 5.02344902e+03 1.85065659e+01
v 6.31260311e+03 5.02743187e+03 2.18097501e+01
v 6.31572774e+03 5.02515799e+03 1.89904009e+01
v 6.31743023e+03 5.02579970e+03 1.89765970e+01
v 6.31697342e+03 5.03071453e+03 1.84321931e+01
v 6.31657292e+03 5.03040792e+03 2.00507685e+01
v 6.31586229e+03 5.02962918e+03 1.87886710e+01
v 6.31565253e+03 5.02954785e+03 2.05355629e+01
v 6.31584867e+03 5.02962468e+03 2.19850452e+01
v 6.31495535e+03 5.03018026e+03 1.95658583e+01
v 6.31353792e+03 5.02849684e+03 1.88863887e+01
v 6.31788506e+03 5.02293984e+03 1.81752637e+01
v 6.31787377e+03 5.03141910e+03 2.37984100e+01
v 6.31481675e+03 5.02928274e+03 2.38739648e+01
v 6.31504604e+03 5.02949932e+03 2.66529502e+01
v 6.31776283e+03 5.00208812e+03 2.26823798e+01
v 6.31832794e+03 5.00176303e+03 2.37394978e+01
v 6.31755134e+03 5.00198045e+03 2.51460207e+01
v 6.31773374e+03 5.00208756e+03 1.82690963e+01
v 6.31429720e+03 5.03010687e+03 1.28539201e+01
v 6.31524800e+03 5.02944002e+03 1.82964738e+01
v 6.31495812e+03 5.03003856e+03 1.87724776e+01
v 6.31924636e+03 5.00000000e+03 3.36418212e+01
v 6.31690897e+03 5.00209864e+03 3.80647631e+01
v 6.31806635e+03 5.00000000e+03 3.58661927e+01
v 6.31498646e+03 5.02932382e+03 3.71429626e+01
v 6.31754040e+03 5.00100134e+03 3.58693008e+01
v 6.31840783e+03 5.00041578e+03 3.41894181e+01
v 6.31794897e+03 5.00129397e+03 3.48492793e+01
v 6.31703649e+03 5.03087474e+03 3.21825574e+01
v 6.31294755e+03 5.02768772e+03 3.22618562e+01
v 6.31841365e+03 5.00158945e+03 3.05190823e+01
v 6.31730106e+03 5.03108029e+03 2.94532119e+01
v 6.31225000e+03 5.02754483e+03 3.55281228e+01
v 6.31225000e+03 5.02705464e+03 3.63591372e+01
v 6.31225000e+03 5.02714077e+03 2.48352493e+01
v 6.31225000e+03 5.02724324e+03 2.53094457e+01
v 6.31225000e+03 5.02759613e+03 3.21610347e+01
v 6.31225000e+03 5.02761191e+03 3.24247942e+01
v 6.31225000e+03 5.02715456e+03 3.33933067e+01
v 6.31225000e+03 5.02754837e+03 3.51632532e+01
v 6.31225000e+03 5.02729463e+03 3.69255394e+01
v 6.31225000e+03 5.02776176e+03 3.72148250e+01
v 6.31225000e+03 5.02761811e+03 3.72136321e+01
v 6.31225000e+03 5.02744095e+03 3.74327337e+01
v 6.31225000e+03 5.02750367e+03 3.72578437e+01
v 6.31225000e+03 5.02743172e+03 2.71491580e+01
v 6.31225000e+03 5.02709967e+03 2.75558192e+01
v 6.31225000e+03 5.02744564e+03 2.90059037e+01
v 6.31225000e+03 5.02744134e+03 2.98089684e+01
v 6.31225000e+03 5.02711395e+03 3.05121924e+01
v 6.31225000e+03 5.02727817e+03 3.12185011e+01
v 6.31225000e+03 5.02760053e+03 3.25990559e+01
v 6.31225000e+03 5.03075973e+03 3.98230500e+01
v 6.31225000e+03 5.03077390e+03 3.98238651e+01
v 6.31225000e+03 5.03088219e+03 3.98243862e+01
v 6.31225000e+03 5.03116293e+03 3.98283866e+01
v 6.31225000e+03 5.03068531e+03 3.97905448e+01
v 6.31225000e+03 5.03071185e+03 3.97176105e+01
v 6.31225000e+03 5.03037550e+03 3.70739648e+01
v 6.31225000e+03 5.03068399e+03 3.71532726e+01
v 6.31225000e+03 5.03096509e+03 3.76871229e+01
v 6.31225000e+03 5.03101658e+03 3.75965771e+01
v 6.31225000e+03 5.02797809e+03 1.90267534e+01
v 6.31225000e+03 5.02801239e+03 1.91166219e+01
v 6.31225000e+03 5.01385034e+03 1.34325342e+01
v 6.31225000e+03 5.01338320e+03 1.37592099e+01
v 6.31225000e+03 5.01987124e+03 1.48806231e+01
v 6.31225000e+03 5.02050024e+03 1.48396836e+01
v 6.31225000e+03 5.01971728e+03 1.45615314e+01
v 6.31225000e+03 5.02769314e+03 1.25526496e+01
v 6.31225000e+03 5.02789036e+03 1.27173521e+01
v 6.31225000e+03 5.00802413e+03 1.37986456e+01
v 6.31225000e+03 5.00853332e+03 1.40925749e+01
v 6.31225000e+03 5.00324889e+03 1.41753329e+01
v 6.31225000e+03 5.00330277e+03 1.41602617e+01
v 6.31225000e+03 5.01140571e+03 1.52125178e+01
v 6.31225000e+03 5.01153928e+03 1.51577388e+01
v 6.31225000e+03 5.01132891e+03 1.73138625e+01
v 6.31225000e+03 5.01115748e+03 1.80427399e+01
v 6.31225000e+03 5.01065831e+03 1.77976013e+01
v 6.31225000e+03 5.02718111e+03 2.16899065e+01
v 6.31225000e+03 5.02714995e+03 2.14499899e+01
v 6.31225000e+03 5.02845271e+03 1.58408808e+01
v 6.31225000e+03 5.02728780e+03 1.73459980e+01
v 6.31225000e+03 5.02721293e+03 1.77065460e+01
v 6.31225000e+03 5.02717573e+03 1.75907846e+01
v 6.31225000e+03 5.02715348e+03 1.75204607e+01
v 6.31225000e+03 5.02745935e+03 1.84848166e+01
v 6.31225000e+03 5.02732562e+03 2.25325275e+01
v 6.31225000e+03 5.02790142e+03 1.92379428e+01
v 6.31225000e+03 5.02734334e+03 2.43383211e+01
v 6.31225000e+03 5.02707738e+03 2.06513828e+01
v 6.31225000e+03 5.03123218e+03 1.28103891e+01
v 6.31225000e+03 5.03117856e+03 1.30636437e+01
v 6.31225000e+03 5.02376171e+03 1.36565697e+01
v 6.31225000e+03 5.02337219e+03 1.47757987e+01
v 6.31225000e+03 5.02718279e+03 1.74454888e+01
v 6.31225000e+03 5.01042756e+03 1.67599131e+01
v 6.31225000e+03 5.01034192e+03 1.70814253e+01
v 6.31225000e+03 5.01141517e+03 1.64266999e+01
v 6.31225000e+03 5.01120684e+03 1.63453958e+01
v 6.31225000e+03 5.01142779e+03 1.56822720e+01
v 6.31225000e+03 5.00629622e+03 1.42044547e+01
v 6.31225000e+03 5.00532819e+03 1.40280366e+01
v 6.31225000e+03 5.00961483e+03 1.36772540e+01
v 6.31225000e+03 5.01075104e+03 1.41200691e+01
v 6.31225000e+03 5.00157030e+03 1.40942262e+01
v 6.31225000e+03 5.00253794e+03 1.41410270e+01
v 6.31225000e+03 5.00345194e+03 1.41534610e+01
v 6.31225000e+03 5.00707139e+03 1.37140704e+01
v 6.31225000e+03 5.00911313e+03 1.37201163e+01
v 6.31225000e+03 5.00321083e+03 1.41841581e+01
v 6.31225000e+03 5.01108010e+03 1.43595267e+01
v 6.31225000e+03 5.00856654e+03 1.38052966e+01
v 6.31225000e+03 5.01108499e+03 1.50566162e+01
v 6.31225000e+03 5.02386258e+03 1.34718524e+01
v 6.31225000e+03 5.02251241e+03 1.41342358e+01
v 6.31225000e+03 5.02216817e+03 1.42646733e+01
v 6.31225000e+03 5.02096417e+03 1.46344052e+01
v 6.31225000e+03 5.01947025e+03 1.35962045e+01
v 6.31225000e+03 5.01251916e+03 1.42496435e+01
v 6.31225000e+03 5.01207528e+03 1.41749901e+01
v 6.31225000e+03 5.02273030e+03 1.42156946e+01
v 6.31225000e+03 5.02322933e+03 1.46105160e+01
v 6.31225000e+03 5.03039102e+03 1.25978370e+01
v 6.31225000e+03 5.03095533e+03 1.25672509e+01
v 6.31225000e+03 5.02920086e+03 1.26543340e+01
v 6.31225000e+03 5.02747891e+03 1.25614167e+01
v 6.31225000e+03 5.01910504e+03 1.33567685e+01
v 6.31225000e+03 5.02696679e+03 1.25523580e+01
v 6.31225000e+03 5.02493870e+03 1.26722920e+01
v 6.31225000e+03 5.02543444e+03 1.25922522e+01
v 6.31225000e+03 5.01591545e+03 1.31986759e+01
v 6.31225000e+03 5.01591327e+03 1.31990092e+01
v 6.31225000e+03 5.01420904e+03 1.32389121e+01
v 6.31225000e+03 5.02868010e+03 1.55949890e+01
v 6.31225000e+03 5.03034649e+03 1.40697605e+01
v 6.31225000e+03 5.02741215e+03 2.56051061e+01
v 6.31225000e+03 5.03062708e+03 1.37047549e+01
v 6.31225000e+03 5.02140929e+03 1.47395082e+01
v 6.31225000e+03 5.00142000e+03 1.40883430e+01
v 6.31225000e+03 5.02865644e+03 1.29285625e+01
v 6.31225000e+03 5.02848389e+03 1.29339797e+01
v 6.31225000e+03 5.00000000e+03 1.41474906e+01
v 6.34400000e+03 5.01515507e+03 1.21217542e+01
v 6.34400000e+03 5.01588786e+03 1.23548145e+01
v 6.34400000e+03 5.00958574e+03 1.12021320e+01
v 6.34400000e+03 5.01065631e+03 1.10181683e+01
v 6.34400000e+03 5.01135374e+03 1.70239358e+01
v 6.34400000e+03 5.01282283e+03 1.71183777e+01
v 6.34400000e+03 5.00171690e+03 1.72819285e+01
v 6.34400000e+03 5.00273592e+03 1.72519184e+01
v 6.34400000e+03 5.00134706e+03 1.72703579e+01
v 6.34400000e+03 5.00000000e+03 1.72867745e+01
v 6.34400000e+03 5.01123923e+03 1.70231952e+01
v 6.34400000e+03 5.01128150e+03 1.70246412e+01
v 6.34400000e+03 5.00931073e+03 1.70627011e+01
v 6.34400000e+03 5.01368477e+03 1.69797447e+01
v 6.34400000e+03 5.00733225e+03 1.70373798e+01
v 6.34400000e+03 5.00715717e+03 1.71359770e+01
v 6.34400000e+03 5.00466162e+03 1.73189207e+01
v 6.34400000e+03 5.00576005e+03 1.70636264e+01
v 6.34400000e+03 5.00799123e+03 1.70847550e+01
v 6.34400000e+03 5.01432224e+03 1.71134732e+01
v 6.34400000e+03 5.00386751e+03 1.72274845e+01
v 6.34400000e+03 5.01567307e+03 1.70706059e+01
v 6.34400000e+03 5.01538306e+03 1.70754236e+01
v 6.34400000e+03 5.01691465e+03 1.22862973e+01
v 6.34400000e+03 5.01997775e+03 1.20215532e+01
v 6.34400000e+03 5.01452098e+03 1.21017038e+01
v 6.34400000e+03 5.02055800e+03 1.20089253e+01
v 6.34400000e+03 5.02098350e+03 1.20011289e+01
v 6.34400000e+03 5.02143097e+03 1.20023919e+01
v 6.34400000e+03 5.02935327e+03 1.19557401e+01
v 6.34400000e+03 5.01396762e+03 1.19377455e+01
v 6.34400000e+03 5.02086228e+03 1.20017139e+01
v 6.34400000e+03 5.02076471e+03 1.20025936e+01
v 6.34400000e+03 5.00000000e+03 1.08495949e+01
v 6.34400000e+03 5.00014065e+03 1.03747329e+01
v 6.34400000e+03 5.01085610e+03 1.08926151e+01
v 6.34400000e+03 5.01122352e+03 1.08812102e+01
v 6.34400000e+03 5.00000000e+03 1.04120891e+01
v 6.34400000e+03 5.01134091e+03 1.27926406e+01
v 6.34400000e+03 5.01202704e+03 1.34087243e+01
v 6.34400000e+03 5.01207605e+03 1.34945643e+01
v 6.34400000e+03 5.01064636e+03 1.08511933e+01
v 6.34400000e+03 5.01217907e+03 1.11783232e+01
v 6.34400000e+03 5.01497938e+03 1.61858667e+01
v 6.34400000e+03 5.01245416e+03 1.38917853e+01
v 6.31637731e+03 5.03150000e+03 3.70459076e+01
v 6.31351639e+03 5.03150000e+03 3.69821234e+01
v 6.31814000e+03 5.03150000e+03 2.71426046e+01
v 6.31861738e+03 5.03150000e+03 2.77886486e+01
v 6.31789750e+03 5.03150000e+03 3.56080445e+01
v 6.31836374e+03 5.03150000e+03 3.60283774e+01
v 6.31862517e+03 5.03150000e+03 2.47728818e+01
v 6.31817962e+03 5.03150000e+03 2.40817846e+01
v 6.31841296e+03 5.03150000e+03 2.83594039e+01
v 6.31834700e+03 5.03150000e+03 3.00845454e+01
v 6.31842358e+03 5.03150000e+03 3.10240699e+01
v 6.31863812e+03 5.03150000e+03 3.05010957e+01
v 6.31850158e+03 5.03150000e+03 3.31653458e+01
v 6.31863823e+03 5.03150000e+03 3.33987497e+01
v 6.31856464e+03 5.03150000e+03 3.36129055e+01
v 6.31869036e+03 5.03150000e+03 3.66365523e+01
v 6.31880820e+03 5.03150000e+03 3.64360610e+01
v 6.31787181e+03 5.03150000e+03 3.55017265e+01
v 6.31873747e+03 5.03150000e+03 3.63514808e+01
v 6.31873385e+03 5.03150000e+03 3.61012862e+01
v 6.31329183e+03 5.03150000e+03 3.98309865e+01
v 6.31839292e+03 5.03150000e+03 3.70999864e+01
v 6.31296299e+03 5.03150000e+03 3.75069450e+01
v 6.31303599e+03 5.03150000e+03 3.82154639e+01
v 6.31854980e+03 5.03150000e+03 2.24033705e+01
v 6.31870638e+03 5.03150000e+03 2.22363704e+01
v 6.31905974e+03 5.03150000e+03 1.65653766e+01
v 6.31915274e+03 5.03150000e+03 1.64230638e+01
v 6.31925570e+03 5.03150000e+03 1.62350751e+01
v 6.31893568e+03 5.03150000e+03 1.60194821e+01
v 6.31810770e+03 5.03150000e+03 2.35199438e+01
v 6.31814073e+03 5.03150000e+03 2.60318636e+01
v 6.31808494e+03 5.03150000e+03 1.95131504e+01
v 6.31809377e+03 5.03150000e+03 2.00526319e+01
v 6.31838606e+03 5.03150000e+03 2.03829800e+01
v 6.31812011e+03 5.03150000e+03 1.84018130e+01
v 6.31923458e+03 5.03150000e+03 2.11733571e+01
v 6.31957941e+03 5.03150000e+03 1.22954172e+01
v 6.31791188e+03 5.03150000e+03 1.22978077e+01
v 6.32005130e+03 5.03150000e+03 1.23023591e+01
v 6.31979498e+03 5.03150000e+03 1.23277846e+01
v 6.31677834e+03 5.03150000e+03 1.23916927e+01
v 6.31630435e+03 5.03150000e+03 1.24805128e+01
v 6.31857437e+03 5.03150000e+03 1.58163822e+01
v 6.31611100e+03 5.03150000e+03 1.31925115e+01
v 6.31628238e+03 5.03150000e+03 1.36967464e+01
v 6.31770895e+03 5.03150000e+03 1.49744464e+01
v 6.31622747e+03 5.03150000e+03 1.29215377e+01
v 6.32655005e+03 5.03150000e+03 1.23144598e+01
v 6.32684918e+03 5.03150000e+03 1.18994373e+01
v 6.32387857e+03 5.03150000e+03 1.25791557e+01
v 6.32300167e+03 5.03150000e+03 1.21026394e+01
v 6.32596565e+03 5.03150000e+03 1.26017159e+01
v 6.32513936e+03 5.03150000e+03 1.31360135e+01
v 6.32445945e+03 5.03150000e+03 1.30376643e+01
v 6.32970895e+03 5.03150000e+03 1.18462344e+01
v 6.34120452e+03 5.03150000e+03 1.18772618e+01
v 6.34185375e+03 5.03150000e+03 1.18623638e+01
v 6.33173610e+03 5.03150000e+03 1.18626249e+01
v 6.33594343e+03 5.03150000e+03 1.18623849e+01
v 6.33138189e+03 5.03150000e+03 1.18581778e+01
v 6.32235017e+03 5.03150000e+03 1.21238518e+01
v 6.34319124e+03 5.03150000e+03 1.18861022e+01
v 6.34249723e+03 5.03150000e+03 1.18708158e+01
v 6.31286351e+03 5.03150000e+03 3.98318467e+01
v 6.31225000e+03 5.03150000e+03 3.98330787e+01
v 6.34391594e+03 5.03150000e+03 1.18879456e+01
v 6.34400000e+03 5.03150000e+03 1.18901052e+01
vt 0.035694391 0.97376323
vt 0.014465215 0.98798406
vt 0.02321385 0.95665258
vt 0.050888315 0.96663803
vt 0.0037113712 0.97821635
vt 0.037205927 0.91692376
vt 0.003714591 0.98703408
vt 0.0037046755 0.95961934
vt 0.030694807 0.91276246
vt 0.067488395 0.9200449
vt 0.0069126319 0.94784492
vt 0.0036982573 0.93606228
vt 0.096669234 0.94651407
vt 0.0036986538 0.95110983
vt 0.0036970689 0.93271482
vt 0.0939648 0.98269469
vt 0.093344361 0.9200936
vt 0.0036977159 0.94841355
vt 0.0036972933 0.93914205
vt 0.0090291295 0.89784837
vt 0.13189948 0.96193641
vt 0.065297149 0.98014694
vt 0.10972875 0.92477244
vt 0.0036945853 0.92471302
vt 0.028612813 0.90263778
vt 0.12312723 0.99150634
vt 0.1354451 0.93520302
vt 0.09218768 0.99551874
vt 0.10732144 0.8929981
vt 0.0036863559 0.90076941
vt 0.11824311 0.99551028
vt 0.14180505 0.94482726
vt 0.074474953 0.99552345
vt 0.12818858 0.90033877
vt 0.15851845 0.91312951
vt 0.0036828937 0.89302272
vt 0.12161098 0.99550885
vt 0.13845147 0.97141206
vt 0.067067787 0.99552488
vt 0.12127878 0.88497674
vt 0.12561625 0.99550784
vt 0.16535459 0.94004726
vt 0.12941858 0.97522831
vt 0.097413182 0.87022132
vt 0.13991398 0.86216164
vt 0.16285342 0.98993713
vt 0.163487 0.97003436
vt 0.20738684 0.95718026
vt 0.10062393 0.86426932
vt 0.18737176 0.87939596
vt 0.16153836 0.99549812
vt 0.18875384 0.96272624
vt 0.076916441 0.85612446
vt 0.1044838 0.83751506
vt 0.1378265 0.81267017
vt 0.19041163 0.93347657
vt 0.17171845 0.99549508
vt 0.17510635 0.98625785
vt 0.060959425 0.83814269
vt 0.18064815 0.82932287
vt 0.21688354 0.92779428
vt 0.18541427 0.99548542
vt 0.21844174 0.97426999
vt 0.061476797 0.80183136
vt 0.11443293 0.79647535
vt 0.17574321 0.81586313
vt 0.21806984 0.85114849
vt 0.24895222 0.87368137
vt 0.22112143 0.95541656
vt 0.19448525 0.9954775
vt 0.23532853 0.97130322
vt 0.20510764 0.99547297
vt 0.032746643 0.79025251
vt 0.065505438 0.77204359
vt 0.1280528 0.78498709
vt 0.18900135 0.82185113
vt 0.21235631 0.83628863
vt 0.24582835 0.9675563
vt 0.22715954 0.99547476
vt 0.21802486 0.99547458
vt 0.018685931 0.81769186
vt 0.10683493 0.77694911
vt 0.19930865 0.79429531
vt 0.29841 0.89960003
vt 0.037181702 0.74529409
vt 0.0036442152 0.8075676
vt 0.095979244 0.76208037
vt 0.22463131 0.80602068
vt 0.21106656 0.81868345
vt 0.32436123 0.92534024
vt 0.23183841 0.9954778
vt 0.0036309627 0.75202799
vt 0.07289435 0.74895358
vt 0.0036452196 0.80186379
vt 0.21410184 0.78371549
vt 0.22841421 0.84552884
vt 0.32284838 0.85189122
vt 0.27652308 0.99546385
vt 0.0036309476 0.75199389
vt 0.060214389 0.73672175
vt 0.24483867 0.80973011
vt 0.23538527 0.78226423
vt 0.19699351 0.78039181
vt 0.24290635 0.83211243
vt 0.37537152 0.88491547
vt 0.30266273 0.99545527
vt 0.0036218483 0.72536474
vt 0.042599931 0.72480828
vt 0.24208295 0.80124009
vt 0.19615595 0.75977153
vt 0.24418965 0.84850276
vt 0.36133263 0.7993685
vt 0.30819729 0.99545342
vt 0.0036177265 0.71975791
vt 0.045881439 0.71780896
vt 0.25973436 0.81807292
vt 0.24209586 0.71539319
vt 0.26769477 0.81483567
vt 0.17767441 0.77483332
vt 0.29692557 0.78963464
vt 0.37467957 0.85035706
vt 0.37393704 0.99543208
vt 0.016479064 0.70633435
vt 0.080761284 0.73712444
vt 0.18936567 0.71380305
vt 0.27831993 0.72992933
vt 0.26047191 0.78036189
vt 0.16248183 0.7624591
vt 0.17141217 0.78545791
vt 0.28785071 0.82666624
vt 0.32501346 0.76488698
vt 0.39636049 0.84661472
vt 0.38572884 0.86962569
vt 0.45614177 0.99540526
vt 0.003611471 0.71245521
vt 0.092659183 0.70186442
vt 0.10134331 0.76185882
vt 0.0078098718 0.69040823
vt 0.23065159 0.69286203
vt 0.17657748 0.74358791
vt 0.28308883 0.64993942
vt 0.18055637 0.79132855
vt 0.39131272 0.74724531
vt 0.43656421 0.80988163
vt 0.47714135 0.9657222
vt 0.0036012563 0.69894922
vt 0.11116847 0.73304641
vt 0.059467372 0.68458807
vt 0.20183495 0.67974269
vt 0.25212219 0.67729855
vt 0.14445454 0.69943845
vt 0.30763721 0.67900747
vt 0.15958232 0.74940008
vt 0.36249503 0.71340168
vt 0.41895944 0.77309018
vt 0.44401014 0.87204468
vt 0.46628618 0.99540216
vt 0.091653399 0.67904603
vt 0.12258743 0.74416125
vt 0.0035998994 0.69201434
vt 0.009242584 0.67871523
vt 0.20514385 0.66144562
vt 0.23526113 0.66511381
vt 0.1459876 0.73781925
vt 0.25329235 0.64934665
vt 0.31803462 0.65109754
vt 0.15170874 0.7558344
vt 0.41378194 0.71254635
vt 0.49729514 0.82837057
vt 0.4763405 0.99539876
vt 0.1228882 0.66075575
vt 0.073921226 0.66520703
vt 0.10951316 0.7708627
vt 0.048200116 0.65217674
vt 0.24060421 0.62838429
vt 0.31483808 0.63923693
vt 0.35919473 0.64332008
vt 0.33329979 0.67865002
vt 0.37839901 0.6936233
vt 0.46004477 0.70677042
vt 0.46909857 0.74284214
vt 0.49976885 0.83806056
vt 0.48718423 0.99539512
vt 0.088626742 0.66081333
vt 0.011692703 0.65514356
vt 0.26164219 0.59089983
vt 0.31617123 0.62421274
vt 0.33069229 0.63974321
vt 0.4147723 0.6965645
vt 0.44785246 0.69068837
vt 0.49973664 0.75144523
vt 0.4998095 0.96184742
vt 0.49976659 0.83106875
vt 0.49850777 0.99539143
vt 0.14082174 0.62969446
vt 0.089017801 0.63888931
vt 0.060507558 0.64112771
vt 0.10326478 0.64342284
vt 0.0035933782 0.65357506
vt 0.032508064 0.64289719
vt 0.18676971 0.61865664
vt 0.19714876 0.58465087
vt 0.2829448 0.59770596
vt 0.39592862 0.68148112
vt 0.38999644 0.68966746
vt 0.46686071 0.68261909
vt 0.49973568 0.73999786
vt 0.49974263 0.76748955
vt 0.49976599 0.82917464
vt 0.12028003 0.64918923
vt 0.16856372 0.61899036
vt 0.0035938525 0.6713236
vt 0.0035903289 0.6457355
vt 0.20368473 0.60193121
vt 0.21219349 0.5467515
vt 0.4997327 0.73009038
vt 0.49976125 0.81535363
vt 0.49982113 0.99539095
vt 0.49976549 0.82765013
vt 0.10507531 0.62898779
vt 0.16148928 0.60332888
vt 0.057395291 0.6249612
vt 0.0035926651 0.67646259
vt 0.0035865484 0.63719404
vt 0.18168446 0.57128954
vt 0.49973184 0.72144592
vt 0.49976435 0.82442027
vt 0.10775749 0.582551
vt 0.03289248 0.60400862
vt 0.19122514 0.54299426
vt 0.49973178 0.69350803
vt 0.066833496 0.57538605
vt 0.13510863 0.58531857
vt 0.015387288 0.61974859
vt 0.16701978 0.54121739
vt 0.20648494 0.53704202
vt 0.49973047 0.67858076
vt 0.0963879 0.54662395
vt 0.11617802 0.56218863
vt 0.0089216307 0.63741028
vt 0.0042323377 0.60160637
vt 0.15835416 0.56552231
vt 0.49193788 0.66970146
vt 0.0048259795 0.55395925
vt 0.078655824 0.53057086
vt 0.13507544 0.56868178
vt 0.0035838827 0.62871903
vt 0.0053908331 0.58477414
vt 0.0035703045 0.60171574
vt 0.49972847 0.67283958
vt 0.045038879 0.54760814
vt 0.0035829579 0.63667196
vt 0.0035800692 0.61383331
vt 0.4997279 0.66956294
vt 0.0035675077 0.5865922
vt 0.0035477031 0.52787417
vt 0.062300816 0.52250326
vt 0.0035565193 0.55727434
vt 0.0035520422 0.54299307
vt 0.031610765 0.5033282
vt 0.044322755 0.50331998
vt 0.0035556834 0.5549435
vt 0.0035549335 0.55350667
vt 0.0035470128 0.52552581
vt 0.0035552313 0.55410141
vt 0.0035391224 0.50333756
vt 0.52403969 0.79658055
vt 0.51646352 0.75130963
vt 0.57998782 0.75128901
vt 0.56730151 0.82241404
vt 0.50353897 0.78037363
vt 0.59570241 0.78268111
vt 0.62271994 0.75127459
vt 0.59520954 0.79026574
vt 0.63585991 0.76386011
vt 0.63536906 0.75127411
vt 0.61955351 0.78782207
vt 0.65101236 0.7512697
vt 0.64784598 0.77686793
vt 0.66834807 0.77560788
vt 0.66268402 0.76151466
vt 0.69329453 0.79378355
vt 0.66716129 0.75125611
vt 0.69775784 0.84456706
vt 0.69792557 0.78817558
vt 0.72062212 0.81170934
vt 0.69282293 0.76304609
vt 0.7072385 0.84751159
vt 0.73041815 0.77512264
vt 0.73932183 0.80703437
vt 0.70309848 0.75125575
vt 0.80927479 0.8273617
vt 0.70443612 0.75125527
vt 0.69142783 0.75125527
vt 0.77179313 0.90313518
vt 0.79144686 0.75122869
vt 0.75077999 0.751239
vt 0.82835877 0.75121617
vt 0.84170973 0.7868312
vt 0.83864069 0.76307821
vt 0.84224766 0.82425129
vt 0.85290366 0.77032322
vt 0.8377102 0.75120312
vt 0.83020681 0.83879745
vt 0.87652475 0.78814936
vt 0.82533836 0.86701196
vt 0.81729925 0.85864484
vt 0.88619637 0.79616821
vt 0.80618179 0.85852778
vt 0.87428594 0.84215361
vt 0.90586209 0.7939384
vt 0.90586811 0.81161982
vt 0.90587109 0.82402694
vt 0.8762725 0.87037396
vt 0.90587968 0.84119278
vt 0.90588588 0.86302203
vt 0.83842593 0.92124796
vt 0.9058879 0.86575878
vt 0.80445856 0.92331982
vt 0.85597616 0.9264037
vt 0.8862164 0.87677252
vt 0.83798981 0.94695032
vt 0.88349354 0.91485977
vt 0.86675256 0.94584817
vt 0.9058907 0.87605488
vt 0.90590787 0.92680573
vt 0.88213843 0.98050547
vt 0.90589762 0.89667243
vt 0.90590805 0.92746627
vt 0.90590841 0.92859507
vt 0.90591472 0.95154852
vt 0.90592074 0.96501803
vt 0.90592241 0.97497702
vt 0.90592819 0.99155289
vt 0.90592974 0.99608439
vt 0.68427479 0.5773617
vt 0.68118179 0.60852778
vt 0.65510517 0.61021042
vt 0.70033836 0.61701196
vt 0.64679313 0.65313518
vt 0.62428594 0.71715361
vt 0.57533836 0.74201196
vt 0.59170973 0.6618312
vt 0.79027301 0.73253691
vt 0.7619018 0.74253094
vt 0.76729518 0.72643137
vt 0.79919481 0.71546364
vt 0.80904067 0.74200916
vt 0.75360125 0.72951984
vt 0.82104224 0.73116958
vt 0.76752257 0.68414724
vt 0.75614929 0.73817259
vt 0.75883794 0.71619976
vt 0.82423735 0.68362093
vt 0.87300956 0.73203844
vt 0.75770026 0.74597174
vt 0.83989775 0.70966733
vt 0.78656179 0.66730654
vt 0.75888157 0.71050847
vt 0.86552173 0.71854043
vt 0.87456602 0.73514152
vt 0.87402254 0.6846236
vt 0.81226808 0.66718394
vt 0.76838505 0.66566688
vt 0.75471383 0.68320531
vt 0.87084317 0.72542644
vt 0.87115937 0.74215472
vt 0.875916 0.73209971
vt 0.87317806 0.68791002
vt 0.87246466 0.6808871
vt 0.86522985 0.71686447
vt 0.82506311 0.63847363
vt 0.76716799 0.63815278
vt 0.7596029 0.66776586
vt 0.75947881 0.67049122
vt 0.87507164 0.72682714
vt 0.87510896 0.73073053
vt 0.84907484 0.66498315
vt 0.75943899 0.66366529
vt 0.87160784 0.64744675
vt 0.79237837 0.62381005
vt 0.7560662 0.6492061
vt 0.87406802 0.63944608
vt 0.768363 0.59269834
vt 0.8142395 0.62153947
vt 0.75432771 0.6383158
vt 0.8707478 0.63274395
vt 0.75788647 0.61458516
vt 0.81727135 0.59363717
vt 0.75782764 0.62710893
vt 0.85433263 0.62246603
vt 0.75422335 0.59223348
vt 0.78793991 0.57938635
vt 0.87152946 0.60589421
vt 0.75776809 0.58564687
vt 0.76562834 0.54874396
vt 0.81176102 0.57837129
vt 0.85101455 0.59477156
vt 0.87387484 0.59714139
vt 0.8243475 0.55208707
vt 0.8621676 0.5807296
vt 0.75758445 0.56158805
vt 0.80687785 0.53504109
vt 0.86842966 0.58672833
vt 0.75578946 0.55710363
vt 0.76189131 0.50265169
vt 0.82234484 0.5060733
vt 0.87401241 0.55012798
vt 0.86845595 0.56941128
vt 0.75470525 0.54978645
vt 0.75671214 0.51374751
vt 0.86457908 0.53445899
vt 0.7568717 0.54188859
vt 0.75518596 0.5007174
vt 0.81930798 0.4833914
vt 0.87318939 0.51313108
vt 0.86893189 0.5390352
vt 0.75485778 0.49699992
vt 0.76910442 0.48616087
vt 0.85056031 0.49690026
vt 0.868119 0.53022426
vt 0.7874096 0.47665352
vt 0.83899873 0.47585148
vt 0.87498152 0.51063907
vt 0.75409734 0.48460263
vt 0.77515304 0.46682137
vt 0.81809497 0.46730626
vt 0.86801577 0.47615528
vt 0.82259995 0.45624489
vt 0.88103497 0.49444234
vt 0.76290083 0.46195436
vt 0.78396958 0.45695031
vt 0.76408523 0.45998049
vt 0.87135077 0.48151428
vt 0.86792362 0.46773791
vt 0.84686893 0.45067447
vt 0.76372117 0.45860481
vt 0.81662947 0.45504367
vt 0.81513339 0.43541187
vt 0.75820249 0.45054024
vt 0.81357211 0.44827312
vt 0.86834341 0.45043612
vt 0.87127942 0.41753626
vt 0.75558925 0.43858904
vt 0.87911123 0.42247444
vt 0.82046252 0.41733605
vt 0.75647438 0.43566585
vt 0.88017637 0.42032194
vt 0.80489463 0.41256481
vt 0.83428341 0.40002638
vt 0.75519478 0.4368118
vt 0.76883006 0.40858161
vt 0.88135612 0.41746444
vt 0.84741765 0.37576824
vt 0.81204414 0.40668017
vt 0.75495881 0.43573189
vt 0.75639296 0.43291217
vt 0.8777023 0.41387486
vt 0.77125704 0.40457922
vt 0.86369997 0.39670658
vt 0.84546733 0.36778444
vt 0.82202977 0.38530064
vt 0.75527239 0.43454123
vt 0.87357646 0.41045058
vt 0.789038 0.37956315
vt 0.83100039 0.37100101
vt 0.83590949 0.35883904
vt 0.81615853 0.35782671
vt 0.84680271 0.36364275
vt 0.84768838 0.3568216
vt 0.46728972 0.53562224
vt 0.45912528 0.53531718
vt 0.48044583 0.5123347
vt 0.48451567 0.55718273
vt 0.45989546 0.55732691
vt 0.45929667 0.49253261
vt 0.51955628 0.5271799
vt 0.47026718 0.56642586
vt 0.46737334 0.48364174
vt 0.50991583 0.49642479
vt 0.52031326 0.55455053
vt 0.48782945 0.56778932
vt 0.4563463 0.45312285
vt 0.51941258 0.55969894
vt 0.48300701 0.58159506
vt 0.50271457 0.56922156
vt 0.46428448 0.42830902
vt 0.5193823 0.47898245
vt 0.50048119 0.57809889
vt 0.47994977 0.5948121
vt 0.51788229 0.45162296
vt 0.50268817 0.59431756
vt 0.46967679 0.59360707
vt 0.5082674 0.43896395
vt 0.47871789 0.61875772
vt 0.4727833 0.61695957
vt 0.51907319 0.40954781
vt 0.51542544 0.62199163
vt 0.46054018 0.39192337
vt 0.51877934 0.33169162
vt 0.46088716 0.32674521
vt 0.48355758 0.31942528
vt 0.51533371 0.27522236
vt 0.46725452 0.3098253
vt 0.45506155 0.32069498
vt 0.47267514 0.26692975
vt 0.44829127 0.28959942
vt 0.4455477 0.31029332
vt 0.44980243 0.25903243
vt 0.42961717 0.31934112
vt 0.41754225 0.30468297
vt 0.42527416 0.27066094
vt 0.37947825 0.31954604
vt 0.40540853 0.27687657
vt 0.39404246 0.30132961
vt 0.72101551 0.95049107
vt 0.72747082 0.98354161
vt 0.70213902 0.96258837
vt 0.70717591 0.9337703
vt 0.76663125 0.97549963
vt 0.6777783 0.9715637
vt 0.6602807 0.94448435
vt 0.77069747 0.93669397
vt 0.77265686 0.9951691
vt 0.77999061 0.94406521
vt 0.6777522 0.98775274
vt 0.685 0.92840302
vt 0.7964322 0.98944241
vt 0.78860676 0.96258175
vt 0.65756989 0.96535397
vt 0.6679188 0.97845215
vt 0.64365941 0.92748022
vt 0.79365569 0.98222911
vt 0.61795062 0.96724725
vt 0.5965941 0.92152637
vt 0.58584696 0.97061765
vt 0.5636459 0.92522091
vt 0.56018233 0.95029533
vt 0.54712653 0.90958422
vt 0.5298022 0.95171255
vt 0.52365953 0.90165997
vt 0.54770046 0.96932667
vt 0.51788694 0.91881585
vt 0.50730604 0.96347386
vt 0.50474542 0.9474687
vt 0.91385758 0.97727376
vt 0.95059627 0.98090607
vt 0.92787415 0.98553085
vt 0.92149007 0.99586678
vt 0.95185465 0.95831388
vt 0.94247323 0.99616224
vt 0.91126615 0.94998598
vt 0.94030064 0.92921156
vt 0.95079416 0.91263729
vt 0.91238081 0.9386642
vt 0.91178977 0.9163748
vt 0.91317487 0.88594395
vt 0.94702053 0.87009567
vt 0.91302407 0.88395554
vt 0.90993744 0.86842012
vt 0.91207087 0.84459078
vt 0.95431817 0.84512973
vt 0.91103518 0.8560102
vt 0.94312084 0.8235895
vt 0.91101485 0.83678639
vt 0.95304316 0.80695468
vt 0.91228527 0.79852521
vt 0.95336449 0.73813045
vt 0.91574156 0.73030585
vt 0.94501084 0.72961003
vt 0.94110787 0.66034591
vt 0.94954872 0.63382941
vt 0.96048367 0.65736139
vt 0.953076 0.67515206
vt 0.92308128 0.66096044
vt 0.97466326 0.63345253
vt 0.95102531 0.68280041
vt 0.93207055 0.63465953
vt 0.91449016 0.67681611
vt 0.94244266 0.61399269
vt 0.90896583 0.63053811
vt 0.90470445 0.65497237
vt 0.94459718 0.5948211
vt 0.92014837 0.60533494
vt 0.93009549 0.59431207
vt 0.8908031 0.61983645
vt 0.94434595 0.57898939
vt 0.88867891 0.61019456
vt 0.91756952 0.59047937
vt 0.91403908 0.5737679
vt 0.90363657 0.58189487
vt 0.91651952 0.56048357
vt 0.89117849 0.59684455
vt 0.90501666 0.56300151
vt 0.88575655 0.57902789
vt 0.87948209 0.59444201
vt 0.90614134 0.55788714
vt 0.90042907 0.5683955
vt 0.8841669 0.581999
vt 0.88052493 0.59120435
vt 0.90794837 0.54445493
vt 0.58249313 0.67034155
vt 0.530954 0.67963821
vt 0.57758713 0.64454377
vt 0.55784065 0.61282146
vt 0.58090156 0.61470854
vt 0.52990508 0.61355793
vt 0.56408942 0.59733564
vt 0.50675452 0.66633332
vt 0.55524987 0.59945929
vt 0.51733196 0.61698556
vt 0.50385249 0.68341768
vt 0.56165552 0.56643999
vt 0.56666237 0.56513613
vt 0.518915 0.60885191
vt 0.54490352 0.5529089
vt 0.51911962 0.6073215
vt 0.52934569 0.55976969
vt 0.52199376 0.59401357
vt 0.037503522 0.45989537
vt 0.023879694 0.42435104
vt 0.044436451 0.41477996
vt 0.054727506 0.46889025
vt 0.0048801992 0.44384503
vt 0.017476423 0.40075761
vt 0.064232081 0.44473004
vt 0.042256083 0.49686044
vt 0.015380771 0.46924943
vt 0.029050702 0.39758807
vt 0.075676851 0.40782756
vt 0.061377611 0.47188234
vt 0.028778797 0.47871399
vt 0.048096586 0.38058829
vt 0.056139179 0.39673579
vt 0.022073934 0.36800689
vt 0.071289316 0.39399511
vt 0.069099531 0.37891161
vt 0.083404623 0.39421284
vt 0.087177992 0.37676734
vt 0.13063152 0.39349943
vt 0.113016 0.37970662
vt 0.35672033 0.60000396
vt 0.35733894 0.57637835
vt 0.37753358 0.5971815
vt 0.36102042 0.62018621
vt 0.37710121 0.56733871
vt 0.38268223 0.60328341
vt 0.35659227 0.55853254
vt 0.3986741 0.58112502
vt 0.38868436 0.54762369
vt 0.34719172 0.55162674
vt 0.36431134 0.53798044
vt 0.38695738 0.53473151
vt 0.34821332 0.53912961
vt 0.36617336 0.5240202
vt 0.37935781 0.52378076
vt 0.34700203 0.52692538
vt 0.37194777 0.50044334
vt 0.39158285 0.51751161
vt 0.35548115 0.51584584
vt 0.40250158 0.53147817
vt 0.40947795 0.50488412
vt 0.34003165 0.51295739
vt 0.31616378 0.49611342
vt 0.42096397 0.51959586
vt 0.73979938 0.65711784
vt 0.74774295 0.67855358
vt 0.72931886 0.64825749
vt 0.74316734 0.64161623
vt 0.72222537 0.66687918
vt 0.73554021 0.63482511
vt 0.71125352 0.6661436
vt 0.7024954 0.64144015
vt 0.71119571 0.63927144
vt 0.71165836 0.69420278
vt 0.75173491 0.69062436
vt 0.69313431 0.68418872
vt 0.69109488 0.6510483
vt 0.74377608 0.70540106
vt 0.70010996 0.70764184
vt 0.74571913 0.71778715
vt 0.72085238 0.71607065
vt 0.73141569 0.72729313
vt 0.71797568 0.73065203
vt 0.70277834 0.73070681
vt 0.72010356 0.746539
vt 0.6091007 0.54824531
vt 0.58332568 0.5655272
vt 0.58914191 0.51562333
vt 0.60574657 0.52007031
vt 0.60361904 0.574947
vt 0.58079565 0.52676404
vt 0.62471545 0.55795538
vt 0.57994288 0.59297943
vt 0.56596112 0.51830053
vt 0.61023843 0.59063828
vt 0.5940755 0.61115384
vt 0.62465543 0.5832026
vt 0.59637314 0.62060398
vt 0.61718529 0.6044004
vt 0.6718967 0.55831409
vt 0.66828585 0.55150032
vt 0.69118291 0.5440613
vt 0.69023103 0.50960279
vt 0.7082178 0.50803328
vt 0.65121579 0.50108564
vt 0.70861322 0.49457407
vt 0.63697672 0.53175414
vt 0.66399544 0.46686751
vt 0.72440559 0.47085488
vt 0.68193811 0.47522396
vt 0.62982273 0.46757585
vt 0.68483591 0.47210687
vt 0.72643262 0.47370899
vt 0.64877248 0.45935911
vt 0.73060125 0.49144787
vt 0.72535473 0.47075421
vt 0.67305535 0.45515877
vt 0.68908119 0.45956755
vt 0.70667392 0.45529038
vt 0.71387511 0.45748997
vt 0.50342035 0.85752618
vt 0.50447959 0.86354947
vt 0.50341672 0.86271811
vt 0.51669645 0.86508179
vt 0.5034197 0.85270679
vt 0.52321398 0.8702718
vt 0.5034048 0.81186521
vt 0.5145607 0.87026888
vt 0.56791544 0.8702566
vt 0.50676966 0.8093977
vt 0.54617107 0.83625948
vt 0.50340408 0.80962074
vt 0.59940898 0.87024581
vt 0.29128307 0.541682
vt 0.28261545 0.55712855
vt 0.27225026 0.54032856
vt 0.25392854 0.52013814
vt 0.29283813 0.55813259
vt 0.27944165 0.51542687
vt 0.31922421 0.54046571
vt 0.27997768 0.49038959
vt 0.29299828 0.51904678
vt 0.31737623 0.53013754
vt 0.28967643 0.50211346
vt 0.30287179 0.49488276
vt 0.32760593 0.51285082
vt 0.31530815 0.49398988
vt 0.30610126 0.46633601
vt 0.2817727 0.46234989
vt 0.68824029 0.70577621
vt 0.67635179 0.72680235
vt 0.65656388 0.70993721
vt 0.67050838 0.68812299
vt 0.66180778 0.72419226
vt 0.64599484 0.69593138
vt 0.68898726 0.68793046
vt 0.63698894 0.71636248
vt 0.66645026 0.7458204
vt 0.629098 0.69600463
vt 0.65443701 0.66555482
vt 0.68662608 0.67858016
vt 0.65163815 0.73948526
vt 0.67517543 0.66391551
vt 0.80161476 0.99591821
vt 0.78470546 0.95315754
vt 0.78524339 0.91573745
vt 0.56038988 0.69846547
vt 0.58280522 0.69993186
vt 0.56781852 0.7218442
vt 0.54727149 0.70675522
vt 0.55620921 0.72872448
vt 0.54221833 0.68894768
vt 0.52278304 0.73520708
vt 0.5617063 0.74599171
vt 0.51137066 0.71109426
vt 0.50471872 0.69395614
vt 0.5210616 0.68611169
vt 0.50390851 0.97877085
vt 0.54147142 0.97464848
vt 0.56962901 0.99545294
vt 0.57912964 0.97613603
vt 0.1611568 0.49261105
vt 0.14326778 0.47047704
vt 0.1675128 0.45465893
vt 0.18982905 0.46420354
vt 0.15283006 0.4455868
vt 0.17310114 0.43770647
vt 0.18339889 0.4959864
vt 0.18214417 0.43497735
vt 0.2042373 0.48176152
vt 0.15644711 0.42336911
vt 0.20395321 0.44898713
vt 0.1284408 0.42990911
vt 0.17925858 0.42454493
vt 0.19726905 0.42873335
vt 0.62145835 0.83050513
vt 0.61648893 0.85805726
vt 0.59729296 0.82906276
vt 0.63726181 0.85723704
vt 0.60270512 0.85774899
vt 0.59742296 0.88207245
vt 0.62245756 0.88871515
vt 0.59886086 0.8944093
vt 0.60954487 0.90214652
vt 0.69072521 0.8586117
vt 0.71989483 0.89146048
vt 0.72820687 0.93438518
vt 0.72851366 0.57985044
vt 0.71217084 0.60357952
vt 0.69824827 0.59856045
vt 0.70910871 0.55848706
vt 0.70943856 0.62085426
vt 0.7309913 0.55546105
vt 0.698874 0.55175
vt 0.74519855 0.60206962
vt 0.69049668 0.56837434
vt 0.39828938 0.64566696
vt 0.37951866 0.64546549
vt 0.41234234 0.63489026
vt 0.41494784 0.65141416
vt 0.38102305 0.62054163
vt 0.40621355 0.66003215
vt 0.43197203 0.65080607
vt 0.40951559 0.61870575
vt 0.41015425 0.68439591
vt 0.44518134 0.61816251
vt 0.40107715 0.6766243
vt 0.03767518 0.90143842
vt 0.031595968 0.86861938
vt 0.052181341 0.86536068
vt 0.0098015582 0.8571173
vt 0.049949501 0.83626825
vt 0.025405297 0.83828604
vt 0.0033199294 0.84521532
vt 0.62917292 0.8879019
vt 0.64156991 0.84685767
vt 0.64296764 0.86729264
vt 0.64447051 0.89783365
vt 0.69464666 0.85181361
vt 0.64769953 0.88426912
vt 0.6331991 0.9030357
vt 0.68539196 0.87947786
vt 0.658665 0.88626301
vt 0.67338699 0.89034122
vt 0.4122318 0.5578196
vt 0.42229331 0.54491627
vt 0.42990473 0.5578773
vt 0.42322859 0.57228851
vt 0.41339171 0.5451268
vt 0.4433901 0.54985762
vt 0.41266611 0.57306182
vt 0.45032939 0.5653165
vt 0.4309983 0.54017508
vt 0.41106278 0.57864308
vt 0.43362877 0.58301908
vt 0.44897383 0.54015785
vt 0.4096376 0.58360744
vt 0.44966134 0.58814639
vt 0.44098797 0.52453834
vt 0.44164872 0.59038526
vt 0.068188205 0.9946202
vt 0.03429674 0.99537098
vt 0.0047195819 0.99521315
vt 0.68754864 0.88929605
vt 0.65948153 0.90281355
vt 0.66920888 0.89142191
vt 0.68501681 0.885346
vt 0.67453915 0.9090628
vt 0.70795494 0.91090357
vt 0.67319626 0.92069197
vt 0.69564283 0.9189654
vt 0.67735201 0.92229486
vt 0.7217952 0.93264347
vt 0.70339668 0.93298912
vt 0.94252086 0.52461338
vt 0.95796716 0.51685542
vt 0.97055471 0.52659857
vt 0.96104783 0.49838215
vt 0.94464415 0.50382626
vt 0.92786509 0.49970067
vt 0.94106293 0.48840588
vt 0.91094559 0.49580896
vt 0.95855087 0.47009993
vt 0.93035209 0.48325378
vt 0.9107691 0.49108773
vt 0.94307411 0.47673047
vt 0.91547793 0.48181462
vt 0.91042131 0.48297685
vt 0.92127264 0.47324955
vt 0.91038972 0.47926432
vt 0.91057074 0.47468364
vt 0.46844462 0.6756708
vt 0.45901605 0.6674087
vt 0.47863829 0.65686023
vt 0.49003959 0.66318154
vt 0.4545213 0.68262899
vt 0.47967964 0.64597213
vt 0.44398847 0.67570537
vt 0.4463883 0.6581291
vt 0.48941207 0.65243518
vt 0.44092679 0.68453133
vt 0.48169908 0.63608271
vt 0.47982958 0.63242519
vt 0.45993575 0.62716508
vt 0.48529121 0.63402444
vt 0.61144567 0.97375846
vt 0.61131567 0.9965319
vt 0.6030044 0.97376049
vt 0.63681966 0.97374809
vt 0.58145195 0.97376484
vt 0.8067379 0.94194174
vt 0.81683105 0.94505888
vt 0.81413245 0.95795071
vt 0.82191551 0.99531657
vt 0.80028224 0.94128579
vt 0.96760565 0.96124792
vt 0.96516442 0.95795071
vt 0.97901464 0.94128579
vt 0.95738137 0.99531657
vt 0.96246582 0.94505888
vt 0.83440357 0.97632241
vt 0.83267379 0.96738201
vt 0.84664494 0.96760052
vt 0.85496116 0.98935562
vt 0.83761805 0.95518285
vt 0.86882633 0.98560399
vt 0.82021725 0.97095823
vt 0.86857146 0.99622017
vt 0.81662112 0.96899801
vt 0.81783915 0.9567005
vt 0.29284248 0.83202076
vt 0.2865501 0.86051416
vt 0.2758083 0.8433609
vt 0.27425891 0.82053965
vt 0.27433199 0.87094843
vt 0.25349659 0.85495222
vt 0.7408067 0.9009937
vt 0.75618118 0.9274298
vt 0.74360138 0.92367113
vt 0.72304952 0.90836155
vt 0.77010989 0.91436863
vt 0.73121202 0.93262196
vt 0.63914883 0.66320217
vt 0.61288708 0.66234261
vt 0.60869819 0.63871914
vt 0.6036098 0.68293703
vt 0.59686524 0.65213275
vt 0.63864356 0.67156017
vt 0.97758019 0.99629682
vt 0.98746526 0.96859479
vt 0.98807776 0.97635388
vt 0.98562884 0.9874537
vt 0.97280973 0.97073847
vt 0.97522426 0.96693718
vt 0.98634154 0.96127278
vt 0.98949647 0.95123607
vt 0.66379756 0.98778486
vt 0.64561248 0.99577069
vt 0.62026614 0.99140608
vt 0.081723802 0.88402092
vt 0.067003429 0.89308506
vt 0.080577329 0.86188346
vt 0.097366124 0.8732571
vt 0.079655498 0.90147567
vt 0.066012502 0.8731879
vt 0.094336264 0.87814504
vt 0.083738692 0.89470571
vt 0.087657481 0.89008003
vt 0.58546883 0.99682558
vt 0.56711286 0.99442768
vt 0.6039924 0.99339515
vt 0.96120512 0.89830965
vt 0.95947754 0.93314368
vt 0.95657939 0.93151259
vt 0.95931059 0.89966732
vt 0.97688198 0.93343878
vt 0.95629543 0.9326694
vt 0.95986074 0.89821744
vt 0.97398424 0.9080686
vt 0.9731614 0.89696997
vt 0.9897787 0.90657151
vt 0.98824376 0.93359387
vt 0.97353876 0.91846251
vt 0.97508025 0.90598738
vt 0.98476899 0.89831567
vt 0.51219851 0.88610953
vt 0.50452167 0.88520283
vt 0.50437051 0.88495076
vt 0.50986409 0.87252891
vt 0.50943565 0.89096427
vt 0.53716111 0.8799479
vt 0.51906455 0.89857197
vt 0.53389585 0.89314705
vt 0.52441531 0.90144151
vt 0.58435941 0.91839242
vt 0.58019608 0.90511441
vt 0.58144522 0.88689721
vt 0.56658643 0.90046573
vt 0.057172358 0.97870386
vt 0.044024888 0.98775017
vt 0.026596479 0.97926635
vt 0.68871731 0.99449497
vt 0.65955859 0.98509806
vt 0.68869203 0.98999202
vt 0.68335253 0.99630666
vt 0.77380186 0.91276914
vt 0.77213615 0.93291068
vt 0.75296503 0.93332398
vt 0.78415161 0.92862129
vt 0.95640111 0.97118586
vt 0.95968485 0.99705499
vt 0.9526667 0.9833675
vt 0.95497823 0.9721607
vt 0.9490245 0.9908486
vt 0.95435536 0.96925294
vt 0.91349131 0.99618441
vt 0.90975177 0.98777872
vt 0.9134239 0.98232889
vt 0.91340643 0.97088629
vt 0.30744591 0.87098938
vt 0.30774298 0.87999701
vt 0.29567859 0.86465663
vt 0.29166889 0.88464177
vt 0.30514216 0.88578171
vt 0.28532475 0.87640202
vt 0.66559929 0.91667324
vt 0.64531428 0.91711497
vt 0.6539259 0.89712745
vt 0.045978654 0.91812754
vt 0.035146095 0.9026348
vt 0.056092326 0.90714687
vt 0.082235359 0.9037382
vt 0.089729205 0.89761269
vt 0.10023088 0.89760917
vt 0.090393044 0.91783106
vt 0.055757314 0.90316552
vt 0.063564949 0.8860392
vt 0.057799961 0.90224272
vt 0.051827375 0.88670075
vt 0.066003226 0.88685203
vt 0.050854933 0.90097785
vt 0.50921094 0.98693883
vt 0.51096004 0.99357146
vt 0.50630671 0.99538034
vt 0.50293273 0.99416894
vt 0.5118292 0.99414223
vt 0.50503582 0.99508721
vt 0.50510293 0.98562312
vt 0.51474518 0.98598355
vt 0.5090887 0.98105246
vt 0.65963888 0.98368043
vt 0.66145504 0.98523676
vt 0.65963894 0.98390192
vt 0.65963894 0.98251802
vt 0.65963954 0.98559397
vt 0.65964091 0.9899804
vt 0.67592132 0.99524188
vt 0.66922867 0.99524403
vt 0.65964252 0.99524713
vt 0.026600165 0.988648
vt 0.028167501 0.99682927
vt 0.018824654 0.98270893
vt 0.027222961 0.98669183
vt 0.033294629 0.98448306
vt 0.027244681 0.99695444
vt 0.0044868588 0.9934355
vt 0.012275903 0.99302614
vt 0.0044951648 0.99602348
vt 0.0041304696 0.99627674
vt 0.0032207144 0.99152082
vt 0.0060852896 0.99031943
vt 0.0041371277 0.99032503
vt 0.01497444 0.99646491
vt 0.010805563 0.99343961
vt 0.014513681 0.99386275
vt 0.013677211 0.99228746
usemtl Tile_+032_+021_L19_000010_0
f 186/344 168/345 155/346
f 173/471 171/472 178/473
f 183/398 174/401 698/404
f 174/401 183/398 182/389
f 543/379 536/364 544/374
f 177/474 173/471 178/473
f 528/546 185/547 533/548
f 529/496 169/493 151/490
f 167/355 165/350 700/360
f 540/349 168/345 547/352
f 165/350 186/344 166/347
f 159/1033 158/1034 157/1035
f 164/476 160/483 161/479
f 506/571 497/572 517/573
f 51/556 164/554 537/553
f 161/479 178/473 164/476
f 38/491 55/488 161/479
f 55/488 50/480 161/479
f 54/559 160/558 53/557
f 53/557 160/558 164/554
f 523/487 39/494 38/491
f 160/483 523/487 161/479
f 21/561 523/562 160/558
f 259/620 382/621 77/622
f 702/408 518/412 703/417
f 175/400 174/401 182/389
f 182/389 520/397 175/400
f 188/393 100/396 175/400
f 101/384 162/381 181/373
f 554/388 181/373 555/390
f 538/391 183/398 699/399
f 149/385 162/381 182/389
f 101/384 182/389 162/381
f 183/398 538/391 182/389
f 538/391 148/372 182/389
f 171/550 537/553 164/554
f 178/473 171/472 164/476
f 148/372 149/385 182/389
f 706/380 148/372 707/383
f 184/358 536/364 181/373
f 148/372 180/363 181/373
f 181/373 162/381 148/372
f 154/351 536/364 184/358
f 180/363 184/358 181/373
f 148/372 535/378 179/354
f 179/354 180/363 148/372
f 185/547 528/546 171/550
f 35/477 177/474 178/473
f 171/550 170/552 537/553
f 50/480 35/477 178/473
f 161/479 50/480 178/473
f 173/471 153/478 185/475
f 47/486 46/489 152/482
f 544/374 154/351 558/375
f 179/354 154/351 184/358
f 179/354 535/378 708/370
f 168/345 186/344 531/348
f 171/472 173/471 185/475
f 177/474 153/478 173/471
f 47/486 177/474 48/484
f 179/354 166/347 154/351
f 530/846 159/847 532/848
f 189/357 179/354 709/362
f 534/551 533/548 185/547
f 157/549 533/548 534/551
f 169/853 176/851 153/857
f 179/354 189/357 165/350
f 169/493 153/478 151/490
f 700/360 189/357 713/371
f 166/347 179/354 165/350
f 534/854 176/851 159/847
f 153/857 176/851 534/854
f 185/860 153/857 534/854
f 534/1036 159/1033 157/1035
f 176/851 532/848 159/847
f 150/485 152/482 46/489
f 165/350 531/348 186/344
f 169/853 532/848 176/851
f 45/849 532/848 169/853
f 530/846 532/848 45/849
f 166/347 155/346 154/351
f 186/344 155/346 166/347
f 151/490 150/485 147/492
f 187/495 151/490 147/492
f 145/973 163/974 564/975
f 566/722 145/723 568/724
f 548/728 146/725 565/726
f 168/731 531/732 146/725
f 187/495 529/496 151/490
f 696/730 531/732 717/734
f 145/723 146/725 697/727
f 165/350 167/355 531/348
f 531/348 167/355 711/361
f 530/846 45/849 44/852
f 41/907 187/908 42/909
f 144/856 169/853 529/859
f 529/859 187/861 144/856
f 19/858 144/856 187/861
f 525/1 461/2 92/3
f 116/584 115/588 462/591
f 506/571 505/574 504/577
f 495/735 505/736 517/737
f 526/441 527/438 516/432
f 512/982 513/983 515/984
f 471/184 466/198 124/171
f 104/443 493/446 108/450
f 449/9 448/6 92/3
f 161/479 523/487 38/491
f 521/566 522/564 37/567
f 524/501 481/500 521/499
f 527/985 526/986 512/982
f 720/416 502/420 721/424
f 569/437 105/426 570/433
f 455/123 454/108 571/114
f 449/912 447/913 88/914
f 130/944 509/945 114/946
f 507/406 514/407 519/403
f 105/426 516/432 503/422
f 501/623 111/631 417/627
f 82/21 434/27 120/32
f 106/447 107/439 516/432
f 156/876 90/877 493/878
f 510/436 511/423 512/429
f 117/585 492/589 490/590
f 504/577 508/579 506/571
f 439/587 79/583 117/585
f 487/626 501/623 77/622
f 128/797 465/798 436/799
f 143/888 461/890 459/885
f 500/740 132/738 137/742
f 156/876 445/880 89/879
f 457/748 458/746 137/742
f 118/802 457/801 465/798
f 265/1007 424/1008 443/1009
f 460/592 490/590 573/594
f 576/12 84/11 577/19
f 457/801 436/799 465/798
f 436/749 457/748 137/742
f 381/687 487/688 443/689
f 453/85 454/108 452/100
f 75/506 40/503 485/504
f 578/247 468/240 579/252
f 124/171 125/210 299/195
f 582/1037 126/1038 583/1039
f 477/229 74/241 73/248
f 429/884 444/882 525/887
f 522/564 523/562 21/561
f 39/494 523/487 172/497
f 172/497 523/487 521/499
f 172/497 521/499 481/500
f 21/561 49/565 522/564
f 524/568 521/566 37/567
f 481/500 524/501 482/502
f 524/501 484/505 485/504
f 485/504 482/502 524/501
f 496/950 486/951 584/952
f 99/507 75/506 485/504
f 524/568 37/567 36/569
f 523/562 522/564 521/566
f 518/412 175/400 514/407
f 175/400 519/403 514/407
f 100/396 519/403 175/400
f 502/420 513/415 511/423
f 518/412 514/407 720/416
f 174/401 175/400 702/408
f 500/740 494/743 495/735
f 499/804 118/802 114/803
f 512/429 526/441 107/439
f 107/439 156/449 493/446
f 107/439 526/441 516/432
f 512/429 107/439 510/436
f 515/427 513/415 503/422
f 102/419 503/422 513/415
f 102/419 513/415 507/406
f 515/427 503/422 516/432
f 513/415 514/407 507/406
f 512/429 511/423 513/415
f 514/407 513/415 502/420
f 511/423 510/436 728/435
f 502/420 511/423 729/428
f 504/947 509/945 130/944
f 508/949 504/947 130/944
f 116/584 110/581 131/586
f 508/701 130/702 498/703
f 589/452 106/447 590/457
f 498/703 130/702 86/704
f 510/436 104/443 722/445
f 591/444 516/432 594/440
f 499/744 141/741 495/735
f 138/745 458/746 457/748
f 457/748 118/747 138/745
f 137/742 138/745 500/740
f 517/737 132/738 495/735
f 498/582 109/575 508/579
f 497/572 506/571 109/575
f 504/739 505/736 495/735
f 132/576 517/573 497/572
f 109/575 488/578 497/572
f 505/574 506/571 517/573
f 570/433 102/419 596/431
f 595/411 100/396 597/413
f 100/396 507/406 519/403
f 102/419 507/406 588/418
f 100/396 188/393 101/384
f 160/558 33/560 21/561
f 417/627 416/632 259/620
f 259/620 501/623 417/627
f 112/691 420/696 423/697
f 423/697 417/699 111/694
f 36/862 15/863 14/864
f 484/570 524/568 36/569
f 483/267 36/268 14/269
f 483/267 484/271 36/268
f 139/239 296/233 479/228
f 371/513 98/511 483/510
f 371/270 483/267 14/269
f 487/626 111/631 501/623
f 495/735 141/741 504/739
f 116/584 117/585 489/580
f 119/38 82/21 120/32
f 114/803 141/805 499/804
f 495/735 494/743 499/744
f 138/745 494/743 500/740
f 118/747 494/743 138/745
f 463/630 440/634 140/636
f 86/704 131/705 498/703
f 492/589 116/584 462/591
f 119/38 428/43 82/21
f 115/707 87/710 601/714
f 510/436 107/439 104/443
f 131/586 110/581 498/582
f 107/439 493/446 104/443
f 494/743 118/747 499/744
f 500/740 495/735 132/738
f 132/576 497/572 489/580
f 112/691 487/688 381/687
f 501/623 259/620 77/622
f 489/580 497/572 488/578
f 486/951 491/954 604/955
f 103/961 490/962 462/963
f 489/580 488/578 116/584
f 116/584 492/589 117/585
f 491/1011 496/1012 586/1013
f 487/688 463/692 443/689
f 472/200 475/222 473/197
f 490/590 439/587 117/585
f 489/580 117/585 79/583
f 75/245 121/257 40/261
f 40/503 481/500 482/502
f 73/248 74/241 609/249
f 611/199 464/161 612/212
f 98/511 301/514 139/512
f 262/515 301/514 98/511
f 301/246 263/242 296/233
f 99/507 485/504 484/505
f 484/505 483/510 123/508
f 139/239 479/228 480/238
f 304/221 299/195 479/228
f 75/245 480/238 478/232
f 613/256 122/244 614/259
f 73/248 122/244 477/229
f 480/238 479/228 478/232
f 477/229 122/244 478/232
f 122/244 76/251 478/232
f 473/197 470/196 71/172
f 477/229 469/234 74/241
f 609/249 469/234 616/253
f 472/200 469/234 477/229
f 464/161 476/185 474/174
f 431/158 471/184 124/171
f 478/232 467/220 477/229
f 472/200 474/174 476/185
f 72/148 464/161 474/174
f 474/174 472/200 473/197
f 475/222 467/220 473/197
f 125/210 124/171 466/198
f 467/220 475/222 477/229
f 467/220 479/228 299/195
f 475/222 472/200 477/229
f 296/233 139/239 301/246
f 75/506 99/507 480/509
f 472/200 468/240 469/234
f 125/210 466/198 467/220
f 71/172 474/174 473/197
f 20/260 121/257 76/251
f 122/244 73/248 610/255
f 579/1003 472/1004 620/1005
f 471/184 431/158 71/172
f 470/196 466/198 471/184
f 132/829 78/830 137/831
f 87/710 447/719 446/720
f 440/634 463/630 77/622
f 127/115 126/138 72/148
f 439/59 450/64 441/54
f 72/148 430/136 127/115
f 103/961 462/963 623/964
f 574/965 103/961 625/968
f 95/124 127/115 430/136
f 432/137 452/100 95/124
f 113/800 465/798 128/797
f 460/81 451/73 439/59
f 67/633 440/634 77/622
f 126/138 455/123 627/146
f 95/124 452/100 127/115
f 127/115 454/108 455/123
f 452/100 134/93 453/85
f 69/65 68/55 441/54
f 89/462 80/466 108/450
f 448/718 85/709 133/715
f 429/4 133/10 129/13
f 623/595 456/593 629/599
f 462/591 115/588 456/593
f 429/884 89/879 444/882
f 445/880 156/876 142/881
f 456/593 115/588 602/596
f 631/5 461/2 632/7
f 449/9 92/3 576/12
f 451/73 460/81 626/86
f 461/890 143/888 599/891
f 133/10 429/4 448/6
f 446/20 447/25 449/9
f 459/885 461/890 525/887
f 128/17 129/13 133/10
f 429/4 525/1 92/3
f 446/20 449/9 634/15
f 447/719 87/710 85/709
f 87/710 88/713 85/709
f 85/709 448/718 447/719
f 448/916 449/912 86/915
f 91/917 88/918 448/919
f 88/918 447/921 448/919
f 622/717 446/720 637/721
f 89/879 445/880 444/882
f 452/100 454/108 127/115
f 126/138 464/161 72/148
f 450/64 439/59 451/73
f 450/64 93/74 441/54
f 453/85 451/73 639/92
f 134/641 452/640 442/639
f 450/64 451/73 93/74
f 571/114 453/85 641/107
f 134/93 93/74 453/85
f 442/639 432/638 94/637
f 265/164 96/147 297/151
f 432/638 140/636 94/637
f 93/74 69/65 441/54
f 441/54 437/49 439/59
f 97/44 438/53 437/49
f 79/832 439/835 438/834
f 136/45 135/40 437/49
f 441/54 136/45 437/49
f 135/40 433/34 436/29
f 128/17 436/29 435/23
f 287/35 120/32 434/27
f 435/23 434/27 129/13
f 435/23 287/35 434/27
f 287/35 435/23 433/34
f 287/35 433/34 136/45
f 95/124 96/147 432/137
f 96/147 443/159 432/137
f 430/136 124/171 297/151
f 443/159 96/147 265/164
f 96/147 430/136 297/151
f 443/159 140/173 432/137
f 133/715 85/709 128/712
f 134/93 442/87 93/74
f 68/55 136/45 441/54
f 97/44 437/49 135/40
f 438/53 439/59 437/49
f 436/29 97/44 135/40
f 81/22 429/4 83/16
f 427/26 119/38 286/46
f 83/16 427/26 733/31
f 82/1000 428/1001 427/1002
f 429/468 81/467 80/466
f 80/466 89/462 429/468
f 119/38 427/26 428/43
f 129/13 83/16 429/4
f 154/351 155/346 539/353
f 144/856 45/849 169/853
f 162/381 149/385 148/372
f 175/400 520/397 188/393
f 520/397 182/389 188/393
f 101/384 188/393 182/389
f 148/372 538/391 705/387
f 153/478 177/474 152/482
f 150/485 153/478 152/482
f 179/354 184/358 180/363
f 150/485 151/490 153/478
f 716/977 145/973 719/980
f 43/498 187/495 147/492
f 45/849 144/856 19/858
f 89/879 90/877 156/876
f 493/446 90/455 108/450
f 509/945 141/948 114/946
f 512/982 515/984 527/985
f 67/633 94/637 140/636
f 141/948 509/945 504/947
f 115/588 116/584 131/586
f 467/220 466/198 470/196
f 600/889 142/881 645/886
f 458/746 138/745 137/742
f 156/449 107/439 589/452
f 79/832 78/830 132/829
f 525/887 444/882 459/885
f 115/707 131/705 86/704
f 108/450 80/466 740/461
f 137/742 97/750 436/749
f 130/702 113/706 86/704
f 435/23 129/13 128/17
f 40/503 482/502 485/504
f 455/123 126/138 127/115
f 474/174 71/172 72/148
f 471/184 71/172 470/196
f 483/510 98/511 123/508
f 99/507 139/512 480/509
f 487/688 112/691 111/694
f 498/582 110/581 109/575
f 423/697 111/694 112/691
f 104/443 108/450 741/454
f 527/438 515/427 516/432
f 508/579 109/575 506/571
f 503/422 102/419 105/426
f 87/710 115/707 86/704
f 116/584 488/578 110/581
f 110/581 488/578 109/575
f 100/396 101/384 552/395
f 139/512 99/507 98/511
f 20/260 40/261 121/257
f 490/590 460/592 439/587
f 113/706 128/712 85/709
f 465/798 113/800 118/802
f 443/689 463/692 140/695
f 143/888 459/885 142/881
f 114/708 113/706 130/702
f 113/800 114/803 118/802
f 97/833 137/831 78/830
f 77/622 463/630 487/626
f 496/950 491/954 486/951
f 132/576 489/580 79/583
f 381/687 443/689 424/690
f 462/963 490/962 492/966
f 263/768 301/769 262/770
f 99/507 123/508 98/511
f 484/505 123/508 99/507
f 76/251 75/245 478/232
f 20/260 76/251 613/256
f 467/220 478/232 479/228
f 467/220 470/196 473/197
f 124/171 430/136 431/158
f 467/220 299/195 125/210
f 472/200 476/185 617/213
f 431/158 72/148 71/172
f 76/251 121/257 75/245
f 77/622 70/629 67/633
f 79/832 438/834 97/833
f 72/148 431/158 430/136
f 430/136 96/147 95/124
f 93/74 442/87 94/82
f 432/638 442/639 452/640
f 86/704 85/709 91/711
f 84/11 92/3 633/8
f 89/462 108/450 90/455
f 78/830 79/832 97/833
f 86/704 88/713 87/710
f 67/75 69/65 94/82
f 444/882 142/881 459/885
f 445/880 142/881 444/882
f 92/3 448/6 429/4
f 427/26 83/16 82/21
f 740/461 81/467 743/469
f 86/920 91/917 448/919
f 85/709 88/713 91/711
f 453/85 93/74 451/73
f 94/82 69/65 93/74
f 140/636 440/634 67/633
f 436/29 433/34 435/23
f 129/13 434/27 82/21
f 433/34 135/40 136/45
f 70/629 68/635 67/633
f 68/55 69/65 67/75
f 81/22 83/16 734/28
f 83/16 129/13 82/21
f 142/881 156/876 643/883
f 86/704 113/706 85/709
f 86/915 449/912 88/914
f 65/162 369/163 66/139
f 62/166 64/152 63/141
f 385/932 412/933 414/934
f 227/306 405/307 59/304
f 317/61 307/56 266/50
f 267/809 395/810 257/811
f 363/516 367/517 372/518
f 413/642 275/643 390/644
f 322/48 330/69 320/71
f 320/71 321/63 322/48
f 61/168 350/179 352/189
f 355/188 354/177 62/166
f 294/666 398/667 271/668
f 256/937 414/934 415/936
f 381/687 380/693 112/691
f 420/696 112/691 380/693
f 419/680 421/682 422/684
f 398/667 249/670 271/668
f 260/529 246/533 400/520
f 57/285 366/287 17/289
f 401/524 367/517 400/520
f 401/277 399/280 56/282
f 360/522 378/527 361/519
f 275/751 413/752 386/753
f 385/758 386/753 411/755
f 297/151 306/125 305/140
f 224/299 2/298 406/300
f 370/531 374/536 251/534
f 405/1030 227/1031 404/1032
f 402/286 56/282 57/285
f 17/289 366/287 13/291
f 407/1021 6/1022 406/1023
f 272/215 303/202 295/225
f 1/970 2/971 364/972
f 311/97 347/120 277/112
f 311/97 277/112 314/105
f 213/156 315/132 234/144
f 352/189 60/190 61/168
f 269/818 292/819 282/820
f 289/60 308/76 341/77
f 328/659 329/661 268/653
f 271/668 249/670 293/673
f 396/783 267/784 349/785
f 336/652 323/655 268/653
f 316/658 324/660 235/663
f 60/190 193/180 61/168
f 339/154 426/178 354/177
f 287/779 307/780 322/781
f 65/162 379/201 362/175
f 270/671 271/668 239/674
f 248/672 380/677 424/678
f 260/776 302/773 261/771
f 398/667 383/676 389/675
f 389/675 421/682 419/680
f 419/698 418/700 420/696
f 246/533 425/528 400/520
f 416/683 422/684 421/682
f 418/685 419/680 422/684
f 416/683 421/682 397/679
f 258/681 416/683 397/679
f 418/700 417/699 423/697
f 416/683 417/686 422/684
f 422/684 417/686 418/685
f 420/696 418/700 423/697
f 10/275 401/277 425/272
f 400/520 363/516 274/525
f 401/524 400/520 425/528
f 14/269 425/272 371/270
f 425/272 246/274 371/270
f 397/679 421/682 389/675
f 419/698 420/696 380/693
f 258/628 259/620 416/632
f 344/654 336/652 343/651
f 390/644 415/645 413/642
f 415/645 390/644 256/647
f 411/755 413/752 415/759
f 415/759 412/763 411/755
f 414/934 412/933 415/936
f 388/756 387/760 280/761
f 386/753 413/752 411/755
f 256/813 257/811 395/810
f 387/791 385/789 281/786
f 281/786 385/789 396/783
f 396/935 414/934 256/937
f 411/755 412/763 385/758
f 253/279 399/280 401/277
f 403/526 367/517 401/524
f 377/290 402/286 57/285
f 368/521 367/517 403/526
f 370/288 402/286 377/290
f 56/282 402/286 403/284
f 58/336 404/337 376/338
f 59/304 58/292 393/301
f 13/291 366/287 408/294
f 253/279 401/277 10/275
f 254/987 409/988 408/989
f 7/278 10/275 8/276
f 2/298 58/292 364/296
f 254/987 399/992 255/994
f 58/292 59/304 405/307
f 403/284 402/286 370/288
f 399/992 254/987 366/990
f 57/285 56/282 399/280
f 409/988 254/987 11/991
f 56/282 403/284 401/277
f 6/1022 231/1024 406/1023
f 231/1024 225/1026 406/1023
f 410/1061 407/1062 2/1063
f 2/298 407/303 406/300
f 225/302 224/299 406/300
f 224/299 393/301 58/292
f 218/322 375/319 215/317
f 391/540 375/542 218/544
f 202/545 391/540 218/544
f 227/306 215/317 375/319
f 215/317 216/320 218/322
f 59/304 393/301 227/306
f 353/205 351/204 352/189
f 391/540 202/545 245/543
f 202/996 279/997 245/998
f 329/96 341/77 333/89
f 316/658 328/659 325/656
f 346/836 311/837 236/838
f 344/764 343/762 276/754
f 308/76 288/66 335/83
f 267/784 240/787 349/785
f 294/823 283/821 383/826
f 337/650 394/646 392/648
f 394/646 390/644 275/643
f 388/756 280/761 276/754
f 391/540 384/538 374/536
f 349/785 281/786 396/783
f 248/672 249/670 398/667
f 380/677 248/672 389/675
f 419/680 380/677 389/675
f 259/620 258/628 383/624
f 383/676 397/679 389/675
f 389/675 248/672 398/667
f 374/536 375/542 391/540
f 251/534 374/536 384/538
f 385/932 414/934 396/935
f 256/813 395/810 267/809
f 396/816 256/813 267/809
f 385/758 387/760 386/753
f 337/650 257/649 394/646
f 276/754 343/762 392/757
f 392/757 275/751 276/754
f 275/643 392/648 394/646
f 387/760 388/756 386/753
f 386/753 388/756 276/754
f 383/624 283/625 382/621
f 259/620 383/624 382/621
f 479/228 296/233 304/221
f 63/141 358/165 362/175
f 246/774 260/776 261/771
f 272/215 361/186 303/202
f 261/771 262/770 247/772
f 372/518 361/519 363/516
f 361/519 372/518 360/522
f 360/522 368/521 373/530
f 57/285 17/289 377/290
f 370/531 368/521 403/526
f 251/534 373/530 368/521
f 224/299 58/292 2/298
f 374/340 376/338 227/339
f 405/307 404/309 58/292
f 404/337 227/339 376/338
f 227/306 375/319 374/295
f 377/290 17/289 58/292
f 364/296 58/292 17/289
f 370/288 377/290 58/292
f 374/295 370/288 58/292
f 58/806 376/807 374/808
f 360/522 373/530 251/534
f 370/531 251/534 368/521
f 372/518 368/521 360/522
f 371/775 246/774 247/772
f 371/775 247/772 262/770
f 367/517 363/516 400/520
f 372/518 367/517 368/521
f 366/287 57/285 399/280
f 251/534 252/537 354/535
f 274/236 272/215 273/230
f 272/523 274/525 363/516
f 260/776 274/777 302/773
f 274/777 273/778 302/773
f 300/211 303/202 379/201
f 303/202 365/214 379/201
f 362/175 379/201 365/214
f 300/211 379/201 65/162
f 362/175 365/214 303/202
f 66/139 306/125 298/149
f 66/139 357/150 238/117
f 369/163 358/165 357/150
f 369/163 357/150 66/139
f 65/162 362/175 369/163
f 378/527 360/522 359/532
f 356/176 63/141 359/187
f 245/543 252/537 391/540
f 391/540 252/537 384/538
f 359/532 360/522 354/535
f 354/177 355/188 359/187
f 355/188 356/176 359/187
f 352/541 252/537 245/543
f 64/152 62/166 354/177
f 63/141 378/203 359/187
f 361/519 272/523 363/516
f 356/176 355/188 62/166
f 354/535 252/537 351/539
f 356/176 62/166 63/141
f 64/152 426/178 339/154
f 351/204 353/205 350/179
f 350/179 353/205 352/189
f 351/539 252/537 352/541
f 354/177 351/204 350/179
f 350/179 339/154 354/177
f 63/141 64/152 342/126
f 358/165 369/163 362/175
f 362/175 303/202 361/186
f 361/186 378/203 63/141
f 357/150 358/165 63/141
f 238/117 357/150 63/141
f 66/139 298/149 65/162
f 278/131 347/120 342/126
f 345/839 346/836 236/838
f 236/838 235/843 324/845
f 278/131 277/112 347/120
f 318/662 341/665 329/661
f 308/76 333/89 341/77
f 318/67 289/60 341/77
f 68/55 288/66 289/60
f 277/112 312/121 314/105
f 315/132 312/121 277/112
f 194/155 234/144 277/112
f 194/155 277/112 338/143
f 338/143 339/154 61/168
f 339/154 338/143 278/131
f 281/786 340/788 345/790
f 346/130 244/118 347/120
f 344/1027 280/1028 326/1029
f 348/127 347/120 244/118
f 281/786 349/785 340/788
f 242/102 348/127 244/118
f 347/120 348/127 342/126
f 348/127 242/102 342/126
f 240/787 244/792 340/788
f 278/131 342/126 339/154
f 342/126 64/152 339/154
f 339/154 350/179 61/168
f 323/655 326/657 324/660
f 326/796 280/793 345/790
f 238/117 63/141 342/126
f 244/792 346/795 340/788
f 323/655 336/652 344/654
f 340/788 349/785 240/787
f 242/102 243/109 334/88
f 268/653 337/650 336/652
f 332/101 333/89 334/88
f 329/96 241/104 268/111
f 241/104 333/89 332/101
f 308/76 335/83 334/88
f 323/655 325/656 268/653
f 325/656 328/659 268/653
f 331/95 242/102 334/88
f 244/792 240/787 243/794
f 243/109 242/102 244/118
f 334/88 243/109 332/101
f 342/126 242/102 238/117
f 66/139 238/117 306/125
f 292/103 237/110 331/95
f 238/117 237/110 306/125
f 242/102 331/95 237/110
f 237/110 238/117 242/102
f 239/128 264/153 305/140
f 334/88 335/83 331/95
f 292/819 335/822 282/820
f 335/822 288/825 282/820
f 333/89 241/104 329/96
f 331/95 335/83 292/103
f 250/42 287/35 322/48
f 744/79 319/78 745/91
f 322/781 307/780 330/782
f 322/48 290/52 250/42
f 286/46 285/58 746/62
f 322/48 321/63 285/58
f 322/48 285/58 290/52
f 319/78 320/71 330/69
f 344/764 276/754 280/761
f 323/655 344/654 326/657
f 328/659 316/658 318/662
f 329/661 328/659 318/662
f 326/844 327/841 236/838
f 324/845 326/844 236/838
f 323/655 324/660 316/658
f 314/105 310/90 311/97
f 321/63 320/71 744/79
f 285/58 321/63 749/72
f 307/56 317/61 330/69
f 317/61 316/68 319/78
f 266/50 289/60 318/67
f 266/50 316/68 317/61
f 318/67 316/68 266/50
f 316/658 235/663 309/664
f 309/84 310/90 319/78
f 319/78 330/69 317/61
f 314/105 212/145 752/134
f 236/838 311/837 309/840
f 310/90 314/105 754/113
f 315/132 213/156 314/105
f 314/105 312/121 313/133
f 310/90 309/84 311/97
f 314/958 313/959 315/960
f 213/156 212/145 314/105
f 60/938 245/939 214/940
f 751/98 310/90 756/106
f 300/211 304/221 303/202
f 295/225 263/242 302/235
f 302/235 273/230 295/225
f 295/225 303/202 304/221
f 304/221 300/211 299/195
f 297/151 124/171 65/162
f 124/171 299/195 65/162
f 299/195 300/211 65/162
f 65/162 298/149 297/151
f 304/221 296/233 295/225
f 263/242 295/225 296/233
f 261/771 302/773 263/768
f 283/821 282/820 70/824
f 424/678 293/673 248/672
f 380/693 381/687 424/690
f 306/125 237/110 305/140
f 269/142 270/129 292/103
f 283/821 294/823 269/818
f 269/818 282/820 283/821
f 291/119 292/103 270/129
f 293/1010 424/1008 265/1007
f 293/673 239/674 271/668
f 293/167 264/153 239/128
f 291/119 270/129 239/128
f 250/42 290/52 284/47
f 136/45 266/50 287/35
f 266/50 307/56 287/35
f 305/140 264/153 265/164
f 265/164 264/153 293/167
f 237/110 239/128 305/140
f 297/151 305/140 265/164
f 68/55 289/60 266/50
f 308/76 289/60 288/66
f 119/38 284/47 286/46
f 286/46 284/47 285/58
f 735/41 286/46 757/51
f 315/132 277/112 234/144
f 283/625 70/629 77/622
f 61/168 193/180 194/155
f 387/791 281/786 280/793
f 354/177 426/178 64/152
f 203/999 279/997 202/996
f 386/753 276/754 275/751
f 337/817 268/815 257/811
f 295/225 273/230 272/215
f 77/622 382/621 283/625
f 251/534 354/535 360/522
f 345/839 327/841 326/844
f 271/668 270/671 269/669
f 268/815 241/812 257/811
f 267/809 257/811 241/812
f 334/88 333/89 308/76
f 236/838 327/841 345/839
f 315/132 313/133 312/121
f 261/771 263/768 262/770
f 262/515 98/511 371/513
f 383/826 398/828 294/823
f 258/681 397/679 383/676
f 256/647 390/644 257/649
f 254/987 255/994 4/995
f 7/278 255/281 253/279
f 10/275 7/278 253/279
f 255/281 399/280 253/279
f 252/537 251/534 384/538
f 240/814 267/809 241/812
f 294/666 271/668 269/669
f 250/42 284/47 119/38
f 390/644 394/646 257/649
f 274/525 260/529 400/520
f 261/771 247/772 246/774
f 361/186 63/141 362/175
f 245/998 279/997 203/999
f 245/939 60/938 352/942
f 278/131 338/143 277/112
f 311/97 346/130 347/120
f 340/842 346/836 345/839
f 194/155 338/143 61/168
f 337/650 343/651 336/652
f 332/101 240/116 241/104
f 291/119 239/128 237/110
f 240/116 332/101 243/109
f 237/110 292/103 291/119
f 392/648 343/651 337/650
f 325/656 323/655 316/658
f 309/840 235/843 236/838
f 316/68 309/84 319/78
f 203/943 214/940 245/939
f 298/149 306/125 297/151
f 282/820 288/825 68/827
f 250/42 120/32 287/35
f 136/45 68/55 266/50
f 70/824 282/820 68/827
f 120/32 250/42 119/38
f 284/47 290/52 285/58
f 248/672 293/673 249/670
f 345/790 280/793 281/786
f 228/922 232/923 233/924
f 230/893 200/894 229/895
f 234/144 194/155 208/169
f 219/323 217/324 216/320
f 230/925 228/922 233/924
f 199/898 32/900 226/903
f 197/865 205/866 653/867
f 231/1024 6/1022 5/1025
f 228/896 229/895 199/898
f 230/893 231/897 200/894
f 32/900 199/898 200/894
f 223/926 233/924 232/923
f 232/901 228/896 199/898
f 199/898 226/903 232/901
f 31/899 200/894 231/897
f 225/927 231/929 230/925
f 230/893 229/895 228/896
f 230/925 233/924 225/927
f 199/898 229/895 200/894
f 32/900 200/894 31/899
f 5/902 31/899 231/897
f 221/314 227/306 222/310
f 223/926 226/928 657/930
f 233/305 223/308 224/299
f 223/308 222/310 224/299
f 226/928 223/926 232/923
f 659/904 32/900 660/905
f 222/341 227/342 224/343
f 219/323 216/320 221/314
f 227/306 221/314 215/317
f 217/324 219/323 661/326
f 216/320 215/317 221/314
f 191/327 218/322 217/324
f 665/318 221/314 666/316
f 221/314 220/321 219/323
f 219/323 220/321 665/318
f 218/602 191/603 202/604
f 216/320 217/324 218/322
f 203/943 198/941 214/940
f 214/940 198/941 60/938
f 655/330 217/324 662/329
f 667/313 222/310 671/312
f 222/310 223/308 658/311
f 651/207 193/180 676/216
f 203/606 190/605 198/608
f 208/169 213/156 234/144
f 212/145 208/169 679/182
f 213/156 208/169 212/145
f 30/1043 211/1044 24/1045
f 211/1044 30/1043 28/1047
f 210/181 208/169 194/155
f 196/872 204/870 60/874
f 209/873 196/872 198/875
f 193/180 60/190 204/206
f 206/613 209/614 192/610
f 676/216 204/206 681/226
f 205/866 195/869 206/871
f 195/869 209/873 206/871
f 208/169 210/181 652/191
f 653/618 201/607 689/619
f 192/610 201/607 206/613
f 227/765 393/766 224/767
f 224/299 225/302 233/305
f 204/206 197/243 687/237
f 201/607 191/603 694/609
f 197/865 204/870 195/869
f 197/865 195/869 205/866
f 203/606 202/604 190/605
f 204/870 196/872 195/869
f 193/180 210/181 194/155
f 196/872 209/873 195/869
f 60/874 198/875 196/872
f 192/610 209/614 198/608
f 190/605 192/610 198/608
f 205/616 206/613 201/607
f 201/607 192/610 190/605
f 202/604 191/603 190/605
f 191/603 201/607 190/605
f 177/474 35/477 34/481
f 160/558 54/559 33/560
f 164/554 51/556 53/557
f 157/549 528/546 533/548
f 537/553 52/555 51/556
f 528/546 170/552 171/550
f 170/552 52/555 537/553
f 152/482 177/474 47/486
f 37/567 522/564 49/565
f 48/484 177/474 34/481
f 158/850 159/847 530/846
f 147/492 150/485 46/489
f 44/852 45/849 18/855
f 42/909 187/908 43/911
f 187/908 41/907 19/910
f 21/561 33/560 22/563
f 18/855 45/849 19/858
f 9/273 10/275 425/272
f 9/273 425/272 14/269
f 16/297 17/289 12/293
f 12/293 17/289 13/291
f 11/991 254/987 3/993
f 366/990 254/987 408/989
f 8/276 10/275 9/273
f 255/281 7/278 4/283
f 3/993 254/987 4/995
f 16/297 364/296 17/289
f 26/1049 30/1043 27/1046
f 30/1043 25/1051 29/1050
f 28/1047 30/1043 29/1050
f 27/1046 30/1043 24/1045
f 25/1051 30/1043 26/1049
f 23/1048 27/1046 24/1045
f 539/353 155/346 540/349
f 540/349 155/346 168/345
f 541/410 100/396 542/405
f 542/405 100/396 644/402
f 543/379 181/373 536/364
f 544/374 536/364 154/351
f 545/365 154/351 546/359
f 546/359 154/351 539/353
f 547/352 168/345 550/356
f 548/728 168/731 146/725
f 549/733 168/731 548/728
f 550/1074 168/1075 551/1076
f 551/1076 168/1075 549/1077
f 552/395 101/384 553/392
f 553/392 101/384 554/388
f 554/388 101/384 181/373
f 555/390 181/373 556/386
f 556/386 181/373 557/382
f 557/382 181/373 543/379
f 558/375 154/351 545/365
f 559/1052 163/1053 560/1054
f 560/1054 163/1053 561/1056
f 561/1056 163/1053 562/1057
f 562/1057 163/1053 716/1058
f 563/1055 163/1053 559/1052
f 564/975 163/974 563/978
f 565/726 146/725 566/722
f 566/722 146/725 145/723
f 567/976 145/973 564/975
f 568/979 145/973 567/976
f 569/437 516/432 105/426
f 570/433 105/426 102/419
f 571/114 454/108 453/85
f 572/135 455/123 571/114
f 573/594 490/590 574/598
f 574/965 490/962 103/961
f 575/597 460/592 573/594
f 576/12 92/3 84/11
f 577/19 84/11 649/18
f 578/247 469/234 468/240
f 579/1003 468/1006 472/1004
f 580/265 122/244 581/262
f 581/262 122/244 615/258
f 582/1037 464/1040 126/1038
f 583/1039 126/1038 628/1041
f 584/1017 486/1018 606/1019
f 585/953 496/950 584/952
f 586/1013 496/1012 585/1015
f 587/414 507/406 595/411
f 588/418 507/406 587/414
f 589/452 107/439 106/447
f 590/457 106/447 603/463
f 591/444 106/447 516/432
f 592/451 106/447 591/444
f 593/456 106/447 592/451
f 594/440 516/432 569/437
f 595/411 507/406 100/396
f 596/431 102/419 598/425
f 597/413 100/396 541/410
f 598/425 102/419 588/418
f 599/891 143/888 600/889
f 600/889 143/888 142/881
f 601/714 87/710 622/717
f 602/716 115/707 601/714
f 603/463 106/447 593/456
f 604/1016 491/1011 605/1014
f 605/1014 491/1011 586/1013
f 606/1019 486/1018 608/1020
f 607/956 486/951 604/955
f 608/957 486/951 607/956
f 609/249 74/241 469/234
f 610/255 73/248 609/249
f 611/199 476/185 464/161
f 612/212 464/161 619/223
f 613/256 76/251 122/244
f 614/259 122/244 618/263
f 615/258 122/244 610/255
f 616/253 469/234 578/247
f 617/213 476/185 611/199
f 618/263 122/244 580/265
f 619/1064 464/1065 621/1066
f 620/224 472/200 617/213
f 621/1042 464/1040 582/1037
f 622/717 87/710 446/720
f 623/595 462/591 456/593
f 624/967 103/961 623/964
f 625/968 103/961 646/969
f 626/601 460/592 575/597
f 627/146 455/123 572/135
f 628/160 126/138 627/146
f 629/599 456/593 630/600
f 630/600 456/593 602/596
f 631/5 92/3 461/2
f 632/892 461/890 599/891
f 633/8 92/3 631/5
f 634/15 449/9 576/12
f 635/94 451/73 626/86
f 636/24 446/20 634/15
f 637/36 446/20 638/30
f 638/30 446/20 636/24
f 639/92 451/73 635/94
f 640/99 453/85 639/92
f 641/107 453/85 640/99
f 642/459 156/449 589/452
f 643/465 156/449 642/459
f 644/402 100/396 552/395
f 645/886 142/881 643/883
f 646/969 103/961 624/967
f 647/264 20/260 613/256
f 648/14 84/11 633/8
f 649/18 84/11 648/14
f 650/266 20/260 647/264
f 651/207 210/181 193/180
f 652/191 210/181 651/207
f 653/618 205/616 201/607
f 654/868 197/865 653/867
f 655/330 191/327 217/324
f 656/331 191/327 655/330
f 657/906 226/903 659/904
f 658/931 223/926 657/930
f 659/904 226/903 32/900
f 661/326 219/323 663/328
f 662/329 217/324 661/326
f 663/328 219/323 669/325
f 664/332 191/327 656/331
f 665/318 220/321 221/314
f 666/316 221/314 668/315
f 667/313 221/314 222/310
f 668/315 221/314 667/313
f 669/325 219/323 665/318
f 670/333 191/327 664/332
f 671/312 222/310 658/311
f 672/335 191/327 673/334
f 673/334 191/327 670/333
f 674/208 208/169 652/191
f 675/217 208/169 674/208
f 676/216 193/180 204/206
f 762/194 680/192 763/218
f 677/227 208/169 675/217
f 678/193 208/169 682/209
f 679/182 208/169 678/193
f 680/192 212/145 679/182
f 681/226 204/206 693/231
f 682/209 208/169 683/219
f 683/219 208/169 677/227
f 684/1070 207/1071 685/1072
f 685/1072 207/1071 688/1073
f 686/250 197/243 692/254
f 687/237 197/243 686/250
f 689/619 201/607 690/617
f 690/617 201/607 691/615
f 691/615 201/607 695/611
f 692/1067 197/1068 654/1069
f 693/231 204/206 687/237
f 694/609 191/603 672/612
f 695/611 201/607 694/609
f 696/730 146/725 531/732
f 697/727 146/725 696/730
f 698/404 174/401 727/409
f 699/399 183/398 698/404
f 700/360 165/350 189/357
f 701/366 167/355 700/360
f 702/408 175/400 518/412
f 703/417 518/412 726/421
f 704/394 538/391 699/399
f 705/387 538/391 704/394
f 706/380 535/378 148/372
f 707/383 148/372 705/387
f 708/370 535/378 706/380
f 709/362 179/354 708/370
f 710/369 189/357 709/362
f 711/361 167/355 712/368
f 712/368 167/355 714/377
f 713/371 189/357 710/369
f 714/377 167/355 715/376
f 715/376 167/355 701/366
f 716/977 163/974 145/973
f 717/367 531/348 711/361
f 718/729 145/723 697/727
f 719/980 145/973 718/981
f 720/416 514/407 502/420
f 721/424 502/420 732/430
f 722/445 104/443 723/448
f 723/448 104/443 724/453
f 724/453 104/443 725/458
f 725/458 104/443 739/464
f 726/421 518/412 720/416
f 727/409 174/401 702/408
f 728/435 510/436 731/442
f 729/428 511/423 728/435
f 730/434 502/420 729/428
f 731/442 510/436 722/445
f 732/430 502/420 730/434
f 733/31 427/26 736/37
f 734/28 83/16 733/31
f 735/41 427/26 286/46
f 736/37 427/26 735/41
f 737/33 81/22 734/28
f 738/39 81/22 737/33
f 739/464 104/443 742/460
f 740/461 80/466 81/467
f 741/454 108/450 740/461
f 742/460 104/443 741/454
f 743/469 81/467 738/470
f 744/79 320/71 319/78
f 745/91 319/78 751/98
f 746/62 285/58 750/70
f 747/57 286/46 746/62
f 748/80 321/63 744/79
f 749/72 321/63 748/80
f 750/70 285/58 749/72
f 751/98 319/78 310/90
f 752/134 212/145 753/157
f 753/157 212/145 759/170
f 754/113 314/105 755/122
f 755/122 314/105 752/134
f 756/106 310/90 754/113
f 757/51 286/46 747/57
f 758/183 212/145 762/194
f 759/170 212/145 758/183
f 760/1059 562/1057 716/1058
f 761/1060 562/1057 760/1059
f 762/194 212/145 680/192
usemtl Tile_+032_+021_L19_000010_untextured
