mtllib Tile_+032_+021_L19_000133.mtl
v 6.47060232e+03 5.11589676e+03 7.80142686e+00
v 6.50000000e+03 5.11866780e+03 7.04004918e+00
v 6.50000000e+03 5.11461596e+03 7.08369916e+00
v 6.49598720e+03 5.11699607e+03 7.11685239e+00
v 6.50000000e+03 5.09580236e+03 7.41674466e+00
v 6.50000000e+03 5.10921899e+03 7.16569661e+00
v 6.50000000e+03 5.10379557e+03 7.34577926e+00
v 6.49428876e+03 5.11155924e+03 7.67895462e+00
v 6.49429280e+03 5.11039678e+03 7.36868147e+00
v 6.49540444e+03 5.11193463e+03 7.37294571e+00
v 6.49603627e+03 5.09510989e+03 7.39838839e+00
v 6.49408844e+03 5.09712330e+03 7.51413117e+00
v 6.49395663e+03 5.09401043e+03 7.70627651e+00
v 6.49214627e+03 5.10179398e+03 7.48952636e+00
v 6.49315046e+03 5.09525109e+03 1.23250814e+01
v 6.49317086e+03 5.09549849e+03 1.38974427e+01
v 6.49154023e+03 5.09414326e+03 1.20794154e+01
v 6.49362692e+03 5.09418977e+03 1.02400146e+01
v 6.48978322e+03 5.11425268e+03 8.02986082e+00
v 6.49156618e+03 5.11454517e+03 7.54663573e+00
v 6.49481969e+03 5.09524478e+03 1.37600446e+01
v 6.49427960e+03 5.09654634e+03 1.36445756e+01
v 6.49355622e+03 5.09552129e+03 1.44313802e+01
v 6.49514931e+03 5.09424298e+03 1.24602651e+01
v 6.49256058e+03 5.09475097e+03 1.32728203e+01
v 6.49215193e+03 5.09429185e+03 1.25061095e+01
v 6.49220077e+03 5.09488220e+03 1.42358508e+01
v 6.49515428e+03 5.09383705e+03 1.38133554e+01
v 6.49372672e+03 5.09665304e+03 1.38744105e+01
v 6.49265154e+03 5.09459180e+03 1.49796273e+01
v 6.49474541e+03 5.09411862e+03 1.43785127e+01
v 6.49205346e+03 5.09476342e+03 1.14808486e+01
v 6.49219986e+03 5.09402900e+03 1.12123128e+01
v 6.49308023e+03 5.09465756e+03 1.03998895e+01
v 6.49485001e+03 5.09424164e+03 1.10726166e+01
v 6.49421815e+03 5.09509329e+03 1.18252807e+01
v 6.49487363e+03 5.09351497e+03 1.08483600e+01
v 6.49112976e+03 5.09716164e+03 7.66879447e+00
v 6.49159915e+03 5.09638903e+03 8.67788008e+00
v 6.49191215e+03 5.11259602e+03 8.39049684e+00
v 6.49356534e+03 5.11258061e+03 7.59704802e+00
v 6.49218375e+03 5.11134789e+03 7.67180477e+00
v 6.49125847e+03 5.11224020e+03 8.19583169e+00
v 6.48848335e+03 5.11698012e+03 7.51182945e+00
v 6.48938135e+03 5.11493287e+03 7.72759469e+00
v 6.49308414e+03 5.10935217e+03 7.46605411e+00
v 6.48874779e+03 5.11320225e+03 7.52858715e+00
v 6.49051910e+03 5.11341269e+03 7.87496353e+00
v 6.48840604e+03 5.12055334e+03 7.21968888e+00
v 6.49201048e+03 5.09534757e+03 7.93482784e+00
v 6.49213225e+03 5.09656538e+03 7.66677567e+00
v 6.49019815e+03 5.09479710e+03 7.69686795e+00
v 6.49007984e+03 5.09793512e+03 7.84521457e+00
v 6.48883081e+03 5.10009241e+03 7.52783344e+00
v 6.48831016e+03 5.09746641e+03 7.75466641e+00
v 6.48602699e+03 5.09599082e+03 7.68715589e+00
v 6.48430867e+03 5.12419478e+03 7.27137700e+00
v 6.49083599e+03 5.09634176e+03 7.62588587e+00
v 6.49617445e+03 5.12522947e+03 7.30158258e+00
v 6.49324118e+03 5.11677727e+03 7.11617835e+00
v 6.49334657e+03 5.11339937e+03 7.29836463e+00
v 6.48916428e+03 5.11015062e+03 7.57942992e+00
v 6.49385785e+03 5.11494000e+03 7.52393640e+00
v 6.49501122e+03 5.10932133e+03 7.52092643e+00
v 6.49301265e+03 5.11162651e+03 7.39375143e+00
v 6.50000000e+03 5.12062913e+03 7.21730446e+00
v 6.50000000e+03 5.11187472e+03 7.13715026e+00
v 6.49861281e+03 5.11233395e+03 7.11236350e+00
v 6.49577735e+03 5.11440047e+03 7.16232457e+00
v 6.49243607e+03 5.09835922e+03 7.40884807e+00
v 6.49397133e+03 5.09899483e+03 7.81501175e+00
v 6.49655166e+03 5.10836797e+03 7.36382525e+00
v 6.49732825e+03 5.11174537e+03 7.44009096e+00
v 6.49812590e+03 5.11003509e+03 7.22616605e+00
v 6.49772783e+03 5.10917470e+03 7.53481421e+00
v 6.46883470e+03 5.09385284e+03 1.31427189e+01
v 6.47244496e+03 5.09596258e+03 1.17678963e+01
v 6.47329940e+03 5.09396928e+03 1.16835321e+01
v 6.48037652e+03 5.09811728e+03 1.04608146e+01
v 6.48045219e+03 5.09829425e+03 9.19406280e+00
v 6.47362864e+03 5.10279534e+03 9.03678077e+00
v 6.47380900e+03 5.10110587e+03 8.36994066e+00
v 6.47215050e+03 5.10239934e+03 7.98671524e+00
v 6.46934640e+03 5.10082338e+03 8.21618155e+00
v 6.47052221e+03 5.09987843e+03 9.88689286e+00
v 6.47165733e+03 5.09800782e+03 9.95103176e+00
v 6.47117794e+03 5.09924023e+03 1.12431557e+01
v 6.47341038e+03 5.09797881e+03 9.54400619e+00
v 6.47900173e+03 5.10001520e+03 9.71136572e+00
v 6.47825760e+03 5.10089654e+03 1.05806272e+01
v 6.47093873e+03 5.09864282e+03 1.01586665e+01
v 6.47956544e+03 5.09922192e+03 8.87766734e+00
v 6.47948557e+03 5.09945897e+03 1.06249100e+01
v 6.47565551e+03 5.09692997e+03 8.92848000e+00
v 6.47486573e+03 5.09785989e+03 1.03481820e+01
v 6.47979712e+03 5.09937765e+03 7.92901902e+00
v 6.47916547e+03 5.09992459e+03 9.22545563e+00
v 6.47162388e+03 5.09776652e+03 8.01994030e+00
v 6.47090663e+03 5.09862525e+03 7.98066352e+00
v 6.47201581e+03 5.09700792e+03 8.56858260e+00
v 6.47376255e+03 5.09788856e+03 8.52599210e+00
v 6.48333433e+03 5.09430999e+03 1.04888939e+01
v 6.46950587e+03 5.09493468e+03 1.17920537e+01
v 6.47513369e+03 5.10122367e+03 8.63944800e+00
v 6.46857167e+03 5.10792025e+03 9.39736194e+00
v 6.47821682e+03 5.09412913e+03 1.16141939e+01
v 6.47661826e+03 5.09395759e+03 9.46617496e+00
v 6.47804317e+03 5.10110551e+03 9.42708235e+00
v 6.47784163e+03 5.10160259e+03 9.66304331e+00
v 6.47246904e+03 5.10445646e+03 8.34307994e+00
v 6.47196976e+03 5.10481066e+03 8.15391580e+00
v 6.47300606e+03 5.09383066e+03 1.67487870e+01
v 6.47494650e+03 5.09374481e+03 1.66548932e+01
v 6.47334416e+03 5.09372940e+03 1.53316275e+01
v 6.48055939e+03 5.10710588e+03 7.67278464e+00
v 6.47422406e+03 5.10561364e+03 7.93039622e+00
v 6.47425784e+03 5.09370531e+03 1.37348748e+01
v 6.47664731e+03 5.09593857e+03 1.17117235e+01
v 6.47486564e+03 5.09405474e+03 1.18671580e+01
v 6.47070605e+03 5.09415259e+03 1.16107909e+01
v 6.47465217e+03 5.09539530e+03 1.20992453e+01
v 6.47684095e+03 5.09355757e+03 1.19330802e+01
v 6.47585837e+03 5.09411140e+03 1.24125493e+01
v 6.46939239e+03 5.09421708e+03 1.28997650e+01
v 6.47602032e+03 5.09516904e+03 1.19743885e+01
v 6.46973050e+03 5.09962013e+03 1.17805947e+01
v 6.47249646e+03 5.09851931e+03 1.17415426e+01
v 6.47408892e+03 5.09802015e+03 1.20912328e+01
v 6.47356144e+03 5.09982900e+03 1.17118266e+01
v 6.47215134e+03 5.09481451e+03 1.22623165e+01
v 6.48254399e+03 5.09541683e+03 9.75529216e+00
v 6.48298418e+03 5.09493296e+03 1.04044379e+01
v 6.46939960e+03 5.09821430e+03 1.19760795e+01
v 6.47072386e+03 5.09923157e+03 1.20441028e+01
v 6.47138693e+03 5.10614302e+03 1.05809211e+01
v 6.46980893e+03 5.10701661e+03 9.90213477e+00
v 6.47132897e+03 5.10522180e+03 9.94734555e+00
v 6.47405028e+03 5.10355793e+03 8.87021023e+00
v 6.47370448e+03 5.10370205e+03 8.63365893e+00
v 6.46925421e+03 5.10759634e+03 1.10975558e+01
v 6.47038930e+03 5.10688782e+03 8.14273316e+00
v 6.46874267e+03 5.10195691e+03 8.19295647e+00
v 6.46928169e+03 5.10118458e+03 1.04030252e+01
v 6.46886941e+03 5.10178623e+03 1.20429540e+01
v 6.46945360e+03 5.10736173e+03 9.74682174e+00
v 6.47087224e+03 5.09528143e+03 1.20011379e+01
v 6.47005230e+03 5.09637352e+03 1.17485627e+01
v 6.47703058e+03 5.09526983e+03 1.09195400e+01
v 6.47145304e+03 5.09769144e+03 1.18417414e+01
v 6.47336301e+03 5.09711068e+03 1.20465169e+01
v 6.47543260e+03 5.09782404e+03 1.14255950e+01
v 6.48303503e+03 5.09494202e+03 1.10224965e+01
v 6.48216505e+03 5.09566406e+03 1.10905786e+01
v 6.48162307e+03 5.09666232e+03 1.10694211e+01
v 6.48115403e+03 5.09704808e+03 9.59703538e+00
v 6.48089113e+03 5.09715031e+03 8.11685467e+00
v 6.47818346e+03 5.10102804e+03 9.60639264e+00
v 6.47861541e+03 5.10058572e+03 9.02417838e+00
v 6.47243418e+03 5.09977161e+03 1.15777176e+01
v 6.47973662e+03 5.09498396e+03 8.29947450e+00
v 6.47734842e+03 5.09443648e+03 1.19727523e+01
v 6.47715487e+03 5.10162504e+03 9.66083438e+00
v 6.48045306e+03 5.09822316e+03 8.87202959e+00
v 6.48012454e+03 5.09877129e+03 9.50346749e+00
v 6.47266717e+03 5.09778127e+03 1.25035321e+01
v 6.47181644e+03 5.09809490e+03 1.21284942e+01
v 6.47181001e+03 5.09702377e+03 1.21339015e+01
v 6.47137746e+03 5.09539878e+03 1.24623391e+01
v 6.47084639e+03 5.09647664e+03 1.28652687e+01
v 6.47100898e+03 5.09712231e+03 1.21077382e+01
v 6.47131889e+03 5.10520506e+03 8.25488693e+00
v 6.47413671e+03 5.10350233e+03 7.91585145e+00
v 6.48565967e+03 5.11936298e+03 7.48039509e+00
v 6.48259399e+03 5.12143859e+03 7.54069080e+00
v 6.47820530e+03 5.09679899e+03 8.08628556e+00
v 6.47749833e+03 5.09850466e+03 7.97370581e+00
v 6.47873390e+03 5.09777199e+03 7.86107895e+00
v 6.47766685e+03 5.09479475e+03 8.47110705e+00
v 6.47005034e+03 5.09971641e+03 8.21826665e+00
v 6.47974457e+03 5.09918772e+03 9.57563065e+00
v 6.47987187e+03 5.09902546e+03 9.30830200e+00
v 6.47899146e+03 5.10008349e+03 8.38618151e+00
v 6.48044685e+03 5.09807148e+03 8.73675169e+00
v 6.47603597e+03 5.09892271e+03 8.11295317e+00
v 6.47392902e+03 5.09925074e+03 8.60999081e+00
v 6.47746964e+03 5.10037539e+03 7.87228104e+00
v 6.47975353e+03 5.09854082e+03 7.90518429e+00
v 6.47882118e+03 5.09443228e+03 7.94807905e+00
v 6.47613436e+03 5.09733918e+03 8.14131191e+00
v 6.48031558e+03 5.09589216e+03 7.91512626e+00
v 6.47825791e+03 5.10087306e+03 9.02696101e+00
v 6.48081483e+03 5.09626808e+03 8.88200777e+00
v 6.48290412e+03 5.09982255e+03 7.74791788e+00
v 6.48285118e+03 5.09507728e+03 8.04602882e+00
v 6.47263093e+03 5.09804700e+03 7.85670910e+00
v 6.48274458e+03 5.09477493e+03 8.14494643e+00
v 6.48156273e+03 5.09526242e+03 9.12494393e+00
v 6.48169567e+03 5.09474842e+03 7.89820502e+00
v 6.46980713e+03 5.10126494e+03 8.00932212e+00
v 6.47101079e+03 5.10055090e+03 8.26052170e+00
v 6.48162152e+03 5.09794058e+03 7.73093274e+00
v 6.47863069e+03 5.10292782e+03 7.84645191e+00
v 6.48403803e+03 5.09474354e+03 7.71228257e+00
v 6.47827556e+03 5.10099663e+03 9.10278188e+00
v 6.47700092e+03 5.10162874e+03 8.47553552e+00
v 6.47802168e+03 5.10175187e+03 7.92478482e+00
v 6.47620171e+03 5.10154135e+03 7.87132226e+00
v 6.47541959e+03 5.10224360e+03 8.27754162e+00
v 6.47505627e+03 5.10288128e+03 8.93897726e+00
v 6.47083629e+03 5.10282839e+03 8.51530883e+00
v 6.47297964e+03 5.10412674e+03 8.43359347e+00
v 6.47271905e+03 5.10452258e+03 8.03301245e+00
v 6.47167784e+03 5.10607399e+03 7.96238277e+00
v 6.47106729e+03 5.10484706e+03 8.01266722e+00
v 6.47001050e+03 5.10941261e+03 8.34214117e+00
v 6.48354630e+03 5.11801593e+03 7.57450793e+00
v 6.47158246e+03 5.10980070e+03 7.92438195e+00
v 6.47081185e+03 5.11209545e+03 8.20493468e+00
v 6.46935189e+03 5.10599185e+03 8.15964144e+00
v 6.46993537e+03 5.10418104e+03 8.14495506e+00
v 6.47673553e+03 5.10175591e+03 8.01955126e+00
v 6.46941169e+03 5.10706589e+03 8.26049026e+00
v 6.46855139e+03 5.11212886e+03 8.07637372e+00
v 6.47602900e+03 5.10252639e+03 7.91478029e+00
v 6.46965346e+03 5.10620101e+03 8.55561841e+00
v 6.46916756e+03 5.10805364e+03 8.02771844e+00
v 6.47148926e+03 5.10613604e+03 8.98000052e+00
v 6.47344691e+03 5.10390499e+03 8.64437117e+00
v 6.47359342e+03 5.10385783e+03 9.22901029e+00
v 6.47421971e+03 5.10335441e+03 8.87657349e+00
v 6.47415010e+03 5.10353032e+03 9.14807485e+00
v 6.46909463e+03 5.10746934e+03 9.18212703e+00
v 6.46925006e+03 5.10151057e+03 9.65010803e+00
v 6.46972215e+03 5.10637580e+03 9.69599549e+00
v 6.48289665e+03 5.12288432e+03 7.66007143e+00
v 6.48010650e+03 5.12049346e+03 7.63298415e+00
v 6.47634324e+03 5.12345382e+03 7.64540778e+00
v 6.48634746e+03 5.12070777e+03 7.62746918e+00
v 6.48105632e+03 5.09753089e+03 8.09321962e+00
v 6.48615358e+03 5.11624242e+03 7.63450731e+00
v 6.46850000e+03 5.11549945e+03 7.87285501e+00
v 6.46850000e+03 5.11666691e+03 7.85243375e+00
v 6.46850000e+03 5.11767514e+03 7.78900523e+00
v 6.46850000e+03 5.11182748e+03 8.08825848e+00
v 6.46850000e+03 5.11213580e+03 8.07105814e+00
v 6.46850000e+03 5.10796518e+03 9.39147327e+00
v 6.46850000e+03 5.10794846e+03 9.31437685e+00
v 6.46850000e+03 5.10439104e+03 8.06834244e+00
v 6.46850000e+03 5.10245610e+03 8.15841826e+00
v 6.46850000e+03 5.10818190e+03 8.37595395e+00
v 6.46850000e+03 5.10825640e+03 8.31574847e+00
v 6.46850000e+03 5.10799330e+03 9.38779270e+00
v 6.46850000e+03 5.10803076e+03 9.90864154e+00
v 6.46850000e+03 5.10202401e+03 1.01549889e+01
v 6.46850000e+03 5.10216556e+03 9.79492311e+00
v 6.46850000e+03 5.10777257e+03 8.82447644e+00
v 6.46850000e+03 5.10753180e+03 8.13211505e+00
v 6.46850000e+03 5.10796274e+03 9.50832993e+00
v 6.46850000e+03 5.10794307e+03 1.04556639e+01
v 6.46850000e+03 5.10588836e+03 8.50272039e+00
v 6.46850000e+03 5.10736437e+03 7.96165057e+00
v 6.46850000e+03 5.10802636e+03 9.12980473e+00
v 6.46850000e+03 5.10228710e+03 8.27338996e+00
v 6.46850000e+03 5.11155267e+03 8.09576299e+00
v 6.46850000e+03 5.11158636e+03 8.10007600e+00
v 6.46850000e+03 5.10749157e+03 7.97110063e+00
v 6.46850000e+03 5.11151742e+03 8.10484963e+00
v 6.46850000e+03 5.11324266e+03 7.93777543e+00
v 6.46850000e+03 5.10549080e+03 8.54926480e+00
v 6.46850000e+03 5.10844144e+03 8.39344315e+00
v 6.46850000e+03 5.11023789e+03 8.68975255e+00
v 6.46850000e+03 5.09411482e+03 1.27327238e+01
v 6.46850000e+03 5.09376591e+03 1.28562771e+01
v 6.46850000e+03 5.09827722e+03 1.17269338e+01
v 6.46850000e+03 5.09876630e+03 1.18381700e+01
v 6.46850000e+03 5.10801196e+03 1.11884764e+01
v 6.46850000e+03 5.10098569e+03 1.19394479e+01
v 6.46850000e+03 5.09939929e+03 1.17413005e+01
v 6.46850000e+03 5.10788223e+03 1.06542256e+01
v 6.46850000e+03 5.10219590e+03 1.20326327e+01
v 6.46850000e+03 5.10229875e+03 1.17819252e+01
v 6.46850000e+03 5.10228158e+03 1.06642095e+01
v 6.46850000e+03 5.10793145e+03 1.11133247e+01
v 6.46850000e+03 5.10216798e+03 8.63781926e+00
v 6.46850000e+03 5.09449706e+03 1.22906435e+01
v 6.46850000e+03 5.09483419e+03 1.17601654e+01
v 6.46850000e+03 5.10797134e+03 9.37284751e+00
v 6.46850000e+03 5.09734415e+03 1.17495439e+01
v 6.48405167e+03 5.09350000e+03 9.18323862e+00
v 6.48404081e+03 5.09350000e+03 9.61864205e+00
v 6.48600950e+03 5.09350000e+03 7.86139006e+00
v 6.48583334e+03 5.09350000e+03 7.85586393e+00
v 6.48400001e+03 5.09350000e+03 1.08609555e+01
v 6.48420480e+03 5.09350000e+03 7.91906182e+00
v 6.48402194e+03 5.09350000e+03 8.38668525e+00
v 6.48189198e+03 5.09350000e+03 7.99149092e+00
v 6.48153908e+03 5.09350000e+03 7.90813905e+00
v 6.48362390e+03 5.09350000e+03 8.13116652e+00
v 6.48121372e+03 5.09350000e+03 7.91369612e+00
v 6.48037499e+03 5.09350000e+03 7.92758610e+00
v 6.47870418e+03 5.09350000e+03 8.08398565e+00
v 6.48393544e+03 5.09350000e+03 8.58023668e+00
v 6.48464161e+03 5.09350000e+03 7.77018991e+00
v 6.48826825e+03 5.09350000e+03 7.64742095e+00
v 6.48385652e+03 5.09350000e+03 8.57936210e+00
v 6.47835332e+03 5.09350000e+03 8.25238487e+00
v 6.48392200e+03 5.09350000e+03 8.91275016e+00
v 6.47754883e+03 5.09350000e+03 8.86499528e+00
v 6.47711602e+03 5.09350000e+03 9.43089650e+00
v 6.47513305e+03 5.09350000e+03 1.66546486e+01
v 6.47492840e+03 5.09350000e+03 1.66535331e+01
v 6.47092250e+03 5.09350000e+03 1.18280619e+01
v 6.47180980e+03 5.09350000e+03 1.17083298e+01
v 6.47185591e+03 5.09350000e+03 1.17218209e+01
v 6.47184458e+03 5.09350000e+03 1.17213176e+01
v 6.47286515e+03 5.09350000e+03 1.32005826e+01
v 6.47268695e+03 5.09350000e+03 1.18362203e+01
v 6.48093364e+03 5.09350000e+03 8.03087805e+00
v 6.48398817e+03 5.09350000e+03 1.08833005e+01
v 6.48398031e+03 5.09350000e+03 1.10132336e+01
v 6.48401918e+03 5.09350000e+03 1.10070172e+01
v 6.47192117e+03 5.09350000e+03 1.17105415e+01
v 6.47682888e+03 5.09350000e+03 1.20006622e+01
v 6.47687275e+03 5.09350000e+03 1.19462469e+01
v 6.47469744e+03 5.09350000e+03 1.40582134e+01
v 6.47492483e+03 5.09350000e+03 1.25320177e+01
v 6.47349304e+03 5.09350000e+03 1.38260213e+01
v 6.47037493e+03 5.09350000e+03 1.20311427e+01
v 6.47009829e+03 5.09350000e+03 1.21498061e+01
v 6.47584514e+03 5.09350000e+03 1.22455633e+01
v 6.47633569e+03 5.09350000e+03 1.25077404e+01
v 6.47509569e+03 5.09350000e+03 1.21482319e+01
v 6.47491334e+03 5.09350000e+03 1.21223954e+01
v 6.46958404e+03 5.09350000e+03 1.26470342e+01
v 6.47689251e+03 5.09350000e+03 1.19337089e+01
v 6.47854426e+03 5.09350000e+03 1.17490948e+01
v 6.47829256e+03 5.09350000e+03 1.17018335e+01
v 6.47867302e+03 5.09350000e+03 1.16060099e+01
v 6.47784399e+03 5.09350000e+03 1.03014445e+01
v 6.47508824e+03 5.09350000e+03 1.55654729e+01
v 6.47424771e+03 5.09350000e+03 1.49109565e+01
v 6.47299701e+03 5.09350000e+03 1.46206625e+01
v 6.47276440e+03 5.09350000e+03 1.57728096e+01
v 6.47302219e+03 5.09350000e+03 1.52980546e+01
v 6.47513606e+03 5.09350000e+03 1.66620129e+01
v 6.47438352e+03 5.09350000e+03 1.66620974e+01
v 6.47255748e+03 5.09350000e+03 1.67444534e+01
v 6.47247725e+03 5.09350000e+03 1.65519937e+01
v 6.48392014e+03 5.09350000e+03 9.33409869e+00
v 6.46997725e+03 5.09350000e+03 1.24241346e+01
v 6.49556665e+03 5.09350000e+03 1.09662068e+01
v 6.49497538e+03 5.09350000e+03 1.08616485e+01
v 6.49267205e+03 5.09350000e+03 7.73454629e+00
v 6.49326587e+03 5.09350000e+03 7.70071407e+00
v 6.49224797e+03 5.09350000e+03 7.69691911e+00
v 6.49522874e+03 5.09350000e+03 7.68805253e+00
v 6.49421728e+03 5.09350000e+03 7.65076375e+00
v 6.49384856e+03 5.09350000e+03 7.70395027e+00
v 6.49625937e+03 5.09350000e+03 7.61382194e+00
v 6.49112458e+03 5.09350000e+03 7.91818398e+00
v 6.48958865e+03 5.09350000e+03 7.65968034e+00
v 6.49779246e+03 5.09350000e+03 7.41506377e+00
v 6.49396282e+03 5.09350000e+03 1.08514310e+01
v 6.49486968e+03 5.09350000e+03 1.08614999e+01
v 6.49337015e+03 5.09350000e+03 1.54335883e+01
v 6.49346690e+03 5.09350000e+03 1.53902823e+01
v 6.49524092e+03 5.09350000e+03 1.24228430e+01
v 6.49452011e+03 5.09350000e+03 1.26082044e+01
v 6.49560273e+03 5.09350000e+03 1.11327756e+01
v 6.49201248e+03 5.09350000e+03 1.22300038e+01
v 6.49223548e+03 5.09350000e+03 1.23727770e+01
v 6.49286957e+03 5.09350000e+03 1.48022777e+01
v 6.49291399e+03 5.09350000e+03 1.48917296e+01
v 6.49477300e+03 5.09350000e+03 1.41718264e+01
v 6.49399489e+03 5.09350000e+03 1.44181360e+01
v 6.49461461e+03 5.09350000e+03 1.29529709e+01
v 6.49267571e+03 5.09350000e+03 1.35198920e+01
v 6.49274318e+03 5.09350000e+03 1.33280063e+01
v 6.49233646e+03 5.09350000e+03 1.25250791e+01
v 6.49499002e+03 5.09350000e+03 1.39138665e+01
v 6.49338050e+03 5.09350000e+03 1.10167313e+01
v 6.49245766e+03 5.09350000e+03 1.15498724e+01
v 6.49207752e+03 5.09350000e+03 1.21415540e+01
v 6.50000000e+03 5.09350000e+03 7.42700583e+00
v 6.46875929e+03 5.09350000e+03 1.28833188e+01
v 6.46869434e+03 5.09350000e+03 1.29019257e+01
v 6.46850000e+03 5.09350000e+03 1.27548587e+01
v 6.47523953e+03 5.12525000e+03 7.60744098e+00
v 6.47272619e+03 5.12525000e+03 7.60654083e+00
v 6.48409337e+03 5.12525000e+03 7.27007001e+00
v 6.48457771e+03 5.12525000e+03 7.26279424e+00
v 6.47924542e+03 5.12525000e+03 7.55497479e+00
v 6.48293664e+03 5.12525000e+03 7.28099880e+00
v 6.48341846e+03 5.12525000e+03 7.27563468e+00
v 6.47959837e+03 5.12525000e+03 7.54732028e+00
v 6.47968253e+03 5.12525000e+03 7.55415541e+00
v 6.48007278e+03 5.12525000e+03 7.51381275e+00
v 6.49237439e+03 5.12525000e+03 7.13002718e+00
v 6.49211155e+03 5.12525000e+03 7.13426619e+00
v 6.50000000e+03 5.12525000e+03 7.06266472e+00
v 6.49621317e+03 5.12525000e+03 7.29848414e+00
v 6.49252396e+03 5.12525000e+03 7.12752179e+00
v 6.49616961e+03 5.12525000e+03 7.30078412e+00
v 6.49615585e+03 5.12525000e+03 7.30179428e+00
v 6.49093510e+03 5.12525000e+03 7.15416845e+00
v 6.49583403e+03 5.12525000e+03 7.28661431e+00
v 6.47201750e+03 5.12525000e+03 7.61350658e+00
v 6.46850000e+03 5.12525000e+03 7.64808028e+00
vt 0.03705873 0.8506074
vt 0.12680088 0.96865952
vt 0.10956492 0.99673086
vt 0.070293792 0.99674356
vt 0.18558721 0.92238474
vt 0.17215776 0.99671108
vt 0.0042189984 0.87840545
vt 0.22446029 0.93714088
vt 0.23932241 0.88365632
vt 0.059220422 0.99674708
vt 0.0042131646 0.86265111
vt 0.19259551 0.71320033
vt 0.17767268 0.99670941
vt 0.0042589549 0.99676454
vt 0.0042070216 0.84440935
vt 0.2723518 0.90469438
vt 0.052341118 0.75534987
vt 0.32706386 0.760732
vt 0.22919531 0.95972759
vt 0.0041948529 0.80914617
vt 0.28005165 0.8559314
vt 0.093595095 0.68991339
vt 0.040308662 0.79120642
vt 0.32057211 0.80841649
vt 0.37361631 0.63014483
vt 0.17898761 0.99670887
vt 0.0041877148 0.79185003
vt 0.31645963 0.86744744
vt 0.28310367 0.9257018
vt 0.053812135 0.69711888
vt 0.16243628 0.64792585
vt 0.0049906122 0.79174119
vt 0.0041844789 0.78273821
vt 0.38830915 0.74823749
vt 0.32180303 0.60357416
vt 0.25126925 0.98020065
vt 0.033680748 0.70983958
vt 0.070072472 0.67287207
vt 0.12178196 0.64166588
vt 0.22919425 0.59938526
vt 0.0041859564 0.78703231
vt 0.0041846 0.78326458
vt 0.027772401 0.74928939
vt 0.37424824 0.77942312
vt 0.3781279 0.57647598
vt 0.44248551 0.7328428
vt 0.18508582 0.99670732
vt 0.33047798 0.8354522
vt 0.31527308 0.9232828
vt 0.058364868 0.67737579
vt 0.092219621 0.65692461
vt 0.15291356 0.62955385
vt 0.18064284 0.5924474
vt 0.0041841958 0.78218734
vt 0.3597891 0.79336458
vt 0.41841897 0.74774528
vt 0.31365198 0.56254292
vt 0.35770786 0.55776745
vt 0.40211505 0.58639526
vt 0.49634305 0.6613816
vt 0.22983645 0.99669534
vt 0.33675033 0.82481897
vt 0.3646163 0.82938528
vt 0.40042603 0.83554304
vt 0.37319663 0.9966504
vt 0.014598147 0.72806311
vt 0.048195846 0.68354058
vt 0.20914423 0.56998599
vt 0.0041709766 0.76218837
vt 0.37000248 0.79891896
vt 0.34824598 0.81169194
vt 0.40720084 0.7645545
vt 0.27797052 0.53949898
vt 0.3413046 0.56985664
vt 0.3733688 0.54844582
vt 0.40393883 0.55715507
vt 0.49630177 0.53648639
vt 0.49637255 0.74612463
vt 0.42457801 0.7885778
vt 0.23736499 0.99669296
vt 0.3908045 0.86425799
vt 0.35481426 0.99665612
vt 0.37730342 0.99664909
vt 0.004164191 0.73006672
vt 0.004165262 0.73123157
vt 0.20030664 0.56358349
vt 0.004165303 0.73412192
vt 0.3958427 0.79867816
vt 0.38720438 0.78377527
vt 0.34313908 0.52082592
vt 0.35311395 0.54495877
vt 0.46086526 0.74544024
vt 0.46709305 0.7588852
vt 0.24791056 0.99668956
vt 0.39243191 0.81147569
vt 0.43041968 0.82710701
vt 0.43371233 0.86766291
vt 0.2554785 0.99668717
vt 0.22833957 0.5252372
vt 0.24688636 0.52002001
vt 0.40714002 0.78271472
vt 0.31297818 0.50056899
vt 0.40186137 0.50851488
vt 0.45463592 0.78561014
vt 0.49642181 0.8937642
vt 0.27768263 0.50057811
vt 0.33360937 0.50056219
vt 0.37145677 0.52941531
vt 0.43436503 0.52568686
vt 0.47471401 0.79480374
vt 0.37964058 0.99664837
vt 0.4964008 0.83045357
vt 0.24948342 0.50058663
vt 0.2749303 0.50057906
vt 0.35760552 0.50055158
vt 0.38178694 0.50054574
vt 0.42173582 0.50053322
vt 0.43667758 0.99630725
vt 0.25631037 0.50058603
vt 0.37516099 0.50054824
vt 0.43784034 0.50052881
vt 0.40593216 0.50053883
vt 0.46179727 0.50052321
vt 0.39106572 0.50054306
vt 0.49638632 0.7876209
vt 0.43135878 0.99662989
vt 0.49642968 0.92440814
vt 0.4001703 0.50054008
vt 0.49629 0.50051188
vt 0.43638703 0.99662811
vt 0.49645486 0.99661118
vt 0.43660209 0.99662805
vt 0.43728277 0.99662787
vt 0.87361634 0.63014483
vt 0.90393883 0.55715507
vt 0.99630177 0.53648639
vt 0.7255556 0.89421749
vt 0.72407645 0.8981033
vt 0.70669681 0.89464694
vt 0.72395849 0.88007247
vt 0.77487612 0.88748032
vt 0.69142473 0.87777698
vt 0.73116142 0.89127886
vt 0.73404777 0.89980799
vt 0.73628402 0.89146894
vt 0.66889507 0.90346247
vt 0.67078954 0.88645554
vt 0.76310408 0.88543916
vt 0.66037381 0.90135074
vt 0.65967327 0.87451887
vt 0.64835536 0.91634285
vt 0.61927676 0.91870981
vt 0.64912683 0.89407665
vt 0.65055192 0.90168387
vt 0.65301418 0.89918631
vt 0.64094961 0.89344263
vt 0.6314292 0.88479769
vt 0.62775427 0.89724886
vt 0.61470097 0.87823278
vt 0.61345792 0.90345883
vt 0.60474139 0.90281129
vt 0.56574595 0.92942095
vt 0.61031193 0.89974362
vt 0.59605604 0.89907324
vt 0.53216672 0.92204577
vt 0.59534061 0.89459997
vt 0.59522015 0.91871691
vt 0.53164321 0.93096584
vt 0.54227763 0.91197616
vt 0.58119202 0.88389248
vt 0.54930836 0.93193352
vt 0.52176476 0.92462659
vt 0.53519857 0.88709939
vt 0.50507039 0.90623999
vt 0.59391302 0.89322591
vt 0.50520253 0.91270113
vt 0.50647366 0.89771873
vt 0.50569814 0.9311682
vt 0.50542802 0.89458096
vt 0.5032174 0.88708496
vt 0.50569814 0.8686682
vt 0.54227763 0.84947616
vt 0.53164321 0.86846584
vt 0.50546682 0.87076145
vt 0.63292646 0.78709859
vt 0.65157431 0.82184523
vt 0.62914854 0.82513458
vt 0.62913775 0.79490012
vt 0.66564006 0.8007015
vt 0.6291486 0.84231317
vt 0.62913555 0.79225826
vt 0.64955735 0.77628309
vt 0.68617868 0.79399657
vt 0.62915111 0.84852558
vt 0.64235377 0.76938385
vt 0.66835803 0.76511741
vt 0.66926551 0.83224744
vt 0.64246637 0.850142
vt 0.65334719 0.75208366
vt 0.69913763 0.82097828
vt 0.71208179 0.77377349
vt 0.62916481 0.87159419
vt 0.66672397 0.73503244
vt 0.7064352 0.81750876
vt 0.69507247 0.82716894
vt 0.67319584 0.8378374
vt 0.71394503 0.74478376
vt 0.70926464 0.8001653
vt 0.74687028 0.73965299
vt 0.73277771 0.77560437
vt 0.69366491 0.72599
vt 0.7104587 0.8143366
vt 0.71133786 0.72350132
vt 0.73157293 0.80150193
vt 0.67792636 0.72161078
vt 0.71850467 0.80889958
vt 0.74839926 0.71490943
vt 0.76971924 0.73311496
vt 0.7372542 0.79154336
vt 0.68404001 0.70974976
vt 0.71585846 0.81208038
vt 0.74090606 0.70850939
vt 0.78075576 0.70645899
vt 0.76928151 0.76234651
vt 0.74947596 0.7805711
vt 0.75781637 0.78391927
vt 0.7723279 0.67514122
vt 0.79036856 0.66947734
vt 0.78902262 0.72166193
vt 0.80495781 0.73366916
vt 0.80467105 0.6780889
vt 0.78853405 0.65490961
vt 0.81464243 0.65490282
vt 0.81372637 0.69228089
vt 0.78304988 0.65490961
vt 0.8233701 0.65489888
vt 0.82774776 0.65489876
vt 0.8328315 0.65489715
vt 0.83528483 0.67440301
vt 0.83834475 0.65489447
vt 0.77648622 0.80022216
vt 0.78000885 0.82544053
vt 0.75329924 0.80216205
vt 0.79361969 0.82512105
vt 0.80012906 0.80124146
vt 0.79112464 0.82798433
vt 0.79543316 0.82373631
vt 0.79281223 0.83133376
vt 0.8010968 0.82586074
vt 0.7950874 0.84489721
vt 0.81008875 0.81910312
vt 0.81117427 0.83707249
vt 0.83629501 0.81550407
vt 0.81314147 0.83153069
vt 0.82526881 0.82853776
vt 0.82139003 0.85211754
vt 0.84258634 0.83781636
vt 0.84366751 0.83331752
vt 0.82936931 0.83633471
vt 0.84501141 0.85415262
vt 0.84594917 0.83115971
vt 0.82644373 0.83930653
vt 0.8716501 0.86915249
vt 0.86155593 0.82440746
vt 0.86407459 0.84631538
vt 0.89390916 0.85595077
vt 0.87858862 0.8150959
vt 0.88878781 0.87170839
vt 0.87469351 0.83265442
vt 0.90286469 0.86720443
vt 0.90097678 0.82315099
vt 0.89269221 0.83975434
vt 0.91360354 0.86985731
vt 0.5197745 0.50741142
vt 0.53852552 0.49518698
vt 0.54112339 0.51282024
vt 0.52832037 0.52989107
vt 0.53334355 0.4849875
vt 0.5490129 0.51464629
vt 0.54071569 0.53148627
vt 0.50407541 0.55964464
vt 0.52901971 0.48498762
vt 0.54190183 0.4849869
vt 0.55576724 0.48498368
vt 0.50407046 0.54506516
vt 0.51812845 0.55865419
vt 0.55631053 0.48498338
vt 0.55578345 0.54003823
vt 0.50405765 0.50584674
vt 0.5040766 0.5672853
vt 0.53882444 0.57454175
vt 0.55648756 0.48498333
vt 0.5432682 0.54158223
vt 0.56570345 0.52345777
vt 0.52330816 0.58062077
vt 0.55021256 0.55047548
vt 0.56110406 0.50551522
vt 0.58005071 0.54138923
vt 0.50408095 0.57717687
vt 0.55588943 0.5567748
vt 0.50986159 0.61446774
vt 0.579045 0.49230886
vt 0.6001845 0.51457918
vt 0.56917614 0.55186594
vt 0.50408667 0.60196233
vt 0.56652147 0.56340683
vt 0.55750746 0.48498315
vt 0.63136601 0.52306187
vt 0.59139711 0.55559564
vt 0.56555653 0.58297622
vt 0.50409174 0.62087101
vt 0.56947136 0.4849779
vt 0.60351586 0.49363434
vt 0.6215623 0.51103842
vt 0.5831688 0.58386576
vt 0.60710448 0.48496234
vt 0.61902148 0.49450874
vt 0.6423102 0.49958533
vt 0.6042555 0.48496354
vt 0.61881351 0.48495746
vt 0.634377 0.48585534
vt 0.65588158 0.49478245
vt 0.62647539 0.48495215
vt 0.6341874 0.48495513
vt 0.63487339 0.48495549
vt 0.63518232 0.48495555
vt 0.6570608 0.4849509
vt 0.6609931 0.48494911
vt 0.59137934 0.77121741
vt 0.58544898 0.74707198
vt 0.60150993 0.75069714
vt 0.60633653 0.77476496
vt 0.56255585 0.76988113
vt 0.60634577 0.75771093
vt 0.60539955 0.7794143
vt 0.58877361 0.78086877
vt 0.56814647 0.74347901
vt 0.60713398 0.75289249
vt 0.54905325 0.78834319
vt 0.54879224 0.73675948
vt 0.60711139 0.78812724
vt 0.54846746 0.76903385
vt 0.55542433 0.7991184
vt 0.60723186 0.80469179
vt 0.53408754 0.76458412
vt 0.59860712 0.80695927
vt 0.53480911 0.79851711
vt 0.53294855 0.73490357
vt 0.60655099 0.80790907
vt 0.51924372 0.80323803
vt 0.52237451 0.74031317
vt 0.50909299 0.76229483
vt 0.5035063 0.74763262
vt 0.73534977 0.95086491
vt 0.72301257 0.9127841
vt 0.768749 0.92011303
vt 0.78768367 0.94239408
vt 0.80559087 0.92891097
vt 0.78082091 0.95956749
vt 0.80060172 0.91322201
vt 0.82356703 0.96422863
vt 0.74685413 0.96345299
vt 0.87662864 0.9426257
vt 0.88198781 0.96459579
vt 0.85163778 0.96315998
vt 0.84925526 0.9457376
vt 0.88553691 0.94859201
vt 0.86237013 0.93559784
vt 0.84852082 0.96253729
vt 0.89002842 0.96048522
vt 0.88150704 0.9413569
vt 0.85533959 0.92260051
vt 0.88877803 0.96344376
vt 0.88189268 0.93097943
vt 0.86233115 0.91822362
vt 0.8741399 0.91887832
vt 0.85177284 0.89925879
vt 0.87744147 0.88749295
vt 0.88393557 0.90921324
vt 0.85194767 0.89298403
vt 0.88670242 0.88829392
vt 0.57741046 0.93719184
vt 0.53366089 0.96537614
vt 0.5044207 0.96518576
vt 0.56542677 0.96872461
vt 0.57313102 0.97217411
vt 0.57530785 0.98135698
vt 0.53495419 0.96557927
vt 0.58372587 0.97585964
vt 0.55607718 0.96720165
vt 0.58783031 0.97592407
vt 0.55823237 0.96259636
vt 0.54659665 0.96416748
vt 0.58516097 0.9802416
vt 0.60243434 0.97713149
vt 0.51855177 0.98434961
vt 0.49972165 0.97979248
vt 0.53843218 0.97662526
vt 0.88874388 0.75117141
vt 0.89390033 0.75782031
vt 0.87884146 0.75436115
vt 0.8872053 0.75152087
vt 0.91085398 0.7426132
vt 0.88968325 0.7789492
vt 0.92169237 0.74595523
vt 0.8783319 0.75689697
vt 0.9084937 0.77151054
vt 0.90100014 0.80207318
vt 0.92464775 0.77727437
vt 0.88692766 0.79702032
vt 0.91727525 0.80526239
vt 0.93692625 0.7601375
vt 0.92580569 0.80793637
vt 0.93045998 0.938703
vt 0.92768753 0.94774723
vt 0.91044611 0.93845034
vt 0.93409699 0.91459072
vt 0.94672006 0.95517075
vt 0.94500387 0.92845452
vt 0.94543761 0.94245505
vt 0.9541465 0.91616869
vt 0.96090579 0.95390338
vt 0.9601571 0.90842032
vt 0.96490997 0.91501921
vt 0.96212214 0.93367636
vt 0.9606241 0.95537961
vt 0.94803089 0.89967918
vt 0.9663285 0.91234177
vt 0.96426886 0.91758615
vt 0.96168953 0.93085355
vt 0.95772606 0.96471691
vt 0.61269861 0.84171999
vt 0.6088708 0.85110176
vt 0.59614992 0.82784051
vt 0.62246531 0.84437001
vt 0.61348224 0.87177563
vt 0.62665963 0.82868415
vt 0.57914972 0.86691529
vt 0.62396455 0.84414017
vt 0.62443739 0.84018511
vt 0.57840556 0.84238678
vt 0.62449622 0.85222411
vt 0.62365133 0.8438884
vt 0.56638306 0.85612708
vt 0.5763225 0.82700145
vt 0.62422156 0.87198275
vt 0.56621718 0.82993746
vt 0.71074891 0.95740926
vt 0.70328695 0.98097193
vt 0.69644958 0.9491502
vt 0.70826739 0.93955052
vt 0.73541075 0.95600563
vt 0.69085717 0.96743107
vt 0.73219866 0.94969273
vt 0.73631388 0.96017164
vt 0.7222774 0.98300064
vt 0.7362861 0.96502
vt 0.71352899 0.99357188
vt 0.73721808 0.98321491
vt 0.53999066 0.96555442
vt 0.5660274 0.95175064
vt 0.58096808 0.95196491
vt 0.58085889 0.95342416
vt 0.55727899 0.96232188
vt 0.58139598 0.95354396
vt 0.81696707 0.87791419
vt 0.82954228 0.90144622
vt 0.81955343 0.88972116
vt 0.83897239 0.88252127
vt 0.82094294 0.89969361
vt 0.84826565 0.92164832
vt 0.82699835 0.92943263
vt 0.81859094 0.91083825
vt 0.85971838 0.93451947
vt 0.81590992 0.9283275
vt 0.81632352 0.93090719
vt 0.75116098 0.84712809
vt 0.75355947 0.83079731
vt 0.7745294 0.86051011
vt 0.74173814 0.85173047
vt 0.77473408 0.8373968
vt 0.76074356 0.87121058
vt 0.73953557 0.82652634
vt 0.75564158 0.82277995
vt 0.72384065 0.8537035
vt 0.73520291 0.84757686
vt 0.72309613 0.86003292
vt 0.72291452 0.85111332
vt 0.73226112 0.83740449
vt 0.73169041 0.81617039
vt 0.7218731 0.86119908
vt 0.72260815 0.83827031
vt 0.72914708 0.81878823
vt 0.72975725 0.81652713
vt 0.73092455 0.86486667
vt 0.72351301 0.83722234
vt 0.72549319 0.82863247
vt 0.72257012 0.83668607
vt 0.72282374 0.83560801
vt 0.93866748 0.86456633
vt 0.94310355 0.85390162
vt 0.94330436 0.85413444
vt 0.92676181 0.85979289
vt 0.9438448 0.85290873
vt 0.93569106 0.87292325
vt 0.92184508 0.88639474
vt 0.93097591 0.88878518
vt 0.91706061 0.86580503
vt 0.91679078 0.90196609
vt 0.91025466 0.88773745
vt 0.92903596 0.89891136
vt 0.92870396 0.9005205
vt 0.97180009 0.88961387
vt 0.95715511 0.86965168
vt 0.97417408 0.86735106
vt 0.99064094 0.87774432
vt 0.95344865 0.90167159
vt 0.95509148 0.85831749
vt 0.9893918 0.88681179
vt 0.94098604 0.89331502
vt 0.94816309 0.86484861
vt 0.94148034 0.89177364
vt 0.94927424 0.85983926
vt 0.94418848 0.87626165
vt 0.59742612 0.96654081
vt 0.60666621 0.97982311
vt 0.59810513 0.97058767
vt 0.61227119 0.96290034
vt 0.60080856 0.9811042
vt 0.60264701 0.9591133
vt 0.60528541 0.9391011
vt 0.93109822 0.98473972
vt 0.92592561 0.96550077
vt 0.93108988 0.95903081
vt 0.92727596 0.99278027
vt 0.9311009 0.99250996
vt 0.93110198 0.99545497
vt 0.93110204 0.9955436
vt 0.6592856 0.95084906
vt 0.65015131 0.9344461
vt 0.66225153 0.94356918
vt 0.64530295 0.95072609
vt 0.65592223 0.95811653
vt 0.62987524 0.94887912
vt 0.64929682 0.9610548
vt 0.63143873 0.95155537
vt 0.65285122 0.96301723
vt 0.63651556 0.95611298
vt 0.64716333 0.96424109
vt 0.54231787 0.97968185
vt 0.56955522 0.98197109
vt 0.56248605 0.98860693
vt 0.62928891 0.98092657
vt 0.62268859 0.96710593
vt 0.64118749 0.96318322
vt 0.61262351 0.96151233
vt 0.64733338 0.98156196
vt 0.62802929 0.99555737
vt 0.64896762 0.97043097
vt 0.65948433 0.97869283
vt 0.66587436 0.95931083
vt 0.66973197 0.97957426
vt 0.67818046 0.97111046
vt 0.84021866 0.97985208
vt 0.84104508 0.95870066
vt 0.85108978 0.96438652
vt 0.83155149 0.96917099
vt 0.49579942 0.98808801
vt 0.4955214 0.98492354
vt 0.50437212 0.97142416
vt 0.65307111 0.96531129
vt 0.66259235 0.98121691
vt 0.64435458 0.96595883
vt 0.50436974 0.99073541
vt 0.51685679 0.99185669
vt 0.50785834 0.99597543
vt 0.53151661 0.98257953
vt 0.5264008 0.9816907
vt 0.53000146 0.97908598
vt 0.52783304 0.98855889
vt 0.53202277 0.98305452
usemtl Tile_+032_+021_L19_000133_0
f 138/137 231/138 209/139
f 1/1 237/2 388/3
f 232/432 145/433 141/434
f 105/435 232/432 141/434
f 109/149 162/146 90/151
f 234/477 225/478 137/479
f 289/174 131/169 290/176
f 142/185 220/186 248/187
f 291/106 203/100 292/114
f 103/274 120/275 146/276
f 163/568 183/569 239/570
f 153/171 152/168 154/162
f 122/321 106/322 161/318
f 228/145 139/143 172/140
f 221/241 162/242 209/243
f 250/84 226/66 251/85
f 96/159 163/166 239/170
f 1/1 216/9 236/5
f 115/12 54/35 14/25
f 206/150 204/153 158/156
f 238/29 235/19 173/16
f 47/24 216/9 62/18
f 240/21 44/28 173/16
f 217/17 215/43 141/37
f 239/170 80/164 194/173
f 156/264 187/253 190/267
f 233/329 84/330 142/331
f 213/30 116/22 217/17
f 175/223 160/231 177/229
f 184/209 176/218 104/210
f 182/251 187/253 92/255
f 172/140 171/141 228/145
f 185/207 184/209 82/201
f 211/385 228/386 229/387
f 234/477 136/480 225/478
f 172/140 209/139 224/142
f 239/170 183/175 80/164
f 201/68 193/40 96/53
f 201/68 239/86 194/99
f 206/52 202/31 224/39
f 55/57 54/35 193/40
f 193/40 201/68 56/73
f 193/40 54/35 115/12
f 235/19 238/29 57/36
f 240/21 173/16 216/9
f 216/9 174/8 236/5
f 216/9 47/24 240/21
f 44/28 238/29 173/16
f 238/29 49/49 57/36
f 236/5 174/8 237/2
f 395/13 235/19 396/26
f 392/6 174/8 395/13
f 396/26 57/36 397/47
f 140/436 145/433 252/439
f 141/37 213/30 217/17
f 135/438 227/441 141/434
f 228/386 138/389 229/387
f 171/141 229/144 231/138
f 231/138 138/137 171/141
f 138/137 228/145 171/141
f 171/141 172/140 111/148
f 211/396 111/397 172/398
f 162/146 109/149 205/147
f 204/244 191/247 157/248
f 172/140 138/137 209/139
f 220/186 210/189 83/193
f 157/248 191/247 90/250
f 109/149 93/152 157/154
f 254/335 233/329 255/332
f 200/196 83/193 210/189
f 232/489 105/496 256/497
f 145/486 232/489 222/483
f 136/480 145/486 222/483
f 84/195 199/192 142/185
f 258/492 145/486 259/488
f 237/2 1/1 236/5
f 105/435 141/434 250/437
f 225/478 219/484 171/481
f 210/189 220/186 142/185
f 171/206 214/197 212/205
f 84/195 179/199 199/192
f 222/483 225/478 136/480
f 230/216 139/212 81/208
f 202/31 193/40 115/12
f 221/241 204/244 162/242
f 138/389 230/391 229/387
f 230/391 231/394 229/387
f 81/208 139/212 228/204
f 162/146 205/147 224/142
f 83/193 81/208 228/204
f 228/204 211/200 83/193
f 137/444 171/447 227/441
f 227/441 135/438 137/444
f 82/201 83/193 200/196
f 185/207 82/201 200/196
f 216/9 115/12 62/18
f 207/225 104/210 186/224
f 206/52 96/53 202/31
f 187/253 156/264 183/261
f 220/186 214/197 219/198
f 141/37 215/43 226/66
f 264/33 218/23 265/42
f 115/12 1/1 217/17
f 115/12 216/9 1/1
f 116/22 212/38 172/51
f 213/445 227/441 171/447
f 172/550 212/551 211/552
f 186/245 204/244 221/241
f 82/201 104/210 81/208
f 172/51 224/39 116/22
f 261/490 222/483 266/494
f 213/30 111/50 212/38
f 116/22 115/12 217/17
f 1/1 218/23 217/17
f 1/1 223/32 218/23
f 215/43 217/17 264/33
f 245/27 1/1 268/20
f 83/193 214/197 220/186
f 220/186 219/198 260/194
f 251/85 215/43 270/87
f 218/23 223/32 244/41
f 214/197 211/200 212/205
f 213/30 171/67 111/50
f 171/388 212/392 110/390
f 110/390 211/385 171/388
f 142/185 199/192 210/189
f 158/156 182/157 206/150
f 83/193 82/201 81/208
f 221/226 209/214 208/219
f 207/225 221/226 208/219
f 207/225 208/219 104/210
f 104/210 208/219 209/214
f 224/39 202/31 116/22
f 186/245 191/247 204/244
f 203/100 56/73 201/68
f 296/240 198/239 297/238
f 175/223 189/217 188/228
f 185/207 101/213 184/209
f 195/211 101/213 185/207
f 176/218 177/229 187/230
f 99/203 185/207 200/196
f 187/253 163/258 80/257
f 183/261 163/258 187/253
f 239/86 201/68 96/53
f 182/251 158/249 186/245
f 199/192 179/199 200/196
f 99/203 195/211 185/207
f 297/238 190/234 299/237
f 154/162 80/164 164/161
f 193/40 56/73 55/57
f 96/53 193/40 202/31
f 101/213 189/217 184/209
f 194/99 203/100 201/68
f 186/224 176/218 187/230
f 160/231 190/234 177/229
f 104/210 82/201 184/209
f 178/227 188/228 189/217
f 101/213 195/211 100/220
f 203/100 194/99 294/113
f 198/271 197/272 192/269
f 190/267 198/271 192/269
f 160/231 175/223 188/228
f 196/448 131/449 198/450
f 131/449 197/453 198/450
f 301/232 178/227 306/235
f 184/209 189/217 175/223
f 178/227 189/217 94/222
f 98/215 100/220 195/211
f 162/242 157/248 90/250
f 88/352 101/353 100/351
f 158/249 97/254 89/252
f 80/257 183/261 155/265
f 93/152 97/158 158/156
f 180/160 181/163 96/159
f 99/340 179/337 85/333
f 148/354 178/355 94/356
f 96/159 181/163 164/161
f 181/163 79/167 164/161
f 93/152 180/160 97/158
f 93/152 164/161 180/160
f 92/255 97/254 182/251
f 131/449 196/448 305/452
f 131/266 155/265 192/269
f 155/265 156/264 192/269
f 92/255 80/257 181/259
f 79/260 93/256 92/255
f 164/571 79/572 180/573
f 180/557 79/558 92/559
f 92/255 181/259 180/262
f 80/164 131/169 194/173
f 79/260 80/257 155/265
f 88/352 86/345 129/350
f 191/247 158/249 89/252
f 99/340 91/342 86/345
f 306/466 107/467 308/468
f 192/269 197/272 131/266
f 99/203 98/215 195/211
f 170/293 169/280 167/288
f 171/388 211/385 229/387
f 175/223 177/229 176/218
f 114/363 112/364 113/365
f 235/19 174/8 173/16
f 167/288 149/296 170/293
f 274/281 133/286 275/290
f 93/152 154/162 164/161
f 134/291 133/286 147/277
f 169/553 170/554 147/555
f 154/263 79/260 131/266
f 159/347 87/339 134/343
f 179/337 84/330 85/333
f 77/294 150/298 167/288
f 121/303 118/308 150/298
f 123/317 125/314 121/303
f 168/279 146/276 120/275
f 78/302 121/303 77/294
f 149/296 167/288 166/300
f 118/362 151/359 129/361
f 165/304 166/300 167/288
f 134/291 149/296 166/300
f 169/280 147/277 146/276
f 165/304 128/309 166/300
f 168/279 130/297 77/294
f 134/291 126/295 133/286
f 128/309 165/304 150/298
f 168/279 169/280 146/276
f 314/292 168/279 315/287
f 169/280 168/279 167/288
f 132/270 102/273 153/268
f 150/298 165/304 167/288
f 126/295 144/301 277/305
f 144/301 126/295 134/291
f 134/343 143/336 144/346
f 259/488 136/480 279/485
f 281/344 143/336 282/341
f 279/485 135/482 283/487
f 85/333 143/336 87/339
f 135/482 140/495 276/491
f 255/332 142/331 284/334
f 140/436 135/438 141/434
f 172/140 139/143 138/137
f 139/212 230/216 138/221
f 136/480 234/477 137/479
f 233/329 143/336 85/333
f 134/343 87/339 143/336
f 137/479 135/482 136/480
f 94/222 189/217 101/213
f 94/356 95/357 148/354
f 164/161 163/166 96/159
f 153/268 154/263 131/266
f 80/257 92/255 187/253
f 204/244 108/246 162/242
f 148/354 95/357 151/359
f 118/308 125/314 161/318
f 299/237 160/231 318/236
f 127/306 159/310 134/291
f 159/347 129/350 86/345
f 109/149 90/151 93/152
f 157/154 158/156 204/153
f 162/242 108/246 157/248
f 121/303 125/314 118/308
f 155/265 131/266 79/260
f 79/260 154/263 93/256
f 154/162 132/165 80/164
f 153/460 102/461 319/462
f 152/168 102/172 132/165
f 293/181 152/183 321/184
f 152/464 153/460 320/463
f 131/449 102/456 152/458
f 152/168 132/165 154/162
f 121/303 119/313 123/317
f 129/361 151/359 95/357
f 118/308 128/309 150/298
f 129/315 159/310 127/306
f 149/296 134/291 147/277
f 91/342 85/333 87/339
f 159/347 86/345 87/339
f 166/300 127/306 134/291
f 106/322 118/308 161/318
f 132/165 131/169 80/164
f 118/362 148/354 151/359
f 147/555 170/554 149/556
f 150/298 77/294 121/303
f 78/302 130/297 314/292
f 129/315 128/309 118/308
f 148/471 118/474 106/472
f 127/306 128/309 129/315
f 127/306 166/300 128/309
f 285/539 103/540 286/541
f 117/375 78/378 316/379
f 328/278 103/274 329/282
f 123/317 119/313 330/320
f 168/279 120/275 313/284
f 122/321 161/318 125/314
f 332/316 78/302 333/319
f 272/543 124/542 285/539
f 106/322 122/321 335/326
f 78/302 119/313 121/303
f 114/363 113/365 340/366
f 114/363 117/375 327/376
f 209/214 230/216 81/208
f 209/395 231/394 230/391
f 346/532 112/533 347/534
f 212/574 111/575 110/576
f 211/385 110/390 111/393
f 204/153 109/149 108/155
f 109/149 157/154 108/155
f 309/470 106/472 339/473
f 176/218 184/209 175/223
f 171/481 137/479 225/478
f 252/439 105/435 287/443
f 275/290 126/295 278/299
f 94/356 101/360 88/358
f 176/218 186/224 104/210
f 104/210 209/214 81/208
f 186/224 221/226 207/225
f 91/342 87/339 86/345
f 107/467 178/469 148/471
f 182/251 186/245 187/253
f 115/12 14/25 62/18
f 141/434 145/433 140/436
f 222/483 232/489 257/493
f 227/441 213/445 141/434
f 233/329 85/333 84/330
f 85/333 91/342 99/340
f 206/150 205/147 109/149
f 109/149 204/153 206/150
f 209/139 162/146 224/142
f 216/9 173/16 174/8
f 224/142 205/147 206/150
f 83/193 211/200 214/197
f 212/38 116/22 213/30
f 219/484 225/478 222/483
f 214/197 171/206 219/198
f 210/189 199/192 200/196
f 202/31 115/12 116/22
f 200/196 179/199 99/203
f 163/166 164/161 80/164
f 160/231 188/228 300/233
f 192/269 156/264 190/267
f 187/230 177/229 190/234
f 79/260 181/259 80/257
f 98/348 99/340 86/345
f 96/159 182/157 97/158
f 158/249 191/247 186/245
f 96/159 206/150 182/157
f 88/358 95/357 94/356
f 156/264 155/265 183/261
f 97/158 180/160 96/159
f 92/255 93/256 89/252
f 93/256 90/250 89/252
f 92/255 89/252 97/254
f 90/250 191/247 89/252
f 100/351 86/345 88/352
f 86/345 100/351 98/348
f 102/456 131/449 307/455
f 323/324 123/317 331/323
f 147/277 103/274 146/276
f 77/294 130/297 78/302
f 123/317 122/321 125/314
f 131/266 132/270 153/268
f 168/279 77/294 167/288
f 129/361 95/357 88/358
f 158/156 157/154 93/152
f 329/544 124/542 350/546
f 103/274 147/277 274/281
f 325/372 114/363 341/368
f 78/378 117/375 326/377
f 124/542 76/545 334/548
f 107/467 148/471 106/472
f 112/364 114/363 343/367
f 37/399 35/400 351/401
f 46/34 72/46 64/56
f 49/49 4/97 398/83
f 20/63 63/64 44/28
f 52/90 53/74 55/57
f 58/560 50/561 39/562
f 14/134 12/135 5/136
f 72/46 75/92 74/93
f 63/64 60/81 49/49
f 45/48 44/28 47/24
f 72/46 6/78 75/92
f 8/101 61/95 41/88
f 59/118 66/127 400/131
f 66/127 59/118 2/105
f 73/104 68/110 69/96
f 53/74 38/58 54/35
f 48/71 19/62 47/24
f 42/44 65/89 41/88
f 72/46 74/93 10/79
f 6/78 74/93 75/92
f 14/382 71/383 12/384
f 58/91 38/58 53/74
f 7/60 6/78 72/46
f 18/403 34/405 35/400
f 13/103 50/108 353/116
f 13/103 51/75 50/108
f 14/25 70/45 71/59
f 12/76 70/45 51/75
f 51/75 70/45 38/58
f 70/45 14/25 54/35
f 12/76 71/59 70/45
f 34/405 15/409 36/407
f 353/116 52/90 355/120
f 11/109 13/103 356/117
f 72/46 46/34 14/25
f 12/76 11/109 5/77
f 15/409 22/411 36/407
f 3/112 68/110 67/125
f 73/104 10/79 74/93
f 74/93 6/78 73/104
f 63/64 10/79 73/104
f 64/56 72/46 10/79
f 41/88 61/95 20/63
f 65/89 42/44 9/72
f 42/44 46/34 64/56
f 63/64 61/95 10/79
f 47/24 19/62 45/48
f 20/63 61/95 63/64
f 44/28 45/48 20/63
f 41/88 65/89 9/72
f 43/55 47/24 42/44
f 43/55 40/70 20/63
f 8/101 10/79 61/95
f 4/97 60/81 69/96
f 9/72 42/44 64/56
f 69/96 63/64 73/104
f 63/64 69/96 60/81
f 398/83 2/105 402/111
f 3/112 4/97 68/110
f 67/125 68/110 6/78
f 44/28 63/64 49/49
f 402/111 59/118 406/126
f 44/28 240/21 47/24
f 47/24 46/34 42/44
f 55/57 56/73 52/90
f 40/70 41/88 20/63
f 49/49 238/29 44/28
f 57/36 49/49 399/65
f 47/24 62/18 46/34
f 9/72 8/101 41/88
f 20/63 48/71 43/55
f 43/55 42/44 40/70
f 41/88 40/70 42/44
f 9/72 64/56 10/79
f 50/108 58/91 52/90
f 54/35 55/57 53/74
f 52/90 58/91 53/74
f 51/563 39/562 50/561
f 37/399 18/403 35/400
f 39/564 38/565 58/566
f 363/500 37/501 364/502
f 23/513 31/514 21/515
f 31/514 30/517 365/520
f 33/506 34/508 18/503
f 32/510 33/506 17/509
f 16/414 23/415 29/416
f 34/405 32/412 15/409
f 35/400 36/407 24/404
f 351/401 24/404 369/406
f 32/510 34/508 33/506
f 17/423 26/421 15/417
f 26/421 17/423 370/428
f 15/417 32/427 17/423
f 47/24 43/55 48/71
f 36/407 35/400 34/405
f 30/418 27/420 372/422
f 21/515 31/514 28/518
f 31/514 23/513 30/517
f 27/420 16/414 25/419
f 27/420 30/418 16/414
f 23/415 16/414 30/418
f 22/411 15/409 29/413
f 368/525 28/526 376/527
f 26/421 25/419 15/417
f 25/419 26/421 371/424
f 22/516 29/519 23/513
f 23/513 21/515 22/516
f 24/404 36/407 21/408
f 28/518 31/514 374/521
f 36/407 22/411 21/408
f 70/45 54/35 38/58
f 7/60 72/46 14/25
f 14/25 5/77 7/60
f 12/76 51/75 13/103
f 46/34 62/18 14/25
f 13/103 11/109 12/76
f 4/97 69/96 68/110
f 68/110 73/104 6/78
f 10/79 8/101 9/72
f 49/49 60/81 4/97
f 20/63 19/62 48/71
f 45/48 19/62 20/63
f 52/90 56/73 304/102
f 38/565 39/564 51/567
f 33/506 18/503 381/505
f 17/509 33/506 382/507
f 15/417 25/419 16/414
f 24/404 21/408 28/410
f 377/425 25/419 378/430
f 15/417 16/414 29/416
f 5/77 11/109 362/123
f 2/105 4/97 3/112
f 241/15 1/1 242/11
f 242/11 1/1 243/7
f 243/7 1/1 389/4
f 244/41 223/32 245/27
f 245/27 223/32 1/1
f 246/498 105/496 258/492
f 247/499 105/496 246/498
f 248/187 220/186 269/190
f 249/188 142/185 248/187
f 250/84 141/37 226/66
f 251/85 226/66 215/43
f 252/439 145/433 105/435
f 253/442 140/436 252/439
f 254/335 143/336 233/329
f 255/332 233/329 142/331
f 256/497 105/496 247/499
f 257/493 232/489 256/497
f 258/492 105/496 145/486
f 259/488 145/486 136/480
f 260/194 219/198 261/202
f 261/490 219/484 222/483
f 262/440 105/435 250/437
f 263/191 142/185 249/188
f 264/33 217/17 218/23
f 265/42 218/23 244/41
f 266/494 222/483 257/493
f 267/54 215/43 264/33
f 268/20 1/1 241/15
f 269/190 220/186 260/194
f 270/87 215/43 271/69
f 271/69 215/43 267/54
f 272/543 76/545 124/542
f 273/547 76/545 272/543
f 274/281 147/277 133/286
f 275/290 133/286 126/295
f 276/446 140/436 253/442
f 277/305 144/301 280/311
f 278/299 126/295 277/305
f 279/485 136/480 135/482
f 280/349 144/346 281/344
f 281/344 144/346 143/336
f 282/341 143/336 254/335
f 283/487 135/482 276/491
f 284/334 142/331 263/338
f 285/539 124/542 103/540
f 286/289 103/274 288/285
f 386/577 273/578 387/579
f 287/443 105/435 262/440
f 288/285 103/274 274/281
f 289/174 194/173 131/169
f 290/176 131/169 293/178
f 291/106 56/73 203/100
f 292/114 203/100 303/119
f 293/181 131/182 152/183
f 294/180 194/173 295/179
f 295/179 194/173 302/177
f 296/451 196/448 198/450
f 297/238 198/239 190/234
f 298/454 196/448 296/451
f 299/237 190/234 160/231
f 300/233 188/228 301/232
f 301/232 188/228 178/227
f 302/177 194/173 289/174
f 303/119 203/100 294/113
f 304/102 56/73 291/106
f 305/452 196/448 298/454
f 306/466 178/469 107/467
f 307/455 131/449 305/452
f 308/468 107/467 309/470
f 309/470 107/467 106/472
f 310/537 113/535 311/536
f 311/536 113/535 346/532
f 312/283 120/275 328/278
f 313/284 120/275 312/283
f 314/292 130/297 168/279
f 315/287 168/279 313/284
f 316/379 78/378 317/381
f 317/312 78/302 322/307
f 318/236 160/231 300/233
f 319/459 102/456 349/457
f 320/463 153/460 319/462
f 321/465 152/464 320/463
f 322/307 78/302 314/292
f 323/324 122/321 123/317
f 324/325 122/321 323/324
f 325/372 117/375 114/363
f 326/377 117/375 325/372
f 327/376 117/375 316/379
f 328/278 120/275 103/274
f 329/544 103/540 124/542
f 330/320 119/313 332/316
f 331/323 123/317 330/320
f 332/316 119/313 78/302
f 333/380 78/378 326/377
f 334/548 76/545 385/549
f 335/326 122/321 324/325
f 336/328 106/322 337/327
f 337/327 106/322 335/326
f 338/475 106/472 336/476
f 339/473 106/472 338/475
f 340/366 113/365 345/369
f 341/368 114/363 340/366
f 342/374 114/363 327/376
f 343/367 114/363 344/371
f 344/371 114/363 342/374
f 345/538 113/535 310/537
f 346/532 113/535 112/533
f 347/373 112/364 348/370
f 348/370 112/364 343/367
f 349/457 102/456 307/455
f 350/546 124/542 334/548
f 351/401 35/400 24/404
f 352/402 37/399 351/401
f 353/116 50/108 52/90
f 354/124 13/103 353/116
f 355/120 52/90 360/115
f 356/117 13/103 357/122
f 357/122 13/103 358/128
f 358/128 13/103 354/124
f 359/121 11/109 356/117
f 360/115 52/90 361/107
f 361/107 52/90 304/102
f 362/123 11/109 359/121
f 363/500 18/503 37/501
f 364/502 37/501 352/504
f 365/431 30/418 373/426
f 366/522 31/514 365/520
f 367/530 24/528 368/525
f 368/525 24/528 28/526
f 369/531 24/528 367/530
f 370/512 17/509 383/511
f 371/424 26/421 370/428
f 372/422 27/420 377/425
f 373/426 30/418 372/422
f 374/521 31/514 375/524
f 375/524 31/514 366/522
f 376/527 28/526 380/529
f 377/425 27/420 25/419
f 378/430 25/419 379/429
f 379/429 25/419 371/424
f 380/523 28/518 374/521
f 381/505 18/503 363/500
f 382/507 33/506 381/505
f 383/511 17/509 382/507
f 384/129 5/77 362/123
f 385/581 76/580 386/577
f 386/577 76/580 273/578
f 388/3 237/2 392/6
f 389/4 1/1 388/3
f 390/94 57/36 391/98
f 391/98 57/36 405/82
f 392/6 237/2 174/8
f 393/61 57/36 394/80
f 394/80 57/36 390/94
f 395/13 174/8 235/19
f 396/26 235/19 57/36
f 397/47 57/36 393/61
f 398/83 4/97 2/105
f 399/65 49/49 398/83
f 401/133 59/118 400/131
f 402/111 2/105 59/118
f 403/132 59/118 401/133
f 404/130 59/118 403/132
f 405/82 57/36 399/65
f 406/126 59/118 404/130
f 407/10 243/7 389/4
f 408/14 243/7 407/10
usemtl Tile_+032_+021_L19_000133_untextured
