mtllib Tile_+032_+021_L20_0002200.mtl
v 6.30636572e+03 5.22836931e+03 5.24289471e+01
v 6.30604826e+03 5.22818969e+03 5.30496697e+01
v 6.30720096e+03 5.22954993e+03 4.53719823e+01
v 6.30687187e+03 5.22971398e+03 4.58939645e+01
v 6.30658759e+03 5.22890788e+03 4.93619490e+01
v 6.30719368e+03 5.22901616e+03 4.91815588e+01
v 6.30704733e+03 5.22915256e+03 4.99313884e+01
v 6.30693734e+03 5.22892967e+03 4.88305211e+01
v 6.30763854e+03 5.22953740e+03 5.29324439e+01
v 6.30764072e+03 5.22926653e+03 5.25960529e+01
v 6.30721979e+03 5.22987750e+03 4.57405583e+01
v 6.30678683e+03 5.22865762e+03 4.77934356e+01
v 6.30624640e+03 5.22820050e+03 4.68754347e+01
v 6.30623707e+03 5.22829361e+03 5.69473668e+01
v 6.30684413e+03 5.22889100e+03 5.71510963e+01
v 6.30606665e+03 5.22810046e+03 5.44413037e+01
v 6.30742307e+03 5.22925263e+03 5.50847657e+01
v 6.30615919e+03 5.22812443e+03 4.79422742e+01
v 6.30665264e+03 5.23070584e+03 5.27624070e+01
v 6.30681543e+03 5.23083881e+03 5.12536874e+01
v 6.30618009e+03 5.22987618e+03 6.33252556e+01
v 6.30583989e+03 5.22955245e+03 6.41414605e+01
v 6.30662668e+03 5.22986064e+03 4.85126848e+01
v 6.30643466e+03 5.23051114e+03 4.93863172e+01
v 6.30654273e+03 5.23004357e+03 6.23193207e+01
v 6.30660762e+03 5.23059997e+03 6.31178090e+01
v 6.30482280e+03 5.23074989e+03 6.99893097e+01
v 6.30558346e+03 5.23057997e+03 6.89351946e+01
v 6.30578712e+03 5.23117295e+03 6.98949966e+01
v 6.30602304e+03 5.22834573e+03 6.42210726e+01
v 6.30640865e+03 5.22856569e+03 6.32184260e+01
v 6.30586413e+03 5.23055893e+03 5.92190021e+01
v 6.30665943e+03 5.23080234e+03 5.91989067e+01
v 6.30663527e+03 5.22864982e+03 4.66455346e+01
v 6.30595184e+03 5.22921757e+03 4.37027430e+01
v 6.30644698e+03 5.22939025e+03 4.23970646e+01
v 6.30605060e+03 5.22896145e+03 4.30126614e+01
v 6.30678643e+03 5.23075958e+03 4.40682592e+01
v 6.30641530e+03 5.23043011e+03 4.41815515e+01
v 6.30585481e+03 5.23004157e+03 4.19011584e+01
v 6.30674895e+03 5.23067878e+03 4.13453073e+01
v 6.30666545e+03 5.23085176e+03 4.19264222e+01
v 6.30581473e+03 5.22962325e+03 4.23731091e+01
v 6.30611066e+03 5.22936677e+03 4.48551875e+01
v 6.30677766e+03 5.23066712e+03 4.48584402e+01
v 6.30687894e+03 5.23055932e+03 4.68984529e+01
v 6.30734096e+03 5.22950491e+03 4.67334006e+01
v 6.30614236e+03 5.22914213e+03 4.25116363e+01
v 6.30637587e+03 5.23026155e+03 4.03422873e+01
v 6.30618933e+03 5.22930585e+03 3.97654104e+01
v 6.30725219e+03 5.22907526e+03 4.34288463e+01
v 6.30730051e+03 5.22958940e+03 4.35455919e+01
v 6.30723027e+03 5.22957890e+03 5.05392833e+01
v 6.30695110e+03 5.23024512e+03 5.08656056e+01
v 6.30680781e+03 5.23009248e+03 5.02269341e+01
v 6.30600014e+03 5.22906051e+03 4.53426257e+01
v 6.30644688e+03 5.23001601e+03 4.59787313e+01
v 6.30628097e+03 5.22825680e+03 4.31714249e+01
v 6.30626298e+03 5.22822131e+03 4.40553331e+01
v 6.30564731e+03 5.22935972e+03 4.33172874e+01
v 6.30603010e+03 5.22821170e+03 4.21745536e+01
v 6.30544056e+03 5.23008587e+03 4.13749216e+01
v 6.30549017e+03 5.22948674e+03 4.05280199e+01
v 6.30628963e+03 5.22827033e+03 4.84677946e+01
v 6.30691851e+03 5.22998610e+03 6.06068009e+01
v 6.30672640e+03 5.23086411e+03 6.02512590e+01
v 6.30704443e+03 5.23010147e+03 5.15972983e+01
v 6.30673284e+03 5.23072872e+03 5.01932013e+01
v 6.30702266e+03 5.22992944e+03 5.16206769e+01
v 6.30694169e+03 5.22973937e+03 5.18490613e+01
v 6.30722957e+03 5.22972196e+03 4.96999554e+01
v 6.30717239e+03 5.22996975e+03 5.32853601e+01
v 6.30732011e+03 5.22957231e+03 5.21199237e+01
v 6.30661081e+03 5.22888039e+03 4.52802710e+01
v 6.30635434e+03 5.22841911e+03 4.60564373e+01
v 6.30689885e+03 5.23078218e+03 4.58179369e+01
v 6.30655616e+03 5.23057333e+03 4.52526668e+01
v 6.30581818e+03 5.22866044e+03 5.42555630e+01
v 6.30589149e+03 5.22867530e+03 5.26568286e+01
v 6.30619918e+03 5.22849828e+03 4.50344977e+01
v 6.30669642e+03 5.22951152e+03 5.14783269e+01
v 6.30705201e+03 5.22930845e+03 5.06542923e+01
v 6.30548047e+03 5.22925489e+03 5.45031760e+01
v 6.30523235e+03 5.22981563e+03 5.37419189e+01
v 6.30547251e+03 5.22959971e+03 5.31975195e+01
v 6.30600808e+03 5.22819576e+03 6.22278278e+01
v 6.30584447e+03 5.22884516e+03 6.15312296e+01
v 6.30622048e+03 5.22831292e+03 5.52845879e+01
v 6.30623356e+03 5.22866597e+03 5.50220772e+01
v 6.30592790e+03 5.22939641e+03 6.12745722e+01
v 6.30604080e+03 5.22991942e+03 6.15518604e+01
v 6.30614762e+03 5.22808952e+03 6.18717744e+01
v 6.30609684e+03 5.22805430e+03 6.10034507e+01
v 6.30650080e+03 5.23004924e+03 5.51561799e+01
v 6.30671069e+03 5.23079879e+03 5.48660311e+01
v 6.30660457e+03 5.23047560e+03 6.11246935e+01
v 6.30610613e+03 5.22809866e+03 5.89980878e+01
v 6.30606388e+03 5.22803870e+03 5.80068236e+01
v 6.30561825e+03 5.23017270e+03 5.31759647e+01
v 6.30563988e+03 5.22946232e+03 5.72712589e+01
v 6.30625099e+03 5.23003286e+03 5.77649476e+01
v 6.30629080e+03 5.23042791e+03 5.84609832e+01
v 6.30704761e+03 5.22998085e+03 5.83529634e+01
v 6.30685064e+03 5.23066666e+03 5.87553419e+01
v 6.30645751e+03 5.23005833e+03 6.07336771e+01
v 6.30566932e+03 5.22915806e+03 6.08070058e+01
v 6.30572588e+03 5.23034209e+03 6.80008931e+01
v 6.30675726e+03 5.23017991e+03 6.79538265e+01
v 6.30626422e+03 5.22816183e+03 5.32940739e+01
v 6.30657081e+03 5.22859884e+03 5.19411902e+01
v 6.30536331e+03 5.22967457e+03 6.85670699e+01
v 6.30544338e+03 5.22994807e+03 6.76665302e+01
v 6.30528987e+03 5.23021441e+03 6.80432833e+01
v 6.30479693e+03 5.22995131e+03 6.90049970e+01
v 6.30638633e+03 5.22907864e+03 6.89985251e+01
v 6.30647605e+03 5.22860103e+03 6.85300780e+01
v 6.30685145e+03 5.22871853e+03 6.58242863e+01
v 6.30602496e+03 5.22810677e+03 6.59172860e+01
v 6.30746531e+03 5.22848736e+03 6.91692341e+01
v 6.30769856e+03 5.22877003e+03 6.87221371e+01
v 6.30660907e+03 5.22898311e+03 5.12933574e+01
v 6.30670092e+03 5.23063816e+03 6.46537162e+01
v 6.30683466e+03 5.23062112e+03 6.42201530e+01
v 6.30701595e+03 5.23107947e+03 6.96241059e+01
v 6.30779510e+03 5.23069593e+03 6.95936455e+01
v 6.30677295e+03 5.22975732e+03 6.10823898e+01
v 6.30742565e+03 5.22960355e+03 6.20003581e+01
v 6.30697702e+03 5.23023375e+03 6.21799836e+01
v 6.30722806e+03 5.22861466e+03 6.88627559e+01
v 6.30665779e+03 5.23078772e+03 5.10085392e+01
v 6.30717982e+03 5.22894278e+03 3.96218788e+01
v 6.30737662e+03 5.22924788e+03 3.95532279e+01
v 6.30542558e+03 5.22972695e+03 5.80805678e+01
v 6.30633797e+03 5.22942453e+03 6.94504947e+01
v 6.30559245e+03 5.22903157e+03 6.97509782e+01
v 6.30590732e+03 5.22908433e+03 6.91487855e+01
v 6.30693321e+03 5.22878996e+03 6.90229341e+01
v 6.30720696e+03 5.22834255e+03 6.85483062e+01
v 6.30539551e+03 5.22990407e+03 7.14912539e+01
v 6.30534456e+03 5.22952454e+03 7.14956736e+01
v 6.30806614e+03 5.23158674e+03 7.06715819e+01
v 6.30645890e+03 5.22954410e+03 5.47817757e+01
v 6.30634924e+03 5.23009923e+03 5.42427340e+01
v 6.30702749e+03 5.22979641e+03 6.26229016e+01
v 6.30683635e+03 5.22978596e+03 6.34563016e+01
v 6.30699949e+03 5.22849803e+03 6.72605739e+01
v 6.30721780e+03 5.22860691e+03 6.91747710e+01
v 6.30681783e+03 5.22871635e+03 4.22053577e+01
v 6.30625779e+03 5.22808641e+03 4.16271513e+01
v 6.30604235e+03 5.22830070e+03 4.61955304e+01
v 6.30708406e+03 5.22938006e+03 4.22410232e+01
v 6.30715215e+03 5.22962890e+03 4.03299009e+01
v 6.30650944e+03 5.22856737e+03 4.07882136e+01
v 6.30740518e+03 5.22898991e+03 4.13518576e+01
v 6.30617945e+03 5.22819638e+03 4.00285367e+01
v 6.30645379e+03 5.22862871e+03 3.93631908e+01
v 6.30513520e+03 5.22978442e+03 6.55463851e+01
v 6.30733577e+03 5.22963594e+03 5.16565542e+01
v 6.30739508e+03 5.22960326e+03 4.80171184e+01
v 6.30858159e+03 5.22795358e+03 7.10411007e+01
v 6.30817883e+03 5.22799399e+03 7.03166763e+01
v 6.30622106e+03 5.22819562e+03 4.96737109e+01
v 6.30613318e+03 5.22822868e+03 5.12736060e+01
v 6.30658347e+03 5.22848821e+03 5.01687699e+01
v 6.30637141e+03 5.22862721e+03 5.51610067e+01
v 6.30613550e+03 5.22809009e+03 5.59897861e+01
v 6.30616757e+03 5.22809055e+03 4.56695999e+01
v 6.30643731e+03 5.22851820e+03 4.45063811e+01
v 6.30723222e+03 5.22858998e+03 6.91873851e+01
v 6.30693678e+03 5.22874041e+03 7.02434920e+01
v 6.30677930e+03 5.22864613e+03 5.30821483e+01
v 6.30688373e+03 5.22873408e+03 4.84099095e+01
v 6.30651132e+03 5.22844554e+03 5.80159600e+01
v 6.30725752e+03 5.22936828e+03 4.49060106e+01
v 6.30695548e+03 5.22921071e+03 4.46430672e+01
v 6.30731811e+03 5.22949001e+03 4.51978617e+01
v 6.30731904e+03 5.22942647e+03 4.51033413e+01
v 6.30597268e+03 5.22835721e+03 4.41038955e+01
v 6.30740604e+03 5.22925932e+03 4.93468664e+01
v 6.30714592e+03 5.22969785e+03 4.87037551e+01
v 6.30740150e+03 5.22894643e+03 4.73545862e+01
v 6.30712852e+03 5.22966432e+03 4.42660593e+01
v 6.30726907e+03 5.22949725e+03 4.87538029e+01
v 6.30703136e+03 5.22910519e+03 6.46829160e+01
v 6.30619155e+03 5.22813057e+03 6.43352993e+01
v 6.30726019e+03 5.22918074e+03 4.78678106e+01
v 6.30727045e+03 5.22955237e+03 4.86720005e+01
v 6.30729509e+03 5.22927225e+03 4.51387992e+01
v 6.30770499e+03 5.22911498e+03 5.34502252e+01
v 6.30704866e+03 5.22962496e+03 4.82009093e+01
v 6.30890444e+03 5.22798330e+03 7.06856895e+01
v 6.30958564e+03 5.22878318e+03 7.07389650e+01
v 6.30877205e+03 5.22862414e+03 6.98375064e+01
v 6.30791017e+03 5.22843167e+03 7.08717229e+01
v 6.30628439e+03 5.22809891e+03 6.54750963e+01
v 6.30601933e+03 5.22788086e+03 6.47777390e+01
v 6.30685309e+03 5.22871587e+03 6.04848168e+01
v 6.30589713e+03 5.22878008e+03 4.51489560e+01
v 6.30633267e+03 5.22816500e+03 5.98527932e+01
v 6.30587199e+03 5.22815884e+03 5.97119931e+01
v 6.30583765e+03 5.22871055e+03 6.56584607e+01
v 6.30588157e+03 5.22847966e+03 5.87784134e+01
v 6.30614951e+03 5.22844607e+03 6.80979915e+01
v 6.30761403e+03 5.22920236e+03 5.43089729e+01
v 6.30646026e+03 5.22862112e+03 6.11850669e+01
v 6.30807749e+03 5.22813333e+03 7.00050120e+01
v 6.30574949e+03 5.22867749e+03 6.49526633e+01
v 6.30674443e+03 5.22861998e+03 6.50953935e+01
v 6.30680835e+03 5.22877688e+03 6.32157767e+01
v 6.30633819e+03 5.22830706e+03 6.26669457e+01
v 6.30794700e+03 5.22859032e+03 6.91846550e+01
v 6.30596414e+03 5.22845769e+03 6.74271827e+01
v 6.30685565e+03 5.22873946e+03 5.61745322e+01
v 6.30799167e+03 5.22868705e+03 7.12888376e+01
v 6.30669777e+03 5.23054828e+03 5.58758826e+01
v 6.30690615e+03 5.23015258e+03 5.52349252e+01
v 6.30660433e+03 5.23006427e+03 5.51396503e+01
v 6.30631011e+03 5.22916332e+03 5.50276302e+01
v 6.30658096e+03 5.23018349e+03 5.52737273e+01
v 6.30693842e+03 5.23001406e+03 5.66074924e+01
v 6.30694742e+03 5.22966138e+03 5.70162817e+01
v 6.30663279e+03 5.23058057e+03 5.74723502e+01
v 6.30666458e+03 5.23081824e+03 5.79521695e+01
v 6.30666435e+03 5.23060230e+03 6.23594321e+01
v 6.30662908e+03 5.23071670e+03 6.17539245e+01
v 6.30700521e+03 5.22942602e+03 6.08189649e+01
v 6.30760814e+03 5.22933776e+03 5.93569482e+01
v 6.30747060e+03 5.22989652e+03 5.99167489e+01
v 6.30741740e+03 5.22927835e+03 6.13698192e+01
v 6.30748202e+03 5.22900813e+03 6.00656921e+01
v 6.30712508e+03 5.22912860e+03 6.04370653e+01
v 6.30724908e+03 5.22984576e+03 5.59955078e+01
v 6.30690780e+03 5.22915773e+03 5.66050261e+01
v 6.30736104e+03 5.22927583e+03 5.79457048e+01
v 6.30755452e+03 5.22954706e+03 5.44083410e+01
v 6.30717839e+03 5.22995313e+03 5.42825202e+01
v 6.30701069e+03 5.23012532e+03 4.76458228e+01
v 6.30673130e+03 5.23079890e+03 4.82515625e+01
v 6.30667999e+03 5.23043205e+03 5.52665751e+01
v 6.30702737e+03 5.22983784e+03 4.63397634e+01
v 6.30722583e+03 5.22892177e+03 6.40511841e+01
v 6.30563499e+03 5.22897272e+03 5.82446548e+01
v 6.30735246e+03 5.22899244e+03 5.85308431e+01
v 6.30672190e+03 5.23089232e+03 5.40532023e+01
v 6.30626990e+03 5.23042664e+03 5.37351257e+01
v 6.30616123e+03 5.23005650e+03 4.79824085e+01
v 6.30640642e+03 5.22957334e+03 4.83289691e+01
v 6.30612452e+03 5.22993101e+03 4.44710178e+01
v 6.30550049e+03 5.22942494e+03 4.75867604e+01
v 6.30556943e+03 5.22927286e+03 4.62001506e+01
v 6.30677790e+03 5.23082440e+03 4.91628506e+01
v 6.30549088e+03 5.22917011e+03 4.81134878e+01
v 6.30565838e+03 5.22925041e+03 4.94437609e+01
v 6.30572473e+03 5.22906841e+03 5.16271338e+01
v 6.30606277e+03 5.22809933e+03 5.05005810e+01
v 6.30561995e+03 5.22940868e+03 5.65908209e+01
v 6.30582874e+03 5.22968187e+03 4.87138243e+01
v 6.30592893e+03 5.22905972e+03 4.93411416e+01
v 6.30647209e+03 5.23040100e+03 5.18611453e+01
v 6.30613300e+03 5.23025771e+03 5.25233643e+01
v 6.30562207e+03 5.22947512e+03 4.52543828e+01
v 6.30601035e+03 5.22972651e+03 4.82916199e+01
v 6.30554482e+03 5.22986837e+03 4.72921958e+01
v 6.30609046e+03 5.22924459e+03 5.08017127e+01
v 6.30553575e+03 5.22953275e+03 5.09329746e+01
v 6.30548850e+03 5.22925728e+03 5.22191149e+01
v 6.30651042e+03 5.22992417e+03 5.03459977e+01
v 6.30600427e+03 5.22915972e+03 5.17900985e+01
v 6.30608987e+03 5.22916659e+03 5.02825884e+01
v 6.30664931e+03 5.23074105e+03 4.71712532e+01
v 6.30672391e+03 5.23064688e+03 4.65893558e+01
v 6.30553431e+03 5.22946417e+03 4.45121043e+01
v 6.30550523e+03 5.22917055e+03 5.00285168e+01
v 6.30568206e+03 5.23001152e+03 4.69346076e+01
v 6.30518197e+03 5.22976540e+03 6.03978819e+01
v 6.30526552e+03 5.22999021e+03 5.91875932e+01
v 6.30542510e+03 5.22932995e+03 5.79722337e+01
v 6.30519392e+03 5.22923274e+03 5.90515006e+01
v 6.30579354e+03 5.23046626e+03 5.98596841e+01
v 6.30740053e+03 5.22902956e+03 6.17808643e+01
v 6.30601354e+03 5.22955817e+03 5.56844230e+01
v 6.30589197e+03 5.22879512e+03 5.59496798e+01
v 6.30620284e+03 5.22927730e+03 5.46879352e+01
v 6.30672759e+03 5.22858833e+03 6.22994561e+01
v 6.30568610e+03 5.22930444e+03 5.59353577e+01
v 6.30505134e+03 5.22952440e+03 5.98947838e+01
v 6.30550111e+03 5.22941414e+03 6.20982159e+01
v 6.30617803e+03 5.22971616e+03 6.19807389e+01
v 6.30580484e+03 5.22985230e+03 6.05653014e+01
v 6.30594646e+03 5.22857574e+03 6.22242935e+01
v 6.30514378e+03 5.22916869e+03 6.73525661e+01
v 6.30532147e+03 5.22885926e+03 6.65452673e+01
v 6.30562756e+03 5.22924400e+03 6.87680566e+01
v 6.30672649e+03 5.23078644e+03 6.67141628e+01
v 6.30496485e+03 5.22978511e+03 6.65979674e+01
v 6.30619199e+03 5.23002462e+03 6.39232481e+01
v 6.30523680e+03 5.22955669e+03 6.49098090e+01
v 6.30554752e+03 5.23037347e+03 6.71135472e+01
v 6.30465990e+03 5.22989260e+03 7.10353191e+01
v 6.30480728e+03 5.23021919e+03 7.11863274e+01
v 6.30487027e+03 5.22929242e+03 7.02550563e+01
v 6.30529643e+03 5.22912081e+03 7.09751612e+01
v 6.30537883e+03 5.23049075e+03 7.10752061e+01
v 6.30573582e+03 5.22993539e+03 7.31724345e+01
v 6.30595925e+03 5.22977024e+03 7.25028758e+01
v 6.30592869e+03 5.22999730e+03 7.22241815e+01
v 6.30559753e+03 5.22964525e+03 7.16221934e+01
v 6.30551954e+03 5.22883123e+03 7.15460406e+01
v 6.30623415e+03 5.22967768e+03 7.21653051e+01
v 6.30580326e+03 5.22973436e+03 7.18798104e+01
v 6.30590294e+03 5.23015944e+03 7.15169936e+01
v 6.30603334e+03 5.22980241e+03 7.16917575e+01
v 6.30562090e+03 5.22882110e+03 7.08130230e+01
v 6.30579708e+03 5.22976575e+03 7.15124136e+01
v 6.30613905e+03 5.22895191e+03 7.04988818e+01
v 6.30623154e+03 5.22921346e+03 7.01580848e+01
v 6.30632835e+03 5.22905522e+03 6.29554836e+01
v 6.30781801e+03 5.22948725e+03 6.65487455e+01
v 6.30776428e+03 5.22914146e+03 6.61803268e+01
v 6.30800429e+03 5.22994832e+03 6.91552237e+01
v 6.30762450e+03 5.22918909e+03 6.52565295e+01
v 6.30746048e+03 5.23039651e+03 6.80750972e+01
v 6.30751259e+03 5.23019195e+03 6.76124737e+01
v 6.30765127e+03 5.23028459e+03 6.83950573e+01
v 6.30767388e+03 5.22904036e+03 6.73205936e+01
v 6.30772209e+03 5.22850504e+03 6.79649432e+01
v 6.30726944e+03 5.22937479e+03 6.79711827e+01
v 6.30696153e+03 5.22914783e+03 6.26549599e+01
v 6.30626835e+03 5.22967754e+03 6.28473557e+01
v 6.30648070e+03 5.22907963e+03 7.14607350e+01
v 6.30677071e+03 5.22876296e+03 7.09994603e+01
v 6.30630342e+03 5.22925359e+03 7.32021746e+01
v 6.30683535e+03 5.22936316e+03 7.25360237e+01
v 6.30701385e+03 5.22939556e+03 7.18995505e+01
v 6.30644561e+03 5.22941001e+03 7.35460712e+01
v 6.30737015e+03 5.22958772e+03 7.18938801e+01
v 6.30850159e+03 5.22920639e+03 7.13113158e+01
v 6.30886801e+03 5.22974983e+03 7.07995595e+01
v 6.30706950e+03 5.22922243e+03 6.36148484e+01
v 6.30686453e+03 5.23063046e+03 6.54912251e+01
v 6.30740002e+03 5.22940944e+03 6.41964199e+01
v 6.30761932e+03 5.22964377e+03 6.43869755e+01
v 6.30753134e+03 5.22918853e+03 7.14424771e+01
v 6.30749173e+03 5.22940604e+03 6.85692667e+01
v 6.30614629e+03 5.23045211e+03 7.31650946e+01
v 6.30617796e+03 5.23014097e+03 7.18569333e+01
v 6.30672847e+03 5.22997848e+03 7.15785710e+01
v 6.30643041e+03 5.23014794e+03 7.23237514e+01
v 6.30618771e+03 5.23049185e+03 7.38938964e+01
v 6.30583959e+03 5.23037153e+03 7.34418172e+01
v 6.30581659e+03 5.22997555e+03 7.38323852e+01
v 6.30679501e+03 5.22992892e+03 7.30009751e+01
v 6.30756472e+03 5.23029466e+03 7.10372245e+01
v 6.30775266e+03 5.22973305e+03 7.09386519e+01
v 6.30682668e+03 5.23009566e+03 7.10837573e+01
v 6.30772330e+03 5.22940745e+03 7.12932490e+01
v 6.30657482e+03 5.23029825e+03 7.30191308e+01
v 6.30709464e+03 5.23035003e+03 6.75235651e+01
v 6.30754421e+03 5.22976146e+03 6.77416188e+01
v 6.30740815e+03 5.22974075e+03 6.60372868e+01
v 6.30732427e+03 5.22952597e+03 6.54451541e+01
v 6.30652846e+03 5.23056372e+03 6.53377927e+01
v 6.30926550e+03 5.22922060e+03 7.06479822e+01
v 6.30762685e+03 5.22874114e+03 6.81506529e+01
v 6.30558307e+03 5.22919132e+03 4.39433915e+01
v 6.30888223e+03 5.22957340e+03 7.02689491e+01
v 6.30756543e+03 5.22964828e+03 6.48654833e+01
v 6.30839323e+03 5.23117377e+03 7.07047801e+01
v 6.30885670e+03 5.23018614e+03 7.07695454e+01
v 6.30732310e+03 5.23218761e+03 7.08166099e+01
v 6.30810324e+03 5.23137459e+03 7.09307604e+01
v 6.30725416e+03 5.23168092e+03 7.11296555e+01
v 6.30635708e+03 5.23187735e+03 7.09483220e+01
v 6.30666901e+03 5.23054690e+03 7.09550140e+01
v 6.30865322e+03 5.23026829e+03 7.01133221e+01
v 6.30543706e+03 5.22927641e+03 3.98948133e+01
v 6.30619924e+03 5.22832934e+03 4.07886289e+01
v 6.30668178e+03 5.23063617e+03 4.29181176e+01
v 6.30615802e+03 5.23031661e+03 4.22920114e+01
v 6.30610686e+03 5.22994478e+03 4.24107228e+01
v 6.30542930e+03 5.22941855e+03 4.87994749e+01
v 6.30624449e+03 5.22924057e+03 4.84675610e+01
v 6.30651664e+03 5.23048641e+03 4.24246823e+01
v 6.30712060e+03 5.23005604e+03 4.19574757e+01
v 6.30677696e+03 5.23098077e+03 4.25789183e+01
v 6.30691427e+03 5.23017009e+03 4.16034142e+01
v 6.30699261e+03 5.23023641e+03 4.33976372e+01
v 6.30726090e+03 5.22963137e+03 4.10546111e+01
v 6.30588949e+03 5.22902062e+03 3.95085014e+01
v 6.30675237e+03 5.22914670e+03 4.01512012e+01
v 6.30666732e+03 5.23063470e+03 4.01352328e+01
v 6.30704655e+03 5.23006984e+03 3.93368086e+01
v 6.30644120e+03 5.23198759e+03 7.06088966e+01
v 6.30544181e+03 5.23227141e+03 7.11277703e+01
v 6.30607294e+03 5.23050987e+03 7.12709513e+01
v 6.30528629e+03 5.23119065e+03 7.11487511e+01
v 6.30451550e+03 5.23170505e+03 7.09470355e+01
v 6.30684755e+03 5.23212567e+03 7.09806082e+01
v 6.30423300e+03 5.23075136e+03 7.10812052e+01
v 6.30575280e+03 5.22994769e+03 4.06881587e+01
v 6.30663918e+03 5.22872320e+03 4.00916423e+01
v 6.30765700e+03 5.22940421e+03 4.18367334e+01
v 6.30729598e+03 5.22972748e+03 3.98676192e+01
v 6.30541615e+03 5.22936371e+03 4.21297760e+01
v 6.30606763e+03 5.22883705e+03 4.34438383e+01
v 6.30365336e+03 5.23018945e+03 7.07623447e+01
v 6.30424425e+03 5.23023471e+03 6.99815648e+01
v 6.30414820e+03 5.22973013e+03 6.99377854e+01
v 6.30369019e+03 5.23013140e+03 7.09903312e+01
v 6.30431003e+03 5.23113358e+03 7.08515204e+01
v 6.30450256e+03 5.23145814e+03 7.11866142e+01
v 6.30728236e+03 5.22916366e+03 3.93290301e+01
v 6.30716339e+03 5.22898922e+03 3.93290277e+01
v 6.30581951e+03 5.22909189e+03 3.93289873e+01
v 6.30552854e+03 5.22928932e+03 3.93289774e+01
v 6.30732546e+03 5.22937420e+03 3.93290301e+01
v 6.30704720e+03 5.23006820e+03 3.93290177e+01
v 6.30645906e+03 5.22863176e+03 3.93290090e+01
v 6.30644526e+03 5.22861516e+03 3.93290087e+01
v 6.30617957e+03 5.22819541e+03 3.93290033e+01
v 6.30669416e+03 5.23066701e+03 3.93290036e+01
v 6.30660422e+03 5.23052950e+03 3.93290018e+01
v 6.30688775e+03 5.23065133e+03 3.93290095e+01
v 6.30704017e+03 5.23010075e+03 3.93290173e+01
v 6.30592804e+03 5.22896703e+03 3.93289912e+01
v 6.30615639e+03 5.22910117e+03 3.93289972e+01
v 6.30703586e+03 5.22888570e+03 3.93290245e+01
v 6.30623769e+03 5.22921974e+03 3.93289989e+01
v 6.30585702e+03 5.22882628e+03 3.93289900e+01
v 6.30632118e+03 5.22972233e+03 3.93289983e+01
vt 0.070342094 0.81710976
vt 0.05129613 0.83746874
vt 0.040115379 0.81202042
vt 0.053163521 0.80071402
vt 0.085037544 0.83556366
vt 0.085851967 0.79591024
vt 0.10886402 0.82355547
vt 0.086600207 0.85877109
vt 0.065645099 0.78803962
vt 0.13244478 0.85006684
vt 0.0540266 0.862387
vt 0.048502028 0.77756512
vt 0.096396662 0.78223312
vt 0.13844681 0.81350344
vt 0.13195385 0.82956976
vt 0.070247255 0.87961465
vt 0.13099693 0.87821412
vt 0.085469842 0.76106334
vt 0.060251296 0.87594247
vt 0.038109649 0.76593751
vt 0.12592089 0.79713607
vt 0.14523382 0.7728135
vt 0.071077645 0.89263576
vt 0.054239638 0.74604285
vt 0.13338578 0.73253787
vt 0.13112463 0.91189981
vt 0.045994226 0.90324116
vt 0.14272821 0.74520415
vt 0.067260846 0.90946925
vt 0.094732158 0.72153723
vt 0.07772319 0.92456657
vt 0.059642944 0.93631917
vt 0.053753324 0.70981812
vt 0.14354947 0.7119559
vt 0.14092983 0.94502258
vt 0.041871779 0.92716485
vt 0.13128346 0.69960207
vt 0.037478719 0.95811647
vt 0.078906968 0.68680984
vt 0.10049778 0.96548033
vt 0.077254549 0.96922302
vt 0.052587189 0.67661268
vt 0.097767271 0.67558581
vt 0.059770081 0.97719592
vt 0.085357361 0.65784436
vt 0.10384825 0.9854961
vt 0.02207616 0.98079509
vt 0.12888205 0.65677881
vt 0.058925536 0.99192715
vt 0.022793796 0.99560863
vt 0.0084633809 0.97560781
vt 0.030946735 0.66587579
vt 0.10552966 0.63904864
vt 0.051901929 0.63332403
vt 0.066100493 0.61430043
vt 0.091903575 0.61247587
vt 0.047112055 0.61171782
vt 0.092881024 0.58593202
vt 0.14208205 0.6295433
vt 0.041470841 0.58846617
vt 0.14695041 0.60773492
vt 0.12291893 0.64077085
vt 0.13784733 0.57392299
vt 0.064685322 0.57456404
vt 0.070129745 0.55455279
vt 0.050270483 0.56588852
vt 0.10136206 0.54150045
vt 0.07334961 0.54206085
vt 0.1431338 0.53274488
vt 0.071528435 0.51291907
vt 0.11006375 0.52234554
vt 0.059144638 0.51720941
vt 0.14218992 0.52709657
vt 0.079164229 0.49041331
vt 0.10357119 0.50625205
vt 0.13823469 0.50505328
vt 0.050929077 0.49815071
vt 0.052603055 0.48058969
vt 0.14284424 0.47727221
vt 0.069718346 0.46300673
vt 0.078846499 0.46434575
vt 0.071045585 0.44485772
vt 0.066801354 0.46525258
vt 0.14203507 0.45327371
vt 0.10311417 0.43641239
vt 0.12768163 0.41672486
vt 0.066457771 0.41105908
vt 0.13990737 0.42499417
vt 0.13408123 0.40920877
vt 0.087679617 0.40185416
vt 0.087649107 0.3848455
vt 0.13933529 0.3876009
vt 0.05464603 0.36908382
vt 0.13460183 0.36280638
vt 0.077378251 0.34628522
vt 0.06017841 0.36297607
vt 0.13944003 0.34161508
vt 0.10933688 0.32324517
vt 0.1340822 0.31166565
vt 0.31870499 0.84193105
vt 0.284545 0.8278603
vt 0.30909467 0.81853759
vt 0.33752042 0.82725698
vt 0.29624593 0.84178764
vt 0.26977736 0.80748415
vt 0.34415272 0.85194039
vt 0.34994015 0.80547255
vt 0.2727432 0.87074333
vt 0.268235 0.81633294
vt 0.30024055 0.78956842
vt 0.33946198 0.8636958
vt 0.26667467 0.78517091
vt 0.36312848 0.86703354
vt 0.31839028 0.77193326
vt 0.33854648 0.87946451
vt 0.35932899 0.79463345
vt 0.31069344 0.89031208
vt 0.27949771 0.75576633
vt 0.37959847 0.87189776
vt 0.34311768 0.77052206
vt 0.36378944 0.89478791
vt 0.27506739 0.90015858
vt 0.26194715 0.75161719
vt 0.29616508 0.70846748
vt 0.35234505 0.76155269
vt 0.36733091 0.91873145
vt 0.31814325 0.90903372
vt 0.25747246 0.88220716
vt 0.26868635 0.73363435
vt 0.26555431 0.91119862
vt 0.34699723 0.72200817
vt 0.26504266 0.70820463
vt 0.36032009 0.94802833
vt 0.31590173 0.94635785
vt 0.32437333 0.68610615
vt 0.36869892 0.74309891
vt 0.28056467 0.68089199
vt 0.27550322 0.94946885
vt 0.35729745 0.70664674
vt 0.34331211 0.96528488
vt 0.28203818 0.96692574
vt 0.31953904 0.66122901
vt 0.33616081 0.67183304
vt 0.2696476 0.65643293
vt 0.31818724 0.97985774
vt 0.29742408 0.63477218
vt 0.3516877 0.98437631
vt 0.35896727 0.63328552
vt 0.28070471 0.63815242
vt 0.32851592 0.98762423
vt 0.2675007 0.6165778
vt 0.32778928 0.99599504
vt 0.36443174 0.61365068
vt 0.31355068 0.58184791
vt 0.27715167 0.58727658
vt 0.36483341 0.59181368
vt 0.30410182 0.55236351
vt 0.36777812 0.56961966
vt 0.34088847 0.53950995
vt 0.28830007 0.5649277
vt 0.36646673 0.55664319
vt 0.31906319 0.53530377
vt 0.35809919 0.54903919
vt 0.2746706 0.53515983
vt 0.34718952 0.51901662
vt 0.36783051 0.54303753
vt 0.30078796 0.50700188
vt 0.27690169 0.49422175
vt 0.34157938 0.5006392
vt 0.26752037 0.51538569
vt 0.31571525 0.48577625
vt 0.28216797 0.46324575
vt 0.34234026 0.48172396
vt 0.32967347 0.47251469
vt 0.2721647 0.44977671
vt 0.35886028 0.48592091
vt 0.32081211 0.46189046
vt 0.31451309 0.44604039
vt 0.35830036 0.4556284
vt 0.27817327 0.42239213
vt 0.3506889 0.4478668
vt 0.36208585 0.47024053
vt 0.30859393 0.41639638
vt 0.34781104 0.43514085
vt 0.37058899 0.45134258
vt 0.28995219 0.40122163
vt 0.35489026 0.39607465
vt 0.2740441 0.40457147
vt 0.36516652 0.41843623
vt 0.31583723 0.38102883
vt 0.27140921 0.39147079
vt 0.36154789 0.38325852
vt 0.37373438 0.39234442
vt 0.35535696 0.37772101
vt 0.28694332 0.37470144
vt 0.29663381 0.36139601
vt 0.36167306 0.37665009
vt 0.36386344 0.3789984
vt 0.34043875 0.36466795
vt 0.36289355 0.35463595
vt 0.35732549 0.37158197
vt 0.23789355 0.35463595
vt 0.23886345 0.3789984
vt 0.21543874 0.36466795
vt 0.19830297 0.7360425
vt 0.16076915 0.73956293
vt 0.16994461 0.70275843
vt 0.21740884 0.7065717
vt 0.1662862 0.76545858
vt 0.15761691 0.71884453
vt 0.20309268 0.68903303
vt 0.22127497 0.73286736
vt 0.22237346 0.7646091
vt 0.23376569 0.68095779
vt 0.16618054 0.68569946
vt 0.23021425 0.71854556
vt 0.23543662 0.749892
vt 0.23447101 0.78359354
vt 0.23437345 0.70540804
vt 0.15770912 0.80404496
vt 0.22527073 0.65292323
vt 0.23379877 0.81297565
vt 0.15662886 0.65246791
vt 0.23928836 0.63785583
vt 0.16697234 0.81829882
vt 0.17073826 0.85552472
vt 0.15498835 0.60829329
vt 0.23360854 0.86118412
vt 0.15504703 0.83758897
vt 0.22770411 0.61484957
vt 0.23081118 0.88379139
vt 0.23194212 0.59355736
vt 0.1675286 0.87144411
vt 0.16080089 0.59037375
vt 0.18032287 0.91593236
vt 0.16403797 0.57481003
vt 0.15503909 0.89706647
vt 0.22876993 0.90550166
vt 0.19495372 0.57459772
vt 0.16354829 0.93231201
vt 0.23198774 0.57414985
vt 0.20200107 0.94417524
vt 0.23289737 0.93803912
vt 0.14991482 0.9598999
vt 0.22678174 0.95461226
vt 0.19957174 0.98841393
vt 0.23662484 0.96162856
vt 0.1319558 0.97499132
vt 0.23090349 0.99312085
vt 0.16329883 0.99566269
vt 0.49761358 0.80016816
vt 0.45614579 0.80494821
vt 0.43780917 0.79628193
vt 0.48770821 0.78549576
vt 0.46940404 0.77694857
vt 0.39276683 0.77389765
vt 0.49054232 0.74799275
vt 0.39326224 0.75825566
vt 0.38739648 0.80336416
vt 0.45856947 0.76718938
vt 0.44603035 0.80665857
vt 0.42779493 0.74208879
vt 0.4265396 0.81156683
vt 0.48119843 0.7254371
vt 0.40262949 0.72171605
vt 0.46490279 0.81066519
vt 0.41002858 0.83429062
vt 0.38119081 0.73727643
vt 0.48429373 0.83431214
vt 0.38463539 0.82822251
vt 0.46534842 0.71189445
vt 0.39026526 0.71112758
vt 0.39005667 0.85636836
vt 0.4739359 0.86002934
vt 0.42891917 0.86129874
vt 0.41353232 0.69253755
vt 0.39090228 0.87841684
vt 0.4710353 0.87407541
vt 0.44375587 0.70071071
vt 0.38642693 0.68948549
vt 0.41277316 0.90192127
vt 0.47769478 0.90101242
vt 0.39425513 0.92631096
vt 0.49225408 0.89634138
vt 0.38271505 0.88522756
vt 0.43169332 0.91973042
vt 0.49468893 0.91193378
vt 0.45545998 0.93698275
vt 0.41999862 0.95270336
vt 0.3846131 0.96133059
vt 0.48420843 0.95238757
vt 0.48262691 0.93813187
vt 0.42905286 0.96705985
vt 0.3885898 0.98358822
vt 0.49522516 0.97416937
vt 0.44538021 0.98260617
vt 0.46554244 0.98007584
vt 0.42491099 0.99220586
vt 0.46552151 0.98961443
vt 0.40349913 0.99494094
vt 0.41671452 0.99533486
vt 0.16424501 0.29892874
vt 0.1009307 0.29880446
vt 0.16375676 0.29345596
vt 0.13614833 0.26936126
vt 0.092198506 0.26988089
vt 0.1585384 0.26509959
vt 0.071331799 0.30429065
vt 0.090877496 0.2110759
vt 0.12204506 0.23786294
vt 0.034630299 0.26471627
vt 0.064875036 0.23589641
vt 0.01028583 0.30776173
vt 0.067139618 0.2082867
vt 0.073786296 0.18578345
vt 0.093712837 0.19813955
vt 0.0071434714 0.17109919
vt 0.12052391 0.17114556
vt 0.11301208 0.14194572
vt 0.0066339104 0.13637203
vt 0.023778997 0.13376284
vt 0.01348872 0.11494583
vt 0.0082081724 0.10241002
vt 0.057884883 0.09392941
vt 0.01887092 0.074050903
vt 0.11671984 0.12263149
vt 0.063719906 0.076894999
vt 0.090359673 0.098439217
vt 0.37079367 0.17735785
vt 0.36834505 0.15138268
vt 0.38567331 0.18079835
vt 0.39452395 0.19199228
vt 0.29600167 0.15571457
vt 0.34755078 0.19718003
vt 0.30480111 0.1765132
vt 0.38310316 0.22400892
vt 0.2907832 0.19554681
vt 0.34788904 0.2171489
vt 0.32846525 0.24004441
vt 0.27680486 0.21320796
vt 0.36376461 0.26626003
vt 0.30856296 0.26229209
vt 0.27288511 0.24173313
vt 0.36861643 0.28555071
vt 0.31581056 0.30351949
vt 0.27551839 0.27346665
vt 0.28770536 0.29767668
vt 0.25836954 0.28378958
vt 0.26056823 0.30814868
vt 0.23153484 0.062344074
vt 0.23883489 0.048575163
vt 0.28263319 0.060729504
vt 0.23293167 0.082256913
vt 0.21270171 0.038655162
vt 0.25524843 0.035344779
vt 0.28603661 0.094582498
vt 0.19837719 0.089104176
vt 0.1995472 0.058935046
vt 0.28622687 0.036700487
vt 0.25923783 0.10036296
vt 0.16389282 0.077628613
vt 0.224758 0.10192263
vt 0.19311988 0.041329861
vt 0.21924403 0.032743752
vt 0.25691965 0.035196543
vt 0.30337849 0.12970746
vt 0.25522429 0.10910183
vt 0.13368541 0.10220402
vt 0.17590621 0.11620671
vt 0.17427221 0.05737412
vt 0.206834 0.032732666
vt 0.25516319 0.035118699
vt 0.14675909 0.079082549
vt 0.21657422 0.11652613
vt 0.1390456 0.057517588
vt 0.1667656 0.037671983
vt 0.19556314 0.033186615
vt 0.14351779 0.14599317
vt 0.20128816 0.14885211
vt 0.16700225 0.036678731
vt 0.18819925 0.033772707
vt 0.263832 0.15079677
vt 0.23091322 0.15250087
vt 0.16590035 0.036735713
vt 0.14125739 0.17107254
vt 0.23307243 0.17394191
vt 0.1390245 0.037713528
vt 0.16008401 0.18322468
vt 0.66804498 0.96779644
vt 0.6969384 0.9654274
vt 0.70660573 0.98499966
vt 0.68344593 0.99644947
vt 0.66481447 0.94880855
vt 0.77909452 0.96197122
vt 0.66328359 0.98015195
vt 0.62902409 0.94711041
vt 0.75012869 0.94673902
vt 0.61100018 0.95692074
vt 0.69864398 0.91716659
vt 0.71584392 0.92633814
vt 0.78357571 0.94963115
vt 0.62826741 0.97466624
vt 0.60792536 0.91933697
vt 0.5841229 0.94134313
vt 0.77771097 0.93540883
vt 0.60229045 0.96571863
vt 0.7287004 0.9206835
vt 0.63306928 0.91564107
vt 0.53852427 0.90960026
vt 0.5645479 0.9564085
vt 0.51099509 0.94423342
vt 0.50631493 0.93011606
vt 0.83204991 0.82400411
vt 0.84963107 0.83231658
vt 0.84473848 0.85067809
vt 0.80356532 0.88005149
vt 0.87502491 0.83101809
vt 0.76934373 0.87064826
vt 0.84161848 0.86920136
vt 0.85013926 0.80403656
vt 0.89844483 0.8558169
vt 0.78161818 0.89928603
vt 0.77028757 0.82669652
vt 0.91436219 0.88536453
vt 0.8296895 0.89274007
vt 0.79969716 0.80753964
vt 0.87811142 0.80372417
vt 0.91065204 0.82999635
vt 0.75605297 0.88384473
vt 0.86839271 0.89522821
vt 0.85131949 0.88933021
vt 0.89750755 0.81055236
vt 0.76221877 0.90459049
vt 0.77939552 0.92241061
vt 0.791471 0.81047171
vt 0.89245862 0.90790492
vt 0.81722796 0.92411065
vt 0.91065645 0.91225749
vt 0.85930926 0.91991067
vt 0.91008914 0.93306428
vt 0.61283559 0.86279798
vt 0.58159018 0.85843152
vt 0.6133377 0.83461869
vt 0.64689356 0.84136045
vt 0.57326245 0.87132633
vt 0.55593538 0.84387219
vt 0.63511252 0.8208158
vt 0.65183544 0.85591549
vt 0.63664782 0.87141472
vt 0.58163399 0.83339548
vt 0.60422814 0.81290823
vt 0.66538239 0.84234846
vt 0.52527064 0.86585897
vt 0.57416278 0.82033193
vt 0.6227631 0.79902756
vt 0.66766834 0.83295673
vt 0.52377945 0.844531
vt 0.53176081 0.80943781
vt 0.55707306 0.7984702
vt 0.67065954 0.80815172
vt 0.51857257 0.82699722
vt 0.58315849 0.79150319
vt 0.67037392 0.77041161
vt 0.50848114 0.78443527
vt 0.55117953 0.77036643
vt 0.60229665 0.78447586
vt 0.61797154 0.77008736
vt 0.6298874 0.74718225
vt 0.54463106 0.75228167
vt 0.58848315 0.75003439
vt 0.51323432 0.75438476
vt 0.52106357 0.71599281
vt 0.5731681 0.7028532
vt 0.55477977 0.73753291
vt 0.50916499 0.73294187
vt 0.54560035 0.68632853
vt 0.58041513 0.7387864
vt 0.5707255 0.6682055
vt 0.62037849 0.7037738
vt 0.58269399 0.66017544
vt 0.63086796 0.74455053
vt 0.57539636 0.64684153
vt 0.61230868 0.65261692
vt 0.66965973 0.73422587
vt 0.5996182 0.64424741
vt 0.67934978 0.67656451
vt 0.65285206 0.74643862
vt 0.68303525 0.70678926
vt 0.62779874 0.62561673
vt 0.66682589 0.65120149
vt 0.67126298 0.74171853
vt 0.72542107 0.74602759
vt 0.87331825 0.69390428
vt 0.83061171 0.70962262
vt 0.78752202 0.70290071
vt 0.82481188 0.67770064
vt 0.87543541 0.72303319
vt 0.75983953 0.73516476
vt 0.8584801 0.66373992
vt 0.85581172 0.72931129
vt 0.90531039 0.71494901
vt 0.75756538 0.72897804
vt 0.81688565 0.7353214
vt 0.87489486 0.66706324
vt 0.86947662 0.74400389
vt 0.85762274 0.74652302
vt 0.91008312 0.70674843
vt 0.94252938 0.72832
vt 0.89155495 0.67708898
vt 0.91580492 0.68778265
vt 0.95228773 0.70663887
vt 0.92586344 0.65677226
vt 0.9194712 0.67288768
vt 0.90723717 0.64345086
vt 0.9520126 0.67205942
vt 0.96905041 0.65598929
vt 0.96961212 0.66654795
vt 0.96989989 0.67567939
vt 0.98372167 0.67462862
vt 0.92586344 0.90677226
vt 0.96905041 0.90598929
vt 0.96901965 0.92541313
vt 0.96989989 0.92567939
vt 0.54873729 0.56022191
vt 0.55787414 0.56550527
vt 0.53173804 0.58282787
vt 0.47234032 0.56550133
vt 0.5800311 0.5843454
vt 0.46301901 0.58083832
vt 0.4907392 0.54245734
vt 0.52894229 0.59718966
vt 0.59609801 0.58012742
vt 0.45825425 0.61389476
vt 0.49106869 0.53588486
vt 0.50697917 0.54253423
vt 0.49103266 0.60509706
vt 0.43910787 0.59378189
vt 0.3957676 0.60740185
vt 0.39570943 0.58230209
vt 0.47157949 0.62048185
vt 0.384431 0.60064173
vt 0.73996758 0.87738526
vt 0.7438212 0.89540309
vt 0.70812774 0.88176942
vt 0.71523035 0.86008114
vt 0.70929319 0.89379585
vt 0.73283124 0.86120427
vt 0.72653639 0.91795003
vt 0.73007905 0.83692473
vt 0.70078391 0.83483636
vt 0.74781287 0.84375417
vt 0.69701391 0.82663584
vt 0.72086716 0.82515818
vt 0.71765095 0.81275654
vt 0.69659114 0.58797634
vt 0.68066347 0.56700313
vt 0.72270286 0.55838615
vt 0.73822969 0.58963084
vt 0.63229465 0.59199899
vt 0.66596431 0.56454921
vt 0.75437903 0.57530791
vt 0.7371133 0.610901
vt 0.6999557 0.55780244
vt 0.77380079 0.569502
vt 0.77315032 0.59495997
vt 0.75796843 0.60913604
vt 0.6557495 0.61490381
vt 0.7595728 0.54247224
vt 0.78138834 0.6061821
vt 0.75908583 0.62064278
vt 0.79572916 0.59361267
vt 0.78855741 0.60201412
vt 0.77921879 0.61474538
vt 0.83698231 0.59897512
vt 0.81972742 0.5861814
vt 0.39448491 0.46158737
vt 0.39204678 0.47826111
vt 0.38289967 0.4953599
vt 0.45437798 0.47657251
vt 0.41102752 0.48941457
vt 0.43205577 0.48684859
vt 0.42465487 0.43492407
vt 0.44711524 0.48760927
vt 0.39939424 0.4305259
vt 0.47031176 0.4656626
vt 0.47060156 0.48605907
vt 0.46563828 0.41443789
vt 0.46187514 0.44520426
vt 0.40566257 0.40935147
vt 0.48894179 0.43935281
vt 0.49642262 0.48023969
vt 0.44560409 0.4053331
vt 0.39709565 0.40979868
vt 0.46655679 0.40230322
vt 0.38946185 0.40858775
vt 0.48817882 0.40752715
vt 0.47410169 0.40193897
vt 0.48839858 0.40230286
vt 0.49844247 0.42185229
vt 0.57145768 0.49628609
vt 0.59150922 0.48823535
vt 0.61562252 0.48485029
vt 0.60604423 0.47244596
vt 0.55193108 0.46330029
vt 0.63968766 0.48253995
vt 0.51807618 0.4882338
vt 0.6415906 0.46320486
vt 0.51551455 0.45954561
vt 0.61530966 0.43158567
vt 0.53919047 0.43592322
vt 0.50910521 0.46911716
vt 0.52711666 0.42928565
vt 0.54590446 0.42046517
vt 0.57847589 0.41178632
vt 0.53106284 0.41802299
vt 0.6293453 0.40680391
vt 0.81939018 0.96814775
vt 0.84000283 0.94459325
vt 0.83161747 0.97632974
vt 0.86679631 0.92241448
vt 0.86888355 0.96111441
vt 0.84671134 0.92589378
vt 0.88185817 0.99616814
vt 0.8441633 0.99587011
vt 0.9471432 0.81241488
vt 0.94733983 0.79055661
vt 0.97299272 0.81654119
vt 0.97279757 0.83911729
vt 0.88127482 0.7777887
vt 0.92164344 0.81160814
vt 0.92672813 0.76775831
vt 0.95845515 0.77580553
vt 0.88376629 0.99702442
vt 0.90404916 0.98311043
vt 0.92137909 0.9954018
vt 0.88718402 0.97508836
vt 0.92655504 0.97548449
vt 0.91543978 0.94712019
vt 0.88711029 0.95059222
vt 0.89850736 0.93620396
vt 0.91880786 0.93151838
vt 0.93177134 0.93695915
vt 0.78806102 0.75983816
vt 0.77426267 0.74569094
vt 0.83345288 0.75259793
vt 0.82699013 0.7712006
vt 0.76700234 0.75086153
vt 0.80826688 0.79009223
vt 0.77233595 0.76961952
vt 0.75590658 0.78943056
vt 0.75779098 0.80918753
vt 0.76180023 0.7616359
vt 0.80811369 0.80072033
vt 0.41437674 0.62991357
vt 0.4701629 0.63068223
vt 0.38416645 0.6342057
vt 0.4033407 0.64350271
vt 0.48971495 0.66414016
vt 0.41627991 0.65813708
vt 0.50017345 0.64641893
vt 0.41948971 0.67672002
vt 0.4991748 0.66928089
vt 0.39497778 0.67451334
vt 0.45062974 0.6842159
vt 0.48677757 0.68390554
vt 0.061332211 0.868415
vt 0.049234942 0.88862002
vt 0.041478243 0.86686784
vt 0.022360031 0.8782928
vt 0.0073751295 0.87094265
vt 0.026464673 0.8906489
vt 0.027449431 0.86070603
vt 0.051949728 0.90284783
vt 0.0081347069 0.849599
vt 0.026258139 0.85121632
vt 0.78829211 0.95987612
vt 0.79615867 0.94295037
vt 0.81683022 0.97033417
vt 0.78969479 0.97649133
vt 0.82146466 0.95197499
vt 0.81665742 0.99704134
vt 0.37267843 0.97838116
vt 0.37647244 0.97545624
vt 0.38602415 0.97646761
vt 0.35070619 0.99575293
vt 0.36456627 0.95173186
vt 0.38072667 0.96981847
vt 0.53124267 0.9830209
vt 0.50694519 0.98200929
vt 0.53212708 0.95389229
vt 0.53304642 0.99600059
vt 0.13655959 0.99568069
vt 0.11775464 0.96478713
vt 0.11892444 0.9552654
vt 0.54586464 0.87242424
vt 0.55115116 0.89748913
vt 0.50789124 0.87594652
vt 0.57084638 0.9027406
vt 0.52419639 0.90034211
vt 0.58071178 0.87868315
vt 0.55394357 0.99543184
vt 0.54808646 0.97117364
vt 0.55621994 0.97638023
vt 0.56531066 0.9928714
vt 0.53929538 0.99100745
vt 0.56317294 0.95959812
vt 0.9618094 0.97730374
vt 0.96190917 0.99670118
vt 0.94557238 0.96124685
vt 0.96789634 0.9592424
vt 0.94766015 0.98948407
vt 0.63164699 0.9029755
vt 0.63676465 0.88150597
vt 0.65004247 0.88472128
vt 0.67865676 0.8674711
vt 0.69909841 0.87222391
vt 0.61450565 0.98790461
vt 0.63067615 0.99659872
vt 0.61737067 0.99256676
vt 0.56949115 0.97065187
vt 0.63242614 0.98635799
vt 0.58974373 0.97409177
vt 0.6088714 0.98936492
vt 0.77566922 0.98650187
vt 0.76728815 0.97672933
vt 0.79345393 0.99681443
vt 0.75629503 0.96992588
vt 0.78010911 0.96922481
vt 0.73382181 0.99586558
vt 0.72552866 0.98249668
vt 0.75930756 0.97414482
vt 0.78038853 0.99608058
vt 0.2764605 0.9824208
vt 0.23777899 0.98106271
vt 0.23492196 0.97890425
vt 0.23115271 0.97550398
vt 0.22752723 0.99603528
vt 0.94526267 0.94962358
vt 0.94459009 0.94007587
vt 0.99129325 0.92981672
vt 0.481803 0.98055786
vt 0.50184035 0.97255367
vt 0.48216721 0.99563289
vt 0.47730792 0.98637402
vt 0.043842696 0.91215569
vt 0.043449961 0.93293273
vt 0.017395142 0.9326998
vt 0.0066835755 0.92191732
vt 0.39451355 0.97797483
vt 0.35588384 0.99633121
vt 0.350357 0.99489868
vt 0.66725284 0.99688983
vt 0.63798738 0.98596728
vt 0.64376348 0.98079062
vt 0.66388249 0.98068541
vt 0.63423866 0.98075742
vt 0.063913167 0.9946413
vt 0.062808022 0.99514902
vt 0.047694791 0.99517077
usemtl Tile_+032_+021_L20_0002200_0
f 396/555 411/556 399/557
f 399/557 411/556 397/560
f 397/560 411/556 394/559
f 409/302 410/303 406/304
f 410/563 399/557 397/560
f 399/557 410/563 409/568
f 135/493 301/494 408/495
f 299/564 300/561 399/557
f 301/494 299/503 409/498
f 113/309 114/310 407/305
f 410/303 397/308 27/306
f 408/495 114/496 135/493
f 299/564 139/565 300/561
f 409/498 406/502 408/495
f 409/568 299/564 399/557
f 410/303 407/305 406/304
f 27/306 407/305 410/303
f 408/307 407/305 114/310
f 407/305 408/307 406/304
f 408/495 301/494 409/498
f 407/305 27/306 113/309
f 152/350 403/351 391/352
f 132/354 403/351 152/350
f 404/666 60/667 43/668
f 252/251 262/252 246/253
f 281/413 285/414 256/415
f 122/322 296/324 157/319
f 317/441 329/442 287/443
f 287/443 290/444 317/441
f 340/320 362/321 157/319
f 32/469 276/470 279/465
f 27/306 397/308 29/311
f 355/389 374/390 395/391
f 303/558 311/566 395/562
f 192/600 363/601 338/602
f 206/524 161/525 194/526
f 337/404 356/398 343/406
f 215/712 216/713 219/714
f 19/283 245/289 244/290
f 296/324 122/322 26/325
f 127/1 328/2 280/3
f 94/298 219/301 239/300
f 217/717 239/718 219/719
f 273/542 265/543 269/544
f 24/267 267/275 68/273
f 383/654 36/655 385/656
f 402/362 388/353 384/367
f 209/100 210/101 284/102
f 198/205 261/206 365/207
f 6/701 180/702 183/703
f 168/388 59/385 182/386
f 167/217 150/213 198/205
f 19/283 260/286 99/288
f 244/290 245/289 143/293
f 14/421 282/417 166/428
f 375/472 125/473 368/474
f 113/309 27/306 28/312
f 138/145 203/141 326/140
f 395/562 311/566 346/570
f 395/391 346/392 355/389
f 322/480 125/473 324/478
f 368/474 369/475 375/472
f 25/446 288/450 287/443
f 347/395 355/389 346/392
f 253/547 257/549 381/551
f 372/397 353/393 371/400
f 213/142 233/143 15/135
f 339/106 341/113 241/111
f 327/44 324/46 344/49
f 370/481 124/479 393/484
f 395/562 396/555 303/558
f 46/86 240/90 271/89
f 41/576 42/577 385/578
f 19/283 99/288 245/289
f 412/371 131/363 413/377
f 59/219 178/208 58/214
f 58/214 61/221 149/224
f 73/161 10/158 171/154
f 60/215 405/211 365/207
f 376/752 389/753 414/754
f 63/227 149/224 404/223
f 377/230 63/227 155/232
f 49/582 50/587 400/588
f 62/585 63/590 404/591
f 37/671 48/669 60/667
f 391/584 49/582 41/576
f 62/585 43/586 40/579
f 149/224 61/221 404/223
f 149/368 377/373 153/361
f 365/662 35/658 37/660
f 60/667 365/673 37/671
f 156/376 131/363 401/370
f 405/211 58/214 178/208
f 148/369 151/374 51/379
f 51/379 182/386 59/385
f 151/374 385/366 387/382
f 387/98 378/99 38/97
f 182/386 52/383 387/382
f 386/360 41/356 385/366
f 388/353 402/362 154/357
f 148/369 149/368 154/357
f 384/367 151/374 402/362
f 154/357 402/362 148/369
f 153/361 401/370 390/358
f 392/355 132/354 416/364
f 152/350 388/353 154/357
f 419/384 155/375 420/387
f 153/361 155/375 401/370
f 42/577 379/581 383/580
f 423/359 392/355 424/365
f 50/587 49/582 391/584
f 425/598 50/587 426/597
f 385/578 42/577 383/580
f 41/356 386/360 388/353
f 41/356 388/353 391/352
f 131/363 132/354 390/358
f 50/587 389/596 63/590
f 155/375 156/376 401/370
f 392/355 391/352 403/351
f 38/97 182/95 387/98
f 383/674 379/675 380/672
f 36/670 383/674 380/672
f 384/367 386/360 385/366
f 385/366 151/374 384/367
f 378/657 387/659 385/656
f 23/263 247/261 382/266
f 43/586 380/583 40/579
f 251/79 180/81 238/84
f 253/226 381/229 252/225
f 379/581 40/579 380/583
f 378/657 35/658 39/661
f 365/662 272/665 35/658
f 63/227 376/234 155/232
f 63/227 377/230 149/224
f 63/590 400/588 50/587
f 43/668 60/667 48/669
f 279/465 66/464 32/469
f 301/494 135/493 313/497
f 349/633 350/634 351/635
f 303/558 396/555 399/557
f 304/637 350/634 306/638
f 330/537 334/533 312/538
f 353/393 372/397 374/390
f 314/569 311/566 303/558
f 394/559 396/555 395/562
f 373/491 398/487 393/484
f 411/556 396/555 394/559
f 21/445 329/442 317/441
f 331/508 315/501 170/511
f 357/625 348/626 345/627
f 397/308 394/313 29/311
f 395/391 374/390 373/394
f 373/567 394/559 395/562
f 331/529 194/526 334/533
f 394/492 373/491 393/484
f 394/492 393/484 29/488
f 258/269 23/263 382/266
f 26/453 224/457 25/446
f 375/607 366/603 193/604
f 320/609 344/614 324/616
f 157/319 295/318 298/315
f 122/322 362/321 340/320
f 325/38 318/32 359/41
f 104/25 66/22 228/18
f 234/33 221/39 222/37
f 294/317 340/320 157/319
f 228/18 227/24 104/25
f 281/413 94/426 218/420
f 290/444 86/452 210/448
f 317/441 290/444 210/448
f 280/107 205/110 197/114
f 254/235 265/237 273/233
f 78/695 89/696 83/697
f 370/481 141/477 124/479
f 130/277 267/275 259/281
f 326/51 364/47 120/50
f 370/481 393/484 398/487
f 336/402 343/406 356/398
f 343/406 214/410 337/404
f 357/625 352/630 336/629
f 24/267 251/270 238/259
f 340/26 361/29 367/23
f 325/133 146/134 117/127
f 325/38 319/36 318/32
f 145/8 123/17 342/16
f 270/256 271/258 263/255
f 318/32 360/31 294/35
f 322/480 323/482 358/485
f 375/472 320/476 125/473
f 368/399 371/400 353/393
f 374/390 372/397 373/394
f 370/405 398/401 372/397
f 372/397 398/401 373/394
f 306/638 345/636 348/639
f 368/399 141/407 371/400
f 370/405 372/397 371/400
f 370/405 371/400 141/407
f 366/603 375/607 369/605
f 343/536 336/540 334/533
f 310/724 307/725 306/726
f 160/528 214/531 194/526
f 354/396 356/398 337/404
f 338/403 369/408 368/399
f 353/393 354/396 368/399
f 363/601 366/603 338/602
f 369/605 338/602 366/603
f 338/403 354/396 337/404
f 321/27 367/23 361/29
f 123/17 367/23 342/16
f 361/29 318/32 321/27
f 327/44 364/47 325/38
f 318/32 323/40 359/41
f 363/601 192/600 366/603
f 344/614 320/609 120/613
f 161/611 206/608 191/606
f 194/526 343/536 334/533
f 342/16 367/23 321/27
f 339/11 145/8 342/16
f 192/600 193/604 366/603
f 342/119 321/121 184/115
f 123/323 122/322 340/320
f 209/100 328/103 339/106
f 332/617 333/618 335/619
f 338/403 337/404 192/409
f 334/622 336/620 333/618
f 335/619 333/618 336/620
f 194/526 214/531 343/536
f 145/8 339/11 328/2
f 344/49 120/50 327/44
f 364/47 327/44 120/50
f 30/329 31/330 185/331
f 325/133 326/140 146/134
f 342/16 341/19 339/11
f 117/127 208/117 319/126
f 124/479 108/483 28/486
f 322/480 324/478 323/482
f 241/111 209/100 339/106
f 208/117 321/121 319/126
f 319/126 325/133 117/127
f 321/121 208/117 184/115
f 320/609 211/610 120/613
f 325/38 364/47 326/51
f 241/111 341/113 184/115
f 321/27 318/32 319/36
f 184/115 341/113 342/119
f 122/322 123/323 26/325
f 128/7 224/15 26/10
f 144/5 128/7 26/10
f 340/26 360/31 361/29
f 361/29 360/31 318/32
f 367/23 123/17 340/26
f 294/35 323/40 318/32
f 294/489 358/485 323/482
f 359/41 324/46 327/44
f 108/483 322/480 358/485
f 203/514 116/512 293/504
f 330/537 312/538 314/541
f 330/537 331/529 334/533
f 357/625 336/629 348/626
f 355/389 353/393 374/390
f 355/389 347/395 356/398
f 356/398 347/395 336/402
f 353/393 355/389 354/396
f 309/643 312/644 334/645
f 335/619 352/621 349/623
f 351/624 335/619 349/623
f 336/620 352/621 335/619
f 351/635 350/634 304/637
f 351/651 304/650 332/648
f 349/633 345/636 350/634
f 349/628 357/625 345/627
f 331/529 330/537 308/539
f 352/630 357/625 349/628
f 309/643 333/646 332/648
f 139/565 314/569 303/558
f 303/558 300/561 139/565
f 308/505 313/497 331/508
f 140/571 302/575 308/574
f 346/640 306/638 348/639
f 346/632 348/626 347/631
f 336/629 347/631 348/626
f 295/343 291/342 112/346
f 332/648 305/649 309/643
f 306/638 346/640 312/641
f 332/648 335/653 351/651
f 350/634 345/636 306/638
f 334/645 333/646 309/643
f 140/727 307/725 310/724
f 118/336 212/341 292/339
f 139/565 307/572 314/569
f 135/493 315/501 313/497
f 313/497 302/500 301/494
f 308/539 330/537 314/541
f 310/642 306/638 312/641
f 312/644 309/643 310/647
f 308/505 302/500 313/497
f 310/707 305/708 139/709
f 346/570 311/566 312/573
f 305/649 310/647 309/643
f 314/569 307/572 308/574
f 308/574 307/572 140/571
f 305/708 306/711 139/709
f 306/652 305/649 304/650
f 332/648 304/650 305/649
f 399/557 300/561 303/558
f 30/329 207/334 297/337
f 315/501 316/507 170/511
f 301/494 302/500 140/506
f 140/571 139/565 299/564
f 299/503 301/494 140/506
f 296/324 22/328 297/326
f 295/343 157/340 292/339
f 112/316 113/309 298/315
f 298/315 295/318 112/316
f 30/329 297/337 22/335
f 157/340 297/337 201/338
f 297/337 207/334 201/338
f 297/326 157/319 296/324
f 91/454 288/450 25/446
f 135/493 114/496 111/499
f 292/339 157/340 201/338
f 293/345 291/342 203/344
f 291/342 292/339 212/341
f 87/447 290/444 287/443
f 284/102 92/105 205/110
f 210/101 92/105 284/102
f 212/341 203/344 291/342
f 31/449 317/441 210/448
f 170/511 316/507 134/510
f 129/517 137/515 115/513
f 316/507 315/501 135/493
f 292/339 291/342 295/343
f 294/317 298/315 107/314
f 293/504 116/512 136/509
f 294/489 108/483 358/485
f 293/345 111/347 112/346
f 225/461 91/454 224/457
f 25/446 224/457 91/454
f 232/45 233/42 213/52
f 217/717 216/721 239/718
f 281/413 215/423 94/426
f 279/465 275/466 289/462
f 279/465 289/462 105/459
f 106/455 289/462 275/466
f 102/422 104/433 223/429
f 142/722 217/717 94/723
f 133/425 102/422 101/416
f 99/288 84/291 245/289
f 103/30 234/33 222/37
f 283/297 142/296 143/293
f 98/424 242/430 100/419
f 256/415 285/414 282/417
f 222/37 220/43 232/45
f 245/289 84/291 143/293
f 263/255 274/260 250/257
f 222/418 215/423 281/413
f 226/9 231/12 228/18
f 287/443 329/442 25/446
f 227/136 230/125 243/131
f 106/455 87/447 90/451
f 147/738 129/739 116/740
f 116/520 138/521 147/522
f 2/245 109/247 16/249
f 278/439 202/436 200/440
f 100/419 256/415 98/424
f 256/415 14/421 98/424
f 89/696 78/695 88/698
f 109/155 171/154 16/151
f 83/295 283/297 143/293
f 275/466 279/465 276/470
f 93/460 87/447 106/455
f 106/455 200/463 93/460
f 242/430 202/436 278/439
f 100/419 133/425 101/416
f 286/467 275/466 276/470
f 253/226 255/231 273/233
f 282/417 218/420 89/427
f 281/413 256/415 101/416
f 142/296 283/297 218/299
f 89/696 218/699 83/697
f 106/455 286/467 200/463
f 286/467 278/468 200/463
f 242/430 277/431 100/419
f 100/419 277/431 133/425
f 133/425 277/431 242/430
f 287/443 90/451 87/447
f 286/467 106/455 275/466
f 283/297 83/295 218/299
f 276/437 133/425 278/439
f 278/439 133/425 242/430
f 287/443 288/450 91/454
f 91/454 90/451 287/443
f 278/468 286/467 276/470
f 282/417 285/414 281/413
f 267/275 268/282 259/281
f 266/287 85/292 99/288
f 249/254 263/255 250/257
f 238/259 270/256 246/253
f 254/548 264/546 265/543
f 252/745 381/746 257/747
f 267/275 264/278 268/282
f 249/220 13/218 18/222
f 261/206 272/210 365/207
f 162/228 255/231 253/226
f 178/208 80/212 198/205
f 252/251 246/253 249/254
f 16/249 78/246 2/245
f 247/552 262/553 257/549
f 382/550 247/552 257/549
f 266/240 254/235 163/238
f 44/676 248/677 261/678
f 85/244 266/240 79/242
f 269/544 265/543 264/546
f 68/76 55/75 251/79
f 196/128 195/122 118/130
f 257/747 262/748 252/745
f 250/681 56/679 261/678
f 250/209 261/206 198/205
f 257/549 253/547 258/545
f 168/196 188/194 74/190
f 273/233 255/231 254/235
f 118/130 195/122 117/127
f 253/226 18/222 162/228
f 18/222 253/226 252/225
f 71/74 180/81 251/79
f 247/261 23/263 238/259
f 249/220 250/209 13/218
f 11/91 76/92 240/90
f 38/97 45/94 182/95
f 246/554 262/553 247/552
f 365/207 178/208 198/205
f 271/258 57/262 274/260
f 243/131 234/139 227/136
f 263/255 249/254 246/253
f 258/545 253/547 273/542
f 269/544 258/545 273/542
f 254/284 266/287 268/282
f 268/282 266/287 260/286
f 248/664 35/658 272/665
f 99/288 260/286 266/287
f 261/678 56/679 44/676
f 238/259 246/253 247/261
f 56/264 77/265 44/271
f 77/265 57/262 271/258
f 76/268 77/265 271/258
f 263/255 246/253 270/256
f 55/75 71/74 251/79
f 251/270 24/267 68/273
f 24/267 258/269 269/274
f 182/95 45/94 188/93
f 250/257 274/260 57/262
f 7/77 71/74 82/72
f 73/65 67/67 19/63
f 130/73 20/69 54/71
f 238/84 237/85 46/86
f 238/84 46/86 270/88
f 182/200 175/199 168/196
f 76/92 271/89 240/90
f 76/92 11/91 188/93
f 168/196 175/199 188/194
f 174/201 188/194 175/199
f 71/74 53/70 82/72
f 188/93 174/96 182/95
f 150/188 167/191 75/186
f 171/154 189/156 204/153
f 9/64 72/58 189/60
f 240/90 47/87 11/91
f 46/86 47/87 240/90
f 158/688 69/689 82/690
f 180/81 187/80 159/82
f 237/85 180/81 159/82
f 172/177 186/181 190/179
f 94/298 239/300 95/294
f 68/76 130/73 54/71
f 237/85 238/84 180/81
f 236/56 235/55 72/58
f 72/58 73/65 19/63
f 232/45 17/54 216/53
f 235/55 236/56 216/53
f 233/42 221/39 234/33
f 231/12 230/20 228/18
f 328/103 284/102 280/107
f 126/6 127/1 229/4
f 229/4 226/9 126/6
f 228/18 65/13 226/9
f 126/6 65/13 225/14
f 128/7 225/14 224/15
f 102/422 223/429 222/418
f 66/464 105/459 96/458
f 142/722 216/721 217/717
f 220/43 222/37 221/39
f 219/719 218/720 217/717
f 218/749 94/750 217/751
f 232/45 216/53 215/48
f 220/43 221/39 233/42
f 236/56 95/59 216/53
f 95/59 239/62 216/53
f 127/1 280/3 229/4
f 142/715 219/714 216/713
f 219/714 142/715 218/716
f 104/25 103/30 223/34
f 222/37 223/34 103/30
f 96/21 225/14 65/13
f 280/107 284/102 205/110
f 208/117 117/127 195/122
f 234/139 243/131 15/135
f 15/135 243/131 173/124
f 172/177 64/172 12/178
f 202/436 242/430 98/424
f 15/135 14/137 213/142
f 229/116 280/107 197/114
f 230/125 231/120 197/114
f 231/12 226/9 229/4
f 209/100 241/111 185/108
f 185/108 31/104 209/100
f 197/114 231/120 229/116
f 230/125 197/114 173/124
f 82/165 121/162 163/164
f 17/54 232/45 213/52
f 230/20 227/24 228/18
f 173/124 243/131 230/125
f 190/179 159/185 183/182
f 235/55 204/57 189/60
f 216/53 17/54 235/55
f 17/54 204/57 235/55
f 234/33 103/30 227/24
f 189/60 72/58 235/55
f 233/42 232/45 220/43
f 15/135 233/143 234/139
f 110/157 121/162 81/159
f 110/157 81/159 171/154
f 165/146 88/149 16/151
f 17/148 213/142 165/146
f 171/154 81/159 70/163
f 69/689 158/688 73/691
f 7/77 179/78 71/74
f 82/72 53/70 158/68
f 8/733 183/734 187/735
f 12/178 181/184 186/181
f 189/156 171/154 10/158
f 176/682 177/683 188/684
f 187/80 71/74 179/78
f 187/735 183/734 71/737
f 182/686 177/683 176/682
f 180/81 71/74 183/83
f 11/685 176/682 188/684
f 159/706 179/704 183/703
f 181/184 47/189 159/185
f 6/701 8/705 180/702
f 179/704 6/701 183/703
f 178/208 59/219 168/216
f 3/192 188/194 177/197
f 182/686 174/687 177/683
f 182/202 176/203 175/204
f 176/198 3/192 175/199
f 174/741 175/742 3/743
f 177/744 174/741 3/743
f 11/193 3/192 176/198
f 173/124 98/132 14/137
f 159/185 186/181 181/184
f 34/183 13/180 75/186
f 190/179 8/174 172/177
f 172/177 12/178 186/181
f 6/173 179/176 7/169
f 159/185 190/179 186/181
f 187/735 180/736 8/733
f 8/174 190/179 183/182
f 70/163 73/161 171/154
f 69/166 70/163 81/159
f 5/171 162/168 64/172
f 11/193 47/189 4/187
f 170/527 129/534 147/530
f 170/692 169/693 129/694
f 188/194 3/192 74/190
f 80/212 178/208 168/216
f 80/195 74/190 167/191
f 5/171 7/169 164/167
f 172/177 8/174 64/172
f 213/142 166/144 165/146
f 203/141 146/134 326/140
f 162/168 164/167 163/164
f 164/167 82/165 163/164
f 16/700 88/698 78/695
f 162/168 18/175 64/172
f 211/610 320/609 193/604
f 30/329 185/331 196/332
f 86/109 92/105 210/101
f 74/190 75/186 167/191
f 203/141 212/138 146/134
f 206/608 119/612 211/610
f 31/104 210/101 209/100
f 184/115 208/117 185/108
f 195/122 185/108 208/117
f 196/332 118/336 207/334
f 170/527 147/530 206/524
f 169/523 147/522 138/521
f 137/515 169/518 170/511
f 211/610 193/604 206/608
f 92/105 93/112 205/110
f 181/184 12/178 34/183
f 1/243 79/242 163/238
f 16/151 171/154 204/153
f 200/123 199/118 93/112
f 203/514 138/516 116/512
f 200/440 202/436 97/438
f 200/123 97/129 199/118
f 97/129 173/124 199/118
f 197/114 199/118 173/124
f 97/438 202/436 98/424
f 292/339 201/338 118/336
f 196/332 207/334 30/329
f 255/231 163/238 254/235
f 167/217 198/205 80/212
f 256/415 282/417 14/421
f 118/336 201/338 207/334
f 93/112 199/118 197/114
f 196/128 185/108 195/122
f 191/606 193/604 192/600
f 194/526 331/529 170/527
f 194/526 170/527 206/524
f 214/410 160/411 337/404
f 191/412 192/409 160/411
f 194/526 161/525 160/528
f 191/532 160/528 161/525
f 192/409 337/404 160/411
f 137/515 129/517 119/519
f 119/519 169/518 137/515
f 112/346 291/342 293/345
f 158/68 53/70 67/67
f 157/319 362/321 122/322
f 119/535 206/524 147/530
f 147/757 169/758 119/759
f 212/138 118/130 146/134
f 135/493 293/504 136/509
f 145/8 26/10 123/17
f 26/10 145/8 144/5
f 127/1 128/7 144/5
f 104/25 33/28 66/22
f 271/89 270/88 46/86
f 82/165 164/167 7/169
f 252/225 249/220 18/222
f 254/284 268/282 264/278
f 95/294 143/293 142/296
f 95/294 244/290 143/293
f 111/499 293/504 135/493
f 141/477 368/474 125/473
f 108/483 107/490 28/486
f 107/314 113/309 28/312
f 138/145 326/140 120/147
f 320/476 324/478 125/473
f 134/510 115/513 137/515
f 134/510 136/509 115/513
f 170/511 134/510 137/515
f 134/510 316/507 135/493
f 102/422 133/425 32/434
f 124/479 141/477 125/473
f 73/65 158/68 67/67
f 77/265 45/272 44/271
f 282/417 88/432 166/428
f 58/378 148/369 51/379
f 131/363 156/376 418/380
f 152/350 154/357 153/361
f 151/374 387/382 52/383
f 13/180 150/188 75/186
f 148/369 58/378 149/368
f 178/208 365/207 405/211
f 400/588 62/585 49/582
f 62/585 400/588 63/590
f 62/585 404/591 43/586
f 60/215 404/223 61/221
f 61/221 58/214 60/215
f 59/385 58/378 51/379
f 58/214 405/211 60/215
f 390/358 152/350 153/361
f 56/264 250/257 57/262
f 53/70 55/75 54/71
f 151/374 52/383 51/379
f 149/368 153/361 154/357
f 182/386 51/379 52/383
f 378/657 385/656 36/655
f 377/373 155/375 153/361
f 151/374 148/369 402/362
f 391/352 388/353 152/350
f 152/350 390/358 132/354
f 155/232 376/234 415/236
f 50/587 391/584 422/589
f 392/355 403/351 132/354
f 131/363 390/358 401/370
f 46/86 237/85 47/87
f 388/353 386/360 384/367
f 49/582 62/585 40/579
f 44/271 45/272 39/276
f 36/670 380/672 43/668
f 42/577 40/579 379/581
f 42/577 41/576 40/579
f 378/657 39/661 38/663
f 41/576 49/582 40/579
f 36/670 48/669 37/671
f 36/655 35/658 378/657
f 248/664 39/661 35/658
f 43/668 48/669 36/670
f 47/189 34/183 4/187
f 389/596 376/599 63/590
f 66/464 33/471 32/469
f 298/315 294/317 157/319
f 79/242 266/240 163/238
f 354/396 355/389 356/398
f 21/445 317/441 31/449
f 31/330 30/329 21/333
f 14/137 166/144 213/142
f 124/479 29/488 393/484
f 27/306 29/311 28/312
f 21/445 26/453 25/446
f 25/446 329/442 21/445
f 258/269 24/267 23/263
f 320/609 375/607 193/604
f 21/333 30/329 22/335
f 67/67 20/69 19/63
f 218/420 282/417 281/413
f 269/274 264/278 267/275
f 130/277 259/281 19/283
f 120/147 129/150 138/145
f 225/14 128/7 126/6
f 126/6 128/7 127/1
f 29/488 124/479 28/486
f 322/480 108/483 124/479
f 322/480 124/479 125/473
f 360/31 340/26 294/35
f 144/5 328/2 127/1
f 354/396 338/403 368/399
f 327/44 325/38 359/41
f 328/2 144/5 145/8
f 163/164 121/162 110/157
f 119/612 129/615 120/613
f 146/134 118/130 117/127
f 133/425 276/437 32/434
f 211/610 119/612 120/613
f 115/513 136/509 116/512
f 209/100 284/102 328/103
f 324/46 359/41 323/40
f 312/573 311/566 314/569
f 140/710 310/707 139/709
f 139/728 306/726 307/725
f 114/349 113/348 111/347
f 197/114 205/110 93/112
f 135/493 136/509 134/510
f 113/309 107/314 298/315
f 296/324 21/327 22/328
f 113/348 112/346 111/347
f 163/164 110/157 1/160
f 1/160 110/157 109/155
f 171/154 109/155 110/157
f 116/512 129/517 115/513
f 126/6 226/9 65/13
f 21/327 296/324 26/325
f 108/483 294/489 107/490
f 105/459 289/462 106/455
f 106/455 90/451 105/459
f 215/423 219/435 94/426
f 279/465 105/459 66/464
f 33/729 104/730 102/731
f 102/731 32/732 33/729
f 260/286 259/281 268/282
f 222/418 101/416 102/422
f 101/416 222/418 281/413
f 236/56 72/58 244/61
f 95/59 236/56 244/61
f 258/545 382/550 257/549
f 98/132 173/124 97/129
f 225/461 96/458 91/454
f 90/451 91/454 96/458
f 95/294 142/296 94/298
f 93/460 92/456 87/447
f 84/291 83/295 143/293
f 88/432 282/417 89/427
f 256/415 100/419 101/416
f 86/452 290/444 87/447
f 92/456 86/452 87/447
f 84/248 85/244 78/246
f 78/246 83/250 84/248
f 85/292 84/291 99/288
f 269/274 267/275 24/267
f 81/159 121/162 82/165
f 274/260 263/255 271/258
f 198/205 150/213 250/209
f 163/164 255/170 162/168
f 78/246 85/244 79/242
f 79/242 2/245 78/246
f 238/259 23/263 24/267
f 250/209 150/213 13/218
f 45/272 77/265 76/268
f 168/196 74/190 80/195
f 248/677 272/680 261/678
f 82/165 69/166 81/159
f 45/272 38/280 39/276
f 19/283 259/281 260/286
f 19/283 20/285 130/277
f 68/273 267/275 130/277
f 45/94 76/92 188/93
f 75/186 4/187 34/183
f 4/187 75/186 74/190
f 73/65 72/58 9/64
f 244/61 72/58 19/63
f 47/87 237/85 159/82
f 55/75 53/70 71/74
f 69/166 73/161 70/163
f 68/76 54/71 55/75
f 67/67 53/70 54/71
f 20/69 67/67 54/71
f 228/18 66/22 65/13
f 66/22 96/21 65/13
f 227/24 103/30 104/25
f 215/48 222/37 232/45
f 204/153 17/148 16/151
f 15/135 173/124 14/137
f 18/175 13/180 12/178
f 16/151 17/148 165/146
f 9/64 189/60 10/66
f 73/65 9/64 10/66
f 179/78 159/82 187/80
f 241/111 184/115 185/108
f 5/171 8/174 6/173
f 34/183 12/178 13/180
f 7/169 5/171 6/173
f 4/187 3/192 11/193
f 74/190 3/192 4/187
f 12/178 64/172 18/175
f 162/168 5/171 164/167
f 8/174 5/171 64/172
f 166/144 88/149 165/146
f 193/604 191/606 206/608
f 138/145 129/150 169/152
f 34/183 47/189 181/184
f 313/497 315/501 331/508
f 109/247 2/245 1/243
f 57/262 77/265 56/264
f 37/660 35/658 36/655
f 248/279 44/271 39/276
f 96/458 105/459 90/451
f 2/245 79/242 1/243
f 412/371 132/354 131/363
f 413/377 131/363 427/381
f 414/754 389/753 425/756
f 415/755 376/752 414/754
f 416/364 132/354 412/371
f 417/372 392/355 416/364
f 418/380 156/376 419/384
f 419/384 156/376 155/375
f 420/241 155/232 429/239
f 421/593 391/584 423/595
f 422/589 391/584 421/593
f 423/359 391/352 392/355
f 424/365 392/355 417/372
f 425/598 389/596 50/587
f 426/597 50/587 428/594
f 427/381 131/363 418/380
f 428/594 50/587 430/592
f 429/239 155/232 415/236
f 430/592 50/587 422/589
usemtl Tile_+032_+021_L20_0002200_untextured
