mtllib Tile_+032_+021_L19_000100.mtl
v 6.38557307e+03 5.00108074e+03 1.30417019e+01
v 6.38606567e+03 5.00034959e+03 1.23892172e+01
v 6.37623260e+03 5.02398197e+03 1.41516711e+01
v 6.37602081e+03 5.02447247e+03 1.35130920e+01
v 6.37897310e+03 5.02603492e+03 1.19882175e+01
v 6.37858380e+03 5.02798317e+03 1.13173572e+01
v 6.37681872e+03 5.02722337e+03 1.10629696e+01
v 6.37597744e+03 5.02513485e+03 1.17882936e+01
v 6.37781000e+03 5.03146110e+03 1.66721613e+01
v 6.37518830e+03 5.02000392e+03 1.69774512e+01
v 6.37618497e+03 5.02172588e+03 1.45155180e+01
v 6.37781269e+03 5.02196908e+03 1.58432069e+01
v 6.37735871e+03 5.02128806e+03 1.70828020e+01
v 6.37681679e+03 5.02101334e+03 1.50600770e+01
v 6.37774534e+03 5.02582638e+03 1.17895258e+01
v 6.37646625e+03 5.02466805e+03 1.28609104e+01
v 6.37734847e+03 5.02456623e+03 1.23454836e+01
v 6.37798488e+03 5.02572786e+03 1.14031602e+01
v 6.37738885e+03 5.02543448e+03 1.07728180e+01
v 6.38165376e+03 5.02809572e+03 1.09870938e+01
v 6.38077417e+03 5.02778558e+03 1.08714962e+01
v 6.37983982e+03 5.02509751e+03 1.61990243e+01
v 6.37996499e+03 5.02532506e+03 1.68331247e+01
v 6.38132616e+03 5.02446821e+03 1.69840314e+01
v 6.38107189e+03 5.02780965e+03 1.70585017e+01
v 6.38172828e+03 5.02561454e+03 1.66490776e+01
v 6.38044699e+03 5.02639744e+03 1.70285734e+01
v 6.37637275e+03 5.02931453e+03 1.69937664e+01
v 6.37660496e+03 5.03034267e+03 1.67245304e+01
v 6.37486395e+03 5.02534048e+03 1.67269405e+01
v 6.38044335e+03 5.02966558e+03 1.12389872e+01
v 6.38008278e+03 5.02875061e+03 1.24004966e+01
v 6.37963828e+03 5.02656869e+03 1.07449565e+01
v 6.37879997e+03 5.02652176e+03 1.05644187e+01
v 6.37658682e+03 5.02435392e+03 1.06859690e+01
v 6.37535819e+03 5.02404964e+03 1.06669071e+01
v 6.37526210e+03 5.02138111e+03 1.49509219e+01
v 6.37598374e+03 5.02078989e+03 1.04261408e+01
v 6.37503852e+03 5.02132680e+03 1.08985542e+01
v 6.37513147e+03 5.02523758e+03 1.37937850e+01
v 6.37513921e+03 5.02453131e+03 1.38047819e+01
v 6.37607848e+03 5.02472777e+03 1.25875593e+01
v 6.37852634e+03 5.02179981e+03 9.99748995e+00
v 6.37701464e+03 5.02019689e+03 1.00798652e+01
v 6.38088973e+03 5.02879892e+03 1.10264285e+01
v 6.38044263e+03 5.03028224e+03 1.09264655e+01
v 6.37524024e+03 5.02660185e+03 1.08669178e+01
v 6.37563735e+03 5.02447465e+03 1.16304259e+01
v 6.37487384e+03 5.03000995e+03 1.02013305e+01
v 6.37702709e+03 5.02856677e+03 1.02115435e+01
v 6.37967247e+03 5.02521969e+03 1.05427641e+01
v 6.37978006e+03 5.02597405e+03 1.01993723e+01
v 6.37589617e+03 5.02775932e+03 9.85707965e+00
v 6.37619266e+03 5.02553579e+03 1.41924680e+01
v 6.37859736e+03 5.02865487e+03 1.00711440e+01
v 6.37755779e+03 5.02752617e+03 1.55001968e+01
v 6.40335259e+03 5.02644747e+03 1.75899259e+01
v 6.40331545e+03 5.02746692e+03 1.66700638e+01
v 6.40588443e+03 5.01168837e+03 1.01557992e+01
v 6.40634230e+03 5.02257198e+03 1.75906658e+01
v 6.40531055e+03 5.02459272e+03 1.30732352e+01
v 6.40171829e+03 5.02966171e+03 1.66231818e+01
v 6.40312404e+03 5.02823983e+03 1.54755432e+01
v 6.40223157e+03 5.02877008e+03 1.44267391e+01
v 6.40474549e+03 5.02599048e+03 1.16333745e+01
v 6.40303281e+03 5.02760317e+03 1.00645200e+01
v 6.40309360e+03 5.02838720e+03 1.17706002e+01
v 6.40207671e+03 5.02884555e+03 1.01194911e+01
v 6.40082001e+03 5.02322685e+03 1.02729984e+01
v 6.40447876e+03 5.02023229e+03 1.01456047e+01
v 6.40444196e+03 5.02591332e+03 1.43042724e+01
v 6.40370313e+03 5.02662949e+03 1.32640158e+01
v 6.40583476e+03 5.01567751e+03 1.03303770e+01
v 6.40536265e+03 5.01510138e+03 1.02105190e+01
v 6.40647531e+03 5.01746815e+03 1.01669966e+01
v 6.40541221e+03 5.02457418e+03 1.57205480e+01
v 6.40513378e+03 5.02506693e+03 1.10859475e+01
v 6.40498278e+03 5.02493298e+03 1.01012439e+01
v 6.40305473e+03 5.02769223e+03 1.36510078e+01
v 6.40201549e+03 5.02898600e+03 1.30625247e+01
v 6.40497408e+03 5.02601868e+03 1.54474291e+01
v 6.40466680e+03 5.02585675e+03 1.65337711e+01
v 6.40377314e+03 5.03085713e+03 1.89529104e+01
v 6.40126658e+03 5.00000000e+03 9.94852627e+00
v 6.38632675e+03 5.00000000e+03 1.37839015e+01
v 6.38660588e+03 5.00000000e+03 1.23868424e+01
v 6.38814522e+03 5.00000000e+03 1.29091806e+01
v 6.38811208e+03 5.00000000e+03 1.37305592e+01
v 6.38790832e+03 5.00000000e+03 1.42579604e+01
v 6.38699669e+03 5.00000000e+03 1.46104205e+01
v 6.38679009e+03 5.00000000e+03 1.43614964e+01
v 6.38673514e+03 5.00057536e+03 1.54042830e+01
v 6.38398685e+03 5.00000000e+03 9.87118846e+00
v 6.38639928e+03 5.00000000e+03 1.01922010e+01
v 6.39623107e+03 5.00000000e+03 9.76255598e+00
v 6.39982275e+03 5.00125837e+03 1.01382948e+01
v 6.38723780e+03 5.00000000e+03 1.46113440e+01
v 6.37608052e+03 5.00000000e+03 9.84233324e+00
v 6.40089987e+03 5.02583120e+03 1.01037363e+01
v 6.40012879e+03 5.02280778e+03 1.00406251e+01
v 6.40111206e+03 5.00562513e+03 9.94788816e+00
v 6.40084283e+03 5.00162759e+03 9.92817778e+00
v 6.40342952e+03 5.01933005e+03 1.03569529e+01
v 6.40572702e+03 5.02330564e+03 1.00912609e+01
v 6.40138729e+03 5.01473113e+03 1.00016739e+01
v 6.39822960e+03 5.02040433e+03 9.94099210e+00
v 6.40103968e+03 5.03065290e+03 1.44937029e+01
v 6.38521669e+03 5.02601543e+03 9.97493062e+00
v 6.38308755e+03 5.02493927e+03 9.98929975e+00
v 6.38577320e+03 5.02363599e+03 9.98407928e+00
v 6.39834289e+03 5.02842176e+03 1.03881072e+01
v 6.40045522e+03 5.02945803e+03 9.99389803e+00
v 6.40134988e+03 5.03006355e+03 1.08522346e+01
v 6.40113442e+03 5.03084493e+03 1.61967380e+01
v 6.38561691e+03 5.00074856e+03 1.41501452e+01
v 6.38802151e+03 5.00042366e+03 1.50132489e+01
v 6.38887195e+03 5.00097810e+03 1.42053101e+01
v 6.38793600e+03 5.00162136e+03 1.55171987e+01
v 6.38620059e+03 5.00162399e+03 1.54680918e+01
v 6.38624496e+03 5.00218545e+03 1.48916569e+01
v 6.38705495e+03 5.00234337e+03 1.55217203e+01
v 6.38764871e+03 5.00294593e+03 1.40551221e+01
v 6.38873806e+03 5.00198406e+03 1.45674683e+01
v 6.38250284e+03 5.02575948e+03 1.69427087e+01
v 6.38316833e+03 5.02620303e+03 1.66862644e+01
v 6.38287354e+03 5.02763454e+03 1.69492622e+01
v 6.38407168e+03 5.02622522e+03 1.69527677e+01
v 6.38856705e+03 5.00240966e+03 1.37822501e+01
v 6.38571454e+03 5.00178298e+03 1.39039699e+01
v 6.38804979e+03 5.00195433e+03 1.28076230e+01
v 6.38845600e+03 5.00022547e+03 1.26927795e+01
v 6.38879368e+03 5.00157380e+03 1.22967238e+01
v 6.39099820e+03 5.01549829e+03 1.24676780e+01
v 6.39014537e+03 5.01567296e+03 1.25723735e+01
v 6.38589193e+03 5.00124508e+03 1.22649439e+01
v 6.38825149e+03 5.00037661e+03 1.20069776e+01
v 6.40103123e+03 5.00119648e+03 1.19573216e+01
v 6.40077158e+03 5.00088172e+03 1.26980556e+01
v 6.38726730e+03 5.00281197e+03 1.17509001e+01
v 6.38835095e+03 5.00206550e+03 1.13429680e+01
v 6.38649003e+03 5.00156317e+03 1.25063937e+01
v 6.38639632e+03 5.00258412e+03 1.16690517e+01
v 6.38691728e+03 5.00201986e+03 1.27499242e+01
v 6.38586149e+03 5.00189503e+03 1.13642116e+01
v 6.38581450e+03 5.00096711e+03 1.13283286e+01
v 6.38751729e+03 5.00172642e+03 1.20812295e+01
v 6.38620402e+03 5.00061478e+03 1.04812972e+01
v 6.39051366e+03 5.01660865e+03 1.25198408e+01
v 6.39607264e+03 5.02988452e+03 1.10404493e+01
v 6.39652260e+03 5.02911412e+03 1.01354857e+01
v 6.38233331e+03 5.02793222e+03 1.24413231e+01
v 6.40125052e+03 5.03051382e+03 1.25745306e+01
v 6.40119876e+03 5.03073898e+03 1.12301533e+01
v 6.39093594e+03 5.01616211e+03 1.33710461e+01
v 6.40050397e+03 5.03108068e+03 1.31971518e+01
v 6.39611787e+03 5.02966122e+03 1.17638170e+01
v 6.39637755e+03 5.02966302e+03 1.11785786e+01
v 6.40092887e+03 5.00115786e+03 1.33530555e+01
v 6.40081066e+03 5.00133994e+03 1.27982280e+01
v 6.38128501e+03 5.02458672e+03 1.02042363e+01
v 6.39621730e+03 5.02975041e+03 1.05129584e+01
v 6.39619608e+03 5.02972134e+03 1.08426318e+01
v 6.38165570e+03 5.02875762e+03 1.21222626e+01
v 6.38147415e+03 5.03031760e+03 1.00534438e+01
v 6.38520766e+03 5.03002807e+03 1.00589329e+01
v 6.39066506e+03 5.01587983e+03 1.13894623e+01
v 6.38618645e+03 5.00191929e+03 1.01148230e+01
v 6.38772537e+03 5.00027330e+03 1.03278648e+01
v 6.38782466e+03 5.00278162e+03 9.91353020e+00
v 6.38859846e+03 5.00100720e+03 1.14621163e+01
v 6.39008993e+03 5.00000000e+03 9.88299380e+00
v 6.38249756e+03 5.02623025e+03 1.10539395e+01
v 6.39733219e+03 5.02878305e+03 1.00037394e+01
v 6.39744449e+03 5.03013578e+03 1.04473248e+01
v 6.40130559e+03 5.00129827e+03 1.25372718e+01
v 6.39852901e+03 5.02571688e+03 1.03688151e+01
v 6.39956215e+03 5.02744141e+03 1.04876482e+01
v 6.39127233e+03 5.01649874e+03 9.93264939e+00
v 6.39070378e+03 5.01618480e+03 1.13281323e+01
v 6.39652830e+03 5.02949536e+03 1.00826441e+01
v 6.39549559e+03 5.03043951e+03 1.00382060e+01
v 6.39664560e+03 5.02720727e+03 1.04104367e+01
v 6.39790850e+03 5.02718527e+03 1.02108281e+01
v 6.38292152e+03 5.02659685e+03 1.00633243e+01
v 6.38181497e+03 5.02679241e+03 1.01999380e+01
v 6.39132706e+03 5.01600796e+03 9.95895916e+00
v 6.39091280e+03 5.01610710e+03 1.13958954e+01
v 6.39163499e+03 5.01639692e+03 1.24883553e+01
v 6.40129290e+03 5.00094982e+03 1.27056406e+01
v 6.38828517e+03 5.00150139e+03 1.01575331e+01
v 6.39632323e+03 5.03038336e+03 1.01636796e+01
v 6.39262046e+03 5.00892475e+03 9.81398268e+00
v 6.38982907e+03 5.01583164e+03 9.89208342e+00
v 6.38584060e+03 5.00753256e+03 9.81778266e+00
v 6.38483781e+03 5.00317321e+03 9.87611433e+00
v 6.38059758e+03 5.02299591e+03 1.00735929e+01
v 6.38318329e+03 5.00497740e+03 9.80984381e+00
v 6.38235300e+03 5.02797035e+03 1.04199289e+01
v 6.38149483e+03 5.02584037e+03 1.08333235e+01
v 6.38092843e+03 5.02541436e+03 1.05093398e+01
v 6.39613094e+03 5.02740644e+03 1.00902665e+01
v 6.39622306e+03 5.02484694e+03 9.94265108e+00
v 6.37887109e+03 5.01664890e+03 9.97156941e+00
v 6.37519630e+03 5.02729712e+03 1.68789407e+01
v 6.37540125e+03 5.02836897e+03 1.70952031e+01
v 6.37686263e+03 5.02650265e+03 1.70390039e+01
v 6.37872861e+03 5.03144659e+03 1.68929405e+01
v 6.37997029e+03 5.03128673e+03 1.68188125e+01
v 6.37775544e+03 5.02859451e+03 1.69653259e+01
v 6.37808375e+03 5.03015234e+03 1.70932333e+01
v 6.37478124e+03 5.02886235e+03 1.68700515e+01
v 6.37681705e+03 5.02774087e+03 1.67265000e+01
v 6.37562763e+03 5.02944731e+03 1.67611123e+01
v 6.37844185e+03 5.02239439e+03 1.70685586e+01
v 6.37721575e+03 5.02326539e+03 1.70905863e+01
v 6.37760919e+03 5.02431375e+03 1.69580345e+01
v 6.37929303e+03 5.02741139e+03 1.69468161e+01
v 6.38018497e+03 5.02827724e+03 1.67053324e+01
v 6.37950813e+03 5.02947888e+03 1.68773823e+01
v 6.37556371e+03 5.02481962e+03 1.69491337e+01
v 6.37621449e+03 5.02158369e+03 1.69387458e+01
v 6.37610862e+03 5.02614749e+03 1.67052727e+01
v 6.37687089e+03 5.02222637e+03 1.67548497e+01
v 6.37520804e+03 5.02086873e+03 1.68910522e+01
v 6.37619998e+03 5.02087252e+03 1.61336665e+01
v 6.37995056e+03 5.02766198e+03 1.20503568e+01
v 6.38101613e+03 5.02797889e+03 1.17275061e+01
v 6.37971534e+03 5.02612179e+03 1.20947887e+01
v 6.38130240e+03 5.02698427e+03 1.25134702e+01
v 6.37998694e+03 5.02679369e+03 1.18787268e+01
v 6.37835520e+03 5.02487528e+03 1.02972093e+01
v 6.37707457e+03 5.02435927e+03 1.05000160e+01
v 6.38102210e+03 5.02932271e+03 1.20112188e+01
v 6.37672683e+03 5.03055215e+03 1.00739477e+01
v 6.37971073e+03 5.02461037e+03 1.04159035e+01
v 6.37648872e+03 5.02370276e+03 1.03496754e+01
v 6.37602045e+03 5.02297853e+03 1.04046183e+01
v 6.37999330e+03 5.02974068e+03 9.99454410e+00
v 6.38091847e+03 5.02689343e+03 1.05485396e+01
v 6.37725814e+03 5.02216169e+03 1.01633844e+01
v 6.37664906e+03 5.02095193e+03 1.07768697e+01
v 6.37742990e+03 5.02278975e+03 1.07794115e+01
v 6.37850920e+03 5.02324268e+03 1.02144183e+01
v 6.37778294e+03 5.02392739e+03 1.07145923e+01
v 6.37650037e+03 5.02207103e+03 1.09714666e+01
v 6.37938538e+03 5.02367170e+03 1.05360257e+01
v 6.37588033e+03 5.02164777e+03 1.00645263e+01
v 6.37479319e+03 5.02208435e+03 1.03882051e+01
v 6.37599746e+03 5.00641039e+03 9.89385393e+00
v 6.38022058e+03 5.03077043e+03 1.03180326e+01
v 6.37475000e+03 5.02114522e+03 1.49689578e+01
v 6.37475000e+03 5.02064985e+03 1.56092632e+01
v 6.37475000e+03 5.00730358e+03 9.91775470e+00
v 6.37475000e+03 5.01518306e+03 1.00028375e+01
v 6.37475000e+03 5.03021236e+03 1.02592759e+01
v 6.37475000e+03 5.03000733e+03 1.02210440e+01
v 6.37475000e+03 5.02403425e+03 1.06654787e+01
v 6.37475000e+03 5.02481119e+03 1.09783202e+01
v 6.37475000e+03 5.02203350e+03 1.04142410e+01
v 6.37475000e+03 5.02132730e+03 1.08585001e+01
v 6.37475000e+03 5.02360136e+03 1.02438375e+01
v 6.37475000e+03 5.02223955e+03 1.03702933e+01
v 6.37475000e+03 5.02773001e+03 1.06360161e+01
v 6.37475000e+03 5.02871157e+03 9.90873684e+00
v 6.37475000e+03 5.02207977e+03 1.03836308e+01
v 6.37475000e+03 5.01619887e+03 9.98940029e+00
v 6.37475000e+03 5.01915742e+03 1.00378983e+01
v 6.37475000e+03 5.00630880e+03 9.90881637e+00
v 6.37475000e+03 5.00000000e+03 9.84602734e+00
v 6.37475000e+03 5.00180795e+03 9.87337967e+00
v 6.37475000e+03 5.02659812e+03 1.07164435e+01
v 6.37475000e+03 5.02623179e+03 1.06393234e+01
v 6.37475000e+03 5.02782723e+03 1.70735949e+01
v 6.37475000e+03 5.02737635e+03 1.69688168e+01
v 6.37475000e+03 5.01974646e+03 1.70111417e+01
v 6.37475000e+03 5.02035267e+03 1.68444212e+01
v 6.37475000e+03 5.02941446e+03 1.00583054e+01
v 6.37475000e+03 5.02077342e+03 1.06341965e+01
v 6.37475000e+03 5.02877041e+03 1.68823864e+01
v 6.37475000e+03 5.02888002e+03 1.68717185e+01
v 6.37475000e+03 5.02008898e+03 1.65605093e+01
v 6.37475000e+03 5.03140078e+03 1.05054313e+01
v 6.37475000e+03 5.02391420e+03 1.03888895e+01
v 6.37475000e+03 5.01974057e+03 1.69001208e+01
v 6.37475000e+03 5.02088040e+03 1.67890486e+01
v 6.37475000e+03 5.02317722e+03 1.69327028e+01
v 6.37475000e+03 5.02211016e+03 1.69070354e+01
v 6.37475000e+03 5.02652141e+03 1.70199162e+01
v 6.37475000e+03 5.02556319e+03 1.40284837e+01
v 6.37475000e+03 5.02525944e+03 1.40197428e+01
v 6.37475000e+03 5.03065270e+03 1.67615057e+01
v 6.37475000e+03 5.02430718e+03 1.69385467e+01
v 6.37475000e+03 5.02517874e+03 1.37888382e+01
v 6.37475000e+03 5.02409816e+03 1.38432435e+01
v 6.37475000e+03 5.02457917e+03 1.37980729e+01
v 6.37475000e+03 5.02329562e+03 1.40499660e+01
v 6.37475000e+03 5.02756463e+03 1.46280926e+01
v 6.37475000e+03 5.02512675e+03 1.67569210e+01
v 6.37475000e+03 5.02547930e+03 1.67260924e+01
v 6.37475000e+03 5.03008198e+03 1.69023334e+01
v 6.37475000e+03 5.02892229e+03 1.68759285e+01
v 6.37475000e+03 5.02910021e+03 1.53035397e+01
v 6.37475000e+03 5.03149579e+03 1.58045313e+01
v 6.37475000e+03 5.02226237e+03 1.42197584e+01
v 6.37475000e+03 5.01968991e+03 1.00551671e+01
v 6.37475000e+03 5.02745763e+03 1.07707079e+01
v 6.37475000e+03 5.02994730e+03 1.01414743e+01
v 6.37475000e+03 5.01997115e+03 1.01772271e+01
v 6.37475000e+03 5.02177478e+03 1.46619739e+01
v 6.37475000e+03 5.02577037e+03 1.67943825e+01
v 6.40650000e+03 5.01168818e+03 1.02051164e+01
v 6.40650000e+03 5.01151813e+03 1.02282360e+01
v 6.40650000e+03 5.00033299e+03 1.00423401e+01
v 6.40650000e+03 5.00000000e+03 1.00449066e+01
v 6.40650000e+03 5.00119612e+03 1.00453761e+01
v 6.40650000e+03 5.01263581e+03 1.02645397e+01
v 6.40650000e+03 5.01900740e+03 1.02277805e+01
v 6.40650000e+03 5.01755434e+03 1.01718910e+01
v 6.40650000e+03 5.02127979e+03 1.01219243e+01
v 6.40650000e+03 5.02255399e+03 1.01010663e+01
v 6.40650000e+03 5.02297609e+03 1.08600135e+01
v 6.40650000e+03 5.02363186e+03 1.15869066e+01
v 6.40650000e+03 5.02355592e+03 1.15301905e+01
v 6.40650000e+03 5.01743250e+03 1.01765505e+01
v 6.40650000e+03 5.01621113e+03 1.03615459e+01
v 6.40650000e+03 5.02325094e+03 1.43467993e+01
v 6.40650000e+03 5.02298077e+03 1.31711214e+01
v 6.40650000e+03 5.00821365e+03 1.01307995e+01
v 6.40650000e+03 5.01091584e+03 1.01540437e+01
v 6.40650000e+03 5.01470383e+03 1.05228971e+01
v 6.40650000e+03 5.01379522e+03 1.04672016e+01
v 6.40650000e+03 5.01490085e+03 1.05202895e+01
v 6.40650000e+03 5.01750065e+03 1.03729628e+01
v 6.40650000e+03 5.01561818e+03 1.03961853e+01
v 6.40650000e+03 5.02328427e+03 1.45581944e+01
v 6.40650000e+03 5.02809066e+03 1.92990108e+01
v 6.40650000e+03 5.02321885e+03 1.78448095e+01
v 6.40650000e+03 5.02948559e+03 1.96767393e+01
v 6.40650000e+03 5.02308206e+03 1.63317848e+01
v 6.40650000e+03 5.02315786e+03 1.66908801e+01
v 6.40650000e+03 5.02248130e+03 1.74462203e+01
v 6.40650000e+03 5.02246228e+03 1.74497876e+01
v 6.40650000e+03 5.02240363e+03 1.75360458e+01
v 6.40650000e+03 5.02360149e+03 1.56305495e+01
v 6.40650000e+03 5.02326730e+03 1.47788960e+01
v 6.40650000e+03 5.02258450e+03 1.76572519e+01
v 6.40650000e+03 5.02235967e+03 1.75909597e+01
v 6.40650000e+03 5.02364370e+03 1.16245097e+01
v 6.40650000e+03 5.02362882e+03 1.17228253e+01
v 6.37929133e+03 5.03150000e+03 1.01512895e+01
v 6.37966798e+03 5.03150000e+03 1.02880698e+01
v 6.38009645e+03 5.03150000e+03 1.01548182e+01
v 6.38211144e+03 5.03150000e+03 1.00480557e+01
v 6.37879795e+03 5.03150000e+03 1.01980433e+01
v 6.37774417e+03 5.03150000e+03 1.01550257e+01
v 6.37615206e+03 5.03150000e+03 1.06461192e+01
v 6.37632589e+03 5.03150000e+03 1.03728957e+01
v 6.37697849e+03 5.03150000e+03 1.02251259e+01
v 6.37492575e+03 5.03150000e+03 1.70035039e+01
v 6.37643070e+03 5.03150000e+03 1.70411913e+01
v 6.37502604e+03 5.03150000e+03 1.70390995e+01
v 6.37675056e+03 5.03150000e+03 1.70565872e+01
v 6.37765927e+03 5.03150000e+03 1.67134838e+01
v 6.37647453e+03 5.03150000e+03 1.69788329e+01
v 6.37786466e+03 5.03150000e+03 1.63887225e+01
v 6.37982032e+03 5.03150000e+03 1.68290249e+01
v 6.37475555e+03 5.03150000e+03 1.58064504e+01
v 6.37968108e+03 5.03150000e+03 1.68643431e+01
v 6.37869625e+03 5.03150000e+03 1.69027797e+01
v 6.37781261e+03 5.03150000e+03 1.66857569e+01
v 6.40029183e+03 5.03150000e+03 1.04829761e+01
v 6.39969497e+03 5.03150000e+03 1.00315502e+01
v 6.40019994e+03 5.03150000e+03 1.32651528e+01
v 6.40021482e+03 5.03150000e+03 1.25582717e+01
v 6.39355447e+03 5.03150000e+03 1.00286250e+01
v 6.39666912e+03 5.03150000e+03 1.00036713e+01
v 6.38816579e+03 5.03150000e+03 1.00005357e+01
v 6.39093883e+03 5.03150000e+03 9.98844333e+00
v 6.39700797e+03 5.03150000e+03 1.00059045e+01
v 6.39689974e+03 5.03150000e+03 1.00357190e+01
v 6.38776220e+03 5.03150000e+03 9.99608268e+00
v 6.38658009e+03 5.03150000e+03 1.00393697e+01
v 6.39764006e+03 5.03150000e+03 9.99142247e+00
v 6.40034289e+03 5.03150000e+03 1.41308326e+01
v 6.39717782e+03 5.03150000e+03 1.00925491e+01
v 6.38385365e+03 5.03150000e+03 1.00382521e+01
v 6.40052836e+03 5.03150000e+03 1.08596021e+01
v 6.40040925e+03 5.03150000e+03 1.46097659e+01
v 6.39959196e+03 5.03150000e+03 1.76240901e+01
v 6.40163398e+03 5.03150000e+03 1.83593261e+01
v 6.40016882e+03 5.03150000e+03 1.68459761e+01
v 6.40043167e+03 5.03150000e+03 1.64716705e+01
v 6.39971022e+03 5.03150000e+03 1.74722129e+01
v 6.39981992e+03 5.03150000e+03 1.73268486e+01
v 6.40015651e+03 5.03150000e+03 1.54001414e+01
v 6.40309552e+03 5.03150000e+03 1.89006567e+01
v 6.40033322e+03 5.03150000e+03 1.62973688e+01
v 6.40465151e+03 5.03150000e+03 1.95224288e+01
v 6.40360107e+03 5.03150000e+03 1.90763056e+01
v 6.37499973e+03 5.03150000e+03 1.05824464e+01
v 6.37475000e+03 5.03150000e+03 1.05686476e+01
v 6.37487921e+03 5.03150000e+03 1.69893109e+01
v 6.37475000e+03 5.03150000e+03 1.69499097e+01
v 6.37636831e+03 5.03150000e+03 1.61084878e+01
v 6.37475119e+03 5.03150000e+03 1.58059941e+01
v 6.37475000e+03 5.03150000e+03 1.58058698e+01
v 6.40643031e+03 5.03150000e+03 2.02720492e+01
v 6.40650000e+03 5.03150000e+03 2.03014151e+01
vt 0.062708154 0.68734109
vt 0.095076524 0.72469676
vt 0.062445097 0.73242652
vt 0.045572001 0.71827078
vt 0.039078724 0.6372633
vt 0.076133825 0.74581742
vt 0.051094852 0.75382018
vt 0.042892374 0.69865936
vt 0.068069123 0.52637184
vt 0.081223607 0.77515054
vt 0.030875741 0.7468217
vt 0.0036888181 0.60480368
vt 0.23928511 0.500723
vt 0.033362154 0.66084683
vt 0.10025327 0.80026084
vt 0.023554668 0.72419298
vt 0.040031165 0.7673285
vt 0.0036913096 0.62144339
vt 0.0036744173 0.51234949
vt 0.17692381 0.24141765
vt 0.1759502 0.74464869
vt 0.031042211 0.69581628
vt 0.022969773 0.65579736
vt 0.10582429 0.77439988
vt 0.082316391 0.81776947
vt 0.060046047 0.78344536
vt 0.013209204 0.75766611
vt 0.032407917 0.76716202
vt 0.003669119 0.48060524
vt 0.023117548 0.20644778
vt 0.2078997 0.092928052
vt 0.26183894 0.52155423
vt 0.021362504 0.68261534
vt 0.13399333 0.78540373
vt 0.10010467 0.84648108
vt 0.080627441 0.79418945
vt 0.0037088839 0.74367273
vt 0.044944111 0.80091959
vt 0.0036912973 0.63022977
vt 0.0036302472 0.23437226
vt 0.13539031 0.16159576
vt 0.1612324 0.10519624
vt 0.2828666 0.28485531
vt 0.3705664 0.64353371
vt 0.00819779 0.67257518
vt 0.10910155 0.81356102
vt 0.097850673 0.87435544
vt 0.0037087612 0.75344574
vt 0.0043743225 0.69626224
vt 0.067000829 0.83488744
vt 0.0036899829 0.6552906
vt 0.0036253184 0.20328552
vt 0.024383646 0.0061226487
vt 0.18229584 0.065992177
vt 0.33923814 0.0059201717
vt 0.26269141 0.50621635
vt 0.33923659 0.78238612
vt 0.16726691 0.81901258
vt 0.12476874 0.82572985
vt 0.080097705 0.83634174
vt 0.0037005057 0.70111334
vt 0.14792018 0.0060418844
vt 0.24328101 0.0059797764
vt 0.41553006 0.18165255
vt 0.37526655 0.80953914
vt 0.21337421 0.99037546
vt 0.003698946 0.6946733
vt 0.0036901478 0.67259455
vt 0.0036995402 0.69611967
vt 0.0036029594 0.062634051
vt 0.18561071 0.0060104132
vt 0.21508589 0.052910626
vt 0.41987601 0.46621221
vt 0.4113034 0.056732059
vt 0.40025234 0.7186203
vt 0.36558029 0.85543621
vt 0.25670323 0.99034762
vt 0.20706815 0.99037963
vt 0.0035941324 0.0061360598
vt 0.2063307 0.014534533
vt 0.49012694 0.37107658
vt 0.49968907 0.016215861
vt 0.48199075 0.47773778
vt 0.41105211 0.73170447
vt 0.39141682 0.86341804
vt 0.34584525 0.85613239
vt 0.29757226 0.99032021
vt 0.16714512 0.94440627
vt 0.49969342 0.04318893
vt 0.41791606 0.0058650374
vt 0.45180511 0.60990071
vt 0.41231516 0.81309366
vt 0.40538704 0.92643929
vt 0.3378084 0.86236864
vt 0.37237185 0.89406848
vt 0.32789695 0.95716
vt 0.18859704 0.99039066
vt 0.13140666 0.83720326
vt 0.18255949 0.02521807
vt 0.49972793 0.26248556
vt 0.49975619 0.46529591
vt 0.49968737 0.0058099031
vt 0.46820658 0.63808978
vt 0.489369 0.49573451
vt 0.43071827 0.90727991
vt 0.34623921 0.99028915
vt 0.10881027 0.95349211
vt 0.49974135 0.34692889
vt 0.49975225 0.43690282
vt 0.48772702 0.73412061
vt 0.41935918 0.94533408
vt 0.35834232 0.94763982
vt 0.44565186 0.86844695
vt 0.35658589 0.90537763
vt 0.3439362 0.91572893
vt 0.34082714 0.95539427
vt 0.14599632 0.99041831
vt 0.49974352 0.36574888
vt 0.49974874 0.40067583
vt 0.49975723 0.47145301
vt 0.49938866 0.55168915
vt 0.47610629 0.78498262
vt 0.49979416 0.67080408
vt 0.40283868 0.990242
vt 0.36141035 0.99027961
vt 0.34984231 0.99028611
vt 0.11877403 0.99043578
vt 0.49974465 0.37106329
vt 0.4997623 0.49387223
vt 0.49977404 0.5505749
vt 0.49978143 0.59978944
vt 0.49980083 0.71062362
vt 0.39351797 0.99025792
vt 0.35418659 0.99028206
vt 0.34402785 0.9276436
vt 0.35153368 0.99028569
vt 0.087288395 0.99045384
vt 0.49976569 0.51240259
vt 0.49977472 0.55438244
vt 0.080591984 0.99045533
vt 0.089222372 0.96764994
vt 0.07470838 0.99046212
vt 0.085669696 0.93547958
vt 0.063851736 0.90156031
vt 0.066998854 0.99046606
vt 0.034634106 0.96086937
vt 0.050533913 0.99047768
vt 0.039314065 0.89882016
vt 0.038569283 0.99048394
vt 0.0056767738 0.94394153
vt 0.028370693 0.99048734
vt 0.021643417 0.87360644
vt 0.0037421561 0.95026714
vt 0.025651274 0.99048311
vt 0.0037386839 0.90337485
vt 0.0037452749 0.98739994
vt 0.0037415682 0.94386059
vt 0.0037404818 0.92533696
vt 0.0037251641 0.87268502
vt 0.0037422001 0.94198632
vt 0.0076468331 0.99049622
vt 0.0037450334 0.99049902
vt 0.54830849 0.76575935
vt 0.52487433 0.82308489
vt 0.51635051 0.78158867
vt 0.54215407 0.73299909
vt 0.53665364 0.83416843
vt 0.51062304 0.85901642
vt 0.53676438 0.7005403
vt 0.56130797 0.70576811
vt 0.58512479 0.79734182
vt 0.50364888 0.86149472
vt 0.52650273 0.6804592
vt 0.6063869 0.77054811
vt 0.55061537 0.8995322
vt 0.51382822 0.89250493
vt 0.50364399 0.8347767
vt 0.50364995 0.87558258
vt 0.54437798 0.671206
vt 0.50362808 0.73027205
vt 0.59265912 0.8308447
vt 0.57463449 0.86254412
vt 0.53595132 0.87287056
vt 0.50542188 0.79787779
vt 0.50363374 0.76558357
vt 0.51077372 0.6581279
vt 0.5104599 0.63110065
vt 0.6126799 0.80637437
vt 0.57800668 0.92715293
vt 0.52901387 0.92204618
vt 0.50414568 0.90793443
vt 0.5036428 0.81131148
vt 0.50362295 0.69692689
vt 0.60243005 0.8749696
vt 0.62477964 0.81088948
vt 0.58857828 0.88959855
vt 0.55575156 0.94820851
vt 0.51737487 0.92620844
vt 0.50365698 0.90506124
vt 0.50364214 0.80221701
vt 0.50364 0.79119915
vt 0.50361812 0.65849918
vt 0.50361484 0.64200652
vt 0.64929521 0.82542753
vt 0.5852378 0.98364532
vt 0.53265071 0.95417923
vt 0.50641543 0.99035686
vt 0.50365764 0.90848696
vt 0.50366336 0.94604772
vt 0.50360978 0.6230588
vt 0.63518333 0.82474923
vt 0.63058138 0.86948133
vt 0.56583643 0.98865163
vt 0.53492755 0.99033725
vt 0.52992988 0.99034083
vt 0.50798208 0.99035507
vt 0.50568837 0.9903577
vt 0.50365782 0.90980768
vt 0.50366789 0.96388584
vt 0.58071947 0.99031174
vt 0.55148572 0.98911941
vt 0.53061557 0.99034172
vt 0.56533098 0.99032086
vt 0.58289552 0.99031109
vt 0.54913038 0.99033552
vt 0.50366998 0.99035984
vt 0.55152661 0.99033457
vt 0.78142464 0.77337301
vt 0.78427762 0.81450558
vt 0.76963991 0.8332383
vt 0.76199353 0.81293213
vt 0.78994209 0.76659787
vt 0.80865431 0.83606434
vt 0.76578605 0.76075375
vt 0.76181227 0.83389366
vt 0.76292861 0.7511754
vt 0.78034812 0.87142026
vt 0.81079155 0.74991274
vt 0.83402669 0.85694712
vt 0.76353782 0.85851592
vt 0.82761639 0.79567319
vt 0.8134014 0.87664032
vt 0.76433879 0.87222075
vt 0.83465171 0.75193554
vt 0.85238981 0.84974468
vt 0.82943618 0.90600276
vt 0.7983622 0.93773121
vt 0.76128292 0.89719391
vt 0.86840963 0.88133037
vt 0.83940268 0.94615269
vt 0.77958703 0.91954732
vt 0.87131894 0.79990757
vt 0.87168235 0.94612449
vt 0.89198959 0.84982985
vt 0.76142859 0.93979007
vt 0.76341641 0.92252773
vt 0.88466465 0.76153684
vt 0.87379372 0.91077507
vt 0.91965127 0.89033806
vt 0.7558856 0.96125716
vt 0.84994769 0.98115629
vt 0.75721151 0.95625305
vt 0.76460564 0.92703223
vt 0.88516039 0.7885564
vt 0.8933962 0.92745566
vt 0.91932058 0.89631307
vt 0.9223299 0.85778093
vt 0.75445622 0.96650928
vt 0.92446429 0.99250245
vt 0.91588384 0.80585086
vt 0.91576648 0.80686677
vt 0.92131996 0.95026904
vt 0.91591358 0.80988681
vt 0.92056829 0.96026647
vt 0.90977776 0.76932186
vt 0.91948825 0.90296215
vt 0.91617614 0.92544687
vt 0.92726845 0.98793316
vt 0.91663617 0.80477971
vt 0.9223811 0.78960186
vt 0.9265638 0.7705515
vt 0.76490617 0.70028508
vt 0.72207689 0.56298721
vt 0.79178447 0.59520352
vt 0.75514078 0.74147069
vt 0.77828789 0.54075158
vt 0.7069295 0.65258771
vt 0.79350603 0.58983314
vt 0.72154558 0.48293066
vt 0.7099632 0.70650005
vt 0.66376573 0.54989666
vt 0.76664305 0.50435662
vt 0.7007525 0.48715883
vt 0.64877105 0.64053619
vt 0.68450463 0.53165185
vt 0.63282478 0.58287835
vt 0.75409222 0.46513003
vt 0.65941226 0.67349869
vt 0.66877174 0.52672803
vt 0.64292687 0.52550185
vt 0.75399202 0.46502656
vt 0.67364717 0.49841332
vt 0.63599169 0.66459692
vt 0.62808198 0.61533976
vt 0.66270113 0.5139392
vt 0.62892616 0.54111862
vt 0.65380239 0.51184112
vt 0.7540583 0.46503139
vt 0.75404906 0.4650045
vt 0.66031957 0.50526404
vt 0.8155002 0.51232171
vt 0.82558072 0.64875489
vt 0.81551856 0.58002263
vt 0.89446497 0.61979389
vt 0.81553191 0.62866461
vt 0.86882472 0.7312727
vt 0.81553638 0.64534688
vt 0.84703285 0.73595524
vt 0.95503509 0.70558125
vt 0.81554657 0.6810106
vt 0.94493121 0.71325463
vt 0.81556374 0.74133074
vt 0.95484102 0.71093059
vt 0.81556439 0.74369371
vt 0.69119257 0.94814402
vt 0.67494285 0.94050658
vt 0.6766367 0.92894673
vt 0.69442439 0.90277773
vt 0.65697068 0.95914602
vt 0.70450199 0.90953344
vt 0.66670913 0.90887642
vt 0.7005989 0.95239699
vt 0.64603084 0.90662742
vt 0.71086574 0.9450503
vt 0.63645142 0.93454415
vt 0.73044759 0.91329396
vt 0.62874806 0.90473199
vt 0.64078027 0.99379981
vt 0.72791946 0.96643651
vt 0.74380249 0.91769302
vt 0.74980283 0.9642508
vt 0.75046659 0.901191
vt 0.58946288 0.6017611
vt 0.60091388 0.60306001
vt 0.60850531 0.61735988
vt 0.60424042 0.56479096
vt 0.60582989 0.59181345
vt 0.57476944 0.56938869
vt 0.61375719 0.57007992
vt 0.57735628 0.51747513
vt 0.60369641 0.50894606
vt 0.54742974 0.52661806
vt 0.62354666 0.54000998
vt 0.58616734 0.47056383
vt 0.55629009 0.58220553
vt 0.56465423 0.47487372
vt 0.61316723 0.50574422
vt 0.60222602 0.47778213
vt 0.53090692 0.56299889
vt 0.54231781 0.48548412
vt 0.61049318 0.50070596
vt 0.60421729 0.4859609
vt 0.52113587 0.55212313
vt 0.54540437 0.59037077
vt 0.51510447 0.47727728
vt 0.50945538 0.51183963
vt 0.5039767 0.5417558
vt 0.5049572 0.49314135
vt 0.50445002 0.46782011
vt 0.68890035 0.83703387
vt 0.70353997 0.81932646
vt 0.70888168 0.86619169
vt 0.69497347 0.86377102
vt 0.68035591 0.81027168
vt 0.67710459 0.84218973
vt 0.74269265 0.81380248
vt 0.66003656 0.75993979
vt 0.72325164 0.85836029
vt 0.74743909 0.8548969
vt 0.70896262 0.84550798
vt 0.75578648 0.844383
vt 0.73832864 0.86586833
vt 0.44777402 0.99363208
vt 0.44052482 0.94441295
vt 0.45042288 0.95036829
vt 0.46505278 0.99080145
vt 0.44638571 0.91625232
vt 0.46651113 0.93881631
vt 0.45980474 0.89549232
vt 0.47180882 0.95748615
vt 0.44828278 0.89273876
vt 0.46970448 0.89565384
vt 0.47417098 0.96554208
vt 0.4503583 0.8629998
vt 0.47959799 0.83346844
vt 0.45856503 0.83660597
vt 0.95330375 0.84585023
vt 0.9743942 0.84067333
vt 0.96931982 0.8832348
vt 0.95810449 0.89977849
vt 0.94224244 0.90526414
vt 0.95204091 0.92791265
vt 0.95724076 0.92211926
vt 0.97060627 0.96922904
vt 0.9793179 0.92074561
vt 0.95181763 0.95315921
vt 0.98909491 0.95220983
vt 0.95051181 0.96859872
vt 0.95726615 0.99163508
vt 0.9825713 0.63646984
vt 0.96567816 0.59647989
vt 0.99122763 0.6063472
vt 0.94768488 0.63761675
vt 0.9753617 0.58843243
vt 0.97219115 0.66536999
vt 0.95265073 0.59028798
vt 0.98573488 0.58266401
vt 0.97830218 0.67818809
vt 0.9608528 0.67994779
vt 0.94190538 0.61931014
vt 0.96132976 0.57050341
vt 0.94788802 0.54599905
vt 0.87906539 0.58987129
vt 0.892012 0.57760656
vt 0.8978166 0.61809838
vt 0.93701535 0.51111066
vt 0.92531711 0.85090458
vt 0.94431394 0.85486495
vt 0.93536025 0.89871693
vt 0.94061303 0.89893371
vt 0.9519369 0.933599
vt 0.93508446 0.93337917
vt 0.94143194 0.96047449
vt 0.60688323 0.66877431
vt 0.62555969 0.7120558
vt 0.60358232 0.69227409
vt 0.61569285 0.66830158
vt 0.60546869 0.7405802
vt 0.61107051 0.65386343
vt 0.63104159 0.65630686
vt 0.59984165 0.72555828
vt 0.64469302 0.74129748
vt 0.61431658 0.63628161
vt 0.63523477 0.68177843
vt 0.59752172 0.73881865
vt 0.59755915 0.74204004
vt 0.48194563 0.92838109
vt 0.48863429 0.96591544
vt 0.47355732 0.96620834
vt 0.47872815 0.93067306
vt 0.47905153 0.99237537
vt 0.47293386 0.88630837
vt 0.47878557 0.88616019
vt 0.033489857 0.85000795
vt 0.023593938 0.86767608
vt 0.0089096203 0.8497988
vt 0.023497187 0.82568783
vt 0.0068422244 0.81578791
vt 0.044069607 0.82420015
vt 0.027955875 0.79458576
vt 0.0074083009 0.78865707
vt 0.003158577 0.76765829
vt 0.70640737 0.72651434
vt 0.70209259 0.7343384
vt 0.68838722 0.72095066
vt 0.69237936 0.75948173
vt 0.67892951 0.76872784
vt 0.70280331 0.7596724
vt 0.69897163 0.78857607
vt 0.6604737 0.71573126
vt 0.6887508 0.7964862
vt 0.66654938 0.77218437
vt 0.6790058 0.80401188
vt 0.86361194 0.46928269
vt 0.87093854 0.4966377
vt 0.85449493 0.50404382
vt 0.88467211 0.45979744
vt 0.86091924 0.52007115
vt 0.88912416 0.51717401
vt 0.87157637 0.54139078
vt 0.8482787 0.52808225
vt 0.87228441 0.53048795
vt 0.88069242 0.55476439
vt 0.6291334 0.45079243
vt 0.64725119 0.45288843
vt 0.63794804 0.48699504
vt 0.63297653 0.41098988
vt 0.65616369 0.49221677
vt 0.64851159 0.41301161
vt 0.6624164 0.4676348
vt 0.65567493 0.39840156
vt 0.66828662 0.42068762
vt 0.62708253 0.9793992
vt 0.6138202 0.98290092
vt 0.62301767 0.94770414
vt 0.63735056 0.95502013
vt 0.60679305 0.94649184
vt 0.59728307 0.99255341
vt 0.44237879 0.98359108
vt 0.42483255 0.99067134
vt 0.40929502 0.97132725
vt 0.10807156 0.92067254
vt 0.10215234 0.91484702
vt 0.10816596 0.91404915
vt 0.085266143 0.92810804
vt 0.10770543 0.92800778
vt 0.082033589 0.8799383
vt 0.087998949 0.8764562
vt 0.49569735 0.93889862
vt 0.48966378 0.96692193
vt 0.48910254 0.9578712
vt 0.4883008 0.97515035
vt 0.49107626 0.99261987
vt 0.66499037 0.84825575
vt 0.65379339 0.87992585
vt 0.65565121 0.86038733
vt 0.65075332 0.84564954
vt 0.65816331 0.87725234
vt 0.65527236 0.87065244
vt 0.65459746 0.89942276
vt 0.6449424 0.84778005
vt 0.6685158 0.84932441
vt 0.68520117 0.95831382
vt 0.67493439 0.97062087
vt 0.65934449 0.95584273
vt 0.67769659 0.99146974
vt 0.63926327 0.89712834
vt 0.6289804 0.88402855
vt 0.64016151 0.85638899
vt 0.6478622 0.88391721
vt 0.63622046 0.85202271
vt 0.43996617 0.92781603
vt 0.44071853 0.9607088
vt 0.43167427 0.9215036
vt 0.43255141 0.91288722
vt 0.42600578 0.94320768
vt 0.67622644 0.97739851
vt 0.68695021 0.98665398
vt 0.68150449 0.99172729
vt 0.68063295 0.96989888
vt 0.69735032 0.95174485
vt 0.69884986 0.97018796
vt 0.70757687 0.96810073
vt 0.71351951 0.94569087
vt 0.72353435 0.99184394
vt 0.99655789 0.88215458
vt 0.98651475 0.92996693
vt 0.98282176 0.92765731
vt 0.97295666 0.8844884
vt 0.40268204 0.98841774
vt 0.42376015 0.98312652
vt 0.41187498 0.9933213
vt 0.49960151 0.9097811
vt 0.49487212 0.93002003
vt 0.49427396 0.91228062
vt 0.4932684 0.88658684
vt 0.48905769 0.90491122
vt 0.069215246 0.88127273
vt 0.050487876 0.89918071
vt 0.055646498 0.86726379
vt 0.065742537 0.85488224
vt 0.05201783 0.8681677
vt 0.043040838 0.87587708
vt 0.046651062 0.87360626
vt 0.040696196 0.89900851
vt 0.036069602 0.87850344
vt 0.042337708 0.85746837
vt 0.1080563 0.86124843
vt 0.1075964 0.8995375
vt 0.098254777 0.87875426
vt 0.11706818 0.87451696
vt 0.5007481 0.86500037
vt 0.4897441 0.89827847
vt 0.48805591 0.86607641
vt 0.70136124 0.96245521
vt 0.70965183 0.98452336
vt 0.69129753 0.9905073
vt 0.65934449 0.95974898
vt 0.67500085 0.98473161
vt 0.67185146 0.99097306
vt 0.43754584 0.98629278
vt 0.43894312 0.98618019
vt 0.43836945 0.99238378
vt 0.43940899 0.98627824
vt 0.42120162 0.98560166
vt 0.41863164 0.9894979
vt 0.4209303 0.98552758
vt 0.42203858 0.98815596
vt 0.42266583 0.98976946
vt 0.41945946 0.99224567
usemtl Tile_+032_+021_L19_000100_0
f 43/1 196/2 243/3
f 237/16 245/22 242/4
f 239/35 199/46 172/59
f 251/434 225/435 252/436
f 249/30 194/20 203/9
f 243/3 242/4 43/1
f 350/142 250/141 351/140
f 253/40 203/9 254/29
f 236/11 244/7 232/17
f 242/4 244/7 236/11
f 235/10 51/36 231/26
f 200/15 52/25 235/10
f 200/15 239/35 52/25
f 196/2 160/24 200/15
f 53/152 50/148 49/150
f 50/148 234/146 49/150
f 39/45 248/49 259/67
f 248/49 237/16 261/37
f 234/146 55/144 354/145
f 196/2 43/1 44/5
f 241/14 240/8 245/22
f 44/5 203/9 196/2
f 44/5 241/14 38/23
f 197/41 194/20 249/30
f 98/53 249/30 268/52
f 249/30 98/53 197/41
f 98/53 93/62 197/41
f 163/454 233/455 32/456
f 216/163 222/164 220/165
f 220/165 215/166 216/163
f 248/49 247/33 237/16
f 17/343 16/344 4/345
f 210/197 29/206 28/190
f 25/194 208/205 219/189
f 219/189 218/196 25/194
f 25/194 218/196 217/182
f 238/365 6/352 31/366
f 204/168 205/176 273/178
f 211/191 205/176 213/198
f 204/168 222/164 206/167
f 215/166 220/165 223/169
f 5/325 15/326 18/327
f 235/10 246/6 196/2
f 35/28 232/17 19/38
f 185/370 198/371 21/372
f 231/26 244/7 235/10
f 244/7 243/3 246/6
f 243/3 244/7 242/4
f 241/499 245/500 237/501
f 247/33 39/45 38/23
f 240/575 242/576 245/577
f 246/6 243/3 196/2
f 244/7 231/26 232/17
f 229/460 151/459 227/457
f 351/140 164/107 352/137
f 200/15 199/46 239/35
f 46/368 250/369 238/365
f 264/155 49/150 277/158
f 52/25 239/35 21/47
f 21/47 33/60 52/25
f 34/50 19/38 231/26
f 237/16 247/33 241/14
f 4/543 16/544 54/545
f 239/373 185/370 21/372
f 200/15 235/10 196/2
f 17/343 15/348 8/346
f 246/6 235/10 244/7
f 242/4 240/8 43/1
f 252/436 10/438 281/441
f 236/11 237/16 242/4
f 35/28 236/11 232/17
f 247/33 248/49 39/45
f 34/50 52/25 33/60
f 164/376 250/381 46/379
f 52/25 34/50 231/26
f 261/37 36/27 283/48
f 237/16 236/11 36/27
f 255/153 234/146 282/156
f 234/146 50/148 55/144
f 33/330 21/336 230/334
f 31/366 32/363 233/367
f 233/493 163/494 45/495
f 229/339 21/336 20/340
f 4/345 42/347 48/349
f 231/26 19/38 232/17
f 35/333 17/329 48/335
f 19/331 17/329 35/333
f 18/327 15/326 17/329
f 229/339 230/334 21/336
f 227/457 163/454 32/456
f 226/458 227/457 32/456
f 15/348 5/355 6/352
f 229/460 226/458 230/461
f 228/462 230/461 226/458
f 226/359 5/355 228/364
f 226/458 229/460 227/457
f 32/363 6/352 226/359
f 225/435 14/444 13/442
f 225/435 37/437 11/440
f 13/179 223/169 221/173
f 11/440 14/444 225/435
f 214/170 215/166 223/169
f 10/187 13/179 221/173
f 224/186 10/187 221/173
f 276/203 224/186 285/202
f 13/179 214/170 223/169
f 224/186 221/173 286/180
f 220/165 204/168 274/172
f 220/165 222/164 204/168
f 23/171 27/181 217/182
f 23/171 24/174 27/181
f 209/175 210/197 28/190
f 205/176 212/183 28/190
f 209/175 212/183 206/167
f 126/282 56/283 208/284
f 286/180 220/165 292/185
f 290/502 40/503 293/504
f 293/537 41/538 295/539
f 294/307 3/291 296/300
f 273/178 211/191 279/199
f 362/214 9/221 363/225
f 28/190 213/198 205/176
f 206/167 212/183 205/176
f 209/175 28/190 212/183
f 29/206 210/197 362/214
f 208/284 56/283 365/286
f 25/194 126/212 208/205
f 365/286 302/289 404/292
f 209/175 206/167 23/171
f 219/189 210/197 209/175
f 25/194 27/181 26/188
f 217/182 218/196 219/189
f 208/205 210/197 219/189
f 207/213 9/221 210/197
f 208/205 207/213 210/197
f 217/182 219/189 209/175
f 217/182 27/181 25/194
f 23/171 217/182 209/175
f 22/287 12/294 11/296
f 214/170 24/174 216/163
f 216/163 215/166 214/170
f 214/298 13/303 12/294
f 56/283 22/287 3/291
f 207/213 208/205 368/220
f 9/221 207/213 369/223
f 206/167 205/176 204/168
f 56/283 54/295 297/293
f 296/300 11/296 304/306
f 47/351 8/346 7/350
f 11/296 3/291 22/287
f 54/295 56/283 3/291
f 267/12 44/5 305/18
f 18/327 19/331 34/328
f 47/351 53/354 263/358
f 55/144 238/143 350/142
f 235/550 52/551 51/552
f 53/354 47/351 7/350
f 50/356 53/354 7/350
f 258/353 47/351 272/357
f 48/349 8/346 47/351
f 164/376 46/379 45/378
f 240/8 44/5 43/1
f 241/14 44/5 240/8
f 305/18 38/23 308/39
f 38/23 39/45 278/51
f 17/329 4/338 48/335
f 41/538 40/540 42/541
f 54/505 16/507 40/503
f 31/496 233/493 45/495
f 216/163 206/167 222/164
f 304/443 37/437 309/439
f 48/349 42/347 8/346
f 5/325 18/327 34/328
f 36/532 48/533 257/534
f 236/11 35/28 36/27
f 35/333 48/335 36/337
f 241/14 247/33 38/23
f 55/360 50/356 6/352
f 6/352 32/363 31/366
f 31/366 46/368 238/365
f 3/291 4/299 54/295
f 31/382 45/378 46/379
f 5/325 34/328 33/330
f 52/25 231/26 51/36
f 228/332 5/325 33/330
f 230/334 228/332 33/330
f 6/352 5/355 226/359
f 19/331 18/327 17/329
f 8/346 42/347 16/344
f 16/344 17/343 8/346
f 6/352 7/350 15/348
f 12/294 14/304 11/296
f 12/294 24/290 214/298
f 41/305 4/299 3/291
f 10/438 225/435 13/442
f 30/184 220/165 288/177
f 211/191 213/198 300/209
f 360/215 29/206 364/222
f 221/173 223/169 220/165
f 359/207 28/190 361/216
f 216/163 23/171 206/167
f 24/174 26/188 27/181
f 24/290 12/294 22/287
f 23/171 216/163 24/174
f 12/294 13/303 14/304
f 4/542 41/538 42/541
f 16/507 42/508 40/503
f 7/350 6/352 50/356
f 8/346 15/348 7/350
f 238/365 55/360 6/352
f 292/185 30/184 298/201
f 119/383 129/384 115/385
f 116/558 92/559 97/560
f 66/113 68/105 99/92
f 189/563 175/564 158/565
f 193/427 186/428 166/429
f 69/84 176/65 100/75
f 191/514 157/515 161/516
f 106/44 178/32 186/56
f 198/342 20/340 21/336
f 116/484 118/485 92/486
f 193/546 166/547 179/548
f 93/62 94/71 167/54
f 101/64 59/81 105/73
f 188/431 133/432 166/429
f 102/423 96/424 84/425
f 134/527 148/528 166/529
f 102/74 101/64 95/55
f 112/93 113/111 371/124
f 112/93 68/105 113/111
f 174/112 173/114 111/95
f 111/95 173/114 201/94
f 112/93 111/95 183/76
f 202/57 183/76 182/86
f 173/114 150/115 201/94
f 176/65 183/76 202/57
f 176/65 202/57 106/44
f 177/85 112/93 183/76
f 150/115 173/114 180/135
f 157/515 156/520 150/521
f 150/523 161/524 181/525
f 106/44 110/21 178/32
f 377/66 202/57 378/77
f 110/21 193/13 178/32
f 180/517 191/514 161/516
f 202/57 181/96 375/87
f 202/57 201/94 181/96
f 191/116 180/135 379/136
f 376/106 191/116 380/126
f 201/94 150/115 181/96
f 108/58 110/21 377/66
f 165/88 108/58 381/78
f 108/58 172/59 109/34
f 200/15 109/34 199/46
f 45/378 20/380 198/371
f 164/376 45/378 198/371
f 185/370 184/374 198/371
f 184/98 108/58 165/88
f 198/371 184/374 164/376
f 200/15 160/24 109/34
f 196/2 110/21 160/24
f 85/388 115/385 2/389
f 117/487 128/491 123/489
f 190/474 140/475 170/476
f 168/397 190/398 170/399
f 94/463 147/464 167/465
f 195/42 93/62 167/54
f 167/54 169/31 195/42
f 195/42 169/31 194/20
f 169/31 190/72 171/63
f 194/20 193/13 203/9
f 164/107 184/98 165/88
f 194/20 169/31 193/13
f 169/31 192/43 193/13
f 169/31 95/55 192/43
f 192/43 186/56 193/13
f 186/56 192/43 106/44
f 106/44 202/57 110/21
f 101/64 105/73 192/43
f 106/44 192/43 105/73
f 192/43 95/55 101/64
f 95/426 96/424 102/423
f 95/55 169/31 171/63
f 110/21 196/2 193/13
f 181/572 149/573 191/574
f 157/515 191/514 149/518
f 174/112 180/135 173/114
f 167/465 147/464 144/466
f 153/228 152/229 155/230
f 107/237 64/242 62/247
f 129/410 143/411 1/412
f 118/485 121/490 119/488
f 138/566 137/567 189/563
f 373/235 107/237 384/240
f 130/416 146/421 143/411
f 166/429 187/430 188/431
f 179/447 148/448 188/449
f 136/481 170/476 132/478
f 179/447 187/450 186/452
f 122/413 130/416 143/411
f 180/517 161/516 162/519
f 174/112 112/93 383/125
f 152/229 80/233 155/230
f 157/515 180/517 162/519
f 171/63 190/72 168/80
f 169/477 140/475 190/474
f 86/392 2/389 168/395
f 138/553 158/554 159/555
f 187/430 166/429 186/428
f 134/568 154/569 148/570
f 188/449 148/448 154/451
f 171/63 168/80 94/71
f 188/449 187/450 179/447
f 136/400 131/403 87/402
f 139/472 169/470 142/467
f 197/41 195/42 194/20
f 148/528 179/531 166/529
f 169/470 167/465 142/467
f 134/527 166/529 133/530
f 145/394 2/389 135/391
f 135/469 144/466 145/468
f 143/483 146/482 139/479
f 147/464 145/468 144/466
f 164/107 165/88 382/97
f 151/498 20/497 163/494
f 150/509 162/510 161/511
f 108/377 184/374 172/375
f 371/236 153/228 387/234
f 183/76 176/65 177/85
f 184/374 185/370 172/375
f 182/86 201/94 202/57
f 201/94 182/86 111/95
f 157/515 162/519 181/522
f 181/525 161/524 157/526
f 181/578 162/579 149/580
f 111/95 182/86 183/76
f 178/549 193/546 179/548
f 186/452 178/453 179/447
f 112/93 177/85 68/105
f 69/84 100/75 103/91
f 176/65 106/44 100/75
f 172/59 199/46 109/34
f 110/21 109/34 160/24
f 193/13 196/2 203/9
f 379/136 174/112 385/134
f 159/555 175/557 137/556
f 149/518 156/520 157/515
f 152/229 153/228 113/232
f 151/341 229/339 20/340
f 150/521 180/517 157/515
f 80/233 152/229 113/232
f 149/512 162/510 150/509
f 156/513 149/512 150/509
f 113/232 68/238 80/233
f 227/457 151/459 163/454
f 163/494 20/497 45/495
f 117/404 131/403 136/400
f 1/387 2/389 115/385
f 142/467 144/466 135/469
f 145/394 147/396 2/389
f 141/471 143/473 142/467
f 168/397 136/400 86/401
f 139/479 146/482 140/475
f 144/466 142/467 167/465
f 2/389 147/396 168/395
f 169/477 139/479 140/475
f 170/399 136/400 168/397
f 140/475 132/478 170/476
f 130/405 128/407 117/404
f 175/564 189/563 137/567
f 138/553 159/555 137/556
f 159/555 158/554 175/557
f 158/565 138/566 189/563
f 133/571 154/569 134/568
f 188/431 154/433 133/432
f 130/480 132/478 140/475
f 136/400 130/405 117/404
f 130/480 136/481 132/478
f 117/404 87/402 131/403
f 86/401 136/400 87/402
f 146/421 130/416 140/422
f 2/389 1/387 135/391
f 142/467 135/469 141/471
f 141/414 135/417 1/412
f 143/411 141/414 1/412
f 24/290 22/287 127/285
f 56/283 126/282 127/285
f 22/287 56/283 127/285
f 126/212 25/194 124/195
f 127/204 126/212 125/211
f 62/247 114/251 107/237
f 389/311 83/312 390/313
f 64/242 63/246 62/247
f 58/250 57/261 389/268
f 62/247 58/250 393/260
f 391/255 62/247 394/262
f 124/195 24/174 127/204
f 124/195 125/211 126/212
f 26/188 124/195 25/194
f 127/204 125/211 124/195
f 118/485 123/489 121/490
f 119/488 92/486 118/485
f 120/415 121/419 122/413
f 119/418 121/419 120/415
f 118/485 116/484 117/487
f 119/383 115/385 92/386
f 117/404 116/409 89/408
f 129/384 1/387 115/385
f 115/385 85/388 92/386
f 119/418 120/415 129/410
f 122/413 128/420 130/416
f 122/413 143/411 129/410
f 122/492 121/490 123/489
f 117/487 123/489 118/485
f 129/410 120/415 122/413
f 128/491 122/492 123/489
f 395/248 114/251 397/256
f 185/370 239/373 172/375
f 69/84 99/92 176/65
f 177/85 99/92 68/105
f 195/42 197/41 93/62
f 176/65 99/92 177/85
f 110/21 108/58 109/34
f 112/93 174/112 111/95
f 153/228 155/230 374/231
f 107/237 155/230 80/233
f 139/472 142/467 143/473
f 124/195 26/188 24/174
f 103/91 100/75 74/83
f 313/82 84/90 314/102
f 101/64 102/74 313/82
f 317/131 75/121 318/139
f 74/83 73/104 103/91
f 74/83 105/73 59/81
f 100/75 106/44 74/83
f 106/44 105/73 74/83
f 104/110 70/103 319/123
f 66/113 99/92 78/122
f 322/270 104/275 323/279
f 104/110 78/122 99/92
f 66/244 78/257 65/252
f 65/252 77/264 61/254
f 80/233 79/239 107/237
f 324/130 73/104 325/138
f 59/81 101/64 315/89
f 330/101 59/81 331/109
f 73/104 74/83 330/101
f 65/252 72/245 66/244
f 71/249 61/254 326/259
f 99/92 70/103 104/110
f 103/91 70/103 69/84
f 66/244 67/241 68/238
f 75/121 70/103 73/104
f 78/257 77/264 65/252
f 66/244 72/245 67/241
f 71/249 72/245 61/254
f 63/246 64/242 79/239
f 72/245 79/239 67/241
f 81/258 71/249 76/265
f 63/246 79/239 58/250
f 82/253 58/250 79/239
f 79/239 72/245 71/249
f 71/249 81/258 82/253
f 79/239 71/249 82/253
f 79/239 64/242 107/237
f 62/247 63/246 58/250
f 336/316 60/319 337/321
f 83/312 57/314 336/316
f 58/250 82/253 57/261
f 82/253 76/265 339/272
f 60/269 82/253 340/274
f 57/261 82/253 60/269
f 398/320 338/318 407/322
f 69/84 70/103 99/92
f 61/254 77/264 348/271
f 77/264 78/257 322/270
f 68/238 67/241 80/233
f 70/103 103/91 73/104
f 67/241 79/239 80/233
f 65/252 61/254 72/245
f 82/253 81/258 76/265
f 76/265 71/249 335/266
f 97/560 92/559 90/562
f 89/561 116/558 97/560
f 84/425 96/424 95/426
f 90/393 92/386 91/390
f 85/388 91/390 92/386
f 168/80 147/99 94/71
f 88/406 117/404 89/408
f 87/402 117/404 88/406
f 2/389 86/392 85/388
f 251/434 37/437 225/435
f 252/436 225/435 10/438
f 253/40 249/30 203/9
f 254/29 203/9 266/19
f 255/153 49/150 234/146
f 256/157 49/150 255/153
f 257/534 48/533 258/536
f 258/353 48/349 47/351
f 259/67 248/49 265/69
f 260/68 39/45 259/67
f 261/37 237/16 36/27
f 262/61 248/49 261/37
f 263/159 53/152 264/155
f 264/155 53/152 49/150
f 265/69 248/49 262/61
f 266/19 203/9 267/12
f 267/12 203/9 44/5
f 268/52 249/30 253/40
f 269/79 98/53 270/70
f 270/70 98/53 268/52
f 271/361 47/351 306/362
f 272/357 47/351 271/361
f 273/178 205/176 211/191
f 274/172 204/168 273/178
f 275/210 10/187 276/203
f 276/203 10/187 224/186
f 277/158 49/150 307/160
f 278/51 39/45 260/68
f 279/199 211/191 280/208
f 280/208 211/191 301/218
f 281/441 10/438 284/445
f 282/156 234/146 356/154
f 283/535 36/532 257/534
f 284/445 10/438 275/446
f 285/202 224/186 287/193
f 286/180 221/173 220/165
f 287/193 224/186 286/180
f 288/177 220/165 274/172
f 289/506 54/505 290/502
f 290/502 54/505 40/503
f 291/219 213/198 402/217
f 292/185 220/165 30/184
f 293/537 40/540 41/538
f 294/307 41/305 3/291
f 295/310 41/305 294/307
f 296/300 3/291 11/296
f 297/293 54/295 289/302
f 298/201 30/184 299/200
f 299/200 30/184 310/192
f 300/209 213/198 291/219
f 301/218 211/191 300/209
f 302/289 56/283 297/293
f 302/289 303/301 367/297
f 304/443 11/440 37/437
f 305/18 44/5 38/23
f 306/362 47/351 263/358
f 307/160 49/150 256/157
f 308/39 38/23 278/51
f 309/439 37/437 251/434
f 310/192 30/184 288/177
f 311/128 59/81 312/118
f 312/118 59/81 329/108
f 313/82 102/74 84/90
f 315/89 101/64 313/82
f 316/119 59/81 311/128
f 317/131 70/103 75/121
f 318/581 75/582 333/583
f 319/123 70/103 317/131
f 320/132 104/110 319/123
f 321/280 104/275 320/281
f 322/270 78/257 104/275
f 323/279 104/275 321/280
f 324/130 75/121 73/104
f 325/138 73/104 334/129
f 326/259 61/254 327/267
f 327/267 61/254 349/273
f 328/100 59/81 315/89
f 329/108 59/81 328/100
f 330/101 74/83 59/81
f 331/109 59/81 316/119
f 332/120 73/104 330/101
f 333/583 75/582 324/584
f 334/129 73/104 332/120
f 335/266 71/249 326/259
f 336/316 57/314 60/319
f 337/321 60/319 346/323
f 338/318 83/312 336/316
f 339/272 76/265 344/277
f 340/274 82/253 339/272
f 341/278 60/269 340/274
f 342/585 60/586 341/587
f 343/588 60/586 342/585
f 344/277 76/265 345/276
f 345/276 76/265 335/266
f 346/590 60/586 347/589
f 347/589 60/586 343/588
f 348/271 77/264 322/270
f 349/273 61/254 348/271
f 350/142 238/143 250/141
f 351/140 250/141 164/107
f 352/137 164/107 353/127
f 353/127 164/107 386/117
f 354/145 55/144 350/142
f 355/147 234/146 354/145
f 356/154 234/146 357/151
f 357/151 234/146 358/149
f 358/149 234/146 355/147
f 359/207 213/198 28/190
f 360/215 28/190 29/206
f 361/216 28/190 360/215
f 362/214 210/197 9/221
f 363/225 9/221 370/227
f 364/222 29/206 362/214
f 365/286 56/283 302/289
f 366/288 208/284 365/286
f 367/297 303/301 405/308
f 368/220 208/205 366/224
f 369/223 207/213 368/220
f 370/227 9/221 369/223
f 371/236 113/232 153/228
f 372/133 112/93 371/124
f 373/235 155/230 107/237
f 374/231 155/230 373/235
f 375/87 181/96 376/106
f 376/106 181/96 191/116
f 377/66 110/21 202/57
f 378/77 202/57 375/87
f 379/136 180/135 174/112
f 380/126 191/116 379/136
f 381/78 108/58 377/66
f 382/97 165/88 381/78
f 383/125 112/93 372/133
f 384/240 107/237 388/243
f 385/134 174/112 383/125
f 386/117 164/107 382/97
f 387/234 153/228 374/231
f 388/243 107/237 395/248
f 389/311 57/314 83/312
f 390/313 83/312 396/315
f 391/255 114/251 62/247
f 392/263 114/251 391/255
f 393/260 58/250 389/268
f 394/262 62/247 393/260
f 395/248 107/237 114/251
f 396/315 83/312 399/317
f 397/256 114/251 392/263
f 398/320 83/312 338/318
f 399/317 83/312 398/320
f 400/161 282/156 356/154
f 401/162 282/156 400/161
f 402/217 213/198 359/207
f 403/226 291/219 402/217
f 404/292 302/289 367/297
f 405/308 303/301 406/309
f 407/322 338/318 408/324
usemtl Tile_+032_+021_L19_000100_untextured
