mtllib Tile_+032_+021_L19_000221.mtl
v 6.25000000e+03 5.19819727e+03 2.88585159e+01
v 6.25000000e+03 5.19732127e+03 2.84790778e+01
v 6.25000000e+03 5.19672398e+03 3.25802586e+01
v 6.25000000e+03 5.19824406e+03 3.24460301e+01
v 6.25000000e+03 5.19855081e+03 3.21831459e+01
v 6.25045340e+03 5.19874541e+03 3.25256461e+01
v 6.25000000e+03 5.21277378e+03 3.29720021e+01
v 6.25000000e+03 5.21534864e+03 3.29668629e+01
v 6.25000000e+03 5.19812192e+03 3.11710796e+01
v 6.25000000e+03 5.19484979e+03 3.28876531e+01
v 6.25000000e+03 5.19485965e+03 3.28885654e+01
v 6.25259061e+03 5.19299548e+03 3.29070287e+01
v 6.25000000e+03 5.19600089e+03 3.29823020e+01
v 6.25000000e+03 5.20109527e+03 3.05950097e+01
v 6.25000000e+03 5.20388145e+03 3.08783169e+01
v 6.25138254e+03 5.20165337e+03 3.12299557e+01
v 6.25000000e+03 5.18977585e+03 3.29042395e+01
v 6.25000000e+03 5.19317145e+03 3.29022290e+01
v 6.25000000e+03 5.18824067e+03 3.29437566e+01
v 6.25000000e+03 5.20014728e+03 3.03866710e+01
v 6.25000000e+03 5.19854105e+03 3.03661801e+01
v 6.25000000e+03 5.20011202e+03 3.03881045e+01
v 6.25154057e+03 5.20002502e+03 3.14505753e+01
v 6.25000000e+03 5.19703357e+03 2.79059252e+01
v 6.25000000e+03 5.19812656e+03 2.74498665e+01
v 6.25000000e+03 5.19861040e+03 2.81732213e+01
v 6.25000000e+03 5.20646305e+03 3.30603940e+01
v 6.25000000e+03 5.19763822e+03 2.73069027e+01
v 6.25000000e+03 5.19641154e+03 3.27777146e+01
v 6.25043487e+03 5.19769517e+03 2.78697732e+01
v 6.25000000e+03 5.21708955e+03 3.30165118e+01
v 6.26894044e+03 5.18812450e+03 1.18133788e+01
v 6.26386966e+03 5.19104545e+03 1.20247166e+01
v 6.26605290e+03 5.19299418e+03 1.19789441e+01
v 6.26561469e+03 5.18778346e+03 1.19327113e+01
v 6.27051306e+03 5.21320365e+03 1.45796442e+01
v 6.27157573e+03 5.21291446e+03 1.49650681e+01
v 6.27145543e+03 5.21376107e+03 1.50121935e+01
v 6.27190441e+03 5.21232618e+03 1.46441023e+01
v 6.26995125e+03 5.21225237e+03 1.48462561e+01
v 6.27014300e+03 5.20996036e+03 1.41866706e+01
v 6.26970503e+03 5.21154881e+03 1.45165656e+01
v 6.27167313e+03 5.21195903e+03 1.41071220e+01
v 6.27106158e+03 5.20778922e+03 1.37351875e+01
v 6.27037633e+03 5.20885265e+03 1.40531830e+01
v 6.26914575e+03 5.21320999e+03 1.48098415e+01
v 6.27163505e+03 5.20973784e+03 1.36708234e+01
v 6.27237281e+03 5.21039231e+03 1.45966957e+01
v 6.27176094e+03 5.21340845e+03 1.37492068e+01
v 6.27255571e+03 5.21201001e+03 1.36733691e+01
v 6.26998810e+03 5.21518530e+03 1.48375512e+01
v 6.27200494e+03 5.21128115e+03 1.38566932e+01
v 6.27019611e+03 5.21117807e+03 1.39197337e+01
v 6.27169341e+03 5.20604380e+03 1.34060504e+01
v 6.27121983e+03 5.20665045e+03 1.38715112e+01
v 6.27017176e+03 5.21835180e+03 1.46287484e+01
v 6.26990468e+03 5.21797753e+03 1.55679847e+01
v 6.26979958e+03 5.21751945e+03 1.47385059e+01
v 6.26894579e+03 5.21643091e+03 1.48984712e+01
v 6.26897349e+03 5.21729321e+03 1.51286262e+01
v 6.27123054e+03 5.21560126e+03 1.42665451e+01
v 6.27033776e+03 5.21674322e+03 1.55418641e+01
v 6.26920344e+03 5.21796751e+03 1.57072892e+01
v 6.27277109e+03 5.21454428e+03 1.51224883e+01
v 6.27207765e+03 5.21519639e+03 1.71217156e+01
v 6.27290615e+03 5.21377875e+03 1.53855474e+01
v 6.27177327e+03 5.21719353e+03 1.42896273e+01
v 6.27143815e+03 5.21890176e+03 1.60044623e+01
v 6.27132994e+03 5.21780121e+03 1.73241807e+01
v 6.27269551e+03 5.21032033e+03 1.42773129e+01
v 6.27161879e+03 5.21467993e+03 1.41068533e+01
v 6.27219287e+03 5.20589300e+03 1.38873236e+01
v 6.27304315e+03 5.20522634e+03 1.40817849e+01
v 6.27219557e+03 5.20416525e+03 1.47730013e+01
v 6.26964125e+03 5.21185975e+03 1.42323032e+01
v 6.27275648e+03 5.21089400e+03 1.35985025e+01
v 6.27106420e+03 5.20659918e+03 1.35351761e+01
v 6.27222706e+03 5.20642779e+03 1.42076902e+01
v 6.27218921e+03 5.21899850e+03 1.48506013e+01
v 6.27229823e+03 5.21829032e+03 1.52198479e+01
v 6.27207096e+03 5.21871311e+03 1.60136036e+01
v 6.27258499e+03 5.21621572e+03 1.56540412e+01
v 6.27173723e+03 5.21750833e+03 1.67638199e+01
v 6.26962849e+03 5.21602882e+03 1.53240211e+01
v 6.27099336e+03 5.21503219e+03 1.52600095e+01
v 6.27232720e+03 5.21484844e+03 1.39711921e+01
v 6.26906620e+03 5.21197186e+03 1.43393026e+01
v 6.26876661e+03 5.21125657e+03 1.38084601e+01
v 6.27193974e+03 5.21764064e+03 1.53978055e+01
v 6.27077223e+03 5.21896848e+03 1.73927096e+01
v 6.26812691e+03 5.21447962e+03 1.48024046e+01
v 6.26779240e+03 5.21585861e+03 1.44312797e+01
v 6.26824139e+03 5.21497768e+03 1.54491834e+01
v 6.26861350e+03 5.21513250e+03 1.49178985e+01
v 6.26770704e+03 5.21724088e+03 1.54117334e+01
v 6.26122743e+03 5.21720544e+03 1.60931018e+01
v 6.26182823e+03 5.21693785e+03 1.46667535e+01
v 6.26240243e+03 5.21242444e+03 1.45378952e+01
v 6.26292284e+03 5.21361534e+03 1.40732723e+01
v 6.26111338e+03 5.21621933e+03 1.51125068e+01
v 6.26357081e+03 5.21692428e+03 1.44481467e+01
v 6.26692272e+03 5.21873782e+03 1.50796111e+01
v 6.27226115e+03 5.21570555e+03 1.46081521e+01
v 6.27300639e+03 5.21894101e+03 1.50708723e+01
v 6.27135499e+03 5.21841177e+03 1.46453286e+01
v 6.26557866e+03 5.21790713e+03 1.46645961e+01
v 6.26723516e+03 5.21724576e+03 1.48519212e+01
v 6.26621425e+03 5.21452407e+03 1.40980452e+01
v 6.26053979e+03 5.21845148e+03 1.68162556e+01
v 6.25844285e+03 5.21740016e+03 1.64007541e+01
v 6.25951400e+03 5.21880456e+03 1.75008753e+01
v 6.25991616e+03 5.21426322e+03 1.47322701e+01
v 6.25901504e+03 5.21516896e+03 1.54919509e+01
v 6.25923120e+03 5.21672943e+03 1.56427376e+01
v 6.25896128e+03 5.21489882e+03 1.79713603e+01
v 6.26168207e+03 5.21762036e+03 1.60103104e+01
v 6.26777435e+03 5.21800346e+03 1.53299344e+01
v 6.26688924e+03 5.21884994e+03 1.62920460e+01
v 6.26107179e+03 5.21883156e+03 1.67900627e+01
v 6.26000679e+03 5.21159238e+03 1.74757297e+01
v 6.25963903e+03 5.21306746e+03 1.68891581e+01
v 6.26003293e+03 5.21256183e+03 1.48001414e+01
v 6.26858134e+03 5.21378562e+03 1.45559848e+01
v 6.26326460e+03 5.21017201e+03 1.42334933e+01
v 6.26383687e+03 5.19955635e+03 1.54176468e+01
v 6.26310779e+03 5.20209686e+03 1.53891214e+01
v 6.26333943e+03 5.20093602e+03 1.30658512e+01
v 6.26449149e+03 5.19699568e+03 1.49440314e+01
v 6.26439785e+03 5.19775441e+03 1.40350645e+01
v 6.26502303e+03 5.19603518e+03 1.53889140e+01
v 6.26374167e+03 5.19843056e+03 1.48037667e+01
v 6.26422303e+03 5.19821780e+03 1.59017963e+01
v 6.26412951e+03 5.20767024e+03 1.41596645e+01
v 6.26819382e+03 5.21315515e+03 1.40604609e+01
v 6.26757422e+03 5.21065469e+03 1.35785669e+01
v 6.26753394e+03 5.21686755e+03 1.58245539e+01
v 6.26905050e+03 5.21264287e+03 1.51649735e+01
v 6.26192078e+03 5.21474120e+03 1.48141230e+01
v 6.26141017e+03 5.20684885e+03 1.75393045e+01
v 6.26198018e+03 5.20561068e+03 1.54197140e+01
v 6.26184209e+03 5.20531060e+03 1.77686776e+01
v 6.26075382e+03 5.20952725e+03 1.56480322e+01
v 6.26096394e+03 5.20838255e+03 1.82590281e+01
v 6.26190975e+03 5.20556487e+03 2.01965458e+01
v 6.26233416e+03 5.20450962e+03 1.92850413e+01
v 6.26246877e+03 5.20340454e+03 1.75097104e+01
v 6.26044727e+03 5.21013492e+03 1.86055088e+01
v 6.26299035e+03 5.20175249e+03 1.78870562e+01
v 6.26425081e+03 5.19833746e+03 2.01586608e+01
v 6.26478296e+03 5.19617304e+03 1.86652459e+01
v 6.26329901e+03 5.20122950e+03 1.99546089e+01
v 6.26600040e+03 5.20185244e+03 1.32121138e+01
v 6.26586493e+03 5.20390130e+03 1.30865920e+01
v 6.26741001e+03 5.20004692e+03 1.25367340e+01
v 6.26561102e+03 5.20305582e+03 1.36796381e+01
v 6.26404467e+03 5.20468029e+03 1.31823134e+01
v 6.26570567e+03 5.20036585e+03 1.28298722e+01
v 6.26428004e+03 5.19891341e+03 1.26357274e+01
v 6.26417263e+03 5.19819670e+03 1.29908235e+01
v 6.26969609e+03 5.20657995e+03 1.32682053e+01
v 6.27169462e+03 5.20517449e+03 1.33185396e+01
v 6.27079818e+03 5.20169390e+03 1.24512840e+01
v 6.27267676e+03 5.20260969e+03 1.27768722e+01
v 6.26082279e+03 5.21157009e+03 1.42303504e+01
v 6.26138893e+03 5.20869159e+03 1.38779114e+01
v 6.26478296e+03 5.19691999e+03 1.26097679e+01
v 6.26397716e+03 5.19669248e+03 1.36837822e+01
v 6.26482472e+03 5.19629821e+03 1.30029578e+01
v 6.26276673e+03 5.20324844e+03 1.32305110e+01
v 6.26228470e+03 5.20412571e+03 1.37168903e+01
v 6.26011052e+03 5.21150827e+03 1.98250412e+01
v 6.26080363e+03 5.20875828e+03 1.43956862e+01
v 6.26492605e+03 5.20536200e+03 1.39161900e+01
v 6.26517746e+03 5.20652874e+03 1.32815585e+01
v 6.26755251e+03 5.20644989e+03 1.30865999e+01
v 6.27098050e+03 5.20465974e+03 1.28640884e+01
v 6.27253150e+03 5.20736896e+03 1.32620358e+01
v 6.27309408e+03 5.20055394e+03 1.26043273e+01
v 6.26905112e+03 5.19521932e+03 1.20387696e+01
v 6.27221436e+03 5.19841631e+03 1.21709662e+01
v 6.26183669e+03 5.20578516e+03 1.36014252e+01
v 6.26936164e+03 5.20966703e+03 1.34143838e+01
v 6.26669955e+03 5.20891337e+03 1.34741084e+01
v 6.26421675e+03 5.20935758e+03 1.37259211e+01
v 6.27253408e+03 5.20967733e+03 1.35747075e+01
v 6.27280690e+03 5.20855141e+03 1.35624057e+01
v 6.26279353e+03 5.20877703e+03 1.37128808e+01
v 6.26024370e+03 5.21121826e+03 1.45064965e+01
v 6.26191461e+03 5.18917609e+03 2.02375653e+01
v 6.26299738e+03 5.19062576e+03 1.97038922e+01
v 6.26253939e+03 5.19014833e+03 1.78511561e+01
v 6.26510162e+03 5.19249409e+03 1.45189494e+01
v 6.26460128e+03 5.19181364e+03 1.58485719e+01
v 6.26533335e+03 5.19425213e+03 1.78384983e+01
v 6.26513278e+03 5.19255228e+03 1.75317313e+01
v 6.26550351e+03 5.19421264e+03 1.49812443e+01
v 6.26545721e+03 5.19324289e+03 1.58934678e+01
v 6.26514547e+03 5.19243144e+03 1.23368437e+01
v 6.26534094e+03 5.19412264e+03 1.24661508e+01
v 6.26069686e+03 5.18824194e+03 2.54937311e+01
v 6.26168113e+03 5.18922180e+03 2.46231823e+01
v 6.26035523e+03 5.18800759e+03 2.17203960e+01
v 6.26505311e+03 5.19241332e+03 2.06329794e+01
v 6.26540629e+03 5.19422860e+03 2.04651357e+01
v 6.26392269e+03 5.19130539e+03 1.35608952e+01
v 6.26250646e+03 5.18986702e+03 1.20394786e+01
v 6.26194557e+03 5.18932564e+03 1.45712973e+01
v 6.26174890e+03 5.18921112e+03 1.25069057e+01
v 6.26261362e+03 5.19024935e+03 1.45574602e+01
v 6.26108080e+03 5.18863271e+03 1.39827672e+01
v 6.26095354e+03 5.18778379e+03 1.38053303e+01
v 6.26085370e+03 5.18829068e+03 1.58996838e+01
v 6.26128165e+03 5.18895704e+03 1.68573115e+01
v 6.26081455e+03 5.18850449e+03 1.24747033e+01
v 6.26302807e+03 5.19109391e+03 1.37323468e+01
v 6.25929034e+03 5.18788124e+03 1.73825030e+01
v 6.25980101e+03 5.18770074e+03 1.63202784e+01
v 6.26206315e+03 5.18925165e+03 1.75693531e+01
v 6.26039428e+03 5.18809440e+03 1.81538523e+01
v 6.26374093e+03 5.19109790e+03 1.79515586e+01
v 6.26427643e+03 5.19216446e+03 1.34200592e+01
v 6.26348267e+03 5.19087182e+03 1.56219676e+01
v 6.26383136e+03 5.19113172e+03 2.06418177e+01
v 6.26431459e+03 5.19203667e+03 1.74506399e+01
v 6.26095869e+03 5.20862417e+03 2.07254476e+01
v 6.26281369e+03 5.20282310e+03 2.06818257e+01
v 6.26564516e+03 5.19367469e+03 2.33720196e+01
v 6.26465633e+03 5.19657289e+03 2.53184748e+01
v 6.26099449e+03 5.19573029e+03 3.11203640e+01
v 6.26199954e+03 5.19888749e+03 3.06457605e+01
v 6.26423351e+03 5.19211292e+03 2.10519038e+01
v 6.26279762e+03 5.19083741e+03 1.73865424e+01
v 6.25839945e+03 5.21710951e+03 1.98924971e+01
v 6.25953096e+03 5.21844196e+03 2.23288149e+01
v 6.25846308e+03 5.21802225e+03 2.24835753e+01
v 6.25866326e+03 5.21777586e+03 1.93216159e+01
v 6.26364697e+03 5.20020428e+03 2.33008001e+01
v 6.25490447e+03 5.21879945e+03 3.07621039e+01
v 6.25790473e+03 5.21885840e+03 2.27143220e+01
v 6.25098486e+03 5.18733730e+03 3.30045572e+01
v 6.25526996e+03 5.21498666e+03 3.09963943e+01
v 6.25390436e+03 5.21782318e+03 3.13838529e+01
v 6.25478352e+03 5.21481055e+03 3.23076772e+01
v 6.25115609e+03 5.21432120e+03 3.29672500e+01
v 6.25217623e+03 5.21724264e+03 3.27540993e+01
v 6.25701807e+03 5.19551608e+03 3.29883902e+01
v 6.25361792e+03 5.19160172e+03 3.28538988e+01
v 6.25329061e+03 5.19260992e+03 3.36342199e+01
v 6.25458756e+03 5.19381457e+03 3.29966614e+01
v 6.25129725e+03 5.20068053e+03 3.19297847e+01
v 6.25098541e+03 5.19899486e+03 3.13201111e+01
v 6.25000000e+03 5.20613415e+03 3.10941442e+01
v 6.25078843e+03 5.20405360e+03 3.12437689e+01
v 6.25194809e+03 5.19910337e+03 3.25704528e+01
v 6.25205762e+03 5.20035180e+03 3.29843859e+01
v 6.25531335e+03 5.20031940e+03 3.30640108e+01
v 6.25344605e+03 5.19785759e+03 3.27622313e+01
v 6.25085686e+03 5.20366149e+03 3.30069605e+01
v 6.25145418e+03 5.20157238e+03 3.26823796e+01
v 6.25565028e+03 5.21183979e+03 3.14202335e+01
v 6.25613162e+03 5.21028041e+03 3.23052635e+01
v 6.25411033e+03 5.20856388e+03 3.28594096e+01
v 6.25653391e+03 5.20951946e+03 3.11207376e+01
v 6.25411514e+03 5.19849964e+03 3.35357063e+01
v 6.25400797e+03 5.19930572e+03 3.29206930e+01
v 6.25488428e+03 5.19779243e+03 3.29064765e+01
v 6.25634781e+03 5.19786066e+03 3.31214788e+01
v 6.25212458e+03 5.20556975e+03 3.30769654e+01
v 6.25721073e+03 5.20652375e+03 3.23782382e+01
v 6.27680614e+03 5.20731992e+03 1.47511166e+01
v 6.27532457e+03 5.20822851e+03 1.44825849e+01
v 6.27427713e+03 5.21675433e+03 1.46933037e+01
v 6.27491138e+03 5.21644308e+03 1.57617104e+01
v 6.27541961e+03 5.21592727e+03 1.41460348e+01
v 6.27486530e+03 5.21515000e+03 1.37720772e+01
v 6.27550387e+03 5.21269285e+03 1.37395359e+01
v 6.27736985e+03 5.20675360e+03 1.39645913e+01
v 6.27758467e+03 5.20597492e+03 1.39119785e+01
v 6.27332731e+03 5.20966828e+03 1.32822535e+01
v 6.27479926e+03 5.21081084e+03 1.39259437e+01
v 6.27501132e+03 5.21001115e+03 1.42521602e+01
v 6.27424261e+03 5.20986911e+03 1.37544103e+01
v 6.27349510e+03 5.21041385e+03 1.33639767e+01
v 6.27645938e+03 5.21877161e+03 1.51265373e+01
v 6.27537722e+03 5.21780081e+03 1.48899478e+01
v 6.27287701e+03 5.21360471e+03 1.41401692e+01
v 6.27555373e+03 5.21455268e+03 1.38638954e+01
v 6.27329395e+03 5.21545235e+03 1.43715702e+01
v 6.27392421e+03 5.21343585e+03 1.40045328e+01
v 6.27465385e+03 5.21714097e+03 1.54456747e+01
v 6.27432553e+03 5.21738464e+03 1.48513885e+01
v 6.27313536e+03 5.21413094e+03 1.48262906e+01
v 6.27647457e+03 5.21212901e+03 1.37897593e+01
v 6.27665392e+03 5.21027183e+03 1.37743501e+01
v 6.27433167e+03 5.20096374e+03 1.30030590e+01
v 6.27464461e+03 5.20123854e+03 1.43762499e+01
v 6.27318003e+03 5.20614629e+03 1.38453470e+01
v 6.27416796e+03 5.20575068e+03 1.27962100e+01
v 6.27337453e+03 5.20730409e+03 1.39759589e+01
v 6.27345784e+03 5.20701895e+03 1.31226104e+01
v 6.27372372e+03 5.20808465e+03 1.31948029e+01
v 6.27309714e+03 5.20900700e+03 1.40092182e+01
v 6.27457947e+03 5.21193616e+03 1.38066996e+01
v 6.27560608e+03 5.21076553e+03 1.48320796e+01
v 6.27492494e+03 5.20350259e+03 1.24518419e+01
v 6.27378311e+03 5.20495754e+03 1.45103019e+01
v 6.27620415e+03 5.20872314e+03 1.39234958e+01
v 6.27743487e+03 5.20795750e+03 1.37251557e+01
v 6.27506198e+03 5.20737118e+03 1.29216905e+01
v 6.27606302e+03 5.21029217e+03 1.47099795e+01
v 6.27655184e+03 5.20537667e+03 1.38747912e+01
v 6.27744767e+03 5.21169820e+03 1.44823257e+01
v 6.27552488e+03 5.20724907e+03 1.41676709e+01
v 6.27598157e+03 5.20634922e+03 1.43431918e+01
v 6.27418293e+03 5.21065517e+03 1.47619268e+01
v 6.27601165e+03 5.21135530e+03 1.39844194e+01
v 6.27499999e+03 5.21199779e+03 1.40203894e+01
v 6.27631420e+03 5.20817427e+03 1.46290284e+01
v 6.27590307e+03 5.20911903e+03 1.46653982e+01
v 6.27701468e+03 5.21349978e+03 1.47112809e+01
v 6.27649430e+03 5.21334969e+03 1.45158204e+01
v 6.27341809e+03 5.21189536e+03 1.43781662e+01
v 6.27844045e+03 5.19252350e+03 1.19454396e+01
v 6.27496589e+03 5.20027551e+03 1.21276049e+01
v 6.28098602e+03 5.21786714e+03 1.82882139e+01
v 6.28012633e+03 5.21790479e+03 1.77066130e+01
v 6.27790955e+03 5.21626741e+03 1.41996330e+01
v 6.27910646e+03 5.21527394e+03 1.44754690e+01
v 6.27993865e+03 5.21134684e+03 1.48316618e+01
v 6.28074145e+03 5.21137805e+03 1.43710365e+01
v 6.27934268e+03 5.21069067e+03 1.64098485e+01
v 6.27992329e+03 5.21130484e+03 1.68850663e+01
v 6.27903763e+03 5.21027651e+03 1.45375530e+01
v 6.27841152e+03 5.21032683e+03 1.45251924e+01
v 6.27828993e+03 5.20587073e+03 1.26755716e+01
v 6.27925064e+03 5.21048204e+03 1.34574840e+01
v 6.27971660e+03 5.20823990e+03 1.39874860e+01
v 6.27424881e+03 5.19315773e+03 1.18540688e+01
v 6.27671934e+03 5.19786690e+03 1.17675115e+01
v 6.27631394e+03 5.20340921e+03 1.25705568e+01
v 6.27605313e+03 5.20300842e+03 1.52008970e+01
v 6.27798244e+03 5.21273019e+03 1.46372945e+01
v 6.27779325e+03 5.21122980e+03 1.47731854e+01
v 6.28091158e+03 5.21844082e+03 2.01951625e+01
v 6.27752318e+03 5.21680560e+03 1.49767426e+01
v 6.27723392e+03 5.21790610e+03 1.48346205e+01
v 6.27425622e+03 5.21003530e+03 1.56762919e+01
v 6.27608792e+03 5.21512607e+03 1.52978482e+01
v 6.27583737e+03 5.21445692e+03 1.47080153e+01
v 6.27573084e+03 5.21685489e+03 1.53263221e+01
v 6.27721336e+03 5.21575243e+03 1.53049024e+01
v 6.27301750e+03 5.21552291e+03 1.55395502e+01
v 6.27744741e+03 5.21329449e+03 1.56440651e+01
v 6.27362402e+03 5.21213565e+03 1.57033024e+01
v 6.27846048e+03 5.21017444e+03 1.52653900e+01
v 6.27781167e+03 5.20414533e+03 1.33246670e+01
v 6.27797657e+03 5.20448468e+03 1.28149647e+01
v 6.27838472e+03 5.19687721e+03 1.18366748e+01
v 6.27835845e+03 5.19816251e+03 1.21429244e+01
v 6.27869846e+03 5.20719863e+03 1.30428289e+01
v 6.27783119e+03 5.20729782e+03 1.39569826e+01
v 6.27712047e+03 5.20417309e+03 1.25509278e+01
v 6.27730020e+03 5.20543037e+03 1.28490132e+01
v 6.27884448e+03 5.20398573e+03 1.37396030e+01
v 6.27734468e+03 5.20291132e+03 1.31114194e+01
v 6.27680343e+03 5.20173462e+03 1.22413028e+01
v 6.27847823e+03 5.20131874e+03 1.20597204e+01
v 6.27727913e+03 5.19899130e+03 1.23266823e+01
v 6.27675873e+03 5.20295805e+03 1.37404149e+01
v 6.27502980e+03 5.20670640e+03 1.55638461e+01
v 6.27900841e+03 5.20279714e+03 1.46657719e+01
v 6.27679236e+03 5.20141829e+03 1.39330826e+01
v 6.27826246e+03 5.20183127e+03 1.25780783e+01
v 6.27697277e+03 5.20213082e+03 1.42075543e+01
v 6.27496822e+03 5.21884895e+03 1.50965996e+01
v 6.27258325e+03 5.21703106e+03 1.47727866e+01
v 6.27799397e+03 5.21479519e+03 1.54579556e+01
v 6.27698108e+03 5.20105020e+03 1.47800110e+01
v 6.27835643e+03 5.20163230e+03 1.44393720e+01
v 6.27492611e+03 5.20134225e+03 1.22890919e+01
v 6.28077468e+03 5.20279724e+03 1.20117997e+01
v 6.27983233e+03 5.20505292e+03 1.34766159e+01
v 6.28056638e+03 5.20549833e+03 1.29727376e+01
v 6.27940198e+03 5.21548757e+03 1.66302994e+01
v 6.27329487e+03 5.21198094e+03 1.64145539e+01
v 6.27965550e+03 5.20539703e+03 1.27174094e+01
v 6.27333864e+03 5.21781036e+03 1.49138956e+01
v 6.27915468e+03 5.21871798e+03 1.61113936e+01
v 6.27975086e+03 5.21687009e+03 1.52573146e+01
v 6.27984937e+03 5.21765209e+03 1.61982966e+01
v 6.28075087e+03 5.21829004e+03 1.59164283e+01
v 6.27455230e+03 5.20743703e+03 1.57117430e+01
v 6.27860208e+03 5.21357628e+03 1.60593622e+01
v 6.28104988e+03 5.20428054e+03 1.47076904e+01
v 6.28018051e+03 5.20367827e+03 1.26453299e+01
v 6.27948172e+03 5.21738161e+03 1.56161202e+01
v 6.28058128e+03 5.21862952e+03 2.21985057e+01
v 6.27926063e+03 5.21758357e+03 2.21352820e+01
v 6.27951501e+03 5.21671725e+03 2.18137851e+01
v 6.27951542e+03 5.21575542e+03 2.21944455e+01
v 6.27890118e+03 5.21522914e+03 2.07527468e+01
v 6.27824474e+03 5.21466440e+03 2.03701022e+01
v 6.28029083e+03 5.21663960e+03 2.23959640e+01
v 6.27817388e+03 5.21454405e+03 2.22317474e+01
v 6.28147483e+03 5.21357635e+03 2.22706398e+01
v 6.28034421e+03 5.21192558e+03 1.73928815e+01
v 6.27899209e+03 5.21166586e+03 1.69096305e+01
v 6.27814975e+03 5.21479331e+03 1.80953437e+01
v 6.27917487e+03 5.21555100e+03 1.81316496e+01
v 6.27945052e+03 5.21559129e+03 2.00866236e+01
v 6.28008509e+03 5.21749072e+03 1.86572715e+01
v 6.27951187e+03 5.21723615e+03 2.07550711e+01
v 6.27861726e+03 5.21414472e+03 1.65124877e+01
v 6.27530547e+03 5.21612860e+03 1.53519695e+01
v 6.27900564e+03 5.21820755e+03 1.55605566e+01
v 6.27806505e+03 5.21462403e+03 1.70185241e+01
v 6.27834237e+03 5.21783839e+03 1.48406603e+01
v 6.27842808e+03 5.21733711e+03 1.57816061e+01
v 6.27848657e+03 5.21890420e+03 1.49109260e+01
v 6.27861843e+03 5.21685684e+03 1.44506852e+01
v 6.27791059e+03 5.21508214e+03 1.47515081e+01
v 6.28112090e+03 5.20445722e+03 1.27369480e+01
v 6.27785976e+03 5.19863618e+03 1.20643432e+01
v 6.28128779e+03 5.20118020e+03 1.21465970e+01
v 6.28113978e+03 5.21066342e+03 1.37632210e+01
v 6.28026576e+03 5.21055536e+03 1.36729985e+01
v 6.28137035e+03 5.20838827e+03 1.34534358e+01
v 6.27808011e+03 5.20973104e+03 1.38090940e+01
v 6.27769228e+03 5.21084294e+03 1.38705668e+01
v 6.27847220e+03 5.21191382e+03 1.56049162e+01
v 6.28050293e+03 5.21146983e+03 1.61457888e+01
v 6.27316521e+03 5.20100485e+03 1.43310528e+01
v 6.27302196e+03 5.21402294e+03 1.57788164e+01
v 6.27655020e+03 5.21679795e+03 1.54068910e+01
v 6.27440142e+03 5.20313683e+03 1.36342781e+01
v 6.25901579e+03 5.21493476e+03 2.78731676e+01
v 6.25901598e+03 5.21464279e+03 2.60236239e+01
v 6.25879979e+03 5.21645713e+03 3.00462583e+01
v 6.25855706e+03 5.21602596e+03 2.66975744e+01
v 6.25791284e+03 5.21836703e+03 2.62227236e+01
v 6.25857558e+03 5.21554566e+03 2.79064403e+01
v 6.26134424e+03 5.20775761e+03 2.69119647e+01
v 6.26183351e+03 5.20551630e+03 2.52561218e+01
v 6.25949452e+03 5.21344255e+03 2.39458544e+01
v 6.25862990e+03 5.21625548e+03 2.45343968e+01
v 6.25819604e+03 5.21719459e+03 2.47591733e+01
v 6.25965721e+03 5.21241608e+03 2.08818249e+01
v 6.25998504e+03 5.21172272e+03 2.51506894e+01
v 6.25859643e+03 5.21555968e+03 2.42767991e+01
v 6.25876651e+03 5.21593300e+03 2.30709636e+01
v 6.25816423e+03 5.21783169e+03 2.32173443e+01
v 6.26070921e+03 5.21850895e+03 2.00277258e+01
v 6.25946698e+03 5.21897634e+03 2.29147542e+01
v 6.26143956e+03 5.21864023e+03 1.87682651e+01
v 6.26059687e+03 5.20990532e+03 2.76654850e+01
v 6.26118145e+03 5.20769681e+03 2.82706098e+01
v 6.26173169e+03 5.20621730e+03 2.84557997e+01
v 6.26075639e+03 5.20868225e+03 2.50628279e+01
v 6.25961923e+03 5.21297087e+03 2.77845360e+01
v 6.25991740e+03 5.21180322e+03 2.82905541e+01
v 6.26045521e+03 5.19632648e+03 3.23708935e+01
v 6.25993569e+03 5.19808655e+03 3.14261386e+01
v 6.26213847e+03 5.20575265e+03 3.00278598e+01
v 6.26265954e+03 5.20329597e+03 2.74047327e+01
v 6.26225609e+03 5.20459964e+03 2.43589025e+01
v 6.26252170e+03 5.20434147e+03 2.74298287e+01
v 6.26439813e+03 5.19725324e+03 2.81832603e+01
v 6.26458614e+03 5.19722866e+03 2.72552920e+01
v 6.26572398e+03 5.19426681e+03 2.98594794e+01
v 6.26535583e+03 5.19412108e+03 2.79097683e+01
v 6.26388519e+03 5.19120701e+03 2.74138357e+01
v 6.26395260e+03 5.19100684e+03 3.00995294e+01
v 6.26545779e+03 5.19308277e+03 3.01576729e+01
v 6.26292436e+03 5.20272144e+03 2.33270077e+01
v 6.26058252e+03 5.20987762e+03 2.36656870e+01
v 6.26127477e+03 5.20756550e+03 2.42302342e+01
v 6.25956582e+03 5.18775725e+03 2.60364825e+01
v 6.26027720e+03 5.21030591e+03 2.11245196e+01
v 6.26043298e+03 5.21009945e+03 2.58801112e+01
v 6.26356065e+03 5.19994582e+03 2.55271446e+01
v 6.26445828e+03 5.19774661e+03 2.40360140e+01
v 6.26458699e+03 5.19180717e+03 2.30815425e+01
v 6.25759401e+03 5.21897624e+03 2.85734477e+01
v 6.25913726e+03 5.21394794e+03 2.82314983e+01
v 6.25812470e+03 5.21779352e+03 2.88263962e+01
v 6.25954716e+03 5.18777065e+03 2.92869343e+01
v 6.25940416e+03 5.18788303e+03 2.80689436e+01
v 6.26051410e+03 5.18805954e+03 3.00841891e+01
v 6.26160164e+03 5.18920129e+03 3.09520277e+01
v 6.26189077e+03 5.18929926e+03 3.29295018e+01
v 6.26186728e+03 5.18936980e+03 3.01373506e+01
v 6.26102961e+03 5.19064600e+03 3.24917659e+01
v 6.25889689e+03 5.20822369e+03 3.07026956e+01
v 6.26036787e+03 5.19357196e+03 3.25556887e+01
v 6.25893183e+03 5.19261643e+03 3.29765888e+01
v 6.25989468e+03 5.19144979e+03 3.28902724e+01
v 6.26078199e+03 5.19211624e+03 3.27764134e+01
v 6.26010652e+03 5.19248388e+03 3.37113937e+01
v 6.26184253e+03 5.19181027e+03 3.22555435e+01
v 6.26211392e+03 5.19195236e+03 3.06100293e+01
v 6.26142140e+03 5.19341011e+03 3.13602318e+01
v 6.26287263e+03 5.19050984e+03 2.65533362e+01
v 6.25931915e+03 5.20187605e+03 3.09797789e+01
v 6.25836944e+03 5.20490629e+03 3.09718455e+01
v 6.26040693e+03 5.21118011e+03 3.00741466e+01
v 6.26017902e+03 5.21052549e+03 2.82333917e+01
v 6.25686789e+03 5.20807376e+03 3.14039529e+01
v 6.25920136e+03 5.20071889e+03 3.14508590e+01
v 6.25847871e+03 5.20275911e+03 3.23153838e+01
v 6.25923547e+03 5.20002325e+03 3.23942239e+01
v 6.25834976e+03 5.19747153e+03 3.27694168e+01
v 6.25761389e+03 5.20561066e+03 3.14383526e+01
v 6.26495950e+03 5.19646036e+03 3.00342330e+01
v 6.26420812e+03 5.19910026e+03 3.00174427e+01
v 6.26187166e+03 5.20523955e+03 2.88315859e+01
v 6.26349127e+03 5.20055977e+03 2.78487425e+01
v 6.26320361e+03 5.20140351e+03 2.51780230e+01
v 6.26321655e+03 5.20217844e+03 3.00517746e+01
v 6.26285711e+03 5.20217191e+03 2.88416426e+01
v 6.26116044e+03 5.19063124e+03 3.12661580e+01
v 6.26303322e+03 5.19086545e+03 2.82913107e+01
v 6.26520047e+03 5.19271101e+03 2.51245175e+01
v 6.26542767e+03 5.19457970e+03 2.58587822e+01
v 6.26384769e+03 5.19124959e+03 2.50706994e+01
v 6.26513511e+03 5.19256240e+03 2.80224128e+01
v 6.26078158e+03 5.21857186e+03 2.27006359e+01
v 6.26427803e+03 5.19199757e+03 2.44084437e+01
v 6.26286109e+03 5.19042318e+03 2.26627075e+01
v 6.26302373e+03 5.19096494e+03 2.46720872e+01
v 6.26397147e+03 5.19847321e+03 2.46989995e+01
v 6.26249194e+03 5.20344870e+03 2.47387205e+01
v 6.25972513e+03 5.18783926e+03 2.35465331e+01
v 6.25948752e+03 5.18803258e+03 2.46655291e+01
v 6.26469860e+03 5.19633550e+03 2.15161729e+01
v 6.26410435e+03 5.19817868e+03 2.11700498e+01
v 6.26520394e+03 5.19423639e+03 2.50383189e+01
v 6.26239673e+03 5.20369821e+03 2.14923648e+01
v 6.26133073e+03 5.20684191e+03 2.08376648e+01
v 6.26291295e+03 5.20172133e+03 2.17182858e+01
v 6.26381878e+03 5.19099913e+03 2.28089314e+01
v 6.26535924e+03 5.19313614e+03 1.95664344e+01
v 6.25954394e+03 5.18779883e+03 1.94080952e+01
v 6.25934789e+03 5.18790974e+03 2.10082968e+01
v 6.26292768e+03 5.19096674e+03 2.09859194e+01
v 6.26346678e+03 5.19994313e+03 2.07611208e+01
v 6.25898000e+03 5.21508965e+03 2.08198223e+01
v 6.26431055e+03 5.19202634e+03 2.79707494e+01
v 6.26493350e+03 5.19226282e+03 2.93007967e+01
v 6.28150000e+03 5.19357140e+03 1.19039115e+01
v 6.28150000e+03 5.19439558e+03 1.18832690e+01
v 6.28150000e+03 5.19902307e+03 1.18540468e+01
v 6.28150000e+03 5.19863350e+03 1.17624690e+01
v 6.28150000e+03 5.20115443e+03 1.21682657e+01
v 6.28150000e+03 5.20093627e+03 1.20898539e+01
v 6.28150000e+03 5.19168982e+03 1.20312028e+01
v 6.28150000e+03 5.19998466e+03 1.18318222e+01
v 6.28150000e+03 5.20444258e+03 1.27148486e+01
v 6.28150000e+03 5.20447543e+03 1.36115326e+01
v 6.28150000e+03 5.20442385e+03 1.42469395e+01
v 6.28150000e+03 5.20834204e+03 1.34275351e+01
v 6.28150000e+03 5.20842747e+03 1.34403343e+01
v 6.28150000e+03 5.20560771e+03 1.40171285e+01
v 6.28150000e+03 5.20460377e+03 1.47367054e+01
v 6.28150000e+03 5.20563890e+03 1.39879064e+01
v 6.28150000e+03 5.20616692e+03 1.30432933e+01
v 6.28150000e+03 5.21029840e+03 1.67243440e+01
v 6.28150000e+03 5.21035896e+03 1.61095712e+01
v 6.28150000e+03 5.21036224e+03 1.70418410e+01
v 6.28150000e+03 5.21012492e+03 1.37304158e+01
v 6.28150000e+03 5.21034905e+03 1.37573206e+01
v 6.28150000e+03 5.20668749e+03 1.30794927e+01
v 6.28150000e+03 5.20805792e+03 1.33864405e+01
v 6.28150000e+03 5.20847332e+03 1.35030314e+01
v 6.28150000e+03 5.20886068e+03 1.39855646e+01
v 6.28150000e+03 5.20404738e+03 1.20235670e+01
v 6.28150000e+03 5.20302983e+03 1.20233687e+01
v 6.28150000e+03 5.20117487e+03 1.21467687e+01
v 6.28150000e+03 5.20233666e+03 1.20494437e+01
v 6.28150000e+03 5.20274305e+03 1.20643623e+01
v 6.28150000e+03 5.20439379e+03 1.22579963e+01
v 6.28150000e+03 5.20427965e+03 1.21019791e+01
v 6.28150000e+03 5.21886913e+03 2.00655831e+01
v 6.28150000e+03 5.21884019e+03 1.98140338e+01
v 6.28150000e+03 5.21889985e+03 2.02648213e+01
v 6.28150000e+03 5.21894379e+03 2.16203068e+01
v 6.28150000e+03 5.21876605e+03 2.05625361e+01
v 6.28150000e+03 5.21859477e+03 1.86941374e+01
v 6.28150000e+03 5.21847918e+03 1.83595244e+01
v 6.28150000e+03 5.21036381e+03 2.11250082e+01
v 6.28150000e+03 5.21033529e+03 2.22003493e+01
v 6.28150000e+03 5.21358901e+03 2.22700623e+01
v 6.28150000e+03 5.21356642e+03 2.22701042e+01
v 6.28150000e+03 5.21331843e+03 2.22654673e+01
v 6.28150000e+03 5.21365426e+03 2.22684128e+01
v 6.28150000e+03 5.21562234e+03 2.22088369e+01
v 6.28150000e+03 5.21360150e+03 2.22918966e+01
v 6.28150000e+03 5.21744945e+03 2.23662130e+01
v 6.28150000e+03 5.21594041e+03 2.22753922e+01
v 6.28150000e+03 5.21896608e+03 2.23547396e+01
v 6.28150000e+03 5.20963996e+03 1.37961943e+01
v 6.28150000e+03 5.21048138e+03 1.39741265e+01
v 6.25000000e+03 5.18725000e+03 3.28934606e+01
v 6.25092483e+03 5.18725000e+03 3.29936237e+01
v 6.25134517e+03 5.18725000e+03 3.29254798e+01
v 6.25511550e+03 5.18725000e+03 3.29328089e+01
v 6.25681005e+03 5.18725000e+03 3.29259321e+01
v 6.25105042e+03 5.18725000e+03 3.30004408e+01
v 6.26913486e+03 5.18725000e+03 1.18556989e+01
v 6.26823546e+03 5.18725000e+03 1.17929876e+01
v 6.25901733e+03 5.18725000e+03 2.34177281e+01
v 6.25915064e+03 5.18725000e+03 2.41547620e+01
v 6.26137472e+03 5.18725000e+03 1.42667464e+01
v 6.26149316e+03 5.18725000e+03 1.52661995e+01
v 6.25901882e+03 5.18725000e+03 1.66431504e+01
v 6.25906374e+03 5.18725000e+03 1.78276276e+01
v 6.25994695e+03 5.18725000e+03 1.62878321e+01
v 6.25931320e+03 5.18725000e+03 1.62174180e+01
v 6.26170993e+03 5.18725000e+03 1.58779319e+01
v 6.26061051e+03 5.18725000e+03 1.61873915e+01
v 6.26557718e+03 5.18725000e+03 1.19351152e+01
v 6.26506050e+03 5.18725000e+03 1.19194786e+01
v 6.26174289e+03 5.18725000e+03 1.20949444e+01
v 6.26232918e+03 5.18725000e+03 1.19108865e+01
v 6.26420206e+03 5.18725000e+03 1.19083576e+01
v 6.26584639e+03 5.18725000e+03 1.18926632e+01
v 6.25912233e+03 5.18725000e+03 2.50128440e+01
v 6.25903797e+03 5.18725000e+03 2.45034143e+01
v 6.25912703e+03 5.18725000e+03 2.78261546e+01
v 6.25906665e+03 5.18725000e+03 2.08476196e+01
v 6.25915241e+03 5.18725000e+03 2.02931541e+01
v 6.25915909e+03 5.18725000e+03 1.84900592e+01
v 6.25931178e+03 5.18725000e+03 3.21453699e+01
v 6.25925030e+03 5.18725000e+03 3.07125003e+01
v 6.25945090e+03 5.18725000e+03 3.02061752e+01
v 6.25933085e+03 5.18725000e+03 2.98174259e+01
v 6.25894651e+03 5.18725000e+03 2.93220394e+01
v 6.25912284e+03 5.18725000e+03 2.82834186e+01
v 6.25909541e+03 5.18725000e+03 2.81156811e+01
v 6.25937976e+03 5.18725000e+03 3.29405648e+01
v 6.26155910e+03 5.18725000e+03 1.28505925e+01
v 6.26163833e+03 5.18725000e+03 1.25447212e+01
v 6.27519114e+03 5.18725000e+03 1.19921870e+01
v 6.27664136e+03 5.18725000e+03 1.20193240e+01
v 6.27049711e+03 5.18725000e+03 1.18705479e+01
v 6.28027729e+03 5.18725000e+03 1.18872916e+01
v 6.28134394e+03 5.18725000e+03 1.19238677e+01
v 6.28150000e+03 5.18725000e+03 1.19292189e+01
v 6.25436306e+03 5.21900000e+03 3.17593011e+01
v 6.25445454e+03 5.21900000e+03 3.16215075e+01
v 6.25477918e+03 5.21900000e+03 3.08305757e+01
v 6.25492756e+03 5.21900000e+03 3.07475119e+01
v 6.25323619e+03 5.21900000e+03 3.24110588e+01
v 6.25000000e+03 5.21900000e+03 3.29329566e+01
v 6.25337456e+03 5.21900000e+03 3.23382689e+01
v 6.25330409e+03 5.21900000e+03 3.24034823e+01
v 6.25336732e+03 5.21900000e+03 3.23893489e+01
v 6.25520921e+03 5.21900000e+03 3.07324082e+01
v 6.25790926e+03 5.21900000e+03 2.26861910e+01
v 6.25784714e+03 5.21900000e+03 2.27531040e+01
v 6.26136535e+03 5.21900000e+03 1.49318433e+01
v 6.26344617e+03 5.21900000e+03 1.47105220e+01
v 6.26783527e+03 5.21900000e+03 1.52152754e+01
v 6.26837855e+03 5.21900000e+03 1.53157664e+01
v 6.26584019e+03 5.21900000e+03 1.50474665e+01
v 6.26679588e+03 5.21900000e+03 1.51509372e+01
v 6.27218850e+03 5.21900000e+03 1.48518255e+01
v 6.27218959e+03 5.21900000e+03 1.48508536e+01
v 6.26754574e+03 5.21900000e+03 1.56043974e+01
v 6.26128228e+03 5.21900000e+03 1.50330372e+01
v 6.26118127e+03 5.21900000e+03 1.56710428e+01
v 6.26103127e+03 5.21900000e+03 1.66837616e+01
v 6.26103042e+03 5.21900000e+03 1.68075488e+01
v 6.26689732e+03 5.21900000e+03 1.63260347e+01
v 6.26733633e+03 5.21900000e+03 1.62942413e+01
v 6.26684097e+03 5.21900000e+03 1.63097676e+01
v 6.26681452e+03 5.21900000e+03 1.62123567e+01
v 6.26860306e+03 5.21900000e+03 1.53740790e+01
v 6.26882787e+03 5.21900000e+03 1.48324754e+01
v 6.26552911e+03 5.21900000e+03 1.47421095e+01
v 6.26404801e+03 5.21900000e+03 1.48637147e+01
v 6.26127972e+03 5.21900000e+03 1.49425175e+01
v 6.26514767e+03 5.21900000e+03 1.48758583e+01
v 6.27063120e+03 5.21900000e+03 1.46799399e+01
v 6.27119729e+03 5.21900000e+03 1.46858177e+01
v 6.26911998e+03 5.21900000e+03 1.46339922e+01
v 6.25779392e+03 5.21900000e+03 2.66063327e+01
v 6.25759432e+03 5.21900000e+03 2.85415792e+01
v 6.25772651e+03 5.21900000e+03 2.50450743e+01
v 6.25797998e+03 5.21900000e+03 2.27344690e+01
v 6.26128937e+03 5.21900000e+03 1.77484661e+01
v 6.26102181e+03 5.21900000e+03 1.69793378e+01
v 6.27076473e+03 5.21900000e+03 1.73934863e+01
v 6.27092492e+03 5.21900000e+03 1.73707490e+01
v 6.26137006e+03 5.21900000e+03 1.81509024e+01
v 6.27130698e+03 5.21900000e+03 1.65729981e+01
v 6.26172789e+03 5.21900000e+03 1.91399710e+01
v 6.26144706e+03 5.21900000e+03 1.97666916e+01
v 6.26090139e+03 5.21900000e+03 2.26637242e+01
v 6.26185896e+03 5.21900000e+03 2.27502773e+01
v 6.26060809e+03 5.21900000e+03 2.26875860e+01
v 6.26266117e+03 5.21900000e+03 2.11133328e+01
v 6.26263508e+03 5.21900000e+03 2.14853333e+01
v 6.26229495e+03 5.21900000e+03 2.25566486e+01
v 6.25684170e+03 5.21900000e+03 3.03401905e+01
v 6.25798064e+03 5.21900000e+03 3.00233643e+01
v 6.27078614e+03 5.21900000e+03 1.72551275e+01
v 6.27076557e+03 5.21900000e+03 1.73675024e+01
v 6.27198646e+03 5.21900000e+03 1.59632426e+01
v 6.27138072e+03 5.21900000e+03 1.58190975e+01
v 6.27165373e+03 5.21900000e+03 1.62350850e+01
v 6.25945966e+03 5.21900000e+03 2.29156843e+01
v 6.25947088e+03 5.21900000e+03 2.29113786e+01
v 6.25759886e+03 5.21900000e+03 2.86192097e+01
v 6.25788879e+03 5.21900000e+03 2.95698056e+01
v 6.27488940e+03 5.21900000e+03 1.51378662e+01
v 6.27503609e+03 5.21900000e+03 1.50472286e+01
v 6.27473694e+03 5.21900000e+03 1.50888070e+01
v 6.27422127e+03 5.21900000e+03 1.49763828e+01
v 6.27637657e+03 5.21900000e+03 1.50513229e+01
v 6.27642636e+03 5.21900000e+03 1.51264688e+01
v 6.27369809e+03 5.21900000e+03 1.49732993e+01
v 6.27334223e+03 5.21900000e+03 1.49864579e+01
v 6.27836459e+03 5.21900000e+03 1.56013507e+01
v 6.27839610e+03 5.21900000e+03 1.51158089e+01
v 6.28058976e+03 5.21900000e+03 1.62030742e+01
v 6.28018231e+03 5.21900000e+03 1.61285660e+01
v 6.27990364e+03 5.21900000e+03 1.62132280e+01
v 6.27809756e+03 5.21900000e+03 1.51601062e+01
v 6.27729274e+03 5.21900000e+03 1.55423462e+01
v 6.27882795e+03 5.21900000e+03 1.65966154e+01
v 6.27917645e+03 5.21900000e+03 1.67655226e+01
v 6.27861860e+03 5.21900000e+03 1.58384546e+01
v 6.27302702e+03 5.21900000e+03 1.50691074e+01
v 6.28148971e+03 5.21900000e+03 1.70079848e+01
v 6.27691395e+03 5.21900000e+03 1.54186840e+01
v 6.27219111e+03 5.21900000e+03 1.48509160e+01
v 6.28136795e+03 5.21900000e+03 1.64630702e+01
v 6.28143922e+03 5.21900000e+03 1.67820387e+01
v 6.28117725e+03 5.21900000e+03 2.22799148e+01
v 6.28150000e+03 5.21900000e+03 2.17743155e+01
v 6.28140527e+03 5.21900000e+03 2.23296382e+01
v 6.28150000e+03 5.21900000e+03 1.70404501e+01
v 6.28150000e+03 5.21900000e+03 2.23502947e+01
vt 0.47913221 0.8793478
vt 0.47340879 0.86423939
vt 0.47866526 0.87695521
vt 0.46410435 0.88577515
vt 0.47701001 0.86554962
vt 0.48418307 0.89641434
vt 0.41524345 0.8775726
vt 0.47625187 0.86302495
vt 0.41512257 0.89658815
vt 0.48421979 0.89699155
vt 0.36683315 0.88988894
vt 0.47481182 0.85960913
vt 0.48454303 0.89786214
vt 0.34134284 0.89910895
vt 0.32805768 0.88605809
vt 0.41891184 0.82151067
vt 0.46436074 0.92140061
vt 0.32633042 0.93482143
vt 0.29684618 0.85979182
vt 0.46646699 0.8368687
vt 0.48489016 0.8987236
vt 0.42644104 0.94703686
vt 0.30500278 0.8907218
vt 0.28035828 0.90237379
vt 0.25056064 0.88183892
vt 0.46064535 0.82058644
vt 0.33277979 0.82431656
vt 0.47322613 0.94981563
vt 0.31632739 0.99292177
vt 0.19844961 0.95594436
vt 0.20096357 0.88306046
vt 0.2437911 0.82556605
vt 0.50143409 0.94133532
vt 0.44752228 0.95632875
vt 0.26482084 0.892286
vt 0.29227456 0.97200304
vt 0.4095048 0.96672064
vt 0.21829106 0.90216649
vt 0.14313482 0.86071956
vt 0.27058196 0.9937104
vt 0.1740267 0.90513051
vt 0.10165533 0.88965178
vt 0.18447781 0.89362419
vt 0.18550588 0.82763648
vt 0.14087743 0.92928553
vt 0.21557534 0.992845
vt 0.14185713 0.89543277
vt 0.039749622 0.83917117
vt 0.13498737 0.82815635
vt 0.15685704 0.9543646
vt 0.11320786 0.9055922
vt 0.19770503 0.99513459
vt 0.092167713 0.83019829
vt 0.040154193 0.88690203
vt 0.16333419 0.96955472
vt 0.072983377 0.91945422
vt 0.19015814 0.97378784
vt 0.065213978 0.89633036
vt 0.055872452 0.82844591
vt 0.016795387 0.86442351
vt 0.039434068 0.90651119
vt 0.0032870087 0.89557499
vt 0.17770484 0.9817192
vt 0.049371198 0.92262435
vt 0.058247425 0.93801725
vt 0.59254754 0.8187561
vt 0.60892659 0.80092406
vt 0.59392434 0.84512508
vt 0.579045 0.85785002
vt 0.60498482 0.78268814
vt 0.6327191 0.83817422
vt 0.5716837 0.83606118
vt 0.57372433 0.91165578
vt 0.6196574 0.75986868
vt 0.59121853 0.77204859
vt 0.58386111 0.96335095
vt 0.64603883 0.7996819
vt 0.54973423 0.83473164
vt 0.5655812 0.89304566
vt 0.61567855 0.74665302
vt 0.61523628 0.97869569
vt 0.64639342 0.86537695
vt 0.54089868 0.87970757
vt 0.55806386 0.92924476
vt 0.55663061 0.96356964
vt 0.64378649 0.69964159
vt 0.61715406 0.70463049
vt 0.59132302 0.99577743
vt 0.62515712 0.9258377
vt 0.67431903 0.84993732
vt 0.53184515 0.87421018
vt 0.5567193 0.78931904
vt 0.54545206 0.95234156
vt 0.54940528 0.9957903
vt 0.62176228 0.727853
vt 0.6795308 0.80170143
vt 0.59487355 0.6819452
vt 0.60850513 0.99577171
vt 0.58192092 0.99578208
vt 0.6498186 0.94667864
vt 0.65608162 0.90443867
vt 0.66502494 0.87477291
vt 0.52855515 0.89520162
vt 0.57124275 0.74968177
vt 0.52674007 0.92178732
vt 0.54806727 0.99579066
vt 0.69673622 0.72535956
vt 0.58018148 0.7135489
vt 0.60272187 0.6507957
vt 0.61446667 0.99577117
vt 0.65503389 0.92512619
vt 0.64111358 0.96835136
vt 0.66213393 0.91428262
vt 0.69016176 0.83720076
vt 0.67968076 0.87932706
vt 0.51603907 0.96031594
vt 0.71885097 0.67414272
vt 0.69959509 0.77169573
vt 0.61932361 0.9957664
vt 0.64953661 0.98018265
vt 0.66970325 0.88594234
vt 0.70090455 0.80199218
vt 0.68651992 0.85450864
vt 0.51265538 0.93593615
vt 0.54722732 0.96773887
vt 0.62255257 0.58945477
vt 0.66941047 0.6242069
vt 0.73260224 0.70753431
vt 0.72608989 0.73965591
vt 0.71075034 0.77973038
vt 0.63623661 0.99166399
vt 0.64848 0.96826679
vt 0.68735921 0.87353802
vt 0.67868912 0.88418889
vt 0.50371522 0.97079217
vt 0.53648037 0.98720419
vt 0.75061649 0.59197009
vt 0.76185375 0.70317936
vt 0.63425517 0.9957605
vt 0.67186147 0.97960991
vt 0.65049493 0.99575454
vt 0.70983851 0.85102963
vt 0.68352747 0.89031559
vt 0.61567968 0.50803965
vt 0.66764796 0.51335287
vt 0.78924358 0.6655395
vt 0.75193697 0.71392697
vt 0.66827208 0.9690811
vt 0.65898252 0.99575078
vt 0.7008673 0.82058442
vt 0.66945136 0.89641827
vt 0.58842885 0.55901635
vt 0.76530898 0.49965525
vt 0.81610692 0.58203799
vt 0.76123565 0.71984565
vt 0.79057133 0.72596753
vt 0.66783774 0.95561016
vt 0.68118572 0.97261596
vt 0.66248977 0.995749
vt 0.70333254 0.80278891
vt 0.72814393 0.83248675
vt 0.67094678 0.90528286
vt 0.65662837 0.49969256
vt 0.56712258 0.54061007
vt 0.69196582 0.49968028
vt 0.81525952 0.65006638
vt 0.79798937 0.68309963
vt 0.6568175 0.93290102
vt 0.72383845 0.81401539
vt 0.72388673 0.85008061
vt 0.69231379 0.90517932
vt 0.61929774 0.49970365
vt 0.67068082 0.49968731
vt 0.56434101 0.49972129
vt 0.78796834 0.49964762
vt 0.8639183 0.59839642
vt 0.81485176 0.67014617
vt 0.80706298 0.67755079
vt 0.81674027 0.71946287
vt 0.6626389 0.93532383
vt 0.64576846 0.96243012
vt 0.68958116 0.9604761
vt 0.71906537 0.79930115
vt 0.7370019 0.81299007
vt 0.73267585 0.83959919
vt 0.70891207 0.90065134
vt 0.68411827 0.93614262
vt 0.61509091 0.49970454
vt 0.59360486 0.49971175
vt 0.55517793 0.4997223
vt 0.84478164 0.49963057
vt 0.86392272 0.61127448
vt 0.86390722 0.56899524
vt 0.86394644 0.68357968
vt 0.81336528 0.7274667
vt 0.67849779 0.94931954
vt 0.70703608 0.91387969
vt 0.60701787 0.49970734
vt 0.54067427 0.51932448
vt 0.8639456 0.67749357
vt 0.8433435 0.75631589
vt 0.69981968 0.93374085
vt 0.7339586 0.79490167
vt 0.86144769 0.49962473
vt 0.86395162 0.69860476
vt 0.85263062 0.74255323
vt 0.863886 0.49962389
vt 0.86395329 0.71347106
vt 0.86063814 0.71728301
vt 0.86396986 0.76208305
vt 0.86395383 0.71719861
vt 0.8639701 0.76571143
vt 0.86396474 0.74618381
vt 0.86395347 0.71687901
vt 0.86396086 0.73535264
vt 0.86396277 0.74170232
vt 0.12297611 0.63594443
vt 0.1204127 0.59607172
vt 0.13983464 0.58447719
vt 0.1493046 0.61138189
vt 0.092511445 0.58689284
vt 0.1656577 0.59620339
vt 0.16348913 0.63721472
vt 0.091176309 0.60206091
vt 0.11255989 0.51391709
vt 0.14927307 0.55237365
vt 0.14290099 0.66515481
vt 0.082742237 0.64668369
vt 0.061093587 0.60691321
vt 0.15344739 0.51435012
vt 0.091001868 0.52094209
vt 0.17616612 0.54701078
vt 0.18079598 0.60867882
vt 0.17661454 0.65880656
vt 0.11982991 0.66991866
vt 0.096208513 0.65659046
vt 0.026532326 0.5901652
vt 0.13542302 0.47783655
vt 0.058251642 0.56288362
vt 0.097112492 0.50316036
vt 0.19277881 0.57520938
vt 0.19453722 0.65353286
vt 0.17335443 0.70021147
vt 0.12901871 0.70622951
vt 0.017094065 0.6350615
vt 0.091036044 0.47583437
vt 0.17205869 0.48136836
vt 0.054768942 0.51263291
vt 0.083285809 0.49202579
vt 0.21075995 0.51577961
vt 0.074523717 0.69620693
vt 0.064731427 0.66580379
vt 0.027345555 0.54944587
vt 0.1005751 0.47125524
vt 0.18764442 0.48869938
vt 0.071862034 0.50554824
vt 0.20734979 0.55149972
vt 0.21053365 0.58940041
vt 0.15605432 0.72176433
vt 0.18914607 0.70130152
vt 0.076069415 0.71017241
vt 0.02791281 0.66041136
vt 0.068934023 0.47002232
vt 0.21417239 0.48754555
vt 0.02571003 0.50561666
vt 0.23204702 0.54850459
vt 0.24310148 0.65228975
vt 0.15384871 0.74122912
vt 0.21030365 0.66737527
vt 0.21170706 0.74197841
vt 0.10361781 0.7398684
vt 0.025285697 0.70499313
vt 0.031378426 0.67388827
vt 0.0061775297 0.66028655
vt 0.26316601 0.50046146
vt 0.25676617 0.56014061
vt 0.23243935 0.5992974
vt 0.20609622 0.72244203
vt 0.061170287 0.73920661
vt 0.27444595 0.52043849
vt 0.25848317 0.49363369
vt 0.26023445 0.59847093
vt 0.24538593 0.69405794
vt 0.22093694 0.71726865
vt 0.025006503 0.73603684
vt 0.30182511 0.50332832
vt 0.28505528 0.56606817
vt 0.30678663 0.58550632
vt 0.26233324 0.66512132
vt 0.28049907 0.64430082
vt 0.24555095 0.71465051
vt 0.0044612475 0.70478642
vt 0.0098149199 0.73895723
vt 0.3320474 0.54062563
vt 0.30865896 0.54906482
vt 0.28856751 0.60479587
vt 0.28078398 0.70616353
vt 0.32233226 0.50869715
vt 0.28460672 0.67841363
vt 0.30016732 0.74419296
vt 0.36600927 0.51971418
vt 0.31062114 0.66773856
vt 0.29229283 0.71464556
vt 0.36248761 0.55765653
vt 0.32262206 0.60174102
vt 0.33074561 0.70885074
vt 0.31218636 0.71619028
vt 0.36507684 0.60189271
vt 0.40147975 0.53466856
vt 0.33828673 0.649719
vt 0.3584494 0.68195486
vt 0.38568869 0.745381
vt 0.39759487 0.58825618
vt 0.34775463 0.71566755
vt 0.37845749 0.63702834
vt 0.36260653 0.71081156
vt 0.40938079 0.63982201
vt 0.374212 0.65494728
vt 0.38110277 0.69271374
vt 0.38392174 0.65965962
vt 0.37412834 0.71097624
vt 0.40008348 0.66310871
vt 0.41860649 0.68623972
vt 0.40906256 0.72637504
vt 0.42568302 0.63247657
vt 0.42718455 0.745713
vt 0.42806983 0.63308871
vt 0.41019565 0.62929595
vt 0.42777261 0.73851043
vt 0.42931899 0.72246909
vt 0.42882884 0.66825008
vt 0.42767385 0.63218594
vt 0.42962667 0.72320902
vt 0.42839158 0.69251752
vt 0.429656 0.72199988
vt 0.11734942 0.23005158
vt 0.11741403 0.19169641
vt 0.13033919 0.20917332
vt 0.14235991 0.23030138
vt 0.10421537 0.19427741
vt 0.13020763 0.17522985
vt 0.15323687 0.21539211
vt 0.13126722 0.25612468
vt 0.10086394 0.17048192
vt 0.094533853 0.22641951
vt 0.1516674 0.25978893
vt 0.11642405 0.25465935
vt 0.091735326 0.19646919
vt 0.09985707 0.26275665
vt 0.14657983 0.16987956
vt 0.14004412 0.28757602
vt 0.12882657 0.30452263
vt 0.072728075 0.17061412
vt 0.086310238 0.2534678
vt 0.077986464 0.2096647
vt 0.15220836 0.3008104
vt 0.10120792 0.30473995
vt 0.076009169 0.26103884
vt 0.11625241 0.31069225
vt 0.086300828 0.28989726
vt 0.0570742 0.17784816
vt 0.06050906 0.21008945
vt 0.14898954 0.34671324
vt 0.11700181 0.34281552
vt 0.08911714 0.30958259
vt 0.038867328 0.17720389
vt 0.058471121 0.29852122
vt 0.061016507 0.256971
vt 0.099616706 0.33861691
vt 0.082537398 0.33608133
vt 0.043252122 0.20081097
vt 0.048957642 0.24553061
vt 0.13361101 0.37443447
vt 0.10257987 0.37371492
vt 0.056219939 0.36669695
vt 0.11547849 0.36314154
vt 0.036981661 0.23078948
vt 0.083530538 0.39668411
vt 0.090136811 0.36712354
vt 0.029603899 0.26575214
vt 0.059836112 0.45269144
vt 0.1025172 0.41030514
vt 0.018658696 0.23703372
vt 0.089127265 0.42363155
vt 0.054991867 0.46532863
vt 0.028175641 0.32139474
vt 0.13123429 0.41967928
vt 0.014728911 0.25309658
vt 0.10111175 0.45237452
vt 0.059308346 0.49629301
vt 0.034516737 0.38029474
vt 0.016716646 0.28491974
vt 0.11609984 0.41868335
vt 0.004911615 0.24184412
vt 0.008011844 0.48374856
vt 0.030411031 0.45186961
vt 0.019151982 0.34954149
vt 0.015632357 0.30964631
vt 0.12571755 0.4396891
vt 0.0054061003 0.26034337
vt 0.0082826484 0.23541653
vt 0.0087759998 0.49619496
vt 0.007332142 0.46136481
vt 0.015877929 0.41978896
vt 0.016417677 0.38830954
vt 0.0053911083 0.30743021
vt 0.14043266 0.4528141
vt 0.0064851111 0.27073938
vt 0.0096326685 0.45361376
vt 0.016295208 0.43896413
vt 0.0047862856 0.34746563
vt 0.0063800421 0.29884672
vt 0.008266991 0.44746715
vt 0.0059695514 0.41627574
vt 0.0059143156 0.42340201
vt 0.0062980242 0.35905188
vt 0.0056035374 0.42076719
vt 0.0059607597 0.37241
vt 0.0038826221 0.43946934
vt 0.018478552 0.36667472
vt 0.0050048735 0.3644073
vt 0.32856739 0.45374912
vt 0.34861025 0.44797879
vt 0.33712846 0.49451053
vt 0.32211527 0.4753921
vt 0.37905121 0.4904865
vt 0.31692168 0.49550045
vt 0.31917134 0.45460057
vt 0.3729479 0.45251751
vt 0.31656024 0.49343383
vt 0.32034677 0.47249985
vt 0.39276713 0.46043903
vt 0.31642959 0.49512684
vt 0.40098524 0.45623881
vt 0.40454891 0.4640618
vt 0.31642431 0.49552655
vt 0.38559148 0.44200015
vt 0.43267649 0.47907525
vt 0.40683964 0.44459093
vt 0.43467376 0.44778734
vt 0.50550658 0.46655393
vt 0.40180659 0.47061539
vt 0.42753351 0.43518382
vt 0.46883211 0.43796533
vt 0.45629162 0.43087077
vt 0.50968432 0.42445523
vt 0.46585518 0.42854512
vt 0.5782457 0.45762253
vt 0.57418078 0.41790944
vt 0.6056363 0.43808246
vt 0.61209458 0.45121837
vt 0.60118717 0.41226453
vt 0.70460165 0.44011259
vt 0.71691358 0.45047337
vt 0.71011835 0.45872575
vt 0.69849575 0.44897056
vt 0.73640275 0.45905024
vt 0.70049012 0.46877784
vt 0.68044871 0.43875456
vt 0.7453301 0.48557937
vt 0.72240895 0.48599291
vt 0.68407965 0.455908
vt 0.68903774 0.43035591
vt 0.75225413 0.47223985
vt 0.66385365 0.4231686
vt 0.6721915 0.45065111
vt 0.7384268 0.49623883
vt 0.75724679 0.48334497
vt 0.66518557 0.44137084
vt 0.76013577 0.47682786
vt 0.63960552 0.42057681
vt 0.63901722 0.42769575
vt 0.64839792 0.41562599
vt 0.633214 0.40101528
vt 0.64507991 0.4028542
vt 0.62226349 0.4080435
vt 0.61185122 0.38919848
vt 0.60814822 0.3681525
vt 0.59853089 0.39765197
vt 0.59475684 0.38730311
vt 0.57965559 0.37080592
vt 0.58044147 0.39399344
vt 0.55032367 0.3496502
vt 0.56595463 0.3886252
vt 0.5560317 0.33428991
vt 0.53380388 0.31869304
vt 0.54223388 0.36566859
vt 0.51842773 0.33937687
vt 0.51543063 0.362369
vt 0.5461483 0.40640926
vt 0.50442988 0.37817293
vt 0.50979424 0.35164702
vt 0.88053739 0.88406795
vt 0.86346781 0.89803326
vt 0.8339842 0.89758301
vt 0.849796 0.87475294
vt 0.86417615 0.91643524
vt 0.8867979 0.87465405
vt 0.82626128 0.89256436
vt 0.87790835 0.90760249
vt 0.8390075 0.91686845
vt 0.88673931 0.85914391
vt 0.82923532 0.87327266
vt 0.83145356 0.92019099
vt 0.89068764 0.92613643
vt 0.86144787 0.93240744
vt 0.87957644 0.85782802
vt 0.89285308 0.86580944
vt 0.81586969 0.89580631
vt 0.86043441 0.85099173
vt 0.82134539 0.91221994
vt 0.87689614 0.9302786
vt 0.84330714 0.92911619
vt 0.86806536 0.85652101
vt 0.89004886 0.86030495
vt 0.80754495 0.86913204
vt 0.83598393 0.839037
vt 0.86235148 0.85030681
vt 0.82720602 0.93048835
vt 0.88122106 0.94495815
vt 0.86610484 0.94079602
vt 0.80546719 0.88967204
vt 0.80751789 0.85177237
vt 0.8562184 0.84751093
vt 0.82829666 0.83659387
vt 0.86167526 0.84951741
vt 0.81376821 0.92118406
vt 0.89406121 0.93919224
vt 0.80280739 0.91395491
vt 0.79598802 0.88052803
vt 0.81365913 0.84406585
vt 0.78547436 0.8685413
vt 0.86041367 0.84905022
vt 0.80320799 0.93822318
vt 0.89696825 0.96308202
vt 0.79136157 0.89890099
vt 0.84841996 0.96168077
vt 0.87816769 0.9475317
vt 0.92708915 0.95680475
vt 0.75670081 0.88547367
vt 0.77650738 0.87468183
vt 0.85193676 0.93907255
vt 0.87223691 0.98779428
vt 0.75382352 0.90796334
vt 0.85721296 0.95620191
vt 0.9235267 0.9820534
vt 0.81155902 0.94813406
vt 0.87621146 0.97773099
vt 0.86266887 0.94160378
vt 0.94776767 0.97897726
vt 0.90319628 0.98296809
vt 0.75900984 0.87241161
vt 0.92314172 0.99681813
vt 0.90743732 0.99171895
vt 0.32596925 0.28570437
vt 0.36395496 0.31227851
vt 0.30815619 0.3488853
vt 0.25430778 0.33119184
vt 0.31080899 0.25113475
vt 0.33062661 0.34785849
vt 0.29476357 0.27291709
vt 0.26140314 0.36277521
vt 0.39384302 0.26696151
vt 0.30569044 0.26688153
vt 0.35349235 0.34891486
vt 0.31860486 0.35890591
vt 0.25429925 0.31988931
vt 0.25431708 0.35494477
vt 0.28475907 0.3683604
vt 0.4088828 0.24872869
vt 0.41629127 0.28188896
vt 0.38477519 0.34282815
vt 0.25429463 0.30205828
vt 0.25432181 0.3597405
vt 0.31694171 0.371508
vt 0.44006065 0.21511585
vt 0.41218823 0.26487672
vt 0.25429457 0.30190426
vt 0.36066344 0.1831218
vt 0.426617 0.23616773
vt 0.42275187 0.25913876
vt 0.2542859 0.27567989
vt 0.40081534 0.18310863
vt 0.3341859 0.18313032
vt 0.25426871 0.22262317
vt 0.43932769 0.25435811
vt 0.27527404 0.18314952
vt 0.26964366 0.18451458
vt 0.27066773 0.18315023
vt 0.25426045 0.19863534
vt 0.2687054 0.18315089
vt 0.25425604 0.18315667
vt 0.94083595 0.92600435
vt 0.99240828 0.9108668
vt 0.96180421 0.94492561
vt 0.99278593 0.8602255
vt 0.9928019 0.91208404
vt 0.99280024 0.90683675
vt 0.99281257 0.94283605
vt 0.99280137 0.91125941
vt 0.99280143 0.91071141
vt 0.97392213 0.95873505
vt 0.99280155 0.91106445
vt 0.99281341 0.94780517
vt 0.95783305 0.97349256
vt 0.99281996 0.97138315
vt 0.97847289 0.98982829
vt 0.99282777 0.99508077
vt 0.98778594 0.99561316
vt 0.99134815 0.99561149
vt 0.99282795 0.99561077
vt 0.52842164 0.60925448
vt 0.48842239 0.61487317
vt 0.51322013 0.60212421
vt 0.51204652 0.62407577
vt 0.47496745 0.6104061
vt 0.49193251 0.62584108
vt 0.5418421 0.62375909
vt 0.46876261 0.62448907
vt 0.48482504 0.63838184
vt 0.55532908 0.6149683
vt 0.51407033 0.63228822
vt 0.44865948 0.62325847
vt 0.55087984 0.62750924
vt 0.53203481 0.63690561
vt 0.4651503 0.63683295
vt 0.4578211 0.63883907
vt 0.520226 0.64504349
vt 0.56792611 0.62598205
vt 0.44636187 0.63708669
vt 0.50416189 0.6575886
vt 0.57037383 0.63315034
vt 0.57340956 0.61175537
vt 0.54691064 0.64699757
vt 0.44050124 0.62908685
vt 0.52541047 0.66277599
vt 0.57026196 0.65692729
vt 0.55432457 0.66419542
vt 0.5178321 0.67091489
vt 0.56134707 0.68451452
vt 0.50703871 0.67325765
vt 0.56647122 0.67135274
vt 0.52400666 0.7440185
vt 0.52572501 0.70278639
vt 0.52676135 0.72729504
vt 0.50227499 0.72155499
vt 0.50421846 0.74475348
vt 0.50789434 0.68790674
vt 0.52433091 0.77964771
vt 0.47409114 0.71353209
vt 0.48353457 0.69937146
vt 0.50067008 0.77540028
vt 0.4731558 0.75215799
vt 0.51081747 0.78566265
vt 0.48245263 0.78464484
vt 0.46825725 0.73705828
vt 0.49821305 0.80818784
vt 0.48796272 0.80153871
vt 0.45361117 0.77601969
vt 0.45884299 0.74676734
vt 0.45698646 0.70930707
vt 0.52645272 0.80871147
vt 0.45540702 0.80687809
vt 0.44522247 0.75292265
vt 0.44154996 0.79828554
vt 0.4816438 0.80572659
vt 0.4423781 0.71774304
vt 0.44644883 0.74779153
vt 0.44262508 0.77020085
vt 0.443427 0.7819258
vt 0.44464982 0.80829751
vt 0.44156867 0.72276694
vt 0.44099531 0.72632569
vt 0.4423207 0.77410126
vt 0.44199663 0.77718478
vt 0.44095343 0.80064499
vt 0.44087821 0.72683918
vt 0.87545401 0.45827216
vt 0.86781389 0.4680714
vt 0.86439967 0.45371294
vt 0.86465257 0.45283604
vt 0.85015666 0.46345872
vt 0.87544262 0.45824099
vt 0.86058307 0.44977695
vt 0.85304743 0.47792798
vt 0.87546229 0.45825291
vt 0.85598916 0.4468196
vt 0.83416831 0.49704206
vt 0.83366877 0.46014249
vt 0.84923524 0.44261044
vt 0.82874435 0.46702683
vt 0.82375598 0.44694853
vt 0.82728767 0.46405613
vt 0.84257889 0.43913889
vt 0.81086576 0.45800459
vt 0.83826351 0.43910855
vt 0.81782097 0.47220379
vt 0.80071402 0.43035263
vt 0.81833309 0.42815942
vt 0.8406108 0.43821037
vt 0.80996341 0.47021055
vt 0.79978746 0.45255655
vt 0.83871686 0.43646389
vt 0.79103708 0.47543585
vt 0.78729254 0.44193989
vt 0.80958706 0.42129099
vt 0.82141227 0.4256559
vt 0.78202242 0.45895928
vt 0.78580868 0.42223454
vt 0.81447661 0.42358685
vt 0.79919595 0.41242069
vt 0.76351929 0.46494508
vt 0.79332983 0.40886998
vt 0.77756411 0.44038683
vt 0.82076979 0.42571861
vt 0.76711887 0.45784461
vt 0.75336826 0.44419765
vt 0.10394099 0.99678528
vt 0.083199337 0.99034953
vt 0.09617915 0.97734278
vt 0.10702078 0.97147489
vt 0.04928422 0.99403608
vt 0.081697866 0.97021389
vt 0.12251474 0.98809749
vt 0.10010328 0.94564706
vt 0.12066312 0.96369398
vt 0.043063525 0.97025806
vt 0.1239794 0.94253004
vt 0.099567473 0.94569087
vt 0.003597826 0.99337083
vt 0.042817697 0.95907503
vt 0.085161075 0.9502241
vt 0.0085820165 0.96605128
vt 0.09908323 0.80645001
vt 0.093297623 0.79682285
vt 0.11064881 0.78357077
vt 0.11749173 0.79426056
vt 0.056849957 0.80272871
vt 0.094678827 0.77520359
vt 0.11637744 0.7880401
vt 0.11871621 0.80763185
vt 0.070812121 0.77807903
vt 0.083290659 0.76407319
vt 0.10345867 0.77099138
vt 0.11530776 0.78287399
vt 0.058827247 0.77545691
vt 0.11464041 0.76521939
vt 0.11466558 0.76523936
vt 0.0037721239 0.7902447
vt 0.035877306 0.78004825
vt 0.11466208 0.76522118
vt 0.0050829486 0.77826095
vt 0.044661369 0.77042234
vt 0.024008414 0.75051868
vt 0.032519858 0.77452511
vt 0.037170615 0.76504695
vt 0.88857698 0.74897361
vt 0.87845272 0.75818062
vt 0.88210136 0.70355606
vt 0.9092899 0.72042978
vt 0.8888644 0.79794604
vt 0.91975862 0.76089817
vt 0.91726118 0.71074986
vt 0.88340694 0.80931449
vt 0.90554303 0.79598355
vt 0.92739141 0.71043897
vt 0.92121339 0.80257648
vt 0.929524 0.74168551
vt 0.94728082 0.77885205
vt 0.93165743 0.72541165
vt 0.93664676 0.74741948
vt 0.94697678 0.78463328
vt 0.93342745 0.75699031
vt 0.93257314 0.73174357
vt 0.94307274 0.80109352
vt 0.93808711 0.8038013
vt 0.1340524 0.76890248
vt 0.15175083 0.77512234
vt 0.13052833 0.79550594
vt 0.150675 0.80435658
vt 0.12874924 0.80911827
vt 0.17053424 0.80748689
vt 0.19335037 0.77616835
vt 0.20967023 0.80849582
vt 0.21239594 0.77768946
vt 0.21606 0.77053964
vt 0.21690835 0.79158211
vt 0.21484616 0.76819193
vt 0.21657252 0.77762628
vt 0.21634863 0.80152702
vt 0.21825798 0.8090294
vt 0.88067627 0.60274673
vt 0.89209551 0.59488523
vt 0.87984061 0.61972404
vt 0.93547153 0.60814679
vt 0.88229561 0.65515679
vt 0.88276374 0.68403745
vt 0.96531183 0.66596174
vt 0.96561372 0.68270457
vt 0.96533519 0.60230398
vt 0.43957269 0.99178714
vt 0.42049873 0.98204458
vt 0.42867163 0.97127414
vt 0.44982174 0.97947651
vt 0.40115508 0.9937793
vt 0.40830475 0.9832356
vt 0.38613039 0.97815913
vt 0.36986911 0.99697369
vt 0.36303014 0.9821921
vt 0.36481994 0.99332833
vt 0.93606746 0.8273828
vt 0.91652435 0.81848246
vt 0.98063362 0.82951099
vt 0.97098929 0.83579814
vt 0.91084063 0.82704926
vt 0.97974217 0.84853256
vt 0.96631026 0.87191772
vt 0.91192257 0.86057103
vt 0.9946208 0.85198271
vt 0.93690008 0.86536729
vt 0.98271137 0.86610097
vt 0.81236321 0.84013778
vt 0.80593324 0.81757855
vt 0.83448714 0.81292981
vt 0.77333105 0.83688617
vt 0.81902796 0.80620992
vt 0.78449011 0.8094843
vt 0.82836109 0.79361242
vt 0.81426418 0.79798275
vt 0.77108979 0.80314475
vt 0.78440797 0.79664773
vt 0.75741065 0.81878525
vt 0.75718242 0.81815773
vt 0.76475334 0.83643311
vt 0.75331181 0.802342
vt 0.2393828 0.80947191
vt 0.22291023 0.78721058
vt 0.26145238 0.77750713
vt 0.28811476 0.77354443
vt 0.28412387 0.80085921
vt 0.29790235 0.78095603
vt 0.29855236 0.80279708
vt 0.76723439 0.92863894
vt 0.76124573 0.94124591
vt 0.75775796 0.92471433
vt 0.7585547 0.92040592
vt 0.76959831 0.93877542
vt 0.72334611 0.91374326
vt 0.7808165 0.92810911
vt 0.7966038 0.94425881
vt 0.76564521 0.95269185
vt 0.78002119 0.95217609
vt 0.78422952 0.96543932
vt 0.89760709 0.89734328
vt 0.91578269 0.91940689
vt 0.89674491 0.91013879
vt 0.90805048 0.89202994
vt 0.8951714 0.91698885
vt 0.896276 0.87681687
vt 0.91887826 0.890558
vt 0.91524523 0.93439174
vt 0.91903895 0.87230283
vt 0.90313911 0.92868
vt 0.89570284 0.87211525
vt 0.90794843 0.93456137
vt 0.89494663 0.86528307
vt 0.98000437 0.76779717
vt 0.9725523 0.77537775
vt 0.96445739 0.75279534
vt 0.98274642 0.74072421
vt 0.97565651 0.78642291
vt 0.94969386 0.75298607
vt 0.95896256 0.74091196
vt 0.95831656 0.77167964
vt 0.95994985 0.78009391
vt 0.14744982 0.96759391
vt 0.16005233 0.96287775
vt 0.17096226 0.98106396
vt 0.16355599 0.99019545
vt 0.15792623 0.98732913
vt 0.17430775 0.99702668
vt 0.14578335 0.97943842
vt 0.15407495 0.98693222
vt 0.13281155 0.97229582
vt 0.14402334 0.98971665
vt 0.13632011 0.97628069
vt 0.13519976 0.96404397
vt 0.13920875 0.98605251
vt 0.13324974 0.96685356
vt 0.12912419 0.96589339
vt 0.36280403 0.78451777
vt 0.35738838 0.76410604
vt 0.37025332 0.76686287
vt 0.36779004 0.78175437
vt 0.35124192 0.78246307
vt 0.38292047 0.76839495
vt 0.34222609 0.80079067
vt 0.32699859 0.77331698
vt 0.34171113 0.79003692
vt 0.31750524 0.7812354
vt 0.31577399 0.79281026
vt 0.33339167 0.8083576
vt 0.43815646 0.61224329
vt 0.42949301 0.60298383
vt 0.43839297 0.58092821
vt 0.44710803 0.60151255
vt 0.42501891 0.57298589
vt 0.44432229 0.62200022
vt 0.45091128 0.57408178
vt 0.41606593 0.58373654
vt 0.42822447 0.55711073
vt 0.46342158 0.60688472
vt 0.44402272 0.56077886
vt 0.41521192 0.57286561
vt 0.41043004 0.56000853
vt 0.46337682 0.61194474
vt 0.45759717 0.56261623
vt 0.46338969 0.5976572
vt 0.46342322 0.56160259
vt 0.46333551 0.56533253
vt 0.4915984 0.84757143
vt 0.49231997 0.86474091
vt 0.4730542 0.85104609
vt 0.47401279 0.84369063
vt 0.50409812 0.85262012
vt 0.49971732 0.87054455
vt 0.51804644 0.8679629
vt 0.53195602 0.85852236
vt 0.726735 0.96801722
vt 0.71333271 0.98476952
vt 0.70945889 0.97429812
vt 0.72826904 0.97441655
vt 0.69197869 0.97891551
vt 0.71359152 0.98499751
vt 0.73205411 0.97189659
vt 0.69213814 0.99477118
vt 0.71344668 0.98511487
vt 0.74440879 0.96468478
vt 0.69435644 0.99596572
vt 0.69344461 0.99623978
vt 0.044299815 0.95130908
vt 0.027748326 0.93674576
vt 0.047573715 0.9238686
vt 0.047241233 0.93394613
vt 0.019942662 0.93911517
vt 0.017798197 0.91528392
vt 0.046746708 0.9499113
vt 0.036779106 0.95306683
vt 0.047566656 0.92248964
vt 0.046742402 0.95181012
vt 0.0045096437 0.92380106
vt 0.046712562 0.95446765
vt 0.047561981 0.96544421
vt 0.042686198 0.82807398
vt 0.026864257 0.81570852
vt 0.043997325 0.80195946
vt 0.027501661 0.83486891
vt 0.0053093717 0.79707778
vt 0.0041333698 0.83982587
vt 0.7356723 0.96389806
vt 0.74528998 0.94761205
vt 0.76489145 0.95079005
vt 0.72487891 0.92609859
vt 0.75533336 0.93664449
vt 0.72304034 0.94377416
vt 0.74735528 0.9285695
vt 0.12130278 0.97551596
vt 0.12608023 0.95809257
vt 0.12512764 0.99673462
vt 0.46786135 0.995134
vt 0.45672286 0.97876537
vt 0.45924422 0.96069419
vt 0.47328046 0.99585527
vt 0.48541832 0.97575486
vt 0.49417549 0.99435592
vt 0.50142515 0.98883694
vt 0.50597906 0.97337615
vt 0.50150013 0.96051586
vt 0.7906841 0.97951114
vt 0.7845462 0.96606255
vt 0.8049174 0.96513045
vt 0.77439225 0.9780525
vt 0.76898551 0.96199554
vt 0.8295424 0.9604612
vt 0.80782831 0.96479779
vt 0.82498932 0.95816678
vt 0.82246661 0.98123276
vt 0.80144608 0.95728326
vt 0.83305079 0.96620929
vt 0.81155223 0.97905993
vt 0.75036806 0.96217245
vt 0.74213117 0.97714567
vt 0.72249162 0.99583077
vt 0.35131541 0.99569303
vt 0.33183736 0.99096376
vt 0.36118048 0.98288625
vt 0.011672206 0.96539891
vt 0.0033961344 0.95003891
vt 0.020074245 0.94474894
vt 0.03233261 0.9470855
vt 0.51810867 0.98994035
vt 0.50404626 0.99508882
vt 0.51015669 0.97340578
vt 0.53281897 0.996373
vt 0.83179396 0.97033423
vt 0.8473745 0.97855842
vt 0.85961074 0.99592251
vt 0.90453833 0.9846704
vt 0.88807344 0.99699473
vt 0.87810493 0.98464561
vt 0.14359196 0.94067132
vt 0.14133176 0.94802123
vt 0.13612629 0.94317627
vt 0.15284558 0.94945759
vt 0.12873688 0.95456928
vt 0.1484535 0.95842314
vt 0.13506293 0.96480066
vt 0.96534175 0.98153281
vt 0.95317215 0.99592525
vt 0.94129878 0.98533261
vt 0.46490717 0.99066299
vt 0.45059133 0.99586076
vt 0.45214906 0.9812575
vt 0.44073668 0.99632847
vt 0.47303873 0.95905757
vt 0.48710322 0.96668857
vt 0.47194439 0.98105049
vt 0.13539182 0.98444599
vt 0.12887412 0.99257833
vt 0.113209 0.99518287
vt 0.17671052 0.99571699
vt 0.18553665 0.97698373
vt 0.17921375 0.99571639
vt 0.17682748 0.99522448
vt 0.67845786 0.99263597
vt 0.67974538 0.9777779
vt 0.68643904 0.98934221
vt 0.68354142 0.99626333
vt 0.67607993 0.98042023
vt 0.69044209 0.98628271
vt 0.67747486 0.99446696
vt 0.6763314 0.99274856
vt 0.6766963 0.99400181
vt 0.014235517 0.98961276
vt 0.0094553167 0.99243605
vt 0.0031732079 0.99530518
vt 0.12800598 0.99626005
vt 0.13508736 0.98628527
vt 0.1395869 0.99117887
vt 0.14463927 0.99127942
vt 0.15049115 0.98731667
vt 0.1528202 0.99596536
vt 0.016008742 0.99402922
vt 0.019780667 0.99526221
vt 0.016189883 0.99542373
usemtl Tile_+032_+021_L19_000221_0
f 648/1 238/2 649/3
f 241/7 242/4 243/9
f 249/555 246/556 257/557
f 254/973 251/974 6/975
f 27/29 258/40 268/36
f 262/18 268/36 256/30
f 268/36 258/40 256/30
f 269/24 262/18 256/30
f 246/556 267/565 266/560
f 266/560 264/566 257/557
f 267/50 256/30 266/55
f 256/30 265/57 266/55
f 257/1018 264/1019 265/1020
f 255/718 259/719 250/720
f 256/30 258/40 255/46
f 254/569 257/557 265/575
f 258/722 259/719 255/718
f 257/557 254/569 6/562
f 12/561 3/558 13/567
f 9/977 251/974 21/978
f 27/29 268/36 262/18
f 262/18 244/22 27/29
f 243/9 244/22 262/18
f 260/11 243/9 261/14
f 23/721 251/726 254/724
f 23/721 255/718 250/720
f 16/723 259/719 258/722
f 3/1044 29/1045 13/1046
f 3/558 257/557 6/562
f 249/555 257/557 3/558
f 256/30 255/46 254/52
f 265/57 256/30 254/52
f 254/724 255/718 23/721
f 266/560 257/557 246/556
f 262/18 261/14 243/9
f 241/7 260/11 263/15
f 269/24 261/14 262/18
f 260/11 261/14 263/15
f 15/731 253/727 252/733
f 28/1011 30/1012 25/1013
f 253/727 16/723 258/722
f 22/725 16/723 20/729
f 16/723 253/727 15/731
f 5/976 251/974 9/977
f 27/730 252/733 253/727
f 23/721 250/720 16/723
f 250/720 259/719 16/723
f 17/585 19/590 240/588
f 240/588 19/590 602/592
f 247/1008 248/1009 12/1010
f 247/559 249/555 248/564
f 249/555 12/561 248/564
f 246/556 249/555 247/559
f 247/559 17/585 605/584
f 604/587 240/588 607/589
f 12/561 249/555 3/558
f 17/585 247/559 12/561
f 8/34 244/22 31/28
f 243/9 245/17 244/22
f 31/28 244/22 245/17
f 652/21 245/17 655/13
f 655/13 243/9 656/10
f 243/9 242/4 654/6
f 242/4 241/7 238/2
f 651/8 241/7 657/12
f 21/728 251/726 23/721
f 265/57 264/63 266/55
f 27/730 253/727 258/722
f 243/9 260/11 241/7
f 237/217 545/218 151/219
f 236/757 233/758 110/759
f 193/336 221/337 192/338
f 133/66 174/67 184/68
f 610/411 532/397 611/416
f 191/358 222/345 232/354
f 33/344 205/340 215/348
f 224/347 193/336 195/343
f 33/152 35/144 34/126
f 203/352 231/359 223/357
f 54/843 78/844 55/845
f 154/86 152/95 157/87
f 154/86 179/127 180/117
f 154/86 157/87 166/109
f 178/128 162/107 180/117
f 112/105 122/103 164/83
f 40/143 46/162 137/151
f 154/86 175/77 153/74
f 137/151 46/162 93/168
f 93/168 94/180 59/157
f 95/132 117/120 107/112
f 45/114 41/123 182/90
f 62/182 84/196 85/202
f 51/187 85/202 84/196
f 171/288 478/296 225/282
f 146/232 226/222 148/226
f 59/157 94/180 51/187
f 186/161 47/142 44/150
f 482/364 227/363 522/373
f 612/854 212/855 613/856
f 217/383 212/377 219/380
f 217/383 216/388 614/394
f 618/858 217/861 619/863
f 207/362 218/368 213/372
f 197/339 193/336 192/338
f 199/811 34/812 166/813
f 222/345 191/358 209/355
f 207/362 209/355 191/358
f 196/820 199/811 130/817
f 33/344 198/341 221/337
f 193/336 222/345 205/340
f 199/811 196/820 192/818
f 221/337 193/336 205/340
f 215/348 209/355 206/353
f 215/348 205/340 222/345
f 213/372 212/377 210/371
f 211/857 210/860 212/855
f 209/355 207/362 208/361
f 33/344 215/348 206/353
f 198/341 33/344 34/350
f 199/811 168/814 130/817
f 35/144 33/152 206/164
f 206/164 214/199 622/190
f 35/144 206/164 623/174
f 200/391 202/386 201/375
f 189/367 191/358 190/360
f 192/338 196/342 197/339
f 199/811 198/815 34/812
f 197/339 196/342 194/346
f 130/248 194/253 196/265
f 108/89 92/100 106/81
f 662/141 117/120 663/149
f 664/119 102/131 665/139
f 110/135 113/124 114/116
f 184/68 174/67 183/71
f 129/249 159/246 125/225
f 172/275 165/281 188/286
f 172/275 142/280 140/250
f 164/83 188/91 165/78
f 133/66 187/72 156/75
f 160/96 176/118 161/130
f 86/453 103/454 61/455
f 61/455 71/456 86/453
f 124/69 184/68 99/73
f 108/89 183/71 135/82
f 91/111 108/89 123/113
f 99/73 184/68 101/76
f 108/89 106/81 183/71
f 184/68 183/71 101/76
f 137/801 123/802 134/803
f 71/456 85/458 38/462
f 41/123 42/115 182/90
f 44/150 177/169 186/161
f 88/102 135/82 182/90
f 42/115 88/102 182/90
f 45/114 44/150 47/142
f 161/849 54/843 77/846
f 160/96 77/122 45/114
f 47/142 53/133 45/114
f 48/891 47/892 185/893
f 105/422 67/423 69/424
f 160/96 45/114 182/90
f 160/96 182/90 175/77
f 54/843 72/847 78/844
f 44/150 55/160 177/169
f 160/96 161/130 77/122
f 163/129 161/130 176/118
f 110/309 115/304 113/301
f 175/77 182/90 135/82
f 183/71 175/77 135/82
f 156/75 173/70 133/66
f 173/70 153/74 174/67
f 174/67 133/66 173/70
f 181/92 156/75 165/78
f 183/71 174/67 175/77
f 157/87 158/97 166/109
f 169/247 170/255 126/230
f 180/117 162/107 154/86
f 175/77 174/67 153/74
f 176/118 162/107 163/129
f 161/849 74/850 54/843
f 160/96 175/77 154/86
f 140/250 181/264 172/275
f 158/254 127/238 159/246
f 156/75 157/87 155/80
f 173/70 155/80 153/74
f 154/86 153/74 152/95
f 155/994 152/995 153/996
f 157/87 152/95 155/80
f 156/75 155/80 173/70
f 127/238 169/247 126/230
f 74/836 161/837 163/838
f 158/97 157/87 156/75
f 166/263 158/254 159/246
f 159/246 129/249 166/263
f 166/813 167/816 168/814
f 129/819 128/821 167/816
f 166/813 129/819 167/816
f 127/238 125/225 159/246
f 181/264 140/250 170/255
f 165/78 187/72 124/69
f 143/276 139/266 140/250
f 164/83 98/79 138/84
f 134/101 108/89 135/82
f 88/102 134/101 135/82
f 137/151 87/121 40/143
f 88/102 87/121 134/101
f 124/69 187/72 133/66
f 133/66 184/68 124/69
f 125/225 132/231 131/240
f 125/970 131/971 129/972
f 125/225 127/238 126/230
f 51/187 46/162 36/171
f 91/806 123/802 93/805
f 99/73 98/79 124/69
f 121/294 122/298 113/301
f 142/280 172/275 188/286
f 164/83 122/103 188/91
f 125/225 126/230 151/219
f 148/226 151/219 126/230
f 126/230 146/232 148/226
f 145/241 146/232 140/250
f 139/266 144/258 141/257
f 147/287 142/280 120/295
f 121/294 120/295 142/280
f 126/230 140/250 146/232
f 140/250 139/266 141/257
f 112/105 138/84 100/93
f 113/124 112/105 114/116
f 136/808 95/810 107/809
f 107/112 117/120 106/81
f 92/100 107/112 106/81
f 59/157 84/196 62/182
f 92/807 93/805 136/808
f 69/734 83/735 81/736
f 107/809 92/807 136/808
f 63/140 117/120 95/132
f 95/132 60/148 63/140
f 51/187 94/180 46/162
f 119/941 116/942 669/943
f 115/304 121/294 113/301
f 109/763 111/760 110/759
f 119/941 109/948 96/945
f 118/1035 102/1036 668/1037
f 665/1039 118/1035 676/1042
f 663/149 63/140 677/159
f 97/85 101/76 660/94
f 101/76 183/71 106/81
f 96/125 114/116 100/93
f 100/951 97/946 96/945
f 112/105 113/124 122/103
f 99/73 138/84 98/79
f 95/132 136/181 93/168
f 93/805 92/807 91/806
f 59/157 95/132 93/168
f 59/157 60/148 95/132
f 94/180 93/168 46/162
f 92/100 108/89 91/111
f 134/101 123/113 108/89
f 61/455 67/457 56/460
f 106/81 117/120 102/131
f 683/468 105/464 684/470
f 62/1021 57/1022 58/1023
f 678/984 56/985 685/986
f 63/987 57/990 56/985
f 67/457 61/455 103/454
f 40/143 36/171 46/162
f 87/121 88/102 42/115
f 37/186 38/197 36/171
f 39/897 43/899 52/895
f 62/461 85/458 61/455
f 63/140 60/148 58/158
f 57/1022 63/1024 58/1023
f 80/744 79/747 81/736
f 69/424 90/427 68/425
f 65/738 83/735 69/734
f 83/735 89/739 81/736
f 89/739 80/744 81/736
f 67/423 103/429 65/426
f 64/432 66/435 65/426
f 62/461 61/455 56/460
f 56/460 57/467 62/461
f 51/187 84/196 59/157
f 60/148 59/157 58/158
f 38/462 37/466 49/459
f 52/895 43/899 53/898
f 38/197 85/202 51/187
f 50/465 49/459 39/469
f 42/115 75/134 87/121
f 48/891 52/895 47/892
f 53/898 43/899 42/900
f 51/187 36/171 38/197
f 39/897 37/902 40/901
f 37/466 39/469 49/459
f 39/469 70/471 50/465
f 55/845 77/846 54/843
f 70/471 76/473 50/465
f 47/892 52/895 53/898
f 40/1047 75/1048 42/1049
f 43/899 39/897 42/900
f 77/846 55/845 45/848
f 74/850 73/852 72/847
f 55/160 44/150 45/114
f 45/114 53/133 41/123
f 53/133 42/115 41/123
f 37/186 36/171 40/143
f 40/901 42/900 39/897
f 52/895 48/891 39/897
f 609/163 35/144 625/172
f 179/127 34/126 35/144
f 166/813 168/814 199/811
f 338/137 180/117 179/127
f 179/127 154/86 34/126
f 32/145 179/127 35/144
f 32/145 338/137 179/127
f 181/264 165/281 172/275
f 525/292 470/272 473/293
f 533/420 477/405 626/418
f 235/761 236/757 234/765
f 546/308 444/310 447/305
f 483/330 440/323 686/334
f 246/556 495/563 494/571
f 521/384 491/381 502/378
f 263/15 493/19 241/7
f 459/306 437/311 484/314
f 462/47 229/42 503/31
f 507/23 512/35 504/25
f 511/45 510/41 256/30
f 230/39 514/49 518/44
f 471/382 547/393 548/399
f 464/243 466/260 463/270
f 525/387 548/399 547/393
f 526/767 234/765 452/762
f 526/929 453/930 234/931
f 87/804 137/801 134/803
f 522/274 536/262 523/273
f 437/311 444/310 450/315
f 145/241 144/258 465/242
f 226/222 474/223 539/220
f 537/233 145/241 465/242
f 228/252 227/245 481/228
f 171/288 120/295 121/294
f 150/239 149/221 204/237
f 151/219 149/221 125/225
f 187/72 165/78 156/75
f 236/757 110/759 111/760
f 115/304 546/308 171/288
f 546/308 115/304 233/313
f 447/305 171/288 546/308
f 121/294 115/304 171/288
f 235/328 239/325 451/317
f 233/758 236/757 235/761
f 451/317 450/315 233/313
f 444/310 546/308 450/315
f 239/936 235/933 453/930
f 440/323 239/325 659/327
f 446/322 451/317 440/323
f 445/320 439/319 437/311
f 149/221 545/218 237/217
f 611/416 533/420 627/421
f 190/360 544/365 528/370
f 543/398 542/392 202/386
f 542/392 543/398 629/406
f 615/400 542/392 631/408
f 202/386 219/380 201/375
f 534/229 149/221 535/224
f 189/367 201/375 213/372
f 534/229 204/237 149/221
f 151/219 545/218 149/221
f 194/253 150/239 204/237
f 201/375 189/367 528/370
f 203/352 541/351 204/356
f 190/360 220/349 223/357
f 220/349 224/347 223/357
f 213/372 201/375 219/380
f 544/365 190/360 223/357
f 220/349 232/354 222/345
f 219/380 542/392 216/388
f 213/372 218/368 189/367
f 216/388 217/383 219/380
f 213/372 219/380 212/377
f 191/358 189/367 218/368
f 191/358 218/368 207/362
f 150/239 194/253 130/248
f 220/349 190/360 191/358
f 541/351 203/352 195/343
f 162/107 176/118 160/96
f 224/347 203/352 223/357
f 191/358 232/354 220/349
f 132/231 149/221 150/239
f 224/347 195/343 203/352
f 181/264 170/255 169/247
f 692/1031 69/1032 693/1033
f 48/472 70/471 39/469
f 65/738 82/742 83/735
f 141/257 145/241 140/250
f 147/287 143/276 142/280
f 454/768 119/766 690/770
f 171/288 447/305 448/302
f 452/762 454/768 696/771
f 151/219 539/220 237/217
f 537/233 474/223 226/222
f 537/233 226/222 145/241
f 139/266 225/282 144/258
f 225/282 143/276 171/288
f 225/282 538/277 144/258
f 482/364 231/359 203/352
f 237/217 535/224 149/221
f 524/374 502/378 529/379
f 443/269 465/242 476/267
f 528/370 544/365 540/369
f 543/398 202/386 532/397
f 465/242 531/234 474/223
f 524/374 540/369 482/364
f 144/258 538/277 476/267
f 227/245 204/237 534/229
f 482/364 203/352 227/363
f 522/274 523/273 470/272
f 474/223 237/217 539/220
f 524/374 529/379 528/370
f 528/370 540/369 524/374
f 517/227 474/223 531/234
f 448/302 475/290 171/288
f 480/235 237/217 517/227
f 465/242 474/223 537/233
f 225/282 476/267 538/277
f 532/397 202/386 200/391
f 533/967 532/968 477/969
f 455/297 460/307 506/303
f 200/391 477/405 532/397
f 230/39 493/19 503/31
f 516/244 517/227 464/243
f 517/227 237/217 474/223
f 480/235 530/236 237/217
f 528/370 529/379 502/378
f 502/378 201/375 528/370
f 522/373 527/376 482/364
f 227/245 536/262 522/274
f 536/262 228/252 523/273
f 228/252 536/262 227/245
f 237/217 530/236 481/228
f 467/261 468/251 516/244
f 526/767 452/762 701/769
f 525/387 547/393 471/382
f 502/378 524/374 471/382
f 522/373 525/387 471/382
f 228/252 468/251 523/273
f 468/251 470/272 523/273
f 525/292 522/274 470/272
f 521/384 471/382 472/389
f 521/384 502/378 471/382
f 467/261 513/279 470/272
f 469/285 470/272 513/279
f 516/244 468/251 480/235
f 488/396 486/410 487/404
f 443/269 457/284 515/278
f 464/243 518/268 519/259
f 519/259 518/268 516/244
f 480/235 517/227 516/244
f 516/244 464/243 519/259
f 517/227 531/234 464/243
f 531/234 465/242 464/243
f 468/251 467/261 470/272
f 514/271 513/279 467/261
f 472/389 548/399 473/407
f 525/387 473/407 548/399
f 473/48 469/59 513/53
f 473/48 229/42 500/54
f 466/260 515/278 463/270
f 230/39 229/42 473/48
f 230/39 463/32 493/19
f 443/269 442/283 457/284
f 230/39 513/53 514/49
f 516/244 518/268 514/271
f 500/54 491/62 472/60
f 472/389 491/381 521/384
f 472/60 473/48 500/54
f 256/30 510/41 509/38
f 267/50 511/45 256/30
f 507/23 261/14 269/24
f 246/556 511/572 267/565
f 511/45 494/56 461/51
f 246/556 494/571 511/572
f 510/41 511/45 461/51
f 461/51 462/47 510/41
f 269/24 509/38 504/25
f 256/30 509/38 269/24
f 504/1005 512/1006 269/1007
f 493/19 263/15 504/25
f 263/15 507/23 504/25
f 269/24 512/35 507/23
f 261/14 507/23 263/15
f 437/311 459/306 448/302
f 448/302 459/306 455/297
f 479/299 448/302 455/297
f 460/307 505/300 506/303
f 436/316 441/321 438/312
f 455/297 506/303 505/300
f 463/32 505/27 493/19
f 463/270 456/291 455/297
f 456/291 457/284 442/283
f 456/291 442/283 455/297
f 479/299 455/297 458/289
f 463/270 515/278 457/284
f 518/44 463/32 230/39
f 508/43 510/41 462/47
f 509/38 510/41 508/43
f 503/31 508/43 462/47
f 493/19 504/25 503/31
f 504/25 509/38 503/31
f 508/43 503/31 509/38
f 229/42 230/39 503/31
f 496/570 495/563 247/559
f 229/42 461/51 501/58
f 477/405 200/391 487/404
f 461/51 494/56 499/61
f 498/65 497/64 494/56
f 499/954 520/955 500/956
f 488/396 489/385 633/403
f 499/61 501/58 461/51
f 491/958 500/956 520/955
f 229/42 501/58 500/54
f 496/570 492/580 497/581
f 500/54 501/58 499/61
f 499/586 497/581 492/580
f 499/61 494/56 497/64
f 491/958 520/955 492/957
f 490/390 489/385 491/381
f 491/381 489/385 201/375
f 502/378 491/381 201/375
f 201/375 489/385 200/391
f 489/385 488/396 200/391
f 486/410 488/396 635/413
f 487/404 486/410 637/415
f 628/414 487/404 638/417
f 490/576 247/559 606/579
f 498/577 494/571 495/563
f 498/577 495/563 496/570
f 498/577 496/570 497/581
f 247/559 495/563 246/556
f 492/580 496/570 490/576
f 490/576 496/570 247/559
f 241/7 493/19 438/16
f 505/27 438/16 493/19
f 657/12 438/16 704/20
f 485/324 440/323 483/330
f 440/323 439/319 446/322
f 439/319 441/321 436/316
f 439/319 440/323 485/324
f 459/306 484/314 438/312
f 438/312 484/314 436/316
f 236/757 111/760 452/762
f 222/345 193/336 220/349
f 223/357 231/359 482/364
f 482/364 540/369 223/357
f 209/355 215/348 222/345
f 208/361 206/353 209/355
f 211/857 214/862 210/860
f 226/222 151/219 148/226
f 204/356 541/351 194/346
f 164/83 165/78 124/69
f 96/125 109/136 114/116
f 669/943 97/946 681/949
f 376/743 89/739 83/735
f 65/426 69/424 67/423
f 482/364 527/376 524/374
f 170/255 140/250 126/230
f 224/347 220/349 193/336
f 130/817 168/814 167/816
f 192/818 198/815 199/811
f 207/362 213/372 210/371
f 208/361 207/362 210/371
f 214/366 208/361 210/371
f 214/862 211/857 640/859
f 195/343 193/336 197/339
f 221/337 205/340 33/344
f 221/337 198/341 192/338
f 206/353 208/361 214/366
f 190/360 528/370 189/367
f 227/363 203/352 204/356
f 34/126 154/86 166/109
f 197/339 194/346 195/343
f 96/945 116/942 119/941
f 138/84 99/73 100/93
f 115/304 110/309 233/313
f 188/286 122/298 121/294
f 124/69 98/79 164/83
f 55/160 78/183 177/169
f 156/75 181/92 169/104
f 156/75 169/104 127/108
f 154/86 162/107 160/96
f 129/249 131/240 132/231
f 127/108 158/97 156/75
f 142/280 188/286 121/294
f 138/84 112/105 164/83
f 130/817 167/816 128/821
f 87/121 75/134 40/143
f 128/256 129/249 132/231
f 123/802 137/801 93/805
f 132/231 150/239 130/248
f 130/248 128/256 132/231
f 143/276 140/250 142/280
f 97/946 116/942 96/945
f 109/763 119/766 111/760
f 81/736 79/747 666/748
f 680/88 106/81 682/98
f 112/105 100/93 114/116
f 97/85 100/93 99/73
f 99/73 101/76 97/85
f 67/457 105/464 56/460
f 684/428 68/425 709/431
f 69/424 68/425 105/422
f 58/158 59/157 62/182
f 79/678 80/679 104/680
f 86/453 71/456 49/459
f 103/429 64/432 65/426
f 61/455 85/458 71/456
f 695/737 81/736 710/740
f 68/425 90/427 706/430
f 66/435 385/438 65/426
f 49/459 50/465 286/463
f 74/850 72/847 54/843
f 49/459 71/456 38/462
f 475/290 458/289 476/267
f 449/318 445/320 437/311
f 481/991 530/992 480/993
f 228/252 481/228 480/235
f 194/346 541/351 195/343
f 440/323 451/317 239/325
f 513/53 230/39 473/48
f 472/389 471/382 548/399
f 448/302 479/299 475/290
f 460/307 455/297 459/306
f 689/939 453/930 711/937
f 468/251 228/252 480/235
f 524/374 527/376 522/373
f 235/761 451/764 233/758
f 235/933 234/931 453/930
f 143/276 225/282 139/266
f 465/242 144/258 476/267
f 226/222 539/220 151/219
f 478/296 475/290 225/282
f 114/116 109/136 110/135
f 546/308 233/313 450/315
f 119/766 454/768 452/762
f 452/762 111/760 119/766
f 236/757 452/762 234/765
f 147/287 120/295 171/288
f 453/930 526/929 700/932
f 171/288 143/276 147/287
f 445/320 450/315 451/317
f 450/315 449/318 437/311
f 445/320 449/318 450/315
f 446/322 445/320 451/317
f 444/310 448/302 447/305
f 446/322 439/319 445/320
f 448/302 444/310 437/311
f 542/392 219/380 202/386
f 540/369 544/365 223/357
f 146/232 145/241 226/222
f 149/221 132/231 125/225
f 144/258 145/241 141/257
f 535/224 237/217 481/228
f 475/290 478/296 171/288
f 479/299 458/289 475/290
f 225/282 475/290 476/267
f 476/267 442/283 443/269
f 534/229 535/224 481/228
f 227/245 534/229 481/228
f 485/324 483/330 713/333
f 514/271 467/261 516/244
f 524/374 522/373 471/382
f 469/285 473/293 470/272
f 465/242 443/269 466/260
f 466/260 464/243 465/242
f 463/270 518/268 464/243
f 229/42 462/47 461/51
f 492/957 520/955 499/954
f 466/260 443/269 515/278
f 505/300 463/270 455/297
f 505/300 460/307 438/312
f 460/307 459/306 438/312
f 442/283 476/267 458/289
f 463/270 457/284 456/291
f 442/283 458/289 455/297
f 492/957 490/959 491/958
f 632/395 490/390 639/402
f 200/391 488/396 487/404
f 436/316 484/314 437/311
f 438/312 441/321 439/319
f 437/311 439/319 436/316
f 705/326 485/324 714/329
f 438/312 439/319 485/324
f 163/129 162/107 178/128
f 358/166 323/154 549/176
f 282/444 283/445 279/447
f 336/493 428/494 308/495
f 299/479 301/477 302/476
f 177/169 299/184 186/161
f 551/194 358/166 552/200
f 86/453 49/459 286/463
f 288/546 272/550 352/553
f 292/434 86/437 286/439
f 83/735 82/742 376/743
f 293/612 287/613 276/614
f 346/698 285/692 350/695
f 288/546 289/535 275/539
f 287/613 349/617 348/620
f 312/618 343/624 342/625
f 370/534 313/527 271/519
f 354/752 433/750 385/749
f 366/777 373/778 372/779
f 361/499 308/495 318/504
f 369/540 365/552 362/541
f 324/138 295/147 178/128
f 366/156 368/167 367/179
f 353/628 348/620 320/622
f 358/166 339/146 323/154
f 371/822 364/823 365/824
f 360/503 337/496 361/499
f 335/516 357/532 386/523
f 407/638 353/628 331/637
f 332/903 331/904 329/905
f 300/480 298/481 309/478
f 427/510 337/496 360/503
f 336/493 308/495 337/496
f 346/698 434/702 345/705
f 178/128 180/117 324/138
f 322/997 50/998 76/999
f 280/921 304/922 317/923
f 186/161 299/184 302/185
f 302/185 185/170 186/161
f 297/482 300/480 299/479
f 312/618 293/612 429/621
f 310/926 304/922 281/925
f 279/474 301/477 309/478
f 314/529 311/536 278/522
f 297/851 73/852 306/853
f 86/437 292/434 103/429
f 293/612 312/618 321/615
f 286/439 50/443 322/440
f 375/696 285/692 284/699
f 76/473 70/471 279/474
f 278/522 277/509 270/511
f 289/535 276/528 275/539
f 287/613 275/616 276/614
f 272/623 274/619 273/627
f 270/511 318/504 271/519
f 271/519 313/527 270/511
f 294/497 429/500 293/505
f 305/483 298/481 306/484
f 47/142 186/161 185/170
f 279/474 302/476 301/477
f 70/471 302/476 279/474
f 300/480 301/477 299/479
f 306/484 298/481 297/482
f 308/495 294/497 307/501
f 313/1025 314/1026 270/1027
f 274/619 275/616 287/613
f 301/477 300/480 309/478
f 309/478 298/481 305/483
f 298/481 300/480 297/482
f 366/486 340/485 305/483
f 324/138 180/117 339/146
f 367/179 359/177 551/194
f 324/138 339/146 366/156
f 339/146 368/167 366/156
f 324/138 366/156 380/155
f 381/206 395/201 367/179
f 178/839 295/841 432/840
f 380/488 366/486 305/483
f 296/489 295/492 380/488
f 380/488 305/483 435/487
f 178/839 432/840 74/836
f 435/487 296/489 380/488
f 296/842 432/840 295/841
f 341/448 372/450 378/451
f 339/146 423/178 368/167
f 313/527 370/534 314/529
f 163/838 178/839 74/836
f 74/490 432/491 296/489
f 292/551 289/535 288/546
f 290/630 291/635 272/623
f 292/434 64/432 103/429
f 348/704 351/708 434/702
f 104/680 80/679 387/682
f 350/695 348/704 434/702
f 348/620 349/617 321/615
f 321/615 320/622 348/620
f 274/619 287/613 348/620
f 274/619 272/623 275/616
f 291/689 387/682 352/688
f 376/685 352/688 387/682
f 352/688 272/691 291/689
f 350/695 414/701 348/704
f 389/867 396/868 420/869
f 285/692 346/698 284/699
f 285/692 375/696 717/694
f 716/703 284/699 719/707
f 433/750 289/754 292/756
f 396/868 415/875 418/874
f 352/746 82/742 65/738
f 65/738 385/749 352/746
f 433/750 66/755 64/753
f 385/438 322/440 392/441
f 80/744 89/739 376/743
f 376/685 387/682 80/679
f 274/619 414/626 273/627
f 273/697 414/701 350/695
f 290/693 273/697 350/695
f 291/689 285/692 718/690
f 387/682 291/689 721/687
f 351/708 345/705 434/702
f 350/695 434/702 346/698
f 287/613 293/612 321/615
f 317/923 303/924 280/921
f 353/628 407/638 393/636
f 347/537 281/542 315/545
f 370/534 347/537 385/543
f 347/537 370/534 271/519
f 282/444 392/441 322/440
f 385/749 433/750 352/746
f 271/519 318/504 319/513
f 281/925 319/927 310/926
f 354/548 385/543 347/537
f 392/547 370/534 385/543
f 277/509 361/499 270/511
f 341/448 340/449 372/450
f 306/484 296/489 435/487
f 370/534 392/547 341/544
f 307/501 319/513 318/504
f 378/960 374/961 341/962
f 370/534 341/544 314/529
f 369/964 341/962 374/961
f 318/504 270/511 361/499
f 280/549 315/545 281/542
f 318/504 308/495 307/501
f 271/519 281/542 347/537
f 310/506 294/497 316/512
f 310/506 319/513 307/501
f 281/925 304/922 280/921
f 304/521 310/506 316/512
f 320/622 321/615 312/618
f 294/497 310/506 307/501
f 289/754 433/750 354/752
f 317/520 276/528 289/535
f 319/927 281/925 271/928
f 74/490 296/489 306/484
f 299/184 177/169 78/183
f 297/203 299/184 78/183
f 78/844 72/847 297/851
f 185/893 302/896 70/894
f 185/893 70/894 48/891
f 303/538 317/520 289/535
f 354/548 315/545 289/535
f 303/538 289/535 315/545
f 316/512 294/497 293/505
f 353/628 320/622 342/625
f 353/628 377/631 348/620
f 317/520 316/512 293/505
f 270/511 314/529 278/522
f 341/544 369/540 314/529
f 311/536 314/529 369/540
f 395/201 373/195 367/179
f 386/831 357/829 364/823
f 371/963 365/966 374/961
f 554/208 367/179 556/205
f 424/209 381/206 367/179
f 394/784 422/785 558/787
f 383/830 386/831 382/827
f 371/782 373/778 395/783
f 364/823 382/827 386/831
f 335/516 278/522 363/530
f 363/530 357/532 335/516
f 362/541 357/532 363/530
f 365/824 356/826 362/828
f 357/829 356/826 364/823
f 366/156 367/179 373/195
f 372/779 379/780 378/781
f 362/828 356/826 357/829
f 365/824 364/823 356/826
f 372/779 373/778 379/780
f 373/778 371/782 379/780
f 371/782 395/783 394/784
f 378/960 371/963 374/961
f 328/717 421/716 377/712
f 383/830 382/827 394/825
f 383/830 394/825 562/832
f 395/783 422/785 394/784
f 394/825 382/827 364/823
f 364/823 371/822 394/825
f 363/530 278/522 311/536
f 333/907 355/910 334/914
f 333/907 334/914 428/915
f 428/915 336/911 333/907
f 566/912 330/909 567/918
f 336/911 329/905 333/907
f 355/910 333/907 331/904
f 331/904 333/907 329/905
f 343/624 334/629 355/632
f 430/634 331/637 353/628
f 331/637 343/624 355/632
f 406/640 393/636 407/638
f 407/638 332/642 406/640
f 406/908 332/903 431/906
f 331/637 332/642 407/638
f 332/903 329/905 431/906
f 406/908 431/906 566/912
f 425/508 426/498 569/502
f 336/911 426/913 329/905
f 331/637 430/634 343/624
f 429/621 343/624 312/618
f 429/621 428/633 334/629
f 343/624 429/621 334/629
f 337/496 426/498 336/493
f 428/494 294/497 308/495
f 360/503 383/531 565/525
f 360/503 335/516 386/523
f 335/516 360/503 277/509
f 277/509 278/522 335/516
f 361/499 277/509 360/503
f 337/496 308/495 361/499
f 383/531 360/503 386/523
f 426/913 425/917 330/909
f 337/496 427/510 573/518
f 367/179 423/178 359/177
f 367/179 368/167 423/178
f 359/177 423/178 339/146
f 339/146 358/166 359/177
f 381/206 424/209 577/211
f 580/786 395/783 581/788
f 395/201 381/206 575/210
f 418/979 417/980 345/981
f 327/873 328/870 420/869
f 328/717 327/714 421/716
f 345/872 327/873 420/869
f 408/643 377/644 416/645
f 351/708 377/712 421/716
f 377/712 351/708 348/704
f 391/661 390/650 326/656
f 419/887 415/876 723/884
f 415/876 391/878 725/879
f 388/882 415/876 726/880
f 396/868 418/874 345/872
f 346/698 419/713 728/711
f 406/640 413/639 393/636
f 384/646 377/644 408/643
f 393/636 413/639 377/631
f 416/792 413/793 408/794
f 377/631 413/639 416/641
f 409/647 384/646 408/643
f 411/653 326/656 390/650
f 338/137 323/154 339/146
f 323/154 338/137 642/153
f 642/153 32/145 644/165
f 411/653 412/655 344/659
f 410/652 401/654 399/658
f 104/680 387/682 722/684
f 378/960 379/965 371/963
f 408/643 402/649 409/647
f 344/659 397/663 585/665
f 399/1001 398/1002 412/1003
f 402/649 401/654 410/652
f 410/652 409/647 402/649
f 409/647 410/652 412/655
f 411/653 409/647 412/655
f 325/660 344/659 587/664
f 409/647 411/653 390/650
f 325/660 326/656 411/653
f 406/795 402/796 408/794
f 408/794 413/793 406/795
f 404/797 406/795 589/798
f 404/797 402/796 406/795
f 404/662 400/657 402/649
f 401/654 402/649 400/657
f 404/593 405/594 400/595
f 405/594 404/593 590/596
f 400/595 405/594 594/597
f 398/605 403/602 397/607
f 741/610 599/608 743/611
f 398/1002 399/1001 400/1004
f 403/602 400/595 595/599
f 399/658 401/654 400/657
f 403/602 398/605 400/595
f 344/659 412/655 397/663
f 346/698 417/709 419/713
f 396/1028 390/1029 391/1030
f 415/876 396/877 391/878
f 272/550 288/546 275/539
f 305/483 340/485 309/478
f 348/620 414/626 274/619
f 350/695 285/692 290/693
f 352/553 64/554 292/551
f 343/624 430/634 342/625
f 309/446 282/444 279/447
f 340/449 341/448 309/446
f 322/440 283/445 282/444
f 322/997 76/999 283/1000
f 74/850 306/853 73/852
f 569/502 337/496 600/507
f 330/909 329/905 426/913
f 346/698 345/705 417/709
f 282/444 309/446 392/441
f 293/505 276/528 317/520
f 279/474 283/475 76/473
f 288/546 352/553 292/551
f 291/689 290/693 285/692
f 349/617 287/613 321/615
f 311/536 362/541 363/530
f 339/146 180/117 338/137
f 372/450 340/449 366/452
f 324/138 380/155 295/147
f 306/484 435/487 305/483
f 311/536 369/540 362/541
f 79/678 104/680 733/681
f 280/549 303/538 315/545
f 351/708 421/716 327/714
f 272/623 273/627 290/630
f 284/699 346/698 729/706
f 433/442 292/434 66/435
f 376/743 82/742 352/746
f 286/439 322/440 66/435
f 292/434 286/439 66/435
f 322/440 385/438 66/435
f 347/537 315/545 354/548
f 309/446 341/448 392/441
f 294/497 428/494 429/500
f 365/966 369/964 374/961
f 304/521 316/512 317/520
f 72/847 73/852 297/851
f 427/510 360/503 571/517
f 330/909 425/917 570/919
f 353/628 342/625 430/634
f 353/628 393/636 377/631
f 329/905 330/909 431/906
f 312/618 342/625 320/622
f 326/656 325/660 391/661
f 328/870 389/867 420/869
f 389/651 328/648 384/646
f 327/714 345/705 351/708
f 415/982 419/983 417/980
f 389/651 384/646 390/650
f 396/868 389/867 390/871
f 417/980 418/979 415/982
f 420/869 396/868 345/872
f 377/644 384/646 328/648
f 723/884 388/882 732/886
f 390/650 384/646 409/647
f 411/653 344/659 325/660
f 410/652 399/658 412/655
f 412/655 398/666 397/663
f 352/746 433/750 64/753
f 26/1015 30/1012 1/1017
f 24/1014 30/1012 28/1011
f 7/37 27/29 244/22
f 14/732 16/723 15/731
f 12/561 13/567 11/573
f 10/578 12/561 11/573
f 7/37 244/22 8/34
f 5/976 6/975 251/974
f 6/562 5/574 4/568
f 3/558 6/562 4/568
f 30/1012 26/1015 25/1013
f 30/1012 24/1014 2/1016
f 23/721 16/723 22/725
f 21/728 23/721 22/725
f 16/723 14/732 20/729
f 18/582 12/561 10/578
f 12/561 18/582 17/585
f 30/1012 2/1016 1/1017
f 549/176 323/154 555/193
f 550/192 358/166 549/176
f 551/194 359/177 358/166
f 552/200 358/166 550/192
f 553/214 424/209 554/208
f 554/208 424/209 367/179
f 555/193 323/154 645/191
f 556/205 367/179 551/194
f 557/789 422/785 580/786
f 558/787 422/785 557/789
f 559/790 394/784 558/787
f 560/533 427/510 572/524
f 561/526 427/510 560/533
f 562/832 394/825 563/834
f 563/791 394/784 559/790
f 564/833 383/830 562/832
f 565/835 383/830 564/833
f 566/912 431/906 330/909
f 567/918 330/909 601/920
f 568/916 406/908 566/912
f 569/502 426/498 337/496
f 570/515 425/508 569/502
f 571/517 360/503 565/525
f 572/524 427/510 571/517
f 573/518 427/510 561/526
f 574/514 337/496 573/518
f 575/210 381/206 576/213
f 576/213 381/206 579/216
f 577/211 424/209 553/214
f 578/215 381/206 577/211
f 579/216 381/206 578/215
f 580/786 422/785 395/783
f 581/212 395/201 575/210
f 737/667 325/660 738/672
f 582/674 344/659 584/675
f 583/669 344/659 582/674
f 584/675 344/659 586/670
f 585/665 397/663 739/671
f 586/670 344/659 585/665
f 739/609 403/602 741/610
f 587/664 344/659 583/669
f 588/668 325/660 587/664
f 734/673 588/668 742/677
f 589/798 406/795 568/800
f 590/799 404/797 589/798
f 591/603 405/594 592/601
f 592/601 405/594 593/598
f 593/598 405/594 590/596
f 594/597 405/594 596/600
f 595/599 400/595 594/597
f 596/600 405/594 591/603
f 597/606 403/602 598/604
f 598/604 403/602 595/599
f 599/608 403/602 597/606
f 600/507 337/496 574/514
f 601/920 330/909 570/919
f 603/591 240/588 602/592
f 604/587 17/585 240/588
f 605/584 17/585 604/587
f 606/579 247/559 605/584
f 607/589 240/588 603/591
f 608/173 32/145 609/163
f 609/163 32/145 35/144
f 610/411 543/398 532/397
f 611/416 532/397 533/420
f 612/854 211/857 212/855
f 613/856 212/855 618/858
f 614/394 216/388 615/400
f 615/400 216/388 542/392
f 616/1050 217/1051 617/1052
f 617/401 217/383 614/394
f 618/858 212/855 217/861
f 619/863 217/861 616/865
f 620/188 35/144 621/198
f 621/198 35/144 624/189
f 622/866 214/862 641/864
f 623/174 206/164 622/190
f 624/189 35/144 623/174
f 625/172 35/144 620/188
f 626/418 477/405 628/414
f 627/421 533/420 626/418
f 628/414 477/405 487/404
f 629/406 543/398 610/411
f 630/412 542/392 629/406
f 631/408 542/392 630/412
f 632/395 489/385 490/390
f 633/403 489/385 632/395
f 634/409 488/396 633/403
f 635/413 488/396 634/409
f 636/419 486/410 635/413
f 637/415 486/410 636/419
f 638/417 487/404 637/415
f 639/583 490/576 606/579
f 640/859 211/857 612/854
f 641/864 214/862 640/859
f 642/153 338/137 32/145
f 643/175 323/154 642/153
f 644/165 32/145 608/173
f 645/191 323/154 643/175
f 646/204 555/193 645/191
f 647/207 555/193 646/204
f 648/1 242/4 238/2
f 649/3 238/2 650/5
f 650/5 238/2 651/8
f 651/8 238/2 241/7
f 652/21 31/28 245/17
f 653/33 31/28 652/21
f 654/6 242/4 648/1
f 655/13 245/17 243/9
f 656/10 243/9 654/6
f 657/12 241/7 438/16
f 658/940 239/936 689/939
f 659/327 239/325 658/332
f 660/94 101/76 661/99
f 661/99 101/76 680/88
f 662/141 102/131 117/120
f 663/149 117/120 63/140
f 664/119 106/81 102/131
f 665/1039 102/1036 118/1035
f 666/748 79/747 667/751
f 667/686 79/678 736/683
f 668/1037 102/1036 662/1040
f 669/943 116/942 97/946
f 670/944 119/941 669/943
f 671/947 119/941 670/944
f 672/950 119/941 671/947
f 673/1041 118/1035 674/1038
f 674/1038 118/1035 668/1037
f 675/1043 118/1035 673/1041
f 676/1042 118/1035 675/1043
f 677/989 63/987 678/984
f 678/984 63/987 56/985
f 679/110 106/81 664/119
f 680/88 101/76 106/81
f 681/106 97/85 660/94
f 682/98 106/81 679/110
f 683/468 56/460 105/464
f 684/428 105/422 68/425
f 685/986 56/985 683/988
f 686/334 440/323 688/331
f 687/335 483/330 686/334
f 688/331 440/323 659/327
f 689/939 239/936 453/930
f 690/953 119/941 691/952
f 691/952 119/941 672/950
f 692/1031 90/1034 69/1032
f 693/741 69/734 695/737
f 694/774 454/768 690/770
f 695/737 69/734 81/736
f 696/771 454/768 694/774
f 697/773 452/762 696/771
f 698/935 526/929 699/938
f 699/776 526/767 703/775
f 700/932 526/929 698/935
f 701/769 452/762 697/773
f 702/772 526/767 701/769
f 703/775 526/767 702/772
f 704/20 438/16 705/26
f 705/326 438/312 485/324
f 706/430 90/427 707/433
f 707/433 90/427 692/436
f 708/745 81/736 666/748
f 709/431 68/425 706/430
f 710/740 81/736 708/745
f 711/937 453/930 712/934
f 712/934 453/930 700/932
f 713/333 483/330 687/335
f 714/329 485/324 713/333
f 715/700 375/696 716/703
f 716/703 375/696 284/699
f 717/694 375/696 715/700
f 718/690 285/692 717/694
f 719/1053 284/1054 720/1055
f 720/715 284/699 735/710
f 721/687 291/689 718/690
f 722/684 387/682 721/687
f 723/884 415/876 388/882
f 724/889 419/887 723/884
f 725/879 391/878 737/881
f 726/880 415/876 725/879
f 727/883 388/882 726/880
f 728/890 419/887 724/889
f 729/706 346/698 728/711
f 730/888 388/882 731/885
f 731/885 388/882 727/883
f 732/886 388/882 730/888
f 733/681 104/680 722/684
f 734/673 325/660 588/668
f 735/710 284/699 729/706
f 736/683 79/678 733/681
f 737/667 391/661 325/660
f 738/672 325/660 734/673
f 739/609 397/607 403/602
f 740/676 585/665 739/671
f 741/610 403/602 599/608
usemtl Tile_+032_+021_L19_000221_untextured
