mtllib Tile_+032_+021_L19_000033.mtl
v 6.36229570e+03 5.12403209e+03 1.09371540e+01
v 6.36381135e+03 5.12401951e+03 9.61902602e+00
v 6.36796418e+03 5.12220559e+03 9.56914875e+00
v 6.36944461e+03 5.11987065e+03 9.96323822e+00
v 6.36619287e+03 5.11753766e+03 2.10426877e+01
v 6.36493292e+03 5.11959590e+03 2.16213076e+01
v 6.36672362e+03 5.11679389e+03 1.69078268e+01
v 6.36513985e+03 5.12016259e+03 1.82773834e+01
v 6.36593700e+03 5.11790159e+03 1.71806856e+01
v 6.36333743e+03 5.12219904e+03 9.68299147e+00
v 6.36225591e+03 5.12503091e+03 1.01763292e+01
v 6.36081724e+03 5.11134594e+03 2.90975249e+01
v 6.35994248e+03 5.11338106e+03 3.03879220e+01
v 6.36078971e+03 5.11253749e+03 2.91083488e+01
v 6.36428543e+03 5.11898894e+03 2.59132786e+01
v 6.36417293e+03 5.12248487e+03 1.46220064e+01
v 6.36562059e+03 5.12048020e+03 1.29101016e+01
v 6.37308991e+03 5.10601244e+03 3.49674270e+01
v 6.37197126e+03 5.10513007e+03 3.45722064e+01
v 6.37401692e+03 5.10710786e+03 3.60354735e+01
v 6.35994162e+03 5.09583313e+03 2.18506850e+01
v 6.36880521e+03 5.11626726e+03 2.09134399e+01
v 6.36723095e+03 5.11601124e+03 2.16621594e+01
v 6.37365269e+03 5.11695410e+03 1.69966627e+01
v 6.37356663e+03 5.11707757e+03 2.00761694e+01
v 6.37068202e+03 5.11685361e+03 2.47947884e+01
v 6.37078002e+03 5.11672756e+03 2.34824746e+01
v 6.36482996e+03 5.11871456e+03 2.43233818e+01
v 6.37424438e+03 5.11870578e+03 2.43206925e+01
v 6.37479216e+03 5.12011503e+03 2.44958079e+01
v 6.37326343e+03 5.11680978e+03 2.28699864e+01
v 6.36841765e+03 5.11657094e+03 1.22511577e+01
v 6.36988073e+03 5.11684691e+03 9.86074566e+00
v 6.36668940e+03 5.11706337e+03 1.33678643e+01
v 6.37116429e+03 5.11558387e+03 1.86048931e+01
v 6.36653529e+03 5.11709652e+03 2.41625049e+01
v 6.36587597e+03 5.11672031e+03 2.63270139e+01
v 6.36742022e+03 5.11682825e+03 2.67052805e+01
v 6.37055869e+03 5.12359802e+03 9.31402870e+00
v 6.37147648e+03 5.11773533e+03 9.46998752e+00
v 6.36961817e+03 5.11584245e+03 1.10192018e+01
v 6.36657351e+03 5.12095466e+03 1.05334381e+01
v 6.36739754e+03 5.11953596e+03 1.11175165e+01
v 6.36914932e+03 5.11716150e+03 2.41601128e+01
v 6.37156321e+03 5.11618753e+03 2.54270935e+01
v 6.36997096e+03 5.11595978e+03 2.63994838e+01
v 6.36251214e+03 5.12274140e+03 1.07839321e+01
v 6.36464762e+03 5.12135452e+03 1.17819041e+01
v 6.36260316e+03 5.12284601e+03 1.23817135e+01
v 6.37120630e+03 5.11591325e+03 2.13480578e+01
v 6.37090356e+03 5.11564681e+03 1.63424518e+01
v 6.37516093e+03 5.12022131e+03 9.17262165e+00
v 6.36467647e+03 5.12041328e+03 2.60089652e+01
v 6.36537769e+03 5.12116570e+03 2.60861910e+01
v 6.36528848e+03 5.12107939e+03 2.43232565e+01
v 6.36426091e+03 5.12224034e+03 2.43726635e+01
v 6.36506949e+03 5.12064406e+03 2.28537384e+01
v 6.36502765e+03 5.12145611e+03 2.16452138e+01
v 6.36229736e+03 5.12524618e+03 2.44511304e+01
v 6.36363154e+03 5.12319638e+03 2.61307152e+01
v 6.36235296e+03 5.12492937e+03 2.28314082e+01
v 6.36328917e+03 5.12379731e+03 2.09235204e+01
v 6.36433379e+03 5.12180072e+03 2.58214738e+01
v 6.36093416e+03 5.09464509e+03 2.35379805e+01
v 6.36115613e+03 5.09452767e+03 2.60395383e+01
v 6.35982396e+03 5.09604362e+03 2.49492704e+01
v 6.36872251e+03 5.11685911e+03 2.53953850e+01
v 6.36500216e+03 5.12122046e+03 1.95569189e+01
v 6.36281939e+03 5.12449300e+03 1.45177666e+01
v 6.36415897e+03 5.12226179e+03 1.74039642e+01
v 6.35980549e+03 5.09622349e+03 1.77792010e+01
v 6.36496247e+03 5.12126184e+03 1.66398766e+01
v 6.36605889e+03 5.11635983e+03 1.46298027e+01
v 6.36042984e+03 5.09487196e+03 1.62359294e+01
v 6.35894426e+03 5.09575503e+03 1.64219704e+01
v 6.36251553e+03 5.12445502e+03 2.57444446e+01
v 6.36904258e+03 5.11611689e+03 1.48925302e+01
v 6.37107829e+03 5.11589770e+03 1.34774958e+01
v 6.35986292e+03 5.11751852e+03 3.14180938e+01
v 6.36060889e+03 5.11741608e+03 3.07608780e+01
v 6.36086551e+03 5.11146220e+03 3.14045980e+01
v 6.35894287e+03 5.11217348e+03 3.10029465e+01
v 6.36257482e+03 5.10906954e+03 3.14129484e+01
v 6.36409952e+03 5.10887187e+03 3.10206112e+01
v 6.35993794e+03 5.10844039e+03 3.08375215e+01
v 6.35936459e+03 5.11341749e+03 3.14263235e+01
v 6.35972610e+03 5.11592159e+03 2.85661339e+01
v 6.36048850e+03 5.11565124e+03 3.02778371e+01
v 6.36004605e+03 5.11761240e+03 2.87224540e+01
v 6.36135061e+03 5.11751467e+03 3.01621162e+01
v 6.36008704e+03 5.11939657e+03 3.04018523e+01
v 6.35890540e+03 5.11473993e+03 3.13945785e+01
v 6.36030251e+03 5.11599939e+03 2.79507161e+01
v 6.36155110e+03 5.11412125e+03 2.79959127e+01
v 6.36468240e+03 5.12190929e+03 2.77669810e+01
v 6.36499190e+03 5.11717866e+03 2.71848035e+01
v 6.36535421e+03 5.12114586e+03 2.82402020e+01
v 6.36474729e+03 5.12030883e+03 2.80290048e+01
v 6.36425796e+03 5.11862639e+03 2.71971919e+01
v 6.36150573e+03 5.11971026e+03 2.79092660e+01
v 6.36384318e+03 5.12064356e+03 2.80473795e+01
v 6.36310246e+03 5.10928313e+03 2.94910049e+01
v 6.36197338e+03 5.11009834e+03 2.96108408e+01
v 6.36548222e+03 5.11129439e+03 2.84532243e+01
v 6.36038049e+03 5.11422316e+03 2.97567095e+01
v 6.36201234e+03 5.11113283e+03 2.88297569e+01
v 6.35961814e+03 5.11826037e+03 2.82158167e+01
v 6.35906169e+03 5.12071945e+03 2.97970634e+01
v 6.36339329e+03 5.12308264e+03 2.83899973e+01
v 6.35981288e+03 5.12232690e+03 2.78818946e+01
v 6.36045272e+03 5.11921100e+03 2.85566568e+01
v 6.36348288e+03 5.11145062e+03 2.79551550e+01
v 6.36357847e+03 5.11830001e+03 2.84158974e+01
v 6.36831530e+03 5.11229190e+03 2.97417782e+01
v 6.36337534e+03 5.10981786e+03 2.85944853e+01
v 6.36562829e+03 5.11258132e+03 2.77236453e+01
v 6.36435563e+03 5.11319434e+03 2.72118031e+01
v 6.36345652e+03 5.11506767e+03 2.71927680e+01
v 6.36399556e+03 5.11283668e+03 2.84586870e+01
v 6.36253663e+03 5.11502247e+03 2.84301030e+01
v 6.36372380e+03 5.11698966e+03 2.73196450e+01
v 6.36583854e+03 5.11601417e+03 2.71861593e+01
v 6.36708417e+03 5.11503262e+03 2.69848486e+01
v 6.36518375e+03 5.11313647e+03 2.69713257e+01
v 6.36040341e+03 5.11797041e+03 2.81146431e+01
v 6.36395264e+03 5.11821736e+03 2.80024985e+01
v 6.36546689e+03 5.09899337e+03 3.10945742e+01
v 6.36193659e+03 5.09507643e+03 3.09817077e+01
v 6.36778922e+03 5.09562265e+03 3.09134802e+01
v 6.36450038e+03 5.10431283e+03 3.10396578e+01
v 6.36108706e+03 5.10504893e+03 3.08894437e+01
v 6.36110181e+03 5.10215617e+03 3.09300839e+01
v 6.35985643e+03 5.09592682e+03 2.81544791e+01
v 6.36153349e+03 5.09474977e+03 2.86828900e+01
v 6.35991935e+03 5.09593382e+03 2.98104688e+01
v 6.36497997e+03 5.12144351e+03 2.85362208e+01
v 6.35917786e+03 5.09703490e+03 3.14458220e+01
v 6.36642982e+03 5.10103605e+03 3.17036491e+01
v 6.36721897e+03 5.10125051e+03 3.13060422e+01
v 6.36734679e+03 5.10043810e+03 3.10278416e+01
v 6.36555312e+03 5.10079831e+03 3.11848446e+01
v 6.36348023e+03 5.10398192e+03 3.12810755e+01
v 6.36569681e+03 5.10461253e+03 3.15201721e+01
v 6.35985470e+03 5.09761049e+03 3.10925376e+01
v 6.36324714e+03 5.10660283e+03 3.09652779e+01
v 6.36077944e+03 5.10783085e+03 3.11057587e+01
v 6.36853750e+03 5.09866013e+03 3.12076931e+01
v 6.36744280e+03 5.09808359e+03 3.14710666e+01
v 6.36611813e+03 5.10190380e+03 3.09867891e+01
v 6.36659659e+03 5.10662366e+03 3.13827382e+01
v 6.36950593e+03 5.09687538e+03 3.09929978e+01
v 6.37231846e+03 5.09526321e+03 3.15415425e+01
v 6.37477705e+03 5.11798255e+03 2.23354966e+01
v 6.37265983e+03 5.11752139e+03 2.47317641e+01
v 6.37477633e+03 5.11807077e+03 1.94994500e+01
v 6.37475331e+03 5.11813066e+03 2.58230900e+01
v 6.37447674e+03 5.11810231e+03 1.29204316e+01
v 6.37258188e+03 5.11673007e+03 1.25330291e+01
v 6.37096312e+03 5.11553858e+03 1.19188233e+01
v 6.37387127e+03 5.11705017e+03 1.45890013e+01
v 6.37103019e+03 5.11508520e+03 1.09797233e+01
v 6.37349640e+03 5.11819591e+03 1.00949725e+01
v 6.37473453e+03 5.11781798e+03 1.57932531e+01
v 6.37340109e+03 5.11800709e+03 1.14922858e+01
v 6.37495489e+03 5.11825478e+03 1.06221979e+01
v 6.36896522e+03 5.11666264e+03 2.66629292e+01
v 6.36908133e+03 5.11506453e+03 2.73759706e+01
v 6.37023098e+03 5.11500973e+03 2.79966536e+01
v 6.37207664e+03 5.11637264e+03 2.60377804e+01
v 6.37175393e+03 5.11379588e+03 3.12831899e+01
v 6.37460751e+03 5.11605997e+03 3.12171296e+01
v 6.37489408e+03 5.11857616e+03 3.20451744e+01
v 6.36953240e+03 5.10338789e+03 3.18004124e+01
v 6.37463768e+03 5.11827743e+03 2.79211266e+01
v 6.37511101e+03 5.12004086e+03 2.87417106e+01
v 6.37466825e+03 5.11170686e+03 3.32541512e+01
v 6.37505418e+03 5.11104126e+03 3.41640568e+01
v 6.37148533e+03 5.10891491e+03 3.39230743e+01
v 6.36966461e+03 5.10746125e+03 3.35317813e+01
v 6.37163543e+03 5.10520682e+03 3.35997642e+01
v 6.37016611e+03 5.10737781e+03 3.41968568e+01
v 6.37445168e+03 5.10433832e+03 3.54776772e+01
v 6.37512132e+03 5.10819468e+03 3.51117501e+01
v 6.37445152e+03 5.10933184e+03 3.49531934e+01
v 6.37483278e+03 5.10072059e+03 3.36237859e+01
v 6.37511171e+03 5.10060129e+03 3.45179658e+01
v 6.37304475e+03 5.09859933e+03 3.18339866e+01
v 6.37125779e+03 5.10367839e+03 3.30410361e+01
v 6.37486033e+03 5.11853817e+03 1.75020355e+01
v 6.37158873e+03 5.09472728e+03 3.10365189e+01
v 6.37068362e+03 5.09393254e+03 3.12408098e+01
v 6.36908705e+03 5.10024090e+03 3.16219907e+01
v 6.37083032e+03 5.11573897e+03 1.00990347e+01
v 6.34541332e+03 5.11250013e+03 2.41405069e+01
v 6.34541533e+03 5.11297739e+03 2.61028610e+01
v 6.34507259e+03 5.11263765e+03 2.47498133e+01
v 6.34683195e+03 5.10919341e+03 2.07494316e+01
v 6.34664528e+03 5.10932436e+03 2.28948165e+01
v 6.35963714e+03 5.09685341e+03 2.26089447e+01
v 6.34418232e+03 5.10203560e+03 1.56888336e+01
v 6.34593550e+03 5.10221130e+03 1.58640399e+01
v 6.34487391e+03 5.11064493e+03 1.54271724e+01
v 6.34578101e+03 5.11057247e+03 1.62949870e+01
v 6.34496376e+03 5.09687594e+03 1.63839615e+01
v 6.34487316e+03 5.09555283e+03 1.64444882e+01
v 6.34525462e+03 5.09762662e+03 1.57473122e+01
v 6.34686477e+03 5.10974730e+03 1.63404168e+01
v 6.34568655e+03 5.10945727e+03 1.54755982e+01
v 6.34426029e+03 5.10975447e+03 1.60608371e+01
v 6.34611978e+03 5.10851872e+03 1.52208292e+01
v 6.34356970e+03 5.10488705e+03 1.61250021e+01
v 6.35100558e+03 5.09984672e+03 1.60040995e+01
v 6.35032882e+03 5.09861223e+03 1.54848239e+01
v 6.35410994e+03 5.09747387e+03 1.57833616e+01
v 6.35569020e+03 5.09822728e+03 1.64306002e+01
v 6.35179652e+03 5.09455443e+03 1.56690686e+01
v 6.35442237e+03 5.10381431e+03 1.87811699e+01
v 6.35367065e+03 5.10517627e+03 1.71723727e+01
v 6.34812267e+03 5.09385518e+03 1.56444463e+01
v 6.34692647e+03 5.09478615e+03 1.57170460e+01
v 6.34987937e+03 5.09618132e+03 1.60645715e+01
v 6.34976540e+03 5.09685204e+03 1.54774327e+01
v 6.35280494e+03 5.09906489e+03 1.51857272e+01
v 6.35237678e+03 5.09766500e+03 1.60721265e+01
v 6.35201051e+03 5.10025857e+03 1.55184854e+01
v 6.34632709e+03 5.10741467e+03 1.55021416e+01
v 6.34645663e+03 5.10661403e+03 1.64271506e+01
v 6.35356963e+03 5.10488505e+03 1.59389160e+01
v 6.35202190e+03 5.10576722e+03 1.62456214e+01
v 6.35133891e+03 5.10914997e+03 1.68065850e+01
v 6.35034098e+03 5.10982456e+03 1.60326478e+01
v 6.34922157e+03 5.09781615e+03 1.56776533e+01
v 6.34787709e+03 5.09873349e+03 1.62383262e+01
v 6.34508822e+03 5.11287578e+03 3.46043913e+01
v 6.34421526e+03 5.11308119e+03 3.18254746e+01
v 6.35345247e+03 5.12500994e+03 2.86973966e+01
v 6.35481724e+03 5.12472433e+03 2.84280145e+01
v 6.35231736e+03 5.12518587e+03 2.87950923e+01
v 6.34354034e+03 5.11312225e+03 2.36376703e+01
v 6.34649915e+03 5.12137200e+03 3.38008392e+01
v 6.34780502e+03 5.10902592e+03 3.46364492e+01
v 6.34928849e+03 5.10903186e+03 3.23697142e+01
v 6.34737832e+03 5.10901036e+03 3.22222395e+01
v 6.34683940e+03 5.10914042e+03 3.38351711e+01
v 6.34756584e+03 5.12231913e+03 3.21407903e+01
v 6.35065116e+03 5.12201191e+03 3.33730846e+01
v 6.34695349e+03 5.12238023e+03 3.35875530e+01
v 6.34615732e+03 5.12258746e+03 3.25257378e+01
v 6.34780301e+03 5.12175297e+03 3.08691525e+01
v 6.35432852e+03 5.11088368e+03 3.17145460e+01
v 6.35455671e+03 5.11083881e+03 3.08924814e+01
v 6.34822330e+03 5.12215734e+03 3.33185416e+01
v 6.34720384e+03 5.12246848e+03 3.11226575e+01
v 6.34573417e+03 5.12345799e+03 3.16011992e+01
v 6.34702010e+03 5.12335689e+03 3.08083839e+01
v 6.34637195e+03 5.12511150e+03 3.13741982e+01
v 6.34998021e+03 5.11004457e+03 3.01857110e+01
v 6.34856364e+03 5.10504388e+03 1.51944919e+01
v 6.34646384e+03 5.10358371e+03 1.53592639e+01
v 6.35760449e+03 5.09987255e+03 2.58643728e+01
v 6.35798027e+03 5.09885813e+03 2.55147073e+01
v 6.35438827e+03 5.09959601e+03 1.60018254e+01
v 6.35554290e+03 5.10008639e+03 1.62453826e+01
v 6.35660832e+03 5.09961560e+03 1.61672476e+01
v 6.34680319e+03 5.10923770e+03 1.80321998e+01
v 6.34741782e+03 5.10770874e+03 1.60820079e+01
v 6.34857522e+03 5.10591358e+03 1.58879795e+01
v 6.35730712e+03 5.12318677e+03 3.00735410e+01
v 6.35598492e+03 5.12309943e+03 2.83504741e+01
v 6.35821765e+03 5.12028598e+03 2.83836682e+01
v 6.35809101e+03 5.09877579e+03 2.26354844e+01
v 6.35324065e+03 5.10540151e+03 2.45106942e+01
v 6.35571879e+03 5.10187288e+03 2.47226683e+01
v 6.35591865e+03 5.10178730e+03 2.28233963e+01
v 6.35709945e+03 5.10004855e+03 2.38458093e+01
v 6.34797579e+03 5.10919825e+03 2.35517976e+01
v 6.34949737e+03 5.11032391e+03 2.03646811e+01
v 6.34965335e+03 5.11049245e+03 2.30896899e+01
v 6.34777584e+03 5.10907213e+03 1.89569879e+01
v 6.35164007e+03 5.10767479e+03 2.45612963e+01
v 6.35126959e+03 5.10819962e+03 2.18332382e+01
v 6.34982121e+03 5.11037967e+03 2.48127470e+01
v 6.35019982e+03 5.11005746e+03 2.21191833e+01
v 6.34500748e+03 5.11276273e+03 2.25840793e+01
v 6.34672885e+03 5.10947748e+03 2.41468000e+01
v 6.34620220e+03 5.11143255e+03 2.27470108e+01
v 6.34644073e+03 5.11079540e+03 1.96649836e+01
v 6.35009307e+03 5.11045761e+03 1.98503391e+01
v 6.35002374e+03 5.11049292e+03 2.62606178e+01
v 6.34801854e+03 5.10936598e+03 2.67892434e+01
v 6.34648080e+03 5.11069423e+03 2.69587673e+01
v 6.35063494e+03 5.10934999e+03 2.57245315e+01
v 6.35169950e+03 5.10755367e+03 2.79955949e+01
v 6.34356842e+03 5.11328229e+03 2.60836051e+01
v 6.34374087e+03 5.11264983e+03 2.51420224e+01
v 6.34654733e+03 5.11054216e+03 2.36043686e+01
v 6.34582006e+03 5.11288223e+03 2.29867207e+01
v 6.35467599e+03 5.10368670e+03 2.56444619e+01
v 6.35737394e+03 5.09952127e+03 2.17807158e+01
v 6.35710391e+03 5.10017493e+03 2.01166321e+01
v 6.35358776e+03 5.10542863e+03 2.27648587e+01
v 6.35410331e+03 5.10417001e+03 2.17293832e+01
v 6.35692871e+03 5.10076074e+03 2.27620479e+01
v 6.35914847e+03 5.09736909e+03 1.99937864e+01
v 6.35754964e+03 5.09920059e+03 1.85806967e+01
v 6.35855075e+03 5.09766936e+03 1.61706148e+01
v 6.35756800e+03 5.09946248e+03 1.65060822e+01
v 6.35568520e+03 5.10187500e+03 1.85016984e+01
v 6.35470947e+03 5.10381362e+03 1.71096371e+01
v 6.35569414e+03 5.10201262e+03 1.62040370e+01
v 6.35676835e+03 5.10092290e+03 1.70447675e+01
v 6.34533907e+03 5.11272860e+03 2.03902279e+01
v 6.35163885e+03 5.10761921e+03 1.88676055e+01
v 6.35401198e+03 5.10475332e+03 1.97248800e+01
v 6.34484367e+03 5.11302841e+03 1.84425085e+01
v 6.34552337e+03 5.11301234e+03 1.71291474e+01
v 6.34397310e+03 5.11307913e+03 1.67140045e+01
v 6.35013806e+03 5.11006704e+03 1.93070316e+01
v 6.35121534e+03 5.10877490e+03 1.99102403e+01
v 6.35260875e+03 5.10696752e+03 1.69360109e+01
v 6.34556121e+03 5.09954473e+03 1.57427600e+01
v 6.34487637e+03 5.10138679e+03 1.61364289e+01
v 6.34438128e+03 5.09874732e+03 1.58211297e+01
v 6.34448477e+03 5.10033349e+03 1.56676522e+01
v 6.34632902e+03 5.09584530e+03 1.59157723e+01
v 6.34661674e+03 5.11059687e+03 1.75912012e+01
v 6.34417673e+03 5.11229275e+03 1.58152986e+01
v 6.35083886e+03 5.10872525e+03 1.87248526e+01
v 6.34998289e+03 5.11046125e+03 1.72234981e+01
v 6.34958662e+03 5.11045564e+03 1.63492544e+01
v 6.35122395e+03 5.10815671e+03 1.60761021e+01
v 6.34723075e+03 5.10839506e+03 1.70032683e+01
v 6.34701977e+03 5.10859405e+03 1.62364092e+01
v 6.34757471e+03 5.10894362e+03 1.73250472e+01
v 6.34756800e+03 5.10821485e+03 1.70216432e+01
v 6.34584492e+03 5.11066220e+03 1.69785847e+01
v 6.34529572e+03 5.11138165e+03 1.62632489e+01
v 6.34611220e+03 5.11175784e+03 1.70521858e+01
v 6.34855116e+03 5.10953323e+03 1.60433791e+01
v 6.35224313e+03 5.10675453e+03 1.60223883e+01
v 6.34511019e+03 5.11261710e+03 1.62023735e+01
v 6.34822582e+03 5.10868787e+03 1.62136904e+01
v 6.35327444e+03 5.10296550e+03 1.62308472e+01
v 6.35339057e+03 5.10145299e+03 1.61692462e+01
v 6.35050780e+03 5.10544304e+03 1.60993183e+01
v 6.35681585e+03 5.10039347e+03 1.59202241e+01
v 6.35672970e+03 5.09684450e+03 1.62151295e+01
v 6.35567232e+03 5.09507696e+03 1.58096402e+01
v 6.35217080e+03 5.10349085e+03 1.59820591e+01
v 6.34695403e+03 5.09376947e+03 1.66883924e+01
v 6.34701832e+03 5.09831944e+03 1.61567785e+01
v 6.34749660e+03 5.09659185e+03 1.58496142e+01
v 6.34804128e+03 5.09541538e+03 1.57149841e+01
v 6.34729970e+03 5.09592060e+03 1.65417143e+01
v 6.34875696e+03 5.09550906e+03 1.60331192e+01
v 6.35224640e+03 5.09559073e+03 1.55772100e+01
v 6.35300976e+03 5.09962059e+03 1.60019219e+01
v 6.35089724e+03 5.09761422e+03 1.53634614e+01
v 6.34621486e+03 5.09864897e+03 1.57468837e+01
v 6.34936613e+03 5.09359225e+03 1.58671242e+01
v 6.35481522e+03 5.10301959e+03 1.60249129e+01
v 6.34900918e+03 5.10705841e+03 1.60324310e+01
v 6.34818652e+03 5.10598886e+03 1.52982671e+01
v 6.34681897e+03 5.10766284e+03 1.63787842e+01
v 6.34725149e+03 5.10707403e+03 1.54430931e+01
v 6.34698717e+03 5.10603731e+03 1.60459357e+01
v 6.34478339e+03 5.10668562e+03 1.54708813e+01
v 6.35588950e+03 5.10121145e+03 1.59281550e+01
v 6.35113175e+03 5.10251017e+03 1.59148982e+01
v 6.34768270e+03 5.10004002e+03 1.54787608e+01
v 6.34871752e+03 5.10404992e+03 1.58866092e+01
v 6.34866393e+03 5.10267198e+03 1.60081723e+01
v 6.34375883e+03 5.10592179e+03 1.55073043e+01
v 6.34464750e+03 5.10394352e+03 1.59184968e+01
v 6.34393459e+03 5.10777961e+03 1.55794419e+01
v 6.34390246e+03 5.11199612e+03 1.52921837e+01
v 6.34636075e+03 5.10106428e+03 1.61389937e+01
v 6.34988755e+03 5.10317803e+03 1.55734221e+01
v 6.35058884e+03 5.10219574e+03 1.51807506e+01
v 6.35070606e+03 5.10108891e+03 1.58392967e+01
v 6.34607674e+03 5.10460961e+03 1.54409588e+01
v 6.34786080e+03 5.10356003e+03 1.59093929e+01
v 6.34844524e+03 5.10136251e+03 1.53315280e+01
v 6.34487622e+03 5.10887320e+03 1.60221113e+01
v 6.34411666e+03 5.09447825e+03 1.59223621e+01
v 6.34891286e+03 5.10071252e+03 1.53525503e+01
v 6.34968811e+03 5.10054226e+03 1.58506107e+01
v 6.35156334e+03 5.10465417e+03 1.63226318e+01
v 6.35479974e+03 5.09420416e+03 1.60143505e+01
v 6.35001033e+03 5.09465655e+03 1.61863655e+01
v 6.34459496e+03 5.11291325e+03 2.81617411e+01
v 6.34565544e+03 5.11228840e+03 2.83822231e+01
v 6.34972660e+03 5.12059373e+03 3.46537456e+01
v 6.35387516e+03 5.11176528e+03 3.47110300e+01
v 6.35123999e+03 5.11082113e+03 3.47417502e+01
v 6.35269425e+03 5.10825970e+03 3.45342974e+01
v 6.34680859e+03 5.11029592e+03 3.46826272e+01
v 6.34773440e+03 5.10979072e+03 3.46788599e+01
v 6.35050475e+03 5.10860030e+03 3.46380521e+01
v 6.35324386e+03 5.11078584e+03 3.50964060e+01
v 6.34688404e+03 5.10943295e+03 3.60467093e+01
v 6.34711957e+03 5.10892503e+03 3.55298213e+01
v 6.35242303e+03 5.11705656e+03 3.47185688e+01
v 6.35477363e+03 5.11378789e+03 3.46857556e+01
v 6.34669104e+03 5.10957904e+03 3.48044532e+01
v 6.34765992e+03 5.10937351e+03 3.60055741e+01
v 6.34678608e+03 5.10937606e+03 3.16414465e+01
v 6.34655574e+03 5.11081569e+03 3.26953227e+01
v 6.34506187e+03 5.11296854e+03 2.99691973e+01
v 6.35393645e+03 5.10818401e+03 3.33358997e+01
v 6.35569757e+03 5.11387853e+03 3.15894106e+01
v 6.35625582e+03 5.11388479e+03 3.33185964e+01
v 6.35032262e+03 5.12156722e+03 3.36727414e+01
v 6.35085997e+03 5.10863656e+03 3.16764834e+01
v 6.35210054e+03 5.10833533e+03 3.15435092e+01
v 6.35281857e+03 5.10793387e+03 3.10815642e+01
v 6.35349121e+03 5.10978863e+03 3.10173934e+01
v 6.35413927e+03 5.10892110e+03 3.27366708e+01
v 6.34659597e+03 5.11063290e+03 2.96314059e+01
v 6.35329328e+03 5.11832949e+03 3.34050717e+01
v 6.35538790e+03 5.11142206e+03 3.32130087e+01
v 6.34976227e+03 5.12110647e+03 3.11418289e+01
v 6.35085908e+03 5.12168526e+03 3.22718186e+01
v 6.35416127e+03 5.11877118e+03 3.13129121e+01
v 6.35200844e+03 5.12064222e+03 3.23641764e+01
v 6.35120859e+03 5.12195856e+03 3.12704632e+01
v 6.35642566e+03 5.12230363e+03 3.12846710e+01
v 6.35808188e+03 5.12115540e+03 3.12089295e+01
v 6.35723687e+03 5.12288590e+03 3.15107583e+01
v 6.35819943e+03 5.12194027e+03 3.13410450e+01
v 6.35650968e+03 5.12428142e+03 3.12891153e+01
v 6.35471192e+03 5.12494797e+03 3.13939795e+01
v 6.35930724e+03 5.12007097e+03 3.13177103e+01
v 6.35868224e+03 5.11937036e+03 3.13984761e+01
v 6.35883982e+03 5.11749829e+03 3.10198776e+01
v 6.35320320e+03 5.11748251e+03 3.37087593e+01
v 6.35590939e+03 5.11483913e+03 3.28719407e+01
v 6.34372181e+03 5.12194363e+03 3.33564792e+01
v 6.34590893e+03 5.12211681e+03 3.33968717e+01
v 6.35528209e+03 5.11258064e+03 3.10890806e+01
v 6.35408462e+03 5.12004378e+03 3.07876744e+01
v 6.35157151e+03 5.12382121e+03 3.09254098e+01
v 6.35593791e+03 5.11608916e+03 3.13468697e+01
v 6.35620334e+03 5.11696248e+03 3.09254634e+01
v 6.35634312e+03 5.12118933e+03 3.09562034e+01
v 6.35581982e+03 5.11033165e+03 3.10320750e+01
v 6.35766095e+03 5.11244964e+03 3.11528120e+01
v 6.34691401e+03 5.10912336e+03 2.92218856e+01
v 6.35310229e+03 5.10821654e+03 3.27996946e+01
v 6.34953436e+03 5.12152954e+03 3.07197734e+01
v 6.35789256e+03 5.11463611e+03 3.11096981e+01
v 6.35688536e+03 5.10847155e+03 3.12112905e+01
v 6.35695838e+03 5.11784741e+03 3.10933523e+01
v 6.35003599e+03 5.11065277e+03 2.90502434e+01
v 6.34888684e+03 5.10975401e+03 3.03374076e+01
v 6.35619017e+03 5.12482639e+03 3.03691887e+01
v 6.35477858e+03 5.12334441e+03 3.10454955e+01
v 6.34375669e+03 5.12426383e+03 3.09309673e+01
v 6.35901894e+03 5.11911310e+03 2.83897971e+01
v 6.34551855e+03 5.11301387e+03 2.90782396e+01
v 6.35633213e+03 5.12386312e+03 2.77629732e+01
v 6.34502060e+03 5.11284745e+03 2.69890946e+01
v 6.35754658e+03 5.12125022e+03 2.80147642e+01
v 6.34701600e+03 5.10932228e+03 2.60034862e+01
v 6.35899889e+03 5.11966501e+03 2.82389136e+01
v 6.34689488e+03 5.10923349e+03 2.77012782e+01
v 6.35609306e+03 5.10130252e+03 2.79774306e+01
v 6.35383243e+03 5.10462706e+03 2.80319425e+01
v 6.35529834e+03 5.10338541e+03 2.89160849e+01
v 6.35748497e+03 5.10015633e+03 2.87447134e+01
v 6.35602416e+03 5.10155129e+03 2.96567948e+01
v 6.35815948e+03 5.09834754e+03 2.79421026e+01
v 6.35841233e+03 5.09893181e+03 2.88172276e+01
v 6.35716760e+03 5.10103985e+03 2.87018378e+01
v 6.35470130e+03 5.10344963e+03 2.98851958e+01
v 6.35380148e+03 5.10545021e+03 2.88656430e+01
v 6.35072436e+03 5.10930092e+03 2.93567316e+01
v 6.35205395e+03 5.10719836e+03 2.97206364e+01
v 6.34981447e+03 5.11034150e+03 2.78367305e+01
v 6.35245772e+03 5.10692223e+03 2.57644282e+01
v 6.35631342e+03 5.10295875e+03 3.10089545e+01
v 6.35197929e+03 5.10725469e+03 3.14315282e+01
v 6.35965575e+03 5.09718424e+03 2.86779526e+01
v 6.35590195e+03 5.10148872e+03 2.66070322e+01
v 6.35274522e+03 5.10706249e+03 2.86078821e+01
v 6.35560560e+03 5.10210723e+03 3.14528754e+01
v 6.34350000e+03 5.11309762e+03 3.05075302e+01
v 6.34350000e+03 5.11306000e+03 3.32339478e+01
v 6.34350000e+03 5.12373637e+03 3.14530305e+01
v 6.34350000e+03 5.12416680e+03 3.10382615e+01
v 6.34350000e+03 5.12060804e+03 3.45954251e+01
v 6.34350000e+03 5.11380368e+03 3.46183425e+01
v 6.34350000e+03 5.11309233e+03 3.03134097e+01
v 6.34350000e+03 5.11308502e+03 3.01622329e+01
v 6.34350000e+03 5.11327200e+03 2.62412179e+01
v 6.34350000e+03 5.11327836e+03 2.61236915e+01
v 6.34350000e+03 5.11325884e+03 2.59914074e+01
v 6.34350000e+03 5.11327943e+03 2.60747083e+01
v 6.34350000e+03 5.11322084e+03 2.88882176e+01
v 6.34350000e+03 5.11302710e+03 2.83198932e+01
v 6.34350000e+03 5.12233438e+03 3.29532206e+01
v 6.34350000e+03 5.12073390e+03 3.44611083e+01
v 6.34350000e+03 5.12154632e+03 3.36758864e+01
v 6.34350000e+03 5.12189195e+03 3.33989733e+01
v 6.34350000e+03 5.11298919e+03 3.46113051e+01
v 6.34350000e+03 5.10302620e+03 1.59948773e+01
v 6.34350000e+03 5.10243926e+03 1.57014280e+01
v 6.34350000e+03 5.09639948e+03 1.60293426e+01
v 6.34350000e+03 5.09584611e+03 1.59239802e+01
v 6.34350000e+03 5.09390015e+03 1.59406856e+01
v 6.34350000e+03 5.09481930e+03 1.59178027e+01
v 6.34350000e+03 5.11127753e+03 1.53274190e+01
v 6.34350000e+03 5.11220517e+03 1.53216114e+01
v 6.34350000e+03 5.10742314e+03 1.56175488e+01
v 6.34350000e+03 5.10685099e+03 1.56066403e+01
v 6.34350000e+03 5.10818587e+03 1.55372522e+01
v 6.34350000e+03 5.11330664e+03 1.62599617e+01
v 6.34350000e+03 5.11291739e+03 1.76367484e+01
v 6.34350000e+03 5.11286296e+03 1.57221251e+01
v 6.34350000e+03 5.11311280e+03 1.59519034e+01
v 6.34350000e+03 5.09721374e+03 1.58956652e+01
v 6.34350000e+03 5.09823814e+03 1.58916302e+01
v 6.34350000e+03 5.10570367e+03 1.55476343e+01
v 6.34350000e+03 5.10587286e+03 1.55325242e+01
v 6.34350000e+03 5.09363171e+03 1.59467881e+01
v 6.34350000e+03 5.10134240e+03 1.57425840e+01
v 6.34350000e+03 5.10988058e+03 1.54270338e+01
v 6.34350000e+03 5.10955159e+03 1.58067447e+01
v 6.34350000e+03 5.10311849e+03 1.60080504e+01
v 6.34350000e+03 5.10314919e+03 1.60157460e+01
v 6.34350000e+03 5.10391200e+03 1.60677388e+01
v 6.34350000e+03 5.10486648e+03 1.61102149e+01
v 6.34350000e+03 5.09666281e+03 1.60125531e+01
v 6.34350000e+03 5.09921960e+03 1.61932757e+01
v 6.34350000e+03 5.09987880e+03 1.58046304e+01
v 6.34350000e+03 5.09677934e+03 1.58956731e+01
v 6.34350000e+03 5.10055361e+03 1.57436221e+01
v 6.34350000e+03 5.11286571e+03 1.81450381e+01
v 6.34350000e+03 5.11313054e+03 1.86537718e+01
v 6.34350000e+03 5.11330582e+03 2.08236203e+01
v 6.34350000e+03 5.11320211e+03 2.25313849e+01
v 6.34350000e+03 5.11312440e+03 2.36023572e+01
v 6.34350000e+03 5.11329716e+03 2.09891517e+01
v 6.34350000e+03 5.11275582e+03 2.51375283e+01
v 6.34350000e+03 5.11313541e+03 2.36351681e+01
v 6.34350000e+03 5.11311731e+03 2.37255654e+01
v 6.34350000e+03 5.12466990e+03 3.13130847e+01
v 6.34350000e+03 5.10622424e+03 1.55562978e+01
v 6.37525000e+03 5.11865057e+03 1.05223636e+01
v 6.37525000e+03 5.12020891e+03 9.25013282e+00
v 6.37525000e+03 5.12024398e+03 9.18951071e+00
v 6.37525000e+03 5.12027526e+03 9.17295768e+00
v 6.37525000e+03 5.11915856e+03 1.19295833e+01
v 6.37525000e+03 5.09990144e+03 3.39826145e+01
v 6.37525000e+03 5.09952201e+03 3.34030368e+01
v 6.37525000e+03 5.11937237e+03 1.68166600e+01
v 6.37525000e+03 5.11924532e+03 1.62727807e+01
v 6.37525000e+03 5.12058688e+03 2.44221252e+01
v 6.37525000e+03 5.12013154e+03 2.54162825e+01
v 6.37525000e+03 5.11934075e+03 2.00874340e+01
v 6.37525000e+03 5.11923455e+03 2.10090050e+01
v 6.37525000e+03 5.11966378e+03 2.70043179e+01
v 6.37525000e+03 5.11980050e+03 2.76484992e+01
v 6.37525000e+03 5.11793750e+03 2.92183468e+01
v 6.37525000e+03 5.11884379e+03 2.91417158e+01
v 6.37525000e+03 5.11804284e+03 3.20446430e+01
v 6.37525000e+03 5.11811118e+03 3.17887555e+01
v 6.37525000e+03 5.11115382e+03 3.32780688e+01
v 6.37525000e+03 5.11092717e+03 3.39564028e+01
v 6.37525000e+03 5.10766862e+03 3.49279215e+01
v 6.37525000e+03 5.10809846e+03 3.49781021e+01
v 6.37525000e+03 5.10821969e+03 3.50506667e+01
v 6.37525000e+03 5.09542546e+03 3.18380311e+01
v 6.37525000e+03 5.09366090e+03 3.17207894e+01
v 6.37525000e+03 5.09899289e+03 3.32035843e+01
v 6.37525000e+03 5.10050709e+03 3.45451427e+01
v 6.37525000e+03 5.10071423e+03 3.45910977e+01
v 6.37525000e+03 5.10393025e+03 3.56768551e+01
v 6.37525000e+03 5.10531638e+03 3.60394100e+01
v 6.37525000e+03 5.10026837e+03 3.43969956e+01
v 6.37525000e+03 5.09739895e+03 3.25497882e+01
v 6.37525000e+03 5.10290375e+03 3.52612337e+01
v 6.37525000e+03 5.10040800e+03 3.45194798e+01
v 6.37525000e+03 5.10642242e+03 3.55497028e+01
v 6.37525000e+03 5.10721414e+03 3.54522972e+01
v 6.37525000e+03 5.11246753e+03 3.28840127e+01
v 6.37525000e+03 5.10902939e+03 3.47462275e+01
v 6.37525000e+03 5.11073121e+03 3.41903465e+01
v 6.37525000e+03 5.11437056e+03 3.21308140e+01
v 6.37525000e+03 5.11429221e+03 3.21693902e+01
v 6.37525000e+03 5.11442029e+03 3.21098157e+01
v 6.37525000e+03 5.11816067e+03 3.10301503e+01
v 6.37525000e+03 5.11862836e+03 3.05838318e+01
v 6.37525000e+03 5.11852472e+03 3.25218103e+01
v 6.37525000e+03 5.11885131e+03 3.21025920e+01
v 6.37525000e+03 5.11649994e+03 3.12121091e+01
v 6.37525000e+03 5.11712876e+03 3.04345740e+01
v 6.37525000e+03 5.11881672e+03 3.17556660e+01
v 6.37525000e+03 5.11905291e+03 2.91223201e+01
v 6.37525000e+03 5.12004882e+03 2.88326541e+01
v 6.37525000e+03 5.12015486e+03 2.87389959e+01
v 6.37525000e+03 5.12033362e+03 9.16974945e+00
v 6.37525000e+03 5.11923040e+03 1.37843847e+01
v 6.37525000e+03 5.11945195e+03 1.29172602e+01
v 6.37525000e+03 5.11990120e+03 2.55795267e+01
v 6.37525000e+03 5.11997375e+03 2.28321175e+01
v 6.37525000e+03 5.11964234e+03 2.23773760e+01
v 6.37525000e+03 5.11920206e+03 2.20322405e+01
v 6.37525000e+03 5.12016471e+03 2.82894053e+01
v 6.35819746e+03 5.09350000e+03 1.60115637e+01
v 6.35883889e+03 5.09350000e+03 1.61468648e+01
v 6.34528033e+03 5.09350000e+03 1.59348234e+01
v 6.34531084e+03 5.09350000e+03 1.59328883e+01
v 6.35394908e+03 5.09350000e+03 1.58171759e+01
v 6.35396822e+03 5.09350000e+03 1.58644542e+01
v 6.34536858e+03 5.09350000e+03 1.59683253e+01
v 6.35632168e+03 5.09350000e+03 1.55156778e+01
v 6.35590541e+03 5.09350000e+03 1.56398208e+01
v 6.35357379e+03 5.09350000e+03 1.57955310e+01
v 6.35338456e+03 5.09350000e+03 1.57927373e+01
v 6.35177580e+03 5.09350000e+03 1.59496438e+01
v 6.34920586e+03 5.09350000e+03 1.59048585e+01
v 6.34808703e+03 5.09350000e+03 1.58290982e+01
v 6.35134608e+03 5.09350000e+03 1.57317280e+01
v 6.35696420e+03 5.09350000e+03 1.58136979e+01
v 6.34691879e+03 5.09350000e+03 1.66704659e+01
v 6.34725502e+03 5.09350000e+03 1.65458842e+01
v 6.36068394e+03 5.09350000e+03 1.64357944e+01
v 6.34647552e+03 5.09350000e+03 1.66271737e+01
v 6.34940867e+03 5.09350000e+03 1.58668895e+01
v 6.34763952e+03 5.09350000e+03 1.60222430e+01
v 6.36087357e+03 5.09350000e+03 1.66467426e+01
v 6.36089876e+03 5.09350000e+03 1.63846609e+01
v 6.36922098e+03 5.09350000e+03 3.09056774e+01
v 6.36592790e+03 5.09350000e+03 3.09428560e+01
v 6.37110938e+03 5.09350000e+03 3.09803313e+01
v 6.37063131e+03 5.09350000e+03 3.11738071e+01
v 6.37226897e+03 5.09350000e+03 3.09955967e+01
v 6.37289010e+03 5.09350000e+03 3.12902899e+01
v 6.36168074e+03 5.09350000e+03 2.71672917e+01
v 6.36153976e+03 5.09350000e+03 2.80463178e+01
v 6.36170689e+03 5.09350000e+03 3.14373371e+01
v 6.36222580e+03 5.09350000e+03 3.12617320e+01
v 6.36260375e+03 5.09350000e+03 3.11349596e+01
v 6.36281194e+03 5.09350000e+03 3.10151875e+01
v 6.36178869e+03 5.09350000e+03 2.64854692e+01
v 6.36175360e+03 5.09350000e+03 2.56349567e+01
v 6.36186778e+03 5.09350000e+03 2.82677203e+01
v 6.36235740e+03 5.09350000e+03 2.87079159e+01
v 6.36218478e+03 5.09350000e+03 2.89463368e+01
v 6.36160164e+03 5.09350000e+03 2.98416033e+01
v 6.36169365e+03 5.09350000e+03 3.09702049e+01
v 6.36168057e+03 5.09350000e+03 1.89162355e+01
v 6.36148165e+03 5.09350000e+03 1.74551889e+01
v 6.36163782e+03 5.09350000e+03 2.31555275e+01
v 6.36153001e+03 5.09350000e+03 2.22995401e+01
v 6.36165214e+03 5.09350000e+03 2.39530932e+01
v 6.36161990e+03 5.09350000e+03 2.07041235e+01
v 6.34524088e+03 5.09350000e+03 1.59351548e+01
v 6.34513982e+03 5.09350000e+03 1.59360040e+01
v 6.34356634e+03 5.09350000e+03 1.59364792e+01
v 6.34350000e+03 5.09350000e+03 1.59364992e+01
v 6.37337104e+03 5.09350000e+03 3.15045380e+01
v 6.37525000e+03 5.09350000e+03 3.17070602e+01
v 6.35478581e+03 5.12525000e+03 3.11642989e+01
v 6.35585680e+03 5.12525000e+03 3.03708173e+01
v 6.35863279e+03 5.12525000e+03 2.78949847e+01
v 6.35727547e+03 5.12525000e+03 2.78352930e+01
v 6.35451056e+03 5.12525000e+03 2.79549315e+01
v 6.35322338e+03 5.12525000e+03 2.85601618e+01
v 6.35469047e+03 5.12525000e+03 2.78758809e+01
v 6.35221473e+03 5.12525000e+03 2.88334946e+01
v 6.35222536e+03 5.12525000e+03 2.87979252e+01
v 6.35230119e+03 5.12525000e+03 2.87492016e+01
v 6.35472596e+03 5.12525000e+03 2.78332686e+01
v 6.35470419e+03 5.12525000e+03 2.78443388e+01
v 6.35589431e+03 5.12525000e+03 2.79218701e+01
v 6.35489204e+03 5.12525000e+03 2.90824127e+01
v 6.35375057e+03 5.12525000e+03 2.90124229e+01
v 6.35579875e+03 5.12525000e+03 3.02739618e+01
v 6.35534749e+03 5.12525000e+03 2.97157408e+01
v 6.34955870e+03 5.12525000e+03 3.13015535e+01
v 6.34783757e+03 5.12525000e+03 3.11655026e+01
v 6.35232381e+03 5.12525000e+03 2.89202130e+01
v 6.34462640e+03 5.12525000e+03 3.12777150e+01
v 6.34709012e+03 5.12525000e+03 3.12903537e+01
v 6.34988339e+03 5.12525000e+03 3.13012283e+01
v 6.34417429e+03 5.12525000e+03 3.12582457e+01
v 6.34412631e+03 5.12525000e+03 3.12388425e+01
v 6.35369817e+03 5.12525000e+03 3.12228446e+01
v 6.35312373e+03 5.12525000e+03 3.10869953e+01
v 6.35273519e+03 5.12525000e+03 3.10688455e+01
v 6.35318588e+03 5.12525000e+03 2.91038426e+01
v 6.37385078e+03 5.12525000e+03 9.08572808e+00
v 6.36105145e+03 5.12525000e+03 2.80233225e+01
v 6.36080979e+03 5.12525000e+03 2.79398132e+01
v 6.36053323e+03 5.12525000e+03 2.79248320e+01
v 6.36188516e+03 5.12525000e+03 2.83802016e+01
v 6.36196524e+03 5.12525000e+03 2.59494221e+01
v 6.36213131e+03 5.12525000e+03 2.64466373e+01
v 6.36232352e+03 5.12525000e+03 2.70137761e+01
v 6.36238648e+03 5.12525000e+03 2.76104185e+01
v 6.36220981e+03 5.12525000e+03 2.78585664e+01
v 6.36033116e+03 5.12525000e+03 2.79191438e+01
v 6.36229460e+03 5.12525000e+03 2.44471228e+01
v 6.36229439e+03 5.12525000e+03 2.44529748e+01
v 6.36220911e+03 5.12525000e+03 1.80945927e+01
v 6.36212386e+03 5.12525000e+03 1.72116785e+01
v 6.36458966e+03 5.12525000e+03 9.38623352e+00
v 6.36486374e+03 5.12525000e+03 9.27279308e+00
v 6.36849251e+03 5.12525000e+03 9.17214846e+00
v 6.37114872e+03 5.12525000e+03 9.23072471e+00
v 6.36366580e+03 5.12525000e+03 9.40928893e+00
v 6.36247747e+03 5.12525000e+03 1.00132183e+01
v 6.36230971e+03 5.12525000e+03 1.46105490e+01
v 6.36208479e+03 5.12525000e+03 1.39027220e+01
v 6.36137968e+03 5.12525000e+03 1.10334236e+01
v 6.36157751e+03 5.12525000e+03 1.18364211e+01
v 6.36216737e+03 5.12525000e+03 1.65486282e+01
v 6.36227232e+03 5.12525000e+03 1.96083974e+01
v 6.36214067e+03 5.12525000e+03 2.27114697e+01
v 6.36217143e+03 5.12525000e+03 2.06222854e+01
v 6.36211826e+03 5.12525000e+03 2.23701707e+01
v 6.36229316e+03 5.12525000e+03 2.44591955e+01
v 6.36673633e+03 5.12525000e+03 9.22704129e+00
v 6.36143153e+03 5.12525000e+03 1.09722161e+01
v 6.36199486e+03 5.12525000e+03 1.00500229e+01
v 6.34411874e+03 5.12525000e+03 3.12435686e+01
v 6.34410084e+03 5.12525000e+03 3.12547466e+01
v 6.34350000e+03 5.12525000e+03 3.12548480e+01
v 6.37390649e+03 5.12525000e+03 9.08528956e+00
v 6.37525000e+03 5.12525000e+03 9.07471507e+00
vt 0.0039626411 0.97154015
vt 0.0079821926 0.9797861
vt 0.0039697289 0.97827017
vt 0.038868651 0.96717751
vt 0.013758971 0.99518991
vt 0.01450846 0.99518943
vt 0.013640668 0.99518991
vt 0.021572405 0.99518692
vt 0.0039690216 0.98612821
vt 0.048844993 0.99301308
vt 0.013360858 0.99518985
vt 0.058970217 0.96559978
vt 0.06006816 0.99517435
vt 0.0039726463 0.99519289
vt 0.061833039 0.95171404
vt 0.071748734 0.99517184
vt 0.071194462 0.9405337
vt 0.098639846 0.99516171
vt 0.098247573 0.93703544
vt 0.13008758 0.97283059
vt 0.10371329 0.99516004
vt 0.12440327 0.94372451
vt 0.14827563 0.99514806
vt 0.1693377 0.91379654
vt 0.15434636 0.99514592
vt 0.17052263 0.89390606
vt 0.18019447 0.96536297
vt 0.20242569 0.86563861
vt 0.20463072 0.93168265
vt 0.16332054 0.99514157
vt 0.21422569 0.87946016
vt 0.20592219 0.94908977
vt 0.17915696 0.99041539
vt 0.22880594 0.82927835
vt 0.2436225 0.87399644
vt 0.2411653 0.90324444
vt 0.18031566 0.99513668
vt 0.18800685 0.79717475
vt 0.20724498 0.97999239
vt 0.23179586 0.9311409
vt 0.25960404 0.87430298
vt 0.2251754 0.79511523
vt 0.2185977 0.95818126
vt 0.25093549 0.91418934
vt 0.2336351 0.94340265
vt 0.24462885 0.83089232
vt 0.19639824 0.76203191
vt 0.24520591 0.79079521
vt 0.25179669 0.81022644
vt 0.21303597 0.73296046
vt 0.17666622 0.76996428
vt 0.14949079 0.724581
vt 0.16001089 0.75355923
vt 0.26073706 0.73246205
vt 0.27523911 0.77966738
vt 0.20407388 0.64682734
vt 0.27867442 0.67946368
vt 0.30193499 0.74227309
vt 0.27888981 0.63426346
vt 0.13636929 0.71396929
vt 0.27387935 0.72293079
vt 0.25937864 0.56324124
vt 0.13826801 0.7308526
vt 0.19300455 0.63352108
vt 0.31605795 0.66277528
vt 0.31243294 0.70373178
vt 0.34707677 0.58482045
vt 0.24879587 0.55424738
vt 0.11888387 0.73556429
vt 0.33200249 0.66794312
vt 0.35069275 0.67261475
vt 0.29189694 0.52363706
vt 0.32576227 0.73918098
vt 0.35726842 0.6302942
vt 0.38334844 0.53214288
vt 0.28829446 0.49900144
vt 0.36476365 0.70403576
vt 0.40570918 0.49896908
vt 0.37794155 0.57059097
vt 0.29640454 0.49900067
vt 0.37446216 0.62007743
vt 0.41061479 0.65345722
vt 0.35425413 0.49898535
vt 0.42856139 0.50571644
vt 0.39505237 0.57959688
vt 0.30231157 0.49900013
vt 0.36212584 0.61672628
vt 0.30556595 0.49900037
vt 0.42774263 0.498959
vt 0.44271034 0.51813209
vt 0.3764585 0.60738581
vt 0.41017765 0.55170727
vt 0.40364227 0.60428929
vt 0.43521482 0.49895871
vt 0.465471 0.57861722
vt 0.45333338 0.49895263
vt 0.45410922 0.52649677
vt 0.49991208 0.52901387
vt 0.46303505 0.49894631
vt 0.49990454 0.50144374
vt 0.49991369 0.55984235
vt 0.47054729 0.4989416
vt 0.49990389 0.49892986
vt 0.60726839 0.6302942
vt 0.59843218 0.61302149
vt 0.61212581 0.61672628
vt 0.59707677 0.58482045
vt 0.030042613 0.34363848
vt 0.026911311 0.35707426
vt 0.0056764912 0.34225482
vt 0.029742861 0.32204062
vt 0.066536665 0.35599709
vt 0.021341918 0.3751027
vt 0.014384412 0.32721519
vt 0.035104331 0.31267929
vt 0.068921246 0.30363321
vt 0.040121756 0.37881851
vt 0.0050035729 0.34465533
vt 0.0051441081 0.34075075
vt 0.0070629143 0.30398035
vt 0.082333133 0.3114056
vt 0.068503059 0.39769876
vt 0.030830452 0.39012611
vt 0.0076085092 0.3768748
vt 0.0049360073 0.34282798
vt 0.01050153 0.32705444
vt 0.0049246564 0.34206516
vt 0.055494875 0.29070127
vt 0.03568827 0.29527366
vt 0.083009697 0.29171062
vt 0.087266929 0.34043747
vt 0.088214464 0.39038765
vt 0.026089793 0.40365601
vt 0.0055447095 0.38588303
vt 0.0066542006 0.30531812
vt 0.065011077 0.24233568
vt 0.027669365 0.28832597
vt 0.08682505 0.36675185
vt 0.066092499 0.44557619
vt 0.006911234 0.40800357
vt 0.0069892127 0.40564114
vt 0.0064615351 0.30392265
vt 0.031827606 0.25433409
vt 0.0057528699 0.28676564
vt 0.086541526 0.25829703
vt 0.08405745 0.4282105
vt 0.006854584 0.41103393
vt 0.0065788496 0.30340272
vt 0.022972835 0.22384506
vt 0.0047428417 0.26279485
vt 0.085744716 0.21594876
vt 0.094723009 0.43740779
vt 0.087173432 0.46226865
vt 0.027372459 0.47586662
vt 0.015206833 0.432078
vt 0.051009588 0.20210332
vt 0.0046508536 0.26022083
vt 0.081024826 0.19000709
vt 0.080805011 0.4776091
vt 0.074515909 0.47634137
vt 0.0072514913 0.45351005
vt 0.069140524 0.20997918
vt 0.030918155 0.20384198
vt 0.099607818 0.19956863
vt 0.09943331 0.47536135
vt 0.084565826 0.49700183
vt 0.0065201814 0.22625893
vt 0.012480128 0.19631588
vt 0.030403228 0.18879706
vt 0.09266828 0.48872334
vt 0.11633669 0.44108486
vt 0.0080036754 0.47492898
vt 0.0093408572 0.21812546
vt 0.0087913079 0.21024066
vt 0.11346584 0.40830308
vt 0.13483696 0.47698545
vt 0.0046483539 0.18907398
vt 0.023183413 0.18184936
vt 0.13851669 0.43109548
vt 0.12989488 0.39534146
vt 0.16862875 0.4498837
vt 0.0067127463 0.18412328
vt 0.10762899 0.39110559
vt 0.166031 0.42701858
vt 0.16350079 0.4766683
vt 0.15591045 0.42967647
vt 0.0093734199 0.18035012
vt 0.10841197 0.37179118
vt 0.16748683 0.40035594
vt 0.15965253 0.37348139
vt 0.23767635 0.40194404
vt 0.10919484 0.34748441
vt 0.26230919 0.42600304
vt 0.20608568 0.38693649
vt 0.17683975 0.38339698
vt 0.12835474 0.33868921
vt 0.27301756 0.39787567
vt 0.24518876 0.3872121
vt 0.10808672 0.32468122
vt 0.15768786 0.31999087
vt 0.37737504 0.39875555
vt 0.2152058 0.3733322
vt 0.17504957 0.33875549
vt 0.27645665 0.37155342
vt 0.32822028 0.38448751
vt 0.3571693 0.42456353
vt 0.23486824 0.33599412
vt 0.11585073 0.28271222
vt 0.20019698 0.31860584
vt 0.29154006 0.38341212
vt 0.30457699 0.38363171
vt 0.36104742 0.38186717
vt 0.42372924 0.42353278
vt 0.14786653 0.27759737
vt 0.10496862 0.29778528
vt 0.20387967 0.29165637
vt 0.33155146 0.37021762
vt 0.37673223 0.37288845
vt 0.42357847 0.41624075
vt 0.27229041 0.35019493
vt 0.11037215 0.24757057
vt 0.10498342 0.25506246
vt 0.26610777 0.32098073
vt 0.26930699 0.29144812
vt 0.40844217 0.38142228
vt 0.42252779 0.39858025
vt 0.11504628 0.23883408
vt 0.22317837 0.27491909
vt 0.32406855 0.33263695
vt 0.42182246 0.37054765
vt 0.43117133 0.38144475
vt 0.4291971 0.38503867
vt 0.30896923 0.33859551
vt 0.14112309 0.24801868
vt 0.21592554 0.24404949
vt 0.3013227 0.30690056
vt 0.23061846 0.22891206
vt 0.37512138 0.32298529
vt 0.42557317 0.37423313
vt 0.42343572 0.35694414
vt 0.15827334 0.23118281
vt 0.13734835 0.22923219
vt 0.29178816 0.29042721
vt 0.31007868 0.27449852
vt 0.40649545 0.33977377
vt 0.3262153 0.28776586
vt 0.30003291 0.24886245
vt 0.40271017 0.30070597
vt 0.42467105 0.34639144
vt 0.14780931 0.18777823
vt 0.20752208 0.20433575
vt 0.26570937 0.22397339
vt 0.35328978 0.24626064
vt 0.36436531 0.28698522
vt 0.42427093 0.33310694
vt 0.37871224 0.2746014
vt 0.1763061 0.20126265
vt 0.23391089 0.20305699
vt 0.31550676 0.2244904
vt 0.4231129 0.30681437
vt 0.42295021 0.29437011
vt 0.17439444 0.18659592
vt 0.20946954 0.18481165
vt 0.26434922 0.18826437
vt 0.28823519 0.20130438
vt 0.37300426 0.21132821
vt 0.42171848 0.2809484
vt 0.24357665 0.18561476
vt 0.31293088 0.19236034
vt 0.34326246 0.18646079
vt 0.42344457 0.22830999
vt 0.42274848 0.25613993
vt 0.27511457 0.18349046
vt 0.29441741 0.18340212
vt 0.36814609 0.18919718
vt 0.42117178 0.20539051
vt 0.39453709 0.18668085
vt 0.41421944 0.19235343
vt 0.41450781 0.18828553
vt 0.40591046 0.92967647
vt 0.41839668 0.92267978
vt 0.41862875 0.9498837
vt 0.72695965 0.75329173
vt 0.74498737 0.73447025
vt 0.74854726 0.77192354
vt 0.71787506 0.77948868
vt 0.72683024 0.70810658
vt 0.79161108 0.79623961
vt 0.72384709 0.81091738
vt 0.70452207 0.76846188
vt 0.76310068 0.70173341
vt 0.70598674 0.72129089
vt 0.74826413 0.81978327
vt 0.79388404 0.76073313
vt 0.70491099 0.81948012
vt 0.70586729 0.76007652
vt 0.74011481 0.68514383
vt 0.78916836 0.71600389
vt 0.70361221 0.70760715
vt 0.75462693 0.86332428
vt 0.72482401 0.85520029
vt 0.70605725 0.83392715
vt 0.71970481 0.67250264
vt 0.73699135 0.66328609
vt 0.79428631 0.6918869
vt 0.70672268 0.69242591
vt 0.78766489 0.83879393
vt 0.79833585 0.67762965
vt 0.78389353 0.87116343
vt 0.72323662 0.88523495
vt 0.70641977 0.8499046
vt 0.71211326 0.67086285
vt 0.79363972 0.66327113
vt 0.75397187 0.89139277
vt 0.70173377 0.85495889
vt 0.78369105 0.8914603
vt 0.72357261 0.90944868
vt 0.69820964 0.86180288
vt 0.7807284 0.90244138
vt 0.70196295 0.88731015
vt 0.77289808 0.91219145
vt 0.69656938 0.90197557
vt 0.69170159 0.88613772
vt 0.80854416 0.94242728
vt 0.7233634 0.94196784
vt 0.69902635 0.90469164
vt 0.70157892 0.92708182
vt 0.80412638 0.99565476
vt 0.70013219 0.93702382
vt 0.74738908 0.99497992
vt 0.69917673 0.95379061
vt 0.72000861 0.9628818
vt 0.69626153 0.94674593
vt 0.71035033 0.96101457
vt 0.72864562 0.98244423
vt 0.6963737 0.95376283
vt 0.70812172 0.96055698
vt 0.73535842 0.99503338
vt 0.69750512 0.95530176
vt 0.62916327 0.34648633
vt 0.6384092 0.33311343
vt 0.65337306 0.34667397
vt 0.67485976 0.36558115
vt 0.6610648 0.32956821
vt 0.63475913 0.36142552
vt 0.66288239 0.40685868
vt 0.69986719 0.38213509
vt 0.63726825 0.3860817
vt 0.71809524 0.349446
vt 0.69958735 0.40082181
vt 0.63659853 0.43043017
vt 0.7484715 0.37684739
vt 0.69661117 0.4371416
vt 0.66720581 0.50067043
vt 0.74262387 0.34083688
vt 0.76432514 0.43512273
vt 0.71740156 0.44168115
vt 0.63294977 0.46583939
vt 0.76890576 0.35923332
vt 0.78637385 0.40403581
vt 0.75059402 0.45993805
vt 0.71060556 0.5017941
vt 0.63598031 0.50888693
vt 0.79287767 0.32622266
vt 0.78416187 0.44722617
vt 0.76343453 0.48059613
vt 0.68248224 0.51102531
vt 0.64952856 0.54248083
vt 0.80809134 0.34321249
vt 0.80816662 0.3682667
vt 0.82323438 0.40298027
vt 0.76565504 0.51335084
vt 0.74693048 0.51148939
vt 0.70199668 0.5503391
vt 0.82431018 0.3464331
vt 0.83925211 0.44506103
vt 0.81046325 0.50264931
vt 0.73872662 0.55286801
vt 0.67279714 0.55221456
vt 0.83875364 0.43475509
vt 0.83827841 0.45888644
vt 0.78277713 0.55592453
vt 0.7565313 0.53160119
vt 0.74787718 0.57747602
vt 0.70553297 0.58332646
vt 0.67445952 0.57093722
vt 0.65199316 0.56296635
vt 0.83969438 0.39344651
vt 0.83712333 0.40464187
vt 0.83755761 0.48253173
vt 0.80015641 0.58361447
vt 0.75866467 0.55499965
vt 0.8454923 0.36087132
vt 0.83871275 0.49826628
vt 0.83723718 0.55804491
vt 0.77726448 0.57822752
vt 0.7585659 0.58261335
vt 0.72052407 0.59641945
vt 0.84775347 0.34821153
vt 0.83322585 0.53259099
vt 0.82631975 0.57775867
vt 0.77443683 0.60888946
vt 0.83932298 0.52547801
vt 0.83730936 0.55798334
vt 0.84107769 0.58116949
vt 0.83917934 0.58903944
vt 0.83698219 0.59801811
vt 0.83906722 0.53081477
vt 0.8373118 0.55807447
vt 0.83732593 0.55817056
vt 0.75862616 0.61616254
vt 0.836263 0.60736465
vt 0.76607531 0.62073815
vt 0.80167276 0.61857998
vt 0.8382836 0.61110735
vt 0.84199667 0.61900824
vt 0.69448406 0.16680729
vt 0.70883995 0.1884982
vt 0.67415333 0.18820512
vt 0.66979623 0.15505028
vt 0.71072197 0.1451984
vt 0.6921941 0.1958589
vt 0.65261424 0.18859607
vt 0.73918068 0.15807807
vt 0.69761932 0.21343964
vt 0.71208954 0.20065403
vt 0.65857166 0.21722376
vt 0.69419616 0.11759019
vt 0.74531668 0.12816191
vt 0.72383028 0.18609709
vt 0.62328571 0.23375654
vt 0.64067113 0.12563765
vt 0.68084151 0.2416963
vt 0.65676403 0.24085683
vt 0.63700968 0.19857484
vt 0.66726226 0.092958748
vt 0.64271301 0.15804225
vt 0.73364127 0.092935085
vt 0.63952523 0.24907362
vt 0.61480981 0.22885412
vt 0.64942068 0.17992312
vt 0.66139871 0.092960835
vt 0.61960328 0.15726405
vt 0.71437377 0.09294349
vt 0.74366206 0.092930377
vt 0.6300354 0.26725006
vt 0.60385251 0.24420184
vt 0.61662799 0.21155208
vt 0.61072522 0.17285961
vt 0.63363546 0.1094467
vt 0.60191298 0.1453594
vt 0.70433795 0.092949927
vt 0.77248776 0.092917919
vt 0.66138953 0.27085161
vt 0.61354911 0.27958393
vt 0.63720703 0.28464001
vt 0.58335727 0.2869482
vt 0.58130997 0.21584409
vt 0.58861303 0.20568544
vt 0.62129986 0.19213951
vt 0.6584419 0.092961848
vt 0.59341812 0.16042423
vt 0.68055522 0.10395479
vt 0.76852673 0.11435825
vt 0.58318019 0.27336657
vt 0.58472562 0.2362963
vt 0.60071957 0.2030158
vt 0.63330305 0.092968345
vt 0.60368347 0.13487244
vt 0.56645709 0.14130151
vt 0.69783223 0.092950702
vt 0.77584493 0.092917383
vt 0.64067143 0.30006808
vt 0.58557129 0.25782776
vt 0.55036139 0.25056016
vt 0.56938678 0.19518244
vt 0.62659127 0.092972815
vt 0.58614266 0.12437433
vt 0.60572052 0.11104584
vt 0.57240856 0.17475855
vt 0.66756076 0.092958093
vt 0.624753 0.32198185
vt 0.5721823 0.25017726
vt 0.5420931 0.22911346
vt 0.59565336 0.094422817
vt 0.55898899 0.16829425
vt 0.57496333 0.12291771
vt 0.59014201 0.30483258
vt 0.51470071 0.22637886
vt 0.54872859 0.21118617
vt 0.59631747 0.092981219
vt 0.54644144 0.1734516
vt 0.56336898 0.13080662
vt 0.57790816 0.33029503
vt 0.56527972 0.31500155
vt 0.54431707 0.26659113
vt 0.52553672 0.2162329
vt 0.50404084 0.24185729
vt 0.53623265 0.1874513
vt 0.59314817 0.092981815
vt 0.53143251 0.15748221
vt 0.54820895 0.12964171
vt 0.55754125 0.11309153
vt 0.57622814 0.09853971
vt 0.61096561 0.34804708
vt 0.56268513 0.30509192
vt 0.57729131 0.28813285
vt 0.52197599 0.25618553
vt 0.51941812 0.19978207
vt 0.50404114 0.24329919
vt 0.50404131 0.2326895
vt 0.51779115 0.17499697
vt 0.58299792 0.34350401
vt 0.55591887 0.31428415
vt 0.55854267 0.28888786
vt 0.5081054 0.28710502
vt 0.50403529 0.21555042
vt 0.5756672 0.092988312
vt 0.50401258 0.15103829
vt 0.52687645 0.14574736
vt 0.51363373 0.10829258
vt 0.55025136 0.29789782
vt 0.50404119 0.24377888
vt 0.5241186 0.29903507
vt 0.50513774 0.27093148
vt 0.5040313 0.20322567
vt 0.50401038 0.14425069
vt 0.50401783 0.16704458
vt 0.50400841 0.14242864
vt 0.52545327 0.12507361
vt 0.50402713 0.19268101
vt 0.531811 0.093001366
vt 0.56867254 0.092988491
vt 0.50406474 0.30162418
vt 0.50405967 0.28369778
vt 0.5040192 0.18237668
vt 0.50400686 0.13831389
vt 0.53228784 0.093001246
vt 0.5039953 0.099262655
vt 0.56265843 0.092984796
vt 0.54824233 0.31041843
vt 0.50404441 0.25569731
vt 0.50406218 0.29183167
vt 0.50406754 0.31056392
vt 0.50404876 0.27061057
vt 0.50406069 0.28634149
vt 0.50400531 0.12966865
vt 0.55795521 0.097195208
vt 0.53119469 0.093001604
vt 0.50400019 0.11362469
vt 0.54501194 0.32767344
vt 0.5108602 0.31613201
vt 0.53318965 0.093000591
vt 0.50399387 0.095068216
vt 0.55740345 0.092985153
vt 0.50407231 0.32248253
vt 0.5504778 0.092987895
vt 0.52961552 0.093002081
vt 0.52557355 0.33320993
vt 0.51595366 0.34698248
vt 0.50502974 0.093010068
vt 0.53824437 0.34233767
vt 0.50407606 0.34381896
vt 0.50399327 0.093010426
vt 0.5040822 0.34896368
vt 0.52555341 0.36089963
vt 0.50409049 0.37079209
vt 0.51889849 0.81215036
vt 0.5521996 0.82083696
vt 0.50199127 0.81638521
vt 0.48998156 0.81220442
vt 0.56276232 0.8103134
vt 0.54926223 0.84319848
vt 0.48147741 0.81480104
vt 0.58914006 0.81535739
vt 0.58566493 0.84951812
vt 0.50588876 0.83522546
vt 0.46651092 0.8108657
vt 0.58921015 0.81559253
vt 0.58712298 0.84232497
vt 0.58547717 0.85082716
vt 0.52731949 0.86071014
vt 0.58925408 0.81611705
vt 0.58859509 0.83399373
vt 0.57792658 0.8500638
vt 0.56855768 0.86353594
vt 0.48235479 0.84223187
vt 0.44951344 0.83593339
vt 0.58080411 0.82452291
vt 0.58892059 0.86620712
vt 0.49517065 0.85818779
vt 0.45522141 0.81774455
vt 0.58453894 0.87013721
vt 0.45039037 0.84740078
vt 0.48647118 0.86174524
vt 0.43040156 0.81737143
vt 0.45954892 0.8071332
vt 0.42379859 0.84146798
vt 0.41495544 0.86391234
vt 0.45435417 0.85965061
vt 0.40231606 0.83470368
vt 0.42973942 0.8061595
vt 0.39084655 0.8462193
vt 0.39700133 0.80426878
vt 0.39325669 0.8638441
vt 0.37523007 0.82459432
vt 0.35852674 0.86021674
vt 0.35692325 0.82509148
vt 0.33411995 0.83025575
vt 0.31643826 0.85669661
vt 0.76157093 0.2116642
vt 0.76449668 0.22223794
vt 0.76130736 0.22127813
vt 0.77129513 0.20543325
vt 0.76107562 0.22597992
vt 0.76313734 0.19217068
vt 0.81755191 0.24798805
vt 0.75904691 0.25169748
vt 0.76531124 0.16338176
vt 0.84417516 0.26271683
vt 0.77185047 0.25097388
vt 0.76540446 0.16206473
vt 0.83626962 0.27006054
vt 0.81917435 0.16327894
vt 0.77597398 0.28861606
vt 0.75808209 0.26434278
vt 0.93253464 0.22538787
vt 0.76005763 0.26537794
vt 0.77742392 0.13340455
vt 0.87093085 0.16827089
vt 0.75742191 0.26956987
vt 0.76546371 0.16126454
vt 0.8443163 0.11670202
vt 0.91386145 0.16935045
vt 0.75793636 0.26502615
vt 0.75688422 0.28028798
vt 0.7679404 0.12760037
vt 0.94492137 0.19005883
vt 0.75593865 0.29060131
vt 0.86228579 0.11073089
vt 0.94519114 0.16420287
vt 0.94854313 0.20577693
vt 0.75462157 0.30863088
vt 0.84948581 0.08939898
vt 0.91311657 0.14660484
vt 0.93886673 0.15259123
vt 0.96773076 0.17821717
vt 0.96710932 0.19842386
vt 0.95652902 0.22844648
vt 0.86599767 0.084728122
vt 0.82494134 0.075333655
vt 0.92069763 0.13276619
vt 0.97848046 0.13492733
vt 0.98846096 0.16563797
vt 0.87 0.069652379
vt 0.89026618 0.084597766
vt 0.83945912 0.061810076
vt 0.89335775 0.10889053
vt 0.93367106 0.13529021
vt 0.9642089 0.12788659
vt 0.98660719 0.17952293
vt 0.94991821 0.1138584
vt 0.91419125 0.083377719
vt 0.9139396 0.100519
vt 0.92852181 0.087561727
vt 0.2229901 0.53719109
vt 0.21125209 0.538638
vt 0.22576071 0.5269711
vt 0.21597177 0.54920805
vt 0.20202634 0.4894138
vt 0.22031152 0.54539013
vt 0.13434862 0.56444621
vt 0.22962111 0.51973736
vt 0.21929249 0.54810417
vt 0.13954382 0.57659554
vt 0.24125049 0.49733567
vt 0.14028144 0.54189098
vt 0.21856956 0.54932421
vt 0.1795889 0.59187043
vt 0.098207235 0.58433688
vt 0.11856509 0.51637942
vt 0.21705851 0.55178565
vt 0.14856367 0.59489149
vt 0.090672366 0.57497716
vt 0.15337785 0.62198675
vt 0.20108499 0.57992983
vt 0.0034971205 0.53176582
vt 0.19359566 0.59429401
vt 0.18348353 0.61140025
vt 0.50461978 0.94928801
vt 0.53364551 0.92129028
vt 0.55982614 0.92840075
vt 0.56290984 0.93627131
vt 0.49338827 0.91553742
vt 0.5553177 0.91498959
vt 0.59698015 0.93130481
vt 0.50242764 0.95954442
vt 0.55119401 0.89853358
vt 0.45540294 0.93118209
vt 0.56939125 0.90543664
vt 0.60754472 0.91511124
vt 0.6196444 0.94675368
vt 0.44139379 0.97319961
vt 0.51239395 0.97800392
vt 0.45506501 0.91877317
vt 0.45060512 0.96105534
vt 0.60159045 0.90094084
vt 0.61703032 0.93593305
vt 0.56780875 0.95777243
vt 0.46330944 0.9956851
vt 0.57459188 0.89708817
vt 0.62987417 0.92129946
vt 0.61361092 0.90064979
vt 0.63164753 0.9371227
vt 0.66159278 0.96883768
vt 0.66384238 0.94196844
vt 0.66211927 0.96610224
vt 0.63988483 0.90325505
vt 0.66551822 0.9495793
vt 0.66696477 0.94334263
vt 0.67467993 0.90356642
vt 0.66881561 0.934093
vt 0.82310754 0.95659304
vt 0.823304 0.93631762
vt 0.84078425 0.92243057
vt 0.82957751 0.9965018
vt 0.82552415 0.91316754
vt 0.85543162 0.97263575
vt 0.83948231 0.87647206
vt 0.87310928 0.9704448
vt 0.87652051 0.95882475
vt 0.8722012 0.89860356
vt 0.82188123 0.88906348
vt 0.87189615 0.94026774
vt 0.87017339 0.87582701
vt 0.87570435 0.91906959
vt 0.81999797 0.87080628
vt 0.86715668 0.83718413
vt 0.82228768 0.83979857
vt 0.83600885 0.81229079
vt 0.87508535 0.79366177
vt 0.82207984 0.80249739
vt 0.86911052 0.7822684
vt 0.87573457 0.81950378
vt 0.83246529 0.7891646
vt 0.87781626 0.77204025
vt 0.8766908 0.82983565
vt 0.82498842 0.78155518
vt 0.84965611 0.77361429
vt 0.82930654 0.77990752
vt 0.84120548 0.7707274
vt 0.81572372 0.76860422
vt 0.82493329 0.7636553
vt 0.070016868 0.76530051
vt 0.07111685 0.75335056
vt 0.11329842 0.74668658
vt 0.12479653 0.78138232
vt 0.028686408 0.81351924
vt 0.14750902 0.74135464
vt 0.055553488 0.77319896
vt 0.10120013 0.93408906
vt 0.15610288 0.78081703
vt 0.053711619 0.76199692
vt 0.0038749117 0.8280257
vt 0.16597658 0.79612184
vt 0.0038708735 0.81529915
vt 0.0039096158 0.93434483
vt 0.18002589 0.82772106
vt 0.14331362 0.87880605
vt 0.49147063 0.71947771
vt 0.45092127 0.69773138
vt 0.47403654 0.66123605
vt 0.50577968 0.62786663
vt 0.45919654 0.74530196
vt 0.44203576 0.65600455
vt 0.48083693 0.61398882
vt 0.56336552 0.66669464
vt 0.43175551 0.74531031
vt 0.5006994 0.7452879
vt 0.4291743 0.67818236
vt 0.49566585 0.59666997
vt 0.54292077 0.74527574
vt 0.53733605 0.6350463
vt 0.40249562 0.74531931
vt 0.37862661 0.69765133
vt 0.56475782 0.66844916
vt 0.56011915 0.63595301
vt 0.54379129 0.7452755
vt 0.56475747 0.66753715
vt 0.56473339 0.64213693
vt 0.39821178 0.74531949
vt 0.56478381 0.74526882
vt 0.56475711 0.66704828
vt 0.56475621 0.66649973
vt 0.38604164 0.7260946
vt 0.38377619 0.7453239
vt 0.8236509 0.72349501
vt 0.87802875 0.69947261
vt 0.85960436 0.74515212
vt 0.83839685 0.74515963
vt 0.84261066 0.68265927
vt 0.88614136 0.74514318
vt 0.81681502 0.74516571
vt 0.86529249 0.65788049
vt 0.88929856 0.7451421
vt 0.88800257 0.65077579
vt 0.90446615 0.65857834
vt 0.87496138 0.63593006
vt 0.89361978 0.74514055
vt 0.88723117 0.63139647
vt 0.94099224 0.67314792
vt 0.88564658 0.60060138
vt 0.90514582 0.57124841
vt 0.89739472 0.74513841
vt 0.93683994 0.63652718
vt 0.93397087 0.71125752
vt 0.92054427 0.58532047
vt 0.95875299 0.68563628
vt 0.91041732 0.74513042
vt 0.59104192 0.71054173
vt 0.58086032 0.72028661
vt 0.57168251 0.71130753
vt 0.56545556 0.68452752
vt 0.63195306 0.71700317
vt 0.56745172 0.73802876
vt 0.59290719 0.68263048
vt 0.61413342 0.69328445
vt 0.6616931 0.69008768
vt 0.60064131 0.74531013
vt 0.61627614 0.6806637
vt 0.66811186 0.71744096
vt 0.64312297 0.68295372
vt 0.61829865 0.73902524
vt 0.67432922 0.70952189
vt 0.65011907 0.73777115
vt 0.68799931 0.68483722
vt 0.7003451 0.67780828
vt 0.93448406 0.99627936
vt 0.92758185 0.98249829
vt 0.92829663 0.97432756
vt 0.94791824 0.98102552
vt 0.91482747 0.99244899
vt 0.91355592 0.97380477
vt 0.94266021 0.95840883
vt 0.92024261 0.95659471
vt 0.96474385 0.97474927
vt 0.89537859 0.97856796
vt 0.89249456 0.9631387
vt 0.96908557 0.98357451
vt 0.95874614 0.95470732
vt 0.89437234 0.95323366
vt 0.97579032 0.96865642
vt 0.9753145 0.95319521
vt 0.87949789 0.95861793
vt 0.9009673 0.9452343
vt 0.88840473 0.95064527
vt 0.98716986 0.95925486
vt 0.91504687 0.91033256
vt 0.87919664 0.92649043
vt 0.88650024 0.90355879
vt 0.92684627 0.9005428
vt 0.93369323 0.92245066
vt 0.94157928 0.9108789
vt 0.93212277 0.93091631
vt 0.94681764 0.89452118
vt 0.96840584 0.92487532
vt 0.96936965 0.89825034
vt 0.9857946 0.93424559
vt 0.98304898 0.87353283
vt 0.98486358 0.89721656
vt 0.98438662 0.9266082
vt 0.97545755 0.853477
vt 0.95997357 0.83389604
vt 0.33830023 0.99699348
vt 0.29929885 0.96184826
vt 0.25344771 0.91126972
vt 0.420044 0.98086965
vt 0.39122835 0.97160184
vt 0.40517521 0.96409482
vt 0.41953647 0.97687215
vt 0.40967122 0.99593407
vt 0.42536843 0.97898471
vt 0.43280461 0.9954986
vt 0.3789227 0.98131424
vt 0.43217787 0.99442661
vt 0.35798183 0.91479278
vt 0.34742898 0.95544904
vt 0.34455156 0.92726725
vt 0.32855949 0.91384143
vt 0.3171995 0.93209153
vt 0.32382253 0.96424007
vt 0.23047471 0.98937345
vt 0.20338024 0.99650311
vt 0.18416788 0.99247724
vt 0.86882508 0.97894114
vt 0.86438686 0.98784751
vt 0.86601532 0.97775543
vt 0.88550937 0.99090445
vt 0.88892716 0.98803192
vt 0.86288333 0.99626642
vt 0.90311611 0.99170077
vt 0.88070244 0.99503404
vt 0.90332609 0.99079835
vt 0.90297502 0.9934212
vt 0.88951921 0.99635518
vt 0.9045105 0.99153405
vt 0.90467685 0.99207747
vt 0.26016733 0.97952527
vt 0.22355244 0.97810775
vt 0.2312489 0.9644807
vt 0.71682751 0.99595606
vt 0.71327108 0.98609418
vt 0.72915506 0.98438901
vt 0.69182843 0.98738843
vt 0.24155521 0.99637091
vt 0.22227976 0.99315399
vt 0.25877672 0.99321246
vt 0.25855875 0.99396324
vt 0.97497398 0.99264491
vt 0.94203043 0.99566895
vt 0.95989186 0.983751
vt 0.98593056 0.98909944
vt 0.97891819 0.99052328
vt 0.98488218 0.98522365
vt 0.97856796 0.9967199
vt 0.98411566 0.97363478
vt 0.97356838 0.99050874
vt 0.97695822 0.96709949
vt 0.97409296 0.98517197
vt 0.26981434 0.95682913
vt 0.26347819 0.97389376
vt 0.25973609 0.95303917
vt 0.25336349 0.96949703
vt 0.25868386 0.97994632
vt 0.2863878 0.96103048
vt 0.28348556 0.9805367
vt 0.26995942 0.95860219
vt 0.2714113 0.9801982
vt 0.18612289 0.99401599
vt 0.18509601 0.99599922
vt 0.1843335 0.99282819
vt 0.0029727349 0.99469948
vt 0.0043827672 0.99435985
vt 0.0032066372 0.99575692
usemtl Tile_+032_+021_L19_000033_0
f 195/108 462/109 294/110
f 311/265 310/264 368/273
f 420/690 425/691 246/692
f 476/194 485/195 293/190
f 473/205 472/217 483/212
f 485/195 476/194 478/189
f 484/220 467/204 298/207
f 261/229 66/238 133/218
f 473/205 470/211 472/217
f 467/204 468/202 298/207
f 198/130 296/116 287/136
f 475/191 471/197 486/193
f 489/1 458/2 490/3
f 448/723 466/724 290/725
f 448/132 419/122 291/112
f 457/27 445/29 427/32
f 463/568 269/569 270/570
f 291/112 464/131 466/138
f 426/698 423/695 425/691
f 424/26 441/24 426/22
f 447/42 82/48 451/34
f 79/41 435/35 451/34
f 457/27 427/32 432/33
f 434/36 433/44 428/40
f 441/24 445/29 457/27
f 247/708 252/696 245/701
f 418/820 410/821 449/822
f 421/824 394/833 400/829
f 250/827 251/830 440/832
f 418/820 449/822 416/823
f 398/930 406/931 241/932
f 423/695 246/692 425/691
f 665/590 456/585 666/581
f 421/824 418/820 250/827
f 421/824 400/829 396/825
f 234/154 408/139 397/160
f 241/165 402/170 244/153
f 391/113 409/133 493/140
f 460/123 392/117 419/122
f 135/201 137/206 486/193
f 483/212 135/201 473/205
f 137/68 144/62 481/56
f 481/56 486/64 137/68
f 257/730 455/728 454/731
f 452/50 416/52 481/56
f 440/38 251/51 446/47
f 415/63 414/69 482/60
f 486/64 481/56 482/60
f 416/52 482/60 481/56
f 419/122 409/133 460/123
f 471/197 475/191 469/198
f 481/56 132/59 452/50
f 135/201 483/212 133/218
f 260/233 472/217 484/220
f 131/57 85/54 452/50
f 133/218 472/217 261/229
f 261/229 472/217 260/233
f 472/217 133/218 483/212
f 467/204 471/197 469/198
f 273/223 260/233 484/220
f 476/194 293/190 468/202
f 298/207 480/203 272/209
f 480/203 298/207 293/190
f 298/207 468/202 293/190
f 293/190 280/200 480/203
f 280/200 272/209 480/203
f 477/180 293/190 478/189
f 477/180 454/183 479/188
f 476/194 475/191 478/189
f 293/190 485/195 478/189
f 482/184 478/189 475/191
f 215/417 264/418 262/419
f 471/197 474/210 470/211
f 467/204 484/220 472/217
f 470/211 473/205 471/197
f 474/210 467/204 470/211
f 473/205 135/201 471/197
f 470/211 467/204 472/217
f 476/194 468/202 469/198
f 468/202 467/204 469/198
f 482/184 414/179 477/180
f 132/59 481/56 144/62
f 132/59 131/57 452/50
f 89/592 87/596 125/597
f 477/180 479/188 293/190
f 461/797 110/798 667/799
f 269/569 463/568 461/572
f 463/568 270/570 465/571
f 465/804 111/806 110/798
f 111/806 465/804 107/808
f 459/574 107/578 465/571
f 463/801 465/804 110/798
f 289/736 479/734 290/725
f 289/192 292/196 293/190
f 479/188 289/192 293/190
f 463/801 110/798 461/797
f 291/112 419/122 392/117
f 462/109 291/112 392/117
f 276/729 464/727 285/733
f 291/112 195/108 296/116
f 195/108 291/112 462/109
f 462/109 391/113 294/110
f 290/725 464/727 276/729
f 280/200 281/214 301/216
f 669/895 237/896 671/897
f 238/901 236/898 670/899
f 269/569 461/572 675/575
f 671/583 269/569 676/579
f 678/900 236/898 679/902
f 430/582 108/577 268/573
f 680/576 269/569 681/580
f 430/45 429/43 427/32
f 108/577 430/582 91/587
f 441/24 444/28 453/31
f 424/26 444/28 441/24
f 270/570 108/577 459/574
f 428/40 427/32 434/36
f 85/54 82/48 452/50
f 240/702 439/714 438/716
f 391/113 460/123 409/133
f 448/132 407/146 408/139
f 243/726 290/725 455/728
f 454/731 455/728 290/725
f 439/714 248/712 438/716
f 682/18 442/20 687/21
f 458/2 254/4 688/6
f 457/27 432/33 690/30
f 246/692 423/695 422/700
f 442/20 457/27 691/25
f 457/27 442/20 441/24
f 256/10 255/12 683/16
f 422/700 423/695 426/698
f 450/19 255/12 249/17
f 450/19 426/22 442/20
f 253/15 249/17 255/12
f 450/711 422/700 426/698
f 399/176 414/179 449/181
f 243/152 407/146 448/132
f 408/139 419/122 448/132
f 417/53 416/52 446/47
f 444/705 424/694 443/699
f 443/836 437/834 411/828
f 426/22 441/24 442/20
f 411/828 440/832 443/836
f 82/48 86/49 451/34
f 86/49 92/46 451/34
f 447/42 440/38 446/47
f 440/38 447/42 451/34
f 251/51 417/53 446/47
f 82/48 447/42 452/50
f 416/52 452/50 446/47
f 446/47 452/50 447/42
f 86/605 81/607 13/603
f 92/599 86/605 13/603
f 434/36 445/29 435/35
f 92/46 79/41 451/34
f 435/35 453/31 451/34
f 451/34 444/28 440/38
f 444/837 443/836 440/832
f 453/31 435/35 445/29
f 453/31 444/28 451/34
f 79/41 434/36 435/35
f 434/595 91/587 433/591
f 91/587 430/582 433/591
f 268/573 456/585 431/586
f 445/29 434/36 427/32
f 453/31 445/29 441/24
f 427/32 431/39 432/33
f 431/586 456/585 432/593
f 431/39 427/32 429/43
f 430/582 268/573 431/586
f 430/45 431/39 429/43
f 424/694 420/690 443/699
f 425/691 420/690 424/694
f 425/691 424/694 426/698
f 252/696 240/702 413/693
f 246/692 422/700 249/707
f 240/702 247/708 439/714
f 252/696 413/693 246/692
f 438/716 254/718 489/721
f 436/697 403/704 404/710
f 420/690 413/693 436/697
f 246/692 413/693 420/690
f 420/690 436/697 412/703
f 503/719 438/716 504/720
f 393/709 413/693 240/702
f 403/704 436/697 413/693
f 393/709 403/704 413/693
f 404/710 412/703 436/697
f 412/831 404/835 421/824
f 437/834 412/831 411/828
f 398/754 241/755 399/756
f 408/139 234/154 409/133
f 397/160 408/139 405/159
f 243/152 244/153 407/146
f 244/153 405/159 408/139
f 396/185 399/176 449/181
f 414/179 242/171 257/175
f 440/832 411/828 250/827
f 412/831 421/824 411/828
f 412/703 437/706 420/690
f 421/824 250/827 411/828
f 235/155 409/133 234/154
f 488/161 234/154 505/172
f 409/133 419/122 408/139
f 417/826 250/827 418/820
f 242/171 243/152 257/175
f 415/63 482/60 416/52
f 399/176 242/171 414/179
f 449/822 410/821 396/825
f 421/824 410/821 418/820
f 404/768 403/769 393/761
f 234/758 395/757 393/761
f 234/758 393/761 492/764
f 404/835 394/833 421/824
f 395/757 399/756 396/759
f 395/757 394/765 393/761
f 394/765 404/768 393/761
f 398/754 395/757 234/758
f 397/760 398/754 234/758
f 401/166 405/159 244/153
f 241/932 406/931 402/933
f 400/762 394/765 395/757
f 398/754 399/756 395/757
f 400/762 395/757 396/759
f 405/935 401/936 398/937
f 402/933 406/931 401/934
f 398/937 401/936 406/938
f 398/754 397/760 405/763
f 244/153 402/170 401/166
f 279/740 329/741 277/738
f 352/470 325/502 354/493
f 326/838 336/839 203/840
f 301/216 302/228 274/224
f 299/244 304/253 21/256
f 289/192 282/199 292/196
f 391/113 462/109 392/117
f 495/118 391/113 500/124
f 217/237 308/252 300/247
f 471/197 135/201 486/193
f 321/499 323/512 359/492
f 229/456 388/446 349/439
f 308/252 309/258 310/264
f 329/741 330/743 231/746
f 202/566 209/560 208/562
f 327/848 337/843 341/847
f 232/462 358/443 213/449
f 218/251 217/237 313/241
f 228/454 229/456 349/439
f 267/457 345/455 340/473
f 355/478 353/487 360/485
f 220/503 385/521 612/532
f 389/915 348/916 614/917
f 222/451 358/443 232/462
f 216/450 390/479 360/485
f 352/470 351/486 359/492
f 229/456 345/455 388/446
f 350/548 220/503 613/538
f 216/450 221/469 390/479
f 385/521 205/530 508/537
f 326/838 338/842 336/839
f 210/850 226/853 333/846
f 226/541 210/551 367/524
f 211/525 374/508 373/516
f 307/269 305/259 311/265
f 617/452 389/463 618/471
f 619/442 216/450 620/461
f 352/470 232/462 233/480
f 356/432 358/443 222/451
f 361/433 228/454 349/439
f 355/478 390/479 221/469
f 386/459 370/476 232/462
f 225/435 213/449 223/441
f 213/449 358/443 223/441
f 386/459 213/449 387/467
f 379/440 383/458 386/459
f 370/476 321/499 359/492
f 380/448 387/467 212/460
f 381/496 227/522 367/524
f 213/449 386/459 232/462
f 201/484 377/490 370/476
f 214/908 357/909 223/910
f 258/465 363/507 381/496
f 386/459 387/467 380/448
f 380/448 379/440 386/459
f 369/431 225/435 357/423
f 369/431 349/439 388/446
f 332/849 333/846 364/852
f 227/522 366/515 365/506
f 383/458 379/440 378/447
f 364/752 266/753 335/750
f 332/748 364/752 335/750
f 210/551 375/552 367/524
f 367/524 375/552 514/544
f 384/559 375/552 210/551
f 210/551 208/562 384/559
f 208/844 210/850 333/846
f 266/753 342/751 335/750
f 202/845 337/843 327/848
f 327/178 317/168 517/177
f 381/496 373/516 374/508
f 352/470 206/501 325/502
f 201/484 200/489 322/497
f 359/492 206/501 352/470
f 322/497 200/489 324/509
f 612/532 510/539 659/549
f 202/845 376/851 512/855
f 384/559 209/560 375/552
f 516/556 209/560 528/563
f 373/516 381/496 367/524
f 529/510 374/508 530/523
f 506/498 259/475 529/510
f 382/483 372/466 371/474
f 370/476 383/458 201/484
f 321/499 324/509 323/512
f 378/447 369/431 267/457
f 380/448 225/435 379/440
f 258/465 382/483 371/474
f 371/474 372/466 378/447
f 344/427 369/431 357/423
f 259/475 201/484 383/458
f 331/250 313/241 328/242
f 369/431 378/447 379/440
f 383/458 372/466 259/475
f 267/457 258/465 378/447
f 258/465 371/474 378/447
f 259/475 382/483 258/465
f 267/911 363/912 258/913
f 201/484 322/497 377/490
f 227/522 226/541 367/524
f 266/495 364/514 365/506
f 287/136 315/149 338/156
f 231/505 339/513 342/494
f 342/751 339/749 334/745
f 364/852 333/846 226/853
f 227/857 364/852 226/853
f 364/514 227/522 365/506
f 267/911 365/914 363/912
f 362/488 342/494 266/495
f 369/431 379/440 225/435
f 214/420 262/419 357/423
f 344/427 262/419 368/425
f 369/431 344/427 343/434
f 229/456 340/473 345/455
f 218/251 320/257 228/263
f 228/263 361/268 309/258
f 368/273 310/264 361/268
f 357/423 262/419 344/427
f 307/430 346/426 264/418
f 352/470 354/493 353/487
f 214/420 348/428 347/421
f 224/437 214/420 223/441
f 357/423 225/435 223/441
f 370/476 359/492 233/480
f 359/492 351/486 233/480
f 206/501 204/520 325/502
f 323/512 206/501 359/492
f 216/450 356/432 222/451
f 358/443 356/432 224/437
f 352/470 222/451 232/462
f 205/530 325/502 204/520
f 212/460 387/467 213/449
f 224/437 356/432 214/420
f 348/428 214/420 356/432
f 614/436 356/432 619/442
f 325/502 385/521 220/503
f 219/504 360/485 353/487
f 622/500 219/504 623/518
f 360/485 390/479 355/478
f 353/487 355/478 352/470
f 610/438 348/428 625/444
f 344/427 368/425 361/433
f 75/429 306/424 347/421
f 75/275 71/266 306/270
f 346/274 307/269 311/265
f 264/418 215/417 347/421
f 305/259 71/266 304/253
f 325/502 220/503 354/493
f 352/470 355/478 222/451
f 75/429 347/421 348/428
f 343/434 361/433 349/439
f 368/425 262/419 263/422
f 368/273 346/274 311/265
f 306/424 307/430 264/418
f 309/258 218/251 228/263
f 309/258 361/268 310/264
f 331/886 328/887 230/888
f 339/749 231/746 330/743
f 207/841 208/844 333/846
f 207/841 326/838 203/840
f 338/842 337/843 336/839
f 207/841 333/846 332/849
f 230/888 231/889 331/886
f 339/749 330/743 334/745
f 334/745 335/750 342/751
f 332/748 335/750 334/745
f 334/745 265/742 332/748
f 267/457 369/431 345/455
f 279/740 197/739 265/742
f 508/537 204/520 533/529
f 342/494 362/488 331/482
f 340/262 228/263 320/257
f 340/262 320/257 331/250
f 331/482 362/488 267/457
f 340/473 331/482 267/457
f 233/480 232/462 370/476
f 202/845 203/840 337/843
f 338/842 341/847 337/843
f 338/156 316/163 341/169
f 327/178 341/169 317/168
f 315/149 316/163 338/156
f 341/169 316/163 317/168
f 533/529 206/501 536/527
f 385/521 325/502 205/530
f 535/531 324/509 537/526
f 320/257 218/251 313/241
f 230/888 328/887 329/890
f 331/250 320/257 313/241
f 279/740 334/745 330/743
f 334/745 279/740 265/742
f 328/887 318/891 329/890
f 329/741 318/744 277/738
f 279/740 277/738 276/729
f 328/242 313/241 319/234
f 283/208 277/222 288/221
f 314/235 302/228 281/214
f 318/227 328/242 319/234
f 217/237 314/235 313/241
f 288/221 318/227 281/214
f 265/151 287/136 207/158
f 197/145 198/130 287/136
f 326/162 207/158 287/136
f 287/136 312/143 315/149
f 518/174 315/149 538/173
f 315/149 317/168 316/163
f 315/149 312/143 284/137
f 281/214 318/227 319/234
f 300/247 305/259 304/253
f 308/252 305/259 300/247
f 299/244 271/246 303/243
f 273/223 484/220 298/207
f 217/237 302/228 314/235
f 310/264 311/265 308/252
f 282/199 278/215 283/208
f 305/259 308/252 311/265
f 309/258 308/252 217/237
f 306/270 71/266 305/259
f 71/266 21/256 304/253
f 271/246 299/244 21/256
f 274/224 303/243 275/236
f 274/224 217/237 299/244
f 300/247 304/253 299/244
f 280/200 282/199 283/208
f 301/216 281/214 302/228
f 217/237 300/247 299/244
f 299/244 303/243 274/224
f 271/246 275/236 303/243
f 313/241 314/235 281/214
f 312/143 287/136 286/128
f 297/129 194/115 239/120
f 281/214 283/208 288/221
f 276/729 285/733 198/737
f 284/137 239/120 541/144
f 286/128 287/136 296/116
f 239/120 284/137 297/129
f 198/737 197/739 276/729
f 276/729 277/738 278/735
f 278/215 277/222 283/208
f 280/200 292/196 282/199
f 278/735 282/732 276/729
f 281/214 280/200 283/208
f 196/111 195/108 294/110
f 285/121 291/112 296/116
f 194/115 297/129 286/128
f 286/128 296/116 194/115
f 295/114 294/110 497/119
f 196/111 295/114 239/120
f 280/200 293/190 292/196
f 289/736 290/725 282/732
f 285/121 464/131 291/112
f 294/110 295/114 196/111
f 275/236 271/246 66/238
f 273/223 274/224 275/236
f 261/229 273/223 275/236
f 301/216 274/224 272/209
f 274/224 273/223 272/209
f 298/207 272/209 273/223
f 66/238 261/229 275/236
f 66/238 271/246 199/254
f 21/256 199/254 271/246
f 392/117 460/123 391/113
f 530/523 211/525 531/542
f 268/573 270/570 269/569
f 266/495 365/506 267/457
f 267/457 362/488 266/495
f 301/216 272/209 280/200
f 262/419 264/418 263/422
f 482/184 477/180 478/189
f 291/112 466/138 448/132
f 381/496 259/475 258/465
f 465/571 270/570 459/574
f 254/4 256/10 685/8
f 107/578 459/574 108/577
f 438/716 248/712 254/718
f 430/45 428/40 433/44
f 254/718 248/712 253/713
f 253/15 255/12 254/4
f 247/708 240/702 252/696
f 250/827 417/826 251/830
f 416/823 417/826 418/820
f 409/133 235/155 487/147
f 476/194 469/198 475/191
f 273/223 261/229 260/233
f 464/727 290/725 466/724
f 448/723 290/725 243/726
f 353/487 354/493 220/503
f 467/204 474/210 471/197
f 486/193 482/184 475/191
f 108/577 270/570 268/573
f 477/180 414/179 257/175
f 479/734 454/731 290/725
f 454/183 477/180 257/175
f 547/9 490/3 728/7
f 236/898 238/901 684/904
f 666/581 268/573 680/576
f 269/569 237/589 678/584
f 437/706 443/699 420/690
f 243/726 455/728 257/730
f 254/4 255/12 256/10
f 248/712 245/701 253/713
f 249/707 253/713 245/701
f 442/20 255/12 450/19
f 450/711 249/707 422/700
f 248/712 247/708 245/701
f 252/696 246/692 245/701
f 244/153 243/152 241/165
f 243/152 242/171 241/165
f 430/45 427/32 428/40
f 249/707 245/701 246/692
f 248/712 439/714 247/708
f 491/715 240/702 502/717
f 396/825 410/821 421/824
f 408/139 407/146 244/153
f 399/176 241/165 242/171
f 415/280 416/281 449/282
f 414/179 415/186 449/181
f 318/744 288/747 277/738
f 230/888 329/890 231/889
f 287/136 265/151 197/145
f 209/560 384/559 208/562
f 338/156 326/162 287/136
f 264/418 346/426 263/422
f 368/425 263/422 346/426
f 229/456 228/454 340/473
f 233/480 351/486 352/470
f 383/458 370/476 386/459
f 519/187 327/178 520/182
f 373/516 367/524 515/534
f 309/258 217/237 218/251
f 624/477 360/485 630/491
f 347/421 215/417 214/420
f 321/499 370/476 377/490
f 207/841 203/840 208/844
f 259/475 381/496 374/508
f 331/482 231/505 342/494
f 211/525 373/516 523/535
f 381/496 366/515 227/522
f 327/848 376/851 202/845
f 324/509 200/489 526/517
f 206/501 323/512 521/519
f 203/840 336/839 337/843
f 209/560 202/566 527/565
f 208/844 203/840 202/845
f 372/466 382/483 259/475
f 321/499 377/490 322/497
f 366/515 381/496 363/507
f 361/433 343/434 344/427
f 372/466 383/458 378/447
f 201/484 259/475 200/489
f 363/507 365/506 366/515
f 349/439 369/431 343/434
f 213/449 225/435 212/460
f 212/460 225/435 380/448
f 347/421 306/424 264/418
f 224/437 223/441 358/443
f 222/451 355/478 221/469
f 222/451 221/469 216/450
f 262/419 214/420 215/417
f 353/487 220/503 219/504
f 623/518 220/503 631/533
f 220/503 350/548 627/540
f 265/151 207/158 332/164
f 345/455 369/431 388/446
f 324/509 321/499 322/497
f 330/743 329/741 279/740
f 281/214 319/234 313/241
f 540/157 284/137 543/150
f 307/269 306/270 305/259
f 274/224 302/228 217/237
f 21/256 66/238 199/254
f 312/143 286/128 284/137
f 297/129 284/137 286/128
f 285/121 296/116 198/130
f 197/739 279/740 276/729
f 194/115 196/111 239/120
f 282/732 290/725 276/729
f 194/115 296/116 195/108
f 195/108 196/111 194/115
f 239/120 295/114 544/126
f 121/858 120/859 118/860
f 163/283 160/284 24/285
f 39/770 3/771 4/772
f 162/783 52/777 40/773
f 52/777 165/787 549/790
f 40/773 33/776 193/781
f 193/781 162/783 40/773
f 162/304 164/297 165/303
f 161/340 193/341 41/342
f 4/772 33/776 40/773
f 554/666 185/667 555/668
f 163/283 189/286 556/290
f 162/304 161/308 158/291
f 154/314 29/310 31/300
f 632/278 74/277 633/279
f 560/295 155/289 561/302
f 154/314 156/317 29/310
f 562/327 174/325 563/329
f 568/611 177/612 569/613
f 183/628 20/625 570/631
f 176/614 170/624 179/620
f 20/625 184/621 178/617
f 573/98 152/97 574/100
f 555/668 187/670 575/673
f 187/95 173/82 192/93
f 173/681 187/670 188/677
f 187/95 192/93 152/97
f 129/75 151/92 147/85
f 143/71 139/81 173/82
f 140/91 192/93 139/81
f 192/93 173/82 139/81
f 147/85 148/79 129/75
f 192/93 147/85 151/92
f 140/91 139/81 138/87
f 634/78 128/72 635/83
f 190/90 129/75 191/84
f 636/94 191/84 637/89
f 190/90 151/92 129/75
f 152/97 190/90 638/96
f 155/289 189/286 24/285
f 20/685 182/679 578/688
f 179/684 173/681 180/672
f 173/681 188/677 180/672
f 180/672 188/677 187/670
f 185/667 186/669 180/672
f 185/667 180/672 187/670
f 182/679 186/669 577/682
f 186/669 19/675 180/672
f 182/679 19/675 186/669
f 19/675 18/683 20/685
f 183/628 184/621 20/625
f 20/685 18/683 182/679
f 19/675 182/679 18/683
f 184/621 183/628 572/626
f 177/612 184/621 587/618
f 181/623 20/625 178/617
f 179/620 181/623 178/617
f 180/672 19/675 181/680
f 181/680 179/684 180/672
f 20/685 181/680 19/675
f 178/617 176/614 179/620
f 178/617 184/621 177/612
f 176/614 178/617 177/612
f 589/622 176/614 590/619
f 168/633 114/630 170/624
f 38/656 122/664 123/658
f 168/633 167/640 104/634
f 104/634 114/630 168/633
f 124/652 116/645 167/640
f 179/684 84/687 173/681
f 150/77 143/71 173/82
f 154/314 45/319 156/317
f 84/874 150/875 173/876
f 174/325 168/324 170/328
f 170/328 171/330 174/325
f 171/629 170/624 589/622
f 175/331 174/325 565/334
f 564/332 171/330 597/335
f 169/321 168/324 174/325
f 174/325 156/317 169/321
f 166/650 38/656 167/640
f 167/640 168/633 46/644
f 45/651 46/644 168/633
f 38/656 166/650 67/655
f 46/644 166/650 167/640
f 38/656 123/658 167/640
f 694/782 602/786 731/788
f 189/286 163/283 24/285
f 157/287 164/297 158/291
f 160/284 163/283 157/287
f 161/340 41/342 32/343
f 24/285 160/284 35/288
f 159/305 78/298 158/291
f 51/294 160/284 78/298
f 51/294 35/288 160/284
f 24/285 25/293 155/289
f 165/787 52/777 162/783
f 193/313 161/308 162/304
f 164/297 157/287 165/303
f 159/345 161/340 32/343
f 34/347 32/343 33/344
f 32/343 77/346 159/345
f 158/291 160/284 157/287
f 157/287 163/283 603/292
f 169/321 156/317 45/319
f 154/314 26/316 45/319
f 46/644 26/657 67/655
f 44/379 67/386 26/387
f 36/374 67/386 44/379
f 559/322 156/317 605/326
f 30/320 29/310 156/317
f 25/293 31/300 153/301
f 44/379 27/368 23/367
f 27/368 44/379 26/387
f 149/74 130/70 127/67
f 133/218 65/245 640/240
f 121/858 126/862 120/859
f 119/646 120/660 94/653
f 136/868 113/864 98/866
f 125/810 100/807 111/806
f 107/808 125/810 111/806
f 179/620 170/624 84/627
f 190/90 152/97 151/92
f 128/72 137/68 642/76
f 131/57 132/59 142/65
f 130/70 145/66 131/57
f 145/66 83/58 146/61
f 131/57 145/66 146/61
f 132/59 127/67 130/70
f 143/71 145/66 130/70
f 128/72 127/67 144/62
f 138/106 141/105 127/107
f 132/59 144/62 127/67
f 127/67 140/91 138/87
f 145/66 143/71 83/58
f 84/73 83/58 143/71
f 143/71 150/77 84/73
f 85/54 146/61 83/58
f 139/81 149/74 138/87
f 149/104 141/105 138/106
f 143/71 149/74 139/81
f 128/72 144/62 137/68
f 130/70 142/65 132/59
f 127/892 141/893 149/894
f 127/67 129/75 148/79
f 143/71 130/70 149/74
f 127/67 148/79 147/85
f 147/85 140/91 127/67
f 134/225 135/201 133/218
f 135/201 134/225 649/231
f 134/225 133/218 641/230
f 131/57 146/61 85/54
f 129/75 127/67 128/72
f 115/638 106/647 103/648
f 123/658 122/664 118/662
f 104/634 119/646 112/641
f 119/646 104/634 116/645
f 116/645 104/634 167/640
f 112/641 106/647 115/638
f 101/811 113/815 136/818
f 113/864 126/862 98/866
f 97/871 136/868 98/866
f 95/402 109/414 136/413
f 54/397 55/392 56/382
f 136/818 109/816 101/811
f 101/811 109/816 695/814
f 100/807 101/811 696/809
f 118/662 120/660 119/646
f 113/815 101/811 94/813
f 115/638 102/642 84/627
f 94/653 112/641 119/646
f 94/653 14/654 112/641
f 87/596 93/602 125/597
f 111/806 100/807 110/798
f 125/810 93/812 100/807
f 94/813 120/817 113/815
f 107/578 89/592 125/597
f 118/662 117/659 124/652
f 99/863 126/862 121/858
f 124/652 123/658 118/662
f 38/656 37/663 122/664
f 167/640 123/658 124/652
f 37/385 67/386 36/374
f 116/645 124/652 117/659
f 117/659 119/646 116/645
f 122/664 96/665 118/662
f 96/861 121/858 118/860
f 113/864 120/859 126/862
f 93/812 94/813 100/807
f 126/862 99/863 98/866
f 95/402 136/413 97/411
f 96/861 15/865 99/863
f 96/861 99/863 121/858
f 15/865 53/867 99/863
f 53/867 54/870 98/866
f 54/870 97/871 98/866
f 54/397 63/396 95/402
f 37/663 96/665 122/664
f 37/385 28/378 15/384
f 15/384 96/398 37/385
f 98/866 99/863 53/867
f 60/391 95/402 63/396
f 95/402 60/391 701/407
f 60/391 56/382 62/377
f 108/577 91/587 90/588
f 108/577 90/588 107/578
f 14/654 12/661 106/647
f 112/641 14/654 106/647
f 88/598 13/603 105/601
f 14/606 94/604 105/601
f 84/627 114/630 104/634
f 83/649 102/642 103/648
f 103/648 106/647 12/661
f 103/648 102/642 115/638
f 13/603 14/606 105/601
f 105/601 87/596 88/598
f 87/596 105/601 94/604
f 81/607 12/608 13/603
f 94/604 93/602 87/596
f 90/588 89/592 107/578
f 90/588 88/598 87/596
f 92/599 13/603 88/598
f 90/588 91/587 80/594
f 80/594 88/598 90/588
f 88/598 80/594 92/599
f 83/58 82/48 85/54
f 84/627 102/642 83/649
f 82/48 81/55 86/49
f 83/58 81/55 82/48
f 170/624 114/630 84/627
f 80/594 79/600 92/599
f 91/587 434/595 80/594
f 192/93 151/92 152/97
f 6/873 57/872 15/865
f 17/352 72/356 73/350
f 119/646 117/659 118/662
f 8/361 72/356 68/366
f 75/275 74/277 71/266
f 77/346 51/351 78/348
f 709/791 10/785 710/784
f 49/370 47/369 1/375
f 42/355 10/364 48/359
f 11/877 2/878 713/879
f 69/371 49/370 1/375
f 16/360 69/371 70/365
f 72/356 8/361 73/350
f 70/365 72/356 16/360
f 74/464 75/429 628/453
f 68/366 70/365 62/377
f 8/361 9/357 73/350
f 708/376 69/371 719/380
f 68/366 72/356 70/365
f 62/377 70/365 707/381
f 22/354 7/353 5/362
f 64/248 66/238 21/256
f 655/261 21/256 656/267
f 62/377 58/372 68/366
f 6/373 8/361 58/372
f 56/382 58/372 62/377
f 56/382 60/391 63/396
f 62/377 61/400 59/395
f 705/404 61/400 721/408
f 61/400 62/377 722/394
f 59/395 76/401 60/391
f 59/395 60/391 62/377
f 57/383 58/372 55/392
f 57/872 55/869 15/865
f 55/392 58/372 56/382
f 55/869 53/867 15/865
f 53/867 55/869 54/870
f 65/245 66/238 64/248
f 647/255 64/248 657/260
f 39/770 52/777 694/782
f 17/352 43/349 42/355
f 43/349 34/347 33/344
f 73/350 34/347 17/352
f 36/374 23/367 5/362
f 36/374 5/362 28/378
f 42/780 3/771 10/785
f 3/771 39/770 711/774
f 710/784 3/771 725/778
f 43/775 3/771 42/780
f 33/344 41/342 193/341
f 40/773 39/770 4/772
f 35/358 51/351 22/354
f 161/308 159/305 158/291
f 27/368 50/363 22/354
f 31/300 25/293 35/288
f 153/301 29/310 607/315
f 34/347 73/350 77/346
f 47/369 49/370 48/359
f 45/651 26/657 46/644
f 154/314 31/300 27/309
f 192/93 140/91 147/85
f 191/84 129/75 634/78
f 563/329 175/331 609/333
f 27/309 26/316 154/314
f 169/321 45/319 168/324
f 36/374 44/379 23/367
f 73/350 9/357 7/353
f 7/353 77/346 73/350
f 553/306 157/287 604/299
f 164/297 162/304 158/291
f 77/346 78/348 159/345
f 160/284 158/291 78/298
f 32/343 41/342 33/344
f 32/343 34/347 77/346
f 22/354 23/367 27/368
f 31/300 50/307 27/309
f 22/354 50/363 35/358
f 67/655 166/650 46/644
f 29/310 153/301 31/300
f 561/302 153/301 608/311
f 153/301 155/289 25/293
f 29/310 30/320 606/318
f 35/288 50/307 31/300
f 22/354 77/346 7/353
f 51/351 77/346 22/354
f 35/288 25/293 24/285
f 5/362 23/367 22/354
f 38/656 67/655 37/663
f 699/405 59/395 724/410
f 104/634 115/638 84/627
f 434/595 79/600 80/594
f 142/65 130/70 131/57
f 65/245 133/218 66/238
f 101/811 100/807 94/813
f 642/213 135/201 652/219
f 112/641 115/638 104/634
f 97/411 54/397 95/402
f 87/596 89/592 90/588
f 110/798 100/807 697/805
f 60/391 76/401 700/406
f 109/414 95/402 702/412
f 12/608 14/606 13/603
f 12/608 81/607 103/609
f 103/609 81/607 83/610
f 68/366 58/372 8/361
f 21/256 71/266 653/271
f 16/360 72/356 17/352
f 48/359 49/370 16/360
f 10/364 47/369 48/359
f 48/359 17/352 42/355
f 47/369 10/364 1/375
f 716/388 1/375 718/393
f 48/359 16/360 17/352
f 69/371 16/360 49/370
f 8/361 5/362 9/357
f 6/373 5/362 8/361
f 58/372 57/383 6/373
f 28/378 5/362 6/373
f 56/382 63/396 54/397
f 43/775 4/772 3/771
f 39/770 40/773 52/777
f 5/362 7/353 9/357
f 33/776 4/772 43/775
f 17/352 34/347 43/349
f 10/884 2/878 1/881
f 717/883 11/877 726/885
f 11/877 1/881 2/878
f 37/385 36/374 28/378
f 15/384 28/378 6/373
f 487/147 235/155 488/161
f 488/161 235/155 234/154
f 489/1 254/4 458/2
f 490/3 458/2 689/5
f 491/715 393/709 240/702
f 492/764 393/761 491/767
f 493/140 409/133 487/147
f 494/141 391/113 493/140
f 495/118 294/110 391/113
f 496/125 294/110 495/118
f 497/119 294/110 498/127
f 498/127 294/110 496/125
f 499/134 391/113 494/141
f 500/124 391/113 499/134
f 501/722 438/716 489/721
f 502/717 240/702 503/719
f 503/719 240/702 438/716
f 504/720 438/716 501/722
f 505/766 234/758 492/764
f 506/498 200/489 259/475
f 507/511 200/489 506/498
f 508/537 205/530 204/520
f 509/547 385/521 508/537
f 510/539 385/521 511/550
f 511/550 385/521 509/547
f 512/855 376/851 513/856
f 513/856 376/851 519/854
f 514/544 375/552 516/556
f 515/534 367/524 514/544
f 516/556 375/552 209/560
f 517/177 317/168 518/174
f 518/174 317/168 315/149
f 519/854 376/851 327/848
f 520/182 327/178 517/177
f 521/519 323/512 522/528
f 522/528 323/512 534/536
f 523/535 373/516 524/546
f 524/546 373/516 548/543
f 659/549 525/554 660/558
f 526/517 200/489 507/511
f 527/565 202/566 512/567
f 528/563 209/560 527/565
f 529/510 259/475 374/508
f 530/523 374/508 211/525
f 531/542 211/525 532/545
f 532/545 211/525 523/535
f 533/529 204/520 206/501
f 534/536 323/512 535/531
f 535/531 323/512 324/509
f 536/527 206/501 521/519
f 537/526 324/509 526/517
f 538/173 315/149 539/167
f 539/167 315/149 540/157
f 540/157 315/149 284/137
f 541/144 239/120 542/148
f 542/148 239/120 545/142
f 543/150 284/137 541/144
f 544/126 295/114 497/119
f 545/142 239/120 546/135
f 546/135 239/120 544/126
f 548/543 373/516 515/534
f 549/312 165/303 553/306
f 550/794 52/777 549/790
f 551/942 52/943 550/944
f 552/789 52/777 551/793
f 553/306 165/303 157/287
f 554/666 186/669 185/667
f 555/668 185/667 187/670
f 556/290 189/286 560/295
f 557/296 163/283 556/290
f 558/323 30/320 559/322
f 559/322 30/320 156/317
f 560/295 189/286 155/289
f 561/302 155/289 153/301
f 562/327 156/317 174/325
f 563/329 174/325 175/331
f 564/332 174/325 171/330
f 565/334 174/325 564/332
f 566/922 172/923 567/924
f 567/924 172/923 592/926
f 568/611 176/614 177/612
f 569/613 177/612 588/615
f 570/631 20/625 585/636
f 571/635 183/628 570/631
f 572/939 183/940 571/941
f 573/98 187/95 152/97
f 574/100 152/97 663/102
f 575/673 187/670 581/676
f 576/678 186/669 583/674
f 577/682 186/669 576/678
f 578/688 182/679 582/686
f 579/689 20/685 578/688
f 580/671 186/669 554/666
f 581/101 187/95 573/98
f 582/686 182/679 577/682
f 583/674 186/669 580/671
f 584/639 20/625 579/643
f 585/636 20/625 584/639
f 586/616 176/614 568/611
f 587/618 184/621 572/626
f 588/615 177/612 587/618
f 589/622 170/624 176/614
f 590/619 176/614 586/616
f 591/632 171/629 589/622
f 592/926 172/923 593/928
f 593/928 172/923 598/929
f 594/925 172/923 566/922
f 595/927 172/923 594/925
f 596/637 171/629 591/632
f 597/335 171/330 596/338
f 598/929 172/923 595/927
f 599/337 175/331 565/334
f 600/339 175/331 599/337
f 601/336 175/331 600/339
f 602/786 52/777 552/789
f 603/292 163/283 557/296
f 604/299 157/287 603/292
f 605/326 156/317 562/327
f 606/318 30/320 558/323
f 607/315 29/310 606/318
f 608/311 153/301 607/315
f 609/333 175/331 601/336
f 610/438 75/429 348/428
f 611/445 75/429 610/438
f 612/532 385/521 510/539
f 613/538 220/503 612/532
f 614/436 348/428 356/432
f 615/918 389/915 614/917
f 616/553 350/548 613/538
f 617/452 348/428 389/463
f 618/471 389/463 615/481
f 619/442 356/432 216/450
f 620/461 216/450 621/468
f 621/468 216/450 624/477
f 622/500 360/485 219/504
f 623/518 219/504 220/503
f 624/477 216/450 360/485
f 625/444 348/428 617/452
f 626/555 350/548 629/557
f 627/540 350/548 626/555
f 628/453 75/429 611/445
f 629/557 350/548 616/553
f 630/491 360/485 622/500
f 631/533 220/503 627/540
f 632/278 71/266 74/277
f 633/472 74/464 628/453
f 634/78 129/75 128/72
f 635/83 128/72 645/88
f 636/94 190/90 191/84
f 637/89 191/84 634/78
f 638/96 190/90 636/94
f 639/99 152/97 638/96
f 640/240 65/245 646/249
f 641/230 133/218 640/240
f 642/213 137/206 135/201
f 643/80 128/72 642/76
f 644/86 128/72 643/80
f 645/88 128/72 644/86
f 646/249 65/245 647/255
f 647/255 65/245 64/248
f 648/239 134/225 641/230
f 649/231 134/225 648/239
f 650/232 135/201 649/231
f 651/226 135/201 650/232
f 652/219 135/201 651/226
f 653/271 71/266 654/276
f 654/276 71/266 632/278
f 655/261 64/248 21/256
f 656/267 21/256 658/272
f 657/260 64/248 655/261
f 658/272 21/256 653/271
f 659/549 510/539 525/554
f 660/558 525/554 661/561
f 661/561 525/554 662/564
f 663/102 152/97 639/99
f 664/103 574/100 663/102
f 665/590 432/593 456/585
f 666/581 456/585 268/573
f 667/799 110/798 704/802
f 668/800 461/797 667/799
f 669/895 236/898 237/896
f 670/899 236/898 669/895
f 671/583 237/589 269/569
f 672/907 238/901 673/906
f 673/906 238/901 674/903
f 674/903 238/901 670/899
f 675/919 461/920 677/921
f 676/579 269/569 675/575
f 677/803 461/797 668/800
f 678/900 237/896 236/898
f 679/902 236/898 693/905
f 680/576 268/573 269/569
f 681/580 269/569 678/584
f 682/18 255/12 442/20
f 683/16 255/12 682/18
f 684/904 238/901 672/907
f 685/8 256/10 686/13
f 686/13 256/10 683/16
f 687/21 442/20 692/23
f 688/6 254/4 685/8
f 689/5 458/2 688/6
f 690/30 432/33 665/37
f 691/25 457/27 690/30
f 692/23 442/20 691/25
f 693/905 236/898 684/904
f 694/782 52/777 602/786
f 695/814 109/816 698/819
f 696/809 101/811 695/814
f 697/805 100/807 696/809
f 698/416 109/414 703/415
f 699/405 76/401 59/395
f 700/406 76/401 699/405
f 701/407 60/391 700/406
f 702/412 95/402 701/407
f 703/415 109/414 702/412
f 704/802 110/798 697/805
f 705/404 59/395 61/400
f 706/409 59/395 705/404
f 707/381 70/365 708/376
f 708/376 70/365 69/371
f 709/791 2/795 10/785
f 710/784 10/785 3/771
f 711/774 39/770 712/779
f 712/779 39/770 694/782
f 713/796 2/795 709/791
f 714/880 11/877 713/879
f 715/389 69/371 716/388
f 716/388 69/371 1/375
f 717/883 1/881 11/877
f 718/393 1/375 717/399
f 719/380 69/371 715/389
f 720/390 62/377 707/381
f 721/408 61/400 723/403
f 722/394 62/377 720/390
f 723/403 61/400 722/394
f 724/410 59/395 706/409
f 725/778 3/771 711/774
f 726/885 11/877 727/882
f 727/882 11/877 714/880
f 728/7 490/3 689/5
f 729/11 547/9 728/7
f 730/14 547/9 729/11
f 731/788 602/786 732/792
usemtl Tile_+032_+021_L19_000033_untextured
