mtllib Tile_+032_+021_L19_000031.mtl
v 6.36357761e+03 5.08977816e+03 2.59117426e+01
v 6.36296751e+03 5.08969460e+03 2.46878715e+01
v 6.36310856e+03 5.09048588e+03 2.16807521e+01
v 6.36226926e+03 5.08915355e+03 2.25254541e+01
v 6.36307762e+03 5.09025726e+03 1.90223320e+01
v 6.36201640e+03 5.09017422e+03 1.64417356e+01
v 6.36298408e+03 5.08945238e+03 2.02627581e+01
v 6.36021652e+03 5.08938312e+03 1.60841059e+01
v 6.36106964e+03 5.09300006e+03 1.64388592e+01
v 6.35962938e+03 5.08764073e+03 1.62943061e+01
v 6.36257141e+03 5.06283488e+03 1.31844704e+01
v 6.36366123e+03 5.06381787e+03 1.32085457e+01
v 6.36304813e+03 5.06346881e+03 1.25688035e+01
v 6.36343070e+03 5.06440490e+03 1.21719483e+01
v 6.36078001e+03 5.06237194e+03 1.29154597e+01
v 6.36112258e+03 5.06251566e+03 1.21219200e+01
v 6.36132003e+03 5.06258483e+03 1.17345075e+01
v 6.36556817e+03 5.06414625e+03 1.43444222e+01
v 6.36303486e+03 5.09153296e+03 1.97374621e+01
v 6.36304666e+03 5.09127592e+03 2.47593583e+01
v 6.36355181e+03 5.09063561e+03 2.77284006e+01
v 6.36207368e+03 5.09273025e+03 2.80120106e+01
v 6.36297734e+03 5.08960834e+03 2.78743964e+01
v 6.36076759e+03 5.08793768e+03 2.77529248e+01
v 6.36342912e+03 5.09085613e+03 2.98754249e+01
v 6.36355134e+03 5.09161441e+03 2.88032146e+01
v 6.36044868e+03 5.08660544e+03 3.09503492e+01
v 6.36089682e+03 5.08433417e+03 3.14064353e+01
v 6.36396939e+03 5.08155571e+03 3.10137543e+01
v 6.36248621e+03 5.08201942e+03 3.33769939e+01
v 6.36366405e+03 5.06714092e+03 3.10379911e+01
v 6.36602386e+03 5.06869509e+03 3.11157805e+01
v 6.36329734e+03 5.06415211e+03 3.10813074e+01
v 6.36195210e+03 5.06592741e+03 3.10472196e+01
v 6.36050614e+03 5.06359442e+03 3.31837775e+01
v 6.36142730e+03 5.06338241e+03 3.14294038e+01
v 6.36107468e+03 5.06446992e+03 3.11110762e+01
v 6.36139950e+03 5.06249717e+03 1.20644138e+01
v 6.36248344e+03 5.06232483e+03 1.17810781e+01
v 6.36704198e+03 5.06636410e+03 1.30994783e+01
v 6.36773127e+03 5.06531325e+03 1.42663316e+01
v 6.35892726e+03 5.08654033e+03 2.53430393e+01
v 6.36736998e+03 5.06575320e+03 1.34935587e+01
v 6.37247937e+03 5.07128547e+03 1.35178474e+01
v 6.37273963e+03 5.07035925e+03 1.32407634e+01
v 6.37415122e+03 5.06988635e+03 1.45076620e+01
v 6.36916178e+03 5.06702027e+03 1.38330827e+01
v 6.36866271e+03 5.06951533e+03 3.25471203e+01
v 6.36716621e+03 5.06934641e+03 3.13654858e+01
v 6.36382501e+03 5.09045807e+03 2.88301600e+01
v 6.36579648e+03 5.06685505e+03 3.24378661e+01
v 6.36660183e+03 5.06760191e+03 3.21284749e+01
v 6.36172845e+03 5.06304565e+03 1.19725799e+01
v 6.37108644e+03 5.06720669e+03 1.11612632e+01
v 6.37298616e+03 5.06823506e+03 1.07334165e+01
v 6.37179329e+03 5.07401000e+03 2.79280576e+01
v 6.37310406e+03 5.07238450e+03 2.43985831e+01
v 6.37233278e+03 5.07423086e+03 2.62952648e+01
v 6.37359835e+03 5.07038987e+03 2.95129455e+01
v 6.37337640e+03 5.07069908e+03 2.63329402e+01
v 6.37362033e+03 5.07107957e+03 2.21635642e+01
v 6.37341635e+03 5.07336955e+03 2.13177309e+01
v 6.37350092e+03 5.06923194e+03 3.08253372e+01
v 6.37029565e+03 5.06740542e+03 3.13452206e+01
v 6.36955161e+03 5.06631072e+03 1.12053066e+01
v 6.36516310e+03 5.06792565e+03 3.11101663e+01
v 6.37408447e+03 5.07552655e+03 2.64359517e+01
v 6.37378492e+03 5.07447949e+03 2.50003748e+01
v 6.37310568e+03 5.07330086e+03 2.43339472e+01
v 6.37416635e+03 5.06985745e+03 3.13877040e+01
v 6.37224140e+03 5.06677972e+03 1.21386303e+01
v 6.37181623e+03 5.07256975e+03 1.37771256e+01
v 6.37232743e+03 5.07172500e+03 1.22572615e+01
v 6.37475300e+03 5.06850712e+03 1.04538959e+01
v 6.37362208e+03 5.06903358e+03 1.07950526e+01
v 6.37088338e+03 5.06967708e+03 1.26779773e+01
v 6.36930184e+03 5.06798529e+03 1.31026873e+01
v 6.37410094e+03 5.06994042e+03 1.90889854e+01
v 6.37319902e+03 5.07223872e+03 1.82410165e+01
v 6.36891970e+03 5.06668710e+03 1.98927089e+01
v 6.36838340e+03 5.06562012e+03 2.18606247e+01
v 6.36440766e+03 5.06322256e+03 2.93603704e+01
v 6.36084847e+03 5.06908557e+03 3.53674493e+01
v 6.36105485e+03 5.06882954e+03 3.58523110e+01
v 6.36313705e+03 5.06245414e+03 2.27117711e+01
v 6.36445587e+03 5.06314849e+03 2.47387710e+01
v 6.36427471e+03 5.06300955e+03 2.80855792e+01
v 6.36556114e+03 5.06384759e+03 2.14616248e+01
v 6.36839136e+03 5.06574502e+03 2.47232519e+01
v 6.36673755e+03 5.06496039e+03 2.28237513e+01
v 6.36692764e+03 5.06505525e+03 2.56639339e+01
v 6.36280462e+03 5.09135040e+03 1.71994508e+01
v 6.36202217e+03 5.09127684e+03 1.63073082e+01
v 6.36720527e+03 5.06494328e+03 1.52759608e+01
v 6.36699193e+03 5.06507883e+03 1.68631052e+01
v 6.36263712e+03 5.09187382e+03 2.26123919e+01
v 6.36601521e+03 5.06451015e+03 2.01421953e+01
v 6.36446681e+03 5.06330684e+03 1.99706214e+01
v 6.36707853e+03 5.06489556e+03 1.86318111e+01
v 6.36560947e+03 5.06608690e+03 1.26154318e+01
v 6.36694515e+03 5.06589210e+03 1.20673343e+01
v 6.36315686e+03 5.06251791e+03 1.72403788e+01
v 6.36445112e+03 5.06532145e+03 1.26335677e+01
v 6.36479752e+03 5.06483052e+03 1.16638609e+01
v 6.36374282e+03 5.06347732e+03 1.19898015e+01
v 6.36496139e+03 5.06539698e+03 1.17287026e+01
v 6.36470107e+03 5.06342617e+03 1.21395332e+01
v 6.36850366e+03 5.06690991e+03 1.32734264e+01
v 6.36941803e+03 5.06797178e+03 1.25484745e+01
v 6.37009664e+03 5.06815938e+03 1.20839101e+01
v 6.36324425e+03 5.07605032e+03 3.46765611e+01
v 6.36415757e+03 5.07506978e+03 3.48789782e+01
v 6.36327735e+03 5.07528245e+03 3.48909225e+01
v 6.36489701e+03 5.07806338e+03 3.34853212e+01
v 6.36495760e+03 5.07570220e+03 3.47061918e+01
v 6.36259203e+03 5.07558595e+03 3.57300572e+01
v 6.36241782e+03 5.07478809e+03 3.47046160e+01
v 6.36380579e+03 5.07154863e+03 3.45417155e+01
v 6.36659191e+03 5.06957662e+03 3.47415714e+01
v 6.36152291e+03 5.06935093e+03 3.45237410e+01
v 6.36498068e+03 5.07397252e+03 3.48598516e+01
v 6.36855148e+03 5.07080727e+03 3.46491776e+01
v 6.36332599e+03 5.06750680e+03 3.47092942e+01
v 6.35999154e+03 5.06935340e+03 3.45560429e+01
v 6.35809290e+03 5.07113289e+03 3.44656061e+01
v 6.36591581e+03 5.07448077e+03 3.46421845e+01
v 6.36934378e+03 5.07191750e+03 3.33309301e+01
v 6.36008561e+03 5.08255197e+03 3.47016377e+01
v 6.36234037e+03 5.07936924e+03 3.47516521e+01
v 6.36167681e+03 5.07684789e+03 3.46259221e+01
v 6.36010452e+03 5.07678910e+03 3.46345416e+01
v 6.36212738e+03 5.07579408e+03 3.48405482e+01
v 6.36121891e+03 5.07540988e+03 3.48098345e+01
v 6.36111171e+03 5.07645529e+03 3.56345598e+01
v 6.36325883e+03 5.09003632e+03 3.08456844e+01
v 6.36228284e+03 5.08875389e+03 2.88341439e+01
v 6.36240474e+03 5.09252460e+03 3.14349958e+01
v 6.36276832e+03 5.08937734e+03 3.14584838e+01
v 6.35965746e+03 5.08735914e+03 3.10137526e+01
v 6.36277645e+03 5.09286434e+03 2.87206446e+01
v 6.36711220e+03 5.07626263e+03 3.28867186e+01
v 6.36658930e+03 5.07850171e+03 3.09676467e+01
v 6.36530658e+03 5.08019130e+03 3.09712711e+01
v 6.36656355e+03 5.08188674e+03 3.14381861e+01
v 6.36561095e+03 5.08160359e+03 3.15285594e+01
v 6.36241361e+03 5.08305933e+03 3.18430183e+01
v 6.36676314e+03 5.08477415e+03 3.09293786e+01
v 6.36317330e+03 5.08361476e+03 3.09297256e+01
v 6.36829300e+03 5.07974634e+03 3.11165135e+01
v 6.36666813e+03 5.07981360e+03 3.13821950e+01
v 6.36640434e+03 5.08118404e+03 3.21716966e+01
v 6.36058387e+03 5.08776011e+03 3.14667200e+01
v 6.36351315e+03 5.09081541e+03 3.10720511e+01
v 6.36401055e+03 5.09017585e+03 3.14581155e+01
v 6.36482567e+03 5.08987342e+03 3.10922078e+01
v 6.36053231e+03 5.08445943e+03 3.22711183e+01
v 6.36042032e+03 5.08373915e+03 3.37157307e+01
v 6.36067386e+03 5.08451071e+03 3.33857998e+01
v 6.35937409e+03 5.08390292e+03 3.33854503e+01
v 6.36501282e+03 5.07490985e+03 3.58504928e+01
v 6.36086696e+03 5.06904011e+03 3.52724740e+01
v 6.36077439e+03 5.06904392e+03 3.58763017e+01
v 6.36686457e+03 5.08043180e+03 3.19939786e+01
v 6.36032737e+03 5.06899983e+03 3.51066732e+01
v 6.36024617e+03 5.06868967e+03 3.56520037e+01
v 6.36152290e+03 5.06842672e+03 3.46867001e+01
v 6.36085170e+03 5.06815075e+03 3.60808960e+01
v 6.35997903e+03 5.06820889e+03 3.51084373e+01
v 6.36072214e+03 5.06768614e+03 3.46669154e+01
v 6.35858044e+03 5.06405085e+03 3.46577051e+01
v 6.35735643e+03 5.06551904e+03 3.44777207e+01
v 6.36014014e+03 5.06686649e+03 3.47132614e+01
v 6.35979628e+03 5.06425244e+03 3.08817760e+01
v 6.35932412e+03 5.06291504e+03 3.07801904e+01
v 6.36310257e+03 5.06310303e+03 2.87977715e+01
v 6.36786980e+03 5.06718662e+03 3.12966667e+01
v 6.36622335e+03 5.06431148e+03 3.10445097e+01
v 6.36639158e+03 5.06488512e+03 3.13526839e+01
v 6.36482505e+03 5.06658686e+03 3.15825078e+01
v 6.36551347e+03 5.06527670e+03 3.12549515e+01
v 6.36043133e+03 5.06470988e+03 3.14239842e+01
v 6.36703993e+03 5.06607789e+03 3.12963032e+01
v 6.36815277e+03 5.06559171e+03 2.78455410e+01
v 6.36836646e+03 5.06575203e+03 2.95922195e+01
v 6.36570797e+03 5.06712980e+03 3.31331055e+01
v 6.36690562e+03 5.06865074e+03 3.11975223e+01
v 6.36662028e+03 5.06672798e+03 3.22618054e+01
v 6.36712215e+03 5.06533864e+03 2.91738330e+01
v 6.36744731e+03 5.08071427e+03 3.18961532e+01
v 6.36166165e+03 5.06233545e+03 3.12694359e+01
v 6.37275455e+03 5.06920220e+03 3.13841958e+01
v 6.36963017e+03 5.07177042e+03 3.11348064e+01
v 6.36914187e+03 5.07092619e+03 3.14597679e+01
v 6.37508542e+03 5.07906491e+03 2.84853933e+01
v 6.37487201e+03 5.07795949e+03 2.93403326e+01
v 6.37465453e+03 5.07597393e+03 2.76485885e+01
v 6.37131349e+03 5.08190780e+03 3.09085676e+01
v 6.37455529e+03 5.08735399e+03 3.08593791e+01
v 6.37403367e+03 5.07872498e+03 3.11044037e+01
v 6.37440733e+03 5.08842826e+03 3.13482384e+01
v 6.37462226e+03 5.08907252e+03 3.10382203e+01
v 6.37376537e+03 5.09080020e+03 3.09055750e+01
v 6.37287480e+03 5.07571130e+03 2.78959951e+01
v 6.37035067e+03 5.07625141e+03 3.11021016e+01
v 6.37313196e+03 5.08864103e+03 3.08721003e+01
v 6.37041688e+03 5.09172701e+03 3.08991600e+01
v 6.37068362e+03 5.09393254e+03 3.12408098e+01
v 6.36958306e+03 5.08434102e+03 3.09891388e+01
v 6.36894108e+03 5.08141168e+03 3.11926792e+01
v 6.36799977e+03 5.08223607e+03 3.12802714e+01
v 6.36830178e+03 5.07832649e+03 3.11874697e+01
v 6.36907720e+03 5.07935279e+03 3.15150106e+01
v 6.36957503e+03 5.07931451e+03 3.11526622e+01
v 6.36831702e+03 5.07612997e+03 3.09612016e+01
v 6.36907578e+03 5.07733251e+03 3.09483577e+01
v 6.36873250e+03 5.08292965e+03 3.17029105e+01
v 6.36988763e+03 5.08274402e+03 3.15714722e+01
v 6.37318873e+03 5.06910273e+03 1.46437626e+01
v 6.37339005e+03 5.07343398e+03 1.69121750e+01
v 6.37352087e+03 5.07417133e+03 1.34116095e+01
v 6.36830892e+03 5.06563692e+03 1.86710223e+01
v 6.37378826e+03 5.06945615e+03 1.31576667e+01
v 6.37151833e+03 5.07049032e+03 1.23572055e+01
v 6.37256686e+03 5.07238819e+03 1.56757356e+01
v 6.37304407e+03 5.06919299e+03 1.71204433e+01
v 6.37409003e+03 5.06955687e+03 1.59577673e+01
v 6.37503663e+03 5.07470806e+03 1.80138302e+01
v 6.37373466e+03 5.06931727e+03 1.87397199e+01
v 6.37136467e+03 5.06777857e+03 1.84938679e+01
v 6.37115251e+03 5.06791319e+03 1.72816269e+01
v 6.36936671e+03 5.06644141e+03 1.49720430e+01
v 6.37191363e+03 5.07299177e+03 1.27878058e+01
v 6.37478436e+03 5.07502236e+03 1.23178918e+01
v 6.36879342e+03 5.06630570e+03 1.71988713e+01
v 6.37207283e+03 5.07281676e+03 3.14375929e+01
v 6.37120629e+03 5.07599982e+03 2.99062447e+01
v 6.37089663e+03 5.07282821e+03 3.10971375e+01
v 6.37025586e+03 5.07310972e+03 3.19783163e+01
v 6.36940356e+03 5.07306939e+03 3.19694283e+01
v 6.37054237e+03 5.07477387e+03 3.14300637e+01
v 6.36926532e+03 5.07058089e+03 3.38942730e+01
v 6.37006587e+03 5.07395688e+03 3.10572092e+01
v 6.36828415e+03 5.07008771e+03 3.12771802e+01
v 6.37039171e+03 5.07054136e+03 3.33284838e+01
v 6.37145625e+03 5.07385486e+03 3.00293795e+01
v 6.37196105e+03 5.06996470e+03 3.11283759e+01
v 6.36880331e+03 5.07394319e+03 3.14635052e+01
v 6.37222273e+03 5.07433773e+03 2.74553091e+01
v 6.37302893e+03 5.06922488e+03 2.55990632e+01
v 6.37431642e+03 5.06972447e+03 2.64996249e+01
v 6.36934861e+03 5.06670878e+03 2.89100152e+01
v 6.37292882e+03 5.06891966e+03 2.77976366e+01
v 6.37302352e+03 5.06923272e+03 2.92618504e+01
v 6.36888806e+03 5.06638611e+03 2.58882071e+01
v 6.37306365e+03 5.06936631e+03 1.96750140e+01
v 6.37244956e+03 5.06854583e+03 2.14328067e+01
v 6.36797461e+03 5.06926351e+03 3.09898285e+01
v 6.36946027e+03 5.06887135e+03 3.14328589e+01
v 6.36928238e+03 5.07016766e+03 3.10341873e+01
v 6.36942704e+03 5.07244149e+03 3.20372368e+01
v 6.37418023e+03 5.06967065e+03 2.46651554e+01
v 6.37425963e+03 5.06972587e+03 2.30229453e+01
v 6.37421620e+03 5.06973461e+03 2.90843860e+01
v 6.37303786e+03 5.06921907e+03 2.28568634e+01
v 6.37412093e+03 5.06968852e+03 2.01561019e+01
v 6.36804162e+03 5.06558143e+03 3.14138767e+01
v 6.36997155e+03 5.06732028e+03 1.98130556e+01
v 6.36885024e+03 5.06634606e+03 2.29582089e+01
v 6.37415210e+03 5.06281477e+03 1.19370499e+01
v 6.37341737e+03 5.06332367e+03 1.17122846e+01
v 6.37519247e+03 5.06357446e+03 1.16217796e+01
v 6.37457076e+03 5.06268831e+03 1.13708308e+01
v 6.37140028e+03 5.06581512e+03 1.17134616e+01
v 6.37172673e+03 5.06787352e+03 1.10304754e+01
v 6.37334730e+03 5.06942701e+03 1.19260087e+01
v 6.37400273e+03 5.06952864e+03 1.17172540e+01
v 6.37518650e+03 5.07025416e+03 1.13233835e+01
v 6.37357938e+03 5.06708283e+03 1.09629142e+01
v 6.37480889e+03 5.07474610e+03 1.04001138e+01
v 6.37177120e+03 5.07092057e+03 1.18613925e+01
v 6.37378501e+03 5.07184213e+03 1.15691108e+01
v 6.37473436e+03 5.07574541e+03 1.14674574e+01
v 6.37417609e+03 5.07031957e+03 1.19525508e+01
v 6.36742694e+03 5.06538598e+03 1.18938900e+01
v 6.36889777e+03 5.06432100e+03 1.16706926e+01
v 6.36860673e+03 5.06589400e+03 1.40132581e+01
v 6.36896535e+03 5.06498859e+03 1.22575225e+01
v 6.36902148e+03 5.06702962e+03 1.22996936e+01
v 6.36839185e+03 5.06560335e+03 1.21542208e+01
v 6.37042083e+03 5.06585966e+03 1.26128841e+01
v 6.37288254e+03 5.07033882e+03 1.23081273e+01
v 6.37081021e+03 5.06886636e+03 1.19740282e+01
v 6.37199458e+03 5.06867005e+03 1.19023250e+01
v 6.37399343e+03 5.06802170e+03 1.13415764e+01
v 6.37070156e+03 5.06783247e+03 1.19681635e+01
v 6.36873308e+03 5.06594860e+03 1.15417323e+01
v 6.36960548e+03 5.06888339e+03 1.22592562e+01
v 6.37418611e+03 5.06988752e+03 1.28033593e+01
v 6.37327828e+03 5.07033709e+03 1.32265147e+01
v 6.37350439e+03 5.07351995e+03 1.18257274e+01
v 6.37271376e+03 5.07077154e+03 1.16259248e+01
v 6.37457140e+03 5.06262265e+03 9.90315323e+00
v 6.35041433e+03 5.09131889e+03 1.58613411e+01
v 6.35760934e+03 5.08582740e+03 1.73677203e+01
v 6.35611183e+03 5.08456571e+03 1.67291110e+01
v 6.35560178e+03 5.08536102e+03 1.61263446e+01
v 6.35041156e+03 5.08413158e+03 1.64953662e+01
v 6.35100334e+03 5.08524286e+03 1.60892042e+01
v 6.34447033e+03 5.07639663e+03 1.62186481e+01
v 6.34589651e+03 5.07747490e+03 1.62138459e+01
v 6.34404410e+03 5.07665714e+03 1.59115949e+01
v 6.35684293e+03 5.08795239e+03 1.61636428e+01
v 6.35601101e+03 5.09016811e+03 1.58798636e+01
v 6.35451655e+03 5.08697390e+03 1.61442070e+01
v 6.35505370e+03 5.08806870e+03 1.72659663e+01
v 6.34812267e+03 5.09385518e+03 1.56444463e+01
v 6.35357924e+03 5.09107249e+03 1.58678009e+01
v 6.35370158e+03 5.08971294e+03 1.62254743e+01
v 6.35867713e+03 5.09003813e+03 1.57245277e+01
v 6.35767539e+03 5.08822193e+03 1.59683290e+01
v 6.34607285e+03 5.08019845e+03 1.60638827e+01
v 6.34522749e+03 5.08009857e+03 1.67641054e+01
v 6.34358940e+03 5.08475974e+03 1.59800265e+01
v 6.34941673e+03 5.08008509e+03 2.37623768e+01
v 6.34938342e+03 5.07996630e+03 1.96918739e+01
v 6.35173819e+03 5.07311127e+03 3.46972867e+01
v 6.35178093e+03 5.07450661e+03 3.44959067e+01
v 6.34745525e+03 5.06733913e+03 3.44622795e+01
v 6.34897722e+03 5.07029827e+03 3.48898628e+01
v 6.34857929e+03 5.07957929e+03 3.14257306e+01
v 6.34826880e+03 5.07885615e+03 2.89903568e+01
v 6.35490573e+03 5.08394446e+03 3.14459378e+01
v 6.35817156e+03 5.08596679e+03 2.88502984e+01
v 6.35685002e+03 5.08523919e+03 3.14466453e+01
v 6.35748888e+03 5.06275563e+03 3.13651008e+01
v 6.34410255e+03 5.07631126e+03 2.43259087e+01
v 6.34581210e+03 5.07740349e+03 1.91522026e+01
v 6.35626275e+03 5.08481062e+03 2.28699481e+01
v 6.35682328e+03 5.08499405e+03 1.95132337e+01
v 6.35167599e+03 5.08137736e+03 2.30520739e+01
v 6.35455199e+03 5.08356251e+03 2.64224941e+01
v 6.34637466e+03 5.09166799e+03 1.59870426e+01
v 6.34529517e+03 5.09348753e+03 1.59349823e+01
v 6.34419510e+03 5.08975452e+03 1.61405648e+01
v 6.34554068e+03 5.09050346e+03 1.59799001e+01
v 6.34383705e+03 5.09168547e+03 1.64564341e+01
v 6.34880719e+03 5.09040741e+03 1.65183560e+01
v 6.34819332e+03 5.09182449e+03 1.59501915e+01
v 6.34801843e+03 5.09281654e+03 1.61844268e+01
v 6.35443313e+03 5.08871867e+03 1.61998916e+01
v 6.35770418e+03 5.08659862e+03 1.63148672e+01
v 6.35376591e+03 5.08769983e+03 1.57704529e+01
v 6.35440355e+03 5.08444852e+03 1.65150180e+01
v 6.34990027e+03 5.08322205e+03 1.63171550e+01
v 6.35197231e+03 5.08285923e+03 1.63470926e+01
v 6.35331166e+03 5.08270344e+03 1.68137079e+01
v 6.35139913e+03 5.08140838e+03 1.68609974e+01
v 6.34926375e+03 5.08145052e+03 1.62465768e+01
v 6.35590395e+03 5.08848378e+03 1.67612812e+01
v 6.34899119e+03 5.08469397e+03 1.63943028e+01
v 6.34901252e+03 5.08397860e+03 1.74789529e+01
v 6.34695403e+03 5.09376947e+03 1.66883924e+01
v 6.34599645e+03 5.09323022e+03 1.65658830e+01
v 6.34678477e+03 5.09247516e+03 1.66022861e+01
v 6.35175191e+03 5.09228448e+03 1.62730849e+01
v 6.35371171e+03 5.09328278e+03 1.58182139e+01
v 6.34575301e+03 5.08821226e+03 1.64595709e+01
v 6.34946445e+03 5.08832231e+03 1.61858358e+01
v 6.35248712e+03 5.08885696e+03 1.58873231e+01
v 6.35110217e+03 5.08719216e+03 1.64786933e+01
v 6.34833800e+03 5.08281855e+03 1.64672465e+01
v 6.34774248e+03 5.08404058e+03 1.62829947e+01
v 6.34651031e+03 5.08630423e+03 1.62212047e+01
v 6.34925745e+03 5.08023116e+03 1.70933260e+01
v 6.35192522e+03 5.08172661e+03 2.11755549e+01
v 6.35271139e+03 5.08648779e+03 1.60129475e+01
v 6.35866283e+03 5.08872774e+03 1.61769189e+01
v 6.35473763e+03 5.08386675e+03 1.77107260e+01
v 6.34685940e+03 5.08979781e+03 1.60348853e+01
v 6.34482549e+03 5.07836446e+03 1.59666809e+01
v 6.34386355e+03 5.07960336e+03 1.63908064e+01
v 6.34511132e+03 5.07924171e+03 1.65399029e+01
v 6.34472937e+03 5.07978407e+03 1.69691953e+01
v 6.34515239e+03 5.08056860e+03 1.56361660e+01
v 6.34399710e+03 5.09264470e+03 1.58695329e+01
v 6.34592170e+03 5.08283833e+03 1.61174806e+01
v 6.34573628e+03 5.07867659e+03 1.65775233e+01
v 6.34643349e+03 5.07847257e+03 1.69066634e+01
v 6.34751753e+03 5.07942232e+03 1.61297504e+01
v 6.34646226e+03 5.08152699e+03 1.58913161e+01
v 6.35654269e+03 5.09168066e+03 1.59943042e+01
v 6.35784243e+03 5.09242796e+03 1.58164564e+01
v 6.35646965e+03 5.09314066e+03 1.54486929e+01
v 6.34936613e+03 5.09359225e+03 1.58671242e+01
v 6.34415554e+03 5.07622345e+03 2.61915332e+01
v 6.35587282e+03 5.07547478e+03 3.45275080e+01
v 6.35623877e+03 5.07737308e+03 3.44587192e+01
v 6.35803371e+03 5.07500328e+03 3.46046688e+01
v 6.35379312e+03 5.07918692e+03 3.36889513e+01
v 6.35204445e+03 5.07700557e+03 3.46455070e+01
v 6.35246367e+03 5.07516156e+03 3.47502856e+01
v 6.35370227e+03 5.07557137e+03 3.46135416e+01
v 6.35469322e+03 5.07444955e+03 3.47943074e+01
v 6.35391851e+03 5.07685692e+03 3.46186896e+01
v 6.35501762e+03 5.07643657e+03 3.49898918e+01
v 6.35563711e+03 5.07531255e+03 3.63118954e+01
v 6.35490986e+03 5.07624706e+03 3.60350364e+01
v 6.35413134e+03 5.07502874e+03 3.62718072e+01
v 6.35458734e+03 5.07454543e+03 3.59600985e+01
v 6.35376211e+03 5.07559487e+03 3.60214680e+01
v 6.35789463e+03 5.06261324e+03 3.09518891e+01
v 6.35090472e+03 5.07397350e+03 3.49629692e+01
v 6.35164855e+03 5.07227022e+03 3.47434781e+01
v 6.35284177e+03 5.07202160e+03 3.47921618e+01
v 6.35038405e+03 5.07173150e+03 3.46515000e+01
v 6.35433435e+03 5.07154236e+03 3.45158730e+01
v 6.34983129e+03 5.07404171e+03 3.45697825e+01
v 6.34376278e+03 5.06649829e+03 3.45263556e+01
v 6.34601370e+03 5.07260982e+03 3.47735658e+01
v 6.35425913e+03 5.07637062e+03 3.48779069e+01
v 6.34444899e+03 5.07647644e+03 2.91585289e+01
v 6.35229200e+03 5.08185966e+03 2.93127546e+01
v 6.35088333e+03 5.08095273e+03 2.73904984e+01
v 6.35026539e+03 5.08014011e+03 2.89273722e+01
v 6.34917706e+03 5.07982286e+03 2.88307312e+01
v 6.34794730e+03 5.07899365e+03 2.75049153e+01
v 6.34446731e+03 5.07663979e+03 3.14548740e+01
v 6.34670984e+03 5.07810820e+03 3.15020082e+01
v 6.35073059e+03 5.08091581e+03 3.14504471e+01
v 6.35766926e+03 5.08424234e+03 3.15067154e+01
v 6.35814673e+03 5.08498586e+03 3.09906605e+01
v 6.35912124e+03 5.08451414e+03 3.13856356e+01
v 6.35587928e+03 5.08348621e+03 3.10904802e+01
v 6.34808527e+03 5.07807253e+03 3.10708036e+01
v 6.34745454e+03 5.07638617e+03 3.22626104e+01
v 6.34529832e+03 5.07619181e+03 3.10032450e+01
v 6.34957142e+03 5.07886295e+03 3.11192535e+01
v 6.35386698e+03 5.08196520e+03 3.10361957e+01
v 6.35181209e+03 5.08059371e+03 3.10648664e+01
v 6.35077962e+03 5.07235037e+03 3.62432293e+01
v 6.35172854e+03 5.07256641e+03 3.62055522e+01
v 6.35108994e+03 5.07346877e+03 3.61119475e+01
v 6.35295863e+03 5.07955834e+03 3.33344544e+01
v 6.34798163e+03 5.07417484e+03 3.46213906e+01
v 6.34512950e+03 5.07387866e+03 3.34204180e+01
v 6.34721076e+03 5.07451212e+03 3.37474734e+01
v 6.34759165e+03 5.07576230e+03 3.33744814e+01
v 6.34788079e+03 5.07165851e+03 3.45948420e+01
v 6.34462686e+03 5.06716041e+03 3.45390052e+01
v 6.34992728e+03 5.07335224e+03 3.52254426e+01
v 6.34972147e+03 5.07259053e+03 3.51126400e+01
v 6.34983148e+03 5.07248530e+03 3.63187389e+01
v 6.34875735e+03 5.07270363e+03 3.50377488e+01
v 6.35038954e+03 5.07169886e+03 3.62994658e+01
v 6.34831733e+03 5.07178667e+03 3.61891614e+01
v 6.34880576e+03 5.07055910e+03 3.61954561e+01
v 6.34821510e+03 5.07149416e+03 3.56421537e+01
v 6.34865546e+03 5.07222186e+03 3.56204993e+01
v 6.35862937e+03 5.06887946e+03 3.45873460e+01
v 6.34881935e+03 5.06254081e+03 3.45646162e+01
v 6.34392902e+03 5.06316309e+03 3.49665343e+01
v 6.34613466e+03 5.06339001e+03 3.45964313e+01
v 6.35142817e+03 5.06496643e+03 3.45427247e+01
v 6.35387593e+03 5.06367614e+03 3.45558729e+01
v 6.35366590e+03 5.06501166e+03 3.47258866e+01
v 6.35789717e+03 5.06785725e+03 3.47380039e+01
v 6.34573340e+03 5.06626556e+03 3.46367590e+01
v 6.35900638e+03 5.06834661e+03 3.53137067e+01
v 6.34498451e+03 5.06541684e+03 3.49714973e+01
v 6.34488023e+03 5.06617505e+03 3.60440285e+01
v 6.34386801e+03 5.06412411e+03 3.45986031e+01
v 6.35905216e+03 5.06706623e+03 3.52806207e+01
v 6.35860320e+03 5.06650265e+03 3.45865599e+01
v 6.34350000e+03 5.06366607e+03 3.48652480e+01
v 6.34350000e+03 5.06341891e+03 3.53048148e+01
v 6.34350000e+03 5.06311916e+03 3.57145682e+01
v 6.34350000e+03 5.06280540e+03 3.49354288e+01
v 6.34350000e+03 5.06297492e+03 3.51646257e+01
v 6.34350000e+03 5.06622557e+03 3.45384691e+01
v 6.34350000e+03 5.06434106e+03 3.45969749e+01
v 6.34350000e+03 5.06648136e+03 3.45269190e+01
v 6.34350000e+03 5.07145129e+03 3.42554685e+01
v 6.34350000e+03 5.07206367e+03 3.36783521e+01
v 6.34350000e+03 5.07268523e+03 3.34199158e+01
v 6.34350000e+03 5.07289954e+03 3.33413930e+01
v 6.34350000e+03 5.07488306e+03 3.10403435e+01
v 6.34350000e+03 5.07416019e+03 3.18369445e+01
v 6.34350000e+03 5.07594457e+03 3.14591265e+01
v 6.34350000e+03 5.07542385e+03 3.12359551e+01
v 6.34350000e+03 5.07570624e+03 2.89135577e+01
v 6.34350000e+03 5.07577438e+03 2.99652168e+01
v 6.34350000e+03 5.07569800e+03 2.73064498e+01
v 6.34350000e+03 5.07577418e+03 2.59586078e+01
v 6.34350000e+03 5.07104177e+03 3.47565463e+01
v 6.34350000e+03 5.06665177e+03 3.45402174e+01
v 6.34350000e+03 5.07587236e+03 2.44978683e+01
v 6.34350000e+03 5.07908846e+03 1.62781017e+01
v 6.34350000e+03 5.07935750e+03 1.65959501e+01
v 6.34350000e+03 5.07613912e+03 1.64588302e+01
v 6.34350000e+03 5.07640999e+03 1.59850510e+01
v 6.34350000e+03 5.08471350e+03 1.59751503e+01
v 6.34350000e+03 5.08478889e+03 1.59741663e+01
v 6.34350000e+03 5.07598036e+03 1.98091416e+01
v 6.34350000e+03 5.07600269e+03 1.71896566e+01
v 6.34350000e+03 5.08483448e+03 1.59775485e+01
v 6.34350000e+03 5.08489743e+03 1.60017859e+01
v 6.34350000e+03 5.07705042e+03 1.59374564e+01
v 6.34350000e+03 5.08084891e+03 1.58604540e+01
v 6.34350000e+03 5.08266392e+03 1.59125220e+01
v 6.34350000e+03 5.09390015e+03 1.59406856e+01
v 6.34350000e+03 5.09363171e+03 1.59467881e+01
v 6.34350000e+03 5.09330340e+03 1.59211410e+01
v 6.34350000e+03 5.09232779e+03 1.58505156e+01
v 6.34350000e+03 5.09262155e+03 1.58648218e+01
v 6.34350000e+03 5.08077308e+03 1.58419480e+01
v 6.34350000e+03 5.08056974e+03 1.59493564e+01
v 6.34350000e+03 5.07966123e+03 1.65451843e+01
v 6.34350000e+03 5.08812451e+03 1.59808804e+01
v 6.34350000e+03 5.08770170e+03 1.58937509e+01
v 6.34350000e+03 5.08958255e+03 1.58989638e+01
v 6.34350000e+03 5.09050552e+03 1.62615085e+01
v 6.34350000e+03 5.09163061e+03 1.63328432e+01
v 6.34350000e+03 5.08897984e+03 1.58293986e+01
v 6.34350000e+03 5.07800061e+03 1.59760246e+01
v 6.34350000e+03 5.08508013e+03 1.59629419e+01
v 6.34350000e+03 5.07594668e+03 1.66713260e+01
v 6.34350000e+03 5.09148788e+03 1.64228294e+01
v 6.34350000e+03 5.07584577e+03 2.39248220e+01
v 6.37525000e+03 5.07025830e+03 1.11978240e+01
v 6.37525000e+03 5.07030854e+03 1.12949238e+01
v 6.37525000e+03 5.06364557e+03 1.15722834e+01
v 6.37525000e+03 5.06360610e+03 1.15864721e+01
v 6.37525000e+03 5.06235047e+03 9.72011481e+00
v 6.37525000e+03 5.06288319e+03 9.80379313e+00
v 6.37525000e+03 5.09366090e+03 3.17207894e+01
v 6.37525000e+03 5.07918279e+03 2.84951035e+01
v 6.37525000e+03 5.07901413e+03 2.89128681e+01
v 6.37525000e+03 5.07956241e+03 3.11042788e+01
v 6.37525000e+03 5.07887168e+03 3.00599626e+01
v 6.37525000e+03 5.08749026e+03 3.09010629e+01
v 6.37525000e+03 5.08727368e+03 3.10442814e+01
v 6.37525000e+03 5.07484643e+03 1.72820468e+01
v 6.37525000e+03 5.07485436e+03 1.79634443e+01
v 6.37525000e+03 5.07523735e+03 2.48970005e+01
v 6.37525000e+03 5.07498693e+03 2.44880990e+01
v 6.37525000e+03 5.06952377e+03 1.04599372e+01
v 6.37525000e+03 5.07005072e+03 1.05257911e+01
v 6.37525000e+03 5.07613522e+03 1.13525633e+01
v 6.37525000e+03 5.07622090e+03 1.12555434e+01
v 6.37525000e+03 5.06748384e+03 1.04886201e+01
v 6.37525000e+03 5.06590602e+03 1.07314188e+01
v 6.37525000e+03 5.06355740e+03 1.15140567e+01
v 6.37525000e+03 5.07507417e+03 1.04298709e+01
v 6.37525000e+03 5.07609608e+03 1.11343909e+01
v 6.37525000e+03 5.07460498e+03 1.04123522e+01
v 6.37525000e+03 5.07409398e+03 1.04360758e+01
v 6.37525000e+03 5.07177327e+03 1.10940333e+01
v 6.37525000e+03 5.07527700e+03 1.24058236e+01
v 6.37525000e+03 5.07086843e+03 1.14009828e+01
v 6.37525000e+03 5.06440082e+03 1.10139097e+01
v 6.37525000e+03 5.07483205e+03 2.43396860e+01
v 6.37525000e+03 5.07479718e+03 1.56707191e+01
v 6.37525000e+03 5.07511219e+03 1.36333484e+01
v 6.37525000e+03 5.07495900e+03 1.48096870e+01
v 6.37525000e+03 5.08887465e+03 3.12241945e+01
v 6.37525000e+03 5.08946978e+03 3.12785882e+01
v 6.37525000e+03 5.08662705e+03 3.08609264e+01
v 6.37525000e+03 5.09035248e+03 3.14384808e+01
v 6.37525000e+03 5.08993476e+03 3.13186289e+01
v 6.37525000e+03 5.08160894e+03 3.10248911e+01
v 6.37525000e+03 5.08472917e+03 3.08730391e+01
v 6.37525000e+03 5.07846651e+03 2.95717589e+01
v 6.37525000e+03 5.07771656e+03 2.83788236e+01
v 6.37525000e+03 5.07746578e+03 2.79155194e+01
v 6.37525000e+03 5.07635054e+03 2.76294430e+01
v 6.37525000e+03 5.07721998e+03 2.78542946e+01
v 6.37525000e+03 5.07836832e+03 2.82151400e+01
v 6.37525000e+03 5.07660907e+03 2.57055900e+01
v 6.37525000e+03 5.07630489e+03 2.69822429e+01
v 6.37525000e+03 5.07485088e+03 2.01411293e+01
v 6.37525000e+03 5.07480344e+03 2.37760779e+01
v 6.34875538e+03 5.06225000e+03 3.46292586e+01
v 6.34858720e+03 5.06225000e+03 3.45924779e+01
v 6.35955614e+03 5.06225000e+03 3.12526837e+01
v 6.35892225e+03 5.06225000e+03 3.12350391e+01
v 6.35787691e+03 5.06225000e+03 3.10176274e+01
v 6.35711961e+03 5.06225000e+03 3.09902892e+01
v 6.35745502e+03 5.06225000e+03 3.09032862e+01
v 6.35668991e+03 5.06225000e+03 3.12496432e+01
v 6.35764950e+03 5.06225000e+03 3.22177084e+01
v 6.35170278e+03 5.06225000e+03 3.47107915e+01
v 6.35371104e+03 5.06225000e+03 3.46526154e+01
v 6.35799188e+03 5.06225000e+03 3.34652300e+01
v 6.35585993e+03 5.06225000e+03 3.47112801e+01
v 6.35857952e+03 5.06225000e+03 3.31333832e+01
v 6.34632191e+03 5.06225000e+03 3.46687208e+01
v 6.35120589e+03 5.06225000e+03 3.47250899e+01
v 6.35045484e+03 5.06225000e+03 3.45320324e+01
v 6.35022631e+03 5.06225000e+03 3.45361623e+01
v 6.34538937e+03 5.06225000e+03 3.46179222e+01
v 6.34890435e+03 5.06225000e+03 3.48430932e+01
v 6.34398355e+03 5.06225000e+03 3.48679036e+01
v 6.35828234e+03 5.06225000e+03 3.28134190e+01
v 6.36048305e+03 5.06225000e+03 1.28800736e+01
v 6.36073162e+03 5.06225000e+03 1.28341487e+01
v 6.37456473e+03 5.06225000e+03 9.84599690e+00
v 6.36318396e+03 5.06225000e+03 2.83510129e+01
v 6.36319363e+03 5.06225000e+03 2.64758099e+01
v 6.37173851e+03 5.06225000e+03 1.16578469e+01
v 6.37263877e+03 5.06225000e+03 1.16769010e+01
v 6.37451477e+03 5.06225000e+03 1.18481577e+01
v 6.37451992e+03 5.06225000e+03 1.09705134e+01
v 6.37082242e+03 5.06225000e+03 1.16511047e+01
v 6.37431181e+03 5.06225000e+03 1.21767352e+01
v 6.37411052e+03 5.06225000e+03 1.19303175e+01
v 6.37386600e+03 5.06225000e+03 1.18572218e+01
v 6.36678141e+03 5.06225000e+03 1.16382493e+01
v 6.36853849e+03 5.06225000e+03 1.16438821e+01
v 6.36290451e+03 5.06225000e+03 1.76232667e+01
v 6.36321899e+03 5.06225000e+03 1.83487799e+01
v 6.36326734e+03 5.06225000e+03 3.04869462e+01
v 6.36284982e+03 5.06225000e+03 3.12951383e+01
v 6.36266126e+03 5.06225000e+03 3.13876245e+01
v 6.35997343e+03 5.06225000e+03 3.14333710e+01
v 6.36115644e+03 5.06225000e+03 3.13107353e+01
v 6.36153550e+03 5.06225000e+03 3.12694251e+01
v 6.36164263e+03 5.06225000e+03 3.12812174e+01
v 6.36202409e+03 5.06225000e+03 3.13005362e+01
v 6.36325801e+03 5.06225000e+03 3.04359470e+01
v 6.36236904e+03 5.06225000e+03 1.28889515e+01
v 6.36310491e+03 5.06225000e+03 1.46013515e+01
v 6.36098769e+03 5.06225000e+03 1.20904645e+01
v 6.36121980e+03 5.06225000e+03 1.18704709e+01
v 6.36247769e+03 5.06225000e+03 1.17737785e+01
v 6.36299716e+03 5.06225000e+03 1.18165032e+01
v 6.36526677e+03 5.06225000e+03 1.16222716e+01
v 6.36526635e+03 5.06225000e+03 1.16223832e+01
v 6.36526665e+03 5.06225000e+03 1.16224384e+01
v 6.36090809e+03 5.06225000e+03 1.22844561e+01
v 6.36151483e+03 5.06225000e+03 1.22628174e+01
v 6.36091895e+03 5.06225000e+03 1.29225067e+01
v 6.36143094e+03 5.06225000e+03 1.20611294e+01
v 6.36138209e+03 5.06225000e+03 1.18244102e+01
v 6.36291702e+03 5.06225000e+03 1.69588078e+01
v 6.36321702e+03 5.06225000e+03 1.63619887e+01
v 6.36316856e+03 5.06225000e+03 1.46671881e+01
v 6.36314126e+03 5.06225000e+03 1.46453760e+01
v 6.36329677e+03 5.06225000e+03 1.60457834e+01
v 6.36317531e+03 5.06225000e+03 1.46786461e+01
v 6.36329604e+03 5.06225000e+03 1.87380574e+01
v 6.36314919e+03 5.06225000e+03 1.92883911e+01
v 6.36294333e+03 5.06225000e+03 2.25154723e+01
v 6.36289862e+03 5.06225000e+03 2.29714958e+01
v 6.36292785e+03 5.06225000e+03 2.01665974e+01
v 6.36331408e+03 5.06225000e+03 2.16438443e+01
v 6.36292418e+03 5.06225000e+03 2.01475910e+01
v 6.36318735e+03 5.06225000e+03 2.50979818e+01
v 6.36294085e+03 5.06225000e+03 2.34197560e+01
v 6.36262859e+03 5.06225000e+03 2.86676675e+01
v 6.36320957e+03 5.06225000e+03 3.04070237e+01
v 6.36186395e+03 5.06225000e+03 1.24344342e+01
v 6.36243561e+03 5.06225000e+03 1.20272937e+01
v 6.36081918e+03 5.06225000e+03 1.30512570e+01
v 6.34363221e+03 5.06225000e+03 3.48737793e+01
v 6.34350000e+03 5.06225000e+03 3.48759903e+01
v 6.37514099e+03 5.06225000e+03 9.72686912e+00
v 6.37525000e+03 5.06225000e+03 9.72299543e+00
v 6.35836304e+03 5.09400000e+03 1.61025606e+01
v 6.35886225e+03 5.09400000e+03 1.62078623e+01
v 6.34923655e+03 5.09400000e+03 1.59024347e+01
v 6.34906983e+03 5.09400000e+03 1.58330980e+01
v 6.34468556e+03 5.09400000e+03 1.59284543e+01
v 6.34593893e+03 5.09400000e+03 1.58489789e+01
v 6.35449545e+03 5.09400000e+03 1.58147866e+01
v 6.35455865e+03 5.09400000e+03 1.59708896e+01
v 6.35039606e+03 5.09400000e+03 1.57831937e+01
v 6.34961293e+03 5.09400000e+03 1.59894290e+01
v 6.34694778e+03 5.09400000e+03 1.64681421e+01
v 6.34360651e+03 5.09400000e+03 1.59375208e+01
v 6.35611580e+03 5.09400000e+03 1.56088819e+01
v 6.35512032e+03 5.09400000e+03 1.59057595e+01
v 6.35325635e+03 5.09400000e+03 1.57433199e+01
v 6.35263153e+03 5.09400000e+03 1.57340954e+01
v 6.34811512e+03 5.09400000e+03 1.56509936e+01
v 6.35178562e+03 5.09400000e+03 1.58165992e+01
v 6.35155967e+03 5.09400000e+03 1.57020158e+01
v 6.35655459e+03 5.09400000e+03 1.58124114e+01
v 6.36029822e+03 5.09400000e+03 1.64327293e+01
v 6.34793660e+03 5.09400000e+03 1.56557397e+01
v 6.34736232e+03 5.09400000e+03 1.59035966e+01
v 6.36067749e+03 5.09400000e+03 1.68546459e+01
v 6.36072787e+03 5.09400000e+03 1.63304573e+01
v 6.36888372e+03 5.09400000e+03 3.09075154e+01
v 6.36466199e+03 5.09400000e+03 3.09551785e+01
v 6.37076044e+03 5.09400000e+03 3.12234700e+01
v 6.37056810e+03 5.09400000e+03 3.12277453e+01
v 6.37130467e+03 5.09400000e+03 3.10032221e+01
v 6.37199184e+03 5.09400000e+03 3.10122684e+01
v 6.37272800e+03 5.09400000e+03 3.13615378e+01
v 6.36142550e+03 5.09400000e+03 2.66186034e+01
v 6.36119294e+03 5.09400000e+03 2.80686021e+01
v 6.36134917e+03 5.09400000e+03 3.14385372e+01
v 6.36213407e+03 5.09400000e+03 3.11729172e+01
v 6.36239215e+03 5.09400000e+03 3.10863530e+01
v 6.36253431e+03 5.09400000e+03 3.10045687e+01
v 6.36148093e+03 5.09400000e+03 2.62685095e+01
v 6.36146291e+03 5.09400000e+03 2.58317986e+01
v 6.36173404e+03 5.09400000e+03 2.84338169e+01
v 6.36202778e+03 5.09400000e+03 2.86979038e+01
v 6.36171938e+03 5.09400000e+03 2.91238604e+01
v 6.36125604e+03 5.09400000e+03 2.98352072e+01
v 6.36132915e+03 5.09400000e+03 3.07319537e+01
v 6.36133634e+03 5.09400000e+03 1.87074921e+01
v 6.36117393e+03 5.09400000e+03 1.75146729e+01
v 6.36133058e+03 5.09400000e+03 2.33225222e+01
v 6.36118962e+03 5.09400000e+03 2.22033494e+01
v 6.36133864e+03 5.09400000e+03 2.37718379e+01
v 6.36126024e+03 5.09400000e+03 2.09498342e+01
v 6.34350000e+03 5.09400000e+03 1.59381998e+01
v 6.37462959e+03 5.09400000e+03 3.16828551e+01
v 6.37525000e+03 5.09400000e+03 3.17433200e+01
v 6.37307256e+03 5.09400000e+03 3.15150314e+01
vt 0.14533061 0.76705009
vt 0.15218154 0.79810655
vt 0.14387994 0.79347026
vt 0.13584499 0.75675064
vt 0.15017374 0.82742697
vt 0.1323259 0.70711541
vt 0.13565513 0.7726174
vt 0.14544711 0.87752503
vt 0.16579989 0.86777824
vt 0.12811524 0.71869892
vt 0.12316053 0.7744922
vt 0.12747926 0.7569114
vt 0.15740071 0.8604691
vt 0.11522636 0.74482363
vt 0.1142477 0.6454649
vt 0.13842666 0.87737799
vt 0.16424553 0.89943063
vt 0.097365089 0.7320025
vt 0.12534435 0.67023969
vt 0.079297073 0.68924475
vt 0.11568727 0.77002251
vt 0.17380297 0.90085447
vt 0.099825598 0.75037944
vt 0.12084087 0.65073252
vt 0.059189163 0.67195886
vt 0.1126241 0.79290307
vt 0.17035894 0.92051101
vt 0.083163857 0.75049645
vt 0.14811856 0.61618006
vt 0.12507768 0.65467083
vt 0.086316742 0.57711053
vt 0.060144253 0.71150857
vt 0.14011413 0.92328888
vt 0.084061541 0.81271768
vt 0.17939466 0.93387336
vt 0.072779782 0.73984873
vt 0.094782613 0.77161503
vt 0.14720084 0.61452496
vt 0.14978452 0.61880165
vt 0.05520878 0.59158111
vt 0.13346732 0.59702373
vt 0.067877218 0.72823417
vt 0.11465853 0.88387865
vt 0.061809178 0.79969621
vt 0.08713638 0.86064708
vt 0.18006949 0.96491009
vt 0.068527147 0.75560009
vt 0.14154387 0.63572562
vt 0.040356643 0.59525561
vt 0.060624059 0.56107467
vt 0.1062174 0.56260943
vt 0.057012994 0.73782492
vt 0.12736338 0.9097392
vt 0.051027525 0.8347528
vt 0.077246517 0.8471899
vt 0.18740606 0.96911156
vt 0.05807706 0.75161713
vt 0.065813266 0.74239111
vt 0.039583791 0.79943389
vt 0.15485126 0.62678927
vt 0.037309747 0.68631804
vt 0.046040997 0.58674324
vt 0.047488879 0.57545018
vt 0.090591229 0.5436362
vt 0.094303399 0.55092567
vt 0.050439674 0.71313107
vt 0.092642292 0.89836693
vt 0.12929188 0.94240803
vt 0.11841951 0.90813696
vt 0.063618839 0.8442899
vt 0.039466307 0.84109116
vt 0.079167821 0.86265421
vt 0.19058962 0.98519641
vt 0.052810822 0.76523906
vt 0.050195076 0.69203258
vt 0.032672923 0.59826773
vt 0.045186084 0.56715578
vt 0.086155772 0.53813857
vt 0.094104409 0.54939783
vt 0.095345944 0.55097878
vt 0.047292598 0.73763794
vt 0.058468301 0.69998133
vt 0.10866527 0.90976399
vt 0.12310076 0.92669362
vt 0.12302482 0.91435552
vt 0.0060551963 0.83565491
vt 0.053408109 0.84978467
vt 0.047185611 0.85078222
vt 0.069700211 0.85736871
vt 0.18829724 0.98998749
vt 0.031219663 0.77935028
vt 0.024319351 0.62083983
vt 0.035519399 0.59173775
vt 0.042566493 0.57387364
vt 0.047232788 0.56189179
vt 0.08140479 0.53435111
vt 0.10947592 0.92463762
vt 0.060025688 0.85445148
vt 0.065786652 0.86158669
vt 0.18591657 0.9951871
vt 0.040986519 0.75483686
vt 0.018456491 0.80445117
vt 0.010585759 0.65876663
vt 0.036472429 0.5882839
vt 0.049071606 0.55768216
vt 0.037116889 0.73261946
vt 0.11828286 0.91772372
vt 0.040499393 0.73843193
vt 0.010366633 0.79157019
vt 0.031615131 0.75888395
vt 0.0015780419 0.68351722
vt 0.079181053 0.53251654
vt 0.11794585 0.93992305
vt 0.010887741 0.7803427
vt 0.0057430305 0.70327497
vt 0.069131248 0.52097166
vt 0.1228205 0.93464649
vt 0.018627955 0.7623474
vt 0.063634269 0.52021211
vt 0.065126866 0.51633197
vt 0.29757026 0.81959742
vt 0.30731261 0.83495891
vt 0.30179924 0.85612655
vt 0.30333829 0.90731072
vt 0.3193202 0.8406347
vt 0.31081742 0.84375513
vt 0.3075231 0.8720966
vt 0.27397513 0.91372734
vt 0.30712813 0.7966485
vt 0.31046283 0.86376107
vt 0.31816649 0.87949556
vt 0.30288482 0.96778488
vt 0.26873502 0.81168544
vt 0.32386947 0.85343945
vt 0.34421146 0.85062349
vt 0.3180626 0.86160648
vt 0.33013061 0.87944943
vt 0.32776922 0.97411972
vt 0.27678457 0.95914769
vt 0.25125366 0.81099212
vt 0.36973175 0.88294786
vt 0.27037355 0.79081863
vt 0.34797114 0.91377705
vt 0.31906748 0.99567777
vt 0.33713481 0.96439928
vt 0.28600442 0.975164
vt 0.26231381 0.92122012
vt 0.23211689 0.89431137
vt 0.33012724 0.86500674
vt 0.32218036 0.78952295
vt 0.26908118 0.76853484
vt 0.32692951 0.99044597
vt 0.33486751 0.98011792
vt 0.25936812 0.97028464
vt 0.2202214 0.84808677
vt 0.25339115 0.76854438
vt 0.30253243 0.76852596
vt 0.36282921 0.84473795
vt 0.35715434 0.95164126
vt 0.28586912 0.76852328
vt 0.34385014 0.97211725
vt 0.25403395 0.96005732
vt 0.26904655 0.97668332
vt 0.24311285 0.9167012
vt 0.20897074 0.93044585
vt 0.20989342 0.78638661
vt 0.24950907 0.7685467
vt 0.30712542 0.76852661
vt 0.39062545 0.89863527
vt 0.38504466 0.90216798
vt 0.35072643 0.96878999
vt 0.25299263 0.92511135
vt 0.22355613 0.91557413
vt 0.19812353 0.84530783
vt 0.23086581 0.77310449
vt 0.20676559 0.83131891
vt 0.24364264 0.76855266
vt 0.3994287 0.898018
vt 0.36446267 0.95958036
vt 0.35740197 0.96627629
vt 0.19137128 0.83496654
vt 0.22905122 0.76856142
vt 0.20091075 0.81805778
vt 0.39124513 0.91952562
vt 0.18932845 0.90595782
vt 0.24185722 0.76855373
vt 0.211353 0.76857209
vt 0.23036493 0.76856017
vt 0.19218692 0.79786849
vt 0.18931861 0.83736593
vt 0.23152746 0.76855713
vt 0.20406781 0.76857734
vt 0.19265898 0.782848
vt 0.18931827 0.83470339
vt 0.18931755 0.83070654
vt 0.18930914 0.79071051
vt 0.19308332 0.76858181
vt 0.18931243 0.80126023
vt 0.18930654 0.77726161
vt 0.19033837 0.76858354
vt 0.18930562 0.779908
vt 0.18930548 0.76858413
vt 0.32560557 0.61127013
vt 0.34205905 0.66636389
vt 0.30118459 0.65044522
vt 0.26244831 0.57197118
vt 0.37010774 0.6133855
vt 0.2832433 0.6882937
vt 0.32139859 0.55919915
vt 0.26814309 0.60696089
vt 0.3899079 0.62380719
vt 0.36680788 0.58404726
vt 0.26171672 0.69052404
vt 0.30858645 0.70501363
vt 0.29123768 0.50905037
vt 0.2612879 0.64077175
vt 0.25624213 0.59340113
vt 0.37693405 0.68077576
vt 0.2573663 0.66022635
vt 0.27024513 0.70562613
vt 0.33804291 0.74465352
vt 0.29269505 0.73877084
vt 0.26410139 0.5111717
vt 0.3124499 0.52569067
vt 0.3393077 0.53044498
vt 0.39069852 0.56040823
vt 0.39271507 0.70285177
vt 0.36406824 0.71107757
vt 0.25295985 0.6878953
vt 0.25235346 0.70539951
vt 0.3200351 0.74509066
vt 0.25761572 0.55210114
vt 0.3077907 0.50877106
vt 0.32772368 0.51560217
vt 0.35364643 0.51630563
vt 0.37147489 0.51663971
vt 0.42475507 0.55134833
vt 0.4041492 0.68191898
vt 0.38480678 0.70489943
vt 0.26417032 0.74642599
vt 0.25250316 0.72111857
vt 0.37803602 0.74399304
vt 0.28526878 0.74619639
vt 0.33810753 0.51113272
vt 0.38998643 0.51960778
vt 0.44038412 0.63160282
vt 0.4405641 0.66079283
vt 0.40305665 0.70540988
vt 0.25785178 0.73673272
vt 0.40423003 0.50394374
vt 0.4455539 0.56099749
vt 0.43756321 0.70707297
vt 0.39744917 0.74306488
vt 0.41549057 0.51598811
vt 0.44541392 0.52014041
vt 0.44630393 0.62526506
vt 0.44670165 0.65702701
vt 0.44708729 0.70314813
vt 0.42386875 0.50554359
vt 0.4377628 0.50540119
vt 0.44616687 0.63417971
vt 0.44711831 0.67809778
vt 0.43660665 0.74276721
vt 0.41596967 0.74401218
vt 0.44570819 0.51210064
vt 0.44673267 0.7194941
vt 0.4388079 0.50011659
vt 0.4446812 0.50864482
vt 0.44583791 0.74265945
vt 0.44323429 0.50105715
vt 0.17222822 0.51467097
vt 0.16513947 0.53012967
vt 0.16208333 0.49493814
vt 0.15846546 0.47009534
vt 0.17203249 0.5793227
vt 0.17670092 0.46554279
vt 0.18847793 0.53064609
vt 0.19022685 0.49573964
vt 0.16115339 0.45686626
vt 0.19045739 0.56190491
vt 0.19045812 0.51970768
vt 0.19103579 0.48368233
vt 0.17338532 0.43960226
vt 0.19019327 0.61534142
vt 0.19049199 0.52979183
vt 0.1918045 0.46693903
vt 0.18735194 0.4192152
vt 0.19033058 0.62377036
vt 0.18855785 0.44868946
vt 0.16979189 0.62455761
vt 0.19263121 0.44948691
vt 0.19184664 0.43918967
vt 0.19109713 0.62657762
vt 0.1968935 0.43737119
vt 0.19731894 0.43628156
vt 0.17973046 0.63687944
vt 0.19670126 0.43399644
vt 0.1923351 0.63360882
vt 0.16971858 0.65971708
vt 0.19164158 0.41952705
vt 0.18671793 0.66125935
vt 0.19912785 0.65100873
vt 0.1695745 0.6776154
vt 0.19760996 0.66862977
vt 0.19236825 0.67907822
vt 0.16535296 0.68468034
vt 0.19783108 0.67835987
vt 0.18031707 0.68747288
vt 0.2021388 0.68514466
vt 0.20335667 0.68702823
vt 0.1716553 0.72371066
vt 0.20459603 0.69486344
vt 0.16253187 0.71615893
vt 0.20222755 0.74305397
vt 0.20350985 0.7112475
vt 0.16772586 0.74514103
vt 0.21028468 0.70234895
vt 0.16155718 0.74346256
vt 0.21030816 0.72427201
vt 0.2078279 0.69504809
vt 0.21102338 0.70791721
vt 0.20830376 0.71545368
vt 0.2137236 0.74243349
vt 0.2118627 0.70242667
vt 0.061435599 0.40951848
vt 0.098007731 0.44029069
vt 0.052986071 0.44010031
vt 0.055191193 0.39147699
vt 0.10022348 0.40585756
vt 0.065762199 0.45672065
vt 0.043144915 0.40561098
vt 0.11023476 0.42044586
vt 0.10020506 0.46295458
vt 0.055047289 0.46736628
vt 0.017067431 0.44299257
vt 0.018869614 0.39083844
vt 0.10918447 0.39178735
vt 0.10969551 0.46066594
vt 0.10291632 0.48767203
vt 0.045738108 0.46026248
vt 0.018951818 0.46280468
vt 0.041576061 0.36126435
vt 0.10026544 0.36311448
vt 0.035114862 0.48954928
vt 0.074865736 0.49484664
vt 0.0068562985 0.41768706
vt 0.010862112 0.45319104
vt 0.0076507078 0.35880995
vt 0.05450312 0.34693259
vt 0.061029583 0.36383945
vt 0.10994551 0.36619925
vt 0.11004672 0.49645042
vt 0.052267641 0.49566275
vt 0.098488614 0.49587494
vt 0.0068314304 0.39620078
vt 0.0067859837 0.44691652
vt 0.0071924645 0.47947562
vt 0.028936101 0.34001392
vt 0.093328357 0.34099185
vt 0.0072453762 0.48027742
vt 0.0036100505 0.45145738
vt 0.0069158669 0.47899014
vt 0.0054363436 0.3698597
vt 0.0054577547 0.35576272
vt 0.035071254 0.31927496
vt 0.10897693 0.32143092
vt 0.004853169 0.49258018
vt 0.0051986077 0.36284071
vt 0.0075832116 0.34243757
vt 0.019813973 0.31638837
vt 0.054192569 0.2971378
vt 0.07265234 0.31488019
vt 0.10122275 0.31341529
vt 0.0053880746 0.31913024
vt 0.043212522 0.2961989
vt 0.063267969 0.31584162
vt 0.083064973 0.29496622
vt 0.10480309 0.299348
vt 0.0075034075 0.29712045
vt 0.0053672832 0.31883132
vt 0.043708324 0.26842523
vt 0.11021329 0.30459231
vt 0.0066598565 0.30559599
vt 0.0070662559 0.29099625
vt 0.04421787 0.24393272
vt 0.082579546 0.27581495
vt 0.10020785 0.27370149
vt 0.10813244 0.25605017
vt 0.0070708916 0.26001871
vt 0.049202625 0.22829223
vt 0.0052750888 0.27946043
vt 0.060535941 0.2740348
vt 0.11024909 0.23324066
vt 0.0075290981 0.25514561
vt 0.0053519141 0.26910973
vt 0.057301167 0.22454005
vt 0.030624453 0.22883278
vt 0.0081474492 0.27347201
vt 0.10057336 0.23525757
vt 0.064552523 0.23962438
vt 0.0068459976 0.23374385
vt 0.05453964 0.19561809
vt 0.050871994 0.20882845
vt 0.0068075322 0.23356038
vt 0.10589388 0.21225315
vt 0.062130731 0.21217805
vt 0.066474684 0.22129118
vt 0.041213643 0.20046562
vt 0.017987624 0.21000683
vt 0.11046826 0.20669281
vt 0.065735146 0.19727701
vt 0.030516477 0.20049012
vt 0.0066517387 0.23320085
vt 0.10471287 0.21213078
vt 0.11271972 0.19310015
vt 0.072422281 0.20928746
vt 0.058333807 0.18605596
vt 0.0338418 0.18669021
vt 0.0064443471 0.23248851
vt 0.019806249 0.19324523
vt 0.098439656 0.19738692
vt 0.1075171 0.1898948
vt 0.090476193 0.20253861
vt 0.073018692 0.20073962
vt 0.029887963 0.1859827
vt 0.0065233535 0.20958346
vt 0.012629754 0.19985425
vt 0.10322882 0.19275743
vt 0.078948915 0.19568771
vt 0.0022532926 0.20526558
vt 0.30453965 0.19561809
vt 0.29920262 0.22829223
vt 0.2978701 0.19103235
vt 0.37694129 0.45987737
vt 0.38358411 0.46581745
vt 0.37797043 0.49548048
vt 0.3765558 0.42013884
vt 0.40575323 0.49464232
vt 0.38650537 0.41650409
vt 0.41512698 0.47256655
vt 0.37661102 0.39145321
vt 0.42459264 0.49315363
vt 0.37675574 0.36629748
vt 0.41516364 0.44095558
vt 0.38845137 0.35295445
vt 0.39939883 0.38764054
vt 0.37693909 0.32166964
vt 0.41502193 0.41707462
vt 0.37880206 0.30537742
vt 0.40592906 0.3875162
vt 0.39807186 0.2925539
vt 0.40543553 0.34163016
vt 0.40116087 0.2517212
vt 0.37826771 0.23464012
vt 0.39358118 0.21714389
vt 0.38614616 0.21253163
vt 0.40485483 0.22097033
vt 0.39097881 0.19642359
vt 0.39720353 0.19776171
vt 0.40755638 0.20628995
vt 0.39324191 0.18970519
vt 0.25829932 0.35895896
vt 0.25271991 0.33521044
vt 0.272129 0.35414368
vt 0.24279438 0.34986109
vt 0.27210158 0.34306514
vt 0.24570152 0.37150425
vt 0.23566477 0.34237844
vt 0.26187202 0.31961006
vt 0.27435309 0.34897763
vt 0.24109127 0.33153284
vt 0.24853206 0.31636071
vt 0.27642006 0.35464907
vt 0.25788313 0.31077617
vt 0.25541726 0.30348271
vt 0.25476778 0.30352724
vt 0.24393082 0.30693233
vt 0.25519666 0.30228746
vt 0.23930113 0.2984482
vt 0.23925273 0.31231821
vt 0.25428742 0.2956773
vt 0.22719054 0.31413931
vt 0.25196639 0.28902262
vt 0.22196002 0.30147898
vt 0.24026833 0.32924837
vt 0.24428086 0.2809512
vt 0.21515761 0.31507427
vt 0.23168078 0.29374373
vt 0.2204136 0.32649058
vt 0.23723464 0.28682023
vt 0.24297881 0.26501185
vt 0.21489017 0.29955935
vt 0.23213385 0.34238344
vt 0.23042984 0.27669954
vt 0.20104001 0.30162358
vt 0.21269418 0.32455856
vt 0.22445187 0.33985746
vt 0.22045283 0.29118752
vt 0.23602547 0.24780232
vt 0.20077839 0.32119256
vt 0.20748575 0.33069193
vt 0.21271366 0.33819908
vt 0.21077974 0.28392959
vt 0.21281695 0.23806334
vt 0.19416101 0.30602837
vt 0.20464969 0.29793358
vt 0.22939175 0.23169881
vt 0.18805179 0.28619349
vt 0.19725546 0.23857784
vt 0.22605993 0.22619087
vt 0.1914244 0.29718536
vt 0.20306364 0.23141277
vt 0.22537512 0.22611868
vt 0.19043352 0.30847627
vt 0.19134514 0.24594688
vt 0.21097997 0.22259837
vt 0.2153134 0.22747338
vt 0.22588591 0.22581047
vt 0.18325254 0.31209725
vt 0.17660981 0.26437807
vt 0.212557 0.2210716
vt 0.16384275 0.32536155
vt 0.16527358 0.27855718
vt 0.15550157 0.29071122
vt 0.15702957 0.31242687
vt 0.15550081 0.29071319
vt 0.15314519 0.33450854
vt 0.15549889 0.29071528
vt 0.15107372 0.31986058
vt 0.14654966 0.32895392
vt 0.14085707 0.31027025
vt 0.13617581 0.33093119
vt 0.13750586 0.31420875
vt 0.13787258 0.31509447
vt 0.13151239 0.32730132
vt 0.12993069 0.33047003
vt 0.12789023 0.32821715
vt 0.12737517 0.33005869
vt 0.12938946 0.32498139
vt 0.13043696 0.32338411
vt 0.54857957 0.90660679
vt 0.54344797 0.93918645
vt 0.5282321 0.92967647
vt 0.52549493 0.87508887
vt 0.55601001 0.95342731
vt 0.53865904 0.96133769
vt 0.56059498 0.85848343
vt 0.51958185 0.90490323
vt 0.57219738 0.91494876
vt 0.5179317 0.94070959
vt 0.56136972 0.88893682
vt 0.54487181 0.8499139
vt 0.50198281 0.90354872
vt 0.58073533 0.9495613
vt 0.53729385 0.97683686
vt 0.52445006 0.95890117
vt 0.57394272 0.87792784
vt 0.53511518 0.8397122
vt 0.55596638 0.84111834
vt 0.50198221 0.89694321
vt 0.50198585 0.91691494
vt 0.50741643 0.92901242
vt 0.5816856 0.92831373
vt 0.56645995 0.96850359
vt 0.54782665 0.98895407
vt 0.52765244 0.97150457
vt 0.50587845 0.97417557
vt 0.58715469 0.84605008
vt 0.52088821 0.82093793
vt 0.54503018 0.83872443
vt 0.56815755 0.82123148
vt 0.50267267 0.85097349
vt 0.50198698 0.92633158
vt 0.50462216 0.9591822
vt 0.58218569 0.89686322
vt 0.58739847 0.91277468
vt 0.58177614 0.98409712
vt 0.56673032 0.99531341
vt 0.55587453 0.9953208
vt 0.53811407 0.99307096
vt 0.52897757 0.99172646
vt 0.52149582 0.98330688
vt 0.51602143 0.98733759
vt 0.59652048 0.86030602
vt 0.53976351 0.82061297
vt 0.55197072 0.82691133
vt 0.50197518 0.85598022
vt 0.50198716 0.94074911
vt 0.58804607 0.88551271
vt 0.59973127 0.93541771
vt 0.57333952 0.99530995
vt 0.60332447 0.98186642
vt 0.56496578 0.99531573
vt 0.5497551 0.99532253
vt 0.54551297 0.99532694
vt 0.53666061 0.99533463
vt 0.52893066 0.99533087
vt 0.50199693 0.98959947
vt 0.50199419 0.9692266
vt 0.57861811 0.81878531
vt 0.60049975 0.84787011
vt 0.50196511 0.78986818
vt 0.52510935 0.80044794
vt 0.54699385 0.79923499
vt 0.50197452 0.8531251
vt 0.50198865 0.95609683
vt 0.59223878 0.90260422
vt 0.59888536 0.90909106
vt 0.57822084 0.99530673
vt 0.58839381 0.99529767
vt 0.5468151 0.99532539
vt 0.53805536 0.99533379
vt 0.53217262 0.99533486
vt 0.5210526 0.99534267
vt 0.50199622 0.98446995
vt 0.50199765 0.9937939
vt 0.50198954 0.95832795
vt 0.50199485 0.97381651
vt 0.56367284 0.79855913
vt 0.61294758 0.87963086
vt 0.60622334 0.90078974
vt 0.5019694 0.81822735
vt 0.51487499 0.78548235
vt 0.50197446 0.85214174
vt 0.60388821 0.95904762
vt 0.59278226 0.99529552
vt 0.51126021 0.99534816
vt 0.50197417 0.85025144
vt 0.50196499 0.78868347
vt 0.52206272 0.77968949
vt 0.53334695 0.76755428
vt 0.54693651 0.7801733
vt 0.5019744 0.85142946
vt 0.61272883 0.9049992
vt 0.61404538 0.97071958
vt 0.6005612 0.99529368
vt 0.50283003 0.99535352
vt 0.620561 0.93337494
vt 0.50199789 0.99535406
vt 0.62799108 0.89590442
vt 0.51942635 0.75590652
vt 0.62044334 0.91289526
vt 0.61811501 0.99527699
vt 0.60398811 0.99528927
vt 0.52487087 0.75271147
vt 0.51545388 0.77812564
vt 0.6325838 0.92312872
vt 0.62201446 0.99527329
vt 0.52067727 0.73713303
vt 0.51454544 0.76473999
vt 0.63925582 0.97963554
vt 0.64664525 0.93547678
vt 0.5123136 0.75104064
vt 0.51156032 0.77321178
vt 0.64669394 0.95270669
vt 0.63323164 0.99526364
vt 0.50620502 0.72436816
vt 0.50479907 0.77039874
vt 0.63658893 0.9952625
vt 0.50195503 0.73051572
vt 0.50195819 0.76235646
vt 0.50195718 0.74536204
vt 0.50195313 0.72050834
vt 0.69534314 0.80547935
vt 0.71020448 0.83108312
vt 0.6921711 0.80770171
vt 0.68928707 0.79980719
vt 0.70651287 0.8101896
vt 0.691908 0.79980648
vt 0.72019124 0.83447224
vt 0.70832109 0.79979205
vt 0.69520342 0.79980308
vt 0.71516383 0.83822167
vt 0.72294152 0.8174746
vt 0.7033689 0.79979539
vt 0.72705019 0.85724199
vt 0.73755521 0.82949561
vt 0.71158016 0.79978794
vt 0.72477061 0.80111629
vt 0.74042803 0.8761946
vt 0.72462171 0.79978114
vt 0.72082317 0.79978329
vt 0.74949378 0.86752558
vt 0.72760183 0.799779
vt 0.7237848 0.7997818
vt 0.75487065 0.84705424
vt 0.752141 0.88844776
vt 0.73257917 0.79977483
vt 0.76172942 0.84093034
vt 0.75707877 0.87170196
vt 0.75886768 0.90046585
vt 0.76679808 0.85956484
vt 0.76351541 0.86971426
vt 0.76575583 0.89976764
vt 0.76337427 0.88337094
vt 0.73405296 0.79977489
vt 0.7746219 0.8518011
vt 0.76779252 0.91063428
vt 0.76041549 0.83197129
vt 0.77328426 0.87688458
vt 0.77411014 0.90933913
vt 0.79223663 0.88029063
vt 0.77652884 0.92221266
vt 0.78571337 0.90319908
vt 0.78432924 0.92345929
vt 0.78323084 0.93530762
vt 0.80525541 0.92027342
vt 0.78704977 0.94849992
vt 0.8114512 0.90835261
vt 0.82248265 0.91858369
vt 0.796947 0.96502185
vt 0.80613405 0.96483338
vt 0.79418224 0.99542123
vt 0.79045975 0.98266208
vt 0.36402255 0.96205866
vt 0.36831048 0.96605086
vt 0.36098212 0.96494049
vt 0.36776018 0.98133409
vt 0.39560834 0.96430695
vt 0.3722305 0.99151516
vt 0.38960236 0.9570365
vt 0.37432948 0.99688965
vt 0.39241847 0.99562114
vt 0.41040921 0.95643318
vt 0.44094586 0.9898802
vt 0.42654586 0.95442134
vt 0.4483946 0.95353466
vt 0.45863399 0.95670372
vt 0.46976808 0.97664392
vt 0.46900231 0.95441365
vt 0.4853965 0.98720586
vt 0.47785124 0.9550966
vt 0.87147552 0.95575613
vt 0.86008948 0.95403147
vt 0.85880226 0.94146961
vt 0.87845486 0.93821841
vt 0.8764962 0.97134537
vt 0.84866452 0.94847697
vt 0.84767574 0.91977596
vt 0.88059527 0.95565146
vt 0.84861946 0.95910877
vt 0.8496021 0.95317811
vt 0.8469376 0.94169062
vt 0.84785169 0.91448331
vt 0.84714329 0.96912205
vt 0.87226963 0.89188141
vt 0.86133355 0.99486649
vt 0.84779316 0.90769708
vt 0.88464767 0.90938634
vt 0.84737873 0.98313326
vt 0.87705767 0.9899748
vt 0.84739161 0.87560338
vt 0.8832944 0.88910663
vt 0.84744436 0.99409389
vt 0.88180208 0.98519921
vt 0.88320637 0.99638313
vt 0.84736472 0.8686434
vt 0.8780936 0.84368968
vt 0.86669385 0.85840905
vt 0.87038624 0.81450087
vt 0.84691226 0.85105181
vt 0.88506359 0.82053316
vt 0.8796187 0.80232823
vt 0.84713441 0.83183128
vt 0.87094748 0.77462286
vt 0.84737158 0.79734266
vt 0.87681931 0.7601316
vt 0.84685051 0.77856779
vt 0.86897391 0.75911462
vt 0.84526533 0.76732028
vt 0.8536464 0.7607733
vt 0.84542471 0.7593267
vt 0.60378373 0.70995766
vt 0.5957818 0.70392787
vt 0.61094552 0.69949031
vt 0.61280519 0.7139473
vt 0.58483821 0.68369806
vt 0.62323505 0.68972325
vt 0.60435635 0.72882915
vt 0.58867675 0.70413625
vt 0.62325245 0.7120465
vt 0.61664087 0.73416078
vt 0.62732095 0.67269599
vt 0.63311934 0.71233737
vt 0.61700708 0.71871901
vt 0.61058438 0.73922181
vt 0.56478822 0.6609832
vt 0.64254272 0.69633722
vt 0.63141859 0.72760314
vt 0.6257199 0.72275299
vt 0.61565787 0.74400997
vt 0.60324121 0.74145699
vt 0.56919289 0.64931923
vt 0.66413051 0.68874031
vt 0.62964875 0.73169827
vt 0.62012249 0.65863532
vt 0.66188997 0.67638063
vt 0.66562968 0.69833452
vt 0.63075763 0.74560434
vt 0.59510958 0.61351705
vt 0.64400619 0.66455048
vt 0.65961844 0.66761351
vt 0.6082598 0.61298323
vt 0.63437527 0.61595929
vt 0.61878288 0.63932085
vt 0.65883529 0.66471291
vt 0.65157491 0.61969674
vt 0.65422052 0.63561773
vt 0.054547708 0.97210383
vt 0.061525904 0.97531915
vt 0.063432537 0.99366009
vt 0.050202057 0.99683416
vt 0.0651481 0.98391789
vt 0.040675122 0.970828
vt 0.034264717 0.99177843
vt 0.023796003 0.96569031
vt 0.01762281 0.97966313
vt 0.18989949 0.9803794
vt 0.19488463 0.96818185
vt 0.20035516 0.97655779
vt 0.19669554 0.99211961
vt 0.20316954 0.96368217
vt 0.20505081 0.97365379
vt 0.19945595 0.94886559
vt 0.23447976 0.99628842
vt 0.20991226 0.9535923
vt 0.21303771 0.97222877
vt 0.68834347 0.95695543
vt 0.6776126 0.96690369
vt 0.67460304 0.95507705
vt 0.69870204 0.96331102
vt 0.66051728 0.9670524
vt 0.68516779 0.98844498
vt 0.65779775 0.99539828
vt 0.67665946 0.98173761
vt 0.67695189 0.99214953
vt 0.13325711 0.98884708
vt 0.13087352 0.96649975
vt 0.13744828 0.96606499
vt 0.13913158 0.98991823
vt 0.12447346 0.99375743
vt 0.1481867 0.96375185
vt 0.14270078 0.97320074
vt 0.12472491 0.96855032
vt 0.11150637 0.97551262
vt 0.11321686 0.99619716
vt 0.015324291 0.99548995
vt 0.010935987 0.9864856
vt 0.013641676 0.96855348
vt 0.005520558 0.982701
vt 0.008337453 0.96837652
vt 0.0018142863 0.9614476
vt 0.0071558235 0.93599677
vt 0.0039588548 0.94167835
vt 0.15727808 0.95386708
vt 0.15942548 0.96829081
vt 0.1565707 0.97696584
vt 0.14876512 0.96471822
vt 0.14985716 0.97586906
vt 0.14782429 0.9880625
vt 0.15227836 0.98243785
vt 0.15357509 0.99619585
vt 0.1474852 0.98285687
vt 0.14282073 0.98009223
vt 0.14818461 0.99195039
vt 0.064735219 0.97278661
vt 0.07251174 0.9772858
vt 0.065002553 0.99650192
vt 0.075489886 0.96529597
vt 0.076612167 0.97836566
vt 0.077664196 0.9531585
vt 0.065712586 0.95800972
vt 0.085071422 0.95720422
vt 0.086074807 0.96755004
vt 0.17857355 0.98900551
vt 0.17069477 0.99560285
vt 0.15830946 0.98403388
vt 0.24022575 0.95584488
vt 0.23965253 0.96392584
vt 0.23704885 0.96186227
vt 0.23913558 0.95631975
vt 0.24391337 0.95888656
vt 0.23687817 0.97746485
vt 0.23953018 0.95552516
vt 0.24847743 0.98647928
vt 0.23685293 0.98943913
vt 0.24856834 0.98456138
vt 0.24009378 0.98413068
vt 0.24890496 0.98572046
vt 0.23944965 0.99513459
vt 0.23611581 0.99529034
vt 0.29968029 0.99276763
vt 0.29021364 0.97252655
vt 0.30320847 0.97370881
vt 0.30308753 0.97720128
vt 0.29304707 0.99578893
vt 0.30254766 0.99399352
vt 0.28935385 0.98954153
vt 0.28282467 0.98043746
vt 0.25839812 0.97470975
vt 0.26344118 0.99481595
vt 0.25412264 0.97925138
vt 0.25227717 0.97837716
vt 0.26905328 0.98416233
vt 0.25991017 0.99585015
vt 0.25642514 0.98811305
vt 0.64952976 0.98742294
vt 0.65747523 0.99533081
vt 0.64581287 0.99362987
vt 0.65039378 0.96928716
vt 0.64274991 0.99149764
vt 0.65927309 0.96853852
vt 0.64229828 0.96985477
vt 0.28081816 0.98865288
vt 0.28171712 0.97486717
vt 0.28381455 0.99303025
vt 0.27489454 0.99544942
vt 0.26788461 0.98803914
vt 0.49983719 0.99579537
vt 0.4866803 0.99666297
vt 0.49341634 0.96551287
vt 0.34168395 0.99568194
vt 0.33793283 0.97411186
vt 0.34488067 0.97248185
vt 0.34720147 0.99200666
vt 0.34851354 0.98382592
vt 0.35194811 0.97058189
vt 0.34883088 0.98536587
vt 0.70810974 0.96840757
vt 0.71854508 0.9816699
vt 0.71259838 0.99682969
vt 0.7046451 0.97624063
vt 0.74167067 0.97532696
vt 0.73926675 0.99538714
vt 0.73071277 0.98647851
vt 0.72847158 0.96974522
vt 0.72895414 0.99542499
vt 0.74956018 0.99586129
vt 0.74393678 0.98325402
vt 0.74709749 0.97058362
vt 0.75730133 0.97359759
vt 0.76139575 0.99587435
vt 0.76557791 0.97679609
vt 0.77167797 0.99618155
vt 0.75999624 0.97980976
vt 0.77216846 0.97538567
vt 0.086872794 0.97243005
vt 0.086243689 0.99573791
vt 0.079881102 0.97975111
vt 0.36304691 0.97242934
vt 0.35369921 0.98177934
vt 0.35523987 0.97547698
vt 0.36412793 0.9951576
vt 0.70080042 0.98229301
vt 0.69645238 0.99700904
vt 0.68901235 0.98360109
vt 0.69416732 0.97489274
vt 0.7749483 0.97507346
vt 0.78690112 0.97534579
vt 0.77878052 0.99696302
vt 0.78089976 0.99663204
vt 0.33335808 0.99663204
vt 0.32985908 0.98491502
vt 0.33930948 0.97507346
vt 0.077815227 0.99695528
vt 0.075727344 0.98885202
vt 0.08025071 0.97401285
vt 0.80683583 0.98160577
vt 0.81482005 0.97581613
vt 0.81602204 0.99580717
vt 0.80811286 0.99663121
vt 0.72672439 0.97661334
vt 0.72501552 0.99673378
vt 0.72104865 0.98613107
vt 0.7308597 0.98760587
vt 0.093892761 0.99693757
vt 0.087969162 0.97615582
vt 0.093243495 0.98902595
vt 0.093379296 0.98759216
vt 0.020278458 0.99610901
vt 0.025078584 0.983549
vt 0.02605729 0.98583823
vt 0.021402195 0.99585867
vt 0.022910772 0.98444861
vt 0.019940421 0.9944796
vt 0.021321088 0.98608565
vt 0.01799982 0.99514854
vt 0.23745292 0.98528302
vt 0.23653898 0.99024147
vt 0.22913587 0.98321921
vt 0.232509 0.99517322
vt 0.22905457 0.98730552
vt 0.22880006 0.98342723
vt 0.75208884 0.99374902
vt 0.75999784 0.9899686
vt 0.75184405 0.99599332
vt 0.75691152 0.9803226
vt 0.11065812 0.99001461
vt 0.10939318 0.98337579
vt 0.11255074 0.98344052
vt 0.10836365 0.99609804
vt 0.10726441 0.98758054
vt 0.068551853 0.99214303
vt 0.073280804 0.99107981
vt 0.070536286 0.99629229
vt 0.072779357 0.99702406
vt 0.14539212 0.99281526
vt 0.14264528 0.98814517
vt 0.14530262 0.98923135
vt 0.14345685 0.99306792
vt 0.14554504 0.99618542
vt 0.0022821138 0.99376315
vt 0.0045222891 0.99242473
vt 0.004899533 0.99521512
vt 0.0056774062 0.99380714
vt 0.0094608953 0.99577808
vt 0.0054557086 0.99032247
vt 0.0098232925 0.99091959
usemtl Tile_+032_+021_L19_000031_0
f 368/541 347/542 379/543
f 668/643 319/638 669/648
f 338/203 341/204 42/205
f 334/1 332/2 433/3
f 411/664 173/665 335/666
f 409/907 406/908 408/909
f 441/837 413/838 326/839
f 171/121 473/122 466/123
f 465/133 464/142 170/129
f 402/163 401/154 403/139
f 412/773 327/774 417/775
f 441/792 440/786 454/791
f 453/781 458/790 451/785
f 452/782 455/795 454/791
f 414/147 327/162 413/172
f 329/933 456/934 457/935
f 473/122 472/126 466/123
f 452/782 458/790 455/795
f 584/671 411/664 585/675
f 587/715 335/716 589/717
f 471/189 461/193 462/166
f 418/929 469/930 470/931
f 465/133 463/140 464/142
f 471/189 418/181 479/195
f 471/189 462/166 469/183
f 474/196 471/189 480/198
f 469/183 462/166 467/176
f 471/189 469/183 418/181
f 470/931 449/932 418/929
f 470/938 469/939 467/940
f 449/941 470/938 467/940
f 455/795 458/790 457/789
f 125/124 416/128 171/121
f 329/148 463/140 416/128
f 463/140 328/155 462/166
f 329/148 328/155 463/140
f 454/841 456/846 329/845
f 468/130 459/127 466/123
f 468/130 472/126 168/136
f 472/126 468/130 466/123
f 459/855 468/856 168/857
f 449/174 467/176 328/155
f 459/855 168/857 124/858
f 125/124 466/123 459/127
f 463/140 465/133 416/128
f 35/150 170/129 593/157
f 170/129 171/121 465/133
f 583/182 462/166 596/187
f 591/156 463/140 597/167
f 598/177 460/175 599/186
f 463/140 462/166 460/175
f 170/129 464/142 592/151
f 602/197 477/199 664/200
f 600/192 461/193 602/197
f 443/793 446/783 399/787
f 397/43 404/53 405/69
f 444/778 417/775 400/777
f 157/21 159/11 399/16
f 125/124 459/127 124/131
f 400/777 399/787 446/783
f 443/8 399/16 159/11
f 433/3 438/5 443/8
f 159/11 430/7 433/3
f 443/793 437/800 447/796
f 434/803 435/805 447/796
f 447/796 435/805 436/804
f 447/796 446/783 443/793
f 482/794 446/783 483/797
f 446/783 444/778 400/777
f 444/778 448/784 453/781
f 450/776 417/775 444/778
f 419/788 444/778 446/783
f 452/782 451/785 458/790
f 453/781 450/776 444/778
f 454/841 329/845 415/844
f 419/165 449/174 328/155
f 448/173 419/165 329/148
f 447/796 436/804 445/801
f 446/783 447/796 445/801
f 484/802 445/801 485/806
f 445/801 436/804 486/807
f 412/843 442/840 326/839
f 416/128 414/147 329/148
f 458/790 453/781 457/789
f 453/781 448/784 457/789
f 452/782 442/779 450/776
f 440/786 442/779 452/782
f 419/788 448/784 444/778
f 448/936 329/933 457/935
f 329/148 419/165 328/155
f 457/935 456/934 455/937
f 454/791 455/795 456/799
f 454/791 440/786 452/782
f 454/841 415/844 413/838
f 450/776 412/773 417/775
f 414/147 416/128 403/139
f 450/776 451/785 452/782
f 412/773 450/776 442/779
f 407/942 420/943 410/944
f 442/840 441/837 326/839
f 442/779 440/786 441/792
f 436/804 435/805 434/803
f 436/46 428/35 427/56
f 332/2 429/9 438/5
f 334/1 433/3 431/4
f 28/14 27/10 431/4
f 324/211 426/238 425/227
f 439/13 437/17 443/8
f 422/228 429/242 332/221
f 432/828 156/829 28/830
f 431/4 152/6 334/1
f 425/227 330/253 429/242
f 434/27 437/17 330/22
f 436/46 427/56 488/73
f 434/27 428/35 436/46
f 330/22 428/35 434/27
f 156/829 432/828 430/831
f 152/243 139/222 334/231
f 432/12 431/4 430/7
f 433/3 332/2 438/5
f 437/17 439/13 429/9
f 330/22 437/17 429/9
f 422/228 341/204 423/218
f 429/9 439/13 438/5
f 429/242 422/228 424/239
f 429/242 424/239 425/227
f 427/263 428/264 421/252
f 427/263 421/252 490/258
f 331/248 330/253 425/227
f 425/227 426/238 331/248
f 428/264 330/253 421/252
f 421/252 426/238 395/247
f 490/258 395/247 492/262
f 324/211 425/227 423/218
f 423/218 425/227 424/239
f 331/248 426/238 421/252
f 333/214 24/208 341/204
f 341/204 422/228 332/221
f 128/26 400/33 397/43
f 420/943 407/942 405/945
f 409/907 408/909 403/910
f 410/944 420/943 402/946
f 402/913 403/910 410/911
f 406/97 407/107 408/113
f 407/107 410/117 408/113
f 403/910 406/908 409/907
f 403/910 396/912 406/908
f 405/69 407/107 406/97
f 398/132 396/146 403/139
f 131/144 398/132 133/138
f 405/69 406/97 396/83
f 400/33 404/53 397/43
f 396/83 397/43 405/69
f 128/26 157/21 399/16
f 400/33 128/26 399/16
f 397/43 398/67 131/45
f 327/774 401/780 400/777
f 396/83 398/67 397/43
f 128/26 397/43 131/45
f 404/53 420/85 405/69
f 327/774 400/777 417/775
f 418/181 419/165 494/185
f 450/776 453/781 451/785
f 414/147 403/139 401/154
f 414/147 401/154 327/162
f 403/139 416/128 398/132
f 413/838 441/837 454/841
f 415/164 329/148 414/147
f 327/842 326/839 413/838
f 398/132 416/128 125/124
f 493/257 336/246 496/261
f 342/556 345/550 348/546
f 357/236 374/245 325/226
f 324/211 336/246 395/247
f 42/205 341/204 24/208
f 503/251 337/237 504/255
f 387/641 310/649 388/645
f 385/567 342/556 343/583
f 350/576 318/563 369/549
f 373/544 386/569 372/558
f 387/641 388/645 389/631
f 508/602 323/572 509/622
f 311/267 309/260 310/259
f 358/604 371/585 390/603
f 315/607 359/608 350/576
f 323/572 386/569 373/544
f 673/614 362/581 678/597
f 374/632 357/619 358/604
f 675/610 393/592 681/626
f 385/567 343/583 511/598
f 510/616 343/583 672/627
f 393/592 391/625 392/635
f 352/575 350/576 369/549
f 366/577 317/554 393/592
f 316/580 394/565 671/595
f 365/564 366/577 683/591
f 394/565 316/580 349/555
f 303/545 365/564 685/578
f 348/546 349/555 364/566
f 10/640 8/647 377/642
f 314/589 352/575 376/557
f 317/554 365/564 303/545
f 369/549 318/563 317/554
f 303/545 348/546 347/542
f 368/541 369/549 303/545
f 376/557 352/575 369/549
f 308/547 370/551 368/541
f 357/619 355/571 358/604
f 313/590 319/638 392/635
f 320/634 377/642 319/638
f 364/566 349/555 362/581
f 313/590 391/625 393/592
f 392/635 391/625 313/590
f 358/604 389/631 374/632
f 389/631 321/630 387/641
f 381/892 384/893 515/894
f 386/569 384/623 390/603
f 389/631 390/603 321/630
f 373/544 367/548 518/553
f 345/550 379/543 348/546
f 346/574 385/567 513/599
f 385/567 345/550 342/556
f 368/541 379/543 373/544
f 367/548 344/562 520/573
f 380/653 381/658 497/661
f 383/654 381/658 382/650
f 380/653 382/650 381/658
f 386/569 371/585 372/558
f 308/547 376/557 370/551
f 373/544 379/543 367/548
f 361/570 371/585 354/586
f 361/570 360/552 372/558
f 380/653 311/657 310/649
f 380/653 310/649 387/641
f 384/893 322/898 321/899
f 374/245 389/250 337/237
f 322/646 383/654 382/650
f 387/641 382/650 380/653
f 322/898 384/893 383/896
f 387/641 322/646 382/650
f 309/260 311/267 499/268
f 504/255 309/260 526/265
f 324/211 340/207 375/212
f 338/203 339/209 375/212
f 375/212 339/209 378/225
f 325/226 375/212 357/236
f 356/235 375/212 378/225
f 371/585 361/570 372/558
f 353/568 306/584 376/557
f 10/215 304/224 339/209
f 315/607 350/576 352/575
f 378/225 339/209 305/234
f 351/233 304/224 10/215
f 356/600 353/568 355/571
f 356/235 357/236 375/212
f 361/570 307/559 360/552
f 308/547 353/568 376/557
f 307/559 308/547 360/552
f 368/541 373/544 308/547
f 372/558 360/552 373/544
f 371/585 358/604 354/586
f 357/619 356/600 355/571
f 308/547 307/559 355/571
f 353/568 308/547 355/571
f 358/604 355/571 354/586
f 353/244 378/225 305/234
f 351/620 312/621 306/584
f 10/640 377/642 320/634
f 314/589 315/607 352/575
f 10/640 320/634 351/620
f 313/590 317/554 350/576
f 350/576 359/608 313/590
f 349/555 348/546 303/545
f 347/542 348/546 379/543
f 368/541 370/551 369/549
f 385/567 346/574 345/550
f 379/543 345/550 367/548
f 9/651 319/638 8/647
f 669/648 9/651 688/656
f 365/564 317/554 366/577
f 364/566 362/581 363/582
f 342/556 364/566 363/582
f 343/583 363/582 362/581
f 342/556 363/582 343/583
f 344/562 345/550 346/574
f 395/247 426/238 324/211
f 340/207 324/211 341/204
f 375/212 340/207 338/203
f 338/203 42/205 7/206
f 336/246 324/211 337/237
f 466/123 125/124 171/121
f 173/665 411/664 174/668
f 431/4 27/10 152/6
f 431/4 432/12 28/14
f 424/239 422/228 423/218
f 439/13 443/8 438/5
f 181/719 35/723 595/722
f 416/128 465/133 171/121
f 590/718 181/719 603/720
f 173/721 181/719 335/716
f 328/155 467/176 462/166
f 418/181 449/174 419/165
f 473/122 171/121 172/125
f 172/125 472/126 473/122
f 401/68 402/84 404/53
f 400/33 401/68 404/53
f 159/11 433/3 443/8
f 430/831 159/833 156/829
f 139/222 333/214 334/231
f 437/800 434/803 447/796
f 433/3 430/7 431/4
f 332/221 334/231 333/214
f 331/248 421/252 330/253
f 341/204 338/203 340/207
f 341/204 332/221 333/214
f 408/909 410/911 403/910
f 402/84 420/85 404/53
f 413/172 415/164 414/147
f 327/842 412/843 326/839
f 8/647 319/638 377/642
f 337/237 325/226 374/245
f 310/259 337/237 388/254
f 386/569 390/603 371/585
f 7/206 10/215 339/209
f 676/579 303/545 686/593
f 317/554 313/590 393/592
f 320/634 319/638 313/590
f 349/555 316/580 689/596
f 680/636 392/635 687/644
f 351/233 305/234 304/224
f 317/554 318/563 350/576
f 369/549 370/551 376/557
f 364/566 342/556 348/546
f 314/589 312/621 315/607
f 306/584 314/589 376/557
f 313/590 312/621 320/634
f 317/554 303/545 369/549
f 381/892 383/896 384/893
f 323/572 373/544 519/560
f 390/603 384/623 321/630
f 394/565 349/555 303/545
f 384/623 386/569 508/602
f 507/660 380/653 524/662
f 387/641 321/630 322/646
f 390/603 389/631 358/604
f 389/250 388/254 337/237
f 337/237 310/259 309/260
f 361/570 354/586 307/559
f 375/212 325/226 324/211
f 7/206 339/209 338/203
f 305/234 339/209 304/224
f 313/590 359/608 312/621
f 356/235 378/225 353/244
f 360/552 308/547 373/544
f 307/559 354/586 355/571
f 312/621 359/608 315/607
f 306/584 353/568 305/601
f 305/601 351/620 306/584
f 306/584 312/621 314/589
f 351/620 320/634 312/621
f 303/545 347/542 368/541
f 678/597 349/555 690/613
f 367/548 345/550 344/562
f 521/588 346/574 527/606
f 423/218 341/204 324/211
f 325/226 337/237 324/211
f 208/25 205/40 206/31
f 26/733 140/734 22/735
f 533/878 302/879 606/880
f 243/703 257/701 259/705
f 254/325 252/326 183/327
f 262/351 256/359 265/366
f 300/462 281/463 279/464
f 273/503 270/504 278/494
f 201/63 200/62 198/49
f 250/332 263/338 252/326
f 215/110 214/91 240/114
f 208/25 198/49 205/40
f 198/49 200/62 205/40
f 144/42 151/58 189/52
f 293/482 274/484 75/479
f 219/271 79/272 224/273
f 298/866 299/867 46/868
f 68/296 67/301 58/299
f 263/434 59/435 70/436
f 246/707 70/710 235/712
f 229/377 221/371 230/386
f 64/702 191/709 246/707
f 57/446 69/450 58/448
f 63/339 253/333 263/338
f 127/919 244/920 193/921
f 204/316 240/318 245/313
f 193/818 192/819 260/820
f 265/366 255/373 228/378
f 262/443 265/447 61/445
f 544/298 68/296 545/293
f 256/359 264/343 268/350
f 64/702 258/704 176/700
f 183/327 251/330 184/334
f 82/341 87/335 183/327
f 74/486 75/479 294/490
f 75/479 74/486 546/483
f 548/294 282/292 549/295
f 283/415 222/405 276/422
f 298/866 283/872 301/871
f 222/405 298/410 46/393
f 270/504 273/503 609/509
f 75/479 55/488 294/490
f 550/491 278/494 551/499
f 271/885 302/879 534/882
f 283/415 298/410 222/405
f 294/490 278/494 74/486
f 302/879 272/888 611/886
f 556/466 281/463 557/469
f 609/509 285/508 613/515
f 299/867 298/866 291/869
f 223/458 280/461 73/459
f 300/462 73/465 281/463
f 557/469 283/472 559/474
f 220/276 72/274 232/279
f 298/866 301/871 291/869
f 44/455 45/456 223/458
f 291/968 275/969 222/970
f 292/489 295/487 293/482
f 291/485 293/482 275/480
f 222/970 299/971 291/968
f 222/950 45/951 299/952
f 551/499 270/504 560/507
f 615/521 270/504 616/516
f 222/405 275/428 276/422
f 71/498 278/494 294/490
f 41/390 286/396 221/371
f 287/511 285/508 290/506
f 71/498 273/503 278/494
f 223/493 292/489 291/485
f 41/847 43/848 284/849
f 289/402 288/411 108/406
f 65/809 296/810 287/811
f 285/508 287/511 289/514
f 108/406 288/411 77/416
f 289/431 41/432 284/433
f 295/487 110/496 109/501
f 286/396 289/402 108/406
f 108/406 47/407 286/396
f 286/396 41/390 289/402
f 44/455 72/457 224/453
f 218/399 231/400 47/407
f 71/815 54/814 290/812
f 223/493 76/497 292/489
f 76/497 297/502 292/489
f 288/411 109/424 77/416
f 109/501 288/500 295/487
f 77/416 109/424 297/429
f 292/489 297/502 110/496
f 295/487 288/500 65/495
f 273/503 71/498 290/506
f 295/487 292/489 110/496
f 274/484 293/482 295/487
f 296/505 65/495 288/500
f 291/869 280/873 223/874
f 291/869 301/871 280/873
f 285/508 284/519 104/522
f 285/508 273/503 290/506
f 289/813 287/811 296/810
f 54/492 274/484 295/487
f 65/809 290/812 54/814
f 232/467 73/465 300/462
f 55/488 75/479 274/484
f 280/468 301/471 281/463
f 232/279 300/283 220/276
f 220/276 300/283 279/287
f 281/463 301/471 283/472
f 75/479 275/480 293/482
f 549/295 279/287 554/297
f 233/289 220/276 279/287
f 75/479 277/476 276/477
f 283/472 277/476 530/475
f 529/478 75/479 547/481
f 283/472 276/477 277/476
f 275/480 75/479 276/477
f 285/508 104/522 617/523
f 269/890 272/888 271/885
f 221/371 229/377 267/372
f 70/352 191/354 63/339
f 183/327 91/331 89/328
f 249/329 252/326 254/325
f 251/330 183/327 252/326
f 246/707 259/705 64/702
f 184/334 251/330 63/339
f 64/702 176/700 266/697
f 176/700 187/693 182/692
f 266/697 176/700 182/692
f 266/697 178/689 177/699
f 64/345 266/353 184/334
f 184/334 266/353 177/344
f 267/372 80/376 221/371
f 221/371 81/349 97/365
f 90/342 81/349 89/328
f 221/371 97/365 99/375
f 81/349 268/350 89/328
f 183/327 89/328 254/325
f 81/349 256/359 268/350
f 267/372 256/359 81/349
f 256/359 267/372 229/377
f 89/328 268/350 264/343
f 262/351 261/337 264/343
f 263/434 250/437 59/435
f 262/351 264/343 256/359
f 261/441 262/443 60/439
f 250/437 261/441 60/439
f 262/443 61/445 60/439
f 60/439 59/435 250/437
f 545/293 69/290 561/288
f 196/305 248/303 67/301
f 195/315 199/314 203/308
f 256/359 255/373 265/366
f 62/275 219/271 227/277
f 62/275 79/272 219/271
f 57/446 60/439 61/445
f 264/343 261/337 89/328
f 248/303 56/306 58/299
f 229/377 228/378 255/373
f 229/377 255/373 256/359
f 261/337 249/329 89/328
f 56/444 245/440 60/439
f 56/306 203/308 236/311
f 245/313 56/306 236/311
f 63/339 251/330 253/333
f 263/338 253/333 252/326
f 70/352 63/339 263/338
f 261/337 250/332 249/329
f 248/303 196/305 203/308
f 67/301 248/303 58/299
f 56/306 248/303 203/308
f 239/823 242/826 247/827
f 236/311 204/316 245/313
f 260/820 192/819 238/822
f 214/91 247/102 242/109
f 145/36 143/47 150/57
f 127/184 241/169 244/178
f 259/705 193/706 243/703
f 259/705 257/701 258/704
f 49/698 186/694 257/701
f 214/91 141/59 247/102
f 176/700 258/704 257/701
f 49/728 48/729 185/725
f 243/703 49/698 257/701
f 52/695 176/700 186/694
f 239/823 247/827 141/825
f 185/158 241/169 119/141
f 185/725 48/729 244/731
f 240/114 204/118 215/110
f 240/114 214/91 242/109
f 127/821 260/820 239/823
f 239/823 260/820 238/822
f 242/826 239/823 238/822
f 59/435 245/440 235/438
f 237/711 246/707 235/712
f 197/61 209/66 149/81
f 242/714 237/711 240/713
f 235/438 245/440 240/442
f 237/711 235/712 240/713
f 246/707 237/711 192/708
f 259/705 258/704 64/702
f 193/732 244/731 48/729
f 259/705 246/707 192/708
f 64/345 63/339 191/354
f 246/707 191/709 70/710
f 149/81 213/106 197/61
f 70/436 59/435 235/438
f 228/378 225/387 226/388
f 230/386 234/392 231/400
f 226/388 46/393 78/382
f 231/400 218/399 230/386
f 218/399 225/387 230/386
f 78/382 265/366 228/378
f 221/371 99/375 95/381
f 99/375 97/365 98/370
f 619/391 95/381 620/384
f 231/400 234/392 221/371
f 221/371 234/392 230/386
f 228/378 229/377 225/387
f 78/382 228/378 226/388
f 542/281 219/271 562/278
f 78/449 46/454 224/453
f 219/271 224/273 72/274
f 76/423 223/421 47/407
f 218/953 45/951 222/950
f 221/371 94/385 41/390
f 221/371 286/396 231/400
f 219/271 72/274 220/276
f 226/388 225/387 218/399
f 231/400 286/396 47/407
f 220/276 233/289 563/286
f 46/393 226/388 218/399
f 215/110 204/118 199/115
f 201/63 198/49 565/94
f 149/81 212/108 213/106
f 214/91 215/110 211/101
f 197/61 213/106 215/110
f 206/31 155/15 208/25
f 210/875 216/876 208/877
f 211/101 215/110 212/108
f 142/74 214/91 211/101
f 149/81 211/101 212/108
f 215/110 213/106 212/108
f 199/115 197/61 215/110
f 141/59 214/91 142/74
f 149/81 209/66 189/52
f 142/74 211/101 149/81
f 163/914 150/915 189/916
f 189/52 150/57 149/81
f 209/66 210/32 189/52
f 147/20 210/32 208/25
f 216/82 210/32 209/66
f 155/15 147/20 208/25
f 216/82 217/75 208/25
f 217/75 197/61 208/25
f 217/75 216/82 209/66
f 197/61 217/75 209/66
f 695/79 206/31 697/64
f 697/64 202/50 698/78
f 202/50 205/40 201/63
f 202/50 201/63 566/77
f 568/105 202/50 569/95
f 201/63 205/40 200/62
f 197/61 199/115 538/111
f 567/76 197/61 571/92
f 208/25 197/61 198/49
f 539/319 195/315 572/322
f 573/312 203/308 574/310
f 204/316 236/311 199/314
f 203/308 199/314 236/311
f 574/310 196/305 576/309
f 194/317 195/315 573/312
f 112/171 121/159 160/180
f 40/850 101/851 284/849
f 259/705 192/708 193/706
f 180/686 178/689 182/692
f 202/50 206/31 205/40
f 34/676 33/677 31/680
f 176/700 257/701 186/694
f 166/149 169/134 123/135
f 622/696 178/689 623/688
f 168/136 472/126 169/134
f 133/138 134/152 131/144
f 29/28 143/47 145/36
f 156/829 158/835 30/834
f 141/825 127/821 239/823
f 155/15 154/24 138/19
f 26/733 25/737 140/734
f 24/208 136/220 23/213
f 238/822 237/824 242/826
f 115/54 114/44 129/34
f 163/914 189/916 151/917
f 167/922 169/923 166/924
f 127/184 122/170 241/169
f 117/972 116/973 132/974
f 159/833 158/835 156/829
f 111/70 130/55 132/89
f 125/124 118/143 117/145
f 117/145 133/138 125/124
f 36/674 174/668 584/671
f 33/677 36/674 190/679
f 33/677 190/679 627/681
f 180/686 182/692 187/693
f 178/689 266/697 182/692
f 623/688 33/677 628/684
f 35/150 185/158 119/141
f 34/724 35/723 181/719
f 178/689 180/686 33/677
f 190/679 36/674 624/678
f 34/676 181/673 37/670
f 33/677 180/686 179/683
f 52/695 187/693 176/700
f 179/683 51/690 66/687
f 187/693 51/690 180/686
f 32/691 186/694 49/698
f 51/690 179/683 180/686
f 32/691 66/687 186/694
f 179/683 31/680 33/677
f 31/680 179/683 66/687
f 86/336 91/331 87/335
f 177/344 82/341 188/340
f 91/331 183/327 87/335
f 184/334 188/340 183/327
f 87/335 82/341 175/347
f 173/665 174/668 37/670
f 82/341 177/344 621/360
f 36/674 37/670 174/668
f 181/673 173/665 37/670
f 172/125 170/129 123/135
f 172/125 171/121 170/129
f 472/126 172/125 169/134
f 169/134 172/125 123/135
f 167/862 165/861 168/857
f 168/857 165/861 164/859
f 169/947 167/948 168/949
f 118/143 120/137 123/135
f 167/862 84/865 162/860
f 166/924 84/925 167/922
f 167/862 162/860 165/861
f 166/924 161/926 84/925
f 165/861 162/860 161/863
f 162/962 164/963 120/964
f 124/858 164/859 162/860
f 164/859 165/861 161/863
f 161/863 120/864 164/859
f 124/858 168/857 164/859
f 166/149 123/135 120/137
f 127/86 141/59 114/44
f 119/141 123/135 170/129
f 170/129 35/150 119/141
f 126/71 127/86 114/44
f 162/976 120/977 83/978
f 83/978 161/979 162/976
f 166/924 120/927 161/926
f 115/54 160/88 126/71
f 132/89 116/99 111/70
f 129/34 111/70 115/54
f 114/44 141/59 30/37
f 142/74 143/47 141/59
f 157/21 129/34 114/44
f 157/21 128/26 129/34
f 30/834 158/835 157/836
f 30/834 146/832 156/829
f 159/833 157/836 158/835
f 163/914 151/917 145/918
f 156/829 146/832 28/830
f 135/30 138/19 154/24
f 137/747 153/751 154/756
f 24/208 333/214 139/222
f 150/915 163/914 145/918
f 144/42 145/36 151/58
f 30/37 141/59 143/47
f 27/10 28/14 148/18
f 147/20 148/18 29/28
f 29/28 148/18 146/23
f 210/32 147/20 144/42
f 142/74 150/57 143/47
f 150/57 142/74 149/81
f 145/36 144/42 147/20
f 703/39 154/24 704/29
f 153/751 135/755 154/756
f 704/29 155/15 705/38
f 152/6 27/10 155/15
f 155/15 138/19 152/6
f 28/14 146/23 148/18
f 27/10 148/18 147/20
f 155/15 27/10 147/20
f 155/15 206/31 694/41
f 29/28 145/36 147/20
f 25/241 50/230 136/220
f 25/737 135/755 153/751
f 1/219 23/213 21/229
f 20/746 21/736 706/744
f 708/738 140/734 709/742
f 21/736 50/740 26/733
f 22/735 21/736 26/733
f 136/220 50/230 23/213
f 136/220 24/208 139/222
f 710/741 25/737 711/745
f 711/745 137/747 712/750
f 136/220 139/222 138/240
f 25/737 153/751 137/747
f 135/249 25/241 136/220
f 117/145 118/143 113/161
f 116/973 117/972 113/975
f 116/99 113/98 111/70
f 111/70 113/98 112/87
f 160/88 115/54 112/87
f 130/954 134/955 133/956
f 129/34 130/55 111/70
f 131/45 130/55 129/34
f 112/171 113/161 118/143
f 121/159 126/179 160/180
f 132/957 130/954 133/956
f 133/138 117/145 132/153
f 129/34 128/26 131/45
f 126/71 114/44 115/54
f 115/54 111/70 112/87
f 122/170 127/184 126/179
f 125/124 124/131 120/137
f 120/958 124/959 84/960
f 162/961 84/960 124/959
f 119/141 118/143 123/135
f 126/179 121/159 122/170
f 119/141 122/170 121/159
f 118/143 121/159 112/171
f 398/132 125/124 133/138
f 125/124 120/137 118/143
f 121/159 118/143 119/141
f 253/333 251/330 252/326
f 90/342 88/358 81/349
f 65/495 54/492 295/487
f 100/408 103/412 106/418
f 290/812 65/809 287/811
f 8/647 6/652 93/655
f 77/416 47/407 108/406
f 43/848 40/850 284/849
f 100/852 106/854 104/853
f 101/851 100/852 104/853
f 105/529 39/534 634/533
f 284/849 101/851 104/853
f 103/412 14/420 104/425
f 39/534 53/532 17/535
f 105/529 13/530 53/532
f 105/529 107/525 14/527
f 107/525 105/529 637/528
f 39/534 105/529 53/532
f 17/535 53/532 16/536
f 632/537 16/536 639/538
f 15/980 38/981 640/982
f 642/1007 17/1008 643/1009
f 17/988 38/989 39/990
f 13/530 105/529 14/527
f 95/381 102/398 644/395
f 40/850 100/852 101/851
f 10/640 6/652 8/647
f 103/412 100/408 18/397
f 12/409 18/397 646/404
f 53/900 11/901 38/902
f 41/390 94/385 18/397
f 620/384 99/375 650/379
f 650/379 98/370 651/383
f 97/365 88/358 98/370
f 94/385 95/381 645/389
f 92/765 93/769 6/767
f 9/771 93/769 92/765
f 19/760 92/765 5/763
f 92/765 19/760 713/766
f 5/763 7/762 19/760
f 7/762 3/758 19/760
f 1/219 2/216 42/205
f 715/757 20/746 717/752
f 20/746 1/749 21/736
f 2/753 20/746 3/758
f 2/216 4/210 42/205
f 88/358 97/365 81/349
f 86/336 85/348 90/342
f 86/336 90/342 89/328
f 98/370 88/358 654/374
f 86/336 87/335 608/346
f 85/348 86/336 657/355
f 84/965 83/966 120/967
f 84/925 161/926 83/928
f 80/376 267/372 81/349
f 195/315 194/317 537/321
f 62/452 61/445 79/451
f 78/449 79/451 61/445
f 95/381 94/385 221/371
f 575/307 67/301 579/304
f 69/450 57/446 61/445
f 250/332 252/326 249/329
f 51/690 52/695 66/687
f 289/514 284/519 285/508
f 47/407 77/416 76/423
f 272/888 302/879 271/885
f 279/287 282/292 233/289
f 73/465 280/468 281/463
f 46/868 299/867 45/870
f 73/459 44/455 223/458
f 72/457 44/455 73/459
f 292/489 293/482 291/485
f 104/522 14/527 107/525
f 73/459 232/460 72/457
f 297/429 76/423 77/416
f 297/502 109/501 110/496
f 294/817 55/816 71/815
f 289/402 296/417 288/411
f 54/814 71/815 55/816
f 274/484 54/492 55/488
f 13/904 11/901 53/900
f 611/886 269/890 614/891
f 270/504 271/513 531/510
f 271/513 270/504 269/517
f 188/340 184/334 177/344
f 221/371 80/376 81/349
f 62/275 227/277 580/280
f 561/288 62/275 581/284
f 61/445 265/447 78/449
f 62/452 69/450 61/445
f 69/290 68/296 58/299
f 254/325 89/328 249/329
f 60/439 245/440 59/435
f 56/444 60/439 57/446
f 57/446 58/448 56/444
f 237/824 238/822 192/819
f 260/820 127/821 193/818
f 243/730 193/732 48/729
f 48/729 49/728 243/730
f 241/169 122/170 119/141
f 244/178 241/169 185/158
f 229/377 230/386 225/387
f 562/278 220/276 564/282
f 218/399 222/405 46/393
f 218/399 47/407 45/414
f 223/421 45/414 47/407
f 46/454 45/456 44/455
f 46/454 44/455 224/453
f 1/219 42/205 23/213
f 693/51 207/65 696/80
f 144/42 189/52 210/32
f 32/727 49/728 185/725
f 185/725 34/724 31/726
f 51/690 187/693 52/695
f 30/37 29/28 146/23
f 50/230 21/229 23/213
f 131/45 134/72 130/55
f 607/356 175/347 659/361
f 36/674 33/677 37/670
f 52/695 186/694 66/687
f 185/725 35/723 34/724
f 34/676 37/670 33/677
f 89/328 91/331 86/336
f 183/327 188/340 82/341
f 184/334 63/339 64/345
f 185/725 31/726 32/727
f 66/687 32/691 31/680
f 175/347 82/341 629/357
f 114/44 30/37 157/21
f 152/243 138/240 139/222
f 138/240 135/249 136/220
f 143/47 29/28 30/37
f 42/205 24/208 23/213
f 25/737 26/733 50/740
f 21/736 22/735 700/739
f 19/760 3/758 20/746
f 40/850 43/848 41/847
f 41/390 18/397 40/403
f 38/902 11/901 630/905
f 39/990 38/989 661/991
f 636/524 107/525 638/526
f 104/425 106/418 103/412
f 16/903 53/900 38/902
f 16/984 15/980 605/985
f 38/981 15/980 16/984
f 18/397 12/409 103/412
f 14/420 12/409 13/427
f 12/409 11/426 13/427
f 631/419 12/409 647/413
f 646/404 94/385 649/401
f 103/412 12/409 14/420
f 88/358 90/342 85/348
f 9/651 8/647 93/655
f 10/215 7/206 6/223
f 691/770 92/765 714/768
f 5/763 92/765 6/767
f 19/760 96/759 716/761
f 7/206 5/232 6/223
f 7/206 4/210 3/217
f 42/205 4/210 7/206
f 20/746 2/753 1/749
f 20/746 96/759 19/760
f 4/210 2/216 3/217
f 88/358 85/348 652/364
f 100/408 40/403 18/397
f 224/453 79/451 78/449
f 474/196 461/193 471/189
f 475/998 461/999 474/1000
f 476/1001 461/999 475/998
f 477/199 461/193 478/201
f 478/1002 461/999 476/1001
f 479/195 418/181 481/194
f 480/198 471/189 479/195
f 481/194 418/181 495/190
f 482/794 419/788 446/783
f 483/797 446/783 484/802
f 484/802 446/783 445/801
f 485/806 445/801 487/808
f 486/100 436/46 489/90
f 487/808 445/801 486/807
f 488/269 427/263 491/266
f 489/90 436/46 488/73
f 490/258 421/252 395/247
f 491/266 427/263 490/258
f 492/262 395/247 493/257
f 493/257 395/247 336/246
f 494/798 419/788 482/794
f 495/190 418/181 494/185
f 496/261 336/246 528/256
f 497/1003 381/1004 498/1005
f 498/1005 381/1004 517/1006
f 499/268 311/267 500/270
f 500/663 311/657 507/660
f 501/628 323/572 502/633
f 502/633 323/572 505/624
f 503/251 336/246 337/237
f 504/255 337/237 309/260
f 505/624 323/572 506/605
f 506/605 323/572 525/587
f 507/660 311/657 380/653
f 508/602 386/569 323/572
f 509/622 323/572 501/628
f 511/598 343/583 510/616
f 512/615 385/567 511/598
f 513/599 385/567 514/618
f 514/618 385/567 512/615
f 515/629 384/623 508/602
f 516/895 381/892 515/894
f 517/897 381/892 516/895
f 518/553 367/548 523/561
f 519/560 373/544 518/553
f 520/573 344/562 521/588
f 521/588 344/562 346/574
f 522/617 346/574 513/599
f 523/561 367/548 520/573
f 524/662 380/653 497/661
f 525/587 323/572 519/560
f 526/265 309/260 499/268
f 527/606 346/574 522/617
f 528/256 336/246 503/251
f 529/478 277/476 75/479
f 530/475 277/476 529/478
f 531/510 271/513 532/518
f 532/889 271/885 552/887
f 534/882 302/879 533/878
f 568/105 535/119 720/116
f 536/324 194/317 577/320
f 537/321 194/317 536/324
f 538/323 199/314 539/319
f 539/319 199/314 195/315
f 540/104 198/49 541/93
f 541/93 198/49 567/76
f 542/281 227/277 219/271
f 543/285 227/277 542/281
f 544/298 67/301 68/296
f 545/293 68/296 69/290
f 546/483 74/486 550/491
f 547/481 75/479 546/483
f 548/294 233/289 282/292
f 549/295 282/292 279/287
f 550/491 74/486 278/494
f 551/499 278/494 270/504
f 552/887 271/885 534/882
f 553/473 279/464 555/470
f 554/297 279/287 553/300
f 555/470 279/464 556/466
f 556/466 279/464 281/463
f 557/469 281/463 283/472
f 558/291 233/289 548/294
f 559/474 283/472 530/475
f 560/507 270/504 531/510
f 561/288 69/290 62/275
f 562/278 219/271 220/276
f 563/286 233/289 558/291
f 564/282 220/276 563/286
f 565/94 198/49 540/104
f 566/77 201/63 565/94
f 567/76 198/49 197/61
f 699/96 568/105 722/112
f 569/95 202/50 566/77
f 570/103 197/61 538/111
f 571/92 197/61 570/103
f 572/322 195/315 537/321
f 573/312 195/315 203/308
f 574/310 203/308 196/305
f 575/307 196/305 67/301
f 576/309 196/305 575/307
f 577/320 194/317 573/312
f 578/302 67/301 544/298
f 579/304 67/301 578/302
f 580/280 227/277 543/285
f 581/284 62/275 580/280
f 582/188 460/175 583/182
f 583/182 460/175 462/166
f 584/671 174/668 411/664
f 585/675 411/664 586/672
f 586/672 411/664 588/669
f 587/667 411/664 335/666
f 588/669 411/664 587/667
f 589/717 335/716 590/718
f 590/718 335/716 181/719
f 591/156 464/142 463/140
f 592/151 464/142 591/156
f 593/157 170/129 594/160
f 594/160 170/129 592/151
f 595/168 35/150 593/157
f 596/187 462/166 600/192
f 597/167 463/140 598/177
f 598/177 463/140 460/175
f 599/186 460/175 601/191
f 600/192 462/166 461/193
f 601/191 460/175 582/188
f 602/197 461/193 477/199
f 603/720 181/719 595/722
f 604/1012 15/1013 663/1014
f 605/985 15/980 604/987
f 606/880 302/879 612/883
f 607/356 87/335 175/347
f 608/346 87/335 607/356
f 609/509 273/503 285/508
f 610/512 270/504 609/509
f 611/886 272/888 269/890
f 612/883 302/879 611/886
f 613/515 285/508 618/520
f 614/1016 269/1017 615/1018
f 615/521 269/517 270/504
f 616/516 270/504 610/512
f 617/523 104/522 636/524
f 618/520 285/508 617/523
f 619/391 102/398 95/381
f 620/384 95/381 99/375
f 621/360 177/344 622/367
f 622/696 177/699 178/689
f 623/688 178/689 33/677
f 624/678 36/674 584/671
f 625/682 190/679 624/678
f 626/685 190/679 625/682
f 627/681 190/679 626/685
f 628/684 33/677 627/681
f 629/357 82/341 621/360
f 630/430 11/426 631/419
f 631/419 11/426 12/409
f 632/537 17/535 16/536
f 633/539 17/535 632/537
f 634/993 39/990 662/992
f 635/531 105/529 634/533
f 636/524 104/522 107/525
f 637/528 105/529 635/531
f 638/526 107/525 637/528
f 639/986 16/984 605/985
f 640/1011 38/1010 642/1007
f 641/983 15/980 640/982
f 642/1007 38/1010 17/1008
f 643/540 17/535 633/539
f 644/395 102/398 619/391
f 645/389 95/381 644/395
f 646/404 18/397 94/385
f 647/413 12/409 646/404
f 648/394 94/385 645/389
f 649/401 94/385 648/394
f 650/379 99/375 98/370
f 651/383 98/370 656/380
f 652/364 85/348 653/368
f 653/368 85/348 658/363
f 654/374 88/358 655/369
f 655/369 88/358 652/364
f 656/380 98/370 654/374
f 657/355 86/336 608/346
f 658/363 85/348 657/355
f 659/361 175/347 660/362
f 660/362 175/347 629/357
f 661/906 38/902 630/905
f 662/992 39/990 661/991
f 663/1014 15/1013 641/1015
f 664/200 477/199 665/202
f 666/881 533/878 606/880
f 667/884 533/878 666/881
f 668/643 392/635 319/638
f 669/648 319/638 9/651
f 670/611 394/565 677/594
f 671/595 394/565 670/611
f 672/627 343/583 673/614
f 673/614 343/583 362/581
f 674/994 366/995 675/996
f 675/610 366/577 393/592
f 676/579 394/565 303/545
f 677/594 394/565 676/579
f 678/597 362/581 349/555
f 679/637 510/616 672/627
f 680/636 393/592 392/635
f 681/626 393/592 680/636
f 682/997 366/995 674/994
f 683/591 366/577 682/609
f 684/612 316/580 671/595
f 685/578 365/564 683/591
f 686/593 303/545 685/578
f 687/644 392/635 668/643
f 688/656 9/651 692/659
f 689/596 316/580 684/612
f 690/613 349/555 689/596
f 691/770 9/771 92/765
f 692/772 9/771 691/770
f 693/51 206/31 207/65
f 694/41 206/31 693/51
f 695/79 207/65 206/31
f 696/80 207/65 695/79
f 697/64 206/31 202/50
f 698/78 202/50 699/96
f 699/96 202/50 568/105
f 700/739 22/735 701/743
f 701/743 22/735 708/738
f 702/60 137/48 703/39
f 703/39 137/48 154/24
f 704/29 154/24 155/15
f 705/38 155/15 694/41
f 706/744 21/736 700/739
f 707/748 20/746 706/744
f 708/738 22/735 140/734
f 709/742 140/734 710/741
f 710/741 140/734 25/737
f 711/745 25/737 137/747
f 712/750 137/747 702/754
f 713/766 19/760 718/764
f 714/768 92/765 713/766
f 715/757 96/759 20/746
f 716/761 96/759 715/757
f 717/752 20/746 707/748
f 718/764 19/760 716/761
f 719/639 510/616 679/637
f 720/116 535/119 721/120
f 722/112 568/105 720/116
usemtl Tile_+032_+021_L19_000031_untextured
