mtllib Tile_+031_+021_L19_000010.mtl
v 6.07709505e+03 5.00000000e+03 1.43981872e+01
v 6.07855582e+03 5.00000000e+03 1.41567650e+01
v 6.08353977e+03 5.00000000e+03 1.45790191e+01
v 6.08054771e+03 5.00000000e+03 1.44835584e+01
v 6.06270168e+03 5.00000000e+03 1.42903143e+01
v 6.08923898e+03 5.00000000e+03 1.42949245e+01
v 6.08849437e+03 5.00000000e+03 1.40721099e+01
v 6.08728425e+03 5.00000000e+03 1.44413273e+01
v 6.09371775e+03 5.00000000e+03 1.41823107e+01
v 6.09351364e+03 5.00000000e+03 1.39329455e+01
v 6.09377040e+03 5.00000000e+03 1.43981636e+01
v 6.09395727e+03 5.00000000e+03 1.47232702e+01
v 6.08671857e+03 5.00000000e+03 1.46205908e+01
v 6.08415498e+03 5.00000000e+03 1.50844745e+01
v 6.08380913e+03 5.00000000e+03 1.55768341e+01
v 6.08425364e+03 5.00048258e+03 1.46894886e+01
v 6.09371188e+03 5.00000000e+03 1.76462085e+01
v 6.09380089e+03 5.00000000e+03 1.70570815e+01
v 6.09333994e+03 5.00050389e+03 1.67461982e+01
v 6.08794822e+03 5.00134744e+03 1.44023957e+01
v 6.09028125e+03 5.00000000e+03 1.41253315e+01
v 6.08931310e+03 5.00000000e+03 1.42934959e+01
v 6.08610965e+03 5.00000000e+03 1.41641171e+01
v 6.08765220e+03 5.02398508e+03 1.38488692e+01
v 6.09062558e+03 5.02175960e+03 1.39539149e+01
v 6.09354220e+03 5.02410670e+03 1.37915845e+01
v 6.09281123e+03 5.02103218e+03 1.38671973e+01
v 6.09313515e+03 5.01733992e+03 1.40060099e+01
v 6.09231705e+03 5.01844103e+03 1.39499813e+01
v 6.09077751e+03 5.02002258e+03 1.46788941e+01
v 6.09206518e+03 5.00589922e+03 1.42853993e+01
v 6.09035367e+03 5.00414668e+03 1.39181276e+01
v 6.08795968e+03 5.00828200e+03 1.35888942e+01
v 6.08670038e+03 5.00515044e+03 1.35771774e+01
v 6.08215856e+03 5.01057641e+03 1.40015622e+01
v 6.09017349e+03 5.00855105e+03 1.42350906e+01
v 6.09066342e+03 5.00987053e+03 1.36525942e+01
v 6.08933987e+03 5.00891303e+03 1.37189876e+01
v 6.08475649e+03 5.01183596e+03 1.41405396e+01
v 6.08662674e+03 5.01042158e+03 1.37098690e+01
v 6.08839207e+03 5.01090334e+03 1.36582326e+01
v 6.09301207e+03 5.00058113e+03 1.37653815e+01
v 6.09027551e+03 5.00152307e+03 1.42794091e+01
v 6.09230548e+03 5.00145422e+03 1.41021672e+01
v 6.09037038e+03 5.00871168e+03 1.48451468e+01
v 6.08834810e+03 5.00355700e+03 1.36350369e+01
v 6.09155548e+03 5.01715466e+03 1.45977048e+01
v 6.08954998e+03 5.01672712e+03 1.40127696e+01
v 6.09078969e+03 5.01959290e+03 1.38705140e+01
v 6.08992138e+03 5.01966152e+03 1.43410182e+01
v 6.08871101e+03 5.01791632e+03 1.39108863e+01
v 6.08703990e+03 5.01252200e+03 1.38523906e+01
v 6.08557189e+03 5.01926191e+03 1.37405887e+01
v 6.08740963e+03 5.02098020e+03 1.38460162e+01
v 6.08889832e+03 5.02861912e+03 1.39696815e+01
v 6.08176849e+03 5.01367461e+03 1.38190328e+01
v 6.08605767e+03 5.01741267e+03 1.37815036e+01
v 6.08402327e+03 5.01329807e+03 1.39394113e+01
v 6.08231495e+03 5.01195644e+03 1.44643880e+01
v 6.08323529e+03 5.02042447e+03 1.39713747e+01
v 6.08425642e+03 5.00269459e+03 1.39438192e+01
v 6.08409692e+03 5.00351128e+03 1.36711820e+01
v 6.08502724e+03 5.00502430e+03 1.36924223e+01
v 6.08152749e+03 5.00635145e+03 1.38659398e+01
v 6.09025629e+03 5.01052214e+03 1.43576191e+01
v 6.08908749e+03 5.01225842e+03 1.37781169e+01
v 6.08768932e+03 5.01379496e+03 1.40990214e+01
v 6.08620651e+03 5.01422952e+03 1.44419057e+01
v 6.08739085e+03 5.01554073e+03 1.40013099e+01
v 6.08475293e+03 5.01402649e+03 1.40760272e+01
v 6.08871732e+03 5.01403433e+03 1.40941231e+01
v 6.09115553e+03 5.00738534e+03 1.39149255e+01
v 6.09226657e+03 5.00000000e+03 1.37369815e+01
v 6.08446599e+03 5.00163070e+03 1.39961659e+01
v 6.08569952e+03 5.00099198e+03 1.39799466e+01
v 6.08180584e+03 5.00321406e+03 1.45798240e+01
v 6.08474387e+03 5.00000000e+03 1.45843398e+01
v 6.08506694e+03 5.00215265e+03 1.39387942e+01
v 6.08259464e+03 5.00172068e+03 1.47505284e+01
v 6.08652644e+03 5.00439324e+03 1.49312246e+01
v 6.08200476e+03 5.00501771e+03 1.43242362e+01
v 6.08260968e+03 5.00246156e+03 1.42652837e+01
v 6.08626807e+03 5.00066353e+03 1.48067685e+01
v 6.09378056e+03 5.00075357e+03 1.54927098e+01
v 6.09314911e+03 5.00255855e+03 1.54063576e+01
v 6.09283238e+03 5.00277392e+03 1.45491022e+01
v 6.09175643e+03 5.00421764e+03 1.45346186e+01
v 6.09013188e+03 5.01444081e+03 1.41307511e+01
v 6.09085704e+03 5.01409263e+03 1.50222356e+01
v 6.09018169e+03 5.01328093e+03 1.42895683e+01
v 6.08918269e+03 5.01205581e+03 1.46812839e+01
v 6.09210482e+03 5.00640886e+03 1.49855325e+01
v 6.08813604e+03 5.00252828e+03 1.49155676e+01
v 6.08750385e+03 5.01397667e+03 1.39287297e+01
v 6.08856481e+03 5.01456549e+03 1.46447613e+01
v 6.09026147e+03 5.01559433e+03 1.43218410e+01
v 6.09363035e+03 5.01865971e+03 1.47315095e+01
v 6.09118345e+03 5.01463037e+03 1.48956037e+01
v 6.09079055e+03 5.01575202e+03 1.56759894e+01
v 6.08810972e+03 5.01513996e+03 1.46709518e+01
v 6.09145294e+03 5.02091343e+03 1.44665578e+01
v 6.09364884e+03 5.01611335e+03 1.42398938e+01
v 6.09377788e+03 5.01549891e+03 1.54792491e+01
v 6.09324327e+03 5.01716802e+03 1.47085270e+01
v 6.08867582e+03 5.02185836e+03 1.38569252e+01
v 6.09360152e+03 5.01957659e+03 1.39087030e+01
v 6.08765422e+03 5.00979985e+03 1.43349459e+01
v 6.09251521e+03 5.03063975e+03 1.38982186e+01
v 6.08489768e+03 5.03107963e+03 1.43775552e+01
v 6.08214262e+03 5.03044377e+03 1.42678360e+01
v 6.08837059e+03 5.02918240e+03 1.43770775e+01
v 6.08778766e+03 5.03026884e+03 1.40785473e+01
v 6.08366506e+03 5.01144811e+03 1.41718190e+01
v 6.08593942e+03 5.01277299e+03 1.55775919e+01
v 6.08700870e+03 5.01340357e+03 1.45310985e+01
v 6.08780539e+03 5.01386997e+03 1.44232833e+01
v 6.08845754e+03 5.01431311e+03 1.57714623e+01
v 6.08715353e+03 5.01353757e+03 1.48889582e+01
v 6.08969303e+03 5.01496813e+03 1.45088412e+01
v 6.08829479e+03 5.01427369e+03 1.47673413e+01
v 6.09328831e+03 5.01730435e+03 1.56395806e+01
v 6.08690871e+03 5.02820580e+03 1.45825599e+01
v 6.08477874e+03 5.02621368e+03 1.39590376e+01
v 6.08406368e+03 5.02797202e+03 1.41006191e+01
v 6.08794931e+03 5.01866753e+03 1.46708409e+01
v 6.09253162e+03 5.01648568e+03 1.44552347e+01
v 6.09143601e+03 5.01537327e+03 1.52939204e+01
v 6.08789044e+03 5.01396482e+03 1.45663052e+01
v 6.08817522e+03 5.01419506e+03 1.48077509e+01
v 6.09113171e+03 5.01385447e+03 1.57341967e+01
v 6.08945295e+03 5.01508458e+03 1.56874206e+01
v 6.09188250e+03 5.01646204e+03 1.52132754e+01
v 6.08964406e+03 5.01270281e+03 1.60489067e+01
v 6.09232864e+03 5.01579672e+03 1.52843798e+01
v 6.09170812e+03 5.01462180e+03 1.58875963e+01
v 6.09277149e+03 5.01448081e+03 1.53618965e+01
v 6.08318994e+03 5.02844234e+03 1.44706141e+01
v 6.08304643e+03 5.02662521e+03 1.43711832e+01
v 6.08564042e+03 5.02721242e+03 1.46302942e+01
v 6.09277495e+03 5.01324854e+03 1.53884296e+01
v 6.09281765e+03 5.01558288e+03 1.58287764e+01
v 6.08797251e+03 5.01991266e+03 1.68634501e+01
v 6.09146236e+03 5.02219589e+03 1.71413903e+01
v 6.08351226e+03 5.02587895e+03 1.48224331e+01
v 6.08245625e+03 5.02516738e+03 1.48839294e+01
v 6.09078074e+03 5.02050210e+03 1.74166885e+01
v 6.09375755e+03 5.01369070e+03 1.79609838e+01
v 6.09063869e+03 5.00659194e+03 1.71769886e+01
v 6.09212669e+03 5.00422136e+03 1.54326718e+01
v 6.08832299e+03 5.01053978e+03 1.62812093e+01
v 6.08925821e+03 5.00000000e+03 1.43012211e+01
v 6.08891580e+03 5.00124168e+03 1.47999909e+01
v 6.08462128e+03 5.00295037e+03 1.48020487e+01
v 6.08496244e+03 5.00398262e+03 1.49389203e+01
v 6.08636804e+03 5.00149193e+03 1.46891922e+01
v 6.08731115e+03 5.00179921e+03 1.49593855e+01
v 6.08521811e+03 5.00211734e+03 1.49339097e+01
v 6.08913842e+03 5.00896470e+03 1.63732429e+01
v 6.08322887e+03 5.00095417e+03 1.46637683e+01
v 6.08273342e+03 5.00186761e+03 1.61510300e+01
v 6.08977270e+03 5.00785109e+03 1.68133605e+01
v 6.08906137e+03 5.00942799e+03 1.67183361e+01
v 6.09364312e+03 5.00093534e+03 1.82612265e+01
v 6.08858649e+03 5.01170625e+03 1.62070083e+01
v 6.09306088e+03 5.00187948e+03 1.68369517e+01
v 6.09151040e+03 5.00403668e+03 1.83769966e+01
v 6.09168169e+03 5.00474846e+03 1.66443310e+01
v 6.09049091e+03 5.00544578e+03 1.78998487e+01
v 6.09281869e+03 5.01257783e+03 1.62480507e+01
v 6.08982913e+03 5.01069020e+03 1.66636719e+01
v 6.09390673e+03 5.00000000e+03 1.78490016e+01
v 6.08899650e+03 5.00766857e+03 1.80647183e+01
v 6.08787963e+03 5.00937319e+03 1.84012431e+01
v 6.08913158e+03 5.01038231e+03 1.81139494e+01
v 6.09121520e+03 5.01177912e+03 1.85243867e+01
v 6.09000826e+03 5.00640463e+03 1.84390582e+01
v 6.08981755e+03 5.02083461e+03 1.76301814e+01
v 6.09094632e+03 5.01200720e+03 1.67533843e+01
v 6.08271721e+03 5.02491628e+03 1.39043541e+01
v 6.08147714e+03 5.01776859e+03 1.38219623e+01
v 6.06676764e+03 5.02413913e+03 1.06178723e+01
v 6.06526635e+03 5.02752380e+03 1.07890179e+01
v 6.06763280e+03 5.02623489e+03 8.55631335e+00
v 6.06654908e+03 5.02619258e+03 9.32489025e+00
v 6.07528571e+03 5.02802579e+03 1.16655392e+01
v 6.07408657e+03 5.02910245e+03 1.35574730e+01
v 6.07416565e+03 5.02768331e+03 1.16695430e+01
v 6.07183140e+03 5.02539254e+03 1.17907560e+01
v 6.07220840e+03 5.02697811e+03 1.38100245e+01
v 6.07047671e+03 5.02620170e+03 1.34457161e+01
v 6.07047496e+03 5.02479545e+03 1.08801851e+01
v 6.06544182e+03 5.02660057e+03 1.22140220e+01
v 6.07186789e+03 5.02602413e+03 1.01335202e+01
v 6.06924797e+03 5.02549523e+03 9.00845614e+00
v 6.06796951e+03 5.02912824e+03 7.57872194e+00
v 6.06835681e+03 5.02570770e+03 8.61277698e+00
v 6.06623026e+03 5.02979792e+03 8.05918212e+00
v 6.06544880e+03 5.02893945e+03 9.05364406e+00
v 6.07138208e+03 5.02725272e+03 7.77709534e+00
v 6.07364443e+03 5.02779286e+03 9.50135112e+00
v 6.07812050e+03 5.02983378e+03 1.42129922e+01
v 6.07792720e+03 5.02935130e+03 1.23100580e+01
v 6.07634369e+03 5.02925676e+03 1.27400821e+01
v 6.07538377e+03 5.03030849e+03 1.43835919e+01
v 6.07879447e+03 5.02974632e+03 1.35578343e+01
v 6.07972367e+03 5.00127953e+03 1.43640885e+01
v 6.07133840e+03 5.02510903e+03 1.06615153e+01
v 6.07284283e+03 5.02726774e+03 1.51870967e+01
v 6.07446815e+03 5.02959828e+03 1.51949266e+01
v 6.07671933e+03 5.03054750e+03 1.46462473e+01
v 6.06809080e+03 5.02314280e+03 1.00274995e+01
v 6.06912931e+03 5.02418013e+03 1.03854406e+01
v 6.07930162e+03 5.02253668e+03 1.38294768e+01
v 6.07131014e+03 5.02681502e+03 1.53028281e+01
v 6.07061918e+03 5.02679295e+03 1.49500759e+01
v 6.07277228e+03 5.02093753e+03 1.57681894e+01
v 6.07373802e+03 5.02113148e+03 1.43395946e+01
v 6.07389909e+03 5.02149051e+03 1.50459752e+01
v 6.07336529e+03 5.01984056e+03 1.49588031e+01
v 6.07379503e+03 5.02073130e+03 1.58839748e+01
v 6.07437994e+03 5.02104514e+03 1.58594012e+01
v 6.07524038e+03 5.02134901e+03 1.52290609e+01
v 6.07516283e+03 5.02086391e+03 1.58356511e+01
v 6.07105855e+03 5.02212080e+03 1.47969211e+01
v 6.07229444e+03 5.02100526e+03 1.42944344e+01
v 6.07444997e+03 5.02031583e+03 1.46057910e+01
v 6.07470955e+03 5.02175683e+03 1.43709170e+01
v 6.07316097e+03 5.02196471e+03 1.51324434e+01
v 6.07117317e+03 5.02380176e+03 1.59777937e+01
v 6.07133675e+03 5.02324554e+03 1.52265637e+01
v 6.07247366e+03 5.02271133e+03 1.58495702e+01
v 6.07137919e+03 5.02128374e+03 1.74354039e+01
v 6.07164979e+03 5.02274625e+03 1.77544773e+01
v 6.07560002e+03 5.00000000e+03 1.42607717e+01
v 6.06749140e+03 5.00000000e+03 1.42487016e+01
v 6.07811967e+03 5.02371551e+03 1.50004622e+01
v 6.07904502e+03 5.02467449e+03 1.47955304e+01
v 6.07775399e+03 5.02265774e+03 1.58759644e+01
v 6.07861560e+03 5.02110579e+03 1.80965410e+01
v 6.08159983e+03 5.00560909e+03 1.53799847e+01
v 6.08094279e+03 5.00462174e+03 1.60044020e+01
v 6.07868163e+03 5.00394621e+03 1.43183179e+01
v 6.08054716e+03 5.00455585e+03 1.42509075e+01
v 6.07635333e+03 5.01035206e+03 1.40155556e+01
v 6.07928278e+03 5.00762236e+03 1.41727379e+01
v 6.08183570e+03 5.02577569e+03 1.64794229e+01
v 6.08076673e+03 5.02564350e+03 1.48112819e+01
v 6.08106715e+03 5.02731213e+03 1.50797552e+01
v 6.08102104e+03 5.02545136e+03 1.43215533e+01
v 6.08119714e+03 5.02448636e+03 1.50890358e+01
v 6.08242498e+03 5.00213150e+03 1.48312069e+01
v 6.07819279e+03 5.02860130e+03 1.71563053e+01
v 6.07963241e+03 5.02899854e+03 1.81530224e+01
v 6.07853981e+03 5.03125148e+03 1.97967547e+01
v 6.07626050e+03 5.02902418e+03 1.74702720e+01
v 6.07615366e+03 5.02103976e+03 1.65863509e+01
v 6.07739437e+03 5.01953309e+03 1.88466138e+01
v 6.07605254e+03 5.01936918e+03 1.88291273e+01
v 6.07387394e+03 5.02075090e+03 1.89968286e+01
v 6.07466503e+03 5.02129111e+03 1.76231659e+01
v 6.07933270e+03 5.02259049e+03 2.00350826e+01
v 6.07987192e+03 5.02275815e+03 2.13560793e+01
v 6.08035006e+03 5.00576263e+03 1.43722544e+01
v 6.08109425e+03 5.00405341e+03 1.45413653e+01
v 6.07675912e+03 5.02716478e+03 2.24124287e+01
v 6.07587272e+03 5.02624975e+03 2.23660889e+01
v 6.07566252e+03 5.02953190e+03 8.51015995e+00
v 6.07796820e+03 5.03042011e+03 8.55981510e+00
v 6.07349814e+03 5.01990644e+03 1.61177724e+01
v 6.08085036e+03 5.02786693e+03 1.62245546e+01
v 6.07817482e+03 5.02262730e+03 1.51334761e+01
v 6.07766013e+03 5.02190990e+03 1.39697254e+01
v 6.06762725e+03 5.02479553e+03 1.33547574e+01
v 6.06605224e+03 5.02625785e+03 1.40143589e+01
v 6.06374365e+03 5.02961351e+03 1.06796266e+01
v 6.08015929e+03 5.02203276e+03 1.80199752e+01
v 6.08165939e+03 5.02471497e+03 1.67848188e+01
v 6.06327553e+03 5.03084129e+03 9.21838059e+00
v 6.06239024e+03 5.01389622e+03 1.43055828e+01
v 6.06406765e+03 5.01350265e+03 1.40855685e+01
v 6.06365717e+03 5.02107279e+03 1.42365509e+01
v 6.06290768e+03 5.03013396e+03 1.46607268e+01
v 6.06314674e+03 5.03012308e+03 1.23038615e+01
v 6.06422445e+03 5.03049652e+03 8.01640985e+00
v 6.06252159e+03 5.02953396e+03 1.48312711e+01
v 6.06401138e+03 5.02868684e+03 1.45357982e+01
v 6.06342268e+03 5.03013994e+03 1.39655733e+01
v 6.06439409e+03 5.02685162e+03 1.47621646e+01
v 6.06513572e+03 5.00596136e+03 1.42790379e+01
v 6.06363513e+03 5.02935035e+03 1.46830933e+01
v 6.06355127e+03 5.02945435e+03 1.48971498e+01
v 6.06357078e+03 5.02935153e+03 1.47615961e+01
v 6.06599059e+03 5.02393968e+03 1.45597545e+01
v 6.06459126e+03 5.01147428e+03 1.42455479e+01
v 6.07120870e+03 5.00615923e+03 1.41717455e+01
v 6.07169661e+03 5.02835228e+03 7.47327602e+00
v 6.07103389e+03 5.02704668e+03 1.43420757e+01
v 6.07271189e+03 5.02679565e+03 1.20740970e+01
v 6.06716055e+03 5.02421247e+03 1.23972427e+01
v 6.06864983e+03 5.02549858e+03 1.29151741e+01
v 6.07332443e+03 5.01911596e+03 1.42186130e+01
v 6.07649054e+03 5.01833394e+03 1.39219977e+01
v 6.07172857e+03 5.01778856e+03 1.40227404e+01
v 6.07401650e+03 5.01307986e+03 1.39847589e+01
v 6.06890210e+03 5.01304570e+03 1.41476728e+01
v 6.06905206e+03 5.02435345e+03 1.42359317e+01
v 6.07413098e+03 5.02878507e+03 8.55546911e+00
v 6.07744115e+03 5.03089826e+03 7.66778104e+00
v 6.07929908e+03 5.03132962e+03 1.09203260e+01
v 6.07960450e+03 5.03035520e+03 1.29150910e+01
v 6.07619009e+03 5.02878770e+03 1.14377936e+01
v 6.06691952e+03 5.02504706e+03 8.63644938e+00
v 6.06837033e+03 5.02352768e+03 9.51373659e+00
v 6.06700407e+03 5.02417873e+03 8.23016968e+00
v 6.07522995e+03 5.02016461e+03 1.39345372e+01
v 6.08070969e+03 5.01201555e+03 1.40970468e+01
v 6.07886486e+03 5.01293455e+03 1.39042588e+01
v 6.07920835e+03 5.00503725e+03 1.44938631e+01
v 6.07652035e+03 5.00273113e+03 1.41442165e+01
v 6.07635077e+03 5.02095387e+03 1.38291226e+01
v 6.07150799e+03 5.01836043e+03 1.50926965e+01
v 6.07214380e+03 5.01879977e+03 1.52734972e+01
v 6.06922348e+03 5.02133165e+03 1.42442172e+01
v 6.06864659e+03 5.01935672e+03 1.42161147e+01
v 6.06756610e+03 5.02323679e+03 1.44465889e+01
v 6.06724432e+03 5.02401364e+03 1.47848040e+01
v 6.08165224e+03 5.03147258e+03 1.42861283e+01
v 6.08002834e+03 5.02974327e+03 1.40535002e+01
v 6.06863770e+03 5.02399559e+03 1.49065762e+01
v 6.07929488e+03 5.02983027e+03 1.48353595e+01
v 6.08204788e+03 5.02653396e+03 1.41289149e+01
v 6.07723493e+03 5.02947156e+03 1.56620007e+01
v 6.07909486e+03 5.00308840e+03 1.45705066e+01
v 6.07977915e+03 5.00709568e+03 1.46058186e+01
v 6.07621115e+03 5.00101206e+03 1.45648255e+01
v 6.08150787e+03 5.02960589e+03 1.47466914e+01
v 6.08150993e+03 5.02445737e+03 1.41512060e+01
v 6.07755801e+03 5.01231385e+03 1.42396751e+01
v 6.06796245e+03 5.01734185e+03 1.41473014e+01
v 6.06565914e+03 5.01366084e+03 1.41953241e+01
v 6.06923919e+03 5.01834938e+03 1.45100298e+01
v 6.07080049e+03 5.01876653e+03 1.42719585e+01
v 6.07081031e+03 5.02126663e+03 1.42446341e+01
v 6.07151570e+03 5.02005813e+03 1.43821668e+01
v 6.07188140e+03 5.02039441e+03 1.46288979e+01
v 6.07984398e+03 5.02370953e+03 1.47743895e+01
v 6.07048201e+03 5.02557246e+03 1.46406482e+01
v 6.06985040e+03 5.02513684e+03 1.59034172e+01
v 6.06978262e+03 5.02312749e+03 1.54756362e+01
v 6.07053609e+03 5.02250021e+03 1.52677258e+01
v 6.06908477e+03 5.02369510e+03 1.54039379e+01
v 6.06997373e+03 5.02409675e+03 1.57995505e+01
v 6.06535404e+03 5.02678196e+03 1.45966701e+01
v 6.07281360e+03 5.02228082e+03 1.47009630e+01
v 6.06955129e+03 5.02274126e+03 1.48531774e+01
v 6.06769056e+03 5.02332288e+03 1.53844697e+01
v 6.06868133e+03 5.02254867e+03 1.49144092e+01
v 6.06974150e+03 5.02172988e+03 1.47492002e+01
v 6.08068364e+03 5.02481271e+03 1.54067795e+01
v 6.08069950e+03 5.02462351e+03 1.50799714e+01
v 6.07383726e+03 5.02140242e+03 1.41587498e+01
v 6.07527372e+03 5.02078248e+03 1.51375652e+01
v 6.07701905e+03 5.02176517e+03 1.49586187e+01
v 6.07392898e+03 5.02180379e+03 1.39944526e+01
v 6.07572372e+03 5.02188675e+03 1.51667305e+01
v 6.07078400e+03 5.01925549e+03 1.49410589e+01
v 6.07232439e+03 5.01950586e+03 1.44311333e+01
v 6.07892466e+03 5.02329732e+03 1.47462517e+01
v 6.07837216e+03 5.02945960e+03 1.53293863e+01
v 6.07250446e+03 5.02763552e+03 1.64256200e+01
v 6.06999831e+03 5.02056357e+03 1.47869854e+01
v 6.07139532e+03 5.02519383e+03 1.53387333e+01
v 6.07180348e+03 5.02605916e+03 1.65029457e+01
v 6.07141420e+03 5.02684954e+03 1.63396342e+01
v 6.07685786e+03 5.02881157e+03 1.66869153e+01
v 6.07258733e+03 5.02034284e+03 1.69036878e+01
v 6.07295361e+03 5.02055105e+03 1.60304247e+01
v 6.07542556e+03 5.02050217e+03 1.72491694e+01
v 6.07322543e+03 5.02056658e+03 1.64959039e+01
v 6.07269966e+03 5.02875018e+03 1.73100825e+01
v 6.07945306e+03 5.02921467e+03 1.54630410e+01
v 6.08091923e+03 5.02854079e+03 1.50182704e+01
v 6.07896703e+03 5.02941636e+03 1.63083237e+01
v 6.07937647e+03 5.02803692e+03 1.68988257e+01
v 6.07583496e+03 5.03001779e+03 1.54906466e+01
v 6.07484934e+03 5.02994354e+03 1.64535835e+01
v 6.07143733e+03 5.02444288e+03 1.61800866e+01
v 6.07198712e+03 5.02020745e+03 1.55270963e+01
v 6.07196536e+03 5.02676807e+03 1.68256722e+01
v 6.08009403e+03 5.00689670e+03 1.59818819e+01
v 6.07296983e+03 5.01919465e+03 1.47910390e+01
v 6.07252794e+03 5.01980912e+03 1.44929637e+01
v 6.07197960e+03 5.02487575e+03 1.71983116e+01
v 6.07274603e+03 5.02757310e+03 1.72832917e+01
v 6.07113801e+03 5.02394719e+03 1.74959521e+01
v 6.08141932e+03 5.00333912e+03 1.55920076e+01
v 6.08225604e+03 5.00244673e+03 1.47878860e+01
v 6.08164671e+03 5.00341652e+03 1.61567518e+01
v 6.08153912e+03 5.00368263e+03 1.55879425e+01
v 6.07681692e+03 5.02393640e+03 2.29250945e+01
v 6.07683005e+03 5.02325382e+03 2.22719349e+01
v 6.07801039e+03 5.02305199e+03 2.10685736e+01
v 6.07647838e+03 5.02162086e+03 2.16027548e+01
v 6.07827378e+03 5.02190360e+03 2.02261693e+01
v 6.07689766e+03 5.02070806e+03 2.03437552e+01
v 6.07779845e+03 5.02163815e+03 2.11361746e+01
v 6.07883825e+03 5.02201236e+03 2.13606088e+01
v 6.07964775e+03 5.02308120e+03 1.97013932e+01
v 6.07969385e+03 5.02231330e+03 1.96158721e+01
v 6.07956791e+03 5.02217692e+03 1.87385261e+01
v 6.08161049e+03 5.02281993e+03 1.90194478e+01
v 6.08128552e+03 5.02394807e+03 1.78067200e+01
v 6.07930786e+03 5.02345469e+03 2.14354265e+01
v 6.08139011e+03 5.02450650e+03 1.88777234e+01
v 6.08018127e+03 5.02377463e+03 1.97154986e+01
v 6.08198186e+03 5.00286704e+03 1.52239758e+01
v 6.08217213e+03 5.00258018e+03 1.50611273e+01
v 6.07968951e+03 5.02359370e+03 2.05710068e+01
v 6.07993416e+03 5.02424557e+03 2.09011045e+01
v 6.07934173e+03 5.02452870e+03 2.16536213e+01
v 6.07781072e+03 5.02362295e+03 2.22934910e+01
v 6.08067486e+03 5.02867859e+03 1.89817610e+01
v 6.08087838e+03 5.02901208e+03 1.79909397e+01
v 6.08179928e+03 5.02570713e+03 1.79129603e+01
v 6.08057278e+03 5.02770554e+03 1.85312801e+01
v 6.08158010e+03 5.02752556e+03 1.76813180e+01
v 6.08099510e+03 5.02676947e+03 1.84752171e+01
v 6.07664458e+03 5.03132377e+03 1.98675176e+01
v 6.07743683e+03 5.02972284e+03 2.11488559e+01
v 6.07855849e+03 5.03080084e+03 2.06162497e+01
v 6.08132993e+03 5.02847122e+03 2.02061219e+01
v 6.08100402e+03 5.02815643e+03 2.09739556e+01
v 6.08078031e+03 5.02463177e+03 1.94102852e+01
v 6.08079033e+03 5.02555752e+03 2.02663590e+01
v 6.07857015e+03 5.02978235e+03 2.09109865e+01
v 6.07971829e+03 5.02835007e+03 2.16726663e+01
v 6.08124003e+03 5.02600542e+03 2.04056950e+01
v 6.07850530e+03 5.02859283e+03 2.12430675e+01
v 6.08125780e+03 5.02718808e+03 1.98249062e+01
v 6.08063749e+03 5.02702564e+03 2.19977111e+01
v 6.08142871e+03 5.02650293e+03 1.94947674e+01
v 6.08077964e+03 5.02559281e+03 1.89222214e+01
v 6.08009322e+03 5.02576957e+03 2.10006428e+01
v 6.07666061e+03 5.02593001e+03 2.25469415e+01
v 6.07770921e+03 5.02570329e+03 2.18142615e+01
v 6.07723371e+03 5.02512578e+03 2.24938916e+01
v 6.07828561e+03 5.02406640e+03 2.17188727e+01
v 6.07875113e+03 5.02615036e+03 2.27538370e+01
v 6.07816339e+03 5.02744019e+03 2.27054997e+01
v 6.07962249e+03 5.02797895e+03 2.28635470e+01
v 6.07767701e+03 5.02652786e+03 2.22021934e+01
v 6.07854267e+03 5.02825477e+03 2.30500561e+01
v 6.07741770e+03 5.02858241e+03 2.33216222e+01
v 6.08039282e+03 5.02678256e+03 2.27887574e+01
v 6.07973207e+03 5.02534034e+03 2.21632687e+01
v 6.07787638e+03 5.02905253e+03 2.31608819e+01
v 6.07665877e+03 5.02970287e+03 2.19283879e+01
v 6.08008011e+03 5.02980353e+03 2.14996781e+01
v 6.07542439e+03 5.02810067e+03 2.15345316e+01
v 6.07591769e+03 5.02857877e+03 2.25744313e+01
v 6.07475790e+03 5.02871589e+03 2.15110545e+01
v 6.07594040e+03 5.02958775e+03 2.14724272e+01
v 6.08150495e+03 5.02689145e+03 2.13594128e+01
v 6.07958395e+03 5.02991568e+03 1.97939375e+01
v 6.07932328e+03 5.03010303e+03 2.07801370e+01
v 6.08244493e+03 5.02650061e+03 1.75571033e+01
v 6.07801106e+03 5.02503451e+03 2.20142324e+01
v 6.07569451e+03 5.02417749e+03 2.30228649e+01
v 6.07373341e+03 5.02462090e+03 2.35175342e+01
v 6.07689071e+03 5.02534971e+03 2.33481785e+01
v 6.07528489e+03 5.02503206e+03 2.35711045e+01
v 6.07405595e+03 5.02583238e+03 2.22081432e+01
v 6.07358989e+03 5.02470980e+03 2.13603375e+01
v 6.07377503e+03 5.02712640e+03 2.19984234e+01
v 6.07414719e+03 5.02575602e+03 2.32496689e+01
v 6.07494946e+03 5.02642180e+03 2.27233272e+01
v 6.07382935e+03 5.02761519e+03 2.14350123e+01
v 6.07516541e+03 5.02723644e+03 2.25127275e+01
v 6.07317750e+03 5.02608892e+03 2.05546064e+01
v 6.07391988e+03 5.02428743e+03 2.22170797e+01
v 6.07330386e+03 5.02380417e+03 2.12551053e+01
v 6.07298479e+03 5.02344303e+03 2.21760089e+01
v 6.07366773e+03 5.02813099e+03 1.98762016e+01
v 6.07341931e+03 5.02589651e+03 1.89357499e+01
v 6.07383433e+03 5.02805114e+03 1.84612245e+01
v 6.07581972e+03 5.03023769e+03 2.04443062e+01
v 6.07472155e+03 5.02376161e+03 2.25079057e+01
v 6.07364257e+03 5.02271437e+03 2.08148908e+01
v 6.07401420e+03 5.02305603e+03 1.98167012e+01
v 6.07376831e+03 5.02467237e+03 2.01133510e+01
v 6.07401371e+03 5.02353704e+03 2.21851030e+01
v 6.07308469e+03 5.02633845e+03 1.83403982e+01
v 6.07465753e+03 5.02873056e+03 1.85808971e+01
v 6.07371185e+03 5.02393948e+03 1.92067831e+01
v 6.07223162e+03 5.02207512e+03 1.88027365e+01
v 6.07323392e+03 5.02261071e+03 1.94165207e+01
v 6.07400492e+03 5.02109549e+03 1.92089069e+01
v 6.07398930e+03 5.02143190e+03 2.06743743e+01
v 6.07431387e+03 5.02050790e+03 2.12712330e+01
v 6.07501525e+03 5.01975821e+03 2.00494936e+01
v 6.07267633e+03 5.02328171e+03 1.90133335e+01
v 6.07483109e+03 5.02024450e+03 1.90808921e+01
v 6.07366981e+03 5.02113653e+03 1.81172652e+01
v 6.07276264e+03 5.02557188e+03 1.73395633e+01
v 6.07206368e+03 5.02677943e+03 1.73807392e+01
v 6.07260730e+03 5.02514443e+03 1.83515798e+01
v 6.07417963e+03 5.02153618e+03 2.15335681e+01
v 6.07460085e+03 5.02291351e+03 2.24697663e+01
v 6.07503323e+03 5.02164896e+03 2.12203332e+01
v 6.07555019e+03 5.02242247e+03 2.20900782e+01
v 6.07548247e+03 5.01999974e+03 2.10592946e+01
v 6.07579950e+03 5.01983827e+03 1.98019203e+01
v 6.07816885e+03 5.02088707e+03 1.96700036e+01
v 6.07726278e+03 5.01961934e+03 1.96000212e+01
v 6.07221111e+03 5.02139298e+03 1.82970657e+01
v 6.07240881e+03 5.02421499e+03 1.78759803e+01
v 6.08124023e+03 5.02767450e+03 2.15352935e+01
v 6.06225000e+03 5.01296839e+03 1.43060247e+01
v 6.06225000e+03 5.00873191e+03 1.42927795e+01
v 6.06225000e+03 5.03120042e+03 1.47456319e+01
v 6.06225000e+03 5.03137352e+03 1.48975714e+01
v 6.06225000e+03 5.02315268e+03 1.41983868e+01
v 6.06225000e+03 5.02521070e+03 1.42830809e+01
v 6.06225000e+03 5.03130609e+03 1.44421922e+01
v 6.06225000e+03 5.02983074e+03 1.48249636e+01
v 6.06225000e+03 5.02976425e+03 1.47950950e+01
v 6.06225000e+03 5.00680963e+03 1.43007497e+01
v 6.06225000e+03 5.00742569e+03 1.43022244e+01
v 6.06225000e+03 5.00000000e+03 1.43334631e+01
v 6.06225000e+03 5.00028175e+03 1.43200278e+01
v 6.06225000e+03 5.01373207e+03 1.43030895e+01
v 6.06225000e+03 5.01394721e+03 1.43031436e+01
v 6.06225000e+03 5.02197411e+03 1.42463309e+01
v 6.06225000e+03 5.01417342e+03 1.43051448e+01
v 6.06225000e+03 5.02904958e+03 1.47422136e+01
v 6.06225000e+03 5.02629468e+03 1.44297012e+01
v 6.06225000e+03 5.03050393e+03 1.47067079e+01
v 6.06225000e+03 5.03082336e+03 1.13978712e+01
v 6.06225000e+03 5.03081163e+03 1.07963937e+01
v 6.06225000e+03 5.03133313e+03 1.19510277e+01
v 6.06225000e+03 5.03134484e+03 9.60536089e+00
v 6.06225000e+03 5.00112493e+03 1.43972086e+01
v 6.09400000e+03 5.00049519e+03 1.82186515e+01
v 6.09400000e+03 5.00000000e+03 1.79096557e+01
v 6.09400000e+03 5.00766697e+03 1.83828207e+01
v 6.09400000e+03 5.01059821e+03 1.84428992e+01
v 6.09400000e+03 5.00065788e+03 1.53204348e+01
v 6.09400000e+03 5.00002290e+03 1.47284457e+01
v 6.09400000e+03 5.01768948e+03 1.56391773e+01
v 6.09400000e+03 5.01777433e+03 1.56504502e+01
v 6.09400000e+03 5.00592148e+03 1.83577104e+01
v 6.09400000e+03 5.01360178e+03 1.85152958e+01
v 6.09400000e+03 5.01378748e+03 1.80989643e+01
v 6.09400000e+03 5.01385541e+03 1.79685861e+01
v 6.09400000e+03 5.00433865e+03 1.83578604e+01
v 6.09400000e+03 5.00124795e+03 1.82664487e+01
v 6.09400000e+03 5.00092739e+03 1.82589252e+01
v 6.09400000e+03 5.01324055e+03 1.60772868e+01
v 6.09400000e+03 5.01332802e+03 1.59683383e+01
v 6.09400000e+03 5.00056170e+03 1.55123473e+01
v 6.09400000e+03 5.00024852e+03 1.61500352e+01
v 6.09400000e+03 5.01380111e+03 1.77220586e+01
v 6.09400000e+03 5.02631647e+03 1.36987344e+01
v 6.09400000e+03 5.02601035e+03 1.36877188e+01
v 6.09400000e+03 5.01764783e+03 1.52928414e+01
v 6.09400000e+03 5.01775080e+03 1.46157078e+01
v 6.09400000e+03 5.01779246e+03 1.49995890e+01
v 6.09400000e+03 5.01440874e+03 1.54673837e+01
v 6.09400000e+03 5.01522382e+03 1.54907949e+01
v 6.09400000e+03 5.01396446e+03 1.54768444e+01
v 6.09400000e+03 5.01792777e+03 1.46842896e+01
v 6.09400000e+03 5.01790413e+03 1.44423316e+01
v 6.09400000e+03 5.01614590e+03 1.42538375e+01
v 6.09400000e+03 5.01628945e+03 1.41914474e+01
v 6.09400000e+03 5.02962264e+03 1.38452078e+01
v 6.09400000e+03 5.02708771e+03 1.37242010e+01
v 6.09400000e+03 5.01796515e+03 1.42792312e+01
v 6.09400000e+03 5.02519368e+03 1.37305805e+01
v 6.09400000e+03 5.02440670e+03 1.38417812e+01
v 6.09400000e+03 5.01965870e+03 1.40098763e+01
v 6.09400000e+03 5.01982096e+03 1.38893754e+01
v 6.09400000e+03 5.01949924e+03 1.40980332e+01
v 6.09400000e+03 5.01868762e+03 1.46100166e+01
v 6.09400000e+03 5.01891341e+03 1.46181809e+01
v 6.09400000e+03 5.02110376e+03 1.38365907e+01
v 6.09400000e+03 5.02220288e+03 1.37893060e+01
v 6.09400000e+03 5.01559985e+03 1.53297544e+01
v 6.09400000e+03 5.01730960e+03 1.43086047e+01
v 6.09400000e+03 5.02399888e+03 1.37681646e+01
v 6.09400000e+03 5.02419600e+03 1.37807935e+01
v 6.09400000e+03 5.01834784e+03 1.45056551e+01
v 6.09400000e+03 5.01348734e+03 1.68556270e+01
v 6.09400000e+03 5.00064821e+03 1.82798508e+01
v 6.09400000e+03 5.01540277e+03 1.54109056e+01
v 6.09400000e+03 5.00000000e+03 1.68132588e+01
v 6.09400000e+03 5.00001551e+03 1.67863146e+01
v 6.09400000e+03 5.00000000e+03 1.47222548e+01
v 6.06234672e+03 5.03150000e+03 1.43920038e+01
v 6.06235983e+03 5.03150000e+03 1.32325997e+01
v 6.06235234e+03 5.03150000e+03 9.22961684e+00
v 6.06323541e+03 5.03150000e+03 8.93146750e+00
v 6.06351659e+03 5.03150000e+03 8.52172985e+00
v 6.07617049e+03 5.03150000e+03 7.94896536e+00
v 6.07386451e+03 5.03150000e+03 7.65862812e+00
v 6.08209704e+03 5.03150000e+03 1.44145582e+01
v 6.08166179e+03 5.03150000e+03 1.42929359e+01
v 6.08163533e+03 5.03150000e+03 1.41878739e+01
v 6.08082166e+03 5.03150000e+03 1.25900074e+01
v 6.07714754e+03 5.03150000e+03 7.63873880e+00
v 6.07834971e+03 5.03150000e+03 7.70207808e+00
v 6.07982931e+03 5.03150000e+03 1.13190465e+01
v 6.07951705e+03 5.03150000e+03 1.06792333e+01
v 6.07942020e+03 5.03150000e+03 8.56758198e+00
v 6.07919127e+03 5.03150000e+03 8.32147879e+00
v 6.06963761e+03 5.03150000e+03 7.61003931e+00
v 6.06876197e+03 5.03150000e+03 7.62954869e+00
v 6.06573380e+03 5.03150000e+03 7.89110705e+00
v 6.06477246e+03 5.03150000e+03 7.90509072e+00
v 6.06623720e+03 5.03150000e+03 7.71288963e+00
v 6.07336492e+03 5.03150000e+03 7.50536241e+00
v 6.09024884e+03 5.03150000e+03 1.41536729e+01
v 6.09170599e+03 5.03150000e+03 1.42038517e+01
v 6.09256452e+03 5.03150000e+03 1.41510683e+01
v 6.09213417e+03 5.03150000e+03 1.42472038e+01
v 6.08791757e+03 5.03150000e+03 1.45783790e+01
v 6.08716258e+03 5.03150000e+03 1.42415121e+01
v 6.08853391e+03 5.03150000e+03 1.43777861e+01
v 6.08411634e+03 5.03150000e+03 1.44300818e+01
v 6.08486488e+03 5.03150000e+03 1.43332416e+01
v 6.08656847e+03 5.03150000e+03 1.42874634e+01
v 6.06248397e+03 5.03150000e+03 1.39500006e+01
v 6.06242716e+03 5.03150000e+03 1.36216809e+01
v 6.06232339e+03 5.03150000e+03 1.44566614e+01
v 6.06225000e+03 5.03150000e+03 1.46599892e+01
v 6.06225000e+03 5.03150000e+03 1.26068929e+01
v 6.06225000e+03 5.03150000e+03 9.35070146e+00
v 6.09324631e+03 5.03150000e+03 1.39910951e+01
v 6.09365797e+03 5.03150000e+03 1.38945054e+01
v 6.09400000e+03 5.03150000e+03 1.38875825e+01
vt 0.040160738 0.68387818
vt 0.0057811453 0.72173178
vt 0.0035851907 0.70723504
vt 0.0035639189 0.64103985
vt 0.031991437 0.71557605
vt 0.0035890921 0.71916759
vt 0.048639543 0.5977354
vt 0.056858134 0.71803856
vt 0.0035901801 0.72252911
vt 0.0035571908 0.62062997
vt 0.14353265 0.60079741
vt 0.025614152 0.8338604
vt 0.10752704 0.70841098
vt 0.0035912995 0.72606373
vt 0.0035540918 0.61100399
vt 0.085417539 0.50457704
vt 0.092866674 0.77554339
vt 0.0036315101 0.84795064
vt 0.21211506 0.50453579
vt 0.18744205 0.7089206
vt 0.086699724 0.86765099
vt 0.0036380743 0.86636651
vt 0.15171635 0.78250557
vt 0.0035241174 0.52217913
vt 0.22651058 0.54720652
vt 0.22394109 0.66628629
vt 0.062084474 0.87864053
vt 0.10356572 0.80702174
vt 0.13721699 0.79778844
vt 0.0035208173 0.50900513
vt 0.22166532 0.52034295
vt 0.22612658 0.79100412
vt 0.24277139 0.69693089
vt 0.052152276 0.92305416
vt 0.11258939 0.8378768
vt 0.11281641 0.79127562
vt 0.0036474278 0.89852226
vt 0.010577233 0.50460088
vt 0.26969808 0.62361801
vt 0.23547338 0.50452673
vt 0.2583009 0.50452197
vt 0.26319841 0.70662642
vt 0.1766561 0.80323601
vt 0.037151236 0.92414558
vt 0.10411605 0.85688823
vt 0.0035192233 0.50460267
vt 0.26028472 0.56617945
vt 0.31464955 0.66976255
vt 0.27655265 0.52450657
vt 0.30404088 0.78214628
vt 0.20643888 0.81961465
vt 0.031183451 0.95282543
vt 0.0036510769 0.9154579
vt 0.26673388 0.55277109
vt 0.26851812 0.58322227
vt 0.30476928 0.60375196
vt 0.28942034 0.50450826
vt 0.27007225 0.85665894
vt 0.30857256 0.71817613
vt 0.19424401 0.82197416
vt 0.223957 0.83194244
vt 0.29201692 0.69225556
vt 0.0079060635 0.96606606
vt 0.0036611035 0.95849997
vt 0.28943768 0.57569635
vt 0.35944861 0.58299923
vt 0.31875926 0.53779984
vt 0.30909368 0.55472076
vt 0.33152375 0.82363403
vt 0.37561062 0.77656221
vt 0.17728899 0.81454974
vt 0.31709424 0.69131976
vt 0.013943831 0.97544098
vt 0.29797989 0.56783974
vt 0.28636256 0.59455204
vt 0.38559356 0.58496302
vt 0.3449049 0.55936313
vt 0.32140908 0.53138065
vt 0.36803016 0.80545974
vt 0.32345226 0.89382219
vt 0.35520321 0.72365642
vt 0.18468134 0.83896029
vt 0.33819094 0.68337345
vt 0.0036640202 0.97070473
vt 0.0036640579 0.96966612
vt 0.40528595 0.63388735
vt 0.33617032 0.50449204
vt 0.40055773 0.87924778
vt 0.34380028 0.71227992
vt 0.40516287 0.79615027
vt 0.39642948 0.7473039
vt 0.19831021 0.84449118
vt 0.35524699 0.68942851
vt 0.0036689078 0.98122466
vt 0.41133049 0.56005645
vt 0.38446793 0.66732383
vt 0.39675236 0.83229768
vt 0.35566962 0.91408318
vt 0.41707024 0.78441691
vt 0.37371719 0.70404792
vt 0.37791196 0.72681725
vt 0.20659167 0.83810681
vt 0.0036762797 0.99376142
vt 0.40799594 0.54396963
vt 0.44266713 0.56925702
vt 0.40051147 0.6575973
vt 0.41654104 0.84601229
vt 0.42005035 0.95164728
vt 0.44955868 0.8106035
vt 0.43598577 0.81167501
vt 0.39818805 0.72286564
vt 0.43017191 0.76583022
vt 0.39093244 0.70013952
vt 0.44142818 0.52825934
vt 0.45521268 0.61985719
vt 0.41205439 0.67484295
vt 0.42685303 0.64373881
vt 0.44700438 0.84445822
vt 0.49975616 0.91564548
vt 0.38895291 0.94519269
vt 0.40765151 0.74103093
vt 0.39044094 0.71390676
vt 0.42017466 0.52386367
vt 0.46941388 0.59662777
vt 0.43987012 0.63807291
vt 0.47314844 0.52717507
vt 0.49259073 0.88111895
vt 0.49975476 0.91086245
vt 0.4765757 0.98320228
vt 0.41180232 0.96044695
vt 0.47341698 0.79259682
vt 0.44936049 0.8173086
vt 0.4147597 0.73205268
vt 0.40108305 0.72002351
vt 0.40506169 0.52552545
vt 0.44151199 0.5044629
vt 0.464578 0.57035184
vt 0.48418874 0.51353323
vt 0.48138243 0.54778802
vt 0.44753927 0.65869379
vt 0.48115277 0.83308226
vt 0.49975976 0.92769575
vt 0.40270332 0.97742873
vt 0.46150285 0.77249402
vt 0.49349317 0.81033403
vt 0.45992127 0.83122694
vt 0.44127941 0.74812341
vt 0.42292586 0.69601142
vt 0.42522436 0.5044663
vt 0.39510265 0.53258157
vt 0.47253758 0.50445712
vt 0.42638254 0.50446594
vt 0.49973422 0.85136926
vt 0.49975011 0.89810133
vt 0.49977109 0.96730298
vt 0.47734731 0.99664068
vt 0.46393213 0.9966445
vt 0.34450397 0.94155943
vt 0.48619363 0.77538723
vt 0.49392882 0.79599863
vt 0.41714695 0.72375858
vt 0.42552474 0.50446618
vt 0.41359258 0.50447249
vt 0.38036841 0.52778804
vt 0.4920207 0.50444865
vt 0.49974358 0.87943208
vt 0.49972808 0.83419502
vt 0.49974471 0.88580352
vt 0.49443576 0.99663794
vt 0.47062191 0.99664181
vt 0.48800239 0.99663901
vt 0.44116464 0.99665242
vt 0.35754755 0.99010885
vt 0.3691301 0.92967683
vt 0.4997167 0.80912137
vt 0.49972093 0.81415057
vt 0.44002151 0.71197712
vt 0.49974442 0.88251203
vt 0.49978006 0.99663633
vt 0.41436592 0.99665868
vt 0.39294049 0.99666709
vt 0.33084941 0.94890857
vt 0.49970669 0.7851491
vt 0.49970728 0.79996204
vt 0.49971861 0.81161392
vt 0.43925107 0.73010218
vt 0.3946797 0.50447464
vt 0.40473312 0.99665958
vt 0.38365692 0.99666959
vt 0.31449765 0.98018873
vt 0.32859913 0.92051762
vt 0.49970579 0.79112625
vt 0.49970624 0.79643404
vt 0.450569 0.72464848
vt 0.43239194 0.73833972
vt 0.37880072 0.51484352
vt 0.35703763 0.99667776
vt 0.31378901 0.99669087
vt 0.30456945 0.96709472
vt 0.29766741 0.93125319
vt 0.33586839 0.90885007
vt 0.45567343 0.73305047
vt 0.45961851 0.74465275
vt 0.38583866 0.50447547
vt 0.34534052 0.9966805
vt 0.30684036 0.99626607
vt 0.28146097 0.9692564
vt 0.29536316 0.95045251
vt 0.31299922 0.91909969
vt 0.31936368 0.89773631
vt 0.44953027 0.7505697
vt 0.30698961 0.99669445
vt 0.29694688 0.90218693
vt 0.29968408 0.88709944
vt 0.29190913 0.88924509
vt 0.5410921 0.89538431
vt 0.55660313 0.90591592
vt 0.53918153 0.91595739
vt 0.5047307 0.91492432
vt 0.57147282 0.88743371
vt 0.50478613 0.91330999
vt 0.53890592 0.86075163
vt 0.51626778 0.88794434
vt 0.5044136 0.91491836
vt 0.56373239 0.82722294
vt 0.53028166 0.86700904
vt 0.6022402 0.82554692
vt 0.53468758 0.85688198
vt 0.56799519 0.81067979
vt 0.59977001 0.8733623
vt 0.53602356 0.82551241
vt 0.55114901 0.81038755
vt 0.61762542 0.87827444
vt 0.59450221 0.89073485
vt 0.53925729 0.82137764
vt 0.62886196 0.82631773
vt 0.6423499 0.84381515
vt 0.62746131 0.89854759
vt 0.6779058 0.81590855
vt 0.63574117 0.87746161
vt 0.6011166 0.90798467
vt 0.67923522 0.85745543
vt 0.66220438 0.88435853
vt 0.61879689 0.92124242
vt 0.58064497 0.91368687
vt 0.71978271 0.83755088
vt 0.66814035 0.90801597
vt 0.68397367 0.88476247
vt 0.70710915 0.87111884
vt 0.59668469 0.92666239
vt 0.65726584 0.92838353
vt 0.69281137 0.86833417
vt 0.73021984 0.86371893
vt 0.61113232 0.93904722
vt 0.68195111 0.92882389
vt 0.6596275 0.94420391
vt 0.69778275 0.90244025
vt 0.74527425 0.85222018
vt 0.72828192 0.89386177
vt 0.64947563 0.95250249
vt 0.59729934 0.96142501
vt 0.68430358 0.91296405
vt 0.75179273 0.86097455
vt 0.75787991 0.8889215
vt 0.62193739 0.97565061
vt 0.69186395 0.92220193
vt 0.73022234 0.91955602
vt 0.74742144 0.90136594
vt 0.63809127 0.97523195
vt 0.63993955 0.99537182
vt 0.70190728 0.92300719
vt 0.73847061 0.9302029
vt 0.75805432 0.92525744
vt 0.75634217 0.93829727
vt 0.26628312 0.99552697
vt 0.27274933 0.98914725
vt 0.2733447 0.99028158
vt 0.25772852 0.99584931
vt 0.26410091 0.99661815
vt 0.27150527 0.98560196
vt 0.2619409 0.97138798
vt 0.2720702 0.97668672
vt 0.24054052 0.97350848
vt 0.27333924 0.9733398
vt 0.19988768 0.99608046
vt 0.26118439 0.95318717
vt 0.2731179 0.97293818
vt 0.19081947 0.9703455
vt 0.23141047 0.95223463
vt 0.26532114 0.95377183
vt 0.26979119 0.96332777
vt 0.17328283 0.98789299
vt 0.25873268 0.92470849
vt 0.26394835 0.95089775
vt 0.1578739 0.9781251
vt 0.15652993 0.99611676
vt 0.20117064 0.95206177
vt 0.27305636 0.94095457
vt 0.24177346 0.92924964
vt 0.16982774 0.94718587
vt 0.2263137 0.93852365
vt 0.27186254 0.93553609
vt 0.13438779 0.97187352
vt 0.1320454 0.98939627
vt 0.17684071 0.935799
vt 0.19885713 0.93739903
vt 0.27152559 0.93208945
vt 0.12591615 0.94354123
vt 0.10060813 0.99385709
vt 0.14983857 0.92956525
vt 0.27022222 0.92780495
vt 0.11445532 0.9647913
vt 0.10735732 0.97040135
vt 0.086786695 0.96314365
vt 0.12694819 0.93354577
vt 0.070639797 0.94167888
vt 0.11125066 0.92683446
vt 0.099362694 0.9374879
vt 0.071829572 0.96366268
vt 0.067138113 0.92771441
vt 0.8682192 0.96775645
vt 0.84933454 0.88378656
vt 0.91171288 0.90349126
vt 0.91172695 0.94929141
vt 0.81609011 0.93018186
vt 0.87279451 0.8467803
vt 0.91174126 0.99622166
vt 0.91170436 0.87621802
vt 0.91169631 0.85148615
vt 0.90610409 0.79831213
vt 0.91168183 0.80319464
vt 0.91168034 0.79818606
vt 0.91167861 0.7938236
vt 0.55837113 0.6529901
vt 0.54445273 0.65631878
vt 0.52331305 0.63243961
vt 0.54464167 0.62224603
vt 0.59174091 0.68045366
vt 0.52199131 0.64600337
vt 0.59666485 0.69763601
vt 0.53314334 0.66456044
vt 0.63469076 0.70437431
vt 0.53843135 0.70977819
vt 0.65862542 0.71603626
vt 0.56450707 0.74682826
vt 0.51125282 0.72024554
vt 0.63055205 0.74680626
vt 0.55082494 0.74683249
vt 0.62274778 0.7468105
vt 0.5035063 0.74684501
vt 0.66657948 0.74679148
vt 0.51137424 0.74684441
vt 0.68643409 0.73738599
vt 0.68184978 0.74678987
vt 0.70063293 0.74678308
vt 0.74177563 0.96312475
vt 0.75909287 0.97847801
vt 0.74359876 0.98085326
vt 0.72801292 0.98136491
vt 0.78718942 0.97002167
vt 0.75728577 0.99651331
vt 0.73689222 0.99389303
vt 0.71506947 0.96983707
vt 0.80681533 0.96417302
vt 0.78339332 0.97868562
vt 0.77818054 0.98428154
vt 0.72283882 0.98971415
vt 0.70550579 0.9794122
vt 0.6897524 0.96822482
vt 0.80564433 0.97530919
vt 0.68985921 0.99261677
vt 0.82554173 0.97482455
vt 0.84484738 0.96321815
vt 0.67888314 0.99053532
vt 0.67432284 0.98298335
vt 0.6595906 0.98083049
vt 0.66833365 0.9685837
vt 0.79735035 0.86456561
vt 0.82173365 0.85563987
vt 0.82538104 0.86862504
vt 0.74893725 0.85222822
vt 0.82350677 0.83496284
vt 0.75811261 0.83066058
vt 0.84736383 0.8569746
vt 0.71259767 0.82995886
vt 0.77216947 0.80917639
vt 0.84777695 0.85289299
vt 0.84835696 0.86392355
vt 0.71443725 0.80867726
vt 0.81213295 0.81061101
vt 0.84826642 0.84805602
vt 0.69105762 0.79518664
vt 0.74445069 0.78526145
vt 0.79044944 0.77928138
vt 0.83970344 0.82624197
vt 0.84675759 0.83195603
vt 0.69436103 0.78492367
vt 0.72591186 0.7774483
vt 0.83252686 0.78954083
vt 0.83954346 0.81809819
vt 0.84906489 0.84028792
vt 0.71328098 0.77443373
vt 0.73718417 0.76727879
vt 0.79667211 0.75737691
vt 0.82088107 0.76795453
vt 0.84692878 0.79999214
vt 0.84193665 0.7835654
vt 0.84833622 0.79363036
vt 0.82383168 0.75241065
vt 0.83990014 0.77607638
vt 0.84907746 0.79597437
vt 0.83079964 0.75914085
vt 0.56130797 0.9948824
vt 0.57173365 0.98063987
vt 0.59835696 0.98892355
vt 0.59852588 0.98996222
vt 0.55926138 0.99176884
vt 0.59730536 0.99691182
vt 0.59905702 0.99322855
vt 0.19301341 0.8859809
vt 0.19836269 0.88847083
vt 0.20839423 0.90148991
vt 0.17907721 0.89953041
vt 0.20444465 0.87966734
vt 0.21285997 0.89353406
vt 0.18497097 0.88272822
vt 0.18820314 0.87259567
vt 0.23017998 0.89991701
vt 0.16284803 0.87916982
vt 0.19055915 0.88216633
vt 0.19195594 0.85065782
vt 0.1454307 0.89104325
vt 0.17805484 0.88193786
vt 0.17949404 0.85618895
vt 0.22797024 0.86841816
vt 0.20897336 0.8956266
vt 0.14889233 0.87422627
vt 0.1632483 0.85926104
vt 0.24989326 0.86068243
vt 0.23908703 0.88343632
vt 0.14292583 0.8819899
vt 0.16611762 0.85253489
vt 0.26782247 0.89729005
vt 0.13865939 0.87117732
vt 0.14546616 0.85292131
vt 0.27286452 0.87999731
vt 0.28375444 0.87560636
vt 0.12876153 0.85616714
vt 0.94889075 0.7224226
vt 0.9340511 0.72873038
vt 0.94038993 0.70882279
vt 0.95755273 0.70820814
vt 0.94838363 0.75076771
vt 0.92697799 0.71537763
vt 0.97396028 0.71768433
vt 0.94891757 0.69168222
vt 0.96212494 0.74154341
vt 0.91968977 0.74142528
vt 0.91417438 0.73004091
vt 0.92302901 0.69595325
vt 0.95961571 0.68808782
vt 0.96072733 0.7628901
vt 0.93705124 0.76221883
vt 0.98207164 0.73748463
vt 0.93764317 0.67859834
vt 0.97031325 0.75239122
vt 0.91766167 0.76128322
vt 0.88483846 0.7521165
vt 0.91115111 0.7085622
vt 0.91330749 0.6746012
vt 0.95194381 0.77579999
vt 0.96727854 0.77428234
vt 0.93714446 0.77777022
vt 0.89211541 0.77543491
vt 0.8854304 0.73426771
vt 0.89661741 0.71094441
vt 0.91167188 0.70029873
vt 0.91242045 0.68941653
vt 0.93518156 0.66159344
vt 0.98551685 0.77724063
vt 0.89974952 0.78355378
vt 0.89653081 0.69736278
vt 0.9161374 0.66466701
vt 0.95859981 0.78656971
vt 0.91840625 0.79080147
vt 0.87889308 0.70887691
vt 0.94238287 0.79263914
vt 0.98325503 0.79016387
vt 0.93800592 0.80833292
vt 0.51733905 0.77673376
vt 0.51327127 0.7564761
vt 0.53548986 0.7520138
vt 0.55485606 0.77594763
vt 0.50361621 0.75100589
vt 0.56402153 0.75343412
vt 0.57599819 0.76899821
vt 0.57555199 0.7769171
vt 0.5791471 0.75240678
vt 0.60452235 0.75358224
vt 0.57113194 0.76836044
vt 0.60273439 0.77452785
vt 0.58502513 0.76196235
vt 0.63474935 0.76366222
vt 0.59233099 0.75471932
vt 0.63387352 0.74918675
vt 0.59769523 0.75507176
vt 0.70794022 0.72010857
vt 0.70853758 0.70852011
vt 0.73180211 0.72090614
vt 0.71535629 0.73063588
vt 0.69145668 0.70741105
vt 0.73926443 0.69653094
vt 0.74382377 0.72889817
vt 0.71045059 0.67127687
vt 0.76442826 0.72009289
vt 0.73554808 0.74294364
vt 0.69639045 0.68148983
vt 0.74599171 0.66014349
vt 0.76155025 0.70642543
vt 0.76324773 0.72616535
vt 0.69726586 0.65899575
vt 0.7145859 0.64820826
vt 0.78225315 0.64272404
vt 0.76678437 0.69575167
vt 0.79174012 0.71178651
vt 0.75141472 0.74690747
vt 0.76145631 0.64596993
vt 0.77117455 0.74702162
vt 0.70333129 0.64923394
vt 0.81252879 0.67557549
vt 0.80006742 0.69181001
vt 0.80244213 0.65332139
vt 0.80061275 0.64837778
vt 0.58383954 0.5938766
vt 0.60308403 0.59886074
vt 0.59577316 0.61517155
vt 0.55703259 0.6193186
vt 0.60613298 0.58561981
vt 0.62018734 0.62134683
vt 0.55929166 0.59153664
vt 0.59465575 0.57968318
vt 0.52901292 0.58554691
vt 0.57307601 0.57504499
vt 0.50836909 0.60771346
vt 0.58387756 0.55685842
vt 0.50553983 0.61683863
vt 0.50790089 0.58254564
vt 0.54438102 0.56832111
vt 0.56160384 0.54758221
vt 0.50429946 0.60983276
vt 0.50627369 0.59288275
vt 0.52516186 0.56965005
vt 0.54667181 0.55610543
vt 0.58386332 0.54238147
vt 0.50384605 0.60759336
vt 0.5042029 0.60420835
vt 0.50731802 0.5805316
vt 0.53113371 0.56828606
vt 0.53848106 0.55245572
vt 0.52998 0.55543548
vt 0.16389583 0.91726756
vt 0.14149754 0.91754913
vt 0.1795596 0.90076244
vt 0.18796158 0.90330029
vt 0.14920166 0.89617586
vt 0.18349336 0.91843951
vt 0.12144525 0.91058779
vt 0.19366547 0.89950335
vt 0.097755514 0.8920083
vt 0.18575667 0.90269727
vt 0.096411332 0.91761309
vt 0.081619352 0.90276474
vt 0.081214301 0.89642173
vt 0.083066314 0.90778095
vt 0.083270282 0.91794199
vt 0.81566685 0.61715758
vt 0.82627189 0.60037076
vt 0.85339808 0.61489189
vt 0.83500439 0.62455422
vt 0.85078597 0.59290397
vt 0.84847641 0.63491386
vt 0.82299095 0.63205576
vt 0.8705917 0.60153806
vt 0.87231362 0.63554108
vt 0.88578552 0.61617041
vt 0.84957689 0.66007501
vt 0.84054697 0.65075976
vt 0.88730246 0.59894955
vt 0.87814796 0.64777339
vt 0.88821989 0.63211811
vt 0.82436484 0.66829747
vt 0.90721208 0.5994029
vt 0.86578757 0.66031498
vt 0.83846968 0.66114509
vt 0.89826453 0.629987
vt 0.90606987 0.61271471
vt 0.89401317 0.65584242
vt 0.89154649 0.66654646
vt 0.84438127 0.68449044
vt 0.84387046 0.67099905
vt 0.86802298 0.67714614
vt 0.91596687 0.62652272
vt 0.90324748 0.64551055
vt 0.92814702 0.63613546
vt 0.90524882 0.65464759
vt 0.54667741 0.96351862
vt 0.56287545 0.96336901
vt 0.57064271 0.96578908
vt 0.52734935 0.97953802
vt 0.56104481 0.96151257
vt 0.57319021 0.98077929
vt 0.50441766 0.9600879
vt 0.59503472 0.96182299
vt 0.59239435 0.97814322
vt 0.57640189 0.96321821
vt 0.61574548 0.97781467
vt 0.65580374 0.524342
vt 0.65205085 0.51619434
vt 0.68034637 0.52650654
vt 0.68951797 0.54434985
vt 0.64042312 0.5292989
vt 0.69960886 0.52524096
vt 0.6543681 0.54659736
vt 0.64336431 0.53423482
vt 0.66348058 0.56081975
vt 0.68193626 0.56468427
vt 0.6534254 0.56871116
vt 0.63871574 0.55247033
vt 0.70692205 0.57060933
vt 0.68792588 0.58062458
vt 0.67225391 0.57908046
vt 0.62818617 0.56973064
vt 0.70247072 0.58660972
vt 0.65495384 0.58731318
vt 0.63637865 0.5854739
vt 0.67779714 0.59870458
vt 0.66677362 0.59356129
vt 0.69718021 0.60352468
vt 0.65976739 0.6083957
vt 0.64025384 0.59538954
vt 0.67245317 0.62165451
vt 0.654369 0.6078949
vt 0.69341075 0.61646557
vt 0.7937637 0.56661582
vt 0.78947067 0.58858681
vt 0.77162641 0.5816887
vt 0.77166736 0.55554628
vt 0.80371803 0.57849276
vt 0.77674848 0.59616351
vt 0.79263699 0.54435301
vt 0.76428121 0.58728766
vt 0.81305802 0.56601959
vt 0.80962783 0.59731162
vt 0.78106171 0.610515
vt 0.80805612 0.5535953
vt 0.77912396 0.54204917
vt 0.75409997 0.56221408
vt 0.81659788 0.57655644
vt 0.79975837 0.62110329
vt 0.82228309 0.60774779
vt 0.80536699 0.54254323
vt 0.75589019 0.54908836
vt 0.78670043 0.51853043
vt 0.79434377 0.52121919
vt 0.76950753 0.53234076
vt 0.81456667 0.52653366
vt 0.9062652 0.53665757
vt 0.88732731 0.55956197
vt 0.85939926 0.54643893
vt 0.8386606 0.53957748
vt 0.90945232 0.55707145
vt 0.86440182 0.55862188
vt 0.86605632 0.49628896
vt 0.81648618 0.53207839
vt 0.84690577 0.48368299
vt 0.82559723 0.4952876
vt 0.03623746 0.45967752
vt 0.033774842 0.48282713
vt 0.01527625 0.46812189
vt 0.004654658 0.45436692
vt 0.044492688 0.48802751
vt 0.036672223 0.45465285
vt 0.035769749 0.49640363
vt 0.059396755 0.46804887
vt 0.053571694 0.45563024
vt 0.0088935643 0.44367862
vt 0.064397201 0.48509574
vt 0.044288568 0.43865442
vt 0.031231752 0.44303346
vt 0.079722866 0.48095924
vt 0.076660044 0.45051247
vt 0.060284141 0.43112493
vt 0.021192184 0.41905123
vt 0.069961809 0.46649414
vt 0.041899052 0.41086733
vt 0.092116088 0.46570832
vt 0.054176822 0.41139036
vt 0.028737376 0.41548371
vt 0.052059665 0.40488005
vt 0.024998266 0.40794921
vt 0.19354402 0.45897287
vt 0.20517898 0.47141987
vt 0.17272495 0.46605802
vt 0.17673232 0.45308226
vt 0.2155053 0.46727413
vt 0.18413609 0.49068278
vt 0.18117455 0.441957
vt 0.15409802 0.45819855
vt 0.22003704 0.44874024
vt 0.17076176 0.49339408
vt 0.16673899 0.44759673
vt 0.21216863 0.43162602
vt 0.15345293 0.47136778
vt 0.15335004 0.49064296
vt 0.18333741 0.42750227
vt 0.16202095 0.43471467
vt 0.13328177 0.46054649
vt 0.14040715 0.42992634
vt 0.1367389 0.49641705
vt 0.12968867 0.44708741
vt 0.1340678 0.4832893
vt 0.15743203 0.41821718
vt 0.13873266 0.41347992
vt 0.29299992 0.45134479
vt 0.31075004 0.45624292
vt 0.28375405 0.46655786
vt 0.2762875 0.45429772
vt 0.29666948 0.43305701
vt 0.29638499 0.48194462
vt 0.25383341 0.44976282
vt 0.27834612 0.44276738
vt 0.31808248 0.43730217
vt 0.27827191 0.47990239
vt 0.31708154 0.47391939
vt 0.26694265 0.43116111
vt 0.25536501 0.47030377
vt 0.28619662 0.42338473
vt 0.32476628 0.41201711
vt 0.33224609 0.45174122
vt 0.27366367 0.49619502
vt 0.32627827 0.48518163
vt 0.29997814 0.40536225
vt 0.25420141 0.49384618
vt 0.68472773 0.68018615
vt 0.63001227 0.66119128
vt 0.67500204 0.67574179
vt 0.68660551 0.68364453
vt 0.64337045 0.67069316
vt 0.59826428 0.6646921
vt 0.59802508 0.64809418
vt 0.60075253 0.63022465
vt 0.39384493 0.44513804
vt 0.37870473 0.44988734
vt 0.38497165 0.43468183
vt 0.39987183 0.43797624
vt 0.3920055 0.46591729
vt 0.38026875 0.42519981
vt 0.40364781 0.45466888
vt 0.383322 0.46820456
vt 0.40287739 0.4258616
vt 0.41567457 0.44005728
vt 0.40957353 0.45926452
vt 0.39078039 0.41454107
vt 0.40708119 0.48387265
vt 0.42188883 0.42950332
vt 0.42291278 0.45228833
vt 0.42700472 0.47390127
vt 0.43389997 0.44396675
vt 0.41453272 0.49552733
vt 0.45434439 0.45618528
vt 0.44180068 0.46325278
vt 0.42504039 0.49490714
vt 0.46197715 0.45229322
vt 0.43655083 0.47002727
vt 0.45043468 0.47516054
vt 0.46833512 0.46750671
vt 0.46147555 0.47775382
vt 0.45530447 0.4866432
vt 0.022218242 0.99395108
vt 0.055690371 0.99590719
vt 0.020374754 0.99645209
vt 0.041094773 0.99228156
vt 0.021093527 0.9893012
vt 0.057008594 0.99372923
vt 0.057757098 0.99255043
vt 0.069124967 0.99001545
vt 0.04692135 0.98181617
vt 0.10476169 0.99046654
vt 0.55382359 0.46975172
vt 0.54524773 0.48649222
vt 0.53157115 0.46403486
vt 0.5559454 0.45426083
vt 0.57514101 0.48409975
vt 0.53119117 0.47931546
vt 0.54306728 0.43937528
vt 0.56999177 0.49565774
vt 0.51607764 0.47274017
vt 0.52685732 0.44454157
vt 0.56540078 0.4546963
vt 0.52077878 0.45888007
vt 0.54575539 0.42753291
vt 0.5795725 0.4690336
vt 0.51051736 0.4653334
vt 0.51339334 0.44550282
vt 0.52399498 0.42193514
vt 0.50431269 0.45043314
vt 0.50309539 0.44128203
vt 0.53728235 0.41167945
vt 0.83186901 0.98113614
vt 0.83237398 0.99591231
vt 0.8199169 0.98677307
vt 0.76882422 0.98460716
vt 0.8519482 0.9886992
vt 0.91002041 0.98037648
vt 0.92964149 0.97040266
vt 0.92562675 0.99496603
vt 0.94007695 0.98869693
vt 0.9426344 0.97383785
vt 0.95490307 0.99346536
vt 0.95381045 0.97886884
vt 0.97374529 0.98208398
vt 0.98080558 0.99699342
vt 0.99031061 0.98587954
vt 0.9925226 0.99664646
vt 0.98154932 0.95689631
vt 0.97779584 0.94172007
vt 0.99892122 0.93516213
vt 0.97195303 0.96540183
vt 0.99161321 0.91857225
vt 0.95866346 0.94861251
vt 0.9982838 0.92264014
vt 0.96440822 0.92088503
vt 0.97943878 0.9105463
vt 0.94055909 0.92115521
vt 0.97271192 0.90344554
vt 0.99500102 0.89872217
vt 0.94953245 0.90936387
vt 0.98662817 0.89443159
vt 0.79565752 0.86912465
vt 0.79124284 0.88788825
vt 0.75404662 0.89689004
vt 0.81614649 0.88485485
vt 0.75827754 0.91246992
vt 0.80781829 0.90544277
vt 0.76774621 0.92206138
vt 0.78809756 0.92545605
vt 0.7617448 0.93341678
vt 0.67055213 0.80794358
vt 0.6548959 0.78496242
vt 0.6698665 0.79513913
vt 0.64400357 0.7997058
vt 0.66400349 0.77441597
vt 0.63840276 0.77654159
vt 0.65086704 0.76548749
vt 0.67999208 0.78475529
vt 0.63449174 0.78186655
vt 0.67563772 0.75752306
vt 0.67219645 0.77246296
vt 0.62889123 0.79245329
vt 0.64557809 0.7670247
vt 0.65793669 0.75157464
vt 0.68381244 0.7677418
vt 0.64715302 0.76440901
vt 0.65369016 0.74843717
vt 0.69166017 0.78784728
vt 0.64888763 0.76157045
vt 0.65495354 0.74634945
vt 0.056749601 0.9433167
vt 0.071137428 0.91209173
vt 0.061947573 0.9558267
vt 0.035482507 0.96393132
vt 0.51227117 0.9558267
vt 0.50308132 0.91209173
vt 0.53873622 0.96393132
vt 0.6865319 0.96341705
vt 0.6969555 0.94735754
vt 0.7109651 0.95897162
vt 0.68100286 0.93904477
vt 0.69764137 0.93417668
vt 0.66950005 0.94107759
vt 0.6609543 0.95002723
vt 0.66202646 0.96580982
vt 0.78502834 0.94763744
vt 0.80323488 0.93907535
vt 0.78896213 0.96531451
vt 0.80111444 0.9441582
vt 0.81519073 0.9456163
vt 0.81211364 0.95119971
vt 0.83414704 0.9616366
vt 0.89664704 0.9928866
vt 0.87461364 0.98244971
vt 0.86591536 0.96740311
vt 0.96383733 0.88229644
vt 0.96972758 0.89138556
vt 0.95531607 0.90210491
vt 0.94698852 0.89977628
vt 0.98493391 0.88617229
vt 0.94207126 0.88287038
vt 0.9889071 0.87543035
vt 0.95191085 0.86678463
vt 0.98055911 0.86640424
vt 0.063834682 0.98134428
vt 0.059735522 0.96766484
vt 0.09841913 0.96677864
vt 0.049920943 0.97770524
vt 0.65705144 0.9967221
vt 0.63675469 0.98563945
vt 0.68221796 0.99585307
vt 0.57383472 0.93358171
vt 0.57748324 0.94879866
vt 0.56882024 0.94274646
vt 0.54424334 0.92471695
vt 0.55472243 0.94828141
vt 0.54331052 0.9439472
vt 0.53438169 0.93675613
vt 0.94875044 0.96400142
vt 0.93445706 0.95065409
vt 0.94834334 0.95872581
vt 0.93633705 0.96478701
vt 0.94937539 0.94914681
vt 0.91101521 0.95971262
vt 0.95089817 0.94720054
vt 0.91910195 0.94651139
vt 0.92890787 0.93821418
vt 0.94500661 0.94285643
vt 0.93489552 0.93705916
vt 0.71989286 0.9647764
vt 0.70676595 0.94304872
vt 0.73664117 0.96099854
vt 0.73584223 0.9467805
vt 0.74360067 0.94292212
vt 0.14311141 0.830746
vt 0.15314035 0.83054769
vt 0.1348366 0.84000212
vt 0.13092527 0.83479106
vt 0.15240437 0.81719184
vt 0.12872437 0.8166756
vt 0.16622192 0.82110894
vt 0.16451544 0.80704808
vt 0.15077382 0.80338031
vt 0.93825793 0.91010642
vt 0.93960631 0.9247359
vt 0.92738074 0.92705756
vt 0.91653478 0.91328883
vt 0.93102068 0.93390763
vt 0.92691928 0.90031737
vt 0.92205763 0.9267453
vt 0.91111636 0.89637494
vt 0.93750548 0.90020037
vt 0.92631894 0.89577347
vt 0.64995778 0.98101515
vt 0.64437526 0.96785259
vt 0.65966129 0.9696117
vt 0.6489253 0.95331371
vt 0.86582553 0.97994697
vt 0.86200947 0.99591154
vt 0.85172755 0.9785881
vt 0.8624112 0.96920866
vt 0.84762233 0.97167122
vt 0.84976244 0.97637647
vt 0.97357601 0.97957236
vt 0.97926134 0.95917648
vt 0.99402696 0.96388054
vt 0.6098187 0.98287803
vt 0.61814553 0.97826481
vt 0.60331732 0.99694657
vt 0.59690464 0.98125142
vt 0.015933778 0.99219
vt 0.014482898 0.97837257
vt 0.015176017 0.97865659
vt 0.012628441 0.99527705
vt 0.015148491 0.97832358
vt 0.012294652 0.99210322
vt 0.019210789 0.99131286
vt 0.0042522079 0.9953559
vt 0.54619402 0.98107499
vt 0.53749573 0.99612159
vt 0.53441864 0.99053818
vt 0.070001155 0.99699634
vt 0.058878709 0.98965651
vt 0.070000865 0.99567056
vt 0.0049002054 0.98734385
vt 0.0039827675 0.99374372
vt 0.0031311586 0.99589217
usemtl Tile_+031_+021_L19_000010_0
f 286/378 287/379 282/380
f 294/1 279/2 518/3
f 520/779 291/780 521/781
f 287/787 290/785 282/782
f 290/785 292/784 282/782
f 282/782 292/784 291/780
f 291/413 290/417 287/414
f 286/786 291/780 292/784
f 274/381 287/379 286/378
f 522/22 293/27 523/37
f 291/413 287/414 598/415
f 286/786 292/784 290/785
f 290/744 274/745 286/746
f 291/747 274/745 290/744
f 527/15 289/7 528/10
f 286/52 285/63 288/44
f 288/44 285/63 535/64
f 282/73 285/63 286/52
f 525/84 282/73 537/94
f 279/2 280/5 340/8
f 279/2 281/12 533/18
f 538/395 275/390 539/400
f 601/407 284/405 602/410
f 541/406 278/399 600/408
f 517/964 432/965 440/966
f 443/789 455/790 419/791
f 247/617 249/618 248/619
f 194/334 196/335 314/336
f 310/216 205/217 328/218
f 515/825 232/826 376/827
f 497/677 498/678 496/679
f 499/576 511/577 403/578
f 349/752 352/753 351/754
f 323/765 371/768 358/761
f 429/701 457/702 438/703
f 343/766 358/761 371/768
f 403/578 510/581 509/579
f 514/507 257/508 513/509
f 502/685 500/684 497/677
f 418/800 419/791 413/797
f 422/718 458/708 431/720
f 402/585 413/596 447/595
f 279/2 294/1 280/5
f 513/509 239/512 409/515
f 510/581 403/578 401/584
f 219/941 269/942 377/943
f 500/684 502/685 258/691
f 403/578 509/579 499/576
f 516/449 506/450 393/451
f 339/17 303/23 342/29
f 492/459 506/450 484/458
f 501/457 494/453 516/449
f 429/701 428/712 486/709
f 490/463 473/473 479/467
f 414/801 433/795 415/798
f 265/644 449/645 453/646
f 462/662 461/665 459/656
f 265/644 478/650 266/655
f 449/645 448/653 454/659
f 254/715 464/716 253/722
f 426/626 423/629 425/630
f 409/515 404/513 513/509
f 270/620 466/625 246/623
f 258/691 502/685 378/692
f 417/420 416/421 398/422
f 412/531 411/525 276/524
f 81/435 240/440 241/428
f 76/68 264/74 333/54
f 245/39 244/26 319/25
f 76/424 81/435 241/428
f 82/427 76/424 417/420
f 432/965 517/964 463/967
f 339/17 341/36 324/28
f 254/715 430/707 465/711
f 233/830 232/826 495/828
f 392/946 219/941 388/944
f 256/514 378/517 223/521
f 209/244 386/254 385/250
f 230/756 350/758 224/762
f 465/711 464/716 254/715
f 380/260 485/269 493/265
f 369/724 332/725 383/726
f 220/932 221/933 379/934
f 361/82 219/71 226/60
f 256/514 223/521 365/522
f 382/208 336/199 328/207
f 340/8 339/17 281/12
f 64/439 81/435 62/431
f 225/767 364/769 354/764
f 355/755 357/760 358/761
f 361/940 227/939 218/936
f 342/773 366/770 323/765
f 301/909 219/910 391/911
f 257/508 239/512 513/509
f 219/71 301/43 226/60
f 342/915 303/912 321/914
f 110/190 336/199 137/182
f 295/11 234/19 319/25
f 2/41 206/49 319/25
f 390/490 334/491 263/492
f 344/948 367/950 392/946
f 203/234 204/241 210/245
f 299/264 300/259 212/253
f 477/663 474/664 478/650
f 488/472 498/480 482/484
f 496/466 489/462 501/457
f 499/681 507/683 498/678
f 258/511 257/508 514/507
f 491/594 508/587 487/586
f 471/875 475/876 469/877
f 469/877 475/876 472/879
f 508/587 507/582 510/581
f 498/480 488/472 496/466
f 497/677 259/682 502/685
f 514/507 513/509 405/510
f 408/804 409/807 415/798
f 507/582 509/579 510/581
f 406/516 404/513 261/520
f 500/684 511/687 499/681
f 403/578 511/577 405/580
f 405/580 406/583 403/578
f 447/595 446/597 421/590
f 401/584 487/586 510/581
f 508/587 510/581 487/586
f 507/582 499/576 509/579
f 480/600 491/594 487/586
f 508/587 491/594 482/591
f 507/582 508/587 482/591
f 507/488 482/484 498/480
f 289/7 295/11 294/1
f 258/691 514/696 512/694
f 395/452 233/455 516/449
f 405/690 512/694 514/696
f 258/691 512/694 500/684
f 494/453 484/458 506/450
f 216/927 217/928 388/929
f 515/686 376/693 503/689
f 238/518 239/512 256/514
f 409/515 410/519 411/525
f 260/688 378/692 502/685
f 233/455 495/464 501/457
f 501/457 516/449 233/455
f 511/687 500/684 405/690
f 500/684 512/694 405/690
f 499/681 497/677 500/684
f 489/462 496/466 488/472
f 497/677 495/680 259/682
f 515/686 259/682 495/680
f 495/680 497/677 496/679
f 501/457 495/464 496/466
f 358/761 357/760 323/765
f 484/458 483/468 492/459
f 516/449 494/453 506/450
f 504/454 393/451 506/450
f 490/463 494/453 489/462
f 494/453 490/463 484/458
f 490/463 479/467 484/458
f 386/254 380/260 493/265
f 483/468 485/475 492/459
f 492/459 485/475 394/476
f 380/486 394/476 485/475
f 516/449 393/451 395/452
f 492/459 505/469 373/460
f 492/459 504/454 506/450
f 394/476 505/469 492/459
f 370/482 394/476 380/486
f 353/34 288/44 293/27
f 459/656 461/665 477/663
f 493/265 255/261 386/254
f 255/261 493/265 483/270
f 254/715 428/712 430/707
f 483/667 461/668 486/669
f 428/670 255/673 483/667
f 474/481 479/467 473/473
f 483/468 484/458 477/474
f 484/458 479/467 477/474
f 265/644 266/655 444/652
f 483/667 477/671 461/668
f 479/467 474/481 477/474
f 478/650 459/656 477/663
f 475/876 476/878 472/879
f 474/664 472/666 476/661
f 478/650 474/664 476/661
f 476/878 475/876 471/875
f 472/485 474/481 473/473
f 471/875 470/882 444/881
f 470/598 468/593 400/589
f 468/593 471/601 469/599
f 487/586 468/593 469/599
f 472/485 480/487 469/489
f 481/471 482/484 473/473
f 482/484 480/487 473/473
f 481/471 473/473 490/463
f 481/471 490/463 489/462
f 401/584 400/589 487/586
f 469/961 480/962 487/963
f 471/601 468/593 470/598
f 266/880 471/875 444/881
f 459/656 460/647 462/662
f 478/650 476/661 266/655
f 265/644 460/647 478/650
f 468/593 487/586 400/589
f 470/951 446/952 444/953
f 266/880 476/878 471/875
f 460/647 457/657 462/662
f 457/702 429/701 462/705
f 457/657 460/647 456/651
f 460/647 453/646 456/651
f 459/656 478/650 460/647
f 461/668 462/672 486/669
f 429/701 486/709 462/705
f 457/702 456/706 438/703
f 435/704 438/703 458/708
f 429/701 438/703 435/704
f 447/595 413/596 420/602
f 455/660 448/653 451/648
f 451/648 445/658 455/660
f 449/645 452/649 453/646
f 265/644 453/646 460/647
f 450/654 452/649 449/645
f 265/644 451/648 449/645
f 449/645 451/648 448/653
f 447/595 467/603 446/597
f 446/597 470/598 400/589
f 444/953 446/952 445/954
f 446/597 467/603 445/605
f 447/595 455/604 467/603
f 455/604 445/605 467/603
f 437/799 463/802 440/793
f 455/790 443/789 440/793
f 455/790 420/794 419/791
f 455/604 447/595 420/602
f 454/796 455/790 440/793
f 458/708 464/716 465/711
f 431/638 463/641 439/636
f 455/660 454/659 448/653
f 439/636 425/630 422/633
f 454/719 440/721 436/713
f 454/659 450/654 449/645
f 253/722 464/716 422/718
f 450/714 454/719 436/713
f 438/703 452/710 450/714
f 438/703 456/706 452/710
f 463/967 517/964 440/966
f 436/713 438/703 450/714
f 438/703 436/713 458/708
f 458/708 465/711 435/704
f 458/708 436/713 432/717
f 458/708 432/717 431/720
f 436/713 440/721 432/717
f 430/707 429/701 435/704
f 431/638 432/643 463/641
f 434/792 419/791 433/795
f 422/718 464/716 458/708
f 465/711 430/707 435/704
f 430/707 428/712 429/701
f 253/740 423/743 384/733
f 427/631 426/626 425/630
f 248/200 138/191 137/182
f 422/718 423/723 253/722
f 431/638 439/636 422/633
f 442/634 433/640 414/635
f 270/620 423/629 426/626
f 466/625 424/627 246/623
f 277/628 246/623 424/627
f 414/635 412/632 424/627
f 427/631 424/627 426/626
f 442/634 427/631 441/637
f 442/634 414/635 424/627
f 441/637 437/639 442/634
f 419/791 434/792 443/789
f 419/791 415/798 433/795
f 434/642 433/640 442/634
f 463/641 437/639 439/636
f 439/636 437/639 441/637
f 437/799 440/793 434/792
f 440/793 443/789 434/792
f 427/631 425/630 439/636
f 439/636 441/637 427/631
f 411/805 414/801 415/798
f 276/524 411/525 410/519
f 345/930 388/929 217/928
f 412/808 414/801 411/805
f 239/512 276/524 410/519
f 408/804 418/800 261/806
f 410/519 409/515 239/512
f 406/583 407/588 402/585
f 261/520 262/528 407/526
f 404/513 406/516 405/510
f 513/509 404/513 405/510
f 446/597 400/589 421/590
f 401/584 403/578 402/585
f 403/578 406/583 402/585
f 421/590 400/589 401/584
f 421/590 401/584 402/585
f 447/595 421/590 402/585
f 419/791 420/794 413/797
f 409/807 408/804 261/806
f 262/592 413/596 402/585
f 402/585 407/588 262/592
f 262/803 418/800 413/797
f 415/798 419/791 418/800
f 415/798 418/800 408/804
f 261/520 404/513 409/515
f 411/805 415/798 409/807
f 416/502 79/499 399/500
f 396/496 399/500 79/499
f 398/422 160/423 417/420
f 251/973 79/974 417/975
f 160/423 251/426 417/420
f 399/425 398/422 416/421
f 241/428 399/425 76/424
f 79/499 160/501 398/497
f 79/433 397/430 417/420
f 399/425 396/436 76/424
f 1/40 2/41 335/31
f 76/424 416/421 417/420
f 397/504 79/499 416/502
f 397/504 416/502 76/498
f 81/435 64/439 240/440
f 417/420 397/430 82/427
f 249/213 145/210 331/209
f 248/619 382/622 270/620
f 383/726 381/727 369/724
f 327/206 110/190 605/198
f 385/250 386/254 255/261
f 248/200 137/182 382/208
f 426/626 466/625 270/620
f 277/530 412/531 276/524
f 247/617 246/623 359/624
f 213/356 346/357 368/358
f 333/54 242/47 319/25
f 315/51 226/60 301/43
f 263/75 245/39 243/65
f 235/16 295/11 289/7
f 322/777 367/775 366/770
f 321/776 322/777 366/770
f 303/912 301/909 391/911
f 350/758 358/761 224/762
f 398/422 399/425 241/428
f 264/495 76/498 396/496
f 396/496 79/499 398/497
f 398/497 241/493 396/496
f 241/493 264/495 396/496
f 240/440 390/443 241/428
f 367/775 322/777 391/778
f 322/913 321/914 303/912
f 391/949 219/941 392/946
f 322/913 303/912 391/911
f 338/33 317/42 304/20
f 263/492 241/493 390/490
f 334/446 390/443 240/440
f 270/620 246/623 247/617
f 388/944 377/943 216/947
f 365/371 222/374 320/369
f 380/260 209/244 370/256
f 376/693 379/698 221/695
f 320/369 363/368 365/371
f 374/478 373/460 389/477
f 219/941 377/943 388/944
f 325/809 356/810 326/811
f 348/893 352/894 229/895
f 349/752 350/758 230/756
f 358/761 343/766 224/762
f 387/456 229/461 395/452
f 221/933 218/936 222/938
f 372/465 387/456 373/460
f 214/470 372/465 373/460
f 229/895 387/896 348/893
f 374/478 389/477 370/482
f 394/476 370/482 389/477
f 395/452 229/461 233/455
f 395/452 393/451 387/456
f 269/942 379/945 377/943
f 269/935 220/932 379/934
f 377/700 379/698 376/693
f 237/523 359/532 277/530
f 221/695 260/688 376/693
f 260/688 503/689 376/693
f 216/829 377/831 376/827
f 332/725 375/734 252/729
f 504/454 492/459 373/460
f 393/451 504/454 373/460
f 389/477 373/460 505/469
f 393/451 373/460 387/456
f 389/477 505/469 394/476
f 214/470 347/479 372/465
f 210/245 204/241 209/244
f 374/478 214/470 373/460
f 209/244 208/251 370/256
f 383/726 332/725 252/729
f 375/734 332/725 385/739
f 346/357 250/365 360/366
f 383/726 384/733 270/736
f 381/727 383/726 382/730
f 385/250 210/245 209/244
f 327/206 328/207 110/190
f 204/241 186/238 209/244
f 328/735 330/731 381/727
f 370/256 208/251 214/255
f 110/190 328/207 336/199
f 369/724 201/728 332/725
f 210/732 385/739 332/725
f 190/257 215/266 297/262
f 368/358 271/359 213/356
f 270/736 382/730 383/726
f 337/360 145/370 250/365
f 320/369 272/363 363/368
f 214/470 374/478 370/482
f 237/361 236/362 368/358
f 272/363 271/359 363/368
f 222/374 362/375 320/369
f 226/376 362/375 222/374
f 346/357 360/366 237/361
f 249/213 360/215 250/214
f 249/618 247/617 360/621
f 271/359 272/363 213/356
f 237/361 368/358 346/357
f 337/360 250/365 346/357
f 365/522 238/518 256/514
f 365/371 363/368 271/359
f 145/210 138/191 331/209
f 238/367 365/371 271/359
f 228/833 231/832 354/835
f 354/835 231/832 230/837
f 344/771 366/770 367/775
f 211/392 181/389 299/385
f 371/768 323/765 366/770
f 344/771 343/766 371/768
f 366/770 344/771 371/768
f 329/757 356/763 357/760
f 358/761 350/758 355/755
f 325/21 353/34 293/27
f 354/764 230/756 224/762
f 357/760 355/755 329/757
f 355/755 349/752 351/754
f 348/893 347/900 306/901
f 357/813 356/810 325/809
f 369/724 381/727 330/731
f 189/247 297/262 214/255
f 329/757 355/755 351/754
f 351/897 352/894 348/893
f 214/470 215/483 347/479
f 355/755 350/758 349/752
f 329/899 351/897 348/893
f 353/748 274/745 291/747
f 325/809 326/811 353/812
f 353/788 291/780 286/786
f 289/7 294/1 519/4
f 294/1 340/8 280/5
f 192/383 182/386 283/382
f 523/37 288/44 536/53
f 274/745 353/748 326/749
f 353/34 286/52 288/44
f 281/12 339/17 325/21
f 329/899 348/893 306/901
f 281/12 279/2 340/8
f 325/21 293/27 281/12
f 304/20 295/11 244/26
f 35/48 316/62 317/42
f 317/42 56/59 180/50
f 340/8 305/13 339/17
f 317/42 338/33 244/26
f 244/26 35/48 317/42
f 35/48 59/72 316/62
f 305/13 295/11 304/20
f 302/32 304/20 317/42
f 215/266 190/257 347/271
f 227/939 222/938 218/936
f 337/360 346/357 213/356
f 344/771 345/774 225/767
f 343/766 344/771 225/767
f 323/35 324/28 342/29
f 213/356 272/363 320/369
f 201/728 210/732 332/725
f 328/735 205/737 330/731
f 310/216 327/219 607/221
f 325/21 323/35 357/45
f 248/200 331/209 138/191
f 330/731 205/737 201/728
f 369/724 330/731 201/728
f 315/377 362/375 226/376
f 273/268 326/273 329/272
f 310/216 328/218 327/219
f 347/271 190/257 306/267
f 217/772 364/769 225/767
f 325/21 339/17 324/28
f 323/35 325/21 324/28
f 342/29 341/36 339/17
f 217/772 225/767 345/774
f 248/200 249/213 331/209
f 382/208 137/182 336/199
f 145/370 337/360 179/364
f 203/234 202/220 311/230
f 251/506 397/504 76/498
f 3/87 79/78 4/57
f 245/494 263/492 334/491
f 4/57 206/49 2/41
f 76/68 206/49 251/67
f 64/439 334/446 240/440
f 319/25 242/47 245/39
f 243/65 242/47 333/54
f 234/19 335/31 319/25
f 234/19 1/40 335/31
f 319/25 335/31 2/41
f 245/39 64/56 35/48
f 245/39 318/55 243/65
f 245/447 334/446 64/439
f 56/59 317/42 316/62
f 304/20 244/26 338/33
f 302/32 320/61 315/51
f 302/32 180/50 213/58
f 59/72 58/89 56/59
f 59/72 56/59 316/62
f 180/50 53/79 60/69
f 304/20 302/32 303/23
f 302/32 213/58 320/61
f 302/32 317/42 180/50
f 203/234 311/230 185/233
f 311/230 202/220 267/227
f 202/220 205/217 310/216
f 202/220 309/222 268/225
f 268/225 267/227 202/220
f 309/222 310/216 608/223
f 310/216 309/222 202/220
f 603/351 308/353 609/354
f 610/232 268/225 614/235
f 199/338 296/340 196/335
f 296/340 199/338 307/342
f 267/227 307/236 185/233
f 195/343 296/340 615/345
f 314/402 312/398 181/389
f 274/381 299/385 192/383
f 195/343 197/346 183/341
f 196/335 183/341 312/339
f 209/244 186/238 189/247
f 181/389 211/392 313/397
f 313/397 314/402 181/389
f 313/258 212/253 194/246
f 181/389 312/398 184/393
f 191/249 207/252 193/242
f 189/247 188/248 190/257
f 191/249 212/253 300/259
f 193/242 207/252 188/248
f 188/248 298/243 193/242
f 298/243 187/240 200/237
f 207/252 191/249 188/248
f 273/268 306/267 300/259
f 304/20 303/23 305/13
f 339/17 305/13 303/23
f 301/43 302/32 315/51
f 301/43 303/23 302/32
f 274/381 192/383 283/382
f 283/382 287/379 274/381
f 190/257 300/259 306/267
f 187/240 298/243 186/238
f 273/268 300/259 299/264
f 189/247 186/238 298/243
f 284/405 197/404 617/409
f 296/340 267/344 604/347
f 617/350 195/343 619/352
f 340/8 294/1 305/13
f 295/11 319/25 244/26
f 184/393 312/398 183/403
f 237/523 277/530 276/524
f 275/390 182/386 198/394
f 197/404 198/394 184/393
f 181/389 192/383 299/385
f 198/394 284/405 278/399
f 273/750 299/751 274/745
f 314/336 313/337 194/334
f 179/364 337/360 213/356
f 220/932 269/935 219/937
f 489/462 488/472 481/471
f 376/827 232/826 216/829
f 422/633 425/630 423/629
f 424/627 466/625 426/626
f 221/695 223/697 378/692
f 264/74 243/65 333/54
f 354/835 364/838 228/833
f 263/75 243/65 264/74
f 232/826 515/825 495/828
f 329/272 306/267 273/268
f 230/837 231/832 229/834
f 228/833 216/829 231/832
f 383/726 252/729 384/733
f 372/898 347/900 348/893
f 222/529 365/522 223/521
f 218/936 220/932 219/937
f 329/272 326/273 356/274
f 326/749 273/750 274/745
f 388/944 344/948 392/946
f 333/54 206/49 76/68
f 242/47 318/55 245/39
f 297/262 215/266 214/255
f 185/233 311/230 267/227
f 200/237 199/239 193/242
f 295/11 305/13 294/1
f 314/336 196/335 312/339
f 494/453 501/457 489/462
f 498/678 497/677 499/681
f 482/591 491/594 480/600
f 407/526 406/516 261/520
f 418/800 262/803 261/806
f 481/471 488/472 482/484
f 503/689 260/688 259/682
f 502/685 259/682 260/688
f 258/511 378/517 256/514
f 222/699 223/697 221/695
f 239/512 257/508 256/514
f 259/682 515/686 503/689
f 252/675 255/673 254/674
f 493/265 485/269 483/270
f 486/669 428/670 483/667
f 473/473 480/487 472/485
f 456/651 453/646 452/649
f 451/648 265/644 444/652
f 445/658 451/648 444/652
f 253/676 252/675 254/674
f 384/733 252/729 253/740
f 255/673 428/670 254/674
f 412/632 277/628 424/627
f 270/736 384/733 423/743
f 442/634 424/627 427/631
f 437/639 434/642 442/634
f 257/508 258/511 256/514
f 232/826 231/832 216/829
f 276/524 239/512 237/523
f 82/427 397/430 251/426
f 159/429 82/427 251/426
f 79/78 251/67 4/57
f 277/628 359/624 246/623
f 270/620 247/617 248/619
f 318/55 242/47 243/65
f 366/770 342/773 321/776
f 245/39 35/48 244/26
f 264/495 241/493 263/492
f 319/25 206/49 333/54
f 392/946 367/950 391/949
f 239/512 238/518 237/523
f 235/16 234/19 295/11
f 238/518 236/527 237/523
f 221/933 220/932 218/936
f 229/759 352/753 230/756
f 230/756 352/753 349/752
f 228/833 364/838 217/836
f 233/830 231/832 232/826
f 233/830 229/834 231/832
f 260/688 221/695 378/692
f 375/734 255/741 252/729
f 209/244 380/260 386/254
f 348/893 387/896 372/898
f 255/741 375/734 385/739
f 208/251 189/247 214/255
f 382/730 328/735 381/727
f 236/362 271/359 368/358
f 222/102 227/92 226/60
f 361/82 226/60 227/92
f 359/624 360/621 247/617
f 250/214 145/210 249/213
f 237/523 360/533 359/532
f 224/762 343/766 225/767
f 217/836 216/829 228/833
f 354/764 224/762 225/767
f 219/937 361/940 218/936
f 388/929 345/930 344/931
f 299/264 212/253 211/263
f 180/50 60/69 213/58
f 213/58 60/69 179/80
f 201/728 203/738 210/732
f 188/248 189/247 298/243
f 189/247 208/251 209/244
f 362/375 315/377 320/369
f 324/28 341/36 342/29
f 206/49 4/57 251/67
f 196/335 194/334 199/338
f 186/238 204/241 203/234
f 201/728 205/737 202/742
f 202/742 203/738 201/728
f 307/236 200/237 185/233
f 268/225 309/222 612/228
f 268/225 308/229 267/227
f 307/236 199/239 200/237
f 297/262 189/247 190/257
f 197/404 284/405 198/394
f 183/341 196/335 195/343
f 198/394 182/386 184/393
f 196/335 296/340 195/343
f 212/253 191/249 194/246
f 313/258 211/263 212/253
f 182/386 275/390 283/382
f 199/239 194/246 193/242
f 188/248 191/249 190/257
f 191/249 300/259 190/257
f 200/237 187/240 185/233
f 200/237 193/242 298/243
f 194/246 191/249 193/242
f 185/233 187/240 186/238
f 203/234 185/233 186/238
f 296/340 307/342 267/344
f 183/403 197/404 184/393
f 184/393 182/386 181/389
f 192/383 181/389 182/386
f 198/394 278/399 275/390
f 238/367 271/359 236/362
f 543/275 171/276 544/277
f 138/191 123/98 124/158
f 170/534 162/535 174/536
f 175/321 176/322 545/323
f 115/606 128/607 120/608
f 114/609 115/606 120/608
f 167/288 149/297 85/289
f 166/285 176/296 168/292
f 547/968 12/969 548/970
f 149/297 86/301 85/289
f 175/537 174/536 173/539
f 161/303 172/304 162/313
f 63/814 62/815 154/816
f 170/534 178/540 133/543
f 31/305 92/300 72/310
f 177/868 142/869 146/870
f 91/316 150/314 164/319
f 53/79 125/90 54/97
f 100/121 69/91 94/111
f 57/70 53/79 180/50
f 94/111 115/122 67/134
f 24/88 123/98 179/80
f 111/130 55/108 108/129
f 123/98 139/174 124/158
f 130/848 136/849 135/850
f 91/316 65/318 45/308
f 156/150 20/135 93/104
f 126/857 134/858 141/852
f 106/145 27/141 49/109
f 139/906 123/907 122/908
f 152/123 151/162 22/152
f 35/48 40/96 39/93
f 34/839 80/840 93/841
f 114/100 68/101 70/81
f 57/70 69/91 51/99
f 39/93 58/89 113/83
f 135/558 98/559 89/553
f 122/120 124/158 139/174
f 166/285 165/283 163/278
f 162/535 170/534 150/538
f 175/537 178/540 170/534
f 173/539 174/536 162/535
f 173/309 162/313 172/304
f 172/304 148/295 176/296
f 120/608 117/611 114/609
f 148/295 168/292 176/296
f 545/323 166/326 551/328
f 173/309 172/304 176/296
f 136/849 141/852 135/850
f 169/542 178/540 175/537
f 147/544 169/542 175/537
f 147/544 175/537 552/546
f 555/329 163/330 556/331
f 85/289 165/283 167/288
f 165/283 19/281 163/278
f 165/283 85/289 84/286
f 171/276 163/278 17/280
f 152/123 43/114 93/104
f 170/534 133/543 164/541
f 91/545 164/541 133/543
f 130/548 133/543 169/542
f 140/552 169/542 558/547
f 169/542 140/552 130/548
f 165/283 84/286 19/281
f 31/305 149/297 92/300
f 167/288 166/285 168/292
f 19/281 84/286 560/290
f 8/187 7/163 155/164
f 153/817 157/819 154/816
f 131/561 99/562 95/563
f 95/955 117/956 128/957
f 95/883 67/884 117/885
f 170/534 164/541 150/538
f 162/313 158/312 161/303
f 154/844 155/845 156/843
f 159/429 251/426 160/423
f 150/314 45/308 158/312
f 15/503 160/501 79/499
f 77/444 16/437 14/441
f 93/841 80/840 156/843
f 83/847 155/845 157/846
f 63/842 154/844 80/840
f 80/840 154/844 156/843
f 156/150 155/164 20/135
f 153/817 154/816 62/815
f 75/821 83/822 157/819
f 39/93 114/100 58/89
f 74/438 16/437 75/445
f 153/817 61/818 78/820
f 79/499 3/505 15/503
f 94/111 67/134 95/133
f 152/123 93/104 20/135
f 151/162 152/123 6/149
f 86/139 87/137 32/105
f 45/308 150/314 91/316
f 44/299 42/293 85/289
f 31/305 87/306 149/297
f 111/130 108/129 623/156
f 112/143 124/158 122/120
f 138/191 144/201 123/98
f 563/119 24/88 564/128
f 145/210 144/201 138/191
f 124/158 137/182 138/191
f 143/871 142/869 177/868
f 50/110 25/118 54/97
f 179/364 144/372 145/370
f 177/868 146/870 143/871
f 146/872 142/873 143/874
f 56/59 58/89 70/81
f 549/916 104/917 565/918
f 141/852 134/858 127/855
f 136/849 130/848 140/851
f 127/855 132/862 99/865
f 98/202 127/203 88/186
f 47/144 96/147 28/159
f 103/854 141/852 136/849
f 127/203 99/211 119/195
f 119/613 131/614 117/611
f 117/566 129/564 128/568
f 133/543 130/548 89/553
f 117/611 120/608 119/613
f 95/563 129/564 131/561
f 117/566 131/561 129/564
f 120/570 128/568 129/564
f 114/889 117/885 118/888
f 89/553 90/549 133/543
f 95/982 120/983 129/984
f 67/959 71/958 128/957
f 71/958 95/955 128/957
f 88/186 119/195 71/161
f 99/616 131/614 119/613
f 90/549 66/554 91/545
f 102/924 104/917 126/923
f 103/854 136/849 568/853
f 130/548 135/558 89/553
f 127/855 135/850 141/852
f 126/857 132/862 134/858
f 132/862 127/855 134/858
f 98/559 135/558 127/560
f 96/565 99/562 132/567
f 48/112 29/131 49/109
f 568/853 140/851 570/856
f 126/923 104/917 132/921
f 126/857 141/852 103/854
f 119/195 88/186 127/203
f 28/569 132/567 121/571
f 48/112 100/121 95/133
f 123/373 144/372 179/364
f 114/890 118/891 94/892
f 120/608 95/615 119/613
f 117/885 115/887 118/888
f 117/885 67/884 116/886
f 116/886 115/887 117/885
f 40/96 107/106 41/116
f 94/111 68/101 114/100
f 39/93 113/83 35/48
f 115/122 39/93 52/113
f 40/96 33/86 107/106
f 68/101 94/111 69/91
f 107/106 33/86 38/117
f 69/91 57/70 70/81
f 49/109 50/110 125/90
f 113/83 59/72 35/48
f 60/69 24/88 179/80
f 109/173 137/182 124/158
f 55/108 123/98 24/88
f 605/198 109/173 628/205
f 122/120 123/98 55/108
f 110/190 137/182 109/173
f 109/173 112/143 626/181
f 111/130 112/143 122/120
f 28/569 121/571 571/572
f 30/132 101/146 25/118
f 29/131 47/144 28/159
f 102/861 126/857 103/854
f 88/186 89/194 98/202
f 97/160 106/145 29/131
f 96/565 95/563 99/562
f 96/147 48/112 95/133
f 29/131 28/159 97/160
f 95/133 100/121 94/111
f 125/90 57/70 51/99
f 122/120 55/108 111/130
f 573/864 103/854 587/866
f 572/922 102/924 588/925
f 88/186 90/177 89/194
f 88/186 71/161 90/177
f 42/293 12/298 84/286
f 155/164 83/196 8/187
f 74/438 61/434 82/427
f 78/820 157/819 153/817
f 33/86 46/95 32/105
f 75/445 78/442 74/438
f 34/839 63/842 80/840
f 75/821 23/823 83/822
f 93/104 46/95 34/76
f 81/435 76/424 62/431
f 10/165 42/138 73/151
f 75/445 77/444 23/448
f 11/302 42/293 9/307
f 7/163 20/135 155/164
f 62/815 61/818 153/817
f 32/105 46/95 43/114
f 43/114 46/95 93/104
f 82/427 62/431 76/424
f 36/125 33/86 72/115
f 44/126 32/105 43/114
f 24/88 105/107 25/118
f 60/69 53/79 24/88
f 26/127 27/141 586/153
f 564/128 26/127 578/154
f 53/79 54/97 24/88
f 27/141 106/145 581/176
f 40/96 41/116 52/113
f 24/88 54/97 105/107
f 25/118 105/107 54/97
f 582/175 97/160 584/184
f 51/99 48/112 49/109
f 37/317 36/315 45/308
f 73/151 43/114 21/136
f 35/48 33/86 40/96
f 41/116 37/140 66/148
f 48/112 51/99 69/91
f 68/101 69/91 70/81
f 52/113 41/116 67/134
f 66/148 90/177 71/161
f 91/316 66/320 65/318
f 63/66 34/76 35/48
f 35/48 64/56 63/66
f 62/77 63/66 64/56
f 61/434 74/438 78/442
f 58/89 59/72 113/83
f 114/100 70/81 58/89
f 70/81 57/70 56/59
f 180/50 56/59 57/70
f 42/138 44/126 43/114
f 34/76 46/95 33/86
f 37/140 41/116 38/117
f 36/125 38/117 33/86
f 37/317 65/318 66/320
f 41/116 107/106 38/117
f 52/113 39/93 40/96
f 34/76 33/86 35/48
f 31/124 72/115 32/105
f 30/902 49/903 27/904
f 29/131 106/145 49/109
f 32/105 44/126 86/139
f 25/118 27/141 26/127
f 26/127 24/88 25/118
f 128/957 116/960 67/959
f 115/606 116/610 128/607
f 92/300 148/295 161/303
f 45/308 92/300 161/303
f 15/432 159/429 160/423
f 558/547 147/544 592/551
f 148/295 92/300 167/288
f 167/288 168/292 148/295
f 104/917 121/919 132/921
f 43/114 152/123 21/136
f 61/434 62/431 82/427
f 30/902 50/905 49/903
f 109/173 124/158 112/143
f 149/297 167/288 92/300
f 148/295 172/304 161/303
f 170/534 174/536 175/537
f 175/321 173/325 176/322
f 178/540 169/542 133/543
f 166/285 167/288 165/283
f 72/310 45/308 36/315
f 162/313 150/314 158/312
f 157/846 155/845 154/844
f 71/161 67/134 66/148
f 75/821 157/819 78/820
f 159/429 16/437 74/438
f 16/437 77/444 75/445
f 82/427 159/429 74/438
f 67/134 115/122 52/113
f 133/543 90/549 91/545
f 622/157 111/130 624/170
f 125/90 51/99 49/109
f 71/161 119/195 95/133
f 28/569 96/565 132/567
f 47/144 29/131 48/112
f 39/612 115/606 114/609
f 94/976 118/977 115/978
f 125/90 50/110 54/97
f 41/116 66/148 67/134
f 108/129 55/108 563/119
f 25/118 101/146 27/141
f 50/110 30/132 25/118
f 96/147 47/144 48/112
f 97/160 28/159 577/183
f 100/121 48/112 69/91
f 149/297 87/306 86/301
f 84/286 85/289 42/293
f 85/289 86/301 44/299
f 45/308 65/318 37/317
f 32/105 72/115 33/86
f 31/124 32/105 87/137
f 72/310 92/300 45/308
f 37/140 38/117 36/125
f 125/90 53/79 57/70
f 27/141 101/146 30/132
f 161/303 158/312 45/308
f 530/30 235/16 542/24
f 13/824 83/822 23/823
f 22/152 21/136 152/123
f 17/280 163/278 19/281
f 595/284 19/281 596/287
f 17/280 19/281 18/282
f 14/441 16/437 15/432
f 16/437 159/429 15/432
f 83/196 13/204 8/187
f 152/123 20/135 6/149
f 73/151 42/138 43/114
f 11/302 12/298 42/293
f 42/293 10/311 9/307
f 6/149 20/135 7/163
f 518/3 279/2 531/6
f 519/4 294/1 518/3
f 631/384 283/382 632/387
f 520/779 282/782 291/780
f 521/418 291/413 633/416
f 522/22 281/12 293/27
f 523/37 293/27 288/44
f 524/783 282/782 520/779
f 525/84 285/63 282/73
f 526/85 285/63 525/84
f 527/15 235/16 289/7
f 528/10 289/7 519/4
f 529/46 5/38 530/30
f 530/30 5/38 235/16
f 531/6 279/2 532/9
f 532/9 279/2 534/14
f 533/18 281/12 522/22
f 534/14 279/2 533/18
f 535/64 285/63 526/85
f 536/53 288/44 535/64
f 537/94 282/73 524/103
f 538/395 283/382 275/390
f 539/400 275/390 541/406
f 540/396 283/382 538/395
f 599/391 540/396 635/401
f 541/406 275/390 278/399
f 542/24 235/16 527/15
f 543/275 163/278 171/276
f 545/323 176/322 166/326
f 546/324 175/321 545/323
f 547/968 84/971 12/969
f 548/970 12/969 597/972
f 549/916 121/919 104/917
f 550/979 121/980 549/981
f 551/328 166/326 555/329
f 552/327 175/321 546/324
f 553/550 147/544 552/546
f 554/555 147/544 553/550
f 555/329 166/326 163/330
f 556/331 163/330 557/332
f 557/332 163/330 593/333
f 558/547 169/542 147/544
f 559/557 140/552 558/547
f 560/290 84/286 547/294
f 561/291 19/281 560/290
f 562/556 147/544 554/555
f 563/119 55/108 24/88
f 564/128 24/88 26/127
f 565/918 104/917 566/920
f 566/920 104/917 572/922
f 567/574 121/571 550/575
f 568/853 136/849 140/851
f 569/860 103/854 568/853
f 570/856 140/851 559/859
f 571/572 121/571 567/574
f 572/922 104/917 102/924
f 573/864 102/861 103/854
f 574/867 102/861 573/864
f 575/155 108/129 576/142
f 576/142 108/129 563/119
f 638/169 575/155 639/179
f 577/573 28/569 571/572
f 578/154 26/127 579/168
f 579/168 26/127 590/178
f 580/185 106/145 582/175
f 581/176 106/145 580/185
f 582/175 106/145 97/160
f 583/193 97/160 591/192
f 584/184 97/160 583/193
f 585/167 27/141 581/176
f 586/153 27/141 585/167
f 587/866 103/854 594/863
f 588/925 102/924 574/926
f 589/166 26/127 586/153
f 590/178 26/127 589/166
f 591/192 97/160 577/183
f 592/551 147/544 562/556
f 593/279 163/278 543/275
f 594/863 103/854 569/860
f 595/284 18/282 19/281
f 596/287 19/281 561/291
f 598/388 287/379 631/384
f 599/391 283/382 540/396
f 600/408 278/399 601/407
f 601/407 278/399 284/405
f 602/410 284/405 618/412
f 603/351 267/344 308/353
f 604/347 267/344 603/351
f 605/198 110/190 109/173
f 606/212 327/206 605/198
f 607/221 327/219 606/224
f 608/223 310/216 607/221
f 609/354 308/353 610/355
f 610/232 308/229 268/225
f 611/226 309/222 608/223
f 612/228 309/222 611/226
f 613/231 268/225 612/228
f 614/235 268/225 613/231
f 615/345 296/340 620/349
f 616/348 195/343 615/345
f 617/350 197/346 195/343
f 618/412 284/405 617/409
f 619/352 195/343 616/348
f 620/349 296/340 604/347
f 621/172 112/143 622/157
f 622/157 112/143 111/130
f 623/156 108/129 637/171
f 624/170 111/130 623/156
f 625/188 112/143 627/180
f 626/181 112/143 625/188
f 627/180 112/143 621/172
f 628/205 109/173 629/197
f 629/197 109/173 630/189
f 630/189 109/173 626/181
f 631/384 287/379 283/382
f 632/387 283/382 599/391
f 633/416 291/413 598/415
f 634/419 521/418 633/416
f 636/411 541/406 600/408
f 637/171 108/129 638/169
f 638/169 108/129 575/155
usemtl Tile_+031_+021_L19_000010_untextured
