mtllib Tile_+031_+021_L19_000001.mtl
v 6.05754915e+03 5.00000000e+03 1.51565228e+01
v 6.05630684e+03 5.00000000e+03 1.49308033e+01
v 6.05517892e+03 5.00000000e+03 1.43753864e+01
v 6.05346762e+03 5.00000000e+03 1.41643166e+01
v 6.04973815e+03 5.00000000e+03 1.38949203e+01
v 6.04840300e+03 5.00000000e+03 1.43030673e+01
v 6.05181986e+03 5.00000000e+03 1.40909183e+01
v 6.05247329e+03 5.00000000e+03 1.42712480e+01
v 6.06123119e+03 5.00000000e+03 1.44307912e+01
v 6.05981242e+03 5.00000000e+03 1.44782258e+01
v 6.06270168e+03 5.00000000e+03 1.42903143e+01
v 6.05534528e+03 5.00094981e+03 1.44255096e+01
v 6.05240997e+03 5.00126435e+03 1.40179798e+01
v 6.03983469e+03 5.00000000e+03 1.42741847e+01
v 6.03715860e+03 5.00000000e+03 1.39998330e+01
v 6.04136246e+03 5.00140027e+03 1.40499841e+01
v 6.04260889e+03 5.00000000e+03 1.39084344e+01
v 6.04109451e+03 5.01837902e+03 7.84330813e+00
v 6.04354070e+03 5.01544647e+03 7.85763055e+00
v 6.04028315e+03 5.01956217e+03 1.11751095e+01
v 6.04193334e+03 5.01969491e+03 1.00251280e+01
v 6.04008409e+03 5.01875060e+03 1.20551841e+01
v 6.04187496e+03 5.01735376e+03 1.31401589e+01
v 6.04039589e+03 5.01966914e+03 1.25274570e+01
v 6.03899596e+03 5.01929859e+03 1.34723617e+01
v 6.03940074e+03 5.01923406e+03 1.20724620e+01
v 6.04109691e+03 5.01707034e+03 1.30290288e+01
v 6.04255636e+03 5.01422984e+03 1.33698799e+01
v 6.04122421e+03 5.01805434e+03 1.33563823e+01
v 6.04384398e+03 5.01447689e+03 1.32909117e+01
v 6.04016440e+03 5.01742675e+03 1.33554854e+01
v 6.04035294e+03 5.02006749e+03 1.35133806e+01
v 6.03969531e+03 5.01885797e+03 1.11462214e+01
v 6.03938752e+03 5.01794679e+03 1.01402607e+01
v 6.03638405e+03 5.01654081e+03 9.99564371e+00
v 6.03786826e+03 5.01806884e+03 1.09066147e+01
v 6.03783902e+03 5.01887515e+03 1.44804135e+01
v 6.04062837e+03 5.01551796e+03 7.87342686e+00
v 6.04238101e+03 5.01249161e+03 7.90374720e+00
v 6.03525999e+03 5.01531694e+03 7.93666358e+00
v 6.03776026e+03 5.01667050e+03 7.91111970e+00
v 6.03786787e+03 5.01337801e+03 7.88250910e+00
v 6.03878084e+03 5.01756927e+03 7.85272080e+00
v 6.03657442e+03 5.01633778e+03 7.94745871e+00
v 6.03388561e+03 5.01522818e+03 9.87077093e+00
v 6.04038292e+03 5.01839675e+03 8.38643076e+00
v 6.04105531e+03 5.00714553e+03 9.26163569e+00
v 6.03921236e+03 5.00658265e+03 8.29501137e+00
v 6.04009182e+03 5.00712942e+03 8.12004919e+00
v 6.04124036e+03 5.00900494e+03 8.03250051e+00
v 6.03855661e+03 5.01045276e+03 7.88935611e+00
v 6.04257978e+03 5.00744620e+03 1.38014194e+01
v 6.04225091e+03 5.00765260e+03 1.21370413e+01
v 6.03416030e+03 5.00407418e+03 8.00082694e+00
v 6.03675351e+03 5.00585312e+03 7.98108906e+00
v 6.03856121e+03 5.00521201e+03 8.54346422e+00
v 6.04011589e+03 5.00800281e+03 7.91954534e+00
v 6.03511256e+03 5.00887618e+03 7.96150667e+00
v 6.04139565e+03 5.00684901e+03 1.03066311e+01
v 6.04341066e+03 5.00891220e+03 8.22860020e+00
v 6.04286172e+03 5.00773216e+03 9.68425797e+00
v 6.03915954e+03 5.00567740e+03 1.19443692e+01
v 6.04021948e+03 5.00658620e+03 1.12760503e+01
v 6.03873867e+03 5.00500191e+03 1.06873691e+01
v 6.04385527e+03 5.00881940e+03 1.13545678e+01
v 6.03532478e+03 5.00338610e+03 1.12819925e+01
v 6.04041508e+03 5.00605495e+03 1.41071279e+01
v 6.03798863e+03 5.00461424e+03 1.41125468e+01
v 6.03579718e+03 5.00411567e+03 9.52902087e+00
v 6.03614637e+03 5.00492255e+03 8.47719955e+00
v 6.03563427e+03 5.01748422e+03 1.44326468e+01
v 6.03230140e+03 5.01070213e+03 7.98851257e+00
v 6.03163935e+03 5.01342403e+03 7.86477257e+00
v 6.03238656e+03 5.00259586e+03 8.60093583e+00
v 6.03192269e+03 5.00182894e+03 1.09334976e+01
v 6.03159542e+03 5.02802105e+03 1.43820439e+01
v 6.03430632e+03 5.02011672e+03 1.41582407e+01
v 6.03267145e+03 5.01912948e+03 1.40805845e+01
v 6.03287674e+03 5.02650341e+03 1.40366016e+01
v 6.03199745e+03 5.02658452e+03 1.42596896e+01
v 6.03302806e+03 5.03078150e+03 1.42031597e+01
v 6.03943621e+03 5.02999454e+03 1.40556670e+01
v 6.03622386e+03 5.02991454e+03 1.41191596e+01
v 6.04295920e+03 5.02459463e+03 1.41268741e+01
v 6.04061815e+03 5.01965149e+03 1.30974031e+01
v 6.04413468e+03 5.02243394e+03 1.41328981e+01
v 6.04146886e+03 5.02054515e+03 1.20466069e+01
v 6.03989064e+03 5.01857458e+03 1.35821103e+01
v 6.04075319e+03 5.02125202e+03 1.41460713e+01
v 6.04170241e+03 5.02263482e+03 1.43795628e+01
v 6.04178428e+03 5.02141211e+03 1.46345090e+01
v 6.03564213e+03 5.02830500e+03 1.41168583e+01
v 6.04272187e+03 5.01968178e+03 7.78259552e+00
v 6.04723548e+03 5.02623407e+03 1.40881077e+01
v 6.03271552e+03 5.02961851e+03 1.42924662e+01
v 6.03190275e+03 5.03137381e+03 1.50724468e+01
v 6.03170831e+03 5.03069409e+03 1.52119139e+01
v 6.03250496e+03 5.03103892e+03 1.54299469e+01
v 6.03824085e+03 5.02025548e+03 1.40385544e+01
v 6.04002171e+03 5.02030997e+03 1.44918874e+01
v 6.04322531e+03 5.02259963e+03 1.50224249e+01
v 6.03955165e+03 5.02313160e+03 1.41262098e+01
v 6.03583148e+03 5.02480671e+03 1.41234479e+01
v 6.03877234e+03 5.01945386e+03 1.47232116e+01
v 6.03807076e+03 5.02290927e+03 1.39247909e+01
v 6.03259294e+03 5.00162179e+03 1.24622514e+01
v 6.03356121e+03 5.00190039e+03 1.41116385e+01
v 6.03597198e+03 5.00331128e+03 1.42786070e+01
v 6.03419459e+03 5.00197081e+03 1.44565743e+01
v 6.03680697e+03 5.00307514e+03 1.43365290e+01
v 6.03297821e+03 5.03029798e+03 1.55648543e+01
v 6.03504558e+03 5.03058253e+03 1.45680102e+01
v 6.03172045e+03 5.01972744e+03 1.40549124e+01
v 6.03594175e+03 5.02032759e+03 1.40282090e+01
v 6.03724504e+03 5.01961843e+03 1.47180493e+01
v 6.03158804e+03 5.01844904e+03 1.51873021e+01
v 6.03166183e+03 5.01500722e+03 1.44655362e+01
v 6.03104947e+03 5.01813623e+03 1.51481714e+01
v 6.03216765e+03 5.00000000e+03 1.43740012e+01
v 6.03376448e+03 5.00000000e+03 1.40255776e+01
v 6.04733142e+03 5.00000000e+03 1.40304671e+01
v 6.04535922e+03 5.00932677e+03 1.35517447e+01
v 6.04509281e+03 5.00983785e+03 1.29882148e+01
v 6.04416219e+03 5.01148276e+03 1.33391290e+01
v 6.04427626e+03 5.01050376e+03 7.98738899e+00
v 6.04364906e+03 5.01289549e+03 1.30188376e+01
v 6.04539806e+03 5.01182092e+03 1.19886606e+01
v 6.04489571e+03 5.01102119e+03 1.19627096e+01
v 6.04497399e+03 5.01260289e+03 1.26672397e+01
v 6.04171747e+03 5.00446871e+03 1.39427164e+01
v 6.04048191e+03 5.00528466e+03 1.43480220e+01
v 6.03605338e+03 5.01851160e+03 1.42690041e+01
v 6.03427284e+03 5.01719063e+03 1.45630113e+01
v 6.03232745e+03 5.01662802e+03 1.42736915e+01
v 6.04434831e+03 5.01362165e+03 7.53908729e+00
v 6.04493794e+03 5.01816529e+03 7.84194452e+00
v 6.04513779e+03 5.02155785e+03 7.76660833e+00
v 6.04445890e+03 5.02191465e+03 7.80129951e+00
v 6.04596033e+03 5.01524174e+03 7.89393044e+00
v 6.04303148e+03 5.02066509e+03 1.04665903e+01
v 6.04255871e+03 5.02125671e+03 1.15970982e+01
v 6.04417566e+03 5.02161330e+03 1.01975310e+01
v 6.04389715e+03 5.02035971e+03 7.87439063e+00
v 6.04538244e+03 5.02184685e+03 1.02273630e+01
v 6.04473990e+03 5.02218558e+03 1.03091249e+01
v 6.04452319e+03 5.02214923e+03 8.33249174e+00
v 6.04522739e+03 5.02156136e+03 9.52481216e+00
v 6.04573331e+03 5.01182518e+03 1.33733981e+01
v 6.04478303e+03 5.00926909e+03 1.24349008e+01
v 6.04515604e+03 5.00980641e+03 1.12783388e+01
v 6.04531972e+03 5.01071805e+03 9.28522171e+00
v 6.04560204e+03 5.01323328e+03 7.94582500e+00
v 6.04389741e+03 5.00782110e+03 1.44475820e+01
v 6.04314017e+03 5.00667542e+03 1.43257160e+01
v 6.04373253e+03 5.00779820e+03 1.44254030e+01
v 6.04312392e+03 5.00718598e+03 1.43045464e+01
v 6.04490225e+03 5.00726344e+03 1.44421136e+01
v 6.04552960e+03 5.00305517e+03 1.42311136e+01
v 6.04566825e+03 5.00437853e+03 1.40041434e+01
v 6.04365425e+03 5.00769159e+03 1.43978094e+01
v 6.04588649e+03 5.00165152e+03 1.39549761e+01
v 6.04524720e+03 5.00862427e+03 1.41885580e+01
v 6.03290108e+03 5.01624504e+03 1.42286315e+01
v 6.04446144e+03 5.02332246e+03 1.43547668e+01
v 6.04445287e+03 5.02256928e+03 1.28937082e+01
v 6.04553412e+03 5.02166612e+03 1.11411970e+01
v 6.04473207e+03 5.02221583e+03 1.43677247e+01
v 6.04555838e+03 5.02095810e+03 1.29096828e+01
v 6.03386780e+03 5.01892185e+03 1.53666838e+01
v 6.03552946e+03 5.01907698e+03 1.53952481e+01
v 6.03540451e+03 5.01797011e+03 1.44847427e+01
v 6.03530130e+03 5.01966607e+03 1.52803922e+01
v 6.04415450e+03 5.02266422e+03 1.50219165e+01
v 6.03808259e+03 5.01995246e+03 1.48005746e+01
v 6.03453871e+03 5.02973685e+03 1.51989948e+01
v 6.03353966e+03 5.02990598e+03 1.42728629e+01
v 6.03133879e+03 5.01660531e+03 1.55687407e+01
v 6.04193390e+03 5.00680046e+03 1.44605644e+01
v 6.04383429e+03 5.00776670e+03 1.44845231e+01
v 6.03451413e+03 5.01800061e+03 1.54932062e+01
v 6.03193369e+03 5.02728374e+03 1.45867165e+01
v 6.03326158e+03 5.02730770e+03 1.48417885e+01
v 6.03153471e+03 5.02657513e+03 1.57032915e+01
v 6.03577680e+03 5.02911394e+03 1.53632946e+01
v 6.03302924e+03 5.02999998e+03 1.46031632e+01
v 6.03198493e+03 5.01795718e+03 1.44658773e+01
v 6.03562332e+03 5.02979491e+03 1.51700408e+01
v 6.03450600e+03 5.02809464e+03 1.53556954e+01
v 6.03306784e+03 5.02867115e+03 1.50662914e+01
v 6.03301014e+03 5.01738873e+03 1.49634887e+01
v 6.03248183e+03 5.03009329e+03 1.82918642e+01
v 6.03175082e+03 5.02898785e+03 1.90183903e+01
v 6.03261688e+03 5.02799637e+03 1.95241076e+01
v 6.03476565e+03 5.03117315e+03 1.94132558e+01
v 6.03506980e+03 5.03085810e+03 1.82104845e+01
v 6.03564392e+03 5.02918814e+03 1.90730827e+01
v 6.03577242e+03 5.03013103e+03 1.93125037e+01
v 6.03531424e+03 5.02983810e+03 1.99797328e+01
v 6.03494412e+03 5.02995654e+03 2.10973134e+01
v 6.03373866e+03 5.03056805e+03 1.79358039e+01
v 6.03148845e+03 5.03041361e+03 2.01406707e+01
v 6.03234931e+03 5.03063204e+03 2.12638853e+01
v 6.03408028e+03 5.03141344e+03 2.10949781e+01
v 6.03365952e+03 5.02963973e+03 2.18571953e+01
v 6.03363505e+03 5.02830622e+03 2.02285363e+01
v 6.03219122e+03 5.02912249e+03 2.09567135e+01
v 6.03287687e+03 5.02823984e+03 1.85758247e+01
v 6.03356396e+03 5.03073990e+03 2.17163846e+01
v 6.03508705e+03 5.02872568e+03 1.97460307e+01
v 6.04569323e+03 5.02182347e+03 7.83704397e+00
v 6.03210326e+03 5.03120507e+03 1.45236886e+01
v 6.04591948e+03 5.00687144e+03 1.40620815e+01
v 6.04224009e+03 5.02232622e+03 1.55086111e+01
v 6.04157037e+03 5.02198781e+03 1.49790222e+01
v 6.04657763e+03 5.01965683e+03 1.47109922e+01
v 6.06239024e+03 5.01389622e+03 1.43055828e+01
v 6.05377079e+03 5.01702974e+03 1.41556608e+01
v 6.04981520e+03 5.01479690e+03 1.21811596e+01
v 6.04739101e+03 5.01831141e+03 1.15878003e+01
v 6.04971100e+03 5.01502072e+03 1.45315999e+01
v 6.05082330e+03 5.01317539e+03 1.29209610e+01
v 6.05006956e+03 5.01335302e+03 9.92422069e+00
v 6.05034786e+03 5.01422512e+03 9.09859379e+00
v 6.05641145e+03 5.02571384e+03 1.42869097e+01
v 6.05560321e+03 5.02962190e+03 1.41565943e+01
v 6.04612772e+03 5.02268458e+03 9.76573975e+00
v 6.06044200e+03 5.02582504e+03 1.41493517e+01
v 6.06098033e+03 5.03121817e+03 1.47954764e+01
v 6.06169743e+03 5.03125488e+03 1.08395918e+01
v 6.04802703e+03 5.01268531e+03 9.80250189e+00
v 6.04856828e+03 5.01202301e+03 1.23685548e+01
v 6.04680983e+03 5.01182488e+03 1.08835741e+01
v 6.05390064e+03 5.02741648e+03 1.41783673e+01
v 6.04715820e+03 5.02492145e+03 1.42846311e+01
v 6.05516936e+03 5.01146926e+03 1.42776979e+01
v 6.05313760e+03 5.01289188e+03 1.42689723e+01
v 6.05162524e+03 5.01239954e+03 1.46239086e+01
v 6.05094309e+03 5.01610364e+03 1.44884989e+01
v 6.06252159e+03 5.02953396e+03 1.48312711e+01
v 6.06218221e+03 5.03142691e+03 1.44196663e+01
v 6.05259608e+03 5.03137510e+03 1.41850809e+01
v 6.05295269e+03 5.00919522e+03 1.43924632e+01
v 6.05276469e+03 5.01034272e+03 1.46847818e+01
v 6.05371617e+03 5.01025186e+03 1.49188782e+01
v 6.05173037e+03 5.00957425e+03 1.41406699e+01
v 6.05247195e+03 5.01044750e+03 1.41178200e+01
v 6.05475884e+03 5.00954652e+03 1.41616554e+01
v 6.05013181e+03 5.01154838e+03 1.45151334e+01
v 6.04775857e+03 5.00992638e+03 1.43187619e+01
v 6.05150385e+03 5.00675497e+03 1.40211849e+01
v 6.05847906e+03 5.00931808e+03 1.42360449e+01
v 6.05773485e+03 5.00490844e+03 1.41633451e+01
v 6.05599258e+03 5.00224187e+03 1.41247871e+01
v 6.05675746e+03 5.00058737e+03 1.52773994e+01
v 6.05858753e+03 5.00295980e+03 1.43400414e+01
v 6.06018919e+03 5.00156723e+03 1.44555984e+01
v 6.05417100e+03 5.00672648e+03 1.41049932e+01
v 6.06147192e+03 5.00782052e+03 1.43084763e+01
v 6.05052055e+03 5.01483450e+03 1.43332146e+01
v 6.05040771e+03 5.01328799e+03 1.18600631e+01
v 6.04849522e+03 5.01100355e+03 1.42169183e+01
v 6.04841197e+03 5.00839617e+03 1.41489003e+01
v 6.04646196e+03 5.00829777e+03 1.39824734e+01
v 6.04897721e+03 5.00405803e+03 1.39767014e+01
v 6.04787052e+03 5.00308232e+03 1.42216576e+01
v 6.04950380e+03 5.00765852e+03 1.42765738e+01
v 6.04740799e+03 5.00623670e+03 1.39147338e+01
v 6.05102560e+03 5.01216451e+03 1.49679867e+01
v 6.04581987e+03 5.00560658e+03 1.42385696e+01
v 6.05267435e+03 5.01025770e+03 1.72975411e+01
v 6.05290833e+03 5.01042536e+03 1.45230101e+01
v 6.05100029e+03 5.01317040e+03 1.46880798e+01
v 6.05098197e+03 5.01416502e+03 1.00816524e+01
v 6.04766203e+03 5.01099371e+03 1.37699003e+01
v 6.05054574e+03 5.01272300e+03 1.40165856e+01
v 6.04892004e+03 5.01589938e+03 1.41878294e+01
v 6.05575238e+03 5.02791963e+03 1.47449191e+01
v 6.04738294e+03 5.01884514e+03 1.43917883e+01
v 6.04721887e+03 5.01848593e+03 1.40500609e+01
v 6.05084530e+03 5.01485658e+03 9.66276157e+00
v 6.04897462e+03 5.01561780e+03 9.45074554e+00
v 6.04545600e+03 5.01095809e+03 1.07539701e+01
v 6.05035756e+03 5.01834187e+03 7.85857237e+00
v 6.04883612e+03 5.01719897e+03 8.58690832e+00
v 6.04903301e+03 5.02028935e+03 8.07053359e+00
v 6.04751233e+03 5.02165075e+03 8.56184646e+00
v 6.04915156e+03 5.01608869e+03 1.05284833e+01
v 6.04627487e+03 5.01189996e+03 1.22535768e+01
v 6.04823813e+03 5.01414439e+03 9.18462317e+00
v 6.04998240e+03 5.01932989e+03 8.21080678e+00
v 6.04657173e+03 5.01976503e+03 1.19184839e+01
v 6.04927840e+03 5.01866818e+03 9.20322214e+00
v 6.04651133e+03 5.01210043e+03 8.48630303e+00
v 6.04817400e+03 5.01686308e+03 7.94217089e+00
v 6.04850336e+03 5.02033650e+03 7.74874925e+00
v 6.04740039e+03 5.02145015e+03 8.06206583e+00
v 6.04647565e+03 5.02248103e+03 7.96240025e+00
v 6.05107535e+03 5.01502296e+03 1.07505285e+01
v 6.04743343e+03 5.01907240e+03 7.93489516e+00
v 6.04860061e+03 5.01775238e+03 7.68300946e+00
v 6.04872104e+03 5.01774418e+03 1.01451802e+01
v 6.04595432e+03 5.02307615e+03 9.18182518e+00
v 6.04587202e+03 5.02271872e+03 8.52430034e+00
v 6.03100000e+03 5.02752699e+03 1.56331225e+01
v 6.03100000e+03 5.02748223e+03 1.56700043e+01
v 6.03100000e+03 5.03070175e+03 1.46189139e+01
v 6.03100000e+03 5.01624665e+03 1.51805133e+01
v 6.03100000e+03 5.01635135e+03 1.55733052e+01
v 6.03100000e+03 5.00000000e+03 1.42031337e+01
v 6.03100000e+03 5.00024832e+03 1.41422046e+01
v 6.03100000e+03 5.00251296e+03 7.98959451e+00
v 6.03100000e+03 5.00234159e+03 8.16220449e+00
v 6.03100000e+03 5.01318009e+03 8.69281106e+00
v 6.03100000e+03 5.01281634e+03 7.91100894e+00
v 6.03100000e+03 5.02755930e+03 1.56040752e+01
v 6.03100000e+03 5.02661779e+03 1.56628905e+01
v 6.03100000e+03 5.01687507e+03 1.55923625e+01
v 6.03100000e+03 5.02600831e+03 1.50042742e+01
v 6.03100000e+03 5.02592285e+03 1.42690437e+01
v 6.03100000e+03 5.02616103e+03 1.56545254e+01
v 6.03100000e+03 5.01806494e+03 1.51891294e+01
v 6.03100000e+03 5.02554106e+03 1.41311618e+01
v 6.03100000e+03 5.02573226e+03 1.42074114e+01
v 6.03100000e+03 5.01459728e+03 1.44616235e+01
v 6.03100000e+03 5.01483412e+03 1.43806335e+01
v 6.03100000e+03 5.01518149e+03 1.42301280e+01
v 6.03100000e+03 5.01811804e+03 1.51243938e+01
v 6.03100000e+03 5.01913232e+03 1.40562769e+01
v 6.03100000e+03 5.01586347e+03 1.42718870e+01
v 6.03100000e+03 5.01565333e+03 1.42583838e+01
v 6.03100000e+03 5.02188272e+03 1.41353947e+01
v 6.03100000e+03 5.02167566e+03 1.41284315e+01
v 6.03100000e+03 5.00031566e+03 1.38189266e+01
v 6.03100000e+03 5.00067895e+03 1.19447410e+01
v 6.03100000e+03 5.02211271e+03 1.41328310e+01
v 6.03100000e+03 5.02196102e+03 1.41370305e+01
v 6.03100000e+03 5.02792386e+03 1.45680857e+01
v 6.03100000e+03 5.02806568e+03 1.43381463e+01
v 6.03100000e+03 5.02931126e+03 1.41553257e+01
v 6.03100000e+03 5.01077836e+03 7.98508545e+00
v 6.03100000e+03 5.01199762e+03 7.95293712e+00
v 6.03100000e+03 5.01347243e+03 1.02099656e+01
v 6.03100000e+03 5.01422033e+03 1.30727295e+01
v 6.03100000e+03 5.00157336e+03 8.53357336e+00
v 6.03100000e+03 5.00125315e+03 1.06069998e+01
v 6.03100000e+03 5.00136485e+03 9.68942987e+00
v 6.03100000e+03 5.00540260e+03 8.01814532e+00
v 6.03100000e+03 5.00974415e+03 8.00631700e+00
v 6.03100000e+03 5.00538652e+03 8.01819017e+00
v 6.03100000e+03 5.00538269e+03 8.01822673e+00
v 6.03100000e+03 5.00538563e+03 8.01817388e+00
v 6.03100000e+03 5.00538022e+03 8.01823146e+00
v 6.03100000e+03 5.02950538e+03 1.41304331e+01
v 6.03100000e+03 5.02963023e+03 1.42413501e+01
v 6.03100000e+03 5.00101361e+03 1.12181719e+01
v 6.06275000e+03 5.01350036e+03 1.42957702e+01
v 6.06275000e+03 5.00931756e+03 1.42826928e+01
v 6.06275000e+03 5.03111457e+03 1.39544138e+01
v 6.06275000e+03 5.03099024e+03 1.42321762e+01
v 6.06275000e+03 5.03038965e+03 1.46810833e+01
v 6.06275000e+03 5.03063610e+03 1.48974094e+01
v 6.06275000e+03 5.02241366e+03 1.42119473e+01
v 6.06275000e+03 5.02504081e+03 1.43200630e+01
v 6.06275000e+03 5.03041498e+03 1.46083317e+01
v 6.06275000e+03 5.00616004e+03 1.42957847e+01
v 6.06275000e+03 5.00717197e+03 1.42982070e+01
v 6.06275000e+03 5.02165385e+03 1.42428559e+01
v 6.06275000e+03 5.02940408e+03 1.47859714e+01
v 6.06275000e+03 5.02920677e+03 1.48228416e+01
v 6.06275000e+03 5.02642456e+03 1.45072305e+01
v 6.06275000e+03 5.02988891e+03 1.47303792e+01
v 6.06275000e+03 5.03022266e+03 1.46717510e+01
v 6.06275000e+03 5.01387032e+03 1.42934485e+01
v 6.06275000e+03 5.01381181e+03 1.42583962e+01
v 6.06275000e+03 5.01593406e+03 1.42859807e+01
v 6.06275000e+03 5.03043290e+03 1.19030237e+01
v 6.06275000e+03 5.03041057e+03 1.07573064e+01
v 6.06275000e+03 5.03065844e+03 1.21477570e+01
v 6.06275000e+03 5.03081729e+03 1.27721128e+01
v 6.06275000e+03 5.03076528e+03 9.96496695e+00
v 6.06275000e+03 5.03121626e+03 9.22477687e+00
v 6.06275000e+03 5.00101762e+03 1.43830420e+01
v 6.06275000e+03 5.00000000e+03 1.42898945e+01
v 6.03371826e+03 5.03150000e+03 2.10026266e+01
v 6.03291045e+03 5.03150000e+03 2.09790752e+01
v 6.03247958e+03 5.03150000e+03 2.06330331e+01
v 6.03262436e+03 5.03150000e+03 2.08571604e+01
v 6.03127757e+03 5.03150000e+03 1.44164000e+01
v 6.03676877e+03 5.03150000e+03 1.42222564e+01
v 6.03519698e+03 5.03150000e+03 1.40657010e+01
v 6.03946560e+03 5.03150000e+03 1.41579282e+01
v 6.03694047e+03 5.03150000e+03 1.42185529e+01
v 6.03209903e+03 5.03150000e+03 1.44384122e+01
v 6.03249912e+03 5.03150000e+03 1.42454917e+01
v 6.03358194e+03 5.03150000e+03 2.01759064e+01
v 6.03335205e+03 5.03150000e+03 2.00474299e+01
v 6.03266904e+03 5.03150000e+03 2.03819691e+01
v 6.03291602e+03 5.03150000e+03 2.01623401e+01
v 6.03166951e+03 5.03150000e+03 1.47898974e+01
v 6.03193767e+03 5.03150000e+03 1.49251459e+01
v 6.04266213e+03 5.03150000e+03 1.40563262e+01
v 6.04335172e+03 5.03150000e+03 1.40528333e+01
v 6.04135432e+03 5.03150000e+03 1.40499517e+01
v 6.03323166e+03 5.03150000e+03 1.41955181e+01
v 6.03472220e+03 5.03150000e+03 1.40861091e+01
v 6.03508746e+03 5.03150000e+03 1.41349397e+01
v 6.05243344e+03 5.03150000e+03 1.41823173e+01
v 6.04756726e+03 5.03150000e+03 1.40972563e+01
v 6.06248397e+03 5.03150000e+03 1.39500006e+01
v 6.06216425e+03 5.03150000e+03 1.48975992e+01
v 6.06099368e+03 5.03150000e+03 1.48107129e+01
v 6.06213403e+03 5.03150000e+03 1.44403898e+01
v 6.05262066e+03 5.03150000e+03 1.41818572e+01
v 6.05295766e+03 5.03150000e+03 1.41809544e+01
v 6.06053212e+03 5.03150000e+03 1.46916491e+01
v 6.06020296e+03 5.03150000e+03 1.45224275e+01
v 6.05656707e+03 5.03150000e+03 1.41423665e+01
v 6.05799756e+03 5.03150000e+03 1.41347779e+01
v 6.05940490e+03 5.03150000e+03 1.43660536e+01
v 6.06173859e+03 5.03150000e+03 1.09265257e+01
v 6.06178385e+03 5.03150000e+03 1.12661180e+01
v 6.06212634e+03 5.03150000e+03 1.19023711e+01
v 6.06171518e+03 5.03150000e+03 1.05970356e+01
v 6.06171197e+03 5.03150000e+03 1.02648827e+01
v 6.06211615e+03 5.03150000e+03 9.50908782e+00
v 6.03102003e+03 5.03150000e+03 1.42022940e+01
v 6.03100000e+03 5.03150000e+03 1.41856489e+01
v 6.06242611e+03 5.03150000e+03 1.41363293e+01
v 6.06234672e+03 5.03150000e+03 1.43920038e+01
v 6.06206526e+03 5.03150000e+03 1.47694826e+01
v 6.06208842e+03 5.03150000e+03 1.18319230e+01
v 6.06202834e+03 5.03150000e+03 9.67327684e+00
v 6.06230953e+03 5.03150000e+03 1.29460044e+01
v 6.06235983e+03 5.03150000e+03 1.32325997e+01
v 6.06235234e+03 5.03150000e+03 9.22961684e+00
v 6.06275000e+03 5.03150000e+03 9.09535546e+00
vt 0.15066183 0.59932482
vt 0.15169911 0.58728606
vt 0.1743927 0.61096191
vt 0.11274097 0.57682586
vt 0.19324191 0.60900348
vt 0.09426681 0.55278099
vt 0.17100576 0.57453489
vt 0.19299087 0.61698139
vt 0.22077598 0.61818123
vt 0.20127869 0.62487793
vt 0.18449618 0.6210556
vt 0.046716053 0.50475049
vt 0.23667315 0.61205524
vt 0.20507813 0.62689972
vt 0.20250192 0.62654293
vt 0.20409104 0.62604958
vt 0.053441152 0.53553754
vt 0.16544172 0.52659106
vt 0.23273572 0.5731051
vt 0.24515761 0.63433981
vt 0.099749722 0.50473356
vt 0.23055981 0.55242574
vt 0.27562505 0.63586557
vt 0.22617587 0.63944536
vt 0.22793779 0.65042835
vt 0.14156032 0.50471699
vt 0.18491203 0.50470692
vt 0.26713711 0.55283833
vt 0.26542124 0.65977669
vt 0.29267955 0.62433279
vt 0.23613261 0.53049487
vt 0.28443715 0.56808096
vt 0.32748139 0.65425646
vt 0.25992972 0.60213137
vt 0.25870031 0.50468159
vt 0.30250898 0.68510634
vt 0.23510805 0.59229028
vt 0.32392913 0.61020744
vt 0.34657514 0.6483252
vt 0.26392505 0.67646027
vt 0.29630736 0.50467092
vt 0.33907321 0.66789752
vt 0.27693808 0.67660493
vt 0.23379786 0.68946624
vt 0.33805969 0.52441168
vt 0.32584691 0.69839704
vt 0.37480104 0.65380764
vt 0.20924777 0.68412411
vt 0.32883188 0.50465822
vt 0.36560231 0.60974777
vt 0.34948456 0.70608604
vt 0.35850322 0.66482556
vt 0.20429136 0.73090988
vt 0.33903939 0.50465292
vt 0.39404178 0.53966606
vt 0.31520876 0.75627875
vt 0.38122365 0.68384725
vt 0.43292761 0.65021849
vt 0.18416996 0.72705531
vt 0.35457721 0.50464904
vt 0.38391733 0.51947749
vt 0.42127785 0.58132219
vt 0.30860195 0.73645222
vt 0.3594006 0.7707386
vt 0.40597022 0.51379788
vt 0.434589 0.55086827
vt 0.31608507 0.71044433
vt 0.25959623 0.79913402
vt 0.25611666 0.89407921
vt 0.47968268 0.62680316
vt 0.38131377 0.50463808
vt 0.3989307 0.50462627
vt 0.29595113 0.73936391
vt 0.31647205 0.6947239
vt 0.25733337 0.91459072
vt 0.49406239 0.72173178
vt 0.41833904 0.50461745
vt 0.45960656 0.52909994
vt 0.24701327 0.81181735
vt 0.21397065 0.86910778
vt 0.40070331 0.90641338
vt 0.19050732 0.88899547
vt 0.49968168 0.7155447
vt 0.45371121 0.50461346
vt 0.49964455 0.60085166
vt 0.36148182 0.93303108
vt 0.18590145 0.99689466
vt 0.49972361 0.84294409
vt 0.4996607 0.65018833
vt 0.49968374 0.72041154
vt 0.47588018 0.50460678
vt 0.49961743 0.52050006
vt 0.49964964 0.6166631
vt 0.21819358 0.85181499
vt 0.17085686 0.8583771
vt 0.39041084 0.94087732
vt 0.34111789 0.99489141
vt 0.19667643 0.9968912
vt 0.13548857 0.97338814
vt 0.49969414 0.75357157
vt 0.49972785 0.85481644
vt 0.49968359 0.72132534
vt 0.49885848 0.50460088
vt 0.20916303 0.85881692
vt 0.19464396 0.8578124
vt 0.13725677 0.86615288
vt 0.38809597 0.96748263
vt 0.33857721 0.99684376
vt 0.26254386 0.99686939
vt 0.16546692 0.99690139
vt 0.46368334 0.90813202
vt 0.49961346 0.50460064
vt 0.15602122 0.83677799
vt 0.34150255 0.99684286
vt 0.34676829 0.99684113
vt 0.13595413 0.9969098
vt 0.1141191 0.86268878
vt 0.4997398 0.89586473
vt 0.17212671 0.83926886
vt 0.14458263 0.82205832
vt 0.40316606 0.99682325
vt 0.096498087 0.9969219
vt 0.079137415 0.89234555
vt 0.49974445 0.91748381
vt 0.093815185 0.99692273
vt 0.076196618 0.94700754
vt 0.080838859 0.82235944
vt 0.11676203 0.82122087
vt 0.49975458 0.9609527
vt 0.42551771 0.9968161
vt 0.085294284 0.97215384
vt 0.032979015 0.91887254
vt 0.0036302558 0.84668225
vt 0.12505385 0.80868542
vt 0.4961873 0.96606606
vt 0.44750458 0.99680644
vt 0.0036314521 0.85027599
vt 0.038986113 0.93142891
vt 0.0036306316 0.84790576
vt 0.014877321 0.81300312
vt 0.10119063 0.81126463
vt 0.49975604 0.96403611
vt 0.45997235 0.99680066
vt 0.0036488215 0.90384418
vt 0.018240843 0.93106389
vt 0.0036292959 0.84344703
vt 0.49975917 0.97161216
vt 0.46511337 0.9967972
vt 0.0036488282 0.90683079
vt 0.019237595 0.92014176
vt 0.0036173349 0.80370796
vt 0.472114 0.99239022
vt 0.0036490161 0.90980816
vt 0.0035987438 0.78784811
vt 0.49976161 0.97682768
vt 0.47232381 0.99679351
vt 0.0043714028 0.78813183
vt 0.49976337 0.97983342
vt 0.49089918 0.99564981
vt 0.0035976595 0.78701764
vt 0.012787801 0.79301637
vt 0.4901464 0.99679178
vt 0.018995816 0.78533691
vt 0.029733425 0.80365485
vt 0.22077598 0.11818123
vt 0.20409104 0.12604958
vt 0.19299087 0.11698145
vt 0.61628646 0.97015339
vt 0.66809201 0.97646368
vt 0.64946091 0.98657
vt 0.64089131 0.93678474
vt 0.65127569 0.98648614
vt 0.67134506 0.95022368
vt 0.62480044 0.9526754
vt 0.66213888 0.91500765
vt 0.70795363 0.98267871
vt 0.61664963 0.95887738
vt 0.61593688 0.93393397
vt 0.64651245 0.88925302
vt 0.68874973 0.92507017
vt 0.6815269 0.98776954
vt 0.70714498 0.93800789
vt 0.60753357 0.90064937
vt 0.69157618 0.90752494
vt 0.72818357 0.94976091
vt 0.60403496 0.92150438
vt 0.62369335 0.88020098
vt 0.67658615 0.88115466
vt 0.75184089 0.98411715
vt 0.72136372 0.89182496
vt 0.57913226 0.92236602
vt 0.58148468 0.88505793
vt 0.69914472 0.88167214
vt 0.79762775 0.94220173
vt 0.73860306 0.93342805
vt 0.55618447 0.90509367
vt 0.5991419 0.93558419
vt 0.70529091 0.88863677
vt 0.78902006 0.98818702
vt 0.73968261 0.90042871
vt 0.55297112 0.94722354
vt 0.58622086 0.94105422
vt 0.5434956 0.88966012
vt 0.83248466 0.98697782
vt 0.76097924 0.88517505
vt 0.52286434 0.90827918
vt 0.84800267 0.96180671
vt 0.78607184 0.91398561
vt 0.77575594 0.89548445
vt 0.51854521 0.93788779
vt 0.57264841 0.97069025
vt 0.51312149 0.89265627
vt 0.85608077 0.93681341
vt 0.87968224 0.98947316
vt 0.84438789 0.89985329
vt 0.80947208 0.88802993
vt 0.50456876 0.90883505
vt 0.5134328 0.95497847
vt 0.59439456 0.95673305
vt 0.56080699 0.97907281
vt 0.87678605 0.95504904
vt 0.87922972 0.98439038
vt 0.88133299 0.99152625
vt 0.52038121 0.97263598
vt 0.87078905 0.90056163
vt 0.87455094 0.9427734
vt 0.86482257 0.99661583
vt 0.86453795 0.88816851
vt 0.53404695 0.98454058
vt 0.87219286 0.91858494
vt 0.86567926 0.8915118
vt 0.87294978 0.93264252
vt 0.51099128 0.98146409
vt 0.51732051 0.99032474
vt 0.71223956 0.60823202
vt 0.73743117 0.63353407
vt 0.69962585 0.63674563
vt 0.68149006 0.59058106
vt 0.73182207 0.60215288
vt 0.72147185 0.67922044
vt 0.65412074 0.63787711
vt 0.77202743 0.65885586
vt 0.68685389 0.70292753
vt 0.66141909 0.6825794
vt 0.61097682 0.60445422
vt 0.71109235 0.55951041
vt 0.77300018 0.61636215
vt 0.70522004 0.71351326
vt 0.77870107 0.67275178
vt 0.62526357 0.66993868
vt 0.62172353 0.55874354
vt 0.66364819 0.53610611
vt 0.74601722 0.58444154
vt 0.78236681 0.66409373
vt 0.72461253 0.73222911
vt 0.80615431 0.68195176
vt 0.76046735 0.69338036
vt 0.60931176 0.65589988
vt 0.56790113 0.53412604
vt 0.78451204 0.63937771
vt 0.73329169 0.73637593
vt 0.71400613 0.73780721
vt 0.77719378 0.71312857
vt 0.57023764 0.63476282
vt 0.52398551 0.56267059
vt 0.50362384 0.4796201
vt 0.64607465 0.52045465
vt 0.80596626 0.61761379
vt 0.78546536 0.71238565
vt 0.59078079 0.65070665
vt 0.50362396 0.47987145
vt 0.50362384 0.47960621
vt 0.59352559 0.48688209
vt 0.75996155 0.73053157
vt 0.80029297 0.6973877
vt 0.51365626 0.60520506
vt 0.50364608 0.54770839
vt 0.50362384 0.47956032
vt 0.7455188 0.74664491
vt 0.50366282 0.59571266
vt 0.50365156 0.56386828
vt 0.55299729 0.45909894
vt 0.50365812 0.5829196
vt 0.50362384 0.47952169
vt 0.50360966 0.43472099
vt 0.68190002 0.8030535
vt 0.70316541 0.78124803
vt 0.70595068 0.81597328
vt 0.68429965 0.82306445
vt 0.65508646 0.78425771
vt 0.72603863 0.78805733
vt 0.68771344 0.8393383
vt 0.67143583 0.81344801
vt 0.66781998 0.80173135
vt 0.67159826 0.75693941
vt 0.71259612 0.74554598
vt 0.72617483 0.80863357
vt 0.71831161 0.85658395
vt 0.63793468 0.8009938
vt 0.64405495 0.75097805
vt 0.68002594 0.74654067
vt 0.73350972 0.74578005
vt 0.74926198 0.7841469
vt 0.76204216 0.82683438
vt 0.75683695 0.84561163
vt 0.68610048 0.85581905
vt 0.66797501 0.81785464
vt 0.74748152 0.86235452
vt 0.66370273 0.84008169
vt 0.60487628 0.78628904
vt 0.75880331 0.75763881
vt 0.76174802 0.78623986
vt 0.75934434 0.85958123
vt 0.7328639 0.87164235
vt 0.66252035 0.85988235
vt 0.64551514 0.85702896
vt 0.56169063 0.7873407
vt 0.62281799 0.75157559
vt 0.75571012 0.74907577
vt 0.60509902 0.85795033
vt 0.579202 0.7546891
vt 0.60519695 0.75464308
vt 0.53256571 0.86148137
vt 0.51670951 0.75785923
vt 0.50942844 0.79473108
vt 0.58574367 0.86313236
vt 0.50655574 0.77118254
vt 0.51679492 0.8399483
vt 0.50296283 0.7581979
vt 0.52050853 0.86194205
vt 0.81566018 0.87165225
vt 0.81881398 0.85765415
vt 0.8257373 0.86233771
vt 0.81890756 0.83930695
vt 0.84894121 0.84035802
vt 0.89480144 0.85913783
vt 0.83867908 0.81365287
vt 0.8724184 0.82604885
vt 0.87401283 0.86910886
vt 0.826199 0.79961115
vt 0.89837694 0.82128829
vt 0.96012813 0.86855024
vt 0.82793278 0.79462141
vt 0.91494554 0.80126768
vt 0.94254792 0.86240226
vt 0.85150605 0.77796149
vt 0.94130683 0.80652642
vt 0.90531743 0.78876841
vt 0.96397388 0.83223814
vt 0.83304691 0.76729751
vt 0.88062316 0.7722885
vt 0.92344862 0.77691382
vt 0.99353701 0.84425831
vt 0.82123852 0.78560448
vt 0.85365069 0.76981151
vt 0.87657011 0.76624191
vt 0.96878183 0.81300926
vt 0.94688922 0.78905153
vt 0.90036571 0.77554995
vt 0.98927444 0.82709402
vt 0.99822426 0.86017156
vt 0.96968198 0.7955566
vt 0.99474585 0.8719334
vt 0.98041999 0.80166078
vt 0.97551256 0.7851876
vt 0.013698973 0.67461115
vt 0.022629118 0.6743834
vt 0.026179075 0.68865287
vt 0.025708642 0.66292846
vt 0.012825412 0.64357537
vt 0.025178572 0.63556767
vt 0.015758462 0.63500845
vt 0.95914501 0.71564841
vt 0.91037428 0.72355568
vt 0.9356606 0.71283919
vt 0.96970195 0.69569606
vt 0.8609705 0.72580022
vt 0.96046281 0.68690252
vt 0.98818785 0.70806223
vt 0.91330981 0.7068519
vt 0.85094208 0.73834705
vt 0.94675308 0.69523728
vt 0.97349083 0.67777359
vt 0.98896462 0.69094467
vt 0.99709946 0.71246308
vt 0.86076474 0.71670192
vt 0.83097708 0.72140747
vt 0.81733114 0.7455231
vt 0.82034492 0.72756612
vt 0.10996908 0.79727602
vt 0.11018954 0.78190553
vt 0.13277693 0.78585035
vt 0.13502535 0.79397178
vt 0.085400008 0.78354585
vt 0.13457413 0.76795501
vt 0.14913915 0.78890395
vt 0.077188268 0.79550695
vt 0.099954359 0.76851022
vt 0.12142649 0.76811528
vt 0.069899358 0.77578956
vt 0.073927432 0.76633012
vt 0.1608151 0.75912654
vt 0.12011068 0.76017368
vt 0.066683821 0.80940962
vt 0.15969615 0.77421188
vt 0.056920569 0.79151332
vt 0.046033792 0.77745086
vt 0.054925594 0.7975983
vt 0.049395144 0.78760421
vt 0.044182394 0.77487582
vt 0.065416664 0.80921721
vt 0.050311189 0.79127073
vt 0.040025305 0.76910669
vt 0.036961991 0.76591706
vt 0.04702577 0.76314008
vt 0.034873713 0.76360881
vt 0.91539562 0.97961003
vt 0.9055869 0.98659515
vt 0.87802076 0.97551632
vt 0.95899743 0.97892034
vt 0.94973958 0.98537052
vt 0.97006619 0.99661535
vt 0.99212974 0.99275905
vt 0.95173639 0.94596857
vt 0.96537584 0.93597788
vt 0.98329854 0.93394655
vt 0.94357967 0.92997009
vt 0.97254974 0.91411978
vt 0.89271545 0.96462262
vt 0.87826777 0.95079935
vt 0.92901093 0.93167704
vt 0.10961232 0.69434637
vt 0.10219441 0.68929088
vt 0.11650573 0.6826157
vt 0.088711053 0.67092836
vt 0.10096013 0.65968305
vt 0.087812342 0.68895519
vt 0.096245103 0.6570335
vt 0.12020237 0.67240608
vt 0.074321881 0.67932236
vt 0.11030287 0.69948006
vt 0.094830923 0.65571976
vt 0.12965909 0.67863548
vt 0.07377892 0.70965594
vt 0.067618012 0.66654557
vt 0.097418271 0.71265292
vt 0.066346757 0.68735045
vt 0.11070043 0.72802263
vt 0.074540973 0.64398658
vt 0.082913794 0.72585952
vt 0.12974359 0.71613711
vt 0.13145237 0.71368194
vt 0.1187795 0.73203361
vt 0.099843785 0.73529589
vt 0.11753199 0.73513818
vt 0.11404289 0.74643576
vt 0.11432711 0.74587297
vt 0.77646607 0.8611424
vt 0.77778947 0.85690713
vt 0.7855975 0.85980666
vt 0.78650576 0.86373597
vt 0.78493553 0.85694307
vt 0.78859323 0.87148798
vt 0.77462196 0.8382479
vt 0.77269632 0.87124276
vt 0.78635389 0.84567028
vt 0.78692859 0.84116638
vt 0.77292943 0.8283928
vt 0.78902155 0.82476544
vt 0.77052742 0.82440507
vt 0.78945506 0.82364011
vt 0.7929368 0.8146019
vt 0.7913143 0.80770338
vt 0.77028763 0.8065263
vt 0.79345381 0.80927539
vt 0.79375708 0.79894143
vt 0.7937209 0.80412197
vt 0.7901383 0.78994405
vt 0.78913397 0.78744698
vt 0.77406335 0.79444486
vt 0.77886415 0.78324997
vt 0.78643268 0.78325856
vt 0.19962028 0.84041756
vt 0.1743824 0.83956742
vt 0.18481733 0.81751436
vt 0.21460894 0.81774062
vt 0.16068426 0.82211918
vt 0.22337843 0.80718809
vt 0.23265933 0.82971025
vt 0.55796981 0.99568331
vt 0.57379752 0.97454906
vt 0.5834226 0.99572593
vt 0.53514755 0.989012
vt 0.59677935 0.97910976
vt 0.22362116 0.80324519
vt 0.22405182 0.78972173
vt 0.22928368 0.78919214
vt 0.21156904 0.80938011
vt 0.21338484 0.76362765
vt 0.19918185 0.79273123
vt 0.23092864 0.77743417
vt 0.20658547 0.74613833
vt 0.19353293 0.77550429
vt 0.23370631 0.77628547
vt 0.19089599 0.76300448
vt 0.58299118 0.98800576
vt 0.64534771 0.98599637
vt 0.61883569 0.99562562
vt 0.50376761 0.7025007
vt 0.51108831 0.68338102
vt 0.55514085 0.69145
vt 0.52349514 0.70813346
vt 0.54390192 0.71486902
vt 0.520307 0.73534828
vt 0.56308717 0.71216047
vt 0.52912569 0.74293864
vt 0.52593517 0.7395848
vt 0.55392826 0.7381174
vt 0.53157461 0.74602127
vt 0.93182111 0.88761097
vt 0.93771315 0.89723468
vt 0.92957687 0.90533048
vt 0.92148715 0.8947981
vt 0.92448759 0.92235786
vt 0.88620114 0.87945962
vt 0.89786547 0.90136892
vt 0.90381223 0.9331643
vt 0.88125122 0.89141303
vt 0.87955528 0.91991699
vt 0.16049415 0.75537997
vt 0.16967094 0.75667769
vt 0.16152623 0.78285354
vt 0.18377985 0.78641945
vt 0.16632859 0.79370594
vt 0.18598041 0.77690136
vt 0.16612104 0.80819595
vt 0.1812422 0.76685625
vt 0.18561703 0.75870299
vt 0.52191228 0.98894227
vt 0.5476656 0.99546474
vt 0.4962357 0.99249858
vt 0.011151989 0.95767456
vt 0.0039793178 0.94269818
vt 0.02704869 0.949224
vt 0.055471811 0.96469122
vt 0.015857054 0.93649596
vt 0.069131069 0.94656605
vt 0.062338322 0.95290273
vt 0.049845394 0.9596144
vt 0.066136681 0.99588794
vt 0.073447056 0.94656605
vt 0.077941343 0.95561475
vt 0.076441444 0.99588794
vt 0.080239803 0.95290273
vt 0.98845023 0.96323448
vt 0.98116904 0.95881993
vt 0.98224777 0.94943881
vt 0.9416889 0.96469253
vt 0.96942198 0.93903434
vt 0.95158786 0.8749904
vt 0.98787302 0.88570374
vt 0.97843874 0.89116895
vt 0.95490265 0.90179294
vt 0.94062823 0.88586545
vt 0.23288248 0.74181622
vt 0.24566525 0.75203437
vt 0.23175894 0.74559212
vt 0.25530869 0.7330085
vt 0.22953363 0.7497704
vt 0.26734188 0.75614291
vt 0.23475502 0.7684744
vt 0.24891795 0.77735859
vt 0.22324511 0.75828832
vt 0.0032539745 0.73408622
vt 0.025258578 0.71594357
vt 0.026157005 0.74695349
vt 0.044927992 0.7246455
vt 0.043109328 0.71077323
vt 0.2602731 0.73783606
vt 0.25503361 0.72698915
vt 0.2656548 0.72505105
vt 0.27185422 0.7454558
vt 0.25305155 0.71397018
vt 0.28245577 0.73383486
vt 0.2530576 0.72189987
vt 0.25304788 0.70895272
vt 0.28421301 0.70820433
vt 0.25306043 0.72658372
vt 0.26552507 0.71122622
vt 0.28226349 0.70888913
vt 0.25304762 0.70856261
vt 0.040978901 0.99224669
vt 0.024253558 0.99657381
vt 0.0034047677 0.99050987
vt 0.071510464 0.99334353
vt 0.053026848 0.99614781
vt 0.034343228 0.99245793
vt 0.81617665 0.85480082
vt 0.80220062 0.84885037
vt 0.81488949 0.85064119
vt 0.81165302 0.85627908
vt 0.81487441 0.86518377
vt 0.80781156 0.86905766
vt 0.81669247 0.86274308
vt 0.79495746 0.87016374
vt 0.79024446 0.8554638
vt 0.78542519 0.85188693
vt 0.98430812 0.90788209
vt 0.99682522 0.89532447
vt 0.99563748 0.91724306
vt 0.99497581 0.9174189
vt 0.9868291 0.88861579
vt 0.9822098 0.91387314
vt 0.97321838 0.90506595
vt 0.97546446 0.91195518
vt 0.97196698 0.89762729
vt 0.079777859 0.99529624
vt 0.078598708 0.99504066
vt 0.082801573 0.99391919
vt 0.065819502 0.98915327
vt 0.092905819 0.99013454
vt 0.65602535 0.9896329
vt 0.64644754 0.99572271
vt 0.62955225 0.9894926
vt 0.020001298 0.97254014
vt 0.043744422 0.96236908
vt 0.03556712 0.98068953
vt 0.59053314 0.95836616
vt 0.59264541 0.96987766
vt 0.58130258 0.97433424
vt 0.60529345 0.9737128
vt 0.59514821 0.97949284
vt 0.97334719 0.98085171
vt 0.99151504 0.9563331
vt 0.98711765 0.97907674
vt 0.68258488 0.99570388
vt 0.6664409 0.99293476
vt 0.65972692 0.98261154
vt 0.61776263 0.95827299
vt 0.59751242 0.96527123
vt 0.60368514 0.95259392
vt 0.6045357 0.94317955
vt 0.60144472 0.95192528
vt 0.50041556 0.99298406
vt 0.48873559 0.97731662
vt 0.50283325 0.99527436
vt 0.8816101 0.99683273
vt 0.87884843 0.97690678
vt 0.88916928 0.98521358
vt 0.89714193 0.98315161
vt 0.7030068 0.99309891
vt 0.68458837 0.98884577
vt 0.70264506 0.99199879
vt 0.68323863 0.98913366
vt 0.68280154 0.99407357
vt 0.68343365 0.99626243
vt 0.69949251 0.99667591
vt 0.050471362 0.97956216
vt 0.057846081 0.96504486
vt 0.063433483 0.97941089
vt 0.65962172 0.99648786
vt 0.65330225 0.99013472
vt 0.66691327 0.99027282
vt 0.011833187 0.99617016
vt 0.0042019375 0.99628979
vt 0.0066991197 0.99212533
usemtl Tile_+031_+021_L19_000001_0
f 20/286 21/287 87/288
f 188/490 92/491 184/492
f 67/1 131/2 178/3
f 167/94 215/79 164/80
f 208/495 203/496 384/497
f 199/500 203/496 204/498
f 386/565 202/566 387/567
f 99/628 174/629 104/630
f 183/608 181/609 304/610
f 169/390 180/391 170/392
f 163/539 117/540 133/541
f 117/323 71/320 133/326
f 201/574 192/575 206/576
f 202/566 208/571 385/569
f 131/2 154/5 178/3
f 122/168 52/169 155/170
f 157/165 179/166 156/167
f 130/7 159/19 212/13
f 161/31 158/22 17/27
f 162/24 122/25 153/14
f 179/16 162/24 153/14
f 65/171 149/174 150/178
f 195/509 196/510 207/511
f 87/288 141/297 165/304
f 156/8 154/5 160/10
f 213/647 90/648 214/649
f 124/373 28/374 126/375
f 135/235 139/236 19/237
f 179/617 153/618 160/619
f 162/24 179/16 157/9
f 185/432 176/433 81/434
f 190/394 169/390 186/397
f 118/157 186/163 116/161
f 186/397 134/400 190/394
f 137/530 210/531 147/532
f 103/123 92/126 79/132
f 114/396 37/402 115/405
f 188/444 184/447 187/440
f 105/117 102/106 82/99
f 393/598 81/599 394/600
f 107/204 108/199 66/194
f 309/223 107/204 310/214
f 74/215 54/216 311/228
f 48/636 49/637 57/638
f 131/2 67/1 68/4
f 67/176 63/182 62/185
f 32/555 85/556 24/557
f 24/289 22/293 20/286
f 192/515 191/513 207/511
f 207/511 191/513 200/512
f 157/620 156/621 160/619
f 164/80 173/104 167/94
f 196/520 197/521 198/522
f 193/577 206/576 192/575
f 204/527 206/529 205/526
f 209/523 199/524 205/526
f 199/524 204/527 205/526
f 205/526 206/529 193/528
f 209/523 205/526 207/525
f 205/526 193/528 207/525
f 209/523 196/520 198/522
f 204/572 208/571 202/566
f 203/496 199/500 194/499
f 206/570 202/566 201/568
f 204/498 203/496 208/495
f 206/570 204/572 202/566
f 195/502 194/499 197/505
f 200/512 195/509 207/511
f 197/505 194/499 198/503
f 196/633 195/634 197/635
f 395/501 195/502 396/504
f 207/578 193/577 192/575
f 384/497 194/499 395/501
f 191/513 201/518 386/519
f 201/518 191/513 192/515
f 81/434 176/433 112/435
f 200/512 191/513 397/516
f 396/514 200/512 398/517
f 86/305 173/313 101/308
f 213/647 214/649 91/650
f 101/105 173/104 164/80
f 190/394 163/401 133/398
f 170/392 172/393 169/390
f 37/632 174/629 115/631
f 170/392 180/391 132/395
f 78/164 113/140 116/161
f 188/444 189/446 182/450
f 175/437 176/433 95/441
f 304/456 76/448 315/457
f 182/450 189/446 76/448
f 317/408 118/404 321/411
f 183/608 80/612 181/609
f 318/614 183/608 320/615
f 182/138 181/145 79/132
f 76/448 181/454 182/450
f 133/398 171/399 180/391
f 133/398 180/391 190/394
f 186/163 78/164 116/161
f 190/394 180/391 169/390
f 79/132 80/150 319/153
f 185/661 95/662 176/663
f 92/491 83/494 184/492
f 21/287 93/296 140/291
f 187/440 112/435 175/437
f 112/435 176/433 175/437
f 180/391 171/399 132/395
f 133/398 71/403 171/399
f 173/331 86/332 167/333
f 31/424 88/425 25/426
f 104/630 174/629 37/632
f 114/396 172/393 170/392
f 114/396 132/395 37/402
f 169/483 172/484 77/485
f 68/4 110/6 131/2
f 52/11 156/8 179/16
f 160/644 52/645 179/646
f 156/8 52/11 178/3
f 154/5 156/8 178/3
f 29/427 88/425 31/424
f 108/417 110/418 68/419
f 325/414 163/401 326/413
f 118/404 134/400 186/397
f 28/59 124/48 30/53
f 48/190 56/200 64/195
f 155/170 52/169 160/172
f 155/15 160/10 154/5
f 123/379 124/373 128/376
f 16/18 17/27 158/22
f 212/13 157/9 130/7
f 153/618 157/620 160/619
f 150/178 149/174 123/177
f 153/14 155/15 154/5
f 154/5 157/9 153/14
f 167/333 86/332 165/334
f 164/80 90/95 101/105
f 167/333 165/334 168/335
f 145/340 166/337 165/334
f 146/311 143/302 138/319
f 145/312 165/304 142/303
f 126/375 28/374 27/377
f 27/377 23/386 30/380
f 30/380 126/375 27/377
f 22/387 31/381 25/388
f 34/290 21/287 20/286
f 143/302 146/311 142/303
f 147/369 144/367 145/366
f 141/297 140/291 142/303
f 140/291 141/297 87/288
f 165/304 141/297 142/303
f 146/370 138/372 137/371
f 143/248 137/255 138/262
f 19/237 136/240 93/243
f 46/295 18/301 21/287
f 136/240 143/248 93/243
f 19/237 139/236 136/240
f 155/15 153/14 122/25
f 65/171 150/178 151/183
f 126/375 128/376 124/373
f 52/169 122/168 65/171
f 122/168 149/174 65/171
f 158/22 159/19 130/7
f 53/173 52/169 65/171
f 65/171 61/175 53/173
f 60/179 61/175 65/171
f 152/239 135/235 39/238
f 125/187 60/179 151/183
f 282/186 151/183 150/178
f 123/379 128/376 150/384
f 122/168 123/177 149/174
f 124/48 148/44 30/53
f 30/380 129/382 126/375
f 125/246 152/239 39/238
f 124/373 123/379 122/385
f 121/35 161/31 17/27
f 327/154 113/140 328/151
f 78/486 186/489 169/483
f 190/394 134/400 163/401
f 163/401 134/400 329/407
f 107/420 119/423 120/422
f 120/422 109/421 107/420
f 171/399 71/403 132/395
f 132/395 114/396 170/392
f 113/140 114/127 331/133
f 110/418 108/417 107/420
f 132/395 71/403 37/402
f 15/21 16/18 120/12
f 16/18 130/7 120/12
f 130/7 131/2 110/6
f 120/12 110/6 109/17
f 107/420 109/421 110/418
f 131/2 130/7 154/5
f 52/169 53/173 67/176
f 40/321 35/310 45/317
f 118/157 116/161 113/140
f 111/605 185/606 81/599
f 103/123 114/127 105/117
f 79/132 92/126 182/138
f 114/487 113/488 77/485
f 103/123 79/132 335/137
f 95/441 76/448 189/446
f 98/603 111/605 81/599
f 211/601 96/602 98/603
f 98/579 96/580 97/581
f 388/583 96/580 399/585
f 83/445 112/435 187/440
f 32/428 88/425 29/427
f 87/288 32/292 24/289
f 91/119 90/95 89/113
f 25/426 88/425 32/428
f 91/298 87/288 86/305
f 85/556 32/555 23/558
f 87/288 91/298 32/292
f 401/87 94/75 402/98
f 84/82 82/99 102/106
f 25/309 100/306 104/315
f 32/292 100/306 25/309
f 105/117 114/127 99/128
f 100/120 99/128 104/134
f 103/123 105/117 82/99
f 82/99 92/126 103/123
f 115/141 99/128 114/127
f 101/308 91/298 86/305
f 90/95 102/106 89/113
f 91/650 214/649 90/648
f 164/80 84/82 90/95
f 91/119 89/113 100/120
f 115/631 174/629 99/628
f 83/131 92/126 82/99
f 389/125 82/99 392/122
f 405/436 112/435 406/438
f 112/435 83/445 390/442
f 181/145 80/150 79/132
f 113/488 78/486 77/485
f 331/133 103/123 336/139
f 72/265 73/276 314/280
f 42/245 40/264 72/265
f 40/264 73/276 72/265
f 36/299 37/316 71/320
f 45/317 36/299 71/320
f 45/317 71/320 117/323
f 22/293 33/294 20/286
f 313/327 45/317 342/325
f 342/325 117/323 343/328
f 72/265 58/259 42/245
f 45/317 73/324 40/321
f 69/208 70/209 54/216
f 69/208 66/194 56/200
f 66/194 69/208 74/215
f 106/207 107/204 66/194
f 66/194 74/215 75/213
f 75/213 106/207 66/194
f 310/214 106/207 333/222
f 58/259 72/265 347/271
f 350/278 51/251 351/272
f 57/267 51/251 55/273
f 74/215 69/208 54/216
f 56/200 48/190 55/205
f 50/252 125/246 39/238
f 70/209 55/205 54/216
f 58/259 51/251 42/245
f 51/251 39/238 42/245
f 51/251 50/252 39/238
f 47/184 49/198 48/190
f 48/190 57/193 55/205
f 60/179 125/187 50/188
f 63/182 59/180 47/184
f 56/200 66/194 64/195
f 70/209 69/208 56/200
f 66/194 108/199 68/189
f 67/176 53/173 63/182
f 62/185 64/195 66/194
f 68/189 62/185 66/194
f 62/185 68/189 67/176
f 63/182 47/184 48/190
f 47/184 59/180 61/175
f 64/195 62/185 48/190
f 62/185 63/182 48/190
f 61/175 60/179 47/184
f 53/173 59/180 63/182
f 59/180 53/173 61/175
f 34/290 20/286 33/294
f 31/381 27/377 28/374
f 26/658 33/659 22/660
f 29/427 30/430 23/431
f 28/429 30/430 29/427
f 29/427 31/424 28/429
f 25/388 26/389 22/387
f 37/316 36/299 25/309
f 26/307 25/309 36/299
f 24/557 85/556 22/559
f 165/304 86/305 87/288
f 21/287 140/291 87/288
f 93/296 143/302 140/291
f 36/299 34/290 33/294
f 46/295 21/287 34/290
f 35/310 41/318 43/300
f 18/301 46/295 43/300
f 43/300 46/295 34/290
f 40/321 44/322 35/310
f 45/317 35/310 36/299
f 33/294 26/307 36/299
f 35/310 44/322 41/318
f 36/299 35/310 43/300
f 43/250 41/258 42/245
f 38/241 43/250 42/245
f 40/264 42/245 41/258
f 18/244 43/250 38/241
f 39/238 135/235 19/237
f 42/245 39/238 38/241
f 19/237 38/241 39/238
f 178/181 52/169 67/176
f 199/500 198/503 194/499
f 81/599 211/601 98/603
f 142/303 140/291 143/302
f 128/376 282/383 150/384
f 100/120 105/117 99/128
f 96/602 211/601 393/598
f 51/251 58/259 349/266
f 110/6 120/12 130/7
f 60/179 50/188 47/184
f 22/387 23/386 27/377
f 196/520 209/523 207/525
f 199/524 209/523 198/522
f 78/486 169/483 77/485
f 353/587 97/581 354/590
f 95/441 189/446 175/437
f 175/437 189/446 188/444
f 175/437 188/444 187/440
f 111/582 97/581 95/584
f 111/582 98/579 97/581
f 118/404 177/406 134/400
f 188/490 182/493 92/491
f 83/445 187/440 184/447
f 101/625 90/626 213/627
f 114/487 77/485 172/484
f 134/400 177/406 307/409
f 130/7 16/18 158/22
f 27/377 31/381 22/387
f 157/9 154/5 130/7
f 146/370 147/369 145/366
f 146/370 137/371 147/369
f 136/240 137/255 143/248
f 168/335 165/334 166/337
f 145/312 142/303 146/311
f 151/183 60/179 65/171
f 127/378 128/376 126/375
f 126/375 129/382 127/378
f 25/309 104/315 37/316
f 334/221 75/213 355/226
f 339/451 95/441 353/452
f 23/558 22/559 85/556
f 102/106 90/95 84/82
f 102/106 105/117 100/120
f 91/298 100/306 32/292
f 100/120 89/113 102/106
f 101/308 213/314 91/298
f 82/99 84/82 401/87
f 95/607 185/606 111/605
f 56/200 55/205 70/209
f 75/213 74/215 344/225
f 54/282 55/273 350/278
f 51/251 57/267 50/252
f 50/188 57/193 47/184
f 57/193 49/198 47/184
f 18/301 93/296 21/287
f 24/289 20/286 87/288
f 43/300 34/290 36/299
f 18/244 38/241 19/237
f 41/258 44/270 40/264
f 93/243 18/244 19/237
f 32/428 29/427 23/431
f 275/361 272/363 220/342
f 13/45 12/61 253/55
f 356/83 258/70 357/89
f 215/339 167/333 279/336
f 94/75 241/97 407/108
f 359/458 358/459 428/460
f 236/51 246/42 244/52
f 139/236 135/235 152/239
f 148/542 288/543 129/544
f 278/68 234/69 164/80
f 215/339 279/336 220/342
f 220/73 278/68 215/79
f 215/79 278/68 164/80
f 259/63 238/56 278/68
f 272/67 237/46 259/63
f 248/229 268/234 272/233
f 121/592 6/593 5/594
f 237/622 268/623 248/624
f 259/63 220/73 272/67
f 276/345 279/336 219/341
f 279/336 276/345 220/342
f 411/156 240/159 412/162
f 360/651 240/652 364/653
f 239/135 228/152 415/148
f 223/212 222/206 273/217
f 2/72 254/65 12/61
f 246/551 243/552 270/553
f 10/84 256/78 254/65
f 251/58 257/50 252/62
f 272/67 268/74 237/46
f 217/64 238/56 236/51
f 221/353 275/361 220/342
f 265/28 161/31 121/35
f 212/13 267/34 266/30
f 5/41 13/45 264/32
f 13/45 250/38 264/32
f 246/547 271/548 244/549
f 246/42 245/33 242/39
f 263/20 157/9 212/13
f 242/39 245/33 266/30
f 266/30 262/23 212/13
f 263/20 212/13 262/23
f 264/32 250/38 267/34
f 266/30 267/34 250/38
f 245/33 262/23 266/30
f 273/217 222/206 260/210
f 12/61 254/65 253/55
f 253/55 255/66 252/62
f 9/91 11/103 256/78
f 13/45 257/50 250/38
f 216/76 251/58 258/70
f 256/78 255/66 254/65
f 235/57 247/47 251/58
f 217/64 251/58 216/76
f 217/64 235/57 251/58
f 242/39 250/38 247/47
f 248/36 261/43 249/29
f 235/57 236/51 244/52
f 244/52 247/47 235/57
f 242/639 244/640 243/641
f 244/640 271/643 243/641
f 246/642 242/639 243/641
f 12/61 13/45 4/60
f 253/55 257/50 13/45
f 5/41 264/32 121/35
f 162/24 157/9 263/20
f 162/24 263/20 249/29
f 249/29 263/20 262/23
f 249/29 262/23 245/33
f 221/218 260/210 231/201
f 94/75 84/82 234/69
f 217/64 224/81 94/75
f 237/46 238/56 259/63
f 237/46 236/51 238/56
f 275/224 248/229 272/233
f 220/342 276/345 218/349
f 220/73 259/63 278/68
f 238/56 217/64 234/69
f 94/75 234/69 217/64
f 246/42 236/51 237/46
f 236/51 235/57 217/64
f 234/69 84/82 164/80
f 277/96 225/107 233/86
f 225/107 241/97 233/86
f 230/196 232/191 231/201
f 94/75 233/86 241/97
f 414/115 225/107 417/121
f 417/121 227/111 418/130
f 224/506 225/507 277/508
f 362/101 224/81 367/88
f 217/64 216/76 224/81
f 369/129 227/111 370/124
f 227/111 239/135 416/143
f 364/158 228/152 372/155
f 228/152 239/135 371/147
f 226/533 144/534 147/532
f 224/81 227/111 225/107
f 218/349 221/353 220/342
f 218/349 276/345 219/341
f 367/88 216/76 375/100
f 379/464 378/468 433/467
f 422/469 376/470 431/471
f 302/535 303/537 297/538
f 210/531 303/537 302/535
f 283/560 294/561 284/562
f 224/81 233/86 94/75
f 226/533 166/536 144/534
f 145/366 144/367 166/368
f 279/336 168/335 291/338
f 147/532 210/531 226/533
f 210/531 302/535 226/533
f 296/355 286/346 297/350
f 30/545 148/542 129/544
f 219/341 291/338 301/344
f 300/249 299/257 136/240
f 295/263 210/261 136/240
f 295/263 299/257 300/249
f 219/341 301/344 287/347
f 292/563 283/560 284/562
f 284/352 301/344 292/348
f 218/349 287/347 298/357
f 221/353 218/349 260/360
f 284/254 294/242 289/247
f 281/358 280/362 287/347
f 136/240 139/236 294/242
f 294/242 300/249 136/240
f 285/269 295/263 283/256
f 300/249 294/242 283/256
f 283/256 295/263 300/249
f 295/356 285/351 286/346
f 296/274 297/279 210/261
f 210/261 137/255 136/240
f 152/239 125/246 293/253
f 288/202 148/219 274/211
f 249/29 261/43 274/40
f 274/40 148/44 122/25
f 230/196 289/203 293/192
f 159/19 267/34 269/37
f 148/44 124/48 122/25
f 127/546 129/544 288/543
f 231/201 232/191 288/202
f 274/40 122/25 249/29
f 231/201 261/220 275/224
f 274/211 231/201 288/202
f 232/191 230/196 151/183
f 264/32 267/34 159/19
f 250/38 257/50 247/47
f 274/211 261/220 231/201
f 252/62 257/50 253/55
f 258/70 252/62 255/66
f 255/66 256/78 258/70
f 250/38 242/39 266/30
f 158/22 161/31 265/28
f 159/19 158/22 265/28
f 226/343 286/346 291/338
f 219/341 279/336 291/338
f 232/191 282/186 127/197
f 277/96 233/86 224/81
f 248/36 245/33 246/42
f 289/203 230/196 222/206
f 298/357 273/364 260/360
f 151/183 282/186 232/191
f 286/346 296/355 295/356
f 285/351 290/359 292/348
f 283/560 292/563 290/564
f 287/347 218/349 219/341
f 291/338 286/346 285/351
f 265/28 264/32 159/19
f 248/36 249/29 245/33
f 424/476 377/474 432/478
f 293/192 125/187 151/183
f 265/28 121/35 264/32
f 261/220 248/229 275/224
f 247/47 257/50 251/58
f 246/547 270/550 271/548
f 243/552 271/554 270/553
f 10/84 254/65 1/77
f 159/595 269/596 212/597
f 246/42 237/46 248/36
f 218/349 298/357 260/360
f 222/206 230/196 231/201
f 254/65 255/66 253/55
f 258/70 251/58 252/62
f 365/85 256/78 382/92
f 247/47 244/52 242/39
f 275/224 221/218 231/201
f 278/68 238/56 234/69
f 168/335 279/336 167/333
f 291/338 168/335 166/337
f 291/338 166/337 226/343
f 281/358 287/347 284/352
f 287/347 301/344 284/352
f 297/538 303/537 210/531
f 136/240 299/257 295/263
f 223/365 280/362 281/358
f 289/247 223/268 281/260
f 285/351 292/348 291/338
f 294/242 139/236 152/239
f 298/357 287/347 280/362
f 222/206 231/201 260/210
f 280/362 273/364 298/357
f 280/362 223/365 273/364
f 294/242 152/239 289/247
f 283/256 290/275 285/269
f 296/274 210/261 295/263
f 282/383 128/376 127/378
f 289/247 152/239 293/253
f 289/203 222/206 223/212
f 230/196 293/192 151/183
f 288/202 232/191 127/197
f 122/25 162/24 249/29
f 212/13 269/37 267/34
f 301/344 291/338 292/348
f 297/350 286/346 226/343
f 226/343 302/354 297/350
f 289/247 281/260 284/254
f 14/26 17/27 16/18
f 14/26 16/18 15/21
f 4/60 13/45 8/54
f 2/72 12/61 3/71
f 9/91 256/78 10/84
f 13/45 7/49 8/54
f 7/49 13/45 5/41
f 3/71 12/61 4/60
f 382/92 11/103 383/112
f 1/77 254/65 2/72
f 304/456 181/454 76/448
f 305/611 183/608 304/610
f 306/589 97/581 426/586
f 307/409 177/406 308/412
f 308/412 177/406 317/408
f 309/223 119/227 107/204
f 310/214 107/204 106/207
f 311/285 54/282 352/284
f 312/231 74/215 311/228
f 313/327 73/324 45/317
f 314/329 73/324 313/327
f 315/457 76/448 337/455
f 316/613 183/608 305/611
f 317/408 177/406 118/404
f 318/614 80/612 183/608
f 319/616 80/612 318/614
f 320/615 183/608 316/613
f 321/160 118/157 327/154
f 322/144 79/132 323/149
f 323/149 79/132 319/153
f 324/416 117/415 325/414
f 325/414 117/415 163/401
f 326/413 163/401 330/410
f 327/154 118/157 113/140
f 328/151 113/140 332/146
f 329/407 134/400 307/409
f 330/410 163/401 329/407
f 331/133 114/127 103/123
f 332/146 113/140 331/133
f 333/222 106/207 334/221
f 334/221 106/207 75/213
f 335/137 79/132 322/144
f 336/139 103/123 335/137
f 337/455 76/448 338/453
f 338/453 76/448 339/451
f 339/451 76/448 95/441
f 340/281 72/265 341/283
f 341/283 72/265 314/280
f 342/325 45/317 117/323
f 343/328 117/323 324/330
f 344/225 74/215 312/231
f 345/232 75/213 346/230
f 346/230 75/213 344/225
f 347/271 72/265 348/277
f 348/277 72/265 340/281
f 349/266 58/259 347/271
f 350/278 55/273 51/251
f 351/272 51/251 349/266
f 352/284 54/282 350/278
f 353/587 95/584 97/581
f 354/590 97/581 306/589
f 355/226 75/213 345/232
f 356/83 216/76 258/70
f 357/89 258/70 366/93
f 410/463 359/458 429/461
f 412/654 360/651 430/655
f 360/651 361/657 410/656
f 362/101 227/111 224/81
f 363/118 227/111 362/101
f 364/158 240/159 228/152
f 365/85 258/70 256/78
f 366/93 258/70 365/85
f 367/88 224/81 216/76
f 368/142 239/135 369/129
f 369/129 239/135 227/111
f 370/124 227/111 363/118
f 371/147 239/135 368/142
f 372/155 228/152 371/147
f 373/102 216/76 374/90
f 374/90 216/76 356/83
f 375/100 216/76 373/102
f 376/470 229/473 421/472
f 377/474 229/473 376/470
f 409/462 379/464 434/466
f 377/474 380/480 425/479
f 425/479 381/481 435/482
f 382/92 256/78 11/103
f 384/497 203/496 194/499
f 385/569 208/571 384/573
f 386/565 201/568 202/566
f 387/567 202/566 385/569
f 388/583 97/581 96/580
f 389/125 83/131 82/99
f 390/442 83/445 389/449
f 391/116 82/99 403/110
f 392/122 82/99 391/116
f 393/598 211/601 81/599
f 394/443 81/434 404/439
f 395/501 194/499 195/502
f 396/514 195/509 200/512
f 397/516 191/513 386/519
f 398/517 200/512 397/516
f 399/585 96/580 400/588
f 400/604 96/602 393/598
f 401/87 84/82 94/75
f 402/98 94/75 408/109
f 403/110 82/99 401/87
f 404/439 81/434 405/436
f 405/436 81/434 112/435
f 406/438 112/435 390/442
f 407/108 241/97 413/114
f 408/109 94/75 407/108
f 409/462 358/459 379/464
f 410/463 361/465 359/458
f 411/156 228/152 240/159
f 412/654 240/652 360/651
f 413/114 241/97 414/115
f 414/115 241/97 225/107
f 415/148 228/152 411/156
f 416/143 239/135 415/148
f 417/121 225/107 227/111
f 418/130 227/111 419/136
f 419/136 227/111 416/143
f 420/475 229/473 423/477
f 421/472 229/473 420/475
f 422/469 378/468 376/470
f 423/477 229/473 424/476
f 424/476 229/473 377/474
f 425/479 380/480 381/481
f 426/586 97/581 388/583
f 427/591 306/589 426/586
f 428/460 358/459 409/462
f 429/461 359/458 428/460
f 430/655 360/651 410/656
f 431/471 376/470 421/472
f 432/478 377/474 425/479
f 433/467 378/468 422/469
f 434/466 379/464 433/467
f 435/664 381/665 436/666
usemtl Tile_+031_+021_L19_000001_untextured
