mtllib Tile_+031_+021_L19_000133.mtl
v 6.23972573e+03 5.10065861e+03 2.38249291e+01
v 6.23895660e+03 5.10034007e+03 2.42977601e+01
v 6.23932173e+03 5.10149217e+03 1.79140627e+01
v 6.23983054e+03 5.10131039e+03 1.78965570e+01
v 6.23429765e+03 5.09726739e+03 3.12795803e+01
v 6.23297325e+03 5.09607200e+03 2.94278884e+01
v 6.23350882e+03 5.09632332e+03 3.24652457e+01
v 6.23248866e+03 5.09593927e+03 3.18955876e+01
v 6.22964853e+03 5.09373104e+03 2.66827180e+01
v 6.22911588e+03 5.09379395e+03 2.86806387e+01
v 6.23289796e+03 5.09587607e+03 3.78186154e+01
v 6.23359813e+03 5.09575833e+03 3.78158175e+01
v 6.23305420e+03 5.09447848e+03 3.77911316e+01
v 6.23342562e+03 5.09659723e+03 3.36133480e+01
v 6.23154474e+03 5.09536216e+03 3.58767927e+01
v 6.22882946e+03 5.12248738e+03 9.11421873e+00
v 6.22850347e+03 5.12255850e+03 1.06070913e+01
v 6.23831822e+03 5.09984267e+03 3.25025766e+01
v 6.23850783e+03 5.10016019e+03 3.38120484e+01
v 6.23567191e+03 5.09820414e+03 3.37806765e+01
v 6.23114302e+03 5.09507526e+03 2.73611188e+01
v 6.23412987e+03 5.09716374e+03 2.82813179e+01
v 6.23614392e+03 5.09829030e+03 2.64941847e+01
v 6.22963165e+03 5.09374917e+03 3.52916196e+01
v 6.23452315e+03 5.09730948e+03 3.83514655e+01
v 6.23317539e+03 5.09640421e+03 3.83797596e+01
v 6.23303245e+03 5.10703955e+03 1.20828509e+01
v 6.23356617e+03 5.10821963e+03 1.24078113e+01
v 6.23569046e+03 5.10832971e+03 1.22325136e+01
v 6.23257371e+03 5.10869612e+03 1.27073400e+01
v 6.23688278e+03 5.10810548e+03 1.23595683e+01
v 6.23340241e+03 5.10937829e+03 1.23387371e+01
v 6.23436391e+03 5.12032962e+03 1.17504460e+01
v 6.23783544e+03 5.12015746e+03 1.17109693e+01
v 6.23893414e+03 5.11306429e+03 1.21141784e+01
v 6.24120718e+03 5.11252816e+03 1.20033774e+01
v 6.23754126e+03 5.11843792e+03 1.20726753e+01
v 6.23201891e+03 5.11631109e+03 1.16854284e+01
v 6.22185643e+03 5.11523608e+03 9.36472669e+00
v 6.22309497e+03 5.11645049e+03 8.32801783e+00
v 6.22435611e+03 5.11935540e+03 9.42477415e+00
v 6.22406669e+03 5.12012257e+03 9.12757339e+00
v 6.23604469e+03 5.11288493e+03 1.17416174e+01
v 6.22549577e+03 5.11151928e+03 1.18062445e+01
v 6.23065953e+03 5.10856442e+03 1.18845133e+01
v 6.22549396e+03 5.11764408e+03 9.78946312e+00
v 6.22812064e+03 5.11916427e+03 1.17340298e+01
v 6.22464826e+03 5.10319463e+03 1.18183537e+01
v 6.22527900e+03 5.10152720e+03 1.20661831e+01
v 6.23461511e+03 5.10467152e+03 1.15209690e+01
v 6.23115367e+03 5.10416410e+03 1.19173449e+01
v 6.22889816e+03 5.10324030e+03 1.20366871e+01
v 6.22137911e+03 5.11779545e+03 8.84267094e+00
v 6.22311357e+03 5.11892141e+03 9.41355633e+00
v 6.22490914e+03 5.11791438e+03 9.24333043e+00
v 6.22239094e+03 5.11879814e+03 9.53204411e+00
v 6.22610083e+03 5.12105818e+03 1.02813010e+01
v 6.22233853e+03 5.11955779e+03 8.63166503e+00
v 6.22105503e+03 5.11905168e+03 8.21306121e+00
v 6.22302698e+03 5.12034431e+03 7.39339202e+00
v 6.22642123e+03 5.11861020e+03 9.92540287e+00
v 6.22671213e+03 5.12042916e+03 1.01790137e+01
v 6.22805323e+03 5.11964980e+03 1.05784182e+01
v 6.22901877e+03 5.12089364e+03 1.02465410e+01
v 6.22608605e+03 5.11769026e+03 1.19969017e+01
v 6.22356075e+03 5.09640507e+03 1.19838498e+01
v 6.22627241e+03 5.09374134e+03 1.23429147e+01
v 6.22788327e+03 5.10158801e+03 1.27574630e+01
v 6.22573349e+03 5.09890966e+03 1.25897021e+01
v 6.22695511e+03 5.09877301e+03 1.20140772e+01
v 6.22348335e+03 5.09817618e+03 1.22579318e+01
v 6.22482782e+03 5.10492367e+03 1.19531332e+01
v 6.22427576e+03 5.10617468e+03 1.16651647e+01
v 6.22762455e+03 5.10748543e+03 1.19068458e+01
v 6.22241806e+03 5.09600432e+03 1.17588487e+01
v 6.22231927e+03 5.09915238e+03 1.18472487e+01
v 6.22267226e+03 5.10399540e+03 1.19392695e+01
v 6.22251866e+03 5.11559161e+03 1.18001225e+01
v 6.22195765e+03 5.11260526e+03 1.19952595e+01
v 6.22318858e+03 5.11099630e+03 1.20464956e+01
v 6.22114151e+03 5.10802901e+03 1.18726720e+01
v 6.23554175e+03 5.10520570e+03 1.20675625e+01
v 6.23854055e+03 5.10725989e+03 1.17596946e+01
v 6.23607216e+03 5.10487554e+03 1.23197331e+01
v 6.23557709e+03 5.10652670e+03 1.29850496e+01
v 6.23472886e+03 5.10629779e+03 1.27971892e+01
v 6.23025108e+03 5.09604705e+03 1.30411848e+01
v 6.22868214e+03 5.09420997e+03 1.22911076e+01
v 6.22825633e+03 5.09804631e+03 1.22727993e+01
v 6.23325085e+03 5.10291258e+03 1.17487753e+01
v 6.23105620e+03 5.10163430e+03 1.36985074e+01
v 6.22404045e+03 5.10064632e+03 1.17993672e+01
v 6.23626345e+03 5.11137409e+03 1.22827482e+01
v 6.23118309e+03 5.09485480e+03 1.32134827e+01
v 6.23012556e+03 5.09386712e+03 1.31166745e+01
v 6.24052895e+03 5.10814464e+03 1.15750518e+01
v 6.23908906e+03 5.10696406e+03 1.18124217e+01
v 6.23771845e+03 5.10964496e+03 1.17738720e+01
v 6.22872184e+03 5.10087897e+03 1.24839643e+01
v 6.22884147e+03 5.10143249e+03 1.36253597e+01
v 6.22842861e+03 5.10021601e+03 1.20041038e+01
v 6.22319194e+03 5.11561697e+03 1.26171415e+01
v 6.22707988e+03 5.11689846e+03 1.19677792e+01
v 6.22487008e+03 5.10026397e+03 1.27199841e+01
v 6.23906430e+03 5.11629282e+03 1.21083101e+01
v 6.23261500e+03 5.12099813e+03 1.20014644e+01
v 6.23041902e+03 5.11917097e+03 1.19915463e+01
v 6.23120383e+03 5.12063781e+03 1.25521231e+01
v 6.24035578e+03 5.11550971e+03 1.17623742e+01
v 6.24010390e+03 5.10669262e+03 1.41420627e+01
v 6.22624196e+03 5.11741915e+03 1.25426963e+01
v 6.22704808e+03 5.11799206e+03 1.23821272e+01
v 6.22040703e+03 5.11275453e+03 1.22932990e+01
v 6.22526821e+03 5.09879272e+03 1.22462776e+01
v 6.22418090e+03 5.09882854e+03 1.20459439e+01
v 6.22982341e+03 5.10081375e+03 1.36264462e+01
v 6.22848132e+03 5.10235004e+03 1.37772259e+01
v 6.22373278e+03 5.10397064e+03 1.23428099e+01
v 6.23102348e+03 5.10221812e+03 1.25962712e+01
v 6.22955478e+03 5.10296157e+03 1.27929705e+01
v 6.23030436e+03 5.12014650e+03 1.23269442e+01
v 6.22862514e+03 5.11916657e+03 1.24917800e+01
v 6.23989883e+03 5.12004522e+03 1.20219110e+01
v 6.22684360e+03 5.09998055e+03 1.30191655e+01
v 6.22720112e+03 5.10145035e+03 1.30191274e+01
v 6.22211552e+03 5.09733154e+03 1.30683953e+01
v 6.22202574e+03 5.09822525e+03 1.28372657e+01
v 6.23585584e+03 5.12361061e+03 1.31174594e+01
v 6.23682512e+03 5.12413995e+03 1.19944581e+01
v 6.23366464e+03 5.12336416e+03 1.22382262e+01
v 6.23524615e+03 5.12416038e+03 1.21513342e+01
v 6.23620525e+03 5.12421764e+03 1.22278906e+01
v 6.23635598e+03 5.12498200e+03 1.21918676e+01
v 6.23401502e+03 5.12247054e+03 1.29555258e+01
v 6.23752368e+03 5.12477052e+03 1.28591469e+01
v 6.23510709e+03 5.12309194e+03 1.21617190e+01
v 6.23092545e+03 5.12332914e+03 1.13743456e+01
v 6.23373516e+03 5.12439052e+03 1.23181176e+01
v 6.23130936e+03 5.12431193e+03 1.20323853e+01
v 6.23200564e+03 5.12161190e+03 1.23693433e+01
v 6.23194941e+03 5.12213195e+03 1.15728915e+01
v 6.23329447e+03 5.12185662e+03 1.22482913e+01
v 6.22970465e+03 5.12019414e+03 1.18716612e+01
v 6.23831502e+03 5.11824731e+03 1.27708759e+01
v 6.22940612e+03 5.12323051e+03 1.14194444e+01
v 6.23249453e+03 5.12477967e+03 1.09119764e+01
v 6.23271629e+03 5.12168529e+03 1.27090555e+01
v 6.23608949e+03 5.12306157e+03 1.19068395e+01
v 6.23817666e+03 5.12518513e+03 1.19949882e+01
v 6.24196506e+03 5.12291369e+03 1.17528851e+01
v 6.23240088e+03 5.12501162e+03 1.27894448e+01
v 6.22505975e+03 5.12408188e+03 6.03965576e+00
v 6.23112237e+03 5.12431995e+03 1.07218805e+01
v 6.22992239e+03 5.12087787e+03 1.08251764e+01
v 6.22763030e+03 5.12277516e+03 6.15956463e+00
v 6.22745514e+03 5.12240865e+03 6.75854491e+00
v 6.22840497e+03 5.12455122e+03 6.32421697e+00
v 6.22587591e+03 5.12217707e+03 6.16618624e+00
v 6.22229383e+03 5.12393412e+03 6.15310859e+00
v 6.22130598e+03 5.12239778e+03 7.52543523e+00
v 6.22908621e+03 5.09923285e+03 1.27305467e+01
v 6.22528889e+03 5.09996135e+03 1.38959672e+01
v 6.22615928e+03 5.09890617e+03 1.39949476e+01
v 6.22807089e+03 5.09377593e+03 1.62012193e+01
v 6.23339894e+03 5.09633905e+03 2.37730214e+01
v 6.23124749e+03 5.09514292e+03 2.43696466e+01
v 6.23347062e+03 5.09637631e+03 2.62125227e+01
v 6.23358390e+03 5.09669643e+03 2.50163523e+01
v 6.23712237e+03 5.09915393e+03 2.35063584e+01
v 6.23887215e+03 5.10039764e+03 2.16364237e+01
v 6.23025091e+03 5.09455902e+03 2.08723191e+01
v 6.23260500e+03 5.09620707e+03 2.13697799e+01
v 6.23455759e+03 5.09744158e+03 2.32366930e+01
v 6.23500617e+03 5.09765606e+03 2.05688235e+01
v 6.23594965e+03 5.09793872e+03 2.39540743e+01
v 6.23020129e+03 5.09417460e+03 2.36646414e+01
v 6.23545423e+03 5.09801273e+03 2.55853510e+01
v 6.23932254e+03 5.10034970e+03 2.65621879e+01
v 6.23704052e+03 5.09903144e+03 2.02566469e+01
v 6.23524990e+03 5.09807821e+03 1.95909062e+01
v 6.23125525e+03 5.09492402e+03 1.83280823e+01
v 6.23094107e+03 5.09582126e+03 1.62605428e+01
v 6.23475450e+03 5.09751150e+03 1.86205816e+01
v 6.23273097e+03 5.09620726e+03 1.81386207e+01
v 6.23221679e+03 5.09630295e+03 1.76689049e+01
v 6.23132445e+03 5.09800480e+03 1.76755037e+01
v 6.23289905e+03 5.09933732e+03 1.80266339e+01
v 6.23272707e+03 5.09847580e+03 1.82013028e+01
v 6.23454491e+03 5.09952023e+03 1.79236220e+01
v 6.23329453e+03 5.09917591e+03 1.88430553e+01
v 6.23602743e+03 5.09829607e+03 1.84517654e+01
v 6.23712888e+03 5.09946637e+03 1.95221503e+01
v 6.23780291e+03 5.09975018e+03 1.84721040e+01
v 6.23408198e+03 5.10018485e+03 1.71105814e+01
v 6.23774391e+03 5.09999640e+03 1.77789475e+01
v 6.23084602e+03 5.09621172e+03 1.45982190e+01
v 6.23077959e+03 5.09797749e+03 1.52544919e+01
v 6.23047911e+03 5.09527905e+03 1.56650504e+01
v 6.24035518e+03 5.10600168e+03 1.56556716e+01
v 6.23913059e+03 5.10633097e+03 1.59538244e+01
v 6.23966073e+03 5.10452711e+03 1.60850277e+01
v 6.24042396e+03 5.10450158e+03 1.69953494e+01
v 6.23824172e+03 5.10616336e+03 1.36423634e+01
v 6.23784420e+03 5.10617231e+03 1.57043110e+01
v 6.23896692e+03 5.10364897e+03 1.60485408e+01
v 6.23779099e+03 5.10515806e+03 1.60896224e+01
v 6.23389126e+03 5.10343805e+03 1.58106218e+01
v 6.23590089e+03 5.10425956e+03 1.67376940e+01
v 6.23244121e+03 5.09932254e+03 1.62093943e+01
v 6.22952825e+03 5.10011066e+03 1.37543946e+01
v 6.23684386e+03 5.10353266e+03 1.63706487e+01
v 6.23102942e+03 5.10152062e+03 1.57538170e+01
v 6.23056527e+03 5.10053101e+03 1.58923075e+01
v 6.23125523e+03 5.09878206e+03 1.59225444e+01
v 6.23420915e+03 5.09762342e+03 1.77077466e+01
v 6.23533675e+03 5.09815208e+03 1.75935804e+01
v 6.23598312e+03 5.10164500e+03 1.63533408e+01
v 6.23567293e+03 5.10247328e+03 1.60183831e+01
v 6.23768585e+03 5.10279180e+03 1.68294501e+01
v 6.23705573e+03 5.10198598e+03 1.84618796e+01
v 6.23635108e+03 5.10141890e+03 1.76611378e+01
v 6.23538248e+03 5.10101073e+03 1.76175560e+01
v 6.23484800e+03 5.10355777e+03 1.67241296e+01
v 6.23902895e+03 5.10047767e+03 1.79437849e+01
v 6.23750399e+03 5.10121194e+03 1.83766520e+01
v 6.23369503e+03 5.10276120e+03 1.68271888e+01
v 6.23937428e+03 5.10095579e+03 1.95624380e+01
v 6.23734381e+03 5.10209844e+03 1.93158989e+01
v 6.23843981e+03 5.10267351e+03 1.90967515e+01
v 6.23879864e+03 5.10229990e+03 1.94449465e+01
v 6.23999795e+03 5.10313635e+03 1.88818417e+01
v 6.23354845e+03 5.10099580e+03 1.63549940e+01
v 6.23961733e+03 5.10369951e+03 1.88317847e+01
v 6.23917194e+03 5.10350990e+03 1.97437779e+01
v 6.24074740e+03 5.10164629e+03 1.83790485e+01
v 6.22792162e+03 5.11858348e+03 1.23962956e+01
v 6.22794601e+03 5.11855416e+03 1.23624040e+01
v 6.22818769e+03 5.11871882e+03 1.24052009e+01
v 6.24046220e+03 5.11799120e+03 1.39543783e+01
v 6.24038725e+03 5.12008629e+03 1.30792206e+01
v 6.23884900e+03 5.11887272e+03 1.32884665e+01
v 6.23855781e+03 5.11785690e+03 1.40489893e+01
v 6.23915239e+03 5.11699353e+03 1.38226400e+01
v 6.24080493e+03 5.10985288e+03 1.19889068e+01
v 6.24164357e+03 5.10220419e+03 2.03578189e+01
v 6.23750606e+03 5.09949928e+03 2.68482129e+01
v 6.23949695e+03 5.12071699e+03 1.79453384e+01
v 6.23985699e+03 5.12018050e+03 1.79579035e+01
v 6.23971141e+03 5.12039724e+03 1.79498628e+01
v 6.22130643e+03 5.11583225e+03 8.66760920e+00
v 6.23813105e+03 5.09697846e+03 3.97965548e+01
v 6.23430938e+03 5.09437464e+03 3.98660817e+01
v 6.21975209e+03 5.09620475e+03 1.20826353e+01
v 6.22084856e+03 5.09789624e+03 1.19492878e+01
v 6.21943549e+03 5.12216122e+03 6.19582436e+00
v 6.21931075e+03 5.11663766e+03 8.04480815e+00
v 6.21923739e+03 5.09567035e+03 1.20361754e+01
v 6.21863856e+03 5.11820544e+03 7.16306159e+00
v 6.21946945e+03 5.12053990e+03 8.55590091e+00
v 6.21924501e+03 5.11843673e+03 8.12610517e+00
v 6.22097036e+03 5.11845755e+03 8.18093653e+00
v 6.22143629e+03 5.11867579e+03 9.11816715e+00
v 6.22027861e+03 5.11746647e+03 8.85790062e+00
v 6.21991404e+03 5.11702636e+03 9.22673614e+00
v 6.21978486e+03 5.11797637e+03 8.17365713e+00
v 6.21934929e+03 5.09374690e+03 1.20054097e+01
v 6.22134691e+03 5.09739368e+03 1.19081297e+01
v 6.21906783e+03 5.09626019e+03 1.21149065e+01
v 6.21949159e+03 5.09791353e+03 1.29525919e+01
v 6.21999987e+03 5.09929094e+03 1.18544594e+01
v 6.21861108e+03 5.11336291e+03 8.18671701e+00
v 6.22055833e+03 5.11522744e+03 8.54520626e+00
v 6.21910652e+03 5.09706007e+03 1.26139188e+01
v 6.22058695e+03 5.10379163e+03 1.18809769e+01
v 6.21866598e+03 5.10755506e+03 1.21176838e+01
v 6.21954932e+03 5.11329156e+03 1.27785811e+01
v 6.21868345e+03 5.09649344e+03 1.20803447e+01
v 6.21871333e+03 5.09767259e+03 1.20889851e+01
v 6.24090916e+03 5.11444120e+03 1.24575244e+01
v 6.24335635e+03 5.11573294e+03 1.20879645e+01
v 6.24559069e+03 5.11041994e+03 1.18850666e+01
v 6.24362917e+03 5.10986559e+03 1.15566086e+01
v 6.25000000e+03 5.11219543e+03 1.17984149e+01
v 6.25000000e+03 5.11126504e+03 1.23076134e+01
v 6.24909696e+03 5.11134753e+03 1.22596379e+01
v 6.24842220e+03 5.11306423e+03 1.16875474e+01
v 6.24592086e+03 5.11186251e+03 1.15887068e+01
v 6.24488003e+03 5.10822458e+03 1.28276468e+01
v 6.24430831e+03 5.10862031e+03 1.19089178e+01
v 6.24219733e+03 5.10794883e+03 1.23966920e+01
v 6.24129783e+03 5.11709479e+03 1.20384078e+01
v 6.24484214e+03 5.11866532e+03 1.17258471e+01
v 6.25000000e+03 5.11867192e+03 1.16472230e+01
v 6.24262776e+03 5.12146684e+03 1.25977928e+01
v 6.24324334e+03 5.11980248e+03 1.33595704e+01
v 6.24386386e+03 5.11889664e+03 1.20819266e+01
v 6.24464374e+03 5.12006517e+03 1.20711982e+01
v 6.24628370e+03 5.11516684e+03 1.19030190e+01
v 6.24587646e+03 5.11383228e+03 1.23546300e+01
v 6.24614551e+03 5.11283415e+03 1.21916275e+01
v 6.24268114e+03 5.11954389e+03 1.34347041e+01
v 6.24498005e+03 5.11408220e+03 1.18614960e+01
v 6.24468980e+03 5.11585950e+03 1.24064756e+01
v 6.24453545e+03 5.11205932e+03 1.17762424e+01
v 6.24838184e+03 5.11558819e+03 1.17035557e+01
v 6.24731881e+03 5.11437832e+03 1.23713169e+01
v 6.24780793e+03 5.11175301e+03 1.16294989e+01
v 6.24223252e+03 5.11150809e+03 1.23809130e+01
v 6.24851842e+03 5.11049294e+03 1.32275613e+01
v 6.25000000e+03 5.11530518e+03 1.14730572e+01
v 6.25000000e+03 5.11288102e+03 1.16101827e+01
v 6.24385746e+03 5.12042673e+03 1.29103214e+01
v 6.24622634e+03 5.11739252e+03 1.21361510e+01
v 6.24161121e+03 5.12118842e+03 1.21739332e+01
v 6.24229336e+03 5.12118096e+03 1.31508880e+01
v 6.24647466e+03 5.12284977e+03 1.21485232e+01
v 6.24539513e+03 5.12113377e+03 1.16726905e+01
v 6.24586259e+03 5.12404623e+03 1.16912615e+01
v 6.24328990e+03 5.12138496e+03 1.18174980e+01
v 6.25000000e+03 5.12443108e+03 1.18503026e+01
v 6.24845253e+03 5.12466845e+03 1.30152763e+01
v 6.24772190e+03 5.12295541e+03 1.23824541e+01
v 6.24213469e+03 5.11534985e+03 1.24518113e+01
v 6.24196575e+03 5.11909471e+03 1.39593551e+01
v 6.24618525e+03 5.12389319e+03 1.29446440e+01
v 6.25000000e+03 5.12238689e+03 1.16865526e+01
v 6.24694023e+03 5.12342380e+03 1.31062001e+01
v 6.24783714e+03 5.12175804e+03 1.17299742e+01
v 6.24380082e+03 5.10381893e+03 2.25023930e+01
v 6.24623313e+03 5.10540888e+03 2.04274544e+01
v 6.25000000e+03 5.10805834e+03 2.15997100e+01
v 6.24754283e+03 5.10603324e+03 2.37438676e+01
v 6.24882802e+03 5.10715870e+03 2.57939769e+01
v 6.24152690e+03 5.10195282e+03 2.68087848e+01
v 6.24349250e+03 5.10353690e+03 2.68997448e+01
v 6.24424099e+03 5.10398845e+03 2.44035067e+01
v 6.24534310e+03 5.10437375e+03 2.37755228e+01
v 6.24165292e+03 5.10223196e+03 2.53531641e+01
v 6.24099685e+03 5.10186702e+03 2.27267166e+01
v 6.24036141e+03 5.10139663e+03 2.79944636e+01
v 6.24182518e+03 5.10200859e+03 2.36443220e+01
v 6.24104049e+03 5.10368901e+03 1.92921245e+01
v 6.24254912e+03 5.10357814e+03 1.78751176e+01
v 6.24212385e+03 5.10505382e+03 1.91185287e+01
v 6.24652328e+03 5.10567411e+03 2.85158929e+01
v 6.25000000e+03 5.10804133e+03 2.82323415e+01
v 6.24298040e+03 5.10577768e+03 1.91236501e+01
v 6.24303645e+03 5.10645235e+03 1.87066885e+01
v 6.24440067e+03 5.10714294e+03 1.78942151e+01
v 6.24459511e+03 5.10641941e+03 1.84088165e+01
v 6.24353222e+03 5.10618909e+03 1.85153937e+01
v 6.24583520e+03 5.10569215e+03 1.77434625e+01
v 6.24375617e+03 5.10555260e+03 1.78949633e+01
v 6.24263414e+03 5.10636050e+03 1.59244130e+01
v 6.24229659e+03 5.10565438e+03 1.81661365e+01
v 6.24196083e+03 5.10566258e+03 1.60693141e+01
v 6.24325038e+03 5.10361508e+03 1.76180961e+01
v 6.24396259e+03 5.10370154e+03 1.82870245e+01
v 6.24320772e+03 5.10361264e+03 1.94570998e+01
v 6.24604457e+03 5.10550753e+03 1.95078440e+01
v 6.24283840e+03 5.10321873e+03 1.81799828e+01
v 6.24307743e+03 5.10745200e+03 1.35594152e+01
v 6.24691405e+03 5.10936485e+03 1.43397237e+01
v 6.24603796e+03 5.10959057e+03 1.26910468e+01
v 6.24090036e+03 5.10441148e+03 1.92377204e+01
v 6.24161325e+03 5.10253893e+03 1.76417315e+01
v 6.24085858e+03 5.10208629e+03 1.75347962e+01
v 6.24652283e+03 5.10858950e+03 1.72982685e+01
v 6.24805856e+03 5.10963902e+03 1.78125724e+01
v 6.25000000e+03 5.11070087e+03 1.46412682e+01
v 6.24668825e+03 5.12482992e+03 1.31989003e+01
v 6.24508580e+03 5.10465747e+03 1.78546560e+01
v 6.24572055e+03 5.10492634e+03 1.83093599e+01
v 6.24718258e+03 5.10634526e+03 1.73389041e+01
v 6.24844522e+03 5.10678300e+03 1.81393555e+01
v 6.24558719e+03 5.10717611e+03 1.82027286e+01
v 6.24848840e+03 5.10721421e+03 1.74575508e+01
v 6.24693879e+03 5.10767785e+03 1.75823947e+01
v 6.24633853e+03 5.10552898e+03 2.56052654e+01
v 6.24636282e+03 5.10549465e+03 2.31755068e+01
v 6.25000000e+03 5.11105644e+03 1.70720484e+01
v 6.25000000e+03 5.10782055e+03 1.85830064e+01
v 6.25000000e+03 5.10811524e+03 1.93620650e+01
v 6.24892073e+03 5.10746483e+03 1.94506393e+01
v 6.25000000e+03 5.10793626e+03 2.02108731e+01
v 6.25000000e+03 5.10794657e+03 1.78325419e+01
v 6.25000000e+03 5.10855108e+03 1.73586441e+01
v 6.24028203e+03 5.11953614e+03 1.79946877e+01
v 6.24443948e+03 5.10735070e+03 1.58744663e+01
v 6.24536885e+03 5.10433290e+03 2.66978188e+01
v 6.24140712e+03 5.12039525e+03 1.36322582e+01
v 6.25000000e+03 5.10783376e+03 2.37367210e+01
v 6.25000000e+03 5.11093161e+03 1.77856337e+01
v 6.24172938e+03 5.10196796e+03 3.51138546e+01
v 6.24046078e+03 5.10141492e+03 3.49242163e+01
v 6.24341283e+03 5.09915007e+03 4.01031041e+01
v 6.24290958e+03 5.09763884e+03 4.13700767e+01
v 6.24401439e+03 5.09602566e+03 4.13343575e+01
v 6.24800717e+03 5.09761786e+03 4.14082796e+01
v 6.23880044e+03 5.10023402e+03 3.71563803e+01
v 6.23851583e+03 5.09946705e+03 3.80297486e+01
v 6.23610654e+03 5.09580300e+03 3.81259263e+01
v 6.23800530e+03 5.09678114e+03 3.73888466e+01
v 6.23155431e+03 5.09537708e+03 2.93466000e+01
v 6.22990881e+03 5.09421834e+03 3.18327469e+01
v 6.23957780e+03 5.10055754e+03 2.94339416e+01
v 6.23616378e+03 5.09839249e+03 2.92058955e+01
v 6.23762483e+03 5.09947049e+03 3.01142386e+01
v 6.23884965e+03 5.09770521e+03 3.77384353e+01
v 6.24025439e+03 5.09950975e+03 3.81770642e+01
v 6.24050276e+03 5.09910808e+03 3.88240226e+01
v 6.23616961e+03 5.09820745e+03 3.51832251e+01
v 6.23335665e+03 5.09621332e+03 3.49437646e+01
v 6.23441237e+03 5.09735167e+03 3.61905300e+01
v 6.23578676e+03 5.09808383e+03 3.25240586e+01
v 6.23978421e+03 5.10103066e+03 3.07419600e+01
v 6.23739224e+03 5.09912276e+03 3.80426318e+01
v 6.23731813e+03 5.09939835e+03 3.64017071e+01
v 6.23515324e+03 5.09773304e+03 3.69239760e+01
v 6.24126704e+03 5.10202528e+03 3.34450032e+01
v 6.23940982e+03 5.10037686e+03 3.49844185e+01
v 6.22913092e+03 5.09375160e+03 3.34628014e+01
v 6.23063651e+03 5.09455127e+03 3.81020745e+01
v 6.23005215e+03 5.09391237e+03 2.96304295e+01
v 6.23878492e+03 5.09809374e+03 3.75416621e+01
v 6.23910592e+03 5.10044539e+03 3.86969956e+01
v 6.23955209e+03 5.10009157e+03 3.81446655e+01
v 6.23761083e+03 5.09841402e+03 3.79010353e+01
v 6.23466608e+03 5.09539829e+03 3.74026287e+01
v 6.23679393e+03 5.09647650e+03 3.74677340e+01
v 6.23354007e+03 5.09414236e+03 3.82126898e+01
v 6.23593996e+03 5.09654948e+03 3.77320981e+01
v 6.23741792e+03 5.09745158e+03 3.71873933e+01
v 6.23118830e+03 5.09407408e+03 3.78860661e+01
v 6.23201278e+03 5.09552050e+03 3.79098333e+01
v 6.23138445e+03 5.09492256e+03 3.76140527e+01
v 6.22939089e+03 5.09377611e+03 3.85195571e+01
v 6.23599026e+03 5.09825677e+03 3.81803891e+01
v 6.23159290e+03 5.09514441e+03 3.85486636e+01
v 6.24220343e+03 5.09452487e+03 3.98448599e+01
v 6.24068337e+03 5.09878145e+03 3.98536955e+01
v 6.25000000e+03 5.10785366e+03 2.98076965e+01
v 6.25000000e+03 5.10803618e+03 3.04776515e+01
v 6.24820722e+03 5.10679620e+03 3.07194115e+01
v 6.25000000e+03 5.11077483e+03 1.30729510e+01
v 6.25000000e+03 5.11058901e+03 1.41989440e+01
v 6.25000000e+03 5.09431855e+03 4.18543061e+01
v 6.25000000e+03 5.10102637e+03 4.14145099e+01
v 6.25000000e+03 5.10031230e+03 4.13109751e+01
v 6.25000000e+03 5.10326385e+03 3.97269096e+01
v 6.25000000e+03 5.10131371e+03 4.00087613e+01
v 6.25000000e+03 5.09670887e+03 4.13755082e+01
v 6.25000000e+03 5.10796893e+03 2.68260129e+01
v 6.25000000e+03 5.10798406e+03 3.15672339e+01
v 6.25000000e+03 5.10785554e+03 3.21676330e+01
v 6.25000000e+03 5.10797894e+03 3.33683518e+01
v 6.25000000e+03 5.10784635e+03 3.50907557e+01
v 6.25000000e+03 5.11279462e+03 1.16310973e+01
v 6.25000000e+03 5.11101504e+03 1.65021423e+01
v 6.24448193e+03 5.10426991e+03 3.36042334e+01
v 6.24527834e+03 5.10442662e+03 3.51015775e+01
v 6.24340236e+03 5.10344155e+03 3.64450831e+01
v 6.24060491e+03 5.10163355e+03 3.66499496e+01
v 6.24373478e+03 5.10372761e+03 3.18444290e+01
v 6.24517182e+03 5.10439481e+03 3.24544127e+01
v 6.24214461e+03 5.10221465e+03 3.23448972e+01
v 6.25000000e+03 5.09463455e+03 4.18868004e+01
v 6.24944807e+03 5.09371837e+03 4.17000082e+01
v 6.24631701e+03 5.10549632e+03 3.58044995e+01
v 6.24733707e+03 5.10621217e+03 3.37874207e+01
v 6.24678909e+03 5.10569947e+03 3.72497541e+01
v 6.24919587e+03 5.10754465e+03 3.63915340e+01
v 6.25000000e+03 5.10793595e+03 3.71929874e+01
v 6.25000000e+03 5.10777237e+03 3.85916672e+01
v 6.25000000e+03 5.10754495e+03 3.81390484e+01
v 6.24761734e+03 5.10603955e+03 3.49899311e+01
v 6.24658381e+03 5.10566765e+03 3.11792787e+01
v 6.24142833e+03 5.10212562e+03 3.10260559e+01
v 6.24548125e+03 5.10451182e+03 2.92622071e+01
v 6.24317442e+03 5.10327235e+03 2.97096035e+01
v 6.24115644e+03 5.10179756e+03 2.91356225e+01
v 6.24487546e+03 5.10444649e+03 2.81947300e+01
v 6.24762570e+03 5.10596633e+03 2.67825993e+01
v 6.24775131e+03 5.10606686e+03 3.22728458e+01
v 6.24765952e+03 5.10603022e+03 2.94984160e+01
v 6.25000000e+03 5.10557202e+03 3.77247047e+01
v 6.24914527e+03 5.10709429e+03 3.86475145e+01
v 6.24658758e+03 5.10560485e+03 3.86608607e+01
v 6.24809805e+03 5.10662331e+03 3.86542693e+01
v 6.24550365e+03 5.10460382e+03 3.83291814e+01
v 6.24475501e+03 5.10385229e+03 3.74505454e+01
v 6.24689213e+03 5.10517457e+03 3.80634815e+01
v 6.24733086e+03 5.10407575e+03 3.78828572e+01
v 6.24679441e+03 5.10244647e+03 3.84869554e+01
v 6.24541955e+03 5.10139115e+03 3.84516197e+01
v 6.24437237e+03 5.10235739e+03 3.79988894e+01
v 6.24392710e+03 5.10116876e+03 3.88367370e+01
v 6.24310748e+03 5.10177751e+03 3.79869169e+01
v 6.24200363e+03 5.10214440e+03 3.78127353e+01
v 6.24190385e+03 5.10235770e+03 3.86598331e+01
v 6.24058428e+03 5.10135879e+03 3.86974546e+01
v 6.24924977e+03 5.10533339e+03 3.80054742e+01
v 6.24803565e+03 5.10628115e+03 3.77950013e+01
v 6.24432670e+03 5.10404340e+03 3.92109707e+01
v 6.24725808e+03 5.10577566e+03 3.85796921e+01
v 6.24570299e+03 5.10292756e+03 3.70253445e+01
v 6.24814590e+03 5.10405902e+03 3.86020201e+01
v 6.24142557e+03 5.10012455e+03 3.80518142e+01
v 6.24071992e+03 5.10094529e+03 3.82325056e+01
v 6.24322257e+03 5.10320046e+03 3.83498430e+01
v 6.25000000e+03 5.10511438e+03 3.98533078e+01
v 6.24684642e+03 5.10306441e+03 3.97402550e+01
v 6.24375505e+03 5.09657051e+03 3.98527487e+01
v 6.24275797e+03 5.09801408e+03 3.98525095e+01
v 6.25000000e+03 5.10518203e+03 3.89397030e+01
v 6.24492542e+03 5.10158871e+03 3.97625792e+01
v 6.24879613e+03 5.10251554e+03 4.00156710e+01
v 6.24754082e+03 5.10231028e+03 4.00101803e+01
v 6.24551338e+03 5.09983308e+03 4.13448532e+01
v 6.24575940e+03 5.09356158e+03 3.98163511e+01
v 6.24794443e+03 5.09509121e+03 4.14696097e+01
v 6.24862256e+03 5.09417073e+03 4.13904357e+01
v 6.25000000e+03 5.09554706e+03 4.19662835e+01
v 6.24929724e+03 5.09547502e+03 4.19690523e+01
v 6.24916416e+03 5.10203457e+03 4.13794803e+01
v 6.21850000e+03 5.12046804e+03 8.14247079e+00
v 6.21850000e+03 5.12032121e+03 8.29714471e+00
v 6.21850000e+03 5.11518501e+03 7.70897574e+00
v 6.21850000e+03 5.11601776e+03 7.71271792e+00
v 6.21850000e+03 5.11732494e+03 7.03134498e+00
v 6.21850000e+03 5.11943259e+03 8.47099606e+00
v 6.21850000e+03 5.11888864e+03 7.82167033e+00
v 6.21850000e+03 5.09658323e+03 1.20578928e+01
v 6.21850000e+03 5.09655228e+03 1.20493303e+01
v 6.21850000e+03 5.09623706e+03 1.19876732e+01
v 6.21850000e+03 5.09845400e+03 1.18533156e+01
v 6.21850000e+03 5.09828451e+03 1.20235431e+01
v 6.21850000e+03 5.10774388e+03 1.21221369e+01
v 6.21850000e+03 5.11134656e+03 1.22336906e+01
v 6.21850000e+03 5.12499254e+03 6.20154959e+00
v 6.21850000e+03 5.12255278e+03 6.19614115e+00
v 6.21850000e+03 5.11975709e+03 8.54306242e+00
v 6.21850000e+03 5.12113164e+03 6.19505069e+00
v 6.21850000e+03 5.12110845e+03 6.18804948e+00
v 6.21850000e+03 5.11273281e+03 1.28628379e+01
v 6.21850000e+03 5.11257358e+03 1.26566016e+01
v 6.21850000e+03 5.11300424e+03 1.23230264e+01
v 6.21850000e+03 5.11213492e+03 1.24282785e+01
v 6.21850000e+03 5.10761754e+03 1.21284453e+01
v 6.21850000e+03 5.10749013e+03 1.21192929e+01
v 6.21850000e+03 5.11325892e+03 1.19346447e+01
v 6.21850000e+03 5.09385697e+03 1.20590021e+01
v 6.21850000e+03 5.09524072e+03 1.19690487e+01
v 6.21850000e+03 5.09718544e+03 1.20458117e+01
v 6.21850000e+03 5.09638121e+03 1.20439350e+01
v 6.21850000e+03 5.09592243e+03 1.19830872e+01
v 6.21850000e+03 5.09760181e+03 1.20621444e+01
v 6.21850000e+03 5.09878846e+03 1.18554049e+01
v 6.21850000e+03 5.11329377e+03 8.63209567e+00
v 6.21850000e+03 5.11850742e+03 7.22144711e+00
v 6.21850000e+03 5.11853214e+03 7.00825813e+00
v 6.21850000e+03 5.09803966e+03 1.19616841e+01
v 6.21850000e+03 5.10316356e+03 1.19914594e+01
v 6.21850000e+03 5.11328462e+03 8.13859422e+00
v 6.21850000e+03 5.11352531e+03 8.10253814e+00
v 6.21850000e+03 5.11824617e+03 6.94194663e+00
v 6.21850000e+03 5.11808734e+03 6.99965378e+00
v 6.21850000e+03 5.12073421e+03 7.70108971e+00
v 6.21922378e+03 5.09350000e+03 1.20230503e+01
v 6.21947512e+03 5.09350000e+03 1.20120844e+01
v 6.22039531e+03 5.09350000e+03 1.21203357e+01
v 6.22101367e+03 5.09350000e+03 1.21597015e+01
v 6.22879097e+03 5.09350000e+03 1.32363737e+01
v 6.22790350e+03 5.09350000e+03 1.26476419e+01
v 6.22913050e+03 5.09350000e+03 1.33264711e+01
v 6.22881769e+03 5.09350000e+03 2.32405140e+01
v 6.22898529e+03 5.09350000e+03 2.39287988e+01
v 6.22869836e+03 5.09350000e+03 2.10459189e+01
v 6.22894192e+03 5.09350000e+03 2.01407951e+01
v 6.22940720e+03 5.09350000e+03 1.34308491e+01
v 6.22788477e+03 5.09350000e+03 1.58704024e+01
v 6.22908693e+03 5.09350000e+03 1.94077722e+01
v 6.22884809e+03 5.09350000e+03 1.80519747e+01
v 6.22855405e+03 5.09350000e+03 1.76017426e+01
v 6.22878309e+03 5.09350000e+03 1.79723989e+01
v 6.22780461e+03 5.09350000e+03 1.64123682e+01
v 6.22885588e+03 5.09350000e+03 2.41294561e+01
v 6.22773004e+03 5.09350000e+03 1.61272421e+01
v 6.22260551e+03 5.09350000e+03 1.20025245e+01
v 6.22263859e+03 5.09350000e+03 1.20099718e+01
v 6.22355974e+03 5.09350000e+03 1.20967499e+01
v 6.23181372e+03 5.09350000e+03 3.74099965e+01
v 6.23164916e+03 5.09350000e+03 3.75532732e+01
v 6.23104062e+03 5.09350000e+03 3.77688117e+01
v 6.23121310e+03 5.09350000e+03 3.77384997e+01
v 6.23307364e+03 5.09350000e+03 3.97922421e+01
v 6.23305613e+03 5.09350000e+03 3.98277186e+01
v 6.24101419e+03 5.09350000e+03 3.98289370e+01
v 6.23649754e+03 5.09350000e+03 3.98152544e+01
v 6.23280977e+03 5.09350000e+03 3.89002654e+01
v 6.24165466e+03 5.09350000e+03 3.98304355e+01
v 6.24246394e+03 5.09350000e+03 3.98416597e+01
v 6.22955830e+03 5.09350000e+03 3.83376254e+01
v 6.22916609e+03 5.09350000e+03 3.83575010e+01
v 6.22898957e+03 5.09350000e+03 3.85677794e+01
v 6.23004229e+03 5.09350000e+03 3.81977522e+01
v 6.23246334e+03 5.09350000e+03 3.76503834e+01
v 6.23219965e+03 5.09350000e+03 3.74705040e+01
v 6.22904456e+03 5.09350000e+03 3.82286701e+01
v 6.22915979e+03 5.09350000e+03 3.77082308e+01
v 6.22889058e+03 5.09350000e+03 2.63526900e+01
v 6.22883069e+03 5.09350000e+03 2.65073302e+01
v 6.22875423e+03 5.09350000e+03 2.86095402e+01
v 6.22884338e+03 5.09350000e+03 2.63325845e+01
v 6.22869614e+03 5.09350000e+03 3.06510838e+01
v 6.22877644e+03 5.09350000e+03 3.08335921e+01
v 6.22883912e+03 5.09350000e+03 3.32437442e+01
v 6.22877290e+03 5.09350000e+03 3.34968327e+01
v 6.22884347e+03 5.09350000e+03 2.62854284e+01
v 6.22870790e+03 5.09350000e+03 3.10282452e+01
v 6.22870828e+03 5.09350000e+03 3.13744201e+01
v 6.22886010e+03 5.09350000e+03 3.39036046e+01
v 6.22923473e+03 5.09350000e+03 3.52615662e+01
v 6.22874264e+03 5.09350000e+03 3.63809026e+01
v 6.22866231e+03 5.09350000e+03 3.65405777e+01
v 6.22867496e+03 5.09350000e+03 3.66111512e+01
v 6.22629572e+03 5.09350000e+03 1.24919891e+01
v 6.22607379e+03 5.09350000e+03 1.23674776e+01
v 6.24572132e+03 5.09350000e+03 4.13270147e+01
v 6.24652951e+03 5.09350000e+03 4.13380629e+01
v 6.24680738e+03 5.09350000e+03 4.13724419e+01
v 6.24874917e+03 5.09350000e+03 4.16180189e+01
v 6.24752611e+03 5.09350000e+03 4.13600869e+01
v 6.24939333e+03 5.09350000e+03 4.16642519e+01
v 6.24970261e+03 5.09350000e+03 4.15506320e+01
v 6.24579519e+03 5.09350000e+03 3.99265804e+01
v 6.24580351e+03 5.09350000e+03 3.98175865e+01
v 6.24574034e+03 5.09350000e+03 3.98200320e+01
v 6.24336194e+03 5.09350000e+03 3.98731589e+01
v 6.25000000e+03 5.09350000e+03 4.14897399e+01
v 6.21850000e+03 5.09350000e+03 1.20721871e+01
v 6.22089899e+03 5.12525000e+03 6.20353391e+00
v 6.22177924e+03 5.12525000e+03 6.18297427e+00
v 6.22900990e+03 5.12525000e+03 6.25835645e+00
v 6.22701777e+03 5.12525000e+03 6.03548203e+00
v 6.23451265e+03 5.12525000e+03 1.21836225e+01
v 6.23536006e+03 5.12525000e+03 1.21918711e+01
v 6.23378131e+03 5.12525000e+03 1.24712613e+01
v 6.23418079e+03 5.12525000e+03 1.22227688e+01
v 6.23797960e+03 5.12525000e+03 1.26608169e+01
v 6.23822742e+03 5.12525000e+03 1.19973748e+01
v 6.23761920e+03 5.12525000e+03 1.25422711e+01
v 6.22309399e+03 5.12525000e+03 6.12858766e+00
v 6.22937139e+03 5.12525000e+03 6.37826827e+00
v 6.22562754e+03 5.12525000e+03 6.06490442e+00
v 6.23238100e+03 5.12525000e+03 1.00690040e+01
v 6.23279676e+03 5.12525000e+03 1.03532744e+01
v 6.23131810e+03 5.12525000e+03 7.36945205e+00
v 6.23114454e+03 5.12525000e+03 7.14582399e+00
v 6.23128634e+03 5.12525000e+03 7.23268830e+00
v 6.23269129e+03 5.12525000e+03 1.27587097e+01
v 6.23294170e+03 5.12525000e+03 1.14892503e+01
v 6.23257189e+03 5.12525000e+03 1.23355493e+01
v 6.23290331e+03 5.12525000e+03 1.09226216e+01
v 6.23424019e+03 5.12525000e+03 1.21978387e+01
v 6.23682153e+03 5.12525000e+03 1.21702692e+01
v 6.23691019e+03 5.12525000e+03 1.22331195e+01
v 6.23588217e+03 5.12525000e+03 1.22845483e+01
v 6.23618106e+03 5.12525000e+03 1.22054756e+01
v 6.23126521e+03 5.12525000e+03 7.19366382e+00
v 6.24836937e+03 5.12525000e+03 1.29234554e+01
v 6.24711316e+03 5.12525000e+03 1.30743282e+01
v 6.24581138e+03 5.12525000e+03 1.16949078e+01
v 6.24677638e+03 5.12525000e+03 1.20494098e+01
v 6.24066491e+03 5.12525000e+03 1.18458691e+01
v 6.24138022e+03 5.12525000e+03 1.18263729e+01
v 6.24054308e+03 5.12525000e+03 1.18548720e+01
v 6.23858718e+03 5.12525000e+03 1.19689765e+01
v 6.24051774e+03 5.12525000e+03 1.18464334e+01
v 6.25000000e+03 5.12525000e+03 1.20845519e+01
v 6.24936923e+03 5.12525000e+03 1.25317335e+01
v 6.24899614e+03 5.12525000e+03 1.28062926e+01
v 6.24690854e+03 5.12525000e+03 1.27793596e+01
v 6.21908169e+03 5.12525000e+03 6.20246307e+00
v 6.21850000e+03 5.12525000e+03 6.19888100e+00
vt 0.012916565 0.5430603
vt 0.0069122314 0.54670715
vt 0.0040466236 0.5481112
vt 0.0040465705 0.54762769
vt 0.013519222 0.55555284
vt 0.0073850374 0.56513119
vt 0.015563965 0.53384399
vt 0.02360834 0.54219097
vt 0.0040517263 0.56402659
vt 0.0040457239 0.54270309
vt 0.019536134 0.56888258
vt 0.0040551615 0.57086909
vt 0.0040441877 0.53778708
vt 0.017303094 0.50378978
vt 0.040750917 0.56861639
vt 0.0040556495 0.57469422
vt 0.04853566 0.56076175
vt 0.027498281 0.59041393
vt 0.06526725 0.53904915
vt 0.063738525 0.5882374
vt 0.0040585743 0.57734442
vt 0.033644538 0.49992537
vt 0.069277331 0.66390699
vt 0.036693987 0.66073424
vt 0.04330593 0.4999218
vt 0.019267902 0.49993122
vt 0.090640105 0.61157203
vt 0.0040602414 0.58257031
vt 0.068180501 0.49991548
vt 0.015340508 0.49993235
vt 0.092822485 0.58316571
vt 0.10014994 0.6513862
vt 0.11343462 0.78145534
vt 0.0066948482 0.71954536
vt 0.083121151 0.54530269
vt 0.081917375 0.57297373
vt 0.10359007 0.60558367
vt 0.085842997 0.66351044
vt 0.10999383 0.62532663
vt 0.045380492 0.72694093
vt 0.094346508 0.69795322
vt 0.0040807286 0.65093005
vt 0.068697311 0.49991518
vt 0.060530763 0.55977452
vt 0.10980913 0.58259833
vt 0.059135344 0.57374167
vt 0.10296257 0.67840022
vt 0.16655241 0.65207589
vt 0.077378973 0.77329284
vt 0.14667529 0.71841425
vt 0.0041010706 0.71853167
vt 0.058154386 0.79843962
vt 0.12547313 0.50366402
vt 0.14001517 0.62410593
vt 0.13821167 0.8654955
vt 0.19410267 0.73525834
vt 0.0041016042 0.7205224
vt 0.033922974 0.80077678
vt 0.083089218 0.49990958
vt 0.1631283 0.51097476
vt 0.13616988 0.58228439
vt 0.15067761 0.62625629
vt 0.11011818 0.60084051
vt 0.1903971 0.90098649
vt 0.21538472 0.85629588
vt 0.0041023199 0.72249651
vt 0.077447936 0.84548491
vt 0.12236822 0.4998939
vt 0.15095413 0.49988163
vt 0.13442145 0.60114199
vt 0.16236162 0.90092146
vt 0.20180102 0.66650021
vt 0.27826977 0.80274093
vt 0.020518012 0.80916697
vt 0.004119196 0.77878731
vt 0.1258343 0.49989152
vt 0.16481377 0.49987084
vt 0.15649468 0.57092023
vt 0.15920082 0.60482395
vt 0.12371156 0.58434767
vt 0.15552521 0.89392853
vt 0.1886064 0.91622621
vt 0.25204501 0.9190731
vt 0.12511468 0.87362951
vt 0.2311697 0.71141809
vt 0.17680159 0.64770931
vt 0.23695898 0.7479564
vt 0.30167785 0.88949567
vt 0.0041202707 0.79795521
vt 0.004120823 0.79110354
vt 0.1856702 0.50560153
vt 0.18764339 0.53966331
vt 0.16378008 0.61517608
vt 0.15174866 0.89135742
vt 0.20266047 0.92389607
vt 0.30628759 0.91636586
vt 0.22471863 0.92952472
vt 0.13771531 0.88257885
vt 0.25589356 0.67441535
vt 0.22400257 0.73729765
vt 0.19974875 0.63608754
vt 0.28167376 0.77912694
vt 0.32546428 0.85597014
vt 0.004118572 0.80044091
vt 0.17011781 0.49986815
vt 0.202198 0.5210278
vt 0.16946204 0.58945096
vt 0.15136719 0.89181519
vt 0.27901936 0.96174955
vt 0.23533669 0.94293261
vt 0.25766382 0.6998117
vt 0.23456536 0.6469363
vt 0.23951106 0.72985065
vt 0.30440569 0.75210732
vt 0.32341403 0.80552471
vt 0.34564382 0.84373116
vt 0.33852386 0.91459835
vt 0.17444012 0.49986565
vt 0.15448791 0.90089625
vt 0.12268658 0.87787223
vt 0.21519592 0.93911409
vt 0.29051793 0.97859466
vt 0.26366627 0.96222627
vt 0.22629617 0.94025362
vt 0.272706 0.73156184
vt 0.27036858 0.68275142
vt 0.2786516 0.67758727
vt 0.36036825 0.86849046
vt 0.37082663 0.95941085
vt 0.31164113 0.99491876
vt 0.27091634 0.70338213
vt 0.35892916 0.79713738
vt 0.29133332 0.72805071
vt 0.35427663 0.82702535
vt 0.41576001 0.89301544
vt 0.31723914 0.71483636
vt 0.35263059 0.75533819
vt 0.3734304 0.84121692
vt 0.3925252 0.84720051
vt 0.40047115 0.89663106
vt 0.31805626 0.99593055
vt 0.32580751 0.7102108
vt 0.34831476 0.7286526
vt 0.3749404 0.78118938
vt 0.41335717 0.84916782
vt 0.41266295 0.91488552
vt 0.38197809 0.90673578
vt 0.34822279 0.99592209
vt 0.31243464 0.99593204
vt 0.39676473 0.75552696
vt 0.41093391 0.78979731
vt 0.41788995 0.82140172
vt 0.43737683 0.87311649
vt 0.42441356 0.93158281
vt 0.39076462 0.91077423
vt 0.3486186 0.99592185
vt 0.37437233 0.7255758
vt 0.43826455 0.83834225
vt 0.49635285 0.89309329
vt 0.40036896 0.92052984
vt 0.3915188 0.93551683
vt 0.40736583 0.73606217
vt 0.43258226 0.78671706
vt 0.43609002 0.80189139
vt 0.4318893 0.81748688
vt 0.46257272 0.94132411
vt 0.35052231 0.99592131
vt 0.42741248 0.76417536
vt 0.45442867 0.82601136
vt 0.47105277 0.84491742
vt 0.49637118 0.95113939
vt 0.44128427 0.95838487
vt 0.46206689 0.78499621
vt 0.47167078 0.80548024
vt 0.49633792 0.84048951
vt 0.46077013 0.96002668
vt 0.43173224 0.97708768
vt 0.49637955 0.9830783
vt 0.44855025 0.96734166
vt 0.36169931 0.99591792
vt 0.49631825 0.7918961
vt 0.496324 0.8026104
vt 0.4721874 0.98678261
vt 0.43675786 0.97468138
vt 0.43093815 0.99589688
vt 0.49638087 0.99587148
vt 0.44461894 0.98931271
vt 0.48651969 0.99586987
vt 0.4708921 0.99587077
vt 0.48068678 0.99586886
vt 0.45126188 0.99587554
vt 0.35062209 0.34004968
vt 0.35850632 0.30902445
vt 0.39534727 0.32910138
vt 0.38340104 0.34448981
vt 0.31802416 0.29181218
vt 0.38989803 0.29837853
vt 0.40330812 0.35974121
vt 0.38181442 0.37849689
vt 0.31329918 0.2730059
vt 0.30213311 0.32395291
vt 0.40101638 0.29286361
vt 0.4023934 0.36264402
vt 0.4026112 0.32795292
vt 0.33399498 0.38004059
vt 0.35654303 0.26240867
vt 0.32700273 0.34181392
vt 0.40170339 0.29523188
vt 0.35099617 0.44186634
vt 0.40317988 0.36562997
vt 0.27790812 0.28223509
vt 0.31920087 0.25375432
vt 0.40155551 0.29251647
vt 0.29915985 0.37074172
vt 0.39570412 0.40370238
vt 0.31630427 0.40700257
vt 0.26708335 0.29669088
vt 0.29420295 0.24540108
vt 0.32964161 0.21581674
vt 0.40155372 0.29178131
vt 0.26581129 0.3389076
vt 0.39003712 0.43257463
vt 0.32120463 0.42798078
vt 0.31825349 0.38936514
vt 0.40318108 0.37102747
vt 0.24665062 0.25016499
vt 0.27300861 0.2572102
vt 0.3740972 0.20760387
vt 0.40137699 0.25817633
vt 0.23764209 0.35331225
vt 0.40286949 0.44910818
vt 0.40148702 0.41056836
vt 0.29703024 0.44732779
vt 0.27351338 0.4100219
vt 0.40171608 0.40026551
vt 0.23863995 0.30228543
vt 0.28674799 0.20396721
vt 0.35868907 0.16838247
vt 0.37880573 0.25138891
vt 0.39989483 0.25514024
vt 0.27346256 0.39060116
vt 0.40379012 0.45154035
vt 0.39722776 0.43200773
vt 0.40247703 0.40416414
vt 0.28451151 0.45900863
vt 0.21306267 0.26293242
vt 0.27944854 0.18858117
vt 0.40032911 0.19605041
vt 0.32814759 0.16552937
vt 0.40179905 0.24428958
vt 0.18580969 0.32078618
vt 0.22579084 0.39076746
vt 0.37005213 0.47651434
vt 0.32129773 0.48128051
vt 0.267813 0.43224174
vt 0.20881458 0.29849112
vt 0.21337123 0.22133648
vt 0.24883865 0.19953108
vt 0.29113293 0.17351979
vt 0.39866006 0.18472528
vt 0.40312719 0.20998842
vt 0.33299652 0.15776813
vt 0.20372929 0.34329259
vt 0.19635005 0.36348218
vt 0.40364674 0.45264971
vt 0.29624864 0.48112935
vt 0.24201748 0.45117503
vt 0.22026175 0.41108316
vt 0.20087096 0.25587291
vt 0.24318251 0.1878199
vt 0.2682229 0.17121392
vt 0.40136763 0.16341662
vt 0.35268542 0.13525742
vt 0.29615787 0.15881556
vt 0.1688495 0.40594542
vt 0.39812377 0.47010022
vt 0.35280934 0.48371947
vt 0.26938567 0.47880608
vt 0.24413374 0.47701609
vt 0.16210659 0.27990735
vt 0.17345048 0.23876101
vt 0.16242862 0.20203871
vt 0.2016519 0.188945
vt 0.27763659 0.15744793
vt 0.17247033 0.33884782
vt 0.16589804 0.36827219
vt 0.39944914 0.47813219
vt 0.20766392 0.42984444
vt 0.21618506 0.46337873
vt 0.16654468 0.30271918
vt 0.21066691 0.16381693
vt 0.2324385 0.17171896
vt 0.23047793 0.16068715
vt 0.40210915 0.16212958
vt 0.18459122 0.42888552
vt 0.15678494 0.38927931
vt 0.39255378 0.48270971
vt 0.22762431 0.4773615
vt 0.12720379 0.30436444
vt 0.16249052 0.25355339
vt 0.12060402 0.23581594
vt 0.12953092 0.18806654
vt 0.19263224 0.16303468
vt 0.40472063 0.15618724
vt 0.13370316 0.34814233
vt 0.16420369 0.43233699
vt 0.12248268 0.3814885
vt 0.40008295 0.48338002
vt 0.18064241 0.45573205
vt 0.21046671 0.48745966
vt 0.11379803 0.26564449
vt 0.075831957 0.20402122
vt 0.17858297 0.17096215
vt 0.40727934 0.13380212
vt 0.12940411 0.45319247
vt 0.108194 0.40905637
vt 0.073431231 0.28473473
vt 0.073480316 0.24689507
vt 0.13792828 0.16818374
vt 0.076920785 0.18947577
vt 0.17261031 0.15755224
vt 0.36373273 0.12604576
vt 0.41326594 0.13710886
vt 0.10172781 0.32486641
vt 0.094125941 0.34189326
vt 0.0989604 0.39152908
vt 0.15811417 0.48745769
vt 0.097275443 0.30196434
vt 0.097087301 0.25635409
vt 0.004571151 0.22301966
vt 0.11993806 0.17029655
vt 0.15916431 0.1594221
vt 0.023194728 0.18918377
vt 0.08679729 0.17099029
vt 0.34958422 0.10898256
vt 0.38277677 0.087109387
vt 0.41411355 0.13261026
vt 0.06924054 0.37171143
vt 0.097446904 0.43285346
vt 0.13405855 0.48294026
vt 0.0058495719 0.20145684
vt 0.054265212 0.2561987
vt 0.1289878 0.15942323
vt 0.035873003 0.16890615
vt 0.36016843 0.088640451
vt 0.39490312 0.09176749
vt 0.41234112 0.12871629
vt 0.069820456 0.3301385
vt 0.074189872 0.4437601
vt 0.054872122 0.41250843
vt 0.11247217 0.49652845
vt 0.027618447 0.28824389
vt 0.096908979 0.16364759
vt 0.0039287452 0.18809026
vt 0.0057012686 0.16436857
vt 0.054953948 0.15585017
vt 0.053056672 0.34600353
vt 0.06665349 0.46647924
vt 0.051662028 0.38929808
vt 0.054080121 0.30368441
vt 0.0069985888 0.25650448
vt 0.077317715 0.16168094
vt 0.0070562884 0.1761626
vt 0.030773649 0.15798694
vt 0.004859441 0.32644182
vt 0.038655199 0.3648625
vt 0.053527996 0.43158489
vt 0.0056070103 0.40656376
vt 0.0056081805 0.30456942
vt 0.019473093 0.45344681
vt 0.0068845358 0.35114247
vt 0.0070477147 0.4335162
vt 0.0061268564 0.46622568
vt 0.0069025764 0.38793492
vt 0.004950495 0.36145234
vt 0.041873105 0.48862553
vt 0.005523426 0.37847871
vt 0.069987491 0.48840624
vt 0.0078924336 0.48815393
vt 0.093035996 0.48320442
vt 0.78964657 0.92605317
vt 0.77533484 0.94107926
vt 0.75578219 0.94033313
vt 0.71557564 0.92046946
vt 0.79693419 0.94376659
vt 0.74919915 0.87266147
vt 0.84285736 0.9278332
vt 0.70998132 0.89096212
vt 0.80213135 0.86715609
vt 0.84169143 0.8970384
vt 0.68013734 0.89997035
vt 0.69265002 0.86210388
vt 0.86457622 0.89707774
vt 0.69633299 0.92624259
vt 0.83825839 0.87798983
vt 0.68119758 0.92606711
vt 0.64215857 0.87298322
vt 0.6607492 0.9372775
vt 0.63303071 0.89438349
vt 0.70082176 0.93772846
vt 0.64658809 0.93337643
vt 0.60783583 0.86730784
vt 0.69021177 0.95295709
vt 0.6560877 0.96899182
vt 0.61447704 0.93200743
vt 0.60239375 0.88395995
vt 0.71646738 0.93974578
vt 0.64033139 0.9748857
vt 0.61643749 0.96268833
vt 0.57694066 0.87814206
vt 0.68410754 0.98750889
vt 0.70697641 0.98200697
vt 0.64561272 0.98405033
vt 0.57680553 0.95183903
vt 0.56607598 0.90544343
vt 0.57774359 0.86141163
vt 0.66253537 0.98545545
vt 0.74029154 0.95243448
vt 0.53587449 0.88731897
vt 0.75458175 0.97887993
vt 0.54812217 0.95792669
vt 0.53752625 0.85632098
vt 0.51356202 0.91046953
vt 0.73044974 0.98809552
vt 0.52200001 0.87033796
vt 0.51429832 0.90446311
vt 0.7497738 0.99159151
vt 0.71454912 0.99536484
vt 0.51123738 0.94468212
vt 0.50977778 0.87341511
vt 0.50358874 0.86157775
vt 0.51304644 0.8869859
vt 0.51207775 0.955791
vt 0.68183851 0.76918137
vt 0.68193191 0.7533673
vt 0.73340124 0.74613988
vt 0.73026103 0.77271122
vt 0.66174942 0.73954755
vt 0.71499497 0.74573976
vt 0.76678455 0.75438333
vt 0.6195811 0.75122803
vt 0.68241936 0.74093741
vt 0.71304882 0.73953366
vt 0.75236058 0.74390996
vt 0.80206811 0.77889436
vt 0.60273844 0.76292944
vt 0.62644416 0.73171198
vt 0.73661578 0.73467803
vt 0.76362813 0.74206936
vt 0.81436527 0.75817931
vt 0.64144689 0.78209329
vt 0.7896266 0.74269652
vt 0.8257665 0.78040928
vt 0.65878475 0.78654289
vt 0.56134492 0.77197307
vt 0.81861567 0.74778926
vt 0.82915503 0.76849025
vt 0.65945464 0.8082971
vt 0.60746241 0.80042952
vt 0.56542569 0.75841427
vt 0.8339209 0.75235641
vt 0.54095584 0.79834974
vt 0.5425058 0.77631837
vt 0.50689477 0.75619698
vt 0.52040678 0.77196014
vt 0.54019392 0.74243164
vt 0.50638646 0.74502349
vt 0.51562989 0.72913218
vt 0.50351942 0.72737181
vt 0.55131912 0.72995555
vt 0.53984946 0.44346714
vt 0.55221903 0.42208916
vt 0.56808382 0.47312772
vt 0.5345962 0.41383332
vt 0.58983827 0.45089269
vt 0.52029932 0.43808365
vt 0.58608836 0.4698804
vt 0.51143694 0.42715406
vt 0.61449772 0.47425479
vt 0.50345916 0.39321142
vt 0.60630995 0.48686177
vt 0.60991746 0.45840424
vt 0.62506026 0.4999314
vt 0.58357865 0.48372269
vt 0.62244731 0.47141206
vt 0.6121453 0.50576305
vt 0.63851869 0.48353416
vt 0.60070938 0.49270505
vt 0.65031153 0.49060184
vt 0.64134794 0.50855714
vt 0.66493696 0.50683224
vt 0.6191166 0.50873333
vt 0.66945153 0.50121176
vt 0.65828449 0.52987874
vt 0.63916284 0.51984704
vt 0.67589748 0.50740862
vt 0.67167187 0.54118472
vt 0.68380702 0.53767705
vt 0.71629459 0.53984869
vt 0.68030339 0.54761672
vt 0.70457852 0.52368414
vt 0.67255598 0.55173063
vt 0.69691372 0.55121118
vt 0.7124213 0.56303197
vt 0.69388539 0.56252301
vt 0.73355025 0.57087135
vt 0.73735571 0.55005097
vt 0.72705895 0.58512121
vt 0.75776219 0.56362057
vt 0.75105381 0.60150677
vt 0.781389 0.58450264
vt 0.78138024 0.57505214
vt 0.78139585 0.62169409
vt 0.76796484 0.3547132
vt 0.72848195 0.35207224
vt 0.77647918 0.34097379
vt 0.77847081 0.34341872
vt 0.77577752 0.37619716
vt 0.74622822 0.32069731
vt 0.78611696 0.34924906
vt 0.74290133 0.38042134
vt 0.7981984 0.36037612
vt 0.77286655 0.33489496
vt 0.69995683 0.33912843
vt 0.79051208 0.35041881
vt 0.75893527 0.3906554
vt 0.67642057 0.3654387
vt 0.80023307 0.3690989
vt 0.76777327 0.31721932
vt 0.69298965 0.3176204
vt 0.73783767 0.41011554
vt 0.77791566 0.39157045
vt 0.69587421 0.38628846
vt 0.78448522 0.3784923
vt 0.8060382 0.34567094
vt 0.68613654 0.32642907
vt 0.71515369 0.29453343
vt 0.76153499 0.41033369
vt 0.68045151 0.4071672
vt 0.7688325 0.40486604
vt 0.67411351 0.40068126
vt 0.80330759 0.38415313
vt 0.79787129 0.34697342
vt 0.8220582 0.37078995
vt 0.67590034 0.33934343
vt 0.70713741 0.29898971
vt 0.74820632 0.30881476
vt 0.74598235 0.42062896
vt 0.70934433 0.43726027
vt 0.79028296 0.39333963
vt 0.64402384 0.39986598
vt 0.80302662 0.34307402
vt 0.81211376 0.38677663
vt 0.81904334 0.34807807
vt 0.65617567 0.36465025
vt 0.71166575 0.29299325
vt 0.76119643 0.4329071
vt 0.62984681 0.40128416
vt 0.83145839 0.39697772
vt 0.80871427 0.34327382
vt 0.83676285 0.36272895
vt 0.64535218 0.37859339
vt 0.74000871 0.45128763
vt 0.7131055 0.44617355
vt 0.8174426 0.40234065
vt 0.84804457 0.36758417
vt 0.79513794 0.41355914
vt 0.76031393 0.44607365
vt 0.87187219 0.38431609
vt 0.82124817 0.41860968
vt 0.71930003 0.48394364
vt 0.71322942 0.46857941
vt 0.87053543 0.38136268
vt 0.75511271 0.47444808
vt 0.87379676 0.38314587
vt 0.81131345 0.44821668
vt 0.72872794 0.49209154
vt 0.87368035 0.38813996
vt 0.87420315 0.4221257
vt 0.80574101 0.46332306
vt 0.72482312 0.4941135
vt 0.87765944 0.42759496
vt 0.86560494 0.44131738
vt 0.75758016 0.48322141
vt 0.74354053 0.48647189
vt 0.88134485 0.43471152
vt 0.71535301 0.49685007
vt 0.031616595 0.98065603
vt 0.01274406 0.98092425
vt 0.0041231075 0.95945042
vt 0.035551533 0.96827614
vt 0.02896818 0.99187058
vt 0.054206856 0.98187411
vt 0.056083322 0.9653185
vt 0.056092765 0.99074471
vt 0.081344023 0.98311603
vt 0.081922345 0.99168229
vt 0.092351966 0.97091168
vt 0.10636945 0.9890936
vt 0.13190156 0.97887385
vt 0.11378305 0.96762925
vt 0.14816964 0.98715341
vt 0.13599248 0.95761538
vt 0.12803054 0.99547321
vt 0.16710129 0.96335548
vt 0.17442808 0.983082
vt 0.17111938 0.98104846
vt 0.19562986 0.98326147
vt 0.18112966 0.98840243
vt 0.20294175 0.96350163
vt 0.19943625 0.99211878
vt 0.17097142 0.99230218
vt 0.21472964 0.95852876
vt 0.21709925 0.98919022
vt 0.23210743 0.98448032
vt 0.23410411 0.98997128
vt 0.24191964 0.98715341
vt 0.26486936 0.98104846
vt 0.26472142 0.99230218
vt 0.90851372 0.93135387
vt 0.89247805 0.93286794
vt 0.9277513 0.90261507
vt 0.93588591 0.90832758
vt 0.87904984 0.93868589
vt 0.90903771 0.88670045
vt 0.95802152 0.87221074
vt 0.93474638 0.92062557
vt 0.8790499 0.93938506
vt 0.87905049 0.9344824
vt 0.88277143 0.91662228
vt 0.94732803 0.86889178
vt 0.95110393 0.89793384
vt 0.92248601 0.94079828
vt 0.87905109 0.94320923
vt 0.89369053 0.89627773
vt 0.92105865 0.84719044
vt 0.95877379 0.88362724
vt 0.96650463 0.84052354
vt 0.89607984 0.95353168
vt 0.87904799 0.92060453
vt 0.91057169 0.86516392
vt 0.94707102 0.85235131
vt 0.97407854 0.86052549
vt 0.97410375 0.84861094
vt 0.90468335 0.96823609
vt 0.88324809 0.96972317
vt 0.95431602 0.8188135
vt 0.89519078 0.96777421
vt 0.8790555 0.95542663
vt 0.94448555 0.81067306
vt 0.98364258 0.84997201
vt 0.88656545 0.99059993
vt 0.87905914 0.96349406
vt 0.87905979 0.96729791
vt 0.8790707 0.99002218
vt 0.87906265 0.97627646
vt 0.87906379 0.97793674
vt 0.8790738 0.99592733
vt 0.81569481 0.80687392
vt 0.83934581 0.80770421
vt 0.81546825 0.80723464
vt 0.91160375 0.80723405
vt 0.94253165 0.74549639
vt 0.85987502 0.77931881
vt 0.98057812 0.757249
vt 0.91815585 0.74286628
vt 0.97992891 0.7051329
vt 0.96042389 0.80831861
vt 0.92642021 0.7376945
vt 0.9791404 0.70457959
vt 0.98043215 0.78243005
vt 0.93686265 0.73121727
vt 0.94844955 0.72414744
vt 0.97995543 0.70405352
vt 0.49353877 0.48638636
vt 0.47822097 0.49622995
vt 0.46565813 0.48010606
vt 0.47407079 0.47045791
vt 0.49740148 0.53693008
vt 0.46639603 0.49381381
vt 0.52079618 0.54127395
vt 0.46448588 0.52625322
vt 0.52763468 0.52021945
vt 0.52537143 0.56154579
vt 0.48280901 0.54390895
vt 0.44746351 0.52377701
vt 0.53653365 0.53853697
vt 0.49282697 0.56711614
vt 0.46625826 0.55581844
vt 0.50893587 0.58619189
vt 0.43497202 0.55881983
vt 0.47553465 0.5840978
vt 0.46252152 0.57901073
vt 0.40992138 0.55477774
vt 0.44181642 0.57678044
vt 0.40722293 0.57993329
vt 0.461642 0.59236217
vt 0.42051119 0.59043777
vt 0.447229 0.59374535
vt 0.40744147 0.59840906
vt 0.37843817 0.59551024
vt 0.39428556 0.6104871
vt 0.40128085 0.61875653
vt 0.3905324 0.62151349
vt 0.067707516 0.89422172
vt 0.068456642 0.87733567
vt 0.078473203 0.89217341
vt 0.072658934 0.90593046
vt 0.042982224 0.88226503
vt 0.094681434 0.88274217
vt 0.053487718 0.89176559
vt 0.094747029 0.91508758
vt 0.04795694 0.8630327
vt 0.046484914 0.89424682
vt 0.053968396 0.86330265
vt 0.038899876 0.87522846
vt 0.11591043 0.89852118
vt 0.045391604 0.86464643
vt 0.030876355 0.8835572
vt 0.11874674 0.92317182
vt 0.038596004 0.86693442
vt 0.035908576 0.86740023
vt 0.14418608 0.92070347
vt 0.010531481 0.87981999
vt 0.15955274 0.93360674
vt 0.14002964 0.9022429
vt 0.020350557 0.87268829
vt 0.16209511 0.91219491
vt 0.14163351 0.93069792
vt 0.012808905 0.87455589
vt 0.0066985437 0.87511349
vt 0.0039459858 0.87742317
vt 0.4588896 0.67709386
vt 0.39649475 0.65223646
vt 0.42315307 0.61276412
vt 0.435781 0.61275995
vt 0.37923965 0.67744792
vt 0.45789585 0.63761425
vt 0.41993582 0.71172023
vt 0.44012237 0.61275816
vt 0.49002367 0.6628809
vt 0.49004269 0.71918571
vt 0.46848798 0.62322891
vt 0.47902951 0.64359903
vt 0.47699043 0.74609983
vt 0.45135275 0.61275464
vt 0.48138061 0.6161533
vt 0.49001068 0.64472115
vt 0.49004504 0.73034197
vt 0.47046012 0.61274564
vt 0.48052469 0.61274195
vt 0.49000701 0.63046396
vt 0.48535857 0.61274159
vt 0.49000579 0.62552667
vt 0.49000606 0.61274076
vt 0.59562665 0.73635882
vt 0.57574081 0.72026008
vt 0.59819758 0.71657431
vt 0.62971795 0.72815585
vt 0.56630105 0.72757494
vt 0.57420868 0.70538664
vt 0.64693546 0.71730816
vt 0.57154411 0.73924845
vt 0.56683517 0.71913016
vt 0.56833321 0.71049529
vt 0.58919865 0.66321826
vt 0.64277464 0.69632894
vt 0.56986207 0.7457546
vt 0.69087684 0.71419066
vt 0.5755533 0.74667734
vt 0.58964568 0.66113055
vt 0.66269708 0.6589154
vt 0.58994383 0.66050828
vt 0.59164971 0.65953708
vt 0.63502312 0.64463747
vt 0.61671418 0.6443125
vt 0.62182462 0.64174825
vt 0.86877853 0.6389792
vt 0.88358915 0.66437447
vt 0.8540439 0.65033793
vt 0.83758897 0.63937783
vt 0.90195596 0.64078927
vt 0.88443041 0.68022609
vt 0.85048169 0.62243605
vt 0.8819254 0.62739396
vt 0.91280085 0.65450639
vt 0.90452808 0.68269587
vt 0.81956846 0.62693608
vt 0.81727487 0.59935749
vt 0.85532016 0.6094889
vt 0.92366427 0.67754763
vt 0.51224345 0.98279697
vt 0.5270083 0.99388206
vt 0.50380296 0.98969537
vt 0.54612267 0.98182392
vt 0.56019086 0.99687427
vt 0.57692635 0.97966439
vt 0.59161478 0.99317628
vt 0.60350889 0.97986138
vt 0.60193735 0.99005359
vt 0.6047802 0.97988671
vt 0.27003261 0.61303037
vt 0.2597346 0.62033844
vt 0.24052308 0.6087749
vt 0.24418591 0.57522726
vt 0.26670209 0.59302795
vt 0.21841843 0.59449434
vt 0.25173411 0.56531978
vt 0.22867271 0.57634205
vt 0.22642505 0.55189103
vt 0.28654224 0.58686423
vt 0.20780419 0.58319491
vt 0.21579973 0.56137294
vt 0.22297038 0.52696133
vt 0.21092562 0.55204511
vt 0.19935396 0.578879
vt 0.20050332 0.544424
vt 0.19052769 0.56638259
vt 0.94027698 0.97721326
vt 0.96673137 0.97857326
vt 0.93545544 0.99294746
vt 0.91045219 0.97438818
vt 0.95249331 0.95101136
vt 0.97242719 0.99591106
vt 0.92185652 0.96190697
vt 0.97511452 0.96509945
vt 0.98932153 0.98200697
vt 0.99685544 0.9648363
vt 0.79614604 0.95736307
vt 0.85110557 0.95592564
vt 0.80491102 0.98022991
vt 0.77509981 0.98123163
vt 0.8513236 0.97940272
vt 0.76937282 0.95775139
vt 0.85217041 0.95762259
vt 0.85226566 0.95592934
vt 0.038187109 0.93290108
vt 0.012479652 0.93124104
vt 0.0044969958 0.90344173
vt 0.039424058 0.89834052
vt 0.067285679 0.93248272
vt 0.080387309 0.92420596
vt 0.51280653 0.98027796
vt 0.50322819 0.97140223
vt 0.56456965 0.97998267
vt 0.54122394 0.96757829
vt 0.51083833 0.96806884
vt 0.56284612 0.96812046
vt 0.56842703 0.97828716
vt 0.56842387 0.96819854
vt 0.10602157 0.94389135
vt 0.10976239 0.96531022
vt 0.095852181 0.9630996
vt 0.082818262 0.95350409
vt 0.13102117 0.94739276
vt 0.25307277 0.9719066
vt 0.29545695 0.98204947
vt 0.29983136 0.99517757
vt 0.96607482 0.92692697
vt 0.94222677 0.90478891
vt 0.95994765 0.90834641
vt 0.98366135 0.91061282
vt 0.9837485 0.90224886
vt 0.98526937 0.93289906
vt 0.76085675 0.98365974
vt 0.75373012 0.99657851
vt 0.76663268 0.95226461
vt 0.38695177 0.90817446
vt 0.36135814 0.93356884
vt 0.35453424 0.91507602
vt 0.34882566 0.90013033
vt 0.37663463 0.93339652
vt 0.34696963 0.92723459
vt 0.63707906 0.97357535
vt 0.597404 0.99662459
vt 0.60801697 0.98706055
vt 0.87136447 0.95736718
vt 0.84677327 0.99593705
vt 0.87136406 0.9565655
vt 0.86776197 0.97028595
vt 0.059013836 0.9586004
vt 0.042958818 0.96416706
vt 0.057837963 0.93887031
vt 0.073817231 0.95179218
vt 0.036239497 0.94845438
vt 0.035771105 0.95936936
vt 0.039725177 0.93640441
vt 0.035034895 0.96491295
vt 0.34184423 0.87261331
vt 0.35277137 0.86993438
vt 0.3503224 0.89463025
vt 0.31947231 0.90106148
vt 0.31633902 0.86833888
vt 0.33759522 0.90165609
vt 0.23172766 0.98685294
vt 0.23650768 0.95814401
vt 0.23110199 0.99560994
vt 0.58747166 0.96114802
vt 0.60128725 0.96243942
vt 0.59331727 0.97984511
vt 0.57806695 0.98085833
vt 0.56603509 0.96191764
vt 0.024412623 0.83838069
vt 0.035020299 0.85838753
vt 0.016088784 0.87072515
vt 0.011003713 0.85139316
vt 0.0042304164 0.84737438
vt 0.64823633 0.87137032
vt 0.62822205 0.869748
vt 0.63220501 0.84959507
vt 0.65756702 0.85360295
vt 0.65920043 0.8388201
vt 0.24985643 0.97353667
vt 0.24699402 0.96272278
vt 0.24986048 0.96097046
vt 0.24652122 0.98114681
vt 0.23834229 0.94985962
vt 0.24986206 0.95380265
vt 0.031324919 0.99541754
vt 0.019917235 0.99582994
vt 0.0029544372 0.97788346
vt 0.0036328258 0.99517035
vt 0.015151696 0.99345148
vt 0.019057864 0.99294567
vt 0.024816703 0.99230689
vt 0.63337761 0.99427575
vt 0.61232859 0.99515152
vt 0.63571495 0.98205346
vt 0.0044801729 0.99230689
vt 0.010239011 0.99294567
vt 0.014145179 0.99345148
vt 0.02566405 0.99517035
vt 0.16286957 0.9861871
vt 0.17394464 0.98541254
vt 0.15179504 0.99681693
vt 0.86361706 0.97471321
vt 0.87823921 0.99079573
vt 0.86362422 0.99691862
vt 0.863617 0.97435099
vt 0.91244406 0.97901863
vt 0.91304415 0.99513459
vt 0.90188962 0.97911429
vt 0.80393034 0.98005837
vt 0.8131659 0.99534273
vt 0.79981238 0.98006165
vt 0.0031801411 0.99563754
vt 0.012344768 0.99346107
vt 0.013666195 0.99319643
vt 0.0048587741 0.99350059
vt 0.010327769 0.99605668
vt 0.0052360371 0.99635434
vt 0.0092044519 0.99208599
vt 0.011618883 0.99258542
usemtl Tile_+031_+021_L19_000133_0
f 259/514 160/515 526/516
f 272/559 250/565 264/553
f 528/566 256/544 529/561
f 258/535 260/522 531/525
f 268/1 277/2 533/3
f 257/7 268/1 534/4
f 59/518 259/514 260/522
f 269/11 270/18 536/21
f 538/66 113/58 539/75
f 540/537 255/519 642/530
f 56/540 58/526 262/532
f 53/550 262/532 261/534
f 160/515 159/524 255/519
f 265/933 260/934 263/935
f 267/851 126/852 127/853
f 278/6 273/5 269/11
f 547/582 78/576 551/579
f 554/913 277/914 555/915
f 273/843 278/844 266/845
f 555/915 257/917 556/918
f 533/3 278/6 557/9
f 536/21 274/24 558/28
f 273/5 277/2 268/1
f 266/14 257/7 277/2
f 266/856 277/857 273/858
f 267/851 75/855 126/852
f 275/34 274/24 81/40
f 127/853 76/854 267/851
f 79/52 113/58 275/34
f 102/580 78/576 276/583
f 551/579 271/569 559/578
f 274/24 44/33 81/40
f 77/23 274/24 270/18
f 267/17 76/20 254/15
f 270/18 254/15 76/20
f 270/18 269/11 254/15
f 273/5 268/1 253/8
f 266/14 267/17 253/8
f 75/19 266/14 571/22
f 261/534 265/528 263/542
f 56/540 262/532 53/550
f 250/565 40/567 53/550
f 250/565 53/550 264/553
f 250/565 272/559 39/570
f 269/11 273/5 253/8
f 553/846 278/844 554/847
f 558/28 275/34 563/42
f 256/544 272/559 264/553
f 264/553 263/542 260/522
f 271/569 39/570 272/559
f 261/534 263/542 53/550
f 53/550 263/542 264/553
f 58/526 59/518 262/532
f 265/528 261/534 59/518
f 59/518 261/534 262/532
f 260/522 256/544 264/553
f 260/522 265/528 59/518
f 260/522 258/535 256/544
f 531/525 259/514 542/520
f 160/515 259/514 59/518
f 253/8 268/1 257/7
f 275/34 81/40 79/52
f 59/518 60/521 160/515
f 267/17 254/15 253/8
f 278/6 269/11 537/16
f 113/58 276/74 546/89
f 526/516 255/519 568/523
f 642/530 159/524 643/536
f 266/14 253/8 257/7
f 254/15 269/11 253/8
f 75/19 267/17 266/14
f 113/58 102/67 276/74
f 78/576 39/570 271/569
f 271/569 272/559 528/566
f 530/554 258/535 567/560
f 404/192 21/193 10/194
f 125/54 68/62 52/48
f 130/620 138/621 141/622
f 46/568 61/563 55/557
f 161/675 210/676 100/677
f 31/133 98/114 29/125
f 45/56 52/48 51/72
f 105/868 242/869 144/870
f 161/107 99/93 101/79
f 143/626 154/631 63/638
f 98/114 31/133 83/136
f 207/381 223/382 208/383
f 211/778 206/779 208/780
f 33/83 107/64 38/65
f 242/869 241/873 144/870
f 95/91 88/60 573/77
f 115/31 71/36 114/45
f 162/859 49/860 104/861
f 143/626 122/643 121/637
f 142/792 134/793 147/794
f 139/756 146/757 153/758
f 152/527 157/551 644/558
f 139/635 137/625 151/630
f 56/540 54/538 58/526
f 17/636 64/642 154/631
f 126/44 75/19 66/35
f 93/102 32/87 98/114
f 226/694 212/686 232/691
f 178/256 2/246 246/236
f 173/218 169/226 174/237
f 165/212 168/200 173/218
f 176/239 171/228 576/250
f 185/262 184/249 215/274
f 226/385 223/382 207/381
f 181/238 184/249 185/262
f 223/781 226/788 218/784
f 228/427 229/424 220/420
f 210/676 116/680 100/677
f 189/471 216/472 221/473
f 221/700 222/698 189/699
f 224/291 193/292 192/270
f 93/102 43/73 32/87
f 103/55 238/81 237/94
f 37/871 144/870 241/873
f 247/929 249/930 248/931
f 237/94 112/98 103/55
f 122/643 47/644 237/651
f 646/634 133/646 647/649
f 650/800 149/799 651/801
f 96/143 244/137 98/114
f 204/384 200/394 110/391
f 242/802 243/803 239/804
f 123/808 37/811 241/806
f 240/805 123/808 241/806
f 239/837 243/838 105/839
f 47/644 122/643 143/626
f 65/874 122/875 237/876
f 122/587 65/574 238/581
f 238/926 112/927 47/928
f 65/574 112/585 238/581
f 112/98 237/94 47/119
f 65/120 237/94 236/108
f 47/571 65/574 236/577
f 107/64 121/82 122/71
f 48/32 72/47 118/38
f 105/868 243/872 242/869
f 110/391 203/388 204/384
f 230/481 3/479 231/483
f 228/484 225/477 230/481
f 227/283 224/291 192/270
f 170/257 245/282 179/258
f 179/258 245/282 227/283
f 234/486 229/488 230/481
f 173/218 175/227 169/226
f 192/270 179/258 227/283
f 234/486 230/481 231/483
f 4/485 3/479 224/482
f 195/293 193/292 224/291
f 230/481 229/488 228/484
f 217/790 219/785 218/784
f 228/704 220/702 225/703
f 194/695 189/699 222/698
f 195/475 225/477 221/473
f 216/472 195/475 221/473
f 211/778 219/785 205/782
f 227/283 235/313 4/303
f 224/291 227/283 4/303
f 219/418 220/420 233/412
f 200/787 204/783 206/779
f 201/786 200/787 206/779
f 202/403 205/407 233/412
f 232/789 218/784 226/788
f 204/384 203/388 84/386
f 232/691 194/695 217/696
f 194/695 222/698 217/696
f 212/686 213/682 209/689
f 232/691 209/689 194/695
f 213/682 214/685 209/689
f 212/686 209/689 232/691
f 226/385 207/381 212/387
f 212/387 207/381 91/390
f 120/889 52/890 117/891
f 274/24 77/23 44/33
f 117/891 100/894 116/892
f 101/79 70/61 89/78
f 213/682 212/686 116/680
f 116/680 210/676 213/682
f 187/693 194/695 209/689
f 199/791 200/787 201/786
f 213/682 197/679 214/685
f 205/782 201/786 206/779
f 96/143 98/114 83/136
f 205/407 202/403 201/400
f 208/780 223/781 211/778
f 218/784 211/778 223/781
f 211/778 218/784 219/785
f 221/700 217/696 222/698
f 219/701 217/696 221/700
f 233/412 205/407 219/418
f 221/700 220/702 219/701
f 204/384 207/381 208/383
f 218/784 232/789 217/790
f 211/778 205/782 206/779
f 209/689 214/685 186/688
f 186/688 187/693 209/689
f 190/697 189/699 194/695
f 184/249 183/259 215/274
f 189/471 215/474 216/472
f 216/284 191/271 195/293
f 193/292 195/293 191/271
f 192/270 193/292 191/271
f 191/271 180/247 192/270
f 194/695 187/693 190/697
f 191/271 216/284 183/259
f 171/228 172/219 181/238
f 188/692 187/693 186/688
f 172/219 183/259 184/249
f 172/219 180/247 183/259
f 196/335 94/345 198/322
f 198/322 182/273 196/335
f 182/684 185/690 186/688
f 185/262 182/273 181/238
f 197/679 196/681 182/684
f 94/345 95/336 198/322
f 198/322 95/336 164/314
f 87/683 196/681 161/675
f 182/273 198/322 164/314
f 70/61 114/45 66/35
f 164/314 95/336 580/346
f 182/273 164/314 584/304
f 583/272 182/273 585/294
f 179/258 192/270 180/247
f 579/248 181/238 582/260
f 174/237 180/247 172/219
f 168/200 167/196 22/201
f 173/218 174/237 172/219
f 169/226 170/257 174/237
f 171/228 166/206 172/219
f 2/246 170/257 169/226
f 2/246 1/269 170/257
f 165/212 172/219 166/206
f 173/218 168/200 177/211
f 171/228 176/239 166/206
f 166/206 176/239 577/240
f 115/31 92/27 76/20
f 126/44 71/36 127/46
f 69/862 163/864 162/859
f 70/903 124/904 163/905
f 69/906 70/903 163/905
f 162/63 163/80 124/70
f 124/70 125/54 162/63
f 44/33 103/55 80/49
f 124/70 70/61 101/79
f 159/524 160/515 152/527
f 158/533 152/527 60/521
f 643/536 152/527 653/545
f 158/533 155/541 152/527
f 157/551 152/527 155/541
f 57/549 156/539 42/531
f 155/541 156/539 157/551
f 156/539 155/541 158/533
f 156/772 57/769 16/767
f 60/521 42/531 156/539
f 62/647 17/636 57/650
f 57/549 42/531 41/548
f 103/55 44/33 107/64
f 140/623 141/622 143/626
f 141/622 137/625 154/631
f 154/631 143/626 141/622
f 62/647 64/642 17/636
f 17/636 137/625 145/641
f 17/762 153/758 16/767
f 17/762 145/759 153/758
f 60/521 152/527 160/515
f 656/761 146/757 657/765
f 16/767 153/758 658/766
f 106/97 33/83 142/110
f 142/110 33/83 136/123
f 140/623 147/627 130/620
f 151/630 138/621 648/629
f 662/760 139/756 663/763
f 34/96 150/129 149/130
f 130/620 131/639 646/634
f 138/621 151/630 137/625
f 128/796 136/795 129/797
f 141/622 140/623 130/620
f 103/55 112/98 111/84
f 133/646 135/652 652/655
f 129/122 148/109 34/96
f 128/645 135/652 132/648
f 142/110 147/124 106/97
f 137/625 141/622 138/621
f 137/625 139/635 145/641
f 143/626 121/637 108/632
f 139/756 153/758 145/759
f 106/97 147/124 140/121
f 139/756 151/770 661/768
f 128/796 134/793 136/795
f 649/624 130/620 665/628
f 128/645 131/639 134/633
f 136/123 148/109 129/122
f 133/646 131/639 132/648
f 130/620 134/633 131/639
f 133/646 132/648 135/652
f 129/797 135/798 128/796
f 70/903 69/906 114/907
f 76/20 127/46 71/36
f 104/861 114/863 69/862
f 65/574 111/584 112/585
f 86/111 50/99 82/126
f 161/107 101/79 89/78
f 124/70 68/62 125/54
f 125/54 49/39 162/63
f 122/71 238/81 103/55
f 140/121 108/95 106/97
f 108/632 140/623 143/626
f 51/72 119/101 90/112
f 120/86 119/101 51/72
f 119/893 120/889 116/892
f 120/889 117/891 116/892
f 85/131 86/111 82/126
f 92/27 115/31 104/37
f 30/100 32/87 45/56
f 68/898 99/899 100/900
f 117/901 52/902 68/898
f 90/112 50/99 51/72
f 88/60 95/91 94/106
f 43/73 93/102 35/115
f 32/87 43/73 45/56
f 83/136 97/142 96/143
f 32/87 28/113 29/125
f 35/115 109/116 43/73
f 108/95 121/82 107/64
f 107/64 33/83 106/97
f 103/55 107/64 122/71
f 108/95 107/64 106/97
f 105/868 144/870 37/871
f 102/580 111/584 65/574
f 38/65 107/64 44/33
f 77/23 118/38 72/47
f 92/27 104/37 49/39
f 45/56 44/33 74/50
f 79/52 80/49 103/55
f 78/576 102/580 65/574
f 103/55 111/84 102/67
f 102/67 113/58 79/52
f 54/538 55/557 41/548
f 80/49 79/52 81/40
f 72/47 73/41 77/23
f 44/33 77/23 73/41
f 44/33 80/49 81/40
f 115/31 76/20 71/36
f 74/50 73/41 72/47
f 66/35 114/45 71/36
f 52/48 49/39 125/54
f 68/62 124/70 101/79
f 67/53 66/35 590/43
f 92/27 49/39 48/32
f 77/23 270/18 76/20
f 76/20 92/27 77/23
f 88/60 89/78 70/61
f 70/61 66/35 88/60
f 119/395 91/390 90/389
f 45/56 74/50 52/48
f 74/50 72/47 52/48
f 87/92 89/78 88/60
f 82/126 50/99 84/127
f 27/85 50/99 86/111
f 85/131 82/126 83/136
f 50/99 90/112 84/127
f 84/127 83/136 82/126
f 77/23 92/27 48/32
f 46/568 65/574 47/571
f 33/83 38/65 34/96
f 45/56 27/85 30/100
f 27/85 28/113 30/100
f 28/113 27/85 29/125
f 83/136 84/127 97/142
f 109/116 105/103 43/73
f 55/557 40/567 46/568
f 63/572 61/563 47/571
f 61/563 46/568 47/571
f 46/568 78/576 65/574
f 63/638 47/644 143/626
f 154/631 64/642 63/638
f 63/572 62/564 61/563
f 61/563 62/564 41/548
f 61/563 41/548 55/557
f 58/526 54/538 42/531
f 42/531 60/521 58/526
f 60/521 59/518 58/526
f 54/538 41/548 42/531
f 40/567 39/570 46/568
f 40/567 55/557 53/550
f 40/567 250/565 39/570
f 55/557 54/538 53/550
f 27/85 51/72 50/99
f 18/252 20/234 19/268
f 11/705 13/706 12/707
f 5/214 7/224 14/216
f 21/193 9/197 10/194
f 441/434 411/435 403/436
f 592/713 434/716 593/718
f 434/716 423/719 594/722
f 429/452 431/450 402/440
f 11/705 12/707 26/708
f 429/710 12/707 13/706
f 403/436 425/443 433/448
f 596/659 252/660 597/661
f 417/729 438/720 401/725
f 597/453 431/450 600/457
f 440/663 251/662 596/659
f 400/289 401/298 426/310
f 428/723 401/725 438/720
f 441/434 403/436 251/437
f 414/233 413/223 15/209
f 439/714 436/709 435/711
f 402/440 252/445 251/437
f 25/266 438/278 419/245
f 432/717 438/720 25/712
f 429/452 402/440 432/449
f 425/728 428/723 433/726
f 439/714 423/719 436/709
f 26/254 419/245 15/209
f 439/714 435/711 26/708
f 423/719 434/716 436/709
f 423/253 439/277 26/254
f 26/708 435/711 11/705
f 12/707 25/712 26/708
f 438/720 432/717 428/723
f 403/436 433/448 430/444
f 429/710 25/712 12/707
f 26/254 25/266 419/245
f 429/452 13/456 431/450
f 432/449 430/444 433/448
f 607/943 13/944 608/945
f 5/214 14/216 20/234
f 432/449 402/440 430/444
f 432/717 25/712 429/710
f 418/267 400/289 421/288
f 412/255 419/245 418/267
f 13/706 436/709 592/713
f 594/722 437/724 606/727
f 13/706 11/705 436/709
f 11/705 435/711 436/709
f 15/209 423/253 26/254
f 609/287 423/253 610/276
f 401/725 428/723 425/728
f 427/588 401/589 425/590
f 427/588 426/592 401/589
f 403/436 409/439 425/443
f 10/194 9/197 611/202
f 167/196 168/200 21/193
f 611/877 21/878 614/879
f 6/207 22/201 404/192
f 21/193 404/192 167/196
f 424/195 10/194 615/198
f 614/213 166/206 619/220
f 23/217 246/236 169/226
f 22/201 167/196 404/192
f 2/246 169/226 246/236
f 169/226 175/227 177/211
f 169/226 177/211 23/217
f 22/201 177/211 168/200
f 23/217 177/211 22/201
f 340/251 178/256 246/236
f 23/217 22/201 407/221
f 408/230 340/251 246/236
f 246/236 23/217 407/221
f 408/230 246/236 407/221
f 407/221 22/201 5/214
f 6/207 8/205 5/214
f 5/214 415/241 408/230
f 424/195 404/192 10/194
f 405/199 424/195 616/203
f 8/205 6/207 404/192
f 405/199 8/205 404/192
f 422/215 405/199 620/210
f 5/214 8/205 7/224
f 15/209 8/205 405/199
f 15/209 405/199 422/215
f 15/209 413/223 14/216
f 24/222 422/215 622/232
f 15/209 422/215 24/222
f 423/253 15/209 625/242
f 20/234 415/241 5/214
f 408/230 415/241 18/252
f 415/241 20/234 18/252
f 14/216 413/223 20/234
f 412/255 418/267 19/268
f 421/288 19/268 418/267
f 20/234 414/233 412/255
f 421/288 395/295 19/268
f 395/295 420/275 19/268
f 418/267 419/245 417/279
f 414/233 419/245 412/255
f 417/279 401/298 400/289
f 400/289 418/267 417/279
f 438/278 417/279 419/245
f 15/209 24/222 624/231
f 419/245 414/233 15/209
f 238/81 236/108 237/94
f 47/571 236/577 238/581
f 225/477 195/475 3/479
f 224/482 3/479 195/475
f 6/207 5/214 22/201
f 87/92 161/107 89/78
f 574/69 67/53 627/76
f 52/48 120/86 51/72
f 99/678 161/675 100/677
f 98/114 32/87 29/125
f 49/39 52/48 48/32
f 32/87 30/100 28/113
f 34/96 37/88 123/117
f 181/238 172/219 184/249
f 190/697 187/693 188/692
f 185/480 215/474 188/478
f 180/247 174/237 179/258
f 186/688 197/679 182/684
f 204/384 84/386 207/381
f 229/424 233/412 220/420
f 203/388 110/391 97/392
f 200/394 199/396 110/391
f 149/799 135/798 129/797
f 240/805 241/806 242/802
f 116/393 91/390 119/395
f 233/940 234/941 231/942
f 229/424 234/428 233/412
f 3/479 230/481 225/477
f 221/700 225/703 220/702
f 90/389 91/390 207/381
f 161/675 196/681 197/679
f 84/386 90/389 207/381
f 104/861 69/862 162/859
f 117/901 68/898 100/900
f 91/390 116/393 212/387
f 214/685 197/679 186/688
f 84/386 203/388 97/392
f 208/780 206/779 204/783
f 190/476 188/478 215/474
f 174/237 170/257 179/258
f 180/247 191/271 183/259
f 216/284 215/274 183/259
f 186/688 185/690 188/692
f 196/681 87/683 94/687
f 197/679 213/682 210/676
f 161/675 197/679 210/676
f 165/212 173/218 172/219
f 83/136 31/133 85/131
f 659/774 156/772 670/773
f 158/533 60/521 156/539
f 57/769 17/762 16/767
f 137/625 17/636 154/631
f 156/772 16/767 660/771
f 142/792 136/795 134/793
f 149/130 129/122 34/96
f 128/645 132/648 131/639
f 34/96 148/109 33/83
f 147/627 134/633 130/620
f 33/83 148/109 136/123
f 67/53 88/60 66/35
f 115/31 114/45 104/37
f 103/55 102/67 79/52
f 105/103 37/88 43/73
f 101/79 99/93 68/62
f 48/32 118/38 77/23
f 44/33 45/56 38/65
f 94/106 87/92 88/60
f 86/111 85/131 29/125
f 86/111 29/125 27/85
f 93/102 98/114 35/115
f 85/131 31/133 29/125
f 244/137 36/132 98/114
f 37/88 34/96 38/65
f 43/73 37/88 38/65
f 72/47 48/32 52/48
f 27/85 45/56 51/72
f 44/33 73/41 74/50
f 66/35 75/19 589/29
f 66/35 71/36 126/44
f 45/56 43/73 38/65
f 98/114 36/132 35/115
f 63/638 64/642 62/647
f 62/564 57/549 41/548
f 54/919 56/920 53/921
f 39/570 78/576 46/568
f 411/435 410/442 409/439
f 431/450 252/445 402/440
f 409/439 403/436 411/435
f 425/443 409/439 410/442
f 403/436 402/440 251/437
f 403/436 430/444 402/440
f 433/726 428/723 432/717
f 410/591 427/588 425/590
f 166/206 21/193 168/200
f 168/200 165/212 166/206
f 177/211 175/227 173/218
f 408/230 406/263 340/251
f 18/252 416/264 408/230
f 18/252 19/268 420/275
f 14/216 7/224 8/205
f 404/192 424/195 405/199
f 407/221 5/214 408/230
f 416/264 406/263 408/230
f 14/216 8/205 15/209
f 413/223 414/233 20/234
f 19/268 20/234 412/255
f 215/474 189/471 190/476
f 399/733 398/734 629/735
f 420/275 395/295 394/306
f 199/396 356/398 110/391
f 389/405 363/415 288/406
f 305/170 293/159 298/158
f 96/143 290/157 282/150
f 300/164 306/169 299/165
f 36/132 308/144 304/151
f 292/135 303/145 313/153
f 316/172 318/177 317/154
f 123/808 314/810 150/814
f 389/405 362/399 354/401
f 329/301 337/329 380/318
f 357/496 372/501 352/499
f 361/319 366/332 235/313
f 235/313 227/283 359/302
f 355/404 365/411 344/417
f 379/317 380/318 337/329
f 380/318 379/317 332/342
f 330/312 331/330 385/341
f 385/341 384/333 330/312
f 379/317 335/299 390/328
f 388/922 248/923 249/924
f 249/924 247/925 388/922
f 369/510 368/508 378/506
f 376/504 378/506 368/508
f 384/333 386/355 375/344
f 382/363 386/355 384/333
f 385/341 383/354 384/333
f 384/333 383/354 382/363
f 387/511 377/509 386/512
f 389/405 354/401 349/409
f 378/506 374/507 377/509
f 377/364 375/344 386/355
f 384/333 360/320 330/312
f 324/807 301/812 391/809
f 247/929 248/931 388/932
f 315/813 391/809 301/812
f 321/183 371/187 327/179
f 371/187 321/183 671/189
f 300/164 299/165 302/152
f 325/881 371/882 318/883
f 324/807 391/809 240/805
f 371/187 325/184 327/179
f 324/807 240/805 239/804
f 315/813 301/812 295/816
f 292/135 296/140 291/128
f 304/151 308/144 282/150
f 363/415 389/405 368/414
f 363/415 369/421 370/423
f 347/497 351/500 348/502
f 242/802 239/804 240/805
f 344/417 347/413 355/404
f 349/505 376/504 368/508
f 370/423 369/421 381/429
f 369/421 363/415 368/414
f 332/342 331/330 380/318
f 337/329 336/311 379/317
f 352/499 374/507 378/506
f 374/356 375/344 377/364
f 348/502 351/500 350/503
f 349/505 348/502 350/503
f 376/504 350/503 352/499
f 373/334 360/320 375/344
f 352/362 373/334 374/356
f 359/302 245/282 330/312
f 329/301 330/312 245/282
f 245/282 339/281 329/301
f 366/489 361/493 343/491
f 358/331 357/343 361/319
f 330/312 360/320 359/302
f 352/499 353/498 357/496
f 359/302 358/331 361/319
f 347/413 348/408 355/404
f 354/401 356/398 355/404
f 357/496 343/491 361/493
f 351/500 353/498 352/499
f 365/495 342/490 344/494
f 339/281 2/246 338/280
f 366/489 343/491 342/490
f 365/411 202/403 233/412
f 366/332 367/321 235/313
f 367/487 366/489 231/483
f 233/492 231/483 342/490
f 342/490 343/491 344/494
f 309/419 364/410 363/415
f 356/398 201/400 202/403
f 362/399 290/397 110/391
f 348/408 349/409 354/401
f 356/398 202/403 355/404
f 355/404 348/408 354/401
f 356/398 199/396 201/400
f 288/406 289/402 362/399
f 330/312 380/318 331/330
f 329/301 380/318 330/312
f 339/281 245/282 170/257
f 338/280 329/301 341/300
f 339/281 341/300 329/301
f 338/280 341/300 339/281
f 1/865 2/866 339/867
f 339/281 170/257 1/269
f 317/154 297/146 292/135
f 316/172 328/166 322/176
f 675/167 318/177 676/180
f 320/178 322/176 326/171
f 316/172 327/179 325/184
f 319/161 317/154 675/167
f 678/141 150/129 679/148
f 316/172 317/154 328/166
f 123/117 150/129 34/96
f 294/815 312/818 319/817
f 317/154 312/160 297/146
f 317/154 319/161 312/160
f 150/814 314/810 294/815
f 321/183 327/179 322/176
f 316/172 322/176 327/179
f 293/159 328/166 317/154
f 321/183 320/178 680/186
f 322/176 328/166 326/171
f 316/884 325/881 318/883
f 674/885 371/882 683/886
f 294/815 319/817 150/814
f 315/813 294/815 314/810
f 304/151 300/164 302/152
f 324/841 239/837 291/840
f 297/146 312/160 295/155
f 281/168 307/173 287/163
f 307/422 285/425 283/431
f 305/170 306/169 286/174
f 303/145 280/139 302/152
f 295/155 301/147 296/140
f 303/145 298/158 313/153
f 302/152 299/165 298/158
f 292/135 291/128 109/116
f 279/134 109/116 35/115
f 109/116 279/134 323/138
f 291/128 105/103 109/116
f 297/146 296/140 292/135
f 296/140 297/146 295/155
f 305/170 298/158 306/169
f 311/182 286/174 283/181
f 310/175 286/174 311/182
f 307/422 281/416 309/419
f 309/419 285/425 307/422
f 282/150 308/144 244/137
f 290/157 289/162 282/150
f 35/115 36/132 279/134
f 287/163 304/151 282/150
f 97/392 110/391 290/397
f 300/164 287/163 286/174
f 307/173 286/174 287/163
f 283/431 285/425 284/430
f 283/181 286/174 307/173
f 282/150 281/168 287/163
f 36/132 280/139 279/134
f 280/139 323/138 279/134
f 499/596 500/597 501/595
f 501/595 509/593 499/596
f 518/455 517/463 512/460
f 493/470 507/466 502/468
f 493/605 492/607 490/602
f 333/352 331/330 332/342
f 336/311 329/301 338/280
f 227/283 245/282 359/302
f 468/747 524/744 521/738
f 511/464 515/467 507/466
f 523/748 524/744 468/747
f 399/733 449/742 519/739
f 396/451 518/455 516/446
f 513/829 520/830 398/831
f 491/600 490/602 510/599
f 521/738 399/733 630/736
f 444/366 485/357 477/338
f 379/317 333/352 332/342
f 333/352 483/360 345/348
f 525/908 448/909 451/910
f 519/739 449/742 525/745
f 451/910 517/911 525/908
f 517/463 450/465 511/464
f 525/462 518/455 519/459
f 396/451 514/454 397/458
f 517/463 518/455 525/462
f 511/464 512/460 517/463
f 450/912 517/911 451/910
f 399/733 521/738 452/741
f 524/744 452/741 521/738
f 632/750 522/743 633/746
f 452/741 524/744 523/748
f 468/747 467/752 523/748
f 522/743 521/738 631/740
f 522/743 468/747 521/738
f 399/733 519/739 397/737
f 397/737 398/734 399/733
f 440/663 513/665 251/662
f 629/833 520/830 636/835
f 513/829 398/831 397/832
f 441/434 514/454 396/451
f 514/834 513/829 397/832
f 440/663 520/667 513/665
f 516/446 497/441 441/434
f 441/668 251/662 513/665
f 516/446 518/455 512/460
f 494/819 495/820 512/821
f 441/434 396/451 516/446
f 493/605 502/610 503/608
f 503/608 502/610 486/613
f 492/607 505/609 488/612
f 512/460 511/464 507/466
f 495/820 506/823 496/826
f 507/822 494/819 512/821
f 516/824 512/821 495/820
f 497/827 516/824 495/820
f 410/442 411/435 508/438
f 491/600 506/603 490/602
f 503/608 505/609 492/607
f 486/469 502/468 515/467
f 441/434 497/441 508/438
f 497/441 498/447 508/438
f 638/670 440/663 639/673
f 514/671 441/668 513/665
f 340/251 416/264 481/285
f 500/327 510/340 462/315
f 491/600 510/599 498/598
f 400/289 426/310 462/315
f 510/599 500/597 499/596
f 501/595 426/592 509/593
f 508/438 411/435 441/434
f 508/594 509/593 410/591
f 509/593 426/592 427/588
f 461/339 462/315 469/349
f 496/826 497/827 495/820
f 495/820 494/819 506/823
f 506/603 493/605 490/602
f 506/603 491/600 496/601
f 494/819 493/825 506/823
f 426/592 501/595 500/597
f 509/593 508/594 499/596
f 462/315 426/310 500/327
f 498/828 497/827 496/826
f 494/819 507/822 493/825
f 502/468 507/466 515/467
f 505/609 489/611 488/612
f 475/615 487/614 503/608
f 489/611 487/614 474/616
f 473/373 489/376 474/379
f 489/611 505/609 503/608
f 490/617 492/618 488/619
f 490/380 488/378 471/358
f 489/376 471/358 488/378
f 492/607 493/605 503/608
f 504/604 490/602 471/606
f 484/359 470/350 456/368
f 457/372 472/370 473/373
f 457/372 456/368 476/367
f 476/367 472/370 457/372
f 470/350 484/359 477/338
f 470/350 476/367 456/368
f 456/368 444/366 484/359
f 485/357 444/366 346/365
f 379/317 483/360 333/352
f 379/317 345/348 483/360
f 481/285 480/305 335/299
f 477/338 484/359 444/366
f 2/246 178/256 340/251
f 340/251 406/263 416/264
f 340/251 338/280 2/246
f 480/305 464/307 479/325
f 338/280 334/290 335/299
f 379/317 336/311 335/299
f 335/299 336/311 338/280
f 345/348 379/317 482/324
f 379/317 390/328 482/324
f 482/324 480/305 479/325
f 335/299 334/290 481/285
f 340/251 334/290 338/280
f 340/251 481/285 334/290
f 478/286 480/305 481/285
f 481/285 416/264 478/286
f 480/305 478/286 464/307
f 479/325 477/338 345/348
f 345/348 477/338 485/357
f 420/275 460/316 464/307
f 416/264 18/252 420/275
f 479/325 464/307 477/338
f 460/316 461/339 470/350
f 420/275 394/306 462/315
f 420/275 466/296 478/286
f 464/307 465/326 477/338
f 477/338 460/316 470/350
f 464/307 478/286 466/296
f 462/315 510/340 504/351
f 469/349 471/358 476/367
f 461/339 460/316 462/315
f 421/288 463/309 395/295
f 469/349 462/315 471/358
f 312/818 294/815 295/816
f 357/496 353/498 347/497
f 387/511 369/510 378/506
f 389/405 288/406 362/399
f 323/138 280/139 109/116
f 364/410 309/419 281/416
f 317/154 292/135 293/159
f 359/302 361/319 235/313
f 202/403 365/411 355/404
f 282/150 289/162 281/168
f 150/129 319/161 677/156
f 309/419 363/415 370/423
f 359/302 373/334 358/331
f 377/509 387/511 378/506
f 347/497 344/494 343/491
f 349/505 350/503 376/504
f 281/416 289/402 364/410
f 378/506 376/504 352/499
f 384/333 375/344 360/320
f 301/842 324/841 291/840
f 240/805 391/809 315/813
f 298/158 303/145 302/152
f 362/399 289/402 290/397
f 105/839 291/840 239/837
f 354/401 362/399 110/391
f 349/409 368/414 389/405
f 357/343 358/331 372/353
f 357/496 347/497 343/491
f 359/302 360/320 373/334
f 375/344 374/356 373/334
f 352/362 372/353 373/334
f 342/490 231/483 366/489
f 4/303 235/313 367/321
f 373/334 372/353 358/331
f 352/499 350/503 351/500
f 353/498 351/500 347/497
f 342/490 365/495 233/492
f 3/479 4/485 367/487
f 367/487 231/483 3/479
f 329/301 336/311 337/329
f 320/178 321/183 322/176
f 326/171 328/166 293/159
f 314/810 240/805 315/813
f 301/147 291/128 296/140
f 123/808 240/805 314/810
f 244/137 308/144 36/132
f 363/415 364/410 288/406
f 298/158 299/165 306/169
f 286/174 306/169 300/164
f 287/163 300/164 304/151
f 36/132 304/151 280/139
f 294/815 315/813 295/816
f 292/135 313/153 293/159
f 280/139 303/145 292/135
f 280/139 292/135 109/116
f 293/159 313/153 298/158
f 282/150 244/137 96/143
f 289/402 288/406 364/410
f 290/157 96/143 97/142
f 302/152 280/139 304/151
f 478/286 416/264 420/275
f 498/598 499/596 508/594
f 503/608 486/613 475/615
f 456/368 455/374 444/366
f 476/367 470/350 469/349
f 400/289 463/309 421/288
f 518/455 396/451 519/459
f 467/752 468/747 447/754
f 397/458 519/459 396/451
f 498/598 496/601 491/600
f 503/608 487/614 489/611
f 504/604 510/599 490/602
f 471/358 462/315 504/351
f 510/599 499/596 498/598
f 427/588 410/591 509/593
f 395/295 463/309 394/306
f 420/275 462/315 460/316
f 489/376 473/373 471/358
f 473/373 472/370 471/358
f 471/358 472/370 476/367
f 461/339 469/349 470/350
f 346/365 444/366 442/371
f 345/348 346/365 333/352
f 453/369 333/352 346/365
f 335/299 482/324 390/328
f 485/357 346/365 345/348
f 464/307 466/296 420/275
f 482/324 479/325 345/348
f 480/305 482/324 335/299
f 460/316 465/326 464/307
f 462/315 394/306 463/309
f 477/338 465/326 460/316
f 462/315 463/309 400/289
f 356/398 354/401 110/391
f 310/175 305/170 286/174
f 369/510 387/511 393/513
f 331/330 333/352 392/361
f 333/352 453/369 392/361
f 370/423 446/426 309/419
f 381/429 369/421 393/433
f 459/895 370/896 381/897
f 283/946 458/947 311/948
f 284/430 285/425 309/419
f 293/159 305/170 310/175
f 449/742 399/733 452/741
f 448/749 525/745 449/742
f 447/754 468/747 635/753
f 474/616 487/614 475/615
f 454/377 444/366 455/374
f 443/375 444/366 454/377
f 445/432 309/419 446/426
f 284/430 309/419 445/432
f 442/371 444/366 443/375
f 526/516 160/515 255/519
f 527/517 259/514 526/516
f 528/566 272/559 256/544
f 529/561 256/544 530/554
f 530/554 256/544 258/535
f 531/525 260/522 259/514
f 532/543 258/535 531/525
f 533/3 277/2 278/6
f 534/4 268/1 533/3
f 535/10 257/7 534/4
f 536/21 270/18 274/24
f 537/16 269/11 536/21
f 538/66 275/34 113/58
f 539/75 113/58 548/90
f 541/547 255/519 540/537
f 542/520 259/514 527/517
f 543/936 255/937 541/938
f 544/939 255/937 543/936
f 545/586 276/583 547/582
f 546/89 276/74 545/104
f 547/582 276/583 78/576
f 548/90 113/58 546/89
f 549/57 275/34 538/66
f 550/51 275/34 549/57
f 551/579 78/576 271/569
f 552/848 266/845 553/846
f 553/846 266/845 278/844
f 554/913 278/916 277/914
f 555/915 277/914 257/917
f 556/13 257/7 535/10
f 557/9 278/6 562/12
f 558/28 274/24 275/34
f 569/849 552/848 641/850
f 559/578 271/569 564/575
f 560/552 258/535 532/543
f 561/949 258/950 560/951
f 562/12 278/6 537/16
f 563/42 275/34 550/51
f 564/575 271/569 565/573
f 565/573 271/569 528/566
f 566/952 258/950 561/949
f 567/953 258/950 566/952
f 568/523 255/519 544/529
f 569/849 266/845 552/848
f 570/26 266/14 569/30
f 571/22 266/14 570/26
f 572/25 75/19 571/22
f 573/77 88/60 574/69
f 574/69 88/60 67/53
f 575/105 95/91 573/77
f 576/250 171/228 578/261
f 577/240 176/239 576/250
f 578/261 171/228 579/248
f 579/248 171/228 181/238
f 580/118 95/91 575/105
f 581/347 164/314 580/346
f 582/260 181/238 583/272
f 583/272 181/238 182/273
f 584/304 164/314 586/323
f 585/294 182/273 584/304
f 586/323 164/314 588/337
f 587/229 166/206 577/240
f 588/337 164/314 581/347
f 589/29 75/19 572/25
f 590/43 66/35 589/29
f 591/59 67/53 590/43
f 592/713 436/709 434/716
f 593/718 434/716 595/721
f 594/722 423/719 437/724
f 595/721 434/716 594/722
f 596/659 251/662 252/660
f 597/453 252/445 431/450
f 598/666 440/663 599/664
f 599/664 440/663 596/659
f 600/457 431/450 607/461
f 601/669 440/663 598/666
f 602/672 440/663 601/669
f 603/730 437/724 604/731
f 604/731 437/724 605/732
f 605/308 437/297 609/287
f 606/727 437/724 603/730
f 607/461 431/450 13/456
f 608/715 13/706 592/713
f 609/287 437/297 423/253
f 610/276 423/253 626/265
f 611/877 9/880 21/878
f 612/208 10/194 611/202
f 613/204 10/194 612/208
f 614/213 21/193 166/206
f 615/198 10/194 613/204
f 616/203 424/195 615/198
f 617/235 422/215 621/225
f 618/244 422/215 617/235
f 619/220 166/206 587/229
f 620/210 405/199 616/203
f 621/225 422/215 620/210
f 622/232 422/215 618/244
f 623/243 24/222 622/232
f 624/231 24/222 623/243
f 625/242 15/209 624/231
f 626/265 423/253 625/242
f 627/76 67/53 628/68
f 628/68 67/53 591/59
f 629/833 398/831 520/830
f 630/736 399/733 629/735
f 631/740 521/738 630/736
f 632/750 468/747 522/743
f 633/746 522/743 631/740
f 634/751 468/747 632/750
f 635/753 468/747 634/751
f 636/835 520/830 637/836
f 637/674 520/667 638/670
f 638/670 520/667 440/663
f 639/673 440/663 602/672
f 640/755 447/754 635/753
f 642/530 255/519 159/524
f 643/536 159/524 152/527
f 644/777 157/775 654/776
f 645/562 152/527 644/558
f 646/634 131/639 133/646
f 647/649 133/646 668/653
f 648/629 138/621 649/624
f 649/624 138/621 130/620
f 650/800 135/798 149/799
f 651/149 149/130 678/141
f 652/655 135/652 650/658
f 653/545 152/527 655/555
f 654/776 157/775 659/774
f 655/555 152/527 645/562
f 656/761 153/758 146/757
f 657/765 146/757 664/764
f 658/766 153/758 656/761
f 659/774 157/775 156/772
f 660/771 16/767 658/766
f 661/640 151/630 648/629
f 662/760 146/757 139/756
f 663/763 139/756 661/768
f 664/764 146/757 662/760
f 665/628 130/620 646/634
f 666/656 133/646 667/657
f 667/657 133/646 652/655
f 668/653 133/646 669/654
f 669/654 133/646 666/656
f 670/773 156/772 660/771
f 671/189 321/183 682/190
f 672/191 371/187 671/189
f 673/887 318/883 674/885
f 674/885 318/883 371/882
f 675/167 317/154 318/177
f 676/180 318/177 673/185
f 677/156 319/161 675/167
f 678/141 149/130 150/129
f 679/148 150/129 677/156
f 681/188 321/183 680/186
f 682/190 321/183 681/188
f 683/886 371/882 672/888
f 684/546 540/537 642/530
f 685/556 540/537 684/546
usemtl Tile_+031_+021_L19_000133_untextured
