mtllib Tile_+038_+019_L19_000111.mtl
v 7.97124309e+03 4.50829043e+03 1.94735133e+01
v 7.97299266e+03 4.51076304e+03 1.78960380e+01
v 7.96854339e+03 4.50973708e+03 1.75147232e+01
v 7.97357165e+03 4.51250785e+03 1.96192521e+01
v 7.97338443e+03 4.51162214e+03 1.92980277e+01
v 7.97016934e+03 4.50842115e+03 1.74496406e+01
v 7.97061091e+03 4.50705905e+03 1.79136902e+01
v 7.97315918e+03 4.51265472e+03 1.81648327e+01
v 7.96880281e+03 4.50448614e+03 1.80675526e+01
v 7.97990684e+03 4.50824570e+03 2.13582038e+01
v 7.98138659e+03 4.50722814e+03 1.74654960e+01
v 7.96888810e+03 4.50472831e+03 1.94354408e+01
v 7.96964635e+03 4.50373149e+03 1.77446376e+01
v 7.96912446e+03 4.50513524e+03 1.74565209e+01
v 7.96919929e+03 4.50663427e+03 1.74467837e+01
v 7.97702313e+03 4.50240915e+03 1.75328143e+01
v 7.97829074e+03 4.50366315e+03 1.74930590e+01
v 7.99901974e+03 4.51341518e+03 1.24074287e+01
v 7.99929309e+03 4.51378469e+03 1.05102689e+01
v 8.00000000e+03 4.50979917e+03 1.74015375e+01
v 7.99712038e+03 4.51014835e+03 1.73467662e+01
v 7.97452661e+03 4.50441528e+03 1.78239060e+01
v 7.97714922e+03 4.50688384e+03 1.74931637e+01
v 7.97090537e+03 4.50274037e+03 1.75449433e+01
v 7.98740537e+03 4.50319501e+03 1.74246551e+01
v 7.98486613e+03 4.50481963e+03 1.74508067e+01
v 7.98352787e+03 4.50572415e+03 1.80334954e+01
v 7.99928357e+03 4.51330121e+03 8.24587991e+00
v 7.98275326e+03 4.50474786e+03 1.74420298e+01
v 7.98297251e+03 4.50598136e+03 1.96322986e+01
v 7.98293850e+03 4.50608061e+03 2.11016022e+01
v 7.97610373e+03 4.50671327e+03 1.77873646e+01
v 7.97396161e+03 4.50289476e+03 1.75473862e+01
v 8.00000000e+03 4.51247678e+03 1.04404199e+01
v 7.99966958e+03 4.51215126e+03 8.49065637e+00
v 8.00000000e+03 4.51293086e+03 8.02613495e+00
v 8.00000000e+03 4.51192118e+03 8.25846561e+00
v 7.98388192e+03 4.50568741e+03 1.90548708e+01
v 7.99426777e+03 4.51204649e+03 1.72621680e+01
v 7.99611745e+03 4.51381829e+03 1.72628494e+01
v 8.00000000e+03 4.51171910e+03 1.74459935e+01
v 7.99952496e+03 4.50865129e+03 2.05709603e+01
v 7.97807235e+03 4.50941931e+03 1.99154244e+01
v 7.97746768e+03 4.50899849e+03 1.80344647e+01
v 7.97225071e+03 4.51180096e+03 1.73932736e+01
v 7.97368756e+03 4.51404921e+03 1.72530751e+01
v 8.00000000e+03 4.51282262e+03 1.34120648e+01
v 8.00000000e+03 4.51257499e+03 1.47798064e+01
v 7.99834814e+03 4.51355160e+03 8.36939947e+00
v 7.96938578e+03 4.50281878e+03 1.77557773e+01
v 7.99227273e+03 4.50478907e+03 2.16209472e+01
v 7.99134375e+03 4.50427208e+03 2.12269766e+01
v 7.98598133e+03 4.50407038e+03 2.14612371e+01
v 7.99400279e+03 4.51220609e+03 2.13232539e+01
v 7.99703958e+03 4.51020255e+03 1.96204029e+01
v 7.99664864e+03 4.51041463e+03 2.13695187e+01
v 7.99797891e+03 4.50825449e+03 2.11811101e+01
v 8.00000000e+03 4.50581744e+03 2.15865256e+01
v 7.99742190e+03 4.51025627e+03 2.07099995e+01
v 7.99827328e+03 4.50926674e+03 2.13346994e+01
v 8.00000000e+03 4.50821278e+03 2.13490650e+01
v 7.98668652e+03 4.50461675e+03 2.11989986e+01
v 7.98588647e+03 4.50824489e+03 2.12755300e+01
v 7.99698229e+03 4.50148114e+03 2.16047498e+01
v 7.99627646e+03 4.50608782e+03 2.15794528e+01
v 7.97030440e+03 4.50339296e+03 1.96114308e+01
v 7.97758209e+03 4.50881495e+03 1.96176719e+01
v 7.97289908e+03 4.50172762e+03 1.93943427e+01
v 7.97636842e+03 4.51005933e+03 1.98533563e+01
v 7.98985575e+03 4.51334285e+03 2.13612550e+01
v 7.99362938e+03 4.51002390e+03 2.16396586e+01
v 7.98875769e+03 4.51139451e+03 2.15430685e+01
v 7.99297326e+03 4.50848486e+03 2.15178505e+01
v 7.98965039e+03 4.50960800e+03 2.16942376e+01
v 8.00000000e+03 4.50715219e+03 2.12292532e+01
v 7.97597099e+03 4.51082982e+03 2.00861493e+01
v 7.98309429e+03 4.50705510e+03 2.12083148e+01
v 7.98684119e+03 4.50855546e+03 2.16785460e+01
v 7.98927325e+03 4.50668549e+03 2.15621490e+01
v 7.97433600e+03 4.51121934e+03 1.98251381e+01
v 7.97472289e+03 4.51152360e+03 2.03709576e+01
v 7.98776719e+03 4.50298320e+03 2.15392591e+01
v 7.98542034e+03 4.50249798e+03 1.75013265e+01
v 7.98395183e+03 4.50117878e+03 1.74906488e+01
v 8.00000000e+03 4.50816297e+03 1.73381388e+01
v 7.97943728e+03 4.50254150e+03 1.75639219e+01
v 7.97780416e+03 4.50000000e+03 1.74964056e+01
v 7.98688936e+03 4.50000000e+03 1.73967584e+01
v 7.98653581e+03 4.50000000e+03 1.74373415e+01
v 7.98655111e+03 4.50137494e+03 1.75739146e+01
v 7.98937223e+03 4.50176472e+03 1.74008024e+01
v 7.98815751e+03 4.50000000e+03 1.73304975e+01
v 7.99200678e+03 4.50000000e+03 2.10153192e+01
v 7.99109119e+03 4.50071068e+03 1.97061208e+01
v 7.98996322e+03 4.50145367e+03 2.15273007e+01
v 7.97363668e+03 4.50000000e+03 1.75837387e+01
v 7.98548994e+03 4.50000000e+03 1.75695867e+01
v 7.97278230e+03 4.50177336e+03 1.76693360e+01
v 7.97208782e+03 4.50055955e+03 1.77715017e+01
v 7.97166606e+03 4.50000000e+03 1.83432826e+01
v 7.97014794e+03 4.50000000e+03 1.88481432e+01
v 7.96873963e+03 4.50083731e+03 1.77178547e+01
v 7.98525060e+03 4.50114257e+03 1.86442350e+01
v 7.97832651e+03 4.50156424e+03 1.77765157e+01
v 7.98982481e+03 4.50000000e+03 1.87047997e+01
v 7.97167385e+03 4.50000000e+03 1.78149221e+01
v 7.98407358e+03 4.50000000e+03 1.75349033e+01
v 7.99797380e+03 4.50000000e+03 2.12648811e+01
v 7.99149078e+03 4.50000000e+03 1.99055195e+01
v 7.99041259e+03 4.50000000e+03 1.93920712e+01
v 7.98995026e+03 4.50237707e+03 2.12341093e+01
v 7.99382565e+03 4.50000000e+03 2.11501480e+01
v 7.99599813e+03 4.50104681e+03 2.11324867e+01
v 7.99238916e+03 4.50000000e+03 2.14853387e+01
v 8.00000000e+03 4.50000000e+03 2.16371015e+01
v 8.00000000e+03 4.50346778e+03 2.15339362e+01
v 7.97008366e+03 4.50000000e+03 1.78266393e+01
v 7.99631405e+03 4.50000000e+03 2.13033571e+01
v 7.99918786e+03 4.53121938e+03 4.67648555e+00
v 8.00000000e+03 4.52898845e+03 2.93261107e+00
v 8.00000000e+03 4.52882939e+03 3.05027479e+00
v 8.00000000e+03 4.52804609e+03 4.82215733e+00
v 8.00000000e+03 4.52839836e+03 4.01686017e+00
v 8.00000000e+03 4.52808185e+03 3.18862781e+00
v 8.00000000e+03 4.52879702e+03 3.22698109e+00
v 7.99944171e+03 4.52900665e+03 2.85811464e+00
v 8.00000000e+03 4.52866867e+03 4.35960271e+00
v 8.00000000e+03 4.53022323e+03 5.23904453e+00
v 8.00000000e+03 4.52959509e+03 5.14461340e+00
v 8.00000000e+03 4.53037312e+03 2.67832998e+00
v 8.00000000e+03 4.52573435e+03 9.13094723e+00
v 8.00000000e+03 4.52646259e+03 8.54260180e+00
v 8.00000000e+03 4.52660087e+03 9.04985045e+00
v 8.00000000e+03 4.52621306e+03 9.43696539e+00
v 8.00000000e+03 4.52789880e+03 9.13583160e+00
v 7.99958411e+03 4.52754848e+03 9.06577941e+00
v 8.00000000e+03 4.51455173e+03 8.75087706e+00
v 8.00000000e+03 4.51426341e+03 8.63900518e+00
v 7.99978466e+03 4.51442785e+03 8.88453892e+00
v 8.00000000e+03 4.51719500e+03 8.19655100e+00
v 8.00000000e+03 4.51560580e+03 8.18766098e+00
v 7.99906527e+03 4.51573261e+03 8.26462751e+00
v 8.00000000e+03 4.51948937e+03 4.65331666e+00
v 8.00000000e+03 4.51885878e+03 4.27564778e+00
v 8.00000000e+03 4.51756519e+03 6.99663482e+00
v 8.00000000e+03 4.51756559e+03 5.15518580e+00
v 8.00000000e+03 4.51386257e+03 8.41971982e+00
v 8.00000000e+03 4.51360695e+03 8.20071020e+00
v 8.00000000e+03 4.50823243e+03 2.06477680e+01
v 8.00000000e+03 4.51264176e+03 1.19154766e+01
v 8.00000000e+03 4.51299941e+03 1.77116826e+01
v 8.00000000e+03 4.53056181e+03 1.07273673e+01
v 8.00000000e+03 4.53019801e+03 1.15591913e+01
v 8.00000000e+03 4.52851760e+03 1.05688737e+01
v 8.00000000e+03 4.52842936e+03 1.05208117e+01
v 8.00000000e+03 4.53132150e+03 9.98787667e+00
v 8.00000000e+03 4.52822408e+03 1.01888778e+01
v 7.99914162e+03 4.52769370e+03 1.03040558e+01
v 8.00000000e+03 4.52911816e+03 1.11523419e+01
v 8.00000000e+03 4.52858778e+03 1.06516324e+01
v 8.00000000e+03 4.52570110e+03 9.97192698e+00
v 8.00000000e+03 4.52559169e+03 9.35868920e+00
v 8.00000000e+03 4.52962522e+03 1.13200806e+01
v 8.00000000e+03 4.52929266e+03 1.11868755e+01
v 8.00000000e+03 4.52925286e+03 2.70009316e+00
v 8.00000000e+03 4.52687509e+03 7.09904686e+00
v 8.00000000e+03 4.52698994e+03 6.39452209e+00
v 8.00000000e+03 4.52687930e+03 7.21574991e+00
v 8.00000000e+03 4.52705328e+03 2.69802355e+00
v 8.00000000e+03 4.51843225e+03 4.22164431e+00
v 8.00000000e+03 4.51805210e+03 4.30460597e+00
v 8.00000000e+03 4.52476140e+03 2.90596769e+00
v 8.00000000e+03 4.52027860e+03 2.62195554e+00
v 7.99860695e+03 4.52604524e+03 3.03632955e+00
v 8.00000000e+03 4.51793858e+03 4.38522741e+00
v 8.00000000e+03 4.51975990e+03 3.01903260e+00
v 7.96861615e+03 4.52867264e+03 1.77483115e+01
v 7.96952704e+03 4.52670600e+03 1.73279794e+01
v 7.97023709e+03 4.52446796e+03 1.72119377e+01
v 7.96922383e+03 4.52832525e+03 1.86134413e+01
v 7.96898251e+03 4.52916176e+03 1.86812987e+01
v 7.97016534e+03 4.52788568e+03 1.74048455e+01
v 7.96923116e+03 4.52970996e+03 1.77129340e+01
v 7.97050662e+03 4.53065735e+03 1.75848066e+01
v 7.97302866e+03 4.52818411e+03 1.72196417e+01
v 7.97077933e+03 4.52785648e+03 1.73137121e+01
v 7.96937850e+03 4.53034811e+03 1.70198341e+01
v 7.97031031e+03 4.52780995e+03 1.85516768e+01
v 7.97094556e+03 4.52749407e+03 1.76455081e+01
v 7.97285782e+03 4.52602755e+03 1.86240374e+01
v 7.96974773e+03 4.52857119e+03 1.74950277e+01
v 7.97173838e+03 4.52735519e+03 1.86743572e+01
v 7.97395149e+03 4.52666126e+03 1.75811939e+01
v 7.97262907e+03 4.52657550e+03 1.73798105e+01
v 7.97143174e+03 4.52634567e+03 1.73093225e+01
v 7.97353774e+03 4.52532333e+03 1.75464960e+01
v 7.97658264e+03 4.52865279e+03 1.76414343e+01
v 7.99694994e+03 4.52861008e+03 1.16521010e+01
v 7.99688548e+03 4.53020691e+03 1.07175513e+01
v 7.97979107e+03 4.52654602e+03 1.75189642e+01
v 7.97637787e+03 4.52554537e+03 1.74513869e+01
v 7.97760217e+03 4.52402285e+03 1.75187735e+01
v 7.97346005e+03 4.52587080e+03 1.74161538e+01
v 7.97516158e+03 4.52567995e+03 1.77588210e+01
v 7.97472478e+03 4.52518563e+03 1.73888049e+01
v 7.97458114e+03 4.52488830e+03 1.85812769e+01
v 7.97739455e+03 4.52697460e+03 1.73788145e+01
v 7.98135714e+03 4.52531581e+03 1.76452657e+01
v 7.98248625e+03 4.52464309e+03 1.67648488e+01
v 7.99938809e+03 4.52873507e+03 1.13816466e+01
v 7.99815176e+03 4.52765230e+03 1.12331170e+01
v 7.99694853e+03 4.52731267e+03 9.77572583e+00
v 7.99918093e+03 4.52966066e+03 1.26673975e+01
v 7.97253809e+03 4.52642221e+03 1.75281529e+01
v 7.97555915e+03 4.52474807e+03 1.87412713e+01
v 7.99889829e+03 4.53023734e+03 1.25641976e+01
v 7.97418108e+03 4.52994057e+03 1.13256296e+01
v 7.97542847e+03 4.52913172e+03 8.40911768e+00
v 7.97579550e+03 4.52916402e+03 1.33940767e+01
v 7.96951804e+03 4.53033197e+03 1.47482031e+01
v 7.96986299e+03 4.52985410e+03 1.26375392e+01
v 7.97109337e+03 4.53149543e+03 1.34822899e+01
v 7.96934899e+03 4.52943410e+03 1.14600881e+01
v 7.97008820e+03 4.52963161e+03 1.00374811e+01
v 7.97510563e+03 4.52936313e+03 1.44184723e+01
v 7.99984600e+03 4.52863597e+03 1.11407311e+01
v 7.99796671e+03 4.52865600e+03 1.23836686e+01
v 7.99875924e+03 4.52833494e+03 1.19676725e+01
v 7.99294797e+03 4.53110886e+03 9.63575428e+00
v 7.99358812e+03 4.53101488e+03 9.70434696e+00
v 7.99772955e+03 4.52937281e+03 1.25143938e+01
v 7.97617805e+03 4.52845982e+03 1.13989549e+01
v 7.97802082e+03 4.52726304e+03 1.17647610e+01
v 7.97897994e+03 4.52689028e+03 1.00139168e+01
v 7.97969553e+03 4.52616934e+03 1.16554741e+01
v 7.97419585e+03 4.52938679e+03 9.65172311e+00
v 7.97885979e+03 4.52719068e+03 1.32731312e+01
v 7.97835157e+03 4.52713396e+03 1.45681905e+01
v 7.98191017e+03 4.52499781e+03 1.38137645e+01
v 7.98240668e+03 4.52445602e+03 1.45513272e+01
v 7.97843771e+03 4.52481672e+03 1.71835952e+01
v 7.99835298e+03 4.53078946e+03 1.14150886e+01
v 7.98086697e+03 4.52371541e+03 1.71711575e+01
v 7.97469532e+03 4.52500988e+03 1.74920410e+01
v 7.97927872e+03 4.53035770e+03 5.75016627e+00
v 7.97499302e+03 4.52999884e+03 3.37081038e+00
v 7.96877154e+03 4.53084695e+03 3.35973843e+00
v 7.99161804e+03 4.53096106e+03 3.19565183e+00
v 7.99919305e+03 4.52848649e+03 5.21866260e+00
v 7.97131213e+03 4.52796389e+03 7.26679796e+00
v 7.97136971e+03 4.52797430e+03 5.64814755e+00
v 7.98434297e+03 4.53003731e+03 5.81047130e+00
v 7.98607480e+03 4.52785098e+03 6.00738246e+00
v 7.97464372e+03 4.52902863e+03 8.18869080e+00
v 7.97368330e+03 4.52875268e+03 8.67136280e+00
v 7.96985598e+03 4.52926080e+03 3.87869521e+00
v 7.97095359e+03 4.52989162e+03 4.27791839e+00
v 7.97243879e+03 4.53091775e+03 3.65572469e+00
v 7.97433166e+03 4.52952234e+03 4.37568446e+00
v 7.98378241e+03 4.53108120e+03 3.44651081e+00
v 7.99323403e+03 4.52965945e+03 8.56103041e+00
v 7.99388808e+03 4.53009422e+03 8.86854058e+00
v 7.98630600e+03 4.52613516e+03 5.37080979e+00
v 7.99545146e+03 4.52865261e+03 7.43918805e+00
v 7.99543545e+03 4.52854248e+03 8.89207852e+00
v 7.97098371e+03 4.53062950e+03 9.65724841e+00
v 7.97133567e+03 4.53016345e+03 9.12887985e+00
v 7.98759511e+03 4.52800272e+03 4.70953086e+00
v 7.98811299e+03 4.52825396e+03 3.49206271e+00
v 7.98539071e+03 4.52950347e+03 3.03539509e+00
v 7.98714023e+03 4.52927879e+03 3.52379891e+00
v 7.99630633e+03 4.52754143e+03 3.35648970e+00
v 7.99813308e+03 4.52803747e+03 2.40606830e+00
v 7.99687918e+03 4.53059903e+03 8.10362841e+00
v 7.99503620e+03 4.53147551e+03 7.60896200e+00
v 7.99439991e+03 4.53100471e+03 7.68991507e+00
v 7.99590152e+03 4.52870795e+03 9.53853274e+00
v 7.99633258e+03 4.52801111e+03 9.07703499e+00
v 7.99493905e+03 4.52996580e+03 7.30797716e+00
v 7.99946562e+03 4.53057927e+03 1.13366552e+01
v 7.97790760e+03 4.52732221e+03 6.99061061e+00
v 7.96869415e+03 4.52958397e+03 1.30980959e+01
v 7.97017909e+03 4.52796187e+03 6.28208370e+00
v 7.96938078e+03 4.52903314e+03 9.01971039e+00
v 7.97141747e+03 4.53141091e+03 8.32040318e+00
v 7.99117227e+03 4.53126694e+03 9.95124155e+00
v 7.99268703e+03 4.53075407e+03 1.04435608e+01
v 7.99690087e+03 4.52727486e+03 8.18627001e+00
v 7.99764116e+03 4.52745510e+03 8.92393154e+00
v 7.99632461e+03 4.52769925e+03 6.87510560e+00
v 7.99810987e+03 4.51855194e+03 6.64617352e+00
v 7.99760541e+03 4.51841959e+03 5.12349963e+00
v 7.99848385e+03 4.51859943e+03 4.58344214e+00
v 7.98706971e+03 4.52555880e+03 2.43161163e+00
v 7.98643176e+03 4.52494316e+03 3.34510877e+00
v 7.98574020e+03 4.52394787e+03 3.36065739e+00
v 7.98618943e+03 4.52568181e+03 4.49381869e+00
v 7.97286243e+03 4.53024671e+03 1.00201618e+01
v 7.98962688e+03 4.51994424e+03 1.33812643e+01
v 7.99325586e+03 4.51792765e+03 6.95376234e+00
v 7.99630225e+03 4.51804986e+03 5.45652476e+00
v 7.99473343e+03 4.51756001e+03 6.64301705e+00
v 7.99553450e+03 4.51586410e+03 8.12369539e+00
v 7.99684531e+03 4.51609071e+03 8.12835372e+00
v 7.99471553e+03 4.51613628e+03 1.10247382e+01
v 7.99275248e+03 4.51799157e+03 1.04929652e+01
v 7.99537593e+03 4.51791994e+03 7.91795282e+00
v 7.99418399e+03 4.51752116e+03 7.80650486e+00
v 7.99413403e+03 4.52281224e+03 2.60440935e+00
v 7.99742611e+03 4.51978226e+03 3.26096532e+00
v 8.00000000e+03 4.51750931e+03 7.93915525e+00
v 7.99572715e+03 4.51824332e+03 3.88918587e+00
v 7.99412806e+03 4.51899815e+03 3.15543794e+00
v 7.99420243e+03 4.51665440e+03 3.67430850e+00
v 7.97975790e+03 4.52135781e+03 1.86449146e+01
v 7.97947512e+03 4.52130767e+03 1.78251651e+01
v 7.97895700e+03 4.51853317e+03 2.13780077e+01
v 7.97997507e+03 4.51888309e+03 2.13982722e+01
v 7.98536736e+03 4.51631633e+03 2.12484320e+01
v 7.98591191e+03 4.51608092e+03 1.90609526e+01
v 7.99153234e+03 4.51411809e+03 1.73162550e+01
v 7.99161497e+03 4.51381070e+03 1.85640061e+01
v 7.98677868e+03 4.51587429e+03 2.11208222e+01
v 7.99589501e+03 4.51550270e+03 1.21411268e+01
v 7.99656055e+03 4.51464572e+03 9.99627857e+00
v 7.98482007e+03 4.52580039e+03 4.57111078e+00
v 7.98325946e+03 4.52373362e+03 1.01276148e+01
v 7.98448931e+03 4.52321898e+03 1.36780797e+01
v 7.97960330e+03 4.52191385e+03 1.86948950e+01
v 7.97618056e+03 4.52424330e+03 1.74464097e+01
v 7.97768303e+03 4.52297856e+03 1.75834075e+01
v 7.97881599e+03 4.52196457e+03 1.74327342e+01
v 7.98652890e+03 4.51730789e+03 1.85591210e+01
v 7.98752172e+03 4.51680973e+03 1.87799667e+01
v 7.99345670e+03 4.51718726e+03 1.82893472e+01
v 7.99172137e+03 4.51877124e+03 1.83610441e+01
v 7.99774012e+03 4.51411334e+03 8.46057605e+00
v 7.98314950e+03 4.52482796e+03 3.29041806e+00
v 7.98113619e+03 4.52502447e+03 3.23614118e+00
v 7.98266997e+03 4.52428105e+03 6.52430951e+00
v 7.98253548e+03 4.52431445e+03 3.50963007e+00
v 7.98476862e+03 4.52254527e+03 3.52650517e+00
v 7.98495831e+03 4.52275612e+03 3.07116884e+00
v 7.98166982e+03 4.52480527e+03 7.50076846e+00
v 7.99979119e+03 4.51958501e+03 4.93586177e+00
v 7.99029693e+03 4.51970991e+03 6.92364554e+00
v 7.98917241e+03 4.51975079e+03 3.09178143e+00
v 7.99031619e+03 4.51958967e+03 3.33071247e+00
v 7.99915065e+03 4.51887541e+03 4.49860932e+00
v 7.99273356e+03 4.51833479e+03 3.84459482e+00
v 7.99479127e+03 4.51665045e+03 3.66934193e+00
v 7.99487277e+03 4.51656123e+03 4.63250387e+00
v 7.99892436e+03 4.52037498e+03 2.91551300e+00
v 7.98914409e+03 4.51980564e+03 8.52741564e+00
v 7.98644253e+03 4.52163943e+03 3.31773677e+00
v 7.98940425e+03 4.52300822e+03 2.75336427e+00
v 7.99386990e+03 4.52543598e+03 2.73304210e+00
v 7.99684867e+03 4.51950304e+03 8.08337014e+00
v 7.98746693e+03 4.52083188e+03 1.06113831e+01
v 7.98495597e+03 4.52250344e+03 1.01007112e+01
v 7.98245601e+03 4.52447673e+03 1.12265891e+01
v 7.98618120e+03 4.52195659e+03 1.14104933e+01
v 7.97773158e+03 4.52323144e+03 1.73631286e+01
v 7.97687536e+03 4.52338907e+03 1.74426926e+01
v 7.97600054e+03 4.52404377e+03 1.76315627e+01
v 7.97572957e+03 4.52177940e+03 1.71948465e+01
v 7.97967355e+03 4.52223807e+03 1.73209479e+01
v 7.97830720e+03 4.52370360e+03 1.77172031e+01
v 7.98706532e+03 4.52129026e+03 1.45867326e+01
v 7.98469024e+03 4.52323721e+03 1.76317108e+01
v 7.97949273e+03 4.52196092e+03 1.78213846e+01
v 7.98594983e+03 4.51764463e+03 1.75395104e+01
v 7.98864776e+03 4.51868326e+03 1.71480730e+01
v 7.98527343e+03 4.52084584e+03 1.72320487e+01
v 7.98368899e+03 4.51918738e+03 1.75496760e+01
v 7.98521093e+03 4.51866828e+03 1.74071478e+01
v 7.98844242e+03 4.52063462e+03 1.76152733e+01
v 7.98932564e+03 4.51979305e+03 1.49344052e+01
v 7.98975078e+03 4.51985756e+03 1.77312591e+01
v 7.98991274e+03 4.51949489e+03 1.88157337e+01
v 7.98845286e+03 4.51784801e+03 1.76547930e+01
v 7.98985779e+03 4.52000807e+03 2.14593949e+01
v 7.99130757e+03 4.51941784e+03 2.14995327e+01
v 7.98261302e+03 4.52094771e+03 1.75049230e+01
v 7.98107083e+03 4.52189613e+03 1.77585582e+01
v 7.98097355e+03 4.52095542e+03 1.73654368e+01
v 7.98234345e+03 4.52011218e+03 1.73090632e+01
v 7.98216659e+03 4.52025214e+03 1.86689524e+01
v 7.97689695e+03 4.51866827e+03 2.12869452e+01
v 7.97839419e+03 4.52077848e+03 2.12845900e+01
v 7.97860145e+03 4.52078595e+03 1.80827131e+01
v 7.97735102e+03 4.52006606e+03 2.10489150e+01
v 7.97743257e+03 4.51946798e+03 1.72750929e+01
v 7.97467090e+03 4.51933969e+03 1.71372140e+01
v 7.97853665e+03 4.52118361e+03 1.73831253e+01
v 7.97726629e+03 4.52173758e+03 1.77075804e+01
v 7.98870992e+03 4.51854896e+03 2.14796628e+01
v 7.98095202e+03 4.52034318e+03 1.87799185e+01
v 7.97967580e+03 4.52041899e+03 1.82483699e+01
v 7.98425357e+03 4.51886864e+03 1.86660727e+01
v 7.98093548e+03 4.51930828e+03 1.85843193e+01
v 7.98089512e+03 4.51965190e+03 1.83000444e+01
v 7.98313979e+03 4.51788906e+03 1.82642222e+01
v 7.97690284e+03 4.52388418e+03 1.87008533e+01
v 7.97719660e+03 4.52318388e+03 1.86358244e+01
v 7.98150962e+03 4.51886227e+03 2.13254618e+01
v 7.99098230e+03 4.51692175e+03 2.22492252e+01
v 7.99014992e+03 4.51775758e+03 2.14454491e+01
v 7.98681019e+03 4.51519751e+03 2.13440416e+01
v 7.98938492e+03 4.51597000e+03 2.17828900e+01
v 7.99210851e+03 4.51420326e+03 2.09487638e+01
v 7.99150441e+03 4.51392335e+03 2.15266816e+01
v 7.99151436e+03 4.51689856e+03 2.17925898e+01
v 7.99006413e+03 4.51710515e+03 2.23212571e+01
v 7.99041650e+03 4.51588031e+03 2.21670448e+01
v 7.99257908e+03 4.51566503e+03 2.14929333e+01
v 7.99361190e+03 4.51745393e+03 2.14749893e+01
v 7.99263704e+03 4.51819817e+03 2.14583461e+01
v 7.99086873e+03 4.51502418e+03 2.14640553e+01
v 7.97939982e+03 4.51854759e+03 2.24033964e+01
v 7.97902466e+03 4.51811349e+03 2.14955470e+01
v 7.97806867e+03 4.51476437e+03 2.12475324e+01
v 7.99590189e+03 4.51561418e+03 1.76540931e+01
v 7.98743948e+03 4.51660616e+03 1.75686264e+01
v 7.99382976e+03 4.51712942e+03 1.77513629e+01
v 7.99315072e+03 4.51604995e+03 1.73867077e+01
v 7.98623515e+03 4.51643423e+03 1.86864281e+01
v 7.98669421e+03 4.51548914e+03 1.92352301e+01
v 7.99363524e+03 4.51734501e+03 1.96045781e+01
v 7.98515248e+03 4.51650851e+03 1.83466941e+01
v 7.98401212e+03 4.51717879e+03 1.82032214e+01
v 7.97311221e+03 4.51307295e+03 2.13469314e+01
v 7.97515292e+03 4.51599601e+03 1.73698323e+01
v 7.97345101e+03 4.51355575e+03 2.00856712e+01
v 7.98530376e+03 4.51782202e+03 1.87909216e+01
v 7.98468449e+03 4.51750590e+03 1.79080465e+01
v 7.98395406e+03 4.51812131e+03 1.82231001e+01
v 7.98406064e+03 4.51851061e+03 1.88138799e+01
v 7.97301316e+03 4.51688146e+03 1.72936330e+01
v 7.99641000e+03 4.51448338e+03 8.42533593e+00
v 7.99676547e+03 4.51474609e+03 1.44773182e+01
v 7.99353870e+03 4.51727570e+03 1.37752245e+01
v 7.99401690e+03 4.51663877e+03 1.49149600e+01
v 7.99428343e+03 4.51641463e+03 8.55730447e+00
v 7.99671961e+03 4.51763173e+03 8.24019074e+00
v 7.99614568e+03 4.51688829e+03 8.91890745e+00
v 7.98706407e+03 4.51703488e+03 1.73654290e+01
v 8.00000000e+03 4.51517458e+03 8.42358129e+00
v 7.99796220e+03 4.51440540e+03 8.02849538e+00
v 7.99542365e+03 4.51574914e+03 9.69159793e+00
v 7.99515469e+03 4.51700835e+03 8.14700024e+00
v 7.99564511e+03 4.51607466e+03 1.11370695e+01
v 7.99789595e+03 4.51383711e+03 1.12000994e+01
v 8.00000000e+03 4.50820890e+03 1.93175731e+01
v 7.97823737e+03 4.50929928e+03 1.74569921e+01
v 7.98726040e+03 4.51122947e+03 2.11845129e+01
v 7.99247199e+03 4.51329098e+03 2.10708909e+01
v 7.99529705e+03 4.51002681e+03 2.12391374e+01
v 7.97723537e+03 4.51009710e+03 2.13217693e+01
v 7.98977627e+03 4.51242016e+03 2.17168370e+01
v 7.99718779e+03 4.50740731e+03 2.16990076e+01
v 7.98432081e+03 4.50532123e+03 2.13979927e+01
v 7.97271079e+03 4.52832471e+03 4.85539790e+00
v 7.98745065e+03 4.53097324e+03 2.80489205e+00
v 7.99183362e+03 4.53143626e+03 5.21980169e+00
v 7.99468406e+03 4.52851382e+03 4.97600128e+00
v 7.99320474e+03 4.52924947e+03 5.05063345e+00
v 7.99106875e+03 4.53066255e+03 7.63387194e+00
v 7.99242764e+03 4.53062398e+03 4.71748658e+00
v 7.99233391e+03 4.52982515e+03 7.98742493e+00
v 7.99807923e+03 4.52717300e+03 6.98817869e+00
v 7.97918585e+03 4.52741444e+03 3.29666346e+00
v 7.99452168e+03 4.52805657e+03 4.06698604e+00
v 7.99620552e+03 4.52864159e+03 3.89062709e+00
v 7.99244689e+03 4.52775740e+03 3.10228691e+00
v 7.98974130e+03 4.52829896e+03 2.88534984e+00
v 7.99507893e+03 4.52722405e+03 3.41055385e+00
v 7.99783703e+03 4.53091411e+03 3.83890478e+00
v 7.97082661e+03 4.52833824e+03 4.90180484e+00
v 7.96895462e+03 4.52962372e+03 4.26326463e+00
v 7.97290806e+03 4.52687394e+03 5.53558127e+00
v 7.97003406e+03 4.52826367e+03 4.15326084e+00
v 7.99816843e+03 4.52874829e+03 5.22414954e+00
v 7.97277443e+03 4.52692952e+03 6.70496431e+00
v 7.97194005e+03 4.52913075e+03 8.70652665e+00
v 7.97455697e+03 4.52908257e+03 5.39450335e+00
v 7.99536705e+03 4.52837172e+03 6.35901493e+00
v 7.99371246e+03 4.52933855e+03 6.80003817e+00
v 7.99892582e+03 4.52743959e+03 7.71025984e+00
v 7.99972851e+03 4.52654269e+03 8.96228864e+00
v 7.97704949e+03 4.52827982e+03 3.04214610e+00
v 7.98777162e+03 4.52656940e+03 2.71911870e+00
v 7.97198135e+03 4.53055057e+03 9.33882298e+00
v 7.99244647e+03 4.53039505e+03 8.97846304e+00
v 7.98628823e+03 4.52897003e+03 3.97689636e+00
v 7.99243109e+03 4.53046121e+03 4.12705004e+00
v 7.99180004e+03 4.52958482e+03 3.42273927e+00
v 7.99719786e+03 4.52941485e+03 4.44632324e+00
v 7.99643562e+03 4.52845946e+03 5.39306313e+00
v 7.98120093e+03 4.52567717e+03 3.06558624e+00
v 7.97907788e+03 4.52663645e+03 6.87487585e+00
v 7.97521182e+03 4.52927926e+03 4.22322974e+00
v 7.98297898e+03 4.52841176e+03 6.01087104e+00
v 7.97943785e+03 4.52628004e+03 3.16374697e+00
v 7.97998620e+03 4.53130071e+03 5.33198065e+00
v 7.97883147e+03 4.52686925e+03 3.31776122e+00
v 7.97633669e+03 4.52822045e+03 3.27108125e+00
v 7.98377575e+03 4.53054886e+03 4.30827577e+00
v 7.99875433e+03 4.52975147e+03 2.72038556e+00
v 7.99783370e+03 4.53137710e+03 2.52739889e+00
v 7.99679575e+03 4.52911836e+03 2.81075977e+00
v 7.99732044e+03 4.53019321e+03 3.29101151e+00
v 7.98701783e+03 4.52810208e+03 5.52835898e+00
v 7.99619341e+03 4.52979699e+03 8.54446390e+00
v 7.99646493e+03 4.52970298e+03 9.27071149e+00
v 7.99582045e+03 4.52986489e+03 8.43033507e+00
v 7.99429375e+03 4.53001335e+03 7.82746013e+00
v 7.99660472e+03 4.52852853e+03 9.90397896e+00
v 7.99905003e+03 4.53132103e+03 1.11886390e+01
v 7.99917891e+03 4.52704862e+03 8.55757037e+00
v 7.99854928e+03 4.52699110e+03 8.95092167e+00
v 7.99191832e+03 4.53096425e+03 1.06548716e+01
v 7.96850000e+03 4.50104293e+03 1.83385154e+01
v 7.96850000e+03 4.50099601e+03 1.77345100e+01
v 7.96850000e+03 4.50118288e+03 1.88724721e+01
v 7.96850000e+03 4.50139130e+03 1.86384946e+01
v 7.96850000e+03 4.50179388e+03 1.84542762e+01
v 7.96850000e+03 4.50146787e+03 1.85967963e+01
v 7.96850000e+03 4.50241754e+03 1.82726616e+01
v 7.96850000e+03 4.50000000e+03 1.77579176e+01
v 7.96850000e+03 4.50075762e+03 1.77122589e+01
v 7.96850000e+03 4.50354114e+03 1.75873204e+01
v 7.96850000e+03 4.50669372e+03 1.74602293e+01
v 7.96850000e+03 4.50629195e+03 1.74701566e+01
v 7.96850000e+03 4.50974201e+03 1.75523008e+01
v 7.96850000e+03 4.50981951e+03 1.75111767e+01
v 7.96850000e+03 4.51146674e+03 1.74343944e+01
v 7.96850000e+03 4.51040743e+03 1.74455196e+01
v 7.96850000e+03 4.50373929e+03 1.75766322e+01
v 7.96850000e+03 4.50476497e+03 1.75718135e+01
v 7.96850000e+03 4.50506264e+03 1.75726481e+01
v 7.96850000e+03 4.50602527e+03 1.75367560e+01
v 7.96850000e+03 4.50717781e+03 1.74660588e+01
v 7.96850000e+03 4.50968797e+03 1.75177706e+01
v 7.96850000e+03 4.50732310e+03 1.75043204e+01
v 7.96850000e+03 4.50459412e+03 1.77774199e+01
v 7.96850000e+03 4.50407424e+03 1.77763526e+01
v 7.96850000e+03 4.51819644e+03 1.73188337e+01
v 7.96850000e+03 4.51870585e+03 1.73005407e+01
v 7.96850000e+03 4.51897895e+03 1.73047579e+01
v 7.96850000e+03 4.51471774e+03 1.73913974e+01
v 7.96850000e+03 4.52065640e+03 1.72811698e+01
v 7.96850000e+03 4.52357493e+03 1.72740729e+01
v 7.96850000e+03 4.52522869e+03 1.72454857e+01
v 7.96850000e+03 4.51947337e+03 1.72973669e+01
v 7.96850000e+03 4.53034511e+03 1.70897207e+01
v 7.96850000e+03 4.53028638e+03 1.71524728e+01
v 7.96850000e+03 4.52875112e+03 1.77225467e+01
v 7.96850000e+03 4.52879916e+03 1.80781050e+01
v 7.96850000e+03 4.52932128e+03 6.50366606e+00
v 7.96850000e+03 4.52954733e+03 7.90390585e+00
v 7.96850000e+03 4.53018723e+03 1.73068854e+01
v 7.96850000e+03 4.52969924e+03 1.23221063e+01
v 7.96850000e+03 4.52983872e+03 1.13745334e+01
v 7.96850000e+03 4.52599289e+03 1.72568676e+01
v 7.96850000e+03 4.52687742e+03 1.73103744e+01
v 7.96850000e+03 4.52853709e+03 1.77090978e+01
v 7.96850000e+03 4.52864910e+03 1.77340012e+01
v 7.96850000e+03 4.52950555e+03 1.87090047e+01
v 7.96850000e+03 4.52905115e+03 1.86379386e+01
v 7.96850000e+03 4.52886486e+03 1.86192345e+01
v 7.96850000e+03 4.52960910e+03 9.92022077e+00
v 7.96850000e+03 4.53109804e+03 3.33577144e+00
v 7.96850000e+03 4.53081745e+03 3.48424986e+00
v 7.96850000e+03 4.52988875e+03 4.22196460e+00
v 7.96850000e+03 4.52978237e+03 5.00422992e+00
v 7.96850000e+03 4.52939408e+03 5.65550342e+00
v 7.96850000e+03 4.53014464e+03 1.39430559e+01
v 7.96850000e+03 4.53016578e+03 1.51467505e+01
v 7.96850000e+03 4.52965432e+03 1.31221440e+01
v 7.97191569e+03 4.53150000e+03 1.53054519e+01
v 7.97226674e+03 4.53150000e+03 1.69767530e+01
v 7.99088295e+03 4.53150000e+03 9.09474292e+00
v 7.99075818e+03 4.53150000e+03 9.82020210e+00
v 7.97110125e+03 4.53150000e+03 1.34456596e+01
v 7.97112744e+03 4.53150000e+03 1.34844148e+01
v 7.99778405e+03 4.53150000e+03 1.06285165e+01
v 7.99735276e+03 4.53150000e+03 9.78234724e+00
v 7.99451889e+03 4.53150000e+03 8.03996530e+00
v 7.99385578e+03 4.53150000e+03 8.56428847e+00
v 7.97141983e+03 4.53150000e+03 4.71132661e+00
v 7.97145089e+03 4.53150000e+03 4.68782048e+00
v 7.98294237e+03 4.53150000e+03 3.30720619e+00
v 7.98345945e+03 4.53150000e+03 3.39325262e+00
v 7.99306118e+03 4.53150000e+03 3.36632907e+00
v 7.99218379e+03 4.53150000e+03 3.04763605e+00
v 7.97443635e+03 4.53150000e+03 3.85697427e+00
v 7.97342146e+03 4.53150000e+03 3.29815751e+00
v 7.97109695e+03 4.53150000e+03 1.35162985e+01
v 7.97110687e+03 4.53150000e+03 1.35288223e+01
v 7.97088368e+03 4.53150000e+03 1.67097655e+01
v 7.97216546e+03 4.53150000e+03 1.35849050e+01
v 7.97205256e+03 4.53150000e+03 1.10338965e+01
v 7.97215635e+03 4.53150000e+03 1.33840053e+01
v 7.97218537e+03 4.53150000e+03 1.35321334e+01
v 7.97235357e+03 4.53150000e+03 1.76399710e+01
v 7.97174539e+03 4.53150000e+03 1.75795792e+01
v 7.97112484e+03 4.53150000e+03 1.76179239e+01
v 7.97083225e+03 4.53150000e+03 1.74384502e+01
v 7.99342104e+03 4.53150000e+03 9.68399206e+00
v 7.99384898e+03 4.53150000e+03 9.58277490e+00
v 7.99260781e+03 4.53150000e+03 1.08151145e+01
v 7.99258745e+03 4.53150000e+03 1.03848162e+01
v 7.99307288e+03 4.53150000e+03 9.64695786e+00
v 7.99276002e+03 4.53150000e+03 9.94830533e+00
v 7.99390917e+03 4.53150000e+03 9.54476205e+00
v 7.99231636e+03 4.53150000e+03 1.08567469e+01
v 7.99173990e+03 4.53150000e+03 1.07372800e+01
v 7.99125929e+03 4.53150000e+03 1.01784954e+01
v 7.99111126e+03 4.53150000e+03 1.00174624e+01
v 7.99040851e+03 4.53150000e+03 7.38659352e+00
v 7.99029485e+03 4.53150000e+03 8.77450075e+00
v 7.97146569e+03 4.53150000e+03 8.91642775e+00
v 7.97154371e+03 4.53150000e+03 8.84828420e+00
v 7.97182584e+03 4.53150000e+03 9.81612221e+00
v 7.99081956e+03 4.53150000e+03 8.75781661e+00
v 7.99171694e+03 4.53150000e+03 5.30659503e+00
v 7.99382974e+03 4.53150000e+03 8.60541037e+00
v 7.99574438e+03 4.53150000e+03 8.03064385e+00
v 7.99654637e+03 4.53150000e+03 7.83585112e+00
v 7.99503452e+03 4.53150000e+03 7.63050160e+00
v 7.99523004e+03 4.53150000e+03 7.73578341e+00
v 7.99867209e+03 4.53150000e+03 1.03807264e+01
v 8.00000000e+03 4.53150000e+03 9.79760369e+00
v 7.99731263e+03 4.53150000e+03 9.47751885e+00
v 7.99380463e+03 4.53150000e+03 8.69183343e+00
v 7.99731020e+03 4.53150000e+03 9.11228597e+00
v 7.99831083e+03 4.53150000e+03 1.08360681e+01
v 7.99792558e+03 4.53150000e+03 1.07267590e+01
v 7.99564789e+03 4.53150000e+03 8.00079180e+00
v 7.99567864e+03 4.53150000e+03 8.03950104e+00
v 7.99760427e+03 4.53150000e+03 2.60467218e+00
v 7.99729051e+03 4.53150000e+03 2.77840886e+00
v 7.99741049e+03 4.53150000e+03 2.96536260e+00
v 7.99801277e+03 4.53150000e+03 2.63714471e+00
v 7.99837738e+03 4.53150000e+03 3.56482146e+00
v 7.99831718e+03 4.53150000e+03 3.88662579e+00
v 7.99317348e+03 4.53150000e+03 3.47313902e+00
v 7.99318141e+03 4.53150000e+03 3.42722357e+00
v 7.99938074e+03 4.53150000e+03 3.03197328e+00
v 7.99158497e+03 4.53150000e+03 3.02168398e+00
v 7.99120680e+03 4.53150000e+03 3.13877966e+00
v 7.98783451e+03 4.53150000e+03 2.82290786e+00
v 7.97251063e+03 4.53150000e+03 3.48658301e+00
v 7.97905643e+03 4.53150000e+03 5.86340847e+00
v 7.97973542e+03 4.53150000e+03 5.47348293e+00
v 7.98382392e+03 4.53150000e+03 3.36900722e+00
v 7.98694886e+03 4.53150000e+03 2.80704107e+00
v 7.96889080e+03 4.53150000e+03 3.61379561e+00
v 7.97211565e+03 4.53150000e+03 3.57495594e+00
v 7.98236394e+03 4.53150000e+03 3.67581750e+00
v 7.96968115e+03 4.53150000e+03 4.04639330e+00
v 7.98027504e+03 4.53150000e+03 5.46368185e+00
v 7.97776895e+03 4.53150000e+03 5.72300003e+00
v 7.98210128e+03 4.53150000e+03 5.85131146e+00
v 7.98146326e+03 4.53150000e+03 5.89198768e+00
v 7.98050514e+03 4.53150000e+03 5.82714158e+00
v 7.98218619e+03 4.53150000e+03 5.25732007e+00
v 7.97647790e+03 4.53150000e+03 5.07533340e+00
v 7.97703334e+03 4.53150000e+03 5.31532264e+00
v 7.97146287e+03 4.53150000e+03 1.06316683e+01
v 7.97192947e+03 4.53150000e+03 9.92009450e+00
v 7.97187492e+03 4.53150000e+03 1.07877402e+01
v 7.98750418e+03 4.53150000e+03 2.77192264e+00
v 7.99182804e+03 4.53150000e+03 5.16224435e+00
v 7.99191769e+03 4.53150000e+03 5.07172800e+00
v 7.99254221e+03 4.53150000e+03 4.28635029e+00
v 8.00000000e+03 4.53150000e+03 2.84496696e+00
v 7.99924736e+03 4.53150000e+03 4.57345870e+00
v 8.00000000e+03 4.53150000e+03 5.20429067e+00
v 7.99967699e+03 4.53150000e+03 4.99133099e+00
v 7.99940600e+03 4.53150000e+03 4.77868267e+00
v 7.99932225e+03 4.53150000e+03 4.71170720e+00
v 7.96864898e+03 4.53150000e+03 3.52111079e+00
v 7.96850000e+03 4.53150000e+03 3.46401070e+00
vt 0.031073021 0.82563728
vt 0.026039701 0.78995836
vt 0.03940212 0.79141271
vt 0.052336086 0.79283321
vt 0.0090628592 0.8240481
vt 0.052907575 0.78647804
vt 0.071489416 0.81634653
vt 0.030259306 0.85473764
vt 0.0093800854 0.79316771
vt 0.071486339 0.79162437
vt 0.047605727 0.83544171
vt 0.01081577 0.84717071
vt 0.0031524298 0.78960586
vt 0.088219501 0.84996927
vt 0.096239999 0.81163538
vt 0.012737754 0.87064117
vt 0.097170062 0.83457661
vt 0.096200593 0.78735816
vt 0.10845623 0.8322137
vt 0.11636768 0.79365289
vt 0.13403897 0.8751322
vt 0.07020326 0.88642853
vt 0.15066053 0.8239522
vt 0.12178569 0.89275217
vt 0.010097367 0.89177483
vt 0.20718673 0.8682605
vt 0.14423288 0.76908344
vt 0.12914275 0.93721503
vt 0.014609016 0.93780804
vt 0.170733 0.94648248
vt 0.089313544 0.93600726
vt 0.20483568 0.93609893
vt 0.19704613 0.76788104
vt 0.13402316 0.94538212
vt 0.19911915 0.95284319
vt 0.15454873 0.72055262
vt 0.211244 0.79214019
vt 0.13365789 0.96613401
vt 0.20520514 0.99441206
vt 0.19555482 0.71178842
vt 0.11985958 0.71765256
vt 0.21035016 0.70737606
vt 0.24134447 0.82422632
vt 0.1350798 0.99536079
vt 0.18234192 0.99561357
vt 0.26167616 0.71040964
vt 0.26802096 0.83663416
vt 0.15415221 0.9949801
vt 0.29053962 0.70636839
vt 0.30080411 0.87175328
vt 0.29046226 0.71317124
vt 0.28785771 0.81576473
vt 0.25080764 0.88626868
vt 0.33483675 0.71267962
vt 0.32035646 0.81592333
vt 0.33778894 0.8848381
vt 0.20901749 0.89214492
vt 0.33293563 0.75974864
vt 0.33745381 0.83305585
vt 0.34923747 0.87340224
vt 0.33886534 0.91954672
vt 0.22807139 0.93395817
vt 0.34995174 0.7746641
vt 0.40747005 0.86449015
vt 0.38994551 0.93084979
vt 0.29869038 0.9335472
vt 0.35839868 0.70796764
vt 0.38704193 0.83908129
vt 0.41267419 0.88427663
vt 0.35893774 0.93298721
vt 0.39909083 0.76447093
vt 0.46352229 0.86571431
vt 0.40290564 0.81353384
vt 0.44906694 0.93209767
vt 0.39118886 0.70659637
vt 0.47352853 0.88134813
vt 0.41783786 0.84043521
vt 0.40439647 0.70901865
vt 0.52990526 0.86790442
vt 0.45165449 0.83434224
vt 0.41977483 0.76597071
vt 0.5287385 0.92085552
vt 0.52967763 0.86709583
vt 0.53275698 0.89455092
vt 0.467388 0.78771329
vt 0.52774394 0.93125671
vt 0.44731215 0.7075569
vt 0.53000993 0.86476588
vt 0.49025735 0.83291703
vt 0.47144699 0.7224142
vt 0.48419586 0.80640721
vt 0.48161328 0.70952058
vt 0.53120261 0.82805383
vt 0.47683781 0.74005973
vt 0.47526443 0.7836417
vt 0.5085991 0.81186432
vt 0.48409954 0.72435319
vt 0.48330721 0.79027462
vt 0.5332346 0.82409036
vt 0.50726694 0.78987658
vt 0.53261304 0.81060231
vt 0.52191156 0.80085027
vt 0.53379822 0.80890793
vt 0.73377901 0.5921154
vt 0.76808453 0.56820536
vt 0.7678889 0.58263719
vt 0.71690434 0.61764932
vt 0.82843095 0.54547668
vt 0.70588082 0.60911268
vt 0.7896719 0.6122399
vt 0.80598295 0.54547989
vt 0.67994183 0.62866652
vt 0.70442128 0.67434245
vt 0.86238152 0.56182241
vt 0.75732976 0.64995611
vt 0.87775761 0.56859803
vt 0.66078764 0.65576684
vt 0.71933728 0.67918551
vt 0.80418694 0.6203084
vt 0.61098826 0.67438447
vt 0.7632364 0.69561708
vt 0.72590488 0.72097087
vt 0.81515223 0.67805326
vt 0.86675251 0.64058173
vt 0.58230066 0.77624995
vt 0.7492981 0.72353774
vt 0.71888906 0.78297228
vt 0.92492026 0.59962505
vt 0.56925601 0.7033267
vt 0.76646674 0.75397742
vt 0.76521736 0.73955637
vt 0.88099784 0.66119277
vt 0.9249019 0.54543948
vt 0.63608587 0.84026164
vt 0.50484604 0.74984515
vt 0.75911993 0.7950241
vt 0.82541102 0.70209599
vt 0.89324522 0.54545426
vt 0.9249317 0.63633806
vt 0.69635111 0.80046242
vt 0.61210787 0.84059381
vt 0.56401187 0.83725411
vt 0.78230232 0.78024197
vt 0.8514716 0.70213795
vt 0.86731118 0.54546219
vt 0.89336753 0.6744324
vt 0.71840185 0.79354995
vt 0.58741707 0.87021887
vt 0.59725308 0.82857239
vt 0.79222888 0.7630375
vt 0.77523506 0.79361284
vt 0.92494124 0.65719795
vt 0.5961988 0.83513165
vt 0.83125919 0.73619485
vt 0.8090297 0.79024631
vt 0.79239726 0.80952209
vt 0.76973414 0.812751
vt 0.87259138 0.70818913
vt 0.92494571 0.6737684
vt 0.80167389 0.76741505
vt 0.78408033 0.80988157
vt 0.89797091 0.69024551
vt 0.80994838 0.82982695
vt 0.82517689 0.81819308
vt 0.28417864 0.98650509
vt 0.28296331 0.99073535
vt 0.26112062 0.9890821
vt 0.24122351 0.98371297
vt 0.32310197 0.98785156
vt 0.25155833 0.96921456
vt 0.3195807 0.96776217
vt 0.22327073 0.9689157
vt 0.29416016 0.97060257
vt 0.34448731 0.96970755
vt 0.22429144 0.98571688
vt 0.3705371 0.98998493
vt 0.3723408 0.97726697
vt 0.37290189 0.96819299
vt 0.43497401 0.97345853
vt 0.40620857 0.97119564
vt 0.42268667 0.99104518
vt 0.44748101 0.9925878
vt 0.46190012 0.9736082
vt 0.51947641 0.9936927
vt 0.50099218 0.97478253
vt 0.53603333 0.97474539
vt 0.57067347 0.99559766
vt 0.55557841 0.9779433
vt 0.57310051 0.97832155
vt 0.58764648 0.9701432
vt 0.58666408 0.97281545
vt 0.58822829 0.96898401
vt 0.57990938 0.99621308
vt 0.57764244 0.96508068
vt 0.98358941 0.98932028
vt 0.98796314 0.99691898
vt 0.94474369 0.9969666
vt 0.96554869 0.96880484
vt 0.89694184 0.93252599
vt 0.97768605 0.97165269
vt 0.93466282 0.93245322
vt 0.90334535 0.9967674
vt 0.87134725 0.99511755
vt 0.8301158 0.95735186
vt 0.85060638 0.93237758
vt 0.83903968 0.99391216
vt 0.82567334 0.94120568
vt 0.81514621 0.98889297
vt 0.81658816 0.96593446
vt 0.75742549 0.99240202
vt 0.78517163 0.93198413
vt 0.72394764 0.96950704
vt 0.72710645 0.93120492
vt 0.7071631 0.99135774
vt 0.69764787 0.9678216
vt 0.68489957 0.97175896
vt 0.66324067 0.97584563
vt 0.66205502 0.96682906
vt 0.62832731 0.99110556
vt 0.63959396 0.96406388
vt 0.13624303 0.57543659
vt 0.15660226 0.56222522
vt 0.17396478 0.57749194
vt 0.15605621 0.59502459
vt 0.14843482 0.53778994
vt 0.2257894 0.61195129
vt 0.13823618 0.64535391
vt 0.083316885 0.53780997
vt 0.24449867 0.55617738
vt 0.20444745 0.65071249
vt 0.097242557 0.60679162
vt 0.088408872 0.58303964
vt 0.24639468 0.53775769
vt 0.23789293 0.62719464
vt 0.2588034 0.6130619
vt 0.15525115 0.68309015
vt 0.12189708 0.6426903
vt 0.069975466 0.56552207
vt 0.26852518 0.53775012
vt 0.26745087 0.57678246
vt 0.14321853 0.67838717
vt 0.059117135 0.54655862
vt 0.26478282 0.55559099
vt 0.29847127 0.58766448
vt 0.040654041 0.58064276
vt 0.052645702 0.53781712
vt 0.28511292 0.55922818
vt 0.020985223 0.59613305
vt 0.016909184 0.58187306
vt 0.28486806 0.53774643
vt 0.29039255 0.53774512
vt 0.052519888 0.53781068
vt 0.31020799 0.53773952
vt 0.0030737817 0.59316647
vt 0.0030581208 0.56585491
vt 0.32919651 0.56530643
vt 0.0030748683 0.59626275
vt 0.003062705 0.57560182
vt 0.0030553499 0.56075919
vt 0.33624905 0.5377143
vt 0.0078061563 0.60792482
vt 0.0030546344 0.55956233
vt 0.35603204 0.54880011
vt 0.0030749922 0.60149407
vt 0.028795129 0.53781223
vt 0.34542769 0.53770292
vt 0.0030776146 0.60961717
vt 0.0030517394 0.55630279
vt 0.36227056 0.53769118
vt 0.11342338 0.38339919
vt 0.11651284 0.40374297
vt 0.090681836 0.39813119
vt 0.13563445 0.37994653
vt 0.097506575 0.40584826
vt 0.13765365 0.36758184
vt 0.1486965 0.39235055
vt 0.078605145 0.42118955
vt 0.14664739 0.3749522
vt 0.13240641 0.42607057
vt 0.064196371 0.44499344
vt 0.057943322 0.41985881
vt 0.16799252 0.35205108
vt 0.18664844 0.37513047
vt 0.029048076 0.43988442
vt 0.19431169 0.4001286
vt 0.11972662 0.45229334
vt 0.024798946 0.48364621
vt 0.18981983 0.34669584
vt 0.2463813 0.36763358
vt 0.16984899 0.41936016
vt 0.053661559 0.49680263
vt 0.044159181 0.49680644
vt 0.012931434 0.45105475
vt 0.18829818 0.3320024
vt 0.21391393 0.33187199
vt 0.25548464 0.33027017
vt 0.034462735 0.49680912
vt 0.0048639737 0.46884817
vt 0.30499637 0.32694912
vt 0.0071747815 0.478827
vt 0.2096992 0.31882048
vt 0.23071685 0.30436075
vt 0.26603493 0.28024375
vt 0.029892361 0.49681282
vt 0.25449568 0.29624373
vt 0.3081986 0.29646361
vt 0.28344321 0.27071285
vt 0.32543471 0.31479931
vt 0.28930533 0.26400965
vt 0.47457808 0.47476006
vt 0.49113172 0.51287466
vt 0.44866198 0.43635648
vt 0.48209089 0.42250943
vt 0.51772892 0.47674894
vt 0.37815413 0.46915269
vt 0.4591856 0.39209938
vt 0.51513886 0.51220715
vt 0.37815669 0.47687817
vt 0.37815276 0.46488547
vt 0.52165765 0.5315969
vt 0.53498811 0.50354886
vt 0.3781628 0.49536318
vt 0.37815005 0.45692569
vt 0.53935641 0.51574945
vt 0.50904107 0.53801697
vt 0.40532479 0.55491114
vt 0.43672213 0.35697585
vt 0.49537361 0.54824895
vt 0.37817761 0.5409655
vt 0.37813187 0.40256983
vt 0.45689932 0.56825566
vt 0.37818623 0.56680608
vt 0.37811509 0.35177219
vt 0.47498557 0.56335282
vt 0.42399994 0.58424336
vt 0.37818998 0.57874656
vt 0.39424053 0.58988297
vt 0.44128546 0.5854311
vt 0.4164066 0.60218549
vt 0.45568922 0.57681191
vt 0.37819403 0.59256685
vt 0.40421945 0.60831136
vt 0.38001451 0.62061143
vt 0.37819931 0.61849445
vt 0.37819967 0.62024426
vt 0.86460572 0.32150996
vt 0.77296257 0.36112821
vt 0.84779704 0.32301784
vt 0.80692303 0.43500179
vt 0.82438099 0.31375992
vt 0.84286529 0.41161597
vt 0.76884788 0.40212393
vt 0.77284575 0.30152607
vt 0.86462623 0.39155042
vt 0.83547592 0.44275475
vt 0.78774279 0.43004823
vt 0.66259754 0.40408117
vt 0.7132867 0.31078589
vt 0.79782206 0.28971493
vt 0.8646394 0.42736375
vt 0.81458241 0.45964557
vt 0.80534923 0.45218581
vt 0.74662215 0.43839902
vt 0.69905949 0.36421251
vt 0.75104785 0.29115981
vt 0.77399188 0.26489824
vt 0.84518921 0.46952909
vt 0.85592473 0.4578861
vt 0.77903479 0.44305134
vt 0.65261936 0.39445382
vt 0.7043516 0.44687718
vt 0.69541776 0.31331211
vt 0.78319257 0.26483357
vt 0.82278246 0.47643161
vt 0.86464083 0.44342923
vt 0.75845593 0.46168524
vt 0.64180851 0.37890565
vt 0.73652184 0.46695185
vt 0.67356771 0.41986471
vt 0.62958759 0.36029214
vt 0.86465639 0.4792366
vt 0.83081406 0.49493665
vt 0.73368675 0.48845941
vt 0.67890429 0.44617498
vt 0.86465055 0.46173227
vt 0.82722926 0.49685717
vt 0.74638093 0.4806338
vt 0.66857433 0.48867559
vt 0.6637097 0.46219254
vt 0.86464739 0.45759791
vt 0.83361185 0.49685466
vt 0.82232535 0.49685663
vt 0.72726434 0.49688309
vt 0.75623733 0.49687093
vt 0.85498333 0.49684298
vt 0.67457455 0.49690396
vt 0.73317409 0.49688256
vt 0.74253058 0.49687922
vt 0.8646608 0.49684209
vt 0.66941357 0.49690628
vt 0.56355655 0.94328588
vt 0.55736452 0.94828689
vt 0.51484483 0.94760132
vt 0.52306539 0.93594831
vt 0.50567776 0.95343614
vt 0.50891095 0.93417811
vt 0.54611701 0.93033248
vt 0.48080927 0.95534343
vt 0.46627221 0.94999135
vt 0.56001586 0.93197525
vt 0.4920468 0.9381544
vt 0.56927013 0.92955393
vt 0.54795319 0.92110139
vt 0.43414956 0.95262474
vt 0.46696463 0.93913007
vt 0.44868252 0.9369818
vt 0.40899712 0.96007562
vt 0.38594705 0.9558714
vt 0.35773906 0.96343595
vt 0.39703023 0.94560599
vt 0.36717522 0.95603997
vt 0.3833929 0.94264239
vt 0.42685416 0.94209731
vt 0.35187858 0.95952868
vt 0.35323736 0.95757562
vt 0.34856418 0.96458608
vt 0.3562454 0.94631416
vt 0.35371727 0.95072436
vt 0.35406807 0.94617724
vt 0.35481218 0.94535774
vt 0.076313607 0.047745168
vt 0.071226425 0.088300407
vt 0.05877576 0.088532031
vt 0.096899904 0.05733645
vt 0.046979941 0.10658526
vt 0.10133419 0.094217062
vt 0.053568754 0.11274868
vt 0.11795984 0.081254601
vt 0.042871892 0.15107864
vt 0.036129672 0.13476807
vt 0.1145936 0.063446879
vt 0.12344711 0.091098547
vt 0.10056824 0.14896238
vt 0.12826218 0.059948564
vt 0.1565458 0.098732829
vt 0.069971807 0.20036697
vt 0.033494864 0.14761138
vt 0.14622022 0.068026841
vt 0.14996134 0.10963446
vt 0.13557406 0.11724299
vt 0.10822346 0.19711196
vt 0.022933966 0.17705482
vt 0.16545831 0.090009272
vt 0.13249461 0.15596503
vt 0.095861137 0.20446402
vt 0.11645676 0.19169867
vt 0.060556103 0.22595996
vt 0.013209968 0.18353075
vt 0.051069487 0.22939622
vt 0.077167265 0.21640933
vt 0.011540809 0.2161054
vt 0.043905586 0.23240942
vt 0.017578634 0.2414096
vt 0.0044903839 0.24617285
vt 0.69916213 0.86734241
vt 0.74039441 0.86856127
vt 0.72243702 0.88161021
vt 0.70775014 0.91107619
vt 0.66205299 0.87043393
vt 0.72192574 0.90509307
vt 0.71681482 0.93030065
vt 0.61287242 0.93217278
vt 0.59799302 0.87056148
vt 0.59003341 0.92815709
vt 0.57175422 0.88428694
vt 0.57322687 0.93333936
vt 0.56648344 0.87297034
vt 0.56382334 0.63407069
vt 0.57309866 0.64741468
vt 0.56424361 0.6577937
vt 0.5508976 0.64940137
vt 0.5811711 0.6185081
vt 0.58902383 0.64763618
vt 0.53417987 0.62631065
vt 0.55285817 0.61545217
vt 0.57900929 0.68351197
vt 0.54938775 0.59738874
vt 0.5913775 0.63225877
vt 0.59273952 0.67217308
vt 0.53485131 0.60888278
vt 0.6102916 0.62470311
vt 0.59755015 0.64348376
vt 0.59996498 0.65420216
vt 0.50502932 0.61627614
vt 0.52424932 0.58765209
vt 0.60955918 0.6131081
vt 0.61305374 0.64232558
vt 0.54492712 0.57557654
vt 0.60868084 0.64829427
vt 0.49844107 0.58894616
vt 0.5249874 0.57175374
vt 0.48229691 0.63303924
vt 0.49612868 0.64269817
vt 0.45884418 0.62896299
vt 0.48010638 0.65056419
vt 0.47832924 0.58874965
vt 0.47945911 0.5792889
vt 0.46453595 0.5986501
vt 0.45629439 0.66619051
vt 0.44394845 0.62778044
vt 0.48112476 0.67437637
vt 0.45065686 0.65401292
vt 0.46246231 0.59997201
vt 0.44233787 0.64800066
vt 0.46885526 0.67678952
vt 0.44976082 0.64890486
vt 0.44889048 0.66443878
vt 0.4640342 0.5980866
vt 0.47505453 0.68316686
vt 0.46277669 0.6801163
vt 0.45388499 0.66812205
vt 0.47093141 0.68314195
vt 0.45597869 0.67082155
vt 0.97916138 0.76397121
vt 0.93628412 0.80232567
vt 0.96788347 0.74715018
vt 0.94932181 0.82777905
vt 0.95096678 0.72410983
vt 0.91766518 0.85355633
vt 0.89680457 0.79627782
vt 0.93593413 0.86311239
vt 0.91688699 0.75121158
vt 0.93162268 0.87013632
vt 0.87976086 0.84330863
vt 0.93655032 0.70431697
vt 0.30324581 0.4931612
vt 0.25391456 0.49438637
vt 0.24719051 0.46723217
vt 0.29852694 0.42991406
vt 0.24338797 0.48453122
vt 0.24569535 0.43180168
vt 0.33230335 0.48897237
vt 0.22311404 0.49411625
vt 0.20224953 0.48262548
vt 0.34764403 0.44968015
vt 0.35010013 0.49587649
vt 0.19162619 0.43218827
vt 0.35186526 0.43040431
vt 0.34617424 0.48750913
vt 0.19214617 0.49475724
vt 0.19211009 0.46308303
vt 0.19235721 0.48383898
vt 0.2258475 0.16256088
vt 0.26347584 0.15396029
vt 0.27478254 0.16073143
vt 0.27085757 0.1741786
vt 0.242585 0.1458199
vt 0.27335528 0.15091908
vt 0.20426637 0.17776185
vt 0.21082535 0.14528686
vt 0.27567279 0.15402663
vt 0.2779249 0.19833219
vt 0.1571252 0.16501456
vt 0.20565668 0.12156665
vt 0.26932248 0.14917868
vt 0.14040664 0.22375458
vt 0.1424569 0.17832541
vt 0.14883286 0.14617229
vt 0.20665982 0.12144196
vt 0.20487778 0.12060171
vt 0.25628078 0.14315575
vt 0.14051339 0.19583225
vt 0.14781308 0.24108583
vt 0.12900476 0.17832607
vt 0.13020509 0.15835643
vt 0.18256067 0.11013806
vt 0.23869783 0.13519865
vt 0.19691192 0.1164757
vt 0.25266692 0.14090747
vt 0.28028321 0.23247266
vt 0.1358131 0.2456035
vt 0.24066557 0.13566077
vt 0.24722384 0.13844538
vt 0.72148931 0.54870808
vt 0.73198938 0.50870097
vt 0.773314 0.49599928
vt 0.77641612 0.54086351
vt 0.69285882 0.50984955
vt 0.75560504 0.49877042
vt 0.65274864 0.55785131
vt 0.73403609 0.50245416
vt 0.77595341 0.48366427
vt 0.67675048 0.51224506
vt 0.65677631 0.51668346
vt 0.6435557 0.52809107
vt 0.62965161 0.55642569
vt 0.6401698 0.51982486
vt 0.62930036 0.53310245
vt 0.25533429 0.64699268
vt 0.25451133 0.61998093
vt 0.30259454 0.62167168
vt 0.38436875 0.64854777
vt 0.34510493 0.6205188
vt 0.38503924 0.6236465
vt 0.39640713 0.6530903
vt 0.39704856 0.61496615
vt 0.98780662 0.59260964
vt 0.99425232 0.61950445
vt 0.97745132 0.60997987
vt 0.97690105 0.57000327
vt 0.97690934 0.64414608
vt 0.99136394 0.55490679
vt 0.94633192 0.62498081
vt 0.99105072 0.63483846
vt 0.95654994 0.55465722
vt 0.9561879 0.56545758
vt 0.99590015 0.62077248
vt 0.97846591 0.67817557
vt 0.94624382 0.625489
vt 0.95948207 0.5423376
vt 0.94619095 0.62443298
vt 0.99085778 0.65267932
vt 0.94886357 0.67329288
vt 0.9461242 0.62564147
vt 0.94491684 0.55719495
vt 0.94178474 0.58174372
vt 0.94587517 0.62491935
vt 0.98910677 0.68205678
vt 0.94949478 0.68420976
vt 0.94172698 0.55643183
vt 0.94318426 0.54744118
vt 0.9407838 0.55517244
vt 0.55029994 0.86715722
vt 0.5499379 0.87795764
vt 0.53693426 0.85994118
vt 0.58683974 0.43208873
vt 0.57366669 0.38695306
vt 0.60075718 0.39433104
vt 0.60091305 0.416475
vt 0.55598658 0.402192
vt 0.57610965 0.35526669
vt 0.60096765 0.44754493
vt 0.54694539 0.42793906
vt 0.55508238 0.37744331
vt 0.60079783 0.38156748
vt 0.56378996 0.36706775
vt 0.60112619 0.47052795
vt 0.53248721 0.39058077
vt 0.53035659 0.37251824
vt 0.60104305 0.37279624
vt 0.58761203 0.47069913
vt 0.51948649 0.42646402
vt 0.5938381 0.36101854
vt 0.60104334 0.48460746
vt 0.50466675 0.42005605
vt 0.60110581 0.36114579
vt 0.59794378 0.49616033
vt 0.50603527 0.37742019
vt 0.51190019 0.44351053
vt 0.60102034 0.49672037
vt 0.79097247 0.91977644
vt 0.80272567 0.91848755
vt 0.79186314 0.93324059
vt 0.78207237 0.93075693
vt 0.77521628 0.89052469
vt 0.77169192 0.91204226
vt 0.79972857 0.90084577
vt 0.79969853 0.87434715
vt 0.81863981 0.90242773
vt 0.75882161 0.89836431
vt 0.78133547 0.86679971
vt 0.75933594 0.9007597
vt 0.75724894 0.88363057
vt 0.79441756 0.86443567
vt 0.81942314 0.87299412
vt 0.79523551 0.85185969
vt 0.80656707 0.86013722
vt 0.7571004 0.87918568
vt 0.77891463 0.85506153
vt 0.76920784 0.85564297
vt 0.77652889 0.85083938
vt 0.79360545 0.83242393
vt 0.75708795 0.87420183
vt 0.75430489 0.8511284
vt 0.77178735 0.8291617
vt 0.77686685 0.81194544
vt 0.98368734 0.46076077
vt 0.98369092 0.465675
vt 0.93446022 0.49684131
vt 0.93439007 0.44352293
vt 0.93243283 0.46760082
vt 0.96907413 0.43791473
vt 0.9114418 0.4721148
vt 0.92345619 0.45597911
vt 0.95183384 0.41718543
vt 0.98367935 0.43592948
vt 0.91390741 0.43998885
vt 0.98030335 0.41751659
vt 0.90797853 0.45786953
vt 0.92757791 0.41840702
vt 0.98367536 0.42918879
vt 0.89281648 0.4658913
vt 0.89435875 0.44859207
vt 0.98366964 0.41945279
vt 0.8783232 0.47225779
vt 0.0034380204 0.66958618
vt 0.0034224996 0.64137548
vt 0.032297354 0.66092712
vt 0.0034823797 0.68419659
vt 0.040246602 0.63793892
vt 0.051376205 0.67984879
vt 0.026410852 0.62923288
vt 0.060835216 0.64399904
vt 0.003172186 0.62843412
vt 0.069673762 0.61931568
vt 0.085656799 0.66346645
vt 0.042139102 0.60519421
vt 0.085323997 0.62071532
vt 0.075401723 0.68197894
vt 0.084117979 0.63575548
vt 0.094269425 0.68133456
vt 0.10848581 0.66689539
vt 0.094514094 0.62069893
vt 0.0039488967 0.35877621
vt 0.041522112 0.35046655
vt 0.028951937 0.36919338
vt 0.013407188 0.34134835
vt 0.036137976 0.37162578
vt 0.055634771 0.33639872
vt 0.047482781 0.36622435
vt 0.10634986 0.3566547
vt 0.02912296 0.32824576
vt 0.065147996 0.36722469
vt 0.10183997 0.34762496
vt 0.064256355 0.29750288
vt 0.032078207 0.30277562
vt 0.08471518 0.31556231
vt 0.03165336 0.28608418
vt 0.087322555 0.30306846
vt 0.10579561 0.32902676
vt 0.055458102 0.28484207
vt 0.10522826 0.31163442
vt 0.094788738 0.30348325
vt 0.94028026 0.32251006
vt 0.92200112 0.31464177
vt 0.93987924 0.32211345
vt 0.93214059 0.3426609
vt 0.9312982 0.30985248
vt 0.96272558 0.33244908
vt 0.89566261 0.35060388
vt 0.92619926 0.30611277
vt 0.97292852 0.33616042
vt 0.9201051 0.36596113
vt 0.88528144 0.32033718
vt 0.91444117 0.29758406
vt 0.96871936 0.34329277
vt 0.92968023 0.36861879
vt 0.90989 0.3705042
vt 0.88093871 0.30312383
vt 0.87850112 0.33003402
vt 0.97605026 0.33754146
vt 0.94075686 0.35653967
vt 0.88034451 0.37041533
vt 0.97443503 0.34236306
vt 0.95558745 0.36190414
vt 0.9779734 0.33839226
vt 0.9719649 0.34660798
vt 0.96378928 0.36218184
vt 0.32382241 0.36275607
vt 0.34533411 0.34504575
vt 0.37692851 0.35301691
vt 0.33294049 0.37049258
vt 0.33242667 0.33600658
vt 0.38636667 0.33212209
vt 0.35994807 0.32993311
vt 0.31604621 0.346865
vt 0.41360137 0.3382405
vt 0.32961151 0.30842817
vt 0.38689348 0.31702644
vt 0.41227448 0.33208036
vt 0.40048039 0.31142718
vt 0.4094944 0.31572247
vt 0.38674688 0.31126791
vt 0.39242524 0.31184381
vt 0.33805898 0.30270362
vt 0.32940722 0.30184478
vt 0.50215477 0.30860746
vt 0.50150561 0.33312923
vt 0.47002029 0.33289826
vt 0.48127624 0.2951206
vt 0.50609154 0.32837427
vt 0.4822621 0.34032196
vt 0.46149078 0.31293249
vt 0.49218684 0.29258651
vt 0.51541585 0.31609225
vt 0.48246524 0.37179911
vt 0.44397277 0.32899362
vt 0.44214317 0.30882156
vt 0.50502717 0.3051002
vt 0.49302241 0.28916866
vt 0.51095665 0.3120417
vt 0.45726204 0.36747962
vt 0.49019772 0.34382111
vt 0.46888274 0.29295784
vt 0.50605989 0.30706519
vt 0.47967377 0.27748251
vt 0.50721592 0.30825114
vt 0.47801876 0.27473301
vt 0.8461442 0.83024818
vt 0.83127254 0.84183967
vt 0.85523689 0.79516715
vt 0.82771027 0.87085223
vt 0.8378852 0.79185593
vt 0.82480633 0.86269951
vt 0.82445365 0.83114195
vt 0.85043907 0.78776777
vt 0.81547987 0.84978461
vt 0.25397766 0.96441394
vt 0.24284329 0.93510312
vt 0.2995533 0.93465298
vt 0.30138007 0.96159381
vt 0.22516261 0.94011718
vt 0.22356275 0.96168858
vt 0.95145524 0.94424671
vt 0.96642518 0.94048166
vt 0.9645471 0.94763368
vt 0.95796436 0.95702934
vt 0.94461703 0.92811298
vt 0.97273707 0.94417763
vt 0.96847296 0.96062034
vt 0.95437139 0.92523134
vt 0.97096068 0.94786447
vt 0.97492242 0.93823063
vt 0.96935976 0.95440531
vt 0.96857083 0.96453452
vt 0.95526212 0.9101516
vt 0.97523016 0.93716484
vt 0.94234425 0.9042781
vt 0.97483796 0.92902637
vt 0.97470862 0.9301517
vt 0.95786041 0.89745402
vt 0.97497141 0.92832726
vt 0.97044629 0.91158009
vt 0.98064756 0.90530258
vt 0.97836298 0.9155674
vt 0.98100024 0.90562844
vt 0.0058911657 0.93218684
vt 0.011174846 0.95514572
vt 0.004768054 0.99704862
vt 0.62582904 0.26003218
vt 0.62919843 0.28058851
vt 0.59847414 0.30910033
vt 0.56591761 0.26352036
vt 0.63057703 0.30934417
vt 0.57462841 0.30105215
vt 0.56979483 0.24377835
vt 0.97433037 0.87154555
vt 0.94970983 0.8673082
vt 0.95610458 0.85730839
vt 0.96767431 0.84821093
vt 0.94201058 0.8457284
vt 0.98956484 0.85467279
vt 0.98388988 0.84886026
vt 0.95438886 0.8289631
vt 0.98059493 0.84556854
vt 0.97222561 0.84276968
vt 0.97886556 0.84436291
vt 0.97361457 0.83486062
vt 0.97292006 0.83335984
vt 0.9720459 0.83229876
vt 0.97001541 0.82658321
vt 0.96680528 0.80975133
vt 0.95831043 0.80867541
vt 0.035566922 0.97484231
vt 0.045207873 0.97014284
vt 0.052319262 0.99063259
vt 0.045647874 0.99551606
vt 0.037088476 0.96078289
vt 0.062837005 0.97191769
vt 0.054572221 0.96374989
vt 0.040269922 0.94526076
vt 0.066447608 0.9590432
vt 0.061007921 0.9520312
vt 0.072245955 0.95826918
vt 0.041017376 0.94138449
vt 0.83083606 0.91122705
vt 0.83437347 0.91352999
vt 0.82528514 0.91636413
vt 0.83321828 0.89790577
vt 0.83639586 0.92441249
vt 0.85251856 0.89866912
vt 0.866642 0.91994375
vt 0.81718451 0.92794973
vt 0.83778453 0.88929999
vt 0.8425743 0.93359888
vt 0.61254698 0.96653306
vt 0.60293132 0.95799643
vt 0.60655653 0.94655848
vt 0.6176582 0.95869839
vt 0.60762143 0.98087209
vt 0.62813902 0.97594768
vt 0.59685606 0.96317446
vt 0.62930924 0.99358517
vt 0.61565816 0.99702525
vt 0.31686857 0.9641605
vt 0.33040753 0.95179927
vt 0.36150238 0.93587762
vt 0.3421323 0.96293396
vt 0.092965044 0.96293181
vt 0.11107951 0.96940136
vt 0.083764561 0.98094416
vt 0.06727244 0.97174704
vt 0.56850904 0.94044775
vt 0.56680065 0.9334445
vt 0.58171493 0.93526548
vt 0.583525 0.94719684
vt 0.59309107 0.96489036
vt 0.58244699 0.96026099
vt 0.60271162 0.95206958
vt 0.59169704 0.93966949
vt 0.59546906 0.94281048
vt 0.60138565 0.94653839
vt 0.60564196 0.94877744
vt 0.9789964 0.92719418
vt 0.99493778 0.93115199
vt 0.98597765 0.94872344
vt 0.990107 0.94364184
vt 0.99550134 0.9561981
vt 0.98617256 0.9644295
vt 0.97182125 0.96017027
vt 0.57562804 0.96648836
vt 0.57669228 0.97254574
vt 0.56415862 0.97967875
vt 0.55007428 0.96294624
vt 0.55007404 0.96205717
vt 0.55007595 0.97325772
vt 0.55007344 0.96137685
vt 0.57403326 0.94691277
vt 0.55006808 0.9537437
vt 0.55044812 0.95017844
vt 0.55006582 0.95028734
vt 0.11299954 0.9487412
vt 0.11388656 0.96083426
vt 0.088320471 0.94867885
vt 0.091116294 0.94015157
vt 0.083508633 0.95657218
vt 0.085590467 0.94669122
vt 0.083851606 0.94917119
vt 0.082487255 0.96403319
vt 0.010286482 0.98730659
vt 0.026001431 0.98873162
vt 0.025094885 0.99316978
vt 0.0048156381 0.99371248
vt 0.031159094 0.99555409
vt 0.13252269 0.981785
vt 0.13023074 0.99075168
vt 0.11296324 0.97228271
vt 0.11291203 0.97158986
vt 0.12243281 0.99650949
vt 0.11367709 0.97039521
vt 0.11699624 0.98351902
vt 0.62098598 0.96113402
vt 0.63203806 0.94153965
vt 0.63384163 0.94950587
vt 0.63484889 0.96477997
vt 0.61276895 0.95412892
vt 0.025527839 0.98702079
vt 0.035027482 0.98620981
vt 0.033360943 0.99553555
vt 0.019608553 0.98036182
vt 0.0217034 0.97316438
vt 0.032843854 0.98263198
vt 0.1204832 0.96527761
vt 0.11270835 0.94857937
vt 0.12931116 0.94611329
vt 0.13567314 0.94995666
vt 0.09815298 0.97762805
vt 0.10729877 0.97480977
vt 0.098018035 0.98030347
vt 0.098819233 0.97489369
vt 0.097484797 0.99690348
vt 0.03850447 0.94984758
vt 0.028341366 0.96535921
vt 0.019441191 0.95126003
vt 0.3115024 0.96535921
vt 0.30133927 0.94984758
vt 0.31670228 0.94906867
vt 0.32040256 0.95126003
vt 0.20621343 0.97563559
vt 0.20932563 0.98570299
vt 0.20621215 0.98297763
vt 0.22406167 0.97811735
vt 0.20621476 0.99066383
vt 0.20622033 0.99620903
vt 0.035254344 0.9925974
vt 0.035528231 0.99541128
vt 0.034605131 0.99443942
vt 0.03977542 0.97765946
vt 0.030334735 0.99446726
vt 0.016261965 0.99555075
vt 0.023813182 0.99336421
vt 0.017998978 0.99438924
vt 0.0053250268 0.99407101
vt 0.0052621556 0.99586135
vt 0.0035592751 0.98335344
vt 0.074508108 0.98801219
vt 0.085201941 0.98721445
vt 0.07441169 0.99624449
vt 0.0082118716 0.99558842
vt 0.0079175681 0.99474168
vt 0.009356387 0.99488032
vt 0.0074142683 0.99547213
usemtl Tile_+038_+019_L19_000111_0
f 16/221 104/222 86/223
f 117/942 101/943 102/944
f 93/195 114/196 95/197
f 94/198 93/195 95/197
f 82/104 95/105 111/106
f 91/201 94/198 25/199
f 105/260 94/263 91/256
f 64/116 115/133 116/128
f 64/905 113/906 112/907
f 114/111 112/108 95/105
f 64/116 52/110 113/114
f 111/106 95/105 112/108
f 52/110 111/106 112/108
f 68/599 98/600 22/601
f 17/224 16/221 86/223
f 66/818 13/819 98/820
f 33/232 96/228 16/221
f 13/248 24/245 98/238
f 90/247 103/243 97/239
f 97/239 84/229 107/233
f 91/256 92/253 105/260
f 102/944 101/943 523/946
f 100/252 50/249 527/255
f 526/262 100/252 528/259
f 98/238 99/242 96/228
f 99/242 24/245 50/249
f 24/245 99/242 98/238
f 530/945 102/944 531/947
f 103/243 84/229 97/239
f 90/247 88/251 25/244
f 92/253 91/256 25/244
f 84/229 103/243 83/240
f 25/244 83/240 90/247
f 86/223 104/222 87/225
f 87/225 104/222 16/221
f 16/221 96/228 87/225
f 33/232 98/238 96/228
f 88/251 90/247 89/250
f 84/229 86/223 87/225
f 84/229 29/226 86/223
f 98/238 33/232 22/231
f 94/198 95/197 25/199
f 82/202 25/199 95/197
f 83/240 103/243 90/247
f 82/202 53/203 25/199
f 112/108 113/114 52/110
f 98/820 68/821 66/818
f 100/252 99/242 50/249
f 69/215 76/216 80/218
f 11/211 27/207 30/209
f 84/229 83/240 26/235
f 7/553 14/554 9/555
f 151/524 40/525 41/526
f 8/575 45/568 2/563
f 7/553 15/557 14/554
f 15/557 6/560 3/564
f 2/563 45/568 6/560
f 76/216 81/217 80/218
f 80/572 1/559 69/566
f 13/819 66/818 9/822
f 32/237 23/227 44/241
f 68/580 67/573 66/562
f 10/120 77/117 63/113
f 7/553 6/560 15/557
f 64/116 116/128 65/124
f 62/107 52/110 63/113
f 461/132 58/139 57/146
f 458/144 57/146 56/158
f 54/536 56/537 55/538
f 75/152 61/159 57/146
f 72/126 74/121 73/123
f 51/119 52/110 64/116
f 24/245 13/248 50/249
f 19/1 28/2 49/3
f 39/539 55/538 21/541
f 46/465 45/466 8/467
f 43/605 67/602 44/604
f 21/541 55/538 42/544
f 21/532 20/528 39/530
f 455/236 23/227 11/230
f 29/226 26/235 27/234
f 11/230 29/226 27/234
f 29/226 84/229 26/235
f 17/224 86/223 29/226
f 23/227 17/224 11/230
f 22/231 33/232 16/221
f 16/221 23/227 22/231
f 47/16 441/22 48/25
f 19/1 18/8 34/5
f 35/913 37/914 36/915
f 28/916 35/913 36/915
f 19/1 34/5 28/2
f 2/563 5/567 4/574
f 7/553 2/563 6/560
f 6/560 45/568 537/576
f 536/570 6/560 538/578
f 532/254 13/248 539/257
f 540/558 15/557 541/565
f 15/557 3/564 544/569
f 9/555 14/554 540/558
f 23/227 16/221 17/224
f 539/257 9/261 547/264
f 46/465 8/467 434/468
f 81/217 76/216 459/214
f 8/575 2/563 4/574
f 459/214 432/219 81/217
f 432/219 4/220 81/217
f 80/218 81/217 4/220
f 1/559 5/567 2/563
f 80/572 4/574 5/567
f 5/567 1/559 80/572
f 8/467 4/470 434/468
f 432/471 434/468 4/470
f 432/135 459/129 422/125
f 76/216 69/215 459/214
f 459/214 69/215 43/212
f 69/566 67/573 43/581
f 455/213 11/211 43/212
f 67/573 69/566 66/562
f 1/559 66/562 69/566
f 44/604 67/602 32/603
f 22/601 32/603 67/602
f 67/602 68/599 22/601
f 9/555 12/556 7/553
f 12/823 9/822 66/818
f 66/562 1/559 12/556
f 1/559 7/553 12/556
f 82/104 111/106 62/107
f 63/113 52/110 79/115
f 53/109 82/104 62/107
f 72/126 456/122 78/118
f 79/115 78/118 63/113
f 51/119 65/124 73/123
f 458/144 71/137 461/132
f 73/123 74/121 79/115
f 71/137 73/123 461/132
f 65/124 461/132 73/123
f 52/110 51/119 79/115
f 73/123 79/115 51/119
f 461/132 65/124 116/128
f 461/132 57/146 458/144
f 42/544 60/543 61/550
f 116/128 58/139 461/132
f 60/162 57/146 61/159
f 60/162 56/158 57/146
f 58/139 75/152 57/146
f 42/544 85/547 21/541
f 42/544 55/538 60/543
f 42/544 454/551 85/547
f 462/206 31/208 38/204
f 25/199 53/203 38/204
f 462/112 53/109 62/107
f 26/205 25/199 38/204
f 25/244 26/235 83/240
f 17/224 29/226 11/230
f 31/208 10/210 11/211
f 31/208 30/209 38/204
f 27/207 38/204 30/209
f 38/204 27/207 26/205
f 63/113 462/112 62/107
f 10/210 31/208 462/206
f 53/203 462/206 38/204
f 111/106 52/110 62/107
f 10/210 459/214 43/212
f 63/113 77/117 462/112
f 458/144 70/130 71/137
f 77/117 10/120 462/112
f 455/606 43/605 44/604
f 30/209 31/208 11/211
f 422/125 459/129 10/120
f 56/537 60/543 59/540
f 55/538 59/540 60/543
f 56/537 59/540 55/538
f 39/539 54/536 55/538
f 457/542 54/536 39/539
f 39/539 322/545 457/542
f 63/113 456/122 409/127
f 72/126 460/131 456/122
f 458/144 54/154 70/130
f 458/144 56/158 54/154
f 54/154 412/150 70/130
f 54/536 457/542 412/546
f 460/131 72/126 73/123
f 71/137 460/131 73/123
f 70/130 460/131 71/137
f 78/118 74/121 72/126
f 70/130 456/122 460/131
f 422/125 63/113 409/127
f 456/122 70/130 409/127
f 79/115 74/121 78/118
f 63/113 78/118 456/122
f 63/113 422/125 10/120
f 65/124 51/119 64/116
f 40/525 39/530 20/528
f 44/241 23/227 455/236
f 34/5 35/9 28/2
f 34/5 18/8 150/12
f 23/227 32/237 22/231
f 2/563 7/553 1/559
f 454/551 42/544 149/552
f 11/211 10/210 43/212
f 321/548 322/545 39/539
f 411/549 457/542 322/545
f 394/310 366/311 439/312
f 47/16 18/8 324/14
f 400/165 438/166 435/167
f 400/165 372/170 375/173
f 393/314 394/310 433/313
f 330/270 201/271 205/272
f 140/687 311/688 358/689
f 324/14 452/17 305/19
f 444/20 306/23 305/19
f 305/19 450/15 444/20
f 425/28 442/21 336/30
f 321/534 39/530 426/529
f 432/135 422/125 389/142
f 422/125 421/149 389/142
f 372/303 447/307 373/306
f 388/809 398/810 438/811
f 406/584 401/585 391/586
f 391/586 401/585 399/589
f 387/171 388/169 400/165
f 418/724 408/725 413/726
f 70/130 412/150 419/143
f 315/401 329/402 405/403
f 381/735 334/737 323/734
f 329/176 388/169 386/174
f 379/738 373/741 381/735
f 336/30 442/21 299/26
f 393/473 391/475 395/477
f 331/404 405/403 364/406
f 362/47 360/52 328/50
f 327/55 340/58 361/59
f 173/346 309/347 353/348
f 356/364 343/380 347/372
f 419/143 415/151 410/136
f 446/694 445/691 307/693
f 304/690 142/692 140/687
f 145/706 146/707 291/708
f 139/698 448/701 141/696
f 448/701 139/698 137/704
f 449/6 337/4 49/3
f 324/14 325/7 452/17
f 440/10 303/18 450/15
f 303/18 444/20 450/15
f 325/7 440/10 450/15
f 440/10 337/4 449/6
f 325/7 453/11 19/1
f 303/697 304/690 446/694
f 449/695 142/692 304/690
f 303/697 440/700 449/695
f 304/690 303/697 449/695
f 307/693 308/702 451/699
f 308/702 444/703 451/699
f 446/694 307/693 451/699
f 303/697 451/699 444/703
f 302/716 307/719 358/711
f 446/694 451/699 303/697
f 446/694 304/690 445/691
f 358/711 301/713 302/716
f 308/702 300/705 444/703
f 358/689 307/693 445/691
f 300/722 308/721 302/716
f 301/713 352/720 302/716
f 358/689 445/691 304/690
f 358/689 304/690 140/687
f 305/19 306/23 442/21
f 354/37 359/43 299/26
f 375/302 384/295 387/301
f 443/24 442/21 425/28
f 381/735 373/741 424/739
f 447/307 424/309 373/306
f 428/740 334/737 427/742
f 372/303 376/305 375/302
f 436/896 437/897 403/898
f 315/814 399/817 402/815
f 439/312 433/313 394/310
f 433/313 439/312 46/316
f 335/533 321/534 426/529
f 151/29 48/25 441/22
f 324/14 442/21 47/16
f 442/21 324/14 305/19
f 442/21 443/24 441/22
f 425/28 423/31 441/22
f 441/22 47/16 442/21
f 19/1 453/11 18/8
f 36/915 148/920 139/919
f 449/917 49/918 28/916
f 28/916 36/915 449/917
f 548/323 46/316 549/319
f 549/319 439/312 550/315
f 432/471 433/469 434/468
f 433/469 46/465 434/468
f 433/469 389/472 393/473
f 406/134 422/125 409/127
f 397/729 381/735 323/734
f 406/584 319/590 403/588
f 430/901 436/896 431/899
f 431/593 403/588 319/590
f 403/813 437/816 438/811
f 372/170 400/165 333/168
f 431/899 436/896 403/898
f 435/900 438/902 437/897
f 435/167 333/168 400/165
f 319/590 430/594 431/593
f 430/901 427/903 435/900
f 427/597 320/595 428/598
f 333/904 435/900 427/903
f 423/527 426/529 40/525
f 334/737 333/743 427/742
f 334/737 381/735 424/739
f 335/850 429/851 416/852
f 426/529 425/531 335/533
f 423/527 425/531 426/529
f 336/30 335/34 425/28
f 372/170 333/168 424/172
f 151/524 423/527 40/525
f 417/44 429/38 336/30
f 416/852 429/851 417/854
f 409/127 319/140 406/134
f 416/852 322/853 335/850
f 416/852 411/855 322/853
f 323/147 319/140 409/127
f 336/30 418/48 417/44
f 408/725 397/729 409/731
f 408/725 418/724 383/727
f 415/151 407/161 414/157
f 416/155 413/156 419/143
f 417/164 418/163 416/155
f 408/725 383/727 397/729
f 411/160 416/155 412/150
f 412/150 416/155 419/143
f 413/156 416/155 418/163
f 415/151 419/143 413/156
f 413/156 407/161 415/151
f 457/542 411/549 412/546
f 70/130 419/143 410/136
f 414/157 410/136 415/151
f 410/733 408/725 409/731
f 408/725 410/733 414/730
f 407/728 413/726 408/725
f 408/725 414/730 407/728
f 410/136 409/127 70/130
f 323/734 409/731 397/729
f 421/149 422/125 318/141
f 406/134 318/141 422/125
f 420/985 318/986 317/987
f 318/982 420/983 421/984
f 420/985 317/987 421/988
f 179/326 366/311 365/328
f 206/409 244/415 365/411
f 215/182 404/181 330/179
f 215/408 206/409 405/403
f 196/331 179/326 365/328
f 405/403 404/405 215/408
f 405/403 329/402 404/405
f 243/283 241/276 368/278
f 202/273 368/278 241/276
f 365/411 364/406 206/409
f 205/183 215/182 330/179
f 386/294 385/288 367/282
f 363/275 202/273 330/270
f 371/177 363/180 330/179
f 363/180 371/177 367/178
f 395/592 391/586 399/589
f 392/474 390/476 391/475
f 405/403 331/404 315/401
f 366/311 393/314 396/317
f 396/317 331/320 366/311
f 395/321 332/324 396/317
f 403/588 401/585 406/584
f 391/475 393/473 392/474
f 393/473 389/472 392/474
f 317/153 318/141 389/142
f 318/141 390/148 389/142
f 390/476 392/474 389/472
f 391/586 390/587 406/584
f 402/591 401/585 403/588
f 403/813 438/811 398/810
f 384/295 374/296 243/283
f 402/815 398/810 315/814
f 401/585 402/591 399/589
f 318/141 406/134 390/148
f 398/810 329/812 315/814
f 395/413 399/412 316/410
f 385/288 243/283 367/282
f 438/166 400/165 388/169
f 398/810 388/809 329/812
f 374/296 375/302 376/305
f 336/30 383/45 418/48
f 382/732 397/729 383/727
f 336/30 380/35 382/39
f 380/736 379/738 381/735
f 379/32 380/35 336/30
f 379/308 377/299 373/306
f 379/32 378/57 377/62
f 370/289 374/296 377/299
f 377/299 374/296 372/303
f 373/306 377/299 372/303
f 369/53 377/62 378/57
f 374/296 370/289 243/283
f 370/289 208/285 243/283
f 386/174 371/177 329/176
f 386/174 388/169 387/171
f 400/165 375/173 387/171
f 386/294 387/301 384/295
f 384/295 385/288 386/294
f 374/296 376/305 372/303
f 243/283 385/288 384/295
f 240/56 209/61 369/53
f 209/61 370/66 369/53
f 370/66 377/62 369/53
f 299/847 378/848 379/849
f 299/26 379/32 336/30
f 361/59 239/60 328/50
f 239/60 240/56 328/50
f 362/47 328/50 299/26
f 328/50 240/56 369/53
f 369/53 299/26 328/50
f 369/53 378/57 299/26
f 359/43 362/47 299/26
f 393/314 395/321 396/317
f 366/311 179/326 552/322
f 550/315 366/311 555/318
f 367/178 371/177 386/174
f 363/275 368/278 202/273
f 365/328 244/334 196/331
f 331/320 364/325 366/311
f 366/311 364/325 365/328
f 363/275 367/282 368/278
f 367/282 243/283 368/278
f 209/61 208/70 370/66
f 346/33 354/37 299/26
f 340/58 344/63 361/59
f 327/55 360/52 340/58
f 360/52 362/47 355/46
f 361/59 344/63 235/68
f 341/54 339/67 344/63
f 342/51 340/58 360/52
f 362/47 359/43 355/46
f 340/58 341/54 344/63
f 358/711 311/709 291/708
f 358/711 291/708 301/713
f 314/366 351/373 312/359
f 313/353 348/358 350/365
f 348/358 313/353 309/347
f 357/352 309/347 272/349
f 309/347 356/364 348/358
f 312/715 293/712 310/717
f 313/353 312/359 310/350
f 143/886 345/887 144/888
f 355/46 347/42 343/49
f 347/372 348/358 356/364
f 314/723 352/720 351/718
f 356/364 296/377 343/380
f 347/42 355/46 354/37
f 353/891 345/887 176/889
f 356/364 295/370 296/377
f 353/891 310/892 345/887
f 349/890 175/893 144/888
f 352/720 314/723 300/722
f 300/27 314/41 350/36
f 302/716 352/720 300/722
f 346/33 347/42 354/37
f 346/33 348/40 347/42
f 355/46 359/43 354/37
f 176/889 345/887 143/886
f 350/36 348/40 346/33
f 312/715 351/718 301/713
f 352/720 301/713 351/718
f 144/999 175/1000 170/1001
f 146/707 293/712 292/710
f 345/887 349/890 144/888
f 345/887 310/892 349/890
f 356/364 309/347 294/357
f 295/370 356/364 294/357
f 355/46 343/49 342/51
f 342/51 343/49 341/54
f 343/431 338/432 341/433
f 341/54 340/58 342/51
f 500/437 339/435 338/432
f 339/435 341/433 338/432
f 423/31 151/29 441/22
f 324/14 453/11 325/7
f 19/1 337/4 325/7
f 452/17 325/7 450/15
f 322/853 321/856 335/850
f 323/596 320/595 319/590
f 428/740 323/734 334/737
f 315/401 332/407 316/410
f 399/412 315/401 316/410
f 350/365 314/366 313/353
f 308/721 307/719 302/716
f 449/917 36/915 139/919
f 49/3 337/4 19/1
f 449/695 139/698 142/692
f 18/8 453/11 324/14
f 305/19 452/17 450/15
f 440/10 325/7 337/4
f 306/23 300/27 299/26
f 300/27 306/23 444/20
f 442/21 306/23 299/26
f 39/530 40/525 426/529
f 425/28 441/22 443/24
f 433/469 432/471 389/472
f 428/598 320/595 323/596
f 398/810 402/815 403/813
f 430/594 320/595 427/597
f 436/896 430/901 435/900
f 436/896 435/900 437/897
f 320/595 430/594 319/590
f 424/309 447/307 372/303
f 333/168 334/175 424/172
f 429/38 335/34 336/30
f 382/39 383/45 336/30
f 381/735 397/729 382/732
f 364/406 405/403 206/409
f 395/413 316/410 332/407
f 329/176 371/177 330/179
f 332/407 315/401 331/404
f 332/324 331/320 396/317
f 421/149 317/153 389/142
f 374/296 384/295 375/302
f 327/55 361/59 328/50
f 328/50 360/52 327/55
f 366/311 394/310 393/314
f 300/27 346/33 299/26
f 355/46 342/51 360/52
f 312/715 301/713 292/710
f 346/33 300/27 350/36
f 309/347 313/353 310/350
f 312/359 313/353 314/366
f 310/350 353/348 309/347
f 272/349 309/347 173/346
f 292/710 293/712 312/715
f 310/892 293/895 349/890
f 175/714 293/712 146/707
f 292/710 291/708 146/707
f 174/351 272/349 173/346
f 296/434 326/436 338/432
f 343/431 296/434 338/432
f 301/713 291/708 292/710
f 404/181 329/176 330/179
f 381/735 382/732 380/736
f 349/890 293/895 175/893
f 213/857 227/858 228/859
f 288/478 289/479 212/480
f 290/485 288/478 264/484
f 231/661 227/662 213/663
f 286/509 494/505 287/511
f 180/421 188/418 181/419
f 238/69 237/64 219/72
f 197/74 200/65 238/69
f 197/286 207/279 200/290
f 183/189 187/194 556/192
f 214/423 190/414 189/420
f 181/187 192/184 186/186
f 188/418 180/421 182/422
f 494/824 230/825 229/826
f 284/636 283/637 560/638
f 223/607 282/608 221/609
f 153/874 280/875 216/876
f 158/864 226/866 210/860
f 276/843 275/844 589/845
f 227/858 211/861 228/859
f 158/489 521/483 136/493
f 272/349 174/351 273/355
f 591/744 258/745 592/746
f 259/754 246/759 258/745
f 492/379 294/357 476/371
f 503/443 253/450 252/454
f 193/277 204/274 201/271
f 199/665 231/661 242/666
f 198/667 227/662 199/665
f 240/56 239/60 237/64
f 237/64 238/69 240/56
f 237/64 235/68 234/73
f 233/77 232/80 219/72
f 195/335 196/331 214/338
f 190/973 214/974 203/975
f 209/61 240/56 200/65
f 200/65 240/56 238/69
f 225/76 197/74 238/69
f 181/187 183/189 557/190
f 599/619 220/611 601/623
f 223/607 221/609 224/610
f 602/79 219/72 605/83
f 219/72 217/89 604/88
f 219/72 218/85 217/89
f 213/663 216/664 231/661
f 227/662 231/661 199/665
f 198/667 211/669 227/662
f 216/664 242/666 231/661
f 242/879 216/876 280/875
f 213/877 153/874 216/876
f 153/862 210/860 163/863
f 197/286 185/280 207/279
f 185/280 197/286 606/291
f 196/416 244/415 206/409
f 330/270 202/273 201/271
f 193/277 201/271 185/280
f 201/271 202/273 241/276
f 241/276 243/283 207/279
f 197/74 225/76 582/82
f 201/271 207/279 185/280
f 207/279 201/271 241/276
f 243/283 208/285 207/279
f 208/285 200/290 207/279
f 192/417 190/414 215/408
f 215/182 205/183 192/184
f 201/271 204/274 205/272
f 194/281 205/272 193/277
f 194/185 192/184 205/183
f 206/409 215/408 190/414
f 206/409 190/414 196/416
f 190/973 203/975 196/976
f 189/339 195/335 214/338
f 193/277 185/280 186/284
f 183/298 191/293 184/287
f 184/287 185/280 607/292
f 184/287 187/300 183/298
f 187/300 184/287 608/297
f 184/287 191/293 186/284
f 185/280 184/287 186/284
f 179/326 196/331 195/335
f 189/339 182/342 178/337
f 178/337 195/335 189/339
f 195/335 178/337 179/326
f 188/418 190/414 192/417
f 189/420 190/414 188/418
f 177/343 178/337 182/342
f 192/184 194/185 186/186
f 194/281 193/277 186/284
f 192/417 181/419 188/418
f 182/422 189/420 188/418
f 182/422 180/421 177/427
f 565/336 178/337 566/341
f 566/341 177/343 567/344
f 559/428 180/421 571/425
f 180/421 181/419 570/424
f 229/826 230/825 610/829
f 613/830 229/826 615/834
f 262/831 230/825 261/828
f 494/505 470/502 261/503
f 230/825 494/824 261/828
f 494/824 229/826 287/827
f 522/515 287/511 612/519
f 286/509 522/515 618/520
f 287/511 522/515 286/509
f 501/71 234/73 235/68
f 218/85 219/72 232/80
f 493/962 285/963 624/964
f 224/610 284/612 223/607
f 218/85 236/91 217/89
f 284/636 250/640 283/637
f 234/73 501/71 281/81
f 281/81 233/77 234/73
f 233/77 281/81 232/80
f 344/63 501/71 235/68
f 218/85 232/80 281/81
f 233/77 237/64 234/73
f 564/647 284/636 572/642
f 255/652 254/655 484/648
f 218/85 486/94 254/95
f 218/85 254/95 236/91
f 250/640 484/648 481/649
f 255/652 236/659 254/655
f 252/454 253/450 513/449
f 468/504 286/509 583/512
f 268/769 495/770 252/771
f 465/508 468/504 621/510
f 279/841 275/844 276/843
f 264/682 279/685 488/686
f 517/836 262/831 261/828
f 468/504 470/502 494/505
f 494/505 286/509 468/504
f 488/838 517/836 261/828
f 517/836 276/843 590/842
f 212/480 278/481 288/478
f 153/874 152/878 280/875
f 516/931 514/932 274/933
f 515/671 199/665 588/673
f 277/674 518/668 515/671
f 198/667 518/668 211/669
f 518/668 277/674 278/677
f 518/668 199/665 515/671
f 134/967 162/968 161/969
f 518/668 278/677 212/675
f 213/857 210/860 153/862
f 134/967 490/970 162/968
f 519/880 156/881 633/883
f 152/878 156/881 519/880
f 136/493 520/492 490/499
f 274/680 514/679 515/671
f 518/668 198/667 199/665
f 228/859 211/861 210/860
f 164/865 210/860 159/867
f 160/868 158/864 154/869
f 213/857 228/859 210/860
f 519/880 280/875 152/878
f 242/879 519/880 638/882
f 280/875 519/880 242/879
f 587/670 242/666 639/672
f 211/861 158/864 210/860
f 518/668 212/675 211/669
f 158/489 211/486 521/483
f 521/483 520/492 136/493
f 211/486 212/480 521/483
f 212/480 289/479 521/483
f 162/968 490/970 132/971
f 521/483 289/479 471/482
f 471/482 489/488 521/483
f 477/356 272/349 474/362
f 168/491 489/488 471/482
f 489/488 520/492 521/483
f 290/485 471/482 288/478
f 515/671 514/679 265/676
f 264/484 487/490 290/485
f 632/939 279/938 640/937
f 640/937 516/931 641/935
f 119/787 129/788 483/789
f 517/836 279/841 276/843
f 230/825 262/831 517/836
f 230/825 517/836 628/839
f 264/682 265/676 516/681
f 265/676 277/674 515/671
f 278/677 277/674 265/676
f 265/676 264/682 278/677
f 288/478 471/482 289/479
f 478/790 119/787 483/789
f 498/793 478/790 483/789
f 512/374 510/382 642/386
f 478/790 512/804 643/808
f 271/389 269/384 476/371
f 256/762 480/765 482/757
f 309/347 357/352 294/357
f 297/438 295/441 294/444
f 495/770 270/775 508/774
f 475/363 477/356 473/369
f 475/363 476/371 294/357
f 130/381 509/367 126/368
f 496/955 469/956 648/957
f 476/371 269/384 492/379
f 297/438 492/448 268/445
f 499/487 466/495 474/498
f 263/442 297/438 268/445
f 478/790 498/793 474/798
f 492/448 269/453 268/445
f 471/482 290/485 499/487
f 263/442 253/450 503/443
f 268/445 513/449 263/442
f 513/449 253/450 263/442
f 470/502 467/500 488/494
f 290/485 487/490 499/487
f 499/797 483/789 471/802
f 499/797 498/793 483/789
f 513/772 268/769 252/771
f 475/363 473/369 467/376
f 476/371 475/363 497/378
f 129/788 249/792 483/789
f 507/458 491/452 246/461
f 128/791 129/788 119/787
f 645/391 130/381 650/395
f 126/924 124/925 127/926
f 273/355 511/361 272/349
f 495/770 508/774 252/771
f 357/352 475/363 294/357
f 272/349 477/356 357/352
f 126/368 273/355 169/360
f 511/909 512/910 474/911
f 270/775 495/770 271/773
f 273/355 509/367 511/361
f 126/368 509/367 273/355
f 169/360 124/375 126/368
f 270/775 271/773 464/778
f 510/382 509/367 130/381
f 476/371 497/378 248/383
f 464/388 248/383 652/393
f 258/745 246/759 598/755
f 655/989 505/990 656/991
f 657/783 464/778 658/785
f 480/765 256/762 247/756
f 502/90 218/85 281/81
f 480/765 247/756 574/767
f 506/447 472/439 491/452
f 508/774 260/779 593/781
f 260/779 508/774 270/775
f 258/745 463/750 259/754
f 246/92 259/97 502/90
f 506/447 491/452 507/458
f 503/443 252/454 665/456
f 663/993 245/992 667/994
f 245/446 503/443 666/451
f 665/777 508/774 668/780
f 463/750 251/758 481/763
f 669/462 491/452 670/459
f 504/75 506/78 501/71
f 507/87 246/92 502/90
f 501/71 506/78 281/81
f 218/85 502/90 486/94
f 482/641 480/653 576/650
f 504/75 501/71 339/67
f 500/437 472/439 504/440
f 506/78 507/87 281/81
f 339/435 500/437 504/440
f 472/439 506/447 504/440
f 245/446 472/439 503/443
f 255/98 298/96 236/91
f 499/487 487/490 466/495
f 463/750 258/745 257/747
f 257/747 479/753 463/750
f 209/61 200/65 208/70
f 205/272 204/274 193/277
f 237/64 233/77 219/72
f 187/618 220/611 578/614
f 623/630 266/616 671/626
f 266/616 222/613 585/621
f 219/72 225/76 238/69
f 474/911 272/912 511/909
f 493/625 485/620 267/615
f 248/383 497/378 496/387
f 467/376 496/387 497/378
f 467/376 497/378 475/363
f 165/385 126/368 120/390
f 235/68 237/64 239/60
f 491/452 472/439 245/446
f 295/441 297/438 296/434
f 256/762 257/747 247/756
f 196/331 203/340 214/338
f 361/59 235/68 239/60
f 298/96 217/89 236/91
f 220/611 221/609 282/608
f 601/623 187/618 609/629
f 181/187 191/188 183/189
f 578/614 282/608 580/617
f 282/657 223/651 563/654
f 266/616 224/610 222/613
f 220/611 222/613 221/609
f 224/610 221/609 222/613
f 191/188 181/187 186/186
f 261/503 470/502 488/494
f 488/838 279/841 517/836
f 274/680 515/671 635/678
f 298/96 493/102 625/103
f 603/93 298/96 673/99
f 284/612 224/610 267/615
f 285/963 493/962 267/966
f 255/98 485/100 298/96
f 267/615 485/620 284/612
f 501/71 344/63 339/67
f 463/750 481/763 486/760
f 486/658 481/649 254/655
f 486/94 502/90 259/97
f 250/640 485/643 484/648
f 284/636 485/643 250/640
f 473/501 466/495 467/500
f 483/789 249/792 167/796
f 516/931 274/933 629/934
f 132/497 490/499 520/492
f 136/950 490/951 133/952
f 473/369 477/356 474/362
f 132/497 489/488 168/491
f 520/492 489/488 132/497
f 516/681 265/676 514/679
f 487/490 264/484 488/494
f 264/682 516/681 279/685
f 264/484 288/478 278/481
f 595/960 496/955 649/958
f 464/388 271/389 476/371
f 475/363 357/352 477/356
f 294/444 492/448 297/438
f 512/374 511/361 509/367
f 273/355 174/351 169/360
f 338/432 326/436 472/439
f 503/443 472/439 326/436
f 471/802 483/789 167/796
f 167/496 168/491 471/482
f 297/438 326/436 296/434
f 466/495 473/501 474/498
f 503/443 326/436 263/442
f 512/804 478/790 474/798
f 122/803 167/796 249/792
f 467/500 470/502 468/504
f 466/495 487/490 488/494
f 268/769 269/776 271/773
f 468/504 465/508 469/506
f 467/500 468/504 469/506
f 488/494 467/500 466/495
f 648/957 465/959 677/961
f 464/778 260/779 270/775
f 464/388 476/371 248/383
f 510/382 512/374 509/367
f 495/770 268/769 271/773
f 560/638 482/641 577/645
f 486/760 259/754 463/750
f 659/752 257/747 662/749
f 479/753 257/747 482/757
f 257/747 256/762 482/757
f 491/452 245/446 664/457
f 507/87 502/90 281/81
f 479/753 251/758 463/750
f 297/438 263/442 326/436
f 251/644 479/646 283/637
f 481/649 484/648 254/655
f 482/641 283/637 479/646
f 472/439 500/437 338/432
f 266/616 267/615 224/610
f 283/637 250/640 251/644
f 485/643 255/652 484/648
f 267/633 266/634 285/635
f 485/100 493/102 298/96
f 481/649 251/644 250/640
f 249/929 127/926 122/928
f 127/926 249/929 129/930
f 469/506 496/507 467/500
f 119/787 478/790 647/794
f 474/798 498/793 499/797
f 40/525 20/528 41/526
f 21/532 85/535 20/528
f 37/13 35/9 34/5
f 150/12 18/8 47/16
f 149/552 42/544 61/550
f 138/922 139/919 147/921
f 147/921 139/919 148/920
f 140/687 142/692 141/696
f 311/709 145/706 291/708
f 141/696 142/692 139/698
f 137/923 139/919 138/922
f 173/894 353/891 176/889
f 172/354 174/351 173/346
f 169/360 174/351 172/354
f 175/1000 171/1002 170/1001
f 166/1003 168/1004 167/1005
f 157/871 158/864 135/872
f 158/864 136/873 135/872
f 130/381 126/368 165/385
f 210/860 164/865 163/863
f 160/868 226/866 158/864
f 159/867 226/866 160/868
f 158/864 157/871 155/870
f 154/869 158/864 155/870
f 210/860 226/866 159/867
f 135/953 136/950 133/952
f 133/952 490/951 134/954
f 131/972 162/968 132/971
f 680/795 119/787 681/801
f 121/977 126/978 125/979
f 127/981 125/979 126/978
f 123/927 127/926 124/925
f 122/928 127/926 123/927
f 120/980 126/978 121/977
f 94/263 110/266 109/269
f 107/233 84/229 87/225
f 109/200 93/195 94/198
f 110/266 94/263 105/260
f 108/138 115/133 64/116
f 108/138 64/116 118/145
f 118/908 64/905 112/907
f 106/1006 99/1007 100/1008
f 96/228 99/242 106/246
f 92/253 25/244 88/251
f 90/247 97/239 89/250
f 523/946 101/943 525/949
f 524/948 102/944 523/946
f 525/268 101/265 526/262
f 526/262 101/265 100/252
f 527/255 50/249 529/258
f 528/259 100/252 527/255
f 529/258 50/249 532/254
f 530/945 117/942 102/944
f 531/947 102/944 524/948
f 532/254 50/249 13/248
f 533/583 15/557 543/582
f 534/579 15/557 533/583
f 535/1009 3/1010 536/1011
f 536/570 3/564 6/560
f 537/333 45/327 551/330
f 538/578 6/560 537/576
f 539/257 13/248 9/261
f 540/558 14/554 15/557
f 541/565 15/557 542/571
f 542/571 15/557 534/579
f 543/582 15/557 545/577
f 544/1012 3/1010 535/1009
f 545/577 15/557 544/569
f 546/561 9/555 540/558
f 547/264 9/261 546/267
f 548/323 45/327 46/316
f 549/319 46/316 439/312
f 550/315 439/312 366/311
f 551/330 45/327 548/323
f 552/322 179/326 553/329
f 553/329 179/326 554/332
f 554/332 179/326 565/336
f 555/318 366/311 552/322
f 556/628 187/618 579/622
f 557/190 183/189 556/192
f 558/429 177/427 559/428
f 559/428 177/427 180/421
f 560/638 283/637 482/641
f 561/639 284/636 560/638
f 562/191 181/187 557/190
f 563/654 223/651 564/647
f 564/647 223/651 284/636
f 565/336 179/326 178/337
f 566/341 178/337 177/343
f 567/344 177/343 568/345
f 568/430 177/427 558/429
f 569/193 181/187 562/191
f 570/424 181/419 569/426
f 571/425 180/421 570/424
f 572/642 284/636 561/639
f 573/764 247/756 684/761
f 574/767 247/756 573/764
f 575/768 480/765 574/767
f 576/650 480/653 575/656
f 577/645 482/641 576/650
f 578/614 220/611 282/608
f 579/622 187/618 578/614
f 580/660 282/657 563/654
f 581/84 225/76 602/79
f 582/82 225/76 581/84
f 583/512 286/509 584/517
f 584/517 286/509 620/521
f 585/621 222/613 586/627
f 586/627 222/613 600/624
f 587/670 199/665 242/666
f 588/673 199/665 587/670
f 589/845 275/844 631/846
f 590/842 276/843 589/845
f 591/744 257/747 258/745
f 592/746 258/745 660/748
f 593/781 260/779 594/784
f 594/784 260/779 657/783
f 595/394 248/383 496/387
f 596/398 248/383 595/394
f 597/463 246/461 669/462
f 598/464 246/461 597/463
f 599/619 222/613 220/611
f 600/624 222/613 599/619
f 601/623 220/611 187/618
f 602/79 225/76 219/72
f 603/93 217/89 298/96
f 604/88 217/89 603/93
f 605/83 219/72 604/88
f 606/86 197/74 582/82
f 607/292 185/280 606/291
f 608/297 184/287 607/292
f 609/304 187/300 608/297
f 610/829 230/825 611/833
f 611/833 230/825 616/837
f 612/835 287/827 613/830
f 613/830 287/827 229/826
f 614/832 229/826 610/829
f 615/834 229/826 614/832
f 616/837 230/825 636/840
f 617/522 522/515 612/519
f 618/520 522/515 617/522
f 619/523 286/509 618/520
f 620/521 286/509 619/523
f 621/510 468/504 622/514
f 622/514 468/504 626/516
f 623/630 285/631 266/616
f 624/632 285/631 623/630
f 625/965 493/962 624/964
f 626/516 468/504 583/512
f 627/513 465/508 621/510
f 628/839 517/836 590/842
f 629/934 274/933 630/936
f 630/684 274/680 637/683
f 631/941 275/940 632/939
f 632/939 275/940 279/938
f 633/883 156/881 634/885
f 635/678 515/671 588/673
f 636/840 230/825 628/839
f 637/683 274/680 635/678
f 638/882 519/880 633/883
f 639/884 242/879 638/882
f 640/937 279/938 516/931
f 641/935 516/931 629/934
f 642/386 510/382 645/391
f 643/392 512/374 642/386
f 644/806 478/790 643/808
f 645/391 510/382 130/381
f 646/800 478/790 644/806
f 647/794 478/790 646/800
f 648/957 469/956 465/959
f 649/958 496/955 648/957
f 650/395 130/381 678/399
f 651/397 248/383 596/398
f 652/393 248/383 651/397
f 653/396 464/388 652/393
f 654/751 258/745 598/755
f 655/989 245/992 505/990
f 656/991 505/990 663/993
f 657/783 260/779 464/778
f 658/785 464/778 674/786
f 659/752 247/756 257/747
f 660/748 258/745 654/751
f 661/782 508/774 593/781
f 662/749 257/747 591/744
f 663/993 505/990 245/992
f 664/457 245/446 655/460
f 665/777 252/771 508/774
f 666/451 503/443 665/456
f 667/455 245/446 666/451
f 668/780 508/774 661/782
f 669/462 246/461 491/452
f 670/459 491/452 664/457
f 671/626 266/616 585/621
f 672/101 298/96 625/103
f 673/99 298/96 672/101
f 674/400 464/388 653/396
f 675/518 465/508 627/513
f 676/995 465/996 675/997
f 677/998 465/996 676/995
f 679/799 119/787 647/794
f 680/795 128/791 119/787
f 681/801 119/787 682/807
f 682/807 119/787 683/805
f 683/805 119/787 679/799
f 684/761 247/756 659/752
f 685/766 573/764 684/761
usemtl Tile_+038_+019_L19_000111_untextured
