mtllib Tile_+038_+019_L19_000321.mtl
v 7.89724785e+03 4.72251208e+03 2.90248995e+01
v 7.89850204e+03 4.72178001e+03 2.83893726e+01
v 7.89160187e+03 4.72001539e+03 1.50444813e+01
v 7.88769035e+03 4.72246951e+03 3.31610761e+00
v 7.88484068e+03 4.71933155e+03 2.82900355e+00
v 7.89204163e+03 4.72085131e+03 3.39730705e+00
v 7.90419342e+03 4.73892685e+03 4.79466017e+00
v 7.90282104e+03 4.73708803e+03 6.54947942e+00
v 7.89765731e+03 4.72953722e+03 1.97011662e+01
v 7.89708385e+03 4.72798768e+03 2.16237536e+01
v 7.90258182e+03 4.73380036e+03 2.70265266e+01
v 7.90387384e+03 4.73635627e+03 2.70856480e+01
v 7.90348098e+03 4.73818277e+03 2.61321754e+01
v 7.90370677e+03 4.73787968e+03 2.48351665e+01
v 7.87643548e+03 4.74809660e+03 2.00869511e+01
v 7.87567904e+03 4.74809502e+03 2.30063800e+01
v 7.88030117e+03 4.74887278e+03 1.03449350e+01
v 7.88199839e+03 4.74818445e+03 1.20029801e+01
v 7.90383300e+03 4.73788954e+03 2.71529152e+01
v 7.87744737e+03 4.73059281e+03 5.31567968e+00
v 7.87820403e+03 4.73073660e+03 4.95080232e+00
v 7.90550641e+03 4.74084357e+03 7.18928230e+00
v 7.90563439e+03 4.74088417e+03 5.07159098e+00
v 7.87720897e+03 4.73563967e+03 1.40976112e+01
v 7.87713847e+03 4.73703401e+03 1.33172806e+01
v 7.87494895e+03 4.74053588e+03 1.98859917e+01
v 7.89759006e+03 4.72911109e+03 1.15968468e+01
v 7.89971282e+03 4.73251654e+03 9.81128807e+00
v 7.89875643e+03 4.73110458e+03 2.04908049e+01
v 7.90077842e+03 4.73353576e+03 2.17492108e+01
v 7.90011182e+03 4.73305778e+03 5.51724829e+00
v 7.89881186e+03 4.73076983e+03 7.68134321e+00
v 7.89719401e+03 4.72881095e+03 2.34320806e+01
v 7.90517406e+03 4.73119517e+03 2.79335050e+01
v 7.90453165e+03 4.73077247e+03 2.94435795e+01
v 7.90356921e+03 4.72892561e+03 2.78709463e+01
v 7.90101608e+03 4.72769337e+03 2.74023797e+01
v 7.90120309e+03 4.73168576e+03 2.70881012e+01
v 7.90146935e+03 4.72603560e+03 2.76503336e+01
v 7.90407799e+03 4.73013157e+03 2.75990092e+01
v 7.89813294e+03 4.72672987e+03 2.71426480e+01
v 7.89737229e+03 4.72802040e+03 2.71670567e+01
v 7.90572211e+03 4.74070146e+03 2.73267345e+01
v 7.90639671e+03 4.73959146e+03 2.70014045e+01
v 7.89849679e+03 4.73023311e+03 2.69364376e+01
v 7.89953229e+03 4.73148247e+03 2.15943576e+01
v 7.90215715e+03 4.73612853e+03 2.27605275e+01
v 7.87706073e+03 4.74177524e+03 2.11662287e+01
v 7.87821822e+03 4.74122926e+03 2.15825768e+01
v 7.89659790e+03 4.72736670e+03 2.48208852e+01
v 7.87699819e+03 4.74090458e+03 2.24865708e+01
v 7.87830979e+03 4.74064816e+03 2.21142074e+01
v 7.89982878e+03 4.73272969e+03 2.36301105e+01
v 7.88008985e+03 4.74443305e+03 1.55950316e+01
v 7.88038161e+03 4.74211416e+03 1.64743741e+01
v 7.87729755e+03 4.74500629e+03 2.28150042e+01
v 7.87752860e+03 4.74421282e+03 2.19751883e+01
v 7.90623980e+03 4.74084893e+03 2.74520068e+01
v 7.87810518e+03 4.74210762e+03 2.04167799e+01
v 7.87796777e+03 4.74355284e+03 2.07195498e+01
v 7.87643807e+03 4.74335322e+03 2.14718362e+01
v 7.87726817e+03 4.73943091e+03 2.17091980e+01
v 7.87646320e+03 4.74011854e+03 2.15120585e+01
v 7.87820622e+03 4.74433428e+03 2.16788560e+01
v 7.87617376e+03 4.74123945e+03 2.12595893e+01
v 7.87646155e+03 4.74335345e+03 2.26237034e+01
v 7.87626437e+03 4.74257810e+03 2.13172113e+01
v 7.87815252e+03 4.74618275e+03 2.12490773e+01
v 7.87540479e+03 4.74059857e+03 2.09330789e+01
v 7.87492965e+03 4.74156859e+03 2.11851012e+01
v 7.90608315e+03 4.74085767e+03 2.75376666e+01
v 7.90645071e+03 4.74106862e+03 2.67350965e+01
v 7.90609336e+03 4.74107676e+03 2.70538295e+01
v 7.90618553e+03 4.74158001e+03 2.62790860e+01
v 7.90605895e+03 4.74106553e+03 2.70691515e+01
v 7.90565932e+03 4.74121947e+03 2.63710086e+01
v 7.90484598e+03 4.74007164e+03 2.38194985e+01
v 7.87589973e+03 4.74218639e+03 2.23027663e+01
v 7.87599095e+03 4.74479820e+03 2.36593057e+01
v 7.87515273e+03 4.74442821e+03 2.47372091e+01
v 7.87653211e+03 4.74732167e+03 2.16281131e+01
v 7.90137528e+03 4.73434070e+03 2.71064483e+01
v 7.87487266e+03 4.73365793e+03 2.10400273e+01
v 7.89530013e+03 4.72593797e+03 2.60091904e+01
v 7.89590488e+03 4.72626637e+03 2.70235113e+01
v 7.87480446e+03 4.73170822e+03 1.82915293e+01
v 7.87493635e+03 4.73346839e+03 1.90270577e+01
v 7.87806115e+03 4.73888761e+03 2.01685354e+01
v 7.87673685e+03 4.73901929e+03 2.07922965e+01
v 7.87512282e+03 4.73276699e+03 2.14261390e+01
v 7.90029004e+03 4.73246141e+03 2.70956553e+01
v 7.88195232e+03 4.74894454e+03 1.21597049e+01
v 7.87678344e+03 4.73839184e+03 1.77714040e+01
v 7.87596773e+03 4.73728189e+03 1.74617656e+01
v 7.87661702e+03 4.73228177e+03 1.55491626e+01
v 7.87618079e+03 4.73248286e+03 1.56272226e+01
v 7.87666488e+03 4.73875313e+03 1.89521792e+01
v 7.87512579e+03 4.73955866e+03 1.95733949e+01
v 7.87870160e+03 4.74429330e+03 1.95496200e+01
v 7.88028531e+03 4.74399136e+03 1.15922969e+01
v 7.88032849e+03 4.74268020e+03 9.93910120e+00
v 7.88031132e+03 4.74198179e+03 1.07415263e+01
v 7.89866363e+03 4.73061403e+03 2.12983693e+01
v 7.87967046e+03 4.74149306e+03 1.91054447e+01
v 7.87877054e+03 4.74223438e+03 1.93074946e+01
v 7.87703696e+03 4.73627608e+03 1.64551748e+01
v 7.87607212e+03 4.73581337e+03 1.77529209e+01
v 7.87750460e+03 4.74679432e+03 2.11133825e+01
v 7.87644909e+03 4.74620206e+03 2.26454576e+01
v 7.87915843e+03 4.73971240e+03 1.89979279e+01
v 7.87729277e+03 4.74950706e+03 1.81747139e+01
v 7.87668998e+03 4.75000000e+03 1.69904390e+01
v 7.89524178e+03 4.72532967e+03 1.82108634e+01
v 7.88026603e+03 4.74672524e+03 1.73998970e+01
v 7.87955768e+03 4.74582798e+03 1.68350476e+01
v 7.87950643e+03 4.74772785e+03 1.66685038e+01
v 7.88056347e+03 4.74756153e+03 1.64479096e+01
v 7.90508323e+03 4.74043472e+03 1.34794003e+01
v 7.90127443e+03 4.73434010e+03 1.16231952e+01
v 7.87976381e+03 4.74199601e+03 1.51576498e+01
v 7.87981411e+03 4.74183226e+03 1.83000967e+01
v 7.87839618e+03 4.74020906e+03 2.13142472e+01
v 7.87901326e+03 4.74074510e+03 1.97907489e+01
v 7.90532204e+03 4.74044938e+03 1.56424197e+01
v 7.90563810e+03 4.74039390e+03 1.80228214e+01
v 7.87582353e+03 4.73146368e+03 1.55408803e+01
v 7.87538422e+03 4.72992072e+03 1.48244535e+01
v 7.87790771e+03 4.74020914e+03 1.03041970e+01
v 7.87934374e+03 4.74113050e+03 1.01868854e+01
v 7.87495107e+03 4.73017312e+03 1.07160868e+01
v 7.88083937e+03 4.74671029e+03 1.48972139e+01
v 7.88165101e+03 4.74684019e+03 1.43157950e+01
v 7.88212194e+03 4.74632172e+03 1.28664704e+01
v 7.88104513e+03 4.74521837e+03 1.19703434e+01
v 7.87498494e+03 4.73492896e+03 1.78655045e+01
v 7.87513388e+03 4.73665020e+03 1.79883435e+01
v 7.87612460e+03 4.73387608e+03 1.65608449e+01
v 7.87603448e+03 4.73449237e+03 1.65167544e+01
v 7.87671780e+03 4.74906452e+03 1.88750837e+01
v 7.87748648e+03 4.74950428e+03 1.70659936e+01
v 7.89965615e+03 4.73183512e+03 2.49117814e+01
v 7.87485686e+03 4.73066982e+03 1.59416400e+01
v 7.87661623e+03 4.73520906e+03 1.70347334e+01
v 7.87725036e+03 4.73462123e+03 1.50783745e+01
v 7.87872461e+03 4.73488618e+03 1.32119007e+01
v 7.87888831e+03 4.73310125e+03 1.27838889e+01
v 7.87907096e+03 4.73263605e+03 1.36353290e+01
v 7.88047126e+03 4.74309853e+03 1.75914521e+01
v 7.87738505e+03 4.73917789e+03 1.71874087e+01
v 7.87975422e+03 4.74025263e+03 1.53871667e+01
v 7.87864922e+03 4.73611263e+03 1.17359104e+01
v 7.88101098e+03 4.74872926e+03 1.44169286e+01
v 7.88131503e+03 4.74743381e+03 1.50900067e+01
v 7.87871482e+03 4.74647473e+03 1.73856564e+01
v 7.87855559e+03 4.74818079e+03 1.68459708e+01
v 7.87916331e+03 4.74711702e+03 1.71691367e+01
v 7.87943215e+03 4.74231666e+03 1.21295074e+01
v 7.87938529e+03 4.74485209e+03 1.77459846e+01
v 7.89936047e+03 4.73146141e+03 1.13027534e+01
v 7.89751940e+03 4.72902716e+03 1.46976168e+01
v 7.89572961e+03 4.72661903e+03 1.32823845e+01
v 7.89617445e+03 4.72662571e+03 1.15680051e+01
v 7.90647511e+03 4.74085899e+03 9.38673924e+00
v 7.90581721e+03 4.74135257e+03 8.83368284e+00
v 7.88065359e+03 4.74600240e+03 1.51602341e+01
v 7.90641954e+03 4.74084753e+03 1.43959693e+01
v 7.90642522e+03 4.74048001e+03 1.15333631e+01
v 7.89775799e+03 4.72964705e+03 2.60107682e+01
v 7.90136249e+03 4.72589645e+03 2.97658958e+01
v 7.90484636e+03 4.73386005e+03 2.73120083e+01
v 7.89994234e+03 4.73282619e+03 2.62478083e+01
v 7.90381287e+03 4.73441477e+03 2.73121053e+01
v 7.90631173e+03 4.73547075e+03 2.74906128e+01
v 7.90125934e+03 4.73480168e+03 2.59651819e+01
v 7.87491086e+03 4.73845048e+03 1.96145447e+01
v 7.90111240e+03 4.73406410e+03 2.49927042e+01
v 7.87553653e+03 4.74297034e+03 2.34392889e+01
v 7.87572086e+03 4.74593171e+03 2.37635441e+01
v 7.89656807e+03 4.72791804e+03 9.78545422e+00
v 7.88130199e+03 4.74733864e+03 1.13818832e+01
v 7.90102776e+03 4.73423293e+03 7.97700688e+00
v 7.90410229e+03 4.73862115e+03 1.14882271e+01
v 7.90544748e+03 4.74016833e+03 1.14111650e+01
v 7.90508936e+03 4.74021443e+03 1.00150176e+01
v 7.90638309e+03 4.74104621e+03 5.47422377e+00
v 7.90648932e+03 4.74120033e+03 4.30756505e+00
v 7.89954218e+03 4.73317872e+03 3.72243478e+00
v 7.89884168e+03 4.73158613e+03 3.76278363e+00
v 7.90620988e+03 4.74109743e+03 7.16512887e+00
v 7.90279649e+03 4.73689710e+03 4.18833409e+00
v 7.90145673e+03 4.73485490e+03 3.79486296e+00
v 7.90335218e+03 4.73851810e+03 4.01548308e+00
v 7.90439382e+03 4.73955464e+03 3.90857218e+00
v 7.89243938e+03 4.74085953e+03 3.72243682e+00
v 7.88709461e+03 4.73585242e+03 3.38604701e+00
v 7.89762160e+03 4.72909264e+03 3.82114347e+00
v 7.88351956e+03 4.74039624e+03 4.43765840e+00
v 7.88590584e+03 4.74307051e+03 3.92822128e+00
v 7.88353464e+03 4.73958946e+03 3.85434052e+00
v 7.88533463e+03 4.74308329e+03 4.44882000e+00
v 7.87671073e+03 4.73021076e+03 4.08004423e+00
v 7.87950027e+03 4.73330134e+03 5.65097884e+00
v 7.87934137e+03 4.73272698e+03 4.59465184e+00
v 7.87782552e+03 4.73887127e+03 3.41402134e+00
v 7.87723877e+03 4.72783170e+03 3.29213120e+00
v 7.87739596e+03 4.72992582e+03 3.45971722e+00
v 7.87907446e+03 4.73179371e+03 5.38364843e+00
v 7.88092968e+03 4.74381238e+03 3.35782616e+00
v 7.87901625e+03 4.75000000e+03 3.73592411e+00
v 7.88258832e+03 4.74366288e+03 3.67443250e+00
v 7.88123487e+03 4.73935353e+03 3.47288167e+00
v 7.89290186e+03 4.73963867e+03 3.41686449e+00
v 7.89532130e+03 4.74230394e+03 3.71939249e+00
v 7.88254275e+03 4.73895151e+03 4.51587789e+00
v 7.88141361e+03 4.73730914e+03 4.23872362e+00
v 7.89110465e+03 4.73700697e+03 3.42101887e+00
v 7.88633151e+03 4.73964592e+03 3.44979299e+00
v 7.88513752e+03 4.73558925e+03 3.25744274e+00
v 7.89107634e+03 4.74349025e+03 3.58588238e+00
v 7.88812058e+03 4.74599799e+03 4.05182730e+00
v 7.87830862e+03 4.73047451e+03 3.57250115e+00
v 7.87961714e+03 4.73131525e+03 3.38909034e+00
v 7.87493368e+03 4.72743799e+03 3.21215046e+00
v 7.88059234e+03 4.72774761e+03 3.02461236e+00
v 7.88433652e+03 4.72821241e+03 3.06757051e+00
v 7.88298226e+03 4.75000000e+03 3.54907050e+00
v 7.88573840e+03 4.74524267e+03 3.63823958e+00
v 7.89129913e+03 4.75000000e+03 3.95662209e+00
v 7.89308497e+03 4.75000000e+03 4.19953818e+00
v 7.89491898e+03 4.74767260e+03 3.81179908e+00
v 7.87976487e+03 4.73289073e+03 5.57678198e+00
v 7.90312823e+03 4.73752446e+03 9.51018419e+00
v 7.89518680e+03 4.72551879e+03 8.14636898e+00
v 7.87959351e+03 4.72970978e+03 3.05927083e+00
v 7.90125115e+03 4.74195580e+03 3.62027067e+00
v 7.89550174e+03 4.73537240e+03 3.45421317e+00
v 7.88123085e+03 4.73538079e+03 3.48302998e+00
v 7.90411560e+03 4.73849365e+03 7.86096964e+00
v 7.89767160e+03 4.72938468e+03 6.42136246e+00
v 7.89489382e+03 4.72522749e+03 5.89232131e+00
v 7.88040628e+03 4.74737627e+03 9.55004906e+00
v 7.90479210e+03 4.74094194e+03 3.99767811e+00
v 7.88204832e+03 4.73417293e+03 3.53793727e+00
v 7.89594327e+03 4.72678902e+03 3.27275312e+00
v 7.87739199e+03 4.73970403e+03 9.54146345e+00
v 7.90428892e+03 4.73931115e+03 1.68420601e+01
v 7.90469772e+03 4.73995491e+03 2.00412989e+01
v 7.90533020e+03 4.74024091e+03 2.17395425e+01
v 7.87573274e+03 4.73025791e+03 1.19139101e+01
v 7.87531337e+03 4.72920578e+03 1.37364882e+01
v 7.87807647e+03 4.73995623e+03 1.30642208e+01
v 7.87926350e+03 4.73984085e+03 1.44206633e+01
v 7.87756366e+03 4.73353867e+03 1.49473125e+01
v 7.87785976e+03 4.73226637e+03 1.53234031e+01
v 7.87807458e+03 4.73126546e+03 1.51292962e+01
v 7.87639446e+03 4.73154782e+03 1.53605769e+01
v 7.87751827e+03 4.75000000e+03 1.61797249e+01
v 7.87890259e+03 4.75000000e+03 1.53340299e+01
v 7.87951206e+03 4.74908074e+03 1.52659389e+01
v 7.87897329e+03 4.73983657e+03 1.63353381e+01
v 7.87711979e+03 4.73894051e+03 1.56571407e+01
v 7.87621501e+03 4.73338935e+03 1.48559763e+01
v 7.87511821e+03 4.72910274e+03 1.61261898e+01
v 7.87623995e+03 4.73423251e+03 1.57295414e+01
v 7.87720805e+03 4.72977420e+03 1.50046100e+01
v 7.87698003e+03 4.73800814e+03 1.50251006e+01
v 7.87825527e+03 4.73050650e+03 1.32741778e+01
v 7.87689609e+03 4.73029458e+03 1.55122835e+01
v 7.87792794e+03 4.73883987e+03 1.44687405e+01
v 7.87859789e+03 4.74131576e+03 1.39182360e+01
v 7.87833536e+03 4.73158461e+03 1.27707662e+01
v 7.87846284e+03 4.73625685e+03 1.26661537e+01
v 7.87771710e+03 4.73849821e+03 1.26591002e+01
v 7.87916437e+03 4.73720888e+03 1.22370135e+01
v 7.87761456e+03 4.74015960e+03 1.15260336e+01
v 7.87782564e+03 4.73846121e+03 1.16642266e+01
v 7.88021672e+03 4.74861399e+03 1.54623800e+01
v 7.88057925e+03 4.74924565e+03 1.29638703e+01
v 7.88000858e+03 4.75000000e+03 1.22879820e+01
v 7.88087186e+03 4.74937106e+03 1.20081308e+01
v 7.88008169e+03 4.74396814e+03 1.38503603e+01
v 7.88120308e+03 4.74451283e+03 1.34957247e+01
v 7.87946433e+03 4.75000000e+03 1.43658265e+01
v 7.87920880e+03 4.75000000e+03 1.50411209e+01
v 7.87656098e+03 4.73179518e+03 1.59366176e+01
v 7.87619480e+03 4.73116208e+03 1.75130425e+01
v 7.87918843e+03 4.74222145e+03 1.37847661e+01
v 7.87869992e+03 4.74026099e+03 1.69845607e+01
v 7.87750847e+03 4.74161490e+03 1.20188376e+01
v 7.90258365e+03 4.73635252e+03 1.49724425e+01
v 7.90106660e+03 4.73444965e+03 1.66490775e+01
v 7.89697568e+03 4.72844084e+03 1.68750983e+01
v 7.89586315e+03 4.72644892e+03 1.51407739e+01
v 7.88158305e+03 4.74789197e+03 1.38642186e+01
v 7.89911207e+03 4.73161923e+03 1.46576682e+01
v 7.89395840e+03 4.72396805e+03 1.34194312e+01
v 7.88207192e+03 4.74569140e+03 1.43804555e+01
v 7.88054760e+03 4.74480187e+03 1.48409472e+01
v 7.87657196e+03 4.73729323e+03 1.64903931e+01
v 7.87723392e+03 4.73204547e+03 1.68368810e+01
v 7.87662353e+03 4.73288269e+03 1.80960443e+01
v 7.87571338e+03 4.73292952e+03 1.82579990e+01
v 7.89758564e+03 4.72875524e+03 1.81627628e+01
v 7.89966527e+03 4.73210024e+03 1.85097055e+01
v 7.87975923e+03 4.74146218e+03 1.74650650e+01
v 7.87535127e+03 4.73764883e+03 1.76485631e+01
v 7.90207028e+03 4.73554223e+03 1.82819927e+01
v 7.90432048e+03 4.73897374e+03 1.84349392e+01
v 7.90239874e+03 4.73664259e+03 2.00206632e+01
v 7.90427627e+03 4.73842954e+03 2.16880874e+01
v 7.90191837e+03 4.73482364e+03 2.15325300e+01
v 7.89405578e+03 4.72409841e+03 2.04886995e+01
v 7.87839089e+03 4.74852940e+03 1.81685346e+01
v 7.87521481e+03 4.74914471e+03 1.98949492e+01
v 7.87829314e+03 4.74712262e+03 1.88300666e+01
v 7.89425838e+03 4.72434265e+03 1.93415754e+01
v 7.87867658e+03 4.73946300e+03 2.06588649e+01
v 7.87847184e+03 4.74556255e+03 1.89749998e+01
v 7.87538666e+03 4.73453657e+03 2.00663050e+01
v 7.87560342e+03 4.73986770e+03 2.03629501e+01
v 7.89416839e+03 4.72433057e+03 2.35587665e+01
v 7.89476300e+03 4.72455089e+03 2.15826694e+01
v 7.89484358e+03 4.72485062e+03 2.47055208e+01
v 7.90326189e+03 4.73724449e+03 2.17902489e+01
v 7.87663117e+03 4.74531773e+03 2.34627820e+01
v 7.90431529e+03 4.73902811e+03 2.23007198e+01
v 7.87597254e+03 4.74391068e+03 2.40010903e+01
v 7.90631826e+03 4.74155656e+03 2.44673534e+01
v 7.87485116e+03 4.74272899e+03 2.40865292e+01
v 7.87583576e+03 4.74168605e+03 2.12426679e+01
v 7.87574981e+03 4.73967089e+03 2.13515155e+01
v 7.89047890e+03 4.71880121e+03 2.38287234e+01
v 7.89239937e+03 4.72122285e+03 2.15530162e+01
v 7.89206461e+03 4.72107819e+03 2.26534607e+01
v 7.89145221e+03 4.72024568e+03 1.98251897e+01
v 7.89079757e+03 4.71930080e+03 9.87383933e+00
v 7.89226588e+03 4.72124080e+03 1.75338660e+01
v 7.89266421e+03 4.72194822e+03 1.57688731e+01
v 7.89087823e+03 4.71941433e+03 1.32019984e+01
v 7.89168790e+03 4.72032278e+03 1.15100227e+01
v 7.89364061e+03 4.72296698e+03 1.82346202e+01
v 7.89250150e+03 4.72126387e+03 2.48643221e+01
v 7.89236850e+03 4.72161415e+03 2.60290776e+01
v 7.89236464e+03 4.72086039e+03 2.72424709e+01
v 7.89582097e+03 4.72427142e+03 2.69749170e+01
v 7.89789647e+03 4.72063698e+03 2.80311041e+01
v 7.89868203e+03 4.72372261e+03 2.76500919e+01
v 7.89584631e+03 4.72260470e+03 2.71626384e+01
v 7.89585817e+03 4.72120696e+03 2.73813580e+01
v 7.89473153e+03 4.71951478e+03 2.74861804e+01
v 7.89630060e+03 4.72005521e+03 2.78051573e+01
v 7.89588624e+03 4.71927709e+03 2.82103841e+01
v 7.89726879e+03 4.71973259e+03 2.84152406e+01
v 7.89475883e+03 4.71854796e+03 2.75915235e+01
v 7.90440303e+03 4.72154481e+03 3.08045146e+01
v 7.90020746e+03 4.72401102e+03 2.78355355e+01
v 7.89693625e+03 4.72170384e+03 2.76468707e+01
v 7.89746380e+03 4.72272068e+03 2.79112061e+01
v 7.89102608e+03 4.71890510e+03 2.71558076e+01
v 7.89507379e+03 4.71897074e+03 2.88122708e+01
v 7.87872224e+03 4.75000000e+03 4.80953345e+00
v 7.87868338e+03 4.75000000e+03 4.48566392e+00
v 7.87878751e+03 4.75000000e+03 5.56580869e+00
v 7.87962423e+03 4.75000000e+03 1.09383664e+01
v 7.87903145e+03 4.75000000e+03 9.14998715e+00
v 7.87898821e+03 4.74864401e+03 7.50889939e+00
v 7.90009638e+03 4.75000000e+03 3.90446182e+00
v 7.90157771e+03 4.75000000e+03 3.76994841e+00
v 7.90299264e+03 4.75000000e+03 4.05739014e+00
v 7.87897805e+03 4.75000000e+03 8.01277010e+00
v 7.87721909e+03 4.74182188e+03 6.04323300e+00
v 7.87758291e+03 4.74322222e+03 4.32021605e+00
v 7.87593696e+03 4.73554630e+03 8.77614770e+00
v 7.87520457e+03 4.73198699e+03 9.41180451e+00
v 7.87911770e+03 4.74399620e+03 7.25887654e+00
v 7.90514508e+03 4.74641212e+03 4.19613617e+00
v 7.87719520e+03 4.73239292e+03 4.85397942e+00
v 7.87609974e+03 4.73061754e+03 3.43892294e+00
v 7.87585996e+03 4.73335375e+03 3.36662337e+00
v 7.87534206e+03 4.74034405e+03 3.41408808e+00
v 7.87790114e+03 4.74866125e+03 4.19336459e+00
v 7.87794292e+03 4.74415391e+03 5.33434079e+00
v 7.87893491e+03 4.75000000e+03 6.76755016e+00
v 7.88418750e+03 4.74206358e+03 3.78752033e+00
v 7.87893652e+03 4.73273279e+03 3.47163055e+00
v 7.87852525e+03 4.73335648e+03 4.43615274e+00
v 7.88978813e+03 4.72751486e+03 3.20643922e+00
v 7.89041691e+03 4.73178012e+03 3.42697801e+00
v 7.87948047e+03 4.73464460e+03 4.33142807e+00
v 7.87892998e+03 4.73380096e+03 3.91469642e+00
v 7.87795175e+03 4.73725721e+03 3.18710742e+00
v 7.88033773e+03 4.73690102e+03 3.36762838e+00
v 7.87778580e+03 4.73389081e+03 3.21616912e+00
v 7.88036155e+03 4.74589831e+03 9.33711981e+00
v 7.88101596e+03 4.74405986e+03 9.44363029e+00
v 7.87960031e+03 4.74250941e+03 8.45373135e+00
v 7.87844420e+03 4.73274320e+03 5.94597611e+00
v 7.88032073e+03 4.74538421e+03 1.08258317e+01
v 7.87870936e+03 4.73539665e+03 3.33495952e+00
v 7.87635013e+03 4.74116364e+03 3.74896433e+00
v 7.88552031e+03 4.73083408e+03 3.16553138e+00
v 7.88283639e+03 4.73794351e+03 3.71078296e+00
v 7.87547711e+03 4.73870331e+03 6.60735770e+00
v 7.90543088e+03 4.75000000e+03 4.12775381e+00
v 7.87774541e+03 4.73747169e+03 1.07826053e+01
v 7.90317808e+03 4.74552511e+03 3.69042847e+00
v 7.89706335e+03 4.75000000e+03 3.88010968e+00
v 7.89791580e+03 4.75000000e+03 4.01144765e+00
v 7.89396962e+03 4.75000000e+03 4.06897340e+00
v 7.88705767e+03 4.74547478e+03 4.42645916e+00
v 7.88055709e+03 4.73585624e+03 4.36189652e+00
v 7.88332160e+03 4.74076219e+03 3.71427213e+00
v 7.87738599e+03 4.74618694e+03 4.11920991e+00
v 7.87818177e+03 4.74490465e+03 3.48713951e+00
v 7.88776078e+03 4.74768098e+03 3.83737475e+00
v 7.87751837e+03 4.74648648e+03 3.57708628e+00
v 7.89645163e+03 4.74899261e+03 3.93885217e+00
v 7.89823254e+03 4.74808654e+03 3.80709330e+00
v 7.89682199e+03 4.74727451e+03 3.54182520e+00
v 7.90092078e+03 4.74832944e+03 3.82532407e+00
v 7.89894859e+03 4.75000000e+03 3.85272783e+00
v 7.89911395e+03 4.74424328e+03 3.75553298e+00
v 7.87697417e+03 4.74116703e+03 3.44386336e+00
v 7.88818490e+03 4.72765427e+03 3.28266989e+00
v 7.88863446e+03 4.72618963e+03 3.91946097e+00
v 7.89795950e+03 4.73869316e+03 3.46384692e+00
v 7.89589825e+03 4.73977437e+03 3.71735393e+00
v 7.89014435e+03 4.72582110e+03 3.41723532e+00
v 7.88230989e+03 4.73214818e+03 3.11876808e+00
v 7.88642587e+03 4.72518138e+03 3.14738744e+00
v 7.87852783e+03 4.73163258e+03 3.62155126e+00
v 7.87705709e+03 4.73397473e+03 3.38796932e+00
v 7.88020045e+03 4.73474659e+03 3.45637528e+00
v 7.87582414e+03 4.72400211e+03 2.91309257e+00
v 7.87599400e+03 4.72822725e+03 3.27960378e+00
v 7.88421998e+03 4.72348040e+03 2.87896926e+00
v 7.87828073e+03 4.74320750e+03 3.35457932e+00
v 7.87523862e+03 4.72807765e+03 4.01021701e+00
v 7.88681747e+03 4.72456562e+03 4.36425943e+00
v 7.89444254e+03 4.72414527e+03 1.15788529e+01
v 7.89368266e+03 4.72356196e+03 9.70924525e+00
v 7.87815073e+03 4.74074231e+03 1.07483978e+01
v 7.87807928e+03 4.74168350e+03 1.13345860e+01
v 7.89422862e+03 4.72383039e+03 1.49798399e+01
v 7.89807212e+03 4.72109794e+03 2.97576808e+01
v 7.89401105e+03 4.72342454e+03 2.72126344e+01
v 7.89311694e+03 4.72198200e+03 2.70895714e+01
v 7.89909162e+03 4.72248157e+03 2.82173613e+01
v 7.89713413e+03 4.72128209e+03 2.81668645e+01
v 7.89616417e+03 4.72073140e+03 2.89137768e+01
v 7.89754447e+03 4.72178497e+03 2.81071291e+01
v 7.88909985e+03 4.72414782e+03 3.53779229e+00
v 7.89328375e+03 4.72285539e+03 3.55104744e+00
v 7.89308000e+03 4.72241959e+03 6.30907313e+00
v 7.88573684e+03 4.72314477e+03 3.25581954e+00
v 7.88700455e+03 4.72220626e+03 2.98023165e+00
v 7.88784247e+03 4.72428133e+03 4.28550948e+00
v 7.88508064e+03 4.72141796e+03 3.17867448e+00
v 7.88395088e+03 4.72018731e+03 3.48647896e+00
v 7.88329081e+03 4.72084026e+03 2.82502231e+00
v 7.88025460e+03 4.72336994e+03 2.97782043e+00
v 7.89123111e+03 4.71992732e+03 6.50330105e+00
v 7.89179374e+03 4.72021541e+03 8.09578962e+00
v 7.89321595e+03 4.72230140e+03 8.30789956e+00
v 7.87475000e+03 4.72498503e+03 3.09098719e+00
v 7.87475000e+03 4.72378970e+03 2.94362608e+00
v 7.87475000e+03 4.72223329e+03 2.86425897e+00
v 7.87475000e+03 4.72336944e+03 2.90874588e+00
v 7.87475000e+03 4.74064998e+03 2.05588769e+01
v 7.87475000e+03 4.74071361e+03 2.10671440e+01
v 7.87475000e+03 4.73383513e+03 2.12648332e+01
v 7.87475000e+03 4.73365727e+03 2.12746551e+01
v 7.87475000e+03 4.73985922e+03 1.99710873e+01
v 7.87475000e+03 4.74033783e+03 2.00429216e+01
v 7.87475000e+03 4.73328210e+03 1.91424261e+01
v 7.87475000e+03 4.73181347e+03 1.84053852e+01
v 7.87475000e+03 4.74916310e+03 2.04807710e+01
v 7.87475000e+03 4.74898090e+03 2.07961174e+01
v 7.87475000e+03 4.73464378e+03 1.79524860e+01
v 7.87475000e+03 4.73439004e+03 1.78100522e+01
v 7.87475000e+03 4.72964310e+03 1.04906021e+01
v 7.87475000e+03 4.73002058e+03 1.08938046e+01
v 7.87475000e+03 4.73334016e+03 2.18358778e+01
v 7.87475000e+03 4.73294523e+03 2.23514796e+01
v 7.87475000e+03 4.73398593e+03 2.12046635e+01
v 7.87475000e+03 4.74886619e+03 2.15449573e+01
v 7.87475000e+03 4.74153612e+03 2.12773658e+01
v 7.87475000e+03 4.74144817e+03 2.12585275e+01
v 7.87475000e+03 4.74201528e+03 2.27535354e+01
v 7.87475000e+03 4.74201018e+03 2.27422548e+01
v 7.87475000e+03 4.74198702e+03 2.26641108e+01
v 7.87475000e+03 4.74224122e+03 2.33593466e+01
v 7.87475000e+03 4.74202726e+03 2.27677448e+01
v 7.87475000e+03 4.74256890e+03 2.39555792e+01
v 7.87475000e+03 4.74286152e+03 2.41370230e+01
v 7.87475000e+03 4.74395955e+03 2.45570994e+01
v 7.87475000e+03 4.74430463e+03 2.48828432e+01
v 7.87475000e+03 4.74780943e+03 2.38260793e+01
v 7.87475000e+03 4.74760484e+03 2.39007310e+01
v 7.87475000e+03 4.74601502e+03 2.44754028e+01
v 7.87475000e+03 4.74510573e+03 2.48017437e+01
v 7.87475000e+03 4.74327250e+03 2.40269444e+01
v 7.87475000e+03 4.74924891e+03 1.95494312e+01
v 7.87475000e+03 4.74917845e+03 1.98598162e+01
v 7.87475000e+03 4.74839645e+03 2.31374128e+01
v 7.87475000e+03 4.73264893e+03 2.15808673e+01
v 7.87475000e+03 4.73253385e+03 2.12131434e+01
v 7.87475000e+03 4.73277314e+03 2.05839672e+01
v 7.87475000e+03 4.73348551e+03 2.07277509e+01
v 7.87475000e+03 4.73394955e+03 2.11359588e+01
v 7.87475000e+03 4.73489650e+03 2.08782485e+01
v 7.87475000e+03 4.73515586e+03 2.00638997e+01
v 7.87475000e+03 4.73441495e+03 1.85634419e+01
v 7.87475000e+03 4.73898046e+03 2.02939837e+01
v 7.87475000e+03 4.73811674e+03 1.95339945e+01
v 7.87475000e+03 4.73780120e+03 2.02660056e+01
v 7.87475000e+03 4.73072476e+03 1.61195481e+01
v 7.87475000e+03 4.73058184e+03 1.60233328e+01
v 7.87475000e+03 4.73117371e+03 1.75647666e+01
v 7.87475000e+03 4.73762529e+03 1.89075904e+01
v 7.87475000e+03 4.73724303e+03 1.88630314e+01
v 7.87475000e+03 4.73536453e+03 1.81272128e+01
v 7.87475000e+03 4.73618355e+03 1.82456143e+01
v 7.87475000e+03 4.73167772e+03 1.82513314e+01
v 7.87475000e+03 4.73171397e+03 1.82939890e+01
v 7.87475000e+03 4.74967191e+03 1.88690705e+01
v 7.87475000e+03 4.73430276e+03 1.78289242e+01
v 7.87475000e+03 4.72861225e+03 1.53308205e+01
v 7.87475000e+03 4.72870880e+03 1.59822873e+01
v 7.87475000e+03 4.72897807e+03 1.62849927e+01
v 7.87475000e+03 4.72875430e+03 1.47559394e+01
v 7.87475000e+03 4.72928677e+03 1.63026141e+01
v 7.87475000e+03 4.72998949e+03 1.19578995e+01
v 7.87475000e+03 4.72986141e+03 1.14853679e+01
v 7.87475000e+03 4.73839404e+03 2.09890657e+01
v 7.87475000e+03 4.72643522e+03 3.26456732e+00
v 7.87475000e+03 4.72932468e+03 1.32369219e+01
v 7.87475000e+03 4.72856013e+03 1.43971487e+01
v 7.87475000e+03 4.73718143e+03 3.07909584e+00
v 7.87475000e+03 4.73737537e+03 3.10682081e+00
v 7.87475000e+03 4.72950617e+03 3.09855593e+00
v 7.87475000e+03 4.73377968e+03 3.26841045e+00
v 7.87475000e+03 4.73988470e+03 3.55104826e+00
v 7.87475000e+03 4.73948370e+03 3.31635067e+00
v 7.87475000e+03 4.73668005e+03 3.11461573e+00
v 7.87475000e+03 4.73464017e+03 3.09887246e+00
v 7.87475000e+03 4.73493843e+03 3.05915711e+00
v 7.87475000e+03 4.72941434e+03 3.10090630e+00
v 7.87475000e+03 4.72747295e+03 3.19301627e+00
v 7.87475000e+03 4.72948618e+03 3.10022255e+00
v 7.87475000e+03 4.72948919e+03 3.09862441e+00
v 7.87475000e+03 4.72719321e+03 3.21869317e+00
v 7.87475000e+03 4.72946546e+03 3.10890324e+00
v 7.87475000e+03 4.73920543e+03 3.27329127e+00
v 7.87475000e+03 4.73665931e+03 6.53607527e+00
v 7.87475000e+03 4.73558090e+03 7.21190829e+00
v 7.87475000e+03 4.73887220e+03 5.42143868e+00
v 7.87475000e+03 4.74113117e+03 2.11400269e+01
v 7.87475000e+03 4.73860942e+03 2.01169318e+01
v 7.87475000e+03 4.75000000e+03 1.80697265e+01
v 7.87475000e+03 4.73387910e+03 1.85763923e+01
v 7.87475000e+03 4.73410031e+03 1.80772852e+01
v 7.87475000e+03 4.73989092e+03 4.43680161e+00
v 7.87475000e+03 4.73019050e+03 9.73156690e+00
v 7.87475000e+03 4.73878885e+03 3.26028321e+00
v 7.87475000e+03 4.73478685e+03 7.42973830e+00
v 7.87475000e+03 4.73276297e+03 8.39000430e+00
v 7.90650000e+03 4.72458891e+03 3.08031496e+01
v 7.90650000e+03 4.72257036e+03 3.05949431e+01
v 7.90650000e+03 4.72042465e+03 3.02904099e+01
v 7.90650000e+03 4.72191190e+03 3.04681216e+01
v 7.90650000e+03 4.72680435e+03 3.05401439e+01
v 7.90650000e+03 4.73348452e+03 2.77569697e+01
v 7.90650000e+03 4.73336962e+03 2.93677879e+01
v 7.90650000e+03 4.74069887e+03 2.73804794e+01
v 7.90650000e+03 4.74103481e+03 2.67319450e+01
v 7.90650000e+03 4.74050814e+03 1.62908917e+01
v 7.90650000e+03 4.74048295e+03 1.70709927e+01
v 7.90650000e+03 4.74084109e+03 9.42356096e+00
v 7.90650000e+03 4.74084238e+03 9.41362558e+00
v 7.90650000e+03 4.74079490e+03 1.43684220e+01
v 7.90650000e+03 4.74079205e+03 1.42756612e+01
v 7.90650000e+03 4.74044439e+03 1.15466677e+01
v 7.90650000e+03 4.73343698e+03 2.97891142e+01
v 7.90650000e+03 4.73347420e+03 2.97333094e+01
v 7.90650000e+03 4.73376707e+03 2.76987987e+01
v 7.90650000e+03 4.73454091e+03 2.76237730e+01
v 7.90650000e+03 4.73546333e+03 2.74767761e+01
v 7.90650000e+03 4.73802506e+03 2.72604560e+01
v 7.90650000e+03 4.73904463e+03 2.71029159e+01
v 7.90650000e+03 4.73952790e+03 2.70002798e+01
v 7.90650000e+03 4.73686288e+03 2.73763019e+01
v 7.90650000e+03 4.74062980e+03 2.74227025e+01
v 7.90650000e+03 4.73958747e+03 2.70217010e+01
v 7.90650000e+03 4.74068391e+03 2.22897661e+01
v 7.90650000e+03 4.74076554e+03 2.01690458e+01
v 7.90650000e+03 4.74068455e+03 2.23949019e+01
v 7.90650000e+03 4.74096904e+03 2.29751586e+01
v 7.90650000e+03 4.74103034e+03 2.62772714e+01
v 7.90650000e+03 4.74117238e+03 2.49197034e+01
v 7.90650000e+03 4.74126164e+03 2.41761094e+01
v 7.90650000e+03 4.74076535e+03 1.99670468e+01
v 7.90650000e+03 4.74076781e+03 1.96649169e+01
v 7.90650000e+03 4.74080147e+03 1.47100762e+01
v 7.90650000e+03 4.74129997e+03 4.25004855e+00
v 7.90650000e+03 4.74185024e+03 3.97414741e+00
v 7.90650000e+03 4.74090224e+03 5.33902298e+00
v 7.90650000e+03 4.74096717e+03 5.52838472e+00
v 7.90650000e+03 4.74084228e+03 9.38026431e+00
v 7.90650000e+03 4.74084407e+03 9.33948581e+00
v 7.90650000e+03 4.74118310e+03 4.31020544e+00
v 7.90650000e+03 4.74091134e+03 7.02959930e+00
v 7.90650000e+03 4.74952541e+03 4.09194356e+00
v 7.90650000e+03 4.74902224e+03 4.15435420e+00
v 7.90650000e+03 4.74199608e+03 3.88534114e+00
v 7.90650000e+03 4.74527036e+03 3.81897479e+00
v 7.90650000e+03 4.74590151e+03 4.08022086e+00
v 7.90650000e+03 4.74188788e+03 3.89335846e+00
v 7.90650000e+03 4.74749945e+03 4.18421981e+00
v 7.90650000e+03 4.74857220e+03 4.15239678e+00
v 7.90650000e+03 4.75000000e+03 4.08591998e+00
v 7.89590219e+03 4.71850000e+03 2.84947050e+01
v 7.89618066e+03 4.71850000e+03 2.83281141e+01
v 7.89066947e+03 4.71850000e+03 2.49179782e+01
v 7.89060713e+03 4.71850000e+03 2.51179648e+01
v 7.89639932e+03 4.71850000e+03 2.83666198e+01
v 7.89638781e+03 4.71850000e+03 2.84594371e+01
v 7.89035667e+03 4.71850000e+03 1.27663314e+01
v 7.89052631e+03 4.71850000e+03 1.15295758e+01
v 7.89041001e+03 4.71850000e+03 1.92463192e+01
v 7.89051740e+03 4.71850000e+03 1.79642163e+01
v 7.89034458e+03 4.71850000e+03 1.02774416e+01
v 7.89025530e+03 4.71850000e+03 9.86766776e+00
v 7.89031452e+03 4.71850000e+03 2.39268361e+01
v 7.89027249e+03 4.71850000e+03 2.38005457e+01
v 7.89636775e+03 4.71850000e+03 2.97535702e+01
v 7.89822809e+03 4.71850000e+03 3.00896444e+01
v 7.90240308e+03 4.71850000e+03 3.08145734e+01
v 7.90386272e+03 4.71850000e+03 3.05268667e+01
v 7.89072512e+03 4.71850000e+03 2.71130633e+01
v 7.89063307e+03 4.71850000e+03 2.68461785e+01
v 7.89128138e+03 4.71850000e+03 2.71373712e+01
v 7.89462557e+03 4.71850000e+03 2.75682768e+01
v 7.89465790e+03 4.71850000e+03 2.75759527e+01
v 7.89480164e+03 4.71850000e+03 2.76498933e+01
v 7.89508911e+03 4.71850000e+03 2.83704092e+01
v 7.89626206e+03 4.71850000e+03 2.82951325e+01
v 7.89216716e+03 4.71850000e+03 2.70920335e+01
v 7.89266085e+03 4.71850000e+03 2.71062120e+01
v 7.89203611e+03 4.71850000e+03 2.71366891e+01
v 7.89329156e+03 4.71850000e+03 2.72861199e+01
v 7.89029492e+03 4.71850000e+03 2.60053302e+01
v 7.89041442e+03 4.71850000e+03 2.31300973e+01
v 7.89040399e+03 4.71850000e+03 2.41809085e+01
v 7.89062545e+03 4.71850000e+03 2.18893554e+01
v 7.89067215e+03 4.71850000e+03 2.16791765e+01
v 7.89058706e+03 4.71850000e+03 2.12182008e+01
v 7.89030282e+03 4.71850000e+03 1.66568136e+01
v 7.89027148e+03 4.71850000e+03 1.99684473e+01
v 7.89025960e+03 4.71850000e+03 1.32535558e+01
v 7.89036184e+03 4.71850000e+03 1.60775158e+01
v 7.89028726e+03 4.71850000e+03 1.63708008e+01
v 7.89027266e+03 4.71850000e+03 6.55529050e+00
v 7.89048631e+03 4.71850000e+03 5.23394110e+00
v 7.88242696e+03 4.71850000e+03 2.90745264e+00
v 7.88306492e+03 4.71850000e+03 3.14259558e+00
v 7.89031602e+03 4.71850000e+03 9.35749868e+00
v 7.89034817e+03 4.71850000e+03 7.21996755e+00
v 7.89054835e+03 4.71850000e+03 8.12453897e+00
v 7.88453388e+03 4.71850000e+03 2.88411062e+00
v 7.88318966e+03 4.71850000e+03 3.09759726e+00
v 7.88163348e+03 4.71850000e+03 2.71413766e+00
v 7.88214916e+03 4.71850000e+03 2.71061927e+00
v 7.87730371e+03 4.71850000e+03 2.81955048e+00
v 7.87865672e+03 4.71850000e+03 2.84351941e+00
v 7.88542008e+03 4.71850000e+03 2.91735389e+00
v 7.88975922e+03 4.71850000e+03 3.37637615e+00
v 7.88514743e+03 4.71850000e+03 2.93324579e+00
v 7.89054890e+03 4.71850000e+03 4.48526882e+00
v 7.89024707e+03 4.71850000e+03 3.42364500e+00
v 7.89044658e+03 4.71850000e+03 1.43604192e+01
v 7.89061124e+03 4.71850000e+03 1.49704907e+01
v 7.89014612e+03 4.71850000e+03 3.42250522e+00
v 7.87671830e+03 4.71850000e+03 2.81246352e+00
v 7.87475000e+03 4.71850000e+03 2.78863559e+00
v 7.90587028e+03 4.71850000e+03 3.01666209e+01
v 7.90650000e+03 4.71850000e+03 3.00536203e+01
vt 0.17596315 0.57585859
vt 0.19576862 0.5611912
vt 0.20648281 0.56529707
vt 0.19284615 0.598041
vt 0.16570182 0.54888135
vt 0.16194473 0.51628643
vt 0.20886107 0.59359479
vt 0.1522668 0.58111489
vt 0.23878849 0.50326216
vt 0.22124852 0.62341225
vt 0.22851303 0.59151101
vt 0.18674041 0.60767853
vt 0.13773562 0.539868
vt 0.14804052 0.52965456
vt 0.2448335 0.50325966
vt 0.17099287 0.50328946
vt 0.2142368 0.64630699
vt 0.27446291 0.53998971
vt 0.1541101 0.65505004
vt 0.09030626 0.57940787
vt 0.13419163 0.50329876
vt 0.24641083 0.50325912
vt 0.16673267 0.50329065
vt 0.23928724 0.64412153
vt 0.24484287 0.61765218
vt 0.29388005 0.57129526
vt 0.095605202 0.64780688
vt 0.12422534 0.50330472
vt 0.1118288 0.50331104
vt 0.13614111 0.50329864
vt 0.15714622 0.50329435
vt 0.24913178 0.71076065
vt 0.17261945 0.6960066
vt 0.11988629 0.50330842
vt 0.021083765 0.58930874
vt 0.065315694 0.50332463
vt 0.33545738 0.63274825
vt 0.32860041 0.76686412
vt 0.12246342 0.71655631
vt 0.043203808 0.64913464
vt 0.044175107 0.50333172
vt 0.25990415 0.79242694
vt 0.1972416 0.77440774
vt 0.16666164 0.77030718
vt 0.080008097 0.67847055
vt 0.0043038763 0.60467035
vt 0.0042917873 0.56167686
vt 0.38076553 0.70768285
vt 0.287999 0.83353829
vt 0.11838328 0.74818957
vt 0.080382727 0.70355219
vt 0.05993133 0.69042003
vt 0.0043098093 0.62732768
vt 0.0042990204 0.58599502
vt 0.035028018 0.50333476
vt 0.0042971764 0.57942873
vt 0.39171919 0.73256421
vt 0.28077647 0.85261309
vt 0.3348161 0.83564007
vt 0.18533669 0.83368456
vt 0.13071464 0.80709898
vt 0.045669023 0.68185276
vt 0.0071852338 0.6429956
vt 0.0042735087 0.50334501
vt 0.42164209 0.75874394
vt 0.32581389 0.87516755
vt 0.36701971 0.81873864
vt 0.25949335 0.89372677
vt 0.10561692 0.76706719
vt 0.069754452 0.72570384
vt 0.063361958 0.70851326
vt 0.023756288 0.65532166
vt 0.0043140166 0.63917178
vt 0.45127532 0.81596953
vt 0.41846719 0.869699
vt 0.21331835 0.93291998
vt 0.17869909 0.88719058
vt 0.10847607 0.79718792
vt 0.089513741 0.75716335
vt 0.034958735 0.68630111
vt 0.0043156398 0.64354306
vt 0.38508376 0.90545022
vt 0.20770675 0.95922101
vt 0.14163196 0.83281183
vt 0.12612501 0.82284111
vt 0.095084585 0.77448934
vt 0.011946691 0.65297943
vt 0.46755701 0.83216143
vt 0.31955418 0.95905411
vt 0.26300433 0.99543649
vt 0.19670463 0.9247458
vt 0.14139573 0.84541106
vt 0.0043265782 0.67500091
vt 0.47378656 0.85383499
vt 0.44859308 0.92545903
vt 0.34928894 0.95282745
vt 0.13305616 0.99548334
vt 0.17609616 0.92113483
vt 0.16976985 0.88738704
vt 0.0043264031 0.67467707
vt 0.025419336 0.69266766
vt 0.41333577 0.96928668
vt 0.37133071 0.96550524
vt 0.29090625 0.99542463
vt 0.15184607 0.87146753
vt 0.0043266062 0.67504799
vt 0.042533375 0.72038603
vt 0.50047874 0.87029862
vt 0.44571525 0.99537611
vt 0.3435075 0.97967005
vt 0.30473 0.99542165
vt 0.12686779 0.89646614
vt 0.0043266928 0.67531323
vt 0.021687092 0.73542309
vt 0.04646071 0.69225252
vt 0.50047815 0.86860788
vt 0.50049585 0.92146021
vt 0.40046218 0.99539256
vt 0.47932801 0.9393028
vt 0.42360917 0.9953866
vt 0.36638969 0.99540234
vt 0.10095467 0.89881408
vt 0.04039529 0.74511963
vt 0.062042013 0.72584009
vt 0.38252833 0.99539894
vt 0.5005042 0.95628566
vt 0.3530713 0.99540818
vt 0.071085475 0.99550128
vt 0.10569984 0.8291415
vt 0.13831031 0.85113853
vt 0.0043469425 0.74208504
vt 0.0043526692 0.75553221
vt 0.50049698 0.93131888
vt 0.50050986 0.97304767
vt 0.058022987 0.91589332
vt 0.059561707 0.88937628
vt 0.0043545002 0.76019299
vt 0.50051212 0.98007965
vt 0.047664598 0.94061184
vt 0.03913562 0.85749948
vt 0.004362864 0.78740525
vt 0.48381227 0.99536294
vt 0.052426554 0.82162404
vt 0.029382484 0.85744607
vt 0.0043656887 0.79523981
vt 0.50051522 0.98794234
vt 0.0043743583 0.82686269
vt 0.091670468 0.79082662
vt 0.013629897 0.84464896
vt 0.054392628 0.79640633
vt 0.50051761 0.99535799
vt 0.0043723555 0.82035369
vt 0.0043754177 0.83121008
vt 0.06621965 0.76732939
vt 0.0043664454 0.79826969
vt 0.0043755472 0.83747298
vt 0.051782422 0.74380666
vt 0.069654092 0.7423889
vt 0.078256495 0.7555632
vt 0.062042013 0.22584015
vt 0.04646071 0.19225252
vt 0.071889654 0.2110076
vt 0.082681261 0.22814286
vt 0.078548364 0.23455918
vt 0.80266935 0.69601572
vt 0.85974437 0.668172
vt 0.85947782 0.69952023
vt 0.84073168 0.72076595
vt 0.80909044 0.66088027
vt 0.89795548 0.69674999
vt 0.76134139 0.72077298
vt 0.91911018 0.72444308
vt 0.73305583 0.66801858
vt 0.78042197 0.61962521
vt 0.90743303 0.67173541
vt 0.82585806 0.75002229
vt 0.70528263 0.68744576
vt 0.89806819 0.7498275
vt 0.7367031 0.6276589
vt 0.85273415 0.62499249
vt 0.93313915 0.71664441
vt 0.88828164 0.62319934
vt 0.93274206 0.68334043
vt 0.77963483 0.74924368
vt 0.67640358 0.71999896
vt 0.93076599 0.75065905
vt 0.66601717 0.65293145
vt 0.69618952 0.62576663
vt 0.93046695 0.69758588
vt 0.9338401 0.72455549
vt 0.93113595 0.65247381
vt 0.93359578 0.67292368
vt 0.8333047 0.77850705
vt 0.73697448 0.74885583
vt 0.64306188 0.69106114
vt 0.93282545 0.73100775
vt 0.93272179 0.76982123
vt 0.93041033 0.64084548
vt 0.91702473 0.77630627
vt 0.7848134 0.77566236
vt 0.69169396 0.74378479
vt 0.58400548 0.71401608
vt 0.59212565 0.66796052
vt 0.67121363 0.62445426
vt 0.93384486 0.62407929
vt 0.9023757 0.80510092
vt 0.78512579 0.80485779
vt 0.73871905 0.79721278
vt 0.63915128 0.74800539
vt 0.93383783 0.77734882
vt 0.59440809 0.63127136
vt 0.63147438 0.62569964
vt 0.86964983 0.81571645
vt 0.83170497 0.80312955
vt 0.69289726 0.7957989
vt 0.56121534 0.74473453
vt 0.56237179 0.68828499
vt 0.55682409 0.64021152
vt 0.93171632 0.79473889
vt 0.93270856 0.82145047
vt 0.75121039 0.83121121
vt 0.53070778 0.77513129
vt 0.53293735 0.72128487
vt 0.52142835 0.67705768
vt 0.57078254 0.62776929
vt 0.92984307 0.80436748
vt 0.93356496 0.82597017
vt 0.64042848 0.82613653
vt 0.60279208 0.79966176
vt 0.52935517 0.74334073
vt 0.51950401 0.6441009
vt 0.54783231 0.62607324
vt 0.93339109 0.83044052
vt 0.88176435 0.84347653
vt 0.681503 0.85589302
vt 0.55180389 0.82782853
vt 0.51486206 0.7457087
vt 0.51247549 0.70253921
vt 0.51022398 0.71199465
vt 0.80419546 0.85311294
vt 0.61733872 0.85149807
vt 0.74090749 0.85148728
vt 0.52785224 0.80901402
vt 0.51105034 0.79006386
vt 0.52849936 0.62671685
vt 0.93095696 0.85097682
vt 0.84767008 0.85409832
vt 0.60188407 0.87802362
vt 0.73177731 0.87494421
vt 0.52486432 0.84639287
vt 0.93220198 0.87089026
vt 0.90169835 0.87936133
vt 0.82596689 0.87077594
vt 0.55506051 0.85293597
vt 0.70252609 0.8868739
vt 0.51377332 0.81991673
vt 0.54031658 0.87752163
vt 0.65353018 0.90612686
vt 0.70882487 0.89976257
vt 0.51405251 0.83209813
vt 0.5106259 0.79505241
vt 0.93379515 0.88205081
vt 0.83090055 0.88869828
vt 0.56140941 0.90402859
vt 0.68964815 0.9043501
vt 0.62677664 0.90260279
vt 0.75486869 0.90566128
vt 0.51105291 0.87232953
vt 0.5110833 0.87704194
vt 0.930206 0.90175998
vt 0.88048565 0.90624815
vt 0.58563071 0.90578002
vt 0.5545938 0.91316438
vt 0.61016047 0.92095113
vt 0.74486226 0.93332338
vt 0.67299801 0.93537605
vt 0.51108408 0.88019121
vt 0.92923993 0.90900755
vt 0.81801206 0.9059211
vt 0.5300644 0.90423614
vt 0.82718229 0.93647236
vt 0.92977649 0.91225135
vt 0.88586807 0.92327517
vt 0.53743052 0.93644714
vt 0.76708323 0.95562398
vt 0.68452078 0.95589942
vt 0.51198304 0.91331643
vt 0.81394053 0.9544453
vt 0.64412856 0.95654237
vt 0.93220544 0.93144631
vt 0.92826867 0.94216132
vt 0.57382029 0.95309901
vt 0.51197767 0.91495514
vt 0.72954363 0.97330886
vt 0.87892729 0.95791763
vt 0.79715478 0.97428924
vt 0.67070806 0.97619832
vt 0.57318884 0.97293615
vt 0.50479138 0.94649208
vt 0.87673098 0.97572368
vt 0.63460326 0.9712621
vt 0.93383664 0.94179881
vt 0.92931545 0.95950264
vt 0.51594001 0.97595477
vt 0.50895423 0.92379123
vt 0.78675836 0.99028945
vt 0.71486843 0.98783106
vt 0.83868533 0.99400055
vt 0.63820606 0.98947978
vt 0.93335813 0.94379759
vt 0.93233907 0.94782239
vt 0.57230455 0.98931783
vt 0.75130028 0.99226874
vt 0.67063314 0.98993433
vt 0.93003058 0.96257645
vt 0.86427271 0.99251652
vt 0.52075523 0.99128419
vt 0.93361092 0.97619003
vt 0.88482374 0.99519789
vt 0.51326942 0.99349535
vt 0.92975813 0.98953986
vt 0.92095441 0.99434596
vt 0.50850832 0.98230463
vt 0.92870981 0.99376625
vt 0.33331528 0.36359906
vt 0.33611819 0.37380928
vt 0.32330704 0.3642363
vt 0.3291347 0.35377365
vt 0.31592351 0.37696195
vt 0.31125569 0.35590744
vt 0.34833744 0.36454153
vt 0.32853013 0.39056605
vt 0.3254087 0.33236152
vt 0.34425545 0.34293354
vt 0.30182672 0.377119
vt 0.35326242 0.37662411
vt 0.28819424 0.3598274
vt 0.23790635 0.39615947
vt 0.37672916 0.37446266
vt 0.25172082 0.33134121
vt 0.37595284 0.3424083
vt 0.27320439 0.46350002
vt 0.27241406 0.37565547
vt 0.37682006 0.37529451
vt 0.35642043 0.35856891
vt 0.2351595 0.37479043
vt 0.30302334 0.32038814
vt 0.40581548 0.32327271
vt 0.36251634 0.41082484
vt 0.2156392 0.46707952
vt 0.37699452 0.38833034
vt 0.37779665 0.37232536
vt 0.21622598 0.3578701
vt 0.27534401 0.31002319
vt 0.32859015 0.30925697
vt 0.37019354 0.36304271
vt 0.40090796 0.3315739
vt 0.40965876 0.31807059
vt 0.33002403 0.4610073
vt 0.18562168 0.45137137
vt 0.24298269 0.4768095
vt 0.17966238 0.38157624
vt 0.37843084 0.37182903
vt 0.16067846 0.33311206
vt 0.2401593 0.31621677
vt 0.35509202 0.30731517
vt 0.38067734 0.36267906
vt 0.39052656 0.34812546
vt 0.31865653 0.47301495
vt 0.095754966 0.40471578
vt 0.25190148 0.47938079
vt 0.1471715 0.39667404
vt 0.20142493 0.31237447
vt 0.38883984 0.34944654
vt 0.37614605 0.30776387
vt 0.30302253 0.48989266
vt 0.27204764 0.48630106
vt 0.13642241 0.38532001
vt 0.15935986 0.37691957
vt 0.15727843 0.31927937
vt 0.38915706 0.35076398
vt 0.39027497 0.34853518
vt 0.41067955 0.31718522
vt 0.095249988 0.40392613
vt 0.096661538 0.40080065
vt 0.10286222 0.35994625
vt 0.12129632 0.33417988
vt 0.38692924 0.36108077
vt 0.41655523 0.30946136
vt 0.29811853 0.49518681
vt 0.095082253 0.38364393
vt 0.10339282 0.34610164
vt 0.12337013 0.31946397
vt 0.41305488 0.30465472
vt 0.069635667 0.36731976
vt 0.07661242 0.33300155
vt 0.42088538 0.30351478
vt 0.091253541 0.38138855
vt 0.056159183 0.3242625
vt 0.033562034 0.35188502
vt 0.080768883 0.37607414
vt 0.01314156 0.33897275
vt 0.049308352 0.35989887
vt 0.068270303 0.36915022
vt 0.0033600931 0.32886946
vt 0.019747116 0.34428239
vt 0.013198556 0.34039271
vt 0.012391843 0.34026188
vt 0.73154855 0.50508308
vt 0.74163359 0.49207115
vt 0.76004237 0.51631367
vt 0.73070621 0.52436852
vt 0.71324652 0.4952597
vt 0.7657041 0.4845854
vt 0.75838262 0.55080223
vt 0.73457873 0.46773845
vt 0.78776675 0.4798553
vt 0.7277723 0.54952335
vt 0.77330256 0.54718196
vt 0.68047005 0.48249078
vt 0.75273365 0.44687718
vt 0.78015119 0.50325245
vt 0.7282021 0.57216257
vt 0.70844084 0.51925123
vt 0.77323204 0.5663209
vt 0.78238392 0.52262151
vt 0.69095147 0.49489778
vt 0.70963365 0.42610109
vt 0.81821769 0.44616044
vt 0.81427926 0.51210403
vt 0.76504338 0.57735097
vt 0.71108663 0.55117983
vt 0.71306539 0.509817
vt 0.79564041 0.56159496
vt 0.80497313 0.53771889
vt 0.7001003 0.50178099
vt 0.6654712 0.51736271
vt 0.65403455 0.4340353
vt 0.74752671 0.41451114
vt 0.80913556 0.48187053
vt 0.73380512 0.593705
vt 0.69427657 0.56171525
vt 0.6883797 0.53814197
vt 0.68836015 0.51320785
vt 0.65085429 0.50448585
vt 0.65182889 0.4140178
vt 0.62024093 0.43329442
vt 0.77300197 0.39267349
vt 0.73195457 0.39894289
vt 0.74840516 0.61024529
vt 0.70326424 0.57730508
vt 0.83077455 0.5223875
vt 0.65612388 0.53019887
vt 0.61189121 0.47144783
vt 0.66529369 0.53247446
vt 0.66637713 0.39785695
vt 0.60484535 0.44473827
vt 0.75978512 0.38577217
vt 0.81158465 0.39261281
vt 0.69473851 0.38942236
vt 0.72052443 0.60830683
vt 0.67148632 0.56056899
vt 0.6372084 0.52238417
vt 0.66630059 0.38417411
vt 0.77812648 0.38429701
vt 0.83631271 0.41445154
vt 0.67662787 0.38288057
vt 0.73620331 0.3855052
vt 0.72614253 0.62098432
vt 0.6380657 0.53623354
vt 0.59351331 0.44884056
vt 0.595752 0.54187489
vt 0.83566433 0.3975392
vt 0.83723503 0.43333435
vt 0.83779526 0.38665468
vt 0.62016964 0.54649001
vt 0.55643451 0.48302525
vt 0.83749253 0.4526692
vt 0.56462425 0.46555632
vt 0.59026647 0.55584955
vt 0.57059109 0.54191142
vt 0.52790296 0.48867309
vt 0.53509474 0.52440965
vt 0.52008235 0.50091064
vt 0.56434351 0.57810628
vt 0.55469203 0.55052143
vt 0.52892202 0.50432819
vt 0.51738656 0.5526666
vt 0.52546245 0.50679195
vt 0.5375486 0.57573378
vt 0.52500391 0.52326548
vt 0.52318317 0.51608157
vt 0.51550096 0.54364783
vt 0.50457662 0.56228673
vt 0.50737208 0.32216746
vt 0.51608294 0.31348944
vt 0.52042574 0.3352499
vt 0.50363016 0.28541833
vt 0.53203297 0.31376058
vt 0.52906817 0.29527074
vt 0.52600753 0.27519649
vt 0.55006731 0.29518443
vt 0.50922441 0.26895881
vt 0.55500555 0.27163565
vt 0.51288372 0.25581574
vt 0.5591495 0.30383486
vt 0.52565306 0.23719507
vt 0.58512843 0.29177618
vt 0.55779666 0.2404514
vt 0.57503051 0.32308906
vt 0.57424378 0.26086515
vt 0.54690337 0.20787787
vt 0.5982911 0.29216427
vt 0.59713483 0.25455928
vt 0.5700615 0.2234109
vt 0.58511966 0.23433948
vt 0.5977335 0.3223033
vt 0.54869574 0.19318897
vt 0.62407339 0.28084171
vt 0.61263621 0.30391181
vt 0.58416736 0.33533156
vt 0.61590362 0.23988754
vt 0.59076095 0.22605544
vt 0.56454343 0.19254112
vt 0.63543314 0.25898641
vt 0.62951535 0.32572174
vt 0.59926236 0.34343612
vt 0.58161515 0.34421188
vt 0.6098929 0.22201025
vt 0.54996318 0.17338258
vt 0.64743054 0.28280932
vt 0.63596052 0.22757292
vt 0.63739586 0.24396819
vt 0.59673238 0.21473455
vt 0.56891626 0.17128086
vt 0.65105027 0.29387915
vt 0.64852631 0.29881829
vt 0.63229072 0.34421533
vt 0.58256215 0.36590099
vt 0.64259779 0.21353328
vt 0.60385799 0.19033521
vt 0.57734352 0.2230832
vt 0.55833548 0.15019852
vt 0.57299721 0.18517917
vt 0.64693356 0.30941606
vt 0.62945831 0.34595901
vt 0.64042097 0.3327561
vt 0.60744792 0.3594346
vt 0.64859623 0.23020297
vt 0.61542773 0.19079816
vt 0.58676994 0.20512944
vt 0.58397061 0.16185695
vt 0.57956332 0.18199086
vt 0.59485924 0.36711007
vt 0.63256937 0.19260287
vt 0.59970343 0.17029303
vt 0.60999024 0.15162253
vt 0.5850209 0.13266295
vt 0.58376968 0.37106365
vt 0.63035184 0.18653291
vt 0.6285041 0.17560464
vt 0.62457281 0.14362633
vt 0.59587508 0.1324051
vt 0.60961139 0.13617963
vt 0.92058551 0.36159623
vt 0.93159503 0.36118674
vt 0.92765266 0.36421454
vt 0.91807002 0.35218596
vt 0.93225551 0.3704474
vt 0.9076035 0.36117595
vt 0.90060687 0.35062146
vt 0.90212637 0.35797542
vt 0.91403717 0.32507616
vt 0.89104241 0.3233164
vt 0.8948583 0.35037017
vt 0.90932274 0.31085545
vt 0.88760912 0.3423506
vt 0.88877213 0.31287807
vt 0.92400956 0.30139625
vt 0.8751806 0.32510173
vt 0.89203656 0.29653513
vt 0.88196445 0.34038299
vt 0.86761367 0.30856645
vt 0.91917098 0.28876084
vt 0.86632627 0.33016503
vt 0.84900266 0.31872249
vt 0.87938887 0.28670251
vt 0.904697 0.28053647
vt 0.85423255 0.32572812
vt 0.86147588 0.29288763
vt 0.92182535 0.26750541
vt 0.84792984 0.29176497
vt 0.84359092 0.32114321
vt 0.8560577 0.2642855
vt 0.8911429 0.25830311
vt 0.91572827 0.25112331
vt 0.84515142 0.28073931
vt 0.87090021 0.25940239
vt 0.83984548 0.31874841
vt 0.83928764 0.28866434
vt 0.83258426 0.26921034
vt 0.8675198 0.23022288
vt 0.88643348 0.23351282
vt 0.81901193 0.27340084
vt 0.84167105 0.25502723
vt 0.83605152 0.22123259
vt 0.90407938 0.22505462
vt 0.83855635 0.31857944
vt 0.81826955 0.26677197
vt 0.82438767 0.25009763
vt 0.80629718 0.26458538
vt 0.81070507 0.24170351
vt 0.79034728 0.25518066
vt 0.80213857 0.27261758
vt 0.78426141 0.24456662
vt 0.77711958 0.2646023
vt 0.78547585 0.284518
vt 0.76621467 0.25205421
vt 0.76366431 0.27695853
vt 0.75665802 0.26661563
vt 0.75455236 0.2715897
vt 0.78362995 0.28619325
vt 0.75379544 0.26237345
vt 0.75596929 0.27826238
vt 0.7645005 0.28367746
vt 0.75994182 0.28226566
vt 0.94276452 0.9552415
vt 0.94440377 0.99241197
vt 0.94295961 0.99097264
vt 0.9414897 0.95552886
vt 0.942972 0.99223959
vt 0.94314283 0.92333043
vt 0.94300109 0.99693304
vt 0.94359231 0.9227435
vt 0.9431482 0.92318368
vt 0.94314766 0.92272156
vt 0.94315493 0.92214358
vt 0.94857389 0.89078647
vt 0.94342631 0.88963735
vt 0.95809865 0.89423597
vt 0.94365346 0.8684274
vt 0.94574422 0.86735368
vt 0.95556176 0.91291875
vt 0.95633268 0.86433405
vt 0.94338036 0.86625087
vt 0.94478589 0.84989834
vt 0.94504267 0.84838945
vt 0.94455302 0.85003388
vt 0.94734812 0.84074885
vt 0.96924829 0.8506602
vt 0.94750553 0.83936739
vt 0.46052963 0.71150446
vt 0.47365987 0.71902788
vt 0.45631722 0.73898286
vt 0.4458321 0.72554594
vt 0.49044794 0.71023917
vt 0.47766036 0.73258567
vt 0.4423494 0.69757354
vt 0.48197457 0.69395107
vt 0.48095903 0.74641967
vt 0.50580949 0.7009722
vt 0.45528224 0.67088801
vt 0.51091796 0.68997687
vt 0.48190257 0.66793239
vt 0.50659776 0.6763612
vt 0.4497461 0.64823103
vt 0.49457493 0.64089966
vt 0.48100567 0.65577149
vt 0.45852512 0.62766552
vt 0.40251133 0.62027907
vt 0.40723208 0.59384847
vt 0.43354785 0.61552733
vt 0.37190631 0.60941625
vt 0.45990071 0.61655086
vt 0.37533319 0.6209957
vt 0.4474403 0.59799218
vt 0.3475357 0.61138874
vt 0.96901715 0.95986122
vt 0.96410227 0.99702656
vt 0.95238459 0.99387604
vt 0.94206125 0.97869879
vt 0.97450465 0.98764151
vt 0.94589895 0.94715422
vt 0.98859853 0.96488452
vt 0.97032869 0.91106117
vt 0.98719186 0.98611158
vt 0.99076521 0.93613148
vt 0.9909696 0.9202702
vt 0.47967395 0.57470965
vt 0.45945114 0.56999922
vt 0.46752867 0.5555107
vt 0.47951692 0.55920112
vt 0.4676612 0.59073269
vt 0.45207483 0.55422747
vt 0.49336562 0.53926599
vt 0.49930736 0.56169391
vt 0.48383051 0.59876579
vt 0.44875228 0.5833478
vt 0.4621788 0.54516548
vt 0.50861007 0.57752573
vt 0.48505145 0.61621004
vt 0.4962579 0.59716314
vt 0.44891793 0.58358383
vt 0.4486818 0.58317608
vt 0.44833747 0.55056018
vt 0.50589883 0.55348325
vt 0.47564912 0.61482769
vt 0.45187232 0.59239537
vt 0.44388959 0.55919445
vt 0.46614295 0.60516131
vt 0.48042271 0.62049156
vt 0.45934859 0.60334074
vt 0.4483622 0.58203042
vt 0.46045059 0.60518992
vt 0.45640132 0.60167629
vt 0.44213817 0.5615567
vt 0.41555929 0.66819167
vt 0.40759957 0.64762151
vt 0.44105098 0.64754105
vt 0.36364949 0.65825677
vt 0.01159834 0.95730174
vt 0.011350531 0.9720701
vt 0.010879557 0.97171342
vt 0.0054650735 0.96666038
vt 0.018007984 0.96208924
vt 0.014895678 0.97881502
vt 0.010117047 0.97996271
vt 0.0045606196 0.96048039
vt 0.0094937095 0.93207848
vt 0.0051497854 0.94066548
vt 0.0045814458 0.96675611
vt 0.0055205459 0.92973262
vt 0.0042884769 0.9151023
vt 0.9486044 0.80408865
vt 0.95802671 0.81114739
vt 0.94813937 0.81054187
vt 0.95218676 0.79624647
vt 0.94438559 0.82076013
vt 0.96610326 0.79873621
vt 0.94509363 0.81527644
vt 0.96397752 0.82467502
vt 0.96175867 0.78439939
vt 0.96955985 0.80901855
vt 0.94278133 0.81959903
vt 0.9761523 0.8185569
vt 0.95604962 0.82698077
vt 0.98890263 0.7773031
vt 0.98795259 0.80135441
vt 0.9421398 0.82063645
vt 0.97781008 0.83975703
vt 0.99229074 0.81838024
vt 0.99780494 0.83953071
vt 0.59772247 0.62196898
vt 0.57814574 0.61928093
vt 0.59115154 0.6064772
vt 0.58660227 0.58867633
vt 0.55694032 0.6126982
vt 0.54675585 0.61795676
vt 0.57020628 0.5915392
vt 0.55536193 0.59147716
vt 0.53908694 0.58947778
vt 0.53428364 0.59845209
vt 0.014264233 0.87575084
vt 0.032897078 0.92480791
vt 0.0099326475 0.9083221
vt 0.0031298758 0.8944329
vt 0.042098641 0.90781963
vt 0.043470241 0.89445829
vt 0.0403286 0.92018843
vt 0.040034685 0.92498201
vt 0.039973237 0.93370157
vt 0.96935946 0.75981629
vt 0.98128241 0.77409881
vt 0.9559744 0.77559936
vt 0.94080824 0.75413287
vt 0.98830307 0.77026343
vt 0.97948378 0.77812445
vt 0.96401578 0.74787188
vt 0.99157339 0.76455748
vt 0.95780581 0.77690816
vt 0.98124689 0.73485816
vt 0.94854385 0.73199189
vt 0.99456459 0.76134717
vt 0.47121915 0.75735402
vt 0.47567475 0.76629591
vt 0.46348727 0.76153827
vt 0.48118055 0.7623387
vt 0.46495453 0.7882185
vt 0.44393694 0.76743281
vt 0.4862712 0.77838242
vt 0.44318855 0.77062458
vt 0.44761938 0.79373509
vt 0.441773 0.76863503
vt 0.45356607 0.80641103
vt 0.45260647 0.80587375
vt 0.4529652 0.80664766
vt 0.45395008 0.80868787
vt 0.49059406 0.83956623
vt 0.47194713 0.83493823
vt 0.48535481 0.81461608
vt 0.51057154 0.82233894
vt 0.50199777 0.79305339
vt 0.49224755 0.79250824
vt 0.47667176 0.80574477
vt 0.9417091 0.71390212
vt 0.9405793 0.70023584
vt 0.94883871 0.71557963
vt 0.95283431 0.69987416
vt 0.9419831 0.68424904
vt 0.95833153 0.69038832
vt 0.96870184 0.67894697
vt 0.9694531 0.69458562
vt 0.98451012 0.69104993
vt 0.42116573 0.74404836
vt 0.42810071 0.72537661
vt 0.43564668 0.73950863
vt 0.41631287 0.74239135
vt 0.43961996 0.72687161
vt 0.42172128 0.74507809
vt 0.41322935 0.71148145
vt 0.42830649 0.7043494
vt 0.41941512 0.74609411
vt 0.41098025 0.71392691
vt 0.41669565 0.74635571
vt 0.42011353 0.70488274
vt 0.41407475 0.73808515
vt 0.020586539 0.96559769
vt 0.037830606 0.94148028
vt 0.035010803 0.97829509
vt 0.020064022 0.9799487
vt 0.9961825 0.91723078
vt 0.97317076 0.90442437
vt 0.98988926 0.88223195
vt 0.0047931927 0.87195325
vt 0.0098249987 0.85724938
vt 0.021495569 0.85268235
vt 0.036971591 0.8682636
vt 0.014366169 0.85162091
vt 0.98627526 0.85523206
vt 0.98790836 0.87069362
vt 0.95763069 0.86415315
vt 0.97533739 0.71227121
vt 0.98612028 0.7234332
vt 0.9648304 0.72975814
vt 0.95608389 0.70588523
vt 0.98246008 0.87085271
vt 0.98558289 0.88490754
vt 0.95681596 0.87533897
vt 0.96516365 0.88588506
vt 0.040709533 0.96526015
vt 0.053535052 0.96067548
vt 0.048271623 0.97303069
vt 0.042225823 0.98067349
vt 0.039617293 0.95348763
vt 0.053128101 0.96463883
vt 0.037704919 0.96867782
vt 0.050508648 0.95615041
vt 0.035950094 0.96297073
vt 0.49979204 0.79006636
vt 0.49044386 0.79337496
vt 0.49089703 0.77670705
vt 0.4739441 0.79295218
vt 0.47357124 0.79352105
vt 0.48810399 0.77590817
vt 0.5111832 0.74578285
vt 0.48813075 0.74560809
vt 0.48798919 0.7274369
vt 0.50350946 0.72679245
vt 0.034804516 0.9273085
vt 0.025384974 0.94877934
vt 0.018699989 0.92538834
vt 0.95646399 0.91847289
vt 0.9567098 0.90142298
vt 0.96759629 0.90381879
vt 0.97859967 0.90889412
vt 0.97148389 0.88269264
vt 0.97227275 0.89143831
vt 0.96759272 0.89067119
vt 0.97055 0.88267553
vt 0.96698469 0.89175123
vt 0.95917749 0.90228677
vt 0.95780891 0.9016248
vt 0.97437185 0.89313114
vt 0.97651404 0.88796335
vt 0.97765744 0.89659572
vt 0.39868668 0.69280994
vt 0.40430558 0.69377452
vt 0.39385208 0.70381892
vt 0.40290809 0.71527779
vt 0.40621299 0.7020576
vt 0.035113428 0.93017858
vt 0.047366414 0.93632787
vt 0.041245628 0.94140124
vt 0.041483536 0.94922066
vt 0.49029505 0.84953171
vt 0.47710419 0.85618693
vt 0.48364982 0.84194285
vt 0.48724526 0.83866167
vt 0.47315973 0.84775448
vt 0.0052801608 0.98522192
vt 0.0062927366 0.99681628
vt 0.004676315 0.98025525
vt 0.0042438256 0.99393183
vt 0.011558634 0.98923117
vt 0.012470246 0.99655753
vt 0.014680429 0.99200481
vt 0.014910351 0.99550569
vt 0.012545836 0.99682564
usemtl Tile_+038_+019_L19_000321_0
f 449/325 346/326 451/327
f 233/165 454/166 464/167
f 352/895 360/896 622/897
f 349/334 348/333 350/341
f 343/300 342/295 624/303
f 445/332 353/336 626/339
f 351/345 350/341 352/356
f 346/326 2/329 451/327
f 41/340 345/347 348/333
f 341/247 316/253 113/240
f 628/197 340/178 629/186
f 630/251 337/234 631/246
f 296/193 340/178 339/199
f 296/193 444/214 293/207
f 113/240 292/221 337/234
f 333/271 312/263 335/252
f 355/342 445/332 637/349
f 445/332 346/326 353/336
f 450/331 449/325 357/328
f 1/872 358/873 451/874
f 357/328 349/334 450/331
f 357/328 451/327 358/330
f 448/335 2/329 445/332
f 445/332 355/342 169/338
f 350/341 354/374 360/367
f 349/334 357/328 348/333
f 350/341 360/367 352/356
f 360/367 354/374 645/381
f 351/842 353/843 450/844
f 450/865 353/866 346/867
f 351/345 349/334 350/341
f 348/333 357/328 358/330
f 451/327 357/328 449/325
f 2/875 1/872 451/874
f 450/844 349/845 351/842
f 626/339 351/345 647/352
f 351/345 352/356 623/363
f 348/333 447/366 648/358
f 344/375 359/394 642/389
f 648/358 344/375 650/383
f 359/322 344/319 343/300
f 343/300 344/319 447/316
f 447/366 348/333 446/355
f 350/341 348/333 649/348
f 41/340 348/333 347/337
f 39/346 356/343 169/338
f 85/306 84/296 446/308
f 446/308 343/300 447/316
f 446/308 84/296 343/300
f 448/335 347/337 358/330
f 39/346 41/340 347/337
f 358/330 347/337 348/333
f 345/347 85/354 446/355
f 348/333 345/347 446/355
f 358/846 1/847 448/848
f 356/343 39/346 347/337
f 169/338 356/343 448/335
f 169/338 448/335 445/332
f 448/335 356/343 347/337
f 169/338 355/342 568/350
f 321/281 322/279 334/283
f 641/321 343/300 652/318
f 323/288 343/300 84/296
f 342/295 343/300 323/288
f 624/303 332/291 654/311
f 323/288 321/281 342/295
f 332/291 342/295 321/281
f 653/290 334/283 655/282
f 655/282 333/271 656/278
f 334/283 332/291 321/281
f 334/283 322/279 333/271
f 335/252 316/253 341/247
f 656/278 335/252 657/270
f 312/263 316/253 335/252
f 322/279 312/263 333/271
f 3/206 338/213 296/193
f 292/221 293/207 338/213
f 337/234 341/247 113/240
f 337/234 335/252 341/247
f 296/193 440/176 340/178
f 444/214 296/193 338/213
f 293/207 444/214 338/213
f 338/213 3/206 661/220
f 338/213 337/234 292/221
f 658/233 338/213 662/227
f 455/1 456/2 4/3
f 455/1 436/8 458/5
f 428/25 452/11 453/26
f 339/199 3/206 296/193
f 440/176 296/193 162/184
f 629/186 336/172 632/196
f 340/178 440/176 441/168
f 336/172 340/178 441/168
f 441/168 464/167 336/172
f 463/170 462/175 668/183
f 454/166 462/175 463/170
f 667/181 463/170 669/189
f 463/170 336/172 464/167
f 233/165 464/167 441/168
f 224/27 461/20 436/8
f 464/167 454/166 463/170
f 233/165 240/169 454/166
f 462/175 454/166 6/182
f 439/717 430/718 455/719
f 439/4 457/7 425/10
f 458/5 436/8 460/13
f 460/13 461/20 672/29
f 665/28 460/13 673/34
f 461/20 434/35 674/41
f 461/20 460/13 436/8
f 455/1 458/5 456/2
f 439/4 4/3 457/7
f 458/5 5/6 456/2
f 5/6 459/14 666/21
f 458/5 460/13 459/14
f 453/180 454/166 244/174
f 455/1 430/12 436/8
f 4/3 452/11 457/7
f 4/3 439/4 455/1
f 6/18 453/26 452/11
f 452/11 425/10 457/7
f 452/11 428/25 425/10
f 453/180 6/182 454/166
f 450/865 346/867 449/868
f 2/329 346/326 445/332
f 2/849 448/848 1/847
f 643/368 350/341 651/357
f 3/206 339/199 660/210
f 293/207 161/200 296/193
f 664/191 6/182 679/198
f 674/41 467/47 684/55
f 5/6 458/5 459/14
f 4/3 456/2 5/6
f 4/3 5/6 677/9
f 240/169 244/174 454/166
f 244/37 428/25 453/26
f 680/22 4/3 683/15
f 452/11 4/3 6/18
f 17/678 92/679 18/680
f 469/734 69/735 470/736
f 31/187 239/173 32/177
f 36/362 40/379 38/364
f 38/364 37/353 36/362
f 53/276 47/274 46/265
f 42/365 41/340 45/373
f 52/495 49/496 51/497
f 69/735 65/741 70/738
f 66/689 78/690 67/691
f 63/745 62/751 51/750
f 61/692 60/695 57/696
f 19/399 44/402 43/405
f 72/876 58/877 575/878
f 77/284 14/292 13/298
f 74/721 75/722 73/723
f 72/724 74/721 73/723
f 43/726 71/727 73/723
f 44/881 71/883 43/885
f 73/723 75/722 43/726
f 302/772 87/773 86/774
f 82/393 11/387 12/396
f 38/364 11/387 91/380
f 58/877 75/884 71/883
f 85/354 345/347 41/340
f 41/340 42/365 85/354
f 473/565 26/566 474/567
f 86/774 87/773 475/777
f 114/542 117/551 116/534
f 113/240 316/253 9/249
f 108/513 81/520 109/517
f 106/587 299/581 107/583
f 102/409 101/410 100/411
f 64/706 57/696 60/695
f 64/506 99/504 68/508
f 15/519 314/531 477/536
f 138/592 135/586 479/593
f 107/583 136/580 135/586
f 577/256 125/250 578/260
f 54/431 55/441 120/423
f 90/850 83/851 483/852
f 156/523 155/529 154/516
f 147/480 146/472 145/476
f 143/590 144/594 106/587
f 100/411 101/410 395/414
f 46/265 103/259 53/276
f 49/496 48/499 51/497
f 167/627 166/628 582/629
f 115/827 165/828 114/829
f 40/379 34/378 170/386
f 169/338 35/372 36/362
f 36/362 37/353 39/346
f 37/353 41/340 39/346
f 42/313 45/307 168/294
f 38/364 41/340 37/353
f 168/294 85/306 42/313
f 91/314 171/297 45/307
f 171/297 168/294 45/307
f 41/340 38/364 45/373
f 50/285 84/296 168/294
f 50/285 168/294 141/286
f 321/281 323/288 50/285
f 169/338 36/362 39/346
f 36/362 34/378 40/379
f 35/372 169/338 584/370
f 35/372 34/378 36/362
f 574/385 35/372 585/384
f 170/386 34/378 573/391
f 173/395 170/386 586/398
f 12/396 19/399 82/393
f 38/364 40/379 170/386
f 38/364 91/380 45/373
f 170/386 172/392 38/364
f 38/364 172/392 11/387
f 141/286 53/276 33/275
f 82/393 91/380 11/387
f 141/286 168/294 171/297
f 171/297 91/314 82/309
f 174/301 82/309 13/298
f 12/396 11/387 172/392
f 173/395 12/396 172/392
f 19/312 13/298 82/309
f 172/392 170/386 173/395
f 43/317 76/304 19/312
f 76/304 43/317 58/320
f 44/402 12/396 589/400
f 589/400 173/395 592/403
f 593/880 44/881 594/882
f 53/276 176/289 14/292
f 19/399 12/396 44/402
f 76/304 13/298 19/312
f 76/891 72/892 75/893
f 43/903 75/904 58/905
f 58/320 72/323 76/304
f 74/721 76/725 75/722
f 58/877 71/883 44/881
f 72/892 71/894 75/893
f 73/723 71/727 72/724
f 88/652 317/653 62/654
f 62/751 63/745 331/743
f 309/248 311/266 324/272
f 310/264 326/273 247/257
f 89/748 62/751 331/743
f 62/654 317/653 122/657
f 320/739 89/748 331/743
f 331/743 63/745 69/735
f 63/745 65/741 69/735
f 49/496 52/495 123/498
f 122/657 52/660 62/654
f 51/750 62/751 52/752
f 60/695 61/692 67/691
f 99/504 158/509 318/511
f 60/502 99/504 64/506
f 15/519 315/514 139/525
f 16/526 15/519 478/537
f 66/689 57/696 56/700
f 48/699 330/694 65/705
f 65/741 63/745 51/750
f 67/691 61/692 66/689
f 69/735 320/739 331/743
f 330/694 48/699 67/691
f 330/694 78/690 489/698
f 330/694 67/691 78/690
f 64/706 56/700 57/696
f 68/508 108/513 56/510
f 327/697 66/689 79/702
f 177/693 66/689 327/697
f 65/869 51/870 48/871
f 64/506 68/508 56/510
f 247/257 326/273 248/280
f 10/267 33/275 103/259
f 326/273 310/264 47/274
f 597/293 328/299 598/305
f 489/698 177/693 493/703
f 66/689 177/693 78/690
f 492/708 329/712 494/715
f 14/292 77/284 53/276
f 77/284 326/273 53/276
f 76/725 74/721 328/729
f 74/721 72/724 599/728
f 328/729 74/721 600/730
f 16/526 109/517 81/520
f 178/527 16/526 498/538
f 80/539 79/528 178/527
f 80/539 178/527 500/548
f 177/693 327/697 80/701
f 109/517 16/526 178/527
f 177/693 80/701 496/707
f 79/702 80/701 327/697
f 56/510 325/521 79/528
f 66/689 56/700 79/702
f 109/517 56/510 108/513
f 178/527 79/528 325/521
f 325/521 56/510 109/517
f 109/517 178/527 325/521
f 315/514 108/513 68/508
f 16/526 81/520 15/519
f 103/259 9/249 10/267
f 304/235 9/249 29/255
f 83/851 90/850 508/854
f 47/274 311/266 30/258
f 311/266 47/274 324/272
f 47/274 53/276 326/273
f 30/258 46/265 47/274
f 168/294 84/296 85/306
f 141/286 171/297 176/289
f 33/275 50/285 141/286
f 176/289 174/301 13/298
f 13/298 14/292 176/289
f 171/297 174/301 176/289
f 174/301 171/297 82/309
f 123/656 317/653 88/652
f 84/296 50/285 323/288
f 9/249 303/242 113/240
f 33/275 321/281 50/285
f 321/281 33/275 10/267
f 322/279 321/281 10/267
f 103/259 29/255 9/249
f 26/737 320/739 69/735
f 97/573 98/568 175/571
f 97/747 320/739 98/742
f 510/814 319/815 511/816
f 319/815 83/817 87/820
f 475/823 83/817 509/826
f 107/583 299/581 94/578
f 320/739 26/737 98/742
f 144/594 143/590 264/597
f 140/532 155/529 257/540
f 256/784 285/785 126/786
f 517/791 286/788 519/792
f 300/834 285/835 96/836
f 138/592 143/590 135/586
f 142/789 126/786 286/788
f 86/774 286/775 302/772
f 136/580 306/574 520/577
f 522/589 136/580 523/585
f 93/576 97/573 306/574
f 306/574 97/573 175/571
f 112/763 314/764 139/765
f 88/652 110/659 123/656
f 313/522 315/514 154/516
f 139/525 315/514 313/522
f 105/501 59/500 123/498
f 123/498 104/503 105/501
f 15/519 139/525 314/531
f 315/514 15/519 108/513
f 15/519 81/520 108/513
f 68/508 99/504 318/511
f 67/691 48/699 60/695
f 59/500 49/496 123/498
f 121/505 148/507 99/504
f 99/504 60/502 59/500
f 52/660 122/657 123/656
f 48/499 59/500 60/502
f 49/496 59/500 48/499
f 89/655 88/652 62/654
f 317/653 123/656 122/657
f 88/652 89/655 97/658
f 89/748 320/739 97/747
f 97/573 93/576 149/579
f 59/500 105/501 99/504
f 123/656 110/659 104/661
f 97/658 149/662 110/659
f 88/652 97/658 110/659
f 10/267 9/249 312/263
f 9/249 316/253 312/263
f 307/241 304/235 309/248
f 46/265 30/258 29/255
f 29/255 103/259 46/265
f 30/258 309/248 29/255
f 309/248 310/264 247/257
f 125/250 247/257 602/269
f 309/248 304/235 29/255
f 307/241 309/248 308/254
f 309/248 247/257 308/254
f 125/250 308/254 247/257
f 307/241 308/254 246/236
f 288/664 305/665 110/659
f 116/534 117/551 277/541
f 121/663 104/661 110/659
f 148/507 158/509 99/504
f 139/765 111/766 112/763
f 165/524 131/544 117/551
f 140/532 111/533 313/522
f 139/525 313/522 111/533
f 116/534 156/523 114/542
f 155/529 140/532 313/522
f 154/516 155/529 313/522
f 110/659 305/665 121/663
f 305/461 148/450 121/469
f 288/664 260/668 150/667
f 115/827 114/829 156/830
f 110/659 149/662 288/664
f 154/516 115/515 156/523
f 115/515 54/512 298/518
f 112/549 111/533 140/532
f 155/529 156/523 116/534
f 301/778 286/775 300/782
f 158/509 54/512 115/515
f 158/509 148/507 54/512
f 305/461 55/441 148/450
f 303/242 292/221 113/240
f 299/581 93/576 94/578
f 285/835 95/838 96/836
f 266/588 261/584 299/581
f 137/781 301/778 300/782
f 107/583 143/590 106/587
f 261/584 149/579 299/581
f 93/576 299/581 149/579
f 137/600 138/592 480/599
f 302/772 286/775 301/778
f 264/597 138/592 137/600
f 135/586 143/590 107/583
f 306/574 136/580 94/578
f 136/580 107/583 94/578
f 94/578 93/576 306/574
f 304/235 307/241 291/228
f 127/616 142/617 263/619
f 291/228 290/229 295/215
f 162/184 161/200 27/194
f 160/208 159/201 27/194
f 133/543 18/558 294/552
f 278/557 152/556 294/552
f 144/594 264/597 262/601
f 160/208 161/200 293/207
f 291/228 295/215 292/221
f 293/207 292/221 160/208
f 160/208 292/221 295/215
f 159/201 295/215 119/209
f 291/228 246/236 290/229
f 246/236 124/243 118/222
f 153/553 132/535 152/556
f 148/450 55/441 54/431
f 150/451 55/441 305/461
f 289/424 270/432 251/443
f 114/542 165/524 117/551
f 132/535 131/544 165/524
f 260/668 288/664 261/666
f 277/541 117/551 152/556
f 153/553 152/556 117/551
f 153/553 117/551 131/544
f 297/434 282/419 133/435
f 132/535 297/530 133/543
f 165/524 115/515 298/518
f 131/544 132/535 153/553
f 297/434 298/425 282/419
f 297/530 165/524 298/518
f 297/530 132/535 165/524
f 118/222 124/243 166/244
f 183/230 182/216 118/222
f 118/222 182/216 119/209
f 295/215 290/229 118/222
f 160/208 295/215 159/201
f 118/222 119/209 295/215
f 278/557 277/541 152/556
f 276/839 273/840 274/841
f 18/558 278/557 294/552
f 133/435 180/430 18/452
f 18/558 92/563 278/557
f 133/435 134/426 180/430
f 278/557 92/563 280/564
f 255/612 147/606 254/610
f 275/444 251/443 273/455
f 146/472 151/463 145/476
f 271/481 267/486 249/483
f 274/607 273/596 272/603
f 272/470 145/476 151/463
f 272/603 24/598 145/602
f 147/480 271/481 146/472
f 273/455 251/443 269/462
f 145/602 144/594 147/606
f 281/415 54/431 120/423
f 287/418 157/412 281/415
f 24/598 144/594 145/602
f 255/485 267/486 271/481
f 285/785 300/790 286/788
f 259/550 277/541 278/557
f 283/561 259/550 278/557
f 255/485 271/481 147/480
f 288/664 149/662 261/666
f 252/442 120/423 150/451
f 299/581 106/587 266/588
f 143/590 138/592 264/597
f 96/604 264/597 137/600
f 262/601 264/597 96/604
f 126/614 142/617 127/616
f 255/612 268/613 265/615
f 150/667 260/668 261/666
f 305/665 288/664 150/667
f 277/541 155/529 116/534
f 257/540 259/550 258/555
f 257/540 155/529 259/550
f 254/610 253/605 95/609
f 262/601 253/605 144/594
f 147/606 253/605 254/610
f 261/666 269/669 150/667
f 269/462 252/442 150/451
f 251/443 270/432 252/442
f 265/490 267/486 255/485
f 147/606 144/594 253/605
f 256/611 268/613 255/612
f 127/616 268/613 126/614
f 25/595 266/588 106/587
f 106/587 144/594 24/598
f 24/598 25/595 106/587
f 256/611 254/610 95/609
f 255/612 254/610 256/611
f 268/613 256/611 126/614
f 265/615 268/613 127/616
f 265/490 250/488 267/486
f 127/616 250/618 265/615
f 127/616 263/619 528/621
f 263/619 142/617 518/622
f 247/257 248/280 596/277
f 166/244 124/243 577/256
f 579/632 167/627 583/630
f 232/202 181/195 28/185
f 232/202 182/216 184/223
f 22/224 238/217 232/202
f 402/61 215/78 237/69
f 232/202 238/217 8/203
f 25/595 24/598 272/603
f 23/644 185/642 186/646
f 181/195 232/202 8/203
f 235/75 426/67 236/38
f 224/27 234/45 205/40
f 296/193 161/200 162/184
f 228/90 230/89 229/104
f 208/122 210/112 226/97
f 465/46 205/40 536/53
f 231/805 203/806 202/807
f 197/92 199/84 198/77
f 425/10 424/17 439/4
f 219/68 220/76 217/60
f 220/76 198/77 217/60
f 415/83 228/90 226/97
f 214/670 211/671 215/672
f 212/49 427/59 213/66
f 23/644 186/646 605/647
f 22/224 23/231 7/218
f 188/188 31/187 187/204
f 7/218 8/203 22/224
f 196/179 239/173 31/187
f 22/640 164/643 163/634
f 119/209 232/202 28/185
f 180/681 241/683 17/678
f 184/223 22/224 232/202
f 28/185 159/201 119/209
f 28/185 32/177 179/171
f 179/171 27/194 28/185
f 159/201 28/185 27/194
f 186/646 185/642 607/645
f 181/195 31/187 32/177
f 179/171 32/177 233/165
f 411/813 389/812 433/811
f 227/98 200/99 410/91
f 273/596 25/595 272/603
f 129/413 245/420 396/416
f 394/417 395/414 375/421
f 128/427 129/413 442/436
f 128/427 442/436 275/444
f 405/445 245/420 276/437
f 405/445 151/463 373/454
f 96/604 95/609 262/601
f 289/424 443/433 157/412
f 533/491 250/488 537/493
f 442/436 129/413 443/433
f 157/412 129/413 102/409
f 157/831 443/832 129/833
f 157/412 102/409 100/411
f 442/436 443/433 289/424
f 289/424 275/444 442/436
f 274/453 272/470 151/463
f 441/168 440/176 179/171
f 99/504 105/501 121/505
f 179/171 162/184 27/194
f 119/209 182/216 232/202
f 394/417 398/422 100/411
f 394/417 241/440 180/430
f 395/414 394/417 100/411
f 294/552 132/535 133/543
f 18/680 180/681 17/678
f 398/422 394/417 180/430
f 100/411 398/422 134/426
f 118/222 167/237 183/230
f 608/641 189/638 612/639
f 182/216 183/230 184/223
f 161/200 160/208 27/194
f 162/184 179/171 440/176
f 179/171 233/165 441/168
f 233/165 239/173 240/169
f 207/162 231/163 397/160
f 231/753 207/754 203/755
f 397/798 202/799 386/800
f 397/160 20/161 207/162
f 20/758 21/757 207/754
f 231/163 202/164 397/160
f 433/79 385/70 243/50
f 32/177 239/173 233/165
f 431/759 385/756 21/757
f 8/203 31/187 181/195
f 22/640 189/638 185/642
f 8/203 190/211 31/187
f 190/211 191/212 31/187
f 8/203 238/217 22/224
f 412/130 210/112 211/129
f 417/110 407/127 409/111
f 227/98 384/105 200/99
f 197/675 384/677 412/673
f 208/122 209/128 414/135
f 375/421 395/414 396/416
f 396/416 371/428 375/421
f 189/638 163/634 610/637
f 8/203 7/218 190/211
f 380/149 423/140 400/144
f 539/145 204/143 540/155
f 432/123 391/150 539/145
f 399/154 391/150 432/123
f 546/132 432/123 547/137
f 550/93 378/101 551/106
f 211/129 437/136 423/140
f 435/859 438/860 223/861
f 438/87 435/72 201/80
f 223/63 205/40 435/72
f 548/862 438/860 553/863
f 536/53 223/63 552/73
f 416/139 414/135 209/128
f 423/140 380/149 544/153
f 435/72 206/62 201/80
f 201/762 206/761 20/758
f 204/143 211/129 423/140
f 225/19 224/27 436/8
f 208/122 437/136 211/129
f 234/45 224/27 429/39
f 429/39 222/51 234/45
f 221/760 431/759 21/757
f 207/754 21/757 385/756
f 211/129 204/143 392/148
f 372/449 400/460 437/468
f 209/475 381/459 416/465
f 437/468 414/458 372/449
f 431/71 222/51 385/70
f 414/135 437/136 208/122
f 198/77 410/91 200/99
f 211/129 210/112 208/122
f 390/810 385/809 433/811
f 411/674 215/672 211/671
f 432/123 393/157 399/154
f 243/50 429/39 218/44
f 390/158 389/159 399/154
f 221/52 234/45 222/51
f 234/45 221/52 205/40
f 432/802 377/801 386/800
f 402/61 199/84 214/85
f 402/61 214/85 215/78
f 243/50 237/69 433/79
f 429/39 243/50 222/51
f 221/52 206/62 205/40
f 435/72 205/40 206/62
f 205/40 434/35 224/27
f 430/12 225/19 436/8
f 217/60 198/77 402/61
f 213/66 194/58 212/49
f 194/58 219/68 195/43
f 198/77 220/76 410/91
f 428/25 387/24 425/10
f 415/83 220/76 219/68
f 424/720 430/718 439/717
f 220/76 415/83 410/91
f 226/97 210/112 227/98
f 227/98 410/91 415/83
f 213/66 426/67 235/75
f 236/38 388/32 387/24
f 217/60 195/43 219/68
f 401/33 225/19 424/17
f 429/39 401/33 218/44
f 226/97 227/98 415/83
f 218/44 217/60 402/61
f 402/61 237/69 243/50
f 225/19 430/12 424/17
f 401/33 424/17 388/32
f 388/32 195/43 401/33
f 195/43 216/42 194/58
f 244/174 240/169 196/179
f 408/121 418/103 421/125
f 244/174 196/179 188/188
f 369/109 420/102 406/95
f 420/102 367/118 418/103
f 235/75 242/94 406/95
f 191/212 187/204 31/187
f 235/75 422/82 213/66
f 236/38 188/48 187/57
f 236/38 426/67 427/59
f 418/103 419/96 422/82
f 418/103 408/121 417/110
f 230/89 219/68 422/82
f 420/102 418/103 422/82
f 369/109 368/120 420/102
f 422/82 406/95 420/102
f 422/82 419/96 230/89
f 230/89 419/96 418/103
f 417/110 230/89 418/103
f 409/111 230/89 417/110
f 230/89 228/90 219/68
f 190/211 7/218 192/225
f 213/66 427/59 426/67
f 193/88 242/94 235/75
f 235/75 192/74 193/88
f 216/42 236/38 212/49
f 213/66 422/82 219/68
f 195/43 218/44 401/33
f 219/68 228/90 415/83
f 413/448 416/465 381/459
f 198/77 200/99 197/92
f 392/148 399/154 411/86
f 227/98 210/112 384/105
f 386/808 202/807 203/806
f 385/70 222/51 243/50
f 222/51 431/71 221/52
f 411/86 237/69 215/78
f 198/77 199/84 402/61
f 387/24 424/17 425/10
f 230/89 409/111 229/104
f 209/128 208/122 226/97
f 382/439 414/458 413/448
f 414/458 416/465 413/448
f 211/671 214/670 412/673
f 218/44 402/61 243/50
f 411/86 399/154 389/159
f 197/92 214/85 199/84
f 197/675 412/673 214/670
f 384/105 197/92 200/99
f 240/169 239/173 196/179
f 219/68 194/58 213/66
f 407/127 417/110 408/121
f 376/119 406/95 616/117
f 7/218 193/232 192/225
f 615/108 242/94 618/116
f 193/232 7/218 23/231
f 242/650 23/644 606/649
f 382/439 413/448 366/429
f 555/447 245/420 556/457
f 370/478 366/429 383/474
f 17/678 241/683 366/685
f 381/459 363/466 366/429
f 303/242 9/249 304/235
f 65/741 330/746 70/738
f 470/736 70/738 558/740
f 33/275 53/276 103/259
f 68/508 318/511 315/514
f 77/284 248/280 326/273
f 273/455 276/437 275/444
f 482/489 249/483 534/492
f 277/541 259/550 155/529
f 120/423 55/441 150/451
f 246/236 308/254 125/250
f 175/571 98/568 514/570
f 61/692 57/696 66/689
f 70/709 330/694 490/704
f 324/272 47/274 310/264
f 53/276 141/286 176/289
f 13/298 76/304 77/284
f 595/287 77/284 597/293
f 495/714 177/693 502/710
f 77/284 76/304 328/299
f 526/767 112/763 560/768
f 324/272 310/264 309/248
f 154/516 315/514 318/511
f 285/785 256/784 95/787
f 312/263 322/279 10/267
f 302/772 301/778 137/781
f 306/574 175/571 515/575
f 300/834 96/836 137/837
f 126/786 285/785 286/788
f 561/776 302/772 562/779
f 519/792 86/794 524/795
f 302/772 137/781 527/783
f 513/821 87/820 561/825
f 115/515 154/516 158/509
f 318/511 158/509 154/516
f 105/501 104/503 121/505
f 311/266 309/248 30/258
f 281/415 298/425 54/431
f 269/462 251/443 252/442
f 291/228 292/221 304/235
f 292/221 303/242 304/235
f 291/228 307/241 246/236
f 118/222 290/229 246/236
f 132/535 294/552 152/556
f 281/415 282/419 298/425
f 134/426 133/435 282/419
f 280/682 92/679 17/678
f 100/411 134/426 282/419
f 281/415 100/411 282/419
f 280/564 279/562 278/557
f 274/453 405/445 276/437
f 17/678 364/684 280/682
f 274/453 151/463 405/445
f 281/415 120/423 287/418
f 157/412 100/411 281/415
f 157/412 287/418 289/424
f 287/418 270/432 289/424
f 253/605 262/601 95/609
f 266/588 273/596 269/591
f 270/432 120/423 252/442
f 269/591 261/584 266/588
f 120/423 270/432 287/418
f 25/595 273/596 266/588
f 250/618 127/616 531/620
f 249/483 267/486 250/488
f 124/243 246/236 125/250
f 166/244 167/237 118/222
f 163/239 183/230 167/237
f 371/428 403/438 557/446
f 22/224 184/223 164/238
f 385/756 203/755 207/754
f 191/65 236/38 187/57
f 380/467 400/460 371/428
f 543/464 371/428 563/456
f 185/642 23/644 22/640
f 180/430 134/426 398/422
f 163/239 164/238 184/223
f 184/223 183/230 163/239
f 28/185 181/195 32/177
f 245/420 371/428 396/416
f 397/124 377/107 20/115
f 371/428 372/449 382/439
f 395/414 101/410 396/416
f 366/429 241/440 394/417
f 396/416 101/410 129/413
f 129/413 128/427 245/420
f 102/409 129/413 101/410
f 245/420 128/427 276/437
f 245/420 405/445 373/454
f 146/472 271/481 374/477
f 374/477 130/487 481/484
f 249/483 374/477 271/481
f 128/427 275/444 276/437
f 289/424 251/443 275/444
f 364/684 279/686 280/682
f 211/671 392/676 411/674
f 188/188 196/179 31/187
f 427/59 212/49 236/38
f 242/245 193/232 23/231
f 382/439 375/421 371/428
f 206/761 221/760 20/758
f 189/638 22/640 163/634
f 363/466 381/459 362/473
f 377/107 379/114 378/101
f 378/101 379/114 541/113
f 378/101 201/80 377/107
f 438/87 201/80 550/93
f 393/803 386/800 390/804
f 203/806 385/809 386/808
f 377/801 397/798 386/800
f 434/35 461/20 224/27
f 204/143 423/140 554/147
f 389/812 390/810 433/811
f 399/154 392/148 391/150
f 390/158 399/154 393/157
f 204/143 391/150 392/148
f 433/79 237/69 411/86
f 386/800 393/803 432/802
f 385/809 390/810 386/808
f 20/115 377/107 201/80
f 221/760 21/757 20/758
f 212/49 194/58 216/42
f 225/19 401/33 224/27
f 195/43 217/60 218/44
f 195/43 388/32 216/42
f 388/32 424/17 387/24
f 401/33 429/39 224/27
f 387/24 428/25 244/37
f 191/212 190/211 192/225
f 235/75 236/38 192/74
f 420/102 368/120 367/118
f 369/109 376/119 619/126
f 236/38 191/65 192/74
f 406/95 422/82 235/75
f 216/42 388/32 236/38
f 412/130 384/105 210/112
f 400/144 423/140 437/136
f 382/439 372/449 414/458
f 432/123 379/114 377/107
f 406/95 376/119 369/109
f 556/457 373/454 566/471
f 400/460 372/449 371/428
f 188/48 236/38 244/37
f 373/454 146/472 374/477
f 371/428 245/420 403/438
f 151/463 146/472 373/454
f 249/483 130/487 374/477
f 566/471 374/477 567/479
f 366/429 413/448 381/459
f 375/421 382/439 366/429
f 366/429 394/417 375/421
f 387/24 244/37 236/38
f 259/550 283/561 284/560
f 278/557 279/562 283/561
f 258/555 259/550 284/560
f 614/138 369/109 620/134
f 367/118 421/125 418/103
f 363/466 383/474 366/429
f 364/684 17/678 366/685
f 364/684 366/685 365/687
f 366/685 370/688 365/687
f 112/549 140/532 257/540
f 381/459 209/475 362/473
f 361/900 363/901 362/902
f 465/46 434/35 205/40
f 466/54 434/35 465/46
f 467/47 434/35 468/56
f 468/56 434/35 466/54
f 469/734 26/737 69/735
f 470/736 69/735 70/738
f 471/822 83/817 485/819
f 472/824 83/817 471/822
f 473/565 98/568 26/566
f 474/567 26/566 469/569
f 475/823 87/820 83/817
f 476/780 86/774 475/777
f 477/771 314/764 504/770
f 478/537 15/519 477/536
f 479/593 135/586 522/589
f 480/599 138/592 479/593
f 481/484 130/487 482/489
f 482/489 130/487 249/483
f 483/852 83/851 472/855
f 484/853 90/850 483/852
f 485/819 83/817 510/814
f 486/545 16/526 478/537
f 487/716 70/709 491/713
f 488/744 70/738 487/749
f 489/698 78/690 177/693
f 490/704 330/694 489/698
f 491/713 70/709 490/704
f 492/708 177/693 329/712
f 493/703 177/693 492/708
f 494/906 329/907 495/908
f 495/714 329/712 177/693
f 496/707 80/701 497/711
f 497/559 80/539 501/554
f 498/538 16/526 505/547
f 499/546 178/527 498/538
f 500/548 178/527 499/546
f 501/554 80/539 500/548
f 502/710 177/693 496/707
f 503/769 314/764 526/767
f 504/770 314/764 503/769
f 505/547 16/526 486/545
f 506/856 90/850 484/853
f 507/858 90/850 506/856
f 508/854 90/850 507/858
f 509/857 83/851 508/854
f 510/814 83/817 319/815
f 511/816 319/815 512/818
f 512/818 319/815 513/821
f 513/821 319/815 87/820
f 514/570 98/568 473/565
f 515/886 175/887 516/888
f 516/888 175/887 535/889
f 517/791 142/789 286/788
f 518/793 142/789 517/791
f 519/792 286/788 86/794
f 520/577 306/574 515/575
f 521/582 136/580 520/577
f 522/589 135/586 136/580
f 523/585 136/580 521/582
f 524/795 86/794 525/796
f 525/796 86/794 476/797
f 526/767 314/764 112/763
f 527/608 137/600 480/599
f 528/621 263/619 529/624
f 529/624 263/619 530/626
f 530/626 263/619 532/625
f 531/620 127/616 528/621
f 532/625 263/619 518/622
f 533/491 249/483 250/488
f 534/492 249/483 533/491
f 535/889 175/887 559/890
f 536/53 205/40 223/63
f 537/493 250/488 538/494
f 538/623 250/618 531/620
f 539/145 391/150 204/143
f 540/155 204/143 565/152
f 541/113 379/114 542/131
f 542/131 379/114 546/132
f 543/464 380/467 371/428
f 544/153 380/149 543/156
f 545/141 432/123 539/145
f 546/132 379/114 432/123
f 547/137 432/123 545/141
f 548/862 223/861 438/860
f 549/864 223/861 548/862
f 550/93 201/80 378/101
f 551/106 378/101 541/113
f 552/73 223/63 549/81
f 553/100 438/87 550/93
f 554/147 423/140 544/153
f 555/447 403/438 245/420
f 556/457 245/420 373/454
f 557/446 403/438 555/447
f 558/740 70/738 488/744
f 559/572 175/571 514/570
f 561/776 87/773 302/772
f 562/779 302/772 527/783
f 563/456 371/428 557/446
f 564/482 374/477 481/484
f 565/152 204/143 554/147
f 566/471 373/454 374/477
f 567/479 374/477 564/482
f 568/350 355/342 569/361
f 569/361 355/342 571/371
f 570/377 355/342 686/376
f 571/371 355/342 570/377
f 572/360 169/338 568/350
f 573/391 34/378 574/385
f 574/385 34/378 35/372
f 575/878 58/877 593/880
f 576/879 72/876 575/878
f 577/256 124/243 125/250
f 578/260 125/250 603/268
f 579/632 163/634 167/627
f 580/635 163/634 579/632
f 581/631 166/628 604/633
f 582/629 166/628 581/631
f 583/630 167/627 582/629
f 584/370 169/338 572/360
f 585/384 35/372 584/370
f 586/398 170/386 573/391
f 587/401 173/395 586/398
f 588/404 173/395 587/401
f 589/400 12/396 173/395
f 590/406 44/402 589/400
f 591/407 44/402 590/406
f 592/403 173/395 588/404
f 593/880 58/877 44/881
f 594/408 44/402 591/407
f 595/287 248/280 77/284
f 596/277 248/280 595/287
f 597/293 77/284 328/299
f 598/733 328/729 601/732
f 599/728 72/724 576/731
f 600/730 74/721 599/728
f 601/732 328/729 600/730
f 602/269 247/257 596/277
f 603/268 125/250 602/269
f 604/261 166/244 577/256
f 605/647 186/646 611/648
f 606/649 23/644 605/647
f 607/645 185/642 608/641
f 608/641 185/642 189/638
f 609/636 163/634 580/635
f 610/637 163/634 609/636
f 611/648 186/646 607/645
f 612/639 189/638 610/637
f 613/146 404/142 614/138
f 614/138 404/142 369/109
f 615/108 406/95 242/94
f 616/117 406/95 615/108
f 617/133 376/119 616/117
f 618/651 242/650 606/649
f 619/126 376/119 617/133
f 620/134 369/109 619/126
f 621/151 404/142 613/146
f 622/897 360/896 646/899
f 623/898 352/895 622/897
f 624/303 342/295 332/291
f 625/315 343/300 624/303
f 626/339 353/336 351/345
f 627/344 445/332 626/339
f 628/197 339/199 340/178
f 629/186 340/178 336/172
f 630/251 335/252 337/234
f 631/246 337/234 658/233
f 632/196 336/172 633/190
f 633/190 336/172 667/181
f 634/310 332/291 635/302
f 635/302 332/291 653/290
f 636/351 445/332 627/344
f 637/349 445/332 636/351
f 638/359 355/342 637/349
f 639/369 355/342 638/359
f 640/324 359/322 641/321
f 641/321 359/322 343/300
f 642/389 359/394 640/397
f 643/368 354/374 350/341
f 644/382 354/374 643/368
f 645/381 354/374 644/382
f 646/388 360/367 645/381
f 647/352 351/345 623/363
f 648/358 447/366 344/375
f 649/348 348/333 648/358
f 650/383 344/375 642/389
f 651/357 350/341 649/348
f 652/318 343/300 625/315
f 653/290 332/291 334/283
f 654/311 332/291 634/310
f 655/282 334/283 333/271
f 656/278 333/271 335/252
f 657/270 335/252 659/262
f 658/233 337/234 338/213
f 659/262 335/252 630/251
f 660/210 339/199 628/197
f 661/220 3/206 682/226
f 662/227 338/213 661/220
f 663/192 462/175 664/191
f 664/191 462/175 6/182
f 665/28 459/14 460/13
f 666/21 459/14 665/28
f 667/181 336/172 463/170
f 668/183 462/175 663/192
f 669/189 463/170 668/183
f 670/31 5/6 671/30
f 671/30 5/6 666/21
f 672/29 461/20 675/36
f 673/34 460/13 672/29
f 674/41 434/35 467/47
f 675/36 461/20 674/41
f 676/16 5/6 678/23
f 677/9 5/6 676/16
f 678/23 5/6 670/31
f 679/198 6/182 680/205
f 680/22 6/18 4/3
f 681/219 3/206 660/210
f 682/226 3/206 681/219
f 683/15 4/3 677/9
f 684/55 467/47 685/64
f 686/376 355/342 639/369
f 687/390 570/377 686/376
usemtl Tile_+038_+019_L19_000321_untextured
