mtllib Tile_+038_+019_L19_000324.mtl
v 7.88555180e+03 4.69326858e+03 2.69342911e+01
v 7.88437712e+03 4.70122573e+03 3.79698837e+01
v 7.88204569e+03 4.70243863e+03 3.98719642e+01
v 7.89115448e+03 4.69637218e+03 3.05762114e+01
v 7.88970520e+03 4.69638150e+03 3.03068613e+01
v 7.88493901e+03 4.70468621e+03 2.88497331e+01
v 7.88501435e+03 4.70605693e+03 3.04481744e+01
v 7.89340776e+03 4.69977543e+03 3.05624677e+01
v 7.89518617e+03 4.70348780e+03 3.16276669e+01
v 7.89361643e+03 4.70013512e+03 2.73151514e+01
v 7.89514648e+03 4.70063378e+03 2.69645055e+01
v 7.90462695e+03 4.71145539e+03 2.64974834e+01
v 7.89798538e+03 4.69941743e+03 2.66129858e+01
v 7.89894312e+03 4.69927044e+03 2.75898986e+01
v 7.88785341e+03 4.69194044e+03 2.66451284e+01
v 7.88908808e+03 4.69387728e+03 2.73565704e+01
v 7.88951564e+03 4.69436620e+03 2.66691317e+01
v 7.88366515e+03 4.70350275e+03 2.90651758e+01
v 7.88289988e+03 4.70224016e+03 2.88306595e+01
v 7.87996620e+03 4.70136628e+03 3.26528864e+01
v 7.87996027e+03 4.70181788e+03 3.25702675e+01
v 7.88320322e+03 4.70306809e+03 3.05185030e+01
v 7.88455562e+03 4.70471813e+03 2.80884366e+01
v 7.88821790e+03 4.70933461e+03 2.79323920e+01
v 7.88831518e+03 4.70923086e+03 2.98607839e+01
v 7.88132257e+03 4.70218940e+03 4.45442667e+01
v 7.88123050e+03 4.70227273e+03 4.80233259e+01
v 7.88063633e+03 4.70083816e+03 3.41535088e+01
v 7.88272877e+03 4.70218813e+03 3.16318211e+01
v 7.88434717e+03 4.70113444e+03 3.16403935e+01
v 7.88292658e+03 4.70197748e+03 4.39901440e+01
v 7.88403880e+03 4.69976408e+03 4.10701579e+01
v 7.88450286e+03 4.70111577e+03 3.31004885e+01
v 7.88281426e+03 4.70225819e+03 4.83007248e+01
v 7.89438932e+03 4.70115516e+03 2.89197932e+01
v 7.89410061e+03 4.70105163e+03 2.74046290e+01
v 7.90438890e+03 4.71126468e+03 2.72362110e+01
v 7.88893977e+03 4.71609690e+03 2.68594979e+01
v 7.90253068e+03 4.70837552e+03 2.65868360e+01
v 7.88726153e+03 4.70938191e+03 2.73645455e+01
v 7.88915511e+03 4.71143007e+03 2.72444900e+01
v 7.90134370e+03 4.70647907e+03 2.66323314e+01
v 7.88338394e+03 4.69579042e+03 2.64070002e+01
v 7.87992682e+03 4.69859955e+03 2.69054709e+01
v 7.88275638e+03 4.70254982e+03 2.66959548e+01
v 7.88065663e+03 4.70064787e+03 2.68218214e+01
v 7.90425442e+03 4.69618359e+03 2.64516296e+01
v 7.89095338e+03 4.69710898e+03 3.16587988e+01
v 7.89074880e+03 4.69890532e+03 3.10769219e+01
v 7.90345613e+03 4.69838889e+03 2.64424949e+01
v 7.90174927e+03 4.69609848e+03 2.66525015e+01
v 7.89875352e+03 4.70279597e+03 2.76138854e+01
v 7.89692068e+03 4.69994980e+03 2.94613526e+01
v 7.90483929e+03 4.69844535e+03 2.64342111e+01
v 7.90578590e+03 4.69371355e+03 2.67084277e+01
v 7.89889433e+03 4.69801389e+03 2.66744269e+01
v 7.89886091e+03 4.70279964e+03 2.95042136e+01
v 7.89660057e+03 4.69885032e+03 2.67157176e+01
v 7.89541836e+03 4.69880476e+03 2.74162029e+01
v 7.89919466e+03 4.69920392e+03 2.84414841e+01
v 7.89876172e+03 4.69946426e+03 2.87650440e+01
v 7.89902925e+03 4.69967068e+03 2.76120344e+01
v 7.89279055e+03 4.69384941e+03 2.70526944e+01
v 7.89903802e+03 4.69904098e+03 2.69084214e+01
v 7.89490656e+03 4.69771107e+03 2.70635579e+01
v 7.90157198e+03 4.70830825e+03 2.78191143e+01
v 7.89964087e+03 4.70525266e+03 2.76113170e+01
v 7.90545326e+03 4.69906834e+03 2.71047159e+01
v 7.90203473e+03 4.70788811e+03 2.73756445e+01
v 7.90051414e+03 4.70557162e+03 2.73983800e+01
v 7.89867195e+03 4.69917555e+03 2.85068056e+01
v 7.89742532e+03 4.70014010e+03 2.75604576e+01
v 7.89616586e+03 4.69982611e+03 2.91930689e+01
v 7.88553348e+03 4.70645246e+03 2.69850863e+01
v 7.88487870e+03 4.70583611e+03 2.75018884e+01
v 7.88651373e+03 4.70745128e+03 2.89004404e+01
v 7.89961831e+03 4.70394347e+03 2.69415909e+01
v 7.88481642e+03 4.70546298e+03 2.69035923e+01
v 7.88358550e+03 4.70674231e+03 2.77714559e+01
v 7.89327767e+03 4.69894618e+03 2.69972464e+01
v 7.88052540e+03 4.70078031e+03 2.93362285e+01
v 7.87974198e+03 4.70157297e+03 2.78171249e+01
v 7.87994515e+03 4.70137125e+03 2.96461841e+01
v 7.88467876e+03 4.70463336e+03 2.72768509e+01
v 7.88468264e+03 4.70162896e+03 3.08580450e+01
v 7.88500463e+03 4.70340581e+03 3.09624141e+01
v 7.89758804e+03 4.70065870e+03 2.63900089e+01
v 7.89740768e+03 4.70076032e+03 2.76615555e+01
v 7.89853610e+03 4.70465607e+03 2.98206175e+01
v 7.89670583e+03 4.69973942e+03 2.76077527e+01
v 7.89841291e+03 4.69965145e+03 2.78716306e+01
v 7.89583328e+03 4.69984327e+03 2.71454658e+01
v 7.88342426e+03 4.69471441e+03 2.67778156e+01
v 7.88358853e+03 4.69580399e+03 2.71640459e+01
v 7.88983857e+03 4.69682966e+03 2.75345017e+01
v 7.89036159e+03 4.69585142e+03 2.73953360e+01
v 7.88081216e+03 4.70068624e+03 3.06977622e+01
v 7.88112654e+03 4.70013904e+03 3.15743025e+01
v 7.87986658e+03 4.69923837e+03 3.05499147e+01
v 7.89088935e+03 4.69638592e+03 2.79600104e+01
v 7.89132593e+03 4.69644609e+03 2.70795898e+01
v 7.89363283e+03 4.69660988e+03 2.72089703e+01
v 7.89092042e+03 4.69522535e+03 2.70543598e+01
v 7.89037316e+03 4.69519621e+03 2.66309950e+01
v 7.88433272e+03 4.69574133e+03 2.90176482e+01
v 7.88312603e+03 4.69496482e+03 2.70634486e+01
v 7.88365448e+03 4.69466556e+03 2.74702881e+01
v 7.89282577e+03 4.69933273e+03 2.83998513e+01
v 7.88141227e+03 4.70228923e+03 2.81951389e+01
v 7.88000874e+03 4.69850491e+03 3.05403427e+01
v 7.88780692e+03 4.69360866e+03 3.03425249e+01
v 7.88745521e+03 4.69373937e+03 2.77265517e+01
v 7.88218573e+03 4.69698878e+03 3.06599959e+01
v 7.88718570e+03 4.69361089e+03 3.02361564e+01
v 7.88640525e+03 4.69267810e+03 2.74624842e+01
v 7.88483155e+03 4.69541658e+03 2.69355691e+01
v 7.88502851e+03 4.69392109e+03 2.74153713e+01
v 7.88843424e+03 4.69273867e+03 2.72716911e+01
v 7.88659549e+03 4.69415614e+03 2.71157773e+01
v 7.88770066e+03 4.69356600e+03 2.72043635e+01
v 7.88636773e+03 4.71197940e+03 2.73336675e+01
v 7.88531403e+03 4.71042811e+03 2.72925120e+01
v 7.88868409e+03 4.69523001e+03 2.73124932e+01
v 7.88867078e+03 4.69456091e+03 2.70335232e+01
v 7.88494862e+03 4.69573798e+03 3.16120322e+01
v 7.88744943e+03 4.69421378e+03 3.18851876e+01
v 7.88970950e+03 4.69730339e+03 3.13750883e+01
v 7.89114246e+03 4.69664135e+03 2.93281804e+01
v 7.88785090e+03 4.69198612e+03 2.76541123e+01
v 7.88978249e+03 4.70312487e+03 3.10582867e+01
v 7.88894149e+03 4.70343516e+03 3.14002257e+01
v 7.88387197e+03 4.70819985e+03 2.76895165e+01
v 7.88602340e+03 4.71018833e+03 2.70940560e+01
v 7.88662753e+03 4.70805094e+03 2.70339312e+01
v 7.89441791e+03 4.71552791e+03 2.97488677e+01
v 7.89625707e+03 4.71829835e+03 2.83586652e+01
v 7.89328265e+03 4.71784657e+03 2.73637762e+01
v 7.89475883e+03 4.71854796e+03 2.75915235e+01
v 7.89490482e+03 4.71633034e+03 2.83216707e+01
v 7.89385535e+03 4.71731135e+03 2.78616904e+01
v 7.88083772e+03 4.70024419e+03 3.27827091e+01
v 7.87973943e+03 4.70172531e+03 3.95953262e+01
v 7.88009329e+03 4.70179287e+03 3.76508090e+01
v 7.88391479e+03 4.69994608e+03 3.17520402e+01
v 7.88323172e+03 4.69899548e+03 3.31927700e+01
v 7.88188559e+03 4.70007864e+03 3.19197961e+01
v 7.88603688e+03 4.69946760e+03 3.15669472e+01
v 7.88745722e+03 4.69915895e+03 3.09896193e+01
v 7.88429345e+03 4.70009172e+03 4.44879418e+01
v 7.88317087e+03 4.69940632e+03 4.45843770e+01
v 7.88371540e+03 4.69956165e+03 4.65711183e+01
v 7.88762120e+03 4.70873980e+03 3.15805653e+01
v 7.88717613e+03 4.70460868e+03 3.10795721e+01
v 7.88733895e+03 4.70907239e+03 2.96552708e+01
v 7.88610640e+03 4.69834790e+03 3.11327813e+01
v 7.89125016e+03 4.70086907e+03 3.11717156e+01
v 7.88830395e+03 4.69577198e+03 3.12493637e+01
v 7.88462251e+03 4.69742069e+03 3.11022679e+01
v 7.89591750e+03 4.70088934e+03 2.99367320e+01
v 7.89382649e+03 4.71458890e+03 2.78078173e+01
v 7.88461937e+03 4.70120208e+03 4.92445102e+01
v 7.88451527e+03 4.70108888e+03 5.03895159e+01
v 7.88060017e+03 4.70209351e+03 4.99726279e+01
v 7.88129493e+03 4.70234122e+03 5.09017674e+01
v 7.88076609e+03 4.70133097e+03 5.05812972e+01
v 7.88321772e+03 4.70278355e+03 3.12664688e+01
v 7.88164760e+03 4.70250741e+03 3.10729478e+01
v 7.88324015e+03 4.70204140e+03 4.15611281e+01
v 7.88135504e+03 4.70261682e+03 4.14317198e+01
v 7.88146307e+03 4.70317874e+03 4.98200415e+01
v 7.88410378e+03 4.70087450e+03 5.08901181e+01
v 7.87976646e+03 4.70218254e+03 4.95072220e+01
v 7.87975894e+03 4.70169605e+03 4.65577829e+01
v 7.88031751e+03 4.70106198e+03 4.61461716e+01
v 7.87974957e+03 4.70137826e+03 4.95209833e+01
v 7.88193147e+03 4.70063340e+03 5.08439128e+01
v 7.88247599e+03 4.70262737e+03 5.04924899e+01
v 7.90263529e+03 4.70978104e+03 2.88620393e+01
v 7.89118334e+03 4.70649036e+03 3.15984558e+01
v 7.89025119e+03 4.70730150e+03 3.17311041e+01
v 7.90207341e+03 4.70977443e+03 2.97494556e+01
v 7.89591352e+03 4.70485240e+03 3.03358081e+01
v 7.89623072e+03 4.70395648e+03 3.03502058e+01
v 7.88534952e+03 4.70586270e+03 2.88954358e+01
v 7.88226074e+03 4.69970726e+03 3.30634060e+01
v 7.88834196e+03 4.70682157e+03 3.10664236e+01
v 7.88884586e+03 4.70809634e+03 3.16277031e+01
v 7.90356154e+03 4.71004276e+03 2.94550511e+01
v 7.88760164e+03 4.70959981e+03 3.06902723e+01
v 7.88485339e+03 4.70815640e+03 2.71397718e+01
v 7.90305122e+03 4.71019238e+03 2.78025714e+01
v 7.90453970e+03 4.71243085e+03 2.79283282e+01
v 7.88962886e+03 4.70843195e+03 2.99803748e+01
v 7.89353399e+03 4.70570805e+03 3.08022139e+01
v 7.88943739e+03 4.70846069e+03 2.78919967e+01
v 7.89005033e+03 4.70906281e+03 2.78974392e+01
v 7.88737210e+03 4.71351237e+03 2.70399073e+01
v 7.90587057e+03 4.71446530e+03 2.77524590e+01
v 7.89189958e+03 4.71751905e+03 2.70927271e+01
v 7.89102608e+03 4.71890510e+03 2.71558076e+01
v 7.89187437e+03 4.71269299e+03 2.76053189e+01
v 7.89296801e+03 4.70378200e+03 3.10275750e+01
v 7.89419353e+03 4.70458542e+03 3.16845816e+01
v 7.89255294e+03 4.69953190e+03 3.16145672e+01
v 7.88066007e+03 4.70087717e+03 2.79791319e+01
v 7.87995400e+03 4.70176175e+03 3.47065414e+01
v 7.89507379e+03 4.71897074e+03 2.88122708e+01
v 7.89459463e+03 4.70159222e+03 2.99233285e+01
v 7.90610727e+03 4.71380624e+03 2.95526862e+01
v 7.90552262e+03 4.71489869e+03 2.97648629e+01
v 7.90294267e+03 4.71331518e+03 3.00540764e+01
v 7.89509998e+03 4.71816580e+03 2.80567032e+01
v 7.89546629e+03 4.71716888e+03 2.81181523e+01
v 7.89401235e+03 4.71749626e+03 2.85631801e+01
v 7.89407841e+03 4.71698423e+03 2.87879193e+01
v 7.89439057e+03 4.71580984e+03 2.78219046e+01
v 7.87995199e+03 4.70172614e+03 4.34185727e+01
v 7.89857774e+03 4.71267616e+03 3.08338130e+01
v 7.88055654e+03 4.70091287e+03 4.15408654e+01
v 7.87966755e+03 4.70184433e+03 3.08821031e+01
v 7.87984900e+03 4.70149408e+03 3.69985246e+01
v 7.88214164e+03 4.70230554e+03 3.64710422e+01
v 7.88452507e+03 4.70106015e+03 3.53208823e+01
v 7.88413008e+03 4.70401748e+03 3.11932668e+01
v 7.88448041e+03 4.70117268e+03 4.49932979e+01
v 7.88438148e+03 4.70103663e+03 4.07917531e+01
v 7.88316052e+03 4.69925993e+03 3.74753161e+01
v 7.88264813e+03 4.69724402e+03 3.19431375e+01
v 7.88176917e+03 4.69775315e+03 3.12867609e+01
v 7.88273464e+03 4.69908268e+03 3.10511343e+01
v 7.88124635e+03 4.69827564e+03 3.19519701e+01
v 7.88035917e+03 4.69898041e+03 3.18935503e+01
v 7.88311477e+03 4.69733154e+03 3.14585991e+01
v 7.88069742e+03 4.70092250e+03 4.96492382e+01
v 7.87983631e+03 4.70165175e+03 4.14095300e+01
v 7.88286476e+03 4.69942222e+03 4.89969281e+01
v 7.88335839e+03 4.69922582e+03 3.13924204e+01
v 7.88309637e+03 4.69948694e+03 3.52252683e+01
v 7.88415059e+03 4.69961700e+03 3.21561647e+01
v 7.88489807e+03 4.70000047e+03 3.14538689e+01
v 7.88416914e+03 4.70003935e+03 3.51185458e+01
v 7.88478278e+03 4.69907913e+03 3.10667760e+01
v 7.88305221e+03 4.69933129e+03 4.11548900e+01
v 7.88325920e+03 4.69963690e+03 5.08008972e+01
v 7.88423419e+03 4.70001201e+03 4.78929320e+01
v 7.88378414e+03 4.69955590e+03 4.94660740e+01
v 7.88484804e+03 4.70041972e+03 3.11582142e+01
v 7.88560896e+03 4.70015214e+03 3.18328845e+01
v 7.88615558e+03 4.70039661e+03 3.09706191e+01
v 7.88825663e+03 4.70246651e+03 3.09729013e+01
v 7.89323912e+03 4.70109116e+03 3.15567835e+01
v 7.89325031e+03 4.70055476e+03 3.20088939e+01
v 7.88773829e+03 4.69673660e+03 3.09846008e+01
v 7.89291546e+03 4.70502013e+03 3.14886595e+01
v 7.89040883e+03 4.70530212e+03 3.10285939e+01
v 7.88530161e+03 4.70519284e+03 3.16447653e+01
v 7.88627953e+03 4.69542204e+03 3.13467210e+01
v 7.90491478e+03 4.71228045e+03 2.95062454e+01
v 7.89033476e+03 4.70972588e+03 2.97144433e+01
v 7.89143994e+03 4.71092432e+03 2.78077149e+01
v 7.88916076e+03 4.71284301e+03 2.71795011e+01
v 7.90650000e+03 4.71421393e+03 2.65268915e+01
v 7.90650000e+03 4.69313932e+03 2.66975135e+01
v 7.90650000e+03 4.69381662e+03 2.65442795e+01
v 7.90650000e+03 4.71429454e+03 2.69012440e+01
v 7.90650000e+03 4.71442636e+03 2.73574135e+01
v 7.90650000e+03 4.71494554e+03 2.75854715e+01
v 7.90650000e+03 4.71541603e+03 2.77615280e+01
v 7.90650000e+03 4.71609151e+03 2.91825760e+01
v 7.90650000e+03 4.71719321e+03 2.98928451e+01
v 7.90650000e+03 4.71636907e+03 2.97773210e+01
v 7.89515138e+03 4.71900000e+03 2.87547944e+01
v 7.89599123e+03 4.71900000e+03 2.82523646e+01
v 7.89675201e+03 4.71900000e+03 2.83863426e+01
v 7.89671196e+03 4.71900000e+03 2.87092941e+01
v 7.89669577e+03 4.71900000e+03 2.97543613e+01
v 7.89819808e+03 4.71900000e+03 3.00257554e+01
v 7.90273150e+03 4.71900000e+03 3.08129217e+01
v 7.90395145e+03 4.71900000e+03 3.05724598e+01
v 7.89505539e+03 4.71900000e+03 2.87409621e+01
v 7.89474606e+03 4.71900000e+03 2.75422699e+01
v 7.89627445e+03 4.71900000e+03 2.81376074e+01
v 7.89230354e+03 4.71900000e+03 2.70916799e+01
v 7.89304888e+03 4.71900000e+03 2.71130853e+01
v 7.89109105e+03 4.71900000e+03 2.71600136e+01
v 7.89210570e+03 4.71900000e+03 2.71590965e+01
v 7.89107311e+03 4.71900000e+03 2.71163396e+01
v 7.89400105e+03 4.71900000e+03 2.73846926e+01
v 7.90562934e+03 4.71900000e+03 3.02713707e+01
v 7.90650000e+03 4.71900000e+03 3.01151347e+01
v 7.90572602e+03 4.69962971e+03 2.63471411e+01
v 7.90599926e+03 4.69820976e+03 2.63471573e+01
v 7.89822692e+03 4.70033041e+03 2.63469156e+01
v 7.89767904e+03 4.70080548e+03 2.63468966e+01
v 7.89939949e+03 4.70381738e+03 2.63469300e+01
v 7.89885427e+03 4.70270470e+03 2.63469204e+01
v 7.89282514e+03 4.69391137e+03 2.63467932e+01
v 7.89172950e+03 4.69454866e+03 2.63467571e+01
v 7.90531763e+03 4.69909506e+03 2.63471321e+01
v 7.90473167e+03 4.69939589e+03 2.63471131e+01
v 7.88084134e+03 4.70069940e+03 2.63464000e+01
v 7.88026519e+03 4.70105446e+03 2.63463810e+01
v 7.90486217e+03 4.71192182e+03 2.63470445e+01
v 7.88307429e+03 4.70713585e+03 2.63464287e+01
v 7.88312022e+03 4.70734452e+03 2.63464289e+01
v 7.88375602e+03 4.70361633e+03 2.63464692e+01
v 7.88462230e+03 4.70516490e+03 2.63464859e+01
v 7.90369407e+03 4.71038458e+03 2.63470189e+01
v 7.90432219e+03 4.71109482e+03 2.63470333e+01
v 7.90468557e+03 4.69173829e+03 2.63471560e+01
v 7.89897372e+03 4.69512080e+03 2.63469678e+01
v 7.89303776e+03 4.69400538e+03 2.63467989e+01
v 7.88434099e+03 4.69446455e+03 2.63465395e+01
v 7.88326749e+03 4.69546156e+03 2.63465020e+01
v 7.88299510e+03 4.69638677e+03 2.63464886e+01
v 7.88328223e+03 4.69622777e+03 2.63464980e+01
v 7.88926682e+03 4.69429438e+03 2.63466859e+01
v 7.88906414e+03 4.69406565e+03 2.63466812e+01
v 7.88957755e+03 4.69465786e+03 2.63466930e+01
v 7.89027219e+03 4.69530781e+03 2.63467097e+01
v 7.89364143e+03 4.69451574e+03 2.63468138e+01
v 7.88947181e+03 4.69451458e+03 2.63466907e+01
v 7.89481546e+03 4.69575329e+03 2.63468413e+01
v 7.90042340e+03 4.69854078e+03 2.63469908e+01
v 7.90243994e+03 4.69755972e+03 2.63470560e+01
v 7.88160458e+03 4.69738847e+03 2.63464417e+01
v 7.88276322e+03 4.69654837e+03 2.63464808e+01
v 7.88140984e+03 4.70242266e+03 2.63464069e+01
v 7.88080346e+03 4.70215264e+03 2.63463905e+01
v 7.88335155e+03 4.70642516e+03 2.63464410e+01
v 7.88354229e+03 4.70627432e+03 2.63464476e+01
v 7.88465761e+03 4.70530067e+03 2.63464861e+01
v 7.88235996e+03 4.70253022e+03 2.63464343e+01
v 7.87975861e+03 4.70157335e+03 2.63463630e+01
v 7.89985128e+03 4.69947516e+03 2.63469685e+01
v 7.89848337e+03 4.70215798e+03 2.63469126e+01
v 7.89983684e+03 4.70443835e+03 2.63469394e+01
v 7.90120755e+03 4.70637587e+03 2.63469686e+01
v 7.89984279e+03 4.69944165e+03 2.63469684e+01
v 7.89977524e+03 4.69938682e+03 2.63469668e+01
v 7.89965831e+03 4.69908311e+03 2.63469651e+01
v 7.89520891e+03 4.69646631e+03 2.63468488e+01
v 7.89567869e+03 4.69699564e+03 2.63468596e+01
v 7.89646815e+03 4.69678867e+03 2.63468841e+01
v 7.89893792e+03 4.69514680e+03 2.63469665e+01
v 7.90251994e+03 4.70843078e+03 2.63469955e+01
v 7.90277833e+03 4.70886167e+03 2.63470006e+01
v 7.90553974e+03 4.69826709e+03 2.63471434e+01
v 7.90395050e+03 4.69941518e+03 2.63470899e+01
v 7.90537288e+03 4.69740513e+03 2.63471435e+01
v 7.90351134e+03 4.69867780e+03 2.63470812e+01
v 7.87992796e+03 4.69860307e+03 2.63463852e+01
v 7.90140421e+03 4.70674411e+03 2.63469723e+01
v 7.88276159e+03 4.70247904e+03 2.63464465e+01
v 7.88336637e+03 4.70319708e+03 2.63464602e+01
v 7.88647175e+03 4.71269436e+03 2.63464969e+01
v 7.88627212e+03 4.71242363e+03 2.63464926e+01
v 7.90249009e+03 4.70832401e+03 2.63469952e+01
v 7.90226668e+03 4.70810242e+03 2.63469899e+01
v 7.88611533e+03 4.71218914e+03 2.63464893e+01
v 7.88385846e+03 4.70879817e+03 2.63464423e+01
v 7.88421972e+03 4.70931066e+03 2.63464500e+01
v 7.88691257e+03 4.71337871e+03 2.63465060e+01
v 7.88930561e+03 4.71686509e+03 2.63465565e+01
v 7.88361733e+03 4.70346280e+03 2.63464660e+01
v 7.88327650e+03 4.69612420e+03 2.63464984e+01
v 7.88999891e+03 4.71784635e+03 2.63465713e+01
v 7.88014373e+03 4.69897803e+03 2.63463894e+01
v 7.88064232e+03 4.70040203e+03 2.63463959e+01
v 7.90458108e+03 4.71142840e+03 2.63470390e+01
v 7.88604588e+03 4.69339971e+03 2.63465960e+01
v 7.90464841e+03 4.71150730e+03 2.63470406e+01
v 7.88792811e+03 4.69238922e+03 2.63466574e+01
v 7.88772635e+03 4.69226277e+03 2.63466522e+01
v 7.88335165e+03 4.69584793e+03 2.63465022e+01
v 7.89890368e+03 4.69516748e+03 2.63469654e+01
v 7.90625899e+03 4.71399604e+03 2.63470737e+01
v 7.90650000e+03 4.71435392e+03 2.63470788e+01
v 7.90636624e+03 4.69058154e+03 2.63472123e+01
v 7.90650000e+03 4.69048949e+03 2.63472168e+01
v 7.90615451e+03 4.69709477e+03 2.63471684e+01
v 7.90650000e+03 4.69695759e+03 2.63471794e+01
v 7.89002925e+03 4.71789213e+03 2.63465719e+01
v 7.89076355e+03 4.71900000e+03 2.63465872e+01
vt 0.072811127 0.83709133
vt 0.069150642 0.97426605
vt 0.022556186 0.88427556
vt 0.026867706 0.7407918
vt 0.028392974 0.9938274
vt 0.072246149 0.72987604
vt 0.01129868 0.79972625
vt 0.012701062 0.98918158
vt 0.074236862 0.61519039
vt 0.0094180768 0.89728779
vt 0.010763836 0.73680592
vt 0.012578698 0.59904635
vt 0.0088689625 0.68021369
vt 0.0043298337 0.9900071
vt 0.028560307 0.51045096
vt 0.010924429 0.52814025
vt 0.071081243 0.5452897
vt 0.015270669 0.46351892
vt 0.077857994 0.48135579
vt 0.010393972 0.46162546
vt 0.037185159 0.46708578
vt 0.059175402 0.47703439
vt 0.0067616324 0.40861344
vt 0.032181524 0.40271676
vt 0.050928641 0.44141263
vt 0.041604977 0.42965603
vt 0.07124088 0.4140076
vt 0.014970895 0.36974692
vt 0.076849975 0.42575252
vt 0.010495949 0.31273693
vt 0.027897922 0.36000109
vt 0.028403541 0.31802565
vt 0.030803565 0.28158468
vt 0.021996951 0.26682734
vt 0.010678933 0.26690239
vt 0.032366052 0.26710171
vt 0.17909241 0.78714895
vt 0.15418532 0.77191293
vt 0.17827931 0.68916768
vt 0.20078249 0.75513279
vt 0.18050498 0.8932035
vt 0.14922749 0.69718516
vt 0.2026199 0.69400507
vt 0.20384279 0.8514446
vt 0.15579206 0.90222496
vt 0.13206013 0.68010151
vt 0.16760039 0.64266384
vt 0.20406869 0.63794255
vt 0.20343255 0.93882143
vt 0.17629713 0.94274575
vt 0.13046266 0.80801988
vt 0.1319804 0.59248102
vt 0.19848351 0.57804751
vt 0.19047934 0.95385587
vt 0.16085029 0.96701467
vt 0.12831037 0.9381265
vt 0.16616042 0.53931022
vt 0.20248707 0.55983263
vt 0.17947893 0.98099029
vt 0.12975642 0.51237875
vt 0.20065317 0.48799378
vt 0.13001941 0.97387475
vt 0.13658789 0.99041766
vt 0.15702987 0.3919276
vt 0.17369498 0.37254643
vt 0.13004777 0.44400197
vt 0.20050038 0.42219895
vt 0.13245356 0.39911002
vt 0.20503829 0.37023401
vt 0.24513386 0.89978528
vt 0.23510852 0.94887716
vt 0.22318392 0.93314147
vt 0.23442446 0.85849905
vt 0.26219791 0.9407137
vt 0.22995415 0.98963529
vt 0.22657394 0.79600495
vt 0.26035568 0.80799657
vt 0.25279218 0.99178171
vt 0.24670774 0.79357505
vt 0.25978613 0.97643787
vt 0.24035387 0.68712425
vt 0.2244661 0.68900776
vt 0.25783378 0.67704308
vt 0.22499467 0.57452887
vt 0.2598381 0.58876371
vt 0.24485926 0.501315
vt 0.22671178 0.50393921
vt 0.2598013 0.50661647
vt 0.22304998 0.44148129
vt 0.24018796 0.40954012
vt 0.26017094 0.4372651
vt 0.22697696 0.38518023
vt 0.24100545 0.39611614
vt 0.25861096 0.39148706
vt 0.42460552 0.2489323
vt 0.40737569 0.22382289
vt 0.46241331 0.24056429
vt 0.45497558 0.2816034
vt 0.38283587 0.24978316
vt 0.46643627 0.22096753
vt 0.46586719 0.30314541
vt 0.42521599 0.28567469
vt 0.34357616 0.23554283
vt 0.47362205 0.23088223
vt 0.46461737 0.20761579
vt 0.4801344 0.23903435
vt 0.34603754 0.2569117
vt 0.35392675 0.21081394
vt 0.38443509 0.28671765
vt 0.46350643 0.19685584
vt 0.4894678 0.28252006
vt 0.37411413 0.28132904
vt 0.28975019 0.25571829
vt 0.31907332 0.21466184
vt 0.39017141 0.20280564
vt 0.36994246 0.31307477
vt 0.41175011 0.20184791
vt 0.49330276 0.30068314
vt 0.30049166 0.24031281
vt 0.32318532 0.20796937
vt 0.36245459 0.20439148
vt 0.41991371 0.19788569
vt 0.27146801 0.2284494
vt 0.27346036 0.32660079
vt 0.34823737 0.20593256
vt 0.3166627 0.20801544
vt 0.35461748 0.20483047
vt 0.40455323 0.19932824
vt 0.45874709 0.19368899
vt 0.4126263 0.19783401
vt 0.24930882 0.25031394
vt 0.27991107 0.21283364
vt 0.35292301 0.20447391
vt 0.41104645 0.19818705
vt 0.46544746 0.19296485
vt 0.2487922 0.21382326
vt 0.25011045 0.30030173
vt 0.26814649 0.21435106
vt 0.23853689 0.21496654
vt 0.20234434 0.33849883
vt 0.19660367 0.30518991
vt 0.21398607 0.21625298
vt 0.24707645 0.36740303
vt 0.21137784 0.25538951
vt 0.21129435 0.21761608
vt 0.19216134 0.25618714
vt 0.20291875 0.24796605
vt 0.56095141 0.75793326
vt 0.59402943 0.71693444
vt 0.60316062 0.78203845
vt 0.58274323 0.77764058
vt 0.59202296 0.6367439
vt 0.62150592 0.76089287
vt 0.60641998 0.78681898
vt 0.56536722 0.83353728
vt 0.51652616 0.77589047
vt 0.5961777 0.61143577
vt 0.62897468 0.74425614
vt 0.54098964 0.84982651
vt 0.51629329 0.77708626
vt 0.56042475 0.60324717
vt 0.60214776 0.62560695
vt 0.57191879 0.54861873
vt 0.61922646 0.72651482
vt 0.63439894 0.73546088
vt 0.56027353 0.85877919
vt 0.57283348 0.54427129
vt 0.63490897 0.77400738
vt 0.56445843 0.86408955
vt 0.51603377 0.77813065
vt 0.6265775 0.70650661
vt 0.64338493 0.77355653
vt 0.55189091 0.87474704
vt 0.49889174 0.85598814
vt 0.62982678 0.69766271
vt 0.56581312 0.86429667
vt 0.54162902 0.89706218
vt 0.49052849 0.87367129
vt 0.55267906 0.89013511
vt 0.51876163 0.9072898
vt 0.54075742 0.93495679
vt 0.47980255 0.86871976
vt 0.52794224 0.93768102
vt 0.48685977 0.91197795
vt 0.51760441 0.94855797
vt 0.50309616 0.93398523
vt 0.46844292 0.85817736
vt 0.51571023 0.97618544
vt 0.49156851 0.99344653
vt 0.42552909 0.85450512
vt 0.47672528 0.9668088
vt 0.46071917 0.90826911
vt 0.4423891 0.84782642
vt 0.42951033 0.94011813
vt 0.41352168 0.91741848
vt 0.4062089 0.92035806
vt 0.41182271 0.94551718
vt 0.37799543 0.91882956
vt 0.3786388 0.9378075
vt 0.73954087 0.99411929
vt 0.76890624 0.79645365
vt 0.76301247 0.99409771
vt 0.70393157 0.88563901
vt 0.83384138 0.9940334
vt 0.69006205 0.57875037
vt 0.83711821 0.81639737
vt 0.6401028 0.70436662
vt 0.76822323 0.54584813
vt 0.85290521 0.99402666
vt 0.82352054 0.70576406
vt 0.62906438 0.66393167
vt 0.72724193 0.55199814
vt 0.89272285 0.9375543
vt 0.8679319 0.78405452
vt 0.73219365 0.52399683
vt 0.87912482 0.99401671
vt 0.87744069 0.86586291
vt 0.88657206 0.83172262
vt 0.89273024 0.99401152
vt 0.89271963 0.91180241
vt 0.60200334 0.34840554
vt 0.5931018 0.26539594
vt 0.6318664 0.34160906
vt 0.61908609 0.3713181
vt 0.57430476 0.35693872
vt 0.6433515 0.29557192
vt 0.60690767 0.37371087
vt 0.63184375 0.36843985
vt 0.59535748 0.37972957
vt 0.5403949 0.25733203
vt 0.6259079 0.23339999
vt 0.66201192 0.36951774
vt 0.61474967 0.38410795
vt 0.62696433 0.40498418
vt 0.52958006 0.31081861
vt 0.57919949 0.22617716
vt 0.5927878 0.23664969
vt 0.65524912 0.25685149
vt 0.66094142 0.3429755
vt 0.52889484 0.36928809
vt 0.51180577 0.27345246
vt 0.54386157 0.15871954
vt 0.65652901 0.13446951
vt 0.66002584 0.29806691
vt 0.62102342 0.41397583
vt 0.54935217 0.40975934
vt 0.5111258 0.35729945
vt 0.51667398 0.22467864
vt 0.59028047 0.16406804
vt 0.51263678 0.13726181
vt 0.63033819 0.16192883
vt 0.59559685 0.44536966
vt 0.53355837 0.42675978
vt 0.59074229 0.13043076
vt 0.53511339 0.12799257
vt 0.63505512 0.13050872
vt 0.5566116 0.46898872
vt 0.53087258 0.48538476
vt 0.51180762 0.24281025
vt 0.60991633 0.12791258
vt 0.55543917 0.13592392
vt 0.50327808 0.093451977
vt 0.66435218 0.1033777
vt 0.57657397 0.48629904
vt 0.62790138 0.089504242
vt 0.55351025 0.10111952
vt 0.61427587 0.47626847
vt 0.61952949 0.49188459
vt 0.63459855 0.43585628
vt 0.646707 0.49019939
vt 0.66436398 0.48711109
vt 0.66465724 0.44328624
vt 0.36697572 0.70772892
vt 0.37802359 0.69308341
vt 0.39895552 0.69558668
vt 0.38165748 0.73638898
vt 0.36184907 0.66528821
vt 0.35904956 0.6370768
vt 0.46718112 0.68975639
vt 0.3512415 0.70521265
vt 0.37425011 0.60704505
vt 0.49204794 0.72021687
vt 0.43983504 0.67373037
vt 0.32978716 0.71306193
vt 0.34058663 0.68473583
vt 0.33805859 0.66373682
vt 0.5032196 0.68499947
vt 0.4589223 0.6076616
vt 0.31674504 0.72131097
vt 0.35813159 0.68068641
vt 0.33203322 0.65715528
vt 0.51507688 0.72640288
vt 0.51380342 0.64498079
vt 0.47810912 0.62547964
vt 0.31688592 0.742365
vt 0.31642872 0.71552265
vt 0.32989609 0.69020188
vt 0.36455739 0.6926558
vt 0.33783096 0.63866806
vt 0.32964206 0.68802178
vt 0.41655582 0.5583486
vt 0.51614857 0.67940688
vt 0.32014304 0.70064914
vt 0.34523988 0.61360341
vt 0.36227363 0.57415318
vt 0.46377692 0.56029612
vt 0.32889497 0.69027132
vt 0.35104206 0.5978961
vt 0.36048234 0.57445496
vt 0.4032934 0.54631948
vt 0.4818584 0.537274
vt 0.35258317 0.59522283
vt 0.36062139 0.57319367
vt 0.38460228 0.54899204
vt 0.46915537 0.5382632
vt 0.38374594 0.5490756
vt 0.36302045 0.55110002
vt 0.89048231 0.53410029
vt 0.94045109 0.58306408
vt 0.92516869 0.6050325
vt 0.88364953 0.55935574
vt 0.93576396 0.66888833
vt 0.88851696 0.59985566
vt 0.87346721 0.53831065
vt 0.95635128 0.6387403
vt 0.8697049 0.55778611
vt 0.96126658 0.67184174
vt 0.95158774 0.59641451
vt 0.88755333 0.63066423
vt 0.86578441 0.62892365
vt 0.84260291 0.51687151
vt 0.97750008 0.62098134
vt 0.99581838 0.71022117
vt 0.96557677 0.57436705
vt 0.88761085 0.67169273
vt 0.84561157 0.53385413
vt 0.97822165 0.65733457
vt 0.97811508 0.74315226
vt 0.92186451 0.6979692
vt 0.86971098 0.67133373
vt 0.82084966 0.52935719
vt 0.98937654 0.62722284
vt 0.98527944 0.57374477
vt 0.82271057 0.65125477
vt 0.82556498 0.59869909
vt 0.82382077 0.51152396
vt 0.93665314 0.72042549
vt 0.81622636 0.59818035
vt 0.84460765 0.3836478
vt 0.82813889 0.40564871
vt 0.82644957 0.33842063
vt 0.84318805 0.32579851
vt 0.83963352 0.47339571
vt 0.80594277 0.41217619
vt 0.83118391 0.32698822
vt 0.87132293 0.37055171
vt 0.81587356 0.45748329
vt 0.86932456 0.4656176
vt 0.81257671 0.32742888
vt 0.82713938 0.32763439
vt 0.85299504 0.32533771
vt 0.81875026 0.48124903
vt 0.76332688 0.45343059
vt 0.8068772 0.32739133
vt 0.87110835 0.32471269
vt 0.83068758 0.49283022
vt 0.79517436 0.4784323
vt 0.77877152 0.4055118
vt 0.80365634 0.32736069
vt 0.76926804 0.49243164
vt 0.76154459 0.40577585
vt 0.78280222 0.38118136
vt 0.782287 0.35617441
vt 0.70496356 0.48846436
vt 0.73131269 0.40522951
vt 0.77725548 0.32629538
vt 0.69601077 0.45940036
vt 0.70461845 0.42753536
vt 0.75313151 0.34559327
vt 0.7671892 0.36169279
vt 0.77186859 0.34350103
vt 0.70217323 0.35553616
vt 0.72359645 0.34629977
vt 0.77540523 0.32614428
vt 0.69177628 0.43509418
vt 0.69175571 0.37467027
vt 0.1359859 0.24393684
vt 0.09115845 0.23420578
vt 0.13938628 0.19122314
vt 0.046244007 0.20251691
vt 0.084074579 0.15244395
vt 0.033342727 0.22263849
vt 0.06190047 0.068247259
vt 0.14109482 0.1135518
vt 0.048816338 0.24357188
vt 0.0052057402 0.19801885
vt 0.066876821 0.068411469
vt 0.1268248 0.093926311
vt 0.02180199 0.24343795
vt 0.074893594 0.093688726
vt 0.057528105 0.068165481
vt 0.093232356 0.08773464
vt 0.14574654 0.097352624
vt 0.0041524647 0.24143672
vt 0.067914173 0.068244874
vt 0.035333522 0.067806661
vt 0.072697021 0.069772959
vt 0.0032536676 0.084711254
vt 0.07171531 0.067928791
vt 0.0032281168 0.067285836
vt 0.65012032 0.84643507
vt 0.67289412 0.83919382
vt 0.65079778 0.86783063
vt 0.6153062 0.88298291
vt 0.66672575 0.80694336
vt 0.67742366 0.88541698
vt 0.64075577 0.82948941
vt 0.61905408 0.9008972
vt 0.66346544 0.80826616
vt 0.68705696 0.87298131
vt 0.63274992 0.83987141
vt 0.59107298 0.913773
vt 0.65245336 0.91746128
vt 0.58778286 0.89435142
vt 0.58411986 0.89885771
vt 0.56712186 0.93901467
vt 0.63166386 0.93976808
vt 0.57989055 0.9045943
vt 0.57759136 0.99207956
vt 0.59966946 0.99269277
vt 0.63241446 0.97423136
vt 0.29745826 0.90517062
vt 0.30122361 0.94655496
vt 0.28605321 0.91862953
vt 0.28447056 0.9551422
vt 0.3206856 0.9493348
vt 0.31013018 0.99174142
vt 0.33884504 0.98394793
vt 0.28537625 0.98714697
vt 0.35455254 0.94573998
vt 0.36313641 0.98919213
vt 0.37400949 0.95947891
vt 0.9380433 0.9497574
vt 0.91284811 0.83524859
vt 0.94672287 0.83855176
vt 0.94760215 0.95142055
vt 0.91136408 0.95563245
vt 0.9399333 0.82148498
vt 0.93860453 0.9938429
vt 0.91718084 0.9850651
vt 0.91644007 0.8209492
vt 0.9466576 0.82126963
vt 0.91092962 0.82123774
vt 0.30150381 0.82543051
vt 0.32305852 0.8503902
vt 0.30367449 0.84770966
vt 0.29603162 0.83347696
vt 0.33570033 0.83648717
vt 0.28589627 0.81584775
vt 0.28701356 0.84013319
vt 0.31091291 0.81549215
vt 0.34957123 0.85528678
vt 0.28984365 0.81286114
vt 0.33697766 0.82065725
vt 0.36932534 0.83472919
vt 0.28486955 0.81395125
vt 0.36866543 0.86598873
vt 0.36391518 0.82558221
vt 0.33736613 0.61552811
vt 0.32370019 0.56725317
vt 0.34754327 0.58181
vt 0.2956112 0.57554519
vt 0.34736529 0.53431624
vt 0.30516884 0.54624629
vt 0.31015968 0.5209651
vt 0.29354516 0.53939813
vt 0.29659942 0.50430787
vt 0.28583878 0.51385927
vt 0.3789607 0.99274635
vt 0.37851667 0.96135491
vt 0.3936514 0.98053396
vt 0.42336053 0.96086711
vt 0.41500267 0.95061702
vt 0.41325495 0.98242104
vt 0.38415653 0.95148873
vt 0.41975608 0.95056576
vt 0.4420051 0.95966464
vt 0.38050339 0.95138967
vt 0.42444506 0.95053047
vt 0.42718026 0.95046824
vt 0.44204432 0.95049119
vt 0.42493635 0.82461888
vt 0.41597301 0.79158163
vt 0.44055188 0.7871899
vt 0.40533757 0.82952696
vt 0.38865572 0.79322827
vt 0.41493839 0.85428864
vt 0.42544293 0.85105956
vt 0.40190497 0.86595803
vt 0.37894067 0.86256087
vt 0.38824603 0.86007422
vt 0.065624535 0.99283898
vt 0.097311892 0.97946745
vt 0.12508333 0.99328357
vt 0.54103327 0.96692514
vt 0.52027994 0.97128224
vt 0.51877904 0.96185863
vt 0.55713445 0.99314219
vt 0.55772102 0.97114325
vt 0.56110168 0.97062367
vt 0.57085961 0.96765184
vt 0.30894563 0.77923983
vt 0.28541639 0.78360915
vt 0.28791624 0.71826541
vt 0.31116682 0.7191329
vt 0.32103187 0.80465615
vt 0.32509333 0.89328796
vt 0.31742793 0.91693002
vt 0.32017758 0.89670587
vt 0.31643704 0.84906006
vt 0.32416755 0.9297772
vt 0.3160347 0.84941411
vt 0.34004948 0.86508715
vt 0.3292928 0.90888023
vt 0.34922424 0.87262166
vt 0.35192972 0.90895849
vt 0.35059655 0.86916524
vt 0.99389547 0.96536964
vt 0.9661991 0.99264181
vt 0.96689796 0.94739246
vt 0.9706853 0.94743234
vt 0.99063569 0.98468393
vt 0.95616001 0.94808632
vt 0.9938066 0.94752538
vt 0.68117821 0.9647758
vt 0.66396588 0.95583147
vt 0.67668545 0.92358899
vt 0.69120729 0.95523119
vt 0.65960115 0.96452999
vt 0.69407374 0.93340242
vt 0.68799859 0.98020184
vt 0.69520515 0.9808321
vt 0.68735248 0.99090976
vt 0.66258025 0.94591904
vt 0.65104735 0.97342187
vt 0.63900638 0.95826465
vt 0.64482659 0.94203436
vt 0.63852018 0.97380441
vt 0.65823513 0.94170243
vt 0.62809765 0.97588819
vt 0.63783693 0.99239993
vt 0.23273596 0.9746958
vt 0.2146706 0.99224412
vt 0.20655143 0.97788149
vt 0.28338447 0.97733581
vt 0.26719475 0.99214512
vt 0.26172817 0.97469336
vt 0.28502715 0.99381334
vt 0.71469194 0.99235278
vt 0.72278196 0.95293182
vt 0.72553569 0.9725613
vt 0.71343231 0.99362379
vt 0.72919178 0.96656185
vt 0.70668745 0.9647854
usemtl Tile_+038_+019_L19_000324_0
f 245/70 246/71 236/72
f 249/221 250/222 85/223
f 51/148 47/149 50/150
f 26/37 31/38 169/39
f 192/95 37/96 198/97
f 101/318 10/319 108/320
f 171/469 176/470 244/471
f 171/78 244/75 246/71
f 202/242 254/261 179/254
f 93/454 117/455 107/456
f 126/387 125/388 114/389
f 52/131 67/113 89/124
f 139/273 216/274 160/275
f 150/1 236/2 174/3
f 124/432 120/433 16/434
f 129/467 115/462 15/465
f 119/436 116/440 117/438
f 112/341 120/346 124/331
f 115/437 119/436 117/438
f 124/199 16/198 96/197
f 97/24 81/31 205/32
f 109/349 19/350 45/351
f 132/411 79/412 190/413
f 58/180 59/186 65/184
f 102/192 63/190 65/184
f 101/194 102/192 80/191
f 69/103 37/96 191/99
f 69/103 39/108 37/96
f 272/559 136/560 273/561
f 304/415 132/411 305/419
f 25/512 193/513 195/514
f 199/281 38/301 261/288
f 179/254 194/266 193/265
f 37/96 192/95 191/99
f 133/418 40/427 41/430
f 104/196 103/195 96/197
f 206/61 167/65 21/67
f 62/517 60/518 14/519
f 203/255 183/262 194/266
f 66/107 181/116 67/113
f 59/186 92/185 11/188
f 91/535 72/536 13/537
f 67/113 70/119 69/103
f 12/117 37/96 308/115
f 181/116 178/112 188/109
f 187/256 152/243 186/251
f 76/375 184/371 7/363
f 183/333 9/338 8/322
f 129/479 15/480 118/481
f 57/137 89/124 159/140
f 49/235 156/230 148/225
f 147/492 155/493 148/494
f 108/320 8/322 128/323
f 27/41 170/50 34/45
f 256/238 153/231 152/243
f 171/63 162/62 177/55
f 149/79 151/73 150/76
f 114/389 125/388 113/390
f 145/19 185/22 146/25
f 20/18 97/24 141/21
f 234/5 175/8 174/3
f 27/41 173/44 172/49
f 161/74 162/80 171/78
f 32/81 149/79 150/76
f 163/54 164/59 170/50
f 3/47 169/39 168/42
f 167/353 22/357 19/350
f 260/279 259/282 135/276
f 163/476 165/474 164/472
f 135/276 139/273 160/275
f 139/555 215/556 140/557
f 153/231 131/237 130/236
f 134/423 133/418 74/416
f 99/443 46/444 44/445
f 95/326 123/336 124/331
f 4/329 128/323 8/322
f 105/391 113/390 315/393
f 117/438 116/440 107/441
f 129/439 118/435 115/437
f 104/487 17/482 319/490
f 93/454 107/456 106/457
f 1/458 115/462 117/455
f 96/324 95/326 124/331
f 128/323 4/329 5/330
f 47/149 55/152 263/157
f 124/331 123/336 112/341
f 118/435 16/434 120/433
f 17/482 104/487 16/484
f 112/341 123/336 5/330
f 126/344 111/345 5/330
f 111/345 112/341 5/330
f 126/344 114/348 111/345
f 103/195 101/194 96/197
f 116/402 119/398 105/391
f 115/462 1/458 15/465
f 120/403 112/394 119/398
f 118/435 120/433 119/436
f 105/391 114/389 113/390
f 112/394 114/389 105/391
f 111/345 114/348 112/341
f 17/482 118/481 15/480
f 106/457 107/456 94/460
f 105/391 94/400 116/402
f 298/505 104/506 320/507
f 63/190 102/192 103/195
f 96/197 16/198 104/196
f 101/194 103/195 102/192
f 80/191 10/189 101/194
f 97/447 99/443 98/450
f 116/440 94/442 107/441
f 63/190 103/195 104/196
f 106/457 94/460 43/459
f 93/454 106/457 43/459
f 110/396 44/408 326/406
f 102/192 65/184 80/191
f 82/356 109/349 328/352
f 78/528 79/529 330/530
f 307/376 78/381 332/384
f 46/33 205/32 82/30
f 19/350 18/354 45/351
f 18/354 23/372 84/373
f 328/352 45/351 333/355
f 81/31 83/28 82/30
f 302/34 82/30 334/35
f 10/189 80/191 65/184
f 75/532 79/529 78/528
f 35/325 11/334 73/332
f 13/537 14/538 91/535
f 11/188 92/185 90/183
f 59/186 58/180 92/185
f 72/181 90/183 58/180
f 293/523 62/517 335/520
f 14/538 71/541 91/535
f 87/525 88/526 62/517
f 70/119 77/123 42/114
f 89/124 57/137 52/131
f 52/131 87/145 294/142
f 296/136 52/131 336/139
f 42/114 77/123 337/132
f 58/180 13/177 72/181
f 335/520 14/519 339/522
f 339/176 64/173 340/169
f 340/169 56/159 341/166
f 13/177 58/180 56/159
f 65/184 63/190 323/187
f 65/184 59/186 10/189
f 58/180 65/184 342/182
f 62/517 61/521 60/518
f 91/524 61/521 62/517
f 56/159 58/180 343/178
f 311/156 51/148 345/160
f 14/538 60/542 71/541
f 55/152 47/149 51/148
f 52/131 57/137 53/141
f 56/159 51/148 324/155
f 70/119 42/114 69/103
f 69/103 66/107 67/113
f 292/165 54/153 348/158
f 50/544 54/545 300/546
f 54/545 68/551 291/550
f 48/247 204/241 49/235
f 348/158 47/149 350/164
f 325/151 50/150 351/154
f 350/164 264/162 381/171
f 121/422 197/426 356/428
f 188/109 258/102 181/116
f 160/275 199/281 201/283
f 261/288 41/294 260/279
f 137/278 199/281 160/275
f 276/200 218/201 277/202
f 261/288 201/283 199/281
f 198/97 37/96 266/100
f 37/96 12/117 262/110
f 260/279 41/294 24/293
f 39/108 42/114 353/120
f 308/115 39/108 347/121
f 69/103 42/114 39/108
f 40/382 134/383 76/375
f 133/418 190/413 74/416
f 122/414 121/422 357/425
f 361/417 122/414 362/421
f 122/414 190/413 133/418
f 197/306 261/288 38/301
f 356/311 38/301 363/315
f 261/429 133/418 41/430
f 122/414 133/418 121/422
f 260/279 201/283 261/288
f 135/276 160/275 260/279
f 160/275 201/283 260/279
f 137/278 216/274 140/277
f 189/377 25/385 154/378
f 154/378 7/363 189/377
f 24/386 40/382 154/378
f 196/287 260/279 24/293
f 194/205 259/207 193/211
f 8/322 10/319 35/325
f 135/203 259/207 194/205
f 40/427 24/431 41/430
f 196/287 195/302 193/292
f 259/282 260/279 196/287
f 24/293 195/302 196/287
f 184/371 76/375 74/379
f 24/515 25/512 195/514
f 25/385 24/386 154/378
f 76/375 154/378 40/382
f 132/411 190/413 122/414
f 75/380 184/371 74/379
f 74/416 190/413 79/412
f 76/375 134/383 74/379
f 82/30 205/32 81/31
f 75/380 78/381 84/373
f 355/359 18/354 365/364
f 18/354 84/373 306/369
f 84/373 23/372 75/380
f 23/372 184/371 75/380
f 18/354 6/368 23/372
f 109/349 82/356 220/358
f 7/363 18/354 22/357
f 19/350 109/349 167/353
f 20/18 21/20 220/23
f 29/232 30/228 85/223
f 82/30 83/28 220/23
f 97/24 83/28 81/31
f 315/393 110/396 327/401
f 231/399 232/404 110/396
f 97/447 46/444 99/443
f 119/398 112/394 105/391
f 94/400 105/391 316/397
f 110/396 229/392 231/399
f 95/326 5/330 123/336
f 101/318 100/321 96/324
f 95/326 96/324 100/321
f 100/321 128/323 95/326
f 8/322 204/339 48/335
f 208/327 35/325 73/332
f 100/321 101/318 108/320
f 128/323 100/321 108/320
f 5/330 95/326 128/323
f 127/340 5/330 4/329
f 127/340 126/344 5/330
f 148/225 127/240 49/235
f 158/496 155/493 242/495
f 156/230 251/248 9/250
f 8/322 108/320 10/319
f 35/325 36/328 11/334
f 159/337 208/327 73/332
f 35/325 208/327 8/322
f 90/343 53/342 73/332
f 77/123 70/119 67/113
f 89/208 182/212 183/215
f 218/201 194/205 89/208
f 182/212 89/208 194/205
f 183/333 208/327 159/337
f 159/140 89/124 183/143
f 60/542 61/543 71/541
f 90/146 72/147 88/144
f 53/141 90/146 88/144
f 91/535 71/541 61/543
f 53/141 88/144 52/131
f 62/517 88/526 91/524
f 159/140 53/141 57/137
f 52/131 77/123 67/113
f 89/124 67/113 181/116
f 89/208 181/210 218/201
f 181/210 211/206 218/201
f 258/102 188/109 191/99
f 191/99 178/112 66/107
f 66/107 178/112 181/116
f 258/102 192/95 209/98
f 66/107 69/103 191/99
f 258/214 211/206 181/210
f 198/97 210/101 209/98
f 212/285 213/280 136/284
f 210/101 198/97 268/106
f 258/214 209/218 211/206
f 209/218 210/217 211/206
f 198/97 209/98 192/95
f 204/241 156/230 49/235
f 202/242 156/230 9/250
f 183/215 182/212 194/205
f 135/203 194/205 218/201
f 255/249 202/242 179/254
f 153/231 255/249 186/251
f 187/256 180/260 193/265
f 153/231 186/251 152/243
f 187/256 193/265 189/263
f 153/231 256/238 86/226
f 130/236 156/230 202/242
f 224/244 86/226 256/238
f 256/370 7/363 224/367
f 29/64 167/65 222/57
f 29/366 166/362 167/353
f 250/222 131/237 153/231
f 7/363 256/370 152/374
f 131/237 250/222 130/236
f 152/374 189/377 7/363
f 152/243 187/256 189/263
f 179/254 254/261 194/266
f 203/255 254/261 202/242
f 183/262 203/255 9/250
f 186/251 255/249 180/260
f 180/260 187/256 186/251
f 180/260 179/254 193/265
f 254/261 203/255 194/266
f 255/249 153/231 130/236
f 130/236 202/242 255/249
f 251/248 252/259 9/250
f 253/246 127/240 148/225
f 204/552 252/553 251/554
f 9/338 252/347 204/339
f 251/248 156/230 204/241
f 249/221 148/225 250/222
f 148/225 156/230 250/222
f 130/236 250/222 156/230
f 147/229 249/221 248/227
f 48/335 4/329 8/322
f 253/246 157/253 127/240
f 48/335 127/340 4/329
f 126/258 157/253 253/246
f 127/240 48/247 49/235
f 127/502 157/503 126/504
f 253/246 257/257 126/258
f 126/258 257/257 125/264
f 241/86 145/89 239/90
f 241/86 238/87 145/89
f 125/264 257/257 158/252
f 253/246 158/252 257/257
f 148/225 158/252 253/246
f 148/494 155/493 158/496
f 242/495 155/493 147/492
f 240/233 248/227 247/224
f 223/88 241/86 239/90
f 240/497 242/495 147/492
f 144/234 240/233 247/224
f 248/227 249/221 247/224
f 249/221 85/223 247/224
f 147/492 248/498 240/497
f 30/228 144/234 247/224
f 32/81 226/83 225/77
f 32/81 243/82 227/84
f 161/56 177/55 162/62
f 225/77 161/74 245/70
f 246/71 161/74 171/78
f 150/76 243/82 32/81
f 225/77 149/79 32/81
f 245/70 151/73 225/77
f 151/73 149/79 225/77
f 2/85 32/81 241/86
f 174/3 217/7 219/4
f 175/477 163/476 172/478
f 169/39 142/48 235/43
f 223/88 2/85 241/86
f 240/233 144/234 239/245
f 144/93 30/94 33/91
f 239/90 33/91 223/88
f 145/19 146/25 230/27
f 185/22 145/19 28/15
f 145/19 238/17 28/15
f 145/89 237/92 239/90
f 229/392 113/390 125/388
f 239/499 237/501 242/495
f 228/268 125/264 233/267
f 125/388 228/395 229/392
f 242/495 230/500 158/496
f 125/264 158/252 233/267
f 230/27 146/25 98/26
f 231/270 233/267 230/269
f 237/501 230/500 242/495
f 230/269 233/267 158/252
f 238/87 241/86 227/84
f 236/72 246/71 244/75
f 151/73 245/70 236/72
f 176/470 236/473 244/471
f 243/6 150/1 219/4
f 150/1 174/3 219/4
f 217/7 235/11 219/4
f 227/9 219/4 221/12
f 231/399 229/392 228/395
f 231/270 228/268 233/267
f 230/269 232/271 231/270
f 110/396 113/390 229/392
f 110/446 232/449 99/443
f 98/450 99/443 232/449
f 230/269 98/272 232/271
f 238/17 227/9 28/15
f 146/25 185/22 141/21
f 221/12 28/15 227/9
f 28/15 141/21 185/22
f 98/26 146/25 141/21
f 143/53 221/58 142/48
f 226/46 2/52 168/42
f 235/11 142/13 219/4
f 236/2 234/5 174/3
f 234/475 176/470 165/474
f 173/10 175/8 172/14
f 217/7 174/3 173/10
f 173/10 174/3 175/8
f 177/55 164/59 171/63
f 164/472 165/474 176/470
f 165/474 163/476 234/475
f 164/472 176/470 171/469
f 225/51 226/46 31/38
f 164/59 177/55 170/50
f 26/37 217/40 173/44
f 221/12 206/16 28/15
f 223/60 222/57 2/52
f 223/60 33/66 29/64
f 166/362 22/357 167/353
f 97/24 98/26 141/21
f 220/23 83/28 97/24
f 97/24 20/18 220/23
f 21/20 20/18 206/16
f 142/13 221/12 219/4
f 143/53 222/57 206/61
f 143/53 142/48 169/39
f 20/18 28/15 206/16
f 206/61 222/57 167/65
f 222/57 143/53 3/47
f 22/357 166/362 224/367
f 29/232 86/226 166/239
f 86/226 224/244 166/239
f 235/43 217/40 169/39
f 31/38 34/45 225/51
f 31/38 168/42 169/39
f 26/37 27/41 31/38
f 34/45 170/50 177/55
f 177/55 161/56 34/45
f 169/39 217/40 26/37
f 170/50 27/41 163/54
f 26/37 173/44 27/41
f 27/41 172/49 163/54
f 215/298 214/290 140/277
f 213/280 139/273 135/276
f 135/276 136/284 213/280
f 275/289 135/276 276/295
f 278/204 211/206 279/209
f 270/213 210/217 271/220
f 279/209 270/213 289/216
f 138/286 207/297 280/300
f 364/310 200/305 367/314
f 199/281 200/305 38/301
f 216/274 139/273 140/277
f 160/275 216/274 137/278
f 214/290 212/285 140/277
f 137/278 140/277 212/285
f 199/281 137/278 138/286
f 212/285 138/286 137/278
f 214/290 215/298 213/280
f 212/285 214/290 213/280
f 215/556 139/555 213/558
f 138/286 212/285 207/297
f 136/560 207/562 212/564
f 285/309 199/281 286/312
f 367/314 287/313 383/316
f 115/437 118/435 119/436
f 246/71 245/70 161/74
f 368/448 46/444 369/451
f 1/458 93/454 313/461
f 46/33 97/24 205/32
f 52/131 88/144 87/145
f 14/538 13/537 64/540
f 193/513 25/512 189/516
f 134/423 40/427 133/418
f 86/226 85/223 250/222
f 110/446 99/443 44/445
f 10/189 59/186 11/188
f 192/95 258/102 191/99
f 6/368 18/354 7/363
f 208/327 183/333 8/322
f 204/339 8/322 9/338
f 222/57 3/47 2/52
f 318/483 15/480 373/485
f 15/465 1/458 371/464
f 93/454 1/458 117/455
f 16/484 118/481 17/482
f 43/407 94/400 366/405
f 314/463 43/459 375/466
f 7/363 184/371 6/368
f 11/334 36/328 10/319
f 90/183 92/185 58/180
f 90/343 73/332 11/334
f 56/159 64/173 13/177
f 345/160 56/159 376/170
f 54/153 50/150 47/149
f 75/420 74/416 79/412
f 121/422 133/418 197/426
f 261/429 197/426 133/418
f 193/292 259/282 196/287
f 154/378 76/375 7/363
f 6/368 184/371 23/372
f 18/354 19/350 22/357
f 86/226 29/232 85/223
f 22/357 224/367 7/363
f 10/319 36/328 35/325
f 53/342 159/337 73/332
f 88/539 72/536 91/535
f 178/112 191/99 188/109
f 9/250 203/255 202/242
f 153/231 86/226 250/222
f 179/254 180/260 255/249
f 239/499 242/495 240/497
f 148/225 249/221 147/229
f 247/224 85/223 30/228
f 34/45 161/56 225/51
f 226/83 32/81 2/85
f 32/81 227/84 241/86
f 223/60 29/64 222/57
f 239/90 144/93 33/91
f 230/27 237/29 145/19
f 243/6 219/4 227/9
f 150/76 151/73 236/72
f 236/473 176/470 234/475
f 221/58 143/53 206/61
f 220/69 21/67 167/65
f 234/475 163/476 175/477
f 226/46 168/42 31/38
f 33/66 30/68 29/64
f 141/21 28/15 20/18
f 167/353 109/349 220/358
f 3/47 168/42 2/52
f 3/47 143/53 169/39
f 27/41 34/45 31/38
f 199/281 138/286 281/291
f 262/110 12/117 303/122
f 263/157 55/152 379/163
f 264/162 47/149 263/157
f 265/105 37/96 262/110
f 266/100 37/96 265/105
f 267/104 198/97 266/100
f 268/106 198/97 267/104
f 269/111 210/101 268/106
f 270/213 211/206 210/217
f 271/118 210/101 269/111
f 272/559 207/562 136/560
f 273/561 136/560 282/563
f 274/296 136/284 275/289
f 275/289 136/284 135/276
f 276/200 135/203 218/201
f 277/202 218/201 278/204
f 278/204 218/201 211/206
f 279/209 211/206 270/213
f 280/300 207/297 272/307
f 281/291 138/286 280/300
f 282/303 136/284 274/296
f 283/308 199/281 284/304
f 284/304 199/281 288/299
f 285/309 200/305 199/281
f 286/312 199/281 283/308
f 287/313 200/305 285/309
f 288/299 199/281 281/291
f 289/216 270/213 290/219
f 291/172 68/168 292/165
f 292/165 68/168 54/153
f 293/523 87/525 62/517
f 294/527 87/525 293/523
f 295/138 77/123 296/136
f 296/136 77/123 52/131
f 297/509 63/508 298/505
f 298/505 63/508 104/506
f 299/548 54/545 291/550
f 300/546 54/545 299/548
f 301/36 46/33 302/34
f 302/34 46/33 82/30
f 303/122 12/117 372/130
f 304/415 79/412 132/411
f 305/419 132/411 361/417
f 306/369 84/373 307/376
f 307/376 84/373 78/381
f 308/115 37/96 39/108
f 309/128 12/117 308/115
f 310/161 55/152 311/156
f 311/156 55/152 51/148
f 312/510 63/508 297/509
f 313/461 93/454 314/463
f 314/463 93/454 43/459
f 315/393 113/390 110/396
f 316/397 105/391 315/393
f 317/486 17/482 318/483
f 318/483 17/482 15/480
f 319/490 17/482 322/489
f 320/491 104/487 319/490
f 321/511 63/508 312/510
f 322/489 17/482 317/486
f 323/187 63/190 321/193
f 324/155 51/148 325/151
f 325/151 51/148 50/150
f 326/406 44/408 352/410
f 327/401 110/396 326/406
f 328/352 109/349 45/351
f 329/361 82/356 328/352
f 330/530 79/529 304/533
f 331/531 78/528 330/530
f 332/534 78/528 331/531
f 333/355 45/351 354/360
f 334/365 82/356 329/361
f 335/520 62/517 14/519
f 336/139 52/131 294/142
f 337/132 77/123 295/138
f 338/126 42/114 337/132
f 339/176 14/179 64/173
f 340/169 64/173 56/159
f 341/166 56/159 324/155
f 342/182 65/184 323/187
f 343/178 58/180 342/182
f 344/174 56/159 343/178
f 345/160 51/148 56/159
f 346/127 39/108 358/133
f 347/121 39/108 346/127
f 348/158 54/153 47/149
f 349/547 50/544 300/546
f 350/164 47/149 264/162
f 351/549 50/544 349/547
f 352/452 44/445 368/448
f 353/120 42/114 338/126
f 354/360 45/351 355/359
f 355/359 45/351 18/354
f 356/311 197/306 38/301
f 357/425 121/422 356/428
f 358/133 39/108 359/125
f 359/125 39/108 353/120
f 360/424 122/414 357/425
f 361/417 132/411 122/414
f 362/421 122/414 360/424
f 363/315 38/301 364/310
f 364/310 38/301 200/305
f 365/364 18/354 306/369
f 366/405 94/400 316/397
f 367/314 200/305 287/313
f 368/448 44/445 46/444
f 369/451 46/444 301/453
f 370/134 12/117 309/128
f 371/464 1/458 313/461
f 372/130 12/117 370/134
f 373/485 15/480 374/488
f 374/468 15/465 371/464
f 375/409 43/407 366/405
f 376/170 56/159 344/174
f 377/129 262/110 303/122
f 378/135 262/110 377/129
f 379/163 55/152 310/161
f 380/167 263/157 379/163
f 381/171 264/162 382/175
f 383/316 287/313 384/317
usemtl Tile_+038_+019_L19_000324_untextured
