mtllib Tile_+038_+019_L19_000030.mtl
v 7.84340696e+03 4.56514196e+03 2.62515377e+00
v 7.84246742e+03 4.56643392e+03 2.74520516e+00
v 7.84337361e+03 4.56959727e+03 1.18266964e+01
v 7.84200108e+03 4.57150088e+03 1.10347641e+01
v 7.83474597e+03 4.57628879e+03 8.37128589e+00
v 7.83363301e+03 4.57715599e+03 7.14335878e+00
v 7.83827627e+03 4.57265298e+03 7.70656411e+00
v 7.83714904e+03 4.57169520e+03 7.83067302e+00
v 7.83625645e+03 4.57116185e+03 7.13645647e+00
v 7.83889129e+03 4.57292289e+03 8.79701433e+00
v 7.84157375e+03 4.57091666e+03 1.02823284e+01
v 7.83418328e+03 4.57156381e+03 7.71144977e+00
v 7.83452697e+03 4.57133850e+03 6.17992533e+00
v 7.83764950e+03 4.57038780e+03 7.13509955e+00
v 7.83961867e+03 4.57263818e+03 7.25136496e+00
v 7.83121225e+03 4.57810345e+03 7.23380169e+00
v 7.83043079e+03 4.57658759e+03 8.03305508e+00
v 7.82890852e+03 4.57804258e+03 7.44683688e+00
v 7.83048542e+03 4.57451740e+03 2.67943032e+00
v 7.82940288e+03 4.57487060e+03 6.22837085e+00
v 7.82430838e+03 4.57928871e+03 2.83384402e+00
v 7.82530388e+03 4.57759404e+03 6.17149638e+00
v 7.82589670e+03 4.57823460e+03 2.89056354e+00
v 7.82361454e+03 4.57958490e+03 4.87442177e+00
v 7.81934020e+03 4.58224330e+03 3.44412306e+00
v 7.82002352e+03 4.58154803e+03 2.97612418e+00
v 7.81844675e+03 4.58200825e+03 4.75669959e+00
v 7.82437176e+03 4.57903480e+03 7.24641843e+00
v 7.82541439e+03 4.57740767e+03 7.92796048e+00
v 7.82543282e+03 4.58215039e+03 7.18767138e+00
v 7.82337918e+03 4.58344744e+03 7.23024173e+00
v 7.82211501e+03 4.57965181e+03 7.75002848e+00
v 7.82110828e+03 4.58131537e+03 7.13682893e+00
v 7.81640869e+03 4.58349361e+03 7.85462000e+00
v 7.81762487e+03 4.58414684e+03 7.12813392e+00
v 7.82170645e+03 4.58381842e+03 7.08712651e+00
v 7.82292375e+03 4.58250234e+03 7.27440441e+00
v 7.82121572e+03 4.58307487e+03 7.93955671e+00
v 7.81804248e+03 4.58252294e+03 5.98144897e+00
v 7.81927226e+03 4.58155928e+03 7.80686558e+00
v 7.83577875e+03 4.57361473e+03 7.30960251e+00
v 7.83544166e+03 4.57492937e+03 7.15359476e+00
v 7.83464318e+03 4.57546984e+03 7.15424018e+00
v 7.83266583e+03 4.57735407e+03 8.36436814e+00
v 7.83354446e+03 4.57764671e+03 7.82803758e+00
v 7.83120780e+03 4.57814992e+03 9.30906647e+00
v 7.83369422e+03 4.57607703e+03 1.06041687e+01
v 7.83207684e+03 4.57815977e+03 8.68434282e+00
v 7.82951093e+03 4.57510990e+03 3.03894558e+00
v 7.82756382e+03 4.57658908e+03 5.09837860e+00
v 7.83235884e+03 4.57700590e+03 7.30617447e+00
v 7.82585771e+03 4.57842201e+03 7.08710256e+00
v 7.83546494e+03 4.57115387e+03 2.60207585e+00
v 7.83268247e+03 4.57306923e+03 2.83998611e+00
v 7.83326139e+03 4.57216758e+03 2.58297603e+00
v 7.81732537e+03 4.58274831e+03 3.71837853e+00
v 7.81861189e+03 4.58206716e+03 2.72496303e+00
v 7.82136581e+03 4.58476642e+03 7.16075466e+00
v 7.81959463e+03 4.57302893e+03 2.31311321e+00
v 7.81930158e+03 4.57762776e+03 2.23976217e+00
v 7.82237837e+03 4.57981680e+03 2.50937903e+00
v 7.81744631e+03 4.58134948e+03 2.34587721e+00
v 7.82456846e+03 4.57204217e+03 2.21942929e+00
v 7.82674069e+03 4.57554629e+03 2.41419256e+00
v 7.81959201e+03 4.58176743e+03 5.15867577e+00
v 7.82887459e+03 4.57373037e+03 2.75695351e+00
v 7.83081987e+03 4.56979791e+03 2.47584672e+00
v 7.82797656e+03 4.57607437e+03 3.12024956e+00
v 7.82748342e+03 4.57701991e+03 2.73752532e+00
v 7.82918356e+03 4.57141668e+03 2.57773338e+00
v 7.81594365e+03 4.58402405e+03 5.68793695e+00
v 7.81519624e+03 4.58423631e+03 4.71694256e+00
v 7.81486963e+03 4.58534195e+03 4.78897636e+00
v 7.83579901e+03 4.57464455e+03 1.18751581e+01
v 7.83107589e+03 4.57883589e+03 1.10091593e+01
v 7.82581729e+03 4.58146851e+03 1.01322288e+01
v 7.82264109e+03 4.58400459e+03 8.75980107e+00
v 7.82405783e+03 4.58258646e+03 1.17854171e+01
v 7.83179563e+03 4.57619818e+03 7.21512447e+00
v 7.83405455e+03 4.57962185e+03 1.10721684e+01
v 7.83324325e+03 4.58005660e+03 1.10925297e+01
v 7.83394737e+03 4.57974647e+03 1.24416465e+01
v 7.82778016e+03 4.58079216e+03 1.11173128e+01
v 7.83968837e+03 4.57681421e+03 1.10852104e+01
v 7.83774875e+03 4.57804142e+03 1.25523057e+01
v 7.83639525e+03 4.57465129e+03 8.48569944e+00
v 7.83594946e+03 4.57549468e+03 7.52040965e+00
v 7.82472356e+03 4.58316179e+03 1.09942689e+01
v 7.82803390e+03 4.58343377e+03 1.10763318e+01
v 7.83546030e+03 4.57598037e+03 8.67092138e+00
v 7.83126489e+03 4.58298396e+03 1.24149410e+01
v 7.83015975e+03 4.58157900e+03 1.11270756e+01
v 7.83777296e+03 4.57425554e+03 1.10311721e+01
v 7.84255226e+03 4.57546714e+03 1.10277975e+01
v 7.83240561e+03 4.57376668e+03 7.16175519e+00
v 7.82965250e+03 4.57453368e+03 8.01630611e+00
v 7.82475730e+03 4.57983198e+03 7.14976632e+00
v 7.82582962e+03 4.58021064e+03 7.90628354e+00
v 7.81844342e+03 4.58674736e+03 7.27763521e+00
v 7.81788774e+03 4.58684037e+03 9.56927512e+00
v 7.82854020e+03 4.58485423e+03 1.20962465e+01
v 7.82548835e+03 4.57948973e+03 7.84465000e+00
v 7.82946060e+03 4.57547692e+03 7.26481354e+00
v 7.83550769e+03 4.57549298e+03 9.28679271e+00
v 7.84185416e+03 4.57590319e+03 1.25381663e+01
v 7.84034286e+03 4.57680777e+03 1.25966449e+01
v 7.82679617e+03 4.57736281e+03 7.18132501e+00
v 7.82828122e+03 4.57669726e+03 7.13499578e+00
v 7.83729300e+03 4.57268277e+03 7.20101467e+00
v 7.82790798e+03 4.57804516e+03 7.92373799e+00
v 7.82940137e+03 4.57685835e+03 7.88920735e+00
v 7.82592456e+03 4.58090207e+03 7.20518136e+00
v 7.82828503e+03 4.57875424e+03 7.80151588e+00
v 7.82073822e+03 4.58549939e+03 8.55774993e+00
v 7.82043426e+03 4.58503323e+03 1.07095339e+01
v 7.82156375e+03 4.58461573e+03 8.92335005e+00
v 7.81862519e+03 4.58565944e+03 7.20664887e+00
v 7.82757522e+03 4.58070162e+03 7.38062398e+00
v 7.82451817e+03 4.58695146e+03 1.10625867e+01
v 7.82200976e+03 4.58849490e+03 1.31725102e+01
v 7.81416865e+03 4.58880991e+03 6.13818131e+00
v 7.81381228e+03 4.58646823e+03 5.25856663e+00
v 7.82985352e+03 4.57914284e+03 7.19373163e+00
v 7.81436579e+03 4.57983976e+03 3.45277875e+00
v 7.81388838e+03 4.58155689e+03 3.69769099e+00
v 7.81458812e+03 4.58963029e+03 1.15551703e+01
v 7.81464913e+03 4.58887169e+03 1.18400909e+01
v 7.81526137e+03 4.58081826e+03 2.36027966e+00
v 7.82936687e+03 4.58417750e+03 1.09974276e+01
v 7.82907238e+03 4.58490066e+03 1.20994053e+01
v 7.81451733e+03 4.58476957e+03 6.24790586e+00
v 7.84127151e+03 4.57143827e+03 7.21567191e+00
v 7.84157666e+03 4.58585386e+03 1.68384692e+01
v 7.81910206e+03 4.59048341e+03 1.31519248e+01
v 7.82044196e+03 4.58947483e+03 1.34474669e+01
v 7.81673377e+03 4.59024543e+03 1.11472769e+01
v 7.81571497e+03 4.58899599e+03 1.11518607e+01
v 7.82877340e+03 4.58482104e+03 1.14143948e+01
v 7.83906959e+03 4.58710138e+03 1.67802961e+01
v 7.83444140e+03 4.57985689e+03 1.50065772e+01
v 7.83514220e+03 4.57975700e+03 1.32348390e+01
v 7.83617798e+03 4.57901097e+03 1.10487034e+01
v 7.83660121e+03 4.57775781e+03 1.10727556e+01
v 7.83638265e+03 4.57902371e+03 1.24735611e+01
v 7.83464046e+03 4.58003745e+03 1.13241946e+01
v 7.83400879e+03 4.58050765e+03 1.36079827e+01
v 7.84046925e+03 4.58951301e+03 1.65062248e+01
v 7.84232822e+03 4.59108279e+03 1.67334066e+01
v 7.81960596e+03 4.58943888e+03 1.23739330e+01
v 7.81880035e+03 4.59073985e+03 1.10745499e+01
v 7.81646345e+03 4.59213609e+03 1.39189709e+01
v 7.81873402e+03 4.59055483e+03 1.74382628e+01
v 7.82223574e+03 4.58820683e+03 1.74928511e+01
v 7.82022374e+03 4.58931837e+03 1.13444029e+01
v 7.84395463e+03 4.57383023e+03 1.33498795e+01
v 7.84222879e+03 4.57472151e+03 1.40932844e+01
v 7.83935854e+03 4.57679405e+03 1.40487528e+01
v 7.82684644e+03 4.58523681e+03 1.38283224e+01
v 7.82641715e+03 4.58538758e+03 1.74778860e+01
v 7.83157987e+03 4.58220024e+03 1.21117775e+01
v 7.83158456e+03 4.58205621e+03 1.36738785e+01
v 7.83328913e+03 4.58114332e+03 1.21160147e+01
v 7.83816444e+03 4.57744480e+03 1.75042308e+01
v 7.82763810e+03 4.58527789e+03 1.17177282e+01
v 7.82975803e+03 4.58400498e+03 1.25723090e+01
v 7.82895858e+03 4.58359390e+03 1.40591283e+01
v 7.82093754e+03 4.58867153e+03 1.27744612e+01
v 7.82781452e+03 4.58539035e+03 1.23930589e+01
v 7.83008676e+03 4.58986927e+03 1.70325222e+01
v 7.83476519e+03 4.58966938e+03 1.68381192e+01
v 7.83183308e+03 4.58174918e+03 1.75183613e+01
v 7.83637735e+03 4.59172134e+03 1.66833763e+01
v 7.84058034e+03 4.58668235e+03 1.77569248e+01
v 7.84177874e+03 4.58845397e+03 1.75431367e+01
v 7.84305776e+03 4.59024130e+03 1.73588362e+01
v 7.83241366e+03 4.59119753e+03 1.68094688e+01
v 7.83047666e+03 4.58351162e+03 1.15012723e+01
v 7.83409315e+03 4.59061305e+03 1.77417473e+01
v 7.82685508e+03 4.58522965e+03 1.16948911e+01
v 7.82623859e+03 4.58523619e+03 1.10761027e+01
v 7.82102457e+03 4.58840664e+03 1.10531195e+01
v 7.83677511e+03 4.59259972e+03 1.65346002e+01
v 7.83400164e+03 4.59322855e+03 1.65321465e+01
v 7.83677288e+03 4.59383346e+03 1.67763299e+01
v 7.83051846e+03 4.59142616e+03 1.68908436e+01
v 7.84279742e+03 4.59259392e+03 1.62335164e+01
v 7.83495146e+03 4.59193454e+03 1.75007639e+01
v 7.83492467e+03 4.59251691e+03 1.73652432e+01
v 7.82188402e+03 4.58868723e+03 1.14542143e+01
v 7.81661538e+03 4.59303875e+03 1.52285046e+01
v 7.83769981e+03 4.57798714e+03 1.12464541e+01
v 7.81648117e+03 4.59234982e+03 1.14798562e+01
v 7.81595843e+03 4.59141994e+03 8.42543037e+00
v 7.81427403e+03 4.58349557e+03 2.43381318e+00
v 7.81255469e+03 4.58436949e+03 3.02327694e+00
v 7.83680964e+03 4.57109466e+03 2.90367153e+00
v 7.83637599e+03 4.57111140e+03 4.90535075e+00
v 7.83818040e+03 4.57014709e+03 2.59872905e+00
v 7.83778546e+03 4.56914190e+03 6.18014703e+00
v 7.81583535e+03 4.56548344e+03 2.67153250e+00
v 7.81495801e+03 4.56760138e+03 2.22821521e+00
v 7.81397940e+03 4.56516128e+03 2.77392866e+00
v 7.81581474e+03 4.56317595e+03 2.48780454e+00
v 7.81674738e+03 4.56381453e+03 2.26266658e+00
v 7.81374428e+03 4.56765188e+03 2.50372370e+00
v 7.81739064e+03 4.56631056e+03 2.23422377e+00
v 7.81492648e+03 4.56541268e+03 2.37106512e+00
v 7.81248358e+03 4.56653487e+03 2.61654514e+00
v 7.81789163e+03 4.56437559e+03 2.58211837e+00
v 7.81295261e+03 4.56863271e+03 2.18580941e+00
v 7.81351038e+03 4.56656607e+03 2.31315220e+00
v 7.82060841e+03 4.56510576e+03 2.29514547e+00
v 7.84313620e+03 4.56653252e+03 7.14350241e+00
v 7.84331863e+03 4.56536711e+03 7.95453453e+00
v 7.84272904e+03 4.56606397e+03 5.61718593e+00
v 7.83950119e+03 4.56797626e+03 7.81271011e+00
v 7.84039171e+03 4.56774768e+03 2.50925699e+00
v 7.84036860e+03 4.56781840e+03 5.61759879e+00
v 7.84260496e+03 4.56304339e+03 3.77811528e+00
v 7.84145600e+03 4.56248680e+03 2.37597788e+00
v 7.84317553e+03 4.56363783e+03 3.42353116e+00
v 7.84354491e+03 4.56231452e+03 3.59331351e+00
v 7.83261445e+03 4.56673012e+03 2.30534122e+00
v 7.83784482e+03 4.56609175e+03 2.66222586e+00
v 7.83478100e+03 4.56332354e+03 2.34376207e+00
v 7.84036965e+03 4.56533282e+03 2.44246915e+00
v 7.82875697e+03 4.56693179e+03 2.34953537e+00
v 7.83994600e+03 4.56903575e+03 2.92094742e+00
v 7.81890699e+03 4.56337392e+03 2.24781599e+00
v 7.82002797e+03 4.56281072e+03 2.62185290e+00
v 7.83842655e+03 4.56300373e+03 2.29527962e+00
v 7.83095037e+03 4.56281001e+03 2.31565323e+00
v 7.82244420e+03 4.56265917e+03 2.17025225e+00
v 7.81482987e+03 4.59029660e+03 2.48862134e+00
v 7.81323548e+03 4.59133184e+03 4.79606206e+00
v 7.81442745e+03 4.58807010e+03 4.42744471e+00
v 7.81455242e+03 4.58626856e+03 3.59940898e+00
v 7.81525688e+03 4.58739676e+03 3.16771951e+00
v 7.81528547e+03 4.58513437e+03 7.15317782e+00
v 7.81688642e+03 4.58694591e+03 7.17565838e+00
v 7.81454572e+03 4.58916197e+03 9.64090666e+00
v 7.81404112e+03 4.58927642e+03 3.64672150e+00
v 7.81346431e+03 4.59358266e+03 6.15430500e+00
v 7.81427929e+03 4.59203479e+03 3.51219606e+00
v 7.81347476e+03 4.58969303e+03 2.89527511e+00
v 7.81377261e+03 4.59112379e+03 1.87556666e+00
v 7.81444169e+03 4.59216374e+03 2.70631476e+00
v 7.81312858e+03 4.59294527e+03 5.60557117e+00
v 7.81455827e+03 4.58937257e+03 7.69054443e+00
v 7.81641226e+03 4.59360337e+03 3.10819577e+00
v 7.81269005e+03 4.58895016e+03 2.19827477e+00
v 7.82148812e+03 4.58204363e+03 7.77151501e+00
v 7.83382906e+03 4.57695736e+03 1.10730090e+01
v 7.83172787e+03 4.58158371e+03 1.12035969e+01
v 7.82842182e+03 4.57964496e+03 7.20795265e+00
v 7.81378026e+03 4.59027010e+03 4.34982978e+00
v 7.81460733e+03 4.58954010e+03 6.25989816e+00
v 7.81663107e+03 4.59251733e+03 6.23537649e+00
v 7.81427371e+03 4.59277676e+03 1.77849082e+00
v 7.81259077e+03 4.59089687e+03 1.83355393e+00
v 7.81465860e+03 4.58584242e+03 2.76458475e+00
v 7.81466543e+03 4.58450163e+03 3.14610548e+00
v 7.81537353e+03 4.58384320e+03 2.87021042e+00
v 7.81387158e+03 4.57847101e+03 2.36575627e+00
v 7.81227820e+03 4.58534195e+03 2.65915422e+00
v 7.81407524e+03 4.58845556e+03 3.02767249e+00
v 7.81276084e+03 4.57982978e+03 3.24607792e+00
v 7.81243248e+03 4.58720033e+03 2.55665265e+00
v 7.81635966e+03 4.59221202e+03 1.74830565e+01
v 7.81246679e+03 4.58627233e+03 7.75785200e+00
v 7.81409061e+03 4.58498312e+03 7.88039183e+00
v 7.81253966e+03 4.58612909e+03 6.24824460e+00
v 7.81554718e+03 4.58885221e+03 7.19247141e+00
v 7.81703916e+03 4.58216763e+03 3.43174797e+00
v 7.81632247e+03 4.58266298e+03 2.93661218e+00
v 7.81645031e+03 4.58337790e+03 2.91178065e+00
v 7.81627270e+03 4.58222983e+03 2.45168194e+00
v 7.81523151e+03 4.58131454e+03 3.41192841e+00
v 7.81377859e+03 4.58964522e+03 5.59323249e+00
v 7.81337860e+03 4.58485661e+03 2.75449854e+00
v 7.81991953e+03 4.58248677e+03 7.14429870e+00
v 7.82000668e+03 4.58527333e+03 1.18805100e+01
v 7.81319907e+03 4.58159648e+03 2.25241422e+00
v 7.81705881e+03 4.58770316e+03 8.55093465e+00
v 7.82224164e+03 4.57960094e+03 6.31080411e+00
v 7.81350900e+03 4.58608352e+03 7.20433384e+00
v 7.81921001e+03 4.58951157e+03 1.10132331e+01
v 7.82079783e+03 4.58573324e+03 1.10548432e+01
v 7.82024464e+03 4.58612606e+03 8.19479517e+00
v 7.81961694e+03 4.58619355e+03 8.54941167e+00
v 7.81915656e+03 4.58675855e+03 8.27631802e+00
v 7.82931838e+03 4.57899292e+03 1.19261065e+01
v 7.83693594e+03 4.57784489e+03 1.19869478e+01
v 7.83207933e+03 4.57801462e+03 7.47963549e+00
v 7.82008759e+03 4.58340851e+03 7.60110186e+00
v 7.81962765e+03 4.58494657e+03 7.65525845e+00
v 7.82001338e+03 4.58563779e+03 7.84452517e+00
v 7.81902147e+03 4.58405838e+03 8.13575787e+00
v 7.81225000e+03 4.57215540e+03 2.26231743e+00
v 7.81225000e+03 4.57181607e+03 2.26104522e+00
v 7.81225000e+03 4.57126909e+03 2.25358004e+00
v 7.81225000e+03 4.57143837e+03 2.26009075e+00
v 7.81225000e+03 4.56570929e+03 2.48432389e+00
v 7.81225000e+03 4.56435532e+03 2.34419100e+00
v 7.81225000e+03 4.56716767e+03 2.40578968e+00
v 7.81225000e+03 4.56818804e+03 2.31038488e+00
v 7.81225000e+03 4.57021544e+03 2.21854649e+00
v 7.81225000e+03 4.56675200e+03 2.58752621e+00
v 7.81225000e+03 4.56663094e+03 2.63078035e+00
v 7.81225000e+03 4.57102419e+03 2.25006114e+00
v 7.81225000e+03 4.56385362e+03 2.23866486e+00
v 7.81225000e+03 4.59177528e+03 5.99904216e+00
v 7.81225000e+03 4.59173576e+03 5.85384921e+00
v 7.81225000e+03 4.59090362e+03 6.21143865e+00
v 7.81225000e+03 4.59094743e+03 5.88605007e+00
v 7.81225000e+03 4.58320307e+03 2.49717022e+00
v 7.81225000e+03 4.58326397e+03 2.50468061e+00
v 7.81225000e+03 4.57986815e+03 2.41524843e+00
v 7.81225000e+03 4.57994501e+03 2.32244200e+00
v 7.81225000e+03 4.58545426e+03 2.71013070e+00
v 7.81225000e+03 4.58536857e+03 2.67616243e+00
v 7.81225000e+03 4.58690836e+03 2.81388552e+00
v 7.81225000e+03 4.58710512e+03 2.66799203e+00
v 7.81225000e+03 4.58255167e+03 2.30617546e+00
v 7.81225000e+03 4.57420839e+03 2.29324058e+00
v 7.81225000e+03 4.57897907e+03 2.35569549e+00
v 7.81225000e+03 4.59108547e+03 1.84614604e+00
v 7.81225000e+03 4.59090678e+03 1.91572745e+00
v 7.81225000e+03 4.59016893e+03 2.29249737e+00
v 7.81225000e+03 4.58337058e+03 2.55738549e+00
v 7.81225000e+03 4.59127072e+03 5.64800531e+00
v 7.81225000e+03 4.58534704e+03 2.65553149e+00
v 7.81225000e+03 4.58528310e+03 2.64977856e+00
v 7.81225000e+03 4.59115077e+03 6.24059462e+00
v 7.81225000e+03 4.57967596e+03 2.33264893e+00
v 7.81225000e+03 4.58413106e+03 2.85211972e+00
v 7.81225000e+03 4.58855473e+03 2.54047782e+00
v 7.81225000e+03 4.58739698e+03 2.66101009e+00
v 7.81225000e+03 4.57976930e+03 2.49066401e+00
v 7.81225000e+03 4.59092427e+03 6.24727770e+00
v 7.81225000e+03 4.59106502e+03 5.65264890e+00
v 7.81225000e+03 4.58903733e+03 2.23962971e+00
v 7.81225000e+03 4.58986564e+03 2.36251993e+00
v 7.84400000e+03 4.56936440e+03 1.16745794e+01
v 7.84400000e+03 4.57012423e+03 1.10609537e+01
v 7.84400000e+03 4.56916950e+03 1.18248869e+01
v 7.84400000e+03 4.56304155e+03 3.39120505e+00
v 7.84400000e+03 4.56307236e+03 3.38799152e+00
v 7.84400000e+03 4.56308585e+03 3.38347648e+00
v 7.84400000e+03 4.56417847e+03 3.10644014e+00
v 7.84400000e+03 4.56501460e+03 2.66785497e+00
v 7.84400000e+03 4.56269294e+03 2.63914500e+00
v 7.84400000e+03 4.56281412e+03 3.09011919e+00
v 7.84400000e+03 4.56534881e+03 3.97677141e+00
v 7.84400000e+03 4.56543463e+03 2.74017199e+00
v 7.84400000e+03 4.56503115e+03 7.85068632e+00
v 7.84400000e+03 4.56593057e+03 7.14915848e+00
v 7.84400000e+03 4.56922991e+03 1.05667369e+01
v 7.84400000e+03 4.56968109e+03 9.55725724e+00
v 7.84400000e+03 4.56652788e+03 7.14918122e+00
v 7.84400000e+03 4.56963078e+03 7.20269183e+00
v 7.84400000e+03 4.56511376e+03 5.85393709e+00
v 7.84400000e+03 4.56492168e+03 7.52492222e+00
v 7.84400000e+03 4.56965282e+03 7.14100200e+00
v 7.84400000e+03 4.56963990e+03 7.26361988e+00
v 7.84400000e+03 4.56491371e+03 7.94479128e+00
v 7.84400000e+03 4.57187322e+03 1.10440049e+01
v 7.84400000e+03 4.56918059e+03 1.15324505e+01
v 7.84400000e+03 4.56242957e+03 2.52322435e+00
v 7.84400000e+03 4.59005544e+03 1.66120616e+01
v 7.84400000e+03 4.59015369e+03 1.64425380e+01
v 7.84400000e+03 4.59048255e+03 1.63649110e+01
v 7.84400000e+03 4.59209841e+03 1.62145370e+01
v 7.84400000e+03 4.59397159e+03 1.61731298e+01
v 7.84400000e+03 4.57742462e+03 1.72569266e+01
v 7.84400000e+03 4.58638191e+03 1.66471647e+01
v 7.84400000e+03 4.58983143e+03 1.65209704e+01
v 7.84400000e+03 4.58957999e+03 1.64399268e+01
v 7.84400000e+03 4.57579057e+03 1.73388689e+01
v 7.84400000e+03 4.57354683e+03 1.74969180e+01
v 7.84400000e+03 4.57362817e+03 1.39566278e+01
v 7.84400000e+03 4.57352044e+03 1.43505927e+01
v 7.84400000e+03 4.57354314e+03 1.60055204e+01
v 7.84400000e+03 4.58753320e+03 1.65836888e+01
v 7.84400000e+03 4.57379971e+03 1.33551763e+01
v 7.84400000e+03 4.57380229e+03 1.30675475e+01
v 7.84400000e+03 4.57332000e+03 1.10916961e+01
v 7.84400000e+03 4.57397843e+03 1.29753129e+01
v 7.84400000e+03 4.57451964e+03 1.17654770e+01
v 7.84400000e+03 4.57451838e+03 1.18782547e+01
v 7.84400000e+03 4.57394086e+03 1.10876345e+01
v 7.81745806e+03 4.56225000e+03 2.43984806e+00
v 7.81846523e+03 4.56225000e+03 2.24470496e+00
v 7.82371610e+03 4.56225000e+03 2.24945883e+00
v 7.82320338e+03 4.56225000e+03 2.19627115e+00
v 7.82234693e+03 4.56225000e+03 2.35308435e+00
v 7.82190054e+03 4.56225000e+03 2.23734244e+00
v 7.83160407e+03 4.56225000e+03 2.32295439e+00
v 7.83509665e+03 4.56225000e+03 2.35039315e+00
v 7.83044843e+03 4.56225000e+03 2.29671211e+00
v 7.83000365e+03 4.56225000e+03 2.31269037e+00
v 7.82254342e+03 4.56225000e+03 2.19816719e+00
v 7.81868885e+03 4.56225000e+03 2.24339831e+00
v 7.81897902e+03 4.56225000e+03 2.33213944e+00
v 7.83085831e+03 4.56225000e+03 2.30783035e+00
v 7.83808103e+03 4.56225000e+03 2.39033122e+00
v 7.83938756e+03 4.56225000e+03 2.35973200e+00
v 7.83696335e+03 4.56225000e+03 2.34341219e+00
v 7.84351385e+03 4.56225000e+03 3.51445462e+00
v 7.84350073e+03 4.56225000e+03 3.60210202e+00
v 7.84142242e+03 4.56225000e+03 2.45219059e+00
v 7.84117510e+03 4.56225000e+03 2.38725326e+00
v 7.84272700e+03 4.56225000e+03 3.75485002e+00
v 7.84194327e+03 4.56225000e+03 3.72202573e+00
v 7.82798366e+03 4.56225000e+03 2.28059919e+00
v 7.82021464e+03 4.56225000e+03 2.54146164e+00
v 7.82071033e+03 4.56225000e+03 2.45398376e+00
v 7.84032425e+03 4.56225000e+03 2.42577006e+00
v 7.82498216e+03 4.56225000e+03 2.25260373e+00
v 7.84156869e+03 4.56225000e+03 2.97653829e+00
v 7.82118493e+03 4.56225000e+03 2.31135245e+00
v 7.81677211e+03 4.56225000e+03 2.52558034e+00
v 7.81641102e+03 4.56225000e+03 2.42715269e+00
v 7.81617819e+03 4.56225000e+03 2.49241408e+00
v 7.81501283e+03 4.56225000e+03 2.31706905e+00
v 7.81464013e+03 4.56225000e+03 2.26099143e+00
v 7.81225000e+03 4.56225000e+03 2.21864854e+00
v 7.84367600e+03 4.56225000e+03 2.67270137e+00
v 7.84380784e+03 4.56225000e+03 2.57971627e+00
v 7.84390802e+03 4.56225000e+03 2.50905758e+00
v 7.84400000e+03 4.56225000e+03 2.51446677e+00
v 7.83487745e+03 4.59400000e+03 1.65874935e+01
v 7.83611620e+03 4.59400000e+03 1.67322542e+01
v 7.81726288e+03 4.59400000e+03 1.61297881e+01
v 7.81750191e+03 4.59400000e+03 1.41031439e+01
v 7.83806440e+03 4.59400000e+03 1.63400614e+01
v 7.84069297e+03 4.59400000e+03 1.62084117e+01
v 7.83167326e+03 4.59400000e+03 1.66698213e+01
v 7.82917341e+03 4.59400000e+03 1.67888338e+01
v 7.81864203e+03 4.59400000e+03 1.71856701e+01
v 7.83353587e+03 4.59400000e+03 1.66330289e+01
v 7.83343144e+03 4.59400000e+03 1.65685544e+01
v 7.83414182e+03 4.59400000e+03 1.65774594e+01
v 7.81815880e+03 4.59400000e+03 1.72021891e+01
v 7.83639623e+03 4.59400000e+03 1.68442413e+01
v 7.83679302e+03 4.59400000e+03 1.69052528e+01
v 7.83687594e+03 4.59400000e+03 1.67583502e+01
v 7.84226412e+03 4.59400000e+03 1.62080160e+01
v 7.83175744e+03 4.59400000e+03 1.67228206e+01
v 7.83721678e+03 4.59400000e+03 1.65914783e+01
v 7.81769501e+03 4.59400000e+03 8.65714059e+00
v 7.81766486e+03 4.59400000e+03 7.61135286e+00
v 7.81766545e+03 4.59400000e+03 6.22797269e+00
v 7.81770423e+03 4.59400000e+03 1.08340746e+01
v 7.81737536e+03 4.59400000e+03 1.72613296e+01
v 7.81516567e+03 4.59400000e+03 1.86221174e+00
v 7.81497595e+03 4.59400000e+03 1.70493834e+00
v 7.81361123e+03 4.59400000e+03 1.83152184e+00
v 7.81411532e+03 4.59400000e+03 1.80603572e+00
v 7.81627136e+03 4.59400000e+03 2.79106750e+00
v 7.81637924e+03 4.59400000e+03 3.06293620e+00
v 7.81561294e+03 4.59400000e+03 6.23487919e+00
v 7.81525215e+03 4.59400000e+03 6.22292095e+00
v 7.81770923e+03 4.59400000e+03 1.33822902e+01
v 7.81372644e+03 4.59400000e+03 6.17418940e+00
v 7.81374020e+03 4.59400000e+03 6.09082163e+00
v 7.81380209e+03 4.59400000e+03 5.62416217e+00
v 7.81597126e+03 4.59400000e+03 3.65268890e+00
v 7.81476679e+03 4.59400000e+03 4.67280758e+00
v 7.81524635e+03 4.59400000e+03 4.13084940e+00
v 7.81225845e+03 4.59400000e+03 1.87422767e+00
v 7.81225000e+03 4.59400000e+03 1.87449432e+00
v 7.84397794e+03 4.59400000e+03 1.61728460e+01
v 7.84400000e+03 4.59400000e+03 1.61723934e+01
vt 0.4759858 0.96725202
vt 0.5018146 0.91789162
vt 0.51961559 0.95930064
vt 0.5652886 0.9596253
vt 0.46979061 0.91246676
vt 0.52062607 0.91080356
vt 0.5080207 0.9930284
vt 0.43889409 0.94788569
vt 0.55835128 0.9149484
vt 0.57945609 0.99594951
vt 0.40900946 0.99042434
vt 0.41533527 0.96661901
vt 0.44402683 0.91697401
vt 0.58743346 0.93440497
vt 0.58994055 0.96349025
vt 0.42801902 0.91136378
vt 0.58651692 0.91519189
vt 0.59198958 0.98939407
vt 0.32557699 0.99423707
vt 0.3758069 0.91456562
vt 0.59207535 0.99593377
vt 0.31913117 0.96644384
vt 0.33526307 0.91161287
vt 0.24651136 0.99205387
vt 0.24325939 0.96473467
vt 0.31781158 0.91698015
vt 0.18488662 0.98865759
vt 0.27980027 0.94883817
vt 0.18687314 0.9662708
vt 0.24321023 0.91449523
vt 0.28999642 0.9178977
vt 0.13206881 0.98898751
vt 0.20273995 0.94483882
vt 0.27428815 0.91230494
vt 0.21382333 0.91329134
vt 0.1077411 0.96039444
vt 0.18612982 0.90726835
vt 0.043509137 0.96376795
vt 0.13350309 0.94808805
vt 0.067756318 0.95547897
vt 0.078726947 0.98918164
vt 0.11784184 0.94119328
vt 0.14076875 0.91419995
vt 0.041439787 0.94171101
vt 0.056947425 0.93997341
vt 0.036359299 0.98907942
vt 0.12555268 0.9215436
vt 0.11909854 0.90968049
vt 0.017357238 0.94914407
vt 0.0064182291 0.96341115
vt 0.097136319 0.92477685
vt 0.027943272 0.92364973
vt 0.048049148 0.9153105
vt 0.0040629171 0.98700404
vt 0.080424346 0.91206318
vt 0.03369315 0.91038388
vt 0.51213479 0.84579712
vt 0.50311756 0.79817253
vt 0.55332947 0.79757673
vt 0.55346721 0.79947847
vt 0.47144052 0.79847527
vt 0.55303377 0.83526808
vt 0.46009481 0.82227421
vt 0.55784023 0.85066062
vt 0.40640888 0.86938763
vt 0.45593369 0.80463123
vt 0.54676867 0.87014055
vt 0.4131476 0.81697357
vt 0.55836761 0.86567843
vt 0.3670845 0.84917653
vt 0.55848634 0.87022913
vt 0.28600085 0.86891413
vt 0.2196015 0.84035921
vt 0.18758148 0.86574042
vt 0.31657702 0.82880896
vt 0.12009012 0.84827018
vt 0.29051346 0.79563016
vt 0.32640821 0.81969327
vt 0.15627405 0.81865144
vt 0.11264661 0.86640632
vt 0.3171182 0.79642296
vt 0.24786341 0.79812115
vt 0.32797968 0.80080241
vt 0.3417218 0.81450588
vt 0.17064334 0.79490244
vt 0.13744749 0.82090485
vt 0.071725339 0.8300705
vt 0.20793781 0.79470247
vt 0.34865168 0.80699146
vt 0.13357569 0.79340076
vt 0.11859743 0.81529593
vt 0.013066938 0.8647306
vt 0.087102771 0.81075037
vt 0.34191644 0.79752433
vt 0.39403769 0.82947749
vt 0.098384067 0.81490201
vt 0.0087888017 0.83059388
vt 0.079065144 0.79466647
vt 0.3768515 0.81527352
vt 0.10627967 0.80976701
vt 0.10883359 0.80376858
vt 0.0042909784 0.86082596
vt 0.053057291 0.81426692
vt 0.38830462 0.8202154
vt 0.35488802 0.79600447
vt 0.023533573 0.79289567
vt 0.059146386 0.79212439
vt 0.38439384 0.79559994
vt 0.39906731 0.80225396
vt 0.0066856067 0.80035758
vt 0.4869312 0.6917901
vt 0.47006115 0.6681844
vt 0.51615512 0.68074203
vt 0.51882684 0.69007885
vt 0.44314742 0.66871667
vt 0.51509494 0.67504811
vt 0.51699889 0.68083346
vt 0.51997483 0.69613838
vt 0.48268378 0.64479887
vt 0.43204114 0.69064671
vt 0.50934303 0.6583581
vt 0.51697081 0.67635125
vt 0.51973677 0.72195625
vt 0.43559146 0.64469409
vt 0.50932938 0.65660083
vt 0.41146487 0.74416924
vt 0.51970077 0.74521005
vt 0.51549083 0.64559025
vt 0.34320205 0.70443642
vt 0.40034762 0.66712999
vt 0.3522754 0.67723536
vt 0.29323193 0.74319398
vt 0.40036303 0.64669538
vt 0.33132273 0.68282348
vt 0.28711236 0.68331683
vt 0.39024222 0.64303285
vt 0.37426654 0.66568542
vt 0.338723 0.66401404
vt 0.24071153 0.6886375
vt 0.39314464 0.6575892
vt 0.34354752 0.64730704
vt 0.31632131 0.6595397
vt 0.32736599 0.64271921
vt 0.19255829 0.74150681
vt 0.24547273 0.6663394
vt 0.37205863 0.64331686
vt 0.28552163 0.65907037
vt 0.34127244 0.64264441
vt 0.19906472 0.68479872
vt 0.27357537 0.66417325
vt 0.22250292 0.65870386
vt 0.29377693 0.64454484
vt 0.11472401 0.7409324
vt 0.25894135 0.64977384
vt 0.080701515 0.67756271
vt 0.20849667 0.6632269
vt 0.049679682 0.73939496
vt 0.10906318 0.67363799
vt 0.1992351 0.65153897
vt 0.20767529 0.65248722
vt 0.0068706395 0.68412876
vt 0.094920702 0.66680717
vt 0.15417707 0.64134181
vt 0.0048829815 0.73967767
vt 0.054639593 0.67277682
vt 0.098732792 0.63983023
vt 0.10557356 0.64690763
vt 0.19211461 0.64145982
vt 0.04845443 0.64037263
vt 0.071522318 0.66020584
vt 0.079867624 0.64450121
vt 0.004792165 0.6462788
vt 0.066217646 0.63876718
vt 0.44322559 0.27301067
vt 0.40342054 0.24714774
vt 0.44286922 0.23527932
vt 0.47564998 0.25246984
vt 0.40868518 0.31051171
vt 0.41249761 0.19889885
vt 0.4903248 0.23227948
vt 0.36626095 0.32625633
vt 0.35553688 0.20391375
vt 0.42750904 0.18711621
vt 0.49959004 0.23028606
vt 0.45982963 0.19080538
vt 0.32170194 0.25715321
vt 0.40709415 0.18712246
vt 0.44214427 0.18711066
vt 0.49959159 0.23684812
vt 0.49958223 0.21721613
vt 0.45543924 0.18710679
vt 0.48669454 0.20876902
vt 0.33183569 0.34210712
vt 0.26142937 0.26032323
vt 0.38963076 0.18712866
vt 0.45930305 0.18710476
vt 0.32279247 0.35619527
vt 0.29367569 0.30509454
vt 0.29568067 0.19590962
vt 0.36046347 0.18713802
vt 0.49957442 0.20014054
vt 0.28847218 0.37883604
vt 0.19601062 0.34019589
vt 0.3058919 0.18715608
vt 0.24932317 0.18717492
vt 0.26811567 0.33039504
vt 0.11829849 0.35563827
vt 0.29423946 0.18716002
vt 0.20242494 0.18719047
vt 0.28088543 0.18716431
vt 0.26329815 0.3665458
vt 0.11374344 0.42749757
vt 0.0035343983 0.34202713
vt 0.2878353 0.18716222
vt 0.18264261 0.18719691
vt 0.27324578 0.38809448
vt 0.229968 0.39493465
vt 0.028902676 0.44069934
vt 0.0035326919 0.33672506
vt 0.13409892 0.2318334
vt 0.24927536 0.40317112
vt 0.050630193 0.47736818
vt 0.16182731 0.46168256
vt 0.0035445318 0.37410474
vt 0.16277184 0.19359756
vt 0.24157788 0.41795242
vt 0.084772743 0.48565769
vt 0.19197842 0.45341742
vt 0.0035307885 0.33082342
vt 0.0035681566 0.44864607
vt 0.1746318 0.18720013
vt 0.15427461 0.18720627
vt 0.21679018 0.43693811
vt 0.1029855 0.49686092
vt 0.0035299854 0.32817852
vt 0.16431995 0.18720347
vt 0.14309244 0.18720901
vt 0.16124843 0.18720257
vt 0.083827756 0.25067544
vt 0.13567565 0.18720967
vt 0.04582442 0.27085704
vt 0.10750573 0.20478249
vt 0.1250152 0.19597226
vt 0.0035287754 0.32435209
vt 0.059518483 0.2377544
vt 0.09164314 0.22043484
vt 0.12792973 0.18721116
vt 0.003524943 0.31171566
vt 0.073763922 0.21167785
vt 0.045319445 0.23665696
vt 0.10409166 0.18722242
vt 0.10862488 0.18721992
vt 0.014495517 0.28698224
vt 0.02685779 0.27164882
vt 0.10059761 0.18722355
vt 0.0035139266 0.28003639
vt 0.059186351 0.20170194
vt 0.023199081 0.25468659
vt 0.084858879 0.1872263
vt 0.0035079764 0.26409191
vt 0.030516751 0.23272878
vt 0.074140228 0.18722874
vt 0.068499044 0.18723178
vt 0.0071527283 0.25420064
vt 0.064860471 0.1872322
vt 0.0034999491 0.24130368
vt 0.0035043743 0.25759488
vt 0.0034942538 0.22014952
vt 0.0035034048 0.25570267
vt 0.046653103 0.18724018
vt 0.0034925856 0.21231174
vt 0.040830154 0.18724275
vt 0.0034846361 0.18725538
vt 0.73499608 0.12049949
vt 0.73215806 0.13871974
vt 0.67536265 0.16128856
vt 0.74564153 0.11524785
vt 0.64644754 0.19898653
vt 0.74565178 0.12930971
vt 0.74564016 0.11341166
vt 0.70304632 0.21538085
vt 0.62468511 0.21108824
vt 0.74565482 0.13864273
vt 0.67722636 0.23413754
vt 0.59228897 0.21737236
vt 0.63862884 0.21940893
vt 0.74567008 0.18712503
vt 0.65624774 0.23437011
vt 0.56452841 0.25180805
vt 0.52150774 0.26379603
vt 0.61197275 0.26995987
vt 0.5185203 0.27854419
vt 0.59949929 0.27840865
vt 0.55500937 0.28980279
vt 0.45530233 0.30872488
vt 0.61990702 0.27878582
vt 0.58372384 0.3047601
vt 0.53367877 0.29588443
vt 0.47689867 0.30802584
vt 0.56381279 0.30241948
vt 0.51759666 0.30012196
vt 0.5459035 0.31957549
vt 0.50009954 0.2976197
vt 0.46224126 0.32458192
vt 0.50990546 0.31863344
vt 0.49426815 0.31867307
vt 0.43902501 0.33416235
vt 0.55944926 0.31818008
vt 0.52467883 0.33582336
vt 0.45646909 0.34125787
vt 0.44505385 0.34661758
vt 0.4037621 0.34380847
vt 0.50231081 0.34367603
vt 0.46180466 0.35251963
vt 0.38804546 0.36981428
vt 0.48908663 0.3601886
vt 0.50016415 0.32975215
vt 0.416417 0.38834983
vt 0.35935315 0.37362659
vt 0.46329731 0.36333114
vt 0.45562035 0.38283896
vt 0.39397883 0.38118374
vt 0.36947688 0.38812339
vt 0.42353833 0.40311539
vt 0.38972646 0.39729631
vt 0.33363125 0.41407382
vt 0.39740491 0.40892214
vt 0.37210375 0.40251929
vt 0.31461912 0.40386462
vt 0.39208657 0.42373544
vt 0.2970829 0.42951566
vt 0.36492458 0.42655313
vt 0.27840638 0.42714965
vt 0.32210672 0.45781261
vt 0.37095347 0.43734932
vt 0.35544458 0.41267252
vt 0.26932979 0.44435447
vt 0.30119053 0.48760527
vt 0.34926844 0.43770224
vt 0.34643316 0.45470107
vt 0.25304163 0.44730335
vt 0.28573734 0.49573499
vt 0.93121183 0.10693455
vt 0.95264173 0.077174008
vt 0.96242911 0.073534131
vt 0.96243793 0.085413814
vt 0.86516118 0.14999771
vt 0.9624269 0.070486903
vt 0.96244693 0.11274213
vt 0.83431315 0.15607589
vt 0.89510208 0.18996668
vt 0.96245384 0.1353476
vt 0.80355084 0.19223332
vt 0.93984431 0.16890484
vt 0.76054245 0.22160012
vt 0.84686995 0.20472628
vt 0.96245706 0.14504862
vt 0.73307443 0.22405159
vt 0.8070876 0.23386502
vt 0.86403537 0.20830202
vt 0.84026355 0.22430956
vt 0.70905536 0.25218236
vt 0.79441297 0.24066186
vt 0.74624062 0.26446474
vt 0.65089732 0.28022933
vt 0.81624252 0.24035281
vt 0.77074188 0.26452941
vt 0.7130338 0.29345697
vt 0.66130888 0.28922492
vt 0.73386604 0.30507195
vt 0.76842505 0.27415258
vt 0.59998167 0.32942319
vt 0.68499112 0.32162893
vt 0.75119901 0.29465586
vt 0.7635051 0.28639627
vt 0.65811825 0.3484391
vt 0.58761066 0.32223117
vt 0.70685345 0.32226574
vt 0.60353798 0.37119412
vt 0.52057725 0.38042843
vt 0.72094363 0.31563687
vt 0.61696494 0.37556928
vt 0.5751912 0.3884685
vt 0.5039171 0.37848341
vt 0.50297004 0.39034039
vt 0.53650242 0.39994597
vt 0.53256339 0.43282455
vt 0.56879604 0.40766174
vt 0.85512936 0.87056363
vt 0.88474315 0.86794966
vt 0.87448364 0.87055564
vt 0.88477379 0.84867519
vt 0.87885827 0.87055284
vt 0.84144127 0.85851479
vt 0.88635457 0.87055147
vt 0.88505763 0.8705501
vt 0.84363514 0.87056744
vt 0.85585326 0.8473807
vt 0.89168155 0.87055171
vt 0.83416659 0.87056988
vt 0.85626781 0.83827931
vt 0.87855309 0.83495069
vt 0.90492767 0.87055045
vt 0.83253545 0.87057114
vt 0.81661636 0.82678473
vt 0.94247961 0.80042678
vt 0.97887522 0.84855765
vt 0.78700417 0.83036566
vt 0.842848 0.81763244
vt 0.85335124 0.80289495
vt 0.94600034 0.87053871
vt 0.80637783 0.87057781
vt 0.78024983 0.80603969
vt 0.97153229 0.82494247
vt 0.92059529 0.76274872
vt 0.97054976 0.87053072
vt 0.80506301 0.87057889
vt 0.65756494 0.7800982
vt 0.99765158 0.81042027
vt 0.98292196 0.81178302
vt 0.80749112 0.67914784
vt 0.96292675 0.78386015
vt 0.99767309 0.87007844
vt 0.72288561 0.73602617
vt 0.9976539 0.81555963
vt 0.90639758 0.61185974
vt 0.94419086 0.75618184
vt 0.99732864 0.8705225
vt 0.99766326 0.84080946
vt 0.76600152 0.87059009
vt 0.99764967 0.80888307
vt 0.99757159 0.58598459
vt 0.95976174 0.74324268
vt 0.99767327 0.87052238
vt 0.60144472 0.87063873
vt 0.99764931 0.80538398
vt 0.99755895 0.55092418
vt 0.99758053 0.61151791
vt 0.60286248 0.81680429
vt 0.99764872 0.80145615
vt 0.59389412 0.87064093
vt 0.99763083 0.75148344
vt 0.99763715 0.7694732
vt 0.56577098 0.84270942
vt 0.58165228 0.87064421
vt 0.77963793 0.92382497
vt 0.77202755 0.93399954
vt 0.76443738 0.91761881
vt 0.76535666 0.91715568
vt 0.79329467 0.94486326
vt 0.77758545 0.95488518
vt 0.78335977 0.9183929
vt 0.76435763 0.91719174
vt 0.79690397 0.91624165
vt 0.75663084 0.95244646
vt 0.79523873 0.91656774
vt 0.79785544 0.91619474
vt 0.78787369 0.96334261
vt 0.73539972 0.9192189
vt 0.82296032 0.92829454
vt 0.8235997 0.94710451
vt 0.79514992 0.97905278
vt 0.73235208 0.96353656
vt 0.80803132 0.91501051
vt 0.80632025 0.97736388
vt 0.7158007 0.94571924
vt 0.8487606 0.91508627
vt 0.84996265 0.915658
vt 0.82738984 0.96462142
vt 0.80500144 0.99658424
vt 0.7080555 0.92072248
vt 0.70298201 0.94905567
vt 0.85057485 0.92811579
vt 0.85042953 0.95243132
vt 0.71423602 0.91651231
vt 0.85150814 0.91612226
vt 0.69646043 0.9362939
vt 0.73232734 0.91724491
vt 0.7066918 0.91466117
vt 0.8529647 0.91514671
vt 0.87180066 0.9386186
vt 0.68703169 0.95324504
vt 0.67763323 0.91706598
vt 0.73688775 0.9172852
vt 0.67409408 0.93429363
vt 0.86385393 0.91528225
vt 0.65785807 0.94903284
vt 0.64826769 0.94090402
vt 0.62915188 0.9317323
vt 0.63537872 0.97981435
vt 0.62915415 0.93881166
vt 0.62914556 0.91257536
vt 0.62916011 0.95423687
vt 0.6291573 0.95054317
vt 0.67468476 0.91225344
vt 0.62917686 0.97583926
vt 0.6291455 0.91245574
vt 0.67747772 0.91268092
vt 0.62918067 0.97906494
vt 0.59364438 0.57243478
vt 0.61361766 0.60587811
vt 0.56574732 0.61073172
vt 0.56592447 0.59450638
vt 0.64901412 0.57130325
vt 0.60026133 0.69117796
vt 0.56590092 0.57312864
vt 0.65173733 0.59346443
vt 0.56571972 0.64439392
vt 0.65485001 0.62377429
vt 0.56572425 0.68378496
vt 0.6479255 0.65301323
vt 0.56705528 0.69448787
vt 0.58643347 0.71089995
vt 0.59989017 0.7459687
vt 0.56860697 0.72530377
vt 0.56790662 0.74302804
vt 0.67611766 0.54337811
vt 0.7104255 0.59051323
vt 0.65956414 0.59082282
vt 0.1009827 0.56580549
vt 0.12746441 0.57935536
vt 0.090523906 0.59326881
vt 0.069418684 0.56798965
vt 0.12811857 0.55158031
vt 0.13675031 0.59813201
vt 0.078996003 0.58663714
vt 0.083766453 0.55579078
vt 0.10859871 0.54357362
vt 0.13481413 0.62156838
vt 0.063995883 0.59657192
vt 0.065617956 0.53633296
vt 0.13428269 0.53819704
vt 0.080689691 0.6162371
vt 0.062194567 0.59307277
vt 0.054938406 0.57715356
vt 0.077951156 0.59428298
vt 0.059049077 0.59313458
vt 0.040820174 0.55479538
vt 0.051940672 0.59658831
vt 0.030620845 0.59091878
vt 0.038315896 0.54204476
vt 0.0092192832 0.57237446
vt 0.0099793989 0.54319143
vt 0.051338241 0.59883797
vt 0.0076720365 0.5626272
vt 0.012329892 0.58985519
vt 0.0053378027 0.55311763
vt 0.019803401 0.59872425
vt 0.012534885 0.59719002
vt 0.004019768 0.54285407
vt 0.012580208 0.59850848
vt 0.59731984 0.91056561
vt 0.61387336 0.95801038
vt 0.61067617 0.99586546
vt 0.90261298 0.96190834
vt 0.9027366 0.97853428
vt 0.88747138 0.96236199
vt 0.87813193 0.9355709
vt 0.92136216 0.98857194
vt 0.92006904 0.9785561
vt 0.93729156 0.96603966
vt 0.93192542 0.98714912
vt 0.95631135 0.97731417
vt 0.93708152 0.99666131
vt 0.76474053 0.61581731
vt 0.75827169 0.62585998
vt 0.75038481 0.61117887
vt 0.7214334 0.60926867
vt 0.72115403 0.60975683
vt 0.72083807 0.6062007
vt 0.71808654 0.61102438
vt 0.69461632 0.63691914
vt 0.73372519 0.66389048
vt 0.70962757 0.61223829
vt 0.70571107 0.66220498
vt 0.70289904 0.6583885
vt 0.72170788 0.68315101
vt 0.69100761 0.64226782
vt 0.72081554 0.96099347
vt 0.70829761 0.98123723
vt 0.68387556 0.97233891
vt 0.66344368 0.97504604
vt 0.72055382 0.98037547
vt 0.71636766 0.99629784
vt 0.67465019 0.99678802
vt 0.65974808 0.98732966
vt 0.62162918 0.99547225
vt 0.62098098 0.959351
vt 0.62887013 0.93792802
vt 0.0035515837 0.99334568
vt 0.054208405 0.99624389
vt 0.0033332014 0.99434358
vt 0.72317201 0.97940785
vt 0.76691514 0.97993553
vt 0.7473219 0.9951666
vt 0.83659112 0.98604494
vt 0.82892746 0.99532813
vt 0.81732929 0.98847342
vt 0.81710422 0.98814964
vt 0.83000898 0.99581218
vt 0.82436401 0.97923338
vt 0.8406989 0.99376094
vt 0.81700569 0.98797202
vt 0.85650885 0.96937519
vt 0.85152453 0.98951828
vt 0.85668921 0.97906649
vt 0.85870296 0.97229278
vt 0.76633561 0.96328694
vt 0.75056571 0.97954834
vt 0.72293097 0.96484649
vt 0.88359606 0.99687016
vt 0.86325431 0.9793604
vt 0.9029907 0.98828685
vt 0.95788872 0.99006486
vt 0.96385962 0.98819476
vt 0.98101783 0.9964965
vt 0.96103454 0.97937471
vt 0.97458023 0.97384328
vt 0.99458742 0.98030895
vt 0.78840208 0.99637568
vt 0.76881111 0.98348951
vt 0.8034541 0.9878161
vt 0.8633787 0.94785213
vt 0.87739235 0.95435363
vt 0.87787139 0.98087782
vt 0.65984386 0.98498929
vt 0.64269197 0.99518406
vt 0.62946588 0.98183358
vt 0.63043928 0.97894186
vt 0.6042456 0.96577263
vt 0.60270727 0.9961949
vt 0.59737527 0.98481697
vt 0.59737319 0.98007733
vt 0.59738213 0.99635041
vt 0.59737003 0.96713632
vt 0.59344172 0.96973884
vt 0.59630299 0.99702215
vt 0.59344822 0.99245799
vt 0.59388214 0.9679845
vt 0.59345043 0.99553412
vt 0.59344161 0.96840036
vt 0.59344167 0.96806425
vt 0.6857788 0.95576501
vt 0.66821903 0.9652161
vt 0.66035926 0.95090932
vt 0.98958081 0.9571172
vt 0.99605 0.97062171
vt 0.97179341 0.97036898
vt 0.99534041 0.98004127
vt 0.92524415 0.9485622
vt 0.94505227 0.94488871
vt 0.93131536 0.9650563
vt 0.9457739 0.95796025
vt 0.77022618 0.96033049
vt 0.78141904 0.96379751
vt 0.77014804 0.98137903
vt 0.96584308 0.95212179
vt 0.95791858 0.9650895
vt 0.95680833 0.96443003
vt 0.95764768 0.95442683
vt 0.96762633 0.95695961
vt 0.9567402 0.96542782
vt 0.95832187 0.95199853
vt 0.97098076 0.96077889
vt 0.96195525 0.94994402
vt 0.95883411 0.95015329
vt 0.95930344 0.94913715
vt 0.62693405 0.98256195
vt 0.63112241 0.99168587
vt 0.62142193 0.99667537
vt 0.0073170653 0.99696118
vt 0.0048671579 0.99474955
vt 0.0079195052 0.99439836
usemtl Tile_+038_+019_L19_000030_0
f 4/343 3/344 344/345
f 217/174 224/175 226/176
f 225/182 227/194 232/199
f 199/1 228/2 218/3
f 219/596 222/597 347/598
f 59/207 227/194 63/203
f 223/186 224/175 53/181
f 394/215 233/225 395/231
f 225/182 232/199 398/204
f 229/242 209/246 204/249
f 230/243 229/242 403/251
f 231/179 225/182 406/187
f 226/176 220/185 1/180
f 2/177 226/176 1/180
f 221/601 219/596 348/599
f 224/175 225/182 231/179
f 226/176 231/179 407/183
f 412/191 226/176 418/188
f 224/175 231/179 226/176
f 229/242 204/249 393/255
f 230/243 212/220 229/242
f 227/194 212/220 394/215
f 198/5 196/13 53/16
f 415/205 227/194 419/209
f 227/194 223/186 67/198
f 206/239 209/246 229/242
f 212/220 206/239 229/242
f 227/194 59/207 299/213
f 67/198 70/206 63/203
f 63/203 227/194 67/198
f 301/235 212/220 302/229
f 223/186 227/194 225/182
f 55/193 67/198 223/186
f 225/182 224/175 223/186
f 224/175 217/174 198/178
f 53/181 55/193 223/186
f 198/178 53/181 224/175
f 53/16 196/13 197/8
f 13/12 53/16 197/8
f 228/2 198/5 217/6
f 228/2 217/6 218/3
f 1/180 221/192 350/190
f 414/605 220/604 420/606
f 217/6 2/9 215/4
f 352/657 222/658 409/659
f 214/274 213/275 216/276
f 221/192 1/180 220/185
f 354/14 2/9 355/17
f 213/275 214/274 356/277
f 132/281 213/275 360/283
f 8/286 9/282 14/278
f 214/10 215/4 362/15
f 11/57 132/58 364/59
f 13/12 197/8 199/1
f 216/7 199/1 215/4
f 218/3 215/4 199/1
f 215/4 214/10 216/7
f 199/1 216/7 12/11
f 198/5 228/2 199/1
f 9/282 12/285 216/276
f 410/600 219/596 413/602
f 206/239 200/245 204/249
f 132/281 14/278 213/275
f 14/278 216/276 213/275
f 208/264 202/261 211/258
f 212/220 227/194 300/219
f 202/261 208/264 303/266
f 202/261 207/250 211/258
f 305/260 210/253 306/256
f 212/220 230/243 417/240
f 204/249 200/245 207/250
f 208/264 211/258 305/260
f 207/250 202/261 203/257
f 392/259 203/257 422/262
f 210/253 205/254 201/241
f 204/249 209/246 206/239
f 211/258 205/254 210/253
f 207/250 201/241 205/254
f 201/241 206/239 301/235
f 207/250 200/245 201/241
f 204/249 207/250 203/257
f 307/248 201/241 310/244
f 207/250 205/254 211/258
f 423/263 202/261 424/265
f 424/265 304/268 425/270
f 206/239 201/241 200/245
f 397/232 212/220 421/237
f 226/176 2/177 217/174
f 219/596 221/601 220/604
f 196/13 198/5 197/8
f 3/67 11/57 358/64
f 369/665 352/657 429/663
f 215/4 218/3 217/6
f 2/177 1/180 351/184
f 199/1 197/8 198/5
f 12/11 13/12 199/1
f 216/276 14/278 9/282
f 116/86 77/79 115/76
f 432/389 184/390 433/391
f 182/392 172/402 147/406
f 156/111 105/112 155/113
f 43/293 42/291 87/296
f 46/75 76/73 123/77
f 436/403 186/407 437/411
f 153/418 185/408 438/417
f 187/401 183/394 176/405
f 152/439 153/418 440/435
f 169/413 185/408 153/418
f 187/401 188/398 183/394
f 148/626 175/627 370/628
f 188/398 187/401 172/402
f 183/394 188/398 182/392
f 186/407 148/414 371/419
f 148/414 147/406 175/420
f 448/416 374/423 473/428
f 185/408 176/405 183/394
f 182/392 147/406 186/407
f 188/398 172/402 182/392
f 183/394 182/392 432/389
f 185/408 183/394 442/404
f 447/395 182/392 450/399
f 185/408 169/413 176/405
f 153/153 135/155 158/149
f 166/139 171/132 159/144
f 167/162 135/155 181/166
f 163/426 139/415 171/421
f 139/415 147/406 170/410
f 170/608 178/609 176/610
f 178/409 187/401 176/405
f 178/409 170/410 172/402
f 129/370 92/364 177/374
f 172/402 170/410 147/406
f 139/593 133/594 173/595
f 377/436 133/433 378/440
f 370/431 174/422 377/436
f 187/401 178/409 172/402
f 157/120 163/126 140/129
f 375/438 139/415 379/432
f 147/406 174/422 175/420
f 139/415 173/427 174/422
f 133/433 174/422 173/427
f 174/422 147/406 139/415
f 379/432 163/426 380/437
f 176/405 169/413 170/410
f 171/421 170/410 159/424
f 139/415 170/410 171/421
f 170/410 169/413 159/424
f 153/418 159/424 169/413
f 171/132 140/129 163/126
f 380/127 156/111 383/123
f 141/131 145/141 144/137
f 162/142 81/143 146/134
f 158/149 166/139 159/144
f 141/131 146/134 82/138
f 157/120 141/131 85/130
f 156/111 157/120 106/115
f 90/104 87/109 104/95
f 381/114 155/113 385/117
f 105/112 94/119 389/125
f 146/134 161/135 162/142
f 91/150 160/147 161/135
f 101/614 130/615 165/616
f 166/139 158/149 101/151
f 135/155 167/162 120/158
f 161/135 166/139 165/145
f 166/139 101/151 165/145
f 161/135 146/134 140/129
f 81/143 162/142 254/152
f 161/135 160/147 162/142
f 141/131 144/137 85/130
f 141/131 157/120 140/129
f 140/129 146/134 141/131
f 138/617 130/615 101/614
f 120/158 167/162 181/166
f 135/155 149/170 154/171
f 151/161 134/165 135/155
f 150/169 287/173 149/170
f 150/169 134/165 151/161
f 135/155 134/165 149/170
f 135/155 153/153 152/157
f 158/149 159/144 153/153
f 186/407 147/406 148/414
f 131/38 71/40 39/36
f 236/520 122/521 121/522
f 70/206 19/202 66/211
f 93/347 4/343 84/351
f 105/112 156/111 106/115
f 104/95 45/89 5/99
f 79/294 103/292 95/289
f 52/643 102/644 97/645
f 112/320 30/321 97/311
f 61/37 21/35 24/33
f 114/91 116/86 115/76
f 255/313 113/317 18/305
f 43/108 90/104 5/99
f 388/116 105/112 390/121
f 94/354 4/343 387/352
f 93/347 74/350 3/344
f 5/99 90/104 104/95
f 84/124 157/120 85/130
f 81/143 82/138 146/134
f 6/297 51/300 79/294
f 158/149 168/156 101/151
f 102/310 98/314 97/311
f 69/34 68/31 50/28
f 68/221 64/217 66/211
f 68/221 69/226 64/217
f 67/198 55/193 19/202
f 63/203 70/206 66/211
f 26/43 61/37 65/39
f 19/202 70/206 67/198
f 26/43 65/39 25/47
f 63/203 64/217 60/212
f 26/43 25/47 57/48
f 59/207 63/203 60/212
f 57/234 62/227 61/223
f 61/223 60/212 64/217
f 19/202 49/216 66/211
f 64/217 69/226 23/233
f 66/211 64/217 63/203
f 50/28 68/31 49/26
f 55/193 54/197 19/202
f 49/216 68/221 66/211
f 55/193 53/181 54/197
f 19/23 54/20 13/12
f 13/12 54/20 53/16
f 23/30 69/34 50/28
f 27/42 56/51 57/48
f 57/48 25/47 27/42
f 285/29 65/39 61/37
f 21/35 23/30 22/25
f 13/12 20/22 19/23
f 18/305 17/298 16/302
f 132/281 15/284 14/278
f 5/99 45/89 6/105
f 294/308 16/302 51/300
f 20/22 50/28 49/26
f 9/579 109/580 41/581
f 48/78 44/84 47/70
f 36/327 38/325 37/318
f 285/29 24/33 22/25
f 107/299 29/295 103/292
f 51/650 6/651 44/652
f 22/25 50/28 20/22
f 112/320 98/314 255/313
f 285/29 39/36 65/39
f 50/28 22/25 23/30
f 22/25 24/33 21/35
f 298/611 35/612 295/613
f 296/332 297/335 99/340
f 298/336 296/332 117/339
f 33/315 281/323 40/319
f 295/328 296/332 298/336
f 58/330 296/332 36/327
f 97/311 37/318 33/315
f 30/321 31/324 37/318
f 118/316 30/321 112/320
f 37/318 252/322 33/315
f 77/79 58/90 31/85
f 252/322 295/328 281/323
f 37/318 38/325 252/322
f 76/73 30/88 118/82
f 77/79 31/85 76/73
f 31/85 30/88 76/73
f 76/73 115/76 77/79
f 58/90 77/79 116/86
f 88/369 288/372 78/365
f 35/326 298/336 117/339
f 290/96 289/100 114/91
f 115/76 290/96 114/91
f 297/668 289/669 290/670
f 117/339 296/332 99/340
f 297/101 290/96 99/98
f 114/91 289/100 297/101
f 58/90 116/86 114/91
f 33/315 252/322 281/323
f 38/325 295/328 252/322
f 32/312 33/315 40/319
f 46/75 47/70 76/73
f 294/83 51/94 44/84
f 47/70 74/65 292/72
f 47/70 44/84 45/89
f 16/81 294/83 46/75
f 48/78 46/75 294/83
f 44/84 48/78 294/83
f 18/305 111/301 17/298
f 75/355 292/358 74/350
f 6/651 45/653 44/652
f 123/77 16/81 46/75
f 76/73 118/82 123/77
f 17/298 79/294 16/302
f 17/298 111/301 103/292
f 18/305 113/317 110/306
f 107/299 108/303 18/305
f 107/299 103/292 108/303
f 18/305 108/303 111/301
f 107/299 52/304 29/295
f 110/306 113/317 98/314
f 52/304 107/299 110/306
f 113/317 255/313 98/314
f 97/311 98/314 112/320
f 32/27 40/32 285/29
f 40/32 39/36 285/29
f 97/311 28/307 52/304
f 29/295 28/307 32/312
f 52/304 28/307 29/295
f 43/293 95/289 42/291
f 6/297 79/294 95/289
f 95/289 43/293 6/297
f 109/580 7/584 41/581
f 6/105 43/108 5/99
f 103/292 111/301 108/303
f 29/24 22/25 20/22
f 103/292 79/294 17/298
f 90/104 43/108 87/109
f 86/68 104/95 87/109
f 86/585 87/586 42/582
f 86/585 41/581 7/584
f 41/581 86/585 42/582
f 12/285 9/282 95/289
f 20/22 13/12 96/19
f 8/583 109/580 9/579
f 7/584 109/580 8/583
f 42/291 95/289 9/282
f 9/579 41/581 42/582
f 14/278 7/288 8/286
f 15/61 132/58 11/57
f 7/66 15/61 10/63
f 11/57 10/63 15/61
f 86/68 7/66 10/63
f 14/278 15/284 7/288
f 3/344 4/343 93/347
f 11/57 3/67 74/65
f 86/68 10/63 74/65
f 10/63 11/57 74/65
f 93/347 84/351 253/353
f 144/137 293/140 85/130
f 85/130 191/133 84/124
f 292/72 76/73 47/70
f 78/74 76/73 292/72
f 75/355 83/362 292/358
f 92/364 75/355 254/367
f 141/131 82/138 145/141
f 92/364 91/375 177/374
f 81/143 80/148 82/138
f 80/654 145/655 82/656
f 75/355 81/363 254/367
f 143/136 144/137 142/146
f 143/136 293/140 144/137
f 85/130 293/140 143/136
f 143/136 191/133 85/130
f 145/141 142/146 144/137
f 142/361 80/359 253/353
f 80/359 142/361 145/366
f 80/359 75/355 253/353
f 143/356 253/353 84/351
f 84/351 191/360 143/356
f 83/362 75/355 92/364
f 180/373 119/376 88/369
f 89/368 101/381 164/378
f 129/618 177/619 165/616
f 101/151 168/156 164/160
f 129/370 89/368 92/364
f 164/160 179/159 180/168
f 89/368 88/369 83/362
f 89/368 180/373 88/369
f 119/163 179/159 158/149
f 119/163 180/168 179/159
f 180/373 89/368 164/378
f 130/615 129/618 165/616
f 160/147 254/152 162/142
f 129/646 138/647 89/648
f 138/647 101/649 89/648
f 92/364 254/367 160/371
f 92/364 160/371 91/375
f 292/358 83/362 78/365
f 138/617 129/618 130/615
f 119/376 288/372 88/369
f 88/369 78/365 83/362
f 282/80 115/76 78/74
f 282/377 288/372 137/380
f 149/170 134/165 150/169
f 154/171 181/166 135/155
f 136/386 287/383 150/388
f 100/87 291/93 115/76
f 291/93 290/96 115/76
f 288/372 181/379 287/383
f 282/80 100/87 115/76
f 290/96 291/93 99/98
f 239/331 286/337 271/333
f 286/337 239/331 273/338
f 256/523 121/522 279/526
f 273/106 240/107 284/103
f 179/159 164/160 168/156
f 39/36 71/40 72/45
f 312/544 248/540 313/539
f 34/329 239/331 271/333
f 195/446 280/447 265/448
f 273/106 284/103 241/97
f 181/166 154/171 287/173
f 27/42 39/36 72/45
f 271/333 286/337 270/341
f 100/87 284/103 99/98
f 35/326 117/339 240/334
f 272/50 122/49 131/38
f 122/49 73/44 131/38
f 131/38 73/44 71/40
f 121/522 272/525 270/529
f 258/500 193/501 451/502
f 287/173 154/171 149/170
f 451/502 151/505 454/508
f 34/329 35/326 239/331
f 73/44 262/53 72/45
f 434/515 269/514 455/516
f 269/514 190/513 151/505
f 117/339 99/340 240/334
f 256/523 236/520 121/522
f 137/380 136/386 192/387
f 316/457 194/450 317/454
f 318/468 283/460 319/467
f 193/552 192/553 151/554
f 193/517 126/518 192/519
f 271/46 131/38 34/41
f 72/45 71/40 73/44
f 262/451 280/447 194/450
f 125/461 124/474 278/469
f 259/488 250/490 456/493
f 458/489 259/488 459/491
f 317/454 195/446 330/456
f 266/466 238/463 242/472
f 194/450 280/447 195/446
f 313/539 235/535 331/537
f 320/636 268/637 322/638
f 247/487 259/488 246/485
f 260/483 246/485 259/488
f 268/459 261/455 238/463
f 246/485 260/483 245/477
f 72/45 262/53 276/55
f 128/555 278/556 124/557
f 276/462 275/465 56/470
f 126/385 127/384 137/380
f 241/97 127/92 126/102
f 121/565 257/566 279/567
f 239/331 240/334 273/338
f 257/504 249/507 193/501
f 128/555 62/561 277/560
f 60/212 62/227 128/222
f 59/207 60/212 264/218
f 299/213 264/218 325/224
f 40/319 281/323 35/326
f 65/39 27/42 25/47
f 278/556 128/555 275/559
f 125/461 278/469 275/465
f 275/559 277/560 62/561
f 194/450 263/458 262/451
f 280/447 262/451 265/448
f 128/222 264/218 60/212
f 264/481 124/474 267/473
f 268/459 238/463 266/466
f 262/451 261/455 265/448
f 268/459 251/471 337/475
f 195/446 265/448 333/449
f 335/480 267/473 339/476
f 267/473 125/461 318/468
f 125/461 267/473 124/474
f 251/471 268/459 266/466
f 261/455 268/459 265/448
f 194/450 283/460 125/461
f 263/458 194/450 125/461
f 261/56 262/53 73/44
f 262/451 263/458 276/462
f 276/462 263/458 275/465
f 263/458 125/461 275/465
f 128/555 277/560 275/559
f 62/561 274/562 275/559
f 62/561 57/563 274/562
f 56/51 27/42 72/45
f 243/572 258/573 462/575
f 273/338 249/342 270/341
f 287/383 136/386 137/380
f 131/38 271/46 272/50
f 270/54 272/50 271/46
f 151/161 192/172 150/169
f 192/387 136/386 150/388
f 270/341 286/337 273/338
f 240/107 99/98 284/103
f 151/505 190/513 435/512
f 193/501 249/507 241/509
f 137/380 127/384 282/377
f 61/37 26/43 57/48
f 259/488 247/487 250/490
f 257/566 258/573 243/572
f 257/566 243/572 334/571
f 331/537 256/523 341/534
f 242/472 251/471 266/466
f 251/471 245/477 260/483
f 245/477 251/471 242/472
f 234/531 242/527 256/523
f 248/540 243/548 466/549
f 152/157 151/161 135/155
f 135/155 120/158 158/149
f 269/164 151/161 152/157
f 83/362 92/364 89/368
f 171/132 161/135 140/129
f 163/126 157/120 156/111
f 94/119 105/112 106/115
f 171/132 166/139 161/135
f 91/150 161/135 165/145
f 120/158 119/163 158/149
f 120/158 189/167 119/163
f 127/92 100/87 282/80
f 24/33 285/29 61/37
f 94/354 84/351 4/343
f 65/39 39/36 27/42
f 45/89 104/95 47/70
f 110/620 107/621 18/622
f 47/587 104/588 86/589
f 76/73 78/74 115/76
f 61/223 62/227 60/212
f 21/228 61/223 64/217
f 23/233 21/228 64/217
f 49/26 19/23 20/22
f 32/27 285/29 22/25
f 18/305 16/302 123/309
f 46/75 48/78 47/70
f 12/285 95/289 96/290
f 33/315 32/312 28/307
f 28/307 97/311 33/315
f 30/321 37/318 97/311
f 281/323 295/328 35/326
f 114/91 297/101 58/90
f 34/329 40/319 35/326
f 296/332 58/330 297/335
f 295/328 36/327 296/332
f 37/318 31/324 36/327
f 31/324 58/330 36/327
f 295/328 38/325 36/327
f 110/306 102/310 52/304
f 29/24 32/27 22/25
f 96/290 103/292 29/295
f 79/294 51/300 16/302
f 123/309 255/313 18/305
f 118/316 112/320 255/313
f 118/316 255/313 123/309
f 98/314 102/310 110/306
f 20/22 96/19 29/24
f 103/292 96/290 95/289
f 13/12 12/11 96/19
f 74/65 47/70 86/68
f 84/124 106/115 157/120
f 84/124 94/119 106/115
f 74/350 93/347 253/353
f 80/359 81/363 75/355
f 74/350 253/353 75/355
f 143/356 142/361 253/353
f 165/145 177/154 91/150
f 158/149 179/159 168/156
f 288/372 282/377 78/365
f 119/376 189/382 181/379
f 181/623 189/624 120/625
f 181/379 288/372 119/376
f 137/380 288/372 287/383
f 99/98 291/93 100/87
f 236/520 256/523 242/527
f 127/92 241/97 100/87
f 193/501 258/500 257/504
f 239/331 35/326 240/334
f 241/97 284/103 100/87
f 236/520 238/528 237/524
f 122/521 236/520 237/524
f 192/387 126/385 137/380
f 57/563 56/564 274/562
f 251/630 260/631 329/632
f 241/97 249/110 273/106
f 256/523 235/535 234/531
f 34/41 131/38 40/32
f 234/482 247/487 246/485
f 276/55 56/51 72/45
f 314/568 257/566 340/569
f 124/557 264/558 128/555
f 56/564 275/559 274/562
f 237/52 261/56 73/44
f 270/529 249/533 121/522
f 122/521 272/525 121/522
f 241/509 126/511 193/501
f 269/444 152/439 444/441
f 121/522 249/533 257/536
f 247/541 244/538 250/543
f 238/528 236/520 242/527
f 244/538 247/541 234/531
f 468/547 244/538 470/545
f 244/538 248/540 469/542
f 244/538 235/535 248/540
f 234/482 246/485 245/477
f 242/472 234/482 245/477
f 244/538 234/531 235/535
f 261/532 237/524 238/528
f 73/44 122/49 237/52
f 39/36 40/32 131/38
f 256/523 279/526 315/530
f 299/213 59/207 264/218
f 300/219 227/194 299/213
f 301/235 206/239 212/220
f 302/229 212/220 300/219
f 303/266 208/264 309/269
f 304/268 202/261 303/266
f 305/260 211/258 210/253
f 306/256 210/253 307/248
f 307/248 210/253 201/241
f 308/267 208/264 305/260
f 309/269 208/264 308/267
f 310/244 201/241 301/235
f 425/270 311/271 426/272
f 312/544 243/548 248/540
f 313/539 248/540 235/535
f 314/568 279/567 257/566
f 315/570 279/567 314/568
f 316/457 283/460 194/450
f 317/454 194/450 195/446
f 318/468 125/461 283/460
f 319/467 283/460 324/464
f 320/636 265/639 268/637
f 321/641 265/639 320/636
f 322/638 268/637 323/640
f 323/484 268/459 338/478
f 324/464 283/460 316/457
f 325/224 264/218 326/230
f 326/486 264/481 335/480
f 327/495 260/483 471/492
f 328/498 260/483 327/495
f 329/632 260/631 328/634
f 330/456 195/446 336/452
f 331/537 235/535 256/523
f 332/642 265/639 321/641
f 333/449 265/448 332/453
f 334/571 243/572 312/574
f 335/480 264/481 267/473
f 336/452 195/446 333/449
f 337/475 251/471 342/479
f 338/478 268/459 337/475
f 339/476 267/473 318/468
f 340/569 257/566 334/571
f 341/534 256/523 315/530
f 342/635 251/630 343/633
f 343/633 251/630 329/632
f 344/345 3/344 346/348
f 345/346 4/343 344/345
f 346/71 3/67 368/69
f 347/664 222/658 353/661
f 348/599 219/596 347/598
f 349/603 221/601 348/599
f 350/190 221/192 349/201
f 351/184 1/180 350/190
f 353/661 222/658 352/657
f 354/14 215/4 2/9
f 355/189 2/177 351/184
f 356/277 214/274 366/280
f 357/279 213/275 356/277
f 358/64 11/57 359/62
f 359/62 11/57 365/60
f 360/283 213/275 357/279
f 361/287 132/281 360/283
f 362/15 215/4 354/14
f 363/18 214/10 362/15
f 364/590 132/591 361/592
f 365/60 11/57 364/59
f 366/21 214/10 363/18
f 367/349 4/343 345/346
f 368/69 3/67 358/64
f 370/431 175/420 174/422
f 371/629 148/626 370/628
f 372/425 186/407 371/419
f 373/429 186/407 372/425
f 374/423 186/407 373/429
f 375/438 133/433 139/415
f 376/442 133/433 375/438
f 377/436 174/422 133/433
f 378/440 133/433 384/443
f 379/432 139/415 163/426
f 380/127 163/126 156/111
f 381/114 156/111 155/113
f 382/118 156/111 381/114
f 383/123 156/111 382/118
f 384/443 133/433 376/442
f 385/117 155/113 386/122
f 386/122 155/113 388/116
f 387/352 4/343 367/349
f 388/116 155/113 105/112
f 389/125 94/119 391/128
f 390/121 105/112 389/125
f 391/357 94/354 387/352
f 392/259 204/249 203/257
f 393/255 204/249 392/259
f 394/215 212/220 233/225
f 395/231 233/225 402/236
f 396/238 233/225 397/232
f 397/232 233/225 212/220
f 398/204 232/199 405/208
f 399/200 225/182 398/204
f 400/214 232/199 401/210
f 401/210 232/199 415/205
f 402/236 233/225 396/238
f 403/251 229/242 393/255
f 404/252 230/243 403/251
f 405/208 232/199 400/214
f 406/187 225/182 408/195
f 407/183 231/179 406/187
f 408/195 225/182 399/200
f 409/659 222/658 410/662
f 410/600 222/597 219/596
f 411/196 220/185 412/191
f 412/191 220/185 226/176
f 413/602 219/596 414/605
f 414/605 219/596 220/604
f 415/205 232/199 227/194
f 416/247 230/243 404/252
f 417/240 230/243 416/247
f 418/188 226/176 407/183
f 419/209 227/194 394/215
f 420/606 220/604 411/607
f 421/237 212/220 417/240
f 422/262 203/257 423/263
f 423/263 203/257 202/261
f 424/265 202/261 304/268
f 425/270 304/268 311/271
f 426/272 311/271 427/273
f 428/660 352/657 409/659
f 429/663 352/657 428/660
f 430/666 369/665 429/663
f 431/667 369/665 430/666
f 432/389 182/392 184/390
f 433/391 184/390 445/393
f 434/515 190/513 269/514
f 435/512 190/513 434/515
f 436/403 182/392 186/407
f 437/411 186/407 448/416
f 438/417 185/408 449/412
f 439/430 153/418 438/417
f 440/435 153/418 439/430
f 441/400 183/394 443/397
f 442/404 183/394 441/400
f 443/397 183/394 432/389
f 444/441 152/439 440/435
f 445/393 184/390 446/396
f 446/671 184/672 447/673
f 447/395 184/390 182/392
f 448/416 186/407 374/423
f 449/412 185/408 442/404
f 450/399 182/392 436/403
f 451/502 193/501 151/505
f 452/503 258/500 451/502
f 453/506 258/500 452/503
f 454/508 151/505 464/510
f 455/445 269/444 444/441
f 456/493 250/490 460/496
f 457/494 259/488 456/493
f 458/489 260/483 259/488
f 459/491 259/488 457/494
f 460/496 250/490 461/499
f 461/550 250/543 468/547
f 462/575 258/573 453/577
f 463/576 243/572 462/575
f 464/510 151/505 435/512
f 465/578 243/572 463/576
f 466/549 243/548 465/551
f 467/546 248/540 466/549
f 468/547 250/543 244/538
f 469/542 248/540 467/546
f 470/545 244/538 469/542
f 471/492 260/483 458/489
f 472/497 327/495 471/492
f 473/428 374/423 474/434
usemtl Tile_+038_+019_L19_000030_untextured
