mtllib Tile_+038_+019_L19_000132.mtl
v 7.95395791e+03 4.62494026e+03 9.52322116e+00
v 7.94373834e+03 4.60179984e+03 9.15854252e+00
v 7.94379575e+03 4.59974866e+03 8.96446146e+00
v 7.95060618e+03 4.60114425e+03 1.12391424e+01
v 7.95268231e+03 4.60392922e+03 1.15347453e+01
v 7.95760205e+03 4.62288250e+03 4.03487418e+00
v 7.95583164e+03 4.62344577e+03 4.70938268e+00
v 7.95997552e+03 4.62304539e+03 5.75899364e+00
v 7.95797351e+03 4.62275311e+03 6.64970241e+00
v 7.95633964e+03 4.62339661e+03 7.79234912e+00
v 7.95355442e+03 4.62511347e+03 4.78278667e+00
v 7.96291879e+03 4.62098769e+03 2.75124967e+00
v 7.96275516e+03 4.61943553e+03 3.54945719e+00
v 7.93857199e+03 4.60613569e+03 5.31769994e+00
v 7.96503200e+03 4.59689474e+03 5.18154581e+00
v 7.96688408e+03 4.59837289e+03 4.26835390e+00
v 7.95586568e+03 4.62513002e+03 3.08214905e+00
v 7.94335343e+03 4.60224867e+03 2.82628221e+00
v 7.94365623e+03 4.60183404e+03 4.70589976e+00
v 7.95416683e+03 4.62523679e+03 3.00260676e+00
v 7.95097975e+03 4.60154091e+03 2.38340287e+00
v 7.95059813e+03 4.60109283e+03 4.21982632e+00
v 7.95728687e+03 4.60176644e+03 2.36573818e+00
v 7.95477267e+03 4.59803221e+03 2.32899603e+00
v 7.96004192e+03 4.62462537e+03 3.07153079e+00
v 7.96738791e+03 4.59899207e+03 5.56495638e+00
v 7.95904343e+03 4.60744719e+03 2.17053977e+00
v 7.95734093e+03 4.60716019e+03 2.51632241e+00
v 7.96886904e+03 4.60166022e+03 3.62115153e+00
v 7.96685040e+03 4.60150504e+03 2.31520414e+00
v 7.96840091e+03 4.60551651e+03 2.28849366e+00
v 7.96606655e+03 4.61043169e+03 2.33841712e+00
v 7.96130870e+03 4.61700805e+03 1.09372154e+01
v 7.96041340e+03 4.61590875e+03 1.12921577e+01
v 7.94523997e+03 4.59807214e+03 1.12520642e+01
v 7.94709158e+03 4.59727379e+03 1.25621066e+01
v 7.95585283e+03 4.62329488e+03 1.09135799e+01
v 7.95780871e+03 4.62325205e+03 1.23427888e+01
v 7.94269134e+03 4.60283521e+03 1.12230960e+01
v 7.94178866e+03 4.60238583e+03 1.26248819e+01
v 7.93966390e+03 4.60449797e+03 1.16684297e+01
v 7.93988245e+03 4.60362688e+03 1.26423113e+01
v 7.95314279e+03 4.60334104e+03 1.27518979e+01
v 7.95351183e+03 4.60579446e+03 9.66115325e+00
v 7.95275639e+03 4.61512371e+03 1.66314555e+01
v 7.95405734e+03 4.61613029e+03 1.66246856e+01
v 7.94422628e+03 4.59825343e+03 1.25720600e+01
v 7.95277375e+03 4.61317263e+03 1.78761459e+01
v 7.95418377e+03 4.61526188e+03 1.76187396e+01
v 7.96348879e+03 4.60563977e+03 2.33255473e+00
v 7.96246753e+03 4.60041265e+03 2.26115404e+00
v 7.94148468e+03 4.60384408e+03 5.29947339e+00
v 7.94217987e+03 4.60296012e+03 3.89887211e+00
v 7.96166606e+03 4.62317613e+03 1.23818319e+01
v 7.96036169e+03 4.62339851e+03 1.40092656e+01
v 7.95421608e+03 4.60634119e+03 1.42423586e+01
v 7.95520149e+03 4.60778668e+03 1.42855927e+01
v 7.93864383e+03 4.60556412e+03 1.12615757e+01
v 7.96306755e+03 4.61987934e+03 1.16693695e+01
v 7.96245464e+03 4.62167384e+03 1.12386331e+01
v 7.96288072e+03 4.62020200e+03 9.14246415e+00
v 7.95990745e+03 4.62313741e+03 9.24615245e+00
v 7.96113446e+03 4.62281211e+03 1.08864299e+01
v 7.95971261e+03 4.62316152e+03 1.13269133e+01
v 7.95936123e+03 4.61935091e+03 1.93783415e+01
v 7.95932684e+03 4.62061690e+03 1.81285998e+01
v 7.96263585e+03 4.61943915e+03 1.64238890e+01
v 7.96162404e+03 4.61812538e+03 1.65711340e+01
v 7.96040400e+03 4.61955162e+03 1.82140205e+01
v 7.96038913e+03 4.61773952e+03 1.66001966e+01
v 7.95960707e+03 4.61966238e+03 1.82691789e+01
v 7.95766060e+03 4.62010709e+03 1.68220062e+01
v 7.96016277e+03 4.62256605e+03 1.69707081e+01
v 7.95856925e+03 4.62247620e+03 1.60285633e+01
v 7.95825149e+03 4.62153991e+03 1.70623583e+01
v 7.96204081e+03 4.62064293e+03 1.72139915e+01
v 7.96289418e+03 4.62179857e+03 1.55517124e+01
v 7.96035178e+03 4.62096044e+03 1.86031577e+01
v 7.96247313e+03 4.62183955e+03 1.65383960e+01
v 7.96116287e+03 4.62172821e+03 1.73527255e+01
v 7.96060431e+03 4.62331158e+03 1.61262550e+01
v 7.96036469e+03 4.62140158e+03 1.78032699e+01
v 7.96179070e+03 4.62279444e+03 1.74658970e+01
v 7.96003163e+03 4.61953394e+03 2.00619941e+01
v 7.95912411e+03 4.62045274e+03 1.94070582e+01
v 7.96017621e+03 4.62089907e+03 2.02417739e+01
v 7.96114780e+03 4.62036436e+03 1.93170863e+01
v 7.96095230e+03 4.62025775e+03 1.82398447e+01
v 7.96009336e+03 4.62021802e+03 2.07094618e+01
v 7.96100233e+03 4.61964472e+03 1.94559278e+01
v 7.96059819e+03 4.61716033e+03 1.44946529e+01
v 7.95887073e+03 4.61731501e+03 1.39835327e+01
v 7.95862359e+03 4.61799972e+03 1.64462159e+01
v 7.96324048e+03 4.62125844e+03 1.27022571e+01
v 7.96322392e+03 4.62002993e+03 1.36308214e+01
v 7.95750983e+03 4.62255640e+03 1.44255258e+01
v 7.96085307e+03 4.61718204e+03 1.32332147e+01
v 7.96217422e+03 4.61677991e+03 1.26847649e+01
v 7.96318164e+03 4.61924838e+03 1.26194133e+01
v 7.96209117e+03 4.61783822e+03 1.32729326e+01
v 7.95802741e+03 4.61209159e+03 1.14402562e+01
v 7.95920842e+03 4.61350450e+03 1.16081597e+01
v 7.95872064e+03 4.61302290e+03 9.24614824e+00
v 7.95862750e+03 4.61151287e+03 1.26844191e+01
v 7.96284342e+03 4.61873852e+03 1.44492475e+01
v 7.96103007e+03 4.61662849e+03 8.69583905e+00
v 7.95666155e+03 4.61034285e+03 1.11799269e+01
v 7.95822614e+03 4.61302048e+03 1.32379604e+01
v 7.95614448e+03 4.60911106e+03 1.12051499e+01
v 7.95808833e+03 4.61798126e+03 1.45443952e+01
v 7.94473699e+03 4.60939409e+03 1.50494786e+01
v 7.94389870e+03 4.60331568e+03 1.34328093e+01
v 7.94403428e+03 4.59864857e+03 1.43907004e+01
v 7.94359676e+03 4.60010940e+03 1.42047758e+01
v 7.94977839e+03 4.60205243e+03 1.35858794e+01
v 7.94955924e+03 4.60112205e+03 1.48474668e+01
v 7.94806978e+03 4.60322065e+03 1.48122159e+01
v 7.94898097e+03 4.59869493e+03 1.61806034e+01
v 7.94859880e+03 4.59804492e+03 1.46313388e+01
v 7.94860639e+03 4.60681202e+03 1.50152332e+01
v 7.94832905e+03 4.60713648e+03 1.58371192e+01
v 7.94436584e+03 4.60260050e+03 1.45646781e+01
v 7.94649011e+03 4.59715437e+03 1.44891906e+01
v 7.94823463e+03 4.60392772e+03 1.43996255e+01
v 7.94177694e+03 4.60469950e+03 1.34045210e+01
v 7.95502548e+03 4.60839805e+03 1.58127287e+01
v 7.95456792e+03 4.60864868e+03 1.43980819e+01
v 7.95647265e+03 4.60927296e+03 1.55412337e+01
v 7.95648708e+03 4.60966529e+03 1.43485349e+01
v 7.95402831e+03 4.60819755e+03 1.34966923e+01
v 7.94956303e+03 4.60870707e+03 1.54496093e+01
v 7.95149321e+03 4.61105140e+03 1.50033027e+01
v 7.95272137e+03 4.60566879e+03 1.34355128e+01
v 7.95328182e+03 4.60527067e+03 1.41942293e+01
v 7.94989881e+03 4.60013364e+03 1.41558384e+01
v 7.94562666e+03 4.60337129e+03 1.42610256e+01
v 7.94381756e+03 4.60158186e+03 1.41843296e+01
v 7.94454898e+03 4.60163806e+03 1.68728294e+01
v 7.95592436e+03 4.60837042e+03 1.64020672e+01
v 7.95536896e+03 4.60768655e+03 1.54381437e+01
v 7.95499380e+03 4.60920314e+03 1.53309005e+01
v 7.95604436e+03 4.60975613e+03 1.56784960e+01
v 7.95633759e+03 4.61015788e+03 1.42532903e+01
v 7.95561894e+03 4.60884833e+03 1.66929793e+01
v 7.95534444e+03 4.60978163e+03 1.51018970e+01
v 7.94659592e+03 4.60820635e+03 1.57429977e+01
v 7.94943250e+03 4.59898254e+03 1.45848172e+01
v 7.94963953e+03 4.59927597e+03 1.34658382e+01
v 7.94870608e+03 4.59829832e+03 1.00605571e+01
v 7.95083762e+03 4.60005827e+03 1.27122998e+01
v 7.94928926e+03 4.59965209e+03 1.66124435e+01
v 7.95446169e+03 4.60546828e+03 1.26078328e+01
v 7.95096721e+03 4.60234638e+03 4.85685839e+00
v 7.95265187e+03 4.60417119e+03 4.34306924e+00
v 7.95181988e+03 4.60338979e+03 9.67763234e+00
v 7.95047683e+03 4.60092433e+03 8.97671062e+00
v 7.94945472e+03 4.59941032e+03 4.33328490e+00
v 7.95337556e+03 4.60484964e+03 1.31521181e+01
v 7.95507446e+03 4.60739352e+03 1.31862997e+01
v 7.95655507e+03 4.60969683e+03 1.32123337e+01
v 7.94838935e+03 4.59778352e+03 1.27885621e+01
v 7.94361821e+03 4.59949750e+03 1.28952176e+01
v 7.94510973e+03 4.59799260e+03 1.34677221e+01
v 7.94317008e+03 4.60205117e+03 1.32897221e+01
v 7.94316199e+03 4.60155228e+03 1.21597598e+01
v 7.94117131e+03 4.60354039e+03 1.41832481e+01
v 7.94369304e+03 4.60111834e+03 1.30612908e+01
v 7.94641300e+03 4.59739936e+03 1.32874902e+01
v 7.94406974e+03 4.59883733e+03 1.60343810e+01
v 7.94362849e+03 4.59995822e+03 1.18324439e+01
v 7.95521140e+03 4.60797242e+03 8.87070991e+00
v 7.95501680e+03 4.60777747e+03 1.12056907e+01
v 7.95687513e+03 4.62058610e+03 1.36085946e+01
v 7.95695332e+03 4.61209380e+03 1.34038083e+01
v 7.95935732e+03 4.61415117e+03 8.82269986e+00
v 7.95927240e+03 4.61439312e+03 1.09795443e+01
v 7.95528156e+03 4.61082150e+03 1.36629792e+01
v 7.95694375e+03 4.60911513e+03 1.25603469e+01
v 7.95831343e+03 4.61217733e+03 1.31625835e+01
v 7.95390896e+03 4.60629523e+03 1.11785076e+01
v 7.95298470e+03 4.60431707e+03 2.47750357e+00
v 7.94373573e+03 4.60115800e+03 2.36905964e+00
v 7.95375170e+03 4.62362551e+03 1.34151085e+01
v 7.95016812e+03 4.62464351e+03 1.36821254e+01
v 7.95623306e+03 4.62319546e+03 1.42060960e+01
v 7.95369470e+03 4.62504209e+03 1.41223950e+01
v 7.95457492e+03 4.61621915e+03 1.51607969e+01
v 7.95696059e+03 4.61861601e+03 1.41352235e+01
v 7.95309708e+03 4.61037051e+03 1.42958214e+01
v 7.95766422e+03 4.61146492e+03 1.40324028e+01
v 7.95799832e+03 4.61222797e+03 1.42023621e+01
v 7.95749855e+03 4.61189486e+03 9.63709603e+00
v 7.95743318e+03 4.61917452e+03 1.49147922e+01
v 7.95540668e+03 4.61490217e+03 1.45802473e+01
v 7.95486681e+03 4.62416555e+03 1.41025815e+01
v 7.95332316e+03 4.62482683e+03 1.34090556e+01
v 7.95372041e+03 4.61482103e+03 1.52353205e+01
v 7.94955632e+03 4.61963984e+03 1.57243216e+01
v 7.95036219e+03 4.61999971e+03 1.48932268e+01
v 7.94338120e+03 4.62396818e+03 1.54297445e+01
v 7.94630300e+03 4.62270164e+03 1.48817675e+01
v 7.94211543e+03 4.62473616e+03 1.56950410e+01
v 7.95398098e+03 4.61811542e+03 1.46695911e+01
v 7.95266752e+03 4.61761732e+03 1.57274263e+01
v 7.95370177e+03 4.61648320e+03 1.59072037e+01
v 7.93947386e+03 4.61217931e+03 1.48522703e+01
v 7.93772384e+03 4.60319636e+03 3.11329956e+00
v 7.93868358e+03 4.60616299e+03 3.05157590e+00
v 7.94574560e+03 4.59726002e+03 1.25812778e+01
v 7.93791491e+03 4.60617397e+03 1.47132509e+01
v 7.93879587e+03 4.60501154e+03 1.31928433e+01
v 7.94183665e+03 4.60363487e+03 1.43546396e+01
v 7.94099110e+03 4.60832733e+03 1.42553469e+01
v 7.93951387e+03 4.60629585e+03 1.35518637e+01
v 7.93789096e+03 4.60493980e+03 1.26579302e+01
v 7.93966972e+03 4.60643063e+03 1.57052761e+01
v 7.94068889e+03 4.60423827e+03 9.56852884e+00
v 7.93882419e+03 4.60521576e+03 1.50220596e+01
v 7.93792221e+03 4.61410923e+03 1.53797320e+01
v 7.93940254e+03 4.60464296e+03 1.42341087e+01
v 7.93731202e+03 4.60848354e+03 1.41758661e+01
v 7.93968905e+03 4.60499064e+03 1.43696537e+01
v 7.94252912e+03 4.61068726e+03 1.56418873e+01
v 7.93750901e+03 4.60590079e+03 1.70996895e+01
v 7.93901826e+03 4.61617662e+03 1.68312583e+01
v 7.93832335e+03 4.60687686e+03 1.70534264e+01
v 7.94751247e+03 4.59766991e+03 1.60765405e+01
v 7.94615310e+03 4.59728608e+03 1.60586128e+01
v 7.94493699e+03 4.59783087e+03 1.75054252e+01
v 7.94428766e+03 4.60038565e+03 1.69410743e+01
v 7.94505447e+03 4.60925353e+03 1.62308810e+01
v 7.94309764e+03 4.61405385e+03 1.71010252e+01
v 7.94420717e+03 4.60989045e+03 1.57913622e+01
v 7.93837853e+03 4.61388500e+03 1.62244312e+01
v 7.93890151e+03 4.61350876e+03 1.58363026e+01
v 7.93779805e+03 4.60605409e+03 1.76219402e+01
v 7.93883595e+03 4.60518563e+03 1.64448008e+01
v 7.94014201e+03 4.61227497e+03 1.56023523e+01
v 7.94905821e+03 4.60115076e+03 1.68785181e+01
v 7.94784791e+03 4.60242697e+03 1.70961621e+01
v 7.94954926e+03 4.60838332e+03 1.74038079e+01
v 7.94837273e+03 4.60905364e+03 1.64657702e+01
v 7.94862608e+03 4.60820871e+03 1.71290571e+01
v 7.94592942e+03 4.60244833e+03 1.71086876e+01
v 7.95211478e+03 4.61275452e+03 1.61727159e+01
v 7.95163855e+03 4.61162939e+03 1.88949493e+01
v 7.95112000e+03 4.61570442e+03 1.67735079e+01
v 7.95350432e+03 4.61547873e+03 1.72283939e+01
v 7.94554758e+03 4.61105068e+03 1.65162814e+01
v 7.94488277e+03 4.59891543e+03 1.71006549e+01
v 7.95444902e+03 4.61633780e+03 1.77624710e+01
v 7.95060337e+03 4.61062736e+03 1.88223261e+01
v 7.95031753e+03 4.61112152e+03 1.77375618e+01
v 7.94867819e+03 4.60727727e+03 1.86615208e+01
v 7.95063270e+03 4.61046561e+03 1.62463478e+01
v 7.94906362e+03 4.60819145e+03 1.75523018e+01
v 7.95083786e+03 4.61116595e+03 2.04486809e+01
v 7.95381258e+03 4.61605456e+03 1.80568936e+01
v 7.95120135e+03 4.61204132e+03 2.06264599e+01
v 7.95170685e+03 4.61255145e+03 1.88412066e+01
v 7.95192334e+03 4.61214131e+03 1.99025300e+01
v 7.95156792e+03 4.61193934e+03 2.11903761e+01
v 7.95070746e+03 4.61202573e+03 1.83249396e+01
v 7.95267337e+03 4.61374816e+03 1.83176027e+01
v 7.94791604e+03 4.59852797e+03 1.71923848e+01
v 7.94738180e+03 4.59986592e+03 1.83425283e+01
v 7.94821863e+03 4.60747543e+03 1.83398780e+01
v 7.94523801e+03 4.61578783e+03 1.82821714e+01
v 7.94955081e+03 4.61743636e+03 1.65481007e+01
v 7.95362662e+03 4.61498687e+03 1.75916403e+01
v 7.94855030e+03 4.60795447e+03 1.83173885e+01
v 7.94744844e+03 4.60096101e+03 1.81837545e+01
v 7.94714087e+03 4.60104120e+03 2.02357187e+01
v 7.94771781e+03 4.60007844e+03 1.95397344e+01
v 7.94670127e+03 4.60035283e+03 2.08346708e+01
v 7.94720473e+03 4.59962447e+03 1.99071788e+01
v 7.94610434e+03 4.59955139e+03 1.96796125e+01
v 7.94624061e+03 4.59953219e+03 1.82320775e+01
v 7.94630910e+03 4.60122364e+03 1.84269686e+01
v 7.95166593e+03 4.61330912e+03 1.79531582e+01
v 7.95139666e+03 4.61134187e+03 2.09681617e+01
v 7.94576685e+03 4.59857472e+03 1.74071021e+01
v 7.94690999e+03 4.59931925e+03 1.80108195e+01
v 7.94570442e+03 4.60107609e+03 1.79224074e+01
v 7.93934438e+03 4.61977129e+03 1.82946761e+01
v 7.94577103e+03 4.60039392e+03 1.82608381e+01
v 7.95389538e+03 4.61555558e+03 1.86404797e+01
v 7.94386325e+03 4.62117247e+03 1.66118742e+01
v 7.95180780e+03 4.61817144e+03 1.54616917e+01
v 7.95770888e+03 4.61881365e+03 1.59798683e+01
v 7.94544830e+03 4.62243462e+03 1.56974212e+01
v 7.94317047e+03 4.62399745e+03 1.62667967e+01
v 7.94193181e+03 4.62293701e+03 1.64518816e+01
v 7.95075602e+03 4.61900486e+03 1.61199393e+01
v 7.94611974e+03 4.60099620e+03 2.01133947e+01
v 7.96873087e+03 4.59575446e+03 2.20293819e+01
v 7.94216361e+03 4.59591526e+03 2.32884661e+00
v 7.94110329e+03 4.59672157e+03 2.30781268e+00
v 7.93953128e+03 4.59615473e+03 2.29137392e+00
v 7.93845541e+03 4.59576974e+03 2.77558385e+00
v 7.94715309e+03 4.59508513e+03 2.27830150e+00
v 7.94519695e+03 4.59781042e+03 2.31026492e+00
v 7.94129851e+03 4.59469847e+03 2.33766215e+00
v 7.94065018e+03 4.59417979e+03 3.31657550e+00
v 7.95959722e+03 4.59497577e+03 3.08605038e+00
v 7.95830962e+03 4.59358760e+03 3.48369022e+00
v 7.95897069e+03 4.59443504e+03 3.13660012e+00
v 7.94687713e+03 4.59735453e+03 2.31704415e+00
v 7.96432038e+03 4.59558798e+03 3.01032526e+00
v 7.96500817e+03 4.59578113e+03 3.33809067e+00
v 7.96450603e+03 4.59457868e+03 4.71579765e+00
v 7.96156235e+03 4.59501498e+03 2.21026490e+00
v 7.96299371e+03 4.59706816e+03 2.42819221e+00
v 7.95955000e+03 4.59601325e+03 2.22869505e+00
v 7.96606516e+03 4.59687532e+03 3.21136205e+00
v 7.96033603e+03 4.59529998e+03 2.59217877e+00
v 7.96103197e+03 4.59535312e+03 3.43636238e+00
v 7.96069498e+03 4.59829501e+03 2.35372614e+00
v 7.96003386e+03 4.59616030e+03 3.17235122e+00
v 7.96631416e+03 4.59781662e+03 2.73982074e+00
v 7.96241189e+03 4.59701010e+03 3.20148781e+00
v 7.96772338e+03 4.59444582e+03 8.23592761e+00
v 7.96851812e+03 4.59468180e+03 8.75984570e+00
v 7.96767419e+03 4.59399448e+03 9.91708900e+00
v 7.96074024e+03 4.59423393e+03 2.29787476e+00
v 7.93800395e+03 4.59684451e+03 3.01718147e+00
v 7.93841119e+03 4.59440993e+03 2.32522064e+00
v 7.93976314e+03 4.59530352e+03 3.14724976e+00
v 7.96781537e+03 4.59410561e+03 1.50844901e+01
v 7.96851223e+03 4.59471282e+03 1.65184152e+01
v 7.96509730e+03 4.59549085e+03 5.53911682e+00
v 7.96635764e+03 4.59731442e+03 5.92228444e+00
v 7.96400142e+03 4.59371663e+03 8.13776341e+00
v 7.96482798e+03 4.59519002e+03 7.97196164e+00
v 7.93894992e+03 4.59371646e+03 3.57208490e+00
v 7.96885173e+03 4.59562291e+03 1.15032617e+01
v 7.96813573e+03 4.59449365e+03 1.98273061e+01
v 7.96878294e+03 4.59561247e+03 1.41889010e+01
v 7.96871397e+03 4.59551690e+03 1.86970639e+01
v 7.96838235e+03 4.59465602e+03 1.17674313e+01
v 7.96862174e+03 4.59526450e+03 2.43291515e+01
v 7.96853152e+03 4.59474352e+03 2.29570710e+01
v 7.94464306e+03 4.59852183e+03 7.01224230e+00
v 7.94384041e+03 4.59985010e+03 5.96824905e+00
v 7.93790481e+03 4.59832621e+03 2.17301880e+00
v 7.93818306e+03 4.60146016e+03 2.33372482e+00
v 7.94382131e+03 4.59977358e+03 2.33732473e+00
v 7.95264691e+03 4.59921250e+03 2.30143152e+00
v 7.94778609e+03 4.59773306e+03 3.96933276e+00
v 7.94858816e+03 4.59815339e+03 2.48729008e+00
v 7.94146129e+03 4.60324270e+03 2.49921638e+00
v 7.93923110e+03 4.60493234e+03 3.05092977e+00
v 7.94011547e+03 4.60431092e+03 2.97007373e+00
v 7.94007760e+03 4.60077827e+03 2.76101144e+00
v 7.94112839e+03 4.59999140e+03 2.38930471e+00
v 7.94487462e+03 4.59820731e+03 4.43674889e+00
v 7.94436094e+03 4.59861764e+03 2.59740501e+00
v 7.93947451e+03 4.60464523e+03 6.23274321e+00
v 7.96252834e+03 4.62403054e+03 2.71746861e+00
v 7.96598905e+03 4.62327613e+03 2.53833629e+00
v 7.96159466e+03 4.62248182e+03 6.55062454e+00
v 7.96151055e+03 4.61715994e+03 2.59446096e+00
v 7.96310568e+03 4.61945961e+03 2.74254210e+00
v 7.95714337e+03 4.61027850e+03 2.66425940e+00
v 7.95837891e+03 4.61244008e+03 2.52927144e+00
v 7.94795649e+03 4.59739774e+03 5.22486719e+00
v 7.94707485e+03 4.59748237e+03 5.87472675e+00
v 7.95379748e+03 4.60581542e+03 8.60737625e+00
v 7.95543199e+03 4.59994792e+03 3.55403523e+00
v 7.95428179e+03 4.60061071e+03 3.36736692e+00
v 7.95469760e+03 4.59882497e+03 3.12254905e+00
v 7.95351399e+03 4.59939105e+03 3.07460558e+00
v 7.95580238e+03 4.60352795e+03 2.32843945e+00
v 7.96294052e+03 4.62021808e+03 4.71144498e+00
v 7.96279868e+03 4.62097609e+03 7.04482010e+00
v 7.96488249e+03 4.61666183e+03 2.44197556e+00
v 7.96795129e+03 4.59987025e+03 7.91210201e+00
v 7.96839785e+03 4.59957509e+03 5.30211208e+00
v 7.95403235e+03 4.60557158e+03 2.64060466e+00
v 7.95340176e+03 4.60550806e+03 4.40574609e+00
v 7.95400679e+03 4.60631091e+03 6.07648177e+00
v 7.95503159e+03 4.60777818e+03 3.11584994e+00
v 7.95364000e+03 4.60712669e+03 3.80046541e+00
v 7.96687453e+03 4.59877857e+03 2.84121666e+00
v 7.96385530e+03 4.59909462e+03 2.18765631e+00
v 7.96843389e+03 4.61423663e+03 2.45538611e+00
v 7.95594973e+03 4.60257633e+03 3.27770479e+00
v 7.96153175e+03 4.61138800e+03 2.31687610e+00
v 7.94610645e+03 4.59763607e+03 5.71713939e+00
v 7.96197878e+03 4.62290905e+03 3.33890627e+00
v 7.96848755e+03 4.60255752e+03 2.74717559e+00
v 7.96864322e+03 4.59925969e+03 3.76448334e+00
v 7.96219723e+03 4.59888331e+03 3.18693876e+00
v 7.95039930e+03 4.60090042e+03 5.94555814e+00
v 7.95049735e+03 4.60039554e+03 5.03618675e+00
v 7.96127630e+03 4.61705870e+03 3.94438907e+00
v 7.95999632e+03 4.61495849e+03 2.57683816e+00
v 7.95598711e+03 4.60125725e+03 3.58214513e+00
v 7.96055967e+03 4.62322129e+03 4.16524950e+00
v 7.96802429e+03 4.59963965e+03 2.80205930e+00
v 7.93808309e+03 4.60204383e+03 3.35495739e+00
v 7.96062183e+03 4.61646557e+03 9.60697493e+00
v 7.96264044e+03 4.61906298e+03 9.27439952e+00
v 7.96147591e+03 4.61734438e+03 5.66821565e+00
v 7.96268980e+03 4.62152296e+03 8.96077154e+00
v 7.94355350e+03 4.60198860e+03 7.22633427e+00
v 7.95249131e+03 4.60382341e+03 8.89867715e+00
v 7.96626283e+03 4.59727975e+03 7.88385742e+00
v 7.95898626e+03 4.61346871e+03 3.42862392e+00
v 7.95936487e+03 4.61320449e+03 2.59020980e+00
v 7.95632371e+03 4.60966039e+03 5.74517032e+00
v 7.95649424e+03 4.60989492e+03 3.16182175e+00
v 7.94842673e+03 4.59815426e+03 5.52454268e+00
v 7.94522306e+03 4.59814185e+03 9.48840696e+00
v 7.93794832e+03 4.60595366e+03 6.55429213e+00
v 7.93899085e+03 4.60512781e+03 8.99507665e+00
v 7.94492881e+03 4.59806963e+03 8.78626511e+00
v 7.94278251e+03 4.60270588e+03 9.25797181e+00
v 7.94008228e+03 4.60203726e+03 2.58958822e+00
v 7.96285703e+03 4.61848433e+03 5.20341762e+00
v 7.95883078e+03 4.61329729e+03 6.11290413e+00
v 7.95747521e+03 4.61143449e+03 6.07069220e+00
v 7.94733153e+03 4.59759799e+03 9.05980943e+00
v 7.94726116e+03 4.59764458e+03 1.10591600e+01
v 7.95663096e+03 4.61015013e+03 8.89489324e+00
v 7.95516625e+03 4.60787981e+03 5.60185734e+00
v 7.96136516e+03 4.62284040e+03 8.65503960e+00
v 7.96259891e+03 4.61891561e+03 6.89779115e+00
v 7.94981790e+03 4.59950168e+03 1.18687529e+01
v 7.94013385e+03 4.60425249e+03 9.03749813e+00
v 7.95654184e+03 4.61094355e+03 3.99900166e+00
v 7.95406922e+03 4.60776176e+03 4.21470765e+00
v 7.95792476e+03 4.61214767e+03 4.03101934e+00
v 7.95990332e+03 4.61567875e+03 4.93250123e+00
v 7.95694444e+03 4.61185056e+03 4.63527630e+00
v 7.96187231e+03 4.62292536e+03 5.38301679e+00
v 7.96101771e+03 4.59752588e+03 3.40546011e+00
v 7.95170876e+03 4.61832321e+03 1.62696308e+01
v 7.95432163e+03 4.61598070e+03 1.85868477e+01
v 7.96874862e+03 4.59535793e+03 8.49824675e+00
v 7.93725000e+03 4.59445724e+03 2.81723552e+00
v 7.93725000e+03 4.59437668e+03 2.80561286e+00
v 7.93725000e+03 4.59629119e+03 2.73920379e+00
v 7.93725000e+03 4.59589560e+03 2.82365027e+00
v 7.93725000e+03 4.59433304e+03 2.79055611e+00
v 7.93725000e+03 4.60834280e+03 1.42214871e+01
v 7.93725000e+03 4.60780353e+03 1.53867377e+01
v 7.93725000e+03 4.61613432e+03 1.63865506e+01
v 7.93725000e+03 4.61759326e+03 1.69182308e+01
v 7.93725000e+03 4.60634598e+03 1.70936390e+01
v 7.93725000e+03 4.60677491e+03 1.66754711e+01
v 7.93725000e+03 4.61480475e+03 1.63135609e+01
v 7.93725000e+03 4.61451589e+03 1.62460577e+01
v 7.93725000e+03 4.60761044e+03 1.57885291e+01
v 7.93725000e+03 4.62326899e+03 1.74930069e+01
v 7.93725000e+03 4.62118564e+03 1.82880757e+01
v 7.93725000e+03 4.61948123e+03 1.76426131e+01
v 7.93725000e+03 4.60756393e+03 1.58137031e+01
v 7.93725000e+03 4.60612317e+03 1.69169674e+01
v 7.93725000e+03 4.61450837e+03 1.60382196e+01
v 7.93725000e+03 4.61551175e+03 1.61382432e+01
v 7.93725000e+03 4.60609209e+03 1.65010764e+01
v 7.93725000e+03 4.60639546e+03 1.47408503e+01
v 7.93725000e+03 4.61321316e+03 1.47828954e+01
v 7.93725000e+03 4.61397787e+03 1.49376985e+01
v 7.93725000e+03 4.60845210e+03 1.41822877e+01
v 7.93725000e+03 4.60847589e+03 1.41311053e+01
v 7.93725000e+03 4.61440742e+03 1.52354276e+01
v 7.93725000e+03 4.60956721e+03 1.38497310e+01
v 7.93725000e+03 4.61140341e+03 1.43171652e+01
v 7.93725000e+03 4.60645133e+03 1.42970084e+01
v 7.93725000e+03 4.60603027e+03 1.31996133e+01
v 7.93725000e+03 4.60566666e+03 1.28682781e+01
v 7.93725000e+03 4.60437380e+03 3.11242594e+00
v 7.93725000e+03 4.60660591e+03 3.08594263e+00
v 7.93725000e+03 4.60539904e+03 1.26655045e+01
v 7.93725000e+03 4.60211436e+03 2.34057469e+00
v 7.93725000e+03 4.60145968e+03 2.32606164e+00
v 7.93725000e+03 4.60327354e+03 3.16496177e+00
v 7.93725000e+03 4.60316313e+03 3.26664596e+00
v 7.93725000e+03 4.60643520e+03 1.12887828e+01
v 7.93725000e+03 4.60586003e+03 1.21158938e+01
v 7.93725000e+03 4.59748484e+03 2.11904576e+00
v 7.93725000e+03 4.59818620e+03 2.14941617e+00
v 7.93725000e+03 4.59855644e+03 2.14876275e+00
v 7.93725000e+03 4.60230669e+03 2.55873012e+00
v 7.93725000e+03 4.60255485e+03 2.68451092e+00
v 7.93725000e+03 4.59883186e+03 2.19321936e+00
v 7.93725000e+03 4.60340340e+03 3.14410117e+00
v 7.93725000e+03 4.60236407e+03 2.67479855e+00
v 7.93725000e+03 4.60351649e+03 3.10831243e+00
v 7.93725000e+03 4.60701993e+03 3.31263883e+00
v 7.93725000e+03 4.60692394e+03 5.67404358e+00
v 7.93725000e+03 4.60706297e+03 5.40585502e+00
v 7.93725000e+03 4.60635145e+03 6.38914401e+00
v 7.93725000e+03 4.60625176e+03 7.33196880e+00
v 7.93725000e+03 4.60660682e+03 9.87619607e+00
v 7.93725000e+03 4.60658606e+03 9.56937940e+00
v 7.93725000e+03 4.60622074e+03 8.78003251e+00
v 7.93725000e+03 4.60701212e+03 3.49939008e+00
v 7.96900000e+03 4.59578578e+03 2.43512573e+01
v 7.96900000e+03 4.59548979e+03 2.33313216e+01
v 7.96900000e+03 4.59393047e+03 2.39140420e+01
v 7.96900000e+03 4.59546552e+03 2.28708472e+01
v 7.96900000e+03 4.59602241e+03 2.21657373e+01
v 7.96900000e+03 4.59548328e+03 2.43228285e+01
v 7.96900000e+03 4.59606904e+03 2.12971721e+01
v 7.96900000e+03 4.59594224e+03 1.93304262e+01
v 7.96900000e+03 4.59574075e+03 1.76847542e+01
v 7.96900000e+03 4.59576493e+03 1.52067013e+01
v 7.96900000e+03 4.59575492e+03 1.40284909e+01
v 7.96900000e+03 4.59573241e+03 1.23195025e+01
v 7.96900000e+03 4.59587849e+03 1.13408713e+01
v 7.96900000e+03 4.59599673e+03 1.04938578e+01
v 7.96900000e+03 4.59724873e+03 8.18940292e+00
v 7.96900000e+03 4.59684957e+03 8.21017157e+00
v 7.96900000e+03 4.59630648e+03 8.36110425e+00
v 7.96900000e+03 4.59555607e+03 8.50228535e+00
v 7.96900000e+03 4.59581851e+03 9.19671583e+00
v 7.96900000e+03 4.59737998e+03 8.17393099e+00
v 7.96900000e+03 4.59612548e+03 2.18551911e+01
v 7.96900000e+03 4.59615001e+03 2.20356992e+01
v 7.96900000e+03 4.61371245e+03 2.46159836e+00
v 7.96900000e+03 4.61054664e+03 2.41356416e+00
v 7.96900000e+03 4.60146073e+03 7.84432677e+00
v 7.96900000e+03 4.60003445e+03 8.05116803e+00
v 7.96900000e+03 4.62168016e+03 2.52351364e+00
v 7.96900000e+03 4.61898901e+03 2.48546500e+00
v 7.96900000e+03 4.62225935e+03 2.65074936e+00
v 7.96900000e+03 4.60278768e+03 2.75891464e+00
v 7.96900000e+03 4.60300340e+03 2.66650571e+00
v 7.96900000e+03 4.60915394e+03 2.42315896e+00
v 7.96900000e+03 4.61426098e+03 2.43733735e+00
v 7.96900000e+03 4.60522439e+03 2.32079294e+00
v 7.96900000e+03 4.60177706e+03 3.57717161e+00
v 7.96900000e+03 4.61538658e+03 2.46587814e+00
v 7.96900000e+03 4.61464155e+03 2.46901880e+00
v 7.96900000e+03 4.60085411e+03 5.44595729e+00
v 7.96900000e+03 4.60116571e+03 7.06124289e+00
v 7.96900000e+03 4.60033494e+03 4.45534341e+00
v 7.96900000e+03 4.60173967e+03 3.98115378e+00
v 7.96900000e+03 4.59792372e+03 8.14152750e+00
v 7.96900000e+03 4.60176204e+03 3.68764863e+00
v 7.96900000e+03 4.60564687e+03 2.35762805e+00
v 7.96900000e+03 4.60653655e+03 2.34436361e+00
v 7.96773517e+03 4.59350000e+03 2.27520456e+01
v 7.96758235e+03 4.59350000e+03 2.33794206e+01
v 7.96736296e+03 4.59350000e+03 1.50066474e+01
v 7.96736196e+03 4.59350000e+03 1.33660776e+01
v 7.96746137e+03 4.59350000e+03 2.39889896e+01
v 7.96804861e+03 4.59350000e+03 2.39614885e+01
v 7.96871245e+03 4.59350000e+03 2.38493100e+01
v 7.96767208e+03 4.59350000e+03 2.25979462e+01
v 7.96739913e+03 4.59350000e+03 2.19215405e+01
v 7.96721820e+03 4.59350000e+03 1.84038896e+01
v 7.96734239e+03 4.59350000e+03 1.62060635e+01
v 7.96720448e+03 4.59350000e+03 1.99166969e+01
v 7.96395193e+03 4.59350000e+03 5.49571507e+00
v 7.96423633e+03 4.59350000e+03 4.12789016e+00
v 7.94149656e+03 4.59350000e+03 2.31730849e+00
v 7.94049961e+03 4.59350000e+03 2.29869451e+00
v 7.94361356e+03 4.59350000e+03 2.29372678e+00
v 7.94178194e+03 4.59350000e+03 2.30941781e+00
v 7.96398657e+03 4.59350000e+03 5.91431848e+00
v 7.93910406e+03 4.59350000e+03 3.53741380e+00
v 7.94022330e+03 4.59350000e+03 3.35563745e+00
v 7.95822356e+03 4.59350000e+03 3.39941023e+00
v 7.95812171e+03 4.59350000e+03 2.70917210e+00
v 7.96155715e+03 4.59350000e+03 2.21831465e+00
v 7.96095833e+03 4.59350000e+03 2.27930478e+00
v 7.95830539e+03 4.59350000e+03 3.47920757e+00
v 7.94780075e+03 4.59350000e+03 2.08849164e+00
v 7.94500062e+03 4.59350000e+03 2.36875747e+00
v 7.96008461e+03 4.59350000e+03 2.87390804e+00
v 7.95967229e+03 4.59350000e+03 3.18683417e+00
v 7.96342839e+03 4.59350000e+03 2.82154696e+00
v 7.96280375e+03 4.59350000e+03 2.63557625e+00
v 7.96021692e+03 4.59350000e+03 2.24869968e+00
v 7.93816487e+03 4.59350000e+03 2.28508849e+00
v 7.94033359e+03 4.59350000e+03 2.84504497e+00
v 7.93891816e+03 4.59350000e+03 3.50303733e+00
v 7.96419184e+03 4.59350000e+03 3.89881394e+00
v 7.95782100e+03 4.59350000e+03 2.13520185e+00
v 7.95854101e+03 4.59350000e+03 3.43907477e+00
v 7.93869736e+03 4.59350000e+03 3.38504044e+00
v 7.93872859e+03 4.59350000e+03 3.27637540e+00
v 7.96382496e+03 4.59350000e+03 8.10375042e+00
v 7.96366494e+03 4.59350000e+03 7.93365584e+00
v 7.96448479e+03 4.59350000e+03 7.84878336e+00
v 7.96402602e+03 4.59350000e+03 8.08644005e+00
v 7.96701566e+03 4.59350000e+03 8.53045140e+00
v 7.96669853e+03 4.59350000e+03 8.23920365e+00
v 7.96368915e+03 4.59350000e+03 6.98527100e+00
v 7.96557348e+03 4.59350000e+03 8.15976133e+00
v 7.96721564e+03 4.59350000e+03 9.59825103e+00
v 7.96732822e+03 4.59350000e+03 1.05427977e+01
v 7.96741976e+03 4.59350000e+03 1.15455877e+01
v 7.96742282e+03 4.59350000e+03 2.15824260e+01
v 7.95478666e+03 4.59350000e+03 2.07210410e+00
v 7.95946407e+03 4.59350000e+03 3.19117084e+00
v 7.94925809e+03 4.59350000e+03 2.03857929e+00
v 7.95414718e+03 4.59350000e+03 2.07020934e+00
v 7.94877486e+03 4.59350000e+03 2.02457909e+00
v 7.93755459e+03 4.59350000e+03 2.15840054e+00
v 7.93750806e+03 4.59350000e+03 2.14874233e+00
v 7.93725000e+03 4.59350000e+03 2.26297929e+00
v 7.96900000e+03 4.59350000e+03 2.39079179e+01
v 7.95345217e+03 4.62525000e+03 1.40130828e+01
v 7.95341093e+03 4.62525000e+03 1.42352642e+01
v 7.95439363e+03 4.62525000e+03 1.28993931e+01
v 7.95461992e+03 4.62525000e+03 1.26150171e+01
v 7.95354104e+03 4.62525000e+03 8.06117905e+00
v 7.95350025e+03 4.62525000e+03 9.27032718e+00
v 7.95301197e+03 4.62525000e+03 1.41896940e+01
v 7.94926837e+03 4.62525000e+03 1.36900110e+01
v 7.95000762e+03 4.62525000e+03 1.35944555e+01
v 7.94637075e+03 4.62525000e+03 1.41747554e+01
v 7.94133986e+03 4.62525000e+03 1.56997494e+01
v 7.94178860e+03 4.62525000e+03 1.53629190e+01
v 7.94037782e+03 4.62525000e+03 1.59411519e+01
v 7.94209063e+03 4.62525000e+03 1.50669568e+01
v 7.95470355e+03 4.62525000e+03 1.25228565e+01
v 7.95465402e+03 4.62525000e+03 1.25784821e+01
v 7.95239273e+03 4.62525000e+03 1.38201067e+01
v 7.95066784e+03 4.62525000e+03 1.40388079e+01
v 7.95464453e+03 4.62525000e+03 1.24780899e+01
v 7.95352880e+03 4.62525000e+03 4.52851299e+00
v 7.95327551e+03 4.62525000e+03 4.69328064e+00
v 7.96356161e+03 4.62525000e+03 2.48196694e+00
v 7.96264405e+03 4.62525000e+03 2.55466270e+00
v 7.96132404e+03 4.62525000e+03 2.69954672e+00
v 7.96520026e+03 4.62525000e+03 2.56712471e+00
v 7.95987501e+03 4.62525000e+03 2.97638713e+00
v 7.96650028e+03 4.62525000e+03 2.55122446e+00
v 7.95944872e+03 4.62525000e+03 3.01096721e+00
v 7.95296227e+03 4.62525000e+03 4.81993143e+00
v 7.95336714e+03 4.62525000e+03 5.12172300e+00
v 7.95341478e+03 4.62525000e+03 9.74244607e+00
v 7.95397384e+03 4.62525000e+03 1.14226427e+01
v 7.95387128e+03 4.62525000e+03 1.08278665e+01
v 7.95587011e+03 4.62525000e+03 3.06860897e+00
v 7.95417350e+03 4.62525000e+03 3.00136104e+00
v 7.95415377e+03 4.62525000e+03 3.00382188e+00
v 7.94133200e+03 4.62525000e+03 1.57017203e+01
v 7.93755252e+03 4.62525000e+03 1.66601223e+01
v 7.93725000e+03 4.62525000e+03 1.67371041e+01
v 7.96688371e+03 4.62525000e+03 2.55389043e+00
v 7.96836192e+03 4.62525000e+03 2.56416836e+00
v 7.96900000e+03 4.62525000e+03 2.58311804e+00
vt 0.10307875 0.49909031
vt 0.08043506 0.53683567
vt 0.074459396 0.49909937
vt 0.15839222 0.52384019
vt 0.12475106 0.49908239
vt 0.15409142 0.55930072
vt 0.16850534 0.4990716
vt 0.12784094 0.5664326
vt 0.18082906 0.57177222
vt 0.24425402 0.58830243
vt 0.063871883 0.54943997
vt 0.21821573 0.62469143
vt 0.18372639 0.49906743
vt 0.056771033 0.50971472
vt 0.10635623 0.59711373
vt 0.19127676 0.4990648
vt 0.24955648 0.66805774
vt 0.042918134 0.52727956
vt 0.064279981 0.60053015
vt 0.27746302 0.56984925
vt 0.29358009 0.65571523
vt 0.03930641 0.5405913
vt 0.030200101 0.50248086
vt 0.10502575 0.61874539
vt 0.013904637 0.5745303
vt 0.26766875 0.49903965
vt 0.27628779 0.58222711
vt 0.31763688 0.71245921
vt 0.02179586 0.51333392
vt 0.032607656 0.4990983
vt 0.069497131 0.6513288
vt 0.018266872 0.6234951
vt 0.27766064 0.49903637
vt 0.28776491 0.59976429
vt 0.25779706 0.59107864
vt 0.34424275 0.71693903
vt 0.26593107 0.68765223
vt 0.015439509 0.55136812
vt 0.022490069 0.5345754
vt 0.050097305 0.49909472
vt 0.029703235 0.49909961
vt 0.047862299 0.61282587
vt 0.0036878737 0.62349248
vt 0.35209963 0.53827989
vt 0.2697978 0.61012846
vt 0.38314152 0.77850002
vt 0.41369116 0.68867356
vt 0.31456465 0.76118207
vt 0.003658439 0.54272962
vt 0.0036482238 0.51281458
vt 0.047943115 0.63249969
vt 0.0036756315 0.58243418
vt 0.32507187 0.49902022
vt 0.37000048 0.57392526
vt 0.31676602 0.62818354
vt 0.0036694047 0.56138796
vt 0.0036557666 0.53654754
vt 0.0036485393 0.51407313
vt 0.0036481225 0.51213276
vt 0.048470225 0.66802108
vt 0.016699739 0.63260323
vt 0.003674591 0.57813132
vt 0.33388197 0.79495215
vt 0.45399299 0.76353431
vt 0.0036727125 0.57234633
vt 0.0076811817 0.49912298
vt 0.01109417 0.65061641
vt 0.349291 0.80689043
vt 0.49044302 0.68672323
vt 0.43552279 0.86088526
vt 0.39770818 0.6070056
vt 0.0036480976 0.49912292
vt 0.0084080752 0.49912262
vt 0.034654461 0.67773414
vt 0.0036905683 0.6406002
vt 0.49982116 0.74355364
vt 0.46619573 0.62405139
vt 0.4910011 0.82297337
vt 0.3934696 0.58309984
vt 0.41938597 0.5864051
vt 0.017942827 0.49911803
vt 0.026105581 0.69696593
vt 0.00368968 0.63761944
vt 0.0036890227 0.65009761
vt 0.35916644 0.83429372
vt 0.49980852 0.70265764
vt 0.49982828 0.76531476
vt 0.49177825 0.64048302
vt 0.4998439 0.81478006
vt 0.49987042 0.89722621
vt 0.37503088 0.5618934
vt 0.0036963737 0.66901624
vt 0.003690389 0.651824
vt 0.38283738 0.86868358
vt 0.4998039 0.68875623
vt 0.49772754 0.62645024
vt 0.49978811 0.64744818
vt 0.46655491 0.58144379
vt 0.49984688 0.8233512
vt 0.49985236 0.84093833
vt 0.49988374 0.93927521
vt 0.39681408 0.55382955
vt 0.003707879 0.70389342
vt 0.0036920684 0.65562093
vt 0.0036912118 0.65385342
vt 0.40777183 0.90460616
vt 0.49980205 0.68215537
vt 0.48452464 0.59489286
vt 0.49978629 0.64407647
vt 0.45779487 0.56641728
vt 0.49984854 0.82929718
vt 0.45284548 0.96422732
vt 0.40591142 0.55474317
vt 0.0037081733 0.71035987
vt 0.49977475 0.62827575
vt 0.49988568 0.94832343
vt 0.40485933 0.92848331
vt 0.42662868 0.53160155
vt 0.48993146 0.99505675
vt 0.39877421 0.97603035
vt 0.49990132 0.99505329
vt 0.46683449 0.99506432
vt 0.41492715 0.99508202
vt 0.39017665 0.95850253
vt 0.46084338 0.99506634
vt 0.40058956 0.99508584
vt 0.44053042 0.99507272
vt 0.3599239 0.98533303
vt 0.37996328 0.99509078
vt 0.36799809 0.96337861
vt 0.3217845 0.95810151
vt 0.35731983 0.99509484
vt 0.2946724 0.99323916
vt 0.35065877 0.99509656
vt 0.29474238 0.99511403
vt 0.26812908 0.99491704
vt 0.2682333 0.99512339
vt 0.58428311 0.94065952
vt 0.56671071 0.9271965
vt 0.59323061 0.91672248
vt 0.6466282 0.9207409
vt 0.56224483 0.95213777
vt 0.54120749 0.89910716
vt 0.64560616 0.94048023
vt 0.63105011 0.89157403
vt 0.58944046 0.88151944
vt 0.6833477 0.93759382
vt 0.64335454 0.87958413
vt 0.5320642 0.94179696
vt 0.56169176 0.80951899
vt 0.68586254 0.91430414
vt 0.66433567 0.94576776
vt 0.67600924 0.89073586
vt 0.55673665 0.96965462
vt 0.5177148 0.91413599
vt 0.58834195 0.83422261
vt 0.53654319 0.8282935
vt 0.71431679 0.91441572
vt 0.71085703 0.94562125
vt 0.67951167 0.87449324
vt 0.53721756 0.97048312
vt 0.51805055 0.883048
vt 0.51180482 0.93772322
vt 0.58409536 0.82048792
vt 0.53842115 0.78105402
vt 0.71865052 0.87800401
vt 0.7505728 0.93591249
vt 0.68981951 0.96225727
vt 0.64895874 0.80841267
vt 0.50363183 0.96743071
vt 0.50537783 0.94845849
vt 0.5926885 0.80731475
vt 0.51392955 0.83329207
vt 0.60184979 0.77862132
vt 0.52475554 0.80390334
vt 0.74141425 0.91421926
vt 0.75232017 0.94537115
vt 0.66773623 0.9616372
vt 0.7164827 0.96255952
vt 0.6102547 0.81658006
vt 0.68721861 0.83481479
vt 0.50450253 0.83003426
vt 0.52311224 0.82384801
vt 0.51035744 0.77777767
vt 0.74939197 0.82881141
vt 0.76044917 0.91328025
vt 0.7988469 0.94400513
vt 0.71719319 0.827075
vt 0.6717729 0.80893147
vt 0.7580778 0.87777472
vt 0.79468846 0.91701251
vt 0.78382444 0.95763397
vt 0.79536247 0.93726498
vt 0.75119138 0.96306109
vt 0.70341772 0.80475682
vt 0.65434277 0.77945411
vt 0.69175124 0.7984643
vt 0.75387573 0.78848094
vt 0.78145093 0.83338922
vt 0.78657341 0.88866955
vt 0.79577094 0.95995557
vt 0.80683255 0.94449383
vt 0.74682939 0.98193717
vt 0.71460605 0.78829473
vt 0.67968059 0.78181088
vt 0.76558179 0.80079055
vt 0.81256503 0.88260537
vt 0.82323825 0.91942137
vt 0.71731359 0.98072219
vt 0.76538825 0.78089958
vt 0.77983856 0.81032455
vt 0.816791 0.83362895
vt 0.89201814 0.93588424
vt 0.73093438 0.99563837
vt 0.79421604 0.80137867
vt 0.8318693 0.87561905
vt 0.86263204 0.91356808
vt 0.80254281 0.77807003
vt 0.82043183 0.79176092
vt 0.87738472 0.8729924
vt 0.83344686 0.90900749
vt 0.88458216 0.9078548
vt 0.85444033 0.8142215
vt 0.89014995 0.8255738
vt 0.87097061 0.88702929
vt 0.93526757 0.91839045
vt 0.82195479 0.77915323
vt 0.88484871 0.79876721
vt 0.92172104 0.88135165
vt 0.84786111 0.77809328
vt 0.91970903 0.84437698
vt 0.93660569 0.87862122
vt 0.91808689 0.81846213
vt 0.88862336 0.77781123
vt 0.92708123 0.79189783
vt 0.93752193 0.8095665
vt 0.94394565 0.84528458
vt 0.93135482 0.77954781
vt 0.94550151 0.77841896
vt 0.70630533 0.6494928
vt 0.74252999 0.71123648
vt 0.63975096 0.69231474
vt 0.64654428 0.64809728
vt 0.75536865 0.6661256
vt 0.73332745 0.72656679
vt 0.68769598 0.60750365
vt 0.5860008 0.61608934
vt 0.72679824 0.63092673
vt 0.76878989 0.67051727
vt 0.73400038 0.74517822
vt 0.71156621 0.62151432
vt 0.6475895 0.59202129
vt 0.53987116 0.65558988
vt 0.75299025 0.63554633
vt 0.78098732 0.64794457
vt 0.75145692 0.72233832
vt 0.72241282 0.61642754
vt 0.62121403 0.58898783
vt 0.55303502 0.60722792
vt 0.77243656 0.67922235
vt 0.70765936 0.56366241
vt 0.61204535 0.58981979
vt 0.6436727 0.57694769
vt 0.52747178 0.62576818
vt 0.57278937 0.59318793
vt 0.76290852 0.54161435
vt 0.59079456 0.58460021
vt 0.60544682 0.57783449
vt 0.50439399 0.64241904
vt 0.5812189 0.58697772
vt 0.78753763 0.6404686
vt 0.79818571 0.55546725
vt 0.59470612 0.58220643
vt 0.6019839 0.56565797
vt 0.59480661 0.58003736
vt 0.59616852 0.57123506
vt 0.6123389 0.55956531
vt 0.82369679 0.61335742
vt 0.63684452 0.54413044
vt 0.22561327 0.39638937
vt 0.22859122 0.40292633
vt 0.18542849 0.39951491
vt 0.17674564 0.38439298
vt 0.19477938 0.43294746
vt 0.10779431 0.39960241
vt 0.14394432 0.32270777
vt 0.2352462 0.42665404
vt 0.12963054 0.49599826
vt 0.10055925 0.38367915
vt 0.19830444 0.34926301
vt 0.248714 0.39915973
vt 0.24077961 0.49649835
vt 0.086717166 0.39987999
vt 0.088467978 0.43086392
vt 0.25355759 0.38938242
vt 0.16089849 0.32284069
vt 0.088721491 0.30415475
vt 0.065803014 0.39718306
vt 0.052964311 0.44010395
vt 0.25745648 0.39365548
vt 0.15135525 0.31627363
vt 0.037255775 0.37537831
vt 0.10482895 0.29334164
vt 0.27566853 0.40863782
vt 0.068417355 0.40118498
vt 0.025905952 0.49664515
vt 0.14283222 0.31368691
vt 0.021644194 0.31613177
vt 0.12056525 0.29839057
vt 0.079080172 0.29299438
vt 0.31214106 0.4359253
vt 0.26335078 0.39944309
vt 0.049826641 0.39844644
vt 0.024830624 0.47138411
vt 0.2632494 0.39936739
vt 0.003198094 0.34205234
vt 0.052903071 0.29408991
vt 0.2986072 0.46700686
vt 0.026491338 0.40464211
vt 0.017632278 0.48553038
vt 0.026727797 0.4328807
vt 0.012895357 0.39609456
vt 0.030795183 0.29270238
vt 0.31604624 0.43884706
vt 0.28026718 0.4966222
vt 0.015690142 0.4602921
vt 0.018794455 0.41039157
vt 0.014288915 0.43341088
vt 0.0093279015 0.46357048
vt 0.0095174145 0.42581522
vt 0.20437464 0.74297005
vt 0.23399694 0.7247079
vt 0.23948054 0.73374778
vt 0.23851463 0.75001335
vt 0.22734715 0.71605778
vt 0.25500715 0.73963189
vt 0.26464441 0.7698878
vt 0.21892048 0.70902228
vt 0.24048303 0.81376249
vt 0.17931195 0.7536087
vt 0.23724319 0.70258701
vt 0.27574426 0.76005042
vt 0.29462597 0.85145289
vt 0.21412925 0.81249547
vt 0.13418363 0.68738264
vt 0.22183922 0.68000674
vt 0.25733963 0.73193324
vt 0.28453842 0.78436273
vt 0.2274888 0.83433771
vt 0.19848724 0.66951764
vt 0.29080638 0.76081073
vt 0.26478526 0.8717891
vt 0.12836502 0.64232445
vt 0.20723623 0.66328502
vt 0.34625074 0.84309077
vt 0.15248336 0.61302483
vt 0.32560548 0.84937412
vt 0.20506553 0.63315237
vt 0.16903074 0.58187103
vt 0.20870702 0.65671837
vt 0.02419031 0.9430486
vt 0.017627018 0.96411914
vt 0.0077499957 0.96434593
vt 0.010889685 0.94866312
vt 0.048293743 0.94988143
vt 0.011141973 0.94150168
vt 0.04968483 0.95929962
vt 0.046538603 0.94020826
vt 0.011126959 0.9279772
vt 0.0051980605 0.93009561
vt 0.047257476 0.93776089
vt 0.0038366029 0.92797363
vt 0.050367333 0.92702127
vt 0.004095484 0.92517745
vt 0.031332381 0.89415592
vt 0.0046890937 0.91651899
vt 0.050091852 0.92175084
vt 0.013805093 0.87618613
vt 0.052563887 0.89562511
vt 0.024648244 0.84267074
vt 0.0060129287 0.88594884
vt 0.052386086 0.87204826
vt 0.011935812 0.80587626
vt 0.039062187 0.82026958
vt 0.0081370156 0.86044002
vt 0.026671533 0.76854682
vt 0.050936241 0.83786941
vt 0.011001077 0.76404476
vt 0.0078448877 0.82178605
vt 0.050673004 0.79360431
vt 0.050684471 0.81918359
vt 0.0079351086 0.80342364
vt 0.041787814 0.7396853
vt 0.049987148 0.76526153
vt 0.0081512369 0.77679503
vt 0.051019259 0.74956185
vt 0.0065809684 0.76142871
vt 0.052292693 0.73475528
vt 0.0053093405 0.74813509
vt 0.054563221 0.71796507
vt 0.0149611 0.71731591
vt 0.036393031 0.71317446
vt 0.007190343 0.72804302
vt 0.0248034 0.7217319
vt 0.0099770688 0.71741033
vt 0.41764116 0.47846538
vt 0.39652804 0.496746
vt 0.39485404 0.48828179
vt 0.41718253 0.45629936
vt 0.38715181 0.48834455
vt 0.39658099 0.45157373
vt 0.38952389 0.48541969
vt 0.38985386 0.47891212
vt 0.41902894 0.42760533
vt 0.38661936 0.45170218
vt 0.38602352 0.44482535
vt 0.42989343 0.44398677
vt 0.39050442 0.42739463
vt 0.46185952 0.44360393
vt 0.3943755 0.42195082
vt 0.50057089 0.42995095
vt 0.40944397 0.41856956
vt 0.48120928 0.41886288
vt 0.5129742 0.44399786
vt 0.39722469 0.4185847
vt 0.44619694 0.41873306
vt 0.51648343 0.42604655
vt 0.41140193 0.39781171
vt 0.43441996 0.40406185
vt 0.50578797 0.41194719
vt 0.52612841 0.44303322
vt 0.3923147 0.41036904
vt 0.48674306 0.39799267
vt 0.52809554 0.40595508
vt 0.53288639 0.42216396
vt 0.38618821 0.39791441
vt 0.42001075 0.36238885
vt 0.44890106 0.37185198
vt 0.48915815 0.36732179
vt 0.50973541 0.36575586
vt 0.54668719 0.44512397
vt 0.38435742 0.37602335
vt 0.44240168 0.36319059
vt 0.53223276 0.36120105
vt 0.55308586 0.41660482
vt 0.56596762 0.43099499
vt 0.5450865 0.47091872
vt 0.50560731 0.33564591
vt 0.38457781 0.37122416
vt 0.56660467 0.39660579
vt 0.59068036 0.4472568
vt 0.43067345 0.31929725
vt 0.38846591 0.35863858
vt 0.53165632 0.31459904
vt 0.56566495 0.36915153
vt 0.58103728 0.41706532
vt 0.58718699 0.42865497
vt 0.58542788 0.47158617
vt 0.39928991 0.32422966
vt 0.4621883 0.3055594
vt 0.38813221 0.33608681
vt 0.50842184 0.29630661
vt 0.5630675 0.35794121
vt 0.59556526 0.3635481
vt 0.59628189 0.41773111
vt 0.56572402 0.49369705
vt 0.40448028 0.30553246
vt 0.38706854 0.32146436
vt 0.44155496 0.26863039
vt 0.51652396 0.25941396
vt 0.5549807 0.33042747
vt 0.59426922 0.39470398
vt 0.42482552 0.26973957
vt 0.38097087 0.310754
vt 0.47954714 0.28354013
vt 0.5005399 0.26710582
vt 0.53224409 0.25792038
vt 0.56097156 0.29019868
vt 0.5811432 0.31059617
vt 0.40546042 0.27030331
vt 0.37948984 0.30667931
vt 0.46831796 0.26142621
vt 0.37994322 0.27401286
vt 0.38002691 0.27691835
vt 0.55072403 0.26147294
vt 0.56887847 0.25697124
vt 0.59294564 0.25791913
vt 0.78666937 0.44360524
vt 0.77020764 0.46412516
vt 0.78393525 0.43867177
vt 0.79305404 0.46475458
vt 0.74408841 0.46505493
vt 0.79804432 0.4631058
vt 0.78352326 0.43802154
vt 0.79854244 0.466519
vt 0.78292483 0.43703943
vt 0.72561145 0.43220234
vt 0.72232938 0.4666729
vt 0.74967277 0.41730797
vt 0.69620961 0.44790316
vt 0.78363806 0.43657088
vt 0.71868604 0.34962863
vt 0.70170951 0.41137123
vt 0.79174423 0.42317832
vt 0.69911927 0.38012516
vt 0.7448023 0.36925685
vt 0.67824715 0.42052186
vt 0.78887141 0.39642817
vt 0.6973902 0.32880598
vt 0.75143242 0.32521778
vt 0.68106741 0.40162843
vt 0.64975649 0.46877128
vt 0.79298437 0.4147346
vt 0.678563 0.36783469
vt 0.69207609 0.30268598
vt 0.79546964 0.32709599
vt 0.72446024 0.31173533
vt 0.79697901 0.3749795
vt 0.64022571 0.42773592
vt 0.69241351 0.47870034
vt 0.65383857 0.40704578
vt 0.79850233 0.40020239
vt 0.67224097 0.33745414
vt 0.67328101 0.31755853
vt 0.78929335 0.29834121
vt 0.76770675 0.29440814
vt 0.79747015 0.39295667
vt 0.64950573 0.37326276
vt 0.67295271 0.49666053
vt 0.6718359 0.28711009
vt 0.79713196 0.32288498
vt 0.7990846 0.33216578
vt 0.62865621 0.41852915
vt 0.63411355 0.38056529
vt 0.64277577 0.34680355
vt 0.63355672 0.3149147
vt 0.78958201 0.29834926
vt 0.80019248 0.32614118
vt 0.80397749 0.3290301
vt 0.64144552 0.28300285
vt 0.78934366 0.29824871
vt 0.06679029 0.85109782
vt 0.071578793 0.84540302
vt 0.080640331 0.87594718
vt 0.074045449 0.87656885
vt 0.08700978 0.8412146
vt 0.079542093 0.8931917
vt 0.099033199 0.87534422
vt 0.1365637 0.87314439
vt 0.10178914 0.89484853
vt 0.079137437 0.90665793
vt 0.17924537 0.87814873
vt 0.086649552 0.93356222
vt 0.23184474 0.89916414
vt 0.10148911 0.92528677
vt 0.87648213 0.67051792
vt 0.89269918 0.65171409
vt 0.91707391 0.67373425
vt 0.90013111 0.7109549
vt 0.84614092 0.65523428
vt 0.95696485 0.66291875
vt 0.92915422 0.69838369
vt 0.84273839 0.68281537
vt 0.81580675 0.64438319
vt 0.9668988 0.6983273
vt 0.9336412 0.70751905
vt 0.8776961 0.70925885
vt 0.81566232 0.65870547
vt 0.9811464 0.66461289
vt 0.91009742 0.71361804
vt 0.89433098 0.74117947
vt 0.83496892 0.68582273
vt 0.82123607 0.69979441
vt 0.98076648 0.70387566
vt 0.90863168 0.72693282
vt 0.88584512 0.73463511
vt 0.9756766 0.71502703
vt 0.90231937 0.74628305
vt 0.96631342 0.71551108
vt 0.95744389 0.69864571
vt 0.9315958 0.58103597
vt 0.94836503 0.56791031
vt 0.96729594 0.57979405
vt 0.96708119 0.58633626
vt 0.92799085 0.54656392
vt 0.96546489 0.55925518
vt 0.96899104 0.60225976
vt 0.91197675 0.57407165
vt 0.9351235 0.540227
vt 0.96915871 0.61686528
vt 0.89755464 0.58792603
vt 0.90564448 0.54582083
vt 0.96574503 0.55562115
vt 0.93763798 0.61834437
vt 0.879076 0.56249547
vt 0.8906216 0.53818661
vt 0.97059327 0.53736281
vt 0.96814173 0.61983144
vt 0.86705065 0.58302236
vt 0.89868104 0.61807275
vt 0.96392739 0.62052852
vt 0.85229498 0.58055007
vt 0.87332851 0.54004419
vt 0.85096538 0.61967021
vt 0.85521007 0.55759692
vt 0.83021271 0.58285809
vt 0.82159168 0.61936092
vt 0.85371816 0.54106611
vt 0.83760601 0.56802988
vt 0.82578981 0.60753232
vt 0.81952006 0.55363411
vt 0.81755739 0.5594002
vt 0.81723404 0.55484366
vt 0.81701815 0.5531224
vt 0.4041293 0.91855657
vt 0.38858053 0.92602026
vt 0.39831236 0.91175771
vt 0.40382469 0.93129081
vt 0.38761067 0.89830428
vt 0.38698018 0.89777339
vt 0.30127028 0.89808536
vt 0.25418252 0.93324274
vt 0.38435856 0.89252782
vt 0.37464601 0.87677801
vt 0.30775708 0.88412863
vt 0.37703618 0.87743658
vt 0.37523186 0.8757298
vt 0.37555483 0.87639326
vt 0.36044303 0.86643875
vt 0.33557379 0.86043304
vt 0.077586412 0.74696493
vt 0.070032455 0.75034869
vt 0.07041622 0.7469644
vt 0.082956359 0.77336824
vt 0.067274466 0.74696517
vt 0.09459471 0.74695563
vt 0.11217319 0.74694902
vt 0.12819123 0.76172233
vt 0.11712602 0.74694395
vt 0.14815305 0.80551207
vt 0.14815088 0.79927492
vt 0.10538716 0.80601424
vt 0.14421324 0.77596575
vt 0.14815384 0.80756295
vt 0.14814693 0.79078722
vt 0.1317824 0.84648216
vt 0.14814202 0.77906036
vt 0.14815685 0.81605935
vt 0.14816824 0.84904075
vt 0.14817707 0.87132895
vt 0.6569978 0.59954083
vt 0.67144173 0.59841812
vt 0.67058355 0.62035298
vt 0.65756494 0.57987887
vt 0.67716038 0.60969162
vt 0.6709336 0.58153868
vt 0.64393699 0.55793762
vt 0.68122572 0.58115894
vt 0.67738754 0.55114901
vt 0.70034748 0.55460191
vt 0.65825993 0.54385304
vt 0.70890045 0.52148122
vt 0.62984705 0.5076499
vt 0.6714589 0.52110577
vt 0.68749881 0.51240665
vt 0.65126216 0.52732909
vt 0.71158099 0.50201249
vt 0.65180337 0.51441312
vt 0.88046128 0.42380691
vt 0.89546895 0.42619264
vt 0.88498896 0.46030885
vt 0.86000603 0.46229666
vt 0.91772044 0.39490974
vt 0.85741228 0.41934472
vt 0.87314546 0.48334962
vt 0.90784192 0.39928889
vt 0.83366084 0.47180849
vt 0.88167715 0.4017837
vt 0.86372143 0.49078172
vt 0.82477123 0.43915284
vt 0.84989804 0.49603492
vt 0.81732535 0.42862332
vt 0.9008801 0.3781203
vt 0.27381921 0.28699297
vt 0.25977457 0.27464515
vt 0.301249 0.27571827
vt 0.31236273 0.29198033
vt 0.2557708 0.29253823
vt 0.30917341 0.26582778
vt 0.32950681 0.28362799
vt 0.29171461 0.30108809
vt 0.25360715 0.31135404
vt 0.33443853 0.32667398
vt 0.27436692 0.33606142
vt 0.29988533 0.33186406
vt 0.26008365 0.34348667
vt 0.31223512 0.35096478
vt 0.29900691 0.37095362
vt 0.28526035 0.3718124
vt 0.33194378 0.34310818
vt 0.34021258 0.3637833
vt 0.32090524 0.36270857
vt 0.95523942 0.96960592
vt 0.98091048 0.94979382
vt 0.9666394 0.97425646
vt 0.96685988 0.99288648
vt 0.96071261 0.94056511
vt 0.98289603 0.96118468
vt 0.94484794 0.99634349
vt 0.94510621 0.96329749
vt 0.98502409 0.9293437
vt 0.99720591 0.95762372
vt 0.94068301 0.97442597
vt 0.9407289 0.93937743
vt 0.96737373 0.8986702
vt 0.94419247 0.89743966
vt 0.54534388 0.74030399
vt 0.53066748 0.74681365
vt 0.53631151 0.71091068
vt 0.56274813 0.7175709
vt 0.51389378 0.7110486
vt 0.57214206 0.68215907
vt 0.53229666 0.67996526
vt 0.50360155 0.68486488
vt 0.54359537 0.65799725
vt 0.51615834 0.67175877
vt 0.58073747 0.67290747
vt 0.50617039 0.66718566
vt 0.50832033 0.64599383
vt 0.84102958 0.36964434
vt 0.84301537 0.34918451
vt 0.85789448 0.37118167
vt 0.8615908 0.35083145
vt 0.85219687 0.34334534
vt 0.8675276 0.36825335
vt 0.83187145 0.33201015
vt 0.8640216 0.32455927
vt 0.88941747 0.32168257
vt 0.8543548 0.30390877
vt 0.88076079 0.30963987
vt 0.81625593 0.32980525
vt 0.88878196 0.2886489
vt 0.83228439 0.3036173
vt 0.87229502 0.28438669
vt 0.83681989 0.28029847
vt 0.90892124 0.49010575
vt 0.9031961 0.46866399
vt 0.92899191 0.49604666
vt 0.89550447 0.48580039
vt 0.93709236 0.46984863
vt 0.87904698 0.48027992
vt 0.92585254 0.45076936
vt 0.95571518 0.47749454
vt 0.89164186 0.45415556
vt 0.93988103 0.42629647
vt 0.89433199 0.42771405
vt 0.96302688 0.43207246
vt 0.53481251 0.51652843
vt 0.51604861 0.52490222
vt 0.52106273 0.50896788
vt 0.5329048 0.49876767
vt 0.52694696 0.53352845
vt 0.50414377 0.52680171
vt 0.5235756 0.49993396
vt 0.55232126 0.50190395
vt 0.55044383 0.54939711
vt 0.50466675 0.53030121
vt 0.50995916 0.50680512
vt 0.51202571 0.50029302
vt 0.56205052 0.50323915
vt 0.5595845 0.54164755
vt 0.52934474 0.55882263
vt 0.51237345 0.5412432
vt 0.50353307 0.51037824
vt 0.57846224 0.5289591
vt 0.61931467 0.99686289
vt 0.59716618 0.99558121
vt 0.63579184 0.97328693
vt 0.56588423 0.97656155
vt 0.84255183 0.99623632
vt 0.83546913 0.98062009
vt 0.86126226 0.98755997
vt 0.83762652 0.96201575
vt 0.81582034 0.96100253
vt 0.84105331 0.94122922
vt 0.88505334 0.99456263
vt 0.9078384 0.98482871
vt 0.9218002 0.97837049
vt 0.90623266 0.99619544
vt 0.89096826 0.97383642
vt 0.91943127 0.95910895
vt 0.90544581 0.96133614
vt 0.89345926 0.96000963
vt 0.90709728 0.94715893
vt 0.878685 0.94101375
vt 0.89645004 0.9371081
vt 0.67032754 0.98690492
vt 0.67470622 0.99643213
vt 0.66530436 0.99558336
vt 0.66003197 0.9825561
vt 0.67997462 0.97419548
vt 0.66670358 0.96469247
vt 0.68382311 0.98031008
vt 0.65982127 0.9421699
vt 0.69229662 0.96462089
vt 0.16760772 0.87120068
vt 0.17070256 0.86207289
vt 0.18418168 0.85969174
vt 0.16137603 0.85122401
vt 0.19056372 0.81708574
vt 0.159465 0.83421922
vt 0.19257778 0.83456743
vt 0.50491172 0.98515409
vt 0.51833963 0.9959839
vt 0.504493 0.98702741
vt 0.5239796 0.97925895
vt 0.50631481 0.98084527
vt 0.55513167 0.98715359
vt 0.51108986 0.97457212
vt 0.79637128 0.99089348
vt 0.77921915 0.98284197
vt 0.79776949 0.9824239
vt 0.7945438 0.9914754
vt 0.75968015 0.96053183
vt 0.79524189 0.99221796
vt 0.7919867 0.99291623
vt 0.80191606 0.97431612
vt 0.76661515 0.98031533
vt 0.7792328 0.99460512
vt 0.75403571 0.97523963
vt 0.77635652 0.99558151
vt 0.11175442 0.94259286
vt 0.078387298 0.96271771
vt 0.089369632 0.94783109
vt 0.07268168 0.94051278
vt 0.06759394 0.95191318
vt 0.074138202 0.93712199
vt 0.06673909 0.95911163
vt 0.066169098 0.96531802
vt 0.81001967 0.97546524
vt 0.81262213 0.99664795
vt 0.80154699 0.97608477
vt 0.80728376 0.95234728
vt 0.82065934 0.96863896
vt 0.8060202 0.99533641
vt 0.80296916 0.9567942
vt 0.82351333 0.97650003
vt 0.047056861 0.97628391
vt 0.024660068 0.97810078
vt 0.02083366 0.96576011
vt 0.013622219 0.97856772
vt 0.0048628338 0.97175932
vt 0.019266 0.9801144
vt 0.24726522 0.94045681
vt 0.25413352 0.96189725
vt 0.23119532 0.94334292
vt 0.23976266 0.93727958
vt 0.26094231 0.96139205
vt 0.22361743 0.948264
vt 0.24347226 0.93531466
vt 0.26360735 0.96515435
vt 0.1385358 0.95877045
vt 0.13016601 0.97726244
vt 0.12179774 0.97978902
vt 0.12648012 0.96256912
vt 0.11412456 0.95722669
vt 0.12099765 0.94035983
vt 0.13639541 0.94202632
vt 0.65958411 0.99668521
vt 0.65490258 0.98922706
vt 0.66042995 0.95541787
vt 0.64882451 0.99226487
vt 0.64522374 0.97713238
vt 0.18271202 0.95627916
vt 0.17873929 0.97247475
vt 0.14388807 0.96251529
vt 0.15442623 0.98059547
vt 0.94182801 0.94411016
vt 0.93249536 0.9467048
vt 0.92468286 0.92698646
vt 0.93847275 0.92725492
vt 0.92819905 0.9651795
vt 0.91061115 0.94454873
vt 0.92021334 0.95554769
vt 0.75669092 0.99686688
vt 0.75394428 0.98422503
vt 0.77484417 0.9943794
vt 0.73821241 0.98855329
vt 0.31408563 0.93546134
vt 0.31382525 0.96144462
vt 0.30262747 0.96410996
vt 0.29826128 0.93227625
vt 0.2857801 0.95293164
vt 0.28736231 0.93386626
vt 0.6995815 0.99547768
vt 0.69760722 0.97301382
vt 0.70434386 0.98625737
vt 0.69110096 0.96868879
vt 0.70426369 0.96786624
vt 0.99508202 0.97854125
vt 0.98514038 0.99662787
vt 0.97261643 0.98443729
vt 0.99807632 0.99594986
vt 0.19071832 0.95670414
vt 0.20004033 0.96920979
vt 0.19096275 0.97927415
vt 0.20791054 0.95783764
vt 0.20691729 0.97997063
vt 0.21593268 0.9649328
vt 0.62882411 0.98414266
vt 0.65147519 0.98796904
vt 0.63154358 0.99706542
vt 0.55973035 0.9962213
vt 0.55112094 0.97400397
vt 0.56584281 0.97322404
vt 0.5638172 0.99092567
vt 0.56393164 0.9921695
vt 0.56313461 0.99542755
vt 0.1124038 0.97765076
vt 0.11884163 0.98803186
vt 0.11685003 0.99700928
vt 0.81736273 0.98473191
vt 0.83356524 0.98015058
vt 0.82801253 0.99665302
usemtl Tile_+038_+019_L19_000132_0
f 342/361 341/362 501/363
f 330/380 329/384 337/375
f 296/369 342/361 504/366
f 503/854 341/855 551/856
f 341/362 342/361 547/365
f 330/380 339/378 338/383
f 330/380 338/383 340/386
f 329/384 330/380 340/386
f 339/378 296/369 507/376
f 339/378 330/380 337/375
f 337/375 329/384 555/382
f 339/378 337/375 296/369
f 338/383 339/378 509/385
f 336/388 338/383 511/392
f 562/1 297/2 563/3
f 328/18 299/22 327/29
f 324/393 336/388 513/397
f 331/581 311/582 558/583
f 300/39 326/38 441/58
f 304/14 335/23 565/30
f 312/758 316/759 325/760
f 567/820 307/821 568/822
f 327/29 299/22 300/39
f 299/22 328/18 298/11
f 569/761 325/760 570/764
f 324/393 323/404 322/402
f 321/766 317/762 312/758
f 574/768 305/763 575/774
f 314/874 319/875 318/876
f 309/118 320/110 313/113
f 332/591 331/581 334/594
f 437/877 318/876 319/875
f 314/767 316/759 317/762
f 576/770 312/758 577/765
f 309/589 311/582 310/585
f 312/758 313/771 321/766
f 317/762 321/766 437/772
f 325/760 316/759 305/763
f 317/762 319/773 314/767
f 308/6 302/8 297/2
f 297/2 301/4 308/6
f 328/18 304/14 298/11
f 297/832 304/833 303/834
f 327/29 300/39 442/50
f 299/22 326/38 300/39
f 345/25 299/22 298/11
f 297/832 303/834 560/835
f 561/836 304/833 580/838
f 15/588 331/581 332/591
f 559/586 309/589 582/593
f 568/822 314/824 583/827
f 315/592 310/585 15/588
f 328/18 335/23 304/14
f 297/2 298/11 304/14
f 319/773 317/762 437/772
f 314/824 307/821 305/828
f 305/828 316/830 314/824
f 309/589 310/585 315/592
f 313/771 312/758 309/775
f 335/23 328/18 327/29
f 335/913 327/914 579/915
f 587/598 334/594 588/590
f 589/631 333/632 590/633
f 515/640 322/638 516/641
f 588/590 331/581 593/587
f 592/637 334/634 594/636
f 324/393 322/402 591/400
f 340/386 336/388 324/393
f 549/390 340/386 597/394
f 336/388 340/386 338/383
f 340/386 324/393 596/396
f 322/402 323/404 440/401
f 440/401 324/393 514/399
f 546/368 296/369 553/371
f 554/373 337/375 598/377
f 331/581 15/588 310/585
f 331/581 310/585 311/582
f 312/758 317/762 316/759
f 575/831 307/821 600/829
f 307/821 306/823 584/826
f 408/642 334/634 515/640
f 516/641 440/643 517/645
f 440/401 323/404 324/393
f 150/138 429/139 4/140
f 237/406 236/407 224/408
f 286/703 250/704 278/705
f 168/457 209/456 36/465
f 85/651 65/652 89/653
f 87/878 90/879 69/880
f 277/730 278/731 276/732
f 200/910 202/911 292/912
f 200/280 292/281 291/282
f 249/240 253/241 268/242
f 187/322 205/319 46/327
f 198/285 199/289 201/283
f 292/281 293/287 288/284
f 450/615 226/616 451/617
f 234/262 225/247 452/267
f 220/417 211/414 166/419
f 255/556 132/557 245/558
f 277/904 275/905 295/906
f 169/711 229/712 250/704
f 295/906 275/905 273/908
f 254/895 256/896 271/897
f 258/797 287/798 439/799
f 48/329 270/328 264/326
f 198/285 291/282 268/288
f 262/806 259/807 257/808
f 279/713 284/710 286/703
f 268/242 285/253 225/247
f 227/739 265/737 282/736
f 166/542 212/543 222/544
f 161/149 168/171 36/163
f 219/268 206/263 235/258
f 111/257 146/254 231/248
f 216/550 232/554 226/555
f 249/240 268/242 232/243
f 210/411 218/409 224/408
f 238/621 221/624 447/623
f 220/545 222/544 218/547
f 170/434 165/430 2/440
f 189/331 141/332 145/333
f 199/289 198/285 294/293
f 610/488 195/489 611/490
f 199/289 184/286 201/283
f 434/223 421/212 409/219
f 57/179 56/168 159/159
f 5/141 43/144 150/138
f 209/456 168/457 163/446
f 429/139 150/138 148/142
f 232/243 223/246 249/240
f 161/149 149/143 148/142
f 122/669 137/670 138/671
f 213/261 111/257 223/246
f 243/249 242/244 121/255
f 40/423 39/433 165/430
f 244/672 138/671 284/675
f 1/508 10/506 612/518
f 100/684 98/685 99/686
f 438/305 269/294 247/299
f 69/880 90/879 65/883
f 438/885 289/886 294/887
f 289/298 203/302 199/289
f 91/662 70/660 93/659
f 209/456 163/446 47/445
f 90/879 84/884 65/883
f 140/862 139/863 144/864
f 277/706 295/709 286/703
f 279/889 295/890 273/891
f 282/736 283/734 278/731
f 195/848 186/849 196/850
f 82/746 73/747 66/748
f 202/291 293/287 292/281
f 290/661 72/657 173/663
f 200/280 201/283 184/286
f 93/659 290/661 110/664
f 204/313 438/305 247/299
f 193/666 110/664 290/661
f 198/285 269/294 294/293
f 438/885 204/888 289/886
f 289/298 199/289 294/293
f 173/663 193/666 290/661
f 96/755 173/757 72/753
f 269/294 438/305 294/293
f 188/668 193/666 173/663
f 288/284 291/282 292/281
f 72/753 66/748 75/750
f 72/657 290/661 93/659
f 258/797 248/801 287/798
f 69/699 68/694 88/698
f 285/292 202/291 620/304
f 291/282 288/284 268/288
f 449/259 285/253 457/264
f 268/288 269/294 198/285
f 285/292 268/288 288/284
f 285/292 288/284 293/287
f 49/565 287/579 270/580
f 86/787 85/788 89/789
f 138/714 230/707 284/710
f 225/247 235/258 238/252
f 232/243 268/242 225/247
f 250/704 282/708 278/705
f 282/708 250/704 229/712
f 265/737 283/734 282/736
f 282/736 229/741 227/739
f 230/707 138/714 114/715
f 230/707 250/704 286/703
f 286/703 284/710 230/707
f 295/709 279/713 286/703
f 286/703 278/705 277/706
f 244/672 284/675 279/679
f 272/681 244/672 279/679
f 274/909 273/908 275/905
f 266/733 276/732 278/731
f 276/732 266/733 274/735
f 277/904 276/907 275/905
f 283/734 266/733 278/731
f 276/907 274/909 275/905
f 272/892 273/891 274/893
f 272/717 266/718 239/719
f 272/892 274/893 266/894
f 272/892 279/889 273/891
f 254/869 267/870 121/871
f 252/567 241/563 246/559
f 254/869 271/872 267/870
f 261/575 262/578 281/571
f 264/326 280/314 260/320
f 263/306 247/299 268/288
f 257/919 281/920 262/921
f 439/799 251/800 258/797
f 257/576 252/567 281/571
f 252/567 246/559 281/571
f 253/241 263/245 268/242
f 248/801 270/803 287/798
f 260/320 280/314 263/306
f 280/314 247/299 263/306
f 439/577 287/579 49/565
f 251/574 439/577 49/565
f 246/559 261/575 281/571
f 260/570 261/575 246/559
f 246/559 48/562 264/566
f 263/245 253/241 260/250
f 259/807 262/806 261/809
f 144/864 126/865 140/862
f 260/570 246/559 264/566
f 261/809 260/811 259/807
f 260/811 253/810 259/807
f 251/800 46/802 258/797
f 49/565 187/569 251/574
f 257/808 259/807 253/810
f 255/556 246/559 241/563
f 241/563 252/567 256/572
f 131/560 132/557 255/556
f 241/898 256/896 254/895
f 243/249 256/260 252/256
f 252/256 253/241 243/249
f 243/873 267/870 271/872
f 142/840 144/841 128/842
f 280/314 45/321 247/299
f 270/328 48/329 49/330
f 45/321 280/314 264/326
f 270/328 45/321 264/326
f 45/805 270/803 248/801
f 248/801 258/797 46/802
f 247/299 269/294 268/288
f 242/244 243/249 253/241
f 136/674 122/669 244/672
f 256/896 243/899 271/897
f 121/871 267/870 243/873
f 265/737 151/738 266/733
f 239/719 266/718 151/721
f 119/744 118/740 227/739
f 240/720 272/717 239/719
f 283/734 265/737 266/733
f 118/740 151/738 265/737
f 169/447 123/451 228/458
f 231/248 249/240 233/251
f 242/244 253/241 249/240
f 245/558 246/559 255/556
f 205/319 204/313 247/299
f 194/339 197/344 189/331
f 45/805 248/801 46/802
f 247/299 45/321 205/319
f 245/558 48/562 246/559
f 118/740 265/737 227/739
f 241/563 131/560 255/556
f 121/568 131/560 241/563
f 240/720 239/719 117/722
f 231/248 233/251 111/257
f 245/558 197/561 49/565
f 144/841 139/845 128/842
f 151/738 118/740 147/742
f 130/338 133/350 56/346
f 143/336 177/334 145/333
f 251/800 187/804 46/802
f 197/561 187/569 49/565
f 146/254 242/244 231/248
f 233/251 249/240 223/246
f 199/289 203/302 183/297
f 232/554 216/550 223/552
f 216/550 213/549 223/552
f 122/669 138/671 244/672
f 169/711 250/704 230/707
f 228/458 229/466 169/447
f 229/741 228/743 227/739
f 123/170 168/171 161/149
f 226/616 238/621 454/620
f 224/408 236/407 450/410
f 218/547 216/550 237/551
f 218/409 237/406 224/408
f 216/550 226/555 236/553
f 232/622 238/621 226/616
f 238/252 232/243 225/247
f 221/624 238/621 206/625
f 225/247 234/262 235/258
f 234/262 219/268 235/258
f 219/268 234/262 453/273
f 210/411 224/408 462/413
f 206/263 238/252 235/258
f 465/274 219/268 468/276
f 177/334 189/331 145/333
f 125/683 212/676 112/678
f 216/550 214/548 213/549
f 467/627 206/625 469/629
f 211/414 220/417 218/409
f 214/548 216/550 218/547
f 211/414 218/409 210/411
f 222/544 212/543 125/546
f 125/546 214/548 222/544
f 211/414 215/422 42/426
f 214/548 218/547 222/544
f 122/669 112/678 212/676
f 166/542 222/544 220/545
f 213/549 214/548 125/546
f 164/421 166/419 211/414
f 211/414 210/411 471/416
f 40/423 165/430 167/427
f 113/441 114/431 162/435
f 474/92 208/82 475/103
f 40/423 164/421 211/414
f 211/414 42/426 40/423
f 215/422 211/414 473/420
f 200/280 184/286 617/290
f 195/310 196/303 183/297
f 201/283 291/282 198/285
f 619/300 200/280 621/295
f 127/335 141/332 189/331
f 183/297 184/286 199/289
f 173/308 183/297 203/302
f 190/192 179/187 191/201
f 108/202 191/201 179/187
f 174/337 108/348 92/343
f 174/900 191/901 108/902
f 120/564 132/557 131/560
f 129/194 160/177 190/192
f 132/340 189/331 197/344
f 57/341 127/335 130/338
f 245/558 132/557 197/561
f 197/344 194/339 187/349
f 204/313 205/319 203/302
f 203/302 289/298 204/313
f 205/319 187/322 203/302
f 72/753 75/750 96/755
f 92/665 110/664 188/668
f 96/323 185/317 173/308
f 203/302 187/322 188/316
f 187/349 92/343 188/352
f 185/492 38/497 622/496
f 184/286 196/303 624/309
f 196/850 186/849 614/851
f 184/286 183/297 196/303
f 183/297 185/317 195/310
f 611/490 185/492 623/494
f 183/297 173/308 185/317
f 38/497 185/492 96/498
f 622/496 37/499 626/501
f 92/343 194/339 174/337
f 187/349 194/339 92/343
f 188/316 173/308 203/302
f 174/900 190/903 191/901
f 101/191 107/186 192/200
f 104/193 178/167 101/191
f 160/177 178/167 179/187
f 107/186 101/191 178/167
f 104/193 179/187 178/167
f 34/217 176/221 175/216
f 143/336 174/337 177/334
f 189/331 177/334 174/337
f 174/337 194/339 189/331
f 188/668 110/664 193/666
f 174/337 143/336 190/342
f 57/179 159/159 160/177
f 19/462 18/476 182/470
f 120/345 133/350 130/338
f 124/353 115/356 133/350
f 133/350 120/345 124/353
f 109/176 172/158 171/166
f 152/147 158/152 43/144
f 158/360 133/350 43/358
f 133/922 158/923 134/924
f 178/167 160/177 159/159
f 152/147 178/167 159/159
f 189/331 132/340 130/338
f 160/177 129/194 57/179
f 141/866 126/865 144/864
f 158/152 159/159 56/168
f 159/159 158/152 152/147
f 115/725 135/726 148/728
f 147/724 116/723 151/721
f 150/729 115/725 148/728
f 162/435 167/427 170/434
f 162/435 47/445 163/446
f 150/359 43/358 115/356
f 117/722 115/725 124/727
f 212/676 166/673 122/669
f 164/421 137/424 166/419
f 114/431 167/427 162/435
f 167/427 137/424 164/421
f 148/728 135/726 147/724
f 161/149 148/142 147/154
f 113/441 162/435 163/446
f 147/154 119/161 161/149
f 115/356 43/358 133/350
f 114/715 138/714 137/716
f 115/725 116/723 135/726
f 158/152 56/168 134/178
f 133/350 134/354 56/346
f 143/336 129/347 190/342
f 57/179 129/194 128/203
f 189/331 130/338 127/335
f 111/257 213/261 125/266
f 137/670 122/669 166/673
f 137/424 167/427 114/431
f 161/149 119/161 123/170
f 124/278 120/271 112/272
f 113/441 163/446 123/451
f 111/257 120/271 121/255
f 169/447 113/441 123/451
f 123/745 119/744 227/739
f 117/722 116/723 115/725
f 123/745 227/739 228/743
f 169/447 114/431 113/441
f 125/266 112/272 111/257
f 111/257 233/251 223/246
f 242/244 146/254 121/255
f 146/254 111/257 121/255
f 121/568 120/564 131/560
f 132/340 120/345 130/338
f 140/209 57/179 128/203
f 142/840 145/844 144/841
f 145/844 141/847 144/841
f 142/840 128/842 143/843
f 143/843 145/844 142/840
f 68/694 70/696 91/692
f 127/867 126/865 141/866
f 128/842 129/846 143/843
f 140/862 126/865 127/867
f 128/203 139/214 140/209
f 57/868 140/862 127/867
f 239/719 151/721 116/723
f 118/740 119/744 147/742
f 108/348 104/351 92/343
f 179/187 104/193 108/202
f 104/351 98/355 92/343
f 34/217 98/213 102/208
f 104/193 102/208 98/213
f 103/207 102/208 101/191
f 59/689 99/686 98/685
f 97/357 92/343 98/355
f 99/686 95/687 100/684
f 55/500 54/507 64/503
f 55/500 38/497 96/498
f 69/658 71/656 70/660
f 99/686 94/690 95/687
f 55/756 74/752 81/754
f 98/685 100/684 97/688
f 105/691 68/694 100/684
f 402/225 106/220 33/222
f 54/507 55/500 77/512
f 96/755 74/752 55/756
f 100/684 91/692 97/688
f 105/691 95/687 77/693
f 77/693 67/695 105/691
f 80/749 83/751 73/747
f 83/701 79/700 77/693
f 88/793 78/792 87/790
f 73/747 81/754 74/752
f 105/691 67/695 68/694
f 91/692 100/684 68/694
f 92/665 91/662 93/659
f 93/659 110/664 92/665
f 65/652 84/655 89/653
f 90/879 87/878 89/882
f 84/884 90/879 89/882
f 66/791 85/788 86/787
f 87/790 78/792 86/787
f 86/787 78/792 66/791
f 65/652 85/651 66/654
f 65/652 71/656 69/658
f 83/751 81/754 73/747
f 78/792 82/794 66/791
f 69/880 88/881 87/878
f 67/695 76/697 88/698
f 76/795 80/796 82/794
f 73/747 82/746 80/749
f 76/697 79/700 80/702
f 79/700 83/701 80/702
f 82/794 78/792 76/795
f 88/793 76/795 78/792
f 77/693 79/700 76/697
f 67/695 77/693 76/697
f 81/520 83/529 77/512
f 74/752 75/750 73/747
f 75/750 66/748 73/747
f 72/657 71/656 66/654
f 70/696 68/694 69/699
f 71/656 72/657 93/659
f 93/659 70/660 71/656
f 68/694 67/695 88/698
f 64/503 63/511 62/505
f 60/521 59/533 61/534
f 95/687 105/691 100/684
f 364/210 365/218 433/215
f 181/17 21/12 348/10
f 12/117 363/106 360/112
f 50/47 32/64 388/46
f 397/85 410/68 376/70
f 352/473 14/467 208/480
f 237/551 216/550 236/553
f 136/674 244/672 240/677
f 147/724 135/726 116/723
f 39/433 217/438 418/439
f 417/463 343/471 389/479
f 392/605 400/608 384/603
f 385/80 30/77 50/47
f 369/780 398/781 370/782
f 8/509 399/515 9/502
f 364/48 28/28 388/46
f 365/218 410/227 409/219
f 382/204 379/205 412/198
f 52/460 358/452 353/469
f 353/469 53/475 52/460
f 365/63 388/46 410/68
f 523/89 32/64 524/87
f 11/516 7/510 20/525
f 344/454 343/471 417/463
f 26/599 332/591 408/600
f 66/654 71/656 65/652
f 179/187 190/192 160/177
f 38/497 64/503 62/505
f 106/220 404/224 403/229
f 50/47 51/71 385/80
f 32/64 50/47 31/69
f 390/124 359/120 25/128
f 359/120 360/112 629/123
f 314/44 318/54 24/20
f 22/172 395/164 157/150
f 350/165 349/175 308/184
f 409/219 397/230 396/228
f 153/180 394/156 22/172
f 157/150 395/164 394/156
f 6/131 399/130 25/128
f 527/101 376/70 528/90
f 12/117 359/120 390/124
f 362/94 376/70 363/106
f 396/228 362/234 13/235
f 434/223 409/219 396/228
f 387/783 398/781 23/784
f 364/210 412/198 379/205
f 379/37 181/17 28/28
f 28/28 373/21 27/36
f 31/69 50/47 30/77
f 388/46 376/70 410/68
f 302/486 308/487 389/479
f 373/21 28/28 181/17
f 50/47 27/36 373/21
f 398/781 387/783 370/782
f 392/605 384/603 16/595
f 378/602 392/605 16/595
f 374/536 12/540 390/530
f 378/602 26/599 377/604
f 376/70 388/46 32/64
f 32/64 386/78 376/70
f 31/69 391/88 531/97
f 530/109 29/96 535/115
f 320/110 385/80 313/113
f 384/98 400/108 30/77
f 599/33 24/20 602/26
f 373/785 387/783 23/784
f 382/204 432/195 383/197
f 388/46 27/36 50/47
f 376/70 362/94 397/85
f 28/28 27/36 388/46
f 23/55 24/20 318/54
f 388/46 365/63 364/48
f 50/47 23/55 318/54
f 379/37 28/28 364/48
f 360/112 359/120 12/117
f 528/90 386/78 536/100
f 25/128 359/120 631/129
f 373/785 348/786 370/782
f 371/27 370/45 372/35
f 298/11 355/19 345/25
f 21/174 22/172 157/150
f 355/19 354/42 346/32
f 355/19 346/32 345/25
f 347/15 182/24 355/19
f 345/25 346/32 478/43
f 355/19 298/11 347/15
f 350/9 301/4 21/12
f 19/462 182/470 344/454
f 182/470 18/476 351/482
f 355/19 182/24 351/31
f 348/10 301/4 572/7
f 601/16 348/10 603/13
f 302/486 357/485 347/477
f 347/477 344/454 182/470
f 348/10 372/35 370/45
f 350/9 308/6 301/4
f 52/460 406/448 358/452
f 352/473 358/452 14/467
f 344/454 406/448 19/462
f 19/462 406/448 52/460
f 353/469 351/482 53/475
f 351/31 419/51 354/42
f 347/477 357/485 356/478
f 344/454 347/477 356/478
f 389/479 356/478 302/486
f 389/182 366/183 367/173
f 356/478 343/471 344/454
f 367/173 366/183 413/157
f 389/479 343/471 356/478
f 367/173 413/157 423/162
f 149/143 423/162 413/157
f 349/175 350/165 413/157
f 394/156 153/180 154/169
f 180/151 172/158 152/147
f 394/156 395/164 22/172
f 26/599 16/595 332/591
f 392/605 378/602 538/606
f 16/595 15/588 332/591
f 29/611 392/605 540/609
f 15/588 16/595 315/592
f 393/79 318/54 437/91
f 24/20 369/34 371/27
f 387/783 373/785 370/782
f 379/205 380/189 181/196
f 154/169 153/180 22/172
f 21/174 181/196 154/169
f 157/150 413/157 350/165
f 356/478 357/485 302/486
f 349/175 366/183 389/182
f 308/184 349/175 389/182
f 393/79 321/102 385/80
f 413/157 366/183 349/175
f 351/31 353/60 419/51
f 351/482 18/476 53/475
f 398/776 369/777 23/778
f 24/779 23/778 369/777
f 393/79 51/71 318/54
f 433/215 435/211 431/206
f 400/608 392/605 29/611
f 385/80 51/71 393/79
f 320/596 309/589 315/592
f 437/91 321/102 393/79
f 384/603 320/596 16/595
f 320/110 384/98 385/80
f 30/77 400/108 29/96
f 313/113 385/80 321/102
f 24/20 371/27 348/10
f 372/35 348/10 371/27
f 379/205 382/204 383/197
f 353/60 207/67 419/51
f 354/42 355/19 351/31
f 354/42 419/51 401/61
f 302/8 347/15 298/11
f 486/813 401/814 490/815
f 345/25 326/38 299/22
f 401/814 346/816 354/818
f 207/67 401/61 419/51
f 353/60 352/74 207/67
f 352/74 208/82 207/67
f 380/189 379/205 383/197
f 397/230 362/234 396/228
f 376/70 360/112 363/106
f 363/238 13/235 362/234
f 375/535 374/536 436/524
f 397/230 409/219 410/227
f 17/526 20/525 7/510
f 380/189 381/181 154/169
f 382/204 412/198 426/188
f 431/206 412/198 364/210
f 25/128 399/130 390/124
f 375/237 428/231 374/236
f 434/223 396/228 404/224
f 409/219 433/215 365/218
f 13/235 363/238 12/239
f 390/530 436/524 374/536
f 428/231 420/233 374/236
f 8/509 361/523 436/524
f 405/528 427/514 63/511
f 420/233 428/231 404/224
f 420/233 404/224 396/228
f 13/235 374/236 420/233
f 10/506 9/502 7/510
f 412/198 411/185 426/188
f 434/223 404/224 421/212
f 421/212 422/199 433/215
f 422/199 435/211 433/215
f 44/153 407/148 368/160
f 383/197 432/195 381/181
f 431/206 411/185 412/198
f 103/207 192/200 425/190
f 411/185 431/206 422/199
f 14/467 415/459 493/474
f 358/452 406/448 416/437
f 406/448 2/440 418/439
f 165/430 170/434 167/427
f 418/439 217/438 430/443
f 430/443 416/437 406/448
f 2/440 406/448 3/444
f 495/468 416/437 496/461
f 41/429 42/426 215/422
f 58/428 215/422 476/425
f 41/429 430/443 217/438
f 58/428 41/429 215/422
f 47/445 162/435 170/434
f 418/439 2/440 165/430
f 165/430 39/433 418/439
f 217/438 39/433 41/429
f 416/437 430/443 41/429
f 416/437 58/428 497/442
f 413/157 157/150 149/143
f 394/156 156/146 157/150
f 156/146 149/143 157/150
f 423/162 389/182 367/173
f 35/450 414/455 423/464
f 102/208 176/221 34/217
f 378/602 377/604 525/607
f 377/646 408/642 520/644
f 377/604 26/599 408/600
f 334/594 408/600 332/591
f 149/143 4/140 429/139
f 149/143 429/139 148/142
f 35/450 424/472 36/465
f 35/450 209/456 47/445
f 161/149 36/163 424/155
f 423/162 149/143 424/155
f 423/464 417/463 389/479
f 156/146 4/140 149/143
f 170/434 3/444 35/450
f 3/444 414/455 35/450
f 3/444 344/454 417/463
f 414/455 417/463 423/464
f 94/690 99/686 59/689
f 59/226 403/229 61/232
f 405/528 60/521 61/534
f 33/222 34/217 402/225
f 375/535 405/528 61/534
f 175/216 402/225 34/217
f 102/208 103/207 175/216
f 101/191 192/200 103/207
f 175/216 176/221 102/208
f 425/190 192/200 107/186
f 407/148 155/145 156/146
f 156/146 155/145 4/140
f 44/153 180/151 5/141
f 5/141 155/145 407/148
f 109/176 107/186 178/167
f 425/190 107/186 109/176
f 152/147 5/141 180/151
f 150/138 4/140 5/141
f 172/158 109/176 178/167
f 172/158 178/167 152/147
f 94/519 59/533 60/521
f 38/497 55/500 64/503
f 63/511 54/507 60/521
f 62/505 427/514 8/509
f 62/505 63/511 427/514
f 37/499 10/506 1/508
f 428/231 375/237 61/232
f 60/521 405/528 63/511
f 62/505 9/502 38/497
f 361/523 427/514 405/528
f 9/502 37/499 38/497
f 361/523 8/509 427/514
f 171/166 368/160 381/181
f 9/502 10/506 37/499
f 404/224 428/231 403/229
f 33/222 106/220 403/229
f 421/212 106/220 175/216
f 404/224 106/220 421/212
f 103/207 425/190 422/199
f 407/148 154/169 368/160
f 180/151 44/153 171/166
f 44/153 368/160 171/166
f 171/166 381/181 426/188
f 612/518 11/516 637/532
f 154/169 381/181 368/160
f 156/146 394/156 407/148
f 411/185 109/176 171/166
f 426/188 411/185 171/166
f 425/190 109/176 411/185
f 175/216 103/207 421/212
f 61/232 403/229 428/231
f 405/528 375/535 361/523
f 8/509 9/502 62/505
f 98/213 33/222 59/226
f 242/244 249/240 231/248
f 48/562 245/558 49/565
f 358/452 352/473 353/469
f 170/434 35/450 47/445
f 114/715 169/711 230/707
f 164/421 40/423 167/427
f 202/291 285/292 293/287
f 152/147 43/144 5/141
f 56/346 57/341 130/338
f 75/750 74/752 96/755
f 291/282 201/283 200/280
f 240/677 244/672 272/681
f 252/812 257/808 253/810
f 205/319 45/321 46/327
f 254/573 121/568 241/563
f 240/677 117/680 136/674
f 40/423 42/426 41/429
f 136/674 112/678 122/669
f 639/504 1/508 640/513
f 421/212 103/207 422/199
f 41/429 39/433 40/423
f 136/674 124/682 112/678
f 120/271 111/257 112/272
f 117/680 124/682 136/674
f 163/446 168/457 123/451
f 239/719 116/723 117/722
f 77/512 94/519 54/507
f 33/222 98/213 34/217
f 94/690 77/693 95/687
f 55/500 81/520 77/512
f 92/665 97/667 91/662
f 86/787 89/789 87/790
f 431/206 435/211 422/199
f 297/2 302/8 298/11
f 443/49 345/25 483/56
f 432/195 382/204 426/188
f 406/448 344/454 3/444
f 423/464 424/472 35/450
f 417/463 414/455 3/444
f 436/524 399/515 8/509
f 402/225 175/216 106/220
f 30/77 391/88 31/69
f 30/77 385/80 384/98
f 29/96 391/88 30/77
f 17/133 25/128 635/134
f 532/76 31/69 545/86
f 154/169 181/196 380/189
f 20/136 17/133 641/135
f 51/71 50/47 318/54
f 25/128 17/133 6/131
f 420/233 396/228 13/235
f 16/595 26/599 378/602
f 373/21 23/55 50/47
f 21/174 154/169 22/172
f 370/45 371/27 369/34
f 348/10 21/12 301/4
f 358/452 416/437 415/459
f 401/61 207/67 487/75
f 52/460 53/475 19/462
f 53/475 18/476 19/462
f 154/169 407/148 394/156
f 373/21 181/17 348/10
f 21/174 157/150 350/165
f 320/596 315/592 16/595
f 492/483 14/467 500/484
f 361/523 375/535 436/524
f 374/236 13/235 12/239
f 364/210 433/215 431/206
f 7/510 6/517 17/526
f 627/531 20/525 643/537
f 390/530 399/515 436/524
f 7/510 11/516 10/506
f 409/219 421/212 433/215
f 381/181 380/189 383/197
f 432/195 426/188 381/181
f 399/515 6/517 9/502
f 9/502 6/517 7/510
f 358/452 415/459 14/467
f 209/456 35/450 36/465
f 430/443 406/448 418/439
f 2/440 3/444 170/434
f 155/145 5/141 4/140
f 41/429 58/428 416/437
f 5/141 407/148 44/153
f 149/143 161/149 424/155
f 33/222 403/229 59/226
f 172/158 180/151 171/166
f 104/193 101/191 102/208
f 63/511 64/503 54/507
f 54/507 94/519 60/521
f 411/185 422/199 425/190
f 441/58 326/38 444/57
f 442/50 300/39 441/58
f 443/49 326/38 345/25
f 444/57 326/38 443/49
f 445/59 327/29 442/50
f 605/66 445/59 606/72
f 446/626 221/624 466/628
f 447/623 221/624 446/626
f 448/265 225/247 449/259
f 449/259 225/247 285/253
f 450/615 236/618 226/616
f 451/617 226/616 458/619
f 452/267 225/247 461/270
f 453/273 234/262 452/267
f 454/620 238/621 447/623
f 455/318 285/292 645/311
f 456/325 285/292 455/318
f 457/264 285/253 456/269
f 458/619 226/616 454/620
f 459/412 224/408 450/410
f 460/275 219/268 453/273
f 461/270 225/247 448/265
f 462/413 224/408 459/412
f 463/415 210/411 462/413
f 464/277 206/263 465/274
f 465/274 206/263 219/268
f 466/628 221/624 467/627
f 467/627 221/624 206/625
f 468/276 219/268 460/275
f 469/629 206/625 470/630
f 470/279 206/263 464/277
f 471/416 210/411 463/415
f 472/418 211/414 471/416
f 473/420 211/414 472/418
f 474/92 207/67 208/82
f 475/103 208/82 492/114
f 476/425 215/422 473/420
f 477/817 346/816 486/813
f 478/819 346/816 477/817
f 479/93 207/67 489/105
f 480/84 207/67 479/93
f 481/436 58/428 482/432
f 482/432 58/428 476/425
f 483/56 345/25 484/65
f 484/65 345/25 485/62
f 485/62 345/25 488/52
f 486/813 346/816 401/814
f 487/75 207/67 480/84
f 488/52 345/25 478/43
f 489/105 207/67 491/104
f 490/83 401/61 487/75
f 491/104 207/67 474/92
f 492/483 208/480 14/467
f 493/474 415/459 495/468
f 494/481 14/467 493/474
f 495/468 415/459 416/437
f 496/461 416/437 499/453
f 497/442 58/428 481/436
f 498/449 416/437 497/442
f 499/453 416/437 498/449
f 500/484 14/467 494/481
f 501/861 341/855 506/858
f 502/364 342/361 501/363
f 504/366 342/361 502/364
f 505/370 296/369 504/366
f 506/858 341/855 503/854
f 507/376 296/369 521/374
f 508/381 339/378 507/376
f 509/385 339/378 508/381
f 510/389 338/383 509/385
f 511/392 338/383 510/389
f 512/395 336/388 511/392
f 513/397 336/388 512/395
f 514/399 324/393 513/397
f 515/640 334/634 322/638
f 516/641 322/638 440/643
f 517/645 440/643 518/647
f 518/405 440/401 519/403
f 519/403 440/401 514/399
f 520/644 408/642 515/640
f 521/374 296/369 522/372
f 522/372 296/369 505/370
f 523/89 386/78 32/64
f 524/87 32/64 532/76
f 525/650 377/646 526/649
f 526/649 377/646 542/648
f 527/101 360/112 376/70
f 528/90 376/70 386/78
f 529/116 360/112 527/101
f 530/109 391/88 29/96
f 531/97 391/88 530/109
f 532/76 32/64 31/69
f 533/99 386/78 523/89
f 534/107 31/69 531/97
f 535/614 29/611 543/613
f 536/100 386/78 537/111
f 537/111 386/78 533/99
f 648/119 529/116 649/121
f 538/606 378/602 539/610
f 539/610 378/602 525/607
f 540/609 392/605 538/606
f 541/612 29/611 540/609
f 542/648 377/646 520/644
f 543/613 29/611 541/612
f 544/95 31/69 534/107
f 545/86 31/69 544/95
f 546/368 342/361 296/369
f 547/365 342/361 546/368
f 548/391 329/384 549/390
f 549/390 329/384 340/386
f 550/367 341/362 547/365
f 551/856 341/855 550/859
f 552/857 503/854 551/856
f 553/371 296/369 554/373
f 554/373 296/369 337/375
f 555/382 329/384 556/387
f 556/387 329/384 548/391
f 557/379 337/375 555/382
f 558/583 311/582 559/586
f 559/586 311/582 309/589
f 560/835 303/834 561/836
f 561/836 303/834 304/833
f 562/1 301/4 297/2
f 563/837 297/832 560/835
f 564/584 331/581 558/583
f 565/30 335/23 581/41
f 566/40 304/14 565/30
f 567/820 306/823 307/821
f 568/822 307/821 314/824
f 569/761 312/758 325/760
f 570/764 325/760 578/769
f 571/825 306/823 567/820
f 572/7 301/4 573/5
f 573/5 301/4 562/1
f 574/768 325/760 305/763
f 575/831 305/828 307/821
f 576/770 309/775 312/758
f 577/765 312/758 569/761
f 578/769 325/760 574/768
f 579/81 327/29 604/73
f 580/838 304/833 566/839
f 581/918 335/913 585/917
f 582/593 309/589 576/597
f 583/53 314/44 599/33
f 584/826 306/823 571/825
f 585/917 335/913 586/916
f 586/916 335/913 579/915
f 587/598 333/601 334/594
f 588/590 334/594 331/581
f 589/631 334/634 333/632
f 590/633 333/632 587/635
f 591/639 322/638 592/637
f 592/637 322/638 334/634
f 593/587 331/581 564/584
f 594/636 334/634 589/631
f 595/398 324/393 591/400
f 596/396 324/393 595/398
f 597/394 340/386 596/396
f 598/377 337/375 557/379
f 599/33 314/44 24/20
f 600/829 307/821 584/826
f 601/16 24/20 348/10
f 602/26 24/20 601/16
f 603/13 348/10 572/7
f 604/73 327/29 605/66
f 605/66 327/29 445/59
f 607/860 503/854 552/857
f 608/493 186/491 610/488
f 609/495 186/491 608/493
f 610/488 186/491 195/489
f 611/490 195/489 185/492
f 612/518 10/506 11/516
f 613/527 1/508 612/518
f 614/851 186/849 609/853
f 615/296 184/286 616/301
f 616/301 184/286 625/307
f 617/290 184/286 615/296
f 618/315 202/291 619/300
f 619/300 202/291 200/280
f 620/304 202/291 644/312
f 621/295 200/280 617/290
f 622/496 38/497 37/499
f 623/494 185/492 622/496
f 624/852 196/850 614/851
f 625/307 184/286 624/309
f 626/501 37/499 639/504
f 627/531 11/516 20/525
f 628/538 11/516 627/531
f 629/123 360/112 632/127
f 630/126 359/120 629/123
f 631/129 359/120 630/126
f 632/127 360/112 634/125
f 633/132 25/128 631/129
f 634/125 360/112 647/122
f 635/134 25/128 633/132
f 636/539 11/516 628/538
f 637/532 11/516 636/539
f 638/522 1/508 613/527
f 639/504 37/499 1/508
f 640/513 1/508 638/522
f 641/135 17/133 635/134
f 642/137 20/136 641/135
f 643/537 20/525 642/541
f 644/312 202/291 618/315
f 645/311 285/292 620/304
f 646/324 455/318 645/311
f 647/122 360/112 648/119
f 648/119 360/112 529/116
usemtl Tile_+038_+019_L19_000132_untextured
