mtllib Tile_+032_+022_L19_000112.mtl
v 6.45499632e+03 5.31199106e+03 3.22171546e+00
v 6.46535601e+03 5.31116687e+03 3.26944804e+00
v 6.45909255e+03 5.31265550e+03 3.10329812e+00
v 6.45869670e+03 5.31076885e+03 3.22818793e+00
v 6.46832027e+03 5.30973714e+03 3.13070277e+00
v 6.46379037e+03 5.30800810e+03 3.24653122e+00
v 6.44765707e+03 5.31050934e+03 3.41738932e+00
v 6.46022730e+03 5.31140933e+03 3.41092514e+00
v 6.43868164e+03 5.31254514e+03 4.01869881e+00
v 6.44348750e+03 5.31141931e+03 3.47371382e+00
v 6.44143255e+03 5.31073455e+03 3.87723049e+00
v 6.45374383e+03 5.30854553e+03 3.34128660e+00
v 6.46092017e+03 5.31032620e+03 3.59241924e+00
v 6.46046348e+03 5.31087603e+03 7.36087451e+00
v 6.46038632e+03 5.31091005e+03 6.01226615e+00
v 6.45869020e+03 5.30968676e+03 7.01876345e+00
v 6.45991324e+03 5.31031667e+03 7.82755042e+00
v 6.46698074e+03 5.29432995e+03 1.46362328e+01
v 6.46717201e+03 5.29529271e+03 1.45576985e+01
v 6.46759821e+03 5.29722937e+03 5.89351798e+00
v 6.46847936e+03 5.29728354e+03 4.10233367e+00
v 6.46154296e+03 5.29195267e+03 2.40803876e+01
v 6.46485852e+03 5.29639383e+03 2.23260741e+01
v 6.46076831e+03 5.28935853e+03 2.31084090e+01
v 6.46153101e+03 5.28971383e+03 2.20023174e+01
v 6.46397762e+03 5.29305280e+03 2.09733184e+01
v 6.46551817e+03 5.29398480e+03 1.89723958e+01
v 6.46747665e+03 5.29625801e+03 1.93307549e+01
v 6.46788675e+03 5.29796439e+03 1.90873112e+01
v 6.46750756e+03 5.30132425e+03 1.93807934e+01
v 6.46567078e+03 5.29846699e+03 2.20910254e+01
v 6.46711902e+03 5.30014063e+03 1.98369691e+01
v 6.46547946e+03 5.29880026e+03 2.33375661e+01
v 6.45722523e+03 5.28586423e+03 1.55713363e+01
v 6.45963737e+03 5.28826751e+03 1.52868461e+01
v 6.46389197e+03 5.29362769e+03 1.74324826e+01
v 6.46599331e+03 5.29588359e+03 1.73727985e+01
v 6.46168368e+03 5.29171110e+03 1.78941482e+01
v 6.45941152e+03 5.28911360e+03 1.76180110e+01
v 6.46534756e+03 5.29520321e+03 1.83895822e+01
v 6.46728214e+03 5.29949072e+03 1.82263338e+01
v 6.46737439e+03 5.29964251e+03 1.48903943e+01
v 6.46774404e+03 5.30108142e+03 1.42182653e+01
v 6.46568065e+03 5.29356034e+03 1.41025781e+01
v 6.46878586e+03 5.30184007e+03 1.05523155e+01
v 6.46400451e+03 5.29512390e+03 1.20400174e+01
v 6.46242946e+03 5.29168725e+03 1.08211807e+01
v 6.46387515e+03 5.29335929e+03 1.09108696e+01
v 6.46725743e+03 5.29658518e+03 1.35427784e+01
v 6.46389003e+03 5.29561261e+03 1.35119187e+01
v 6.46478867e+03 5.29312545e+03 1.32300292e+01
v 6.46655605e+03 5.29516671e+03 1.36163374e+01
v 6.46551025e+03 5.29718505e+03 1.03850220e+01
v 6.46568386e+03 5.29575230e+03 5.21953422e+00
v 6.45721599e+03 5.28890524e+03 8.28213577e+00
v 6.45776288e+03 5.28671080e+03 4.06127956e+00
v 6.46784634e+03 5.30007970e+03 8.74003782e+00
v 6.46850595e+03 5.29935234e+03 7.87196182e+00
v 6.46840094e+03 5.30035551e+03 7.73051608e+00
v 6.46840877e+03 5.30227152e+03 1.30525912e+01
v 6.46817895e+03 5.30121872e+03 7.50642854e+00
v 6.46765612e+03 5.30101511e+03 1.22648598e+01
v 6.45659517e+03 5.30524455e+03 7.13159969e+00
v 6.45803515e+03 5.30617101e+03 7.60763809e+00
v 6.46764318e+03 5.29655939e+03 1.39919222e+01
v 6.46622259e+03 5.29693825e+03 1.82262485e+01
v 6.46724083e+03 5.29794596e+03 1.57809516e+01
v 6.46366101e+03 5.29217211e+03 1.59561889e+01
v 6.45961100e+03 5.28810804e+03 1.27186679e+01
v 6.45836207e+03 5.29639866e+03 2.95456302e+00
v 6.45534532e+03 5.30260855e+03 3.48499391e+00
v 6.45724627e+03 5.30390165e+03 3.99066509e+00
v 6.45724593e+03 5.30472642e+03 5.19789736e+00
v 6.46881589e+03 5.29797568e+03 3.45522049e+00
v 6.46781246e+03 5.30061308e+03 3.13551812e+00
v 6.45761217e+03 5.28644736e+03 2.48236188e+01
v 6.45965321e+03 5.29172253e+03 2.69550067e+01
v 6.45925722e+03 5.29260113e+03 3.15813274e+00
v 6.46190348e+03 5.30589690e+03 4.24622178e+00
v 6.46266373e+03 5.30739140e+03 4.91668361e+00
v 6.45333328e+03 5.30595275e+03 3.43381421e+00
v 6.45252523e+03 5.30706817e+03 3.80661532e+00
v 6.46376933e+03 5.29341461e+03 3.02397743e+00
v 6.46747164e+03 5.29665599e+03 3.22830732e+00
v 6.46088610e+03 5.30985481e+03 4.83174072e+00
v 6.46036358e+03 5.30521130e+03 5.02262799e+00
v 6.46459537e+03 5.29478264e+03 4.62885609e+00
v 6.46117081e+03 5.29015339e+03 2.92956889e+00
v 6.46055961e+03 5.28950846e+03 4.37378128e+00
v 6.46327842e+03 5.29270817e+03 5.89014690e+00
v 6.46044811e+03 5.28909540e+03 6.31039975e+00
v 6.45939576e+03 5.28867806e+03 5.41167801e+00
v 6.45818288e+03 5.28809860e+03 5.55628180e+00
v 6.45850981e+03 5.30962049e+03 5.50919039e+00
v 6.45282069e+03 5.30833901e+03 5.89751478e+00
v 6.45394070e+03 5.30845115e+03 4.93463102e+00
v 6.45892329e+03 5.30950655e+03 4.33660694e+00
v 6.45393139e+03 5.30553327e+03 4.66580510e+00
v 6.45501028e+03 5.30483620e+03 4.68847330e+00
v 6.45832322e+03 5.30557176e+03 7.30751950e+00
v 6.45853131e+03 5.29016083e+03 8.00970176e+00
v 6.45779451e+03 5.30903637e+03 5.95132368e+00
v 6.46680113e+03 5.29770878e+03 8.13581842e+00
v 6.46440559e+03 5.29483300e+03 7.09185630e+00
v 6.45984934e+03 5.28840007e+03 3.04900721e+00
v 6.45390144e+03 5.30647889e+03 4.07348844e+00
v 6.45418565e+03 5.30708314e+03 4.09895931e+00
v 6.46803585e+03 5.30172244e+03 9.63835055e+00
v 6.46322128e+03 5.30581238e+03 3.43761048e+00
v 6.45736450e+03 5.30819934e+03 5.99522815e+00
v 6.45855564e+03 5.30750740e+03 7.60610762e+00
v 6.46276528e+03 5.29145574e+03 1.32521962e+01
v 6.46395521e+03 5.29263896e+03 1.34376465e+01
v 6.46855399e+03 5.29825374e+03 7.14046595e+00
v 6.46510614e+03 5.29739044e+03 1.38165358e+01
v 6.43797624e+03 5.28311553e+03 3.66833498e+00
v 6.45346256e+03 5.28589678e+03 4.26925623e+00
v 6.45231278e+03 5.28662548e+03 4.13855255e+00
v 6.45506258e+03 5.28491899e+03 4.61513839e+00
v 6.45441732e+03 5.28473509e+03 3.85112309e+00
v 6.45279250e+03 5.28445348e+03 3.58445998e+00
v 6.44843964e+03 5.28730056e+03 3.17975928e+00
v 6.45070986e+03 5.28638622e+03 3.18024518e+00
v 6.45466747e+03 5.28116960e+03 9.50687696e+00
v 6.44898628e+03 5.28538181e+03 3.42181885e+00
v 6.44866514e+03 5.28140281e+03 3.44051816e+00
v 6.45139757e+03 5.28417872e+03 3.13483706e+00
v 6.45197407e+03 5.28248376e+03 3.74182718e+00
v 6.45507099e+03 5.28178888e+03 6.79260835e+00
v 6.45462579e+03 5.28289202e+03 7.93315539e+00
v 6.45464069e+03 5.28390002e+03 4.79330905e+00
v 6.45469557e+03 5.28117244e+03 4.67786900e+00
v 6.45563119e+03 5.28619751e+03 3.28488779e+00
v 6.45535211e+03 5.28268474e+03 4.09430114e+00
v 6.44203931e+03 5.28355294e+03 3.51248478e+00
v 6.44600283e+03 5.28327709e+03 3.40117077e+00
v 6.45440360e+03 5.28533897e+03 8.55893864e+00
v 6.45340387e+03 5.28411048e+03 8.32875650e+00
v 6.45352224e+03 5.28783269e+03 3.28350466e+00
v 6.45874278e+03 5.30844003e+03 7.22772935e+00
v 6.46747742e+03 5.29006338e+03 2.55095248e+01
v 6.46111827e+03 5.28961191e+03 2.71900435e+01
v 6.45691649e+03 5.28817413e+03 2.80088643e+01
v 6.46080528e+03 5.31010359e+03 7.79055453e+00
v 6.46101662e+03 5.30911890e+03 8.57347498e+00
v 6.46433567e+03 5.29550927e+03 3.33750734e+00
v 6.45234572e+03 5.29234720e+03 2.90245411e+00
v 6.46392785e+03 5.30051713e+03 3.08058187e+00
v 6.46566683e+03 5.30760042e+03 3.07214031e+00
v 6.46822874e+03 5.30723683e+03 3.29493873e+00
v 6.45996041e+03 5.30997969e+03 4.53939237e+00
v 6.45923892e+03 5.31001958e+03 3.66063346e+00
v 6.45807609e+03 5.30872836e+03 3.20420224e+00
v 6.45982899e+03 5.30386137e+03 3.60945596e+00
v 6.45228656e+03 5.29613057e+03 2.86835655e+00
v 6.45565062e+03 5.30892784e+03 4.26998355e+00
v 6.45640494e+03 5.30956623e+03 3.38877072e+00
v 6.45301778e+03 5.30422779e+03 3.30564329e+00
v 6.45357114e+03 5.30758451e+03 3.80645926e+00
v 6.46842712e+03 5.30462937e+03 3.11080058e+00
v 6.45741113e+03 5.28733515e+03 3.32194724e+00
v 6.44133355e+03 5.28907907e+03 3.61537676e+00
v 6.44471982e+03 5.29478570e+03 3.58012673e+00
v 6.45191567e+03 5.28720638e+03 3.01501173e+00
v 6.45071369e+03 5.29566489e+03 3.13283629e+00
v 6.45130877e+03 5.30614506e+03 3.41981094e+00
v 6.44736678e+03 5.30015577e+03 3.44198275e+00
v 6.44297973e+03 5.30738612e+03 3.43490929e+00
v 6.43968728e+03 5.30738435e+03 3.40828636e+00
v 6.44404004e+03 5.30617620e+03 3.35819289e+00
v 6.43857023e+03 5.30388978e+03 3.52430742e+00
v 6.44033414e+03 5.30516812e+03 3.57148597e+00
v 6.44174067e+03 5.30525466e+03 3.37672494e+00
v 6.44334527e+03 5.30492791e+03 3.89945718e+00
v 6.44453078e+03 5.30411031e+03 3.44986146e+00
v 6.43752445e+03 5.30472183e+03 3.81993771e+00
v 6.44009159e+03 5.30391847e+03 3.79649431e+00
v 6.44167994e+03 5.29963368e+03 3.45530540e+00
v 6.44170577e+03 5.30093749e+03 3.85295026e+00
v 6.44290791e+03 5.29460705e+03 3.48173719e+00
v 6.43882364e+03 5.29402716e+03 3.60162887e+00
v 6.44909386e+03 5.30670832e+03 3.30982821e+00
v 6.45179293e+03 5.30771811e+03 3.82385514e+00
v 6.45126874e+03 5.30739461e+03 3.51234335e+00
v 6.45156449e+03 5.30866906e+03 3.22508997e+00
v 6.43881538e+03 5.30847334e+03 3.47745369e+00
v 6.44141864e+03 5.30642087e+03 4.00166284e+00
v 6.45131386e+03 5.30712851e+03 4.58551252e+00
v 6.45171406e+03 5.30728600e+03 4.61702664e+00
v 6.45398051e+03 5.30928430e+03 6.92366661e+00
v 6.45335568e+03 5.30875897e+03 7.87797093e+00
v 6.45641632e+03 5.30889051e+03 7.66569954e+00
v 6.45481761e+03 5.30907147e+03 6.34045395e+00
v 6.45344608e+03 5.30727754e+03 5.46947295e+00
v 6.46213204e+03 5.30867639e+03 8.07653452e+00
v 6.46223896e+03 5.30879797e+03 4.38142606e+00
v 6.46816072e+03 5.30194551e+03 1.08048185e+01
v 6.46168703e+03 5.30688167e+03 7.92180664e+00
v 6.46102629e+03 5.30573188e+03 7.03405503e+00
v 6.45733944e+03 5.30764474e+03 6.88542399e+00
v 6.45651947e+03 5.30624777e+03 6.66545953e+00
v 6.45518703e+03 5.30508730e+03 7.60878175e+00
v 6.45443924e+03 5.30517866e+03 6.51523661e+00
v 6.45567917e+03 5.30872767e+03 8.78197686e+00
v 6.45483298e+03 5.30878970e+03 7.58375601e+00
v 6.45721175e+03 5.30936687e+03 5.79871358e+00
v 6.46217464e+03 5.29172093e+03 7.26955670e+00
v 6.45631165e+03 5.30905842e+03 6.36479337e+00
v 6.45323930e+03 5.30750478e+03 7.00267964e+00
v 6.46329473e+03 5.29445821e+03 1.36345666e+01
v 6.46238877e+03 5.29328315e+03 1.32548312e+01
v 6.46050614e+03 5.28967587e+03 7.38904550e+00
v 6.45380280e+03 5.30630236e+03 6.75182050e+00
v 6.46140412e+03 5.30768704e+03 8.68778841e+00
v 6.46011933e+03 5.30775908e+03 9.88611211e+00
v 6.45481632e+03 5.30807774e+03 8.94204155e+00
v 6.45445673e+03 5.30717735e+03 9.47375208e+00
v 6.45568822e+03 5.30747495e+03 8.29292570e+00
v 6.46609242e+03 5.29906331e+03 1.27576531e+01
v 6.43849153e+03 5.29512253e+03 3.95383792e+00
v 6.45382926e+03 5.30802359e+03 8.81952532e+00
v 6.45412171e+03 5.30861970e+03 8.41727950e+00
v 6.45649740e+03 5.30568854e+03 7.31001087e+00
v 6.45937143e+03 5.30777123e+03 9.26278341e+00
v 6.45927911e+03 5.30892010e+03 8.13583030e+00
v 6.46361401e+03 5.29299271e+03 7.83948609e+00
v 6.45532739e+03 5.30703752e+03 8.94708823e+00
v 6.45303011e+03 5.28108642e+03 2.08422204e+01
v 6.45498419e+03 5.28329970e+03 2.04507479e+01
v 6.45407581e+03 5.28227405e+03 2.17586616e+01
v 6.45678086e+03 5.28458981e+03 1.98960503e+01
v 6.45529796e+03 5.28350474e+03 2.22447804e+01
v 6.45588524e+03 5.28428546e+03 2.59251368e+01
v 6.45433986e+03 5.28246237e+03 2.45264732e+01
v 6.45518839e+03 5.28273105e+03 1.01807237e+01
v 6.45778173e+03 5.28740337e+03 1.80959064e+01
v 6.45927690e+03 5.28888896e+03 1.82959661e+01
v 6.45829437e+03 5.28640159e+03 1.90564285e+01
v 6.45595540e+03 5.28318235e+03 1.56283899e+01
v 6.45484407e+03 5.28350026e+03 1.77329428e+01
v 6.45578466e+03 5.28332566e+03 1.31873678e+01
v 6.45648463e+03 5.28473738e+03 2.19715892e+01
v 6.45880322e+03 5.28709869e+03 2.32355485e+01
v 6.45441361e+03 5.28259331e+03 2.62909668e+01
v 6.45416612e+03 5.28449682e+03 2.85572074e+01
v 6.45545264e+03 5.28496560e+03 2.74860086e+01
v 6.45447730e+03 5.28230825e+03 1.28699601e+01
v 6.45419791e+03 5.28243317e+03 1.54912493e+01
v 6.45358919e+03 5.28148467e+03 2.02126473e+01
v 6.45343489e+03 5.28228964e+03 1.80498670e+01
v 6.45275741e+03 5.28117415e+03 1.87086414e+01
v 6.45328634e+03 5.28122529e+03 2.55488320e+01
v 6.45441187e+03 5.28534271e+03 7.02474106e+00
v 6.45337047e+03 5.28355675e+03 7.46192775e+00
v 6.45736990e+03 5.28668934e+03 8.20085038e+00
v 6.45656854e+03 5.28410731e+03 8.63718239e+00
v 6.45549853e+03 5.28694705e+03 8.53514057e+00
v 6.46618656e+03 5.28320307e+03 2.71355634e+01
v 6.45318365e+03 5.28115397e+03 2.33547537e+01
v 6.46290856e+03 5.28118529e+03 2.78982423e+01
v 6.46231670e+03 5.28664463e+03 2.73238978e+01
v 6.46020574e+03 5.28181706e+03 2.82478854e+01
v 6.45763236e+03 5.28182653e+03 2.85202722e+01
v 6.45963324e+03 5.28718139e+03 1.97485780e+01
v 6.45866433e+03 5.28692782e+03 2.10803803e+01
v 6.45318964e+03 5.28100290e+03 2.18874955e+01
v 6.45414067e+03 5.28254462e+03 1.89055971e+01
v 6.45653040e+03 5.28479098e+03 1.86489255e+01
v 6.45520079e+03 5.28144818e+03 7.76995518e+00
v 6.45537804e+03 5.28310404e+03 8.98940933e+00
v 6.45505120e+03 5.28394705e+03 8.06598651e+00
v 6.45628198e+03 5.28336695e+03 1.10548536e+01
v 6.45822612e+03 5.28641904e+03 8.68865212e+00
v 6.45880401e+03 5.28756489e+03 7.79514306e+00
v 6.46018272e+03 5.28882508e+03 8.09350377e+00
v 6.45671506e+03 5.28441160e+03 1.12758611e+01
v 6.45599076e+03 5.28491202e+03 1.81046483e+01
v 6.46002762e+03 5.28840505e+03 1.88516811e+01
v 6.44715388e+03 5.28291945e+03 3.68584241e+00
v 6.46314386e+03 5.29578758e+03 2.55277629e+01
v 6.46133867e+03 5.28894638e+03 2.02138270e+01
v 6.46147275e+03 5.28925528e+03 1.49073065e+01
v 6.46226518e+03 5.29053751e+03 1.35954158e+01
v 6.46622294e+03 5.29799884e+03 1.38453457e+01
v 6.46707022e+03 5.29778260e+03 1.40655448e+01
v 6.46605538e+03 5.29412407e+03 1.34312678e+01
v 6.46391662e+03 5.29360874e+03 9.33833186e+00
v 6.46126986e+03 5.29004952e+03 1.25476249e+01
v 6.46198516e+03 5.29234531e+03 1.23717314e+01
v 6.46178758e+03 5.29139101e+03 1.24275280e+01
v 6.46436667e+03 5.29233486e+03 1.46545999e+01
v 6.46063647e+03 5.28928887e+03 1.04102440e+01
v 6.45937238e+03 5.28952922e+03 7.84366495e+00
v 6.45560241e+03 5.30601828e+03 8.44888704e+00
v 6.45354215e+03 5.30664962e+03 7.89075757e+00
v 6.46073109e+03 5.30719797e+03 9.77571269e+00
v 6.46639756e+03 5.29872013e+03 1.39152932e+01
v 6.46607520e+03 5.29865598e+03 1.37256991e+01
v 6.46712137e+03 5.30024221e+03 1.42074378e+01
v 6.45988263e+03 5.30641767e+03 9.70920456e+00
v 6.46838235e+03 5.30204311e+03 1.63734658e+01
v 6.46688805e+03 5.30080607e+03 1.37768533e+01
v 6.46813781e+03 5.30214737e+03 1.46501825e+01
v 6.46273082e+03 5.29091098e+03 1.87811622e+01
v 6.46139554e+03 5.28980210e+03 1.89530030e+01
v 6.46764399e+03 5.29924062e+03 1.91464701e+01
v 6.46876730e+03 5.29755393e+03 2.15251411e+01
v 6.46669716e+03 5.30005847e+03 2.15063418e+01
v 6.46028952e+03 5.31130792e+03 8.30635412e+00
v 6.43725000e+03 5.28409617e+03 3.74711917e+00
v 6.43725000e+03 5.28298816e+03 3.67839323e+00
v 6.43725000e+03 5.28191171e+03 3.68513382e+00
v 6.43725000e+03 5.29293550e+03 3.98468642e+00
v 6.43725000e+03 5.29566237e+03 3.94145173e+00
v 6.43725000e+03 5.29829496e+03 3.89292338e+00
v 6.43725000e+03 5.29185415e+03 3.76334938e+00
v 6.43725000e+03 5.30016190e+03 3.85929572e+00
v 6.43725000e+03 5.30321277e+03 3.64890121e+00
v 6.43725000e+03 5.30293629e+03 3.80187134e+00
v 6.43725000e+03 5.30457837e+03 3.80985898e+00
v 6.43725000e+03 5.30502381e+03 3.75657851e+00
v 6.43725000e+03 5.30687240e+03 3.42260580e+00
v 6.43725000e+03 5.30820479e+03 3.76190327e+00
v 6.43725000e+03 5.30833475e+03 3.75253678e+00
v 6.43725000e+03 5.30847297e+03 3.81108614e+00
v 6.43725000e+03 5.31134831e+03 3.85094826e+00
v 6.43725000e+03 5.30910375e+03 3.85807263e+00
v 6.43725000e+03 5.30438637e+03 3.81781213e+00
v 6.43725000e+03 5.31196381e+03 3.92040115e+00
v 6.46900000e+03 5.28534111e+03 2.60205541e+01
v 6.46900000e+03 5.28788792e+03 2.55377958e+01
v 6.46900000e+03 5.28965068e+03 2.50065986e+01
v 6.46900000e+03 5.28486331e+03 2.63990924e+01
v 6.46900000e+03 5.30153964e+03 1.05442778e+01
v 6.46900000e+03 5.30156114e+03 1.07997905e+01
v 6.46900000e+03 5.29783845e+03 3.57116019e+00
v 6.46900000e+03 5.29723233e+03 4.12332135e+00
v 6.46900000e+03 5.30977715e+03 3.12722019e+00
v 6.46900000e+03 5.30902774e+03 3.21895057e+00
v 6.46900000e+03 5.29803086e+03 6.93846342e+00
v 6.46900000e+03 5.29766191e+03 6.04317912e+00
v 6.46900000e+03 5.30539141e+03 3.22196208e+00
v 6.46900000e+03 5.30501732e+03 3.18715690e+00
v 6.46900000e+03 5.30716437e+03 3.63201528e+00
v 6.46900000e+03 5.29792440e+03 3.39537494e+00
v 6.46900000e+03 5.29908175e+03 3.07835152e+00
v 6.46900000e+03 5.30149027e+03 3.01774424e+00
v 6.46900000e+03 5.30363200e+03 3.03953320e+00
v 6.46900000e+03 5.30820078e+03 3.65376447e+00
v 6.46900000e+03 5.30774769e+03 3.69304101e+00
v 6.46900000e+03 5.30472441e+03 3.13248513e+00
v 6.46900000e+03 5.29517330e+03 2.27853427e+01
v 6.46900000e+03 5.29716377e+03 2.15797520e+01
v 6.46900000e+03 5.29094165e+03 2.46055961e+01
v 6.46900000e+03 5.29290609e+03 2.38816854e+01
v 6.46900000e+03 5.29749114e+03 2.12957102e+01
v 6.46900000e+03 5.30069350e+03 1.72565443e+01
v 6.46900000e+03 5.30120675e+03 1.64557161e+01
v 6.46900000e+03 5.29930369e+03 1.95064149e+01
v 6.46900000e+03 5.30132761e+03 1.53519901e+01
v 6.46900000e+03 5.29741113e+03 5.28752334e+00
v 6.46900000e+03 5.29928882e+03 8.09402674e+00
v 6.46900000e+03 5.29979356e+03 8.04596261e+00
v 6.46900000e+03 5.29878144e+03 7.43419613e+00
v 6.46900000e+03 5.30151737e+03 1.29509301e+01
v 6.46900000e+03 5.30007626e+03 7.99969363e+00
v 6.46900000e+03 5.30042260e+03 8.21691945e+00
v 6.46900000e+03 5.29742766e+03 5.67550316e+00
v 6.45108915e+03 5.28100000e+03 3.58688419e+00
v 6.44988019e+03 5.28100000e+03 3.54315976e+00
v 6.45442697e+03 5.28100000e+03 9.40511516e+00
v 6.45441800e+03 5.28100000e+03 9.07053280e+00
v 6.44632148e+03 5.28100000e+03 3.84127325e+00
v 6.44591189e+03 5.28100000e+03 3.76108522e+00
v 6.43933712e+03 5.28100000e+03 3.57701763e+00
v 6.44788504e+03 5.28100000e+03 3.57589291e+00
v 6.44854903e+03 5.28100000e+03 3.56910275e+00
v 6.44948225e+03 5.28100000e+03 3.48746779e+00
v 6.44883577e+03 5.28100000e+03 3.47444086e+00
v 6.44185761e+03 5.28100000e+03 3.47564492e+00
v 6.44481330e+03 5.28100000e+03 3.51059424e+00
v 6.44394644e+03 5.28100000e+03 3.53688306e+00
v 6.45124284e+03 5.28100000e+03 3.66278806e+00
v 6.45364030e+03 5.28100000e+03 4.07084421e+00
v 6.45431979e+03 5.28100000e+03 4.53766858e+00
v 6.45279277e+03 5.28100000e+03 2.63564480e+01
v 6.45251875e+03 5.28100000e+03 2.71838847e+01
v 6.45385598e+03 5.28100000e+03 1.50511930e+01
v 6.45383685e+03 5.28100000e+03 1.51195076e+01
v 6.45344492e+03 5.28100000e+03 1.71017753e+01
v 6.45449609e+03 5.28100000e+03 7.51935295e+00
v 6.45416731e+03 5.28100000e+03 6.94238029e+00
v 6.45416800e+03 5.28100000e+03 1.15957305e+01
v 6.45455035e+03 5.28100000e+03 9.80257690e+00
v 6.45273480e+03 5.28100000e+03 1.88721664e+01
v 6.45273199e+03 5.28100000e+03 1.85458602e+01
v 6.45299839e+03 5.28100000e+03 2.07754160e+01
v 6.45307180e+03 5.28100000e+03 2.09074813e+01
v 6.45319060e+03 5.28100000e+03 2.18860886e+01
v 6.45325175e+03 5.28100000e+03 2.54314648e+01
v 6.45317271e+03 5.28100000e+03 2.35730713e+01
v 6.45321111e+03 5.28100000e+03 2.33201910e+01
v 6.45319023e+03 5.28100000e+03 2.18916988e+01
v 6.46334626e+03 5.28100000e+03 2.80665183e+01
v 6.46344047e+03 5.28100000e+03 2.80790468e+01
v 6.45699437e+03 5.28100000e+03 2.86382705e+01
v 6.45816957e+03 5.28100000e+03 2.85312988e+01
v 6.45457319e+03 5.28100000e+03 2.88214350e+01
v 6.45120088e+03 5.28100000e+03 2.89177721e+01
v 6.46029974e+03 5.28100000e+03 2.83051773e+01
v 6.46304803e+03 5.28100000e+03 2.79101977e+01
v 6.46109143e+03 5.28100000e+03 2.81787345e+01
v 6.46068488e+03 5.28100000e+03 2.82525011e+01
v 6.46302040e+03 5.28100000e+03 2.78956257e+01
v 6.46849554e+03 5.28100000e+03 2.69830109e+01
v 6.45443755e+03 5.28100000e+03 5.11881228e+00
v 6.45449247e+03 5.28100000e+03 4.67714727e+00
v 6.45274374e+03 5.28100000e+03 3.97206550e+00
v 6.45233654e+03 5.28100000e+03 2.74257270e+01
v 6.45386399e+03 5.28100000e+03 1.49843366e+01
v 6.45319262e+03 5.28100000e+03 2.55633145e+01
v 6.45299891e+03 5.28100000e+03 1.76633265e+01
v 6.45420344e+03 5.28100000e+03 1.31653409e+01
v 6.45411646e+03 5.28100000e+03 1.18486254e+01
v 6.43814466e+03 5.28100000e+03 3.63165854e+00
v 6.43725000e+03 5.28100000e+03 3.67265351e+00
v 6.46839961e+03 5.28100000e+03 2.70038112e+01
v 6.46900000e+03 5.28100000e+03 2.68886855e+01
v 6.46570388e+03 5.31275000e+03 3.21897816e+00
v 6.46389556e+03 5.31275000e+03 3.14857421e+00
v 6.43856575e+03 5.31275000e+03 3.98388778e+00
v 6.46784366e+03 5.31275000e+03 3.09867277e+00
v 6.45408034e+03 5.31275000e+03 3.19348911e+00
v 6.45515110e+03 5.31275000e+03 3.20240158e+00
v 6.46115037e+03 5.31275000e+03 3.23811535e+00
v 6.45926232e+03 5.31275000e+03 3.09884100e+00
v 6.45897135e+03 5.31275000e+03 3.10449327e+00
v 6.45196771e+03 5.31275000e+03 3.34193126e+00
v 6.44993619e+03 5.31275000e+03 3.40790717e+00
v 6.44366972e+03 5.31275000e+03 3.51449071e+00
v 6.44602872e+03 5.31275000e+03 3.49886749e+00
v 6.45910711e+03 5.31275000e+03 3.10370866e+00
v 6.46271135e+03 5.31275000e+03 3.07875998e+00
v 6.44048272e+03 5.31275000e+03 3.64532063e+00
v 6.44264249e+03 5.31275000e+03 3.57369899e+00
v 6.43752651e+03 5.31275000e+03 3.86754971e+00
v 6.43725000e+03 5.31275000e+03 3.83659556e+00
v 6.46829351e+03 5.31275000e+03 3.09666817e+00
v 6.46900000e+03 5.31275000e+03 3.09351992e+00
vt 0.238518 0.58869612
vt 0.25647828 0.57730287
vt 0.25743198 0.60756159
vt 0.23232915 0.59778631
vt 0.24600917 0.55476177
vt 0.29037607 0.58200097
vt 0.23907602 0.67811072
vt 0.21348222 0.5849756
vt 0.27139539 0.55915093
vt 0.31819302 0.59976733
vt 0.17801455 0.5992738
vt 0.2242171 0.55048025
vt 0.2859883 0.52710682
vt 0.32367739 0.59000242
vt 0.34706688 0.68204075
vt 0.21358953 0.72995567
vt 0.18654338 0.56928784
vt 0.23320933 0.52398735
vt 0.35629877 0.61639714
vt 0.37695703 0.64378738
vt 0.33310154 0.74138403
vt 0.23817118 0.73722678
vt 0.11992548 0.7162441
vt 0.15789646 0.53082001
vt 0.18150519 0.50711727
vt 0.21937671 0.50080967
vt 0.25923294 0.50079173
vt 0.41757441 0.69472992
vt 0.22293742 0.89370292
vt 0.066985495 0.62709463
vt 0.16131307 0.80013967
vt 0.13991638 0.53641689
vt 0.2217772 0.50080812
vt 0.24522521 0.50079727
vt 0.27571544 0.50347447
vt 0.4264304 0.72745299
vt 0.28599003 0.83842361
vt 0.24963246 0.86373794
vt 0.091614522 0.71346283
vt 0.077986382 0.54074609
vt 0.14487866 0.50083119
vt 0.20048721 0.50081623
vt 0.26984459 0.50078344
vt 0.42008653 0.80570573
vt 0.35605255 0.85797507
vt 0.25456941 0.89068764
vt 0.18833348 0.90251613
vt 0.027793294 0.70442152
vt 0.014496675 0.53393042
vt 0.072453164 0.79201072
vt 0.16931243 0.500826
vt 0.12131713 0.50084221
vt 0.13847971 0.50083411
vt 0.19426996 0.50081885
vt 0.27254117 0.50078118
vt 0.47543728 0.74535584
vt 0.31569314 0.85861361
vt 0.28075233 0.87322021
vt 0.26344213 0.8988992
vt 0.24194486 0.90811646
vt 0.11702039 0.86194384
vt 0.22694814 0.93314117
vt 0.035750806 0.50086927
vt 0.17968746 0.50082266
vt 0.10777213 0.50084639
vt 0.1841688 0.50082219
vt 0.48078364 0.8071847
vt 0.40906906 0.88844424
vt 0.22300851 0.90905738
vt 0.10936408 0.89422691
vt 0.16590165 0.96191341
vt 0.0031532058 0.54925591
vt 0.07285881 0.81237864
vt 0.075134777 0.50085759
vt 0.003142871 0.51512432
vt 0.4964453 0.76596695
vt 0.25828984 0.916179
vt 0.22926198 0.91151583
vt 0.098495744 0.87472034
vt 0.26099837 0.93119878
vt 0.003192276 0.67047453
vt 0.0031483965 0.53194386
vt 0.02260551 0.72153485
vt 0.017117932 0.50087476
vt 0.49932232 0.76516539
vt 0.41797438 0.92275149
vt 0.26788577 0.90833884
vt 0.10075577 0.97615242
vt 0.047652811 0.8589654
vt 0.28058743 0.98503029
vt 0.0031951789 0.68736833
vt 0.0032094799 0.7299763
vt 0.0031384022 0.50087893
vt 0.49933183 0.78325224
vt 0.49040824 0.86993653
vt 0.23050582 0.91827524
vt 0.092801899 0.9131366
vt 0.1036092 0.99694306
vt 0.07343138 0.87983924
vt 0.30258301 0.9471333
vt 0.2332678 0.99690276
vt 0.0032233652 0.77111113
vt 0.49934474 0.82088614
vt 0.44729418 0.91637373
vt 0.068638921 0.96545923
vt 0.1404689 0.99693125
vt 0.087558143 0.99694771
vt 0.051451609 0.8784923
vt 0.33839974 0.96591443
vt 0.20152439 0.99691242
vt 0.26627931 0.99689358
vt 0.003233203 0.80028254
vt 0.49935532 0.85435045
vt 0.48731968 0.91067743
vt 0.44245327 0.97209924
vt 0.068398342 0.89805663
vt 0.025663398 0.99376231
vt 0.041357506 0.91312587
vt 0.053810745 0.9969579
vt 0.023884591 0.85852754
vt 0.32869264 0.93403494
vt 0.34459588 0.99539256
vt 0.28301001 0.9968881
vt 0.003247909 0.84363306
vt 0.49935979 0.87141854
vt 0.49936637 0.90953779
vt 0.48876446 0.94974601
vt 0.41964316 0.99684429
vt 0.023853991 0.99696416
vt 0.0032899079 0.97507071
vt 0.027738802 0.93014508
vt 0.0032510837 0.84795463
vt 0.007544958 0.87153059
vt 0.34686315 0.95419985
vt 0.36231658 0.97591227
vt 0.49936062 0.87599468
vt 0.49936861 0.91865158
vt 0.49936211 0.88183939
vt 0.49937135 0.9257316
vt 0.40114063 0.99685103
vt 0.44789746 0.99683446
vt 0.0032922165 0.98468733
vt 0.0032784666 0.93999934
vt 0.0032758003 0.92798477
vt 0.003275034 0.9259541
vt 0.37313521 0.958983
vt 0.37674835 0.99685735
vt 0.34270266 0.99686974
vt 0.49938056 0.93865734
vt 0.48133293 0.9968248
vt 0.0076172804 0.99697059
vt 0.0032758201 0.93014389
vt 0.0032722298 0.90513891
vt 0.0032550623 0.86629045
vt 0.0032589985 0.8762511
vt 0.34724909 0.99686831
vt 0.34482399 0.99686903
vt 0.49938542 0.95036787
vt 0.0032971676 0.99697232
vt 0.0032561261 0.86929047
vt 0.48836187 0.99682254
vt 0.49940082 0.99681902
vt 0.60310251 0.73637694
vt 0.55938095 0.83819628
vt 0.54187858 0.78321266
vt 0.5642966 0.75003457
vt 0.63963503 0.82984149
vt 0.53767389 0.79121947
vt 0.57981229 0.72585094
vt 0.68122655 0.80352432
vt 0.58393776 0.89332819
vt 0.51017922 0.8447063
vt 0.70943648 0.70365834
vt 0.72281486 0.85959423
vt 0.62439203 0.90984738
vt 0.57665676 0.89302868
vt 0.5036667 0.84004551
vt 0.51141775 0.84561038
vt 0.59117532 0.70806575
vt 0.71871859 0.7888906
vt 0.60576546 0.91194659
vt 0.57544065 0.89234483
vt 0.58050627 0.89447147
vt 0.70579821 0.63551354
vt 0.6576969 0.93221867
vt 0.58086288 0.89460456
vt 0.61101407 0.91568887
vt 0.60846573 0.68029851
vt 0.7259506 0.92880744
vt 0.64348602 0.93774307
vt 0.61598605 0.91912758
vt 0.62842005 0.64663714
vt 0.65865737 0.94790298
vt 0.65237629 0.61249757
vt 0.68991375 0.96860439
vt 0.6459378 0.61557996
vt 0.70114768 0.59942305
vt 0.73344821 0.99645531
vt 0.64881861 0.60994124
vt 0.70182079 0.56471276
vt 0.66476792 0.57738042
vt 0.67699414 0.5469799
vt 0.69684488 0.53050756
vt 0.68150926 0.53593922
vt 0.38041013 0.16150713
vt 0.38445795 0.17720109
vt 0.3675234 0.17716837
vt 0.395338 0.17225558
vt 0.36626783 0.21323937
vt 0.39742437 0.16264468
vt 0.39585739 0.19606197
vt 0.35972118 0.19488376
vt 0.39185461 0.20317465
vt 0.33781818 0.19102448
vt 0.34976259 0.17914069
vt 0.37686783 0.25368798
vt 0.39580497 0.20125139
vt 0.33258048 0.23182869
vt 0.35402811 0.26041073
vt 0.39748561 0.23455727
vt 0.3950246 0.2076543
vt 0.29427695 0.19317615
vt 0.3502408 0.22846794
vt 0.37690234 0.29349017
vt 0.39781749 0.23835653
vt 0.26141366 0.25681257
vt 0.3550196 0.29862708
vt 0.3995221 0.28729749
vt 0.39728203 0.25888824
vt 0.24747612 0.18587935
vt 0.35759315 0.32850718
vt 0.30866578 0.29793894
vt 0.39947018 0.28628123
vt 0.38384703 0.33155131
vt 0.23800117 0.22220951
vt 0.39964491 0.28831273
vt 0.22314376 0.25587189
vt 0.19236606 0.23012185
vt 0.25900674 0.29640788
vt 0.33015114 0.33536363
vt 0.4021697 0.31811798
vt 0.20985554 0.27371383
vt 0.20070434 0.25386465
vt 0.16615242 0.18533468
vt 0.23321627 0.29350328
vt 0.24840684 0.33117044
vt 0.37572521 0.34602982
vt 0.28319657 0.33669984
vt 0.40501887 0.32585371
vt 0.1554566 0.20856482
vt 0.23326725 0.17488652
vt 0.18582937 0.25253409
vt 0.40408748 0.34133583
vt 0.32844812 0.34502703
vt 0.40673169 0.33892816
vt 0.19356403 0.26861411
vt 0.17767522 0.31162798
vt 0.15930189 0.23301011
vt 0.13484295 0.17374539
vt 0.19345872 0.17466682
vt 0.16989006 0.26616341
vt 0.13331729 0.24909508
vt 0.25247887 0.34157139
vt 0.39437956 0.36604714
vt 0.35960025 0.37098926
vt 0.29423735 0.35355616
vt 0.17083947 0.29285342
vt 0.24190359 0.15863371
vt 0.19687629 0.33782709
vt 0.40363207 0.37496483
vt 0.4067184 0.34397674
vt 0.32974032 0.36501539
vt 0.16910477 0.27289563
vt 0.14497665 0.28596115
vt 0.094294362 0.22478735
vt 0.17232241 0.15476549
vt 0.12709451 0.27114582
vt 0.15545723 0.33357906
vt 0.25460869 0.35219425
vt 0.2259634 0.3553533
vt 0.32955137 0.39632726
vt 0.28440106 0.38512671
vt 0.15685152 0.27099639
vt 0.12572178 0.29624033
vt 0.13453712 0.27585542
vt 0.078567132 0.19226998
vt 0.13431783 0.13613075
vt 0.2352726 0.12855816
vt 0.14735901 0.27285498
vt 0.14002436 0.36048031
vt 0.27459219 0.36635709
vt 0.20163381 0.35448945
vt 0.40506607 0.37394565
vt 0.38003904 0.39023411
vt 0.35470137 0.39918607
vt 0.038090106 0.20161492
vt 0.11355748 0.14665842
vt 0.06382113 0.26093972
vt 0.15907577 0.11085421
vt 0.22215721 0.10693246
vt 0.12371939 0.34998244
vt 0.10988405 0.33500218
vt 0.23855253 0.37551165
vt 0.40460032 0.37614167
vt 0.40382218 0.39153266
vt 0.33987322 0.456577
vt 0.2811088 0.41856664
vt 0.11647432 0.27880543
vt 0.044253573 0.19026858
vt 0.080297858 0.15974718
vt 0.093986608 0.27677232
vt 0.12558693 0.11495173
vt 0.16316377 0.38901228
vt 0.093388073 0.3476966
vt 0.11076592 0.29453719
vt 0.40172568 0.41405421
vt 0.37570909 0.43338984
vt 0.29801142 0.44119638
vt 0.23634638 0.41865593
vt 0.059611507 0.18008542
vt 0.0094960183 0.23245567
vt 0.089247189 0.11882484
vt 0.069755964 0.27624118
vt 0.095120065 0.36804581
vt 0.072489679 0.31112373
vt 0.22640282 0.40284431
vt 0.40385732 0.39151561
vt 0.40374696 0.41372102
vt 0.37339592 0.46069193
vt 0.33294711 0.47915298
vt 0.091767214 0.27783388
vt 0.013457726 0.21437281
vt 0.02600551 0.25481617
vt 0.047420807 0.29606891
vt 0.040466804 0.28442365
vt 0.10990301 0.40867734
vt 0.068158381 0.3635664
vt 0.089684196 0.28561366
vt 0.19441326 0.43290538
vt 0.40385976 0.39160156
vt 0.40399513 0.41754782
vt 0.40008494 0.44811141
vt 0.2778514 0.48734766
vt 0.019703023 0.18219674
vt 0.033902135 0.27675337
vt 0.0032961566 0.26741332
vt 0.050220955 0.34756726
vt 0.075883083 0.28440571
vt 0.40351781 0.44643372
vt 0.34784615 0.49342406
vt 0.40645477 0.4597584
vt 0.20977572 0.47355002
vt 0.024526779 0.28512752
vt 0.042010196 0.37150961
vt 0.12952076 0.45509535
vt 0.051497083 0.36278325
vt 0.40389639 0.44834632
vt 0.40821207 0.47196639
vt 0.0068159946 0.29164469
vt 0.07514631 0.40483677
vt 0.022641301 0.36418229
vt 0.40937629 0.47531879
vt 0.071627736 0.42338687
vt 0.41663194 0.4959771
vt 0.0067699812 0.31888908
vt 0.045893308 0.39649254
vt 0.57588309 0.53440571
vt 0.5474208 0.54606891
vt 0.56678981 0.52979255
vt 0.87906146 0.93234688
vt 0.82867706 0.92253256
vt 0.8594991 0.91596961
vt 0.88866585 0.92244214
vt 0.88275725 0.97170311
vt 0.89426094 0.93228501
vt 0.85375202 0.99684697
vt 0.9071672 0.98930794
vt 0.81359321 0.99533349
vt 0.91304642 0.97442019
vt 0.80986977 0.9487555
vt 0.78525591 0.9920404
vt 0.78671563 0.90754426
vt 0.78947455 0.94498545
vt 0.7726413 0.9564833
vt 0.76716989 0.92919689
vt 0.76620275 0.97452247
vt 0.75337243 0.90847313
vt 0.91947752 0.86044192
vt 0.93241286 0.89160055
vt 0.89483726 0.88272887
vt 0.88173038 0.84506875
vt 0.94649142 0.87184978
vt 0.90909755 0.89222288
vt 0.86800897 0.86014152
vt 0.90727347 0.84508544
vt 0.94948405 0.84712386
vt 0.94534886 0.89976287
vt 0.90758896 0.91268218
vt 0.87440354 0.87769574
vt 0.86273807 0.84825307
vt 0.9640612 0.88678783
vt 0.93237203 0.911515
vt 0.8859576 0.88616467
vt 0.85151124 0.86193836
vt 0.95545822 0.91590953
vt 0.94359708 0.92470664
vt 0.91921675 0.9301796
vt 0.87156206 0.90064198
vt 0.8442713 0.88169968
vt 0.83629006 0.84650075
vt 0.83714509 0.86693048
vt 0.81671083 0.86347157
vt 0.94855726 0.93266064
vt 0.93311393 0.93450928
vt 0.85206652 0.91126597
vt 0.84310514 0.90247411
vt 0.77968585 0.8135162
vt 0.77141422 0.80994457
vt 0.77873665 0.7950716
vt 0.78032404 0.84898472
vt 0.77173352 0.76155221
vt 0.7659958 0.81374228
vt 0.76576644 0.80974245
vt 0.76553291 0.84724522
vt 0.75386864 0.77260584
vt 0.76351565 0.88453293
vt 0.77819878 0.90056407
vt 0.78210288 0.8736034
vt 0.76223034 0.90164781
vt 0.82939273 0.75195724
vt 0.81323242 0.77404785
vt 0.79577965 0.76454747
vt 0.77677232 0.73677814
vt 0.82646757 0.77066249
vt 0.81596375 0.78531647
vt 0.79080421 0.6979143
vt 0.81092858 0.78431773
vt 0.82727754 0.8090924
vt 0.76746345 0.71874219
vt 0.8184256 0.72979629
vt 0.83122009 0.79971373
vt 0.77777648 0.69031507
vt 0.81059939 0.71350932
vt 0.75917989 0.67183512
vt 0.75330615 0.70039034
vt 0.56596375 0.97281647
vt 0.56092858 0.97181773
vt 0.57646757 0.95816249
vt 0.53050286 0.60494769
vt 0.48154393 0.61001766
vt 0.51680517 0.57700908
vt 0.57605737 0.58164507
vt 0.50127935 0.6430577
vt 0.47810036 0.58755183
vt 0.55656898 0.59598124
vt 0.47390053 0.6416766
vt 0.54263574 0.63516903
vt 0.44836685 0.60802877
vt 0.57428056 0.61419439
vt 0.49945763 0.65193725
vt 0.52826852 0.67922068
vt 0.45204139 0.64991277
vt 0.47429231 0.64742333
vt 0.54431516 0.6839292
vt 0.55739832 0.65419066
vt 0.44118661 0.63683093
vt 0.46219277 0.66722643
vt 0.96960831 0.6804086
vt 0.96857327 0.69835711
vt 0.95540196 0.70462775
vt 0.92602873 0.7045716
vt 0.94023693 0.71734846
vt 0.92695034 0.65312684
vt 0.96481705 0.71044219
vt 0.91760772 0.72136331
vt 0.90439951 0.66252649
vt 0.90441197 0.7118808
vt 0.92791295 0.74615574
vt 0.90477604 0.62993824
vt 0.91571224 0.74248791
vt 0.95766616 0.64592385
vt 0.87850678 0.64422452
vt 0.93804389 0.78343916
vt 0.92013353 0.78623736
vt 0.93381101 0.76814127
vt 0.97415584 0.75930345
vt 0.90045303 0.80788219
vt 0.89918751 0.76645201
vt 0.9766463 0.73399591
vt 0.88944423 0.79471397
vt 0.92977816 0.7433368
vt 0.8871538 0.80818993
vt 0.87957263 0.78366768
vt 0.95489919 0.72774947
vt 0.97408706 0.71196622
vt 0.9931277 0.72705996
vt 0.98273003 0.7061379
vt 0.87541252 0.63989294
vt 0.85602772 0.64035785
vt 0.86816776 0.61158317
vt 0.88267511 0.6187222
vt 0.87952107 0.66019642
vt 0.83990359 0.62200278
vt 0.88468552 0.58390689
vt 0.84981292 0.65451169
vt 0.85368294 0.6050033
vt 0.84512085 0.68382901
vt 0.835711 0.64170456
vt 0.86688447 0.67639899
vt 0.82997888 0.67175347
vt 0.8215059 0.6250416
vt 0.81707799 0.65672565
vt 0.46613324 0.51682389
vt 0.49089628 0.51229489
vt 0.48099527 0.53604865
vt 0.47534665 0.55015874
vt 0.47679892 0.50486118
vt 0.51305306 0.51483124
vt 0.4499197 0.53793383
vt 0.4953596 0.5538069
vt 0.49077165 0.47954738
vt 0.46031508 0.4948585
vt 0.49849328 0.49165553
vt 0.44227183 0.51196039
vt 0.4781841 0.55859458
vt 0.523799 0.48921394
vt 0.4760837 0.47858506
vt 0.53155637 0.49886727
vt 0.98863351 0.99418938
vt 0.9729268 0.99661976
vt 0.98438537 0.98369455
vt 0.96641356 0.98198789
vt 0.94996142 0.97807878
vt 0.97103101 0.96972579
vt 0.98957062 0.96952051
vt 0.94867128 0.94929123
vt 0.96510333 0.93628347
vt 0.94052351 0.95801663
vt 0.98821235 0.94953054
vt 0.97316897 0.9251703
vt 0.99123418 0.93751168
vt 0.99118942 0.92035687
vt 0.98332912 0.91639167
vt 0.73785001 0.94064498
vt 0.74562663 0.94699019
vt 0.73746592 0.94722497
vt 0.74081129 0.93926877
vt 0.73759395 0.96560788
vt 0.73790342 0.93821895
vt 0.76094514 0.93152303
vt 0.75936806 0.9741323
vt 0.73760885 0.97160083
vt 0.73776376 0.97795677
vt 0.74512005 0.99653178
vt 0.7380113 0.99280989
vt 0.53864896 0.90367681
vt 0.55966085 0.91554064
vt 0.55146134 0.94642097
vt 0.51778179 0.91576582
vt 0.5606131 0.95193028
vt 0.51895922 0.96068698
vt 0.50428736 0.90148145
vt 0.56146955 0.92318052
vt 0.53316975 0.96454298
vt 0.93962961 0.98126972
vt 0.96060622 0.99648416
vt 0.91070402 0.97979653
vt 0.59556854 0.98066372
vt 0.59210694 0.96717262
vt 0.60078561 0.96285558
vt 0.58275306 0.95838577
vt 0.59047276 0.95149601
vt 0.5827511 0.96280354
vt 0.58275616 0.95049876
vt 0.58275187 0.96821284
vt 0.58275115 0.9425776
vt 0.58274925 0.93085498
vt 0.58971936 0.93433762
vt 0.30622447 0.90033627
vt 0.31637663 0.90041232
vt 0.30564374 0.92368293
vt 0.28610238 0.91475719
vt 0.2852717 0.89100295
vt 0.29142573 0.93280745
vt 0.6349535 0.96164453
vt 0.61738193 0.96183014
vt 0.59731072 0.956833
vt 0.62090611 0.97875679
vt 0.60943151 0.96745127
vt 0.61611027 0.9799431
vt 0.6295166 0.95748758
vt 0.63978648 0.95463449
vt 0.65518248 0.98047632
vt 0.75321245 0.98670244
vt 0.76636761 0.98341984
vt 0.77362823 0.99283302
vt 0.76091945 0.99656075
vt 0.54668975 0.98002088
vt 0.53472787 0.96628755
vt 0.55001491 0.96634299
vt 0.90975118 0.99530339
vt 0.91445851 0.97971451
vt 0.92619395 0.98780978
vt 0.6494047 0.99523717
vt 0.64461178 0.98841834
vt 0.64877015 0.98839033
usemtl Tile_+032_+022_L19_000112_0
f 118/1 117/2 139/3
f 162/30 116/49 135/40
f 125/17 123/8 122/11
f 369/26 126/25 370/42
f 139/3 164/4 118/1
f 134/556 132/557 129/558
f 119/370 56/371 133/372
f 129/205 269/206 130/207
f 117/2 121/5 120/9
f 373/41 136/32 374/53
f 375/63 312/75 425/84
f 118/1 123/8 121/5
f 121/5 117/2 118/1
f 125/17 122/11 279/24
f 164/4 122/11 123/8
f 118/1 164/4 123/8
f 123/8 127/12 121/5
f 122/11 135/40 136/32
f 162/30 135/40 122/11
f 126/25 279/24 373/41
f 126/25 125/17 279/24
f 135/40 116/49 375/63
f 381/52 135/40 382/65
f 121/5 127/12 128/18
f 128/18 127/12 369/26
f 127/12 125/17 126/25
f 120/9 133/6 117/2
f 131/375 119/370 120/373
f 161/10 133/6 56/14
f 120/562 134/556 131/559
f 134/13 121/5 128/18
f 132/35 134/13 384/27
f 232/295 230/294 234/317
f 237/263 238/266 278/279
f 234/317 233/306 232/295
f 259/316 252/342 234/317
f 266/305 230/294 228/270
f 244/329 252/342 386/351
f 277/240 240/231 250/234
f 250/234 248/224 388/228
f 248/224 240/231 239/227
f 34/232 239/227 240/231
f 277/240 267/247 268/254
f 267/247 277/240 250/234
f 250/234 240/231 248/224
f 239/227 241/219 248/224
f 228/270 249/264 251/253
f 267/247 250/234 251/253
f 231/272 242/281 265/282
f 34/232 241/219 239/227
f 238/266 268/254 231/272
f 34/232 277/240 236/248
f 268/254 238/266 236/248
f 277/240 268/254 236/248
f 273/222 69/226 275/230
f 273/483 274/484 255/485
f 276/218 273/222 256/214
f 271/489 137/494 138/495
f 256/214 270/212 235/209
f 257/376 56/371 253/374
f 130/496 271/489 138/495
f 138/495 254/497 130/496
f 130/207 270/212 271/215
f 270/212 256/214 271/215
f 257/491 137/494 271/489
f 271/489 255/485 257/491
f 235/209 270/212 130/207
f 256/214 235/209 276/218
f 235/209 272/223 276/218
f 241/219 272/223 235/209
f 235/209 124/213 247/216
f 235/209 247/216 241/219
f 391/208 129/205 392/210
f 372/211 269/206 391/208
f 130/207 269/206 235/209
f 266/305 228/270 398/304
f 400/349 259/316 401/341
f 402/328 266/305 403/340
f 229/265 267/247 249/264
f 266/305 259/316 230/294
f 233/306 242/281 232/295
f 141/163 258/164 330/165
f 265/282 264/291 238/266
f 238/266 264/291 278/279
f 268/254 267/247 229/265
f 259/316 234/317 230/294
f 258/164 260/171 404/176
f 242/281 233/306 76/318
f 246/330 245/350 143/343
f 143/174 262/175 261/167
f 260/171 261/167 262/175
f 406/193 245/189 408/195
f 143/174 245/189 263/185
f 262/175 263/185 407/190
f 261/167 260/171 258/164
f 263/185 262/175 143/174
f 260/171 262/175 412/181
f 233/306 246/330 76/318
f 392/560 132/557 416/563
f 130/564 254/561 129/558
f 257/376 253/374 138/377
f 129/558 131/559 134/556
f 271/489 256/486 255/485
f 254/561 131/559 129/558
f 119/370 131/375 253/374
f 254/379 138/377 253/374
f 136/32 279/24 122/11
f 127/12 123/8 125/17
f 133/6 139/3 117/2
f 120/373 119/370 133/372
f 121/5 134/13 120/9
f 384/27 128/18 418/34
f 236/248 39/246 34/232
f 388/228 247/216 420/233
f 276/218 241/219 69/226
f 242/281 243/307 265/282
f 241/219 247/216 248/224
f 396/255 250/234 422/249
f 131/375 254/379 253/374
f 76/318 243/307 242/281
f 273/483 255/485 256/486
f 34/232 69/226 241/219
f 236/248 238/266 237/263
f 241/219 276/218 272/223
f 273/222 276/218 69/226
f 56/371 119/370 253/374
f 257/376 55/378 56/371
f 247/216 124/213 393/220
f 228/270 251/253 395/271
f 233/306 234/317 244/329
f 265/282 238/266 231/272
f 242/281 229/265 232/295
f 231/272 268/254 229/265
f 229/265 242/281 231/272
f 230/294 229/265 228/270
f 251/253 249/264 267/247
f 229/265 249/264 228/270
f 229/265 230/294 232/295
f 143/343 76/318 246/330
f 233/306 244/329 246/330
f 245/350 246/330 244/329
f 141/163 261/167 258/164
f 245/350 244/329 387/358
f 234/317 252/342 244/329
f 138/495 137/494 257/491
f 240/231 277/240 34/232
f 269/206 124/213 235/209
f 221/529 217/530 216/531
f 61/568 59/569 57/570
f 180/39 163/23 167/31
f 217/530 227/532 216/531
f 156/388 193/389 206/390
f 225/513 111/514 224/515
f 158/38 71/37 99/58
f 203/498 213/499 98/500
f 107/579 106/580 194/581
f 179/73 220/83 181/48
f 151/404 85/411 196/412
f 12/80 185/62 159/77
f 147/7 165/16 122/11
f 147/7 164/4 139/3
f 162/30 122/11 163/23
f 182/47 185/62 7/71
f 165/16 147/7 155/22
f 336/544 21/545 337/546
f 84/322 146/312 54/297
f 57/296 219/298 197/321
f 12/396 96/392 156/388
f 166/585 184/586 185/587
f 197/417 45/418 108/419
f 6/86 109/68 75/67
f 161/10 105/19 88/20
f 153/391 157/395 156/388
f 15/468 14/469 144/470
f 174/79 179/73 175/61
f 86/449 73/450 154/451
f 90/276 87/287 83/299
f 91/384 89/385 92/383
f 150/114 149/104 160/95
f 194/503 98/500 213/499
f 54/297 20/310 84/322
f 84/550 21/545 74/547
f 156/388 157/395 12/396
f 99/458 73/450 63/456
f 90/276 89/288 91/268
f 146/312 87/287 54/297
f 146/312 83/299 87/287
f 209/508 95/511 194/503
f 79/455 80/459 199/457
f 104/259 90/276 207/260
f 63/456 202/462 99/458
f 86/449 199/457 100/453
f 195/471 214/475 198/477
f 153/391 156/388 206/390
f 195/471 198/477 80/476
f 196/473 15/468 195/471
f 16/408 15/409 94/399
f 110/521 16/522 102/527
f 110/540 102/543 206/542
f 192/398 208/393 193/389
f 189/598 82/599 183/600
f 157/100 153/121 4/109
f 206/390 102/403 94/399
f 94/399 97/394 206/390
f 104/259 87/287 90/276
f 194/503 106/506 98/500
f 107/579 194/581 96/582
f 6/479 13/481 196/473
f 98/500 106/506 158/504
f 200/537 192/539 204/535
f 95/401 191/405 190/397
f 82/60 189/78 188/69
f 166/29 82/60 188/69
f 12/80 7/71 185/62
f 183/589 184/586 188/588
f 116/49 162/30 181/48
f 314/92 179/73 315/102
f 181/48 220/83 313/91
f 180/39 162/30 163/23
f 162/30 180/39 181/48
f 315/102 177/89 317/112
f 175/61 178/50 167/31
f 176/133 171/120 172/108
f 177/89 171/120 318/132
f 96/582 12/583 107/579
f 188/588 189/590 183/589
f 168/97 187/116 173/99
f 166/585 188/588 184/586
f 178/50 179/73 181/48
f 174/79 170/70 177/89
f 310/72 181/48 316/81
f 323/145 186/131 324/144
f 324/144 11/105 325/152
f 172/108 169/118 176/133
f 318/132 176/133 328/154
f 175/61 179/73 178/50
f 180/39 167/31 178/50
f 181/48 180/39 178/50
f 177/89 179/73 174/79
f 172/108 173/99 187/116
f 170/70 174/79 175/61
f 170/70 168/97 173/99
f 173/99 177/89 170/70
f 177/89 172/108 171/120
f 177/89 173/99 172/108
f 170/70 10/88 168/97
f 11/105 186/131 169/118
f 169/118 168/97 11/105
f 169/118 187/116 168/97
f 10/88 11/105 168/97
f 170/70 7/71 10/88
f 182/47 170/70 175/61
f 183/96 82/60 185/62
f 182/47 166/29 185/62
f 7/71 170/70 182/47
f 185/587 184/586 183/589
f 167/31 166/29 182/47
f 158/38 81/46 166/29
f 155/22 166/29 165/16
f 167/31 163/23 165/16
f 166/29 167/31 165/16
f 122/11 165/16 163/23
f 122/11 164/4 147/7
f 161/10 78/15 147/7
f 161/10 147/7 139/3
f 161/10 56/14 105/19
f 139/3 133/6 161/10
f 56/371 93/380 105/382
f 75/67 74/76 345/85
f 109/68 154/45 148/44
f 154/451 109/452 86/449
f 99/501 98/500 158/504
f 160/95 149/104 6/86
f 84/56 148/44 146/36
f 160/95 75/67 347/103
f 71/37 72/57 99/58
f 71/37 158/38 155/22
f 147/7 70/21 155/22
f 154/45 72/57 71/37
f 106/59 81/46 158/38
f 12/80 157/100 1/90
f 4/109 152/134 13/146
f 153/121 152/134 4/109
f 5/127 2/115 149/104
f 196/412 13/410 151/404
f 82/60 159/77 185/62
f 107/87 159/77 106/59
f 82/60 106/59 159/77
f 73/450 72/454 154/451
f 109/452 79/455 86/449
f 196/473 80/476 6/479
f 349/139 150/114 350/137
f 57/296 108/332 61/344
f 146/36 70/21 83/28
f 70/21 71/37 155/22
f 158/38 166/29 155/22
f 84/56 75/67 148/44
f 148/44 70/21 146/36
f 148/44 75/67 109/68
f 148/44 154/45 70/21
f 153/391 97/394 152/400
f 151/404 13/410 152/400
f 150/114 160/95 344/126
f 261/167 142/170 143/174
f 110/521 111/514 140/517
f 275/230 292/235 47/238
f 212/251 275/230 226/244
f 219/298 53/275 50/277
f 49/430 284/431 115/432
f 287/250 226/244 47/238
f 55/378 101/381 93/380
f 288/237 290/243 292/235
f 201/536 218/534 294/533
f 110/540 206/542 208/541
f 298/437 297/435 299/438
f 195/471 80/476 196/473
f 211/261 210/289 50/277
f 285/367 42/368 297/369
f 303/359 42/334 30/361
f 237/263 39/246 236/248
f 115/311 298/323 219/298
f 27/290 40/301 36/278
f 281/303 265/282 24/319
f 33/184 307/194 308/197
f 280/355 33/363 31/360
f 225/513 224/515 215/516
f 222/406 221/413 216/414
f 110/540 208/541 192/539
f 33/363 308/366 30/361
f 307/194 33/184 352/192
f 27/290 28/324 66/314
f 33/184 280/173 354/179
f 31/360 23/336 280/355
f 24/319 25/326 281/303
f 280/355 23/336 22/339
f 264/291 281/303 278/279
f 25/326 24/319 22/339
f 26/313 25/326 22/339
f 65/338 49/331 19/315
f 66/314 67/325 37/302
f 306/356 41/347 29/337
f 27/290 66/314 40/301
f 281/303 25/326 26/313
f 26/313 27/290 304/292
f 18/284 44/274 68/257
f 304/292 27/290 38/269
f 38/269 36/278 68/257
f 35/239 39/246 282/245
f 38/269 237/263 305/280
f 304/292 305/280 281/303
f 211/261 50/277 46/262
f 26/313 304/292 281/303
f 305/280 304/292 38/269
f 197/321 62/333 60/346
f 30/200 307/194 356/199
f 66/314 28/324 29/337
f 32/354 306/356 29/337
f 30/200 308/197 307/194
f 30/361 42/334 41/347
f 42/334 67/325 41/347
f 30/361 301/365 303/359
f 357/202 30/200 359/201
f 224/515 64/518 300/520
f 221/510 295/505 217/507
f 221/413 222/406 191/405
f 215/516 145/519 225/513
f 200/523 201/526 64/518
f 216/414 204/407 222/406
f 204/535 216/531 218/534
f 205/402 190/397 222/406
f 218/534 216/531 227/532
f 217/507 295/505 202/502
f 111/514 225/513 140/517
f 200/537 110/540 192/539
f 64/460 100/453 300/461
f 223/463 202/462 63/456
f 227/532 217/530 294/533
f 100/453 64/460 63/456
f 219/298 298/323 299/335
f 297/446 298/447 285/448
f 115/432 284/431 297/435
f 215/516 224/515 300/520
f 199/457 300/461 100/453
f 296/464 300/461 199/457
f 296/525 215/516 300/520
f 145/472 215/478 214/475
f 215/478 296/480 214/475
f 43/353 62/333 302/345
f 43/353 303/359 60/346
f 60/420 303/428 301/427
f 302/345 299/335 43/353
f 299/335 302/345 219/298
f 284/431 285/434 298/437
f 42/441 299/438 284/431
f 299/438 297/435 284/431
f 284/591 298/592 42/593
f 144/470 145/472 195/471
f 57/296 58/309 103/286
f 62/333 219/298 302/345
f 195/471 145/472 214/475
f 140/517 16/522 110/521
f 144/470 195/471 15/468
f 225/513 145/519 17/524
f 145/472 144/470 17/474
f 199/457 198/465 296/464
f 198/465 199/457 80/459
f 225/513 17/524 16/522
f 95/511 209/508 191/512
f 191/512 209/508 221/510
f 204/407 192/398 205/402
f 193/389 205/402 192/398
f 225/513 16/522 140/517
f 190/397 191/405 222/406
f 222/406 204/407 205/402
f 111/514 64/518 224/515
f 200/537 204/535 218/534
f 294/533 218/534 227/532
f 202/502 294/509 217/507
f 295/505 221/510 209/508
f 295/505 209/508 194/503
f 202/462 223/463 294/467
f 194/503 213/499 295/505
f 213/499 202/502 295/505
f 223/538 201/536 294/533
f 202/502 213/499 203/498
f 200/537 218/534 201/536
f 111/514 200/523 64/518
f 226/244 104/259 207/260
f 212/386 91/384 101/381
f 91/268 212/251 207/260
f 207/260 212/251 226/244
f 293/490 275/487 212/492
f 47/238 226/244 275/230
f 290/243 47/238 292/235
f 47/238 48/258 287/250
f 104/259 226/244 287/250
f 290/243 288/237 283/242
f 112/256 290/243 283/242
f 69/226 288/237 292/235
f 112/444 113/442 210/439
f 211/445 112/444 210/439
f 274/484 293/490 55/488
f 101/493 55/488 293/490
f 101/381 92/383 93/380
f 275/487 293/490 274/484
f 101/493 293/490 212/492
f 287/250 46/262 104/259
f 104/259 46/262 53/275
f 287/250 48/258 46/262
f 49/331 65/338 285/348
f 49/430 285/434 284/431
f 65/338 67/325 285/348
f 49/331 52/308 19/315
f 44/274 286/285 291/267
f 68/257 291/267 283/242
f 291/267 51/283 113/273
f 286/285 51/283 291/267
f 115/432 50/433 49/430
f 52/440 49/430 51/436
f 283/242 291/267 112/256
f 211/261 290/243 112/256
f 211/261 289/252 290/243
f 211/261 46/262 289/252
f 282/245 283/242 69/226
f 69/226 35/239 282/245
f 274/484 55/488 255/485
f 55/488 257/491 255/485
f 261/167 141/163 142/170
f 280/173 141/163 332/169
f 142/170 141/163 280/173
f 77/352 76/318 143/343
f 77/180 142/170 280/173
f 143/174 142/170 77/180
f 298/323 115/311 42/334
f 297/565 42/566 115/567
f 58/309 114/320 103/286
f 103/286 114/320 20/310
f 103/286 53/275 57/296
f 54/297 104/259 103/286
f 113/273 112/256 291/267
f 210/439 51/436 50/433
f 68/257 44/274 291/267
f 197/321 108/332 57/296
f 219/298 62/333 197/321
f 88/387 105/382 89/385
f 61/421 108/419 45/418
f 190/397 193/389 96/392
f 96/392 95/401 190/397
f 15/409 151/404 94/399
f 92/383 105/382 93/380
f 202/462 203/466 99/458
f 199/457 86/449 79/455
f 91/384 92/383 101/381
f 88/300 89/288 90/276
f 73/450 86/449 100/453
f 362/574 59/569 363/571
f 193/389 208/393 206/390
f 196/412 85/411 15/409
f 16/408 94/399 102/403
f 190/397 205/402 193/389
f 97/394 153/391 206/390
f 98/500 99/501 203/498
f 87/287 104/259 54/297
f 151/404 97/394 94/399
f 96/392 193/389 156/388
f 95/584 96/582 194/581
f 169/118 172/108 187/116
f 321/155 169/118 322/153
f 12/80 159/77 107/87
f 182/47 175/61 167/31
f 78/15 161/10 88/20
f 105/382 92/383 89/385
f 75/67 160/95 6/86
f 83/299 88/300 90/276
f 154/45 71/37 70/21
f 21/545 84/550 20/551
f 70/21 78/15 83/28
f 81/46 106/59 82/60
f 74/76 75/67 84/56
f 6/86 149/104 2/115
f 82/60 166/29 81/46
f 73/450 99/458 72/454
f 109/482 6/479 80/476
f 109/452 80/459 79/455
f 152/400 97/394 151/404
f 88/20 83/28 78/15
f 70/21 147/7 78/15
f 149/104 150/114 5/127
f 214/475 296/480 198/477
f 243/307 76/318 24/319
f 24/319 76/318 22/339
f 42/334 285/348 67/325
f 46/262 48/258 47/238
f 68/257 36/278 18/284
f 288/237 69/226 283/242
f 53/275 219/298 57/296
f 110/521 200/523 111/514
f 303/359 43/353 42/334
f 32/354 30/361 41/347
f 29/337 41/347 66/314
f 281/303 305/280 278/279
f 36/278 40/301 37/302
f 26/313 28/324 27/290
f 264/291 265/282 281/303
f 23/336 31/360 32/354
f 30/361 32/354 31/360
f 33/363 30/361 31/360
f 29/337 28/324 23/336
f 28/324 26/313 23/336
f 77/352 280/355 22/339
f 24/319 265/282 243/307
f 66/314 41/347 67/325
f 69/226 34/232 35/239
f 19/315 18/284 37/302
f 37/302 18/284 36/278
f 18/284 19/315 52/308
f 52/308 286/285 18/284
f 237/263 278/279 305/280
f 27/290 36/278 38/269
f 39/246 237/263 38/269
f 38/269 68/257 39/246
f 68/257 282/245 39/246
f 66/314 37/302 40/301
f 19/315 37/302 67/325
f 67/325 65/338 19/315
f 23/336 32/354 29/337
f 41/347 306/356 32/354
f 42/334 43/353 299/335
f 60/420 301/427 360/426
f 363/571 61/568 366/573
f 60/346 62/333 43/353
f 335/422 60/420 365/424
f 61/421 45/418 334/423
f 197/417 60/420 45/418
f 59/569 58/572 57/570
f 73/450 100/453 63/456
f 201/526 223/528 64/518
f 223/463 63/456 64/460
f 207/260 90/276 91/268
f 290/243 289/252 47/238
f 292/235 275/230 69/226
f 273/483 275/487 274/484
f 55/378 93/380 56/371
f 103/286 20/310 54/297
f 46/262 50/277 53/275
f 210/439 113/442 51/436
f 47/238 289/252 46/262
f 51/436 286/443 52/440
f 50/277 115/311 219/298
f 50/433 51/436 49/430
f 283/242 282/245 68/257
f 39/246 35/239 34/232
f 53/275 103/286 104/259
f 340/577 58/572 364/576
f 361/548 20/551 368/552
f 77/352 22/339 76/318
f 23/336 26/313 22/339
f 20/551 114/554 341/553
f 286/285 44/274 18/284
f 14/416 15/409 17/415
f 16/408 17/415 15/409
f 13/146 6/86 8/135
f 15/409 85/411 151/404
f 326/130 9/117 329/142
f 13/146 8/135 4/109
f 1/90 7/71 12/80
f 4/109 1/90 157/100
f 432/150 338/158 448/161
f 3/122 8/135 435/147
f 434/123 3/122 437/148
f 7/71 1/90 438/101
f 9/117 11/105 10/88
f 440/98 7/71 441/106
f 3/122 1/90 4/109
f 8/135 3/122 4/109
f 6/86 2/115 430/128
f 435/147 6/86 443/140
f 431/129 10/88 444/119
f 144/594 14/595 309/596
f 309/596 17/597 144/594
f 309/601 14/602 17/603
f 429/141 5/127 432/150
f 310/72 116/49 181/48
f 311/82 116/49 310/72
f 312/75 116/49 311/82
f 313/91 220/83 314/92
f 314/92 220/83 179/73
f 315/102 179/73 177/89
f 316/81 181/48 313/91
f 317/112 177/89 319/124
f 318/132 171/120 176/133
f 319/124 177/89 318/132
f 320/160 176/133 321/155
f 321/155 176/133 169/118
f 322/153 169/118 323/145
f 323/145 169/118 186/131
f 324/144 186/131 11/105
f 325/152 11/105 327/143
f 326/130 11/105 9/117
f 327/143 11/105 326/130
f 328/154 176/133 320/160
f 329/142 9/117 431/129
f 330/165 258/164 333/168
f 331/166 141/163 330/165
f 332/169 141/163 331/166
f 333/168 258/164 415/172
f 334/423 45/418 335/422
f 335/422 45/418 60/420
f 336/544 74/547 21/545
f 337/546 21/545 361/548
f 338/158 5/127 339/149
f 339/149 5/127 349/139
f 340/577 114/578 58/572
f 341/553 114/554 340/555
f 342/138 160/95 343/136
f 343/136 160/95 351/125
f 344/126 160/95 342/138
f 345/549 74/547 336/544
f 346/94 75/67 345/85
f 347/103 75/67 346/94
f 348/113 160/95 347/103
f 349/139 5/127 150/114
f 350/137 150/114 344/126
f 351/125 160/95 348/113
f 352/192 33/184 355/188
f 353/196 307/194 352/192
f 354/179 280/173 332/169
f 355/188 33/184 354/179
f 356/199 307/194 353/196
f 357/202 301/203 30/200
f 358/204 301/203 357/202
f 359/201 30/200 356/199
f 360/426 301/427 358/429
f 361/548 21/545 20/551
f 362/574 58/572 59/569
f 363/571 59/569 61/568
f 364/576 58/572 362/574
f 365/424 60/420 360/426
f 366/573 61/568 367/575
f 367/425 61/421 334/423
f 368/552 20/551 341/553
f 369/26 127/12 126/25
f 370/42 126/25 378/54
f 371/217 124/213 372/211
f 372/211 124/213 269/206
f 373/41 279/24 136/32
f 374/53 136/32 381/52
f 375/63 116/49 312/75
f 376/51 126/25 373/41
f 377/64 126/25 376/51
f 378/54 126/25 379/66
f 379/66 126/25 377/64
f 380/74 135/40 375/63
f 381/52 136/32 135/40
f 382/65 135/40 380/74
f 383/33 128/18 369/26
f 384/27 134/13 128/18
f 385/43 132/35 384/27
f 386/351 252/342 421/357
f 387/358 244/329 386/351
f 388/228 248/224 247/216
f 389/236 250/234 388/228
f 390/241 250/234 389/236
f 391/208 269/206 129/205
f 392/560 129/558 132/557
f 393/220 124/213 394/221
f 394/221 124/213 371/217
f 395/271 251/253 396/255
f 396/255 251/253 250/234
f 397/293 228/270 395/271
f 398/304 228/270 397/293
f 399/327 266/305 398/304
f 400/349 252/342 259/316
f 401/341 259/316 402/328
f 402/328 259/316 266/305
f 403/340 266/305 399/327
f 404/176 260/171 411/183
f 405/182 258/164 404/176
f 406/193 263/185 245/189
f 407/190 263/185 406/193
f 408/195 245/189 409/198
f 409/364 245/350 419/362
f 410/191 262/175 407/190
f 411/183 260/171 414/186
f 412/181 262/175 413/187
f 413/187 262/175 410/191
f 414/186 260/171 412/181
f 415/172 258/164 427/178
f 416/604 132/605 417/606
f 417/55 132/35 385/43
f 418/34 128/18 383/33
f 419/362 245/350 387/358
f 420/233 247/216 423/229
f 421/357 252/342 400/349
f 422/249 250/234 390/241
f 423/229 247/216 424/225
f 424/225 247/216 393/220
f 425/84 312/75 426/93
f 427/178 258/164 405/182
f 428/177 333/168 415/172
f 429/141 2/115 5/127
f 430/128 2/115 429/141
f 431/129 9/117 10/88
f 432/150 5/127 338/158
f 433/111 1/90 434/123
f 434/123 1/90 3/122
f 435/147 8/135 6/86
f 436/156 3/122 435/147
f 437/148 3/122 442/157
f 438/101 1/90 433/111
f 439/110 7/71 438/101
f 440/98 10/88 7/71
f 441/106 7/71 439/110
f 442/157 3/122 436/156
f 443/140 6/86 430/128
f 444/119 10/88 445/107
f 445/107 10/88 440/98
f 446/151 329/142 431/129
f 447/159 329/142 446/151
f 448/161 338/158 449/162
usemtl Tile_+032_+022_L19_000112_untextured
