mtllib Tile_+032_+022_L19_000303.mtl
v 6.43246026e+03 5.41466705e+03 3.79026566e+00
v 6.43267438e+03 5.41295854e+03 3.60838650e+00
v 6.43747316e+03 5.42742411e+03 3.43753936e+00
v 6.43125237e+03 5.42087264e+03 3.52944672e+00
v 6.43155381e+03 5.41954454e+03 3.50078790e+00
v 6.43087309e+03 5.42096179e+03 4.18666902e+00
v 6.43335481e+03 5.41639427e+03 3.99801653e+00
v 6.43252293e+03 5.41618541e+03 3.50074104e+00
v 6.42709502e+03 5.43333176e+03 4.54457693e+00
v 6.42721180e+03 5.43417873e+03 3.53067439e+00
v 6.42766868e+03 5.43326323e+03 4.00112932e+00
v 6.42628959e+03 5.43681235e+03 3.79578684e+00
v 6.42673808e+03 5.43721654e+03 3.56984867e+00
v 6.42668241e+03 5.43541850e+03 4.01730711e+00
v 6.43094120e+03 5.43327808e+03 4.32589570e+00
v 6.42999149e+03 5.43110044e+03 4.53462968e+00
v 6.43000025e+03 5.42787405e+03 4.09139035e+00
v 6.42924379e+03 5.42786735e+03 4.05559327e+00
v 6.42874530e+03 5.43357717e+03 4.07115448e+00
v 6.42867547e+03 5.43153977e+03 3.82003103e+00
v 6.43098231e+03 5.43227244e+03 4.58471703e+00
v 6.43464658e+03 5.43645281e+03 3.50805231e+00
v 6.43490199e+03 5.43415804e+03 4.32127729e+00
v 6.43366498e+03 5.43645375e+03 4.45432146e+00
v 6.43697497e+03 5.43529517e+03 3.45290444e+00
v 6.43618977e+03 5.43223220e+03 3.50255933e+00
v 6.42728848e+03 5.43542948e+03 3.82259433e+00
v 6.42781075e+03 5.43100357e+03 4.48535019e+00
v 6.42842477e+03 5.42919709e+03 3.74907008e+00
v 6.42859959e+03 5.43600623e+03 4.55284436e+00
v 6.43191321e+03 5.42882296e+03 4.39963311e+00
v 6.42844399e+03 5.43066563e+03 3.50194622e+00
v 6.42988145e+03 5.43517307e+03 4.22134516e+00
v 6.42799987e+03 5.43252984e+03 3.57717638e+00
v 6.43065086e+03 5.43417502e+03 4.49574493e+00
v 6.43473857e+03 5.43212743e+03 4.38452013e+00
v 6.43318886e+03 5.43417431e+03 4.37307772e+00
v 6.42877518e+03 5.42730590e+03 4.76625321e+00
v 6.43378797e+03 5.41302205e+03 3.96874652e+00
v 6.43579523e+03 5.41351140e+03 4.27136527e+00
v 6.43582618e+03 5.41472715e+03 3.62428845e+00
v 6.43687083e+03 5.41682987e+03 4.07297646e+00
v 6.43748025e+03 5.41428468e+03 3.63275692e+00
v 6.43635139e+03 5.41261231e+03 4.13921677e+00
v 6.43333843e+03 5.41959282e+03 4.31217053e+00
v 6.43487604e+03 5.41668492e+03 4.24515770e+00
v 6.42987043e+03 5.42411363e+03 3.81134369e+00
v 6.43088974e+03 5.42259400e+03 5.99444067e+00
v 6.43136163e+03 5.41877860e+03 3.75672990e+00
v 6.43064967e+03 5.42260479e+03 3.68151107e+00
v 6.43303608e+03 5.42491923e+03 4.79921970e+00
v 6.43412913e+03 5.42605547e+03 4.31244302e+00
v 6.42851309e+03 5.42726984e+03 4.29399019e+00
v 6.42963845e+03 5.42646191e+03 3.59555378e+00
v 6.43250217e+03 5.42679766e+03 4.60020614e+00
v 6.43148593e+03 5.42208301e+03 4.04663896e+00
v 6.43365796e+03 5.42703801e+03 4.27119400e+00
v 6.43457599e+03 5.41413029e+03 3.69769129e+00
v 6.43215108e+03 5.41588430e+03 3.85643747e+00
v 6.43696364e+03 5.42674261e+03 4.27516393e+00
v 6.43592508e+03 5.43092896e+03 4.28721448e+00
v 6.43602202e+03 5.42434965e+03 4.38504443e+00
v 6.43482002e+03 5.41899064e+03 4.46610640e+00
v 6.43614815e+03 5.41994929e+03 4.00419864e+00
v 6.43640098e+03 5.42098773e+03 4.29247161e+00
v 6.43553925e+03 5.42290786e+03 4.07773208e+00
v 6.43491675e+03 5.41532339e+03 4.24759562e+00
v 6.43360243e+03 5.43071323e+03 4.34048537e+00
v 6.43195496e+03 5.43157417e+03 4.19667332e+00
v 6.43187955e+03 5.42561210e+03 4.43346871e+00
v 6.43054660e+03 5.43723085e+03 4.70165912e+00
v 6.43161101e+03 5.43674559e+03 4.22362152e+00
v 6.42763645e+03 5.43652322e+03 7.44954119e+00
v 6.43250551e+03 5.41463433e+03 5.52616361e+00
v 6.43228368e+03 5.41258144e+03 4.82589788e+00
v 6.43542697e+03 5.42776524e+03 4.49860853e+00
v 6.43197652e+03 5.43520395e+03 4.33184341e+00
v 6.43363591e+03 5.42359468e+03 4.43387869e+00
v 6.43000927e+03 5.42340955e+03 4.38084247e+00
v 6.43137461e+03 5.42391441e+03 4.21809374e+00
v 6.43558692e+03 5.41813389e+03 4.82158983e+00
v 6.43472364e+03 5.42199586e+03 4.48568388e+00
v 6.43148781e+03 5.42322289e+03 8.91115768e+00
v 6.42993019e+03 5.42472711e+03 3.34651644e+00
v 6.41325626e+03 5.43766506e+03 1.63753320e+01
v 6.43471496e+03 5.41175883e+03 3.69031374e+00
v 6.43231666e+03 5.43324706e+03 3.84367604e+00
v 6.41265327e+03 5.43512987e+03 2.41171100e+01
v 6.41451033e+03 5.43379823e+03 2.44899693e+01
v 6.41407541e+03 5.43116871e+03 2.41953863e+01
v 6.41600935e+03 5.42849978e+03 2.44836731e+01
v 6.41658291e+03 5.42596876e+03 1.66343756e+01
v 6.41455569e+03 5.43331615e+03 1.99043034e+01
v 6.41681013e+03 5.43403364e+03 1.66841783e+01
v 6.41496306e+03 5.43384703e+03 1.62492805e+01
v 6.41546608e+03 5.42968822e+03 1.65918293e+01
v 6.41675099e+03 5.42746627e+03 1.63024441e+01
v 6.41771982e+03 5.43291790e+03 1.62769196e+01
v 6.41498170e+03 5.43176594e+03 1.64177860e+01
v 6.41602404e+03 5.43000660e+03 1.62691030e+01
v 6.41539917e+03 5.42621782e+03 2.41152968e+01
v 6.40612103e+03 5.41082478e+03 2.40379295e+01
v 6.41334777e+03 5.41321230e+03 2.40889562e+01
v 6.41743570e+03 5.41278304e+03 2.41389533e+01
v 6.41818761e+03 5.41327319e+03 2.44803599e+01
v 6.42024161e+03 5.41363157e+03 2.44194067e+01
v 6.42026105e+03 5.41361287e+03 2.13634388e+01
v 6.41894038e+03 5.41445856e+03 2.41595104e+01
v 6.41777774e+03 5.41814979e+03 2.41064981e+01
v 6.41793124e+03 5.42176277e+03 2.45526951e+01
v 6.41997041e+03 5.41477745e+03 2.44731142e+01
v 6.41839652e+03 5.42012343e+03 1.64636347e+01
v 6.42028734e+03 5.41365086e+03 1.92305412e+01
v 6.41935892e+03 5.41673087e+03 1.64805908e+01
v 6.41693349e+03 5.41265438e+03 1.65046935e+01
v 6.42086998e+03 5.42021543e+03 1.63039584e+01
v 6.41418061e+03 5.43436580e+03 1.66298096e+01
v 6.41492620e+03 5.42041641e+03 2.40901628e+01
v 6.40938067e+03 5.42896775e+03 2.41043392e+01
v 6.41679814e+03 5.42578333e+03 2.13521779e+01
v 6.41471175e+03 5.41209109e+03 2.44637552e+01
v 6.43690224e+03 5.41720232e+03 1.45542314e+01
v 6.43517500e+03 5.41923931e+03 1.15054747e+01
v 6.42103818e+03 5.41776593e+03 1.63579684e+01
v 6.42133714e+03 5.41537181e+03 1.63256316e+01
v 6.42220640e+03 5.41703695e+03 1.68411354e+01
v 6.42086263e+03 5.41257457e+03 1.63490488e+01
v 6.42012349e+03 5.41366172e+03 1.68489394e+01
v 6.42362789e+03 5.41697953e+03 1.63043013e+01
v 6.43769049e+03 5.41094536e+03 1.64083756e+01
v 6.43452494e+03 5.42222199e+03 1.64171787e+01
v 6.43704570e+03 5.41718936e+03 1.62392322e+01
v 6.43645963e+03 5.41557450e+03 1.65118948e+01
v 6.43720208e+03 5.41536580e+03 1.58809026e+01
v 6.43105677e+03 5.41254328e+03 1.62634729e+01
v 6.43383457e+03 5.42645573e+03 1.63807964e+01
v 6.43361402e+03 5.42858640e+03 1.45686734e+01
v 6.43043286e+03 5.42747329e+03 9.66725075e+00
v 6.43382489e+03 5.42660521e+03 1.44717156e+01
v 6.43402660e+03 5.42777110e+03 1.63728630e+01
v 6.43519354e+03 5.42346738e+03 1.61452102e+01
v 6.43104602e+03 5.43714617e+03 1.61755110e+01
v 6.43205207e+03 5.43448053e+03 1.62510322e+01
v 6.42515803e+03 5.41971163e+03 1.62744770e+01
v 6.43707280e+03 5.41446100e+03 1.16256864e+01
v 6.43619207e+03 5.41988081e+03 1.62666267e+01
v 6.43162662e+03 5.43111008e+03 1.64529955e+01
v 6.42179190e+03 5.42381667e+03 1.62627154e+01
v 6.41772488e+03 5.42468022e+03 1.63289398e+01
v 6.41943575e+03 5.42864834e+03 1.62657164e+01
v 6.41787862e+03 5.42985092e+03 1.65764439e+01
v 6.42013336e+03 5.42150632e+03 1.65676364e+01
v 6.42001455e+03 5.42238321e+03 1.62924322e+01
v 6.42950838e+03 5.43152250e+03 9.04791234e+00
v 6.43488036e+03 5.42364717e+03 1.45372986e+01
v 6.42523357e+03 5.42475495e+03 1.62111318e+01
v 6.42423806e+03 5.42724997e+03 1.65094754e+01
v 6.42318301e+03 5.42616124e+03 1.67994663e+01
v 6.41977678e+03 5.42577996e+03 1.64106740e+01
v 6.41653566e+03 5.43536079e+03 1.62283502e+01
v 6.41740801e+03 5.43097954e+03 1.62197084e+01
v 6.42398358e+03 5.43094632e+03 1.61908271e+01
v 6.43304256e+03 5.43080220e+03 1.62478193e+01
v 6.41761841e+03 5.42249822e+03 1.66274470e+01
v 6.43060982e+03 5.41201363e+03 5.76368060e+00
v 6.43478891e+03 5.40626491e+03 1.37950488e+01
v 6.42902055e+03 5.40732771e+03 9.80158602e+00
v 6.43146673e+03 5.40923153e+03 9.72184934e+00
v 6.42787683e+03 5.40823600e+03 7.69253153e+00
v 6.43421026e+03 5.41406516e+03 9.18252134e+00
v 6.43709709e+03 5.40891213e+03 1.35955394e+01
v 6.42763721e+03 5.40893910e+03 4.69593760e+00
v 6.42794789e+03 5.40916669e+03 5.52444666e+00
v 6.42908135e+03 5.41014282e+03 3.94207879e+00
v 6.42898348e+03 5.40942890e+03 4.13647219e+00
v 6.42887895e+03 5.41093415e+03 4.86074483e+00
v 6.42370187e+03 5.40609524e+03 4.13881604e+00
v 6.42046249e+03 5.40627164e+03 6.59044076e+00
v 6.42555865e+03 5.40767248e+03 5.55445027e+00
v 6.42358392e+03 5.40662110e+03 5.72392001e+00
v 6.42259620e+03 5.40605928e+03 6.95248886e+00
v 6.42121469e+03 5.40650693e+03 7.25301314e+00
v 6.42508400e+03 5.40709343e+03 4.40348691e+00
v 6.42604157e+03 5.40801499e+03 4.82309475e+00
v 6.42426820e+03 5.40742014e+03 4.94406405e+00
v 6.43114397e+03 5.41050526e+03 3.61795373e+00
v 6.42963493e+03 5.40647142e+03 4.04120876e+00
v 6.42835186e+03 5.40664277e+03 4.77715202e+00
v 6.42327835e+03 5.40629840e+03 5.01392142e+00
v 6.42689027e+03 5.40925706e+03 4.91276252e+00
v 6.43669652e+03 5.41055977e+03 4.00934569e+00
v 6.43201760e+03 5.41310918e+03 6.22823760e+00
v 6.43225922e+03 5.40671729e+03 3.77862081e+00
v 6.43134744e+03 5.40792057e+03 3.58949062e+00
v 6.42943511e+03 5.40763844e+03 3.80158916e+00
v 6.42608154e+03 5.40628840e+03 4.06760601e+00
v 6.41276452e+03 5.41144854e+03 1.64736275e+01
v 6.40895573e+03 5.40959113e+03 1.63982989e+01
v 6.43392150e+03 5.41098363e+03 3.94568512e+00
v 6.43773489e+03 5.40986399e+03 4.00208637e+00
v 6.43273795e+03 5.40936884e+03 3.71063086e+00
v 6.43215264e+03 5.41191018e+03 3.70591886e+00
v 6.42721085e+03 5.40694624e+03 3.89838703e+00
v 6.42890131e+03 5.41116553e+03 5.74572066e+00
v 6.43349928e+03 5.41132807e+03 9.78321353e+00
v 6.43017974e+03 5.41154523e+03 4.52666200e+00
v 6.43452443e+03 5.40725186e+03 4.42103130e+00
v 6.43403053e+03 5.40880797e+03 3.74797557e+00
v 6.42697281e+03 5.40786359e+03 4.35514010e+00
v 6.42786667e+03 5.40602958e+03 4.31021677e+00
v 6.43523692e+03 5.40641497e+03 3.94967506e+00
v 6.43634615e+03 5.40701724e+03 4.32117612e+00
v 6.43738862e+03 5.40630370e+03 4.29060316e+00
v 6.43625378e+03 5.40970919e+03 4.24920665e+00
v 6.43620214e+03 5.40779359e+03 4.81727656e+00
v 6.43575781e+03 5.40609156e+03 4.45430717e+00
v 6.43521856e+03 5.40826061e+03 4.03015618e+00
v 6.43709289e+03 5.41162266e+03 4.41022500e+00
v 6.42893834e+03 5.41221405e+03 4.88729186e+00
v 6.42224888e+03 5.40623387e+03 4.92983915e+00
v 6.42623073e+03 5.40714480e+03 3.76758475e+00
v 6.43674396e+03 5.40874409e+03 4.66985201e+00
v 6.41695038e+03 5.40900338e+03 1.62285936e+01
v 6.41861816e+03 5.40696633e+03 1.62938798e+01
v 6.41510255e+03 5.41167280e+03 1.64277462e+01
v 6.41354212e+03 5.40887609e+03 1.66036705e+01
v 6.40833194e+03 5.40777879e+03 1.65919504e+01
v 6.40978596e+03 5.40631588e+03 1.61273504e+01
v 6.41828525e+03 5.41039545e+03 1.66104815e+01
v 6.43278988e+03 5.41975298e+03 7.48325275e+00
v 6.43259146e+03 5.41707025e+03 5.57235802e+00
v 6.43430947e+03 5.41648877e+03 9.06283941e+00
v 6.43187724e+03 5.41964820e+03 4.90062251e+00
v 6.43140704e+03 5.43514418e+03 1.43904061e+01
v 6.41269138e+03 5.41136046e+03 2.45271686e+01
v 6.41106919e+03 5.41094820e+03 2.08457632e+01
v 6.41007370e+03 5.41064223e+03 2.44666543e+01
v 6.40753080e+03 5.40989144e+03 2.45244048e+01
v 6.41165331e+03 5.41164570e+03 2.44214864e+01
v 6.42111482e+03 5.40737519e+03 1.64524257e+01
v 6.42114260e+03 5.41043058e+03 1.64531198e+01
v 6.43546576e+03 5.40601135e+03 1.63169435e+01
v 6.40600000e+03 5.41072169e+03 2.40690174e+01
v 6.40600000e+03 5.40961910e+03 2.45074296e+01
v 6.40600000e+03 5.40926007e+03 1.64933666e+01
v 6.40600000e+03 5.40686239e+03 1.66025352e+01
v 6.40600000e+03 5.40947527e+03 2.09569670e+01
v 6.40600000e+03 5.40940093e+03 1.66121222e+01
v 6.40600000e+03 5.40945289e+03 2.43061405e+01
v 6.40600000e+03 5.40946864e+03 2.17912493e+01
v 6.40600000e+03 5.40940056e+03 1.64867443e+01
v 6.40600000e+03 5.40947357e+03 2.13232749e+01
v 6.40600000e+03 5.41078608e+03 2.40395509e+01
v 6.40600000e+03 5.41096430e+03 2.40393899e+01
v 6.40600000e+03 5.40600807e+03 1.64213461e+01
v 6.40600000e+03 5.40936659e+03 1.64827551e+01
v 6.40600000e+03 5.40635403e+03 1.64982968e+01
v 6.40600000e+03 5.43204310e+03 2.41004381e+01
v 6.40600000e+03 5.43636146e+03 2.41046881e+01
v 6.40600000e+03 5.42705765e+03 2.40947885e+01
v 6.40600000e+03 5.42148150e+03 2.40865497e+01
v 6.40600000e+03 5.41344297e+03 2.40713549e+01
v 6.43775000e+03 5.40823103e+03 1.40341653e+01
v 6.43775000e+03 5.40657563e+03 1.46072960e+01
v 6.43775000e+03 5.40600957e+03 1.65653558e+01
v 6.43775000e+03 5.40640781e+03 1.64619897e+01
v 6.43775000e+03 5.41090952e+03 1.64007095e+01
v 6.43775000e+03 5.41073809e+03 1.64145385e+01
v 6.43775000e+03 5.41105973e+03 1.63925026e+01
v 6.43775000e+03 5.40684630e+03 4.59095634e+00
v 6.43775000e+03 5.40809700e+03 4.43639821e+00
v 6.43775000e+03 5.40631169e+03 4.59054458e+00
v 6.43775000e+03 5.41092972e+03 3.90477801e+00
v 6.43775000e+03 5.40994071e+03 3.99413472e+00
v 6.43775000e+03 5.40962281e+03 4.95820058e+00
v 6.43775000e+03 5.40964283e+03 4.95417334e+00
v 6.43775000e+03 5.40829219e+03 4.45852642e+00
v 6.43775000e+03 5.40826500e+03 4.45929185e+00
v 6.43775000e+03 5.40824446e+03 4.44769909e+00
v 6.43775000e+03 5.40620714e+03 4.22025331e+00
v 6.43775000e+03 5.40986303e+03 3.99939778e+00
v 6.43775000e+03 5.41121255e+03 3.91721864e+00
v 6.43775000e+03 5.41115278e+03 4.01108381e+00
v 6.43775000e+03 5.40982724e+03 3.99884457e+00
v 6.43775000e+03 5.40966049e+03 4.94507224e+00
v 6.43775000e+03 5.40977313e+03 4.39575328e+00
v 6.43775000e+03 5.41038269e+03 1.37282023e+01
v 6.43775000e+03 5.40611219e+03 1.50317190e+01
v 6.43775000e+03 5.41305680e+03 3.90017209e+00
v 6.43775000e+03 5.41243708e+03 1.30078267e+01
v 6.43775000e+03 5.41335954e+03 1.63185851e+01
v 6.43775000e+03 5.41429754e+03 1.62808802e+01
v 6.43775000e+03 5.41442325e+03 1.51168213e+01
v 6.43775000e+03 5.41464184e+03 1.48280479e+01
v 6.43775000e+03 5.41435571e+03 1.62258031e+01
v 6.43775000e+03 5.42012034e+03 4.29007624e+00
v 6.43775000e+03 5.41701989e+03 4.25858884e+00
v 6.43775000e+03 5.41509239e+03 3.91302740e+00
v 6.43775000e+03 5.41392302e+03 3.69343121e+00
v 6.43775000e+03 5.42267982e+03 4.41117855e+00
v 6.43775000e+03 5.42300975e+03 4.39877977e+00
v 6.43775000e+03 5.41627113e+03 4.20256652e+00
v 6.43775000e+03 5.43616853e+03 3.14607582e+00
v 6.43775000e+03 5.43765595e+03 3.14011700e+00
v 6.43775000e+03 5.42515073e+03 3.91725412e+00
v 6.43775000e+03 5.43264134e+03 3.45770503e+00
v 6.43775000e+03 5.43334676e+03 3.27655705e+00
v 6.43775000e+03 5.43398565e+03 3.17189369e+00
v 6.43775000e+03 5.43562037e+03 3.23016512e+00
v 6.43775000e+03 5.42249780e+03 4.40520560e+00
v 6.43775000e+03 5.43031782e+03 3.47972907e+00
v 6.43775000e+03 5.42775528e+03 3.44308223e+00
v 6.43775000e+03 5.42693216e+03 3.47979858e+00
v 6.43775000e+03 5.42613990e+03 3.56747370e+00
v 6.43775000e+03 5.41419905e+03 1.42346055e+01
v 6.43549184e+03 5.40600000e+03 1.63227184e+01
v 6.43544466e+03 5.40600000e+03 1.63176720e+01
v 6.42023858e+03 5.40600000e+03 6.98068877e+00
v 6.42081446e+03 5.40600000e+03 7.40680239e+00
v 6.41011493e+03 5.40600000e+03 1.61555015e+01
v 6.40983288e+03 5.40600000e+03 1.61467571e+01
v 6.42730944e+03 5.40600000e+03 1.63893504e+01
v 6.42358945e+03 5.40600000e+03 1.64207427e+01
v 6.43204316e+03 5.40600000e+03 1.63928551e+01
v 6.42219442e+03 5.40600000e+03 1.64549389e+01
v 6.42114806e+03 5.40600000e+03 1.64540597e+01
v 6.41904748e+03 5.40600000e+03 1.63207849e+01
v 6.41630411e+03 5.40600000e+03 1.63016126e+01
v 6.40903507e+03 5.40600000e+03 1.61601523e+01
v 6.40954321e+03 5.40600000e+03 1.62383622e+01
v 6.41518750e+03 5.40600000e+03 1.63175275e+01
v 6.41683036e+03 5.40600000e+03 1.63945246e+01
v 6.41453373e+03 5.40600000e+03 1.63163935e+01
v 6.41428095e+03 5.40600000e+03 1.63447883e+01
v 6.41238380e+03 5.40600000e+03 1.62391082e+01
v 6.42379053e+03 5.40600000e+03 4.14525197e+00
v 6.42592653e+03 5.40600000e+03 4.09671818e+00
v 6.42371239e+03 5.40600000e+03 4.19624664e+00
v 6.43503125e+03 5.40600000e+03 4.16273037e+00
v 6.43565219e+03 5.40600000e+03 4.47136983e+00
v 6.42971941e+03 5.40600000e+03 3.80133236e+00
v 6.43037225e+03 5.40600000e+03 3.58437439e+00
v 6.43589946e+03 5.40600000e+03 4.29093025e+00
v 6.43573865e+03 5.40600000e+03 4.48664791e+00
v 6.42234463e+03 5.40600000e+03 4.80286554e+00
v 6.42194878e+03 5.40600000e+03 4.91168401e+00
v 6.42937131e+03 5.40600000e+03 3.98165708e+00
v 6.42806924e+03 5.40600000e+03 4.24243354e+00
v 6.42246148e+03 5.40600000e+03 6.93765192e+00
v 6.42132507e+03 5.40600000e+03 7.02694316e+00
v 6.42167020e+03 5.40600000e+03 7.74191582e+00
v 6.42260167e+03 5.40600000e+03 7.04540885e+00
v 6.42145053e+03 5.40600000e+03 5.08623047e+00
v 6.42082144e+03 5.40600000e+03 6.67738375e+00
v 6.42060909e+03 5.40600000e+03 5.82686016e+00
v 6.41977890e+03 5.40600000e+03 6.34043930e+00
v 6.42218834e+03 5.40600000e+03 6.57693651e+00
v 6.42630887e+03 5.40600000e+03 4.10165251e+00
v 6.42786155e+03 5.40600000e+03 4.30989602e+00
v 6.43309344e+03 5.40600000e+03 3.75820816e+00
v 6.43366554e+03 5.40600000e+03 3.88249930e+00
v 6.43702935e+03 5.40600000e+03 3.97817901e+00
v 6.42610264e+03 5.40600000e+03 3.98962144e+00
v 6.42790034e+03 5.40600000e+03 4.27793614e+00
v 6.43223124e+03 5.40600000e+03 3.77925825e+00
v 6.43102277e+03 5.40600000e+03 3.47608732e+00
v 6.42130413e+03 5.40600000e+03 8.04128742e+00
v 6.43479423e+03 5.40600000e+03 1.40396204e+01
v 6.42281119e+03 5.40600000e+03 4.82453777e+00
v 6.42318814e+03 5.40600000e+03 4.92719986e+00
v 6.42417449e+03 5.40600000e+03 7.02311789e+00
v 6.42463560e+03 5.40600000e+03 7.30781095e+00
v 6.42266193e+03 5.40600000e+03 7.03215838e+00
v 6.42277693e+03 5.40600000e+03 7.07212939e+00
v 6.42551243e+03 5.40600000e+03 8.25045628e+00
v 6.42585292e+03 5.40600000e+03 9.48667991e+00
v 6.42356026e+03 5.40600000e+03 4.30099108e+00
v 6.42502181e+03 5.40600000e+03 7.60133468e+00
v 6.43421511e+03 5.40600000e+03 3.83494402e+00
v 6.42717503e+03 5.40600000e+03 1.05502453e+01
v 6.42970417e+03 5.40600000e+03 1.15310775e+01
v 6.42702951e+03 5.40600000e+03 1.04536692e+01
v 6.43432562e+03 5.40600000e+03 1.38404482e+01
v 6.40600131e+03 5.40600000e+03 1.64204263e+01
v 6.40600000e+03 5.40600000e+03 1.64205383e+01
v 6.43676496e+03 5.40600000e+03 1.47695961e+01
v 6.43773123e+03 5.40600000e+03 1.65658023e+01
v 6.43775000e+03 5.40600000e+03 1.65641611e+01
v 6.43759178e+03 5.40600000e+03 3.98076805e+00
v 6.43775000e+03 5.40600000e+03 3.99578240e+00
v 6.43748686e+03 5.40600000e+03 1.50369964e+01
v 6.43775000e+03 5.40600000e+03 1.51579152e+01
v 6.42638267e+03 5.43775000e+03 3.87961863e+00
v 6.42660249e+03 5.43775000e+03 3.73854833e+00
v 6.41769836e+03 5.43775000e+03 1.62148755e+01
v 6.41843158e+03 5.43775000e+03 1.62256258e+01
v 6.42001133e+03 5.43775000e+03 1.61998305e+01
v 6.41346405e+03 5.43775000e+03 1.63688019e+01
v 6.41352192e+03 5.43775000e+03 1.63884796e+01
v 6.43020523e+03 5.43775000e+03 1.63294740e+01
v 6.42992938e+03 5.43775000e+03 1.63935193e+01
v 6.41560672e+03 5.43775000e+03 1.64301693e+01
v 6.42966474e+03 5.43775000e+03 1.63844405e+01
v 6.43091648e+03 5.43775000e+03 1.61741366e+01
v 6.43085505e+03 5.43775000e+03 1.44840129e+01
v 6.43082900e+03 5.43775000e+03 1.43867225e+01
v 6.43084812e+03 5.43775000e+03 1.47981602e+01
v 6.41324168e+03 5.43775000e+03 2.06898023e+01
v 6.41334884e+03 5.43775000e+03 2.41599456e+01
v 6.41335465e+03 5.43775000e+03 2.44388095e+01
v 6.41323191e+03 5.43775000e+03 1.67222496e+01
v 6.41181659e+03 5.43775000e+03 2.41114517e+01
v 6.41320991e+03 5.43775000e+03 2.44037375e+01
v 6.43193995e+03 5.43775000e+03 4.36303822e+00
v 6.43160764e+03 5.43775000e+03 4.34216828e+00
v 6.42758597e+03 5.43775000e+03 4.09817872e+00
v 6.42721229e+03 5.43775000e+03 3.88280000e+00
v 6.42595715e+03 5.43775000e+03 4.45440649e+00
v 6.42884746e+03 5.43775000e+03 4.50180095e+00
v 6.43014710e+03 5.43775000e+03 4.63716577e+00
v 6.43157663e+03 5.43775000e+03 4.31719771e+00
v 6.43120932e+03 5.43775000e+03 4.46892639e+00
v 6.43344717e+03 5.43775000e+03 4.39957705e+00
v 6.43773970e+03 5.43775000e+03 3.13872536e+00
v 6.43401853e+03 5.43775000e+03 3.84866980e+00
v 6.43433648e+03 5.43775000e+03 3.49029836e+00
v 6.43520172e+03 5.43775000e+03 3.50138434e+00
v 6.43623204e+03 5.43775000e+03 3.47909143e+00
v 6.43660542e+03 5.43775000e+03 3.15874438e+00
v 6.42982439e+03 5.43775000e+03 1.19974932e+01
v 6.42907981e+03 5.43775000e+03 1.05569596e+01
v 6.42619506e+03 5.43775000e+03 5.19181617e+00
v 6.42753705e+03 5.43775000e+03 8.20307038e+00
v 6.41328148e+03 5.43775000e+03 1.63764531e+01
v 6.41246614e+03 5.43775000e+03 2.42725790e+01
v 6.41323121e+03 5.43775000e+03 1.63785314e+01
v 6.40772623e+03 5.43775000e+03 2.41050729e+01
v 6.40600000e+03 5.43775000e+03 2.41023809e+01
v 6.43701528e+03 5.43775000e+03 3.06733382e+00
v 6.43762921e+03 5.43775000e+03 3.12783627e+00
v 6.43775000e+03 5.43775000e+03 3.13782163e+00
vt 0.12012342 0.57006675
vt 0.097799242 0.56953073
vt 0.087369278 0.54779005
vt 0.10039328 0.51595199
vt 0.11794218 0.60356915
vt 0.060739577 0.54581463
vt 0.073588543 0.50087011
vt 0.11989869 0.52232611
vt 0.087244906 0.6048345
vt 0.068480946 0.50087345
vt 0.072938576 0.58950746
vt 0.086423039 0.50086105
vt 0.1201549 0.50083858
vt 0.11216743 0.62055469
vt 0.066505983 0.50087446
vt 0.054671824 0.58601463
vt 0.10374476 0.50085056
vt 0.12832963 0.50083327
vt 0.10620416 0.66851801
vt 0.031390734 0.50583506
vt 0.024911281 0.55701262
vt 0.13922855 0.50082654
vt 0.12165656 0.64727414
vt 0.051684979 0.50088513
vt 0.020032104 0.52869582
vt 0.0018185159 0.55404896
vt 0.11932679 0.68468356
vt 0.13955727 0.67238343
vt 0.033959836 0.50089747
vt 0.0018103143 0.50104177
vt 0.0018181219 0.55185378
vt 0.0018184533 0.5535183
vt 0.11801917 0.72295856
vt 0.12844884 0.67328256
vt 0.1975847 0.60302949
vt 0.031756394 0.50089896
vt 0.00181074 0.5064466
vt 0.025523394 0.50090289
vt 0.0018114174 0.5143888
vt 0.15151869 0.71506524
vt 0.098694064 0.72153211
vt 0.16829127 0.500808
vt 0.22470354 0.75424093
vt 0.029492825 0.50089955
vt 0.0018204992 0.50091565
vt 0.12523109 0.77922398
vt 0.11226607 0.74312997
vt 0.20527364 0.50078398
vt 0.24940604 0.57802683
vt 0.0018102985 0.50091565
vt 0.15212199 0.79386771
vt 0.11134167 0.75683475
vt 0.2318484 0.50076747
vt 0.21932094 0.82039738
vt 0.23201329 0.50094461
vt 0.23980102 0.65036261
vt 0.13610199 0.81584573
vt 0.093459174 0.79273695
vt 0.2299317 0.77369964
vt 0.24985912 0.50712633
vt 0.23772299 0.71765286
vt 0.2498713 0.5798136
vt 0.20208259 0.89313233
vt 0.14434902 0.83285475
vt 0.10949202 0.80990922
vt 0.092620105 0.75864065
vt 0.23221697 0.50076723
vt 0.24987036 0.57478786
vt 0.24985752 0.50090283
vt 0.24438539 0.67559481
vt 0.24987756 0.61574906
vt 0.24987088 0.57746655
vt 0.14237213 0.89061493
vt 0.22082449 0.84094924
vt 0.10683575 0.85473108
vt 0.084538914 0.8128733
vt 0.24560452 0.64710426
vt 0.24988014 0.63040584
vt 0.18883997 0.99689078
vt 0.21314511 0.88831651
vt 0.085857794 0.83627445
vt 0.24971089 0.5007534
vt 0.18677247 0.99689221
vt 0.19099545 0.99689001
vt 0.20541613 0.94579571
vt 0.093440726 0.92145193
vt 0.094671898 0.87352633
vt 0.0758233 0.87099618
vt 0.2498575 0.50075334
vt 0.24988061 0.63131529
vt 0.11135595 0.99694294
vt 0.19756348 0.98745239
vt 0.09100014 0.8911671
vt 0.099013925 0.99695069
vt 0.080185078 0.87597132
vt 0.19655298 0.99688798
vt 0.072045319 0.90346497
vt 0.093285695 0.99695456
vt 0.071906008 0.9359839
vt 0.084195957 0.95962876
vt 0.086334251 0.93888611
vt 0.065792158 0.94408995
vt 0.076943383 0.99696302
vt 0.058580477 0.99564826
vt 0.060656067 0.99697399
vt 0.060204096 0.99697447
vt 0.058777686 0.9969753
vt 0.058384955 0.99697554
vt 0.35374475 0.50085056
vt 0.35039327 0.51595199
vt 0.33231226 0.50086462
vt 0.38922855 0.50082654
vt 0.36794218 0.60356915
vt 0.36989868 0.52232611
vt 0.51036948 0.51571822
vt 0.50271362 0.51882696
vt 0.50154412 0.50544357
vt 0.51548839 0.50138807
vt 0.50850946 0.53004861
vt 0.51927781 0.51096201
vt 0.5033192 0.50093579
vt 0.52724522 0.50092149
vt 0.51544833 0.5009259
vt 0.50170869 0.500938
vt 0.5137009 0.54684663
vt 0.51707131 0.50092548
vt 0.52996582 0.50092155
vt 0.51575154 0.50092602
vt 0.52422309 0.55449867
vt 0.52930564 0.5082854
vt 0.52774888 0.52652371
vt 0.53506744 0.50092041
vt 0.54269099 0.53092438
vt 0.54981011 0.51211655
vt 0.52499068 0.56565499
vt 0.54015028 0.50091815
vt 0.54110771 0.571311
vt 0.54958969 0.50090903
vt 0.56365401 0.54477489
vt 0.55355728 0.5535453
vt 0.53357202 0.58755648
vt 0.55632579 0.50090486
vt 0.56750476 0.52045137
vt 0.56280655 0.57876825
vt 0.54899102 0.59325695
vt 0.52340609 0.57801151
vt 0.57293254 0.53621352
vt 0.52387315 0.59800947
vt 0.56079459 0.50090075
vt 0.58061099 0.52890337
vt 0.58102256 0.55884016
vt 0.56900889 0.5908792
vt 0.57307178 0.50737607
vt 0.58484721 0.54375374
vt 0.55307037 0.60963595
vt 0.56508839 0.50089842
vt 0.58173698 0.51677716
vt 0.59270698 0.53668982
vt 0.58448505 0.57213062
vt 0.59270746 0.55747575
vt 0.56176835 0.61061907
vt 0.57146263 0.50089097
vt 0.57713741 0.50231504
vt 0.59270692 0.53626502
vt 0.58179313 0.60420215
vt 0.59270751 0.55778873
vt 0.57744962 0.61825204
vt 0.58987963 0.50562298
vt 0.59270692 0.5359441
vt 0.58758205 0.58873236
vt 0.59270763 0.55806476
vt 0.56792915 0.62793404
vt 0.57631189 0.50088477
vt 0.57824475 0.50088537
vt 0.59270662 0.53364015
vt 0.59061956 0.63033235
vt 0.57769829 0.63725436
vt 0.55189592 0.66005778
vt 0.57698733 0.50088418
vt 0.58707392 0.50088274
vt 0.59270257 0.51409638
vt 0.5927223 0.61114269
vt 0.57059121 0.64656913
vt 0.59146792 0.50087988
vt 0.5927012 0.50574303
vt 0.57027656 0.66784328
vt 0.59272569 0.62467945
vt 0.5583927 0.66331202
vt 0.5927031 0.50411308
vt 0.58586234 0.67009974
vt 0.59272736 0.64294875
vt 0.55827099 0.71328646
vt 0.59270388 0.50087893
vt 0.5758307 0.69047415
vt 0.54433316 0.71254921
vt 0.59272867 0.66136372
vt 0.58022463 0.71884519
vt 0.56984353 0.70386839
vt 0.54380608 0.75220793
vt 0.54282838 0.70057988
vt 0.59273022 0.67306256
vt 0.58220088 0.73506677
vt 0.569098 0.75082529
vt 0.5419814 0.73330224
vt 0.54898804 0.65535128
vt 0.56060445 0.77581304
vt 0.53901464 0.73469043
vt 0.59273791 0.72150695
vt 0.57547468 0.76507539
vt 0.54294008 0.7808224
vt 0.53727627 0.76036853
vt 0.59274322 0.75865364
vt 0.57924819 0.78759795
vt 0.55591953 0.79650855
vt 0.56446469 0.81426179
vt 0.59274369 0.76149768
vt 0.54688793 0.80734426
vt 0.53227109 0.77293926
vt 0.57460737 0.84096861
vt 0.58661133 0.82498425
vt 0.53166264 0.79353684
vt 0.53119147 0.78394699
vt 0.56078637 0.82961679
vt 0.59274459 0.766653
vt 0.52938628 0.82064229
vt 0.57850808 0.89040136
vt 0.5603615 0.88704181
vt 0.59275281 0.8001107
vt 0.55175424 0.82586384
vt 0.53221357 0.84270018
vt 0.59059852 0.83563852
vt 0.54715925 0.8575142
vt 0.52630389 0.84259975
vt 0.56924087 0.90913248
vt 0.58058381 0.91077101
vt 0.54749352 0.90050387
vt 0.59275734 0.81557
vt 0.51991045 0.86338419
vt 0.52059239 0.83326495
vt 0.57052308 0.94086081
vt 0.55032563 0.92664444
vt 0.59276837 0.88085109
vt 0.53215075 0.89310831
vt 0.59275985 0.82794988
vt 0.52006578 0.88633251
vt 0.55713898 0.94112319
vt 0.59276211 0.84081161
vt 0.59277439 0.91715634
vt 0.56853825 0.97672594
vt 0.53989422 0.91141546
vt 0.53957707 0.92713141
vt 0.51511371 0.89160627
vt 0.56086397 0.97673637
vt 0.54767042 0.95721787
vt 0.58672625 0.95862657
vt 0.52187461 0.89998674
vt 0.59277725 0.92818034
vt 0.55916595 0.99699181
vt 0.5728786 0.99699187
vt 0.5224238 0.93181837
vt 0.53731012 0.94114596
vt 0.51660031 0.91546237
vt 0.54739094 0.99699986
vt 0.59277946 0.93816406
vt 0.56363291 0.99699444
vt 0.58092809 0.99698687
vt 0.56611896 0.99699634
vt 0.53130317 0.95674711
vt 0.50952756 0.92798752
vt 0.54479486 0.99700171
vt 0.59278327 0.96370614
vt 0.58384705 0.99698812
vt 0.54481936 0.981309
vt 0.51401228 0.92691916
vt 0.59278512 0.97227192
vt 0.52128881 0.96976846
vt 0.53650206 0.98889178
vt 0.51044798 0.94123089
vt 0.54455274 0.99700212
vt 0.5870496 0.99698699
vt 0.59184557 0.99698323
vt 0.5110485 0.96077055
vt 0.52323002 0.99701416
vt 0.54168224 0.99700248
vt 0.59270871 0.99698257
vt 0.50675446 0.98869878
vt 0.50631243 0.9606002
vt 0.53338265 0.99700624
vt 0.51337695 0.99702454
vt 0.59278893 0.99551308
vt 0.59278917 0.99698251
vt 0.50324827 0.98238337
vt 0.51045883 0.99702859
vt 0.50397742 0.99703282
vt 0.50569552 0.99703306
vt 0.38873225 0.56163102
vt 0.37772354 0.57622653
vt 0.37677756 0.57461601
vt 0.37677222 0.55738354
vt 0.40860102 0.57334983
vt 0.37677789 0.57562256
vt 0.42094454 0.58902168
vt 0.37677836 0.57840723
vt 0.42905322 0.58455843
vt 0.43418849 0.61349463
vt 0.37678444 0.61713636
vt 0.44483969 0.59596497
vt 0.37680468 0.74273896
vt 0.4661243 0.60676622
vt 0.47199792 0.61441767
vt 0.37681875 0.82986677
vt 0.47788385 0.63293862
vt 0.40323514 0.85969502
vt 0.48804611 0.62000757
vt 0.46881026 0.69062078
vt 0.45024791 0.81669641
vt 0.37683132 0.90776491
vt 0.48592991 0.63791287
vt 0.44653833 0.72605157
vt 0.43991804 0.89406055
vt 0.42881802 0.95596206
vt 0.47001606 0.7470687
vt 0.45501867 0.85234565
vt 0.37684223 0.97523963
vt 0.44332084 0.93514192
vt 0.42228806 0.99690604
vt 0.43430233 0.99689502
vt 0.39033195 0.99692684
vt 0.42736173 0.99690115
vt 0.43317175 0.99689609
vt 0.37684575 0.99693567
vt 0.74071217 0.9646579
vt 0.74837941 0.99556839
vt 0.73961109 0.99403632
vt 0.71396482 0.99042821
vt 0.75551373 0.96759224
vt 0.71624947 0.96509141
vt 0.7577334 0.88407779
vt 0.7731353 0.99443632
vt 0.68520111 0.99100727
vt 0.7240575 0.87058604
vt 0.78956127 0.87640029
vt 0.809322 0.9664039
vt 0.66383743 0.96350288
vt 0.69516098 0.84797627
vt 0.7912854 0.80181956
vt 0.7618379 0.80468559
vt 0.80252749 0.9958871
vt 0.66328371 0.98983085
vt 0.68388087 0.91467881
vt 0.72148651 0.82365537
vt 0.81017226 0.80343401
vt 0.83119929 0.85249686
vt 0.73011476 0.79763633
vt 0.82966644 0.96915907
vt 0.64978063 0.98289227
vt 0.64374959 0.91600668
vt 0.66703105 0.8724941
vt 0.70990312 0.79413581
vt 0.77644521 0.79002357
vt 0.83295935 0.9285596
vt 0.73558015 0.78921163
vt 0.8297497 0.9676007
vt 0.82474726 0.99512666
vt 0.64131254 0.97134751
vt 0.6428721 0.96709287
vt 0.67666566 0.8154816
vt 0.69733042 0.80604142
vt 0.82637143 0.79639661
vt 0.7643488 0.79522711
vt 0.83533752 0.90472734
vt 0.73976564 0.78273773
vt 0.82968783 0.97399879
vt 0.64082849 0.98841977
vt 0.63971561 0.95750225
vt 0.6500628 0.87183231
vt 0.65956783 0.81227291
vt 0.69277596 0.78645074
vt 0.72233421 0.78741831
vt 0.83756542 0.79346758
vt 0.81584221 0.78881776
vt 0.84026372 0.86509573
vt 0.75306779 0.78761727
vt 0.82946682 0.99540526
vt 0.62715244 0.93687224
vt 0.6696164 0.78691018
vt 0.69762594 0.78362906
vt 0.8453114 0.80383313
vt 0.84455091 0.81573033
vt 0.76241779 0.79680026
vt 0.65024573 0.82064277
vt 0.65994924 0.78538465
vt 0.70805901 0.78469652
vt 0.84395528 0.79584998
vt 0.64563638 0.799034
vt 0.64708215 0.78140384
vt 0.67057848 0.78248507
vt 0.67924249 0.61685324
vt 0.69866031 0.61999643
vt 0.69240034 0.7424227
vt 0.63607877 0.73886609
vt 0.72469503 0.69439203
vt 0.62685305 0.69032204
vt 0.72671419 0.62121224
vt 0.7465772 0.74369478
vt 0.62704176 0.73752069
vt 0.62704474 0.65745527
vt 0.78557283 0.67443621
vt 0.6519779 0.61592615
vt 0.75680274 0.62172812
vt 0.78914571 0.74565768
vt 0.62765002 0.62031806
vt 0.77316588 0.6199888
vt 0.82103413 0.74185759
vt 0.79426211 0.62404203
vt 0.821015 0.74617898
vt 0.82138342 0.68800926
vt 0.8207404 0.6212905
vt 0.82142311 0.62668043
vt 0.82142603 0.62136769
vt 0.91982204 0.95095468
vt 0.94673979 0.95700532
vt 0.94466442 0.97218388
vt 0.933447 0.98777473
vt 0.92701501 0.8578192
vt 0.95924157 0.95640945
vt 0.91804653 0.95506752
vt 0.94912785 0.86695051
vt 0.90459657 0.84476066
vt 0.98424625 0.90399784
vt 0.92571241 0.98272544
vt 0.91622394 0.94822913
vt 0.97044003 0.85200536
vt 0.95545083 0.80493975
vt 0.89825153 0.877258
vt 0.93015832 0.77949846
vt 0.97316271 0.93696779
vt 0.93030477 0.99483955
vt 0.94255334 0.79220259
vt 0.88841391 0.84131294
vt 0.90631247 0.80613178
vt 0.9285205 0.99285686
vt 0.93741101 0.76493526
vt 0.91290897 0.77921349
vt 0.92954385 0.99678969
vt 0.88784814 0.83883411
vt 0.92851031 0.77157688
vt 0.89348716 0.76382256
vt 0.88327527 0.81688821
vt 0.90940881 0.76158977
vt 0.88195884 0.80075455
vt 0.88005376 0.78908819
vt 0.87855256 0.78212893
vt 0.88675922 0.74584067
vt 0.87675977 0.77449256
vt 0.87867749 0.75150263
vt 0.30471441 0.86731339
vt 0.29193947 0.81195939
vt 0.34221467 0.85765678
vt 0.2840471 0.86822808
vt 0.30536273 0.74368292
vt 0.25188863 0.81748164
vt 0.25189057 0.75115287
vt 0.3382985 0.7410351
vt 0.25188586 0.82309824
vt 0.25189123 0.74923337
vt 0.36478707 0.78019726
vt 0.25188142 0.83028221
vt 0.36455658 0.81298363
vt 0.36352599 0.74365783
vt 0.26395214 0.87106502
vt 0.36439255 0.85973692
vt 0.25186107 0.86885554
vt 0.2519142 0.87142789
vt 0.04299549 0.99064028
vt 0.026244309 0.99528301
vt 0.0023740139 0.99485356
vt 0.012805897 0.95007241
vt 0.0053067445 0.9776178
vt 0.0048297127 0.97626728
vt 0.010280603 0.95099354
vt 0.016202543 0.9681356
vt 0.004629971 0.97766685
vt 0.010730701 0.94791496
vt 0.016529651 0.98413968
vt 0.019512219 0.94888908
vt 0.0042410782 0.98044425
vt 0.0057203542 0.99179757
vt 0.021681814 0.97605848
vt 0.026709553 0.9488318
vt 0.0032873596 0.99080831
vt 0.0088782329 0.99639785
vt 0.025448084 0.96477067
vt 0.0023261653 0.9941951
vt 0.036784694 0.96077538
vt 0.036344267 0.94873005
vt 0.33549917 0.98462576
vt 0.32560188 0.99085212
vt 0.32662794 0.98583615
vt 0.33653161 0.98505509
vt 0.31980976 0.97987276
vt 0.33336908 0.97906375
vt 0.32931802 0.9968335
vt 0.32269859 0.98041314
vt 0.32761815 0.95613194
vt 0.33659282 0.9862954
vt 0.32104585 0.96735823
vt 0.33377555 0.95457101
vt 0.33706328 0.98610079
vt 0.31456259 0.9751088
vt 0.33150843 0.95352769
vt 0.34406766 0.96811521
vt 0.33796075 0.98672885
vt 0.31814718 0.9849776
vt 0.33459896 0.95191586
vt 0.34179026 0.95620072
vt 0.34887025 0.98617136
vt 0.3382408 0.95231223
vt 0.23253091 0.98502719
vt 0.22038056 0.97749358
vt 0.22831923 0.9654544
vt 0.24393718 0.95281041
vt 0.24632567 0.97274685
vt 0.24542253 0.99636555
vt 0.25006628 0.95773739
vt 0.35470155 0.9817903
vt 0.34687227 0.98718607
vt 0.34740004 0.98662573
vt 0.35466337 0.99651718
vt 0.34682658 0.98698854
vt 0.36149558 0.99151593
vt 0.34532869 0.99693221
vt 0.34656233 0.98712701
vt 0.35634795 0.9819206
vt 0.34616175 0.99117637
vt 0.3567895 0.98077428
vt 0.370698 0.99353325
vt 0.37040451 0.97320151
vt 0.60144359 0.99627048
vt 0.59550953 0.99104887
vt 0.59844577 0.98415107
vt 0.60900766 0.97346878
vt 0.61313879 0.97312915
vt 0.61583185 0.99049646
vt 0.0099100936 0.99646473
vt 0.027357981 0.98294079
vt 0.014008866 0.99694461
vt 0.62346387 0.98641604
vt 0.62797904 0.98267049
vt 0.62692171 0.99685419
vt 0.62188339 0.97233444
vt 0.62951249 0.99324208
vt 0.61939484 0.9788627
vt 0.034728672 0.99677694
vt 0.032759041 0.98940033
vt 0.039912526 0.98471195
vt 0.043619607 0.99667954
vt 0.040802952 0.99201137
vt 0.043655336 0.99068505
usemtl Tile_+032_+022_L19_000303_0
f 238/296 102/297 243/298
f 241/1 229/2 223/3
f 224/4 240/8 241/1
f 237/300 239/302 102/297
f 235/304 239/302 237/300
f 203/115 221/116 196/117
f 115/9 225/11 229/2
f 166/421 171/422 263/423
f 265/69 242/55 316/67
f 130/49 135/35 242/55
f 322/42 127/5 323/22
f 317/53 135/35 324/48
f 223/3 224/4 241/1
f 323/22 240/8 325/18
f 235/457 236/458 104/459
f 127/5 229/2 241/1
f 127/475 241/476 240/477
f 326/13 224/4 327/17
f 115/9 229/2 127/5
f 239/302 235/304 103/305
f 102/297 238/296 237/300
f 239/302 103/305 102/297
f 237/460 236/458 235/457
f 121/307 103/305 235/304
f 104/309 121/307 235/304
f 197/461 236/458 248/463
f 237/460 238/471 250/468
f 247/462 237/460 252/465
f 329/38 255/30 384/45
f 198/21 197/16 251/26
f 331/7 223/3 333/10
f 229/2 225/11 226/6
f 223/3 229/2 226/6
f 333/10 226/6 334/15
f 198/21 227/25 226/6
f 334/15 228/20 335/24
f 226/6 225/11 197/16
f 197/16 225/11 115/9
f 228/20 226/6 227/25
f 255/30 227/25 257/37
f 206/141 219/148 176/146
f 208/139 217/147 214/151
f 2/155 202/145 86/152
f 199/144 86/152 202/145
f 188/120 172/125 209/119
f 187/130 193/134 194/133
f 173/444 169/441 179/448
f 211/153 215/150 207/143
f 196/478 177/479 336/480
f 273/526 200/527 274/528
f 173/539 190/540 172/541
f 214/151 222/154 275/160
f 277/158 215/150 278/164
f 216/163 211/153 339/162
f 203/115 188/120 209/119
f 177/479 183/482 185/485
f 196/478 221/486 183/482
f 190/495 184/493 209/490
f 347/122 210/118 348/126
f 217/147 215/150 222/154
f 165/519 219/520 206/521
f 188/120 175/129 172/125
f 219/443 204/436 176/447
f 173/444 176/447 204/436
f 349/497 182/498 350/499
f 351/503 181/500 352/506
f 353/505 181/500 357/502
f 189/516 180/512 220/508
f 215/150 217/147 207/143
f 212/157 213/168 271/175
f 214/151 217/147 222/154
f 194/133 175/129 195/131
f 174/135 175/129 194/133
f 203/115 196/117 210/118
f 210/118 196/117 358/121
f 188/120 203/115 210/118
f 86/152 214/151 191/159
f 282/536 218/531 283/534
f 208/139 214/151 86/152
f 218/531 191/529 273/526
f 211/153 216/163 212/157
f 86/152 199/144 208/139
f 207/143 217/147 208/139
f 207/143 193/134 360/142
f 191/159 214/151 276/166
f 213/168 216/163 343/174
f 212/157 215/150 211/153
f 176/146 174/135 206/141
f 183/482 221/486 209/490
f 194/133 201/140 186/137
f 193/134 208/139 194/133
f 208/139 193/134 207/143
f 205/428 170/433 171/422
f 204/436 219/443 165/439
f 169/441 204/436 167/429
f 168/425 167/429 204/436
f 171/422 166/421 168/425
f 171/422 168/425 205/428
f 319/548 182/549 367/550
f 206/521 202/522 165/519
f 205/428 168/425 192/434
f 226/6 197/16 198/21
f 236/458 197/461 104/459
f 197/461 115/464 104/459
f 202/522 2/525 75/523
f 200/527 191/529 285/532
f 193/134 187/130 342/132
f 201/140 199/144 186/137
f 130/49 242/55 266/60
f 368/427 264/424 386/431
f 245/31 198/21 256/32
f 179/489 184/493 190/495
f 183/482 179/489 185/485
f 195/131 187/130 194/133
f 175/129 188/120 195/131
f 203/115 209/119 221/116
f 44/165 86/152 191/159
f 191/159 218/170 44/165
f 202/145 186/137 199/144
f 206/141 186/137 202/145
f 189/516 220/508 345/515
f 177/479 196/478 183/482
f 278/164 212/157 279/169
f 185/485 180/492 189/488
f 213/168 212/157 216/163
f 172/496 190/495 209/490
f 195/131 188/120 187/130
f 371/455 185/454 372/453
f 341/127 188/120 347/122
f 183/482 184/493 179/489
f 173/444 204/436 169/441
f 350/499 178/501 354/504
f 173/444 179/448 190/450
f 181/500 180/512 371/517
f 177/479 189/488 370/491
f 372/453 179/448 378/452
f 189/488 177/479 185/485
f 175/542 174/543 173/539
f 172/541 175/542 173/539
f 176/544 173/539 174/543
f 180/512 181/500 220/508
f 208/139 199/144 201/140
f 194/133 186/137 174/135
f 165/519 202/522 75/523
f 208/139 201/140 194/133
f 211/153 207/143 361/149
f 184/493 183/482 209/490
f 145/430 171/422 170/433
f 169/441 167/429 380/440
f 204/436 165/439 168/425
f 192/434 168/425 165/439
f 287/426 145/430 290/437
f 381/435 166/421 383/432
f 179/448 169/441 375/451
f 186/137 206/141 174/135
f 167/429 168/425 166/421
f 393/294 13/286 394/295
f 112/398 164/399 110/400
f 395/98 98/86 396/94
f 108/312 105/310 106/314
f 157/64 156/51 162/73
f 139/332 140/333 136/334
f 95/99 117/102 99/97
f 112/41 153/52 149/58
f 133/56 132/70 146/61
f 396/94 162/73 397/91
f 23/240 26/235 22/249
f 144/40 136/54 156/51
f 114/19 127/5 125/23
f 103/305 109/315 118/319
f 110/400 111/401 112/398
f 93/408 117/415 85/418
f 258/317 88/321 259/324
f 101/316 90/320 119/313
f 8/397 59/386 1/392
f 58/172 8/178 2/155
f 70/217 51/214 52/215
f 28/252 32/245 20/256
f 147/63 142/92 400/84
f 147/63 136/54 140/74
f 148/46 158/57 159/65
f 157/64 158/57 156/51
f 156/51 148/46 144/40
f 109/315 103/305 108/312
f 110/322 101/316 109/315
f 109/315 101/316 118/319
f 110/400 120/402 91/405
f 92/76 97/81 96/88
f 120/402 110/400 164/399
f 92/404 120/402 164/399
f 151/87 150/75 161/93
f 399/105 160/100 402/103
f 162/73 147/63 401/79
f 147/63 162/73 156/51
f 158/57 157/64 159/65
f 164/66 149/58 92/76
f 129/28 144/40 124/27
f 158/57 148/46 156/51
f 144/40 129/28 131/43
f 131/43 136/54 144/40
f 146/340 122/344 155/337
f 146/61 131/43 133/56
f 136/54 131/43 141/59
f 140/74 163/80 147/63
f 143/85 142/92 147/63
f 98/86 161/93 150/75
f 160/100 94/101 98/86
f 150/75 162/73 98/86
f 405/355 234/343 406/363
f 142/364 143/348 405/355
f 139/332 136/334 141/335
f 140/333 137/336 163/339
f 139/332 137/336 140/333
f 137/336 139/332 138/338
f 154/342 137/336 138/338
f 150/75 159/65 157/64
f 112/41 149/58 164/66
f 116/33 124/27 144/40
f 153/52 112/41 152/47
f 150/75 151/87 97/81
f 156/51 136/54 147/63
f 162/73 150/75 157/64
f 150/75 97/81 149/58
f 144/40 148/46 116/33
f 112/41 116/33 152/47
f 153/52 148/46 149/58
f 92/76 149/58 97/81
f 148/46 153/52 116/33
f 129/28 135/35 131/43
f 131/43 146/61 141/59
f 122/344 132/349 134/356
f 133/56 130/49 269/62
f 127/5 135/35 129/28
f 129/28 126/34 125/23
f 124/27 126/34 129/28
f 125/23 127/5 129/28
f 114/19 125/23 124/27
f 122/344 134/356 293/365
f 111/401 106/406 107/403
f 131/43 130/49 133/56
f 132/349 122/344 146/340
f 134/77 133/56 292/78
f 133/56 134/77 132/70
f 135/35 130/49 131/43
f 126/34 124/27 125/23
f 128/14 127/5 114/19
f 107/469 104/459 113/467
f 128/470 113/467 115/464
f 128/14 115/9 127/5
f 104/459 115/464 113/467
f 124/27 116/33 114/19
f 112/41 114/19 116/33
f 107/403 113/407 112/398
f 106/314 111/318 108/312
f 111/401 107/403 112/398
f 108/312 111/318 109/315
f 111/318 110/322 109/315
f 104/309 106/314 105/310
f 104/459 107/469 106/472
f 105/310 103/305 121/307
f 103/305 119/313 260/311
f 101/316 119/313 103/305
f 89/411 93/408 409/414
f 408/417 85/418 411/419
f 117/102 95/99 85/104
f 99/413 117/415 93/408
f 90/320 101/316 91/323
f 99/413 93/408 96/410
f 96/88 100/95 99/97
f 98/86 95/99 99/97
f 100/95 96/88 97/81
f 96/410 93/408 92/404
f 93/408 89/411 91/405
f 119/313 90/320 88/321
f 121/307 104/309 105/310
f 101/316 103/305 118/319
f 91/323 101/316 110/322
f 91/323 89/325 90/320
f 89/325 88/321 90/320
f 88/321 89/325 410/327
f 10/278 27/282 14/287
f 19/260 11/274 34/262
f 53/239 54/225 18/233
f 18/233 17/230 29/238
f 69/236 68/227 87/241
f 23/240 36/234 61/226
f 68/227 31/232 57/223
f 77/254 24/253 414/263
f 31/232 55/229 57/223
f 23/240 24/253 37/246
f 77/254 72/273 33/268
f 35/261 77/254 33/268
f 35/261 33/268 19/260
f 87/241 37/246 77/254
f 11/274 19/260 10/278
f 82/203 45/192 65/202
f 42/190 46/186 43/176
f 64/197 65/202 45/192
f 65/202 66/209 82/203
f 54/225 84/221 70/217
f 44/165 40/167 86/152
f 39/161 86/152 40/167
f 2/396 1/392 74/377
f 84/372 54/383 38/347
f 60/220 62/213 300/216
f 60/220 76/219 62/213
f 297/201 42/190 302/196
f 66/209 65/202 62/213
f 82/203 66/209 78/206
f 45/192 46/186 63/198
f 16/243 31/232 69/236
f 52/215 57/223 70/217
f 15/251 21/250 69/236
f 68/227 76/219 61/226
f 87/241 15/251 69/236
f 76/219 68/227 57/223
f 13/286 30/276 416/289
f 73/353 9/352 14/369
f 74/377 192/391 75/395
f 419/283 71/277 420/288
f 33/268 72/273 71/277
f 71/277 72/273 421/279
f 97/81 151/87 100/95
f 70/217 55/229 17/230
f 5/387 4/393 6/359
f 26/235 61/226 3/231
f 42/190 81/194 46/186
f 49/378 5/387 6/359
f 19/260 33/268 30/276
f 72/273 77/254 415/270
f 155/337 141/335 146/340
f 6/207 4/204 56/199
f 56/199 82/203 78/206
f 60/220 3/231 61/226
f 58/172 2/155 40/167
f 7/188 8/178 67/183
f 65/202 64/197 42/190
f 63/198 81/194 64/197
f 26/235 23/240 61/226
f 46/186 67/183 41/177
f 45/192 63/198 64/197
f 66/209 62/213 52/215
f 76/219 60/220 61/226
f 64/197 81/194 42/190
f 8/178 7/188 45/192
f 1/392 2/396 8/397
f 43/176 46/186 41/177
f 43/176 44/165 289/182
f 42/190 43/176 298/191
f 311/242 3/231 312/247
f 43/176 41/177 40/167
f 39/161 40/167 2/155
f 9/269 34/262 11/274
f 38/554 53/555 18/556
f 75/395 2/396 74/377
f 56/199 80/210 50/211
f 45/192 82/203 56/199
f 51/214 78/206 52/215
f 56/199 50/211 6/207
f 49/200 8/178 5/195
f 6/359 79/354 48/351
f 29/360 38/347 18/370
f 9/269 28/252 34/262
f 23/240 37/246 36/234
f 28/252 20/256 34/262
f 36/234 68/227 61/226
f 423/258 22/249 425/265
f 22/249 24/253 23/240
f 15/251 35/261 19/260
f 19/260 34/262 20/256
f 69/236 21/250 16/243
f 9/352 10/381 14/369
f 19/260 16/243 15/251
f 12/292 14/287 13/286
f 30/276 27/282 10/278
f 14/287 27/282 13/286
f 427/259 25/255 428/266
f 26/235 25/255 22/249
f 306/248 26/235 311/242
f 9/269 11/274 10/278
f 40/167 44/165 43/176
f 38/347 28/346 138/338
f 48/351 83/341 230/345
f 28/346 9/352 154/342
f 170/433 205/428 192/434
f 154/342 138/338 28/346
f 137/336 234/343 163/339
f 139/332 155/337 83/341
f 83/341 138/338 139/332
f 138/338 83/341 38/347
f 9/352 73/353 154/342
f 86/152 39/161 2/155
f 159/65 150/75 149/58
f 143/348 163/339 234/343
f 141/335 155/337 139/332
f 145/357 232/358 123/350
f 54/383 53/390 38/347
f 7/188 46/186 45/192
f 159/65 149/58 148/46
f 20/256 16/243 19/260
f 155/337 123/350 230/345
f 55/229 31/232 17/230
f 58/172 41/177 67/183
f 122/344 123/350 155/337
f 153/52 152/47 116/33
f 147/63 163/80 143/85
f 161/93 100/95 151/87
f 98/86 99/97 161/93
f 234/343 137/336 154/342
f 154/342 73/353 234/343
f 430/361 73/353 431/371
f 92/404 93/408 120/402
f 145/357 122/344 294/366
f 170/376 232/358 145/357
f 105/310 108/312 103/305
f 128/412 114/409 113/407
f 112/398 113/407 114/409
f 254/303 103/305 262/306
f 120/402 93/408 91/405
f 98/86 94/101 95/99
f 85/104 95/99 160/100
f 99/97 100/95 161/93
f 95/99 94/101 160/100
f 27/282 30/276 13/286
f 77/254 35/261 15/251
f 87/241 77/254 15/251
f 30/276 33/268 71/277
f 16/243 21/250 15/251
f 10/278 19/260 30/276
f 31/232 68/227 69/236
f 80/210 56/199 78/206
f 47/222 79/218 80/210
f 79/354 6/359 50/379
f 78/206 51/214 80/210
f 300/216 65/202 310/212
f 62/213 76/219 52/215
f 80/210 70/217 84/221
f 84/221 47/222 80/210
f 79/218 50/211 80/210
f 70/217 80/210 51/214
f 6/359 233/368 49/378
f 45/192 56/199 5/195
f 1/392 59/386 74/377
f 49/378 233/368 231/367
f 48/351 79/354 83/341
f 49/200 59/205 8/178
f 81/194 63/198 46/186
f 52/215 78/206 66/209
f 57/223 55/229 70/217
f 37/246 24/253 77/254
f 52/215 76/219 57/223
f 14/369 12/380 73/353
f 233/368 230/345 231/367
f 6/359 48/351 230/345
f 59/386 49/378 231/367
f 232/358 170/376 74/377
f 46/186 7/188 67/183
f 37/246 87/241 36/234
f 303/275 25/255 309/271
f 3/231 60/220 305/228
f 8/178 58/172 67/183
f 56/199 4/204 5/195
f 58/172 40/167 41/177
f 45/192 5/195 8/178
f 54/225 70/217 17/230
f 31/232 16/243 17/230
f 17/230 18/233 54/225
f 38/347 79/354 47/362
f 47/362 84/372 38/347
f 73/353 12/380 418/388
f 17/230 16/243 32/245
f 29/238 17/230 32/245
f 20/256 32/245 16/243
f 32/245 28/252 29/238
f 28/346 38/347 29/360
f 83/341 79/354 38/347
f 74/377 59/386 231/367
f 145/357 123/350 122/344
f 230/345 232/358 231/367
f 233/368 6/359 230/345
f 232/358 74/377 231/367
f 192/524 165/519 75/523
f 155/337 230/345 83/341
f 74/377 170/376 192/391
f 68/227 36/234 87/241
f 123/350 232/358 230/345
f 243/298 102/297 253/301
f 244/299 238/296 243/298
f 245/31 227/25 198/21
f 246/39 227/25 245/31
f 247/462 236/458 237/460
f 248/463 236/458 247/462
f 249/473 238/471 244/474
f 250/468 238/471 249/473
f 251/466 197/461 248/463
f 252/465 237/460 250/468
f 253/301 102/297 254/303
f 254/303 102/297 103/305
f 255/30 228/20 227/25
f 256/32 198/21 251/26
f 257/37 227/25 246/39
f 258/317 119/313 88/321
f 259/324 88/321 412/326
f 260/311 119/313 258/317
f 261/308 103/305 260/311
f 262/306 103/305 261/308
f 263/423 171/422 287/426
f 264/424 166/421 263/423
f 266/60 242/55 265/69
f 267/72 130/49 268/68
f 268/68 130/49 266/60
f 269/62 130/49 267/72
f 270/181 213/168 272/185
f 271/175 213/168 270/181
f 272/557 213/558 280/559
f 273/526 191/529 200/527
f 274/528 200/527 281/530
f 275/160 222/154 277/158
f 276/166 214/151 275/160
f 277/158 222/154 215/150
f 278/164 215/150 212/157
f 279/169 212/157 271/175
f 280/189 213/168 389/184
f 281/530 200/527 284/533
f 282/536 44/537 218/531
f 283/534 218/531 273/526
f 284/533 200/527 286/535
f 285/171 191/159 276/166
f 286/535 200/527 285/532
f 287/426 171/422 145/430
f 386/431 288/438 391/442
f 289/538 44/537 282/536
f 290/385 145/357 315/375
f 291/71 133/56 269/62
f 292/78 133/56 291/71
f 293/365 134/356 295/374
f 294/366 122/344 293/365
f 295/90 134/77 292/78
f 296/208 65/202 297/201
f 297/201 65/202 42/190
f 298/191 43/176 299/187
f 299/187 43/176 289/182
f 300/216 62/213 65/202
f 301/224 60/220 300/216
f 302/196 42/190 298/191
f 429/272 303/275 439/280
f 303/275 304/290 424/285
f 305/228 60/220 301/224
f 306/248 25/255 26/235
f 307/257 25/255 306/248
f 308/264 25/255 307/257
f 309/271 25/255 308/264
f 310/212 65/202 296/208
f 311/242 26/235 3/231
f 312/247 3/231 313/244
f 313/244 3/231 314/237
f 314/237 3/231 305/228
f 315/375 145/357 294/366
f 316/67 242/55 317/53
f 317/53 242/55 135/35
f 318/553 178/551 319/548
f 319/548 178/551 182/549
f 320/29 228/20 321/36
f 321/36 228/20 330/44
f 322/42 135/35 127/5
f 323/112 127/113 240/114
f 324/48 135/35 322/42
f 325/18 240/8 326/13
f 326/13 240/8 224/4
f 327/109 224/110 328/111
f 328/545 224/546 332/547
f 329/38 228/20 255/30
f 330/44 228/20 329/38
f 331/7 224/4 223/3
f 332/12 224/4 331/7
f 333/10 223/3 226/6
f 334/15 226/6 228/20
f 335/24 228/20 320/29
f 336/480 177/479 338/483
f 337/481 196/478 336/480
f 338/483 177/479 377/487
f 339/162 211/153 379/156
f 340/173 216/163 339/162
f 341/127 187/130 188/120
f 342/132 187/130 341/127
f 343/174 216/163 344/179
f 344/179 216/163 340/173
f 345/515 220/508 346/511
f 346/511 220/508 353/505
f 347/122 188/120 210/118
f 348/126 210/118 364/128
f 349/497 181/500 182/498
f 350/499 182/498 178/501
f 351/503 182/498 181/500
f 352/506 181/500 373/509
f 353/505 220/508 181/500
f 354/504 178/501 355/507
f 355/507 178/501 356/510
f 356/510 178/501 318/514
f 357/502 181/500 349/497
f 358/121 196/117 363/124
f 359/123 210/118 358/121
f 360/142 193/134 365/138
f 361/149 207/143 360/142
f 362/180 213/168 343/174
f 363/484 196/478 337/481
f 364/128 210/118 359/123
f 365/138 193/134 366/136
f 366/136 193/134 342/132
f 367/550 182/549 351/552
f 368/427 166/421 264/424
f 369/518 189/516 345/515
f 370/491 189/488 369/494
f 371/455 180/456 185/454
f 372/453 185/454 179/448
f 373/509 181/500 374/513
f 374/513 181/500 371/517
f 375/451 169/441 376/449
f 376/449 169/441 382/446
f 377/487 177/479 370/491
f 378/452 179/448 375/451
f 379/156 211/153 361/149
f 380/440 167/429 381/435
f 381/435 167/429 166/421
f 382/446 169/441 380/440
f 383/432 166/421 368/427
f 384/45 255/30 385/50
f 386/431 264/424 288/438
f 387/82 265/69 316/67
f 388/89 265/69 387/82
f 389/184 213/168 362/180
f 390/193 280/189 389/184
f 391/442 288/438 392/445
f 393/294 12/292 13/286
f 394/295 13/286 417/293
f 395/98 160/100 98/86
f 396/94 98/86 162/73
f 397/91 162/73 403/83
f 398/106 85/104 399/105
f 399/105 85/104 160/100
f 400/84 142/92 404/96
f 401/79 147/63 400/84
f 402/103 160/100 395/98
f 403/83 162/73 401/79
f 404/384 142/364 407/373
f 405/355 143/348 234/343
f 406/363 234/343 430/361
f 407/373 142/364 405/355
f 408/417 93/408 85/418
f 409/414 93/408 408/417
f 410/416 89/411 409/414
f 411/419 85/418 436/420
f 412/326 88/321 435/329
f 413/330 88/321 410/327
f 414/263 24/253 423/258
f 415/270 77/254 414/263
f 416/289 30/276 419/283
f 417/293 13/286 416/289
f 418/388 12/380 393/394
f 419/283 30/276 71/277
f 420/288 71/277 422/284
f 421/279 72/273 415/270
f 422/284 71/277 421/279
f 423/258 24/253 22/249
f 424/285 304/290 441/291
f 425/265 22/249 426/267
f 426/267 22/249 427/259
f 427/259 22/249 25/255
f 428/266 25/255 429/272
f 429/272 25/255 303/275
f 430/361 234/343 73/353
f 431/371 73/353 433/382
f 432/389 73/353 418/388
f 433/382 73/353 432/389
f 434/107 85/104 398/106
f 435/329 88/321 413/330
f 436/108 85/104 434/107
f 437/328 259/324 412/326
f 438/331 259/324 437/328
f 439/280 303/275 440/281
f 440/281 303/275 424/285
usemtl Tile_+032_+022_L19_000303_untextured
