mtllib Tile_+032_+022_L20_0003220.mtl
v 6.39984933e+03 5.50000000e+03 4.27776325e+00
v 6.40239032e+03 5.50000000e+03 4.16921744e+00
v 6.38636663e+03 5.50000000e+03 5.02104297e+00
v 6.38781748e+03 5.50000000e+03 5.00781238e+00
v 6.38595403e+03 5.49957905e+03 5.21616612e+00
v 6.37783995e+03 5.50000000e+03 5.81949412e+00
v 6.37804378e+03 5.50000000e+03 5.80957375e+00
v 6.38144752e+03 5.50000000e+03 5.18555876e+00
v 6.38203830e+03 5.50000000e+03 5.15268600e+00
v 6.38251096e+03 5.49883981e+03 5.22135691e+00
v 6.37829054e+03 5.50000000e+03 5.67792606e+00
v 6.37804460e+03 5.49973902e+03 5.89868614e+00
v 6.37852966e+03 5.50000000e+03 5.51578484e+00
v 6.40017807e+03 5.49900963e+03 4.27483914e+00
v 6.39701205e+03 5.50000000e+03 4.59066874e+00
v 6.39812814e+03 5.50000000e+03 4.51170131e+00
v 6.40434817e+03 5.50000000e+03 4.19162485e+00
v 6.37873521e+03 5.50000000e+03 5.38948714e+00
v 6.37669508e+03 5.50000000e+03 5.67362408e+00
v 6.37727422e+03 5.50000000e+03 5.71097121e+00
v 6.37719537e+03 5.49900450e+03 5.77702378e+00
v 6.39955405e+03 5.50000000e+03 4.33332633e+00
v 6.38410875e+03 5.50000000e+03 5.04429579e+00
v 6.38599426e+03 5.50000000e+03 5.04306523e+00
v 6.37520631e+03 5.50000000e+03 7.11934824e+00
v 6.37538959e+03 5.50000000e+03 7.05852706e+00
v 6.37542156e+03 5.50000000e+03 6.62627416e+00
v 6.37534348e+03 5.49973310e+03 6.39048639e+00
v 6.37581873e+03 5.50000000e+03 6.10947295e+00
v 6.37656034e+03 5.50000000e+03 5.68513468e+00
v 6.37583601e+03 5.49966620e+03 6.00757335e+00
v 6.38267689e+03 5.47545645e+03 1.24435949e+01
v 6.38325397e+03 5.47664363e+03 1.64189722e+01
v 6.39936008e+03 5.48561004e+03 3.47445198e+00
v 6.40177204e+03 5.48568317e+03 3.36667848e+00
v 6.40628363e+03 5.49440964e+03 4.05644102e+00
v 6.38222157e+03 5.50000000e+03 5.11415753e+00
v 6.40026653e+03 5.48234933e+03 1.41214203e+01
v 6.40009112e+03 5.48188253e+03 1.31060753e+01
v 6.40124440e+03 5.47885091e+03 1.23255722e+01
v 6.40086369e+03 5.48011687e+03 1.02238779e+01
v 6.40138050e+03 5.47841921e+03 9.59750704e+00
v 6.40170725e+03 5.47612807e+03 1.31775543e+01
v 6.40255337e+03 5.47430989e+03 1.41476439e+01
v 6.40179734e+03 5.47468411e+03 1.27592407e+01
v 6.40200214e+03 5.47541553e+03 1.24572025e+01
v 6.40107884e+03 5.47750080e+03 1.31163263e+01
v 6.40203677e+03 5.47575027e+03 2.20699219e+01
v 6.40203051e+03 5.47483365e+03 2.16562684e+01
v 6.39920589e+03 5.48604943e+03 1.66782783e+01
v 6.39800704e+03 5.48702606e+03 1.70278143e+01
v 6.40015853e+03 5.48134485e+03 1.32446382e+01
v 6.39926657e+03 5.48452188e+03 2.16355680e+01
v 6.39997182e+03 5.48332322e+03 2.08160814e+01
v 6.39948743e+03 5.48472994e+03 1.84537856e+01
v 6.39907654e+03 5.48539664e+03 1.74741518e+01
v 6.39887260e+03 5.48487053e+03 1.72789094e+01
v 6.40307498e+03 5.47207073e+03 1.78667369e+01
v 6.40345870e+03 5.47186853e+03 1.65257758e+01
v 6.40340840e+03 5.47127753e+03 1.79872420e+01
v 6.40262861e+03 5.47375418e+03 1.80135350e+01
v 6.40277353e+03 5.47299629e+03 1.73914091e+01
v 6.40235254e+03 5.47549390e+03 8.09741739e+00
v 6.40187964e+03 5.47626711e+03 8.73667038e+00
v 6.40107617e+03 5.49001631e+03 4.07705178e+00
v 6.40036693e+03 5.48928512e+03 3.98991519e+00
v 6.39910375e+03 5.48432036e+03 5.44213816e+00
v 6.39928429e+03 5.48560065e+03 6.81539395e+00
v 6.39988222e+03 5.48309129e+03 4.92812177e+00
v 6.39986605e+03 5.48354697e+03 6.49863811e+00
v 6.40171615e+03 5.47756815e+03 1.43420746e+01
v 6.39232193e+03 5.48780731e+03 5.53735725e+00
v 6.39171580e+03 5.48579775e+03 5.34418486e+00
v 6.38299754e+03 5.47518338e+03 9.36139044e+00
v 6.38194263e+03 5.47523229e+03 1.12649774e+01
v 6.38225472e+03 5.47482060e+03 9.53133146e+00
v 6.40288828e+03 5.47304729e+03 1.06763647e+01
v 6.40273853e+03 5.47391457e+03 9.49409107e+00
v 6.40326041e+03 5.47238903e+03 9.61690420e+00
v 6.40475894e+03 5.48779866e+03 3.43140918e+00
v 6.40473871e+03 5.48641627e+03 3.53360837e+00
v 6.39800236e+03 5.49004589e+03 1.21461857e+01
v 6.39780381e+03 5.49005491e+03 1.32103002e+01
v 6.40056592e+03 5.48111819e+03 3.75566902e+00
v 6.40006334e+03 5.48224276e+03 3.89338501e+00
v 6.37695689e+03 5.47040860e+03 1.31221276e+01
v 6.37675145e+03 5.47042384e+03 1.57402404e+01
v 6.39808585e+03 5.49003031e+03 1.90899299e+01
v 6.39822017e+03 5.48979644e+03 1.77045747e+01
v 6.39852119e+03 5.48818308e+03 1.71058334e+01
v 6.37909904e+03 5.47312352e+03 2.28932116e+01
v 6.37739821e+03 5.47149088e+03 2.31153605e+01
v 6.37830121e+03 5.47195911e+03 2.12429382e+01
v 6.38525951e+03 5.47802050e+03 1.16579975e+01
v 6.38678539e+03 5.47982148e+03 1.50937284e+01
v 6.38613909e+03 5.47917805e+03 1.78913577e+01
v 6.39222978e+03 5.47938677e+03 2.45262452e+01
v 6.39162970e+03 5.47904598e+03 2.47789385e+01
v 6.38416554e+03 5.47729492e+03 2.20474323e+01
v 6.38504675e+03 5.47799221e+03 1.99134767e+01
v 6.40126461e+03 5.48847218e+03 3.53434875e+00
v 6.40397386e+03 5.49504145e+03 5.49412658e+00
v 6.40498207e+03 5.49560426e+03 4.08137134e+00
v 6.40282229e+03 5.49015103e+03 4.31486053e+00
v 6.40448971e+03 5.48979942e+03 3.82738899e+00
v 6.39880448e+03 5.48629723e+03 5.60262962e+00
v 6.39858721e+03 5.48966642e+03 5.04215200e+00
v 6.39938969e+03 5.49103327e+03 5.94586741e+00
v 6.40423243e+03 5.49076994e+03 4.34381138e+00
v 6.39835612e+03 5.48965602e+03 5.80676983e+00
v 6.40086069e+03 5.48025777e+03 6.87477754e+00
v 6.40067730e+03 5.48002459e+03 3.72883204e+00
v 6.38304060e+03 5.47626337e+03 7.36617875e+00
v 6.38369285e+03 5.47534202e+03 7.72847940e+00
v 6.38234249e+03 5.47507639e+03 8.20668708e+00
v 6.38392271e+03 5.47519878e+03 8.47211193e+00
v 6.40232641e+03 5.47678791e+03 6.18156186e+00
v 6.40146979e+03 5.47822223e+03 6.13926040e+00
v 6.39936670e+03 5.49050356e+03 4.37169178e+00
v 6.37522544e+03 5.49550005e+03 5.53892272e+00
v 6.37673154e+03 5.47044312e+03 8.75782110e+00
v 6.37567734e+03 5.46983439e+03 7.02138374e+00
v 6.38094045e+03 5.47409574e+03 1.77922528e+01
v 6.38110408e+03 5.47446476e+03 2.15325125e+01
v 6.37802108e+03 5.47122843e+03 1.52659792e+01
v 6.37698151e+03 5.47038589e+03 1.80518633e+01
v 6.38173702e+03 5.47445515e+03 1.21440944e+01
v 6.40143915e+03 5.47843443e+03 8.35830259e+00
v 6.40103941e+03 5.47976644e+03 8.03692670e+00
v 6.38329971e+03 5.47589480e+03 1.12695608e+01
v 6.37856980e+03 5.47183104e+03 8.56542763e+00
v 6.37945135e+03 5.47234873e+03 1.10025260e+01
v 6.37744673e+03 5.47043508e+03 1.03775293e+01
v 6.38356001e+03 5.47576377e+03 9.30228654e+00
v 6.38351046e+03 5.47534518e+03 9.10714220e+00
v 6.38414465e+03 5.47657014e+03 9.49329792e+00
v 6.38440869e+03 5.47667916e+03 8.37844829e+00
v 6.38352973e+03 5.47656687e+03 8.52002987e+00
v 6.38774398e+03 5.48080002e+03 1.30917677e+01
v 6.38624251e+03 5.47926736e+03 2.21721769e+01
v 6.38720288e+03 5.48031202e+03 2.22029952e+01
v 6.38660623e+03 5.47945890e+03 1.97688474e+01
v 6.38251427e+03 5.47534071e+03 2.01242864e+01
v 6.39273612e+03 5.47963738e+03 2.45596471e+01
v 6.39172384e+03 5.47981480e+03 2.43331062e+01
v 6.37613333e+03 5.47013587e+03 2.25978642e+01
v 6.37700863e+03 5.47045905e+03 2.14343981e+01
v 6.40357177e+03 5.47095146e+03 9.25319423e+00
v 6.40371530e+03 5.47004088e+03 8.94715692e+00
v 6.40162500e+03 5.47718755e+03 7.05679726e+00
v 6.40167602e+03 5.47729625e+03 8.13015522e+00
v 6.40001435e+03 5.48334377e+03 1.39337164e+01
v 6.40067532e+03 5.48079422e+03 1.21915730e+01
v 6.40257217e+03 5.47462785e+03 1.64277475e+01
v 6.39214233e+03 5.47756222e+03 2.44702300e+01
v 6.39285013e+03 5.47756846e+03 2.43503393e+01
v 6.40217290e+03 5.47616909e+03 1.41313711e+01
v 6.38567389e+03 5.47842312e+03 9.65262948e+00
v 6.40122148e+03 5.47858817e+03 1.33137297e+01
v 6.40144403e+03 5.47873827e+03 1.38902532e+01
v 6.40544699e+03 5.48660183e+03 3.67980154e+00
v 6.39962783e+03 5.48820797e+03 3.83345385e+00
v 6.39871485e+03 5.48820501e+03 3.53049677e+00
v 6.40341512e+03 5.47297545e+03 4.09367708e+00
v 6.40353886e+03 5.47286645e+03 4.69297008e+00
v 6.40587326e+03 5.47410964e+03 3.46859649e+00
v 6.40546885e+03 5.47717323e+03 3.43480106e+00
v 6.40264243e+03 5.47477997e+03 3.64491356e+00
v 6.40440454e+03 5.47320444e+03 3.34976832e+00
v 6.40570346e+03 5.47046037e+03 3.46229749e+00
v 6.40398239e+03 5.47039631e+03 3.32867084e+00
v 6.40214031e+03 5.48159419e+03 3.37736099e+00
v 6.40147302e+03 5.48304349e+03 3.51916830e+00
v 6.40402821e+03 5.46908352e+03 3.66575820e+00
v 6.40349649e+03 5.47330356e+03 3.66493001e+00
v 6.40315373e+03 5.47696347e+03 3.30899910e+00
v 6.40230794e+03 5.47563590e+03 3.60463340e+00
v 6.40634167e+03 5.47902146e+03 3.38130500e+00
v 6.40264156e+03 5.47805446e+03 3.51676813e+00
v 6.40044171e+03 5.48203031e+03 3.42564410e+00
v 6.40445289e+03 5.47162426e+03 3.38985278e+00
v 6.40401011e+03 5.47232403e+03 3.57946931e+00
v 6.40088268e+03 5.48061925e+03 3.51782472e+00
v 6.40180420e+03 5.48030206e+03 3.64308845e+00
v 6.40024142e+03 5.48333493e+03 3.32919957e+00
v 6.40515248e+03 5.48250221e+03 3.41451225e+00
v 6.40352520e+03 5.48223590e+03 3.40735142e+00
v 6.39982512e+03 5.48434325e+03 3.50277088e+00
v 6.39974272e+03 5.48387498e+03 3.68724767e+00
v 6.40268363e+03 5.47900112e+03 3.99967352e+00
v 6.40312412e+03 5.48009058e+03 4.21475595e+00
v 6.40235371e+03 5.47640360e+03 3.77577666e+00
v 6.40301842e+03 5.48613482e+03 3.44703386e+00
v 6.39920099e+03 5.48472411e+03 3.70404735e+00
v 6.40122907e+03 5.48460102e+03 4.01879208e+00
v 6.39910641e+03 5.48733689e+03 3.32834952e+00
v 6.40000909e+03 5.48738722e+03 3.43465105e+00
v 6.39890027e+03 5.48606377e+03 3.98951342e+00
v 6.40551540e+03 5.48929759e+03 3.56030249e+00
v 6.40008835e+03 5.48254186e+03 3.41763056e+00
v 6.40038960e+03 5.48498792e+03 3.50635617e+00
v 6.40373999e+03 5.48879616e+03 3.54705054e+00
v 6.39827670e+03 5.48773745e+03 3.91845978e+00
v 6.39866077e+03 5.48887458e+03 3.83944936e+00
v 6.39955779e+03 5.48946700e+03 4.09546809e+00
v 6.39908250e+03 5.48960845e+03 3.99351221e+00
v 6.39880848e+03 5.48696713e+03 3.43609240e+00
v 6.40383859e+03 5.47845952e+03 3.44943602e+00
v 6.40411938e+03 5.47946445e+03 3.99105152e+00
v 6.40424099e+03 5.48075076e+03 4.03276600e+00
v 6.40257168e+03 5.48088941e+03 3.69532866e+00
v 6.40379869e+03 5.48115407e+03 3.55189811e+00
v 6.40409395e+03 5.48415619e+03 3.57314483e+00
v 6.40156433e+03 5.47845138e+03 3.34096818e+00
v 6.40146196e+03 5.47807501e+03 3.58465824e+00
v 6.40180528e+03 5.47914081e+03 3.52496442e+00
v 6.40466446e+03 5.48555912e+03 3.93008463e+00
v 6.40552400e+03 5.48153188e+03 4.04605697e+00
v 6.40240824e+03 5.47734110e+03 3.58634305e+00
v 6.40370308e+03 5.47232525e+03 3.87810940e+00
v 6.40319013e+03 5.47445271e+03 5.21472920e+00
v 6.40342053e+03 5.47368193e+03 5.82806417e+00
v 6.40185951e+03 5.49058513e+03 3.87849785e+00
v 6.40199690e+03 5.49114666e+03 3.70091889e+00
v 6.39866468e+03 5.49042138e+03 5.90428375e+00
v 6.39957494e+03 5.49042108e+03 4.14870079e+00
v 6.40612292e+03 5.49121052e+03 3.89655657e+00
v 6.40431847e+03 5.49123098e+03 3.95904897e+00
v 6.40503917e+03 5.49107626e+03 4.24990763e+00
v 6.40445495e+03 5.49321173e+03 3.98084346e+00
v 6.40509381e+03 5.49429133e+03 3.98761345e+00
v 6.40333683e+03 5.49151793e+03 3.67632489e+00
v 6.39714375e+03 5.49408902e+03 4.70200030e+00
v 6.39553544e+03 5.49702972e+03 4.64324534e+00
v 6.39877215e+03 5.50000000e+03 4.44563542e+00
v 6.40616671e+03 5.49612417e+03 4.56871524e+00
v 6.40524532e+03 5.49176744e+03 3.76601982e+00
v 6.40599730e+03 5.49082561e+03 3.74237266e+00
v 6.40283571e+03 5.49258302e+03 4.33537429e+00
v 6.40381032e+03 5.48556183e+03 4.15340898e+00
v 6.40631153e+03 5.48220784e+03 3.68036378e+00
v 6.40516652e+03 5.47874468e+03 3.90513907e+00
v 6.40329135e+03 5.49065945e+03 4.20800598e+00
v 6.40337221e+03 5.47117387e+03 3.57969866e+00
v 6.40267129e+03 5.47407129e+03 8.31088582e+00
v 6.40205182e+03 5.47625615e+03 4.84043354e+00
v 6.40239144e+03 5.47500006e+03 4.09565084e+00
v 6.40266393e+03 5.49410390e+03 5.78915675e+00
v 6.40237657e+03 5.49559911e+03 4.49291579e+00
v 6.40145400e+03 5.49396489e+03 4.92613618e+00
v 6.40306705e+03 5.47348135e+03 3.99419118e+00
v 6.40158730e+03 5.47712776e+03 8.89804169e+00
v 6.40184367e+03 5.47675676e+03 1.23869574e+01
v 6.40259997e+03 5.48047805e+03 4.07842962e+00
v 6.40522000e+03 5.48039274e+03 4.10378316e+00
v 6.40256271e+03 5.47219418e+03 1.33265127e+01
v 6.40335076e+03 5.47164242e+03 1.27799864e+01
v 6.40327519e+03 5.47107274e+03 1.35505618e+01
v 6.40016362e+03 5.49176524e+03 5.96868724e+00
v 6.38792974e+03 5.48700301e+03 5.25530372e+00
v 6.39175852e+03 5.48464095e+03 5.40571857e+00
v 6.39281873e+03 5.48551684e+03 5.66369655e+00
v 6.39121413e+03 5.48750983e+03 5.35209249e+00
v 6.38606013e+03 5.48387613e+03 5.46952507e+00
v 6.38942918e+03 5.48304950e+03 5.65663872e+00
v 6.37998958e+03 5.48515233e+03 5.85355407e+00
v 6.38209570e+03 5.48766317e+03 5.66412533e+00
v 6.38286205e+03 5.48548451e+03 5.54008432e+00
v 6.38714282e+03 5.48929802e+03 5.24948266e+00
v 6.38809787e+03 5.48168414e+03 5.97600273e+00
v 6.38612279e+03 5.48191030e+03 5.75077214e+00
v 6.38257092e+03 5.48015798e+03 5.72443221e+00
v 6.38044324e+03 5.48198707e+03 5.82970093e+00
v 6.39094880e+03 5.48420840e+03 5.54797429e+00
v 6.39318773e+03 5.48615161e+03 5.31141462e+00
v 6.38482247e+03 5.47836934e+03 6.14158881e+00
v 6.38577008e+03 5.47961320e+03 5.86439026e+00
v 6.38593423e+03 5.47934169e+03 6.21415860e+00
v 6.38689936e+03 5.48029901e+03 5.75620509e+00
v 6.37996242e+03 5.48930613e+03 5.51346099e+00
v 6.38477425e+03 5.47872747e+03 5.93092625e+00
v 6.38334300e+03 5.47708233e+03 5.94063436e+00
v 6.37858765e+03 5.48951637e+03 5.63645231e+00
v 6.37656789e+03 5.49186523e+03 5.45098904e+00
v 6.39460510e+03 5.48787422e+03 5.45857099e+00
v 6.39338135e+03 5.49176847e+03 4.75724125e+00
v 6.39495914e+03 5.49130666e+03 4.92017376e+00
v 6.39172619e+03 5.48859321e+03 5.12420853e+00
v 6.39515529e+03 5.48766439e+03 5.74314582e+00
v 6.38568612e+03 5.49814187e+03 5.08246775e+00
v 6.38889160e+03 5.49780115e+03 4.87488500e+00
v 6.38504331e+03 5.49513885e+03 5.17324833e+00
v 6.37940990e+03 5.49926013e+03 5.31617575e+00
v 6.37960827e+03 5.49682973e+03 5.33650706e+00
v 6.37972513e+03 5.49836959e+03 5.45626444e+00
v 6.38742461e+03 5.49388137e+03 5.15304044e+00
v 6.38412003e+03 5.49205641e+03 5.43162072e+00
v 6.37816969e+03 5.49783254e+03 5.33157902e+00
v 6.38285060e+03 5.49747497e+03 4.98449253e+00
v 6.37519255e+03 5.49879479e+03 5.58953583e+00
v 6.37614032e+03 5.49773423e+03 5.74929772e+00
v 6.37701138e+03 5.49809191e+03 5.81441039e+00
v 6.37643619e+03 5.49945911e+03 5.75157182e+00
v 6.37924103e+03 5.50000000e+03 5.28629933e+00
v 6.37814920e+03 5.49869245e+03 5.59793518e+00
v 6.39046309e+03 5.50000000e+03 4.79024805e+00
v 6.38999819e+03 5.49664955e+03 4.97003953e+00
v 6.38933085e+03 5.49330005e+03 5.11142920e+00
v 6.39012718e+03 5.49004647e+03 5.07623099e+00
v 6.39215861e+03 5.48931933e+03 5.17586037e+00
v 6.39314039e+03 5.48846009e+03 5.66906770e+00
v 6.39506203e+03 5.48945376e+03 5.21875772e+00
v 6.39153729e+03 5.49232854e+03 4.87391903e+00
v 6.39457762e+03 5.49353377e+03 4.74139706e+00
v 6.38311865e+03 5.49520677e+03 5.30198432e+00
v 6.38613473e+03 5.50000000e+03 5.05221957e+00
v 6.40538607e+03 5.49715883e+03 4.32756085e+00
v 6.40271745e+03 5.49853721e+03 4.36583688e+00
v 6.40316140e+03 5.49502381e+03 5.18770804e+00
v 6.40358396e+03 5.47020259e+03 4.26658382e+00
v 6.39239579e+03 5.50000000e+03 4.77359975e+00
v 6.39751999e+03 5.49655112e+03 4.64568259e+00
v 6.40026083e+03 5.49376114e+03 4.57577626e+00
v 6.40594957e+03 5.49652557e+03 4.84829792e+00
v 6.40571719e+03 5.49611935e+03 4.76782444e+00
v 6.40402709e+03 5.49487331e+03 4.03560749e+00
v 6.40548927e+03 5.49616507e+03 5.38548008e+00
v 6.40534740e+03 5.48623537e+03 3.88503663e+00
v 6.39996708e+03 5.49246846e+03 5.26133188e+00
v 6.40197836e+03 5.49274896e+03 4.92237792e+00
v 6.40096700e+03 5.49091289e+03 3.83472965e+00
v 6.40055315e+03 5.49146372e+03 4.15398958e+00
v 6.40161906e+03 5.49219861e+03 4.36318096e+00
v 6.40159374e+03 5.49214298e+03 4.42712481e+00
v 6.40149115e+03 5.49205865e+03 4.32579991e+00
v 6.40146781e+03 5.49219988e+03 4.51799205e+00
v 6.39927520e+03 5.49329820e+03 4.65029050e+00
v 6.39720040e+03 5.49109768e+03 4.79136997e+00
v 6.39833705e+03 5.48857207e+03 4.37240169e+00
v 6.39716189e+03 5.48979991e+03 5.14101407e+00
v 6.39891545e+03 5.49150314e+03 5.25327090e+00
v 6.40291938e+03 5.49368632e+03 5.08204547e+00
v 6.40335119e+03 5.49351817e+03 4.53208516e+00
v 6.40131831e+03 5.49265152e+03 5.65257651e+00
v 6.40349842e+03 5.47149024e+03 5.86163828e+00
v 6.40205335e+03 5.47737602e+03 4.69588186e+00
v 6.40216372e+03 5.47721604e+03 3.93636532e+00
v 6.40220921e+03 5.48497934e+03 3.94384486e+00
v 6.39849202e+03 5.48946794e+03 4.03286798e+00
v 6.40224351e+03 5.47720429e+03 5.62430382e+00
v 6.40252358e+03 5.47623339e+03 5.84046262e+00
v 6.40343704e+03 5.47119654e+03 6.97575117e+00
v 6.40225202e+03 5.47540568e+03 6.58528615e+00
v 6.40289645e+03 5.47502489e+03 6.13480061e+00
v 6.40269235e+03 5.47421335e+03 6.47381110e+00
v 6.40084666e+03 5.49246819e+03 5.95624687e+00
v 6.39830127e+03 5.48861851e+03 6.34966671e+00
v 6.39834365e+03 5.48757723e+03 5.58775633e+00
v 6.39532942e+03 5.48838251e+03 5.34681748e+00
v 6.38385320e+03 5.47590393e+03 7.80167925e+00
v 6.38407126e+03 5.47560444e+03 8.21925888e+00
v 6.38347132e+03 5.47636886e+03 8.52042925e+00
v 6.38223451e+03 5.47577278e+03 6.86748900e+00
v 6.38430848e+03 5.47767630e+03 7.19662125e+00
v 6.38337791e+03 5.47656325e+03 7.73583863e+00
v 6.38389426e+03 5.47684596e+03 7.81993395e+00
v 6.38359753e+03 5.47624794e+03 9.14581680e+00
v 6.38496913e+03 5.47786028e+03 8.25183172e+00
v 6.38696888e+03 5.48007212e+03 8.30242241e+00
v 6.39001468e+03 5.48301876e+03 1.15497389e+01
v 6.38965450e+03 5.48265308e+03 6.42690957e+00
v 6.39092507e+03 5.48371504e+03 7.63382774e+00
v 6.38670026e+03 5.47992329e+03 6.01706297e+00
v 6.38838392e+03 5.48134746e+03 6.50747485e+00
v 6.40278746e+03 5.47337201e+03 6.76550129e+00
v 6.40393714e+03 5.46980023e+03 7.58277830e+00
v 6.40062036e+03 5.47964091e+03 9.16481857e+00
v 6.40049434e+03 5.48088846e+03 8.96357366e+00
v 6.40024604e+03 5.48153405e+03 8.90646347e+00
v 6.40020977e+03 5.48271400e+03 8.18015853e+00
v 6.40209236e+03 5.47589207e+03 9.99710978e+00
v 6.40176612e+03 5.47480983e+03 8.92132674e+00
v 6.40420694e+03 5.46892962e+03 6.00143633e+00
v 6.38063024e+03 5.47376215e+03 8.60509661e+00
v 6.37993396e+03 5.47396611e+03 6.30421892e+00
v 6.38134160e+03 5.47573173e+03 6.23306696e+00
v 6.38289995e+03 5.47556291e+03 7.54228776e+00
v 6.39817086e+03 5.49003596e+03 6.13428495e+00
v 6.39801697e+03 5.49002576e+03 6.76319716e+00
v 6.39763045e+03 5.48989896e+03 5.50497101e+00
v 6.39792798e+03 5.49007944e+03 8.68499034e+00
v 6.39066301e+03 5.48366827e+03 5.91729378e+00
v 6.39881759e+03 5.48714389e+03 9.34213715e+00
v 6.40138133e+03 5.49291882e+03 5.71474483e+00
v 6.37745277e+03 5.48028236e+03 5.92382444e+00
v 6.37735661e+03 5.47612426e+03 6.07688964e+00
v 6.37701243e+03 5.48455538e+03 5.89246090e+00
v 6.40022268e+03 5.48253343e+03 1.05127633e+01
v 6.39820076e+03 5.48974320e+03 8.70914991e+00
v 6.39568636e+03 5.48815788e+03 1.34488317e+01
v 6.38160483e+03 5.47425732e+03 1.07309031e+01
v 6.37552206e+03 5.47022918e+03 6.57845331e+00
v 6.37509143e+03 5.47413523e+03 6.23944815e+00
v 6.37675842e+03 5.47090879e+03 6.82916150e+00
v 6.37756259e+03 5.47232560e+03 6.39716042e+00
v 6.37692912e+03 5.47135772e+03 6.41266425e+00
v 6.37827094e+03 5.47241597e+03 6.62193478e+00
v 6.38213910e+03 5.47571569e+03 2.31218226e+01
v 6.37575073e+03 5.46996901e+03 2.45030057e+01
v 6.37584945e+03 5.46996847e+03 1.34959570e+01
v 6.37573000e+03 5.46992571e+03 1.84904541e+01
v 6.37568794e+03 5.47711477e+03 6.24766741e+00
v 6.37574528e+03 5.48498303e+03 6.02550778e+00
v 6.39813007e+03 5.48978408e+03 1.36457464e+01
v 6.39796713e+03 5.49007544e+03 1.69552855e+01
v 6.39804311e+03 5.49007475e+03 1.52804248e+01
v 6.39784047e+03 5.49004373e+03 2.15266088e+01
v 6.39806718e+03 5.48995315e+03 2.18346633e+01
v 6.39780797e+03 5.49009681e+03 1.99734084e+01
v 6.39651644e+03 5.48887368e+03 2.44680578e+01
v 6.39823971e+03 5.49000214e+03 2.05347099e+01
v 6.39837496e+03 5.48885037e+03 1.99027787e+01
v 6.39819717e+03 5.48995961e+03 2.29024426e+01
v 6.39777776e+03 5.49006746e+03 2.38010393e+01
v 6.39164144e+03 5.48437298e+03 2.03372655e+01
v 6.39552933e+03 5.48807496e+03 2.38818202e+01
v 6.39230861e+03 5.48493885e+03 2.31772860e+01
v 6.39400197e+03 5.48662002e+03 2.44144594e+01
v 6.39136511e+03 5.48421250e+03 2.45436033e+01
v 6.39878797e+03 5.48737115e+03 1.63747328e+01
v 6.39853699e+03 5.48794992e+03 1.78939829e+01
v 6.39890020e+03 5.48668797e+03 1.83837582e+01
v 6.39848280e+03 5.48637413e+03 1.72257534e+01
v 6.37569812e+03 5.46987598e+03 1.06834690e+01
v 6.38448670e+03 5.47801366e+03 2.42619305e+01
v 6.38507509e+03 5.47841316e+03 2.29832979e+01
v 6.38228458e+03 5.47610266e+03 2.39784522e+01
v 6.38334075e+03 5.47690066e+03 2.45085818e+01
v 6.38521126e+03 5.47814813e+03 2.21849804e+01
v 6.39445619e+03 5.47630728e+03 2.51210522e+01
v 6.39373126e+03 5.47518413e+03 2.43726705e+01
v 6.39407959e+03 5.47636527e+03 2.54137845e+01
v 6.39420878e+03 5.47721718e+03 2.51923448e+01
v 6.39439765e+03 5.47728507e+03 2.44321806e+01
v 6.39378724e+03 5.47728115e+03 2.51882742e+01
v 6.39344212e+03 5.47729154e+03 2.48956757e+01
v 6.39329221e+03 5.47602636e+03 2.52236256e+01
v 6.39353989e+03 5.47791002e+03 2.47717414e+01
v 6.39458083e+03 5.47608387e+03 2.42400578e+01
v 6.39339748e+03 5.47746379e+03 2.41490149e+01
v 6.39258358e+03 5.47690884e+03 2.51557103e+01
v 6.39189546e+03 5.47731670e+03 2.43913683e+01
v 6.39076641e+03 5.47451384e+03 2.43153743e+01
v 6.39878667e+03 5.47480373e+03 2.42303094e+01
v 6.39339598e+03 5.47786140e+03 2.38206320e+01
v 6.39540262e+03 5.47073788e+03 2.42131830e+01
v 6.39358462e+03 5.47761609e+03 2.43804083e+01
v 6.39476702e+03 5.47728742e+03 2.41712867e+01
v 6.39638449e+03 5.47915962e+03 2.42866668e+01
v 6.39171175e+03 5.47668388e+03 2.47276334e+01
v 6.39406846e+03 5.47789177e+03 2.50753379e+01
v 6.39585699e+03 5.47215441e+03 2.41097397e+01
v 6.39418621e+03 5.48670217e+03 1.78162473e+01
v 6.39107838e+03 5.48385258e+03 1.50416164e+01
v 6.38815326e+03 5.48126438e+03 1.82909549e+01
v 6.39033175e+03 5.48318326e+03 2.44477214e+01
v 6.38918298e+03 5.48210428e+03 2.12447669e+01
v 6.38942561e+03 5.48248531e+03 2.45292309e+01
v 6.38235487e+03 5.47542059e+03 2.17018062e+01
v 6.38717200e+03 5.48039879e+03 1.83556072e+01
v 6.39197798e+03 5.48137682e+03 2.42247780e+01
v 6.39260687e+03 5.48120728e+03 2.44145724e+01
v 6.39260361e+03 5.48022877e+03 2.47652458e+01
v 6.39292171e+03 5.47891248e+03 2.44659368e+01
v 6.39318027e+03 5.47880736e+03 2.40969760e+01
v 6.39284960e+03 5.47876332e+03 2.40132700e+01
v 6.39328654e+03 5.47899713e+03 2.49692785e+01
v 6.39322713e+03 5.47856543e+03 2.46836536e+01
v 6.39344534e+03 5.47971729e+03 2.50785002e+01
v 6.39360819e+03 5.47983504e+03 2.44360873e+01
v 6.39373774e+03 5.47817856e+03 2.52231449e+01
v 6.39291759e+03 5.48075259e+03 2.51719474e+01
v 6.39316931e+03 5.48080357e+03 2.47162551e+01
v 6.39258006e+03 5.47865686e+03 2.45382426e+01
v 6.39311816e+03 5.47999378e+03 2.50945638e+01
v 6.39443869e+03 5.48566647e+03 2.42876938e+01
v 6.39274787e+03 5.48038073e+03 2.51195037e+01
v 6.39007248e+03 5.48165341e+03 2.42440325e+01
v 6.39061775e+03 5.48081626e+03 2.43485443e+01
v 6.39115313e+03 5.47966933e+03 2.43316255e+01
v 6.39086904e+03 5.47973159e+03 2.44803604e+01
v 6.39086257e+03 5.47898299e+03 2.47335095e+01
v 6.39046967e+03 5.47862757e+03 2.47491046e+01
v 6.39157610e+03 5.48022344e+03 2.48783207e+01
v 6.39132217e+03 5.48043921e+03 2.48234771e+01
v 6.39355018e+03 5.48099060e+03 2.41717773e+01
v 6.39787660e+03 5.48999919e+03 2.44511349e+01
v 6.39824721e+03 5.48926916e+03 2.42882187e+01
v 6.39603431e+03 5.48726905e+03 2.43561459e+01
v 6.39823075e+03 5.48776914e+03 2.43623476e+01
v 6.39748259e+03 5.48814865e+03 2.42520430e+01
v 6.39461665e+03 5.48702393e+03 2.45059213e+01
v 6.39024129e+03 5.47996087e+03 2.47122546e+01
v 6.38929368e+03 5.47944806e+03 2.41914937e+01
v 6.39101930e+03 5.47839166e+03 2.46587961e+01
v 6.39008075e+03 5.47941400e+03 2.46405206e+01
v 6.38727465e+03 5.48054681e+03 2.45097461e+01
v 6.39090905e+03 5.47669702e+03 2.47227672e+01
v 6.39024016e+03 5.47635889e+03 2.42164168e+01
v 6.39193516e+03 5.47802837e+03 2.47886468e+01
v 6.38569423e+03 5.47428641e+03 2.42808093e+01
v 6.38527272e+03 5.47744146e+03 2.43490662e+01
v 6.38568585e+03 5.47080463e+03 2.41603547e+01
v 6.38307694e+03 5.46873055e+03 2.42667785e+01
v 6.37670316e+03 5.46897681e+03 2.43531747e+01
v 6.37753894e+03 5.47159679e+03 2.45042590e+01
v 6.37907424e+03 5.47162518e+03 2.42987913e+01
v 6.37874352e+03 5.47272551e+03 2.44746957e+01
v 6.38171966e+03 5.47231119e+03 2.42016048e+01
v 6.37928431e+03 5.47318902e+03 2.36428662e+01
v 6.38090584e+03 5.47472581e+03 2.43388474e+01
v 6.38501052e+03 5.47836353e+03 2.45211522e+01
v 6.39076996e+03 5.47745521e+03 2.47439774e+01
v 6.39129029e+03 5.47737488e+03 2.44044911e+01
v 6.38260447e+03 5.47466073e+03 2.42348084e+01
v 6.38719094e+03 5.47885459e+03 2.42936792e+01
v 6.38969700e+03 5.48044030e+03 2.42171490e+01
v 6.39984930e+03 5.48331954e+03 9.74336313e+00
v 6.39921615e+03 5.48612582e+03 1.20054176e+01
v 6.39968703e+03 5.48431083e+03 1.21072192e+01
v 6.39975695e+03 5.48251501e+03 1.32035032e+01
v 6.40028669e+03 5.48268529e+03 1.21808509e+01
v 6.39985350e+03 5.48335499e+03 1.31455272e+01
v 6.39921634e+03 5.48415971e+03 1.30781867e+01
v 6.39881070e+03 5.48727790e+03 1.21331048e+01
v 6.39851352e+03 5.48796666e+03 1.30996920e+01
v 6.39857475e+03 5.48786001e+03 1.38152431e+01
v 6.39884195e+03 5.48482338e+03 1.30041536e+01
v 6.39878397e+03 5.48571964e+03 1.29730173e+01
v 6.40071758e+03 5.48089623e+03 1.41807248e+01
v 6.40081353e+03 5.47995883e+03 1.33722037e+01
v 6.40328423e+03 5.47216586e+03 1.22669048e+01
v 6.40171997e+03 5.47760008e+03 1.21825623e+01
v 6.40270116e+03 5.47416994e+03 1.20691693e+01
v 6.40254524e+03 5.47364313e+03 1.28596709e+01
v 6.40248628e+03 5.47358405e+03 1.33737388e+01
v 6.38020760e+03 5.47394027e+03 2.45083014e+01
v 6.40411530e+03 5.46927841e+03 9.68315825e+00
v 6.40397248e+03 5.46962759e+03 1.21133110e+01
v 6.40241300e+03 5.47274800e+03 1.29068435e+01
v 6.40333577e+03 5.47088785e+03 1.31232258e+01
v 6.40306107e+03 5.47256430e+03 1.42964162e+01
v 6.40364678e+03 5.47066618e+03 1.40935602e+01
v 6.40337106e+03 5.46970488e+03 1.30936136e+01
v 6.40413426e+03 5.46929407e+03 1.63715206e+01
v 6.40384763e+03 5.47055098e+03 1.63313335e+01
v 6.40187724e+03 5.47630339e+03 1.84807178e+01
v 6.40152628e+03 5.47794670e+03 1.84061574e+01
v 6.40102195e+03 5.47730038e+03 1.70987116e+01
v 6.40137863e+03 5.47873040e+03 1.64942352e+01
v 6.40104171e+03 5.47833300e+03 1.70869865e+01
v 6.40084154e+03 5.48025257e+03 1.63954317e+01
v 6.40077103e+03 5.48070489e+03 2.10240007e+01
v 6.40077620e+03 5.48032308e+03 1.81381636e+01
v 6.40180854e+03 5.47752872e+03 1.63554579e+01
v 6.40106732e+03 5.47952775e+03 2.44191321e+01
v 6.40110208e+03 5.47897303e+03 2.23827128e+01
v 6.40057575e+03 5.48077386e+03 2.24391416e+01
v 6.40244340e+03 5.47391810e+03 2.18358998e+01
v 6.40227296e+03 5.47559401e+03 2.07224804e+01
v 6.40263453e+03 5.47290555e+03 2.13653270e+01
v 6.40132827e+03 5.47892498e+03 2.06398993e+01
v 6.40150875e+03 5.47772936e+03 2.17729220e+01
v 6.40196222e+03 5.47659308e+03 1.64766177e+01
v 6.40185165e+03 5.47602897e+03 1.74869804e+01
v 6.40194602e+03 5.47504007e+03 1.74528532e+01
v 6.40024510e+03 5.48234735e+03 1.64799664e+01
v 6.39913068e+03 5.48634544e+03 1.41322938e+01
v 6.39964566e+03 5.48423230e+03 1.41984447e+01
v 6.39816083e+03 5.48668015e+03 1.29537987e+01
v 6.39949965e+03 5.48495844e+03 1.63631051e+01
v 6.40066511e+03 5.48135912e+03 1.64363241e+01
v 6.40298652e+03 5.47283011e+03 1.64425979e+01
v 6.40259549e+03 5.47222036e+03 1.29045713e+01
v 6.40299254e+03 5.47291301e+03 1.22661103e+01
v 6.40064201e+03 5.47985921e+03 2.18547355e+01
v 6.39974153e+03 5.48175343e+03 1.73142408e+01
v 6.40045755e+03 5.48115312e+03 1.83183506e+01
v 6.39987438e+03 5.48131397e+03 1.71267875e+01
v 6.39996240e+03 5.48317749e+03 1.83014790e+01
v 6.39891172e+03 5.48412294e+03 1.70353764e+01
v 6.39959491e+03 5.48223512e+03 1.70271495e+01
v 6.39921437e+03 5.48370749e+03 1.70968534e+01
v 6.39882670e+03 5.48744854e+03 2.04908645e+01
v 6.39930741e+03 5.48559823e+03 2.08386101e+01
v 6.39953804e+03 5.48295760e+03 1.72768963e+01
v 6.39904070e+03 5.48578492e+03 1.75623162e+01
v 6.40380456e+03 5.47004772e+03 1.86505781e+01
v 6.40301951e+03 5.47315494e+03 2.04658720e+01
v 6.40367795e+03 5.47067530e+03 2.07289573e+01
v 6.40302723e+03 5.47204813e+03 2.16980928e+01
v 6.40344623e+03 5.47113997e+03 2.24660629e+01
v 6.40353902e+03 5.47051945e+03 1.67546059e+01
v 6.40342264e+03 5.47127089e+03 1.73291225e+01
v 6.40301645e+03 5.47025759e+03 1.70399774e+01
v 6.40035285e+03 5.48016533e+03 1.72838281e+01
v 6.40042121e+03 5.48081863e+03 1.72383394e+01
v 6.40085579e+03 5.47891530e+03 1.74848896e+01
v 6.40003570e+03 5.48245370e+03 2.18926127e+01
v 6.40027163e+03 5.48217842e+03 2.44259463e+01
v 6.40219081e+03 5.47560271e+03 2.44392804e+01
v 6.40006897e+03 5.48013969e+03 2.43008187e+01
v 6.40105657e+03 5.47687081e+03 2.42953395e+01
v 6.39933214e+03 5.48509323e+03 2.23950512e+01
v 6.39974848e+03 5.48389920e+03 2.21693654e+01
v 6.40291273e+03 5.47303742e+03 2.43681290e+01
v 6.40353102e+03 5.47104679e+03 2.44577157e+01
v 6.40305593e+03 5.46884837e+03 2.42899407e+01
v 6.40419038e+03 5.46880988e+03 2.44459431e+01
v 6.39901621e+03 5.48650354e+03 2.43679591e+01
v 6.39840559e+03 5.48836048e+03 2.18973133e+01
v 6.39820381e+03 5.48718879e+03 2.12730471e+01
v 6.39827112e+03 5.48717972e+03 2.15239879e+01
v 6.39874835e+03 5.48700897e+03 2.09166222e+01
v 6.39866894e+03 5.48759546e+03 2.26509796e+01
v 6.39909997e+03 5.48629306e+03 2.21784476e+01
v 6.39899439e+03 5.48642684e+03 2.12054881e+01
v 6.38237436e+03 5.47591959e+03 2.45247494e+01
v 6.40444763e+03 5.46867801e+03 3.35591823e+00
v 6.40424559e+03 5.46865635e+03 2.20096937e+01
v 6.40056141e+03 5.47935933e+03 1.70201224e+01
v 6.40362487e+03 5.46922240e+03 1.73805344e+01
v 6.40416363e+03 5.46891910e+03 1.80795886e+01
v 6.40414794e+03 5.46876799e+03 1.73136592e+01
v 6.37490907e+03 5.46910834e+03 2.44714332e+01
v 6.40390396e+03 5.46884114e+03 1.34074098e+01
v 6.40426062e+03 5.46875179e+03 2.02752640e+01
v 6.37487500e+03 5.46915563e+03 2.31934706e+01
v 6.37487500e+03 5.46915327e+03 2.40620230e+01
v 6.37487500e+03 5.46915299e+03 1.84141095e+01
v 6.37487500e+03 5.46913823e+03 1.88636721e+01
v 6.37487500e+03 5.46917003e+03 1.08410725e+01
v 6.37487500e+03 5.46913594e+03 1.03292963e+01
v 6.37487500e+03 5.46904402e+03 2.44671059e+01
v 6.37487500e+03 5.46908074e+03 2.44711829e+01
v 6.37487500e+03 5.46907812e+03 1.35530827e+01
v 6.37487500e+03 5.46911370e+03 1.13606435e+01
v 6.37487500e+03 5.46912927e+03 1.73956238e+01
v 6.37487500e+03 5.46919571e+03 2.44875128e+01
v 6.37487500e+03 5.46911947e+03 7.70259415e+00
v 6.37487500e+03 5.46911605e+03 7.06321626e+00
v 6.37487500e+03 5.48119079e+03 6.15675446e+00
v 6.37487500e+03 5.48108029e+03 6.16565016e+00
v 6.37487500e+03 5.49849715e+03 5.65311685e+00
v 6.37487500e+03 5.49903864e+03 5.90446483e+00
v 6.37487500e+03 5.46928387e+03 6.75338344e+00
v 6.37487500e+03 5.47014653e+03 6.54578427e+00
v 6.37487500e+03 5.47386041e+03 6.24831890e+00
v 6.37487500e+03 5.46952319e+03 6.56669711e+00
v 6.37487500e+03 5.47805218e+03 6.11400345e+00
v 6.37487500e+03 5.48093144e+03 6.16123586e+00
v 6.37487500e+03 5.47434161e+03 6.23471826e+00
v 6.37487500e+03 5.47408186e+03 6.24823478e+00
v 6.37487500e+03 5.48555083e+03 5.90625468e+00
v 6.37487500e+03 5.48551998e+03 5.92996452e+00
v 6.37487500e+03 5.47541994e+03 6.20469891e+00
v 6.37487500e+03 5.47752299e+03 6.17645947e+00
v 6.37487500e+03 5.48415224e+03 6.03712310e+00
v 6.37487500e+03 5.48331183e+03 5.97751173e+00
v 6.37487500e+03 5.49968744e+03 6.72812647e+00
v 6.37487500e+03 5.49951018e+03 6.32966738e+00
v 6.37487500e+03 5.49789809e+03 5.76055636e+00
v 6.37487500e+03 5.49556565e+03 5.55743420e+00
v 6.37487500e+03 5.49590516e+03 5.55414226e+00
v 6.37487500e+03 5.49644946e+03 5.62600708e+00
v 6.37487500e+03 5.49355709e+03 5.63058995e+00
v 6.37487500e+03 5.49237424e+03 5.67920296e+00
v 6.37487500e+03 5.49514865e+03 5.56535940e+00
v 6.37487500e+03 5.48887906e+03 5.61805168e+00
v 6.37487500e+03 5.49209714e+03 5.66527994e+00
v 6.37487500e+03 5.48631462e+03 5.85847300e+00
v 6.37487500e+03 5.48584740e+03 5.89345121e+00
v 6.37487500e+03 5.49543145e+03 5.56976971e+00
v 6.37487500e+03 5.50000000e+03 6.99156001e+00
v 6.40637500e+03 5.48152348e+03 4.14552568e+00
v 6.40637500e+03 5.48054592e+03 4.13057021e+00
v 6.40637500e+03 5.48192196e+03 4.11298906e+00
v 6.40637500e+03 5.48650116e+03 3.98407570e+00
v 6.40637500e+03 5.48699294e+03 3.56210860e+00
v 6.40637500e+03 5.48625501e+03 4.04610165e+00
v 6.40637500e+03 5.48612465e+03 4.07599516e+00
v 6.40637500e+03 5.48230470e+03 3.62926144e+00
v 6.40637500e+03 5.48221282e+03 3.71810265e+00
v 6.40637500e+03 5.47903976e+03 3.38636554e+00
v 6.40637500e+03 5.47997136e+03 3.80496478e+00
v 6.40637500e+03 5.49810842e+03 4.20390976e+00
v 6.40637500e+03 5.49725449e+03 4.26303157e+00
v 6.40637500e+03 5.49609443e+03 4.52562867e+00
v 6.40637500e+03 5.49446594e+03 4.05747690e+00
v 6.40637500e+03 5.49679997e+03 4.63147061e+00
v 6.40637500e+03 5.47037517e+03 3.49193838e+00
v 6.40637500e+03 5.46985536e+03 3.37331345e+00
v 6.40637500e+03 5.49147879e+03 3.87374193e+00
v 6.40637500e+03 5.49213530e+03 3.78128315e+00
v 6.40637500e+03 5.49636723e+03 4.49647322e+00
v 6.40637500e+03 5.49621077e+03 4.53773441e+00
v 6.40637500e+03 5.47406979e+03 3.45237531e+00
v 6.40637500e+03 5.47346031e+03 3.64621484e+00
v 6.40637500e+03 5.47312665e+03 3.65085547e+00
v 6.40637500e+03 5.47337288e+03 3.65871427e+00
v 6.40637500e+03 5.48547858e+03 3.64230754e+00
v 6.40637500e+03 5.48448029e+03 3.37692887e+00
v 6.40637500e+03 5.48475446e+03 3.38719708e+00
v 6.40637500e+03 5.47895411e+03 3.38087826e+00
v 6.40637500e+03 5.48488697e+03 3.42985123e+00
v 6.40637500e+03 5.49118382e+03 3.93368556e+00
v 6.40637500e+03 5.49318931e+03 3.87288767e+00
v 6.40637500e+03 5.49422462e+03 4.03191238e+00
v 6.40637500e+03 5.49078799e+03 3.77205081e+00
v 6.40637500e+03 5.48978333e+03 3.55395711e+00
v 6.40637500e+03 5.49046482e+03 3.65469902e+00
v 6.40637500e+03 5.48756782e+03 3.50890415e+00
v 6.40637500e+03 5.48704682e+03 3.53012534e+00
v 6.40637500e+03 5.48722172e+03 3.48895671e+00
v 6.40637500e+03 5.47543944e+03 3.43119897e+00
v 6.40637500e+03 5.47687317e+03 3.40525922e+00
v 6.40637500e+03 5.48267499e+03 3.41406500e+00
v 6.40637500e+03 5.47137533e+03 3.48331221e+00
v 6.40637500e+03 5.49897583e+03 4.15115842e+00
v 6.40637500e+03 5.50000000e+03 4.13189383e+00
v 6.40425443e+03 5.46862500e+03 2.20351935e+01
v 6.40424332e+03 5.46862500e+03 2.44214725e+01
v 6.39302980e+03 5.46862500e+03 2.42925333e+01
v 6.38750128e+03 5.46862500e+03 2.42555036e+01
v 6.40430772e+03 5.46862500e+03 1.63845884e+01
v 6.40419521e+03 5.46862500e+03 1.72389818e+01
v 6.40428178e+03 5.46862500e+03 1.98983825e+01
v 6.40429536e+03 5.46862500e+03 2.02827570e+01
v 6.37673993e+03 5.46862500e+03 2.43497429e+01
v 6.38303769e+03 5.46862500e+03 2.42646903e+01
v 6.38309136e+03 5.46862500e+03 2.42668875e+01
v 6.40421929e+03 5.46862500e+03 8.52049585e+00
v 6.40422975e+03 5.46862500e+03 8.59910928e+00
v 6.40419433e+03 5.46862500e+03 1.75051017e+01
v 6.40423663e+03 5.46862500e+03 1.81380196e+01
v 6.40434219e+03 5.46862500e+03 1.50000324e+01
v 6.40424831e+03 5.46862500e+03 2.19943544e+01
v 6.40425597e+03 5.46862500e+03 2.20079415e+01
v 6.40426874e+03 5.46862500e+03 2.04323374e+01
v 6.40424094e+03 5.46862500e+03 2.44454928e+01
v 6.40318746e+03 5.46862500e+03 2.42991786e+01
v 6.40298809e+03 5.46862500e+03 2.42860730e+01
v 6.40226509e+03 5.46862500e+03 2.42893742e+01
v 6.40425773e+03 5.46862500e+03 1.22140831e+01
v 6.40400410e+03 5.46862500e+03 1.32685087e+01
v 6.40433516e+03 5.46862500e+03 1.44134204e+01
v 6.40413753e+03 5.46862500e+03 1.38772221e+01
v 6.40428749e+03 5.46862500e+03 1.05261538e+01
v 6.40427676e+03 5.46862500e+03 9.81852483e+00
v 6.40430379e+03 5.46862500e+03 9.65850070e+00
v 6.37708290e+03 5.46862500e+03 2.43482387e+01
v 6.38333229e+03 5.46862500e+03 2.42649912e+01
v 6.38631764e+03 5.46862500e+03 2.42095863e+01
v 6.39470787e+03 5.46862500e+03 2.42464072e+01
v 6.40429118e+03 5.46862500e+03 6.10778373e+00
v 6.40423463e+03 5.46862500e+03 8.10349692e+00
v 6.40415403e+03 5.46862500e+03 3.72254136e+00
v 6.40414223e+03 5.46862500e+03 4.03135975e+00
v 6.40421893e+03 5.46862500e+03 3.63870790e+00
v 6.40452573e+03 5.46862500e+03 3.36711645e+00
v 6.40604120e+03 5.46862500e+03 3.55564205e+00
v 6.40446146e+03 5.46862500e+03 3.36215780e+00
v 6.38296240e+03 5.46862500e+03 2.42684001e+01
v 6.40417433e+03 5.46862500e+03 1.73038669e+01
v 6.40421447e+03 5.46862500e+03 1.83612094e+01
v 6.40394637e+03 5.46862500e+03 1.33842110e+01
v 6.40422568e+03 5.46862500e+03 8.45983725e+00
v 6.40424873e+03 5.46862500e+03 5.70923014e+00
v 6.40422602e+03 5.46862500e+03 1.87768307e+01
v 6.38073802e+03 5.46862500e+03 2.42640886e+01
v 6.37956784e+03 5.46862500e+03 2.43047422e+01
v 6.37629196e+03 5.46862500e+03 2.43427084e+01
v 6.37489936e+03 5.46862500e+03 2.44244594e+01
v 6.37487500e+03 5.46862500e+03 2.44258892e+01
v 6.40631490e+03 5.46862500e+03 3.49713242e+00
v 6.40637500e+03 5.46862500e+03 3.48428621e+00
vt 0.41024369 0.85750699
vt 0.39556152 0.82091194
vt 0.40990621 0.82952964
vt 0.39337635 0.85680604
vt 0.40940881 0.82287037
vt 0.39492795 0.92044711
vt 0.37918562 0.85241783
vt 0.4096995 0.81636542
vt 0.4098461 0.90647209
vt 0.3810057 0.88567227
vt 0.37434226 0.81769115
vt 0.39607236 0.77422988
vt 0.40965217 0.91944438
vt 0.37921509 0.91530502
vt 0.38093635 0.79661626
vt 0.3621217 0.87987667
vt 0.40981013 0.78288239
vt 0.40978637 0.92518574
vt 0.38937822 0.97292817
vt 0.35165769 0.79439199
vt 0.33893752 0.82566702
vt 0.40983197 0.77473176
vt 0.37660283 0.77175665
vt 0.40968892 0.98038435
vt 0.39443222 0.9970988
vt 0.37836641 0.95840704
vt 0.30988026 0.91204983
vt 0.29923248 0.84027648
vt 0.40836555 0.77067912
vt 0.39407772 0.76825166
vt 0.36575431 0.97944129
vt 0.35321069 0.95580828
vt 0.34932929 0.76908082
vt 0.30217421 0.82230002
vt 0.37109002 0.76627272
vt 0.40972036 0.99146068
vt 0.36353344 0.99716884
vt 0.30518177 0.95961303
vt 0.26603621 0.89434046
vt 0.35673445 0.76585644
vt 0.32027331 0.7650578
vt 0.31557181 0.79492629
vt 0.29052734 0.82871461
vt 0.4062776 0.76815331
vt 0.40935585 0.99686033
vt 0.33333406 0.98623586
vt 0.33562702 0.97660875
vt 0.28435051 0.9419471
vt 0.28172588 0.84403521
vt 0.29117647 0.80704111
vt 0.34243816 0.99680871
vt 0.28516385 0.9619205
vt 0.28462663 0.97972196
vt 0.23757151 0.93912512
vt 0.23523325 0.83396655
vt 0.28303418 0.77248418
vt 0.28811049 0.79004633
vt 0.28107023 0.80508703
vt 0.27207011 0.82916206
vt 0.31816858 0.99735308
vt 0.25191084 0.96624488
vt 0.21700267 0.91325772
vt 0.2053199 0.87757123
vt 0.29172948 0.76389879
vt 0.3047947 0.99512237
vt 0.23470353 0.96809024
vt 0.2102125 0.93729937
vt 0.18780793 0.85200876
vt 0.27075458 0.80430883
vt 0.26125002 0.7605167
vt 0.2786521 0.78160417
vt 0.27227789 0.79427814
vt 0.28066838 0.99762398
vt 0.27990529 0.99049455
vt 0.23367655 0.97802913
vt 0.21531123 0.96784842
vt 0.19671625 0.91903812
vt 0.18000098 0.9182601
vt 0.22782663 0.80839318
vt 0.2582655 0.80659544
vt 0.24706575 0.77673399
vt 0.27316865 0.78457499
vt 0.274863 0.80204594
vt 0.26308632 0.99738544
vt 0.24267332 0.99423248
vt 0.19723189 0.96816683
vt 0.20133595 0.79093009
vt 0.13006595 0.87696135
vt 0.26618251 0.80204141
vt 0.23620911 0.76315999
vt 0.26546982 0.78374308
vt 0.26735121 0.79089415
vt 0.19454379 0.99747938
vt 0.14723052 0.83232266
vt 0.23930095 0.79046255
vt 0.25483367 0.79246783
vt 0.12033432 0.9444983
vt 0.26402909 0.79382867
vt 0.26630056 0.79391998
vt 0.25818112 0.78494477
vt 0.23473182 0.99763077
vt 0.16309424 0.95601439
vt 0.17697389 0.76809317
vt 0.076220557 0.91242182
vt 0.21734542 0.76414299
vt 0.15371974 0.76701367
vt 0.20511504 0.76172328
vt 0.12436797 0.99806958
vt 0.051779557 0.98971307
vt 0.049459223 0.85672337
vt 0.21650928 0.75942242
vt 0.15754698 0.99780452
vt 0.132605 0.7824989
vt 0.15236139 0.75681967
vt 0.19997664 0.75828493
vt 0.10920283 0.98075664
vt 0.14299448 0.99686962
vt 0.012992318 0.9598335
vt 0.099179737 0.75738746
vt 0.13544045 0.76048696
vt 0.17670687 0.76094496
vt 0.078740716 0.99649799
vt 0.035600409 0.99727857
vt 0.012814198 0.93997747
vt 0.058627341 0.75845838
vt 0.11671866 0.75401181
vt 0.12805775 0.75561625
vt 0.069476902 0.99777728
vt 0.013399955 0.98878372
vt 0.0096108746 0.9474439
vt 0.011475269 0.90159923
vt 0.011703305 0.79611957
vt 0.09019468 0.75272501
vt 0.01307913 0.99717224
vt 0.010408687 0.97763586
vt 0.011666588 0.96394873
vt 0.010785426 0.92891473
vt 0.013133919 0.85376418
vt 0.01601729 0.75550729
vt 0.010750194 0.88028783
vt 0.011343564 0.84031695
vt 0.011315365 0.77169931
vt 0.021255223 0.75065339
vt 0.009780352 0.76376361
vt 0.001803275 0.7608847
vt 0.90296835 0.70604086
vt 0.88678479 0.70909846
vt 0.8885802 0.70604682
vt 0.90227848 0.70856631
vt 0.88585716 0.70604777
vt 0.893282 0.73912323
vt 0.87598169 0.70605099
vt 0.88484645 0.76631689
vt 0.78225684 0.73494202
vt 0.77275753 0.70608485
vt 0.82849765 0.79046243
vt 0.74983621 0.70609188
vt 0.85951078 0.81868631
vt 0.78847057 0.75428927
vt 0.71894622 0.78653771
vt 0.79570484 0.84996992
vt 0.87499642 0.80135888
vt 0.75944579 0.79567951
vt 0.67432225 0.70611668
vt 0.77105534 0.80796659
vt 0.84603548 0.86334044
vt 0.85966814 0.85497642
vt 0.75344378 0.80717826
vt 0.64953583 0.73589712
vt 0.77360463 0.82440573
vt 0.76915586 0.93885607
vt 0.74376911 0.81923586
vt 0.76419824 0.81180233
vt 0.65815532 0.70612228
vt 0.64966446 0.78345394
vt 0.75700009 0.87499309
vt 0.84881139 0.89118552
vt 0.82096034 0.96755904
vt 0.73186415 0.81617057
vt 0.75550026 0.82446158
vt 0.76021135 0.82431561
vt 0.76934499 0.81101108
vt 0.6173777 0.70613503
vt 0.67012823 0.84584427
vt 0.61389029 0.70757782
vt 0.79095685 0.96073818
vt 0.71304631 0.90495455
vt 0.72090012 0.81635368
vt 0.73437965 0.82481647
vt 0.74742103 0.8282513
vt 0.7659688 0.8234399
vt 0.71176744 0.81174254
vt 0.6439203 0.82655025
vt 0.59536773 0.75649256
vt 0.83168322 0.95026875
vt 0.81074399 0.97274715
vt 0.77159029 0.95739508
vt 0.72716463 0.91900766
vt 0.7355265 0.88027489
vt 0.73775202 0.82816821
vt 0.61408681 0.70613611
vt 0.69885325 0.85394204
vt 0.64034116 0.83914453
vt 0.60746336 0.78858089
vt 0.61232525 0.7061367
vt 0.8211925 0.98804843
vt 0.81613195 0.99802035
vt 0.79754829 0.98265272
vt 0.76319349 0.95188153
vt 0.70950025 0.88406122
vt 0.7261138 0.82561374
vt 0.71900344 0.82671034
vt 0.73492098 0.83453357
vt 0.61335373 0.70613635
vt 0.71490687 0.84272486
vt 0.70436633 0.86749309
vt 0.67127681 0.86895609
vt 0.61752737 0.81917059
vt 0.57471848 0.77874833
vt 0.5819425 0.7061466
vt 0.71694332 0.87262315
vt 0.7006653 0.8954246
vt 0.74373513 0.84311742
vt 0.7095992 0.85346943
vt 0.71179366 0.86093795
vt 0.60432291 0.80577427
vt 0.55922973 0.74713326
vt 0.72655845 0.86746573
vt 0.72241426 0.83950102
vt 0.73075336 0.84843469
vt 0.72027522 0.84757799
vt 0.55471551 0.76216269
vt 0.56595844 0.70615137
vt 0.7483483 0.87173629
vt 0.73895395 0.85308897
vt 0.72036952 0.85780537
vt 0.5382567 0.74675041
vt 0.53201604 0.70616204
vt 0.73002541 0.86451703
vt 0.74840367 0.84660804
vt 0.73204714 0.85893941
vt 0.72425115 0.85695493
vt 0.51382422 0.72452444
vt 0.52683073 0.71096903
vt 0.74602884 0.86665821
vt 0.74587083 0.85650957
vt 0.52733147 0.70616353
vt 0.75555319 0.85759348
vt 0.75338209 0.84775841
vt 0.74406141 0.86458623
vt 0.50232446 0.71277261
vt 0.52121264 0.70616555
vt 0.75108528 0.8613714
vt 0.75257158 0.84186453
vt 0.50185907 0.71239579
vt 0.75953883 0.8365733
vt 0.50185937 0.71396601
vt 0.50185895 0.71189421
vt 0.50219017 0.70617104
vt 0.50185752 0.70617115
vt 0.064522222 0.42538112
vt 0.035144731 0.40507174
vt 0.043916035 0.4061864
vt 0.0045473869 0.42749572
vt 0.027294926 0.39308667
vt 0.032611817 0.45212263
vt 0.0098620709 0.37911373
vt 0.011947211 0.4643957
vt 0.081963979 0.44724369
vt 0.0018479787 0.37809294
vt 0.033820905 0.50362265
vt 0.0018723109 0.44340831
vt 0.097211964 0.50206316
vt 0.0018656487 0.42409277
vt 0.0018452833 0.37037259
vt 0.0018837149 0.47601014
vt 0.00188101 0.46945542
vt 0.0018677056 0.43005264
vt 0.10676003 0.46396559
vt 0.0018665377 0.42683548
vt 0.070866413 0.52472472
vt 0.001894824 0.51167023
vt 0.12449324 0.48433542
vt 0.14044422 0.54810154
vt 0.10084083 0.56803411
vt 0.0018953799 0.51351368
vt 0.13683099 0.49530196
vt 0.12508705 0.47989804
vt 0.14120971 0.52375174
vt 0.065260179 0.56392902
vt 0.16361433 0.58682299
vt 0.1656687 0.5209409
vt 0.091356978 0.59501958
vt 0.0018959061 0.51488233
vt 0.15082122 0.50379229
vt 0.18216582 0.53784847
vt 0.15387736 0.61525053
vt 0.064943656 0.61537778
vt 0.028384481 0.55654728
vt 0.20099241 0.55219656
vt 0.19084416 0.62450969
vt 0.11644867 0.64942479
vt 0.0019060848 0.54115355
vt 0.21050023 0.57187963
vt 0.18099409 0.66480911
vt 0.21600014 0.61549497
vt 0.15738669 0.67201638
vt 0.12789851 0.68760002
vt 0.047916368 0.61798632
vt 0.0019089003 0.55156177
vt 0.20429356 0.59308618
vt 0.21102399 0.55755162
vt 0.20831978 0.65276974
vt 0.21064207 0.6065039
vt 0.0019157302 0.56888473
vt 0.012691052 0.56184793
vt 0.21801354 0.59676462
vt 0.22415613 0.56839347
vt 0.18927403 0.70629215
vt 0.25785902 0.71098095
vt 0.22815183 0.60484529
vt 0.23115784 0.64582652
vt 0.17557418 0.72056025
vt 0.10406011 0.68844795
vt 0.0019170392 0.57255793
vt 0.0019153855 0.56850243
vt 0.24629228 0.59758478
vt 0.22873221 0.57625663
vt 0.24598129 0.66768563
vt 0.25196004 0.61714792
vt 0.1358728 0.72479141
vt 0.022912221 0.6470871
vt 0.0019192394 0.57834488
vt 0.1950471 0.74778795
vt 0.27776614 0.67455256
vt 0.25069594 0.64009935
vt 0.10075221 0.71654379
vt 0.25310299 0.59498155
vt 0.21898428 0.74778032
vt 0.28243631 0.70504534
vt 0.25526622 0.60387814
vt 0.27845496 0.63750303
vt 0.1622784 0.74779689
vt 0.1163444 0.7478115
vt 0.060589202 0.70856261
vt 0.001931767 0.61010808
vt 0.27615973 0.74776316
vt 0.31537068 0.73548698
vt 0.27796951 0.62142724
vt 0.13919541 0.74258912
vt 0.09654896 0.73344725
vt 0.001945217 0.65339637
vt 0.062041555 0.72763282
vt 0.0019442353 0.64996457
vt 0.30416211 0.66474986
vt 0.34681892 0.72962493
vt 0.29969367 0.64251435
vt 0.14430909 0.74780262
vt 0.13969694 0.74780393
vt 0.092970483 0.74781853
vt 0.0019504149 0.66804671
vt 0.042775996 0.72098851
vt 0.28998354 0.74775934
vt 0.34277508 0.7477448
vt 0.29657739 0.62911236
vt 0.14143667 0.74780333
vt 0.058142278 0.73866481
vt 0.090700276 0.74781895
vt 0.0062993397 0.69211012
vt 0.29796046 0.7477572
vt 0.31272215 0.65446579
vt 0.31637195 0.67048013
vt 0.37986544 0.71254283
vt 0.31130314 0.74775422
vt 0.30555892 0.63668764
vt 0.056053974 0.7478292
vt 0.083382949 0.74782109
vt 0.0019574072 0.68775916
vt 0.042523179 0.73163676
vt 0.017637437 0.7197758
vt 0.30764547 0.74775493
vt 0.31514701 0.64574999
vt 0.3425841 0.69323605
vt 0.36702335 0.74773681
vt 0.049788266 0.74783039
vt 0.0019585001 0.69126171
vt 0.04122914 0.7445969
vt 0.028426612 0.72420174
vt 0.0019666161 0.72181034
vt 0.32360965 0.65445358
vt 0.33114722 0.67299616
vt 0.39211854 0.72430074
vt 0.35229567 0.68610227
vt 0.0019591537 0.6929239
vt 0.030709337 0.73550403
vt 0.0019620596 0.70386958
vt 0.0019700206 0.72923064
vt 0.33023572 0.66003442
vt 0.32945472 0.65672463
vt 0.39211458 0.71372414
vt 0.39212251 0.73504424
vt 0.38112986 0.70022619
vt 0.047241326 0.74783027
vt 0.0019605462 0.69712889
vt 0.031690504 0.74783379
vt 0.0059047351 0.73291618
vt 0.38683712 0.70469344
vt 0.3921268 0.74772912
vt 0.36235556 0.68631518
vt 0.044278223 0.74782997
vt 0.02451808 0.74783641
vt 0.038696192 0.74783069
vt 0.02130872 0.74113774
vt 0.0019698497 0.73593527
vt 0.39210933 0.70809191
vt 0.041220836 0.74782991
vt 0.013873792 0.74370301
vt 0.00777034 0.74453068
vt 0.022849103 0.74783683
vt 0.001967778 0.74177206
vt 0.013660117 0.74783659
vt 0.0087362221 0.74783415
vt 0.97491831 0.70270407
vt 0.95782429 0.67845917
vt 0.95888656 0.67773747
vt 0.97950464 0.67772913
vt 0.95150191 0.70184112
vt 0.95801222 0.67773777
vt 0.98405367 0.69446987
vt 0.95790857 0.71854639
vt 0.98322934 0.67772841
vt 0.9840548 0.7015416
vt 0.95725799 0.7400474
vt 0.94320047 0.71242148
vt 0.98404711 0.6777283
vt 0.98405927 0.71515012
vt 0.98406529 0.73897773
vt 0.9518851 0.72806811
vt 0.94770449 0.72808349
vt 0.98406631 0.74232787
vt 0.94490004 0.74139738
vt 0.98406678 0.7435177
vt 0.93328613 0.76148987
vt 0.97724468 0.75235629
vt 0.940256 0.7911998
vt 0.98407143 0.7518121
vt 0.97175598 0.79404259
vt 0.92873907 0.77313781
vt 0.9495796 0.81155145
vt 0.92936361 0.78358167
vt 0.98407769 0.77044821
vt 0.96764451 0.81542158
vt 0.93329006 0.8060447
vt 0.93011153 0.79633892
vt 0.98408431 0.78995621
vt 0.98364055 0.81918687
vt 0.95339906 0.82521898
vt 0.93386167 0.81892091
vt 0.98409373 0.81827033
vt 0.96837741 0.83784366
vt 0.92191601 0.82082951
vt 0.91863644 0.81145155
vt 0.98409402 0.8194356
vt 0.93985778 0.83374071
vt 0.92190522 0.83662891
vt 0.9840939 0.83210766
vt 0.95505905 0.84271991
vt 0.93272907 0.83901632
vt 0.90936941 0.84094989
vt 0.98409313 0.83992255
vt 0.97251934 0.85334241
vt 0.93234986 0.84461665
vt 0.92648685 0.85421073
vt 0.98409724 0.85322344
vt 0.94904763 0.84821367
vt 0.90337658 0.86015189
vt 0.967475 0.866552
vt 0.98409933 0.85864556
vt 0.9174124 0.87393212
vt 0.98324138 0.86253935
vt 0.94533259 0.86293578
vt 0.90065819 0.87790465
vt 0.98410594 0.86385745
vt 0.98410463 0.86260641
vt 0.91409498 0.89512122
vt 0.89857107 0.86711383
vt 0.98410976 0.8688975
vt 0.95307797 0.8890599
vt 0.89499652 0.89162457
vt 0.92743349 0.90026516
vt 0.89387143 0.88525194
vt 0.9841181 0.89346135
vt 0.9026798 0.90039366
vt 0.98411924 0.8971917
vt 0.94921911 0.90818185
vt 0.88867491 0.90886325
vt 0.88650399 0.89680767
vt 0.92149425 0.90984857
vt 0.96084303 0.9081431
vt 0.93845397 0.91598767
vt 0.98411936 0.89899427
vt 0.96186125 0.9198088
vt 0.88523245 0.93236166
vt 0.91460043 0.94779748
vt 0.98411983 0.90704215
vt 0.97013885 0.91734171
vt 0.96214354 0.9386189
vt 0.88117599 0.92733097
vt 0.89751375 0.93304151
vt 0.9482826 0.95219457
vt 0.98411822 0.91582912
vt 0.98411912 0.91760296
vt 0.97149765 0.92232919
vt 0.87990654 0.94417357
vt 0.89232576 0.94420725
vt 0.95848519 0.96583962
vt 0.90238529 0.95885861
vt 0.98412085 0.92095268
vt 0.98412728 0.92764765
vt 0.97244143 0.95900929
vt 0.98412788 0.92838109
vt 0.93579423 0.97062701
vt 0.98413038 0.93547016
vt 0.98412907 0.93076122
vt 0.8913756 0.96133602
vt 0.95498353 0.97904152
vt 0.97900325 0.97979629
vt 0.91203779 0.96880364
vt 0.98413968 0.96561468
vt 0.88491035 0.96326363
vt 0.96596259 0.98320669
vt 0.94217974 0.97754347
vt 0.89161265 0.97431701
vt 0.87917048 0.95328152
vt 0.9227007 0.9765414
vt 0.95616013 0.98531747
vt 0.98414165 0.97488636
vt 0.98071265 0.98503172
vt 0.91055888 0.98100531
vt 0.87687504 0.96135408
vt 0.96877545 0.99261433
vt 0.94280785 0.98922861
vt 0.98414189 0.97928256
vt 0.92457438 0.98418272
vt 0.98414391 0.9886809
vt 0.98414201 0.98466694
vt 0.98414773 0.99761444
vt 0.25246882 0.46266234
vt 0.25496271 0.49326873
vt 0.2524842 0.49292272
vt 0.25288895 0.462345
vt 0.25249037 0.49323297
vt 0.25246489 0.46231323
vt 0.28641993 0.46882969
vt 0.25248539 0.46216017
vt 0.28500396 0.49389994
vt 0.27993754 0.44648558
vt 0.25406605 0.44028395
vt 0.31182224 0.49327236
vt 0.2990239 0.45967239
vt 0.2524403 0.44231951
vt 0.32422337 0.4619025
vt 0.31304708 0.4435063
vt 0.31091371 0.45598966
vt 0.25240874 0.43552214
vt 0.2523703 0.44035816
vt 0.34618187 0.49464136
vt 0.32168007 0.41309929
vt 0.25256398 0.42145157
vt 0.34847224 0.46493006
vt 0.34587517 0.44735169
vt 0.29920533 0.41100079
vt 0.25259721 0.41621464
vt 0.37490532 0.46145588
vt 0.33690104 0.46018004
vt 0.35591245 0.41956741
vt 0.27167705 0.42016381
vt 0.31171462 0.40524942
vt 0.39880535 0.49514854
vt 0.33976126 0.40702868
vt 0.39051092 0.44693071
vt 0.28828681 0.4121086
vt 0.29563451 0.39316106
vt 0.33288699 0.3926959
vt 0.25253955 0.41333181
vt 0.39171073 0.46954936
vt 0.35251668 0.40718335
vt 0.37762681 0.41864467
vt 0.27643996 0.40161192
vt 0.30905154 0.39278442
vt 0.25645316 0.41262084
vt 0.41588312 0.47064114
vt 0.37080571 0.40367085
vt 0.40967482 0.41588491
vt 0.28816885 0.40373862
vt 0.26172751 0.40494841
vt 0.30550468 0.36554575
vt 0.32893032 0.36402005
vt 0.25265601 0.40541846
vt 0.40414479 0.46354622
vt 0.43444157 0.49584174
vt 0.35936108 0.39381492
vt 0.39166594 0.40814
vt 0.41449931 0.45226169
vt 0.27836066 0.3965596
vt 0.26128289 0.39085937
vt 0.27793971 0.39041227
vt 0.27994481 0.36250138
vt 0.35345265 0.36379731
vt 0.25458878 0.40303439
vt 0.43856591 0.46419066
vt 0.37160188 0.39217746
vt 0.38381007 0.40293777
vt 0.39806744 0.40275443
vt 0.42101806 0.41853082
vt 0.31993568 0.35475844
vt 0.30215806 0.35469031
vt 0.35418007 0.35289365
vt 0.25271049 0.4029187
vt 0.45760715 0.46766263
vt 0.37235856 0.36687869
vt 0.408813 0.40619683
vt 0.4168919 0.40511161
vt 0.44793451 0.41850042
vt 0.25236061 0.39093989
vt 0.33568439 0.34811813
vt 0.28607863 0.35633636
vt 0.37321204 0.3529709
vt 0.25265524 0.40204465
vt 0.4497371 0.45025992
vt 0.49247557 0.49599051
vt 0.38794106 0.39438313
vt 0.40861955 0.39367944
vt 0.42461261 0.40480298
vt 0.43052217 0.40728086
vt 0.25227705 0.37331259
vt 0.32052872 0.34806806
vt 0.30956218 0.34945899
vt 0.29308522 0.34609014
vt 0.26853001 0.35101748
vt 0.34438905 0.34340245
vt 0.36177096 0.34221166
vt 0.46676752 0.46177679
vt 0.47381282 0.47093952
vt 0.38658023 0.35455304
vt 0.4230811 0.39406312
vt 0.46882898 0.42080778
vt 0.44629064 0.40669012
vt 0.25229931 0.36589807
vt 0.32677934 0.33739161
vt 0.30240428 0.34924942
vt 0.283582 0.35086727
vt 0.25618699 0.35411406
vt 0.37276503 0.33949292
vt 0.48027343 0.45102012
vt 0.48960394 0.46815127
vt 0.38984725 0.34184039
vt 0.38788182 0.36122531
vt 0.41710171 0.3655954
vt 0.43700513 0.40375894
vt 0.43669549 0.39514947
vt 0.45663601 0.40482616
vt 0.31010869 0.33981282
vt 0.2998842 0.33948398
vt 0.26595649 0.33714032
vt 0.38404223 0.3071624
vt 0.50721765 0.47453594
vt 0.40499794 0.35559899
vt 0.49515218 0.42036754
vt 0.46269578 0.40458542
vt 0.47169805 0.39417124
vt 0.25282896 0.35959679
vt 0.28378066 0.30121571
vt 0.25251868 0.33822656
vt 0.350189 0.31176287
vt 0.50302726 0.46146369
vt 0.51759696 0.4652465
vt 0.49158251 0.45601803
vt 0.41593629 0.34055209
vt 0.43667746 0.36521369
vt 0.4783594 0.40907377
vt 0.50495249 0.44685197
vt 0.47225142 0.4073807
vt 0.25334114 0.35382658
vt 0.3120937 0.31986171
vt 0.30278543 0.30585366
vt 0.26117533 0.3061772
vt 0.25318804 0.35221702
vt 0.32346609 0.30480623
vt 0.40688145 0.31550473
vt 0.36716577 0.29845518
vt 0.52949458 0.49546111
vt 0.42426923 0.35489506
vt 0.44992453 0.36294794
vt 0.48336405 0.4100787
vt 0.52388483 0.43979925
vt 0.46214029 0.36675918
vt 0.32563394 0.28990191
vt 0.27188635 0.29745311
vt 0.25244948 0.31676739
vt 0.33738005 0.2995066
vt 0.40151766 0.30293965
vt 0.35550535 0.29612905
vt 0.38408589 0.29130846
vt 0.49960047 0.45266902
vt 0.50332278 0.45844728
vt 0.53836656 0.47767079
vt 0.43124825 0.35302866
vt 0.4391436 0.3195079
vt 0.44013539 0.35476708
vt 0.48627385 0.39833003
vt 0.49230248 0.40689826
vt 0.51207936 0.41441244
vt 0.49023217 0.36610776
vt 0.26826063 0.27973968
vt 0.25264317 0.29152673
vt 0.25248232 0.3078289
vt 0.41762924 0.30005705
vt 0.36906448 0.28841829
vt 0.53971189 0.49806941
vt 0.53863752 0.46446967
vt 0.44088331 0.3404035
vt 0.45049968 0.35335672
vt 0.50181442 0.40523702
vt 0.51507431 0.40434551
vt 0.48324975 0.35260808
vt 0.28725216 0.27257031
vt 0.2526148 0.29249668
vt 0.25241128 0.30573422
vt 0.34447265 0.2872535
vt 0.40199524 0.28754157
vt 0.3678323 0.27500284
vt 0.54084218 0.49004376
vt 0.54038858 0.46108431
vt 0.4630354 0.34012091
vt 0.42645425 0.29961699
vt 0.46237272 0.35367274
vt 0.53880513 0.44754505
vt 0.53957969 0.429609
vt 0.51086611 0.36268985
vt 0.49705505 0.35341811
vt 0.4717623 0.35332286
vt 0.25654286 0.25948459
vt 0.31649154 0.27039611
vt 0.25262648 0.29074234
vt 0.34363386 0.26839173
vt 0.40869093 0.27300811
vt 0.45008278 0.31028217
vt 0.44147509 0.28989375
vt 0.50410151 0.39483964
vt 0.53627294 0.41184425
vt 0.50288701 0.34109253
vt 0.25260475 0.28620541
vt 0.29080895 0.2581501
vt 0.36091578 0.262375
vt 0.38133425 0.2632283
vt 0.48724023 0.33906257
vt 0.54047918 0.40283656
vt 0.54027802 0.38142824
vt 0.51238203 0.35372144
vt 0.25246605 0.26078016
vt 0.27430886 0.23839623
vt 0.31872961 0.25678247
vt 0.32738504 0.26650119
vt 0.45293325 0.26901382
vt 0.35338095 0.25785005
vt 0.40624976 0.23372835
vt 0.50119072 0.30578494
vt 0.53638065 0.36065209
vt 0.25258151 0.25583643
vt 0.28715849 0.22971755
vt 0.25897893 0.23025817
vt 0.30810967 0.24252963
vt 0.33710498 0.26127726
vt 0.42037436 0.23377872
vt 0.4804489 0.27341074
vt 0.3664048 0.25530541
vt 0.37950882 0.23095882
vt 0.54004019 0.34183574
vt 0.25287524 0.23484397
vt 0.27570254 0.22542107
vt 0.32909307 0.24918592
vt 0.44713762 0.24931234
vt 0.46474931 0.25712562
vt 0.36908832 0.2439273
vt 0.38399652 0.2274214
vt 0.41322309 0.2302354
vt 0.52122974 0.26839316
vt 0.54067683 0.35580713
vt 0.53570467 0.29795355
vt 0.30083391 0.23207754
vt 0.25284564 0.23090202
vt 0.252736 0.22549868
vt 0.31714588 0.23453248
vt 0.43593198 0.23619181
vt 0.4905422 0.25887918
vt 0.35493138 0.24634308
vt 0.36677608 0.23411286
vt 0.36770803 0.22900462
vt 0.43224052 0.22943389
vt 0.53977865 0.27361059
vt 0.54068309 0.29815233
vt 0.30982116 0.23518854
vt 0.25267327 0.22967833
vt 0.33814833 0.23671269
vt 0.45742595 0.23353225
vt 0.48734459 0.23832452
vt 0.53950143 0.2652542
vt 0.5079549 0.25917453
vt 0.31375578 0.22938389
vt 0.25202882 0.22557074
vt 0.33469957 0.23049128
vt 0.46960583 0.23465365
vt 0.43965015 0.22994691
vt 0.51016903 0.23810917
vt 0.34641373 0.2303701
vt 0.35599795 0.2320264
vt 0.53420568 0.26084054
vt 0.4803856 0.23088938
vt 0.49901497 0.2310732
vt 0.53372616 0.2505725
vt 0.52055901 0.24327737
vt 0.51491624 0.23186064
vt 0.52352482 0.23556238
vt 0.53147596 0.23812544
vt 0.47571135 0.95443583
vt 0.49193513 0.95189124
vt 0.49459639 0.96472532
vt 0.47476962 0.97079951
vt 0.46110207 0.94002336
vt 0.50783283 0.95821267
vt 0.47499964 0.98009056
vt 0.46088201 0.97107595
vt 0.4497616 0.95716816
vt 0.47056207 0.93031454
vt 0.51942152 0.9523297
vt 0.49644855 0.97770864
vt 0.48371112 0.93464237
vt 0.49854034 0.9411813
vt 0.51742113 0.95834661
vt 0.45924938 0.98483628
vt 0.47910035 0.98977989
vt 0.43935212 0.96925306
vt 0.51994902 0.94983393
vt 0.52349025 0.958103
vt 0.51700205 0.96577317
vt 0.45878571 0.9977302
vt 0.45084009 0.98193288
vt 0.49662626 0.93945628
vt 0.49963674 0.94048458
vt 0.52140033 0.95032787
vt 0.52875036 0.95309389
vt 0.4551799 0.99693352
vt 0.45020208 0.9846831
vt 0.45003611 0.98251355
vt 0.52335292 0.95052308
vt 0.53336453 0.96986663
vt 0.53374058 0.98032892
vt 0.52106017 0.98084444
vt 0.51754117 0.97023189
vt 0.54286695 0.977651
vt 0.53103447 0.96451539
vt 0.56911743 0.97569907
vt 0.5372138 0.98260701
vt 0.5839839 0.96020186
vt 0.56951541 0.96664864
vt 0.54847765 0.98050714
vt 0.58413363 0.96960235
vt 0.58511841 0.97673678
vt 0.59265238 0.9680903
vt 0.59873849 0.96905321
vt 0.61275685 0.94124794
vt 0.61517805 0.93772036
vt 0.63175249 0.94243395
vt 0.61496925 0.96333611
vt 0.60578704 0.93177819
vt 0.63515222 0.93458104
vt 0.62774342 0.96672916
vt 0.59951842 0.94556838
vt 0.59756392 0.93239194
vt 0.64945441 0.93265855
vt 0.64605623 0.96633935
vt 0.59645367 0.95508844
vt 0.64616764 0.94651836
vt 0.64637542 0.94972038
vt 0.6032719 0.96035951
vt 0.64834768 0.9475978
vt 0.64781344 0.9480738
vt 0.59541571 0.96162802
vt 0.65503913 0.95704049
vt 0.61505663 0.97905791
vt 0.60456342 0.96898866
vt 0.63540536 0.98202455
vt 0.59580725 0.97468311
vt 0.424936 0.96937615
vt 0.42462006 0.98363322
vt 0.42336404 0.99153262
vt 0.43198326 0.98032415
vt 0.43445092 0.9929834
vt 0.44003204 0.98797786
vt 0.4263151 0.9984042
vt 0.43950272 0.99713928
vt 0.64861864 0.973557
vt 0.65848553 0.97565967
vt 0.65549713 0.98286271
vt 0.64519429 0.96653879
vt 0.66778487 0.9813394
vt 0.64294207 0.96944433
vt 0.65867275 0.96312612
vt 0.6665296 0.97552001
vt 0.6625998 0.97075814
vt 0.66405326 0.96647149
vt 0.55080312 0.98424345
vt 0.55145431 0.99761844
vt 0.5328539 0.9853043
vt 0.68663234 0.98289376
vt 0.68000883 0.96575409
vt 0.68921632 0.97610074
vt 0.69145936 0.9797129
vt 0.67378318 0.97473741
vt 0.69126004 0.97360379
vt 0.67487657 0.96711159
vt 0.42274863 0.99248672
vt 0.42465448 0.99772996
vt 0.40853265 0.99388105
vt 0.4866429 0.98744088
vt 0.49957019 0.98271328
vt 0.49445462 0.99799669
vt 0.0091264341 0.9878487
vt 0.0083222371 0.99816102
vt 0.0030119475 0.99229181
vt 0.002388218 0.98659235
vt 0.010650262 0.99715155
vt 0.0041169142 0.99720526
vt 0.011061252 0.99204415
vt 0.43991572 0.99836445
vt 0.44719493 0.98933136
vt 0.4488529 0.98776436
vt 0.44864357 0.9909901
vt 0.4466567 0.98885179
vt 0.9404065 0.99080038
vt 0.93191421 0.99784029
vt 0.93308461 0.98816884
vt 0.4785656 0.99016768
vt 0.48573637 0.99510825
vt 0.48485985 0.99828923
vt 0.44024375 0.99827313
vt 0.43934527 0.99178112
vt 0.44384608 0.99306476
usemtl Tile_+032_+022_L20_0003220_0
f 731/548 619/549 732/550
f 735/625 634/610 736/629
f 742/716 548/687 743/728
f 744/599 633/591 745/585
f 633/591 634/610 632/596
f 600/557 630/551 637/558
f 750/146 618/147 751/148
f 754/674 636/653 755/688
f 636/653 553/608 756/649
f 548/687 549/665 754/674
f 513/169 514/185 762/183
f 456/154 453/160 733/157
f 753/152 456/154 764/155
f 646/1 434/2 647/3
f 411/6 410/4 646/1
f 645/255 409/243 649/257
f 643/8 122/12 650/17
f 170/423 629/424 770/425
f 629/793 174/772 769/804
f 634/610 555/606 632/596
f 637/558 630/551 747/555
f 745/585 598/577 775/573
f 766/753 376/715 777/745
f 783/259 644/258 784/260
f 734/164 513/169 763/174
f 638/24 411/6 641/18
f 768/780 383/743 778/770
f 458/170 449/165 459/161
f 35/498 101/504 197/509
f 605/589 598/577 632/596
f 245/698 148/673 376/715
f 393/768 68/776 357/788
f 385/261 405/262 407/263
f 76/50 74/58 115/57
f 134/69 74/58 130/59
f 578/714 579/697 539/726
f 290/331 291/323 306/334
f 213/488 173/479 186/477
f 356/390 344/399 394/398
f 383/743 352/727 376/715
f 609/611 615/620 610/601
f 48/570 573/574 611/567
f 592/660 577/661 596/648
f 433/712 597/695 50/711
f 605/589 604/595 60/582
f 454/156 616/153 613/158
f 602/554 630/551 600/557
f 620/195 500/178 610/177
f 623/676 625/667 626/656
f 631/614 564/594 608/603
f 562/633 631/614 561/613
f 566/167 613/158 611/162
f 569/562 571/564 599/563
f 554/640 549/665 551/652
f 562/633 606/622 631/614
f 59/583 583/590 62/578
f 608/603 564/594 558/588
f 584/651 257/639 542/664
f 148/673 149/699 376/715
f 56/681 597/695 432/669
f 64/703 252/691 381/675
f 533/723 152/694 531/710
f 430/750 50/711 537/740
f 533/723 532/722 530/735
f 245/698 375/744 353/746
f 544/650 585/663 542/664
f 516/237 409/243 517/227
f 453/160 508/188 509/192
f 525/204 628/226 547/219
f 139/68 95/63 465/78
f 95/63 96/62 465/78
f 438/218 628/226 525/204
f 511/175 513/169 453/160
f 524/211 508/188 452/189
f 453/160 509/192 526/184
f 473/923 487/924 494/925
f 491/236 506/224 492/231
f 512/193 511/175 526/184
f 444/857 443/858 440/859
f 486/171 429/198 466/187
f 479/863 461/861 444/857
f 587/635 592/660 596/648
f 503/225 489/221 527/216
f 468/222 507/217 488/210
f 521/65 547/60 628/73
f 509/192 504/202 526/184
f 141/86 507/93 467/102
f 467/102 466/117 429/108
f 626/656 627/678 623/676
f 624/944 622/945 623/946
f 425/97 467/102 429/108
f 484/916 455/917 476/918
f 417/118 419/124 400/110
f 626/656 625/667 620/631
f 500/178 620/195 498/206
f 420/123 426/109 502/128
f 416/759 415/758 89/751
f 504/202 506/224 503/225
f 437/74 628/73 438/84
f 99/61 143/48 469/52
f 179/453 190/458 216/461
f 347/798 219/799 215/778
f 430/750 537/740 90/725
f 539/726 529/757 535/752
f 153/679 398/709 532/722
f 153/679 41/690 398/709
f 137/96 368/95 364/81
f 395/271 273/281 268/285
f 168/812 247/805 251/794
f 101/504 66/517 197/509
f 70/765 69/783 67/784
f 224/544 331/539 223/535
f 375/744 352/727 345/754
f 355/764 222/763 354/774
f 339/822 349/825 107/821
f 248/891 319/892 394/893
f 230/826 231/827 326/828
f 240/495 213/488 217/499
f 340/143 390/139 225/145
f 330/841 342/832 394/847
f 248/842 394/847 342/832
f 212/475 187/481 172/473
f 330/936 334/937 335/938
f 336/939 330/936 335/938
f 340/349 312/330 359/341
f 221/782 247/805 351/766
f 152/694 579/697 577/661
f 389/801 357/788 388/808
f 388/144 225/145 390/139
f 266/290 397/299 652/294
f 21/395 305/379 12/387
f 72/317 311/321 288/314
f 206/530 349/540 204/534
f 269/297 260/291 309/301
f 310/306 260/291 288/314
f 383/743 174/772 320/762
f 66/517 205/525 162/515
f 162/515 197/509 66/517
f 265/114 371/106 392/120
f 553/608 552/597 59/583
f 541/668 40/657 153/679
f 602/554 601/560 571/564
f 775/573 600/557 779/569
f 600/557 637/558 737/565
f 602/554 617/556 619/549
f 619/149 617/151 618/147
f 618/147 617/151 616/153
f 611/567 616/559 569/562
f 616/153 611/162 613/158
f 619/549 630/551 602/554
f 616/559 617/556 602/554
f 456/154 618/147 616/153
f 616/153 454/156 456/154
f 588/615 607/623 589/634
f 454/156 613/158 459/161
f 449/165 454/156 459/161
f 500/178 501/196 499/186
f 610/177 612/166 566/167
f 613/158 566/167 612/166
f 595/655 594/682 627/678
f 610/177 500/178 612/166
f 621/677 418/721 423/707
f 497/207 420/208 501/196
f 500/178 486/171 612/166
f 564/594 606/622 607/623
f 612/166 459/161 613/158
f 594/682 624/705 627/678
f 595/655 627/678 626/656
f 626/656 614/644 595/655
f 400/110 463/104 417/118
f 422/696 418/721 621/677
f 622/706 624/705 594/682
f 621/677 625/667 623/676
f 623/676 622/706 621/677
f 621/677 498/692 620/631
f 53/643 595/655 614/644
f 620/631 614/644 626/656
f 610/601 615/620 620/631
f 615/620 614/644 620/631
f 609/611 54/630 615/620
f 615/620 53/643 614/644
f 53/643 54/630 595/655
f 55/647 590/624 593/662
f 593/662 591/670 55/647
f 54/630 590/624 55/647
f 50/711 597/695 56/681
f 432/669 597/695 433/712
f 432/669 55/647 56/681
f 591/670 57/683 55/647
f 590/624 596/648 593/662
f 593/662 596/648 581/671
f 577/661 581/671 596/648
f 540/659 541/668 52/693
f 55/647 432/669 595/655
f 432/669 594/682 595/655
f 90/725 416/759 89/751
f 581/671 591/670 593/662
f 592/660 587/635 589/634
f 421/738 422/696 88/739
f 432/669 431/713 422/696
f 90/725 537/740 416/759
f 594/682 432/669 422/696
f 581/671 50/711 56/681
f 56/681 57/683 581/671
f 57/683 591/670 581/671
f 590/624 588/615 587/635
f 572/581 563/604 586/600
f 557/576 575/587 559/593
f 559/593 574/602 565/612
f 563/604 568/592 586/600
f 599/563 61/568 570/571
f 611/567 573/574 566/579
f 563/604 609/611 568/592
f 610/601 566/579 568/592
f 590/624 54/630 563/604
f 568/592 609/611 610/601
f 573/574 572/581 567/586
f 54/630 609/611 563/604
f 559/593 561/613 608/603
f 563/604 588/615 590/624
f 589/634 587/635 588/615
f 588/615 564/594 607/623
f 607/623 606/622 562/633
f 607/623 562/633 582/646
f 606/622 564/594 631/614
f 582/646 577/661 589/634
f 556/607 59/583 604/595
f 600/557 58/572 61/568
f 157/609 71/621 574/602
f 555/606 605/589 632/596
f 583/590 154/584 62/578
f 598/577 633/591 632/596
f 555/606 603/605 605/589
f 603/605 556/607 604/595
f 60/582 598/577 605/589
f 601/560 602/554 600/557
f 599/563 571/564 601/560
f 599/563 600/557 61/568
f 598/577 58/572 600/557
f 605/589 603/605 604/595
f 553/608 59/583 556/607
f 576/580 557/576 61/568
f 569/562 599/563 570/571
f 574/602 559/593 575/587
f 557/576 576/580 575/587
f 576/580 154/584 575/587
f 557/576 558/588 572/581
f 154/584 574/602 575/587
f 565/612 574/602 71/621
f 572/581 573/574 570/571
f 567/586 572/581 586/600
f 611/567 569/562 48/570
f 616/559 602/554 569/562
f 570/571 49/575 569/562
f 570/571 573/574 48/570
f 566/579 567/586 568/592
f 573/574 567/586 566/579
f 567/586 586/600 568/592
f 565/612 560/632 561/613
f 572/581 564/594 563/604
f 559/593 565/612 561/613
f 558/588 564/594 572/581
f 562/633 560/632 71/621
f 570/571 557/576 572/581
f 560/632 562/633 561/613
f 608/603 558/588 559/593
f 557/576 559/593 558/588
f 560/632 565/612 71/621
f 556/607 555/606 553/608
f 636/653 554/640 553/608
f 549/665 554/640 636/653
f 546/616 552/597 256/617
f 551/652 549/665 257/639
f 585/663 545/637 550/638
f 542/664 585/663 584/651
f 552/597 553/608 256/617
f 545/637 546/616 550/638
f 256/617 584/651 550/638
f 44/598 552/597 546/616
f 256/617 553/608 258/627
f 551/652 258/627 554/640
f 258/627 553/608 554/640
f 553/608 555/606 746/636
f 154/584 583/590 44/598
f 574/602 154/584 157/609
f 583/590 59/583 552/597
f 540/659 562/633 71/621
f 577/661 582/646 540/659
f 579/697 581/671 577/661
f 152/694 533/723 579/697
f 581/671 579/697 578/714
f 537/740 578/714 580/741
f 580/741 536/760 537/740
f 535/752 536/760 580/741
f 538/742 534/737 530/735
f 578/714 537/740 50/711
f 50/711 581/671 578/714
f 582/646 562/633 540/659
f 39/708 52/693 153/679
f 38/680 577/661 540/659
f 71/621 160/658 540/659
f 43/618 46/641 253/642
f 552/597 44/598 583/590
f 544/650 46/641 45/626
f 545/637 585/663 544/650
f 546/616 545/637 45/626
f 544/650 253/642 46/641
f 45/626 46/641 43/618
f 45/626 545/637 544/650
f 40/657 47/628 543/654
f 47/628 253/642 543/654
f 79/686 77/685 542/664
f 377/702 129/731 378/718
f 47/628 40/657 159/645
f 541/668 540/659 159/645
f 530/735 529/757 539/726
f 539/726 580/741 578/714
f 82/779 414/769 535/752
f 537/740 536/760 414/769
f 535/752 393/768 82/779
f 530/735 534/737 533/723
f 532/722 398/709 530/735
f 533/723 531/710 532/722
f 531/710 39/708 153/679
f 153/679 52/693 541/668
f 398/709 528/748 530/735
f 535/752 529/757 393/768
f 78/689 245/698 382/701
f 393/768 529/757 528/748
f 110/818 388/808 357/788
f 393/768 528/748 380/749
f 528/748 398/709 379/736
f 377/702 378/718 41/690
f 42/666 252/691 128/704
f 353/746 151/719 63/730
f 381/675 544/650 78/689
f 148/673 79/686 542/664
f 79/686 148/673 245/698
f 78/689 382/701 381/675
f 42/666 40/657 543/654
f 77/685 544/650 542/664
f 544/650 381/675 253/642
f 148/673 257/639 549/665
f 542/664 257/639 148/673
f 549/665 548/687 148/673
f 245/698 63/730 382/701
f 384/42 76/50 115/57
f 518/232 516/237 517/227
f 409/243 635/251 515/244
f 518/51 547/60 520/46
f 520/46 92/31 516/37
f 516/37 518/51 520/46
f 436/75 99/61 408/53
f 521/65 408/53 520/46
f 547/219 517/227 519/194
f 519/194 525/204 547/219
f 518/232 517/227 547/219
f 521/65 520/46 547/60
f 628/73 437/74 521/65
f 525/204 519/194 511/175
f 773/205 519/194 780/220
f 409/243 515/244 517/227
f 517/227 515/244 761/238
f 780/220 517/227 781/233
f 519/194 514/185 511/175
f 526/184 511/175 453/160
f 513/169 511/175 514/185
f 469/52 408/53 99/61
f 141/86 436/75 507/93
f 493/215 505/229 98/230
f 492/231 493/215 98/230
f 496/865 483/868 480/866
f 503/225 527/216 504/202
f 493/215 523/212 505/229
f 97/235 98/230 484/223
f 523/212 510/213 505/229
f 522/101 507/93 435/85
f 436/75 435/85 507/93
f 527/216 488/210 507/217
f 504/202 527/216 526/184
f 507/217 526/184 527/216
f 504/202 493/215 506/224
f 438/218 512/193 522/203
f 525/204 512/193 438/218
f 511/175 512/193 525/204
f 526/184 522/203 512/193
f 522/101 435/85 438/84
f 507/217 522/203 526/184
f 452/189 155/200 524/211
f 98/230 510/213 484/223
f 145/241 98/230 97/235
f 460/179 508/188 453/160
f 495/228 482/234 471/199
f 509/192 508/188 523/212
f 509/192 523/212 493/215
f 524/211 510/213 523/212
f 484/223 510/213 156/190
f 504/202 509/192 493/215
f 471/199 489/221 495/228
f 495/228 489/221 503/225
f 524/211 523/212 508/188
f 460/179 452/189 508/188
f 155/200 510/213 524/211
f 510/213 98/230 505/229
f 480/866 479/863 444/857
f 145/241 473/250 494/239
f 494/239 495/228 491/236
f 492/231 98/230 490/242
f 493/215 492/231 506/224
f 490/242 491/236 492/231
f 494/239 491/236 145/241
f 98/230 145/241 490/242
f 502/197 428/209 486/171
f 455/917 475/921 476/918
f 156/920 455/917 484/916
f 466/187 468/222 488/210
f 503/225 491/236 495/228
f 488/210 489/221 471/199
f 471/199 466/187 488/210
f 527/216 489/221 488/210
f 482/869 472/870 471/871
f 485/253 479/248 487/245
f 481/256 485/253 477/249
f 428/209 429/198 486/171
f 487/245 473/250 485/253
f 144/246 97/235 474/240
f 477/249 485/253 473/250
f 483/868 482/869 479/863
f 97/235 484/223 474/240
f 479/248 485/253 481/256
f 478/903 448/904 481/905
f 481/867 461/861 479/863
f 144/246 474/240 477/249
f 478/254 477/249 474/240
f 474/919 484/916 476/918
f 481/256 477/249 478/254
f 483/868 479/863 480/866
f 475/906 455/909 448/904
f 474/947 476/948 475/949
f 475/906 478/903 474/908
f 487/245 482/234 494/239
f 495/228 494/239 482/234
f 482/234 487/245 479/248
f 445/907 481/905 448/904
f 448/904 455/909 457/911
f 461/861 481/867 445/864
f 496/176 459/161 486/171
f 486/171 459/161 612/166
f 500/178 497/207 501/196
f 500/178 498/206 497/207
f 486/171 499/186 502/197
f 420/208 499/186 501/196
f 502/197 499/186 420/208
f 426/109 428/122 502/128
f 500/178 499/186 486/171
f 497/134 424/129 420/123
f 486/171 466/187 496/176
f 497/720 498/692 423/707
f 424/733 497/720 423/707
f 471/871 472/870 496/865
f 496/865 480/866 444/857
f 496/865 472/870 483/868
f 466/187 471/199 496/176
f 444/857 458/862 496/865
f 462/159 456/154 454/156
f 456/154 462/159 441/163
f 444/857 461/861 443/858
f 445/181 446/180 447/168
f 496/176 458/170 459/161
f 450/912 446/910 457/911
f 156/920 450/922 455/917
f 449/165 441/163 454/156
f 458/862 444/857 449/860
f 453/160 456/154 441/163
f 453/160 447/168 451/172
f 155/200 452/189 451/172
f 453/160 451/172 460/179
f 451/172 156/190 155/200
f 460/179 451/172 452/189
f 446/180 156/190 451/172
f 156/941 446/942 450/943
f 451/172 447/168 446/180
f 446/910 445/907 448/904
f 449/860 444/857 440/859
f 445/864 443/858 461/861
f 447/168 441/163 442/173
f 447/168 442/173 445/181
f 443/191 445/181 442/173
f 440/182 442/173 441/163
f 449/913 440/914 441/915
f 440/182 443/191 442/173
f 100/54 99/61 439/66
f 438/84 435/85 408/53
f 435/85 436/75 408/53
f 438/84 408/53 437/74
f 436/75 439/66 99/61
f 140/76 100/54 439/66
f 142/67 141/86 465/78
f 140/76 142/67 100/54
f 465/78 470/77 142/67
f 465/78 141/86 467/102
f 96/62 142/67 470/77
f 465/78 96/62 470/77
f 33/39 96/62 95/63
f 401/34 127/28 75/43
f 138/98 362/99 367/89
f 408/53 521/65 437/74
f 469/52 143/48 124/38
f 370/94 369/87 139/68
f 507/93 468/112 467/102
f 380/749 378/718 111/747
f 468/112 466/117 467/102
f 425/97 465/78 467/102
f 139/68 464/88 370/94
f 425/97 464/88 465/78
f 536/760 535/752 414/769
f 370/94 464/88 463/104
f 463/104 400/110 370/94
f 431/713 432/669 51/724
f 90/725 51/724 430/750
f 425/97 429/108 427/116
f 426/109 417/118 463/104
f 428/122 426/109 427/116
f 425/97 427/116 426/109
f 463/104 425/97 426/109
f 415/131 419/124 88/137
f 432/669 433/712 51/724
f 88/137 419/124 421/130
f 431/713 90/725 422/696
f 415/758 88/739 89/751
f 498/692 621/677 423/707
f 421/738 418/721 422/696
f 594/682 422/696 621/677
f 417/118 424/129 423/135
f 421/130 417/118 418/136
f 426/109 420/123 417/118
f 420/123 424/129 417/118
f 421/130 419/124 417/118
f 417/734 423/707 418/721
f 83/789 416/759 414/769
f 416/140 83/138 415/131
f 83/138 82/141 391/132
f 416/759 537/740 414/769
f 434/2 86/7 133/11
f 133/11 121/15 434/2
f 127/28 132/21 125/16
f 127/28 401/34 132/21
f 123/27 33/39 127/28
f 126/14 125/16 87/10
f 411/6 126/14 87/10
f 434/2 410/4 86/7
f 409/25 146/19 411/6
f 411/6 87/10 410/4
f 146/19 147/26 126/14
f 147/26 93/32 126/14
f 91/47 520/46 408/53
f 409/25 92/31 146/19
f 409/25 516/37 92/31
f 405/262 385/261 403/264
f 121/15 133/11 131/20
f 404/23 406/35 402/30
f 404/23 131/20 407/33
f 121/15 131/20 404/23
f 402/267 406/265 403/264
f 122/12 121/15 404/23
f 402/30 122/12 404/23
f 657/270 403/264 658/274
f 656/29 402/30 659/44
f 407/33 405/40 404/23
f 405/262 403/264 406/265
f 413/316 397/299 664/315
f 386/64 385/41 363/56
f 395/271 266/290 653/286
f 666/272 412/268 667/277
f 396/266 412/268 403/264
f 397/299 413/316 668/310
f 412/268 395/271 660/276
f 385/261 386/269 396/266
f 28/929 25/930 670/931
f 384/42 131/20 401/34
f 26/933 25/930 28/929
f 655/414 28/418 671/420
f 31/417 28/418 300/406
f 27/422 31/417 29/421
f 293/367 18/385 12/387
f 280/298 283/309 397/299
f 280/298 267/293 297/302
f 395/271 396/266 272/273
f 283/309 280/298 292/308
f 277/287 271/289 272/273
f 394/847 344/853 330/841
f 356/390 394/398 329/371
f 357/788 389/801 393/768
f 261/126 274/127 392/120
f 73/304 275/328 285/327
f 359/341 312/330 285/327
f 389/142 388/144 390/139
f 341/357 108/375 259/382
f 207/820 203/815 198/807
f 374/103 371/106 265/114
f 392/120 372/113 261/126
f 203/815 339/822 357/788
f 358/809 357/788 106/796
f 68/776 393/768 380/749
f 173/479 213/488 348/490
f 68/776 106/796 357/788
f 391/802 399/790 389/801
f 399/790 393/768 389/801
f 289/125 262/119 400/110
f 390/139 289/125 391/132
f 262/119 261/126 372/113
f 374/103 369/87 370/94
f 262/119 372/113 370/94
f 82/779 399/790 391/802
f 391/132 400/110 83/138
f 228/536 243/532 109/526
f 375/744 355/764 353/746
f 378/718 379/736 398/709
f 64/703 381/675 382/701
f 380/749 528/748 379/736
f 380/749 379/736 378/718
f 64/703 151/719 252/691
f 276/90 369/87 278/105
f 377/702 42/666 128/704
f 279/115 373/107 374/103
f 128/704 129/731 377/702
f 64/703 63/730 151/719
f 252/691 151/719 128/704
f 111/747 70/765 380/749
f 351/766 354/774 222/763
f 375/744 245/698 352/727
f 134/69 361/92 116/72
f 74/58 135/83 116/72
f 94/55 158/79 136/80
f 369/87 374/103 373/107
f 364/81 368/95 369/87
f 116/72 361/92 114/82
f 370/94 372/113 371/106
f 158/79 369/87 368/95
f 362/99 134/69 367/89
f 136/80 138/98 367/89
f 158/79 368/95 137/96
f 363/895 113/896 365/897
f 365/91 364/81 363/56
f 362/926 361/927 134/928
f 360/899 361/902 362/901
f 361/902 360/899 114/900
f 387/71 363/56 115/57
f 365/91 138/98 366/100
f 387/898 113/896 363/895
f 365/91 362/99 138/98
f 360/899 362/901 365/897
f 365/897 113/896 360/899
f 281/283 277/287 272/273
f 364/81 366/100 137/96
f 364/81 365/91 366/100
f 282/70 363/56 364/81
f 364/81 276/90 282/70
f 369/87 373/107 278/105
f 374/103 270/121 279/115
f 282/70 386/64 363/56
f 396/266 386/269 272/273
f 407/33 131/20 385/41
f 114/82 387/71 115/57
f 385/41 384/42 363/56
f 277/111 278/105 373/107
f 63/730 245/698 353/746
f 111/747 128/704 150/732
f 222/763 355/764 375/744
f 117/755 150/732 353/746
f 165/773 222/763 345/754
f 118/756 111/747 150/732
f 353/746 354/774 351/766
f 351/766 350/777 117/755
f 352/727 383/743 345/754
f 312/330 311/321 285/327
f 215/778 118/756 346/785
f 246/797 346/785 351/766
f 191/464 190/458 209/457
f 165/773 164/803 251/794
f 345/754 244/771 165/773
f 346/785 350/777 351/766
f 177/816 192/817 246/797
f 118/756 350/777 346/785
f 255/460 210/467 191/464
f 246/797 192/817 347/798
f 171/781 244/771 320/762
f 218/471 255/460 685/474
f 119/872 226/873 332/874
f 84/775 70/765 111/747
f 211/472 184/465 254/468
f 247/805 177/816 246/797
f 67/784 68/776 70/765
f 254/468 184/465 190/458
f 357/788 358/809 203/815
f 329/371 341/357 259/382
f 357/788 339/822 107/821
f 287/336 312/330 338/342
f 341/357 225/365 108/375
f 225/365 341/357 340/349
f 356/390 259/382 344/399
f 250/391 394/398 319/393
f 230/826 343/829 239/833
f 329/371 259/382 356/390
f 259/878 108/875 332/874
f 341/357 329/371 337/355
f 198/807 203/815 106/796
f 67/784 194/813 198/807
f 66/517 101/504 104/522
f 203/815 358/809 106/796
f 213/488 240/495 348/490
f 330/890 344/882 334/888
f 336/885 334/888 344/882
f 394/398 250/391 329/371
f 332/874 333/887 336/885
f 333/848 330/841 336/854
f 343/829 326/828 342/832
f 342/832 326/828 102/837
f 344/882 332/874 336/885
f 314/329 234/320 313/313
f 338/342 341/357 337/355
f 338/342 340/349 341/357
f 289/125 390/139 340/143
f 359/341 289/338 340/349
f 349/825 339/822 204/824
f 339/822 203/815 204/824
f 312/330 340/349 338/342
f 119/872 349/880 206/876
f 337/355 318/356 233/335
f 224/881 336/885 335/884
f 224/881 334/888 336/885
f 337/355 233/335 338/342
f 333/940 335/938 334/937
f 224/843 239/833 333/848
f 332/874 331/877 224/881
f 330/841 333/848 239/833
f 250/391 323/372 329/371
f 690/512 217/499 691/511
f 104/522 243/532 65/528
f 193/500 35/498 348/490
f 343/829 230/826 326/828
f 109/526 243/532 104/522
f 238/527 229/531 105/516
f 101/504 202/510 105/516
f 105/516 109/526 104/522
f 224/843 333/848 334/855
f 331/539 205/525 223/535
f 65/528 223/535 205/525
f 223/535 65/528 243/532
f 343/829 342/832 239/833
f 332/874 224/881 335/884
f 287/336 233/335 314/329
f 205/525 66/517 65/528
f 189/806 69/783 85/795
f 35/498 201/493 348/490
f 201/493 195/485 348/490
f 85/795 200/814 189/806
f 246/797 347/798 346/785
f 254/468 191/464 210/467
f 346/785 347/798 215/778
f 244/771 345/754 320/762
f 255/460 178/456 694/463
f 247/805 221/782 251/794
f 345/754 383/743 320/762
f 221/782 165/773 251/794
f 209/457 242/452 255/460
f 209/457 208/449 242/452
f 2/364 318/356 317/373
f 696/392 317/373 697/400
f 17/384 2/364 317/373
f 249/383 317/373 318/356
f 324/407 317/373 327/402
f 698/844 36/839 699/850
f 319/393 102/409 327/402
f 249/383 318/356 323/372
f 249/383 319/393 317/373
f 102/837 103/831 325/840
f 327/402 317/373 319/393
f 236/836 324/845 325/840
f 327/846 102/837 325/840
f 236/836 325/840 103/831
f 325/840 324/845 327/846
f 697/400 324/407 700/415
f 234/320 322/340 14/348
f 337/355 323/372 318/356
f 14/348 322/340 233/335
f 233/335 318/356 14/348
f 14/348 235/370 16/363
f 306/334 234/320 321/339
f 306/334 291/323 307/319
f 296/307 308/305 307/319
f 307/319 308/305 234/320
f 23/344 299/337 290/331
f 305/379 21/395 302/388
f 21/395 303/413 300/406
f 18/385 293/367 304/376
f 299/337 10/351 295/353
f 304/376 10/351 8/377
f 295/353 293/367 298/362
f 305/379 293/367 12/387
f 19/411 303/413 21/395
f 30/419 303/413 19/411
f 301/380 302/388 21/395
f 20/405 12/387 6/412
f 301/380 298/362 302/388
f 301/380 300/406 654/397
f 301/380 120/369 298/362
f 307/319 291/323 296/307
f 296/307 291/323 292/308
f 295/353 294/345 299/337
f 294/345 298/362 120/369
f 298/362 294/345 295/353
f 298/362 305/379 302/388
f 294/345 120/369 676/361
f 120/369 301/380 672/389
f 305/379 298/362 293/367
f 300/406 301/380 21/395
f 293/367 295/353 10/351
f 292/308 291/323 290/331
f 292/308 290/331 315/324
f 5/350 316/366 24/359
f 316/366 5/350 3/358
f 4/343 5/350 290/331
f 23/344 37/360 10/351
f 290/331 5/350 23/344
f 299/337 23/344 10/351
f 284/332 299/337 294/345
f 297/302 292/308 280/298
f 299/337 284/332 315/324
f 310/306 309/301 260/291
f 284/332 283/309 315/324
f 286/322 287/336 314/329
f 285/327 289/338 359/341
f 313/313 286/322 314/329
f 286/322 313/313 310/306
f 313/313 234/320 308/305
f 311/321 312/330 310/306
f 313/313 309/301 310/306
f 310/306 288/314 311/321
f 269/297 309/301 308/305
f 269/297 296/307 297/302
f 286/322 312/330 287/336
f 292/308 297/302 296/307
f 308/305 296/307 269/297
f 308/305 309/301 313/313
f 285/327 311/321 72/317
f 267/293 266/290 268/285
f 284/332 294/345 677/352
f 664/315 283/309 682/325
f 283/309 284/332 681/333
f 272/273 282/279 281/283
f 386/269 282/279 272/273
f 272/273 273/281 395/271
f 267/293 280/298 266/290
f 270/121 374/103 265/114
f 277/111 373/107 279/115
f 278/105 277/111 276/90
f 271/289 277/287 279/295
f 262/318 275/328 73/304
f 281/283 276/288 277/287
f 392/120 274/127 265/114
f 265/296 274/300 260/291
f 268/285 273/281 264/284
f 271/289 264/284 272/273
f 269/297 267/293 268/285
f 268/285 260/291 269/297
f 264/284 265/296 260/291
f 73/304 263/311 260/291
f 289/338 285/327 275/328
f 289/125 275/133 262/119
f 72/317 288/314 263/311
f 260/291 263/311 288/314
f 260/291 274/300 73/304
f 397/299 266/290 280/298
f 395/271 412/268 396/266
f 256/617 258/627 257/639
f 337/355 329/371 323/372
f 378/718 129/731 111/747
f 381/675 42/666 253/642
f 215/778 112/767 118/756
f 406/35 404/23 405/40
f 381/675 252/691 42/666
f 249/383 323/372 250/391
f 34/819 198/807 194/813
f 248/842 342/832 102/837
f 274/300 261/312 73/304
f 207/508 196/503 163/514
f 190/458 191/464 254/468
f 200/486 180/476 185/482
f 67/784 69/783 189/806
f 219/454 179/453 214/462
f 81/502 328/506 161/513
f 237/541 227/538 703/545
f 167/447 178/456 242/452
f 244/434 181/430 220/439
f 700/852 236/836 705/856
f 255/460 242/452 178/456
f 345/754 222/763 375/744
f 219/799 347/798 192/817
f 241/480 218/471 687/478
f 232/542 223/535 243/532
f 240/495 217/499 81/502
f 214/462 179/453 216/461
f 388/889 110/883 225/886
f 217/499 328/506 81/502
f 390/139 391/132 389/142
f 189/806 194/813 67/784
f 282/279 276/288 281/283
f 182/438 169/433 175/441
f 164/803 220/791 175/810
f 175/810 251/794 164/803
f 247/805 246/797 351/766
f 353/746 351/766 117/755
f 353/746 355/764 354/774
f 220/439 182/438 175/441
f 265/296 264/284 270/292
f 221/782 222/763 165/773
f 209/457 255/460 191/464
f 244/771 220/791 165/773
f 73/304 261/312 262/318
f 169/433 170/423 709/437
f 169/433 181/430 170/423
f 183/469 214/462 216/461
f 210/467 255/460 218/471
f 65/528 66/517 104/522
f 184/465 183/469 216/461
f 215/778 219/799 214/786
f 180/476 183/469 172/473
f 215/778 214/786 112/767
f 108/875 119/872 332/874
f 213/488 186/477 712/492
f 167/447 208/449 176/445
f 210/467 212/475 211/472
f 185/482 173/479 195/485
f 101/504 193/500 202/510
f 218/471 212/475 210/467
f 186/477 218/471 241/480
f 348/490 240/495 193/500
f 211/472 212/475 172/473
f 211/472 254/468 210/467
f 183/787 112/767 214/786
f 186/477 187/481 212/475
f 218/471 186/477 212/475
f 232/834 230/826 239/833
f 103/831 326/828 231/827
f 229/531 109/526 105/516
f 227/538 237/541 229/531
f 231/827 237/830 704/835
f 229/531 228/536 109/526
f 229/531 238/527 227/538
f 236/836 231/827 36/839
f 235/370 14/348 22/381
f 248/891 102/894 319/892
f 233/335 322/340 234/320
f 15/347 321/339 234/320
f 237/830 230/826 232/834
f 332/874 335/884 333/887
f 243/532 228/536 232/542
f 237/830 231/827 230/826
f 36/839 231/827 717/838
f 237/541 232/542 228/536
f 237/541 228/536 229/531
f 236/836 103/831 231/827
f 226/873 119/872 206/876
f 2/364 14/348 318/356
f 15/347 234/320 14/348
f 238/527 199/520 720/529
f 719/543 238/527 721/537
f 226/533 205/525 331/539
f 224/843 232/834 239/833
f 196/503 197/509 162/515
f 197/509 196/503 35/498
f 195/485 201/493 188/489
f 81/502 193/500 240/495
f 348/490 195/485 173/479
f 179/453 176/445 208/449
f 179/453 208/449 190/458
f 173/479 172/473 187/481
f 183/787 180/800 84/775
f 207/508 34/496 196/503
f 186/477 173/479 187/481
f 205/525 206/530 163/514
f 206/530 204/534 163/514
f 193/500 80/507 202/510
f 203/815 207/820 163/823
f 161/513 328/506 689/519
f 238/527 105/516 199/520
f 722/523 80/507 724/524
f 199/520 105/516 202/510
f 202/510 80/507 199/520
f 101/504 35/498 193/500
f 188/489 201/493 34/496
f 194/497 188/489 34/496
f 84/775 180/800 85/795
f 200/486 185/482 189/491
f 200/814 85/795 180/800
f 183/469 184/465 172/473
f 211/472 172/473 184/465
f 189/491 188/489 194/497
f 189/491 185/482 188/489
f 184/465 216/461 190/458
f 188/489 185/482 195/485
f 167/447 242/452 208/449
f 169/433 182/438 181/430
f 173/479 185/482 180/476
f 168/443 176/445 177/448
f 251/794 175/810 168/812
f 219/454 176/445 179/453
f 247/805 168/812 177/816
f 708/442 169/433 710/440
f 174/772 629/793 171/781
f 244/434 171/427 181/430
f 176/445 169/433 167/447
f 177/448 176/445 192/450
f 320/762 174/772 171/781
f 171/427 629/424 170/423
f 181/430 171/427 170/423
f 175/441 169/433 168/443
f 167/447 166/444 707/446
f 169/433 166/444 167/447
f 181/430 182/438 220/439
f 163/514 196/503 162/515
f 173/479 180/476 172/473
f 125/16 123/27 127/28
f 143/48 33/39 123/27
f 126/14 93/32 123/27
f 80/507 161/513 723/521
f 540/659 160/658 159/645
f 160/658 71/621 159/645
f 369/87 158/79 139/68
f 534/737 579/697 533/723
f 600/557 599/563 601/560
f 608/603 561/613 631/614
f 577/661 592/660 589/634
f 557/576 570/571 61/568
f 154/584 61/568 62/578
f 71/621 157/609 47/628
f 38/680 531/710 152/694
f 151/719 150/732 128/704
f 408/53 124/38 91/47
f 596/648 590/624 587/635
f 473/250 144/246 477/249
f 130/59 32/49 94/55
f 93/32 92/31 91/47
f 276/90 364/81 369/87
f 580/741 539/726 535/752
f 627/678 624/705 623/676
f 88/739 422/696 90/725
f 88/739 90/725 89/751
f 87/10 86/7 410/4
f 86/7 125/16 133/11
f 403/264 385/261 396/266
f 127/28 32/49 75/43
f 137/96 136/80 158/79
f 84/775 85/795 69/783
f 193/500 81/502 80/507
f 79/686 78/689 77/685
f 74/58 76/50 75/43
f 72/317 263/311 73/304
f 376/715 352/727 245/698
f 378/718 398/709 41/690
f 376/715 149/699 742/716
f 163/823 204/824 203/815
f 344/882 259/878 332/874
f 530/735 528/748 529/757
f 577/661 38/680 152/694
f 286/322 310/306 312/330
f 176/445 219/454 192/450
f 163/514 162/515 205/525
f 63/730 64/703 382/701
f 58/572 62/578 61/568
f 58/572 60/582 59/583
f 60/582 604/595 59/583
f 569/562 602/554 571/564
f 594/682 621/677 622/706
f 620/631 625/667 621/677
f 56/681 55/647 57/683
f 615/620 54/630 53/643
f 38/680 540/659 52/693
f 595/655 54/630 55/647
f 430/750 51/724 50/711
f 83/138 400/110 415/131
f 90/725 431/713 51/724
f 569/562 49/575 48/570
f 49/575 570/571 48/570
f 607/623 582/646 589/634
f 584/651 256/617 257/639
f 598/577 60/582 58/572
f 556/607 603/605 555/606
f 62/578 58/572 59/583
f 564/594 588/615 563/604
f 154/584 576/580 61/568
f 546/616 45/626 44/598
f 258/627 551/652 257/639
f 550/638 584/651 585/663
f 550/638 546/616 256/617
f 153/679 532/722 531/710
f 579/697 534/737 538/742
f 538/742 539/726 579/697
f 539/726 538/742 530/735
f 47/628 157/609 43/618
f 40/657 541/668 159/645
f 43/618 157/609 44/598
f 44/598 157/609 154/584
f 45/626 43/618 44/598
f 543/654 253/642 42/666
f 78/689 79/686 245/698
f 42/666 41/690 40/657
f 39/708 38/680 52/693
f 39/708 531/710 38/680
f 153/679 40/657 41/690
f 377/702 41/690 42/666
f 548/687 149/699 148/673
f 70/765 84/775 69/783
f 147/26 92/31 93/32
f 503/225 506/224 491/236
f 472/870 482/869 483/868
f 510/213 155/200 156/190
f 97/235 144/246 145/241
f 491/236 490/242 145/241
f 429/108 428/122 427/116
f 473/250 145/241 144/246
f 478/903 475/906 448/904
f 457/911 446/910 448/904
f 455/909 450/912 457/911
f 441/163 462/159 454/156
f 453/160 441/163 447/168
f 91/47 124/38 93/32
f 401/34 76/50 384/42
f 143/48 99/61 100/54
f 439/66 436/75 140/76
f 465/78 464/88 139/68
f 141/86 140/76 436/75
f 141/86 142/67 140/76
f 95/63 94/55 33/39
f 158/79 94/55 139/68
f 94/55 95/63 139/68
f 96/62 100/54 142/67
f 137/96 366/100 138/98
f 138/98 136/80 137/96
f 143/48 100/54 33/39
f 136/80 134/69 94/55
f 116/72 135/83 134/69
f 401/34 75/43 76/50
f 131/20 133/11 132/21
f 130/59 74/58 75/43
f 75/43 32/49 130/59
f 100/54 96/62 33/39
f 111/747 129/731 128/704
f 425/97 463/104 464/88
f 51/724 433/712 50/711
f 400/110 419/124 415/131
f 83/789 414/769 82/779
f 133/11 125/16 132/21
f 125/16 86/7 87/10
f 92/31 147/26 146/19
f 411/6 146/19 126/14
f 123/27 125/16 126/14
f 123/27 93/32 124/38
f 143/48 123/27 124/38
f 408/53 469/52 124/38
f 520/46 91/47 92/31
f 121/15 122/12 434/2
f 395/271 268/285 266/290
f 363/56 384/42 115/57
f 72/317 73/304 285/327
f 107/879 349/880 119/872
f 67/784 106/796 68/776
f 371/106 372/113 392/120
f 70/765 68/776 380/749
f 400/110 262/119 370/94
f 391/132 289/125 400/110
f 393/768 399/790 82/779
f 544/650 77/685 78/689
f 117/755 350/777 118/756
f 134/69 130/59 94/55
f 115/57 74/58 116/72
f 134/69 135/83 74/58
f 367/89 134/69 136/80
f 371/106 374/103 370/94
f 116/72 114/82 115/57
f 387/898 114/900 113/896
f 114/900 360/899 113/896
f 270/292 271/289 279/295
f 131/20 384/42 385/41
f 353/746 150/732 151/719
f 34/819 207/820 198/807
f 150/732 117/755 118/756
f 220/791 164/803 165/773
f 221/782 351/766 222/763
f 112/767 111/747 118/756
f 183/787 84/775 112/767
f 84/775 111/747 112/767
f 107/821 110/818 357/788
f 108/875 225/886 110/883
f 107/879 119/872 108/875
f 108/875 110/883 107/879
f 226/533 206/530 205/525
f 198/807 106/796 67/784
f 338/342 233/335 287/336
f 104/522 101/504 105/516
f 330/841 239/833 342/832
f 102/837 326/828 103/831
f 224/544 223/535 232/542
f 319/393 249/383 250/391
f 314/329 233/335 234/320
f 303/413 31/417 300/406
f 290/331 299/337 315/324
f 292/308 315/324 283/309
f 269/297 297/302 267/293
f 264/284 271/289 270/292
f 273/281 272/273 264/284
f 260/291 268/285 264/284
f 80/507 81/502 161/513
f 332/874 226/873 331/877
f 169/433 176/445 168/443
f 209/457 190/458 208/449
f 217/499 213/488 713/494
f 34/496 201/493 35/498
f 34/496 35/498 196/503
f 186/477 241/480 692/483
f 714/459 167/447 726/455
f 32/49 127/28 33/39
f 33/39 94/55 32/49
f 131/20 132/21 401/34
f 47/628 159/645 71/621
f 43/618 253/642 47/628
f 31/417 303/413 30/419
f 29/421 31/417 30/419
f 28/418 31/417 27/422
f 26/933 28/929 27/935
f 23/344 5/350 24/359
f 19/411 21/395 20/405
f 13/403 12/387 18/385
f 16/363 15/347 14/348
f 4/343 290/331 306/334
f 307/319 234/320 306/334
f 11/410 12/387 13/403
f 7/416 12/387 11/410
f 304/376 293/367 10/351
f 8/377 10/351 9/368
f 21/395 12/387 20/405
f 6/412 12/387 7/416
f 10/351 37/360 9/368
f 3/358 5/350 4/343
f 22/381 14/348 1/374
f 1/374 14/348 2/364
f 782/252 635/251 783/259
f 638/24 409/25 411/6
f 639/36 409/25 638/24
f 640/13 411/6 648/9
f 641/18 411/6 640/13
f 642/5 434/2 643/8
f 643/8 434/2 122/12
f 644/258 635/251 645/255
f 645/255 635/251 409/243
f 646/1 410/4 434/2
f 647/3 434/2 642/5
f 648/9 411/6 646/1
f 649/45 409/25 639/36
f 650/17 122/12 651/22
f 651/22 122/12 656/29
f 652/294 397/299 669/303
f 653/286 266/290 652/294
f 654/397 300/406 655/414
f 655/414 300/406 28/418
f 656/29 122/12 402/30
f 657/270 402/267 403/264
f 658/274 403/264 663/280
f 659/275 402/267 657/270
f 660/276 395/271 661/282
f 661/282 395/271 653/286
f 662/278 403/264 666/272
f 663/280 403/264 662/278
f 664/315 397/299 283/309
f 665/326 413/316 664/315
f 666/272 403/264 412/268
f 667/277 412/268 660/276
f 668/310 413/316 665/326
f 669/303 397/299 668/310
f 670/931 25/930 684/934
f 671/932 28/929 670/931
f 672/389 301/380 654/397
f 673/394 120/369 674/404
f 674/404 120/369 675/396
f 675/396 120/369 672/389
f 676/361 120/369 678/378
f 677/352 294/345 676/361
f 678/378 120/369 683/386
f 679/346 284/332 680/354
f 680/354 284/332 677/352
f 681/333 284/332 679/346
f 682/325 283/309 681/333
f 683/386 120/369 673/394
f 685/474 255/460 686/470
f 686/470 255/460 695/466
f 687/478 218/471 685/474
f 688/518 328/506 690/512
f 689/519 328/506 688/518
f 690/512 328/506 217/499
f 691/511 217/499 711/505
f 692/483 241/480 693/484
f 693/484 241/480 687/478
f 694/463 178/456 714/459
f 695/466 255/460 694/463
f 696/392 17/384 317/373
f 697/400 317/373 324/407
f 698/844 236/836 36/839
f 699/850 36/839 718/849
f 700/852 324/845 236/836
f 701/432 170/423 702/429
f 702/429 170/423 771/426
f 703/545 227/538 716/546
f 704/547 237/541 703/545
f 705/856 236/836 706/851
f 706/851 236/836 698/844
f 707/446 166/444 708/442
f 708/442 166/444 169/433
f 709/437 170/423 728/436
f 710/440 169/433 709/437
f 711/505 217/499 715/501
f 712/492 186/477 727/487
f 713/494 213/488 712/492
f 714/459 178/456 167/447
f 715/501 217/499 713/494
f 716/546 227/538 719/543
f 717/838 231/827 704/835
f 718/849 36/839 717/838
f 719/543 227/538 238/527
f 720/529 199/520 722/523
f 721/537 238/527 720/529
f 722/523 199/520 80/507
f 723/521 161/513 689/519
f 724/524 80/507 723/521
f 725/451 167/447 707/446
f 726/455 167/447 725/451
f 727/487 186/477 692/483
f 728/436 170/423 701/432
f 729/401 17/384 696/392
f 730/408 17/384 729/401
f 731/548 630/551 619/549
f 732/550 619/549 750/552
f 733/157 453/160 734/164
f 734/164 453/160 513/169
f 735/625 555/606 634/610
f 736/629 634/610 774/619
f 737/565 637/558 738/566
f 738/566 637/558 749/561
f 739/247 515/244 782/252
f 740/214 514/185 773/205
f 741/201 514/185 740/214
f 742/716 149/699 548/687
f 743/728 548/687 760/729
f 744/599 634/610 633/591
f 745/585 633/591 598/577
f 746/636 555/606 735/625
f 747/555 630/551 748/553
f 748/553 630/551 731/548
f 749/561 637/558 747/555
f 750/146 619/149 618/147
f 751/148 618/147 752/150
f 752/150 618/147 753/152
f 753/152 618/147 456/154
f 754/674 549/665 636/653
f 755/688 636/653 776/684
f 756/649 553/608 746/636
f 757/672 636/653 756/649
f 758/700 548/687 754/674
f 759/717 548/687 758/700
f 760/729 548/687 759/717
f 761/238 515/244 739/247
f 762/183 514/185 741/201
f 763/174 513/169 762/183
f 764/155 456/154 733/157
f 765/761 383/743 766/753
f 766/753 383/743 376/715
f 767/792 174/772 768/780
f 768/780 174/772 383/743
f 769/804 174/772 767/792
f 770/425 629/424 772/428
f 771/426 170/423 770/425
f 772/811 629/793 769/804
f 773/205 514/185 519/194
f 774/619 634/610 744/599
f 775/573 598/577 600/557
f 776/684 636/653 757/672
f 777/745 376/715 742/716
f 778/770 383/743 765/761
f 779/569 600/557 737/565
f 780/220 519/194 517/227
f 781/233 517/227 761/238
f 782/252 515/244 635/251
f 783/259 635/251 644/258
f 785/431 702/429 771/426
f 786/435 702/429 785/431
usemtl Tile_+032_+022_L20_0003220_untextured
