mtllib Tile_+032_+022_L19_000022.mtl
v 6.25000000e+03 5.37493787e+03 1.95440467e+01
v 6.25000000e+03 5.37365230e+03 1.87341402e+01
v 6.25085960e+03 5.37321579e+03 1.90299431e+01
v 6.25000000e+03 5.36454976e+03 1.93216436e+01
v 6.25000000e+03 5.36467219e+03 1.80331721e+01
v 6.25000000e+03 5.37066414e+03 1.87187693e+01
v 6.25000000e+03 5.35782972e+03 1.82591487e+01
v 6.25000000e+03 5.35773489e+03 1.95726021e+01
v 6.25016921e+03 5.35781020e+03 1.72108674e+01
v 6.25000000e+03 5.36727254e+03 1.84070334e+01
v 6.25000000e+03 5.36796854e+03 1.86501807e+01
v 6.25090918e+03 5.36781541e+03 1.83027193e+01
v 6.25000000e+03 5.35692529e+03 1.52592182e+01
v 6.25000000e+03 5.35702683e+03 1.65024012e+01
v 6.25000000e+03 5.35760066e+03 1.34547985e+01
v 6.25105868e+03 5.36839578e+03 1.87941759e+01
v 6.25000000e+03 5.35086765e+03 1.31531178e+01
v 6.25000000e+03 5.35226118e+03 1.32666462e+01
v 6.25000000e+03 5.35334777e+03 1.30383228e+01
v 6.25000000e+03 5.35577165e+03 1.30084294e+01
v 6.25076590e+03 5.35500892e+03 1.31144466e+01
v 6.25075301e+03 5.35147341e+03 1.31542798e+01
v 6.27378145e+03 5.34625346e+03 1.77134607e+01
v 6.27433254e+03 5.34647956e+03 1.93302643e+01
v 6.28122194e+03 5.35411870e+03 1.93395397e+01
v 6.27865696e+03 5.34784618e+03 1.94360029e+01
v 6.27924164e+03 5.34634089e+03 1.95781735e+01
v 6.27683281e+03 5.34718382e+03 1.79495713e+01
v 6.27372585e+03 5.34388112e+03 1.95628204e+01
v 6.27827585e+03 5.34761351e+03 1.66143695e+01
v 6.27787486e+03 5.34719878e+03 1.75670984e+01
v 6.25917968e+03 5.34416965e+03 1.96506921e+01
v 6.25699382e+03 5.34766749e+03 1.94481128e+01
v 6.25965780e+03 5.34664626e+03 1.94198592e+01
v 6.26108774e+03 5.34402601e+03 2.06158886e+01
v 6.26774415e+03 5.34894934e+03 1.42316065e+01
v 6.26686930e+03 5.34832186e+03 1.37905422e+01
v 6.27208719e+03 5.34464864e+03 1.98513989e+01
v 6.26793584e+03 5.34356951e+03 1.97883908e+01
v 6.26058205e+03 5.34448267e+03 1.94906194e+01
v 6.26371567e+03 5.34436249e+03 2.04261307e+01
v 6.26506318e+03 5.34594895e+03 1.93326492e+01
v 6.26399659e+03 5.34911121e+03 1.71986348e+01
v 6.25736276e+03 5.35684928e+03 1.94252482e+01
v 6.26217635e+03 5.35481249e+03 1.95229834e+01
v 6.25689366e+03 5.35438792e+03 1.95079487e+01
v 6.25254139e+03 5.35051276e+03 1.35192978e+01
v 6.25331296e+03 5.34867282e+03 1.35429308e+01
v 6.27053957e+03 5.37469081e+03 1.96442373e+01
v 6.27324732e+03 5.37399055e+03 2.10544719e+01
v 6.27123351e+03 5.37480615e+03 2.05975174e+01
v 6.26165473e+03 5.37269805e+03 2.09200828e+01
v 6.26216127e+03 5.37230011e+03 1.90475963e+01
v 6.26022344e+03 5.37256740e+03 2.13086849e+01
v 6.27801805e+03 5.36831405e+03 2.20797177e+01
v 6.27911874e+03 5.36881480e+03 2.19720917e+01
v 6.27019435e+03 5.37087381e+03 2.15477837e+01
v 6.26932032e+03 5.37012350e+03 2.08039307e+01
v 6.25788695e+03 5.37169054e+03 2.14114263e+01
v 6.26280306e+03 5.37104534e+03 1.80039313e+01
v 6.27862342e+03 5.36347318e+03 1.44651771e+01
v 6.27779488e+03 5.36538728e+03 1.31537465e+01
v 6.27796813e+03 5.37186369e+03 2.15218725e+01
v 6.27777670e+03 5.37348564e+03 2.14008023e+01
v 6.27833925e+03 5.37272593e+03 2.05636770e+01
v 6.28007612e+03 5.37054485e+03 2.06119423e+01
v 6.27970399e+03 5.36937096e+03 2.09389241e+01
v 6.26758118e+03 5.36515008e+03 1.95064778e+01
v 6.26563803e+03 5.36453833e+03 2.20976226e+01
v 6.27291276e+03 5.37072239e+03 2.08625581e+01
v 6.27274549e+03 5.36970100e+03 2.14977585e+01
v 6.26167081e+03 5.36705085e+03 2.07900822e+01
v 6.26250772e+03 5.36572138e+03 2.17654393e+01
v 6.27027852e+03 5.36828194e+03 2.16897858e+01
v 6.26940155e+03 5.36894267e+03 2.03862399e+01
v 6.28072045e+03 5.36841514e+03 2.07011607e+01
v 6.27854347e+03 5.36982842e+03 2.19100554e+01
v 6.27682035e+03 5.37037300e+03 2.15842393e+01
v 6.27365112e+03 5.37194469e+03 2.15262332e+01
v 6.27581909e+03 5.37263488e+03 2.14807293e+01
v 6.27440978e+03 5.36966538e+03 2.16217101e+01
v 6.27073207e+03 5.36615765e+03 2.21260823e+01
v 6.27103021e+03 5.37365034e+03 2.04016556e+01
v 6.27119563e+03 5.37153877e+03 2.14468950e+01
v 6.26862705e+03 5.37445105e+03 1.96334914e+01
v 6.26997141e+03 5.37324360e+03 2.06299461e+01
v 6.27002771e+03 5.37391057e+03 1.93744353e+01
v 6.28087881e+03 5.36255997e+03 1.95920145e+01
v 6.26478695e+03 5.37328520e+03 1.97508786e+01
v 6.26323492e+03 5.37264005e+03 1.96475143e+01
v 6.27583607e+03 5.36772666e+03 2.20762037e+01
v 6.27084927e+03 5.37390595e+03 2.15363069e+01
v 6.27225319e+03 5.37305994e+03 2.13709147e+01
v 6.27906352e+03 5.36957114e+03 2.07971432e+01
v 6.27883910e+03 5.37056903e+03 2.07848990e+01
v 6.26696783e+03 5.36985489e+03 2.14543821e+01
v 6.26566831e+03 5.36892834e+03 2.08614481e+01
v 6.27149620e+03 5.37262572e+03 2.14810150e+01
v 6.27133920e+03 5.37319629e+03 2.06219683e+01
v 6.26879026e+03 5.37030451e+03 2.13536991e+01
v 6.25640853e+03 5.37174504e+03 2.13438526e+01
v 6.25554365e+03 5.37387360e+03 2.11835175e+01
v 6.25578839e+03 5.37111347e+03 2.05000058e+01
v 6.25828955e+03 5.37104070e+03 2.01539525e+01
v 6.25282505e+03 5.37113497e+03 2.06356176e+01
v 6.25382316e+03 5.37058273e+03 2.07028474e+01
v 6.25226573e+03 5.37017604e+03 1.97585638e+01
v 6.25123610e+03 5.36947530e+03 1.91781523e+01
v 6.25165997e+03 5.36519452e+03 1.83044761e+01
v 6.25410826e+03 5.36972197e+03 1.90701538e+01
v 6.25464036e+03 5.37024917e+03 2.06484351e+01
v 6.25324196e+03 5.36981362e+03 1.97926816e+01
v 6.25299607e+03 5.37012047e+03 2.06150580e+01
v 6.25880713e+03 5.36744765e+03 2.13417139e+01
v 6.26095841e+03 5.36808725e+03 2.13550460e+01
v 6.25591884e+03 5.36638547e+03 1.77022542e+01
v 6.25367607e+03 5.36588263e+03 1.79073358e+01
v 6.25934784e+03 5.36573350e+03 2.16082608e+01
v 6.27944883e+03 5.37374346e+03 2.10318209e+01
v 6.25784348e+03 5.36714824e+03 1.99346145e+01
v 6.25623849e+03 5.36164813e+03 2.20531230e+01
v 6.25369456e+03 5.36095857e+03 1.96038463e+01
v 6.25373178e+03 5.36098862e+03 2.21245458e+01
v 6.25800044e+03 5.37040067e+03 1.91312143e+01
v 6.26066718e+03 5.37502055e+03 2.12980814e+01
v 6.25540783e+03 5.36134170e+03 1.96264806e+01
v 6.28112305e+03 5.37425021e+03 1.62664239e+01
v 6.27974528e+03 5.37371167e+03 1.63649282e+01
v 6.28111005e+03 5.35889896e+03 2.00338946e+01
v 6.25910371e+03 5.36252243e+03 1.96062848e+01
v 6.26201036e+03 5.36347535e+03 2.20845820e+01
v 6.27472732e+03 5.37361634e+03 1.77012084e+01
v 6.27362376e+03 5.37452831e+03 1.81393845e+01
v 6.27207317e+03 5.37487436e+03 1.86249036e+01
v 6.27212892e+03 5.37524716e+03 1.97218052e+01
v 6.27021747e+03 5.36603201e+03 1.95971482e+01
v 6.26465520e+03 5.37056289e+03 1.84302749e+01
v 6.26605059e+03 5.37386428e+03 1.98781170e+01
v 6.26680081e+03 5.37341918e+03 1.86169845e+01
v 6.27826247e+03 5.36344569e+03 1.32067593e+01
v 6.26608650e+03 5.35822184e+03 1.29916663e+01
v 6.26561740e+03 5.35844136e+03 1.28309447e+01
v 6.26881924e+03 5.36346541e+03 1.36069799e+01
v 6.26968584e+03 5.36200099e+03 1.44966324e+01
v 6.27248849e+03 5.36431346e+03 1.28845409e+01
v 6.27096905e+03 5.36420655e+03 1.31525857e+01
v 6.27042460e+03 5.36374913e+03 1.31127880e+01
v 6.27115501e+03 5.36244196e+03 1.35086673e+01
v 6.27218372e+03 5.36487604e+03 1.32841128e+01
v 6.26432272e+03 5.35831793e+03 1.28346433e+01
v 6.26474347e+03 5.35647164e+03 1.32554326e+01
v 6.27109293e+03 5.35809125e+03 1.38796593e+01
v 6.27218643e+03 5.35479541e+03 1.38129362e+01
v 6.27261553e+03 5.35798422e+03 1.33765925e+01
v 6.27340517e+03 5.35667928e+03 1.30665575e+01
v 6.27581333e+03 5.35699029e+03 1.31762862e+01
v 6.27792019e+03 5.35670634e+03 1.35599777e+01
v 6.26757707e+03 5.35702507e+03 1.51051469e+01
v 6.26675571e+03 5.35579791e+03 1.37388183e+01
v 6.26821521e+03 5.35628410e+03 1.39016323e+01
v 6.28066272e+03 5.35687253e+03 1.72463267e+01
v 6.28032863e+03 5.35746106e+03 1.45484299e+01
v 6.26102372e+03 5.35929706e+03 1.77078763e+01
v 6.26101261e+03 5.35995971e+03 1.58909825e+01
v 6.26484668e+03 5.36186850e+03 1.37323779e+01
v 6.26463213e+03 5.36239233e+03 1.41318515e+01
v 6.26963296e+03 5.35804135e+03 1.33981616e+01
v 6.25149116e+03 5.35382040e+03 1.94151986e+01
v 6.25115288e+03 5.35501342e+03 1.65228356e+01
v 6.27972286e+03 5.35913155e+03 1.92690548e+01
v 6.26365237e+03 5.36897120e+03 2.12313419e+01
v 6.27118082e+03 5.37055394e+03 2.07238842e+01
v 6.27759299e+03 5.36642343e+03 1.95276854e+01
v 6.27853754e+03 5.36328709e+03 1.94590738e+01
v 6.27041994e+03 5.36958698e+03 2.03645796e+01
v 6.28075101e+03 5.36806043e+03 1.96584614e+01
v 6.27231502e+03 5.37035675e+03 2.05951569e+01
v 6.27171900e+03 5.36972129e+03 2.14215355e+01
v 6.28039386e+03 5.35713515e+03 1.93936463e+01
v 6.26490349e+03 5.34591826e+03 1.57606256e+01
v 6.27780939e+03 5.34744930e+03 1.47060281e+01
v 6.27563496e+03 5.34706551e+03 1.44920034e+01
v 6.26476425e+03 5.34863935e+03 1.36766051e+01
v 6.26522972e+03 5.34993106e+03 1.35199685e+01
v 6.27606554e+03 5.34805406e+03 1.34547488e+01
v 6.27213114e+03 5.34728362e+03 1.39929124e+01
v 6.26871865e+03 5.35337890e+03 1.28636706e+01
v 6.26663622e+03 5.35376002e+03 1.28940825e+01
v 6.27101289e+03 5.35205321e+03 1.32108498e+01
v 6.26850480e+03 5.34934977e+03 1.33305840e+01
v 6.25057182e+03 5.35621535e+03 1.33209916e+01
v 6.25048734e+03 5.35726005e+03 1.30101663e+01
v 6.25084250e+03 5.35615464e+03 1.44849572e+01
v 6.27324962e+03 5.35559317e+03 1.32929926e+01
v 6.28077609e+03 5.34875874e+03 1.62337884e+01
v 6.27949397e+03 5.34837678e+03 1.37847929e+01
v 6.26768399e+03 5.34902719e+03 1.52735752e+01
v 6.26762330e+03 5.34846955e+03 1.44128200e+01
v 6.26848160e+03 5.34745934e+03 1.39571857e+01
v 6.25152475e+03 5.35381959e+03 1.29749762e+01
v 6.25349461e+03 5.34672263e+03 1.31418926e+01
v 6.25223911e+03 5.34991810e+03 1.29581803e+01
v 6.26221123e+03 5.35496903e+03 1.74621595e+01
v 6.27849799e+03 5.35562326e+03 1.31141478e+01
v 6.27987711e+03 5.35793346e+03 1.29179755e+01
v 6.28134450e+03 5.34873708e+03 1.93590084e+01
v 6.26620640e+03 5.34456585e+03 1.49361397e+01
v 6.26613200e+03 5.34440376e+03 1.77853551e+01
v 6.26319546e+03 5.35190932e+03 1.48382064e+01
v 6.26922442e+03 5.35726809e+03 1.32518687e+01
v 6.27030255e+03 5.35459293e+03 1.27488285e+01
v 6.25299040e+03 5.34884635e+03 1.58683122e+01
v 6.25280823e+03 5.34929962e+03 1.94696141e+01
v 6.27711766e+03 5.34926165e+03 1.35032243e+01
v 6.27887886e+03 5.35132511e+03 1.31932847e+01
v 6.27602542e+03 5.37201833e+03 2.12647227e+01
v 6.27532423e+03 5.37101541e+03 2.05040088e+01
v 6.26536940e+03 5.36954699e+03 2.11704140e+01
v 6.26706878e+03 5.36990346e+03 1.84855911e+01
v 6.26866490e+03 5.37151208e+03 1.95164502e+01
v 6.26938851e+03 5.37094493e+03 2.11336238e+01
v 6.27100417e+03 5.36981037e+03 2.06595912e+01
v 6.27392284e+03 5.37126176e+03 2.07901278e+01
v 6.27589632e+03 5.37013952e+03 2.16787948e+01
v 6.26055481e+03 5.36786400e+03 1.88005132e+01
v 6.27705159e+03 5.36577092e+03 1.59444695e+01
v 6.27802327e+03 5.36449135e+03 1.64745217e+01
v 6.27948199e+03 5.36759380e+03 1.95567248e+01
v 6.28103206e+03 5.37093163e+03 1.98813167e+01
v 6.28091548e+03 5.36910758e+03 1.95673693e+01
v 6.27808727e+03 5.37341328e+03 1.75701732e+01
v 6.27987664e+03 5.37381548e+03 1.99508425e+01
v 6.27605510e+03 5.37260223e+03 1.80284039e+01
v 6.27458249e+03 5.37310679e+03 2.02433427e+01
v 6.27375819e+03 5.37442998e+03 2.01591955e+01
v 6.25239226e+03 5.36553894e+03 2.13701349e+01
v 6.25609045e+03 5.36682175e+03 2.12984542e+01
v 6.25228380e+03 5.36517157e+03 1.91337169e+01
v 6.26034201e+03 5.36109570e+03 1.95814640e+01
v 6.26574471e+03 5.36266293e+03 1.95886179e+01
v 6.25000000e+03 5.36210902e+03 1.95493047e+01
v 6.25000000e+03 5.36363007e+03 1.96609162e+01
v 6.26709955e+03 5.35758524e+03 1.49951846e+01
v 6.26486813e+03 5.35941286e+03 1.39573486e+01
v 6.26321511e+03 5.36176800e+03 1.30817080e+01
v 6.26739587e+03 5.36327893e+03 1.70119600e+01
v 6.26865784e+03 5.36364518e+03 1.59043110e+01
v 6.26742042e+03 5.36341452e+03 1.39553168e+01
v 6.27193887e+03 5.36459990e+03 1.61466004e+01
v 6.26749789e+03 5.37170913e+03 1.83493914e+01
v 6.26622540e+03 5.37048133e+03 1.79431892e+01
v 6.26334530e+03 5.36889124e+03 1.86397810e+01
v 6.26030484e+03 5.36858041e+03 1.80903236e+01
v 6.26367793e+03 5.35917147e+03 1.34427019e+01
v 6.27409641e+03 5.36544872e+03 1.43715755e+01
v 6.27770586e+03 5.36625484e+03 1.71289322e+01
v 6.27336062e+03 5.36503977e+03 1.31864767e+01
v 6.27735465e+03 5.35782664e+03 1.30929214e+01
v 6.27919861e+03 5.35891522e+03 1.29599225e+01
v 6.27661467e+03 5.36203835e+03 1.28518526e+01
v 6.27644976e+03 5.36114631e+03 1.36044362e+01
v 6.27213074e+03 5.36638113e+03 1.94964700e+01
v 6.27376511e+03 5.37416542e+03 1.93331573e+01
v 6.25970880e+03 5.36961556e+03 1.82549242e+01
v 6.25709527e+03 5.36996129e+03 1.81551541e+01
v 6.25000000e+03 5.36521906e+03 1.78548161e+01
v 6.25118179e+03 5.36664370e+03 1.81954665e+01
v 6.27040500e+03 5.36427511e+03 1.75558400e+01
v 6.26779005e+03 5.35841976e+03 1.36058926e+01
v 6.26063660e+03 5.36104026e+03 1.90027354e+01
v 6.26165716e+03 5.35672843e+03 1.93798825e+01
v 6.25336804e+03 5.36756113e+03 1.77511767e+01
v 6.26410338e+03 5.36240204e+03 1.73380628e+01
v 6.26275827e+03 5.36171935e+03 1.93573342e+01
v 6.27688696e+03 5.36349586e+03 1.29753775e+01
v 6.26148140e+03 5.35739306e+03 1.39821394e+01
v 6.26339126e+03 5.35641000e+03 1.38092472e+01
v 6.25000000e+03 5.35784154e+03 1.70654748e+01
v 6.26109676e+03 5.36010236e+03 1.36519766e+01
v 6.26167082e+03 5.36132161e+03 1.58890355e+01
v 6.26568399e+03 5.35687428e+03 1.35723177e+01
v 6.27945412e+03 5.37229987e+03 2.06031456e+01
v 6.27970858e+03 5.37312153e+03 1.98316875e+01
v 6.27896175e+03 5.37339332e+03 2.01900124e+01
v 6.28034150e+03 5.37381503e+03 2.04602222e+01
v 6.27413998e+03 5.37269702e+03 2.11682113e+01
v 6.27085139e+03 5.37437450e+03 2.15610074e+01
v 6.26424934e+03 5.37346278e+03 2.09263077e+01
v 6.26667998e+03 5.37459346e+03 2.04132868e+01
v 6.27183922e+03 5.37480023e+03 2.12880978e+01
v 6.27024909e+03 5.37183404e+03 2.05413559e+01
v 6.26939803e+03 5.37215733e+03 2.07034658e+01
v 6.27312912e+03 5.37302892e+03 2.16944223e+01
v 6.27575018e+03 5.37289205e+03 2.09800940e+01
v 6.28123341e+03 5.37400699e+03 2.03809775e+01
v 6.28021278e+03 5.37120776e+03 1.98358235e+01
v 6.28103699e+03 5.37301526e+03 1.95485791e+01
v 6.28004697e+03 5.37383536e+03 2.03395308e+01
v 6.27884935e+03 5.36855965e+03 1.98512748e+01
v 6.27839002e+03 5.36702179e+03 1.97070104e+01
v 6.27917663e+03 5.36468478e+03 1.95531944e+01
v 6.26780453e+03 5.36852682e+03 2.04712403e+01
v 6.26688439e+03 5.36785854e+03 2.15460934e+01
v 6.27939398e+03 5.36786359e+03 2.04366689e+01
v 6.26559948e+03 5.36454581e+03 1.95540641e+01
v 6.26415666e+03 5.36804568e+03 2.08659725e+01
v 6.26304934e+03 5.36715703e+03 2.13049992e+01
v 6.26480802e+03 5.36809376e+03 2.12188450e+01
v 6.26300745e+03 5.36858876e+03 2.15035029e+01
v 6.26667678e+03 5.36917697e+03 2.07359328e+01
v 6.28032709e+03 5.36049738e+03 1.97823195e+01
v 6.26485118e+03 5.36909437e+03 1.84957020e+01
v 6.26759017e+03 5.36330346e+03 1.96168977e+01
v 6.27761414e+03 5.36832159e+03 2.04229098e+01
v 6.27921170e+03 5.36873130e+03 2.08754600e+01
v 6.27986062e+03 5.36252316e+03 1.99417596e+01
v 6.27764662e+03 5.36799757e+03 1.96247968e+01
v 6.27536318e+03 5.37249337e+03 1.95893743e+01
v 6.27137627e+03 5.37308987e+03 2.18979400e+01
v 6.27389685e+03 5.36712688e+03 1.95059369e+01
v 6.27564037e+03 5.36771387e+03 1.96367127e+01
v 6.25994310e+03 5.36712603e+03 2.09631811e+01
v 6.25832008e+03 5.37375231e+03 2.12941800e+01
v 6.26216482e+03 5.36780189e+03 2.15622102e+01
v 6.26059374e+03 5.36642260e+03 2.14438641e+01
v 6.26308017e+03 5.36378448e+03 1.95412137e+01
v 6.25357551e+03 5.37147943e+03 2.11952567e+01
v 6.25000000e+03 5.36464979e+03 2.08420493e+01
v 6.25558584e+03 5.37122176e+03 2.13913708e+01
v 6.25434490e+03 5.36418749e+03 2.15225754e+01
v 6.25313524e+03 5.36284371e+03 2.16956811e+01
v 6.25124257e+03 5.37356433e+03 1.99373057e+01
v 6.25342805e+03 5.36215511e+03 1.97746037e+01
v 6.25252730e+03 5.36503908e+03 2.12919155e+01
v 6.25260321e+03 5.36459015e+03 1.96489760e+01
v 6.25695303e+03 5.36179239e+03 2.01007255e+01
v 6.25000000e+03 5.36452377e+03 2.01889762e+01
v 6.25993858e+03 5.37119727e+03 1.92089530e+01
v 6.25000000e+03 5.35952218e+03 1.94289671e+01
v 6.28079579e+03 5.35628081e+03 1.34463264e+01
v 6.27756417e+03 5.36604341e+03 1.34203800e+01
v 6.27673993e+03 5.37468033e+03 1.67426581e+01
v 6.27804052e+03 5.37407569e+03 1.70024517e+01
v 6.27500696e+03 5.36544888e+03 1.28984471e+01
v 6.27610801e+03 5.36590949e+03 1.29150984e+01
v 6.27678565e+03 5.36632045e+03 1.40971507e+01
v 6.27611911e+03 5.36457433e+03 1.30614924e+01
v 6.27546035e+03 5.36564694e+03 1.63391468e+01
v 6.27805856e+03 5.36456799e+03 1.76892543e+01
v 6.27510157e+03 5.36574645e+03 1.74063143e+01
v 6.27270805e+03 5.36254847e+03 1.37678248e+01
v 6.27421089e+03 5.36129791e+03 1.27713806e+01
v 6.27282132e+03 5.35886520e+03 1.31020868e+01
v 6.27297494e+03 5.36060463e+03 1.30690758e+01
v 6.27207210e+03 5.36074691e+03 1.28957055e+01
v 6.27534994e+03 5.35914784e+03 1.31993787e+01
v 6.27729385e+03 5.35906260e+03 1.36580010e+01
v 6.27381318e+03 5.35794610e+03 1.36756022e+01
v 6.27637916e+03 5.36631294e+03 1.74060635e+01
v 6.27287372e+03 5.36500950e+03 1.74164871e+01
v 6.27312800e+03 5.36017363e+03 1.37059770e+01
v 6.27603164e+03 5.36360381e+03 1.37503475e+01
v 6.27937583e+03 5.36066755e+03 1.33811018e+01
v 6.27864649e+03 5.36103779e+03 1.28968130e+01
v 6.27874707e+03 5.36251621e+03 1.29551951e+01
v 6.27953765e+03 5.36055403e+03 1.67851960e+01
v 6.27857428e+03 5.36343394e+03 1.72086434e+01
v 6.27753043e+03 5.36622192e+03 1.88068760e+01
v 6.27747388e+03 5.35998567e+03 1.30909046e+01
v 6.27437157e+03 5.36538148e+03 1.95829545e+01
v 6.27933808e+03 5.36276204e+03 1.95371210e+01
v 6.26931717e+03 5.37393629e+03 1.87737161e+01
v 6.25205381e+03 5.37110606e+03 1.93618037e+01
v 6.25149936e+03 5.37180156e+03 1.93493820e+01
v 6.25235427e+03 5.36904146e+03 1.88756947e+01
v 6.25442760e+03 5.36955107e+03 1.79600638e+01
v 6.25591104e+03 5.37010985e+03 1.93417892e+01
v 6.27128876e+03 5.36443670e+03 1.95644634e+01
v 6.25797272e+03 5.36711361e+03 1.81639989e+01
v 6.25366793e+03 5.36968428e+03 1.78388177e+01
v 6.26082872e+03 5.37172415e+03 1.90496421e+01
v 6.26437305e+03 5.37232739e+03 1.85091569e+01
v 6.25154614e+03 5.36867530e+03 1.81364507e+01
v 6.25786058e+03 5.36078964e+03 1.95032928e+01
v 6.26047718e+03 5.36071329e+03 1.83249939e+01
v 6.26103087e+03 5.36147414e+03 1.72261414e+01
v 6.26749971e+03 5.36039803e+03 1.43819006e+01
v 6.26759688e+03 5.35905887e+03 1.31822556e+01
v 6.26164587e+03 5.35845306e+03 1.32994602e+01
v 6.26885536e+03 5.35913241e+03 1.27985517e+01
v 6.26813987e+03 5.35756811e+03 1.44557090e+01
v 6.27130715e+03 5.35984897e+03 1.28510042e+01
v 6.26129741e+03 5.36104723e+03 1.33994740e+01
v 6.26248603e+03 5.36170938e+03 1.62843580e+01
v 6.26149522e+03 5.35714030e+03 1.70950971e+01
v 6.26592092e+03 5.36109529e+03 1.39662079e+01
v 6.27066888e+03 5.36059030e+03 1.37033715e+01
v 6.26611663e+03 5.36252322e+03 1.31638935e+01
v 6.26994118e+03 5.36420158e+03 1.44663011e+01
v 6.26262091e+03 5.36197143e+03 1.45624158e+01
v 6.26818412e+03 5.37305124e+03 1.82001849e+01
v 6.26707273e+03 5.36264781e+03 1.34666989e+01
v 6.26821736e+03 5.36302114e+03 1.33316568e+01
v 6.26361664e+03 5.36984100e+03 1.82975015e+01
v 6.26194385e+03 5.36967893e+03 1.80351282e+01
v 6.26576741e+03 5.37139968e+03 1.81185328e+01
v 6.25199949e+03 5.36831944e+03 1.77335879e+01
v 6.25000000e+03 5.35752574e+03 1.29316650e+01
v 6.25698444e+03 5.36809153e+03 1.79038988e+01
v 6.25716058e+03 5.36943076e+03 1.72961121e+01
v 6.25618821e+03 5.36884566e+03 1.76526450e+01
v 6.25453812e+03 5.34378642e+03 1.34585206e+01
v 6.25000000e+03 5.34628347e+03 1.31440812e+01
v 6.26733215e+03 5.34578719e+03 1.39247616e+01
v 6.26969057e+03 5.34609768e+03 1.43924192e+01
v 6.27537408e+03 5.35474315e+03 1.30358648e+01
v 6.26709419e+03 5.34429267e+03 1.79236786e+01
v 6.27058558e+03 5.34534920e+03 1.93453492e+01
v 6.27101159e+03 5.34528822e+03 1.73845734e+01
v 6.26780860e+03 5.34465117e+03 1.49274158e+01
v 6.27144217e+03 5.34582529e+03 1.52695087e+01
v 6.27354060e+03 5.34636794e+03 1.45414305e+01
v 6.27858409e+03 5.35082793e+03 1.31797607e+01
v 6.27850992e+03 5.35076347e+03 1.32059521e+01
v 6.27570640e+03 5.35010384e+03 1.31373949e+01
v 6.27854017e+03 5.35077861e+03 1.31849753e+01
v 6.27838111e+03 5.35218165e+03 1.36708562e+01
v 6.26438378e+03 5.34670506e+03 1.42602577e+01
v 6.26548290e+03 5.34596000e+03 1.44174837e+01
v 6.25402376e+03 5.34585846e+03 1.68707834e+01
v 6.27076825e+03 5.34891847e+03 1.32465250e+01
v 6.28111147e+03 5.35185880e+03 1.29335427e+01
v 6.26837909e+03 5.34830115e+03 1.43061501e+01
v 6.26687805e+03 5.34981665e+03 1.30641643e+01
v 6.27704854e+03 5.35292668e+03 1.30209638e+01
v 6.27467899e+03 5.35117274e+03 1.34913061e+01
v 6.28002075e+03 5.35375143e+03 1.30632692e+01
v 6.28080307e+03 5.35499889e+03 1.29419573e+01
v 6.28101138e+03 5.34977738e+03 1.32960457e+01
v 6.28008947e+03 5.35028329e+03 1.36018469e+01
v 6.27387337e+03 5.34892030e+03 1.34726211e+01
v 6.27278517e+03 5.35248518e+03 1.36806580e+01
v 6.26826911e+03 5.34887389e+03 1.42412336e+01
v 6.25000000e+03 5.34917257e+03 1.30918936e+01
v 6.26332347e+03 5.35325368e+03 1.39863161e+01
v 6.26518503e+03 5.35327970e+03 1.34163274e+01
v 6.26502892e+03 5.35444302e+03 1.30556660e+01
v 6.26210007e+03 5.35544489e+03 1.39036865e+01
v 6.26254944e+03 5.35460790e+03 1.42852501e+01
v 6.27366372e+03 5.35359996e+03 1.31805143e+01
v 6.27482984e+03 5.35589199e+03 1.37111626e+01
v 6.27804880e+03 5.35438203e+03 1.36500591e+01
v 6.27440581e+03 5.35245624e+03 1.31306853e+01
v 6.27524841e+03 5.35353451e+03 1.37073520e+01
v 6.26824392e+03 5.34913655e+03 1.54951572e+01
v 6.26412735e+03 5.34930986e+03 1.43188061e+01
v 6.26794448e+03 5.34855858e+03 1.56452215e+01
v 6.26844241e+03 5.34848259e+03 1.53795934e+01
v 6.27815379e+03 5.34860609e+03 1.32188492e+01
v 6.26585931e+03 5.34444173e+03 1.92323058e+01
v 6.26373472e+03 5.35028133e+03 1.91903066e+01
v 6.25379040e+03 5.34585440e+03 1.93273027e+01
v 6.26187178e+03 5.34477810e+03 2.01173140e+01
v 6.26756773e+03 5.34426605e+03 1.94825036e+01
v 6.26315545e+03 5.34999321e+03 1.95798782e+01
v 6.26160711e+03 5.34605918e+03 1.97830266e+01
v 6.26412376e+03 5.34602252e+03 1.96395437e+01
v 6.27626774e+03 5.34606304e+03 1.99378799e+01
v 6.28150000e+03 5.34485909e+03 1.95736285e+01
v 6.28150000e+03 5.34580077e+03 1.95557886e+01
v 6.28150000e+03 5.34684358e+03 1.97445826e+01
v 6.28150000e+03 5.35398328e+03 1.93987119e+01
v 6.28150000e+03 5.35514209e+03 1.94781218e+01
v 6.28150000e+03 5.35326638e+03 1.93263646e+01
v 6.28150000e+03 5.34862399e+03 1.93841579e+01
v 6.28150000e+03 5.34868169e+03 1.94054892e+01
v 6.28150000e+03 5.34687913e+03 1.97424289e+01
v 6.28150000e+03 5.34740054e+03 1.96365143e+01
v 6.28150000e+03 5.35677134e+03 1.96035395e+01
v 6.28150000e+03 5.34886466e+03 1.93443430e+01
v 6.28150000e+03 5.34912656e+03 1.76383924e+01
v 6.28150000e+03 5.34930957e+03 1.34936974e+01
v 6.28150000e+03 5.34920531e+03 1.47762496e+01
v 6.28150000e+03 5.34971559e+03 1.33368106e+01
v 6.28150000e+03 5.35330262e+03 1.83300344e+01
v 6.28150000e+03 5.35346624e+03 1.75058340e+01
v 6.28150000e+03 5.35349557e+03 1.61785305e+01
v 6.28150000e+03 5.35383697e+03 1.34231409e+01
v 6.28150000e+03 5.35390464e+03 1.32563635e+01
v 6.28150000e+03 5.35261828e+03 1.30924929e+01
v 6.28150000e+03 5.35140671e+03 1.31590164e+01
v 6.28150000e+03 5.35358118e+03 1.31271148e+01
v 6.28150000e+03 5.35105282e+03 1.30999926e+01
v 6.28150000e+03 5.34934033e+03 1.68702563e+01
v 6.28150000e+03 5.35367919e+03 1.69343305e+01
v 6.28150000e+03 5.34951163e+03 1.63036649e+01
v 6.28150000e+03 5.35936196e+03 1.98199407e+01
v 6.28150000e+03 5.35779161e+03 1.98609086e+01
v 6.28150000e+03 5.37253522e+03 1.96665846e+01
v 6.28150000e+03 5.37195948e+03 1.96269358e+01
v 6.28150000e+03 5.37397099e+03 2.11525483e+01
v 6.28150000e+03 5.37425743e+03 2.12544531e+01
v 6.28150000e+03 5.37411709e+03 1.94093567e+01
v 6.28150000e+03 5.37410628e+03 1.89155332e+01
v 6.28150000e+03 5.36684083e+03 1.94924622e+01
v 6.28150000e+03 5.36779311e+03 1.94966376e+01
v 6.28150000e+03 5.36443679e+03 1.95465306e+01
v 6.28150000e+03 5.36015431e+03 1.96064487e+01
v 6.28150000e+03 5.36118385e+03 1.95566478e+01
v 6.28150000e+03 5.37420302e+03 1.80267547e+01
v 6.28150000e+03 5.37408382e+03 1.69046168e+01
v 6.28150000e+03 5.37429755e+03 1.62101260e+01
v 6.28150000e+03 5.37419667e+03 1.65485347e+01
v 6.28150000e+03 5.37116164e+03 1.97539771e+01
v 6.28150000e+03 5.37005586e+03 1.97600517e+01
v 6.28150000e+03 5.37410036e+03 1.95373171e+01
v 6.28150000e+03 5.37128570e+03 1.97049196e+01
v 6.28150000e+03 5.37303251e+03 1.97316664e+01
v 6.28150000e+03 5.37372146e+03 2.02598661e+01
v 6.28150000e+03 5.37399720e+03 2.08504410e+01
v 6.28150000e+03 5.37411520e+03 1.94805413e+01
v 6.28150000e+03 5.37411797e+03 1.95207498e+01
v 6.28150000e+03 5.36799968e+03 1.95810840e+01
v 6.28150000e+03 5.36870247e+03 1.95319778e+01
v 6.26776125e+03 5.34350000e+03 1.98016479e+01
v 6.26789530e+03 5.34350000e+03 1.97816634e+01
v 6.26125972e+03 5.34350000e+03 2.06142526e+01
v 6.26313962e+03 5.34350000e+03 2.04832443e+01
v 6.27490879e+03 5.34350000e+03 1.95649935e+01
v 6.27395108e+03 5.34350000e+03 1.95758407e+01
v 6.27872078e+03 5.34350000e+03 1.95735095e+01
v 6.25823670e+03 5.34350000e+03 1.95899053e+01
v 6.25909742e+03 5.34350000e+03 2.01976760e+01
v 6.25976574e+03 5.34350000e+03 2.04919321e+01
v 6.26071750e+03 5.34350000e+03 2.05842330e+01
v 6.26378410e+03 5.34350000e+03 2.04603208e+01
v 6.26427313e+03 5.34350000e+03 2.02446710e+01
v 6.26501066e+03 5.34350000e+03 1.98010586e+01
v 6.26472412e+03 5.34350000e+03 1.98987959e+01
v 6.25708262e+03 5.34350000e+03 1.95055011e+01
v 6.25534403e+03 5.34350000e+03 1.94686717e+01
v 6.26651080e+03 5.34350000e+03 1.96994796e+01
v 6.26545783e+03 5.34350000e+03 1.95912913e+01
v 6.26795549e+03 5.34350000e+03 1.97855546e+01
v 6.27342439e+03 5.34350000e+03 1.95638563e+01
v 6.25461408e+03 5.34350000e+03 1.94305677e+01
v 6.25461881e+03 5.34350000e+03 1.75255919e+01
v 6.25448526e+03 5.34350000e+03 1.84373302e+01
v 6.25471661e+03 5.34350000e+03 1.65010686e+01
v 6.25463598e+03 5.34350000e+03 1.38624756e+01
v 6.25421984e+03 5.34350000e+03 1.30682781e+01
v 6.25454325e+03 5.34350000e+03 1.33297765e+01
v 6.25411630e+03 5.34350000e+03 1.29644734e+01
v 6.25401703e+03 5.34350000e+03 1.29652046e+01
v 6.25000000e+03 5.34350000e+03 1.31457071e+01
v 6.25463607e+03 5.34350000e+03 1.35835928e+01
v 6.27988562e+03 5.34350000e+03 1.95725370e+01
v 6.28150000e+03 5.34350000e+03 1.95711892e+01
v 6.27461306e+03 5.37525000e+03 1.72454258e+01
v 6.27407154e+03 5.37525000e+03 1.76061426e+01
v 6.26064814e+03 5.37525000e+03 2.12594083e+01
v 6.26052104e+03 5.37525000e+03 2.12958464e+01
v 6.27167415e+03 5.37525000e+03 1.85799907e+01
v 6.27093908e+03 5.37525000e+03 1.90041277e+01
v 6.27210522e+03 5.37525000e+03 1.83879984e+01
v 6.25065060e+03 5.37525000e+03 1.96953829e+01
v 6.25204690e+03 5.37525000e+03 2.00556236e+01
v 6.26813691e+03 5.37525000e+03 1.99313360e+01
v 6.26759264e+03 5.37525000e+03 2.01440165e+01
v 6.26994197e+03 5.37525000e+03 1.97818623e+01
v 6.27038796e+03 5.37525000e+03 1.95478446e+01
v 6.26893404e+03 5.37525000e+03 1.98042930e+01
v 6.27884208e+03 5.37525000e+03 1.64405403e+01
v 6.27838420e+03 5.37525000e+03 1.66308234e+01
v 6.27767879e+03 5.37525000e+03 1.65981457e+01
v 6.27677537e+03 5.37525000e+03 1.67125078e+01
v 6.27582203e+03 5.37525000e+03 1.68621162e+01
v 6.28124994e+03 5.37525000e+03 1.57485777e+01
v 6.28098307e+03 5.37525000e+03 1.57118025e+01
v 6.25267005e+03 5.37525000e+03 2.03185866e+01
v 6.25365407e+03 5.37525000e+03 2.05294371e+01
v 6.25538911e+03 5.37525000e+03 2.11866096e+01
v 6.26079853e+03 5.37525000e+03 2.12587744e+01
v 6.26611391e+03 5.37525000e+03 2.04450178e+01
v 6.26667091e+03 5.37525000e+03 2.03339844e+01
v 6.26381659e+03 5.37525000e+03 2.08279591e+01
v 6.25653186e+03 5.37525000e+03 2.12101646e+01
v 6.25007672e+03 5.37525000e+03 1.95121627e+01
v 6.25000000e+03 5.37525000e+03 1.95009311e+01
v 6.28135844e+03 5.37525000e+03 1.57392823e+01
v 6.28150000e+03 5.37525000e+03 1.57271548e+01
vt 0.11836744 0.8742798
vt 0.11102419 0.83582234
vt 0.19356874 0.84242934
vt 0.18546766 0.87237012
vt 0.026607914 0.82698303
vt 0.20884217 0.76712221
vt 0.12616491 0.9358449
vt 0.0033371479 0.91608131
vt 0.047163822 0.75633836
vt 0.154176 0.71484512
vt 0.21789944 0.7716251
vt 0.061070092 0.93850458
vt 0.16493803 0.94061381
vt 0.0033263704 0.88815325
vt 0.112556 0.73081511
vt 0.18462683 0.70565832
vt 0.23863308 0.70392299
vt 0.087841764 0.94448209
vt 0.056909844 0.95720017
vt 0.062494457 0.70250297
vt 0.16860569 0.68103343
vt 0.22395124 0.70507419
vt 0.14669001 0.67614788
vt 0.044035479 0.99525338
vt 0.08675652 0.66570592
vt 0.18875176 0.68563658
vt 0.21755697 0.6791302
vt 0.13195333 0.66569006
vt 0.23779438 0.66565359
vt 0.0033487866 0.95649976
vt 0.075351447 0.66571003
vt 0.11392169 0.66569674
vt 0.22626509 0.66565281
vt 0.14539476 0.66567951
vt 0.23331596 0.66565406
vt 0.25106621 0.68036956
vt 0.0033551371 0.98026508
vt 0.17649134 0.67388403
vt 0.2186214 0.66565311
vt 0.24478392 0.66565347
vt 0.0033532886 0.99422389
vt 0.17917582 0.66566432
vt 0.20855099 0.66565615
vt 0.26123551 0.66564703
vt 0.27775663 0.67761332
vt 0.28077263 0.66563964
vt 0.28350115 0.66672492
vt 0.28286743 0.66563916
vt 0.32491782 0.69452381
vt 0.28380781 0.6656388
vt 0.34837097 0.68356466
vt 0.37397477 0.67156678
vt 0.38347024 0.71216697
vt 0.36926252 0.66561335
vt 0.41369849 0.70564288
vt 0.37749198 0.66561055
vt 0.46017176 0.70997274
vt 0.45104542 0.73349756
vt 0.39245641 0.66560578
vt 0.45201889 0.66558641
vt 0.49545929 0.71781433
vt 0.4954513 0.68680811
vt 0.4954595 0.71836972
vt 0.49545628 0.70152217
vt 0.47021964 0.66558051
vt 0.49304375 0.74740505
vt 0.49544445 0.66557235
vt 0.4954634 0.72651792
vt 0.49547261 0.74563706
vt 0.49547264 0.74653828
vt 0.53533077 0.91502863
vt 0.54445696 0.91851318
vt 0.54722011 0.93012989
vt 0.51814646 0.92341292
vt 0.53309846 0.89462453
vt 0.5649426 0.92704445
vt 0.53179812 0.9351247
vt 0.51941472 0.90496606
vt 0.55561656 0.91710997
vt 0.57428098 0.93275189
vt 0.58581626 0.95183998
vt 0.50985861 0.9262383
vt 0.47683704 0.9086374
vt 0.48006454 0.88802749
vt 0.57165468 0.91678691
vt 0.54744774 0.94551057
vt 0.51921225 0.93624419
vt 0.49445811 0.89847577
vt 0.46056652 0.83614975
vt 0.59765756 0.91622066
vt 0.59006721 0.94117516
vt 0.55214942 0.96249253
vt 0.48137942 0.91922122
vt 0.44762614 0.89171678
vt 0.54016936 0.86142564
vt 0.62291831 0.95298117
vt 0.56398088 0.96927452
vt 0.4610768 0.90475643
vt 0.4116652 0.85465413
vt 0.6199283 0.88591629
vt 0.61196619 0.93732178
vt 0.61969489 0.9626137
vt 0.57766336 0.96878213
vt 0.55027276 0.96974123
vt 0.45640576 0.91442132
vt 0.4201408 0.87708825
vt 0.40387875 0.8195591
vt 0.62088674 0.92362112
vt 0.65028799 0.97589785
vt 0.59346271 0.96359634
vt 0.57952279 0.98381346
vt 0.54204679 0.98249888
vt 0.42957327 0.90543252
vt 0.43745261 0.89097238
vt 0.39860681 0.87544143
vt 0.36229378 0.85486126
vt 0.65402484 0.89508313
vt 0.63532704 0.92726547
vt 0.65326947 0.9505524
vt 0.4194912 0.89945734
vt 0.4063203 0.88716614
vt 0.38176647 0.86562377
vt 0.31368381 0.79103816
vt 0.66224432 0.91874444
vt 0.55752236 0.99646956
vt 0.38747394 0.89163309
vt 0.3716096 0.87662309
vt 0.3114059 0.87188494
vt 0.67122704 0.90290296
vt 0.54208201 0.98981971
vt 0.35385692 0.88165039
vt 0.28411564 0.83073092
vt 0.25361401 0.85185879
vt 0.27451208 0.78074527
vt 0.25572255 0.84404856
vt 0.26520562 0.80973852
vt 0.50450706 0.71417439
vt 0.53165889 0.71737087
vt 0.54493773 0.74504411
vt 0.50509089 0.74027073
vt 0.55626816 0.72613311
vt 0.56920505 0.70739174
vt 0.59065896 0.72773337
vt 0.6370576 0.7616744
vt 0.65412879 0.73834127
vt 0.60822994 0.7095542
vt 0.69429374 0.74516451
vt 0.69428545 0.72320682
vt 0.69485265 0.77105129
vt 0.64662647 0.71242523
vt 0.72589481 0.75000525
vt 0.72380692 0.72937357
vt 0.61275983 0.70271689
vt 0.76802629 0.75893903
vt 0.78279239 0.73884445
vt 0.77616239 0.78581429
vt 0.82666683 0.76757878
vt 0.79825449 0.76029313
vt 0.85453439 0.7742551
vt 0.83195674 0.7473771
vt 0.85756743 0.79917461
vt 0.88339871 0.75617474
vt 0.8860054 0.78766966
vt 0.88613087 0.77566224
vt 0.89226753 0.80415803
vt 0.89653438 0.76433671
vt 0.9113813 0.79567999
vt 0.90554255 0.78351241
vt 0.91001976 0.80796158
vt 0.91423732 0.76855129
vt 0.79389554 0.5543524
vt 0.78811729 0.57348537
vt 0.76671141 0.57605571
vt 0.75295025 0.56038046
vt 0.83091962 0.54109561
vt 0.76132065 0.58976781
vt 0.74100161 0.58032292
vt 0.76277423 0.53568935
vt 0.82653695 0.55809021
vt 0.80850959 0.53622603
vt 0.80265546 0.5803442
vt 0.72140306 0.5547601
vt 0.76059449 0.52001297
vt 0.83985215 0.53875184
vt 0.78782654 0.52678525
vt 0.80113572 0.59290361
vt 0.7211026 0.60165071
vt 0.72416174 0.58127344
vt 0.7410444 0.53668952
vt 0.85332781 0.54552829
vt 0.82724762 0.57336712
vt 0.77148616 0.61385196
vt 0.80832469 0.58771229
vt 0.72881842 0.63951093
vt 0.7018919 0.58523655
vt 0.72128451 0.53571165
vt 0.85054159 0.55784249
vt 0.8202213 0.57908314
vt 0.83753544 0.56613445
vt 0.73253572 0.64092624
vt 0.70147663 0.61407924
vt 0.66887367 0.56438768
vt 0.73063248 0.51809597
vt 0.69827557 0.54570186
vt 0.85630018 0.55278969
vt 0.73059511 0.64214671
vt 0.68735749 0.64343607
vt 0.68576092 0.58717358
vt 0.70940918 0.5287587
vt 0.72895449 0.64339983
vt 0.66359955 0.62321752
vt 0.65260214 0.66665053
vt 0.66744626 0.54627621
vt 0.65373409 0.59292686
vt 0.6630882 0.60449153
vt 0.62029642 0.56618857
vt 0.63819784 0.5890128
vt 0.67748123 0.67514086
vt 0.64500403 0.63540602
vt 0.62442774 0.54820478
vt 0.63437927 0.57688999
vt 0.6242075 0.60768068
vt 0.63145012 0.62772393
vt 0.662736 0.68423957
vt 0.62977684 0.63615
vt 0.59151667 0.55333495
vt 0.61667109 0.58001989
vt 0.60016376 0.60452414
vt 0.56896079 0.588211
vt 0.55814302 0.56678164
vt 0.53265953 0.59776175
vt 0.5579837 0.60816437
vt 0.52605867 0.57738388
vt 0.59153706 0.61150026
vt 0.53946477 0.6145221
vt 0.50486249 0.58832657
vt 0.55526316 0.61853856
vt 0.52294791 0.6160841
vt 0.54649997 0.62322855
vt 0.52907693 0.62583786
vt 0.20147663 0.92657924
vt 0.18576092 0.89967358
vt 0.22416171 0.8937735
vt 0.2355389 0.99395472
vt 0.22387338 0.98957968
vt 0.26784676 0.98958945
vt 0.2749989 0.95204896
vt 0.19576415 0.98978013
vt 0.31811589 0.96614647
vt 0.22870791 0.95103902
vt 0.31649137 0.94046724
vt 0.30251989 0.98763484
vt 0.20605958 0.95128065
vt 0.27376369 0.9376905
vt 0.35036847 0.93252236
vt 0.34509766 0.9839316
vt 0.1693221 0.95224726
vt 0.40986285 0.9512915
vt 0.12963665 0.99157768
vt 0.17740214 0.93970346
vt 0.38543022 0.93295348
vt 0.40592232 0.98281938
vt 0.17111748 0.99605387
vt 0.13607785 0.96348947
vt 0.15125524 0.94278777
vt 0.41852018 0.9375779
vt 0.44565353 0.97389996
vt 0.44629493 0.95193219
vt 0.44546199 0.93235242
vt 0.44182608 0.92717874
vt 0.31213558 0.24223852
vt 0.28841302 0.22035682
vt 0.31976545 0.2349245
vt 0.31976938 0.24127018
vt 0.26748055 0.22395235
vt 0.31371424 0.274764
vt 0.25129077 0.23419785
vt 0.31977898 0.26216686
vt 0.29772949 0.25014496
vt 0.23484582 0.21533501
vt 0.31978008 0.2676959
vt 0.22924837 0.24736792
vt 0.319787 0.28662729
vt 0.27305603 0.25765991
vt 0.1733602 0.20331126
vt 0.2742157 0.25866699
vt 0.30891138 0.32382953
vt 0.20059709 0.22888106
vt 0.31979147 0.30167234
vt 0.29667974 0.30434066
vt 0.27882385 0.26643372
vt 0.21319622 0.26407123
vt 0.15208212 0.22887039
vt 0.31979156 0.30672526
vt 0.26586398 0.31419802
vt 0.27104506 0.27981496
vt 0.18360956 0.28458583
vt 0.13521528 0.18478918
vt 0.27289531 0.33359534
vt 0.25023508 0.2914694
vt 0.20893861 0.28413111
vt 0.11633724 0.20607579
vt 0.15592101 0.27785009
vt 0.29445836 0.36968738
vt 0.22408049 0.31986022
vt 0.22210287 0.30096906
vt 0.27352905 0.25789642
vt 0.19734862 0.30200505
vt 0.098368876 0.17995453
vt 0.11671676 0.23562014
vt 0.17426428 0.32068503
vt 0.26386741 0.35051697
vt 0.091151193 0.21956265
vt 0.14484024 0.31754166
vt 0.12008423 0.29857916
vt 0.25504202 0.36802936
vt 0.21557449 0.33780694
vt 0.19088694 0.33315009
vt 0.10292587 0.22186023
vt 0.05826259 0.22453529
vt 0.13438755 0.37142026
vt 0.09130428 0.24292612
vt 0.28386104 0.38503057
vt 0.23095354 0.35496825
vt 0.19332558 0.35012203
vt 0.11473548 0.21922612
vt 0.052300971 0.1943078
vt 0.065544032 0.24471754
vt 0.12800187 0.35934162
vt 0.15719415 0.37218767
vt 0.064863928 0.29704142
vt 0.286634 0.41240555
vt 0.2540915 0.38733596
vt 0.18099041 0.37051266
vt 0.035769973 0.29663867
vt 0.10559138 0.37734026
vt 0.16056262 0.39966148
vt 0.11222018 0.34396523
vt 0.087547608 0.30454445
vt 0.27524573 0.41819918
vt 0.25691602 0.40176386
vt 0.19969992 0.36990803
vt 0.12225014 0.3884781
vt 0.089414865 0.33637744
vt 0.11104283 0.36402279
vt 0.023678951 0.31779933
vt 0.062434964 0.31522286
vt 0.27682403 0.44129848
vt 0.22372377 0.38868225
vt 0.18421353 0.38427985
vt 0.10258134 0.3873316
vt 0.15058304 0.41123945
vt 0.1022385 0.35553402
vt 0.036847282 0.34595788
vt 0.057982735 0.3469196
vt 0.24776436 0.45661479
vt 0.24091367 0.41989881
vt 0.1010554 0.40824449
vt 0.078979626 0.37426257
vt 0.17251891 0.41368765
vt 0.09478125 0.36429012
vt 0.016666314 0.33088344
vt 0.24350406 0.43384373
vt 0.26925391 0.45582163
vt 0.071652941 0.37769651
vt 0.18900478 0.40471649
vt 0.13522065 0.43327862
vt 0.15819058 0.4401713
vt 0.051422901 0.37577444
vt 0.0070084468 0.36132604
vt 0.23439121 0.45829815
vt 0.26195824 0.48616207
vt 0.20594196 0.42228734
vt 0.059937 0.39286864
vt 0.072676614 0.35320288
vt 0.18662311 0.41145808
vt 0.076395243 0.41915137
vt 0.18245438 0.44182497
vt 0.041345015 0.3891083
vt 0.0095919659 0.37789464
vt 0.23577113 0.47346902
vt 0.14678925 0.46060354
vt 0.09440621 0.44340891
vt 0.23560627 0.49433261
vt 0.059616961 0.43124062
vt 0.121698 0.45617366
vt 0.17904332 0.46941316
vt 0.11229468 0.4492377
vt 0.079470173 0.44147009
vt 0.034130763 0.42968524
vt 0.2583535 0.49641263
vt 0.21840012 0.48714125
vt 0.15529819 0.46774769
vt 0.19267038 0.48075426
vt 0.0041591395 0.41842955
vt 0.1742793 0.47820103
vt 0.71926051 0.93252921
vt 0.77098948 0.95528841
vt 0.71918869 0.9867512
vt 0.69213229 0.96079803
vt 0.73297542 0.91061574
vt 0.78970873 0.9858551
vt 0.69358039 0.98376173
vt 0.69439209 0.91682374
vt 0.71804225 0.91018254
vt 0.77362692 0.91065252
vt 0.8663013 0.96102959
vt 0.70944715 0.89717585
vt 0.76132852 0.8993172
vt 0.81636912 0.9197861
vt 0.86400491 0.99280357
vt 0.83651769 0.9055078
vt 0.89497209 0.99097377
vt 0.85971397 0.91156888
vt 0.90180779 0.95620126
vt 0.87396139 0.90655178
vt 0.90574002 0.90839529
vt 0.93629771 0.96565676
vt 0.94647866 0.93744093
vt 0.96418774 0.9855665
vt 0.94840515 0.90279764
vt 0.95970714 0.97586852
vt 0.96598011 0.99528444
vt 0.92142206 0.89677769
vt 0.96518111 0.93457645
vt 0.96956468 0.95689118
vt 0.96220726 0.89773339
vt 0.10761651 0.57115912
vt 0.12709501 0.55550426
vt 0.15394665 0.58298892
vt 0.16761647 0.61437309
vt 0.1079478 0.5247705
vt 0.17770039 0.56262457
vt 0.19201657 0.58346999
vt 0.11060386 0.61115593
vt 0.1297572 0.51978719
vt 0.065073729 0.52392375
vt 0.14678878 0.53538156
vt 0.2151361 0.61800778
vt 0.082205594 0.60848451
vt 0.12065005 0.51411211
vt 0.088176467 0.50971061
vt 0.031983979 0.55447751
vt 0.21085739 0.53836679
vt 0.18137829 0.51967502
vt 0.22632298 0.58590388
vt 0.056775607 0.57298285
vt 0.10301909 0.51486611
vt 0.1628477 0.5154202
vt 0.033940975 0.52893621
vt 0.23200056 0.5693022
vt 0.26391959 0.60916138
vt 0.036192089 0.60160792
vt 0.013887328 0.50808203
vt 0.043365624 0.50571227
vt 0.25228322 0.5372349
vt 0.19964746 0.51884961
vt 0.24590375 0.58783054
vt 0.26475811 0.6208328
vt 0.0094068423 0.56797087
vt 0.019511333 0.54711002
vt 0.06876523 0.51621425
vt 0.25676739 0.56386209
vt 0.24198237 0.51776618
vt 0.22508973 0.51593292
vt 0.26665658 0.58359027
vt 0.0035104339 0.59378135
vt 0.26462358 0.52612066
vt 0.39701274 0.53431326
vt 0.3821705 0.53089213
vt 0.37372985 0.51578915
vt 0.44634336 0.52844393
vt 0.36683699 0.55717731
vt 0.41468671 0.48121446
vt 0.43707216 0.5524599
vt 0.32290912 0.55781025
vt 0.38138863 0.48737007
vt 0.44894081 0.48058057
vt 0.49757278 0.5496968
vt 0.3307564 0.51034868
vt 0.35138893 0.47317106
vt 0.36881015 0.46080768
vt 0.40201393 0.46226203
vt 0.48223379 0.48923069
vt 0.49192333 0.52198696
vt 0.31986213 0.55734277
vt 0.46278211 0.4651314
vt 0.55394679 0.52595401
vt 0.31809628 0.53095496
vt 0.32107866 0.5590955
vt 0.31681764 0.46895152
vt 0.54141605 0.48165035
vt 0.50518245 0.4711715
vt 0.5474503 0.55011874
vt 0.31666443 0.51862788
vt 0.31752977 0.48835957
vt 0.57044041 0.54185343
vt 0.56464177 0.47865224
vt 0.31551781 0.50947183
vt 0.5405916 0.46052825
vt 0.56681412 0.52128071
vt 0.74775618 0.39358997
vt 0.71878272 0.40125555
vt 0.69416773 0.39113414
vt 0.71425992 0.43667156
vt 0.68761665 0.40100813
vt 0.76347405 0.45150697
vt 0.63396204 0.39359039
vt 0.79629493 0.39789802
vt 0.70664817 0.49236572
vt 0.63376403 0.49303657
vt 0.79834801 0.39092344
vt 0.80153215 0.44501746
vt 0.76205379 0.48896909
vt 0.61457688 0.4487614
vt 0.79768699 0.38910073
vt 0.80041242 0.39564741
vt 0.80100632 0.40407473
vt 0.80091268 0.4606421
vt 0.56841785 0.49603689
vt 0.59631044 0.41769975
vt 0.80100566 0.39976555
vt 0.80006462 0.47444844
vt 0.56841302 0.45997161
vt 0.61215758 0.39527214
vt 0.57850391 0.44792265
vt 0.80089074 0.49006844
vt 0.56705952 0.47583103
vt 0.59371269 0.39919966
vt 0.57994682 0.42861611
vt 0.56688577 0.45739722
vt 0.57827139 0.3952105
vt 0.570306 0.40137511
vt 0.57137245 0.39322031
vt 0.90221041 0.68836355
vt 0.89035767 0.70694935
vt 0.87838298 0.68099833
vt 0.89013797 0.65170634
vt 0.87839562 0.71887195
vt 0.87837476 0.66401803
vt 0.91335291 0.62739897
vt 0.88732874 0.72579873
vt 0.87836909 0.64224523
vt 0.88601786 0.74212587
vt 0.87836123 0.61576009
vt 0.87840545 0.74628049
vt 0.87834597 0.57061714
vt 0.93295175 0.57746136
vt 0.94265151 0.52710629
vt 0.94110048 0.52710676
vt 0.8783319 0.52712524
vt 0.46829507 0.41693771
vt 0.51714313 0.41699356
vt 0.50259864 0.42279643
vt 0.47783771 0.42742437
vt 0.53054744 0.40388894
vt 0.52021003 0.41963792
vt 0.44409016 0.43417072
vt 0.52805477 0.39297819
vt 0.53110522 0.41736823
vt 0.46233308 0.43275356
vt 0.43551871 0.41379923
vt 0.47324643 0.3892895
vt 0.41695535 0.42775333
vt 0.52481443 0.38559109
vt 0.38447616 0.43006086
vt 0.46307111 0.35116702
vt 0.52759975 0.37498724
vt 0.37894765 0.42107439
vt 0.41321006 0.38119787
vt 0.36806384 0.41495848
vt 0.36594924 0.38490444
vt 0.41087398 0.33391351
vt 0.52239162 0.33814251
vt 0.45424235 0.32646763
vt 0.48269543 0.33756697
vt 0.34684655 0.38960928
vt 0.36551183 0.34804779
vt 0.52136183 0.33599669
vt 0.31697133 0.41444236
vt 0.34787485 0.37269408
vt 0.38049406 0.32673019
vt 0.50220138 0.32846516
vt 0.31980199 0.40381342
vt 0.31992608 0.38237637
vt 0.33340648 0.32744747
vt 0.36461174 0.32818747
vt 0.32489961 0.36050522
vt 0.32259959 0.33052099
vt 0.93588257 0.441028
vt 0.91544455 0.43915004
vt 0.92400867 0.42172337
vt 0.93216306 0.42776793
vt 0.93224418 0.45982999
vt 0.88960195 0.41460907
vt 0.96176744 0.44239354
vt 0.91551119 0.47822154
vt 0.96067739 0.44834507
vt 0.90580755 0.41408205
vt 0.89121026 0.44816512
vt 0.96825773 0.44588542
vt 0.90118271 0.47190171
vt 0.93346471 0.46946704
vt 0.89145625 0.41017383
vt 0.86401743 0.43227959
vt 0.89704108 0.48768401
vt 0.93932033 0.48591346
vt 0.98300105 0.46670491
vt 0.96141064 0.46086836
vt 0.87785679 0.40685046
vt 0.83879042 0.45907223
vt 0.86749291 0.4199031
vt 0.92046237 0.49474132
vt 0.97304767 0.47779363
vt 0.97932589 0.4531818
vt 0.86723906 0.40594739
vt 0.84030074 0.41030574
vt 0.89493024 0.49627835
vt 0.96391171 0.48624885
vt 0.98762631 0.46178317
vt 0.86902946 0.4855082
vt 0.81561476 0.4463495
vt 0.86034518 0.40242761
vt 0.83631325 0.46399826
vt 0.81556511 0.43957472
vt 0.83179575 0.46524698
vt 0.82811219 0.38820297
vt 0.84493762 0.47538787
vt 0.82181883 0.40255713
vt 0.8155458 0.44824028
vt 0.82409543 0.38819993
vt 0.81560749 0.44734991
vt 0.81596273 0.42657632
vt 0.81561941 0.44788843
vt 0.81545317 0.41183788
vt 0.81634295 0.40072328
vt 0.81621933 0.4709692
vt 0.81592309 0.40611655
vt 0.8224622 0.38786232
vt 0.82033134 0.38742197
vt 0.59206152 0.32277006
vt 0.58206981 0.30093521
vt 0.59457475 0.29272646
vt 0.60273337 0.28898728
vt 0.5797807 0.35928851
vt 0.61864704 0.28956074
vt 0.59684753 0.36822224
vt 0.56732619 0.34994501
vt 0.61001366 0.25733346
vt 0.62837601 0.3564474
vt 0.62834078 0.25196886
vt 0.62836319 0.3188836
vt 0.62838078 0.37132686
vt 0.62834662 0.26805592
vt 0.62833422 0.23958611
vt 0.62223631 0.23235148
vt 0.62832576 0.21504885
vt 0.71941972 0.29498583
vt 0.70848167 0.31335276
vt 0.69394493 0.30787241
vt 0.68307471 0.29984134
vt 0.69350994 0.3267982
vt 0.70083314 0.2744171
vt 0.70936239 0.32911801
vt 0.655536 0.2997942
vt 0.66097087 0.28869915
vt 0.73628259 0.29006213
vt 0.70214456 0.34153813
vt 0.68813717 0.34102589
vt 0.65414298 0.27453774
vt 0.74295133 0.2739709
vt 0.62920254 0.31208622
vt 0.63406402 0.27954167
vt 0.70736009 0.35293269
vt 0.62920839 0.32265407
vt 0.62919188 0.28981823
vt 0.69217545 0.37109572
vt 0.65073794 0.36923158
vt 0.62918711 0.28044933
vt 0.62921548 0.3380819
vt 0.62918657 0.27927858
vt 0.62923086 0.36704379
vt 0.42025325 0.77920437
vt 0.40779203 0.79051626
vt 0.40666148 0.77270299
vt 0.40697193 0.76582849
vt 0.43491796 0.80163741
vt 0.39501381 0.7683602
vt 0.42621166 0.76307297
vt 0.44955862 0.79154909
vt 0.39804709 0.74788594
vt 0.44895571 0.77726966
vt 0.45789587 0.80921543
vt 0.43670952 0.75666273
vt 0.38313562 0.75851941
vt 0.46259674 0.78339857
vt 0.46239907 0.77017498
vt 0.40928376 0.73746526
vt 0.39297864 0.73604274
vt 0.47024208 0.78727371
vt 0.43681225 0.74647701
vt 0.4676131 0.75158906
vt 0.37961233 0.74792111
vt 0.47350359 0.77216411
vt 0.39590502 0.72635388
vt 0.44259891 0.74073929
vt 0.42626849 0.73635054
vt 0.45438311 0.74272215
vt 0.39285553 0.7247082
vt 0.40628457 0.7287066
vt 0.44443163 0.74076486
vt 0.46288517 0.74542034
vt 0.47022837 0.74804837
vt 0.29207736 0.90585655
vt 0.28965428 0.91986209
vt 0.27890876 0.90978336
vt 0.2754868 0.88949084
vt 0.30404273 0.92269713
vt 0.2604773 0.89885306
vt 0.30474004 0.89353472
vt 0.25327685 0.88637114
vt 0.2979725 0.87705308
vt 0.31494045 0.91805011
vt 0.26179677 0.87825686
vt 0.26713008 0.869326
vt 0.3088437 0.87634403
vt 0.3358514 0.91978592
vt 0.3334969 0.89652085
vt 0.33324549 0.93328452
vt 0.48430973 0.98953766
vt 0.44911617 0.98409945
vt 0.45599654 0.95844615
vt 0.4959912 0.95981705
vt 0.4411253 0.98549759
vt 0.51475734 0.95660496
vt 0.51457709 0.99566281
vt 0.025963746 0.63703233
vt 0.031138055 0.62345666
vt 0.051940825 0.61118251
vt 0.069069184 0.6386171
vt 0.075467654 0.61356485
vt 0.03545633 0.6532172
vt 0.05463763 0.65447819
vt 0.011412507 0.64045119
vt 0.071143046 0.66590548
vt 0.052389499 0.66343969
vt 0.021699915 0.65934002
vt 0.0044616656 0.65663409
vt 0.065839142 0.67881608
vt 0.049034186 0.68413526
vt 0.031969063 0.68117619
vt 0.098905019 0.99513263
vt 0.12145106 0.97532344
vt 0.13639322 0.97157514
vt 0.11427883 0.96234119
vt 0.087562226 0.97138119
vt 0.08266858 0.98706746
vt 0.065918587 0.96970123
vt 0.65975153 0.9653725
vt 0.62910992 0.99597847
vt 0.65988439 0.96440053
vt 0.68343717 0.93023109
vt 0.6594941 0.96592623
vt 0.65474051 0.99682075
vt 0.043813948 0.99662459
vt 0.062106006 0.99084044
vt 0.094040468 0.99348897
vt 0.11458302 0.95915425
vt 0.098252781 0.95026821
vt 0.11821623 0.93942326
vt 0.13987631 0.93726635
vt 0.14591122 0.94940543
vt 0.13668384 0.95609802
vt 0.1235382 0.96185803
vt 0.11604869 0.9648791
vt 0.58219641 0.98012102
vt 0.60754597 0.97979611
vt 0.62501502 0.99673796
vt 0.26247194 0.90200227
vt 0.26325908 0.93285972
vt 0.22300822 0.91404325
vt 0.22352836 0.92397159
vt 0.10735351 0.94173032
vt 0.084486544 0.95462996
vt 0.10736392 0.94081497
vt 0.089069791 0.95658273
vt 0.067257501 0.95354635
vt 0.075079933 0.96543348
vt 0.081819184 0.94871294
vt 0.53965473 0.99094737
vt 0.53754854 0.99643052
vt 0.53077805 0.99119288
vt 0.52974284 0.97627711
vt 0.53674495 0.97340262
vt 0.53860813 0.95730722
vt 0.54383594 0.97466803
vt 0.52016449 0.97413611
vt 0.059984352 0.98289764
vt 0.090603732 0.99674892
vt 0.051137876 0.98160464
vt 0.058223553 0.99686885
vt 0.074369572 0.99451745
vt 0.096982993 0.99570656
vt 0.67033559 0.97264212
vt 0.65976405 0.95995367
vt 0.68485498 0.96455997
vt 0.6779533 0.97563249
vt 0.66962278 0.98854482
vt 0.67465454 0.99527347
vt 0.66449881 0.99305069
vt 0.23403822 0.88408506
vt 0.22761424 0.87592661
vt 0.23035419 0.86725372
vt 0.24496308 0.88935578
vt 0.24948734 0.86954355
vt 0.22222155 0.88560951
vt 0.25575835 0.87409627
vt 0.2489049 0.89922857
vt 0.25073019 0.88661027
vt 0.24871552 0.89599007
vt 0.2468151 0.90307444
vt 0.20912404 0.94366807
vt 0.20327175 0.94942677
vt 0.20197153 0.92953134
vt 0.1949804 0.94196713
vt 0.19745867 0.92505234
vt 0.17967579 0.92743576
vt 0.18828225 0.94191831
vt 0.17591146 0.93939304
vt 0.33294654 0.99530315
vt 0.33566245 0.98485368
vt 0.35624304 0.98560542
vt 0.4014273 0.98364502
vt 0.39192137 0.99687314
vt 0.37925798 0.98303717
vt 0.60165697 0.9945637
vt 0.58352906 0.99577475
vt 0.58174968 0.97894627
vt 0.43960023 0.98930496
vt 0.42606282 0.99652439
vt 0.42619497 0.97976989
vt 0.444006 0.97563744
vt 0.97229522 0.97773385
vt 0.98420405 0.97568369
vt 0.97723776 0.99692786
vt 0.98506343 0.9926936
vt 0.1139032 0.99693227
vt 0.12144977 0.9824993
vt 0.12968062 0.97844982
usemtl Tile_+032_+022_L19_000022_0
f 36/804 190/805 37/806
f 44/1 46/2 45/3
f 41/27 35/38 527/42
f 34/10 33/15 32/23
f 180/397 43/398 42/399
f 28/469 31/470 30/471
f 41/27 463/26 35/38
f 27/57 468/55 29/52
f 27/57 29/52 529/59
f 24/53 468/55 26/58
f 26/58 468/55 27/57
f 26/58 27/57 471/61
f 206/66 26/58 477/63
f 179/552 25/553 473/554
f 39/47 29/52 38/51
f 213/9 462/20 33/15
f 35/768 463/769 40/770
f 40/21 466/16 34/10
f 38/51 24/53 418/49
f 465/6 466/16 467/22
f 466/16 463/26 41/27
f 41/27 467/22 466/16
f 538/29 467/22 539/35
f 467/22 41/27 537/33
f 206/476 195/480 30/471
f 465/6 461/11 45/3
f 467/22 42/17 465/6
f 461/11 465/6 42/17
f 468/55 24/53 38/51
f 460/497 464/494 417/488
f 34/10 466/16 465/6
f 465/6 46/2 34/10
f 33/15 34/10 46/2
f 44/1 339/8 168/5
f 532/28 33/15 540/32
f 46/2 168/5 213/9
f 271/4 44/1 45/3
f 271/413 45/411 203/407
f 32/23 40/21 34/10
f 195/480 206/476 480/486
f 542/44 460/36 543/40
f 525/46 464/45 542/44
f 35/768 40/770 32/771
f 35/768 32/771 533/772
f 464/45 39/47 418/49
f 460/36 42/17 538/29
f 38/51 418/49 39/47
f 464/494 418/479 417/488
f 29/52 39/47 544/50
f 8/14 168/5 339/8
f 482/491 195/480 483/496
f 439/271 196/272 482/273
f 463/26 466/16 40/21
f 201/502 48/503 202/504
f 23/472 421/484 419/485
f 457/809 197/808 198/807
f 182/474 181/477 459/482
f 438/287 437/290 432/276
f 425/282 214/277 423/286
f 30/471 31/470 26/473
f 200/508 47/506 168/511
f 541/25 462/20 546/31
f 14/526 193/521 169/515
f 434/322 187/315 446/331
f 196/481 181/477 30/471
f 26/473 28/469 24/475
f 419/485 418/479 23/472
f 485/556 179/552 486/559
f 43/398 461/402 42/399
f 26/473 206/476 30/471
f 461/402 43/398 203/407
f 417/488 208/501 460/497
f 213/510 212/505 430/507
f 430/507 462/514 213/510
f 395/415 271/413 203/407
f 203/407 209/410 449/414
f 188/339 159/344 151/355
f 203/407 449/414 448/416
f 159/344 243/361 151/355
f 395/415 203/407 276/417
f 200/508 169/515 193/521
f 428/401 183/409 456/406
f 445/412 209/410 456/406
f 455/790 457/791 458/792
f 213/510 168/511 47/506
f 48/503 212/505 47/506
f 47/506 202/504 48/503
f 455/790 443/794 36/796
f 457/809 455/810 197/808
f 197/808 455/810 36/804
f 207/404 429/405 180/397
f 180/397 428/401 43/398
f 198/843 433/844 457/845
f 433/844 458/846 457/845
f 199/302 433/326 198/319
f 456/406 43/398 428/401
f 443/794 455/790 433/793
f 458/792 433/793 455/790
f 190/795 443/794 433/793
f 436/292 435/300 453/301
f 547/519 430/507 549/513
f 432/276 440/279 439/271
f 30/471 195/480 196/481
f 439/271 440/279 214/277
f 437/290 435/300 427/296
f 432/276 215/291 426/307
f 435/300 437/290 452/295
f 153/311 442/297 450/308
f 416/305 204/299 157/312
f 488/574 340/576 489/579
f 452/295 437/290 438/287
f 157/312 156/324 451/317
f 157/312 451/317 416/305
f 438/287 204/299 452/295
f 204/299 416/305 452/295
f 489/294 438/287 492/289
f 427/296 435/300 436/292
f 454/306 416/305 450/308
f 452/295 416/305 454/306
f 450/308 453/301 454/306
f 453/301 450/308 442/297
f 435/300 454/306 453/301
f 416/305 451/317 194/318
f 189/303 442/297 153/311
f 155/325 194/318 451/317
f 187/315 160/338 159/344
f 193/521 191/529 21/525
f 456/406 183/409 445/412
f 200/535 21/536 19/537
f 446/765 447/766 151/767
f 445/335 446/331 449/346
f 446/331 277/354 449/346
f 188/339 187/315 159/344
f 187/315 188/339 446/331
f 446/331 188/339 447/347
f 151/355 447/347 188/339
f 187/315 210/329 160/338
f 187/315 211/314 210/329
f 435/300 452/295 454/306
f 214/277 459/275 439/271
f 438/287 432/276 490/283
f 187/315 189/303 211/314
f 214/277 432/276 424/284
f 436/292 425/282 427/296
f 432/276 427/296 215/291
f 434/322 190/310 187/315
f 434/322 184/328 37/313
f 414/309 415/298 199/302
f 422/478 23/472 182/474
f 426/759 425/760 423/761
f 426/759 423/761 432/762
f 214/277 185/280 459/275
f 185/483 182/474 459/482
f 196/481 459/482 181/477
f 186/487 422/478 185/483
f 442/297 189/303 431/293
f 183/320 184/328 445/335
f 446/331 445/335 434/322
f 202/541 444/545 413/547
f 444/545 202/541 17/543
f 414/309 37/313 183/320
f 200/535 22/538 202/541
f 202/504 47/506 200/508
f 37/313 199/302 198/319
f 186/285 441/288 431/293
f 190/310 434/322 37/313
f 425/282 441/288 186/285
f 431/293 441/288 442/297
f 436/292 441/288 425/282
f 214/277 440/279 432/276
f 432/276 423/286 424/284
f 432/276 439/271 484/274
f 214/764 424/763 426/759
f 427/296 425/282 215/291
f 426/759 424/763 425/760
f 215/291 424/284 423/286
f 425/282 424/284 215/291
f 196/272 439/271 459/275
f 185/280 214/277 425/282
f 420/492 417/488 419/485
f 30/471 181/477 182/474
f 182/474 23/472 30/471
f 421/484 422/478 186/487
f 549/513 412/509 550/518
f 419/485 421/484 420/492
f 420/492 414/500 207/498
f 415/493 420/492 421/484
f 415/298 431/293 199/302
f 421/484 186/487 415/493
f 420/492 207/498 417/488
f 201/502 412/509 430/507
f 430/507 212/505 201/502
f 551/512 201/502 553/516
f 428/401 180/397 429/405
f 212/505 48/503 201/502
f 183/320 428/327 414/309
f 431/293 415/298 186/285
f 199/302 37/313 414/309
f 553/549 413/547 554/550
f 414/408 429/405 207/404
f 420/492 415/493 414/500
f 418/479 419/485 417/488
f 460/403 208/400 42/399
f 24/475 23/472 418/479
f 436/292 453/301 442/297
f 432/276 437/290 427/296
f 448/416 276/417 203/407
f 243/752 281/753 151/754
f 211/314 189/303 153/311
f 214/277 426/307 215/291
f 423/798 214/799 215/800
f 31/470 28/469 26/473
f 23/472 28/469 30/471
f 456/406 209/410 43/398
f 38/51 29/52 468/55
f 465/6 45/3 46/2
f 168/5 46/2 44/1
f 46/2 213/9 33/15
f 45/411 461/402 203/407
f 208/400 180/397 42/399
f 180/397 208/400 207/404
f 204/299 438/287 205/304
f 23/472 422/478 421/484
f 445/412 449/414 209/410
f 486/559 161/563 495/565
f 23/472 24/475 28/469
f 47/506 212/505 213/510
f 277/354 448/362 449/346
f 169/515 200/508 168/511
f 200/508 193/521 21/525
f 209/410 203/407 43/398
f 198/807 197/808 36/804
f 153/311 194/318 155/325
f 194/318 153/311 450/308
f 416/305 194/318 450/308
f 445/335 184/328 434/322
f 151/355 277/354 446/331
f 19/537 22/538 200/535
f 191/529 193/521 192/532
f 189/303 187/315 190/310
f 433/793 199/797 190/795
f 431/293 190/310 199/302
f 425/282 186/285 185/280
f 422/478 182/474 185/483
f 37/313 184/328 183/320
f 413/547 201/548 202/541
f 37/806 198/807 36/804
f 36/796 443/794 190/795
f 431/293 189/303 190/310
f 442/297 441/288 436/292
f 208/501 417/488 207/498
f 428/401 429/405 414/408
f 161/563 162/567 487/568
f 175/71 222/72 172/73
f 177/76 178/79 71/85
f 121/123 131/107 118/116
f 309/244 171/245 115/246
f 122/137 126/138 121/139
f 179/552 170/562 161/563
f 9/524 14/526 169/515
f 153/311 152/330 167/321
f 243/361 159/344 158/353
f 159/344 160/338 158/353
f 167/321 210/329 211/314
f 438/583 340/576 205/575
f 153/311 155/325 154/334
f 20/539 191/542 192/544
f 147/382 148/368 145/387
f 139/171 138/172 89/173
f 93/97 50/111 92/112
f 133/590 132/591 559/592
f 246/428 247/429 268/430
f 323/207 125/194 102/212
f 112/714 113/715 107/716
f 103/727 111/723 110/720
f 122/12 333/19 339/8
f 103/223 124/214 104/215
f 123/140 122/137 121/139
f 126/138 336/141 121/139
f 95/683 77/684 94/685
f 92/112 319/104 93/97
f 74/75 82/95 81/90
f 77/124 63/119 78/118
f 66/689 67/686 76/691
f 63/687 65/690 64/693
f 218/105 171/113 308/94
f 100/82 58/74 57/77
f 52/187 54/201 53/188
f 49/608 134/598 563/601
f 266/270 5/269 109/266
f 409/216 411/227 272/229
f 265/217 376/228 411/227
f 272/229 117/230 116/226
f 60/182 382/174 90/177
f 60/182 53/188 381/195
f 248/432 402/448 403/441
f 144/367 143/386 403/388
f 245/390 254/379 165/385
f 385/422 270/420 163/418
f 406/178 60/182 137/189
f 252/209 404/196 405/204
f 242/37 241/30 335/24
f 265/217 124/214 377/222
f 273/447 240/440 274/453
f 253/213 264/202 409/216
f 394/443 273/447 274/453
f 87/737 372/738 401/739
f 93/97 293/103 50/111
f 363/573 205/575 162/567
f 275/356 260/363 364/340
f 61/578 365/582 363/573
f 258/316 357/333 155/325
f 261/357 369/341 364/340
f 364/340 363/332 365/348
f 301/641 174/642 371/643
f 316/566 371/569 170/562
f 350/446 370/439 360/434
f 108/658 107/659 373/660
f 407/232 383/237 12/235
f 12/235 267/231 407/232
f 164/419 386/426 385/422
f 163/418 164/419 385/422
f 279/421 164/419 276/417
f 267/231 266/236 109/233
f 266/236 267/231 10/238
f 20/539 192/544 408/546
f 276/417 164/419 395/415
f 389/424 279/421 276/417
f 393/427 279/421 389/424
f 393/454 400/450 394/443
f 411/227 376/228 272/229
f 411/227 410/221 265/217
f 264/202 253/213 405/204
f 116/226 409/216 272/229
f 253/254 225/247 252/250
f 409/216 410/221 411/227
f 148/368 355/360 351/378
f 116/226 379/220 409/216
f 264/202 410/221 409/216
f 375/717 108/719 16/721
f 405/204 253/213 252/209
f 379/220 253/213 409/216
f 330/132 121/123 237/128
f 380/722 375/717 407/725
f 407/232 272/229 376/228
f 376/228 380/234 407/232
f 251/183 406/178 137/189
f 60/182 264/202 405/204
f 251/183 404/196 312/203
f 60/182 404/196 137/189
f 137/189 404/196 251/183
f 386/460 274/453 270/467
f 404/196 252/209 312/203
f 268/430 247/429 249/433
f 246/428 240/440 273/447
f 49/744 87/737 86/742
f 378/431 268/430 360/434
f 139/171 382/174 406/178
f 139/171 406/178 251/183
f 312/253 219/257 251/260
f 355/360 148/368 397/352
f 247/429 399/438 249/433
f 394/443 400/450 166/437
f 399/438 247/429 143/436
f 147/382 146/393 143/386
f 165/385 396/377 398/389
f 149/445 399/438 146/449
f 143/436 146/449 399/438
f 146/393 147/382 145/387
f 350/446 360/434 348/451
f 149/396 146/393 145/387
f 166/830 165/831 398/832
f 147/382 143/386 144/367
f 392/337 390/343 167/321
f 402/383 398/389 396/377
f 246/428 394/443 166/437
f 144/367 403/388 402/383
f 144/367 148/368 147/382
f 248/432 398/442 402/448
f 248/432 166/437 398/442
f 392/337 355/360 397/352
f 154/334 353/350 392/337
f 152/330 392/337 167/321
f 390/343 392/337 397/352
f 144/367 387/358 397/352
f 281/753 243/752 141/755
f 388/351 142/365 141/359
f 245/390 393/395 389/380
f 361/366 355/360 353/350
f 254/379 150/369 244/374
f 355/360 392/337 353/350
f 244/374 142/365 387/358
f 211/314 153/311 167/321
f 141/359 269/336 388/351
f 167/321 390/343 269/336
f 152/330 154/334 392/337
f 152/330 153/311 154/334
f 210/329 391/345 160/338
f 387/358 388/351 390/343
f 245/455 400/450 393/454
f 387/358 390/343 397/352
f 396/377 387/358 144/367
f 389/380 277/354 254/379
f 388/351 387/358 142/365
f 254/379 244/374 165/385
f 244/374 396/377 165/385
f 164/419 163/418 395/415
f 386/460 394/443 274/453
f 386/460 280/461 394/443
f 280/425 386/426 164/419
f 387/358 396/377 244/374
f 391/345 158/353 160/338
f 357/333 358/342 155/325
f 384/7 271/4 239/13
f 395/415 163/418 271/413
f 270/420 385/422 386/426
f 239/146 270/153 274/150
f 8/520 9/524 169/515
f 169/515 168/511 8/520
f 241/30 339/8 335/24
f 384/142 336/141 126/138
f 44/1 271/4 384/7
f 339/8 44/1 122/12
f 239/146 326/145 384/142
f 103/223 377/222 124/214
f 126/18 122/12 384/7
f 305/147 326/145 240/148
f 246/428 313/435 240/440
f 320/157 321/159 82/156
f 378/155 68/151 313/152
f 136/154 68/151 378/155
f 313/435 246/428 378/431
f 313/152 68/151 305/147
f 60/182 381/195 264/202
f 401/180 372/175 139/171
f 172/73 58/74 175/71
f 308/94 97/98 218/105
f 74/75 75/78 303/84
f 66/689 76/691 296/694
f 49/608 135/609 134/598
f 288/176 89/173 138/172
f 218/248 225/247 171/245
f 382/174 89/173 90/177
f 103/727 110/720 377/728
f 374/661 373/660 105/662
f 6/663 108/658 374/661
f 3/666 6/663 374/661
f 332/665 3/666 374/661
f 373/660 374/661 108/658
f 11/240 12/235 16/239
f 238/258 117/261 109/266
f 375/717 112/714 107/716
f 376/228 265/217 377/222
f 107/716 108/719 375/717
f 407/725 375/717 383/724
f 16/239 12/235 383/237
f 375/717 16/721 383/724
f 338/208 264/202 381/195
f 110/720 376/726 377/728
f 53/188 60/182 90/177
f 338/208 104/215 124/214
f 264/202 338/208 124/214
f 225/247 253/254 379/251
f 379/251 120/249 225/247
f 375/717 110/720 112/714
f 116/255 117/261 238/258
f 380/722 110/720 375/717
f 268/430 378/431 246/428
f 220/740 401/739 250/741
f 89/173 382/174 139/171
f 250/185 139/171 251/183
f 401/180 139/171 250/185
f 372/175 87/184 85/179
f 566/676 332/665 567/672
f 3/666 332/665 1/673
f 373/660 107/659 105/662
f 238/258 109/266 4/268
f 289/181 85/179 568/191
f 85/179 138/172 372/175
f 138/172 139/171 372/175
f 85/179 49/190 570/197
f 134/598 135/609 235/603
f 563/601 133/590 565/596
f 132/591 133/590 263/594
f 350/446 359/458 368/452
f 370/439 350/446 368/452
f 368/452 359/458 256/466
f 321/159 317/164 314/163
f 128/617 232/611 503/622
f 370/439 378/431 360/434
f 318/602 233/600 132/591
f 79/81 172/73 70/80
f 170/562 179/552 129/558
f 95/683 66/689 282/692
f 91/161 321/159 314/163
f 230/698 296/694 76/691
f 234/597 263/594 235/603
f 294/606 64/621 232/611
f 234/597 318/602 132/591
f 231/605 233/600 232/611
f 321/159 320/157 370/160
f 301/641 300/645 174/642
f 256/585 349/577 368/584
f 370/160 173/162 321/159
f 368/452 173/459 370/439
f 371/643 316/644 301/641
f 320/157 262/158 370/160
f 173/162 317/164 321/159
f 228/647 301/641 505/650
f 224/108 91/100 55/117
f 76/691 67/686 315/688
f 170/562 174/571 367/572
f 378/155 370/160 262/158
f 505/650 88/646 507/652
f 311/649 129/656 497/655
f 316/644 311/649 88/646
f 349/577 367/572 174/571
f 173/580 368/584 349/577
f 174/571 173/580 349/577
f 162/567 161/563 170/562
f 347/381 145/387 148/368
f 367/572 227/581 61/578
f 226/463 348/451 346/456
f 62/586 61/578 227/581
f 360/434 249/433 255/444
f 367/572 349/577 227/581
f 233/600 231/605 342/595
f 61/578 363/573 367/572
f 367/572 366/570 170/562
f 369/341 356/349 357/333
f 258/316 259/323 357/333
f 261/357 356/349 369/341
f 275/356 362/371 260/363
f 140/587 61/578 62/586
f 140/587 365/582 61/578
f 369/341 259/323 364/340
f 351/378 352/373 362/371
f 352/373 260/363 362/371
f 361/366 354/376 355/360
f 255/444 348/451 360/434
f 358/342 357/333 356/349
f 155/325 358/342 154/334
f 353/350 154/334 358/342
f 451/317 156/324 155/325
f 353/350 358/342 356/349
f 356/349 261/357 353/350
f 156/324 258/316 155/325
f 259/323 369/341 357/333
f 355/360 352/373 351/378
f 148/368 351/378 347/381
f 347/381 344/392 257/394
f 140/364 275/356 365/348
f 260/363 352/373 261/357
f 347/381 362/371 275/356
f 364/340 365/348 275/356
f 364/340 259/323 363/332
f 364/340 260/363 261/357
f 351/378 362/371 347/381
f 355/360 354/376 352/373
f 352/373 361/366 261/357
f 261/357 361/366 353/350
f 352/373 354/376 361/366
f 226/463 256/466 359/458
f 343/612 231/605 128/617
f 343/612 128/617 573/623
f 132/591 233/600 342/595
f 145/387 347/381 257/394
f 257/394 149/396 145/387
f 345/384 344/392 347/381
f 227/581 226/588 62/586
f 62/372 341/391 345/384
f 341/468 346/456 345/464
f 345/464 346/456 255/444
f 255/444 257/457 344/465
f 345/384 347/381 62/372
f 344/465 345/464 255/444
f 231/605 343/612 342/595
f 559/592 342/595 577/599
f 359/458 348/451 226/463
f 350/446 348/451 359/458
f 342/595 343/612 574/616
f 157/312 258/316 156/324
f 128/617 127/629 578/631
f 578/631 512/636 590/639
f 162/567 366/570 363/573
f 205/575 340/576 162/567
f 127/629 128/617 504/625
f 366/570 162/567 170/562
f 114/252 115/246 120/249
f 54/241 338/242 53/243
f 59/211 54/201 323/207
f 90/177 52/187 53/188
f 335/24 339/8 333/19
f 327/669 105/662 106/668
f 335/24 337/41 242/37
f 329/677 327/669 111/674
f 338/801 381/802 53/803
f 336/141 384/142 130/143
f 44/1 384/7 122/12
f 567/672 327/669 580/675
f 106/718 112/714 110/720
f 332/665 374/661 105/662
f 236/133 334/135 330/132
f 112/714 106/718 113/715
f 110/720 111/723 106/718
f 338/208 54/201 104/215
f 335/779 236/780 337/781
f 113/664 105/662 107/659
f 328/782 337/781 236/780
f 331/730 334/731 335/732
f 333/733 122/735 331/730
f 330/132 331/136 123/134
f 122/735 123/736 331/730
f 123/134 121/123 330/132
f 118/116 237/128 121/123
f 334/135 331/136 330/132
f 327/669 329/677 102/678
f 329/225 101/219 102/212
f 329/225 103/223 101/219
f 236/133 330/132 237/128
f 113/664 106/668 105/662
f 236/262 238/258 328/267
f 327/669 332/665 105/662
f 327/669 106/668 111/674
f 103/727 329/729 111/723
f 92/112 290/125 287/130
f 118/116 325/122 322/127
f 307/106 72/115 73/99
f 115/126 72/115 324/121
f 59/211 102/212 101/219
f 59/211 101/219 104/215
f 103/223 104/215 101/219
f 118/116 114/131 237/128
f 54/201 59/211 104/215
f 131/107 73/99 118/116
f 72/115 307/106 324/121
f 73/99 72/115 325/122
f 118/116 73/99 325/122
f 115/126 324/121 309/120
f 54/201 52/187 125/194
f 115/126 114/131 322/127
f 54/201 125/194 323/207
f 102/212 59/211 323/207
f 130/143 131/144 121/139
f 322/127 114/131 118/116
f 121/139 336/141 130/143
f 72/115 115/126 322/127
f 131/144 130/143 326/145
f 308/94 73/99 69/89
f 69/89 73/99 131/107
f 307/106 73/99 308/94
f 306/114 308/94 171/113
f 55/165 314/163 315/167
f 82/95 91/100 81/90
f 315/167 56/169 55/165
f 136/154 262/158 320/157
f 67/686 66/689 95/683
f 307/106 309/120 324/121
f 303/84 308/94 69/89
f 69/149 136/154 82/156
f 82/95 74/75 69/89
f 321/159 91/161 82/156
f 69/89 74/75 303/84
f 57/77 58/74 172/73
f 95/683 94/685 67/686
f 95/683 63/687 77/684
f 91/100 224/108 81/90
f 77/836 56/837 315/838
f 77/124 78/118 224/108
f 310/83 96/93 97/98
f 98/822 319/823 99/824
f 92/825 99/824 319/823
f 96/93 100/82 221/87
f 84/750 98/751 83/747
f 290/125 92/112 50/111
f 79/81 293/103 93/97
f 315/688 94/685 77/684
f 98/92 93/97 319/104
f 50/607 235/603 51/614
f 302/88 75/78 310/83
f 57/77 172/73 79/81
f 83/826 99/824 92/825
f 216/96 80/102 79/81
f 96/93 310/83 100/82
f 175/71 74/75 222/72
f 58/74 100/82 310/83
f 81/90 71/85 74/75
f 71/85 178/79 74/75
f 232/611 64/621 298/624
f 64/621 294/606 80/618
f 63/119 216/96 78/118
f 64/109 216/96 63/119
f 285/811 232/812 283/813
f 295/814 285/811 283/813
f 64/109 80/102 216/96
f 318/602 234/597 294/606
f 503/622 285/626 516/630
f 224/108 217/101 81/90
f 299/168 315/167 314/163
f 58/74 75/78 175/71
f 315/688 67/686 94/685
f 304/839 315/840 299/841
f 300/645 173/648 174/642
f 314/163 55/165 91/161
f 129/558 311/564 170/562
f 304/695 176/699 76/691
f 228/703 176/699 304/695
f 70/80 71/85 81/90
f 177/76 71/85 70/80
f 100/82 57/77 221/87
f 97/98 308/94 303/84
f 96/93 218/105 97/98
f 171/113 309/120 306/114
f 307/106 306/114 309/120
f 305/147 68/151 69/149
f 308/94 306/114 307/106
f 310/83 303/84 302/88
f 75/78 58/74 310/83
f 299/841 228/842 304/839
f 74/75 178/79 222/72
f 75/776 302/777 303/778
f 316/644 88/646 301/641
f 240/148 313/152 305/147
f 299/168 314/163 317/164
f 228/170 299/168 300/166
f 174/571 170/562 371/569
f 129/558 179/552 479/555
f 88/646 311/649 508/651
f 315/688 304/695 76/691
f 76/691 176/699 230/698
f 296/694 282/692 66/689
f 296/694 229/701 514/706
f 500/708 296/694 517/711
f 295/814 297/815 518/817
f 65/690 95/683 282/692
f 80/618 294/606 286/613
f 233/600 318/602 294/606
f 283/697 284/696 65/690
f 501/818 295/814 520/820
f 516/783 298/784 521/785
f 232/789 298/784 284/787
f 64/621 119/628 298/624
f 65/690 284/696 64/693
f 284/696 119/700 64/693
f 283/813 297/815 295/814
f 297/702 283/697 296/694
f 119/816 285/811 295/814
f 85/179 87/184 49/190
f 135/609 51/614 235/603
f 86/742 83/747 49/744
f 86/742 292/743 291/746
f 289/181 138/172 85/179
f 288/176 52/187 90/177
f 83/747 86/742 291/746
f 292/743 86/742 220/740
f 288/176 90/177 89/173
f 138/172 289/181 288/176
f 49/744 83/747 51/748
f 79/81 93/97 98/92
f 98/847 99/848 83/849
f 220/740 221/745 292/743
f 288/176 289/181 584/186
f 583/200 288/176 586/192
f 125/194 52/187 288/176
f 96/263 221/259 218/248
f 292/743 221/745 291/746
f 57/749 84/750 291/746
f 79/81 84/86 57/77
f 223/91 79/81 70/80
f 293/103 79/81 286/110
f 50/111 293/103 286/110
f 92/825 287/828 51/827
f 51/827 287/828 290/829
f 286/613 234/597 50/607
f 51/827 83/826 92/825
f 79/81 80/102 286/110
f 285/786 284/787 298/784
f 119/788 284/787 285/786
f 521/632 119/628 522/634
f 282/692 296/694 283/697
f 63/687 95/683 65/690
f 65/690 282/692 283/697
f 217/101 223/91 81/90
f 223/91 70/80 81/90
f 273/447 394/443 246/428
f 243/361 158/353 391/345
f 157/312 204/299 205/304
f 393/427 280/425 279/421
f 164/419 279/421 280/425
f 14/526 9/524 278/531
f 276/370 448/362 277/354
f 141/359 142/365 281/375
f 401/739 220/740 87/737
f 270/420 239/423 271/413
f 102/212 125/194 562/210
f 382/174 60/182 406/178
f 303/84 310/83 97/98
f 175/71 75/78 74/75
f 224/108 78/118 216/96
f 116/255 120/249 379/251
f 222/833 178/834 177/835
f 117/230 267/231 109/233
f 264/202 124/214 265/217
f 142/365 150/369 151/355
f 391/757 210/758 269/756
f 317/164 173/162 300/166
f 265/217 410/221 264/202
f 62/372 275/356 140/364
f 235/603 263/594 134/598
f 4/268 109/266 5/269
f 267/231 117/230 272/229
f 272/229 407/232 267/231
f 192/532 193/521 15/533
f 277/354 151/355 150/369
f 254/379 245/390 389/380
f 389/380 276/370 277/354
f 394/443 280/461 393/454
f 110/720 380/722 376/726
f 69/149 131/144 305/147
f 312/253 252/250 218/248
f 405/204 404/196 60/182
f 360/434 268/430 249/433
f 219/257 220/264 250/265
f 399/438 149/445 249/433
f 247/429 246/428 248/432
f 248/432 143/436 247/429
f 143/436 248/432 403/441
f 166/437 400/450 245/455
f 248/432 246/428 166/437
f 348/451 255/444 346/456
f 245/455 165/462 166/437
f 390/343 388/351 269/336
f 210/329 167/321 269/336
f 151/355 281/375 142/365
f 150/369 142/365 244/374
f 150/369 254/379 277/354
f 148/368 144/367 397/352
f 269/756 243/752 391/757
f 402/383 396/377 144/367
f 243/752 269/756 141/755
f 271/413 163/418 270/420
f 131/144 326/145 305/147
f 326/145 130/143 384/142
f 239/146 274/150 240/148
f 136/154 320/157 82/156
f 133/590 134/598 263/594
f 252/250 225/247 218/248
f 238/258 237/256 120/249
f 116/255 238/258 120/249
f 251/260 219/257 250/265
f 128/617 231/605 232/611
f 230/698 176/699 523/705
f 296/694 230/698 229/701
f 515/707 230/698 524/710
f 132/591 263/594 234/597
f 300/645 301/641 228/647
f 299/168 317/164 300/166
f 176/699 228/703 506/709
f 170/562 311/564 316/566
f 256/585 227/581 349/577
f 363/573 366/570 367/572
f 259/323 205/304 363/332
f 258/316 157/312 205/304
f 205/304 259/323 258/316
f 62/372 347/381 275/356
f 62/586 226/588 341/589
f 149/445 255/444 249/433
f 226/588 227/581 256/585
f 226/463 346/456 341/468
f 149/445 257/457 255/444
f 171/245 225/247 115/246
f 237/256 114/252 120/249
f 580/675 102/678 581/680
f 335/732 333/733 331/730
f 335/732 334/731 236/734
f 236/262 237/256 238/258
f 322/127 325/122 72/115
f 55/117 77/124 224/108
f 69/149 68/151 136/154
f 55/117 56/129 77/124
f 177/76 70/80 172/73
f 217/101 216/96 223/91
f 223/91 216/96 79/81
f 98/92 84/86 79/81
f 172/73 222/72 177/76
f 136/154 378/155 262/158
f 234/597 286/613 294/606
f 283/697 232/704 284/696
f 233/600 294/606 232/611
f 86/742 87/737 220/740
f 235/603 50/607 234/597
f 51/614 135/609 49/608
f 221/259 220/264 219/257
f 83/747 291/746 84/750
f 221/745 57/749 291/746
f 51/614 290/619 50/607
f 217/101 224/108 216/96
f 225/247 120/249 115/246
f 326/145 239/146 240/148
f 4/268 328/267 238/258
f 219/257 312/253 218/248
f 221/259 219/257 218/248
f 18/540 22/538 19/537
f 19/537 21/536 20/539
f 20/539 21/536 191/542
f 17/543 22/538 18/540
f 22/538 17/543 202/541
f 408/534 192/532 15/533
f 278/531 9/524 7/528
f 11/671 16/667 6/663
f 108/658 6/663 16/667
f 13/530 15/533 193/521
f 10/238 267/231 12/235
f 13/530 193/521 14/526
f 10/238 12/235 11/240
f 7/528 9/524 8/520
f 6/663 3/666 2/670
f 2/670 3/666 1/673
f 469/62 27/57 531/60
f 470/64 27/57 469/62
f 471/61 27/57 470/64
f 472/557 25/553 474/560
f 473/554 25/553 472/557
f 474/560 25/553 485/556
f 475/69 206/66 478/68
f 476/70 206/66 475/69
f 477/63 26/58 471/61
f 478/68 206/66 477/63
f 479/555 179/552 473/554
f 480/486 206/476 476/490
f 481/489 195/480 480/486
f 482/491 196/481 195/480
f 483/496 195/480 496/499
f 484/274 439/271 482/273
f 485/556 25/553 179/552
f 486/559 179/552 161/563
f 487/568 162/567 488/574
f 488/574 162/567 340/576
f 489/579 340/576 438/583
f 490/283 432/276 491/281
f 491/281 432/276 493/278
f 492/289 438/287 490/283
f 493/278 432/276 484/274
f 494/495 195/480 481/489
f 495/565 161/563 487/568
f 496/499 195/480 494/495
f 497/655 129/656 498/657
f 498/561 129/558 479/555
f 499/712 297/702 500/708
f 500/708 297/702 296/694
f 501/818 119/816 295/814
f 502/821 119/816 501/818
f 503/622 232/611 285/626
f 504/625 128/617 503/622
f 505/650 301/641 88/646
f 506/653 228/647 505/650
f 507/652 88/646 509/654
f 508/651 311/649 497/655
f 509/654 88/646 508/651
f 510/633 127/629 504/625
f 511/635 127/629 510/633
f 512/636 127/629 513/638
f 513/638 127/629 511/635
f 514/706 229/701 515/707
f 515/707 229/701 230/698
f 516/783 285/786 298/784
f 517/711 296/694 514/706
f 518/713 297/702 499/712
f 519/819 295/814 518/817
f 520/820 295/814 519/819
f 521/632 298/624 119/628
f 522/634 119/628 502/637
f 523/705 176/699 506/709
f 524/710 230/698 523/705
f 525/46 39/47 464/45
f 526/48 39/47 525/46
f 527/775 35/768 535/774
f 528/43 41/27 527/42
f 529/59 29/52 530/56
f 530/56 29/52 545/54
f 531/60 27/57 529/59
f 532/28 32/23 33/15
f 533/34 32/23 532/28
f 534/773 35/768 533/772
f 535/774 35/768 534/773
f 536/39 41/27 528/43
f 537/33 41/27 536/39
f 538/29 42/17 467/22
f 539/35 467/22 537/33
f 540/32 33/15 541/25
f 541/25 33/15 462/20
f 542/44 464/45 460/36
f 543/40 460/36 538/29
f 544/50 39/47 526/48
f 545/54 29/52 544/50
f 546/527 462/514 548/523
f 547/519 462/514 430/507
f 548/523 462/514 547/519
f 549/513 430/507 412/509
f 550/518 412/509 556/522
f 551/512 412/509 201/502
f 552/517 412/509 551/512
f 553/549 201/548 413/547
f 554/550 413/547 555/551
f 556/522 412/509 552/517
f 557/65 469/62 531/60
f 558/67 469/62 557/65
f 559/592 132/591 342/595
f 560/593 133/590 559/592
f 561/206 125/194 583/200
f 562/210 125/194 561/206
f 563/601 134/598 133/590
f 564/615 49/608 563/601
f 565/596 133/590 560/593
f 566/676 1/673 332/665
f 567/672 332/665 327/669
f 568/191 85/179 572/199
f 569/198 289/181 568/191
f 570/197 49/190 571/205
f 571/620 49/608 564/615
f 572/199 85/179 570/197
f 573/623 128/617 579/627
f 574/616 343/612 573/623
f 575/610 342/595 574/616
f 576/604 342/595 575/610
f 577/599 342/595 576/604
f 578/631 127/629 512/636
f 579/627 128/617 578/631
f 580/675 327/669 102/678
f 581/680 102/678 582/682
f 582/224 102/212 587/218
f 583/200 125/194 288/176
f 584/186 289/181 585/193
f 585/193 289/181 569/198
f 586/192 288/176 584/186
f 587/218 102/212 562/210
f 588/679 1/673 566/676
f 589/681 1/673 588/679
f 590/639 512/636 591/640
usemtl Tile_+032_+022_L19_000022_untextured
