mtllib Tile_+032_+022_L19_000110.mtl
v 6.46037174e+03 5.25445769e+03 6.48643345e+00
v 6.45920853e+03 5.25383565e+03 5.93593197e+00
v 6.44146030e+03 5.26394494e+03 4.69272610e+00
v 6.44190421e+03 5.26311092e+03 5.23391729e+00
v 6.44171779e+03 5.27272000e+03 4.82195424e+00
v 6.44146375e+03 5.27301033e+03 4.28162452e+00
v 6.44058307e+03 5.27491161e+03 3.36359866e+00
v 6.44008413e+03 5.27301824e+03 3.63234194e+00
v 6.44086797e+03 5.27484653e+03 6.41194473e+00
v 6.44246090e+03 5.27440439e+03 6.99193082e+00
v 6.44262407e+03 5.27474278e+03 8.36333387e+00
v 6.45271903e+03 5.27887630e+03 3.69576415e+00
v 6.45199470e+03 5.27932273e+03 4.97418450e+00
v 6.45159422e+03 5.27975045e+03 3.54105681e+00
v 6.45206010e+03 5.27988054e+03 4.18301634e+00
v 6.45168394e+03 5.27986884e+03 4.44065864e+00
v 6.44448459e+03 5.27890347e+03 3.87925133e+00
v 6.44284093e+03 5.27744155e+03 3.80970119e+00
v 6.44445657e+03 5.28031713e+03 3.54340925e+00
v 6.45009257e+03 5.27803301e+03 3.72431002e+00
v 6.45280196e+03 5.27956472e+03 4.67113983e+00
v 6.45221575e+03 5.27959984e+03 4.54150258e+00
v 6.45176477e+03 5.26793066e+03 4.93810711e+00
v 6.45071302e+03 5.26878636e+03 4.35832874e+00
v 6.45260793e+03 5.26837864e+03 4.12779752e+00
v 6.45368164e+03 5.26679901e+03 4.57194778e+00
v 6.44918641e+03 5.27014539e+03 4.25845057e+00
v 6.45092840e+03 5.28028710e+03 3.57056099e+00
v 6.45105148e+03 5.28061171e+03 3.64210379e+00
v 6.45304675e+03 5.28041584e+03 4.06271083e+00
v 6.45163301e+03 5.27990249e+03 5.35239843e+00
v 6.45166277e+03 5.27991546e+03 4.94141058e+00
v 6.45081951e+03 5.27994257e+03 5.80761116e+00
v 6.45148022e+03 5.27975462e+03 4.93901615e+00
v 6.45139093e+03 5.26728429e+03 4.11509692e+00
v 6.45075098e+03 5.27992531e+03 8.40734348e+00
v 6.44341625e+03 5.27271823e+03 3.64310957e+00
v 6.44160652e+03 5.27747215e+03 3.42473676e+00
v 6.44026578e+03 5.27104747e+03 4.25632999e+00
v 6.43877606e+03 5.27204642e+03 3.89268817e+00
v 6.43909972e+03 5.27154589e+03 4.33592446e+00
v 6.44072697e+03 5.26984125e+03 3.92711521e+00
v 6.43914786e+03 5.27255810e+03 3.97150670e+00
v 6.44115147e+03 5.27267275e+03 4.55716730e+00
v 6.43904081e+03 5.27307761e+03 4.97506626e+00
v 6.44804365e+03 5.27762452e+03 4.03086375e+00
v 6.44587034e+03 5.27995972e+03 3.92551228e+00
v 6.44725891e+03 5.27950637e+03 3.62632520e+00
v 6.44190883e+03 5.27140640e+03 5.08639240e+00
v 6.44123104e+03 5.27166192e+03 3.61951360e+00
v 6.44917065e+03 5.27132189e+03 3.83987918e+00
v 6.45360621e+03 5.27088164e+03 4.14536923e+00
v 6.43750323e+03 5.26998485e+03 7.52656609e+00
v 6.43795775e+03 5.27087418e+03 6.13799880e+00
v 6.43880530e+03 5.27121338e+03 5.22406053e+00
v 6.43851806e+03 5.27012083e+03 7.70414435e+00
v 6.44924442e+03 5.26861407e+03 3.95554040e+00
v 6.44686884e+03 5.27068157e+03 3.79100655e+00
v 6.44770840e+03 5.27670929e+03 3.68319031e+00
v 6.45166310e+03 5.27542531e+03 3.82797212e+00
v 6.45157651e+03 5.28007369e+03 3.76450468e+00
v 6.44263799e+03 5.26973570e+03 8.41580867e+00
v 6.44317767e+03 5.27198600e+03 7.38543833e+00
v 6.44179842e+03 5.27070816e+03 1.00871377e+01
v 6.44179230e+03 5.26921847e+03 9.34274769e+00
v 6.45495001e+03 5.27712873e+03 3.86407653e+00
v 6.44308150e+03 5.27157649e+03 1.01467966e+01
v 6.45198821e+03 5.27915466e+03 7.77313768e+00
v 6.45328488e+03 5.28022969e+03 7.08862809e+00
v 6.45466747e+03 5.28116960e+03 9.50687696e+00
v 6.45264105e+03 5.27974063e+03 8.64945975e+00
v 6.44866514e+03 5.28140281e+03 3.44051816e+00
v 6.45064334e+03 5.27939077e+03 9.57298808e+00
v 6.43803438e+03 5.27240044e+03 5.68777409e+00
v 6.43951952e+03 5.27442385e+03 1.11057105e+01
v 6.43840342e+03 5.27484771e+03 9.62196372e+00
v 6.43767045e+03 5.27373208e+03 6.65527233e+00
v 6.46527654e+03 5.26580373e+03 1.43951730e+01
v 6.46368064e+03 5.26818504e+03 8.95344174e+00
v 6.45787047e+03 5.27451110e+03 4.10023741e+00
v 6.45469557e+03 5.28117244e+03 4.67786900e+00
v 6.46056863e+03 5.27204899e+03 4.24685752e+00
v 6.46189832e+03 5.26577058e+03 4.65979596e+00
v 6.45715580e+03 5.26464345e+03 4.56675300e+00
v 6.46338305e+03 5.26914455e+03 4.50442434e+00
v 6.45994692e+03 5.27175171e+03 9.04387287e+00
v 6.45234411e+03 5.26723477e+03 4.46978901e+00
v 6.45142625e+03 5.27867684e+03 1.25567234e+01
v 6.45187998e+03 5.27886665e+03 1.06079713e+01
v 6.44195107e+03 5.27493700e+03 9.32970079e+00
v 6.44186226e+03 5.27409072e+03 3.78136319e+00
v 6.44129479e+03 5.27384888e+03 4.38318171e+00
v 6.44040660e+03 5.26968966e+03 5.93125696e+00
v 6.43942276e+03 5.27485522e+03 7.99930138e+00
v 6.44455168e+03 5.27982648e+03 4.16467797e+00
v 6.45264611e+03 5.27924540e+03 7.05244194e+00
v 6.44127796e+03 5.27457325e+03 1.01987097e+01
v 6.44215407e+03 5.27426140e+03 1.12810488e+01
v 6.44721487e+03 5.27148727e+03 3.95060653e+00
v 6.44181678e+03 5.27317238e+03 1.27823357e+01
v 6.44181970e+03 5.27219284e+03 1.24097855e+01
v 6.44430399e+03 5.26462129e+03 4.69296839e+00
v 6.43866494e+03 5.27430441e+03 6.40732188e+00
v 6.44070891e+03 5.27152659e+03 1.35245401e+01
v 6.43981915e+03 5.27184297e+03 1.45681952e+01
v 6.44116587e+03 5.26932514e+03 7.21712489e+00
v 6.44189521e+03 5.27011517e+03 6.32775700e+00
v 6.43918550e+03 5.27082657e+03 1.29061494e+01
v 6.45424184e+03 5.28055327e+03 1.05814814e+01
v 6.45276709e+03 5.27969668e+03 1.19837066e+01
v 6.46186939e+03 5.25442916e+03 7.90404123e+00
v 6.46243072e+03 5.25506390e+03 6.85741138e+00
v 6.46155249e+03 5.25445588e+03 6.49390049e+00
v 6.46351872e+03 5.25841852e+03 7.02187468e+00
v 6.46417053e+03 5.26024794e+03 5.18184644e+00
v 6.45935067e+03 5.25177441e+03 7.82808485e+00
v 6.45936309e+03 5.25194282e+03 5.98162162e+00
v 6.46644699e+03 5.25000000e+03 7.69084006e+00
v 6.46560139e+03 5.25000000e+03 7.79336590e+00
v 6.46174042e+03 5.26857124e+03 1.82541655e+01
v 6.43954390e+03 5.26192582e+03 5.96039143e+00
v 6.43988832e+03 5.26190392e+03 5.18384494e+00
v 6.46195774e+03 5.25951000e+03 5.42786941e+00
v 6.45990196e+03 5.26155293e+03 4.99227680e+00
v 6.43944962e+03 5.25912992e+03 6.29011496e+00
v 6.43975425e+03 5.26024577e+03 5.66351932e+00
v 6.43907603e+03 5.25962036e+03 5.72229832e+00
v 6.46045646e+03 5.25562018e+03 5.64844474e+00
v 6.43766279e+03 5.25868664e+03 5.88826777e+00
v 6.46813061e+03 5.26246251e+03 6.57534167e+00
v 6.46733226e+03 5.26227270e+03 5.82540369e+00
v 6.46715364e+03 5.26514273e+03 4.84138411e+00
v 6.46667507e+03 5.26333402e+03 5.11399570e+00
v 6.46539378e+03 5.26226797e+03 5.06811540e+00
v 6.45954724e+03 5.25000000e+03 7.77685823e+00
v 6.43892492e+03 5.25000000e+03 4.75992819e+00
v 6.45039172e+03 5.25000000e+03 5.59071009e+00
v 6.44358857e+03 5.25000000e+03 4.79871508e+00
v 6.46807590e+03 5.25000000e+03 7.71074320e+00
v 6.46671360e+03 5.25092703e+03 7.67980905e+00
v 6.45962307e+03 5.25000000e+03 6.07631755e+00
v 6.45749445e+03 5.25000000e+03 6.06119528e+00
v 6.45457044e+03 5.25000000e+03 5.91221305e+00
v 6.46483030e+03 5.26062611e+03 5.86905602e+00
v 6.44426653e+03 5.25832615e+03 7.14920843e+00
v 6.44419191e+03 5.25770973e+03 6.73370441e+00
v 6.46332056e+03 5.25655516e+03 6.84972525e+00
v 6.43853023e+03 5.25257847e+03 4.82732731e+00
v 6.46874107e+03 5.26138576e+03 7.66383419e+00
v 6.46870323e+03 5.26278317e+03 8.18377474e+00
v 6.46082565e+03 5.25347587e+03 6.25762533e+00
v 6.46155526e+03 5.25625927e+03 6.58857530e+00
v 6.46329975e+03 5.25722098e+03 6.75472870e+00
v 6.46426320e+03 5.25703631e+03 7.87012577e+00
v 6.46520193e+03 5.25865624e+03 7.30685155e+00
v 6.46329013e+03 5.25399509e+03 7.59093393e+00
v 6.46583363e+03 5.25335582e+03 7.67938917e+00
v 6.46634451e+03 5.25692384e+03 7.64204941e+00
v 6.46878357e+03 5.25781315e+03 7.59153044e+00
v 6.46720898e+03 5.26041998e+03 7.63612768e+00
v 6.46761256e+03 5.26220303e+03 7.92557324e+00
v 6.46512486e+03 5.25981292e+03 7.08867846e+00
v 6.46776003e+03 5.25903898e+03 7.35581272e+00
v 6.46753921e+03 5.25385406e+03 7.77258502e+00
v 6.46269929e+03 5.25742655e+03 7.02998197e+00
v 6.46732765e+03 5.26142253e+03 6.43624476e+00
v 6.46717434e+03 5.26204592e+03 7.59190182e+00
v 6.46577144e+03 5.25845888e+03 7.81990348e+00
v 6.46716764e+03 5.25780158e+03 7.74979741e+00
v 6.46184684e+03 5.25690844e+03 5.62181528e+00
v 6.46272601e+03 5.25790971e+03 5.73018514e+00
v 6.46450632e+03 5.26580164e+03 1.94963166e+01
v 6.46736951e+03 5.26421917e+03 9.70209025e+00
v 6.46609417e+03 5.26026190e+03 6.23554392e+00
v 6.46614095e+03 5.26071245e+03 5.88343844e+00
v 6.46231346e+03 5.26637190e+03 2.88268176e+01
v 6.46613787e+03 5.26288309e+03 2.87949471e+01
v 6.46557619e+03 5.26414602e+03 2.41864507e+01
v 6.46821121e+03 5.26087996e+03 2.87583842e+01
v 6.46430694e+03 5.26556945e+03 2.89100110e+01
v 6.43944337e+03 5.26204239e+03 6.76186831e+00
v 6.43924860e+03 5.26054580e+03 7.40261646e+00
v 6.43820922e+03 5.26003118e+03 7.92047474e+00
v 6.43797592e+03 5.26162137e+03 4.94901349e+00
v 6.43898624e+03 5.26184978e+03 5.78957348e+00
v 6.44018913e+03 5.26039567e+03 6.93146911e+00
v 6.44028577e+03 5.25958697e+03 6.71012475e+00
v 6.44306642e+03 5.25901157e+03 6.51381117e+00
v 6.44455591e+03 5.26016617e+03 6.31379561e+00
v 6.43847961e+03 5.25852466e+03 6.83443080e+00
v 6.43833202e+03 5.25946839e+03 5.85232117e+00
v 6.46270464e+03 5.25828497e+03 6.85655494e+00
v 6.46221101e+03 5.25879552e+03 6.63122049e+00
v 6.46305673e+03 5.25971939e+03 5.02567440e+00
v 6.46157040e+03 5.25874963e+03 5.03273064e+00
v 6.46721566e+03 5.26118175e+03 5.79482322e+00
v 6.43811825e+03 5.26665869e+03 4.31979867e+00
v 6.45279651e+03 5.25547876e+03 4.79799224e+00
v 6.44704632e+03 5.25940023e+03 4.76190985e+00
v 6.45313059e+03 5.26134271e+03 4.54286448e+00
v 6.44373152e+03 5.25421946e+03 4.79754476e+00
v 6.44677589e+03 5.25711777e+03 4.77632914e+00
v 6.44531052e+03 5.26285781e+03 4.80926408e+00
v 6.44051187e+03 5.26072476e+03 4.81440453e+00
v 6.44175922e+03 5.26005270e+03 4.81257426e+00
v 6.43901588e+03 5.26396199e+03 4.70900593e+00
v 6.44037145e+03 5.26254397e+03 4.91824735e+00
v 6.44457512e+03 5.25643764e+03 4.83009170e+00
v 6.45704958e+03 5.26219258e+03 4.60021755e+00
v 6.43852372e+03 5.25162263e+03 4.82982863e+00
v 6.44092492e+03 5.25558615e+03 4.78900491e+00
v 6.43796989e+03 5.25503232e+03 4.88563537e+00
v 6.43977398e+03 5.26107460e+03 6.07546743e+00
v 6.44319650e+03 5.25923461e+03 5.45620569e+00
v 6.43951800e+03 5.25984899e+03 4.83007617e+00
v 6.43849214e+03 5.25953026e+03 5.34968232e+00
v 6.43925421e+03 5.25857761e+03 4.78083167e+00
v 6.43786325e+03 5.26279791e+03 5.08195484e+00
v 6.44072980e+03 5.25895652e+03 4.94455308e+00
v 6.44049484e+03 5.25264378e+03 4.75097947e+00
v 6.43858649e+03 5.25331746e+03 5.09925760e+00
v 6.43970848e+03 5.25376639e+03 4.73409676e+00
v 6.44217352e+03 5.25812914e+03 5.03594600e+00
v 6.44412286e+03 5.25814826e+03 5.97135478e+00
v 6.45303011e+03 5.28108642e+03 2.08422204e+01
v 6.45251169e+03 5.27936314e+03 2.56685420e+01
v 6.45310462e+03 5.28004155e+03 2.49321320e+01
v 6.45259046e+03 5.27988835e+03 1.99160487e+01
v 6.45252908e+03 5.27961026e+03 1.72467828e+01
v 6.45260872e+03 5.27968353e+03 1.57238233e+01
v 6.45194355e+03 5.27940891e+03 1.44085284e+01
v 6.45163998e+03 5.27853001e+03 1.51600595e+01
v 6.45796132e+03 5.27003696e+03 2.90552409e+01
v 6.45927086e+03 5.26886868e+03 2.84321400e+01
v 6.45219340e+03 5.28072642e+03 2.73372036e+01
v 6.45384769e+03 5.28096524e+03 1.50405192e+01
v 6.45358919e+03 5.28148467e+03 2.02126473e+01
v 6.45770349e+03 5.27197352e+03 1.90941841e+01
v 6.45938016e+03 5.27137201e+03 1.44015358e+01
v 6.45105284e+03 5.27518518e+03 2.90143411e+01
v 6.45279161e+03 5.27490070e+03 2.40784050e+01
v 6.44881664e+03 5.27762905e+03 2.47261123e+01
v 6.44991635e+03 5.27898806e+03 1.40194462e+01
v 6.45232021e+03 5.27886872e+03 9.94248385e+00
v 6.45275741e+03 5.28117415e+03 1.87086414e+01
v 6.45328634e+03 5.28122529e+03 2.55488320e+01
v 6.44059322e+03 5.27375419e+03 1.30528643e+01
v 6.44311516e+03 5.27298342e+03 9.30402430e+00
v 6.43885358e+03 5.27389478e+03 1.22336957e+01
v 6.43989877e+03 5.27018356e+03 1.06637012e+01
v 6.43903658e+03 5.27014142e+03 9.96416865e+00
v 6.44260368e+03 5.27071007e+03 9.18858921e+00
v 6.44076234e+03 5.26910923e+03 9.30844847e+00
v 6.45345189e+03 5.28010325e+03 1.64425184e+01
v 6.45110303e+03 5.27712222e+03 1.88725065e+01
v 6.45325231e+03 5.27648258e+03 1.37599546e+01
v 6.45140364e+03 5.27879105e+03 2.15406372e+01
v 6.45014673e+03 5.27787173e+03 2.22387030e+01
v 6.44203121e+03 5.27222635e+03 4.00588932e+00
v 6.45341221e+03 5.27728603e+03 9.26192996e+00
v 6.45652509e+03 5.27477332e+03 8.55559251e+00
v 6.43974243e+03 5.27411809e+03 6.15339647e+00
v 6.43849069e+03 5.27419816e+03 8.15778441e+00
v 6.45056255e+03 5.27832223e+03 1.69705923e+01
v 6.46835971e+03 5.27367594e+03 2.80278330e+01
v 6.46753828e+03 5.27401852e+03 2.78888656e+01
v 6.46861736e+03 5.27904271e+03 2.70000574e+01
v 6.46544376e+03 5.27698501e+03 2.78389277e+01
v 6.46578676e+03 5.27230008e+03 2.83016492e+01
v 6.46226394e+03 5.26998842e+03 2.88416988e+01
v 6.45318365e+03 5.28115397e+03 2.33547537e+01
v 6.45226946e+03 5.27904571e+03 2.31074540e+01
v 6.45775841e+03 5.27106693e+03 2.40874107e+01
v 6.46290856e+03 5.28118529e+03 2.78982423e+01
v 6.46340793e+03 5.28097390e+03 2.80902269e+01
v 6.46521926e+03 5.27811538e+03 2.80963210e+01
v 6.45413868e+03 5.27314788e+03 2.90162479e+01
v 6.45489048e+03 5.27827439e+03 2.90273886e+01
v 6.46075796e+03 5.27701755e+03 2.85844284e+01
v 6.45050265e+03 5.28017660e+03 2.90026746e+01
v 6.45125234e+03 5.27823913e+03 2.51477043e+01
v 6.45336299e+03 5.28014839e+03 2.31290180e+01
v 6.45345213e+03 5.28021177e+03 2.15027513e+01
v 6.45318964e+03 5.28100290e+03 2.18874955e+01
v 6.45039235e+03 5.27823846e+03 1.62897641e+01
v 6.45143741e+03 5.27855225e+03 1.42515183e+01
v 6.45407776e+03 5.28039965e+03 1.33008912e+01
v 6.45122998e+03 5.27855115e+03 1.74048439e+01
v 6.45113032e+03 5.27819442e+03 1.59201382e+01
v 6.45230222e+03 5.27916007e+03 1.83852962e+01
v 6.45520079e+03 5.28144818e+03 7.76995518e+00
v 6.45411114e+03 5.28098069e+03 1.18335513e+01
v 6.43737891e+03 5.27409605e+03 8.75510310e+00
v 6.43764943e+03 5.27142596e+03 9.72784078e+00
v 6.43737371e+03 5.27363706e+03 9.79867904e+00
v 6.44051037e+03 5.27517344e+03 9.40805057e+00
v 6.44035347e+03 5.27436118e+03 1.19924049e+01
v 6.44074551e+03 5.27264608e+03 1.33933685e+01
v 6.43978204e+03 5.27295110e+03 1.35622712e+01
v 6.43841089e+03 5.27223888e+03 1.27655737e+01
v 6.43859183e+03 5.27107265e+03 1.19333697e+01
v 6.44868917e+03 5.27715011e+03 2.76283982e+01
v 6.44904824e+03 5.27747278e+03 2.64445040e+01
v 6.44825014e+03 5.27719885e+03 2.89394270e+01
v 6.45001171e+03 5.27825699e+03 2.69412085e+01
v 6.44942075e+03 5.27831984e+03 1.88434124e+01
v 6.44999487e+03 5.27868014e+03 1.69164898e+01
v 6.45015183e+03 5.27912322e+03 1.44826393e+01
v 6.43894309e+03 5.27322024e+03 1.35291886e+01
v 6.43992808e+03 5.27028321e+03 1.17286574e+01
v 6.43749335e+03 5.27264646e+03 1.14955157e+01
v 6.43800593e+03 5.27303852e+03 1.18137575e+01
v 6.43795472e+03 5.27224911e+03 1.16435446e+01
v 6.45016626e+03 5.27835516e+03 1.69749768e+01
v 6.44920266e+03 5.27782766e+03 2.20093789e+01
v 6.44974445e+03 5.27751759e+03 2.42058304e+01
v 6.44978078e+03 5.27756843e+03 2.52207529e+01
v 6.45110940e+03 5.27859788e+03 1.92622367e+01
v 6.44969811e+03 5.27849109e+03 1.92042944e+01
v 6.45069519e+03 5.27831329e+03 2.35845011e+01
v 6.45040020e+03 5.27791360e+03 2.09981295e+01
v 6.45053541e+03 5.27785669e+03 1.98241377e+01
v 6.45075348e+03 5.27806218e+03 1.83352847e+01
v 6.44021573e+03 5.27026698e+03 1.10766780e+01
v 6.44146909e+03 5.27131156e+03 1.16363173e+01
v 6.43767457e+03 5.27158566e+03 1.09945488e+01
v 6.44134340e+03 5.27018990e+03 1.10239782e+01
v 6.44231863e+03 5.27249635e+03 1.11760751e+01
v 6.45146487e+03 5.27826735e+03 2.41305824e+01
v 6.45102304e+03 5.27931541e+03 1.00201759e+01
v 6.43774208e+03 5.27076811e+03 8.28813165e+00
v 6.43839151e+03 5.27050967e+03 1.03480050e+01
v 6.44203068e+03 5.27104893e+03 1.06380950e+01
v 6.44131858e+03 5.27008426e+03 9.79922893e+00
v 6.43858786e+03 5.27058317e+03 8.91530504e+00
v 6.43939834e+03 5.26930037e+03 9.08362050e+00
v 6.44058179e+03 5.27012868e+03 9.45924233e+00
v 6.43996214e+03 5.26929273e+03 8.99090977e+00
v 6.44438635e+03 5.27587475e+03 3.49125085e+00
v 6.44835229e+03 5.28031745e+03 3.78699010e+00
v 6.44620061e+03 5.25815228e+03 4.83523085e+00
v 6.44540441e+03 5.25801145e+03 4.88543600e+00
v 6.44411163e+03 5.25787269e+03 4.92869672e+00
v 6.44581165e+03 5.25857873e+03 6.50186593e+00
v 6.44589197e+03 5.25886568e+03 5.03938481e+00
v 6.44470886e+03 5.25737460e+03 5.58806418e+00
v 6.44127788e+03 5.25459678e+03 5.07340595e+00
v 6.44375616e+03 5.25981631e+03 4.96356810e+00
v 6.44248637e+03 5.25952775e+03 5.57518226e+00
v 6.44517259e+03 5.25939198e+03 7.03950818e+00
v 6.44676655e+03 5.25804105e+03 5.24193572e+00
v 6.44473284e+03 5.26011106e+03 5.04300419e+00
v 6.45993599e+03 5.25946291e+03 4.96900298e+00
v 6.45599880e+03 5.26455842e+03 4.80695292e+00
v 6.46595736e+03 5.26169397e+03 5.90334498e+00
v 6.46853990e+03 5.26313219e+03 5.24299077e+00
v 6.43725000e+03 5.25051034e+03 4.72415222e+00
v 6.43725000e+03 5.25032247e+03 4.72475372e+00
v 6.43725000e+03 5.25778778e+03 5.07682965e+00
v 6.43725000e+03 5.25844338e+03 5.68048972e+00
v 6.43725000e+03 5.26128758e+03 6.86190192e+00
v 6.43725000e+03 5.26103807e+03 5.52178009e+00
v 6.43725000e+03 5.26644044e+03 4.30427856e+00
v 6.43725000e+03 5.26441463e+03 4.56295875e+00
v 6.43725000e+03 5.26665226e+03 4.30981269e+00
v 6.43725000e+03 5.25804130e+03 6.72692216e+00
v 6.43725000e+03 5.25831155e+03 6.23756111e+00
v 6.43725000e+03 5.25413881e+03 4.76026743e+00
v 6.43725000e+03 5.25462633e+03 4.82495795e+00
v 6.43725000e+03 5.25767945e+03 4.83267827e+00
v 6.43725000e+03 5.25736827e+03 4.76799733e+00
v 6.43725000e+03 5.25752726e+03 4.76809772e+00
v 6.43725000e+03 5.25392981e+03 4.87954618e+00
v 6.43725000e+03 5.26103893e+03 5.48494561e+00
v 6.43725000e+03 5.26106696e+03 5.40856908e+00
v 6.43725000e+03 5.26252483e+03 4.95044236e+00
v 6.43725000e+03 5.26188087e+03 4.86797030e+00
v 6.43725000e+03 5.26272813e+03 4.75673320e+00
v 6.43725000e+03 5.25505860e+03 5.23836979e+00
v 6.43725000e+03 5.25701149e+03 4.78838258e+00
v 6.43725000e+03 5.25366415e+03 4.78829660e+00
v 6.43725000e+03 5.25928622e+03 7.46103818e+00
v 6.43725000e+03 5.25861119e+03 7.11903348e+00
v 6.43725000e+03 5.26117164e+03 6.91314516e+00
v 6.43725000e+03 5.26104115e+03 7.03311968e+00
v 6.43725000e+03 5.26011454e+03 7.51993832e+00
v 6.43725000e+03 5.26996453e+03 7.32812994e+00
v 6.43725000e+03 5.26961567e+03 7.52310457e+00
v 6.43725000e+03 5.27397096e+03 3.65299058e+00
v 6.43725000e+03 5.27398292e+03 3.65145171e+00
v 6.43725000e+03 5.27036414e+03 6.51064562e+00
v 6.43725000e+03 5.27119084e+03 6.36599894e+00
v 6.43725000e+03 5.27336197e+03 6.78276249e+00
v 6.43725000e+03 5.27331190e+03 6.89464832e+00
v 6.43725000e+03 5.27208701e+03 6.09460689e+00
v 6.43725000e+03 5.27202280e+03 6.13913778e+00
v 6.43725000e+03 5.27396309e+03 3.65636379e+00
v 6.43725000e+03 5.27166727e+03 3.92396762e+00
v 6.43725000e+03 5.27395319e+03 3.65614874e+00
v 6.43725000e+03 5.26920897e+03 3.91911887e+00
v 6.43725000e+03 5.26748793e+03 4.17248156e+00
v 6.43725000e+03 5.27048376e+03 3.90420923e+00
v 6.43725000e+03 5.27399304e+03 3.65211667e+00
v 6.43725000e+03 5.27774374e+03 3.62807881e+00
v 6.43725000e+03 5.27048262e+03 4.10689216e+00
v 6.43725000e+03 5.27171655e+03 9.35267452e+00
v 6.43725000e+03 5.27151305e+03 9.42407240e+00
v 6.43725000e+03 5.27050818e+03 8.27094095e+00
v 6.43725000e+03 5.27079431e+03 8.45154425e+00
v 6.43725000e+03 5.27113225e+03 9.18079312e+00
v 6.43725000e+03 5.27332044e+03 1.08063896e+01
v 6.43725000e+03 5.27329504e+03 1.07351926e+01
v 6.43725000e+03 5.27338443e+03 1.06745755e+01
v 6.43725000e+03 5.27335176e+03 1.07867965e+01
v 6.43725000e+03 5.27371857e+03 8.72853916e+00
v 6.43725000e+03 5.27411455e+03 8.59542548e+00
v 6.43725000e+03 5.27344071e+03 9.38262853e+00
v 6.43725000e+03 5.27253607e+03 9.04172953e+00
v 6.43725000e+03 5.27395496e+03 7.37609948e+00
v 6.43725000e+03 5.27304826e+03 6.65503628e+00
v 6.43725000e+03 5.27005919e+03 7.75626281e+00
v 6.43725000e+03 5.25000000e+03 4.70840964e+00
v 6.46900000e+03 5.25770449e+03 7.58890781e+00
v 6.46900000e+03 5.25783326e+03 7.59296665e+00
v 6.46900000e+03 5.26201280e+03 1.30833693e+01
v 6.46900000e+03 5.26197269e+03 1.33737969e+01
v 6.46900000e+03 5.25700442e+03 7.58686335e+00
v 6.46900000e+03 5.25753158e+03 7.59130272e+00
v 6.46900000e+03 5.26060996e+03 2.38093785e+01
v 6.46900000e+03 5.26118857e+03 1.93047104e+01
v 6.46900000e+03 5.26022014e+03 2.70840756e+01
v 6.46900000e+03 5.26005014e+03 2.87114802e+01
v 6.46900000e+03 5.26613752e+03 2.84069824e+01
v 6.46900000e+03 5.26231755e+03 2.85571245e+01
v 6.46900000e+03 5.26645625e+03 2.83980838e+01
v 6.46900000e+03 5.26103417e+03 2.86664318e+01
v 6.46900000e+03 5.26121961e+03 1.90779725e+01
v 6.46900000e+03 5.26120207e+03 1.91899963e+01
v 6.46900000e+03 5.26209466e+03 1.04627464e+01
v 6.46900000e+03 5.26264456e+03 8.84760468e+00
v 6.46900000e+03 5.25803160e+03 7.59878172e+00
v 6.46900000e+03 5.26121169e+03 7.66363039e+00
v 6.46900000e+03 5.26137189e+03 7.65257832e+00
v 6.46900000e+03 5.26152730e+03 7.65693422e+00
v 6.46900000e+03 5.26248901e+03 8.00885582e+00
v 6.46900000e+03 5.25000000e+03 7.65649068e+00
v 6.46900000e+03 5.26253994e+03 8.26836567e+00
v 6.46900000e+03 5.27378715e+03 2.78564714e+01
v 6.46900000e+03 5.27328332e+03 2.79420344e+01
v 6.46900000e+03 5.28030910e+03 2.69809542e+01
v 6.46900000e+03 5.28040232e+03 2.69680676e+01
v 6.46900000e+03 5.26706726e+03 2.83557519e+01
v 6.46900000e+03 5.27244191e+03 2.80627750e+01
v 6.46900000e+03 5.27180491e+03 2.78998969e+01
v 6.46900000e+03 5.27196261e+03 2.80264032e+01
v 6.46900000e+03 5.27062828e+03 2.80145744e+01
v 6.46900000e+03 5.28026248e+03 2.69738833e+01
v 6.46900000e+03 5.28003436e+03 2.69562839e+01
v 6.46900000e+03 5.28051869e+03 2.69496821e+01
v 6.46900000e+03 5.27932136e+03 2.68657872e+01
v 6.46900000e+03 5.27406769e+03 2.78338893e+01
v 6.46900000e+03 5.27466751e+03 2.75586790e+01
v 6.46900000e+03 5.27877301e+03 2.69760126e+01
v 6.46900000e+03 5.27901567e+03 2.69118569e+01
v 6.45113766e+03 5.28150000e+03 3.51577980e+00
v 6.44876081e+03 5.28150000e+03 3.42981587e+00
v 6.45483777e+03 5.28150000e+03 4.55147026e+00
v 6.45489506e+03 5.28150000e+03 5.80157641e+00
v 6.45518105e+03 5.28150000e+03 7.62132174e+00
v 6.45518016e+03 5.28150000e+03 7.77581170e+00
v 6.44653831e+03 5.28150000e+03 3.80078540e+00
v 6.44593186e+03 5.28150000e+03 3.68205655e+00
v 6.43901548e+03 5.28150000e+03 3.59860001e+00
v 6.44856830e+03 5.28150000e+03 3.45623880e+00
v 6.44867299e+03 5.28150000e+03 3.44006142e+00
v 6.44189320e+03 5.28150000e+03 3.48286001e+00
v 6.44507449e+03 5.28150000e+03 3.48656744e+00
v 6.44357293e+03 5.28150000e+03 3.53210466e+00
v 6.45148925e+03 5.28150000e+03 3.68942248e+00
v 6.45414833e+03 5.28150000e+03 4.07780574e+00
v 6.45348943e+03 5.28150000e+03 2.36646345e+01
v 6.45352029e+03 5.28150000e+03 2.53218039e+01
v 6.45353619e+03 5.28150000e+03 2.18371133e+01
v 6.45339426e+03 5.28150000e+03 2.11613601e+01
v 6.45311337e+03 5.28150000e+03 2.69036798e+01
v 6.45351270e+03 5.28150000e+03 2.56978585e+01
v 6.45397527e+03 5.28150000e+03 1.52047163e+01
v 6.45368101e+03 5.28150000e+03 1.62556087e+01
v 6.45308631e+03 5.28150000e+03 1.87554708e+01
v 6.45295532e+03 5.28150000e+03 1.85162046e+01
v 6.45344103e+03 5.28150000e+03 1.74693507e+01
v 6.45477770e+03 5.28150000e+03 9.64946098e+00
v 6.45461229e+03 5.28150000e+03 1.04827247e+01
v 6.45474007e+03 5.28150000e+03 6.84745426e+00
v 6.45520029e+03 5.28150000e+03 7.86732196e+00
v 6.45360097e+03 5.28150000e+03 2.02146580e+01
v 6.45359717e+03 5.28150000e+03 2.01937464e+01
v 6.45345926e+03 5.28150000e+03 2.28616693e+01
v 6.46341981e+03 5.28150000e+03 2.77792913e+01
v 6.46406371e+03 5.28150000e+03 2.78649203e+01
v 6.46156219e+03 5.28150000e+03 2.80724117e+01
v 6.46287444e+03 5.28150000e+03 2.78651343e+01
v 6.45738031e+03 5.28150000e+03 2.85668898e+01
v 6.45784459e+03 5.28150000e+03 2.85246285e+01
v 6.45451498e+03 5.28150000e+03 2.87836544e+01
v 6.45162487e+03 5.28150000e+03 2.88662167e+01
v 6.46024222e+03 5.28150000e+03 2.82701176e+01
v 6.46054943e+03 5.28150000e+03 2.82210512e+01
v 6.46039167e+03 5.28150000e+03 2.82496765e+01
v 6.46797151e+03 5.28150000e+03 2.70176332e+01
v 6.45248438e+03 5.28150000e+03 3.89448034e+00
v 6.45259814e+03 5.28150000e+03 2.75875118e+01
v 6.45409838e+03 5.28150000e+03 1.41762550e+01
v 6.45316794e+03 5.28150000e+03 1.78131883e+01
v 6.45430810e+03 5.28150000e+03 1.30524510e+01
v 6.45425437e+03 5.28150000e+03 1.22389636e+01
v 6.45339525e+03 5.28150000e+03 2.07690693e+01
v 6.43775783e+03 5.28150000e+03 3.65622820e+00
v 6.43725000e+03 5.28150000e+03 3.67949786e+00
v 6.46789735e+03 5.28150000e+03 2.70337128e+01
v 6.46900000e+03 5.28150000e+03 2.68253217e+01
vt 0.023864478 0.55659759
vt 0.022984844 0.54505396
vt 0.05368311 0.54606521
vt 0.041402057 0.5636102
vt 0.0029874071 0.56617463
vt 0.022878125 0.53011894
vt 0.065924279 0.57657367
vt 0.0029898493 0.56944144
vt 0.0029871219 0.56202459
vt 0.10200879 0.50473988
vt 0.0029719069 0.51274681
vt 0.10426386 0.57066846
vt 0.060417641 0.59203732
vt 0.014241223 0.58339769
vt 0.029139485 0.5047639
vt 0.0029709493 0.5098114
vt 0.0029915655 0.57705843
vt 0.15184723 0.6159395
vt 0.11745595 0.60532296
vt 0.0030061018 0.6199019
vt 0.0029889543 0.5838083
vt 0.24591109 0.59029913
vt 0.0029695071 0.5047729
vt 0.11022003 0.627747
vt 0.0030040599 0.61432701
vt 0.034327839 0.63878763
vt 0.20829923 0.5046972
vt 0.15608445 0.65160179
vt 0.11954164 0.61995447
vt 0.079936974 0.63176274
vt 0.0030069053 0.62238604
vt 0.27358827 0.50467265
vt 0.25116378 0.68192452
vt 0.13042095 0.62990904
vt 0.084826201 0.65360892
vt 0.0030069258 0.62476349
vt 0.057384036 0.64469886
vt 0.34607771 0.56458116
vt 0.35748395 0.65251362
vt 0.12897937 0.70563495
vt 0.14286295 0.63210607
vt 0.073475935 0.66182292
vt 0.31927437 0.50465631
vt 0.3124018 0.69518328
vt 0.11326248 0.73319566
vt 0.11993649 0.66271734
vt 0.13804166 0.64325237
vt 0.15170057 0.63036096
vt 0.042139195 0.66484094
vt 0.34848267 0.53500432
vt 0.36558908 0.59246111
vt 0.35696262 0.68517029
vt 0.22401649 0.77477533
vt 0.19048581 0.79556566
vt 0.10467522 0.65811759
vt 0.053989295 0.67233026
vt 0.35253388 0.50464535
vt 0.38301745 0.64135969
vt 0.38906887 0.65323442
vt 0.31407425 0.73347819
vt 0.25980127 0.76717633
vt 0.099444687 0.85972613
vt 0.075751901 0.70960259
vt 0.05180335 0.70075512
vt 0.38732076 0.61258352
vt 0.40624633 0.65650475
vt 0.29599291 0.73215294
vt 0.4236505 0.66475612
vt 0.23890561 0.77399302
vt 0.21342884 0.79824615
vt 0.057406738 0.81478393
vt 0.15337956 0.8278842
vt 0.068826325 0.72264212
vt 0.04424813 0.69075406
vt 0.388181 0.75106466
vt 0.22985148 0.78486437
vt 0.24303761 0.79186821
vt 0.18958355 0.81948984
vt 0.065295614 0.84323257
vt 0.016624652 0.76506543
vt 0.15878856 0.8404699
vt 0.030632088 0.72292066
vt 0.44277534 0.69631416
vt 0.36744103 0.84917611
vt 0.050202884 0.83363008
vt 0.0030758739 0.8049221
vt 0.18934821 0.83787709
vt 0.11462038 0.90904349
vt 0.030145697 0.6899063
vt 0.25864828 0.83097243
vt 0.45156875 0.68733394
vt 0.4702903 0.74122596
vt 0.4113988 0.80377716
vt 0.026935169 0.84924996
vt 0.0030642238 0.77802819
vt 0.071194209 0.93401778
vt 0.0030573932 0.76165974
vt 0.012611965 0.70473385
vt 0.46280044 0.7129643
vt 0.32529637 0.88766181
vt 0.0030584009 0.76496935
vt 0.003082498 0.82484096
vt 0.075168885 0.88117778
vt 0.09047734 0.93352944
vt 0.16652949 0.92206442
vt 0.0030441394 0.73000371
vt 0.0030300785 0.70047152
vt 0.014368081 0.68635118
vt 0.22831371 0.90198058
vt 0.47305545 0.69637048
vt 0.491936 0.70979989
vt 0.27968001 0.92857963
vt 0.055190448 0.89401495
vt 0.077796772 0.85204369
vt 0.11616618 0.95636284
vt 0.11573939 0.97845501
vt 0.0030333558 0.70365
vt 0.45443267 0.67199683
vt 0.066293903 0.87739575
vt 0.0031031389 0.87951815
vt 0.068930842 0.86429346
vt 0.075693265 0.99695098
vt 0.20378852 0.94273508
vt 0.13782337 0.97285932
vt 0.0030277772 0.69041038
vt 0.47122833 0.67932516
vt 0.047381796 0.86443073
vt 0.0031031824 0.87967628
vt 0.0031030606 0.87933123
vt 0.1019386 0.99694198
vt 0.030727502 0.9969644
vt 0.17176837 0.93635964
vt 0.11721572 0.97078174
vt 0.24483164 0.95589852
vt 0.0031224415 0.9382813
vt 0.12540108 0.99693483
vt 0.15952101 0.96577179
vt 0.21686152 0.97795278
vt 0.032746341 0.85724229
vt 0.072892614 0.85975021
vt 0.13879517 0.99692845
vt 0.011075947 0.99697018
vt 0.17660733 0.97843772
vt 0.18150519 0.99539852
vt 0.0031029815 0.87920827
vt 0.064046666 0.85901755
vt 0.003140853 0.9969725
vt 0.14826964 0.99692416
vt 0.21878545 0.98302341
vt 0.22013807 0.99690378
vt 0.003102934 0.87905347
vt 0.17999232 0.99691743
vt 0.18300058 0.99691671
vt 0.22562957 0.9969002
vt 0.0030882575 0.84333313
vt 0.18162824 0.99691707
vt 0.24995589 0.97994858
vt 0.24117613 0.99689305
vt 0.22698498 0.97461289
vt 0.26717338 0.99688274
vt 0.23453522 0.97158813
vt 0.23696171 0.96719778
vt 0.22726265 0.96956444
vt 0.76300824 0.61652827
vt 0.84873641 0.62141192
vt 0.77662206 0.68536794
vt 0.69594824 0.68684125
vt 0.86103249 0.696639
vt 0.69989878 0.61272562
vt 0.69350296 0.76967359
vt 0.82022005 0.7695232
vt 0.89157641 0.672822
vt 0.6428287 0.61039752
vt 0.62464577 0.67909837
vt 0.90316617 0.74882996
vt 0.88599646 0.62712526
vt 0.89644486 0.68327677
vt 0.75031012 0.82927907
vt 0.56901354 0.7592079
vt 0.90359288 0.75332713
vt 0.90229815 0.7080369
vt 0.89755976 0.67416644
vt 0.58156067 0.6066339
vt 0.81142777 0.84849989
vt 0.6679185 0.84209687
vt 0.53761822 0.83786982
vt 0.56229329 0.68981099
vt 0.91160393 0.84168029
vt 0.89810246 0.67008185
vt 0.84128451 0.92111713
vt 0.67819303 0.91928828
vt 0.51760942 0.7979508
vt 0.50821924 0.69429481
vt 0.52440304 0.62351024
vt 0.91179055 0.84341335
vt 0.91193414 0.84519148
vt 0.58057481 0.91853666
vt 0.51866275 0.80875015
vt 0.50418776 0.76278973
vt 0.50436342 0.63613939
vt 0.53744125 0.60375476
vt 0.78026706 0.99283582
vt 0.91808903 0.91497755
vt 0.69147366 0.99609494
vt 0.50837123 0.88595843
vt 0.51378047 0.80856133
vt 0.50562894 0.8371321
vt 0.50375986 0.67660725
vt 0.86114901 0.99239945
vt 0.71888918 0.98642164
vt 0.92223543 0.96573246
vt 0.55765569 0.99446636
vt 0.50606805 0.92788565
vt 0.90618742 0.99177688
vt 0.92404336 0.99097395
vt 0.50970608 0.9726758
vt 0.50416493 0.99283922
vt 0.42754981 0.3057971
vt 0.38917848 0.31954902
vt 0.41495669 0.2815581
vt 0.43274429 0.28126919
vt 0.40062666 0.33645731
vt 0.3800883 0.29264206
vt 0.44124082 0.29210389
vt 0.4275237 0.24401629
vt 0.44052708 0.32637525
vt 0.39758521 0.35556787
vt 0.38440046 0.32160532
vt 0.37975949 0.29027218
vt 0.38875237 0.24427772
vt 0.42662939 0.3579039
vt 0.38630363 0.33447886
vt 0.37954345 0.29412127
vt 0.38478714 0.27789235
vt 0.4455905 0.33643854
vt 0.38299969 0.26169652
vt 0.41564757 0.23407292
vt 0.39042115 0.36160523
vt 0.40418077 0.37885278
vt 0.38363498 0.24216527
vt 0.45282853 0.36663896
vt 0.38981968 0.37432665
vt 0.4391447 0.39533585
vt 0.39150664 0.23428875
vt 0.40081024 0.4053914
vt 0.39223376 0.39169836
vt 0.45405474 0.39316303
vt 0.42863727 0.41611302
vt 0.45199072 0.40748906
vt 0.41454023 0.42760783
vt 0.39365661 0.40764534
vt 0.46140286 0.41922528
vt 0.43035167 0.43985516
vt 0.39703569 0.42382008
vt 0.4564859 0.44217956
vt 0.39979702 0.44257241
vt 0.46654582 0.43510318
vt 0.43775901 0.45777822
vt 0.40292326 0.44773847
vt 0.46715602 0.45670938
vt 0.46937305 0.42442924
vt 0.45739466 0.47101754
vt 0.4267284 0.48130906
vt 0.40536404 0.45854765
vt 0.41110078 0.46164876
vt 0.47186083 0.4799192
vt 0.40895224 0.49517298
vt 0.40387076 0.46237141
vt 0.45200896 0.50660658
vt 0.39830962 0.48546028
vt 0.41345945 0.50642169
vt 0.47281775 0.49808425
vt 0.43942517 0.53146309
vt 0.39801168 0.48548865
vt 0.41517863 0.53176033
vt 0.39805487 0.48515987
vt 0.47617993 0.51727641
vt 0.46522772 0.53832209
vt 0.40037131 0.49398577
vt 0.4874348 0.51306063
vt 0.45692977 0.54741895
vt 0.41929775 0.55976784
vt 0.4845812 0.54792207
vt 0.49400461 0.55528951
vt 0.45967501 0.56314635
vt 0.4065167 0.53440535
vt 0.48363996 0.56373394
vt 0.40461716 0.56863356
vt 0.43331417 0.57133013
vt 0.49304971 0.58236217
vt 0.39933988 0.5391978
vt 0.47369054 0.59021103
vt 0.42245081 0.59610718
vt 0.39901286 0.5650568
vt 0.50060976 0.60080385
vt 0.40368757 0.58942974
vt 0.39910534 0.57091445
vt 0.44765723 0.62127626
vt 0.40958631 0.59972399
vt 0.42072877 0.61896634
vt 0.50512803 0.62089491
vt 0.255613 0.24765909
vt 0.22446968 0.26020849
vt 0.28420928 0.20567632
vt 0.32895124 0.25651664
vt 0.22371411 0.31671703
vt 0.32895294 0.26149702
vt 0.32893017 0.19682765
vt 0.15648298 0.31749505
vt 0.27877653 0.35282475
vt 0.31659567 0.17436713
vt 0.20022155 0.42655826
vt 0.32895651 0.27104455
vt 0.32892242 0.17677367
vt 0.10854283 0.44622165
vt 0.19218931 0.49660283
vt 0.32897848 0.3266893
vt 0.32891691 0.16139758
vt 0.14746827 0.49661428
vt 0.096770011 0.36612326
vt 0.19452474 0.4966023
vt 0.15472327 0.49661237
vt 0.32898575 0.34507543
vt 0.10269476 0.49662656
vt 0.048563711 0.39797205
vt 0.19699016 0.49660176
vt 0.30615762 0.37967092
vt 0.03999244 0.47596645
vt 0.27344602 0.42603379
vt 0.3289851 0.34753817
vt 0.057535406 0.49664032
vt 0.0047823414 0.42945081
vt 0.21281628 0.49659818
vt 0.32898709 0.35502702
vt 0.32305408 0.45817816
vt 0.23385388 0.49167585
vt 0.31898925 0.3743124
vt 0.32900417 0.38980746
vt 0.32903922 0.47723538
vt 0.26994103 0.44369441
vt 0.23332275 0.49659365
vt 0.32899275 0.36817545
vt 0.32899797 0.38043231
vt 0.32903168 0.45396233
vt 0.32903826 0.47367126
vt 0.32903939 0.47796392
vt 0.24165337 0.48836827
vt 0.24184521 0.49659175
vt 0.32899627 0.37604868
vt 0.32903364 0.45775455
vt 0.3290357 0.46253145
vt 0.32903999 0.47942054
vt 0.25190514 0.49658763
vt 0.31181583 0.49657673
vt 0.31297478 0.49657655
vt 0.3290408 0.48123896
vt 0.3290472 0.49657333
vt 0.96122622 0.74525505
vt 0.95117921 0.73498458
vt 0.96290261 0.74084002
vt 0.95276505 0.78333288
vt 0.97462392 0.78916717
vt 0.94220918 0.73589885
vt 0.97293824 0.71773446
vt 0.96798569 0.81524259
vt 0.9608292 0.7394073
vt 0.95321053 0.82485837
vt 0.97401309 0.80924767
vt 0.96031082 0.73274392
vt 0.95926088 0.8540771
vt 0.98330516 0.87511247
vt 0.96278101 0.72215188
vt 0.95469576 0.72836578
vt 0.98033106 0.88014746
vt 0.9611575 0.72125912
vt 0.95858485 0.87842709
vt 0.98085678 0.91727972
vt 0.96172112 0.90464282
vt 0.97301704 0.91088378
vt 0.98800433 0.94760895
vt 0.976915 0.92001396
vt 0.98455036 0.95089418
vt 0.98925042 0.99535394
vt 0.9668594 0.93978387
vt 0.97157639 0.97842854
vt 0.96929288 0.96227896
vt 0.31060943 0.93978387
vt 0.3145619 0.91941929
vt 0.32460681 0.91727972
vt 0.58130115 0.40556157
vt 0.60487521 0.4277823
vt 0.59598345 0.43087423
vt 0.61382377 0.40379602
vt 0.62734884 0.45841908
vt 0.6058228 0.34804779
vt 0.62668836 0.41750544
vt 0.59478772 0.44894993
vt 0.56608474 0.35805023
vt 0.63247401 0.35582322
vt 0.63595527 0.43684095
vt 0.62681639 0.48382509
vt 0.5438841 0.36483657
vt 0.60217577 0.29561287
vt 0.61956006 0.31009334
vt 0.64084107 0.29560119
vt 0.65193927 0.41767979
vt 0.65129244 0.47350144
vt 0.6336605 0.4862743
vt 0.50757939 0.29564369
vt 0.50451636 0.3233695
vt 0.61538935 0.29560965
vt 0.65531695 0.40504223
vt 0.65532202 0.42109191
vt 0.65070224 0.49533081
vt 0.65528071 0.29559708
vt 0.65531957 0.413279
vt 0.65533733 0.47078031
vt 0.65532106 0.41799277
vt 0.655339 0.47571182
vt 0.65532047 0.41598082
vt 0.65533829 0.47328347
vt 0.65533984 0.49073482
vt 0.34760815 0.91903806
vt 0.33886662 0.89876592
vt 0.34911609 0.88719916
vt 0.37900171 0.91009325
vt 0.33396682 0.91760391
vt 0.31562603 0.90438861
vt 0.36494535 0.87729633
vt 0.36268148 0.92885649
vt 0.3274937 0.91183388
vt 0.38406909 0.89048374
vt 0.39692616 0.91215456
vt 0.38714617 0.90084642
vt 0.37634367 0.87138122
vt 0.40578574 0.91725212
vt 0.44798502 0.90783417
vt 0.3919439 0.93452018
vt 0.4329161 0.91697741
vt 0.42353338 0.89823329
vt 0.44590068 0.92566228
vt 0.45715252 0.89564985
vt 0.46691677 0.90372956
vt 0.44073188 0.88111472
vt 0.50147319 0.91468048
vt 0.47462723 0.88175654
vt 0.41245452 0.88751698
vt 0.49906775 0.89493066
vt 0.4832198 0.83006787
vt 0.46849 0.81878376
vt 0.49105233 0.81097329
vt 0.49675688 0.83865511
vt 0.4449605 0.81596929
vt 0.46893328 0.80044377
vt 0.48170513 0.85237849
vt 0.44309339 0.82685447
vt 0.45205748 0.80730206
vt 0.46254134 0.79331207
vt 0.46593684 0.85041273
vt 0.49595147 0.85274148
vt 0.48385265 0.78849292
vt 0.47895148 0.86232328
vt 0.44522446 0.84986794
vt 0.45043278 0.79043239
vt 0.46841028 0.77561456
vt 0.50359017 0.78182513
vt 0.46386141 0.87179637
vt 0.44188029 0.7779054
vt 0.45517805 0.76138747
vt 0.85866702 0.56517875
vt 0.8825404 0.57232422
vt 0.8669638 0.58751506
vt 0.84969872 0.61119044
vt 0.89132982 0.54803634
vt 0.89049286 0.60652953
vt 0.85979152 0.61848795
vt 0.83479691 0.58518034
vt 0.86572117 0.53384489
vt 0.83190107 0.55733883
vt 0.84615445 0.54414093
vt 0.8834638 0.52371514
vt 0.87508267 0.6207509
vt 0.81954408 0.58096099
vt 0.85254049 0.53013861
vt 0.89852417 0.52855176
vt 0.81583077 0.5775708
vt 0.85129511 0.52056062
vt 0.92138505 0.52395803
vt 0.81849778 0.56365168
vt 0.50922 0.50450659
vt 0.51214468 0.47540361
vt 0.53656501 0.4737758
vt 0.53978151 0.50438261
vt 0.53029102 0.46045715
vt 0.54096353 0.48295242
vt 0.5215885 0.51233089
vt 0.53640807 0.46108294
vt 0.5414077 0.48429227
vt 0.5300492 0.53046346
vt 0.50358969 0.52248907
vt 0.54018193 0.46940643
vt 0.53104144 0.4573943
vt 0.54183233 0.48467678
vt 0.54747599 0.52296686
vt 0.54907882 0.49817961
vt 0.5419029 0.55816066
vt 0.55087233 0.50675589
vt 0.50996208 0.53935981
vt 0.52716452 0.54097891
vt 0.56058109 0.54064047
vt 0.56185478 0.52316141
vt 0.56203181 0.50114584
vt 0.75158268 0.48069221
vt 0.75210464 0.50979483
vt 0.72151345 0.46801764
vt 0.7521404 0.46296501
vt 0.76947939 0.51117176
vt 0.73666829 0.5029034
vt 0.78271121 0.4927792
vt 0.75519776 0.53365642
vt 0.73840755 0.5342288
vt 0.71667236 0.50937945
vt 0.77868015 0.50722718
vt 0.77236694 0.54336965
vt 0.6945653 0.51127595
vt 0.77736384 0.51117754
vt 0.77422696 0.54153347
vt 0.7538023 0.55863404
vt 0.72072226 0.55387092
vt 0.71279579 0.47092462
vt 0.69070691 0.53232253
vt 0.77757573 0.51238054
vt 0.77488053 0.52352273
vt 0.86034018 0.43127429
vt 0.85153234 0.4326399
vt 0.83727676 0.41393173
vt 0.85875863 0.4596414
vt 0.83805525 0.43392104
vt 0.84533322 0.44867867
vt 0.8694706 0.44111991
vt 0.82473898 0.42477173
vt 0.83776826 0.48165756
vt 0.86364865 0.466268
vt 0.8350212 0.45560777
vt 0.82152295 0.41065097
vt 0.82285291 0.44884402
vt 0.85914016 0.47626334
vt 0.88099796 0.44629103
vt 0.81722432 0.42363584
vt 0.81703806 0.42728746
vt 0.8231284 0.46874106
vt 0.84718418 0.49587566
vt 0.88130379 0.46537811
vt 0.81751919 0.41436386
vt 0.81681234 0.43950176
vt 0.81656444 0.44440627
vt 0.95031023 0.46236902
vt 0.91095221 0.46874839
vt 0.92742139 0.42428106
vt 0.92632407 0.49615163
vt 0.90676212 0.42694992
vt 0.95485133 0.48284179
vt 0.87870133 0.47467536
vt 0.91878796 0.41464919
vt 0.93275923 0.41555357
vt 0.33425513 0.99081242
vt 0.32149059 0.96815896
vt 0.3409631 0.9632355
vt 0.36371163 0.97919339
vt 0.31668544 0.93600667
vt 0.35480455 0.99647409
vt 0.35463637 0.94887316
vt 0.37440777 0.96857071
vt 0.3501035 0.93241501
vt 0.36985523 0.93731791
vt 0.34004477 0.91673565
vt 0.39208964 0.94862008
vt 0.9469831 0.67803866
vt 0.96960783 0.68479323
vt 0.94314748 0.68794018
vt 0.93402624 0.67778862
vt 0.96426696 0.6790024
vt 0.93827492 0.70538592
vt 0.9228918 0.68990922
vt 0.98548263 0.69773674
vt 0.91105789 0.66893119
vt 0.912956 0.71515656
vt 0.93159795 0.71078408
vt 0.46539345 0.94320983
vt 0.45557967 0.93612021
vt 0.46315825 0.93483156
vt 0.46789396 0.93273222
vt 0.45568603 0.94469464
vt 0.45656478 0.92490983
vt 0.45196289 0.92692077
vt 0.45474812 0.94875437
vt 0.47681835 0.92247301
vt 0.44431037 0.92793161
vt 0.44829863 0.96034139
vt 0.44805062 0.99624735
vt 0.44070953 0.92691267
vt 0.91064322 0.63895369
vt 0.91062492 0.61652464
vt 0.93619788 0.62775642
vt 0.92367619 0.642003
vt 0.93329304 0.61017144
vt 0.95377964 0.64139855
vt 0.94675803 0.61299103
vt 0.95274776 0.62493265
vt 0.93284738 0.65265507
vt 0.9646666 0.62591672
vt 0.97780603 0.6130985
vt 0.5804708 0.55795693
vt 0.58470064 0.53442729
vt 0.61292881 0.551018
vt 0.5967198 0.56599796
vt 0.56548679 0.52688205
vt 0.61142033 0.56365216
vt 0.56550044 0.57579195
vt 0.56548512 0.53578269
vt 0.59977812 0.58938789
vt 0.56549841 0.57375181
vt 0.56550163 0.57760394
vt 0.56548452 0.5463264
vt 0.56548804 0.55926836
vt 0.94678915 0.97011435
vt 0.94193274 0.9488284
vt 0.9648456 0.9481262
vt 0.96825486 0.96145475
vt 0.94740868 0.98440808
vt 0.95014453 0.93998313
vt 0.96893489 0.98148137
vt 0.94835705 0.98509598
vt 0.96064204 0.99062794
vt 0.97284907 0.99534506
vt 0.39992878 0.8608982
vt 0.38598496 0.85721743
vt 0.37848064 0.83870471
vt 0.37835306 0.83493203
vt 0.39735347 0.86545384
vt 0.37926364 0.85260034
vt 0.41065902 0.84317046
vt 0.4091289 0.86524194
vt 0.4163008 0.85841227
vt 0.43410128 0.84797424
vt 0.42044929 0.87139499
vt 0.37342605 0.97978538
vt 0.38351199 0.99624145
vt 0.3629986 0.99343419
vt 0.36497954 0.98527139
vt 0.38837981 0.97539592
vt 0.3659507 0.9776153
vt 0.40133938 0.98911107
vt 0.39976898 0.97615081
vt 0.41622093 0.99382901
vt 0.41370559 0.97299725
vt 0.38782102 0.56536126
vt 0.39875576 0.57747138
vt 0.37688002 0.58997631
vt 0.36942244 0.57164776
vt 0.36380997 0.58613789
vt 0.3608261 0.55201936
vt 0.35783184 0.57847154
vt 0.34787205 0.55894697
vt 0.97431004 0.66415173
vt 0.97711748 0.6476782
vt 0.98924965 0.65800297
vt 0.97976816 0.67575109
vt 0.95303631 0.67251521
vt 0.94090849 0.65786284
vt 0.97405714 0.68275273
vt 0.46548527 0.95408493
vt 0.4662632 0.96956289
vt 0.45754829 0.96806812
vt 0.45799565 0.95814389
vt 0.47751307 0.96236861
vt 0.4639906 0.99215478
vt 0.45798758 0.95213151
vt 0.47878867 0.98750836
vt 0.45780808 0.9839946
vt 0.45772123 0.99620414
vt 0.95242447 0.82037944
vt 0.93828076 0.81136084
vt 0.95223713 0.81912225
vt 0.92248768 0.82492262
vt 0.94682175 0.80736268
vt 0.95243073 0.8209269
vt 0.91475761 0.83937824
vt 0.95079309 0.83954006
vt 0.91409844 0.82831568
vt 0.90936136 0.81771713
vt 0.28323305 0.95352328
vt 0.28320244 0.96480036
vt 0.27728927 0.995166
vt 0.017039966 0.68448669
vt 0.0043658288 0.68131137
vt 0.016158717 0.66646552
vt 0.028764362 0.67219782
vt 0.021048492 0.65087652
vt 0.044620939 0.68310231
vt 0.04108284 0.65767491
vt 0.042521037 0.67059445
vt 0.50001395 0.95165521
vt 0.50034922 0.96491009
vt 0.47883859 0.96522701
vt 0.47183305 0.95688176
vt 0.47477213 0.93696129
vt 0.48949686 0.92687142
vt 0.50385129 0.93096232
vt 0.25748059 0.99633294
vt 0.2796506 0.99378711
vt 0.29297873 0.99418247
vt 0.25358322 0.98088461
vt 0.28935409 0.98132128
vt 0.26766571 0.98864055
vt 0.31577906 0.96428061
vt 0.30306023 0.96219975
vt 0.30297041 0.94878513
vt 0.31235465 0.94557285
vt 0.28509396 0.93055665
vt 0.44471416 0.81559849
vt 0.44238752 0.83329344
vt 0.42561159 0.8406496
vt 0.4144806 0.83066785
vt 0.41486603 0.82965446
vt 0.41010979 0.8184635
vt 0.4135071 0.82899076
vt 0.41264218 0.81152862
vt 0.42638871 0.80527115
vt 0.43884629 0.8080278
vt 0.44193965 0.80863327
vt 0.44059336 0.96402717
vt 0.41283077 0.96429241
vt 0.44082439 0.93774742
vt 0.4102816 0.93586266
vt 0.28602356 0.9757266
vt 0.31688944 0.96417838
vt 0.28600398 0.97767776
vt 0.3035014 0.98067737
vt 0.92562336 0.97708589
vt 0.92492205 0.96441209
vt 0.94085032 0.96606565
vt 0.93914914 0.98106533
vt 0.93797576 0.95262098
vt 0.31280598 0.9819262
vt 0.30938298 0.9811272
vt 0.31980747 0.97312373
vt 0.30021712 0.99574691
vt 0.31229791 0.98759031
vt 0.2759268 0.96443158
vt 0.25316131 0.94877678
vt 0.27684629 0.94051558
vt 0.49074382 0.98864645
vt 0.48794127 0.97218102
vt 0.50303435 0.99532092
vt 0.28397721 0.99697876
vt 0.277574 0.98672163
vt 0.2975696 0.99328279
vt 0.32610306 0.98439455
vt 0.32529408 0.99576467
vt 0.31723166 0.98237604
vt 0.27835634 0.99567991
vt 0.2694886 0.99008405
vt 0.27568054 0.99060059
vt 0.31194192 0.99046439
vt 0.31504926 0.99372369
vt 0.30822158 0.99376321
vt 0.31294388 0.99706912
vt 0.0037719451 0.9926452
vt 0.0046375925 0.99493444
vt 0.0037669605 0.99503058
vt 0.0038958313 0.99648714
usemtl Tile_+032_+022_L19_000110_0
f 221/1 148/2 220/3
f 183/613 190/614 187/615
f 348/55 352/46 203/40
f 154/390 168/391 155/392
f 210/6 148/2 357/11
f 162/423 144/424 115/425
f 84/60 124/52 115/68
f 141/57 117/50 142/43
f 1/442 128/444 2/446
f 85/93 83/75 132/92
f 182/616 183/613 187/615
f 344/602 345/603 189/604
f 189/604 350/605 344/602
f 202/713 199/714 351/715
f 136/15 138/10 210/6
f 181/621 182/616 186/618
f 206/82 197/80 363/97
f 197/80 206/82 3/73
f 57/54 102/45 200/33
f 348/608 214/609 189/604
f 346/29 208/19 202/18
f 129/647 190/648 366/649
f 189/604 188/607 350/605
f 131/110 355/91 175/118
f 196/578 174/579 166/580
f 113/437 1/442 151/443
f 143/32 2/38 198/22
f 356/586 131/581 130/584
f 170/657 152/658 165/659
f 114/716 192/717 165/718
f 174/579 167/583 166/580
f 356/111 132/92 133/99
f 152/440 170/447 128/444
f 198/22 2/38 353/39
f 144/424 175/431 355/428
f 167/401 162/397 160/394
f 355/91 134/83 115/68
f 131/110 356/111 133/99
f 115/68 134/83 83/75
f 35/53 200/33 209/44
f 209/44 200/33 353/39
f 355/91 133/99 134/83
f 355/91 131/110 133/99
f 123/59 194/66 124/52
f 193/663 195/662 171/660
f 353/39 195/58 123/59
f 195/58 353/39 128/51
f 198/22 353/39 200/33
f 209/44 124/52 84/60
f 124/52 209/44 353/39
f 209/44 84/60 354/67
f 344/703 350/704 145/705
f 123/664 195/662 193/663
f 115/425 194/429 114/426
f 171/660 195/662 170/657
f 194/429 123/435 193/432
f 115/425 144/424 355/428
f 196/578 175/582 174/579
f 354/67 84/60 26/61
f 209/44 354/67 26/61
f 26/61 35/53 209/44
f 132/92 83/75 134/83
f 83/75 84/60 115/68
f 25/77 26/61 84/60
f 85/164 132/165 79/166
f 342/708 345/709 344/703
f 352/46 345/47 199/28
f 102/45 3/73 4/63
f 342/34 341/41 345/47
f 224/665 343/666 346/667
f 224/665 346/667 146/668
f 189/604 345/603 352/606
f 344/703 145/705 146/706
f 146/706 346/707 344/703
f 202/18 342/34 346/29
f 143/32 198/22 137/27
f 138/10 137/27 198/22
f 199/28 341/41 351/48
f 223/30 205/42 219/37
f 223/30 217/26 211/13
f 201/12 220/3 138/10
f 347/7 211/13 222/4
f 343/24 223/30 211/13
f 220/3 201/12 347/7
f 188/669 349/670 343/666
f 223/30 343/24 349/35
f 347/7 201/12 211/13
f 368/8 212/14 369/17
f 216/636 129/637 359/638
f 371/20 217/26 372/31
f 221/1 222/4 368/8
f 222/4 221/1 220/3
f 217/642 216/636 370/639
f 191/651 125/653 190/648
f 224/665 146/668 188/669
f 127/643 191/640 216/636
f 214/609 348/608 205/612
f 217/642 219/645 215/644
f 343/666 224/665 188/669
f 374/682 184/683 375/684
f 349/35 205/42 223/30
f 362/687 185/685 374/682
f 126/646 127/643 215/644
f 349/611 188/607 214/609
f 186/695 187/696 126/697
f 126/697 213/698 186/695
f 181/700 186/695 213/698
f 188/607 189/604 214/609
f 181/700 213/698 121/702
f 122/701 213/698 204/699
f 213/698 126/697 204/699
f 205/42 126/49 219/37
f 203/40 102/45 205/42
f 205/42 348/55 203/40
f 206/82 218/98 185/89
f 3/73 206/82 207/64
f 184/108 218/98 376/107
f 122/74 204/56 207/64
f 219/645 126/646 215/644
f 185/89 122/74 206/82
f 217/642 215/644 216/636
f 3/73 102/45 197/80
f 35/53 26/61 87/69
f 102/45 42/71 197/80
f 4/63 3/73 207/64
f 122/74 207/64 206/82
f 148/2 221/1 373/5
f 220/3 148/2 210/6
f 138/10 198/22 202/18
f 203/40 199/28 200/33
f 342/34 202/18 341/41
f 102/45 203/40 200/33
f 198/22 200/33 199/28
f 202/18 208/19 201/12
f 202/18 201/12 138/10
f 220/3 210/6 138/10
f 201/12 208/19 211/13
f 207/64 205/42 4/63
f 205/42 207/64 204/56
f 208/19 343/24 211/13
f 204/56 126/49 205/42
f 376/107 206/82 378/117
f 212/14 211/13 371/20
f 212/14 222/4 211/13
f 346/707 342/708 344/703
f 220/3 347/7 222/4
f 187/615 186/618 182/616
f 196/578 166/580 131/581
f 160/394 168/391 169/396
f 114/426 194/429 193/432
f 193/432 192/434 114/426
f 112/439 111/441 154/438
f 192/661 193/663 171/660
f 78/171 173/168 425/175
f 196/126 131/110 175/118
f 216/636 191/640 129/637
f 366/617 183/613 383/620
f 187/655 190/648 125/653
f 188/607 145/610 350/605
f 146/668 145/671 188/669
f 343/24 208/19 346/29
f 122/701 121/702 213/698
f 182/616 181/621 361/623
f 183/613 182/616 384/619
f 202/18 351/48 341/41
f 79/166 132/165 173/168
f 162/423 174/427 144/424
f 120/178 172/184 178/190
f 179/214 177/209 178/190
f 179/214 178/190 431/211
f 176/202 178/190 177/209
f 180/302 176/303 177/304
f 180/302 177/304 433/305
f 434/308 179/311 436/314
f 430/196 172/184 438/195
f 172/184 120/178 78/171
f 172/184 78/171 437/188
f 174/427 175/431 144/424
f 150/587 167/583 161/588
f 174/579 162/585 167/583
f 150/414 161/408 149/407
f 117/448 116/445 151/443
f 157/395 119/403 140/404
f 158/393 164/399 169/396
f 135/409 119/403 156/398
f 165/718 153/719 114/716
f 154/390 158/393 168/391
f 169/396 164/399 139/405
f 150/172 173/168 132/165
f 162/397 155/392 160/394
f 159/406 163/400 169/396
f 160/394 155/392 168/391
f 150/587 130/584 167/583
f 169/396 163/400 160/394
f 157/395 164/399 158/393
f 154/390 156/398 157/395
f 111/402 156/398 154/390
f 155/430 162/423 114/426
f 168/391 158/393 169/396
f 154/438 147/436 112/439
f 154/438 155/430 147/436
f 147/436 153/433 113/437
f 152/440 113/437 153/433
f 165/718 152/720 153/719
f 153/433 155/430 114/426
f 113/437 112/439 147/436
f 153/433 147/436 155/430
f 128/444 1/442 152/440
f 135/732 116/733 141/734
f 151/443 1/442 2/446
f 113/437 152/440 1/442
f 135/409 156/398 111/402
f 157/395 156/398 119/403
f 116/410 135/409 111/402
f 116/445 111/441 151/443
f 111/441 112/439 113/437
f 113/437 151/443 111/441
f 140/404 164/399 157/395
f 163/400 159/406 149/407
f 166/580 167/583 130/584
f 131/581 166/580 130/584
f 149/407 161/408 160/394
f 160/394 163/400 149/407
f 161/408 167/401 160/394
f 159/406 169/396 139/405
f 150/414 149/407 444/419
f 427/412 139/405 446/415
f 440/177 150/172 447/182
f 127/654 126/656 125/653
f 187/655 125/653 126/656
f 181/688 121/690 185/685
f 218/98 184/108 185/89
f 127/643 216/636 215/644
f 102/45 4/63 205/42
f 117/448 151/443 2/446
f 171/660 170/657 165/659
f 356/176 150/172 132/165
f 124/52 353/39 123/59
f 194/66 115/68 124/52
f 132/92 134/83 133/99
f 2/38 128/51 353/39
f 170/65 195/58 128/51
f 199/28 345/47 341/41
f 352/606 348/608 189/604
f 199/28 203/40 352/46
f 199/28 202/18 198/22
f 205/612 349/611 214/609
f 129/647 191/651 190/648
f 127/654 125/653 191/651
f 185/685 121/690 122/691
f 35/53 57/54 200/33
f 219/37 217/26 223/30
f 157/395 158/393 154/390
f 116/733 117/735 141/734
f 165/659 192/661 171/660
f 139/405 164/399 140/404
f 150/587 356/586 130/584
f 114/426 162/423 115/425
f 149/407 159/406 441/413
f 93/470 107/471 106/472
f 12/134 30/157 22/162
f 52/90 25/77 84/60
f 338/473 93/470 106/472
f 45/513 103/514 44/515
f 56/477 54/479 93/470
f 37/62 42/71 102/45
f 48/137 46/132 20/123
f 18/104 339/88 17/115
f 30/157 15/161 22/162
f 72/144 29/149 465/150
f 102/45 57/54 37/62
f 59/105 46/132 47/124
f 95/756 19/757 17/758
f 389/129 7/113 390/120
f 13/589 16/590 22/591
f 10/557 63/558 5/559
f 78/171 239/170 79/166
f 85/164 79/166 86/167
f 83/75 82/84 84/60
f 25/77 23/76 87/69
f 80/100 66/112 52/90
f 52/90 84/60 82/84
f 34/593 13/589 31/596
f 13/589 33/599 31/596
f 31/358 22/359 34/360
f 68/361 22/359 31/358
f 16/590 13/589 34/593
f 71/218 70/219 69/220
f 36/362 68/361 31/358
f 21/363 22/359 68/361
f 68/224 96/221 21/225
f 49/561 63/558 62/563
f 30/157 61/159 15/161
f 51/87 60/109 59/105
f 54/479 53/483 387/486
f 49/561 5/559 63/558
f 74/626 45/627 41/628
f 395/630 74/626 396/633
f 45/627 43/631 41/628
f 37/62 50/79 42/71
f 29/601 28/598 36/600
f 33/599 36/600 28/598
f 35/53 87/69 23/76
f 32/745 34/746 22/747
f 33/748 34/746 32/745
f 32/745 31/749 33/748
f 29/364 32/366 16/369
f 20/123 12/134 28/138
f 51/87 27/78 25/77
f 25/77 87/69 26/61
f 33/599 28/598 34/593
f 17/115 19/116 18/104
f 14/375 16/369 15/373
f 14/594 22/591 16/590
f 51/87 52/90 60/109
f 22/359 15/373 32/366
f 16/369 32/366 15/373
f 13/750 30/751 12/752
f 24/70 25/77 27/78
f 39/478 50/481 49/474
f 46/132 48/137 47/124
f 43/139 8/127 389/129
f 44/515 43/516 45/513
f 197/80 42/71 400/86
f 39/478 41/484 40/487
f 11/531 10/525 9/522
f 35/53 23/76 24/70
f 51/87 99/81 58/72
f 8/127 43/139 44/146
f 42/71 39/85 40/94
f 27/78 51/87 58/72
f 24/70 57/54 35/53
f 57/54 27/78 58/72
f 400/86 40/94 402/102
f 59/105 339/88 51/87
f 51/87 339/88 99/81
f 259/114 37/62 91/103
f 39/85 42/71 50/79
f 28/598 61/595 34/593
f 61/159 14/163 15/161
f 61/372 29/364 16/369
f 61/595 16/590 34/593
f 14/594 12/597 22/591
f 47/124 48/137 340/143
f 471/148 72/144 474/152
f 47/124 340/143 72/144
f 340/143 48/137 20/123
f 12/710 14/711 28/712
f 29/149 61/159 30/157
f 28/138 29/149 72/144
f 14/163 61/159 28/138
f 72/144 340/143 20/123
f 20/123 59/105 60/109
f 20/123 46/132 59/105
f 37/62 99/81 339/88
f 47/124 95/133 17/115
f 37/62 339/88 38/96
f 59/105 47/124 17/115
f 91/103 38/96 7/113
f 50/481 37/488 259/485
f 38/96 18/104 19/116
f 19/116 47/124 472/141
f 38/96 91/103 37/62
f 339/88 18/104 38/96
f 339/88 59/105 17/115
f 476/122 19/116 478/130
f 6/121 92/119 8/127
f 8/127 92/119 7/113
f 259/485 49/474 50/481
f 390/120 38/96 403/128
f 37/62 58/72 99/81
f 19/116 95/133 47/124
f 20/123 28/138 72/144
f 82/84 80/100 52/90
f 66/112 60/109 52/90
f 30/237 81/230 467/240
f 338/534 336/535 56/536
f 101/449 325/450 328/451
f 290/258 229/253 288/255
f 104/459 299/462 105/467
f 272/273 320/278 329/281
f 58/72 37/62 57/54
f 107/471 62/475 106/472
f 306/380 319/382 307/377
f 56/477 53/483 54/479
f 301/542 332/544 251/539
f 329/281 281/285 272/273
f 481/291 246/288 482/294
f 225/672 284/673 483/674
f 246/288 235/293 485/296
f 273/191 120/178 178/190
f 239/170 238/185 255/186
f 306/380 307/377 243/371
f 243/371 308/374 330/365
f 31/358 32/366 29/364
f 66/183 13/194 12/201
f 75/490 76/491 295/492
f 299/462 298/455 247/460
f 307/377 285/379 308/374
f 258/277 321/272 315/280
f 281/285 317/287 303/290
f 255/186 241/197 315/205
f 305/292 281/285 303/290
f 338/473 106/472 253/476
f 93/470 338/473 56/477
f 56/536 331/541 53/545
f 56/536 335/538 331/541
f 106/472 62/475 253/476
f 250/537 251/539 336/535
f 334/740 337/741 253/742
f 253/742 65/743 334/740
f 327/457 333/454 325/450
f 337/540 334/548 324/543
f 294/721 326/722 311/723
f 108/552 301/542 310/547
f 250/537 310/547 301/542
f 336/535 338/534 250/537
f 338/534 337/540 250/537
f 324/543 310/547 250/537
f 335/538 332/544 294/546
f 327/457 64/458 333/454
f 65/468 252/465 64/458
f 252/465 67/461 64/458
f 337/540 324/543 250/537
f 327/553 324/543 334/548
f 327/457 334/464 64/458
f 62/469 252/465 65/468
f 64/458 334/464 65/468
f 335/538 56/536 336/535
f 338/744 253/742 337/741
f 336/535 251/539 335/538
f 293/524 263/520 77/517
f 335/538 294/546 331/541
f 325/450 333/454 328/451
f 263/520 293/524 76/528
f 312/493 75/490 295/492
f 294/721 311/723 411/724
f 295/726 294/721 412/725
f 312/493 295/492 413/495
f 312/493 249/496 75/490
f 313/507 301/511 300/504
f 296/529 9/522 94/521
f 293/494 295/492 76/491
f 73/368 330/365 36/362
f 68/361 36/362 330/365
f 89/235 244/226 68/224
f 330/365 73/368 243/371
f 88/370 89/367 330/365
f 100/566 328/567 98/568
f 97/572 248/570 90/574
f 297/569 98/568 97/572
f 97/572 296/575 75/573
f 326/512 313/507 311/505
f 301/542 326/551 332/544
f 332/544 335/538 251/539
f 309/499 312/493 300/504
f 310/456 324/453 101/449
f 313/507 326/512 301/511
f 326/551 294/546 332/544
f 64/458 67/461 328/451
f 328/451 67/461 248/466
f 324/453 327/457 325/450
f 328/451 333/454 64/458
f 324/453 325/450 101/449
f 296/575 90/574 11/576
f 257/269 228/263 322/266
f 286/376 88/370 308/374
f 285/692 314/693 306/694
f 323/260 288/255 264/257
f 307/762 264/763 314/764
f 242/213 241/197 240/212
f 281/285 329/281 320/278
f 322/266 318/262 323/260
f 320/278 272/273 257/269
f 322/266 321/272 257/269
f 323/387 264/388 307/389
f 232/249 286/247 289/252
f 228/263 290/258 318/262
f 288/255 323/260 318/262
f 226/289 305/292 235/293
f 308/374 243/371 307/377
f 280/328 240/325 278/315
f 226/289 281/285 305/292
f 308/374 88/370 330/365
f 308/374 285/379 289/378
f 286/376 308/374 289/378
f 288/255 289/252 264/257
f 285/261 264/257 289/252
f 255/186 306/207 314/206
f 306/207 255/186 315/205
f 323/384 319/382 322/386
f 320/278 317/287 281/285
f 316/283 317/287 320/278
f 316/283 242/284 317/287
f 319/382 306/380 315/383
f 285/379 307/377 314/381
f 322/386 319/382 321/385
f 242/284 303/290 317/287
f 242/284 316/283 258/277
f 243/199 285/192 306/207
f 319/382 323/384 307/377
f 321/385 319/382 315/383
f 280/298 305/292 302/295
f 303/290 302/295 305/292
f 315/280 242/284 258/277
f 302/295 304/301 280/298
f 302/295 303/290 242/284
f 240/212 304/217 302/216
f 100/452 247/460 298/455
f 100/566 98/568 297/569
f 100/452 101/449 328/451
f 309/499 297/500 249/496
f 309/499 299/509 247/508
f 309/499 249/496 312/493
f 311/505 313/507 312/493
f 411/503 312/493 414/498
f 300/504 312/493 313/507
f 108/463 310/456 104/459
f 104/459 101/449 298/455
f 104/459 310/456 101/449
f 108/510 300/504 301/511
f 101/449 100/452 298/455
f 104/459 105/467 108/463
f 309/499 300/504 105/506
f 105/506 299/509 309/499
f 300/504 108/510 105/506
f 76/528 94/521 263/520
f 73/193 33/200 260/187
f 36/208 33/200 73/193
f 296/529 94/521 76/528
f 10/557 11/562 248/560
f 295/492 293/494 415/497
f 294/721 295/726 417/728
f 409/550 294/546 410/555
f 248/560 63/558 10/557
f 248/466 252/465 62/469
f 62/475 107/471 49/474
f 416/527 77/517 419/533
f 262/518 103/514 94/521
f 236/245 231/243 230/248
f 236/245 287/239 231/243
f 225/267 237/270 245/265
f 488/254 254/250 491/256
f 110/231 292/227 109/222
f 69/220 291/223 469/229
f 70/219 109/222 292/227
f 109/222 70/219 71/218
f 70/219 291/223 69/220
f 256/179 243/199 73/193
f 71/218 69/220 96/221
f 68/224 71/218 96/221
f 244/226 71/218 68/224
f 244/226 89/235 110/231
f 110/231 109/222 244/226
f 256/179 260/187 261/174
f 261/174 260/187 66/183
f 66/183 80/173 261/174
f 239/170 86/167 79/166
f 82/169 85/164 86/167
f 261/174 80/173 86/167
f 78/171 120/178 239/170
f 230/248 254/250 236/245
f 232/249 289/252 288/255
f 230/248 229/253 254/250
f 228/263 245/265 229/253
f 230/248 232/249 288/255
f 232/249 230/248 231/243
f 110/231 88/241 231/243
f 255/186 256/179 239/170
f 228/263 318/262 322/266
f 228/263 283/271 225/267
f 255/186 238/185 241/197
f 273/191 238/185 120/178
f 257/269 272/273 228/263
f 282/275 283/271 228/263
f 284/673 225/672 283/676
f 238/185 273/191 241/197
f 273/191 233/204 241/197
f 178/190 176/202 273/191
f 246/288 271/286 227/282
f 271/677 284/673 282/679
f 282/679 284/673 283/676
f 483/674 271/677 498/680
f 275/347 276/340 450/346
f 499/348 275/347 500/353
f 270/306 269/310 279/312
f 233/204 234/210 176/202
f 278/315 233/309 279/312
f 503/319 279/312 504/322
f 233/309 277/320 240/325
f 277/320 233/309 278/315
f 278/315 240/325 277/320
f 226/289 227/282 281/285
f 280/328 278/315 505/324
f 233/309 270/306 279/312
f 274/336 276/340 275/347
f 269/310 268/329 508/326
f 269/310 270/306 180/302
f 270/306 233/309 176/303
f 176/303 180/302 270/306
f 269/310 180/302 435/307
f 453/334 266/327 455/330
f 454/323 269/310 456/317
f 450/346 268/329 457/339
f 457/339 267/335 458/345
f 268/329 269/310 266/327
f 507/316 269/310 509/321
f 276/340 274/336 268/329
f 268/329 274/336 501/333
f 234/210 233/204 273/191
f 273/191 176/202 234/210
f 240/212 241/197 233/204
f 272/273 281/285 227/282
f 500/353 451/352 520/354
f 266/327 265/337 461/343
f 266/327 267/335 268/329
f 267/335 266/327 462/338
f 22/591 21/592 13/589
f 21/753 30/754 13/755
f 285/192 255/186 264/198
f 255/186 314/206 264/198
f 55/480 41/484 39/478
f 173/168 78/171 79/166
f 10/525 5/530 44/515
f 44/515 9/522 10/525
f 5/559 49/561 259/564
f 6/121 8/127 5/140
f 91/103 92/119 6/121
f 74/626 54/632 392/634
f 9/522 296/529 11/531
f 39/478 93/470 55/480
f 49/474 107/471 93/470
f 468/236 69/220 494/234
f 81/230 21/225 69/220
f 239/170 256/179 261/174
f 85/93 82/84 83/75
f 80/173 82/169 86/167
f 248/570 11/576 90/574
f 29/364 36/362 31/358
f 77/517 103/514 45/513
f 103/514 262/518 44/515
f 55/629 54/632 74/626
f 54/479 55/480 93/470
f 94/521 103/514 263/520
f 77/517 263/520 103/514
f 262/518 9/522 44/515
f 41/628 55/629 74/626
f 77/517 45/513 395/519
f 93/470 39/478 49/474
f 33/200 13/194 260/187
f 5/559 259/564 6/565
f 81/230 30/237 21/225
f 57/54 24/70 27/78
f 40/759 41/760 43/761
f 44/146 5/140 8/127
f 24/70 23/76 25/77
f 25/77 52/90 51/87
f 66/112 12/134 20/123
f 40/94 43/139 397/145
f 479/154 30/157 511/158
f 259/114 91/103 6/121
f 92/119 91/103 7/113
f 20/123 60/109 66/112
f 235/293 280/298 506/300
f 280/298 235/293 305/292
f 257/269 258/277 320/278
f 97/572 75/573 297/569
f 73/193 260/187 256/179
f 255/186 285/192 256/179
f 53/545 331/541 408/549
f 62/475 65/482 253/476
f 248/466 67/461 252/465
f 256/179 285/192 243/199
f 251/539 250/537 301/542
f 75/573 296/575 76/577
f 330/365 89/367 68/361
f 97/572 98/568 248/570
f 97/572 90/574 296/575
f 297/569 247/571 100/566
f 328/567 248/570 98/568
f 318/262 290/258 288/255
f 257/269 321/272 258/277
f 320/278 258/277 316/283
f 235/293 246/288 226/289
f 229/253 245/265 490/264
f 280/328 304/332 240/325
f 242/213 315/205 241/197
f 302/216 242/213 240/212
f 247/508 297/500 309/499
f 297/500 75/490 249/496
f 104/459 298/455 299/462
f 86/167 239/170 261/174
f 62/563 63/558 248/560
f 9/522 262/518 94/521
f 89/235 88/241 110/231
f 491/256 229/253 514/259
f 287/239 236/245 513/246
f 292/227 287/239 515/242
f 231/243 286/247 232/249
f 493/232 292/227 516/238
f 21/225 96/221 69/220
f 260/187 13/194 66/183
f 88/241 286/247 231/243
f 231/243 287/239 110/231
f 244/226 109/222 71/218
f 120/178 238/185 239/170
f 229/253 290/258 228/263
f 287/239 292/227 110/231
f 245/265 228/263 225/267
f 272/273 282/275 228/263
f 271/286 282/275 227/282
f 282/275 272/273 227/282
f 489/268 237/270 497/276
f 496/274 225/267 517/279
f 246/288 227/282 226/289
f 291/223 70/219 492/228
f 288/255 229/253 230/248
f 142/43 2/38 143/32
f 117/50 2/38 142/43
f 139/405 140/404 118/411
f 140/404 119/403 118/411
f 136/15 210/6 358/16
f 357/11 148/2 381/9
f 358/16 210/6 357/11
f 359/638 129/637 360/641
f 360/652 129/647 367/650
f 361/689 181/688 362/687
f 362/687 181/688 185/685
f 363/97 197/80 365/101
f 364/106 206/82 363/97
f 365/101 197/80 401/95
f 366/617 190/614 183/613
f 367/650 129/647 366/649
f 368/8 222/4 212/14
f 369/17 212/14 379/21
f 370/639 216/636 359/638
f 371/20 211/13 217/26
f 372/31 217/26 370/36
f 373/5 221/1 368/8
f 374/682 185/685 184/683
f 375/684 184/683 377/686
f 376/107 218/98 206/82
f 377/125 184/108 376/107
f 378/117 206/82 364/106
f 379/21 212/14 380/25
f 380/25 212/14 371/20
f 381/9 148/2 373/5
f 382/624 183/613 386/625
f 383/620 183/613 382/624
f 384/619 182/616 361/623
f 385/622 183/613 384/619
f 386/625 183/613 385/622
f 387/765 53/766 388/767
f 388/767 53/766 421/768
f 389/129 8/127 7/113
f 390/120 7/113 38/96
f 391/489 54/479 387/486
f 392/634 54/632 391/635
f 393/526 77/517 420/523
f 394/532 77/517 393/526
f 395/630 45/627 74/626
f 396/633 74/626 392/634
f 397/145 43/139 389/129
f 398/155 40/94 399/151
f 399/151 40/94 397/145
f 400/86 42/71 40/94
f 401/95 197/80 400/86
f 402/736 40/737 405/738
f 403/128 38/96 404/135
f 404/135 38/96 473/131
f 405/738 40/737 398/739
f 406/730 294/721 418/729
f 407/731 294/721 406/730
f 408/549 331/541 409/550
f 409/550 331/541 294/546
f 410/555 294/546 407/556
f 411/503 311/505 312/493
f 412/725 294/721 411/724
f 413/727 295/726 412/725
f 414/498 312/493 413/495
f 415/497 293/494 416/502
f 416/527 293/524 77/517
f 417/501 295/492 415/497
f 418/729 294/721 417/728
f 419/533 77/517 394/532
f 420/523 77/517 395/519
f 421/554 53/545 408/549
f 422/23 136/15 358/16
f 423/420 159/406 428/416
f 424/418 159/406 423/420
f 425/175 173/168 439/181
f 426/180 78/171 425/175
f 427/412 159/406 139/405
f 428/416 159/406 427/412
f 429/203 178/190 430/196
f 430/196 178/190 172/184
f 431/211 178/190 429/203
f 432/215 179/214 431/211
f 433/305 177/304 434/308
f 434/308 177/304 179/311
f 435/307 180/302 433/305
f 436/314 179/311 432/318
f 437/188 78/171 426/180
f 438/195 172/184 437/188
f 439/181 173/168 440/177
f 440/177 173/168 150/172
f 441/413 159/406 424/418
f 442/417 149/407 441/413
f 443/421 149/407 442/417
f 444/419 149/407 443/421
f 445/422 150/414 444/419
f 447/182 150/172 445/189
f 448/349 265/337 449/342
f 449/342 265/337 453/334
f 450/346 276/340 268/329
f 451/352 275/347 450/346
f 452/313 269/310 435/307
f 453/334 265/337 266/327
f 454/323 266/327 269/310
f 455/330 266/327 454/323
f 456/317 269/310 452/313
f 457/339 268/329 267/335
f 458/345 267/335 460/351
f 451/352 459/356 510/355
f 460/351 267/335 464/350
f 461/343 265/337 448/349
f 462/338 266/327 461/343
f 463/344 267/335 462/338
f 464/350 267/335 463/344
f 465/150 29/149 479/154
f 466/153 72/144 465/150
f 467/240 81/230 468/236
f 468/236 81/230 69/220
f 469/769 291/770 470/771
f 470/771 291/770 495/772
f 471/148 47/124 72/144
f 472/141 47/124 471/148
f 473/131 38/96 476/122
f 474/152 72/144 475/156
f 475/156 72/144 466/153
f 476/122 38/96 19/116
f 477/136 19/116 472/141
f 478/130 19/116 477/136
f 479/154 29/149 30/157
f 480/244 30/237 467/240
f 481/291 271/286 246/288
f 482/294 246/288 486/297
f 483/674 284/673 271/677
f 484/675 225/672 483/674
f 485/296 235/293 512/299
f 486/297 246/288 485/296
f 487/251 236/245 488/254
f 488/254 236/245 254/250
f 489/268 245/265 237/270
f 490/264 245/265 489/268
f 491/256 254/250 229/253
f 492/228 70/219 493/232
f 493/232 70/219 292/227
f 494/234 69/220 469/229
f 495/233 291/223 492/228
f 496/274 237/270 225/267
f 497/276 237/270 496/274
f 498/680 271/677 481/681
f 499/348 274/336 275/347
f 500/353 275/347 451/352
f 501/333 274/336 502/341
f 502/341 274/336 499/348
f 503/319 278/315 279/312
f 504/322 279/312 507/316
f 505/324 278/315 503/319
f 506/331 280/328 505/324
f 507/316 279/312 269/310
f 508/326 268/329 501/333
f 509/321 269/310 508/326
f 510/355 459/356 521/357
f 511/158 30/157 480/160
f 512/299 235/293 506/300
f 513/246 236/245 487/251
f 514/259 229/253 490/264
f 515/242 287/239 513/246
f 516/238 292/227 515/242
f 517/678 225/672 484/675
f 518/142 404/135 473/131
f 519/147 404/135 518/142
f 520/354 451/352 510/355
usemtl Tile_+032_+022_L19_000110_untextured
