mtllib Tile_+032_+022_L19_000113.mtl
v 6.47142765e+03 5.30992007e+03 3.11478203e+00
v 6.47518786e+03 5.30991131e+03 2.96838599e+00
v 6.49311069e+03 5.31081134e+03 2.91974549e+00
v 6.49560980e+03 5.31127992e+03 2.97695601e+00
v 6.49487033e+03 5.31104075e+03 3.21320174e+00
v 6.48662056e+03 5.31152596e+03 3.10804584e+00
v 6.49707138e+03 5.31123422e+03 2.92095839e+00
v 6.47981301e+03 5.31001170e+03 3.06237303e+00
v 6.47274929e+03 5.31060519e+03 2.97507772e+00
v 6.49580806e+03 5.30949152e+03 3.02444926e+00
v 6.48973742e+03 5.30904324e+03 3.07492689e+00
v 6.48393632e+03 5.31090765e+03 3.00550506e+00
v 6.47306464e+03 5.29433297e+03 6.83447435e+00
v 6.47014440e+03 5.29745899e+03 6.42015071e+00
v 6.49288818e+03 5.29276720e+03 7.06705212e+00
v 6.49438679e+03 5.29384099e+03 7.04276655e+00
v 6.48970838e+03 5.29629229e+03 5.85900945e+00
v 6.49067383e+03 5.29536121e+03 3.62071447e+00
v 6.49113143e+03 5.29764881e+03 5.54393195e+00
v 6.48471243e+03 5.29473674e+03 2.92352700e+00
v 6.48122429e+03 5.29322455e+03 3.39630980e+00
v 6.46915953e+03 5.29745022e+03 5.65069160e+00
v 6.48068947e+03 5.28821042e+03 3.09839910e+00
v 6.48515219e+03 5.29028897e+03 2.92020565e+00
v 6.49168248e+03 5.29832579e+03 6.58617583e+00
v 6.48959115e+03 5.29881701e+03 8.64629035e+00
v 6.49326552e+03 5.29814312e+03 7.20064913e+00
v 6.49466661e+03 5.29796675e+03 8.27072952e+00
v 6.48916540e+03 5.29715375e+03 6.78404713e+00
v 6.48861919e+03 5.29859275e+03 9.41113659e+00
v 6.48965154e+03 5.29857999e+03 9.52751034e+00
v 6.49018329e+03 5.29933291e+03 9.63564517e+00
v 6.49171473e+03 5.29906230e+03 8.79054138e+00
v 6.49178049e+03 5.28794769e+03 1.11442065e+01
v 6.49331828e+03 5.28757676e+03 1.20642996e+01
v 6.49416980e+03 5.29276767e+03 9.05622005e+00
v 6.46878586e+03 5.30184007e+03 1.05523155e+01
v 6.47157770e+03 5.29792315e+03 1.04475236e+01
v 6.49338274e+03 5.29241664e+03 8.96462701e+00
v 6.49211805e+03 5.29285944e+03 8.61266289e+00
v 6.49354042e+03 5.29365330e+03 5.26640483e+00
v 6.49437570e+03 5.29441702e+03 8.97833668e+00
v 6.49313222e+03 5.28848754e+03 9.74168809e+00
v 6.49456160e+03 5.28843980e+03 9.04208854e+00
v 6.48845483e+03 5.29405735e+03 7.46891885e+00
v 6.48934774e+03 5.29380714e+03 8.93341119e+00
v 6.46850595e+03 5.29935234e+03 7.87196182e+00
v 6.46962352e+03 5.29920865e+03 8.37429046e+00
v 6.47244026e+03 5.29654826e+03 1.69138466e+01
v 6.47062029e+03 5.29945060e+03 1.26723235e+01
v 6.47728915e+03 5.30013629e+03 3.23085285e+00
v 6.47014479e+03 5.29760554e+03 3.02324254e+00
v 6.46993675e+03 5.29714019e+03 4.16108358e+00
v 6.46881589e+03 5.29797568e+03 3.45522049e+00
v 6.49435572e+03 5.29417995e+03 3.79848957e+00
v 6.49433071e+03 5.29494434e+03 4.62971331e+00
v 6.49552700e+03 5.29374613e+03 3.06740079e+00
v 6.49498528e+03 5.29507893e+03 3.45786514e+00
v 6.49171828e+03 5.29279409e+03 4.49829878e+00
v 6.49230743e+03 5.29265605e+03 3.42406686e+00
v 6.48985163e+03 5.29293924e+03 3.09053766e+00
v 6.49248944e+03 5.29207350e+03 3.03159962e+00
v 6.48955835e+03 5.29413573e+03 3.50366203e+00
v 6.48861115e+03 5.29558848e+03 3.42259857e+00
v 6.49086566e+03 5.29702055e+03 3.22920190e+00
v 6.48870124e+03 5.29671126e+03 3.16320644e+00
v 6.49049776e+03 5.29638579e+03 3.00565692e+00
v 6.48777200e+03 5.30198026e+03 3.49793615e+00
v 6.48822199e+03 5.29885170e+03 3.35589610e+00
v 6.49707884e+03 5.29443648e+03 2.88625981e+00
v 6.49428530e+03 5.28781557e+03 4.07121862e+00
v 6.49356547e+03 5.28822582e+03 4.76268496e+00
v 6.49035218e+03 5.29291779e+03 5.66394714e+00
v 6.48702474e+03 5.28623259e+03 3.40979478e+00
v 6.47706993e+03 5.28867762e+03 2.98535964e+00
v 6.49645914e+03 5.28969293e+03 3.87629765e+00
v 6.49525587e+03 5.28863611e+03 3.34686881e+00
v 6.48275999e+03 5.28863607e+03 3.03587291e+00
v 6.48768331e+03 5.29834016e+03 2.89958127e+00
v 6.47981157e+03 5.28595095e+03 8.61202526e+00
v 6.47593827e+03 5.29216364e+03 1.15983563e+01
v 6.48982162e+03 5.29324852e+03 7.65231944e+00
v 6.49271392e+03 5.29349354e+03 9.54808284e+00
v 6.48894052e+03 5.29725950e+03 7.72037966e+00
v 6.49042066e+03 5.29647879e+03 1.29343497e+01
v 6.49021552e+03 5.29463840e+03 1.29027284e+01
v 6.46986372e+03 5.30212828e+03 2.93208414e+00
v 6.49743049e+03 5.30794358e+03 2.95340395e+00
v 6.47898061e+03 5.30398911e+03 2.94146083e+00
v 6.49175459e+03 5.30196454e+03 3.19693318e+00
v 6.49138008e+03 5.29863650e+03 3.18322716e+00
v 6.48885576e+03 5.30117652e+03 3.05960322e+00
v 6.48877368e+03 5.29055568e+03 2.92673806e+00
v 6.48824999e+03 5.28842183e+03 2.96023170e+00
v 6.47205353e+03 5.30863688e+03 3.75290410e+00
v 6.47116107e+03 5.30845981e+03 3.54995603e+00
v 6.49324365e+03 5.29758255e+03 4.50698568e+00
v 6.49364325e+03 5.29753543e+03 3.83869123e+00
v 6.47752061e+03 5.28965157e+03 1.57836059e+01
v 6.47769041e+03 5.28692584e+03 3.30781269e+00
v 6.48035310e+03 5.28382070e+03 5.65060856e+00
v 6.49164863e+03 5.29243016e+03 6.10892068e+00
v 6.47533272e+03 5.29023687e+03 3.13342610e+00
v 6.48842908e+03 5.29576618e+03 7.33234347e+00
v 6.49909905e+03 5.29612037e+03 2.78648248e+00
v 6.50000000e+03 5.29236788e+03 2.81145822e+00
v 6.49293462e+03 5.29857161e+03 5.44465712e+00
v 6.49428378e+03 5.29629881e+03 4.47497922e+00
v 6.47357359e+03 5.30548323e+03 3.30560365e+00
v 6.47179927e+03 5.29515231e+03 3.09050330e+00
v 6.49290313e+03 5.29923015e+03 8.45855556e+00
v 6.49399484e+03 5.29818220e+03 8.39792895e+00
v 6.47383469e+03 5.29249280e+03 3.29591450e+00
v 6.49215208e+03 5.28834164e+03 5.28072604e+00
v 6.49140831e+03 5.28799383e+03 5.99271204e+00
v 6.49484558e+03 5.28801583e+03 5.39071925e+00
v 6.49569440e+03 5.28739302e+03 7.61945819e+00
v 6.49639094e+03 5.28762799e+03 6.64229789e+00
v 6.49485719e+03 5.29632872e+03 5.12756196e+00
v 6.49245705e+03 5.30677852e+03 3.00299792e+00
v 6.48982028e+03 5.28729545e+03 3.69848494e+00
v 6.48951114e+03 5.29438335e+03 5.56576174e+00
v 6.49001095e+03 5.29411432e+03 4.35656200e+00
v 6.49235422e+03 5.29769166e+03 4.36103993e+00
v 6.49090002e+03 5.29692524e+03 3.88372824e+00
v 6.49534124e+03 5.29562377e+03 5.11358410e+00
v 6.47321204e+03 5.29599668e+03 2.97557252e+00
v 6.49557952e+03 5.29517270e+03 6.01472498e+00
v 6.48800544e+03 5.29513314e+03 7.73770529e+00
v 6.49408291e+03 5.28847661e+03 3.39690241e+00
v 6.49007226e+03 5.29092379e+03 3.10957546e+00
v 6.48936472e+03 5.28949574e+03 3.52028749e+00
v 6.49058681e+03 5.28837200e+03 2.94700987e+00
v 6.49517965e+03 5.28707455e+03 3.11324830e+00
v 6.49167413e+03 5.28876885e+03 3.34247928e+00
v 6.48869033e+03 5.28667319e+03 3.67744829e+00
v 6.49208568e+03 5.28892692e+03 7.92159647e+00
v 6.49489251e+03 5.29550991e+03 5.01683101e+00
v 6.46855399e+03 5.29825374e+03 7.14046595e+00
v 6.48994988e+03 5.28508804e+03 3.35395228e+00
v 6.50000000e+03 5.28656783e+03 2.85658470e+00
v 6.49476587e+03 5.28371807e+03 9.07312999e+00
v 6.49442512e+03 5.28258882e+03 7.63811442e+00
v 6.49105608e+03 5.28261381e+03 4.03685808e+00
v 6.49092314e+03 5.28321533e+03 4.46092179e+00
v 6.49174250e+03 5.28242682e+03 7.83902854e+00
v 6.49074080e+03 5.28326828e+03 8.32217942e+00
v 6.49060153e+03 5.28249519e+03 6.73811978e+00
v 6.49352289e+03 5.28312182e+03 8.37677795e+00
v 6.49262222e+03 5.28184809e+03 7.04507897e+00
v 6.49595935e+03 5.28585647e+03 6.25170920e+00
v 6.49562474e+03 5.28674034e+03 5.64800698e+00
v 6.49778546e+03 5.28176163e+03 3.97986940e+00
v 6.49611243e+03 5.28312249e+03 4.05091248e+00
v 6.49498769e+03 5.28623031e+03 4.68842944e+00
v 6.49649052e+03 5.28704790e+03 7.00278712e+00
v 6.49680360e+03 5.28621974e+03 6.42263218e+00
v 6.49505533e+03 5.28435341e+03 6.36084988e+00
v 6.49585385e+03 5.28587127e+03 6.76751623e+00
v 6.49572433e+03 5.28611510e+03 1.06429970e+01
v 6.49420730e+03 5.28762009e+03 1.06140265e+01
v 6.49467718e+03 5.28407342e+03 3.40334629e+00
v 6.49470218e+03 5.28529827e+03 3.93808935e+00
v 6.49562384e+03 5.28484408e+03 3.56878471e+00
v 6.49658121e+03 5.28700885e+03 3.25958057e+00
v 6.49789741e+03 5.28432181e+03 2.97416861e+00
v 6.49753807e+03 5.28570493e+03 3.43381926e+00
v 6.49067144e+03 5.28378048e+03 4.60801885e+00
v 6.48997530e+03 5.28431217e+03 7.60023690e+00
v 6.49380832e+03 5.28488477e+03 4.19138520e+00
v 6.49516238e+03 5.28635157e+03 3.66043491e+00
v 6.49397049e+03 5.28252994e+03 3.32556453e+00
v 6.49350795e+03 5.28104237e+03 3.24034521e+00
v 6.49133824e+03 5.28309982e+03 4.19403657e+00
v 6.49171856e+03 5.28335523e+03 3.52218580e+00
v 6.49116432e+03 5.28241985e+03 3.24895053e+00
v 6.49021918e+03 5.28331733e+03 3.46727441e+00
v 6.49685087e+03 5.28367356e+03 4.05085645e+00
v 6.49139498e+03 5.28275986e+03 5.73177442e+00
v 6.49635155e+03 5.28185818e+03 3.86931904e+00
v 6.47935694e+03 5.28412044e+03 3.15313740e+00
v 6.49544688e+03 5.28155652e+03 4.02157796e+00
v 6.49902064e+03 5.28233675e+03 3.21713710e+00
v 6.49224417e+03 5.28106155e+03 3.16932524e+00
v 6.49785571e+03 5.28673679e+03 2.86066492e+00
v 6.48097293e+03 5.28154035e+03 2.90218230e+00
v 6.49416272e+03 5.28620103e+03 1.39970293e+01
v 6.49344735e+03 5.28484732e+03 1.25443512e+01
v 6.49258974e+03 5.28548174e+03 1.37855411e+01
v 6.49289049e+03 5.28433304e+03 9.75213012e+00
v 6.49408736e+03 5.28410477e+03 1.05673636e+01
v 6.49154422e+03 5.28347932e+03 4.25542202e+00
v 6.50000000e+03 5.30009168e+03 2.94659625e+00
v 6.48896549e+03 5.30485318e+03 7.50280173e+00
v 6.49037173e+03 5.30353377e+03 7.88167930e+00
v 6.48863007e+03 5.30633066e+03 8.51964861e+00
v 6.48832085e+03 5.30530995e+03 8.66556603e+00
v 6.48830607e+03 5.29633029e+03 9.98922759e+00
v 6.48856587e+03 5.29724824e+03 9.24943309e+00
v 6.49007999e+03 5.29768090e+03 1.12323649e+01
v 6.48984906e+03 5.29775107e+03 9.85561493e+00
v 6.49048845e+03 5.30642701e+03 1.05139784e+01
v 6.49075085e+03 5.30563696e+03 1.18289726e+01
v 6.49287068e+03 5.30604828e+03 8.86045723e+00
v 6.49226886e+03 5.30567657e+03 9.84979553e+00
v 6.49282458e+03 5.29361064e+03 1.05952825e+01
v 6.49182332e+03 5.29440963e+03 1.25585508e+01
v 6.49413950e+03 5.29786577e+03 1.02008823e+01
v 6.49283683e+03 5.29864743e+03 9.56759746e+00
v 6.49384219e+03 5.29437910e+03 1.10005624e+01
v 6.49412880e+03 5.29695581e+03 1.13348902e+01
v 6.49354674e+03 5.29570650e+03 1.09723119e+01
v 6.49038302e+03 5.29322112e+03 1.05736040e+01
v 6.48936802e+03 5.29464178e+03 1.05113134e+01
v 6.48923445e+03 5.29616171e+03 1.13635865e+01
v 6.48975692e+03 5.29665886e+03 1.25255567e+01
v 6.49071658e+03 5.29409419e+03 1.15583256e+01
v 6.48930042e+03 5.29533419e+03 1.19275062e+01
v 6.49080335e+03 5.29641161e+03 1.43647978e+01
v 6.49112612e+03 5.29563370e+03 1.51950734e+01
v 6.49001263e+03 5.30444597e+03 1.15139194e+01
v 6.48962621e+03 5.30563689e+03 1.19236094e+01
v 6.47229737e+03 5.30822699e+03 4.44169056e+00
v 6.47146858e+03 5.30826345e+03 4.73378441e+00
v 6.47132003e+03 5.28902183e+03 2.42402601e+01
v 6.48487587e+03 5.29912875e+03 2.98562818e+00
v 6.48670092e+03 5.29634711e+03 3.01186822e+00
v 6.48803084e+03 5.29359917e+03 3.12302910e+00
v 6.48188241e+03 5.29806554e+03 2.86336368e+00
v 6.48291463e+03 5.30641196e+03 3.12096606e+00
v 6.48741097e+03 5.30222895e+03 3.04410905e+00
v 6.49176213e+03 5.29844485e+03 1.08457940e+01
v 6.49532194e+03 5.29722510e+03 6.98704761e+00
v 6.49059640e+03 5.29867214e+03 1.10805912e+01
v 6.49007159e+03 5.29353055e+03 3.70088075e+00
v 6.49736879e+03 5.30383408e+03 2.94151497e+00
v 6.49755278e+03 5.29562064e+03 3.13815876e+00
v 6.49753000e+03 5.29752888e+03 2.91670009e+00
v 6.49792626e+03 5.29129218e+03 2.90667364e+00
v 6.49637738e+03 5.29215158e+03 2.93120581e+00
v 6.49581912e+03 5.29520768e+03 2.84558583e+00
v 6.48830688e+03 5.29764227e+03 3.56272938e+00
v 6.49378734e+03 5.29142090e+03 3.11892630e+00
v 6.49378945e+03 5.29313363e+03 2.95839424e+00
v 6.49246585e+03 5.29806782e+03 3.22433732e+00
v 6.49475790e+03 5.29016108e+03 3.89460182e+00
v 6.49297344e+03 5.29733546e+03 3.58119116e+00
v 6.47649858e+03 5.30545009e+03 3.17357485e+00
v 6.47721373e+03 5.30756012e+03 3.07222167e+00
v 6.47746263e+03 5.30890435e+03 3.58404149e+00
v 6.47952495e+03 5.30624051e+03 3.26117727e+00
v 6.48489619e+03 5.30964663e+03 3.44815249e+00
v 6.48708978e+03 5.30914614e+03 3.32826949e+00
v 6.47326173e+03 5.30843712e+03 3.52441572e+00
v 6.48583133e+03 5.30906112e+03 3.01966169e+00
v 6.48685896e+03 5.30654939e+03 3.03675350e+00
v 6.47487047e+03 5.30810607e+03 3.04160633e+00
v 6.47635444e+03 5.30830912e+03 3.41034216e+00
v 6.48590925e+03 5.30753595e+03 3.13908239e+00
v 6.48274225e+03 5.30903672e+03 3.34296667e+00
v 6.47937570e+03 5.30783935e+03 3.15752047e+00
v 6.49132177e+03 5.30464814e+03 3.00672170e+00
v 6.50000000e+03 5.30551827e+03 3.08175502e+00
v 6.49638017e+03 5.29740230e+03 3.38018193e+00
v 6.49654625e+03 5.29808805e+03 3.34405075e+00
v 6.49550558e+03 5.29545780e+03 4.58426766e+00
v 6.49484295e+03 5.29600642e+03 4.12702332e+00
v 6.49638075e+03 5.29561596e+03 4.26666350e+00
v 6.49510261e+03 5.29615394e+03 4.52651755e+00
v 6.49474091e+03 5.29784223e+03 4.17629637e+00
v 6.49647707e+03 5.29059364e+03 4.04988294e+00
v 6.49767575e+03 5.29084999e+03 3.90927016e+00
v 6.49637245e+03 5.29993707e+03 2.94478497e+00
v 6.49257594e+03 5.30063724e+03 3.09039843e+00
v 6.49057551e+03 5.30494298e+03 3.14090941e+00
v 6.48814663e+03 5.30587228e+03 3.14150117e+00
v 6.48707264e+03 5.30702166e+03 3.40471435e+00
v 6.49442158e+03 5.30731887e+03 2.90971443e+00
v 6.48981528e+03 5.30563751e+03 2.91813386e+00
v 6.48655915e+03 5.30744250e+03 4.40979891e+00
v 6.48605808e+03 5.30850795e+03 3.29794186e+00
v 6.47680734e+03 5.30892688e+03 4.50638570e+00
v 6.47647311e+03 5.30906797e+03 3.45622996e+00
v 6.47581637e+03 5.30881094e+03 3.93626966e+00
v 6.47862015e+03 5.30918250e+03 3.90154708e+00
v 6.47475288e+03 5.30860388e+03 3.69018602e+00
v 6.48441346e+03 5.30972905e+03 4.51652219e+00
v 6.48252112e+03 5.30963781e+03 4.02913005e+00
v 6.48100357e+03 5.30947592e+03 3.56793487e+00
v 6.48372999e+03 5.30989065e+03 3.49780299e+00
v 6.48020254e+03 5.30936244e+03 3.92105060e+00
v 6.49590333e+03 5.29685017e+03 4.19911108e+00
v 6.49720107e+03 5.29613098e+03 4.17906846e+00
v 6.49607714e+03 5.29956022e+03 4.07279957e+00
v 6.49586225e+03 5.30801988e+03 3.42295432e+00
v 6.48764472e+03 5.30836417e+03 4.33067705e+00
v 6.48636079e+03 5.30843307e+03 4.37604079e+00
v 6.48797436e+03 5.30721548e+03 3.46952969e+00
v 6.46915503e+03 5.30785037e+03 3.77306277e+00
v 6.47088423e+03 5.30789780e+03 3.58757761e+00
v 6.46992221e+03 5.30806527e+03 3.33868015e+00
v 6.47010318e+03 5.30804887e+03 4.71845940e+00
v 6.47254435e+03 5.30741757e+03 3.65956482e+00
v 6.47866474e+03 5.30867498e+03 3.28353172e+00
v 6.48735554e+03 5.30518052e+03 3.43834269e+00
v 6.48813710e+03 5.30842656e+03 3.06713905e+00
v 6.48382070e+03 5.30979366e+03 3.64369494e+00
v 6.48479107e+03 5.31015021e+03 3.47177601e+00
v 6.48355079e+03 5.30988904e+03 4.40667101e+00
v 6.48920408e+03 5.29127813e+03 3.54553624e+00
v 6.48916921e+03 5.29801246e+03 3.08512625e+00
v 6.49170932e+03 5.29784065e+03 3.69532829e+00
v 6.48881400e+03 5.29392759e+03 3.41156036e+00
v 6.48825530e+03 5.30571426e+03 7.77418540e+00
v 6.49394994e+03 5.30035733e+03 3.26373482e+00
v 6.49499813e+03 5.29999525e+03 3.06523569e+00
v 6.49396867e+03 5.29930320e+03 4.09442809e+00
v 6.48948900e+03 5.28857935e+03 3.19728391e+00
v 6.49353748e+03 5.28916639e+03 2.86939207e+00
v 6.49808685e+03 5.28973335e+03 2.99308213e+00
v 6.49764594e+03 5.28995715e+03 3.91267988e+00
v 6.49676404e+03 5.28916485e+03 2.97748354e+00
v 6.48934630e+03 5.29042974e+03 3.33189047e+00
v 6.49683137e+03 5.29698288e+03 4.23238137e+00
v 6.49155212e+03 5.28966109e+03 2.98093563e+00
v 6.49287219e+03 5.30530840e+03 7.97970950e+00
v 6.49271089e+03 5.30565844e+03 7.41097414e+00
v 6.49349021e+03 5.29817426e+03 5.95812314e+00
v 6.49370491e+03 5.28873419e+03 7.03045972e+00
v 6.49513439e+03 5.29562414e+03 8.04935254e+00
v 6.49529762e+03 5.29612470e+03 9.61235649e+00
v 6.49162795e+03 5.29757043e+03 1.19256459e+01
v 6.49271632e+03 5.30452059e+03 7.75376810e+00
v 6.49165172e+03 5.30738331e+03 8.13089196e+00
v 6.49214844e+03 5.30496364e+03 8.36447479e+00
v 6.48952046e+03 5.30324937e+03 8.51632852e+00
v 6.48992308e+03 5.30753662e+03 8.98093725e+00
v 6.49586762e+03 5.29873744e+03 4.31863563e+00
v 6.48890686e+03 5.30597610e+03 1.07138056e+01
v 6.49183189e+03 5.30383407e+03 8.88910631e+00
v 6.49157386e+03 5.30516985e+03 1.05613069e+01
v 6.49081323e+03 5.30447159e+03 1.04395794e+01
v 6.49053933e+03 5.30373911e+03 9.99808488e+00
v 6.49475970e+03 5.28896974e+03 7.34641161e+00
v 6.48836826e+03 5.29529782e+03 8.41741999e+00
v 6.48908080e+03 5.29631019e+03 8.22885719e+00
v 6.48851809e+03 5.29500058e+03 9.05497497e+00
v 6.49076261e+03 5.30320179e+03 8.91896135e+00
v 6.49054271e+03 5.28716645e+03 6.39022683e+00
v 6.48967154e+03 5.28775849e+03 8.40435811e+00
v 6.48882318e+03 5.29751392e+03 9.63006503e+00
v 6.49102138e+03 5.28331376e+03 4.07891310e+00
v 6.47899070e+03 5.28793566e+03 1.27945028e+01
v 6.49099053e+03 5.28803295e+03 9.72340541e+00
v 6.49073954e+03 5.28631914e+03 9.68278273e+00
v 6.49137498e+03 5.28439070e+03 9.59269487e+00
v 6.49048650e+03 5.28536392e+03 8.81051183e+00
v 6.49469167e+03 5.28730562e+03 1.24742285e+01
v 6.49086910e+03 5.28467990e+03 8.30621669e+00
v 6.49362007e+03 5.28395238e+03 1.09602047e+01
v 6.49346769e+03 5.28471550e+03 1.17782808e+01
v 6.49232876e+03 5.28468941e+03 1.25337468e+01
v 6.48086760e+03 5.28294233e+03 1.89738563e+01
v 6.48043843e+03 5.28541683e+03 1.50199705e+01
v 6.49265809e+03 5.28514835e+03 1.08962945e+01
v 6.49008441e+03 5.28671559e+03 4.30666130e+00
v 6.49016683e+03 5.28535847e+03 5.59109842e+00
v 6.49304877e+03 5.28359409e+03 5.22520689e+00
v 6.49364437e+03 5.28294753e+03 6.10314169e+00
v 6.49548847e+03 5.28487096e+03 9.06427581e+00
v 6.47249869e+03 5.28186922e+03 2.56380548e+01
v 6.47002417e+03 5.28546768e+03 2.61309967e+01
v 6.47201759e+03 5.28244744e+03 2.61377008e+01
v 6.47016360e+03 5.28622537e+03 2.55594015e+01
v 6.49518228e+03 5.28680734e+03 1.10708760e+01
v 6.49520149e+03 5.28516748e+03 1.12613536e+01
v 6.48997627e+03 5.28689760e+03 7.72682032e+00
v 6.48954849e+03 5.28518606e+03 8.27823678e+00
v 6.49147669e+03 5.28515433e+03 1.17965509e+01
v 6.49213886e+03 5.28696679e+03 1.28693194e+01
v 6.49087779e+03 5.28687455e+03 1.15822333e+01
v 6.49165853e+03 5.28536546e+03 1.27685027e+01
v 6.49108950e+03 5.28516490e+03 1.11436638e+01
v 6.49144348e+03 5.28483055e+03 1.02473589e+01
v 6.49094527e+03 5.28724800e+03 1.03254967e+01
v 6.49140126e+03 5.28411209e+03 8.54501678e+00
v 6.49380802e+03 5.28652687e+03 1.45865702e+01
v 6.49275298e+03 5.28736769e+03 1.28730880e+01
v 6.49226666e+03 5.28623268e+03 1.40635762e+01
v 6.49340257e+03 5.28675688e+03 1.45259093e+01
v 6.48167385e+03 5.28130410e+03 1.92097506e+01
v 6.48103437e+03 5.28314479e+03 2.06808495e+01
v 6.48003105e+03 5.28461570e+03 2.06120970e+01
v 6.48147511e+03 5.28345571e+03 2.04448643e+01
v 6.48038795e+03 5.28459929e+03 2.03908470e+01
v 6.47964704e+03 5.28231550e+03 2.11479618e+01
v 6.48003933e+03 5.28343346e+03 2.01777310e+01
v 6.47899497e+03 5.28456995e+03 2.03249048e+01
v 6.47464749e+03 5.28733633e+03 2.27773975e+01
v 6.47769062e+03 5.28705338e+03 2.05084679e+01
v 6.47953909e+03 5.28467580e+03 1.93471385e+01
v 6.47621071e+03 5.28702688e+03 2.05265926e+01
v 6.47787264e+03 5.28565702e+03 2.07987144e+01
v 6.47676967e+03 5.28898908e+03 1.90665021e+01
v 6.47526414e+03 5.28788424e+03 2.08235739e+01
v 6.48956745e+03 5.28556048e+03 7.62807084e+00
v 6.47581891e+03 5.28875480e+03 2.06580385e+01
v 6.49849577e+03 5.28239823e+03 4.04686276e+00
v 6.48958927e+03 5.28147510e+03 3.03547826e+00
v 6.49256788e+03 5.28259285e+03 3.06800755e+00
v 6.49508337e+03 5.28295465e+03 3.14290244e+00
v 6.48910872e+03 5.29717007e+03 1.11400148e+01
v 6.49285358e+03 5.29557160e+03 1.37501601e+01
v 6.49325859e+03 5.29516766e+03 1.19869328e+01
v 6.49365615e+03 5.29607645e+03 1.32892396e+01
v 6.49368678e+03 5.29723489e+03 1.25756872e+01
v 6.48838286e+03 5.29520725e+03 9.82273287e+00
v 6.48884247e+03 5.30382139e+03 8.82042437e+00
v 6.49182872e+03 5.30747236e+03 8.88666744e+00
v 6.49249343e+03 5.29628311e+03 1.46867501e+01
v 6.49116239e+03 5.29643655e+03 1.48864509e+01
v 6.49287929e+03 5.29734910e+03 1.29154443e+01
v 6.49346818e+03 5.29822109e+03 1.12216608e+01
v 6.48995858e+03 5.30679001e+03 1.02984544e+01
v 6.48952612e+03 5.30460856e+03 1.02293877e+01
v 6.48867555e+03 5.30510544e+03 9.52124762e+00
v 6.49128485e+03 5.30613099e+03 9.88666206e+00
v 6.49465373e+03 5.29714748e+03 1.05841225e+01
v 6.49362200e+03 5.29403027e+03 9.50874569e+00
v 6.49420097e+03 5.29506608e+03 1.02689079e+01
v 6.49333522e+03 5.29337071e+03 9.55321687e+00
v 6.49293732e+03 5.28762644e+03 1.08077336e+01
v 6.49147081e+03 5.29434610e+03 1.18709391e+01
v 6.49056322e+03 5.29347010e+03 9.06393689e+00
v 6.49183766e+03 5.28809290e+03 8.91305035e+00
v 6.49076262e+03 5.28864473e+03 8.17435587e+00
v 6.49181564e+03 5.29309967e+03 9.69173564e+00
v 6.49558140e+03 5.28799000e+03 1.00611914e+01
v 6.49200991e+03 5.29295429e+03 7.59181551e+00
v 6.49126124e+03 5.29251135e+03 7.86114344e+00
v 6.47443612e+03 5.29422807e+03 1.40173015e+01
v 6.46876730e+03 5.29755393e+03 2.15251411e+01
v 6.47067205e+03 5.29703994e+03 1.96471554e+01
v 6.47207909e+03 5.29200111e+03 2.23023630e+01
v 6.46850000e+03 5.28496114e+03 2.62187092e+01
v 6.46850000e+03 5.28860231e+03 2.55285120e+01
v 6.46850000e+03 5.28978620e+03 2.51717531e+01
v 6.46850000e+03 5.28456826e+03 2.65299752e+01
v 6.46850000e+03 5.29732599e+03 4.06264653e+00
v 6.46850000e+03 5.29728151e+03 4.10316567e+00
v 6.46850000e+03 5.30188829e+03 1.06677760e+01
v 6.46850000e+03 5.30179524e+03 1.02039705e+01
v 6.46850000e+03 5.29766556e+03 3.40189728e+00
v 6.46850000e+03 5.30974772e+03 3.12978192e+00
v 6.46850000e+03 5.30954956e+03 3.15403690e+00
v 6.46850000e+03 5.30472632e+03 3.12494369e+00
v 6.46850000e+03 5.30467873e+03 3.12051541e+00
v 6.46850000e+03 5.30495189e+03 3.17711486e+00
v 6.46850000e+03 5.29972649e+03 3.10242062e+00
v 6.46850000e+03 5.29880596e+03 3.35457513e+00
v 6.46850000e+03 5.30112094e+03 3.06733108e+00
v 6.46850000e+03 5.30450247e+03 3.10173321e+00
v 6.46850000e+03 5.30933090e+03 3.26900863e+00
v 6.46850000e+03 5.30741651e+03 3.43495820e+00
v 6.46850000e+03 5.30464146e+03 3.11355951e+00
v 6.46850000e+03 5.29765526e+03 2.16724864e+01
v 6.46850000e+03 5.29787732e+03 2.15227137e+01
v 6.46850000e+03 5.29568840e+03 2.28637705e+01
v 6.46850000e+03 5.29135539e+03 2.46843301e+01
v 6.46850000e+03 5.29374319e+03 2.38044086e+01
v 6.46850000e+03 5.30178603e+03 1.65416801e+01
v 6.46850000e+03 5.30188379e+03 1.63891333e+01
v 6.46850000e+03 5.29835393e+03 2.10701489e+01
v 6.46850000e+03 5.29998061e+03 1.94643293e+01
v 6.46850000e+03 5.30190682e+03 1.61788886e+01
v 6.46850000e+03 5.29935890e+03 7.87979233e+00
v 6.46850000e+03 5.29934660e+03 7.87288272e+00
v 6.46850000e+03 5.29823696e+03 7.17111951e+00
v 6.46850000e+03 5.29819588e+03 7.07003859e+00
v 6.46850000e+03 5.29728860e+03 4.14931757e+00
v 6.46850000e+03 5.30154741e+03 9.11769859e+00
v 6.46850000e+03 5.29940918e+03 7.86394770e+00
v 6.46850000e+03 5.30026258e+03 7.78268130e+00
v 6.46850000e+03 5.30215514e+03 1.30369032e+01
v 6.46850000e+03 5.30077198e+03 7.69930990e+00
v 6.46850000e+03 5.30216713e+03 1.24476548e+01
v 6.46850000e+03 5.30090741e+03 7.78425168e+00
v 6.46850000e+03 5.29735693e+03 5.75326505e+00
v 6.49717188e+03 5.28100000e+03 3.58484091e+00
v 6.49609659e+03 5.28100000e+03 4.45078615e+00
v 6.49806534e+03 5.28100000e+03 3.14770885e+00
v 6.49944662e+03 5.28100000e+03 3.13915194e+00
v 6.49344636e+03 5.28100000e+03 3.28706979e+00
v 6.49351017e+03 5.28100000e+03 3.26938338e+00
v 6.49227508e+03 5.28100000e+03 3.24184310e+00
v 6.48161148e+03 5.28100000e+03 2.91238477e+00
v 6.48138821e+03 5.28100000e+03 3.04298224e+00
v 6.49219743e+03 5.28100000e+03 3.16643849e+00
v 6.49804788e+03 5.28100000e+03 3.17308828e+00
v 6.49802005e+03 5.28100000e+03 3.19127066e+00
v 6.49606868e+03 5.28100000e+03 4.44900090e+00
v 6.49381690e+03 5.28100000e+03 3.47211738e+00
v 6.49427720e+03 5.28100000e+03 3.80676250e+00
v 6.49026876e+03 5.28100000e+03 3.06688802e+00
v 6.48963870e+03 5.28100000e+03 3.12897876e+00
v 6.48806948e+03 5.28100000e+03 3.27721782e+00
v 6.48891593e+03 5.28100000e+03 3.05702471e+00
v 6.49795113e+03 5.28100000e+03 3.18093849e+00
v 6.49441103e+03 5.28100000e+03 3.84748322e+00
v 6.49355852e+03 5.28100000e+03 3.24754132e+00
v 6.47891469e+03 5.28100000e+03 2.25265247e+01
v 6.47950071e+03 5.28100000e+03 2.20182460e+01
v 6.48309420e+03 5.28100000e+03 1.57945729e+01
v 6.48259017e+03 5.28100000e+03 1.71665973e+01
v 6.48323288e+03 5.28100000e+03 1.53334850e+01
v 6.48321794e+03 5.28100000e+03 1.50040770e+01
v 6.47829822e+03 5.28100000e+03 2.30894140e+01
v 6.47787636e+03 5.28100000e+03 2.33661723e+01
v 6.47420679e+03 5.28100000e+03 2.52173986e+01
v 6.47629068e+03 5.28100000e+03 2.43734835e+01
v 6.47352342e+03 5.28100000e+03 2.55265780e+01
v 6.48026602e+03 5.28100000e+03 2.13874929e+01
v 6.48170293e+03 5.28100000e+03 1.94211489e+01
v 6.48179050e+03 5.28100000e+03 1.93096289e+01
v 6.48186764e+03 5.28100000e+03 1.91757058e+01
v 6.46924347e+03 5.28100000e+03 2.68431596e+01
v 6.47052525e+03 5.28100000e+03 2.64026395e+01
v 6.46999238e+03 5.28100000e+03 2.67021421e+01
v 6.47130510e+03 5.28100000e+03 2.60569011e+01
v 6.47318092e+03 5.28100000e+03 2.56045252e+01
v 6.48228092e+03 5.28100000e+03 2.95772487e+00
v 6.48698530e+03 5.28100000e+03 3.26202269e+00
v 6.48235176e+03 5.28100000e+03 7.41892011e+00
v 6.48192930e+03 5.28100000e+03 4.73826475e+00
v 6.48171585e+03 5.28100000e+03 4.00987987e+00
v 6.48261770e+03 5.28100000e+03 8.59950559e+00
v 6.48299175e+03 5.28100000e+03 1.10136106e+01
v 6.50000000e+03 5.28100000e+03 2.99474904e+00
v 6.46904344e+03 5.28100000e+03 2.68805625e+01
v 6.46850000e+03 5.28100000e+03 2.69821767e+01
v 6.48374080e+03 5.31275000e+03 3.14554332e+00
v 6.48211398e+03 5.31275000e+03 3.11268459e+00
v 6.50000000e+03 5.31275000e+03 2.96903796e+00
v 6.49978094e+03 5.31275000e+03 2.96367443e+00
v 6.48059371e+03 5.31275000e+03 3.14576056e+00
v 6.49030821e+03 5.31275000e+03 3.02482499e+00
v 6.48777965e+03 5.31275000e+03 3.07300661e+00
v 6.47923351e+03 5.31275000e+03 3.11885257e+00
v 6.47288068e+03 5.31275000e+03 2.97387308e+00
v 6.47220399e+03 5.31275000e+03 2.97580448e+00
v 6.48659880e+03 5.31275000e+03 3.09625878e+00
v 6.49223674e+03 5.31275000e+03 2.94317920e+00
v 6.49570740e+03 5.31275000e+03 2.95038528e+00
v 6.49387234e+03 5.31275000e+03 2.90155005e+00
v 6.49686092e+03 5.31275000e+03 2.90563121e+00
v 6.48443308e+03 5.31275000e+03 3.06775593e+00
v 6.47175556e+03 5.31275000e+03 3.01775512e+00
v 6.46993477e+03 5.31275000e+03 3.08935442e+00
v 6.46850000e+03 5.31275000e+03 3.09574798e+00
vt 0.41976795 0.58420396
vt 0.41256881 0.56774563
vt 0.4269717 0.56064796
vt 0.44194514 0.59447104
vt 0.41217807 0.54861283
vt 0.46250054 0.55248219
vt 0.42004761 0.59550607
vt 0.40112907 0.52450037
vt 0.43459159 0.53374064
vt 0.44613266 0.54234731
vt 0.45688742 0.57409048
vt 0.4448159 0.62816048
vt 0.41852215 0.5311327
vt 0.37921643 0.52549314
vt 0.47182781 0.52241194
vt 0.49536625 0.58756685
vt 0.46186244 0.59021771
vt 0.42124391 0.61990273
vt 0.42418486 0.50927603
vt 0.39389524 0.50126028
vt 0.3659445 0.53740489
vt 0.43832359 0.51398635
vt 0.46072674 0.51246941
vt 0.48003817 0.5214572
vt 0.40291485 0.61741602
vt 0.44004428 0.6364041
vt 0.46548766 0.63703656
vt 0.40590817 0.50058854
vt 0.39871988 0.50059426
vt 0.37414956 0.50156701
vt 0.35728279 0.52279526
vt 0.46483245 0.5005759
vt 0.48668817 0.50056922
vt 0.39440203 0.62820202
vt 0.41346449 0.64372742
vt 0.43432879 0.50057268
vt 0.40799877 0.5005874
vt 0.39468515 0.50059789
vt 0.39293224 0.50059807
vt 0.46439737 0.5005759
vt 0.49533647 0.50056785
vt 0.4629873 0.66139501
vt 0.36527973 0.62199497
vt 0.44032699 0.6504758
vt 0.4338927 0.5005728
vt 0.4511402 0.50057614
vt 0.39392945 0.50059795
vt 0.33267036 0.50804359
vt 0.37463143 0.50060451
vt 0.46332064 0.50057632
vt 0.49539611 0.67819333
vt 0.39831474 0.66342503
vt 0.36338201 0.63594079
vt 0.45858902 0.64052618
vt 0.43879002 0.67483079
vt 0.34251711 0.53682083
vt 0.37341905 0.50060564
vt 0.34026408 0.65567648
vt 0.34829283 0.61580372
vt 0.45905924 0.65447676
vt 0.3089183 0.50062543
vt 0.34328464 0.50061643
vt 0.44976246 0.71052939
vt 0.3780393 0.67362946
vt 0.39835826 0.69018817
vt 0.32214665 0.5006234
vt 0.3186433 0.58926189
vt 0.33343914 0.50061899
vt 0.48133802 0.73683095
vt 0.42550939 0.69974864
vt 0.33682707 0.68716943
vt 0.32919669 0.63336265
vt 0.29197815 0.50063109
vt 0.33831945 0.5644908
vt 0.49543363 0.79887664
vt 0.45717096 0.72902691
vt 0.43008369 0.72258615
vt 0.37519383 0.68272865
vt 0.32669541 0.66121316
vt 0.40720189 0.70652544
vt 0.33113766 0.61904675
vt 0.32891575 0.64795846
vt 0.21847551 0.50065804
vt 0.33630162 0.59897888
vt 0.4543398 0.85736525
vt 0.45682713 0.75884557
vt 0.41704726 0.72057235
vt 0.32061532 0.70261437
vt 0.3199738 0.64993322
vt 0.19804153 0.50910819
vt 0.49545956 0.88366598
vt 0.33224589 0.70586193
vt 0.29261911 0.58238876
vt 0.20801605 0.50066191
vt 0.31178001 0.61659408
vt 0.45532459 0.92157596
vt 0.43875226 0.79647923
vt 0.31745416 0.72856677
vt 0.30838013 0.69748974
vt 0.19364385 0.6133278
vt 0.20452583 0.50066173
vt 0.44973058 0.97299439
vt 0.40830764 0.91183054
vt 0.37943348 0.8074373
vt 0.34694132 0.74101949
vt 0.25653782 0.71528316
vt 0.26338673 0.64578438
vt 0.22599865 0.61996877
vt 0.1728017 0.54942787
vt 0.42998102 0.94576997
vt 0.49549744 0.99666321
vt 0.37760791 0.90339649
vt 0.43081573 0.92277122
vt 0.3666054 0.82817942
vt 0.34968022 0.72500324
vt 0.31887037 0.74611259
vt 0.28761527 0.74043429
vt 0.14677447 0.59326911
vt 0.42689291 0.97371536
vt 0.4920747 0.99666435
vt 0.38784236 0.96640706
vt 0.37769884 0.7672891
vt 0.35269043 0.75093353
vt 0.25911307 0.78390706
vt 0.20202248 0.69166803
vt 0.13709211 0.62064731
vt 0.42842552 0.99668515
vt 0.41533473 0.9699797
vt 0.44644988 0.99667972
vt 0.35985821 0.87011486
vt 0.33512416 0.93879586
vt 0.40117669 0.78657544
vt 0.360737 0.77618068
vt 0.32619002 0.76644218
vt 0.30297649 0.77157193
vt 0.21233618 0.76731086
vt 0.1405725 0.7996859
vt 0.1099543 0.64501792
vt 0.34819797 0.87472427
vt 0.33632541 0.88558239
vt 0.34406212 0.99671173
vt 0.39608598 0.75895822
vt 0.32130864 0.81588262
vt 0.36587146 0.76373851
vt 0.31270859 0.76065755
vt 0.29873925 0.8323344
vt 0.16702454 0.85988069
vt 0.076849572 0.73502749
vt 0.39975327 0.99669492
vt 0.3741965 0.99670279
vt 0.28643537 0.97760397
vt 0.31025121 0.88925683
vt 0.38562208 0.75583971
vt 0.41323468 0.76374298
vt 0.31139073 0.77955747
vt 0.3043738 0.8284421
vt 0.22850388 0.89771616
vt 0.028931189 0.76018113
vt 0.08655706 0.68027276
vt 0.3045527 0.99672407
vt 0.31011614 0.9291684
vt 0.30756244 0.9102419
vt 0.41887373 0.73735797
vt 0.29788348 0.87844908
vt 0.29013595 0.89984429
vt 0.082542986 0.88325006
vt 0.17553754 0.89505291
vt 0.024563465 0.8308515
vt 0.054769285 0.7218402
vt 0.28610158 0.99672979
vt 0.29375234 0.94041455
vt 0.29347286 0.90721881
vt 0.41482022 0.73505831
vt 0.27530056 0.91526318
vt 0.12824742 0.88271886
vt 0.17321479 0.92003679
vt 0.0032411639 0.79332864
vt 0.25226247 0.99674106
vt 0.27409208 0.93909556
vt 0.40608072 0.73962617
vt 0.25947857 0.94824451
vt 0.0032653403 0.86795348
vt 0.10282312 0.92422819
vt 0.13943352 0.91568559
vt 0.22582126 0.93872672
vt 0.003248625 0.81511736
vt 0.0081640352 0.76596695
vt 0.24144465 0.9967438
vt 0.27762905 0.93044829
vt 0.0032659073 0.87012506
vt 0.066466719 0.91347587
vt 0.16210887 0.93309581
vt 0.19865397 0.94559574
vt 0.0032335981 0.7789427
vt 0.24449193 0.9679575
vt 0.24267244 0.95054537
vt 0.0032660156 0.87070727
vt 0.12600704 0.92738962
vt 0.077682622 0.9294042
vt 0.18613322 0.94382304
vt 0.14332351 0.93668276
vt 0.22236119 0.94811291
vt 0.0032272814 0.76112348
vt 0.21602596 0.99675238
vt 0.1175961 0.93522793
vt 0.0032662055 0.8714509
vt 0.1009808 0.93200052
vt 0.062602781 0.92611635
vt 0.1614075 0.94101965
vt 0.18005987 0.95397848
vt 0.04053057 0.92098856
vt 0.10779232 0.95243436
vt 0.19227132 0.99675971
vt 0.013509296 0.92025447
vt 0.12786445 0.9392457
vt 0.06969294 0.96328861
vt 0.0032667452 0.87497497
vt 0.049037155 0.9525888
vt 0.071756788 0.99680054
vt 0.17101844 0.99676687
vt 0.003276244 0.91348207
vt 0.061183438 0.996804
vt 0.058802843 0.93252921
vt 0.0032878453 0.94339621
vt 0.054176293 0.99680585
vt 0.044859536 0.92976898
vt 0.0032902777 0.946814
vt 0.02572546 0.99681431
vt 0.025502617 0.92361283
vt 0.0032915601 0.9499104
vt 0.0033071453 0.99682152
vt 0.066403188 0.22800815
vt 0.080982365 0.18859166
vt 0.12991166 0.19195801
vt 0.19212797 0.19008797
vt 0.035029914 0.18386036
vt 0.26168469 0.24929935
vt 0.024527758 0.18593866
vt 0.23327962 0.19327652
vt 0.095282972 0.27541769
vt 0.020782549 0.20124602
vt 0.28487331 0.19065481
vt 0.20573211 0.32395929
vt 0.013515611 0.25484616
vt 0.018342715 0.21275365
vt 0.32734001 0.20753616
vt 0.31692198 0.30730903
vt 0.12580904 0.34155345
vt 0.010476267 0.27344102
vt 0.32991454 0.1903007
vt 0.32836336 0.24314648
vt 0.24489513 0.36217695
vt 0.082436457 0.37535655
vt 0.16089505 0.38841665
vt 0.0062024151 0.31134349
vt 0.33953092 0.23044217
vt 0.34413776 0.34247798
vt 0.3529532 0.27457654
vt 0.0034510207 0.37886232
vt 0.0036214122 0.37371618
vt 0.34527388 0.20571744
vt 0.29242769 0.40768397
vt 0.39055485 0.30994457
vt 0.38244626 0.26444685
vt 0.0050375178 0.38595188
vt 0.084835798 0.44161069
vt 0.34534943 0.20644242
vt 0.16243239 0.43855619
vt 0.39070523 0.28715169
vt 0.39718214 0.34871632
vt 0.39429763 0.40077055
vt 0.38388842 0.26587451
vt 0.051185463 0.43541396
vt 0.34607932 0.23150015
vt 0.31788668 0.44941199
vt 0.39334568 0.30427593
vt 0.39730895 0.33953905
vt 0.39454246 0.39751035
vt 0.39325681 0.40307409
vt 0.02452204 0.43841493
vt 0.13129164 0.4602145
vt 0.074315749 0.4584285
vt 0.24814647 0.48796153
vt 0.39433715 0.31157774
vt 0.010802954 0.40698272
vt 0.058470927 0.46796006
vt 0.17081192 0.46251202
vt 0.34514335 0.47772527
vt 0.37403664 0.44725966
vt 0.019067978 0.43779004
vt 0.037385553 0.47113079
vt 0.35671768 0.47105235
vt 0.34927896 0.4799093
vt 0.019950185 0.43982297
vt 0.020951765 0.44149917
vt 0.35164326 0.47774392
vt 0.32833722 0.49697953
vt 0.57431573 0.9584285
vt 0.54970711 0.95917189
vt 0.55118549 0.93541396
vt 0.57658511 0.82778311
vt 0.52426457 0.85521466
vt 0.55252534 0.82866585
vt 0.53955412 0.8215276
vt 0.5221433 0.88525993
vt 0.52903819 0.83278656
vt 0.59122604 0.81090504
vt 0.51457632 0.87737775
vt 0.63300985 0.84618884
vt 0.51365364 0.83128065
vt 0.61009735 0.82329202
vt 0.53480142 0.81746835
vt 0.50469446 0.86728859
vt 0.53010356 0.89372617
vt 0.6303668 0.80678928
vt 0.51070017 0.82257235
vt 0.690808 0.86215556
vt 0.62986541 0.82261693
vt 0.53555053 0.89884859
vt 0.70722878 0.80870968
vt 0.55602431 0.91789877
vt 0.7858938 0.79740107
vt 0.58292884 0.93996394
vt 0.76877344 0.82628179
vt 0.68112421 0.91281587
vt 0.74775672 0.86003315
vt 0.59175193 0.94740063
vt 0.72352433 0.89789331
vt 0.73394489 0.88165128
vt 0.61263251 0.94606864
vt 0.69147342 0.94532788
vt 0.59617358 0.95065111
vt 0.62393522 0.94619513
vt 0.6762563 0.92646235
vt 0.62039083 0.9686113
vt 0.63045937 0.97705394
vt 0.68801594 0.95191175
vt 0.64700788 0.99013978
vt 0.63733941 0.98321432
vt 0.64959025 0.99198788
vt 0.65660602 0.99700886
vt 0.93732417 0.81176233
vt 0.95384485 0.80827302
vt 0.95744985 0.83042634
vt 0.94458693 0.82715499
vt 0.96130997 0.82230699
vt 0.92223388 0.83397186
vt 0.89748466 0.80682826
vt 0.95697296 0.83329296
vt 0.89172095 0.82514435
vt 0.9619121 0.84443396
vt 0.88724726 0.84768111
vt 0.96351975 0.83371389
vt 0.93428934 0.858172
vt 0.90554452 0.85912591
vt 0.96097994 0.87769967
vt 0.93983597 0.8890605
vt 0.90801311 0.88411295
vt 0.96788955 0.90222335
vt 0.9209975 0.88430232
vt 0.9441402 0.91125715
vt 0.92689097 0.89779639
vt 0.91688818 0.8967557
vt 0.94257641 0.92631769
vt 0.91060221 0.89919198
vt 0.96198571 0.93475431
vt 0.93298537 0.92047942
vt 0.91308343 0.91474795
vt 0.93373901 0.9400754
vt 0.89584637 0.9026643
vt 0.94752985 0.9616183
vt 0.90888113 0.95015699
vt 0.87973404 0.92082161
vt 0.93282473 0.96901715
vt 0.90400434 0.94090676
vt 0.93551409 0.98684412
vt 0.91255462 0.99620402
vt 0.8917253 0.96138
vt 0.89240259 0.93774509
vt 0.55925471 0.61249745
vt 0.52397048 0.59911358
vt 0.55577141 0.58924663
vt 0.56983811 0.6044001
vt 0.52820355 0.62911862
vt 0.53020811 0.58850843
vt 0.58154052 0.62111664
vt 0.56149417 0.63168466
vt 0.51092905 0.59870219
vt 0.55069935 0.57907665
vt 0.54359627 0.64923072
vt 0.51930225 0.58978462
vt 0.50340247 0.61257637
vt 0.57721484 0.65186733
vt 0.55357224 0.65089971
vt 0.51676804 0.66918969
vt 0.50728172 0.59044045
vt 0.51330239 0.64432383
vt 0.58901721 0.65606821
vt 0.5485512 0.67886925
vt 0.60941201 0.66835898
vt 0.5717696 0.66866517
vt 0.53502303 0.68466187
vt 0.58190346 0.6876719
vt 0.5600127 0.69457626
vt 0.53898567 0.69584602
vt 0.57412833 0.70374358
vt 0.54701358 0.71508831
vt 0.53502959 0.72530621
vt 0.55746394 0.71989703
vt 0.55052775 0.74642289
vt 0.89997232 0.71890295
vt 0.90014648 0.75200731
vt 0.89035124 0.72475129
vt 0.88920879 0.72047067
vt 0.88085008 0.72587967
vt 0.9033069 0.70865458
vt 0.8702665 0.76229656
vt 0.8862406 0.70615327
vt 0.88891351 0.77597195
vt 0.85504442 0.73829556
vt 0.86792457 0.77924883
vt 0.84981531 0.76185966
vt 0.85835129 0.70577258
vt 0.85544193 0.76988447
vt 0.87848604 0.7854625
vt 0.82893533 0.75521868
vt 0.83411008 0.72265196
vt 0.85614455 0.78446579
vt 0.87416399 0.80000812
vt 0.83097684 0.76866353
vt 0.8243348 0.71344614
vt 0.81679249 0.77713627
vt 0.86773229 0.81021017
vt 0.84255105 0.79993308
vt 0.81741464 0.80544037
vt 0.86137342 0.82034326
vt 0.82918471 0.81187803
vt 0.86294323 0.83210021
vt 0.83462501 0.82778704
vt 0.86040097 0.84705418
vt 0.83780622 0.85489589
vt 0.84943581 0.87077117
vt 0.69823384 0.72456872
vt 0.67833155 0.71510231
vt 0.69477981 0.70443857
vt 0.67980546 0.74590302
vt 0.68891597 0.69200587
vt 0.66845715 0.74544537
vt 0.65560776 0.69487131
vt 0.65906161 0.73378313
vt 0.67652529 0.68163323
vt 0.66410059 0.71417451
vt 0.66746229 0.66367328
vt 0.68805188 0.66580546
vt 0.64617938 0.71413815
vt 0.64582992 0.6549809
vt 0.70937347 0.67091966
vt 0.63569981 0.68791354
vt 0.67037272 0.62757492
vt 0.68321252 0.6380614
vt 0.70095676 0.64586937
vt 0.63444656 0.63663423
vt 0.62935251 0.66086686
vt 0.71027684 0.60396588
vt 0.65114588 0.62357736
vt 0.71040279 0.61621535
vt 0.69227302 0.58955944
vt 0.67426515 0.59594035
vt 0.64214188 0.60339773
vt 0.7985636 0.92628366
vt 0.78012234 0.91269827
vt 0.81073666 0.90393019
vt 0.7929616 0.93033993
vt 0.79711276 0.88814688
vt 0.77141863 0.93286955
vt 0.81341684 0.87674493
vt 0.76052797 0.89059377
vt 0.75634837 0.91914809
vt 0.78573817 0.94563395
vt 0.79282987 0.8605814
vt 0.75830144 0.90728861
vt 0.75678426 0.88191712
vt 0.75466079 0.94358099
vt 0.7697947 0.95415342
vt 0.7765404 0.87306166
vt 0.78457123 0.95750314
vt 0.75995266 0.85463911
vt 0.75582653 0.95930088
vt 0.80727005 0.94392729
vt 0.76822245 0.97688812
vt 0.78570145 0.98681945
vt 0.75866824 0.98378569
vt 0.77851832 0.99625695
vt 0.90069383 0.62748468
vt 0.89129937 0.65093035
vt 0.89429712 0.62666261
vt 0.91909599 0.64359212
vt 0.88589621 0.62437165
vt 0.8955887 0.67295802
vt 0.94154513 0.62705696
vt 0.87939602 0.66625118
vt 0.91899955 0.65818465
vt 0.90137529 0.61626923
vt 0.95010054 0.66216469
vt 0.92407614 0.68293941
vt 0.95617014 0.623438
vt 0.89295745 0.62448293
vt 0.9693529 0.63464814
vt 0.97644943 0.65999156
vt 0.97539347 0.66794729
vt 0.97265714 0.6186552
vt 0.98205292 0.64968443
vt 0.96052372 0.70423841
vt 0.98996574 0.6629886
vt 0.98977333 0.67998648
vt 0.93998092 0.70471728
vt 0.99520355 0.67119575
vt 0.97645187 0.72809672
vt 0.9363243 0.72724307
vt 0.96036994 0.73806834
vt 0.93573183 0.74522734
vt 0.92935431 0.73314786
vt 0.83142334 0.88213623
vt 0.83045745 0.87448293
vt 0.83819383 0.87748474
vt 0.8045314 0.61816978
vt 0.79043704 0.6418975
vt 0.78655326 0.62038779
vt 0.81158334 0.6443181
vt 0.78537136 0.63264132
vt 0.79898334 0.66741812
vt 0.78681105 0.65169251
vt 0.82425672 0.67331892
vt 0.76946551 0.65539575
vt 0.78822511 0.68740642
vt 0.81220442 0.69077063
vt 0.77540469 0.68073094
vt 0.7596218 0.67855906
vt 0.80212593 0.70627022
vt 0.7748993 0.71153879
vt 0.76975232 0.70133275
vt 0.75334924 0.65651023
vt 0.77731872 0.73373085
vt 0.79031837 0.74603999
vt 0.054665469 0.72131073
vt 0.03359158 0.74650562
vt 0.030622534 0.70936567
vt 0.049903356 0.70670593
vt 0.026076339 0.7379452
vt 0.019754954 0.68903756
vt 0.039586242 0.68223929
vt 0.0032795838 0.69829702
vt 0.0063468642 0.68370843
vt 0.026644457 0.66814291
vt 0.043420888 0.65463364
vt 0.019359836 0.63411021
vt 0.046272308 0.62686026
vt 0.026088089 0.53262776
vt 0.030822944 0.52036476
vt 0.038845818 0.54707193
vt 0.017225388 0.55062032
vt 0.019548424 0.51915503
vt 0.058999136 0.5323022
vt 0.004433414 0.57484758
vt 0.031637907 0.50811923
vt 0.06041861 0.55420417
vt 0.029133925 0.57677662
vt 0.068255953 0.51710796
vt 0.018716259 0.59723866
vt 0.05438916 0.5795753
vt 0.038146503 0.60025871
vt 0.06204319 0.57931507
vt 0.06419614 0.59416556
vt 0.037240006 0.62096572
vt 0.075712129 0.57263041
vt 0.058317807 0.61053801
vt 0.068413213 0.61223066
vt 0.085022889 0.60006571
vt 0.72639167 0.74612761
vt 0.72418934 0.71681535
vt 0.74196053 0.72119665
vt 0.71151137 0.73460448
vt 0.73458982 0.70469362
vt 0.70662725 0.73983175
vt 0.71011716 0.7100606
vt 0.74563533 0.71177071
vt 0.69078255 0.7377879
vt 0.75223881 0.67348212
vt 0.71100056 0.69497192
vt 0.72241849 0.67861116
vt 0.76063937 0.70560646
vt 0.75473261 0.65328038
vt 0.73352802 0.64081609
vt 0.70888853 0.64517242
vt 0.75584799 0.64159179
vt 0.71841842 0.63258505
vt 0.70753336 0.63531089
vt 0.83868533 0.57958269
vt 0.83782583 0.60444599
vt 0.82337946 0.60960138
vt 0.85220039 0.61287582
vt 0.85485733 0.5951947
vt 0.83163464 0.62954003
vt 0.85152751 0.58271927
vt 0.87075675 0.58973879
vt 0.86414611 0.63571876
vt 0.86934602 0.61177349
vt 0.85629851 0.64538628
vt 0.86569285 0.57616556
vt 0.85152429 0.66440773
vt 0.81598043 0.64919508
vt 0.82912147 0.67765546
vt 0.84639037 0.67196691
vt 0.85275894 0.68282175
vt 0.85464531 0.9260928
vt 0.84511673 0.9006874
vt 0.86114514 0.898498
vt 0.8817656 0.92377722
vt 0.83604658 0.90763664
vt 0.86125278 0.89015383
vt 0.88633037 0.94363248
vt 0.82362938 0.92765296
vt 0.82821345 0.8931579
vt 0.87296015 0.98018301
vt 0.84352219 0.9441818
vt 0.82312155 0.90718687
vt 0.8172965 0.89682555
vt 0.88854045 0.99110025
vt 0.87305945 0.99063462
vt 0.86189467 0.99634039
vt 0.58773291 0.71511
vt 0.5985449 0.72397757
vt 0.59142381 0.74608129
vt 0.58151722 0.73516756
vt 0.59724659 0.70851016
vt 0.60275382 0.7407285
vt 0.57546091 0.72189069
vt 0.58351582 0.69484818
vt 0.62228394 0.72147101
vt 0.60113913 0.69881541
vt 0.56642413 0.71865499
vt 0.61965835 0.67583054
vt 0.61561996 0.70263433
vt 0.6201573 0.68966615
vt 0.64511365 0.70988715
vt 0.59411806 0.59121513
vt 0.57993388 0.59284973
vt 0.5835554 0.58267236
vt 0.58094203 0.56388265
vt 0.58417821 0.60956842
vt 0.56641775 0.56217539
vt 0.60012484 0.56248331
vt 0.60489601 0.61656302
vt 0.57952821 0.55117583
vt 0.61762971 0.54559284
vt 0.61022484 0.59331977
vt 0.59131092 0.62161934
vt 0.61515385 0.55821764
vt 0.62365294 0.58258152
vt 0.62731874 0.55156046
vt 0.63462168 0.56750941
vt 0.62884933 0.54509079
vt 0.69727784 0.54477841
vt 0.72716433 0.55199927
vt 0.69921196 0.56410253
vt 0.69186276 0.55403703
vt 0.72590929 0.56222385
vt 0.74957383 0.56955755
vt 0.71919686 0.5840764
vt 0.73175436 0.59474921
vt 0.70280468 0.58213639
vt 0.74175245 0.59185046
vt 0.70618558 0.59690917
vt 0.73435044 0.621494
vt 0.72076082 0.61643946
vt 0.098210461 0.55799294
vt 0.073808007 0.5522784
vt 0.10921615 0.55267286
vt 0.067238562 0.52338469
vt 0.11830457 0.53834343
vt 0.087296471 0.49720037
vt 0.11486445 0.55888665
vt 0.13061795 0.5203619
vt 0.13418767 0.54833639
vt 0.10407723 0.49586862
vt 0.139171 0.53522789
vt 0.71331269 0.98247981
vt 0.71440023 0.99588507
vt 0.70440161 0.98770946
vt 0.69059461 0.97861916
vt 0.74285382 0.99118972
vt 0.70554453 0.96465427
vt 0.72870928 0.96024477
vt 0.70233846 0.94799662
vt 0.70295835 0.93259579
vt 0.72943342 0.93848187
vt 0.73987401 0.94803619
vt 0.7131629 0.9248637
vt 0.74015641 0.92826259
vt 0.59927785 0.74117821
vt 0.60519779 0.75450534
vt 0.58856207 0.75302982
vt 0.60703433 0.76915932
vt 0.6259402 0.76315546
vt 0.59297824 0.7855649
vt 0.61151969 0.78604013
vt 0.57679683 0.78635502
vt 0.61224771 0.80743837
vt 0.5955478 0.80800438
vt 0.56555974 0.76685262
vt 0.52296489 0.96508873
vt 0.51943457 0.97693467
vt 0.50423121 0.96237206
vt 0.53235275 0.98118097
vt 0.53701085 0.9623993
vt 0.55380875 0.98141479
vt 0.55660671 0.96020252
vt 0.56872916 0.96741009
vt 0.79136378 0.83655506
vt 0.80658549 0.85616106
vt 0.77404416 0.85102534
vt 0.76988202 0.83477432
vt 0.80812883 0.83526701
vt 0.82986748 0.83142966
vt 0.56182933 0.9197439
vt 0.53036213 0.93087959
vt 0.5267756 0.91702187
vt 0.51192385 0.93281233
vt 0.51201302 0.93326014
vt 0.5048613 0.91669244
vt 0.5869565 0.99414438
vt 0.57330167 0.99511802
vt 0.56937456 0.97698116
vt 0.58425832 0.9811821
vt 0.5656811 0.97994202
vt 0.58541185 0.9669072
vt 0.60139912 0.99262947
vt 0.62355906 0.99027318
vt 0.50418556 0.77142644
vt 0.51772666 0.757622
vt 0.53196293 0.77930701
vt 0.54064351 0.79774827
vt 0.53228647 0.77768964
vt 0.54068387 0.79767609
vt 0.52415544 0.80770504
vt 0.52616024 0.75468552
vt 0.53258663 0.77923799
vt 0.54077363 0.7978704
vt 0.54114026 0.79815662
vt 0.54736435 0.80517793
vt 0.55107939 0.80896705
vt 0.96868271 0.97815365
vt 0.95637929 0.99583256
vt 0.94171524 0.98060876
vt 0.99052292 0.99244827
vt 0.97755736 0.99691999
vt 0.8016634 0.96598923
vt 0.82440525 0.9603585
vt 0.82009643 0.97728038
vt 0.80795354 0.98070693
vt 0.8475278 0.96817237
vt 0.70348305 0.77874678
vt 0.6976521 0.79621917
vt 0.68517607 0.79585326
vt 0.67668664 0.77274859
vt 0.67161149 0.80010688
vt 0.66374511 0.7816118
vt 0.66091835 0.79471111
vt 0.66200209 0.80680817
vt 0.66893309 0.80870432
vt 0.78600091 0.9819684
vt 0.80134022 0.97936875
vt 0.7962271 0.99593657
vt 0.81176656 0.9874208
vt 0.82850158 0.98413885
vt 0.54421347 0.95903707
vt 0.52600038 0.96497381
vt 0.50360936 0.95136046
vt 0.64397413 0.99155718
vt 0.61635715 0.99559355
vt 0.60465378 0.9913426
vt 0.95782369 0.97237742
vt 0.97801638 0.96713638
vt 0.98730236 0.98038536
vt 0.97373277 0.97907913
vt 0.99490356 0.96383506
vt 0.80320847 0.79124522
vt 0.78456795 0.78371805
vt 0.80161947 0.77307898
vt 0.81759745 0.78486967
vt 0.79515046 0.80831528
vt 0.81079036 0.80631363
vt 0.97373855 0.96549827
vt 0.98409289 0.94987345
vt 0.99234015 0.95167428
vt 0.96531379 0.94529605
vt 0.95666534 0.94862092
vt 0.9609226 0.96558702
vt 0.68093491 0.96302855
vt 0.69332534 0.98601502
vt 0.68497187 0.98961091
vt 0.66027337 0.99652028
vt 0.7704134 0.991611
vt 0.75603747 0.99671531
vt 0.73778033 0.98612088
vt 0.62986302 0.80801916
vt 0.64163619 0.77861971
vt 0.65759319 0.7764256
vt 0.97339469 0.92319822
vt 0.98693705 0.9176982
vt 0.97709244 0.95015019
vt 0.99743605 0.94436711
vt 0.62758708 0.9738431
vt 0.61179382 0.98006821
vt 0.59785843 0.96916705
vt 0.74726766 0.91826731
vt 0.73020267 0.91581577
vt 0.74103558 0.89228404
vt 0.75012362 0.89751315
vt 0.72361171 0.91878003
vt 0.97476125 0.91779256
vt 0.99512911 0.90436602
vt 0.9971655 0.91790235
vt 0.99697942 0.9187727
vt 0.973571 0.89838421
vt 0.9985835 0.90638351
vt 0.67547947 0.99658203
vt 0.66784054 0.99444771
vt 0.6924004 0.98752856
vt 0.59180695 0.94927555
vt 0.58609909 0.96442765
vt 0.56712866 0.96437514
vt 0.52038693 0.942536
vt 0.52638346 0.93072158
vt 0.53577983 0.94933397
vt 0.5455597 0.93512917
vt 0.80932224 0.93379015
vt 0.80049193 0.92333263
vt 0.82165748 0.92171675
vt 0.82211512 0.9339729
vt 0.5698148 0.9325881
vt 0.56604719 0.94950861
vt 0.55098474 0.93233734
vt 0.84201539 0.98995978
vt 0.8354947 0.98870587
vt 0.84470057 0.97836232
vt 0.84630793 0.98901612
vt 0.83218664 0.97643113
vt 0.8451165 0.99522579
vt 0.89526939 0.98355567
vt 0.90127021 0.98034322
vt 0.90561283 0.98671854
vt 0.90388298 0.99636382
vt 0.74348336 0.96455908
vt 0.75092751 0.97772032
vt 0.74039859 0.96999198
vt 0.73852158 0.98005086
usemtl Tile_+032_+022_L19_000113_0
f 192/494 179/495 174/496
f 191/470 190/471 142/472
f 118/687 117/688 156/689
f 116/693 171/695 71/696
f 171/1 163/2 164/3
f 493/39 184/30 495/49
f 144/411 148/412 145/413
f 144/498 174/496 179/495
f 101/232 181/233 100/234
f 174/844 144/845 175/846
f 116/693 118/687 152/692
f 148/501 144/498 179/495
f 164/3 166/6 165/4
f 118/687 156/689 157/690
f 157/514 156/517 159/510
f 118/687 157/690 152/692
f 155/508 152/512 151/509
f 149/474 150/480 143/476
f 157/514 151/509 152/512
f 163/506 155/508 170/500
f 168/415 145/413 148/412
f 148/412 169/417 168/415
f 140/74 121/84 136/67
f 176/31 410/14 175/21
f 144/845 176/848 175/846
f 176/31 409/48 184/30
f 140/423 177/418 168/415
f 172/8 163/2 410/14
f 23/100 75/126 100/118
f 165/4 167/11 185/17
f 166/6 141/16 167/11
f 166/6 167/11 165/4
f 499/32 153/23 500/40
f 490/36 182/19 501/45
f 165/4 171/1 164/3
f 166/725 408/726 183/727
f 141/16 185/17 167/11
f 141/16 166/6 183/24
f 180/22 411/13 182/19
f 162/5 163/2 172/8
f 172/8 173/20 502/29
f 175/503 192/494 352/507
f 176/416 144/411 352/414
f 74/93 78/108 23/100
f 409/48 177/56 506/61
f 172/8 410/14 173/20
f 184/30 173/20 410/14
f 352/414 144/411 145/413
f 175/846 352/847 174/844
f 184/30 410/14 176/31
f 140/423 366/427 121/431
f 181/109 23/100 100/118
f 367/420 366/427 140/423
f 154/9 411/13 180/22
f 411/13 154/9 162/5
f 180/22 153/23 154/9
f 500/40 180/22 508/50
f 182/19 172/8 503/28
f 172/8 411/13 162/5
f 411/13 172/8 182/19
f 163/2 162/5 164/3
f 155/508 163/506 171/511
f 175/21 410/14 163/2
f 153/23 408/15 178/10
f 491/728 408/726 499/729
f 178/10 408/15 166/6
f 166/6 164/3 178/10
f 178/10 154/9 153/23
f 403/301 396/302 398/303
f 396/302 403/301 511/305
f 146/485 150/480 149/474
f 147/482 146/485 149/474
f 349/426 406/422 377/430
f 149/474 143/476 142/472
f 361/479 365/475 360/473
f 361/521 360/522 191/519
f 187/491 188/486 376/489
f 388/545 387/546 358/547
f 396/302 397/306 398/303
f 190/471 386/477 149/474
f 403/301 398/303 393/304
f 403/301 393/304 400/307
f 393/304 392/310 394/316
f 513/265 391/280 514/285
f 80/240 364/253 515/259
f 99/254 401/266 364/253
f 364/253 353/248 99/254
f 517/314 225/317 518/319
f 519/323 374/325 521/327
f 511/305 399/309 517/314
f 401/266 404/268 400/281
f 403/301 402/311 399/309
f 399/309 402/311 405/318
f 401/266 400/281 395/282
f 394/316 395/312 393/304
f 392/310 393/304 397/306
f 396/302 392/310 397/306
f 401/266 395/282 363/273
f 395/298 394/299 363/300
f 363/799 394/800 392/801
f 393/304 398/303 397/306
f 391/280 396/286 522/291
f 382/488 189/490 389/492
f 389/442 380/441 382/440
f 382/488 362/484 189/490
f 188/486 189/490 362/484
f 389/492 189/490 187/491
f 389/816 390/817 388/818
f 187/491 387/493 389/492
f 390/817 387/820 388/818
f 387/820 390/817 389/816
f 387/546 187/549 358/547
f 361/521 191/519 376/520
f 117/515 159/510 156/517
f 191/519 142/516 370/513
f 169/417 359/421 378/424
f 159/510 370/513 143/505
f 150/480 146/485 148/487
f 190/471 365/475 384/478
f 384/478 356/481 190/471
f 386/425 359/421 147/419
f 190/471 360/473 365/475
f 357/428 356/429 384/433
f 365/475 379/483 384/478
f 386/477 147/482 149/474
f 148/501 179/495 150/499
f 143/505 370/513 142/516
f 142/472 190/471 149/474
f 143/505 158/504 159/510
f 169/417 147/419 359/421
f 406/422 169/417 378/424
f 143/505 369/502 158/504
f 368/497 369/502 150/499
f 159/510 151/509 157/514
f 160/518 370/513 117/515
f 377/430 357/428 355/434
f 349/426 367/420 406/422
f 378/424 357/428 377/430
f 350/432 377/430 355/434
f 384/433 383/436 355/434
f 357/428 384/433 355/434
f 357/428 378/424 359/421
f 354/435 355/434 385/437
f 381/439 385/437 355/434
f 381/443 34/444 385/445
f 379/438 383/436 384/433
f 355/434 383/436 381/439
f 382/440 380/441 381/439
f 379/483 362/484 382/488
f 379/438 382/440 381/439
f 34/444 381/443 380/446
f 35/548 388/545 358/547
f 117/556 438/554 160/553
f 376/520 191/519 370/513
f 188/486 361/479 376/489
f 358/547 375/550 35/548
f 160/518 376/520 370/513
f 376/552 375/550 187/549
f 375/550 376/552 160/553
f 161/551 375/550 160/553
f 446/328 225/317 447/329
f 372/334 374/325 445/331
f 526/338 448/337 539/340
f 527/336 373/333 528/339
f 374/325 372/334 373/333
f 373/333 372/334 526/338
f 373/333 371/330 374/325
f 521/327 371/330 530/332
f 352/847 145/849 174/844
f 192/850 174/851 145/852
f 136/67 74/93 186/90
f 406/422 367/420 169/417
f 367/420 168/415 169/417
f 136/67 186/90 531/83
f 367/420 349/426 366/427
f 506/61 136/67 532/73
f 117/515 370/513 159/510
f 189/490 188/486 187/491
f 498/57 409/48 504/62
f 154/9 164/3 162/5
f 154/9 178/10 164/3
f 186/236 181/233 101/232
f 145/852 168/853 192/850
f 352/414 177/418 176/416
f 158/504 151/509 159/510
f 170/500 155/508 158/504
f 158/504 369/502 368/497
f 368/497 170/500 158/504
f 151/509 158/504 155/508
f 148/487 146/485 147/482
f 179/495 192/494 368/497
f 533/244 80/240 536/249
f 168/523 352/524 192/525
f 168/415 367/420 140/423
f 176/31 177/56 409/48
f 181/109 186/90 23/100
f 170/500 192/494 175/503
f 121/464 366/466 115/460
f 171/1 165/4 134/7
f 171/695 134/698 71/696
f 388/818 380/819 389/816
f 362/484 379/483 365/475
f 364/253 363/273 513/265
f 396/286 391/280 363/273
f 401/266 363/273 364/253
f 80/240 353/248 364/253
f 400/307 402/311 403/301
f 393/304 395/312 400/307
f 396/802 363/799 392/801
f 361/479 188/486 362/484
f 191/470 360/473 190/471
f 362/484 365/475 361/479
f 386/425 356/429 359/421
f 169/417 148/412 147/419
f 386/477 190/471 356/481
f 143/505 150/499 369/502
f 375/550 358/547 187/549
f 406/422 378/424 377/430
f 350/432 355/434 354/435
f 357/428 359/421 356/429
f 381/439 383/436 379/438
f 23/100 186/90 74/93
f 116/693 152/692 155/694
f 116/693 155/694 171/695
f 170/500 368/497 192/494
f 497/238 101/232 535/241
f 366/466 349/461 115/460
f 163/506 170/500 175/503
f 352/414 168/415 177/418
f 177/56 140/74 136/67
f 150/499 179/495 368/497
f 123/558 235/559 73/560
f 280/793 277/794 298/795
f 55/342 58/343 108/344
f 95/711 223/712 254/713
f 377/430 350/432 349/426
f 37/263 50/257 38/247
f 19/615 312/616 125/617
f 324/631 292/632 266/633
f 45/526 347/527 129/528
f 14/251 48/258 38/247
f 58/343 267/346 108/344
f 130/699 71/696 134/698
f 131/58 325/53 319/34
f 198/579 346/580 345/581
f 135/43 325/53 133/59
f 256/165 305/164 277/172
f 53/821 54/822 449/823
f 133/467 121/464 114/459
f 279/140 11/131 276/152
f 281/841 297/842 253/843
f 223/208 303/191 254/199
f 260/185 230/157 252/181
f 301/717 299/718 302/716
f 288/782 307/783 287/784
f 261/176 304/192 249/184
f 308/827 252/828 12/829
f 267/173 269/163 98/142
f 19/615 124/619 312/616
f 342/646 425/647 343/648
f 88/96 295/113 278/103
f 294/644 338/643 265/640
f 61/71 63/92 313/88
f 316/719 317/720 294/721
f 270/639 292/632 264/635
f 252/181 255/179 6/151
f 106/51 105/69 70/63
f 205/659 341/656 340/652
f 315/723 316/719 273/722
f 11/131 298/162 276/152
f 287/784 307/783 252/786
f 103/235 113/239 13/237
f 237/762 293/763 268/764
f 268/634 293/637 324/631
f 238/638 264/635 324/631
f 328/380 119/381 97/382
f 270/639 264/635 265/640
f 245/122 98/142 317/132
f 266/766 126/770 138/769
f 296/787 298/788 306/789
f 296/787 297/792 280/791
f 109/166 257/183 303/191
f 317/645 270/639 338/643
f 108/385 98/389 97/382
f 224/714 223/712 95/711
f 287/784 309/785 288/782
f 286/207 254/199 257/183
f 301/229 1/218 454/230
f 286/207 2/212 254/199
f 309/731 287/732 308/733
f 317/720 315/723 274/724
f 269/391 119/381 126/388
f 138/349 126/353 128/351
f 126/388 266/396 269/391
f 266/633 268/634 324/631
f 338/643 294/644 317/645
f 134/7 322/12 77/18
f 98/142 108/180 267/173
f 328/380 107/383 25/386
f 273/722 316/719 294/721
f 327/663 334/664 204/665
f 328/380 233/384 119/381
f 16/354 128/351 330/356
f 138/349 128/351 41/347
f 43/449 44/458 329/456
f 82/567 434/571 46/569
f 137/453 329/456 114/459
f 65/123 91/133 311/134
f 14/739 22/740 139/741
f 196/676 337/677 314/678
f 245/122 317/132 274/104
f 300/752 302/753 299/754
f 300/752 223/755 302/753
f 107/622 97/626 124/619
f 231/146 68/156 305/164
f 223/755 224/756 302/753
f 100/118 75/126 103/138
f 133/59 318/81 121/84
f 136/67 121/84 318/81
f 21/125 127/148 75/126
f 320/27 141/16 239/42
f 246/35 319/34 77/18
f 320/27 185/17 141/16
f 320/757 239/758 272/759
f 321/760 320/757 272/759
f 165/4 185/17 322/12
f 322/12 320/27 76/26
f 79/135 227/117 66/116
f 320/27 322/12 185/17
f 313/88 310/79 61/71
f 133/59 325/53 131/58
f 318/803 132/804 93/805
f 24/107 74/93 94/95
f 93/89 94/95 318/81
f 319/34 325/53 135/43
f 133/59 132/72 318/81
f 132/72 323/82 93/89
f 320/830 321/831 76/832
f 271/44 76/26 321/54
f 134/7 165/4 322/12
f 319/34 246/35 243/52
f 77/18 322/12 76/26
f 272/60 271/44 321/54
f 323/82 310/79 93/89
f 18/115 67/105 63/92
f 65/123 311/134 66/116
f 243/52 62/64 131/58
f 64/98 66/116 227/117
f 311/134 69/155 242/145
f 317/132 98/142 270/154
f 298/162 277/172 276/152
f 314/700 197/701 196/702
f 303/191 300/211 456/206
f 456/206 299/214 458/217
f 54/187 52/158 459/177
f 53/821 52/825 54/822
f 311/134 242/145 66/116
f 52/250 53/246 110/242
f 127/148 110/169 113/159
f 312/144 91/133 65/123
f 245/122 91/133 312/144
f 18/593 125/594 67/596
f 313/88 64/98 228/99
f 311/134 91/133 92/143
f 61/71 310/79 131/58
f 63/562 235/559 123/558
f 310/79 323/82 131/58
f 240/55 244/65 243/52
f 312/616 124/619 247/623
f 20/106 24/107 94/95
f 51/137 21/125 20/106
f 20/106 229/136 51/137
f 66/813 242/814 79/815
f 92/143 68/156 69/155
f 275/139 279/140 92/143
f 276/152 305/164 68/156
f 68/156 92/143 276/152
f 279/140 276/152 92/143
f 90/114 274/104 236/85
f 68/156 231/146 79/135
f 281/189 255/179 259/174
f 281/797 259/796 280/793
f 120/112 279/140 262/130
f 256/165 231/146 305/164
f 251/167 230/157 261/176
f 230/157 256/165 259/174
f 291/200 304/192 261/176
f 12/736 289/738 290/734
f 307/196 260/185 252/181
f 308/733 12/736 290/734
f 306/161 11/131 6/151
f 283/215 250/201 2/212
f 299/214 301/229 455/227
f 257/183 248/175 249/184
f 300/211 303/191 223/208
f 254/199 303/191 257/183
f 250/201 258/198 249/184
f 301/229 96/226 1/218
f 302/716 224/714 96/715
f 1/218 95/223 254/199
f 289/193 8/210 291/200
f 250/776 285/777 8/778
f 289/738 288/737 290/734
f 250/201 8/210 2/212
f 261/176 289/193 291/200
f 309/731 290/734 288/737
f 285/209 304/192 291/200
f 2/212 286/207 283/215
f 8/210 285/209 291/200
f 304/192 285/209 250/201
f 250/771 283/772 282/773
f 284/774 283/772 286/775
f 258/198 284/205 257/183
f 230/157 259/174 252/181
f 284/833 258/834 282/835
f 256/165 277/172 259/174
f 275/139 262/130 279/140
f 280/793 259/796 277/794
f 296/787 306/789 253/790
f 297/798 281/797 280/793
f 297/792 296/787 253/790
f 308/733 290/734 309/731
f 287/732 252/735 308/733
f 298/788 296/787 280/791
f 338/643 270/639 265/640
f 273/642 294/644 265/640
f 269/636 266/633 292/632
f 240/55 271/44 272/60
f 267/768 266/766 138/769
f 270/154 98/142 269/163
f 267/854 138/855 269/856
f 241/765 237/762 268/764
f 238/638 324/631 293/637
f 238/638 273/642 265/640
f 239/758 240/761 272/759
f 243/52 246/35 240/55
f 246/35 271/44 240/55
f 266/766 267/768 58/767
f 238/638 293/637 237/641
f 241/765 266/766 58/767
f 264/635 238/638 265/640
f 236/85 278/103 120/112
f 6/151 253/171 306/161
f 295/113 88/96 10/110
f 88/96 263/91 7/102
f 7/102 4/119 10/110
f 3/121 278/103 10/110
f 236/85 88/96 278/103
f 120/112 278/103 3/121
f 276/152 277/172 305/164
f 236/85 273/97 238/86
f 90/114 275/139 92/143
f 236/85 274/104 273/97
f 279/140 120/112 11/131
f 263/91 236/85 193/75
f 274/104 90/114 245/122
f 98/142 245/122 247/153
f 313/88 228/99 93/89
f 62/64 244/65 60/78
f 244/65 62/64 243/52
f 310/79 313/88 93/89
f 61/565 235/559 63/562
f 69/155 79/135 242/145
f 60/348 55/342 41/347
f 240/55 239/42 106/51
f 106/51 239/42 141/16
f 70/63 237/76 241/77
f 237/76 70/63 105/69
f 238/86 105/69 236/85
f 105/69 238/86 237/76
f 193/75 236/85 105/69
f 61/565 59/563 235/559
f 244/65 240/55 57/70
f 241/77 58/87 57/70
f 88/96 236/85 263/91
f 275/139 90/114 262/130
f 11/131 120/112 3/121
f 289/193 12/195 8/210
f 255/179 252/181 259/174
f 260/185 289/193 261/176
f 109/166 303/191 457/197
f 249/184 258/198 257/183
f 230/157 260/185 261/176
f 253/171 255/179 281/189
f 6/151 255/179 253/171
f 89/147 251/167 248/175
f 251/167 261/176 249/184
f 257/183 109/166 248/175
f 251/167 89/147 230/157
f 226/124 231/146 230/157
f 89/147 226/124 230/157
f 52/158 51/137 87/168
f 231/146 226/124 79/135
f 229/136 226/124 89/147
f 93/89 228/99 20/106
f 113/159 103/138 127/148
f 24/107 20/106 21/125
f 226/124 229/136 20/106
f 110/169 127/148 52/158
f 32/598 234/599 232/600
f 327/681 195/683 194/680
f 86/539 218/535 217/536
f 414/369 207/372 210/367
f 264/635 292/632 324/631
f 208/399 112/394 209/401
f 206/368 210/367 207/372
f 282/773 283/772 284/774
f 351/584 199/582 198/579
f 214/531 218/535 417/532
f 42/357 429/362 36/360
f 208/399 423/404 211/405
f 211/405 428/402 208/399
f 212/364 210/367 430/361
f 102/566 439/572 440/570
f 73/560 82/567 45/564
f 233/384 128/392 126/388
f 161/455 43/449 432/452
f 433/375 217/379 213/373
f 399/806 405/807 407/808
f 444/283 442/288 466/293
f 225/317 444/320 468/322
f 225/317 399/309 444/320
f 443/275 442/288 444/283
f 402/311 407/315 405/318
f 444/320 399/309 407/315
f 444/283 407/287 404/268
f 404/268 443/275 444/283
f 404/268 49/262 443/275
f 99/254 441/252 49/262
f 404/268 99/254 49/262
f 81/243 441/252 99/254
f 404/268 407/287 400/281
f 404/268 401/266 99/254
f 471/279 49/262 472/271
f 473/292 443/275 474/289
f 472/271 50/257 475/278
f 339/705 196/702 426/703
f 81/243 38/247 441/252
f 38/247 50/257 441/252
f 85/540 216/541 215/537
f 80/240 81/243 353/248
f 402/311 400/307 407/315
f 200/601 412/607 216/606
f 217/379 433/375 86/378
f 216/541 412/538 215/537
f 207/372 220/377 86/378
f 329/456 344/463 116/462
f 117/556 344/557 44/555
f 161/551 160/553 438/554
f 42/357 16/354 330/356
f 206/368 83/365 431/363
f 331/359 42/357 330/356
f 82/567 440/570 40/573
f 15/575 439/572 102/566
f 440/570 439/572 40/573
f 114/459 115/460 137/453
f 115/460 349/461 436/454
f 104/583 129/586 345/581
f 347/527 345/530 129/528
f 213/574 46/569 434/571
f 137/453 436/454 435/451
f 347/527 46/529 214/531
f 354/447 436/454 350/457
f 16/354 36/360 39/358
f 354/447 435/451 436/454
f 43/449 435/451 354/447
f 137/453 43/449 329/456
f 137/453 435/451 43/449
f 36/360 431/363 39/358
f 437/576 434/571 40/573
f 83/365 39/358 431/363
f 213/373 206/368 433/375
f 213/373 437/370 206/368
f 83/365 206/368 437/370
f 34/444 432/452 43/449
f 434/571 437/576 213/574
f 430/361 210/367 429/362
f 40/573 83/577 437/576
f 385/445 34/444 354/447
f 412/607 200/601 351/605
f 351/542 198/534 412/538
f 213/533 217/536 214/531
f 207/372 86/378 433/375
f 218/535 214/531 217/536
f 380/446 388/448 34/444
f 207/372 433/375 206/368
f 161/455 432/452 35/450
f 331/395 428/402 211/405
f 429/362 431/363 36/360
f 210/367 206/368 431/363
f 431/363 429/362 210/367
f 42/357 430/361 429/362
f 44/458 43/449 161/455
f 35/548 375/550 161/551
f 161/551 438/554 44/555
f 28/390 208/399 331/395
f 211/366 212/364 331/359
f 28/390 112/394 208/399
f 430/361 42/357 331/359
f 208/399 428/402 331/395
f 232/403 423/404 33/398
f 423/404 208/399 209/401
f 341/673 205/671 427/669
f 348/649 342/646 343/648
f 341/673 427/669 202/670
f 202/670 427/669 419/667
f 427/669 204/665 419/667
f 334/664 419/667 204/665
f 333/655 326/660 335/658
f 33/398 209/401 111/393
f 339/705 424/707 196/702
f 340/652 335/658 205/659
f 204/661 205/659 335/658
f 348/649 343/648 336/651
f 205/671 204/665 427/669
f 209/401 33/398 423/404
f 33/398 32/400 232/403
f 342/646 340/652 341/656
f 416/407 211/405 423/404
f 212/364 430/361 331/359
f 212/364 211/366 414/369
f 232/600 234/599 200/601
f 201/602 200/601 32/598
f 85/608 219/610 332/603
f 341/673 202/670 203/675
f 342/646 221/650 425/647
f 337/668 424/672 202/670
f 221/650 342/646 203/653
f 85/608 332/603 216/606
f 32/630 26/624 31/629
f 201/602 351/605 200/601
f 412/538 198/534 215/537
f 417/532 215/537 198/534
f 30/587 199/582 351/584
f 351/605 201/602 31/604
f 198/579 199/582 346/580
f 337/710 196/702 424/707
f 426/703 425/706 339/705
f 340/652 342/646 348/649
f 418/809 336/810 425/811
f 425/706 426/703 418/704
f 336/686 418/684 194/680
f 343/812 425/811 336/810
f 419/667 337/668 202/670
f 334/664 337/668 419/667
f 26/624 30/628 31/629
f 32/598 31/604 201/602
f 25/386 33/398 111/393
f 340/652 348/649 333/655
f 336/651 195/654 348/649
f 204/665 326/666 327/663
f 335/658 326/660 204/661
f 340/652 333/655 335/658
f 426/703 197/701 418/704
f 197/701 426/703 196/702
f 347/527 417/532 345/530
f 199/582 30/587 84/585
f 345/581 346/580 104/583
f 194/680 195/683 336/686
f 337/677 334/679 314/678
f 32/400 33/398 25/386
f 197/682 314/678 194/680
f 346/580 84/585 104/583
f 418/684 197/682 194/680
f 334/679 194/680 314/678
f 334/679 327/681 194/680
f 326/660 333/655 327/662
f 327/681 333/685 195/683
f 348/649 195/654 333/655
f 29/621 26/624 19/615
f 233/384 28/390 331/395
f 233/384 328/380 27/387
f 330/397 128/392 233/384
f 332/603 232/600 200/601
f 416/407 423/404 332/406
f 420/612 422/611 219/610
f 220/614 421/613 219/610
f 416/407 422/409 420/410
f 420/376 413/374 415/371
f 415/408 416/407 420/410
f 413/374 420/376 220/377
f 219/610 421/613 420/612
f 415/408 211/405 416/407
f 415/371 414/369 211/366
f 207/372 414/369 413/374
f 215/537 218/535 85/540
f 218/535 215/537 417/532
f 86/539 85/540 218/535
f 86/539 220/544 219/543
f 220/377 207/372 413/374
f 420/612 421/613 220/614
f 219/610 422/611 332/603
f 332/603 200/601 216/606
f 221/650 203/653 222/657
f 222/674 203/675 202/670
f 341/656 203/653 342/646
f 425/706 221/708 339/705
f 222/709 339/705 221/708
f 222/709 424/707 339/705
f 13/237 113/239 110/242
f 477/744 139/741 478/747
f 24/107 78/108 74/93
f 51/137 89/147 109/166
f 17/590 122/588 104/583
f 135/468 133/467 114/459
f 71/696 72/697 116/693
f 59/350 41/347 102/352
f 138/837 56/838 108/839
f 41/347 15/355 102/352
f 22/256 53/246 450/261
f 14/251 13/237 53/246
f 55/342 56/345 41/347
f 128/351 16/354 41/347
f 318/81 94/95 136/67
f 61/71 131/58 62/64
f 270/639 269/636 292/632
f 138/855 119/857 269/856
f 25/625 107/622 19/615
f 80/240 101/232 13/237
f 130/25 134/7 77/18
f 130/469 135/468 72/465
f 45/591 129/586 122/588
f 63/595 123/592 18/593
f 76/26 246/35 77/18
f 271/44 246/35 76/26
f 73/560 59/563 102/566
f 53/246 13/237 110/242
f 462/182 109/166 465/190
f 230/157 231/146 256/165
f 319/34 243/52 131/58
f 250/201 249/184 304/192
f 119/381 108/385 97/382
f 107/383 328/380 97/382
f 254/199 2/212 9/216
f 9/216 1/218 254/199
f 131/58 323/82 132/72
f 316/719 315/723 317/720
f 11/131 306/161 298/162
f 227/117 228/99 64/98
f 103/235 101/232 100/234
f 84/585 346/580 199/582
f 104/583 29/589 17/590
f 319/34 130/25 77/18
f 94/95 74/93 136/67
f 96/715 224/714 95/711
f 103/235 13/237 101/232
f 52/158 127/148 51/137
f 122/588 129/586 104/583
f 278/103 295/113 10/110
f 73/560 45/564 122/561
f 98/627 247/623 124/619
f 124/619 97/626 98/627
f 25/386 27/387 328/380
f 115/460 114/459 121/464
f 73/560 122/561 123/558
f 236/85 120/112 90/114
f 119/381 233/384 126/388
f 28/390 233/384 27/387
f 56/345 138/349 41/347
f 114/459 329/456 116/462
f 130/25 319/34 135/43
f 440/570 82/567 102/566
f 198/534 345/530 417/532
f 111/393 112/394 27/387
f 48/745 47/742 482/749
f 47/742 48/745 14/739
f 19/615 107/622 124/619
f 79/135 69/155 68/156
f 133/59 131/58 132/72
f 69/155 311/134 92/143
f 71/696 130/699 72/697
f 241/77 57/70 70/63
f 73/560 235/559 59/563
f 226/124 227/117 79/135
f 66/116 64/98 67/105
f 65/597 67/596 125/594
f 67/105 64/98 63/92
f 61/71 62/64 60/78
f 61/565 60/568 59/563
f 64/98 313/88 63/92
f 58/87 55/80 57/70
f 312/616 65/620 125/617
f 67/105 65/123 66/116
f 90/114 120/112 262/130
f 227/117 20/106 228/99
f 127/148 21/125 51/137
f 94/95 93/89 20/106
f 247/153 245/122 312/144
f 59/350 60/348 41/347
f 227/117 226/124 20/106
f 109/166 87/168 51/137
f 90/114 92/143 91/133
f 55/80 60/78 244/65
f 89/147 51/137 229/136
f 288/202 260/185 307/196
f 258/834 250/836 282/835
f 1/218 96/226 95/223
f 301/717 302/716 96/715
f 284/205 286/207 257/183
f 260/185 288/202 289/193
f 268/764 266/766 241/765
f 70/63 240/55 106/51
f 55/80 244/65 57/70
f 7/102 10/110 88/96
f 10/110 5/128 3/121
f 274/724 315/723 273/722
f 91/133 245/122 90/114
f 240/55 70/63 57/70
f 249/184 248/175 251/167
f 103/138 75/126 127/148
f 459/177 87/168 461/186
f 210/367 212/364 414/369
f 417/532 347/527 214/531
f 46/529 213/533 214/531
f 29/589 84/585 30/587
f 112/394 111/393 209/401
f 354/447 34/444 43/449
f 73/560 102/566 82/567
f 350/457 436/454 349/461
f 49/262 441/252 50/257
f 484/270 37/263 486/277
f 481/269 38/247 487/272
f 38/247 48/258 485/264
f 81/243 13/237 38/247
f 81/243 80/240 13/237
f 45/564 82/567 46/569
f 45/526 46/529 347/527
f 118/687 116/693 344/691
f 118/687 344/691 117/688
f 44/555 438/554 117/556
f 36/360 16/354 42/357
f 434/571 82/567 40/573
f 15/575 40/573 439/572
f 39/578 40/573 15/575
f 115/460 436/454 137/453
f 39/578 83/577 40/573
f 44/458 344/463 329/456
f 388/448 35/450 34/444
f 35/450 432/452 34/444
f 331/395 330/397 233/384
f 25/386 111/393 27/387
f 200/601 234/599 32/598
f 424/672 222/674 202/670
f 86/539 219/543 85/540
f 30/609 351/605 31/604
f 112/394 28/390 27/387
f 30/628 26/624 29/621
f 104/583 84/585 29/589
f 25/625 19/615 26/624
f 423/404 232/403 332/406
f 332/406 422/409 416/407
f 414/369 415/371 413/374
f 24/107 21/125 23/100
f 75/126 23/100 21/125
f 114/459 72/465 135/468
f 23/100 78/108 24/107
f 22/256 14/251 53/246
f 19/615 125/617 17/618
f 17/590 125/594 18/593
f 18/593 123/592 17/590
f 116/462 72/465 114/459
f 15/355 41/347 16/354
f 39/358 15/355 16/354
f 123/592 122/588 17/590
f 139/741 47/742 14/739
f 89/147 248/175 109/166
f 479/743 22/740 488/746
f 38/247 13/237 14/251
f 108/839 119/840 138/837
f 29/621 19/615 17/618
f 26/624 32/630 25/625
f 108/344 56/345 55/342
f 81/243 99/254 353/248
f 12/195 6/151 541/188
f 7/102 263/91 543/111
f 8/210 12/195 542/204
f 6/151 11/131 546/141
f 6/151 12/195 252/181
f 2/212 8/210 545/213
f 9/216 2/212 549/219
f 546/141 3/121 552/150
f 3/121 4/119 553/127
f 3/779 5/780 4/781
f 553/127 7/102 555/129
f 4/119 5/128 10/110
f 1/218 9/216 550/222
f 141/16 183/24 492/33
f 193/75 105/69 106/51
f 445/331 374/325 446/328
f 446/328 374/325 225/317
f 447/329 225/317 469/326
f 448/337 372/334 445/331
f 449/823 54/822 453/826
f 450/824 53/821 449/823
f 451/284 37/263 452/276
f 452/276 37/263 481/269
f 453/203 54/187 460/194
f 454/230 1/218 558/228
f 455/227 301/229 454/230
f 456/206 300/211 299/214
f 457/197 303/191 456/206
f 458/217 299/214 464/221
f 459/177 52/158 87/168
f 460/194 54/187 459/177
f 461/186 87/168 462/182
f 462/182 87/168 109/166
f 463/224 299/214 455/227
f 464/221 299/214 463/224
f 465/190 109/166 457/197
f 466/293 442/288 467/296
f 467/296 442/288 473/292
f 468/297 444/283 466/293
f 469/326 225/317 470/324
f 470/324 225/317 468/322
f 471/279 443/275 49/262
f 472/271 49/262 50/257
f 473/292 442/288 443/275
f 474/289 443/275 471/279
f 475/278 50/257 484/270
f 476/748 47/742 477/744
f 477/744 47/742 139/741
f 478/747 139/741 479/743
f 479/743 139/741 22/740
f 480/267 22/256 450/261
f 481/269 37/263 38/247
f 482/749 47/742 476/748
f 483/750 48/745 482/749
f 484/270 50/257 37/263
f 485/751 48/745 483/750
f 486/277 37/263 451/284
f 487/272 38/247 485/264
f 488/274 22/256 480/267
f 489/46 180/22 490/36
f 490/36 180/22 182/19
f 491/728 183/727 408/726
f 492/730 183/727 491/728
f 493/39 173/20 184/30
f 494/47 173/20 493/39
f 495/49 184/30 498/57
f 496/94 186/90 497/101
f 497/238 186/236 101/232
f 498/57 184/30 409/48
f 499/32 408/15 153/23
f 500/40 153/23 180/22
f 501/45 182/19 509/37
f 502/29 173/20 510/38
f 503/28 172/8 502/29
f 504/62 409/48 505/68
f 505/68 409/48 507/66
f 506/61 177/56 136/67
f 507/66 409/48 506/61
f 508/50 180/22 489/46
f 509/37 182/19 503/28
f 510/38 173/20 494/47
f 511/305 403/301 399/309
f 512/308 396/302 511/305
f 513/265 363/273 391/280
f 514/285 391/280 525/290
f 515/259 364/253 513/265
f 516/260 80/240 515/259
f 517/314 399/309 225/317
f 518/319 225/317 520/321
f 519/323 225/317 374/325
f 520/321 225/317 519/323
f 521/327 374/325 371/330
f 522/313 396/302 512/308
f 523/295 391/280 522/291
f 524/294 391/280 523/295
f 525/290 391/280 524/294
f 526/338 372/334 448/337
f 527/336 371/330 373/333
f 528/339 373/333 526/338
f 529/335 371/330 527/336
f 530/332 371/330 529/335
f 531/83 186/90 496/94
f 532/73 136/67 531/83
f 533/244 101/232 80/240
f 534/245 101/232 533/244
f 535/241 101/232 534/245
f 536/249 80/240 537/255
f 537/255 80/240 516/260
f 538/41 141/16 492/33
f 539/340 448/337 540/341
f 541/188 6/151 556/178
f 542/204 12/195 541/188
f 544/120 7/102 543/111
f 545/213 8/210 542/204
f 546/141 11/131 3/121
f 547/160 6/151 546/141
f 548/220 2/212 545/213
f 549/219 2/212 548/220
f 550/222 9/216 549/219
f 551/170 6/151 547/160
f 552/150 3/121 554/149
f 553/127 4/119 7/102
f 554/149 3/121 553/127
f 555/129 7/102 544/120
f 556/178 6/151 551/170
f 557/225 1/218 550/222
f 558/228 1/218 557/225
f 559/231 454/230 558/228
usemtl Tile_+032_+022_L19_000113_untextured
