mtllib Tile_+032_+022_L18_00030.mtl
v 6.43209580e+03 5.41621139e+03 3.60293684e+00
v 6.43257345e+03 5.41226037e+03 3.66927905e+00
v 6.42725997e+03 5.43296987e+03 4.54985220e+00
v 6.42721180e+03 5.43417873e+03 3.53067439e+00
v 6.43747204e+03 5.43510266e+03 3.26229225e+00
v 6.42687871e+03 5.43648376e+03 5.97817513e+00
v 6.43464658e+03 5.43645281e+03 3.50805231e+00
v 6.43412530e+03 5.43577024e+03 4.40993418e+00
v 6.43682118e+03 5.42988826e+03 3.45880963e+00
v 6.42861518e+03 5.42750049e+03 4.35962941e+00
v 6.42819368e+03 5.43543532e+03 4.34368709e+00
v 6.43372310e+03 5.42684638e+03 4.36515899e+00
v 6.42969192e+03 5.42789985e+03 4.00597099e+00
v 6.43157844e+03 5.43563057e+03 4.28038284e+00
v 6.42638559e+03 5.43680216e+03 3.48407107e+00
v 6.42802692e+03 5.43311952e+03 3.83685644e+00
v 6.43566429e+03 5.43138480e+03 4.37406895e+00
v 6.43497768e+03 5.41596928e+03 4.19992968e+00
v 6.43706648e+03 5.41689700e+03 4.09993520e+00
v 6.43596224e+03 5.41333139e+03 4.20547599e+00
v 6.43782002e+03 5.41396637e+03 3.70074549e+00
v 6.42999212e+03 5.42346151e+03 4.33159024e+00
v 6.43109411e+03 5.42004190e+03 3.55970220e+00
v 6.43106709e+03 5.42467774e+03 9.37275836e+00
v 6.43244598e+03 5.42547198e+03 4.61533783e+00
v 6.43500880e+03 5.41437027e+03 3.71836927e+00
v 6.43649504e+03 5.42669137e+03 4.51160144e+00
v 6.43351207e+03 5.41937838e+03 4.31114498e+00
v 6.43593896e+03 5.42087794e+03 4.18545918e+00
v 6.42855048e+03 5.43120178e+03 3.68604261e+00
v 6.43054660e+03 5.43723085e+03 4.70165912e+00
v 6.43250551e+03 5.41463433e+03 5.52616361e+00
v 6.43141180e+03 5.41233862e+03 6.03982220e+00
v 6.43265687e+03 5.43183900e+03 4.17093189e+00
v 6.42995076e+03 5.43255463e+03 4.56458985e+00
v 6.43402331e+03 5.42304680e+03 4.41591046e+00
v 6.43078836e+03 5.42296678e+03 3.93532720e+00
v 6.43558692e+03 5.41813389e+03 4.82158983e+00
v 6.42983409e+03 5.42548363e+03 3.40892730e+00
v 6.43487999e+03 5.41163287e+03 3.78177803e+00
v 6.38674563e+03 5.42150670e+03 2.40667749e+01
v 6.41667725e+03 5.42587461e+03 1.63705133e+01
v 6.41491330e+03 5.43191374e+03 1.63553199e+01
v 6.41448539e+03 5.43359027e+03 2.42509547e+01
v 6.41653857e+03 5.42670110e+03 2.42197079e+01
v 6.40604096e+03 5.42708079e+03 2.41088184e+01
v 6.42024411e+03 5.41363008e+03 2.44198581e+01
v 6.42029271e+03 5.41363345e+03 2.05016443e+01
v 6.41818775e+03 5.42076100e+03 2.42599906e+01
v 6.41884442e+03 5.41856634e+03 1.64327621e+01
v 6.41500808e+03 5.41209121e+03 1.64552368e+01
v 6.40323678e+03 5.40883505e+03 2.41073190e+01
v 6.41227291e+03 5.41134135e+03 2.41559419e+01
v 6.43517500e+03 5.41923931e+03 1.15054747e+01
v 6.43749056e+03 5.41551829e+03 1.47645101e+01
v 6.42347326e+03 5.41773665e+03 1.63120790e+01
v 6.42012349e+03 5.41366172e+03 1.68489394e+01
v 6.42115535e+03 5.41052598e+03 1.64082969e+01
v 6.43407315e+03 5.40475632e+03 1.62971157e+01
v 6.43606604e+03 5.41997055e+03 1.64245671e+01
v 6.43263199e+03 5.43209582e+03 1.64661670e+01
v 6.43763927e+03 5.41364310e+03 1.64213146e+01
v 6.43431306e+03 5.42667065e+03 1.63519867e+01
v 6.42141215e+03 5.42361661e+03 1.62439654e+01
v 6.41881091e+03 5.42903070e+03 1.63204926e+01
v 6.42498808e+03 5.42729455e+03 1.62577930e+01
v 6.42057947e+03 5.42577275e+03 1.64956937e+01
v 6.41706960e+03 5.43432972e+03 1.63125636e+01
v 6.41589179e+03 5.40422979e+03 5.90100108e+00
v 6.41368197e+03 5.40152610e+03 9.16055533e+00
v 6.39729480e+03 5.39445155e+03 1.20475036e+01
v 6.39672154e+03 5.39638194e+03 7.83421363e+00
v 6.39675726e+03 5.39694056e+03 9.29445352e+00
v 6.43633734e+03 5.40520670e+03 1.53500277e+01
v 6.42836228e+03 5.40797041e+03 8.72858283e+00
v 6.37558710e+03 5.38712119e+03 1.28874487e+01
v 6.43276327e+03 5.41024142e+03 9.81381398e+00
v 6.41265603e+03 5.40291597e+03 4.88833072e+00
v 6.43707280e+03 5.41446100e+03 1.16256864e+01
v 6.43159130e+03 5.40334601e+03 1.54401969e+01
v 6.39211195e+03 5.38861387e+03 5.74271268e+00
v 6.39031643e+03 5.38965762e+03 8.94114220e+00
v 6.43345327e+03 5.40569061e+03 3.74940346e+00
v 6.43133441e+03 5.40443747e+03 3.85051611e+00
v 6.42467443e+03 5.39255906e+03 3.54109351e+00
v 6.42485411e+03 5.39370283e+03 4.40978940e+00
v 6.42280405e+03 5.38346267e+03 3.87161802e+00
v 6.42072813e+03 5.38266810e+03 4.87778264e+00
v 6.42469293e+03 5.39765234e+03 5.61348688e+00
v 6.42282041e+03 5.39478073e+03 5.60092196e+00
v 6.42007464e+03 5.39171968e+03 4.65602161e+00
v 6.42126756e+03 5.39230672e+03 4.65913415e+00
v 6.42102432e+03 5.39417599e+03 5.64560870e+00
v 6.42245470e+03 5.40420368e+03 5.58929036e+00
v 6.42342718e+03 5.40595125e+03 4.34456668e+00
v 6.42382077e+03 5.40501865e+03 4.78803041e+00
v 6.42706550e+03 5.40911069e+03 4.87103902e+00
v 6.42794789e+03 5.40916669e+03 5.52444666e+00
v 6.42905194e+03 5.41002977e+03 4.03776247e+00
v 6.42558726e+03 5.40549383e+03 1.05221103e+01
v 6.42509025e+03 5.40764429e+03 4.98356347e+00
v 6.42142443e+03 5.40554368e+03 6.82344075e+00
v 6.42110983e+03 5.40635080e+03 7.19386018e+00
v 6.42309452e+03 5.40628633e+03 6.51345338e+00
v 6.42275546e+03 5.40502775e+03 8.45767097e+00
v 6.43602473e+03 5.40416544e+03 3.39997076e+00
v 6.43759665e+03 5.40327432e+03 4.40790032e+00
v 6.43385072e+03 5.40366699e+03 3.46063199e+00
v 6.43489427e+03 5.38340893e+03 3.51416228e+00
v 6.43314071e+03 5.38393213e+03 5.51815026e+00
v 6.43281750e+03 5.39163840e+03 3.66097277e+00
v 6.43512551e+03 5.39114079e+03 4.03384285e+00
v 6.43251489e+03 5.39111857e+03 4.37938671e+00
v 6.43216544e+03 5.39357624e+03 4.39002920e+00
v 6.42082152e+03 5.39447670e+03 4.66761041e+00
v 6.41748240e+03 5.38764492e+03 4.29624564e+00
v 6.41730911e+03 5.38949534e+03 3.49697571e+00
v 6.39640407e+03 5.39810087e+03 4.72327071e+00
v 6.39674443e+03 5.39619742e+03 6.09984787e+00
v 6.41688738e+03 5.40578659e+03 4.94631663e+00
v 6.41537184e+03 5.40108406e+03 4.43987780e+00
v 6.41647436e+03 5.40382269e+03 4.74782177e+00
v 6.40991397e+03 5.39803088e+03 4.34540122e+00
v 6.41064702e+03 5.40058207e+03 5.73319127e+00
v 6.41434674e+03 5.40341373e+03 4.38688514e+00
v 6.40849983e+03 5.39887782e+03 5.38443355e+00
v 6.41158059e+03 5.39836873e+03 9.50631224e+00
v 6.40901942e+03 5.39910294e+03 4.26296371e+00
v 6.41058897e+03 5.39698196e+03 3.78439795e+00
v 6.41015820e+03 5.39759255e+03 7.39445174e+00
v 6.41818952e+03 5.40335481e+03 1.07715158e+01
v 6.41194663e+03 5.39970191e+03 4.63997533e+00
v 6.42050702e+03 5.40426999e+03 4.98540102e+00
v 6.43504594e+03 5.40522244e+03 4.71490733e+00
v 6.42224599e+03 5.40605247e+03 4.66184938e+00
v 6.43707471e+03 5.41041545e+03 4.17126244e+00
v 6.43155665e+03 5.40689562e+03 3.66622437e+00
v 6.42931646e+03 5.40676130e+03 4.00057333e+00
v 6.39362825e+03 5.39409257e+03 7.77301839e+00
v 6.39197123e+03 5.39355372e+03 6.98176515e+00
v 6.39431940e+03 5.39310707e+03 7.82185069e+00
v 6.39566826e+03 5.39583249e+03 6.94050652e+00
v 6.39524173e+03 5.39604084e+03 7.95760175e+00
v 6.39359534e+03 5.38798699e+03 3.68266616e+00
v 6.39300748e+03 5.38889362e+03 6.14378756e+00
v 6.39572812e+03 5.38764294e+03 3.63722593e+00
v 6.38937670e+03 5.39232859e+03 1.00790295e+01
v 6.38783636e+03 5.39412007e+03 8.70603910e+00
v 6.38752996e+03 5.39151140e+03 9.87396223e+00
v 6.38287621e+03 5.39199581e+03 9.20907527e+00
v 6.37870342e+03 5.39061214e+03 9.32487755e+00
v 6.38376190e+03 5.39342245e+03 1.02944407e+01
v 6.38494438e+03 5.39302463e+03 8.91942105e+00
v 6.39206595e+03 5.39531362e+03 8.30837112e+00
v 6.39749449e+03 5.39463120e+03 6.46935491e+00
v 6.40564232e+03 5.39487193e+03 8.59910755e+00
v 6.40436108e+03 5.39465234e+03 6.26516592e+00
v 6.37788992e+03 5.38861907e+03 1.19601115e+01
v 6.37651410e+03 5.40123574e+03 1.97699355e+01
v 6.37592248e+03 5.40147107e+03 1.74037260e+01
v 6.37761400e+03 5.38785585e+03 1.39267789e+01
v 6.38118079e+03 5.38864519e+03 1.56103630e+01
v 6.38551896e+03 5.38967335e+03 1.60083692e+01
v 6.38882152e+03 5.39145606e+03 1.40034301e+01
v 6.38851625e+03 5.39400587e+03 1.09957220e+01
v 6.38526472e+03 5.38967852e+03 1.45785370e+01
v 6.38594979e+03 5.39247295e+03 1.18522985e+01
v 6.38721417e+03 5.39462898e+03 9.90538692e+00
v 6.39628441e+03 5.39305427e+03 1.56584082e+01
v 6.39214847e+03 5.39145233e+03 1.44003823e+01
v 6.39805627e+03 5.39292740e+03 8.62996853e+00
v 6.37490572e+03 5.38964394e+03 9.05766342e+00
v 6.38187528e+03 5.39239810e+03 9.41219020e+00
v 6.38233556e+03 5.39140913e+03 1.18920310e+01
v 6.37674215e+03 5.38856376e+03 1.09676099e+01
v 6.41057309e+03 5.39576191e+03 1.00956061e+01
v 6.40836972e+03 5.39566277e+03 1.17418756e+01
v 6.41651259e+03 5.39970954e+03 1.42462778e+01
v 6.41157402e+03 5.39764173e+03 1.20844000e+01
v 6.41083857e+03 5.39647701e+03 1.62892653e+01
v 6.41206260e+03 5.39738347e+03 1.57087303e+01
v 6.40589170e+03 5.40237388e+03 1.74116220e+01
v 6.40409730e+03 5.40436385e+03 1.62534493e+01
v 6.41470722e+03 5.39916142e+03 1.65384383e+01
v 6.42002632e+03 5.40018246e+03 1.55469321e+01
v 6.41861507e+03 5.40553754e+03 5.91480511e+00
v 6.42291180e+03 5.40469662e+03 1.08578934e+01
v 6.42153236e+03 5.40530429e+03 1.02184956e+01
v 6.41893887e+03 5.40517024e+03 4.13117767e+00
v 6.41766225e+03 5.40472449e+03 3.82378082e+00
v 6.39556720e+03 5.39588869e+03 1.17483341e+01
v 6.40574244e+03 5.40938933e+03 1.64972731e+01
v 6.39812862e+03 5.39268139e+03 1.51979307e+01
v 6.40949342e+03 5.40291869e+03 1.63017952e+01
v 6.40878721e+03 5.40557306e+03 1.60885917e+01
v 6.40410024e+03 5.39440176e+03 1.27873707e+01
v 6.40834809e+03 5.39567665e+03 1.55512243e+01
v 6.37572824e+03 5.38778150e+03 1.00289895e+01
v 6.40805613e+03 5.39250808e+03 4.56182001e+00
v 6.41003289e+03 5.39422952e+03 4.53345055e+00
v 6.39383601e+03 5.38373610e+03 3.94191883e+00
v 6.39429240e+03 5.38522470e+03 7.80329302e+00
v 6.40253342e+03 5.39415439e+03 8.51578072e+00
v 6.37837027e+03 5.39003575e+03 1.16441553e+01
v 6.38318283e+03 5.38989439e+03 9.86860229e+00
v 6.38168968e+03 5.38858424e+03 9.07344196e+00
v 6.38047896e+03 5.38894905e+03 1.40142785e+01
v 6.42619510e+03 5.39593223e+03 4.15568051e+00
v 6.42723695e+03 5.39552946e+03 5.48696909e+00
v 6.42421443e+03 5.39774161e+03 4.86279280e+00
v 6.42204050e+03 5.38351978e+03 5.48141001e+00
v 6.42494074e+03 5.40516142e+03 8.79882098e+00
v 6.43296820e+03 5.40371620e+03 5.02804344e+00
v 6.40696173e+03 5.39476756e+03 1.06063561e+01
v 6.41943632e+03 5.40339544e+03 5.17338941e+00
v 6.42361371e+03 5.40115169e+03 1.64591585e+01
v 6.39350645e+03 5.39229113e+03 1.64563659e+01
v 6.39362473e+03 5.39672036e+03 8.90273337e+00
v 6.39201748e+03 5.39462280e+03 1.09730214e+01
v 6.42907184e+03 5.41187820e+03 5.09921179e+00
v 6.43442054e+03 5.41531223e+03 9.00421187e+00
v 6.42043351e+03 5.39079816e+03 4.92649685e+00
v 6.42034402e+03 5.39069984e+03 4.69903393e+00
v 6.39634002e+03 5.39261356e+03 6.46339713e+00
v 6.39439511e+03 5.38494667e+03 9.03612740e+00
v 6.39703568e+03 5.38204344e+03 9.02206882e+00
v 6.41075913e+03 5.39753724e+03 3.43864427e+00
v 6.41065301e+03 5.39551029e+03 3.52236902e+00
v 6.41868048e+03 5.40162208e+03 3.72947047e+00
v 6.42224556e+03 5.40234908e+03 3.55337160e+00
v 6.41465912e+03 5.38287461e+03 3.39647971e+00
v 6.41026185e+03 5.38145636e+03 3.47133022e+00
v 6.40236388e+03 5.38050608e+03 3.48245938e+00
v 6.39389076e+03 5.38548810e+03 3.47111477e+00
v 6.40699054e+03 5.38998769e+03 3.63894886e+00
v 6.41423218e+03 5.38599215e+03 3.59921268e+00
v 6.41819657e+03 5.38509002e+03 3.58503877e+00
v 6.42103257e+03 5.38437529e+03 3.78086821e+00
v 6.41980143e+03 5.38927743e+03 4.13719795e+00
v 6.42287809e+03 5.38888564e+03 3.57649496e+00
v 6.43506800e+03 5.39427534e+03 3.44217044e+00
v 6.43595039e+03 5.40763292e+03 4.71703787e+00
v 6.42502534e+03 5.40386369e+03 4.22524685e+00
v 6.42473867e+03 5.40275351e+03 3.49016849e+00
v 6.42651148e+03 5.40290856e+03 3.64948409e+00
v 6.42886739e+03 5.40106220e+03 3.56554186e+00
v 6.41977017e+03 5.39997693e+03 3.54464114e+00
v 6.43692197e+03 5.39841237e+03 3.60403519e+00
v 6.43151240e+03 5.39923326e+03 3.43783161e+00
v 6.43587148e+03 5.39194466e+03 3.58528077e+00
v 6.42673124e+03 5.38387692e+03 3.48331894e+00
v 6.43041997e+03 5.38234693e+03 3.50829989e+00
v 6.43746054e+03 5.38625143e+03 3.46879849e+00
v 6.43795146e+03 5.39653711e+03 3.51439386e+00
v 6.41801664e+03 5.39745036e+03 3.49462499e+00
v 6.42863639e+03 5.39328705e+03 3.73970130e+00
v 6.42689544e+03 5.39645217e+03 3.53389688e+00
v 6.41603941e+03 5.39861717e+03 3.42444452e+00
v 6.41386652e+03 5.39955163e+03 3.66967425e+00
v 6.39994348e+03 5.39373597e+03 3.46762281e+00
v 6.39731054e+03 5.39182453e+03 3.44466621e+00
v 6.42946328e+03 5.40231549e+03 3.79079148e+00
v 6.42146429e+03 5.38601590e+03 3.45013662e+00
v 6.43425127e+03 5.38901126e+03 3.61486113e+00
v 6.39688879e+03 5.38140570e+03 6.08855779e+00
v 6.43607612e+03 5.40100561e+03 3.45504589e+00
v 6.42957208e+03 5.40550293e+03 3.47742004e+00
v 6.40842776e+03 5.39612901e+03 3.66251308e+00
v 6.40661673e+03 5.39518609e+03 3.67226814e+00
v 6.41148345e+03 5.38439038e+03 4.08797272e+00
v 6.42623622e+03 5.38870002e+03 3.41586810e+00
v 6.39727296e+03 5.39009378e+03 3.53799014e+00
v 6.39902467e+03 5.39038706e+03 6.20594123e+00
v 6.39228328e+03 5.38660253e+03 5.15635586e+00
v 6.40688103e+03 5.39424206e+03 3.71165956e+00
v 6.40418521e+03 5.39489755e+03 3.53304371e+00
v 6.41260272e+03 5.38662272e+03 3.92277450e+00
v 6.41597818e+03 5.38576517e+03 4.41017551e+00
v 6.41730631e+03 5.38212110e+03 3.57525143e+00
v 6.40893797e+03 5.38601606e+03 3.60045178e+00
v 6.40970128e+03 5.38890643e+03 4.31214806e+00
v 6.39689232e+03 5.38134911e+03 3.93398322e+00
v 6.41886573e+03 5.38791704e+03 3.66485247e+00
v 6.41634920e+03 5.38690332e+03 3.58731114e+00
v 6.42367544e+03 5.40164361e+03 3.78813008e+00
v 6.40791292e+03 5.39437949e+03 4.95116960e+00
v 6.42816687e+03 5.39880828e+03 3.86354348e+00
v 6.42914124e+03 5.39946115e+03 4.41288132e+00
v 6.42051521e+03 5.40539629e+03 4.07309847e+00
v 6.43666761e+03 5.40563992e+03 3.54187365e+00
v 6.42575234e+03 5.39999943e+03 3.42998884e+00
v 6.43008778e+03 5.40273479e+03 5.36506243e+00
v 6.43137894e+03 5.40303495e+03 3.60440198e+00
v 6.42883918e+03 5.40328232e+03 3.57456520e+00
v 6.42914480e+03 5.39584112e+03 3.46533936e+00
v 6.42665257e+03 5.39453210e+03 3.58175651e+00
v 6.42018652e+03 5.39703189e+03 4.66039700e+00
v 6.42228188e+03 5.40372358e+03 4.41281166e+00
v 6.41902481e+03 5.40250522e+03 4.68902024e+00
v 6.42807039e+03 5.39699592e+03 4.21552150e+00
v 6.42676735e+03 5.40705737e+03 3.93801414e+00
v 6.42621539e+03 5.40445896e+03 3.57291661e+00
v 6.42274320e+03 5.39126272e+03 3.62236838e+00
v 6.42776580e+03 5.39160201e+03 3.34125286e+00
v 6.42301110e+03 5.38747361e+03 3.96690642e+00
v 6.42059992e+03 5.38286797e+03 4.16751645e+00
v 6.42010852e+03 5.38517540e+03 4.21104078e+00
v 6.43017730e+03 5.38516957e+03 3.53579709e+00
v 6.43030760e+03 5.38801033e+03 3.74378482e+00
v 6.43124397e+03 5.38691617e+03 4.30443932e+00
v 6.43171019e+03 5.39626128e+03 3.58028649e+00
v 6.42489272e+03 5.38712761e+03 4.61753263e+00
v 6.41029703e+03 5.39614884e+03 7.40819750e+00
v 6.42937810e+03 5.39097332e+03 4.44153306e+00
v 6.42090946e+03 5.39027377e+03 4.34381938e+00
v 6.42107009e+03 5.38963126e+03 3.50350514e+00
v 6.42368915e+03 5.38831750e+03 4.37520049e+00
v 6.43077212e+03 5.39094269e+03 4.15269941e+00
v 6.42853954e+03 5.39061340e+03 5.49223439e+00
v 6.43077386e+03 5.38526695e+03 4.24685154e+00
v 6.43796771e+03 5.40034344e+03 4.25614734e+00
v 6.42984603e+03 5.38387552e+03 4.35956473e+00
v 6.42217825e+03 5.38474504e+03 4.33801896e+00
v 6.42316274e+03 5.38382793e+03 4.90094390e+00
v 6.41877788e+03 5.38189343e+03 4.22184085e+00
v 6.42392157e+03 5.39380403e+03 5.01867711e+00
v 6.43676211e+03 5.38883949e+03 3.42618696e+00
v 6.43429448e+03 5.40838928e+03 3.78427909e+00
v 6.43748645e+03 5.40624147e+03 4.35737191e+00
v 6.43587451e+03 5.40655216e+03 4.15916439e+00
v 6.43709289e+03 5.41162266e+03 4.41022500e+00
v 6.43481506e+03 5.38800281e+03 5.64041292e+00
v 6.43408867e+03 5.38802995e+03 4.10842237e+00
v 6.43558507e+03 5.38761876e+03 4.18140874e+00
v 6.43519221e+03 5.38585291e+03 3.81153262e+00
v 6.43304380e+03 5.39127955e+03 5.65406505e+00
v 6.43290162e+03 5.38530332e+03 4.26840504e+00
v 6.43499109e+03 5.38445992e+03 4.64832367e+00
v 6.42614331e+03 5.38139000e+03 3.66873259e+00
v 6.42278882e+03 5.39303172e+03 4.24661813e+00
v 6.42758231e+03 5.40438442e+03 4.29237719e+00
v 6.42638249e+03 5.38604504e+03 3.44532126e+00
v 6.42839935e+03 5.40649622e+03 4.66214300e+00
v 6.42599361e+03 5.39616462e+03 6.03626690e+00
v 6.43189855e+03 5.38391104e+03 5.25017599e+00
v 6.43763004e+03 5.38513830e+03 4.63402208e+00
v 6.43372834e+03 5.38629951e+03 4.25919446e+00
v 6.43071263e+03 5.38820393e+03 5.11148423e+00
v 6.43001071e+03 5.38575245e+03 5.92162186e+00
v 6.43268088e+03 5.38946919e+03 4.79231784e+00
v 6.43093895e+03 5.38318970e+03 4.67316270e+00
v 6.42513661e+03 5.39371835e+03 5.54105839e+00
v 6.41927932e+03 5.39261158e+03 4.56348985e+00
v 6.42007136e+03 5.38895883e+03 5.59100949e+00
v 6.41862377e+03 5.38969081e+03 5.35487805e+00
v 6.41930166e+03 5.38977402e+03 4.44538721e+00
v 6.42031704e+03 5.39129672e+03 4.15688001e+00
v 6.43118883e+03 5.39026124e+03 5.34296472e+00
v 6.43284597e+03 5.39370503e+03 5.62703522e+00
v 6.42540333e+03 5.39794925e+03 4.14090209e+00
v 6.41389648e+03 5.39543236e+03 5.04923056e+00
v 6.42038853e+03 5.39083911e+03 4.85989976e+00
v 6.41930931e+03 5.39069772e+03 3.48007566e+00
v 6.42032164e+03 5.39088012e+03 4.88645611e+00
v 6.42260995e+03 5.38659889e+03 6.22368951e+00
v 6.42586890e+03 5.38464094e+03 5.04121224e+00
v 6.42085508e+03 5.39294181e+03 3.53058462e+00
v 6.42113189e+03 5.38201484e+03 4.75688465e+00
v 6.42118490e+03 5.38129438e+03 4.29996953e+00
v 6.42289803e+03 5.38192049e+03 4.45010618e+00
v 6.42336870e+03 5.38152459e+03 5.58766868e+00
v 6.42407241e+03 5.38129240e+03 3.62078543e+00
v 6.42111565e+03 5.38177518e+03 3.62740074e+00
v 6.42226808e+03 5.38147600e+03 4.48980289e+00
v 6.42688195e+03 5.39341157e+03 4.66510712e+00
v 6.42144875e+03 5.39014354e+03 5.34468762e+00
v 6.43230605e+03 5.38667142e+03 6.55067742e+00
v 6.42140393e+03 5.38129430e+03 5.29024667e+00
v 6.42336229e+03 5.38409706e+03 6.08635685e+00
v 6.42020270e+03 5.38236890e+03 5.70514710e+00
v 6.42732293e+03 5.38216352e+03 6.37091875e+00
v 6.42566367e+03 5.38722691e+03 6.48596062e+00
v 6.42785553e+03 5.39338617e+03 5.46443862e+00
v 6.42252355e+03 5.39270387e+03 5.90883175e+00
v 6.41983039e+03 5.39145848e+03 5.48958663e+00
v 6.43073791e+03 5.39151817e+03 6.66127041e+00
v 6.42088703e+03 5.40578304e+03 5.00423468e+00
v 6.43777182e+03 5.40964187e+03 4.96445514e+00
v 6.43781066e+03 5.40830050e+03 4.52212346e+00
v 6.39176156e+03 5.38502455e+03 9.00461831e+00
v 6.39164722e+03 5.38768402e+03 9.37633849e+00
v 6.39359791e+03 5.38546173e+03 9.45488571e+00
v 6.39478237e+03 5.38438777e+03 9.38521775e+00
v 6.37820212e+03 5.38837405e+03 9.06230298e+00
v 6.37861557e+03 5.37954025e+03 9.05816227e+00
v 6.37591919e+03 5.38724272e+03 9.03076501e+00
v 6.41321975e+03 5.38714332e+03 4.61782925e+00
v 6.39562134e+03 5.38721749e+03 6.27010551e+00
v 6.41106854e+03 5.39121441e+03 4.29422165e+00
v 6.41135158e+03 5.39294613e+03 5.17977912e+00
v 6.41351259e+03 5.40178811e+03 5.04577141e+00
v 6.39817276e+03 5.39267018e+03 6.10724792e+00
v 6.39162164e+03 5.39189620e+03 6.19688536e+00
v 6.39348517e+03 5.39298837e+03 7.57354524e+00
v 6.39334745e+03 5.39277267e+03 7.44818511e+00
v 6.39371803e+03 5.39289044e+03 8.61044942e+00
v 6.39345834e+03 5.39273165e+03 7.71114589e+00
v 6.38866725e+03 5.39371771e+03 9.43202405e+00
v 6.39012479e+03 5.39488246e+03 9.23083022e+00
v 6.38086235e+03 5.38884917e+03 1.03882279e+01
v 6.39100219e+03 5.39210858e+03 8.34264529e+00
v 6.38919496e+03 5.39083635e+03 9.52010340e+00
v 6.38960962e+03 5.39199964e+03 8.94525222e+00
v 6.38602675e+03 5.38957679e+03 8.97137252e+00
v 6.37910856e+03 5.40175836e+03 2.42356211e+01
v 6.37540390e+03 5.39459664e+03 1.63141521e+01
v 6.37911697e+03 5.39701401e+03 1.63457004e+01
v 6.37747857e+03 5.40110525e+03 1.66671842e+01
v 6.38402712e+03 5.39990240e+03 1.64819964e+01
v 6.37638646e+03 5.38710799e+03 1.60424234e+01
v 6.37826683e+03 5.38860521e+03 1.42981996e+01
v 6.37910642e+03 5.38766858e+03 1.63877732e+01
v 6.37636737e+03 5.38779593e+03 1.40638946e+01
v 6.37486393e+03 5.38723873e+03 1.64913210e+01
v 6.38487492e+03 5.39044280e+03 1.64249930e+01
v 6.37607556e+03 5.39175406e+03 1.66891426e+01
v 6.38396028e+03 5.40298323e+03 2.45051585e+01
v 6.37667275e+03 5.40319146e+03 1.65533875e+01
v 6.38110314e+03 5.40218637e+03 2.12690080e+01
v 6.38020391e+03 5.38897031e+03 1.65472415e+01
v 6.38529249e+03 5.40340438e+03 1.66363730e+01
v 6.39006136e+03 5.40132984e+03 1.64383872e+01
v 6.39528828e+03 5.40631623e+03 2.42489612e+01
v 6.39088455e+03 5.40500847e+03 1.65189592e+01
v 6.39848378e+03 5.40724801e+03 1.65402972e+01
v 6.38774129e+03 5.40438139e+03 2.40797873e+01
v 6.39800097e+03 5.39277905e+03 1.88279743e+01
v 6.39611719e+03 5.39940088e+03 1.88558724e+01
v 6.39611424e+03 5.39969929e+03 1.62572058e+01
v 6.39765109e+03 5.39392507e+03 1.65479356e+01
v 6.39974646e+03 5.40033523e+03 1.88593522e+01
v 6.38868072e+03 5.39074373e+03 1.59867377e+01
v 6.39991119e+03 5.39280128e+03 1.58673529e+01
v 6.39218246e+03 5.39867429e+03 1.64032604e+01
v 6.38526437e+03 5.39691891e+03 1.63305698e+01
v 6.39567845e+03 5.40345673e+03 1.64977929e+01
v 6.39679268e+03 5.40205000e+03 1.62817686e+01
v 6.40397325e+03 5.40595203e+03 1.65744261e+01
v 6.40907127e+03 5.40339548e+03 1.89514676e+01
v 6.40895689e+03 5.40387378e+03 1.76136282e+01
v 6.41354212e+03 5.40887609e+03 1.66036705e+01
v 6.41468351e+03 5.40550659e+03 1.63664814e+01
v 6.41766364e+03 5.40833907e+03 1.62343279e+01
v 6.40030097e+03 5.39330875e+03 1.11009683e+01
v 6.41492341e+03 5.39829398e+03 1.55928417e+01
v 6.41032017e+03 5.39870541e+03 1.65848469e+01
v 6.40200448e+03 5.40114997e+03 1.75718222e+01
v 6.40287585e+03 5.39399166e+03 1.55637093e+01
v 6.40421788e+03 5.40160502e+03 1.87890482e+01
v 6.41082454e+03 5.39650481e+03 1.89050028e+01
v 6.42573331e+03 5.37502085e+03 3.52721592e+00
v 6.42187529e+03 5.37946817e+03 3.53345684e+00
v 6.42939960e+03 5.37751433e+03 3.38751737e+00
v 6.43100745e+03 5.37534966e+03 3.72584966e+00
v 6.43012959e+03 5.37520984e+03 4.20335397e+00
v 6.40677089e+03 5.37456995e+03 3.93203146e+00
v 6.41430241e+03 5.37772601e+03 3.43142949e+00
v 6.40831072e+03 5.37519962e+03 3.52421499e+00
v 6.42238379e+03 5.37495752e+03 3.58032495e+00
v 6.41818836e+03 5.37785523e+03 3.59318122e+00
v 6.41593523e+03 5.38108773e+03 3.91395263e+00
v 6.43777731e+03 5.37906037e+03 3.52406417e+00
v 6.43290412e+03 5.37743330e+03 3.60180396e+00
v 6.40062784e+03 5.37799849e+03 3.30591110e+00
v 6.41990734e+03 5.38075301e+03 3.67936193e+00
v 6.41948657e+03 5.37940977e+03 4.20729727e+00
v 6.41687279e+03 5.37930850e+03 4.32608310e+00
v 6.42432390e+03 5.38089984e+03 6.26774885e+00
v 6.43072309e+03 5.37522243e+03 5.97555118e+00
v 6.40819214e+03 5.37457422e+03 6.22560734e+00
v 6.40208204e+03 5.37666886e+03 7.51633477e+00
v 6.40177485e+03 5.37592185e+03 4.71553379e+00
v 6.39884716e+03 5.38039235e+03 3.54437510e+00
v 6.39953444e+03 5.37915201e+03 7.02009297e+00
v 6.40033882e+03 5.37659247e+03 8.36798166e+00
v 6.39941405e+03 5.37942030e+03 8.60112630e+00
v 6.39917692e+03 5.37945000e+03 8.73201745e+00
v 6.39715435e+03 5.37737634e+03 8.73551668e+00
v 6.40112650e+03 5.37743796e+03 8.80994585e+00
v 6.39915459e+03 5.37940517e+03 8.88475550e+00
v 6.40306713e+03 5.37511837e+03 8.63057737e+00
v 6.43265739e+03 5.41938520e+03 6.89503170e+00
v 6.43380371e+03 5.42735997e+03 1.45731554e+01
v 6.37450001e+03 5.37767942e+03 8.95706995e+00
v 6.37450001e+03 5.37901732e+03 9.06445269e+00
v 6.37450001e+03 5.38234398e+03 9.04106971e+00
v 6.37450001e+03 5.39982057e+03 1.63664707e+01
v 6.37450001e+03 5.40029667e+03 1.64147855e+01
v 6.37450001e+03 5.38715585e+03 9.49565245e+00
v 6.37450001e+03 5.38689412e+03 9.05076689e+00
v 6.37450001e+03 5.40028283e+03 2.44420583e+01
v 6.37450001e+03 5.40026792e+03 2.42383882e+01
v 6.37450001e+03 5.40034439e+03 2.35264156e+01
v 6.37450001e+03 5.40037978e+03 1.70894620e+01
v 6.37450001e+03 5.40051398e+03 1.66541934e+01
v 6.37450001e+03 5.40351129e+03 2.41036417e+01
v 6.37450001e+03 5.38710463e+03 1.49830346e+01
v 6.37450001e+03 5.38698358e+03 1.63161539e+01
v 6.37450001e+03 5.38713868e+03 1.64866282e+01
v 6.37450001e+03 5.38947651e+03 1.63995377e+01
v 6.37450001e+03 5.39119077e+03 1.63841004e+01
v 6.37450001e+03 5.39188652e+03 1.63288163e+01
v 6.37450001e+03 5.39422320e+03 1.63232618e+01
v 6.37450001e+03 5.38701656e+03 1.41225377e+01
v 6.37450001e+03 5.38648797e+03 9.05841545e+00
v 6.37450001e+03 5.38361491e+03 9.08355081e+00
v 6.37450001e+03 5.39806950e+03 1.63483952e+01
v 6.37450001e+03 5.40813198e+03 2.42134313e+01
v 6.37450001e+03 5.41333828e+03 2.41428561e+01
v 6.37450001e+03 5.38779268e+03 9.84682202e+00
v 6.37450001e+03 5.38920080e+03 9.20208356e+00
v 6.37450001e+03 5.38957684e+03 9.07620488e+00
v 6.37450001e+03 5.38740307e+03 1.29090774e+01
v 6.37450001e+03 5.38702705e+03 1.36495305e+01
v 6.37450001e+03 5.38949554e+03 9.48117754e+00
v 6.37450001e+03 5.38961567e+03 9.17416372e+00
v 6.37450001e+03 5.41951878e+03 2.41361861e+01
v 6.43799999e+03 5.37861271e+03 3.51811494e+00
v 6.43799999e+03 5.37912695e+03 3.52616388e+00
v 6.43799999e+03 5.37985568e+03 3.52494542e+00
v 6.43799999e+03 5.40537664e+03 3.70564478e+00
v 6.43799999e+03 5.40458344e+03 3.54396283e+00
v 6.43799999e+03 5.40561249e+03 1.64341198e+01
v 6.43799999e+03 5.40559067e+03 1.59168200e+01
v 6.43799999e+03 5.40836747e+03 4.28908120e+00
v 6.43799999e+03 5.40912645e+03 4.51004942e+00
v 6.43799999e+03 5.40859131e+03 1.44564538e+01
v 6.43799999e+03 5.40609219e+03 1.51477795e+01
v 6.43799999e+03 5.41265812e+03 1.63541509e+01
v 6.43799999e+03 5.41229565e+03 1.64339387e+01
v 6.43799999e+03 5.40434487e+03 3.67058233e+00
v 6.43799999e+03 5.40278495e+03 4.05897453e+00
v 6.43799999e+03 5.40634983e+03 4.64889886e+00
v 6.43799999e+03 5.40611911e+03 4.22205907e+00
v 6.43799999e+03 5.41332854e+03 3.69986762e+00
v 6.43799999e+03 5.41363103e+03 3.74401592e+00
v 6.43799999e+03 5.40809870e+03 4.63194768e+00
v 6.43799999e+03 5.40028761e+03 4.20998667e+00
v 6.43799999e+03 5.40043568e+03 4.21925136e+00
v 6.43799999e+03 5.38417784e+03 3.52539029e+00
v 6.43799999e+03 5.38499687e+03 4.38951083e+00
v 6.43799999e+03 5.40583629e+03 3.85594719e+00
v 6.43799999e+03 5.38573783e+03 3.48677032e+00
v 6.43799999e+03 5.38649802e+03 3.51413799e+00
v 6.43799999e+03 5.38792194e+03 3.52201858e+00
v 6.43799999e+03 5.38940799e+03 3.65680920e+00
v 6.43799999e+03 5.38891036e+03 3.46657938e+00
v 6.43799999e+03 5.39335480e+03 3.59439364e+00
v 6.43799999e+03 5.39497473e+03 3.64246223e+00
v 6.43799999e+03 5.39621180e+03 3.54441113e+00
v 6.43799999e+03 5.39898581e+03 3.46248940e+00
v 6.43799999e+03 5.39675132e+03 3.50448075e+00
v 6.43799999e+03 5.41130382e+03 3.83888517e+00
v 6.43799999e+03 5.41103131e+03 4.02942986e+00
v 6.43799999e+03 5.41046821e+03 3.91552498e+00
v 6.43799999e+03 5.40893503e+03 3.98879387e+00
v 6.43799999e+03 5.40451627e+03 3.53919349e+00
v 6.43799999e+03 5.40227786e+03 3.54755072e+00
v 6.43799999e+03 5.39653920e+03 3.52159928e+00
v 6.43799999e+03 5.40183561e+03 3.53550305e+00
v 6.43799999e+03 5.39095415e+03 3.79981116e+00
v 6.43799999e+03 5.39131360e+03 3.55298767e+00
v 6.43799999e+03 5.39249451e+03 3.63636292e+00
v 6.43799999e+03 5.40952812e+03 1.38889722e+01
v 6.43799999e+03 5.41009774e+03 1.36632062e+01
v 6.43799999e+03 5.41372215e+03 1.51341563e+01
v 6.43799999e+03 5.41224277e+03 1.44721652e+01
v 6.43799999e+03 5.41105423e+03 1.33994600e+01
v 6.43799999e+03 5.42149456e+03 4.34749126e+00
v 6.43799999e+03 5.42075392e+03 4.31761965e+00
v 6.43799999e+03 5.41399066e+03 3.74312254e+00
v 6.43799999e+03 5.41617315e+03 4.15813693e+00
v 6.43799999e+03 5.42425978e+03 3.79306843e+00
v 6.43799999e+03 5.42213719e+03 4.37963098e+00
v 6.43799999e+03 5.43501200e+03 3.22479342e+00
v 6.43799999e+03 5.43369405e+03 3.17319401e+00
v 6.43799999e+03 5.43313805e+03 3.27873648e+00
v 6.43799999e+03 5.42841889e+03 3.41270883e+00
v 6.43799999e+03 5.43741193e+03 3.12127404e+00
v 6.43799999e+03 5.42507274e+03 3.59722554e+00
v 6.40182545e+03 5.37450001e+03 8.15102555e+00
v 6.40298392e+03 5.37450001e+03 8.40682870e+00
v 6.40379790e+03 5.37450001e+03 8.25854827e+00
v 6.40378438e+03 5.37450001e+03 8.31917755e+00
v 6.40357745e+03 5.37450001e+03 8.27790969e+00
v 6.38177420e+03 5.37450001e+03 8.93278897e+00
v 6.38637244e+03 5.37450001e+03 8.78641141e+00
v 6.39003743e+03 5.37450001e+03 8.72711671e+00
v 6.37755596e+03 5.37450001e+03 8.88814950e+00
v 6.40323783e+03 5.37450001e+03 7.87726530e+00
v 6.40370080e+03 5.37450001e+03 8.30298819e+00
v 6.39502759e+03 5.37450001e+03 8.42493371e+00
v 6.39288188e+03 5.37450001e+03 8.69825133e+00
v 6.40375890e+03 5.37450001e+03 8.35277531e+00
v 6.40355177e+03 5.37450001e+03 8.45214278e+00
v 6.40398515e+03 5.37450001e+03 7.97022388e+00
v 6.40374930e+03 5.37450001e+03 8.33078653e+00
v 6.40363872e+03 5.37450001e+03 8.58491936e+00
v 6.40114807e+03 5.37450001e+03 8.32547358e+00
v 6.39948337e+03 5.37450001e+03 8.52862097e+00
v 6.40337061e+03 5.37450001e+03 8.37290802e+00
v 6.40407946e+03 5.37450001e+03 7.48146604e+00
v 6.40344129e+03 5.37450001e+03 5.40129978e+00
v 6.40389326e+03 5.37450001e+03 3.63174575e+00
v 6.40358258e+03 5.37450001e+03 5.77891988e+00
v 6.40673778e+03 5.37450001e+03 4.08250681e+00
v 6.40806219e+03 5.37450001e+03 6.23143479e+00
v 6.40850027e+03 5.37450001e+03 3.81991248e+00
v 6.40830905e+03 5.37450001e+03 3.80906510e+00
v 6.40857522e+03 5.37450001e+03 3.51882039e+00
v 6.40819962e+03 5.37450001e+03 6.09594757e+00
v 6.40686581e+03 5.37450001e+03 3.95114741e+00
v 6.40824966e+03 5.37450001e+03 6.22650242e+00
v 6.43080542e+03 5.37450001e+03 7.72031298e+00
v 6.42982318e+03 5.37450001e+03 9.00489324e+00
v 6.43100562e+03 5.37450001e+03 6.53930108e+00
v 6.43010281e+03 5.37450001e+03 6.95873954e+00
v 6.42992380e+03 5.37450001e+03 5.95282866e+00
v 6.42606905e+03 5.37450001e+03 3.54370994e+00
v 6.42582832e+03 5.37450001e+03 3.53139167e+00
v 6.43501381e+03 5.37450001e+03 3.53389126e+00
v 6.43112427e+03 5.37450001e+03 3.70060467e+00
v 6.43252311e+03 5.37450001e+03 3.58145579e+00
v 6.40399413e+03 5.37450001e+03 3.47671184e+00
v 6.42244797e+03 5.37450001e+03 3.57527264e+00
v 6.42196773e+03 5.37450001e+03 3.57717531e+00
v 6.43010618e+03 5.37450001e+03 3.69754370e+00
v 6.42991423e+03 5.37450001e+03 3.68765585e+00
v 6.40961821e+03 5.37450001e+03 3.51950616e+00
v 6.41329042e+03 5.37450001e+03 3.48187321e+00
v 6.41714187e+03 5.37450001e+03 3.53355350e+00
v 6.41991079e+03 5.37450001e+03 3.55453569e+00
v 6.41658728e+03 5.37450001e+03 3.51055814e+00
v 6.42528924e+03 5.37450001e+03 3.52974974e+00
v 6.40506489e+03 5.37450001e+03 3.49423512e+00
v 6.42942369e+03 5.37450001e+03 3.63901198e+00
v 6.42787137e+03 5.37450001e+03 3.61023267e+00
v 6.42838885e+03 5.37450001e+03 3.51699362e+00
v 6.42967133e+03 5.37450001e+03 3.85602054e+00
v 6.43029301e+03 5.37450001e+03 3.44514620e+00
v 6.43033437e+03 5.37450001e+03 4.12471809e+00
v 6.40607632e+03 5.37450001e+03 3.81256050e+00
v 6.37495678e+03 5.37450001e+03 8.86140341e+00
v 6.37450001e+03 5.37450001e+03 8.85670309e+00
v 6.43529036e+03 5.37450001e+03 3.53002039e+00
v 6.43799999e+03 5.37450001e+03 3.49209397e+00
v 6.41649872e+03 5.43799999e+03 1.62679323e+01
v 6.41824129e+03 5.43799999e+03 1.62321013e+01
v 6.40705666e+03 5.43799999e+03 2.40886407e+01
v 6.40992070e+03 5.43799999e+03 2.41449666e+01
v 6.41388076e+03 5.43799999e+03 1.64126579e+01
v 6.42924640e+03 5.43799999e+03 1.63608146e+01
v 6.43090553e+03 5.43799999e+03 1.64077377e+01
v 6.43052315e+03 5.43799999e+03 1.37908538e+01
v 6.41320509e+03 5.43799999e+03 2.17589014e+01
v 6.41322232e+03 5.43799999e+03 2.43481054e+01
v 6.41313167e+03 5.43799999e+03 1.64317827e+01
v 6.40455202e+03 5.43799999e+03 2.40816585e+01
v 6.37451196e+03 5.43799999e+03 2.41086284e+01
v 6.43133765e+03 5.43799999e+03 4.31920901e+00
v 6.43183749e+03 5.43799999e+03 4.34404711e+00
v 6.42685774e+03 5.43799999e+03 3.96711074e+00
v 6.42660585e+03 5.43799999e+03 3.81568878e+00
v 6.42671108e+03 5.43799999e+03 4.30825662e+00
v 6.42839697e+03 5.43799999e+03 4.30195900e+00
v 6.43000136e+03 5.43799999e+03 4.58296845e+00
v 6.43097883e+03 5.43799999e+03 4.48228879e+00
v 6.43351281e+03 5.43799999e+03 4.41695824e+00
v 6.43401418e+03 5.43799999e+03 3.77747120e+00
v 6.43426789e+03 5.43799999e+03 3.50103212e+00
v 6.42600740e+03 5.43799999e+03 4.54941659e+00
v 6.43546711e+03 5.43799999e+03 3.33337146e+00
v 6.43660812e+03 5.43799999e+03 3.20507908e+00
v 6.43746062e+03 5.43799999e+03 3.13821345e+00
v 6.43051763e+03 5.43799999e+03 1.37479698e+01
v 6.43022998e+03 5.43799999e+03 1.31955848e+01
v 6.42619663e+03 5.43799999e+03 5.25421765e+00
v 6.42665330e+03 5.43799999e+03 6.75407800e+00
v 6.37450001e+03 5.43799999e+03 2.41086933e+01
v 6.43676616e+03 5.43799999e+03 3.19268362e+00
v 6.43799999e+03 5.43799999e+03 3.11537474e+00
vt 0.16970102 0.72621965
vt 0.17840374 0.71522778
vt 0.23547736 0.73328638
vt 0.23451038 0.74569285
vt 0.17309752 0.6968646
vt 0.27212143 0.74272239
vt 0.19162712 0.7558319
vt 0.1423769 0.68886602
vt 0.30927473 0.76851279
vt 0.24834134 0.77254283
vt 0.13225232 0.73835474
vt 0.12581226 0.70961785
vt 0.18508792 0.65174794
vt 0.31818473 0.74218678
vt 0.078665704 0.69848084
vt 0.15270418 0.63899374
vt 0.32073659 0.7936281
vt 0.3414751 0.76430869
vt 0.27763084 0.72198218
vt 0.088559411 0.72583628
vt 0.088325068 0.67516989
vt 0.36875868 0.78138435
vt 0.040298458 0.67592835
vt 0.02750681 0.70789397
vt 0.085265577 0.62457556
vt 0.3607026 0.80588281
vt 0.38794073 0.70814085
vt 0.46966556 0.73627651
vt 0.004235209 0.69786632
vt 0.0070458259 0.59956861
vt 0.38688627 0.83771253
vt 0.0042361296 0.70158565
vt 0.011284033 0.65705216
vt 0.016521944 0.63484073
vt 0.3507247 0.84420568
vt 0.48527282 0.85513252
vt 0.015346392 0.71075219
vt 0.0042308848 0.6841861
vt 0.0042088414 0.61705279
vt 0.37079903 0.88365561
vt 0.47159502 0.90748209
vt 0.49754775 0.80569512
vt 0.0042352714 0.70328218
vt 0.021217242 0.72419512
vt 0.0042213006 0.6541369
vt 0.0042132698 0.6304456
vt 0.0042024143 0.5987879
vt 0.33381245 0.90130758
vt 0.39874533 0.91238052
vt 0.50034553 0.74295467
vt 0.004215355 0.63588142
vt 0.36429766 0.90050137
vt 0.45847467 0.94987017
vt 0.50036246 0.79516715
vt 0.35049003 0.92595953
vt 0.43204013 0.99600583
vt 0.50036383 0.79799932
vt 0.32004687 0.94849312
vt 0.33689943 0.96736282
vt 0.4450019 0.99600142
vt 0.34606305 0.99603438
vt 0.3324489 0.99603862
vt 0.31199515 0.99604452
vt 0.30614281 0.99604636
vt 0.8254407 0.70814085
vt 0.77897507 0.76430869
vt 0.71513081 0.72198218
vt 0.75585294 0.69261396
vt 0.72157753 0.68906224
vt 0.73519206 0.67873454
vt 0.72562367 0.67165291
vt 0.82283944 0.43275869
vt 0.83166367 0.42384899
vt 0.84110647 0.43183196
vt 0.83707696 0.44036794
vt 0.82836986 0.41335332
vt 0.84164232 0.42807209
vt 0.81134707 0.43454438
vt 0.81822723 0.40121484
vt 0.84703588 0.41380686
vt 0.8404631 0.4521448
vt 0.85010409 0.42948729
vt 0.81830972 0.45773679
vt 0.80794871 0.41256815
vt 0.85099691 0.37856579
vt 0.864205 0.42805272
vt 0.83324349 0.45839584
vt 0.79066885 0.44043881
vt 0.80063093 0.42647284
vt 0.7878688 0.40021598
vt 0.87716556 0.37905234
vt 0.81004333 0.37500501
vt 0.84122741 0.43369853
vt 0.84384197 0.46496266
vt 0.80097538 0.46301287
vt 0.85149717 0.37499136
vt 0.83167547 0.37499785
vt 0.9058156 0.39852417
vt 0.85502696 0.43295848
vt 0.82354426 0.47982085
vt 0.8038817 0.47190791
vt 0.78734004 0.4647947
vt 0.80571079 0.3750065
vt 0.8736949 0.37498438
vt 0.84774524 0.37499255
vt 0.90599477 0.37497336
vt 0.88038397 0.4288097
vt 0.81273258 0.47769523
vt 0.83085513 0.49044424
vt 0.756311 0.42936945
vt 0.77995408 0.37501502
vt 0.8779065 0.37498301
vt 0.89386737 0.37497741
vt 0.91379881 0.43627572
vt 0.81138808 0.49215621
vt 0.85489386 0.4873783
vt 0.82695007 0.49432355
vt 0.74105167 0.38049316
vt 0.76585865 0.45228529
vt 0.75126469 0.37502414
vt 0.88498449 0.44823831
vt 0.97126979 0.41058069
vt 0.85592711 0.47634447
vt 0.84077114 0.49320847
vt 0.69460553 0.4219653
vt 0.77942735 0.47378564
vt 0.77460957 0.46972352
vt 0.74597895 0.46499485
vt 0.90931386 0.44821507
vt 0.94875699 0.44456124
vt 0.93319333 0.39788115
vt 0.82701784 0.50154477
vt 0.86122417 0.4829337
vt 0.85384578 0.5059495
vt 0.839513 0.49822426
vt 0.68103731 0.40237993
vt 0.74311626 0.37502676
vt 0.82678205 0.51649153
vt 0.75194556 0.48757046
vt 0.91190994 0.45832819
vt 0.91784871 0.44285274
vt 0.97301155 0.41679347
vt 0.91836953 0.38160688
vt 0.94966829 0.37495971
vt 0.87062269 0.47363335
vt 0.88112986 0.48592049
vt 0.73077446 0.49602807
vt 0.66713035 0.42108542
vt 0.70732671 0.37503862
vt 0.7626332 0.50559825
vt 0.78473282 0.53854012
vt 0.88226563 0.46517789
vt 0.97302246 0.45056051
vt 0.97300971 0.41110033
vt 0.91928023 0.37496871
vt 0.91150814 0.38051432
vt 0.9302094 0.37496579
vt 0.97300839 0.4070828
vt 0.83299273 0.50952101
vt 0.86893731 0.51607269
vt 0.83488834 0.50621855
vt 0.62842172 0.46090895
vt 0.71569192 0.37503582
vt 0.7648437 0.51912218
vt 0.83388019 0.55102253
vt 0.7391004 0.51571137
vt 0.91656673 0.45908386
vt 0.91293389 0.48052031
vt 0.97012818 0.45805949
vt 0.90982682 0.37497187
vt 0.9518289 0.37495905
vt 0.83909953 0.51907259
vt 0.89308745 0.50858879
vt 0.85420305 0.51976651
vt 0.84231395 0.51410425
vt 0.64278066 0.47773826
vt 0.72901767 0.37557566
vt 0.75454837 0.52915525
vt 0.81693578 0.55430317
vt 0.83883464 0.53105843
vt 0.72992927 0.52926528
vt 0.92534411 0.44848287
vt 0.92024332 0.47196698
vt 0.97301954 0.45695484
vt 0.9495095 0.45276624
vt 0.97299814 0.37495238
vt 0.90567565 0.50366759
vt 0.8998909 0.52174902
vt 0.6548565 0.49688202
vt 0.72359192 0.37503165
vt 0.74103516 0.37502599
vt 0.75940222 0.53916478
vt 0.86534899 0.55655599
vt 0.737984 0.53033024
vt 0.70887083 0.53439409
vt 0.9688136 0.46676213
vt 0.95108914 0.46365267
vt 0.93504697 0.44864321
vt 0.67572957 0.52533031
vt 0.72975892 0.37502891
vt 0.76023692 0.55500054
vt 0.85444635 0.5334239
vt 0.72786701 0.53664148
vt 0.91656804 0.50342619
vt 0.97302663 0.46274811
vt 0.93318987 0.45936251
vt 0.655155 0.51040387
vt 0.80149204 0.56342423
vt 0.86908269 0.55585361
vt 0.97302842 0.46868694
vt 0.95416075 0.4774456
vt 0.93965119 0.46714324
vt 0.83064139 0.57403731
vt 0.78451723 0.57072902
vt 0.87923801 0.54422534
vt 0.96336383 0.48698342
vt 0.9424715 0.48066217
vt 0.87737799 0.5741986
vt 0.82213134 0.58689195
vt 0.75363004 0.55885476
vt 0.8725394 0.52511841
vt 0.88895327 0.53926277
vt 0.97303194 0.47981131
vt 0.87464201 0.55817878
vt 0.8611542 0.58704722
vt 0.84998637 0.59256351
vt 0.79627699 0.58269352
vt 0.76951271 0.57190305
vt 0.9730348 0.48753369
vt 0.94374716 0.48833072
vt 0.89623606 0.56488436
vt 0.88331491 0.59692311
vt 0.82481802 0.59378588
vt 0.75935537 0.57877713
vt 0.97303492 0.49142045
vt 0.95058012 0.5049634
vt 0.93147284 0.4919064
vt 0.90384674 0.56997967
vt 0.89547563 0.55072379
vt 0.90171629 0.58249283
vt 0.86946529 0.59571713
vt 0.8502686 0.60329741
vt 0.80489552 0.60408479
vt 0.78174978 0.58819556
vt 0.77506161 0.59700996
vt 0.74664456 0.56723285
vt 0.95641273 0.511244
vt 0.93018258 0.50479472
vt 0.92237663 0.56819814
vt 0.88629889 0.54648209
vt 0.90387094 0.54170287
vt 0.90150142 0.59983766
vt 0.87170345 0.60438597
vt 0.83640051 0.60756791
vt 0.78827453 0.60089695
vt 0.81418365 0.61113167
vt 0.97303802 0.50349915
vt 0.95014226 0.5294553
vt 0.93255216 0.50885874
vt 0.88082254 0.54241872
vt 0.90637356 0.59228158
vt 0.89168078 0.60844743
vt 0.881006 0.6090368
vt 0.86229229 0.6134094
vt 0.82803243 0.60073721
vt 0.80812609 0.61942577
vt 0.82415658 0.61460936
vt 0.97304034 0.50630862
vt 0.92745864 0.52399611
vt 0.97304529 0.5222553
vt 0.92134261 0.59789848
vt 0.92391354 0.54497826
vt 0.88439637 0.53148186
vt 0.90723342 0.61718482
vt 0.88532263 0.62933373
vt 0.83647269 0.61637169
vt 0.80033851 0.60726094
vt 0.97304285 0.51553404
vt 0.9730491 0.5349108
vt 0.94065589 0.60283077
vt 0.96463597 0.56177044
vt 0.92099679 0.60885459
vt 0.89806706 0.624942
vt 0.85922235 0.62069857
vt 0.97267461 0.54711777
vt 0.95803517 0.58203304
vt 0.91124439 0.59554791
vt 0.9227404 0.62805927
vt 0.90523654 0.62701392
vt 0.87221575 0.63391817
vt 0.9730528 0.54457605
vt 0.97306812 0.59196723
vt 0.97280687 0.57685107
vt 0.93375212 0.60320961
vt 0.93755418 0.61863995
vt 0.90317804 0.65254939
vt 0.88765174 0.64536989
vt 0.97306031 0.56624842
vt 0.97305375 0.54713392
vt 0.9730671 0.58851218
vt 0.97306645 0.59592628
vt 0.97305924 0.576415
vt 0.97305959 0.57757175
vt 0.95706236 0.63380313
vt 0.97305441 0.54879117
vt 0.96991456 0.59974885
vt 0.94999021 0.61497349
vt 0.9441328 0.63972104
vt 0.95647007 0.62536263
vt 0.93069768 0.6699689
vt 0.97307265 0.6081152
vt 0.95764196 0.60671973
vt 0.96585631 0.65554154
vt 0.97159857 0.63901478
vt 0.96266741 0.61823672
vt 0.97129589 0.64949214
vt 0.94871539 0.66506016
vt 0.96906143 0.62293023
vt 0.97307384 0.60945487
vt 0.95717227 0.67832506
vt 0.97307926 0.63953865
vt 0.97307205 0.62377405
vt 0.97307396 0.60997957
vt 0.97307396 0.62197369
vt 0.96600002 0.66497165
vt 0.94972897 0.68644619
vt 0.97307986 0.64546716
vt 0.97307658 0.63743722
vt 0.97307503 0.61617565
vt 0.97307533 0.619766
vt 0.97308749 0.66035134
vt 0.97308928 0.66248131
vt 0.92697644 0.70083791
vt 0.97169077 0.68328357
vt 0.97308671 0.65595269
vt 0.97309518 0.67830008
vt 0.94948709 0.69893616
vt 0.93804497 0.72557294
vt 0.97309572 0.68066311
vt 0.96580881 0.7061792
vt 0.91916066 0.73076659
vt 0.95424867 0.71584249
vt 0.97309661 0.68347275
vt 0.91677719 0.75361621
vt 0.95700961 0.73728281
vt 0.97309977 0.70052147
vt 0.94204772 0.75423074
vt 0.91055548 0.75748134
vt 0.97311044 0.73630804
vt 0.97311211 0.74209416
vt 0.9297297 0.77318048
vt 0.90933132 0.7732842
vt 0.93971223 0.78391612
vt 0.96136683 0.78269732
vt 0.97311354 0.74711454
vt 0.90822333 0.79215837
vt 0.93139607 0.82292473
vt 0.9731223 0.76370025
vt 0.89980817 0.78903931
vt 0.910254 0.82852054
vt 0.95488924 0.81936765
vt 0.963929 0.80767751
vt 0.89931601 0.81795925
vt 0.92297971 0.85254866
vt 0.97312552 0.77005243
vt 0.88923329 0.83177149
vt 0.89522958 0.83294225
vt 0.9428767 0.85363275
vt 0.97313505 0.79619527
vt 0.89653534 0.85103154
vt 0.94695622 0.85896844
vt 0.92110431 0.87106025
vt 0.97314775 0.83306444
vt 0.88886595 0.84122092
vt 0.91492003 0.86505139
vt 0.93809724 0.87105423
vt 0.96902823 0.84841448
vt 0.92500919 0.87105882
vt 0.89813024 0.87106776
vt 0.94201791 0.87105614
vt 0.95337152 0.87105465
vt 0.91830009 0.87106037
vt 0.97314978 0.83740872
vt 0.91066301 0.87106234
vt 0.88610697 0.87107337
vt 0.94400162 0.87105685
vt 0.96228647 0.87105238
vt 0.97315282 0.84770501
vt 0.88241804 0.86171883
vt 0.88413996 0.87107474
vt 0.96352118 0.87105209
vt 0.96894705 0.8710506
vt 0.97315949 0.86645508
vt 0.97316104 0.87104934
vt 0.2453389 0.65000355
vt 0.25939637 0.65648186
vt 0.25582254 0.66741872
vt 0.26117921 0.64772171
vt 0.2748909 0.64674902
vt 0.26129889 0.67148209
vt 0.27153537 0.97603154
vt 0.25741804 0.98671883
vt 0.26423329 0.95677149
vt 0.6677115 0.86237812
vt 0.55565417 0.84490889
vt 0.63295656 0.80487329
vt 0.69300598 0.80212605
vt 0.60817027 0.86352813
vt 0.58878142 0.8078469
vt 0.73057967 0.85797757
vt 0.57819712 0.86867082
vt 0.52703631 0.81106997
vt 0.75036526 0.79901296
vt 0.53992712 0.8681494
vt 0.51953173 0.83456671
vt 0.80193222 0.85512978
vt 0.50347036 0.87167609
vt 0.50346673 0.87013906
vt 0.86489987 0.85419077
vt 0.50349605 0.86456823
vt 0.82357377 0.7951861
vt 0.50354677 0.81521088
vt 0.86530393 0.82417798
vt 0.51500511 0.81603974
vt 0.86401427 0.79614532
vt 0.50359333 0.81167066
vt 0.52142918 0.806934
vt 0.16661465 0.24852192
vt 0.22871995 0.26818091
vt 0.099914283 0.36722076
vt 0.10764956 0.2334258
vt 0.25067386 0.41071945
vt 0.0042236848 0.30343515
vt 0.29932117 0.28773832
vt 0.2586368 0.49602377
vt 0.0042393622 0.35172069
vt 0.0042100968 0.2627604
vt 0.33268532 0.40772599
vt 0.23906922 0.49603015
vt 0.31666198 0.46155298
vt 0.0043796571 0.49610615
vt 0.040198401 0.2129544
vt 0.34555438 0.36131424
vt 0.28101188 0.49601626
vt 0.004286286 0.49610621
vt 0.0041990504 0.22666156
vt 0.07810422 0.2225101
vt 0.36160082 0.3055976
vt 0.30680481 0.49600691
vt 0.004188892 0.20143735
vt 0.62869895 0.97680962
vt 0.67916137 0.93538904
vt 0.63302833 0.97578603
vt 0.64362997 0.93013656
vt 0.66787398 0.96237773
vt 0.66203088 0.90130347
vt 0.64029777 0.97485125
vt 0.70762706 0.95873874
vt 0.67749488 0.90396762
vt 0.64932597 0.98320872
vt 0.67513996 0.9862259
vt 0.71331722 0.91810232
vt 0.69022888 0.89077514
vt 0.76564509 0.99511886
vt 0.66056561 0.98903537
vt 0.71155077 0.9961679
vt 0.75641131 0.93373489
vt 0.72115409 0.89016551
vt 0.6524756 0.99637347
vt 0.66061455 0.99636245
vt 0.77181321 0.98173845
vt 0.85373414 0.90556395
vt 0.80991995 0.99446499
vt 0.74913591 0.89435214
vt 0.85863036 0.97336566
vt 0.82634515 0.89413154
vt 0.85862023 0.97367781
vt 0.78232557 0.89300841
vt 0.85915393 0.96853369
vt 0.85705656 0.88704979
vt 0.85791773 0.99289745
vt 0.76479208 0.88930249
vt 0.86566228 0.91135371
vt 0.86575854 0.89120317
vt 0.86649561 0.89944845
vt 0.86556596 0.89494538
vt 0.16110881 0.89925057
vt 0.052131329 0.92007476
vt 0.079973072 0.85798049
vt 0.10361921 0.84297347
vt 0.088382937 0.97413045
vt 0.05030521 0.87703109
vt 0.16220818 0.83126539
vt 0.06866999 0.97655994
vt 0.11180983 0.96130466
vt 0.023090394 0.89395499
vt 0.12197117 0.83137929
vt 0.17930293 0.81260329
vt 0.056188278 0.97791106
vt 0.14416529 0.94933146
vt 0.10762922 0.97028053
vt 0.017381152 0.92537725
vt 0.1358169 0.82185668
vt 0.18439329 0.83536732
vt 0.1753056 0.79679376
vt 0.043530215 0.96095586
vt 0.057977721 0.98029524
vt 0.1720852 0.91662711
vt 0.12720929 0.96548712
vt 0.10147554 0.9861818
vt 0.0063213329 0.90438539
vt 0.023274736 0.93364042
vt 0.16456375 0.80415422
vt 0.17967719 0.79351544
vt 0.037931215 0.9532901
vt 0.059127413 0.98322034
vt 0.17015089 0.94567806
vt 0.17487919 0.89580476
vt 0.15237263 0.97398931
vt 0.00337436 0.90621841
vt 0.18714945 0.78961933
vt 0.069804057 0.98360807
vt 0.16238008 0.95750695
vt 0.17832825 0.88649195
vt 0.13449436 0.97714943
vt 0.061930403 0.98807985
vt 0.17789347 0.95551509
vt 0.17585889 0.96812749
vt 0.12980747 0.9842099
vt 0.072710134 0.99497771
vt 0.17795567 0.94912273
vt 0.068139121 0.9944374
vt 0.18742482 0.94227564
vt 0.19397812 0.96501124
vt 0.1794413 0.96462256
vt 0.069796793 0.99627811
vt 0.17219768 0.93236667
vt 0.19050214 0.93188685
vt 0.20840871 0.95686805
vt 0.17920801 0.90904254
vt 0.20005412 0.94272232
vt 0.1714565 0.89461529
vt 0.18621516 0.90831697
vt 0.21311277 0.94165736
vt 0.18603246 0.89296663
vt 0.19569366 0.88819778
vt 0.23394641 0.94115102
vt 0.2073264 0.93507415
vt 0.19827722 0.88216013
vt 0.22410245 0.91787773
vt 0.21322973 0.93317008
vt 0.17693064 0.87630415
vt 0.23617902 0.90970099
vt 0.20602126 0.93408549
vt 0.24250384 0.93636644
vt 0.24043992 0.925188
vt 0.23161584 0.89302462
vt 0.30420801 0.90904254
vt 0.29645649 0.89461529
vt 0.31103247 0.89296663
vt 0.30193064 0.87630415
vt 0.52927601 0.68360281
vt 0.5161792 0.67472053
vt 0.52920735 0.67983729
vt 0.49866566 0.68026495
vt 0.53087896 0.67299819
vt 0.47643763 0.67449272
vt 0.5391857 0.66208947
vt 0.41273019 0.6783396
vt 0.46901569 0.61068124
vt 0.50767159 0.61824715
vt 0.44115311 0.62661797
vt 0.54230177 0.6557256
vt 0.3817353 0.62529653
vt 0.48704085 0.57560378
vt 0.43549004 0.6139667
vt 0.3841503 0.66991866
vt 0.47008297 0.58380747
vt 0.50510955 0.58404523
vt 0.41958389 0.6280067
vt 0.44482309 0.58021414
vt 0.34313908 0.67375863
vt 0.35774288 0.65755969
vt 0.41959605 0.60935813
vt 0.42618877 0.59246266
vt 0.34379908 0.6127069
vt 0.46366224 0.57814723
vt 0.41185296 0.62036073
vt 0.42744401 0.5776068
vt 0.36843032 0.58480579
vt 0.31596857 0.64098763
vt 0.41236383 0.59515035
vt 0.41942555 0.57841361
vt 0.3806487 0.57523894
vt 0.34119299 0.57683134
vt 0.31844908 0.62028599
vt 0.40891859 0.58007169
vt 0.39203101 0.58486199
vt 0.31922793 0.58627999
vt 0.35480544 0.57383394
vt 0.41191006 0.59463954
vt 0.37120596 0.57788515
vt 0.2567353 0.93779653
vt 0.28685296 0.93286073
vt 0.29458389 0.9405067
vt 0.46227047 0.55478024
vt 0.40485519 0.55480099
vt 0.44454113 0.49395692
vt 0.50989407 0.55554795
vt 0.40473276 0.52458096
vt 0.50357437 0.49465752
vt 0.40548205 0.49619418
vt 0.55227029 0.49554485
vt 0.37982851 0.49239039
vt 0.56557471 0.55689228
vt 0.60111272 0.53837991
vt 0.60105222 0.55840278
vt 0.60135835 0.49714404
vt 0.50563031 0.96314853
vt 0.52316535 0.94942892
vt 0.52680361 0.96205103
vt 0.55258614 0.96252429
vt 0.55031109 0.94238263
vt 0.5849154 0.95167571
vt 0.53345639 0.92243648
vt 0.58029503 0.92687976
vt 0.58291942 0.9611578
vt 0.51084095 0.92253393
vt 0.55000657 0.92659056
vt 0.60387492 0.93267524
vt 0.59028763 0.96452159
vt 0.4954749 0.95387805
vt 0.58864081 0.91983843
vt 0.6308949 0.95773619
vt 0.49362752 0.9351933
vt 0.47378457 0.92657417
vt 0.47651774 0.94036669
vt 0.47317493 0.92526615
vt 0.47566459 0.94292343
vt 0.47266465 0.95467871
vt 0.47569889 0.96137202
vt 0.054415364 0.98067892
vt 0.056473635 0.99200857
vt 0.026724912 0.98512805
vt 0.03630922 0.99470049
vt 0.22108798 0.82520813
vt 0.24010096 0.83015978
vt 0.26554525 0.84073031
vt 0.24065174 0.83306557
vt 0.30103654 0.86527598
vt 0.21686129 0.82934535
vt 0.28861168 0.85085583
vt 0.19900309 0.81773531
vt 0.29604736 0.84438276
vt 0.32096109 0.86239272
vt 0.19209296 0.81046015
vt 0.29956797 0.85591114
vt 0.19269492 0.8135699
vt 0.19297686 0.81543857
vt 0.96393442 0.98905349
vt 0.94596106 0.98739272
vt 0.89054525 0.96573031
vt 0.97550172 0.99599129
vt 0.5771901 0.69568753
vt 0.58754849 0.70316243
vt 0.56800359 0.70717174
vt 0.5599944 0.68549788
vt 0.58882868 0.69075304
vt 0.59073526 0.72226858
vt 0.55062824 0.6965608
vt 0.58221745 0.68575919
vt 0.5998323 0.69111574
vt 0.61670399 0.72553247
vt 0.56354022 0.72367561
vt 0.54013354 0.70557976
vt 0.5441801 0.68598062
vt 0.61485124 0.68485361
vt 0.5898543 0.73634338
vt 0.61468017 0.70418537
vt 0.62702262 0.74266791
vt 0.64197707 0.71232677
vt 0.56551838 0.73463392
vt 0.52642107 0.71789497
vt 0.53623629 0.68808937
vt 0.6265626 0.69168973
vt 0.64846599 0.73793077
vt 0.56024104 0.7389704
vt 0.53198832 0.72969508
vt 0.50962448 0.70128202
vt 0.51205254 0.68443745
vt 0.63940889 0.68351263
vt 0.6588487 0.74618435
vt 0.51610595 0.73399317
vt 0.50440997 0.71533501
vt 0.64281106 0.67543137
vt 0.65085095 0.68319798
vt 0.52425289 0.73730469
vt 0.5092625 0.71938396
vt 0.65094173 0.69524658
vt 0.47500908 0.30189615
vt 0.49465907 0.29669344
vt 0.48028839 0.35000795
vt 0.46187809 0.31398082
vt 0.47551379 0.28070432
vt 0.49072841 0.31705862
vt 0.44907197 0.3049593
vt 0.46179917 0.34366375
vt 0.44210437 0.28880256
vt 0.4824124 0.28001153
vt 0.49211639 0.34558219
vt 0.43075567 0.32107693
vt 0.48033622 0.37038362
vt 0.4336313 0.27023304
vt 0.48164845 0.25224966
vt 0.51331508 0.3453607
vt 0.42155313 0.34243566
vt 0.42051771 0.28731096
vt 0.46475583 0.25084567
vt 0.51669407 0.35233289
vt 0.52994788 0.33490449
vt 0.38721225 0.36659431
vt 0.40323612 0.3069818
vt 0.3877117 0.26753151
vt 0.44938383 0.25062615
vt 0.39826849 0.34418768
vt 0.38744923 0.33837807
vt 0.3883971 0.28706032
vt 0.40352827 0.24718988
vt 0.43395385 0.24878097
vt 0.37830001 0.24678195
vt 0.80716896 0.63054824
vt 0.80698174 0.6456089
vt 0.77926958 0.63850331
vt 0.80328953 0.6165396
vt 0.78834897 0.68358147
vt 0.76216048 0.62610519
vt 0.74519753 0.62866879
vt 0.74777234 0.59950787
vt 0.69068575 0.65630907
vt 0.70846266 0.61679137
vt 0.7326113 0.61634213
vt 0.71196169 0.58944774
vt 0.052342627 0.8408255
vt 0.042989638 0.85165334
vt 0.03981271 0.84390008
vt 0.038153455 0.81664634
vt 0.051089637 0.86911356
vt 0.020624746 0.81424725
vt 0.050624881 0.78969622
vt 0.0034604333 0.85104334
vt 0.021830736 0.79594475
vt 0.024601912 0.78433621
vt 0.0050638365 0.87118721
vt 0.038343597 0.77330428
vt 0.052662551 0.76997483
vt 0.025716677 0.77075452
vt 0.050228056 0.99524558
vt 0.01198539 0.99501246
vt 0.094047554 0.99398828
vt 0.19968681 0.98569995
vt 0.14482173 0.99598598
vt 0.19937949 0.98448235
vt 0.19998792 0.98313212
vt 0.17610578 0.9891147
vt 0.22309439 0.98084027
vt 0.20222692 0.97092468
vt 0.26057586 0.98721498
vt 0.2244595 0.99577194
vt 0.18352599 0.99597287
vt 0.93652815 0.98416865
vt 0.91932529 0.99161756
vt 0.89049917 0.98668832
vt 0.88198352 0.97981894
vt 0.87179697 0.98615104
vt 0.88671398 0.99174386
vt 0.86311734 0.99577808
vt 0.86337483 0.96335649
vt 0.8631494 0.94330817
vt 0.8810187 0.94565439
vt 0.91887575 0.96419251
vt 0.91456068 0.94341058
vt 0.92272133 0.95396727
vt 0.93599081 0.94200885
vt 0.61445075 0.96250105
vt 0.60821182 0.98053741
vt 0.59239537 0.97254157
vt 0.58244175 0.96494645
vt 0.62669629 0.97607052
vt 0.57152349 0.97646278
vt 0.63277221 0.96034622
vt 0.5661881 0.97107536
vt 0.87922806 0.93423057
vt 0.90251839 0.9121086
vt 0.94307232 0.89190406
vt 0.13293102 0.99577779
vt 0.095632091 0.99470723
vt 0.074485622 0.99109703
vt 0.9981401 0.93141377
vt 0.9889344 0.94232327
vt 0.99553978 0.92422462
vt 0.98058867 0.92911321
vt 0.99146181 0.92180562
vt 0.97412884 0.93098801
vt 0.97153765 0.93728215
vt 0.98945314 0.9525305
vt 0.95752037 0.92677921
vt 0.96922022 0.96470827
vt 0.94138157 0.94191873
vt 0.9717446 0.92037088
vt 0.95001739 0.91472185
vt 0.97799176 0.92495936
vt 0.96590877 0.90843821
vt 0.97870469 0.9127388
vt 0.2926451 0.93409824
vt 0.26007199 0.9264797
vt 0.27503175 0.92606807
vt 0.28572902 0.91948992
vt 0.27585435 0.91626215
vt 0.2975795 0.92027324
vt 0.25418693 0.91777635
vt 0.30976015 0.92669022
vt 0.093936287 0.80547625
vt 0.088278234 0.82099247
vt 0.08709088 0.79735047
vt 0.094437145 0.78308868
vt 0.10423125 0.80265844
vt 0.080834635 0.82163906
vt 0.075365216 0.78244889
vt 0.10922364 0.78448319
vt 0.077263229 0.83732498
vt 0.07279034 0.8124404
vt 0.077136919 0.78996235
vt 0.095789216 0.84077889
vt 0.095998079 0.82384241
vt 0.066011652 0.82171971
vt 0.066071212 0.81802851
vt 0.066474214 0.82839501
vt 0.068080246 0.81211662
vt 0.069256499 0.84023285
vt 0.065818973 0.83883232
vt 0.066644005 0.84010363
vt 0.52784127 0.89366651
vt 0.52602834 0.90170074
vt 0.51393902 0.90031433
vt 0.51717871 0.88827497
vt 0.53474998 0.89537179
vt 0.50439543 0.89234793
vt 0.52622813 0.87905979
vt 0.53297573 0.88745576
vt 0.55641097 0.89516586
vt 0.54377586 0.88545847
vt 0.55212605 0.88784409
vt 0.55376041 0.87552887
vt 0.60946441 0.91723818
vt 0.59037071 0.90506446
vt 0.61121958 0.90194106
vt 0.6196906 0.89509147
vt 0.56806159 0.9156971
vt 0.59874964 0.89394343
vt 0.5663138 0.89320642
vt 0.58217478 0.89357573
vt 0.028730229 0.9806143
vt 0.04310786 0.96008134
vt 0.052552283 0.97967166
vt 0.026911447 0.959719
vt 0.021482594 0.97437769
vt 0.017945038 0.96502298
vt 0.012882251 0.96596634
vt 0.0039897715 0.95882004
vt 0.0060727037 0.97231603
vt 0.0043690307 0.96471566
vt 0.21733382 0.95369714
vt 0.21837074 0.9484033
vt 0.23241669 0.95459366
vt 0.22921251 0.96452779
vt 0.25105375 0.9481566
vt 0.21516792 0.96388316
vt 0.25604749 0.96136057
vt 0.20760366 0.95634556
vt 0.49695024 0.96823549
vt 0.50577217 0.98032975
vt 0.49003673 0.98025298
vt 0.47785845 0.96818751
vt 0.46786657 0.98111582
vt 0.4631356 0.96836901
vt 0.45795387 0.96816635
vt 0.29531088 0.94184601
vt 0.30777791 0.94036126
vt 0.302964 0.96417505
vt 0.27290601 0.94211853
vt 0.31653833 0.96145278
vt 0.26951244 0.96254689
vt 0.24419437 0.89445531
vt 0.24685197 0.88857818
vt 0.26102817 0.90335995
vt 0.24587096 0.93446839
vt 0.23741248 0.91547066
vt 0.96003252 0.99489838
vt 0.9187541 0.99432975
vt 0.9210552 0.99119467
vt 0.95250028 0.99015665
vt 0.95310748 0.99691302
vt 0.91918015 0.9912405
vt 0.85691744 0.8670944
vt 0.86411124 0.87408924
vt 0.8605296 0.88528574
vt 0.84768724 0.87660855
vt 0.87417811 0.87869132
vt 0.87533402 0.88677782
vt 0.87479669 0.9025957
vt 0.87991482 0.89747214
vt 0.88874614 0.90326166
vt 0.27806845 0.98770452
vt 0.29808417 0.98109251
vt 0.31089875 0.98486298
vt 0.26881799 0.9960236
vt 0.23203571 0.96686208
vt 0.24110222 0.96901393
vt 0.25600457 0.98096591
vt 0.22203884 0.97746843
vt 0.25490674 0.96780586
vt 0.2632952 0.96590698
vt 0.29156491 0.80497283
vt 0.30190128 0.82581973
vt 0.28445479 0.83548748
vt 0.32491079 0.80531979
vt 0.31267071 0.83859503
vt 0.31179282 0.80228096
vt 0.29237905 0.83980262
vt 0.22964343 0.87069756
vt 0.2131626 0.85361278
vt 0.23118269 0.85174775
vt 0.19065568 0.86821991
vt 0.21668994 0.8437984
vt 0.19599229 0.84655571
vt 0.22834784 0.83760953
vt 0.27383623 0.96438909
vt 0.292539 0.9707585
vt 0.27032325 0.9786045
vt 0.29199275 0.98140085
vt 0.29780257 0.96410549
vt 0.30403125 0.97199929
vt 0.0073055597 0.91352427
vt 0.017395461 0.92592502
vt 0.017704841 0.94817352
vt 0.0089323753 0.9483918
vt 0.0045613535 0.91736591
vt 0.0043108976 0.91482031
vt 0.0043927114 0.91427553
vt 0.61141473 0.93353212
vt 0.60268253 0.92795163
vt 0.59701484 0.91745037
vt 0.63291389 0.91686833
vt 0.62080413 0.93426549
vt 0.17331359 0.97056597
vt 0.17708917 0.98121375
vt 0.17213877 0.97713834
vt 0.17833214 0.97420043
vt 0.18006998 0.97414112
vt 0.19518058 0.96674305
vt 0.18671979 0.96442103
vt 0.030469785 0.98004603
vt 0.023819987 0.98976612
vt 0.0037246058 0.99220449
vt 0.023205811 0.99174792
vt 0.47237325 0.98889273
vt 0.47473034 0.99544352
vt 0.45662171 0.97764415
vt 0.47970816 0.98978353
vt 0.47341672 0.98731041
vt 0.47172731 0.98673552
vt 0.49236703 0.98313046
vt 0.46459383 0.97996622
vt 0.19856966 0.98852259
vt 0.1686042 0.99567562
vt 0.19929665 0.98546529
vt 0.077359721 0.99217093
vt 0.10523971 0.99635166
vt 0.074562982 0.99455959
vt 0.078894533 0.99649149
vt 0.98559391 0.99007678
vt 0.9776448 0.99515265
vt 0.95696878 0.97995567
vt 0.97467333 0.97803015
vt 0.98821688 0.98443931
vt 0.95834887 0.97266752
vt 0.27074784 0.87924117
vt 0.28146219 0.87795907
vt 0.28348812 0.88752621
vt 0.26710528 0.90221339
vt 0.26147366 0.87608641
vt 0.26319522 0.87215596
vt 0.25379759 0.87697041
vt 0.17550923 0.99548143
vt 0.20581225 0.99328154
vt 0.17556182 0.99572206
vt 0.19688267 0.98929602
vt 0.1763683 0.99445146
vt 0.64638644 0.98469502
vt 0.62869418 0.98160028
vt 0.63477546 0.97817338
vt 0.65788543 0.99617445
vt 0.63049972 0.97632104
vt 0.90188241 0.96787345
vt 0.87811792 0.98121941
vt 0.90047181 0.96755022
vt 0.8984791 0.97264689
vt 0.89944059 0.96507603
vt 0.90349644 0.9672718
vt 0.87529826 0.91927856
vt 0.87207699 0.91349947
vt 0.88770843 0.91611111
vt 0.88928121 0.9218629
vt 0.863029 0.92568541
vt 0.88210404 0.92822009
vt 0.87214661 0.9331764
vt 0.92502648 0.92434371
vt 0.94227326 0.92465609
vt 0.93973374 0.94983327
vt 0.9176473 0.91379863
vt 0.91910571 0.93424511
vt 0.89501154 0.93423551
vt 0.92539889 0.97313166
vt 0.94170588 0.95526713
vt 0.93433785 0.98027009
vt 0.31877497 0.91833085
vt 0.3003248 0.91721761
vt 0.32421714 0.91319996
vt 0.3243793 0.91688478
vt 0.31679693 0.90381628
vt 0.012245464 0.97263283
vt 0.004340644 0.99618042
vt 0.0041614682 0.97262961
vt 0.29098567 0.90735668
vt 0.27834463 0.91763306
vt 0.28022027 0.89810336
vt 0.26891422 0.90382683
vt 0.48830888 0.9189117
vt 0.47982997 0.91020226
vt 0.49359101 0.90606278
vt 0.47198531 0.91609079
vt 0.47790512 0.90252745
vt 0.48950309 0.89628285
vt 0.51662445 0.90221405
vt 0.52469367 0.90809423
vt 0.52445632 0.91393954
vt 0.50713032 0.90695226
vt 0.51235169 0.91785592
vt 0.50338823 0.91409129
vt 0.014667597 0.95684528
vt 0.0030889593 0.9424684
vt 0.021334669 0.95670408
vt 0.013519392 0.96505606
vt 0.88684684 0.99526346
vt 0.89595377 0.98708349
vt 0.90727496 0.99517554
vt 0.51395392 0.97031415
vt 0.52020389 0.96722841
vt 0.52453136 0.97410256
vt 0.51664704 0.98124146
vt 0.50421911 0.9784587
vt 0.50915045 0.9712109
vt 0.99011785 0.98841065
vt 0.98828733 0.97376955
vt 0.99707294 0.99680746
vt 0.99508047 0.9820199
vt 0.99633884 0.97440225
vt 0.19203404 0.97972041
vt 0.2031139 0.96205282
vt 0.20335065 0.96309453
vt 0.19302455 0.9796412
vt 0.19195107 0.9786132
vt 0.20851243 0.96098173
vt 0.20235059 0.96209753
vt 0.19156116 0.9796164
vt 0.87303197 0.964827
vt 0.88011253 0.9719345
vt 0.86399662 0.97301114
vt 0.866391 0.97967923
vt 0.88184267 0.97989434
vt 0.14128521 0.99298686
vt 0.13340345 0.9963249
vt 0.1210453 0.99045306
vt 0.1621318 0.99207807
vt 0.1627326 0.99227685
vt 0.16862102 0.997024
vt 0.15236709 0.99596924
vt 0.16861451 0.99071306
vt 0.50037485 0.98421103
vt 0.4876028 0.99634731
vt 0.49612284 0.98128724
vt 0.49923247 0.98910409
vt 0.47125533 0.96033704
vt 0.45946524 0.96533424
vt 0.47045922 0.95434391
vt 0.46528161 0.95635116
vt 0.45929721 0.95738488
vt 0.47312814 0.95162755
vt 0.4668794 0.94914764
vt 0.45744807 0.95263255
vt 0.26975551 0.9883765
vt 0.27575964 0.98413444
vt 0.27011436 0.99565417
vt 0.27171937 0.98033834
vt 0.087565973 0.98431158
vt 0.079684168 0.98871374
vt 0.075290769 0.98576283
vt 0.073966838 0.98255676
vt 0.084578261 0.97932988
vt 0.46906298 0.99546367
vt 0.45658737 0.99577159
vt 0.46395561 0.9924078
vt 0.4619596 0.98292571
vt 0.1405122 0.97922117
vt 0.14248237 0.98311102
vt 0.1392349 0.98800421
vt 0.12903486 0.98267907
vt 0.15987405 0.97997952
vt 0.16610706 0.97195232
vt 0.17434566 0.97156584
vt 0.16184516 0.97127348
vt 0.17069374 0.9687016
vt 0.018280828 0.99689186
vt 0.00780852 0.99490851
vt 0.0088802781 0.99503267
vt 0.0084202914 0.99472898
vt 0.0030408578 0.99688625
vt 0.097639315 0.99622792
vt 0.1015761 0.98882002
vt 0.10964324 0.99638337
vt 0.010999058 0.99674094
vt 0.0044827764 0.99677962
vt 0.011725481 0.99483252
vt 0.027673207 0.99020624
vt 0.019130478 0.99684125
vt 0.026173651 0.99020571
vt 0.029214803 0.99500829
vt 0.032416075 0.99295169
vt 0.029346772 0.99560726
vt 0.026372986 0.98835665
vt 0.028073868 0.99421048
vt 0.012862908 0.9946003
vt 0.018392418 0.99198818
vt 0.013555917 0.99517697
vt 0.012591809 0.99229664
vt 0.058860689 0.99007612
vt 0.063469186 0.99437529
vt 0.062055588 0.9957881
vt 0.062862545 0.99595213
vt 0.10854673 0.99544495
vt 0.10457462 0.99300945
vt 0.10862339 0.99181944
vt 0.0049747936 0.99482173
vt 0.0045817364 0.99540615
vt 0.0039976826 0.99343669
vt 0.0061820541 0.9961077
vt 0.0057328916 0.99668771
vt 0.0047174366 0.99610817
usemtl Tile_+032_+022_L18_00030_0
f 489/646 486/647 226/648
f 490/760 390/761 487/762
f 593/994 489/995 594/996
f 325/72 475/73 373/74
f 478/862 339/863 381/864
f 390/487 395/488 597/489
f 599/496 494/502 653/511
f 378/798 371/799 380/800
f 606/656 491/653 607/658
f 226/648 390/650 490/649
f 226/648 490/649 489/646
f 489/646 485/651 491/653
f 485/619 484/620 487/621
f 484/620 226/622 487/621
f 488/493 390/487 598/490
f 609/505 488/493 610/513
f 390/487 485/498 487/504
f 486/763 487/762 226/764
f 390/487 488/493 485/498
f 485/651 489/646 490/649
f 486/763 490/760 487/762
f 486/763 485/765 490/760
f 605/1004 485/1005 611/1006
f 484/642 486/643 481/644
f 489/645 481/644 486/643
f 486/763 484/766 485/765
f 226/622 484/620 265/623
f 474/628 484/620 481/632
f 483/625 484/620 474/628
f 613/637 481/632 615/639
f 480/1068 466/1069 616/1070
f 466/1069 480/1068 621/1072
f 478/862 371/866 372/865
f 369/871 374/868 378/870
f 378/1093 380/1094 369/1095
f 370/867 371/866 374/868
f 325/72 279/78 470/79
f 470/79 476/76 325/72
f 476/76 470/79 462/80
f 476/76 475/73 325/72
f 473/131 464/143 632/155
f 631/144 473/131 633/157
f 371/866 378/870 374/868
f 231/88 232/110 467/90
f 484/620 483/625 265/623
f 477/84 471/89 467/90
f 474/628 481/632 482/635
f 474/628 482/635 614/636
f 462/80 470/79 469/85
f 233/125 468/118 232/110
f 464/898 461/899 629/900
f 252/114 463/98 472/122
f 471/89 231/88 467/90
f 372/86 374/82 462/80
f 467/90 468/118 639/120
f 232/110 468/118 467/90
f 463/98 473/131 472/122
f 109/130 252/114 472/122
f 463/98 339/107 372/86
f 463/98 372/86 461/91
f 469/85 461/91 462/80
f 469/85 470/79 641/92
f 233/125 474/136 468/118
f 641/92 467/90 643/103
f 470/79 477/84 467/90
f 280/128 233/125 232/110
f 461/91 469/85 635/96
f 468/118 474/136 634/149
f 619/191 466/177 622/200
f 473/131 463/98 464/143
f 646/106 461/91 647/113
f 463/98 465/156 464/143
f 372/86 462/80 461/91
f 464/898 465/902 461/899
f 647/999 465/1000 649/1001
f 465/1026 463/1027 650/1028
f 202/624 226/622 265/623
f 483/625 282/629 265/623
f 380/1094 368/1096 369/1095
f 369/77 373/74 475/73
f 339/863 478/862 372/865
f 477/84 470/79 279/78
f 471/89 477/84 279/78
f 462/80 369/77 475/73
f 476/76 462/80 475/73
f 369/77 462/80 374/82
f 466/177 468/118 645/163
f 339/107 463/98 252/114
f 483/625 234/633 282/629
f 233/125 483/148 474/136
f 245/232 244/241 285/225
f 257/250 295/251 300/239
f 296/396 86/395 375/398
f 131/795 187/796 100/797
f 241/258 114/269 112/236
f 123/987 128/988 126/989
f 359/930 386/931 336/932
f 533/562 74/563 534/564
f 439/731 438/732 441/733
f 460/777 180/778 456/779
f 446/1 447/2 183/3
f 168/664 165/665 167/666
f 445/21 425/25 217/16
f 444/8 446/1 432/12
f 435/7 434/11 446/1
f 193/743 440/744 169/745
f 433/404 429/405 434/406
f 430/697 162/688 425/687
f 431/20 432/12 434/11
f 426/34 424/30 417/23
f 497/29 418/24 498/32
f 410/501 206/495 205/509
f 158/822 161/823 175/824
f 176/700 127/701 180/702
f 148/671 168/664 153/667
f 162/688 207/683 166/674
f 412/517 414/500 391/508
f 174/675 207/683 204/689
f 82/660 412/663 391/661
f 203/717 454/722 171/727
f 402/723 157/713 203/717
f 236/102 117/115 397/126
f 126/893 128/894 124/895
f 396/494 198/522 499/516
f 391/655 392/657 393/652
f 224/550 403/538 398/546
f 388/316 389/314 535/321
f 108/280 106/312 134/307
f 340/174 92/175 303/134
f 117/115 283/100 356/117
f 317/133 240/116 305/123
f 346/169 253/196 335/197
f 264/230 112/236 113/248
f 380/1094 88/1097 368/1096
f 363/1076 356/1077 91/1078
f 362/1137 357/1138 364/1139
f 350/936 336/932 358/934
f 345/950 351/951 252/952
f 80/567 74/563 59/565
f 190/904 189/905 186/906
f 58/22 216/27 59/28
f 216/569 80/567 59/565
f 53/416 192/413 47/419
f 58/22 453/18 216/27
f 185/577 216/569 184/582
f 459/737 182/741 183/738
f 460/739 459/737 437/735
f 449/740 459/737 460/739
f 52/410 192/413 53/416
f 449/740 182/741 459/737
f 52/410 433/404 435/407
f 459/737 441/733 437/735
f 458/716 460/712 437/721
f 459/737 457/736 441/733
f 437/721 193/726 443/725
f 197/707 196/711 177/703
f 457/736 459/737 183/738
f 441/733 457/736 447/734
f 194/781 450/782 449/780
f 449/780 456/779 194/781
f 460/712 458/716 197/707
f 197/707 180/702 460/712
f 184/719 455/715 178/720
f 180/71 181/70 456/69
f 216/65 453/66 194/67
f 184/68 216/65 194/67
f 194/67 456/69 184/68
f 181/70 184/68 456/69
f 176/700 313/704 127/701
f 180/702 197/707 177/703
f 181/710 179/705 455/715
f 127/701 179/705 180/702
f 255/179 228/192 361/151
f 191/681 218/685 143/691
f 156/708 176/700 214/706
f 193/743 71/746 171/749
f 193/726 454/722 458/716
f 458/716 437/721 443/725
f 458/716 196/711 197/707
f 454/722 196/711 458/716
f 196/711 203/717 156/708
f 183/3 448/4 446/1
f 448/4 183/3 195/6
f 58/22 51/17 451/9
f 453/18 58/22 451/9
f 452/14 453/18 451/9
f 195/6 194/19 452/14
f 192/10 448/4 451/9
f 451/9 195/6 452/14
f 453/792 452/793 194/794
f 448/4 195/6 451/9
f 450/782 194/781 195/783
f 449/780 450/782 195/783
f 435/7 446/1 448/4
f 448/4 192/10 435/7
f 433/428 52/429 41/430
f 444/8 432/12 419/15
f 419/15 445/21 444/8
f 445/21 217/16 444/8
f 444/8 439/5 446/1
f 439/5 447/2 446/1
f 439/5 444/8 440/13
f 191/748 71/746 169/745
f 71/746 193/743 169/745
f 442/678 164/669 170/673
f 391/508 390/487 392/518
f 390/650 226/648 393/652
f 392/518 390/487 202/524
f 393/1110 392/1111 225/1112
f 202/1113 393/1110 225/1112
f 165/665 168/664 408/668
f 174/675 167/666 166/674
f 412/517 149/523 414/500
f 152/670 153/667 167/666
f 161/823 158/822 204/826
f 207/683 161/694 204/689
f 166/674 167/666 164/669
f 163/682 166/674 442/678
f 445/21 417/23 425/25
f 425/687 163/682 442/678
f 217/680 442/678 170/673
f 437/747 440/744 193/743
f 217/680 169/686 440/692
f 444/8 217/16 440/13
f 441/733 447/734 439/731
f 435/407 433/404 434/406
f 446/1 434/11 432/12
f 439/750 440/744 437/747
f 436/431 433/428 41/430
f 429/405 431/409 434/406
f 433/404 436/408 429/405
f 415/442 427/447 436/431
f 429/405 418/412 431/409
f 419/15 432/12 431/20
f 420/913 422/914 430/915
f 424/916 420/913 430/915
f 418/24 417/23 419/15
f 429/405 415/414 501/417
f 159/415 418/412 429/405
f 498/32 160/37 505/43
f 429/405 427/411 415/414
f 428/1017 418/1018 159/1019
f 511/46 416/33 512/51
f 510/39 426/34 511/46
f 430/757 425/758 424/759
f 425/25 417/23 424/30
f 417/23 416/33 426/34
f 420/830 424/839 507/837
f 76/831 423/827 420/830
f 207/683 162/688 422/693
f 207/683 422/693 421/698
f 420/830 423/827 161/823
f 207/683 421/698 161/694
f 395/488 396/494 515/499
f 158/822 394/825 151/829
f 423/827 76/831 175/824
f 396/828 394/825 175/824
f 417/23 445/21 419/15
f 416/33 417/23 497/29
f 518/437 436/431 519/433
f 148/671 408/668 168/664
f 198/832 396/828 175/824
f 127/896 130/897 126/893
f 119/1050 118/1051 142/1052
f 268/718 157/713 269/724
f 156/708 157/713 313/704
f 139/544 140/541 404/548
f 315/1140 357/1138 362/1137
f 154/677 219/679 165/665
f 165/665 409/672 154/677
f 412/517 147/527 149/523
f 390/487 414/500 206/495
f 394/491 206/495 410/501
f 205/509 414/500 153/519
f 150/525 205/509 153/519
f 205/509 206/495 414/500
f 151/510 150/525 173/529
f 151/510 410/501 205/509
f 409/534 408/535 147/527
f 147/527 413/531 409/534
f 408/535 148/528 147/527
f 165/665 408/668 409/672
f 412/517 82/537 411/533
f 411/533 413/531 412/517
f 403/538 140/541 411/533
f 139/955 406/956 141/957
f 154/539 140/541 139/544
f 403/960 406/956 405/959
f 407/966 406/967 403/968
f 403/538 145/543 398/546
f 82/634 202/624 274/630
f 403/538 224/550 407/554
f 405/963 407/965 224/964
f 141/969 406/967 407/966
f 407/966 405/971 404/970
f 139/955 404/958 406/956
f 224/972 141/969 404/970
f 402/755 171/749 155/754
f 224/550 402/553 155/556
f 224/550 398/546 402/553
f 273/557 402/553 398/546
f 171/727 402/723 203/717
f 157/713 260/728 276/729
f 227/201 259/214 123/220
f 157/713 276/729 269/724
f 190/256 120/266 122/243
f 259/214 121/227 132/228
f 121/227 401/244 132/228
f 132/228 124/234 123/220
f 129/991 123/987 130/990
f 255/179 361/151 297/165
f 353/138 91/159 367/172
f 117/115 353/138 397/126
f 361/151 400/164 397/126
f 361/151 228/192 200/178
f 272/887 261/888 273/889
f 272/887 273/889 146/890
f 260/728 157/713 402/723
f 402/891 273/889 261/888
f 276/195 275/181 269/203
f 275/181 199/166 286/194
f 235/147 281/139 199/166
f 275/981 286/982 228/983
f 400/164 200/178 399/150
f 126/989 130/990 123/987
f 259/214 132/228 123/220
f 199/166 399/150 200/178
f 281/139 277/127 399/150
f 277/127 397/126 399/150
f 281/139 399/150 199/166
f 280/128 281/139 235/147
f 236/102 397/126 277/127
f 92/175 367/172 91/159
f 353/138 361/151 397/126
f 125/255 121/227 122/243
f 122/243 299/233 190/256
f 190/904 186/906 120/907
f 96/264 298/242 243/253
f 229/219 299/233 121/227
f 125/255 401/244 121/227
f 145/543 81/540 144/545
f 206/495 394/491 390/487
f 394/491 396/494 395/488
f 395/488 390/487 394/491
f 202/624 82/634 392/631
f 390/650 393/652 202/654
f 82/660 391/661 226/662
f 226/767 392/768 82/769
f 393/652 226/648 391/655
f 414/500 390/487 391/508
f 278/95 237/83 284/101
f 281/139 280/128 270/119
f 98/578 75/570 101/581
f 189/267 190/256 299/233
f 108/880 134/881 213/882
f 188/588 131/574 103/592
f 95/284 243/253 301/275
f 95/1081 96/1082 243/1083
f 291/218 247/213 255/179
f 388/316 136/313 242/304
f 389/314 329/318 543/322
f 330/309 134/307 290/315
f 100/572 187/580 212/576
f 294/252 292/287 84/282
f 293/883 213/882 292/884
f 298/242 230/226 243/253
f 299/233 215/265 189/267
f 189/267 215/265 289/276
f 301/275 343/283 97/297
f 105/584 212/576 187/580
f 97/297 343/283 99/296
f 213/294 84/282 292/287
f 103/910 102/911 104/912
f 103/592 104/585 105/584
f 319/935 358/934 386/931
f 102/911 103/910 387/909
f 103/910 186/906 387/909
f 387/597 135/593 104/585
f 104/585 135/593 95/589
f 104/585 102/601 387/597
f 94/1010 298/1011 96/1012
f 289/908 387/909 186/906
f 326/842 90/843 384/844
f 344/215 209/222 89/209
f 384/1038 93/1039 92/1040
f 376/1034 385/1035 354/1036
f 362/1084 364/1085 385/1086
f 385/1035 355/1037 354/1036
f 356/1077 355/1080 385/1079
f 239/109 316/124 315/135
f 365/806 323/809 324/803
f 379/804 365/806 324/803
f 376/1123 364/1124 222/1125
f 222/1125 362/1126 376/1123
f 90/843 326/842 352/846
f 349/814 358/815 348/816
f 305/810 365/806 382/808
f 384/1038 90/1041 93/1039
f 386/931 359/930 383/933
f 209/222 344/215 352/221
f 210/193 90/202 89/209
f 256/937 314/938 383/939
f 314/938 319/940 383/939
f 309/818 348/816 358/815
f 386/931 383/933 319/935
f 86/849 208/852 209/850
f 332/923 377/924 110/925
f 256/188 114/269 311/272
f 332/923 358/926 377/924
f 382/854 366/855 312/856
f 382/808 365/806 379/804
f 382/808 379/804 381/807
f 349/927 110/925 377/924
f 381/858 366/855 382/854
f 349/927 345/929 110/925
f 371/799 478/805 379/804
f 320/167 310/183 308/140
f 339/860 366/855 381/858
f 370/867 374/868 373/869
f 374/82 372/86 368/93
f 379/804 324/803 371/799
f 380/800 371/799 211/801
f 322/129 308/140 251/121
f 251/861 366/855 339/860
f 88/1097 306/1100 373/1099
f 368/1096 88/1097 374/1098
f 323/809 238/813 87/811
f 238/1044 306/1045 88/1046
f 366/855 251/861 342/859
f 251/121 308/140 342/152
f 373/1114 369/1115 368/1116
f 370/99 368/93 372/86
f 376/1118 223/1119 91/1120
f 91/1127 364/1124 376/1123
f 91/1088 385/1086 364/1085
f 239/1057 315/1058 376/1059
f 355/1061 356/1062 239/1057
f 375/851 86/849 85/848
f 323/809 365/806 305/810
f 340/845 326/842 384/844
f 357/1146 223/1147 364/1148
f 357/161 315/135 303/134
f 315/1140 362/1137 223/1141
f 361/151 353/138 297/165
f 360/224 300/239 287/231
f 255/770 297/771 210/772
f 208/260 257/250 360/224
f 256/399 296/396 375/398
f 86/395 296/396 208/397
f 294/886 262/885 292/884
f 360/224 257/250 300/239
f 360/773 210/772 208/774
f 367/1043 92/1040 115/1042
f 115/180 297/165 353/138
f 367/172 115/180 353/138
f 223/1119 357/1122 91/1120
f 385/1086 376/1087 362/1084
f 91/1078 356/1077 385/1079
f 354/1060 355/1061 239/1057
f 312/856 366/855 342/859
f 86/849 352/846 326/842
f 86/849 209/850 352/846
f 384/844 92/847 340/845
f 210/193 297/165 115/180
f 90/202 210/193 115/180
f 114/269 111/259 112/236
f 358/815 318/820 309/818
f 113/248 350/237 264/230
f 333/217 264/230 350/237
f 311/272 295/251 256/188
f 113/872 111/873 114/874
f 348/816 310/817 349/814
f 314/187 309/168 318/204
f 112/236 111/259 113/248
f 320/167 308/140 351/141
f 252/114 351/141 322/129
f 335/197 338/185 346/169
f 345/182 320/167 351/141
f 338/185 109/130 346/169
f 320/819 345/821 349/814
f 309/818 310/817 348/816
f 337/206 110/198 338/185
f 320/819 349/814 310/817
f 337/917 347/918 332/919
f 332/919 333/921 350/922
f 294/252 267/274 341/262
f 329/318 389/314 330/309
f 309/168 271/146 342/152
f 346/169 109/130 550/153
f 136/313 328/308 242/304
f 138/289 137/288 99/296
f 336/877 113/872 359/875
f 358/926 349/927 377/924
f 245/232 285/225 291/218
f 69/277 122/243 120/266
f 353/138 117/115 363/132
f 176/700 156/708 313/704
f 152/670 174/675 150/676
f 301/275 341/262 343/283
f 88/1097 373/1099 374/1098
f 259/214 227/201 258/208
f 544/324 290/315 552/330
f 252/952 109/953 345/950
f 251/121 252/114 322/129
f 293/271 249/249 108/280
f 314/187 304/173 271/146
f 303/134 85/160 340/174
f 228/192 286/194 200/178
f 327/216 253/196 554/210
f 334/211 335/197 253/196
f 264/230 333/217 327/216
f 338/185 335/197 337/206
f 253/196 327/216 334/211
f 333/217 347/212 335/197
f 335/197 334/211 333/217
f 337/917 332/919 110/920
f 254/285 241/258 559/279
f 248/281 321/293 266/286
f 358/926 332/923 350/928
f 561/298 254/285 562/305
f 563/332 331/325 564/331
f 328/308 136/313 40/317
f 246/240 249/249 293/271
f 564/331 136/313 565/335
f 137/288 83/295 242/304
f 290/315 329/318 330/309
f 106/312 107/306 541/311
f 542/301 108/280 568/292
f 248/281 311/272 241/258
f 250/247 112/236 327/216
f 114/269 241/258 311/272
f 241/258 254/285 248/281
f 248/281 249/249 311/272
f 548/302 248/281 561/298
f 568/292 266/286 570/300
f 266/286 321/293 549/303
f 213/882 293/883 108/880
f 84/282 213/294 83/295
f 112/236 250/247 241/258
f 358/942 319/940 318/941
f 309/168 314/187 271/146
f 291/218 360/224 287/231
f 326/842 340/845 85/848
f 85/848 86/849 326/842
f 236/102 278/95 284/101
f 237/83 307/87 263/94
f 315/135 316/124 303/134
f 263/94 307/87 238/81
f 379/804 478/805 381/807
f 323/809 263/812 238/813
f 310/183 309/168 308/140
f 306/75 238/81 279/78
f 237/83 263/94 283/100
f 263/812 323/809 305/810
f 256/853 375/851 85/848
f 256/188 304/173 314/187
f 85/160 304/173 256/188
f 303/134 240/116 271/146
f 271/146 240/116 317/133
f 271/146 317/133 312/145
f 317/133 305/123 312/145
f 291/218 246/240 245/232
f 360/224 291/218 255/179
f 296/396 256/399 257/400
f 84/282 267/274 294/252
f 294/252 341/262 245/232
f 292/884 262/885 293/883
f 243/253 302/263 301/275
f 134/307 106/312 290/315
f 387/1128 289/1129 133/1130
f 246/240 262/261 294/252
f 267/274 343/283 341/262
f 302/263 341/262 301/275
f 291/218 287/231 288/238
f 287/231 300/239 295/251
f 288/238 287/231 249/249
f 243/253 244/241 245/232
f 287/231 295/251 249/249
f 246/240 291/218 288/238
f 210/772 89/775 208/774
f 245/232 341/262 302/263
f 133/254 299/233 298/242
f 210/772 360/773 255/770
f 97/297 101/290 301/275
f 299/233 229/219 230/226
f 400/164 361/151 200/178
f 275/981 228/983 268/984
f 116/108 283/100 117/115
f 397/126 400/164 399/150
f 235/147 199/166 275/181
f 81/558 274/559 144/560
f 260/199 272/189 235/147
f 274/630 201/626 234/633
f 304/173 85/160 271/146
f 116/108 284/101 237/83
f 471/89 279/78 231/88
f 280/128 232/110 270/119
f 87/811 324/803 323/809
f 278/95 231/88 237/83
f 236/102 231/88 278/95
f 277/127 281/139 270/119
f 277/127 270/119 236/102
f 137/288 267/274 84/282
f 137/288 328/308 2/310
f 108/280 249/249 266/286
f 255/179 247/213 258/208
f 288/238 249/249 246/240
f 146/549 144/545 234/552
f 303/134 316/124 240/116
f 258/208 229/219 259/214
f 295/251 311/272 249/249
f 291/218 285/225 247/213
f 268/984 269/985 275/981
f 227/992 129/991 228/993
f 265/623 282/629 201/626
f 272/189 146/176 235/147
f 239/109 283/100 263/94
f 302/263 243/253 245/232
f 253/196 346/169 551/184
f 339/107 252/114 251/121
f 372/865 371/866 370/867
f 109/130 472/122 530/142
f 250/247 327/216 556/235
f 558/270 250/247 573/278
f 248/281 266/286 249/249
f 136/1105 388/1106 536/1107
f 84/282 83/295 137/288
f 246/240 294/252 245/232
f 247/213 285/225 230/226
f 107/306 106/312 108/280
f 242/304 328/308 137/288
f 256/188 295/251 257/250
f 229/219 247/213 230/226
f 255/179 258/208 227/201
f 270/119 232/110 236/102
f 280/128 235/147 233/125
f 276/195 260/199 235/147
f 227/201 228/192 255/179
f 275/181 276/195 235/147
f 238/81 307/87 237/83
f 237/83 279/78 238/81
f 283/100 116/108 237/83
f 263/94 240/116 239/109
f 233/125 235/147 234/162
f 231/88 236/102 232/110
f 162/688 430/697 422/693
f 226/622 225/627 392/631
f 226/622 202/624 225/627
f 140/962 405/963 224/964
f 404/970 140/973 224/972
f 223/1147 222/1149 364/1148
f 362/1153 222/1154 223/1155
f 574/451 221/452 575/453
f 75/570 220/575 77/571
f 537/568 77/571 574/573
f 131/603 188/604 187/605
f 100/572 216/569 131/574
f 131/574 69/590 120/594
f 72/752 119/756 155/754
f 2/784 33/785 220/786
f 314/938 318/941 319/940
f 451/9 51/17 192/10
f 191/748 73/751 71/746
f 105/584 187/580 188/588
f 133/254 289/276 215/265
f 93/1039 90/1041 115/1042
f 192/413 51/421 47/419
f 52/410 435/407 192/413
f 179/705 181/710 180/702
f 171/749 72/752 155/754
f 82/537 403/538 411/533
f 217/680 425/687 442/678
f 166/674 207/683 174/675
f 409/534 413/531 411/533
f 165/665 219/679 170/673
f 413/531 147/527 412/517
f 191/681 219/679 218/685
f 196/711 454/722 203/717
f 274/630 202/624 201/626
f 172/943 198/944 76/945
f 81/540 145/543 403/538
f 233/125 234/162 483/148
f 134/307 83/295 213/294
f 137/288 138/289 267/274
f 40/317 2/310 328/308
f 189/905 289/908 186/906
f 283/100 239/109 356/117
f 324/803 211/801 371/799
f 154/677 218/685 219/679
f 208/774 89/775 209/776
f 230/226 298/242 299/233
f 333/921 332/919 347/918
f 131/574 178/583 70/586
f 62/42 59/28 533/50
f 55/461 62/470 539/469
f 216/569 185/577 131/574
f 80/567 216/569 100/572
f 131/574 185/577 178/583
f 178/583 185/577 184/582
f 455/715 184/719 181/710
f 176/700 177/703 214/706
f 447/734 457/736 183/738
f 458/716 443/725 193/726
f 182/741 449/740 183/738
f 176/700 180/702 177/703
f 456/779 449/780 460/777
f 127/596 70/586 179/591
f 72/696 73/699 191/681
f 196/711 214/706 177/703
f 156/708 214/706 196/711
f 195/742 183/738 449/740
f 103/592 105/584 188/588
f 218/685 154/677 143/691
f 142/695 143/691 154/677
f 170/673 219/679 191/681
f 217/680 170/673 169/686
f 170/673 191/681 169/686
f 164/669 165/665 170/673
f 437/735 441/733 438/732
f 165/665 164/669 167/666
f 153/667 168/664 167/666
f 174/675 152/670 167/666
f 166/674 164/669 442/678
f 166/674 163/682 162/688
f 163/682 425/687 162/688
f 438/753 439/750 437/747
f 436/408 427/411 429/405
f 431/20 418/24 419/15
f 159/415 429/405 502/418
f 160/424 159/415 504/422
f 428/44 160/37 418/24
f 428/427 159/415 160/424
f 76/831 420/830 514/835
f 422/833 420/830 161/823
f 161/823 423/827 175/824
f 174/675 151/690 173/684
f 161/823 421/834 422/833
f 151/829 204/826 158/822
f 76/831 198/832 175/824
f 151/690 174/675 204/689
f 394/825 158/822 175/824
f 410/501 151/510 394/491
f 520/526 172/530 521/532
f 191/681 143/691 72/696
f 313/704 130/709 127/701
f 142/547 141/551 119/555
f 131/574 70/586 69/590
f 156/708 203/717 157/713
f 140/961 403/960 405/959
f 154/539 139/544 142/547
f 82/537 81/540 403/538
f 153/667 152/670 150/676
f 150/525 151/510 205/509
f 173/684 150/676 174/675
f 147/527 148/528 149/523
f 153/519 149/523 148/528
f 414/500 149/523 153/519
f 411/533 140/541 154/539
f 154/539 409/534 411/533
f 404/958 405/959 406/956
f 144/545 146/549 145/543
f 404/970 141/969 407/966
f 139/544 141/551 142/547
f 142/695 72/696 143/691
f 155/556 119/555 224/550
f 141/551 224/550 119/555
f 70/586 124/599 78/595
f 120/594 186/598 131/574
f 124/234 128/246 123/220
f 313/704 129/714 130/709
f 124/895 127/896 126/893
f 125/600 122/602 69/590
f 146/1020 398/1021 145/1022
f 78/245 401/244 125/255
f 78/595 125/600 69/590
f 78/245 124/234 132/228
f 132/228 401/244 78/245
f 286/194 199/166 200/178
f 129/714 313/704 268/718
f 313/704 157/713 268/718
f 118/1051 119/1050 72/1053
f 273/889 398/892 146/890
f 129/991 227/992 123/987
f 121/227 299/233 122/243
f 99/296 343/283 138/289
f 20/320 40/317 136/313
f 136/313 331/325 20/320
f 301/275 101/290 95/284
f 244/241 243/253 230/226
f 359/875 114/874 256/876
f 242/304 330/309 389/314
f 242/304 389/314 388/316
f 95/589 101/581 104/585
f 135/1015 387/1016 133/1014
f 94/1010 135/1015 133/1014
f 298/1011 94/1010 133/1014
f 101/581 212/576 104/585
f 343/283 267/274 138/289
f 98/578 220/575 75/570
f 97/587 98/578 101/581
f 104/585 212/576 105/584
f 100/572 212/576 75/570
f 103/592 131/574 186/598
f 99/787 98/789 97/791
f 220/786 98/789 99/787
f 215/265 299/233 133/254
f 94/1010 96/1012 95/1013
f 91/159 357/161 92/175
f 211/1048 324/1049 87/1047
f 117/115 356/117 363/132
f 376/1118 315/1121 223/1119
f 90/202 344/215 89/209
f 386/931 358/934 336/932
f 90/202 352/221 344/215
f 373/1114 368/1116 370/1117
f 87/1047 88/1046 211/1048
f 238/1044 88/1046 87/1047
f 373/74 306/75 325/72
f 92/1040 93/1039 115/1042
f 303/134 92/175 357/161
f 91/159 353/138 363/132
f 382/854 312/856 305/857
f 376/1059 354/1060 239/1057
f 256/876 383/878 359/875
f 336/877 350/879 113/872
f 335/197 347/212 337/206
f 308/140 322/129 351/141
f 109/130 338/185 110/198
f 110/954 345/950 109/953
f 545/336 20/320 563/332
f 99/296 137/288 2/310
f 134/307 330/309 83/295
f 247/213 229/219 258/208
f 236/102 284/101 117/115
f 208/260 296/273 257/250
f 327/216 112/236 264/230
f 334/211 327/216 333/217
f 532/323 106/312 567/319
f 262/261 246/240 293/271
f 242/304 83/295 330/309
f 114/874 359/875 113/872
f 306/75 279/78 325/72
f 279/78 237/83 231/88
f 312/145 342/152 271/146
f 309/168 342/152 308/140
f 85/160 303/134 271/146
f 316/124 239/109 240/116
f 230/226 285/225 244/241
f 95/1013 135/1015 94/1010
f 284/101 116/108 117/115
f 228/983 129/986 268/984
f 121/227 259/214 229/219
f 146/176 234/162 235/147
f 144/560 274/559 234/561
f 202/624 265/623 201/626
f 234/633 201/626 282/629
f 260/199 261/207 272/189
f 402/723 261/730 260/728
f 305/123 240/116 263/94
f 171/727 454/722 193/726
f 100/572 75/570 80/567
f 575/453 79/455 578/457
f 70/586 178/583 179/591
f 33/579 77/571 220/575
f 74/563 80/567 75/570
f 455/715 179/705 178/720
f 71/746 73/751 72/752
f 171/749 71/746 72/752
f 172/943 76/945 523/946
f 82/537 274/542 81/540
f 142/1023 118/1024 72/1025
f 127/596 124/599 70/586
f 78/595 69/590 70/586
f 101/581 75/570 212/576
f 211/801 88/802 380/800
f 220/786 99/787 2/784
f 75/570 77/571 74/563
f 50/35 64/40 42/48
f 657/62 66/49 658/61
f 8/368 9/362 7/371
f 56/31 63/41 66/49
f 49/606 47/607 50/608
f 659/435 44/440 660/444
f 45/438 44/440 46/432
f 1/333 2/310 26/326
f 66/49 64/40 56/31
f 53/434 47/448 49/443
f 45/609 49/606 50/608
f 42/611 45/609 50/608
f 662/56 61/53 663/60
f 66/49 67/52 64/40
f 56/31 60/36 63/41
f 63/464 60/466 55/461
f 68/59 43/58 65/55
f 65/55 66/49 68/59
f 63/464 493/471 61/473
f 493/471 24/467 6/472
f 67/52 66/49 65/55
f 63/41 61/53 66/49
f 50/35 56/31 64/40
f 56/31 59/28 60/36
f 58/22 59/28 56/31
f 56/31 50/35 58/22
f 62/470 55/461 60/466
f 62/42 60/36 59/28
f 57/612 58/614 50/608
f 57/425 48/423 51/421
f 57/26 51/17 58/22
f 48/423 47/419 51/421
f 47/607 48/610 50/608
f 46/432 53/434 45/438
f 44/615 43/613 665/616
f 45/609 43/613 44/615
f 46/432 41/430 52/429
f 49/443 45/438 53/434
f 52/429 53/434 46/432
f 41/430 46/432 659/435
f 519/433 41/430 527/436
f 3/1054 4/1055 11/1056
f 10/359 39/352 13/356
f 670/372 8/368 671/378
f 35/360 14/364 16/367
f 29/345 36/347 28/338
f 19/340 18/337 21/334
f 579/350 19/340 580/349
f 2/310 40/317 20/320
f 19/340 21/334 581/343
f 1/790 32/788 2/784
f 34/357 35/360 12/353
f 27/354 17/361 34/357
f 12/353 27/354 34/357
f 15/389 11/370 672/385
f 6/472 15/480 673/484
f 675/379 31/375 676/384
f 31/375 14/364 670/372
f 43/58 42/48 65/55
f 19/340 38/342 18/337
f 16/367 14/364 11/370
f 9/362 17/361 27/354
f 2/310 20/320 26/326
f 29/345 28/338 38/342
f 9/362 8/368 17/361
f 29/345 27/354 12/353
f 29/345 38/342 19/340
f 18/337 26/326 21/334
f 20/320 21/334 26/326
f 33/785 2/784 32/788
f 36/347 37/344 28/338
f 12/353 25/351 36/347
f 23/468 22/474 24/467
f 8/368 14/364 17/361
f 3/366 30/363 16/367
f 678/376 7/371 679/380
f 11/401 15/402 3/403
f 682/381 5/377 683/387
f 9/362 5/377 7/371
f 587/373 9/362 588/369
f 683/387 585/388 690/391
f 3/366 16/367 4/374
f 24/467 10/478 3/476
f 77/454 33/456 221/452
f 3/476 6/472 24/467
f 664/477 493/471 685/475
f 24/467 493/471 63/464
f 65/55 42/48 67/52
f 79/455 221/452 54/458
f 1/333 18/337 28/338
f 67/52 42/48 64/40
f 35/360 16/367 30/363
f 63/464 54/458 492/462
f 25/351 12/353 13/356
f 55/461 54/458 63/464
f 685/475 6/472 686/479
f 42/611 43/613 45/609
f 79/455 55/461 577/460
f 50/608 48/610 57/612
f 43/58 68/59 661/63
f 14/364 35/360 34/357
f 11/370 14/364 31/375
f 11/370 4/374 16/367
f 23/341 37/344 22/348
f 37/344 36/347 25/351
f 27/354 29/345 579/350
f 37/344 25/351 39/352
f 22/348 37/344 39/352
f 28/338 37/344 23/341
f 1/463 23/468 492/462
f 28/338 18/337 38/342
f 36/347 29/345 12/353
f 3/476 15/480 6/472
f 24/467 492/462 23/468
f 34/357 17/361 14/364
f 9/362 27/354 583/358
f 18/337 1/333 26/326
f 23/341 1/333 28/338
f 39/352 25/351 13/356
f 12/353 35/360 13/356
f 39/482 10/478 22/474
f 13/356 35/360 30/363
f 10/359 13/356 30/363
f 30/363 3/366 10/359
f 24/467 22/474 10/478
f 55/461 79/455 54/458
f 492/462 221/452 1/463
f 221/452 32/459 1/463
f 63/464 492/462 24/467
f 33/456 32/459 221/452
f 54/458 221/452 492/462
f 494/502 395/488 495/512
f 495/512 395/488 496/515
f 496/515 395/488 516/506
f 497/29 417/23 418/24
f 498/32 418/24 160/37
f 499/516 198/522 520/526
f 500/507 396/494 499/516
f 501/450 415/442 506/446
f 502/418 429/405 501/417
f 503/420 159/415 502/418
f 504/422 159/415 503/420
f 505/426 160/424 504/422
f 506/446 415/442 518/437
f 507/837 424/839 508/840
f 508/840 424/839 509/841
f 509/47 424/30 510/39
f 510/39 424/30 426/34
f 511/46 426/34 416/33
f 512/51 416/33 513/45
f 513/45 416/33 517/38
f 514/835 420/830 507/837
f 515/499 396/494 500/507
f 516/506 395/488 515/499
f 517/38 416/33 497/29
f 518/437 415/442 436/431
f 519/433 436/431 41/430
f 520/526 198/522 172/530
f 521/532 172/530 522/536
f 522/949 172/943 526/948
f 523/838 76/831 524/836
f 524/836 76/831 514/835
f 525/947 172/943 523/946
f 526/948 172/943 525/947
f 527/436 41/430 669/441
f 528/158 472/122 631/144
f 529/154 472/122 528/158
f 530/142 472/122 529/154
f 531/329 290/315 532/323
f 532/323 290/315 106/312
f 533/562 59/565 74/563
f 534/564 74/563 538/566
f 535/321 389/314 547/328
f 536/327 388/316 535/321
f 537/568 74/563 77/571
f 538/566 74/563 537/568
f 539/57 62/42 540/54
f 540/54 62/42 533/50
f 541/311 107/306 542/301
f 542/301 107/306 108/280
f 543/1150 329/1151 544/1152
f 544/324 329/318 290/315
f 545/336 21/334 20/320
f 546/339 21/334 545/336
f 547/328 389/314 543/322
f 548/302 321/293 248/281
f 549/303 321/293 548/302
f 550/153 109/130 530/142
f 551/184 346/169 550/153
f 552/330 290/315 531/329
f 553/205 253/196 551/184
f 554/210 253/196 553/205
f 555/223 327/216 554/210
f 556/235 327/216 557/229
f 557/229 327/216 555/223
f 558/270 241/258 250/247
f 559/279 241/258 558/270
f 560/291 254/285 559/279
f 561/298 248/281 254/285
f 562/305 254/285 569/299
f 563/332 20/320 331/325
f 564/331 331/325 136/313
f 565/1109 136/1105 566/1108
f 566/1108 136/1105 536/1107
f 567/319 106/312 541/311
f 568/292 108/280 266/286
f 569/299 254/285 560/291
f 570/300 266/286 549/303
f 571/257 250/247 556/235
f 572/268 250/247 571/257
f 573/278 250/247 572/268
f 574/451 77/454 221/452
f 575/453 221/452 79/455
f 576/465 55/461 539/469
f 577/460 55/461 576/465
f 578/457 79/455 577/460
f 579/350 29/345 19/340
f 580/349 19/340 582/346
f 581/343 21/334 546/339
f 582/346 19/340 581/343
f 583/358 27/354 584/355
f 584/355 27/354 579/350
f 585/388 5/377 586/383
f 586/383 5/377 587/373
f 587/373 5/377 9/362
f 588/369 9/362 590/365
f 585/388 589/393 684/392
f 590/365 9/362 583/358
f 591/514 485/498 609/505
f 592/521 485/498 591/514
f 593/994 481/997 489/995
f 594/974 489/975 606/976
f 595/998 481/997 593/994
f 596/492 395/488 599/496
f 597/489 395/488 596/492
f 598/490 390/487 597/489
f 599/496 395/488 494/502
f 600/977 485/978 601/979
f 601/979 485/978 592/980
f 602/503 488/493 603/497
f 603/497 488/493 598/490
f 604/1009 491/1007 605/1004
f 605/1004 491/1007 485/1005
f 606/656 489/646 491/653
f 607/658 491/653 608/659
f 608/1131 491/1132 604/1133
f 609/505 485/498 488/493
f 610/513 488/493 602/503
f 611/1006 485/1005 600/1008
f 612/640 481/632 595/641
f 613/637 482/635 481/632
f 614/636 482/635 613/637
f 615/639 481/632 612/640
f 616/1070 466/1069 652/1073
f 617/1071 480/1068 616/1070
f 618/1142 468/1143 619/1144
f 619/191 468/118 466/177
f 620/1145 468/1143 618/1142
f 621/1072 480/1068 623/1075
f 622/1074 466/1069 621/1072
f 623/1156 480/1157 617/1158
f 624/1063 479/1064 625/1065
f 625/1065 479/1064 627/1066
f 626/1101 479/1102 624/1103
f 627/1066 479/1064 628/1067
f 628/1104 479/1102 626/1101
f 629/900 461/899 630/903
f 630/112 461/91 644/104
f 631/144 472/122 473/131
f 632/155 464/143 638/170
f 633/157 473/131 632/155
f 634/638 474/628 614/636
f 635/96 469/85 636/105
f 636/105 469/85 642/97
f 637/901 464/898 629/900
f 638/1134 464/1135 637/1136
f 639/120 468/118 620/137
f 640/111 467/90 639/120
f 641/92 470/79 467/90
f 642/97 469/85 641/92
f 643/103 467/90 640/111
f 644/104 461/91 635/96
f 645/163 468/118 634/149
f 646/106 463/98 461/91
f 647/999 461/1002 465/1000
f 648/1031 463/1032 646/1033
f 649/1001 465/1000 651/1003
f 650/1028 463/1027 648/1030
f 651/1029 465/1026 650/1028
f 652/190 466/177 645/163
f 653/511 494/502 654/520
f 655/171 528/158 631/144
f 656/186 528/158 655/171
f 657/62 68/59 66/49
f 658/61 66/49 662/56
f 659/435 46/432 44/440
f 660/444 44/440 666/449
f 661/63 68/59 657/62
f 662/56 66/49 61/53
f 663/481 61/473 664/477
f 664/477 61/473 493/471
f 665/616 43/613 667/618
f 666/617 44/615 665/616
f 667/64 43/58 661/63
f 668/439 41/430 659/435
f 669/441 41/430 668/439
f 670/372 14/364 8/368
f 671/378 8/368 678/376
f 672/385 11/370 675/379
f 673/390 15/389 672/385
f 674/486 6/472 673/484
f 675/379 11/370 31/375
f 676/384 31/375 677/382
f 677/382 31/375 670/372
f 678/376 8/368 7/371
f 679/380 7/371 680/386
f 680/386 7/371 682/381
f 681/1089 6/1090 674/1091
f 682/381 7/371 5/377
f 683/387 5/377 585/388
f 684/392 589/393 691/394
f 685/475 493/471 6/472
f 686/479 6/472 688/483
f 687/1092 6/1090 681/1089
f 688/483 6/472 687/485
f 689/445 527/436 669/441
f 690/391 585/388 684/392
usemtl Tile_+032_+022_L18_00030_untextured
