mtllib Tile_+038_+020_L20_0003210.mtl
v 7.91006912e+03 4.94083470e+03 -2.88059589e-01
v 7.90802778e+03 4.94482713e+03 -2.18456427e-01
v 7.90652010e+03 4.94670018e+03 -1.61253848e-01
v 7.90843544e+03 4.95376661e+03 -2.80898558e-01
v 7.90717798e+03 4.95505730e+03 -2.67053402e-01
v 7.90872058e+03 4.95170375e+03 -2.90166555e-01
v 7.90718191e+03 4.95506898e+03 -2.67237457e-01
v 7.90718289e+03 4.95507191e+03 -2.67285803e-01
v 7.90717798e+03 4.95505730e+03 -2.67053402e-01
v 7.91204891e+03 4.94965752e+03 -2.23714372e-01
v 7.91033522e+03 4.95019422e+03 -2.14421614e-01
v 7.90815123e+03 4.94851545e+03 -2.70547838e-01
v 7.90787736e+03 4.94699871e+03 1.37285711e-01
v 7.91051103e+03 4.94907097e+03 1.41520019e-01
v 7.91360580e+03 4.95876636e+03 -2.76427024e-01
v 7.90923654e+03 4.94694105e+03 -2.14036658e-01
v 7.91015211e+03 4.94771496e+03 -1.53251390e-01
v 7.91429984e+03 4.95054322e+03 -2.36015190e-01
v 7.91058926e+03 4.96509701e+03 -2.28882000e-01
v 7.90785279e+03 4.96740747e+03 -2.58249321e-01
v 7.90984253e+03 4.96867630e+03 -2.62441552e-01
v 7.93265813e+03 4.93752306e+03 1.08178249e+00
v 7.93522094e+03 4.96625773e+03 -2.73135244e-01
v 7.93385423e+03 4.96609631e+03 6.10629263e-01
v 7.93439299e+03 4.96679716e+03 -6.22074255e-02
v 7.93647403e+03 4.94870523e+03 -2.57660730e-01
v 7.93601148e+03 4.93800522e+03 4.34699487e-01
v 7.93526650e+03 4.93856288e+03 1.09018461e-02
v 7.93062244e+03 4.93805649e+03 -1.99042073e-01
v 7.93316337e+03 4.93751252e+03 -2.47634942e-01
v 7.93712698e+03 4.93849362e+03 -8.25094082e-02
v 7.93273817e+03 4.93815949e+03 -2.60514836e-01
v 7.93551453e+03 4.93795240e+03 1.07170054e+00
v 7.93652310e+03 4.93768314e+03 5.76526283e-01
v 7.93670739e+03 4.93773020e+03 6.25290520e-02
v 7.93742831e+03 4.93755067e+03 1.00780620e+00
v 7.93410068e+03 4.94032677e+03 -2.62356078e-01
v 7.93430619e+03 4.93756294e+03 4.34047222e-01
v 7.93434511e+03 4.93797222e+03 9.55848896e-01
v 7.93607023e+03 4.93906673e+03 -4.19127414e-02
v 7.93100110e+03 4.94743629e+03 -9.66291845e-02
v 7.93265791e+03 4.94835506e+03 -2.38118483e-01
v 7.93199823e+03 4.94997542e+03 -1.08617769e-01
v 7.93222563e+03 4.94274542e+03 -2.57511030e-01
v 7.93598799e+03 4.96305887e+03 1.93429602e+00
v 7.93595034e+03 4.96315356e+03 1.89965467e+00
v 7.93474145e+03 4.95100981e+03 -2.60862845e-01
v 7.93266852e+03 4.95775973e+03 -2.22406614e-01
v 7.92701202e+03 4.95106508e+03 -2.53135285e-01
v 7.93455285e+03 4.93785653e+03 5.57881982e-01
v 7.93070160e+03 4.94035988e+03 -1.42730595e-01
v 7.92925728e+03 4.94460210e+03 -2.56228957e-01
v 7.93385126e+03 4.93808937e+03 3.99825004e-01
v 7.93428938e+03 4.93867834e+03 2.10132789e-02
v 7.93542288e+03 4.93803580e+03 5.57357893e-01
v 7.93418245e+03 4.94922735e+03 3.00095732e-02
v 7.92895860e+03 4.94908195e+03 -9.81561919e-02
v 7.93522076e+03 4.96233100e+03 -2.56822338e-01
v 7.92739989e+03 4.96869801e+03 -2.56918327e-01
v 7.93543170e+03 4.96513096e+03 1.01303855e+00
v 7.93525002e+03 4.96385331e+03 1.56089192e+00
v 7.93582637e+03 4.96303098e+03 1.92671242e+00
v 7.93275162e+03 4.95272087e+03 -1.31542712e-01
v 7.93598408e+03 4.96304275e+03 1.92838137e+00
v 7.93602382e+03 4.96321317e+03 1.92825007e+00
v 7.93620319e+03 4.96482464e+03 1.44946431e+00
v 7.93261126e+03 4.95181130e+03 -1.04497438e-02
v 7.93329170e+03 4.96685610e+03 1.18541046e+00
v 7.93347088e+03 4.96749990e+03 1.21133409e+00
v 7.93318242e+03 4.96805913e+03 2.19410397e-01
v 7.93279759e+03 4.96885976e+03 1.14583530e-01
v 7.93306004e+03 4.96878823e+03 3.55827148e-01
v 7.93648056e+03 4.96882058e+03 2.56554014e+00
v 7.93637236e+03 4.96848215e+03 2.12377321e+00
v 7.93637132e+03 4.96806336e+03 1.87635649e+00
v 7.92984134e+03 4.93741273e+03 1.07330625e+00
v 7.93522212e+03 4.96808035e+03 1.95957779e+00
v 7.93537806e+03 4.96851256e+03 2.37983788e+00
v 7.93380244e+03 4.96807238e+03 2.73367721e-01
v 7.93421789e+03 4.96701133e+03 4.51394606e-01
v 7.93585714e+03 4.96398183e+03 1.92675173e+00
v 7.93601107e+03 4.96348811e+03 1.98845589e+00
v 7.93611059e+03 4.96674232e+03 1.00177472e+00
v 7.93693247e+03 4.96755086e+03 1.24399673e+00
v 7.93702116e+03 4.96743863e+03 1.31714312e+00
v 7.93694465e+03 4.96764511e+03 1.25701565e+00
v 7.93416761e+03 4.96580530e+03 7.93012621e-01
v 7.93455266e+03 4.96563964e+03 4.36225684e-01
v 7.93475647e+03 4.96583833e+03 6.75784736e-01
v 7.93432022e+03 4.96462357e+03 1.48744232e+00
v 7.93363587e+03 4.96585505e+03 1.39247630e+00
v 7.93622588e+03 4.96537659e+03 2.53384271e-01
v 7.93591922e+03 4.96476423e+03 3.05934290e-01
v 7.93008308e+03 4.93739426e+03 4.27585823e-01
v 7.93371768e+03 4.96852857e+03 1.88905270e+00
v 7.93397375e+03 4.96722750e+03 1.77545963e+00
v 7.93491242e+03 4.96420509e+03 1.80401852e+00
v 7.93504523e+03 4.96759121e+03 1.80542767e+00
v 7.93347273e+03 4.96685616e+03 4.02725626e-01
v 7.93302314e+03 4.96797180e+03 7.23285758e-01
v 7.93321303e+03 4.96681030e+03 9.15253418e-01
v 7.93182942e+03 4.96745905e+03 -2.44841925e-01
v 7.93567507e+03 4.96474460e+03 1.37695001e+00
v 7.93519730e+03 4.96472392e+03 1.46031490e+00
v 7.93544109e+03 4.96425103e+03 1.94361590e+00
v 7.93651473e+03 4.96875083e+03 -8.30898833e-03
v 7.93385886e+03 4.96713407e+03 2.76406667e-01
v 7.93242920e+03 4.96529023e+03 -2.45429545e-01
v 7.93661460e+03 4.96748956e+03 -6.41429195e-02
v 7.93578516e+03 4.96587090e+03 -2.22728756e-03
v 7.93409776e+03 4.96785946e+03 -4.42589083e-03
v 7.93670725e+03 4.96570446e+03 1.78997622e-01
v 7.93541419e+03 4.96403500e+03 1.89013676e-01
v 7.93621289e+03 4.96472820e+03 -5.55455907e-02
v 7.93620586e+03 4.96551791e+03 9.89019580e-01
v 7.93620900e+03 4.96579003e+03 2.66192326e-01
v 7.93499194e+03 4.96465435e+03 8.63647596e-01
v 7.93450519e+03 4.96480403e+03 1.05277480e-01
v 7.93282840e+03 4.96589194e+03 3.90155147e-02
v 7.93705804e+03 4.96862289e+03 1.69170486e-01
v 7.93347700e+03 4.96813592e+03 1.43197614e+00
v 7.93305912e+03 4.96799194e+03 1.21176594e+00
v 7.93677145e+03 4.96626647e+03 1.30929818e+00
v 7.93623538e+03 4.96637201e+03 1.81345549e+00
v 7.93355170e+03 4.96639012e+03 5.73995491e-01
v 7.93688488e+03 4.96747173e+03 1.22867988e+00
v 7.93517947e+03 4.96526879e+03 1.57491898e+00
v 7.93507416e+03 4.96582590e+03 1.93148940e+00
v 7.93610808e+03 4.96537838e+03 1.45285790e+00
v 7.93444094e+03 4.96517478e+03 1.25466285e+00
v 7.93362554e+03 4.96595056e+03 1.08743454e+00
v 7.93373270e+03 4.96638869e+03 1.22107539e+00
v 7.93461427e+03 4.96502483e+03 5.63773167e-01
v 7.93436853e+03 4.96586917e+03 1.66059090e+00
v 7.93533018e+03 4.96360613e+03 2.09910634e+00
v 7.93699828e+03 4.96809150e+03 1.37467897e+00
v 7.93693057e+03 4.96757536e+03 1.36637094e+00
v 7.93565909e+03 4.96443026e+03 1.05308677e+00
v 7.93414667e+03 4.96584980e+03 1.29881786e+00
v 7.93362820e+03 4.96723768e+03 4.18605077e-01
v 7.93546973e+03 4.96298892e+03 1.99681567e+00
v 7.92726308e+03 4.94007604e+03 -2.54518487e-01
v 7.92949070e+03 4.93743830e+03 5.29507085e-01
v 7.92889607e+03 4.93846992e+03 -2.26348275e-01
v 7.91221290e+03 4.94704338e+03 -2.37974285e-01
v 7.92000747e+03 4.94766401e+03 1.75734802e-01
v 7.92126882e+03 4.94747104e+03 -2.54059579e-01
v 7.92745186e+03 4.94554093e+03 -7.47829896e-02
v 7.91659958e+03 4.96543882e+03 -2.68491284e-01
v 7.91640457e+03 4.96787524e+03 3.59043233e-01
v 7.91710504e+03 4.96820307e+03 -7.40368078e-02
v 7.92412999e+03 4.93764391e+03 -1.29488653e-01
v 7.92678474e+03 4.93803321e+03 -1.26396313e-02
v 7.91359007e+03 4.96780672e+03 3.45629843e-01
v 7.91295629e+03 4.96871020e+03 6.69335535e-01
v 7.91660376e+03 4.94903494e+03 -2.68620512e-01
v 7.91469743e+03 4.94914348e+03 1.13639613e-01
v 7.91606088e+03 4.96770278e+03 2.97944075e-01
v 7.92033686e+03 4.94962229e+03 -2.34977651e-01
v 7.91657196e+03 4.96878716e+03 8.31796393e-01
v 7.91409092e+03 4.96468783e+03 1.70574394e+00
v 7.91442039e+03 4.96590932e+03 1.29215660e+00
v 7.92189625e+03 4.93859976e+03 -1.47816802e-01
v 7.92331707e+03 4.93940189e+03 -2.65570497e-01
v 7.91950814e+03 4.93953667e+03 -3.00081749e-01
v 7.92106388e+03 4.93874513e+03 -2.09035102e-01
v 7.92581112e+03 4.94112026e+03 -1.58743474e-01
v 7.92567100e+03 4.94565411e+03 -2.54998046e-01
v 7.92274777e+03 4.94988020e+03 -2.58582906e-01
v 7.91972579e+03 4.94609938e+03 -2.44480679e-01
v 7.91895757e+03 4.94810521e+03 -9.56376509e-02
v 7.92506749e+03 4.94921108e+03 -2.57491352e-01
v 7.92974164e+03 4.94800706e+03 1.20428544e-01
v 7.92094152e+03 4.94021775e+03 -2.52604989e-01
v 7.92225777e+03 4.94087275e+03 -2.44588607e-01
v 7.92182432e+03 4.93954965e+03 1.53359957e-01
v 7.91485531e+03 4.94761259e+03 -2.46514012e-01
v 7.92406170e+03 4.95071947e+03 1.33930576e-01
v 7.91333979e+03 4.96707483e+03 1.26858912e+00
v 7.91393758e+03 4.96572593e+03 2.00354266e+00
v 7.91447529e+03 4.96393035e+03 1.80914917e+00
v 7.92388694e+03 4.95163584e+03 -3.08593534e-02
v 7.91522118e+03 4.96305360e+03 1.81868407e+00
v 7.91538708e+03 4.96286229e+03 1.63057966e+00
v 7.91679269e+03 4.96873261e+03 1.01126263e+00
v 7.91696384e+03 4.96852883e+03 1.46037922e+00
v 7.91647514e+03 4.96564352e+03 1.65946062e+00
v 7.91592815e+03 4.96676818e+03 1.25950164e+00
v 7.91639941e+03 4.96383727e+03 1.72272493e+00
v 7.91461104e+03 4.96334755e+03 1.53278300e+00
v 7.91542570e+03 4.96443232e+03 2.10607172e+00
v 7.91368360e+03 4.96603575e+03 1.86015426e+00
v 7.91303991e+03 4.96731782e+03 1.66013578e+00
v 7.91630624e+03 4.96702520e+03 2.17944569e+00
v 7.91278445e+03 4.96729633e+03 -2.26956612e-01
v 7.92236537e+03 4.96787896e+03 -2.59857327e-01
v 7.91597421e+03 4.96620090e+03 6.80985447e-02
v 7.91422310e+03 4.96821340e+03 -1.63497721e-01
v 7.91510044e+03 4.96766823e+03 -2.18412499e-01
v 7.91389536e+03 4.96738093e+03 6.33871629e-02
v 7.91332002e+03 4.96520595e+03 -2.77415436e-01
v 7.91506305e+03 4.96545970e+03 -2.59237529e-01
v 7.91303601e+03 4.96878256e+03 9.50033992e-01
v 7.91681199e+03 4.96749943e+03 1.87450230e+00
v 7.91672343e+03 4.96674345e+03 1.69333420e+00
v 7.91597756e+03 4.96584461e+03 2.08407127e+00
v 7.91307291e+03 4.96824915e+03 1.20629076e+00
v 7.91484282e+03 4.96765569e+03 2.34468324e+00
v 7.90612500e+03 4.96854449e+03 -3.23554366e-02
v 7.90612500e+03 4.96692964e+03 -2.59189849e-01
v 7.90612500e+03 4.96811471e+03 -2.58160458e-01
v 7.90612500e+03 4.96537699e+03 -2.45078047e-01
v 7.90612500e+03 4.96304595e+03 -2.67278020e-01
v 7.90612500e+03 4.95481127e+03 -2.69720888e-01
v 7.90612500e+03 4.94705004e+03 -1.85701995e-01
v 7.90612500e+03 4.94786837e+03 -2.38478731e-01
v 7.90612500e+03 4.95107004e+03 -2.84852559e-01
v 7.90612500e+03 4.94842792e+03 -2.68863555e-01
v 7.90612500e+03 4.95452363e+03 -2.66377248e-01
v 7.90612500e+03 4.94460211e+03 -2.48029174e-01
v 7.90612500e+03 4.94380017e+03 -2.39147445e-01
v 7.90612500e+03 4.94228924e+03 -2.66375667e-01
v 7.90612500e+03 4.94175836e+03 -2.72567244e-01
v 7.90612500e+03 4.94637028e+03 -1.78525599e-01
v 7.90612500e+03 4.94657884e+03 -1.39224325e-01
v 7.90612500e+03 4.94672130e+03 -1.00766811e-01
v 7.90612500e+03 4.93846413e+03 -2.50920900e-01
v 7.93762500e+03 4.96750877e+03 -1.29071455e-01
v 7.93762500e+03 4.96359883e+03 -2.47247434e-01
v 7.93762500e+03 4.96370445e+03 -2.24017293e-01
v 7.93762500e+03 4.96355424e+03 -2.42690356e-01
v 7.93762500e+03 4.96350034e+03 -2.57617052e-01
v 7.93762500e+03 4.96696758e+03 -2.16981919e-01
v 7.93762500e+03 4.96715624e+03 -2.44908098e-01
v 7.93762500e+03 4.94059561e+03 -2.61358442e-01
v 7.93762500e+03 4.94005251e+03 -2.62498171e-01
v 7.93762500e+03 4.93757485e+03 9.77172380e-01
v 7.93762500e+03 4.93738196e+03 6.07006302e-01
v 7.93762500e+03 4.95780720e+03 -2.28968488e-01
v 7.93762500e+03 4.96199393e+03 -2.57547307e-01
v 7.93762500e+03 4.93947518e+03 -1.47466276e-01
v 7.93762500e+03 4.93881761e+03 -1.23391632e-01
v 7.93762500e+03 4.93751434e+03 1.19724963e+00
v 7.93762500e+03 4.95167046e+03 -2.61341013e-01
v 7.93762500e+03 4.94907576e+03 -2.57989584e-01
v 7.93762500e+03 4.94515302e+03 -2.59644464e-01
v 7.93762500e+03 4.94812301e+03 -2.57972449e-01
v 7.93762500e+03 4.93763410e+03 -1.50176314e-01
v 7.93762500e+03 4.93820147e+03 -1.81454223e-02
v 7.93762500e+03 4.96736507e+03 -1.93885294e-01
v 7.90976351e+03 4.93737500e+03 -2.63655262e-01
v 7.91110214e+03 4.93737500e+03 -2.63958722e-01
v 7.90691054e+03 4.93737500e+03 -2.48058636e-01
v 7.92091441e+03 4.93737500e+03 -2.65493778e-01
v 7.92135435e+03 4.93737500e+03 -2.51807710e-01
v 7.92978333e+03 4.93737500e+03 1.06070612e+00
v 7.92977073e+03 4.93737500e+03 1.07036954e+00
v 7.92979866e+03 4.93737500e+03 1.06153305e+00
v 7.93011122e+03 4.93737500e+03 1.18894522e+00
v 7.92771533e+03 4.93737500e+03 3.15331909e-01
v 7.92859590e+03 4.93737500e+03 3.16587610e-01
v 7.92941857e+03 4.93737500e+03 5.31206975e-01
v 7.92903102e+03 4.93737500e+03 3.71780083e-01
v 7.93007923e+03 4.93737500e+03 4.14476235e-01
v 7.93010414e+03 4.93737500e+03 4.06594752e-01
v 7.92421238e+03 4.93737500e+03 -6.81814673e-02
v 7.92350481e+03 4.93737500e+03 -1.58296513e-01
v 7.92131880e+03 4.93737500e+03 -2.35039703e-01
v 7.91691873e+03 4.93737500e+03 -2.77495034e-01
v 7.91886312e+03 4.93737500e+03 -2.84946794e-01
v 7.92702879e+03 4.93737500e+03 3.25152082e-01
v 7.92644982e+03 4.93737500e+03 1.55889431e-01
v 7.92984979e+03 4.93737500e+03 1.05826910e+00
v 7.92481444e+03 4.93737500e+03 1.17502526e-02
v 7.93005014e+03 4.93737500e+03 4.34950019e-01
v 7.92948757e+03 4.93737500e+03 5.35011065e-01
v 7.93260816e+03 4.93737500e+03 9.85781337e-01
v 7.93005573e+03 4.93737500e+03 1.04368867e+00
v 7.93056075e+03 4.93737500e+03 1.23215533e+00
v 7.93243805e+03 4.93737500e+03 1.14646703e+00
v 7.93760547e+03 4.93737500e+03 6.01290989e-01
v 7.93748210e+03 4.93737500e+03 6.49605611e-01
v 7.93324568e+03 4.93737500e+03 8.12570989e-01
v 7.93423142e+03 4.93737500e+03 5.63666656e-01
v 7.93738349e+03 4.93737500e+03 5.69618100e-01
v 7.93673831e+03 4.93737500e+03 2.97551881e-01
v 7.93426247e+03 4.93737500e+03 3.62239625e-01
v 7.93434197e+03 4.93737500e+03 2.17140494e-01
v 7.93443337e+03 4.93737500e+03 1.31593814e+00
v 7.93557531e+03 4.93737500e+03 1.31758471e+00
v 7.93682656e+03 4.93737500e+03 1.34853928e+00
v 7.93735107e+03 4.93737500e+03 1.21412507e+00
v 7.93673775e+03 4.93737500e+03 -1.72514202e-01
v 7.93582592e+03 4.93737500e+03 1.30623671e+00
v 7.93354309e+03 4.93737500e+03 -2.15071940e-01
v 7.93662209e+03 4.93737500e+03 -1.74029289e-02
v 7.93680499e+03 4.93737500e+03 1.26650022e-01
v 7.93310222e+03 4.93737500e+03 -2.54219222e-01
v 7.93099950e+03 4.93737500e+03 -2.37181855e-01
v 7.93047905e+03 4.93737500e+03 6.56606134e-03
v 7.93397907e+03 4.93737500e+03 1.27547169e+00
v 7.93257737e+03 4.93737500e+03 1.16568401e+00
v 7.93297822e+03 4.93737500e+03 1.19433090e+00
v 7.90796942e+03 4.93737500e+03 -2.53847304e-01
v 7.90626363e+03 4.93737500e+03 -2.50407665e-01
v 7.90612500e+03 4.93737500e+03 -2.50911053e-01
v 7.93751589e+03 4.93737500e+03 6.36370216e-01
v 7.93762330e+03 4.93737500e+03 6.03119010e-01
v 7.93747468e+03 4.93737500e+03 1.29943277e+00
v 7.93739723e+03 4.93737500e+03 -1.71281081e-01
v 7.93762500e+03 4.93737500e+03 -1.70855190e-01
v 7.93762500e+03 4.93737500e+03 1.40317189e+00
v 7.93762500e+03 4.93737500e+03 6.03292880e-01
v 7.90672518e+03 4.96887500e+03 2.70341740e-01
v 7.90992687e+03 4.96887500e+03 -2.50186576e-01
v 7.91049712e+03 4.96887500e+03 -1.46624069e-01
v 7.90930238e+03 4.96887500e+03 -2.11983500e-01
v 7.90873907e+03 4.96887500e+03 -1.78178366e-01
v 7.90986579e+03 4.96887500e+03 -2.60447853e-01
v 7.90741183e+03 4.96887500e+03 4.17979542e-01
v 7.91297655e+03 4.96887500e+03 1.09124790e+00
v 7.91298869e+03 4.96887500e+03 9.14344018e-01
v 7.91379435e+03 4.96887500e+03 2.38225965e+00
v 7.91355961e+03 4.96887500e+03 2.34228570e+00
v 7.91523201e+03 4.96887500e+03 2.47825651e+00
v 7.91415377e+03 4.96887500e+03 -1.49861306e-01
v 7.91393077e+03 4.96887500e+03 4.00745225e-02
v 7.91425845e+03 4.96887500e+03 5.87776555e-01
v 7.91313840e+03 4.96887500e+03 8.34811609e-01
v 7.92742629e+03 4.96887500e+03 -1.40244758e-01
v 7.92756898e+03 4.96887500e+03 -2.35505643e-01
v 7.91643654e+03 4.96887500e+03 5.71003811e-01
v 7.91432786e+03 4.96887500e+03 5.69950778e-01
v 7.91669479e+03 4.96887500e+03 7.45682128e-01
v 7.91654814e+03 4.96887500e+03 7.36381836e-01
v 7.91647397e+03 4.96887500e+03 4.74663560e-01
v 7.91642200e+03 4.96887500e+03 4.68216467e-01
v 7.91473267e+03 4.96887500e+03 -1.80689055e-01
v 7.91544456e+03 4.96887500e+03 -2.15393202e-01
v 7.92723237e+03 4.96887500e+03 -2.27045800e-01
v 7.92736419e+03 4.96887500e+03 -1.57967851e-01
v 7.91431424e+03 4.96887500e+03 5.73345599e-01
v 7.91366769e+03 4.96887500e+03 2.45390011e-01
v 7.91288347e+03 4.96887500e+03 1.41685204e+00
v 7.91561355e+03 4.96887500e+03 2.45621470e+00
v 7.91644157e+03 4.96887500e+03 2.23622683e+00
v 7.91283645e+03 4.96887500e+03 1.53140320e+00
v 7.91659771e+03 4.96887500e+03 2.13032050e+00
v 7.91680481e+03 4.96887500e+03 1.72863022e+00
v 7.91694001e+03 4.96887500e+03 1.40280365e+00
v 7.91851342e+03 4.96887500e+03 -2.32228967e-01
v 7.91806091e+03 4.96887500e+03 -1.59906538e-01
v 7.91300881e+03 4.96887500e+03 8.90425952e-01
v 7.92158464e+03 4.96887500e+03 -1.67680716e-01
v 7.92216008e+03 4.96887500e+03 1.03731222e-01
v 7.91119756e+03 4.96887500e+03 -6.80649901e-02
v 7.91250718e+03 4.96887500e+03 2.81471183e-01
v 7.91277674e+03 4.96887500e+03 5.64353262e-01
v 7.91294604e+03 4.96887500e+03 6.86989477e-01
v 7.92694300e+03 4.96887500e+03 -2.58317142e-01
v 7.92392392e+03 4.96887500e+03 -2.62292142e-01
v 7.92352425e+03 4.96887500e+03 -1.91514521e-01
v 7.92003017e+03 4.96887500e+03 -2.38120535e-01
v 7.92250761e+03 4.96887500e+03 1.31784428e-01
v 7.92766675e+03 4.96887500e+03 -2.44877878e-01
v 7.91432425e+03 4.96887500e+03 5.69535714e-01
v 7.91714370e+03 4.96887500e+03 2.54010864e-01
v 7.91663983e+03 4.96887500e+03 3.59388882e-01
v 7.91681902e+03 4.96887500e+03 9.62891313e-01
v 7.91679716e+03 4.96887500e+03 1.02531684e+00
v 7.91346799e+03 4.96887500e+03 2.27716247e+00
v 7.91602602e+03 4.96887500e+03 1.00399426e-01
v 7.91660715e+03 4.96887500e+03 8.15165601e-01
v 7.91432138e+03 4.96887500e+03 5.70251694e-01
v 7.91306275e+03 4.96887500e+03 6.41136632e-01
v 7.93698913e+03 4.96887500e+03 1.14830637e+00
v 7.93697973e+03 4.96887500e+03 1.14063143e+00
v 7.93700361e+03 4.96887500e+03 1.15552743e+00
v 7.93699949e+03 4.96887500e+03 1.19173465e+00
v 7.93474610e+03 4.96887500e+03 3.04527918e+00
v 7.93529123e+03 4.96887500e+03 3.21898864e+00
v 7.93301866e+03 4.96887500e+03 4.70384677e-01
v 7.93306573e+03 4.96887500e+03 3.76265664e-01
v 7.93401156e+03 4.96887500e+03 2.75075871e+00
v 7.93291998e+03 4.96887500e+03 8.04920340e-01
v 7.93292900e+03 4.96887500e+03 9.19524649e-01
v 7.93660056e+03 4.96887500e+03 1.73259048e+00
v 7.93683060e+03 4.96887500e+03 1.32511837e+00
v 7.93689051e+03 4.96887500e+03 1.10707554e+00
v 7.93607227e+03 4.96887500e+03 7.72157392e-01
v 7.93318286e+03 4.96887500e+03 2.62584905e-01
v 7.93358257e+03 4.96887500e+03 2.40257263e+00
v 7.93359330e+03 4.96887500e+03 1.84879688e+00
v 7.93323122e+03 4.96887500e+03 1.38853434e+00
v 7.93297898e+03 4.96887500e+03 1.21908718e+00
v 7.93347820e+03 4.96887500e+03 1.69719529e+00
v 7.93343546e+03 4.96887500e+03 1.48880941e+00
v 7.93659075e+03 4.96887500e+03 8.08842840e-02
v 7.93652583e+03 4.96887500e+03 -1.99292163e-02
v 7.93705126e+03 4.96887500e+03 2.80439833e-01
v 7.93436503e+03 4.96887500e+03 -6.38202567e-02
v 7.93397451e+03 4.96887500e+03 -1.18008944e-01
v 7.93638183e+03 4.96887500e+03 -1.26580503e-01
v 7.93535550e+03 4.96887500e+03 -2.96182427e-01
v 7.93649097e+03 4.96887500e+03 -1.68186016e-02
v 7.93371765e+03 4.96887500e+03 1.58231954e-01
v 7.93370293e+03 4.96887500e+03 1.74869028e-01
v 7.93476303e+03 4.96887500e+03 -1.46846453e-01
v 7.93162928e+03 4.96887500e+03 -8.20076122e-02
v 7.93278134e+03 4.96887500e+03 1.13938847e-01
v 7.93497603e+03 4.96887500e+03 4.91311444e-01
v 7.93618220e+03 4.96887500e+03 2.81946457e+00
v 7.93648143e+03 4.96887500e+03 2.62038198e+00
v 7.93558924e+03 4.96887500e+03 3.16293399e+00
v 7.93654978e+03 4.96887500e+03 1.87187087e+00
v 7.93651199e+03 4.96887500e+03 2.42954000e+00
v 7.93379679e+03 4.96887500e+03 3.01112271e-01
v 7.93152084e+03 4.96887500e+03 -1.85903741e-01
v 7.93281193e+03 4.96887500e+03 1.09708176e-01
v 7.93285826e+03 4.96887500e+03 1.15880770e-01
v 7.93279894e+03 4.96887500e+03 1.18582497e-01
v 7.90612500e+03 4.96887500e+03 -3.54264745e-02
v 7.93723666e+03 4.96887500e+03 3.47241471e-01
v 7.93762500e+03 4.96887500e+03 6.56842697e-02
vt 0.025415843 0.95508325
vt 0.052658241 0.98980278
vt 0.04526487 0.99524629
vt 0.03755378 0.99525064
vt 0.062863834 0.89180458
vt 0.052977555 0.99524224
vt 0.019381475 0.99525088
vt 0.092922583 0.95199621
vt 0.0017627772 0.94201708
vt 0.053813607 0.99524152
vt 0.0099832807 0.99525982
vt 0.061618783 0.99523443
vt 0.10024486 0.89476383
vt 0.0017557949 0.89950967
vt 0.0017680235 0.97446084
vt 0.0017683427 0.98622251
vt 0.07120619 0.99522668
vt 0.10412833 0.71846348
vt 0.10812779 0.95429689
vt 0.0017698294 0.99527109
vt 0.089130647 0.99520826
vt 0.12410557 0.90169489
vt 0.10394873 0.96595097
vt 0.001745617 0.83569258
vt 0.095274881 0.99068511
vt 0.1246269 0.96215713
vt 0.14513841 0.9011097
vt 0.11261934 0.97708887
vt 0.0017091285 0.61025047
vt 0.092818491 0.9952004
vt 0.13657899 0.92197227
vt 0.29299384 0.99024123
vt 0.1086193 0.99520034
vt 0.095135167 0.99519652
vt 0.016123928 0.61697662
vt 0.11167315 0.99520206
vt 0.13777052 0.96308428
vt 0.22407477 0.96786273
vt 0.28760624 0.50750464
vt 0.10501662 0.99519867
vt 0.096733093 0.9951964
vt 0.0017078299 0.60237557
vt 0.033331182 0.58163035
vt 0.1195977 0.99519747
vt 0.12934276 0.99519187
vt 0.28674048 0.9950906
vt 0.17135115 0.99516493
vt 0.24482933 0.5231539
vt 0.40002236 0.81586081
vt 0.1424755 0.96780151
vt 0.0016926493 0.50782633
vt 0.11359203 0.49333018
vt 0.1372999 0.99518055
vt 0.24541354 0.99511749
vt 0.29070136 0.99508744
vt 0.1921134 0.99515158
vt 0.15206839 0.97677886
vt 0.24721631 0.49806148
vt 0.22922939 0.47510391
vt 0.36182281 0.89690095
vt 0.36506528 0.69073439
vt 0.143429 0.99516934
vt 0.037225347 0.52515268
vt 0.19622621 0.46806407
vt 0.1427177 0.99516994
vt 0.23994206 0.99511969
vt 0.29250526 0.99508494
vt 0.21339139 0.99513644
vt 0.16515653 0.99516755
vt 0.26098013 0.45676476
vt 0.40267453 0.86250126
vt 0.35362223 0.95628226
vt 0.36617973 0.5527823
vt 0.43291268 0.69199014
vt 0.029417368 0.43787056
vt 0.059320267 0.48381013
vt 0.14512298 0.45201784
vt 0.22602354 0.99512243
vt 0.29335514 0.99508405
vt 0.22126654 0.99512607
vt 0.15259831 0.99516767
vt 0.26922566 0.35937947
vt 0.20897394 0.40916085
vt 0.43293825 0.8493281
vt 0.39023557 0.88356489
vt 0.36728796 0.91336489
vt 0.29664746 0.99508393
vt 0.3934111 0.50592315
vt 0.35585457 0.47762579
vt 0.43293142 0.80661166
vt 0.14570031 0.99517012
vt 0.0016808241 0.43549228
vt 0.082775883 0.46910179
vt 0.11902583 0.45499879
vt 0.17733794 0.42654014
vt 0.29530901 0.99508464
vt 0.31424227 0.45319182
vt 0.19170573 0.41444677
vt 0.4329381 0.84785295
vt 0.43293849 0.85054886
vt 0.39088672 0.90643471
vt 0.38132712 0.91893977
vt 0.37610966 0.93974978
vt 0.34940416 0.99504858
vt 0.36425349 0.52787971
vt 0.43288571 0.52398419
vt 0.0016781301 0.42017287
vt 0.061719373 0.4530502
vt 0.08500924 0.39753282
vt 0.12118273 0.41309285
vt 0.18784592 0.37162238
vt 0.29360127 0.35626149
vt 0.41361234 0.88147682
vt 0.37718749 0.92698693
vt 0.38139737 0.94735724
vt 0.35088775 0.9950456
vt 0.34219393 0.40812027
vt 0.41711736 0.44281465
vt 0.0016741316 0.39776838
vt 0.056802269 0.41593564
vt 0.31831205 0.33054662
vt 0.2711229 0.23525226
vt 0.18483786 0.19195694
vt 0.4203822 0.90819508
vt 0.40004227 0.92336398
vt 0.37214243 0.97268993
vt 0.36687884 0.99461424
vt 0.38574925 0.45712358
vt 0.32495469 0.42375308
vt 0.36487833 0.43326151
vt 0.43287417 0.45294857
vt 0.0070807617 0.3881861
vt 0.044266444 0.39475727
vt 0.236976 0.18823242
vt 0.20446162 0.21058911
vt 0.43293878 0.85344023
vt 0.38870975 0.93813533
vt 0.40776211 0.91276336
vt 0.38467276 0.96721947
vt 0.36665651 0.9950316
vt 0.3589364 0.27968949
vt 0.43286994 0.42686492
vt 0.0016720776 0.38876653
vt 0.025658917 0.3963412
vt 0.29099417 0.20665359
vt 0.22248204 0.22850937
vt 0.24809489 0.1400941
vt 0.055636775 0.22757661
vt 0.20407797 0.13276327
vt 0.43295321 0.94277537
vt 0.40189603 0.99501669
vt 0.41912356 0.95707166
vt 0.3806293 0.97304612
vt 0.37046948 0.9926489
vt 0.36689743 0.99503136
vt 0.4328568 0.34555501
vt 0.0016717162 0.38486713
vt 0.027710862 0.33689493
vt 0.33806324 0.21439171
vt 0.21654008 0.1922828
vt 0.21752261 0.16628259
vt 0.069761783 0.13285035
vt 0.21010007 0.13275909
vt 0.17599887 0.13278186
vt 0.39378485 0.99501908
vt 0.41594377 0.9950043
vt 0.38833624 0.99502099
vt 0.379473 0.99502242
vt 0.36707523 0.99503142
vt 0.43283659 0.22078609
vt 0.0016710677 0.3791582
vt 0.0016637173 0.33075196
vt 0.2844356 0.1507262
vt 0.31334019 0.16266733
vt 0.20612971 0.17027122
vt 0.0016601 0.30879706
vt 0.1493828 0.13279897
vt 0.051437844 0.13286221
vt 0.43295422 0.94794083
vt 0.41776162 0.99160153
vt 0.38299093 0.99502552
vt 0.37927139 0.99502224
vt 0.36770943 0.99503088
vt 0.36593205 0.15413541
vt 0.3845925 0.21345729
vt 0.27984694 0.13270593
vt 0.33696982 0.15133303
vt 0.23953618 0.13273823
vt 0.0016535929 0.26743245
vt 0.001651283 0.25289881
vt 0.42519698 0.98809052
vt 0.41743699 0.9950012
vt 0.43283421 0.2059176
vt 0.25746197 0.13272327
vt 0.28777108 0.13269752
vt 0.29716888 0.13269162
vt 0.32957935 0.13319564
vt 0.24922118 0.13273019
vt 0.02687918 0.13287795
vt 0.43295479 0.95365697
vt 0.41791415 0.99500096
vt 0.41880223 0.9949984
vt 0.37174946 0.13641906
vt 0.38716626 0.16832072
vt 0.41154569 0.1789391
vt 0.30922267 0.13268375
vt 0.32986778 0.13266861
vt 0.32146999 0.13440466
vt 0.012384637 0.13288724
vt 0.432955 0.95758975
vt 0.42510447 0.99499047
vt 0.37091181 0.13265491
vt 0.38116369 0.15219301
vt 0.40054113 0.16515118
vt 0.43283084 0.19010967
vt 0.31517851 0.13267881
vt 0.33500254 0.13267308
vt 0.32952672 0.13266867
vt 0.3204824 0.13267225
vt 0.3291283 0.13266855
vt 0.0016365271 0.16271162
vt 0.3421284 0.1326732
vt 0.37694651 0.1326502
vt 0.38738856 0.13777596
vt 0.39076543 0.14580899
vt 0.42600891 0.16324031
vt 0.41073346 0.1498692
vt 0.32142684 0.13267159
vt 0.0035293514 0.13289303
vt 0.4276419 0.99498755
vt 0.38787892 0.1326347
vt 0.40267569 0.15070915
vt 0.43282777 0.17210674
vt 0.0016316988 0.13289428
vt 0.43295968 0.99498951
vt 0.43282428 0.15523642
vt 0.42026094 0.14234096
vt 0.4328227 0.13970613
vt 0.42067653 0.13262105
vt 0.42970386 0.13261515
vt 0.41909224 0.13261902
vt 0.43282169 0.13261312
vt 0.73953617 0.13273823
vt 0.70612973 0.17027122
vt 0.70961332 0.13275909
vt 0.4674328 0.9266752
vt 0.46286833 0.93339062
vt 0.44945449 0.92526591
vt 0.48371834 0.94340008
vt 0.43971148 0.93017256
vt 0.44206238 0.96389085
vt 0.50470239 0.94059294
vt 0.43954951 0.93247592
vt 0.44003126 0.9230448
vt 0.44174433 0.96088791
vt 0.48909867 0.94969672
vt 0.44157836 0.9199096
vt 0.51703501 0.946181
vt 0.44007182 0.91862237
vt 0.52596629 0.9389441
vt 0.53235167 0.95409393
vt 0.53570306 0.95092428
vt 0.48374519 0.98072731
vt 0.46782097 0.98421097
vt 0.48097721 0.97075433
vt 0.48288593 0.99358416
vt 0.46901849 0.9699856
vt 0.4890767 0.99239355
vt 0.46732411 0.99390048
vt 0.46101391 0.9670096
vt 0.50699192 0.98610377
vt 0.46390879 0.99365675
vt 0.45422664 0.97265333
vt 0.50271517 0.98998481
vt 0.4502728 0.99502671
vt 0.45168456 0.95869797
vt 0.44196963 0.98511457
vt 0.5081777 0.98912311
vt 0.44133434 0.97649026
vt 0.51007611 0.98857588
vt 0.44312406 0.99155688
vt 0.44267753 0.9743275
vt 0.43927523 0.9842124
vt 0.53565967 0.99041992
vt 0.43931141 0.99042308
vt 0.45146775 0.96689737
vt 0.44087365 0.97614431
vt 0.44144017 0.99386793
vt 0.43965265 0.97522753
vt 0.43939245 0.99667823
vt 0.43938264 0.97534764
vt 0.4394097 0.97528064
vt 0.43938658 0.97528571
vt 0.94079077 0.91335303
vt 0.9578827 0.96109021
vt 0.94243294 0.99704671
vt 0.93897295 0.99704975
vt 0.94453204 0.90421373
vt 0.96362448 0.99703097
vt 0.974603 0.90769142
vt 0.97945285 0.94249177
vt 0.96646112 0.8660596
vt 0.96924889 0.99702775
vt 0.95245117 0.85127604
vt 0.98081452 0.84851515
vt 0.98193997 0.9017669
vt 0.98145616 0.99702442
vt 0.96344197 0.82542056
vt 0.985605 0.9341917
vt 0.98691267 0.95647454
vt 0.96588796 0.81978291
vt 0.98375869 0.99702513
vt 0.50229943 0.92973679
vt 0.50329041 0.87359905
vt 0.51450682 0.8743127
vt 0.5054118 0.93128175
vt 0.50679803 0.84256685
vt 0.50732005 0.93376648
vt 0.5019269 0.93375516
vt 0.50787514 0.79160213
vt 0.50574678 0.93376219
vt 0.53706867 0.9337858
vt 0.50491488 0.93376005
vt 0.53578198 0.85009271
vt 0.5036779 0.93376064
vt 0.52216059 0.76410389
vt 0.53711957 0.93378586
vt 0.53310579 0.77780467
vt 0.55102128 0.88298833
vt 0.54043865 0.81562257
vt 0.53716004 0.93378586
vt 0.53726077 0.93378586
vt 0.55478054 0.91612595
vt 0.53804791 0.93378609
vt 0.5552969 0.93118197
vt 0.55385113 0.9337914
vt 0.55567974 0.93379146
vt 0.5559637 0.93379116
vt 0.59710509 0.80363023
vt 0.6033892 0.79549289
vt 0.60064662 0.81855273
vt 0.59342825 0.81793058
vt 0.59542525 0.78414297
vt 0.60862464 0.82096422
vt 0.59316063 0.83439124
vt 0.58911937 0.80225021
vt 0.6029197 0.7667641
vt 0.60571164 0.78057277
vt 0.60719061 0.83769584
vt 0.59156966 0.85121703
vt 0.58200574 0.83156466
vt 0.58017743 0.81490678
vt 0.5975312 0.76549536
vt 0.61721754 0.86452508
vt 0.60911584 0.86770821
vt 0.58091211 0.85253721
vt 0.62099564 0.89993817
vt 0.59114218 0.90455681
vt 0.57495391 0.89357913
vt 0.6196273 0.90406895
vt 0.61117715 0.9188081
vt 0.57131243 0.8682496
vt 0.57109094 0.93288958
vt 0.59381574 0.91933066
vt 0.56736273 0.90182614
vt 0.5674566 0.92103809
vt 0.5646528 0.88237673
vt 0.56984568 0.8521235
vt 0.68339878 0.8505199
vt 0.67956799 0.90602142
vt 0.66675258 0.86705434
vt 0.66628557 0.85301578
vt 0.69845563 0.83771282
vt 0.65671057 0.8884232
vt 0.67458743 0.83451605
vt 0.68661302 0.83478367
vt 0.70982689 0.90248549
vt 0.66393715 0.85905439
vt 0.67281097 0.92668641
vt 0.68120122 0.83054638
vt 0.70983475 0.87076175
vt 0.70981979 0.92756778
vt 0.68991035 0.92876011
vt 0.65235686 0.91341865
vt 0.68514347 0.83920211
vt 0.70984209 0.83788949
vt 0.7098189 0.93060064
vt 0.69103259 0.93017364
vt 0.6894393 0.93330336
vt 0.62864578 0.91184247
vt 0.70984381 0.83402848
vt 0.69236952 0.93063861
vt 0.62690705 0.90891182
vt 0.62730187 0.91321039
vt 0.69137895 0.93149531
vt 0.87887895 0.99399531
vt 0.8769393 0.99580336
vt 0.86706799 0.96852142
vt 0.79192072 0.96392083
vt 0.75022715 0.9550584
vt 0.75156301 0.9506548
vt 0.78893566 0.9618063
vt 0.78812468 0.96551543
vt 0.72368944 0.95139754
vt 0.79195118 0.9629733
vt 0.7815432 0.96499193
vt 0.74222678 0.94358802
vt 0.79269987 0.96325344
vt 0.72779125 0.93317145
vt 0.79292434 0.96328872
vt 0.72592688 0.93193609
vt 0.72733462 0.92762226
vt 0.72111642 0.93831933
vt 0.72616911 0.92341024
vt 0.45260134 0.9067632
vt 0.45213819 0.90015197
vt 0.46571106 0.91777086
vt 0.46471348 0.9087413
vt 0.4598265 0.89182365
vt 0.48477566 0.92533779
vt 0.4721545 0.8984341
vt 0.45463771 0.884148
vt 0.48438245 0.89519465
vt 0.43928462 0.88743722
vt 0.50234747 0.92741412
vt 0.47801647 0.88751549
vt 0.44712755 0.86959851
vt 0.49530238 0.93354392
vt 0.49205154 0.90388775
vt 0.48519146 0.88488436
vt 0.44027123 0.87197328
vt 0.50251788 0.88736045
vt 0.50162822 0.90670675
vt 0.52121478 0.98692036
vt 0.57010162 0.98884839
vt 0.55631679 0.99670041
vt 0.89103055 0.99091375
vt 0.86866176 0.98108596
vt 0.91274506 0.99434721
vt 0.91256344 0.99549651
vt 0.7830863 0.95376772
vt 0.79406643 0.93844122
vt 0.79035574 0.96281403
vt 0.77181226 0.91202837
vt 0.80754054 0.94164473
vt 0.77329129 0.94023293
vt 0.79502994 0.91982704
vt 0.79433 0.9643988
vt 0.76757097 0.92840767
vt 0.80223817 0.9623906
vt 0.81047493 0.92859077
vt 0.7677151 0.91618627
vt 0.80660039 0.95859587
vt 0.80622882 0.96080399
vt 0.6060496 0.98390579
vt 0.58486122 0.99539477
vt 0.56466627 0.98611736
vt 0.55195189 0.97580636
vt 0.54931092 0.97558749
vt 0.53334588 0.96078879
vt 0.53341454 0.96046054
vt 0.5505982 0.97614282
vt 0.55137801 0.98049104
vt 0.56688154 0.96460593
vt 0.54324454 0.97395474
vt 0.82243043 0.96281826
vt 0.8222065 0.9399249
vt 0.82851321 0.93143117
vt 0.83429027 0.96560913
vt 0.81478316 0.93799365
vt 0.84715623 0.94538593
vt 0.71635306 0.94240874
vt 0.70107669 0.95395827
vt 0.68993294 0.94831938
vt 0.71877331 0.9306798
vt 0.72022003 0.96422023
vt 0.72126287 0.94130468
vt 0.72085053 0.95146495
vt 0.72083569 0.93123257
vt 0.72090244 0.92930889
vt 0.845236 0.92610276
vt 0.85858381 0.93566293
vt 0.84526831 0.92921841
vt 0.85874796 0.92234898
vt 0.84544462 0.9377414
vt 0.84557611 0.91880184
vt 0.87632537 0.92608047
vt 0.84632272 0.94577622
vt 0.84698266 0.91611224
vt 0.87593412 0.93440628
vt 0.85794109 0.94789273
vt 0.85802525 0.91180575
vt 0.86718094 0.93986773
vt 0.84703338 0.95131993
vt 0.8471837 0.95736313
vt 0.84758496 0.96296507
vt 0.85306293 0.96460718
vt 0.90144241 0.94795781
vt 0.89234775 0.96238613
vt 0.8837027 0.95283902
vt 0.88960165 0.93611813
vt 0.8836152 0.96567893
vt 0.87704504 0.9395147
vt 0.89958388 0.93309665
vt 0.89051563 0.92286479
vt 0.90524745 0.93682772
vt 0.90645212 0.92370647
vt 0.47846827 0.95807767
vt 0.48676023 0.97071278
vt 0.48646727 0.9813776
vt 0.48667789 0.95741296
vt 0.49714416 0.97848195
vt 0.50562453 0.97788692
vt 0.90847313 0.96105093
vt 0.93344069 0.91043872
vt 0.91028106 0.96417421
vt 0.73304743 0.88095289
vt 0.74163091 0.88657045
vt 0.72535545 0.90612429
vt 0.72077513 0.93400234
vt 0.72099119 0.93401241
vt 0.49755028 0.99232751
vt 0.49371639 0.99363238
vt 0.49623385 0.99213034
vt 0.50115305 0.99599075
vt 0.5204621 0.98849398
vt 0.494982 0.99167454
vt 0.49428922 0.97875547
vt 0.51992744 0.99517822
vt 0.51968396 0.99534011
vt 0.51347929 0.97960842
vt 0.50226903 0.96986586
vt 0.52317238 0.97586185
vt 0.50943863 0.96310651
vt 0.60143548 0.99584579
vt 0.59169358 0.99692482
vt 0.61324769 0.98727751
vt 0.61323249 0.98819125
vt 0.61316234 0.98652226
vt 0.59170473 0.99240619
vt 0.75195628 0.89497441
vt 0.7529195 0.89333689
vt 0.75891203 0.89736611
vt 0.7557503 0.9183324
vt 0.7690205 0.89976281
vt 0.7682665 0.90543437
vt 0.76723701 0.91696227
vt 0.76115113 0.92541945
vt 0.7670092 0.9203378
vt 0.76599139 0.93304235
vt 0.76683444 0.93049663
vt 0.7666961 0.93433064
vt 0.57452124 0.98074543
vt 0.56467956 0.95970088
vt 0.57851028 0.9735561
vt 0.58024466 0.97055984
vt 0.57940072 0.96649677
vt 0.59208983 0.96611989
vt 0.59467071 0.97133362
vt 0.58851373 0.96674144
vt 0.5849973 0.95440918
vt 0.58017612 0.9798705
vt 0.58537936 0.98072731
vt 0.93661278 0.9950068
vt 0.93401772 0.99612027
vt 0.92426175 0.97006178
vt 0.61966228 0.99529237
vt 0.61152345 0.9907133
vt 0.61504906 0.98292404
vt 0.99221504 0.98189586
vt 0.99269837 0.99638468
vt 0.98713571 0.98837721
vt 0.98672652 0.98355299
vt 0.98785311 0.97851408
vt 0.37711161 0.98448843
vt 0.37498745 0.99209625
vt 0.37277257 0.98937494
vt 0.37629792 0.98458725
vt 0.3740468 0.99258757
vt 0.37455952 0.99531466
vt 0.37382308 0.99243653
vt 0.37268361 0.99247849
vt 0.37366048 0.9922269
vt 0.36943236 0.99699169
vt 0.00268442 0.9946357
vt 0.0041304585 0.99610758
vt 0.0017750557 0.9970426
vt 0.37071764 0.99610472
vt 0.36931998 0.99651319
vt 0.37114179 0.99290937
vt 0.0021905443 0.99638057
vt 0.0021358081 0.9960559
vt 0.0022041127 0.99646199
usemtl Tile_+038_+020_L20_0003210_0
f 20/1 21/2 317/3
f 21/2 20/1 19/5
f 19/5 20/1 210/9
f 15/18 19/5 212/14
f 4/43 18/52 15/18
f 4/43 6/63 18/52
f 12/75 17/120 14/108
f 18/52 6/63 11/76
f 12/75 16/133 17/120
f 14/108 11/76 12/75
f 215/119 12/75 216/107
f 12/75 6/63 217/51
f 12/75 11/76 6/63
f 7/591 9/592 8/593
f 5/35 15/18 214/29
f 217/51 5/35 219/42
f 4/43 15/18 5/35
f 1/148 2/158 221/176
f 220/172 3/132 224/171
f 251/178 223/190 304/199
f 11/76 14/108 10/93
f 314/11 20/1 320/7
f 12/75 13/144 16/133
f 16/133 13/144 2/158
f 3/132 13/144 12/75
f 3/132 2/158 13/144
f 192/294 208/295 323/296
f 206/300 191/302 189/305
f 185/313 205/314 188/315
f 179/246 193/247 207/248
f 181/258 161/252 190/260
f 206/300 189/305 187/306
f 189/320 184/326 162/324
f 158/37 150/50 336/62
f 326/36 199/26 338/44
f 199/26 198/28 201/13
f 205/314 187/317 188/315
f 207/333 203/335 328/334
f 193/247 179/246 192/249
f 154/23 198/28 327/33
f 192/294 180/298 208/295
f 180/256 192/249 161/252
f 321/254 207/248 344/250
f 188/315 160/316 185/313
f 344/250 193/247 347/253
f 205/309 204/310 194/301
f 199/26 202/22 197/31
f 346/307 204/310 348/312
f 151/57 149/27 351/47
f 206/300 208/295 180/298
f 186/472 204/473 205/474
f 348/476 186/472 349/478
f 21/2 19/5 195/8
f 19/5 201/13 195/8
f 357/21 155/25 358/30
f 316/12 195/8 356/17
f 15/18 201/13 19/5
f 201/13 15/18 202/22
f 15/18 149/27 202/22
f 195/8 201/13 200/19
f 201/434 198/435 200/436
f 149/27 15/18 59/32
f 154/23 200/19 198/28
f 158/37 199/26 197/31
f 196/38 59/32 360/46
f 59/32 196/38 149/27
f 351/47 196/38 363/56
f 333/322 162/324 366/327
f 187/306 205/309 194/301
f 325/299 194/301 345/303
f 183/308 184/311 189/305
f 201/13 202/22 199/26
f 57/97 49/39 168/82
f 174/135 165/123 254/149
f 152/147 163/161 166/175
f 168/82 172/70 147/83
f 191/302 183/308 189/305
f 178/58 182/48 169/59
f 339/45 158/37 372/53
f 187/317 189/320 188/315
f 350/477 185/475 370/479
f 369/319 160/316 373/323
f 191/302 181/304 183/308
f 192/249 179/246 161/252
f 183/261 181/258 190/260
f 11/76 10/93 18/52
f 17/120 16/133 145/109
f 18/52 10/93 145/109
f 162/324 184/326 190/328
f 181/258 180/256 161/252
f 180/298 181/304 191/302
f 189/320 162/324 188/315
f 179/329 207/333 342/332
f 49/39 182/48 178/58
f 49/39 15/18 182/48
f 144/174 143/208 94/197
f 49/39 59/32 15/18
f 169/59 172/70 178/58
f 173/129 57/97 52/121
f 57/97 173/129 41/117
f 168/82 164/134 167/122
f 52/121 148/112 167/122
f 49/39 172/70 168/82
f 171/95 170/111 146/98
f 170/111 168/82 147/83
f 172/70 169/59 147/83
f 159/64 147/83 169/59
f 182/48 15/18 169/59
f 159/64 156/77 171/95
f 159/64 169/59 15/18
f 15/18 18/52 159/64
f 156/77 159/64 18/52
f 177/455 157/456 18/457
f 156/77 177/110 170/111
f 177/110 145/109 170/111
f 171/95 156/77 170/111
f 170/111 165/123 168/82
f 145/109 177/110 18/52
f 174/135 176/160 175/146
f 166/175 163/161 176/160
f 164/134 175/146 176/160
f 2/158 145/109 16/133
f 174/135 175/146 168/82
f 165/123 174/135 168/82
f 167/122 142/145 52/121
f 152/147 167/122 164/134
f 164/134 168/82 175/146
f 144/174 153/173 260/196
f 148/112 168/82 167/122
f 262/219 144/174 263/216
f 174/135 166/175 176/160
f 166/437 174/438 255/439
f 267/243 166/244 268/245
f 165/123 170/111 145/109
f 1/148 145/109 2/158
f 165/123 1/148 252/162
f 152/147 164/134 163/161
f 14/108 145/109 10/93
f 184/262 183/261 190/260
f 179/329 162/324 161/330
f 160/316 188/315 332/318
f 206/300 187/306 194/301
f 366/327 179/329 374/331
f 206/300 194/301 208/295
f 149/27 151/57 150/50
f 359/34 154/23 375/41
f 154/23 195/8 200/19
f 150/50 158/37 149/27
f 162/324 190/328 161/330
f 193/247 192/249 324/251
f 18/52 157/94 156/77
f 197/31 202/22 149/27
f 191/302 206/300 180/298
f 185/475 186/472 205/474
f 195/8 154/23 155/25
f 336/62 151/57 368/91
f 197/31 149/27 158/37
f 153/173 142/145 152/147
f 144/174 142/145 153/173
f 57/97 168/82 148/112
f 178/58 172/70 49/39
f 146/98 170/111 147/83
f 159/64 146/98 147/83
f 41/117 173/129 52/121
f 17/120 145/109 14/108
f 157/94 177/110 156/77
f 164/134 176/160 163/161
f 29/187 51/159 144/174
f 51/159 142/145 144/174
f 275/220 143/208 276/228
f 148/112 52/121 57/97
f 51/159 52/121 142/145
f 142/145 167/122 152/147
f 272/186 152/147 274/194
f 145/109 1/148 165/123
f 159/64 171/95 146/98
f 132/508 139/509 134/510
f 126/458 86/459 376/460
f 136/535 85/536 378/537
f 85/463 136/465 86/459
f 380/441 78/442 381/443
f 105/339 81/340 103/341
f 115/498 60/499 138/500
f 85/536 126/540 377/539
f 80/369 83/370 89/371
f 137/396 85/397 83/398
f 128/350 127/345 103/341
f 83/370 123/379 60/374
f 66/344 123/354 129/349
f 135/531 97/532 141/533
f 141/353 62/347 135/343
f 141/553 61/554 62/555
f 69/365 96/359 121/366
f 385/481 122/482 386/483
f 130/512 139/509 91/511
f 132/508 91/511 139/509
f 68/415 101/416 91/417
f 79/373 140/376 99/380
f 58/49 113/71 108/60
f 100/424 70/431 79/427
f 78/442 77/447 74/445
f 98/358 77/364 95/363
f 60/374 66/384 46/390
f 107/558 140/559 80/560
f 96/359 128/350 98/358
f 122/482 69/493 121/491
f 118/430 117/429 133/423
f 127/345 130/351 104/342
f 124/355 75/361 98/358
f 134/510 139/509 130/512
f 138/500 93/501 115/498
f 128/350 134/356 130/351
f 137/360 124/355 85/357
f 96/359 69/365 132/362
f 80/369 79/373 83/370
f 382/486 100/484 385/481
f 75/361 124/355 137/360
f 137/541 86/542 136/543
f 75/544 136/543 379/545
f 103/341 129/349 128/350
f 104/342 97/346 105/339
f 129/349 103/341 66/344
f 85/389 123/379 126/383
f 80/369 87/372 125/375
f 124/355 128/350 129/349
f 81/340 105/339 135/343
f 128/350 96/359 134/356
f 117/517 60/518 61/519
f 130/351 90/352 104/342
f 90/420 133/423 61/425
f 90/420 91/417 131/418
f 87/421 133/423 131/418
f 376/387 83/370 389/382
f 75/451 74/445 77/447
f 114/505 112/507 92/504
f 115/498 92/504 116/506
f 131/418 101/416 125/419
f 65/522 62/523 46/524
f 96/359 132/362 134/356
f 70/492 100/484 72/489
f 83/370 126/383 123/379
f 110/138 23/125 88/101
f 95/363 121/366 96/359
f 101/487 68/490 122/482
f 69/493 122/482 68/490
f 87/421 131/418 125/419
f 398/202 120/191 400/211
f 108/60 119/86 102/72
f 102/72 119/86 99/103
f 70/126 102/72 107/115
f 107/115 111/139 70/126
f 25/561 107/558 80/560
f 108/60 118/85 88/101
f 88/101 24/102 108/60
f 108/60 24/102 119/86
f 118/430 113/432 117/429
f 115/466 116/467 110/468
f 116/506 92/504 112/507
f 88/426 118/430 133/423
f 110/468 88/471 60/469
f 110/468 60/469 115/466
f 112/124 114/113 229/100
f 114/505 93/501 113/503
f 231/84 58/49 232/99
f 23/125 109/152 403/166
f 403/166 106/180 405/192
f 79/153 111/139 406/168
f 109/152 112/124 233/150
f 401/167 25/137 408/165
f 111/139 107/115 25/137
f 25/137 23/125 404/151
f 109/152 23/125 110/138
f 102/72 59/32 108/60
f 409/116 71/127 410/140
f 101/416 131/418 91/417
f 128/350 124/355 98/358
f 99/422 101/416 100/424
f 100/424 79/427 99/422
f 127/345 104/342 103/341
f 133/423 117/429 61/425
f 89/371 83/370 60/374
f 97/346 135/343 105/339
f 80/369 89/371 87/372
f 124/355 129/349 123/354
f 130/351 127/345 128/350
f 61/534 141/533 97/532
f 90/420 131/418 133/423
f 37/185 54/204 28/214
f 30/203 38/224 53/213
f 32/184 51/159 29/187
f 26/118 56/128 42/130
f 76/399 22/400 277/401
f 103/341 104/342 105/339
f 39/263 33/264 50/265
f 235/170 37/185 236/193
f 43/89 47/88 67/105
f 66/344 103/341 81/340
f 66/384 60/374 123/379
f 92/504 115/498 93/501
f 90/513 130/512 91/511
f 87/567 89/568 88/569
f 90/420 61/425 97/428
f 85/463 86/459 84/462
f 84/462 83/464 85/463
f 77/364 98/358 75/361
f 124/355 123/354 85/357
f 83/370 86/392 137/395
f 90/352 97/346 104/342
f 62/523 65/522 82/525
f 66/526 82/525 65/522
f 62/347 82/348 81/340
f 81/340 135/343 62/347
f 125/563 24/562 80/560
f 75/544 137/541 136/543
f 390/377 79/373 411/381
f 381/443 74/445 414/448
f 74/445 73/453 412/450
f 95/444 77/447 78/442
f 74/548 75/544 387/547
f 73/550 74/548 415/549
f 99/422 125/419 101/416
f 132/362 68/367 91/368
f 394/488 121/491 397/494
f 72/154 71/127 70/126
f 68/367 132/362 69/365
f 133/423 87/421 88/426
f 31/226 40/205 27/227
f 27/270 55/267 33/264
f 28/214 54/204 50/225
f 22/400 76/399 259/403
f 26/118 47/88 56/128
f 60/374 46/390 62/393
f 282/279 237/283 307/287
f 63/73 47/88 48/61
f 58/49 48/61 239/74
f 45/556 62/555 61/554
f 45/514 60/515 62/516
f 108/60 59/32 58/49
f 59/32 49/39 58/49
f 49/39 48/61 58/49
f 66/528 64/529 45/530
f 66/526 65/522 64/527
f 64/564 65/565 61/566
f 65/557 45/556 61/554
f 61/519 60/518 64/520
f 45/521 64/520 60/518
f 241/215 31/226 242/233
f 49/39 57/97 43/89
f 277/401 39/404 283/407
f 244/106 26/118 245/131
f 48/61 49/39 63/73
f 54/204 53/213 50/225
f 50/225 55/232 28/214
f 51/159 44/141 52/121
f 29/187 144/174 94/197
f 50/413 38/411 39/404
f 32/184 37/185 44/141
f 51/159 32/184 44/141
f 46/585 45/586 65/587
f 66/384 45/394 46/390
f 26/118 42/130 44/141
f 41/117 43/89 57/97
f 41/117 44/141 42/130
f 41/117 52/121 44/141
f 27/270 33/264 34/273
f 236/193 40/205 241/215
f 26/118 44/141 235/170
f 36/277 33/264 291/275
f 288/231 30/203 295/223
f 293/239 35/237 296/241
f 35/570 34/571 286/572
f 27/270 34/273 35/276
f 30/203 32/184 29/187
f 298/212 29/187 299/222
f 32/184 54/204 37/185
f 289/266 39/263 301/268
f 41/117 42/130 43/89
f 40/205 28/214 27/227
f 23/125 25/137 24/102
f 239/74 47/88 244/106
f 81/340 82/348 66/344
f 35/237 31/226 27/227
f 301/268 22/271 303/274
f 36/277 34/273 33/264
f 121/491 95/497 393/496
f 126/458 84/462 86/459
f 83/370 84/388 126/383
f 365/87 102/72 418/104
f 138/500 60/499 117/502
f 24/562 25/561 80/560
f 120/191 106/180 109/152
f 228/210 120/191 250/200
f 99/380 140/376 107/385
f 95/363 96/359 98/358
f 79/373 80/369 140/376
f 113/432 138/433 117/429
f 138/500 113/503 93/501
f 24/102 88/101 23/125
f 24/102 125/114 119/86
f 114/505 92/504 93/501
f 79/153 70/126 111/139
f 71/575 72/576 391/577
f 107/115 102/72 99/103
f 125/114 99/103 119/86
f 118/85 108/60 113/71
f 112/470 110/468 116/467
f 88/378 89/371 60/374
f 229/100 113/71 231/84
f 109/152 110/138 112/124
f 120/191 109/152 234/179
f 53/213 54/204 32/184
f 40/205 37/185 28/214
f 63/73 67/105 47/88
f 284/409 38/411 287/412
f 100/484 101/487 122/482
f 49/39 43/89 63/73
f 43/89 42/130 56/128
f 32/184 30/203 53/213
f 43/89 67/105 63/73
f 38/224 50/225 53/213
f 47/88 43/89 56/128
f 29/187 94/197 265/207
f 33/264 55/267 50/265
f 34/273 36/277 282/279
f 27/227 28/214 55/232
f 70/126 71/127 102/72
f 210/9 20/1 211/15
f 211/15 20/1 209/16
f 212/14 19/5 210/9
f 213/24 15/18 212/14
f 214/29 15/18 213/24
f 215/119 3/132 12/75
f 216/107 12/75 218/92
f 217/51 6/63 5/35
f 218/92 12/75 217/51
f 219/42 5/35 214/29
f 220/172 2/158 3/132
f 221/176 2/158 220/172
f 222/189 1/148 221/176
f 223/190 1/148 222/189
f 224/171 3/132 225/157
f 225/157 3/132 226/143
f 226/143 3/132 215/119
f 223/190 227/221 253/209
f 400/211 228/210 423/230
f 229/100 114/113 113/71
f 230/136 112/124 229/100
f 231/84 113/71 58/49
f 232/99 58/49 240/90
f 233/150 112/124 230/136
f 234/179 109/152 233/150
f 235/170 44/141 37/185
f 236/193 37/185 40/205
f 237/283 36/277 243/285
f 237/283 238/291 281/289
f 239/74 48/61 47/88
f 240/90 58/49 239/74
f 241/215 40/205 31/226
f 242/233 31/226 249/236
f 243/285 36/277 292/281
f 244/106 47/88 26/118
f 245/131 26/118 247/142
f 246/156 26/118 235/170
f 247/142 26/118 246/156
f 248/238 31/226 310/240
f 249/236 31/226 248/238
f 250/200 120/191 234/179
f 251/178 1/148 223/190
f 252/162 1/148 251/178
f 253/209 227/221 305/229
f 254/149 165/123 270/164
f 255/163 174/135 254/149
f 256/410 76/399 258/408
f 257/581 76/582 256/583
f 258/408 76/399 273/405
f 259/584 76/582 257/581
f 260/196 153/173 271/195
f 261/206 144/174 260/196
f 262/219 143/208 144/174
f 263/216 144/174 261/206
f 264/218 94/197 275/220
f 265/207 94/197 264/218
f 266/198 152/147 267/188
f 267/188 152/147 166/175
f 268/440 166/437 255/439
f 269/177 165/123 252/162
f 270/164 165/123 269/177
f 271/195 153/173 272/186
f 272/186 153/173 152/147
f 273/405 76/399 278/402
f 274/194 152/147 266/198
f 275/220 94/197 143/208
f 276/228 143/208 262/219
f 277/401 22/400 39/404
f 278/402 76/399 277/401
f 279/406 22/400 259/403
f 280/280 22/271 279/284
f 281/289 238/291 308/292
f 282/279 36/277 237/283
f 283/407 39/404 284/409
f 284/409 39/404 38/411
f 285/282 34/273 282/279
f 286/286 34/273 285/282
f 287/412 38/411 288/414
f 288/231 38/224 30/203
f 289/266 33/264 39/263
f 290/269 33/264 289/266
f 291/275 33/264 294/272
f 292/281 36/277 291/275
f 293/239 31/226 35/237
f 294/272 33/264 290/269
f 295/223 30/203 298/212
f 296/574 35/570 297/573
f 297/573 35/570 286/572
f 298/212 30/203 29/187
f 299/222 29/187 300/217
f 300/217 29/187 265/207
f 301/268 39/263 22/271
f 302/278 22/271 280/280
f 303/274 22/271 302/278
f 304/199 223/190 253/209
f 305/229 227/221 306/234
f 307/287 237/283 281/289
f 308/292 238/291 313/293
f 309/288 243/285 292/281
f 310/240 31/226 293/239
f 311/242 248/238 310/240
f 312/290 243/285 309/288
f 314/11 209/16 20/1
f 315/10 21/2 316/12
f 316/12 21/2 195/8
f 317/3 21/2 319/6
f 318/4 20/1 317/3
f 319/6 21/2 315/10
f 320/7 20/1 318/4
f 321/254 203/257 207/248
f 322/259 203/257 321/254
f 323/296 208/295 325/299
f 324/297 192/294 323/296
f 325/299 208/295 194/301
f 326/36 198/28 199/26
f 327/33 198/28 326/36
f 328/334 203/335 329/336
f 329/336 203/335 353/337
f 330/79 59/32 331/96
f 331/96 59/32 365/87
f 332/318 188/315 333/322
f 333/322 188/315 162/324
f 334/325 160/316 335/321
f 335/321 160/316 332/318
f 336/62 150/50 151/57
f 337/65 158/37 336/62
f 338/44 199/26 339/45
f 339/45 199/26 158/37
f 340/55 59/32 341/67
f 341/67 59/32 330/79
f 342/332 207/333 328/334
f 343/40 154/23 327/33
f 344/250 207/248 193/247
f 345/303 194/301 346/307
f 346/307 194/301 204/310
f 347/253 193/247 371/255
f 348/476 204/473 186/472
f 349/478 186/472 350/477
f 350/477 186/472 185/475
f 351/47 149/27 196/38
f 352/69 151/57 351/47
f 353/337 203/335 322/338
f 354/68 196/38 355/80
f 355/80 196/38 364/78
f 356/17 195/8 357/21
f 357/21 195/8 155/25
f 358/30 155/25 359/34
f 359/34 155/25 154/23
f 360/46 59/32 340/55
f 361/54 196/38 360/46
f 362/66 196/38 361/54
f 363/56 196/38 354/68
f 364/78 196/38 362/66
f 365/87 59/32 102/72
f 366/327 162/324 179/329
f 367/81 151/57 352/69
f 368/91 151/57 367/81
f 369/319 185/313 160/316
f 370/479 185/475 369/480
f 371/255 193/247 324/251
f 372/53 158/37 337/65
f 373/588 160/589 334/590
f 374/331 179/329 342/332
f 375/41 154/23 343/40
f 376/387 86/392 83/370
f 377/461 126/458 376/460
f 378/537 85/536 377/539
f 379/538 136/535 378/537
f 380/441 95/444 78/442
f 381/443 78/442 74/445
f 382/486 72/489 100/484
f 383/579 72/576 382/580
f 384/446 95/444 380/441
f 385/481 100/484 122/482
f 386/483 122/482 395/485
f 387/547 75/544 388/546
f 388/546 75/544 379/545
f 389/382 83/370 390/377
f 390/377 83/370 79/373
f 391/577 72/576 383/579
f 392/449 95/444 384/446
f 393/452 95/444 392/449
f 394/488 122/482 121/491
f 395/485 122/482 394/488
f 396/495 121/491 393/496
f 397/494 121/491 396/495
f 398/202 106/180 120/191
f 399/201 106/180 398/202
f 400/211 120/191 228/210
f 401/167 111/139 25/137
f 402/181 111/139 401/167
f 403/166 109/152 106/180
f 404/151 23/125 403/166
f 405/192 106/180 399/201
f 406/168 111/139 402/181
f 407/182 79/153 406/168
f 408/165 25/137 404/151
f 409/116 102/72 71/127
f 410/140 71/127 421/155
f 411/381 79/373 417/386
f 412/450 73/453 413/454
f 413/552 73/550 416/551
f 414/448 74/445 412/450
f 415/549 74/548 387/547
f 416/551 73/550 415/549
f 417/386 79/373 407/391
f 418/104 102/72 409/116
f 419/169 71/127 420/183
f 420/578 71/575 391/577
f 421/155 71/127 419/169
f 422/20 209/16 314/11
f 423/230 228/210 424/235
usemtl Tile_+038_+020_L20_0003210_untextured
