mtllib Tile_+038_+020_L20_0003220.mtl
v 7.90059699e+03 4.96975304e+03 1.22731164e-02
v 7.90141349e+03 4.97015059e+03 4.48540155e-01
v 7.90300983e+03 4.96960966e+03 -4.06172984e-02
v 7.90495675e+03 4.97092152e+03 -2.61922464e-01
v 7.89753352e+03 4.96932681e+03 1.04395087e+00
v 7.89739404e+03 4.96929121e+03 6.61314090e-01
v 7.90227293e+03 4.97062899e+03 4.64152188e-01
v 7.90180937e+03 4.97084504e+03 4.59066835e-01
v 7.90025936e+03 4.97481770e+03 6.08689087e-01
v 7.89932688e+03 4.97427619e+03 8.52741850e-01
v 7.90089756e+03 4.96887878e+03 1.88101081e+00
v 7.90134199e+03 4.96932887e+03 1.38478008e+00
v 7.90142576e+03 4.97040549e+03 4.72934155e-01
v 7.90037334e+03 4.97053021e+03 -2.16605719e-01
v 7.90626287e+03 4.97393505e+03 2.19114084e-02
v 7.89216098e+03 4.97388261e+03 4.47048534e-01
v 7.89228986e+03 4.97111064e+03 4.52079828e-01
v 7.90138488e+03 4.97126549e+03 5.53413957e-01
v 7.90115774e+03 4.97190907e+03 1.22296795e+00
v 7.90138192e+03 4.97459876e+03 5.15520157e-01
v 7.90091597e+03 4.97521483e+03 3.87547918e-01
v 7.89865057e+03 4.98648644e+03 2.64833254e+00
v 7.89952204e+03 4.98613859e+03 2.19850711e+00
v 7.89984864e+03 4.98702585e+03 2.34456868e+00
v 7.89751113e+03 4.97040168e+03 1.43515112e+00
v 7.89804766e+03 4.96864787e+03 1.89182069e+00
v 7.90246103e+03 4.99228768e+03 -1.92301533e-01
v 7.90344112e+03 4.99465766e+03 -2.64449645e-01
v 7.89908737e+03 4.99058579e+03 6.27320766e-02
v 7.89948090e+03 4.99012040e+03 -2.35260100e-01
v 7.90041525e+03 4.98994935e+03 1.83775529e-01
v 7.90075723e+03 4.98776080e+03 9.24488295e-02
v 7.90450011e+03 4.99014856e+03 -2.37111180e-01
v 7.90340748e+03 4.98798340e+03 2.84190711e-03
v 7.90270543e+03 4.98840880e+03 4.59996195e-01
v 7.90332677e+03 4.99054510e+03 -3.29123042e-02
v 7.90296388e+03 4.99165410e+03 -6.06222198e-02
v 7.90020763e+03 4.99114035e+03 2.13313572e-01
v 7.90052015e+03 4.99217515e+03 2.24278048e-01
v 7.90050344e+03 4.99335068e+03 -1.00277594e-01
v 7.90122950e+03 4.99188029e+03 -2.15114668e-01
v 7.89955333e+03 4.99342715e+03 2.68078014e-01
v 7.89971711e+03 4.99257161e+03 1.08827410e+00
v 7.89815820e+03 4.99318931e+03 5.54471627e-01
v 7.89826059e+03 4.99235001e+03 6.27565444e-01
v 7.89770847e+03 4.99207975e+03 4.62195872e-01
v 7.89778783e+03 4.99130827e+03 3.00236303e-01
v 7.89638930e+03 4.99182223e+03 -2.39794888e-01
v 7.89756528e+03 4.99429719e+03 7.09810387e-02
v 7.89956091e+03 4.99649016e+03 -2.10772323e-01
v 7.89853805e+03 4.99488242e+03 3.13138634e-01
v 7.89643216e+03 4.99585908e+03 -2.49956785e-01
v 7.89860234e+03 4.99408218e+03 5.95098019e-01
v 7.89915925e+03 4.99400970e+03 1.31410473e-01
v 7.89843441e+03 4.99366172e+03 3.67690092e-01
v 7.89844158e+03 4.99174943e+03 4.88341511e-01
v 7.89575590e+03 4.96946467e+03 -2.48101228e-01
v 7.89856645e+03 4.97162374e+03 -2.99220266e-01
v 7.89828927e+03 4.98853514e+03 2.16636188e-01
v 7.89832732e+03 4.98946390e+03 1.79119476e-01
v 7.89884052e+03 4.98801112e+03 -1.34475985e-01
v 7.89774730e+03 4.98831902e+03 1.11702354e-01
v 7.89729317e+03 4.98911198e+03 7.68605330e-02
v 7.89777613e+03 4.98764627e+03 2.16342601e-01
v 7.89806482e+03 4.98802189e+03 4.04021882e-01
v 7.89869956e+03 4.98577855e+03 -2.86598406e-01
v 7.89822465e+03 4.98716921e+03 -1.29735186e-02
v 7.89359682e+03 4.98200713e+03 -2.31928203e-01
v 7.89398332e+03 4.98056082e+03 -1.46161881e-01
v 7.89293972e+03 4.96928781e+03 9.42230819e-02
v 7.89474498e+03 4.97110339e+03 -2.88867117e-01
v 7.89467907e+03 4.98594185e+03 -2.29926711e-01
v 7.89332415e+03 4.98858932e+03 -2.61435306e-01
v 7.90066116e+03 4.99122670e+03 1.40375275e-01
v 7.89257002e+03 4.97378856e+03 -5.06808693e-02
v 7.89478040e+03 4.97306155e+03 -2.02163464e-01
v 7.89252568e+03 4.98284328e+03 4.91783897e-01
v 7.89320094e+03 4.97982898e+03 3.54555437e-01
v 7.89309143e+03 4.98607159e+03 9.99863157e-03
v 7.89497230e+03 4.97482753e+03 -8.88163469e-02
v 7.89294603e+03 4.98409237e+03 1.85978018e-01
v 7.89197538e+03 4.98442160e+03 5.33834853e-01
v 7.89241087e+03 4.98560547e+03 4.75273512e-01
v 7.89799467e+03 4.99029984e+03 8.33681372e-02
v 7.89604451e+03 4.98765051e+03 -1.40377048e-01
v 7.90426446e+03 4.98643566e+03 -2.53105280e-01
v 7.90587182e+03 4.97634086e+03 3.74164207e-01
v 7.90473009e+03 4.97546132e+03 -9.93368354e-02
v 7.90513460e+03 4.98288769e+03 -2.41339507e-01
v 7.90310690e+03 4.98175668e+03 4.41075207e-01
v 7.90351683e+03 4.98476162e+03 8.58210213e-02
v 7.90598040e+03 4.98050656e+03 4.89639548e-01
v 7.90624552e+03 4.97130408e+03 3.40106742e-03
v 7.90558769e+03 4.97298480e+03 -2.10278586e-01
v 7.90291905e+03 4.97182833e+03 -6.98260299e-02
v 7.90360523e+03 4.97473263e+03 -2.45265953e-01
v 7.90433040e+03 4.98199134e+03 5.02661160e-02
v 7.90301351e+03 4.98756017e+03 3.39885180e-01
v 7.90299697e+03 4.98715854e+03 3.86840633e-01
v 7.90586491e+03 4.97481262e+03 -7.12123744e-02
v 7.90374612e+03 4.97650117e+03 6.14776976e-01
v 7.89551821e+03 5.00000000e+03 -2.66713693e-01
v 7.89302781e+03 4.97100857e+03 2.13280947e-02
v 7.89779017e+03 4.99210269e+03 9.77840884e-01
v 7.89861949e+03 4.99387185e+03 5.36218265e-01
v 7.89870884e+03 4.99411492e+03 4.05299280e-01
v 7.89840453e+03 4.99318065e+03 1.03109949e+00
v 7.89806641e+03 4.99252331e+03 9.10736863e-01
v 7.90061521e+03 4.98821502e+03 2.14076250e+00
v 7.90046079e+03 4.98999357e+03 2.00020933e+00
v 7.89822460e+03 4.98726553e+03 2.37542507e+00
v 7.89916122e+03 4.98702165e+03 2.76626130e+00
v 7.90080833e+03 4.98327480e+03 3.24861027e+00
v 7.89899459e+03 4.98391468e+03 3.25481391e+00
v 7.90067884e+03 4.98453560e+03 3.26133727e+00
v 7.90238005e+03 4.99110830e+03 4.74061674e-01
v 7.90092694e+03 4.98917506e+03 1.26981468e-01
v 7.90142246e+03 4.98972808e+03 3.06555904e-01
v 7.90107370e+03 4.98938325e+03 3.15011170e-01
v 7.90276190e+03 4.99028714e+03 3.53219876e-01
v 7.89916553e+03 4.98499977e+03 3.07186331e+00
v 7.89795975e+03 4.98726476e+03 1.90133724e+00
v 7.89793919e+03 4.98976324e+03 1.81524094e+00
v 7.90028446e+03 4.99199694e+03 1.96060836e+00
v 7.89976838e+03 4.99105444e+03 2.03041513e+00
v 7.89948652e+03 4.99285162e+03 1.89014064e+00
v 7.89867972e+03 4.99385221e+03 1.54749584e+00
v 7.89895238e+03 4.99373082e+03 1.82708251e+00
v 7.89766308e+03 4.98714618e+03 8.30360564e-01
v 7.89778642e+03 4.98753451e+03 9.74598873e-01
v 7.90052650e+03 4.98564517e+03 2.88808118e+00
v 7.89855450e+03 4.98464214e+03 2.60677702e+00
v 7.89853723e+03 4.98578428e+03 2.79948662e+00
v 7.90147092e+03 4.98490946e+03 1.70083799e+00
v 7.90099282e+03 4.98455556e+03 2.99321339e+00
v 7.90065076e+03 4.98712880e+03 2.50718626e+00
v 7.90092408e+03 4.98654229e+03 2.53945693e+00
v 7.89566778e+03 4.97295371e+03 -9.92126031e-02
v 7.89618695e+03 4.97110625e+03 1.10551971e-01
v 7.90104264e+03 4.98504503e+03 -1.46955553e-01
v 7.89555817e+03 4.98158942e+03 -2.18967543e-01
v 7.89625443e+03 4.98394396e+03 -9.06081615e-03
v 7.90284231e+03 4.98516725e+03 4.82816551e-01
v 7.90291007e+03 4.98748159e+03 4.37215363e-01
v 7.90242726e+03 4.98402582e+03 3.60095635e-01
v 7.90217736e+03 4.98440168e+03 3.05236862e-01
v 7.90040161e+03 4.98173655e+03 2.93977908e-01
v 7.90030032e+03 4.98164228e+03 3.00474143e-01
v 7.90145799e+03 4.98318670e+03 -2.49044984e-01
v 7.90040638e+03 4.98095498e+03 5.30432964e-01
v 7.89998624e+03 4.98172305e+03 2.81818906e-01
v 7.89927398e+03 4.98164149e+03 3.43329280e-01
v 7.90144497e+03 4.98370876e+03 1.18270850e-01
v 7.90295138e+03 4.98317610e+03 4.92464990e-01
v 7.90106966e+03 4.98260672e+03 6.54501460e-02
v 7.90115164e+03 4.98005542e+03 2.94180976e-01
v 7.90077223e+03 4.97993179e+03 4.62848979e-01
v 7.90052223e+03 4.98062351e+03 5.81780367e-01
v 7.89415129e+03 4.97873745e+03 5.73808817e-01
v 7.89441200e+03 4.97626781e+03 6.03268928e-01
v 7.89563508e+03 4.97429291e+03 -7.51794365e-03
v 7.89993230e+03 4.96913062e+03 -1.91524892e-01
v 7.90026465e+03 4.97338461e+03 -2.08614106e-01
v 7.90193119e+03 4.97212735e+03 4.99906326e-01
v 7.90160171e+03 4.97237034e+03 4.00257315e-01
v 7.90151475e+03 4.97292128e+03 4.38747696e-01
v 7.90180527e+03 4.96958137e+03 4.33753551e-01
v 7.90245049e+03 4.96884228e+03 3.63903307e-01
v 7.89785173e+03 4.99129041e+03 1.28353496e+00
v 7.90113620e+03 4.98934514e+03 1.11441119e+00
v 7.90120901e+03 4.98913322e+03 1.43058288e+00
v 7.90258736e+03 4.99036967e+03 4.42765234e-01
v 7.90259843e+03 4.99006888e+03 4.23478574e-01
v 7.90147085e+03 4.98658335e+03 1.45428884e+00
v 7.89986579e+03 4.98645887e+03 8.56630522e-02
v 7.89872325e+03 4.98942174e+03 5.88849338e-01
v 7.89867156e+03 4.98776664e+03 1.62549875e-01
v 7.89868478e+03 4.98871196e+03 2.29127286e+00
v 7.89890294e+03 4.98999204e+03 1.80448414e+00
v 7.89754217e+03 4.98863036e+03 1.09553834e+00
v 7.89852761e+03 4.99115428e+03 7.38933384e-01
v 7.89753558e+03 4.98981438e+03 1.28811109e+00
v 7.90148873e+03 4.98099410e+03 4.46864353e-01
v 7.90098454e+03 4.98110813e+03 6.81749514e-01
v 7.89940860e+03 4.98778519e+03 2.23944703e+00
v 7.89844824e+03 4.98773547e+03 2.27612777e+00
v 7.90097148e+03 4.98843914e+03 1.93967320e+00
v 7.89966816e+03 4.98069472e+03 2.97790523e-01
v 7.89926726e+03 4.98148803e+03 5.82878522e-01
v 7.89985491e+03 4.98090107e+03 6.06984676e-01
v 7.89851421e+03 4.98216816e+03 1.42672754e+00
v 7.89913917e+03 4.98241247e+03 2.22356658e+00
v 7.89995530e+03 4.98784847e+03 2.06593811e+00
v 7.90069863e+03 4.99070302e+03 1.31296849e+00
v 7.90133589e+03 4.97046105e+03 1.37278834e+00
v 7.90086048e+03 4.97064117e+03 1.90245426e+00
v 7.90008407e+03 4.99074189e+03 4.35313639e-01
v 7.90037279e+03 4.99131794e+03 5.75766419e-01
v 7.90003216e+03 4.99195461e+03 9.13909634e-01
v 7.90298623e+03 4.98394099e+03 4.62924402e-01
v 7.90213940e+03 4.98412917e+03 5.24509556e-01
v 7.89770159e+03 4.98731088e+03 3.31770520e-01
v 7.89695954e+03 4.98709380e+03 5.67565044e-01
v 7.89906561e+03 4.99321955e+03 1.21845251e+00
v 7.89994002e+03 4.99256632e+03 1.42287626e+00
v 7.89824423e+03 4.98847080e+03 4.41423685e-01
v 7.90084703e+03 4.98849512e+03 4.89908375e-01
v 7.89970154e+03 4.98878465e+03 2.16730747e+00
v 7.90145547e+03 4.98787071e+03 5.58562463e-01
v 7.89870058e+03 4.99166958e+03 2.10874068e+00
v 7.89837354e+03 4.99291424e+03 1.56537168e+00
v 7.90114330e+03 4.98859455e+03 7.98264282e-01
v 7.90085027e+03 4.98158040e+03 1.35030020e+00
v 7.90136638e+03 4.98258013e+03 1.85949555e+00
v 7.90223996e+03 4.98152801e+03 4.78064418e-01
v 7.90145851e+03 4.98910181e+03 4.86292376e-01
v 7.90106223e+03 4.99076703e+03 4.53616349e-01
v 7.90132488e+03 4.98812308e+03 1.29890804e+00
v 7.90111166e+03 4.98838136e+03 3.86052669e-01
v 7.89805298e+03 4.99098613e+03 1.86435920e+00
v 7.89933954e+03 4.96918539e+03 2.08671429e+00
v 7.89753741e+03 4.98671763e+03 7.73690161e-01
v 7.89774840e+03 4.98477858e+03 6.39538815e-01
v 7.89175394e+03 4.97043157e+03 4.82426103e-01
v 7.89815984e+03 4.96997776e+03 2.58743356e+00
v 7.89911234e+03 4.97524951e+03 5.95053646e-01
v 7.89741078e+03 4.97451143e+03 5.48049584e-01
v 7.89881389e+03 4.97514262e+03 6.00559490e-01
v 7.89177754e+03 4.97258351e+03 5.67778572e-01
v 7.89736532e+03 4.97033688e+03 6.00637981e-01
v 7.89681574e+03 4.96905414e+03 4.96373945e-01
v 7.89660205e+03 4.98711564e+03 1.77992253e-01
v 7.89685027e+03 4.98603305e+03 6.11458279e-01
v 7.89860683e+03 4.98136661e+03 6.12387235e-01
v 7.90107353e+03 4.98027738e+03 4.12299531e-01
v 7.90067022e+03 4.98044385e+03 5.51179804e-01
v 7.89152657e+03 4.97425827e+03 5.38972843e-01
v 7.89721200e+03 4.97392845e+03 6.29528719e-01
v 7.89653253e+03 4.97341395e+03 5.33403032e-01
v 7.89893390e+03 4.98011883e+03 2.25977472e-01
v 7.90045025e+03 4.98114494e+03 5.98129740e-01
v 7.89894938e+03 4.99288742e+03 9.85327812e-01
v 7.90253138e+03 4.98369823e+03 3.72060030e-01
v 7.90239828e+03 4.98314695e+03 4.24958326e-01
v 7.90072379e+03 4.97219778e+03 1.87140580e+00
v 7.90198200e+03 4.98702454e+03 4.63651284e-01
v 7.90296406e+03 4.98731655e+03 4.05574961e-01
v 7.90272527e+03 4.98739607e+03 4.21804476e-01
v 7.90233765e+03 4.98492397e+03 4.50577132e-01
v 7.90253218e+03 4.98434182e+03 4.31033799e-01
v 7.90248253e+03 4.98464163e+03 4.55588580e-01
v 7.90083973e+03 4.98961458e+03 2.90324652e-01
v 7.90231870e+03 4.98469432e+03 4.69282238e-01
v 7.90168911e+03 4.98624009e+03 7.05370114e-01
v 7.90177301e+03 4.98487968e+03 1.31566466e+00
v 7.90024365e+03 4.98034587e+03 6.00807294e-01
v 7.90016745e+03 4.98096568e+03 6.94826353e-01
v 7.90192765e+03 4.97963330e+03 5.09448766e-01
v 7.89994517e+03 4.97932750e+03 5.32568828e-01
v 7.90583399e+03 4.97723399e+03 5.85729239e-01
v 7.90206049e+03 4.97308808e+03 4.80305174e-01
v 7.89911698e+03 4.98115577e+03 4.96881271e-01
v 7.90268749e+03 4.98428526e+03 4.73055928e-01
v 7.89910509e+03 4.98151346e+03 1.03423842e+00
v 7.89214226e+03 4.98022172e+03 5.27214263e-01
v 7.89200906e+03 4.98267141e+03 5.01578146e-01
v 7.89788029e+03 4.98313892e+03 6.26450592e-01
v 7.90068894e+03 4.98074514e+03 5.71392516e-01
v 7.90381947e+03 4.98104026e+03 1.03450494e-01
v 7.90236343e+03 4.98275367e+03 4.79722023e-01
v 7.90137325e+03 4.98296668e+03 5.87975719e-02
v 7.89700693e+03 4.98361236e+03 5.65181187e-01
v 7.90197918e+03 4.98268341e+03 1.20870267e+00
v 7.90226194e+03 4.98409997e+03 3.37460715e-01
v 7.90240761e+03 4.98445016e+03 3.98771354e-01
v 7.90104699e+03 4.97422230e+03 8.36285443e-01
v 7.90128760e+03 4.98043714e+03 4.44657751e-01
v 7.89878446e+03 4.98234358e+03 -2.06668586e-01
v 7.90370324e+03 4.97975687e+03 5.21151397e-01
v 7.89952677e+03 4.97550009e+03 4.83669964e-01
v 7.89935743e+03 4.97514159e+03 4.23268961e-01
v 7.89918470e+03 4.97420477e+03 8.27251572e-02
v 7.89921368e+03 4.97466583e+03 2.35491051e-01
v 7.89922885e+03 4.97440794e+03 1.26454649e-01
v 7.90127090e+03 4.97670875e+03 6.59242368e-01
v 7.89799585e+03 4.97369277e+03 1.72124045e+00
v 7.89770852e+03 4.97258887e+03 1.61658101e+00
v 7.89923002e+03 4.97490126e+03 3.40703975e-01
v 7.89916948e+03 4.97577667e+03 5.90043213e-01
v 7.89279759e+03 4.97561834e+03 2.97579483e-01
v 7.90053263e+03 4.97411922e+03 1.20429254e+00
v 7.89755262e+03 4.97554092e+03 4.42951409e-01
v 7.89758996e+03 4.96868418e+03 4.81118952e-01
v 7.90021055e+03 4.96873853e+03 3.73017308e-01
v 7.89981942e+03 4.98199140e+03 1.91255248e+00
v 7.90120727e+03 4.97250580e+03 1.26507603e+00
v 7.90058948e+03 4.97347121e+03 1.78899519e+00
v 7.90117935e+03 4.97356169e+03 6.04154038e-01
v 7.90168157e+03 4.97231520e+03 4.13786821e-01
v 7.90154734e+03 4.97222728e+03 4.36517559e-01
v 7.90037186e+03 4.98245862e+03 2.24835696e+00
v 7.90014004e+03 4.98256500e+03 2.57710168e+00
v 7.90237709e+03 4.98376658e+03 4.27688157e-01
v 7.89187367e+03 4.98661317e+03 -1.51974508e-02
v 7.89178501e+03 4.98563114e+03 5.19095837e-01
v 7.89934052e+03 4.98569686e+03 2.67731217e+00
v 7.89891246e+03 4.98206220e+03 2.37456741e-01
v 7.89810052e+03 4.98150766e+03 6.29311937e-01
v 7.90287491e+03 4.98747180e+03 4.19669796e-01
v 7.89787072e+03 4.99173173e+03 1.57855799e+00
v 7.90269413e+03 4.97481765e+03 6.12146748e-02
v 7.89668954e+03 4.97023874e+03 4.74778953e-01
v 7.89735224e+03 4.98151027e+03 5.89059536e-01
v 7.89876239e+03 4.99355969e+03 8.44976449e-01
v 7.90052541e+03 4.98944029e+03 4.50007507e-01
v 7.89722740e+03 4.97228453e+03 5.49890729e-01
v 7.89755564e+03 4.97137813e+03 1.29593295e+00
v 7.90149894e+03 4.96963770e+03 7.08422636e-01
v 7.89739843e+03 4.97123739e+03 5.23800405e-01
v 7.89882090e+03 4.97355503e+03 3.03299066e+00
v 7.89878176e+03 4.97377579e+03 2.66948258e+00
v 7.90138133e+03 4.97246514e+03 6.08679069e-01
v 7.90228758e+03 4.97242631e+03 4.56481734e-01
v 7.88668601e+03 5.00000000e+03 -2.64586267e-01
v 7.89887890e+03 4.97375334e+03 1.70663739e+00
v 7.89908470e+03 4.97391963e+03 3.28939733e+00
v 7.90139102e+03 4.99135617e+03 -6.87572427e-02
v 7.88363296e+03 5.00000000e+03 -2.72013475e-01
v 7.88570457e+03 5.00000000e+03 -2.64361624e-01
v 7.88840489e+03 4.98724624e+03 -2.82431536e-01
v 7.89986082e+03 4.99032731e+03 1.87069821e+00
v 7.89876158e+03 4.98353577e+03 2.83292570e+00
v 7.89943141e+03 4.98316629e+03 3.24975134e+00
v 7.90125409e+03 4.98331788e+03 2.94479563e+00
v 7.90075811e+03 4.98280692e+03 2.98320522e+00
v 7.90119324e+03 4.98288163e+03 2.49164709e+00
v 7.89956927e+03 4.98278690e+03 2.89013835e+00
v 7.90013764e+03 4.98231334e+03 3.44187738e+00
v 7.89838828e+03 4.98364365e+03 1.72903731e+00
v 7.89719783e+03 4.98256990e+03 5.69053146e-01
v 7.89951903e+03 4.97525202e+03 4.56944518e-01
v 7.89979329e+03 4.97665538e+03 6.49542019e-01
v 7.89665223e+03 4.98167232e+03 9.87669893e-02
v 7.89185113e+03 4.97893251e+03 5.92277415e-01
v 7.89793317e+03 4.97911888e+03 5.44335280e-01
v 7.90039692e+03 4.98244380e+03 3.26566824e+00
v 7.90075817e+03 4.99122535e+03 3.42106443e-01
v 7.90051563e+03 4.99021205e+03 4.01242284e-01
v 7.90527682e+03 4.97943397e+03 5.90968294e-01
v 7.90052450e+03 4.98104729e+03 5.15773174e-01
v 7.89686107e+03 4.97937822e+03 5.20538807e-01
v 7.89813632e+03 4.98100351e+03 4.75353163e-01
v 7.89617360e+03 4.97617106e+03 5.97515963e-01
v 7.89953054e+03 4.97510846e+03 4.37954444e-01
v 7.90191856e+03 4.97495889e+03 5.08791807e-01
v 7.89978572e+03 4.97534129e+03 5.44374840e-01
v 7.89907495e+03 4.97366803e+03 -4.17474361e-02
v 7.89099345e+03 4.97596996e+03 5.66136373e-01
v 7.89238344e+03 4.97602556e+03 5.93349672e-01
v 7.90044277e+03 4.97599772e+03 4.86298696e-01
v 7.89117105e+03 4.97743195e+03 6.01208211e-01
v 7.90237662e+03 4.97647722e+03 5.69880485e-01
v 7.90052446e+03 4.97060117e+03 2.64782598e-02
v 7.89996253e+03 4.97079735e+03 2.80030534e+00
v 7.89991751e+03 4.96965969e+03 2.01693576e+00
v 7.89919818e+03 4.97002717e+03 2.20884906e+00
v 7.90070913e+03 4.96981802e+03 2.47309186e+00
v 7.89871035e+03 4.97050073e+03 2.67882953e+00
v 7.89825048e+03 4.97095603e+03 2.84820773e+00
v 7.90070610e+03 4.97095270e+03 2.85683610e+00
v 7.90055810e+03 4.97164389e+03 2.87222639e+00
v 7.89825299e+03 4.96917034e+03 2.28430683e+00
v 7.89967744e+03 4.97359779e+03 3.31185323e+00
v 7.90035259e+03 4.97350527e+03 2.97479362e+00
v 7.89920285e+03 4.97284399e+03 3.13739616e+00
v 7.89811698e+03 4.97281533e+03 2.82523609e+00
v 7.89790328e+03 4.97319120e+03 2.53955611e+00
v 7.90058859e+03 4.97339788e+03 2.65113690e+00
v 7.90018578e+03 4.97375254e+03 2.84908763e+00
v 7.89807230e+03 4.97361679e+03 2.23069711e+00
v 7.89800507e+03 4.97202248e+03 2.56943386e+00
v 7.90042359e+03 4.97384202e+03 1.93741713e+00
v 7.89764115e+03 4.97406957e+03 9.99458344e-01
v 7.89807405e+03 4.97045917e+03 2.17446436e+00
v 7.87514595e+03 4.97415187e+03 -2.38216778e-01
v 7.87564776e+03 4.97959728e+03 2.72266038e-01
v 7.87810031e+03 4.97133735e+03 -2.57285175e-01
v 7.88057510e+03 4.97206170e+03 -4.77299414e-02
v 7.88095047e+03 4.96993703e+03 2.98068803e-03
v 7.88204550e+03 4.98406756e+03 5.12446632e-01
v 7.88198296e+03 4.98305656e+03 5.13746780e-01
v 7.88628182e+03 4.98022047e+03 1.25439386e-01
v 7.88587474e+03 4.98145528e+03 2.47667251e-02
v 7.88141166e+03 4.98271794e+03 4.01004019e-01
v 7.88006764e+03 4.98878698e+03 -2.57982203e-01
v 7.88537429e+03 4.98628565e+03 -2.62087194e-01
v 7.89117135e+03 4.98593133e+03 -1.69619029e-02
v 7.88696180e+03 4.98032260e+03 5.14704446e-01
v 7.87908121e+03 4.97807392e+03 6.16036808e-01
v 7.88025034e+03 4.97962390e+03 -2.00437631e-01
v 7.87559630e+03 4.98188406e+03 -2.14473362e-03
v 7.87653594e+03 4.98207661e+03 4.99575312e-01
v 7.87650768e+03 4.98194673e+03 5.18070311e-01
v 7.87516144e+03 4.97879432e+03 3.38042030e-01
v 7.88836355e+03 4.98317172e+03 -2.39005580e-01
v 7.88760779e+03 4.98236431e+03 3.93438881e-01
v 7.88698317e+03 4.98217418e+03 5.40928242e-01
v 7.88717129e+03 4.98270573e+03 5.26836154e-01
v 7.87795939e+03 4.98170417e+03 -1.33997488e-01
v 7.87796988e+03 4.97908015e+03 7.58065375e-02
v 7.87501989e+03 4.98531782e+03 -2.59263459e-01
v 7.87842723e+03 4.98306551e+03 -1.90327001e-01
v 7.87787163e+03 4.98530292e+03 -2.37266011e-01
v 7.87638662e+03 4.98179580e+03 4.94756398e-01
v 7.87707491e+03 4.98237540e+03 4.80986541e-01
v 7.87662175e+03 4.98181300e+03 5.49535322e-01
v 7.87646766e+03 4.97809516e+03 5.86579935e-01
v 7.87495073e+03 4.97885187e+03 3.39136739e-01
v 7.87567207e+03 4.97900683e+03 2.53692266e-01
v 7.87650579e+03 4.98101416e+03 5.00539836e-01
v 7.87522475e+03 4.97556578e+03 8.95473944e-01
v 7.87663295e+03 4.98465505e+03 5.74896432e-01
v 7.87626345e+03 4.98334376e+03 4.64159841e-01
v 7.87637679e+03 4.98197451e+03 4.93900609e-01
v 7.87613203e+03 4.98215596e+03 3.40480891e-01
v 7.87536233e+03 4.97790537e+03 6.53015090e-01
v 7.87593031e+03 4.98409525e+03 7.88122338e-02
v 7.88125507e+03 5.00000000e+03 -2.72214442e-01
v 7.87743031e+03 4.97508408e+03 6.43322527e-01
v 7.87905066e+03 4.97487815e+03 3.84278581e-01
v 7.87566598e+03 4.97483193e+03 6.07460020e-01
v 7.87570817e+03 4.97654289e+03 6.32020371e-01
v 7.87650209e+03 4.98583402e+03 -1.80573733e-01
v 7.88628747e+03 4.97060144e+03 1.18071078e+00
v 7.88646189e+03 4.96957099e+03 1.06841799e+00
v 7.88743277e+03 4.98345940e+03 4.27246959e-01
v 7.88676721e+03 4.98435810e+03 5.72967020e-01
v 7.88621989e+03 4.97327972e+03 5.24983369e-01
v 7.88644451e+03 4.97190306e+03 4.62778082e-01
v 7.87951482e+03 4.97401812e+03 -2.28874443e-01
v 7.88592062e+03 4.97410499e+03 4.49265593e-01
v 7.88517325e+03 4.97336230e+03 1.40740657e+00
v 7.88124260e+03 4.97295260e+03 5.13635527e-01
v 7.88116146e+03 4.97205655e+03 4.79160161e-01
v 7.88586480e+03 4.97344166e+03 1.19378671e+00
v 7.88599121e+03 4.97159612e+03 1.47956631e+00
v 7.88213430e+03 4.97330560e+03 1.06121936e+00
v 7.88223435e+03 4.97140408e+03 1.44422883e+00
v 7.87566391e+03 4.97571980e+03 1.18608616e+00
v 7.87801950e+03 4.97449021e+03 -1.68836225e-01
v 7.87621028e+03 4.97568721e+03 8.18835702e-01
v 7.87739931e+03 4.97878872e+03 4.72491577e-01
v 7.89071762e+03 4.97857326e+03 6.98387722e-01
v 7.88933865e+03 4.97830747e+03 6.80344726e-01
v 7.88096597e+03 4.97197559e+03 1.26528519e-01
v 7.88130435e+03 4.96866213e+03 4.51575477e-01
v 7.90134336e+03 4.98973440e+03 3.07234391e-01
v 7.89080155e+03 4.97308992e+03 -2.24109019e-02
v 7.88982699e+03 4.97035786e+03 -1.48652143e-01
v 7.89092461e+03 4.96960241e+03 4.62298445e-02
v 7.89153090e+03 4.97101504e+03 4.23919865e-01
v 7.88205271e+03 4.98509493e+03 4.53827182e-01
v 7.88511194e+03 4.97197370e+03 2.63042145e+00
v 7.88440451e+03 4.97382164e+03 1.19103631e+00
v 7.88536890e+03 4.97590246e+03 5.88946331e-01
v 7.88411449e+03 4.97487744e+03 3.33596036e-01
v 7.88271555e+03 4.97350495e+03 1.42807861e+00
v 7.88337411e+03 4.97417548e+03 5.39263706e-01
v 7.88321502e+03 4.97448343e+03 3.08934476e-01
v 7.88788428e+03 4.97888239e+03 5.24572271e-01
v 7.89143119e+03 4.97130650e+03 4.06315719e-01
v 7.89151618e+03 4.97152921e+03 4.64785143e-01
v 7.88644420e+03 4.96874605e+03 1.23973459e+00
v 7.88438793e+03 4.97422275e+03 6.38935995e-01
v 7.88543766e+03 4.97448603e+03 2.48510965e-01
v 7.88351463e+03 4.97098651e+03 3.11809442e+00
v 7.88283602e+03 4.97082443e+03 2.68464230e+00
v 7.88280237e+03 4.97141403e+03 2.86598758e+00
v 7.88539543e+03 4.97155951e+03 -1.62563207e-01
v 7.88463417e+03 4.96883225e+03 2.42580295e+00
v 7.88197790e+03 4.96898717e+03 6.60008574e-01
v 7.88767828e+03 4.98243166e+03 3.16663100e-01
v 7.88775215e+03 4.98329045e+03 3.27426348e-02
v 7.88871945e+03 4.98261375e+03 -2.11061045e-01
v 7.88477041e+03 4.96945743e+03 2.56839257e+00
v 7.88560294e+03 4.96928875e+03 2.01423198e+00
v 7.89145456e+03 4.97156434e+03 4.34907083e-01
v 7.88988436e+03 4.97836558e+03 1.13086807e+00
v 7.89053432e+03 4.97826568e+03 1.10302766e+00
v 7.88640278e+03 4.97075314e+03 4.68940159e-01
v 7.88727784e+03 4.97061014e+03 4.52514435e-01
v 7.88206774e+03 4.97386543e+03 5.04194630e-01
v 7.88217766e+03 4.97549045e+03 5.41100776e-01
v 7.88126348e+03 4.97077446e+03 5.08034245e-01
v 7.88533933e+03 4.96987045e+03 2.78401063e+00
v 7.88469523e+03 4.97029603e+03 3.12554439e+00
v 7.88562331e+03 4.97141893e+03 2.20167244e+00
v 7.89157462e+03 4.97101361e+03 4.50543419e-01
v 7.88537354e+03 4.97277037e+03 1.65212289e+00
v 7.88069073e+03 4.97537276e+03 6.12545471e-01
v 7.88347700e+03 4.97293880e+03 1.91147737e+00
v 7.88272659e+03 4.97227815e+03 1.75670423e+00
v 7.88548534e+03 4.97107380e+03 2.88726960e+00
v 7.88551358e+03 4.97080993e+03 2.00582819e+00
v 7.88238891e+03 4.97510914e+03 2.90027339e-01
v 7.88488744e+03 4.97506442e+03 2.46908112e-01
v 7.88403467e+03 4.97229863e+03 2.34071896e+00
v 7.88179299e+03 4.97070068e+03 6.47721775e-01
v 7.88181590e+03 4.97141976e+03 4.60425603e-01
v 7.88292961e+03 4.97031643e+03 2.18924293e+00
v 7.88363254e+03 4.96888970e+03 2.33331841e+00
v 7.88304669e+03 4.97004421e+03 2.84259562e+00
v 7.88320714e+03 4.97157857e+03 3.12658136e+00
v 7.88399570e+03 4.97168868e+03 3.17066343e+00
v 7.88292281e+03 4.96911230e+03 2.01468479e+00
v 7.88037203e+03 4.97361679e+03 -1.29522087e-02
v 7.88608491e+03 4.97511690e+03 4.59166460e-01
v 7.88314270e+03 4.96919937e+03 2.33835691e+00
v 7.88318284e+03 4.97563990e+03 6.08623198e-01
v 7.88632760e+03 4.96916783e+03 5.80330197e-01
v 7.88728636e+03 4.96899182e+03 4.26035367e-01
v 7.88794891e+03 4.96966040e+03 -1.98149992e-02
v 7.88221765e+03 4.97431034e+03 2.99838057e-01
v 7.87889873e+03 4.98013301e+03 -2.45643847e-01
v 7.88168515e+03 4.97254618e+03 4.90606655e-01
v 7.88188913e+03 4.97293999e+03 6.47270209e-01
v 7.88969119e+03 4.97763419e+03 6.96357507e-01
v 7.88253104e+03 4.97837277e+03 5.71425072e-01
v 7.88565727e+03 4.97752488e+03 6.15605901e-01
v 7.88757103e+03 4.97575047e+03 5.90587834e-01
v 7.88699192e+03 4.97446442e+03 5.06623517e-01
v 7.88662577e+03 4.97862522e+03 5.62457134e-01
v 7.89122570e+03 4.98000382e+03 4.53262497e-03
v 7.88175292e+03 4.98007943e+03 5.16089924e-01
v 7.88231429e+03 4.98066476e+03 4.81457472e-01
v 7.88120133e+03 4.97835482e+03 5.67579202e-01
v 7.88117506e+03 4.97995330e+03 5.51105349e-02
v 7.88916166e+03 4.97927273e+03 1.98768908e-01
v 7.88351432e+03 4.97963720e+03 9.27176885e-02
v 7.88430305e+03 4.97845625e+03 5.28727198e-01
v 7.88462195e+03 4.98050544e+03 -2.15413114e-01
v 7.88043704e+03 4.98226400e+03 -2.48572459e-01
v 7.88799731e+03 4.98492997e+03 -4.57512464e-03
v 7.88702089e+03 4.98512809e+03 5.57997051e-01
v 7.88706863e+03 4.98601447e+03 8.92982620e-02
v 7.88656435e+03 4.98312455e+03 4.38126201e-01
v 7.88081530e+03 4.98539591e+03 4.07476551e-02
v 7.88150456e+03 4.98464534e+03 5.18746250e-01
v 7.88561199e+03 4.98316986e+03 -2.31611874e-01
v 7.88754841e+03 4.98059979e+03 4.64605153e-01
v 7.88887163e+03 4.98125635e+03 -2.55561217e-01
v 7.88716834e+03 4.97217652e+03 4.45082705e-01
v 7.89091011e+03 4.98367705e+03 -1.83512803e-01
v 7.88305247e+03 4.98274817e+03 -1.54787368e-01
v 7.88351834e+03 4.97336744e+03 -2.42343012e-01
v 7.88177077e+03 4.98597101e+03 -9.03782770e-02
v 7.89088288e+03 4.98178037e+03 -1.09218238e-01
v 7.88304939e+03 4.98530304e+03 -2.39765231e-01
v 7.88102587e+03 4.98324918e+03 3.69835418e-02
v 7.88815578e+03 4.97348105e+03 -2.20321628e-01
v 7.89014967e+03 4.97331846e+03 -2.03526617e-01
v 7.88766259e+03 4.97230216e+03 6.15463160e-02
v 7.89028664e+03 4.97967589e+03 -6.48230810e-02
v 7.88868595e+03 4.97433917e+03 -9.45070825e-02
v 7.88622544e+03 4.98419970e+03 7.38816419e-02
v 7.88859086e+03 4.97128325e+03 -9.77142200e-02
v 7.87487500e+03 4.96974910e+03 -2.46708869e-01
v 7.87487500e+03 4.97129148e+03 -2.52685665e-01
v 7.87487500e+03 4.98561146e+03 -2.59403314e-01
v 7.87487500e+03 4.98563382e+03 -2.59409150e-01
v 7.87487500e+03 4.97423112e+03 -1.37000771e-01
v 7.87487500e+03 4.97414006e+03 -2.39995734e-01
v 7.87487500e+03 4.98526829e+03 -2.51266686e-01
v 7.87487500e+03 4.98550093e+03 -2.59446630e-01
v 7.87487500e+03 4.98511627e+03 -2.28303874e-01
v 7.87487500e+03 4.97260047e+03 -2.60116756e-01
v 7.87487500e+03 4.97787870e+03 6.45430007e-01
v 7.87487500e+03 4.97705936e+03 6.29784956e-01
v 7.87487500e+03 4.97879086e+03 3.56003770e-01
v 7.87487500e+03 4.97793464e+03 6.09243530e-01
v 7.87487500e+03 4.97853349e+03 4.01422304e-01
v 7.87487500e+03 4.97468887e+03 1.75283403e-01
v 7.87487500e+03 4.97517118e+03 6.37450305e-01
v 7.87487500e+03 4.97564066e+03 6.44553435e-01
v 7.87487500e+03 4.97542732e+03 7.65040353e-01
v 7.87487500e+03 4.97941572e+03 2.59726629e-01
v 7.87487500e+03 4.97887608e+03 3.32262640e-01
v 7.87487500e+03 4.97878624e+03 2.58067760e-01
v 7.87487500e+03 5.00000000e+03 -2.69172805e-01
v 7.87487500e+03 4.99372988e+03 -2.61530934e-01
v 7.87487500e+03 4.98131749e+03 -4.63794223e-02
v 7.87487500e+03 4.98123630e+03 -4.17465456e-02
v 7.87487500e+03 4.97882840e+03 3.34957222e-01
v 7.87487500e+03 4.98022943e+03 1.36403865e-01
v 7.87487500e+03 4.98123316e+03 -4.09042523e-02
v 7.87487500e+03 4.98122716e+03 -4.06824818e-02
v 7.87487500e+03 4.97431777e+03 -9.00596516e-02
v 7.90637500e+03 4.97509377e+03 3.03186649e-01
v 7.90637500e+03 4.97425950e+03 1.51855781e-01
v 7.90637500e+03 4.96868216e+03 9.37291517e-02
v 7.90637500e+03 4.97104911e+03 7.17359668e-02
v 7.90637500e+03 4.97696176e+03 5.73559671e-01
v 7.90637500e+03 4.97606182e+03 5.73002319e-01
v 7.90637500e+03 4.97788772e+03 5.82324396e-01
v 7.90637500e+03 4.97936620e+03 5.83215917e-01
v 7.90637500e+03 4.97572561e+03 4.85682753e-01
v 7.90637500e+03 4.98019968e+03 5.11249010e-01
v 7.90637500e+03 4.98518361e+03 -2.41157968e-01
v 7.90637500e+03 4.98771736e+03 -2.48868603e-01
v 7.90637500e+03 4.97136803e+03 1.05413391e-01
v 7.90637500e+03 4.97354252e+03 1.09428254e-01
v 7.90637500e+03 4.98375236e+03 -2.37928838e-01
v 7.90637500e+03 4.99581120e+03 -2.64340809e-01
v 7.90637500e+03 4.99253650e+03 -2.44999635e-01
v 7.90637500e+03 4.99175446e+03 -2.40755087e-01
v 7.90637500e+03 5.00000000e+03 -2.65316572e-01
v 7.90637500e+03 4.98832011e+03 -2.46247916e-01
v 7.90637500e+03 4.98191297e+03 -8.23020151e-02
v 7.90637500e+03 4.98241586e+03 -1.99554699e-01
v 7.90637500e+03 4.98075242e+03 3.38604624e-01
v 7.90637500e+03 4.98051722e+03 4.68852398e-01
v 7.88634308e+03 4.96862500e+03 5.86525469e-01
v 7.88643164e+03 4.96862500e+03 1.14088627e+00
v 7.88493151e+03 4.96862500e+03 -2.05704398e-01
v 7.88479250e+03 4.96862500e+03 3.85371478e-02
v 7.88274270e+03 4.96862500e+03 1.83396831e+00
v 7.88266539e+03 4.96862500e+03 1.78598899e+00
v 7.88364698e+03 4.96862500e+03 2.22306035e+00
v 7.88444664e+03 4.96862500e+03 2.31629088e+00
v 7.88462728e+03 4.96862500e+03 2.35836458e+00
v 7.88320674e+03 4.96862500e+03 1.96346645e+00
v 7.89187156e+03 4.96862500e+03 5.53500401e-01
v 7.89191934e+03 4.96862500e+03 5.78863633e-01
v 7.88518349e+03 4.96862500e+03 2.03166826e+00
v 7.88643657e+03 4.96862500e+03 1.22102184e+00
v 7.88639334e+03 4.96862500e+03 1.27830802e+00
v 7.88463418e+03 4.96862500e+03 -2.20325638e-01
v 7.88289461e+03 4.96862500e+03 -1.56743894e-01
v 7.88282678e+03 4.96862500e+03 -1.77485469e-01
v 7.88759810e+03 4.96862500e+03 2.70638048e-01
v 7.88708837e+03 4.96862500e+03 4.63747162e-01
v 7.88294199e+03 4.96862500e+03 -1.74522441e-01
v 7.88287541e+03 4.96862500e+03 -1.63469760e-01
v 7.88229332e+03 4.96862500e+03 1.17975253e+00
v 7.88198608e+03 4.96862500e+03 6.44157278e-01
v 7.88127889e+03 4.96862500e+03 4.34420711e-01
v 7.88132701e+03 4.96862500e+03 4.56172857e-01
v 7.88639970e+03 4.96862500e+03 5.76410311e-01
v 7.88579275e+03 4.96862500e+03 1.81045731e+00
v 7.88256562e+03 4.96862500e+03 1.67017039e+00
v 7.88826849e+03 4.96862500e+03 -1.26497424e-01
v 7.88063363e+03 4.96862500e+03 -1.10715093e-01
v 7.88036970e+03 4.96862500e+03 -1.80476157e-01
v 7.88288472e+03 4.96862500e+03 -1.59300820e-01
v 7.89097530e+03 4.96862500e+03 -4.34765428e-02
v 7.89040799e+03 4.96862500e+03 -1.85093929e-01
v 7.88914112e+03 4.96862500e+03 -2.10160317e-01
v 7.87952173e+03 4.96862500e+03 -2.43799535e-01
v 7.90024027e+03 4.96862500e+03 4.20093142e-01
v 7.90035369e+03 4.96862500e+03 4.35394964e-01
v 7.89862498e+03 4.96862500e+03 1.93955905e+00
v 7.89872937e+03 4.96862500e+03 1.89744471e+00
v 7.89809129e+03 4.96862500e+03 1.89186456e+00
v 7.89816554e+03 4.96862500e+03 1.88869164e+00
v 7.90058670e+03 4.96862500e+03 2.01093302e+00
v 7.90069296e+03 4.96862500e+03 1.92578393e+00
v 7.89760814e+03 4.96862500e+03 4.84274455e-01
v 7.89759188e+03 4.96862500e+03 5.13442732e-01
v 7.89805227e+03 4.96862500e+03 1.88848467e+00
v 7.90165956e+03 4.96862500e+03 4.89016843e-01
v 7.90164194e+03 4.96862500e+03 4.83817494e-01
v 7.90573914e+03 4.96862500e+03 -2.29683892e-01
v 7.90558750e+03 4.96862500e+03 -2.58609262e-01
v 7.90160595e+03 4.96862500e+03 5.15439106e-01
v 7.89606951e+03 4.96862500e+03 -3.79634465e-02
v 7.89631900e+03 4.96862500e+03 1.38656100e-01
v 7.89193217e+03 4.96862500e+03 5.78990245e-01
v 7.90048794e+03 4.96862500e+03 1.96064479e+00
v 7.89879485e+03 4.96862500e+03 1.90748297e+00
v 7.89758989e+03 4.96862500e+03 5.48032713e-01
v 7.89756142e+03 4.96862500e+03 1.19067115e+00
v 7.90193098e+03 4.96862500e+03 4.43151270e-01
v 7.90059795e+03 4.96862500e+03 2.29050528e-01
v 7.90066416e+03 4.96862500e+03 2.00712262e-01
v 7.90157636e+03 4.96862500e+03 6.30189801e-01
v 7.90042105e+03 4.96862500e+03 3.35810304e-01
v 7.90003052e+03 4.96862500e+03 4.01786321e-01
v 7.89850468e+03 4.96862500e+03 4.16238229e-01
v 7.89703411e+03 4.96862500e+03 4.43256347e-01
v 7.89671371e+03 4.96862500e+03 3.71572275e-01
v 7.90256111e+03 4.96862500e+03 2.40807183e-01
v 7.90033160e+03 4.96862500e+03 -1.66333886e-01
v 7.89982566e+03 4.96862500e+03 -2.14423101e-01
v 7.89328096e+03 4.96862500e+03 -8.09817368e-03
v 7.89200144e+03 4.96862500e+03 5.44745407e-01
v 7.90097473e+03 4.96862500e+03 1.81501062e+00
v 7.90063778e+03 4.96862500e+03 1.89144650e-01
v 7.89394618e+03 4.96862500e+03 -1.69149997e-01
v 7.89469451e+03 4.96862500e+03 -1.87816538e-01
v 7.89936732e+03 4.96862500e+03 -2.67872714e-01
v 7.89867127e+03 4.96862500e+03 3.22980438e-02
v 7.89537792e+03 4.96862500e+03 -2.11861613e-01
v 7.90347110e+03 4.96862500e+03 -2.19642320e-01
v 7.90142638e+03 4.96862500e+03 1.23234047e+00
v 7.90130949e+03 4.96862500e+03 1.46181854e+00
v 7.89950381e+03 4.96862500e+03 2.01127822e+00
v 7.89756715e+03 4.96862500e+03 1.36425209e+00
v 7.89803310e+03 4.96862500e+03 1.87418579e+00
v 7.90298318e+03 4.96862500e+03 -1.32054560e-01
v 7.90030974e+03 4.96862500e+03 1.98093568e+00
v 7.89758898e+03 4.96862500e+03 4.72174180e-01
v 7.87723437e+03 4.96862500e+03 -2.42288995e-01
v 7.87487500e+03 4.96862500e+03 -2.43885106e-01
v 7.87837593e+03 4.96862500e+03 -2.42258050e-01
v 7.90627121e+03 4.96862500e+03 4.13840948e-02
v 7.90637500e+03 4.96862500e+03 6.36998631e-02
vt 0.18305437 0.74998009
vt 0.19776227 0.75255203
vt 0.1841035 0.76211029
vt 0.17959116 0.76449376
vt 0.19990538 0.73338282
vt 0.18757342 0.78526258
vt 0.18205799 0.7490285
vt 0.18121083 0.72410989
vt 0.22870304 0.7675575
vt 0.17378134 0.78805929
vt 0.17589451 0.7538507
vt 0.18594569 0.69985491
vt 0.19334184 0.81797332
vt 0.22830921 0.74077225
vt 0.17446303 0.80058098
vt 0.17019527 0.77718663
vt 0.17323537 0.74634492
vt 0.2039887 0.70536458
vt 0.17292525 0.72019762
vt 0.23240128 0.79938912
vt 0.19273897 0.7604335
vt 0.21987927 0.71105552
vt 0.24421263 0.75334412
vt 0.15053967 0.80442178
vt 0.16732596 0.75976884
vt 0.20648021 0.69172788
vt 0.16817178 0.69622862
vt 0.24106203 0.79514182
vt 0.24232242 0.80901474
vt 0.23314147 0.71568143
vt 0.24608225 0.71874923
vt 0.24374475 0.7780599
vt 0.16254741 0.77495718
vt 0.15758276 0.73620307
vt 0.18150719 0.65562725
vt 0.22595492 0.69547474
vt 0.16332507 0.7187624
vt 0.26281664 0.8369174
vt 0.24196449 0.70054388
vt 0.2610321 0.71319985
vt 0.25150907 0.75576901
vt 0.09243165 0.99811226
vt 0.15388188 0.76041973
vt 0.21145555 0.68221819
vt 0.13988842 0.72279763
vt 0.15040982 0.65778375
vt 0.24990045 0.79477686
vt 0.25951672 0.80136073
vt 0.3061167 0.88255769
vt 0.25745305 0.77340961
vt 0.075611532 0.83976936
vt 0.1260117 0.99810135
vt 0.11770314 0.79055589
vt 0.22983918 0.65871149
vt 0.21418366 0.69254136
vt 0.2323537 0.67935634
vt 0.13537027 0.69385344
vt 0.15448932 0.68069381
vt 0.16051856 0.64668834
vt 0.28193825 0.79952377
vt 0.30122796 0.82364601
vt 0.26663697 0.74396336
vt 0.27444628 0.69777894
vt 0.0023334075 0.99814141
vt 0.099648781 0.79999328
vt 0.19725047 0.63569891
vt 0.2233621 0.69112796
vt 0.12424048 0.71053857
vt 0.11034557 0.69268221
vt 0.15137681 0.63778436
vt 0.1733238 0.63746941
vt 0.15526648 0.99809176
vt 0.31886634 0.84427679
vt 0.27208778 0.72353625
vt 0.0023046755 0.90959585
vt 0.086152099 0.79187489
vt 0.10362221 0.7876147
vt 0.11773443 0.75447565
vt 0.21791698 0.62127906
vt 0.18976049 0.62358439
vt 0.24946849 0.65949011
vt 0.27811638 0.66290176
vt 0.10729571 0.72505122
vt 0.11953739 0.65408576
vt 0.1436094 0.64595479
vt 0.11516946 0.55503178
vt 0.15819395 0.63239908
vt 0.29433274 0.73805547
vt 0.30417442 0.77130055
vt 0.30674061 0.93956524
vt 0.32567886 0.82357466
vt 0.32586023 0.87528783
vt 0.0022676331 0.79526484
vt 0.080798298 0.74765122
vt 0.10351529 0.77310586
vt 0.2271204 0.61804688
vt 0.23736012 0.63453716
vt 0.31271657 0.70681596
vt 0.13269253 0.64331698
vt 0.10534222 0.65198052
vt 0.11530092 0.55503178
vt 0.11544055 0.55503166
vt 0.16241585 0.62074274
vt 0.18278833 0.60693574
vt 0.30909657 0.81608695
vt 0.16912621 0.99808729
vt 0.32273284 0.91750008
vt 0.32462385 0.81883752
vt 0.32527554 0.83307636
vt 0.32474187 0.88618129
vt 0.32877815 0.86104822
vt 0.004312288 0.79080164
vt 0.089116022 0.76155823
vt 0.05241935 0.75897861
vt 0.095878899 0.78126758
vt 0.10262755 0.75882894
vt 0.21334618 0.57947099
vt 0.25531721 0.65374041
vt 0.24631813 0.62923014
vt 0.30299303 0.6615274
vt 0.099365309 0.71678746
vt 0.11998876 0.63775712
vt 0.084343046 0.6503247
vt 0.10832547 0.64659733
vt 0.17580517 0.60516
vt 0.19589362 0.59254432
vt 0.30978093 0.73921794
vt 0.31259382 0.80079329
vt 0.29385301 0.99804688
vt 0.3310973 0.90184736
vt 0.33647096 0.92575777
vt 0.3387146 0.79719979
vt 0.32975614 0.82887584
vt 0.33292946 0.83612478
vt 0.3325389 0.88999361
vt 0.33509311 0.881513
vt 0.33347124 0.84924078
vt 0.34421057 0.86508155
vt 0.0022675307 0.79494894
vt 0.025245396 0.79808366
vt 0.094558962 0.75405073
vt 0.04458376 0.79057789
vt 0.059064727 0.71756482
vt 0.22884175 0.56879568
vt 0.24089654 0.61088502
vt 0.28602728 0.64256662
vt 0.34529859 0.65594429
vt 0.091567494 0.69243485
vt 0.10378279 0.62903321
vt 0.10590334 0.63531756
vt 0.16558205 0.60130143
vt 0.18682021 0.56962889
vt 0.17734437 0.58303922
vt 0.31479546 0.76660848
vt 0.31414217 0.81577301
vt 0.35092679 0.94846249
vt 0.33500144 0.90851915
vt 0.33737317 0.91445386
vt 0.33201227 0.81683791
vt 0.319662 0.73692131
vt 0.0022670254 0.79338819
vt 0.027082505 0.78142637
vt 0.033314005 0.74923253
vt 0.045805886 0.73975557
vt 0.078149252 0.71036869
vt 0.22955376 0.55499351
vt 0.23740737 0.58873802
vt 0.23633169 0.59649539
vt 0.2520977 0.62790513
vt 0.24812551 0.59008431
vt 0.2953839 0.6350131
vt 0.32785517 0.70314848
vt 0.3224656 0.65262389
vt 0.091207638 0.7150135
vt 0.061625943 0.68847734
vt 0.092125982 0.61614609
vt 0.31748646 0.75188619
vt 0.3252711 0.7830736
vt 0.32229942 0.81045604
vt 0.40571442 0.92256701
vt 0.3452408 0.9134323
vt 0.33761477 0.91148418
vt 0.33887863 0.91491753
vt 0.34071428 0.82872558
vt 0.36003217 0.87290627
vt 0.34976789 0.85851049
vt 0.0022659015 0.79010272
vt 0.017160969 0.77352923
vt 0.045940567 0.70269763
vt 0.19132929 0.55500674
vt 0.22154325 0.55499756
vt 0.24220616 0.5549835
vt 0.24055405 0.58049667
vt 0.23600072 0.59285462
vt 0.23720151 0.59599864
vt 0.28331006 0.61762977
vt 0.30804968 0.62259102
vt 0.35411143 0.66834974
vt 0.32045704 0.63808519
vt 0.34027404 0.64699173
vt 0.038298413 0.64626259
vt 0.079838827 0.62553489
vt 0.16498737 0.5850625
vt 0.17745747 0.56018585
vt 0.32712626 0.75991821
vt 0.32407567 0.81650692
vt 0.3642219 0.90412194
vt 0.44715139 0.93884367
vt 0.35080224 0.90520245
vt 0.35310522 0.89311182
vt 0.33073315 0.72976267
vt 0.0022650384 0.78795576
vt 0.01243458 0.74230552
vt 0.021859312 0.76291138
vt 0.037878815 0.69858062
vt 0.20365293 0.55500364
vt 0.18185925 0.55500585
vt 0.23802452 0.58871734
vt 0.25854927 0.58864379
vt 0.28280163 0.58997804
vt 0.29584032 0.61610186
vt 0.35399929 0.64979351
vt 0.35626936 0.70608532
vt 0.34395856 0.62617314
vt 0.061181616 0.64334965
vt 0.013985408 0.66687161
vt 0.082699724 0.60357368
vt 0.067736901 0.63120842
vt 0.16391772 0.56267428
vt 0.39186245 0.88910246
vt 0.44717056 0.99799716
vt 0.44713625 0.89259875
vt 0.3677789 0.82517958
vt 0.3644501 0.88751805
vt 0.34199429 0.71726823
vt 0.33022887 0.73688078
vt 0.0022463338 0.73430824
vt 0.019998835 0.74613935
vt 0.025701331 0.74501538
vt 0.025270605 0.73001176
vt 0.24288082 0.55498302
vt 0.25729689 0.56434321
vt 0.31764659 0.62985253
vt 0.30316198 0.59000778
vt 0.34448913 0.64850003
vt 0.38426712 0.71039498
vt 0.046621978 0.63788152
vt 0.024718193 0.68878949
vt 0.021070853 0.65478373
vt 0.047749374 0.59335792
vt 0.17465952 0.55500627
vt 0.37446931 0.88335514
vt 0.42064843 0.85888517
vt 0.36295882 0.85608649
vt 0.37179872 0.78682911
vt 0.3664377 0.87412435
vt 0.33737835 0.73488677
vt 0.0022459286 0.73316163
vt 0.023453431 0.74357426
vt 0.025301397 0.74318123
vt 0.026911473 0.74129188
vt 0.24306196 0.5549829
vt 0.32370499 0.63183987
vt 0.31785712 0.60663813
vt 0.31025279 0.57775116
vt 0.36068514 0.64239663
vt 0.37497818 0.66909665
vt 0.36795226 0.71461594
vt 0.35236546 0.72539669
vt 0.013381981 0.64271027
vt 0.0091075907 0.68611366
vt 0.013352584 0.6552428
vt 0.079784326 0.55504346
vt 0.0060412255 0.63311738
vt 0.16493341 0.55500829
vt 0.37674683 0.87595147
vt 0.44713265 0.88155496
vt 0.37018177 0.84515041
vt 0.37765637 0.76058519
vt 0.34458238 0.73190802
vt 0.023591338 0.74105054
vt 0.013489576 0.70167089
vt 0.2621136 0.55498266
vt 0.24404046 0.55498296
vt 0.29706982 0.56683135
vt 0.34751254 0.63475132
vt 0.36328155 0.65906101
vt 0.39059252 0.66582286
vt 0.36442411 0.72438437
vt 0.37331203 0.71636182
vt 0.36048856 0.72046465
vt 0.0022255455 0.6857394
vt 0.0071522254 0.65307271
vt 0.067809954 0.55504799
vt 0.083511092 0.55504155
vt 0.0022149244 0.63295186
vt 0.16413377 0.55500841
vt 0.39070866 0.87244117
vt 0.447117 0.83305568
vt 0.37278476 0.83393848
vt 0.36895105 0.85135597
vt 0.33989716 0.74869061
vt 0.39008167 0.78510761
vt 0.34170032 0.744712
vt 0.0022459081 0.73311728
vt 0.0022260661 0.68652976
vt 0.013148902 0.7100091
vt 0.27150881 0.55498123
vt 0.32026786 0.59185016
vt 0.31202933 0.56102169
vt 0.36453667 0.63252556
vt 0.36996111 0.648004
vt 0.38411736 0.64438391
vt 0.40993223 0.66615427
vt 0.36677888 0.72610128
vt 0.35686207 0.73991722
vt 0.35500136 0.72830671
vt 0.0022143964 0.64069796
vt 0.0022219126 0.674169
vt 0.0022153163 0.65413427
vt 0.0022019895 0.59272492
vt 0.087990604 0.57356721
vt 0.0022080303 0.61121023
vt 0.0022145873 0.63423669
vt 0.37209719 0.8676281
vt 0.39895973 0.88015145
vt 0.44711426 0.82454377
vt 0.37763643 0.82672387
vt 0.37606353 0.85304564
vt 0.38781676 0.77773404
vt 0.34680292 0.73876816
vt 0.0022303252 0.69498867
vt 0.006276987 0.6986714
vt 0.28207672 0.55497795
vt 0.31979555 0.57913256
vt 0.30149323 0.55497015
vt 0.32019588 0.56436521
vt 0.37653732 0.63930058
vt 0.40794075 0.6411885
vt 0.40934223 0.71213174
vt 0.37523264 0.72175032
vt 0.35941464 0.72921681
vt 0.002213221 0.64750433
vt 0.0022146404 0.63546002
vt 0.002213459 0.65112025
vt 0.051629126 0.55505323
vt 0.36780617 0.87410283
vt 0.37768552 0.84410995
vt 0.40407911 0.86448848
vt 0.4173038 0.80645353
vt 0.39529136 0.83431792
vt 0.39609814 0.86084431
vt 0.37718061 0.852956
vt 0.36129704 0.73877501
vt 0.39134374 0.77242458
vt 0.39212638 0.7811197
vt 0.002245879 0.73303252
vt 0.2917279 0.55497503
vt 0.30501521 0.55496728
vt 0.32296118 0.55579364
vt 0.37180349 0.63398266
vt 0.38611344 0.61796439
vt 0.42382798 0.65147239
vt 0.43942019 0.67649376
vt 0.38868648 0.73715061
vt 0.37095419 0.73122501
vt 0.3627899 0.72906637
vt 0.035508227 0.55505842
vt 0.39363301 0.86200964
vt 0.40520695 0.8283118
vt 0.44710261 0.78876269
vt 0.3850688 0.81477302
vt 0.36272782 0.74010587
vt 0.39923629 0.77122301
vt 0.39720935 0.78854048
vt 0.0022400203 0.71894109
vt 0.31058753 0.55496311
vt 0.31511158 0.55496097
vt 0.37367138 0.62465537
vt 0.37840602 0.61561167
vt 0.3950724 0.64239031
vt 0.43985054 0.64230609
vt 0.43995184 0.66388303
vt 0.43156207 0.70756394
vt 0.40093043 0.74037629
vt 0.36340982 0.73174798
vt 0.37807545 0.72961462
vt 0.0021948917 0.57094359
vt 0.36437607 0.85979378
vt 0.39378816 0.8577621
vt 0.39940324 0.81666136
vt 0.42957535 0.75634581
vt 0.38092729 0.80369401
vt 0.39556718 0.82001668
vt 0.39282626 0.77688593
vt 0.0022353968 0.70744872
vt 0.32294711 0.55495811
vt 0.3807593 0.60705221
vt 0.39823607 0.60017586
vt 0.43592834 0.61649656
vt 0.44705498 0.65993834
vt 0.44706327 0.68572319
vt 0.41099244 0.7302593
vt 0.39874035 0.76042128
vt 0.0021897301 0.55506921
vt 0.39817709 0.82122338
vt 0.39963892 0.82233351
vt 0.44709605 0.76855063
vt 0.40673572 0.78281325
vt 0.38727784 0.77388376
vt 0.36445859 0.73036957
vt 0.39501899 0.77608609
vt 0.39106792 0.77841669
vt 0.0033016216 0.69948506
vt 0.32321763 0.55495787
vt 0.37651864 0.60916913
vt 0.38931742 0.60861814
vt 0.44705251 0.64627039
vt 0.42700925 0.58736265
vt 0.44546574 0.62991047
vt 0.44705409 0.65519124
vt 0.44705909 0.672647
vt 0.44707003 0.70660198
vt 0.41821244 0.74368834
vt 0.39043564 0.75445861
vt 0.39768061 0.82108545
vt 0.44708964 0.74967653
vt 0.0022323979 0.69982731
vt 0.37963191 0.60783136
vt 0.38428286 0.60439748
vt 0.38910222 0.58323675
vt 0.44520885 0.59275657
vt 0.44150341 0.7227087
vt 0.39893904 0.81889272
vt 0.44708651 0.74257362
vt 0.0022321602 0.6991539
vt 0.39950761 0.5688436
vt 0.37886307 0.605811
vt 0.4470498 0.63449043
vt 0.43804738 0.55492783
vt 0.44703692 0.59365803
vt 0.44707435 0.71837294
vt 0.39281246 0.76779783
vt 0.40601838 0.55493808
vt 0.382557 0.58628988
vt 0.39160234 0.55800521
vt 0.44704682 0.62436581
vt 0.43590614 0.55492878
vt 0.4470247 0.55572879
vt 0.4470357 0.58915472
vt 0.44707611 0.72285759
vt 0.39063352 0.76876318
vt 0.39093003 0.76001287
vt 0.44707814 0.72618032
vt 0.39912748 0.55493945
vt 0.37713754 0.58008432
vt 0.3931644 0.55493766
vt 0.38043097 0.55493927
vt 0.44555914 0.5549227
vt 0.37656358 0.59222841
vt 0.38426423 0.55493855
vt 0.3824935 0.56844485
vt 0.44702467 0.55492198
vt 0.38018227 0.55493939
vt 0.37696338 0.57648492
vt 0.37816581 0.56923902
vt 0.37967384 0.55493927
vt 0.69273895 0.7604335
vt 0.67323536 0.74634492
vt 0.68205798 0.7490285
vt 0.69776225 0.75255203
vt 0.6758945 0.7538507
vt 0.68410349 0.76211029
vt 0.49055403 0.58049667
vt 0.49812552 0.59008431
vt 0.48720151 0.59599864
vt 0.52185929 0.76291138
vt 0.51999885 0.74613935
vt 0.52345341 0.74357426
vt 0.59751254 0.63475132
vt 0.59448916 0.64850003
vt 0.57045704 0.63808519
vt 0.52570134 0.74501538
vt 0.52345341 0.74357426
vt 0.5269115 0.74129188
vt 0.52527058 0.73001176
vt 0.50910759 0.68611366
vt 0.52471817 0.68878949
vt 0.5131489 0.7100091
vt 0.50330162 0.69948506
vt 0.50222552 0.6857394
vt 0.50223184 0.69862354
vt 0.61328155 0.65906101
vt 0.60411143 0.66834974
vt 0.60023338 0.64853495
vt 0.59795099 0.64697659
vt 0.61068517 0.64239663
vt 0.61795229 0.71461594
vt 0.62331206 0.71636182
vt 0.63868648 0.73715061
vt 0.61048853 0.72046465
vt 0.60626936 0.70608532
vt 0.61651343 0.72184682
vt 0.61677891 0.72610128
vt 0.0022303252 0.44498867
vt 0.013489576 0.45167089
vt 0.0022325299 0.44855934
vt 0.86068517 0.64239663
vt 0.86328155 0.65906101
vt 0.85039538 0.64650774
vt 0.84795099 0.64697659
vt 0.84613407 0.63661969
vt 0.84615129 0.64358401
vt 0.84551001 0.63375121
vt 0.84529859 0.65594429
vt 0.84592026 0.64026046
vt 0.83677012 0.59730899
vt 0.8607592 0.62216693
vt 0.86228114 0.5818572
vt 0.8560462 0.56209421
vt 0.86441374 0.58285624
vt 0.85453808 0.55495477
vt 0.86543429 0.57087898
vt 0.84806597 0.55495739
vt 0.86168253 0.55495191
vt 0.86637622 0.55494672
vt 0.87696338 0.57648492
vt 0.83823419 0.55495751
vt 0.86600387 0.55494696
vt 0.88910222 0.58323675
vt 0.62768549 0.84410995
vt 0.64378816 0.8577621
vt 0.64070863 0.87244117
vt 0.62768549 0.84410995
vt 0.62209719 0.8676281
vt 0.61895102 0.85135597
vt 0.89609814 0.86084431
vt 0.89363301 0.86200964
vt 0.86895102 0.85135597
vt 0.64529139 0.83431792
vt 0.64556718 0.82001668
vt 0.64963889 0.82233351
vt 0.64008164 0.78510761
vt 0.63506883 0.81477302
vt 0.63727784 0.77388376
vt 0.63981295 0.7818644
vt 0.64501899 0.77608609
vt 0.64134377 0.77242458
vt 0.64720935 0.78854048
vt 0.63506883 0.81477302
vt 0.64940327 0.81666136
vt 0.64817709 0.82122338
vt 0.62840605 0.61561167
vt 0.62963194 0.60783136
vt 0.63428283 0.60439748
vt 0.63255697 0.58628988
vt 0.87651861 0.60916913
vt 0.8788631 0.605811
vt 0.88611341 0.61796439
vt 0.88727784 0.77388376
vt 0.89063352 0.76876318
vt 0.89923626 0.77122301
vt 0.62747228 0.76795411
vt 0.64093 0.76001287
vt 0.64281249 0.76779783
vt 0.64134377 0.77242458
vt 0.53206509 0.84295011
vt 0.52792996 0.80349946
vt 0.54502106 0.82404143
vt 0.53076011 0.85361302
vt 0.52209365 0.78408301
vt 0.56160849 0.86708301
vt 0.51145244 0.79414356
vt 0.56196314 0.81416768
vt 0.56236392 0.8430441
vt 0.53542745 0.86734545
vt 0.5102253 0.78975993
vt 0.50939894 0.79839236
vt 0.55889183 0.76017416
vt 0.56857049 0.85327256
vt 0.54183263 0.88625598
vt 0.50855482 0.78491527
vt 0.50810796 0.79484576
vt 0.50701916 0.79762626
vt 0.50912255 0.80172861
vt 0.54329509 0.75524181
vt 0.57645816 0.83642614
vt 0.56444353 0.89225084
vt 0.50824982 0.77591395
vt 0.50782424 0.78868175
vt 0.52313846 0.77330369
vt 0.55374295 0.75182801
vt 0.57877344 0.85558701
vt 0.54258454 0.90386838
vt 0.5062992 0.79327106
vt 0.50631338 0.7839222
vt 0.52755046 0.76807594
vt 0.5479207 0.74030471
vt 0.56333774 0.750067
vt 0.57117862 0.84675241
vt 0.57886511 0.87278521
vt 0.56831604 0.9096235
vt 0.5376367 0.89462137
vt 0.5017904 0.80525994
vt 0.50404358 0.79244828
vt 0.53726107 0.75543588
vt 0.57522959 0.83966774
vt 0.57426536 0.89422596
vt 0.56622422 0.9216854
vt 0.57113826 0.91213906
vt 0.55831015 0.91742349
vt 0.57633674 0.90570182
vt 0.5610224 0.92719185
vt 0.56309456 0.93173051
vt 0.56179446 0.93526238
vt 0.50939894 0.86089236
vt 0.5017904 0.86775994
vt 0.5102253 0.85225993
vt 0.96615702 0.9354468
vt 0.95057344 0.93433654
vt 0.96166211 0.92013043
vt 0.97004211 0.92109931
vt 0.95392704 0.95395851
vt 0.94694364 0.9193728
vt 0.96840125 0.90848988
vt 0.98015678 0.92671287
vt 0.93915594 0.95045662
vt 0.97780019 0.9539721
vt 0.95786291 0.90842438
vt 0.98069328 0.9100619
vt 0.95083165 0.9796651
vt 0.96860802 0.95909107
vt 0.9435131 0.91217077
vt 0.96339273 0.89489555
vt 0.95003521 0.90022594
vt 0.98561949 0.93014801
vt 0.96719372 0.97023338
vt 0.9848789 0.90107167
vt 0.96288413 0.99777877
vt 0.97510809 0.98467577
vt 0.94829363 0.88946402
vt 0.97877866 0.88732123
vt 0.96060485 0.88812155
vt 0.98591888 0.87061906
vt 0.95791662 0.87743497
vt 0.98110479 0.87031186
vt 0.98308307 0.85098904
vt 0.95529008 0.86080444
vt 0.96198082 0.84933293
vt 0.97279829 0.83625549
vt 0.9767738 0.83825552
vt 0.63856602 0.92349732
vt 0.64335614 0.95457739
vt 0.62671679 0.95891476
vt 0.60321563 0.94565845
vt 0.65726852 0.9402774
vt 0.64028502 0.96560085
vt 0.60412598 0.95371103
vt 0.60968596 0.927055
vt 0.66282672 0.9214595
vt 0.66013724 0.9570986
vt 0.65544724 0.96489388
vt 0.59807754 0.95482671
vt 0.59869123 0.93284571
vt 0.68727171 0.92027503
vt 0.67774779 0.94995952
vt 0.56687176 0.94867688
vt 0.58193696 0.93454826
vt 0.60390025 0.92942452
vt 0.67912287 0.9347223
vt 0.66782528 0.96666926
vt 0.56472665 0.93903202
vt 0.48696101 0.93391722
vt 0.48342553 0.89588749
vt 0.50321418 0.9377929
vt 0.50171328 0.94512403
vt 0.51016843 0.90986931
vt 0.5011096 0.94789904
vt 0.50677866 0.95793313
vt 0.48772481 0.87043869
vt 0.50191784 0.96659398
vt 0.48243827 0.88430047
vt 0.49018502 0.86888826
vt 0.47111633 0.89320588
vt 0.48243165 0.86888742
vt 0.51103055 0.86889488
vt 0.48731953 0.86888719
vt 0.47128484 0.88972378
vt 0.481527 0.86888742
vt 0.48484918 0.86888719
vt 0.76390278 0.9494347
vt 0.76094538 0.93737382
vt 0.78047693 0.94244164
vt 0.78285104 0.95353168
vt 0.74389285 0.94005644
vt 0.78454292 0.96498662
vt 0.7366662 0.92515486
vt 0.74222893 0.94697773
vt 0.75965661 0.96657944
vt 0.71685541 0.93004644
vt 0.72037506 0.91856378
vt 0.73439461 0.96527547
vt 0.71136224 0.94187939
vt 0.72570336 0.91895926
vt 0.7036711 0.91523409
vt 0.72013992 0.95886153
vt 0.71408564 0.95202851
vt 0.7335819 0.9211989
vt 0.71656102 0.96541941
vt 0.69493216 0.93534952
vt 0.71016705 0.96080071
vt 0.70305264 0.9527505
vt 0.68973511 0.92441452
vt 0.70301747 0.96547943
vt 0.69167441 0.91783643
vt 0.70285666 0.95876271
vt 0.82598114 0.92845821
vt 0.83748561 0.9672175
vt 0.75188261 0.91998911
vt 0.75188321 0.91888738
vt 0.84344405 0.95904928
vt 0.73748803 0.85525107
vt 0.7265991 0.84819573
vt 0.73451543 0.84340858
vt 0.74623621 0.8426125
vt 0.72748983 0.85566366
vt 0.72247082 0.82860184
vt 0.74181759 0.83659041
vt 0.75529855 0.8630203
vt 0.73195881 0.86447132
vt 0.71479177 0.84145588
vt 0.75742078 0.82799315
vt 0.76562691 0.83683681
vt 0.7510972 0.87285191
vt 0.69699848 0.83462477
vt 0.7618289 0.82045943
vt 0.75793576 0.83382434
vt 0.76240754 0.8216902
vt 0.76676083 0.8535434
vt 0.76564902 0.86359042
vt 0.69991505 0.82608211
vt 0.76108176 0.81834197
vt 0.76588035 0.82752275
vt 0.77386862 0.8472653
vt 0.689219 0.83167303
vt 0.71913081 0.81492174
vt 0.75904167 0.81085193
vt 0.76917565 0.83439803
vt 0.69491291 0.81848645
vt 0.70350802 0.82030988
vt 0.72830927 0.81246364
vt 0.75197023 0.80470085
vt 0.77515936 0.84317368
vt 0.70595533 0.81227756
vt 0.7233873 0.80630523
vt 0.75673997 0.80257523
vt 0.77651125 0.84536231
vt 0.75115532 0.79419398
vt 0.70149815 0.80137163
vt 0.73193008 0.79353046
vt 0.75180763 0.79425156
vt 0.70554328 0.8064366
vt 0.7514475 0.79356503
vt 0.7466166 0.78187197
vt 0.87745816 0.87905777
vt 0.85643697 0.9496873
vt 0.87303048 0.87905937
vt 0.8843804 0.92275453
vt 0.84611511 0.87906766
vt 0.8850202 0.96633047
vt 0.83959109 0.84423095
vt 0.8253333 0.84110606
vt 0.82789701 0.83024752
vt 0.8410182 0.83251971
vt 0.83683503 0.85769236
vt 0.81336105 0.82760584
vt 0.85503411 0.84114397
vt 0.86308348 0.85689992
vt 0.80732465 0.84429997
vt 0.85602301 0.83526731
vt 0.86507636 0.844419
vt 0.84349829 0.86444867
vt 0.86505878 0.84670258
vt 0.81449753 0.85967469
vt 0.7896713 0.82575947
vt 0.86411512 0.83535445
vt 0.8649708 0.83631808
vt 0.86346352 0.85660696
vt 0.79796672 0.85659808
vt 0.79039448 0.8458395
vt 0.82906044 0.86681724
vt 0.86339784 0.85692811
vt 0.80266452 0.86244231
vt 0.78616256 0.83335555
vt 0.86496359 0.83588529
vt 0.79123527 0.85309398
vt 0.78956419 0.86889106
vt 0.78650582 0.86354429
vt 0.78339458 0.87346774
vt 0.56452489 0.935983
vt 0.58913189 0.90149677
vt 0.64289069 0.88745916
vt 0.64369386 0.88802642
vt 0.62057459 0.87469363
vt 0.61889505 0.87223345
vt 0.89610457 0.83612299
vt 0.88275188 0.82804608
vt 0.90690595 0.82745498
vt 0.91159278 0.84074384
vt 0.88018161 0.83080018
vt 0.90308595 0.81903559
vt 0.9285391 0.82652909
vt 0.87987685 0.82935023
vt 0.88761985 0.81981528
vt 0.9214493 0.84096646
vt 0.87906778 0.82707793
vt 0.92335743 0.81665802
vt 0.9020769 0.80652279
vt 0.94529659 0.83688253
vt 0.91392839 0.80725282
vt 0.93135703 0.81676733
vt 0.87810838 0.82134891
vt 0.89138818 0.80997401
vt 0.9463017 0.82505268
vt 0.9474377 0.84188217
vt 0.92658585 0.80468071
vt 0.93030727 0.80734807
vt 0.87777424 0.8178972
vt 0.87726384 0.80761325
vt 0.89863425 0.8063646
vt 0.95183706 0.82732099
vt 0.95129228 0.84047425
vt 0.94585031 0.80721724
vt 0.95524281 0.81037796
vt 0.87734801 0.80926168
vt 0.95531189 0.81685019
vt 0.93587214 0.8903209
vt 0.92490119 0.91989672
vt 0.91113198 0.8926214
vt 0.91777664 0.88604152
vt 0.94448209 0.90255052
vt 0.90921164 0.91949081
vt 0.90981942 0.87848765
vt 0.92482746 0.8792007
vt 0.94661772 0.89256173
vt 0.94152027 0.92944902
vt 0.91938579 0.93017459
vt 0.93522209 0.87388897
vt 0.94665903 0.87616855
vt 0.93176168 0.93078572
vt 0.92319775 0.93543959
vt 0.9111641 0.86682248
vt 0.92686719 0.86703688
vt 0.90819734 0.85927719
vt 0.91653967 0.85894358
vt 0.9448877 0.85893369
vt 0.94346094 0.85893464
vt 0.9180485 0.85894352
vt 0.94088554 0.8589353
vt 0.91899472 0.8589431
vt 0.90990072 0.85894626
vt 0.92923903 0.85893875
vt 0.90882766 0.85894656
vt 0.90826386 0.8589468
vt 0.57640833 0.80700511
vt 0.56711149 0.80498028
vt 0.5765022 0.79667437
vt 0.58397925 0.80872989
vt 0.56414402 0.80391431
vt 0.59787053 0.79771852
vt 0.56580907 0.79770035
vt 0.60152882 0.81051421
vt 0.59722632 0.78366798
vt 0.5676313 0.79284048
vt 0.60685748 0.80056679
vt 0.61048484 0.78935367
vt 0.57130522 0.78295547
vt 0.5694313 0.78357494
vt 0.61321545 0.80844212
vt 0.616216 0.7737807
vt 0.58309281 0.78096038
vt 0.63635886 0.78674465
vt 0.59973639 0.77329504
vt 0.56956106 0.7826376
vt 0.57696348 0.77414095
vt 0.62533879 0.79424894
vt 0.63512403 0.77612329
vt 0.5695473 0.7815097
vt 0.56928921 0.77385992
vt 0.78091222 0.75309092
vt 0.76544678 0.74534029
vt 0.78577161 0.74288666
vt 0.79882669 0.74789184
vt 0.75775516 0.75122637
vt 0.79608405 0.75352132
vt 0.76813084 0.76975852
vt 0.81360698 0.75062937
vt 0.78020465 0.76307768
vt 0.7578342 0.76615012
vt 0.81534719 0.75782382
vt 0.80520844 0.77047366
vt 0.76444191 0.77871579
vt 0.75230962 0.76107609
vt 0.76745957 0.79763854
vt 0.79312265 0.78100884
vt 0.7840119 0.79202557
vt 0.81370604 0.76961637
vt 0.80363077 0.7876249
vt 0.7838999 0.80717266
vt 0.80150425 0.80831361
vt 0.7608158 0.81005895
vt 0.79561645 0.80866951
vt 0.67157477 0.8850503
vt 0.68874651 0.88189757
vt 0.66124147 0.8923353
vt 0.65826261 0.87947261
vt 0.68192321 0.88227719
vt 0.67542166 0.89197636
vt 0.66115522 0.87919587
vt 0.68933511 0.87489933
vt 0.69368857 0.89059913
vt 0.66203749 0.89792675
vt 0.69993937 0.8874867
vt 0.69179648 0.90308946
vt 0.67258877 0.90384626
vt 0.70354283 0.89666378
vt 0.72107691 0.89725935
vt 0.72170061 0.88777119
vt 0.46057549 0.98966026
vt 0.45574239 0.99652559
vt 0.44743466 0.99852389
vt 0.51011163 0.99151176
vt 0.74040818 0.89705646
vt 0.74599808 0.89644331
vt 0.73931396 0.89893138
vt 0.73370272 0.88892901
vt 0.74448174 0.90296352
vt 0.73707354 0.90191513
vt 0.74918032 0.90412146
vt 0.72118831 0.90044999
vt 0.78269452 0.85973805
vt 0.52749544 0.99438769
vt 0.49187559 0.99825662
vt 0.46679959 0.99850136
vt 0.80512899 0.89509016
vt 0.8144179 0.89719129
vt 0.80049092 0.90594983
vt 0.82072324 0.90915412
vt 0.83026779 0.89939266
vt 0.79731709 0.91029084
vt 0.8278448 0.89511871
vt 0.83999062 0.91860902
vt 0.81151718 0.91982156
vt 0.84015036 0.9046936
vt 0.78832608 0.91845804
vt 0.78288215 0.90870798
vt 0.78999901 0.90193892
vt 0.78712058 0.89638472
vt 0.79615319 0.8964206
vt 0.67203128 0.8018142
vt 0.67441261 0.79560971
vt 0.68620974 0.79454929
vt 0.67873055 0.81800342
vt 0.66616207 0.79408306
vt 0.68498039 0.78881538
vt 0.66673011 0.82289541
vt 0.69006807 0.79675508
vt 0.65833575 0.79388815
vt 0.67943454 0.83074331
vt 0.65975463 0.80911124
vt 0.69546014 0.81031871
vt 0.67020786 0.83499724
vt 0.68328667 0.8260687
vt 0.70032537 0.7989428
vt 0.68101311 0.84192824
vt 0.6658898 0.84154302
vt 0.68372166 0.84055483
vt 0.55496269 0.98280644
vt 0.50174469 0.96284634
vt 0.54301184 0.96973175
vt 0.64155847 0.99512237
vt 0.68282562 0.98823696
vt 0.63460368 0.99811393
vt 0.69415772 0.96591949
vt 0.70376104 0.97303259
vt 0.67361528 0.98193914
vt 0.71934664 0.98047495
vt 0.68482161 0.9828248
vt 0.54223639 0.99498838
vt 0.53024757 0.99772674
vt 0.49775645 0.99614549
vt 0.47579584 0.83453554
vt 0.47212481 0.82073247
vt 0.49560586 0.81735784
vt 0.49239221 0.84044296
vt 0.48847267 0.80314821
vt 0.49707279 0.83160686
vt 0.48360735 0.84181702
vt 0.47028893 0.80900884
vt 0.51417083 0.80572486
vt 0.50792986 0.82545757
vt 0.47342405 0.83716691
vt 0.50903684 0.81763875
vt 0.68985885 0.98498935
vt 0.73068398 0.97912169
vt 0.69033003 0.99063152
vt 0.77667999 0.97194779
vt 0.7831493 0.96667588
vt 0.78282809 0.98088932
vt 0.76120895 0.97496593
vt 0.77466601 0.96832454
vt 0.78910345 0.96077377
vt 0.76871222 0.98151875
vt 0.75430477 0.96735853
vt 0.78989631 0.96338207
vt 0.75208199 0.98244131
vt 0.78685308 0.97682023
vt 0.56403929 0.99533027
vt 0.55136132 0.99661732
vt 0.54195696 0.99439961
vt 0.53292364 0.99820584
vt 0.4858425 0.97744262
vt 0.4801484 0.97452217
vt 0.47362056 0.9695152
vt 0.47563276 0.96903539
vt 0.4793267 0.97794157
vt 0.45520121 0.98282933
vt 0.47622946 0.97325033
vt 0.46732855 0.97830796
vt 0.57943118 0.99773198
vt 0.57517606 0.99754983
vt 0.54902667 0.99199539
vt 0.59202915 0.99833161
vt 0.58400118 0.9952513
vt 0.59110534 0.99410653
vt 0.56687349 0.99077302
vt 0.59461623 0.99180573
vt 0.56451082 0.99433053
vt 0.49293619 0.97338474
vt 0.49552661 0.96815383
vt 0.51598835 0.98203027
vt 0.50819409 0.98001248
vt 0.50517315 0.98250139
vt 0.48643517 0.97445893
vt 0.73056036 0.98295367
vt 0.72827691 0.97960359
vt 0.74380273 0.99013978
vt 0.75650644 0.98946923
vt 0.98817503 0.9950434
vt 0.99591017 0.9983992
vt 0.97558725 0.99728894
vt 0.98247999 0.98327118
vt 0.97025573 0.99597931
vt 0.44743949 0.98168546
vt 0.44962272 0.98433703
vt 0.44958669 0.99059129
vt 0.45814401 0.96521544
vt 0.57325482 0.98576599
vt 0.54848415 0.97493285
vt 0.5732612 0.97244358
vt 0.57207638 0.98671496
vt 0.56879872 0.98581868
vt 0.56085342 0.98912287
vt 0.79848415 0.95930785
vt 0.81879872 0.97019368
vt 0.81122869 0.98268312
vt 0.59203178 0.99703538
vt 0.59896749 0.99389935
vt 0.61601716 0.99825644
vt 0.90504587 0.97729635
vt 0.89210695 0.96841878
vt 0.90704226 0.95755041
vt 0.89777404 0.98228151
vt 0.47933909 0.9781574
vt 0.47482887 0.98199672
vt 0.45552114 0.98678857
vt 0.47850484 0.98167765
vt 0.47924805 0.99017626
vt 0.46821427 0.98639625
vt 0.44762832 0.99055588
vt 0.45826378 0.98429149
vt 0.47071108 0.98007804
vt 0.61702728 0.99284714
vt 0.63507563 0.99770677
vt 0.61454409 0.99693751
vt 0.61142731 0.99004018
vt 0.5896464 0.97358716
vt 0.59934694 0.97797638
vt 0.59148264 0.97954136
vt 0.58682543 0.98239887
vt 0.60292113 0.97405404
vt 0.58535564 0.96716946
vt 0.579669 0.97595906
vt 0.49633014 0.98406851
vt 0.48869154 0.98986298
vt 0.47899917 0.98206156
vt 0.50001597 0.98713726
vt 0.68793726 0.99162203
vt 0.67938375 0.99841952
vt 0.66623598 0.99126983
vt 0.71509641 0.99273235
vt 0.72156209 0.99317813
vt 0.72563046 0.99767113
vt 0.71831352 0.99769795
vt 0.71383768 0.99568909
vt 0.70474857 0.99080312
vt 0.69426703 0.99804211
vt 0.68800539 0.99769253
vt 0.69296288 0.9913522
vt 0.67409694 0.99838525
vt 0.68697941 0.99583644
vt 0.62391579 0.97332007
vt 0.61288321 0.97190189
vt 0.62833852 0.96918046
vt 0.63146514 0.97915459
vt 0.61112899 0.98029894
vt 0.63029534 0.98216003
vt 0.94485706 0.98652923
vt 0.9394328 0.97871196
vt 0.94892263 0.98470294
vt 0.95375073 0.99767905
vt 0.6638276 0.99295759
vt 0.66711223 0.99510497
vt 0.66441357 0.99564296
vt 0.64997697 0.99426222
vt 0.66476029 0.99766827
vt 0.66956842 0.99517524
vt 0.80316746 0.98246658
vt 0.79450911 0.99009824
vt 0.79111958 0.98057437
vt 0.79934174 0.97143102
vt 0.75476992 0.98268706
vt 0.74460447 0.9736852
vt 0.74151456 0.96684742
vt 0.73649085 0.98081464
vt 0.8413021 0.98220509
vt 0.83048135 0.97606844
vt 0.84757686 0.97153729
vt 0.83022439 0.97016501
vt 0.83937401 0.96696365
vt 0.92063725 0.97770894
vt 0.91996217 0.96538055
vt 0.92335188 0.96526766
vt 0.90814632 0.96951884
vt 0.91798681 0.98237991
vt 0.91045427 0.97509885
vt 0.44370538 0.9972983
vt 0.44425917 0.99701196
vt 0.44683969 0.99706614
vt 0.4596279 0.99776798
vt 0.46728826 0.99777418
vt 0.46216869 0.99845082
vt 0.45143726 0.99660766
vt 0.53161985 0.98193693
vt 0.52967966 0.98295766
vt 0.52914149 0.98175514
vt 0.52759475 0.97808224
vt 0.51757675 0.98818952
vt 0.52599055 0.99034578
vt 0.51604265 0.99491554
vt 0.50195175 0.99600202
vt 0.51405466 0.99077016
vt 0.65629441 0.97676998
vt 0.64412892 0.97926462
vt 0.64707291 0.97031206
vt 0.65287393 0.98202378
vt 0.64336097 0.9723776
vt 0.64213043 0.9686206
vt 0.98976779 0.98900932
vt 0.99889576 0.99812281
vt 0.98617291 0.99121636
vt 0.46726537 0.99629825
vt 0.46861354 0.99766463
vt 0.46743339 0.99759322
vt 0.47958142 0.99623483
vt 0.72439259 0.99044371
vt 0.72350997 0.98263496
vt 0.72568035 0.98707193
vt 0.71267724 0.984101
vt 0.47823164 0.99623674
vt 0.487012 0.99484938
vt 0.49157387 0.99764854
vt 0.50263441 0.98500949
vt 0.50307739 0.99007159
vt 0.49395329 0.97811556
vt 0.49970761 0.9824931
vt 0.54311687 0.98804271
vt 0.53767097 0.98010892
vt 0.54481357 0.98808706
vt 0.53277802 0.98332131
vt 0.54414886 0.99008393
vt 0.0021782275 0.99795288
vt 0.012720725 0.99773937
vt 0.012117694 0.99810958
vt 0.5628314 0.99547607
vt 0.56519514 0.99636149
vt 0.56037945 0.99770975
vt 0.57054394 0.99796271
vt 0.76965475 0.98246783
vt 0.76416975 0.99065447
vt 0.76016802 0.98897463
vt 0.76795185 0.98922175
vt 0.64611816 0.99509066
vt 0.65503818 0.99582994
vt 0.65498137 0.99802673
vt 0.65190053 0.99539185
vt 0.7056073 0.9963184
vt 0.69753045 0.9977268
vt 0.705948 0.99138045
vt 0.55095619 0.997621
vt 0.5562197 0.99592137
vt 0.55589962 0.99805373
vt 0.54920781 0.99822581
vt 0.72821045 0.99476218
vt 0.73384094 0.99015903
vt 0.73259735 0.99693817
vt 0.72847748 0.99847573
vt 0.72797191 0.99261135
vt 0.72566694 0.99772167
vt 0.72027487 0.99151856
vt 0.63497084 0.9979499
vt 0.63463867 0.99313599
vt 0.64064169 0.99319226
vt 0.46604338 0.99832076
vt 0.46520713 0.99706835
vt 0.46758983 0.9983151
vt 0.46850875 0.99694628
vt 0.0025580965 0.99850243
vt 0.0017911855 0.99791586
vt 0.0026664205 0.99803525
usemtl Tile_+038_+020_L20_0003220_0
f 485/865 480/866 486/867
f 406/1070 483/1071 484/1072
f 482/1 484/2 483/3
f 565/33 437/16 396/24
f 622/889 473/877 623/888
f 476/722 478/723 477/724
f 474/890 475/891 466/892
f 473/877 520/885 435/881
f 229/145 472/195 461/167
f 472/195 471/194 461/167
f 431/270 449/272 421/293
f 460/144 461/167 458/96
f 458/96 561/79 459/117
f 474/890 464/898 442/896
f 463/904 464/898 507/906
f 436/4 408/11 406/7
f 465/46 466/99 506/85
f 445/899 438/903 441/894
f 463/904 499/902 442/896
f 17/1192 461/1193 498/1194
f 443/176 516/202 388/227
f 492/1067 523/1068 493/1069
f 424/259 402/239 423/214
f 472/195 487/168 224/193
f 224/474 17/475 472/476
f 501/905 514/909 507/906
f 514/730 476/722 503/734
f 478/910 513/912 501/905
f 463/904 514/909 503/911
f 513/726 476/722 514/730
f 512/725 476/722 477/724
f 504/870 446/876 497/875
f 512/725 518/737 511/733
f 476/722 513/726 478/723
f 503/872 495/868 504/870
f 495/868 486/867 504/870
f 503/872 497/875 463/879
f 504/870 497/875 503/872
f 476/722 496/729 503/734
f 501/905 502/908 478/910
f 463/904 507/906 514/909
f 477/724 510/728 512/725
f 496/729 495/740 503/734
f 525/750 443/749 444/754
f 511/733 485/739 496/729
f 478/723 448/727 477/724
f 512/725 510/728 515/732
f 626/738 510/728 627/736
f 511/733 496/729 512/725
f 515/732 518/737 512/725
f 480/744 511/733 628/748
f 511/733 518/737 515/732
f 628/748 515/732 631/743
f 486/867 495/868 485/865
f 495/740 496/729 485/739
f 224/193 460/144 632/192
f 486/867 480/866 630/869
f 395/51 413/142 412/114
f 475/70 517/59 465/46
f 443/176 500/123 516/202
f 500/123 443/176 492/149
f 525/750 509/746 526/741
f 523/150 505/124 493/100
f 468/895 469/893 523/897
f 491/153 521/204 522/152
f 389/760 456/758 494/755
f 520/229 521/204 491/153
f 531/71 438/103 552/125
f 494/755 508/751 509/746
f 475/891 474/890 441/894
f 469/122 519/84 505/124
f 399/175 432/226 429/201
f 461/167 460/144 224/193
f 465/46 506/85 475/70
f 493/100 505/124 519/84
f 465/46 528/69 519/84
f 429/201 430/225 500/123
f 528/69 536/148 500/123
f 466/99 465/46 519/84
f 358/54 237/97 359/81
f 470/12 454/26 538/18
f 470/12 550/8 398/19
f 536/148 528/69 534/121
f 535/83 528/69 539/68
f 489/67 488/55 527/44
f 361/56 489/67 527/44
f 536/148 399/175 500/123
f 534/121 537/174 536/148
f 532/27 470/12 398/19
f 528/69 535/83 534/121
f 465/46 530/35 532/27
f 530/35 358/54 527/44
f 493/100 519/84 528/69
f 528/69 500/123 493/100
f 440/228 500/123 430/225
f 469/122 466/99 519/84
f 500/123 399/175 429/201
f 517/59 531/71 530/35
f 465/46 517/59 530/35
f 470/12 532/27 530/35
f 527/44 454/26 530/35
f 465/46 529/58 528/69
f 358/54 361/56 527/44
f 489/67 453/36 488/55
f 532/27 398/19 392/37
f 361/56 344/39 453/36
f 529/58 465/46 532/27
f 454/26 470/12 530/35
f 528/69 529/58 540/57
f 489/67 361/56 453/36
f 529/58 532/27 540/57
f 550/8 551/5 482/1
f 482/1 406/7 550/8
f 547/76 548/115 462/77
f 462/77 556/65 547/76
f 546/25 408/11 437/16
f 436/4 482/1 483/3
f 412/114 542/94 395/51
f 344/39 265/31 533/30
f 472/1176 498/1177 471/1178
f 527/44 488/55 454/26
f 520/885 490/883 434/873
f 467/901 501/905 464/898
f 624/765 555/766 637/767
f 555/717 441/718 638/719
f 501/905 507/906 464/898
f 414/1214 425/1215 402/1216
f 553/9 266/23 82/32
f 304/29 397/20 305/28
f 469/893 468/895 474/890
f 475/800 479/801 642/802
f 446/876 434/873 439/880
f 445/899 442/896 499/902
f 17/170 229/145 461/167
f 530/35 531/71 560/80
f 458/96 487/168 229/145
f 396/24 437/16 544/10
f 545/15 544/10 543/6
f 547/76 559/113 548/115
f 548/115 390/95 462/77
f 407/17 550/8 406/7
f 551/5 557/14 553/9
f 462/77 390/95 558/53
f 541/45 549/43 558/53
f 553/9 82/32 305/28
f 408/1073 483/1071 406/1070
f 394/141 534/121 391/116
f 523/897 492/900 468/895
f 422/162 415/163 413/142
f 397/20 553/9 305/28
f 555/766 479/768 475/770
f 436/4 406/7 482/1
f 391/116 390/95 548/115
f 558/53 554/78 541/45
f 229/145 487/168 472/195
f 526/741 447/735 492/745
f 344/39 533/30 563/22
f 560/80 531/71 562/104
f 469/122 505/124 523/150
f 441/87 438/103 531/71
f 517/59 441/87 531/71
f 468/895 467/901 464/898
f 542/94 400/165 537/174
f 534/121 535/83 391/116
f 399/175 400/165 410/189
f 407/17 408/11 546/25
f 481/752 508/751 494/755
f 448/727 508/751 481/752
f 509/746 508/751 448/727
f 494/755 456/758 481/752
f 641/251 520/229 648/275
f 636/878 486/867 649/874
f 458/96 237/97 358/54
f 548/115 559/113 394/141
f 627/736 448/727 650/742
f 434/873 446/876 504/870
f 447/907 502/908 467/901
f 522/152 521/204 640/217
f 467/901 468/895 492/900
f 473/877 434/873 486/867
f 509/746 448/727 526/741
f 502/908 501/905 467/901
f 475/721 441/718 555/717
f 645/756 456/758 647/761
f 398/19 550/8 407/17
f 402/483 424/484 416/485
f 545/15 396/24 544/10
f 553/9 330/13 484/2
f 428/42 330/13 328/52
f 330/13 405/21 484/2
f 565/33 549/43 546/25
f 437/16 565/33 546/25
f 543/6 544/10 436/4
f 330/13 545/15 543/6
f 73/38 330/13 304/29
f 436/4 483/3 543/6
f 395/51 547/76 556/65
f 547/76 395/51 542/94
f 542/94 559/113 547/76
f 450/247 440/228 430/225
f 558/53 390/95 554/78
f 396/24 549/43 565/33
f 330/942 543/943 483/944
f 549/43 393/34 407/17
f 551/5 550/8 470/12
f 459/117 561/79 560/80
f 538/18 453/36 563/22
f 551/5 563/22 557/14
f 266/23 553/9 557/14
f 541/45 532/27 392/37
f 557/14 533/30 265/31
f 358/54 530/35 564/66
f 541/45 554/78 535/83
f 541/45 539/68 540/57
f 535/83 539/68 541/45
f 400/165 524/143 410/189
f 534/121 394/141 542/94
f 394/141 559/113 542/94
f 391/116 535/83 554/78
f 388/759 455/762 444/754
f 652/295 388/227 653/273
f 389/760 494/755 444/754
f 388/759 389/760 455/762
f 516/202 440/228 387/250
f 524/143 400/165 542/94
f 517/59 475/70 643/86
f 524/143 542/94 412/114
f 396/24 556/65 558/53
f 396/24 558/53 549/43
f 392/37 393/34 541/45
f 483/3 405/21 330/13
f 498/218 224/193 487/168
f 487/168 471/194 498/218
f 541/45 393/34 549/43
f 522/152 566/126 562/104
f 562/104 552/125 491/153
f 522/152 562/104 491/153
f 655/166 459/117 656/191
f 564/66 561/79 358/54
f 560/80 562/104 566/126
f 561/79 458/96 358/54
f 561/79 564/66 560/80
f 566/126 459/117 560/80
f 553/9 397/20 330/13
f 461/1030 471/1031 458/1032
f 458/96 471/194 487/168
f 484/2 551/5 553/9
f 446/876 499/886 463/879
f 496/729 476/722 512/725
f 480/744 485/739 511/733
f 448/727 510/728 477/724
f 500/123 440/228 516/202
f 229/145 237/97 458/96
f 638/102 517/59 654/101
f 453/36 344/39 563/22
f 492/745 443/749 526/741
f 444/754 494/755 509/746
f 552/125 439/151 491/153
f 525/750 526/741 443/749
f 459/117 522/152 651/190
f 224/193 498/218 461/167
f 429/201 431/270 450/247
f 466/99 475/70 506/85
f 444/754 455/762 389/760
f 538/18 454/26 453/36
f 439/880 438/887 445/882
f 497/875 446/876 463/879
f 452/215 417/248 399/175
f 412/114 409/164 524/143
f 386/489 418/490 426/487
f 568/321 387/250 576/323
f 439/151 490/203 491/153
f 464/898 463/904 442/896
f 490/883 439/880 434/873
f 504/870 486/867 434/873
f 434/873 435/881 520/885
f 416/485 424/484 420/486
f 528/69 540/57 539/68
f 414/1214 402/1216 416/1217
f 415/163 416/261 420/240
f 552/125 562/104 531/71
f 466/892 469/893 474/890
f 474/890 468/895 464/898
f 424/259 414/281 420/240
f 454/1098 488/1099 453/1100
f 544/10 437/16 436/4
f 435/881 434/873 473/877
f 426/487 417/488 386/489
f 420/240 414/281 401/213
f 413/142 395/51 433/140
f 401/213 425/238 427/188
f 387/250 385/274 572/296
f 448/727 481/752 644/747
f 432/226 426/271 577/292
f 409/164 415/163 452/215
f 451/249 431/270 429/201
f 432/226 449/272 451/249
f 431/270 385/274 450/247
f 449/272 431/270 451/249
f 447/735 526/741 448/727
f 445/882 499/886 446/876
f 17/1179 498/1177 472/1176
f 445/882 446/876 439/880
f 439/151 552/125 438/103
f 509/746 525/750 444/754
f 444/754 443/749 388/759
f 577/491 418/490 579/492
f 441/894 474/890 442/896
f 442/896 445/899 441/894
f 502/731 448/727 478/723
f 385/274 387/250 440/228
f 580/306 419/282 581/332
f 582/318 431/270 583/343
f 421/293 432/226 584/320
f 493/100 500/123 492/149
f 415/163 409/164 412/114
f 440/228 450/247 385/274
f 418/414 386/307 586/396
f 432/226 451/249 429/201
f 449/272 432/226 421/293
f 402/239 415/163 423/214
f 399/175 417/248 432/226
f 432/226 417/248 426/271
f 429/201 450/247 430/225
f 395/51 428/42 589/64
f 411/112 427/188 422/162
f 401/213 411/112 591/237
f 423/477 425/478 424/479
f 420/240 386/307 419/282
f 427/188 423/214 422/162
f 579/1058 417/1059 580/1060
f 427/188 411/112 401/213
f 414/281 424/259 425/238
f 583/343 421/293 585/345
f 420/240 401/213 592/258
f 418/1061 419/1063 404/1062
f 404/1062 417/1059 418/1061
f 588/1172 418/1173 593/1174
f 422/162 433/140 411/112
f 415/163 402/239 403/260
f 417/248 420/240 419/282
f 452/215 420/240 417/248
f 410/189 452/215 399/175
f 414/281 416/261 415/163
f 403/260 414/281 415/163
f 433/140 395/51 411/112
f 452/215 410/189 409/164
f 405/468 483/473 408/472
f 405/468 407/469 406/470
f 419/282 386/307 404/333
f 417/1064 404/1065 386/1066
f 401/213 403/260 402/239
f 401/213 414/281 403/260
f 459/117 460/144 458/96
f 492/900 447/907 467/901
f 423/214 427/188 425/238
f 514/909 501/905 513/912
f 491/153 490/203 520/229
f 546/25 549/43 407/17
f 538/18 563/22 551/5
f 536/148 400/165 399/175
f 551/5 484/2 482/1
f 536/148 537/174 400/165
f 398/19 407/17 393/34
f 304/29 330/13 397/20
f 556/65 396/24 395/51
f 462/77 558/53 556/65
f 413/142 433/140 422/162
f 484/471 405/468 406/470
f 437/16 408/11 436/4
f 398/19 393/34 392/37
f 391/116 548/115 394/141
f 554/78 390/95 391/116
f 470/12 538/18 551/5
f 545/15 330/13 396/24
f 408/472 407/469 405/468
f 533/30 557/14 563/22
f 532/27 541/45 540/57
f 653/273 387/250 658/294
f 388/227 516/202 387/250
f 537/174 534/121 542/94
f 459/117 566/126 522/152
f 560/80 564/66 530/35
f 646/763 389/760 652/764
f 386/307 420/240 595/305
f 420/240 452/215 415/163
f 401/213 402/239 425/238
f 410/189 524/143 409/164
f 448/727 502/731 447/735
f 423/214 415/163 422/162
f 415/163 412/114 413/142
f 327/276 116/298 27/230
f 223/652 132/653 133/654
f 367/806 11/807 196/808
f 74/1101 38/1102 197/1103
f 204/1007 314/1008 128/1009
f 120/537 172/538 252/539
f 4/419 94/400 96/339
f 241/1187 147/1188 350/1189
f 298/379 166/380 20/338
f 74/1101 347/1105 327/1106
f 217/325 347/347 252/301
f 32/567 140/568 175/569
f 207/1128 218/1129 209/1130
f 128/1009 314/1008 106/1012
f 31/254 117/278 252/301
f 163/673 363/674 357/675
f 379/992 382/993 325/994
f 163/673 357/675 282/676
f 13/818 195/811 12/814
f 245/812 371/815 370/809
f 231/310 312/265 57/285
f 378/819 371/815 245/812
f 9/497 341/495 281/496
f 382/831 297/824 291/836
f 284/512 282/514 354/510
f 174/691 254/692 209/693
f 269/403 90/385 279/340
f 200/374 243/443 154/404
f 314/1008 204/1007 242/1011
f 134/698 135/702 334/706
f 234/257 262/280 307/304
f 153/571 271/591 151/586
f 208/619 178/620 185/621
f 107/913 104/914 127/915
f 44/1018 45/1019 56/1020
f 25/771 317/772 319/773
f 103/219 71/220 75/169
f 317/772 287/779 316/776
f 319/773 317/772 316/776
f 10/996 382/993 291/999
f 286/790 383/794 238/785
f 286/1003 325/994 383/1000
f 10/996 383/1000 325/994
f 19/817 322/827 296/821
f 20/338 261/362 355/313
f 351/98 353/120 289/147
f 227/199 383/263 10/286
f 261/362 164/430 323/417
f 300/1154 165/1155 299/1156
f 239/197 227/199 353/120
f 276/834 291/836 297/824
f 352/211 234/257 308/236
f 320/797 321/798 380/796
f 380/1001 321/997 325/994
f 344/39 361/56 159/63
f 286/1003 380/1001 325/994
f 598/418 15/420 599/439
f 227/199 238/243 383/263
f 9/266 291/311 20/338
f 373/998 374/1002 379/992
f 353/120 292/173 289/147
f 376/793 377/789 381/784
f 364/837 375/838 369/839
f 378/819 297/824 382/831
f 320/797 380/796 377/789
f 382/831 379/832 378/819
f 326/851 320/847 375/838
f 374/846 375/838 371/841
f 374/825 378/819 379/832
f 326/995 373/998 379/992
f 376/793 320/797 377/789
f 374/846 373/850 375/838
f 320/847 376/842 375/838
f 375/838 373/850 326/851
f 366/844 372/852 661/855
f 371/841 375/838 364/837
f 368/840 366/844 364/837
f 11/807 367/806 665/810
f 369/839 368/840 364/837
f 364/837 366/844 365/848
f 370/809 196/808 245/812
f 196/808 370/809 367/806
f 381/784 384/775 225/782
f 366/844 368/840 225/843
f 365/848 367/849 364/837
f 225/843 368/840 369/839
f 375/838 376/842 369/839
f 376/793 381/784 369/791
f 369/791 381/784 225/782
f 381/784 287/779 384/775
f 661/855 26/854 664/861
f 322/1160 261/1161 165/1162
f 322/557 300/558 261/559
f 1/682 294/680 363/674
f 1/682 363/674 13/684
f 670/458 167/462 671/464
f 600/449 93/432 672/440
f 672/440 4/419 673/448
f 671/464 318/466 674/467
f 70/242 103/219 17/170
f 231/310 57/285 675/336
f 17/170 224/193 633/241
f 6/337 231/310 293/360
f 13/818 318/823 2/830
f 363/1045 14/1046 13/1047
f 13/456 8/445 18/460
f 94/400 93/432 15/420
f 290/118 359/81 16/119
f 16/119 75/169 290/118
f 58/677 357/675 363/674
f 288/1183 354/1184 282/1185
f 362/288 355/313 96/339
f 96/339 101/314 362/288
f 159/63 361/56 160/82
f 281/511 354/510 360/509
f 226/1207 289/1208 281/1209
f 349/384 260/364 604/402
f 357/675 228/679 282/676
f 228/978 58/979 282/980
f 280/1083 342/1084 356/1085
f 342/198 285/267 258/246
f 20/338 355/313 285/267
f 354/933 288/934 341/935
f 345/172 351/98 289/147
f 101/314 260/364 279/340
f 78/40 265/31 344/39
f 157/1022 236/1023 350/1024
f 154/404 270/425 215/365
f 260/364 349/384 279/340
f 258/246 259/223 342/198
f 279/340 258/246 101/314
f 285/267 362/288 258/246
f 87/383 100/382 598/418
f 228/939 226/937 288/934
f 603/401 87/383 606/421
f 9/266 21/312 360/287
f 360/287 285/267 342/198
f 362/288 101/314 258/246
f 362/288 285/267 355/313
f 355/1080 311/1081 96/1082
f 9/508 360/509 354/510
f 354/933 341/935 9/936
f 342/198 345/172 289/147
f 353/120 351/98 160/82
f 80/146 161/171 353/120
f 160/82 80/146 353/120
f 228/200 289/147 292/173
f 289/147 226/245 356/222
f 360/1132 356/1133 281/1134
f 356/1133 9/1135 281/1134
f 341/935 226/937 280/938
f 280/938 360/940 341/935
f 356/1169 360/1170 280/1171
f 342/198 289/147 356/222
f 359/81 160/82 361/56
f 159/63 78/40 344/39
f 256/291 257/342 190/317
f 97/424 269/403 349/384
f 351/98 313/160 343/127
f 78/40 77/41 266/23
f 350/1210 158/1211 268/1212
f 236/1054 158/1055 350/1056
f 350/1024 150/1025 157/1022
f 190/317 188/269 256/291
f 259/223 256/291 188/269
f 98/1122 247/1123 309/1124
f 90/385 154/404 215/365
f 201/697 244/704 303/708
f 233/128 232/105 142/89
f 151/586 307/579 153/571
f 150/1195 241/1196 257/1197
f 268/504 256/501 236/503
f 158/289 256/291 268/315
f 313/160 352/211 308/236
f 278/929 307/930 152/931
f 240/235 352/211 345/172
f 147/606 151/586 155/597
f 264/960 189/961 190/962
f 271/1039 149/1040 154/1041
f 156/1074 277/1075 215/1076
f 258/246 215/365 277/341
f 92/433 349/384 605/423
f 256/501 259/502 236/503
f 236/1054 259/1057 158/1055
f 90/385 269/403 97/424
f 313/160 308/236 267/205
f 191/970 308/968 264/960
f 351/98 345/172 313/160
f 352/211 313/160 345/172
f 266/23 265/31 78/40
f 332/661 339/656 192/666
f 241/1187 150/1191 151/1190
f 149/279 278/302 151/316
f 251/584 146/573 253/578
f 274/1203 251/1204 253/1205
f 91/409 200/374 154/404
f 272/154 142/89 343/127
f 153/571 146/573 274/577
f 144/1147 309/1148 248/1149
f 219/300 35/351 216/348
f 252/1033 118/1034 119/1035
f 207/570 32/567 175/569
f 30/186 66/132 32/233
f 223/178 233/128 272/154
f 249/303 143/375 246/372
f 170/1141 315/1142 252/1143
f 220/926 210/924 310/921
f 315/576 207/570 176/572
f 252/945 348/946 170/947
f 169/1136 104/1137 181/1138
f 181/588 45/602 199/594
f 347/951 198/949 348/946
f 124/952 194/948 198/949
f 339/656 332/661 132/653
f 337/972 333/976 192/966
f 113/647 333/649 338/650
f 346/651 113/647 338/650
f 302/969 346/977 338/975
f 302/716 335/711 346/714
f 113/709 346/714 335/711
f 302/716 301/712 335/711
f 214/703 336/707 213/710
f 192/666 339/656 191/670
f 302/969 337/972 192/966
f 192/966 295/963 302/969
f 214/703 273/700 134/698
f 134/698 334/706 336/707
f 336/707 301/712 213/710
f 337/972 302/969 338/975
f 333/976 337/972 338/975
f 301/712 336/707 335/711
f 336/707 334/706 335/711
f 334/706 113/709 335/711
f 333/671 114/662 332/661
f 113/647 135/644 115/646
f 122/655 133/654 111/658
f 133/641 22/635 111/633
f 185/621 112/629 24/625
f 121/645 131/642 306/643
f 331/632 110/628 125/637
f 210/631 179/623 125/637
f 124/1016 205/1010 126/1013
f 265/31 266/23 557/14
f 665/856 365/848 678/857
f 330/13 73/38 48/49
f 201/697 255/695 273/700
f 46/1139 56/1140 181/1138
f 328/52 48/49 329/72
f 216/531 173/532 116/533
f 217/325 116/298 327/276
f 74/256 327/276 41/252
f 135/702 134/698 137/699
f 325/994 321/997 326/995
f 329/72 52/90 324/106
f 253/616 143/617 274/618
f 221/853 366/844 662/858
f 200/374 263/412 250/395
f 282/676 284/678 163/673
f 316/264 239/197 312/265
f 248/394 99/391 98/407
f 348/946 194/948 170/947
f 259/223 345/172 342/198
f 6/780 5/777 230/774
f 360/493 342/494 341/495
f 341/935 288/934 226/937
f 312/265 239/197 139/244
f 45/602 107/609 199/594
f 184/366 241/386 268/315
f 271/1039 244/1042 270/1043
f 18/460 8/445 300/438
f 165/1155 261/1158 299/1156
f 43/210 44/130 56/136
f 207/1163 216/1164 117/1165
f 207/1118 117/1119 219/1120
f 364/837 370/845 371/841
f 370/845 364/837 367/849
f 267/660 308/665 339/656
f 113/709 334/706 135/702
f 130/664 129/669 222/659
f 252/1033 173/1036 118/1034
f 31/1049 315/1050 197/1051
f 44/130 55/157 49/107
f 51/131 53/158 106/183
f 199/1014 205/1010 124/1016
f 126/925 128/922 211/918
f 173/390 120/352 118/353
f 110/953 187/955 171/950
f 180/668 130/664 122/655
f 293/786 5/777 6/780
f 56/1020 45/1019 181/1021
f 5/777 293/786 680/787
f 230/335 312/265 6/337
f 312/265 231/310 6/337
f 223/652 339/656 132/653
f 356/222 226/245 9/266
f 355/313 261/362 311/381
f 305/28 83/47 304/29
f 348/389 252/301 347/347
f 112/629 185/621 186/624
f 310/921 211/918 104/914
f 35/1125 98/1122 309/1124
f 144/406 35/351 309/426
f 198/949 199/954 124/952
f 49/107 55/157 105/182
f 54/1199 105/1200 55/1201
f 207/1144 315/1142 170/1141
f 199/594 197/581 181/588
f 153/571 140/568 146/573
f 140/568 153/571 175/569
f 323/417 164/430 7/431
f 201/545 263/547 253/546
f 177/1112 67/1113 61/1114
f 144/406 247/434 98/407
f 35/540 248/541 98/542
f 216/348 35/351 173/390
f 207/1163 212/1166 216/1164
f 219/958 216/959 212/957
f 149/279 146/330 249/303
f 146/330 251/356 249/303
f 250/595 145/590 274/577
f 213/710 184/713 215/705
f 200/374 250/395 146/330
f 168/446 7/431 670/458
f 12/814 318/823 13/818
f 261/362 166/380 299/398
f 166/380 298/379 322/416
f 378/819 245/812 297/824
f 19/817 296/821 245/812
f 166/380 322/416 165/429
f 326/799 321/798 320/797
f 195/811 19/817 245/812
f 319/309 316/264 312/265
f 683/685 1/682 684/689
f 674/829 12/814 685/835
f 25/771 384/775 317/772
f 239/197 316/264 238/243
f 353/120 227/199 292/173
f 288/513 281/511 289/515
f 288/513 289/515 58/517
f 161/171 138/221 239/197
f 288/513 284/512 281/511
f 360/287 21/312 285/267
f 58/517 284/512 283/516
f 282/981 58/982 283/983
f 226/1221 281/1222 280/1223
f 215/365 258/246 279/340
f 66/132 278/302 149/279
f 183/1079 277/1075 235/1077
f 264/960 308/968 234/964
f 146/330 250/395 275/413
f 274/577 146/573 275/583
f 215/705 270/701 273/700
f 155/1044 271/1039 270/1043
f 262/280 234/257 240/235
f 215/1027 183/1029 235/1026
f 235/1077 277/1075 156/1074
f 268/1078 235/1077 156/1074
f 262/280 152/331 307/304
f 295/963 192/966 264/960
f 333/671 332/661 192/666
f 65/1107 206/1108 62/1109
f 180/593 176/572 65/600
f 200/374 143/375 263/412
f 58/677 294/680 687/683
f 246/1150 144/1147 248/1149
f 123/667 182/672 180/668
f 223/178 222/179 233/128
f 266/23 77/41 82/32
f 340/177 313/160 267/205
f 153/571 274/577 303/582
f 66/574 153/571 307/579
f 201/545 145/548 263/547
f 263/605 145/590 250/595
f 258/246 277/341 268/315
f 131/642 23/634 306/643
f 343/127 340/177 272/154
f 274/577 145/590 303/582
f 201/697 273/700 270/701
f 83/47 79/48 304/29
f 222/659 223/652 122/655
f 201/545 253/546 249/543
f 177/575 175/569 66/574
f 336/707 214/703 134/698
f 308/665 191/670 339/656
f 249/543 246/544 201/545
f 145/590 243/596 303/582
f 200/374 303/452 243/443
f 359/81 290/118 160/82
f 80/146 160/82 290/118
f 300/438 164/430 261/362
f 300/1154 299/1156 164/1157
f 343/127 141/88 351/98
f 269/403 279/340 349/384
f 312/265 230/335 319/309
f 215/1027 235/1026 157/1022
f 157/498 156/499 215/500
f 151/316 262/280 188/269
f 297/824 296/821 276/834
f 257/967 295/963 190/962
f 262/280 240/235 188/269
f 20/338 21/312 9/266
f 227/199 239/197 238/243
f 237/97 229/145 16/119
f 351/98 141/88 159/63
f 189/592 307/579 151/586
f 268/1028 236/1023 235/1026
f 189/961 264/960 234/964
f 232/105 233/128 203/155
f 233/128 222/179 203/155
f 83/47 305/28 82/32
f 319/773 230/774 25/771
f 196/808 11/807 195/811
f 226/245 228/200 227/199
f 26/854 372/852 225/843
f 363/674 294/680 58/677
f 184/974 213/971 257/967
f 311/381 261/362 95/399
f 234/599 307/579 189/592
f 134/698 255/695 174/691
f 87/383 260/364 101/314
f 209/693 218/694 174/691
f 259/223 258/246 157/268
f 257/342 256/291 150/367
f 158/289 150/367 256/291
f 117/278 32/233 219/300
f 209/328 254/393 246/372
f 254/692 174/691 255/695
f 146/573 140/568 253/578
f 252/1168 119/1167 216/1164
f 143/375 251/356 250/395
f 249/585 253/578 140/568
f 349/384 92/433 97/424
f 248/1126 247/1123 99/1127
f 263/547 143/549 253/546
f 246/372 143/375 99/391
f 154/1041 244/1042 271/1039
f 12/814 195/811 11/807
f 177/1112 59/1115 206/1117
f 242/611 199/594 107/609
f 50/156 54/181 40/207
f 250/595 274/577 143/604
f 248/1126 309/1124 247/1123
f 35/351 144/406 34/370
f 62/1109 206/1108 59/1111
f 200/1180 145/1181 201/1182
f 201/560 303/561 200/562
f 140/255 149/279 249/303
f 295/963 301/973 302/969
f 199/594 198/603 197/581
f 15/420 93/432 610/441
f 195/811 245/812 196/808
f 70/242 17/170 677/262
f 608/371 89/392 612/408
f 171/950 170/947 194/948
f 110/628 124/640 125/637
f 110/953 171/950 194/948
f 264/960 190/962 295/963
f 159/63 69/74 78/40
f 24/625 136/630 193/622
f 192/966 191/970 264/960
f 188/965 190/962 189/961
f 151/586 188/598 189/592
f 218/694 187/696 174/691
f 109/626 136/630 187/636
f 180/593 65/600 130/607
f 198/949 194/948 348/946
f 179/623 331/632 125/637
f 104/914 169/923 310/921
f 180/593 182/601 181/588
f 178/620 208/619 179/623
f 124/952 110/953 194/948
f 177/575 176/572 175/569
f 136/630 109/626 193/622
f 122/655 111/658 186/663
f 173/390 172/369 116/298
f 116/298 172/369 36/349
f 172/369 120/352 36/349
f 123/927 220/926 169/923
f 197/581 315/576 176/572
f 35/351 219/300 209/328
f 30/1052 31/1049 197/1051
f 38/1053 30/1052 197/1051
f 137/699 174/691 187/696
f 186/624 178/620 123/627
f 310/921 169/923 220/926
f 210/924 220/926 123/927
f 179/623 123/627 178/620
f 219/1120 218/1121 207/1118
f 219/958 212/957 218/956
f 74/1101 197/1103 198/1104
f 116/298 217/325 216/348
f 213/710 215/705 214/703
f 255/695 134/698 273/700
f 215/705 273/700 214/703
f 171/950 218/956 212/957
f 198/1104 347/1105 74/1101
f 23/634 136/630 24/625
f 110/628 331/632 179/623
f 210/924 126/925 211/918
f 193/622 109/626 208/619
f 179/623 208/619 110/628
f 212/1146 207/1144 171/1145
f 176/1110 206/1108 65/1107
f 204/1007 205/1010 199/1014
f 128/1009 205/1010 204/1007
f 301/973 295/963 213/971
f 52/90 50/156 102/129
f 202/1087 203/1088 129/1089
f 67/1113 177/1112 202/1116
f 255/695 201/697 254/692
f 66/574 202/587 177/575
f 130/1090 67/1092 202/1087
f 176/572 180/593 181/588
f 131/642 115/646 135/644
f 123/627 179/623 210/631
f 186/624 185/621 178/620
f 193/622 185/621 24/625
f 169/923 182/928 123/927
f 185/621 193/622 208/619
f 121/657 133/654 132/653
f 22/635 133/641 23/634
f 332/661 114/662 132/653
f 132/653 114/662 121/657
f 137/699 134/698 174/691
f 133/654 122/655 223/652
f 137/638 131/642 135/644
f 127/1017 128/1009 53/1015
f 136/630 137/638 187/636
f 109/626 110/628 208/619
f 222/179 129/206 203/155
f 124/640 126/639 125/637
f 107/609 314/613 242/611
f 50/156 28/180 102/129
f 186/663 123/667 122/655
f 131/642 121/645 115/646
f 66/574 175/569 153/571
f 176/572 207/570 175/569
f 122/655 130/664 222/659
f 173/390 35/351 120/352
f 117/1037 119/1035 118/1034
f 36/349 37/326 116/298
f 113/647 115/646 114/648
f 121/645 114/648 115/646
f 36/349 120/352 35/351
f 22/635 112/629 111/633
f 187/636 110/628 109/626
f 176/572 177/575 206/580
f 30/186 61/184 66/132
f 45/602 108/610 107/609
f 104/914 107/913 108/917
f 53/916 105/919 107/913
f 257/1197 241/1196 184/1198
f 53/1015 128/1009 106/1012
f 172/1038 173/1036 252/1033
f 211/918 310/921 210/924
f 107/609 105/614 314/613
f 207/1144 170/1141 171/1145
f 128/1009 126/1013 205/1010
f 614/232 33/253 615/277
f 102/129 28/180 613/208
f 7/431 3/437 95/399
f 3/437 7/431 168/446
f 7/431 2/465 167/462
f 95/399 323/417 7/431
f 164/1157 299/1156 166/1159
f 166/553 165/554 164/555
f 300/438 8/445 165/429
f 8/556 164/555 165/554
f 318/466 167/462 2/465
f 58/517 14/519 163/518
f 58/517 162/520 14/519
f 1/523 14/519 162/520
f 684/526 162/520 697/529
f 72/60 142/89 85/61
f 138/221 161/171 76/196
f 142/89 72/60 141/88
f 158/289 259/223 157/268
f 157/1022 235/1026 236/1023
f 70/242 71/220 103/219
f 149/984 155/985 154/986
f 149/1094 153/1095 145/1096
f 153/563 243/565 145/566
f 151/316 278/302 152/331
f 150/1151 158/1152 157/1153
f 350/411 147/373 150/367
f 147/373 149/279 148/354
f 149/984 147/987 155/985
f 146/330 145/355 200/374
f 149/279 145/355 146/330
f 246/550 99/551 144/552
f 63/73 48/49 85/61
f 99/391 247/434 144/406
f 143/375 86/350 99/391
f 64/91 67/159 65/133
f 33/253 86/350 609/327
f 307/930 278/929 66/932
f 142/89 232/105 85/61
f 69/74 159/63 141/88
f 66/132 140/255 32/233
f 59/134 60/137 63/73
f 71/220 139/244 138/221
f 83/47 81/50 79/48
f 77/41 81/50 82/32
f 76/196 161/171 80/146
f 79/48 81/50 68/62
f 77/41 78/40 68/62
f 71/220 76/196 75/169
f 41/252 39/234 74/256
f 85/61 73/38 72/60
f 71/220 70/242 694/283
f 141/88 72/60 68/62
f 78/40 69/74 68/62
f 57/285 71/220 698/308
f 48/49 47/92 46/110
f 138/221 76/196 71/220
f 177/1112 61/1114 59/1115
f 66/132 61/184 67/159
f 141/88 68/62 69/74
f 68/62 72/60 79/48
f 64/91 65/133 62/109
f 59/134 63/73 62/109
f 61/184 60/137 59/134
f 149/279 140/255 66/132
f 693/522 58/517 700/524
f 88/363 96/339 100/382
f 96/339 88/363 101/314
f 89/392 86/350 91/409
f 96/339 94/400 100/382
f 99/391 34/370 98/407
f 4/419 96/339 95/399
f 93/432 94/400 4/419
f 618/435 92/433 620/454
f 89/392 91/409 90/385
f 87/383 101/314 88/363
f 99/391 86/350 34/370
f 30/186 60/137 61/184
f 60/137 84/111 63/73
f 30/186 29/138 60/137
f 48/49 63/73 47/92
f 56/136 47/92 29/138
f 48/49 49/107 52/90
f 54/181 55/157 44/130
f 54/1199 106/1202 105/1200
f 53/158 49/107 105/182
f 49/107 53/158 51/131
f 52/90 51/131 50/156
f 48/49 44/130 49/107
f 46/110 47/92 56/136
f 45/135 48/49 46/110
f 48/49 45/135 44/130
f 42/209 54/181 44/130
f 27/230 41/252 327/276
f 40/207 39/234 41/252
f 41/252 27/230 40/207
f 40/207 28/180 50/156
f 38/185 74/256 39/234
f 27/989 37/990 33/991
f 33/253 36/349 35/351
f 35/351 34/370 33/253
f 30/186 32/233 31/254
f 34/370 86/350 33/253
f 28/180 27/230 33/253
f 350/1210 268/1212 241/1213
f 10/996 325/994 382/993
f 378/819 374/825 371/815
f 285/267 21/312 20/338
f 223/652 267/660 339/656
f 225/843 372/852 366/844
f 5/777 25/771 230/774
f 353/120 161/171 239/197
f 26/778 25/771 707/783
f 112/629 22/635 24/625
f 245/812 296/821 297/824
f 240/235 234/257 352/211
f 313/160 340/177 343/127
f 16/119 229/145 17/170
f 14/1046 7/1048 13/1047
f 12/814 11/807 696/816
f 226/245 10/286 9/266
f 237/97 16/119 359/81
f 164/430 8/445 7/431
f 703/444 3/437 709/455
f 13/684 2/688 1/682
f 10/480 226/481 227/482
f 14/519 1/523 2/527
f 123/667 180/668 122/655
f 133/641 306/643 23/634
f 128/922 127/915 211/918
f 258/246 156/290 157/268
f 25/771 5/777 681/781
f 131/642 137/638 23/634
f 126/639 210/631 125/637
f 75/169 16/119 17/170
f 296/821 322/827 298/833
f 333/649 113/647 114/648
f 176/572 181/588 197/581
f 104/914 108/917 46/920
f 127/915 53/916 107/913
f 23/634 137/638 136/630
f 216/1164 119/1167 117/1165
f 276/361 298/379 20/338
f 678/857 221/853 710/859
f 316/776 287/779 238/785
f 58/517 163/518 284/512
f 20/338 166/380 261/362
f 322/827 19/817 300/826
f 228/939 288/934 58/941
f 291/311 276/361 20/338
f 227/199 228/200 292/173
f 19/817 18/820 300/826
f 195/811 18/820 19/817
f 287/779 286/790 238/785
f 281/511 284/512 354/510
f 240/235 345/172 259/223
f 153/1095 149/1094 271/1097
f 380/796 286/790 377/789
f 9/266 10/286 291/311
f 384/775 25/771 26/778
f 155/597 151/586 271/591
f 288/513 283/516 284/512
f 282/1185 283/1186 288/1183
f 357/675 58/677 289/681
f 289/147 228/200 357/224
f 251/356 275/413 250/395
f 274/1203 275/1206 251/1204
f 347/347 217/325 327/276
f 120/352 252/301 457/329
f 118/353 120/352 457/329
f 64/91 202/108 66/132
f 66/132 67/159 64/91
f 117/278 118/353 457/329
f 252/301 117/278 457/329
f 95/399 3/437 4/419
f 317/772 384/775 287/779
f 116/298 37/326 27/230
f 29/138 30/186 38/185
f 63/73 84/111 47/92
f 151/1190 147/1188 241/1187
f 287/779 377/789 286/790
f 154/404 243/443 244/453
f 246/372 248/394 35/351
f 104/914 211/918 127/915
f 75/169 17/170 103/219
f 326/995 379/992 325/994
f 361/56 358/54 359/81
f 287/779 381/784 377/789
f 225/782 384/775 26/778
f 365/848 366/844 221/853
f 293/360 231/310 689/378
f 7/431 8/445 13/456
f 14/519 363/521 163/518
f 261/362 323/417 95/399
f 76/196 80/146 75/169
f 239/197 138/221 139/244
f 342/1084 280/1083 281/1086
f 281/496 341/495 342/494
f 268/315 277/341 184/366
f 151/316 150/367 148/354
f 351/98 159/63 160/82
f 153/571 303/582 244/589
f 153/563 244/564 243/565
f 200/374 91/409 143/375
f 83/47 82/32 81/50
f 23/634 24/625 22/635
f 252/1218 315/1219 31/1220
f 89/392 97/424 92/433
f 262/280 151/316 152/331
f 64/91 85/61 202/108
f 270/988 154/986 155/985
f 90/385 215/365 279/340
f 340/177 267/205 272/154
f 148/354 149/279 151/316
f 223/178 272/154 267/205
f 246/372 254/393 201/410
f 181/588 182/601 169/608
f 104/1137 46/1139 181/1138
f 77/41 68/62 81/50
f 312/265 139/244 57/285
f 85/61 64/91 63/73
f 130/1090 65/1093 67/1092
f 43/210 39/234 40/207
f 33/253 37/326 36/349
f 51/131 106/183 54/181
f 50/156 51/131 54/181
f 52/90 49/107 51/131
f 142/89 272/154 233/128
f 187/955 218/956 171/950
f 183/387 184/366 277/341
f 34/370 144/406 98/407
f 184/713 183/715 215/705
f 71/220 57/285 139/244
f 75/169 80/146 290/118
f 154/404 90/385 91/409
f 29/138 38/185 56/136
f 43/210 56/136 38/185
f 258/246 268/315 156/290
f 270/701 244/704 201/697
f 79/48 72/60 73/38
f 304/29 79/48 73/38
f 240/235 259/223 188/269
f 209/328 246/372 35/351
f 97/424 89/392 90/385
f 216/534 217/535 252/536
f 207/1128 209/1130 32/1131
f 94/400 15/420 100/382
f 199/1014 242/1011 204/1007
f 213/971 295/963 257/967
f 32/233 209/328 219/300
f 129/1089 130/1090 202/1087
f 133/641 121/645 306/643
f 46/612 108/610 45/602
f 314/613 105/614 106/615
f 7/530 14/519 2/527
f 3/437 168/446 691/457
f 96/339 311/381 95/399
f 147/373 148/354 150/367
f 143/375 249/303 251/356
f 142/89 141/88 343/127
f 48/49 73/38 85/61
f 62/109 63/73 64/91
f 91/409 86/350 143/375
f 87/383 88/363 100/382
f 60/137 29/138 84/111
f 47/92 84/111 29/138
f 44/130 43/210 42/209
f 54/181 42/209 40/207
f 43/210 38/185 39/234
f 43/210 40/207 42/209
f 27/230 28/180 40/207
f 32/233 117/278 31/254
f 18/820 195/811 13/818
f 186/624 111/633 112/629
f 296/821 298/833 276/834
f 232/1091 203/1088 202/1087
f 85/61 232/105 202/108
f 570/93 395/51 590/75
f 428/42 395/51 396/24
f 396/24 330/13 428/42
f 328/52 330/13 48/49
f 329/72 48/49 52/90
f 52/90 102/129 324/106
f 568/321 567/388 712/368
f 658/294 568/321 714/346
f 569/139 411/112 570/93
f 570/93 411/112 395/51
f 571/324 385/274 597/344
f 572/296 385/274 571/324
f 573/187 411/112 574/161
f 574/161 411/112 569/139
f 575/212 411/112 573/187
f 576/323 387/250 572/296
f 577/491 426/487 418/490
f 578/319 432/226 577/292
f 579/1058 418/1061 417/1059
f 580/306 417/248 419/282
f 581/505 419/506 588/507
f 582/318 385/274 431/270
f 583/343 431/270 421/293
f 584/320 432/226 578/319
f 585/345 421/293 584/320
f 586/396 386/307 594/376
f 587/428 418/414 586/396
f 588/1172 419/1175 418/1173
f 590/75 395/51 589/64
f 591/237 411/112 575/212
f 592/258 401/213 591/237
f 593/436 418/414 587/428
f 594/376 386/307 596/357
f 595/305 420/240 592/258
f 596/357 386/307 595/305
f 597/344 385/274 582/318
f 598/418 100/382 15/420
f 599/439 15/420 611/447
f 601/450 93/432 600/449
f 602/422 260/364 603/401
f 603/401 260/364 87/383
f 604/402 260/364 602/422
f 605/423 349/384 604/402
f 606/421 87/383 598/418
f 607/442 92/433 605/423
f 608/371 86/350 89/392
f 609/327 86/350 608/371
f 610/441 93/432 601/450
f 611/447 15/420 610/441
f 612/408 89/392 619/427
f 613/208 28/180 614/232
f 614/232 28/180 33/253
f 615/277 33/253 617/299
f 616/231 102/129 613/208
f 617/299 33/253 609/327
f 618/435 89/392 92/433
f 619/427 89/392 618/435
f 620/454 92/433 621/451
f 621/451 92/433 607/442
f 622/889 520/885 473/877
f 623/888 473/877 635/884
f 624/765 479/768 555/766
f 625/804 479/801 624/805
f 626/738 515/732 510/728
f 627/736 510/728 448/727
f 628/748 511/733 515/732
f 629/753 480/744 628/748
f 630/757 480/744 629/753
f 631/743 515/732 626/738
f 632/192 460/144 655/166
f 633/241 224/193 632/192
f 634/871 486/867 630/869
f 635/884 473/877 636/878
f 636/878 473/877 486/867
f 637/767 555/766 639/769
f 638/102 441/87 517/59
f 639/720 555/717 638/719
f 640/217 521/204 641/251
f 641/251 521/204 520/229
f 642/802 479/801 625/804
f 643/803 475/800 642/802
f 644/747 481/752 645/756
f 645/756 481/752 456/758
f 646/763 456/758 389/760
f 647/761 456/758 646/763
f 648/275 520/229 622/297
f 649/874 486/867 634/871
f 650/742 448/727 644/747
f 651/190 522/152 640/217
f 652/295 389/322 388/227
f 653/273 388/227 387/250
f 654/101 517/59 643/86
f 655/166 460/144 459/117
f 656/191 459/117 657/216
f 657/216 459/117 651/190
f 658/294 387/250 568/321
f 659/1224 294/1225 660/1226
f 660/1226 294/1225 686/1227
f 661/855 372/852 26/854
f 662/858 366/844 661/855
f 663/863 26/854 669/864
f 664/861 26/854 663/863
f 665/856 367/849 365/848
f 666/813 11/807 665/810
f 667/415 293/360 711/397
f 668/1228 293/1229 667/1230
f 669/792 26/778 708/788
f 670/458 7/431 167/462
f 671/464 167/462 318/466
f 672/440 93/432 4/419
f 673/448 4/419 703/444
f 674/829 318/823 12/814
f 675/336 57/285 702/358
f 676/359 231/310 675/336
f 677/262 17/170 633/241
f 678/857 365/848 221/853
f 679/860 221/853 662/858
f 680/787 293/786 668/795
f 681/781 5/777 680/787
f 682/461 168/446 670/458
f 683/685 294/680 1/682
f 684/526 1/523 162/520
f 685/835 12/814 704/828
f 686/690 294/680 683/685
f 687/683 294/680 659/687
f 688/686 58/677 687/683
f 689/378 231/310 690/377
f 690/377 231/310 676/359
f 691/457 168/446 682/461
f 692/525 162/520 693/522
f 693/522 162/520 58/517
f 694/283 70/242 695/284
f 695/284 70/242 677/262
f 696/816 11/807 666/813
f 697/529 162/520 692/525
f 698/308 71/220 694/283
f 699/334 57/285 698/308
f 700/524 58/517 701/528
f 701/1004 58/1005 688/1006
f 702/358 57/285 699/334
f 703/444 4/419 3/437
f 704/828 12/814 705/822
f 705/822 12/814 696/816
f 706/862 221/853 679/860
f 707/783 25/771 681/781
f 708/788 26/778 707/783
f 709/455 3/437 691/457
f 710/859 221/853 706/862
f 711/397 293/360 689/378
f 712/368 567/388 713/405
f 714/346 568/321 712/368
f 715/459 600/449 672/440
f 716/463 600/449 715/459
usemtl Tile_+038_+020_L20_0003220_untextured
