mtllib Tile_+038_+020_L20_0002220.mtl
v 7.77633514e+03 4.97329698e+03 2.06010557e+00
v 7.77603564e+03 4.97346657e+03 1.16674143e+00
v 7.76286797e+03 4.98875920e+03 1.63075249e+00
v 7.75988359e+03 4.98762003e+03 1.62903389e+00
v 7.77724288e+03 4.97288660e+03 1.80627004e+00
v 7.75852779e+03 4.97252242e+03 2.04475233e+00
v 7.75984067e+03 4.97217918e+03 2.21905009e+00
v 7.76397299e+03 4.97357399e+03 1.88494492e+00
v 7.76225830e+03 4.97277968e+03 1.71642550e+00
v 7.76461700e+03 4.97586719e+03 1.78576762e+00
v 7.77748610e+03 4.97750701e+03 3.76363879e+00
v 7.77626533e+03 4.97768589e+03 3.41165810e+00
v 7.77705694e+03 4.98183199e+03 9.68929407e-01
v 7.77663962e+03 4.98184819e+03 1.54804735e+00
v 7.77692706e+03 4.98280721e+03 1.44823477e+00
v 7.77614358e+03 4.97531895e+03 2.73775186e+00
v 7.77584432e+03 4.97490814e+03 3.37377818e+00
v 7.77366149e+03 4.97084152e+03 3.09738351e-02
v 7.77639415e+03 4.97250123e+03 -2.47221837e-01
v 7.75363954e+03 4.98594286e+03 1.55050747e+00
v 7.75000000e+03 4.98356122e+03 1.62796591e+00
v 7.75147218e+03 4.98523760e+03 1.71361415e+00
v 7.75235409e+03 4.96951616e+03 1.79396344e+00
v 7.75692388e+03 4.96917921e+03 1.75100638e+00
v 7.77342719e+03 4.97060875e+03 1.91752793e-01
v 7.75000000e+03 5.00000000e+03 1.32015760e+00
v 7.75101519e+03 5.00000000e+03 1.29812605e+00
v 7.75000000e+03 4.99965489e+03 1.31522053e+00
v 7.76413886e+03 5.00000000e+03 1.44171900e+00
v 7.76601340e+03 5.00000000e+03 1.48828266e+00
v 7.76891882e+03 5.00000000e+03 1.47928056e+00
v 7.76995504e+03 5.00000000e+03 1.63220455e+00
v 7.76860275e+03 5.00000000e+03 1.43816151e+00
v 7.75258422e+03 5.00000000e+03 1.21703488e+00
v 7.76083442e+03 5.00000000e+03 1.68915858e+00
v 7.76200150e+03 5.00000000e+03 1.45986218e+00
v 7.76104967e+03 4.99899565e+03 1.49165332e+00
v 7.75114483e+03 4.99844596e+03 1.26494695e+00
v 7.77373499e+03 5.00000000e+03 1.70810492e+00
v 7.77437488e+03 5.00000000e+03 1.61226882e+00
v 7.77513217e+03 4.99788540e+03 1.70773461e+00
v 7.77174520e+03 5.00000000e+03 1.65835486e+00
v 7.77272293e+03 5.00000000e+03 1.71875314e+00
v 7.78059932e+03 5.00000000e+03 3.95262443e-01
v 7.78067029e+03 5.00000000e+03 3.23383771e-01
v 7.78048804e+03 5.00000000e+03 1.31047062e+00
v 7.78057810e+03 5.00000000e+03 7.96653784e-01
v 7.78130220e+03 5.00000000e+03 3.68663423e-04
v 7.77817809e+03 5.00000000e+03 1.41231475e+00
v 7.77818052e+03 5.00000000e+03 1.41195912e+00
v 7.77806625e+03 4.99928391e+03 1.42373910e+00
v 7.77817146e+03 5.00000000e+03 1.41392977e+00
v 7.75000000e+03 4.98903856e+03 1.49614937e+00
v 7.75000000e+03 4.99115811e+03 1.44589309e+00
v 7.75000000e+03 4.98515134e+03 1.76037366e+00
v 7.75000000e+03 4.98670734e+03 1.54235401e+00
v 7.75000000e+03 4.97101107e+03 1.78498466e+00
v 7.75000000e+03 4.97266011e+03 1.89110907e+00
v 7.75000000e+03 4.98778646e+03 1.58890747e+00
v 7.75000000e+03 4.99830387e+03 1.54443382e+00
v 7.75000000e+03 4.99861056e+03 1.47673176e+00
v 7.75000000e+03 4.99781822e+03 1.51319431e+00
v 7.75000000e+03 4.99828012e+03 1.54426729e+00
v 7.75000000e+03 4.99906936e+03 1.36512239e+00
v 7.75000000e+03 4.99927244e+03 1.31294113e+00
v 7.75000000e+03 4.98460432e+03 1.80569426e+00
v 7.75000000e+03 4.97469877e+03 1.70463453e+00
v 7.75000000e+03 4.97878514e+03 1.70894250e+00
v 7.77972500e+03 4.98861047e+03 9.57464980e-01
v 7.77932826e+03 4.98844976e+03 1.18924893e+00
v 7.77964835e+03 4.98798677e+03 1.10811716e+00
v 7.77770643e+03 4.97389659e+03 3.74356750e+00
v 7.77808815e+03 4.97360128e+03 3.35914825e+00
v 7.77869529e+03 4.97978330e+03 1.87556886e+00
v 7.77886189e+03 4.97917088e+03 2.18574189e+00
v 7.77905767e+03 4.98209897e+03 1.59829251e+00
v 7.77870922e+03 4.98230921e+03 1.60409014e+00
v 7.77862856e+03 4.97913057e+03 2.90894993e+00
v 7.77927870e+03 4.97952264e+03 1.91633045e+00
v 7.77842998e+03 4.97813563e+03 1.94359521e+00
v 7.77906728e+03 4.97788655e+03 1.18151262e+00
v 7.77905339e+03 4.97739207e+03 1.34481243e+00
v 7.78125818e+03 4.98611648e+03 1.46402389e+00
v 7.77979483e+03 4.98302459e+03 2.21838121e+00
v 7.77979108e+03 4.98321932e+03 3.07426496e+00
v 7.77956139e+03 4.98268594e+03 2.78383859e+00
v 7.76824780e+03 4.99357224e+03 1.82155001e+00
v 7.76800728e+03 4.99147447e+03 1.79646758e+00
v 7.77255122e+03 4.99155455e+03 1.61485555e+00
v 7.77004318e+03 4.98973030e+03 1.72678620e+00
v 7.77672971e+03 4.97378320e+03 4.24826609e-01
v 7.77635873e+03 4.97406604e+03 4.77103151e-01
v 7.77718264e+03 4.97440188e+03 -1.36086966e-01
v 7.77526712e+03 4.97321413e+03 6.09179104e-01
v 7.77608361e+03 4.97301189e+03 5.64923769e-01
v 7.77556553e+03 4.97363038e+03 1.18836383e+00
v 7.77566442e+03 4.97672168e+03 1.81641507e+00
v 7.77559451e+03 4.97541625e+03 1.97377678e+00
v 7.77731316e+03 4.98581090e+03 6.34667097e-01
v 7.77748824e+03 4.98651195e+03 4.01337611e-01
v 7.77710678e+03 4.98643940e+03 1.32381057e+00
v 7.77768916e+03 4.98105243e+03 1.11374510e+00
v 7.77747582e+03 4.98011527e+03 9.98140929e-01
v 7.77667774e+03 4.98104422e+03 9.94151896e-01
v 7.77753432e+03 4.98182025e+03 9.75042937e-01
v 7.77579138e+03 4.97734957e+03 2.13405068e+00
v 7.77556493e+03 4.97812947e+03 6.84815797e-01
v 7.77553466e+03 4.97851149e+03 8.40152618e-01
v 7.77546118e+03 4.97710684e+03 1.20074205e+00
v 7.77533743e+03 4.97798268e+03 4.75962801e-01
v 7.77460919e+03 4.97563859e+03 7.07187341e-01
v 7.77453634e+03 4.97577585e+03 1.35684551e+00
v 7.77491808e+03 4.97665276e+03 4.87571528e-01
v 7.77524467e+03 4.97672044e+03 3.14317648e-01
v 7.77490177e+03 4.97583987e+03 2.56023176e-01
v 7.75894234e+03 4.98238908e+03 1.68479853e+00
v 7.75528182e+03 4.98377652e+03 1.70615476e+00
v 7.77816236e+03 4.97759301e+03 3.96226081e+00
v 7.77870397e+03 4.97696191e+03 3.82885357e+00
v 7.78094304e+03 4.98137521e+03 1.68211326e+00
v 7.78024679e+03 4.98138724e+03 1.46516151e+00
v 7.78021696e+03 4.98191490e+03 1.50966867e+00
v 7.77898294e+03 4.98569565e+03 1.36989234e+00
v 7.77866926e+03 4.98617397e+03 1.44370691e+00
v 7.77805471e+03 4.98794032e+03 1.05517879e+00
v 7.77845834e+03 4.98715051e+03 1.20992438e+00
v 7.77952232e+03 4.99676038e+03 1.99972257e+00
v 7.77941305e+03 4.99600202e+03 1.48482294e+00
v 7.77891254e+03 4.97397459e+03 1.94001849e+00
v 7.77899680e+03 4.97440013e+03 2.07658301e+00
v 7.77952766e+03 4.97516327e+03 1.94969324e+00
v 7.77915118e+03 4.98010154e+03 1.75094927e+00
v 7.77924666e+03 4.98135775e+03 2.90404822e+00
v 7.77949049e+03 4.98214530e+03 3.06809300e+00
v 7.78026346e+03 4.98893433e+03 1.36475615e+00
v 7.77949139e+03 4.98774502e+03 1.77671372e+00
v 7.77762010e+03 4.97285817e+03 1.28187319e+00
v 7.77824200e+03 4.97295102e+03 1.02211911e+00
v 7.77728205e+03 4.98554183e+03 9.87814949e-01
v 7.77707384e+03 4.98382591e+03 1.14620448e+00
v 7.77767922e+03 4.98448410e+03 1.64084064e+00
v 7.77629534e+03 4.97410673e+03 2.70482337e+00
v 7.77595293e+03 4.97412720e+03 3.31096872e+00
v 7.77623406e+03 4.97448767e+03 2.14254187e+00
v 7.77232169e+03 4.97719516e+03 1.52326663e+00
v 7.76790371e+03 4.97611874e+03 1.82054957e+00
v 7.77615832e+03 4.97694220e+03 2.80298794e+00
v 7.77613056e+03 4.97628418e+03 2.12395018e+00
v 7.77605526e+03 4.97749977e+03 2.26919210e+00
v 7.77580559e+03 4.97869985e+03 1.37038469e+00
v 7.76376648e+03 4.97706377e+03 1.92302445e+00
v 7.76388502e+03 4.98027940e+03 1.82478694e+00
v 7.76701108e+03 4.98213925e+03 1.78377096e+00
v 7.77664611e+03 4.97759794e+03 2.70277791e+00
v 7.77599058e+03 4.97750570e+03 3.44183608e+00
v 7.77591121e+03 4.97638537e+03 3.33895110e+00
v 7.77281269e+03 4.97909024e+03 1.52857168e+00
v 7.77375498e+03 4.97769318e+03 1.74217895e+00
v 7.77094484e+03 4.98123583e+03 1.74854461e+00
v 7.77660602e+03 4.97784582e+03 1.66766581e+00
v 7.76903469e+03 4.98116529e+03 1.69994699e+00
v 7.77610122e+03 4.97831087e+03 1.45853069e+00
v 7.77677051e+03 4.97834319e+03 1.30599144e+00
v 7.76137860e+03 4.98388313e+03 1.63607326e+00
v 7.76311347e+03 4.98056942e+03 1.66795641e+00
v 7.76121526e+03 4.98546553e+03 1.73052263e+00
v 7.76284854e+03 4.98605179e+03 1.64537111e+00
v 7.76583406e+03 4.98680403e+03 1.74616750e+00
v 7.76790630e+03 4.98844643e+03 1.75173622e+00
v 7.77506615e+03 4.98759849e+03 1.51521075e+00
v 7.77224287e+03 4.98757023e+03 1.88020806e+00
v 7.77694727e+03 4.98577330e+03 1.35557918e+00
v 7.77658337e+03 4.98593135e+03 1.57842839e+00
v 7.77347628e+03 4.98573932e+03 1.61735347e+00
v 7.76299402e+03 4.98791129e+03 1.77656555e+00
v 7.76977001e+03 4.98744082e+03 1.67596354e+00
v 7.77715884e+03 4.98440192e+03 1.03182287e+00
v 7.75774680e+03 4.97821261e+03 1.78376487e+00
v 7.75896703e+03 4.97607538e+03 1.84570749e+00
v 7.76255191e+03 4.96985240e+03 1.65945988e+00
v 7.75309621e+03 4.97948962e+03 1.70213630e+00
v 7.75454038e+03 4.98801158e+03 1.71932365e+00
v 7.75832823e+03 4.99077944e+03 1.63572469e+00
v 7.75678786e+03 4.98819690e+03 1.52946583e+00
v 7.75714694e+03 4.98752260e+03 1.67132501e+00
v 7.77593391e+03 4.97485160e+03 -2.34944664e-01
v 7.77425420e+03 4.97669919e+03 1.54206185e+00
v 7.77490232e+03 4.97706661e+03 1.30928856e+00
v 7.77489218e+03 4.97515219e+03 3.67639405e-01
v 7.77532271e+03 4.97629750e+03 8.76079803e-01
v 7.77734404e+03 4.98782960e+03 -1.81331673e-01
v 7.77811681e+03 4.98809862e+03 1.14040002e-01
v 7.77748342e+03 4.98794784e+03 -1.41030076e-01
v 7.77718210e+03 4.97963046e+03 6.58428422e-01
v 7.77739788e+03 4.97959122e+03 1.00829102e+00
v 7.77627222e+03 4.98383529e+03 1.46028095e+00
v 7.77697381e+03 4.98509850e+03 1.15726037e+00
v 7.77507864e+03 4.97724659e+03 9.23984436e-01
v 7.77518591e+03 4.97695258e+03 6.71696579e-01
v 7.77555739e+03 4.97464038e+03 1.85919430e+00
v 7.77410349e+03 4.97373054e+03 1.35841711e+00
v 7.77402821e+03 4.97287168e+03 4.21553901e-01
v 7.76443147e+03 4.98433891e+03 1.60941694e+00
v 7.75306286e+03 4.98844190e+03 1.56227199e+00
v 7.77489359e+03 4.97779141e+03 1.52026687e+00
v 7.77516280e+03 4.97847160e+03 1.50500688e+00
v 7.75429235e+03 4.97552947e+03 1.77439345e+00
v 7.75000000e+03 4.96889077e+03 1.80409523e+00
v 7.77563054e+03 4.97377235e+03 1.87128797e+00
v 7.77638195e+03 4.97399169e+03 2.26945511e+00
v 7.76442478e+03 4.99133936e+03 1.71925362e+00
v 7.76505069e+03 4.99317920e+03 1.64285813e+00
v 7.77156129e+03 4.99527898e+03 1.64571438e+00
v 7.77096870e+03 4.99270870e+03 1.66031635e+00
v 7.77651111e+03 5.00000000e+03 1.70578484e+00
v 7.77735645e+03 4.99682974e+03 1.48684719e+00
v 7.77429936e+03 4.99284654e+03 1.66874435e+00
v 7.77095165e+03 4.99172549e+03 1.85268102e+00
v 7.76641377e+03 4.99239802e+03 1.49720905e+00
v 7.76935291e+03 4.99194058e+03 1.66413165e+00
v 7.76611716e+03 4.99046822e+03 1.64069745e+00
v 7.76551158e+03 4.98902422e+03 1.60922174e+00
v 7.76417251e+03 4.98762198e+03 1.58514887e+00
v 7.76438259e+03 4.98935439e+03 1.56598069e+00
v 7.76755176e+03 4.99643340e+03 1.48730476e+00
v 7.76702635e+03 4.99390572e+03 1.51508698e+00
v 7.76831943e+03 4.99465169e+03 1.63749792e+00
v 7.76495391e+03 4.99542229e+03 1.48361924e+00
v 7.76290750e+03 4.99111041e+03 1.53989787e+00
v 7.76167925e+03 4.99579267e+03 1.46037665e+00
v 7.75959638e+03 4.99727984e+03 1.47007969e+00
v 7.76070098e+03 4.99364724e+03 1.68694096e+00
v 7.75936679e+03 4.99260565e+03 1.61908981e+00
v 7.76072380e+03 4.99562506e+03 1.54913678e+00
v 7.76072993e+03 4.99048124e+03 1.61431301e+00
v 7.76102720e+03 4.99172357e+03 1.69817706e+00
v 7.75806416e+03 4.99423227e+03 1.50817043e+00
v 7.76035794e+03 4.97425597e+03 1.94417779e+00
v 7.77649147e+03 4.97433456e+03 4.20137844e-01
v 7.77588958e+03 4.98091507e+03 1.41246680e+00
v 7.77762702e+03 4.98913857e+03 1.48639290e+00
v 7.77454352e+03 4.98572898e+03 1.50239613e+00
v 7.77739423e+03 4.98798605e+03 1.49833348e+00
v 7.77625441e+03 4.98045034e+03 1.46429583e+00
v 7.77619638e+03 4.97605782e+03 2.75611498e+00
v 7.75783600e+03 4.97510146e+03 1.96607448e+00
v 7.75598203e+03 4.99185503e+03 1.43959204e+00
v 7.75974786e+03 4.98998460e+03 1.74433936e+00
v 7.75703689e+03 5.00000000e+03 1.37052511e+00
v 7.76294706e+03 4.99422967e+03 1.60709814e+00
v 7.75000000e+03 4.99561945e+03 1.33410777e+00
v 7.75000000e+03 4.99700709e+03 1.27733942e+00
v 7.75893700e+03 5.00000000e+03 1.39093100e+00
v 7.76009794e+03 5.00000000e+03 1.51770462e+00
v 7.75951242e+03 4.99561109e+03 1.66969376e+00
v 7.75933871e+03 4.99117810e+03 1.52880304e+00
v 7.76003960e+03 4.99201680e+03 1.82521299e+00
v 7.77626922e+03 4.99264855e+03 1.50341209e+00
v 7.77536750e+03 4.97853378e+03 1.23857728e+00
v 7.75671776e+03 4.98673905e+03 1.56486041e+00
v 7.77315370e+03 4.98878467e+03 1.66524276e+00
v 7.77789101e+03 4.99098972e+03 1.47056046e+00
v 7.77437284e+03 4.97206798e+03 4.67318665e-01
v 7.77422938e+03 4.97269159e+03 3.14100633e-01
v 7.75878754e+03 4.97158432e+03 2.40130372e+00
v 7.77712026e+03 4.97775495e+03 3.41894489e+00
v 7.77601356e+03 4.97453839e+03 3.58053769e+00
v 7.77456344e+03 4.97375849e+03 3.13575033e-01
v 7.77492215e+03 4.97374044e+03 8.53299367e-01
v 7.77897318e+03 4.99397816e+03 1.42984047e+00
v 7.77750862e+03 4.97535512e+03 4.12444231e+00
v 7.77693124e+03 4.97619946e+03 3.70218811e+00
v 7.77779650e+03 4.97639243e+03 4.31188718e+00
v 7.77649112e+03 4.97373421e+03 3.54582702e+00
v 7.77685018e+03 4.97360256e+03 2.75478032e+00
v 7.77823785e+03 4.97749081e+03 3.00975246e+00
v 7.75118275e+03 4.97084200e+03 1.67808058e+00
v 7.75768089e+03 4.97111323e+03 1.86329270e+00
v 7.77748975e+03 4.98510336e+03 1.15959893e+00
v 7.77783300e+03 4.98707004e+03 1.19337061e+00
v 7.77749146e+03 4.98681093e+03 9.64135204e-01
v 7.77748007e+03 4.98373586e+03 1.41708008e+00
v 7.77797785e+03 4.98423157e+03 1.33572698e+00
v 7.77726821e+03 4.98708411e+03 1.38853398e+00
v 7.77753341e+03 4.97326977e+03 2.19265376e+00
v 7.77748010e+03 4.97368900e+03 2.65605122e+00
v 7.77781802e+03 4.97845880e+03 1.45072407e+00
v 7.77757435e+03 4.97911937e+03 1.28452410e+00
v 7.77804223e+03 4.97281703e+03 1.79157434e+00
v 7.77636445e+03 4.97824491e+03 -1.47324723e-01
v 7.77881175e+03 4.97732371e+03 -2.51041681e-01
v 7.77685335e+03 4.98036323e+03 -7.54019264e-02
v 7.77663127e+03 4.98304634e+03 1.36916011e+00
v 7.77771776e+03 4.97383883e+03 2.20641241e+00
v 7.77780214e+03 4.97360008e+03 6.47491488e-01
v 7.77731984e+03 4.97354543e+03 -2.03390714e-01
v 7.77802111e+03 4.97305417e+03 4.21490984e-01
v 7.77782927e+03 4.97423456e+03 -1.49914811e-01
v 7.77534589e+03 4.97309906e+03 9.46739089e-01
v 7.77810824e+03 4.98782454e+03 -9.53976185e-02
v 7.77828312e+03 4.98373851e+03 1.05921657e+00
v 7.77735908e+03 4.98273321e+03 1.07133519e+00
v 7.77776737e+03 4.97873630e+03 2.29575048e-01
v 7.77746130e+03 4.97959769e+03 4.54590053e-01
v 7.77702885e+03 4.97998368e+03 1.00051835e+00
v 7.77684872e+03 4.97936909e+03 1.15361046e+00
v 7.77778237e+03 4.98603139e+03 1.03880184e+00
v 7.77545832e+03 4.97934433e+03 1.49248240e+00
v 7.77712549e+03 4.98487998e+03 8.97748267e-01
v 7.77795910e+03 4.97996358e+03 1.48477900e+00
v 7.77077655e+03 4.98897883e+03 1.89376734e+00
v 7.77792680e+03 4.98661711e+03 1.01979929e+00
v 7.77442193e+03 4.97460653e+03 3.42605610e-01
v 7.77728646e+03 4.97798985e+03 1.25439060e+00
v 7.77805458e+03 4.98290613e+03 1.05276694e+00
v 7.77524988e+03 4.97251157e+03 4.58109101e-01
v 7.75957868e+03 4.97284552e+03 1.85844157e+00
v 7.75246536e+03 4.98610811e+03 1.81706142e+00
v 7.77365404e+03 4.97205887e+03 1.45573063e+00
v 7.77880907e+03 4.97211954e+03 -2.59898502e-01
v 7.77507374e+03 4.97171645e+03 -5.93938964e-03
v 7.76933214e+03 4.97529980e+03 1.61503132e+00
v 7.77544179e+03 4.97470950e+03 1.18474266e+00
v 7.77561812e+03 4.97428632e+03 1.12734061e-01
v 7.75249175e+03 4.97364402e+03 1.90235850e+00
v 7.76138334e+03 4.96961249e+03 1.62102470e+00
v 7.76046328e+03 4.97180362e+03 1.89698054e+00
v 7.77532847e+03 4.97393149e+03 1.17550625e+00
v 7.75907178e+03 4.97057993e+03 1.89317711e+00
v 7.75468922e+03 4.97126068e+03 1.89862417e+00
v 7.77376022e+03 4.97152451e+03 8.49345469e-01
v 7.77335221e+03 4.97061636e+03 1.44950607e+00
v 7.77357569e+03 4.97337202e+03 1.50241981e+00
v 7.75546325e+03 4.97329598e+03 2.04561572e+00
v 7.77777740e+03 4.98486503e+03 1.58829629e+00
v 7.76453308e+03 4.97081116e+03 1.62046569e+00
v 7.77669023e+03 4.97428525e+03 3.73620459e+00
v 7.77713367e+03 4.97362836e+03 3.58446346e+00
v 7.77789693e+03 4.97765624e+03 2.15197662e+00
v 7.77714179e+03 4.97454110e+03 4.14976427e+00
v 7.77666361e+03 4.97490921e+03 3.78271683e+00
v 7.77272073e+03 4.97175138e+03 1.52058222e+00
v 7.75209174e+03 4.97201846e+03 1.74896001e+00
v 7.77811833e+03 4.97725632e+03 4.38242173e+00
v 7.77866063e+03 4.97993583e+03 2.76379395e+00
v 7.77895493e+03 4.98000851e+03 1.76728031e+00
v 7.78102713e+03 4.98946317e+03 1.27222123e+00
v 7.78006389e+03 4.98927949e+03 1.12450433e+00
v 7.77882064e+03 4.98837045e+03 5.47824938e-02
v 7.77849886e+03 4.98841768e+03 2.48485755e-01
v 7.77926890e+03 4.99121374e+03 7.81055210e-02
v 7.77900650e+03 4.98964183e+03 1.03504754e-01
v 7.77865463e+03 4.99022256e+03 4.49719525e-01
v 7.78024625e+03 4.99185198e+03 1.77971297e-01
v 7.78048062e+03 4.99105315e+03 -8.70695294e-02
v 7.78076302e+03 4.99594417e+03 -2.57411177e-01
v 7.77787650e+03 4.98839491e+03 4.81756379e-01
v 7.77786858e+03 4.98826690e+03 7.19128244e-01
v 7.77897868e+03 4.97965710e+03 2.68717764e+00
v 7.78075670e+03 4.98383685e+03 2.07791414e+00
v 7.77984062e+03 4.98349740e+03 1.66377818e+00
v 7.78023485e+03 4.98438914e+03 1.62926477e+00
v 7.78032523e+03 4.97971434e+03 1.06371483e+00
v 7.77953756e+03 4.98006843e+03 1.37931347e+00
v 7.77964875e+03 4.97781247e+03 9.66856649e-01
v 7.78031548e+03 4.97897453e+03 1.00622384e+00
v 7.77857105e+03 4.97432455e+03 3.40868289e+00
v 7.77957256e+03 4.97631052e+03 2.33729261e+00
v 7.78014935e+03 4.98400997e+03 3.18275372e+00
v 7.77951187e+03 4.98961321e+03 -1.04196357e-01
v 7.77788036e+03 4.98923625e+03 1.25739292e+00
v 7.77805333e+03 4.98956967e+03 3.24419872e-01
v 7.78009882e+03 4.98294869e+03 1.46731259e+00
v 7.77866326e+03 4.98846460e+03 9.23181286e-01
v 7.77890161e+03 4.98822616e+03 1.27990413e+00
v 7.77952102e+03 4.97542213e+03 5.02537585e-01
v 7.78114634e+03 4.99163266e+03 -1.52623818e-02
v 7.77959977e+03 5.00000000e+03 1.46713918e+00
v 7.77928903e+03 4.99412549e+03 5.45418065e-01
v 7.78004129e+03 4.99749004e+03 3.17784065e-01
v 7.77893919e+03 4.98768284e+03 1.45509059e+00
v 7.78059801e+03 4.99976801e+03 3.39551450e-01
v 7.77822049e+03 4.97412017e+03 1.94989055e+00
v 7.77816154e+03 4.97402635e+03 2.61566880e+00
v 7.77931965e+03 4.98823357e+03 8.31617656e-01
v 7.77857305e+03 4.98773313e+03 2.31673532e-01
v 7.77964518e+03 4.98160466e+03 2.83074499e+00
v 7.77938345e+03 4.98056937e+03 2.68163085e+00
v 7.77944563e+03 4.98102075e+03 3.15036866e+00
v 7.78067481e+03 4.98503750e+03 2.61873071e+00
v 7.78040897e+03 4.98379388e+03 3.21054284e+00
v 7.78067953e+03 4.98387986e+03 2.88928947e+00
v 7.78026817e+03 4.98325664e+03 3.03942370e+00
v 7.78129827e+03 4.98726519e+03 2.24266501e+00
v 7.78085611e+03 4.98956059e+03 2.04887290e+00
v 7.78031160e+03 4.99897229e+03 6.21425093e-01
v 7.77992849e+03 4.99711286e+03 1.28891314e+00
v 7.78105031e+03 4.98452310e+03 3.24988379e+00
v 7.78094729e+03 4.98503347e+03 3.81195565e+00
v 7.77889289e+03 4.99221556e+03 2.16771320e-01
v 7.78046655e+03 4.99283385e+03 9.29026674e-01
v 7.78023093e+03 4.99352088e+03 5.91654726e-01
v 7.77999262e+03 4.99311809e+03 5.71488937e-01
v 7.78082234e+03 4.98484481e+03 2.12761273e+00
v 7.77982559e+03 4.98807795e+03 7.60455450e-01
v 7.77816823e+03 4.98722834e+03 -1.36993291e-01
v 7.78132460e+03 4.99146368e+03 1.76148291e+00
v 7.77944621e+03 4.98091210e+03 2.26046650e+00
v 7.77973905e+03 4.98147138e+03 1.95571393e+00
v 7.78013253e+03 4.98273601e+03 2.63183737e+00
v 7.78087246e+03 4.98418618e+03 3.27093968e+00
v 7.78071995e+03 4.98456467e+03 4.05713875e+00
v 7.78042361e+03 4.98480768e+03 3.90240574e+00
v 7.78073469e+03 4.99872616e+03 -2.65493397e-02
v 7.77999439e+03 4.97557906e+03 5.58132976e-01
v 7.77976952e+03 4.99334082e+03 7.85563972e-01
v 7.78024835e+03 4.99625981e+03 -6.24704151e-02
v 7.77960243e+03 4.99508863e+03 2.54176403e-01
v 7.77841926e+03 4.99148682e+03 1.28617930e+00
v 7.77887256e+03 4.97705442e+03 6.54353822e-02
v 7.77984069e+03 4.99377377e+03 9.41233969e-01
v 7.78018847e+03 4.99356762e+03 9.30366255e-01
v 7.77997997e+03 4.99422744e+03 5.74987119e-01
v 7.78072712e+03 4.98938926e+03 1.64914549e+00
v 7.77906770e+03 4.98008777e+03 2.86036656e+00
v 7.77934566e+03 4.97495677e+03 5.42046789e-01
v 7.78039771e+03 4.99915661e+03 1.25284934e+00
v 7.78034028e+03 5.00000000e+03 1.45459487e+00
v 7.78089686e+03 4.99284308e+03 1.12437841e+00
v 7.77922949e+03 4.98812861e+03 1.29037621e+00
v 7.77967696e+03 4.98203088e+03 2.21245028e+00
v 7.77954793e+03 4.98198606e+03 1.84241047e+00
v 7.78065250e+03 4.98397953e+03 2.47617074e+00
v 7.77983904e+03 4.98284195e+03 3.00530960e+00
v 7.77938923e+03 4.98103154e+03 2.46605769e+00
v 7.78062373e+03 4.98722459e+03 1.75448664e+00
v 7.77956561e+03 4.99754655e+03 1.45636071e+00
v 7.77820619e+03 4.98858403e+03 4.99984493e-01
v 7.78032869e+03 4.98650293e+03 1.36486926e+00
v 7.77929705e+03 4.98034901e+03 2.03096147e+00
v 7.77954115e+03 4.98105257e+03 1.80396200e+00
v 7.78067444e+03 4.99277276e+03 1.28815701e+00
v 7.77883960e+03 4.98536786e+03 1.47682880e+00
v 7.77805417e+03 4.98510801e+03 1.66776857e+00
v 7.78062350e+03 4.97656332e+03 1.94468370e+00
v 7.78011656e+03 4.97579931e+03 1.80378570e+00
v 7.77854292e+03 4.97345602e+03 5.33790517e-01
v 7.77814103e+03 4.97350665e+03 4.97496766e-01
v 7.78075221e+03 4.98507118e+03 2.22805248e+00
v 7.78033299e+03 4.98321832e+03 1.95115058e+00
v 7.78021799e+03 4.98062858e+03 1.48544580e+00
v 7.78068135e+03 4.98047927e+03 1.56720137e+00
v 7.77911033e+03 4.98882404e+03 9.86428744e-01
v 7.77877371e+03 4.98861635e+03 7.34102503e-01
v 7.77961906e+03 4.98094171e+03 1.87457997e+00
v 7.77908928e+03 4.98020343e+03 2.09910717e+00
v 7.77850817e+03 4.99160233e+03 4.69653549e-01
v 7.78108235e+03 4.97759687e+03 1.29799577e+00
v 7.78128862e+03 4.98021818e+03 1.12147787e+00
v 7.78010765e+03 4.97584498e+03 2.27571684e-01
v 7.77971543e+03 4.98230199e+03 2.10963348e+00
v 7.77817100e+03 4.98165812e+03 1.73899365e+00
v 7.77909507e+03 4.98412225e+03 1.66172467e+00
v 7.77845897e+03 4.98922953e+03 7.01015333e-01
v 7.77871454e+03 4.98877058e+03 6.60967372e-01
v 7.78059763e+03 4.98802451e+03 -1.76317430e-01
v 7.77856720e+03 4.98990298e+03 6.81026769e-01
v 7.77856606e+03 4.99092480e+03 2.77492092e-01
v 7.78006833e+03 4.98743895e+03 -8.44197229e-02
v 7.77906071e+03 4.98901735e+03 7.72047029e-01
v 7.78135611e+03 4.98230582e+03 1.09706226e+00
v 7.78117804e+03 4.98937183e+03 3.27523303e-01
v 7.78046593e+03 4.98935477e+03 9.56960131e-02
v 7.78088940e+03 4.99255099e+03 -1.34375994e-01
v 7.77919135e+03 4.99393419e+03 2.46735832e-01
v 7.77939837e+03 4.99428374e+03 3.28738409e-01
v 7.77955543e+03 4.99354399e+03 3.14778025e-01
v 7.77873979e+03 4.98923099e+03 4.67813061e-01
v 7.77985823e+03 4.99276089e+03 3.60263899e-01
v 7.77939264e+03 4.99452441e+03 2.66522460e-01
v 7.77786630e+03 4.98798322e+03 -5.41895548e-03
v 7.78066894e+03 4.98286691e+03 1.31541676e+00
v 7.77886064e+03 4.98667567e+03 1.57688694e+00
v 7.78076909e+03 4.98324236e+03 1.61990149e+00
v 7.77940377e+03 4.98144149e+03 1.62251922e+00
v 7.78055132e+03 4.98510464e+03 1.87003536e+00
v 7.78069183e+03 4.98236796e+03 1.17875034e+00
v 7.78125315e+03 4.98831802e+03 1.76213385e+00
v 7.77943247e+03 4.97698888e+03 3.46441994e+00
v 7.77938809e+03 4.99448447e+03 3.99677508e-01
v 7.78114024e+03 4.99489690e+03 -1.21106024e-01
v 7.77887060e+03 4.99694219e+03 1.70712568e+00
v 7.77875017e+03 4.99252763e+03 3.63158841e-01
v 7.77809929e+03 4.98065663e+03 1.22785416e+00
v 7.77973466e+03 4.97490711e+03 1.21282965e+00
v 7.78033597e+03 4.97587461e+03 7.68131876e-01
v 7.77982696e+03 4.97532134e+03 6.46331265e-01
v 7.78076648e+03 4.97673038e+03 1.59897683e-01
v 7.77863949e+03 4.97467889e+03 2.00933810e+00
v 7.77881498e+03 4.98017102e+03 3.07605302e+00
v 7.78006985e+03 4.97487325e+03 5.15015382e-02
v 7.78114385e+03 4.97733791e+03 8.08821004e-01
v 7.77833094e+03 4.97784575e+03 2.11994081e+00
v 7.77856637e+03 4.97727850e+03 2.43290943e+00
v 7.77908220e+03 4.98048812e+03 1.65466466e+00
v 7.77845324e+03 4.98104337e+03 1.56319575e+00
v 7.78040690e+03 4.97764339e+03 9.57268072e-01
v 7.77978226e+03 4.97665041e+03 1.57767725e+00
v 7.77813963e+03 4.97325183e+03 2.12636462e+00
v 7.77793875e+03 4.97397412e+03 1.85399635e+00
v 7.77867988e+03 4.97331530e+03 1.07791745e+00
v 7.77935361e+03 4.97431149e+03 8.62505528e-01
v 7.77876222e+03 4.97359149e+03 7.42634741e-01
v 7.77874119e+03 4.97542051e+03 -4.82422569e-02
v 7.77870305e+03 4.97416901e+03 5.42113264e-01
v 7.78132998e+03 4.97787003e+03 2.15398434e-01
v 7.78029020e+03 4.97623623e+03 3.41991948e-01
v 7.78136378e+03 4.97846966e+03 1.15383400e+00
v 7.77937415e+03 4.97684201e+03 2.29939486e+00
v 7.77839595e+03 4.98218782e+03 1.75152009e+00
v 7.78058108e+03 4.97614137e+03 2.13364447e-02
v 7.77961554e+03 4.98297370e+03 1.39386244e+00
v 7.77943019e+03 4.97606284e+03 1.97416791e+00
v 7.77956366e+03 4.97671771e+03 3.60503593e+00
v 7.77963865e+03 4.97590050e+03 3.47634127e+00
v 7.78092517e+03 4.98563706e+03 1.39711261e+00
v 7.78007267e+03 4.98508731e+03 1.65967884e+00
v 7.77968165e+03 4.97647125e+03 2.97141716e+00
v 7.77852311e+03 4.97731959e+03 3.73546768e+00
v 7.78002315e+03 4.97635770e+03 2.03452712e+00
v 7.77964937e+03 4.99617011e+03 4.31521584e-01
v 7.77836551e+03 4.97849615e+03 1.99185923e+00
v 7.77974241e+03 4.97496938e+03 4.30209987e-01
v 7.77930355e+03 4.97543092e+03 1.98712981e+00
v 7.78123399e+03 4.98389224e+03 1.67802384e+00
v 7.78076011e+03 4.98377905e+03 1.85710880e+00
v 7.77912473e+03 4.97526467e+03 3.38774993e+00
v 7.77907925e+03 4.98093118e+03 3.16766613e+00
v 7.77925843e+03 4.98077096e+03 3.20836290e+00
v 7.78124710e+03 4.98676582e+03 2.19225774e+00
v 7.77976045e+03 4.98266910e+03 1.75578669e+00
v 7.77967647e+03 4.97846296e+03 1.39542999e+00
v 7.78131925e+03 4.99156247e+03 1.41267270e+00
v 7.78137500e+03 4.98618939e+03 1.50390863e+00
v 7.78137500e+03 4.98609850e+03 1.46291608e+00
v 7.78137500e+03 4.98062710e+03 1.14136064e+00
v 7.78137500e+03 4.98149203e+03 1.33960581e+00
v 7.78137500e+03 4.99141895e+03 1.54429818e+00
v 7.78137500e+03 4.99134818e+03 1.82411574e+00
v 7.78137500e+03 4.98464255e+03 1.60038369e+00
v 7.78137500e+03 4.98462941e+03 1.59640245e+00
v 7.78137500e+03 4.98536261e+03 1.38196513e+00
v 7.78137500e+03 4.98390804e+03 1.70579398e+00
v 7.78137500e+03 4.98374173e+03 1.66882999e+00
v 7.78137500e+03 4.99152261e+03 1.40757846e+00
v 7.78137500e+03 4.97338339e+03 -2.68815709e-01
v 7.78137500e+03 4.97316698e+03 -2.61931699e-01
v 7.78137500e+03 4.98675211e+03 2.13160626e+00
v 7.78137500e+03 4.98681536e+03 2.20888110e+00
v 7.78137500e+03 4.99150915e+03 1.78140918e+00
v 7.78137500e+03 4.99143211e+03 1.83155912e+00
v 7.78137500e+03 4.98230793e+03 1.09948574e+00
v 7.78137500e+03 4.98231808e+03 1.10249829e+00
v 7.78137500e+03 4.98730397e+03 2.21209867e+00
v 7.78137500e+03 4.98822453e+03 1.78546328e+00
v 7.78137500e+03 4.99379567e+03 6.81316140e-02
v 7.78137500e+03 4.99435964e+03 -8.23949613e-02
v 7.78137500e+03 4.99169431e+03 1.73932084e+00
v 7.78137500e+03 4.98719118e+03 2.24317284e+00
v 7.78137500e+03 4.97794427e+03 2.75433527e-01
v 7.78137500e+03 4.97792829e+03 1.83705118e-01
v 7.78137500e+03 4.98333325e+03 1.63731214e+00
v 7.78137500e+03 4.98236325e+03 1.12636792e+00
v 7.78137500e+03 4.97774174e+03 6.49465345e-03
v 7.78137500e+03 4.97780594e+03 4.88485713e-02
v 7.78137500e+03 4.99174587e+03 1.21805296e+00
v 7.78137500e+03 4.98543195e+03 1.32300591e+00
v 7.78137500e+03 4.98562057e+03 1.35939173e+00
v 7.78137500e+03 4.98027223e+03 1.12989636e+00
v 7.78137500e+03 4.98013936e+03 1.12390088e+00
v 7.78137500e+03 4.98980945e+03 2.23152706e+00
v 7.78137500e+03 4.98951659e+03 2.07503378e+00
v 7.78137500e+03 4.98460199e+03 1.59750677e+00
v 7.78137500e+03 4.97849222e+03 1.15355822e+00
v 7.78137500e+03 4.97939924e+03 1.09336095e+00
v 7.78137500e+03 4.97770055e+03 -2.22845100e-02
v 7.78137500e+03 4.97652147e+03 -2.57445489e-01
v 7.78137500e+03 4.98172640e+03 1.18436923e+00
v 7.78137500e+03 4.97779999e+03 8.14691311e-01
v 7.78137500e+03 4.98840509e+03 1.81312895e+00
v 7.78137500e+03 4.98867853e+03 1.86237827e+00
v 7.78137500e+03 4.99488389e+03 -1.30159476e-01
v 7.78137500e+03 4.99528114e+03 -1.00366749e-01
v 7.78137500e+03 4.99206686e+03 -1.82662702e-01
v 7.78137500e+03 4.99157516e+03 -7.52399328e-02
v 7.78137500e+03 4.98680001e+03 -1.71643215e-01
v 7.78137500e+03 4.98713041e+03 -1.93776591e-01
v 7.78137500e+03 4.98814355e+03 -1.63365034e-01
v 7.78137500e+03 4.99125812e+03 -1.79836706e-01
v 7.78137500e+03 4.99054540e+03 -1.03627923e-01
v 7.78137500e+03 4.98986094e+03 1.41251867e-01
v 7.78137500e+03 4.99624676e+03 -1.60099571e-01
v 7.78137500e+03 4.99367026e+03 8.96374777e-02
v 7.78137500e+03 4.99230464e+03 1.63116132e+00
v 7.78137500e+03 4.99262195e+03 1.41046612e+00
v 7.78137500e+03 4.98954235e+03 3.05937918e-01
v 7.78137500e+03 4.99327979e+03 -7.20052249e-02
v 7.78137500e+03 4.99262872e+03 1.27672024e+00
v 7.78137500e+03 4.99268972e+03 1.29429802e+00
v 7.78137500e+03 4.98719396e+03 2.57923941e-01
v 7.78137500e+03 4.98719036e+03 2.60751963e-01
v 7.78137500e+03 4.98539189e+03 1.34644726e+00
v 7.78137500e+03 4.98223819e+03 1.10495832e+00
v 7.78137500e+03 4.98828905e+03 9.40614339e-01
v 7.78137500e+03 4.98803948e+03 8.68812469e-01
v 7.78137500e+03 4.97802334e+03 1.10168280e+00
v 7.78137500e+03 4.98909825e+03 2.11530461e-01
v 7.78137500e+03 4.98869063e+03 -5.22808888e-02
v 7.78137500e+03 4.98931173e+03 2.94838725e-01
v 7.78137500e+03 4.98538423e+03 1.38239598e+00
v 7.78137500e+03 4.98720171e+03 2.69785819e-01
v 7.78137500e+03 4.99033218e+03 2.29626313e+00
v 7.78137500e+03 4.97847375e+03 1.14512324e+00
v 7.78137500e+03 4.99037984e+03 2.10699601e+00
v 7.78137500e+03 4.99973554e+03 -1.69756182e-03
v 7.78137500e+03 5.00000000e+03 -4.03268795e-03
v 7.78137500e+03 4.98942351e+03 1.25523160e+00
v 7.78137500e+03 4.98947580e+03 1.28993323e+00
v 7.78137500e+03 4.98982741e+03 1.31921943e+00
v 7.78137500e+03 4.99038884e+03 1.99966597e+00
v 7.78137500e+03 4.99022612e+03 1.77408705e+00
v 7.78137500e+03 4.97007394e+03 -2.60371385e-01
v 7.78137500e+03 5.00000000e+03 -1.04900344e-02
v 7.77051250e+03 4.96862500e+03 1.49358983e+00
v 7.77042817e+03 4.96862500e+03 1.48423149e+00
v 7.77277956e+03 4.96862500e+03 1.45421933e+00
v 7.77278397e+03 4.96862500e+03 1.38234394e+00
v 7.75296038e+03 4.96862500e+03 1.66578903e+00
v 7.75621406e+03 4.96862500e+03 1.66991685e+00
v 7.77363313e+03 4.96862500e+03 -2.20899198e-01
v 7.77381144e+03 4.96862500e+03 -2.51597629e-01
v 7.76696671e+03 4.96862500e+03 1.54448983e+00
v 7.76918037e+03 4.96862500e+03 1.50801022e+00
v 7.76431657e+03 4.96862500e+03 1.59004143e+00
v 7.77808356e+03 4.96862500e+03 -2.58523049e-01
v 7.77497452e+03 4.96862500e+03 -2.62727388e-01
v 7.77454112e+03 4.96862500e+03 -2.53584105e-01
v 7.77400477e+03 4.96862500e+03 -2.52484556e-01
v 7.75729407e+03 4.96862500e+03 1.66343668e+00
v 7.75839833e+03 4.96862500e+03 1.63508952e+00
v 7.75978641e+03 4.96862500e+03 1.55928701e+00
v 7.77122133e+03 4.96862500e+03 1.46328287e+00
v 7.75056459e+03 4.96862500e+03 1.75205122e+00
v 7.75000000e+03 4.96862500e+03 1.76131218e+00
v 7.76166211e+03 4.96862500e+03 1.57228569e+00
v 7.77294587e+03 4.96862500e+03 1.16564124e-01
v 7.76364556e+03 4.96862500e+03 1.60866002e+00
v 7.76228615e+03 4.96862500e+03 1.58570945e+00
v 7.77293271e+03 4.96862500e+03 1.29123551e-01
v 7.78095443e+03 4.96862500e+03 -2.59754322e-01
v 7.78137500e+03 4.96862500e+03 -2.59933220e-01
vt 0.017535739 0.95406193
vt 0.0017769552 0.97682923
vt 0.0017756636 0.97123629
vt 0.0017727916 0.95860034
vt 0.0017786437 0.98736024
vt 0.0017709231 0.95015413
vt 0.015757475 0.9968546
vt 0.0017708185 0.94950014
vt 0.037360579 0.99684221
vt 0.0017801459 0.99686325
vt 0.0017689888 0.93678176
vt 0.098663993 0.99679947
vt 0.0017671178 0.91445112
vt 0.0017605103 0.87623966
vt 0.08410389 0.77252674
vt 0.11278088 0.8379668
vt 0.0017397902 0.75338954
vt 0.064235978 0.66670048
vt 0.13389044 0.92187208
vt 0.0438965 0.6785661
vt 0.11640019 0.74288452
vt 0.12482467 0.99678212
vt 0.13272548 0.87591815
vt 0.0017192307 0.63083076
vt 0.051825102 0.60974735
vt 0.095181637 0.67178714
vt 0.13070743 0.79316211
vt 0.15390679 0.96910536
vt 0.14940478 0.87629426
vt 0.035657741 0.61430299
vt 0.13780046 0.65587276
vt 0.1303151 0.75385499
vt 0.16256084 0.88090289
vt 0.1408077 0.99676931
vt 0.021980479 0.59034336
vt 0.09420976 0.63164353
vt 0.13594136 0.72098279
vt 0.10012137 0.65321374
vt 0.14946572 0.7346521
vt 0.13996661 0.77693766
vt 0.19644384 0.99673468
vt 0.15094626 0.99675941
vt 0.14908086 0.82183033
vt 0.001710679 0.58798051
vt 0.0017045689 0.5441972
vt 0.074425288 0.5500772
vt 0.15356357 0.76885676
vt 0.16701642 0.99675339
vt 0.20764482 0.87067419
vt 0.18000819 0.83784962
vt 0.0017079045 0.57291675
vt 0.17889461 0.68721449
vt 0.17945011 0.75195909
vt 0.22225231 0.99671704
vt 0.0016826735 0.41268116
vt 0.12481758 0.51184034
vt 0.17861496 0.61266291
vt 0.20896611 0.80890441
vt 0.24341667 0.89849305
vt 0.04431472 0.43205225
vt 0.10833795 0.3968451
vt 0.15612468 0.59653258
vt 0.18062527 0.66386247
vt 0.20033978 0.75824642
vt 0.23617129 0.82889467
vt 0.25790298 0.99669486
vt 0.0016644846 0.3001585
vt 0.18223792 0.46169686
vt 0.15836717 0.5529598
vt 0.19685084 0.65588909
vt 0.19975108 0.70359147
vt 0.22773062 0.78738427
vt 0.25397691 0.8494221
vt 0.27651995 0.99667907
vt 0.060764931 0.3229931
vt 0.12512816 0.33798224
vt 0.20040151 0.56548321
vt 0.21529341 0.69448888
vt 0.22363725 0.73424494
vt 0.25298446 0.81969517
vt 0.29861367 0.86666602
vt 0.30116674 0.99666256
vt 0.035964824 0.27108848
vt 0.19285816 0.45370096
vt 0.21972233 0.63334787
vt 0.017931638 0.19394791
vt 0.076874062 0.26147574
vt 0.10955081 0.31117183
vt 0.14426948 0.28786826
vt 0.24966377 0.76193345
vt 0.29044336 0.79589558
vt 0.3146278 0.99665266
vt 0.03045137 0.22633368
vt 0.0016540142 0.24401802
vt 0.066209197 0.20544106
vt 0.11906331 0.24014735
vt 0.19121104 0.36515421
vt 0.23590651 0.50488675
vt 0.24826032 0.67855477
vt 0.26819354 0.7747587
vt 0.33630061 0.7996611
vt 0.34778902 0.93840355
vt 0.034052018 0.15742683
vt 0.0016474469 0.19861203
vt 0.13353485 0.24903858
vt 0.20291671 0.33219999
vt 0.27768701 0.71388888
vt 0.36342207 0.79419476
vt 0.3122268 0.76410127
vt 0.2902028 0.76881814
vt 0.32856196 0.99664384
vt 0.0016378512 0.1402269
vt 0.10739819 0.20135492
vt 0.13713636 0.23068082
vt 0.17042883 0.24720442
vt 0.2739161 0.65084898
vt 0.32050902 0.6878233
vt 0.37840983 0.90931922
vt 0.33737263 0.99663997
vt 0.0423963 0.1328848
vt 0.096967883 0.14810848
vt 0.12263274 0.21430665
vt 0.14570917 0.22033995
vt 0.26376402 0.47805125
vt 0.19403911 0.26905817
vt 0.28777939 0.69318646
vt 0.34683558 0.65514624
vt 0.40065682 0.8307845
vt 0.36678368 0.99661911
vt 0.0094103906 0.13290453
vt 0.12654549 0.18665689
vt 0.15836889 0.16000217
vt 0.2481692 0.33909678
vt 0.17445859 0.16659707
vt 0.29006305 0.47997576
vt 0.30796167 0.65438634
vt 0.38210088 0.69753176
vt 0.38574386 0.74850339
vt 0.40672153 0.8865087
vt 0.38819388 0.97689229
vt 0.0016369829 0.13290936
vt 0.087193236 0.13285571
vt 0.1020628 0.13284618
vt 0.20174006 0.19298059
vt 0.26783386 0.31653756
vt 0.32493702 0.60396421
vt 0.37889051 0.66579795
vt 0.39302042 0.76219046
vt 0.40822563 0.90737987
vt 0.40882918 0.92903829
vt 0.38964564 0.99660993
vt 0.1172666 0.13283688
vt 0.16220301 0.13280892
vt 0.30900317 0.3687036
vt 0.19874954 0.1327849
vt 0.31577173 0.42088205
vt 0.36771685 0.60922492
vt 0.33963168 0.60367227
vt 0.39925563 0.91239792
vt 0.40931034 0.99659616
vt 0.38973692 0.99660993
vt 0.17079465 0.13280314
vt 0.13637836 0.13282597
vt 0.18951088 0.13279051
vt 0.23523724 0.13276213
vt 0.32625151 0.26341844
vt 0.37715229 0.64096504
vt 0.38977042 0.99660987
vt 0.32873738 0.38239992
vt 0.26571524 0.13274306
vt 0.28289527 0.13273239
vt 0.33560771 0.35502875
vt 0.36342436 0.55151278
vt 0.37492728 0.62321496
vt 0.38492975 0.6405766
vt 0.34441587 0.38509899
vt 0.28405619 0.1327315
vt 0.33948952 0.32960474
vt 0.35814351 0.47110558
vt 0.37272799 0.60487413
vt 0.38022789 0.63344908
vt 0.38798705 0.66454136
vt 0.37309179 0.58629632
vt 0.34812564 0.40382665
vt 0.31447297 0.21879935
vt 0.33352098 0.27328867
vt 0.34453443 0.36514479
vt 0.35219824 0.42785591
vt 0.36836502 0.52978671
vt 0.38622043 0.62810707
vt 0.38542843 0.67354226
vt 0.39353967 0.64278638
vt 0.37518102 0.58028281
vt 0.32316265 0.18754131
vt 0.32732475 0.22725952
vt 0.36316401 0.45830452
vt 0.37243575 0.52319801
vt 0.37446335 0.55125356
vt 0.37733889 0.59850442
vt 0.39964688 0.67240036
vt 0.40016061 0.65743554
vt 0.37563711 0.5671159
vt 0.38019526 0.58642542
vt 0.29381564 0.13272572
vt 0.36104548 0.39939344
vt 0.36847332 0.49679077
vt 0.38005397 0.548765
vt 0.39907369 0.62970042
vt 0.39636901 0.67897499
vt 0.40776128 0.65913671
vt 0.38415143 0.57985198
vt 0.31526956 0.13271201
vt 0.371344 0.428532
vt 0.3742232 0.4963522
vt 0.39111304 0.54883766
vt 0.3827976 0.56936252
vt 0.38796258 0.58653867
vt 0.39643759 0.61588991
vt 0.39007965 0.68227589
vt 0.40252531 0.68886757
vt 0.40416059 0.66971117
vt 0.37382793 0.4454565
vt 0.36899859 0.4746629
vt 0.37838626 0.5211637
vt 0.38691026 0.56241208
vt 0.38422906 0.61197966
vt 0.41928664 0.62493503
vt 0.40075463 0.6027174
vt 0.40552261 0.67855525
vt 0.40992826 0.66580504
vt 0.37593883 0.43573552
vt 0.38079569 0.49602461
vt 0.398779 0.59369051
vt 0.38796291 0.52591932
vt 0.42334911 0.64479649
vt 0.41565505 0.70139754
vt 0.37998238 0.44907606
vt 0.40228933 0.55938536
vt 0.40945211 0.52775943
vt 0.42749494 0.6010862
vt 0.43192655 0.63214946
vt 0.43201989 0.67489934
vt 0.40184462 0.69419509
vt 0.3797842 0.43483472
vt 0.38292301 0.47487772
vt 0.3926546 0.5061233
vt 0.41255125 0.54217285
vt 0.41575336 0.58595067
vt 0.39696932 0.50946605
vt 0.43208158 0.61428338
vt 0.43263283 0.64589882
vt 0.42655683 0.70911282
vt 0.38856718 0.46397299
vt 0.38955516 0.4915396
vt 0.41798338 0.56672513
vt 0.40176582 0.50367373
vt 0.43368787 0.59543568
vt 0.42234188 0.58641958
vt 0.43368754 0.63351226
vt 0.43368989 0.61628908
vt 0.43368968 0.64696658
vt 0.43370056 0.70789617
vt 0.38663197 0.44488549
vt 0.41144311 0.51936358
vt 0.43368843 0.60062891
vt 0.43368894 0.64386016
vt 0.43368781 0.63177222
vt 0.4336898 0.61378717
vt 0.43369693 0.67232347
vt 0.43369839 0.68482339
vt 0.43370071 0.7159574
vt 0.40209597 0.45931596
vt 0.39343953 0.47461271
vt 0.40851352 0.50055552
vt 0.43368751 0.59433222
vt 0.43369752 0.67729485
vt 0.43370256 0.73035002
vt 0.40034077 0.44610828
vt 0.40652791 0.48556572
vt 0.40841624 0.47485167
vt 0.41114178 0.4863795
vt 0.39772061 0.16673833
vt 0.41334239 0.1911062
vt 0.40275076 0.19742316
vt 0.38765833 0.18232638
vt 0.41864881 0.18301123
vt 0.40727386 0.21360153
vt 0.40940094 0.160945
vt 0.42513573 0.20072031
vt 0.41344839 0.31068701
vt 0.41384748 0.14634734
vt 0.42709514 0.17621523
vt 0.43438599 0.19592702
vt 0.44845676 0.28430855
vt 0.42045197 0.37129176
vt 0.44839424 0.13540405
vt 0.43712065 0.16213965
vt 0.44743687 0.22984976
vt 0.37688047 0.035462439
vt 0.43883774 0.17508358
vt 0.44688094 0.19402951
vt 0.4585892 0.22987771
vt 0.37964624 0.035460651
vt 0.44458678 0.17363065
vt 0.4560779 0.2165634
vt 0.4653616 0.23436236
vt 0.38731954 0.035455704
vt 0.46698573 0.24197656
vt 0.39352 0.035451889
vt 0.45618618 0.19809377
vt 0.47376165 0.25045693
vt 0.43799868 0.035422981
vt 0.46163777 0.21512514
vt 0.47907034 0.035396338
vt 0.48509377 0.076850295
vt 0.48508704 0.035392463
vt 0.48510811 0.16535026
vt 0.48510915 0.17154235
vt 0.4851236 0.26133078
vt 0.032766279 0.099335611
vt 0.047521666 0.086246371
vt 0.054509878 0.10382193
vt 0.033039298 0.074521244
vt 0.058142051 0.069846213
vt 0.0019917893 0.096835196
vt 0.03745155 0.068170428
vt 0.067766145 0.0827806
vt 0.0020141141 0.095417738
vt 0.0028164687 0.06859237
vt 0.056611374 0.042965055
vt 0.080193169 0.10489774
vt 0.066213243 0.074979961
vt 0.0027523441 0.069114208
vt 0.0061592455 0.047198772
vt 0.074060425 0.015347183
vt 0.06863831 0.053681254
vt 0.094066598 0.085909545
vt 0.082833476 0.07575345
vt 0.1094794 0.096367419
vt 0.078596033 0.061454117
vt 0.0070258509 0.042692184
vt 0.079720013 0.041038811
vt 0.11373572 0.083154023
vt 0.11104687 0.11096013
vt 0.10402101 0.08014977
vt 0.12523891 0.093270361
vt 0.1277791 0.083385408
vt 0.13096954 0.11187845
vt 0.1307523 0.093025506
vt 0.13436101 0.10228199
vt 0.15385436 0.11152893
vt 0.14111306 0.12149632
vt 0.14597094 0.09396857
vt 0.1519825 0.12047184
vt 0.15435797 0.10034525
vt 0.16568625 0.12039059
vt 0.41056037 0.78948492
vt 0.40854409 0.78606677
vt 0.41959658 0.78591138
vt 0.42046171 0.76866519
vt 0.44794467 0.77473879
vt 0.46684006 0.7676326
vt 0.45560375 0.7916742
vt 0.46684003 0.76752841
vt 0.42990187 0.80169332
vt 0.43990657 0.83763957
vt 0.41609722 0.79050189
vt 0.45370305 0.83015066
vt 0.43259567 0.83846813
vt 0.46684775 0.79511034
vt 0.45392478 0.87928391
vt 0.43639851 0.8839373
vt 0.46684948 0.81093335
vt 0.46684325 0.76580334
vt 0.46686247 0.88520658
vt 0.42750636 0.85526323
vt 0.46684936 0.82271945
vt 0.46685857 0.86458796
vt 0.46686316 0.89437538
vt 0.4505367 0.90238869
vt 0.42623845 0.84601492
vt 0.42622989 0.87558144
vt 0.46400103 0.83063281
vt 0.46685347 0.84478343
vt 0.46355572 0.89603978
vt 0.44492733 0.92868078
vt 0.42873326 0.82657874
vt 0.43096364 0.91291797
vt 0.46684971 0.82889307
vt 0.46686628 0.90860134
vt 0.45984465 0.92260933
vt 0.42466986 0.82653421
vt 0.4668507 0.83556402
vt 0.43528822 0.9626298
vt 0.44687119 0.939008
vt 0.46687111 0.94368577
vt 0.44055182 0.9513374
vt 0.45031974 0.95065701
vt 0.46687171 0.95497781
vt 0.43828344 0.97273755
vt 0.4412393 0.99602038
vt 0.46687245 0.95860589
vt 0.44669345 0.97109848
vt 0.46348369 0.99046743
vt 0.4446739 0.95796895
vt 0.46687627 0.97492307
vt 0.46687907 0.99008912
vt 0.48685375 0.7916742
vt 0.47919467 0.77473879
vt 0.49809152 0.75624555
vt 0.49809325 0.76580334
vt 0.46794966 0.96815658
vt 0.4759239 0.95796895
vt 0.47794345 0.97109848
vt 0.46938515 0.9785428
vt 0.25126126 0.036754847
vt 0.25173488 0.052604854
vt 0.24423841 0.051705182
vt 0.27596939 0.017271876
vt 0.24338472 0.068028092
vt 0.25701094 0.06215483
vt 0.24139871 0.082618654
vt 0.23682126 0.080109
vt 0.24861988 0.093360901
vt 0.23957144 0.10802656
vt 0.26441458 0.069102883
vt 0.23020798 0.088534653
vt 0.26064134 0.086934447
vt 0.25056723 0.11352175
vt 0.21698955 0.1119473
vt 0.22962402 0.076504886
vt 0.26509055 0.086416304
vt 0.23549616 0.11730283
vt 0.22371759 0.11968768
vt 0.22176416 0.094813704
vt 0.21930555 0.081679523
vt 0.21250409 0.08614403
vt 0.20537415 0.092382729
vt 0.19133849 0.091289759
vt 0.20674351 0.081195891
vt 0.19728649 0.10738629
vt 0.19630718 0.078330517
vt 0.20496704 0.11630815
vt 0.18875973 0.11580688
vt 0.18471496 0.074530423
vt 0.22032154 0.12048209
vt 0.19353361 0.11465138
vt 0.17600945 0.11900187
vt 0.19308452 0.066707253
vt 0.17468001 0.089606643
vt 0.17039137 0.073536158
vt 0.1590717 0.10290396
vt 0.15890127 0.080540359
vt 0.15815136 0.091799378
vt 0.44268468 0.39337581
vt 0.44678795 0.39884579
vt 0.43258238 0.40220207
vt 0.42290217 0.39543533
vt 0.46860564 0.39464855
vt 0.4306201 0.42637533
vt 0.40161517 0.39808011
vt 0.46856472 0.43044657
vt 0.47168437 0.40303099
vt 0.3962236 0.42586285
vt 0.48666087 0.39392537
vt 0.38397792 0.40223837
vt 0.39402521 0.43387252
vt 0.38208821 0.40904689
vt 0.37654251 0.43414021
vt 0.31424865 0.077370822
vt 0.31293097 0.091905713
vt 0.3059341 0.087983489
vt 0.3131814 0.05325073
vt 0.32603279 0.090378463
vt 0.30632773 0.10828507
vt 0.30346209 0.047198176
vt 0.32464892 0.069176674
vt 0.31397986 0.099854052
vt 0.29785624 0.11552602
vt 0.2938787 0.063349843
vt 0.3241246 0.038007677
vt 0.32478952 0.059977174
vt 0.33470184 0.07364291
vt 0.31236073 0.11248118
vt 0.28395727 0.096028149
vt 0.28358886 0.068120778
vt 0.28525063 0.051962733
vt 0.32348418 0.035710454
vt 0.3376888 0.06294024
vt 0.34146771 0.07877636
vt 0.31230474 0.12195891
vt 0.28646603 0.034996808
vt 0.3138046 0.029915512
vt 0.32522193 0.036759555
vt 0.34425664 0.10210365
vt 0.3015953 0.024556637
vt 0.32986307 0.039483786
vt 0.30194107 0.024481773
vt 0.34954333 0.066580653
vt 0.35445493 0.087848663
vt 0.34117302 0.049033523
vt 0.30169964 0.024206102
vt 0.34424016 0.04805088
vt 0.35596395 0.072941422
vt 0.35173392 0.051075816
vt 0.3613236 0.078758776
vt 0.35093471 0.050340354
vt 0.35903418 0.09321934
vt 0.35184693 0.050743759
vt 0.36525068 0.06723845
vt 0.36829954 0.086820245
vt 0.35197967 0.050867558
vt 0.35257018 0.051597238
vt 0.37059274 0.070687294
vt 0.37192386 0.074817777
vt 0.38220349 0.075774252
vt 0.37276742 0.072503746
vt 0.38184485 0.075597763
vt 0.51701748 0.99127549
vt 0.50826651 0.98844028
vt 0.51856029 0.97648263
vt 0.53044367 0.98021615
vt 0.5126515 0.96178305
vt 0.52323097 0.9590956
vt 0.54507428 0.98320878
vt 0.50491345 0.96756643
vt 0.55950695 0.95983994
vt 0.50277287 0.93442953
vt 0.50213295 0.99199659
vt 0.5166381 0.94933486
vt 0.53442699 0.94465631
vt 0.55650753 0.98717326
vt 0.50944716 0.9459126
vt 0.52474004 0.94147468
vt 0.54857183 0.94558591
vt 0.56215984 0.97746241
vt 0.51096678 0.92876571
vt 0.52030772 0.93950176
vt 0.55569565 0.94908959
vt 0.56308258 0.99704862
vt 0.51597744 0.94038409
vt 0.50668585 0.91783458
vt 0.56491226 0.94933587
vt 0.53106052 0.9360258
vt 0.51439542 0.9078033
vt 0.56088668 0.93848598
vt 0.52252918 0.90935624
vt 0.57340366 0.94483715
vt 0.54859418 0.91831899
vt 0.51313716 0.86379206
vt 0.56400383 0.90980023
vt 0.54862112 0.9412902
vt 0.53899533 0.90679848
vt 0.52594477 0.90183818
vt 0.57651752 0.89707386
vt 0.56678033 0.9012177
vt 0.58618003 0.91675532
vt 0.55337334 0.90551293
vt 0.56913573 0.89014685
vt 0.59306341 0.90352398
vt 0.58784151 0.93220115
vt 0.55755776 0.90401649
vt 0.59240049 0.89668703
vt 0.59408867 0.90282601
vt 0.59423226 0.90541613
vt 0.59291846 0.91890621
vt 0.55200177 0.88475883
vt 0.5929817 0.89829725
vt 0.59493858 0.92827386
vt 0.56122154 0.89636666
vt 0.59202766 0.89561069
vt 0.58134717 0.88067234
vt 0.54925358 0.89762223
vt 0.5447582 0.90290886
vt 0.62499446 0.97237051
vt 0.62831414 0.95043814
vt 0.64206547 0.96625775
vt 0.63553077 0.98447269
vt 0.59958851 0.94516528
vt 0.64758784 0.94982833
vt 0.646146 0.97984195
vt 0.60479712 0.94317025
vt 0.59618169 0.96598226
vt 0.63224882 0.93006253
vt 0.66844958 0.96014339
vt 0.67127711 0.97060311
vt 0.61378014 0.94054645
vt 0.63042665 0.91369259
vt 0.68030065 0.95504105
vt 0.67879134 0.99701518
vt 0.60534853 0.94105995
vt 0.66713405 0.9383449
vt 0.6833781 0.95765114
vt 0.68218023 0.98137343
vt 0.68659931 0.93617833
vt 0.68370378 0.95492917
vt 0.61828303 0.90063834
vt 0.6832763 0.96503711
vt 0.68285811 0.97580224
vt 0.63723302 0.90481126
vt 0.62444532 0.89887905
vt 0.68343043 0.93271858
vt 0.61918521 0.89549798
vt 0.6869325 0.93458587
vt 0.48094955 0.96014339
vt 0.49909931 0.93617833
vt 0.4958781 0.95765114
vt 0.47963405 0.9383449
vt 0.71495378 0.95492917
vt 0.7146281 0.95765114
vt 0.67883784 0.94982833
vt 0.78687644 0.97947997
vt 0.810727 0.97045499
vt 0.80599552 0.98146528
vt 0.78525364 0.94511545
vt 0.78163791 0.99531919
vt 0.80686373 0.94422632
vt 0.76694 0.98531997
vt 0.75192893 0.85485584
vt 0.81739062 0.95615941
vt 0.77522784 0.95570356
vt 0.81254685 0.87697285
vt 0.81424046 0.89023954
vt 0.79153305 0.84590131
vt 0.81298286 0.91709828
vt 0.76466703 0.82744294
vt 0.81691712 0.86709905
vt 0.81838667 0.93115985
vt 0.75400853 0.81571788
vt 0.78861731 0.83729053
vt 0.8185876 0.85792309
vt 0.81958425 0.90792251
vt 0.81510019 0.84581077
vt 0.81934196 0.83987606
vt 0.88781577 0.98451406
vt 0.88922489 0.97410876
vt 0.89803445 0.9812634
vt 0.89503324 0.99638295
vt 0.88374645 0.9605971
vt 0.89109939 0.96413463
vt 0.88232791 0.99335897
vt 0.87194884 0.97681695
vt 0.90055674 0.95604253
vt 0.87665063 0.98714072
vt 0.89165014 0.94331378
vt 0.87939632 0.94485402
vt 0.86878306 0.95073318
vt 0.89339465 0.92505503
vt 0.88844478 0.92248839
vt 0.85854369 0.96459746
vt 0.87805265 0.92680526
vt 0.85094756 0.95205718
vt 0.86189842 0.98040658
vt 0.8449415 0.93530178
vt 0.88974422 0.90834606
vt 0.84953487 0.98393881
vt 0.8556816 0.92272991
vt 0.90001988 0.91434109
vt 0.87010509 0.90052766
vt 0.84268039 0.96370494
vt 0.84616292 0.91794556
vt 0.88830554 0.89015108
vt 0.89721376 0.93039453
vt 0.83112842 0.92728531
vt 0.84174204 0.9236902
vt 0.84956652 0.90913993
vt 0.83240682 0.91853255
vt 0.82574314 0.93196708
vt 0.86061943 0.90014261
vt 0.82403547 0.94940495
vt 0.81397104 0.94979912
vt 0.83039528 0.95434707
vt 0.96721381 0.93065935
vt 0.96979123 0.94954443
vt 0.95776111 0.93515617
vt 0.98288727 0.93948549
vt 0.95013273 0.95552957
vt 0.98164099 0.92072213
vt 0.98523134 0.95486498
vt 0.96842051 0.96129447
vt 0.95313418 0.92208093
vt 0.98145008 0.9205901
vt 0.99210697 0.91524673
vt 0.97889483 0.97045738
vt 0.98596162 0.94308907
vt 0.95810723 0.96725726
vt 0.94255936 0.94218373
vt 0.98599005 0.98803729
vt 0.97345585 0.97167593
vt 0.96634167 0.97209156
vt 0.95077217 0.96821374
vt 0.92309833 0.95287043
vt 0.97848117 0.99590248
vt 0.93958449 0.97118372
vt 0.92250139 0.93422389
vt 0.93220323 0.96272433
vt 0.91015399 0.94288981
vt 0.91636223 0.95861244
vt 0.92310554 0.97245628
vt 0.90839833 0.96503395
vt 0.91890383 0.97491068
vt 0.90883428 0.97286314
vt 0.75356001 0.9212839
vt 0.75092977 0.92225254
vt 0.74213302 0.91898757
vt 0.74606717 0.91884178
vt 0.73966479 0.90546745
vt 0.74861765 0.89623302
vt 0.72188848 0.90031433
vt 0.7106092 0.85188669
vt 0.72666562 0.91212833
vt 0.71051669 0.85223925
vt 0.73006499 0.92760259
vt 0.70368713 0.87748748
vt 0.72951263 0.93104064
vt 0.73262566 0.92808628
vt 0.70165128 0.88378978
vt 0.72336316 0.93254244
vt 0.73710823 0.93272144
vt 0.70923948 0.92729473
vt 0.71874708 0.91577011
vt 0.69239706 0.91230297
vt 0.72475481 0.90494239
vt 0.69623083 0.9185816
vt 0.69197077 0.91384822
vt 0.6891017 0.92190546
vt 0.56249708 0.97827011
vt 0.56850481 0.96744239
vt 0.56855285 0.98333591
vt 0.94109046 0.91928124
vt 0.93131101 0.92706168
vt 0.93610537 0.89254308
vt 0.95015818 0.91017365
vt 0.92271668 0.88659149
vt 0.93164575 0.86043876
vt 0.90816557 0.9270432
vt 0.93470341 0.81529403
vt 0.91241938 0.93261921
vt 0.90850532 0.83518261
vt 0.91856718 0.84665096
vt 0.9259637 0.83524275
vt 0.95666599 0.85763848
vt 0.91897631 0.82733595
vt 0.96462297 0.87731469
vt 0.92583805 0.8070001
vt 0.96346527 0.90261036
vt 0.91589338 0.8102839
vt 0.50997096 0.99501234
vt 0.49194139 0.99616605
vt 0.47640413 0.99351132
vt 0.54048997 0.99613911
vt 0.6890341 0.97447717
vt 0.70413834 0.99069458
vt 0.70059711 0.9967044
vt 0.74379349 0.96713215
vt 0.57799333 0.84774488
vt 0.58688593 0.85318267
vt 0.57165414 0.85674202
vt 0.56490636 0.85745823
vt 0.58184165 0.83225453
vt 0.56313288 0.83183807
vt 0.56232238 0.87161785
vt 0.55839169 0.85112381
vt 0.55311102 0.85519689
vt 0.56844133 0.80933571
vt 0.54524267 0.84071243
vt 0.56533736 0.80447263
vt 0.53774095 0.82959199
vt 0.55753523 0.8157261
vt 0.56688112 0.79695892
vt 0.5413053 0.84573543
vt 0.54455191 0.81044018
vt 0.55314791 0.78236818
vt 0.55750823 0.77422309
vt 0.53748894 0.81417024
vt 0.53825688 0.78975737
vt 0.55035496 0.76543552
vt 0.53290063 0.80288351
vt 0.62186074 0.87603092
vt 0.63748235 0.86921579
vt 0.64147723 0.88836026
vt 0.60960221 0.89541298
vt 0.62058312 0.86847055
vt 0.64783502 0.87857956
vt 0.6126076 0.88410616
vt 0.59622872 0.89662969
vt 0.60875648 0.87367177
vt 0.59613985 0.89356416
vt 0.59669435 0.90207857
vt 0.59771889 0.88736701
vt 0.60158926 0.87496632
vt 0.60615253 0.9740091
vt 0.61292666 0.98215348
vt 0.60675126 0.99656588
vt 0.56423229 0.95558834
vt 0.61332417 0.97391987
vt 0.85612047 0.89571059
vt 0.86010116 0.90309411
vt 0.83574027 0.89236104
vt 0.84875029 0.87755305
vt 0.82011276 0.89372295
vt 0.8384403 0.87700325
vt 0.82671183 0.87666965
vt 0.82341003 0.85489023
vt 0.81978744 0.85964024
vt 0.81489801 0.87453175
vt 0.81601685 0.89362079
vt 0.48493466 0.8074429
vt 0.4881134 0.79165685
vt 0.4960722 0.80047917
vt 0.49606541 0.82678527
vt 0.49138287 0.78426361
vt 0.48794353 0.8328625
vt 0.50603867 0.83166891
vt 0.49795714 0.84541565
vt 0.48053366 0.8252126
vt 0.47843739 0.85699439
vt 0.47101438 0.84114838
vt 0.5058009 0.86601037
vt 0.49708048 0.87129879
vt 0.51090568 0.82165873
vt 0.50957394 0.86720121
vt 0.73178983 0.99706286
vt 0.73502606 0.99431813
vt 0.76942724 0.98883629
vt 0.72840238 0.97448188
vt 0.6158905 0.80932719
vt 0.62485605 0.84395009
vt 0.61711884 0.82172048
vt 0.61191595 0.82984626
vt 0.60581064 0.81357455
vt 0.62159252 0.85174888
vt 0.60462731 0.78827512
vt 0.63343811 0.86247689
vt 0.60170674 0.8093245
vt 0.62344027 0.87015724
vt 0.59848446 0.80537796
vt 0.59579659 0.78880209
vt 0.66531211 0.90152627
vt 0.67038929 0.89253396
vt 0.67311758 0.89570314
vt 0.66886568 0.88830715
vt 0.66491354 0.87913615
vt 0.66322219 0.89435095
vt 0.67492616 0.87754089
vt 0.65559602 0.87342727
vt 0.68302971 0.88878304
vt 0.66355294 0.86042541
vt 0.65090919 0.8671658
vt 0.67972076 0.87295556
vt 0.64265746 0.85445923
vt 0.68140262 0.87875134
vt 0.85046929 0.996041
vt 0.83273005 0.98487657
vt 0.83790749 0.9795053
vt 0.84847814 0.98530668
vt 0.82500166 0.97230399
vt 0.84206986 0.97398537
vt 0.83404565 0.96586847
vt 0.82358873 0.96693254
vt 0.82044822 0.96558452
vt 0.81437564 0.96701097
vt 0.97415406 0.85757673
vt 0.98420507 0.85105711
vt 0.98843348 0.90143585
vt 0.97977787 0.89406317
vt 0.97097802 0.83477056
vt 0.99232942 0.88640785
vt 0.97030437 0.84371787
vt 0.99562228 0.84875703
vt 0.97081649 0.8344903
vt 0.72433352 0.94468826
vt 0.71383536 0.94588953
vt 0.70535153 0.93760949
vt 0.72128528 0.94997853
vt 0.73224008 0.95571142
vt 0.73937017 0.9445895
vt 0.7272532 0.96211177
vt 0.73357087 0.96555567
vt 0.47028437 0.89061427
vt 0.50425166 0.89239132
vt 0.49429283 0.91986811
vt 0.49447244 0.93275398
vt 0.70355207 0.83307207
vt 0.6858089 0.85324419
vt 0.67340922 0.83478379
vt 0.689201 0.87091446
vt 0.67802662 0.86032856
vt 0.59179968 0.84748971
vt 0.58688074 0.82355237
vt 0.606085 0.84075326
vt 0.59662431 0.87098873
vt 0.57977951 0.82364982
vt 0.75863934 0.96222568
vt 0.75720298 0.95354456
vt 0.75945061 0.9572193
vt 0.76046681 0.9641515
vt 0.73607129 0.93341434
vt 0.75926447 0.96462625
vt 0.73765999 0.94534647
vt 0.75816047 0.96360159
vt 0.75550771 0.96314937
vt 0.74676365 0.96244234
vt 0.83755338 0.85060138
vt 0.85390836 0.82848364
vt 0.84070253 0.85563761
vt 0.8303737 0.86010242
vt 0.84863412 0.83221138
vt 0.83044833 0.8564021
vt 0.83002198 0.8712638
vt 0.84796381 0.82670492
vt 0.40841031 0.95091039
vt 0.4206261 0.98785388
vt 0.4187685 0.99649858
vt 0.43089482 0.98604667
vt 0.42601424 0.98435092
vt 0.42451918 0.97400415
vt 0.9055925 0.9906441
vt 0.90027577 0.98024261
vt 0.92249811 0.97502404
vt 0.91149342 0.99543458
vt 0.56444252 0.9892987
vt 0.57573688 0.97498775
vt 0.58658588 0.99632043
vt 0.50040257 0.97523451
vt 0.4942314 0.99512857
vt 0.47881374 0.9717139
vt 0.48942178 0.99066013
vt 0.79126924 0.98023099
vt 0.81226414 0.98121113
vt 0.79392576 0.99617654
vt 0.42378685 0.99197274
vt 0.428431 0.99070543
vt 0.4085615 0.99665004
vt 0.86898816 0.87203842
vt 0.86646432 0.86289382
vt 0.87907267 0.84283471
vt 0.88132912 0.84803784
vt 0.86134022 0.86730301
vt 0.86221462 0.83215052
vt 0.41029507 0.87017304
vt 0.40785006 0.85667175
vt 0.4120433 0.84607732
vt 0.42092824 0.86910468
vt 0.42325991 0.83882308
vt 0.42780724 0.85632443
vt 0.98616195 0.97373962
vt 0.99431157 0.96661371
vt 0.99559796 0.980349
vt 0.99856412 0.99664885
vt 0.99082053 0.9592458
vt 0.99468553 0.9580543
vt 0.61545253 0.97187799
vt 0.61545032 0.99544382
vt 0.61096263 0.98816711
vt 0.62375933 0.99172592
vt 0.62539148 0.9730742
vt 0.62933838 0.98117745
vt 0.41605335 0.93192804
vt 0.42768016 0.96553344
vt 0.41605112 0.93765062
vt 0.41676721 0.93294966
vt 0.41604787 0.96026498
vt 0.41605473 0.92927027
vt 0.42217001 0.96576279
vt 0.41604772 0.96182734
vt 0.75957704 0.95643264
vt 0.76031417 0.94481349
vt 0.76692295 0.95757788
vt 0.76909202 0.97411585
vt 0.76509613 0.98077303
vt 0.82350755 0.97410482
vt 0.82214379 0.99670279
vt 0.80985802 0.99141335
vt 0.80633008 0.99129736
vt 0.4353036 0.96354383
vt 0.43737596 0.9790746
vt 0.43443266 0.98330015
vt 0.431849 0.97599548
vt 0.44054118 0.99534374
vt 0.47029123 0.97996229
vt 0.47982433 0.98486793
vt 0.48691311 0.99528205
vt 0.47532353 0.98751962
vt 0.7597701 0.96313953
vt 0.76411855 0.99576116
vt 0.75969416 0.96426141
vt 0.76687777 0.98623645
vt 0.75948 0.96442032
vt 0.9300254 0.98711717
vt 0.91578668 0.99633628
vt 0.91878569 0.98434365
vt 0.92913204 0.98098212
vt 0.92579168 0.97165632
vt 0.93693727 0.98541319
vt 0.93998945 0.99023396
vt 0.93587732 0.99685788
vt 0.93176788 0.98510867
vt 0.94032532 0.97569704
vt 0.93219751 0.97389024
vt 0.6883325 0.97560495
vt 0.68528235 0.99535698
vt 0.68169755 0.99547487
vt 0.43729436 0.99307716
vt 0.42760763 0.99560314
vt 0.43318272 0.98570359
vt 0.72075099 0.98537034
vt 0.71335745 0.99694645
vt 0.71819532 0.98207551
vt 0.72121334 0.98339921
vt 0.0017757253 0.99586731
vt 0.0028660286 0.99616736
vt 0.0017757798 0.99605709
usemtl Tile_+038_+020_L20_0002220_0
f 38/1 65/2 64/3
f 166/62 4/31 116/56
f 262/138 258/108 241/137
f 344/730 11/731 273/732
f 332/320 331/321 319/322
f 277/86 343/93 325/83
f 333/166 187/172 145/154
f 334/87 330/95 6/96
f 327/123 7/114 265/122
f 6/96 246/88 334/87
f 634/177 333/166 635/171
f 10/106 8/125 146/133
f 25/323 332/320 636/325
f 24/121 23/103 638/120
f 20/25 22/35 21/45
f 19/335 18/326 640/334
f 13/214 15/197 14/206
f 266/756 12/757 11/758
f 8/125 10/106 9/115
f 6/96 265/122 7/114
f 1/889 2/890 5/891
f 277/86 23/103 343/93
f 342/185 332/194 319/195
f 20/25 204/20 318/30
f 322/145 336/144 642/165
f 20/25 318/30 22/35
f 271/735 340/741 72/737
f 72/519 338/520 73/521
f 67/67 325/83 207/75
f 267/739 337/743 341/740
f 274/747 337/743 267/739
f 25/323 18/326 331/321
f 288/808 195/809 306/810
f 139/199 172/180 197/183
f 198/350 113/346 199/349
f 338/520 274/529 275/526
f 112/178 187/172 333/166
f 340/741 271/735 341/740
f 271/735 272/734 341/740
f 313/337 111/339 201/331
f 17/797 267/798 156/799
f 143/635 142/636 275/637
f 274/638 143/635 275/637
f 12/738 155/736 11/731
f 311/126 90/107 176/116
f 20/25 182/18 204/20
f 327/123 317/105 7/114
f 167/57 164/69 203/77
f 4/31 260/36 117/46
f 157/156 174/146 159/135
f 201/331 202/327 313/337
f 94/282 92/283 324/284
f 330/95 278/113 6/96
f 314/813 160/815 339/817
f 159/135 161/124 146/133
f 58/94 277/86 67/67
f 335/211 279/203 309/193
f 288/808 306/810 163/811
f 154/760 276/761 339/765
f 66/51 22/35 55/44
f 332/320 25/323 331/321
f 155/801 156/799 267/798
f 286/523 275/526 5/528
f 337/743 338/745 72/737
f 342/185 319/195 333/166
f 323/651 98/647 109/654
f 180/134 336/144 8/125
f 177/202 335/211 309/193
f 238/89 317/105 9/115
f 2/612 137/613 5/614
f 334/87 207/75 325/83
f 330/95 334/87 325/83
f 334/87 246/88 207/75
f 246/88 179/76 207/75
f 286/523 73/521 338/520
f 72/737 340/741 337/743
f 180/134 8/125 9/115
f 286/523 338/520 275/526
f 322/145 146/133 8/125
f 267/641 17/644 143/635
f 181/60 67/67 207/75
f 263/324 319/322 331/321
f 8/125 336/144 322/145
f 333/166 319/195 201/186
f 329/131 24/121 649/143
f 326/132 329/131 650/152
f 94/340 264/332 316/336
f 4/31 185/38 260/36
f 184/26 185/38 4/31
f 9/115 327/123 326/132
f 183/21 184/26 4/31
f 260/36 184/26 20/25
f 57/104 277/86 58/94
f 323/651 189/659 269/655
f 271/735 273/732 272/734
f 339/817 160/815 154/820
f 98/647 97/652 109/654
f 635/171 322/145 643/170
f 328/649 323/651 269/655
f 299/658 96/648 269/655
f 638/120 208/112 653/130
f 329/131 265/122 278/113
f 328/649 209/645 200/646
f 18/326 263/324 331/321
f 330/95 23/103 24/121
f 209/645 328/649 96/648
f 202/327 201/331 319/322
f 267/739 341/740 272/734
f 56/24 22/35 318/30
f 314/813 288/808 163/811
f 279/203 139/199 197/183
f 264/332 263/324 316/336
f 105/232 315/234 302/224
f 314/813 287/816 288/808
f 313/337 268/338 189/345
f 264/332 202/327 263/324
f 18/326 321/330 263/324
f 268/338 313/337 202/327
f 268/285 94/282 324/284
f 239/615 268/618 324/621
f 19/335 321/330 18/326
f 264/332 268/338 202/327
f 324/284 186/287 290/290
f 290/619 239/615 324/621
f 109/654 190/657 323/651
f 114/347 199/349 113/346
f 109/654 198/665 199/661
f 160/815 149/819 154/820
f 187/172 158/169 145/154
f 308/188 162/205 244/196
f 109/654 199/661 190/657
f 263/324 321/330 316/336
f 13/214 105/232 302/224
f 313/337 189/345 115/343
f 94/340 316/336 95/342
f 320/296 296/292 19/291
f 91/286 19/291 296/292
f 94/340 268/338 264/332
f 291/294 186/287 298/293
f 157/156 308/188 240/179
f 298/293 186/287 93/289
f 299/616 239/615 2/612
f 298/293 93/289 296/292
f 320/884 297/885 296/886
f 320/296 19/291 641/299
f 302/224 15/197 13/214
f 295/617 239/615 290/619
f 286/523 285/533 294/530
f 240/179 244/196 14/206
f 188/187 205/176 187/172
f 111/339 112/344 201/331
f 293/189 196/173 240/179
f 290/880 292/881 194/882
f 259/351 198/350 110/353
f 291/294 290/290 186/287
f 295/617 137/613 239/615
f 137/542 289/537 5/528
f 97/652 147/656 106/660
f 238/89 9/115 10/106
f 102/245 105/232 103/237
f 280/175 243/147 284/167
f 101/174 281/181 284/167
f 282/207 283/225 141/216
f 284/167 281/181 280/175
f 309/193 279/203 197/183
f 284/167 243/147 173/157
f 293/189 140/198 196/173
f 309/193 197/183 196/173
f 100/953 312/954 281/955
f 173/157 101/174 284/167
f 176/116 90/107 169/99
f 304/416 195/417 103/418
f 196/173 242/158 157/156
f 171/136 261/117 311/126
f 257/40 236/47 232/43
f 157/156 240/179 196/173
f 310/420 103/418 195/417
f 177/202 309/193 196/173
f 308/356 259/351 108/355
f 194/231 305/222 306/213
f 104/223 305/222 103/237
f 244/922 104/923 14/924
f 99/957 139/958 307/956
f 292/752 304/753 194/754
f 244/196 306/213 305/222
f 104/223 244/196 305/222
f 293/189 15/197 282/207
f 195/417 304/416 290/419
f 290/619 304/629 303/626
f 104/223 13/214 14/206
f 15/197 302/224 301/215
f 103/237 305/222 194/231
f 193/357 191/358 300/359
f 268/662 299/658 269/655
f 258/108 217/101 261/117
f 173/157 242/158 196/173
f 213/81 41/102 43/92
f 203/77 152/84 168/85
f 274/747 338/745 337/743
f 65/2 38/1 28/5
f 204/20 182/18 247/15
f 90/107 311/126 261/117
f 247/15 54/17 204/20
f 168/85 222/78 167/57
f 53/748 59/749 56/750
f 204/20 56/24 318/30
f 174/146 157/156 242/158
f 96/893 2/890 1/889
f 259/351 205/352 188/348
f 282/207 140/198 293/189
f 156/799 16/800 17/797
f 255/23 237/16 233/27
f 19/335 316/336 321/330
f 108/355 259/351 110/353
f 325/83 343/93 330/95
f 329/131 278/113 24/121
f 277/86 57/104 208/112
f 267/739 272/734 155/736
f 147/803 245/802 156/799
f 210/640 275/637 142/636
f 337/743 340/741 341/740
f 155/736 272/734 11/731
f 274/638 267/641 143/635
f 644/155 180/134 657/164
f 317/105 6/96 7/114
f 270/128 216/118 258/108
f 143/635 17/644 16/642
f 16/642 144/639 143/635
f 278/113 265/122 6/96
f 225/59 227/73 213/81
f 236/47 257/40 256/32
f 250/50 229/53 212/58
f 258/108 261/117 170/127
f 248/37 4/31 235/39
f 228/49 29/41 230/33
f 231/19 37/28 253/22
f 213/81 227/73 87/80
f 37/28 254/34 253/22
f 228/49 30/54 29/41
f 43/92 41/102 39/111
f 254/34 37/28 35/42
f 33/66 30/54 225/59
f 215/129 51/140 52/151
f 252/13 38/1 62/11
f 63/8 38/1 60/6
f 38/1 251/14 249/12
f 251/14 38/1 252/13
f 4/31 248/37 183/21
f 249/12 237/16 231/19
f 228/49 250/50 212/58
f 37/28 230/33 29/41
f 87/80 227/73 226/65
f 51/140 215/129 216/118
f 220/100 88/90 90/107
f 226/65 228/49 212/58
f 221/79 222/78 88/90
f 261/117 89/109 90/107
f 211/64 224/71 221/79
f 222/78 168/85 88/90
f 311/126 176/116 171/136
f 87/80 220/100 214/91
f 213/81 217/101 258/108
f 258/108 216/118 41/102
f 231/19 234/29 230/33
f 230/33 234/29 232/43
f 255/23 231/19 237/16
f 231/19 253/22 249/12
f 228/49 230/33 250/50
f 247/15 237/16 249/12
f 249/12 251/14 247/15
f 233/27 237/16 183/21
f 256/32 257/40 233/27
f 232/43 236/47 250/50
f 183/21 235/39 256/32
f 54/751 53/748 56/750
f 4/31 3/52 235/39
f 247/15 182/18 237/16
f 236/47 235/39 229/53
f 247/15 251/14 54/17
f 232/43 234/29 233/27
f 37/28 231/19 230/33
f 255/23 234/29 231/19
f 236/47 229/53 250/50
f 183/21 248/37 235/39
f 211/64 212/58 229/53
f 250/50 230/33 232/43
f 228/49 225/59 30/54
f 226/65 227/73 225/59
f 42/82 32/74 225/59
f 43/92 42/82 213/81
f 41/102 213/81 258/108
f 219/72 211/64 221/79
f 222/78 224/71 223/70
f 219/72 221/79 87/80
f 3/52 211/64 229/53
f 261/117 171/136 170/127
f 218/110 89/109 214/91
f 89/109 261/117 217/101
f 220/100 218/110 214/91
f 87/80 88/90 220/100
f 88/90 87/80 221/79
f 90/107 88/90 169/99
f 218/110 220/100 90/107
f 89/109 217/101 214/91
f 213/81 214/91 217/101
f 216/118 215/129 41/102
f 225/59 228/49 226/65
f 219/72 87/80 226/65
f 213/81 87/80 214/91
f 212/58 219/72 226/65
f 212/58 211/64 219/72
f 233/27 257/40 232/43
f 256/32 235/39 236/47
f 256/32 233/27 183/21
f 182/18 183/21 237/16
f 204/20 54/17 56/24
f 224/71 222/78 221/79
f 229/53 235/39 3/52
f 224/71 211/64 3/52
f 224/71 3/52 223/70
f 3/52 175/63 223/70
f 167/57 203/77 168/85
f 98/647 16/642 148/650
f 116/56 117/46 178/61
f 147/803 155/801 106/804
f 174/146 242/158 170/127
f 162/205 306/213 244/196
f 176/116 169/99 153/98
f 117/46 116/56 4/31
f 243/147 241/137 170/127
f 222/78 223/70 167/57
f 243/147 170/127 173/157
f 15/197 293/189 240/179
f 240/179 14/206 15/197
f 10/106 151/97 238/89
f 299/616 268/618 239/615
f 239/615 137/613 2/612
f 238/89 179/76 6/96
f 182/18 20/25 184/26
f 152/84 203/77 165/68
f 1/643 209/645 96/648
f 151/97 10/106 153/98
f 333/166 201/186 112/178
f 154/760 266/756 276/761
f 114/666 190/657 199/661
f 188/348 198/350 259/351
f 244/196 240/179 308/188
f 308/671 108/668 150/670
f 205/176 158/169 187/172
f 152/84 153/98 168/85
f 197/183 173/157 196/173
f 140/198 177/202 196/173
f 306/810 195/809 194/812
f 290/880 194/882 195/883
f 191/703 193/704 192/705
f 198/350 188/348 113/346
f 189/659 190/657 114/666
f 111/339 313/337 115/343
f 112/344 113/346 188/348
f 93/289 186/287 92/283
f 319/322 263/324 202/327
f 179/76 238/89 152/84
f 170/127 242/158 173/157
f 260/36 185/38 184/26
f 117/46 260/36 20/25
f 182/18 184/26 183/21
f 323/651 328/649 200/646
f 5/891 275/892 1/889
f 1/643 275/637 210/640
f 180/134 326/132 655/153
f 329/131 327/123 265/122
f 209/645 210/640 144/639
f 144/639 200/646 209/645
f 325/83 67/67 277/86
f 165/68 116/56 178/61
f 68/55 181/60 117/46
f 117/46 20/25 21/45
f 66/51 21/45 22/35
f 68/55 67/67 181/60
f 322/145 333/166 145/154
f 165/68 178/61 179/76
f 117/46 181/60 178/61
f 282/207 15/197 301/215
f 5/528 285/533 286/523
f 330/95 343/93 23/103
f 332/194 342/185 634/177
f 206/184 308/188 157/156
f 157/156 205/176 206/184
f 272/734 273/732 11/731
f 16/642 200/646 144/639
f 157/156 145/154 158/169
f 161/124 153/98 10/106
f 206/354 205/352 259/351
f 166/62 164/69 167/57
f 172/180 173/157 197/183
f 174/146 176/116 159/135
f 166/62 167/57 4/31
f 161/124 159/135 176/116
f 167/57 223/70 175/63
f 168/85 169/99 88/90
f 153/98 161/124 176/116
f 171/136 176/116 174/146
f 173/157 172/180 101/174
f 174/146 170/127 171/136
f 168/85 153/98 169/99
f 4/31 167/57 3/52
f 166/62 116/56 164/69
f 116/56 165/68 164/69
f 167/57 175/63 3/52
f 162/814 160/815 163/811
f 160/815 314/813 163/811
f 106/660 150/670 108/668
f 163/811 306/810 162/814
f 157/156 159/135 145/154
f 308/356 206/354 259/351
f 187/172 112/178 188/187
f 154/806 149/805 155/801
f 12/757 266/756 154/760
f 155/801 12/807 154/806
f 152/84 151/97 153/98
f 178/61 181/60 207/75
f 152/84 238/89 151/97
f 203/77 164/69 165/68
f 152/84 165/68 179/76
f 10/106 146/133 161/124
f 155/801 147/803 156/799
f 158/169 205/176 157/156
f 308/671 150/670 162/672
f 162/814 150/821 149/819
f 106/822 149/819 150/821
f 162/814 149/819 160/815
f 155/801 149/805 106/804
f 245/653 147/656 148/650
f 145/154 159/135 146/133
f 109/654 97/652 106/660
f 16/642 98/647 200/646
f 144/639 210/640 142/636
f 179/76 178/61 207/75
f 6/96 317/105 238/89
f 179/76 246/88 6/96
f 142/636 143/635 144/639
f 209/645 1/643 210/640
f 140/198 282/207 141/216
f 177/202 140/198 141/216
f 326/132 327/123 329/131
f 327/123 9/115 317/105
f 21/45 68/55 117/46
f 323/651 200/646 98/647
f 113/346 111/339 115/343
f 113/346 115/343 114/347
f 112/344 111/339 113/346
f 107/664 110/667 109/654
f 108/668 110/667 107/664
f 106/660 108/668 107/664
f 109/654 106/660 107/664
f 104/223 103/237 105/232
f 92/283 186/287 324/284
f 172/941 139/942 99/943
f 100/945 281/946 101/944
f 101/944 99/943 100/945
f 101/944 172/941 99/943
f 656/329 25/323 659/333
f 268/662 269/655 189/659
f 96/648 328/649 269/655
f 299/658 2/663 96/648
f 94/282 95/288 91/286
f 91/286 296/292 93/289
f 91/286 93/289 92/283
f 19/335 95/342 316/336
f 91/286 95/288 19/291
f 91/286 92/283 94/282
f 97/652 98/647 148/650
f 105/232 13/214 104/223
f 194/231 304/244 103/237
f 234/29 255/23 233/27
f 147/656 97/652 148/650
f 156/799 245/802 16/800
f 278/113 330/95 24/121
f 326/132 180/134 9/115
f 213/81 42/82 225/59
f 241/137 258/108 170/127
f 218/110 90/107 89/109
f 32/74 33/66 225/59
f 16/642 245/653 148/650
f 109/654 110/667 198/665
f 189/659 323/651 190/657
f 114/666 115/669 189/659
f 322/145 145/154 146/133
f 84/439 86/441 85/444
f 364/470 132/471 79/472
f 129/827 131/828 130/829
f 125/182 280/175 126/192
f 122/490 121/483 120/489
f 344/762 119/764 118/759
f 301/215 463/238 443/233
f 78/479 80/485 79/472
f 69/727 71/728 70/729
f 400/388 351/372 479/386
f 536/673 433/674 450/675
f 360/450 369/448 390/452
f 442/853 421/854 416/855
f 401/856 442/853 416/855
f 79/472 359/475 78/479
f 72/737 537/742 119/733
f 508/776 365/777 82/773
f 120/489 459/481 546/497
f 501/925 497/926 514/927
f 407/894 543/895 548/896
f 539/701 500/702 425/700
f 411/689 412/693 391/690
f 527/248 443/233 463/238
f 266/756 11/758 118/759
f 453/839 454/840 374/841
f 389/699 539/701 388/698
f 128/575 531/576 397/577
f 139/199 279/203 444/217
f 138/545 289/537 137/542
f 121/483 451/477 120/489
f 550/678 536/673 551/682
f 358/191 125/182 375/200
f 437/581 427/586 378/590
f 298/293 514/298 291/294
f 495/313 512/310 320/296
f 118/759 11/758 344/762
f 491/597 356/588 418/587
f 497/926 376/928 514/927
f 288/421 287/426 75/424
f 335/211 141/216 444/217
f 446/834 523/836 534/832
f 320/296 512/310 515/301
f 290/619 303/626 420/624
f 345/425 538/434 133/430
f 80/432 78/429 532/428
f 511/547 320/550 513/554
f 320/912 447/913 513/914
f 380/580 531/576 417/584
f 528/768 368/775 519/772
f 533/918 501/919 514/920
f 344/730 273/732 119/733
f 131/828 446/834 534/832
f 523/539 368/527 534/535
f 525/532 528/536 524/540
f 295/617 515/625 513/628
f 508/776 82/773 519/772
f 77/249 520/246 76/256
f 439/227 123/228 526/240
f 73/521 367/522 72/519
f 320/296 515/301 447/304
f 409/281 485/279 441/280
f 72/519 367/522 537/525
f 193/357 481/367 349/365
f 401/898 543/895 407/894
f 400/455 493/456 457/457
f 475/459 418/465 379/463
f 135/779 71/780 136/781
f 348/720 69/721 470/718
f 488/242 394/251 564/261
f 423/403 491/404 418/401
f 491/404 423/403 566/402
f 438/845 464/843 467/846
f 506/273 462/254 494/253
f 515/301 298/293 447/304
f 414/608 48/606 396/605
f 414/972 396/973 382/974
f 540/241 83/250 544/260
f 439/227 436/235 136/210
f 177/202 141/216 335/211
f 391/690 392/680 411/689
f 525/532 368/527 528/536
f 78/479 359/475 425/484
f 291/630 420/624 303/626
f 379/579 490/582 531/576
f 488/242 136/210 436/235
f 394/251 540/241 559/259
f 81/486 365/487 542/480
f 291/630 521/634 517/633
f 572/510 471/505 573/513
f 498/555 521/559 574/563
f 133/976 538/977 539/978
f 511/547 138/545 320/550
f 499/531 534/535 368/527
f 509/833 129/827 383/831
f 383/831 510/835 509/833
f 431/438 84/439 541/442
f 286/523 294/530 384/524
f 528/768 489/766 524/771
f 525/532 537/525 368/527
f 554/514 484/506 572/510
f 345/425 75/424 78/429
f 555/959 401/960 576/961
f 436/235 439/227 540/241
f 443/233 444/217 283/225
f 380/580 397/577 531/576
f 499/531 368/527 384/524
f 301/215 283/225 282/207
f 389/979 133/976 539/978
f 500/980 539/978 538/977
f 500/433 345/425 78/429
f 134/443 133/430 389/446
f 486/453 360/450 449/454
f 484/506 536/511 450/508
f 435/692 455/695 461/687
f 315/234 520/246 77/249
f 76/256 432/274 541/264
f 431/438 432/440 409/437
f 77/249 76/256 522/239
f 301/215 522/239 361/247
f 522/449 541/442 361/445
f 541/264 522/239 76/256
f 494/253 103/237 310/263
f 522/239 315/234 77/249
f 506/273 76/256 462/254
f 506/273 505/272 441/280
f 346/278 505/272 310/263
f 129/544 511/547 495/549
f 505/272 494/253 310/263
f 530/543 523/539 446/546
f 82/773 81/774 503/767
f 287/816 314/813 80/818
f 79/472 81/486 542/480
f 504/769 276/761 519/772
f 285/533 5/528 289/537
f 289/537 509/541 285/533
f 123/228 124/218 444/217
f 276/761 528/768 519/772
f 83/250 526/240 577/257
f 123/228 527/248 526/240
f 398/684 433/674 390/679
f 463/238 362/255 527/248
f 119/733 273/732 271/735
f 527/248 486/258 526/240
f 486/258 527/248 362/255
f 86/441 84/439 133/430
f 525/744 524/746 119/733
f 119/764 524/771 489/766
f 445/548 502/557 458/561
f 315/234 301/215 302/224
f 458/863 507/864 530/865
f 384/524 73/521 286/523
f 294/530 510/538 383/534
f 363/473 451/477 364/470
f 551/516 535/515 583/518
f 455/474 122/490 461/495
f 412/935 413/936 369/937
f 298/293 296/292 297/297
f 499/830 383/831 129/827
f 276/761 118/759 529/763
f 80/818 314/813 339/817
f 537/742 525/744 119/733
f 129/827 130/829 499/830
f 320/550 501/567 533/573
f 80/432 532/428 287/426
f 118/759 276/761 266/756
f 366/476 507/492 518/496
f 129/544 495/549 131/552
f 133/430 408/435 440/427
f 345/425 74/422 75/424
f 530/778 508/776 368/775
f 455/474 364/470 451/477
f 119/764 529/763 118/759
f 489/766 276/761 529/763
f 514/298 298/293 515/301
f 515/301 426/305 514/298
f 297/885 320/884 138/887
f 295/888 297/885 138/887
f 445/548 446/546 496/551
f 297/297 448/300 298/293
f 511/547 513/554 512/553
f 513/628 515/625 512/632
f 138/620 137/613 295/617
f 129/544 509/541 289/537
f 82/773 504/769 519/772
f 508/868 530/865 507/864
f 425/484 359/475 456/478
f 485/279 76/256 506/273
f 276/761 504/769 503/767
f 455/695 435/692 456/697
f 451/477 452/482 120/489
f 495/549 511/547 512/553
f 501/567 460/570 415/562
f 415/562 497/558 501/567
f 366/476 518/496 584/498
f 345/425 500/433 538/434
f 320/550 533/573 426/574
f 426/792 497/793 495/794
f 499/830 130/829 131/828
f 496/551 498/555 445/548
f 495/549 497/558 496/551
f 497/558 415/562 496/551
f 487/499 122/490 120/489
f 80/485 81/486 79/472
f 446/546 131/552 495/549
f 310/420 288/421 74/422
f 79/472 542/480 366/476
f 301/215 315/234 522/239
f 511/547 129/544 289/537
f 513/914 447/913 295/915
f 496/631 415/627 420/624
f 514/920 426/921 533/918
f 295/915 448/916 297/917
f 363/473 364/470 79/472
f 366/476 363/473 79/472
f 74/422 346/423 310/420
f 498/555 502/557 445/548
f 291/630 517/633 420/624
f 501/567 320/550 521/559
f 521/559 460/570 501/567
f 508/868 507/864 365/870
f 103/237 494/253 102/245
f 574/563 320/550 586/571
f 571/564 498/555 575/568
f 519/772 368/775 508/776
f 276/761 503/767 339/765
f 487/499 120/489 547/501
f 455/474 121/483 122/490
f 339/765 503/767 80/770
f 315/234 105/232 520/246
f 532/428 75/424 287/426
f 420/624 517/633 496/631
f 517/556 498/555 496/551
f 459/481 120/489 452/482
f 502/557 516/560 570/565
f 580/488 366/476 585/493
f 536/511 484/506 535/515
f 405/709 71/723 69/721
f 384/524 367/522 73/521
f 419/148 262/138 241/137
f 136/210 381/201 126/192
f 489/766 528/768 276/761
f 119/764 489/766 529/763
f 385/995 70/996 430/997
f 526/240 83/250 439/227
f 594/390 377/385 595/379
f 466/408 469/409 596/410
f 418/587 490/582 480/591
f 418/587 531/576 490/582
f 475/459 270/462 493/456
f 423/403 418/401 476/400
f 372/461 468/458 457/457
f 44/823 382/824 380/825
f 380/580 417/584 356/588
f 356/588 414/592 380/580
f 378/590 427/586 428/594
f 396/605 48/606 44/607
f 128/139 127/149 216/118
f 127/578 397/577 437/581
f 492/159 216/118 127/149
f 490/1007 423/1008 476/1009
f 349/872 192/873 193/874
f 479/386 474/391 403/395
f 418/587 417/584 531/576
f 595/379 355/371 599/375
f 490/1007 476/1009 480/1010
f 193/981 300/982 386/983
f 599/375 473/368 600/378
f 402/398 403/395 474/391
f 480/861 476/860 379/857
f 423/414 490/415 379/412
f 356/588 491/597 593/601
f 351/372 370/366 355/371
f 418/862 480/861 379/857
f 479/386 403/395 477/397
f 400/388 479/386 475/394
f 442/900 401/898 407/894
f 419/460 457/457 493/456
f 467/381 478/387 352/369
f 352/369 353/376 467/381
f 566/402 402/398 603/399
f 475/394 477/397 476/400
f 476/400 418/401 475/394
f 473/368 370/366 466/363
f 468/458 400/455 457/457
f 370/366 349/365 466/363
f 601/384 472/383 606/393
f 603/399 474/391 607/396
f 377/385 474/391 354/380
f 608/963 429/965 609/966
f 351/372 354/380 479/386
f 467/381 464/392 478/387
f 386/947 192/948 350/949
f 478/876 465/878 350/875
f 465/715 470/718 385/711
f 350/949 465/950 386/947
f 385/995 430/997 71/998
f 126/192 312/190 483/208
f 610/362 406/360 611/364
f 307/956 312/954 100/953
f 192/948 300/951 481/952
f 386/947 300/951 192/948
f 439/227 483/208 123/228
f 487/499 482/504 373/500
f 451/477 121/483 455/474
f 577/257 486/258 612/275
f 471/505 487/499 588/503
f 485/279 432/274 76/256
f 485/279 409/281 432/274
f 373/500 482/504 484/506
f 388/698 425/700 456/697
f 482/504 471/505 484/506
f 405/709 348/720 614/717
f 71/998 405/1000 385/995
f 300/359 349/365 481/367
f 385/711 386/707 454/713
f 454/713 465/715 385/711
f 403/858 401/856 416/855
f 481/706 386/707 191/703
f 470/879 465/878 478/876
f 348/236 470/243 453/220
f 69/721 385/711 470/718
f 279/203 335/211 444/217
f 406/360 469/361 300/359
f 372/848 353/849 468/851
f 467/846 353/849 372/848
f 470/844 464/843 453/839
f 464/843 465/842 453/839
f 349/872 352/877 478/876
f 70/229 375/200 430/221
f 349/365 300/359 466/363
f 375/200 70/229 453/220
f 192/705 481/706 191/703
f 438/719 374/716 386/707
f 438/845 386/847 465/842
f 438/845 465/842 464/843
f 454/713 386/707 374/716
f 349/872 350/875 192/873
f 312/190 280/175 281/181
f 141/216 283/225 444/217
f 462/254 102/245 494/253
f 292/295 290/290 291/294
f 506/273 494/253 505/272
f 105/232 102/245 462/254
f 292/752 291/755 304/753
f 366/476 542/480 365/487
f 291/294 460/308 521/311
f 497/793 426/792 376/796
f 458/561 502/557 589/566
f 193/981 386/983 481/984
f 191/358 406/360 300/359
f 617/377 473/368 618/373
f 363/473 459/481 452/482
f 399/688 412/693 398/684
f 612/985 449/986 620/987
f 433/674 404/676 390/679
f 413/936 412/935 399/939
f 442/900 407/894 568/902
f 611/710 405/709 621/712
f 582/262 488/242 591/270
f 397/577 427/586 437/581
f 390/452 449/454 360/450
f 488/242 436/235 394/251
f 348/783 135/779 424/785
f 410/677 387/696 435/692
f 461/687 410/677 435/692
f 412/935 369/937 391/938
f 134/443 434/447 86/441
f 413/936 399/939 390/940
f 392/680 433/674 398/684
f 398/684 411/689 392/680
f 44/593 427/586 396/585
f 84/439 431/438 133/430
f 355/371 354/380 351/372
f 518/867 458/863 616/869
f 430/221 375/200 381/201
f 134/443 86/441 133/430
f 379/857 476/860 477/859
f 428/594 427/586 46/599
f 271/735 72/737 119/733
f 85/967 434/968 393/969
f 434/691 134/694 410/677
f 360/450 84/439 369/448
f 136/781 395/782 135/779
f 84/439 85/444 369/448
f 433/674 392/680 410/677
f 455/474 456/478 132/471
f 427/586 44/593 47/598
f 381/201 125/182 126/192
f 397/577 127/578 128/575
f 483/208 136/210 126/192
f 216/118 492/159 437/150
f 465/842 454/840 453/839
f 451/477 363/473 452/482
f 373/681 450/675 410/677
f 449/685 404/676 552/683
f 298/293 448/300 447/304
f 86/441 434/447 85/444
f 444/217 307/226 139/199
f 283/225 301/215 443/233
f 243/147 125/182 358/191
f 133/430 431/438 409/437
f 450/508 373/500 484/506
f 429/904 421/905 442/906
f 440/427 408/435 441/436
f 422/990 429/991 401/992
f 410/677 393/686 434/691
f 389/699 387/696 134/694
f 312/190 124/218 483/208
f 483/208 439/227 136/210
f 395/782 424/785 135/779
f 394/251 436/235 540/241
f 358/191 374/209 438/219
f 85/967 391/970 369/971
f 412/693 411/689 398/684
f 392/680 393/686 410/677
f 133/430 409/437 408/435
f 410/677 461/687 373/681
f 406/708 386/707 405/709
f 404/676 449/685 390/679
f 135/779 348/783 71/780
f 401/992 403/994 402/993
f 400/388 468/382 351/372
f 270/462 419/460 493/456
f 398/684 390/679 399/688
f 396/585 427/586 397/577
f 270/128 258/108 262/138
f 429/904 442/906 605/907
f 396/585 380/580 382/589
f 393/969 391/970 85/967
f 393/686 392/680 391/690
f 387/696 389/699 388/698
f 405/709 386/707 385/711
f 483/208 124/218 123/228
f 499/531 384/524 383/534
f 136/210 488/242 395/252
f 406/708 191/703 386/707
f 48/1001 45/1002 382/1003
f 136/781 71/780 381/784
f 388/698 435/692 387/696
f 45/609 44/610 380/611
f 134/694 387/696 410/677
f 270/583 379/579 128/575
f 216/118 270/128 128/139
f 312/190 126/192 280/175
f 447/913 448/916 295/915
f 75/424 532/428 78/429
f 499/830 131/828 534/832
f 446/546 445/548 530/543
f 441/280 485/279 506/273
f 123/228 443/233 527/248
f 285/838 509/833 294/837
f 71/230 348/236 70/229
f 78/479 425/484 500/491
f 124/218 307/226 444/217
f 437/150 378/160 51/140
f 384/524 294/530 383/534
f 291/294 514/298 376/302
f 295/617 376/622 426/623
f 363/473 366/476 459/481
f 295/617 290/619 376/622
f 289/537 138/545 511/547
f 365/777 81/774 82/773
f 75/424 74/422 288/421
f 503/767 504/769 82/773
f 294/837 509/833 510/835
f 133/430 440/427 345/425
f 380/580 396/585 397/577
f 437/150 492/159 127/149
f 401/992 402/993 422/990
f 421/905 422/908 402/911
f 541/442 84/439 361/445
f 360/450 361/445 84/439
f 420/624 376/622 290/619
f 44/823 48/826 382/824
f 421/854 379/857 416/855
f 431/438 541/442 432/440
f 376/302 415/306 291/294
f 241/467 371/464 419/460
f 216/118 437/150 51/140
f 475/459 379/463 270/462
f 419/148 270/128 262/138
f 419/460 372/461 457/457
f 463/238 301/215 361/247
f 380/580 414/592 45/596
f 382/974 45/975 414/972
f 358/191 375/200 374/209
f 122/490 487/499 373/500
f 410/677 450/675 433/674
f 372/461 419/460 371/464
f 464/1004 470/1005 478/1006
f 81/774 80/770 503/767
f 539/701 425/700 388/698
f 453/220 374/209 375/200
f 415/306 460/308 291/294
f 426/792 495/794 320/795
f 100/953 99/957 307/956
f 446/546 495/549 496/551
f 441/436 408/435 409/437
f 429/904 422/908 421/905
f 372/848 357/850 438/845
f 372/461 371/464 357/466
f 243/147 280/175 125/182
f 372/848 438/845 467/846
f 370/366 352/369 349/365
f 475/459 493/456 400/455
f 367/522 384/524 368/527
f 536/673 404/676 433/674
f 498/555 517/556 521/559
f 444/217 443/233 123/228
f 507/492 366/476 365/487
f 379/857 477/859 416/855
f 388/698 456/697 435/692
f 361/247 362/255 463/238
f 360/450 362/451 361/445
f 520/246 462/254 76/256
f 359/475 79/472 132/471
f 241/467 243/469 358/468
f 358/468 357/466 241/467
f 473/368 466/363 598/370
f 461/495 122/490 373/500
f 530/865 445/866 458/863
f 439/227 83/250 540/241
f 462/254 520/246 105/232
f 288/421 310/420 195/417
f 132/471 456/478 359/475
f 505/431 346/423 440/427
f 368/527 537/525 367/522
f 498/555 516/560 502/557
f 515/625 295/617 426/623
f 376/622 420/624 415/627
f 507/864 458/863 518/867
f 48/595 356/588 602/600
f 48/595 414/592 356/588
f 379/412 421/413 423/414
f 423/403 421/405 402/398
f 477/397 475/394 479/386
f 351/372 468/382 353/376
f 352/369 351/372 353/376
f 478/876 350/875 349/872
f 403/858 416/855 477/859
f 354/380 474/391 479/386
f 355/371 370/366 473/368
f 627/722 347/724 628/725
f 354/380 355/371 377/385
f 352/369 370/366 351/372
f 347/787 424/785 630/788
f 466/363 300/359 469/361
f 487/499 471/505 482/504
f 405/709 69/721 348/720
f 438/845 357/850 358/852
f 307/226 124/218 312/190
f 304/629 291/630 303/626
f 530/543 368/527 523/539
f 413/936 390/940 369/937
f 424/785 347/787 348/783
f 345/425 440/427 346/423
f 346/423 74/422 345/425
f 71/230 430/221 381/201
f 385/995 69/999 70/996
f 132/471 364/470 455/474
f 505/431 440/427 441/436
f 356/588 417/584 418/587
f 453/220 70/229 348/236
f 424/785 395/782 624/786
f 531/576 128/575 379/579
f 371/464 241/467 357/466
f 381/201 375/200 125/182
f 360/450 486/453 362/451
f 208/112 23/103 277/86
f 61/4 38/1 64/3
f 38/1 63/8 62/11
f 60/6 38/1 61/4
f 55/44 22/35 56/24
f 27/7 28/5 38/1
f 39/111 41/102 40/119
f 215/129 40/119 41/102
f 35/42 37/28 36/48
f 29/41 36/48 37/28
f 27/7 38/1 34/9
f 31/932 33/933 32/934
f 52/151 51/140 49/161
f 34/9 38/1 249/12
f 49/161 51/140 50/168
f 378/160 50/168 51/140
f 46/599 427/586 47/598
f 26/10 28/5 27/7
f 544/260 83/250 545/268
f 545/268 83/250 578/265
f 546/497 459/481 579/494
f 547/501 120/489 546/497
f 548/964 543/962 555/959
f 549/897 407/894 548/896
f 550/678 404/676 536/673
f 551/516 536/511 535/515
f 552/683 404/676 550/678
f 553/517 535/515 554/514
f 554/514 535/515 484/506
f 555/959 543/962 401/960
f 556/318 320/296 557/317
f 557/317 320/296 632/315
f 558/267 540/241 544/260
f 559/259 540/241 558/267
f 560/901 407/894 561/899
f 561/899 407/894 549/897
f 562/509 471/505 613/507
f 563/512 471/505 562/509
f 564/261 394/251 569/266
f 565/269 488/242 564/261
f 566/402 423/403 402/398
f 567/406 491/404 566/402
f 568/902 407/894 560/901
f 569/266 394/251 559/259
f 570/565 516/560 571/564
f 571/564 516/560 498/555
f 572/510 484/506 471/505
f 573/513 471/505 563/512
f 574/563 521/559 320/550
f 575/568 498/555 574/563
f 576/961 401/960 608/963
f 577/257 526/240 486/258
f 578/265 83/250 577/257
f 579/494 459/481 580/488
f 580/488 459/481 366/476
f 581/271 395/252 582/262
f 582/262 395/252 488/242
f 583/518 535/515 553/517
f 584/498 518/496 623/502
f 585/493 366/476 584/498
f 586/571 320/550 587/572
f 587/319 320/296 556/318
f 588/503 487/499 547/501
f 589/566 502/557 570/565
f 590/276 488/242 565/269
f 591/270 488/242 590/276
f 592/407 491/404 567/406
f 593/601 491/597 592/603
f 594/390 474/391 377/385
f 595/379 377/385 355/371
f 596/929 469/930 610/931
f 597/411 466/408 596/410
f 598/370 466/363 597/374
f 599/375 355/371 473/368
f 600/378 473/368 601/384
f 601/384 473/368 472/383
f 602/600 356/588 593/601
f 603/399 402/398 474/391
f 604/903 442/900 568/902
f 605/907 442/906 604/910
f 606/393 472/383 619/389
f 607/396 474/391 594/390
f 608/963 401/960 429/965
f 609/909 429/904 605/907
f 610/362 469/361 406/360
f 611/710 406/708 405/709
f 612/985 486/988 449/986
f 613/507 471/505 588/503
f 614/717 348/720 627/722
f 615/714 405/709 614/717
f 616/569 458/561 589/566
f 617/377 472/383 473/368
f 618/373 473/368 598/370
f 619/389 472/383 617/377
f 620/987 449/986 552/989
f 621/712 405/709 615/714
f 622/277 395/252 581/271
f 623/871 518/867 616/869
f 624/786 395/782 622/789
f 625/602 48/595 602/600
f 626/604 48/595 625/602
f 627/722 348/720 347/724
f 628/725 347/724 629/726
f 629/791 347/787 631/790
f 630/788 424/785 624/786
f 631/790 347/787 630/788
f 632/315 320/296 660/314
f 633/1011 48/1012 626/1013
f 634/177 342/185 333/166
f 635/171 333/166 322/145
f 636/212 332/194 652/204
f 637/328 25/323 636/325
f 638/120 23/103 208/112
f 639/142 24/121 638/120
f 640/334 18/326 656/329
f 641/341 19/335 640/334
f 642/165 336/144 644/155
f 643/170 322/145 642/165
f 644/155 336/144 180/134
f 645/312 320/296 646/309
f 646/309 320/296 647/307
f 647/307 320/296 648/303
f 648/303 320/296 641/299
f 649/143 24/121 639/142
f 650/152 329/131 649/143
f 651/163 326/132 650/152
f 652/204 332/194 634/177
f 653/130 208/112 654/141
f 655/153 326/132 651/163
f 656/329 18/326 25/323
f 657/164 180/134 658/162
f 658/162 180/134 655/153
f 659/333 25/323 637/328
f 660/314 320/296 645/312
f 661/316 632/315 660/314
usemtl Tile_+038_+020_L20_0002220_untextured
