mtllib Tile_+038_+020_L19_000200.mtl
v 7.75254536e+03 4.88210505e+03 1.20241947e+01
v 7.75490951e+03 4.88336851e+03 1.23347941e+01
v 7.75127190e+03 4.88386826e+03 8.61843673e+00
v 7.75186915e+03 4.88326970e+03 9.31614196e+00
v 7.75202734e+03 4.88298826e+03 1.07452049e+01
v 7.75124724e+03 4.88408571e+03 1.19947807e+01
v 7.75177432e+03 4.87969291e+03 1.14467506e+01
v 7.75208863e+03 4.90124222e+03 1.21994524e+01
v 7.75229811e+03 4.90604350e+03 1.24780637e+01
v 7.75165328e+03 4.88207755e+03 1.19589306e+01
v 7.76197722e+03 4.90288713e+03 1.22318535e+01
v 7.76855913e+03 4.89025441e+03 1.32050352e+01
v 7.76955501e+03 4.88861537e+03 1.25875702e+01
v 7.77353996e+03 4.90510292e+03 1.52094659e+01
v 7.77367307e+03 4.90360265e+03 1.28616845e+01
v 7.75000000e+03 4.87696356e+03 8.51187966e+00
v 7.75000000e+03 4.87984054e+03 8.57082883e+00
v 7.75000000e+03 4.88837535e+03 1.25497569e+01
v 7.75000000e+03 4.88833273e+03 1.22779092e+01
v 7.75000000e+03 4.88841035e+03 1.19834286e+01
v 7.75000000e+03 4.88947757e+03 1.16983633e+01
v 7.75000000e+03 4.88872005e+03 1.17248058e+01
v 7.75000000e+03 4.88442698e+03 1.16226817e+01
v 7.75000000e+03 4.88567243e+03 1.22488051e+01
v 7.75000000e+03 4.89017082e+03 1.22481854e+01
v 7.75000000e+03 4.89026411e+03 1.34761524e+01
v 7.75000000e+03 4.89026897e+03 1.49746088e+01
v 7.75000000e+03 4.89145602e+03 1.45129291e+01
v 7.75000000e+03 4.89755535e+03 1.29396236e+01
v 7.75000000e+03 4.90208097e+03 1.32141218e+01
v 7.75000000e+03 4.90585937e+03 1.35459214e+01
v 7.75000000e+03 4.88394265e+03 8.55259009e+00
v 7.77891271e+03 4.89993583e+03 2.06586639e+01
v 7.77491083e+03 4.89965538e+03 2.06706106e+01
v 7.77639715e+03 4.90455002e+03 1.84187247e+01
v 7.77375304e+03 4.89947206e+03 2.10037537e+01
v 7.77355348e+03 4.90317658e+03 1.92514142e+01
v 7.77469398e+03 4.89611389e+03 1.89354689e+01
v 7.77387798e+03 4.89603283e+03 1.93441927e+01
v 7.77388507e+03 4.89972971e+03 1.68964844e+01
v 7.77792728e+03 4.89111286e+03 1.74072943e+01
v 7.77774626e+03 4.89108255e+03 1.57720790e+01
v 7.77407109e+03 4.89433624e+03 1.56940995e+01
v 7.77376973e+03 4.89330742e+03 1.65245047e+01
v 7.77437461e+03 4.89400135e+03 1.54808548e+01
v 7.77415841e+03 4.89292455e+03 1.55447057e+01
v 7.77405848e+03 4.89341729e+03 1.80300672e+01
v 7.77394434e+03 4.89915386e+03 1.53925838e+01
v 7.77761615e+03 4.89298527e+03 1.73478194e+01
v 7.77496632e+03 4.89102204e+03 1.64781349e+01
v 7.77626808e+03 4.89103398e+03 1.63582651e+01
v 7.77918169e+03 4.90488418e+03 1.83728573e+01
v 7.77424391e+03 4.89075507e+03 1.60150406e+01
v 7.77411844e+03 4.89171685e+03 1.71870522e+01
v 7.75000000e+03 4.88860108e+03 1.30568613e+01
v 7.75074069e+03 4.88995102e+03 1.32551580e+01
v 7.75115967e+03 4.89017164e+03 1.39687864e+01
v 7.75076019e+03 4.88926558e+03 1.20151284e+01
v 7.75042427e+03 4.89000537e+03 1.18160450e+01
v 7.75105764e+03 4.88822832e+03 1.28106347e+01
v 7.75155620e+03 4.88664162e+03 1.32422704e+01
v 7.75220783e+03 4.88678861e+03 1.34882325e+01
v 7.75211663e+03 4.89048029e+03 1.52773244e+01
v 7.75203440e+03 4.89014331e+03 1.42084328e+01
v 7.75409164e+03 4.89015583e+03 1.42055383e+01
v 7.75549377e+03 4.88905467e+03 1.37196632e+01
v 7.75340115e+03 4.89067608e+03 1.51358243e+01
v 7.75807195e+03 4.89087775e+03 1.53797601e+01
v 7.75773387e+03 4.89273544e+03 1.57948656e+01
v 7.75278106e+03 4.88931630e+03 1.37264038e+01
v 7.75499546e+03 4.89077501e+03 1.52959461e+01
v 7.75553625e+03 4.89220332e+03 1.44289417e+01
v 7.75518708e+03 4.90125874e+03 1.22459566e+01
v 7.75207122e+03 4.88552713e+03 1.33486468e+01
v 7.75284570e+03 4.88584327e+03 1.29035540e+01
v 7.75201894e+03 4.88821322e+03 1.40299161e+01
v 7.75120986e+03 4.88640296e+03 1.25849168e+01
v 7.75520282e+03 4.87972441e+03 1.09170604e+01
v 7.75322364e+03 4.87965570e+03 1.13405696e+01
v 7.75597880e+03 4.88006138e+03 1.15376046e+01
v 7.75144494e+03 4.88060644e+03 8.66722294e+00
v 7.75298754e+03 4.87992576e+03 9.78893794e+00
v 7.75458612e+03 4.88017569e+03 9.12726685e+00
v 7.75405061e+03 4.87491446e+03 9.13955659e+00
v 7.75292138e+03 4.87523087e+03 9.30073018e+00
v 7.75193624e+03 4.87860568e+03 9.01093602e+00
v 7.75326602e+03 4.87839725e+03 9.26954588e+00
v 7.75152272e+03 4.87571690e+03 9.37301766e+00
v 7.75284856e+03 4.87650614e+03 8.56731514e+00
v 7.75203731e+03 4.87914131e+03 8.77159958e+00
v 7.75352134e+03 4.87647201e+03 9.08091428e+00
v 7.75515563e+03 4.87841384e+03 1.04696045e+01
v 7.75444196e+03 4.87801989e+03 9.18501678e+00
v 7.75563896e+03 4.87654447e+03 8.90610390e+00
v 7.75396623e+03 4.87879874e+03 8.62960587e+00
v 7.75541980e+03 4.87928820e+03 1.02331012e+01
v 7.75186754e+03 4.87966223e+03 9.07767059e+00
v 7.75465874e+03 4.87695643e+03 8.71551948e+00
v 7.75063930e+03 4.87615378e+03 8.67403355e+00
v 7.75519525e+03 4.87924880e+03 9.27914730e+00
v 7.75318786e+03 4.87961914e+03 8.96827852e+00
v 7.75890510e+03 4.88897021e+03 1.35553806e+01
v 7.76020824e+03 4.88960322e+03 1.38199103e+01
v 7.75745405e+03 4.89060233e+03 1.42456201e+01
v 7.75590283e+03 4.88849475e+03 1.28784293e+01
v 7.76211400e+03 4.89083738e+03 1.34874353e+01
v 7.76189416e+03 4.88879571e+03 1.25793443e+01
v 7.76172260e+03 4.88869806e+03 1.35928702e+01
v 7.76363785e+03 4.88919680e+03 1.36593129e+01
v 7.76626894e+03 4.89086921e+03 1.40448303e+01
v 7.76363181e+03 4.88750263e+03 1.32335999e+01
v 7.77721057e+03 4.88745983e+03 1.25605272e+01
v 7.77746210e+03 4.89046573e+03 1.40120341e+01
v 7.77492791e+03 4.87585533e+03 1.40700139e+01
v 7.77506431e+03 4.87678188e+03 1.32369389e+01
v 7.77795246e+03 4.87555039e+03 1.45126775e+01
v 7.77318060e+03 4.87546016e+03 1.38681654e+01
v 7.76783069e+03 4.88861968e+03 1.35290950e+01
v 7.76035224e+03 4.88712830e+03 1.32552272e+01
v 7.75635334e+03 4.89057391e+03 1.34864508e+01
v 7.75519966e+03 4.89042000e+03 1.42397566e+01
v 7.75634708e+03 4.89073186e+03 1.52448254e+01
v 7.75930737e+03 4.89054782e+03 1.43315325e+01
v 7.76296843e+03 4.89110872e+03 1.53185251e+01
v 7.76462116e+03 4.89076137e+03 1.42609110e+01
v 7.76537122e+03 4.89127830e+03 1.50815978e+01
v 7.76321251e+03 4.89083659e+03 1.39365392e+01
v 7.77166478e+03 4.89122110e+03 1.41989272e+01
v 7.77230628e+03 4.89088610e+03 1.41919960e+01
v 7.77291623e+03 4.89159439e+03 1.51576057e+01
v 7.77423383e+03 4.89122563e+03 1.40228791e+01
v 7.77172543e+03 4.89147801e+03 1.51169602e+01
v 7.77416228e+03 4.89123117e+03 1.48711277e+01
v 7.76697559e+03 4.89117288e+03 1.53674582e+01
v 7.77258417e+03 4.88912408e+03 1.35499087e+01
v 7.77777161e+03 4.88776568e+03 1.34490269e+01
v 7.75651191e+03 4.89252924e+03 1.58008207e+01
v 7.76763800e+03 4.89102221e+03 1.41590940e+01
v 7.76089368e+03 4.89210191e+03 1.47428951e+01
v 7.75782462e+03 4.89140245e+03 1.58086216e+01
v 7.75630387e+03 4.89308124e+03 1.46089643e+01
v 7.75643746e+03 4.89102357e+03 1.56354649e+01
v 7.75797923e+03 4.89331701e+03 1.44002342e+01
v 7.75812851e+03 4.89173757e+03 1.48610871e+01
v 7.75928869e+03 4.89101552e+03 1.52747999e+01
v 7.77525530e+03 4.89132305e+03 1.38581731e+01
v 7.77606664e+03 4.89116056e+03 1.51882227e+01
v 7.76965844e+03 4.89096356e+03 1.40854091e+01
v 7.77390040e+03 4.89185166e+03 1.53559669e+01
v 7.77811969e+03 4.89138934e+03 1.47389388e+01
v 7.77731585e+03 4.89145429e+03 1.45181786e+01
v 7.77075081e+03 4.89141536e+03 1.52545617e+01
v 7.77209510e+03 4.89290590e+03 1.47425576e+01
v 7.76887654e+03 4.89143875e+03 1.50773669e+01
v 7.76137214e+03 4.89098639e+03 1.52690703e+01
v 7.76194021e+03 4.89784593e+03 1.33975449e+01
v 7.76013422e+03 4.89776948e+03 1.33658944e+01
v 7.76469000e+03 4.89795733e+03 1.34178862e+01
v 7.75600942e+03 4.89531041e+03 1.39948165e+01
v 7.76108813e+03 4.88897989e+03 1.34616410e+01
v 7.77319649e+03 4.89301062e+03 1.46174628e+01
v 7.77350486e+03 4.89481766e+03 1.43463501e+01
v 7.77134592e+03 4.89494074e+03 1.42448965e+01
v 7.76842447e+03 4.89814227e+03 1.33771811e+01
v 7.77385605e+03 4.88952156e+03 1.37037401e+01
v 7.76941899e+03 4.89020911e+03 1.31866070e+01
v 7.76713515e+03 4.88505482e+03 1.25794400e+01
v 7.76134263e+03 4.89065301e+03 1.41818970e+01
v 7.76983016e+03 4.88720100e+03 1.31096452e+01
v 7.76830322e+03 4.89113485e+03 1.34635612e+01
v 7.76792623e+03 4.89002902e+03 1.36151191e+01
v 7.77360426e+03 4.87791606e+03 1.27717490e+01
v 7.76405991e+03 4.87507189e+03 1.29792349e+01
v 7.76168221e+03 4.87519176e+03 1.22871047e+01
v 7.76295123e+03 4.87666366e+03 1.19526410e+01
v 7.76354431e+03 4.87907052e+03 1.02741172e+01
v 7.77383363e+03 4.89870779e+03 1.38609090e+01
v 7.77327635e+03 4.89770418e+03 1.35248450e+01
v 7.77627185e+03 4.89046815e+03 1.32679973e+01
v 7.77472525e+03 4.87988886e+03 1.21491488e+01
v 7.77463123e+03 4.87892600e+03 1.21790726e+01
v 7.77711084e+03 4.87980911e+03 1.16047083e+01
v 7.77629305e+03 4.88059149e+03 1.16645225e+01
v 7.77449800e+03 4.88077845e+03 1.15637686e+01
v 7.77734467e+03 4.87819229e+03 1.31502455e+01
v 7.77875574e+03 4.87926280e+03 1.22397958e+01
v 7.77125437e+03 4.87645940e+03 1.28776442e+01
v 7.76893696e+03 4.87713349e+03 1.21003575e+01
v 7.76694033e+03 4.87574450e+03 1.26691518e+01
v 7.77109668e+03 4.87771926e+03 1.23575885e+01
v 7.76016551e+03 4.87722624e+03 9.74923554e+00
v 7.75927941e+03 4.87790656e+03 1.01003037e+01
v 7.75858897e+03 4.87760961e+03 1.02042477e+01
v 7.75815600e+03 4.87681790e+03 1.11062875e+01
v 7.75623395e+03 4.87696439e+03 1.09825508e+01
v 7.75884956e+03 4.87845093e+03 9.82917111e+00
v 7.75811004e+03 4.87862640e+03 1.14415252e+01
v 7.75746543e+03 4.87720773e+03 1.17569596e+01
v 7.76183220e+03 4.87625075e+03 1.01946347e+01
v 7.76027959e+03 4.88002658e+03 1.00893378e+01
v 7.76070029e+03 4.88030216e+03 1.13918977e+01
v 7.76232550e+03 4.88323548e+03 1.13558951e+01
v 7.76206922e+03 4.88179715e+03 1.19024857e+01
v 7.75781774e+03 4.88176893e+03 1.18629624e+01
v 7.76128563e+03 4.87991897e+03 1.02741573e+01
v 7.76163566e+03 4.87922159e+03 9.60551875e+00
v 7.75993744e+03 4.87907779e+03 9.81872320e+00
v 7.75803879e+03 4.87962983e+03 9.78014475e+00
v 7.75851932e+03 4.88018546e+03 1.02822893e+01
v 7.76649398e+03 4.87911413e+03 1.06729923e+01
v 7.75681609e+03 4.87822846e+03 1.23748077e+01
v 7.75779708e+03 4.87931268e+03 1.11354633e+01
v 7.75610911e+03 4.87823297e+03 1.11535299e+01
v 7.75720903e+03 4.87964513e+03 1.03240871e+01
v 7.75725030e+03 4.87771025e+03 1.29735982e+01
v 7.76236044e+03 4.88216736e+03 1.11812499e+01
v 7.76014279e+03 4.88439808e+03 1.25528224e+01
v 7.75640287e+03 4.87766464e+03 1.17464858e+01
v 7.76259175e+03 4.88063507e+03 1.08291803e+01
v 7.75745582e+03 4.88240556e+03 1.14576984e+01
v 7.75758522e+03 4.88051762e+03 1.07271982e+01
v 7.76369635e+03 4.88215719e+03 1.11378238e+01
v 7.76416977e+03 4.88021903e+03 1.15393821e+01
v 7.76816239e+03 4.88170722e+03 1.17842619e+01
v 7.76718843e+03 4.88047418e+03 1.13893709e+01
v 7.76804053e+03 4.88372447e+03 1.22686699e+01
v 7.77307055e+03 4.88029871e+03 1.08328148e+01
v 7.77284752e+03 4.88082293e+03 1.14417677e+01
v 7.77154914e+03 4.87953299e+03 1.08844035e+01
v 7.75630569e+03 4.87979154e+03 1.05759011e+01
v 7.75570162e+03 4.87768699e+03 1.00543928e+01
v 7.75616810e+03 4.87618217e+03 9.38380291e+00
v 7.75767185e+03 4.87613233e+03 9.39901543e+00
v 7.75593514e+03 4.87546713e+03 9.34028780e+00
v 7.75905177e+03 4.87985911e+03 9.60206354e+00
v 7.75877535e+03 4.87932015e+03 9.32062324e+00
v 7.75777041e+03 4.87971120e+03 1.09372163e+01
v 7.75940719e+03 4.87985678e+03 1.11463265e+01
v 7.75847697e+03 4.88004758e+03 1.14271432e+01
v 7.75705443e+03 4.88122722e+03 1.08935065e+01
v 7.75640858e+03 4.88076262e+03 1.08898250e+01
v 7.75633946e+03 4.88204281e+03 1.06821385e+01
v 7.75592621e+03 4.88222697e+03 1.21007239e+01
v 7.75742641e+03 4.87567438e+03 8.92228692e+00
v 7.75876786e+03 4.87536651e+03 8.17970064e+00
v 7.75888656e+03 4.87746817e+03 9.13991262e+00
v 7.75953753e+03 4.87985025e+03 1.01538583e+01
v 7.76115448e+03 4.87824722e+03 9.45438207e+00
v 7.76255367e+03 4.87779699e+03 1.05443873e+01
v 7.75944837e+03 4.87543704e+03 9.04260328e+00
v 7.76507051e+03 4.88016071e+03 9.99315209e+00
v 7.76649309e+03 4.88014344e+03 1.00607549e+01
v 7.76422114e+03 4.88004254e+03 1.03710322e+01
v 7.76741935e+03 4.87977506e+03 1.06452757e+01
v 7.76813050e+03 4.87897626e+03 1.07597176e+01
v 7.76865229e+03 4.88045163e+03 1.06910204e+01
v 7.76999305e+03 4.87999786e+03 1.06354921e+01
v 7.77182223e+03 4.88031960e+03 1.09214094e+01
v 7.76817398e+03 4.88047125e+03 1.12772984e+01
v 7.76219884e+03 4.88019078e+03 9.40323625e+00
v 7.76224178e+03 4.88015683e+03 1.12912781e+01
v 7.75889279e+03 4.87654642e+03 8.92472518e+00
v 7.76023394e+03 4.87599804e+03 9.62728733e+00
v 7.76129510e+03 4.87678826e+03 9.63195297e+00
v 7.76257700e+03 4.87938486e+03 9.29525528e+00
v 7.76316179e+03 4.88001730e+03 1.06223107e+01
v 7.76302529e+03 4.87995495e+03 9.62594122e+00
v 7.76464453e+03 4.87943478e+03 1.00054966e+01
v 7.77068160e+03 4.88069385e+03 1.14784628e+01
v 7.76852430e+03 4.88161445e+03 1.11261500e+01
v 7.77006994e+03 4.88328363e+03 1.20730496e+01
v 7.76580583e+03 4.88301606e+03 1.21023026e+01
v 7.77523946e+03 4.88113572e+03 1.10827416e+01
v 7.77441689e+03 4.88276093e+03 1.19350378e+01
v 7.77474240e+03 4.88169546e+03 1.12729704e+01
v 7.77646905e+03 4.88086657e+03 1.03480072e+01
v 7.77863969e+03 4.88162353e+03 9.85036605e+00
v 7.77477185e+03 4.88289118e+03 8.50355432e+00
v 7.77532893e+03 4.88123339e+03 8.80922642e+00
v 7.77476241e+03 4.88139518e+03 9.19663580e+00
v 7.76362144e+03 4.88071662e+03 1.11322829e+01
v 7.77494410e+03 4.88417394e+03 1.17387233e+01
v 7.77517005e+03 4.88359739e+03 1.12754568e+01
v 7.77460501e+03 4.88346655e+03 1.01997906e+01
v 7.77597356e+03 4.88330301e+03 8.62635846e+00
v 7.77729554e+03 4.88506114e+03 1.20507741e+01
v 7.77653350e+03 4.88380101e+03 1.14454403e+01
v 7.77696098e+03 4.88313219e+03 8.60107433e+00
v 7.77711124e+03 4.88368929e+03 9.87910526e+00
v 7.76234762e+03 4.88499125e+03 1.18709272e+01
v 7.76367681e+03 4.88391220e+03 1.16215191e+01
v 7.77696186e+03 4.88177281e+03 9.35476157e+00
v 7.77783269e+03 4.88372570e+03 1.16021042e+01
v 7.76171073e+03 4.88269194e+03 1.20378106e+01
v 7.76193576e+03 4.88490053e+03 1.26798779e+01
v 7.76385144e+03 4.88410610e+03 1.24340221e+01
v 7.76123837e+03 4.88546976e+03 1.25833642e+01
v 7.75739240e+03 4.88365515e+03 1.16297352e+01
v 7.76847088e+03 4.88493330e+03 1.19610334e+01
v 7.76909315e+03 4.88293773e+03 1.14590170e+01
v 7.76797135e+03 4.88617414e+03 1.28433508e+01
v 7.75928017e+03 4.88581914e+03 1.27996822e+01
v 7.75626545e+03 4.88485668e+03 1.19647862e+01
v 7.75623432e+03 4.88283197e+03 1.12733916e+01
v 7.76221994e+03 4.88708748e+03 1.23304947e+01
v 7.75621425e+03 4.88608317e+03 1.20993580e+01
v 7.75726599e+03 4.88600194e+03 1.23285426e+01
v 7.76830947e+03 4.88634176e+03 1.20398544e+01
v 7.76895294e+03 4.88710498e+03 1.22540645e+01
v 7.76812501e+03 4.88808483e+03 1.24996530e+01
v 7.76343490e+03 4.88901160e+03 1.28284539e+01
v 7.76331255e+03 4.88617461e+03 1.21161036e+01
v 7.77421545e+03 4.88660351e+03 1.27899210e+01
v 7.77515116e+03 4.88863033e+03 1.26862608e+01
v 7.77476482e+03 4.89043418e+03 1.31576032e+01
v 7.75587888e+03 4.90050860e+03 1.27339846e+01
v 7.76021904e+03 4.89911557e+03 1.30428126e+01
v 7.75635227e+03 4.88777683e+03 1.25117668e+01
v 7.75728637e+03 4.88805125e+03 1.27705736e+01
v 7.75571489e+03 4.88651306e+03 1.31399022e+01
v 7.75597492e+03 4.88723997e+03 1.26971399e+01
v 7.75754893e+03 4.88766139e+03 1.33731808e+01
v 7.76888680e+03 4.89134489e+03 1.36339969e+01
v 7.77939410e+03 4.89433696e+03 2.00278347e+01
v 7.77944078e+03 4.89117049e+03 1.98277600e+01
v 7.77913494e+03 4.89506050e+03 1.91725869e+01
v 7.78074007e+03 4.89459309e+03 1.80349136e+01
v 7.77975670e+03 4.89727325e+03 1.93988276e+01
v 7.77911476e+03 4.89805566e+03 1.98068813e+01
v 7.77956349e+03 4.89526528e+03 1.91713328e+01
v 7.78122739e+03 4.89132470e+03 1.74650232e+01
v 7.77875079e+03 4.89138181e+03 1.67608469e+01
v 7.77857500e+03 4.89177786e+03 1.56810486e+01
v 7.78045231e+03 4.89181583e+03 1.56420231e+01
v 7.77904331e+03 4.89034993e+03 1.40744508e+01
v 7.78147617e+03 4.89070599e+03 1.41553199e+01
v 7.77920154e+03 4.87791550e+03 1.40690812e+01
v 7.77878984e+03 4.89155442e+03 1.46514263e+01
v 7.78142637e+03 4.89143945e+03 1.48058496e+01
v 7.77881373e+03 4.88699752e+03 1.32091711e+01
v 7.78139376e+03 4.88153195e+03 1.17966790e+01
v 7.77998357e+03 4.88258422e+03 1.17728362e+01
v 7.78138655e+03 4.88238597e+03 1.25903101e+01
v 7.77989760e+03 4.88131950e+03 1.12744938e+01
v 7.78128533e+03 4.88061839e+03 1.20124906e+01
v 7.77912961e+03 4.88328014e+03 9.63876583e+00
v 7.77854460e+03 4.88271164e+03 8.66029691e+00
v 7.77874765e+03 4.88335239e+03 8.69580830e+00
v 7.77873285e+03 4.88390807e+03 1.06449563e+01
v 7.77798428e+03 4.88381793e+03 1.24521919e+01
v 7.77949174e+03 4.88355146e+03 1.13247533e+01
v 7.78065226e+03 4.88368675e+03 1.24102719e+01
v 7.77960119e+03 4.88420836e+03 1.23844866e+01
v 7.77933813e+03 4.88608503e+03 1.25057163e+01
v 7.77907059e+03 4.88513836e+03 1.25930837e+01
v 7.75116454e+03 4.88460953e+03 9.56867240e+00
v 7.75000000e+03 4.88440956e+03 9.48366309e+00
v 7.77348532e+03 4.90622898e+03 1.20745837e+01
v 7.75000000e+03 4.88700437e+03 1.24819343e+01
v 7.76246178e+03 4.90632873e+03 1.14006792e+01
v 7.76605139e+03 4.90259560e+03 1.23484817e+01
v 7.76599809e+03 4.90649710e+03 1.14500655e+01
v 7.76263643e+03 4.90538735e+03 1.25178675e+01
v 7.76420243e+03 4.90510927e+03 1.33545028e+01
v 7.76102929e+03 4.89839744e+03 1.40740174e+01
v 7.76293907e+03 4.90342699e+03 1.27188038e+01
v 7.76344113e+03 4.89987362e+03 1.29511634e+01
v 7.76441504e+03 4.90145791e+03 1.34156354e+01
v 7.76686665e+03 4.89876695e+03 1.36845133e+01
v 7.76540950e+03 4.89930353e+03 1.30709628e+01
v 7.76679050e+03 4.89954838e+03 1.31530786e+01
v 7.77315869e+03 4.90234785e+03 1.25301400e+01
v 7.78150000e+03 4.90352830e+03 1.90644389e+01
v 7.78150000e+03 4.90531477e+03 1.81403992e+01
v 7.78150000e+03 4.88519559e+03 1.28117289e+01
v 7.78150000e+03 4.88555544e+03 1.28903194e+01
v 7.78150000e+03 4.88766427e+03 1.33729497e+01
v 7.78150000e+03 4.88563993e+03 1.28790542e+01
v 7.78150000e+03 4.88770727e+03 1.34032815e+01
v 7.78150000e+03 4.88410964e+03 1.24383230e+01
v 7.78150000e+03 4.88286422e+03 1.25546715e+01
v 7.78150000e+03 4.88158050e+03 1.17644186e+01
v 7.78150000e+03 4.88236013e+03 1.24841520e+01
v 7.78150000e+03 4.88085354e+03 1.19182919e+01
v 7.78150000e+03 4.87936979e+03 1.33769905e+01
v 7.78150000e+03 4.88034600e+03 1.23692515e+01
v 7.78150000e+03 4.88066245e+03 1.20192698e+01
v 7.78150000e+03 4.89062460e+03 1.41017578e+01
v 7.78150000e+03 4.89072158e+03 1.41170573e+01
v 7.78150000e+03 4.89143648e+03 1.48936785e+01
v 7.78150000e+03 4.89145922e+03 1.47702915e+01
v 7.78150000e+03 4.89138056e+03 1.50538286e+01
v 7.78150000e+03 4.89137042e+03 1.46002936e+01
v 7.78150000e+03 4.88782637e+03 1.34339888e+01
v 7.78150000e+03 4.87716360e+03 1.47120534e+01
v 7.78150000e+03 4.87667003e+03 1.48531691e+01
v 7.78150000e+03 4.87537241e+03 1.51307384e+01
v 7.78150000e+03 4.89009542e+03 1.40023101e+01
v 7.78150000e+03 4.89133617e+03 1.72608036e+01
v 7.78150000e+03 4.89122246e+03 1.69757050e+01
v 7.78150000e+03 4.89163384e+03 1.72942391e+01
v 7.78150000e+03 4.89337887e+03 1.74150790e+01
v 7.78150000e+03 4.89450922e+03 1.79830517e+01
v 7.78150000e+03 4.89665525e+03 1.90262241e+01
v 7.78150000e+03 4.90067696e+03 2.04412921e+01
v 7.78150000e+03 4.90172987e+03 1.99521072e+01
v 7.78150000e+03 4.89127501e+03 1.61330967e+01
v 7.78150000e+03 4.89837074e+03 1.98533976e+01
v 7.78150000e+03 4.89980910e+03 2.06714834e+01
v 7.78150000e+03 4.89944327e+03 2.04015031e+01
v 7.78150000e+03 4.89867432e+03 2.00108941e+01
v 7.76026194e+03 4.87475000e+03 1.09185206e+01
v 7.75950943e+03 4.87475000e+03 1.01600762e+01
v 7.75711678e+03 4.87475000e+03 8.90982282e+00
v 7.75693347e+03 4.87475000e+03 8.96816854e+00
v 7.75872632e+03 4.87475000e+03 9.02304370e+00
v 7.76430472e+03 4.87475000e+03 1.31823003e+01
v 7.76473650e+03 4.87475000e+03 1.32016180e+01
v 7.75381981e+03 4.87475000e+03 9.12439644e+00
v 7.75272070e+03 4.87475000e+03 9.21661751e+00
v 7.77327052e+03 4.87475000e+03 1.42828687e+01
v 7.77439470e+03 4.87475000e+03 1.45534508e+01
v 7.77278258e+03 4.87475000e+03 1.45121359e+01
v 7.75849722e+03 4.87475000e+03 8.69778282e+00
v 7.75082241e+03 4.87475000e+03 9.02831334e+00
v 7.75028588e+03 4.87475000e+03 8.64610068e+00
v 7.75679372e+03 4.87475000e+03 9.00543055e+00
v 7.75748491e+03 4.87475000e+03 8.72164074e+00
v 7.75589113e+03 4.87475000e+03 9.84108401e+00
v 7.75494993e+03 4.87475000e+03 9.54270439e+00
v 7.76083685e+03 4.87475000e+03 1.18676607e+01
v 7.76098056e+03 4.87475000e+03 1.25514396e+01
v 7.76181103e+03 4.87475000e+03 1.27520676e+01
v 7.76351267e+03 4.87475000e+03 1.30105415e+01
v 7.76399644e+03 4.87475000e+03 1.31743971e+01
v 7.76708062e+03 4.87475000e+03 1.32860140e+01
v 7.76889750e+03 4.87475000e+03 1.35543027e+01
v 7.77103825e+03 4.87475000e+03 1.40437742e+01
v 7.77237846e+03 4.87475000e+03 1.42454400e+01
v 7.77587047e+03 4.87475000e+03 1.46980966e+01
v 7.77722144e+03 4.87475000e+03 1.48297411e+01
v 7.75141663e+03 4.87475000e+03 9.01365264e+00
v 7.75241372e+03 4.87475000e+03 9.08805927e+00
v 7.75412447e+03 4.87475000e+03 9.24216199e+00
v 7.75404501e+03 4.87475000e+03 9.18608310e+00
v 7.75000000e+03 4.87475000e+03 8.58565967e+00
v 7.77855061e+03 4.87475000e+03 1.48478105e+01
v 7.78003845e+03 4.87475000e+03 1.50249254e+01
v 7.78118963e+03 4.87475000e+03 1.52131320e+01
v 7.78108490e+03 4.87475000e+03 1.51960099e+01
v 7.78150000e+03 4.87475000e+03 1.51560085e+01
v 7.75537686e+03 4.90650000e+03 1.12399058e+01
v 7.75501593e+03 4.90650000e+03 1.12341182e+01
v 7.77656468e+03 4.90650000e+03 1.74409773e+01
v 7.77530593e+03 4.90650000e+03 1.74181200e+01
v 7.77348540e+03 4.90650000e+03 1.48416289e+01
v 7.77345366e+03 4.90650000e+03 1.53191845e+01
v 7.76880459e+03 4.90650000e+03 1.13832398e+01
v 7.76848196e+03 4.90650000e+03 1.13874679e+01
v 7.77038425e+03 4.90650000e+03 1.14845916e+01
v 7.77301613e+03 4.90650000e+03 1.15043209e+01
v 7.77247172e+03 4.90650000e+03 1.14828976e+01
v 7.76499450e+03 4.90650000e+03 1.28711453e+01
v 7.76406312e+03 4.90650000e+03 1.32981833e+01
v 7.77338165e+03 4.90650000e+03 1.19043547e+01
v 7.76251105e+03 4.90650000e+03 1.24552062e+01
v 7.76295966e+03 4.90650000e+03 1.26951910e+01
v 7.76599611e+03 4.90650000e+03 1.14510096e+01
v 7.76599699e+03 4.90650000e+03 1.14529506e+01
v 7.76599870e+03 4.90650000e+03 1.14494139e+01
v 7.76600075e+03 4.90650000e+03 1.14498768e+01
v 7.76601270e+03 4.90650000e+03 1.14490326e+01
v 7.75646065e+03 4.90650000e+03 1.12879617e+01
v 7.75581543e+03 4.90650000e+03 1.12729931e+01
v 7.75545143e+03 4.90650000e+03 1.12755900e+01
v 7.76245823e+03 4.90650000e+03 1.16354377e+01
v 7.76569306e+03 4.90650000e+03 1.24708992e+01
v 7.76001440e+03 4.90650000e+03 1.13462592e+01
v 7.76200948e+03 4.90650000e+03 1.13567997e+01
v 7.75756973e+03 4.90650000e+03 1.12739636e+01
v 7.76233348e+03 4.90650000e+03 1.13387509e+01
v 7.76250806e+03 4.90650000e+03 1.14212127e+01
v 7.75000000e+03 4.90650000e+03 1.40841843e+01
v 7.75091856e+03 4.90650000e+03 1.34850181e+01
v 7.75183009e+03 4.90650000e+03 1.30143272e+01
v 7.77393360e+03 4.90650000e+03 1.74667208e+01
v 7.77337258e+03 4.90650000e+03 1.76695868e+01
v 7.77810773e+03 4.90650000e+03 1.75091112e+01
v 7.77340885e+03 4.90650000e+03 1.64284331e+01
v 7.77433714e+03 4.90650000e+03 1.73585697e+01
v 7.75353035e+03 4.90650000e+03 1.19336723e+01
v 7.77347625e+03 4.90650000e+03 1.24048814e+01
v 7.77948238e+03 4.90650000e+03 1.75567115e+01
v 7.78027192e+03 4.90650000e+03 1.75325052e+01
v 7.78101057e+03 4.90650000e+03 1.75294019e+01
v 7.77912823e+03 4.90650000e+03 1.75180928e+01
v 7.78087335e+03 4.90650000e+03 1.75299784e+01
v 7.78150000e+03 4.90650000e+03 1.81442386e+01
vt 0.0041039814 0.78584099
vt 0.023392951 0.77322257
vt 0.014544148 0.79561818
vt 0.035319552 0.74763209
vt 0.036689322 0.78414077
vt 0.064273216 0.76299632
vt 0.028891897 0.80637157
vt 0.063679188 0.71017945
vt 0.065323375 0.82961982
vt 0.040922035 0.81584376
vt 0.13016987 0.74329126
vt 0.10607606 0.64993036
vt 0.21126807 0.79934311
vt 0.14446743 0.59551632
vt 0.10916194 0.859882
vt 0.15149537 0.59978426
vt 0.17421387 0.88421577
vt 0.087522931 0.84993237
vt 0.178443 0.61666805
vt 0.13868752 0.88278049
vt 0.22253364 0.89124978
vt 0.19883519 0.62880945
vt 0.15821755 0.89682752
vt 0.23390913 0.81465161
vt 0.20670286 0.91161722
vt 0.20000687 0.70331872
vt 0.18536989 0.91335857
vt 0.2446638 0.79601043
vt 0.20300013 0.6314435
vt 0.16364108 0.73844439
vt 0.31295466 0.81266886
vt 0.1998644 0.92547631
vt 0.23503958 0.65194273
vt 0.15577936 0.75038052
vt 0.17931339 0.7520014
vt 0.36651552 0.73312038
vt 0.26551035 0.88103396
vt 0.2348765 0.65178394
vt 0.23507932 0.6519351
vt 0.21111646 0.73663557
vt 0.37121454 0.73607874
vt 0.35818619 0.72799754
vt 0.24426696 0.92437559
vt 0.24208599 0.90887833
vt 0.23503077 0.65188575
vt 0.23900342 0.6606915
vt 0.23509069 0.65193021
vt 0.24600421 0.69469398
vt 0.17675103 0.77592164
vt 0.37217718 0.73646069
vt 0.25516769 0.73207349
vt 0.32848859 0.80634862
vt 0.22058229 0.90875757
vt 0.23505716 0.65189934
vt 0.24802148 0.66881502
vt 0.24750359 0.72091287
vt 0.20974204 0.76041299
vt 0.34386882 0.7189461
vt 0.3683418 0.83130181
vt 0.22224829 0.93854201
vt 0.23454176 0.92111588
vt 0.26004514 0.67898619
vt 0.26866752 0.69887829
vt 0.31231001 0.699633
vt 0.30915731 0.97850382
vt 0.23867515 0.95104307
vt 0.2742897 0.684174
vt 0.28008074 0.686315
vt 0.37683645 0.73934221
vt 0.27920848 0.68221736
vt 0.36284921 0.89646792
vt 0.25838539 0.96411186
vt 0.40790376 0.7744202
vt 0.28655496 0.6835717
vt 0.40268871 0.84452164
vt 0.27324414 0.97769135
vt 0.3960146 0.75567967
vt 0.4359504 0.80178726
vt 0.28237244 0.68084109
vt 0.29870796 0.99543178
vt 0.41796437 0.77611083
vt 0.42973188 0.78639179
vt 0.28011873 0.67994022
vt 0.44159019 0.79752463
vt 0.25516769 0.66957349
vt 0.24750359 0.65841287
vt 0.27920848 0.61971736
vt 0.62590331 0.87194955
vt 0.60421783 0.870471
vt 0.6199708 0.82208705
vt 0.64808524 0.84318244
vt 0.6299085 0.89832926
vt 0.59775221 0.83264434
vt 0.672831 0.82186973
vt 0.66393298 0.85752141
vt 0.6241256 0.94820237
vt 0.58015025 0.85192597
vt 0.60718858 0.82064098
vt 0.65412563 0.78906435
vt 0.64353448 0.9109
vt 0.59304702 0.91251338
vt 0.66248816 0.89325833
vt 0.59044105 0.86547023
vt 0.62578362 0.80086923
vt 0.70720011 0.81539869
vt 0.65117985 0.93347597
vt 0.58235395 0.94256133
vt 0.56754631 0.91136205
vt 0.68878978 0.8772831
vt 0.57294196 0.88480484
vt 0.56871009 0.87244272
vt 0.6300748 0.78503716
vt 0.66499692 0.77060336
vt 0.71958953 0.8289907
vt 0.67141479 0.90259534
vt 0.64066434 0.94866133
vt 0.6626668 0.91687918
vt 0.57465559 0.97710186
vt 0.67835903 0.89307469
vt 0.70544881 0.85034662
vt 0.64883864 0.77591515
vt 0.73874086 0.79301822
vt 0.73783743 0.80411553
vt 0.67521667 0.89994287
vt 0.63031697 0.96246129
vt 0.58134431 0.98144591
vt 0.54474854 0.95047891
vt 0.52948529 0.92698252
vt 0.53078026 0.90109706
vt 0.65105069 0.75828218
vt 0.72579312 0.76180506
vt 0.61873651 0.97951394
vt 0.53643447 0.87185448
vt 0.67504162 0.74294531
vt 0.74119866 0.79949492
vt 0.68854553 0.73656404
vt 0.7556178 0.76087677
vt 0.61059225 0.99198353
vt 0.53150928 0.93443215
vt 0.51626164 0.92051721
vt 0.51017439 0.8649739
vt 0.56359476 0.85915929
vt 0.74359846 0.7962563
vt 0.71351463 0.73666489
vt 0.76706856 0.75898969
vt 0.7400741 0.73478168
vt 0.60977715 0.99323148
vt 0.52721733 0.92899191
vt 0.5129841 0.89964509
vt 0.51477653 0.92099005
vt 0.52241695 0.85231078
vt 0.54746711 0.84872001
vt 0.74736232 0.78962439
vt 0.69180381 0.71479326
vt 0.76060605 0.76954931
vt 0.76817775 0.75052166
vt 0.77264023 0.73492151
vt 0.59892774 0.99191052
vt 0.52462709 0.92683589
vt 0.51215619 0.85098898
vt 0.503703 0.88433921
vt 0.56747973 0.82958138
vt 0.68059516 0.71941888
vt 0.70134854 0.70928466
vt 0.73696578 0.72036457
vt 0.76964009 0.70335758
vt 0.60736012 0.99582624
vt 0.52904719 0.83301216
vt 0.6838311 0.70728904
vt 0.71829265 0.70853472
vt 0.75593239 0.71409023
vt 0.77848792 0.71945339
vt 0.73982769 0.70742035
vt 0.78456861 0.69979817
vt 0.77588129 0.68797255
vt 0.78634769 0.69412351
vt 0.23995678 0.28883326
vt 0.25544158 0.29669756
vt 0.26079011 0.31419271
vt 0.24714993 0.31065929
vt 0.26754379 0.30960572
vt 0.25161394 0.33150715
vt 0.20729806 0.29514533
vt 0.23521571 0.35530472
vt 0.2201734 0.28121006
vt 0.20950341 0.33577639
vt 0.21300091 0.36683631
vt 0.20929767 0.28028238
vt 0.21958186 0.2724849
vt 0.17454593 0.34014297
vt 0.21639116 0.38443518
vt 0.1948428 0.27772772
vt 0.1344614 0.4006936
vt 0.18662053 0.30625981
vt 0.14673574 0.37995595
vt 0.15861951 0.43369061
vt 0.19609264 0.29239237
vt 0.20703495 0.2667672
vt 0.1735488 0.32810742
vt 0.15201278 0.35311514
vt 0.1966088 0.41445565
vt 0.18245952 0.28306717
vt 0.19341348 0.26498693
vt 0.13663618 0.42706251
vt 0.13300969 0.38838804
vt 0.15981258 0.31208009
vt 0.1764213 0.44317609
vt 0.18027391 0.26054925
vt 0.14322861 0.44503838
vt 0.11662319 0.41708803
vt 0.14731093 0.33450109
vt 0.16808639 0.30027735
vt 0.13025616 0.35872024
vt 0.16616639 0.45525092
vt 0.18111089 0.28221142
vt 0.11126263 0.43435711
vt 0.10143891 0.40650862
vt 0.11329445 0.37591606
vt 0.19049561 0.46374625
vt 0.16963558 0.26355863
vt 0.18479334 0.43948334
vt 0.15874994 0.2771365
vt 0.090097055 0.42478597
vt 0.19132502 0.44628066
vt 0.1549494 0.25747758
vt 0.16676094 0.30370593
vt 0.092123181 0.40899742
vt 0.19475193 0.4295519
vt 0.2047682 0.45172828
vt 0.14413059 0.26378447
vt 0.15528049 0.31184572
vt 0.064766429 0.39971989
vt 0.20696414 0.43315095
vt 0.21656503 0.47479987
vt 0.12988432 0.26422095
vt 0.14598149 0.25292307
vt 0.12116902 0.32597429
vt 0.06109485 0.41486472
vt 0.084105588 0.38944793
vt 0.22046928 0.41205108
vt 0.2306135 0.46531808
vt 0.2345864 0.40623462
vt 0.10821883 0.28205276
vt 0.12946634 0.25251627
vt 0.13920556 0.24425215
vt 0.12849142 0.34171557
vt 0.045286253 0.40879869
vt 0.070716023 0.37407809
vt 0.10081135 0.38383687
vt 0.20457901 0.39904839
vt 0.25861448 0.44280577
vt 0.22957584 0.47859675
vt 0.12257549 0.25195634
vt 0.14227965 0.34095353
vt 0.10414815 0.36056572
vt 0.098883763 0.3378256
vt 0.038759369 0.39011198
vt 0.11163392 0.3858456
vt 0.2231669 0.3911556
vt 0.24192142 0.46527272
vt 0.11413508 0.25614381
vt 0.061522789 0.35309362
vt 0.021636337 0.40505838
vt 0.26608068 0.4759807
vt 0.24518159 0.48601419
vt 0.098575197 0.28153551
vt 0.11530146 0.24150717
vt 0.069719031 0.32418072
vt 0.022516062 0.39738923
vt 0.055052504 0.34848905
vt 0.088584282 0.29486036
vt 0.10162449 0.26206535
vt 0.0035241228 0.3917256
vt 0.023758346 0.37567455
vt 0.26504979 0.48545957
vt 0.078586467 0.27737272
vt 0.085796587 0.26371413
vt 0.10175039 0.24132764
vt 0.0089374287 0.37724328
vt 0.25690433 0.49554646
vt 0.096088618 0.25450981
vt 0.6284914 0.59171557
vt 0.64227962 0.59095353
vt 0.6116339 0.63584566
vt 0.38875306 0.41646153
vt 0.40293887 0.37904847
vt 0.39868882 0.45858282
vt 0.38593492 0.45731574
vt 0.38968831 0.38990134
vt 0.44434538 0.40970087
vt 0.38398623 0.51103604
vt 0.46461177 0.5182603
vt 0.42328 0.3792299
vt 0.40208057 0.51389837
vt 0.4677664 0.48889095
vt 0.44919679 0.3804422
vt 0.38090158 0.56894016
vt 0.47779632 0.47666705
vt 0.42534801 0.59039521
vt 0.38687262 0.62088692
vt 0.49315923 0.43479967
vt 0.40831581 0.62088048
vt 0.46885872 0.59560287
vt 0.39317894 0.62088609
vt 0.37810493 0.62088752
vt 0.50503325 0.43348593
vt 0.42798376 0.62087393
vt 0.50504398 0.52982974
vt 0.5050354 0.46700615
vt 0.5050534 0.54628712
vt 0.50503767 0.51626682
vt 0.45209333 0.62086535
vt 0.50503719 0.49380141
vt 0.50506985 0.57439768
vt 0.50503808 0.51055378
vt 0.46803868 0.62086004
vt 0.50503743 0.4985432
vt 0.48590878 0.62085408
vt 0.47357211 0.62085783
vt 0.49530619 0.62085104
vt 0.49745038 0.62085038
vt 0.5050866 0.60232174
vt 0.50509256 0.62084103
vt 0.88112193 0.87771887
vt 0.87036467 0.88504153
vt 0.81413025 0.86651558
vt 0.92375678 0.88815039
vt 0.79951638 0.87391675
vt 0.93424511 0.90971309
vt 0.76085299 0.86385536
vt 0.86471897 0.9093678
vt 0.94095659 0.90673947
vt 0.75399023 0.85431153
vt 0.77728432 0.91134238
vt 0.94700277 0.92093128
vt 0.96859241 0.90176541
vt 0.90883911 0.96732318
vt 0.75632489 0.86126399
vt 0.75700682 0.90687174
vt 0.80487442 0.97199839
vt 0.9472881 0.94490981
vt 0.95493662 0.90624624
vt 0.85613763 0.93302977
vt 0.75693178 0.86919796
vt 0.75680763 0.91418433
vt 0.75630635 0.95033354
vt 0.9719187 0.93039232
vt 0.98642927 0.91163146
vt 0.85899836 0.99597496
vt 0.75652933 0.93123078
vt 0.97911 0.89423549
vt 0.9872334 0.92056483
vt 0.78119463 0.60194582
vt 0.76128238 0.60657394
vt 0.76013201 0.55879796
vt 0.79006648 0.57462019
vt 0.80108035 0.62106454
vt 0.70880669 0.60333645
vt 0.74814004 0.51760679
vt 0.8009696 0.60204387
vt 0.72888398 0.5063293
vt 0.80632806 0.54330289
vt 0.82071352 0.59093481
vt 0.81512141 0.61293876
vt 0.67739677 0.54854941
vt 0.76536691 0.49851519
vt 0.69156361 0.49300307
vt 0.69665265 0.60401511
vt 0.78629535 0.51102722
vt 0.71246713 0.47987485
vt 0.66247761 0.50922304
vt 0.68162745 0.59884953
vt 0.68983036 0.48122448
vt 0.6427573 0.53541899
vt 0.67390549 0.49211901
vt 0.67130071 0.58035648
vt 0.64747149 0.50133902
vt 0.661753 0.54856145
vt 0.67577684 0.60455644
vt 0.63416851 0.51791012
vt 0.65509206 0.57140344
vt 0.63889611 0.54350877
vt 0.62816173 0.52563083
vt 0.8981936 0.41008085
vt 0.88372582 0.41278738
vt 0.8798793 0.38321835
vt 0.88424754 0.42719918
vt 0.87412381 0.41061878
vt 0.908373 0.45196003
vt 0.86702687 0.3912766
vt 0.86435741 0.40683591
vt 0.88389176 0.44233972
vt 0.85688215 0.37548876
vt 0.89212018 0.46411836
vt 0.8608411 0.35005611
vt 0.82626784 0.37109721
vt 0.87549567 0.46973956
vt 0.82933152 0.34789115
vt 0.83864909 0.34746605
vt 0.85119337 0.4674316
vt 0.89259952 0.47649837
vt 0.82143611 0.42064941
vt 0.81093556 0.31831211
vt 0.87115765 0.48723626
vt 0.84883952 0.4862538
vt 0.83163548 0.46239132
vt 0.78463328 0.37332696
vt 0.82266873 0.31915188
vt 0.8215273 0.44062793
vt 0.80865091 0.42591393
vt 0.77181226 0.33457738
vt 0.81278872 0.3065325
vt 0.85285568 0.49618077
vt 0.77288067 0.37981576
vt 0.75343734 0.34740007
vt 0.79796177 0.31676519
vt 0.79692709 0.30561614
vt 0.55175382 0.66208196
vt 0.5369339 0.68445909
vt 0.54888922 0.6620822
vt 0.55659646 0.67652363
vt 0.53329062 0.67328817
vt 0.57756138 0.67171478
vt 0.56042981 0.68367255
vt 0.54670525 0.66208243
vt 0.52867192 0.69012809
vt 0.55750751 0.6620822
vt 0.53259528 0.66207761
vt 0.50384367 0.66466451
vt 0.57332504 0.66207731
vt 0.57951307 0.69014192
vt 0.51335961 0.69657207
vt 0.59939605 0.70074832
vt 0.57941866 0.70454186
vt 0.51789135 0.66208577
vt 0.48619971 0.66961241
vt 0.50499606 0.66209328
vt 0.49558225 0.68900466
vt 0.50023669 0.6620962
vt 0.58555108 0.71137893
vt 0.50375491 0.66209435
vt 0.50997394 0.7131846
vt 0.48507443 0.68954718
vt 0.48306221 0.66210073
vt 0.59584117 0.72967935
vt 0.46434739 0.67721283
vt 0.47826675 0.66210377
vt 0.57768887 0.73347765
vt 0.6148563 0.71669948
vt 0.50254917 0.72536278
vt 0.45055196 0.68405139
vt 0.46268776 0.66210961
vt 0.58200818 0.74189448
vt 0.62237841 0.73191988
vt 0.5217495 0.73238146
vt 0.49160087 0.71908587
vt 0.4405683 0.69670945
vt 0.45340303 0.66211247
vt 0.58959365 0.74174726
vt 0.61690718 0.74281085
vt 0.51223779 0.74686897
vt 0.49038845 0.73818171
vt 0.47082621 0.72235221
vt 0.44058233 0.74166167
vt 0.44502282 0.66211951
vt 0.60118973 0.74449933
vt 0.63118482 0.74706304
vt 0.47241017 0.73072362
vt 0.44055647 0.66212165
vt 0.46975756 0.73886037
vt 0.90185863 0.81256253
vt 0.89309818 0.80779648
vt 0.894418 0.77032197
vt 0.90517002 0.75088882
vt 0.89703155 0.85474628
vt 0.92214912 0.77151352
vt 0.87844002 0.85479844
vt 0.92173684 0.8529281
vt 0.91813987 0.80055743
vt 0.93043685 0.75698191
vt 0.8947472 0.87018764
vt 0.90730494 0.86916614
vt 0.92633492 0.78630495
vt 0.94685704 0.74882609
vt 0.91777772 0.87174308
vt 0.96011508 0.8116315
vt 0.9601084 0.77801478
vt 0.96011508 0.81095994
vt 0.96010727 0.77239293
vt 0.92873216 0.74673027
vt 0.95975173 0.85847837
vt 0.96011537 0.81349218
vt 0.96010894 0.77933502
vt 0.96010488 0.75542903
vt 0.93640834 0.73160958
vt 0.95897186 0.86993158
vt 0.95832235 0.72849554
vt 0.96012217 0.84893972
vt 0.96009761 0.73596811
vt 0.95843726 0.71516037
vt 0.96012402 0.85720706
vt 0.96009564 0.72809243
vt 0.96009767 0.71591866
vt 0.96012437 0.85872227
vt 0.47159711 0.87852561
vt 0.45426294 0.87963289
vt 0.46591026 0.85811365
vt 0.4870148 0.85964954
vt 0.45465139 0.89815575
vt 0.4756256 0.84300423
vt 0.49005839 0.87115943
vt 0.50443405 0.83141929
vt 0.45883024 0.91050375
vt 0.48471105 0.82417053
vt 0.52469194 0.81427711
vt 0.484988 0.89717537
vt 0.44213226 0.89997631
vt 0.49947593 0.80792642
vt 0.50530368 0.864528
vt 0.49799013 0.87857455
vt 0.47112355 0.9173097
vt 0.44988579 0.88051295
vt 0.44209355 0.91729748
vt 0.48484272 0.79934716
vt 0.44281536 0.88494903
vt 0.48825029 0.78425837
vt 0.46979979 0.93318057
vt 0.447873 0.87214476
vt 0.4427436 0.95162708
vt 0.47508809 0.95275426
vt 0.49377173 0.97906655
vt 0.44699255 0.93814343
vt 0.49637991 0.96446121
vt 0.41054139 0.93653393
vt 0.52622956 0.98261166
vt 0.40074843 0.92905498
vt 0.51808286 0.99665123
vt 0.42252767 0.92501473
vt 0.40799296 0.91858459
vt 0.38845497 0.90674555
vt 0.37929294 0.91370499
vt 0.38403037 0.89784288
vt 0.86617595 0.66377306
vt 0.84647602 0.67476934
vt 0.8492437 0.64751005
vt 0.84952766 0.69310987
vt 0.83392775 0.65378368
vt 0.81679535 0.66943383
vt 0.87264103 0.68418324
vt 0.81774819 0.68843222
vt 0.87547243 0.70916474
vt 0.87868047 0.66746467
vt 0.81791621 0.65646636
vt 0.82919651 0.69480461
vt 0.88851011 0.69854784
vt 0.88603437 0.68076485
vt 0.89911681 0.74627393
vt 0.88925123 0.66570842
vt 0.91536701 0.68030739
vt 0.92712975 0.70984983
vt 0.93033463 0.66878849
vt 0.93132305 0.70270562
vt 0.93144327 0.67277837
vt 0.93136477 0.68963611
vt 0.93139488 0.70672345
vt 0.9314813 0.67015314
vt 0.93149722 0.6681931
vt 0.70078117 0.91014266
vt 0.73036748 0.9099198
vt 0.73500276 0.95426428
vt 0.68671006 0.96231902
vt 0.67476583 0.95004946
vt 0.62917691 0.9638986
vt 0.0033778357 0.99594539
vt 0.10479992 0.99561071
vt 0.046378437 0.99629128
vt 0.061892733 0.88347906
vt 0.016119499 0.85917389
vt 0.022078406 0.85560352
vt 0.047847677 0.86378878
vt 0.05121446 0.91730726
vt 0.017682794 0.85408354
vt 0.064533167 0.87381476
vt 0.0046924856 0.90209758
vt 0.065799817 0.91081166
vt 0.096436799 0.91883934
vt 0.10470988 0.93337923
vt 0.071805693 0.62097758
vt 0.089823499 0.63770711
vt 0.065406643 0.6344825
vt 0.015204469 0.63837886
vt 0.081293523 0.6415323
vt 0.026474068 0.65126234
vt 0.0094603309 0.6280933
vt 0.031337999 0.67137086
vt 0.0035576469 0.65182477
vt 0.043833639 0.68343657
vt 0.080510423 0.6730988
vt 0.011840551 0.68448853
vt 0.72193319 0.98227388
vt 0.74123043 0.96577972
vt 0.73869026 0.9858706
vt 0.75386387 0.98318923
vt 0.75458127 0.95129633
vt 0.75428987 0.99605256
vt 0.7609247 0.95984834
vt 0.76521343 0.9871695
vt 0.78231722 0.99460322
vt 0.79073167 0.96720034
vt 0.79805624 0.98331612
vt 0.40733001 0.96214545
vt 0.41371283 0.97764611
vt 0.37832391 0.9595598
vt 0.3825357 0.94855565
vt 0.43501258 0.9830355
vt 0.39708811 0.94621831
vt 0.44820181 0.99562603
vt 0.44157669 0.97263497
vt 0.45326963 0.98164302
vt 0.36334461 0.66106892
vt 0.34441364 0.68448859
vt 0.33902955 0.66467929
vt 0.33863994 0.64973378
vt 0.32675582 0.66166115
vt 0.35274947 0.63734508
vt 0.31547004 0.63756806
vt 0.3256658 0.62735802
vt 0.36629081 0.63347512
vt 0.35296017 0.62033617
vt 0.37674618 0.64254117
vt 0.36186108 0.63229114
vt 0.37779665 0.63016897
vt 0.37058607 0.66148895
vt 0.38725677 0.63404095
vt 0.37591395 0.66039801
vt 0.38791171 0.648085
vt 0.38567999 0.6634531
vt 0.0032100494 0.57443064
vt 0.023659721 0.55346173
vt 0.037187912 0.57623649
vt 0.010332514 0.5921452
vt 0.038761813 0.55445611
vt 0.028269362 0.59859276
vt 0.0033096306 0.60117495
vt 0.062575892 0.56079924
vt 0.04714765 0.60340023
vt 0.058674604 0.59210908
vt 0.030687666 0.61507654
vt 0.068456173 0.57520664
vt 0.048677929 0.61670101
vt 0.071774341 0.60213369
vt 0.068961561 0.6210711
vt 0.81808847 0.85089159
vt 0.82329518 0.86433512
vt 0.81706595 0.86273307
vt 0.84024513 0.85788655
vt 0.83402336 0.87070942
vt 0.84015739 0.84020436
vt 0.82365549 0.82464111
vt 0.84904569 0.84807372
vt 0.81579912 0.83947778
vt 0.83731872 0.82229942
vt 0.85997772 0.84093034
vt 0.84835118 0.86780858
vt 0.82425916 0.81553304
vt 0.84867376 0.82756996
vt 0.84345603 0.8041271
vt 0.86651254 0.81957722
vt 0.87218153 0.83011663
vt 0.8600685 0.80433345
vt 0.94201535 0.96020752
vt 0.96265662 0.95857704
vt 0.95932525 0.97206748
vt 0.94052148 0.9965713
vt 0.98412627 0.962924
vt 0.96317279 0.99502563
vt 0.99403042 0.98901975
vt 0.99770427 0.97722387
vt 0.99423152 0.96246219
vt 0.50628555 0.99652004
vt 0.4753361 0.99312788
vt 0.46036997 0.97595131
vt 0.45791984 0.9918499
vt 0.45774212 0.97945112
vt 0.45790064 0.97601926
vt 0.14850615 0.93408799
vt 0.17107578 0.93772966
vt 0.13551268 0.93628979
vt 0.16121626 0.95169371
vt 0.14199352 0.94541025
vt 0.15193476 0.96511483
vt 0.1293211 0.95832777
vt 0.37808779 0.96525705
vt 0.3704648 0.94464159
vt 0.38267818 0.93352503
vt 0.34831443 0.94541937
vt 0.3851952 0.92112499
vt 0.34882152 0.93445116
vt 0.53537405 0.96977001
vt 0.57460028 0.99692392
vt 0.55400097 0.98779845
vt 0.54799932 0.95801014
vt 0.33647674 0.97319472
vt 0.34887579 0.98207533
vt 0.34061041 0.99605614
vt 0.31667876 0.97696859
vt 0.662875 0.98063546
vt 0.6459614 0.99673778
vt 0.62967336 0.98641598
vt 0.56599766 0.99569136
vt 0.54284334 0.99583179
vt 0.53518969 0.97708917
vt 0.70839536 0.97612792
vt 0.72143584 0.99539489
vt 0.70687115 0.99623543
vt 0.6908251 0.98163199
vt 0.35756886 0.96641231
vt 0.35537735 0.98178136
vt 0.34803176 0.99057716
vt 0.35843408 0.99575603
vt 0.013456644 0.9969998
vt 0.0043484098 0.9677434
vt 0.02216173 0.98593885
vt 0.9198488 0.98127478
vt 0.90981585 0.97474211
vt 0.93088704 0.97259963
vt 0.9355979 0.97666478
vt 0.9095161 0.99677753
vt 0.91937184 0.97089887
vt 0.93271255 0.990924
vt 0.93678164 0.98080665
vt 0.93613732 0.98442787
vt 0.37357444 0.99620008
vt 0.36378789 0.98439157
vt 0.36417678 0.98376465
vt 0.3731544 0.99265611
vt 0.37438169 0.99528575
usemtl Tile_+038_+020_L19_000200_0
f 60/505 55/506 359/507
f 58/724 59/725 22/726
f 26/517 25/525 59/522
f 356/518 357/524 32/526
f 21/729 22/726 59/725
f 357/524 356/518 23/514
f 20/727 19/731 55/730
f 149/1 161/2 130/3
f 197/620 215/621 198/622
f 252/177 254/178 259/179
f 172/88 181/89 229/90
f 165/353 135/354 313/355
f 370/35 368/40 158/49
f 242/703 304/704 243/705
f 319/384 318/385 307/386
f 227/93 229/90 181/89
f 282/359 287/366 112/362
f 182/600 276/601 183/602
f 279/162 292/152 288/168
f 239/235 204/243 237/253
f 80/403 243/398 2/396
f 206/164 265/154 260/169
f 266/192 253/188 223/183
f 412/157 250/166 413/172
f 414/418 232/419 415/420
f 195/624 232/626 194/623
f 98/432 93/442 91/438
f 214/653 212/654 237/655
f 206/454 260/467 205/460
f 248/170 191/173 264/165
f 260/208 266/192 261/215
f 240/272 242/277 241/281
f 197/657 212/654 211/656
f 295/529 305/530 108/531
f 310/611 118/612 301/613
f 168/227 106/217 155/223
f 178/324 177/325 372/326
f 323/224 166/233 148/229
f 164/11 163/6 178/8
f 144/686 143/687 68/688
f 157/713 156/714 365/715
f 141/44 159/37 72/43
f 290/211 312/200 305/213
f 47/285 50/286 38/287
f 170/221 12/228 323/224
f 151/543 147/544 179/545
f 110/196 118/201 138/207
f 129/260 130/265 132/252
f 314/356 165/353 313/355
f 173/122 175/131 174/137
f 148/229 152/234 154/219
f 127/210 106/217 311/205
f 115/92 116/96 181/89
f 115/92 114/100 116/96
f 123/232 104/257 102/248
f 299/376 300/378 271/365
f 71/273 122/269 142/263
f 119/255 102/248 322/262
f 97/671 101/672 82/673
f 82/673 83/675 78/677
f 98/432 91/438 85/436
f 419/439 85/436 420/444
f 8/59 73/52 452/50
f 67/72 28/65 63/76
f 24/510 23/514 6/512
f 30/75 8/59 31/78
f 318/385 321/388 307/386
f 70/400 76/406 75/402
f 57/513 76/516 64/521
f 64/405 76/406 70/400
f 8/59 29/71 28/65
f 368/40 364/48 366/56
f 142/692 140/690 137/691
f 15/328 48/331 14/334
f 104/257 68/247 142/263
f 36/349 37/340 40/343
f 372/326 177/325 15/328
f 361/26 164/11 458/22
f 177/325 48/331 15/328
f 372/12 164/11 178/8
f 372/326 15/328 358/330
f 164/11 372/12 461/14
f 461/333 358/330 465/338
f 466/68 364/48 467/67
f 364/48 363/63 366/56
f 366/56 11/51 367/57
f 11/85 366/86 360/87
f 362/33 361/26 459/29
f 370/35 371/30 361/26
f 164/11 361/26 371/30
f 369/34 164/11 371/30
f 369/34 371/30 370/35
f 158/49 368/40 367/57
f 367/57 317/28 156/13
f 317/707 365/708 156/709
f 11/51 317/28 367/57
f 317/28 11/51 473/42
f 316/31 317/28 474/36
f 366/680 363/681 360/682
f 360/682 363/681 466/683
f 463/55 361/26 477/46
f 361/26 362/33 469/39
f 478/64 360/70 479/74
f 314/356 315/360 165/353
f 114/100 117/102 421/115
f 310/250 309/259 13/240
f 271/365 169/358 309/368
f 169/242 13/240 309/259
f 135/251 148/229 169/242
f 168/227 103/239 160/249
f 108/531 305/530 107/533
f 320/391 321/388 105/387
f 120/389 105/387 319/384
f 317/28 316/31 143/21
f 316/31 73/52 72/43
f 143/21 159/37 141/44
f 318/385 319/384 105/387
f 307/268 322/262 319/270
f 322/262 302/256 119/255
f 302/256 217/237 119/255
f 291/199 296/190 312/200
f 303/393 306/390 320/391
f 297/282 295/283 108/284
f 321/388 320/391 306/390
f 204/243 302/256 322/262
f 307/268 204/243 322/262
f 222/194 291/199 202/206
f 111/195 296/190 272/186
f 167/187 109/193 272/186
f 279/604 280/606 273/603
f 222/194 223/183 296/190
f 294/231 295/254 297/246
f 305/213 312/200 311/205
f 297/246 119/255 217/237
f 109/193 111/195 272/186
f 290/532 305/530 295/529
f 297/246 108/258 119/255
f 284/638 285/639 289/640
f 313/355 282/359 314/356
f 136/471 112/472 286/473
f 111/195 311/205 312/200
f 301/191 118/201 110/196
f 169/358 313/355 135/354
f 167/187 301/191 110/196
f 146/364 131/357 315/360
f 12/618 171/615 310/611
f 314/356 282/359 112/362
f 299/376 271/365 308/372
f 301/191 167/187 226/184
f 308/372 301/379 299/376
f 274/361 313/355 169/358
f 217/237 201/222 294/231
f 299/376 226/381 300/378
f 299/376 301/379 226/381
f 312/200 290/211 291/199
f 203/536 202/538 290/532
f 294/534 203/536 290/532
f 222/194 202/206 216/212
f 258/98 229/90 227/93
f 290/532 295/529 294/534
f 297/246 217/237 294/231
f 204/243 298/271 220/266
f 303/393 243/398 304/399
f 303/393 320/391 243/398
f 2/396 243/398 320/391
f 303/393 298/395 307/386
f 312/200 296/190 111/195
f 321/388 306/390 307/386
f 298/271 204/243 307/268
f 298/271 304/276 220/266
f 270/374 300/378 226/381
f 217/237 302/256 204/243
f 220/266 240/272 221/261
f 291/199 222/194 296/190
f 290/211 202/206 291/199
f 226/381 224/382 270/374
f 274/608 275/607 284/609
f 282/610 274/608 284/609
f 274/361 169/358 271/365
f 287/643 282/644 283/641
f 287/366 286/369 112/362
f 284/693 278/694 285/695
f 284/638 283/641 282/644
f 284/693 280/696 278/694
f 288/697 285/695 278/694
f 281/197 222/194 219/202
f 270/374 256/380 257/377
f 210/113 255/99 254/121
f 252/177 225/180 223/183
f 276/601 279/604 273/603
f 275/607 273/603 280/606
f 279/698 288/697 278/694
f 284/609 275/607 280/606
f 278/694 280/696 279/698
f 276/142 182/110 277/133
f 273/603 275/607 184/605
f 182/110 183/111 180/103
f 181/89 180/103 184/97
f 228/367 269/371 258/375
f 167/187 272/186 225/180
f 271/365 300/378 270/374
f 257/377 269/371 270/374
f 224/182 225/180 259/179
f 222/194 216/212 219/202
f 269/371 271/365 270/374
f 270/374 224/382 256/380
f 259/383 256/380 224/382
f 274/361 271/365 228/367
f 227/373 228/367 258/375
f 176/136 265/154 249/144
f 201/222 261/215 203/226
f 266/192 281/197 219/202
f 223/183 272/186 296/190
f 265/154 176/136 267/163
f 223/183 281/197 266/192
f 201/222 217/237 204/243
f 253/188 251/185 223/183
f 210/113 189/105 255/99
f 175/131 249/144 199/146
f 261/215 205/220 260/208
f 258/375 269/371 257/377
f 229/90 258/98 257/104
f 227/93 181/89 184/97
f 229/90 188/94 190/91
f 255/99 257/104 256/112
f 256/181 259/179 254/178
f 254/121 255/99 256/112
f 255/99 188/94 229/90
f 257/104 255/99 229/90
f 259/179 225/180 252/177
f 252/130 210/113 254/121
f 199/146 249/144 264/165
f 268/189 253/188 176/198
f 268/189 251/185 253/188
f 252/177 251/185 268/189
f 260/169 265/154 267/163
f 260/208 267/203 266/192
f 249/144 175/131 176/136
f 249/144 248/170 264/165
f 416/174 245/175 424/176
f 96/659 92/662 213/658
f 199/146 263/171 250/166
f 263/171 199/146 264/165
f 191/433 192/440 246/434
f 245/423 262/431 233/424
f 233/627 246/629 193/625
f 246/434 233/424 262/431
f 191/173 263/171 264/165
f 250/166 263/171 191/173
f 245/175 250/166 191/173
f 206/164 248/170 249/144
f 208/630 236/632 235/634
f 192/440 191/433 207/445
f 205/220 261/215 201/222
f 191/433 248/449 207/445
f 265/154 206/164 249/144
f 207/445 248/449 206/454
f 207/445 236/448 192/440
f 207/445 200/466 247/459
f 236/448 207/445 235/453
f 238/230 209/244 235/245
f 235/245 247/236 238/230
f 236/717 196/718 192/719
f 233/424 244/421 245/423
f 425/458 99/451 426/465
f 244/421 233/424 232/419
f 231/666 195/663 213/658
f 89/443 91/438 93/442
f 95/450 89/443 93/442
f 242/703 243/705 241/706
f 94/668 232/669 231/666
f 415/420 234/422 427/425
f 94/426 84/429 234/422
f 94/426 234/422 232/419
f 245/423 244/421 414/418
f 429/428 84/429 430/435
f 232/669 195/663 231/666
f 232/626 233/627 194/623
f 195/663 218/660 213/658
f 92/662 231/666 213/658
f 230/412 80/403 78/416
f 96/417 230/412 78/416
f 304/276 242/277 220/266
f 242/277 240/272 220/266
f 240/272 241/281 230/278
f 80/403 230/412 241/408
f 221/261 214/267 237/253
f 218/660 211/656 213/658
f 239/235 238/230 201/222
f 237/635 209/636 239/637
f 194/623 193/625 197/620
f 237/635 208/630 209/636
f 212/633 197/620 208/630
f 194/623 233/627 193/625
f 208/630 235/634 209/636
f 207/445 206/454 205/460
f 208/630 237/635 212/633
f 204/243 239/235 201/222
f 204/243 221/261 237/253
f 198/622 194/623 197/620
f 203/226 294/231 201/222
f 196/628 197/620 193/625
f 194/623 198/622 195/624
f 192/719 196/718 193/720
f 246/629 192/631 193/625
f 174/137 199/146 412/157
f 189/105 188/94 255/99
f 187/95 190/91 188/94
f 172/88 190/91 187/95
f 229/90 190/91 172/88
f 228/367 227/373 184/370
f 269/371 228/367 271/365
f 226/184 167/187 225/180
f 224/182 226/184 225/180
f 272/186 223/183 225/180
f 222/194 281/197 223/183
f 215/721 197/722 211/723
f 215/664 211/656 218/660
f 216/539 202/538 203/536
f 218/660 195/663 215/664
f 214/653 213/658 211/656
f 198/622 215/621 195/624
f 175/131 173/122 210/113
f 210/113 176/136 175/131
f 189/105 210/113 173/122
f 173/122 174/137 432/145
f 189/105 173/122 418/123
f 181/89 172/88 115/92
f 115/92 172/88 187/95
f 187/95 188/94 189/105
f 187/95 189/105 436/114
f 185/101 186/108 181/89
f 116/96 185/101 181/89
f 186/108 182/110 181/89
f 184/605 183/602 273/603
f 184/97 180/103 183/111
f 180/103 181/89 182/110
f 178/8 163/6 162/4
f 162/327 43/329 177/325
f 370/699 164/700 369/701
f 370/699 158/702 164/700
f 165/353 131/357 135/354
f 154/219 323/224 148/229
f 129/260 135/251 131/264
f 165/353 315/360 131/357
f 179/477 113/475 151/481
f 126/15 134/18 154/9
f 133/548 131/553 146/547
f 138/617 171/615 170/619
f 148/229 135/251 128/241
f 108/531 106/535 168/537
f 155/223 106/217 124/216
f 156/13 157/24 143/21
f 143/21 144/25 139/17
f 144/25 68/32 145/27
f 121/279 120/274 122/269
f 103/239 168/227 123/232
f 143/21 157/24 317/28
f 367/57 156/13 158/49
f 156/574 164/575 158/576
f 316/31 159/37 143/21
f 365/715 317/716 157/713
f 72/43 159/37 316/31
f 155/23 124/20 139/17
f 143/21 139/17 156/13
f 126/15 156/13 139/17
f 156/13 126/15 154/9
f 153/5 163/6 154/9
f 154/9 163/6 164/11
f 149/336 46/342 45/332
f 47/341 39/337 43/329
f 162/4 163/6 161/2
f 48/331 177/325 43/329
f 45/332 162/327 149/336
f 153/5 161/2 163/6
f 43/329 162/327 45/332
f 146/547 147/544 133/548
f 143/21 141/44 69/53
f 152/234 128/241 132/252
f 69/53 141/44 137/61
f 141/44 72/43 142/60
f 126/209 125/204 110/196
f 154/219 134/214 138/207
f 155/223 123/232 168/227
f 71/66 142/60 72/43
f 142/710 137/711 141/712
f 160/249 108/258 168/227
f 71/273 121/279 122/269
f 68/688 140/690 142/692
f 155/23 139/17 145/27
f 149/336 53/348 46/342
f 161/2 153/5 130/3
f 152/10 132/7 153/5
f 154/9 152/10 153/5
f 147/544 51/546 133/548
f 54/347 47/341 44/335
f 147/544 151/543 51/546
f 113/475 150/482 151/481
f 53/348 149/336 133/351
f 149/280 130/265 133/275
f 147/544 146/547 179/545
f 110/196 138/207 134/214
f 135/251 129/260 128/241
f 148/229 128/241 152/234
f 131/264 133/275 130/265
f 129/260 131/264 130/265
f 128/241 129/260 132/252
f 125/204 127/210 109/193
f 145/238 123/232 155/223
f 126/209 124/216 125/204
f 124/20 126/15 139/17
f 124/216 127/210 125/204
f 123/232 145/238 68/247
f 145/27 139/17 144/25
f 142/263 122/269 104/257
f 66/392 120/389 121/394
f 120/274 104/257 122/269
f 104/257 123/232 68/247
f 108/258 160/249 119/255
f 103/239 102/248 119/255
f 311/205 111/195 109/193
f 117/102 187/95 438/109
f 187/95 117/102 115/92
f 116/96 114/100 440/106
f 117/102 114/100 115/92
f 13/240 169/242 166/233
f 169/242 148/229 166/233
f 112/472 136/471 113/475
f 118/612 310/611 171/615
f 311/205 109/193 127/210
f 118/612 171/615 138/617
f 110/196 109/193 167/187
f 106/535 108/531 107/533
f 104/257 120/274 319/270
f 160/249 103/239 119/255
f 319/270 322/262 104/257
f 120/389 66/392 105/387
f 66/392 320/391 105/387
f 322/262 102/248 104/257
f 17/588 90/589 81/590
f 88/446 85/436 89/443
f 95/450 100/455 83/461
f 85/436 88/446 442/452
f 90/589 97/592 81/590
f 17/464 89/443 86/463
f 100/679 96/678 83/675
f 98/432 84/429 94/426
f 93/667 98/670 92/662
f 87/456 89/443 95/450
f 87/456 86/463 89/443
f 85/436 91/438 89/443
f 101/462 97/470 90/468
f 87/456 101/462 90/468
f 90/468 86/463 87/456
f 85/436 84/429 98/432
f 78/677 83/675 96/678
f 426/465 16/457 446/469
f 89/443 99/451 88/446
f 92/662 100/665 93/667
f 78/677 79/676 82/673
f 79/676 7/674 82/673
f 82/673 101/672 83/675
f 7/415 79/411 1/407
f 1/407 79/411 80/403
f 78/416 80/403 79/411
f 4/593 3/591 81/590
f 30/75 29/71 8/59
f 8/59 9/73 31/78
f 73/52 8/59 72/43
f 484/82 9/73 485/81
f 28/65 72/43 8/59
f 65/397 121/394 71/401
f 71/66 72/43 67/72
f 66/392 65/397 70/400
f 64/521 63/527 27/523
f 71/401 67/404 65/397
f 70/400 2/396 66/392
f 66/392 2/396 320/391
f 75/402 2/396 70/400
f 77/508 61/511 60/505
f 67/404 64/405 65/397
f 70/400 65/397 64/405
f 121/394 65/397 66/392
f 28/65 27/80 63/76
f 67/404 63/413 64/405
f 27/523 57/513 64/521
f 57/513 56/509 61/511
f 76/516 61/511 62/520
f 76/516 57/513 61/511
f 55/506 60/505 56/509
f 56/509 26/517 59/522
f 59/725 58/724 56/728
f 56/509 57/513 26/517
f 69/689 137/691 140/690
f 143/687 69/689 68/688
f 69/689 140/690 68/688
f 40/343 48/331 39/337
f 39/288 47/285 38/287
f 39/288 38/287 36/291
f 51/546 50/554 53/550
f 49/290 33/292 38/287
f 37/340 14/334 48/331
f 454/307 52/303 488/312
f 51/293 41/296 49/290
f 51/546 151/543 42/549
f 38/287 50/286 49/290
f 54/289 50/286 47/285
f 43/329 39/337 48/331
f 14/334 37/340 487/346
f 53/348 54/347 46/342
f 54/347 53/348 50/352
f 46/342 54/347 44/335
f 43/329 45/332 44/335
f 45/332 46/342 44/335
f 42/549 41/551 51/546
f 40/343 39/337 36/349
f 48/331 40/343 37/340
f 486/300 34/294 490/304
f 34/294 35/299 455/302
f 33/292 34/294 38/287
f 38/287 34/294 36/291
f 37/297 36/291 34/294
f 34/294 33/292 35/299
f 132/7 130/3 153/5
f 14/334 358/330 15/328
f 361/26 368/40 370/35
f 368/40 366/56 367/57
f 77/508 359/507 24/510
f 87/456 95/450 101/462
f 2/396 1/407 80/403
f 10/597 5/595 4/593
f 9/73 8/59 453/69
f 10/414 7/415 1/407
f 5/595 10/597 6/599
f 61/511 74/519 62/520
f 74/519 61/511 10/515
f 77/508 60/505 359/507
f 1/407 2/396 75/402
f 56/509 60/505 61/511
f 74/410 1/407 75/402
f 27/523 26/517 57/513
f 6/512 23/514 356/518
f 97/592 7/598 10/597
f 81/590 97/592 4/593
f 356/596 5/595 6/599
f 74/410 75/402 62/409
f 62/409 75/402 76/406
f 6/512 61/511 77/508
f 53/550 133/548 51/546
f 364/48 368/40 361/26
f 358/330 14/334 456/339
f 22/726 20/727 58/724
f 4/593 97/592 10/597
f 6/512 10/515 61/511
f 310/611 308/614 309/616
f 10/414 1/407 74/410
f 314/356 112/362 179/363
f 12/618 170/619 171/615
f 125/204 109/193 110/196
f 134/214 126/209 110/196
f 275/607 274/608 184/605
f 253/188 266/192 176/198
f 199/146 174/137 175/131
f 236/632 208/630 196/628
f 166/233 12/228 13/240
f 106/217 107/218 311/205
f 81/590 3/591 17/588
f 82/673 7/674 97/671
f 58/724 20/727 55/730
f 177/325 178/324 162/327
f 210/113 268/134 176/136
f 452/50 316/31 475/41
f 310/250 13/240 12/228
f 112/472 113/475 179/477
f 146/364 315/360 179/363
f 311/205 107/218 305/213
f 307/386 306/390 303/393
f 102/248 103/239 123/232
f 321/388 318/385 105/387
f 164/11 156/13 154/9
f 308/614 310/611 301/613
f 315/360 314/356 179/363
f 309/368 308/372 271/365
f 313/355 274/361 282/359
f 184/370 274/361 228/367
f 219/540 216/539 203/536
f 238/230 200/225 201/222
f 247/236 200/225 238/230
f 304/399 298/395 303/393
f 285/639 288/642 289/640
f 283/641 284/638 289/640
f 287/643 283/641 289/640
f 292/152 276/142 277/133
f 293/646 286/648 287/643
f 293/646 287/643 289/640
f 261/541 219/540 203/536
f 288/168 292/152 347/151
f 279/162 276/142 292/152
f 276/601 273/603 183/602
f 261/541 266/542 219/540
f 223/183 251/185 252/177
f 252/130 268/134 210/113
f 176/198 266/192 267/203
f 191/433 246/434 262/431
f 247/459 235/453 207/445
f 191/433 262/431 245/423
f 201/222 200/225 205/220
f 230/661 96/659 214/653
f 96/659 100/665 92/662
f 94/668 92/662 98/670
f 231/666 92/662 94/668
f 214/653 96/659 213/658
f 243/398 80/403 241/408
f 214/267 221/261 240/272
f 230/278 214/267 240/272
f 239/235 209/244 238/230
f 196/628 208/630 197/620
f 200/466 207/445 205/460
f 204/243 220/266 221/261
f 3/591 4/593 5/595
f 212/654 214/653 211/656
f 12/228 166/233 323/224
f 106/217 127/210 124/216
f 161/2 149/1 162/4
f 323/224 154/219 170/221
f 154/219 138/207 170/221
f 51/293 49/290 50/286
f 86/463 90/468 17/464
f 83/461 101/462 95/450
f 95/450 93/442 100/455
f 72/43 28/65 67/72
f 56/728 58/724 55/730
f 47/341 43/329 44/335
f 21/528 59/522 25/525
f 3/591 356/596 32/594
f 77/508 24/510 6/512
f 356/596 3/591 5/595
f 341/500 343/497 342/495
f 136/471 340/479 335/478
f 286/473 350/474 136/471
f 342/149 351/161 346/141
f 293/646 350/650 286/648
f 348/160 347/151 346/141
f 338/558 333/556 150/552
f 150/552 42/549 151/543
f 52/303 35/299 33/292
f 494/318 373/314 497/320
f 338/485 335/478 336/491
f 355/476 352/484 375/489
f 340/479 136/471 355/476
f 340/479 354/483 377/488
f 355/476 353/480 352/484
f 136/471 350/474 355/476
f 354/483 355/476 376/487
f 354/483 340/479 355/476
f 350/474 353/480 355/476
f 380/494 343/497 381/499
f 351/651 353/652 350/650
f 343/497 341/500 382/503
f 293/646 349/647 350/650
f 382/150 345/128 384/159
f 351/490 352/484 353/480
f 343/497 352/484 342/495
f 342/495 352/484 351/490
f 346/649 349/647 348/645
f 349/647 351/651 350/650
f 288/642 348/645 289/640
f 344/129 342/149 346/141
f 346/141 347/151 277/133
f 277/133 347/151 292/152
f 277/133 344/129 346/141
f 186/108 344/129 182/110
f 344/129 277/133 182/110
f 186/108 337/107 345/128
f 345/128 337/107 385/127
f 186/108 185/101 337/107
f 186/108 345/128 344/129
f 344/129 345/128 341/140
f 150/482 113/475 335/478
f 339/561 334/559 338/558
f 334/559 333/556 338/558
f 335/478 338/485 150/482
f 336/491 339/496 338/485
f 339/733 336/734 389/735
f 335/478 340/479 379/486
f 395/118 116/96 396/126
f 325/557 41/551 332/555
f 336/491 335/478 394/492
f 449/147 396/126 450/138
f 337/107 185/101 116/96
f 113/475 136/471 335/478
f 327/577 331/578 401/579
f 49/568 41/569 325/570
f 331/560 325/557 332/555
f 33/292 49/290 329/295
f 49/568 325/570 324/571
f 331/578 327/577 324/581
f 33/292 327/301 403/306
f 328/586 330/585 327/577
f 52/303 33/292 405/308
f 334/559 331/560 332/555
f 400/562 334/559 407/564
f 332/555 41/551 42/549
f 33/292 329/295 328/298
f 324/571 326/572 49/568
f 324/581 330/585 328/586
f 33/292 328/298 327/301
f 329/573 49/568 326/572
f 325/584 331/578 324/581
f 351/651 349/647 346/649
f 288/168 347/151 348/160
f 349/647 289/640 348/645
f 334/559 339/561 392/563
f 333/556 332/555 42/549
f 329/587 324/581 328/586
f 349/647 293/646 289/640
f 342/149 344/129 341/140
f 334/559 332/555 333/556
f 42/549 150/552 333/556
f 326/572 324/571 329/573
f 327/577 330/585 324/581
f 16/457 99/451 89/443
f 17/588 3/591 32/594
f 18/732 55/730 19/731
f 16/457 89/443 17/464
f 373/314 52/303 406/310
f 373/314 374/322 495/321
f 375/489 352/484 380/494
f 376/487 355/476 375/489
f 377/488 354/483 378/493
f 378/493 354/483 376/487
f 379/486 340/479 377/488
f 380/494 352/484 343/497
f 381/499 343/497 383/502
f 382/150 341/140 345/128
f 383/502 343/497 382/503
f 384/159 345/128 387/148
f 385/127 337/107 395/118
f 386/139 345/128 385/127
f 387/148 345/128 386/139
f 388/501 336/491 398/498
f 389/504 336/491 388/501
f 390/566 339/561 391/567
f 391/737 339/733 393/736
f 392/563 339/561 390/566
f 393/736 339/733 389/735
f 394/492 335/478 379/486
f 395/118 337/107 116/96
f 396/126 116/96 448/132
f 398/498 336/491 394/492
f 399/565 331/560 400/562
f 400/562 331/560 334/559
f 401/579 331/578 399/582
f 402/580 327/577 401/579
f 403/583 327/577 402/580
f 404/309 33/292 403/306
f 405/308 33/292 409/311
f 406/310 52/303 405/308
f 407/564 334/559 392/563
f 408/313 33/292 404/309
f 409/311 33/292 410/315
f 410/315 33/292 411/317
f 411/317 33/292 408/313
f 412/157 199/146 250/166
f 413/172 250/166 416/174
f 414/418 244/421 232/419
f 415/420 232/419 234/422
f 416/174 250/166 245/175
f 417/135 173/122 435/143
f 418/123 173/122 417/135
f 419/439 84/429 85/436
f 420/444 85/436 443/447
f 421/115 117/102 423/124
f 422/117 114/100 421/115
f 423/124 117/102 439/119
f 424/430 245/423 428/427
f 425/458 88/446 99/451
f 426/465 99/451 16/457
f 427/425 234/422 429/428
f 428/427 245/423 414/418
f 429/428 234/422 84/429
f 430/435 84/429 444/437
f 431/156 174/137 412/157
f 432/145 174/137 431/156
f 433/155 173/122 432/145
f 434/153 173/122 433/155
f 435/143 173/122 434/153
f 436/114 189/105 418/123
f 437/120 187/95 436/114
f 438/109 187/95 437/120
f 439/119 117/102 438/109
f 440/106 114/100 422/117
f 441/116 116/96 440/106
f 442/452 88/446 425/458
f 443/447 85/436 442/452
f 444/437 84/429 445/441
f 445/441 84/429 419/439
f 447/125 116/96 441/116
f 448/132 116/96 447/125
f 449/147 397/158 396/126
f 450/138 396/126 448/132
f 451/167 397/158 449/147
f 452/50 73/52 316/31
f 453/69 8/59 452/50
f 454/307 35/299 52/303
f 455/302 35/299 454/307
f 456/339 14/334 457/345
f 457/345 14/334 489/350
f 458/22 164/11 460/19
f 459/29 361/26 458/22
f 460/19 164/11 462/16
f 461/333 372/326 358/330
f 462/16 164/11 461/14
f 463/55 364/48 361/26
f 464/62 364/48 463/55
f 465/338 358/330 492/344
f 466/68 363/63 364/48
f 467/67 364/48 464/62
f 468/47 362/33 470/54
f 469/39 362/33 468/47
f 470/54 362/33 471/45
f 471/45 362/33 472/38
f 472/38 362/33 459/29
f 473/42 11/51 480/58
f 474/36 317/28 473/42
f 475/41 316/31 474/36
f 476/684 360/682 466/683
f 477/46 361/26 469/39
f 478/64 11/51 360/70
f 479/74 360/70 481/79
f 480/58 11/51 478/64
f 481/79 360/70 482/83
f 482/685 360/682 476/684
f 483/84 31/78 484/82
f 484/82 31/78 9/73
f 485/81 9/73 491/77
f 486/300 37/297 34/294
f 487/305 37/297 486/300
f 488/312 52/303 496/316
f 489/350 14/334 487/346
f 490/304 34/294 455/302
f 491/77 9/73 453/69
f 492/344 358/330 456/339
f 493/319 52/303 494/318
f 494/318 52/303 373/314
f 495/321 374/322 498/323
f 496/316 52/303 493/319
f 497/320 373/314 495/321
usemtl Tile_+038_+020_L19_000200_untextured
