mtllib Tile_+038_+020_L19_000303.mtl
v 7.90879182e+03 4.91331522e+03 2.10352586e+00
v 7.91104148e+03 4.91260657e+03 2.52226685e+00
v 7.90823559e+03 4.91663534e+03 1.84416438e+00
v 7.91145920e+03 4.91550184e+03 2.12493481e+00
v 7.90946049e+03 4.90816746e+03 3.26765135e+00
v 7.91037492e+03 4.90694760e+03 3.85245826e+00
v 7.90955543e+03 4.90893323e+03 4.86779136e+00
v 7.90983663e+03 4.91060735e+03 4.83172416e+00
v 7.91009421e+03 4.90770359e+03 5.23059422e+00
v 7.91004664e+03 4.90728956e+03 8.43913058e+00
v 7.91292751e+03 4.93333021e+03 -2.32135666e-01
v 7.91296484e+03 4.92931067e+03 1.07120549e+00
v 7.91006311e+03 4.92911070e+03 1.08764936e+00
v 7.90844347e+03 4.93170874e+03 1.04526067e+00
v 7.91076328e+03 4.93147029e+03 1.19255160e+00
v 7.90924051e+03 4.91047400e+03 3.20384026e+00
v 7.91034725e+03 4.91115766e+03 4.12135657e+00
v 7.90651534e+03 4.91141621e+03 3.83276679e+00
v 7.90656902e+03 4.90990835e+03 4.09167672e+00
v 7.90682674e+03 4.91325268e+03 2.23962591e+00
v 7.90827757e+03 4.90614375e+03 2.94184734e+00
v 7.90861094e+03 4.90995553e+03 2.60813252e+00
v 7.90887147e+03 4.93330598e+03 -2.20402678e-01
v 7.90973031e+03 4.91187427e+03 2.72874769e+00
v 7.90683525e+03 4.90834705e+03 3.10277649e+00
v 7.90974910e+03 4.90987061e+03 5.76438606e+00
v 7.91145099e+03 4.91086578e+03 6.49627511e+00
v 7.91183588e+03 4.90734055e+03 7.30821041e+00
v 7.91081339e+03 4.90750089e+03 8.57580443e+00
v 7.91097456e+03 4.90966588e+03 8.06777499e+00
v 7.91111782e+03 4.90995659e+03 6.81313307e+00
v 7.90678243e+03 4.92787948e+03 2.01742060e+00
v 7.90771485e+03 4.92895330e+03 1.13716735e+00
v 7.90761770e+03 4.91477427e+03 2.08618569e+00
v 7.90943514e+03 4.90932962e+03 6.28916228e+00
v 7.91024194e+03 4.92713570e+03 1.66510060e+00
v 7.90722185e+03 4.92674259e+03 1.74589801e+00
v 7.91033119e+03 4.90797394e+03 8.91551887e+00
v 7.91031831e+03 4.92808633e+03 1.99690371e+00
v 7.90991681e+03 4.90655940e+03 3.05020798e+00
v 7.91062827e+03 4.90902611e+03 8.61530437e+00
v 7.91148448e+03 4.90675568e+03 4.57886744e+00
v 7.90724674e+03 4.90968936e+03 3.87251691e+00
v 7.90807962e+03 4.91037778e+03 2.60518809e+00
v 7.91172084e+03 4.90760056e+03 8.99905116e+00
v 7.93342503e+03 4.91211040e+03 2.09068680e+00
v 7.93169685e+03 4.91260247e+03 2.29457794e+00
v 7.93725909e+03 4.91588113e+03 6.80088948e+00
v 7.93319806e+03 4.93576016e+03 2.12073311e+00
v 7.93392043e+03 4.93592093e+03 1.33724986e+00
v 7.93356933e+03 4.93535673e+03 1.73552351e+00
v 7.93240735e+03 4.93750106e+03 9.78063911e-01
v 7.93176477e+03 4.93668682e+03 1.48811124e+00
v 7.93271492e+03 4.91966758e+03 6.33321654e+00
v 7.93276104e+03 4.91939164e+03 7.54418537e+00
v 7.93117499e+03 4.93315125e+03 8.06711270e-01
v 7.93212030e+03 4.93333480e+03 9.70420675e-01
v 7.93302802e+03 4.93244279e+03 1.07740602e+00
v 7.93093378e+03 4.93557039e+03 1.69848603e+00
v 7.93034161e+03 4.93557517e+03 1.87454139e+00
v 7.93045239e+03 4.92922445e+03 2.14310690e+00
v 7.93032205e+03 4.92804628e+03 1.62766552e+00
v 7.93474389e+03 4.90645531e+03 3.34958439e+00
v 7.93017123e+03 4.93474464e+03 -4.75142472e-03
v 7.93043739e+03 4.93460849e+03 -7.10429883e-03
v 7.92983004e+03 4.93337994e+03 7.61603476e-01
v 7.93163184e+03 4.93436724e+03 7.44619806e-02
v 7.92970708e+03 4.93495400e+03 4.91298266e-02
v 7.93668676e+03 4.93639845e+03 1.26132885e+00
v 7.93771231e+03 4.93734478e+03 1.41139499e+00
v 7.93679308e+03 4.93517295e+03 -1.45837644e-01
v 7.93636443e+03 4.93630213e+03 -2.58838778e-01
v 7.93559174e+03 4.93492793e+03 -1.48915403e-01
v 7.93216527e+03 4.93526798e+03 -3.55102063e-01
v 7.93756667e+03 4.93490314e+03 4.70199301e-01
v 7.93774720e+03 4.93530024e+03 1.13156517e-01
v 7.93762044e+03 4.93576105e+03 1.25036890e+00
v 7.93567592e+03 4.93510472e+03 -1.41825371e-01
v 7.93041249e+03 4.93461240e+03 1.50602449e-03
v 7.93270568e+03 4.93435923e+03 1.32556627e+00
v 7.93419395e+03 4.93337904e+03 9.17048303e-01
v 7.93724712e+03 4.93445315e+03 8.13735823e-01
v 7.93752265e+03 4.93466693e+03 6.52792926e-01
v 7.93731071e+03 4.93461944e+03 5.78699217e-01
v 7.93614522e+03 4.92952190e+03 1.44333179e+00
v 7.93439252e+03 4.93022228e+03 9.91205323e-01
v 7.93761260e+03 4.93056039e+03 1.05326607e+00
v 7.93596492e+03 4.93685753e+03 1.56666477e+00
v 7.93253391e+03 4.93404411e+03 -1.84450835e-01
v 7.93667075e+03 4.93758082e+03 1.46275824e-01
v 7.93435838e+03 4.93684968e+03 6.11237985e-02
v 7.93154554e+03 4.93387692e+03 -1.24124068e-02
v 7.93044556e+03 4.93688836e+03 2.20317276e-02
v 7.93159131e+03 4.93373051e+03 9.38792291e-01
v 7.93023827e+03 4.93563946e+03 3.66604299e-01
v 7.93724935e+03 4.93508450e+03 2.25426724e-01
v 7.93732230e+03 4.93686536e+03 2.05145688e-01
v 7.93680699e+03 4.93504175e+03 1.43173030e+00
v 7.93639000e+03 4.93599270e+03 2.27135579e+00
v 7.93611642e+03 4.91209738e+03 2.34582359e+00
v 7.93386520e+03 4.90668439e+03 2.48545466e+00
v 7.93582470e+03 4.93567908e+03 2.38867962e+00
v 7.93691952e+03 4.93420442e+03 5.83137190e-01
v 7.93519798e+03 4.93369268e+03 6.20791617e-01
v 7.93619718e+03 4.93251718e+03 1.01250823e+00
v 7.93742831e+03 4.93755067e+03 1.00780620e+00
v 7.93630169e+03 4.90734891e+03 2.44085812e+00
v 7.93465204e+03 4.90792006e+03 2.49048583e+00
v 7.93241671e+03 4.90737400e+03 2.11921767e+00
v 7.93415616e+03 4.91819631e+03 8.25461071e+00
v 7.93423084e+03 4.91661571e+03 7.46960803e+00
v 7.93314362e+03 4.91802288e+03 4.25838029e+00
v 7.93391651e+03 4.92175975e+03 6.18670036e+00
v 7.93483595e+03 4.91942251e+03 9.29219728e+00
v 7.93316639e+03 4.91775067e+03 6.13543627e+00
v 7.93482767e+03 4.91636487e+03 6.38354086e+00
v 7.93362047e+03 4.92046720e+03 8.99054648e+00
v 7.93458550e+03 4.92119032e+03 8.83719233e+00
v 7.93334398e+03 4.93678170e+03 1.49453574e+00
v 7.93499667e+03 4.93602683e+03 1.55900613e+00
v 7.93212615e+03 4.90902755e+03 2.96188516e+00
v 7.93264610e+03 4.90987772e+03 2.35458569e+00
v 7.93751196e+03 4.92557314e+03 1.80920097e+00
v 7.93516905e+03 4.92194088e+03 5.49841684e+00
v 7.93452870e+03 4.92045117e+03 4.35282155e+00
v 7.93041525e+03 4.90973546e+03 2.07244487e+00
v 7.93592185e+03 4.91572854e+03 2.92453412e+00
v 7.93424960e+03 4.91576138e+03 1.88577793e+00
v 7.93417196e+03 4.91633390e+03 2.13370009e+00
v 7.93345008e+03 4.92172858e+03 7.32717694e+00
v 7.93168388e+03 4.90638715e+03 2.38890691e+00
v 7.93018629e+03 4.93558402e+03 1.23443425e+01
v 7.93022747e+03 4.93556340e+03 1.21744862e+01
v 7.93549679e+03 4.93458496e+03 1.45393598e+00
v 7.93153038e+03 4.91772363e+03 1.77318800e+00
v 7.93275671e+03 4.91875413e+03 2.90660720e+00
v 7.92969349e+03 4.92951536e+03 1.61408782e+00
v 7.93417269e+03 4.92938405e+03 1.87200628e+00
v 7.93348606e+03 4.92933985e+03 1.66719837e+00
v 7.93556752e+03 4.91975256e+03 9.36738835e+00
v 7.93583231e+03 4.92038155e+03 9.04011878e+00
v 7.93515869e+03 4.91815157e+03 9.56862937e+00
v 7.93524878e+03 4.92254860e+03 7.16530430e+00
v 7.93633894e+03 4.91925159e+03 8.77212848e+00
v 7.93008350e+03 4.93597749e+03 1.61919625e+00
v 7.93576292e+03 4.92105461e+03 9.13253594e+00
v 7.93695678e+03 4.92191413e+03 6.26134099e+00
v 7.93607340e+03 4.92209298e+03 8.02171042e+00
v 7.93761622e+03 4.92113294e+03 7.89513940e+00
v 7.93336556e+03 4.91897686e+03 3.62679381e+00
v 7.93026205e+03 4.93735391e+03 1.25357140e+00
v 7.93668158e+03 4.92175663e+03 8.83142029e+00
v 7.93275411e+03 4.90848256e+03 2.59696832e+00
v 7.93660751e+03 4.90644995e+03 3.40137715e+00
v 7.93767997e+03 4.91378620e+03 2.07683148e+00
v 7.93657359e+03 4.91901799e+03 2.23197536e+00
v 7.93131127e+03 4.93015042e+03 1.08126380e+00
v 7.93178340e+03 4.92929744e+03 1.44870769e+00
v 7.92968822e+03 4.93425719e+03 1.27977265e+00
v 7.93025984e+03 4.93557910e+03 1.29510252e+01
v 7.93022230e+03 4.93559196e+03 1.11471869e+01
v 7.93194772e+03 4.93557069e+03 2.16748600e+00
v 7.93702371e+03 4.91900116e+03 1.73417848e+00
v 7.93528073e+03 4.90737703e+03 3.39231969e+00
v 7.92984134e+03 4.93741273e+03 1.07330625e+00
v 7.93509927e+03 4.91928198e+03 2.14087776e+00
v 7.93305414e+03 4.91967592e+03 2.18858872e+00
v 7.93771590e+03 4.92380598e+03 2.18533240e+00
v 7.93740173e+03 4.92948584e+03 1.72935732e+00
v 7.93060528e+03 4.91545972e+03 2.13623501e+00
v 7.93030879e+03 4.90790180e+03 2.63244564e+00
v 7.93629961e+03 4.91808219e+03 8.82905560e+00
v 7.93588543e+03 4.91755779e+03 8.41810504e+00
v 7.93735774e+03 4.91575946e+03 4.32951827e+00
v 7.93007521e+03 4.93548031e+03 1.91747326e+01
v 7.93060899e+03 4.93537911e+03 2.19858542e+01
v 7.93009198e+03 4.93555766e+03 2.02322072e+01
v 7.93515836e+03 4.91742893e+03 8.06312112e+00
v 7.92860389e+03 4.91433410e+03 1.97676260e+00
v 7.91752913e+03 4.91087411e+03 9.14219634e+00
v 7.91716113e+03 4.91068980e+03 6.94821962e+00
v 7.92113615e+03 4.90932327e+03 2.34873275e+00
v 7.92322157e+03 4.90936635e+03 2.72998410e+00
v 7.91310327e+03 4.91243258e+03 2.35948339e+00
v 7.91204321e+03 4.91136728e+03 3.79905527e+00
v 7.91703112e+03 4.91028539e+03 3.27015036e+00
v 7.91653524e+03 4.90896085e+03 2.76437616e+00
v 7.92296750e+03 4.91056376e+03 2.21868324e+00
v 7.91706167e+03 4.93273597e+03 5.77649279e-01
v 7.91810007e+03 4.93350195e+03 -2.49333797e-01
v 7.92445975e+03 4.93492768e+03 4.47348536e-01
v 7.92419383e+03 4.93447634e+03 3.83044329e-01
v 7.92384987e+03 4.93477865e+03 4.89011305e-01
v 7.92295041e+03 4.93320365e+03 -2.15865617e-01
v 7.92337649e+03 4.93291890e+03 8.74749159e-01
v 7.92617736e+03 4.93683954e+03 2.92989546e-01
v 7.92685932e+03 4.93633112e+03 7.34014264e-01
v 7.92980246e+03 4.93738106e+03 5.51725573e-01
v 7.92886643e+03 4.93695183e+03 5.38141378e-01
v 7.92040792e+03 4.93436447e+03 8.52167035e-01
v 7.92070346e+03 4.93403849e+03 1.25519272e+00
v 7.91942909e+03 4.93329725e+03 1.29443972e+00
v 7.92341969e+03 4.93404928e+03 1.28614154e+00
v 7.92837655e+03 4.90701104e+03 2.47240681e+00
v 7.92859367e+03 4.90878473e+03 2.15055938e+00
v 7.92668940e+03 4.93561206e+03 4.30134175e-01
v 7.92646042e+03 4.93630607e+03 1.06918857e+00
v 7.92424528e+03 4.93546386e+03 1.49191698e+00
v 7.92479777e+03 4.93527091e+03 4.65283170e-01
v 7.91236781e+03 4.91082389e+03 4.60877476e+00
v 7.92166517e+03 4.93360681e+03 6.11605983e-01
v 7.92546932e+03 4.93566645e+03 1.61194718e-01
v 7.91233229e+03 4.90666478e+03 6.44714251e+00
v 7.91439707e+03 4.91063572e+03 3.06666947e+00
v 7.93313617e+03 4.92595286e+03 1.54803004e+00
v 7.91349694e+03 4.90889892e+03 4.82950599e+00
v 7.91332380e+03 4.90948392e+03 5.74514471e+00
v 7.91259323e+03 4.91007294e+03 6.73769952e+00
v 7.91335760e+03 4.90998986e+03 4.31649214e+00
v 7.91802739e+03 4.90971121e+03 2.33720479e+00
v 7.91701170e+03 4.91333264e+03 2.43092504e+00
v 7.92581383e+03 4.93336415e+03 2.52773927e-01
v 7.92603801e+03 4.93244010e+03 1.12274700e+00
v 7.92125589e+03 4.93285797e+03 9.29092800e-01
v 7.91426816e+03 4.90878386e+03 3.35260893e+00
v 7.92630950e+03 4.90810422e+03 3.37687559e+00
v 7.92441359e+03 4.90662599e+03 3.00625848e+00
v 7.92412018e+03 4.90803023e+03 2.77582773e+00
v 7.92510434e+03 4.90898389e+03 2.54817892e+00
v 7.92318828e+03 4.90693475e+03 2.79974428e+00
v 7.92134417e+03 4.90750315e+03 2.45868958e+00
v 7.92562877e+03 4.90884623e+03 3.43874922e+00
v 7.92586861e+03 4.91031516e+03 2.44144874e+00
v 7.92766673e+03 4.91155739e+03 1.98302337e+00
v 7.92238874e+03 4.91614700e+03 1.90746027e+00
v 7.92725343e+03 4.90894987e+03 2.86562292e+00
v 7.92683161e+03 4.90773295e+03 2.70851658e+00
v 7.93147325e+03 4.92456966e+03 1.59828469e+00
v 7.92829826e+03 4.92703073e+03 1.60512311e+00
v 7.92858934e+03 4.92258296e+03 1.82960045e+00
v 7.93100216e+03 4.92044481e+03 1.98298829e+00
v 7.92404608e+03 4.93196161e+03 1.10643708e+00
v 7.92531688e+03 4.92951812e+03 1.04881668e+00
v 7.92826416e+03 4.93566520e+03 3.96408235e-01
v 7.92687936e+03 4.93414809e+03 2.99168778e-01
v 7.92845037e+03 4.93479988e+03 1.77086707e-01
v 7.92834571e+03 4.93705797e+03 1.11962802e+00
v 7.92748998e+03 4.93668614e+03 6.59786555e-01
v 7.92941059e+03 4.93538138e+03 1.51256428e+00
v 7.91852353e+03 4.91407400e+03 1.93447122e+00
v 7.92740213e+03 4.91725785e+03 1.68602415e+00
v 7.92477930e+03 4.93499955e+03 4.35752627e-01
v 7.91290860e+03 4.90721564e+03 4.85364395e+00
v 7.91706751e+03 4.91062884e+03 5.72931799e+00
v 7.91703648e+03 4.91063026e+03 5.67710106e+00
v 7.92257396e+03 4.92181155e+03 1.66854427e+00
v 7.92156095e+03 4.92084540e+03 1.80645536e+00
v 7.91760301e+03 4.92636349e+03 1.65805815e+00
v 7.91938877e+03 4.92797540e+03 1.64723427e+00
v 7.91697246e+03 4.92825703e+03 2.10764805e+00
v 7.91779871e+03 4.92942813e+03 1.10084994e+00
v 7.92255750e+03 4.92006455e+03 1.87654285e+00
v 7.91996405e+03 4.92229206e+03 1.72235636e+00
v 7.91614996e+03 4.91672930e+03 1.82244616e+00
v 7.91624544e+03 4.92851577e+03 1.60528615e+00
v 7.92087872e+03 4.92817235e+03 1.68578866e+00
v 7.92070141e+03 4.92736771e+03 1.56636889e+00
v 7.92269626e+03 4.92770014e+03 1.70181636e+00
v 7.92440558e+03 4.92623553e+03 1.42217417e+00
v 7.92199661e+03 4.91814014e+03 1.72928927e+00
v 7.92833847e+03 4.92485564e+03 1.70954648e+00
v 7.92575655e+03 4.92297651e+03 1.73493444e+00
v 7.92691478e+03 4.92989565e+03 1.05541818e+00
v 7.92678850e+03 4.92906717e+03 1.80651889e+00
v 7.91712923e+03 4.91077552e+03 2.55019865e+00
v 7.92314626e+03 4.92960158e+03 1.09658584e+00
v 7.92541153e+03 4.92862669e+03 1.71451447e+00
v 7.92768450e+03 4.92847381e+03 1.60775215e+00
v 7.92378964e+03 4.92003782e+03 1.86776136e+00
v 7.92864275e+03 4.92851203e+03 1.98398776e+00
v 7.92390556e+03 4.92855427e+03 2.08099311e+00
v 7.92324659e+03 4.92770802e+03 2.03264131e+00
v 7.91548183e+03 4.92151741e+03 1.72735532e+00
v 7.91379298e+03 4.91998751e+03 1.74610362e+00
v 7.91442166e+03 4.91269170e+03 2.21817029e+00
v 7.91494474e+03 4.91496548e+03 2.15744970e+00
v 7.91635100e+03 4.91496598e+03 2.04570537e+00
v 7.91246476e+03 4.91666316e+03 1.82619908e+00
v 7.91117773e+03 4.92216480e+03 1.73859762e+00
v 7.91792245e+03 4.91105400e+03 1.03265019e+01
v 7.91741700e+03 4.91086356e+03 1.04926267e+01
v 7.91703636e+03 4.91054373e+03 3.48753041e+00
v 7.91372325e+03 4.90701297e+03 3.51721940e+00
v 7.91460088e+03 4.90749762e+03 3.05534262e+00
v 7.91599691e+03 4.91020932e+03 2.69882807e+00
v 7.91380575e+03 4.92727802e+03 1.80541407e+00
v 7.93022184e+03 4.93537071e+03 2.12645158e+01
v 7.92787008e+03 4.90666690e+03 2.64530519e+01
v 7.92258472e+03 4.92113898e+03 2.44156992e+00
v 7.92347058e+03 4.93397461e+03 -2.74949144e-02
v 7.92018219e+03 4.92868695e+03 1.73060422e+00
v 7.91979610e+03 4.92972488e+03 1.11682372e+00
v 7.91698410e+03 4.91055736e+03 3.45667337e+00
v 7.91254236e+03 4.90636793e+03 3.76454829e+00
v 7.91334841e+03 4.90860226e+03 7.33715621e+00
v 7.91741344e+03 4.91099957e+03 1.01131771e+01
v 7.92799713e+03 4.93392887e+03 8.76143591e-01
v 7.91144917e+03 4.90901373e+03 9.10646946e+00
v 7.92645022e+03 4.93402623e+03 3.08890311e-01
v 7.92580067e+03 4.93454536e+03 4.62482176e-01
v 7.92527705e+03 4.93510153e+03 3.86777340e-01
v 7.91897717e+03 4.93226971e+03 1.10330701e+00
v 7.91079790e+03 4.90721357e+03 6.58309653e+00
v 7.92467173e+03 4.93563648e+03 3.19459928e-01
v 7.91214499e+03 4.90988837e+03 7.25091998e+00
v 7.92543847e+03 4.93565352e+03 3.61314352e-01
v 7.92484355e+03 4.93588405e+03 1.35530704e+00
v 7.92588878e+03 4.93520161e+03 1.24440757e+00
v 7.91864360e+03 4.93291180e+03 5.01326006e-01
v 7.91999505e+03 4.93365519e+03 -1.09779788e-01
v 7.92862279e+03 4.93536412e+03 1.67073437e+00
v 7.91593036e+03 4.93221801e+03 1.00458081e+00
v 7.92433785e+03 4.93483289e+03 5.93925629e-01
v 7.92671164e+03 4.93377050e+03 7.00285171e-01
v 7.92272061e+03 4.93558330e+03 -2.10725044e-01
v 7.92485792e+03 4.93496979e+03 4.36613632e-01
v 7.92471579e+03 4.93507814e+03 4.26159362e-01
v 7.92363892e+03 4.93535481e+03 1.52579588e+00
v 7.92498553e+03 4.93510504e+03 3.70826984e-01
v 7.92724321e+03 4.93509820e+03 1.41420100e+00
v 7.91480814e+03 4.92918407e+03 1.20069361e+00
v 7.91716216e+03 4.91069182e+03 7.04488786e+00
v 7.91191250e+03 4.90922357e+03 8.30767068e+00
v 7.91244228e+03 4.90820833e+03 8.49553487e+00
v 7.92291449e+03 4.93409269e+03 9.38954856e-01
v 7.92964849e+03 4.93724226e+03 1.02011594e+00
v 7.92888277e+03 4.93624947e+03 -2.40783565e-01
v 7.92748462e+03 4.93584905e+03 2.59770085e-01
v 7.92999376e+03 4.93466253e+03 -2.85311310e-02
v 7.92506310e+03 4.93333019e+03 -1.66767768e-01
v 7.92339093e+03 4.93336144e+03 5.54253823e-01
v 7.92345457e+03 4.93416980e+03 6.36107179e-01
v 7.92948474e+03 4.93692375e+03 1.27537813e+00
v 7.91350176e+03 4.90969010e+03 6.88367072e+00
v 7.92931118e+03 4.93530391e+03 -3.68293614e-02
v 7.92841475e+03 4.93217142e+03 9.73799761e-01
v 7.92885645e+03 4.93323282e+03 6.47876241e-01
v 7.92953147e+03 4.93721120e+03 1.00600727e+00
v 7.92314171e+03 4.92884608e+03 1.98746752e+00
v 7.91366764e+03 4.93120148e+03 1.18750305e+00
v 7.91722149e+03 4.93165558e+03 1.04831482e+00
v 7.92929863e+03 4.93046507e+03 1.02843608e+00
v 7.92655219e+03 4.93557559e+03 1.51436294e+00
v 7.91346848e+03 4.92825269e+03 1.96724665e+00
v 7.91244939e+03 4.93239535e+03 8.26749842e-01
v 7.90774824e+03 4.91571614e+03 2.50180334e+00
v 7.93457719e+03 4.91954742e+03 3.08711029e+00
v 7.93716910e+03 4.92005922e+03 8.45278874e+00
v 7.93729563e+03 4.91949254e+03 9.30097404e+00
v 7.93708366e+03 4.91796165e+03 8.45759718e+00
v 7.93770613e+03 4.92134862e+03 4.96628774e+00
v 7.93614586e+03 4.91624302e+03 6.95651148e+00
v 7.93510082e+03 4.91618652e+03 7.53876121e+00
v 7.93648827e+03 4.91741787e+03 7.41158671e+00
v 7.93742760e+03 4.91560167e+03 5.63881340e+00
v 7.93304313e+03 4.91753262e+03 2.71626950e+00
v 7.93478070e+03 4.91667964e+03 5.36617741e+00
v 7.93563824e+03 4.92630944e+03 1.70919211e+00
v 7.93493846e+03 4.92314351e+03 1.67032377e+00
v 7.93286318e+03 4.92212748e+03 1.40403846e+00
v 7.93749249e+03 4.92072082e+03 1.59171034e+00
v 7.93549368e+03 4.91999309e+03 1.54329590e+00
v 7.90600000e+03 4.92737685e+03 1.86656804e+00
v 7.90600000e+03 4.92796757e+03 2.01485192e+00
v 7.90600000e+03 4.90946409e+03 3.60803907e+00
v 7.90600000e+03 4.90873047e+03 3.10413940e+00
v 7.90600000e+03 4.92483100e+03 1.75233335e+00
v 7.90600000e+03 4.92693162e+03 1.71027750e+00
v 7.90600000e+03 4.93175862e+03 8.55318580e-01
v 7.90600000e+03 4.93142772e+03 1.07494969e+00
v 7.90600000e+03 4.93251641e+03 -2.41696351e-02
v 7.90600000e+03 4.92818043e+03 1.73296660e+00
v 7.90600000e+03 4.92891088e+03 1.11125260e+00
v 7.90600000e+03 4.92989790e+03 1.12250751e+00
v 7.90600000e+03 4.91111441e+03 3.66967645e+00
v 7.90600000e+03 4.91238312e+03 3.52011584e+00
v 7.90600000e+03 4.92420848e+03 1.74300809e+00
v 7.90600000e+03 4.93276721e+03 -2.33755268e-01
v 7.90600000e+03 4.91278282e+03 3.57534333e+00
v 7.90600000e+03 4.91613885e+03 1.85229732e+00
v 7.90600000e+03 4.91596468e+03 1.99315012e+00
v 7.90600000e+03 4.91027578e+03 3.80147583e+00
v 7.90600000e+03 4.91501402e+03 1.99532431e+00
v 7.90600000e+03 4.91415547e+03 2.32756818e+00
v 7.90600000e+03 4.92352958e+03 1.75396936e+00
v 7.90600000e+03 4.92200675e+03 1.77735702e+00
v 7.90600000e+03 4.91737696e+03 1.85484327e+00
v 7.90600000e+03 4.90834403e+03 3.36275545e+00
v 7.90600000e+03 4.91574558e+03 1.90699790e+00
v 7.90600000e+03 4.91364401e+03 3.00967533e+00
v 7.90600000e+03 4.90750366e+03 3.25724680e+00
v 7.93775000e+03 4.93494508e+03 1.47586200e+00
v 7.93775000e+03 4.93559854e+03 1.29722781e+00
v 7.93775000e+03 4.93487162e+03 5.05074679e-01
v 7.93775000e+03 4.93469067e+03 6.70494192e-01
v 7.93775000e+03 4.93476408e+03 6.27513348e-01
v 7.93775000e+03 4.93514758e+03 3.66439305e-01
v 7.93775000e+03 4.91585803e+03 4.27198265e+00
v 7.93775000e+03 4.91569100e+03 3.82625503e+00
v 7.93775000e+03 4.91909782e+03 2.31877506e+00
v 7.93775000e+03 4.91968730e+03 3.24233885e+00
v 7.93775000e+03 4.90827679e+03 2.26297228e+00
v 7.93775000e+03 4.90614887e+03 2.55388501e+00
v 7.93775000e+03 4.91370769e+03 2.07959306e+00
v 7.93775000e+03 4.91360161e+03 2.09337890e+00
v 7.93775000e+03 4.93757481e+03 9.62062189e-01
v 7.93775000e+03 4.93713231e+03 4.27864216e-01
v 7.93775000e+03 4.93735776e+03 1.38619723e+00
v 7.93775000e+03 4.93465698e+03 1.13734031e+00
v 7.93775000e+03 4.93733356e+03 1.42737912e+00
v 7.93775000e+03 4.93531537e+03 2.48637426e-01
v 7.93775000e+03 4.93579304e+03 1.49848997e-01
v 7.93775000e+03 4.93672751e+03 1.44686254e-01
v 7.93775000e+03 4.90975649e+03 2.40691178e+00
v 7.93775000e+03 4.90905751e+03 2.40459934e+00
v 7.93775000e+03 4.93721371e+03 1.36073327e+00
v 7.93775000e+03 4.93644511e+03 -2.44836045e-01
v 7.93775000e+03 4.93731059e+03 -1.65313133e-01
v 7.93775000e+03 4.93694134e+03 1.92127882e-01
v 7.93775000e+03 4.93530173e+03 1.15225603e-01
v 7.93775000e+03 4.93529332e+03 1.18148596e-01
v 7.93775000e+03 4.93056065e+03 1.05260600e+00
v 7.93775000e+03 4.93066958e+03 1.05113243e+00
v 7.93775000e+03 4.93408003e+03 8.69753530e-01
v 7.93775000e+03 4.93468860e+03 6.71667150e-01
v 7.93775000e+03 4.93468910e+03 6.71542532e-01
v 7.93775000e+03 4.93530651e+03 1.11312928e-01
v 7.93775000e+03 4.93602580e+03 -2.06003080e-01
v 7.93775000e+03 4.93665840e+03 1.17264037e+00
v 7.93775000e+03 4.93619508e+03 1.20845752e+00
v 7.93775000e+03 4.93453259e+03 8.34054162e-01
v 7.93775000e+03 4.93588213e+03 1.27075312e+00
v 7.93775000e+03 4.92388885e+03 2.21766609e+00
v 7.93775000e+03 4.92539543e+03 2.09599412e+00
v 7.93775000e+03 4.92117632e+03 7.71868573e+00
v 7.93775000e+03 4.92154873e+03 6.78166083e+00
v 7.93775000e+03 4.92036437e+03 1.77210307e+00
v 7.93775000e+03 4.91907197e+03 2.02903109e+00
v 7.93775000e+03 4.91385124e+03 2.10908645e+00
v 7.93775000e+03 4.91377998e+03 2.08297705e+00
v 7.93775000e+03 4.91404496e+03 2.24698139e+00
v 7.93775000e+03 4.91375306e+03 2.08482541e+00
v 7.93775000e+03 4.91373455e+03 2.07713660e+00
v 7.93775000e+03 4.91583397e+03 4.95511116e+00
v 7.93775000e+03 4.91569871e+03 5.90231564e+00
v 7.93775000e+03 4.93046335e+03 1.09303190e+00
v 7.93775000e+03 4.92547626e+03 1.79709512e+00
v 7.93775000e+03 4.92622909e+03 1.69688769e+00
v 7.93775000e+03 4.92781924e+03 1.64716175e+00
v 7.93775000e+03 4.92948428e+03 1.68289155e+00
v 7.93775000e+03 4.91115179e+03 2.36257370e+00
v 7.93775000e+03 4.92676471e+03 1.60754466e+00
v 7.93775000e+03 4.92712511e+03 1.57950237e+00
v 7.93775000e+03 4.93127749e+03 1.05256502e+00
v 7.93775000e+03 4.92129529e+03 5.86097991e+00
v 7.93775000e+03 4.92123330e+03 1.79263607e+00
v 7.93775000e+03 4.92374001e+03 2.19068741e+00
v 7.93775000e+03 4.92383089e+03 2.17469716e+00
v 7.93775000e+03 4.91974194e+03 3.32391674e+00
v 7.93775000e+03 4.91978454e+03 3.35918857e+00
v 7.93775000e+03 4.92131400e+03 4.96314558e+00
v 7.93775000e+03 4.91656339e+03 7.36978773e+00
v 7.93775000e+03 4.91593405e+03 6.82877614e+00
v 7.93775000e+03 4.91719461e+03 7.73379748e+00
v 7.93775000e+03 4.91743921e+03 8.07064697e+00
v 7.93775000e+03 4.91865025e+03 8.51455033e+00
v 7.93775000e+03 4.91694661e+03 7.65999900e+00
v 7.93775000e+03 4.92107729e+03 7.79875455e+00
v 7.93775000e+03 4.92091578e+03 7.83869053e+00
v 7.93775000e+03 4.91972287e+03 3.29721749e+00
v 7.93775000e+03 4.92006036e+03 8.01408802e+00
v 7.93775000e+03 4.91968908e+03 8.50828862e+00
v 7.93775000e+03 4.91940824e+03 8.99139087e+00
v 7.93775000e+03 4.93468917e+03 6.71695059e-01
v 7.93775000e+03 4.93468873e+03 6.72128974e-01
v 7.93775000e+03 4.92093607e+03 1.69735496e+00
v 7.93775000e+03 4.92071952e+03 4.32067830e+00
v 7.93775000e+03 4.91563243e+03 3.12938792e+00
v 7.93775000e+03 4.92065680e+03 1.72110267e+00
v 7.93775000e+03 4.91563786e+03 3.21331757e+00
v 7.93775000e+03 4.93362833e+03 1.04049414e+00
v 7.91119549e+03 4.90600000e+03 3.29439648e+00
v 7.91151813e+03 4.90600000e+03 3.52741760e+00
v 7.91040289e+03 4.90600000e+03 3.09282268e+00
v 7.90848959e+03 4.90600000e+03 2.95889609e+00
v 7.90779402e+03 4.90600000e+03 3.02131369e+00
v 7.90823913e+03 4.90600000e+03 2.96622687e+00
v 7.90832742e+03 4.90600000e+03 2.96543452e+00
v 7.91176701e+03 4.90600000e+03 3.75197477e+00
v 7.91229904e+03 4.90600000e+03 3.44592189e+00
v 7.91217623e+03 4.90600000e+03 3.57714142e+00
v 7.90839299e+03 4.90600000e+03 2.96772559e+00
v 7.91490555e+03 4.90600000e+03 3.13832948e+00
v 7.91514722e+03 4.90600000e+03 3.03063859e+00
v 7.91546505e+03 4.90600000e+03 2.97398963e+00
v 7.91996530e+03 4.90600000e+03 2.72395051e+00
v 7.91898911e+03 4.90600000e+03 2.83377435e+00
v 7.92788074e+03 4.90600000e+03 2.53241859e+00
v 7.92814958e+03 4.90600000e+03 2.49292554e+00
v 7.92578659e+03 4.90600000e+03 2.87256134e+00
v 7.92532907e+03 4.90600000e+03 2.62397485e+00
v 7.92904103e+03 4.90600000e+03 2.38759075e+00
v 7.92801409e+03 4.90600000e+03 2.68023004e+01
v 7.92741890e+03 4.90600000e+03 2.64805003e+01
v 7.92885397e+03 4.90600000e+03 2.65043904e+01
v 7.92782591e+03 4.90600000e+03 2.53803356e+01
v 7.92822163e+03 4.90600000e+03 2.56557369e+01
v 7.92050625e+03 4.90600000e+03 2.65635541e+00
v 7.92454379e+03 4.90600000e+03 3.00955321e+00
v 7.92529465e+03 4.90600000e+03 2.63227766e+00
v 7.92419263e+03 4.90600000e+03 3.25794326e+00
v 7.92295770e+03 4.90600000e+03 3.44150084e+00
v 7.92343841e+03 4.90600000e+03 3.21137912e+00
v 7.92259947e+03 4.90600000e+03 2.81520036e+00
v 7.92270338e+03 4.90600000e+03 3.17116040e+00
v 7.92173602e+03 4.90600000e+03 2.68516005e+00
v 7.92532304e+03 4.90600000e+03 2.62861802e+00
v 7.91574565e+03 4.90600000e+03 2.96941595e+00
v 7.93010930e+03 4.90600000e+03 2.42378933e+00
v 7.93751920e+03 4.90600000e+03 3.02932209e+00
v 7.93670522e+03 4.90600000e+03 3.30113247e+00
v 7.93415249e+03 4.90600000e+03 2.81851433e+00
v 7.93319404e+03 4.90600000e+03 2.70590941e+00
v 7.93435271e+03 4.90600000e+03 2.82380594e+00
v 7.93467031e+03 4.90600000e+03 3.15710154e+00
v 7.93548890e+03 4.90600000e+03 3.44845073e+00
v 7.93630064e+03 4.90600000e+03 3.47060714e+00
v 7.93131127e+03 4.90600000e+03 2.36317297e+00
v 7.93181234e+03 4.90600000e+03 2.38957344e+00
v 7.90615465e+03 4.90600000e+03 3.27663709e+00
v 7.90600000e+03 4.90600000e+03 3.30072255e+00
v 7.93704993e+03 4.90600000e+03 3.18602169e+00
v 7.93763722e+03 4.90600000e+03 2.89664743e+00
v 7.93775000e+03 4.90600000e+03 2.76987088e+00
v 7.90872204e+03 4.93775000e+03 -2.49911432e-01
v 7.91085131e+03 4.93775000e+03 -2.55985136e-01
v 7.90625807e+03 4.93775000e+03 -2.36917043e-01
v 7.92956675e+03 4.93775000e+03 1.68525015e-01
v 7.92808784e+03 4.93775000e+03 2.21212093e-01
v 7.92993432e+03 4.93775000e+03 3.08050098e-01
v 7.92314358e+03 4.93775000e+03 -2.39337887e-01
v 7.92362228e+03 4.93775000e+03 -1.08391816e-01
v 7.92187257e+03 4.93775000e+03 -2.39149250e-01
v 7.91840571e+03 4.93775000e+03 -2.55701961e-01
v 7.92005984e+03 4.93775000e+03 -2.61132400e-01
v 7.92727181e+03 4.93775000e+03 2.29267206e-01
v 7.92658285e+03 4.93775000e+03 6.53997313e-02
v 7.92453042e+03 4.93775000e+03 -1.46525525e-02
v 7.93337074e+03 4.93775000e+03 9.72528093e-01
v 7.93465953e+03 4.93775000e+03 7.04088375e-01
v 7.93512467e+03 4.93775000e+03 1.13907430e+00
v 7.93438831e+03 4.93775000e+03 1.10940916e+00
v 7.93607187e+03 4.93775000e+03 4.05618469e-01
v 7.93636212e+03 4.93775000e+03 2.66384655e-01
v 7.93616944e+03 4.93775000e+03 1.17609784e+00
v 7.93649265e+03 4.93775000e+03 9.92469814e-01
v 7.93663921e+03 4.93775000e+03 -1.25632438e-01
v 7.93746155e+03 4.93775000e+03 -1.25119354e-01
v 7.93431285e+03 4.93775000e+03 5.66020136e-01
v 7.93345791e+03 4.93775000e+03 -1.07685377e-01
v 7.93669342e+03 4.93775000e+03 1.19213189e-01
v 7.93255503e+03 4.93775000e+03 -2.78162288e-01
v 7.93062546e+03 4.93775000e+03 -2.02313393e-01
v 7.93030349e+03 4.93775000e+03 -7.73081590e-02
v 7.90751707e+03 4.93775000e+03 -2.43556690e-01
v 7.90600000e+03 4.93775000e+03 -2.38159874e-01
v 7.93721904e+03 4.93775000e+03 -1.25270663e-01
v 7.93775000e+03 4.93775000e+03 -3.38626456e-02
vt 0.015097284 0.85794491
vt 0.0078064795 0.84116125
vt 0.011237657 0.82339805
vt 0.035431277 0.84437567
vt 0.0016956726 0.84587085
vt 0.0016931038 0.83331329
vt 0.033443712 0.86039287
vt 0.034833539 0.82952607
vt 0.0017000134 0.8572911
vt 0.0016940039 0.84254169
vt 0.0016926039 0.82635826
vt 0.056114089 0.86350298
vt 0.020796999 0.90099609
vt 0.0016871204 0.79353559
vt 0.062675647 0.83173025
vt 0.0017024656 0.87271315
vt 0.06004256 0.84695935
vt 0.0389194 0.89725685
vt 0.001706527 0.89661723
vt 0.0016855828 0.78380883
vt 0.042131506 0.75185001
vt 0.070514105 0.86151397
vt 0.061609071 0.89304203
vt 0.024149889 0.92596489
vt 0.0017082447 0.90178984
vt 0.075755849 0.74171281
vt 0.052095961 0.91170651
vt 0.0017136881 0.91364026
vt 0.055837851 0.92632306
vt 0.0016838211 0.77320075
vt 0.081739701 0.85106003
vt 0.062557697 0.71781641
vt 0.079289906 0.90891588
vt 0.0017151629 0.91756135
vt 0.022993829 0.99540395
vt 0.019131586 0.66546571
vt 0.093879029 0.86531341
vt 0.05217218 0.66587913
vt 0.080963098 0.6668939
vt 0.092340119 0.81742305
vt 0.089375302 0.90012085
vt 0.0037439272 0.99541628
vt 0.039628796 0.99539322
vt 0.013579907 0.99540997
vt 0.0016798744 0.74940628
vt 0.087416902 0.84700787
vt 0.11077526 0.75379407
vt 0.096249059 0.92898059
vt 0.088131361 0.91700816
vt 0.0017277878 0.99541759
vt 0.098647669 0.99535495
vt 0.0016678497 0.67706466
vt 0.044312112 0.64773524
vt 0.10309296 0.90970731
vt 0.10629553 0.84260023
vt 0.071541496 0.63933659
vt 0.12664416 0.68890989
vt 0.0016647273 0.65771919
vt 0.023467695 0.61358285
vt 0.10948436 0.86993992
vt 0.082528383 0.63933849
vt 0.099499486 0.62539154
vt 0.12324703 0.73118103
vt 0.11654935 0.83309937
vt 0.11157066 0.99534667
vt 0.10049096 0.91974831
vt 0.015319166 0.65109819
vt 0.014298635 0.63638687
vt 0.067448907 0.60381055
vt 0.12089767 0.91888922
vt 0.11249563 0.85371339
vt 0.12970193 0.65776294
vt 0.13116419 0.74627352
vt 0.13103038 0.71897435
vt 0.14548598 0.81539184
vt 0.11793616 0.84566963
vt 0.1257325 0.99533719
vt 0.10662539 0.92575806
vt 0.001663722 0.65499628
vt 0.0081147943 0.61261415
vt 0.057147734 0.59976697
vt 0.14269309 0.90486747
vt 0.087684475 0.61380982
vt 0.14065649 0.71855056
vt 0.09561073 0.55722076
vt 0.13124351 0.73575592
vt 0.13213444 0.83828199
vt 0.13235225 0.96147782
vt 0.017894151 0.56768334
vt 0.001661308 0.64014208
vt 0.041039776 0.60249412
vt 0.067248188 0.57167649
vt 0.1165835 0.93733406
vt 0.13746528 0.9198311
vt 0.13565731 0.86799651
vt 0.088595726 0.5738529
vt 0.1688728 0.67509717
vt 0.11989702 0.55114317
vt 0.15603097 0.76445913
vt 0.13643259 0.83839858
vt 0.13566235 0.99533075
vt 0.001663513 0.65157378
vt 0.0056708991 0.58390307
vt 0.022044081 0.56108284
vt 0.0016578037 0.62672347
vt 0.030793525 0.59105623
vt 0.079747409 0.56500995
vt 0.12409832 0.93059129
vt 0.11427697 0.94243342
vt 0.15825626 0.91233361
vt 0.13780397 0.9374885
vt 0.15261532 0.86668205
vt 0.17825302 0.62940401
vt 0.19700499 0.72487193
vt 0.07558047 0.49923879
vt 0.1342081 0.57051814
vt 0.17589889 0.82779515
vt 0.14158276 0.85161746
vt 0.14759342 0.96229309
vt 0.0016493279 0.60526186
vt 0.068832576 0.52264261
vt 0.13385856 0.93817323
vt 0.15064718 0.92626065
vt 0.16509986 0.87257272
vt 0.19389115 0.64697993
vt 0.17092437 0.5860225
vt 0.20112565 0.68235302
vt 0.17816082 0.75829458
vt 0.077772692 0.49923742
vt 0.073097162 0.4992398
vt 0.13618797 0.55180156
vt 0.17110752 0.85034645
vt 0.17620715 0.79380798
vt 0.15334985 0.85274553
vt 0.13561633 0.85618198
vt 0.13940161 0.99532688
vt 0.14593506 0.95121765
vt 0.0016537749 0.61872435
vt 0.001648538 0.59901702
vt 0.0839497 0.54549909
vt 0.15651061 0.92678279
vt 0.17682447 0.90812504
vt 0.20241122 0.60232806
vt 0.21070455 0.69843566
vt 0.20069741 0.78932488
vt 0.10311283 0.49922252
vt 0.12151711 0.52270144
vt 0.15089692 0.54581809
vt 0.15687156 0.56661659
vt 0.17859249 0.85093451
vt 0.15935935 0.98108357
vt 0.15004349 0.95398712
vt 0.14116979 0.94889164
vt 0.0016447285 0.57919168
vt 0.087825127 0.5661869
vt 0.16148391 0.93712395
vt 0.16352406 0.93312252
vt 0.18372528 0.88145828
vt 0.16410817 0.85962003
vt 0.22236428 0.65167773
vt 0.21591219 0.59463292
vt 0.19239232 0.55753982
vt 0.21293989 0.67935026
vt 0.21303335 0.71284533
vt 0.2115508 0.75116068
vt 0.11073978 0.49921882
vt 0.071208708 0.4992398
vt 0.13592145 0.51380706
vt 0.14320481 0.53091955
vt 0.15499011 0.54365444
vt 0.18680544 0.86661047
vt 0.19171226 0.84365261
vt 0.21369265 0.81092954
vt 0.14649618 0.99532127
vt 0.15382537 0.96275896
vt 0.14843178 0.95233917
vt 0.1382066 0.93633616
vt 0.14385667 0.94416755
vt 0.17711258 0.94920349
vt 0.15641002 0.94523692
vt 0.19944805 0.87653095
vt 0.17356667 0.93558854
vt 0.22175813 0.66062099
vt 0.17815846 0.5426929
vt 0.11496625 0.49921679
vt 0.13131894 0.4992044
vt 0.16768539 0.54527199
vt 0.16253044 0.99530995
vt 0.16468413 0.97313106
vt 0.14904594 0.95187378
vt 0.087865829 0.57022095
vt 0.16335604 0.96190006
vt 0.19839205 0.92342287
vt 0.18027924 0.92471087
vt 0.24915832 0.62079597
vt 0.20982008 0.55974829
vt 0.19155374 0.5288831
vt 0.23209569 0.71779585
vt 0.22776555 0.76702285
vt 0.12457374 0.49921024
vt 0.14549258 0.50897419
vt 0.16030674 0.53205776
vt 0.1927315 0.86205518
vt 0.20313299 0.86319673
vt 0.16791233 0.99530464
vt 0.16961236 0.97867596
vt 0.087457657 0.57043457
vt 0.16956995 0.96560085
vt 0.21286602 0.91234076
vt 0.1878854 0.92700344
vt 0.18677758 0.94070542
vt 0.24970539 0.62483692
vt 0.23693776 0.59441304
vt 0.20575342 0.54646015
vt 0.16438746 0.52626163
vt 0.17645645 0.5149765
vt 0.23324043 0.81648666
vt 0.14376374 0.4991914
vt 0.15232088 0.95393062
vt 0.18917084 0.947052
vt 0.2164343 0.86384821
vt 0.20577717 0.92628425
vt 0.22352095 0.87763923
vt 0.20164552 0.93247026
vt 0.24970545 0.62181145
vt 0.24970488 0.61791122
vt 0.21065944 0.53794551
vt 0.22548606 0.52914798
vt 0.20802259 0.52063131
vt 0.18164551 0.49917662
vt 0.2477131 0.72915614
vt 0.24787664 0.80497122
vt 0.13787161 0.49919575
vt 0.14650825 0.49919242
vt 0.15237582 0.49919283
vt 0.15264477 0.49919271
vt 0.17428763 0.99530059
vt 0.18049605 0.97185588
vt 0.15709692 0.95548171
vt 0.2012921 0.93476862
vt 0.17565918 0.96272278
vt 0.22197793 0.92696553
vt 0.24970537 0.62069839
vt 0.24969761 0.57962966
vt 0.24970521 0.61956882
vt 0.24969392 0.55782753
vt 0.17258009 0.49918085
vt 0.20229375 0.50521243
vt 0.18999119 0.49917078
vt 0.17468058 0.49917996
vt 0.24946395 0.77735406
vt 0.24404582 0.7022872
vt 0.24973841 0.81522059
vt 0.15259767 0.49919271
vt 0.15621819 0.49918765
vt 0.23721039 0.86668181
vt 0.18036707 0.98282182
vt 0.1838398 0.95707703
vt 0.19055748 0.94833374
vt 0.18693161 0.95160675
vt 0.2217979 0.86453313
vt 0.20901489 0.93737793
vt 0.21035163 0.94228399
vt 0.24867854 0.88290524
vt 0.2497053 0.62027776
vt 0.24970528 0.61998856
vt 0.23837279 0.52021593
vt 0.22157717 0.49914587
vt 0.24972539 0.73716015
vt 0.24972327 0.72358334
vt 0.24973042 0.77864838
vt 0.24974011 0.8235907
vt 0.2497361 0.80345643
vt 0.18584184 0.99529368
vt 0.19270597 0.9818278
vt 0.20613861 0.95650482
vt 0.19263649 0.94620514
vt 0.23215732 0.94579548
vt 0.23762558 0.91348773
vt 0.21933572 0.5098446
vt 0.24969214 0.54690588
vt 0.1993819 0.49916542
vt 0.21408969 0.499152
vt 0.24973014 0.77632314
vt 0.24972501 0.73251694
vt 0.24971898 0.70338666
vt 0.24972421 0.72815299
vt 0.24973471 0.80219018
vt 0.24973044 0.77774322
vt 0.24974114 0.8292222
vt 0.18768089 0.98952353
vt 0.22982387 0.93186438
vt 0.21709983 0.95786113
vt 0.24702568 0.86610883
vt 0.24975374 0.89410913
vt 0.22619651 0.50625122
vt 0.24969074 0.53470874
vt 0.20329641 0.49916255
vt 0.22314139 0.49914479
vt 0.24974263 0.84006739
vt 0.18871294 0.99529028
vt 0.19411451 0.99529248
vt 0.19244194 0.94626617
vt 0.24327491 0.939852
vt 0.22825335 0.96832621
vt 0.21419871 0.96416229
vt 0.24975152 0.88138771
vt 0.24975973 0.93084133
vt 0.24975221 0.88461059
vt 0.19159862 0.99529272
vt 0.20918965 0.99528354
vt 0.24239452 0.95292658
vt 0.23471819 0.96287918
vt 0.21984577 0.96667933
vt 0.20442976 0.96120763
vt 0.2497467 0.86608326
vt 0.24975193 0.88290846
vt 0.24976155 0.93790102
vt 0.2256213 0.49913943
vt 0.21624273 0.99527705
vt 0.24583401 0.94373429
vt 0.23581985 0.98130095
vt 0.21534385 0.98013002
vt 0.24976388 0.94741213
vt 0.24976134 0.95141077
vt 0.23913583 0.96777779
vt 0.24633217 0.94633484
vt 0.24976195 0.94691288
vt 0.22925936 0.99525476
vt 0.22350664 0.99525881
vt 0.21555738 0.99526548
vt 0.38235226 0.96147782
vt 0.34624907 0.92898059
vt 0.38414159 0.92429459
vt 0.3882066 0.93633616
vt 0.40064716 0.92626065
vt 0.66352409 0.93312252
vt 0.67356664 0.93558854
vt 0.65641004 0.94523692
vt 0.66767746 0.95385718
vt 0.65709692 0.95548171
vt 0.67845511 0.95800239
vt 0.66227967 0.96131879
vt 0.67629695 0.98447633
vt 0.68461049 0.95826972
vt 0.66156632 0.97273803
vt 0.64893234 0.96614885
vt 0.68677759 0.94070542
vt 0.68519461 0.98237157
vt 0.69188315 0.96128905
vt 0.68986869 0.96757942
vt 0.68647575 0.98735046
vt 0.6965102 0.96121323
vt 0.69126856 0.98908931
vt 0.70164549 0.93247026
vt 0.70300597 0.9786557
vt 0.68556148 0.98686588
vt 0.71035165 0.94228399
vt 0.70803028 0.99138057
vt 0.70442975 0.96120763
vt 0.70577717 0.92628425
vt 0.71534383 0.98013002
vt 0.7155574 0.99526548
vt 0.71419871 0.96416229
vt 0.80536705 0.98282182
vt 0.79461235 0.97867596
vt 0.80065918 0.96272278
vt 0.58113861 0.95650482
vt 0.58401489 0.93737793
vt 0.60790634 0.95117188
vt 0.61394691 0.97264099
vt 0.6172924 0.9549942
vt 0.61827493 0.939852
vt 0.62477195 0.974868
vt 0.62133217 0.94633484
vt 0.62477076 0.96831572
vt 0.61609679 0.99526113
vt 0.62476766 0.95707333
vt 0.62062669 0.99525821
vt 0.62252128 0.99525696
vt 0.62477386 0.98839027
vt 0.62477446 0.99525452
vt 0.83113861 0.95650482
vt 0.84827471 0.98120314
vt 0.84124273 0.99527705
vt 0.85856438 0.95393372
vt 0.84791929 0.99526525
vt 0.85062718 0.99526191
vt 0.9374854 0.98686588
vt 0.93657112 0.98735046
vt 0.93785226 0.98237157
vt 0.9350642 0.99001247
vt 0.93196487 0.96231079
vt 0.91501659 0.99138057
vt 0.91403198 0.93737793
vt 0.92107964 0.94242859
vt 0.89977217 0.98120314
vt 0.93611526 0.95160675
vt 0.92140138 0.93247026
vt 0.90748948 0.99526548
vt 0.8894825 0.95393372
vt 0.9324894 0.94833374
vt 0.91726971 0.92628425
vt 0.89741969 0.99526191
vt 0.89014053 0.95117188
vt 0.9459343 0.94920349
vt 0.87977195 0.939852
vt 0.93060493 0.94626617
vt 0.9473877 0.96272278
vt 0.87721288 0.94373429
vt 0.93041039 0.94620514
vt 0.92175478 0.93476862
vt 0.95820999 0.93902588
vt 0.87671471 0.94633484
vt 0.95969087 0.96190006
vt 0.96653628 0.92678279
vt 0.88075447 0.9549942
vt 0.96156299 0.93712395
vt 0.96148056 0.97273803
vt 0.95836276 0.97313106
vt 0.94267982 0.98282182
vt 0.27435493 0.94626617
vt 0.26065826 0.95650482
vt 0.26482964 0.94242859
vt 0.51202261 0.98317689
vt 0.50602585 0.96263373
vt 0.51777846 0.95484185
vt 0.51813728 0.97455513
vt 0.50715077 0.9485085
vt 0.52612281 0.9699688
vt 0.52118641 0.98798186
vt 0.51479053 0.94558048
vt 0.52565098 0.95027536
vt 0.52738929 0.98266459
vt 0.5161795 0.99576306
vt 0.50805533 0.93448824
vt 0.52504843 0.93893701
vt 0.50885797 0.91110027
vt 0.51805609 0.91128051
vt 0.53396147 0.90609872
vt 0.50238568 0.88728571
vt 0.52163613 0.89690828
vt 0.54010338 0.88300407
vt 0.51588744 0.86751509
vt 0.53176975 0.87253881
vt 0.74177587 0.98022598
vt 0.74272466 0.99189371
vt 0.73458827 0.9954499
vt 0.72749966 0.97578138
vt 0.74858165 0.99034739
vt 0.73722273 0.97135162
vt 0.74645215 0.97028482
vt 0.73378062 0.95235801
vt 0.75598347 0.97812998
vt 0.72228837 0.94231957
vt 0.74135655 0.9534362
vt 0.75509113 0.98429465
vt 0.74837136 0.95239574
vt 0.73881996 0.94043577
vt 0.75688797 0.97496629
vt 0.73734838 0.93141061
vt 0.75828576 0.96804649
vt 0.72114003 0.92310494
vt 0.75851023 0.92356569
vt 0.75738269 0.95270777
vt 0.72223508 0.90025866
vt 0.74870354 0.9000091
vt 0.76058137 0.95593989
vt 0.73440635 0.88792092
vt 0.75956714 0.93753326
vt 0.76147044 0.9190563
vt 0.76144052 0.94306362
vt 0.73703098 0.88010556
vt 0.76166481 0.91149402
vt 0.76086092 0.92575294
vt 0.76168472 0.91047573
vt 0.76747477 0.88549769
vt 0.56335992 0.93366134
vt 0.5501613 0.95272511
vt 0.5479753 0.93641078
vt 0.56124163 0.90845901
vt 0.56177789 0.97068435
vt 0.53365105 0.95912868
vt 0.5543918 0.90324616
vt 0.55369723 0.99208236
vt 0.54355294 0.98075539
vt 0.55497706 0.88849592
vt 0.56394184 0.99597585
vt 0.56477803 0.88586009
vt 0.26866141 0.93269384
vt 0.27052927 0.90552014
vt 0.28033853 0.91621989
vt 0.28391984 0.93271166
vt 0.2571373 0.91245699
vt 0.27847126 0.88052493
vt 0.29377636 0.90603089
vt 0.2526798 0.8891297
vt 0.25571635 0.85511476
vt 0.25562704 0.85589975
vt 0.2524665 0.90107536
vt 0.27999833 0.85660696
vt 0.29031712 0.86246163
vt 0.25366789 0.87572438
vt 0.25242239 0.88876086
vt 0.25193894 0.91559792
vt 0.25575629 0.85461217
vt 0.25583071 0.85360438
vt 0.26608363 0.83722007
vt 0.25706419 0.83670646
vt 0.26272932 0.8293342
vt 0.25711697 0.83251077
vt 0.34203407 0.93433815
vt 0.33573556 0.91762239
vt 0.33914465 0.90818989
vt 0.34755936 0.90179276
vt 0.33738065 0.93392253
vt 0.33058095 0.89085263
vt 0.33368507 0.92479211
vt 0.33011022 0.91397387
vt 0.33018038 0.85206449
vt 0.32688138 0.90216535
vt 0.32642683 0.85476285
vt 0.34912699 0.89250511
vt 0.32517716 0.89917922
vt 0.31584838 0.86960262
vt 0.32929897 0.8508215
vt 0.34258693 0.84439868
vt 0.32147545 0.88856357
vt 0.32986861 0.85010225
vt 0.34325823 0.83409584
vt 0.31485048 0.8710025
vt 0.33029163 0.84958589
vt 0.33091494 0.84874976
vt 0.29563692 0.92990696
vt 0.29521361 0.89610922
vt 0.29663229 0.950688
vt 0.29662403 0.94921321
vt 0.29868144 0.99677932
vt 0.41031542 0.90133482
vt 0.41728976 0.8724454
vt 0.42283058 0.88735741
vt 0.41786471 0.90637189
vt 0.41173288 0.86203396
vt 0.43012846 0.87396193
vt 0.42040333 0.92572868
vt 0.42012888 0.84615421
vt 0.42769346 0.89530683
vt 0.40857643 0.83854681
vt 0.44031343 0.93171394
vt 0.43588287 0.84974289
vt 0.42607394 0.93405318
vt 0.42582878 0.836101
vt 0.43718675 0.88184518
vt 0.4458994 0.84883589
vt 0.44167635 0.86184025
vt 0.47527811 0.85958445
vt 0.47101972 0.84665138
vt 0.47946492 0.84367949
vt 0.48189151 0.8462863
vt 0.47350192 0.84241593
vt 0.48322022 0.86617678
vt 0.48376304 0.84891832
vt 0.4747467 0.88448215
vt 0.49037027 0.85015249
vt 0.47900507 0.89846456
vt 0.48684326 0.84570485
vt 0.49490118 0.8704322
vt 0.48939878 0.88980353
vt 0.47350174 0.92616904
vt 0.48776808 0.84364891
vt 0.48707849 0.9073934
vt 0.50111049 0.91364264
vt 0.47971463 0.92805165
vt 0.49345824 0.92871046
vt 0.48675004 0.93285865
vt 0.78355759 0.98019701
vt 0.78778261 0.99352986
vt 0.78669262 0.99649835
vt 0.7836979 0.98842758
vt 0.7909413 0.97714311
vt 0.78240544 0.98489136
vt 0.78347784 0.9623242
vt 0.79441994 0.97466004
vt 0.7809577 0.98314536
vt 0.77805275 0.94940913
vt 0.79221058 0.97503811
vt 0.79277849 0.98496807
vt 0.77463013 0.97768724
vt 0.77178323 0.96915513
vt 0.79283947 0.91224504
vt 0.79199862 0.97809631
vt 0.77139544 0.97588021
vt 0.77025896 0.97609496
vt 0.76931792 0.97383708
vt 0.76766151 0.97650242
vt 0.76716423 0.97650886
vt 0.30143112 0.95570517
vt 0.28668895 0.95857197
vt 0.26347396 0.95594698
vt 0.29700115 0.96544707
vt 0.27363932 0.96969467
vt 0.28369811 0.97555542
vt 0.26404497 0.97638047
vt 0.29099682 0.97889245
vt 0.25985283 0.97205395
vt 0.28128767 0.98075807
vt 0.58282328 0.86195427
vt 0.57628804 0.87248087
vt 0.5735569 0.85565722
vt 0.59052211 0.87285912
vt 0.56412017 0.87758929
vt 0.60381186 0.87470913
vt 0.58851707 0.89861041
vt 0.56754601 0.88158107
vt 0.59556931 0.89647937
vt 0.57473326 0.89693022
vt 0.59193438 0.91433424
vt 0.58590847 0.93267083
vt 0.59399819 0.92934543
vt 0.50993729 0.9942531
vt 0.50572956 0.99647975
vt 0.50656569 0.97675085
vt 0.50336438 0.94442666
vt 0.50229275 0.92567396
vt 0.25052848 0.94584584
vt 0.24734059 0.97675085
vt 0.2516135 0.92567396
vt 0.24774773 0.99024093
vt 0.24396895 0.9942531
vt 0.24817666 0.99647975
vt 0.2505419 0.94442666
vt 0.65976298 0.9194423
vt 0.65267748 0.90849614
vt 0.66183835 0.88771832
vt 0.64967132 0.93373144
vt 0.64162397 0.88818634
vt 0.64248252 0.91897011
vt 0.6434257 0.91205955
vt 0.6483168 0.87479544
vt 0.64417028 0.92996061
vt 0.63668829 0.89989001
vt 0.63462967 0.87146795
vt 0.63055325 0.93078691
vt 0.62903166 0.89679956
vt 0.63187462 0.91554618
vt 0.62801492 0.89436179
vt 0.6271286 0.91994774
vt 0.62785959 0.89865637
vt 0.62823421 0.88038331
vt 0.62795597 0.89634705
vt 0.62696242 0.92819995
vt 0.62734878 0.91051775
vt 0.59205884 0.99251896
vt 0.57976604 0.98267531
vt 0.59425145 0.98458111
vt 0.60216355 0.99704248
vt 0.58922976 0.97883773
vt 0.60333431 0.98210555
vt 0.58134216 0.96864969
vt 0.59994769 0.97944796
vt 0.61239421 0.98431689
vt 0.59270334 0.9737559
vt 0.59642768 0.9782626
vt 0.60244632 0.97508407
vt 0.60856801 0.97899246
vt 0.59598809 0.97589248
vt 0.59456855 0.97605771
vt 0.26110476 0.97883773
vt 0.26786312 0.97589248
vt 0.26830271 0.9782626
vt 0.26823926 0.9768762
vt 0.27061763 0.97868097
vt 0.2700384 0.99186003
vt 0.27924535 0.99296606
vt 0.26768467 0.99355638
vt 0.26438245 0.99619156
vt 0.24768277 0.99271661
vt 0.34914359 0.97020394
vt 0.34571955 0.96254873
vt 0.35931334 0.95597357
vt 0.36079258 0.9699508
vt 0.37701035 0.9718219
vt 0.36528042 0.98224151
vt 0.37320465 0.99601585
vt 0.37731838 0.98874307
vt 0.42526039 0.93771988
vt 0.41732088 0.92808503
vt 0.43122104 0.93919504
vt 0.409899 0.9353227
vt 0.41445974 0.96101671
vt 0.41444838 0.92448306
vt 0.40868416 0.96456707
vt 0.42378873 0.96144795
vt 0.4123908 0.91999567
vt 0.4306764 0.95314145
vt 0.43892682 0.95378321
vt 0.43580309 0.95028967
vt 0.95985502 0.97967672
vt 0.96193951 0.99590063
vt 0.95542729 0.9896971
vt 0.95830345 0.98084581
vt 0.96868706 0.97973621
vt 0.95955169 0.97732037
vt 0.96296847 0.96751159
vt 0.96881676 0.99319506
vt 0.96092916 0.97322524
vt 0.96541268 0.96209311
vt 0.97536701 0.98201877
vt 0.9662329 0.96115756
vt 0.98471862 0.97558576
vt 0.97797501 0.96736968
vt 0.96897215 0.95851511
vt 0.97588879 0.96362072
vt 0.96700203 0.95534563
vt 0.96604675 0.9605431
vt 0.96594024 0.96108484
vt 0.30808294 0.94627512
vt 0.32072738 0.9459545
vt 0.32013553 0.96095526
vt 0.31332275 0.96094203
vt 0.31401354 0.93214715
vt 0.32717541 0.93901873
vt 0.30808324 0.95451754
vt 0.31860638 0.96575594
vt 0.30021784 0.94193673
vt 0.30547184 0.95019847
vt 0.29945606 0.94016171
vt 0.3032468 0.94669968
vt 0.29938331 0.93536443
vt 0.29872811 0.9384656
vt 0.30874938 0.90834051
vt 0.88085556 0.97691494
vt 0.87085134 0.99439013
vt 0.87362504 0.97853482
vt 0.8682189 0.96533841
vt 0.86467779 0.99593168
vt 0.87274879 0.95527303
vt 0.88008118 0.95839804
vt 0.86115891 0.97995633
vt 0.88341761 0.97032851
vt 0.87474859 0.94129884
vt 0.36623091 0.9775905
vt 0.36647245 0.97678196
vt 0.36548534 0.99608821
vt 0.36689577 0.94298422
vt 0.46395764 0.96178585
vt 0.46531779 0.94771767
vt 0.46456677 0.9957034
vt 0.46445748 0.99657434
vt 0.45486325 0.94530797
vt 0.25379559 0.96212631
vt 0.25312287 0.9967286
vt 0.2517978 0.94793439
vt 0.2549746 0.95945323
vt 0.26128557 0.94986826
vt 0.82972765 0.97988945
vt 0.83001477 0.97599453
vt 0.83335906 0.97665703
vt 0.8381806 0.98605067
vt 0.82588053 0.97646159
vt 0.82553595 0.99316031
vt 0.83044994 0.99617118
vt 0.81825334 0.97514015
vt 0.82074702 0.99277157
vt 0.82454479 0.97023565
vt 0.8143459 0.97255951
vt 0.81861049 0.96078283
vt 0.30059835 0.98927242
vt 0.28515455 0.99599361
vt 0.27978134 0.99289829
vt 0.24479701 0.9523201
vt 0.24469495 0.96875662
vt 0.24060833 0.99512976
vt 0.24362496 0.98400462
vt 0.33792001 0.95463949
vt 0.33931816 0.98527062
vt 0.33778074 0.97063386
vt 0.34202781 0.99679744
vt 0.87736392 0.98221958
vt 0.88569289 0.98920548
vt 0.88952464 0.99595928
vt 0.89561367 0.96962726
vt 0.54249179 0.9828887
vt 0.53779548 0.995727
vt 0.52580923 0.98363519
vt 0.21480873 0.96079856
vt 0.21522099 0.96123594
vt 0.21542831 0.99583566
vt 0.5647108 0.98584533
vt 0.58055145 0.98906958
vt 0.57147741 0.99519885
vt 0.58207899 0.9887107
vt 0.65086389 0.97873008
vt 0.66739607 0.97807837
vt 0.66416794 0.99571902
vt 0.76020014 0.98746634
vt 0.76164687 0.98690307
vt 0.76009256 0.99128962
vt 0.76047677 0.97841179
vt 0.76045084 0.97854185
vt 0.76347148 0.99158233
vt 0.76045585 0.97841299
vt 0.76422626 0.98254746
vt 0.76184922 0.99159199
vt 0.76045871 0.97831661
vt 0.76783198 0.97811443
vt 0.76386827 0.99600321
vt 0.77649349 0.97996229
vt 0.4037942 0.9434334
vt 0.40665674 0.95763969
vt 0.39871296 0.94475859
vt 0.40223679 0.93293881
vt 0.3960295 0.96429008
vt 0.39274532 0.9509365
vt 0.8066088 0.98502564
vt 0.79879415 0.99597496
vt 0.79138595 0.98939395
vt 0.7832765 0.9880681
vt 0.77695644 0.9959603
vt 0.7670905 0.98325866
vt 0.66612911 0.98143107
vt 0.68113089 0.99159837
vt 0.67153913 0.99588978
vt 0.8071205 0.99597222
vt 0.81036615 0.98104048
vt 0.82049453 0.98667103
vt 0.23875856 0.98389119
vt 0.23873186 0.9680655
vt 0.23901312 0.99574316
vt 0.23844315 0.98642421
vt 0.24047907 0.99574316
vt 0.24076033 0.9680655
vt 0.24104904 0.98642421
vt 0.50186288 0.99169153
vt 0.50190091 0.97148573
vt 0.50491834 0.98123145
vt 0.50446337 0.99583638
vt 0.50500238 0.97103983
vt 0.72362334 0.98742515
vt 0.7298817 0.98758352
vt 0.72889847 0.99637526
vt 0.72023171 0.99245882
vt 0.72163224 0.97393316
vt 0.53196615 0.98971939
vt 0.52427042 0.99640501
vt 0.52182788 0.9890998
vt 0.98496783 0.99584907
vt 0.98744869 0.98666
vt 0.98944652 0.99253207
vt 0.9786461 0.99009895
vt 0.98340321 0.97954577
vt 0.94491321 0.99688101
vt 0.93945569 0.99449891
vt 0.94959033 0.98301858
vt 0.94581819 0.98194867
vt 0.85910261 0.98665041
vt 0.85381192 0.98359859
vt 0.86056513 0.97631109
vt 0.86008418 0.9966349
vt 0.36374751 0.98792785
vt 0.36108816 0.9906913
vt 0.36484453 0.98423249
vt 0.36542889 0.98860246
vt 0.3632046 0.97908127
vt 0.36542743 0.98861092
vt 0.36542866 0.98860055
vt 0.3649078 0.99172586
vt 0.3620916 0.98659003
vt 0.36531919 0.99562287
vt 0.36542699 0.98860472
vt 0.53723717 0.98965293
vt 0.54321414 0.9898693
vt 0.5457167 0.99656701
vt 0.54618847 0.98806322
vt 0.99298602 0.99606758
vt 0.98605305 0.98356545
vt 0.9955194 0.98397112
vt 0.32796344 0.98032677
vt 0.32193315 0.98111194
vt 0.32549831 0.96277118
vt 0.32311046 0.96554458
vt 0.33469287 0.97978777
vt 0.32968327 0.96481818
vt 0.33644772 0.97541362
vt 0.33137128 0.97950137
vt 0.33716318 0.97079265
vt 0.23910426 0.9946602
vt 0.2331139 0.99535376
vt 0.23286802 0.99225259
vt 0.24298859 0.98985916
vt 0.24278606 0.99274504
vt 0.23734918 0.99399883
vt 0.23618619 0.99649203
vt 0.23899175 0.99565446
vt 0.23621276 0.98687607
vt 0.23825029 0.99094003
vt 0.23740387 0.98567218
vt 0.25999978 0.99620742
vt 0.26071891 0.9932825
vt 0.26362735 0.99207473
vt 0.23381527 0.99640572
vt 0.23032707 0.99362022
vt 0.23263751 0.99407005
vt 0.2366378 0.99136269
vt 0.23863238 0.99131769
vt 0.23646909 0.99606878
vt 0.23837976 0.99592644
vt 0.23815684 0.99544328
vt 0.2391911 0.99453831
usemtl Tile_+038_+020_L19_000303_0
f 33/1 32/2 37/3
f 18/512 19/513 43/514
f 27/539 8/540 26/541
f 44/515 43/514 25/517
f 30/545 26/541 35/547
f 373/6 32/2 374/10
f 29/809 45/810 38/811
f 43/514 44/515 18/512
f 13/7 14/13 33/1
f 25/517 21/520 44/515
f 25/517 19/513 375/519
f 25/517 43/514 19/513
f 6/556 40/557 492/558
f 35/547 41/551 30/545
f 35/547 10/549 41/551
f 33/1 37/3 39/4
f 382/5 33/1 383/9
f 33/1 14/13 380/19
f 35/547 26/541 7/544
f 15/18 14/13 13/7
f 10/812 29/809 38/811
f 1/59 34/68 20/80
f 27/539 17/543 8/540
f 545/35 11/29 546/43
f 30/545 31/542 26/541
f 28/571 29/573 10/569
f 31/542 27/539 26/541
f 36/8 37/3 377/14
f 16/546 8/540 17/543
f 5/550 7/544 16/546
f 37/3 36/8 39/4
f 356/67 3/36 390/58
f 26/541 8/540 7/544
f 40/554 6/555 5/550
f 3/36 1/59 4/53
f 24/106 2/91 1/59
f 381/28 23/24 388/34
f 14/13 15/18 23/24
f 3/36 289/21 395/30
f 3/36 34/68 1/59
f 40/554 5/550 22/552
f 393/90 34/68 399/102
f 3/815 356/816 34/817
f 4/53 288/38 3/36
f 289/21 36/8 387/20
f 3/36 288/38 289/21
f 44/89 22/104 1/59
f 44/515 21/520 22/523
f 40/527 22/523 21/520
f 24/106 1/59 22/104
f 494/530 21/520 495/533
f 34/68 356/67 391/79
f 18/103 44/89 20/80
f 44/89 1/59 20/80
f 389/120 20/80 400/138
f 540/525 401/528 541/531
f 10/812 38/811 41/814
f 16/546 7/544 8/540
f 19/513 18/512 385/516
f 7/544 5/550 9/553
f 9/553 10/549 7/544
f 10/569 313/565 28/571
f 24/548 16/546 17/543
f 39/4 13/7 33/1
f 9/563 6/556 42/561
f 9/553 5/550 6/555
f 11/29 23/24 15/18
f 35/547 7/544 10/549
f 10/569 9/563 313/565
f 22/552 5/550 16/546
f 16/546 24/548 22/552
f 42/561 6/556 493/559
f 340/123 223/110 222/141
f 500/570 304/564 501/566
f 334/574 45/575 28/571
f 261/37 351/41 331/22
f 234/126 233/149 232/170
f 276/95 242/82 302/60
f 343/349 151/354 348/357
f 276/821 268/822 349/823
f 334/425 305/426 315/427
f 310/871 309/872 324/873
f 45/575 29/573 28/571
f 303/786 292/787 254/788
f 308/431 333/428 41/434
f 199/257 337/238 93/275
f 350/23 331/22 322/33
f 27/437 210/439 17/440
f 74/276 337/238 345/258
f 302/60 312/54 261/37
f 324/157 223/110 346/142
f 220/85 187/140 294/121
f 211/108 224/70 335/122
f 212/175 329/152 311/219
f 314/119 325/88 191/137
f 300/177 340/123 192/178
f 212/890 316/891 329/892
f 145/351 343/349 249/345
f 339/220 68/260 244/241
f 340/123 310/180 192/178
f 244/686 345/687 338/688
f 340/336 300/335 194/334
f 209/756 326/757 311/758
f 209/756 323/760 326/757
f 329/892 316/891 327/893
f 224/70 302/60 242/82
f 266/76 268/87 302/60
f 348/673 247/674 165/675
f 15/18 355/27 11/29
f 315/427 333/428 334/425
f 303/751 255/752 275/753
f 292/746 275/747 255/748
f 310/180 318/239 311/219
f 353/343 318/341 330/340
f 185/442 2/445 24/443
f 350/23 322/33 11/29
f 294/607 293/608 503/609
f 331/22 296/15 265/31
f 308/813 41/814 38/811
f 331/22 265/31 261/37
f 332/625 180/626 255/627
f 218/432 344/429 217/436
f 217/617 344/619 305/618
f 342/856 193/857 300/858
f 305/572 334/574 28/571
f 265/31 296/15 283/26
f 214/92 294/121 295/107
f 27/437 31/433 315/427
f 285/69 287/61 286/56
f 221/83 250/62 287/61
f 304/564 42/561 499/562
f 11/29 322/33 190/48
f 255/534 303/535 332/536
f 281/118 282/100 269/75
f 296/15 331/22 354/17
f 294/121 187/140 295/107
f 220/85 294/121 504/130
f 15/18 12/12 350/23
f 330/340 321/342 247/344
f 353/343 330/340 207/346
f 318/759 208/761 209/756
f 247/693 248/695 207/696
f 234/126 205/184 126/162
f 506/166 182/98 507/146
f 227/201 228/169 230/168
f 66/210 94/224 159/211
f 307/182 347/194 159/211
f 324/873 309/872 245/874
f 346/142 66/210 347/194
f 346/142 352/158 157/181
f 224/70 211/108 201/93
f 312/54 351/41 261/37
f 341/839 342/840 203/841
f 261/37 259/55 302/60
f 348/389 336/390 343/391
f 328/764 335/766 203/763
f 247/344 343/349 336/352
f 204/216 237/215 508/247
f 95/689 244/686 348/690
f 343/349 247/344 249/345
f 226/202 237/215 236/187
f 264/39 287/61 250/62
f 195/94 242/82 223/110
f 348/389 165/392 336/390
f 328/764 208/761 317/762
f 347/194 66/210 159/211
f 346/142 347/194 307/182
f 324/337 307/338 310/339
f 244/686 95/689 345/687
f 312/54 319/66 189/49
f 351/41 312/54 189/49
f 350/23 355/27 15/18
f 273/124 346/142 223/110
f 224/70 195/94 203/111
f 190/597 320/598 194/599
f 281/118 243/112 276/95
f 319/66 312/54 202/78
f 273/124 352/158 346/142
f 267/64 266/76 259/55
f 211/601 200/602 201/606
f 268/87 281/118 349/135
f 151/676 165/675 247/674
f 317/653 207/654 314/655
f 311/662 326/666 316/657
f 247/344 207/346 330/340
f 249/345 159/348 60/350
f 335/122 224/70 203/111
f 247/693 348/690 244/686
f 256/783 299/784 279/785
f 247/779 336/780 151/781
f 151/354 343/349 145/351
f 548/274 198/291 550/301
f 222/141 246/179 309/156
f 197/189 338/208 337/238
f 246/179 339/220 338/208
f 338/208 345/258 337/238
f 337/238 199/257 197/189
f 551/101 314/119 552/136
f 199/365 248/366 244/367
f 244/409 197/420 199/421
f 206/192 197/189 212/175
f 64/402 246/406 68/398
f 92/412 246/406 79/408
f 74/276 93/275 337/238
f 339/694 345/687 68/691
f 74/276 345/258 339/220
f 315/427 305/426 344/429
f 190/48 189/49 319/66
f 338/208 206/192 246/179
f 314/655 329/667 327/663
f 56/193 66/210 346/142
f 246/179 92/240 339/220
f 64/259 339/220 92/240
f 323/898 191/899 326/900
f 323/901 327/902 191/903
f 194/599 320/598 211/601
f 335/603 342/605 194/599
f 325/332 190/333 194/334
f 311/758 318/759 209/756
f 194/334 300/335 325/332
f 223/110 340/123 195/94
f 329/152 326/190 310/180
f 310/180 311/219 329/152
f 197/189 206/192 338/208
f 326/190 329/152 252/176
f 314/887 316/888 212/889
f 197/189 196/151 212/175
f 325/88 193/153 191/137
f 310/180 326/190 191/137
f 310/339 307/338 330/340
f 310/180 340/123 309/156
f 191/137 329/152 314/119
f 314/655 323/660 193/658
f 252/671 327/670 326/669
f 554/51 190/48 555/65
f 190/48 325/88 553/77
f 157/181 56/193 346/142
f 353/343 207/346 317/347
f 208/761 203/763 323/760
f 194/599 211/601 335/603
f 189/49 190/48 322/33
f 330/340 307/338 321/342
f 314/655 193/658 328/656
f 319/600 320/598 190/597
f 214/612 225/610 294/607
f 200/602 320/598 319/600
f 208/761 318/759 317/762
f 316/657 206/659 311/662
f 218/432 315/427 344/429
f 196/151 248/206 556/205
f 165/392 95/393 336/390
f 314/655 328/656 317/653
f 310/339 330/340 318/341
f 342/665 335/661 193/658
f 296/15 354/17 39/4
f 12/12 15/18 13/7
f 30/430 41/434 333/428
f 315/427 30/430 333/428
f 217/617 216/613 219/615
f 39/4 354/17 12/12
f 276/95 349/135 281/118
f 268/87 276/95 302/60
f 135/127 241/114 251/97
f 28/571 213/568 305/572
f 315/427 31/433 30/430
f 332/536 181/537 306/538
f 291/630 306/628 181/631
f 331/22 350/23 12/12
f 39/4 36/8 296/15
f 12/12 354/17 331/22
f 12/12 13/7 39/4
f 306/628 291/630 290/629
f 28/571 313/565 213/568
f 315/427 218/432 27/437
f 309/156 340/123 222/141
f 223/110 242/82 273/124
f 312/54 302/60 224/70
f 206/415 207/419 244/409
f 245/413 309/418 206/415
f 258/40 265/31 283/26
f 45/435 334/425 308/431
f 308/431 334/425 333/428
f 38/811 45/810 308/813
f 159/348 249/345 307/338
f 322/33 351/41 189/49
f 552/136 196/151 558/174
f 250/62 220/85 235/72
f 253/616 293/608 216/613
f 278/132 280/150 137/171
f 180/626 332/625 306/628
f 305/572 213/568 253/567
f 222/844 324/845 245/846
f 267/64 259/55 263/47
f 339/220 244/241 338/208
f 255/748 254/749 292/746
f 303/535 181/537 332/536
f 214/441 210/439 219/438
f 264/39 286/56 287/61
f 295/107 187/140 186/155
f 185/442 184/444 2/445
f 269/75 277/134 281/118
f 283/26 263/47 258/40
f 251/97 179/113 170/125
f 277/134 278/132 274/159
f 280/150 62/172 137/171
f 264/39 270/57 263/47
f 302/60 301/71 266/76
f 269/75 256/73 272/99
f 241/114 240/128 279/84
f 203/859 342/856 300/858
f 251/97 235/72 179/113
f 263/47 270/57 257/63
f 247/344 321/342 249/345
f 262/74 299/86 257/63
f 175/775 297/776 177/777
f 290/620 291/621 180/622
f 318/341 353/343 317/347
f 249/345 321/342 307/338
f 294/607 225/610 293/608
f 288/38 284/32 289/21
f 283/26 284/32 264/39
f 225/610 214/612 219/615
f 289/21 284/32 283/26
f 260/46 265/31 258/40
f 4/53 285/69 286/56
f 288/38 4/53 286/56
f 296/15 36/8 289/21
f 288/38 286/56 264/39
f 264/39 284/32 288/38
f 289/21 283/26 296/15
f 285/69 214/92 295/107
f 295/755 186/754 275/753
f 295/107 275/96 285/69
f 184/81 285/69 1/59
f 221/83 287/61 285/69
f 220/750 275/747 292/746
f 186/754 303/751 275/753
f 186/155 220/85 292/191
f 221/83 285/69 275/96
f 285/69 184/81 214/92
f 1/59 2/91 184/81
f 4/53 1/59 285/69
f 17/440 185/442 24/443
f 235/72 234/126 179/113
f 126/162 205/184 171/197
f 243/112 277/134 273/124
f 251/97 241/114 279/84
f 274/159 273/124 277/134
f 281/118 277/134 243/112
f 269/75 268/87 267/64
f 524/186 231/147 526/200
f 259/55 258/40 263/47
f 250/62 270/57 264/39
f 261/37 265/31 260/46
f 260/46 258/40 259/55
f 259/55 261/37 260/46
f 263/47 256/73 269/75
f 257/63 270/57 262/74
f 269/75 282/100 268/87
f 268/87 282/100 281/118
f 278/132 277/134 269/75
f 137/171 273/124 278/132
f 278/132 239/117 280/150
f 271/133 238/145 239/117
f 269/75 272/99 239/117
f 262/74 270/57 279/84
f 251/97 279/84 235/72
f 279/84 270/57 235/72
f 299/86 262/74 279/84
f 272/99 240/128 271/133
f 272/99 271/133 239/117
f 273/124 274/159 278/132
f 62/172 280/150 239/117
f 263/47 269/75 267/64
f 259/55 301/71 302/60
f 270/57 250/62 235/72
f 269/75 239/117 278/132
f 346/142 307/182 324/157
f 271/133 240/128 238/145
f 314/655 327/663 323/660
f 193/658 335/661 328/656
f 316/668 326/669 327/670
f 197/420 244/409 207/419
f 208/761 328/764 203/763
f 137/171 352/158 273/124
f 64/402 79/408 246/406
f 68/398 246/406 244/409
f 248/695 247/693 244/686
f 95/689 68/691 345/687
f 244/409 246/406 245/413
f 207/696 248/695 197/697
f 206/415 244/409 245/413
f 276/95 243/112 242/82
f 60/350 145/351 249/345
f 238/145 215/173 239/117
f 290/629 180/626 306/628
f 234/126 232/170 236/187
f 236/187 205/184 234/126
f 226/202 227/201 520/235
f 182/98 188/116 235/72
f 229/148 233/149 188/116
f 231/147 230/168 183/131
f 230/168 228/169 183/131
f 182/98 220/85 505/115
f 229/148 232/170 233/149
f 237/215 205/184 236/187
f 511/236 226/202 527/254
f 521/218 230/168 523/233
f 228/169 227/201 232/170
f 232/824 229/825 228/826
f 226/202 232/170 227/201
f 188/116 183/131 229/148
f 234/126 126/162 47/143
f 232/170 226/202 236/187
f 220/85 182/98 235/72
f 205/184 204/216 171/197
f 263/47 257/63 256/73
f 256/73 257/63 299/86
f 267/64 268/87 266/76
f 301/71 259/55 266/76
f 254/742 255/743 181/744
f 303/745 254/742 181/744
f 216/613 217/617 253/616
f 151/781 336/780 95/782
f 95/689 348/690 151/692
f 191/137 252/176 329/152
f 327/670 252/671 191/672
f 250/62 221/83 220/85
f 217/436 219/438 218/432
f 219/438 210/439 218/432
f 253/616 304/614 293/608
f 225/610 216/613 293/608
f 312/54 224/70 202/78
f 93/275 198/291 199/257
f 42/561 304/564 253/567
f 223/110 324/157 222/141
f 186/155 292/191 303/207
f 311/219 206/192 212/175
f 235/72 188/116 234/126
f 279/84 240/128 272/99
f 305/618 253/616 217/617
f 331/22 351/41 322/33
f 42/561 213/568 313/565
f 313/565 9/563 42/561
f 216/613 225/610 219/615
f 210/439 185/442 17/440
f 157/181 352/158 137/171
f 206/659 316/657 207/654
f 220/85 221/83 275/96
f 171/197 204/216 512/230
f 300/767 192/765 203/763
f 192/765 323/760 203/763
f 202/78 201/93 200/109
f 203/841 195/842 341/839
f 242/82 195/94 224/70
f 243/112 273/124 242/82
f 237/215 204/216 205/184
f 320/598 200/602 211/601
f 11/29 355/27 350/23
f 207/654 316/657 314/655
f 248/206 199/257 549/237
f 245/413 246/406 222/416
f 194/843 341/839 195/842
f 193/658 323/660 192/664
f 191/137 193/153 192/178
f 341/839 194/843 342/840
f 340/793 194/794 195/795
f 193/153 325/88 300/177
f 192/178 310/180 191/137
f 314/119 212/175 196/151
f 209/756 208/761 323/760
f 319/600 202/604 200/602
f 197/189 248/206 196/151
f 62/172 239/117 215/173
f 253/567 213/568 42/561
f 185/442 210/439 214/441
f 210/439 27/437 218/432
f 246/179 206/192 309/156
f 234/126 188/116 233/149
f 264/39 263/47 283/26
f 220/85 186/155 187/140
f 214/441 184/444 185/442
f 256/73 279/84 272/99
f 182/98 231/147 183/131
f 183/131 188/116 182/98
f 229/148 183/131 228/169
f 180/622 291/621 181/623
f 255/624 180/622 181/623
f 224/70 201/93 202/78
f 133/827 161/828 160/829
f 98/312 134/278 103/304
f 173/446 172/447 142/448
f 126/162 171/197 121/214
f 134/278 51/293 80/263
f 175/771 177/772 176/773
f 48/465 116/459 174/464
f 88/322 120/305 102/313
f 158/204 62/172 215/173
f 77/698 98/699 402/700
f 60/350 59/353 145/351
f 117/632 118/633 130/634
f 94/852 56/853 67/854
f 404/796 75/797 405/798
f 56/193 157/181 58/209
f 170/125 179/113 47/143
f 69/702 70/709 88/708
f 126/162 122/196 46/161
f 71/372 73/370 103/373
f 103/373 84/375 71/372
f 115/478 55/479 54/480
f 143/490 124/491 113/492
f 122/196 108/228 100/213
f 179/113 234/126 47/143
f 156/678 163/679 372/680
f 371/231 168/251 369/199
f 160/831 161/832 132/833
f 158/204 157/181 137/171
f 159/348 94/355 59/353
f 134/278 120/305 51/293
f 52/677 165/675 151/676
f 85/256 169/294 87/264
f 102/313 99/326 88/322
f 134/278 102/313 120/305
f 53/356 52/359 151/354
f 148/636 143/639 130/634
f 148/636 152/641 149/644
f 143/490 113/492 130/493
f 86/223 87/264 81/242
f 85/256 86/223 138/261
f 108/228 122/196 153/227
f 104/292 134/278 81/242
f 118/633 117/632 114/635
f 97/576 106/577 416/578
f 157/181 86/223 58/209
f 94/355 80/358 59/353
f 137/171 62/172 61/203
f 114/635 140/640 141/637
f 145/351 59/353 53/356
f 359/732 140/733 144/734
f 113/492 125/495 54/496
f 55/479 110/482 114/485
f 54/480 55/479 130/483
f 122/196 121/214 153/227
f 121/214 171/197 109/229
f 416/714 70/709 418/715
f 402/325 82/321 419/328
f 98/312 102/313 134/278
f 77/698 69/702 98/699
f 161/828 133/827 132/830
f 127/467 129/469 128/473
f 118/633 148/636 130/634
f 91/397 52/394 559/400
f 91/397 89/395 52/394
f 74/789 64/790 67/791
f 108/228 101/280 63/296
f 119/323 88/322 561/329
f 108/228 109/229 101/280
f 119/323 50/314 120/305
f 120/305 88/322 119/323
f 114/485 117/486 55/479
f 115/455 116/459 111/453
f 54/480 150/484 112/481
f 130/493 113/492 54/496
f 532/268 131/248 533/283
f 422/588 97/576 423/584
f 87/264 105/279 81/242
f 424/246 107/267 425/281
f 46/161 122/196 100/213
f 565/711 106/712 566/713
f 567/377 427/374 577/379
f 97/576 96/589 78/585
f 407/593 96/589 421/592
f 561/710 70/709 565/711
f 104/292 81/242 105/279
f 90/580 72/582 567/586
f 74/383 91/384 570/385
f 92/240 89/262 74/276
f 84/327 103/304 435/324
f 76/799 71/806 96/803
f 103/304 104/292 105/279
f 84/414 82/410 78/401
f 82/410 103/407 78/401
f 97/576 72/582 90/580
f 98/699 69/702 99/705
f 63/296 101/280 534/299
f 78/401 71/417 84/414
f 79/422 74/423 67/424
f 103/407 73/405 78/401
f 103/304 82/321 98/312
f 78/808 96/803 71/806
f 73/370 72/371 74/368
f 427/374 71/372 438/376
f 426/707 69/702 439/704
f 72/582 78/585 74/590
f 95/393 52/394 89/395
f 78/585 72/582 97/576
f 95/393 165/392 52/394
f 93/275 74/276 573/302
f 71/806 76/799 437/805
f 80/358 94/355 57/361
f 92/240 74/276 65/277
f 91/384 74/383 78/386
f 439/704 77/698 440/706
f 80/263 57/222 81/242
f 78/401 73/405 89/395
f 87/264 86/223 85/256
f 75/797 84/801 83/804
f 83/860 82/861 75/862
f 73/370 71/372 72/371
f 163/252 371/231 372/198
f 74/368 89/369 73/370
f 64/402 68/398 67/396
f 74/789 339/792 64/790
f 92/240 65/277 64/259
f 88/708 99/705 69/702
f 56/193 58/209 57/222
f 146/638 148/636 118/633
f 146/638 152/641 148/636
f 49/306 51/293 50/314
f 363/456 111/453 116/459
f 139/221 138/261 86/223
f 111/453 110/449 115/455
f 140/733 114/736 144/734
f 123/232 168/251 443/271
f 364/452 173/446 178/451
f 147/642 149/644 445/646
f 142/488 114/485 110/482
f 372/680 166/681 156/678
f 447/270 163/252 448/286
f 143/490 147/494 124/491
f 163/510 156/508 410/509
f 154/717 164/718 63/719
f 107/721 164/718 154/717
f 136/144 241/114 135/127
f 164/718 108/722 63/719
f 297/774 176/773 177/772
f 297/776 175/775 176/778
f 365/834 174/835 454/836
f 108/722 164/718 107/721
f 136/144 135/127 366/163
f 168/251 123/232 369/199
f 415/226 100/213 461/244
f 156/678 166/681 357/683
f 170/125 135/127 251/97
f 238/145 240/128 241/114
f 121/214 122/196 126/162
f 241/114 370/165 238/145
f 372/198 370/165 167/164
f 167/164 370/165 241/114
f 369/199 123/232 368/217
f 368/217 123/232 458/253
f 85/256 368/217 462/272
f 456/307 169/294 460/316
f 459/300 85/256 463/290
f 85/768 138/769 139/770
f 368/217 85/256 139/221
f 139/221 158/204 368/217
f 158/204 215/173 368/217
f 96/864 75/862 82/861
f 157/181 158/204 139/221
f 102/313 98/312 99/326
f 359/643 358/645 141/637
f 86/223 157/181 139/221
f 92/412 79/408 67/396
f 95/393 89/395 67/396
f 64/402 65/411 79/408
f 65/277 74/276 79/303
f 58/209 81/242 57/222
f 137/818 61/819 158/820
f 57/222 89/262 92/240
f 57/403 94/399 89/395
f 67/396 89/395 94/399
f 56/193 94/224 66/210
f 81/242 134/278 80/263
f 95/393 67/396 68/398
f 142/448 110/449 173/446
f 110/449 178/451 173/446
f 81/242 58/209 86/223
f 59/353 60/350 159/348
f 134/278 104/292 103/304
f 89/395 91/397 78/401
f 49/306 50/314 119/323
f 162/315 80/263 49/306
f 80/263 51/293 49/306
f 49/364 119/362 162/360
f 120/305 50/314 51/293
f 145/351 53/356 151/354
f 52/359 53/356 119/362
f 53/356 59/353 162/360
f 559/331 119/323 562/330
f 54/496 125/495 150/502
f 158/204 61/203 62/172
f 125/495 113/492 124/491
f 119/362 53/356 162/360
f 160/829 132/830 133/827
f 110/482 55/479 115/478
f 107/721 154/717 530/725
f 106/577 90/580 563/583
f 168/251 371/231 466/269
f 109/229 153/227 121/214
f 108/228 153/227 109/229
f 101/280 109/229 532/268
f 141/637 146/638 118/633
f 143/639 148/636 147/642
f 469/498 124/491 470/499
f 361/497 147/494 465/500
f 135/127 170/125 128/160
f 128/160 129/183 135/127
f 55/479 117/486 130/483
f 116/459 362/458 363/456
f 111/453 178/451 110/449
f 111/453 363/456 178/451
f 364/452 178/451 363/456
f 173/446 360/450 172/447
f 360/450 364/452 474/454
f 48/465 365/470 455/472
f 174/464 365/470 48/465
f 367/461 127/467 174/464
f 154/717 63/719 536/720
f 362/458 48/465 472/462
f 116/459 48/465 362/458
f 474/454 362/458 477/460
f 358/645 152/641 141/637
f 357/501 125/495 469/498
f 479/648 358/645 481/652
f 149/644 152/641 358/645
f 359/732 144/734 172/735
f 114/736 142/739 172/735
f 172/735 144/734 114/736
f 146/638 141/637 152/641
f 118/633 114/635 141/637
f 360/737 359/732 172/735
f 359/732 360/737 476/738
f 482/647 359/643 483/651
f 141/637 140/640 359/643
f 84/801 75/797 76/799
f 96/803 84/801 76/799
f 83/860 84/868 436/866
f 82/861 83/860 484/863
f 46/161 100/213 155/195
f 370/165 372/198 369/199
f 46/161 47/143 126/162
f 112/481 115/478 54/480
f 116/459 367/461 174/464
f 241/114 136/144 167/164
f 131/248 171/197 529/249
f 147/642 148/636 149/644
f 470/499 361/497 487/503
f 150/684 357/683 167/682
f 46/161 128/160 170/125
f 170/125 47/143 46/161
f 136/685 150/684 167/682
f 129/469 127/467 367/461
f 367/461 366/466 129/469
f 128/160 155/195 451/212
f 550/301 93/275 574/310
f 97/576 90/580 106/577
f 115/455 112/463 367/461
f 82/807 84/801 96/803
f 171/197 131/248 109/229
f 100/213 108/228 424/246
f 150/484 136/487 112/481
f 129/183 366/163 135/127
f 124/491 147/494 361/497
f 167/682 166/681 372/680
f 360/450 173/446 364/452
f 370/165 369/199 215/173
f 128/160 46/161 155/195
f 409/471 127/467 490/474
f 125/495 357/501 150/502
f 369/199 372/198 371/231
f 368/217 215/173 369/199
f 215/173 238/145 370/165
f 127/467 128/473 488/476
f 434/318 105/279 491/308
f 105/279 87/264 464/295
f 92/855 67/854 56/853
f 56/193 57/222 92/240
f 162/360 59/353 80/358
f 136/487 366/489 112/481
f 112/463 366/466 367/461
f 357/683 166/681 167/682
f 367/461 116/459 115/455
f 363/456 362/458 364/452
f 411/507 357/501 480/506
f 373/6 37/3 32/2
f 374/10 32/2 382/5
f 375/519 19/513 392/518
f 376/521 25/517 375/519
f 377/14 37/3 378/11
f 378/11 37/3 373/6
f 379/25 14/13 381/28
f 380/19 14/13 379/25
f 381/28 14/13 23/24
f 382/5 32/2 33/1
f 383/9 33/1 384/16
f 384/16 33/1 380/19
f 385/154 18/103 386/139
f 386/139 18/103 389/120
f 387/20 36/8 377/14
f 388/34 23/24 547/42
f 389/120 18/103 20/80
f 390/58 3/36 397/52
f 391/79 356/67 390/58
f 392/518 19/513 385/516
f 393/90 20/80 34/68
f 394/105 20/80 393/90
f 395/30 289/21 387/20
f 396/45 3/36 395/30
f 397/52 3/36 396/45
f 398/524 25/517 376/521
f 399/102 34/68 391/79
f 400/875 20/876 394/877
f 496/522 25/517 540/525
f 401/528 25/517 398/524
f 402/325 98/312 82/321
f 403/701 77/698 402/700
f 404/796 76/799 75/797
f 405/596 75/594 406/595
f 406/595 75/594 407/593
f 407/593 75/594 96/589
f 408/475 174/464 409/471
f 409/471 174/464 127/467
f 410/509 156/508 411/507
f 411/507 156/508 357/501
f 412/731 107/721 413/729
f 413/729 107/721 543/727
f 414/245 155/195 415/226
f 415/226 155/195 100/213
f 416/714 106/712 70/709
f 417/579 97/576 416/578
f 418/715 70/709 420/716
f 419/869 82/861 441/867
f 420/907 70/908 426/909
f 421/592 96/589 422/588
f 422/588 96/589 97/576
f 423/584 97/576 429/581
f 424/246 108/228 107/267
f 425/281 107/267 412/297
f 426/707 70/709 69/702
f 427/374 72/371 71/372
f 427/374 428/381 568/380
f 429/581 97/576 417/579
f 430/802 76/799 431/800
f 431/800 76/799 404/796
f 432/317 87/264 456/307
f 433/309 87/264 432/317
f 434/318 103/304 105/279
f 435/324 103/304 434/318
f 436/866 84/868 435/870
f 437/805 76/799 430/802
f 438/376 71/372 437/378
f 439/704 69/702 77/698
f 440/706 77/698 442/703
f 441/867 82/861 485/865
f 442/703 77/698 403/701
f 443/271 168/251 468/289
f 444/288 123/232 443/271
f 445/646 149/644 478/650
f 446/649 147/642 445/646
f 447/270 371/231 163/252
f 448/511 163/510 410/509
f 449/225 155/195 450/243
f 450/243 155/195 452/265
f 451/212 155/195 449/225
f 452/265 155/195 453/266
f 453/266 155/195 414/245
f 454/836 174/835 408/838
f 455/837 365/834 454/836
f 456/307 87/264 169/294
f 457/904 123/905 444/906
f 458/253 123/232 457/273
f 459/300 169/294 85/256
f 460/316 169/294 459/300
f 461/244 100/213 424/246
f 462/272 368/217 458/253
f 463/290 85/256 462/272
f 464/295 87/264 433/309
f 465/500 147/494 446/505
f 466/269 371/231 486/285
f 467/284 168/251 466/269
f 468/289 168/251 467/284
f 469/498 125/495 124/491
f 470/499 124/491 361/497
f 471/504 361/497 465/500
f 472/462 48/465 473/468
f 473/468 48/465 455/472
f 474/454 364/452 362/458
f 475/457 360/450 474/454
f 476/738 360/737 475/741
f 477/460 362/458 472/462
f 478/650 149/644 479/648
f 479/648 149/644 358/645
f 480/506 357/501 469/498
f 481/652 358/645 482/647
f 482/647 358/645 359/643
f 483/740 359/732 476/738
f 484/863 83/860 436/866
f 485/865 82/861 484/863
f 486/285 371/231 489/287
f 487/503 361/497 471/504
f 488/476 128/473 451/477
f 489/287 371/231 447/270
f 490/474 127/467 488/476
f 491/308 105/279 464/295
f 492/558 40/557 494/560
f 493/559 6/556 492/558
f 494/530 40/527 21/520
f 495/533 21/520 502/532
f 496/522 21/520 25/517
f 497/526 21/520 496/522
f 498/529 21/520 497/526
f 499/562 42/561 493/559
f 500/611 293/608 304/614
f 501/566 304/564 499/562
f 502/532 21/520 498/529
f 503/609 293/608 500/611
f 504/130 294/121 503/167
f 505/115 220/85 504/130
f 506/166 231/147 182/98
f 507/146 182/98 528/129
f 508/247 237/215 510/255
f 509/250 204/216 508/247
f 510/255 237/215 511/236
f 511/236 237/215 226/202
f 512/230 204/216 509/250
f 513/847 298/848 514/849
f 514/878 298/879 516/880
f 515/850 298/848 513/847
f 516/880 298/879 517/881
f 517/851 298/848 515/850
f 518/185 231/147 506/166
f 519/234 227/201 521/218
f 520/235 227/201 519/234
f 521/218 227/201 230/168
f 522/882 230/883 525/884
f 523/885 230/883 522/882
f 524/186 230/168 231/147
f 525/884 230/883 524/886
f 526/200 231/147 518/185
f 527/254 226/202 520/235
f 528/129 182/98 505/115
f 529/249 171/197 512/230
f 530/725 154/717 542/728
f 531/726 154/717 537/723
f 532/268 109/229 131/248
f 533/283 131/248 539/298
f 534/299 101/280 532/268
f 535/319 63/296 534/299
f 536/720 63/719 535/724
f 537/723 154/717 536/720
f 538/282 131/248 529/249
f 539/298 131/248 538/282
f 540/525 25/517 401/528
f 542/728 154/717 531/726
f 543/727 107/721 530/725
f 544/730 413/729 543/727
f 545/35 23/24 11/29
f 546/43 11/29 554/51
f 547/42 23/24 575/44
f 548/274 199/257 198/291
f 549/237 199/257 548/274
f 550/301 198/291 93/275
f 551/101 325/88 314/119
f 552/136 314/119 196/151
f 553/77 325/88 551/101
f 554/51 11/29 190/48
f 555/65 190/48 553/77
f 556/205 248/206 549/237
f 557/188 196/151 556/205
f 558/174 196/151 557/188
f 559/363 52/359 119/362
f 560/404 91/397 559/400
f 561/710 88/708 70/709
f 562/330 119/323 561/329
f 563/894 90/895 564/896
f 564/896 90/895 571/897
f 565/711 70/709 106/712
f 566/587 106/577 563/583
f 567/377 72/371 427/374
f 568/380 428/381 578/382
f 569/387 91/384 560/388
f 570/385 91/384 569/387
f 571/591 90/580 567/586
f 572/311 74/276 570/320
f 573/302 74/276 572/311
f 574/310 93/275 573/302
f 575/44 23/24 545/35
f 576/50 388/34 547/42
f 577/379 427/374 568/380
usemtl Tile_+038_+020_L19_000303_untextured
