mtllib Tile_+038_+020_L19_000022.mtl
v 7.78739938e+03 4.85565579e+03 3.36342614e+01
v 7.78616192e+03 4.85552237e+03 3.32673698e+01
v 7.78582875e+03 4.85498902e+03 3.46946639e+01
v 7.78744405e+03 4.85557557e+03 3.22272791e+01
v 7.78699651e+03 4.85565939e+03 3.14379108e+01
v 7.78722550e+03 4.85588199e+03 3.25649595e+01
v 7.78799803e+03 4.85538951e+03 3.34533517e+01
v 7.78817513e+03 4.85490049e+03 3.16892303e+01
v 7.78741037e+03 4.85540682e+03 3.16890738e+01
v 7.78854087e+03 4.85574650e+03 3.27592595e+01
v 7.78868115e+03 4.85522345e+03 3.27820392e+01
v 7.78520648e+03 4.85680983e+03 3.15696383e+01
v 7.78328351e+03 4.85654688e+03 3.24508057e+01
v 7.78860152e+03 4.85563924e+03 3.19179978e+01
v 7.78552657e+03 4.85479324e+03 3.30001091e+01
v 7.79241695e+03 4.85452756e+03 3.07870311e+01
v 7.78571437e+03 4.85387859e+03 3.22766340e+01
v 7.78568959e+03 4.85196491e+03 3.35234882e+01
v 7.78584841e+03 4.85352303e+03 3.56131109e+01
v 7.78754729e+03 4.84967658e+03 3.42439485e+01
v 7.78480841e+03 4.85582872e+03 3.48136352e+01
v 7.78443257e+03 4.85518155e+03 3.44919257e+01
v 7.78602894e+03 4.85247656e+03 3.28146557e+01
v 7.78529509e+03 4.85504906e+03 3.64385355e+01
v 7.78533899e+03 4.85496982e+03 3.59856444e+01
v 7.78492486e+03 4.85412725e+03 3.67761703e+01
v 7.78470813e+03 4.85535969e+03 3.61327919e+01
v 7.78565432e+03 4.85575474e+03 3.79517348e+01
v 7.78625070e+03 4.85624827e+03 3.96350883e+01
v 7.78664219e+03 4.85588616e+03 3.79078443e+01
v 7.78725482e+03 4.85527826e+03 3.63651487e+01
v 7.78762199e+03 4.85568597e+03 3.61913107e+01
v 7.78679113e+03 4.85544963e+03 3.52305738e+01
v 7.78719459e+03 4.85606817e+03 3.50692954e+01
v 7.78497826e+03 4.85751246e+03 3.63438888e+01
v 7.78436479e+03 4.85334523e+03 3.59220805e+01
v 7.78590901e+03 4.85534231e+03 3.53685533e+01
v 7.79345759e+03 4.85123344e+03 2.84689713e+01
v 7.79294395e+03 4.85270133e+03 2.96175152e+01
v 7.79352624e+03 4.85103740e+03 2.43890941e+01
v 7.79395765e+03 4.85121127e+03 2.57751092e+01
v 7.79405188e+03 4.85145547e+03 3.07701657e+01
v 7.79351283e+03 4.84987985e+03 2.54171798e+01
v 7.79327655e+03 4.85120165e+03 2.64337313e+01
v 7.79297241e+03 4.85217595e+03 2.51062249e+01
v 7.79260560e+03 4.85379008e+03 2.55003142e+01
v 7.79239589e+03 4.85362953e+03 2.44495131e+01
v 7.79253261e+03 4.85335449e+03 2.66267966e+01
v 7.79258160e+03 4.85342054e+03 2.84651922e+01
v 7.79177474e+03 4.85453492e+03 2.97810299e+01
v 7.79137696e+03 4.85425920e+03 2.77057082e+01
v 7.79076358e+03 4.85523846e+03 2.83568932e+01
v 7.79081886e+03 4.85494463e+03 2.63551787e+01
v 7.79159749e+03 4.85410409e+03 2.50615597e+01
v 7.78944681e+03 4.85633492e+03 2.55211472e+01
v 7.79087617e+03 4.85539347e+03 2.56456857e+01
v 7.78583818e+03 4.84960226e+03 3.43829749e+01
v 7.78486017e+03 4.84834206e+03 4.11545543e+01
v 7.78387183e+03 4.84820819e+03 4.00738242e+01
v 7.78478940e+03 4.85026444e+03 3.93723601e+01
v 7.78382131e+03 4.85036769e+03 4.02825136e+01
v 7.78523772e+03 4.85052013e+03 4.09603593e+01
v 7.78535424e+03 4.85014311e+03 4.20515009e+01
v 7.78386232e+03 4.84878820e+03 3.93652540e+01
v 7.78347810e+03 4.84839369e+03 3.85290142e+01
v 7.78343007e+03 4.85005797e+03 3.86711004e+01
v 7.78522213e+03 4.85370315e+03 3.63331650e+01
v 7.78612270e+03 4.85047106e+03 3.83311361e+01
v 7.78577735e+03 4.84961789e+03 3.75008711e+01
v 7.78595457e+03 4.85017583e+03 4.09725509e+01
v 7.78468574e+03 4.85101632e+03 3.78667307e+01
v 7.78593145e+03 4.85040078e+03 3.93739273e+01
v 7.78611667e+03 4.84844614e+03 4.03557353e+01
v 7.78759604e+03 4.84498843e+03 3.22101264e+01
v 7.79332893e+03 4.84991069e+03 2.84975248e+01
v 7.79068384e+03 4.85584317e+03 3.07910863e+01
v 7.78867107e+03 4.85675360e+03 3.04982555e+01
v 7.78837351e+03 4.85622367e+03 3.09961258e+01
v 7.78718255e+03 4.85754427e+03 3.07128183e+01
v 7.78596048e+03 4.85634729e+03 3.94152602e+01
v 7.78653685e+03 4.85653017e+03 3.84528865e+01
v 7.78682010e+03 4.85723979e+03 3.69970154e+01
v 7.78728683e+03 4.85752783e+03 3.61727405e+01
v 7.78657838e+03 4.85739121e+03 3.44180863e+01
v 7.78666399e+03 4.85694377e+03 3.28899618e+01
v 7.78704839e+03 4.85710402e+03 3.50316812e+01
v 7.78670566e+03 4.85691002e+03 3.17216667e+01
v 7.78980469e+03 4.85591459e+03 2.97153649e+01
v 7.78951662e+03 4.85571509e+03 2.62573641e+01
v 7.78876710e+03 4.85520442e+03 3.15025819e+01
v 7.78458907e+03 4.85738367e+03 3.62225460e+01
v 7.78520689e+03 4.85727842e+03 3.49947227e+01
v 7.78461927e+03 4.85679200e+03 3.31879233e+01
v 7.78574856e+03 4.85816537e+03 3.01502781e+01
v 7.78643971e+03 4.85705789e+03 2.88659990e+01
v 7.78549216e+03 4.86036591e+03 3.06983189e+01
v 7.78500851e+03 4.85756501e+03 3.09498635e+01
v 7.78232556e+03 4.85727831e+03 3.21838924e+01
v 7.78516087e+03 4.86160398e+03 3.07742434e+01
v 7.78493141e+03 4.86093186e+03 2.91845011e+01
v 7.78529761e+03 4.86025393e+03 2.63209571e+01
v 7.78446461e+03 4.86137984e+03 2.62355410e+01
v 7.78493915e+03 4.85885733e+03 2.68983639e+01
v 7.78616514e+03 4.85830288e+03 2.69921276e+01
v 7.78324466e+03 4.86175761e+03 3.07111935e+01
v 7.78748681e+03 4.86014408e+03 2.63214189e+01
v 7.78711687e+03 4.86139998e+03 2.54536137e+01
v 7.78864525e+03 4.86065732e+03 2.56309097e+01
v 7.78454676e+03 4.86135604e+03 2.83778389e+01
v 7.78481888e+03 4.86060185e+03 2.68001920e+01
v 7.78964218e+03 4.85889570e+03 2.58662384e+01
v 7.78975959e+03 4.85662368e+03 2.44688664e+01
v 7.78689894e+03 4.85686088e+03 2.67512367e+01
v 7.78775347e+03 4.85639480e+03 2.68450265e+01
v 7.78408710e+03 4.85679417e+03 3.16599063e+01
v 7.78517971e+03 4.85932249e+03 2.85082253e+01
v 7.78567680e+03 4.85802318e+03 2.74147642e+01
v 7.78168800e+03 4.86091250e+03 2.83163597e+01
v 7.78749685e+03 4.85723506e+03 2.64071697e+01
v 7.78361772e+03 4.86001944e+03 3.14472073e+01
v 7.78458673e+03 4.86165306e+03 2.53578748e+01
v 7.79222083e+03 4.84492692e+03 1.80894482e+01
v 7.79243556e+03 4.85341526e+03 1.97557217e+01
v 7.79289095e+03 4.85201934e+03 2.30585188e+01
v 7.79340741e+03 4.85107004e+03 2.16658730e+01
v 7.79304665e+03 4.85176164e+03 1.98755398e+01
v 7.79362218e+03 4.85094899e+03 1.95356745e+01
v 7.79082477e+03 4.85493827e+03 2.02463030e+01
v 7.78953421e+03 4.85572783e+03 1.97569393e+01
v 7.79187045e+03 4.85489880e+03 1.81435853e+01
v 7.78921660e+03 4.85647504e+03 1.89746740e+01
v 7.79156311e+03 4.85398714e+03 1.99647511e+01
v 7.79169634e+03 4.85413441e+03 2.27883124e+01
v 7.79253364e+03 4.85352090e+03 2.31106566e+01
v 7.79359603e+03 4.85131031e+03 2.30679512e+01
v 7.79067871e+03 4.85528825e+03 2.44273453e+01
v 7.78574946e+03 4.86141913e+03 2.55509193e+01
v 7.78934141e+03 4.85797923e+03 2.31255113e+01
v 7.78908334e+03 4.85936373e+03 2.28086438e+01
v 7.78370449e+03 4.86875375e+03 1.91596986e+01
v 7.78565329e+03 4.86847757e+03 1.87687072e+01
v 7.78298362e+03 4.86123632e+03 2.03966712e+01
v 7.78806696e+03 4.86068952e+03 2.30085355e+01
v 7.78902047e+03 4.85841885e+03 2.09997485e+01
v 7.78946204e+03 4.85641429e+03 2.26594350e+01
v 7.78953354e+03 4.85595695e+03 2.12801825e+01
v 7.78916585e+03 4.85918885e+03 1.96603885e+01
v 7.78453246e+03 4.86126744e+03 2.11030160e+01
v 7.78771923e+03 4.86072274e+03 1.98800765e+01
v 7.78500986e+03 4.86170418e+03 1.84038990e+01
v 7.78411639e+03 4.86163218e+03 1.91651170e+01
v 7.78119988e+03 4.86189453e+03 2.54230764e+01
v 7.78232895e+03 4.86088031e+03 2.67515472e+01
v 7.78110509e+03 4.86123692e+03 2.66583171e+01
v 7.78204160e+03 4.86149540e+03 2.55464282e+01
v 7.78552462e+03 4.86081670e+03 1.96458349e+01
v 7.78635349e+03 4.86197060e+03 1.83549168e+01
v 7.78256527e+03 4.86174325e+03 1.87175542e+01
v 7.78431160e+03 4.86253750e+03 1.82452852e+01
v 7.78159459e+03 4.86057888e+03 2.30800158e+01
v 7.78321000e+03 4.86742018e+03 1.89220032e+01
v 7.78659996e+03 4.86900346e+03 1.87166804e+01
v 7.79033831e+03 4.86785334e+03 1.85655898e+01
v 7.78850841e+03 4.86904433e+03 1.86385198e+01
v 7.78988342e+03 4.86938790e+03 1.79843483e+01
v 7.79201194e+03 4.86726421e+03 1.79783105e+01
v 7.79088473e+03 4.86839108e+03 1.81789384e+01
v 7.78956304e+03 4.86498927e+03 1.82887318e+01
v 7.78722171e+03 4.86753228e+03 1.81618267e+01
v 7.78781601e+03 4.86925188e+03 1.83511375e+01
v 7.78838015e+03 4.87048182e+03 1.70939388e+01
v 7.78599365e+03 4.86958971e+03 1.75352864e+01
v 7.78719333e+03 4.87057988e+03 1.73302821e+01
v 7.78384185e+03 4.86946856e+03 1.77169739e+01
v 7.79497429e+03 4.86951270e+03 1.74929024e+01
v 7.79290197e+03 4.87136172e+03 1.72054469e+01
v 7.79231038e+03 4.87122970e+03 1.76964504e+01
v 7.79215590e+03 4.87012175e+03 1.78026525e+01
v 7.79292201e+03 4.85333529e+03 1.83573046e+01
v 7.79152976e+03 4.85848417e+03 1.79921054e+01
v 7.79383684e+03 4.85119908e+03 1.81087401e+01
v 7.79495047e+03 4.85846259e+03 1.79446389e+01
v 7.79497003e+03 4.85345579e+03 1.81574417e+01
v 7.79387760e+03 4.86448800e+03 1.79701670e+01
v 7.79676883e+03 4.86471125e+03 1.80071396e+01
v 7.79207673e+03 4.86402278e+03 1.82016145e+01
v 7.78763301e+03 4.86190424e+03 1.80440387e+01
v 7.79065975e+03 4.86369583e+03 1.84441018e+01
v 7.79102022e+03 4.86517336e+03 1.79089199e+01
v 7.78982791e+03 4.85794425e+03 1.84828727e+01
v 7.78912041e+03 4.86015219e+03 1.81440926e+01
v 7.78831529e+03 4.86096421e+03 1.84412750e+01
v 7.79078699e+03 4.86240166e+03 1.81053113e+01
v 7.78620483e+03 4.86509132e+03 1.81324635e+01
v 7.78624768e+03 4.86677711e+03 1.88126414e+01
v 7.78360491e+03 4.86536704e+03 1.78365667e+01
v 7.79496435e+03 4.87216338e+03 1.67817623e+01
v 7.79073535e+03 4.87101150e+03 1.69439086e+01
v 7.79228167e+03 4.87203001e+03 1.70813433e+01
v 7.79105212e+03 4.86938251e+03 1.82680363e+01
v 7.79288484e+03 4.86868148e+03 1.82930734e+01
v 7.78457488e+03 4.87138712e+03 1.69687227e+01
v 7.78279973e+03 4.87121028e+03 1.64979529e+01
v 7.78180306e+03 4.86056379e+03 2.14610514e+01
v 7.78273118e+03 4.86312689e+03 1.79680323e+01
v 7.79393832e+03 4.86924348e+03 1.80743183e+01
v 7.79405275e+03 4.84839915e+03 1.81238292e+01
v 7.79346122e+03 4.84677266e+03 1.82339384e+01
v 7.79320230e+03 4.87335155e+03 1.62699890e+01
v 7.79452808e+03 4.87469384e+03 1.59995797e+01
v 7.78974017e+03 4.87455782e+03 1.61675014e+01
v 7.79089089e+03 4.87267787e+03 1.67162477e+01
v 7.78674850e+03 4.87335287e+03 1.64359545e+01
v 7.78516389e+03 4.87454941e+03 1.55837150e+01
v 7.78639103e+03 4.87227075e+03 1.72051453e+01
v 7.78785966e+03 4.87302923e+03 1.66549878e+01
v 7.78442391e+03 4.87268598e+03 1.59268408e+01
v 7.78116518e+03 4.87192572e+03 1.56726792e+01
v 7.78100474e+03 4.87437924e+03 1.52622136e+01
v 7.78206226e+03 4.86900728e+03 1.80252931e+01
v 7.78103867e+03 4.86175008e+03 1.89126987e+01
v 7.78992701e+03 4.84374375e+03 1.98972903e+01
v 7.79065318e+03 4.84406602e+03 2.29097157e+01
v 7.79059330e+03 4.84429265e+03 2.39976284e+01
v 7.79171938e+03 4.84470279e+03 2.45104337e+01
v 7.79289955e+03 4.84648319e+03 1.95922561e+01
v 7.79413041e+03 4.84881695e+03 2.55571385e+01
v 7.79311451e+03 4.84765841e+03 2.52066557e+01
v 7.79379989e+03 4.84904439e+03 2.47376034e+01
v 7.79037169e+03 4.84362214e+03 2.98435890e+01
v 7.79150799e+03 4.84451508e+03 2.86629106e+01
v 7.78588301e+03 4.85047897e+03 3.65617037e+01
v 7.79355120e+03 4.84769312e+03 2.95955579e+01
v 7.79299813e+03 4.84557688e+03 3.08015249e+01
v 7.79384701e+03 4.85011143e+03 2.95836767e+01
v 7.79316666e+03 4.84780025e+03 2.77685843e+01
v 7.79309371e+03 4.84645217e+03 2.85079424e+01
v 7.79196229e+03 4.84500404e+03 2.91794562e+01
v 7.79378124e+03 4.84700511e+03 3.06599768e+01
v 7.78594752e+03 4.84380936e+03 3.47468898e+01
v 7.78684285e+03 4.84430662e+03 3.53609913e+01
v 7.79242437e+03 4.84598545e+03 2.48097574e+01
v 7.79303757e+03 4.84647529e+03 2.29666453e+01
v 7.79308688e+03 4.84773437e+03 2.30610552e+01
v 7.79281189e+03 4.84645809e+03 2.64515876e+01
v 7.78128241e+03 4.85528177e+03 3.42593942e+01
v 7.79195194e+03 4.84572288e+03 2.81623633e+01
v 7.78104858e+03 4.84393158e+03 3.68755763e+01
v 7.78131562e+03 4.84357140e+03 3.54736481e+01
v 7.78422063e+03 4.84413074e+03 3.50595309e+01
v 7.78157741e+03 4.84414616e+03 3.51387428e+01
v 7.79142621e+03 4.84459762e+03 2.18421752e+01
v 7.79007191e+03 4.84381396e+03 2.79584282e+01
v 7.78753852e+03 4.84370490e+03 3.25852384e+01
v 7.79169788e+03 4.84427535e+03 2.56614109e+01
v 7.79149720e+03 4.84482094e+03 2.66244457e+01
v 7.78566422e+03 4.84401312e+03 3.64254943e+01
v 7.78609666e+03 4.84375501e+03 3.68665915e+01
v 7.78375154e+03 4.84926860e+03 4.08699062e+01
v 7.78437054e+03 4.84984435e+03 4.17569386e+01
v 7.78422924e+03 4.84908557e+03 4.17978373e+01
v 7.78568421e+03 4.84945712e+03 4.29623433e+01
v 7.78566295e+03 4.84936175e+03 4.19214297e+01
v 7.78602301e+03 4.85252215e+03 3.64937517e+01
v 7.78115901e+03 4.86105905e+03 3.62368795e+01
v 7.78105838e+03 4.85993310e+03 3.14380315e+01
v 7.78255268e+03 4.85626387e+03 3.34141633e+01
v 7.78337553e+03 4.84925838e+03 3.91649032e+01
v 7.78434084e+03 4.84981000e+03 4.25105025e+01
v 7.78409356e+03 4.84920904e+03 4.26730919e+01
v 7.79028381e+03 4.84352056e+03 1.89695658e+01
v 7.79188447e+03 4.84579484e+03 2.55790807e+01
v 7.79365391e+03 4.84869541e+03 1.95508910e+01
v 7.78540548e+03 4.84363502e+03 3.47027023e+01
v 7.79998583e+03 4.84888736e+03 1.76000392e+01
v 7.80005641e+03 4.85098784e+03 1.73654437e+01
v 7.80083367e+03 4.84955880e+03 1.72926277e+01
v 7.79437321e+03 4.84473930e+03 1.81268917e+01
v 7.80542803e+03 4.84374982e+03 1.68321599e+01
v 7.80458822e+03 4.84649026e+03 1.78054716e+01
v 7.80250558e+03 4.84561404e+03 1.79257172e+01
v 7.80273854e+03 4.84775393e+03 1.77394703e+01
v 7.80305657e+03 4.84847197e+03 1.85278452e+01
v 7.80235417e+03 4.85005200e+03 1.72781569e+01
v 7.80325199e+03 4.85021264e+03 1.82601004e+01
v 7.80171807e+03 4.84864025e+03 1.77824313e+01
v 7.80289204e+03 4.84889667e+03 1.77206908e+01
v 7.79980076e+03 4.85017366e+03 1.83444887e+01
v 7.79981476e+03 4.84687052e+03 1.77334796e+01
v 7.80281583e+03 4.84405161e+03 1.86779126e+01
v 7.79891419e+03 4.84464787e+03 1.83715251e+01
v 7.79925441e+03 4.84696574e+03 1.84771484e+01
v 7.80271441e+03 4.84656915e+03 1.82560419e+01
v 7.79806949e+03 4.84515189e+03 1.84672909e+01
v 7.79791740e+03 4.84733608e+03 1.81069833e+01
v 7.79954874e+03 4.84867177e+03 1.86068099e+01
v 7.80313001e+03 4.84743127e+03 2.05195570e+01
v 7.80523850e+03 4.84674021e+03 1.94642212e+01
v 7.80430423e+03 4.84662689e+03 1.84189960e+01
v 7.80352415e+03 4.84713563e+03 1.90064300e+01
v 7.79739747e+03 4.84449273e+03 1.80353605e+01
v 7.79909856e+03 4.84770088e+03 1.81426517e+01
v 7.80268433e+03 4.84895381e+03 2.13830165e+01
v 7.80312388e+03 4.84958506e+03 2.04696390e+01
v 7.80315205e+03 4.85081993e+03 2.15412015e+01
v 7.80302274e+03 4.85068849e+03 2.04459683e+01
v 7.80316027e+03 4.85120833e+03 2.11879615e+01
v 7.80255243e+03 4.84783781e+03 2.03422299e+01
v 7.79806707e+03 4.85038883e+03 1.80672737e+01
v 7.80456333e+03 4.84782579e+03 2.10859580e+01
v 7.80471791e+03 4.84984973e+03 2.17122754e+01
v 7.80402361e+03 4.85075733e+03 2.14555934e+01
v 7.80374327e+03 4.84991755e+03 2.11635650e+01
v 7.80409267e+03 4.84925223e+03 2.17875083e+01
v 7.80350844e+03 4.84858827e+03 2.17740506e+01
v 7.80036486e+03 4.85396515e+03 1.84605560e+01
v 7.80028791e+03 4.86003673e+03 1.80097268e+01
v 7.79996967e+03 4.85551862e+03 1.81742761e+01
v 7.79978236e+03 4.85286881e+03 1.82872542e+01
v 7.79994244e+03 4.85164731e+03 1.88385336e+01
v 7.80087030e+03 4.85915800e+03 1.87506866e+01
v 7.80050569e+03 4.85625817e+03 1.84409444e+01
v 7.80117997e+03 4.85994289e+03 1.77935889e+01
v 7.80471272e+03 4.85207661e+03 1.89606454e+01
v 7.80447544e+03 4.85174537e+03 1.92288483e+01
v 7.80369084e+03 4.85125260e+03 1.85782401e+01
v 7.80372796e+03 4.85286611e+03 1.77851639e+01
v 7.80427793e+03 4.85276020e+03 1.80471461e+01
v 7.80483796e+03 4.85309581e+03 1.91025768e+01
v 7.80405309e+03 4.85210523e+03 2.14795688e+01
v 7.80502757e+03 4.85134356e+03 1.97936840e+01
v 7.80474194e+03 4.85084196e+03 2.19073822e+01
v 7.80422761e+03 4.85139566e+03 2.18588377e+01
v 7.79635152e+03 4.86821744e+03 1.82509253e+01
v 7.80030241e+03 4.86317346e+03 1.83334205e+01
v 7.79788055e+03 4.86634750e+03 1.83719036e+01
v 7.79832350e+03 4.86775395e+03 1.71176837e+01
v 7.79727571e+03 4.86753377e+03 1.86798830e+01
v 7.80342736e+03 4.85287728e+03 1.67758898e+01
v 7.80094633e+03 4.86219358e+03 1.77233334e+01
v 7.80063127e+03 4.86395045e+03 1.72540898e+01
v 7.79895753e+03 4.86650869e+03 1.77470888e+01
v 7.79974638e+03 4.86474684e+03 1.80696053e+01
v 7.80066279e+03 4.86162905e+03 1.85621748e+01
v 7.79756429e+03 4.86852057e+03 1.84280418e+01
v 7.79641352e+03 4.86682705e+03 1.83690111e+01
v 7.79871778e+03 4.87329661e+03 1.66154949e+01
v 7.79703508e+03 4.86898784e+03 1.66644596e+01
v 7.80160038e+03 4.87383265e+03 1.66158670e+01
v 7.80295453e+03 4.87315592e+03 1.59604127e+01
v 7.80240622e+03 4.86959956e+03 1.60090822e+01
v 7.80111580e+03 4.85705950e+03 1.63156190e+01
v 7.80165436e+03 4.86045227e+03 1.57678981e+01
v 7.80192635e+03 4.86564941e+03 1.68004379e+01
v 7.80205275e+03 4.86666586e+03 1.51290379e+01
v 7.80420828e+03 4.85923296e+03 1.59512425e+01
v 7.80450279e+03 4.85886102e+03 1.69083270e+01
v 7.80218109e+03 4.86748155e+03 1.63429071e+01
v 7.80043851e+03 4.86844204e+03 1.72986438e+01
v 7.80002535e+03 4.86538047e+03 1.70962136e+01
v 7.80106780e+03 4.86706558e+03 1.64214556e+01
v 7.80079278e+03 4.86979960e+03 1.68345181e+01
v 7.80171493e+03 4.87180095e+03 1.62181169e+01
v 7.80162842e+03 4.86364864e+03 1.71289329e+01
v 7.80179794e+03 4.86409657e+03 1.52174985e+01
v 7.80102495e+03 4.85865622e+03 1.66191795e+01
v 7.80512598e+03 4.86099213e+03 1.52368438e+01
v 7.80512358e+03 4.86338406e+03 1.63386964e+01
v 7.80439733e+03 4.85515467e+03 1.64770798e+01
v 7.80401328e+03 4.85550397e+03 1.74448675e+01
v 7.80372877e+03 4.85577131e+03 1.64123686e+01
v 7.80314383e+03 4.87421592e+03 1.67201522e+01
v 7.80433265e+03 4.86135420e+03 1.55286400e+01
v 7.80462949e+03 4.85839651e+03 1.61117692e+01
v 7.80098474e+03 4.85357657e+03 1.67349783e+01
v 7.80052434e+03 4.85447880e+03 1.70237243e+01
v 7.79746790e+03 4.86841994e+03 1.69093304e+01
v 7.80021838e+03 4.86703122e+03 1.68946547e+01
v 7.80526499e+03 4.85305603e+03 1.90947010e+01
v 7.80444341e+03 4.85337922e+03 1.70907115e+01
v 7.80549337e+03 4.85278410e+03 1.76069103e+01
v 7.80312804e+03 4.85079618e+03 1.70861579e+01
v 7.80535101e+03 4.85550143e+03 1.62018129e+01
v 7.80548974e+03 4.85887606e+03 1.51621131e+01
v 7.79695181e+03 4.87214600e+03 1.65588776e+01
v 7.79878294e+03 4.86980084e+03 1.64832640e+01
v 7.80010987e+03 4.87255929e+03 1.62488952e+01
v 7.79579270e+03 4.87359889e+03 1.60830948e+01
v 7.79663464e+03 4.87365179e+03 1.66765385e+01
v 7.79589095e+03 4.86961673e+03 1.71076052e+01
v 7.80250721e+03 4.86879799e+03 1.48825303e+01
v 7.80378471e+03 4.86936081e+03 1.45580041e+01
v 7.80269723e+03 4.86675549e+03 1.47927780e+01
v 7.80323647e+03 4.87405540e+03 1.49674975e+01
v 7.80498493e+03 4.86491655e+03 1.51272446e+01
v 7.80550303e+03 4.85755177e+03 1.59416490e+01
v 7.80560446e+03 4.86631277e+03 1.45764240e+01
v 7.80299597e+03 4.87220861e+03 1.45756401e+01
v 7.80412249e+03 4.87351699e+03 1.41940367e+01
v 7.81107069e+03 4.84509972e+03 1.43277881e+01
v 7.80657739e+03 4.84417506e+03 1.42735220e+01
v 7.81094587e+03 4.85229692e+03 1.49150026e+01
v 7.80656668e+03 4.84809275e+03 1.46384533e+01
v 7.80660732e+03 4.85212992e+03 1.47935822e+01
v 7.81083792e+03 4.85852987e+03 1.50230253e+01
v 7.80618534e+03 4.85468219e+03 1.49762471e+01
v 7.81071929e+03 4.85509070e+03 1.50143535e+01
v 7.80970606e+03 4.86551875e+03 1.46726831e+01
v 7.80575759e+03 4.86371579e+03 1.47405764e+01
v 7.80617608e+03 4.84908570e+03 1.49193030e+01
v 7.80597967e+03 4.85270964e+03 1.53780194e+01
v 7.80615657e+03 4.84688315e+03 1.48514762e+01
v 7.80571742e+03 4.84479929e+03 1.56474224e+01
v 7.80535565e+03 4.84574940e+03 1.71323319e+01
v 7.81061921e+03 4.84961993e+03 1.47206917e+01
v 7.80590445e+03 4.84675272e+03 1.60589188e+01
v 7.80595770e+03 4.84567158e+03 1.60044046e+01
v 7.80579960e+03 4.84379019e+03 1.59584610e+01
v 7.80497803e+03 4.84699729e+03 1.72107306e+01
v 7.80615348e+03 4.84913616e+03 1.69544365e+01
v 7.80565283e+03 4.85377232e+03 1.66004329e+01
v 7.80559283e+03 4.85183911e+03 1.86491462e+01
v 7.80634083e+03 4.84898059e+03 1.88283710e+01
v 7.80570840e+03 4.85485335e+03 1.64601051e+01
v 7.80630317e+03 4.87247284e+03 1.42091314e+01
v 7.80587736e+03 4.85172096e+03 1.65440627e+01
v 7.80609868e+03 4.85281718e+03 1.67625802e+01
v 7.80591678e+03 4.85757232e+03 1.51519124e+01
v 7.80967769e+03 4.87294174e+03 1.44079038e+01
v 7.80982775e+03 4.86949656e+03 1.45144730e+01
v 7.81014042e+03 4.86762359e+03 1.45041608e+01
v 7.80540347e+03 4.84943263e+03 2.01451029e+01
v 7.80593709e+03 4.84841396e+03 1.93742892e+01
v 7.80565361e+03 4.84792431e+03 2.03111700e+01
v 7.78630495e+03 4.84445325e+03 3.29408761e+01
v 7.78653025e+03 4.84497652e+03 3.50951068e+01
v 7.78585467e+03 4.84693558e+03 3.38924069e+01
v 7.79358996e+03 4.84903120e+03 2.64673818e+01
v 7.78788848e+03 4.84378198e+03 3.52167478e+01
v 7.78111032e+03 4.86267388e+03 3.01636866e+01
v 7.81171439e+03 4.84979129e+03 1.55650638e+01
v 7.81196699e+03 4.84822046e+03 1.48590907e+01
v 7.81114337e+03 4.86796476e+03 1.53983950e+01
v 7.81082842e+03 4.86647423e+03 1.52045011e+01
v 7.81175606e+03 4.86738288e+03 1.54230937e+01
v 7.81229366e+03 4.86884163e+03 1.43586589e+01
v 7.81084442e+03 4.87326852e+03 1.50396923e+01
v 7.81141033e+03 4.87326950e+03 1.43698618e+01
v 7.81240733e+03 4.84830305e+03 1.46714385e+01
v 7.81205468e+03 4.84652833e+03 1.48940312e+01
v 7.81203850e+03 4.87415762e+03 1.42887082e+01
v 7.81255303e+03 4.87429622e+03 1.43001706e+01
v 7.81209362e+03 4.87374272e+03 1.42952711e+01
v 7.81216869e+03 4.87366852e+03 1.41599044e+01
v 7.81233305e+03 4.86323768e+03 1.46598098e+01
v 7.81272048e+03 4.84814679e+03 1.53990246e+01
v 7.81098005e+03 4.86380302e+03 1.46922211e+01
v 7.81203935e+03 4.86262873e+03 1.53874781e+01
v 7.81259430e+03 4.86171968e+03 1.48912367e+01
v 7.81068738e+03 4.86218378e+03 1.55834206e+01
v 7.81046941e+03 4.86297864e+03 1.46727497e+01
v 7.81147587e+03 4.85106754e+03 1.58174958e+01
v 7.81235999e+03 4.85188457e+03 1.49692362e+01
v 7.81127771e+03 4.84937847e+03 1.58001641e+01
v 7.81267304e+03 4.85072602e+03 1.56531617e+01
v 7.81212921e+03 4.84980863e+03 1.50108094e+01
v 7.81238068e+03 4.84889669e+03 1.45635803e+01
v 7.81110515e+03 4.84647067e+03 1.47134247e+01
v 7.81212623e+03 4.87083953e+03 1.42774498e+01
v 7.81254594e+03 4.85433552e+03 1.60314501e+01
v 7.81219879e+03 4.85321226e+03 1.57249697e+01
v 7.81146688e+03 4.85298242e+03 1.57472131e+01
v 7.81156377e+03 4.84710759e+03 1.59045435e+01
v 7.81130925e+03 4.84755346e+03 1.58655304e+01
v 7.81132267e+03 4.85473067e+03 1.63124610e+01
v 7.81160965e+03 4.86009783e+03 1.57089639e+01
v 7.81233469e+03 4.86058863e+03 1.56214542e+01
v 7.81093174e+03 4.86094932e+03 1.60564459e+01
v 7.81257968e+03 4.85627604e+03 1.55285363e+01
v 7.81239574e+03 4.85022910e+03 1.56080428e+01
v 7.81104645e+03 4.85364715e+03 1.60227521e+01
v 7.81123776e+03 4.85716421e+03 1.54467041e+01
v 7.81145138e+03 4.85890017e+03 1.53208381e+01
v 7.81101309e+03 4.85968314e+03 1.60276138e+01
v 7.81095087e+03 4.85586098e+03 1.59896995e+01
v 7.81048505e+03 4.86708073e+03 1.53249990e+01
v 7.81219358e+03 4.85943587e+03 1.58545673e+01
v 7.81173559e+03 4.85625704e+03 1.52142775e+01
v 7.81217087e+03 4.85510625e+03 1.63525846e+01
v 7.81122279e+03 4.86902417e+03 1.49121809e+01
v 7.81046981e+03 4.86863957e+03 1.58510022e+01
v 7.81243838e+03 4.86642522e+03 1.45090992e+01
v 7.81038695e+03 4.86958109e+03 1.50846240e+01
v 7.81099880e+03 4.87059736e+03 1.48362334e+01
v 7.81029440e+03 4.87389396e+03 1.58893737e+01
v 7.80987033e+03 4.87439436e+03 1.44386696e+01
v 7.81173156e+03 4.86896752e+03 1.48975839e+01
v 7.81197331e+03 4.87379770e+03 1.57121537e+01
v 7.81031818e+03 4.87139802e+03 1.42960460e+01
v 7.81041199e+03 4.86739898e+03 1.57258268e+01
v 7.79130951e+03 4.84450624e+03 1.96221747e+01
v 7.79298556e+03 4.84757862e+03 1.98798458e+01
v 7.79378611e+03 4.84889542e+03 2.31054690e+01
v 7.79044966e+03 4.84399048e+03 2.54347771e+01
v 7.79195618e+03 4.84553156e+03 2.27271054e+01
v 7.78623879e+03 4.84588183e+03 3.24816249e+01
v 7.79417810e+03 4.84859468e+03 3.08080774e+01
v 7.79372147e+03 4.84885436e+03 2.83970800e+01
v 7.79326667e+03 4.84617393e+03 2.55595962e+01
v 7.79302244e+03 4.84659459e+03 2.44066580e+01
v 7.78778502e+03 4.84376778e+03 3.40043700e+01
v 7.78657725e+03 4.84566582e+03 3.58148086e+01
v 7.78497063e+03 4.84879500e+03 4.00428952e+01
v 7.78530977e+03 4.84886764e+03 4.21011559e+01
v 7.78504514e+03 4.84878362e+03 3.90404854e+01
v 7.78589883e+03 4.84872186e+03 3.85523577e+01
v 7.78819829e+03 4.84424599e+03 3.62500397e+01
v 7.78769667e+03 4.84388873e+03 3.68849114e+01
v 7.78533122e+03 4.84880018e+03 4.26881561e+01
v 7.78498025e+03 4.84944172e+03 4.39791708e+01
v 7.78648432e+03 4.84827399e+03 3.80556482e+01
v 7.78102644e+03 4.86162630e+03 3.07569924e+01
v 7.78176422e+03 4.86193784e+03 3.01013177e+01
v 7.78100000e+03 4.85833487e+03 3.19638060e+01
v 7.78100000e+03 4.85904419e+03 3.17848829e+01
v 7.78100000e+03 4.85983521e+03 3.14753564e+01
v 7.78100000e+03 4.86108706e+03 3.63725810e+01
v 7.78100000e+03 4.86250133e+03 3.62525763e+01
v 7.78100000e+03 4.85991665e+03 3.15983401e+01
v 7.78100000e+03 4.86003076e+03 3.14580623e+01
v 7.78100000e+03 4.84919350e+03 3.95047330e+01
v 7.78100000e+03 4.84758226e+03 3.81500181e+01
v 7.78100000e+03 4.87437524e+03 1.52629683e+01
v 7.78100000e+03 4.87438106e+03 1.52610495e+01
v 7.78100000e+03 4.87207227e+03 1.56508218e+01
v 7.78100000e+03 4.87120605e+03 1.64968374e+01
v 7.78100000e+03 4.87180222e+03 1.58136572e+01
v 7.78100000e+03 4.87082296e+03 1.67644400e+01
v 7.78100000e+03 4.87026051e+03 1.71530932e+01
v 7.78100000e+03 4.86250083e+03 1.84514461e+01
v 7.78100000e+03 4.86183141e+03 1.88672351e+01
v 7.78100000e+03 4.86893698e+03 1.78654065e+01
v 7.78100000e+03 4.86278305e+03 1.83015131e+01
v 7.78100000e+03 4.86387385e+03 1.79943649e+01
v 7.78100000e+03 4.86169683e+03 1.99901385e+01
v 7.78100000e+03 4.86174224e+03 1.90785539e+01
v 7.78100000e+03 4.86141204e+03 2.05129728e+01
v 7.78100000e+03 4.86163619e+03 2.02259305e+01
v 7.78100000e+03 4.86861128e+03 1.88263280e+01
v 7.78100000e+03 4.86841984e+03 1.93509952e+01
v 7.78100000e+03 4.86538587e+03 1.80403124e+01
v 7.78100000e+03 4.86100121e+03 2.13651690e+01
v 7.78100000e+03 4.86559108e+03 1.80345461e+01
v 7.78100000e+03 4.86809174e+03 1.92806904e+01
v 7.78100000e+03 4.86219498e+03 2.54416585e+01
v 7.78100000e+03 4.86194998e+03 2.48634533e+01
v 7.78100000e+03 4.86129651e+03 2.29952806e+01
v 7.78100000e+03 4.86097162e+03 2.18592941e+01
v 7.78100000e+03 4.85225492e+03 3.68578428e+01
v 7.78100000e+03 4.85235494e+03 3.67746498e+01
v 7.78100000e+03 4.85693301e+03 3.27259577e+01
v 7.78100000e+03 4.85355368e+03 3.57462460e+01
v 7.78100000e+03 4.85247020e+03 3.66782961e+01
v 7.78100000e+03 4.85513003e+03 3.46536211e+01
v 7.78100000e+03 4.86156541e+03 3.56373560e+01
v 7.78100000e+03 4.86114181e+03 3.59905575e+01
v 7.78100000e+03 4.86294533e+03 3.03221062e+01
v 7.78100000e+03 4.86183295e+03 3.07415737e+01
v 7.78100000e+03 4.86203848e+03 2.56374891e+01
v 7.78100000e+03 4.86137214e+03 2.66780844e+01
v 7.78100000e+03 4.86160256e+03 3.07947500e+01
v 7.78100000e+03 4.86140463e+03 2.69457873e+01
v 7.78100000e+03 4.86174548e+03 2.87758980e+01
v 7.78100000e+03 4.86165865e+03 3.07876500e+01
v 7.78100000e+03 4.86149945e+03 3.60523803e+01
v 7.78100000e+03 4.84407427e+03 3.70231404e+01
v 7.78100000e+03 4.84390282e+03 3.69303326e+01
v 7.78100000e+03 4.84503155e+03 3.69525513e+01
v 7.78100000e+03 4.84751341e+03 3.81000752e+01
v 7.78100000e+03 4.84660629e+03 3.73227303e+01
v 7.78100000e+03 4.84933033e+03 3.94214141e+01
v 7.78100000e+03 4.86177987e+03 1.89395904e+01
v 7.78100000e+03 4.85682422e+03 3.28600373e+01
v 7.78100000e+03 4.86573401e+03 1.81092558e+01
v 7.78100000e+03 4.85549738e+03 3.44583771e+01
v 7.78100000e+03 4.85627293e+03 3.33569995e+01
v 7.78100000e+03 4.85555947e+03 3.40868261e+01
v 7.78100000e+03 4.86268976e+03 3.00754199e+01
v 7.81275000e+03 4.87032628e+03 1.43445763e+01
v 7.81275000e+03 4.87105712e+03 1.42693526e+01
v 7.81275000e+03 4.87367650e+03 1.42964710e+01
v 7.81275000e+03 4.87367579e+03 1.42728267e+01
v 7.81275000e+03 4.84592771e+03 1.45172641e+01
v 7.81275000e+03 4.84727427e+03 1.49592841e+01
v 7.81275000e+03 4.84912905e+03 1.55580632e+01
v 7.81275000e+03 4.84909081e+03 1.55603237e+01
v 7.81275000e+03 4.85481477e+03 1.56252874e+01
v 7.81275000e+03 4.85597953e+03 1.53525932e+01
v 7.81275000e+03 4.84920938e+03 1.56190208e+01
v 7.81275000e+03 4.84950640e+03 1.56273977e+01
v 7.81275000e+03 4.86620264e+03 1.45315814e+01
v 7.81275000e+03 4.86656378e+03 1.45147732e+01
v 7.81275000e+03 4.85941695e+03 1.49260263e+01
v 7.81275000e+03 4.85942089e+03 1.49260344e+01
v 7.81275000e+03 4.87500725e+03 1.49170641e+01
v 7.81275000e+03 4.87367431e+03 1.42698737e+01
v 7.81275000e+03 4.86926520e+03 1.47215859e+01
v 7.81275000e+03 4.86314914e+03 1.46628236e+01
v 7.81275000e+03 4.86573328e+03 1.45408812e+01
v 7.81275000e+03 4.87303130e+03 1.41872797e+01
v 7.81275000e+03 4.87368325e+03 1.42726726e+01
v 7.81275000e+03 4.87371355e+03 1.42741229e+01
v 7.81275000e+03 4.87480820e+03 1.48468333e+01
v 7.81275000e+03 4.87415497e+03 1.42928387e+01
v 7.81275000e+03 4.85691874e+03 1.52490942e+01
v 7.81275000e+03 4.86168433e+03 1.49446327e+01
v 7.81275000e+03 4.86184447e+03 1.48675876e+01
v 7.81275000e+03 4.85941633e+03 1.49240884e+01
v 7.81275000e+03 4.85772509e+03 1.50078482e+01
v 7.81275000e+03 4.85764857e+03 1.49709966e+01
v 7.81275000e+03 4.84870802e+03 1.55233056e+01
v 7.81275000e+03 4.84809486e+03 1.53608833e+01
v 7.81275000e+03 4.85276195e+03 1.51082990e+01
v 7.81275000e+03 4.85247760e+03 1.49678524e+01
v 7.81275000e+03 4.85075514e+03 1.55279548e+01
v 7.81275000e+03 4.85241526e+03 1.49068222e+01
v 7.81275000e+03 4.84536285e+03 1.42447186e+01
v 7.81275000e+03 4.84916712e+03 1.55980662e+01
v 7.81275000e+03 4.85143738e+03 1.48904427e+01
v 7.81275000e+03 4.85943773e+03 1.49233608e+01
v 7.81275000e+03 4.86129932e+03 1.48509314e+01
v 7.81275000e+03 4.85236344e+03 1.49130432e+01
v 7.81275000e+03 4.84791405e+03 1.48421370e+01
v 7.81275000e+03 4.86888241e+03 1.47123518e+01
v 7.81275000e+03 4.86781463e+03 1.45709306e+01
v 7.81275000e+03 4.86686583e+03 1.46086527e+01
v 7.78610141e+03 4.84350000e+03 3.68492166e+01
v 7.78622001e+03 4.84350000e+03 3.73031531e+01
v 7.78755078e+03 4.84350000e+03 3.25935667e+01
v 7.78760963e+03 4.84350000e+03 3.28218594e+01
v 7.79080581e+03 4.84350000e+03 3.08096049e+01
v 7.79073819e+03 4.84350000e+03 3.05548854e+01
v 7.79041389e+03 4.84350000e+03 3.01375158e+01
v 7.79020234e+03 4.84350000e+03 2.99098491e+01
v 7.78563047e+03 4.84350000e+03 3.51702587e+01
v 7.78568096e+03 4.84350000e+03 3.53397253e+01
v 7.79025981e+03 4.84350000e+03 1.89990069e+01
v 7.78983174e+03 4.84350000e+03 1.98639935e+01
v 7.79028445e+03 4.84350000e+03 1.89085919e+01
v 7.79059674e+03 4.84350000e+03 1.81121989e+01
v 7.78797361e+03 4.84350000e+03 3.53761391e+01
v 7.78827102e+03 4.84350000e+03 3.62326072e+01
v 7.78714038e+03 4.84350000e+03 3.77778226e+01
v 7.78753290e+03 4.84350000e+03 3.75270248e+01
v 7.78639038e+03 4.84350000e+03 3.76045356e+01
v 7.78784767e+03 4.84350000e+03 3.67402132e+01
v 7.78771793e+03 4.84350000e+03 3.69104814e+01
v 7.78562163e+03 4.84350000e+03 3.63307911e+01
v 7.78577518e+03 4.84350000e+03 3.64992868e+01
v 7.78112999e+03 4.84350000e+03 3.67464659e+01
v 7.78132043e+03 4.84350000e+03 3.55085465e+01
v 7.78128303e+03 4.84350000e+03 3.54483641e+01
v 7.78140164e+03 4.84350000e+03 3.45424429e+01
v 7.78553626e+03 4.84350000e+03 3.55449984e+01
v 7.78350905e+03 4.84350000e+03 3.44841939e+01
v 7.78161768e+03 4.84350000e+03 3.45305031e+01
v 7.78545837e+03 4.84350000e+03 3.50363275e+01
v 7.79003648e+03 4.84350000e+03 2.84163483e+01
v 7.79015652e+03 4.84350000e+03 2.94771157e+01
v 7.78961860e+03 4.84350000e+03 2.72312746e+01
v 7.78980539e+03 4.84350000e+03 2.81222253e+01
v 7.79003213e+03 4.84350000e+03 2.96513110e+01
v 7.78791935e+03 4.84350000e+03 3.50586313e+01
v 7.78764779e+03 4.84350000e+03 3.17710725e+01
v 7.78756025e+03 4.84350000e+03 3.24170542e+01
v 7.78802200e+03 4.84350000e+03 3.13181381e+01
v 7.78967734e+03 4.84350000e+03 2.58294395e+01
v 7.79026735e+03 4.84350000e+03 2.54465685e+01
v 7.79027778e+03 4.84350000e+03 2.49703718e+01
v 7.79021175e+03 4.84350000e+03 2.31286365e+01
v 7.78988107e+03 4.84350000e+03 2.09439447e+01
v 7.79409366e+03 4.84350000e+03 1.80954942e+01
v 7.79272139e+03 4.84350000e+03 1.81632840e+01
v 7.79038215e+03 4.84350000e+03 3.09594429e+01
v 7.79004945e+03 4.84350000e+03 3.10320872e+01
v 7.78484240e+03 4.84350000e+03 3.44090832e+01
v 7.79199920e+03 4.84350000e+03 1.81536845e+01
v 7.78546242e+03 4.84350000e+03 3.45465739e+01
v 7.79011387e+03 4.84350000e+03 2.36148827e+01
v 7.80260253e+03 4.84350000e+03 1.80803925e+01
v 7.80278286e+03 4.84350000e+03 1.85624972e+01
v 7.79844160e+03 4.84350000e+03 1.82015154e+01
v 7.79746690e+03 4.84350000e+03 1.79914000e+01
v 7.80641072e+03 4.84350000e+03 1.44563111e+01
v 7.80602886e+03 4.84350000e+03 1.50315066e+01
v 7.79997852e+03 4.84350000e+03 1.80204656e+01
v 7.80005484e+03 4.84350000e+03 1.80229397e+01
v 7.80312123e+03 4.84350000e+03 1.76994362e+01
v 7.80436943e+03 4.84350000e+03 1.73505573e+01
v 7.80709989e+03 4.84350000e+03 1.40875289e+01
v 7.80940825e+03 4.84350000e+03 1.41143889e+01
v 7.79992590e+03 4.84350000e+03 1.80438811e+01
v 7.80309768e+03 4.84350000e+03 1.78490059e+01
v 7.80285677e+03 4.84350000e+03 1.87365608e+01
v 7.80477155e+03 4.84350000e+03 1.73000478e+01
v 7.80521655e+03 4.84350000e+03 1.69621467e+01
v 7.80548670e+03 4.84350000e+03 1.64352046e+01
v 7.79605167e+03 4.84350000e+03 1.80412751e+01
v 7.80676792e+03 4.84350000e+03 1.41660252e+01
v 7.80573086e+03 4.84350000e+03 1.58342624e+01
v 7.81130979e+03 4.84350000e+03 1.41368683e+01
v 7.78108701e+03 4.84350000e+03 3.67968955e+01
v 7.78100000e+03 4.84350000e+03 3.68989814e+01
v 7.78129911e+03 4.84350000e+03 3.54742443e+01
v 7.78128275e+03 4.84350000e+03 3.51846862e+01
v 7.78135662e+03 4.84350000e+03 3.47551975e+01
v 7.78128267e+03 4.84350000e+03 3.51047337e+01
v 7.81249027e+03 4.84350000e+03 1.40582397e+01
v 7.81275000e+03 4.84350000e+03 1.40409404e+01
v 7.78467258e+03 4.87525000e+03 1.52218697e+01
v 7.78692898e+03 4.87525000e+03 1.54621918e+01
v 7.79307925e+03 4.87525000e+03 1.55011764e+01
v 7.79403405e+03 4.87525000e+03 1.56857986e+01
v 7.78227719e+03 4.87525000e+03 1.49926642e+01
v 7.78143896e+03 4.87525000e+03 1.51469429e+01
v 7.78851588e+03 4.87525000e+03 1.56846325e+01
v 7.78962018e+03 4.87525000e+03 1.58079634e+01
v 7.78895431e+03 4.87525000e+03 1.57128328e+01
v 7.79096028e+03 4.87525000e+03 1.57428943e+01
v 7.80663991e+03 4.87525000e+03 1.41961325e+01
v 7.80963356e+03 4.87525000e+03 1.42099473e+01
v 7.80980872e+03 4.87525000e+03 1.43333939e+01
v 7.80506043e+03 4.87525000e+03 1.41004557e+01
v 7.80418309e+03 4.87525000e+03 1.41136482e+01
v 7.79528717e+03 4.87525000e+03 1.59167291e+01
v 7.79484380e+03 4.87525000e+03 1.58012706e+01
v 7.80325778e+03 4.87525000e+03 1.47698345e+01
v 7.80321223e+03 4.87525000e+03 1.56186050e+01
v 7.79901987e+03 4.87525000e+03 1.66829587e+01
v 7.79847559e+03 4.87525000e+03 1.66953758e+01
v 7.79603731e+03 4.87525000e+03 1.58950873e+01
v 7.79647572e+03 4.87525000e+03 1.66960439e+01
v 7.79626950e+03 4.87525000e+03 1.60619623e+01
v 7.80049983e+03 4.87525000e+03 1.67081459e+01
v 7.79979826e+03 4.87525000e+03 1.66779151e+01
v 7.80305628e+03 4.87525000e+03 1.66985219e+01
v 7.80363699e+03 4.87525000e+03 1.45955289e+01
v 7.81101978e+03 4.87525000e+03 1.57658052e+01
v 7.81182370e+03 4.87525000e+03 1.56528883e+01
v 7.81020859e+03 4.87525000e+03 1.58529960e+01
v 7.81229162e+03 4.87525000e+03 1.41624358e+01
v 7.81228811e+03 4.87525000e+03 1.41651062e+01
v 7.81183885e+03 4.87525000e+03 1.53479386e+01
v 7.81008402e+03 4.87525000e+03 1.53189617e+01
v 7.81229961e+03 4.87525000e+03 1.41657527e+01
v 7.81190933e+03 4.87525000e+03 1.43942430e+01
v 7.78143525e+03 4.87525000e+03 1.51463365e+01
v 7.78100000e+03 4.87525000e+03 1.50751783e+01
v 7.81233337e+03 4.87525000e+03 1.42284848e+01
v 7.81275000e+03 4.87525000e+03 1.48586688e+01
vt 0.056613311 0.79718924
vt 0.067518175 0.78416312
vt 0.088514253 0.78831971
vt 0.045588855 0.84140933
vt 0.053550869 0.78303415
vt 0.031924374 0.8064096
vt 0.086208999 0.83708453
vt 0.0048854402 0.84171438
vt 0.10850913 0.78727984
vt 0.086881459 0.86341727
vt 0.029318795 0.78478253
vt 0.0048865266 0.84492081
vt 0.0048781717 0.81808943
vt 0.10211004 0.87521935
vt 0.077603064 0.88999069
vt 0.0048674187 0.79663068
vt 0.03941986 0.87347949
vt 0.0048700953 0.80104208
vt 0.13867949 0.83547127
vt 0.0054640085 0.7848947
vt 0.0048866281 0.84715325
vt 0.15580785 0.81525391
vt 0.1508054 0.88021547
vt 0.11140311 0.90208298
vt 0.047150962 0.89431131
vt 0.0048605707 0.78616619
vt 0.0048888079 0.8839798
vt 0.15779224 0.79503548
vt 0.1614522 0.83834457
vt 0.12221845 0.89883333
vt 0.0048898826 0.88910562
vt 0.1317402 0.75989532
vt 0.17795205 0.82035798
vt 0.17695783 0.87100857
vt 0.14371036 0.90420198
vt 0.16937926 0.73382187
vt 0.22282833 0.73346794
vt 0.15934916 0.8886193
vt 0.12023453 0.92131221
vt 0.14278083 0.72538877
vt 0.20609508 0.82762051
vt 0.1619689 0.9041087
vt 0.15703867 0.92957836
vt 0.17468315 0.67779684
vt 0.25127152 0.83109385
vt 0.19060162 0.89314544
vt 0.17922318 0.91565913
vt 0.15947925 0.95561731
vt 0.223107 0.65523386
vt 0.30623373 0.75803632
vt 0.18120405 0.94548321
vt 0.11211841 0.96112341
vt 0.19110423 0.65335906
vt 0.27148366 0.60729754
vt 0.30647361 0.80704409
vt 0.30123699 0.68744016
vt 0.24572752 0.86415112
vt 0.20706701 0.90192395
vt 0.19560228 0.96613687
vt 0.14151317 0.98500377
vt 0.20538971 0.61997873
vt 0.298296 0.64603639
vt 0.26912928 0.55959845
vt 0.31209475 0.78290826
vt 0.26864755 0.85665059
vt 0.30961391 0.69898987
vt 0.2447667 0.88587773
vt 0.22326022 0.9061318
vt 0.19089188 0.93503666
vt 0.13964488 0.99582368
vt 0.20874898 0.57622838
vt 0.29856935 0.60392368
vt 0.28758657 0.56529212
vt 0.21373768 0.51904118
vt 0.31532314 0.74429464
vt 0.29779568 0.8316341
vt 0.30740175 0.66316175
vt 0.25920033 0.87518585
vt 0.18164341 0.93297124
vt 0.22312427 0.94755697
vt 0.19369566 0.99580961
vt 0.12924144 0.99582809
vt 0.16058452 0.9958176
vt 0.29462174 0.58045483
vt 0.29001531 0.55380094
vt 0.26099151 0.51517433
vt 0.28548139 0.85917079
vt 0.27558616 0.87863851
vt 0.26371655 0.89060599
vt 0.23758689 0.90775704
vt 0.23608029 0.96999055
vt 0.21632685 0.98710668
vt 0.1223911 0.99583066
vt 0.19949716 0.55081606
vt 0.28468841 0.51758695
vt 0.27149174 0.52546543
vt 0.20936368 0.49967897
vt 0.25546455 0.89792979
vt 0.25418019 0.94727784
vt 0.20861299 0.9958027
vt 0.18010792 0.52198422
vt 0.29877642 0.55231869
vt 0.23995829 0.49966967
vt 0.18792138 0.49968511
vt 0.30519199 0.86733866
vt 0.26222238 0.88905132
vt 0.24923111 0.97080624
vt 0.22819114 0.99579376
vt 0.22126442 0.99579728
vt 0.30131578 0.49965
vt 0.27729985 0.49965572
vt 0.26207167 0.499663
vt 0.30863538 0.88937718
vt 0.28177896 0.96524668
vt 0.23991229 0.99579018
vt 0.1766371 0.49968886
vt 0.30049336 0.49965
vt 0.34081274 0.53267026
vt 0.2827805 0.91062611
vt 0.28650856 0.99576616
vt 0.24353892 0.99578714
vt 0.15472399 0.49969649
vt 0.30250823 0.49964952
vt 0.34446517 0.56610709
vt 0.31418157 0.91059262
vt 0.30352983 0.95372307
vt 0.27800396 0.99576879
vt 0.32682264 0.97360772
vt 0.34231561 0.49963599
vt 0.24675582 0.99577892
vt 0.29867089 0.99576229
vt 0.32860541 0.9418661
vt 0.30963275 0.99575841
vt 0.34798324 0.96303427
vt 0.35094023 0.97958738
vt 0.34957761 0.99574554
vt 0.042895108 0.70236397
vt 0.031943567 0.60611176
vt 0.09602651 0.59368324
vt 0.095622994 0.70967126
vt 0.003525353 0.65374708
vt 0.034321696 0.56553113
vt 0.097949453 0.65583801
vt 0.048170954 0.74575567
vt 0.0088273492 0.71869004
vt 0.11367366 0.48447186
vt 0.10282552 0.6265713
vt 0.10562381 0.68554848
vt 0.023492269 0.74576473
vt 0.094946764 0.74574029
vt 0.040957775 0.42437559
vt 0.1079411 0.55399001
vt 0.10668264 0.65714961
vt 0.12269769 0.71478403
vt 0.0097836908 0.74576902
vt 0.11180273 0.43073523
vt 0.11592392 0.56686819
vt 0.10796636 0.64242923
vt 0.11625002 0.67302859
vt 0.13455075 0.72101736
vt 0.047539804 0.38449609
vt 0.1199109 0.46312648
vt 0.13872516 0.60783499
vt 0.1113354 0.54155886
vt 0.11974134 0.64844531
vt 0.12769073 0.6475578
vt 0.13387208 0.67681307
vt 0.13251808 0.72865874
vt 0.11532985 0.38708228
vt 0.14087322 0.44924104
vt 0.11356406 0.60860109
vt 0.13706198 0.55802822
vt 0.13246387 0.54850662
vt 0.11849112 0.63188684
vt 0.14361967 0.68020988
vt 0.046885569 0.32141715
vt 0.14354005 0.4592855
vt 0.12768674 0.4489519
vt 0.12806121 0.62279159
vt 0.10820095 0.61807799
vt 0.14357641 0.55664265
vt 0.10705754 0.62304652
vt 0.13647737 0.64559394
vt 0.14363034 0.71105754
vt 0.14361535 0.66878963
vt 0.1102138 0.34525788
vt 0.14354603 0.47069234
vt 0.14353444 0.44460911
vt 0.11541704 0.44275862
vt 0.13447286 0.43095577
vt 0.14113453 0.53430539
vt 0.14359049 0.59702134
vt 0.14360687 0.65220582
vt 0.1436329 0.72110361
vt 0.11724859 0.27463138
vt 0.12359743 0.36786008
vt 0.14354612 0.47188753
vt 0.1435263 0.42640656
vt 0.14033216 0.41891468
vt 0.14359294 0.60435522
vt 0.14356811 0.53625476
vt 0.14360501 0.64622486
vt 0.055198457 0.24965858
vt 0.11779076 0.2960481
vt 0.13742301 0.38063133
vt 0.1204927 0.34146953
vt 0.12121812 0.42509192
vt 0.14359491 0.60999829
vt 0.14356667 0.53375173
vt 0.091266483 0.2496466
vt 0.047036171 0.26020688
vt 0.13262597 0.29694217
vt 0.14230295 0.36251968
vt 0.14352009 0.38892215
vt 0.1273199 0.34792024
vt 0.11689905 0.40816665
vt 0.12346715 0.39778107
vt 0.12097798 0.24963671
vt 0.050010733 0.24965942
vt 0.14349046 0.28755814
vt 0.14350656 0.36297566
vt 0.13796797 0.35475707
vt 0.14351977 0.38811249
vt 0.14351989 0.38989556
vt 0.13490471 0.40136886
vt 0.14348985 0.27873528
vt 0.14351527 0.37364298
vt 0.14349942 0.34346294
vt 0.14349799 0.33882195
vt 0.14352018 0.39433706
vt 0.13942377 0.24963164
vt 0.1434821 0.24963051
vt 0.28740704 0.10260683
vt 0.25077415 0.11673814
vt 0.28543782 0.09151715
vt 0.31656581 0.086387157
vt 0.27303225 0.12428987
vt 0.24658626 0.075564981
vt 0.29878464 0.10955733
vt 0.31834629 0.066159487
vt 0.245012 0.13895559
vt 0.19732091 0.10132062
vt 0.32890815 0.095214784
vt 0.3644262 0.064051867
vt 0.29833472 0.12491423
vt 0.25456578 0.15053093
vt 0.19258502 0.16546142
vt 0.26403785 0.057446599
vt 0.19769651 0.13835388
vt 0.34010482 0.12111491
vt 0.37798718 0.042032182
vt 0.32186845 0.13516086
vt 0.27877912 0.1503002
vt 0.22701129 0.1584574
vt 0.17438973 0.16109294
vt 0.16663373 0.11536312
vt 0.37861392 0.07409513
vt 0.36494416 0.096419096
vt 0.39046088 0.057624638
vt 0.30216673 0.13948363
vt 0.3008917 0.16445184
vt 0.24476647 0.16788846
vt 0.1152674 0.18758792
vt 0.22011919 0.17211413
vt 0.15035236 0.16352046
vt 0.11797123 0.13928461
vt 0.40326545 0.033592582
vt 0.27084228 0.16548014
vt 0.10848731 0.20537162
vt 0.18257201 0.18144786
vt 0.39329067 0.074973047
vt 0.4060539 0.044585586
vt 0.099594273 0.18307781
vt 0.14162336 0.19433808
vt 0.0661138 0.21034008
vt 0.40799144 0.050671577
vt 0.055392023 0.2260288
vt 0.076779768 0.15791619
vt 0.40821761 0.059393287
vt 0.041040823 0.20635045
vt 0.035459731 0.22185975
vt 0.076421693 0.22323406
vt 0.047580648 0.17274475
vt 0.40900639 0.071628034
vt 0.040548399 0.18657327
vt 0.034503404 0.23751909
vt 0.00655512 0.23323411
vt 0.022952536 0.20449716
vt 0.010820209 0.24653691
vt 0.020736393 0.18923867
vt 0.0046487683 0.19579172
vt 0.4026041 0.88010657
vt 0.42360216 0.90054166
vt 0.37872934 0.87160653
vt 0.45759055 0.88823646
vt 0.49209714 0.91222852
vt 0.48865348 0.89647162
vt 0.54110354 0.90579563
vt 0.54311943 0.92259997
vt 0.58257735 0.92970252
vt 0.58431906 0.91346067
vt 0.62347436 0.9384982
vt 0.60584551 0.94337636
vt 0.61592227 0.91955352
vt 0.61817569 0.97135413
vt 0.58058852 0.93500948
vt 0.63147229 0.92157823
vt 0.5914129 0.98818749
vt 0.63327485 0.97295624
vt 0.5875845 0.95067763
vt 0.64453566 0.93062276
vt 0.60989296 0.98262918
vt 0.5938257 0.95462906
vt 0.64955801 0.9438374
vt 0.61549169 0.98843092
vt 0.57224715 0.9521904
vt 0.64509386 0.98672968
vt 0.59604895 0.96489525
vt 0.66181779 0.93164855
vt 0.63187009 0.99567479
vt 0.66184235 0.97140163
vt 0.67888242 0.94067919
vt 0.6656521 0.95345861
vt 0.6938352 0.93601918
vt 0.94663346 0.9717021
vt 0.93168777 0.94887036
vt 0.95365983 0.96624601
vt 0.92014939 0.97482896
vt 0.96175981 0.95740885
vt 0.93274671 0.98851424
vt 0.89056927 0.94674593
vt 0.96149552 0.95853823
vt 0.97891825 0.94074124
vt 0.90735531 0.99627239
vt 0.91246951 0.93034148
vt 0.89406759 0.96328372
vt 0.96343261 0.95750678
vt 0.9534139 0.93232334
vt 0.931669 0.99092478
vt 0.90132809 0.978553
vt 0.88757402 0.93015385
vt 0.92873657 0.92762601
vt 0.88069618 0.95824558
vt 0.97900259 0.94147873
vt 0.97308934 0.92742676
vt 0.88761419 0.98411006
vt 0.90591121 0.90317947
vt 0.92485291 0.90757984
vt 0.97955817 0.94115132
vt 0.96385515 0.90540284
vt 0.98828208 0.92755407
vt 0.86409277 0.93625301
vt 0.88703477 0.89058179
vt 0.98128474 0.93977952
vt 0.9337033 0.8952437
vt 0.99230379 0.92917365
vt 0.8635723 0.95521134
vt 0.86825293 0.91334689
vt 0.9042117 0.88205105
vt 0.9229455 0.87406909
vt 0.9349333 0.86380124
vt 0.98041981 0.91111773
vt 0.9897725 0.92654753
vt 0.86440915 0.97245443
vt 0.8476696 0.95504117
vt 0.81626463 0.91946608
vt 0.86075366 0.8814249
vt 0.88390458 0.88164479
vt 0.95579225 0.88035113
vt 0.97704482 0.8854624
vt 0.83661973 0.94179916
vt 0.83827358 0.93137962
vt 0.84581059 0.88187742
vt 0.88617194 0.86013585
vt 0.91371453 0.86681932
vt 0.93616468 0.84936678
vt 0.97411394 0.88154364
vt 0.84143054 0.96556634
vt 0.84016651 0.95840311
vt 0.80493259 0.93276292
vt 0.81777215 0.87016338
vt 0.85723519 0.87291569
vt 0.84776092 0.85135752
vt 0.91979688 0.84935933
vt 0.96535826 0.86106014
vt 0.97672325 0.88164067
vt 0.84276396 0.98615718
vt 0.82807469 0.95698148
vt 0.7787919 0.91949862
vt 0.7979809 0.8989805
vt 0.82475615 0.85706544
vt 0.87725776 0.84413731
vt 0.90308344 0.84354812
vt 0.97948343 0.86039543
vt 0.98332441 0.86363894
vt 0.8328923 0.98259556
vt 0.82176685 0.95203787
vt 0.82986933 0.96916831
vt 0.77095777 0.93228358
vt 0.79440397 0.87042612
vt 0.79815793 0.8579874
vt 0.85915232 0.80619574
vt 0.88456678 0.80719167
vt 0.82299304 0.97112399
vt 0.75800437 0.90187669
vt 0.78086925 0.89126086
vt 0.79950273 0.84106791
vt 0.84231931 0.8155275
vt 0.88910025 0.76202273
vt 0.98487484 0.86012769
vt 0.77666992 0.85213697
vt 0.82383746 0.8393718
vt 0.85055399 0.78345573
vt 0.8564254 0.76016021
vt 0.93300396 0.78828204
vt 0.75794351 0.87516779
vt 0.77577764 0.81814688
vt 0.82536048 0.81446844
vt 0.81996727 0.79569638
vt 0.88429046 0.73789048
vt 0.91655093 0.76533681
vt 0.76137704 0.85657686
vt 0.76232183 0.84238935
vt 0.79427421 0.78027892
vt 0.82893097 0.76064754
vt 0.86651796 0.73410714
vt 0.90184683 0.73051786
vt 0.91796571 0.73900735
vt 0.93156308 0.74516153
vt 0.75958216 0.8226136
vt 0.77593088 0.7774958
vt 0.83609766 0.7455678
vt 0.81769079 0.77412403
vt 0.94164616 0.75958967
vt 0.75972354 0.77384096
vt 0.78124893 0.74600029
vt 0.75305426 0.75193739
vt 0.52992535 0.84601331
vt 0.51688206 0.8233242
vt 0.56187302 0.81580675
vt 0.55910355 0.83699143
vt 0.52040505 0.79854691
vt 0.57153779 0.82519108
vt 0.54065835 0.87052071
vt 0.57568115 0.79893965
vt 0.58109134 0.81977153
vt 0.55421752 0.8694818
vt 0.55818826 0.78564602
vt 0.5766995 0.86385477
vt 0.51955557 0.77087998
vt 0.57175678 0.78321284
vt 0.56867093 0.83163416
vt 0.5029816 0.76793242
vt 0.57113951 0.76556545
vt 0.5882107 0.78064299
vt 0.55856913 0.75540316
vt 0.59153253 0.79694504
vt 0.59695554 0.75168049
vt 0.61644644 0.78259212
vt 0.58415741 0.81328821
vt 0.60277253 0.77450919
vt 0.58961141 0.81308997
vt 0.61433554 0.77112144
vt 0.62405926 0.79713243
vt 0.64161634 0.75925183
vt 0.66698331 0.77455592
vt 0.63890678 0.74561632
vt 0.65964007 0.76450717
vt 0.72510225 0.71924531
vt 0.66004872 0.74402332
vt 0.69197589 0.73998761
vt 0.72509593 0.74648702
vt 0.76216102 0.70881432
vt 0.34629601 0.69544721
vt 0.32408011 0.68527496
vt 0.36121446 0.67188501
vt 0.38553306 0.6946435
vt 0.32236803 0.69932067
vt 0.32386929 0.68434
vt 0.39505509 0.67364973
vt 0.36456865 0.74355567
vt 0.33405909 0.74656451
vt 0.32358646 0.68573225
vt 0.3274492 0.67214489
vt 0.34857258 0.73007476
vt 0.38697955 0.7473582
vt 0.32298014 0.7500841
vt 0.31868243 0.69891459
vt 0.35300675 0.77180636
vt 0.38805801 0.7697106
vt 0.3192313 0.71578735
vt 0.33577463 0.76331592
vt 0.37472689 0.77602255
vt 0.32185483 0.75759578
vt 0.36651507 0.7877754
vt 0.38635084 0.78817153
vt 0.33089349 0.78584492
vt 0.32370925 0.77884591
vt 0.34819052 0.79005313
vt 0.32358345 0.78626299
vt 0.35169747 0.80452108
vt 0.3841691 0.80154538
vt 0.36648366 0.82815319
vt 0.32466063 0.82505447
vt 0.34853348 0.83653772
vt 0.38729823 0.83381087
vt 0.31614485 0.81362832
vt 0.35892826 0.84455121
vt 0.32090402 0.83240163
vt 0.31683552 0.79181361
vt 0.31826717 0.82765186
vt 0.32601652 0.85480142
vt 0.37684745 0.87015176
vt 0.32889372 0.86624211
vt 0.32966289 0.87026149
vt 0.32226115 0.84902549
vt 0.32519326 0.85950458
vt 0.3208372 0.8516531
vt 0.32277885 0.85580486
vt 0.44359449 0.53473336
vt 0.46251506 0.53804314
vt 0.46455568 0.55019134
vt 0.44462943 0.58245581
vt 0.46125934 0.51821989
vt 0.48044437 0.53016275
vt 0.43036076 0.55111957
vt 0.46443942 0.58080345
vt 0.42768463 0.49911249
vt 0.49986601 0.55404472
vt 0.42721528 0.58039463
vt 0.42535266 0.53568071
vt 0.48852652 0.59902799
vt 0.44601971 0.59740746
vt 0.46521965 0.49760044
vt 0.42990249 0.52398026
vt 0.4783316 0.49913758
vt 0.50630134 0.53629589
vt 0.41289151 0.57309806
vt 0.41091484 0.53409803
vt 0.4621667 0.47684091
vt 0.41218552 0.50126553
vt 0.50453216 0.52093124
vt 0.50070083 0.58201802
vt 0.40999761 0.59999335
vt 0.46589828 0.61412525
vt 0.42508575 0.44518375
vt 0.50244009 0.50007415
vt 0.52032566 0.60391009
vt 0.42175141 0.61611462
vt 0.39250803 0.58548713
vt 0.39352563 0.55483168
vt 0.51813513 0.61738992
vt 0.45964417 0.44363701
vt 0.47391984 0.45006973
vt 0.39495373 0.52278566
vt 0.41016042 0.4529357
vt 0.50117224 0.4490419
vt 0.39872736 0.61603594
vt 0.37941158 0.6214577
vt 0.38772458 0.53997439
vt 0.41928485 0.42230594
vt 0.39309448 0.50075531
vt 0.39369169 0.44947439
vt 0.46278983 0.42097455
vt 0.49839586 0.42620361
vt 0.39632103 0.42679262
vt 0.66164809 0.59059691
vt 0.6125319 0.59800619
vt 0.68396151 0.583426
vt 0.65582311 0.60343432
vt 0.6201722 0.6194936
vt 0.68647218 0.54507643
vt 0.69842058 0.58891678
vt 0.54307914 0.59663653
vt 0.65928423 0.48860753
vt 0.70370567 0.55328953
vt 0.50686705 0.55818832
vt 0.56320769 0.61143029
vt 0.60556585 0.48179692
vt 0.68793428 0.53517997
vt 0.50856757 0.56275296
vt 0.50470203 0.55182225
vt 0.5417729 0.6208322
vt 0.5626812 0.49218625
vt 0.51893193 0.58905786
vt 0.52415717 0.51794511
vt 0.52441901 0.60608006
vt 0.52084166 0.59777522
vt 0.54124177 0.50174898
vt 0.5212841 0.6050272
vt 0.52133107 0.60684097
vt 0.86108261 0.52985489
vt 0.84915835 0.51871055
vt 0.86199236 0.50346661
vt 0.89278114 0.50072598
vt 0.86061436 0.54644972
vt 0.80793202 0.46487719
vt 0.90865481 0.48713589
vt 0.83012307 0.56215405
vt 0.78617245 0.49294257
vt 0.84875268 0.47077423
vt 0.88536322 0.4565782
vt 0.85708559 0.57100987
vt 0.83505732 0.53501236
vt 0.82632828 0.52591884
vt 0.77579153 0.48249018
vt 0.79059672 0.44276685
vt 0.93114102 0.47220874
vt 0.85850883 0.58936799
vt 0.86465883 0.57276833
vt 0.76853704 0.45049596
vt 0.92913687 0.44728321
vt 0.93241286 0.49347323
vt 0.84556895 0.58693361
vt 0.7645396 0.48604006
vt 0.93376172 0.50049376
vt 0.84694898 0.60275555
vt 0.83915037 0.59106028
vt 0.75327891 0.46275544
vt 0.92085701 0.50735831
vt 0.84897149 0.62046355
vt 0.83804417 0.60003006
vt 0.75315136 0.48100704
vt 0.75312489 0.44179815
vt 0.30430523 0.37279278
vt 0.29939428 0.39326948
vt 0.287112 0.36900282
vt 0.29818982 0.33136928
vt 0.31506076 0.41696084
vt 0.27415252 0.40760171
vt 0.3186754 0.34281981
vt 0.28092289 0.43030471
vt 0.32844299 0.39633709
vt 0.25796804 0.39770824
vt 0.3352941 0.36614388
vt 0.30763468 0.45025855
vt 0.33641964 0.43049246
vt 0.25442404 0.42462784
vt 0.34780371 0.3595714
vt 0.27552715 0.45387191
vt 0.38748753 0.39979047
vt 0.36381814 0.43011689
vt 0.26793581 0.43966424
vt 0.3596155 0.4450832
vt 0.30311614 0.4687705
vt 0.3787263 0.37751526
vt 0.35624328 0.4512803
vt 0.32654744 0.47201914
vt 0.38751349 0.39988083
vt 0.36486331 0.43378842
vt 0.38954744 0.38524568
vt 0.33677474 0.49025697
vt 0.36724052 0.42957962
vt 0.38756472 0.3998
vt 0.35129219 0.4603526
vt 0.3350898 0.49577314
vt 0.33964139 0.4804495
vt 0.3895953 0.38527191
vt 0.39521393 0.38834965
vt 0.71269435 0.66886735
vt 0.69506508 0.66625321
vt 0.71519721 0.64469349
vt 0.73361969 0.66533589
vt 0.70602733 0.6817199
vt 0.6921618 0.65457451
vt 0.77409184 0.62309861
vt 0.7279067 0.67784375
vt 0.72296745 0.5976631
vt 0.77421081 0.62106967
vt 0.77061415 0.68376517
vt 0.6961537 0.61171269
vt 0.70006388 0.59107375
vt 0.7743479 0.61872673
vt 0.77563643 0.59643257
vt 0.77329183 0.56061792
vt 0.72409636 0.56134856
vt 0.77751303 0.56669462
vt 0.75466979 0.53926456
vt 0.77795082 0.56037265
vt 0.72310364 0.52887678
vt 0.77952534 0.52839118
vt 0.77802229 0.5558368
vt 0.77886993 0.53996754
vt 0.56732535 0.35818273
vt 0.57066143 0.3353337
vt 0.60545486 0.35433584
vt 0.56561989 0.38614267
vt 0.55278081 0.35008597
vt 0.5940305 0.31629175
vt 0.60463101 0.37799364
vt 0.55747437 0.36711484
vt 0.55607736 0.33036643
vt 0.57430941 0.31765938
vt 0.59385461 0.38614351
vt 0.52562106 0.33836502
vt 0.54226428 0.32402974
vt 0.53986531 0.29725581
vt 0.6040864 0.4039017
vt 0.58500928 0.39906764
vt 0.51740283 0.3483066
vt 0.57574153 0.41667801
vt 0.52062905 0.34068042
vt 0.51449108 0.3517316
vt 0.52888197 0.32409519
vt 0.60487711 0.43137693
vt 0.52259207 0.33167344
vt 0.53026295 0.37980008
vt 0.52653641 0.30888867
vt 0.59207624 0.43452239
vt 0.54499543 0.38628411
vt 0.50545013 0.36497611
vt 0.52436799 0.32183689
vt 0.5293088 0.29846478
vt 0.51086372 0.3823359
vt 0.53189874 0.2920841
vt 0.50527757 0.36717087
vt 0.50352126 0.38088381
vt 0.71682137 0.38499457
vt 0.67289627 0.38119835
vt 0.6923517 0.36148614
vt 0.71015072 0.37275988
vt 0.70083165 0.45916545
vt 0.6838218 0.36353183
vt 0.708278 0.3639282
vt 0.73495924 0.44361496
vt 0.63892406 0.403256
vt 0.67537022 0.36467457
vt 0.73857433 0.43050176
vt 0.66110444 0.46613038
vt 0.65816426 0.37592608
vt 0.68336892 0.36050659
vt 0.65312171 0.4505769
vt 0.6617105 0.46725506
vt 0.63375819 0.39151466
vt 0.63925087 0.42962003
vt 0.70711893 0.47417259
vt 0.6309703 0.39333636
vt 0.70925462 0.46589553
vt 0.67588985 0.49472076
vt 0.63038659 0.39501357
vt 0.71487486 0.480165
vt 0.62942773 0.39776903
vt 0.67709661 0.49582893
vt 0.70588791 0.8998577
vt 0.72230798 0.88746524
vt 0.72215122 0.90177083
vt 0.69655722 0.91987097
vt 0.71735096 0.87069714
vt 0.71273941 0.9264788
vt 0.69098985 0.89507651
vt 0.72374618 0.9252525
vt 0.70101964 0.93095994
vt 0.72510409 0.93888748
vt 0.71662527 0.9410218
vt 0.69043416 0.9404344
vt 0.73081183 0.95958352
vt 0.71523154 0.96820027
vt 0.72033626 0.97915274
vt 0.70199704 0.97154182
vt 0.71406949 0.9964003
vt 0.69068336 0.94757462
vt 0.43543151 0.79163563
vt 0.45343751 0.80569434
vt 0.45671451 0.83050662
vt 0.41071126 0.86912096
vt 0.46651343 0.79369318
vt 0.46625561 0.80547208
vt 0.45034534 0.8711769
vt 0.41127694 0.80275834
vt 0.46665552 0.78999132
vt 0.46624041 0.81294775
vt 0.46374223 0.87041008
vt 0.41799217 0.77415359
vt 0.46669272 0.78656805
vt 0.46645853 0.8313508
vt 0.46689394 0.86198449
vt 0.44227597 0.767434
vt 0.46705624 0.87159806
vt 0.46611482 0.77023768
vt 0.4667148 0.77274817
vt 0.46673793 0.77073658
vt 0.46677056 0.76978803
vt 0.027670134 0.94386882
vt 0.025885755 0.92558634
vt 0.034319431 0.91590655
vt 0.053904809 0.94488788
vt 0.0042250371 0.94298756
vt 0.028578535 0.89180148
vt 0.048800476 0.92383736
vt 0.02993869 0.95616806
vt 0.013183969 0.92548436
vt 0.0064534093 0.90294188
vt 0.056983918 0.94262159
vt 0.030260967 0.99257666
vt 0.050343476 0.89488035
vt 0.025619082 0.97812176
vt 0.025887564 0.99613392
vt 0.44388986 0.67281628
vt 0.45338574 0.64470714
vt 0.46736521 0.66993606
vt 0.4445405 0.68469954
vt 0.47855797 0.66389251
vt 0.47487459 0.68795383
vt 0.44117659 0.68903613
vt 0.49283305 0.70050782
vt 0.46547082 0.71907514
vt 0.47747734 0.69705713
vt 0.50673509 0.68608367
vt 0.45537522 0.74022055
vt 0.45583355 0.74555856
vt 0.10432404 0.91023028
vt 0.10788827 0.93702376
vt 0.09095262 0.91778177
vt 0.066743337 0.90852994
vt 0.089774214 0.9331584
vt 0.07299754 0.93166673
vt 0.088332653 0.94876546
vt 0.0950059 0.96495038
vt 0.077998936 0.96083415
vt 0.095379703 0.97373396
vt 0.075794317 0.97460228
vt 0.089477159 0.99544442
vt 0.37476134 0.9449203
vt 0.37434238 0.96043801
vt 0.36261573 0.95940053
vt 0.35862735 0.93497092
vt 0.38911349 0.93385434
vt 0.3734571 0.97356361
vt 0.34743872 0.94829285
vt 0.3633053 0.97101539
vt 0.38088894 0.92234623
vt 0.36450669 0.99540257
vt 0.3520906 0.96575081
vt 0.36551651 0.90952981
vt 0.38895383 0.90897816
vt 0.41195238 0.9769094
vt 0.39941865 0.99054313
vt 0.37856388 0.98300052
vt 0.43272498 0.99562776
vt 0.45359883 0.98220134
vt 0.46608987 0.96387982
vt 0.46778986 0.95220488
vt 0.4797712 0.96329325
vt 0.46484071 0.98160571
vt 0.45349959 0.94856405
vt 0.47481516 0.94174814
vt 0.49393958 0.98842913
vt 0.45473379 0.965756
vt 0.47484994 0.94179499
vt 0.47257116 0.99530101
vt 0.49309695 0.97009754
vt 0.44232485 0.94729877
vt 0.47480977 0.94172895
vt 0.4599064 0.9221921
vt 0.47499835 0.94197816
vt 0.49140257 0.96360481
vt 0.4947938 0.96874827
vt 0.52189791 0.96051908
vt 0.53882515 0.97778606
vt 0.51868558 0.98763585
vt 0.50463247 0.9824788
vt 0.55607605 0.95228928
vt 0.52191591 0.99685985
vt 0.5109517 0.95942217
vt 0.54399472 0.9345817
vt 0.52950346 0.94225776
vt 0.5489167 0.92763251
vt 0.52244765 0.92433631
vt 0.80780447 0.97755146
vt 0.79092121 0.99459153
vt 0.77138257 0.99664748
vt 0.75173032 0.99060261
vt 0.73885089 0.97801602
vt 0.5153659 0.84358621
vt 0.52754408 0.85448968
vt 0.50326401 0.84852171
vt 0.50673348 0.84192902
vt 0.52516353 0.8645848
vt 0.47872153 0.84103334
vt 0.53510582 0.85884655
vt 0.48475716 0.85881352
vt 0.49328536 0.83658725
vt 0.51683527 0.87026417
vt 0.5027352 0.83803076
vt 0.47340506 0.8269065
vt 0.47302645 0.850088
vt 0.3467482 0.88003635
vt 0.35115796 0.89827609
vt 0.33251384 0.90263802
vt 0.31714836 0.88119757
vt 0.35625616 0.89280236
vt 0.37716451 0.87529665
vt 0.40463632 0.90522742
vt 0.42971686 0.93614066
vt 0.37961206 0.96419197
vt 0.3873947 0.93714559
vt 0.55368668 0.98445892
vt 0.57168263 0.99531674
vt 0.534917 0.98923689
vt 0.59458905 0.99014646
vt 0.05078787 0.96074927
vt 0.063577577 0.94983131
vt 0.070016935 0.9559921
vt 0.069697618 0.95871753
vt 0.069517404 0.94816667
vt 0.062498383 0.97498614
vt 0.071111456 0.95355928
vt 0.070622265 0.96158463
vt 0.071078911 0.94599909
vt 0.070089221 0.97390842
vt 0.069113411 0.97683626
vt 0.067039981 0.98293227
vt 0.063432187 0.98295438
vt 0.066290699 0.99019766
vt 0.065209523 0.99521464
vt 0.94653946 0.99646652
vt 0.9743917 0.99431521
vt 0.98209149 0.99595094
vt 0.99009746 0.97517931
vt 0.94047159 0.97729301
vt 0.36487615 0.90496528
vt 0.3552762 0.90667605
vt 0.36487341 0.90463257
vt 0.35368109 0.92692935
vt 0.35609567 0.90413922
vt 0.3430039 0.90574026
vt 0.36486724 0.90458137
vt 0.33447579 0.91611034
vt 0.32881674 0.93329602
vt 0.31555086 0.90733486
vt 0.75320083 0.95868999
vt 0.75638831 0.96865821
vt 0.73971552 0.9657442
vt 0.73958224 0.9596715
vt 0.76442146 0.96000355
vt 0.75366801 0.97975051
vt 0.7488187 0.94557297
vt 0.76404256 0.94450223
vt 0.7391448 0.94038886
vt 0.7542696 0.93516845
vt 0.73870075 0.93442988
vt 0.72869635 0.9136095
vt 0.7550143 0.91936767
vt 0.75916129 0.92962927
vt 0.75090468 0.90894222
vt 0.75082964 0.90582275
vt 0.73368841 0.89766729
vt 0.7504769 0.89579892
vt 0.72294688 0.8914122
vt 0.74854189 0.88918853
vt 0.72304678 0.89115536
vt 0.74852401 0.88912201
vt 0.73310399 0.89124632
vt 0.72349405 0.89104772
vt 0.7300114 0.88945556
vt 0.42118844 0.96016729
vt 0.41330245 0.95937651
vt 0.43602401 0.95162201
vt 0.42060396 0.95374632
vt 0.43598312 0.95156121
vt 0.66930628 0.87408984
vt 0.66845453 0.86169112
vt 0.68628675 0.86514103
vt 0.68983865 0.89197886
vt 0.66463262 0.86488545
vt 0.69762129 0.88585246
vt 0.67182851 0.88651007
vt 0.66103792 0.87655687
vt 0.66528851 0.86037636
vt 0.67469954 0.90304124
vt 0.68376273 0.90292531
vt 0.66995656 0.89806229
vt 0.66615337 0.88542604
vt 0.66772109 0.88836122
vt 0.011413268 0.95952541
vt 0.016589794 0.99555182
vt 0.01237915 0.99285465
vt 0.014321089 0.95624751
vt 0.011227214 0.95620584
vt 0.016055971 0.97728336
vt 0.66216844 0.96511799
vt 0.67432129 0.97151631
vt 0.66153651 0.96810842
vt 0.69709837 0.97222698
vt 0.68041253 0.99530524
vt 0.66055346 0.98357224
vt 0.66010982 0.99176717
vt 0.8189491 0.99593884
vt 0.83025205 0.97983587
vt 0.81953031 0.99590093
vt 0.82113194 0.97923553
vt 0.83376926 0.99179226
vt 0.80636412 0.98507011
vt 0.82534772 0.99471045
vt 0.83466518 0.99140149
vt 0.81837082 0.99655104
vt 0.83740854 0.98402411
vt 0.81772876 0.99691182
vt 0.80094582 0.99594057
vt 0.56177539 0.87489432
vt 0.57014012 0.88128078
vt 0.53863543 0.90329868
vt 0.54684377 0.88469291
vt 0.55587441 0.90311861
vt 0.53849143 0.89617306
vt 0.55624354 0.8729111
vt 0.53583235 0.89917254
vt 0.61901885 0.84044647
vt 0.62537736 0.84041107
vt 0.61326438 0.86836028
vt 0.59907067 0.85586393
vt 0.62403178 0.85918164
vt 0.60302836 0.87095946
vt 0.60419631 0.84993172
vt 0.59731108 0.83769983
vt 0.60484082 0.84113204
vt 0.87183559 0.99587166
vt 0.84695709 0.98612666
vt 0.87943995 0.98516047
vt 0.8800984 0.99306536
vt 0.88036811 0.99598533
vt 0.80946273 0.97972167
vt 0.8124404 0.94916242
vt 0.82410198 0.97925866
vt 0.80743873 0.97722268
vt 0.80684227 0.97818929
vt 0.80280638 0.95471042
vt 0.80110228 0.97472084
vt 0.80161035 0.95437527
vt 0.80096358 0.97562289
vt 0.80161285 0.95033705
vt 0.80166167 0.95472318
vt 0.80172968 0.9551844
vt 0.80068284 0.97744888
vt 0.80161363 0.94911259
vt 0.44046631 0.95773923
vt 0.43903801 0.98132217
vt 0.42668158 0.9589833
vt 0.45777512 0.97750747
vt 0.40991637 0.97333819
vt 0.40192741 0.97986537
vt 0.37853226 0.96409321
vt 0.40885228 0.9956786
vt 0.39145067 0.99342978
vt 0.3793813 0.98343343
vt 0.067265227 0.98682499
vt 0.092885152 0.99504584
vt 0.068018883 0.99698997
vt 0.55124503 0.96391428
vt 0.56564701 0.97044456
vt 0.56295037 0.98010623
vt 0.57432353 0.95800328
vt 0.11704392 0.97837448
vt 0.10852508 0.99565268
vt 0.10183281 0.99546647
vt 0.098080613 0.97187042
vt 0.37040496 0.99636877
vt 0.37048891 0.99379271
vt 0.39203286 0.99544388
vt 0.37671512 0.99173021
vt 0.37772909 0.98541552
vt 0.37124705 0.99055225
vt 0.6971221 0.99656957
vt 0.70720863 0.98543119
vt 0.70014673 0.99525738
vt 0.69179249 0.98341829
vt 0.71006972 0.98655277
vt 0.69191551 0.98452389
vt 0.69343227 0.99621141
vt 0.012863002 0.99462777
vt 0.0061908676 0.99525142
vt 0.0042299256 0.97932857
vt 0.45933357 0.98040909
vt 0.44951317 0.99428374
vt 0.44865417 0.9878006
vt 0.44147301 0.99644667
vt 0.4474805 0.98664236
vt 0.05313319 0.986444
vt 0.061307263 0.98618573
vt 0.050116912 0.99699038
vt 0.012498374 0.99623311
vt 0.0040611168 0.99311942
vt 0.0034453885 0.99219978
vt 0.0032871293 0.99069136
vt 0.0057131015 0.99474096
vt 0.0032479658 0.99671191
vt 0.0071492041 0.99496192
vt 0.0084582148 0.99415302
vt 0.008393161 0.996795
vt 0.010139252 0.99457473
usemtl Tile_+038_+020_L19_000022_0
f 524/325 120/326 525/327
f 8/1008 90/1009 7/1010
f 149/409 143/403 147/414
f 159/1 150/2 157/3
f 60/660 72/661 71/662
f 78/371 9/379 14/388
f 212/48 171/39 198/43
f 501/474 271/475 122/476
f 187/9 168/19 169/14
f 213/625 215/626 216/627
f 205/6 159/1 196/4
f 191/32 180/36 193/28
f 141/15 195/10 169/14
f 201/46 178/47 200/42
f 157/428 150/429 156/421
f 43/520 41/521 44/522
f 130/44 179/53 183/49
f 90/397 14/388 11/404
f 2/744 6/745 1/746
f 149/409 192/420 187/427
f 48/416 46/422 54/411
f 90/1009 11/1012 7/1010
f 85/364 1/387 4/378
f 68/592 69/593 232/594
f 23/567 20/568 17/569
f 115/336 97/331 98/328
f 264/671 19/672 36/668
f 68/665 264/671 36/668
f 36/1049 67/1050 26/1051
f 525/327 266/329 526/332
f 118/350 153/369 154/377
f 142/762 204/763 160/764
f 259/823 261/824 260/825
f 63/609 263/614 73/599
f 19/1052 67/1050 36/1049
f 512/718 250/719 240/720
f 234/559 233/544 239/558
f 238/508 234/513 641/515
f 233/544 237/550 236/538
f 124/536 135/534 125/540
f 18/602 19/598 232/594
f 23/567 18/570 57/571
f 245/551 228/539 236/538
f 241/901 240/902 645/903
f 207/561 181/564 127/553
f 225/489 224/492 223/482
f 159/1 157/3 196/4
f 190/432 191/426 147/414
f 141/15 140/25 161/17
f 647/483 222/478 648/488
f 722/81 210/92 723/100
f 219/641 214/635 720/639
f 121/376 102/361 137/384
f 218/642 219/641 533/649
f 536/644 218/642 537/650
f 174/636 203/637 536/644
f 220/648 174/636 538/647
f 221/20 158/11 540/16
f 162/643 141/640 170/638
f 545/774 221/779 546/780
f 547/766 142/762 548/770
f 140/645 220/648 549/652
f 217/633 218/642 203/637
f 217/633 219/641 218/642
f 217/633 214/635 219/641
f 214/635 217/633 213/625
f 215/626 213/625 202/629
f 721/631 213/625 726/628
f 216/52 211/60 727/70
f 726/93 216/52 728/82
f 216/627 215/626 173/630
f 213/625 217/633 202/629
f 211/60 216/52 212/48
f 203/637 202/629 217/633
f 171/39 212/48 216/52
f 173/630 171/634 216/627
f 215/626 202/629 172/632
f 172/632 173/630 215/626
f 174/636 172/632 202/629
f 158/11 151/5 205/6
f 202/629 203/637 174/636
f 198/43 171/39 165/35
f 175/68 197/80 176/69
f 198/43 165/35 178/47
f 198/43 178/47 199/51
f 199/51 177/79 176/69
f 212/48 198/43 199/51
f 209/59 176/69 197/80
f 209/59 212/48 199/51
f 199/51 176/69 209/59
f 211/60 212/48 209/59
f 211/60 209/59 722/81
f 201/46 166/34 185/45
f 206/58 175/68 178/47
f 167/38 166/34 200/42
f 186/33 166/34 189/29
f 201/46 200/42 166/34
f 201/46 206/58 178/47
f 166/34 186/33 184/41
f 166/34 184/41 185/45
f 130/44 183/49 182/37
f 181/61 183/49 179/53
f 186/33 182/37 184/41
f 182/37 180/36 130/44
f 189/29 168/19 188/22
f 181/564 179/565 126/554
f 130/436 123/435 179/437
f 126/554 179/565 123/557
f 190/432 131/425 130/436
f 141/15 196/4 195/10
f 163/23 168/19 189/29
f 194/7 187/9 169/14
f 193/28 188/22 187/9
f 551/8 196/4 553/12
f 148/415 156/421 150/429
f 187/9 188/22 168/19
f 146/419 129/433 131/425
f 191/426 192/420 147/414
f 192/420 191/426 187/427
f 193/28 180/36 182/37
f 191/32 190/40 180/36
f 180/36 190/40 130/44
f 141/15 169/14 170/24
f 186/33 189/29 188/22
f 159/1 205/6 151/5
f 166/34 163/23 189/29
f 165/35 200/42 178/47
f 141/640 174/636 140/645
f 172/632 170/638 173/630
f 174/636 141/640 172/632
f 165/35 171/39 170/24
f 170/638 172/632 162/643
f 171/634 173/630 170/638
f 165/35 167/38 200/42
f 163/23 165/35 164/30
f 163/23 166/34 167/38
f 169/14 163/23 164/30
f 141/640 162/643 172/632
f 169/14 195/10 194/7
f 170/24 169/14 164/30
f 101/375 106/374 137/384
f 178/1043 177/1044 199/1045
f 176/69 178/47 175/68
f 176/69 177/79 178/47
f 161/17 140/25 550/31
f 153/369 155/385 154/377
f 160/764 155/768 121/765
f 142/762 158/777 545/774
f 158/777 142/762 151/773
f 160/764 204/763 552/767
f 156/421 149/409 157/428
f 187/427 157/428 149/409
f 148/415 121/376 149/409
f 149/409 156/421 148/415
f 144/413 146/419 131/425
f 55/893 111/894 104/895
f 147/414 192/420 149/409
f 131/425 190/432 147/414
f 131/425 147/414 144/413
f 147/414 139/402 144/413
f 144/413 138/408 146/419
f 146/419 145/418 128/424
f 112/412 138/408 111/383
f 139/402 143/403 108/392
f 107/393 108/392 143/403
f 143/403 121/376 107/393
f 160/764 121/765 142/762
f 148/769 142/762 121/765
f 150/2 159/1 151/5
f 165/35 170/24 164/30
f 138/408 139/402 111/383
f 128/424 145/418 136/407
f 133/417 128/424 136/407
f 134/430 133/417 47/423
f 48/416 54/411 51/406
f 90/397 76/380 78/371
f 124/536 134/547 47/542
f 132/431 128/424 133/417
f 133/417 134/430 123/435
f 131/425 129/433 128/424
f 130/436 131/425 128/424
f 129/433 146/419 128/424
f 130/436 132/431 123/435
f 123/435 132/431 133/417
f 181/564 126/554 127/553
f 126/554 125/540 127/553
f 134/547 124/536 123/557
f 122/476 271/475 649/479
f 44/522 48/529 39/532
f 56/401 89/381 53/400
f 121/376 137/384 107/393
f 114/373 89/381 55/391
f 136/407 112/412 55/391
f 52/390 51/406 53/400
f 114/373 55/391 119/382
f 88/366 114/373 95/358
f 104/895 119/896 55/893
f 111/383 106/374 104/368
f 55/391 112/412 111/383
f 111/383 139/402 108/392
f 111/383 108/392 106/374
f 109/355 100/348 110/360
f 102/361 109/355 110/360
f 106/374 108/392 107/393
f 100/348 109/355 105/338
f 107/393 137/384 106/374
f 137/384 102/361 101/375
f 99/342 120/326 96/335
f 101/375 110/360 103/359
f 100/348 96/335 116/347
f 110/360 101/375 102/361
f 104/368 113/367 119/382
f 103/359 106/374 101/375
f 103/359 117/353 104/368
f 104/368 106/374 103/359
f 114/373 119/382 113/367
f 95/358 117/353 94/341
f 114/373 113/367 95/358
f 117/353 116/347 94/341
f 94/341 116/347 96/335
f 110/360 100/348 116/347
f 92/798 93/799 21/800
f 22/802 21/800 93/799
f 5/365 9/379 78/371
f 83/783 86/784 84/785
f 12/343 93/346 87/357
f 35/786 80/794 82/790
f 84/785 85/788 92/789
f 80/809 35/804 28/806
f 80/794 29/797 81/796
f 35/804 91/801 27/803
f 12/343 97/331 115/336
f 35/786 92/789 91/793
f 91/801 92/798 21/800
f 83/783 35/786 82/790
f 96/335 120/326 97/331
f 94/341 97/331 12/343
f 24/761 25/755 28/759
f 105/338 99/342 100/348
f 99/342 96/335 100/348
f 94/341 96/335 97/331
f 95/358 94/341 79/352
f 34/791 86/784 32/787
f 77/372 88/366 79/352
f 80/809 28/806 29/810
f 92/789 35/786 84/785
f 93/795 92/789 85/788
f 12/343 87/357 79/352
f 79/352 94/341 12/343
f 85/788 84/785 86/784
f 85/788 86/784 1/792
f 79/352 87/357 5/365
f 78/371 76/380 77/372
f 83/783 82/790 32/787
f 31/754 32/753 82/756
f 86/784 83/783 32/787
f 88/366 77/372 76/380
f 76/380 16/399 50/389
f 5/365 87/357 85/364
f 82/756 81/758 31/754
f 30/757 31/754 81/758
f 1/792 86/784 34/791
f 4/378 1/387 7/396
f 7/396 11/404 10/398
f 30/757 28/759 25/755
f 1/1013 6/1011 7/1010
f 14/388 90/397 78/371
f 16/399 76/380 90/397
f 39/532 50/548 16/552
f 88/366 76/380 50/389
f 88/366 50/389 52/390
f 52/390 89/381 88/366
f 88/366 89/381 114/373
f 54/411 53/400 51/406
f 55/391 89/381 56/401
f 136/407 56/401 54/411
f 39/532 38/527 44/522
f 54/411 56/401 53/400
f 54/411 46/422 47/423
f 50/389 49/405 52/390
f 51/406 52/390 49/405
f 48/416 51/406 49/405
f 39/532 49/543 50/548
f 42/545 235/533 39/532
f 16/552 42/545 39/532
f 48/529 44/522 45/525
f 46/537 45/525 47/542
f 48/529 49/543 39/532
f 45/525 41/521 40/524
f 44/522 41/521 45/525
f 38/527 39/532 235/533
f 44/522 38/527 75/523
f 42/579 16/575 20/568
f 20/568 57/571 74/574
f 36/668 71/662 68/665
f 72/596 73/599 69/593
f 62/610 63/609 70/603
f 61/826 66/834 64/831
f 26/1051 67/1050 19/1052
f 3/608 25/613 19/598
f 61/667 60/660 66/663
f 72/661 60/660 62/664
f 20/568 23/567 57/571
f 23/567 17/569 18/570
f 8/572 17/569 20/568
f 5/748 2/744 15/750
f 3/608 19/598 18/602
f 90/580 8/572 16/575
f 6/1011 4/1014 8/1008
f 10/398 11/404 14/388
f 20/568 16/575 8/572
f 8/1008 9/1016 5/1015
f 120/326 98/328 97/331
f 10/398 14/388 9/379
f 4/1014 9/1016 8/1008
f 3/747 37/752 25/755
f 6/1011 5/1015 4/1014
f 3/747 2/744 1/746
f 3/747 15/750 2/744
f 25/755 37/752 31/754
f 34/751 33/749 1/746
f 1/746 33/749 3/747
f 32/753 31/754 33/749
f 31/754 30/757 25/755
f 30/757 29/760 28/759
f 29/760 30/757 81/758
f 27/803 24/807 28/806
f 28/806 35/804 27/803
f 24/616 26/620 19/598
f 36/808 26/805 22/802
f 36/668 22/676 246/675
f 22/676 267/678 246/675
f 559/666 71/662 560/669
f 22/676 93/680 267/678
f 98/328 13/340 115/336
f 12/343 115/336 13/340
f 93/346 13/340 267/334
f 36/668 246/675 562/674
f 560/669 36/668 563/673
f 522/333 440/351 567/356
f 105/338 522/333 120/326
f 109/355 102/361 118/350
f 105/338 120/326 99/342
f 121/376 153/369 102/361
f 153/369 118/350 102/361
f 154/377 152/394 569/395
f 118/350 523/345 105/338
f 530/337 522/333 571/344
f 266/329 120/326 522/333
f 105/338 523/345 522/333
f 118/350 154/377 572/370
f 154/377 155/385 152/394
f 523/345 440/351 522/333
f 516/811 73/812 515/813
f 73/812 513/815 515/813
f 576/1022 251/1023 578/1024
f 517/961 439/962 241/963
f 251/726 65/722 579/729
f 65/722 268/736 532/733
f 61/826 259/823 260/825
f 531/739 66/741 581/743
f 270/828 269/830 260/825
f 61/826 260/825 62/829
f 62/829 260/825 269/830
f 261/824 259/823 59/827
f 520/832 269/830 270/828
f 520/822 270/821 519/820
f 58/817 261/819 59/816
f 259/823 61/826 59/827
f 65/814 515/813 59/816
f 260/825 261/824 270/828
f 270/821 261/819 519/820
f 68/592 72/596 69/593
f 59/827 64/831 65/835
f 73/812 514/818 58/817
f 513/815 58/817 59/816
f 519/622 514/618 263/614
f 262/617 519/622 263/614
f 520/621 519/622 262/617
f 520/621 262/617 63/609
f 63/609 262/617 263/614
f 73/599 70/603 63/609
f 263/614 514/618 73/599
f 72/596 62/610 70/603
f 73/599 72/596 70/603
f 60/660 61/667 62/664
f 72/661 68/665 71/662
f 515/813 513/815 59/816
f 66/663 60/660 71/662
f 512/600 69/593 521/605
f 233/544 235/533 507/549
f 234/586 507/584 20/568
f 65/722 64/738 268/736
f 73/599 516/604 69/593
f 58/817 513/815 73/812
f 516/604 521/605 69/593
f 57/601 437/597 506/607
f 241/724 436/721 240/720
f 651/965 517/961 652/968
f 512/600 436/606 437/597
f 65/722 250/719 512/718
f 512/600 437/597 69/593
f 65/814 516/811 515/813
f 521/728 516/725 512/718
f 65/722 512/718 516/725
f 58/817 514/818 261/819
f 653/970 258/964 655/971
f 241/963 257/966 258/964
f 258/964 518/967 517/961
f 652/968 518/967 656/973
f 637/912 257/906 659/911
f 660/1028 577/1026 712/1030
f 249/1027 248/1025 660/1028
f 251/1023 249/1027 662/1029
f 436/721 512/718 240/720
f 241/963 258/964 517/961
f 241/615 439/623 511/619
f 665/730 251/726 666/734
f 257/906 241/901 646/904
f 645/903 274/905 667/907
f 250/719 274/723 240/720
f 251/726 250/719 65/722
f 223/482 252/485 225/489
f 231/505 238/508 230/512
f 668/509 230/512 669/516
f 253/504 231/505 668/509
f 640/975 439/976 673/977
f 435/611 511/619 254/624
f 511/619 435/611 241/615
f 674/588 254/587 675/590
f 504/497 253/504 670/507
f 224/492 504/497 678/500
f 222/478 223/482 680/487
f 504/497 255/499 256/501
f 231/505 253/504 256/501
f 252/485 501/474 505/481
f 225/489 255/499 504/497
f 501/474 226/477 505/481
f 228/539 509/560 510/555
f 244/541 503/528 229/535
f 243/562 244/541 510/555
f 243/486 505/481 226/477
f 243/486 510/490 505/481
f 510/490 242/493 505/481
f 509/496 245/502 272/495
f 272/495 245/502 247/503
f 242/493 509/496 272/495
f 256/501 255/499 272/495
f 237/506 247/503 245/502
f 244/541 228/539 510/555
f 234/513 238/508 237/506
f 509/560 228/539 245/551
f 509/496 242/493 510/490
f 237/550 233/544 234/559
f 507/584 234/586 239/589
f 233/544 236/538 508/530
f 228/539 438/526 236/538
f 233/544 508/530 235/533
f 508/530 236/538 438/526
f 508/530 75/523 235/533
f 135/534 40/524 503/528
f 235/533 75/523 38/527
f 40/524 43/520 503/528
f 42/545 507/549 235/533
f 43/520 229/535 503/528
f 227/531 438/526 228/539
f 43/520 438/526 227/531
f 228/539 244/541 229/535
f 228/539 229/535 227/531
f 225/489 242/493 272/495
f 227/531 229/535 43/520
f 507/584 42/579 20/568
f 641/582 20/568 684/577
f 506/578 74/574 57/571
f 684/577 74/574 685/581
f 74/574 506/578 435/583
f 437/597 436/606 435/611
f 256/501 272/495 247/503
f 247/503 238/508 231/505
f 505/481 225/489 252/485
f 256/501 247/503 231/505
f 255/499 225/489 272/495
f 501/474 252/485 223/482
f 501/474 223/482 222/478
f 501/474 222/478 271/475
f 122/476 226/477 501/474
f 122/476 208/480 226/477
f 122/101 278/74 208/94
f 207/71 208/94 278/74
f 207/561 273/546 226/563
f 273/546 127/553 125/540
f 273/546 207/561 127/553
f 503/528 244/541 273/546
f 244/541 502/556 273/546
f 273/546 502/556 226/563
f 226/563 208/566 207/561
f 46/537 48/529 45/525
f 57/601 18/602 232/594
f 435/611 436/606 241/615
f 139/402 138/408 144/413
f 89/381 52/390 53/400
f 56/401 136/407 55/391
f 112/412 145/418 138/408
f 151/434 148/415 150/429
f 191/32 193/28 187/9
f 138/408 145/418 146/419
f 193/28 182/37 186/33
f 40/524 135/534 124/536
f 117/353 95/358 113/367
f 21/800 22/802 27/803
f 4/378 5/365 85/364
f 17/569 15/573 18/570
f 25/613 24/616 19/598
f 267/334 13/340 98/328
f 267/334 98/328 561/330
f 81/796 82/790 80/794
f 540/16 205/6 543/18
f 251/1023 248/1025 249/1027
f 268/736 64/738 66/741
f 437/597 232/594 69/593
f 19/598 264/595 232/594
f 196/4 141/15 161/17
f 553/12 161/17 584/21
f 194/7 196/4 157/3
f 148/769 151/773 142/762
f 186/33 188/22 193/28
f 194/7 157/3 187/9
f 196/4 194/7 195/10
f 168/19 163/23 169/14
f 163/23 167/38 165/35
f 174/636 220/648 140/645
f 556/776 160/764 557/775
f 152/772 155/768 160/764
f 121/376 155/385 153/369
f 143/403 149/409 121/376
f 139/402 147/414 143/403
f 136/407 145/418 112/412
f 54/411 133/417 136/407
f 54/411 47/423 133/417
f 45/525 40/524 124/536
f 124/536 125/540 126/554
f 126/554 123/557 124/536
f 128/424 132/431 130/436
f 504/497 224/492 225/489
f 79/352 88/366 95/358
f 6/745 2/744 5/748
f 117/353 113/367 104/368
f 117/353 103/359 116/347
f 103/359 110/360 116/347
f 37/752 3/747 33/749
f 17/569 5/576 15/573
f 27/803 91/801 21/800
f 35/786 83/783 84/785
f 78/371 77/372 79/352
f 85/364 87/357 93/346
f 79/352 5/365 78/371
f 7/396 10/398 4/378
f 124/536 47/542 45/525
f 503/528 125/540 135/534
f 43/520 40/524 41/521
f 232/594 264/595 68/592
f 5/576 17/569 8/572
f 9/379 4/378 10/398
f 15/612 3/608 18/602
f 7/1010 6/1011 8/1008
f 33/749 31/754 37/752
f 27/803 22/802 26/805
f 34/751 32/753 33/749
f 24/807 27/803 26/805
f 93/346 12/343 13/340
f 246/675 267/678 583/681
f 105/338 109/355 118/350
f 440/351 523/345 118/350
f 440/351 118/350 573/362
f 63/833 62/829 269/830
f 520/832 63/833 269/830
f 64/831 59/827 61/826
f 514/818 519/820 261/819
f 507/549 239/558 233/544
f 57/601 232/594 437/597
f 274/723 250/719 686/727
f 74/574 435/583 254/587
f 236/538 237/550 245/551
f 254/978 511/980 439/976
f 680/487 224/492 689/494
f 256/501 253/504 504/497
f 225/489 505/481 242/493
f 247/503 237/506 238/508
f 75/523 508/530 438/526
f 75/523 438/526 43/520
f 43/520 44/522 75/523
f 506/607 437/597 435/611
f 230/512 238/508 642/514
f 683/104 122/101 687/116
f 243/562 226/563 244/541
f 226/563 502/556 244/541
f 125/540 503/528 273/546
f 297/858 310/859 315/860
f 419/684 416/685 420/686
f 416/685 403/689 420/686
f 297/858 300/866 299/865
f 175/68 206/58 334/67
f 425/137 397/138 408/139
f 372/135 349/128 350/134
f 395/292 368/293 397/294
f 412/693 417/692 413/696
f 412/693 416/685 417/692
f 413/696 418/704 401/697
f 387/126 363/132 349/128
f 355/233 365/234 393/235
f 375/273 376/263 276/275
f 375/273 382/283 339/278
f 351/243 391/236 398/244
f 378/260 361/245 359/252
f 357/296 356/297 371/298
f 311/705 434/699 432/698
f 283/314 308/321 303/317
f 298/687 434/699 310/701
f 344/264 321/270 323/247
f 290/1017 281/1018 690/1019
f 337/88 342/87 378/105
f 692/111 301/86 693/112
f 414/688 279/695 413/696
f 418/704 413/696 279/695
f 432/438 423/439 422/440
f 304/309 283/314 303/317
f 423/690 433/694 298/687
f 311/444 432/438 331/441
f 427/451 381/445 426/448
f 326/303 285/302 306/305
f 331/441 432/438 422/440
f 433/694 423/690 432/698
f 298/687 433/694 434/699
f 419/684 280/691 414/688
f 420/686 423/690 298/687
f 731/981 496/982 732/983
f 499/148 429/140 430/143
f 408/139 431/147 430/143
f 408/139 430/143 429/140
f 397/473 368/472 409/469
f 429/140 425/137 408/139
f 425/137 429/140 730/144
f 397/138 409/142 408/139
f 406/458 428/467 396/465
f 384/470 428/467 409/469
f 396/465 428/467 384/470
f 374/468 384/470 367/471
f 368/472 367/471 409/469
f 383/463 406/458 396/465
f 369/459 383/463 396/465
f 421/455 424/461 369/459
f 424/461 421/455 406/458
f 369/459 380/457 421/455
f 381/445 427/451 421/455
f 422/440 379/446 324/443
f 298/687 280/691 419/684
f 421/455 411/454 406/458
f 422/440 420/442 381/445
f 380/457 381/445 421/455
f 403/453 410/450 420/442
f 413/696 417/692 414/688
f 281/118 289/102 696/110
f 414/688 417/692 416/685
f 403/176 400/195 415/186
f 291/95 292/85 295/63
f 423/439 420/442 422/440
f 407/156 406/151 404/161
f 411/454 427/451 426/448
f 411/454 404/456 406/458
f 428/467 406/458 409/469
f 416/685 412/693 403/689
f 401/697 412/693 413/696
f 402/169 407/156 404/161
f 404/456 411/454 410/450
f 406/151 405/146 409/142
f 405/146 408/139 409/142
f 407/156 405/146 406/151
f 402/169 404/161 403/176
f 403/453 404/456 410/450
f 415/186 402/169 403/176
f 409/469 367/471 384/470
f 400/195 403/176 700/203
f 403/689 412/693 401/697
f 399/145 425/137 733/149
f 351/243 350/257 363/258
f 392/141 425/137 399/145
f 394/259 398/244 399/251
f 351/243 358/239 391/236
f 398/244 394/259 350/257
f 392/141 397/138 425/137
f 392/240 398/244 391/236
f 395/238 365/234 373/242
f 396/465 374/468 369/459
f 395/238 397/248 392/240
f 392/240 393/235 395/238
f 393/235 365/234 395/238
f 384/470 374/468 396/465
f 356/256 373/242 353/249
f 356/297 357/296 373/295
f 365/234 353/249 373/242
f 372/271 394/259 737/276
f 387/126 347/114 386/119
f 391/236 358/239 355/233
f 393/235 392/240 391/236
f 390/90 175/68 334/67
f 389/107 347/114 739/120
f 735/108 388/91 741/115
f 390/90 348/98 197/80
f 185/45 336/65 346/57
f 175/68 390/90 197/80
f 389/107 388/91 385/99
f 388/91 209/59 197/80
f 197/80 385/99 388/91
f 210/92 209/59 388/91
f 741/115 389/107 743/121
f 365/234 366/255 353/249
f 362/125 363/132 387/126
f 349/128 347/114 387/126
f 386/119 362/125 387/126
f 348/98 386/119 347/114
f 385/99 347/114 389/107
f 347/114 385/99 348/98
f 385/99 197/80 348/98
f 346/57 334/67 201/46
f 337/88 359/113 386/119
f 359/113 337/88 378/105
f 362/125 386/119 359/113
f 386/119 348/98 337/88
f 378/260 360/253 361/245
f 360/253 378/260 342/261
f 312/931 333/932 307/933
f 276/275 277/280 375/273
f 364/241 340/254 323/247
f 341/246 364/241 354/237
f 377/1036 345/1037 337/1038
f 360/253 341/246 354/237
f 364/241 365/234 354/237
f 351/243 362/250 358/239
f 371/266 356/256 353/249
f 279/695 414/688 280/691
f 376/263 375/273 352/265
f 371/266 375/273 339/278
f 328/1053 329/1054 379/1055
f 424/461 383/463 369/459
f 327/462 380/457 369/459
f 327/300 371/298 339/301
f 329/316 328/306 324/310
f 380/457 328/460 381/445
f 284/285 382/283 375/273
f 327/462 328/460 380/457
f 371/298 370/299 357/296
f 370/299 371/298 327/300
f 369/459 370/464 327/462
f 374/468 357/466 369/459
f 323/247 366/255 365/234
f 321/75 317/50 322/66
f 361/245 358/239 359/252
f 350/134 349/128 363/132
f 362/250 359/252 358/239
f 358/239 361/245 354/237
f 361/245 360/253 354/237
f 355/233 358/239 354/237
f 366/255 352/265 353/249
f 351/243 363/258 362/250
f 373/295 357/296 368/293
f 357/466 374/468 367/471
f 367/471 368/472 357/466
f 368/293 395/292 373/295
f 398/244 350/257 351/243
f 394/259 372/271 350/257
f 349/128 372/135 744/133
f 739/120 349/128 745/131
f 377/106 348/98 334/67
f 335/262 344/264 340/254
f 334/67 348/98 390/90
f 334/67 206/58 201/46
f 337/88 345/89 338/78
f 338/78 336/65 337/88
f 338/78 346/57 336/65
f 334/67 346/57 338/78
f 341/246 335/262 340/254
f 317/50 321/75 344/64
f 317/50 182/37 318/56
f 335/55 343/76 336/65
f 335/55 336/65 185/45
f 336/65 343/76 342/87
f 341/246 360/253 342/261
f 323/247 340/254 344/264
f 327/300 339/301 285/302
f 326/303 327/300 285/302
f 379/1070 329/1071 324/1072
f 328/306 327/300 326/303
f 316/269 320/282 288/277
f 323/247 322/274 316/269
f 323/247 321/270 322/274
f 318/56 322/66 317/50
f 319/897 320/898 316/899
f 318/56 319/62 316/77
f 288/900 320/898 319/897
f 319/62 309/54 288/72
f 309/54 319/62 182/37
f 319/62 318/56 182/37
f 185/45 346/57 201/46
f 182/37 185/45 184/41
f 422/440 324/443 331/441
f 325/313 331/318 324/310
f 307/933 305/934 312/931
f 313/937 312/931 305/934
f 314/940 311/938 313/937
f 331/441 332/447 311/444
f 330/936 333/932 332/935
f 332/935 333/932 312/931
f 311/938 332/935 312/931
f 330/936 307/933 333/932
f 325/452 330/449 331/441
f 315/860 314/863 303/861
f 295/63 278/74 301/86
f 309/54 183/49 295/63
f 207/71 183/49 181/61
f 308/864 297/858 303/861
f 305/315 307/312 306/305
f 304/939 313/937 305/934
f 315/860 303/861 297/858
f 300/323 283/314 293/322
f 308/321 283/314 300/323
f 297/858 308/864 300/866
f 310/859 297/858 298/862
f 310/701 434/699 311/705
f 315/860 310/859 314/863
f 310/701 311/705 314/709
f 311/938 312/931 313/937
f 314/940 313/937 304/939
f 292/289 289/287 275/281
f 288/72 309/54 296/84
f 276/275 316/269 288/277
f 309/54 295/63 302/73
f 292/85 302/73 295/63
f 302/73 296/84 309/54
f 302/73 292/85 296/84
f 275/281 296/286 292/289
f 283/314 285/302 287/311
f 295/63 301/86 294/96
f 291/95 295/63 294/96
f 282/291 286/288 289/287
f 281/707 280/691 293/710
f 282/319 293/322 283/314
f 696/110 291/95 702/117
f 280/867 299/865 293/868
f 291/95 294/96 301/86
f 299/865 300/866 293/868
f 299/865 298/862 297/858
f 277/280 286/288 284/285
f 698/711 290/714 703/716
f 286/288 282/291 287/290
f 287/311 285/302 284/307
f 382/304 284/307 285/302
f 280/691 281/707 699/703
f 289/102 281/118 282/124
f 287/290 284/285 286/288
f 277/280 284/285 375/273
f 275/281 289/287 277/280
f 207/71 278/74 183/49
f 275/281 277/280 276/275
f 301/86 278/74 682/97
f 317/50 344/64 335/55
f 420/686 298/687 419/684
f 406/458 383/463 424/461
f 306/305 330/308 326/303
f 355/233 354/237 365/234
f 364/241 341/246 340/254
f 341/246 343/268 335/262
f 328/1053 379/1055 381/1056
f 295/63 183/49 278/74
f 434/699 433/694 432/698
f 281/324 293/322 282/319
f 298/862 299/865 280/867
f 279/695 280/691 705/700
f 419/684 414/688 416/685
f 410/450 411/454 426/448
f 394/259 399/251 734/267
f 381/445 379/446 422/440
f 418/704 279/695 707/706
f 420/442 426/448 381/445
f 276/275 288/277 275/281
f 411/454 421/455 427/451
f 357/466 370/464 369/459
f 420/442 410/450 426/448
f 695/708 418/704 710/712
f 700/203 401/211 709/219
f 355/233 393/235 391/236
f 398/244 392/240 399/251
f 348/98 377/106 337/88
f 334/1039 345/1037 377/1036
f 336/65 342/87 337/88
f 185/45 182/37 317/50
f 352/265 371/266 353/249
f 339/301 382/304 285/302
f 325/313 324/310 326/303
f 352/265 366/255 376/263
f 366/255 323/247 376/263
f 375/273 371/266 352/265
f 365/234 364/241 323/247
f 343/268 341/246 342/261
f 338/78 345/89 334/67
f 335/55 185/45 317/50
f 316/269 376/263 323/247
f 316/77 322/66 318/56
f 376/263 316/269 276/275
f 304/309 306/305 285/302
f 328/306 326/303 324/310
f 330/308 325/313 326/303
f 182/37 183/49 309/54
f 306/305 307/312 330/308
f 331/441 330/449 332/447
f 304/309 303/317 314/320
f 304/309 305/315 306/305
f 288/277 296/286 275/281
f 283/314 304/309 285/302
f 292/85 291/95 289/102
f 287/311 282/319 283/314
f 289/287 286/288 277/280
f 443/174 500/182 486/180
f 476/841 487/842 477/843
f 492/163 445/179 444/171
f 464/916 474/917 473/918
f 405/146 407/156 482/162
f 591/921 453/922 592/923
f 498/924 448/926 453/922
f 431/887 500/888 491/889
f 448/154 454/160 451/168
f 467/874 466/875 442/876
f 595/988 449/989 596/990
f 488/178 482/162 485/189
f 479/170 470/199 597/198
f 465/213 480/222 599/229
f 477/843 487/842 603/846
f 491/158 500/182 443/174
f 405/869 484/870 478/871
f 443/174 445/179 497/166
f 491/158 493/153 430/143
f 495/941 498/942 748/943
f 469/167 454/160 499/148
f 592/923 454/925 606/927
f 451/956 454/957 751/958
f 499/148 494/159 469/167
f 429/140 499/148 448/154
f 457/157 455/172 492/163
f 492/163 455/172 608/181
f 497/166 493/153 490/165
f 429/930 448/926 447/928
f 486/891 500/888 431/887
f 430/143 493/153 499/148
f 429/984 495/985 496/982
f 430/890 431/887 491/889
f 491/158 490/165 493/153
f 498/924 495/929 447/928
f 447/928 495/929 429/930
f 497/166 446/183 469/167
f 446/1000 497/1001 492/1002
f 497/166 490/165 443/174
f 497/166 469/167 494/159
f 732/983 495/985 754/986
f 494/159 493/153 497/166
f 452/953 451/947 611/951
f 448/1073 451/1074 453/1075
f 493/153 494/159 499/148
f 447/928 448/926 498/924
f 443/174 486/180 444/171
f 445/1004 492/1002 497/1001
f 431/887 408/892 486/891
f 408/139 457/157 492/163
f 485/189 481/216 475/207
f 478/844 484/848 476/841
f 458/173 459/191 455/172
f 603/846 483/845 618/853
f 485/189 475/207 489/190
f 488/178 485/189 489/190
f 619/197 405/146 620/187
f 476/841 483/845 487/842
f 405/852 483/845 484/848
f 405/146 479/170 615/177
f 458/847 460/850 478/844
f 478/844 477/843 458/847
f 489/190 470/199 479/170
f 478/844 476/841 477/843
f 483/845 476/841 484/848
f 407/836 485/837 482/838
f 475/207 481/216 472/217
f 475/207 472/217 470/199
f 473/918 474/917 468/919
f 442/876 441/878 473/881
f 471/225 470/199 472/217
f 470/199 489/190 475/207
f 481/839 407/836 402/840
f 468/919 474/917 464/916
f 441/878 464/883 473/881
f 485/837 407/836 481/839
f 402/169 472/217 481/216
f 623/230 471/225 624/224
f 402/169 471/225 472/217
f 441/878 466/875 480/880
f 462/196 441/215 480/222
f 480/222 465/213 462/196
f 442/876 449/877 467/874
f 624/224 402/169 626/214
f 593/220 400/195 627/226
f 596/990 456/992 621/994
f 450/879 473/881 468/886
f 599/998 466/993 628/996
f 463/205 462/196 465/213
f 463/205 465/213 625/221
f 461/152 408/139 405/146
f 457/157 458/173 455/172
f 457/157 461/152 460/164
f 457/157 460/164 458/173
f 402/169 415/186 462/196
f 626/214 463/205 632/223
f 466/993 467/991 595/988
f 622/995 449/989 633/997
f 462/196 415/186 464/206
f 415/920 468/919 464/916
f 454/160 469/167 590/175
f 468/204 400/195 450/212
f 415/186 400/195 468/204
f 608/181 459/191 617/201
f 408/139 461/152 457/157
f 751/958 452/959 755/960
f 454/1077 453/1075 452/1076
f 451/1074 452/1076 453/1075
f 444/171 408/139 492/163
f 451/947 498/942 591/949
f 479/170 488/178 489/190
f 464/206 441/215 462/196
f 442/876 473/881 450/879
f 605/1063 452/1064 613/1065
f 449/877 442/876 450/879
f 482/162 488/178 479/170
f 444/171 486/180 408/139
f 454/160 448/154 499/148
f 607/193 446/183 634/202
f 635/1003 492/1002 636/1005
f 753/946 451/947 756/948
f 478/871 460/872 405/869
f 490/165 491/158 443/174
f 445/179 443/174 444/171
f 459/851 477/843 604/849
f 459/851 458/847 477/843
f 405/146 482/162 479/170
f 460/872 461/873 405/869
f 462/196 463/205 402/169
f 466/875 441/878 442/876
f 449/877 450/879 594/882
f 524/325 98/328 120/326
f 525/327 120/326 266/329
f 526/1087 266/1088 529/1089
f 527/1057 265/1058 528/1059
f 528/1059 265/1058 575/1060
f 529/1089 266/1088 530/1090
f 530/337 266/329 522/333
f 531/739 268/736 66/741
f 532/733 268/736 531/739
f 533/649 219/641 534/654
f 534/654 219/641 725/651
f 535/653 218/642 533/649
f 536/644 203/637 218/642
f 537/650 218/642 535/653
f 538/647 174/636 536/644
f 539/655 220/648 538/647
f 540/16 158/11 205/6
f 541/26 221/20 540/16
f 542/657 220/648 539/655
f 543/18 205/6 544/13
f 544/13 205/6 551/8
f 545/774 158/777 221/779
f 546/780 221/779 582/781
f 547/766 204/763 142/762
f 548/770 142/762 545/774
f 549/652 220/648 542/657
f 550/656 140/645 549/652
f 551/8 205/6 196/4
f 552/767 204/763 547/766
f 553/12 196/4 161/17
f 554/27 161/17 550/31
f 555/778 152/772 556/776
f 556/776 152/772 160/764
f 557/775 160/764 558/771
f 558/771 160/764 552/767
f 559/666 66/663 71/662
f 560/669 71/662 36/668
f 561/330 98/328 524/325
f 562/674 246/675 564/677
f 563/673 36/668 562/674
f 564/677 246/675 585/679
f 565/1061 265/1058 566/1062
f 566/1084 265/1085 527/1086
f 567/356 440/351 588/363
f 568/354 522/333 567/356
f 569/395 152/394 555/410
f 570/386 154/377 569/395
f 571/344 522/333 574/349
f 572/370 154/377 570/386
f 573/362 118/350 572/370
f 574/349 522/333 568/354
f 575/1060 265/1058 565/1061
f 576/1022 248/1025 251/1023
f 577/1026 248/1025 576/1022
f 578/735 251/726 580/732
f 579/729 65/722 532/733
f 580/732 251/726 579/729
f 581/670 66/663 559/666
f 582/781 221/779 541/782
f 583/339 267/334 561/330
f 584/21 161/17 554/27
f 585/679 246/675 587/682
f 586/683 246/675 583/681
f 587/682 246/675 586/683
f 588/363 440/351 573/362
f 589/185 469/167 607/193
f 590/175 469/167 589/185
f 591/921 498/924 453/922
f 592/923 453/922 454/925
f 593/220 450/212 400/195
f 594/882 450/879 593/885
f 595/988 467/991 449/989
f 596/990 449/989 456/992
f 597/1040 470/1041 623/1042
f 598/188 479/170 597/198
f 599/998 480/999 466/993
f 600/228 465/213 599/229
f 601/200 492/163 609/192
f 602/208 492/163 601/200
f 603/846 487/842 483/845
f 604/849 477/843 603/846
f 755/1066 605/1063 759/1068
f 606/194 454/160 610/184
f 607/193 469/167 446/183
f 608/181 455/172 459/191
f 609/192 492/163 608/181
f 610/184 454/160 590/175
f 611/951 451/947 591/949
f 612/954 452/953 611/951
f 613/1065 452/1064 614/1067
f 614/955 452/953 612/954
f 615/177 479/170 598/188
f 616/857 459/851 631/856
f 617/201 459/191 616/209
f 618/853 483/845 619/854
f 619/854 483/845 405/852
f 620/187 405/146 615/177
f 621/1081 456/1082 622/1083
f 622/995 456/992 449/989
f 623/230 470/199 471/225
f 624/224 471/225 402/169
f 625/221 465/213 600/228
f 626/214 402/169 463/205
f 627/226 400/195 711/218
f 628/996 466/993 595/988
f 629/227 463/205 625/221
f 630/855 459/851 604/849
f 631/856 459/851 630/855
f 632/223 463/205 629/227
f 633/884 449/877 594/882
f 634/1006 446/1000 635/1003
f 635/1003 446/1000 492/1002
f 636/1005 492/1002 602/1007
f 637/912 258/913 257/906
f 638/914 258/913 637/912
f 639/979 254/978 640/975
f 640/975 254/978 439/976
f 641/582 234/586 20/568
f 642/514 238/508 641/515
f 643/517 230/512 642/514
f 644/519 230/512 643/517
f 645/903 240/902 274/905
f 646/904 241/901 645/903
f 647/483 271/475 222/478
f 648/488 222/478 681/491
f 649/479 271/475 647/483
f 650/484 122/476 649/479
f 651/965 439/962 517/961
f 652/968 517/961 518/967
f 653/970 518/967 258/964
f 654/972 518/967 653/970
f 655/915 258/913 638/914
f 656/973 518/967 657/974
f 657/974 518/967 654/972
f 658/910 257/906 664/908
f 659/911 257/906 658/910
f 660/1028 248/1025 577/1026
f 661/1033 249/1027 660/1028
f 662/1029 249/1027 714/1032
f 663/737 251/726 716/740
f 664/908 257/906 646/904
f 665/730 250/719 251/726
f 666/734 251/726 663/737
f 667/907 274/905 688/909
f 668/509 231/505 230/512
f 669/516 230/512 672/518
f 670/507 253/504 671/511
f 671/511 253/504 668/509
f 672/518 230/512 644/519
f 673/969 439/962 651/965
f 674/588 74/574 254/587
f 675/590 254/587 639/591
f 676/585 74/574 674/588
f 677/510 504/497 670/507
f 678/1078 504/1079 677/1080
f 679/498 224/492 678/500
f 680/487 223/482 224/492
f 681/491 222/478 680/487
f 682/97 278/74 683/104
f 683/104 278/74 122/101
f 684/577 20/568 74/574
f 685/581 74/574 676/585
f 686/727 250/719 665/730
f 687/116 122/101 650/122
f 688/731 274/723 686/727
f 689/494 224/492 679/498
f 690/129 281/118 697/123
f 691/1020 290/1017 690/1019
f 692/111 291/95 301/86
f 693/112 301/86 708/103
f 694/713 401/697 695/708
f 695/708 401/697 418/704
f 696/110 289/102 291/95
f 697/123 281/118 696/110
f 698/711 281/707 290/714
f 699/703 281/707 698/711
f 700/203 403/176 401/211
f 701/210 400/195 700/203
f 702/117 291/95 692/111
f 703/716 290/714 704/717
f 704/1021 290/1017 691/1020
f 705/700 280/691 699/703
f 706/702 279/695 705/700
f 707/706 279/695 706/702
f 708/103 301/86 682/97
f 709/715 401/697 694/713
f 710/712 418/704 707/706
f 711/218 400/195 701/210
f 712/1030 577/1026 713/1034
f 714/1032 249/1027 661/1033
f 715/1031 251/1023 662/1029
f 716/740 251/726 717/742
f 717/1035 251/1023 715/1031
f 718/231 627/226 711/218
f 719/232 627/226 718/231
f 720/639 214/635 721/631
f 721/631 214/635 213/625
f 722/81 209/59 210/92
f 723/100 210/92 736/109
f 724/646 219/641 720/639
f 725/651 219/641 724/646
f 726/628 213/625 216/627
f 727/70 211/60 729/83
f 728/82 216/52 727/70
f 729/83 211/60 722/81
f 730/144 429/140 731/150
f 731/981 429/984 496/982
f 732/983 496/982 495/985
f 733/149 425/137 730/144
f 734/155 399/145 733/149
f 735/108 210/92 388/91
f 736/109 210/92 735/108
f 737/276 394/259 747/272
f 738/279 372/271 737/276
f 739/120 347/114 349/128
f 740/127 389/107 739/120
f 741/115 388/91 389/107
f 742/130 389/107 740/127
f 743/1046 389/1047 742/1048
f 744/133 372/135 746/136
f 745/131 349/128 744/133
f 746/284 372/271 738/279
f 747/272 394/259 734/267
f 748/943 498/942 749/945
f 749/945 498/942 753/946
f 750/944 495/941 748/943
f 751/958 454/957 452/959
f 752/950 451/947 751/952
f 753/946 498/942 451/947
f 754/986 495/985 750/987
f 755/1066 452/1064 605/1063
f 756/948 451/947 752/950
f 757/658 534/654 725/651
f 758/659 534/654 757/658
f 759/1068 605/1063 760/1069
usemtl Tile_+038_+020_L19_000022_untextured
