mtllib Tile_+038_+020_L19_000024.mtl
v 7.77350091e+03 4.86070275e+03 4.14402642e+01
v 7.77412657e+03 4.86004512e+03 4.08634280e+01
v 7.77753519e+03 4.84897202e+03 5.37390763e+01
v 7.77727419e+03 4.85023912e+03 5.33179157e+01
v 7.77769106e+03 4.85009118e+03 5.16023558e+01
v 7.77775140e+03 4.84803503e+03 5.30283425e+01
v 7.77494058e+03 4.84819582e+03 5.95075272e+01
v 7.77472175e+03 4.84992620e+03 6.00509128e+01
v 7.77483198e+03 4.84825528e+03 5.81923836e+01
v 7.77465160e+03 4.84974410e+03 6.13695839e+01
v 7.77534002e+03 4.84859560e+03 6.04196215e+01
v 7.77545636e+03 4.84874527e+03 5.76040508e+01
v 7.77462384e+03 4.84835380e+03 6.22089067e+01
v 7.77443516e+03 4.84714492e+03 5.76278894e+01
v 7.77469424e+03 4.84940312e+03 5.84174079e+01
v 7.77366829e+03 4.85001849e+03 5.84428481e+01
v 7.77444474e+03 4.85043792e+03 5.65351597e+01
v 7.77542627e+03 4.84883634e+03 5.68732113e+01
v 7.77538977e+03 4.85093292e+03 5.44411542e+01
v 7.77662973e+03 4.84402812e+03 4.67834235e+01
v 7.77861560e+03 4.84439972e+03 4.73156918e+01
v 7.77730324e+03 4.84464599e+03 4.87787928e+01
v 7.77837329e+03 4.84458872e+03 4.49911594e+01
v 7.77662022e+03 4.84416342e+03 4.18416843e+01
v 7.77833749e+03 4.84469933e+03 4.22357699e+01
v 7.77769177e+03 4.84403354e+03 4.09140253e+01
v 7.77712103e+03 4.84691491e+03 5.37031107e+01
v 7.77640214e+03 4.84796010e+03 5.44420392e+01
v 7.77508962e+03 4.84756882e+03 5.65949578e+01
v 7.77447953e+03 4.84727239e+03 6.07258152e+01
v 7.77674955e+03 4.84617929e+03 5.30954332e+01
v 7.77522784e+03 4.84514458e+03 5.35775703e+01
v 7.77537656e+03 4.84641186e+03 5.43212296e+01
v 7.77375307e+03 4.84494917e+03 5.36311810e+01
v 7.77503107e+03 4.84471690e+03 5.15876505e+01
v 7.77687706e+03 4.84587620e+03 5.14726805e+01
v 7.77684917e+03 4.84426354e+03 4.52081717e+01
v 7.77604083e+03 4.84430721e+03 4.93178742e+01
v 7.77472280e+03 4.85005657e+03 5.75497192e+01
v 7.77665154e+03 4.85095910e+03 5.37465296e+01
v 7.77673822e+03 4.84900380e+03 5.40420236e+01
v 7.77400501e+03 4.85151373e+03 5.44027601e+01
v 7.77432579e+03 4.84751224e+03 5.99142882e+01
v 7.77780358e+03 4.84791749e+03 5.17376240e+01
v 7.77812445e+03 4.84396240e+03 3.99434899e+01
v 7.76126906e+03 4.84451938e+03 3.62743220e+01
v 7.76382199e+03 4.84700590e+03 3.84521594e+01
v 7.76198823e+03 4.84908895e+03 3.86440826e+01
v 7.76253109e+03 4.84879868e+03 3.88796311e+01
v 7.76348427e+03 4.84837660e+03 4.05681603e+01
v 7.76356594e+03 4.84683790e+03 4.03323787e+01
v 7.76296627e+03 4.84830683e+03 4.17607880e+01
v 7.76287238e+03 4.84887956e+03 4.08152157e+01
v 7.76349351e+03 4.84881952e+03 3.87861241e+01
v 7.76212326e+03 4.85013189e+03 3.86203397e+01
v 7.76709352e+03 4.84931065e+03 3.99233277e+01
v 7.76668335e+03 4.84827990e+03 3.95308390e+01
v 7.76787400e+03 4.84843416e+03 4.13421871e+01
v 7.76715853e+03 4.84670382e+03 4.07710448e+01
v 7.76749254e+03 4.84609063e+03 3.99796188e+01
v 7.76763281e+03 4.84461740e+03 3.90299532e+01
v 7.76846102e+03 4.84534656e+03 4.08765855e+01
v 7.76769372e+03 4.84674617e+03 4.18480582e+01
v 7.76677968e+03 4.85139032e+03 3.84791647e+01
v 7.77123514e+03 4.84386232e+03 4.19144799e+01
v 7.76927406e+03 4.84361019e+03 4.08433585e+01
v 7.76914276e+03 4.84381018e+03 3.98657166e+01
v 7.77016038e+03 4.84360031e+03 4.08405712e+01
v 7.76368708e+03 4.84788395e+03 3.96872589e+01
v 7.76229645e+03 4.84682853e+03 4.08333048e+01
v 7.76137650e+03 4.84664599e+03 4.01607017e+01
v 7.76427976e+03 4.84801837e+03 3.91837892e+01
v 7.76711214e+03 4.84991587e+03 4.11153748e+01
v 7.76348086e+03 4.84990589e+03 3.76386440e+01
v 7.76243295e+03 4.84728587e+03 3.97914526e+01
v 7.76108426e+03 4.84987551e+03 3.70766378e+01
v 7.76117433e+03 4.84641151e+03 3.77911169e+01
v 7.76158221e+03 4.84694279e+03 3.84348837e+01
v 7.76138008e+03 4.84792701e+03 3.80965762e+01
v 7.76136929e+03 4.84856262e+03 3.84486244e+01
v 7.76170745e+03 4.84766638e+03 3.68927873e+01
v 7.76137914e+03 4.84891916e+03 3.95321274e+01
v 7.76131097e+03 4.84839369e+03 4.07873822e+01
v 7.76173229e+03 4.84888236e+03 4.06261974e+01
v 7.76806297e+03 4.84818094e+03 4.28018944e+01
v 7.76811019e+03 4.84623962e+03 4.51524288e+01
v 7.76901262e+03 4.84582159e+03 4.18093179e+01
v 7.76768433e+03 4.84869954e+03 4.56371442e+01
v 7.76895582e+03 4.84579713e+03 4.64496988e+01
v 7.76906784e+03 4.84576309e+03 4.38837760e+01
v 7.76762173e+03 4.84707297e+03 4.46507048e+01
v 7.76763307e+03 4.84986081e+03 4.50166828e+01
v 7.76780616e+03 4.85015379e+03 4.25282602e+01
v 7.76957726e+03 4.84417951e+03 4.21700686e+01
v 7.76228363e+03 4.84720452e+03 4.19389934e+01
v 7.76301638e+03 4.84751392e+03 4.18451035e+01
v 7.76227412e+03 4.84717857e+03 4.24813206e+01
v 7.76234642e+03 4.84785624e+03 4.40633017e+01
v 7.76193105e+03 4.84820093e+03 4.32963008e+01
v 7.76173406e+03 4.84784249e+03 4.19313218e+01
v 7.76285895e+03 4.84840582e+03 4.25565299e+01
v 7.76233379e+03 4.84859387e+03 4.16267011e+01
v 7.77083877e+03 4.84394754e+03 4.54846968e+01
v 7.76961655e+03 4.84405616e+03 4.51620515e+01
v 7.77109322e+03 4.84397702e+03 4.66271378e+01
v 7.76981436e+03 4.84369572e+03 4.61713607e+01
v 7.76915259e+03 4.84474520e+03 4.50739981e+01
v 7.76910473e+03 4.84393767e+03 4.72340935e+01
v 7.76748408e+03 4.84657087e+03 4.70547650e+01
v 7.76323215e+03 4.84764573e+03 4.26547874e+01
v 7.76723048e+03 4.84992584e+03 4.71567052e+01
v 7.76797453e+03 4.85149547e+03 4.83997534e+01
v 7.76731950e+03 4.84821861e+03 4.83278862e+01
v 7.76951031e+03 4.84952146e+03 5.18301987e+01
v 7.76882916e+03 4.84819300e+03 4.95603755e+01
v 7.76811198e+03 4.84973653e+03 4.86081272e+01
v 7.76833609e+03 4.84687884e+03 4.85913945e+01
v 7.76843614e+03 4.84501534e+03 4.82953073e+01
v 7.76959127e+03 4.84595318e+03 4.94352513e+01
v 7.76975654e+03 4.84734164e+03 5.20564148e+01
v 7.77345962e+03 4.84890989e+03 6.30320995e+01
v 7.77379819e+03 4.84874020e+03 6.44016698e+01
v 7.77219674e+03 4.84821963e+03 6.07221076e+01
v 7.77242926e+03 4.84839783e+03 5.97994634e+01
v 7.77264073e+03 4.84988024e+03 6.05365176e+01
v 7.77258048e+03 4.84939424e+03 5.92496361e+01
v 7.77202488e+03 4.84931927e+03 5.75779891e+01
v 7.77194436e+03 4.84873654e+03 5.67908016e+01
v 7.77280609e+03 4.84720777e+03 5.75942272e+01
v 7.77255303e+03 4.84808276e+03 5.83595364e+01
v 7.77377795e+03 4.84755488e+03 5.81742844e+01
v 7.77203165e+03 4.84835252e+03 5.79396208e+01
v 7.77246124e+03 4.84742458e+03 5.67890545e+01
v 7.77251965e+03 4.85007767e+03 5.67513926e+01
v 7.77257844e+03 4.85002775e+03 5.76453488e+01
v 7.77159586e+03 4.85085732e+03 5.41801476e+01
v 7.77012313e+03 4.85051732e+03 5.37126680e+01
v 7.77066968e+03 4.84917136e+03 5.41323678e+01
v 7.77088782e+03 4.84752449e+03 5.41185176e+01
v 7.76976251e+03 4.84753270e+03 5.31382452e+01
v 7.77174590e+03 4.84645322e+03 5.41627519e+01
v 7.77400109e+03 4.84692370e+03 5.65793491e+01
v 7.77294118e+03 4.84764303e+03 5.97859954e+01
v 7.76985769e+03 4.84447212e+03 4.85253970e+01
v 7.77201081e+03 4.84545413e+03 5.36660806e+01
v 7.77085886e+03 4.84580275e+03 5.32257084e+01
v 7.76979845e+03 4.84845613e+03 5.37442737e+01
v 7.77086738e+03 4.84427034e+03 4.91692191e+01
v 7.77056791e+03 4.85130196e+03 5.31445337e+01
v 7.77055701e+03 4.85159291e+03 5.16379355e+01
v 7.77216749e+03 4.84931404e+03 6.06455698e+01
v 7.77215624e+03 4.84367784e+03 4.91266245e+01
v 7.77288092e+03 4.84446664e+03 5.12668006e+01
v 7.77295857e+03 4.84483156e+03 5.28820680e+01
v 7.77402302e+03 4.84594283e+03 5.44358854e+01
v 7.77087058e+03 4.84560788e+03 5.17690247e+01
v 7.77236944e+03 4.84902646e+03 5.81984836e+01
v 7.77269642e+03 4.84834272e+03 6.15291643e+01
v 7.77276664e+03 4.84723583e+03 6.07782300e+01
v 7.77291671e+03 4.84883769e+03 6.28009948e+01
v 7.77266094e+03 4.85143734e+03 5.43181381e+01
v 7.77353093e+03 4.85017653e+03 6.12284205e+01
v 7.77638001e+03 4.85191741e+03 5.16853322e+01
v 7.77473021e+03 4.85387379e+03 4.92900180e+01
v 7.77714695e+03 4.85304094e+03 4.87765956e+01
v 7.77611899e+03 4.85358087e+03 4.18268408e+01
v 7.77639619e+03 4.85433020e+03 4.05193164e+01
v 7.77516318e+03 4.85436003e+03 4.22313506e+01
v 7.77616210e+03 4.85362058e+03 4.44713138e+01
v 7.77636688e+03 4.85444617e+03 4.82563279e+01
v 7.77550665e+03 4.85613142e+03 3.75877588e+01
v 7.77722804e+03 4.85534891e+03 3.85560096e+01
v 7.77340797e+03 4.85593167e+03 3.93541312e+01
v 7.77723104e+03 4.85638880e+03 3.62632375e+01
v 7.77628633e+03 4.85951565e+03 3.69141218e+01
v 7.77512742e+03 4.86053378e+03 3.75068926e+01
v 7.77435695e+03 4.85544795e+03 3.99453863e+01
v 7.77769278e+03 4.85313433e+03 4.26819808e+01
v 7.77498416e+03 4.85520242e+03 4.09597009e+01
v 7.77489339e+03 4.85486946e+03 4.53650327e+01
v 7.77430370e+03 4.85458874e+03 4.23870741e+01
v 7.77770048e+03 4.85345312e+03 4.56352360e+01
v 7.77496158e+03 4.85514554e+03 4.75147681e+01
v 7.77317808e+03 4.84841755e+03 6.27490968e+01
v 7.77422775e+03 4.84874490e+03 6.30019217e+01
v 7.77634621e+03 4.85178949e+03 5.30765819e+01
v 7.77448585e+03 4.85281500e+03 5.17055812e+01
v 7.77546208e+03 4.85222466e+03 5.35620845e+01
v 7.77880027e+03 4.85071047e+03 4.87092041e+01
v 7.77074018e+03 4.85567864e+03 3.73018553e+01
v 7.77172459e+03 4.85437571e+03 4.27433035e+01
v 7.77229734e+03 4.85527620e+03 4.00633991e+01
v 7.77027267e+03 4.85481837e+03 3.94231058e+01
v 7.77321479e+03 4.85429213e+03 4.18460989e+01
v 7.77322031e+03 4.85415378e+03 4.54598222e+01
v 7.77210674e+03 4.85890988e+03 4.02052563e+01
v 7.77268927e+03 4.85929502e+03 4.16148084e+01
v 7.77327733e+03 4.85497478e+03 4.83271230e+01
v 7.77202377e+03 4.85450670e+03 4.39594498e+01
v 7.77408368e+03 4.85903232e+03 4.03333827e+01
v 7.77387936e+03 4.86005009e+03 4.18928706e+01
v 7.77167108e+03 4.85490762e+03 4.67122370e+01
v 7.77215156e+03 4.85484028e+03 4.77215854e+01
v 7.77132170e+03 4.85480622e+03 4.13309558e+01
v 7.77196209e+03 4.85990130e+03 4.08046340e+01
v 7.77201729e+03 4.85895759e+03 3.87555412e+01
v 7.77279038e+03 4.85892355e+03 3.91461864e+01
v 7.77304825e+03 4.85919697e+03 3.96066693e+01
v 7.77406506e+03 4.85889119e+03 3.86779578e+01
v 7.77425331e+03 4.85912314e+03 3.94856057e+01
v 7.77051694e+03 4.85321684e+03 4.37393391e+01
v 7.77052668e+03 4.85325937e+03 4.19672677e+01
v 7.76974545e+03 4.85257563e+03 4.86989943e+01
v 7.77379061e+03 4.85266372e+03 5.34505707e+01
v 7.77237851e+03 4.85263954e+03 5.18620337e+01
v 7.77045528e+03 4.85368990e+03 4.57359472e+01
v 7.77184320e+03 4.85371096e+03 4.91841443e+01
v 7.76990013e+03 4.85394029e+03 4.82484013e+01
v 7.76874698e+03 4.85289903e+03 4.73468867e+01
v 7.77144720e+03 4.85207298e+03 5.35469544e+01
v 7.76905789e+03 4.85250529e+03 4.27955214e+01
v 7.76917223e+03 4.85146911e+03 4.90667732e+01
v 7.76038346e+03 4.85428333e+03 3.97083187e+01
v 7.76012171e+03 4.85465139e+03 3.91748522e+01
v 7.76733370e+03 4.85134956e+03 4.03894827e+01
v 7.76018307e+03 4.85306285e+03 3.64293164e+01
v 7.75974166e+03 4.85370752e+03 3.71574206e+01
v 7.76705596e+03 4.85361247e+03 3.81269884e+01
v 7.76069828e+03 4.85426450e+03 3.86420524e+01
v 7.76139623e+03 4.85363256e+03 3.67413103e+01
v 7.76083546e+03 4.85104645e+03 3.62959635e+01
v 7.75898421e+03 4.85564268e+03 3.62482785e+01
v 7.76195368e+03 4.85314025e+03 3.61787451e+01
v 7.75913469e+03 4.85348178e+03 3.61771134e+01
v 7.76047012e+03 4.85472009e+03 3.97100666e+01
v 7.76094907e+03 4.85526985e+03 3.72369250e+01
v 7.76855236e+03 4.85326010e+03 3.97620399e+01
v 7.76853935e+03 4.85299427e+03 4.09604348e+01
v 7.76810705e+03 4.85090757e+03 4.69565896e+01
v 7.76864408e+03 4.85125226e+03 4.15963008e+01
v 7.76822659e+03 4.85495686e+03 3.77417540e+01
v 7.76164669e+03 4.85582939e+03 3.63121533e+01
v 7.76582042e+03 4.85557932e+03 3.62493634e+01
v 7.75973621e+03 4.85511420e+03 3.76968607e+01
v 7.76191004e+03 4.85033722e+03 3.71025489e+01
v 7.77693636e+03 4.85986340e+03 3.66698388e+01
v 7.76470710e+03 4.86220641e+03 3.63425377e+01
v 7.76499802e+03 4.85978388e+03 3.63339972e+01
v 7.76619299e+03 4.86145016e+03 3.96814018e+01
v 7.76642745e+03 4.86094522e+03 3.89579951e+01
v 7.76638368e+03 4.86101826e+03 4.01225296e+01
v 7.77144212e+03 4.86050052e+03 3.78761947e+01
v 7.76754914e+03 4.86123949e+03 3.62695963e+01
v 7.76768405e+03 4.86004343e+03 3.61730429e+01
v 7.76703138e+03 4.86030944e+03 3.70494672e+01
v 7.76550992e+03 4.86029944e+03 3.74331215e+01
v 7.76590946e+03 4.86114777e+03 3.99636247e+01
v 7.76667385e+03 4.86190008e+03 3.71593537e+01
v 7.76573517e+03 4.86148742e+03 3.83396265e+01
v 7.76593288e+03 4.86087013e+03 3.91975531e+01
v 7.77242405e+03 4.86009974e+03 4.29975693e+01
v 7.77262664e+03 4.86101615e+03 4.08250742e+01
v 7.77336644e+03 4.86068981e+03 4.26854184e+01
v 7.77381060e+03 4.86086889e+03 3.84009451e+01
v 7.77286550e+03 4.86097531e+03 3.67134804e+01
v 7.77385962e+03 4.86134218e+03 3.74878727e+01
v 7.77149835e+03 4.86118477e+03 3.73686396e+01
v 7.76728788e+03 4.86258350e+03 3.63168593e+01
v 7.77207456e+03 4.86087616e+03 3.83429989e+01
v 7.77196566e+03 4.86095616e+03 4.01362504e+01
v 7.77398122e+03 4.85999839e+03 3.94492147e+01
v 7.77401019e+03 4.86118341e+03 3.98132307e+01
v 7.77284931e+03 4.85962407e+03 4.29343449e+01
v 7.77317807e+03 4.86004383e+03 4.40745823e+01
v 7.77351523e+03 4.85945311e+03 4.23373534e+01
v 7.77575575e+03 4.86125906e+03 3.62584853e+01
v 7.77681012e+03 4.86033461e+03 3.76263854e+01
v 7.77701388e+03 4.86084703e+03 3.74344203e+01
v 7.77606711e+03 4.86059876e+03 3.71227935e+01
v 7.77768180e+03 4.85344260e+03 4.77268353e+01
v 7.78088208e+03 4.86357103e+03 3.62642182e+01
v 7.78031203e+03 4.86299164e+03 3.69828244e+01
v 7.77939351e+03 4.86223098e+03 3.91699400e+01
v 7.77962307e+03 4.86199955e+03 4.02601317e+01
v 7.77992774e+03 4.86182737e+03 3.87089810e+01
v 7.77987574e+03 4.86247731e+03 3.84768136e+01
v 7.77867524e+03 4.84440678e+03 4.64650728e+01
v 7.78104858e+03 4.84393158e+03 3.68755763e+01
v 7.77836832e+03 4.85369003e+03 3.98956832e+01
v 7.77833140e+03 4.85182353e+03 4.19414996e+01
v 7.78049720e+03 4.84917977e+03 3.95766615e+01
v 7.78039557e+03 4.84803649e+03 3.96507027e+01
v 7.78026167e+03 4.84750303e+03 4.08281312e+01
v 7.77930017e+03 4.85075951e+03 4.29400812e+01
v 7.77881912e+03 4.85172514e+03 4.60864537e+01
v 7.78081508e+03 4.85242211e+03 3.67198568e+01
v 7.78031816e+03 4.84607708e+03 3.90944122e+01
v 7.77959169e+03 4.84775832e+03 4.25990392e+01
v 7.77854405e+03 4.84639373e+03 4.22440239e+01
v 7.77968277e+03 4.84720796e+03 4.52428671e+01
v 7.77852689e+03 4.84412564e+03 4.09705150e+01
v 7.77875399e+03 4.85267242e+03 4.79992537e+01
v 7.77883033e+03 4.85184525e+03 4.87332656e+01
v 7.78079379e+03 4.86112339e+03 3.65485730e+01
v 7.78115901e+03 4.86105905e+03 3.62368795e+01
v 7.77904426e+03 4.85493995e+03 3.83045545e+01
v 7.78010133e+03 4.85309775e+03 3.80211551e+01
v 7.77999706e+03 4.84916113e+03 4.83625021e+01
v 7.77974917e+03 4.85081182e+03 4.74333009e+01
v 7.78054990e+03 4.85646611e+03 3.63848554e+01
v 7.77946450e+03 4.84655735e+03 4.08696071e+01
v 7.77960969e+03 4.84657332e+03 4.01258852e+01
v 7.77984558e+03 4.86235298e+03 3.97793654e+01
v 7.77964039e+03 4.85149641e+03 4.04229532e+01
v 7.77870520e+03 4.84643979e+03 4.63086390e+01
v 7.77909663e+03 4.84895902e+03 4.17494465e+01
v 7.77922478e+03 4.84910905e+03 4.49167891e+01
v 7.78017725e+03 4.84747060e+03 4.68876449e+01
v 7.77963992e+03 4.84896743e+03 4.63841341e+01
v 7.77823362e+03 4.86290280e+03 3.61353178e+01
v 7.78001435e+03 4.84963374e+03 4.03711431e+01
v 7.78080348e+03 4.84744360e+03 3.80660585e+01
v 7.77943418e+03 4.84705450e+03 4.19143356e+01
v 7.77918184e+03 4.84524156e+03 3.99822854e+01
v 7.77877715e+03 4.84901473e+03 4.90624396e+01
v 7.77968503e+03 4.85061637e+03 4.54928605e+01
v 7.78001439e+03 4.85061166e+03 4.07847025e+01
v 7.77877248e+03 4.84505912e+03 4.09400306e+01
v 7.77982702e+03 4.84769424e+03 4.47316807e+01
v 7.77932915e+03 4.84567961e+03 4.82458426e+01
v 7.77828393e+03 4.84608192e+03 4.89270103e+01
v 7.77921839e+03 4.84757935e+03 4.85892824e+01
v 7.77883165e+03 4.86293159e+03 3.70114137e+01
v 7.77889737e+03 4.86116810e+03 3.69914238e+01
v 7.78150000e+03 4.84920716e+03 3.94332069e+01
v 7.78150000e+03 4.84793505e+03 3.83636275e+01
v 7.78150000e+03 4.85180289e+03 3.72309251e+01
v 7.78150000e+03 4.85217335e+03 3.69227976e+01
v 7.78150000e+03 4.85260022e+03 3.65659256e+01
v 7.78150000e+03 4.84769102e+03 3.81866201e+01
v 7.78150000e+03 4.84948004e+03 3.92670352e+01
v 7.77029747e+03 4.84350000e+03 4.07718986e+01
v 7.76970477e+03 4.84350000e+03 3.98647175e+01
v 7.77178493e+03 4.84350000e+03 4.88770296e+01
v 7.77084665e+03 4.84350000e+03 4.85839543e+01
v 7.77132525e+03 4.84350000e+03 4.53152553e+01
v 7.77149566e+03 4.84350000e+03 4.59881332e+01
v 7.77619721e+03 4.84350000e+03 4.59438172e+01
v 7.77620886e+03 4.84350000e+03 4.50912138e+01
v 7.77350655e+03 4.84350000e+03 4.92177410e+01
v 7.77509261e+03 4.84350000e+03 4.90356737e+01
v 7.77152541e+03 4.84350000e+03 4.29837321e+01
v 7.77163165e+03 4.84350000e+03 4.19612311e+01
v 7.77142849e+03 4.84350000e+03 4.16857897e+01
v 7.77324060e+03 4.84350000e+03 4.91437857e+01
v 7.77344028e+03 4.84350000e+03 4.92237491e+01
v 7.77222691e+03 4.84350000e+03 4.89285401e+01
v 7.77096079e+03 4.84350000e+03 4.74514232e+01
v 7.77142030e+03 4.84350000e+03 4.66828276e+01
v 7.76995255e+03 4.84350000e+03 4.77262099e+01
v 7.77052289e+03 4.84350000e+03 4.83297200e+01
v 7.76729845e+03 4.84350000e+03 3.80325405e+01
v 7.76790778e+03 4.84350000e+03 3.86412039e+01
v 7.76892576e+03 4.84350000e+03 3.95080260e+01
v 7.77142381e+03 4.84350000e+03 4.14750810e+01
v 7.77632164e+03 4.84350000e+03 4.15303981e+01
v 7.77611089e+03 4.84350000e+03 4.20594591e+01
v 7.77707835e+03 4.84350000e+03 4.09500000e+01
v 7.77713011e+03 4.84350000e+03 4.05703759e+01
v 7.77747472e+03 4.84350000e+03 3.99425513e+01
v 7.77614040e+03 4.84350000e+03 4.35088857e+01
v 7.77679271e+03 4.84350000e+03 4.84887749e+01
v 7.77577888e+03 4.84350000e+03 4.85116553e+01
v 7.77519954e+03 4.84350000e+03 4.88831638e+01
v 7.77636325e+03 4.84350000e+03 4.67443372e+01
v 7.77637580e+03 4.84350000e+03 4.70088722e+01
v 7.77688515e+03 4.84350000e+03 4.78571025e+01
v 7.77703356e+03 4.84350000e+03 4.83533834e+01
v 7.77728928e+03 4.84350000e+03 4.80974115e+01
v 7.77907170e+03 4.84350000e+03 3.90082494e+01
v 7.77982021e+03 4.84350000e+03 3.84202743e+01
v 7.78031964e+03 4.84350000e+03 3.76972537e+01
v 7.77966338e+03 4.84350000e+03 3.85982716e+01
v 7.78112999e+03 4.84350000e+03 3.67464659e+01
v 7.76088540e+03 4.85114721e+03 3.60732791e+01
v 7.76087460e+03 4.85132719e+03 3.60732777e+01
v 7.76612492e+03 4.86224410e+03 3.60733695e+01
v 7.76718151e+03 4.86247617e+03 3.60733994e+01
v 7.76611024e+03 4.86223823e+03 3.60733691e+01
v 7.76484952e+03 4.86174571e+03 3.60733347e+01
v 7.76486566e+03 4.86209770e+03 3.60733332e+01
v 7.75907289e+03 4.85556474e+03 3.60731999e+01
v 7.75917394e+03 4.85368422e+03 3.60732138e+01
v 7.75918622e+03 4.85349501e+03 3.60732153e+01
v 7.75996045e+03 4.85323980e+03 3.60732396e+01
v 7.76588735e+03 4.85215676e+03 3.60734211e+01
v 7.76532998e+03 4.85205691e+03 3.60734052e+01
v 7.76148674e+03 4.84425458e+03 3.60733369e+01
v 7.77595195e+03 4.86128812e+03 3.60736655e+01
v 7.77443395e+03 4.86115431e+03 3.60736214e+01
v 7.77708612e+03 4.86052706e+03 3.60737035e+01
v 7.77713916e+03 4.86088801e+03 3.60737029e+01
v 7.77307607e+03 4.86089484e+03 3.60735828e+01
v 7.77626024e+03 4.86113027e+03 3.60736756e+01
v 7.77249497e+03 4.86087453e+03 3.60735658e+01
v 7.77296289e+03 4.86089839e+03 3.60735795e+01
v 7.76937892e+03 4.86090685e+03 3.60734735e+01
v 7.76959587e+03 4.86110088e+03 3.60734788e+01
v 7.77149106e+03 4.86093561e+03 3.60735357e+01
v 7.76730240e+03 4.86235630e+03 3.60734037e+01
v 7.76760644e+03 4.86107046e+03 3.60734201e+01
v 7.76756438e+03 4.86103120e+03 3.60734191e+01
v 7.76752267e+03 4.86124838e+03 3.60734166e+01
v 7.76938966e+03 4.85901461e+03 3.60734848e+01
v 7.76609074e+03 4.86223888e+03 3.60733686e+01
v 7.76507571e+03 4.85984394e+03 3.60733525e+01
v 7.77720398e+03 4.85900522e+03 3.60737158e+01
v 7.77735649e+03 4.85920263e+03 3.60737192e+01
v 7.76938103e+03 4.85823299e+03 3.60734891e+01
v 7.76932221e+03 4.85603950e+03 3.60735001e+01
v 7.76881660e+03 4.85569464e+03 3.60734871e+01
v 7.76204027e+03 4.85301633e+03 3.60733024e+01
v 7.76199773e+03 4.85314564e+03 3.60733004e+01
v 7.76152379e+03 4.85574607e+03 3.60732713e+01
v 7.75934952e+03 4.85561010e+03 3.60732078e+01
v 7.76194862e+03 4.85319690e+03 3.60732986e+01
v 7.76186819e+03 4.85318371e+03 3.60732963e+01
v 7.76130934e+03 4.85142021e+03 3.60732901e+01
v 7.76229203e+03 4.85164713e+03 3.60733178e+01
v 7.76593507e+03 4.85242904e+03 3.60734209e+01
v 7.76854992e+03 4.85563502e+03 3.60734796e+01
v 7.76581303e+03 4.85466075e+03 3.60734043e+01
v 7.76582261e+03 4.85546662e+03 3.60733999e+01
v 7.76275796e+03 4.85171318e+03 3.60733312e+01
v 7.76049530e+03 4.85320172e+03 3.60732556e+01
v 7.76730275e+03 4.85564234e+03 3.60734427e+01
v 7.76114456e+03 4.85064722e+03 3.60732897e+01
v 7.76599956e+03 4.85276288e+03 3.60734209e+01
v 7.76935081e+03 4.85880778e+03 3.60734848e+01
v 7.77736196e+03 4.85716089e+03 3.60737312e+01
v 7.76133393e+03 4.84448018e+03 3.60733311e+01
v 7.76130239e+03 4.84435045e+03 3.60733309e+01
v 7.76168789e+03 4.84733195e+03 3.60733250e+01
v 7.76170227e+03 4.84802461e+03 3.60733214e+01
v 7.76132129e+03 4.84482697e+03 3.60733287e+01
v 7.76654799e+03 4.84372188e+03 3.60734896e+01
v 7.76663008e+03 4.84352275e+03 3.60734931e+01
v 7.76563443e+03 4.85987597e+03 3.60733688e+01
v 7.76767793e+03 4.86005658e+03 3.60734281e+01
v 7.76168041e+03 4.85555987e+03 3.60732770e+01
v 7.76154754e+03 4.84909981e+03 3.60733106e+01
v 7.76593447e+03 4.85555561e+03 3.60734027e+01
v 7.78075450e+03 4.86115407e+03 3.60738083e+01
v 7.78073841e+03 4.86120797e+03 3.60738075e+01
v 7.77825283e+03 4.86290257e+03 3.60737242e+01
v 7.77841284e+03 4.86291873e+03 3.60737288e+01
v 7.78060500e+03 4.85616079e+03 3.60738328e+01
v 7.78080920e+03 4.85457281e+03 3.60738481e+01
v 7.78081308e+03 4.85335705e+03 3.60738552e+01
v 7.78087276e+03 4.85386264e+03 3.60738541e+01
v 7.78093778e+03 4.85317291e+03 3.60738600e+01
v 7.78084766e+03 4.85401292e+03 3.60738524e+01
v 7.78040688e+03 4.86110771e+03 3.60737983e+01
v 7.77982459e+03 4.85649368e+03 3.60738078e+01
v 7.77750296e+03 4.85642631e+03 3.60737396e+01
v 7.78111576e+03 4.86119677e+03 3.60738187e+01
v 7.78105375e+03 4.86111384e+03 3.60738173e+01
v 7.77932309e+03 4.86084099e+03 3.60737678e+01
v 7.78101848e+03 4.86144829e+03 3.60738144e+01
v 7.78078290e+03 4.86346870e+03 3.60737957e+01
v 7.77816302e+03 4.86136458e+03 3.60737304e+01
v 7.77819073e+03 4.86076520e+03 3.60737347e+01
v 7.77818670e+03 4.86263856e+03 3.60737238e+01
v 7.77818574e+03 4.86278301e+03 3.60737229e+01
v 7.78127971e+03 4.84460266e+03 3.60739198e+01
v 7.78120128e+03 4.84372562e+03 3.60739226e+01
v 7.77823040e+03 4.86286785e+03 3.60737237e+01
v 7.78046854e+03 4.85638516e+03 3.60738275e+01
v 7.78145358e+03 4.85317227e+03 3.60738752e+01
v 7.78150000e+03 4.85317222e+03 3.60738766e+01
v 7.78129267e+03 4.84403062e+03 3.60739235e+01
v 7.78128258e+03 4.84447574e+03 3.60739206e+01
v 7.78132043e+03 4.84508437e+03 3.60739182e+01
v 7.78133017e+03 4.84519958e+03 3.60739178e+01
v 7.78150000e+03 4.84522561e+03 3.60739227e+01
v 7.76126905e+03 4.84422163e+03 3.60733307e+01
v 7.76131811e+03 4.84441512e+03 3.60733310e+01
v 7.76648093e+03 4.84395743e+03 3.60734862e+01
v 7.76658872e+03 4.84362306e+03 3.60734913e+01
v 7.76641060e+03 4.84420449e+03 3.60734827e+01
v 7.76585314e+03 4.84420397e+03 3.60734662e+01
v 7.76663020e+03 4.84350000e+03 3.60734933e+01
v 7.76568403e+03 4.84420381e+03 3.60734612e+01
v 7.76249813e+03 4.84426278e+03 3.60733667e+01
v 7.76224592e+03 4.84426745e+03 3.60733593e+01
v 7.78122808e+03 4.84353773e+03 3.60739245e+01
v 7.78123345e+03 4.84350000e+03 3.60739248e+01
vt 0.051948342 0.36896759
vt 0.0469427 0.41499537
vt 0.036494937 0.38882864
vt 0.036647283 0.36359757
vt 0.074603893 0.42072493
vt 0.038489312 0.41136527
vt 0.048236687 0.27033603
vt 0.044777509 0.44079572
vt 0.075405821 0.39529604
vt 0.038637288 0.4190883
vt 0.035842042 0.31735873
vt 0.073582694 0.3552286
vt 0.049655102 0.44525272
vt 0.095923819 0.40670431
vt 0.035505399 0.27478725
vt 0.074284434 0.27504957
vt 0.046563156 0.45447099
vt 0.095897324 0.45372939
vt 0.038058046 0.25780469
vt 0.05990357 0.23494858
vt 0.093576401 0.28746468
vt 0.061175 0.47440755
vt 0.12391374 0.42241949
vt 0.087252378 0.48384631
vt 0.070902057 0.23190868
vt 0.083122544 0.23685628
vt 0.043652441 0.46003485
vt 0.1153603 0.3750186
vt 0.11338771 0.47973961
vt 0.047205243 0.23575032
vt 0.064437263 0.20292729
vt 0.10633399 0.24222207
vt 0.068186671 0.56647897
vt 0.042562228 0.49583513
vt 0.11088198 0.27720934
vt 0.13847621 0.48059422
vt 0.047835533 0.22421265
vt 0.089888394 0.20738727
vt 0.1082561 0.21946079
vt 0.03140733 0.46731561
vt 0.12228164 0.50802565
vt 0.099609233 0.58454394
vt 0.052006137 0.20344406
vt 0.07130675 0.16547322
vt 0.12533745 0.24334878
vt 0.034397207 0.57264996
vt 0.024405284 0.48205125
vt 0.069629058 0.61760533
vt 0.078458384 0.14952219
vt 0.11190733 0.18045324
vt 0.1322591 0.21199334
vt 0.023111716 0.48724759
vt 0.10012675 0.62390286
vt 0.080354989 0.14324874
vt 0.14482127 0.21826744
vt 0.040986266 0.63349032
vt 0.0039532473 0.50295341
vt 0.08139988 0.63898236
vt 0.13132976 0.15785247
vt 0.099490285 0.093113601
vt 0.055335388 0.66457224
vt 0.0059517906 0.57519662
vt 0.083068684 0.67380583
vt 0.10894529 0.073309302
vt 0.086396709 0.11866277
vt 0.10343105 0.068661451
vt 0.15720618 0.20771968
vt 0.021236589 0.64312208
vt 0.010485197 0.62525862
vt 0.0031528331 0.50356245
vt 0.097479872 0.66814047
vt 0.11421252 0.076886952
vt 0.10772188 0.072278142
vt 0.09619689 0.085330844
vt 0.099303663 0.066823661
vt 0.14460985 0.16601431
vt 0.034336492 0.67303234
vt 0.063308194 0.74275577
vt 0.10679447 0.65375608
vt 0.079935774 0.75888377
vt 0.11547223 0.077742577
vt 0.14219317 0.15884513
vt 0.043766174 0.74424094
vt 0.097764634 0.065150142
vt 0.079386406 0.77952385
vt 0.051187433 0.77411366
vt 0.1177814 0.076843858
vt 0.097455651 0.06481415
vt 0.066979885 0.79704118
vt 0.047306478 0.79778707
vt 0.067684107 0.83466107
vt 0.053476728 0.84521437
vt 0.076459073 0.86215818
vt 0.052944757 0.86624247
vt 0.038052063 0.85149419
vt 0.06538786 0.91768646
vt 0.031893842 0.8786577
vt 0.048551064 0.94355273
vt 0.064470366 0.94678438
vt 0.059216503 0.99084377
vt 0.33937278 0.33429211
vt 0.33671615 0.24324369
vt 0.36688834 0.26940769
vt 0.36281455 0.31575334
vt 0.31867197 0.318685
vt 0.36692855 0.1979568
vt 0.36268488 0.39321029
vt 0.39259091 0.28467435
vt 0.29642478 0.35029846
vt 0.29961488 0.26793921
vt 0.3409304 0.1819573
vt 0.34243539 0.41887802
vt 0.38208222 0.32772976
vt 0.30990884 0.18133539
vt 0.33785501 0.1033783
vt 0.40260297 0.25687057
vt 0.36838537 0.4970395
vt 0.39038628 0.41793418
vt 0.39473364 0.33610588
vt 0.31180057 0.43863112
vt 0.28633127 0.28320539
vt 0.26631421 0.25577348
vt 0.37719476 0.12200952
vt 0.41886249 0.24175739
vt 0.34255525 0.48081774
vt 0.39229533 0.47874898
vt 0.32196957 0.48799223
vt 0.2903544 0.42427582
vt 0.27664521 0.27876264
vt 0.29459223 0.14364392
vt 0.31596765 0.10754102
vt 0.39548182 0.17437315
vt 0.34689295 0.098700762
vt 0.34503898 0.51847273
vt 0.38249251 0.54274875
vt 0.29151383 0.47957957
vt 0.28018159 0.15918505
vt 0.30816492 0.11276531
vt 0.30995682 0.11173564
vt 0.33416504 0.096263409
vt 0.37428045 0.11434829
vt 0.33803648 0.095370531
vt 0.31285292 0.51572663
vt 0.25717092 0.23772234
vt 0.28385141 0.14714956
vt 0.34317529 0.61823803
vt 0.30197552 0.52422094
vt 0.2544677 0.2447933
vt 0.2880801 0.13322747
vt 0.37495568 0.62404168
vt 0.27216655 0.51849598
vt 0.34231573 0.660537
vt 0.30924267 0.62175143
vt 0.2854574 0.54825938
vt 0.35730979 0.67716825
vt 0.31574434 0.67392659
vt 0.38185725 0.6812731
vt 0.34538758 0.71383989
vt 0.28635129 0.64226782
vt 0.33039993 0.6849153
vt 0.30003867 0.69471729
vt 0.28814512 0.67977053
vt 0.30998391 0.70859522
vt 0.36787438 0.71711117
vt 0.35190246 0.78572774
vt 0.32417673 0.80202991
vt 0.32291058 0.82412809
vt 0.34476417 0.81689012
vt 0.35712916 0.85041881
vt 0.33863589 0.84787393
vt 0.32560149 0.84944785
vt 0.34348357 0.89175594
vt 0.36817527 0.92000192
vt 0.32369915 0.88802999
vt 0.36035243 0.93227607
vt 0.32283166 0.90917671
vt 0.34252656 0.93257952
vt 0.33774945 0.99145055
vt 0.32908949 0.96857053
vt 0.3545115 0.99331892
vt 0.58682942 0.80126297
vt 0.57769036 0.82181454
vt 0.56436181 0.80405927
vt 0.5558185 0.71753252
vt 0.59236604 0.8351742
vt 0.56491965 0.82942921
vt 0.58479577 0.70833033
vt 0.58090323 0.84488767
vt 0.5663076 0.68396378
vt 0.60904032 0.71705222
vt 0.59458619 0.85535908
vt 0.56112874 0.86747527
vt 0.59881401 0.6872586
vt 0.55276436 0.67239612
vt 0.59026325 0.89155084
vt 0.57456297 0.87533432
vt 0.58363754 0.62711418
vt 0.61297297 0.67350805
vt 0.5669741 0.90951478
vt 0.54836148 0.63022804
vt 0.57729387 0.90739715
vt 0.61588478 0.64467275
vt 0.58538425 0.51777846
vt 0.59382504 0.91379201
vt 0.59015715 0.94278973
vt 0.60626537 0.55988377
vt 0.55521882 0.53999794
vt 0.58185291 0.9789263
vt 0.62801248 0.53079873
vt 0.6113205 0.50366157
vt 0.53632075 0.53466332
vt 0.5591414 0.50382459
vt 0.6067189 0.92733783
vt 0.58729327 0.98291737
vt 0.55925941 0.94061667
vt 0.58567601 0.46443105
vt 0.53499871 0.48179018
vt 0.5787946 0.99308777
vt 0.6357556 0.47733641
vt 0.60265553 0.43424392
vt 0.56757998 0.46864176
vt 0.5851807 0.41248977
vt 0.62759417 0.4122377
vt 0.60913223 0.36464202
vt 0.5603283 0.32968283
vt 0.58006883 0.34636801
vt 0.53980029 0.36405903
vt 0.63226503 0.33825034
vt 0.60594761 0.32121581
vt 0.58617717 0.29838961
vt 0.53421903 0.30465251
vt 0.56357324 0.27688974
vt 0.63483059 0.30109292
vt 0.59542888 0.26783383
vt 0.53011572 0.27131373
vt 0.61257559 0.25466555
vt 0.56493288 0.21649295
vt 0.53015071 0.20318484
vt 0.55647868 0.13498539
vt 0.50469762 0.12664932
vt 0.5521673 0.13473606
vt 0.51868498 0.1250056
vt 0.54685926 0.13451999
vt 0.50640053 0.12229562
vt 0.22040391 0.36058551
vt 0.20389543 0.3311668
vt 0.21362486 0.33145851
vt 0.21776821 0.36268568
vt 0.20471628 0.31923163
vt 0.22727005 0.39809585
vt 0.20752792 0.3615303
vt 0.19307426 0.29075974
vt 0.23328474 0.38410878
vt 0.20493509 0.40419835
vt 0.17974165 0.36406857
vt 0.17803228 0.30419993
vt 0.23333865 0.39068538
vt 0.20670274 0.49735624
vt 0.16074254 0.33586496
vt 0.18610552 0.27091706
vt 0.23566221 0.39956188
vt 0.19406004 0.49500638
vt 0.22183599 0.50898421
vt 0.18099248 0.39466047
vt 0.15039501 0.36100584
vt 0.17515811 0.20910805
vt 0.17821726 0.20892006
vt 0.2344491 0.43129307
vt 0.18225022 0.45933145
vt 0.20211501 0.56105578
vt 0.21280435 0.52855611
vt 0.23216406 0.50370657
vt 0.15606573 0.39541143
vt 0.12817679 0.32407224
vt 0.17667623 0.20901471
vt 0.17846081 0.20888543
vt 0.18061097 0.53923076
vt 0.22443357 0.54501188
vt 0.16622727 0.49825865
vt 0.17188312 0.20937306
vt 0.18299617 0.5948444
vt 0.2341138 0.52492887
vt 0.15176721 0.48319638
vt 0.16844824 0.20965105
vt 0.15554364 0.55719239
vt 0.20503631 0.60320449
vt 0.22799997 0.56979585
vt 0.23325317 0.54648268
vt 0.21647111 0.57693344
vt 0.18622062 0.63346124
vt 0.16200963 0.60678458
vt 0.22299401 0.59656012
vt 0.20453022 0.70751566
vt 0.22669667 0.60494655
vt 0.17333001 0.71754777
vt 0.21873181 0.62440282
vt 0.20232365 0.75321686
vt 0.23977906 0.62399697
vt 0.23742636 0.61541581
vt 0.23966992 0.69296265
vt 0.17136575 0.75158024
vt 0.23667483 0.74399543
vt 0.18432269 0.7837292
vt 0.25407243 0.62579834
vt 0.2424805 0.6176489
vt 0.21920915 0.76804876
vt 0.2055421 0.78468734
vt 0.25635594 0.62857491
vt 0.24450886 0.76865995
vt 0.20338306 0.86907661
vt 0.23701631 0.79565352
vt 0.22632457 0.86395633
vt 0.18350245 0.8704043
vt 0.20963646 0.89433968
vt 0.18859161 0.9057613
vt 0.22893424 0.89760423
vt 0.19742687 0.91918147
vt 0.21705458 0.91433561
vt 0.20655 0.96353692
vt 0.19265886 0.96438503
vt 0.19189903 0.99255097
vt 0.2088917 0.99360472
vt 0.8119328 0.85144103
vt 0.792418 0.85913062
vt 0.8248654 0.81744486
vt 0.83084732 0.84808278
vt 0.79337281 0.93398947
vt 0.78779811 0.81940061
vt 0.84241819 0.80887425
vt 0.82299423 0.93526518
vt 0.80790961 0.76654553
vt 0.8406207 0.76166129
vt 0.80716383 0.99077535
vt 0.77693909 0.76955181
vt 0.82250559 0.96236861
vt 0.80832887 0.67521
vt 0.84553283 0.66223335
vt 0.76641911 0.6894989
vt 0.83427334 0.6369313
vt 0.77963984 0.64446974
vt 0.85748827 0.61494124
vt 0.79644704 0.62290633
vt 0.75467598 0.6263057
vt 0.82805467 0.56755233
vt 0.80278224 0.59038401
vt 0.78586525 0.56723428
vt 0.85565078 0.48565245
vt 0.75744796 0.56513214
vt 0.80551022 0.47843707
vt 0.83030075 0.51329881
vt 0.8004238 0.51442266
vt 0.76761568 0.47727031
vt 0.82985848 0.46065122
vt 0.78497934 0.45928085
vt 0.85971278 0.42467576
vt 0.75389767 0.4324317
vt 0.80833036 0.43098706
vt 0.79139441 0.39349675
vt 0.85774791 0.38689673
vt 0.76112419 0.39746225
vt 0.82306176 0.36996555
vt 0.77132398 0.37135059
vt 0.85105741 0.3100754
vt 0.81070858 0.30142319
vt 0.88093239 0.24968195
vt 0.84195864 0.25596017
vt 0.83779103 0.25657731
vt 0.85954791 0.25041413
vt 0.82834935 0.25559264
vt 0.87947476 0.24521053
vt 0.88164794 0.24554628
vt 0.45515493 0.95167571
vt 0.45981398 0.88581842
vt 0.46641016 0.92089111
vt 0.46084657 0.95801014
vt 0.44046396 0.89238048
vt 0.47435331 0.87519437
vt 0.45329157 0.9924587
vt 0.44277281 0.95521212
vt 0.44375771 0.86395907
vt 0.47393274 0.8342582
vt 0.45254806 0.79626471
vt 0.4825353 0.7217564
vt 0.48581991 0.72190678
vt 0.45381084 0.71489513
vt 0.49444777 0.72439486
vt 0.52837574 0.78720427
vt 0.5280031 0.7312808
vt 0.51490664 0.88208187
vt 0.47165912 0.8565824
vt 0.10185588 0.9473905
vt 0.12647721 0.93333083
vt 0.12826985 0.99154866
vt 0.099448413 0.90030718
vt 0.1543154 0.96250963
vt 0.12999363 0.8906998
vt 0.15155186 0.90368992
vt 0.10642369 0.88316786
vt 0.097934216 0.80001861
vt 0.10818148 0.81916672
vt 0.15500399 0.82761908
vt 0.1281423 0.79461944
vt 0.1021368 0.76119077
vt 0.15046309 0.75746286
vt 0.1355152 0.74601561
vt 0.12702638 0.71933174
vt 0.69608504 0.86560833
vt 0.65077448 0.85071546
vt 0.64769083 0.84492803
vt 0.67147654 0.84533352
vt 0.6803323 0.88735098
vt 0.64298135 0.84598327
vt 0.69284475 0.84655559
vt 0.68141508 0.91822207
vt 0.66106898 0.89325106
vt 0.62941849 0.84771419
vt 0.69460928 0.84650266
vt 0.69982356 0.99126285
vt 0.64635319 0.88134098
vt 0.6314131 0.88962156
vt 0.70192987 0.84652072
vt 0.71017545 0.97034645
vt 0.71729702 0.88401884
vt 0.70851189 0.91592646
vt 0.63493091 0.89859754
vt 0.71756226 0.84586924
vt 0.71862674 0.90376067
vt 0.74704093 0.84433228
vt 0.75055468 0.8454656
vt 0.91386527 0.87960142
vt 0.91933513 0.8460061
vt 0.92901546 0.83433467
vt 0.94864231 0.8959381
vt 0.90930164 0.8489427
vt 0.90015662 0.80738801
vt 0.94342101 0.84220922
vt 0.92213559 0.91778958
vt 0.93193418 0.79514521
vt 0.95284665 0.8242594
vt 0.92922032 0.94957274
vt 0.91330802 0.91094285
vt 0.88814938 0.77728277
vt 0.91580075 0.93759549
vt 0.91051775 0.77285528
vt 0.88133603 0.77949059
vt 0.98145664 0.7747758
vt 0.92312419 0.99066567
vt 0.92646235 0.77053404
vt 0.88304001 0.78648365
vt 0.93710047 0.76972616
vt 0.87861848 0.77978808
vt 0.97658271 0.76870066
vt 0.98184508 0.76817656
vt 0.98289084 0.76818788
vt 0.98393023 0.76819915
vt 0.98600709 0.76823372
vt 0.4305959 0.59803545
vt 0.43240866 0.57542956
vt 0.44000378 0.59304273
vt 0.41837415 0.56459898
vt 0.4465293 0.58048874
vt 0.42050904 0.55947149
vt 0.3796033 0.5886448
vt 0.44144642 0.55511224
vt 0.39033511 0.57574421
vt 0.38460946 0.65633082
vt 0.44650468 0.55098116
vt 0.37876824 0.5783698
vt 0.39237696 0.74077678
vt 0.43271941 0.68869114
vt 0.43971097 0.72707474
vt 0.45154935 0.62821686
vt 0.46322319 0.67336792
vt 0.447707 0.59845567
vt 0.67887491 0.63860309
vt 0.6465354 0.74412465
vt 0.62917531 0.58430487
vt 0.6376037 0.5806672
vt 0.68164301 0.71728075
vt 0.67564261 0.56170237
vt 0.68664819 0.68543702
vt 0.6825611 0.55833739
vt 0.70009613 0.67849398
vt 0.69741684 0.60271084
vt 0.69599026 0.6436733
vt 0.69779283 0.55287075
vt 0.70547217 0.66230118
vt 0.70707095 0.5602951
vt 0.71219522 0.60256386
vt 0.70447725 0.55031514
vt 0.87992483 0.67208624
vt 0.87913316 0.59631658
vt 0.92188197 0.69481093
vt 0.88691366 0.69702911
vt 0.94753331 0.57677394
vt 0.89797276 0.58393437
vt 0.95016801 0.57647133
vt 0.89404929 0.58450121
vt 0.95885307 0.57547373
vt 0.8822068 0.5855732
vt 0.96798402 0.74170089
vt 0.87877578 0.58519125
vt 0.9302274 0.73279762
vt 0.25405863 0.86587226
vt 0.26784703 0.92404354
vt 0.25885651 0.92761117
vt 0.26829794 0.88785231
vt 0.26771095 0.9404912
vt 0.27014267 0.85881054
vt 0.28811499 0.8729102
vt 0.26839092 0.99316221
vt 0.27908808 0.92328173
vt 0.25709274 0.8149057
vt 0.26169026 0.9716922
vt 0.28236544 0.94895619
vt 0.29201898 0.81643045
vt 0.39269155 0.92632151
vt 0.37935537 0.88346159
vt 0.40115133 0.91786444
vt 0.39138925 0.94776857
vt 0.39558375 0.87873715
vt 0.40342823 0.94126397
vt 0.38825378 0.85532761
vt 0.40795988 0.88601995
vt 0.41163775 0.91574568
vt 0.40417665 0.99343675
vt 0.39986086 0.82256305
vt 0.41261095 0.97076619
vt 0.38242364 0.83554173
vt 0.42176467 0.88784105
vt 0.41128433 0.83175415
vt 0.42639747 0.85755599
vt 0.42071968 0.82603163
vt 0.87824535 0.94773984
vt 0.86804765 0.88640034
vt 0.89517355 0.88123631
vt 0.86800885 0.96276408
vt 0.876243 0.85814363
vt 0.87278879 0.99376667
vt 0.85541809 0.90317392
vt 0.86072665 0.85246903
vt 0.88980544 0.86538863
vt 0.85635805 0.85794604
vt 0.89441544 0.86734629
vt 0.84715134 0.87444013
vt 0.84824085 0.8699494
vt 0.84726894 0.87129444
vt 0.78626162 0.90833139
vt 0.78240418 0.96234488
vt 0.76431304 0.94883072
vt 0.75547767 0.90311509
vt 0.77710038 0.97216368
vt 0.76999629 0.88681304
vt 0.76658928 0.99132794
vt 0.76615012 0.87094593
vt 0.78885806 0.88297302
vt 0.75406188 0.85898304
vt 0.78607476 0.85674828
vt 0.0059772162 0.80905044
vt 0.0038199346 0.79737985
vt 0.043118585 0.79674482
vt 0.036089499 0.82292211
vt 0.010225396 0.79274416
vt 0.019510048 0.87958044
vt 0.041875318 0.79163653
vt 0.0060664732 0.79247248
vt 0.029617092 0.87196785
vt 0.027800996 0.91221249
vt 0.023109512 0.92872536
vt 0.49767065 0.64587522
vt 0.49424785 0.68076217
vt 0.49053884 0.66392052
vt 0.48997524 0.6232568
vt 0.50596493 0.57528102
vt 0.48281452 0.57444137
vt 0.47353011 0.54901874
vt 0.51531214 0.54845238
vt 0.51250327 0.54651654
vt 0.4751437 0.54378653
vt 0.51501185 0.54657191
vt 0.93622857 0.43019205
vt 0.9259342 0.45700014
vt 0.90827763 0.43100315
vt 0.91457415 0.42392039
vt 0.90864325 0.46678883
vt 0.93601841 0.42709744
vt 0.90852618 0.4230783
vt 0.8791554 0.43456161
vt 0.91226131 0.51662409
vt 0.8856892 0.42566532
vt 0.8985706 0.4971903
vt 0.90740585 0.5232771
vt 0.88212574 0.42622644
vt 0.91098487 0.55298418
vt 0.90418291 0.54755479
vt 0.60855103 0.83282477
vt 0.59851068 0.80297899
vt 0.61688608 0.79728699
vt 0.61711901 0.79731905
vt 0.60023928 0.79615057
vt 0.63904727 0.80537701
vt 0.61742306 0.79730964
vt 0.62348545 0.87126589
vt 0.63664055 0.79784095
vt 0.61637443 0.91272968
vt 0.62100095 0.92315787
vt 0.61368382 0.92895252
vt 0.32424375 0.81030548
vt 0.3109082 0.83024824
vt 0.31020534 0.78097445
vt 0.30914092 0.73617488
vt 0.31230608 0.86886191
vt 0.2967521 0.81214416
vt 0.29791886 0.76777095
vt 0.29963014 0.84389937
vt 0.28517169 0.74214858
vt 0.28645879 0.79400742
vt 0.28548753 0.76795304
vt 0.42841256 0.83297002
vt 0.44223517 0.77518404
vt 0.43688133 0.85591537
vt 0.42965946 0.86882132
vt 0.41676432 0.77165174
vt 0.42932397 0.74347413
vt 0.41060302 0.74119872
vt 0.45071429 0.74481589
vt 0.42609206 0.73763227
vt 0.44719604 0.7375536
vt 0.41082481 0.73816717
vt 0.4265568 0.73732972
vt 0.42954692 0.73761201
vt 0.44941816 0.73813218
vt 0.47692505 0.40625787
vt 0.47403818 0.36997896
vt 0.5043624 0.38690943
vt 0.49003938 0.42896485
vt 0.45530379 0.40171641
vt 0.47469825 0.36438984
vt 0.48079538 0.47375292
vt 0.46999618 0.45734483
vt 0.44369119 0.38539118
vt 0.49962541 0.37962264
vt 0.47096118 0.36484861
vt 0.44431359 0.38186198
vt 0.47726527 0.48673636
vt 0.44321239 0.38194931
vt 0.47398618 0.49071628
vt 0.44141743 0.38269895
vt 0.28704524 0.68321341
vt 0.25365785 0.69065344
vt 0.25516254 0.68694091
vt 0.28410992 0.68170297
vt 0.2858246 0.71976978
vt 0.28703007 0.68120754
vt 0.2644304 0.73940682
vt 0.27287605 0.78370726
vt 0.27942407 0.80081153
vt 0.27310044 0.803725
vt 0.70788729 0.69725084
vt 0.69125223 0.69183743
vt 0.69204915 0.68875104
vt 0.70430064 0.68738031
vt 0.70057505 0.72342527
vt 0.71267515 0.68728936
vt 0.71513933 0.77260578
vt 0.73412007 0.68754971
vt 0.71020401 0.80529618
vt 0.72645754 0.71066272
vt 0.73548186 0.69053352
vt 0.7369144 0.68655986
vt 0.047299333 0.99187088
vt 0.004437089 0.97089022
vt 0.021038115 0.96154183
vt 0.23548111 0.92413712
vt 0.23028725 0.99299431
vt 0.22457269 0.93692124
vt 0.24061514 0.95725459
vt 0.22211075 0.96345216
vt 0.23905531 0.99371523
vt 0.24247068 0.93478632
vt 0.2554484 0.97457224
vt 0.2594136 0.95574862
vt 0.29039288 0.99084377
vt 0.29278103 0.95399582
vt 0.30105832 0.94355273
vt 0.28513899 0.94678438
vt 0.018800866 0.95013869
vt 0.011531024 0.95399582
vt 0.0038890061 0.94678438
vt 0.31362167 0.96712136
vt 0.30161619 0.97693413
vt 0.30987415 0.96010458
vt 0.30411419 0.99171472
vt 0.3095369 0.95947313
vt 0.31707439 0.96750849
vt 0.32364023 0.96309841
vt 0.22480758 0.96780306
vt 0.21202201 0.99164355
vt 0.20788522 0.96410275
vt 0.0096193515 0.98166943
vt 0.0039571673 0.99072349
vt 0.0031520291 0.97564244
vt 0.0080133881 0.97630787
vt 0.0090357186 0.975815
vt 0.013448604 0.97688287
vt 0.011885671 0.99162847
vt 0.012577151 0.97684824
vt 0.015375766 0.98630333
vt 0.016384695 0.9925825
vt 0.011022053 0.98586595
vt 0.0059670387 0.98843783
vt 0.0039626351 0.99031752
vt 0.0044691302 0.98843604
vt 0.0038258627 0.98837864
usemtl Tile_+038_+020_L19_000024_0
f 342/245 67/246 343/247
f 161/323 42/324 220/325
f 175/457 246/458 277/459
f 200/548 201/549 197/550
f 178/101 289/102 167/103
f 182/112 170/117 280/125
f 250/619 258/620 249/621
f 254/581 255/582 248/583
f 258/596 268/597 387/598
f 118/281 144/286 119/290
f 234/649 232/650 392/651
f 237/359 193/361 241/363
f 261/372 205/373 197/374
f 173/362 192/358 177/360
f 197/550 275/552 273/554
f 201/549 275/552 197/550
f 179/108 168/113 166/104
f 128/181 127/182 134/183
f 154/302 145/306 146/297
f 62/255 60/259 67/246
f 344/299 148/296 345/294
f 154/302 146/297 153/300
f 137/189 114/197 147/193
f 150/200 222/207 116/203
f 125/199 151/201 158/205
f 105/278 103/263 346/272
f 116/203 111/216 113/210
f 116/203 222/207 112/212
f 96/517 51/518 52/519
f 92/222 88/220 111/216
f 37/1 20/2 348/3
f 82/430 80/431 79/432
f 71/504 95/505 100/506
f 226/659 234/660 394/661
f 237/235 228/238 64/237
f 74/475 57/476 396/477
f 76/489 55/485 245/484
f 96/512 110/515 97/508
f 87/264 62/255 94/254
f 33/61 31/48 28/63
f 129/314 14/316 131/318
f 29/78 18/80 12/85
f 185/178 13/179 10/177
f 31/48 6/53 27/58
f 40/160 19/158 41/163
f 31/48 36/33 44/42
f 122/683 121/684 184/685
f 160/687 121/688 185/689
f 262/376 205/373 261/372
f 289/102 172/106 167/103
f 265/407 276/408 399/409
f 262/608 1/609 272/610
f 266/411 264/414 176/415
f 272/610 264/611 262/608
f 269/424 270/422 265/407
f 271/614 209/616 264/611
f 278/461 246/458 401/464
f 276/408 279/419 278/420
f 276/408 278/420 402/416
f 175/697 277/698 279/699
f 278/420 279/419 277/425
f 176/415 279/419 276/408
f 265/407 266/411 276/408
f 201/615 2/613 1/609
f 271/614 264/611 272/610
f 1/609 2/613 272/610
f 263/612 201/615 1/609
f 201/674 274/675 275/676
f 209/558 210/556 208/553
f 274/675 201/674 263/677
f 274/675 273/678 275/676
f 200/617 210/618 271/614
f 252/382 206/381 270/380
f 261/372 273/375 274/378
f 274/378 263/379 261/372
f 262/376 270/380 205/373
f 270/422 262/418 265/407
f 206/557 207/555 196/551
f 237/359 238/355 212/353
f 205/373 270/380 206/381
f 407/429 267/423 408/428
f 264/414 266/411 265/407
f 261/372 263/379 262/376
f 263/612 1/609 262/608
f 265/407 267/423 269/424
f 270/422 269/424 252/427
f 267/423 252/427 269/424
f 255/623 254/625 253/624
f 268/626 258/620 253/624
f 259/603 249/605 258/596
f 253/624 258/620 255/623
f 249/621 251/622 250/619
f 258/620 250/619 255/623
f 249/605 257/606 251/607
f 260/592 257/595 259/591
f 256/585 255/582 250/589
f 250/589 260/592 256/585
f 257/595 260/592 251/594
f 259/591 256/585 260/592
f 250/589 251/594 260/592
f 236/633 242/634 232/635
f 257/606 249/605 259/603
f 259/603 258/596 247/601
f 247/601 258/596 389/599
f 247/588 256/585 259/591
f 248/583 255/582 256/585
f 229/640 236/633 224/639
f 248/583 256/585 247/588
f 248/583 247/588 390/590
f 246/458 175/457 417/460
f 236/633 230/637 242/634
f 223/657 224/656 227/653
f 232/635 242/634 424/638
f 428/486 245/484 429/482
f 49/531 82/532 84/530
f 240/225 238/231 225/232
f 190/364 241/363 193/361
f 396/239 64/237 430/241
f 241/363 190/364 421/367
f 232/650 227/653 244/655
f 427/666 226/659 435/664
f 49/483 54/481 74/475
f 243/240 228/238 237/235
f 238/231 237/235 225/232
f 229/640 230/637 236/633
f 241/363 243/365 237/359
f 212/353 204/357 193/361
f 243/365 241/363 431/366
f 230/637 233/641 242/634
f 232/635 244/636 236/633
f 224/639 236/633 244/636
f 223/647 229/640 235/645
f 224/639 235/645 229/640
f 227/663 234/660 226/659
f 229/665 223/667 227/663
f 234/649 227/653 232/650
f 226/659 230/668 229/665
f 233/669 230/668 226/659
f 76/489 245/484 231/488
f 76/435 231/449 385/445
f 429/482 74/475 434/480
f 228/238 243/240 432/242
f 430/241 228/238 438/243
f 237/235 64/237 225/232
f 227/663 226/659 229/665
f 73/230 93/226 240/225
f 225/232 73/230 240/225
f 223/657 235/658 224/656
f 112/212 222/207 219/217
f 213/337 217/336 218/339
f 112/212 239/221 111/216
f 239/221 219/217 92/222
f 219/217 239/221 112/212
f 217/336 203/342 218/339
f 74/475 55/485 49/483
f 222/207 213/211 219/217
f 238/355 221/347 212/353
f 221/227 238/231 240/225
f 221/347 219/341 216/344
f 221/347 216/344 211/350
f 136/326 161/323 220/325
f 203/342 202/345 218/339
f 216/344 202/345 191/349
f 202/345 199/351 191/349
f 193/361 237/359 212/353
f 202/345 216/344 218/339
f 191/349 204/357 212/353
f 191/349 212/353 211/350
f 191/349 199/351 194/354
f 214/328 187/334 215/331
f 114/197 115/206 120/202
f 215/331 150/332 220/325
f 217/336 213/337 150/332
f 149/329 220/325 150/332
f 220/325 149/329 136/326
f 115/206 117/209 120/202
f 125/199 160/208 162/215
f 42/324 161/323 17/327
f 16/169 39/168 17/165
f 42/164 19/158 214/157
f 220/325 214/328 215/331
f 164/338 217/336 187/334
f 214/328 220/325 42/324
f 150/332 215/331 217/336
f 217/336 215/331 187/334
f 195/346 198/340 183/343
f 169/107 182/112 178/101
f 173/362 190/364 192/358
f 194/354 192/358 191/349
f 419/386 206/381 439/384
f 173/389 206/381 190/387
f 207/390 206/381 173/389
f 271/614 210/618 209/616
f 207/555 209/558 208/553
f 207/555 208/553 196/551
f 192/358 190/364 193/361
f 193/361 204/357 192/358
f 205/373 196/377 197/374
f 179/356 177/360 194/354
f 192/358 204/357 191/349
f 202/345 203/342 195/346
f 217/336 164/338 198/340
f 217/336 198/340 203/342
f 181/352 194/354 195/346
f 181/352 179/356 194/354
f 195/346 203/342 198/340
f 183/343 180/348 195/346
f 200/548 197/550 196/551
f 271/614 2/613 200/617
f 177/360 192/358 194/354
f 2/613 201/615 200/617
f 181/119 180/118 168/113
f 180/348 181/352 195/346
f 168/113 169/107 166/104
f 179/108 167/103 172/106
f 178/101 167/103 166/104
f 179/108 172/106 177/116
f 173/469 171/466 175/457
f 175/457 279/474 176/472
f 417/460 174/463 440/465
f 174/123 171/132 172/106
f 173/124 177/116 172/106
f 171/132 173/124 172/106
f 165/134 280/125 170/117
f 164/135 165/134 170/117
f 167/103 179/108 166/104
f 178/101 166/104 169/107
f 163/146 165/134 164/135
f 165/134 163/146 189/147
f 163/146 164/135 187/150
f 188/155 186/152 187/150
f 163/146 187/150 186/152
f 4/156 5/153 186/152
f 19/158 188/155 214/157
f 162/175 160/180 185/178
f 186/152 188/155 19/158
f 5/153 163/146 186/152
f 40/160 186/152 19/158
f 19/158 18/166 41/163
f 184/214 160/208 158/205
f 159/213 184/214 158/205
f 143/95 131/90 30/94
f 185/99 184/98 13/96
f 162/175 10/177 8/172
f 30/94 13/96 184/98
f 184/98 159/97 30/94
f 125/173 8/172 16/169
f 16/192 135/186 157/188
f 157/188 126/196 16/192
f 126/196 125/199 16/192
f 130/191 124/195 157/188
f 16/333 17/327 134/330
f 134/330 17/327 161/323
f 133/310 129/314 132/315
f 160/208 125/199 158/205
f 158/205 123/204 159/213
f 159/97 143/95 30/94
f 7/91 43/92 131/90
f 131/90 43/92 30/94
f 66/251 68/248 94/254
f 30/94 43/92 11/93
f 155/311 142/312 145/306
f 142/312 14/316 129/314
f 32/56 154/69 153/62
f 142/83 155/77 33/61
f 141/307 145/306 142/312
f 142/312 133/310 141/307
f 154/69 32/56 34/68
f 133/310 142/312 129/314
f 156/293 153/300 146/297
f 153/300 152/298 355/304
f 145/306 34/309 155/311
f 34/309 145/306 154/302
f 148/296 156/293 144/286
f 127/182 132/185 157/188
f 153/300 156/293 152/298
f 156/293 148/296 152/298
f 346/272 65/250 352/268
f 144/286 118/281 108/270
f 106/271 108/270 104/258
f 106/271 105/278 108/270
f 141/307 133/310 139/303
f 138/187 139/190 128/181
f 128/313 139/303 133/310
f 134/330 161/323 136/326
f 130/191 157/188 132/185
f 127/182 135/186 134/183
f 127/182 157/188 135/186
f 134/330 135/335 16/333
f 126/196 157/188 124/195
f 128/313 133/310 132/315
f 131/318 130/317 129/314
f 130/317 132/315 129/314
f 143/319 130/317 131/318
f 159/322 123/321 143/319
f 124/195 123/204 151/201
f 123/321 124/320 143/319
f 151/201 123/204 158/205
f 151/201 126/196 124/195
f 149/194 137/189 136/184
f 151/201 125/199 126/196
f 138/187 136/184 137/189
f 114/197 150/200 116/203
f 150/200 114/197 149/194
f 114/197 137/189 149/194
f 147/193 140/198 139/190
f 138/187 147/193 139/190
f 145/306 141/307 146/297
f 140/301 120/295 146/297
f 139/303 140/301 146/297
f 141/307 139/303 146/297
f 156/293 120/295 119/290
f 146/297 120/295 156/293
f 119/290 144/286 156/293
f 144/286 108/270 360/289
f 345/294 144/286 361/292
f 117/291 119/290 120/295
f 89/277 118/281 109/285
f 119/290 117/291 118/281
f 52/519 101/522 110/520
f 109/285 118/281 117/291
f 117/209 113/210 109/219
f 114/197 140/198 147/193
f 120/202 140/198 114/197
f 116/203 115/206 114/197
f 111/216 88/220 113/210
f 112/212 111/216 116/203
f 89/277 109/285 86/279
f 113/210 117/209 115/206
f 115/206 116/203 113/210
f 100/506 97/508 98/511
f 98/511 97/508 110/515
f 51/518 50/521 52/519
f 58/229 85/224 93/226
f 84/441 83/437 102/443
f 58/229 93/226 73/230
f 83/437 100/440 102/443
f 52/519 102/525 101/522
f 100/440 99/447 102/443
f 97/508 95/505 96/512
f 58/229 59/233 63/228
f 98/511 99/514 100/506
f 98/526 110/520 101/522
f 110/520 96/517 52/519
f 95/505 70/507 51/510
f 100/440 83/437 71/433
f 71/504 70/507 95/505
f 51/510 96/512 95/505
f 94/254 107/262 90/269
f 60/259 61/256 67/246
f 91/283 86/279 109/285
f 74/475 54/481 72/479
f 88/220 91/223 109/219
f 90/269 87/264 94/254
f 106/271 104/258 103/263
f 105/278 106/271 103/263
f 108/270 105/278 358/287
f 104/258 65/250 103/263
f 94/254 65/250 104/258
f 68/248 65/250 94/254
f 92/222 93/226 85/224
f 63/228 91/223 85/224
f 90/269 107/262 89/277
f 90/269 89/277 86/279
f 88/220 92/222 85/224
f 63/273 87/264 86/279
f 63/228 85/224 58/229
f 84/530 53/524 54/527
f 49/531 48/533 82/532
f 76/489 48/487 55/485
f 78/436 71/433 79/432
f 74/475 245/484 55/485
f 80/431 82/430 48/434
f 75/509 78/513 47/516
f 51/518 69/523 50/521
f 77/491 46/492 47/493
f 71/433 82/430 79/432
f 46/446 81/438 443/450
f 84/441 82/430 83/437
f 79/432 80/431 76/435
f 80/431 48/434 76/435
f 78/494 77/491 47/493
f 59/233 58/229 57/236
f 47/516 51/510 75/509
f 225/232 64/237 56/234
f 66/251 94/254 62/255
f 63/273 59/265 62/255
f 73/230 225/232 56/234
f 56/234 57/236 58/229
f 59/265 60/259 62/255
f 57/274 60/259 59/265
f 73/230 56/234 58/229
f 64/237 57/236 56/234
f 53/524 52/519 50/521
f 102/525 52/519 53/524
f 57/476 74/475 72/479
f 55/485 48/487 49/483
f 54/527 69/523 72/529
f 57/501 72/503 47/493
f 75/509 71/504 78/513
f 75/509 51/510 70/507
f 69/523 54/527 50/521
f 51/679 47/680 69/681
f 47/680 72/682 69/681
f 61/256 60/259 446/266
f 67/246 61/256 363/252
f 68/248 66/251 67/246
f 67/246 66/251 62/255
f 65/250 68/248 342/245
f 26/20 24/7 366/19
f 45/31 26/20 369/37
f 38/34 35/46 351/52
f 131/90 14/86 9/89
f 28/63 29/78 33/61
f 33/61 155/77 34/68
f 29/78 142/83 33/61
f 12/85 14/86 29/78
f 31/48 27/58 28/63
f 32/56 31/48 33/61
f 32/56 33/61 34/68
f 153/62 35/46 32/56
f 9/89 7/91 131/90
f 35/46 38/34 36/33
f 38/34 22/22 36/33
f 36/33 31/48 35/46
f 31/48 32/56 35/46
f 14/86 142/83 29/78
f 7/91 11/93 43/92
f 18/80 29/78 28/63
f 18/80 28/63 41/71
f 17/165 19/158 42/164
f 41/163 4/156 40/160
f 39/168 15/170 12/167
f 18/166 19/158 17/165
f 12/167 18/166 17/165
f 39/168 16/169 15/170
f 8/172 15/170 16/169
f 11/176 7/174 8/172
f 12/85 9/89 14/86
f 13/96 30/94 11/93
f 13/179 11/176 10/177
f 8/172 10/177 11/176
f 7/174 9/171 8/172
f 12/167 15/170 9/171
f 4/156 3/161 5/153
f 41/163 3/161 4/156
f 3/161 6/162 5/153
f 41/71 28/63 6/53
f 6/53 3/79 41/71
f 28/63 27/58 6/53
f 332/29 44/42 36/33
f 6/53 31/48 44/42
f 24/7 26/20 25/16
f 23/12 37/1 24/7
f 21/5 22/22 378/17
f 22/22 38/34 372/27
f 20/2 37/1 21/5
f 377/8 21/5 379/13
f 273/375 261/372 197/374
f 130/317 143/319 124/320
f 184/98 185/99 122/100
f 134/183 136/184 128/181
f 276/408 266/411 176/415
f 199/351 195/346 194/354
f 278/461 277/459 246/458
f 160/208 184/214 121/218
f 254/581 248/583 448/584
f 242/634 233/641 426/644
f 206/381 252/382 414/383
f 222/207 150/200 213/211
f 191/349 211/350 216/344
f 216/344 219/341 218/339
f 164/338 183/343 198/340
f 272/610 2/613 271/614
f 350/57 153/62 356/70
f 125/173 162/175 8/172
f 109/219 113/210 88/220
f 240/225 93/226 92/222
f 111/216 239/221 92/222
f 81/438 79/432 76/435
f 81/438 76/435 437/442
f 75/509 70/507 71/504
f 221/227 240/225 219/217
f 182/112 169/107 170/117
f 267/423 265/407 405/421
f 209/470 175/457 176/472
f 176/472 264/473 209/470
f 200/548 208/553 210/556
f 410/628 253/624 413/631
f 265/407 262/418 264/414
f 412/627 254/625 449/629
f 227/653 224/656 244/655
f 92/222 219/217 240/225
f 87/264 90/269 86/279
f 98/526 101/522 99/528
f 221/347 211/350 212/353
f 218/339 219/341 213/337
f 138/187 128/181 136/184
f 195/346 199/351 202/345
f 180/118 183/126 169/107
f 170/117 183/126 164/135
f 173/469 175/457 209/470
f 209/470 207/471 173/469
f 206/381 196/377 205/373
f 196/551 208/553 200/548
f 175/457 171/466 174/463
f 179/108 181/119 168/113
f 183/126 170/117 169/107
f 169/107 168/113 180/118
f 214/157 188/155 187/150
f 40/160 4/156 186/152
f 122/683 185/686 121/684
f 15/170 8/172 9/171
f 132/185 127/182 128/181
f 138/187 137/189 147/193
f 94/254 104/258 107/262
f 102/525 99/528 101/522
f 54/527 49/531 84/530
f 53/524 84/530 102/525
f 100/506 95/505 97/508
f 107/262 104/258 108/270
f 86/279 91/283 63/273
f 108/270 89/277 107/262
f 62/255 87/264 63/273
f 91/223 88/220 85/224
f 108/270 118/281 89/277
f 78/436 79/432 77/439
f 77/439 81/438 46/446
f 71/433 83/437 82/430
f 79/432 81/438 77/439
f 54/527 53/524 50/521
f 24/7 37/1 349/4
f 17/165 39/168 12/167
f 185/178 10/177 162/175
f 26/20 45/31 301/25
f 309/136 295/120 302/127
f 182/112 295/120 294/109
f 312/39 293/45 311/32
f 307/114 306/111 289/102
f 304/559 305/560 281/561
f 283/570 284/571 313/572
f 286/567 285/564 282/562
f 165/671 189/672 303/673
f 302/127 295/120 182/112
f 287/9 21/5 37/1
f 26/20 301/25 25/16
f 299/21 323/35 300/28
f 293/45 292/51 291/55
f 335/67 322/59 336/76
f 178/101 290/105 289/102
f 461/690 339/691 479/692
f 307/114 296/130 460/138
f 294/109 290/105 178/101
f 291/122 296/130 307/114
f 326/128 295/120 309/136
f 302/127 303/143 309/136
f 318/391 319/392 308/393
f 189/147 325/154 308/151
f 189/147 309/136 303/143
f 303/143 302/127 165/134
f 163/146 5/153 189/147
f 5/153 44/159 325/154
f 326/128 294/109 295/120
f 316/402 317/396 298/400
f 321/129 291/122 314/110
f 314/110 327/121 321/129
f 294/109 327/121 314/110
f 291/122 307/114 314/110
f 289/102 314/110 307/114
f 289/102 290/105 314/110
f 178/101 182/112 294/109
f 458/131 307/114 462/139
f 174/123 310/115 464/133
f 289/102 306/111 172/106
f 310/115 172/106 306/111
f 310/115 306/111 307/114
f 302/127 280/125 165/134
f 182/112 280/125 302/127
f 305/700 304/701 454/702
f 282/575 281/576 333/574
f 333/574 283/570 286/573
f 281/561 305/560 469/563
f 281/561 282/562 304/559
f 285/534 334/535 304/536
f 285/564 286/567 313/568
f 284/569 285/564 313/568
f 285/534 284/539 283/537
f 286/573 282/575 333/574
f 283/537 334/535 285/534
f 286/573 283/570 313/572
f 334/535 333/540 471/543
f 471/543 320/545 473/546
f 318/23 308/36 332/29
f 172/106 310/115 174/123
f 308/36 325/41 332/29
f 25/16 23/12 24/7
f 328/26 324/38 312/39
f 301/25 45/31 324/38
f 332/29 331/24 330/18
f 189/147 5/153 325/154
f 36/33 331/24 332/29
f 5/153 6/162 44/159
f 332/29 325/41 44/42
f 326/397 319/392 317/396
f 21/5 287/9 315/14
f 23/12 25/16 299/21
f 299/21 315/14 23/12
f 328/26 311/32 299/21
f 301/25 324/38 328/26
f 301/25 328/26 25/16
f 37/1 23/12 287/9
f 315/14 318/23 330/18
f 21/5 330/18 331/24
f 330/18 21/5 315/14
f 36/33 22/22 331/24
f 22/22 21/5 331/24
f 312/39 297/50 292/51
f 329/398 300/394 323/399
f 317/396 329/398 298/400
f 288/60 297/50 381/54
f 332/29 330/18 318/23
f 316/402 298/400 293/403
f 381/54 324/38 383/49
f 293/403 298/400 323/399
f 293/45 312/39 292/51
f 293/45 323/35 311/32
f 311/32 328/26 312/39
f 297/50 288/60 481/66
f 322/59 297/50 475/64
f 292/51 297/50 322/59
f 322/59 291/55 292/51
f 337/137 291/122 341/144
f 321/405 327/404 316/402
f 316/402 327/404 294/401
f 294/401 326/397 317/396
f 319/392 326/397 309/395
f 323/399 298/400 329/398
f 300/394 329/398 317/396
f 293/403 321/405 316/402
f 312/39 324/38 297/50
f 476/75 384/74 496/84
f 285/564 304/559 282/562
f 456/578 281/576 470/579
f 317/396 319/392 300/394
f 318/391 300/394 319/392
f 309/136 189/147 308/151
f 314/110 290/105 294/109
f 308/393 319/392 309/395
f 283/537 333/540 334/535
f 468/538 334/535 472/541
f 320/577 333/574 281/576
f 323/35 299/21 311/32
f 23/12 315/14 287/9
f 294/401 317/396 316/402
f 299/21 25/16 328/26
f 300/28 315/14 299/21
f 324/38 45/31 380/44
f 318/23 315/14 300/28
f 291/406 321/405 293/403
f 335/67 291/55 322/59
f 336/76 322/59 340/82
f 337/137 296/130 291/122
f 338/145 296/130 337/137
f 339/149 296/130 338/145
f 340/82 322/59 484/81
f 341/144 291/122 335/148
f 342/245 68/248 67/246
f 343/247 67/246 364/249
f 344/299 152/298 148/296
f 345/294 148/296 144/286
f 346/272 103/263 65/250
f 347/282 105/278 346/272
f 348/3 20/2 375/6
f 349/4 37/1 348/3
f 350/57 35/46 153/62
f 351/52 35/46 350/57
f 352/268 65/250 353/261
f 353/261 65/250 354/257
f 354/257 65/250 365/253
f 355/304 152/298 357/305
f 356/308 153/300 355/304
f 357/305 152/298 344/299
f 358/287 105/278 359/288
f 359/288 105/278 347/282
f 360/289 108/270 358/287
f 361/292 144/286 360/289
f 446/266 57/274 488/280
f 490/499 47/493 491/497
f 362/260 61/256 447/267
f 363/252 61/256 362/260
f 364/249 67/246 363/252
f 365/253 65/250 342/245
f 493/495 46/492 494/496
f 366/19 24/7 367/15
f 367/15 24/7 371/11
f 368/30 26/20 366/19
f 369/37 26/20 368/30
f 370/43 45/31 369/37
f 371/11 24/7 349/4
f 372/27 38/34 373/40
f 373/40 38/34 374/47
f 374/47 38/34 351/52
f 375/6 20/2 376/10
f 376/10 20/2 377/8
f 377/8 20/2 21/5
f 378/17 22/22 372/27
f 379/13 21/5 378/17
f 380/44 45/31 370/43
f 381/54 297/50 324/38
f 382/65 288/60 381/54
f 383/49 324/38 380/44
f 384/74 288/60 382/65
f 385/445 231/449 386/451
f 386/490 231/488 428/486
f 387/598 268/597 388/600
f 388/632 268/626 410/628
f 389/599 258/596 387/598
f 390/590 247/588 391/593
f 391/604 247/601 415/602
f 392/708 232/709 425/710
f 393/652 234/649 392/651
f 394/654 234/649 393/652
f 395/662 226/659 394/661
f 396/239 57/236 64/237
f 397/478 74/475 396/477
f 398/500 46/492 486/502
f 399/409 276/408 404/412
f 400/410 265/407 399/409
f 401/464 246/458 418/462
f 402/467 278/461 401/464
f 403/413 265/407 400/410
f 404/412 276/408 402/416
f 405/421 265/407 406/417
f 406/417 265/407 403/413
f 407/429 252/427 267/423
f 408/428 267/423 409/426
f 409/426 267/423 405/421
f 410/628 268/626 253/624
f 411/630 253/624 412/627
f 412/627 253/624 254/625
f 413/631 253/624 411/630
f 414/383 252/382 407/385
f 415/602 247/601 389/599
f 416/587 248/583 390/590
f 417/460 175/457 174/463
f 418/462 246/458 417/460
f 419/386 190/387 206/381
f 420/388 190/387 419/386
f 421/367 190/364 420/369
f 422/670 233/669 427/666
f 423/646 233/641 422/648
f 424/638 242/634 450/643
f 425/642 232/635 424/638
f 426/644 233/641 423/646
f 427/666 233/669 226/659
f 428/486 231/488 245/484
f 429/482 245/484 74/475
f 430/241 64/237 228/238
f 431/366 241/363 421/367
f 432/242 243/240 433/244
f 433/371 243/365 452/370
f 434/480 74/475 397/478
f 435/664 226/659 395/662
f 436/368 243/365 431/366
f 437/442 76/435 385/445
f 438/243 228/238 432/242
f 439/384 206/381 414/383
f 440/465 174/463 465/468
f 441/453 46/446 445/452
f 442/455 46/446 487/454
f 443/450 81/438 444/448
f 444/448 81/438 451/444
f 445/452 46/446 443/450
f 446/266 60/259 57/274
f 447/267 61/256 489/275
f 448/584 248/583 416/587
f 449/586 254/581 448/584
f 450/643 242/634 426/644
f 451/444 81/438 437/442
f 452/370 243/365 436/368
f 453/544 304/536 463/542
f 454/705 304/706 453/707
f 455/580 320/577 456/578
f 456/578 320/577 281/576
f 457/140 310/115 458/131
f 458/131 310/115 307/114
f 459/695 296/693 461/690
f 460/696 296/693 459/695
f 461/690 296/693 339/691
f 462/139 307/114 460/138
f 463/542 304/536 468/538
f 464/133 310/115 478/142
f 465/141 174/123 464/133
f 466/704 305/700 467/703
f 467/703 305/700 454/702
f 468/538 304/536 334/535
f 469/563 305/560 466/566
f 470/565 281/561 469/563
f 471/543 333/540 320/545
f 472/541 334/535 471/543
f 473/546 320/545 474/547
f 474/711 320/712 477/713
f 475/64 297/50 482/73
f 476/75 288/60 384/74
f 477/713 320/712 455/714
f 478/142 310/115 457/140
f 479/692 339/691 480/694
f 481/66 288/60 476/75
f 482/73 297/50 481/66
f 483/72 322/59 475/64
f 484/81 322/59 483/72
f 485/87 340/82 484/81
f 486/456 46/446 442/455
f 487/454 46/446 441/453
f 488/280 57/274 490/284
f 489/275 61/256 446/266
f 490/499 57/501 47/493
f 491/497 47/493 493/495
f 492/276 362/260 447/267
f 493/495 47/493 46/492
f 494/496 46/492 495/498
f 495/498 46/492 398/500
f 496/84 384/74 497/88
usemtl Tile_+038_+020_L19_000024_untextured
