mtllib Tile_+038_+020_L19_000202.mtl
v 7.75422329e+03 4.91470725e+03 2.18370225e+00
v 7.75514219e+03 4.91487671e+03 4.58823570e-01
v 7.75475477e+03 4.91559770e+03 -2.20376697e-01
v 7.75000000e+03 4.92452035e+03 -2.41797900e-01
v 7.75549717e+03 4.91853834e+03 -1.23558860e-01
v 7.75477131e+03 4.92403640e+03 -2.13894160e-01
v 7.75283244e+03 4.91482954e+03 4.18338448e-01
v 7.75626095e+03 4.92016113e+03 -2.41964807e-01
v 7.75068708e+03 4.91384297e+03 2.56158821e+00
v 7.75000000e+03 4.91378567e+03 2.76718877e+00
v 7.75742657e+03 4.92692854e+03 -2.40025325e-01
v 7.75038318e+03 4.91377678e+03 5.43583764e+00
v 7.75050294e+03 4.91369970e+03 3.51123393e+00
v 7.76149568e+03 4.92175929e+03 1.32304116e+00
v 7.76234142e+03 4.92319856e+03 1.36932395e+00
v 7.77075704e+03 4.92800025e+03 -1.88146397e-01
v 7.77851500e+03 4.92624189e+03 -2.34778901e-01
v 7.76537448e+03 4.92491027e+03 1.67233541e+00
v 7.76334142e+03 4.92465730e+03 1.78957932e+00
v 7.75777858e+03 4.92300792e+03 1.66744864e+00
v 7.75597220e+03 4.92268762e+03 2.20395194e+00
v 7.77349062e+03 4.93304986e+03 -2.36533507e-01
v 7.76496607e+03 4.92427800e+03 -2.23268132e-01
v 7.76080354e+03 4.92211466e+03 -1.77235803e-01
v 7.76257654e+03 4.92384067e+03 -5.29040471e-02
v 7.76118453e+03 4.92257452e+03 1.83180310e+00
v 7.76156655e+03 4.92438512e+03 2.02902451e+00
v 7.76095864e+03 4.92574403e+03 -2.69361132e-01
v 7.76347872e+03 4.92016320e+03 1.12450718e+00
v 7.75953959e+03 4.90757860e+03 5.37209933e+00
v 7.75820028e+03 4.90721116e+03 3.98193484e+00
v 7.76592870e+03 4.91532075e+03 2.57444691e+00
v 7.76747720e+03 4.91571755e+03 2.38707928e+00
v 7.76708025e+03 4.91538446e+03 2.93786516e+00
v 7.77817193e+03 4.91225196e+03 3.47548021e+00
v 7.77842758e+03 4.91086734e+03 3.45468501e+00
v 7.75163409e+03 4.91317628e+03 2.99906802e+00
v 7.75229228e+03 4.91425074e+03 2.73239450e+00
v 7.75221883e+03 4.90724600e+03 1.20475400e+01
v 7.75000000e+03 4.90694062e+03 1.03510902e+01
v 7.76403682e+03 4.92490940e+03 2.26060005e+00
v 7.75502310e+03 4.92231517e+03 2.97576571e+00
v 7.75537750e+03 4.92211657e+03 2.41922716e+00
v 7.75635828e+03 4.90725157e+03 6.12438718e+00
v 7.75000000e+03 4.90690375e+03 7.27325330e+00
v 7.77343164e+03 4.90830196e+03 7.49367949e+00
v 7.77169327e+03 4.90800021e+03 8.96580231e+00
v 7.75859838e+03 4.90760857e+03 1.02932042e+01
v 7.75979508e+03 4.90747068e+03 7.67425215e+00
v 7.76429962e+03 4.91512992e+03 3.06072301e+00
v 7.76303663e+03 4.91507831e+03 2.21133500e+00
v 7.75000000e+03 4.91449617e+03 1.71141359e+00
v 7.75000000e+03 4.91506903e+03 -1.97415559e-01
v 7.75845443e+03 4.92059758e+03 1.43027659e+00
v 7.75732548e+03 4.91899550e+03 9.87111238e-01
v 7.75767583e+03 4.92047327e+03 1.14525845e+00
v 7.75753105e+03 4.92132707e+03 1.32900946e+00
v 7.76141878e+03 4.92038564e+03 -1.65803407e-01
v 7.75904361e+03 4.92009568e+03 -1.59005100e-01
v 7.76663571e+03 4.91994122e+03 -2.28358870e-01
v 7.76567774e+03 4.92184270e+03 2.09172168e+00
v 7.76691845e+03 4.92177348e+03 2.12363922e+00
v 7.75900665e+03 4.92029879e+03 9.88731517e-01
v 7.75796454e+03 4.92053180e+03 -4.54635420e-02
v 7.75701015e+03 4.91970869e+03 1.84455359e-01
v 7.75747843e+03 4.92204777e+03 -2.14225444e-01
v 7.75666961e+03 4.91839271e+03 1.16400481e+00
v 7.75608447e+03 4.91826532e+03 3.50999721e-01
v 7.75706057e+03 4.91967832e+03 5.22226284e-01
v 7.76035406e+03 4.91973991e+03 2.47275025e-02
v 7.76258142e+03 4.92030954e+03 -1.56648799e-01
v 7.76254008e+03 4.92027665e+03 1.73554194e+00
v 7.76377501e+03 4.92018046e+03 1.79821885e+00
v 7.76450113e+03 4.92017079e+03 1.91267881e+00
v 7.76420623e+03 4.91943371e+03 1.18268499e+00
v 7.76053888e+03 4.92108665e+03 1.58465608e+00
v 7.76170513e+03 4.92064443e+03 2.15621998e+00
v 7.76285116e+03 4.91917135e+03 6.62450797e-01
v 7.76098740e+03 4.91840690e+03 1.03763821e+00
v 7.75902967e+03 4.91898332e+03 9.59243483e-01
v 7.76398179e+03 4.92007976e+03 6.57238514e-01
v 7.76521809e+03 4.92192537e+03 2.20051254e+00
v 7.76483613e+03 4.92128643e+03 1.73556547e+00
v 7.76430483e+03 4.92245977e+03 2.05045504e+00
v 7.77087734e+03 4.91935073e+03 1.08202222e+00
v 7.76931876e+03 4.91825241e+03 1.03527665e+00
v 7.76917916e+03 4.92498398e+03 1.51791430e+00
v 7.76700279e+03 4.91957196e+03 1.08464099e+00
v 7.76854543e+03 4.91982909e+03 1.59091005e+00
v 7.76804027e+03 4.92152629e+03 1.63651045e+00
v 7.76251815e+03 4.92214621e+03 -2.33274898e-01
v 7.75654421e+03 4.92292264e+03 1.77039127e-01
v 7.76186240e+03 4.92120601e+03 2.67263572e-01
v 7.75829756e+03 4.92137556e+03 1.15913678e+00
v 7.75908503e+03 4.92123426e+03 1.93499554e+00
v 7.75675953e+03 4.91688529e+03 1.01395911e+00
v 7.75619697e+03 4.91537408e+03 4.67889742e-01
v 7.75657219e+03 4.91520869e+03 1.19962240e+00
v 7.75840595e+03 4.91794514e+03 1.09748908e+00
v 7.75903320e+03 4.92096549e+03 1.08590612e+00
v 7.76030981e+03 4.92116540e+03 1.90939287e+00
v 7.77184323e+03 4.91987178e+03 1.71849669e+00
v 7.76983778e+03 4.91982445e+03 1.84080395e+00
v 7.77344071e+03 4.91966737e+03 1.05037926e+00
v 7.76569556e+03 4.91930566e+03 1.18409088e+00
v 7.76787478e+03 4.92360205e+03 1.57959022e+00
v 7.76055636e+03 4.92409320e+03 1.60679527e+00
v 7.75869524e+03 4.92318406e+03 2.06723285e+00
v 7.77548017e+03 4.92499592e+03 6.24589450e-01
v 7.77420951e+03 4.92521552e+03 -2.12682027e-01
v 7.77702558e+03 4.92491342e+03 1.29419494e+00
v 7.77774028e+03 4.92486387e+03 1.79945864e+00
v 7.77797815e+03 4.92069195e+03 -2.37308261e-01
v 7.77553063e+03 4.92395425e+03 -2.53867333e-01
v 7.77351217e+03 4.92061061e+03 1.74477060e+00
v 7.77484509e+03 4.92096816e+03 2.48322958e+00
v 7.77544397e+03 4.92281264e+03 6.25808332e-01
v 7.77762770e+03 4.92388912e+03 7.65555140e-01
v 7.77564649e+03 4.92487615e+03 7.51736448e-01
v 7.77529571e+03 4.92516473e+03 9.99201934e-01
v 7.77597406e+03 4.92508628e+03 3.82642800e-01
v 7.77560771e+03 4.92490818e+03 6.19934243e-01
v 7.76922512e+03 4.92237782e+03 2.43858955e+00
v 7.77638644e+03 4.92308756e+03 4.01642068e+00
v 7.77511334e+03 4.92361179e+03 3.23566928e+00
v 7.77590008e+03 4.92515604e+03 1.79124398e+00
v 7.77734527e+03 4.92472927e+03 2.05537780e-01
v 7.76237421e+03 4.92106736e+03 1.91078691e+00
v 7.76756068e+03 4.92241241e+03 1.97340084e+00
v 7.76336401e+03 4.92112442e+03 1.62729830e+00
v 7.76542476e+03 4.92304009e+03 1.60426091e+00
v 7.76613038e+03 4.92208659e+03 1.82181282e+00
v 7.76717023e+03 4.92536815e+03 -2.32546141e-01
v 7.77168701e+03 4.92500939e+03 -1.97256588e-01
v 7.77610670e+03 4.92423536e+03 2.78896813e+00
v 7.77328545e+03 4.92081386e+03 2.74509216e+00
v 7.77241813e+03 4.92059247e+03 1.89459608e+00
v 7.76887877e+03 4.92037353e+03 1.46675534e+00
v 7.77007941e+03 4.92102267e+03 1.53234466e+00
v 7.77198009e+03 4.92097656e+03 2.06266131e+00
v 7.77161782e+03 4.92071414e+03 1.40244283e+00
v 7.77606366e+03 4.92013869e+03 1.00863719e+00
v 7.77575476e+03 4.92058096e+03 1.74873766e+00
v 7.77194517e+03 4.92077573e+03 2.74617110e+00
v 7.77849235e+03 4.92086258e+03 1.25384041e-01
v 7.77468139e+03 4.92020355e+03 1.71729446e+00
v 7.76858972e+03 4.91888566e+03 9.60867348e-01
v 7.76262264e+03 4.92686749e+03 -4.54716444e-02
v 7.76553020e+03 4.92253602e+03 2.55249981e+00
v 7.75451965e+03 4.92234566e+03 2.03265085e+00
v 7.76338219e+03 4.92432542e+03 2.09053889e+00
v 7.75945449e+03 4.92348876e+03 6.82863431e-02
v 7.75993289e+03 4.92382433e+03 2.07746068e+00
v 7.76689301e+03 4.92401987e+03 1.52118397e+00
v 7.76689787e+03 4.92258508e+03 2.08227399e+00
v 7.76662583e+03 4.91995785e+03 1.76317729e+00
v 7.76970267e+03 4.93337527e+03 -2.68083055e-01
v 7.77158905e+03 4.92465667e+03 1.48297873e+00
v 7.77234714e+03 4.92513533e+03 1.76330722e+00
v 7.77199860e+03 4.92447700e+03 2.96641343e+00
v 7.77109277e+03 4.92537399e+03 1.72375998e+00
v 7.77357156e+03 4.92495383e+03 1.37130123e+00
v 7.75529258e+03 4.90739158e+03 2.87477417e+00
v 7.75403850e+03 4.90729530e+03 3.54471619e+00
v 7.76272436e+03 4.90752716e+03 5.21644231e+00
v 7.76079345e+03 4.90741216e+03 4.90949379e+00
v 7.77396169e+03 4.91092875e+03 2.63985002e+00
v 7.77258777e+03 4.91206902e+03 2.25518726e+00
v 7.76931377e+03 4.90794905e+03 5.17309984e+00
v 7.76495063e+03 4.90761046e+03 8.36144205e+00
v 7.76654459e+03 4.90772571e+03 5.61402376e+00
v 7.75979131e+03 4.90830646e+03 4.44040780e+00
v 7.75229811e+03 4.90604350e+03 1.24780637e+01
v 7.77082942e+03 4.90839845e+03 1.10546918e+01
v 7.76815010e+03 4.90807442e+03 9.27793511e+00
v 7.77006262e+03 4.90785582e+03 7.35314680e+00
v 7.77234142e+03 4.92280847e+03 3.89328797e+00
v 7.77187918e+03 4.92262474e+03 2.91694548e+00
v 7.77319163e+03 4.92337860e+03 3.13669251e+00
v 7.76646387e+03 4.92083745e+03 1.51774178e+00
v 7.76550438e+03 4.93056814e+03 -2.03765039e-01
v 7.77337003e+03 4.92460938e+03 2.97449737e+00
v 7.75787023e+03 4.92149990e+03 2.04706902e+00
v 7.77799480e+03 4.92078437e+03 1.87067768e+00
v 7.76482830e+03 4.92562593e+03 -2.21533602e-01
v 7.76252686e+03 4.92327110e+03 2.02139503e+00
v 7.76344595e+03 4.92215400e+03 2.00857217e+00
v 7.75741952e+03 4.92277541e+03 2.06881682e+00
v 7.75706197e+03 4.90712613e+03 8.20684686e+00
v 7.77766493e+03 4.92159832e+03 2.96556173e+00
v 7.76600895e+03 4.92212249e+03 2.78266412e+00
v 7.76649785e+03 4.92247076e+03 2.95064271e+00
v 7.76449443e+03 4.92279886e+03 1.56461020e+00
v 7.76356351e+03 4.92206234e+03 1.63946463e+01
v 7.76136715e+03 4.92234336e+03 1.37309409e+01
v 7.75114392e+03 4.90732778e+03 2.70364909e+00
v 7.75000000e+03 4.90695559e+03 3.62219448e+00
v 7.75540196e+03 4.90719335e+03 1.11068177e+01
v 7.75111708e+03 4.90889355e+03 2.31711271e+00
v 7.75420960e+03 4.90994489e+03 2.68152838e+00
v 7.75332651e+03 4.90898102e+03 2.74616351e+00
v 7.75886365e+03 4.90889568e+03 2.66069219e+00
v 7.76121501e+03 4.90847373e+03 2.91217292e+00
v 7.75000000e+03 4.90938345e+03 2.40037838e+00
v 7.77471368e+03 4.91974738e+03 1.04775053e+00
v 7.77562454e+03 4.91886946e+03 1.23363194e+00
v 7.77310570e+03 4.92257119e+03 3.75753385e+00
v 7.77249656e+03 4.92215941e+03 3.18345784e+00
v 7.76535766e+03 4.91453089e+03 2.14126240e+00
v 7.76895289e+03 4.91549266e+03 2.75226173e+00
v 7.77058009e+03 4.92205404e+03 1.63895044e+00
v 7.77060433e+03 4.92251409e+03 2.27025740e+00
v 7.77634262e+03 4.92247453e+03 3.37034649e+00
v 7.76997647e+03 4.92267707e+03 2.14557561e+00
v 7.75841118e+03 4.92224608e+03 2.53257224e+00
v 7.75658691e+03 4.92218666e+03 2.19475224e+00
v 7.76771338e+03 4.90807568e+03 6.42424836e+00
v 7.76764516e+03 4.90805351e+03 3.91048322e+00
v 7.77508478e+03 4.90801041e+03 3.69452858e+00
v 7.75363359e+03 4.91217825e+03 2.36178358e+00
v 7.76586023e+03 4.90792727e+03 2.92058410e+00
v 7.76460602e+03 4.90779039e+03 5.51407959e+00
v 7.77218365e+03 4.90797968e+03 4.47575775e+00
v 7.77293495e+03 4.90827015e+03 3.59439881e+00
v 7.75949767e+03 4.90745112e+03 1.11131174e+01
v 7.76139903e+03 4.90774735e+03 1.08877216e+01
v 7.77171103e+03 4.92236033e+03 1.90178176e+00
v 7.76450316e+03 4.92250188e+03 3.63063588e+00
v 7.76521775e+03 4.92269529e+03 3.30791836e+00
v 7.77941169e+03 4.92372465e+03 -2.14541135e-01
v 7.76730447e+03 4.91672788e+03 1.50527360e+00
v 7.76906259e+03 4.91658192e+03 1.53430929e+00
v 7.77443946e+03 4.91744512e+03 2.07168578e+00
v 7.77714401e+03 4.91754938e+03 2.26380184e+00
v 7.77399160e+03 4.91817479e+03 1.09317978e+00
v 7.77226544e+03 4.92241338e+03 3.89361671e+00
v 7.77129753e+03 4.92247223e+03 1.59853808e+01
v 7.77040641e+03 4.92245163e+03 1.29297631e+01
v 7.77135057e+03 4.92245694e+03 1.06654491e+01
v 7.77732040e+03 4.92435438e+03 2.21418436e+00
v 7.77247398e+03 4.92271944e+03 9.20151438e+00
v 7.77216132e+03 4.92272898e+03 9.96311380e+00
v 7.77095924e+03 4.92256877e+03 5.65225683e+00
v 7.76335826e+03 4.92249492e+03 1.49198183e+01
v 7.76455165e+03 4.92236352e+03 1.29547771e+01
v 7.77545451e+03 4.91161049e+03 2.81298439e+00
v 7.77629982e+03 4.91137527e+03 3.70010658e+00
v 7.77378911e+03 4.91339892e+03 2.40023590e+00
v 7.77624638e+03 4.91272937e+03 2.75213354e+00
v 7.77074766e+03 4.92305647e+03 9.78871167e+00
v 7.76240791e+03 4.90750448e+03 8.23330750e+00
v 7.76742074e+03 4.92701043e+03 -2.43958634e-01
v 7.76279960e+03 4.92252046e+03 2.40920873e+00
v 7.76256059e+03 4.91135115e+03 2.21189288e+00
v 7.76548112e+03 4.91103238e+03 2.66089265e+00
v 7.77398269e+03 4.92291559e+03 3.90913498e+00
v 7.77101459e+03 4.92260536e+03 1.53604777e+00
v 7.77167173e+03 4.92258053e+03 2.04979697e+00
v 7.77648117e+03 4.92029952e+03 6.41095248e-01
v 7.77821941e+03 4.92035901e+03 8.67012948e-01
v 7.77082987e+03 4.92258110e+03 3.44591265e+00
v 7.77730745e+03 4.90819406e+03 3.76623536e+00
v 7.77586883e+03 4.90827406e+03 3.07213406e+00
v 7.76800106e+03 4.91955337e+03 8.83989860e-01
v 7.77708596e+03 4.92340543e+03 3.35984502e+00
v 7.76400275e+03 4.90768679e+03 4.08532609e+00
v 7.77115154e+03 4.92252749e+03 8.25501129e+00
v 7.77104129e+03 4.92241656e+03 8.40868675e+00
v 7.75186153e+03 4.90728381e+03 3.44575007e+00
v 7.77746851e+03 4.91894345e+03 1.33251459e+00
v 7.77342119e+03 4.90814419e+03 1.44087274e+01
v 7.77298008e+03 4.90754979e+03 1.12449607e+01
v 7.76446153e+03 4.90898830e+03 2.77514272e+00
v 7.77108187e+03 4.92215957e+03 9.70402553e+00
v 7.77185280e+03 4.92269897e+03 2.76416676e+00
v 7.76775545e+03 4.90841257e+03 1.13254170e+01
v 7.76642724e+03 4.90813834e+03 1.06938821e+01
v 7.75059742e+03 4.91276969e+03 4.14226528e+00
v 7.75042192e+03 4.91324445e+03 5.78333905e+00
v 7.75000000e+03 4.91695110e+03 -2.67159694e-01
v 7.75000000e+03 4.91322487e+03 5.72919438e+00
v 7.75000000e+03 4.91363391e+03 5.72304484e+00
v 7.75000000e+03 4.90728617e+03 2.72253995e+00
v 7.75000000e+03 4.91069844e+03 2.67144380e+00
v 7.75000000e+03 4.91212645e+03 3.52795889e+00
v 7.75000000e+03 4.91373708e+03 4.21260923e+00
v 7.75000000e+03 4.90686888e+03 1.43941276e+01
v 7.75000000e+03 4.90738286e+03 1.34308890e+01
v 7.77236021e+03 4.92253903e+03 2.10656947e+01
v 7.77166888e+03 4.92237387e+03 2.31273412e+01
v 7.77203082e+03 4.92239032e+03 2.01094760e+01
v 7.77416648e+03 4.90853615e+03 1.63732932e+01
v 7.77221271e+03 4.92262175e+03 2.02363952e+01
v 7.77178834e+03 4.92233337e+03 1.79193505e+01
v 7.76415117e+03 4.92213710e+03 1.89201714e+01
v 7.76537713e+03 4.92229353e+03 2.11428822e+01
v 7.77905357e+03 4.90875644e+03 1.63244362e+01
v 7.77674131e+03 4.90855582e+03 1.64101576e+01
v 7.77140167e+03 4.92232826e+03 1.78319874e+01
v 7.77107018e+03 4.92297784e+03 1.75172576e+01
v 7.77151063e+03 4.92335665e+03 1.75605513e+01
v 7.77147333e+03 4.92180738e+03 1.76072559e+01
v 7.77160986e+03 4.92256087e+03 1.81732473e+01
v 7.77087140e+03 4.92202748e+03 1.75562899e+01
v 7.76482081e+03 4.92232546e+03 1.66692831e+01
v 7.76349277e+03 4.92241979e+03 1.75455381e+01
v 7.77332248e+03 4.90742041e+03 1.72315049e+01
v 7.77113203e+03 4.92234639e+03 1.63337279e+01
v 7.76294351e+03 4.92223910e+03 1.59488006e+01
v 7.77085467e+03 4.92239206e+03 1.62153074e+01
v 7.77335378e+03 4.90811712e+03 1.54461849e+01
v 7.75145006e+03 4.90687068e+03 1.34497780e+01
v 7.75323264e+03 4.90698055e+03 7.63168254e+00
v 7.75454491e+03 4.92204501e+03 2.39548402e+00
v 7.75489466e+03 4.90772165e+03 1.05569237e+01
v 7.75449815e+03 4.90725070e+03 8.98316263e+00
v 7.75141864e+03 4.91149530e+03 3.02774518e+00
v 7.77660019e+03 4.90827558e+03 1.34130010e+01
v 7.77569250e+03 4.91012927e+03 3.02379415e+00
v 7.77775277e+03 4.90943400e+03 3.03796383e+00
v 7.77271066e+03 4.91015602e+03 2.89254233e+00
v 7.77067097e+03 4.90888078e+03 2.57027000e+00
v 7.77418338e+03 4.90850404e+03 3.05384830e+00
v 7.77040150e+03 4.91218553e+03 2.57411838e+00
v 7.77238205e+03 4.91115370e+03 3.03928556e+00
v 7.76164786e+03 4.90978854e+03 2.82557927e+00
v 7.76744088e+03 4.90911901e+03 2.77541582e+00
v 7.76582092e+03 4.91016908e+03 2.97771340e+00
v 7.76993312e+03 4.90801126e+03 3.45148391e+00
v 7.76755098e+03 4.91109851e+03 2.73649947e+00
v 7.76267755e+03 4.90767805e+03 3.34642653e+00
v 7.75701280e+03 4.90838060e+03 2.80878133e+00
v 7.75693383e+03 4.90695716e+03 3.51703405e+00
v 7.75825631e+03 4.90751494e+03 2.71092361e+00
v 7.76040255e+03 4.90814944e+03 3.84039945e+00
v 7.75642737e+03 4.91048598e+03 2.79861875e+00
v 7.75563130e+03 4.90897619e+03 2.45893334e+00
v 7.75598031e+03 4.90951997e+03 2.81286630e+00
v 7.77720854e+03 4.91619676e+03 3.01291409e+00
v 7.77680376e+03 4.91415975e+03 2.37082348e+00
v 7.77807908e+03 4.91672516e+03 2.30498378e+00
v 7.77687483e+03 4.91690228e+03 3.33751634e+00
v 7.77496992e+03 4.91601323e+03 2.74656228e+00
v 7.77340139e+03 4.91583064e+03 2.77562376e+00
v 7.77610381e+03 4.91605401e+03 2.49600845e+00
v 7.77653194e+03 4.91711018e+03 2.62689222e+00
v 7.77223970e+03 4.91571667e+03 2.83123399e+00
v 7.77161083e+03 4.91434217e+03 2.46702675e+00
v 7.77296106e+03 4.91434358e+03 2.87131696e+00
v 7.77111023e+03 4.91582522e+03 2.52330842e+00
v 7.76838403e+03 4.91166650e+03 2.34144420e+00
v 7.75998245e+03 4.90816092e+03 2.99148705e+00
v 7.77521507e+03 4.91526746e+03 2.19305319e+00
v 7.77759298e+03 4.91291233e+03 2.39485302e+00
v 7.76086432e+03 4.91127513e+03 2.35148284e+00
v 7.76374743e+03 4.91439821e+03 2.19112283e+00
v 7.75793086e+03 4.91165999e+03 2.15860205e+00
v 7.75695729e+03 4.91355771e+03 2.26172163e+00
v 7.75588834e+03 4.91462244e+03 2.55871249e+00
v 7.75660819e+03 4.91457568e+03 2.90810571e+00
v 7.75750588e+03 4.91483874e+03 2.14171090e+00
v 7.76191249e+03 4.91510893e+03 2.44587094e+00
v 7.76100403e+03 4.91464359e+03 2.25017819e+00
v 7.76350030e+03 4.91596804e+03 1.67958791e+00
v 7.76610915e+03 4.91585566e+03 1.45745843e+00
v 7.78044115e+03 4.90877486e+03 1.50995495e+01
v 7.78117360e+03 4.90902498e+03 1.70460622e+01
v 7.77989285e+03 4.90916030e+03 1.70385878e+01
v 7.78073014e+03 4.90717912e+03 1.71793066e+01
v 7.77970574e+03 4.90770019e+03 1.69504977e+01
v 7.78122573e+03 4.90832526e+03 1.78676749e+01
v 7.78064153e+03 4.91687446e+03 2.13785511e+00
v 7.77866547e+03 4.91333049e+03 2.88324250e+00
v 7.77985916e+03 4.91521051e+03 3.75502883e+00
v 7.77923903e+03 4.91609928e+03 2.95893079e+00
v 7.77849578e+03 4.90882652e+03 2.84139251e+00
v 7.78127577e+03 4.91129784e+03 2.63616553e+00
v 7.77934482e+03 4.91434335e+03 3.14212840e+00
v 7.78102494e+03 4.91491800e+03 3.30927080e+00
v 7.78074645e+03 4.90961963e+03 2.59170914e+00
v 7.78129573e+03 4.90864324e+03 2.85955461e+00
v 7.78009301e+03 4.90866836e+03 3.40002338e+00
v 7.78035988e+03 4.91900268e+03 1.30336799e+00
v 7.77753529e+03 4.92383868e+03 3.09512502e+00
v 7.77805689e+03 4.92279832e+03 2.54368887e+00
v 7.78138059e+03 4.91636850e+03 3.09343464e+00
v 7.78073701e+03 4.91582908e+03 3.28360067e+00
v 7.77829619e+03 4.92174501e+03 2.36534203e+00
v 7.77958270e+03 4.92083180e+03 7.59248301e-01
v 7.78017340e+03 4.91574598e+03 4.15850377e+00
v 7.78037468e+03 4.91546878e+03 5.46796354e+00
v 7.78125678e+03 4.92134768e+03 9.40266735e-01
v 7.78121036e+03 4.92177503e+03 2.25282727e+00
v 7.78019741e+03 4.92412770e+03 7.06201842e-01
v 7.78051936e+03 4.92348732e+03 7.13273632e-01
v 7.77971199e+03 4.92017920e+03 4.84937196e-01
v 7.77810955e+03 4.90834945e+03 9.04403024e+00
v 7.77821249e+03 4.90851941e+03 7.57787366e+00
v 7.77241211e+03 4.91774363e+03 1.31978664e+00
v 7.77278655e+03 4.91636445e+03 1.77800999e+00
v 7.77651087e+03 4.90836077e+03 5.88048773e+00
v 7.77303913e+03 4.90864017e+03 1.06080341e+01
v 7.76157013e+03 4.92222797e+03 1.27860733e+01
v 7.76316941e+03 4.92245949e+03 1.10131815e+01
v 7.77471307e+03 4.90811506e+03 1.01291687e+01
v 7.75622557e+03 4.90760182e+03 1.09818343e+01
v 7.76254431e+03 4.90800845e+03 1.07263825e+01
v 7.76138367e+03 4.92228170e+03 9.84431481e+00
v 7.75974768e+03 4.92234842e+03 9.72562990e+00
v 7.76399419e+03 4.90790172e+03 1.06592017e+01
v 7.76891738e+03 4.90839769e+03 1.09606171e+01
v 7.76673597e+03 4.90754171e+03 8.07077033e+00
v 7.76272653e+03 4.90730850e+03 1.15181451e+01
v 7.76393409e+03 4.90729709e+03 1.18985066e+01
v 7.77086524e+03 4.92270252e+03 5.11984241e+00
v 7.77052223e+03 4.92219104e+03 9.75804638e+00
v 7.77097940e+03 4.92247591e+03 5.35739698e+00
v 7.76720643e+03 4.92240708e+03 2.89742093e+00
v 7.77131632e+03 4.92239375e+03 8.52553563e+00
v 7.77088860e+03 4.92230249e+03 1.37703526e+01
v 7.76532195e+03 4.90748661e+03 1.17722626e+01
v 7.76008817e+03 4.91563574e+03 1.30565757e+00
v 7.77348532e+03 4.90622898e+03 1.20745837e+01
v 7.77374054e+03 4.90822509e+03 1.15679727e+01
v 7.77114160e+03 4.92305193e+03 9.03970876e+00
v 7.75870653e+03 4.91485703e+03 2.30933688e+00
v 7.75868593e+03 4.91549115e+03 1.59701547e+00
v 7.76231911e+03 4.91654657e+03 1.48782296e+00
v 7.76437867e+03 4.91782140e+03 1.13603762e+00
v 7.77013567e+03 4.91621788e+03 1.41141172e+00
v 7.76986673e+03 4.91939085e+03 1.04661096e+00
v 7.75910096e+03 4.91661648e+03 1.04527197e+00
v 7.76246178e+03 4.90632873e+03 1.14006792e+01
v 7.76625573e+03 4.90770993e+03 1.11774783e+01
v 7.76395371e+03 4.90759231e+03 1.32539486e+01
v 7.76559611e+03 4.90755630e+03 1.25040184e+01
v 7.76599809e+03 4.90649710e+03 1.14500655e+01
v 7.76244632e+03 4.90707445e+03 1.24228544e+01
v 7.76883002e+03 4.90705911e+03 1.12498492e+01
v 7.75000000e+03 4.91463974e+03 6.41100332e-01
v 7.75000000e+03 4.90805742e+03 2.33160648e+00
v 7.75000000e+03 4.91278524e+03 4.29012962e+00
v 7.78025205e+03 4.91506711e+03 3.99422209e+00
v 7.77996937e+03 4.91537796e+03 6.33412048e+00
v 7.78099940e+03 4.92068529e+03 4.51886888e-01
v 7.77999019e+03 4.92201372e+03 -2.55086925e-01
v 7.78071230e+03 4.92389907e+03 8.10908846e-01
v 7.77952991e+03 4.92460204e+03 1.55208758e-01
v 7.78091961e+03 4.92480130e+03 1.81165785e-01
v 7.78004926e+03 4.90850039e+03 1.26501565e+01
v 7.78039955e+03 4.90857452e+03 6.63665553e+00
v 7.77915374e+03 4.92193401e+03 2.43433931e+00
v 7.78027067e+03 4.92238201e+03 1.88359627e+00
v 7.77911263e+03 4.92405479e+03 6.09423283e-01
v 7.78090462e+03 4.92219832e+03 8.00098464e-01
v 7.78038070e+03 4.92132048e+03 8.22826805e-01
v 7.78111245e+03 4.92119944e+03 6.74327973e-01
v 7.77974764e+03 4.92128742e+03 3.93266699e-01
v 7.77952713e+03 4.92071265e+03 1.44070492e-01
v 7.78061952e+03 4.92050759e+03 -1.92069305e-01
v 7.77950288e+03 4.92046614e+03 4.06552740e-01
v 7.77872865e+03 4.92422995e+03 2.77179521e-01
v 7.77893919e+03 4.92436332e+03 3.86224823e-01
v 7.77925503e+03 4.92061791e+03 4.04510885e-01
v 7.77937043e+03 4.92097539e+03 3.36176561e-01
v 7.77913955e+03 4.92070580e+03 4.51409229e-01
v 7.78124670e+03 4.92369543e+03 2.30359290e+00
v 7.77926927e+03 4.92428317e+03 2.16832795e+00
v 7.77820218e+03 4.92331233e+03 1.90849740e+00
v 7.77930868e+03 4.92284444e+03 2.83059499e+00
v 7.78017139e+03 4.92331967e+03 1.73452387e+00
v 7.77982278e+03 4.92119708e+03 2.31932086e+00
v 7.78088829e+03 4.92418997e+03 1.27967992e+00
v 7.78150000e+03 4.93536794e+03 -2.48930515e-01
v 7.78150000e+03 4.91609466e+03 3.05048440e+00
v 7.78150000e+03 4.91637852e+03 3.05630649e+00
v 7.78150000e+03 4.92203283e+03 1.31954806e+00
v 7.78150000e+03 4.92217363e+03 1.66893297e+00
v 7.78150000e+03 4.90869956e+03 1.46694485e+01
v 7.78150000e+03 4.90866220e+03 1.60312871e+01
v 7.78150000e+03 4.91160885e+03 2.58281202e+00
v 7.78150000e+03 4.91121807e+03 2.67159940e+00
v 7.78150000e+03 4.91492300e+03 3.19954302e+00
v 7.78150000e+03 4.91338428e+03 2.85727264e+00
v 7.78150000e+03 4.91247573e+03 2.58985508e+00
v 7.78150000e+03 4.91228436e+03 2.53811898e+00
v 7.78150000e+03 4.90855071e+03 3.75953212e+00
v 7.78150000e+03 4.90861045e+03 3.08823469e+00
v 7.78150000e+03 4.90948663e+03 2.76723168e+00
v 7.78150000e+03 4.90876580e+03 2.88190235e+00
v 7.78150000e+03 4.91091359e+03 2.70373169e+00
v 7.78150000e+03 4.91708774e+03 1.85516549e+00
v 7.78150000e+03 4.91669422e+03 2.39739661e+00
v 7.78150000e+03 4.90805368e+03 1.82009440e+01
v 7.78150000e+03 4.90700768e+03 1.81458832e+01
v 7.78150000e+03 4.90842423e+03 1.82360360e+01
v 7.78150000e+03 4.90898765e+03 1.76466806e+01
v 7.78150000e+03 4.90890434e+03 1.69923016e+01
v 7.78150000e+03 4.92229263e+03 1.37721436e+00
v 7.78150000e+03 4.92180216e+03 7.69621172e-01
v 7.78150000e+03 4.92159174e+03 6.21802843e-01
v 7.78150000e+03 4.92269433e+03 1.70346187e+00
v 7.78150000e+03 4.92256732e+03 1.44545516e+00
v 7.78150000e+03 4.92248370e+03 1.39898270e+00
v 7.78150000e+03 4.91818250e+03 1.39337976e+00
v 7.78150000e+03 4.92064355e+03 1.03625533e+00
v 7.78150000e+03 4.92119947e+03 5.90141519e-01
v 7.78150000e+03 4.92852784e+03 -2.41039608e-01
v 7.78150000e+03 4.92705997e+03 -2.50068956e-01
v 7.78150000e+03 4.92202024e+03 -2.31750922e-01
v 7.78150000e+03 4.92264865e+03 -2.53945637e-01
v 7.78150000e+03 4.92373892e+03 -5.58142492e-02
v 7.78150000e+03 4.92546383e+03 7.54997852e-02
v 7.78150000e+03 4.92070227e+03 -1.64827736e-01
v 7.78150000e+03 4.92325089e+03 1.51736374e-01
v 7.78150000e+03 4.92097596e+03 4.82763816e-01
v 7.78150000e+03 4.92076789e+03 2.77891852e-01
v 7.78150000e+03 4.90859058e+03 4.65083861e+00
v 7.78150000e+03 4.90858163e+03 1.14580585e+01
v 7.78150000e+03 4.90838913e+03 1.28557406e+01
v 7.78150000e+03 4.90861237e+03 8.22958082e+00
v 7.78150000e+03 4.90853616e+03 7.36816582e+00
v 7.78150000e+03 4.90862504e+03 6.62636990e+00
v 7.78150000e+03 4.90845987e+03 1.34118004e+01
v 7.78150000e+03 4.92124553e+03 9.75759141e-01
v 7.78150000e+03 4.90855817e+03 5.90026702e+00
v 7.78150000e+03 4.91539342e+03 3.12928305e+00
v 7.75535875e+03 4.90600000e+03 1.13358787e+01
v 7.75473756e+03 4.90600000e+03 1.13259176e+01
v 7.77652173e+03 4.90600000e+03 1.76916814e+01
v 7.77558573e+03 4.90600000e+03 1.76746849e+01
v 7.77350493e+03 4.90600000e+03 1.49732728e+01
v 7.77348455e+03 4.90600000e+03 1.52799177e+01
v 7.76878185e+03 4.90600000e+03 1.15025255e+01
v 7.76817070e+03 4.90600000e+03 1.15105345e+01
v 7.77026701e+03 4.90600000e+03 1.15978139e+01
v 7.77346605e+03 4.90600000e+03 1.21014605e+01
v 7.77350169e+03 4.90600000e+03 1.21432075e+01
v 7.77303330e+03 4.90600000e+03 1.16278480e+01
v 7.77222959e+03 4.90600000e+03 1.15962214e+01
v 7.76470974e+03 4.90600000e+03 1.30449213e+01
v 7.76411321e+03 4.90600000e+03 1.33184312e+01
v 7.76256739e+03 4.90600000e+03 1.24833644e+01
v 7.76340646e+03 4.90600000e+03 1.29322258e+01
v 7.76241550e+03 4.90600000e+03 1.14800690e+01
v 7.76251585e+03 4.90600000e+03 1.15500039e+01
v 7.76600488e+03 4.90600000e+03 1.15645338e+01
v 7.75722410e+03 4.90600000e+03 1.14185890e+01
v 7.75611360e+03 4.90600000e+03 1.13928261e+01
v 7.75548710e+03 4.90600000e+03 1.13972957e+01
v 7.76252277e+03 4.90600000e+03 1.17907950e+01
v 7.76573895e+03 4.90600000e+03 1.24552225e+01
v 7.76028604e+03 4.90600000e+03 1.14688186e+01
v 7.75817969e+03 4.90600000e+03 1.14065281e+01
v 7.75229621e+03 4.90600000e+03 1.24755396e+01
v 7.75175521e+03 4.90600000e+03 1.27303330e+01
v 7.75000000e+03 4.90600000e+03 1.36640804e+01
v 7.75020164e+03 4.90600000e+03 1.35325520e+01
v 7.77387641e+03 4.90600000e+03 1.77352199e+01
v 7.77339980e+03 4.90600000e+03 1.79075657e+01
v 7.77844005e+03 4.90600000e+03 1.77763860e+01
v 7.77345577e+03 4.90600000e+03 1.59921811e+01
v 7.77437905e+03 4.90600000e+03 1.76005115e+01
v 7.77349643e+03 4.90600000e+03 1.27120463e+01
v 7.77938934e+03 4.90600000e+03 1.78092570e+01
v 7.77993456e+03 4.90600000e+03 1.77925410e+01
v 7.78121704e+03 4.90600000e+03 1.77871530e+01
v 7.77914477e+03 4.90600000e+03 1.77825883e+01
v 7.78097878e+03 4.90600000e+03 1.77881540e+01
v 7.78150000e+03 4.90600000e+03 1.81426189e+01
v 7.77359719e+03 4.93775000e+03 -1.92645862e-01
v 7.76410413e+03 4.93775000e+03 -2.25682667e-01
v 7.76204463e+03 4.93775000e+03 -2.36784203e-01
v 7.75000000e+03 4.93775000e+03 -2.59548703e-01
v 7.76076325e+03 4.93775000e+03 -2.36994732e-01
v 7.76614909e+03 4.93775000e+03 -2.49706767e-01
v 7.77121610e+03 4.93775000e+03 -2.51512097e-01
v 7.77358469e+03 4.93775000e+03 -1.92759832e-01
v 7.78054154e+03 4.93775000e+03 -2.22356286e-01
v 7.78150000e+03 4.93775000e+03 -2.26456911e-01
vt 0.1107881 0.87113667
vt 0.12591131 0.89270627
vt 0.13097462 0.93642867
vt 0.081251353 0.92120671
vt 0.13658129 0.87662894
vt 0.13822183 0.88972986
vt 0.11910056 0.96542096
vt 0.057601511 0.85425812
vt 0.13064745 0.83001363
vt 0.078891404 0.9662779
vt 0.13205391 0.95239544
vt 0.082523949 0.80554211
vt 0.027252994 0.909302
vt 0.15799621 0.85325456
vt 0.17124005 0.88391167
vt 0.084002167 0.99373633
vt 0.042661894 0.9646647
vt 0.1330139 0.98188221
vt 0.05587047 0.83128977
vt 0.020977033 0.94603407
vt 0.021683078 0.81700134
vt 0.10499696 0.77293718
vt 0.18353298 0.82877082
vt 0.098614231 0.99334776
vt 0.054055236 0.99529666
vt 0.1252996 0.99404097
vt 0.070178553 0.77377552
vt 0.0046795118 0.912992
vt 0.004541344 0.89098918
vt 0.092578933 0.76269966
vt 0.13838799 0.7703104
vt 0.1951434 0.79498559
vt 0.1174515 0.99204624
vt 0.029301763 0.97447819
vt 0.13274176 0.99661583
vt 0.0046381326 0.92129278
vt 0.004492891 0.8414377
vt 0.11874053 0.7614817
vt 0.15031455 0.78460193
vt 0.1854187 0.76850575
vt 0.22005597 0.81354338
vt 0.21326406 0.85732263
vt 0.0093959235 0.97518408
vt 0.026378782 0.76708901
vt 0.0044924216 0.9398219
vt 0.0045351717 0.82847595
vt 0.22111325 0.77509385
vt 0.20108929 0.88221097
vt 0.0045288103 0.96079868
vt 0.0044757165 0.78668201
vt 0.051205434 0.75782639
vt 0.0044705262 0.81683916
vt 0.17332345 0.75243455
vt 0.22359559 0.75440234
vt 0.23852403 0.80204731
vt 0.2356784 0.84027398
vt 0.24013096 0.87858105
vt 0.0043788925 0.97477609
vt 0.0045078862 0.80592161
vt 0.0044939672 0.77315068
vt 0.24905235 0.76007318
vt 0.21922204 0.8875944
vt 0.0043301526 0.9845444
vt 0.0076145041 0.7590515
vt 0.26350752 0.84427088
vt 0.26874465 0.80005187
vt 0.24309297 0.88728273
vt 0.004449002 0.76268339
vt 0.27821764 0.77840066
vt 0.27826872 0.87844384
vt 0.2578218 0.89695281
vt 0.004345594 0.75904506
vt 0.30327114 0.84228545
vt 0.27019268 0.75439185
vt 0.29828939 0.79604381
vt 0.29890499 0.76692683
vt 0.30083406 0.8789463
vt 0.27961335 0.89927918
vt 0.34407803 0.83346725
vt 0.32121298 0.75762814
vt 0.32850596 0.79143065
vt 0.31888568 0.88206357
vt 0.27912581 0.91913831
vt 0.33411688 0.77273321
vt 0.29845408 0.89325196
vt 0.36269322 0.87299907
vt 0.3479757 0.79783386
vt 0.34066021 0.75963593
vt 0.34356174 0.78135824
vt 0.38697571 0.84231085
vt 0.34876427 0.88616657
vt 0.39786083 0.80992764
vt 0.39974645 0.88324386
vt 0.36911213 0.77748406
vt 0.42692578 0.85346895
vt 0.38904524 0.77096951
vt 0.36802763 0.75708723
vt 0.44684693 0.83342278
vt 0.42044166 0.87618399
vt 0.41437748 0.75957048
vt 0.4973599 0.82772517
vt 0.4625394 0.9001143
vt 0.4128724 0.88630134
vt 0.43402436 0.76995742
vt 0.49729365 0.77163529
vt 0.49736303 0.8747611
vt 0.4971011 0.92058098
vt 0.4747988 0.92264354
vt 0.46801645 0.7681784
vt 0.47918391 0.75657672
vt 0.49706948 0.75683725
vt 0.50327754 0.53223151
vt 0.52073628 0.54529047
vt 0.50328368 0.55294991
vt 0.52114457 0.52082074
vt 0.50328803 0.57349366
vt 0.50327033 0.52017629
vt 0.55525553 0.54664123
vt 0.56905931 0.56169796
vt 0.53235072 0.52012181
vt 0.52545542 0.58593351
vt 0.56636524 0.52028918
vt 0.59127039 0.54655737
vt 0.5600732 0.59660089
vt 0.50328809 0.59579688
vt 0.58596647 0.52179474
vt 0.59672356 0.55504823
vt 0.60371387 0.57014
vt 0.52883065 0.61219817
vt 0.51262087 0.60583758
vt 0.61285055 0.53724021
vt 0.61201388 0.61813927
vt 0.56930155 0.63611567
vt 0.50328499 0.60608184
vt 0.61160338 0.5149914
vt 0.62721723 0.58848345
vt 0.53912252 0.62898618
vt 0.63227677 0.52370918
vt 0.59531438 0.6347779
vt 0.64177394 0.54528069
vt 0.67304921 0.58245301
vt 0.60655904 0.63403958
vt 0.67524993 0.63508588
vt 0.65924877 0.53379071
vt 0.62059313 0.63815391
vt 0.68528056 0.55921566
vt 0.69955498 0.58363378
vt 0.63935202 0.63843173
vt 0.67850983 0.53867304
vt 0.71811497 0.63123858
vt 0.66095263 0.65060341
vt 0.6390394 0.64834797
vt 0.7292406 0.54669827
vt 0.70701206 0.64186853
vt 0.74327594 0.633304
vt 0.69581425 0.66482186
vt 0.60601389 0.64394975
vt 0.74518305 0.57863325
vt 0.68944544 0.64234996
vt 0.72673935 0.64265907
vt 0.64553457 0.66593552
vt 0.75048548 0.56513894
vt 0.71426576 0.65577412
vt 0.79054695 0.58853024
vt 0.75219893 0.64563793
vt 0.67501932 0.6939013
vt 0.60895115 0.67014778
vt 0.77579367 0.54872561
vt 0.77752435 0.57965511
vt 0.79945141 0.64830667
vt 0.77018923 0.64662349
vt 0.72800422 0.68473452
vt 0.63468122 0.68669873
vt 0.75108868 0.53011084
vt 0.82207078 0.59662724
vt 0.82626456 0.54498911
vt 0.75503051 0.65400749
vt 0.70414764 0.70584059
vt 0.64443332 0.70291877
vt 0.60755253 0.69370019
vt 0.84097844 0.63032001
vt 0.77639788 0.65183222
vt 0.77371138 0.6676293
vt 0.71395457 0.72132993
vt 0.66513854 0.71474421
vt 0.61780512 0.70311737
vt 0.59841597 0.69172168
vt 0.85813862 0.56490076
vt 0.85623342 0.59479934
vt 0.83316356 0.65349448
vt 0.8011812 0.66533941
vt 0.79380906 0.70134431
vt 0.72531766 0.70992732
vt 0.64466614 0.72031188
vt 0.63544941 0.72813928
vt 0.61367327 0.71379304
vt 0.6001581 0.64654404
vt 0.8616277 0.53542507
vt 0.85300785 0.58048964
vt 0.87500989 0.61557138
vt 0.85080844 0.65178931
vt 0.81794733 0.65964735
vt 0.76901561 0.7120744
vt 0.74858791 0.70791912
vt 0.68177986 0.72483051
vt 0.64408004 0.72347271
vt 0.62328541 0.72620404
vt 0.58924472 0.69599587
vt 0.57763064 0.65005308
vt 0.88114023 0.53907931
vt 0.87769198 0.57697129
vt 0.90101933 0.58761406
vt 0.86207241 0.63033068
vt 0.8295545 0.70859802
vt 0.8051964 0.69144523
vt 0.72992319 0.72143459
vt 0.67217553 0.75184971
vt 0.69994557 0.72363544
vt 0.60118794 0.72134954
vt 0.91339856 0.60509324
vt 0.86896104 0.65356481
vt 0.85352534 0.68347669
vt 0.81376415 0.70923054
vt 0.76312196 0.7180984
vt 0.71857846 0.72159064
vt 0.68871188 0.73764169
vt 0.62022054 0.75082177
vt 0.50338244 0.78949416
vt 0.90472871 0.5644663
vt 0.91421878 0.58392447
vt 0.92211813 0.62744445
vt 0.89730173 0.6447624
vt 0.85936505 0.66191995
vt 0.86960912 0.71353292
vt 0.7351647 0.73886681
vt 0.69896698 0.75233459
vt 0.65110141 0.77332413
vt 0.5779317 0.78190792
vt 0.50333428 0.64181644
vt 0.90747416 0.5354771
vt 0.94347686 0.59761584
vt 0.93444312 0.60794908
vt 0.89347041 0.65641016
vt 0.8851949 0.67879379
vt 0.84464395 0.71672755
vt 0.87820888 0.69020808
vt 0.71216285 0.73634398
vt 0.76059771 0.73184568
vt 0.73722649 0.78563148
vt 0.69988632 0.77880836
vt 0.60562438 0.76449209
vt 0.61943501 0.82708466
vt 0.93691689 0.55359209
vt 0.9474647 0.57598001
vt 0.95119894 0.61447203
vt 0.91118979 0.65704441
vt 0.81330734 0.71599686
vt 0.87072468 0.72826308
vt 0.88949972 0.71477675
vt 0.71344513 0.75242662
vt 0.78523153 0.74259949
vt 0.74831468 0.74755025
vt 0.67461801 0.80855912
vt 0.69164717 0.99614686
vt 0.92994648 0.53421211
vt 0.99197674 0.58270133
vt 0.96017408 0.6577307
vt 0.92844766 0.65926361
vt 0.91788363 0.67354345
vt 0.90372604 0.70105243
vt 0.81709146 0.7347213
vt 0.88899189 0.72189713
vt 0.85362887 0.72798347
vt 0.72686648 0.75719941
vt 0.69669443 0.73545432
vt 0.7677002 0.74646217
vt 0.79311651 0.71607858
vt 0.74113214 0.74884319
vt 0.62780684 0.72713041
vt 0.67162561 0.99615335
vt 0.72382694 0.99613631
vt 0.94852501 0.54409862
vt 0.96181679 0.63029158
vt 0.9274525 0.68040693
vt 0.84112877 0.72989416
vt 0.7983287 0.72458529
vt 0.91059554 0.7208845
vt 0.7033444 0.75815141
vt 0.77773952 0.75644386
vt 0.73508066 0.80669355
vt 0.74566931 0.88391221
vt 0.50344956 0.99620813
vt 0.99548233 0.5875603
vt 0.94205844 0.66752326
vt 0.99548662 0.60110533
vt 0.96985263 0.64383161
vt 0.93253767 0.70219815
vt 0.82491899 0.75083274
vt 0.80374241 0.75588971
vt 0.84678507 0.7339853
vt 0.78265673 0.77503484
vt 0.77167219 0.80265403
vt 0.77559477 0.82831347
vt 0.70062196 0.82610226
vt 0.81128246 0.92775309
vt 0.98369789 0.55648237
vt 0.99548608 0.59811568
vt 0.99547958 0.58145338
vt 0.98209906 0.66984499
vt 0.995489 0.61529839
vt 0.9747619 0.65219218
vt 0.97598875 0.6415863
vt 0.84258938 0.75560993
vt 0.81548637 0.76056504
vt 0.91712302 0.72339964
vt 0.76731908 0.78156888
vt 0.75577962 0.99612617
vt 0.97347641 0.54161298
vt 0.99547005 0.55439842
vt 0.9954778 0.57669556
vt 0.97771591 0.70310926
vt 0.98807019 0.63926029
vt 0.82529473 0.75801384
vt 0.80304527 0.79662156
vt 0.94428152 0.72431779
vt 0.76738322 0.75914395
vt 0.82772917 0.84376198
vt 0.83495188 0.99610054
vt 0.99227327 0.54122043
vt 0.99551606 0.67317635
vt 0.99549395 0.63933712
vt 0.83171177 0.75944614
vt 0.7553907 0.75136179
vt 0.84224498 0.79702508
vt 0.8719607 0.99608791
vt 0.87046748 0.92264897
vt 0.9954654 0.54313409
vt 0.99552548 0.69028711
vt 0.96760547 0.72150493
vt 0.84069848 0.7914955
vt 0.74437201 0.76626635
vt 0.88166028 0.80023324
vt 0.87215608 0.99608785
vt 0.9489392 0.81624871
vt 0.96046829 0.72836304
vt 0.90229678 0.78051966
vt 0.99562609 0.95882863
vt 0.98066199 0.99605298
vt 0.94855499 0.73219299
vt 0.9655863 0.73169947
vt 0.90922582 0.79819834
vt 0.9015063 0.79678625
vt 0.9955914 0.85195178
vt 0.93065065 0.79261506
vt 0.90349871 0.79541469
vt 0.99558407 0.82901639
vt 0.99563795 0.99604815
vt 0.95555234 0.78688693
vt 0.9865005 0.79372269
vt 0.95825899 0.78206277
vt 0.99557328 0.80407298
vt 0.96478552 0.79061663
vt 0.95226288 0.7848053
vt 0.99556565 0.77712268
vt 0.97520828 0.7831955
vt 0.962937 0.77691197
vt 0.98325145 0.77961934
vt 0.94052273 0.72953343
vt 0.98023546 0.77318788
vt 0.97196776 0.75017619
vt 0.96816885 0.73882169
vt 0.20414767 0.45584065
vt 0.26329282 0.4678607
vt 0.16513857 0.46474421
vt 0.19994557 0.47363544
vt 0.19896698 0.50233459
vt 0.23722646 0.53563142
vt 0.27167216 0.55265403
vt 0.34224498 0.54702508
vt 0.40229681 0.53051966
vt 0.44052273 0.47953343
vt 0.12780684 0.47713041
vt 0.14466614 0.47031188
vt 0.12022053 0.50082183
vt 0.71857846 0.22159064
vt 0.71216285 0.23634404
vt 0.68623585 0.22884661
vt 0.69928366 0.22310066
vt 0.69669443 0.23545432
vt 0.66443872 0.23699665
vt 0.67811406 0.25901067
vt 0.7033444 0.25815141
vt 0.65856135 0.27854264
vt 0.69908983 0.2698859
vt 0.68409055 0.28729719
vt 0.63477278 0.25388497
vt 0.71344513 0.25242662
vt 0.63921982 0.26854479
vt 0.64530158 0.23807859
vt 0.72983462 0.26250219
vt 0.71245927 0.28635454
vt 0.61928451 0.26216602
vt 0.62632066 0.24223405
vt 0.7435953 0.29548746
vt 0.71182632 0.29154372
vt 0.74437201 0.26626635
vt 0.72268939 0.29547405
vt 0.76731908 0.28156883
vt 0.80304527 0.29662156
vt 0.12780684 0.72713041
vt 0.10118794 0.72134954
vt 0.11288834 0.71427155
vt 0.44893917 0.56624877
vt 0.45226288 0.5348053
vt 0.46478549 0.54061663
vt 0.44052273 0.72953343
vt 0.46472248 0.72984481
vt 0.46816885 0.73882169
vt 0.34069851 0.2914955
vt 0.33294573 0.30270356
vt 0.3030453 0.29662156
vt 0.35254374 0.29896766
vt 0.66582209 0.48127681
vt 0.65463382 0.48154664
vt 0.63735783 0.46710366
vt 0.6915735 0.46947724
vt 0.70672721 0.49599344
vt 0.66484272 0.38624942
vt 0.75981408 0.47928232
vt 0.69112563 0.49388736
vt 0.6978786 0.41483015
vt 0.58761251 0.43624157
vt 0.715168 0.45896858
vt 0.72047222 0.41323864
vt 0.70364094 0.42277342
vt 0.53119874 0.39944118
vt 0.75393397 0.46801615
vt 0.55948633 0.42665386
vt 0.52589512 0.35430223
vt 0.71476114 0.43548417
vt 0.50373644 0.30342746
vt 0.50708789 0.3856957
vt 0.51187027 0.30332613
vt 0.50531763 0.3777886
vt 0.064061932 0.61216772
vt 0.033082653 0.55610579
vt 0.079715401 0.55868191
vt 0.083859809 0.61573815
vt 0.029981032 0.5701977
vt 0.058216691 0.5284543
vt 0.073262736 0.65070683
vt 0.0047375243 0.50860298
vt 0.054502476 0.60470945
vt 0.030232806 0.51085037
vt 0.092484429 0.68444353
vt 0.063181244 0.62868965
vt 0.29640019 0.61538261
vt 0.27769619 0.59779608
vt 0.30092421 0.60332894
vt 0.28875095 0.62116396
vt 0.28614783 0.61872017
vt 0.26609197 0.60119784
vt 0.25946626 0.5947327
vt 0.25910786 0.59524804
vt 0.22951916 0.54752791
vt 0.22759114 0.56839979
vt 0.21957199 0.5634402
vt 0.21791516 0.56278282
vt 0.20982754 0.5576911
vt 0.19549173 0.54887414
vt 0.22248265 0.53525519
vt 0.18315578 0.54107535
vt 0.15596446 0.52443498
vt 0.17891581 0.51140517
vt 0.12847473 0.50729191
vt 0.130771 0.50252986
vt 0.15697826 0.49112988
vt 0.13597827 0.48950297
vt 0.17335358 0.68772876
vt 0.17564896 0.71464217
vt 0.16639641 0.71310234
vt 0.17068459 0.69342923
vt 0.16638558 0.69143677
vt 0.16687813 0.6542626
vt 0.19194098 0.58320808
vt 0.15945551 0.64086109
vt 0.17421857 0.60628712
vt 0.1698377 0.59243643
vt 0.16112098 0.59309065
vt 0.17366135 0.57369542
vt 0.16938372 0.57179761
vt 0.17117868 0.56911755
vt 0.16739723 0.99041754
vt 0.19617786 0.99027067
vt 0.051652424 0.99569321
vt 0.31508228 0.94607532
vt 0.30760124 0.9521265
vt 0.30125821 0.94482511
vt 0.30401111 0.96618485
vt 0.28919107 0.96484619
vt 0.28147653 0.97668469
vt 0.29236862 0.95422584
vt 0.30265701 0.98455048
vt 0.26555926 0.96683753
vt 0.27401561 0.94876862
vt 0.27834222 0.92795509
vt 0.30234188 0.99240398
vt 0.27265018 0.98109376
vt 0.25802279 0.98396218
vt 0.25410473 0.95439118
vt 0.2643784 0.93047369
vt 0.23731206 0.97528398
vt 0.22356421 0.99545068
vt 0.21903092 0.96922225
vt 0.24878532 0.93367445
vt 0.21157181 0.98836273
vt 0.21514891 0.94811952
vt 0.27996218 0.92161214
vt 0.2021977 0.98349053
vt 0.19186319 0.96000552
vt 0.22342393 0.93591696
vt 0.20138906 0.96746379
vt 0.20136739 0.95018888
vt 0.11570892 0.71116626
vt 0.12960699 0.66429859
vt 0.12267692 0.71487427
vt 0.11484393 0.62972462
vt 0.10200298 0.61824036
vt 0.1238565 0.61436832
vt 0.097121522 0.60664558
vt 0.11770286 0.60296226
vt 0.11788381 0.59255505
vt 0.33923703 0.6429044
vt 0.37040958 0.6248852
vt 0.34588814 0.65939695
vt 0.31653082 0.67042565
vt 0.34217393 0.5831418
vt 0.32067522 0.61336941
vt 0.33720937 0.68337715
vt 0.3956531 0.56329048
vt 0.37015781 0.56553787
vt 0.40288576 0.99634105
vt 0.37163666 0.97542185
vt 0.37087652 0.95887059
vt 0.39408144 0.95886201
vt 0.37301078 0.99633998
vt 0.36132726 0.95887363
vt 0.43648422 0.98306781
vt 0.35485262 0.99657434
vt 0.32738301 0.96665239
vt 0.42474699 0.95885211
vt 0.32748565 0.958884
vt 0.43730462 0.95884764
vt 0.33141705 0.98560476
vt 0.31682065 0.98211336
vt 0.39671922 0.95145762
vt 0.36488524 0.94780093
vt 0.41125026 0.9464618
vt 0.41763532 0.95110232
vt 0.37540305 0.95365971
vt 0.41029298 0.92707002
vt 0.43978715 0.95515931
vt 0.34846053 0.95373189
vt 0.46308213 0.95321262
vt 0.45564398 0.96510106
vt 0.39619565 0.68417788
vt 0.38174328 0.67361808
vt 0.39247832 0.6559478
vt 0.40606108 0.67722458
vt 0.42904055 0.66764104
vt 0.41489816 0.6434201
vt 0.39667696 0.64355838
vt 0.44787621 0.63797039
vt 0.37868795 0.64582777
vt 0.41557878 0.62919688
vt 0.4901641 0.65238017
vt 0.48633465 0.62155253
vt 0.45938921 0.67361885
vt 0.4847973 0.66946906
vt 0.49489745 0.67126042
vt 0.47583902 0.68110192
vt 0.15955457 0.95710385
vt 0.15934828 0.94099098
vt 0.19240664 0.950728
vt 0.19234383 0.95548689
vt 0.18881571 0.90623915
vt 0.17012265 0.98498309
vt 0.19235834 0.91611409
vt 0.16698611 0.89422679
vt 0.19225773 0.96648473
vt 0.19237001 0.90738428
vt 0.19225483 0.90685219
vt 0.19209516 0.99599504
vt 0.19085649 0.9009012
vt 0.066345349 0.43024004
vt 0.073046766 0.42799842
vt 0.097200185 0.44491088
vt 0.062059626 0.44329739
vt 0.093032643 0.46599329
vt 0.044842575 0.42725337
vt 0.10304902 0.4610123
vt 0.048348494 0.45619291
vt 0.0448834 0.43950236
vt 0.10058946 0.47546101
vt 0.073485799 0.4816522
vt 0.086188428 0.49183774
vt 0.013191888 0.47951376
vt 0.027159359 0.445638
vt 0.093713172 0.49382782
vt 0.074901678 0.49544024
vt 0.037248705 0.49449527
vt 0.02386334 0.4584657
vt 0.010092615 0.44794744
vt 0.023172716 0.48968261
vt 0.0029378883 0.45924199
vt 0.48337573 0.40285397
vt 0.5156157 0.40655679
vt 0.51618505 0.42970109
vt 0.50018311 0.43507504
vt 0.51611781 0.40518743
vt 0.52012384 0.40305012
vt 0.50276583 0.45543092
vt 0.45952481 0.46318865
vt 0.47374725 0.48231584
vt 0.45465189 0.45741844
vt 0.49389097 0.4762612
vt 0.46003342 0.47492665
vt 0.45054793 0.45848066
vt 0.45289612 0.44351166
vt 0.50389862 0.47160155
vt 0.50032246 0.47963697
vt 0.45814005 0.48451453
vt 0.45043945 0.45481229
vt 0.47521144 0.49442351
vt 0.46426839 0.48975766
vt 0.44906616 0.45618004
vt 0.47819665 0.49455947
vt 0.4675546 0.49067134
vt 0.45813951 0.48955882
vt 0.44669342 0.4597494
vt 0.4795028 0.49484688
vt 0.45240256 0.46307409
vt 0.50486159 0.48505753
vt 0.44220802 0.46323222
vt 0.48148432 0.49643946
vt 0.49712116 0.49651396
vt 0.2429118 0.64415389
vt 0.21569376 0.65128136
vt 0.23661584 0.63213694
vt 0.26276061 0.62582636
vt 0.22804072 0.66328633
vt 0.19190653 0.65019041
vt 0.26590985 0.63936985
vt 0.24077059 0.65901482
vt 0.21485721 0.63822627
vt 0.25913772 0.65189105
vt 0.25078687 0.67100203
vt 0.26612076 0.66289246
vt 0.23423168 0.6788125
vt 0.28329951 0.6621598
vt 0.2731671 0.63814914
vt 0.26296431 0.68429315
vt 0.27775472 0.64453626
vt 0.15847442 0.96500301
vt 0.15313864 0.9499709
vt 0.14979073 0.91569424
vt 0.15768155 0.95190716
vt 0.14878564 0.99677837
vt 0.1453186 0.91406149
vt 0.1336479 0.68485165
vt 0.13065812 0.68610942
vt 0.14009115 0.65460867
vt 0.14349045 0.65006745
vt 0.13933565 0.73108327
vt 0.13745138 0.65144306
vt 0.12841682 0.69908792
vt 0.47395739 0.99642622
vt 0.4705694 0.99442691
vt 0.4692252 0.94685835
vt 0.46550632 0.94324708
vt 0.46639237 0.91703236
vt 0.36965057 0.93192714
vt 0.33575207 0.92769301
vt 0.35069963 0.90931928
vt 0.30922326 0.91484773
vt 0.29998258 0.93185532
vt 0.31819326 0.93289846
vt 0.18381147 0.66221237
vt 0.20197716 0.67178744
vt 0.17621107 0.72959149
vt 0.19456093 0.69482994
vt 0.22032875 0.92763942
vt 0.21988702 0.91004336
vt 0.2404536 0.92896903
vt 0.21152242 0.9176566
vt 0.24038912 0.91571438
vt 0.1959914 0.92083156
vt 0.25608414 0.91468811
vt 0.19057807 0.93265694
vt 0.91234136 0.75070542
vt 0.89912975 0.75240952
vt 0.89638442 0.74604452
vt 0.88005275 0.76049966
vt 0.88201588 0.74752426
vt 0.88503915 0.77251947
vt 0.8960731 0.77676648
vt 0.86490715 0.76652557
vt 0.87038767 0.74799895
vt 0.85872877 0.75363481
vt 0.85380352 0.76560897
vt 0.84826922 0.7515223
vt 0.31755272 0.97924966
vt 0.30788767 0.96674889
vt 0.32202938 0.97192621
vt 0.033421643 0.65988767
vt 0.034334324 0.64399159
vt 0.059842728 0.65952718
vt 0.055597924 0.66494107
vt 0.014045627 0.66527259
vt 0.02509311 0.62469923
vt 0.047468547 0.67559248
vt 0.013097978 0.63823003
vt 0.015594257 0.6730876
vt 0.06174634 0.65674913
vt 0.045613695 0.67802274
vt 0.0049605565 0.65222085
vt 0.029764319 0.67867053
vt 0.010574701 0.6712693
vt 0.067232534 0.64946699
vt 0.043415774 0.68455815
vt 0.0029335688 0.66192877
vt 0.31805566 0.90745121
vt 0.30256245 0.91701221
vt 0.28584307 0.91700083
vt 0.298623 0.89860898
vt 0.34426457 0.90513653
vt 0.34806061 0.89711821
vt 0.024812516 0.70427489
vt 0.024333069 0.6847266
vt 0.048536379 0.71548009
vt 0.0031666111 0.69594336
vt 0.064074278 0.69205344
vt 0.0077480595 0.70665622
vt 0.33085746 0.95500803
vt 0.31732038 0.94968128
vt 0.37693176 0.93381011
vt 0.31790549 0.95431042
vt 0.32519233 0.96409827
vt 0.21919212 0.7137475
vt 0.19520853 0.69765693
vt 0.23975866 0.71562219
vt 0.19190378 0.70772028
vt 0.22380328 0.69024056
vt 0.25030071 0.710343
vt 0.24553712 0.69473469
vt 0.227531 0.6882087
vt 0.28792721 0.6788317
vt 0.29731023 0.68770444
vt 0.2857393 0.68150663
vt 0.28607872 0.67822635
vt 0.30003911 0.66375583
vt 0.29173544 0.69842851
vt 0.32096833 0.6825459
vt 0.28490147 0.69056451
vt 0.30599809 0.69814897
vt 0.28645128 0.66776347
vt 0.28433952 0.69681919
vt 0.30254051 0.71464062
vt 0.28691775 0.6575799
vt 0.43559489 0.93347317
vt 0.41690114 0.92346394
vt 0.4490456 0.93274194
vt 0.4132359 0.92606896
vt 0.43100503 0.91201049
vt 0.39359245 0.92113411
vt 0.39397669 0.92800736
vt 0.36760888 0.67453313
vt 0.34804863 0.66881251
vt 0.36406204 0.66050011
vt 0.35171157 0.68513811
vt 0.37260649 0.68740666
vt 0.37502539 0.67535216
vt 0.35349885 0.71061295
vt 0.38591665 0.68499506
vt 0.37541008 0.69000113
vt 0.35358235 0.71538419
vt 0.49055111 0.96060932
vt 0.48974571 0.94542658
vt 0.49748066 0.95092475
vt 0.49276072 0.98909593
vt 0.47169787 0.95144653
vt 0.49699849 0.97244877
vt 0.48019686 0.973306
vt 0.49597561 0.9951489
vt 0.48701936 0.99621123
vt 0.15653922 0.63569695
vt 0.14552651 0.64771914
vt 0.12884161 0.63263011
vt 0.14904362 0.67070097
vt 0.14255273 0.68285775
vt 0.019879678 0.59753191
vt 0.014728313 0.5749703
vt 0.039418697 0.58553761
vt 0.044956204 0.59285194
vt 0.010341681 0.59488368
vt 0.027804615 0.57032299
vt 0.045796007 0.62062347
vt 0.004193956 0.59307444
vt 0.050257437 0.60249662
vt 0.039679628 0.61669976
vt 0.054560367 0.60700238
vt 0.4334895 0.69768977
vt 0.42076558 0.68977761
vt 0.43517667 0.68388778
vt 0.41241279 0.7149868
vt 0.42398319 0.71047831
vt 0.40926862 0.6931746
vt 0.4423086 0.70149457
vt 0.45270538 0.69894648
vt 0.44571778 0.68437397
vt 0.45806926 0.68549204
vt 0.1522395 0.91643977
vt 0.14608689 0.90555775
vt 0.16446778 0.90312397
vt 0.23968054 0.59442067
vt 0.22048323 0.60002923
vt 0.19104093 0.59990627
vt 0.20615663 0.6219033
vt 0.46081138 0.99259049
vt 0.45777172 0.99695241
vt 0.46317151 0.95308787
vt 0.46386573 0.95657295
vt 0.46200657 0.99570328
vt 0.46583873 0.9484421
vt 0.14023203 0.58534235
vt 0.14676908 0.57769048
vt 0.16171183 0.58408666
vt 0.16136441 0.60767627
vt 0.13318528 0.58053398
vt 0.16250397 0.57948071
vt 0.13184553 0.58608413
vt 0.13271162 0.5850333
vt 0.16036557 0.57427651
vt 0.15160607 0.62196869
vt 0.13362916 0.59494376
vt 0.12923238 0.58864355
vt 0.13184553 0.96108413
vt 0.13491851 0.9586826
vt 0.14023203 0.96034235
vt 0.3636775 0.88759077
vt 0.35802487 0.90001988
vt 0.34770474 0.89334482
vt 0.37887099 0.93353361
vt 0.069176808 0.70764077
vt 0.083832048 0.69499141
vt 0.087900914 0.70985305
vt 0.073980436 0.68671227
vt 0.093643054 0.6898334
vt 0.065752149 0.69608027
vt 0.10906791 0.71159613
vt 0.10532756 0.71494651
vt 0.44346088 0.61354458
vt 0.42356911 0.60453928
vt 0.44883975 0.60261941
vt 0.41671774 0.61442208
vt 0.43244517 0.59075677
vt 0.43474111 0.62162346
vt 0.41099596 0.6024698
vt 0.4136101 0.57996327
vt 0.26994431 0.58367044
vt 0.29485258 0.58289552
vt 0.27715263 0.5896486
vt 0.27464962 0.56662494
vt 0.25750768 0.5716176
vt 0.27727267 0.55699503
vt 0.25429472 0.55760741
vt 0.25930083 0.553967
vt 0.44339463 0.61322111
vt 0.46424076 0.57970738
vt 0.47013071 0.583444
vt 0.45962083 0.60288179
vt 0.47555372 0.60234904
vt 0.44056422 0.62187815
vt 0.45610282 0.61385202
vt 0.019382883 0.97590303
vt 0.032486644 0.9757967
vt 0.022507792 0.99375391
vt 0.0035982837 0.99209595
vt 0.031847209 0.99594551
vt 0.042388733 0.99591565
vt 0.50168043 0.69096959
vt 0.49705166 0.67487395
vt 0.50183296 0.68121767
vt 0.48578522 0.68733776
vt 0.50185484 0.67789149
vt 0.49865136 0.70335716
vt 0.48120245 0.67671937
vt 0.50221694 0.67618895
vt 0.49610004 0.71390176
vt 0.47247195 0.70901132
vt 0.38396972 0.89521557
vt 0.38625681 0.89746082
vt 0.37901637 0.91757512
vt 0.39279947 0.91742814
vt 0.38374114 0.93295199
vt 0.13688795 0.96198249
vt 0.14317085 0.99603111
vt 0.13755928 0.98274702
vt 0.14322062 0.95998043
vt 0.20213579 0.91776156
vt 0.19803305 0.91523767
vt 0.21459557 0.91011685
vt 0.20194089 0.88551795
vt 0.19118416 0.9076916
vt 0.39416498 0.90759552
vt 0.39878985 0.89420134
vt 0.42079809 0.89591944
vt 0.42372987 0.90459031
vt 0.42822281 0.89622492
vt 0.40470403 0.91714793
vt 0.27627835 0.71447092
vt 0.27225754 0.70711291
vt 0.28400549 0.68142712
vt 0.25455454 0.71049404
vt 0.98886478 0.75682211
vt 0.98422438 0.76231945
vt 0.98170441 0.75065672
vt 0.99653047 0.7517218
vt 0.97349447 0.75190365
vt 0.99141705 0.73062479
vt 0.98744899 0.72793126
vt 0.036021609 0.96683317
vt 0.042596634 0.9794004
vt 0.044805691 0.99570274
vt 0.24170488 0.99496764
vt 0.24233471 0.98992634
vt 0.25166947 0.98536897
vt 0.22324657 0.99617028
vt 0.26536316 0.98717922
vt 0.28225079 0.98532492
vt 0.25462192 0.99624777
vt 0.2571784 0.98814434
vt 0.15940161 0.97228116
vt 0.16223431 0.96640795
vt 0.17504726 0.99653316
vt 0.4402644 0.98600489
vt 0.44433939 0.9966715
vt 0.42623129 0.99348855
vt 0.45539567 0.98505127
vt 0.19976938 0.96885633
vt 0.19759262 0.99138772
vt 0.19099666 0.99098563
vt 0.19047987 0.97109252
vt 0.19148991 0.99574143
vt 0.32150012 0.94561756
vt 0.32401714 0.94327879
vt 0.32678965 0.94847327
vt 0.31624565 0.93936229
vt 0.34370282 0.92960358
vt 0.29556349 0.91861361
vt 0.29152104 0.93382561
vt 0.27027312 0.9207257
vt 0.22550425 0.99607551
vt 0.20887372 0.99624836
vt 0.19889686 0.99054658
vt 0.2619054 0.9932965
vt 0.28607133 0.98718274
vt 0.27815646 0.99333495
vt 0.26212725 0.99654979
vt 0.26609436 0.99695504
vt 0.33886695 0.99386084
vt 0.33186898 0.98947167
vt 0.33361474 0.98903924
vt 0.31727394 0.99677837
vt 0.3218708 0.98390669
vt 0.22166824 0.93648523
vt 0.20859586 0.93673217
vt 0.22011851 0.93410194
vt 0.19863306 0.94077426
vt 0.19920768 0.93222237
vt 0.44835028 0.9796443
vt 0.44229349 0.96472418
vt 0.45364803 0.96831405
vt 0.45572275 0.97225088
vt 0.44202563 0.96183068
vt 0.49851808 0.93370736
vt 0.4874973 0.93063128
vt 0.5016759 0.91441691
vt 0.5047214 0.92351115
vt 0.476152 0.93898696
vt 0.49296707 0.93546689
vt 0.47614598 0.94873828
vt 0.47219157 0.94270366
vt 0.47440127 0.92865729
vt 0.46221155 0.93364048
vt 0.45705387 0.92213392
vt 0.23275453 0.89969754
vt 0.22533706 0.90237683
vt 0.22176696 0.89632118
vt 0.24074355 0.8897447
vt 0.22305568 0.88748008
vt 0.14547108 0.97917843
vt 0.1499545 0.98483384
vt 0.14412567 0.99582756
vt 0.2844649 0.98119348
vt 0.29224023 0.98526126
vt 0.28548321 0.9960615
vt 0.47859672 0.99327821
vt 0.47346374 0.98468351
vt 0.48338661 0.98618233
vt 0.48390242 0.99623698
vt 0.16240633 0.98227501
vt 0.15642014 0.98882943
vt 0.15141806 0.98517472
vt 0.15338606 0.98186183
vt 0.15521672 0.97813034
vt 0.042736832 0.9937219
vt 0.049103998 0.99019724
vt 0.043070834 0.99590069
vt 0.042678721 0.99535882
vt 0.04658493 0.98952031
vt 0.048977666 0.98947114
usemtl Tile_+038_+020_L19_000202_0
f 278/950 279/951 281/952
f 441/112 199/113 204/114
f 442/953 278/950 281/952
f 13/787 9/788 10/789
f 283/117 196/115 441/112
f 53/932 440/933 52/934
f 285/125 284/116 317/121
f 278/130 442/134 285/125
f 237/524 238/525 310/526
f 267/829 419/830 417/831
f 102/245 141/285 139/271
f 58/205 71/218 93/226
f 77/770 76/771 72/772
f 405/1 424/2 271/3
f 303/910 294/911 301/912
f 217/41 218/47 171/55
f 174/15 47/14 176/23
f 255/158 328/162 330/169
f 69/732 56/733 94/734
f 336/128 357/136 358/132
f 167/211 246/212 168/189
f 142/595 259/596 184/597
f 275/915 227/916 140/917
f 400/233 399/222 430/202
f 197/105 196/110 283/111
f 287/457 312/458 288/459
f 194/445 403/446 245/447
f 530/16 292/7 531/24
f 289/664 291/665 294/666
f 250/529 239/527 242/528
f 242/528 425/531 250/529
f 244/533 195/534 309/535
f 291/670 293/671 303/672
f 153/393 215/396 101/390
f 299/1008 304/1009 302/1010
f 89/692 147/693 103/694
f 233/244 234/284 206/270
f 206/270 235/246 233/244
f 270/297 259/315 142/287
f 206/270 205/259 235/246
f 311/582 271/583 532/584
f 174/542 439/543 534/544
f 272/6 424/2 402/5
f 541/870 435/871 542/872
f 537/592 272/589 539/594
f 421/875 436/873 437/877
f 434/554 437/550 276/549
f 535/547 437/550 547/552
f 406/93 189/90 316/95
f 543/891 433/892 551/893
f 413/897 438/894 435/900
f 397/8 398/19 401/12
f 163/126 333/135 332/131
f 175/42 277/57 411/48
f 409/452 408/454 403/446
f 48/86 406/93 225/91
f 335/84 172/89 166/81
f 410/70 407/77 414/78
f 171/55 412/56 217/41
f 316/95 315/99 406/93
f 191/812 82/813 132/814
f 547/876 436/873 552/874
f 406/93 48/86 189/90
f 435/83 414/78 413/85
f 412/56 175/42 217/41
f 294/911 237/913 301/912
f 542/899 438/894 544/896
f 545/475 225/474 553/473
f 553/473 406/471 554/472
f 406/471 198/465 548/470
f 244/533 309/535 305/536
f 245/538 244/533 305/536
f 421/71 414/78 435/83
f 12/790 282/794 279/795
f 410/70 414/78 421/71
f 437/550 434/554 421/555
f 334/97 31/94 352/88
f 44/92 49/79 30/87
f 251/73 410/70 170/65
f 226/477 225/474 433/476
f 407/77 226/82 413/85
f 437/550 439/543 276/549
f 433/476 413/478 226/477
f 214/496 212/497 257/498
f 87/324 214/314 257/332
f 143/598 146/603 205/600
f 87/324 154/316 106/301
f 45/101 40/106 316/95
f 316/95 313/98 45/101
f 164/104 269/109 197/105
f 13/787 12/790 278/793
f 19/423 41/424 18/425
f 128/275 130/247 187/260
f 98/157 427/152 432/161
f 183/854 54/855 95/856
f 117/439 120/442 122/444
f 26/391 186/394 27/395
f 89/692 264/695 147/693
f 106/301 154/316 129/289
f 160/505 158/506 258/502
f 384/609 265/606 385/604
f 265/516 384/519 135/514
f 235/246 399/222 233/244
f 206/270 234/284 270/297
f 346/269 345/256 339/268
f 210/170 348/181 350/190
f 400/233 344/221 343/243
f 399/222 235/246 104/234
f 103/694 147/693 431/696
f 147/192 429/172 231/183
f 429/172 79/166 428/156
f 79/166 78/178 70/185
f 429/172 105/204 75/193
f 399/222 85/214 430/202
f 232/191 430/202 85/214
f 86/215 85/214 431/223
f 429/172 147/192 88/203
f 429/172 75/193 29/184
f 78/178 79/166 429/172
f 79/166 99/173 432/161
f 150/1002 314/1003 42/1004
f 220/124 358/132 1/133
f 98/157 432/161 96/167
f 432/161 422/151 428/156
f 360/566 361/567 98/568
f 326/146 355/141 202/140
f 426/148 358/132 363/143
f 363/143 356/150 51/154
f 51/154 364/163 362/159
f 432/161 427/152 422/151
f 98/157 361/145 427/152
f 364/163 51/154 50/160
f 428/156 364/163 429/172
f 364/163 428/156 362/159
f 363/143 362/159 428/156
f 422/151 427/152 426/148
f 358/132 357/136 355/141
f 255/158 209/155 254/147
f 32/165 50/160 209/155
f 365/177 33/182 231/183
f 429/172 364/163 365/177
f 210/682 350/683 430/684
f 210/170 33/182 34/171
f 347/201 350/190 348/181
f 209/155 356/150 254/147
f 254/147 355/141 326/146
f 329/40 327/54 218/47
f 224/198 323/210 321/188
f 167/211 325/199 321/188
f 319/229 246/212 167/211
f 354/242 340/231 249/220
f 344/221 349/213 248/200
f 353/232 345/256 343/243
f 346/269 233/244 343/243
f 233/244 400/233 343/243
f 210/170 430/202 232/191
f 248/200 353/232 344/221
f 248/200 340/231 353/232
f 32/738 365/739 50/740
f 33/182 210/170 232/191
f 50/160 356/150 209/155
f 50/740 365/739 364/742
f 322/176 321/188 324/175
f 362/159 363/143 51/154
f 359/139 1/133 358/132
f 361/145 358/132 426/148
f 358/132 361/145 360/142
f 202/140 357/136 336/128
f 332/131 334/138 336/128
f 328/162 273/153 327/168
f 355/141 357/136 202/140
f 334/138 202/140 336/128
f 336/963 338/964 337/965
f 336/128 337/123 332/131
f 352/88 335/84 203/80
f 201/118 199/113 196/115
f 322/176 330/169 327/168
f 327/168 330/169 328/162
f 327/54 221/61 218/47
f 273/153 221/174 327/168
f 326/146 203/149 273/153
f 334/138 352/144 202/140
f 334/138 332/131 333/135
f 336/128 220/124 200/119
f 273/153 328/162 255/158
f 200/119 338/127 336/128
f 358/132 360/142 359/139
f 51/154 356/150 50/160
f 209/155 255/158 351/164
f 324/175 325/199 168/189
f 344/221 347/201 349/213
f 248/200 349/213 348/181
f 340/231 339/268 345/256
f 344/221 353/232 343/243
f 339/994 342/995 346/996
f 343/243 345/256 346/269
f 35/241 354/242 249/220
f 321/188 322/176 224/198
f 321/188 325/199 324/175
f 323/38 224/31 219/22
f 262/265 320/253 263/240
f 167/211 321/188 323/210
f 263/240 320/253 319/229
f 197/105 45/101 44/92
f 200/119 220/124 317/121
f 52/576 9/579 38/578
f 199/113 200/119 284/116
f 312/458 287/457 557/460
f 312/108 198/103 39/102
f 556/462 312/458 558/461
f 312/108 39/102 288/107
f 299/925 303/926 300/927
f 294/911 302/914 237/913
f 305/688 306/689 296/690
f 300/927 304/928 299/925
f 301/929 237/931 310/930
f 559/26 307/18 560/35
f 295/451 306/456 194/445
f 301/929 300/927 303/926
f 292/7 298/10 318/4
f 237/479 302/480 304/481
f 308/482 237/479 304/481
f 310/483 308/482 304/481
f 311/11 307/18 292/7
f 291/670 290/674 293/671
f 305/448 296/455 295/451
f 306/689 295/691 296/690
f 299/669 294/666 291/665
f 293/667 289/664 294/666
f 290/674 289/676 293/671
f 290/668 291/665 289/664
f 63/776 100/775 76/771
f 76/860 95/856 63/858
f 44/92 333/96 163/100
f 156/224 105/204 88/203
f 196/115 269/120 201/118
f 268/833 267/829 243/832
f 402/5 174/15 272/6
f 29/946 73/947 72/948
f 187/260 130/247 83/235
f 90/261 123/299 106/301
f 69/935 65/936 8/937
f 29/184 78/178 429/172
f 205/259 146/272 104/234
f 413/897 433/892 438/894
f 278/793 12/790 279/795
f 294/1011 299/1008 302/1010
f 16/327 134/334 110/342
f 135/514 125/512 265/516
f 136/612 144/615 137/613
f 147/693 264/695 88/697
f 56/850 57/851 94/852
f 274/488 241/485 239/487
f 254/147 326/146 273/153
f 405/1 318/4 397/8
f 271/3 424/2 272/6
f 276/549 439/543 411/546
f 273/153 255/158 254/147
f 125/512 179/504 256/509
f 157/305 181/291 252/303
f 123/299 214/314 87/324
f 186/394 26/391 253/392
f 180/248 62/276 61/262
f 226/82 251/73 49/79
f 141/285 211/298 139/271
f 252/303 181/291 148/304
f 257/332 158/340 87/324
f 165/75 251/73 222/66
f 169/32 217/41 176/23
f 251/73 165/75 49/79
f 64/735 68/736 69/732
f 83/235 180/248 61/262
f 128/389 77/387 130/386
f 28/263 185/290 252/303
f 139/271 211/298 214/314
f 141/285 227/313 211/298
f 159/422 161/420 158/419
f 56/857 54/855 183/854
f 270/297 260/325 259/315
f 213/605 190/599 265/606
f 178/500 258/502 257/498
f 60/428 162/436 117/439
f 213/605 208/607 116/602
f 190/599 213/605 116/602
f 256/509 179/504 207/508
f 256/611 207/614 208/607
f 212/323 211/298 227/313
f 346/269 234/284 233/244
f 114/346 113/368 230/366
f 59/194 70/185 58/205
f 8/219 64/279 66/227
f 68/187 96/167 67/180
f 113/443 60/428 145/441
f 92/251 6/238 8/219
f 83/235 130/247 73/225
f 120/521 162/515 126/517
f 178/500 160/505 258/502
f 108/556 107/557 20/558
f 246/212 249/220 248/200
f 246/212 319/229 247/230
f 1/133 38/137 37/129
f 415/503 243/507 177/501
f 384/519 240/522 135/514
f 237/524 239/527 238/525
f 198/103 315/99 39/102
f 187/700 84/701 193/702
f 352/144 203/149 202/140
f 163/100 164/104 44/92
f 52/576 7/573 53/577
f 199/113 201/118 200/119
f 18/404 41/407 151/401
f 194/445 309/453 195/449
f 403/446 194/445 195/449
f 186/394 193/400 18/404
f 342/986 339/987 234/988
f 266/69 222/66 221/61
f 37/129 220/124 1/133
f 217/41 169/32 218/47
f 193/400 131/406 18/404
f 183/403 215/396 188/402
f 579/348 474/347 580/357
f 275/777 212/778 227/779
f 208/607 136/612 116/602
f 142/595 143/598 205/600
f 60/373 23/377 91/376
f 6/238 92/251 11/252
f 116/602 115/608 146/603
f 60/373 91/376 71/375
f 26/391 101/390 128/389
f 43/878 57/879 183/880
f 162/515 182/510 126/517
f 117/616 119/617 111/618
f 126/517 111/523 120/521
f 179/504 182/510 160/505
f 159/511 160/505 182/510
f 177/501 179/504 178/500
f 20/558 107/557 94/561
f 176/23 175/42 174/15
f 142/287 205/259 206/270
f 188/402 215/396 108/398
f 153/393 101/390 26/391
f 67/180 55/186 69/196
f 54/195 80/179 63/206
f 100/437 94/429 14/433
f 11/252 28/263 181/291
f 27/395 186/394 151/401
f 133/302 252/303 185/290
f 94/561 150/564 20/558
f 155/326 129/289 154/316
f 131/341 132/333 154/316
f 18/404 131/406 154/408
f 132/1005 61/1006 191/1007
f 132/333 155/326 154/316
f 23/249 185/290 28/263
f 107/427 19/423 15/426
f 107/557 108/556 153/560
f 28/263 11/252 152/237
f 252/303 148/304 28/263
f 11/252 181/291 572/281
f 73/225 74/216 83/235
f 74/216 156/224 83/235
f 149/997 82/998 61/999
f 16/327 157/305 252/303
f 151/401 19/405 27/395
f 129/289 90/261 106/301
f 19/423 18/425 15/426
f 529/466 173/463 555/464
f 39/102 40/106 288/107
f 172/89 30/87 166/81
f 412/56 171/55 170/65
f 165/75 331/76 166/81
f 201/118 164/122 163/126
f 120/1020 109/1021 122/1022
f 87/432 161/438 162/436
f 16/327 252/303 133/302
f 134/334 16/327 133/302
f 159/511 162/515 161/518
f 158/506 160/505 159/511
f 22/336 157/305 16/327
f 107/427 15/426 94/429
f 17/344 121/351 127/354
f 124/513 265/516 125/512
f 109/352 110/342 114/346
f 87/324 106/301 123/299
f 17/344 110/342 121/351
f 114/346 127/354 121/351
f 119/955 109/956 120/957
f 85/214 399/222 104/234
f 71/218 91/236 93/226
f 111/618 118/619 117/616
f 184/597 143/598 142/595
f 257/498 258/502 158/506
f 126/517 112/520 111/523
f 158/419 161/420 87/421
f 159/511 182/510 162/515
f 156/224 74/216 105/204
f 139/271 103/257 102/245
f 139/271 138/286 103/257
f 104/234 115/258 102/245
f 146/603 143/598 116/602
f 85/214 104/234 102/245
f 138/286 89/277 103/257
f 136/612 137/613 116/602
f 117/439 145/441 60/428
f 144/918 140/917 137/919
f 116/602 143/598 190/599
f 137/613 115/608 116/602
f 137/273 102/245 115/258
f 56/207 69/196 55/186
f 104/234 235/246 205/259
f 104/234 146/272 115/258
f 265/606 124/610 213/605
f 155/709 132/708 192/707
f 240/522 112/520 135/514
f 120/621 111/618 119/617
f 112/520 126/517 135/514
f 137/273 140/300 141/285
f 60/373 114/380 134/379
f 60/373 134/379 133/378
f 122/620 119/617 117/616
f 61/999 132/1001 131/1000
f 78/434 81/431 60/428
f 62/276 180/248 90/261
f 138/286 90/261 89/277
f 137/273 141/285 102/245
f 264/695 89/692 88/697
f 87/432 162/436 60/428
f 23/377 60/373 133/378
f 156/699 88/697 89/692
f 147/192 86/215 431/223
f 75/193 105/204 74/216
f 83/235 84/274 187/260
f 77/387 72/388 73/385
f 82/278 84/274 83/235
f 60/428 81/431 15/426
f 80/179 99/173 79/166
f 73/385 130/386 77/387
f 73/225 75/193 74/216
f 29/435 72/440 14/433
f 78/372 60/373 70/374
f 70/374 60/373 71/375
f 429/172 365/177 231/183
f 67/180 69/196 5/208
f 64/382 59/383 66/384
f 64/825 65/826 5/827
f 59/885 64/886 63/887
f 113/381 114/380 60/373
f 18/425 87/432 60/428
f 92/251 66/227 152/237
f 101/390 77/387 128/389
f 61/999 131/1000 149/997
f 24/217 66/227 59/194
f 24/217 59/194 58/205
f 95/856 76/860 101/861
f 54/195 56/207 55/186
f 76/771 77/770 101/773
f 43/744 150/745 94/746
f 359/569 360/566 98/568
f 67/180 96/167 99/173
f 59/194 80/179 70/185
f 5/208 3/209 68/187
f 55/186 67/180 99/173
f 97/572 3/575 2/571
f 68/187 3/209 97/197
f 96/167 68/187 97/197
f 426/148 427/152 361/145
f 99/173 80/179 55/186
f 95/856 54/855 63/858
f 58/205 93/226 24/217
f 64/410 8/411 65/412
f 15/426 81/431 29/435
f 25/250 23/249 28/263
f 76/771 100/775 14/774
f 25/250 24/217 23/249
f 134/334 114/346 110/342
f 150/564 21/562 20/558
f 107/427 27/430 19/423
f 17/344 16/327 110/342
f 43/744 314/747 150/745
f 15/426 14/433 94/429
f 12/790 13/787 10/789
f 6/238 4/228 8/219
f 3/209 5/208 4/228
f 7/573 3/575 53/577
f 4/228 53/239 3/209
f 3/575 7/573 2/571
f 1/570 7/573 52/576
f 164/122 201/118 269/120
f 46/9 176/23 47/14
f 317/121 278/130 285/125
f 42/748 314/747 43/744
f 9/579 37/581 38/578
f 162/436 120/442 117/439
f 38/578 1/570 52/576
f 35/241 247/230 36/254
f 32/738 34/743 33/741
f 31/94 30/87 172/89
f 225/91 226/82 48/86
f 319/229 167/211 323/210
f 210/170 209/155 351/164
f 139/271 123/299 138/286
f 19/405 151/401 41/407
f 247/230 35/241 249/220
f 46/9 219/22 224/31
f 198/465 312/458 173/463
f 170/65 410/70 277/57
f 403/446 408/454 404/450
f 210/170 34/171 209/155
f 319/229 320/253 247/230
f 313/98 316/95 44/92
f 408/541 409/540 404/537
f 156/224 180/248 83/235
f 331/76 203/80 335/84
f 277/57 434/67 276/62
f 413/85 414/78 407/77
f 171/55 218/47 221/61
f 149/703 229/705 192/707
f 222/66 171/55 221/61
f 49/79 165/75 166/81
f 351/164 255/158 330/169
f 151/401 186/394 18/404
f 403/446 195/449 409/452
f 300/927 301/929 310/930
f 215/396 95/399 101/390
f 49/79 189/90 48/86
f 191/822 61/823 62/824
f 175/42 176/23 217/41
f 351/164 330/169 322/176
f 189/90 49/79 44/92
f 26/391 128/389 253/392
f 187/260 253/288 128/275
f 256/509 124/513 125/512
f 269/109 196/110 197/105
f 42/883 43/878 216/881
f 192/707 132/708 149/703
f 572/281 157/305 576/317
f 215/396 183/403 95/399
f 157/305 22/336 571/343
f 129/711 155/709 418/710
f 229/816 228/815 191/812
f 191/812 192/818 229/816
f 192/818 191/812 418/819
f 62/820 418/819 191/812
f 153/393 108/398 215/396
f 153/560 27/563 107/557
f 5/737 68/736 64/735
f 85/698 103/694 431/696
f 125/512 135/514 182/510
f 275/777 236/781 261/780
f 144/918 275/915 140/917
f 208/782 207/784 236/781
f 236/781 275/777 208/782
f 144/918 208/920 275/915
f 405/1 46/9 402/5
f 136/612 208/607 144/615
f 318/4 405/1 271/3
f 439/543 174/542 411/546
f 402/5 424/2 405/1
f 318/4 271/3 292/7
f 239/527 237/524 242/528
f 272/589 423/586 271/583
f 416/489 274/488 239/487
f 308/482 310/483 420/484
f 237/479 308/482 420/484
f 310/930 304/928 300/927
f 435/871 436/873 421/875
f 15/426 29/435 14/433
f 428/156 79/166 432/161
f 337/123 338/127 200/119
f 80/179 54/195 55/186
f 277/57 410/70 421/71
f 434/67 277/57 421/71
f 24/217 91/236 23/249
f 1/570 359/569 98/568
f 346/989 342/986 234/988
f 17/344 22/336 16/327
f 15/426 18/425 60/428
f 532/584 423/586 564/588
f 186/394 253/392 187/397
f 209/155 34/171 32/165
f 177/785 236/781 207/784
f 68/960 67/961 65/962
f 67/828 5/827 65/826
f 419/677 268/678 417/679
f 267/901 268/902 250/903
f 274/488 419/490 241/485
f 249/220 246/212 247/230
f 242/528 241/530 425/531
f 238/486 420/484 310/483
f 241/530 242/528 237/524
f 417/831 243/832 267/829
f 420/484 238/486 239/487
f 237/479 420/484 241/485
f 239/487 241/485 420/484
f 268/491 419/490 274/488
f 416/904 239/905 250/903
f 179/504 177/501 207/508
f 155/709 192/707 418/710
f 241/485 419/490 267/492
f 135/514 126/517 182/510
f 213/605 124/610 256/611
f 256/611 208/607 213/605
f 190/599 143/598 184/597
f 415/680 261/681 417/679
f 177/785 417/783 236/781
f 243/786 417/783 177/785
f 177/501 261/499 415/503
f 250/529 425/531 267/532
f 416/904 250/903 268/902
f 415/680 417/679 268/678
f 45/101 313/98 44/92
f 179/504 125/512 182/510
f 323/210 263/240 319/229
f 188/882 216/881 183/880
f 212/497 261/499 257/498
f 228/815 82/813 191/812
f 212/323 214/314 211/298
f 228/815 84/817 82/813
f 62/820 129/821 418/819
f 149/712 132/713 82/714
f 219/22 46/9 401/12
f 219/22 401/12 263/30
f 329/40 169/32 46/9
f 33/741 365/739 32/738
f 243/832 415/834 268/833
f 189/90 44/92 316/95
f 46/9 223/39 329/40
f 172/89 335/84 352/88
f 18/404 154/408 87/409
f 39/102 315/99 316/95
f 245/447 403/446 404/450
f 183/880 216/881 43/878
f 42/883 216/881 21/884
f 274/488 416/489 268/491
f 316/95 40/106 39/102
f 406/93 315/99 198/103
f 355/141 363/143 358/132
f 66/227 92/251 8/219
f 363/143 422/151 426/148
f 219/22 263/30 323/38
f 141/285 140/300 227/313
f 363/143 355/141 254/147
f 102/245 103/257 85/214
f 294/675 303/672 293/671
f 303/672 299/673 291/670
f 142/287 206/270 270/297
f 271/3 311/11 292/7
f 203/80 331/76 273/74
f 272/548 174/542 536/545
f 412/56 277/57 175/42
f 402/5 47/14 174/15
f 331/76 165/75 266/69
f 409/540 195/534 404/537
f 30/87 49/79 166/81
f 277/57 276/62 411/48
f 410/70 251/73 407/77
f 46/9 405/1 401/12
f 405/1 397/8 401/12
f 305/448 295/451 194/445
f 266/69 165/75 222/66
f 37/129 317/121 220/124
f 305/448 194/445 245/447
f 200/119 201/118 337/123
f 244/533 245/538 404/537
f 266/69 221/61 273/74
f 46/9 47/14 402/5
f 26/391 27/395 153/393
f 82/278 83/235 61/262
f 193/702 84/701 149/703
f 149/703 131/704 193/702
f 229/705 149/703 84/701
f 228/706 229/705 84/701
f 214/314 123/299 139/271
f 345/256 353/232 340/231
f 249/220 340/231 248/200
f 344/686 400/685 350/683
f 99/173 96/167 432/161
f 105/204 429/172 88/203
f 232/191 86/215 147/192
f 73/947 29/946 75/949
f 69/935 68/938 65/936
f 98/568 97/572 2/571
f 220/124 336/128 358/132
f 428/156 422/151 363/143
f 147/192 231/183 232/191
f 232/191 231/183 33/182
f 400/685 430/684 350/683
f 168/189 248/200 348/181
f 248/200 168/189 246/212
f 325/199 167/211 168/189
f 351/164 322/176 324/175
f 324/175 168/189 348/181
f 400/233 233/244 399/222
f 347/687 344/686 350/683
f 363/143 254/147 356/150
f 337/123 163/126 332/131
f 163/126 337/123 201/118
f 333/96 31/94 334/97
f 331/76 266/69 273/74
f 203/149 326/146 202/140
f 348/181 349/213 347/201
f 329/40 223/39 224/31
f 224/31 322/53 329/40
f 98/568 2/571 1/570
f 317/121 284/116 200/119
f 307/587 311/582 533/585
f 306/539 305/536 309/535
f 306/456 309/453 194/445
f 98/568 96/574 97/572
f 29/435 81/431 78/434
f 7/573 1/570 2/571
f 236/781 417/783 261/780
f 262/27 263/30 401/12
f 333/96 44/92 31/94
f 25/250 28/263 152/237
f 152/237 24/217 25/250
f 90/261 129/289 62/276
f 57/859 56/857 183/854
f 261/780 212/778 275/777
f 79/166 70/185 80/179
f 261/499 178/500 257/498
f 177/501 178/500 261/499
f 37/791 9/788 13/787
f 20/558 188/559 108/556
f 195/534 244/533 404/537
f 64/735 69/732 94/734
f 121/958 109/956 119/955
f 122/1017 121/1018 119/1019
f 180/248 156/224 90/261
f 188/559 20/558 21/562
f 216/881 188/882 21/884
f 59/885 63/887 80/888
f 187/397 193/400 186/394
f 23/249 133/302 185/290
f 156/224 89/277 90/261
f 277/57 412/56 170/65
f 28/263 148/304 181/291
f 58/205 70/185 71/218
f 169/32 176/23 46/9
f 150/564 42/565 21/562
f 232/191 85/214 86/215
f 110/959 109/956 121/958
f 121/351 122/355 114/346
f 94/852 57/851 43/853
f 114/346 122/355 109/352
f 76/771 14/774 72/772
f 100/889 63/887 64/886
f 152/237 11/252 92/251
f 8/219 5/208 69/196
f 5/208 8/219 4/228
f 94/890 100/889 64/886
f 93/226 91/236 24/217
f 152/237 66/227 24/217
f 251/73 226/82 407/77
f 175/42 411/48 174/15
f 401/12 398/19 262/27
f 170/65 222/66 251/73
f 267/532 425/531 241/530
f 123/299 90/261 138/286
f 224/31 223/39 46/9
f 278/130 317/121 37/129
f 218/47 169/32 329/40
f 30/87 31/94 44/92
f 48/86 226/82 49/79
f 166/81 331/76 335/84
f 44/92 164/104 197/105
f 171/55 222/66 170/65
f 178/500 179/504 160/505
f 322/53 327/54 329/40
f 172/89 352/88 31/94
f 324/175 210/170 351/164
f 348/181 210/170 324/175
f 37/791 13/787 278/793
f 297/17 366/20 318/4
f 369/715 370/716 565/717
f 386/757 387/758 475/759
f 375/267 374/296 390/311
f 371/719 368/722 370/716
f 393/981 392/982 477/983
f 390/906 444/907 391/908
f 35/241 36/254 377/266
f 318/4 298/10 297/17
f 184/597 388/601 190/599
f 36/254 247/230 320/253
f 485/295 373/255 486/307
f 373/255 377/266 481/293
f 262/265 376/282 320/253
f 373/255 378/283 375/267
f 354/242 35/241 373/255
f 375/267 372/309 341/294
f 387/758 372/761 375/763
f 341/294 270/297 234/284
f 375/267 341/294 339/268
f 375/267 378/283 374/296
f 380/306 382/318 381/329
f 320/253 376/282 377/266
f 381/64 382/44 487/60
f 489/319 381/329 490/337
f 494/723 369/715 495/727
f 367/726 371/719 496/728
f 565/717 297/720 568/724
f 370/716 369/715 371/719
f 371/719 367/726 368/722
f 368/34 367/43 366/20
f 297/720 370/716 368/722
f 297/17 298/10 561/25
f 366/20 297/17 368/34
f 480/49 367/43 498/58
f 240/862 469/863 112/864
f 445/835 460/836 396/837
f 397/8 450/13 451/21
f 390/765 387/758 375/763
f 472/647 184/648 389/649
f 385/659 388/651 470/657
f 455/624 458/623 454/622
f 468/749 473/750 112/751
f 393/653 472/647 392/650
f 463/753 462/756 118/755
f 459/966 113/967 145/968
f 465/625 389/642 461/640
f 465/625 461/640 464/636
f 372/761 386/757 476/760
f 379/762 387/758 390/765
f 240/862 384/867 385/865
f 394/939 454/940 473/941
f 453/656 471/658 470/657
f 473/643 467/646 502/645
f 470/657 388/651 452/654
f 472/647 452/654 388/651
f 389/649 184/648 259/652
f 260/655 389/649 259/652
f 447/631 473/643 503/641
f 453/656 472/647 393/653
f 469/863 385/865 470/868
f 465/625 464/636 466/633
f 392/841 383/838 505/844
f 455/624 395/626 447/631
f 454/622 395/626 455/624
f 467/660 393/653 478/661
f 457/632 455/624 501/635
f 112/751 473/750 463/753
f 117/616 118/619 454/622
f 474/347 17/344 508/353
f 17/344 127/354 463/358
f 390/311 374/296 443/312
f 190/599 388/601 385/604
f 388/651 184/648 472/647
f 446/370 230/366 113/368
f 446/801 460/802 510/803
f 17/344 448/362 449/359
f 17/413 462/414 448/415
f 114/346 230/366 462/363
f 454/622 458/623 117/616
f 389/971 466/972 464/973
f 447/367 449/359 394/365
f 114/346 463/358 127/354
f 114/346 462/363 463/358
f 118/755 111/754 463/753
f 395/369 230/366 446/370
f 509/356 449/359 513/361
f 17/344 463/358 454/360
f 454/921 462/922 17/923
f 447/807 446/801 511/804
f 499/634 447/631 504/637
f 460/836 459/843 461/840
f 392/976 456/977 457/978
f 113/416 459/417 458/418
f 458/980 456/977 389/979
f 457/632 456/627 455/624
f 395/369 394/365 230/366
f 454/622 394/630 395/626
f 470/868 471/869 469/863
f 465/625 145/629 117/616
f 113/368 458/371 446/370
f 467/660 471/658 393/653
f 260/325 396/339 464/345
f 471/658 453/656 393/653
f 461/969 145/968 464/970
f 473/750 468/749 467/752
f 448/362 462/363 230/366
f 468/662 471/658 467/660
f 512/811 447/807 515/809
f 392/847 457/848 445/849
f 459/990 460/991 389/992
f 460/802 458/805 389/808
f 465/625 458/623 459/628
f 389/992 465/993 459/990
f 445/1012 457/1013 507/1014
f 458/623 465/625 117/616
f 464/345 396/339 389/350
f 396/644 461/640 389/642
f 145/975 466/972 260/974
f 260/325 464/345 145/349
f 392/650 472/647 389/649
f 389/979 456/977 392/976
f 396/837 460/836 461/840
f 459/966 145/968 461/969
f 460/802 446/801 458/805
f 390/765 391/768 379/762
f 373/255 35/241 377/266
f 382/318 380/306 376/282
f 377/266 380/306 489/319
f 451/21 398/19 397/8
f 472/647 453/656 452/654
f 387/758 386/757 372/761
f 385/604 265/606 190/599
f 118/924 462/922 454/921
f 450/13 397/8 318/4
f 366/20 450/13 318/4
f 520/28 366/20 524/36
f 389/971 260/974 466/972
f 262/27 398/19 451/21
f 454/943 463/944 473/945
f 473/941 447/942 394/939
f 514/839 445/835 517/842
f 468/866 112/864 469/863
f 445/835 383/838 392/841
f 382/44 262/27 451/21
f 470/657 452/654 453/656
f 443/312 374/296 378/283
f 451/21 450/13 519/29
f 379/796 443/797 378/798
f 383/321 270/297 341/294
f 518/50 451/21 526/59
f 456/627 458/623 455/624
f 383/321 372/309 492/330
f 340/231 354/242 373/255
f 380/306 377/266 376/282
f 339/268 340/231 375/267
f 340/231 373/255 375/267
f 484/310 378/283 485/295
f 339/268 341/294 234/284
f 377/266 36/254 320/253
f 262/27 382/44 376/51
f 475/759 379/762 527/764
f 448/362 394/365 449/359
f 469/863 471/869 468/866
f 341/294 372/309 383/321
f 240/862 385/865 469/863
f 145/629 465/625 466/633
f 444/907 390/906 443/909
f 447/807 395/810 446/801
f 448/362 230/366 394/365
f 111/754 112/751 463/753
f 260/325 270/297 383/321
f 396/837 383/838 445/835
f 444/800 443/797 391/799
f 443/797 379/796 391/799
f 383/321 396/339 260/325
f 286/792 12/790 10/789
f 204/114 199/113 284/116
f 282/954 281/952 279/951
f 6/238 11/252 4/228
f 280/493 53/494 4/495
f 282/794 12/790 286/792
f 9/579 52/576 10/580
f 196/115 199/113 441/112
f 4/228 11/252 573/264
f 474/347 22/336 17/344
f 475/759 387/758 379/762
f 476/760 386/757 475/759
f 477/983 392/982 525/985
f 478/984 393/981 477/983
f 479/45 366/20 480/49
f 480/49 366/20 367/43
f 481/293 377/266 482/308
f 482/308 377/266 491/320
f 483/331 379/322 484/310
f 484/310 379/322 378/283
f 485/295 378/283 373/255
f 486/307 373/255 481/293
f 487/60 382/44 518/50
f 488/68 381/64 487/60
f 489/319 380/306 381/329
f 490/72 381/64 488/68
f 491/320 377/266 489/319
f 492/769 372/761 493/766
f 493/766 372/761 476/760
f 494/723 371/719 369/715
f 495/727 369/715 567/725
f 496/728 371/719 494/723
f 497/731 367/726 496/728
f 498/58 367/43 497/63
f 499/634 455/624 447/631
f 500/638 455/624 499/634
f 501/635 455/624 500/638
f 502/663 467/660 478/661
f 503/641 473/643 502/645
f 504/637 447/631 503/641
f 505/338 383/321 492/330
f 506/845 392/841 505/844
f 507/639 457/632 501/635
f 508/353 17/344 509/356
f 509/356 17/344 449/359
f 510/803 460/802 514/806
f 511/804 446/801 510/803
f 512/364 449/359 447/367
f 513/361 449/359 512/364
f 514/839 460/836 445/835
f 515/809 447/807 511/804
f 516/1015 445/1012 507/1014
f 517/1016 445/1012 516/1015
f 518/50 382/44 451/21
f 519/29 450/13 520/28
f 520/28 450/13 366/20
f 521/37 451/21 519/29
f 522/46 451/21 521/37
f 523/52 451/21 522/46
f 524/36 366/20 479/45
f 525/846 392/841 506/845
f 526/59 451/21 523/52
f 527/764 379/762 483/767
f 528/467 198/465 529/466
f 529/466 198/465 173/463
f 530/16 298/10 292/7
f 531/24 292/7 563/33
f 532/584 271/583 423/586
f 533/585 311/582 532/584
f 534/544 439/543 535/547
f 535/547 439/543 437/550
f 536/545 174/542 534/544
f 537/592 423/586 272/589
f 538/591 423/586 537/592
f 539/553 272/548 540/551
f 540/551 272/548 536/545
f 541/870 436/873 435/871
f 542/899 435/900 438/894
f 543/891 438/894 433/892
f 544/896 438/894 543/891
f 545/475 433/476 225/474
f 546/895 433/892 545/898
f 547/876 437/877 436/873
f 548/470 198/465 549/469
f 549/469 198/465 550/468
f 550/468 198/465 528/467
f 551/893 433/892 546/895
f 552/874 436/873 541/870
f 553/473 225/474 406/471
f 554/472 406/471 548/470
f 555/464 173/463 556/462
f 556/462 173/463 312/458
f 558/461 312/458 557/460
f 559/26 292/7 307/18
f 560/593 307/587 562/590
f 561/25 298/10 530/16
f 562/590 307/587 533/585
f 563/33 292/7 559/26
f 564/588 423/586 538/591
f 565/717 370/716 297/720
f 566/718 369/715 565/717
f 567/725 369/715 569/721
f 568/724 297/720 561/729
f 569/721 369/715 566/718
f 570/730 495/727 567/725
f 571/343 22/336 579/348
f 572/281 181/291 157/305
f 573/264 11/252 572/281
f 574/292 4/228 575/280
f 575/280 4/228 573/264
f 576/317 157/305 577/328
f 577/328 157/305 578/335
f 578/335 157/305 571/343
f 579/348 22/336 474/347
usemtl Tile_+038_+020_L19_000202_untextured
