mtllib Tile_+038_+020_L19_000133.mtl
v 7.97483713e+03 4.84437806e+03 1.40798026e+01
v 7.97461985e+03 4.84386138e+03 1.21577329e+01
v 7.97524384e+03 4.84506612e+03 1.22213163e+01
v 7.97481596e+03 4.84404512e+03 9.36624143e+00
v 7.97510974e+03 4.84476821e+03 7.70126599e+00
v 7.99467018e+03 4.84958739e+03 4.11496908e+00
v 7.99238540e+03 4.84755974e+03 3.95629575e+00
v 7.98616218e+03 4.86202286e+03 3.28479062e+00
v 7.98599831e+03 4.86121560e+03 4.08457691e+00
v 7.98525252e+03 4.85979082e+03 4.73258822e+00
v 7.99256109e+03 4.86525824e+03 3.39990773e+00
v 7.99133658e+03 4.86622328e+03 3.01500646e+00
v 7.98355157e+03 4.87420343e+03 2.47696607e+00
v 7.99122301e+03 4.84639203e+03 4.50451472e+00
v 7.97466189e+03 4.85461630e+03 3.49660588e+00
v 7.97333994e+03 4.85615915e+03 3.96051799e+00
v 7.97549548e+03 4.85579587e+03 3.73728063e+00
v 7.97714253e+03 4.85648750e+03 2.67567265e+00
v 7.97551988e+03 4.85677387e+03 2.75802925e+00
v 7.97638708e+03 4.85925652e+03 2.73958076e+00
v 7.97619821e+03 4.85782130e+03 3.50238555e+00
v 7.98459167e+03 4.85980333e+03 3.42622092e+00
v 7.98485851e+03 4.86568650e+03 2.20801255e+00
v 7.97611576e+03 4.86178112e+03 2.66491966e+00
v 7.98532751e+03 4.86077374e+03 6.24565312e+00
v 7.97532400e+03 4.85801561e+03 2.96090785e+00
v 7.99155507e+03 4.86423534e+03 4.17891544e+00
v 7.99185042e+03 4.86354362e+03 5.45447003e+00
v 7.98887523e+03 4.86302584e+03 5.29957917e+00
v 7.97416133e+03 4.87158130e+03 2.52705721e+00
v 7.97931247e+03 4.85307364e+03 3.30030398e+00
v 7.98016724e+03 4.85275036e+03 4.00910418e+00
v 7.97920817e+03 4.85100537e+03 3.61720896e+00
v 7.97395959e+03 4.85039899e+03 3.32416405e+00
v 7.97352559e+03 4.85188774e+03 2.89786433e+00
v 7.97842856e+03 4.85737190e+03 2.73289100e+00
v 7.97211884e+03 4.84613326e+03 3.43160839e+00
v 7.97445470e+03 4.84467281e+03 3.88909844e+00
v 7.97372849e+03 4.85925696e+03 2.82520450e+00
v 7.97334083e+03 4.85698813e+03 3.11820587e+00
v 7.97101879e+03 4.87437033e+03 7.99696721e+00
v 7.97051111e+03 4.87452463e+03 8.97324682e+00
v 7.97145731e+03 4.87509137e+03 7.85675409e+00
v 7.97442578e+03 4.85386973e+03 3.22279317e+00
v 7.97288576e+03 4.85442726e+03 3.32542082e+00
v 7.97275322e+03 4.85128230e+03 3.94694050e+00
v 7.97166549e+03 4.84989357e+03 4.21272932e+00
v 7.97304213e+03 4.84734157e+03 3.96477895e+00
v 7.97216786e+03 4.84752501e+03 3.60061577e+00
v 7.97232493e+03 4.85190573e+03 3.35038952e+00
v 7.98722268e+03 4.86363008e+03 3.15624081e+00
v 7.96862585e+03 4.86393018e+03 2.82448647e+00
v 7.97273868e+03 4.85355694e+03 4.23169591e+00
v 7.97185871e+03 4.85376124e+03 3.81463333e+00
v 7.97418517e+03 4.84710977e+03 3.73263442e+00
v 7.97565660e+03 4.84662830e+03 3.65825553e+00
v 7.97316299e+03 4.84875051e+03 3.93352477e+00
v 7.97208181e+03 4.84801303e+03 3.03569711e+00
v 7.96880602e+03 4.87078970e+03 2.39616236e+00
v 7.98179029e+03 4.85370768e+03 2.75000495e+01
v 7.98228523e+03 4.85441997e+03 2.79573200e+01
v 7.98207710e+03 4.85421922e+03 2.96609676e+01
v 7.98346741e+03 4.85448454e+03 2.88848874e+01
v 7.97087439e+03 4.87364101e+03 1.22336605e+01
v 7.97047316e+03 4.87241834e+03 1.11033755e+01
v 7.96874810e+03 4.87514616e+03 4.51245009e+00
v 7.97065639e+03 4.87341914e+03 1.27752366e+01
v 7.97104028e+03 4.87443711e+03 1.12810634e+01
v 7.98882962e+03 4.86405608e+03 2.40695582e+01
v 7.98702019e+03 4.86360005e+03 2.27403118e+01
v 7.98503435e+03 4.84386638e+03 3.12363232e+01
v 7.98745692e+03 4.84491338e+03 2.98888923e+01
v 7.98797786e+03 4.86401076e+03 1.18376931e+01
v 7.98703439e+03 4.86350664e+03 8.87582848e+00
v 7.97910463e+03 4.84718759e+03 2.93844068e+01
v 7.97752274e+03 4.84743412e+03 2.96682308e+01
v 7.98307153e+03 4.84703362e+03 3.47931525e+01
v 7.98312055e+03 4.84627610e+03 3.40523653e+01
v 7.99198839e+03 4.85449610e+03 3.27396120e+01
v 7.99138743e+03 4.85333754e+03 3.22107326e+01
v 7.99018662e+03 4.85302510e+03 3.27051197e+01
v 7.98282451e+03 4.84717534e+03 3.28459379e+01
v 7.97867893e+03 4.84524510e+03 3.01575723e+01
v 7.97671731e+03 4.84587455e+03 2.86829956e+01
v 7.98381456e+03 4.84398943e+03 3.29127994e+01
v 7.98249567e+03 4.84448805e+03 3.41828397e+01
v 7.99061648e+03 4.85203539e+03 3.37515951e+01
v 7.99082735e+03 4.84635954e+03 3.33350333e+01
v 7.99115123e+03 4.85179749e+03 3.14978160e+01
v 7.99087019e+03 4.85236476e+03 3.28622179e+01
v 7.99203664e+03 4.85308396e+03 3.13101952e+01
v 7.99063057e+03 4.85473928e+03 3.48879844e+01
v 7.99147863e+03 4.85588213e+03 3.43192885e+01
v 7.98773078e+03 4.86444559e+03 2.69985189e+01
v 7.98871003e+03 4.86341178e+03 2.73244003e+01
v 7.99127395e+03 4.85528161e+03 3.49909620e+01
v 7.99020029e+03 4.85510550e+03 3.42545757e+01
v 7.99349270e+03 4.85011869e+03 3.32947689e+01
v 7.98608946e+03 4.84683539e+03 3.28134325e+01
v 7.98487613e+03 4.84809573e+03 3.41600304e+01
v 7.97710833e+03 4.84674491e+03 3.01666630e+01
v 7.98141938e+03 4.84932312e+03 3.01547022e+01
v 7.98025794e+03 4.84863670e+03 2.95200564e+01
v 7.98233759e+03 4.85179925e+03 2.94968597e+01
v 7.98357809e+03 4.85259027e+03 3.01279712e+01
v 7.97487572e+03 4.84481383e+03 2.16900077e+01
v 7.98358721e+03 4.85641137e+03 3.01498988e+01
v 7.98441383e+03 4.85469833e+03 2.95609311e+01
v 7.98206443e+03 4.85553907e+03 2.17263272e+01
v 7.98339872e+03 4.85667756e+03 2.26371080e+01
v 7.98404309e+03 4.85717658e+03 2.98188218e+01
v 7.98522907e+03 4.85748996e+03 2.87599641e+01
v 7.98338340e+03 4.85725399e+03 2.49551828e+01
v 7.98210738e+03 4.85629752e+03 2.68336759e+01
v 7.98391054e+03 4.85679188e+03 2.74710718e+01
v 7.98718056e+03 4.86391067e+03 2.60011927e+01
v 7.98585380e+03 4.86250565e+03 2.24144560e+01
v 7.98520811e+03 4.85838026e+03 2.80821596e+01
v 7.98951460e+03 4.86062299e+03 2.92230000e+01
v 7.98958839e+03 4.86198421e+03 2.80500087e+01
v 7.98569079e+03 4.85620064e+03 2.98700310e+01
v 7.98683362e+03 4.86049889e+03 2.88648911e+01
v 7.98559340e+03 4.85914212e+03 2.87070689e+01
v 7.98510707e+03 4.86150837e+03 2.69342362e+01
v 7.98538097e+03 4.86146099e+03 2.50287862e+01
v 7.99072309e+03 4.86369168e+03 2.26050526e+01
v 7.99384522e+03 4.86337863e+03 2.45688637e+01
v 7.98618773e+03 4.85982587e+03 2.76533634e+01
v 7.98633741e+03 4.86300416e+03 2.71476223e+01
v 7.98934839e+03 4.86402682e+03 2.57452183e+01
v 7.97969205e+03 4.85080261e+03 3.02301842e+01
v 7.97780386e+03 4.84764942e+03 2.80111368e+01
v 7.97583555e+03 4.84598918e+03 2.38926462e+01
v 7.97481889e+03 4.84568620e+03 2.67831084e+01
v 7.97907677e+03 4.85196124e+03 2.67022250e+01
v 7.97982022e+03 4.85035403e+03 2.77854660e+01
v 7.97729788e+03 4.84932981e+03 2.67936826e+01
v 7.98139668e+03 4.85316879e+03 2.97230077e+01
v 7.98211505e+03 4.85526643e+03 1.30947825e+01
v 7.98305932e+03 4.85642646e+03 1.20264850e+01
v 7.98219229e+03 4.85542400e+03 1.79016455e+01
v 7.98136228e+03 4.85377756e+03 1.66543315e+01
v 7.97846233e+03 4.84972408e+03 1.38054966e+01
v 7.97926081e+03 4.85061498e+03 1.49493474e+01
v 7.97935981e+03 4.85084799e+03 1.19785524e+01
v 7.98060809e+03 4.85292206e+03 1.51401731e+01
v 7.97926228e+03 4.85038451e+03 2.25532171e+01
v 7.97923853e+03 4.85105931e+03 2.42044277e+01
v 7.98869198e+03 4.84379709e+03 2.76351477e+01
v 7.98703367e+03 4.86371463e+03 1.44937670e+01
v 7.98786826e+03 4.86362339e+03 1.60940821e+01
v 7.98862133e+03 4.86408606e+03 1.61245976e+01
v 7.98875765e+03 4.86412752e+03 1.42642353e+01
v 7.98723391e+03 4.86382140e+03 1.71999339e+01
v 7.98502201e+03 4.85984509e+03 2.52658311e+01
v 7.98982278e+03 4.86229160e+03 2.98438055e+01
v 7.98872661e+03 4.86405317e+03 1.93595273e+01
v 7.98987754e+03 4.86382238e+03 1.75120202e+01
v 7.98584647e+03 4.86252992e+03 1.83139229e+01
v 7.98936564e+03 4.86361901e+03 1.59945999e+01
v 7.99094545e+03 4.86341598e+03 1.56569549e+01
v 7.98759658e+03 4.86398490e+03 2.07548645e+01
v 7.98560558e+03 4.86207855e+03 2.08750391e+01
v 7.98179420e+03 4.85514935e+03 2.51111315e+01
v 7.99136672e+03 4.86246576e+03 2.86408673e+01
v 7.99116527e+03 4.86299565e+03 2.74065368e+01
v 7.98646947e+03 4.86339537e+03 2.17869484e+01
v 7.98974616e+03 4.86453643e+03 2.68008116e+01
v 7.99352436e+03 4.85080109e+03 3.11104256e+01
v 7.98837331e+03 4.85938139e+03 2.96170557e+01
v 7.98798964e+03 4.86092800e+03 2.81130450e+01
v 7.97686332e+03 4.84650832e+03 2.74682349e+01
v 7.98992004e+03 4.84446291e+03 3.13222906e+01
v 7.98988247e+03 4.84458557e+03 3.32123395e+01
v 7.98858111e+03 4.84542228e+03 2.98237386e+01
v 7.98702376e+03 4.84643815e+03 3.12937216e+01
v 7.98991996e+03 4.84452270e+03 2.75296959e+01
v 7.97921001e+03 4.85053285e+03 1.95841865e+01
v 7.97887412e+03 4.85013588e+03 1.73858254e+01
v 7.96976048e+03 4.85140216e+03 4.78829086e+00
v 7.96912352e+03 4.85055169e+03 4.63000640e+00
v 7.97254247e+03 4.84882322e+03 4.88345512e+00
v 7.97132309e+03 4.84977824e+03 3.16637854e+00
v 7.97248392e+03 4.84937674e+03 3.17156838e+00
v 7.97259762e+03 4.84804374e+03 4.85194323e+00
v 7.97306638e+03 4.84852947e+03 4.52527359e+00
v 7.97169795e+03 4.85150385e+03 4.36874589e+00
v 7.97118254e+03 4.85060335e+03 4.62350678e+00
v 7.97268952e+03 4.85266366e+03 3.96546476e+00
v 7.97381922e+03 4.85339901e+03 3.97754667e+00
v 7.98214611e+03 4.85537273e+03 8.18024881e+00
v 7.98358258e+03 4.85740242e+03 7.21678475e+00
v 7.97689580e+03 4.85443984e+03 3.11569737e+00
v 7.97692335e+03 4.84720085e+03 5.22233879e+00
v 7.97684290e+03 4.84741549e+03 3.43038470e+00
v 7.98956336e+03 4.84386706e+03 7.95891382e+00
v 7.97803888e+03 4.84929064e+03 1.20022154e+01
v 7.98268453e+03 4.85679151e+03 2.89113239e+00
v 7.98374916e+03 4.85807802e+03 3.97736002e+00
v 7.98652598e+03 4.86329135e+03 1.18757424e+01
v 7.98526899e+03 4.86094343e+03 1.41273279e+01
v 7.98589368e+03 4.86244921e+03 1.00817489e+01
v 7.98396709e+03 4.85774546e+03 1.28092469e+01
v 7.98347701e+03 4.85674432e+03 9.99747237e+00
v 7.99142929e+03 4.86331173e+03 2.48027117e+01
v 7.99270041e+03 4.86375136e+03 2.67416059e+01
v 7.99095624e+03 4.86398326e+03 2.65272103e+01
v 7.98944196e+03 4.84394441e+03 1.93578473e+01
v 7.97044657e+03 4.87462016e+03 1.15529835e+01
v 7.97063600e+03 4.87431919e+03 1.07156182e+01
v 7.98346477e+03 4.85646809e+03 8.63240954e+00
v 7.97517839e+03 4.84373820e+03 2.80212653e+01
v 7.97889805e+03 4.84985181e+03 2.73936160e+01
v 7.97865498e+03 4.84876443e+03 2.79883824e+01
v 7.99106011e+03 4.84416485e+03 5.03667280e+00
v 7.96918519e+03 4.85194710e+03 4.46107249e+00
v 7.99084928e+03 4.84553194e+03 6.08595802e+00
v 7.98819096e+03 4.86339642e+03 4.48792257e+00
v 7.97976394e+03 4.85168918e+03 8.02492288e+00
v 7.97919263e+03 4.85046462e+03 1.03253019e+01
v 7.99328207e+03 4.84619265e+03 4.29976909e+00
v 7.99235138e+03 4.84511736e+03 4.36664960e+00
v 7.98557285e+03 4.86232654e+03 7.73737264e+00
v 7.97116187e+03 4.87384426e+03 1.35368029e+01
v 7.98518503e+03 4.85979683e+03 7.90712083e+00
v 7.98428639e+03 4.85869174e+03 5.91154824e+00
v 7.98299384e+03 4.85641517e+03 1.45279530e+01
v 7.97502585e+03 4.85230886e+03 3.03201786e+00
v 7.98858558e+03 4.86400092e+03 8.73665335e+00
v 7.98922434e+03 4.86401181e+03 1.11675323e+01
v 7.98898132e+03 4.86423976e+03 7.85672335e+00
v 7.99040432e+03 4.86349526e+03 8.24058600e+00
v 7.97691665e+03 4.84898989e+03 7.73594820e+00
v 7.97797532e+03 4.84933226e+03 7.25921422e+00
v 7.97803969e+03 4.84902416e+03 9.48766274e+00
v 7.97703007e+03 4.84882439e+03 1.07589298e+01
v 7.97521447e+03 4.84624676e+03 9.03577850e+00
v 7.97614194e+03 4.84699326e+03 8.94889280e+00
v 7.97543291e+03 4.84554862e+03 6.36201899e+00
v 7.97520699e+03 4.84490620e+03 4.45687494e+00
v 7.97615452e+03 4.84589679e+03 5.54097443e+00
v 7.98139110e+03 4.85362091e+03 2.26629667e+01
v 7.98001936e+03 4.85241278e+03 2.18755299e+01
v 7.99137571e+03 4.84624506e+03 3.26758270e+01
v 7.97505032e+03 4.84627768e+03 7.53753456e+00
v 7.99219370e+03 4.86680529e+03 3.66034767e+00
v 7.99152407e+03 4.86744760e+03 2.73363099e+00
v 7.98695656e+03 4.86372794e+03 7.93209222e+00
v 7.97085925e+03 4.87448844e+03 1.35951243e+01
v 7.98103865e+03 4.85344523e+03 1.98006951e+01
v 7.98312318e+03 4.85642234e+03 3.51361149e+00
v 7.97739353e+03 4.84838059e+03 2.54087642e+01
v 7.97843558e+03 4.85001749e+03 2.31472299e+01
v 7.98903937e+03 4.86419641e+03 2.15929750e+01
v 7.99195718e+03 4.84666608e+03 2.63189066e+01
v 7.99319106e+03 4.84895590e+03 2.66576009e+01
v 7.98148685e+03 4.85298299e+03 2.86567331e+01
v 7.99135562e+03 4.84682093e+03 2.87095826e+01
v 7.98680908e+03 4.86083470e+03 2.81179845e+01
v 7.98383386e+03 4.85804579e+03 2.17531392e+01
v 7.96874589e+03 4.87418626e+03 2.35703915e+00
v 7.97027739e+03 4.87512622e+03 1.27135872e+01
v 7.97012424e+03 4.87428823e+03 6.61415697e+00
v 7.97005147e+03 4.87341537e+03 9.78890314e+00
v 7.96871140e+03 4.87288171e+03 8.83596253e+00
v 7.96882349e+03 4.87232989e+03 9.95240033e+00
v 7.96938366e+03 4.85277549e+03 3.09576310e+00
v 7.96889866e+03 4.87228549e+03 1.11432274e+01
v 7.97017951e+03 4.87355458e+03 8.58675295e+00
v 7.96926415e+03 4.87346858e+03 1.27201727e+01
v 7.96878964e+03 4.87518371e+03 1.47565888e+01
v 7.96974005e+03 4.87503268e+03 1.35835964e+01
v 7.96894262e+03 4.87358332e+03 1.34400319e+01
v 7.97043065e+03 4.87342630e+03 1.37147524e+01
v 7.96939632e+03 4.87402061e+03 1.44097494e+01
v 7.97158099e+03 4.85481240e+03 2.99167296e+00
v 7.99855300e+03 4.86601053e+03 3.74738091e+00
v 7.99565328e+03 4.86563845e+03 2.66375270e+00
v 7.99763853e+03 4.86409284e+03 4.09986280e+00
v 7.99377418e+03 4.84579385e+03 3.42255015e+00
v 7.99712679e+03 4.84508776e+03 3.75774707e+00
v 7.99643436e+03 4.87457074e+03 2.54234224e+00
v 7.99484651e+03 4.85360241e+03 3.01791845e+01
v 7.99500595e+03 4.85182015e+03 2.96334653e+01
v 7.99450771e+03 4.86084524e+03 3.00999930e+01
v 7.99603992e+03 4.86125731e+03 2.96562971e+01
v 7.99536651e+03 4.85201092e+03 2.83937502e+01
v 7.99461755e+03 4.86341754e+03 2.70516775e+01
v 7.99296611e+03 4.86268896e+03 2.86012773e+01
v 7.99452121e+03 4.86297123e+03 3.00156302e+01
v 7.99300758e+03 4.86241434e+03 2.92695392e+01
v 7.99601602e+03 4.86298875e+03 2.80187627e+01
v 7.99772783e+03 4.86280375e+03 2.87931212e+01
v 7.99801358e+03 4.85205290e+03 2.82578648e+01
v 8.00000000e+03 4.85610200e+03 3.28706025e+01
v 7.99432452e+03 4.85525610e+03 3.22942819e+01
v 7.99759754e+03 4.86864262e+03 2.84078888e+00
v 8.00000000e+03 4.86873327e+03 2.89303801e+00
v 7.99685035e+03 4.86727644e+03 3.45682025e+00
v 7.99541451e+03 4.86790286e+03 2.85926758e+00
v 7.99557752e+03 4.84698908e+03 3.95046626e+00
v 7.99843945e+03 4.87307996e+03 2.54142396e+00
v 7.99542691e+03 4.86678634e+03 3.02685986e+00
v 7.99724049e+03 4.86327444e+03 1.08318053e+01
v 7.99766277e+03 4.86302261e+03 1.29468658e+01
v 7.99599069e+03 4.86342863e+03 1.36740017e+01
v 7.99619445e+03 4.86344556e+03 1.73890015e+01
v 7.99441531e+03 4.86303699e+03 1.92858269e+01
v 7.99425104e+03 4.86325492e+03 1.78405076e+01
v 7.99316523e+03 4.86330820e+03 8.66818186e+00
v 7.99403864e+03 4.86280559e+03 9.83151984e+00
v 7.99595790e+03 4.86350628e+03 8.27404449e+00
v 7.99424100e+03 4.85011788e+03 2.05575054e+01
v 7.99304946e+03 4.84884975e+03 2.32321236e+01
v 7.99605302e+03 4.86360613e+03 2.35316454e+01
v 7.99644254e+03 4.86358979e+03 2.13066829e+01
v 7.99776707e+03 4.85093800e+03 3.94101956e+00
v 8.00000000e+03 4.85105387e+03 3.47676951e+00
v 7.99379662e+03 4.85117563e+03 2.84603946e+01
v 7.99548708e+03 4.85098886e+03 2.74546904e+01
v 7.99304140e+03 4.84917437e+03 2.10982863e+01
v 7.99202949e+03 4.84759512e+03 2.26586440e+01
v 7.99499019e+03 4.86342708e+03 2.17036372e+01
v 7.99455134e+03 4.86302375e+03 2.32935280e+01
v 7.99920604e+03 4.86378893e+03 2.16977904e+01
v 7.99570598e+03 4.86352950e+03 4.27279785e+00
v 7.99644642e+03 4.86372434e+03 3.86325871e+00
v 7.99422438e+03 4.86317956e+03 7.21827248e+00
v 7.99512690e+03 4.86295484e+03 9.49186111e+00
v 7.99730852e+03 4.86289480e+03 9.10765998e+00
v 7.99908266e+03 4.86352246e+03 8.12835048e+00
v 7.99305293e+03 4.84915856e+03 4.29923229e+00
v 7.99530248e+03 4.85030552e+03 4.22404892e+00
v 7.99437971e+03 4.84767878e+03 4.17696061e+00
v 7.99819256e+03 4.86322723e+03 2.33485534e+01
v 7.99438846e+03 4.85024099e+03 2.30479776e+01
v 7.99341620e+03 4.86323830e+03 1.46892912e+01
v 7.99435438e+03 4.86285165e+03 1.32894285e+01
v 7.99660632e+03 4.85098124e+03 9.45591636e+00
v 7.99523534e+03 4.85056331e+03 1.00517499e+01
v 8.00000000e+03 4.86348536e+03 7.23914180e+00
v 8.00000000e+03 4.87279279e+03 2.93145637e+00
v 7.99496182e+03 4.86310764e+03 5.81864133e+00
v 7.99843663e+03 4.86753135e+03 3.72742159e+00
v 8.00000000e+03 4.85105161e+03 5.42976506e+00
v 7.99787625e+03 4.86097380e+03 3.00577748e+01
v 8.00000000e+03 4.86146266e+03 2.96490036e+01
v 7.99766645e+03 4.85129335e+03 2.87522040e+01
v 7.99793039e+03 4.86294156e+03 2.99884790e+01
v 7.99807934e+03 4.86316375e+03 5.97096738e+00
v 7.99029845e+03 4.86527696e+03 3.02795928e+00
v 7.97881373e+03 4.86682785e+03 2.47109260e+00
v 7.98878904e+03 4.87088276e+03 2.32856419e+00
v 7.97219451e+03 4.85718364e+03 2.89640766e+00
v 7.98982074e+03 4.84426047e+03 1.24009085e+01
v 7.99058233e+03 4.86353093e+03 1.96590318e+01
v 7.98542012e+03 4.86010206e+03 2.02615857e+01
v 7.98352551e+03 4.85699742e+03 1.96902554e+01
v 7.98590249e+03 4.86259257e+03 1.53043377e+01
v 7.98152893e+03 4.85365755e+03 1.26899447e+01
v 7.98100420e+03 4.85492247e+03 2.67343507e+01
v 7.97474614e+03 4.84458052e+03 2.52543440e+01
v 7.97503430e+03 4.84472315e+03 1.72137067e+01
v 7.99184847e+03 4.85121666e+03 3.05335492e+01
v 7.99320739e+03 4.84912968e+03 3.28474975e+01
v 7.98112595e+03 4.85154022e+03 2.85263486e+01
v 7.99258874e+03 4.84411918e+03 3.61252364e+00
v 7.99184951e+03 4.86302171e+03 9.94040406e+00
v 7.97624988e+03 4.84589429e+03 1.56372712e+01
v 7.97569156e+03 4.84546769e+03 1.48444744e+01
v 7.98068925e+03 4.85504051e+03 3.18422659e+00
v 7.98301620e+03 4.85767831e+03 5.94491327e+00
v 7.98361565e+03 4.85706170e+03 1.58482091e+01
v 7.99301238e+03 4.84900325e+03 1.15300245e+01
v 7.99289039e+03 4.84881820e+03 6.67304128e+00
v 7.99007191e+03 4.86363557e+03 6.47205880e+00
v 7.98074588e+03 4.85309075e+03 1.14360039e+01
v 7.97105460e+03 4.85265632e+03 3.30445534e+00
v 7.98484209e+03 4.86015465e+03 2.31346261e+01
v 7.99011621e+03 4.84456235e+03 2.47043850e+01
v 7.98520464e+03 4.86048831e+03 1.87058171e+01
v 7.97499363e+03 4.84455252e+03 1.94380717e+01
v 7.98777763e+03 4.86370664e+03 1.32159602e+01
v 7.98915739e+03 4.86407586e+03 3.49618420e+00
v 7.98676618e+03 4.86222300e+03 5.07039373e+00
v 7.99348238e+03 4.86339035e+03 4.25446399e+00
v 7.97186446e+03 4.87521158e+03 9.69195525e+00
v 7.97851141e+03 4.85008681e+03 2.14008601e+01
v 7.99336656e+03 4.84915185e+03 1.89849852e+01
v 7.98973161e+03 4.84426825e+03 1.54579918e+01
v 7.98966153e+03 4.86814725e+03 2.27902170e+00
v 7.99297820e+03 4.86833465e+03 2.62602082e+00
v 7.98864763e+03 4.86535706e+03 2.29519482e+00
v 7.99015590e+03 4.87472678e+03 2.39885552e+00
v 7.97874574e+03 4.85887445e+03 2.55748869e+00
v 7.98410283e+03 4.86081147e+03 2.81585004e+00
v 7.98513090e+03 4.86074194e+03 2.71990806e+00
v 7.99356290e+03 4.87152415e+03 2.40848806e+00
v 7.97311762e+03 4.84982195e+03 3.76582434e+00
v 7.97780625e+03 4.84964973e+03 3.69485181e+00
v 7.97545464e+03 4.85388888e+03 2.88388197e+00
v 7.98118160e+03 4.85348392e+03 5.68900427e+00
v 7.98155283e+03 4.85500644e+03 3.76161094e+00
v 7.97218632e+03 4.85620130e+03 3.86981114e+00
v 7.97361098e+03 4.85275068e+03 3.97668648e+00
v 7.97268501e+03 4.85521353e+03 3.95466644e+00
v 7.97942479e+03 4.85071814e+03 5.77794931e+00
v 7.97816316e+03 4.84924651e+03 4.62380764e+00
v 7.98098562e+03 4.85367356e+03 3.29741181e+00
v 7.97120936e+03 4.87301592e+03 1.15410767e+01
v 7.99353425e+03 4.85394018e+03 3.14143511e+01
v 7.99198985e+03 4.85222440e+03 3.11843438e+01
v 7.99348688e+03 4.85008881e+03 3.11294154e+01
v 7.98679120e+03 4.85102078e+03 3.41924690e+01
v 7.98870210e+03 4.85375784e+03 3.41714454e+01
v 7.99081598e+03 4.85434612e+03 3.36537085e+01
v 7.99210679e+03 4.85451655e+03 3.49089609e+01
v 7.99117946e+03 4.85384261e+03 3.47690219e+01
v 7.99434141e+03 4.85715429e+03 3.42324519e+01
v 7.99115875e+03 4.86029668e+03 3.00493155e+01
v 7.98738326e+03 4.85790660e+03 3.00932814e+01
v 7.98385759e+03 4.84689514e+03 3.43974930e+01
v 7.98519218e+03 4.84676696e+03 3.30637266e+01
v 7.97494714e+03 4.84353757e+03 2.96892446e+01
v 7.97602689e+03 4.84397128e+03 2.84269600e+01
v 7.97674311e+03 4.84622272e+03 2.95750788e+01
v 7.97611406e+03 4.84492260e+03 2.79578309e+01
v 7.97763823e+03 4.84859531e+03 2.36861210e+01
v 7.97930852e+03 4.85004110e+03 2.96512723e+01
v 7.97916855e+03 4.84979433e+03 2.85065360e+01
v 7.98168502e+03 4.85079052e+03 2.94564265e+01
v 7.98021548e+03 4.85125192e+03 2.80162180e+01
v 7.98104558e+03 4.85283724e+03 2.78065334e+01
v 7.98013636e+03 4.85342540e+03 2.69199721e+01
v 7.98114813e+03 4.85400274e+03 2.53157812e+01
v 7.98563113e+03 4.86008729e+03 2.72939003e+01
v 7.98359850e+03 4.85870319e+03 2.67985551e+01
v 7.98589601e+03 4.86243663e+03 2.56215474e+01
v 7.98531629e+03 4.86266901e+03 2.69283386e+01
v 7.98459880e+03 4.86022093e+03 2.67057984e+01
v 7.98657606e+03 4.86040315e+03 2.97275955e+01
v 7.98592716e+03 4.85976039e+03 3.01975292e+01
v 7.98324671e+03 4.85587042e+03 2.80291465e+01
v 7.98176189e+03 4.85366376e+03 3.01192236e+01
v 7.98438008e+03 4.85757190e+03 2.79523724e+01
v 7.98654711e+03 4.86385285e+03 2.66817049e+01
v 7.99171020e+03 4.86238361e+03 2.93651578e+01
v 7.99072219e+03 4.86261695e+03 3.00317352e+01
v 7.99170019e+03 4.84703760e+03 2.71169137e+01
v 7.99013658e+03 4.84458260e+03 2.09528872e+01
v 7.98926793e+03 4.84405326e+03 2.25318894e+01
v 7.98955540e+03 4.84394443e+03 2.16776885e+01
v 7.97937661e+03 4.85040143e+03 1.29631058e+01
v 7.97791979e+03 4.84878909e+03 1.28362203e+01
v 7.97676060e+03 4.84871049e+03 1.22493531e+01
v 7.97741157e+03 4.84802373e+03 1.80637009e+01
v 7.97737447e+03 4.84745836e+03 1.27006687e+01
v 7.97699723e+03 4.84740525e+03 1.45317676e+01
v 7.97757393e+03 4.84858068e+03 2.11133846e+01
v 7.99335046e+03 4.86352760e+03 2.14919394e+01
v 7.98584302e+03 4.86226554e+03 1.28099522e+01
v 7.97635129e+03 4.84682735e+03 2.14790334e+01
v 7.97628686e+03 4.84606748e+03 1.85390756e+01
v 7.97679334e+03 4.84656343e+03 2.26831395e+01
v 7.99370571e+03 4.85029907e+03 2.76493247e+01
v 7.98688950e+03 4.86353781e+03 1.87738428e+01
v 7.99048654e+03 4.86359380e+03 1.17888412e+01
v 7.98952715e+03 4.86364472e+03 2.27601605e+01
v 7.97619903e+03 4.84588936e+03 1.28189666e+01
v 7.97520691e+03 4.84627207e+03 1.22290986e+01
v 7.98180146e+03 4.85476601e+03 5.56620290e+00
v 7.97288256e+03 4.84868124e+03 5.34719292e+00
v 7.98752455e+03 4.86376505e+03 6.22101962e+00
v 7.98052992e+03 4.85287434e+03 7.79479862e+00
v 7.98158050e+03 4.85369057e+03 8.73284847e+00
v 7.98515187e+03 4.85951638e+03 1.02873061e+01
v 7.99354129e+03 4.86318615e+03 1.13173773e+01
v 7.97586603e+03 4.84712153e+03 1.06290228e+01
v 7.97677129e+03 4.84861044e+03 8.84373677e+00
v 7.97946051e+03 4.85048268e+03 8.82866585e+00
v 8.00000000e+03 4.86370129e+03 2.53435157e+01
v 8.00000000e+03 4.86333295e+03 2.74125697e+01
v 8.00000000e+03 4.86343945e+03 1.50295817e+01
v 8.00000000e+03 4.86345517e+03 1.53681296e+01
v 8.00000000e+03 4.86352945e+03 1.74317820e+01
v 8.00000000e+03 4.86343848e+03 1.81436758e+01
v 8.00000000e+03 4.85090533e+03 2.61919341e+01
v 8.00000000e+03 4.85105036e+03 2.20860475e+01
v 8.00000000e+03 4.86347948e+03 1.61656406e+01
v 8.00000000e+03 4.86717781e+03 3.46099960e+00
v 8.00000000e+03 4.86491376e+03 3.96074680e+00
v 8.00000000e+03 4.84719600e+03 3.39080577e+00
v 8.00000000e+03 4.87461305e+03 3.12039270e+00
v 8.00000000e+03 4.87380500e+03 3.34464802e+00
v 8.00000000e+03 4.85105727e+03 1.85551330e+01
v 8.00000000e+03 4.86376379e+03 2.11349466e+01
v 8.00000000e+03 4.86349576e+03 9.98696656e+00
v 8.00000000e+03 4.86349561e+03 1.00096954e+01
v 8.00000000e+03 4.86402403e+03 4.44339326e+00
v 8.00000000e+03 4.86343066e+03 5.22834710e+00
v 8.00000000e+03 4.86346433e+03 8.75890450e+00
v 8.00000000e+03 4.85105012e+03 8.22291647e+00
v 8.00000000e+03 4.85125598e+03 6.71261703e+00
v 8.00000000e+03 4.86342593e+03 1.10743295e+01
v 8.00000000e+03 4.86351850e+03 1.24547811e+01
v 8.00000000e+03 4.86342786e+03 1.04704118e+01
v 7.99914854e+03 4.86349550e+03 1.49012241e+01
v 7.99731591e+03 4.86321908e+03 2.68276853e+01
v 7.99641139e+03 4.85089784e+03 3.68254864e+00
v 7.99518644e+03 4.85041360e+03 6.63949335e+00
v 7.99443365e+03 4.85037321e+03 1.21758299e+01
v 7.99578515e+03 4.85087165e+03 1.79245514e+01
v 7.99908919e+03 4.86350077e+03 1.16808254e+01
v 8.00000000e+03 4.85110471e+03 1.52062632e+01
v 8.00000000e+03 4.85104465e+03 1.16786315e+01
v 8.00000000e+03 4.86353774e+03 2.02543798e+01
v 7.99858625e+03 4.86340485e+03 1.78128849e+01
v 7.99838588e+03 4.86334876e+03 2.01029222e+01
v 7.99654571e+03 4.85076876e+03 2.67045918e+01
v 7.99719579e+03 4.86318686e+03 1.97833427e+01
v 7.99872251e+03 4.86365734e+03 2.50098957e+01
v 7.99598875e+03 4.85089094e+03 2.11998660e+01
v 8.00000000e+03 4.85739910e+03 3.41846290e+01
v 8.00000000e+03 4.86297331e+03 2.93879407e+01
v 7.99494805e+03 4.85192488e+03 3.10522370e+01
v 7.99596651e+03 4.86285955e+03 2.94937910e+01
v 7.99719328e+03 4.86340294e+03 7.56493064e+00
v 7.99886881e+03 4.86345993e+03 4.93915460e+00
v 7.99743613e+03 4.85018744e+03 3.57029118e+00
v 7.99719704e+03 4.86307426e+03 1.63443183e+01
v 7.99666725e+03 4.84851303e+03 3.51313943e+00
v 7.99572796e+03 4.84817770e+03 4.44195301e+00
v 7.99767476e+03 4.84438257e+03 3.99155811e+00
v 7.99613577e+03 4.86425918e+03 2.65072077e+01
v 7.99864129e+03 4.84484152e+03 3.40362648e+00
v 7.99728480e+03 4.85735965e+03 3.41402249e+01
v 8.00000000e+03 4.85106379e+03 2.69520760e+01
v 7.99823536e+03 4.85123705e+03 2.73669840e+01
v 7.99368025e+03 4.85073792e+03 2.91944786e+01
v 7.99647152e+03 4.86361707e+03 2.56793445e+01
v 7.99662099e+03 4.85141704e+03 2.81276578e+01
v 7.99523417e+03 4.86371076e+03 2.54688616e+01
v 7.99562599e+03 4.84969988e+03 3.49476757e+00
v 7.99442680e+03 4.84955973e+03 2.68703178e+01
v 7.99453073e+03 4.85037054e+03 1.48358410e+01
v 7.99473484e+03 4.85050466e+03 7.55346267e+00
v 7.99695776e+03 4.86334474e+03 1.51194259e+01
v 7.99457179e+03 4.86292543e+03 1.62678173e+01
v 7.99517487e+03 4.86327672e+03 1.09583513e+01
v 7.96850000e+03 4.87209678e+03 1.11594534e+01
v 7.96850000e+03 4.87218455e+03 1.09965500e+01
v 7.96850000e+03 4.85086607e+03 3.60356316e+00
v 7.96850000e+03 4.85039189e+03 3.69346681e+00
v 7.96850000e+03 4.87325525e+03 1.31829767e+01
v 7.96850000e+03 4.87362324e+03 1.36869125e+01
v 7.96850000e+03 4.87206827e+03 1.13871330e+01
v 7.96850000e+03 4.87243922e+03 1.17181079e+01
v 7.96850000e+03 4.87460876e+03 1.41968185e+01
v 7.96850000e+03 4.87450025e+03 1.40695723e+01
v 7.96850000e+03 4.87476886e+03 1.42995695e+01
v 7.96850000e+03 4.87498130e+03 1.52472178e+01
v 7.96850000e+03 4.87308346e+03 1.27418518e+01
v 7.96850000e+03 4.87223158e+03 1.01342650e+01
v 7.96850000e+03 4.87208670e+03 9.94429616e+00
v 7.96850000e+03 4.87450100e+03 4.98079602e+00
v 7.96850000e+03 4.87321928e+03 6.33851523e+00
v 7.96850000e+03 4.87206226e+03 8.01109657e+00
v 7.96850000e+03 4.87251342e+03 8.74241086e+00
v 7.96850000e+03 4.87255234e+03 9.12907015e+00
v 7.96850000e+03 4.87246462e+03 9.03999879e+00
v 7.96850000e+03 4.87407042e+03 2.36499363e+00
v 7.96850000e+03 4.87112479e+03 2.40031501e+00
v 7.96850000e+03 4.87411295e+03 2.40877697e+00
v 7.96850000e+03 4.87068675e+03 2.41665324e+00
v 7.96850000e+03 4.87025031e+03 2.42064861e+00
v 7.96850000e+03 4.85101489e+03 3.13751126e+00
v 7.96850000e+03 4.85254185e+03 3.11543426e+00
v 7.96850000e+03 4.85024108e+03 3.15580856e+00
v 7.96850000e+03 4.85009166e+03 3.14364961e+00
v 7.96850000e+03 4.86383516e+03 2.82603169e+00
v 7.96850000e+03 4.86362833e+03 2.83410328e+00
v 7.96850000e+03 4.87176948e+03 7.45472044e+00
v 7.96850000e+03 4.87458236e+03 2.75395426e+00
v 7.96850000e+03 4.87499030e+03 3.66809598e+00
v 7.96850000e+03 4.86399261e+03 2.81657206e+00
v 7.96850000e+03 4.87091640e+03 2.42939094e+00
v 7.96850000e+03 4.87495210e+03 4.52737302e+00
v 7.97044023e+03 4.84350000e+03 3.58386384e+00
v 7.97056632e+03 4.84350000e+03 3.61318180e+00
v 7.97512320e+03 4.84350000e+03 2.96614645e+01
v 7.97493027e+03 4.84350000e+03 2.97182727e+01
v 7.97430154e+03 4.84350000e+03 2.72472296e+01
v 7.97345261e+03 4.84350000e+03 2.67934861e+01
v 7.98965527e+03 4.84350000e+03 7.07019996e+00
v 7.99060459e+03 4.84350000e+03 4.86909338e+00
v 7.98961847e+03 4.84350000e+03 2.68383891e+01
v 7.98953616e+03 4.84350000e+03 2.68867574e+01
v 7.97439276e+03 4.84350000e+03 2.24367744e+01
v 7.97399710e+03 4.84350000e+03 2.17992047e+01
v 7.98363461e+03 4.84350000e+03 3.28583090e+01
v 7.98394265e+03 4.84350000e+03 3.27998930e+01
v 7.98496256e+03 4.84350000e+03 3.14702264e+01
v 7.98466444e+03 4.84350000e+03 3.17982185e+01
v 7.98679404e+03 4.84350000e+03 2.96111596e+01
v 7.98720111e+03 4.84350000e+03 2.89980032e+01
v 7.99124001e+03 4.84350000e+03 4.76132105e+00
v 7.99179335e+03 4.84350000e+03 4.38105476e+00
v 7.97441732e+03 4.84350000e+03 6.79569332e+00
v 7.97426969e+03 4.84350000e+03 7.72013207e+00
v 7.97445939e+03 4.84350000e+03 4.26325692e+00
v 7.97414598e+03 4.84350000e+03 3.99603184e+00
v 7.97438297e+03 4.84350000e+03 6.16280641e+00
v 7.97442656e+03 4.84350000e+03 5.38546462e+00
v 7.97439687e+03 4.84350000e+03 8.85625041e+00
v 7.97465055e+03 4.84350000e+03 9.25765986e+00
v 7.97442329e+03 4.84350000e+03 1.15928183e+01
v 7.97436242e+03 4.84350000e+03 1.21772108e+01
v 7.97447788e+03 4.84350000e+03 9.84512897e+00
v 7.97441347e+03 4.84350000e+03 1.10220248e+01
v 7.97451093e+03 4.84350000e+03 1.24292695e+01
v 7.97454198e+03 4.84350000e+03 1.35945824e+01
v 7.97428882e+03 4.84350000e+03 1.43407077e+01
v 7.97446232e+03 4.84350000e+03 1.48945467e+01
v 7.97444587e+03 4.84350000e+03 1.95864065e+01
v 7.97450078e+03 4.84350000e+03 1.90914025e+01
v 7.97426403e+03 4.84350000e+03 1.77471683e+01
v 7.97449131e+03 4.84350000e+03 1.85408691e+01
v 7.97448090e+03 4.84350000e+03 1.61819454e+01
v 7.97437585e+03 4.84350000e+03 2.37609075e+01
v 7.97412395e+03 4.84350000e+03 2.45276031e+01
v 7.98933231e+03 4.84350000e+03 1.78489479e+01
v 7.98931653e+03 4.84350000e+03 1.74260348e+01
v 7.98938628e+03 4.84350000e+03 2.21933125e+01
v 7.98917295e+03 4.84350000e+03 2.28293118e+01
v 7.98934543e+03 4.84350000e+03 1.28027743e+01
v 7.98928632e+03 4.84350000e+03 1.47278766e+01
v 7.98924294e+03 4.84350000e+03 1.90202551e+01
v 7.98929942e+03 4.84350000e+03 1.78839570e+01
v 7.98920941e+03 4.84350000e+03 1.51654902e+01
v 7.98951087e+03 4.84350000e+03 2.49145762e+01
v 7.98921386e+03 4.84350000e+03 2.37050024e+01
v 7.98932711e+03 4.84350000e+03 2.07418142e+01
v 7.98861093e+03 4.84350000e+03 2.76559852e+01
v 7.98810936e+03 4.84350000e+03 2.80183235e+01
v 7.98962292e+03 4.84350000e+03 2.67696339e+01
v 7.98963002e+03 4.84350000e+03 2.68165257e+01
v 7.97863293e+03 4.84350000e+03 3.11934681e+01
v 7.97689867e+03 4.84350000e+03 2.95412738e+01
v 7.97361711e+03 4.84350000e+03 2.63853381e+01
v 7.97502755e+03 4.84350000e+03 2.81026797e+01
v 7.97492628e+03 4.84350000e+03 2.96571103e+01
v 7.97636083e+03 4.84350000e+03 2.90319925e+01
v 7.97649745e+03 4.84350000e+03 2.91669725e+01
v 7.97498239e+03 4.84350000e+03 2.79315030e+01
v 7.97492317e+03 4.84350000e+03 2.96948695e+01
v 7.98182517e+03 4.84350000e+03 3.41687034e+01
v 7.98530172e+03 4.84350000e+03 3.10113508e+01
v 7.98547254e+03 4.84350000e+03 3.06737947e+01
v 7.98348467e+03 4.84350000e+03 3.29203727e+01
v 7.98217387e+03 4.84350000e+03 3.39324090e+01
v 7.97238966e+03 4.84350000e+03 3.61203984e+00
v 7.97380421e+03 4.84350000e+03 3.84336120e+00
v 7.99213782e+03 4.84350000e+03 3.92926189e+00
v 7.98930402e+03 4.84350000e+03 8.07849752e+00
v 7.98938568e+03 4.84350000e+03 8.47030334e+00
v 7.98948714e+03 4.84350000e+03 7.66034805e+00
v 7.98937644e+03 4.84350000e+03 7.87179282e+00
v 7.99288864e+03 4.84350000e+03 3.58815459e+00
v 7.97399473e+03 4.84350000e+03 2.53398212e+01
v 7.98940000e+03 4.84350000e+03 1.24086267e+01
v 7.98942078e+03 4.84350000e+03 1.10868920e+01
v 7.98950614e+03 4.84350000e+03 1.18894119e+01
v 7.99385402e+03 4.84350000e+03 3.46442992e+00
v 7.99914978e+03 4.84350000e+03 3.43837012e+00
v 8.00000000e+03 4.84350000e+03 3.45655837e+00
v 7.99576738e+03 4.84350000e+03 3.64973037e+00
v 7.99816280e+03 4.84350000e+03 3.41840258e+00
v 7.99791246e+03 4.84350000e+03 3.60015383e+00
v 7.99784043e+03 4.84350000e+03 3.49019363e+00
v 7.96927289e+03 4.84350000e+03 3.12075889e+00
v 7.96850000e+03 4.84350000e+03 3.14408257e+00
v 7.96879680e+03 4.87525000e+03 1.47508774e+01
v 7.96958116e+03 4.87525000e+03 1.37886224e+01
v 7.96976221e+03 4.87525000e+03 1.34259721e+01
v 7.96971640e+03 4.87525000e+03 1.36022951e+01
v 7.96888075e+03 4.87525000e+03 2.43715562e+00
v 7.97025568e+03 4.87525000e+03 1.26759824e+01
v 7.96875695e+03 4.87525000e+03 4.50831113e+00
v 7.97155119e+03 4.87525000e+03 1.07648797e+01
v 7.97085033e+03 4.87525000e+03 1.15027768e+01
v 7.96925691e+03 4.87525000e+03 5.03608510e+00
v 7.98369231e+03 4.87525000e+03 2.42772087e+00
v 7.98476028e+03 4.87525000e+03 2.43152664e+00
v 7.97048741e+03 4.87525000e+03 1.22532484e+01
v 7.97072368e+03 4.87525000e+03 1.15538073e+01
v 7.97147723e+03 4.87525000e+03 8.54308743e+00
v 7.97189014e+03 4.87525000e+03 9.60369037e+00
v 7.97185420e+03 4.87525000e+03 9.77944450e+00
v 7.97146316e+03 4.87525000e+03 1.05941606e+01
v 7.96956273e+03 4.87525000e+03 2.33660432e+00
v 7.97285101e+03 4.87525000e+03 2.38980345e+00
v 7.97790569e+03 4.87525000e+03 2.40726354e+00
v 7.98197359e+03 4.87525000e+03 2.42878983e+00
v 7.99013494e+03 4.87525000e+03 2.38191058e+00
v 7.99015677e+03 4.87525000e+03 2.36439946e+00
v 7.99085008e+03 4.87525000e+03 2.33655938e+00
v 7.97162972e+03 4.87525000e+03 7.92120961e+00
v 7.97144894e+03 4.87525000e+03 7.56126305e+00
v 7.99900358e+03 4.87525000e+03 2.41438224e+00
v 7.99885537e+03 4.87525000e+03 2.32303184e+00
v 7.99502429e+03 4.87525000e+03 2.41695352e+00
v 7.99610683e+03 4.87525000e+03 2.49642254e+00
v 7.99840072e+03 4.87525000e+03 2.35299028e+00
v 8.00000000e+03 4.87525000e+03 2.67601866e+00
v 7.99911998e+03 4.87525000e+03 2.47620503e+00
v 7.96858884e+03 4.87525000e+03 1.51184023e+01
v 7.96850000e+03 4.87525000e+03 1.52753988e+01
v 7.96851870e+03 4.87525000e+03 2.88598659e+00
v 7.96850000e+03 4.87525000e+03 2.90917041e+00
v 7.96869497e+03 4.87525000e+03 4.28381695e+00
v 7.96850000e+03 4.87525000e+03 3.57765944e+00
vt 0.0039399755 0.92732811
vt 0.0034789706 0.98040032
vt 0.0015576695 0.97859144
vt 0.0015500778 0.93256551
vt 0.045780007 0.9396683
vt 0.0015576049 0.97925544
vt 0.0015494361 0.92930901
vt 0.0098633235 0.99701732
vt 0.0025133502 0.82014388
vt 0.001557435 0.98658609
vt 0.0015489052 0.92572087
vt 0.035552878 0.9970001
vt 0.0045349244 0.99701965
vt 0.082115173 0.86537254
vt 0.0015477852 0.91890144
vt 0.0017047053 0.99701643
vt 0.075042665 0.99697429
vt 0.061023682 0.78652865
vt 0.11914828 0.98059219
vt 0.0015303954 0.82112008
vt 0.0015585137 0.99701625
vt 0.042366061 0.7470988
vt 0.12933829 0.84751129
vt 0.16005835 0.92868173
vt 0.0015299597 0.8186599
vt 0.1068231 0.99695343
vt 0.025576774 0.67766136
vt 0.063136689 0.74707949
vt 0.081563488 0.74109972
vt 0.1707464 0.98873699
vt 0.0015294047 0.81542802
vt 0.12025063 0.99694473
vt 0.0084044999 0.64584452
vt 0.05482737 0.72769296
vt 0.12341978 0.77133566
vt 0.16686791 0.88593543
vt 0.19735552 0.93867844
vt 0.12859416 0.9969393
vt 0.0015002481 0.64219809
vt 0.021457653 0.64397168
vt 0.056355309 0.70829213
vt 0.061654508 0.72464633
vt 0.079081096 0.71762192
vt 0.11232883 0.70852989
vt 0.13950977 0.79024792
vt 0.15893969 0.84234351
vt 0.19277865 0.88884282
vt 0.21979605 0.98626548
vt 0.17058402 0.9969126
vt 0.027740587 0.66122627
vt 0.031380057 0.63223672
vt 0.039330587 0.71164691
vt 0.12723397 0.75557405
vt 0.14779948 0.81535691
vt 0.13145183 0.77024508
vt 0.17994657 0.85585654
vt 0.18141556 0.87498873
vt 0.21181031 0.88208115
vt 0.23545709 0.96296185
vt 0.17617123 0.9969095
vt 0.17075461 0.99691272
vt 0.034613211 0.65802479
vt 0.039318163 0.69868457
vt 0.069031879 0.70381021
vt 0.096735105 0.68117726
vt 0.16291425 0.82230866
vt 0.17183372 0.84107542
vt 0.18664181 0.86493886
vt 0.22886722 0.89362907
vt 0.23871283 0.99686909
vt 0.20878209 0.99688745
vt 0.034227915 0.64407051
vt 0.035768047 0.67163318
vt 0.056158382 0.69299972
vt 0.067097411 0.67181182
vt 0.10347948 0.68063402
vt 0.18950914 0.84076726
vt 0.22302394 0.87227929
vt 0.21190375 0.8646335
vt 0.23516075 0.99687105
vt 0.23987038 0.9968673
vt 0.24763656 0.8950327
vt 0.2172391 0.99688107
vt 0.04142705 0.64542544
vt 0.043055523 0.65555459
vt 0.034199145 0.6839124
vt 0.049643908 0.67457592
vt 0.085973509 0.65045047
vt 0.099046588 0.65981585
vt 0.18164395 0.82478058
vt 0.23541641 0.87625122
vt 0.21367075 0.84670055
vt 0.24764763 0.97427356
vt 0.24764667 0.95846254
vt 0.040761929 0.63195455
vt 0.047798458 0.66291499
vt 0.030305998 0.69934994
vt 0.05248335 0.63852549
vt 0.19669867 0.81156701
vt 0.2363216 0.85248739
vt 0.24765055 0.98690194
vt 0.24763042 0.87072212
vt 0.034722175 0.62248659
vt 0.055837803 0.6632129
vt 0.085152201 0.61813068
vt 0.092647873 0.64538687
vt 0.22917104 0.82252407
vt 0.24077949 0.99686605
vt 0.026476698 0.62594879
vt 0.04414719 0.60868585
vt 0.074195907 0.59695482
vt 0.21407092 0.81372976
vt 0.24762274 0.83534068
vt 0.2476186 0.82143313
vt 0.21985763 0.81677508
vt 0.24765389 0.99685931
vt 0.026219705 0.60079014
vt 0.037566055 0.59966874
vt 0.06666512 0.56205267
vt 0.037917174 0.58292544
vt 0.032616436 0.5927223
vt 0.0458996 0.55728579
vt 0.029472042 0.57141781
vt 0.057394248 0.54975623
vt 0.023548502 0.59900165
vt 0.047998473 0.51920509
vt 0.0014942681 0.60624802
vt 0.029755048 0.54204172
vt 0.0014939378 0.60391355
vt 0.031863492 0.50089347
vt 0.036969267 0.56091076
vt 0.0075155674 0.50091487
vt 0.042913787 0.5008837
vt 0.0176186 0.50090271
vt 0.0014772584 0.50091851
vt 0.016633609 0.50090373
vt 0.045583252 0.50088024
vt 0.28037632 0.71471012
vt 0.28933057 0.71164691
vt 0.29236606 0.7470988
vt 0.28931817 0.69868457
vt 0.28030601 0.69934994
vt 0.32843629 0.43228436
vt 0.3182776 0.47700495
vt 0.31685314 0.46348614
vt 0.32229239 0.42984146
vt 0.33450812 0.44748098
vt 0.31588846 0.47256804
vt 0.36367571 0.45564562
vt 0.34123665 0.42245173
vt 0.31525448 0.47578621
vt 0.36532596 0.53132141
vt 0.36643374 0.41849792
vt 0.3148393 0.47895759
vt 0.38319412 0.46943033
vt 0.32181439 0.54615211
vt 0.3852956 0.45556819
vt 0.31530327 0.48512429
vt 0.38634962 0.50869322
vt 0.32132599 0.5937469
vt 0.38539907 0.41807085
vt 0.38074166 0.54138267
vt 0.36809134 0.64769459
vt 0.31504411 0.55264437
vt 0.31548625 0.52594507
vt 0.39489472 0.40997553
vt 0.39641413 0.50006598
vt 0.3812643 0.58292639
vt 0.32527775 0.67947334
vt 0.31469336 0.58261716
vt 0.31535858 0.54653782
vt 0.31596857 0.53851789
vt 0.39108115 0.63160145
vt 0.35213259 0.70517737
vt 0.31493518 0.63131124
vt 0.31425101 0.58938563
vt 0.40285343 0.41493714
vt 0.37822416 0.67211616
vt 0.36633915 0.68039632
vt 0.32502818 0.73796445
vt 0.31484783 0.62470627
vt 0.31791925 0.65458512
vt 0.41620773 0.43964803
vt 0.41642496 0.59203649
vt 0.39232531 0.68279779
vt 0.36464134 0.71391189
vt 0.31748343 0.70386833
vt 0.31474701 0.63183373
vt 0.31855193 0.69083482
vt 0.41623288 0.40919667
vt 0.41728798 0.45949775
vt 0.41612867 0.53708082
vt 0.41614968 0.64428473
vt 0.37970591 0.71095902
vt 0.41608918 0.69934124
vt 0.3159079 0.74159986
vt 0.34674501 0.76288295
vt 0.31441659 0.64951003
vt 0.41618103 0.48319787
vt 0.39481983 0.76910895
vt 0.31521431 0.69908357
vt 0.31421891 0.72253042
vt 0.31653562 0.77060199
vt 0.3659929 0.76734108
vt 0.314886 0.67641091
vt 0.4152889 0.76346469
vt 0.31399107 0.70884836
vt 0.34725055 0.77486712
vt 0.31657591 0.77133816
vt 0.37626967 0.77108634
vt 0.32367659 0.78190482
vt 0.3760832 0.78217244
vt 0.31650975 0.77167082
vt 0.38993841 0.77988994
vt 0.34411666 0.79961509
vt 0.32333297 0.84108049
vt 0.36697048 0.86373204
vt 0.38126734 0.79423267
vt 0.34113654 0.86189497
vt 0.37368909 0.8364321
vt 0.37826541 0.80591995
vt 0.39468846 0.79368776
vt 0.32375902 0.87043113
vt 0.33860871 0.87169904
vt 0.37386701 0.87017465
vt 0.39160353 0.81290221
vt 0.3776983 0.83563453
vt 0.40018436 0.81997615
vt 0.39182115 0.8349039
vt 0.098378576 0.34209418
vt 0.094955705 0.29384416
vt 0.10345059 0.26964664
vt 0.12886475 0.30327755
vt 0.080575138 0.31334442
vt 0.081912652 0.23904151
vt 0.12497786 0.33759177
vt 0.12419876 0.26599509
vt 0.080187358 0.37207544
vt 0.095254086 0.23304051
vt 0.13039732 0.36460716
vt 0.1090045 0.37296665
vt 0.12220101 0.22007668
vt 0.13308975 0.24745977
vt 0.064344577 0.28309375
vt 0.065116256 0.34233892
vt 0.10178319 0.21253598
vt 0.14859541 0.3126272
vt 0.12533981 0.23574156
vt 0.070928432 0.26197833
vt 0.096022129 0.38690871
vt 0.056669254 0.37389749
vt 0.094827473 0.17196494
vt 0.14412576 0.35958368
vt 0.12588973 0.38372344
vt 0.1254572 0.19452989
vt 0.16746998 0.2746529
vt 0.034858093 0.32743007
vt 0.058326859 0.23623633
vt 0.070622355 0.2234478
vt 0.083851248 0.42417622
vt 0.094090134 0.42703938
vt 0.03693774 0.35228568
vt 0.06782186 0.38790923
vt 0.1039902 0.15600932
vt 0.081022114 0.16305834
vt 0.16053045 0.36428142
vt 0.13114521 0.39150023
vt 0.12116271 0.40856588
vt 0.13751838 0.21910036
vt 0.11488616 0.15904903
vt 0.15430322 0.2577436
vt 0.17970721 0.29753757
vt 0.031375449 0.256387
vt 0.067010686 0.19267726
vt 0.063774258 0.42316651
vt 0.038423136 0.39541841
vt 0.1661364 0.31941533
vt 0.16101333 0.38406682
vt 0.14383405 0.39946526
vt 0.14148128 0.23220307
vt 0.12446497 0.17194879
vt 0.13939971 0.18048877
vt 0.17228623 0.26161891
vt 0.022251403 0.36032486
vt 0.018246777 0.32083446
vt 0.041902754 0.19811863
vt 0.074674554 0.45039278
vt 0.087997034 0.44780606
vt 0.14615689 0.42577028
vt 0.1228783 0.12450886
vt 0.097551629 0.12427515
vt 0.069010958 0.17181158
vt 0.18106902 0.33198571
vt 0.17959575 0.36629659
vt 0.14573024 0.22076172
vt 0.13739169 0.14562857
vt 0.15271038 0.23019183
vt 0.16764802 0.23099566
vt 0.18277569 0.24900973
vt 0.017601041 0.27438384
vt 0.039780363 0.16114473
vt 0.018616531 0.19378734
vt 0.061960861 0.14931655
vt 0.052763347 0.45076442
vt 0.11526076 0.44599003
vt 0.040072832 0.42902088
vt 0.018424314 0.38424283
vt 0.086430319 0.12249607
vt 0.16816883 0.40127122
vt 0.14404924 0.19819117
vt 0.17655917 0.22050822
vt 0.1901449 0.32656455
vt 0.19023891 0.26162446
vt 0.0077376035 0.32920742
vt 0.0046069291 0.30534732
vt 0.020106589 0.23601294
vt 0.087509699 0.46987349
vt 0.10144229 0.45023239
vt 0.13969943 0.44609135
vt 0.027400374 0.42461646
vt 0.010112025 0.37501872
vt 0.10600416 0.096854568
vt 0.13738725 0.10537612
vt 0.096806794 0.08672595
vt 0.19032316 0.33409864
vt 0.1816971 0.42132354
vt 0.14320938 0.15108085
vt 0.14638679 0.16824603
vt 0.16807395 0.21943265
vt 0.19017132 0.31803656
vt 0.18714061 0.21932644
vt 0.19018845 0.28155935
vt 0.19078778 0.25269943
vt 0.0023094243 0.36089915
vt 0.0059880707 0.26320243
vt 0.050512612 0.12943411
vt 0.020497646 0.15699404
vt 0.01060703 0.22206479
vt 0.038749393 0.45003343
vt 0.094164394 0.46242326
vt 0.083289832 0.48664147
vt 0.10274803 0.46639615
vt 0.1735881 0.44407773
vt 0.12436551 0.46578848
vt 0.018803962 0.43395883
vt 0.0069041583 0.39072382
vt 0.12150462 0.090393245
vt 0.1559335 0.11390769
vt 0.061788194 0.1282106
vt 0.085494861 0.093860328
vt 0.19176762 0.36734921
vt 0.19051167 0.37803674
vt 0.15990379 0.19530731
vt 0.17908081 0.15064788
vt 0.19088987 0.30529124
vt 0.1903408 0.21051663
vt 0.19006732 0.22362816
vt 0.18997635 0.24170256
vt 0.032346271 0.1348629
vt 0.0074315248 0.17657614
vt 0.10030846 0.48033077
vt 0.089616314 0.49594909
vt 0.11670274 0.4693557
vt 0.16121601 0.45821518
vt 0.027947722 0.4534421
vt 0.0041995621 0.44116831
vt 0.13564134 0.089893401
vt 0.070390731 0.09202677
vt 0.19057453 0.39846444
vt 0.19353582 0.44338346
vt 0.16850083 0.14659292
vt 0.15992862 0.17004305
vt 0.16820872 0.17012191
vt 0.18518621 0.17642951
vt 0.19036821 0.20167476
vt 0.19053866 0.2194196
vt 0.03958676 0.1122328
vt 0.0060943812 0.16162217
vt 0.017417274 0.11839068
vt 0.099277474 0.49644673
vt 0.11174957 0.47889221
vt 0.17491804 0.46567142
vt 0.15008356 0.46753097
vt 0.019001538 0.45271617
vt 0.15464643 0.085845888
vt 0.056588791 0.098978877
vt 0.06915012 0.081139565
vt 0.19138208 0.40978187
vt 0.19300909 0.43742275
vt 0.19083491 0.45218599
vt 0.16768734 0.11841947
vt 0.19080375 0.15034354
vt 0.19015506 0.18362266
vt 0.0040089292 0.13634235
vt 0.10604891 0.49620575
vt 0.18634796 0.46577644
vt 0.16621053 0.47726792
vt 0.006634302 0.4504028
vt 0.16404215 0.087595403
vt 0.19179921 0.4220615
vt 0.17776471 0.10058564
vt 0.17247516 0.12990898
vt 0.19040635 0.1681695
vt 0.19032724 0.13636839
vt 0.18960108 0.17490792
vt 0.027042879 0.10247028
vt 0.041593611 0.090638757
vt 0.0045042769 0.11130589
vt 0.15252613 0.49274677
vt 0.18867092 0.46419674
vt 0.020756787 0.089707434
vt 0.16365059 0.49078602
vt 0.18182196 0.090440989
vt 0.18852822 0.46693736
vt 0.19043234 0.12651521
vt 0.0059125423 0.08846724
vt 0.19017604 0.097320378
vt 0.19028822 0.11459398
vt 0.033175528 0.079990268
vt 0.19117248 0.092529714
vt 0.27152964 0.036424994
vt 0.28629699 0.032407165
vt 0.28422308 0.054114103
vt 0.26581898 0.082576811
vt 0.30761513 0.052926958
vt 0.2740503 0.10424799
vt 0.26008052 0.061457515
vt 0.30506188 0.022111475
vt 0.2980797 0.06917721
vt 0.26740196 0.1237334
vt 0.28441933 0.12443835
vt 0.2521852 0.097982347
vt 0.25412747 0.036581457
vt 0.31283179 0.039260685
vt 0.31792018 0.064585924
vt 0.29553816 0.096745908
vt 0.27116582 0.14525753
vt 0.25885713 0.11821985
vt 0.32030794 0.018010259
vt 0.30640063 0.088382781
vt 0.25838345 0.13970208
vt 0.29487887 0.15080994
vt 0.24257311 0.087605655
vt 0.32237294 0.090834439
vt 0.30957144 0.10254264
vt 0.2649366 0.1766066
vt 0.2721391 0.19673455
vt 0.30459192 0.13983494
vt 0.25197703 0.18094748
vt 0.24184608 0.11281645
vt 0.23572843 0.06404382
vt 0.2913709 0.21067488
vt 0.30820978 0.186854
vt 0.24226008 0.13805234
vt 0.22778845 0.096127033
vt 0.22946501 0.047434747
vt 0.32184166 0.10598242
vt 0.31432468 0.14993429
vt 0.26563016 0.24507087
vt 0.23905502 0.17128474
vt 0.22775924 0.15061498
vt 0.23885776 0.032464266
vt 0.2632277 0.22203541
vt 0.26442516 0.26790404
vt 0.30363739 0.2150076
vt 0.31599274 0.17195553
vt 0.24446176 0.20347977
vt 0.22064452 0.12515503
vt 0.22063644 0.08274442
vt 0.22044876 0.03826046
vt 0.24828251 0.029809833
vt 0.32589301 0.15253055
vt 0.25039628 0.23783338
vt 0.2941843 0.2715798
vt 0.29958147 0.23769766
vt 0.30929509 0.21546173
vt 0.32180259 0.19140416
vt 0.22731097 0.19997257
vt 0.22064438 0.1248064
vt 0.22066858 0.13242102
vt 0.22064604 0.052109182
vt 0.22064959 0.10609037
vt 0.27258572 0.30004609
vt 0.24842884 0.29743886
vt 0.22064713 0.16254097
vt 0.24268748 0.22310799
vt 0.2206717 0.14167839
vt 0.30849746 0.26513314
vt 0.29304519 0.31623501
vt 0.25982022 0.3038218
vt 0.24267465 0.27544415
vt 0.31532452 0.21631378
vt 0.2206836 0.20222735
vt 0.2317417 0.24477828
vt 0.30601853 0.29894966
vt 0.26878527 0.34770691
vt 0.26338422 0.32935733
vt 0.23333351 0.2800045
vt 0.25147313 0.33141971
vt 0.32021591 0.23255908
vt 0.22067986 0.20736527
vt 0.22066408 0.23875004
vt 0.31734625 0.28656399
vt 0.3023963 0.31859225
vt 0.28766608 0.35116529
vt 0.22679421 0.30319512
vt 0.23489569 0.33007157
vt 0.32300344 0.25749457
vt 0.2206752 0.21950763
vt 0.22069676 0.24993515
vt 0.32197943 0.31808341
vt 0.30771196 0.33729124
vt 0.25783858 0.36066252
vt 0.30367911 0.36312139
vt 0.27760836 0.37968922
vt 0.22067302 0.28196394
vt 0.23062524 0.35427177
vt 0.29114613 0.37545407
vt 0.24821176 0.36434376
vt 0.22060274 0.2947585
vt 0.32063958 0.36710393
vt 0.26275423 0.38572699
vt 0.30041191 0.37777978
vt 0.28984115 0.39198887
vt 0.250626 0.37500614
vt 0.22064054 0.35942173
vt 0.24175556 0.38327384
vt 0.27588955 0.41147959
vt 0.22076952 0.39224982
vt 0.31617391 0.3808127
vt 0.25198233 0.40205061
vt 0.3088696 0.38911647
vt 0.28844705 0.41255397
vt 0.23868413 0.41471529
vt 0.32560584 0.37762004
vt 0.25241718 0.42503703
vt 0.30248314 0.40474027
vt 0.28579578 0.42394876
vt 0.23706289 0.43263096
vt 0.26366439 0.43249059
vt 0.30056047 0.43130654
vt 0.29343432 0.43330801
vt 0.27565834 0.42256653
vt 0.22089528 0.42361611
vt 0.52952176 0.84643638
vt 0.53877074 0.84124565
vt 0.53170604 0.85630316
vt 0.52429432 0.85793006
vt 0.53916407 0.83033043
vt 0.54572302 0.84995693
vt 0.53328758 0.88633657
vt 0.51665562 0.81892896
vt 0.54024607 0.86499286
vt 0.52043205 0.88669932
vt 0.50466019 0.84264541
vt 0.52289903 0.80819517
vt 0.55237913 0.84409297
vt 0.54713464 0.88973367
vt 0.53336304 0.86305451
vt 0.54493552 0.98681808
vt 0.51091617 0.86745507
vt 0.50146693 0.82320607
vt 0.51008731 0.81132293
vt 0.53157544 0.81293225
vt 0.55644834 0.81257457
vt 0.55517185 0.97762525
vt 0.51624817 0.91391253
vt 0.50793391 0.88640356
vt 0.54227316 0.81295353
vt 0.56107706 0.83903331
vt 0.5652768 0.88013744
vt 0.55598199 0.99066538
vt 0.56818515 0.83388245
vt 0.55833292 0.85647416
vt 0.57013178 0.96934724
vt 0.54980469 0.99512255
vt 0.50223029 0.89562738
vt 0.57854825 0.81179577
vt 0.5720396 0.86021572
vt 0.56507939 0.85700154
vt 0.58042169 0.87272227
vt 0.57701474 0.83820736
vt 0.59611046 0.96607155
vt 0.58554912 0.85736704
vt 0.59795827 0.88235021
vt 0.63758987 0.93425834
vt 0.5927636 0.85262573
vt 0.62337834 0.96331072
vt 0.60814077 0.86783421
vt 0.59775621 0.85734963
vt 0.63547724 0.96236187
vt 0.60252792 0.85246313
vt 0.6284923 0.87970924
vt 0.6175136 0.8666634
vt 0.63765848 0.86535233
vt 0.61460513 0.84701526
vt 0.62519479 0.85409522
vt 0.65196288 0.8606658
vt 0.63184196 0.84871793
vt 0.64302236 0.83251077
vt 0.66678321 0.87562996
vt 0.62009853 0.83416378
vt 0.62771761 0.83302993
vt 0.65388834 0.83057714
vt 0.63405049 0.83702141
vt 0.66273749 0.85082257
vt 0.6570822 0.96035916
vt 0.64446688 0.80306393
vt 0.63470638 0.82252574
vt 0.65645242 0.84591776
vt 0.66769224 0.84409696
vt 0.67879033 0.89601177
vt 0.64253706 0.9549185
vt 0.66638488 0.95915216
vt 0.68552965 0.86134273
vt 0.67893648 0.82874548
vt 0.68708885 0.85340321
vt 0.67014503 0.83675075
vt 0.68761969 0.85062277
vt 0.68572307 0.83824241
vt 0.69060189 0.82676971
vt 0.69244152 0.84438628
vt 0.69287258 0.84264636
vt 0.69280314 0.82745731
vt 0.6931929 0.84299135
vt 0.69320804 0.84232461
vt 0.69322038 0.84267914
vt 0.70916849 0.95511723
vt 0.71327323 0.99514091
vt 0.6890583 0.9930312
vt 0.68999064 0.96051902
vt 0.75364935 0.9580248
vt 0.73585355 0.98960602
vt 0.70963335 0.91329998
vt 0.75636744 0.98525256
vt 0.71021217 0.87648809
vt 0.73021966 0.86978489
vt 0.71840554 0.86625016
vt 0.74309593 0.84097594
vt 0.70897716 0.85613626
vt 0.73017919 0.85133845
vt 0.71648461 0.84216559
vt 0.74276704 0.82933867
vt 0.72600925 0.87202823
vt 0.29271969 0.86978489
vt 0.28850925 0.87202823
vt 0.29267922 0.85133845
vt 0.28090554 0.86625016
vt 0.27898464 0.84216559
vt 0.28850925 0.87202823
vt 0.76656318 0.95616579
vt 0.7566734 0.93711609
vt 0.76947445 0.93463314
vt 0.77762359 0.94882625
vt 0.75685841 0.95576882
vt 0.75898045 0.91922081
vt 0.7739507 0.9630692
vt 0.77801621 0.92141962
vt 0.76523942 0.9797374
vt 0.75404364 0.95327401
vt 0.75352937 0.93694061
vt 0.7709558 0.91587776
vt 0.77536243 0.97316635
vt 0.78940439 0.93307579
vt 0.75539559 0.96433514
vt 0.77293098 0.98162013
vt 0.7543 0.93979502
vt 0.75357491 0.95587891
vt 0.75601566 0.92388499
vt 0.774562 0.88453937
vt 0.78740418 0.91486037
vt 0.78954989 0.93440408
vt 0.7801016 0.90667272
vt 0.75882107 0.97981894
vt 0.75342149 0.95944989
vt 0.7716729 0.99610287
vt 0.75554889 0.92256129
vt 0.75341213 0.90681773
vt 0.77807915 0.99353719
vt 0.78975642 0.93168932
vt 0.78644979 0.90426302
vt 0.78731 0.94682914
vt 0.75581092 0.9178853
vt 0.75185603 0.89836019
vt 0.78827965 0.90527266
vt 0.78781182 0.94955331
vt 0.75958782 0.87988222
vt 0.78055817 0.95784158
vt 0.76642567 0.85776335
vt 0.78724915 0.89953244
vt 0.77813905 0.96152431
vt 0.77128375 0.85015887
vt 0.77474082 0.85860693
vt 0.76883203 0.85035944
vt 0.76904136 0.83693391
vt 0.77188754 0.85002363
vt 0.77153486 0.84647954
vt 0.77042562 0.83533132
vt 0.81150484 0.84243703
vt 0.81020266 0.86064482
vt 0.81120658 0.84365535
vt 0.81967199 0.85344148
vt 0.80785233 0.86041856
vt 0.82103831 0.89697611
vt 0.80603433 0.86876243
vt 0.81344539 0.90369886
vt 0.80274004 0.88827252
vt 0.82242453 0.93120521
vt 0.79741842 0.93478143
vt 0.80126244 0.8993845
vt 0.79384363 0.96633035
vt 0.79647177 0.9228369
vt 0.82178259 0.95965761
vt 0.79091954 0.96217346
vt 0.79585111 0.92859155
vt 0.81805921 0.96892756
vt 0.79353905 0.94363391
vt 0.78980416 0.9650656
vt 0.79462039 0.93714249
vt 0.81410682 0.99661505
vt 0.82610744 0.99073952
vt 0.78926098 0.96693075
vt 0.79251325 0.99436778
vt 0.78450942 0.98962212
vt 0.78324562 0.99521059
vt 0.94409722 0.86870295
vt 0.95193523 0.87367225
vt 0.94714761 0.90076065
vt 0.93400913 0.86619604
vt 0.92138851 0.89181536
vt 0.92049164 0.97771627
vt 0.92255402 0.86592436
vt 0.9420315 0.9961471
vt 0.89522541 0.88684279
vt 0.90969789 0.88104558
vt 0.89768606 0.97171009
vt 0.91122705 0.86059499
vt 0.87655938 0.96926033
vt 0.87897301 0.87499547
vt 0.89597982 0.86293137
vt 0.87987518 0.85454726
vt 0.17246456 0.75367498
vt 0.17219099 0.71550816
vt 0.17946506 0.73230577
vt 0.18804462 0.75552243
vt 0.16337827 0.73542917
vt 0.1740458 0.69991899
vt 0.19031905 0.78534377
vt 0.18331212 0.72608185
vt 0.17768237 0.77864933
vt 0.16209789 0.70062411
vt 0.16782726 0.69023955
vt 0.19857812 0.76330811
vt 0.19740166 0.74474233
vt 0.1635028 0.69023806
vt 0.17638731 0.69024301
vt 0.17052017 0.69024301
vt 0.19526029 0.79656017
vt 0.2059208 0.76855344
vt 0.20950137 0.71502841
vt 0.1585381 0.69024003
vt 0.18392988 0.69023955
vt 0.19778898 0.78710359
vt 0.22133413 0.71117723
vt 0.20392722 0.80581558
vt 0.19887732 0.69022775
vt 0.21377967 0.70400441
vt 0.23195513 0.74795943
vt 0.21193168 0.79471171
vt 0.21507367 0.69021904
vt 0.21759248 0.69021827
vt 0.2253032 0.69021302
vt 0.23196456 0.80823779
vt 0.21451764 0.80643344
vt 0.215636 0.69021749
vt 0.23194551 0.69020855
vt 0.48634636 0.75608027
vt 0.50717926 0.81480449
vt 0.48471168 0.84476244
vt 0.45482212 0.8289234
vt 0.46975818 0.87168097
vt 0.43985328 0.78322929
vt 0.47896039 0.72836792
vt 0.25242662 0.77402061
vt 0.26435816 0.7614432
vt 0.26548585 0.80241144
vt 0.25902027 0.79828322
vt 0.27562916 0.78946507
vt 0.25372589 0.80933058
vt 0.27649182 0.76094913
vt 0.26569569 0.81965911
vt 0.25718838 0.82803828
vt 0.28735673 0.79406726
vt 0.254103 0.83823949
vt 0.26032117 0.83711916
vt 0.27578065 0.82244098
vt 0.26193389 0.8714546
vt 0.27167535 0.84427333
vt 0.27570754 0.86027557
vt 0.39364219 0.83152187
vt 0.3939648 0.89060336
vt 0.3812001 0.86702532
vt 0.36688888 0.8896156
vt 0.39309886 0.92013669
vt 0.35943359 0.91294968
vt 0.34578753 0.93404716
vt 0.48711854 0.92570823
vt 0.482319 0.96275699
vt 0.47032925 0.99514568
vt 0.68510324 0.99490529
vt 0.67759949 0.9919579
vt 0.67958111 0.98027378
vt 0.68825549 0.97705799
vt 0.66384405 0.99572003
vt 0.68998748 0.98250854
vt 0.67517722 0.95778382
vt 0.65803999 0.9833163
vt 0.68770927 0.97029364
vt 0.68213362 0.95582902
vt 0.85150951 0.9582004
vt 0.83483642 0.98427063
vt 0.82988745 0.97337741
vt 0.82979888 0.96610355
vt 0.85424155 0.96994722
vt 0.86030936 0.95247149
vt 0.85090584 0.98294652
vt 0.8554644 0.99048287
vt 0.84030992 0.99533063
vt 0.98221135 0.9953078
vt 0.95556229 0.98875868
vt 0.97081161 0.9453851
vt 0.97788954 0.9603681
vt 0.95543861 0.95497352
vt 0.25834242 0.9221518
vt 0.26567575 0.9183501
vt 0.26161635 0.9380548
vt 0.25676882 0.93055618
vt 0.27223596 0.91629153
vt 0.25246945 0.92866099
vt 0.25842613 0.95096678
vt 0.27312127 0.9267382
vt 0.25171545 0.92390174
vt 0.25408751 0.9361344
vt 0.25794891 0.94889492
vt 0.26282427 0.95889527
vt 0.26829824 0.94217575
vt 0.25913084 0.95349932
vt 0.26006067 0.96186644
vt 0.26316255 0.95958799
vt 0.26822922 0.94730347
vt 0.26181847 0.96353877
vt 0.26910296 0.94505936
vt 0.2612443 0.96522641
vt 0.30283949 0.96214497
vt 0.30106691 0.94975662
vt 0.30204827 0.94916856
vt 0.30121309 0.96476233
vt 0.30167705 0.94199431
vt 0.30291244 0.96498418
vt 0.29524997 0.96190566
vt 0.29693121 0.93178409
vt 0.28875366 0.94153398
vt 0.30129981 0.9305675
vt 0.28983828 0.96050298
vt 0.30109608 0.92940402
vt 0.29432923 0.91857386
vt 0.29457694 0.92594343
vt 0.28343877 0.93030566
vt 0.29997078 0.91598767
vt 0.32397932 0.93429869
vt 0.32082251 0.95546073
vt 0.31479928 0.95687556
vt 0.32011217 0.92684978
vt 0.32696047 0.94546658
vt 0.31649706 0.96547198
vt 0.33446577 0.92913538
vt 0.87657011 0.98748881
vt 0.87166697 0.99587274
vt 0.86938524 0.98635244
vt 0.86882997 0.95757842
vt 0.86558408 0.99691516
vt 0.86136359 0.98835534
vt 0.62103653 0.99661273
vt 0.6112501 0.98502773
vt 0.63029629 0.96257615
vt 0.58255321 0.9780308
vt 0.57145822 0.99694496
vt 0.56975228 0.97854722
vt 0.58183175 0.96986789
vt 0.56466728 0.9958809
vt 0.58023417 0.98061019
vt 0.59910482 0.98298681
vt 0.58727467 0.99654675
vt 0.62815303 0.97395664
vt 0.64411461 0.99706519
vt 0.62717962 0.98879629
vt 0.65478241 0.99514192
vt 0.64702505 0.99512529
vt 0.65009183 0.97786725
vt 0.65643221 0.95996499
vt 0.64261115 0.98572487
vt 0.98752594 0.96385062
vt 0.9951489 0.99020278
vt 0.99036396 0.99684477
vt 0.98631924 0.98029917
vt 0.99703157 0.98426157
vt 0.60804373 0.96521425
vt 0.61115122 0.98490065
vt 0.60740036 0.99585402
vt 0.60364389 0.99034542
vt 0.94688582 0.98154682
vt 0.95508468 0.96536797
vt 0.95175648 0.99623621
vt 0.94757104 0.98991174
vt 0.76675034 0.98167574
vt 0.76783192 0.99562579
vt 0.75191236 0.992199
vt 0.88335133 0.97360808
vt 0.89162272 0.9927519
vt 0.8771764 0.99705195
vt 0.74207163 0.99092031
vt 0.72858202 0.99003071
vt 0.7419405 0.98888594
vt 0.73493564 0.99604648
vt 0.89281952 0.99648625
vt 0.89412886 0.97826701
vt 0.90586329 0.99512458
vt 0.26927426 0.95441401
vt 0.27154589 0.9804225
vt 0.25927749 0.97704834
vt 0.91313791 0.99699008
vt 0.90796393 0.98592693
vt 0.91990322 0.98347628
vt 0.83594179 0.99001235
vt 0.8299008 0.99640155
vt 0.82982916 0.97985893
vt 0.59914851 0.98293811
vt 0.6006009 0.99598813
vt 0.59618866 0.98965901
vt 0.60223621 0.98982054
usemtl Tile_+038_+020_L19_000133_0
f 65/651 266/652 264/653
f 268/655 65/651 270/659
f 270/834 274/835 275/836
f 65/651 268/655 266/652
f 181/810 180/811 216/812
f 181/810 216/812 552/813
f 273/837 275/836 558/840
f 275/836 272/846 271/845
f 270/834 275/836 273/837
f 270/834 273/837 554/839
f 249/841 272/846 275/836
f 558/840 271/845 560/847
f 682/849 272/846 683/850
f 270/659 65/651 67/666
f 557/665 270/659 562/674
f 565/689 263/670 566/687
f 265/656 266/652 564/661
f 266/652 268/655 551/660
f 265/656 264/653 266/652
f 265/656 263/670 269/662
f 59/1 261/2 571/3
f 552/813 267/816 576/818
f 58/123 183/125 578/127
f 577/39 52/9 581/31
f 267/33 276/27 52/9
f 37/128 58/123 588/136
f 684/854 262/855 687/856
f 264/653 265/656 269/662
f 720/697 584/695 721/698
f 263/670 265/656 567/678
f 259/545 128/546 122/547
f 437/565 114/578 115/573
f 250/230 142/231 146/232
f 252/289 148/268 253/267
f 104/589 105/585 138/592
f 88/777 98/778 87/779
f 191/265 139/235 204/274
f 198/387 251/368 199/386
f 386/421 27/422 28/423
f 393/46 351/67 12/56
f 64/663 67/666 65/651
f 246/68 247/57 12/56
f 241/391 239/402 245/371
f 223/337 202/302 74/360
f 58/123 57/120 184/121
f 7/742 222/743 221/744
f 480/281 220/255 219/270
f 8/411 218/408 51/416
f 187/814 50/817 216/812
f 215/143 196/144 594/145
f 239/402 241/391 240/401
f 478/353 238/372 237/373
f 454/280 143/243 197/269
f 56/399 240/401 194/348
f 53/62 54/50 189/72
f 373/244 141/234 358/245
f 187/814 216/812 180/811
f 49/870 185/871 182/872
f 183/820 181/821 553/822
f 55/902 186/903 185/904
f 181/821 188/826 180/828
f 209/861 64/862 210/866
f 144/237 143/243 179/233
f 205/505 130/514 207/518
f 207/518 206/515 205/505
f 192/303 204/274 203/258
f 230/448 73/458 153/453
f 202/302 200/338 74/360
f 361/288 114/287 164/260
f 161/452 153/453 160/465
f 159/285 466/314 154/315
f 152/476 153/453 150/477
f 596/699 149/700 597/701
f 253/267 148/268 147/254
f 144/237 146/232 145/242
f 175/704 149/700 177/702
f 172/364 84/397 132/383
f 170/551 119/554 171/548
f 169/784 525/785 91/786
f 166/524 207/518 168/523
f 116/521 130/514 69/512
f 69/512 130/514 126/489
f 129/552 95/555 94/562
f 122/547 128/546 123/550
f 435/261 243/241 148/268
f 135/305 137/319 136/344
f 464/278 106/294 133/309
f 82/907 78/908 77/909
f 81/795 80/791 79/796
f 105/585 104/589 82/586
f 101/606 83/601 75/598
f 87/779 414/780 88/777
f 85/711 99/713 423/716
f 90/792 80/791 81/795
f 92/572 96/576 93/560
f 89/789 91/786 90/792
f 63/341 61/317 62/362
f 30/5 59/1 52/9
f 39/22 19/41 26/34
f 228/98 193/75 401/104
f 31/88 33/105 32/106
f 20/28 26/34 21/42
f 48/874 49/870 37/876
f 49/870 58/873 37/876
f 187/109 47/117 46/103
f 47/117 399/118 46/103
f 354/138 40/139 39/140
f 50/51 378/40 267/33
f 23/23 352/14 24/18
f 10/377 9/406 22/407
f 15/87 17/74 16/63
f 6/748 332/750 7/742
f 29/425 28/423 27/422
f 5/354 4/374 3/311
f 3/311 2/331 1/299
f 224/864 64/862 249/860
f 168/523 95/532 166/524
f 200/338 202/302 461/316
f 356/474 308/464 161/452
f 467/442 153/453 161/452
f 389/163 321/179 322/174
f 322/174 450/169 389/163
f 222/743 215/751 606/755
f 377/246 145/242 146/232
f 14/746 222/743 7/742
f 7/742 332/750 14/746
f 196/144 215/143 217/147
f 38/413 240/401 56/399
f 56/124 55/122 38/126
f 610/417 38/413 611/420
f 245/371 239/402 5/354
f 608/404 239/402 612/415
f 612/415 240/401 613/418
f 4/374 5/354 609/392
f 245/371 5/354 237/373
f 237/373 5/354 470/329
f 616/356 3/311 619/375
f 3/311 4/374 618/393
f 3/311 470/329 5/354
f 470/329 478/353 237/373
f 457/883 455/884 470/885
f 235/282 480/281 234/296
f 145/242 220/255 197/269
f 245/371 237/373 238/372
f 377/246 475/252 474/264
f 474/264 219/270 377/246
f 377/246 360/239 139/235
f 220/255 235/282 197/269
f 235/282 479/328 236/310
f 479/328 235/282 233/327
f 236/310 479/328 478/353
f 197/269 235/282 455/295
f 236/310 455/295 235/282
f 455/295 236/310 470/329
f 478/353 470/329 236/310
f 479/328 238/372 478/353
f 234/296 233/327 235/282
f 245/371 238/372 479/328
f 233/327 245/371 479/328
f 480/281 219/270 234/296
f 407/290 219/270 474/264
f 186/937 472/938 185/939
f 234/296 407/290 408/323
f 185/904 48/905 55/902
f 53/62 190/85 45/73
f 405/84 228/98 190/85
f 46/103 34/110 35/95
f 194/348 408/323 400/367
f 400/367 408/323 33/347
f 407/290 33/347 408/323
f 217/147 14/150 332/153
f 474/264 402/291 407/290
f 32/322 402/291 409/324
f 385/379 9/406 10/377
f 223/337 473/394 385/379
f 218/408 385/379 473/394
f 26/34 19/41 21/42
f 25/359 10/377 226/336
f 159/285 359/300 201/273
f 223/337 25/359 225/301
f 376/429 231/440 232/436
f 231/440 376/429 473/435
f 201/273 461/316 202/302
f 201/273 202/302 476/286
f 461/316 150/335 200/338
f 225/301 192/303 203/258
f 223/337 225/301 202/302
f 74/360 248/378 223/337
f 310/426 368/431 477/437
f 74/457 73/458 229/445
f 230/448 467/442 232/436
f 230/448 229/445 73/458
f 232/436 368/431 28/423
f 200/472 73/458 74/457
f 230/448 232/436 229/445
f 28/423 376/429 232/436
f 29/425 384/428 218/434
f 376/429 29/425 473/435
f 232/436 231/440 229/445
f 223/337 248/378 473/394
f 29/425 218/434 473/435
f 229/445 231/440 248/444
f 473/435 248/444 231/440
f 372/349 226/336 10/377
f 225/301 226/336 192/303
f 203/258 476/286 225/301
f 204/274 140/259 203/258
f 140/259 204/274 139/235
f 204/274 192/303 211/292
f 192/303 191/265 211/292
f 204/274 211/292 191/265
f 139/235 227/249 140/259
f 191/265 475/252 139/235
f 377/246 139/235 475/252
f 474/264 475/252 191/265
f 191/265 402/291 474/264
f 403/350 409/324 471/308
f 471/308 402/291 191/265
f 251/368 198/387 403/350
f 276/27 45/73 406/86
f 21/42 36/43 20/28
f 193/75 17/74 15/87
f 189/72 405/84 53/62
f 50/51 189/72 54/50
f 15/87 16/63 45/73
f 190/85 53/62 405/84
f 267/816 216/812 50/817
f 183/820 47/824 181/821
f 188/826 187/827 180/828
f 57/906 186/903 55/902
f 185/871 472/875 182/872
f 48/874 185/871 49/870
f 47/117 184/121 399/118
f 47/824 188/826 181/821
f 47/824 187/827 188/826
f 57/911 58/912 182/913
f 47/824 183/820 184/825
f 186/914 57/911 182/913
f 182/940 472/938 186/937
f 143/243 458/271 369/256
f 470/329 3/311 469/298
f 470/329 469/298 457/297
f 469/298 3/311 370/283
f 370/283 3/311 1/299
f 1/299 2/331 620/357
f 1/299 363/272 370/283
f 363/272 369/256 370/283
f 624/325 382/293 625/312
f 456/247 369/256 363/272
f 462/266 463/277 382/293
f 370/283 458/271 469/298
f 457/297 458/271 454/280
f 457/297 469/298 458/271
f 243/241 147/254 148/268
f 428/279 464/278 133/309
f 109/238 242/250 164/260
f 109/238 113/275 110/263
f 435/261 164/260 242/250
f 250/230 109/238 141/234
f 142/231 141/234 139/235
f 109/238 358/245 141/234
f 142/231 250/230 141/234
f 109/238 110/263 260/251
f 146/232 142/231 139/235
f 141/234 373/244 139/235
f 203/258 140/259 227/249
f 373/244 227/249 139/235
f 203/258 201/273 476/286
f 357/262 379/276 163/284
f 161/452 158/475 356/474
f 381/257 159/285 201/273
f 115/573 445/570 437/565
f 125/320 155/306 440/339
f 379/276 260/251 113/275
f 358/245 109/238 260/251
f 110/263 113/275 260/251
f 358/245 260/251 357/262
f 163/284 159/285 381/257
f 125/320 117/307 379/276
f 438/345 439/384 116/366
f 117/307 163/284 379/276
f 157/488 152/476 154/500
f 162/334 466/314 163/284
f 254/495 162/503 70/511
f 70/511 116/521 69/512
f 126/489 468/504 69/512
f 70/511 69/512 254/495
f 162/334 167/321 70/346
f 163/284 167/321 162/334
f 157/488 162/503 254/495
f 466/508 162/503 157/488
f 356/474 126/489 460/483
f 466/508 157/488 154/500
f 356/474 158/475 157/488
f 254/495 468/504 126/489
f 69/512 468/504 254/495
f 152/476 157/488 158/475
f 73/458 383/466 153/453
f 153/453 152/476 160/465
f 467/442 230/448 153/453
f 337/447 467/442 161/452
f 150/477 151/492 152/476
f 206/515 127/496 205/505
f 161/452 160/465 158/475
f 308/464 309/459 161/452
f 359/300 159/285 154/315
f 150/335 359/300 154/315
f 73/458 200/472 150/477
f 150/477 383/466 73/458
f 201/273 359/300 461/316
f 70/346 167/321 117/307
f 116/366 70/346 117/307
f 356/474 254/495 126/489
f 117/307 438/345 116/366
f 117/307 167/321 163/284
f 446/398 116/366 439/384
f 460/483 126/489 127/496
f 109/238 243/241 242/250
f 390/160 450/169 631/175
f 258/215 449/208 465/212
f 242/250 243/241 435/261
f 253/267 147/254 388/240
f 462/266 459/253 456/247
f 253/267 459/253 428/279
f 243/241 109/238 250/230
f 388/240 147/254 243/241
f 435/261 252/289 135/305
f 388/240 459/253 253/267
f 464/278 428/279 459/253
f 459/253 462/266 464/278
f 633/201 451/187 634/207
f 456/247 463/277 462/266
f 179/233 178/236 250/230
f 145/242 453/248 144/237
f 459/253 388/240 456/247
f 179/233 456/247 388/240
f 388/240 178/236 179/233
f 369/256 456/247 143/243
f 457/297 454/280 455/295
f 456/247 179/233 143/243
f 454/280 197/269 455/295
f 458/271 143/243 454/280
f 143/243 144/237 453/248
f 250/230 146/232 179/233
f 146/232 144/237 179/233
f 635/164 390/160 636/170
f 451/187 380/180 640/196
f 637/198 452/189 642/205
f 389/163 450/169 390/160
f 451/187 452/189 450/169
f 258/215 173/216 177/211
f 177/800 173/801 175/802
f 175/704 176/708 72/706
f 149/700 72/706 605/707
f 175/704 72/706 149/700
f 258/215 177/211 449/208
f 255/197 256/204 449/208
f 645/203 255/197 646/209
f 255/197 177/211 596/213
f 255/197 449/208 177/211
f 255/197 380/180 314/186
f 256/204 255/197 314/186
f 120/537 165/533 166/524
f 126/489 205/505 127/496
f 130/514 205/505 126/489
f 130/514 168/523 207/518
f 439/556 129/552 446/563
f 206/515 207/518 166/524
f 116/521 94/530 168/523
f 446/563 129/552 94/562
f 94/530 116/521 446/535
f 168/523 130/514 116/521
f 129/552 171/548 95/555
f 95/532 168/523 94/530
f 171/548 120/561 95/555
f 447/726 448/727 420/728
f 125/320 438/345 117/307
f 121/571 108/581 415/575
f 420/728 291/729 447/726
f 165/533 120/537 156/541
f 448/542 447/538 165/533
f 165/533 447/538 289/528
f 119/554 420/567 156/568
f 420/567 448/577 156/568
f 91/786 411/788 80/791
f 442/553 421/558 170/551
f 170/551 171/548 122/547
f 122/915 441/916 170/917
f 119/554 120/561 171/548
f 171/548 129/552 259/545
f 122/547 171/548 259/545
f 436/549 437/565 118/557
f 445/570 118/557 437/565
f 155/306 113/275 437/304
f 63/584 443/582 114/578
f 108/581 107/579 443/582
f 445/570 115/573 107/579
f 107/579 111/580 445/570
f 112/918 111/919 121/920
f 121/571 111/580 107/579
f 112/574 118/557 445/570
f 112/574 445/570 111/580
f 107/579 108/581 121/571
f 63/584 108/581 443/582
f 121/571 421/558 118/557
f 112/574 121/571 118/557
f 421/558 442/553 123/550
f 436/549 118/557 123/550
f 123/550 118/557 421/558
f 128/546 436/549 123/550
f 443/582 107/579 115/573
f 442/553 441/559 122/547
f 123/550 442/553 122/547
f 441/559 442/553 170/551
f 259/545 129/552 436/549
f 379/276 155/306 125/320
f 124/564 440/569 436/549
f 129/552 439/556 436/549
f 439/556 124/564 436/549
f 437/304 440/339 155/306
f 113/275 155/306 379/276
f 438/345 125/320 124/365
f 439/384 438/345 124/365
f 436/549 440/569 437/565
f 114/287 437/304 113/275
f 361/288 61/317 114/287
f 113/275 164/260 114/287
f 135/305 434/318 361/288
f 361/288 60/340 61/317
f 138/380 62/362 61/317
f 61/317 63/341 114/287
f 444/590 62/587 138/592
f 105/585 444/590 138/592
f 63/584 62/587 105/585
f 62/587 444/590 105/585
f 257/361 138/380 61/317
f 61/317 60/340 257/361
f 433/342 60/340 434/318
f 136/603 430/605 429/599
f 433/342 432/363 366/381
f 138/380 257/361 104/395
f 366/596 431/594 104/589
f 366/596 432/602 131/597
f 257/361 433/342 366/381
f 104/589 431/594 102/593
f 103/595 102/593 131/597
f 131/597 102/593 431/594
f 136/603 429/599 131/597
f 136/603 213/609 430/605
f 137/608 213/609 136/603
f 135/305 432/363 433/342
f 434/318 135/305 433/342
f 136/603 131/597 432/602
f 136/344 432/363 135/305
f 252/289 435/261 148/268
f 252/289 137/319 135/305
f 593/370 362/326 649/389
f 427/616 212/621 425/620
f 172/364 132/383 137/319
f 134/343 212/396 427/382
f 214/600 213/609 137/608
f 424/623 212/621 650/624
f 427/382 172/364 134/343
f 427/616 425/620 652/619
f 84/397 172/364 427/382
f 137/608 132/604 214/600
f 428/279 252/289 253/267
f 252/289 428/279 133/309
f 75/598 103/595 214/600
f 172/364 137/319 134/343
f 84/618 427/616 83/601
f 213/609 214/600 430/605
f 132/928 76/929 75/930
f 214/600 103/595 430/605
f 75/598 76/610 101/606
f 429/925 430/926 103/927
f 132/604 75/598 214/600
f 648/615 427/616 653/617
f 131/597 429/599 103/595
f 76/409 132/383 84/397
f 425/620 424/623 590/622
f 84/397 426/412 76/409
f 83/601 101/606 426/611
f 84/894 83/895 426/896
f 101/606 76/610 426/611
f 86/607 83/601 647/612
f 71/709 85/711 601/714
f 86/607 422/591 78/613
f 422/591 100/588 82/586
f 422/720 86/723 85/711
f 86/607 82/586 83/601
f 75/598 83/601 82/586
f 103/595 75/598 82/586
f 414/583 105/585 82/586
f 102/593 82/586 104/589
f 102/593 103/595 82/586
f 422/934 77/935 78/936
f 77/909 422/910 82/907
f 100/588 414/583 82/586
f 108/581 105/585 414/583
f 85/711 71/709 176/708
f 176/708 99/713 85/711
f 604/710 71/709 658/712
f 72/706 176/708 71/709
f 422/720 85/711 423/716
f 100/721 422/720 423/716
f 415/575 97/566 421/558
f 418/897 92/898 416/899
f 97/901 416/899 92/898
f 93/877 96/878 417/879
f 93/877 417/879 79/880
f 418/882 417/879 92/881
f 417/879 96/878 92/881
f 79/880 417/879 418/882
f 418/897 416/899 79/900
f 415/797 81/795 79/796
f 415/797 416/798 97/799
f 414/583 415/575 108/581
f 421/558 121/571 415/575
f 79/796 416/798 415/797
f 87/794 90/792 81/795
f 169/886 412/887 364/888
f 170/551 93/560 119/554
f 170/551 421/558 97/566
f 93/560 170/551 97/566
f 93/733 419/731 420/728
f 420/567 119/554 93/560
f 419/731 285/730 420/728
f 296/793 79/796 80/791
f 296/628 419/629 93/630
f 411/788 296/793 80/791
f 93/630 79/631 296/628
f 88/224 174/223 244/219
f 87/779 415/781 414/780
f 415/797 87/794 81/795
f 174/223 173/216 244/219
f 87/829 98/830 364/831
f 412/787 91/786 89/789
f 80/791 90/792 91/786
f 90/792 87/794 89/789
f 364/888 412/887 89/890
f 413/833 364/831 98/830
f 91/786 412/787 169/784
f 173/801 174/804 176/803
f 175/802 173/801 176/803
f 99/805 176/803 174/804
f 100/806 99/805 174/804
f 174/783 88/777 100/782
f 365/217 98/225 88/224
f 88/224 244/219 365/217
f 275/836 274/835 224/838
f 249/841 275/836 224/838
f 67/666 64/663 224/679
f 224/679 274/676 67/666
f 270/659 67/666 274/676
f 249/860 262/855 272/857
f 42/658 41/673 43/681
f 209/861 68/867 690/865
f 65/651 264/653 210/654
f 262/855 249/860 64/862
f 64/862 209/861 262/855
f 694/858 209/861 695/863
f 387/664 42/658 696/671
f 210/654 264/653 42/658
f 65/651 410/657 64/663
f 210/654 410/657 65/651
f 269/662 42/658 264/653
f 210/654 387/664 698/672
f 689/686 210/654 699/682
f 183/125 58/123 184/121
f 57/120 399/118 184/121
f 50/51 46/103 35/95
f 198/387 199/386 22/407
f 228/98 400/111 33/105
f 44/96 190/85 401/104
f 218/434 384/428 51/439
f 36/43 371/65 198/44
f 34/110 46/103 399/118
f 195/119 34/110 57/120
f 190/85 44/96 45/73
f 702/17 13/19 703/26
f 228/98 31/88 193/75
f 36/43 18/64 193/75
f 31/88 32/106 409/89
f 409/89 371/65 31/88
f 378/40 54/50 276/27
f 18/64 36/43 21/42
f 263/670 41/673 269/662
f 46/103 50/51 187/109
f 354/138 404/142 16/141
f 19/41 39/22 40/52
f 404/97 406/86 16/63
f 35/95 405/84 50/51
f 54/50 378/40 50/51
f 45/73 276/27 53/62
f 276/27 406/86 404/97
f 354/891 276/892 404/893
f 16/141 40/139 354/138
f 8/411 397/419 22/407
f 395/29 396/35 23/23
f 12/56 11/77 246/68
f 9/406 8/411 22/407
f 20/28 395/29 24/18
f 19/41 18/64 21/42
f 403/76 371/65 409/89
f 31/88 228/98 33/105
f 16/63 17/74 19/41
f 401/104 193/75 15/87
f 45/73 44/96 15/87
f 401/104 15/87 44/96
f 33/347 407/290 32/322
f 34/110 399/118 57/120
f 38/126 55/122 37/128
f 195/119 400/111 228/98
f 55/122 48/131 37/128
f 198/44 371/65 403/76
f 19/41 40/52 16/63
f 18/64 19/41 17/74
f 35/95 228/98 405/84
f 22/53 396/35 198/44
f 36/43 395/29 20/28
f 198/44 395/29 36/43
f 24/18 395/29 23/23
f 52/9 276/27 39/22
f 39/22 20/28 24/18
f 22/53 397/55 396/35
f 39/22 26/34 20/28
f 351/67 393/46 384/66
f 398/37 394/30 353/24
f 247/57 391/36 12/56
f 398/37 353/24 392/47
f 367/747 222/743 607/752
f 247/57 246/68 392/47
f 11/77 12/56 351/67
f 51/54 23/23 8/45
f 23/23 396/35 8/45
f 394/30 13/19 353/24
f 353/24 391/36 392/47
f 392/47 391/36 247/57
f 693/38 394/30 704/49
f 391/36 393/46 12/56
f 23/23 393/46 391/36
f 23/23 391/36 353/24
f 389/163 390/160 374/152
f 388/240 243/241 178/236
f 466/314 159/285 163/284
f 14/150 217/147 215/143
f 384/66 393/46 51/54
f 8/411 9/406 385/379
f 212/396 134/343 592/390
f 390/160 355/156 374/152
f 8/411 385/379 218/408
f 631/175 208/182 638/188
f 196/144 217/147 375/149
f 25/359 223/337 385/379
f 152/476 158/475 160/465
f 29/425 27/422 384/428
f 153/453 383/466 150/477
f 106/294 462/266 382/293
f 355/156 196/144 374/152
f 625/312 363/272 627/330
f 210/654 68/688 209/691
f 358/245 381/257 373/244
f 154/500 151/492 150/477
f 143/243 145/242 197/269
f 322/174 314/186 380/180
f 166/524 165/533 289/528
f 289/528 206/515 166/524
f 120/537 166/524 95/532
f 462/266 106/294 464/278
f 659/722 86/723 660/724
f 108/581 63/584 105/585
f 23/23 51/54 393/46
f 16/63 406/86 45/73
f 471/308 251/368 403/350
f 52/9 39/22 24/18
f 38/126 37/128 661/130
f 52/9 59/1 575/15
f 269/662 41/673 42/658
f 11/77 351/67 27/90
f 467/442 368/431 232/436
f 221/744 222/743 367/747
f 215/751 222/743 14/746
f 332/153 375/149 217/147
f 194/348 195/385 56/399
f 245/371 233/327 194/348
f 18/64 17/74 193/75
f 240/401 241/391 194/348
f 194/348 241/391 245/371
f 235/282 220/255 480/281
f 220/255 145/242 377/246
f 219/270 220/255 377/246
f 233/327 234/296 194/348
f 194/348 234/296 408/323
f 234/296 219/270 407/290
f 55/122 56/124 195/119
f 195/385 194/348 400/367
f 402/291 32/322 407/290
f 25/359 385/379 10/377
f 202/302 225/301 476/286
f 226/336 225/301 25/359
f 477/437 368/431 467/442
f 310/426 28/423 368/431
f 29/425 376/429 28/423
f 248/444 74/457 229/445
f 10/377 22/407 199/386
f 199/386 372/349 10/377
f 251/368 372/349 199/386
f 374/152 196/144 375/149
f 192/303 226/336 372/349
f 201/273 203/258 373/244
f 201/273 373/244 381/257
f 146/232 360/239 377/246
f 191/265 192/303 471/308
f 471/308 192/303 372/349
f 471/308 372/349 251/368
f 402/291 471/308 409/324
f 228/98 35/95 34/110
f 54/50 53/62 276/27
f 58/873 49/870 182/872
f 369/256 458/271 370/283
f 363/272 1/299 623/313
f 363/272 382/293 463/277
f 106/294 362/326 133/309
f 362/326 106/294 598/352
f 463/277 456/247 363/272
f 164/260 113/275 109/238
f 361/288 435/261 135/305
f 450/169 322/174 380/180
f 139/235 360/239 146/232
f 203/258 227/249 373/244
f 379/276 357/262 260/251
f 381/257 358/245 357/262
f 381/257 357/262 163/284
f 460/483 308/464 356/474
f 152/476 151/492 154/500
f 356/474 157/488 254/495
f 461/316 359/300 150/335
f 243/241 250/230 178/236
f 143/243 453/248 145/242
f 450/169 380/180 451/187
f 450/169 452/189 208/182
f 133/309 362/326 252/289
f 258/215 244/219 173/216
f 156/541 448/542 165/533
f 119/554 156/568 120/561
f 436/549 128/546 259/545
f 440/339 124/365 125/320
f 361/288 434/318 60/340
f 60/340 433/342 257/361
f 164/260 435/261 361/288
f 115/573 114/578 443/582
f 104/395 257/361 366/381
f 431/594 366/596 131/597
f 134/343 252/289 362/326
f 425/620 212/621 424/623
f 134/343 137/319 252/289
f 86/607 78/613 82/586
f 87/829 364/831 89/832
f 365/217 244/219 258/215
f 100/721 423/716 99/713
f 93/560 97/566 92/572
f 100/782 88/777 414/780
f 696/671 43/681 707/685
f 64/862 410/868 210/866
f 261/2 59/1 30/5
f 263/670 66/692 691/693
f 228/98 401/104 190/85
f 352/14 13/19 30/5
f 396/35 395/29 198/44
f 36/43 193/75 371/65
f 276/807 354/808 39/809
f 52/9 24/18 352/14
f 700/8 30/5 701/12
f 352/14 30/5 52/9
f 23/23 353/24 352/14
f 353/24 13/19 352/14
f 276/27 267/33 378/40
f 405/84 189/72 50/51
f 8/45 396/35 397/55
f 31/88 371/65 193/75
f 55/122 195/119 57/120
f 195/119 228/98 34/110
f 384/66 27/90 351/67
f 707/685 263/670 708/690
f 43/681 41/673 263/670
f 665/158 355/156 671/165
f 42/658 387/664 210/654
f 316/484 335/507 325/506
f 326/433 527/443 350/451
f 317/177 318/190 345/183
f 297/69 299/78 344/91
f 326/433 386/421 343/427
f 336/194 314/186 313/178
f 549/441 306/449 312/432
f 309/459 308/464 307/473
f 6/748 333/758 332/750
f 389/163 313/178 321/179
f 314/186 322/174 321/179
f 465/212 320/214 319/218
f 283/634 295/632 296/628
f 294/637 295/632 287/636
f 290/540 289/528 291/543
f 285/730 286/735 290/732
f 292/531 288/522 289/528
f 289/528 447/538 291/543
f 289/528 288/522 206/515
f 419/629 296/628 295/632
f 525/229 284/226 283/228
f 539/221 319/218 284/226
f 413/220 98/225 365/217
f 304/454 306/449 305/460
f 11/77 278/92 246/68
f 297/69 300/58 299/78
f 328/424 312/432 343/427
f 549/441 329/438 311/430
f 513/461 304/454 305/460
f 311/430 310/426 477/437
f 531/759 532/753 301/754
f 6/748 543/763 333/758
f 509/166 317/177 339/167
f 509/765 529/769 317/774
f 317/177 345/183 339/167
f 333/161 510/157 332/153
f 340/159 374/152 546/155
f 312/432 328/424 329/438
f 328/424 28/423 310/426
f 343/427 312/432 326/433
f 350/451 528/456 326/433
f 500/481 528/456 341/469
f 328/424 343/427 386/421
f 279/462 528/456 499/470
f 279/462 327/471 326/433
f 528/456 331/455 341/469
f 350/451 527/443 331/455
f 528/456 350/451 331/455
f 312/432 329/438 549/441
f 304/454 513/461 330/450
f 331/455 330/450 513/461
f 312/432 306/449 304/454
f 527/443 312/432 330/450
f 306/449 337/447 548/463
f 306/449 549/441 338/446
f 316/484 325/506 518/498
f 307/473 316/484 520/491
f 324/497 323/490 460/483
f 325/506 335/507 521/517
f 316/484 308/464 323/490
f 308/464 460/483 323/490
f 325/506 496/520 516/516
f 516/516 518/498 325/506
f 548/463 337/447 309/459
f 316/484 315/499 335/507
f 315/499 324/497 542/513
f 316/484 518/498 520/491
f 305/460 547/467 507/478
f 530/486 547/467 307/473
f 513/461 305/460 507/478
f 547/467 306/449 307/473
f 306/449 338/446 337/447
f 313/178 314/186 321/179
f 314/186 336/194 256/204
f 313/178 522/185 336/194
f 545/168 511/162 339/167
f 301/754 334/745 280/749
f 502/199 339/167 503/191
f 510/157 546/155 375/149
f 532/753 334/745 301/754
f 28/423 328/424 386/421
f 374/152 375/149 546/155
f 7/742 221/744 334/745
f 531/759 543/763 6/748
f 334/745 532/753 6/748
f 301/754 281/760 535/764
f 543/763 531/759 509/765
f 281/760 533/767 535/764
f 281/760 301/754 280/749
f 509/765 333/758 543/763
f 278/92 303/79 246/68
f 258/215 465/212 365/217
f 287/222 319/218 320/214
f 519/642 541/638 320/640
f 544/210 320/214 465/212
f 294/645 348/646 538/647
f 525/229 169/227 284/226
f 539/221 413/220 465/212
f 336/194 519/200 256/204
f 544/210 519/200 320/214
f 519/200 544/210 256/204
f 256/204 544/210 465/212
f 465/212 449/208 256/204
f 348/644 519/642 538/641
f 348/931 294/932 541/933
f 541/648 519/649 348/650
f 287/222 284/226 319/218
f 284/226 287/222 283/228
f 283/634 287/636 295/632
f 541/638 294/637 287/636
f 294/637 537/639 295/632
f 349/740 526/737 346/734
f 508/527 540/519 534/525
f 420/728 285/730 291/729
f 285/730 290/732 291/729
f 346/734 347/739 349/740
f 526/737 290/732 286/735
f 290/540 526/536 289/528
f 526/536 292/531 289/528
f 542/513 540/519 315/499
f 521/517 540/519 508/527
f 293/534 508/527 292/531
f 127/496 206/515 542/513
f 206/515 288/522 542/513
f 419/731 536/736 346/734
f 296/793 411/788 283/790
f 295/632 536/633 419/629
f 411/788 525/785 283/790
f 169/886 364/888 413/889
f 169/227 413/220 539/221
f 169/227 539/221 284/226
f 413/220 365/217 465/212
f 487/643 537/639 538/641
f 537/639 294/637 538/641
f 398/37 282/48 394/30
f 303/79 300/58 246/68
f 278/92 277/100 303/79
f 300/58 303/79 299/78
f 302/59 494/93 709/81
f 280/749 367/747 668/756
f 492/768 535/764 674/772
f 535/764 492/768 531/759
f 281/760 280/749 673/762
f 677/771 533/767 678/775
f 386/99 278/92 11/77
f 277/100 299/78 303/79
f 277/100 278/92 279/107
f 302/59 342/94 494/93
f 344/91 490/102 298/82
f 386/99 326/112 278/92
f 298/82 297/69 344/91
f 706/60 282/48 711/71
f 545/168 374/152 511/162
f 502/199 515/192 339/167
f 534/525 288/522 292/531
f 508/527 534/525 292/531
f 340/159 546/155 510/157
f 339/167 340/159 510/157
f 311/430 329/438 328/424
f 501/482 331/455 497/479
f 517/494 307/473 520/491
f 510/157 509/166 339/167
f 6/748 532/753 531/759
f 510/157 375/149 332/153
f 419/731 346/734 285/730
f 534/525 542/513 288/522
f 523/635 536/633 295/632
f 298/82 302/59 297/69
f 531/759 301/754 535/764
f 282/48 302/59 710/70
f 339/167 515/192 514/184
f 492/768 318/773 531/759
f 477/437 549/441 311/430
f 310/426 311/430 328/424
f 330/450 312/432 304/454
f 678/921 281/922 679/923
f 530/486 517/494 507/478
f 511/162 374/152 340/159
f 339/167 345/183 503/191
f 318/773 529/769 531/759
f 279/462 326/433 528/456
f 312/432 527/443 326/433
f 330/450 331/455 527/443
f 331/455 513/461 498/468
f 506/480 513/461 504/487
f 549/441 477/437 338/446
f 548/463 309/459 307/473
f 507/478 547/467 530/486
f 306/449 547/467 305/460
f 323/490 324/497 315/499
f 316/484 323/490 315/499
f 481/526 325/506 521/517
f 127/496 324/497 460/483
f 521/517 335/507 315/499
f 545/168 512/173 389/163
f 518/498 517/494 520/491
f 324/497 127/496 542/513
f 313/178 512/173 522/185
f 516/516 517/494 518/498
f 486/510 517/494 516/516
f 505/485 507/478 483/493
f 517/494 530/486 307/473
f 306/449 548/463 307/473
f 337/447 338/446 477/437
f 495/193 488/195 512/173
f 512/173 313/178 389/163
f 538/641 519/642 487/643
f 519/200 336/194 522/185
f 317/774 529/769 318/773
f 514/184 512/173 339/167
f 389/163 374/152 545/168
f 339/167 512/173 545/168
f 340/159 339/167 511/162
f 510/157 333/161 509/166
f 280/749 334/745 221/744
f 7/742 334/745 6/748
f 509/765 531/759 529/769
f 477/437 467/442 337/447
f 309/459 337/447 161/452
f 465/212 319/218 539/221
f 320/640 541/638 287/636
f 521/517 508/527 482/529
f 508/527 293/534 482/529
f 286/735 346/734 526/737
f 292/531 526/536 293/534
f 349/539 293/534 526/536
f 540/519 521/517 315/499
f 542/513 534/525 540/519
f 293/534 349/539 482/529
f 411/788 91/786 525/785
f 346/734 286/735 285/730
f 536/736 523/738 346/734
f 482/529 349/539 524/544
f 349/740 347/739 524/741
f 326/112 327/115 278/92
f 398/37 392/47 300/58
f 282/48 398/37 302/59
f 27/90 386/99 11/77
f 367/747 280/749 221/744
f 300/58 392/47 246/68
f 278/92 327/115 279/107
f 299/78 277/100 344/91
f 277/100 279/107 499/114
f 344/91 277/100 490/102
f 302/59 398/37 297/69
f 398/37 300/58 297/69
f 522/185 512/173 488/195
f 488/195 519/200 522/185
f 495/193 512/173 514/184
f 307/473 308/464 316/484
f 507/478 517/494 485/502
f 342/94 302/59 298/82
f 489/509 507/478 485/502
f 513/461 506/480 498/468
f 513/461 505/485 504/487
f 341/469 331/455 501/482
f 496/520 325/506 481/526
f 505/485 513/461 507/478
f 709/81 493/101 715/108
f 490/102 277/100 491/113
f 499/470 528/456 500/481
f 497/479 331/455 498/468
f 347/739 346/734 523/738
f 491/113 277/100 499/114
f 484/501 507/478 489/509
f 519/200 488/195 487/206
f 485/502 517/494 486/510
f 507/478 484/501 483/493
f 481/526 521/517 482/529
f 550/668 268/655 556/675
f 551/660 268/655 550/668
f 552/813 216/812 267/816
f 553/815 181/810 552/813
f 554/839 273/837 555/843
f 555/843 273/837 559/844
f 556/675 268/655 557/665
f 557/665 268/655 270/659
f 558/840 275/836 271/845
f 559/844 273/837 558/840
f 560/847 271/845 561/848
f 561/848 271/845 682/849
f 562/842 270/834 554/839
f 563/667 266/652 551/660
f 564/661 266/652 563/667
f 565/689 66/692 263/670
f 566/687 263/670 582/684
f 567/678 265/656 568/683
f 568/683 265/656 570/677
f 569/669 265/656 564/661
f 570/677 265/656 569/669
f 571/3 261/2 573/6
f 572/4 59/1 571/3
f 573/6 261/2 583/10
f 574/11 59/1 586/7
f 575/15 59/1 574/11
f 576/818 267/816 577/819
f 577/39 267/33 52/9
f 578/823 183/820 553/822
f 579/129 58/123 578/127
f 580/25 52/9 585/20
f 581/31 52/9 580/25
f 582/684 263/670 567/678
f 680/132 579/129 681/135
f 583/10 261/2 718/16
f 584/695 66/692 587/694
f 585/20 52/9 575/15
f 586/7 59/1 572/4
f 587/694 66/692 565/689
f 588/136 58/123 680/132
f 589/134 37/128 588/136
f 590/622 424/623 591/625
f 591/625 424/623 655/627
f 592/390 134/343 593/370
f 593/370 134/343 362/326
f 594/145 196/144 666/148
f 595/146 215/143 594/145
f 596/699 177/702 149/700
f 597/701 149/700 643/703
f 598/352 106/294 599/351
f 599/351 106/294 624/325
f 600/718 85/711 659/722
f 601/714 85/711 600/718
f 602/719 71/709 603/717
f 603/717 71/709 601/714
f 604/710 72/706 71/709
f 605/707 72/706 604/710
f 606/755 215/751 595/761
f 607/752 222/743 606/755
f 608/404 5/354 239/402
f 609/392 5/354 608/404
f 610/417 240/401 38/413
f 611/137 38/126 662/133
f 612/415 239/402 240/401
f 613/418 240/401 610/417
f 614/403 4/374 609/392
f 615/405 4/374 614/403
f 616/356 2/331 3/311
f 617/376 2/331 616/356
f 618/393 4/374 615/405
f 619/375 3/311 618/393
f 620/357 2/331 617/376
f 621/358 1/299 620/357
f 622/333 1/299 621/358
f 623/313 1/299 622/333
f 624/325 106/294 382/293
f 625/312 382/293 363/272
f 626/355 363/272 628/332
f 627/330 363/272 626/355
f 628/332 363/272 623/313
f 629/369 362/326 598/352
f 630/388 362/326 629/369
f 631/175 450/169 208/182
f 632/181 390/160 631/175
f 633/201 452/189 451/187
f 634/207 451/187 641/202
f 635/164 355/156 390/160
f 636/170 390/160 639/176
f 637/198 208/182 452/189
f 638/188 208/182 637/198
f 639/176 390/160 632/181
f 640/196 380/180 645/203
f 641/202 451/187 640/196
f 642/205 452/189 633/201
f 643/703 149/700 644/705
f 644/705 149/700 605/707
f 645/203 380/180 255/197
f 646/209 255/197 596/213
f 647/612 83/601 648/615
f 648/615 83/601 427/616
f 649/389 362/326 669/400
f 650/414 212/396 654/410
f 651/626 424/623 650/624
f 652/619 425/620 590/622
f 653/617 427/616 652/619
f 654/410 212/396 592/390
f 655/627 424/623 651/626
f 656/614 86/607 647/612
f 657/715 71/709 602/719
f 658/712 71/709 657/715
f 659/722 85/711 86/723
f 660/724 86/723 656/725
f 661/130 37/128 589/134
f 662/133 38/126 661/130
f 663/757 367/747 607/752
f 664/154 196/144 665/158
f 665/158 196/144 355/156
f 666/148 196/144 667/151
f 667/151 196/144 664/154
f 668/756 367/747 663/757
f 669/400 362/326 630/388
f 670/171 355/156 635/164
f 671/165 355/156 672/172
f 672/172 355/156 670/171
f 673/762 280/749 668/756
f 674/772 535/764 677/771
f 675/776 492/768 674/772
f 676/766 281/760 673/762
f 677/771 535/764 533/767
f 678/921 533/924 281/922
f 679/770 281/760 676/766
f 680/132 58/123 579/129
f 682/849 271/845 272/846
f 683/850 272/846 685/852
f 684/854 272/857 262/855
f 685/859 272/857 684/854
f 686/13 261/2 700/8
f 687/856 262/855 694/858
f 688/696 66/692 720/697
f 689/686 68/688 210/654
f 690/865 68/867 689/869
f 691/693 66/692 688/696
f 692/32 13/19 693/38
f 693/38 13/19 394/30
f 694/858 262/855 209/861
f 695/863 209/861 690/865
f 696/671 42/658 43/681
f 697/680 387/664 696/671
f 698/672 387/664 697/680
f 699/682 210/654 698/672
f 700/8 261/2 30/5
f 701/12 30/5 702/17
f 702/17 30/5 13/19
f 703/26 13/19 692/32
f 704/49 394/30 705/61
f 705/61 394/30 706/60
f 706/60 394/30 282/48
f 707/685 43/681 263/670
f 708/690 263/670 691/693
f 709/81 494/93 493/101
f 710/70 302/59 709/81
f 711/71 282/48 712/83
f 712/83 282/48 713/80
f 713/80 282/48 710/70
f 715/108 493/101 714/116
f 716/851 561/848 682/849
f 717/853 561/848 716/851
f 718/16 261/2 686/13
f 719/21 583/10 718/16
f 720/697 66/692 584/695
usemtl Tile_+038_+020_L19_000133_untextured
