mtllib Tile_+038_+020_L19_000322.mtl
v 7.90157793e+03 4.96988882e+03 4.96437031e-01
v 7.90294039e+03 4.97128514e+03 -3.10758990e-02
v 7.90566186e+03 4.97191626e+03 -2.40022736e-01
v 7.89925896e+03 4.96886457e+03 1.98502649e+00
v 7.90025936e+03 4.97481770e+03 6.08689087e-01
v 7.89932688e+03 4.97427619e+03 8.52741850e-01
v 7.90225017e+03 4.97073422e+03 4.58254896e-01
v 7.90037334e+03 4.97053021e+03 -2.16605719e-01
v 7.90606044e+03 4.97458648e+03 -4.87372043e-02
v 7.90123887e+03 4.97440938e+03 5.78194457e-01
v 7.90051972e+03 4.97582149e+03 4.42584555e-01
v 7.89865057e+03 4.98648644e+03 2.64833254e+00
v 7.89952204e+03 4.98613859e+03 2.19850711e+00
v 7.89994891e+03 4.98736026e+03 2.23116411e+00
v 7.89754462e+03 4.97056555e+03 1.42233285e+00
v 7.90132348e+03 4.97002078e+03 1.39593053e+00
v 7.89949049e+03 4.99015144e+03 -1.88805357e-01
v 7.90064876e+03 4.98973622e+03 2.62221574e-01
v 7.90075723e+03 4.98776080e+03 9.24488295e-02
v 7.90408511e+03 4.98942947e+03 -2.06742292e-01
v 7.90270543e+03 4.98840880e+03 4.59996195e-01
v 7.90300838e+03 4.99301960e+03 -2.60602996e-01
v 7.90032119e+03 4.99357503e+03 -8.32176720e-02
v 7.90110895e+03 4.99148466e+03 -1.74521680e-01
v 7.89971711e+03 4.99257161e+03 1.08827410e+00
v 7.90045593e+03 4.99123582e+03 2.73921856e-01
v 7.89838620e+03 4.99271586e+03 7.01388650e-01
v 7.89661525e+03 4.99206919e+03 -2.29970645e-01
v 7.90033504e+03 5.00000000e+03 -2.66648784e-01
v 7.89859928e+03 4.99437750e+03 4.22692081e-01
v 7.89678734e+03 4.99546944e+03 -2.30216809e-01
v 7.89860234e+03 4.99408218e+03 5.95098019e-01
v 7.89863996e+03 4.99375511e+03 3.38681841e-01
v 7.89815958e+03 4.99169066e+03 4.30328635e-01
v 7.89856645e+03 4.97162374e+03 -2.99220266e-01
v 7.89858333e+03 4.98799465e+03 2.14796687e-01
v 7.89832732e+03 4.98946390e+03 1.79119476e-01
v 7.89842967e+03 4.98740553e+03 3.47746266e-03
v 7.89776826e+03 4.98798852e+03 1.82699416e-01
v 7.89734520e+03 4.98968748e+03 7.87799503e-02
v 7.89869956e+03 4.98577855e+03 -2.86598406e-01
v 7.89261829e+03 4.97001130e+03 2.55126441e-01
v 7.89539483e+03 4.96990307e+03 -3.02297685e-01
v 7.89257002e+03 4.97378856e+03 -5.06808693e-02
v 7.89560454e+03 4.97245924e+03 -1.86427313e-01
v 7.89216033e+03 4.98331316e+03 5.56690746e-01
v 7.89375513e+03 4.98104723e+03 -2.55543752e-01
v 7.89524667e+03 4.97475803e+03 -8.86016767e-02
v 7.89369073e+03 4.98665607e+03 -1.91595319e-01
v 7.89210035e+03 4.98557675e+03 6.05741373e-01
v 7.89629624e+03 4.98735842e+03 -9.81009193e-02
v 7.90418501e+03 4.98592905e+03 -2.38137920e-01
v 7.90475886e+03 4.98276779e+03 -1.68707204e-01
v 7.90286741e+03 4.98308098e+03 4.57745790e-01
v 7.90301351e+03 4.98756017e+03 3.39885180e-01
v 7.90294410e+03 4.98600076e+03 4.49392168e-01
v 7.90576176e+03 4.97691708e+03 5.70147311e-01
v 7.90346581e+03 4.97479852e+03 -2.45343126e-01
v 7.89781811e+03 4.99195419e+03 1.13736256e+00
v 7.89840453e+03 4.99318065e+03 1.03109949e+00
v 7.89808424e+03 4.98756186e+03 2.18232528e+00
v 7.89916122e+03 4.98702165e+03 2.76626130e+00
v 7.89895879e+03 4.98353281e+03 3.21645635e+00
v 7.90085582e+03 4.98452666e+03 3.20086678e+00
v 7.90092694e+03 4.98917506e+03 1.26981468e-01
v 7.90142246e+03 4.98972808e+03 3.06555904e-01
v 7.90139742e+03 4.98916961e+03 4.75259875e-01
v 7.90276190e+03 4.99028714e+03 3.53219876e-01
v 7.89860080e+03 4.98550227e+03 2.85814463e+00
v 7.90039230e+03 4.99039006e+03 1.96466580e+00
v 7.89948652e+03 4.99285162e+03 1.89014064e+00
v 7.89885341e+03 4.99386835e+03 1.77269714e+00
v 7.90087879e+03 4.98624766e+03 2.64127156e+00
v 7.90155880e+03 4.98547711e+03 1.51461141e+00
v 7.90104264e+03 4.98504503e+03 -1.46955553e-01
v 7.89614931e+03 4.98168628e+03 -1.03715021e-01
v 7.89811400e+03 4.98823880e+03 4.23061912e-01
v 7.90291007e+03 4.98748159e+03 4.37215363e-01
v 7.90242726e+03 4.98402582e+03 3.60095635e-01
v 7.90217736e+03 4.98440168e+03 3.05236862e-01
v 7.90040411e+03 4.98183257e+03 2.80441293e-01
v 7.90030032e+03 4.98164228e+03 3.00474143e-01
v 7.90145799e+03 4.98318670e+03 -2.49044984e-01
v 7.90040638e+03 4.98095498e+03 5.30432964e-01
v 7.89998624e+03 4.98172305e+03 2.81818906e-01
v 7.89927398e+03 4.98164149e+03 3.43329280e-01
v 7.90144497e+03 4.98370876e+03 1.18270850e-01
v 7.90115164e+03 4.98005542e+03 2.94180976e-01
v 7.90077223e+03 4.97993179e+03 4.62848979e-01
v 7.90052223e+03 4.98062351e+03 5.81780367e-01
v 7.89320389e+03 4.97886560e+03 5.21638296e-01
v 7.90026465e+03 4.97338461e+03 -2.08614106e-01
v 7.90160171e+03 4.97237034e+03 4.00257315e-01
v 7.90193119e+03 4.97212735e+03 4.99906326e-01
v 7.90132727e+03 4.97326020e+03 4.82600226e-01
v 7.89794538e+03 4.98996849e+03 1.78036631e+00
v 7.89986579e+03 4.98645887e+03 8.56630522e-02
v 7.89872325e+03 4.98942174e+03 5.88849338e-01
v 7.89852761e+03 4.99115428e+03 7.38933384e-01
v 7.89749603e+03 4.98895121e+03 1.16024510e+00
v 7.89772401e+03 4.98727114e+03 8.97000488e-01
v 7.89952729e+03 4.98032772e+03 1.84191355e-01
v 7.89898808e+03 4.98173550e+03 3.08278826e-01
v 7.89998119e+03 4.98091319e+03 6.74260000e-01
v 7.90031672e+03 4.99162326e+03 8.49179749e-01
v 7.90076762e+03 4.97179876e+03 1.88987492e+00
v 7.90008407e+03 4.99074189e+03 4.35313639e-01
v 7.90298623e+03 4.98394099e+03 4.62924402e-01
v 7.90213965e+03 4.98440276e+03 4.67707389e-01
v 7.89770159e+03 4.98731088e+03 3.31770520e-01
v 7.89688187e+03 4.98698274e+03 6.33463968e-01
v 7.89888303e+03 4.99320973e+03 1.03582945e+00
v 7.90018763e+03 4.99232502e+03 1.92085974e+00
v 7.89890325e+03 4.98872406e+03 2.27117363e+00
v 7.90145547e+03 4.98787071e+03 5.58562463e-01
v 7.90087158e+03 4.98824382e+03 2.10468235e+00
v 7.90103616e+03 4.98103829e+03 6.72653646e-01
v 7.90171500e+03 4.98260466e+03 1.52952652e+00
v 7.90232315e+03 4.98173574e+03 5.11489122e-01
v 7.90132488e+03 4.98812308e+03 1.29890804e+00
v 7.90111166e+03 4.98838136e+03 3.86052669e-01
v 7.89798162e+03 4.99198844e+03 1.58635402e+00
v 7.90079352e+03 4.96861616e+03 1.96011321e+00
v 7.89785829e+03 4.98379034e+03 6.63649431e-01
v 7.89175394e+03 4.97043157e+03 4.82426103e-01
v 7.89911234e+03 4.97524951e+03 5.95053646e-01
v 7.89723969e+03 4.97432819e+03 5.77187621e-01
v 7.89881389e+03 4.97514262e+03 6.00559490e-01
v 7.89188384e+03 4.97376517e+03 5.95694891e-01
v 7.89734233e+03 4.97131165e+03 5.46804302e-01
v 7.89678674e+03 4.96927092e+03 5.03960896e-01
v 7.89872708e+03 4.98139877e+03 6.29323902e-01
v 7.90107353e+03 4.98027738e+03 4.12299531e-01
v 7.90067022e+03 4.98044385e+03 5.51179804e-01
v 7.90172212e+03 4.98675195e+03 5.42786166e-01
v 7.90296406e+03 4.98731655e+03 4.05574961e-01
v 7.90272527e+03 4.98739607e+03 4.21804476e-01
v 7.90598040e+03 4.98050656e+03 4.89639548e-01
v 7.90233765e+03 4.98492397e+03 4.50577132e-01
v 7.90253218e+03 4.98434182e+03 4.31033799e-01
v 7.90248253e+03 4.98464163e+03 4.55588580e-01
v 7.90024365e+03 4.98034587e+03 6.00807294e-01
v 7.90351857e+03 4.97946998e+03 5.30759548e-01
v 7.89994517e+03 4.97932750e+03 5.32568828e-01
v 7.90268749e+03 4.98428526e+03 4.73055928e-01
v 7.89189241e+03 4.97881622e+03 5.81252898e-01
v 7.90068894e+03 4.98074514e+03 5.71392516e-01
v 7.90381947e+03 4.98104026e+03 1.03450494e-01
v 7.90137325e+03 4.98296668e+03 5.87975719e-02
v 7.89713436e+03 4.98286673e+03 5.67441034e-01
v 7.90226194e+03 4.98409997e+03 3.37460715e-01
v 7.90240761e+03 4.98445016e+03 3.98771354e-01
v 7.90128760e+03 4.98043714e+03 4.44657751e-01
v 7.89878446e+03 4.98234358e+03 -2.06668586e-01
v 7.89952677e+03 4.97550009e+03 4.83669964e-01
v 7.89935743e+03 4.97514159e+03 4.23268961e-01
v 7.89918470e+03 4.97420477e+03 8.27251572e-02
v 7.89921368e+03 4.97466583e+03 2.35491051e-01
v 7.89922885e+03 4.97440794e+03 1.26454649e-01
v 7.90175960e+03 4.97653313e+03 6.39098507e-01
v 7.89801252e+03 4.97366999e+03 1.77342275e+00
v 7.89770852e+03 4.97258887e+03 1.61658101e+00
v 7.89923002e+03 4.97490126e+03 3.40703975e-01
v 7.89653253e+03 4.97341395e+03 5.33403032e-01
v 7.89916948e+03 4.97577667e+03 5.90043213e-01
v 7.89245664e+03 4.97601988e+03 5.44364129e-01
v 7.90054374e+03 4.97391418e+03 1.53474120e+00
v 7.90021055e+03 4.96873853e+03 3.73017308e-01
v 7.90216227e+03 4.97278791e+03 4.71967343e-01
v 7.90123836e+03 4.97258603e+03 1.03018491e+00
v 7.90168157e+03 4.97231520e+03 4.13786821e-01
v 7.90143747e+03 4.97079038e+03 5.13202214e-01
v 7.89617705e+03 4.97615509e+03 5.83371570e-01
v 7.90237709e+03 4.98376658e+03 4.27688157e-01
v 7.89806300e+03 4.98138902e+03 5.52890553e-01
v 7.89906591e+03 4.98241394e+03 2.15182850e+00
v 7.90287491e+03 4.98747180e+03 4.19669796e-01
v 7.89141073e+03 4.98632044e+03 1.42300173e-02
v 7.89984266e+03 4.98250615e+03 2.47357483e+00
v 7.90126513e+03 4.98910436e+03 1.30278087e+00
v 7.90259843e+03 4.99006888e+03 4.23478574e-01
v 7.90078007e+03 4.98874433e+03 5.10298915e-01
v 7.90238927e+03 4.99099320e+03 5.19464159e-01
v 7.89924941e+03 4.97385486e+03 3.27584217e+00
v 7.88363296e+03 5.00000000e+03 -2.72013475e-01
v 7.88570457e+03 5.00000000e+03 -2.64361624e-01
v 7.88808838e+03 4.98665632e+03 -2.72800745e-01
v 7.89870058e+03 4.99166958e+03 2.10874068e+00
v 7.90239828e+03 4.98314695e+03 4.24958326e-01
v 7.90045025e+03 4.98114494e+03 5.98129740e-01
v 7.89951903e+03 4.97525202e+03 4.56944518e-01
v 7.89979329e+03 4.97665538e+03 6.49542019e-01
v 7.89749182e+03 4.96903839e+03 6.46688197e-01
v 7.90111738e+03 4.98326602e+03 3.16864905e+00
v 7.90018198e+03 4.98231861e+03 3.40458538e+00
v 7.89726623e+03 4.97955926e+03 5.25843162e-01
v 7.89953054e+03 4.97510846e+03 4.37954444e-01
v 7.89978572e+03 4.97534129e+03 5.44374840e-01
v 7.89907495e+03 4.97366803e+03 -4.17474361e-02
v 7.89091645e+03 4.97636565e+03 5.98456302e-01
v 7.90052446e+03 4.97060117e+03 2.64782598e-02
v 7.90064266e+03 4.97072951e+03 2.81552415e+00
v 7.89957497e+03 4.96985123e+03 2.04038915e+00
v 7.89825580e+03 4.97025028e+03 2.66363640e+00
v 7.90009536e+03 4.97372046e+03 3.14539633e+00
v 7.89798507e+03 4.97296744e+03 2.75142427e+00
v 7.90058859e+03 4.97339788e+03 2.65113690e+00
v 7.87974764e+03 4.97396999e+03 -2.09793597e-01
v 7.88125507e+03 5.00000000e+03 -2.72214442e-01
v 7.88563924e+03 4.98558485e+03 -2.53059869e-01
v 7.87559630e+03 4.98188406e+03 -2.14473362e-03
v 7.87653594e+03 4.98207661e+03 4.99575312e-01
v 7.87650768e+03 4.98194673e+03 5.18070311e-01
v 7.87516144e+03 4.97879432e+03 3.38042030e-01
v 7.88836355e+03 4.98317172e+03 -2.39005580e-01
v 7.88760779e+03 4.98236431e+03 3.93438881e-01
v 7.88698317e+03 4.98217418e+03 5.40928242e-01
v 7.88717129e+03 4.98270573e+03 5.26836154e-01
v 7.87527304e+03 4.98515271e+03 -2.54337927e-01
v 7.87814536e+03 4.98231154e+03 -1.70623867e-01
v 7.87765892e+03 4.98556674e+03 -1.97869256e-01
v 7.87638662e+03 4.98179580e+03 4.94756398e-01
v 7.87707491e+03 4.98237540e+03 4.80986541e-01
v 7.87662175e+03 4.98181300e+03 5.49535322e-01
v 7.87646766e+03 4.97809516e+03 5.86579935e-01
v 7.87495073e+03 4.97885187e+03 3.39136739e-01
v 7.87567207e+03 4.97900683e+03 2.53692266e-01
v 7.87567676e+03 4.97571759e+03 1.15222181e+00
v 7.87650579e+03 4.98101416e+03 5.00539836e-01
v 7.87637679e+03 4.98197451e+03 4.93900609e-01
v 7.87536233e+03 4.97790537e+03 6.53015090e-01
v 7.87654752e+03 4.98464010e+03 5.83308110e-01
v 7.87566598e+03 4.97483193e+03 6.07460020e-01
v 7.87609529e+03 4.97626929e+03 6.72867952e-01
v 7.88743277e+03 4.98345940e+03 4.27246959e-01
v 7.88672988e+03 4.98420476e+03 5.68065925e-01
v 7.88611627e+03 4.97396619e+03 5.36777478e-01
v 7.88509320e+03 4.97328669e+03 1.57592243e+00
v 7.88569559e+03 4.97152613e+03 1.84310880e+00
v 7.87799870e+03 4.97509251e+03 6.18304877e-01
v 7.87739931e+03 4.97878872e+03 4.72491577e-01
v 7.88939098e+03 4.97814400e+03 7.31892639e-01
v 7.88098860e+03 4.97820623e+03 5.93566974e-01
v 7.88645475e+03 4.97116288e+03 4.56293080e-01
v 7.90134336e+03 4.98973440e+03 3.07234391e-01
v 7.89026765e+03 4.97003450e+03 -1.75457377e-01
v 7.89050753e+03 4.97315339e+03 -1.57396538e-01
v 7.89153090e+03 4.97101504e+03 4.23919865e-01
v 7.88511194e+03 4.97197370e+03 2.63042145e+00
v 7.88241369e+03 4.97352168e+03 1.31680333e+00
v 7.88331753e+03 4.97435592e+03 3.23372756e-01
v 7.88508941e+03 4.97458498e+03 2.51395618e-01
v 7.88809050e+03 4.97874223e+03 5.09103898e-01
v 7.89151618e+03 4.97152921e+03 4.64785143e-01
v 7.88351040e+03 4.97169106e+03 3.20095799e+00
v 7.88272980e+03 4.97134036e+03 2.77786515e+00
v 7.88640483e+03 4.96923619e+03 1.21494900e+00
v 7.88539543e+03 4.97155951e+03 -1.62563207e-01
v 7.88476879e+03 4.96934309e+03 2.55594755e+00
v 7.88885113e+03 4.98141713e+03 -2.61610673e-01
v 7.88775215e+03 4.98329045e+03 3.27426348e-02
v 7.88871945e+03 4.98261375e+03 -2.11061045e-01
v 7.88560294e+03 4.96928875e+03 2.01423198e+00
v 7.89145456e+03 4.97156434e+03 4.34907083e-01
v 7.88729303e+03 4.97047305e+03 4.27914448e-01
v 7.88185320e+03 4.97365124e+03 5.51904208e-01
v 7.88227429e+03 4.97558789e+03 5.60555304e-01
v 7.88122292e+03 4.97239501e+03 4.78958150e-01
v 7.89157462e+03 4.97101361e+03 4.50543419e-01
v 7.88069073e+03 4.97537276e+03 6.12545471e-01
v 7.88344739e+03 4.97280472e+03 1.98355092e+00
v 7.88234901e+03 4.97174001e+03 1.64264901e+00
v 7.88324014e+03 4.96961192e+03 2.64768135e+00
v 7.88519339e+03 4.97018673e+03 3.04566525e+00
v 7.88548534e+03 4.97107380e+03 2.88726960e+00
v 7.88267385e+03 4.96893801e+03 1.84568186e+00
v 7.88602923e+03 4.97577410e+03 5.53792950e-01
v 7.88179054e+03 4.97107124e+03 5.45410238e-01
v 7.88632760e+03 4.96916783e+03 5.80330197e-01
v 7.88783922e+03 4.97092846e+03 2.61209885e-02
v 7.87845192e+03 4.97958167e+03 -1.87572792e-01
v 7.88234226e+03 4.97462296e+03 1.92521547e-01
v 7.88626549e+03 4.97846268e+03 5.78654152e-01
v 7.88718772e+03 4.97556394e+03 5.70863747e-01
v 7.88214390e+03 4.97885954e+03 5.83261244e-01
v 7.89027699e+03 4.97833529e+03 1.17297016e+00
v 7.88725280e+03 4.98046755e+03 5.64552972e-01
v 7.88065712e+03 4.97988760e+03 -2.45195023e-01
v 7.88505932e+03 4.98056234e+03 -2.26878273e-01
v 7.88090407e+03 4.98577156e+03 7.18062823e-03
v 7.88165333e+03 4.98490372e+03 5.95573522e-01
v 7.88200249e+03 4.98343570e+03 5.11578857e-01
v 7.89089098e+03 4.98330387e+03 -1.78713855e-01
v 7.88305247e+03 4.98274817e+03 -1.54787368e-01
v 7.88351834e+03 4.97336744e+03 -2.42343012e-01
v 7.89096189e+03 4.97973593e+03 -5.18410986e-02
v 7.88304939e+03 4.98530304e+03 -2.39765231e-01
v 7.88829167e+03 4.97384217e+03 -2.29698208e-01
v 7.87475000e+03 4.96908370e+03 -2.31036634e-01
v 7.87475000e+03 4.97037346e+03 -2.38047700e-01
v 7.87475000e+03 4.97270802e+03 -2.55954578e-01
v 7.87475000e+03 4.98618843e+03 -2.55169344e-01
v 7.87475000e+03 4.98626447e+03 -2.55213625e-01
v 7.87475000e+03 4.98552592e+03 -2.52423876e-01
v 7.87475000e+03 4.98500845e+03 -2.28064319e-01
v 7.87475000e+03 4.98456300e+03 -1.49865481e-01
v 7.87475000e+03 4.97446916e+03 4.74374447e-02
v 7.87475000e+03 4.97408609e+03 -2.50862915e-01
v 7.87475000e+03 4.97459266e+03 3.10960045e-01
v 7.87475000e+03 4.98028849e+03 1.01669214e-01
v 7.87475000e+03 4.98003660e+03 1.23472817e-01
v 7.87475000e+03 4.98059385e+03 2.94903940e-02
v 7.87475000e+03 4.97787186e+03 6.43484457e-01
v 7.87475000e+03 4.97712180e+03 6.47263255e-01
v 7.87475000e+03 4.97869014e+03 3.83845708e-01
v 7.87475000e+03 4.97792205e+03 6.11022262e-01
v 7.87475000e+03 4.97845926e+03 4.24589807e-01
v 7.87475000e+03 4.97489218e+03 6.15024373e-01
v 7.87475000e+03 4.97537227e+03 9.10136155e-01
v 7.87475000e+03 4.97554986e+03 6.45966926e-01
v 7.87475000e+03 4.97880248e+03 3.30792576e-01
v 7.87475000e+03 4.97879012e+03 2.67476391e-01
v 7.87475000e+03 4.98162192e+03 -5.81444694e-02
v 7.87475000e+03 4.98091900e+03 -9.98535557e-03
v 7.87475000e+03 4.98079197e+03 2.29358313e-02
v 7.87475000e+03 4.98056446e+03 2.05359851e-02
v 7.87475000e+03 4.98031349e+03 7.03680259e-02
v 7.87475000e+03 5.00000000e+03 -2.69113217e-01
v 7.90650000e+03 4.97053829e+03 1.69542274e-01
v 7.90650000e+03 4.96875099e+03 1.56771448e-01
v 7.90650000e+03 4.97700124e+03 5.94788883e-01
v 7.90650000e+03 4.97561521e+03 5.85406784e-01
v 7.90650000e+03 4.97771033e+03 6.03748075e-01
v 7.90650000e+03 4.97470451e+03 2.69841785e-01
v 7.90650000e+03 4.97935248e+03 5.36870939e-01
v 7.90650000e+03 4.98386747e+03 -2.39286335e-01
v 7.90650000e+03 4.98771424e+03 -2.29508456e-01
v 7.90650000e+03 4.97166228e+03 2.48073517e-01
v 7.90650000e+03 4.97330195e+03 2.24086521e-01
v 7.90650000e+03 4.98291497e+03 -2.14230386e-01
v 7.90650000e+03 4.99475800e+03 -2.61435440e-01
v 7.90650000e+03 4.99225915e+03 -2.43527351e-01
v 7.90650000e+03 4.99181320e+03 -2.37069381e-01
v 7.90650000e+03 5.00000000e+03 -2.65650494e-01
v 7.90650000e+03 4.98824348e+03 -2.24808770e-01
v 7.90650000e+03 4.98169584e+03 -3.16781498e-02
v 7.90650000e+03 4.98083030e+03 2.90761265e-01
v 7.90650000e+03 4.98052059e+03 4.62267648e-01
v 7.87805878e+03 4.96850000e+03 -2.27424866e-01
v 7.88642453e+03 4.96850000e+03 9.57005957e-01
v 7.88637898e+03 4.96850000e+03 6.05192763e-01
v 7.88492507e+03 4.96850000e+03 -1.92862211e-01
v 7.88476682e+03 4.96850000e+03 4.71032125e-02
v 7.88052606e+03 4.96850000e+03 -2.23540282e-01
v 7.88065473e+03 4.96850000e+03 -1.52304488e-01
v 7.88404646e+03 4.96850000e+03 2.28830564e+00
v 7.88463876e+03 4.96850000e+03 2.28615249e+00
v 7.88340720e+03 4.96850000e+03 1.93431877e+00
v 7.89186943e+03 4.96850000e+03 5.39353891e-01
v 7.89194712e+03 4.96850000e+03 5.73804360e-01
v 7.88502683e+03 4.96850000e+03 2.04464591e+00
v 7.88628335e+03 4.96850000e+03 1.28798164e+00
v 7.88458449e+03 4.96850000e+03 -2.08300358e-01
v 7.88282766e+03 4.96850000e+03 -1.69784116e-01
v 7.88280855e+03 4.96850000e+03 -1.75775991e-01
v 7.88786653e+03 4.96850000e+03 4.95791298e-02
v 7.88671481e+03 4.96850000e+03 5.72479725e-01
v 7.88283749e+03 4.96850000e+03 -1.75031857e-01
v 7.88281809e+03 4.96850000e+03 -1.72283936e-01
v 7.88076727e+03 4.96850000e+03 -1.10731851e-01
v 7.88197438e+03 4.96850000e+03 6.04361895e-01
v 7.88210412e+03 4.96850000e+03 8.42451042e-01
v 7.88260100e+03 4.96850000e+03 1.65231145e+00
v 7.88246270e+03 4.96850000e+03 1.44053670e+00
v 7.88567958e+03 4.96850000e+03 1.88723174e+00
v 7.88812751e+03 4.96850000e+03 -1.38543598e-01
v 7.88282093e+03 4.96850000e+03 -1.71025646e-01
v 7.88281002e+03 4.96850000e+03 1.81683440e+00
v 7.88268495e+03 4.96850000e+03 1.75371807e+00
v 7.88928231e+03 4.96850000e+03 -2.08638929e-01
v 7.89085068e+03 4.96850000e+03 -1.93617541e-01
v 7.89753396e+03 4.96850000e+03 9.25680248e-01
v 7.89764439e+03 4.96850000e+03 5.69694876e-01
v 7.89805623e+03 4.96850000e+03 1.89047966e+00
v 7.89860456e+03 4.96850000e+03 1.85907817e+00
v 7.90070339e+03 4.96850000e+03 1.92472634e-01
v 7.90063608e+03 4.96850000e+03 2.20875004e-01
v 7.90071919e+03 4.96850000e+03 2.01003478e-01
v 7.90160248e+03 4.96850000e+03 4.47885894e-01
v 7.90166070e+03 4.96850000e+03 4.42146975e-01
v 7.90567646e+03 4.96850000e+03 -2.57125904e-01
v 7.89198960e+03 4.96850000e+03 5.61036675e-01
v 7.90269137e+03 4.96850000e+03 -6.74968657e-03
v 7.90157229e+03 4.96850000e+03 5.55014902e-01
v 7.89988009e+03 4.96850000e+03 4.37155151e-01
v 7.89848591e+03 4.96850000e+03 4.62752955e-01
v 7.89731211e+03 4.96850000e+03 4.78210000e-01
v 7.89663359e+03 4.96850000e+03 3.00511472e-01
v 7.89939410e+03 4.96850000e+03 1.96370318e+00
v 7.89957679e+03 4.96850000e+03 1.90632426e+00
v 7.90055952e+03 4.96850000e+03 5.36113619e-01
v 7.89350929e+03 4.96850000e+03 -4.23006396e-02
v 7.90081283e+03 4.96850000e+03 1.93325324e+00
v 7.90287096e+03 4.96850000e+03 -1.42501633e-01
v 7.90033223e+03 4.96850000e+03 -1.28271446e-01
v 7.90045572e+03 4.96850000e+03 -1.25906064e-01
v 7.90070039e+03 4.96850000e+03 1.87712124e-01
v 7.89448986e+03 4.96850000e+03 -2.36092117e-01
v 7.89923189e+03 4.96850000e+03 -2.28014978e-01
v 7.89867563e+03 4.96850000e+03 4.61169159e-02
v 7.90338822e+03 4.96850000e+03 -1.87273802e-01
v 7.90122149e+03 4.96850000e+03 1.45737450e+00
v 7.90135460e+03 4.96850000e+03 1.04144484e+00
v 7.89924243e+03 4.96850000e+03 1.95285504e+00
v 7.89757802e+03 4.96850000e+03 1.32630411e+00
v 7.89795433e+03 4.96850000e+03 1.70218814e+00
v 7.90073093e+03 4.96850000e+03 2.03947144e-01
v 7.89590674e+03 4.96850000e+03 -1.65579099e-01
v 7.87946578e+03 4.96850000e+03 -2.27238272e-01
v 7.88002946e+03 4.96850000e+03 -2.27663869e-01
v 7.87475000e+03 4.96850000e+03 -2.31755517e-01
v 7.90575152e+03 4.96850000e+03 -2.19566817e-01
v 7.90604423e+03 4.96850000e+03 -7.30947268e-02
v 7.90650000e+03 4.96850000e+03 2.49019185e-02
vt 0.17564368 0.58556211
vt 0.16988865 0.55062836
vt 0.17011642 0.54259491
vt 0.18710321 0.5269078
vt 0.16892624 0.55117798
vt 0.15414171 0.57601833
vt 0.18637048 0.58593118
vt 0.17359805 0.53347629
vt 0.15037797 0.52728689
vt 0.23049061 0.52520871
vt 0.18460548 0.62078965
vt 0.16054127 0.6261996
vt 0.17079926 0.54257202
vt 0.11952292 0.58679253
vt 0.20101991 0.50329244
vt 0.23377933 0.56514668
vt 0.2281985 0.60106605
vt 0.11243647 0.54126513
vt 0.17539228 0.50329435
vt 0.21634281 0.50328964
vt 0.17726973 0.50329351
vt 0.25222966 0.51531541
vt 0.2427374 0.62288308
vt 0.10227585 0.61369205
vt 0.11693013 0.50332081
vt 0.17660595 0.50329357
vt 0.15948017 0.50330758
vt 0.23848101 0.50328171
vt 0.24983439 0.50327289
vt 0.24827838 0.58005142
vt 0.19629587 0.66525066
vt 0.13671368 0.65399265
vt 0.10389668 0.53414768
vt 0.13497445 0.50331569
vt 0.1128507 0.50332004
vt 0.26043493 0.50326741
vt 0.26092073 0.54719859
vt 0.25933191 0.59433246
vt 0.25977349 0.67606843
vt 0.17580321 0.6644851
vt 0.15055501 0.65697217
vt 0.11639846 0.66334891
vt 0.085526623 0.58873284
vt 0.26562604 0.50326478
vt 0.26324415 0.51167691
vt 0.28393292 0.60704958
vt 0.28949234 0.61695504
vt 0.24233744 0.70931578
vt 0.18001236 0.73474884
vt 0.087880589 0.65898949
vt 0.084175646 0.61698186
vt 0.090801857 0.54493022
vt 0.094850816 0.5033201
vt 0.28859672 0.6087184
vt 0.29924327 0.63068104
vt 0.25772956 0.72774798
vt 0.20492633 0.69934452
vt 0.16018473 0.73461825
vt 0.16127349 0.67886734
vt 0.10331761 0.6903109
vt 0.034119975 0.50334799
vt 0.088804036 0.51375675
vt 0.089603238 0.50332141
vt 0.28800964 0.58401489
vt 0.30163091 0.6724335
vt 0.29911917 0.6101495
vt 0.25380465 0.79206133
vt 0.26904491 0.7421748
vt 0.20394786 0.78698242
vt 0.17908628 0.77011734
vt 0.12830307 0.70514905
vt 0.069051221 0.6918118
vt 0.023482457 0.66521132
vt 0.03401481 0.50334799
vt 0.35746622 0.67464173
vt 0.29510936 0.68806803
vt 0.2446619 0.7979424
vt 0.27223212 0.70465416
vt 0.16831945 0.78174752
vt 0.099113509 0.71697861
vt 0.10887527 0.71994781
vt 0.025503524 0.61409128
vt 0.033970416 0.50334805
vt 0.32996643 0.62876105
vt 0.3145574 0.68187213
vt 0.30629921 0.68834341
vt 0.30651674 0.60196531
vt 0.26661682 0.79718781
vt 0.24967131 0.87154818
vt 0.11641163 0.78701556
vt 0.12625122 0.72384644
vt 0.078138195 0.77028608
vt 0.037704676 0.7259748
vt 0.069487222 0.59840983
vt 0.31059122 0.61765015
vt 0.39250281 0.63474071
vt 0.31065369 0.69268036
vt 0.32048771 0.68380386
vt 0.30220065 0.69720829
vt 0.28260791 0.70480239
vt 0.29194194 0.59350616
vt 0.2676633 0.80777729
vt 0.26106232 0.83432686
vt 0.12069321 0.73256683
vt 0.095165804 0.74870753
vt 0.03767005 0.76589566
vt 0.021296805 0.73671544
vt 0.041799847 0.59483898
vt 0.32181978 0.5955807
vt 0.35662442 0.60165882
vt 0.40403807 0.63605183
vt 0.31325912 0.69458008
vt 0.3387993 0.71005058
vt 0.30884552 0.69786072
vt 0.30228668 0.70986664
vt 0.31094804 0.58783603
vt 0.28220749 0.77324677
vt 0.046863034 0.99553365
vt 0.27379435 0.86561859
vt 0.10205571 0.72528332
vt 0.0041497331 0.77322453
vt 0.015847901 0.75965416
vt 0.026563708 0.59901786
vt 0.39716291 0.59833032
vt 0.40404159 0.6471312
vt 0.40403113 0.61439502
vt 0.30953142 0.70082784
vt 0.29115677 0.70859528
vt 0.28039843 0.80786854
vt 0.2779963 0.7986666
vt 0.079231896 0.9955231
vt 0.0097084939 0.99554569
vt 0.29458705 0.84156823
vt 0.11113852 0.73442209
vt 0.10614586 0.73705924
vt 0.018914303 0.58383322
vt 0.33624062 0.57024169
vt 0.39092314 0.55661219
vt 0.39593786 0.6908263
vt 0.28669024 0.71006596
vt 0.28351593 0.71957397
vt 0.27640599 0.83082736
vt 0.27306482 0.81168342
vt 0.25237754 0.92467636
vt 0.30967388 0.85850179
vt 0.32319593 0.57762527
vt 0.34839523 0.54676241
vt 0.40402904 0.60016882
vt 0.40401381 0.55263412
vt 0.40405041 0.67279065
vt 0.3768681 0.72617155
vt 0.30881655 0.71157575
vt 0.31296539 0.68987274
vt 0.32529449 0.73273468
vt 0.3143656 0.80420494
vt 0.30783373 0.99544901
vt 0.27733839 0.88163322
vt 0.29812995 0.87936831
vt 0.32872772 0.56285858
vt 0.33760366 0.53815234
vt 0.40402231 0.57825422
vt 0.34729707 0.50324619
vt 0.40400878 0.53507268
vt 0.40405694 0.69104326
vt 0.36217907 0.6991806
vt 0.40406683 0.70941204
vt 0.30719376 0.70860291
vt 0.31267935 0.83506966
vt 0.31881332 0.76177216
vt 0.28067836 0.90759838
vt 0.28131145 0.89787424
vt 0.31988215 0.86239147
vt 0.34448993 0.50324559
vt 0.33262634 0.55992126
vt 0.35537973 0.50324404
vt 0.39113414 0.50323319
vt 0.40405989 0.69588429
vt 0.34731057 0.7310679
vt 0.40407446 0.72846299
vt 0.30385971 0.8507843
vt 0.31702423 0.82630157
vt 0.28072327 0.90298218
vt 0.30758318 0.89505661
vt 0.33987921 0.85469842
vt 0.32838202 0.50324583
vt 0.32748032 0.5637207
vt 0.3923066 0.50323242
vt 0.36791822 0.77557009
vt 0.4040795 0.7433461
vt 0.3390424 0.75986743
vt 0.31990433 0.81389618
vt 0.3235321 0.83503723
vt 0.34956935 0.88636631
vt 0.32747227 0.50324607
vt 0.32490501 0.53903341
vt 0.40399984 0.50714618
vt 0.34917152 0.74450481
vt 0.32261276 0.68976593
vt 0.33653641 0.75170898
vt 0.32527241 0.80591357
vt 0.34569931 0.84366608
vt 0.32476807 0.83493805
vt 0.32709542 0.52494597
vt 0.39687896 0.50322932
vt 0.40409887 0.80345196
vt 0.33965302 0.74178314
vt 0.3485238 0.77668917
vt 0.34043884 0.74583435
vt 0.34130478 0.75545502
vt 0.34480667 0.81431603
vt 0.32437265 0.8262102
vt 0.40413478 0.91351122
vt 0.30828261 0.53498167
vt 0.4039996 0.50322592
vt 0.36637461 0.83026433
vt 0.34450531 0.74988556
vt 0.32943329 0.78843176
vt 0.34314346 0.84025574
vt 0.40416133 0.99541777
vt 0.40412199 0.87446642
vt 0.31337917 0.50325346
vt 0.40410152 0.81172127
vt 0.349617 0.80105591
vt 0.34207916 0.75077057
vt 0.33594593 0.75172424
vt 0.34511185 0.79849243
vt 0.3138563 0.50325316
vt 0.30955878 0.50325823
vt 0.40411967 0.86749846
vt 0.34799957 0.79982758
vt 0.34013367 0.75246429
vt 0.30762932 0.50325882
vt 0.34884262 0.79724884
vt 0.280056 0.55207825
vt 0.34745026 0.79967499
vt 0.30659866 0.57958221
vt 0.29043722 0.5032655
vt 0.29041672 0.59557343
vt 0.31064224 0.53608704
vt 0.28174347 0.50326532
vt 0.29018021 0.59960175
vt 0.29043579 0.60327911
vt 0.29242706 0.60703278
vt 0.29513168 0.60651398
vt 0.28972626 0.5923996
vt 0.67359805 0.53347629
vt 0.68710321 0.5269078
vt 0.66988862 0.55062836
vt 0.50933194 0.59433246
vt 0.54194194 0.59350616
vt 0.53859669 0.6087184
vt 0.52139461 0.58403087
vt 0.56094807 0.58783603
vt 0.55629921 0.68834341
vt 0.55163091 0.6724335
vt 0.56296539 0.68987274
vt 0.56059122 0.61765015
vt 0.54924327 0.63068104
vt 0.54495239 0.60875702
vt 0.54242706 0.60703278
vt 0.55651671 0.60196531
vt 0.80651671 0.60196531
vt 0.81059122 0.61765015
vt 0.79513168 0.60651398
vt 0.58987921 0.85469842
vt 0.55967385 0.85850179
vt 0.57437265 0.8262102
vt 0.59314346 0.84025574
vt 0.56267935 0.83506966
vt 0.58594596 0.75172424
vt 0.59043884 0.74583435
vt 0.59450531 0.74988556
vt 0.44241792 0.49003911
vt 0.42189059 0.48327756
vt 0.42941761 0.46216071
vt 0.44683239 0.47056454
vt 0.41820249 0.44321483
vt 0.4523035 0.45674539
vt 0.4564836 0.49697572
vt 0.44604436 0.44428015
vt 0.40516102 0.4500699
vt 0.47931153 0.46325314
vt 0.47034436 0.49375361
vt 0.41616678 0.43045169
vt 0.40159017 0.47506464
vt 0.45647904 0.42948866
vt 0.41126716 0.49156088
vt 0.48982963 0.45017052
vt 0.48351866 0.48462975
vt 0.4357914 0.42094213
vt 0.49665624 0.43246818
vt 0.49665955 0.43579936
vt 0.49668539 0.47260159
vt 0.38926271 0.41415316
vt 0.49664119 0.40885621
vt 0.49664223 0.41072834
vt 0.49666798 0.44463623
vt 0.49667823 0.46124101
vt 0.49668837 0.4810912
vt 0.38590872 0.4365676
vt 0.41116717 0.39552915
vt 0.49663976 0.40656972
vt 0.49667102 0.44792795
vt 0.49667391 0.4519434
vt 0.33478868 0.43486536
vt 0.39362809 0.37553996
vt 0.49667257 0.44975853
vt 0.34499091 0.41833788
vt 0.43085977 0.32348806
vt 0.4033452 0.32537544
vt 0.31870857 0.40842068
vt 0.4966372 0.39941514
vt 0.40932745 0.32353193
vt 0.3752318 0.34856224
vt 0.24034584 0.42795354
vt 0.32347822 0.37711602
vt 0.49663433 0.39132577
vt 0.3467035 0.35339212
vt 0.22677545 0.41357571
vt 0.28082252 0.37284428
vt 0.33587006 0.36606926
vt 0.46733758 0.3235774
vt 0.34966415 0.33793235
vt 0.0044542886 0.41701984
vt 0.49662721 0.37112594
vt 0.30109322 0.35343516
vt 0.35018447 0.32908285
vt 0.31241858 0.32576263
vt 0.22995706 0.36572242
vt 0.27982649 0.36149704
vt 0.48749012 0.32360893
vt 0.33245087 0.33992565
vt 0.36190417 0.32909936
vt 0.33486938 0.33009595
vt 0.30764645 0.32532012
vt 0.23641369 0.33111918
vt 0.4966104 0.32359922
vt 0.28861237 0.35540932
vt 0.38646576 0.32907712
vt 0.33739597 0.32748872
vt 0.31635454 0.32589483
vt 0.24443887 0.3545776
vt 0.21903962 0.32361525
vt 0.28887939 0.35169578
vt 0.28608704 0.35155112
vt 0.38924351 0.33070499
vt 0.33564001 0.32716244
vt 0.0044213701 0.32365364
vt 0.22022778 0.3236149
vt 0.28449249 0.35387176
vt 0.28652191 0.35357887
vt 0.38385525 0.34550571
vt 0.23057956 0.3236258
vt 0.28749084 0.33728588
vt 0.23866534 0.32377142
vt 0.30256563 0.32507956
vt 0.24562636 0.32424974
vt 0.30455071 0.3252815
vt 0.29158187 0.32478887
vt 0.72439992 0.82888305
vt 0.72170353 0.85339212
vt 0.70745087 0.83992565
vt 0.71600389 0.82773793
vt 0.71083254 0.8267718
vt 0.45745087 0.83992565
vt 0.42609322 0.85343516
vt 0.42955071 0.8252815
vt 0.43310559 0.82526463
vt 0.46076965 0.83311355
vt 0.43702757 0.82556975
vt 0.48641369 0.83111918
vt 0.53749084 0.83728588
vt 0.53449249 0.85387176
vt 0.66219693 0.90186119
vt 0.65774918 0.85942841
vt 0.6761322 0.88152313
vt 0.66183835 0.91722417
vt 0.65147173 0.83854419
vt 0.69397354 0.9278183
vt 0.64002609 0.84936523
vt 0.69435501 0.87090302
vt 0.69616407 0.90552479
vt 0.67270279 0.94844055
vt 0.63870621 0.84465027
vt 0.68987226 0.80772221
vt 0.70349765 0.90933967
vt 0.66388315 0.93272591
vt 0.69702286 0.95488858
vt 0.63690948 0.83943939
vt 0.63642883 0.85012054
vt 0.67427582 0.80752289
vt 0.70994568 0.89484406
vt 0.7088992 0.90543354
vt 0.71315587 0.92046618
vt 0.66906649 0.96220624
vt 0.63658142 0.82975769
vt 0.63612366 0.8434906
vt 0.65259552 0.82695007
vt 0.68145311 0.78572428
vt 0.70960003 0.89421678
vt 0.70810801 0.96738648
vt 0.69922411 0.97928947
vt 0.63448334 0.84842682
vt 0.62925196 0.82872415
vt 0.66774595 0.809232
vt 0.70276815 0.96327484
vt 0.69893813 0.98654813
vt 0.6280387 0.87434542
vt 0.63205719 0.84754181
vt 0.6377632 0.80770683
vt 0.66703105 0.79848409
vt 0.69146144 0.98700005
vt 0.64061654 0.84938049
vt 0.66330338 0.79223633
vt 0.66771698 0.79551697
vt 0.69525105 0.99553049
vt 0.47689119 0.96920443
vt 0.45276815 0.96327484
vt 0.44702283 0.95488858
vt 0.97867978 0.96597826
vt 0.94790119 0.95864666
vt 0.97462207 0.93443549
vt 0.96316034 0.99312437
vt 0.91570985 0.94708103
vt 0.9362635 0.99001789
vt 0.98285878 0.99666917
vt 0.92023635 0.93397868
vt 0.93252134 0.95807582
vt 0.93795592 0.9678086
vt 0.99765992 0.98468763
vt 0.89398694 0.93234473
vt 0.92473555 0.92026091
vt 0.92416257 0.9661389
vt 0.91886985 0.97414911
vt 0.87810111 0.94262981
vt 0.9050675 0.98662251
vt 0.89755559 0.95939702
vt 0.84706664 0.93685442
vt 0.87152845 0.97889793
vt 0.84653735 0.9419716
vt 0.85152888 0.95551217
vt 0.81717002 0.95565319
vt 0.83306104 0.96545726
vt 0.8412931 0.97570693
vt 0.54056954 0.90288228
vt 0.5557304 0.91063184
vt 0.52089643 0.90902609
vt 0.50800836 0.88785887
vt 0.55878133 0.92030549
vt 0.47927287 0.89580131
vt 0.51671636 0.88749039
vt 0.55824041 0.93382937
vt 0.48596853 0.92121494
vt 0.46955761 0.87542182
vt 0.53571349 0.8847661
vt 0.52879083 0.93089235
vt 0.45268729 0.88911974
vt 0.50325036 0.92963469
vt 0.49078307 0.87939095
vt 0.51328605 0.88472015
vt 0.46825022 0.92625946
vt 0.44164425 0.8831135
vt 0.49982548 0.8821559
vt 0.50911224 0.88270068
vt 0.44545573 0.9008857
vt 0.5055095 0.876122
vt 0.51007682 0.8842721
vt 0.50416261 0.883964
vt 0.60155457 0.96054822
vt 0.5919764 0.94859791
vt 0.61044699 0.9396351
vt 0.57102865 0.96418375
vt 0.60131073 0.93783098
vt 0.56020296 0.94722825
vt 0.54212362 0.96345264
vt 0.5182215 0.9538427
vt 0.50845259 0.96458638
vt 0.53117317 0.93706423
vt 0.50384396 0.95297593
vt 0.51618612 0.94023156
vt 0.55379248 0.93826413
vt 0.50889438 0.93866569
vt 0.51831377 0.94139612
vt 0.80036336 0.90023869
vt 0.76993436 0.88173372
vt 0.81680399 0.89415896
vt 0.83949625 0.91001439
vt 0.78195411 0.90162998
vt 0.79338992 0.87578583
vt 0.84173644 0.92180878
vt 0.84690666 0.90184283
vt 0.78110665 0.92456973
vt 0.76577103 0.90079761
vt 0.8308441 0.88356495
vt 0.76831788 0.88078314
vt 0.83940232 0.93343359
vt 0.7620101 0.89488018
vt 0.80534881 0.86904234
vt 0.77040976 0.87144589
vt 0.85778004 0.88653326
vt 0.75425005 0.91238904
vt 0.76107693 0.89755577
vt 0.79275155 0.86362255
vt 0.83854806 0.86826074
vt 0.77109444 0.86588758
vt 0.84126121 0.87996185
vt 0.7570489 0.90571713
vt 0.76030308 0.89921278
vt 0.7723673 0.85728264
vt 0.77221185 0.8586666
vt 0.63134545 0.87052512
vt 0.60939026 0.94658661
vt 0.62602395 0.87052703
vt 0.63871002 0.91832733
vt 0.59827459 0.87053567
vt 0.63394034 0.96559733
vt 0.89189911 0.85961056
vt 0.90123284 0.90171713
vt 0.81584799 0.85009873
vt 0.81584817 0.84978747
vt 0.91090983 0.88522089
vt 0.72738779 0.96559733
vt 0.7226181 0.91832733
vt 0.76260144 0.87053549
vt 0.76290458 0.87053555
vt 0.73245734 0.87052327
vt 0.72998267 0.87052512
vt 0.91333824 0.79537815
vt 0.94119477 0.82772684
vt 0.89548504 0.80266786
vt 0.89217687 0.79618853
vt 0.90691674 0.82941723
vt 0.89095825 0.79369402
vt 0.87913394 0.79127353
vt 0.95353919 0.85448796
vt 0.87814265 0.78081822
vt 0.96200132 0.85221428
vt 0.95137298 0.86038339
vt 0.96113241 0.85293412
vt 0.95131516 0.82111591
vt 0.93337518 0.87181139
vt 0.96014386 0.8555038
vt 0.96220529 0.85213935
vt 0.96106499 0.83056355
vt 0.96235681 0.8520627
vt 0.79861784 0.79341823
vt 0.80923837 0.80816007
vt 0.77789223 0.80844635
vt 0.75313604 0.7877214
vt 0.83263344 0.7999211
vt 0.81147403 0.83092391
vt 0.7603609 0.81094146
vt 0.84066832 0.80498385
vt 0.83879143 0.82201475
vt 0.77115184 0.82527912
vt 0.840514 0.81076169
vt 0.84026438 0.80096996
vt 0.83915764 0.81869119
vt 0.75309598 0.84030741
vt 0.43212736 0.76264608
vt 0.43362448 0.77099657
vt 0.42357662 0.76472348
vt 0.42325166 0.76024824
vt 0.46067464 0.76722157
vt 0.42255014 0.77018672
vt 0.46018994 0.79255223
vt 0.42853624 0.78751647
vt 0.49704012 0.78063744
vt 0.41817117 0.78244889
vt 0.48021093 0.79931027
vt 0.43799168 0.80754328
vt 0.41344362 0.78903472
vt 0.46215147 0.80883467
vt 0.4523904 0.80657041
vt 0.42324278 0.80075896
vt 0.41063097 0.79496217
vt 0.47347274 0.98660481
vt 0.43089026 0.99498653
vt 0.40198496 0.9955799
vt 0.44826671 0.99657691
vt 0.4582516 0.98914254
vt 0.51076585 0.99358553
vt 0.89753264 0.92628986
vt 0.90323484 0.92566437
vt 0.89641643 0.92820245
vt 0.89069241 0.91799909
vt 0.90168804 0.93231559
vt 0.89413095 0.9312461
vt 0.90648097 0.93349671
vt 0.87848592 0.92676967
vt 0.94066852 0.88822162
vt 0.97641534 0.88768947
vt 0.97581375 0.8831268
vt 0.99592668 0.88890803
vt 0.97738343 0.91807908
vt 0.9969697 0.88049847
vt 0.96948266 0.91244179
vt 0.9563455 0.92981881
vt 0.9689253 0.88601959
vt 0.983262 0.93269092
vt 0.94101495 0.88943672
vt 0.45721436 0.97669578
vt 0.50968009 0.95611918
vt 0.46160126 0.97887176
vt 0.45748138 0.98040932
vt 0.7917791 0.98036504
vt 0.73856109 0.96040493
vt 0.77982825 0.96729028
vt 0.38617855 0.99484831
vt 0.42415556 0.99320406
vt 0.43466839 0.99519908
vt 0.41091213 0.97366899
vt 0.45902717 0.9667536
vt 0.41151944 0.98062325
vt 0.4408749 0.99268097
vt 0.48214203 0.98579556
vt 0.43392012 0.99567252
vt 0.46040601 0.85907924
vt 0.48117134 0.85830444
vt 0.44833821 0.87130767
vt 0.44598117 0.85303533
vt 0.46753326 0.85528147
vt 0.44150108 0.85014504
vt 0.45081362 0.85040933
vt 0.48375687 0.83049929
vt 0.49075928 0.8596161
vt 0.40972027 0.96398854
vt 0.42540741 0.94942856
vt 0.42538452 0.95022029
vt 0.43344086 0.94947392
vt 0.45883083 0.93117082
vt 0.75364554 0.94882834
vt 0.76865423 0.949175
vt 0.75473034 0.95191908
vt 0.80105042 0.93345773
vt 0.75736564 0.95734715
vt 0.78685814 0.96314824
vt 0.77659017 0.9629513
vt 0.76159215 0.96486104
vt 0.92083305 0.99676985
vt 0.89529461 0.98644769
vt 0.93478614 0.99048001
vt 0.43774977 0.90479153
vt 0.41091597 0.89548397
vt 0.4377555 0.89278758
vt 0.43461227 0.90731812
vt 0.43132019 0.90641785
vt 0.43773729 0.93454105
vt 0.43773901 0.93015993
vt 0.8545742 0.93118638
vt 0.8474341 0.90597856
vt 0.88711149 0.91003966
vt 0.86769378 0.93265587
vt 0.84708107 0.92467391
vt 0.44229275 0.9422729
vt 0.46063355 0.939484
vt 0.47556886 0.95035237
vt 0.47969338 0.95719051
vt 0.46262988 0.95922995
vt 0.46990174 0.9642151
vt 0.0038986206 0.98269653
vt 0.0046730042 0.97888947
vt 0.0060653687 0.98131561
vt 0.0087089445 0.99595666
vt 0.0084037781 0.98013306
vt 0.0049918327 0.9583298
vt 0.39488786 0.99598157
vt 0.42437202 0.99073601
vt 0.43140021 0.99019778
vt 0.42525837 0.98704767
vt 0.42103124 0.98567581
vt 0.45579156 0.99447346
vt 0.43368286 0.99562269
vt 0.42280576 0.99580365
vt 0.48630047 0.98281163
vt 0.47821903 0.9827922
vt 0.45635226 0.97769189
vt 0.47480994 0.98408461
vt 0.49099436 0.99551588
vt 0.53388214 0.98941064
vt 0.52091128 0.99532187
vt 0.50393391 0.99453038
vt 0.53160316 0.99157345
vt 0.51542443 0.99580336
vt 0.53440177 0.99471635
vt 0.54981995 0.96508425
vt 0.54470408 0.96943909
vt 0.5199002 0.97687078
vt 0.54887372 0.96907717
vt 0.54971671 0.97871703
vt 0.54265457 0.98000854
vt 0.5857836 0.9043352
vt 0.5974769 0.91319466
vt 0.58538818 0.91306305
vt 0.56701279 0.91838074
vt 0.57027704 0.93282342
vt 0.54645789 0.99507886
vt 0.52007097 0.98553914
vt 0.54984432 0.9953782
vt 0.51449144 0.96559364
vt 0.49844897 0.98230159
vt 0.49790457 0.98108518
vt 0.49633992 0.97736967
vt 0.48753729 0.98316002
vt 0.49415043 0.99558163
vt 0.50124502 0.99168658
vt 0.55394006 0.97282124
vt 0.55162835 0.96885842
vt 0.56806815 0.98098397
vt 0.58079243 0.98007804
vt 0.51067501 0.97500354
vt 0.50389552 0.96779567
vt 0.5325678 0.98068196
vt 0.59723467 0.98085964
vt 0.59710407 0.97275293
vt 0.61026126 0.97856539
vt 0.58736801 0.96591532
vt 0.58292556 0.976457
vt 0.47542936 0.97180164
vt 0.49801096 0.96470648
vt 0.48494419 0.97442043
vt 0.4728995 0.98038447
vt 0.65651071 0.97485495
vt 0.64357179 0.96597737
vt 0.65850711 0.955109
vt 0.64923888 0.9798401
vt 0.68392265 0.9751215
vt 0.66439694 0.98095244
vt 0.66085529 0.96559858
vt 0.41536713 0.98259324
vt 0.43341544 0.98745286
vt 0.41288391 0.98668361
vt 0.40976715 0.97978628
vt 0.70790327 0.97526294
vt 0.73012304 0.9654429
vt 0.72325134 0.98020935
vt 0.72279358 0.96647644
vt 0.56597984 0.97479284
vt 0.56744909 0.96941221
vt 0.58937699 0.98075712
vt 0.58209676 0.97998792
vt 0.45784625 0.979976
vt 0.44496912 0.9890855
vt 0.43349749 0.98687488
vt 0.81586617 0.9667275
vt 0.80444127 0.98041362
vt 0.80013865 0.9708727
vt 0.80100471 0.95911008
vt 0.52123249 0.98162711
vt 0.51359385 0.98742157
vt 0.50390154 0.97962016
vt 0.52491826 0.98469585
vt 0.59962022 0.96907532
vt 0.59712815 0.96123052
vt 0.60722244 0.96760315
vt 0.61235815 0.98140585
vt 0.73770732 0.96910393
vt 0.74432057 0.96290678
vt 0.74926382 0.9702422
vt 0.74002153 0.98132706
vt 0.45856801 0.96832216
vt 0.45378119 0.98042077
vt 0.44719163 0.97614229
vt 0.44079939 0.97697598
vt 0.629565 0.97637284
vt 0.6434623 0.96288335
vt 0.62971675 0.97830141
vt 0.63692033 0.98048651
vt 0.68685675 0.98848116
vt 0.69402772 0.99552751
vt 0.6766237 0.99527591
vt 0.8324939 0.98097217
vt 0.82499331 0.97105861
vt 0.82187653 0.96416128
vt 0.81680906 0.97825009
vt 0.52749115 0.9959929
vt 0.53583372 0.99284625
vt 0.54255748 0.99618608
vt 0.62337267 0.97845453
vt 0.61421895 0.98012465
vt 0.61794662 0.97387695
vt 0.62730026 0.96906281
vt 0.48272866 0.99418974
vt 0.49382555 0.99531752
vt 0.48521906 0.99575144
vt 0.47959539 0.99356353
vt 0.47950587 0.99294776
vt 0.48506948 0.9877466
vt 0.47982129 0.9754914
vt 0.48981011 0.98758167
vt 0.4201141 0.99163502
vt 0.42057732 0.99692822
vt 0.41103661 0.98442626
vt 0.41705367 0.98900372
vt 0.500453 0.96949601
vt 0.48793545 0.97951645
vt 0.49195057 0.97250676
vt 0.51175964 0.99485356
vt 0.50368279 0.99626195
vt 0.51210034 0.98991561
vt 0.49551219 0.99523163
vt 0.5015747 0.99305081
vt 0.50202149 0.99557477
vt 0.0038653603 0.99680668
vt 0.0035246382 0.99186873
vt 0.009682402 0.99192637
vt 0.0048728706 0.99533367
vt 0.005434969 0.9950431
vt 0.0080542592 0.99509805
usemtl Tile_+038_+020_L19_000322_0
f 216/723 261/724 262/725
f 260/655 262/656 261/657
f 279/560 257/561 350/562
f 129/1 254/2 248/3
f 247/6 248/3 254/2
f 246/9 248/3 247/6
f 249/273 238/274 271/275
f 235/658 218/660 216/659
f 42/627 248/628 269/629
f 268/290 208/301 354/302
f 282/123 267/82 266/136
f 230/345 212/350 232/342
f 254/2 264/5 125/8
f 125/246 42/247 254/248
f 255/276 271/275 256/278
f 255/276 275/279 249/273
f 273/282 255/276 256/278
f 239/566 275/574 274/571
f 274/571 263/567 239/566
f 239/566 249/573 275/574
f 274/283 275/279 255/276
f 272/280 256/278 271/275
f 271/275 255/276 249/273
f 273/282 259/289 274/283
f 259/289 273/282 356/293
f 356/293 276/288 358/298
f 274/571 259/575 263/567
f 125/8 246/9 359/19
f 263/567 259/575 357/576
f 209/324 221/329 220/320
f 268/290 270/294 208/301
f 270/294 268/290 266/284
f 284/24 237/43 265/33
f 282/123 251/108 267/82
f 234/314 240/306 243/308
f 248/3 246/9 125/8
f 277/51 285/73 267/82
f 285/305 243/308 270/294
f 252/94 277/51 267/82
f 129/1 166/11 200/12
f 286/41 242/32 200/12
f 288/311 243/308 285/305
f 283/50 253/42 287/60
f 283/50 277/51 284/24
f 200/12 242/32 284/24
f 267/300 285/305 270/294
f 208/301 270/294 240/306
f 251/108 252/94 267/82
f 240/306 270/294 243/308
f 253/42 283/50 284/24
f 283/50 285/73 277/51
f 289/72 283/50 287/60
f 242/32 253/42 284/24
f 286/41 200/12 146/40
f 260/71 216/81 287/60
f 235/658 260/655 261/657
f 220/320 288/311 209/324
f 254/630 269/629 247/631
f 257/561 279/560 244/564
f 271/275 238/274 250/277
f 352/511 295/512 363/513
f 295/517 237/518 364/519
f 222/602 219/603 212/604
f 252/522 258/523 368/524
f 239/566 257/561 244/564
f 42/4 129/1 248/3
f 129/1 247/6 264/5
f 210/92 236/105 187/90
f 291/315 290/319 288/311
f 217/80 287/60 216/81
f 291/122 292/107 297/106
f 289/72 210/92 297/106
f 293/58 46/49 50/70
f 218/726 261/724 216/723
f 285/73 292/107 291/122
f 251/108 282/123 266/136
f 232/342 223/330 221/329
f 50/70 178/79 293/58
f 295/512 258/514 252/516
f 235/658 216/659 260/655
f 297/106 294/93 289/72
f 129/1 264/5 254/2
f 298/14 284/24 280/18
f 284/24 277/51 237/43
f 251/281 250/277 238/274
f 288/311 281/316 243/308
f 217/80 218/120 236/105
f 272/280 278/286 371/291
f 265/33 279/62 351/63
f 362/565 263/567 375/569
f 247/6 129/1 200/12
f 276/288 273/282 272/280
f 280/18 265/33 366/35
f 266/284 250/277 251/281
f 278/286 272/280 266/284
f 250/277 272/280 271/275
f 252/521 237/518 295/517
f 212/350 230/345 224/338
f 293/58 187/90 262/91
f 209/132 187/90 185/118
f 187/90 215/104 262/91
f 49/69 187/90 178/79
f 187/90 235/135 261/134
f 290/319 209/324 288/311
f 208/301 240/306 307/310
f 292/107 294/93 297/106
f 210/92 289/72 217/80
f 253/42 260/71 287/60
f 246/9 247/6 298/14
f 146/40 296/59 253/42
f 296/59 293/58 260/71
f 296/59 146/40 293/58
f 284/24 298/14 200/12
f 285/73 289/72 294/93
f 283/50 289/72 285/73
f 288/311 285/305 291/315
f 292/107 285/73 294/93
f 277/51 252/94 369/83
f 220/320 281/316 288/311
f 210/92 290/121 297/106
f 187/90 261/134 215/104
f 269/13 125/8 264/5
f 264/5 247/6 269/13
f 247/6 200/12 298/14
f 280/18 246/9 298/14
f 178/79 187/90 293/58
f 262/91 260/71 293/58
f 238/570 249/573 239/566
f 273/282 274/283 255/276
f 273/282 256/278 272/280
f 364/61 277/51 377/74
f 278/286 268/290 355/295
f 246/9 280/18 376/25
f 125/8 269/13 248/3
f 307/632 233/633 309/634
f 253/42 242/32 146/40
f 241/321 225/318 243/308
f 226/334 231/323 310/328
f 301/309 208/301 308/313
f 239/566 263/567 257/561
f 224/338 230/345 229/326
f 222/602 212/604 224/605
f 223/330 224/338 229/326
f 265/33 280/18 284/24
f 252/285 251/281 238/274
f 230/345 222/344 229/326
f 286/640 146/641 242/642
f 187/90 236/105 235/135
f 310/328 225/318 312/335
f 229/326 222/344 211/354
f 276/288 272/280 372/292
f 234/314 231/323 313/327
f 220/320 223/330 241/321
f 234/637 233/633 240/635
f 234/637 228/638 233/633
f 272/280 250/277 266/284
f 237/568 238/570 239/566
f 42/627 269/629 254/630
f 237/568 239/566 244/564
f 237/43 244/52 265/33
f 266/284 268/290 278/286
f 313/327 226/334 315/340
f 237/287 252/285 238/274
f 316/360 227/362 317/363
f 319/346 234/314 320/339
f 267/300 270/294 266/284
f 212/350 223/330 232/342
f 243/308 225/318 234/314
f 234/314 225/318 231/323
f 211/354 219/336 323/359
f 232/342 219/336 230/345
f 227/365 229/366 325/367
f 315/643 225/644 316/645
f 222/344 230/345 219/336
f 318/636 228/638 319/639
f 229/326 211/354 324/356
f 226/783 227/784 214/785
f 214/647 225/644 226/646
f 227/784 226/783 321/786
f 219/336 232/342 221/329
f 223/330 212/350 213/351
f 225/318 229/326 227/332
f 241/321 229/326 225/318
f 281/316 241/321 243/308
f 222/344 224/338 223/330
f 213/351 222/344 223/330
f 221/329 209/324 219/336
f 281/316 220/320 241/321
f 215/104 261/134 218/120
f 215/104 217/80 216/81
f 214/369 227/365 326/368
f 312/648 214/647 327/649
f 211/354 213/351 212/350
f 211/354 222/344 213/351
f 265/33 244/52 279/62
f 236/105 210/92 217/80
f 253/42 296/59 260/71
f 287/60 217/80 289/72
f 290/121 210/92 209/132
f 290/121 291/122 297/106
f 262/91 215/104 216/81
f 236/105 218/120 235/135
f 218/120 217/80 215/104
f 229/326 241/321 223/330
f 219/371 211/372 212/373
f 223/330 220/320 221/329
f 24/172 183/184 22/193
f 202/484 123/485 106/486
f 68/201 183/184 18/168
f 19/374 75/375 97/376
f 182/745 120/746 115/747
f 72/469 112/470 30/471
f 92/528 201/529 199/530
f 205/650 167/651 161/652
f 92/528 199/530 157/531
f 202/484 106/486 207/487
f 5/261 191/259 156/260
f 159/238 157/245 197/244
f 135/445 115/446 74/447
f 143/75 148/165 54/178
f 194/453 74/447 64/458
f 87/378 149/398 85/391
f 60/618 59/619 72/620
f 42/4 43/10 44/7
f 130/546 15/547 162/548
f 6/250 127/249 161/252
f 173/23 165/47 196/39
f 172/700 93/701 171/702
f 164/30 127/38 173/23
f 146/40 200/12 91/31
f 5/87 167/116 10/109
f 202/484 184/496 204/492
f 184/559 161/552 206/555
f 205/650 207/654 167/651
f 205/490 184/496 202/484
f 4/493 203/488 204/492
f 204/492 203/488 202/484
f 184/559 206/555 204/551
f 204/551 206/555 162/548
f 4/493 204/492 384/501
f 170/706 169/704 93/701
f 170/494 172/498 169/504
f 168/535 201/529 386/537
f 386/537 172/540 388/543
f 7/160 1/203 389/194
f 330/196 329/163 422/187
f 42/4 125/8 360/26
f 201/707 8/708 172/709
f 166/11 129/1 44/7
f 35/532 199/530 201/529
f 163/791 197/792 157/793
f 160/84 10/109 58/110
f 58/110 57/96 160/84
f 91/31 200/12 173/23
f 156/243 197/244 11/95
f 126/798 165/799 156/800
f 143/75 57/96 331/111
f 199/530 128/534 157/531
f 128/606 35/607 157/608
f 155/730 192/731 198/732
f 160/84 143/75 192/55
f 197/583 163/584 191/585
f 89/675 134/676 81/677
f 143/75 144/65 192/55
f 332/126 9/124 334/148
f 128/589 126/587 163/584
f 11/95 160/84 192/55
f 160/84 57/96 143/75
f 5/262 11/263 197/264
f 197/583 191/585 5/586
f 196/39 165/47 192/55
f 128/46 165/47 173/23
f 165/47 126/54 198/66
f 11/772 198/773 156/774
f 198/773 5/775 156/774
f 191/585 126/587 155/588
f 155/588 11/590 191/585
f 198/788 11/789 155/790
f 192/55 165/47 198/66
f 200/12 166/11 173/23
f 53/151 148/165 143/75
f 81/152 90/97 147/112
f 134/676 90/678 81/677
f 81/680 84/681 89/682
f 104/99 102/76 142/86
f 102/76 144/65 142/86
f 55/661 136/662 177/663
f 109/448 189/459 174/463
f 111/67 51/77 76/48
f 85/391 103/385 87/378
f 84/114 190/127 104/99
f 147/112 142/86 134/153
f 90/97 142/86 147/112
f 154/141 103/140 86/128
f 102/76 175/78 196/39
f 132/592 103/593 104/594
f 149/738 83/739 54/740
f 88/686 153/687 119/688
f 143/75 119/113 153/198
f 138/139 143/75 333/125
f 142/254 144/255 134/256
f 134/676 144/679 90/678
f 53/151 54/178 148/165
f 196/39 175/78 124/68
f 176/597 175/599 132/592
f 146/40 91/31 46/49
f 63/598 124/601 176/597
f 190/411 84/415 85/391
f 83/154 154/141 85/115
f 141/801 80/802 109/803
f 151/468 141/460 109/448
f 54/178 52/188 108/197
f 87/378 80/380 151/384
f 78/807 177/808 137/809
f 121/191 21/210 67/211
f 67/692 18/693 66/694
f 182/377 19/374 97/376
f 17/133 41/117 19/155
f 124/68 111/67 150/56
f 56/455 135/445 139/451
f 18/478 180/476 182/480
f 99/388 27/402 105/395
f 105/474 18/478 26/481
f 63/420 69/421 124/422
f 63/598 176/597 179/595
f 195/430 194/426 63/420
f 194/727 195/728 179/729
f 118/450 194/453 117/457
f 194/453 179/461 117/457
f 179/595 195/600 63/598
f 61/424 69/421 12/428
f 188/441 96/435 70/439
f 46/49 293/58 146/40
f 202/484 203/488 123/485
f 187/90 49/69 28/89
f 74/447 118/450 109/448
f 28/417 34/418 99/419
f 185/118 28/89 186/131
f 67/267 181/268 183/265
f 26/145 183/184 24/172
f 73/456 64/458 74/447
f 186/131 31/144 29/156
f 109/413 56/408 151/384
f 108/197 145/216 140/224
f 157/531 159/533 92/528
f 130/37 164/30 131/22
f 137/226 56/207 55/223
f 18/478 105/474 180/476
f 144/65 196/39 192/55
f 11/257 192/258 191/259
f 191/585 163/584 126/587
f 131/22 164/30 45/16
f 27/402 60/407 105/395
f 117/779 190/780 147/781
f 149/398 189/396 119/410
f 93/701 169/704 171/702
f 27/157 34/119 25/158
f 67/757 65/758 182/759
f 182/753 65/754 121/755
f 18/693 181/695 66/694
f 18/387 182/377 107/383
f 33/171 31/144 27/157
f 72/442 122/440 71/443
f 181/218 68/201 66/202
f 70/475 116/477 180/476
f 101/427 61/424 100/431
f 34/406 27/402 99/388
f 130/37 131/22 193/45
f 198/66 126/54 5/87
f 10/109 169/137 58/110
f 61/424 62/433 14/434
f 21/664 55/661 177/663
f 78/230 21/210 177/235
f 105/395 107/383 99/388
f 87/378 75/375 80/380
f 75/375 87/378 97/376
f 169/137 94/174 7/160
f 78/230 136/233 55/223
f 21/210 137/226 55/223
f 67/211 21/210 181/218
f 182/759 180/760 67/757
f 121/482 67/483 180/476
f 83/154 80/199 139/190
f 80/199 141/209 139/190
f 140/403 79/397 151/384
f 108/197 140/224 80/199
f 172/498 16/489 1/503
f 169/137 95/146 171/159
f 167/491 207/487 106/486
f 95/761 170/762 93/763
f 106/486 16/489 170/494
f 389/509 16/489 394/510
f 127/38 164/30 130/37
f 163/242 156/243 165/47
f 163/242 165/47 35/234
f 45/16 164/30 48/17
f 163/242 159/238 156/243
f 35/234 159/238 158/241
f 157/615 35/616 158/617
f 126/804 156/805 155/806
f 41/117 154/141 83/154
f 117/691 153/687 133/689
f 80/199 140/224 152/231
f 151/384 80/380 152/390
f 81/405 149/398 119/410
f 119/454 117/457 133/462
f 133/689 153/687 88/686
f 147/690 133/689 88/686
f 103/140 132/100 86/128
f 179/595 176/597 132/592
f 100/394 98/379 77/386
f 108/197 56/207 145/216
f 35/532 168/535 395/538
f 135/217 78/230 137/226
f 124/422 101/427 111/432
f 124/68 150/56 196/39
f 87/378 151/384 174/389
f 41/381 87/378 103/385
f 109/270 79/271 145/272
f 145/409 79/397 140/403
f 143/609 153/610 147/611
f 73/425 13/429 69/421
f 151/384 79/397 174/389
f 118/450 119/454 109/448
f 49/69 178/79 50/70
f 101/427 124/422 61/424
f 36/382 97/376 41/381
f 118/450 74/447 194/453
f 124/601 175/599 176/597
f 135/445 109/448 139/451
f 79/397 54/404 174/389
f 54/178 108/197 174/206
f 48/17 173/23 166/11
f 172/672 94/673 169/674
f 172/700 171/702 94/703
f 119/667 133/668 89/669
f 89/85 88/98 119/113
f 85/115 132/100 102/76
f 10/500 167/491 170/494
f 11/95 5/87 10/109
f 196/39 76/48 91/31
f 147/671 134/670 133/668
f 106/486 123/485 16/489
f 126/54 128/46 127/38
f 201/529 168/535 35/532
f 123/485 4/493 400/497
f 169/137 2/147 58/110
f 115/446 120/449 74/447
f 144/65 143/75 89/85
f 104/99 142/86 84/114
f 90/97 84/114 142/86
f 65/181 19/155 121/191
f 80/765 75/766 109/767
f 56/455 141/460 140/464
f 139/768 109/767 75/766
f 143/75 138/139 53/151
f 137/665 136/662 56/666
f 109/225 145/216 56/207
f 54/740 189/741 149/738
f 112/412 105/395 60/407
f 29/156 33/171 23/183
f 140/403 151/384 56/408
f 137/665 177/663 136/662
f 20/215 21/210 78/230
f 39/393 77/386 36/382
f 108/776 79/777 109/778
f 109/448 174/463 108/466
f 75/169 83/154 139/190
f 9/124 3/138 338/149
f 336/189 53/151 340/179
f 180/476 105/474 70/475
f 104/594 179/595 132/592
f 102/596 104/594 103/593
f 103/385 85/391 102/399
f 120/449 116/452 74/447
f 100/394 77/386 101/400
f 105/474 113/472 70/475
f 36/382 98/379 97/376
f 14/434 73/425 116/436
f 22/193 183/184 68/201
f 122/440 59/438 96/435
f 182/377 98/379 107/383
f 21/210 121/191 115/200
f 17/133 18/168 107/180
f 26/719 17/720 107/721
f 73/456 74/447 116/452
f 114/437 96/435 61/424
f 96/435 188/441 122/440
f 121/755 120/756 182/753
f 180/476 120/479 121/482
f 26/719 107/721 105/722
f 183/265 26/266 67/267
f 117/457 119/454 118/450
f 13/429 73/425 14/434
f 122/440 188/441 71/443
f 114/437 14/434 116/436
f 70/439 96/435 114/437
f 113/472 105/474 112/470
f 112/470 72/469 113/472
f 101/714 110/715 111/716
f 38/769 36/770 110/771
f 74/447 109/448 135/445
f 41/381 110/392 36/382
f 101/714 38/717 110/715
f 100/394 99/388 98/379
f 61/424 14/434 114/437
f 100/431 96/435 59/438
f 69/421 13/429 12/428
f 124/422 69/421 61/424
f 116/436 70/439 114/437
f 113/444 71/443 70/439
f 64/423 73/425 69/421
f 41/381 97/376 87/378
f 98/379 182/377 97/376
f 181/218 21/210 68/201
f 65/181 67/211 66/202
f 194/426 64/423 63/420
f 69/421 63/420 64/423
f 22/577 68/578 21/579
f 12/428 62/433 61/424
f 36/382 77/386 98/379
f 38/130 41/117 17/133
f 59/619 60/618 27/622
f 32/621 33/624 60/618
f 117/795 104/796 190/797
f 30/623 32/621 72/620
f 183/696 181/695 18/693
f 112/412 60/407 33/416
f 72/442 71/443 113/444
f 342/220 20/215 343/229
f 29/156 22/193 341/212
f 2/147 7/160 393/173
f 2/147 169/137 7/160
f 94/703 171/702 95/705
f 95/761 93/763 94/764
f 172/195 7/160 93/186
f 7/160 94/174 93/186
f 35/234 8/213 92/236
f 8/213 35/234 405/232
f 49/69 76/48 51/77
f 90/97 144/65 89/85
f 89/669 133/668 134/670
f 83/154 81/152 54/178
f 83/749 87/750 79/751
f 87/734 54/735 79/736
f 85/115 154/141 86/128
f 84/681 90/684 89/682
f 81/697 83/698 82/699
f 80/199 79/208 108/197
f 83/154 79/208 80/199
f 135/217 56/207 78/230
f 40/103 28/89 51/77
f 56/207 136/233 78/230
f 77/143 39/102 38/130
f 20/215 52/188 337/205
f 103/580 154/581 41/582
f 47/57 91/31 76/48
f 41/117 75/169 19/155
f 36/129 37/142 40/103
f 46/49 91/31 47/57
f 43/10 45/16 44/7
f 43/10 42/4 402/15
f 49/69 47/57 76/48
f 36/129 40/103 39/102
f 36/711 38/712 37/713
f 83/154 75/169 41/117
f 3/138 9/124 58/110
f 56/207 20/215 55/223
f 2/147 3/138 58/110
f 346/166 138/139 347/177
f 53/151 52/188 54/178
f 56/207 52/188 20/215
f 17/133 37/142 38/130
f 34/119 28/89 40/103
f 32/182 31/144 33/171
f 31/144 32/182 30/170
f 29/156 31/144 30/170
f 31/144 28/89 27/157
f 23/183 33/171 27/157
f 24/172 22/193 23/183
f 23/183 22/193 29/156
f 20/215 22/193 21/210
f 17/133 19/155 18/168
f 81/405 147/414 190/411
f 167/253 6/250 161/252
f 207/487 205/490 202/484
f 10/109 160/84 11/95
f 193/550 15/547 130/546
f 173/23 48/17 164/30
f 14/742 62/743 12/744
f 106/486 170/494 167/491
f 102/76 132/100 175/78
f 76/48 196/39 150/56
f 7/710 172/709 8/708
f 16/489 123/485 403/495
f 126/54 6/101 5/87
f 3/138 2/147 404/162
f 388/543 1/544 417/545
f 127/249 6/250 126/251
f 1/203 8/213 407/221
f 61/424 96/435 100/431
f 143/75 88/98 89/85
f 15/547 193/550 382/553
f 71/443 188/441 70/439
f 42/4 44/7 129/1
f 98/379 99/388 107/383
f 27/622 28/625 59/619
f 72/620 32/621 60/618
f 4/493 123/485 203/488
f 130/546 162/548 127/549
f 35/234 92/236 159/238
f 10/109 95/146 169/137
f 128/589 163/584 35/591
f 173/23 127/38 128/46
f 172/498 170/494 16/489
f 161/552 127/549 162/548
f 156/243 159/238 197/244
f 102/76 196/39 144/65
f 87/750 83/749 149/752
f 5/87 6/101 167/116
f 384/554 15/547 416/558
f 81/405 85/391 149/398
f 163/242 158/241 159/238
f 157/793 158/794 163/791
f 199/530 35/532 165/536
f 165/47 128/46 199/64
f 141/460 152/467 140/464
f 151/468 152/467 141/460
f 68/201 18/168 245/192
f 66/202 68/201 245/192
f 39/102 110/88 41/117
f 41/117 38/130 39/102
f 65/181 66/202 245/192
f 18/168 65/181 245/192
f 15/547 204/551 162/548
f 81/405 190/411 85/391
f 162/548 206/555 161/552
f 135/217 137/226 21/210
f 59/438 122/440 72/442
f 184/653 205/650 161/652
f 383/44 131/22 397/36
f 8/213 201/239 92/236
f 45/16 48/17 44/7
f 192/731 155/730 156/733
f 156/260 191/259 192/258
f 147/781 153/782 117/779
f 85/685 84/681 82/683
f 173/23 196/39 91/31
f 87/378 174/389 189/396
f 87/734 189/737 54/735
f 52/188 56/207 108/197
f 46/49 49/69 50/70
f 13/429 14/434 12/428
f 132/100 85/115 86/128
f 51/77 110/88 39/102
f 119/113 54/178 81/152
f 54/178 119/113 143/75
f 82/167 83/154 85/115
f 59/401 99/388 100/394
f 59/619 28/625 99/626
f 46/49 47/57 49/69
f 131/22 45/16 43/10
f 39/102 40/103 51/77
f 101/714 77/718 38/717
f 24/172 23/183 25/158
f 30/170 33/171 29/156
f 398/29 43/10 418/28
f 76/48 150/56 111/67
f 116/477 120/479 180/476
f 20/215 78/230 55/223
f 44/7 48/17 166/11
f 17/133 26/145 34/119
f 25/158 34/119 26/145
f 143/75 147/112 88/98
f 119/454 189/459 109/448
f 115/200 135/217 21/210
f 26/266 18/269 67/267
f 182/745 115/747 19/748
f 117/457 179/461 104/465
f 19/155 115/200 121/191
f 33/473 30/471 112/470
f 1/203 7/160 8/213
f 81/680 82/683 84/681
f 56/455 139/451 141/460
f 49/69 51/77 28/89
f 57/96 58/110 9/124
f 40/103 37/142 17/133
f 34/119 40/103 17/133
f 27/157 25/158 23/183
f 26/145 24/172 25/158
f 19/155 65/181 18/168
f 170/494 95/506 10/500
f 51/77 111/67 110/88
f 303/343 209/324 328/348
f 209/132 210/92 187/90
f 185/118 187/90 28/89
f 186/131 28/89 31/144
f 300/322 299/331 349/325
f 301/309 300/322 419/317
f 354/302 301/309 420/312
f 302/349 219/336 303/343
f 303/343 219/336 209/324
f 304/353 219/336 302/349
f 305/355 219/336 304/353
f 306/357 219/336 305/355
f 307/632 240/635 233/633
f 308/313 208/301 307/310
f 309/634 233/633 318/636
f 310/328 231/323 225/318
f 311/341 226/334 310/328
f 312/648 225/644 214/647
f 313/327 231/323 226/334
f 314/333 234/314 313/327
f 315/643 226/646 225/644
f 316/360 225/361 227/362
f 317/363 227/362 322/364
f 318/636 233/633 228/638
f 319/346 228/352 234/314
f 320/339 234/314 314/333
f 321/347 226/334 311/341
f 322/787 227/784 321/786
f 323/359 219/336 306/357
f 324/356 211/354 323/359
f 325/358 229/326 324/356
f 326/368 227/365 325/367
f 327/370 214/369 326/368
f 329/163 3/138 391/176
f 331/111 57/96 332/126
f 332/126 57/96 9/124
f 333/125 143/75 331/111
f 334/148 9/124 339/161
f 335/150 138/139 333/125
f 336/189 52/188 53/151
f 337/205 52/188 336/189
f 338/149 3/138 329/163
f 339/161 9/124 338/149
f 340/179 53/151 346/166
f 341/212 22/193 342/220
f 342/220 22/193 20/215
f 343/229 20/215 345/222
f 344/219 29/156 341/212
f 345/222 20/215 337/205
f 346/166 53/151 138/139
f 347/177 138/139 348/164
f 348/164 138/139 335/150
f 349/325 299/331 421/337
f 350/562 257/561 362/565
f 351/563 279/560 350/562
f 352/511 258/514 295/512
f 353/526 258/523 352/527
f 354/302 208/301 301/309
f 355/295 268/290 354/302
f 356/293 273/282 276/288
f 357/299 259/289 356/293
f 358/298 276/288 378/304
f 359/19 246/9 381/27
f 360/26 125/8 359/19
f 361/572 263/567 357/576
f 362/565 257/561 263/567
f 363/513 295/512 365/515
f 364/61 237/43 277/51
f 365/520 295/517 364/519
f 366/35 265/33 367/53
f 367/53 265/33 351/63
f 368/524 258/523 353/526
f 369/525 252/522 368/524
f 370/296 278/286 355/295
f 371/291 278/286 370/296
f 372/292 272/280 371/291
f 373/303 276/288 374/297
f 374/297 276/288 372/292
f 375/569 263/567 361/572
f 376/25 280/18 366/35
f 377/74 277/51 369/83
f 378/304 276/288 379/307
f 379/307 276/288 373/303
f 380/34 246/9 376/25
f 381/27 246/9 380/34
f 382/553 193/550 383/557
f 383/44 193/45 131/22
f 384/554 204/551 15/547
f 385/507 4/493 384/501
f 386/537 201/529 172/540
f 387/539 168/535 386/537
f 388/543 172/540 1/544
f 389/509 1/503 16/489
f 390/185 7/160 389/194
f 391/176 3/138 411/175
f 392/21 42/4 360/26
f 393/173 7/160 390/185
f 394/510 16/489 413/505
f 395/538 168/535 401/542
f 396/541 35/532 395/538
f 397/36 131/22 398/29
f 398/29 131/22 43/10
f 399/502 4/493 414/508
f 400/497 4/493 399/502
f 401/542 168/535 387/539
f 402/15 42/4 392/21
f 403/495 123/485 400/497
f 404/162 2/147 393/173
f 405/232 35/234 409/237
f 406/228 8/213 405/232
f 407/221 8/213 406/228
f 408/20 43/10 402/15
f 409/237 35/234 410/240
f 410/612 35/613 396/614
f 411/175 3/138 404/162
f 412/499 16/489 403/495
f 413/505 16/489 412/499
f 414/508 4/493 385/507
f 415/556 15/547 382/553
f 416/558 15/547 415/556
f 417/227 1/203 407/221
f 418/28 43/10 408/20
f 419/317 300/322 349/325
f 420/312 301/309 419/317
f 422/187 329/163 391/176
f 423/204 330/196 422/187
f 424/214 330/196 423/204
usemtl Tile_+038_+020_L19_000322_untextured
