mtllib Tile_+031_+024_L19_000020.mtl
v 6.00000000e+03 5.83785414e+03 1.03732826e+01
v 6.00000000e+03 5.83836243e+03 9.87872554e+00
v 6.00078320e+03 5.84167932e+03 9.48915312e+00
v 6.00000000e+03 5.84263247e+03 9.69211411e+00
v 6.00000000e+03 5.83593921e+03 9.70175852e+00
v 6.00000000e+03 5.83672738e+03 1.06733815e+01
v 6.00000000e+03 5.83516250e+03 9.55096651e+00
v 6.00000000e+03 5.83328812e+03 1.06040743e+01
v 6.00000000e+03 5.83413595e+03 9.79934148e+00
v 6.00000000e+03 5.83903903e+03 9.63239153e+00
v 6.00066418e+03 5.83831255e+03 1.00344907e+01
v 6.00000000e+03 5.83207761e+03 1.06327653e+01
v 6.00100232e+03 5.83309093e+03 1.07380260e+01
v 6.00000000e+03 5.84276940e+03 2.09110390e+01
v 6.00000000e+03 5.84277312e+03 2.15809036e+01
v 6.00000000e+03 5.84359277e+03 1.98894500e+01
v 6.00000000e+03 5.84360743e+03 1.89799190e+01
v 6.00029307e+03 5.84374608e+03 1.93105031e+01
v 6.00000000e+03 5.84297795e+03 1.75754941e+01
v 6.00000000e+03 5.84283440e+03 1.80028443e+01
v 6.00000000e+03 5.84307790e+03 1.55069718e+01
v 6.00000000e+03 5.84348784e+03 1.59401757e+01
v 6.00000000e+03 5.84377093e+03 1.63399450e+01
v 6.00111533e+03 5.84320008e+03 1.57999376e+01
v 6.00000000e+03 5.84345111e+03 1.84423960e+01
v 6.00000000e+03 5.84014275e+03 9.32916830e+00
v 6.00000000e+03 5.84269411e+03 1.47522668e+01
v 6.00055260e+03 5.84245869e+03 1.50721324e+01
v 6.00000000e+03 5.84260524e+03 1.21832562e+01
v 6.00000000e+03 5.84236536e+03 1.33664362e+01
v 6.00000000e+03 5.84378525e+03 1.07423949e+01
v 6.00000000e+03 5.83166394e+03 1.06514413e+01
v 6.00000000e+03 5.83171938e+03 1.06540495e+01
v 6.00000000e+03 5.83141633e+03 1.04963412e+01
v 6.00000000e+03 5.83158037e+03 1.06097846e+01
v 6.00000000e+03 5.83162782e+03 1.06406523e+01
v 6.00064911e+03 5.83136470e+03 1.04776760e+01
v 6.00000000e+03 5.83067497e+03 9.54215020e+00
v 6.00000000e+03 5.81966058e+03 2.48318929e+01
v 6.00000000e+03 5.81804578e+03 2.48892496e+01
v 6.00000000e+03 5.81236016e+03 2.44118161e+01
v 6.00000000e+03 5.81334050e+03 2.44731318e+01
v 6.00000000e+03 5.82032668e+03 2.40198910e+01
v 6.00000000e+03 5.81402464e+03 2.45556315e+01
v 6.00150084e+03 5.81369078e+03 2.45740740e+01
v 6.00000000e+03 5.81968483e+03 1.71657168e+01
v 6.00000000e+03 5.81969380e+03 1.43410896e+01
v 6.00000000e+03 5.81961087e+03 1.21417167e+01
v 6.00000000e+03 5.81998228e+03 1.12974387e+01
v 6.00000000e+03 5.81959098e+03 2.04574671e+01
v 6.00000000e+03 5.81973836e+03 2.24383763e+01
v 6.00000000e+03 5.82335614e+03 1.02652123e+01
v 6.00000000e+03 5.82489276e+03 1.04260754e+01
v 6.00140947e+03 5.82393582e+03 1.02055983e+01
v 6.00000000e+03 5.82085703e+03 1.07626232e+01
v 6.00192268e+03 5.82134889e+03 1.06825053e+01
v 6.02227416e+03 5.82469358e+03 2.26019732e+01
v 6.02330348e+03 5.82478465e+03 1.51636820e+01
v 6.00282398e+03 5.82029112e+03 2.07219650e+01
v 6.00228910e+03 5.82045752e+03 2.28463321e+01
v 6.00132561e+03 5.81987633e+03 2.25958013e+01
v 6.02359111e+03 5.82868089e+03 8.68823396e+00
v 6.02008297e+03 5.82842884e+03 8.66346911e+00
v 6.02299868e+03 5.82546779e+03 8.96962595e+00
v 6.01437475e+03 5.82689945e+03 9.40312871e+00
v 6.02862872e+03 5.83242615e+03 8.82647325e+00
v 6.02623647e+03 5.82808069e+03 8.74135691e+00
v 6.02778611e+03 5.82490754e+03 8.75337242e+00
v 6.03148295e+03 5.82211672e+03 9.00339447e+00
v 6.02642515e+03 5.81934448e+03 8.96346569e+00
v 6.02586202e+03 5.82063999e+03 8.96208910e+00
v 6.02695176e+03 5.82206810e+03 9.53804624e+00
v 6.02771843e+03 5.82243703e+03 1.01029664e+01
v 6.02506275e+03 5.82226071e+03 9.04825909e+00
v 6.03100687e+03 5.82086888e+03 9.34969268e+00
v 6.02988423e+03 5.82453501e+03 8.84063088e+00
v 6.01435981e+03 5.82828599e+03 9.33500918e+00
v 6.00362139e+03 5.82473346e+03 9.67364317e+00
v 6.00950446e+03 5.82675393e+03 9.62212814e+00
v 6.02824776e+03 5.82276682e+03 9.16023441e+00
v 6.02691159e+03 5.82314242e+03 9.08321149e+00
v 6.02563285e+03 5.81952335e+03 9.65884138e+00
v 6.02875389e+03 5.82132869e+03 9.22348151e+00
v 6.02932214e+03 5.81970987e+03 8.99300913e+00
v 6.02751572e+03 5.81953884e+03 9.32408226e+00
v 6.03000409e+03 5.81870604e+03 9.07849290e+00
v 6.03088934e+03 5.81627298e+03 8.98925394e+00
v 6.02688081e+03 5.81813845e+03 9.14657789e+00
v 6.02895174e+03 5.81385369e+03 9.04536700e+00
v 6.03129070e+03 5.81757596e+03 9.74540448e+00
v 6.02761905e+03 5.81540167e+03 9.22287607e+00
v 6.02791198e+03 5.82420914e+03 8.79609154e+00
v 6.03041221e+03 5.82295652e+03 8.87297915e+00
v 6.02851255e+03 5.82342771e+03 9.64383687e+00
v 6.02248037e+03 5.82504408e+03 9.56477855e+00
v 6.01659363e+03 5.83135719e+03 9.22074144e+00
v 6.01876194e+03 5.82446185e+03 9.86031857e+00
v 6.01468777e+03 5.82586311e+03 9.86482711e+00
v 6.03047852e+03 5.82254954e+03 9.87866032e+00
v 6.02431257e+03 5.82263996e+03 9.35716449e+00
v 6.02055946e+03 5.82518513e+03 9.56680690e+00
v 6.02813522e+03 5.82121490e+03 9.91536624e+00
v 6.01547243e+03 5.82350262e+03 1.03711573e+01
v 6.00170718e+03 5.84347559e+03 1.95006310e+01
v 6.00355054e+03 5.84190325e+03 1.28339843e+01
v 6.00363410e+03 5.84149516e+03 1.41479046e+01
v 6.00268204e+03 5.84372652e+03 2.15257924e+01
v 6.00152680e+03 5.84375833e+03 2.04069713e+01
v 6.00134840e+03 5.84219715e+03 1.56365530e+01
v 6.00253930e+03 5.84130847e+03 1.48196412e+01
v 6.00000000e+03 5.84353974e+03 1.69303763e+01
v 6.00088592e+03 5.84341291e+03 1.76188667e+01
v 6.00178311e+03 5.84304112e+03 1.75549345e+01
v 6.00089338e+03 5.84125200e+03 1.42153805e+01
v 6.00159828e+03 5.84085818e+03 1.41022413e+01
v 6.00351871e+03 5.84382720e+03 1.66660452e+01
v 6.00429315e+03 5.84383869e+03 1.55816964e+01
v 6.02050409e+03 5.83315585e+03 9.10975972e+00
v 6.01714889e+03 5.83329541e+03 8.94156301e+00
v 6.00081718e+03 5.83608050e+03 9.72913906e+00
v 6.00220402e+03 5.83517996e+03 9.09897418e+00
v 6.03017248e+03 5.82020827e+03 9.25685125e+00
v 6.02821062e+03 5.81412955e+03 9.61237640e+00
v 6.02765567e+03 5.81502290e+03 1.03415870e+01
v 6.00000000e+03 5.82641317e+03 9.63720824e+00
v 6.01258232e+03 5.82878591e+03 9.27129144e+00
v 6.01275643e+03 5.83322144e+03 9.32202442e+00
v 6.01056714e+03 5.82228899e+03 9.45422322e+00
v 6.01216788e+03 5.82361943e+03 1.01796758e+01
v 6.01151013e+03 5.82234549e+03 1.07885821e+01
v 6.00960477e+03 5.82804466e+03 9.48826393e+00
v 6.02615201e+03 5.81909252e+03 1.08237775e+01
v 6.02516265e+03 5.82023644e+03 1.21107677e+01
v 6.01547527e+03 5.82306960e+03 1.42019514e+01
v 6.01446901e+03 5.82287505e+03 1.11528203e+01
v 6.01970850e+03 5.82408565e+03 1.12383486e+01
v 6.01320241e+03 5.82269861e+03 1.48541117e+01
v 6.01223083e+03 5.82226372e+03 1.56374086e+01
v 6.01078197e+03 5.82218340e+03 1.58376585e+01
v 6.00947499e+03 5.82182453e+03 1.41703011e+01
v 6.00744289e+03 5.82142286e+03 1.51297746e+01
v 6.00824399e+03 5.82235407e+03 9.54785402e+00
v 6.00639335e+03 5.82281371e+03 9.94209993e+00
v 6.02466172e+03 5.82170903e+03 1.47448758e+01
v 6.02472236e+03 5.82192050e+03 1.12358457e+01
v 6.02704395e+03 5.81685411e+03 1.11969107e+01
v 6.02652245e+03 5.81752472e+03 9.68186000e+00
v 6.00895250e+03 5.82416446e+03 9.70215987e+00
v 6.01744431e+03 5.82365612e+03 1.06426775e+01
v 6.02955091e+03 5.82215142e+03 9.92972502e+00
v 6.00464862e+03 5.82115385e+03 1.03305616e+01
v 6.01781382e+03 5.82353508e+03 1.14164788e+01
v 6.02396394e+03 5.82305349e+03 1.37668280e+01
v 6.02510551e+03 5.82211580e+03 1.02576938e+01
v 6.00917097e+03 5.82161480e+03 1.00230105e+01
v 6.00232885e+03 5.83049211e+03 9.55421179e+00
v 6.00642215e+03 5.83117749e+03 9.48791093e+00
v 6.00483027e+03 5.82727322e+03 9.39084600e+00
v 6.00229509e+03 5.82017637e+03 1.14297589e+01
v 6.02333741e+03 5.82482110e+03 1.11710064e+01
v 6.02827224e+03 5.81424912e+03 1.12310462e+01
v 6.01096372e+03 5.82215849e+03 2.20629691e+01
v 6.01340680e+03 5.82281245e+03 2.25276877e+01
v 6.00415131e+03 5.82035006e+03 2.07692998e+01
v 6.00432795e+03 5.82053353e+03 2.25333795e+01
v 6.01537930e+03 5.82298477e+03 2.09158680e+01
v 6.01012699e+03 5.82275238e+03 2.42085122e+01
v 6.01190269e+03 5.82297156e+03 2.40305882e+01
v 6.00785519e+03 5.82211749e+03 2.40042933e+01
v 6.00789003e+03 5.82145934e+03 2.25026796e+01
v 6.01521589e+03 5.82372269e+03 2.39545267e+01
v 6.01323991e+03 5.81278608e+03 2.36490502e+01
v 6.01905394e+03 5.81278415e+03 2.28528540e+01
v 6.01964623e+03 5.81299705e+03 2.44129056e+01
v 6.02119256e+03 5.82507008e+03 2.40858066e+01
v 6.00179743e+03 5.82006088e+03 1.83042692e+01
v 6.00674238e+03 5.82108524e+03 1.86963845e+01
v 6.00107228e+03 5.81962484e+03 1.61831010e+01
v 6.00408577e+03 5.82049710e+03 1.75461020e+01
v 6.01499106e+03 5.82277572e+03 1.69041544e+01
v 6.01685766e+03 5.82348132e+03 1.77419678e+01
v 6.01735704e+03 5.82356571e+03 1.47936219e+01
v 6.01744246e+03 5.82325865e+03 1.60238078e+01
v 6.00396846e+03 5.82052166e+03 1.40714064e+01
v 6.02838398e+03 5.81387900e+03 1.50683504e+01
v 6.02821885e+03 5.81408535e+03 1.74790040e+01
v 6.01901674e+03 5.82396931e+03 1.46164791e+01
v 6.01846170e+03 5.82384035e+03 1.82673986e+01
v 6.00663774e+03 5.81955418e+03 2.56280776e+01
v 6.00686668e+03 5.81769695e+03 2.54786236e+01
v 6.00641438e+03 5.82001965e+03 2.49583240e+01
v 6.00725838e+03 5.81250199e+03 2.41855331e+01
v 6.00785256e+03 5.81913536e+03 2.48449276e+01
v 6.01487120e+03 5.82299612e+03 1.80355231e+01
v 6.01239954e+03 5.82241923e+03 1.78711980e+01
v 6.01351216e+03 5.81411817e+03 2.43464303e+01
v 6.00615315e+03 5.82088687e+03 2.49906237e+01
v 6.00907049e+03 5.82171221e+03 2.49396131e+01
v 6.01811315e+03 5.82359503e+03 2.49568002e+01
v 6.02170836e+03 5.82023264e+03 2.46401461e+01
v 6.01795061e+03 5.82342111e+03 2.01722429e+01
v 6.01887941e+03 5.82380710e+03 2.16654668e+01
v 6.01777758e+03 5.81359101e+03 2.34205263e+01
v 6.01787087e+03 5.81469514e+03 2.36986336e+01
v 6.01502777e+03 5.81675755e+03 2.45963026e+01
v 6.00963056e+03 5.82163811e+03 2.09741355e+01
v 6.00975586e+03 5.82185068e+03 1.84306517e+01
v 6.00963071e+03 5.82167498e+03 2.27593085e+01
v 6.01130394e+03 5.81268000e+03 2.37909891e+01
v 6.01173201e+03 5.81345954e+03 2.34214054e+01
v 6.00797572e+03 5.82144704e+03 2.01375973e+01
v 6.01320983e+03 5.82231418e+03 2.49421934e+01
v 6.01839600e+03 5.81522995e+03 2.44457236e+01
v 6.01955983e+03 5.81640854e+03 2.44198916e+01
v 6.01796663e+03 5.82352017e+03 2.26413212e+01
v 6.01849145e+03 5.82452632e+03 2.41706998e+01
v 6.02071835e+03 5.82419897e+03 2.23719323e+01
v 6.01966732e+03 5.82461033e+03 2.39679051e+01
v 6.00647822e+03 5.81836511e+03 2.49338486e+01
v 6.00986819e+03 5.81337955e+03 2.44353733e+01
v 6.01460261e+03 5.81457906e+03 2.45338152e+01
v 6.01662859e+03 5.81473853e+03 2.42932501e+01
v 6.00129422e+03 5.82046257e+03 2.39121144e+01
v 6.00583697e+03 5.81410149e+03 2.50454739e+01
v 6.00579155e+03 5.81365289e+03 2.56551822e+01
v 6.00545754e+03 5.82088813e+03 2.18259312e+01
v 6.00970467e+03 5.81285123e+03 2.38652165e+01
v 6.00286764e+03 5.81395150e+03 2.45542482e+01
v 6.00469748e+03 5.81401670e+03 2.46537019e+01
v 6.00488127e+03 5.81850334e+03 2.54282334e+01
v 6.00506140e+03 5.81896418e+03 2.48819017e+01
v 6.01716226e+03 5.81243401e+03 2.39355018e+01
v 6.01550120e+03 5.81402225e+03 2.35186484e+01
v 6.01594128e+03 5.81253933e+03 2.34811525e+01
v 6.01039064e+03 5.81232417e+03 2.36044275e+01
v 6.01455738e+03 5.81226513e+03 2.34821569e+01
v 6.01398303e+03 5.81247473e+03 2.39794322e+01
v 6.00619698e+03 5.81301047e+03 2.45960344e+01
v 6.00245793e+03 5.81306244e+03 2.46475180e+01
v 6.01677381e+03 5.81493770e+03 2.30087064e+01
v 6.01875929e+03 5.81407092e+03 2.39181308e+01
v 6.00758787e+03 5.81630035e+03 2.57363781e+01
v 6.02595105e+03 5.81903061e+03 2.19716111e+01
v 6.02711113e+03 5.81793640e+03 2.39068430e+01
v 6.02618241e+03 5.81770751e+03 2.49847304e+01
v 6.02931605e+03 5.81312820e+03 2.39738554e+01
v 6.02312440e+03 5.82448145e+03 2.49699819e+01
v 6.02485339e+03 5.82162053e+03 1.83934882e+01
v 6.02442860e+03 5.82211207e+03 1.67500272e+01
v 6.02697301e+03 5.81687228e+03 1.87408701e+01
v 6.02692777e+03 5.81722465e+03 2.27813262e+01
v 6.02615700e+03 5.81802309e+03 1.94550110e+01
v 6.01726015e+03 5.81357818e+03 2.34575749e+01
v 6.02275971e+03 5.81238320e+03 2.45075102e+01
v 6.02241854e+03 5.81541773e+03 2.46279273e+01
v 6.02821603e+03 5.81307275e+03 2.50274117e+01
v 6.02795256e+03 5.81471838e+03 2.25110207e+01
v 6.01559518e+03 5.81388434e+03 2.27299253e+01
v 6.01835546e+03 5.81317943e+03 2.26271491e+01
v 6.00224943e+03 5.82026351e+03 1.47538549e+01
v 6.02579968e+03 5.81454494e+03 2.48163191e+01
v 6.02350580e+03 5.82369573e+03 1.93244176e+01
v 6.02466742e+03 5.82180351e+03 2.21282818e+01
v 6.01456674e+03 5.81380663e+03 2.35289790e+01
v 6.02817461e+03 5.81436079e+03 1.87537924e+01
v 6.02196336e+03 5.82457767e+03 1.12033857e+01
v 6.02183591e+03 5.82460091e+03 1.47982586e+01
v 6.02076511e+03 5.82418029e+03 1.23198399e+01
v 6.02492571e+03 5.82056800e+03 1.58751068e+01
v 6.02505194e+03 5.82235126e+03 2.39784966e+01
v 6.02570694e+03 5.81951948e+03 1.83027833e+01
v 6.02598886e+03 5.81891835e+03 1.52276457e+01
v 6.02632478e+03 5.81771708e+03 1.58028594e+01
v 6.02705465e+03 5.81684157e+03 1.48926748e+01
v 6.00247273e+03 5.81997544e+03 2.49578320e+01
v 6.02329268e+03 5.82478012e+03 2.02522723e+01
v 6.02725500e+03 5.81244320e+03 2.57941847e+01
v 6.01609560e+03 5.81459888e+03 2.24072641e+01
v 6.02334824e+03 5.82442407e+03 2.25175730e+01
v 6.01041386e+03 5.81316715e+03 2.31635870e+01
v 6.02834444e+03 5.81316590e+03 1.22567918e+01
v 6.00458846e+03 5.84389650e+03 1.10522657e+01
v 6.00549243e+03 5.84246772e+03 1.28493788e+01
v 6.00635719e+03 5.84385178e+03 1.23424486e+01
v 6.00619664e+03 5.84384990e+03 1.33913251e+01
v 6.00560467e+03 5.84272676e+03 1.33416930e+01
v 6.00465021e+03 5.84389902e+03 1.38199542e+01
v 6.00425527e+03 5.84293043e+03 1.28226540e+01
v 6.00398578e+03 5.84341395e+03 1.35453746e+01
v 6.00382229e+03 5.84248004e+03 1.30210865e+01
v 6.00322905e+03 5.84246997e+03 1.53034983e+01
v 6.00467938e+03 5.83826096e+03 1.08204288e+01
v 6.00385318e+03 5.83704292e+03 1.06932603e+01
v 6.00268617e+03 5.84338109e+03 1.07300375e+01
v 6.00801656e+03 5.83896073e+03 1.07596192e+01
v 6.00892271e+03 5.83817732e+03 1.07892789e+01
v 6.00247812e+03 5.83780119e+03 1.09396515e+01
v 6.00000000e+03 5.84266480e+03 1.46996578e+01
v 6.00065904e+03 5.84369236e+03 1.09570720e+01
v 6.00323105e+03 5.84261694e+03 1.67624542e+01
v 6.00226573e+03 5.84211918e+03 1.51748619e+01
v 6.00221050e+03 5.84231415e+03 9.51769123e+00
v 6.00646800e+03 5.83760655e+03 1.06657464e+01
v 6.00645748e+03 5.83753185e+03 9.43686462e+00
v 6.00372502e+03 5.83704632e+03 9.45835832e+00
v 6.00160876e+03 5.83669276e+03 1.06414129e+01
v 6.00415592e+03 5.84375883e+03 1.83379498e+01
v 6.00889334e+03 5.83159289e+03 9.46442432e+00
v 6.00611391e+03 5.83230455e+03 1.07339983e+01
v 6.00573918e+03 5.83452319e+03 1.05089076e+01
v 6.01232999e+03 5.83992881e+03 1.06288560e+01
v 6.01134207e+03 5.83932172e+03 1.10390710e+01
v 6.00963029e+03 5.83974219e+03 1.05866344e+01
v 6.01202894e+03 5.83893638e+03 1.05848082e+01
v 6.01551639e+03 5.83982301e+03 1.04953634e+01
v 6.01399393e+03 5.84077297e+03 1.04620352e+01
v 6.01541810e+03 5.84149956e+03 9.42097537e+00
v 6.01423158e+03 5.84266433e+03 1.05984403e+01
v 6.01349358e+03 5.84254515e+03 9.84037165e+00
v 6.00000000e+03 5.83923830e+03 9.51915742e+00
v 6.00000000e+03 5.84383926e+03 1.01306092e+01
v 6.00152744e+03 5.83504047e+03 9.75468549e+00
v 6.00189524e+03 5.83675682e+03 9.34085371e+00
v 6.00706795e+03 5.83439619e+03 1.03579695e+01
v 6.00712628e+03 5.83702006e+03 9.13754192e+00
v 6.01125452e+03 5.83675043e+03 1.00305818e+01
v 6.01092255e+03 5.83492494e+03 9.98572086e+00
v 6.01057102e+03 5.83855859e+03 9.43342768e+00
v 6.00339620e+03 5.84247583e+03 1.02557765e+01
v 6.01448648e+03 5.83962778e+03 9.05744766e+00
v 6.01235900e+03 5.83901920e+03 9.08420852e+00
v 6.01337386e+03 5.84150147e+03 9.27974218e+00
v 6.01403749e+03 5.83969360e+03 1.08307244e+01
v 6.01290879e+03 5.83539046e+03 9.27534056e+00
v 6.01205249e+03 5.83515396e+03 1.02176452e+01
v 6.01249156e+03 5.83696322e+03 9.86521742e+00
v 6.00971311e+03 5.83666089e+03 9.03509360e+00
v 6.00974235e+03 5.83580377e+03 9.49670226e+00
v 6.00771398e+03 5.83561028e+03 9.17306856e+00
v 6.00734720e+03 5.83437827e+03 9.24097986e+00
v 6.00778653e+03 5.83293342e+03 9.79142873e+00
v 6.01054000e+03 5.83253521e+03 9.19357391e+00
v 6.00690605e+03 5.83219698e+03 9.41907939e+00
v 6.00203600e+03 5.83357261e+03 9.13565722e+00
v 6.00506013e+03 5.83229048e+03 1.04343197e+01
v 6.02035029e+03 5.83706785e+03 8.84668528e+00
v 6.02593350e+03 5.84092137e+03 8.86035754e+00
v 6.01555060e+03 5.83985557e+03 9.11724360e+00
v 6.02119445e+03 5.83159437e+03 8.93363033e+00
v 6.02107959e+03 5.83017591e+03 9.02918318e+00
v 6.02268323e+03 5.83350433e+03 8.80476034e+00
v 6.01145000e+03 5.83843944e+03 9.10564471e+00
v 6.01756946e+03 5.83889649e+03 8.88296930e+00
v 6.01502366e+03 5.83725479e+03 8.87907301e+00
v 6.01003281e+03 5.83433143e+03 9.37530384e+00
v 6.01434368e+03 5.84267616e+03 9.45782290e+00
v 6.01048771e+03 5.83543455e+03 9.09237352e+00
v 6.01078361e+03 5.83680024e+03 8.96806963e+00
v 6.01155642e+03 5.83416375e+03 9.83867769e+00
v 6.01367408e+03 5.83660937e+03 9.31799484e+00
v 6.01882390e+03 5.83483407e+03 9.02823768e+00
v 6.00789631e+03 5.84035599e+03 9.26170163e+00
v 6.00507619e+03 5.83467353e+03 9.21549322e+00
v 6.00566348e+03 5.83645008e+03 9.17387462e+00
v 6.00317909e+03 5.84168338e+03 9.36440828e+00
v 6.00178675e+03 5.83936784e+03 9.20863828e+00
v 6.00489570e+03 5.84302786e+03 9.86441529e+00
v 6.01248843e+03 5.84271880e+03 9.13121323e+00
v 6.00445036e+03 5.83183681e+03 9.33622992e+00
v 6.00098321e+03 5.83073884e+03 9.39921704e+00
v 6.00167896e+03 5.84140970e+03 9.63720805e+00
v 6.00602350e+03 5.84272508e+03 9.32231031e+00
v 6.01115209e+03 5.84067610e+03 9.67246172e+00
v 6.00460344e+03 5.83683892e+03 9.24540142e+00
v 6.02993435e+03 5.84299501e+03 8.69612048e+00
v 6.03084870e+03 5.84382115e+03 8.94685946e+00
v 6.01553876e+03 5.84297634e+03 9.00109767e+00
v 6.00407708e+03 5.83914988e+03 9.51814292e+00
v 6.01819192e+03 5.84393827e+03 8.83404147e+00
v 6.02468634e+03 5.83160701e+03 8.97569840e+00
v 6.00263542e+03 5.84385775e+03 1.90977257e+01
v 6.00194233e+03 5.84335863e+03 1.83519750e+01
v 6.00257634e+03 5.84321886e+03 2.04508720e+01
v 6.00062263e+03 5.84347658e+03 2.07686405e+01
v 6.00352792e+03 5.84351545e+03 1.77475629e+01
v 6.00265731e+03 5.84247563e+03 1.77425539e+01
v 6.00230596e+03 5.84197978e+03 1.67618433e+01
v 6.00182928e+03 5.84215587e+03 1.70033851e+01
v 6.02968568e+03 5.82403327e+03 1.02427155e+01
v 6.03051853e+03 5.81930161e+03 9.92510837e+00
v 6.03121234e+03 5.81856543e+03 9.55730942e+00
v 6.02753922e+03 5.81504841e+03 1.25951996e+01
v 6.02057980e+03 5.82402909e+03 1.10345284e+01
v 6.02376373e+03 5.82314236e+03 1.22675607e+01
v 6.00667839e+03 5.82102374e+03 1.32967081e+01
v 6.00555638e+03 5.82090876e+03 1.11536241e+01
v 6.00656303e+03 5.82163619e+03 1.05551993e+01
v 6.01156479e+03 5.82212087e+03 1.35250381e+01
v 6.02086204e+03 5.82399276e+03 1.36599244e+01
v 6.02330909e+03 5.82485142e+03 1.31094918e+01
v 6.02345334e+03 5.82368720e+03 1.59082939e+01
v 6.02558856e+03 5.81972171e+03 1.22699637e+01
v 6.01260447e+03 5.82632734e+03 1.01194543e+01
v 6.00844811e+03 5.82160233e+03 1.13449256e+01
v 6.02111478e+03 5.82415211e+03 1.61173256e+01
v 6.02738541e+03 5.81531320e+03 1.59450329e+01
v 6.02642405e+03 5.81746858e+03 1.22619956e+01
v 6.02092100e+03 5.82429167e+03 1.84659003e+01
v 6.02312912e+03 5.82477011e+03 9.96602758e+00
v 6.01043345e+03 5.82725383e+03 1.04457045e+01
v 6.01207047e+03 5.82798328e+03 1.03026023e+01
v 6.01082382e+03 5.82591860e+03 1.01164362e+01
v 6.01235309e+03 5.82218691e+03 2.25995923e+01
v 6.00645701e+03 5.82096668e+03 1.64359353e+01
v 6.01289511e+03 5.82246072e+03 2.04102254e+01
v 6.00500315e+03 5.82079174e+03 1.96566387e+01
v 6.01702768e+03 5.81419020e+03 2.24327448e+01
v 6.00541526e+03 5.82141783e+03 2.37866464e+01
v 6.00665024e+03 5.82161983e+03 2.46768779e+01
v 6.00324280e+03 5.82076865e+03 2.40766402e+01
v 6.00719151e+03 5.81813526e+03 2.57887709e+01
v 6.00350999e+03 5.81824027e+03 2.48768285e+01
v 6.00522332e+03 5.81748490e+03 2.48805376e+01
v 6.01648433e+03 5.82348475e+03 2.25725964e+01
v 6.01698537e+03 5.82384763e+03 2.39128224e+01
v 6.01517929e+03 5.82288604e+03 2.26704321e+01
v 6.00476092e+03 5.82152537e+03 2.43569786e+01
v 6.00582787e+03 5.81497313e+03 2.46802744e+01
v 6.00523109e+03 5.81596309e+03 2.46300828e+01
v 6.00710578e+03 5.81582546e+03 2.48351830e+01
v 6.00603139e+03 5.81637417e+03 2.52756220e+01
v 6.00828808e+03 5.81541861e+03 2.46233292e+01
v 6.01606006e+03 5.81483453e+03 2.46613328e+01
v 6.00774076e+03 5.81515946e+03 2.56606263e+01
v 6.00758938e+03 5.81436544e+03 2.47943262e+01
v 6.00233863e+03 5.81367043e+03 2.56059068e+01
v 6.00502627e+03 5.81306959e+03 2.47440040e+01
v 6.00696045e+03 5.81496856e+03 2.46668270e+01
v 6.01842518e+03 5.81247493e+03 2.26305034e+01
v 6.02610303e+03 5.81302243e+03 2.50095072e+01
v 6.02454117e+03 5.82124150e+03 2.50314091e+01
v 6.02360889e+03 5.82511222e+03 2.40576385e+01
v 6.02512000e+03 5.82067446e+03 2.28162106e+01
v 6.02751970e+03 5.81512329e+03 1.94434261e+01
v 6.02860179e+03 5.81270430e+03 1.96873286e+01
v 6.02499223e+03 5.82062990e+03 1.95503894e+01
v 6.02375682e+03 5.82386923e+03 1.82938191e+01
v 6.03090978e+03 5.83705145e+03 8.63575250e+00
v 6.02367440e+03 5.83723148e+03 8.93708199e+00
v 6.03150000e+03 5.81783501e+03 9.85238521e+00
v 6.03150000e+03 5.81861533e+03 9.74605488e+00
v 6.03150000e+03 5.81747954e+03 9.68649316e+00
v 6.03150000e+03 5.82007169e+03 1.01832625e+01
v 6.03150000e+03 5.81898160e+03 1.00980017e+01
v 6.03150000e+03 5.82019935e+03 1.01073747e+01
v 6.03150000e+03 5.82039897e+03 9.14259170e+00
v 6.03150000e+03 5.81632411e+03 9.15428264e+00
v 6.03150000e+03 5.81735520e+03 9.68038544e+00
v 6.03150000e+03 5.81476000e+03 9.09858425e+00
v 6.03150000e+03 5.81547378e+03 9.05874117e+00
v 6.03150000e+03 5.82211820e+03 9.00367097e+00
v 6.03150000e+03 5.82210644e+03 9.00413660e+00
v 6.03150000e+03 5.81258772e+03 9.09320092e+00
v 6.03150000e+03 5.82202553e+03 9.00268162e+00
v 6.03150000e+03 5.82700298e+03 8.87242970e+00
v 6.03150000e+03 5.82627040e+03 8.88184320e+00
v 6.03150000e+03 5.82218351e+03 9.00239915e+00
v 6.03150000e+03 5.82935217e+03 8.88780220e+00
v 6.03150000e+03 5.84342861e+03 8.82976667e+00
v 6.03150000e+03 5.84378412e+03 8.91868521e+00
v 6.03150000e+03 5.83981353e+03 8.67366424e+00
v 6.03150000e+03 5.84174427e+03 8.66923003e+00
v 6.03150000e+03 5.83639760e+03 8.63367331e+00
v 6.03150000e+03 5.83237243e+03 8.73648532e+00
v 6.03150000e+03 5.84273073e+03 8.61941469e+00
v 6.02890134e+03 5.81225000e+03 1.93531998e+01
v 6.02893518e+03 5.81225000e+03 2.01930858e+01
v 6.02735102e+03 5.81225000e+03 2.56043383e+01
v 6.02685770e+03 5.81225000e+03 2.57891744e+01
v 6.01396698e+03 5.81225000e+03 2.39406407e+01
v 6.01348038e+03 5.81225000e+03 2.36964239e+01
v 6.00331163e+03 5.81225000e+03 2.43348070e+01
v 6.00369326e+03 5.81225000e+03 2.43536203e+01
v 6.00729847e+03 5.81225000e+03 2.41680563e+01
v 6.00751647e+03 5.81225000e+03 2.41116694e+01
v 6.02883729e+03 5.81225000e+03 1.58659907e+01
v 6.02908858e+03 5.81225000e+03 1.82091452e+01
v 6.02884283e+03 5.81225000e+03 1.57368673e+01
v 6.02903817e+03 5.81225000e+03 2.03120233e+01
v 6.02902955e+03 5.81225000e+03 2.07698156e+01
v 6.02940793e+03 5.81225000e+03 2.31702318e+01
v 6.02972186e+03 5.81225000e+03 2.39784309e+01
v 6.02591643e+03 5.81225000e+03 2.54679283e+01
v 6.01761053e+03 5.81225000e+03 2.36766666e+01
v 6.01836338e+03 5.81225000e+03 2.30870052e+01
v 6.01840031e+03 5.81225000e+03 2.28869148e+01
v 6.02049610e+03 5.81225000e+03 2.44947992e+01
v 6.02255175e+03 5.81225000e+03 2.45180463e+01
v 6.02320127e+03 5.81225000e+03 2.45676825e+01
v 6.02478153e+03 5.81225000e+03 2.47666984e+01
v 6.02268314e+03 5.81225000e+03 2.45207907e+01
v 6.02271483e+03 5.81225000e+03 2.45177572e+01
v 6.02512651e+03 5.81225000e+03 2.48463909e+01
v 6.02864443e+03 5.81225000e+03 2.50229733e+01
v 6.02795605e+03 5.81225000e+03 2.49463365e+01
v 6.02927173e+03 5.81225000e+03 2.44373702e+01
v 6.02280286e+03 5.81225000e+03 2.45140347e+01
v 6.01716148e+03 5.81225000e+03 2.39370526e+01
v 6.01980017e+03 5.81225000e+03 2.43191986e+01
v 6.02000507e+03 5.81225000e+03 2.44387762e+01
v 6.02908893e+03 5.81225000e+03 2.23926718e+01
v 6.01861871e+03 5.81225000e+03 2.30980718e+01
v 6.01158211e+03 5.81225000e+03 2.38418673e+01
v 6.01212133e+03 5.81225000e+03 2.37872513e+01
v 6.01042702e+03 5.81225000e+03 2.36156938e+01
v 6.01048862e+03 5.81225000e+03 2.36232009e+01
v 6.01703431e+03 5.81225000e+03 2.39020558e+01
v 6.01456553e+03 5.81225000e+03 2.34898406e+01
v 6.01573499e+03 5.81225000e+03 2.35953981e+01
v 6.00494602e+03 5.81225000e+03 2.43392147e+01
v 6.00509426e+03 5.81225000e+03 2.43242494e+01
v 6.00662131e+03 5.81225000e+03 2.38477613e+01
v 6.00563960e+03 5.81225000e+03 2.42548895e+01
v 6.01036186e+03 5.81225000e+03 2.36248303e+01
v 6.00307959e+03 5.81225000e+03 2.44099930e+01
v 6.00788036e+03 5.81225000e+03 2.41132021e+01
v 6.00983558e+03 5.81225000e+03 2.38646501e+01
v 6.01681781e+03 5.81225000e+03 2.39402427e+01
v 6.01419356e+03 5.81225000e+03 2.39765010e+01
v 6.00400506e+03 5.81225000e+03 2.44439343e+01
v 6.00000000e+03 5.81225000e+03 2.44068426e+01
v 6.00042565e+03 5.81225000e+03 2.44358217e+01
v 6.00179014e+03 5.81225000e+03 2.45289838e+01
v 6.00123438e+03 5.81225000e+03 2.44667083e+01
v 6.02908817e+03 5.81225000e+03 1.17570375e+01
v 6.02892135e+03 5.81225000e+03 1.20910977e+01
v 6.02902781e+03 5.81225000e+03 9.91367118e+00
v 6.02900274e+03 5.81225000e+03 9.55229698e+00
v 6.02907575e+03 5.81225000e+03 1.29386095e+01
v 6.02910351e+03 5.81225000e+03 1.47490678e+01
v 6.02920837e+03 5.81225000e+03 1.11935346e+01
v 6.02953855e+03 5.81225000e+03 9.15500182e+00
v 6.02916794e+03 5.81225000e+03 9.40472593e+00
v 6.01912673e+03 5.81225000e+03 2.41330466e+01
v 6.01874156e+03 5.81225000e+03 2.35843723e+01
v 6.03122674e+03 5.81225000e+03 9.12365648e+00
v 6.03150000e+03 5.81225000e+03 9.11858283e+00
v 6.00246702e+03 5.84400000e+03 2.16031600e+01
v 6.00168589e+03 5.84400000e+03 2.08237010e+01
v 6.00431382e+03 5.84400000e+03 1.78269325e+01
v 6.00394436e+03 5.84400000e+03 1.70141810e+01
v 6.00078405e+03 5.84400000e+03 1.83555101e+01
v 6.00073272e+03 5.84400000e+03 1.82997849e+01
v 6.00377542e+03 5.84400000e+03 1.67348102e+01
v 6.00444793e+03 5.84400000e+03 1.57678972e+01
v 6.00438813e+03 5.84400000e+03 1.55101190e+01
v 6.00446439e+03 5.84400000e+03 1.81822860e+01
v 6.00057371e+03 5.84400000e+03 1.85673615e+01
v 6.00078115e+03 5.84400000e+03 1.84945255e+01
v 6.00391905e+03 5.84400000e+03 1.89529612e+01
v 6.00300960e+03 5.84400000e+03 1.92772310e+01
v 6.00067903e+03 5.84400000e+03 1.82751427e+01
v 6.00340481e+03 5.84400000e+03 1.98035253e+01
v 6.00135210e+03 5.84400000e+03 2.08139061e+01
v 6.00084140e+03 5.84400000e+03 2.11993457e+01
v 6.00264001e+03 5.84400000e+03 2.15134049e+01
v 6.00259423e+03 5.84400000e+03 2.15667402e+01
v 6.00005434e+03 5.84400000e+03 2.10404103e+01
v 6.00313111e+03 5.84400000e+03 2.04588566e+01
v 6.00301305e+03 5.84400000e+03 2.09544154e+01
v 6.01030978e+03 5.84400000e+03 9.21609059e+00
v 6.00797080e+03 5.84400000e+03 9.29406227e+00
v 6.01818175e+03 5.84400000e+03 8.83575827e+00
v 6.01815235e+03 5.84400000e+03 8.83430402e+00
v 6.01570791e+03 5.84400000e+03 9.14713489e+00
v 6.01511563e+03 5.84400000e+03 8.99546258e+00
v 6.00697947e+03 5.84400000e+03 9.31447989e+00
v 6.00571991e+03 5.84400000e+03 9.63772371e+00
v 6.01822176e+03 5.84400000e+03 8.83504314e+00
v 6.02472597e+03 5.84400000e+03 8.90084133e+00
v 6.01836909e+03 5.84400000e+03 8.83687936e+00
v 6.00539651e+03 5.84400000e+03 9.78084392e+00
v 6.00478838e+03 5.84400000e+03 1.07981265e+01
v 6.00421687e+03 5.84400000e+03 1.84910769e+01
v 6.00548048e+03 5.84400000e+03 1.35972470e+01
v 6.00604019e+03 5.84400000e+03 1.34569875e+01
v 6.00476270e+03 5.84400000e+03 1.38048392e+01
v 6.00468899e+03 5.84400000e+03 1.38867202e+01
v 6.00632137e+03 5.84400000e+03 1.35733837e+01
v 6.00643764e+03 5.84400000e+03 1.32969548e+01
v 6.00557429e+03 5.84400000e+03 1.15908211e+01
v 6.00471931e+03 5.84400000e+03 1.10469731e+01
v 6.00656859e+03 5.84400000e+03 1.24260108e+01
v 6.00622791e+03 5.84400000e+03 1.21114314e+01
v 6.03083214e+03 5.84400000e+03 8.96136175e+00
v 6.03070811e+03 5.84400000e+03 8.94205310e+00
v 6.02954176e+03 5.84400000e+03 8.73847380e+00
v 6.01809329e+03 5.84400000e+03 8.85612422e+00
v 6.01208963e+03 5.84400000e+03 9.11199464e+00
v 6.01828265e+03 5.84400000e+03 8.83496372e+00
v 6.01303284e+03 5.84400000e+03 9.08037544e+00
v 6.02718776e+03 5.84400000e+03 8.86159559e+00
v 6.00057755e+03 5.84400000e+03 1.83659685e+01
v 6.00055198e+03 5.84400000e+03 1.84529042e+01
v 6.00000000e+03 5.84400000e+03 2.10865652e+01
v 6.03096393e+03 5.84400000e+03 8.91136606e+00
v 6.03150000e+03 5.84400000e+03 8.88316018e+00
vt 0.46767086 0.68311775
vt 0.4493452 0.67366719
vt 0.46555957 0.65371728
vt 0.48005614 0.65993363
vt 0.43997595 0.68588781
vt 0.44521064 0.66334653
vt 0.48830992 0.6336754
vt 0.43801317 0.69680125
vt 0.45311078 0.64087236
vt 0.42433578 0.66922271
vt 0.44343475 0.63909149
vt 0.47527021 0.62335837
vt 0.39544341 0.65545571
vt 0.43692619 0.65818775
vt 0.46198446 0.61557752
vt 0.4806644 0.60918397
vt 0.36320952 0.70557761
vt 0.42495218 0.65243202
vt 0.43375403 0.61291134
vt 0.4726339 0.59988832
vt 0.49600044 0.62120914
vt 0.372486 0.75578189
vt 0.40792495 0.63012844
vt 0.49600205 0.62320459
vt 0.495996 0.60417736
vt 0.41381624 0.74638999
vt 0.3176702 0.75186169
vt 0.42382872 0.59103501
vt 0.49599859 0.59845746
vt 0.45121616 0.81427515
vt 0.33324671 0.77915138
vt 0.32508749 0.70116794
vt 0.41671735 0.60988319
vt 0.43534893 0.54826808
vt 0.49150607 0.59768087
vt 0.49605203 0.72952282
vt 0.38961029 0.8014946
vt 0.33504981 0.80131525
vt 0.27184618 0.82791448
vt 0.29699391 0.68987322
vt 0.4864547 0.56186795
vt 0.49599329 0.58626395
vt 0.49606374 0.76622885
vt 0.47079352 0.69096911
vt 0.35832331 0.83115202
vt 0.26315677 0.79763007
vt 0.23334166 0.71178865
vt 0.49272299 0.58221829
vt 0.45616668 0.52407569
vt 0.49608094 0.81342196
vt 0.49604821 0.71807605
vt 0.37382758 0.88938272
vt 0.32426849 0.82571542
vt 0.20560065 0.86066824
vt 0.22846192 0.72798723
vt 0.24558377 0.67489731
vt 0.49599445 0.5626623
vt 0.44458082 0.5283848
vt 0.49598724 0.53822339
vt 0.49599358 0.58071113
vt 0.4961026 0.87631649
vt 0.49575931 0.65317357
vt 0.40914577 0.94702679
vt 0.32188851 0.8868438
vt 0.29802495 0.85194683
vt 0.23866013 0.88979143
vt 0.20320857 0.82677752
vt 0.22823624 0.74965268
vt 0.20078914 0.71905053
vt 0.19395292 0.67674094
vt 0.49599305 0.57876843
vt 0.49599135 0.54937667
vt 0.45694906 0.49901319
vt 0.4959763 0.50428146
vt 0.4868837 0.88653588
vt 0.49602601 0.65421712
vt 0.47903487 0.6663022
vt 0.217564 0.87970966
vt 0.18445656 0.84150267
vt 0.45953211 0.49901372
vt 0.46532613 0.49901408
vt 0.49611938 0.92969012
vt 0.49602565 0.65319669
vt 0.47167191 0.97940868
vt 0.28819883 0.99420553
vt 0.27844673 0.91543007
vt 0.19703108 0.91737211
vt 0.19908194 0.88523966
vt 0.16857481 0.81606752
vt 0.20046625 0.75747353
vt 0.19245142 0.74492574
vt 0.17296442 0.71267289
vt 0.49170458 0.49900579
vt 0.46554214 0.99511331
vt 0.39029321 0.99513626
vt 0.2469037 0.93042392
vt 0.23027645 0.92687058
vt 0.19220792 0.85696888
vt 0.16065674 0.84413457
vt 0.16686736 0.73353505
vt 0.14372121 0.68527758
vt 0.49597427 0.49900448
vt 0.49612918 0.95985812
vt 0.42875922 0.99512416
vt 0.48376396 0.99510556
vt 0.29096738 0.99516904
vt 0.17974994 0.88191956
vt 0.12554622 0.82229823
vt 0.17455429 0.85339826
vt 0.15393531 0.74590462
vt 0.15235971 0.7257362
vt 0.16894369 0.65596735
vt 0.49613482 0.97527212
vt 0.48595962 0.9923104
vt 0.2896167 0.99516952
vt 0.24673599 0.97918725
vt 0.18282467 0.90831763
vt 0.11869589 0.84488124
vt 0.14283752 0.80134964
vt 0.1677738 0.86137116
vt 0.060425553 0.69419551
vt 0.13264352 0.65699512
vt 0.49613571 0.98617458
vt 0.48570162 0.99510479
vt 0.28866529 0.99516982
vt 0.24938239 0.99517977
vt 0.16908696 0.91018093
vt 0.15612416 0.86714041
vt 0.11178956 0.81079912
vt 0.10372447 0.6641829
vt 0.14711791 0.64543498
vt 0.49613637 0.99172866
vt 0.48776144 0.99510455
vt 0.28804022 0.99517
vt 0.28665772 0.9951703
vt 0.2401299 0.99518412
vt 0.10480744 0.89415884
vt 0.12443388 0.86413026
vt 0.10422257 0.79487133
vt 0.17240575 0.88270968
vt 0.07933078 0.73387581
vt 0.076449625 0.63825285
vt 0.10636209 0.6457777
vt 0.28758073 0.99517018
vt 0.19907145 0.97517753
vt 0.11525863 0.88616139
vt 0.15567759 0.88053721
vt 0.0038501197 0.72045982
vt 0.033853229 0.64131093
vt 0.49613792 0.99510211
vt 0.20758499 0.9951939
vt 0.092398994 0.87726259
vt 0.040260274 0.78418243
vt 0.0038324262 0.69669616
vt 0.025853463 0.68173873
vt 0.039656688 0.62298161
vt 0.19284689 0.99519843
vt 0.075836815 0.88334286
vt 0.093555093 0.84714246
vt 0.11431848 0.84515274
vt 0.073418543 0.80518466
vt 0.0038728919 0.78705144
vt 0.0038266887 0.67268789
vt 0.0037965311 0.61996186
vt 0.16503541 0.99520653
vt 0.062109921 0.88658607
vt 0.083213016 0.84950644
vt 0.019237693 0.78804582
vt 0.0038077368 0.63363469
vt 0.12730575 0.93828046
vt 0.038339186 0.85743511
vt 0.035705388 0.83232063
vt 0.12848768 0.99521768
vt 0.21289837 0.95615077
vt 0.033519454 0.88207304
vt 0.098054223 0.97530657
vt 0.17817393 0.94326204
vt 0.21476713 0.97245282
vt 0.016666409 0.87150753
vt 0.019531326 0.82478529
vt 0.11299776 0.99522251
vt 0.053604368 0.9590441
vt 0.15437934 0.92866921
vt 0.1965628 0.93157119
vt 0.02775868 0.85525298
vt 0.093313009 0.99522603
vt 0.067620657 0.91945195
vt 0.080426984 0.98003852
vt 0.12915865 0.91646552
vt 0.22256839 0.9447543
vt 0.0038954902 0.85716939
vt 0.03183917 0.92287213
vt 0.056989465 0.97141707
vt 0.18111828 0.9220866
vt 0.2232388 0.92788547
vt 0.0038975095 0.86930418
vt 0.0038871469 0.84112728
vt 0.088258043 0.99522638
vt 0.0039235046 0.93498808
vt 0.014283187 0.90638143
vt 0.077010646 0.90554786
vt 0.03847133 0.96890342
vt 0.075615615 0.99360198
vt 0.14331295 0.90421975
vt 0.19185445 0.91606629
vt 0.24635164 0.92990309
vt 0.0038891823 0.88161063
vt 0.003872656 0.82787269
vt 0.030159907 0.95477301
vt 0.0039165197 0.92085433
vt 0.04261202 0.89837408
vt 0.045893762 0.98556119
vt 0.22628954 0.97430444
vt 0.029026462 0.88106179
vt 0.016166825 0.95899165
vt 0.0038986884 0.89921904
vt 0.0039140759 0.91773969
vt 0.064096764 0.88652122
vt 0.10495656 0.89531505
vt 0.0039320532 0.99273902
vt 0.0039315037 0.97388691
vt 0.0039075296 0.90716559
vt 0.74635166 0.92990309
vt 0.72323877 0.92788547
vt 0.69185442 0.91606629
vt 0.53051561 0.52476293
vt 0.54949629 0.54291868
vt 0.53253669 0.57974148
vt 0.50935256 0.55330944
vt 0.5524714 0.52366859
vt 0.54812306 0.56403732
vt 0.50951052 0.5849812
vt 0.50890517 0.52371204
vt 0.52211803 0.49830008
vt 0.56603926 0.52649379
vt 0.57695854 0.57850194
vt 0.54706955 0.63674641
vt 0.55201387 0.49762613
vt 0.58055234 0.50409353
vt 0.54410517 0.60122645
vt 0.52573574 0.69905949
vt 0.51217455 0.50538099
vt 0.51374161 0.48795295
vt 0.6016596 0.51837075
vt 0.59598023 0.53064871
vt 0.58575529 0.63474691
vt 0.55034453 0.69683754
vt 0.5097481 0.66294312
vt 0.63254011 0.51440525
vt 0.60313493 0.58222282
vt 0.6020183 0.60202408
vt 0.54239392 0.72047871
vt 0.57930005 0.68696147
vt 0.50914299 0.69874734
vt 0.64862543 0.52816808
vt 0.63282877 0.57441986
vt 0.61102456 0.62757611
vt 0.5665043 0.71987164
vt 0.50464386 0.72025865
vt 0.58491892 0.72307062
vt 0.594033 0.66514385
vt 0.68404984 0.51064622
vt 0.5914439 0.73792398
vt 0.51263177 0.7361064
vt 0.59375012 0.7026639
vt 0.61691314 0.70151091
vt 0.66856229 0.58523035
vt 0.69515926 0.5237999
vt 0.64061534 0.61664921
vt 0.63446969 0.67751437
vt 0.6088714 0.72099555
vt 0.69448835 0.56641698
vt 0.70990026 0.50340021
vt 0.64235699 0.63328516
vt 0.63767952 0.70466715
vt 0.72731525 0.57691801
vt 0.73214459 0.51399004
vt 0.67358762 0.6710301
vt 0.63657773 0.72176892
vt 0.66539681 0.70245665
vt 0.6813181 0.63219368
vt 0.70669848 0.60153997
vt 0.68879354 0.72477698
vt 0.68402469 0.59842992
vt 0.72296876 0.64213943
vt 0.74345475 0.53417605
vt 0.70395845 0.69700468
vt 0.66882908 0.74094832
vt 0.75931424 0.59256446
vt 0.78904974 0.53297091
vt 0.77148646 0.56560445
vt 0.68225682 0.70533371
vt 0.7166605 0.72792614
vt 0.7750206 0.613837
vt 0.77285105 0.52170831
vt 0.725097 0.68173802
vt 0.73384362 0.74217618
vt 0.77051747 0.6481393
vt 0.81413054 0.57863361
vt 0.80305022 0.51948071
vt 0.75104541 0.66927767
vt 0.72509384 0.70897079
vt 0.75253904 0.72643018
vt 0.81236053 0.63195288
vt 0.84044564 0.53899348
vt 0.75240594 0.70545721
vt 0.77168417 0.73809397
vt 0.84114462 0.58963913
vt 0.79108441 0.72490394
vt 0.77992791 0.74508464
vt 0.79074532 0.69650424
vt 0.84837991 0.64458561
vt 0.87662864 0.58475113
vt 0.79787368 0.66350627
vt 0.85995799 0.61333156
vt 0.83223492 0.68105781
vt 0.87665415 0.55131507
vt 0.80123669 0.73321736
vt 0.80862099 0.70827264
vt 0.81147552 0.68178904
vt 0.87667131 0.62804776
vt 0.87677562 0.67876112
vt 0.87640029 0.53723943
vt 0.82542795 0.73103654
vt 0.83798003 0.74686646
vt 0.85592222 0.71082664
vt 0.87670505 0.70865238
vt 0.84050393 0.71301246
vt 0.85604602 0.72918266
vt 0.87634093 0.73106891
vt 0.87678713 0.74555671
vt 0.75931424 0.84256446
vt 0.81236053 0.88195282
vt 0.77051747 0.8981393
vt 0.21127303 0.40025061
vt 0.21866041 0.4216243
vt 0.20470254 0.42669064
vt 0.19099963 0.40820044
vt 0.23301135 0.43379104
vt 0.1854277 0.41840243
vt 0.19097136 0.40800261
vt 0.2395073 0.42578071
vt 0.2119561 0.44176406
vt 0.19382702 0.44396317
vt 0.20605992 0.39919454
vt 0.26664087 0.41825199
vt 0.23663673 0.46454
vt 0.17858738 0.42606491
vt 0.255164 0.41154528
vt 0.18324094 0.41562825
vt 0.16506773 0.4448415
vt 0.14029726 0.46523166
vt 0.17696588 0.41805625
vt 0.15266944 0.44134402
vt 0.13787225 0.50335014
vt 0.14548643 0.45044541
vt 0.11957399 0.49757105
vt 0.16499905 0.55230916
vt 0.15942785 0.42961073
vt 0.13354088 0.45676935
vt 0.13775215 0.44336081
vt 0.098892614 0.47439516
vt 0.12851033 0.51111078
vt 0.26213542 0.54726374
vt 0.13658929 0.52634227
vt 0.15246914 0.43430984
vt 0.089670882 0.49154472
vt 0.11677489 0.50902218
vt 0.20341901 0.57359433
vt 0.14764215 0.55162758
vt 0.12619802 0.51904607
vt 0.10469918 0.46592945
vt 0.13672698 0.44284034
vt 0.13836259 0.44180489
vt 0.068745345 0.48976994
vt 0.1585016 0.58772254
vt 0.1530018 0.57193816
vt 0.13959332 0.54714298
vt 0.11716273 0.53696263
vt 0.12993233 0.44857848
vt 0.10000372 0.46886355
vt 0.13756792 0.44225681
vt 0.10220059 0.51832104
vt 0.075783186 0.48493028
vt 0.066832229 0.49106151
vt 0.15423149 0.57512772
vt 0.10322384 0.53457594
vt 0.097189903 0.47097522
vt 0.0884571 0.47447485
vt 0.075083256 0.50262952
vt 0.1029806 0.60648513
vt 0.116529 0.55422878
vt 0.090083562 0.50898194
vt 0.054688826 0.49931979
vt 0.12747419 0.57308602
vt 0.14047681 0.55484319
vt 0.10107694 0.57702136
vt 0.055002987 0.52937555
vt 0.079187408 0.51596099
vt 0.050666895 0.50128424
vt 0.12108066 0.57245308
vt 0.054071475 0.60318482
vt 0.045742769 0.50425518
vt 0.068301097 0.62197649
vt 0.03506878 0.53746301
vt 0.041880928 0.52272457
vt 0.018644683 0.55344808
vt 0.042747565 0.50659639
vt 0.045683894 0.53681672
vt 0.012617646 0.54482698
vt 0.026107188 0.51776177
vt 0.0039804196 0.53282499
vt 0.0030098706 0.53148818
vt 0.018936843 0.52187288
vt 0.0085018165 0.52822399
vt 0.66006875 0.91246301
vt 0.66688091 0.89772457
vt 0.67068392 0.91181672
vt 0.75769097 0.39206719
vt 0.72804862 0.35303313
vt 0.74732769 0.34457463
vt 0.77763766 0.35389793
vt 0.71185452 0.39900047
vt 0.71090746 0.33968031
vt 0.80282998 0.36783195
vt 0.79560024 0.33695793
vt 0.7334727 0.40940315
vt 0.72388172 0.29829258
vt 0.79310399 0.39365846
vt 0.76134902 0.29878789
vt 0.74914938 0.44881111
vt 0.71715677 0.46167356
vt 0.68699437 0.35519058
vt 0.7111659 0.28256148
vt 0.84813273 0.34347731
vt 0.83217412 0.39193463
vt 0.77808511 0.41088885
vt 0.7714085 0.29591632
vt 0.67487198 0.45728439
vt 0.66415948 0.3794902
vt 0.6601702 0.34239316
vt 0.68224663 0.30350167
vt 0.74878448 0.27703458
vt 0.81923133 0.32164592
vt 0.8312977 0.40716475
vt 0.83152109 0.35425878
vt 0.79688907 0.45115036
vt 0.7982403 0.28306407
vt 0.72613555 0.48012811
vt 0.68341815 0.40935248
vt 0.66836649 0.39935642
vt 0.66617382 0.28321296
vt 0.72406268 0.25868469
vt 0.84905547 0.31181049
vt 0.84812152 0.4220807
vt 0.75824517 0.25834537
vt 0.77789563 0.46166563
vt 0.64348763 0.48126101
vt 0.64201117 0.41311282
vt 0.63404071 0.35413092
vt 0.68114668 0.26890004
vt 0.73053193 0.25175285
vt 0.82178068 0.29813999
vt 0.75064141 0.24910468
vt 0.79858458 0.2689442
vt 0.80224299 0.4810726
vt 0.72879243 0.49460441
vt 0.63037783 0.46820414
vt 0.63274556 0.42325687
vt 0.63362145 0.40815175
vt 0.63340294 0.42120141
vt 0.63400578 0.3521474
vt 0.63243037 0.39086908
vt 0.65025979 0.29818797
vt 0.66486657 0.2579571
vt 0.68678629 0.25189531
vt 0.84844834 0.28188747
vt 0.84268177 0.45686442
vt 0.77271229 0.2491225
vt 0.80092806 0.25030279
vt 0.81112236 0.2538507
vt 0.64971113 0.49516398
vt 0.63241535 0.45551497
vt 0.62837255 0.48135602
vt 0.63279915 0.43031263
vt 0.6323458 0.33743441
vt 0.63351601 0.29597771
vt 0.63245279 0.29116821
vt 0.63284355 0.26255637
vt 0.8490535 0.2627793
vt 0.8508296 0.48186564
vt 0.78966945 0.49521047
vt 0.635243 0.49522001
vt 0.63124287 0.48749655
vt 0.63252842 0.30939996
vt 0.63168776 0.28271472
vt 0.63300461 0.25691932
vt 0.84492081 0.49434131
vt 0.40218195 0.30763221
vt 0.44968888 0.34139132
vt 0.39686498 0.35504758
vt 0.35220513 0.37054545
vt 0.40908 0.30554819
vt 0.38579258 0.43028462
vt 0.35353792 0.31724036
vt 0.43376923 0.30553836
vt 0.40285543 0.30555069
vt 0.45568287 0.39080334
vt 0.2813907 0.37602019
vt 0.33401379 0.35213554
vt 0.36681247 0.30556256
vt 0.45441854 0.31759876
vt 0.40147996 0.30555111
vt 0.48743454 0.3183741
vt 0.43005574 0.44603026
vt 0.32963014 0.48283762
vt 0.39893174 0.30555189
vt 0.35914072 0.30556554
vt 0.43915862 0.30553591
vt 0.4009847 0.30555123
vt 0.40793571 0.49666256
vt 0.25300902 0.4628492
vt 0.35594067 0.30556762
vt 0.4514932 0.30552632
vt 0.47240549 0.30853528
vt 0.46619669 0.30551863
vt 0.47390711 0.30551779
vt 0.48336911 0.30552065
vt 0.49412417 0.30551648
vt 0.5933333 0.9439435
vt 0.65822273 0.94131309
vt 0.5935303 0.96253979
vt 0.55035806 0.94538057
vt 0.63222343 0.96302289
vt 0.55234051 0.96432596
vt 0.68121505 0.9579941
vt 0.52160484 0.94421279
vt 0.68644142 0.93479902
vt 0.51707375 0.96429205
vt 0.7200526 0.93281722
vt 0.50432754 0.95208907
vt 0.73623985 0.95438874
vt 0.73681307 0.93318272
vt 0.50485653 0.84859651
vt 0.52067453 0.85791397
vt 0.5150885 0.87738383
vt 0.5357582 0.84518564
vt 0.52540189 0.86727679
vt 0.54051191 0.86743873
vt 0.53881484 0.82769948
vt 0.5244813 0.89000362
vt 0.5478121 0.83187509
vt 0.55903667 0.84280133
vt 0.54197061 0.88954276
vt 0.56692803 0.87353736
vt 0.55744398 0.89200926
vt 0.53362519 0.9053061
vt 0.57186586 0.84662426
vt 0.55444813 0.90669262
vt 0.56967533 0.87281537
vt 0.56225646 0.8928774
vt 0.56874216 0.90723819
vt 0.53373396 0.92014366
vt 0.57333416 0.84788567
vt 0.57039362 0.8764239
vt 0.56429255 0.89644939
vt 0.56443638 0.91432983
vt 0.54704136 0.93088078
vt 0.57055515 0.911991
vt 0.56756097 0.91735208
vt 0.5639568 0.92513555
vt 0.55296785 0.93287867
vt 0.86039293 0.91814655
vt 0.85927761 0.87584805
vt 0.89133924 0.9226501
vt 0.82577401 0.9328782
vt 0.88931376 0.88415354
vt 0.81648403 0.88658774
vt 0.90367907 0.89426833
vt 0.83354545 0.86557037
vt 0.89187717 0.8837747
vt 0.91339976 0.90818369
vt 0.82512349 0.85897726
vt 0.82552725 0.8514148
vt 0.91269982 0.9035005
vt 0.91115218 0.91951299
vt 0.91740096 0.90881133
vt 0.89477378 0.92647392
vt 0.91557878 0.91821581
vt 0.9139685 0.92083216
vt 0.97084177 0.89262152
vt 0.98342723 0.89066297
vt 0.97099715 0.91899347
vt 0.95800847 0.91014177
vt 0.95082337 0.88333541
vt 0.96104491 0.92557293
vt 0.94924098 0.86700481
vt 0.94607955 0.91823161
vt 0.97806334 0.94001615
vt 0.94882649 0.90439647
vt 0.94335657 0.92653441
vt 0.94863164 0.9053092
vt 0.98597699 0.93667883
vt 0.97153282 0.9521817
vt 0.94147533 0.93375194
vt 0.9876501 0.95422953
vt 0.97167259 0.96576893
vt 0.94300455 0.94138086
vt 0.70978075 0.98048139
vt 0.68961304 0.96073174
vt 0.71528983 0.95826411
vt 0.73565423 0.97002381
vt 0.68349683 0.97541541
vt 0.67022711 0.95821196
vt 0.65640438 0.97060543
vt 0.64632589 0.96610528
vt 0.66884136 0.95841092
vt 0.64356077 0.97994524
vt 0.66996121 0.95814276
vt 0.67012411 0.95809448
vt 0.75474143 0.9354316
vt 0.77437252 0.91260105
vt 0.76659 0.9426592
vt 0.78030688 0.93615258
vt 0.81105345 0.95091254
vt 0.79502428 0.96409899
vt 0.81451625 0.9415431
vt 0.83010572 0.95276409
vt 0.84546244 0.95731097
vt 0.89084738 0.9592914
vt 0.88175869 0.97798574
vt 0.84536475 0.98013031
vt 0.816333 0.95799661
vt 0.61236674 0.8710978
vt 0.5984627 0.86082268
vt 0.62661368 0.86909318
vt 0.60958856 0.88332123
vt 0.59881651 0.86896443
vt 0.60875076 0.88293636
vt 0.61038929 0.8841818
vt 0.59890372 0.87506509
vt 0.59850121 0.88370502
vt 0.62888515 0.88230443
vt 0.60716528 0.88431323
vt 0.62512463 0.90022522
vt 0.59839398 0.89242083
vt 0.61034238 0.8863104
vt 0.63937503 0.89536643
vt 0.60676503 0.8856411
vt 0.60710299 0.88739705
vt 0.63884735 0.91410482
vt 0.60287595 0.89795351
vt 0.64512283 0.89860773
vt 0.62211531 0.91495556
vt 0.6512863 0.90672296
vt 0.64015752 0.93215263
vt 0.59839219 0.9063049
vt 0.64700532 0.91672122
vt 0.63662356 0.93415374
vt 0.60817653 0.91949683
vt 0.62443835 0.92210764
vt 0.64515615 0.92429423
vt 0.61922747 0.92191112
vt 0.61124963 0.92774302
vt 0.69238645 0.90166098
vt 0.71017683 0.87946606
vt 0.73605722 0.89607459
vt 0.69228995 0.88108212
vt 0.73481506 0.8788299
vt 0.72334534 0.86701196
vt 0.7437917 0.88775963
vt 0.75765508 0.87987202
vt 0.67672479 0.83982933
vt 0.65625256 0.83406681
vt 0.66045523 0.82921946
vt 0.65395916 0.81275868
vt 0.68479687 0.82205296
vt 0.64057207 0.83137763
vt 0.69032419 0.82280815
vt 0.64211535 0.84639424
vt 0.68189925 0.83742994
vt 0.6292491 0.84125602
vt 0.68021321 0.83925766
vt 0.64976573 0.86685407
vt 0.67922372 0.8409186
vt 0.65723914 0.84608078
vt 0.66786724 0.8472687
vt 0.65731853 0.83429235
vt 0.66691768 0.85350132
vt 0.66956455 0.84287131
vt 0.66632015 0.83918166
vt 0.66392684 0.86305952
vt 0.6586867 0.87186366
vt 0.74292958 0.98026812
vt 0.7384398 0.94491005
vt 0.75458759 0.92491055
vt 0.92046112 0.97975427
vt 0.92139494 0.96169174
vt 0.94322598 0.96358532
vt 0.94940996 0.97989267
vt 0.89406937 0.96564984
vt 0.67201746 0.89449996
vt 0.67993915 0.88565552
vt 0.67924196 0.88910615
vt 0.66240495 0.87682104
vt 0.68286836 0.88755047
vt 0.66041094 0.90139425
vt 0.66275239 0.90158814
vt 0.64679563 0.88694602
vt 0.66179997 0.90269005
vt 0.65868175 0.87161732
vt 0.64756751 0.89932203
vt 0.63723701 0.88633388
vt 0.6286509 0.88053793
vt 0.85287696 0.83833951
vt 0.90010262 0.83496559
vt 0.86040103 0.85514355
vt 0.84691399 0.85087937
vt 0.88769352 0.86049581
vt 0.85785049 0.86306894
vt 0.86097205 0.8653121
vt 0.86027157 0.86482334
vt 0.86150533 0.86556143
vt 0.86232406 0.86580956
vt 0.86761469 0.86704463
vt 0.88549197 0.87163544
vt 0.99416465 0.9499414
vt 0.99052662 0.97034657
vt 0.97345942 0.99662828
vt 0.87106621 0.94579345
vt 0.84431714 0.94984162
vt 0.8759445 0.927387
vt 0.83143246 0.94674432
vt 0.89820534 0.94587302
vt 0.9154802 0.95584142
vt 0.89605075 0.96490932
vt 0.87892073 0.9506731
vt 0.90265709 0.93477464
vt 0.88784283 0.93551922
vt 0.60566944 0.97950709
vt 0.59778112 0.96956378
vt 0.63472587 0.9758603
vt 0.62315875 0.96674258
vt 0.58634764 0.91044897
vt 0.60155791 0.921803
vt 0.58946669 0.92647099
vt 0.56923306 0.93393356
vt 0.56880671 0.92549026
vt 0.57265633 0.91105735
vt 0.56651163 0.9332177
vt 0.57629919 0.90683877
vt 0.57284731 0.90869755
vt 0.68260771 0.92457217
vt 0.69060034 0.91277629
vt 0.68512094 0.93272436
vt 0.66097587 0.93321067
vt 0.67980039 0.90384299
vt 0.83500141 0.93984854
vt 0.82828516 0.94960731
vt 0.81716347 0.93256456
vt 0.84835994 0.93373412
vt 0.92534971 0.92325759
vt 0.93867731 0.94266874
vt 0.90992486 0.93364698
vt 0.91079462 0.94969469
vt 0.79591888 0.96221125
vt 0.78643221 0.98001355
vt 0.76913494 0.97469747
vt 0.82697523 0.96944255
vt 0.81966823 0.98044926
vt 0.80083632 0.96660537
vt 0.52995366 0.97833896
vt 0.50909895 0.98901832
vt 0.50323683 0.97931308
vt 0.75421363 0.9573682
vt 0.77681243 0.96038717
vt 0.76437175 0.98072767
vt 0.95109946 0.97963351
vt 0.94131219 0.95828044
vt 0.95839977 0.95720708
vt 0.95398337 0.97518516
vt 0.95347995 0.97904062
vt 0.52731115 0.91857511
vt 0.51640725 0.93288469
vt 0.50386924 0.91959906
vt 0.75960153 0.91838717
vt 0.74654919 0.93437421
vt 0.73809308 0.91747439
vt 0.6515829 0.93356162
vt 0.64498854 0.91718185
vt 0.66667461 0.91607803
vt 0.94758618 0.95112407
vt 0.93542862 0.96466488
vt 0.9393236 0.94580805
vt 0.92595977 0.95298266
vt 0.53519481 0.98055184
vt 0.5487715 0.96831167
vt 0.55359763 0.97963822
vt 0.55331975 0.98071468
vt 0.53514832 0.97407234
vt 0.55761242 0.97203249
vt 0.50309551 0.94866687
vt 0.5091241 0.92921418
vt 0.51686275 0.94351286
vt 0.040093414 0.9958989
vt 0.034956474 0.99375427
vt 0.039443128 0.99407041
vt 0.039209291 0.99302399
vt 0.037304252 0.98329586
vt 0.02701964 0.98558545
vt 0.033313956 0.99617231
vt 0.028919399 0.99460262
vt 0.027284738 0.9855451
vt 0.030078128 0.99688703
usemtl Tile_+031_+024_L19_000020_0
f 258/753 278/754 233/755
f 271/419 273/420 272/421
f 266/226 268/227 267/228
f 234/335 233/336 264/337
f 272/421 273/420 274/424
f 250/423 252/427 251/432
f 254/499 261/500 255/501
f 199/516 200/504 247/521
f 261/500 256/514 245/508
f 178/315 260/308 47/313
f 255/501 214/502 254/499
f 232/673 203/674 253/675
f 480/350 172/348 481/353
f 211/301 170/306 206/296
f 193/358 421/370 242/365
f 45/786 436/787 228/788
f 229/399 228/398 482/403
f 223/329 60/328 61/326
f 240/734 204/735 222/736
f 198/297 167/293 169/303
f 199/516 212/522 205/509
f 216/260 218/258 217/247
f 213/510 214/502 205/509
f 167/293 198/297 212/288
f 172/348 210/351 209/354
f 200/504 199/516 205/509
f 241/680 204/678 203/674
f 201/261 202/253 188/246
f 162/287 206/296 208/302
f 207/285 195/281 139/282
f 177/298 211/301 207/285
f 206/296 162/287 207/285
f 193/358 198/369 197/376
f 189/740 191/741 190/742
f 265/451 444/450 257/439
f 249/425 248/429 271/419
f 269/422 249/425 271/419
f 271/419 272/421 269/422
f 144/426 58/435 249/425
f 187/236 188/246 405/240
f 58/232 267/228 408/237
f 58/435 447/436 401/446
f 250/423 274/424 273/420
f 186/440 406/433 250/423
f 186/440 185/441 406/433
f 185/441 186/440 486/460
f 250/423 273/420 271/419
f 444/450 265/451 250/423
f 186/440 445/459 476/470
f 447/436 262/445 248/429
f 207/285 140/276 141/289
f 424/266 166/270 426/275
f 263/447 262/445 276/455
f 188/246 202/253 408/237
f 252/427 243/431 251/432
f 186/440 265/451 445/459
f 271/419 252/427 250/423
f 202/253 217/247 408/237
f 442/491 270/466 279/478
f 271/419 446/437 243/431
f 243/431 252/427 271/419
f 446/437 263/447 243/431
f 477/471 265/451 489/469
f 489/469 257/439 490/485
f 263/447 443/457 243/431
f 270/466 245/467 244/449
f 57/241 175/252 442/259
f 279/254 57/241 442/259
f 57/241 279/254 276/248
f 279/478 263/447 276/455
f 270/466 244/449 443/457
f 244/449 243/431 443/457
f 251/432 244/449 257/439
f 251/432 243/431 244/449
f 278/739 240/734 233/737
f 213/346 205/347 433/339
f 174/684 241/680 173/686
f 241/680 174/684 213/682
f 259/744 241/745 203/746
f 199/263 175/252 218/258
f 216/260 199/263 218/258
f 57/241 408/237 217/247
f 424/266 215/265 202/253
f 175/252 57/241 217/247
f 425/271 216/260 215/265
f 216/260 202/253 215/265
f 199/263 216/260 425/271
f 175/252 247/264 442/259
f 205/509 214/502 200/504
f 441/492 245/467 270/466
f 270/466 442/491 247/498
f 245/508 441/515 200/504
f 175/252 199/263 247/264
f 270/466 247/498 441/492
f 200/504 441/515 247/521
f 246/458 245/467 256/482
f 245/508 200/504 261/500
f 479/526 440/512 493/524
f 261/500 440/512 256/514
f 200/504 255/501 261/500
f 214/502 213/510 174/505
f 200/504 214/502 255/501
f 214/502 174/505 254/499
f 259/744 232/747 494/748
f 439/751 259/744 495/749
f 254/499 174/505 497/511
f 261/500 254/499 499/503
f 440/512 261/500 500/506
f 256/514 440/512 277/525
f 256/514 277/525 478/527
f 246/458 256/482 504/493
f 173/686 259/688 439/691
f 173/686 439/691 496/690
f 238/367 192/362 435/357
f 253/675 417/676 232/673
f 234/756 417/757 258/753
f 234/677 232/673 417/676
f 234/756 258/753 233/755
f 196/344 237/340 264/337
f 417/738 240/734 278/739
f 237/340 196/344 172/348
f 196/344 205/347 220/352
f 234/335 236/338 518/341
f 235/361 209/354 280/356
f 280/356 209/354 210/351
f 238/367 437/390 520/385
f 435/357 434/363 438/368
f 280/356 227/360 235/361
f 433/339 221/343 264/337
f 221/343 196/344 264/337
f 482/403 239/406 525/408
f 192/362 220/352 435/357
f 227/360 192/362 526/372
f 192/362 238/367 521/375
f 224/758 225/759 238/760
f 196/344 210/351 172/348
f 210/351 196/344 220/352
f 417/676 253/675 203/674
f 240/734 417/738 204/735
f 233/336 433/339 264/337
f 264/337 236/338 234/335
f 232/673 234/677 519/679
f 524/373 227/360 527/380
f 518/810 237/811 529/812
f 264/337 237/340 236/338
f 220/352 227/360 280/356
f 220/352 192/362 227/360
f 438/368 428/383 238/367
f 45/405 41/412 531/413
f 533/411 45/405 534/414
f 45/416 239/417 436/418
f 238/760 428/761 224/758
f 437/390 229/399 483/400
f 435/357 438/368 238/367
f 220/352 432/355 435/357
f 220/352 205/347 432/355
f 428/775 229/776 225/777
f 229/399 437/390 225/393
f 228/398 436/409 239/406
f 435/357 432/355 434/363
f 438/792 434/793 430/794
f 432/795 430/794 434/793
f 433/339 233/336 222/342
f 205/347 193/358 432/355
f 242/365 430/371 432/355
f 225/759 224/758 428/761
f 429/387 428/383 430/371
f 431/379 429/387 430/371
f 228/398 40/402 45/405
f 428/383 228/398 229/399
f 428/383 438/368 430/371
f 430/371 242/365 431/379
f 428/383 429/387 228/398
f 420/324 165/319 59/316
f 196/344 221/343 205/347
f 433/339 222/342 213/346
f 204/349 213/346 222/342
f 205/347 221/343 433/339
f 242/365 432/355 193/358
f 205/347 212/364 193/358
f 429/387 431/379 423/392
f 422/772 230/773 231/774
f 429/387 422/397 228/398
f 422/397 40/402 228/398
f 431/379 190/378 423/392
f 275/391 231/395 191/386
f 219/396 231/395 423/392
f 231/395 219/396 191/386
f 422/397 275/391 40/402
f 190/378 219/396 423/392
f 422/397 231/395 275/391
f 231/395 230/401 423/392
f 242/365 190/378 431/379
f 423/392 230/401 422/397
f 190/378 421/370 189/377
f 242/365 421/370 190/378
f 191/769 189/770 193/771
f 421/370 193/358 189/377
f 212/364 198/369 193/358
f 419/307 197/310 198/297
f 168/283 212/288 199/263
f 197/310 419/307 418/309
f 191/386 197/376 275/391
f 420/324 427/318 418/309
f 427/318 420/324 275/325
f 275/325 197/310 427/318
f 191/386 193/358 197/376
f 169/303 419/307 198/297
f 425/271 424/266 171/279
f 163/280 168/283 171/279
f 163/280 171/279 426/275
f 424/266 425/271 215/265
f 162/287 208/302 167/293
f 167/293 208/302 170/306
f 168/283 167/293 212/288
f 423/392 422/397 429/387
f 418/309 427/318 197/310
f 43/330 39/331 275/325
f 275/325 420/324 223/329
f 275/391 39/404 40/402
f 418/309 170/306 226/311
f 420/324 60/328 223/329
f 223/329 43/330 275/325
f 419/307 169/303 418/309
f 47/313 46/321 178/315
f 170/306 208/302 206/296
f 415/278 195/281 207/285
f 164/320 416/314 59/316
f 418/309 226/311 165/319
f 169/303 170/306 418/309
f 177/298 416/314 226/311
f 168/283 163/280 413/292
f 194/274 195/281 415/278
f 166/270 424/266 201/261
f 162/287 415/278 207/285
f 177/298 170/306 211/301
f 140/276 207/285 139/282
f 170/306 177/298 226/311
f 207/285 211/301 206/296
f 179/304 176/312 59/316
f 177/298 207/285 414/294
f 141/289 414/294 207/285
f 201/261 181/257 166/270
f 194/274 166/270 181/257
f 181/257 188/246 183/251
f 194/274 415/278 166/270
f 134/256 137/267 180/269
f 195/281 194/274 137/267
f 194/274 180/269 137/267
f 181/257 180/269 194/274
f 195/281 138/284 139/282
f 184/299 260/308 179/304
f 176/312 178/315 46/321
f 162/287 168/283 413/292
f 219/743 190/742 191/741
f 130/268 135/255 129/262
f 101/238 97/239 393/230
f 389/1 94/2 150/3
f 535/488 281/474 536/487
f 134/256 182/250 152/245
f 148/101 142/122 128/112
f 155/277 397/295 396/290
f 88/462 70/464 132/443
f 90/48 391/35 86/20
f 185/441 392/442 274/424
f 397/143 143/130 151/142
f 400/454 153/444 394/463
f 130/268 128/273 155/277
f 136/235 268/227 393/230
f 147/453 132/443 146/434
f 99/4 150/3 75/7
f 123/475 161/452 537/489
f 389/609 93/610 76/611
f 82/456 71/479 74/480
f 81/10 74/13 72/18
f 391/35 90/48 450/42
f 68/8 67/26 62/22
f 129/70 403/69 412/92
f 125/148 78/121 158/141
f 99/613 93/610 389/609
f 447/436 58/435 276/455
f 149/244 103/249 135/255
f 152/245 136/235 149/244
f 402/430 133/438 144/426
f 100/481 145/448 154/465
f 132/443 147/453 88/462
f 88/462 147/453 91/476
f 393/230 266/226 95/234
f 91/476 147/453 124/461
f 410/100 403/69 411/91
f 98/47 65/55 403/69
f 65/55 77/68 403/69
f 403/69 410/100 412/92
f 126/90 131/110 411/91
f 79/111 148/101 412/92
f 412/92 148/101 129/70
f 131/110 79/111 410/100
f 131/110 410/100 411/91
f 412/92 410/100 79/111
f 77/68 411/91 403/69
f 135/255 103/249 129/262
f 143/130 142/122 148/101
f 409/730 100/731 64/732
f 95/234 101/238 393/230
f 82/456 132/443 70/464
f 100/481 409/490 145/448
f 73/789 80/790 81/791
f 407/428 146/434 132/443
f 68/8 64/17 74/13
f 126/90 411/91 77/68
f 142/122 397/143 155/131
f 53/154 54/155 78/121
f 78/121 131/110 158/141
f 38/162 125/148 156/153
f 125/148 53/154 78/121
f 248/429 249/425 447/436
f 65/55 96/46 77/68
f 267/228 405/240 408/237
f 52/163 56/149 54/155
f 47/313 159/305 48/317
f 122/12 84/15 86/20
f 159/305 184/299 396/290
f 402/430 272/421 407/428
f 406/433 274/424 250/423
f 132/443 402/430 407/428
f 144/426 272/421 402/430
f 274/424 406/433 185/441
f 392/442 146/434 274/424
f 272/421 144/426 269/422
f 159/305 260/308 184/299
f 47/313 260/308 159/305
f 250/423 265/451 186/440
f 407/428 272/421 274/424
f 58/727 401/728 249/729
f 268/227 187/236 399/231
f 400/229 266/226 267/228
f 134/256 135/255 137/267
f 187/236 152/245 182/250
f 182/250 134/256 181/257
f 395/291 396/290 184/299
f 137/267 138/284 195/281
f 447/436 249/425 401/446
f 267/228 187/236 405/240
f 58/435 153/444 400/454
f 58/232 400/229 267/228
f 395/291 140/276 404/286
f 187/236 136/235 152/245
f 98/47 403/69 129/70
f 136/235 187/236 268/227
f 160/233 266/226 400/229
f 145/448 133/438 82/456
f 145/448 394/463 153/444
f 152/245 149/244 134/256
f 130/268 398/272 135/255
f 398/272 137/267 135/255
f 155/277 404/286 140/276
f 135/255 134/256 149/244
f 396/290 395/291 404/286
f 130/268 155/277 140/276
f 396/290 151/300 159/305
f 396/290 404/286 155/277
f 394/463 160/477 400/454
f 266/226 393/230 268/227
f 160/477 394/463 145/448
f 536/487 185/441 539/495
f 185/441 161/452 392/442
f 83/9 150/3 80/6
f 90/48 87/41 457/57
f 390/16 391/35 451/29
f 75/7 390/16 453/21
f 75/7 122/12 390/16
f 80/6 150/3 94/2
f 123/58 89/49 91/34
f 101/238 95/234 64/243
f 149/244 97/239 103/249
f 87/41 89/49 459/59
f 102/11 83/9 80/6
f 86/20 87/41 90/48
f 63/27 98/47 97/40
f 155/131 128/112 142/122
f 92/5 80/6 94/2
f 72/18 73/14 81/10
f 70/464 71/479 82/456
f 68/8 81/10 92/5
f 89/49 123/58 538/73
f 84/15 85/19 86/20
f 71/23 70/33 85/19
f 69/614 75/615 456/616
f 72/18 74/13 71/23
f 92/5 94/2 389/1
f 86/783 390/784 122/785
f 85/19 70/33 88/28
f 100/731 74/733 64/732
f 389/609 76/611 68/612
f 92/5 81/10 80/6
f 63/27 101/32 64/17
f 148/101 79/111 78/121
f 95/234 409/242 64/243
f 62/22 64/17 68/8
f 76/44 93/77 69/62
f 465/36 76/44 466/51
f 466/51 69/62 467/76
f 66/30 68/8 465/36
f 63/27 96/46 65/55
f 66/30 67/26 68/8
f 408/237 405/240 188/246
f 220/352 280/356 210/351
f 424/266 426/275 171/279
f 259/688 173/686 241/680
f 513/366 235/361 516/374
f 240/734 222/736 233/737
f 57/241 276/248 58/232
f 249/425 269/422 144/426
f 188/246 187/236 183/251
f 408/237 57/241 58/232
f 271/419 248/429 446/437
f 276/455 262/445 447/436
f 201/261 188/246 181/257
f 257/439 250/423 251/432
f 257/439 444/450 250/423
f 263/447 248/429 262/445
f 248/429 263/447 446/437
f 279/478 270/466 263/447
f 270/466 443/457 263/447
f 246/458 257/439 244/449
f 244/449 245/467 246/458
f 213/682 204/678 241/680
f 202/253 201/261 424/266
f 217/247 202/253 216/260
f 218/258 175/252 217/247
f 257/439 246/458 491/468
f 259/744 203/746 232/747
f 174/684 173/686 512/687
f 481/353 209/354 514/359
f 204/678 417/676 203/674
f 225/393 437/390 238/367
f 168/283 199/263 171/279
f 199/263 425/271 171/279
f 167/293 170/306 169/303
f 163/280 426/275 166/270
f 167/293 168/283 162/287
f 43/330 223/329 61/326
f 420/324 418/309 165/319
f 59/316 60/328 420/324
f 164/320 59/316 165/319
f 43/330 61/326 51/327
f 177/298 179/304 416/314
f 61/326 60/328 59/316
f 176/312 50/322 59/316
f 50/322 61/326 59/316
f 416/314 179/304 59/316
f 226/311 164/320 165/319
f 162/287 413/292 163/280
f 278/754 258/753 417/757
f 415/278 162/287 163/280
f 166/270 415/278 163/280
f 181/257 183/251 182/250
f 180/269 181/257 134/256
f 141/289 184/299 179/304
f 176/312 260/308 178/315
f 141/332 179/333 177/334
f 46/321 50/322 176/312
f 161/452 124/461 146/434
f 160/233 409/242 95/234
f 49/164 56/149 55/169
f 56/149 49/164 159/156
f 140/276 398/272 130/268
f 158/141 157/139 156/153
f 390/16 86/20 391/35
f 187/236 267/228 399/231
f 154/465 145/448 82/456
f 82/456 74/480 154/465
f 164/320 226/311 416/314
f 144/426 145/448 153/444
f 268/227 399/231 267/228
f 177/694 414/695 141/696
f 95/234 266/226 160/233
f 78/121 56/149 151/142
f 409/490 160/477 145/448
f 150/3 83/9 75/7
f 74/480 100/481 154/465
f 68/8 92/5 389/1
f 72/18 71/23 85/19
f 143/130 397/143 142/122
f 63/27 97/40 101/32
f 148/101 78/121 143/130
f 146/434 407/428 274/424
f 147/453 146/434 124/461
f 145/448 144/426 133/438
f 133/438 132/443 82/456
f 128/273 130/268 129/262
f 129/70 148/101 128/112
f 98/47 129/70 103/56
f 73/14 72/18 102/11
f 126/90 77/68 127/67
f 88/28 91/34 86/20
f 78/121 151/142 143/130
f 260/308 176/312 179/304
f 392/442 161/452 146/434
f 133/438 402/430 132/443
f 153/444 58/435 144/426
f 140/276 395/291 141/289
f 137/267 398/272 140/276
f 140/276 139/282 137/267
f 141/289 395/291 184/299
f 139/282 138/284 137/267
f 182/250 183/251 187/236
f 136/235 393/230 97/239
f 396/290 397/295 151/300
f 78/121 54/155 56/149
f 97/239 149/244 136/235
f 281/474 161/452 185/441
f 161/452 123/475 124/461
f 91/476 124/461 123/475
f 389/1 150/3 99/4
f 97/40 98/47 103/56
f 84/15 83/9 102/11
f 86/20 91/34 87/41
f 91/34 89/49 87/41
f 74/13 81/10 68/8
f 102/11 72/18 85/19
f 85/19 84/15 102/11
f 88/28 86/20 85/19
f 80/6 73/14 102/11
f 122/12 83/9 84/15
f 83/9 122/12 75/7
f 65/55 98/47 63/27
f 79/111 131/110 78/121
f 69/614 93/610 99/613
f 75/615 69/614 99/613
f 62/22 63/27 64/17
f 62/22 350/31 63/27
f 156/153 125/148 158/141
f 159/156 151/142 56/149
f 325/146 324/160 339/138
f 322/185 121/171 120/179
f 114/591 115/592 109/593
f 112/634 111/635 113/636
f 111/635 112/634 19/638
f 115/544 110/545 109/546
f 384/660 16/657 108/654
f 290/552 106/547 105/550
f 108/654 107/656 548/659
f 109/593 388/599 24/596
f 21/598 28/594 24/596
f 550/562 116/556 551/566
f 113/636 382/643 552/640
f 385/559 382/563 386/557
f 387/603 388/599 109/593
f 113/604 388/599 386/606
f 109/546 301/548 387/551
f 388/599 113/604 24/596
f 28/594 109/593 24/596
f 387/551 300/554 386/557
f 117/555 116/556 291/549
f 554/561 117/555 555/565
f 301/548 291/549 387/551
f 382/607 113/604 386/606
f 382/563 385/559 381/568
f 385/559 386/557 300/554
f 116/556 300/554 291/549
f 307/567 385/559 550/562
f 104/645 18/652 558/650
f 16/657 18/652 108/654
f 104/645 108/654 18/652
f 381/568 307/567 560/571
f 552/640 104/645 559/647
f 112/634 113/636 553/637
f 381/648 104/645 382/643
f 381/568 385/559 307/567
f 383/651 381/648 561/653
f 384/660 108/654 564/663
f 14/802 16/803 384/804
f 108/654 383/651 107/656
f 104/645 383/651 108/654
f 107/656 383/651 569/658
f 383/651 104/645 381/648
f 361/65 119/39 118/53
f 315/665 317/666 318/667
f 156/153 369/161 363/167
f 3/215 371/209 302/202
f 344/172 156/153 363/167
f 11/200 297/211 378/187
f 318/213 316/190 315/206
f 362/170 368/145 571/165
f 120/179 7/191 322/185
f 359/79 327/109 355/99
f 326/107 336/88 331/87
f 363/167 121/171 344/172
f 291/549 300/554 387/551
f 388/599 387/603 386/606
f 293/218 292/201 297/211
f 372/176 367/188 365/182
f 354/66 360/78 334/54
f 363/167 364/152 374/158
f 362/170 373/177 332/174
f 355/99 357/120 338/128
f 296/204 312/194 295/189
f 62/22 351/45 349/38
f 316/190 332/174 311/184
f 379/85 347/63 580/95
f 342/89 127/67 359/79
f 370/168 38/162 156/153
f 363/629 369/630 345/631
f 345/631 310/632 363/629
f 343/129 308/119 341/108
f 341/108 342/89 355/99
f 369/621 157/622 345/623
f 157/139 343/129 340/118
f 282/778 367/779 582/780
f 7/191 13/180 322/185
f 26/199 366/192 365/182
f 363/629 310/632 364/633
f 323/175 121/171 305/166
f 121/171 323/175 120/179
f 362/170 313/183 373/177
f 302/202 371/209 365/182
f 304/530 328/531 303/532
f 364/152 325/146 304/137
f 372/176 362/170 572/173
f 362/170 295/189 313/183
f 368/145 332/174 319/178
f 319/671 356/669 368/672
f 356/669 377/670 368/672
f 355/99 338/128 340/118
f 326/697 358/698 357/699
f 336/88 326/107 335/98
f 131/110 343/129 158/141
f 337/147 352/117 325/146
f 326/107 331/87 352/117
f 350/31 349/38 119/39
f 356/669 318/667 317/666
f 334/54 360/78 336/88
f 334/766 335/767 359/768
f 358/140 352/117 337/147
f 332/762 316/763 319/764
f 331/538 330/540 314/536
f 311/184 373/177 313/183
f 294/212 329/193 282/203
f 367/188 372/176 578/186
f 296/204 295/189 292/201
f 357/699 327/700 326/697
f 296/534 303/532 328/531
f 352/117 331/87 328/127
f 325/146 364/152 310/159
f 344/172 121/171 13/180
f 370/715 344/716 37/717
f 341/108 308/119 342/89
f 340/627 339/628 324/625
f 339/138 338/128 337/147
f 334/54 336/88 335/98
f 327/109 335/98 326/107
f 352/701 358/698 326/697
f 335/98 327/109 359/79
f 117/555 289/553 287/558
f 316/190 333/195 315/206
f 319/671 318/667 356/669
f 348/668 317/666 315/665
f 328/531 314/536 296/534
f 316/763 318/765 319/764
f 316/190 311/184 333/195
f 303/219 296/204 292/201
f 312/194 311/184 313/183
f 314/205 312/194 296/204
f 340/627 324/625 157/622
f 308/119 343/129 131/110
f 309/624 157/622 324/625
f 324/625 310/626 309/624
f 306/214 293/218 297/211
f 157/622 309/624 345/623
f 345/623 309/624 310/626
f 304/530 303/532 305/533
f 6/207 306/214 297/211
f 321/220 302/202 294/212
f 321/220 3/215 302/202
f 1/216 297/211 11/200
f 26/199 371/209 3/215
f 120/541 323/537 306/539
f 6/207 297/211 1/216
f 7/191 9/197 13/180
f 120/179 306/214 6/207
f 306/539 323/537 293/535
f 322/185 13/180 121/171
f 9/197 8/208 13/180
f 13/719 37/717 344/716
f 36/721 13/719 32/723
f 115/592 114/591 30/595
f 114/591 28/594 30/595
f 30/595 28/594 298/600
f 111/608 23/605 113/604
f 109/593 28/594 114/591
f 298/600 28/594 27/602
f 105/573 294/574 283/575
f 585/702 285/703 586/704
f 287/707 286/705 585/702
f 289/553 117/555 291/549
f 291/549 301/548 110/545
f 110/545 301/548 109/546
f 106/547 291/549 110/545
f 116/556 385/559 300/554
f 291/549 106/547 290/552
f 110/545 115/544 106/547
f 105/550 106/547 115/544
f 283/711 286/705 288/709
f 556/560 287/558 588/564
f 286/588 283/575 285/586
f 290/552 289/553 291/549
f 288/709 289/712 290/713
f 287/707 289/712 288/709
f 314/205 311/184 312/194
f 591/579 282/577 592/581
f 283/711 290/713 105/714
f 590/589 284/582 593/587
f 284/582 283/575 591/579
f 283/575 284/582 285/586
f 294/574 282/577 283/575
f 312/194 313/183 295/189
f 293/218 303/219 292/201
f 292/201 378/187 297/211
f 333/195 311/184 314/205
f 63/27 350/31 119/39
f 375/84 376/114 596/105
f 66/30 448/75 347/63
f 471/82 448/75 473/61
f 473/61 66/30 474/50
f 62/22 380/37 351/45
f 118/53 349/38 351/45
f 349/38 350/31 62/22
f 62/22 67/26 66/30
f 449/52 351/45 66/30
f 379/85 346/64 347/63
f 66/30 347/63 449/52
f 353/86 346/64 379/85
f 354/66 330/97 331/87
f 354/66 331/87 360/78
f 351/45 449/52 346/64
f 118/53 351/45 346/64
f 346/64 353/86 361/65
f 119/39 349/38 118/53
f 119/39 96/46 63/27
f 119/39 334/54 96/46
f 358/140 337/147 338/128
f 342/89 359/79 355/99
f 340/118 341/108 355/99
f 156/153 157/139 369/161
f 341/108 340/118 343/129
f 127/67 342/89 126/90
f 330/97 354/66 348/96
f 374/158 121/171 363/167
f 365/182 366/192 378/187
f 378/187 366/192 11/200
f 374/158 305/166 121/171
f 304/137 374/158 364/152
f 338/128 339/138 340/118
f 325/146 352/117 304/137
f 352/117 328/127 304/137
f 339/138 337/147 325/146
f 355/99 327/109 357/120
f 26/199 320/210 366/192
f 365/182 371/209 26/199
f 362/170 372/176 365/182
f 332/174 368/145 362/170
f 365/182 367/188 329/193
f 348/543 315/542 330/540
f 317/666 348/668 377/670
f 575/126 379/85 598/135
f 377/670 356/669 317/666
f 354/66 353/86 348/96
f 347/63 375/84 597/94
f 469/123 375/84 475/113
f 354/66 361/65 353/86
f 331/87 336/88 360/78
f 354/66 119/39 361/65
f 131/110 126/90 342/89
f 351/45 380/37 66/30
f 375/84 347/63 448/75
f 115/576 29/578 294/574
f 294/574 105/573 115/576
f 25/642 112/634 562/639
f 20/641 112/634 25/642
f 113/604 23/605 24/596
f 20/641 19/638 112/634
f 558/650 17/646 604/649
f 378/187 362/170 365/182
f 348/96 379/85 377/116
f 315/223 333/224 314/225
f 292/201 295/189 378/187
f 305/533 293/535 323/537
f 332/174 373/177 311/184
f 310/159 324/160 325/146
f 343/129 157/139 158/141
f 362/170 378/187 295/189
f 302/202 365/182 329/193
f 302/202 329/193 294/212
f 367/188 282/203 329/193
f 359/79 127/67 334/54
f 368/145 377/116 576/136
f 346/64 361/65 118/53
f 330/540 315/542 314/536
f 305/166 374/158 304/137
f 293/535 305/533 303/532
f 344/172 370/168 156/153
f 331/538 314/536 328/531
f 334/54 127/67 96/46
f 342/89 308/119 131/110
f 321/584 299/580 31/583
f 30/595 29/597 115/592
f 288/709 290/713 283/711
f 286/705 287/707 288/709
f 346/64 449/52 347/63
f 348/96 353/86 379/85
f 358/140 338/128 357/120
f 96/46 127/67 77/68
f 11/200 366/192 320/210
f 334/54 119/39 354/66
f 66/30 380/37 62/22
f 294/574 299/580 321/584
f 29/578 299/580 294/574
f 45/405 40/402 44/407
f 45/405 44/407 42/410
f 41/412 45/405 42/410
f 55/169 56/149 52/163
f 52/163 54/155 53/154
f 51/327 61/326 50/322
f 159/305 49/323 48/317
f 15/796 384/797 568/798
f 22/601 24/596 23/605
f 21/598 24/596 22/601
f 17/646 18/652 16/657
f 14/800 384/797 15/796
f 13/719 8/726 12/725
f 320/210 10/217 11/200
f 2/222 11/200 10/217
f 5/196 7/191 120/179
f 5/196 120/179 6/207
f 38/718 370/715 37/717
f 321/220 4/221 3/215
f 1/216 11/200 2/222
f 38/718 37/717 34/720
f 37/717 13/719 36/721
f 37/717 36/721 35/722
f 34/720 37/717 35/722
f 33/724 13/719 12/725
f 13/719 33/724 32/723
f 299/580 29/578 31/583
f 27/602 28/594 21/598
f 26/199 3/215 4/221
f 17/646 25/642 603/644
f 450/42 90/48 452/60
f 451/29 391/35 450/42
f 452/60 90/48 458/71
f 453/21 390/16 454/25
f 454/25 390/16 451/29
f 455/24 75/7 453/21
f 456/616 75/615 455/618
f 457/57 87/41 460/72
f 458/71 90/48 457/57
f 459/59 89/49 463/74
f 460/72 87/41 459/59
f 461/620 69/614 462/619
f 462/619 69/614 464/617
f 463/74 89/49 542/81
f 464/617 69/614 456/616
f 465/36 68/8 76/44
f 466/51 76/44 69/62
f 467/76 69/62 461/83
f 468/43 66/30 465/36
f 606/133 470/132 607/150
f 469/123 376/114 375/84
f 470/132 376/114 469/123
f 471/82 375/84 448/75
f 472/103 375/84 471/82
f 473/61 448/75 66/30
f 474/50 66/30 468/43
f 475/113 375/84 472/103
f 476/470 445/459 477/471
f 477/471 445/459 265/451
f 478/527 277/525 479/526
f 479/526 277/525 440/512
f 480/350 237/340 172/348
f 481/353 172/348 209/354
f 482/403 228/398 239/406
f 483/400 229/399 482/403
f 484/388 192/362 522/389
f 485/381 192/362 484/388
f 486/460 186/440 487/473
f 487/473 186/440 476/470
f 488/472 185/441 486/460
f 489/469 265/451 257/439
f 490/485 257/439 511/483
f 491/468 246/458 492/484
f 492/484 246/458 506/494
f 493/524 440/512 503/519
f 494/748 232/747 508/750
f 495/749 259/744 494/748
f 496/752 439/751 495/749
f 497/511 174/505 510/518
f 498/517 254/499 497/511
f 499/503 254/499 507/507
f 500/506 261/500 499/503
f 501/520 254/499 498/517
f 502/513 254/499 501/520
f 503/519 440/512 500/506
f 504/529 256/514 505/528
f 505/528 256/514 478/527
f 506/494 246/458 504/493
f 507/507 254/499 502/513
f 508/685 232/673 517/683
f 509/693 174/684 544/692
f 510/518 174/505 509/523
f 511/483 257/439 491/468
f 512/687 173/686 496/690
f 513/366 209/354 235/361
f 514/359 209/354 513/366
f 515/382 235/361 524/373
f 516/374 235/361 515/382
f 517/683 232/673 528/681
f 518/810 236/813 237/811
f 519/345 234/335 518/341
f 520/385 437/390 530/394
f 521/375 238/367 520/385
f 522/389 192/362 523/384
f 523/384 192/362 521/375
f 524/373 235/361 227/360
f 525/408 239/406 533/411
f 526/372 192/362 485/381
f 527/380 227/360 526/372
f 528/681 232/673 519/679
f 529/812 237/811 480/814
f 530/394 437/390 483/400
f 532/415 45/405 531/413
f 533/411 239/406 45/405
f 534/414 45/405 532/415
f 535/488 161/452 281/474
f 536/487 281/474 185/441
f 537/489 161/452 541/496
f 538/497 123/475 537/489
f 539/495 185/441 540/486
f 540/486 185/441 488/472
f 541/496 161/452 535/488
f 542/81 89/49 543/80
f 543/80 89/49 538/73
f 544/692 174/684 545/689
f 545/689 174/684 512/687
f 546/93 463/74 542/81
f 547/102 463/74 546/93
f 548/805 107/806 567/807
f 549/661 108/654 548/659
f 550/562 385/559 116/556
f 551/566 116/556 554/561
f 552/640 382/643 104/645
f 553/637 113/636 552/640
f 554/561 116/556 117/555
f 555/565 117/555 556/560
f 556/560 117/555 287/558
f 557/569 307/567 550/562
f 558/650 18/652 17/646
f 559/647 104/645 558/650
f 560/571 307/567 584/570
f 561/572 381/568 560/571
f 562/639 112/634 553/637
f 563/655 383/651 561/653
f 564/663 108/654 549/661
f 565/664 384/660 564/663
f 566/808 107/806 570/809
f 567/807 107/806 566/808
f 568/798 384/797 565/801
f 569/658 383/651 563/655
f 570/662 107/656 569/658
f 571/165 368/145 599/157
f 572/173 362/170 571/165
f 573/134 379/85 579/125
f 574/144 379/85 573/134
f 575/126 377/116 379/85
f 576/136 377/116 575/126
f 577/181 372/176 572/173
f 578/186 372/176 577/181
f 579/125 379/85 600/115
f 580/95 347/63 602/104
f 581/106 379/85 580/95
f 582/198 367/188 578/186
f 583/781 282/778 582/780
f 584/570 307/567 557/569
f 585/702 286/705 285/703
f 586/704 285/703 589/706
f 587/708 287/707 585/702
f 588/710 287/707 587/708
f 589/590 285/586 590/589
f 590/589 285/586 284/582
f 591/579 283/575 282/577
f 592/782 282/778 583/781
f 593/587 284/582 594/585
f 594/585 284/582 591/579
f 595/124 376/114 606/133
f 596/105 376/114 595/124
f 597/94 375/84 596/105
f 598/135 379/85 574/144
f 599/157 368/145 601/151
f 600/115 379/85 581/106
f 601/151 368/145 576/136
f 602/104 347/63 597/94
f 603/644 25/642 562/639
f 604/649 17/646 603/644
f 605/799 15/796 568/798
f 606/133 376/114 470/132
usemtl Tile_+031_+024_L19_000020_untextured
