mtllib Tile_+031_+024_L19_000100.mtl
v 6.14122969e+03 5.75000000e+03 8.38975007e+00
v 6.13464568e+03 5.75000000e+03 8.45204363e+00
v 6.13367656e+03 5.75000000e+03 9.14505723e+00
v 6.13410406e+03 5.75000000e+03 1.08358060e+01
v 6.13417524e+03 5.75000000e+03 1.26092382e+01
v 6.13273533e+03 5.75250018e+03 1.16334160e+01
v 6.13395199e+03 5.75000000e+03 1.34171620e+01
v 6.13410895e+03 5.75000000e+03 1.49510618e+01
v 6.13419969e+03 5.75000000e+03 1.58453307e+01
v 6.14419734e+03 5.75000000e+03 8.37633435e+00
v 6.14611991e+03 5.75000000e+03 8.89442010e+00
v 6.13399573e+03 5.75000000e+03 1.72454276e+01
v 6.13290343e+03 5.75000000e+03 2.74188315e+01
v 6.13245918e+03 5.75000000e+03 2.78875899e+01
v 6.13235727e+03 5.75295762e+03 1.64464772e+01
v 6.13404993e+03 5.75000000e+03 2.55515142e+01
v 6.13469204e+03 5.75000000e+03 2.66189861e+01
v 6.13368744e+03 5.75156479e+03 2.65075548e+01
v 6.13199774e+03 5.75105852e+03 2.76587585e+01
v 6.12941823e+03 5.75000000e+03 3.02919311e+01
v 6.12829733e+03 5.75000000e+03 3.08860357e+01
v 6.12971356e+03 5.75000000e+03 2.92187646e+01
v 6.13445280e+03 5.75000000e+03 2.33502086e+01
v 6.13391518e+03 5.75000000e+03 2.40880713e+01
v 6.13421629e+03 5.75000000e+03 1.96946490e+01
v 6.12751915e+03 5.76083312e+03 2.10894410e+01
v 6.12846714e+03 5.75975329e+03 2.32916509e+01
v 6.12504227e+03 5.76506994e+03 1.99112627e+01
v 6.12647747e+03 5.76281750e+03 2.00278282e+01
v 6.13120361e+03 5.75494332e+03 2.06166771e+01
v 6.13269871e+03 5.75252568e+03 2.01576461e+01
v 6.12929113e+03 5.75934224e+03 1.38341794e+01
v 6.12856314e+03 5.75934264e+03 1.63415110e+01
v 6.13074190e+03 5.75634507e+03 2.33208632e+01
v 6.13085598e+03 5.75625777e+03 1.82840443e+01
v 6.13081029e+03 5.75740977e+03 1.89548904e+01
v 6.13087442e+03 5.75698450e+03 2.15679518e+01
v 6.12866970e+03 5.75926663e+03 2.05427169e+01
v 6.13016610e+03 5.75850998e+03 1.93325163e+01
v 6.12937376e+03 5.75932850e+03 2.08647192e+01
v 6.12925304e+03 5.75935759e+03 1.75874034e+01
v 6.12706719e+03 5.76143344e+03 1.75272346e+01
v 6.13119879e+03 5.75494684e+03 1.57842147e+01
v 6.13058850e+03 5.75791185e+03 1.60495044e+01
v 6.12572147e+03 5.76415144e+03 1.54680804e+01
v 6.12723259e+03 5.76116128e+03 1.36711326e+01
v 6.12594020e+03 5.76375132e+03 1.16809529e+01
v 6.12838857e+03 5.75966172e+03 1.21412610e+01
v 6.13082893e+03 5.75303229e+03 2.89857858e+01
v 6.13045409e+03 5.75328758e+03 2.78747057e+01
v 6.12668248e+03 5.75000000e+03 3.07265864e+01
v 6.12503569e+03 5.75185890e+03 3.09743150e+01
v 6.12869351e+03 5.75136555e+03 2.92337104e+01
v 6.12736971e+03 5.75856349e+03 2.77189798e+01
v 6.13087550e+03 5.75624811e+03 2.65870984e+01
v 6.12966732e+03 5.75210857e+03 2.89390109e+01
v 6.13077735e+03 5.75249954e+03 2.81928827e+01
v 6.12625913e+03 5.76414915e+03 2.97457145e+01
v 6.12585976e+03 5.76377426e+03 2.75790389e+01
v 6.12481339e+03 5.76672493e+03 2.97150241e+01
v 6.12812128e+03 5.76062425e+03 2.64661091e+01
v 6.12617225e+03 5.76069646e+03 2.75835154e+01
v 6.12548625e+03 5.76442562e+03 2.59945805e+01
v 6.13011065e+03 5.75842584e+03 2.38539834e+01
v 6.13102518e+03 5.75718246e+03 2.33286551e+01
v 6.12986927e+03 5.75056075e+03 2.98856064e+01
v 6.13150429e+03 5.75151794e+03 2.85972859e+01
v 6.13001474e+03 5.75436734e+03 2.89964153e+01
v 6.12513372e+03 5.75750721e+03 2.90696951e+01
v 6.12649176e+03 5.75514514e+03 2.91395467e+01
v 6.12886995e+03 5.75499012e+03 2.78905302e+01
v 6.12998600e+03 5.75459839e+03 2.74741842e+01
v 6.12745940e+03 5.75333765e+03 2.91315528e+01
v 6.12992594e+03 5.75693569e+03 2.51339627e+01
v 6.12587622e+03 5.76429673e+03 2.88040675e+01
v 6.12889625e+03 5.75874502e+03 2.39453532e+01
v 6.12938991e+03 5.75730687e+03 2.33264136e+01
v 6.12925469e+03 5.75748305e+03 2.46488757e+01
v 6.12509479e+03 5.76275937e+03 2.77264369e+01
v 6.12990988e+03 5.75711948e+03 2.33974036e+01
v 6.13074817e+03 5.75584047e+03 2.37102317e+01
v 6.13247281e+03 5.75346842e+03 2.62966209e+01
v 6.12777027e+03 5.75816679e+03 2.90029434e+01
v 6.12856169e+03 5.75687193e+03 2.88705841e+01
v 6.12488188e+03 5.75000000e+03 3.07103543e+01
v 6.13134015e+03 5.75078613e+03 2.87028348e+01
v 6.13390210e+03 5.75000000e+03 2.07375031e+01
v 6.13277221e+03 5.75000000e+03 2.86839692e+01
v 6.13264458e+03 5.75000000e+03 2.90628004e+01
v 6.13232990e+03 5.75044598e+03 2.90092899e+01
v 6.12647118e+03 5.76341969e+03 2.66477779e+01
v 6.13015718e+03 5.75841403e+03 2.17530096e+01
v 6.12869023e+03 5.75929274e+03 1.33467761e+01
v 6.12961347e+03 5.75941729e+03 1.26034028e+01
v 6.12597495e+03 5.76398672e+03 1.00347934e+01
v 6.14009544e+03 5.75748900e+03 8.49780041e+00
v 6.14135939e+03 5.75689252e+03 8.91643685e+00
v 6.12514995e+03 5.76328042e+03 3.01918831e+01
v 6.12854610e+03 5.75645225e+03 2.78700868e+01
v 6.12550380e+03 5.76442223e+03 2.31594660e+01
v 6.13158527e+03 5.75375262e+03 2.43031956e+01
v 6.13158878e+03 5.75394289e+03 1.34205158e+01
v 6.12971766e+03 5.75923633e+03 2.36026215e+01
v 6.13091760e+03 5.75000000e+03 2.89741460e+01
v 6.13275698e+03 5.75229203e+03 2.39074851e+01
v 6.13344847e+03 5.75159257e+03 2.32161743e+01
v 6.13063440e+03 5.77120395e+03 8.33207899e+00
v 6.13142039e+03 5.77183918e+03 9.30491089e+00
v 6.13135558e+03 5.77028670e+03 8.59331234e+00
v 6.13099787e+03 5.76948268e+03 8.88274956e+00
v 6.13028418e+03 5.77064285e+03 9.47176607e+00
v 6.12936981e+03 5.77123025e+03 9.30619087e+00
v 6.12916644e+03 5.76900738e+03 8.30794490e+00
v 6.13237319e+03 5.77002273e+03 9.01552401e+00
v 6.13565416e+03 5.76840796e+03 8.42602218e+00
v 6.13335724e+03 5.77222122e+03 8.45443939e+00
v 6.13339997e+03 5.77075856e+03 8.74842450e+00
v 6.13566362e+03 5.77315544e+03 8.54825084e+00
v 6.14200046e+03 5.76962230e+03 8.53919879e+00
v 6.13347699e+03 5.76712196e+03 8.41092462e+00
v 6.13440532e+03 5.76667922e+03 8.90418392e+00
v 6.13510100e+03 5.76508913e+03 8.89739667e+00
v 6.13305879e+03 5.76824776e+03 8.28575152e+00
v 6.12769179e+03 5.76075070e+03 8.58938330e+00
v 6.13145699e+03 5.76326189e+03 8.32302452e+00
v 6.12760956e+03 5.77078176e+03 8.16342778e+00
v 6.12946851e+03 5.75921002e+03 8.46899253e+00
v 6.13599961e+03 5.76089948e+03 8.55404592e+00
v 6.13333341e+03 5.76072671e+03 8.45829740e+00
v 6.13192014e+03 5.76682097e+03 8.55235231e+00
v 6.13538228e+03 5.76683985e+03 9.06389828e+00
v 6.13709453e+03 5.76567929e+03 8.58420784e+00
v 6.14193941e+03 5.75435092e+03 9.31687352e+00
v 6.14173692e+03 5.75241765e+03 8.69885853e+00
v 6.14269089e+03 5.75221078e+03 8.37362680e+00
v 6.14350521e+03 5.75422311e+03 9.02970220e+00
v 6.14519000e+03 5.75409669e+03 8.45380559e+00
v 6.14553788e+03 5.75216631e+03 8.63141829e+00
v 6.14160243e+03 5.75327724e+03 8.39740304e+00
v 6.14681052e+03 5.76836351e+03 8.37296436e+00
v 6.14020367e+03 5.75601697e+03 8.40516432e+00
v 6.14230811e+03 5.75591897e+03 9.55100151e+00
v 6.13921898e+03 5.76299350e+03 8.59916199e+00
v 6.13804708e+03 5.75729498e+03 8.73066763e+00
v 6.13816241e+03 5.75873260e+03 8.49503271e+00
v 6.14071446e+03 5.75303834e+03 8.57326294e+00
v 6.13698747e+03 5.75597876e+03 8.29154341e+00
v 6.14095025e+03 5.75900819e+03 8.90191956e+00
v 6.14120207e+03 5.76015086e+03 8.52357916e+00
v 6.14718613e+03 5.75996940e+03 8.59228275e+00
v 6.14561953e+03 5.75852153e+03 8.65206883e+00
v 6.14375254e+03 5.75465965e+03 8.59732959e+00
v 6.14262592e+03 5.75672758e+03 8.58212877e+00
v 6.14854825e+03 5.75000000e+03 8.56653469e+00
v 6.13636855e+03 5.76278737e+03 8.32986938e+00
v 6.13451301e+03 5.76412337e+03 8.29969644e+00
v 6.13955141e+03 5.76067184e+03 8.96293514e+00
v 6.13849072e+03 5.76088785e+03 8.43509175e+00
v 6.13735054e+03 5.76174466e+03 8.72874402e+00
v 6.13899580e+03 5.75946534e+03 9.22882339e+00
v 6.13741623e+03 5.76047430e+03 8.40508108e+00
v 6.13433448e+03 5.75577987e+03 8.53117999e+00
v 6.13102444e+03 5.75559469e+03 8.54834436e+00
v 6.12928451e+03 5.75786096e+03 8.69105578e+00
v 6.13182238e+03 5.75423515e+03 8.49664842e+00
v 6.12810385e+03 5.76381532e+03 8.45343530e+00
v 6.12870339e+03 5.76650747e+03 8.50393957e+00
v 6.12834834e+03 5.76893722e+03 8.37084444e+00
v 6.13220980e+03 5.76894069e+03 8.56855638e+00
v 6.12745870e+03 5.76051747e+03 9.47003323e+00
v 6.12553947e+03 5.76578058e+03 8.60178066e+00
v 6.12481727e+03 5.76609713e+03 9.62922093e+00
v 6.12645111e+03 5.76631785e+03 8.43564188e+00
v 6.12593591e+03 5.76941608e+03 8.32798639e+00
v 6.12637350e+03 5.76465631e+03 8.50754224e+00
v 6.12707062e+03 5.76355611e+03 8.71681996e+00
v 6.12622762e+03 5.76296379e+03 9.29067645e+00
v 6.12746306e+03 5.76444031e+03 7.93868825e+00
v 6.12516822e+03 5.76524301e+03 9.43185672e+00
v 6.12628443e+03 5.76445285e+03 9.29544402e+00
v 6.12481035e+03 5.76715282e+03 8.27013340e+00
v 6.12734746e+03 5.76960045e+03 8.45737847e+00
v 6.13280992e+03 5.75230569e+03 8.89585818e+00
v 6.13134085e+03 5.75339701e+03 9.40712172e+00
v 6.13335840e+03 5.75040130e+03 9.30605145e+00
v 6.12959912e+03 5.77232708e+03 9.45129143e+00
v 6.13115847e+03 5.75454750e+03 9.61721723e+00
v 6.15547831e+03 5.76045166e+03 8.36456773e+00
v 6.15619905e+03 5.76953073e+03 8.65645527e+00
v 6.15616661e+03 5.76406033e+03 8.44127929e+00
v 6.15313921e+03 5.77129515e+03 8.38200064e+00
v 6.15059778e+03 5.76706794e+03 8.30249793e+00
v 6.14532236e+03 5.77490415e+03 8.27304926e+00
v 6.15059705e+03 5.76971382e+03 8.43674496e+00
v 6.15061938e+03 5.75831391e+03 8.42806740e+00
v 6.15376582e+03 5.75500671e+03 8.39131232e+00
v 6.15055234e+03 5.75000000e+03 8.57462108e+00
v 6.15399020e+03 5.75000000e+03 8.50426235e+00
v 6.15461671e+03 5.77197982e+03 8.59212305e+00
v 6.14768543e+03 5.75000000e+03 8.43131371e+00
v 6.13138673e+03 5.75379922e+03 9.95431112e+00
v 6.13129007e+03 5.75357040e+03 9.77435361e+00
v 6.13148719e+03 5.75380073e+03 1.02618775e+01
v 6.13125673e+03 5.75461252e+03 1.10392754e+01
v 6.13145774e+03 5.75469325e+03 1.25736163e+01
v 6.13068497e+03 5.75478216e+03 1.02358361e+01
v 6.12951448e+03 5.75911990e+03 1.13223566e+01
v 6.12857759e+03 5.75895578e+03 1.02537342e+01
v 6.12962225e+03 5.75712135e+03 9.60269867e+00
v 6.13066278e+03 5.75587085e+03 1.06942768e+01
v 6.13078483e+03 5.75742124e+03 1.15316967e+01
v 6.12488958e+03 5.76701412e+03 1.08304824e+01
v 6.12612879e+03 5.76484563e+03 1.02514498e+01
v 6.12636122e+03 5.76449960e+03 1.09970795e+01
v 6.12690652e+03 5.76795558e+03 8.75906468e+00
v 6.12770247e+03 5.76884727e+03 9.36303383e+00
v 6.13081140e+03 5.75725440e+03 1.32844903e+01
v 6.15579250e+03 5.77102909e+03 1.00188435e+01
v 6.15642049e+03 5.76934758e+03 1.05188450e+01
v 6.15509310e+03 5.77165144e+03 9.78857967e+00
v 6.15631788e+03 5.77079873e+03 1.08624803e+01
v 6.15646138e+03 5.77142066e+03 1.42326628e+01
v 6.13103025e+03 5.75623443e+03 1.25098860e+01
v 6.13080977e+03 5.75577324e+03 1.33990746e+01
v 6.15643969e+03 5.77947779e+03 1.28094327e+01
v 6.15597610e+03 5.77194985e+03 1.24989998e+01
v 6.15056703e+03 5.78133696e+03 9.94687011e+00
v 6.15110712e+03 5.78030696e+03 1.01553284e+01
v 6.15628234e+03 5.77878690e+03 1.14654049e+01
v 6.15495240e+03 5.78098773e+03 1.27965190e+01
v 6.15498582e+03 5.77902449e+03 1.25337600e+01
v 6.15601000e+03 5.78118371e+03 1.36927592e+01
v 6.15648358e+03 5.77998860e+03 1.33869650e+01
v 6.13653682e+03 5.77845910e+03 8.44342358e+00
v 6.14733642e+03 5.77993113e+03 8.30838578e+00
v 6.12524600e+03 5.77996812e+03 8.32958492e+00
v 6.15297126e+03 5.77585599e+03 1.00620180e+01
v 6.15163367e+03 5.77803798e+03 9.89221290e+00
v 6.15389233e+03 5.77695106e+03 9.98641722e+00
v 6.13242410e+03 5.77240899e+03 9.40792600e+00
v 6.12724007e+03 5.78144140e+03 9.07854320e+00
v 6.12969457e+03 5.77473349e+03 9.15278173e+00
v 6.13181130e+03 5.77339408e+03 8.36130430e+00
v 6.15441291e+03 5.77329181e+03 9.55502729e+00
v 6.15237793e+03 5.77568558e+03 9.38930555e+00
v 6.14947375e+03 5.78065394e+03 8.63777969e+00
v 6.15067571e+03 5.77878070e+03 8.62566035e+00
v 6.14984357e+03 5.77820036e+03 8.67928300e+00
v 6.15447021e+03 5.77426967e+03 8.70179723e+00
v 6.15489787e+03 5.77543887e+03 9.12334195e+00
v 6.15522203e+03 5.77494547e+03 9.14016347e+00
v 6.15177104e+03 5.77674097e+03 9.60402226e+00
v 6.12908519e+03 5.77379427e+03 8.34780287e+00
v 6.13058941e+03 5.77248514e+03 8.19974027e+00
v 6.15177285e+03 5.77869950e+03 1.02924823e+01
v 6.15082019e+03 5.77898373e+03 9.68276020e+00
v 6.15613553e+03 5.77461763e+03 1.01856761e+01
v 6.12881807e+03 5.78080587e+03 8.41464044e+00
v 6.15431921e+03 5.77619645e+03 1.02622838e+01
v 6.15496299e+03 5.77921800e+03 1.07453752e+01
v 6.15621570e+03 5.77652169e+03 9.72362136e+00
v 6.15555935e+03 5.77632243e+03 1.00024006e+01
v 6.15491584e+03 5.77414812e+03 1.03679338e+01
v 6.15636297e+03 5.77343584e+03 1.01183587e+01
v 6.15431355e+03 5.77973824e+03 1.20866771e+01
v 6.14918995e+03 5.78148289e+03 9.28477506e+00
v 6.12653323e+03 5.77266245e+03 8.44844705e+00
v 6.13949456e+03 5.77965653e+03 8.36600475e+00
v 6.15486773e+03 5.78033647e+03 1.06906182e+01
v 6.15341688e+03 5.77521639e+03 8.43454833e+00
v 6.13022801e+03 5.77585598e+03 9.37389408e+00
v 6.12797807e+03 5.77425089e+03 9.27488557e+00
v 6.12899228e+03 5.77274823e+03 9.56208281e+00
v 6.12633206e+03 5.77700052e+03 8.58086289e+00
v 6.12740185e+03 5.77575503e+03 9.12043057e+00
v 6.12548188e+03 5.77890470e+03 8.35742864e+00
v 6.13179858e+03 5.75257783e+03 2.72015905e+01
v 6.12789913e+03 5.75664834e+03 2.90185729e+01
v 6.12691442e+03 5.76144711e+03 2.47241923e+01
v 6.12616280e+03 5.75000000e+03 3.10759115e+01
v 6.13169834e+03 5.75442740e+03 2.33435933e+01
v 6.12770217e+03 5.76058563e+03 2.38252087e+01
v 6.13062551e+03 5.75696047e+03 2.37733452e+01
v 6.13264701e+03 5.75256577e+03 2.19208439e+01
v 6.13159587e+03 5.75379121e+03 2.13041432e+01
v 6.12708064e+03 5.76213981e+03 2.33855341e+01
v 6.12684858e+03 5.77863215e+03 8.17901228e+00
v 6.12622978e+03 5.78016488e+03 9.02962876e+00
v 6.13161905e+03 5.77500121e+03 8.47255712e+00
v 6.13007283e+03 5.77727691e+03 8.35458051e+00
v 6.12887989e+03 5.77344326e+03 9.34443568e+00
v 6.12840764e+03 5.77607563e+03 9.18867643e+00
v 6.12796838e+03 5.77566513e+03 8.68609800e+00
v 6.12821926e+03 5.77784569e+03 8.40045964e+00
v 6.14471096e+03 5.77850538e+03 8.31692284e+00
v 6.14574753e+03 5.77912857e+03 8.56221439e+00
v 6.12736234e+03 5.77671666e+03 8.25707030e+00
v 6.15186544e+03 5.77587657e+03 8.97386443e+00
v 6.15067342e+03 5.77424527e+03 8.37430893e+00
v 6.15390648e+03 5.77537340e+03 9.77327999e+00
v 6.15157151e+03 5.77710067e+03 8.64446028e+00
v 6.15303431e+03 5.77885800e+03 1.01863164e+01
v 6.15513270e+03 5.77782916e+03 9.91702224e+00
v 6.15520178e+03 5.77686174e+03 1.04955332e+01
v 6.15392642e+03 5.77977689e+03 9.81541604e+00
v 6.15519886e+03 5.78124304e+03 1.12872933e+01
v 6.15603297e+03 5.77249921e+03 1.02007593e+01
v 6.15625268e+03 5.77211863e+03 1.35570554e+01
v 6.12475000e+03 5.75018880e+03 3.06915423e+01
v 6.12475000e+03 5.75000000e+03 3.06340701e+01
v 6.12475000e+03 5.76532365e+03 1.65232983e+01
v 6.12475000e+03 5.76536236e+03 1.79731319e+01
v 6.12475000e+03 5.76564352e+03 2.31178990e+01
v 6.12475000e+03 5.76563876e+03 2.18609319e+01
v 6.12475000e+03 5.76563461e+03 2.60950559e+01
v 6.12475000e+03 5.76565142e+03 2.42218338e+01
v 6.12475000e+03 5.76533093e+03 2.71016269e+01
v 6.12475000e+03 5.76543819e+03 2.35511575e+01
v 6.12475000e+03 5.76666262e+03 2.97339924e+01
v 6.12475000e+03 5.76682673e+03 2.97167388e+01
v 6.12475000e+03 5.76274582e+03 2.81405733e+01
v 6.12475000e+03 5.76308750e+03 2.84082184e+01
v 6.12475000e+03 5.76254613e+03 2.79544044e+01
v 6.12475000e+03 5.76305497e+03 2.96489965e+01
v 6.12475000e+03 5.76544132e+03 2.81707737e+01
v 6.12475000e+03 5.76664226e+03 2.95147707e+01
v 6.12475000e+03 5.76307175e+03 3.04101131e+01
v 6.12475000e+03 5.76351762e+03 3.02151328e+01
v 6.12475000e+03 5.76438682e+03 2.99978086e+01
v 6.12475000e+03 5.76335426e+03 3.02002127e+01
v 6.12475000e+03 5.75789277e+03 2.91617880e+01
v 6.12475000e+03 5.75729846e+03 2.93420595e+01
v 6.12475000e+03 5.76072189e+03 2.83350403e+01
v 6.12475000e+03 5.75481770e+03 3.01238063e+01
v 6.12475000e+03 5.75554208e+03 2.99276096e+01
v 6.12475000e+03 5.75232761e+03 3.09723942e+01
v 6.12475000e+03 5.75023595e+03 3.07130605e+01
v 6.12475000e+03 5.75216885e+03 3.09549975e+01
v 6.12475000e+03 5.76570164e+03 1.54093361e+01
v 6.12475000e+03 5.76713333e+03 1.09190034e+01
v 6.12475000e+03 5.76707217e+03 1.07091305e+01
v 6.12475000e+03 5.76542672e+03 1.40146608e+01
v 6.12475000e+03 5.76568636e+03 1.18307014e+01
v 6.12475000e+03 5.76707951e+03 1.09501439e+01
v 6.12475000e+03 5.76619758e+03 9.65785452e+00
v 6.12475000e+03 5.76614756e+03 9.57966700e+00
v 6.12475000e+03 5.76539244e+03 1.27665483e+01
v 6.12475000e+03 5.76710096e+03 8.35083081e+00
v 6.12475000e+03 5.76624400e+03 8.91103978e+00
v 6.12475000e+03 5.76885883e+03 8.37448131e+00
v 6.12475000e+03 5.76722236e+03 8.27825587e+00
v 6.12475000e+03 5.77025468e+03 8.39411469e+00
v 6.12475000e+03 5.76556033e+03 1.98803049e+01
v 6.12475000e+03 5.76677417e+03 2.96412888e+01
v 6.12475000e+03 5.77150407e+03 8.35920215e+00
v 6.12475000e+03 5.78085156e+03 8.22622156e+00
v 6.12475000e+03 5.78027874e+03 8.33355629e+00
v 6.12475000e+03 5.77418786e+03 8.13689612e+00
v 6.12475000e+03 5.77247984e+03 8.48737794e+00
v 6.12475000e+03 5.77428369e+03 8.14989372e+00
v 6.12475000e+03 5.77965305e+03 8.74437618e+00
v 6.12475000e+03 5.77917333e+03 8.56846538e+00
v 6.12475000e+03 5.78013903e+03 8.65421036e+00
v 6.12475000e+03 5.77435943e+03 8.14379686e+00
v 6.12475000e+03 5.77700510e+03 8.34481274e+00
v 6.12475000e+03 5.77814191e+03 8.28707733e+00
v 6.12475000e+03 5.77882537e+03 8.36686832e+00
v 6.15650000e+03 5.77061617e+03 1.36647605e+01
v 6.15650000e+03 5.77114958e+03 1.27347386e+01
v 6.15650000e+03 5.77156828e+03 1.18806678e+01
v 6.15650000e+03 5.76393508e+03 8.44273828e+00
v 6.15650000e+03 5.76415245e+03 8.47014194e+00
v 6.15650000e+03 5.75217519e+03 8.35649500e+00
v 6.15650000e+03 5.75703140e+03 8.35317320e+00
v 6.15650000e+03 5.77138502e+03 1.42384896e+01
v 6.15650000e+03 5.77142338e+03 1.42473443e+01
v 6.15650000e+03 5.77119260e+03 1.41984535e+01
v 6.15650000e+03 5.76932116e+03 1.05103983e+01
v 6.15650000e+03 5.76917267e+03 1.03119544e+01
v 6.15650000e+03 5.76942325e+03 1.05758334e+01
v 6.15650000e+03 5.77071289e+03 1.09232053e+01
v 6.15650000e+03 5.77089560e+03 1.09612345e+01
v 6.15650000e+03 5.77111483e+03 1.07209603e+01
v 6.15650000e+03 5.76925827e+03 9.70318089e+00
v 6.15650000e+03 5.76902553e+03 9.13147890e+00
v 6.15650000e+03 5.75000000e+03 8.40925676e+00
v 6.15650000e+03 5.76444990e+03 8.48877366e+00
v 6.15650000e+03 5.76285184e+03 8.42805762e+00
v 6.15650000e+03 5.75883449e+03 8.35960093e+00
v 6.15650000e+03 5.76906235e+03 8.86120313e+00
v 6.15650000e+03 5.76901425e+03 8.66568026e+00
v 6.15650000e+03 5.77248506e+03 1.31805850e+01
v 6.15650000e+03 5.77247721e+03 1.26094515e+01
v 6.15650000e+03 5.77947604e+03 1.27960489e+01
v 6.15650000e+03 5.77949167e+03 1.28089177e+01
v 6.15650000e+03 5.77241567e+03 1.36064571e+01
v 6.15650000e+03 5.77878858e+03 1.14282043e+01
v 6.15650000e+03 5.77842579e+03 1.10912017e+01
v 6.15650000e+03 5.77998831e+03 1.33821375e+01
v 6.15650000e+03 5.77999413e+03 1.33887493e+01
v 6.15650000e+03 5.77146451e+03 1.42232882e+01
v 6.15650000e+03 5.78006704e+03 1.33868169e+01
v 6.15650000e+03 5.77893589e+03 1.15393865e+01
v 6.15650000e+03 5.77944627e+03 1.26688374e+01
v 6.15650000e+03 5.78000918e+03 1.33889594e+01
v 6.15650000e+03 5.77155317e+03 1.41828235e+01
v 6.15650000e+03 5.77221100e+03 1.20248869e+01
v 6.15650000e+03 5.77503676e+03 9.99066890e+00
v 6.15650000e+03 5.77451001e+03 1.02468217e+01
v 6.15650000e+03 5.77150845e+03 1.04657877e+01
v 6.15650000e+03 5.77267340e+03 1.06186603e+01
v 6.15650000e+03 5.77219971e+03 1.04816535e+01
v 6.15650000e+03 5.77311000e+03 1.02678598e+01
v 6.15650000e+03 5.77354655e+03 1.01556520e+01
v 6.15650000e+03 5.77541947e+03 9.56466170e+00
v 6.15650000e+03 5.77748390e+03 9.93240129e+00
v 6.15650000e+03 5.77675806e+03 9.78808909e+00
v 6.15650000e+03 5.77618443e+03 9.72516586e+00
v 6.15650000e+03 5.77556346e+03 9.58598144e+00
v 6.12902780e+03 5.78150000e+03 8.39957016e+00
v 6.12819254e+03 5.78150000e+03 8.36249909e+00
v 6.15626341e+03 5.78150000e+03 1.36124797e+01
v 6.15561791e+03 5.78150000e+03 1.11072154e+01
v 6.15568104e+03 5.78150000e+03 1.16015772e+01
v 6.15538688e+03 5.78150000e+03 1.25621010e+01
v 6.15534397e+03 5.78150000e+03 1.30607797e+01
v 6.15586817e+03 5.78150000e+03 1.35199292e+01
v 6.15490399e+03 5.78150000e+03 1.08408289e+01
v 6.15474140e+03 5.78150000e+03 1.05833563e+01
v 6.15037961e+03 5.78150000e+03 9.92349507e+00
v 6.15064340e+03 5.78150000e+03 9.98002915e+00
v 6.14903783e+03 5.78150000e+03 8.56604354e+00
v 6.14918022e+03 5.78150000e+03 9.27874551e+00
v 6.14918637e+03 5.78150000e+03 9.29085139e+00
v 6.15155776e+03 5.78150000e+03 9.78512710e+00
v 6.15230219e+03 5.78150000e+03 9.69607218e+00
v 6.15256503e+03 5.78150000e+03 9.65339695e+00
v 6.15309549e+03 5.78150000e+03 1.01823996e+01
v 6.15328276e+03 5.78150000e+03 1.04385001e+01
v 6.14859704e+03 5.78150000e+03 8.55361927e+00
v 6.14363821e+03 5.78150000e+03 8.40048537e+00
v 6.14515401e+03 5.78150000e+03 8.26942947e+00
v 6.14745869e+03 5.78150000e+03 8.32022728e+00
v 6.14727722e+03 5.78150000e+03 8.37012096e+00
v 6.13456797e+03 5.78150000e+03 8.38499800e+00
v 6.13688413e+03 5.78150000e+03 8.29587530e+00
v 6.12723914e+03 5.78150000e+03 9.03741627e+00
v 6.12719219e+03 5.78150000e+03 9.06634891e+00
v 6.14004613e+03 5.78150000e+03 8.30098201e+00
v 6.14283916e+03 5.78150000e+03 8.25593573e+00
v 6.13882026e+03 5.78150000e+03 8.28261674e+00
v 6.12649207e+03 5.78150000e+03 8.95909140e+00
v 6.15356519e+03 5.78150000e+03 1.04755948e+01
v 6.12480490e+03 5.78150000e+03 8.42719475e+00
v 6.12475000e+03 5.78150000e+03 8.39091897e+00
v 6.15650000e+03 5.78150000e+03 1.35117757e+01
vt 0.030148111 0.75935245
vt 0.028926136 0.73339057
vt 0.045956504 0.73001522
vt 0.065340228 0.76230329
vt 0.015899006 0.75096077
vt 0.039810639 0.71619451
vt 0.055959359 0.72024173
vt 0.037268214 0.7849369
vt 0.0045174696 0.77240872
vt 0.10835121 0.71157861
vt 0.022115167 0.80776614
vt 0.049701985 0.79886007
vt 0.0035732705 0.77159804
vt 0.072590485 0.80136395
vt 0.059806585 0.80027121
vt 0.0035620036 0.75820279
vt 0.0035747827 0.77349555
vt 0.0035818738 0.79906464
vt 0.0495038 0.6723578
vt 0.11560311 0.76718503
vt 0.044170074 0.81063855
vt 0.0035886948 0.82087469
vt 0.077258788 0.64827657
vt 0.15610637 0.72502398
vt 0.10120203 0.80877596
vt 0.048274964 0.82909793
vt 0.074374184 0.62719631
vt 0.13765593 0.67195553
vt 0.13993222 0.77188128
vt 0.12013955 0.80030417
vt 0.090049125 0.82690203
vt 0.069872722 0.85980439
vt 0.0035954495 0.84039676
vt 0.10155098 0.59177828
vt 0.15327168 0.59465516
vt 0.17931515 0.67464066
vt 0.16529126 0.74010557
vt 0.13340507 0.78947538
vt 0.10679892 0.82133961
vt 0.07576704 0.83608627
vt 0.031463165 0.85848665
vt 0.19472887 0.5977515
vt 0.18509215 0.70413923
vt 0.1544292 0.76495427
vt 0.17395706 0.79196399
vt 0.1226925 0.8172062
vt 0.079353817 0.85322183
vt 0.054036718 0.88329124
vt 0.003598802 0.85564214
vt 0.11401256 0.57053173
vt 0.15810604 0.50434345
vt 0.2112866 0.61830819
vt 0.20144951 0.66799128
vt 0.19644704 0.74931973
vt 0.16969302 0.76745778
vt 0.1387431 0.82870078
vt 0.10781057 0.84559041
vt 0.068122834 0.87066692
vt 0.04504279 0.90679801
vt 0.0036117812 0.88233316
vt 0.26098233 0.50431067
vt 0.25294486 0.55178583
vt 0.21309869 0.6407727
vt 0.20042558 0.68783826
vt 0.22962794 0.7073431
vt 0.1380865 0.85155785
vt 0.095538363 0.83567774
vt 0.053899743 0.90539432
vt 0.12942824 0.54037529
vt 0.24498096 0.59833121
vt 0.22611511 0.65221077
vt 0.21824022 0.67444748
vt 0.12349533 0.85448784
vt 0.1741274 0.86614257
vt 0.09484344 0.85569799
vt 0.0036121053 0.88383043
vt 0.071344741 0.87615943
vt 0.044440921 0.92183149
vt 0.14295493 0.50434202
vt 0.26891622 0.54208112
vt 0.26682284 0.55551577
vt 0.24329606 0.62133151
vt 0.11393815 0.8698926
vt 0.028340315 0.92626911
vt 0.060759079 0.91180158
vt 0.30735213 0.50429571
vt 0.27208233 0.57228196
vt 0.26303729 0.61200118
vt 0.25665531 0.64506096
vt 0.23480597 0.67106211
vt 0.27312309 0.81090498
vt 0.11094099 0.89500391
vt 0.0036125642 0.88501388
vt 0.080861144 0.89082438
vt 0.036424179 0.95176435
vt 0.057834364 0.93946701
vt 0.28382504 0.53884697
vt 0.2778483 0.59677881
vt 0.26060042 0.66291738
vt 0.18779922 0.94900906
vt 0.35409993 0.66005111
vt 0.067205563 0.98571676
vt 0.0036234662 0.92635083
vt 0.089199059 0.90835863
vt 0.015068489 0.95602834
vt 0.32830596 0.53813529
vt 0.29655096 0.57027966
vt 0.28283018 0.60942066
vt 0.32505795 0.89341974
vt 0.34827614 0.79121339
vt 0.086794235 0.93057084
vt 0.011388674 0.97264576
vt 0.33738604 0.50428128
vt 0.32288235 0.56830102
vt 0.32961372 0.63743544
vt 0.0704863 0.99656165
vt 0.23402119 0.96770465
vt 0.40744665 0.77095157
vt 0.0036299333 0.94411409
vt 0.026752507 0.97570878
vt 0.0036319238 0.96772164
vt 0.36185312 0.50427759
vt 0.30042294 0.57710326
vt 0.37533307 0.50427198
vt 0.40664688 0.50426173
vt 0.157052 0.99653375
vt 0.057435762 0.99656624
vt 0.3155224 0.94969183
vt 0.19324319 0.99652278
vt 0.40773836 0.63416809
vt 0.0036324051 0.95479244
vt 0.0036443989 0.98645312
vt 0.0036354985 0.97531593
vt 0.0036316721 0.96022749
vt 0.46036461 0.50424492
vt 0.04254432 0.99564898
vt 0.40866396 0.88309675
vt 0.24264957 0.99650675
vt 0.2234955 0.99651313
vt 0.40744704 0.81229234
vt 0.48367092 0.66754645
vt 0.0045029707 0.99658281
vt 0.0036401721 0.97750175
vt 0.042530622 0.99656492
vt 0.35655269 0.97195607
vt 0.28629145 0.99649298
vt 0.4568854 0.58247727
vt 0.041796666 0.99656492
vt 0.0036456429 0.9965834
vt 0.030858513 0.99656945
vt 0.39571381 0.9448967
vt 0.44717702 0.83698833
vt 0.2987749 0.99648762
vt 0.49444303 0.72392797
vt 0.49959308 0.538221
vt 0.42729029 0.90857434
vt 0.38994828 0.98323619
vt 0.45153481 0.898256
vt 0.33171904 0.95942175
vt 0.49964625 0.70504361
vt 0.49958143 0.50423312
vt 0.4996177 0.61409968
vt 0.42270783 0.92770547
vt 0.40871969 0.95396078
vt 0.37625498 0.99646109
vt 0.49497494 0.80940115
vt 0.47026399 0.84767699
vt 0.49962676 0.64227295
vt 0.49965155 0.72196925
vt 0.35563499 0.99646944
vt 0.38314211 0.99645877
vt 0.49965358 0.73001295
vt 0.46798512 0.88345569
vt 0.32246095 0.99648112
vt 0.4996523 0.72536534
vt 0.4996745 0.80132949
vt 0.47466809 0.9017185
vt 0.35847101 0.99646902
vt 0.7848587 0.89728427
vt 0.8000291 0.88502783
vt 0.81751972 0.8920837
vt 0.81284779 0.92954206
vt 0.77979815 0.8876043
vt 0.8404237 0.88144344
vt 0.83557582 0.90449083
vt 0.76802951 0.91151327
vt 0.78485644 0.8479504
vt 0.82217264 0.85132134
vt 0.86047864 0.92648625
vt 0.76464534 0.89225644
vt 0.75449795 0.9186635
vt 0.7927503 0.84573317
vt 0.88208604 0.87416947
vt 0.8371194 0.95208305
vt 0.8823424 0.91605371
vt 0.73621809 0.93975222
vt 0.79477519 0.78377628
vt 0.85441267 0.83116007
vt 0.80152148 0.95865983
vt 0.87057436 0.94950277
vt 0.87138289 0.94080961
vt 0.75650609 0.89235771
vt 0.7337079 0.89932829
vt 0.78659117 0.79986066
vt 0.90321535 0.91512895
vt 0.83356708 0.79783559
vt 0.89406681 0.82516068
vt 0.81808341 0.99005872
vt 0.87262928 0.954835
vt 0.87636399 0.95676017
vt 0.7663936 0.96544969
vt 0.7029134 0.91364932
vt 0.78596455 0.74440765
vt 0.90337479 0.88741708
vt 0.90021098 0.93118995
vt 0.87674433 0.76102757
vt 0.90324044 0.85262513
vt 0.82653987 0.99113423
vt 0.7927565 0.97788167
vt 0.85456073 0.96769732
vt 0.87027848 0.96999812
vt 0.73062879 0.96228778
vt 0.68938071 0.9413113
vt 0.70822752 0.89643997
vt 0.79273373 0.73936486
vt 0.90126008 0.87836611
vt 0.82885796 0.74147028
vt 0.90245605 0.82370651
vt 0.9032923 0.87115657
vt 0.9000988 0.77510375
vt 0.82065356 0.99615496
vt 0.90130848 0.94653004
vt 0.91326332 0.9640162
vt 0.68870974 0.96039593
vt 0.74799711 0.97050518
vt 0.77036607 0.97849756
vt 0.65584731 0.94803512
vt 0.67428493 0.90980035
vt 0.78280818 0.72489768
vt 0.87012345 0.70601499
vt 0.90048784 0.79634666
vt 0.90383881 0.75716269
vt 0.91341215 0.96474969
vt 0.7119897 0.97188252
vt 0.7279985 0.98557699
vt 0.63596332 0.93896174
vt 0.65899789 0.90012753
vt 0.8000294 0.72108924
vt 0.90111029 0.73767185
vt 0.91320962 0.9615953
vt 0.89087009 0.9776814
vt 0.91503763 0.96384329
vt 0.67125517 0.97252911
vt 0.70027858 0.97865677
vt 0.62820804 0.95262772
vt 0.63758618 0.91780233
vt 0.85884029 0.67293239
vt 0.90076602 0.71938837
vt 0.91451675 0.96293855
vt 0.88226104 0.98434061
vt 0.64982468 0.97024739
vt 0.70493543 0.98807496
vt 0.63108677 0.9051649
vt 0.81973261 0.68129206
vt 0.87202895 0.680673
vt 0.90367395 0.70440978
vt 0.87507832 0.98363918
vt 0.68177247 0.9861598
vt 0.65519482 0.97860974
vt 0.81922281 0.66661119
vt 0.8729037 0.66690421
vt 0.91513568 0.68392158
vt 0.67650729 0.99115747
vt 0.66117889 0.99381304
vt 0.85451853 0.65937006
vt 0.9174704 0.68588167
vt 0.87244529 0.69158173
vt 0.65141517 0.98934495
vt 0.87383986 0.65417874
vt 0.91800344 0.68520832
vt 0.87867886 0.67995918
vt 0.65295881 0.99535072
vt 0.91739678 0.68235397
vt 0.90692168 0.67007029
vt 0.89421952 0.66940856
vt 0.89505506 0.65381622
vt 0.90872955 0.67031258
vt 0.90823382 0.66935736
vt 0.90918654 0.65910673
vt 0.50691009 0.76903945
vt 0.55955118 0.75603855
vt 0.55119967 0.81369627
vt 0.50549495 0.80735165
vt 0.50561357 0.74783564
vt 0.59522009 0.81992459
vt 0.50749588 0.82280242
vt 0.50619543 0.73382533
vt 0.57628232 0.83028316
vt 0.59531695 0.74524492
vt 0.55209547 0.84087062
vt 0.50720185 0.70979142
vt 0.58469617 0.86261761
vt 0.57851708 0.70859158
vt 0.61619395 0.78439271
vt 0.53309709 0.86165637
vt 0.55063057 0.6820302
vt 0.61815047 0.8620652
vt 0.60959393 0.70835114
vt 0.63291466 0.79575545
vt 0.62643117 0.83586532
vt 0.50397396 0.86433828
vt 0.50578028 0.6977787
vt 0.61091167 0.8676163
vt 0.59005845 0.69594014
vt 0.63071012 0.70798939
vt 0.64150053 0.7508682
vt 0.50624025 0.67022467
vt 0.62828714 0.86357868
vt 0.62766916 0.86939514
vt 0.61476839 0.69551456
vt 0.5901944 0.67172968
vt 0.6527158 0.80127358
vt 0.51672632 0.64539182
vt 0.65139627 0.83856595
vt 0.6701867 0.71525246
vt 0.63326514 0.68100679
vt 0.5771479 0.65943372
vt 0.67063636 0.77318263
vt 0.66944039 0.82405233
vt 0.54738975 0.63970149
vt 0.50897312 0.64319545
vt 0.66592282 0.86699843
vt 0.65185457 0.87094378
vt 0.61193281 0.66633773
vt 0.66920477 0.69698632
vt 0.57512182 0.65126526
vt 0.58121169 0.63327718
vt 0.572326 0.64553344
vt 0.59626436 0.65826762
vt 0.66559881 0.67669988
vt 0.63641095 0.64845848
vt 0.57776833 0.6544674
vt 0.6056937 0.63368011
vt 0.66923833 0.65805197
vt 0.68050712 0.68748915
vt 0.58989859 0.6494863
vt 0.64911783 0.63435966
vt 0.70049655 0.63216549
vt 0.59626436 0.40826762
vt 0.5901944 0.42172968
vt 0.57512182 0.40126526
vt 0.58989859 0.39948624
vt 0.572326 0.3955335
vt 0.7021479 0.78443372
vt 0.70276833 0.7794674
vt 0.71489859 0.77448624
vt 0.70621169 0.75827718
vt 0.80048847 0.53919637
vt 0.80818737 0.52245069
vt 0.83206213 0.52664256
vt 0.79449576 0.55633259
vt 0.80058885 0.51753443
vt 0.82992405 0.56175154
vt 0.84711593 0.52675444
vt 0.8204748 0.61362326
vt 0.77659822 0.55220926
vt 0.86155891 0.56580162
vt 0.78460944 0.59958029
vt 0.86562562 0.59684169
vt 0.77635175 0.58237129
vt 0.78237689 0.51694268
vt 0.8703599 0.52444303
vt 0.787265 0.60898644
vt 0.82885599 0.61503851
vt 0.77062315 0.56362164
vt 0.77241057 0.5228073
vt 0.87655801 0.54225504
vt 0.87632197 0.59203732
vt 0.79381615 0.62032843
vt 0.8265121 0.61550832
vt 0.76911807 0.54983151
vt 0.89963663 0.5374999
vt 0.9022572 0.5793277
vt 0.79797423 0.62093776
vt 0.76296276 0.53349084
vt 0.90337861 0.57140446
vt 0.87647212 0.53223556
vt 0.76232612 0.51564175
vt 0.75413209 0.51429659
vt 0.61126852 0.93880326
vt 0.58992863 0.92704701
vt 0.60895091 0.92484558
vt 0.62509251 0.94258535
vt 0.57129371 0.93623286
vt 0.60236943 0.91647643
vt 0.6171639 0.95666337
vt 0.62340057 0.92296153
vt 0.60361707 0.95392072
vt 0.55214554 0.93133634
vt 0.58350068 0.91731632
vt 0.57110548 0.95841932
vt 0.56342053 0.94564986
vt 0.61503315 0.97200942
vt 0.60139251 0.97109276
vt 0.53646272 0.9469071
vt 0.55376714 0.91785473
vt 0.56561381 0.96918309
vt 0.50559407 0.92530632
vt 0.51903099 0.91671252
vt 0.58126295 0.9860099
vt 0.51830429 0.94531757
vt 0.53580308 0.97458297
vt 0.52961946 0.96148711
vt 0.5041756 0.91650283
vt 0.5238176 0.95477277
vt 0.51463562 0.94412035
vt 0.5372631 0.9791187
vt 0.53166789 0.96374291
vt 0.50528663 0.92524588
vt 0.51669163 0.94739997
vt 0.50533456 0.92543262
vt 0.56537354 0.99106902
vt 0.53946441 0.98239052
vt 0.54863173 0.99553889
vt 0.96411288 0.91487366
vt 0.95211625 0.90762001
vt 0.98835182 0.89671189
vt 0.99359047 0.91270709
vt 0.94264281 0.92178434
vt 0.94539046 0.88837534
vt 0.99712431 0.90451795
vt 0.99489504 0.92082936
vt 0.91353154 0.91864496
vt 0.95939612 0.92710912
vt 0.92471707 0.90229106
vt 0.99656314 0.90090984
vt 0.99194962 0.92335987
vt 0.94889021 0.92856437
vt 0.96537995 0.92987216
vt 0.91005802 0.89287496
vt 0.997293 0.89816558
vt 0.99263954 0.92379332
vt 0.96952444 0.92986488
vt 0.96871334 0.93274534
vt 0.99108827 0.9248659
vt 0.97148997 0.93190074
vt 0.69175559 0.8497473
vt 0.69204611 0.82676506
vt 0.70653868 0.82857651
vt 0.72019732 0.85478228
vt 0.70482361 0.80964994
vt 0.72332048 0.84314466
vt 0.70493442 0.8671183
vt 0.72619432 0.82043183
vt 0.72405255 0.84356523
vt 0.71985203 0.85559297
vt 0.69342828 0.85949975
vt 0.71730405 0.7879858
vt 0.72811472 0.82374632
vt 0.72042632 0.85480487
vt 0.72416657 0.84327114
vt 0.70612967 0.87039036
vt 0.72027409 0.85507804
vt 0.70066881 0.86737603
vt 0.73183823 0.81382275
vt 0.72438455 0.84152693
vt 0.72918981 0.82109094
vt 0.72038382 0.85493535
vt 0.70939958 0.870395
vt 0.73871589 0.79168022
vt 0.92845184 0.97532088
vt 0.95149982 0.99359673
vt 0.92322093 0.99521029
vt 0.91052723 0.97723484
vt 0.97553653 0.97685337
vt 0.97216362 0.9930622
vt 0.98987967 0.99537599
vt 0.45049217 0.94127214
vt 0.46162656 0.96050489
vt 0.4431605 0.95766413
vt 0.43802392 0.9381063
vt 0.47626063 0.95626712
vt 0.44484448 0.96327305
vt 0.44857556 0.92460424
vt 0.43661168 0.96169835
vt 0.46671999 0.96339113
vt 0.45989776 0.96270305
vt 0.43031278 0.93335265
vt 0.430628 0.95907545
vt 0.47354501 0.96555001
vt 0.48094526 0.96470153
vt 0.42837822 0.95920801
vt 0.41867694 0.96007121
vt 0.41340569 0.95598263
vt 0.4097144 0.96046382
vt 0.49908334 0.85923201
vt 0.47978106 0.85984969
vt 0.50296712 0.84208965
vt 0.47547618 0.86702752
vt 0.47885922 0.87233835
vt 0.47349942 0.86348474
vt 0.48557475 0.89812112
vt 0.4785178 0.89051437
vt 0.50758988 0.89139283
vt 0.47867239 0.90181029
vt 0.50083864 0.98844796
vt 0.49584603 0.97157812
vt 0.51831418 0.9748385
vt 0.52124554 0.98273998
vt 0.48817042 0.9812628
vt 0.52373701 0.99533093
vt 0.54123729 0.99669367
vt 0.9403761 0.95248139
vt 0.94789058 0.94493365
vt 0.9452486 0.96354967
vt 0.92965037 0.96400672
vt 0.923365 0.94186854
vt 0.95815223 0.95960444
vt 0.96326935 0.94927555
vt 0.91527265 0.95722353
vt 0.95322078 0.94472009
vt 0.90957254 0.94178224
vt 0.43260548 0.99132812
vt 0.40545559 0.99704361
vt 0.38676217 0.99431324
vt 0.61317474 0.99571162
vt 0.62518138 0.97817641
vt 0.6289888 0.97556335
vt 0.6170997 0.9548158
vt 0.57216346 0.86871451
vt 0.56889611 0.88758636
vt 0.55681187 0.86662763
vt 0.54700869 0.89874476
vt 0.541776 0.87570566
vt 0.535438 0.87356961
vt 0.53998232 0.8679443
vt 0.53504241 0.88134259
vt 0.54101467 0.86362183
vt 0.53692901 0.89556438
vt 0.53720903 0.90318
vt 0.50589776 0.94240725
vt 0.49266613 0.93953222
vt 0.50129807 0.92832762
vt 0.50243145 0.95474255
vt 0.48906416 0.96511632
vt 0.75298017 0.85465151
vt 0.75938183 0.86092728
vt 0.75404614 0.86113071
vt 0.76283878 0.84544307
vt 0.76939243 0.87019926
vt 0.7530936 0.84589732
vt 0.76724166 0.86940485
vt 0.75715774 0.83677113
vt 0.78156388 0.86086565
vt 0.76698416 0.83414823
vt 0.77275538 0.86941218
vt 0.77339655 0.84696209
vt 0.48647773 0.91604471
vt 0.46931875 0.93341058
vt 0.45617911 0.91705072
vt 0.5814088 0.99625516
vt 0.5964992 0.97930592
vt 0.61005318 0.98287004
vt 0.98918527 0.99646902
vt 0.99110353 0.97195607
vt 0.99202126 0.99646944
vt 0.40318343 0.96999842
vt 0.40516722 0.98675323
vt 0.39425424 0.98852795
vt 0.42558292 0.97834831
vt 0.44424757 0.98024565
vt 0.43250051 0.99544829
vt 0.45697641 0.96979874
vt 0.47454897 0.965846
vt 0.4697271 0.97974622
vt 0.65229172 0.98880452
vt 0.64460379 0.98307985
vt 0.65367436 0.98351747
vt 0.53908002 0.99578017
vt 0.53575289 0.98872364
vt 0.54156595 0.99113202
vt 0.54300416 0.98928779
vt 0.3901934 0.99566615
vt 0.38963619 0.99507606
vt 0.39319953 0.99541771
vt 0.38959411 0.99572104
vt 0.38895115 0.99557304
vt 0.38756558 0.99532437
vt 0.50988936 0.98967397
vt 0.51024246 0.99531192
vt 0.50443119 0.9926917
vt 0.41473237 0.99638939
vt 0.41831705 0.99681926
vt 0.41409385 0.99688739
vt 0.41728905 0.99468881
usemtl Tile_+031_+024_L19_000100_0
f 12/290 15/291 31/292
f 15/291 6/306 102/303
f 76/179 27/180 282/181
f 56/358 49/359 68/360
f 33/197 42/206 26/188
f 177/257 95/265 47/240
f 39/322 41/328 40/329
f 88/278 90/274 89/282
f 18/237 16/246 82/223
f 21/370 20/375 66/366
f 278/377 84/387 83/382
f 74/191 81/203 80/202
f 76/179 78/186 77/190
f 61/182 91/189 62/194
f 55/196 74/191 61/182
f 99/211 54/199 83/219
f 51/368 21/370 53/361
f 53/361 56/358 68/360
f 86/376 67/371 66/366
f 17/255 18/237 13/261
f 99/211 71/235 72/222
f 51/368 53/361 52/365
f 49/262 57/254 50/244
f 46/227 48/248 47/240
f 33/197 46/227 45/216
f 33/197 41/204 32/213
f 44/316 32/325 41/328
f 44/316 41/328 39/322
f 42/206 33/197 45/216
f 44/316 39/322 36/309
f 28/207 45/216 311/230
f 26/188 38/192 33/197
f 38/192 40/187 33/197
f 40/187 41/204 33/197
f 35/304 30/295 43/299
f 42/206 29/198 26/188
f 40/329 37/310 39/322
f 40/329 92/324 37/310
f 36/309 39/322 37/310
f 30/295 37/310 34/307
f 31/292 15/291 30/295
f 28/207 29/198 45/216
f 32/213 93/225 33/197
f 25/293 12/290 31/292
f 26/188 286/184 27/180
f 224/308 223/320 217/315
f 15/291 43/299 30/295
f 30/295 285/298 31/292
f 34/307 281/302 30/295
f 105/238 106/247 281/224
f 81/203 74/191 55/196
f 26/188 29/198 100/193
f 286/184 100/193 279/185
f 100/193 63/195 279/185
f 79/200 62/194 91/189
f 59/496 79/497 91/498
f 315/205 100/193 316/214
f 63/195 59/201 91/189
f 100/193 286/184 26/188
f 64/506 76/507 77/508
f 81/313 34/307 283/319
f 65/318 283/319 34/307
f 37/310 65/318 34/307
f 37/310 92/324 65/318
f 77/190 78/186 74/191
f 103/183 27/180 76/179
f 103/332 64/333 65/318
f 87/296 31/292 284/300
f 65/318 92/324 103/332
f 103/183 40/187 27/180
f 40/329 103/332 92/324
f 26/188 27/180 38/192
f 24/256 23/263 106/247
f 285/298 284/300 31/292
f 81/313 281/302 34/307
f 281/302 285/298 30/295
f 281/302 284/300 285/298
f 106/305 284/300 281/302
f 281/224 81/203 101/212
f 23/311 87/296 106/305
f 80/202 77/190 74/191
f 80/509 283/511 64/506
f 64/506 103/510 76/507
f 81/512 283/511 80/509
f 282/181 61/182 76/179
f 106/247 105/238 24/256
f 76/179 61/182 78/186
f 16/246 24/256 105/238
f 89/389 90/388 104/385
f 19/253 86/273 90/274
f 22/381 104/385 86/376
f 22/381 86/376 66/366
f 53/361 21/370 66/366
f 52/365 85/379 280/373
f 52/365 280/373 51/368
f 73/363 53/361 68/360
f 279/185 63/195 91/189
f 74/191 78/186 61/182
f 55/196 61/182 54/199
f 70/367 73/363 71/364
f 62/194 54/199 61/182
f 62/194 69/208 54/199
f 321/499 59/496 322/500
f 59/201 75/210 58/221
f 75/210 59/201 63/195
f 58/504 98/502 59/496
f 322/500 98/502 324/503
f 58/221 75/210 60/233
f 60/233 75/210 325/232
f 328/260 58/221 329/251
f 58/221 60/233 319/243
f 69/208 83/219 54/199
f 331/218 62/194 333/220
f 83/219 84/236 99/211
f 62/194 79/200 323/209
f 68/360 71/364 73/363
f 83/382 69/386 70/367
f 99/372 278/377 70/367
f 99/567 84/568 278/569
f 70/367 278/377 83/382
f 53/361 73/363 52/365
f 334/369 70/367 335/378
f 57/362 66/366 67/371
f 52/365 73/363 334/369
f 70/367 69/386 332/383
f 337/384 52/365 338/380
f 68/245 50/244 72/222
f 66/366 57/362 53/361
f 57/362 56/358 53/361
f 49/359 56/358 57/362
f 277/234 18/237 55/196
f 68/245 49/262 50/244
f 57/254 19/253 277/234
f 19/253 67/268 86/273
f 67/268 19/253 57/254
f 72/222 50/244 277/234
f 72/222 71/235 68/245
f 277/234 19/253 18/237
f 82/223 55/196 18/237
f 55/196 72/222 277/234
f 55/196 99/211 72/222
f 71/364 99/372 70/367
f 173/1 175/2 178/3
f 210/334 211/326 223/320
f 129/28 162/35 147/42
f 206/349 204/350 202/351
f 184/338 202/336 6/306
f 7/301 6/306 15/291
f 204/321 206/339 210/334
f 192/118 140/110 150/101
f 188/141 196/147 373/155
f 203/354 201/355 187/356
f 165/357 187/356 201/355
f 210/334 163/343 209/341
f 114/46 109/39 169/30
f 94/335 32/325 217/315
f 120/29 121/44 131/55
f 136/107 142/98 133/87
f 122/37 120/29 156/24
f 207/340 94/335 211/326
f 168/570 182/571 216/572
f 129/28 128/36 156/24
f 111/31 110/25 109/39
f 177/257 170/264 124/270
f 205/314 224/308 102/303
f 12/290 9/294 15/291
f 43/299 217/315 44/316
f 43/299 15/291 102/303
f 43/299 224/308 217/315
f 48/248 93/225 94/239
f 6/306 205/314 102/303
f 223/320 224/308 205/314
f 224/308 43/299 102/303
f 223/320 205/314 204/321
f 47/240 214/277 212/272
f 48/345 208/344 124/348
f 93/225 32/213 94/239
f 48/248 46/227 93/225
f 212/272 213/281 172/284
f 47/240 45/216 46/227
f 44/316 217/315 32/325
f 46/227 33/197 93/225
f 218/425 220/426 189/427
f 189/166 191/152 190/154
f 221/443 219/437 380/445
f 218/425 219/437 221/443
f 218/425 221/443 382/444
f 379/432 218/425 384/428
f 384/428 189/427 385/431
f 178/3 166/7 167/4
f 95/265 177/257 180/271
f 113/14 167/4 125/10
f 173/1 167/4 215/8
f 125/10 166/7 176/6
f 191/152 194/140 190/154
f 114/46 117/56 108/57
f 213/541 95/542 180/543
f 217/315 211/326 94/335
f 47/545 95/542 214/544
f 213/541 214/544 95/542
f 212/272 214/277 213/281
f 343/266 212/272 344/276
f 48/248 170/264 177/257
f 341/283 172/284 345/287
f 48/248 177/257 47/240
f 209/341 208/344 211/326
f 217/315 223/320 211/326
f 149/99 148/89 153/108
f 153/108 142/98 136/107
f 204/526 201/527 202/528
f 124/270 170/264 48/248
f 2/51 1/61 147/42
f 6/306 4/317 185/323
f 187/573 184/574 203/575
f 204/321 203/327 165/337
f 187/352 206/349 202/351
f 6/306 183/330 184/338
f 163/343 210/334 206/339
f 208/344 164/347 124/348
f 208/344 207/340 211/326
f 373/155 198/135 386/161
f 200/122 138/106 11/113
f 197/125 198/135 150/101
f 137/114 200/122 154/124
f 150/101 151/115 197/125
f 198/135 196/147 195/130
f 192/118 195/130 188/141
f 150/101 198/135 195/130
f 151/115 154/124 197/125
f 150/101 195/130 192/118
f 188/141 194/140 192/118
f 193/109 140/110 192/118
f 199/167 191/152 189/166
f 195/130 196/147 188/141
f 388/160 188/141 389/168
f 190/154 194/140 188/141
f 202/351 184/353 187/352
f 145/63 161/53 128/36
f 115/45 143/65 118/74
f 97/88 142/98 153/108
f 147/42 144/52 128/36
f 159/64 155/43 161/53
f 143/65 149/99 150/101
f 164/27 163/34 127/23
f 171/5 181/9 348/13
f 2/51 183/69 3/79
f 113/14 126/26 168/15
f 125/10 129/28 156/24
f 181/9 174/11 350/18
f 167/4 216/12 215/8
f 172/284 179/285 171/286
f 173/1 171/5 175/2
f 171/5 173/1 181/9
f 173/1 215/8 174/11
f 346/288 171/286 349/289
f 176/275 175/279 180/271
f 124/270 176/275 177/257
f 175/279 213/281 180/271
f 166/7 178/3 176/6
f 107/471 186/472 111/473
f 178/3 175/2 176/6
f 165/337 184/338 183/330
f 183/330 185/323 3/331
f 165/337 163/343 187/346
f 163/343 164/347 209/341
f 169/30 110/25 130/20
f 125/10 130/20 113/14
f 182/21 168/15 126/26
f 115/45 120/29 131/55
f 167/4 113/14 168/15
f 167/4 166/7 125/10
f 164/27 127/23 124/19
f 156/24 120/29 130/20
f 146/62 134/80 139/81
f 143/65 155/43 159/64
f 143/65 115/45 132/54
f 118/74 143/65 119/91
f 143/65 157/90 149/99
f 148/89 149/99 160/71
f 157/90 160/71 149/99
f 10/86 11/113 138/106
f 137/114 154/124 149/99
f 137/114 153/108 152/123
f 140/110 119/91 150/101
f 144/52 147/42 146/62
f 136/107 152/123 153/108
f 148/89 96/82 97/88
f 97/88 153/108 148/89
f 146/62 141/70 144/52
f 134/80 10/86 135/97
f 153/108 137/114 149/99
f 150/101 119/91 143/65
f 149/99 151/115 150/101
f 141/70 133/87 142/98
f 151/115 149/99 154/124
f 10/86 134/80 1/61
f 10/86 138/106 135/97
f 152/123 136/107 137/114
f 136/107 138/106 137/114
f 136/107 133/87 135/97
f 133/561 139/562 134/563
f 146/62 139/81 141/70
f 1/61 146/62 147/42
f 144/52 141/70 145/63
f 144/52 145/63 128/36
f 147/42 162/35 2/51
f 163/34 162/35 127/23
f 165/50 183/69 2/51
f 2/51 162/35 165/50
f 145/63 160/71 161/53
f 158/72 161/53 160/71
f 160/71 157/90 158/72
f 155/43 132/54 122/37
f 159/64 158/72 143/65
f 158/72 159/64 161/53
f 143/65 158/72 157/90
f 122/37 156/24 155/43
f 156/24 128/36 155/43
f 128/36 161/53 155/43
f 155/43 143/65 132/54
f 115/45 131/55 132/54
f 122/37 132/54 131/55
f 129/28 125/10 127/23
f 110/25 113/14 130/20
f 124/19 127/23 125/10
f 129/28 147/42 128/36
f 117/56 123/38 115/45
f 114/46 169/30 123/38
f 122/37 121/44 120/29
f 118/74 116/66 115/45
f 117/56 115/45 116/66
f 108/57 109/39 114/46
f 111/31 112/40 113/14
f 109/474 107/471 111/473
f 107/67 109/39 108/57
f 342/249 47/240 347/258
f 100/193 29/198 28/207
f 210/334 223/320 204/321
f 35/304 37/310 30/295
f 101/212 105/238 281/224
f 61/182 282/181 279/185
f 64/333 283/319 65/318
f 101/212 81/203 55/196
f 29/198 42/206 45/216
f 44/316 36/309 43/299
f 36/309 35/304 43/299
f 37/310 35/304 36/309
f 40/187 38/192 27/180
f 286/184 279/185 282/181
f 314/217 28/207 353/228
f 282/181 27/180 286/184
f 61/182 279/185 91/189
f 77/508 80/509 64/506
f 19/253 90/274 14/269
f 284/300 106/305 87/296
f 16/246 105/238 82/223
f 82/223 105/238 101/212
f 55/196 82/223 101/212
f 55/196 54/199 99/211
f 75/210 63/195 317/215
f 50/244 57/254 277/234
f 202/336 201/342 203/327
f 96/82 148/89 160/71
f 203/327 6/306 202/336
f 184/338 165/337 203/327
f 213/281 179/285 172/284
f 189/166 190/154 387/172
f 174/11 182/21 126/26
f 113/14 110/25 111/31
f 213/281 175/279 179/285
f 177/257 176/275 180/271
f 121/44 122/37 131/55
f 94/335 207/340 48/345
f 48/345 207/340 208/344
f 210/334 209/341 211/326
f 203/327 204/321 6/306
f 164/347 208/344 209/341
f 204/321 205/314 6/306
f 185/323 183/330 6/306
f 204/526 165/529 201/527
f 206/339 187/346 163/343
f 117/56 114/46 123/38
f 181/9 173/1 174/11
f 138/106 200/122 137/114
f 192/118 194/140 193/109
f 115/45 123/38 120/29
f 352/22 126/26 355/33
f 167/4 173/1 178/3
f 175/279 171/286 179/285
f 182/21 174/11 216/12
f 174/11 215/8 216/12
f 124/19 125/10 176/6
f 123/38 169/30 130/20
f 168/15 216/12 167/4
f 169/30 109/39 110/25
f 141/70 142/98 97/88
f 135/97 138/106 136/107
f 141/70 139/81 133/87
f 141/70 97/88 96/82
f 134/80 135/97 133/87
f 160/71 145/63 96/82
f 141/70 96/82 145/63
f 129/28 127/23 162/35
f 162/35 163/34 165/50
f 120/29 123/38 130/20
f 156/24 130/20 125/10
f 392/546 308/547 396/548
f 260/530 265/531 269/532
f 230/447 265/448 231/449
f 189/427 220/426 199/430
f 260/451 229/454 231/449
f 263/478 264/479 257/480
f 237/390 252/391 245/392
f 107/67 254/75 253/77
f 254/75 243/83 253/77
f 249/484 251/481 250/488
f 246/157 235/145 248/151
f 246/157 248/151 247/164
f 199/430 220/426 244/435
f 242/94 253/77 243/83
f 293/68 275/59 272/48
f 239/398 238/394 237/390
f 237/390 245/392 300/393
f 117/56 240/73 108/57
f 232/453 233/450 402/456
f 255/402 256/399 238/394
f 231/449 229/454 225/452
f 225/452 229/454 403/459
f 423/535 230/533 424/537
f 231/449 265/448 260/451
f 233/450 225/452 395/455
f 222/550 226/549 368/554
f 231/449 233/450 230/447
f 231/449 225/452 233/450
f 426/457 232/453 427/464
f 396/548 222/550 406/552
f 308/547 226/549 222/550
f 220/426 218/425 307/429
f 269/532 265/531 230/533
f 306/534 269/532 230/533
f 303/458 229/454 260/451
f 269/532 306/534 428/536
f 260/410 305/407 303/404
f 262/513 261/514 304/515
f 307/429 218/425 410/434
f 263/433 244/435 220/426
f 264/479 307/482 413/486
f 251/481 257/480 408/485
f 263/433 220/426 307/429
f 307/482 264/479 263/478
f 259/516 262/513 304/515
f 303/518 304/515 261/514
f 398/465 303/458 416/470
f 249/484 263/478 251/481
f 263/478 257/480 251/481
f 249/440 244/435 263/433
f 261/514 262/513 250/517
f 250/488 251/481 415/489
f 418/493 250/488 419/492
f 416/519 261/514 417/521
f 262/513 259/516 250/517
f 298/156 299/137 270/158
f 245/392 298/395 270/397
f 432/414 266/408 433/419
f 252/391 256/399 301/400
f 266/408 227/411 430/416
f 256/399 255/402 228/405
f 435/415 228/405 436/413
f 228/405 227/411 266/408
f 256/399 228/405 266/408
f 270/397 300/393 245/392
f 436/413 305/407 437/418
f 259/396 239/398 237/390
f 438/412 260/410 439/417
f 256/399 252/391 238/394
f 259/396 304/403 239/398
f 259/516 300/520 250/517
f 303/404 239/398 304/403
f 239/398 303/404 302/401
f 302/401 255/402 238/394
f 239/398 302/401 238/394
f 255/402 302/401 228/405
f 302/401 305/407 228/405
f 259/396 237/390 300/393
f 238/394 252/391 237/390
f 305/407 302/401 303/404
f 236/112 276/105 287/95
f 300/520 270/522 250/517
f 193/109 194/140 299/137
f 191/152 199/167 270/158
f 299/137 191/152 270/158
f 194/140 191/152 299/137
f 246/409 256/399 266/408
f 299/137 248/151 235/145
f 298/395 245/392 252/391
f 235/145 295/128 299/137
f 235/523 296/524 295/525
f 441/153 235/145 442/174
f 295/128 193/109 299/137
f 298/156 301/163 248/151
f 299/137 298/156 248/151
f 301/163 247/164 248/151
f 249/440 199/430 244/435
f 246/409 247/406 256/399
f 301/400 298/395 252/391
f 250/177 270/158 249/173
f 249/173 270/158 199/167
f 118/74 119/91 234/100
f 258/102 287/95 290/111
f 294/96 290/111 287/95
f 118/74 234/100 258/102
f 293/68 292/85 297/78
f 294/96 297/78 292/85
f 126/26 113/14 273/32
f 241/136 258/102 421/127
f 274/84 275/59 297/78
f 287/95 297/78 294/96
f 275/59 293/68 297/78
f 287/95 274/84 297/78
f 288/120 236/112 287/95
f 241/136 288/120 258/102
f 356/132 288/120 454/142
f 288/120 287/95 258/102
f 358/60 275/59 360/76
f 361/121 236/112 363/133
f 117/56 116/66 240/73
f 290/111 289/92 258/102
f 290/111 271/104 289/92
f 253/475 186/472 107/471
f 243/83 254/75 108/57
f 449/138 295/128 450/146
f 268/117 234/100 193/109
f 119/91 140/110 193/109
f 446/129 268/117 451/139
f 234/100 119/91 193/109
f 295/128 296/159 441/153
f 243/83 118/74 289/92
f 243/83 108/57 240/73
f 116/66 118/74 243/83
f 243/558 240/559 116/560
f 243/83 289/92 242/94
f 273/32 113/14 112/40
f 292/85 293/68 253/77
f 267/41 126/26 273/32
f 271/104 290/111 294/96
f 108/57 254/75 107/67
f 294/96 292/85 271/104
f 253/77 293/68 272/48
f 186/47 291/58 273/32
f 291/476 253/475 272/477
f 111/31 186/47 112/40
f 253/475 291/476 186/472
f 118/74 258/102 289/92
f 271/104 242/94 289/92
f 420/116 234/100 445/126
f 233/450 232/453 230/447
f 288/120 241/136 448/148
f 409/483 264/479 414/487
f 360/76 274/84 364/93
f 256/399 247/406 301/400
f 439/417 269/422 453/423
f 276/105 274/84 287/95
f 235/145 246/157 440/165
f 355/33 267/41 359/49
f 365/103 276/105 366/119
f 267/41 272/48 275/59
f 272/48 267/41 273/32
f 295/128 268/117 193/109
f 292/85 242/94 271/104
f 186/47 273/32 112/40
f 242/94 292/85 253/77
f 273/32 291/58 272/48
f 25/293 31/292 87/296
f 88/278 14/269 90/274
f 22/381 66/366 20/375
f 18/237 19/253 13/261
f 7/301 15/291 8/297
f 16/246 18/237 17/255
f 13/261 19/253 14/269
f 86/376 104/385 90/388
f 8/297 15/291 9/294
f 5/312 6/306 7/301
f 4/317 6/306 5/312
f 3/331 185/323 4/317
f 134/80 146/62 1/61
f 309/592 85/593 337/594
f 310/595 85/593 309/592
f 311/230 45/216 339/242
f 312/241 28/207 311/230
f 313/229 100/193 314/217
f 314/217 100/193 28/207
f 315/205 63/195 100/193
f 316/214 100/193 318/226
f 317/215 63/195 315/205
f 318/226 100/193 313/229
f 319/243 60/233 320/252
f 320/252 60/233 354/259
f 321/499 79/497 59/496
f 322/500 59/496 98/502
f 323/501 79/497 321/499
f 324/503 98/502 327/505
f 325/232 75/210 317/215
f 326/250 60/233 325/232
f 327/579 98/580 330/581
f 328/260 98/267 58/221
f 329/251 58/221 319/243
f 330/581 98/580 328/582
f 331/218 69/208 62/194
f 332/231 69/208 331/218
f 333/220 62/194 323/209
f 334/369 73/363 70/367
f 335/378 70/367 332/383
f 336/374 52/365 334/369
f 337/384 85/379 52/365
f 338/380 52/365 336/374
f 339/242 45/216 342/249
f 340/280 212/272 341/283
f 341/283 212/272 172/284
f 342/249 45/216 47/240
f 343/266 47/240 212/272
f 344/276 212/272 340/280
f 345/287 172/284 346/288
f 346/288 172/284 171/286
f 347/258 47/240 343/266
f 348/13 181/9 351/17
f 349/16 171/5 348/13
f 350/18 174/11 352/22
f 351/17 181/9 350/18
f 352/22 174/11 126/26
f 353/228 28/207 312/241
f 354/259 60/233 326/250
f 355/33 126/26 267/41
f 356/132 236/112 288/120
f 357/143 236/112 356/132
f 358/60 267/41 275/59
f 359/49 267/41 358/60
f 360/76 275/59 274/84
f 361/121 276/105 236/112
f 362/134 276/105 361/121
f 363/576 236/577 357/578
f 364/93 274/84 365/103
f 365/103 274/84 276/105
f 366/119 276/105 367/131
f 367/131 276/105 362/134
f 368/554 226/549 369/557
f 369/557 226/549 370/555
f 370/555 226/549 407/553
f 371/169 190/154 388/160
f 372/175 190/154 371/169
f 373/155 196/147 198/135
f 374/162 188/141 373/155
f 375/583 222/584 377/585
f 376/586 222/584 375/583
f 377/556 222/550 368/554
f 378/442 219/437 379/432
f 379/432 219/437 218/425
f 380/445 219/437 378/442
f 381/446 221/443 380/445
f 382/444 221/443 381/446
f 383/439 218/425 382/444
f 384/428 218/425 189/427
f 385/431 189/427 390/436
f 387/172 190/154 372/175
f 388/160 190/154 188/141
f 389/168 188/141 374/162
f 390/436 189/427 391/441
f 391/176 189/166 387/172
f 392/546 226/549 308/547
f 393/551 226/549 392/546
f 394/461 225/452 404/466
f 395/455 225/452 394/461
f 396/548 308/547 222/550
f 397/467 229/454 398/465
f 398/465 229/454 303/458
f 399/460 233/450 395/455
f 400/468 233/450 399/460
f 401/587 222/584 376/586
f 402/456 233/450 405/463
f 422/462 402/456 456/469
f 403/459 229/454 397/467
f 404/466 225/452 403/459
f 405/463 233/450 400/468
f 406/588 222/584 401/587
f 407/553 226/549 393/551
f 408/485 257/480 409/483
f 409/483 257/480 264/479
f 410/434 218/425 383/439
f 411/490 307/482 412/491
f 412/438 307/429 410/434
f 413/486 307/482 411/490
f 414/487 264/479 413/486
f 415/489 251/481 408/485
f 416/519 303/518 261/514
f 417/495 261/494 418/493
f 418/493 261/494 250/488
f 419/492 250/488 415/489
f 420/116 258/102 234/100
f 421/127 258/102 420/116
f 422/462 232/453 402/456
f 423/535 306/534 230/533
f 424/537 230/533 425/539
f 425/539 230/533 426/540
f 426/457 230/447 232/453
f 427/589 232/590 422/591
f 428/536 306/534 423/535
f 429/538 269/532 428/536
f 430/416 227/411 431/420
f 431/420 227/411 435/415
f 432/414 246/409 266/408
f 433/419 266/408 434/421
f 434/421 266/408 430/416
f 435/415 227/411 228/405
f 436/413 228/405 305/407
f 437/418 305/407 438/412
f 438/412 305/407 260/410
f 439/417 260/410 269/422
f 440/165 246/157 432/171
f 441/153 296/159 235/145
f 442/174 235/145 443/178
f 443/564 235/565 444/566
f 444/170 235/145 440/165
f 445/126 234/100 446/129
f 446/129 234/100 268/117
f 447/144 241/136 421/127
f 448/148 241/136 447/144
f 449/138 268/117 295/128
f 450/146 295/128 441/153
f 451/139 268/117 449/138
f 452/150 288/120 448/148
f 453/423 269/422 429/424
f 454/142 288/120 452/150
f 455/149 356/132 454/142
usemtl Tile_+031_+024_L19_000100_untextured
