mtllib Tile_+031_+024_L19_000021.mtl
v 6.05134224e+03 5.81664688e+03 3.45979953e+01
v 6.05045935e+03 5.81560053e+03 3.26008604e+01
v 6.05006426e+03 5.81624542e+03 3.28830279e+01
v 6.05305302e+03 5.81774151e+03 3.32854000e+01
v 6.04525243e+03 5.82105213e+03 2.22586058e+01
v 6.04755276e+03 5.81651239e+03 2.28115139e+01
v 6.05018009e+03 5.81625931e+03 3.20927962e+01
v 6.03293697e+03 5.82781375e+03 8.91849514e+00
v 6.03835045e+03 5.82725203e+03 8.72824852e+00
v 6.04132311e+03 5.82868779e+03 8.93792336e+00
v 6.04080520e+03 5.82753838e+03 8.80377978e+00
v 6.04117578e+03 5.82946063e+03 8.56608438e+00
v 6.04219421e+03 5.82701570e+03 8.84478686e+00
v 6.04660649e+03 5.81830471e+03 9.19591102e+00
v 6.04431181e+03 5.82242261e+03 8.99688511e+00
v 6.04279262e+03 5.81857552e+03 9.07985907e+00
v 6.04029267e+03 5.82637743e+03 9.32528963e+00
v 6.04027910e+03 5.82514408e+03 8.94228635e+00
v 6.03781429e+03 5.82515773e+03 8.73628070e+00
v 6.04528835e+03 5.81459834e+03 9.25692583e+00
v 6.04467101e+03 5.81295078e+03 9.12551388e+00
v 6.03813032e+03 5.81784231e+03 9.10729321e+00
v 6.03947399e+03 5.81324969e+03 9.22657189e+00
v 6.03148295e+03 5.82211672e+03 9.00339447e+00
v 6.03718072e+03 5.82261277e+03 9.09581652e+00
v 6.03186997e+03 5.82004640e+03 8.98720983e+00
v 6.03628503e+03 5.81921951e+03 9.21246046e+00
v 6.03155959e+03 5.82011844e+03 1.01989368e+01
v 6.03100687e+03 5.82086888e+03 9.34969268e+00
v 6.04334437e+03 5.82543807e+03 9.86674028e+00
v 6.04698286e+03 5.81403737e+03 9.36830030e+00
v 6.04773301e+03 5.81613930e+03 9.30565668e+00
v 6.03192885e+03 5.81491252e+03 9.10754024e+00
v 6.03240567e+03 5.81639994e+03 9.39903897e+00
v 6.03479531e+03 5.81512750e+03 9.27947668e+00
v 6.03342402e+03 5.81659314e+03 9.14494380e+00
v 6.03129070e+03 5.81757596e+03 9.74540448e+00
v 6.03411336e+03 5.81769651e+03 9.08941213e+00
v 6.03290785e+03 5.81793439e+03 9.38210657e+00
v 6.04568504e+03 5.82014156e+03 9.26372905e+00
v 6.05433761e+03 5.83165194e+03 2.10765815e+01
v 6.05314086e+03 5.83147942e+03 1.91242579e+01
v 6.05686182e+03 5.83225907e+03 1.92194624e+01
v 6.05614447e+03 5.83220761e+03 2.28342910e+01
v 6.05674009e+03 5.83209824e+03 2.10108383e+01
v 6.04798323e+03 5.83018686e+03 2.12915125e+01
v 6.04919420e+03 5.83011095e+03 2.06117443e+01
v 6.05017338e+03 5.83064954e+03 2.09442878e+01
v 6.06089748e+03 5.83321444e+03 1.89011312e+01
v 6.06163089e+03 5.83315204e+03 1.70646627e+01
v 6.06135266e+03 5.83318226e+03 2.43389013e+01
v 6.04732600e+03 5.83007763e+03 2.69362781e+01
v 6.04547722e+03 5.82983217e+03 2.66371908e+01
v 6.04746935e+03 5.83039188e+03 2.56395673e+01
v 6.05060145e+03 5.83154591e+03 2.55825459e+01
v 6.05112386e+03 5.83196593e+03 2.68800032e+01
v 6.04971414e+03 5.83157373e+03 2.66030439e+01
v 6.06191549e+03 5.83352270e+03 2.68825935e+01
v 6.06148700e+03 5.83381130e+03 2.96333950e+01
v 6.05172117e+03 5.83113796e+03 2.72212238e+01
v 6.05067046e+03 5.83070501e+03 2.69513388e+01
v 6.05071907e+03 5.83120989e+03 2.67343490e+01
v 6.04575779e+03 5.82912125e+03 3.00601930e+01
v 6.04724817e+03 5.83050582e+03 2.96948296e+01
v 6.04932626e+03 5.83004368e+03 2.43892713e+01
v 6.05827658e+03 5.83160019e+03 3.00076744e+01
v 6.05509459e+03 5.83256870e+03 2.97566683e+01
v 6.04870133e+03 5.83127763e+03 2.30042365e+01
v 6.04721722e+03 5.83015421e+03 2.25511666e+01
v 6.04904918e+03 5.82882921e+03 3.03919996e+01
v 6.05711663e+03 5.82998935e+03 3.16472870e+01
v 6.04835868e+03 5.83110777e+03 2.66108468e+01
v 6.05846032e+03 5.83325012e+03 2.95680504e+01
v 6.04907814e+03 5.83115604e+03 2.97327694e+01
v 6.05169187e+03 5.83025112e+03 2.99837751e+01
v 6.04812179e+03 5.83052341e+03 2.86122929e+01
v 6.04508498e+03 5.83017403e+03 2.99131066e+01
v 6.06070939e+03 5.83160593e+03 3.01247841e+01
v 6.06047449e+03 5.83306544e+03 2.61742468e+01
v 6.05996920e+03 5.83249098e+03 2.42844957e+01
v 6.05879133e+03 5.83257481e+03 2.44330742e+01
v 6.04684999e+03 5.82983673e+03 2.44231765e+01
v 6.04826621e+03 5.83035018e+03 2.37697816e+01
v 6.05952229e+03 5.83290410e+03 2.28490754e+01
v 6.05039868e+03 5.83054283e+03 2.41510374e+01
v 6.04931915e+03 5.83015543e+03 2.37017147e+01
v 6.05052202e+03 5.83096463e+03 2.34991595e+01
v 6.05782319e+03 5.83043129e+03 3.04870533e+01
v 6.04888054e+03 5.83138910e+03 1.62352178e+01
v 6.04817662e+03 5.83049440e+03 1.64122252e+01
v 6.05293696e+03 5.83149628e+03 2.21979353e+01
v 6.05257033e+03 5.83136929e+03 2.33074262e+01
v 6.05591946e+03 5.83216241e+03 2.61305349e+01
v 6.05826038e+03 5.83271639e+03 2.63797615e+01
v 6.05135999e+03 5.83057048e+03 1.74451605e+01
v 6.05030277e+03 5.83054173e+03 1.70502243e+01
v 6.04980473e+03 5.83141137e+03 2.00944450e+01
v 6.06063863e+03 5.83310345e+03 1.55369662e+01
v 6.04858199e+03 5.83114920e+03 1.96766748e+01
v 6.04945476e+03 5.83123324e+03 1.87257210e+01
v 6.04808463e+03 5.83032561e+03 2.00902521e+01
v 6.05060885e+03 5.83157297e+03 1.98094923e+01
v 6.04154648e+03 5.82908515e+03 1.86241944e+01
v 6.04568755e+03 5.82971846e+03 2.04276401e+01
v 6.05022416e+03 5.83103959e+03 1.35119622e+01
v 6.05105131e+03 5.83155835e+03 1.28432641e+01
v 6.05148696e+03 5.83184602e+03 1.58015030e+01
v 6.05212679e+03 5.83141767e+03 1.66281767e+01
v 6.05983388e+03 5.83304874e+03 2.99104867e+01
v 6.04471332e+03 5.82957656e+03 2.40639212e+01
v 6.05128898e+03 5.83179103e+03 1.19477331e+01
v 6.05211933e+03 5.83130137e+03 1.31126869e+01
v 6.05312558e+03 5.83102659e+03 2.05838880e+01
v 6.04245653e+03 5.82652008e+03 1.61152791e+01
v 6.04336180e+03 5.82539437e+03 1.46056556e+01
v 6.04282028e+03 5.82609757e+03 1.20540240e+01
v 6.04475223e+03 5.82244001e+03 1.05130567e+01
v 6.04447808e+03 5.82220784e+03 1.15254961e+01
v 6.04650537e+03 5.81258944e+03 9.62982492e+00
v 6.03429128e+03 5.81404551e+03 1.04629060e+01
v 6.03557123e+03 5.81251421e+03 9.46104199e+00
v 6.04747373e+03 5.81712836e+03 1.40658234e+01
v 6.04790234e+03 5.81570026e+03 1.60190789e+01
v 6.04325769e+03 5.82904417e+03 1.36677792e+01
v 6.04353657e+03 5.82939921e+03 1.58527777e+01
v 6.04307178e+03 5.82912038e+03 2.58931142e+01
v 6.05066671e+03 5.81287531e+03 3.01853725e+01
v 6.05189820e+03 5.81311201e+03 3.01542180e+01
v 6.04749109e+03 5.82795576e+03 3.16687876e+01
v 6.04591007e+03 5.82811469e+03 3.06166928e+01
v 6.04146276e+03 5.82899412e+03 2.82122547e+01
v 6.04132759e+03 5.82907855e+03 2.65016714e+01
v 6.04601727e+03 5.81946357e+03 2.63966026e+01
v 6.04575662e+03 5.82042010e+03 2.71429804e+01
v 6.04871902e+03 5.81479280e+03 3.01877536e+01
v 6.04956673e+03 5.81552134e+03 3.06098971e+01
v 6.04846948e+03 5.81505491e+03 3.13841819e+01
v 6.05051538e+03 5.81384892e+03 3.18536398e+01
v 6.05107919e+03 5.81421533e+03 3.08851195e+01
v 6.05940346e+03 5.81809067e+03 3.41138258e+01
v 6.06124443e+03 5.81683847e+03 3.41212969e+01
v 6.05726661e+03 5.81991304e+03 3.61486588e+01
v 6.05549678e+03 5.82011245e+03 3.53034979e+01
v 6.04506243e+03 5.82131521e+03 1.94209396e+01
v 6.04639173e+03 5.81896377e+03 1.75735841e+01
v 6.05261002e+03 5.82902815e+03 3.16421301e+01
v 6.05984802e+03 5.82544473e+03 3.23344228e+01
v 6.06080317e+03 5.82656792e+03 3.25048717e+01
v 6.05823731e+03 5.82656023e+03 3.23911397e+01
v 6.06234519e+03 5.82687126e+03 3.24665842e+01
v 6.05886348e+03 5.82074862e+03 3.50957879e+01
v 6.06237684e+03 5.82316253e+03 3.18622500e+01
v 6.05861987e+03 5.82245633e+03 3.21333376e+01
v 6.05868390e+03 5.81737397e+03 3.59768107e+01
v 6.05900694e+03 5.81769831e+03 3.57632554e+01
v 6.05956356e+03 5.81629637e+03 3.58573523e+01
v 6.06082723e+03 5.81459766e+03 3.41985567e+01
v 6.06233680e+03 5.81477867e+03 3.33042256e+01
v 6.05888631e+03 5.81544851e+03 3.55416285e+01
v 6.05977946e+03 5.81594127e+03 3.52270890e+01
v 6.06228881e+03 5.81564520e+03 3.52022321e+01
v 6.06272742e+03 5.81418234e+03 3.51491657e+01
v 6.05437423e+03 5.81895727e+03 3.63736101e+01
v 6.05459899e+03 5.81983593e+03 3.73586850e+01
v 6.04824579e+03 5.81537968e+03 2.98597160e+01
v 6.04767454e+03 5.81535000e+03 2.95430380e+01
v 6.04954915e+03 5.81630511e+03 3.14637491e+01
v 6.04661267e+03 5.81764355e+03 2.95713806e+01
v 6.04850663e+03 5.81443765e+03 2.87232410e+01
v 6.05135029e+03 5.81386292e+03 3.02546214e+01
v 6.05603591e+03 5.82015336e+03 3.24193308e+01
v 6.05460192e+03 5.81971634e+03 3.35205382e+01
v 6.04990770e+03 5.81301110e+03 2.72146284e+01
v 6.04881511e+03 5.81323745e+03 2.95041894e+01
v 6.05692878e+03 5.81534257e+03 3.66985317e+01
v 6.05506610e+03 5.81803190e+03 3.64567821e+01
v 6.05549816e+03 5.81994951e+03 3.75987656e+01
v 6.05498792e+03 5.81897706e+03 3.75120833e+01
v 6.04674765e+03 5.82314149e+03 3.03261122e+01
v 6.04595111e+03 5.82492189e+03 3.16089617e+01
v 6.04768600e+03 5.82132764e+03 3.02252783e+01
v 6.04799190e+03 5.82083667e+03 3.15683377e+01
v 6.04224682e+03 5.82688032e+03 2.89119101e+01
v 6.04437813e+03 5.82309530e+03 2.83928524e+01
v 6.04311456e+03 5.82540111e+03 2.61206962e+01
v 6.04375746e+03 5.82467598e+03 2.73088395e+01
v 6.05609883e+03 5.81812513e+03 3.65919845e+01
v 6.05560486e+03 5.81921374e+03 3.75783061e+01
v 6.04483822e+03 5.82614147e+03 3.10560308e+01
v 6.04597350e+03 5.81996731e+03 2.84174882e+01
v 6.05207265e+03 5.82087871e+03 3.24856421e+01
v 6.05036935e+03 5.82082905e+03 3.29476147e+01
v 6.05205173e+03 5.82225432e+03 3.24427833e+01
v 6.05347558e+03 5.82571395e+03 3.29342382e+01
v 6.05303206e+03 5.82516854e+03 3.24673837e+01
v 6.05375650e+03 5.82654694e+03 3.22032758e+01
v 6.05002307e+03 5.82162138e+03 3.21833099e+01
v 6.04942951e+03 5.81530994e+03 3.16350009e+01
v 6.04973419e+03 5.81519314e+03 3.00375837e+01
v 6.04916110e+03 5.81580802e+03 3.28329904e+01
v 6.04991133e+03 5.81628863e+03 3.39469248e+01
v 6.04933696e+03 5.81574884e+03 3.29920445e+01
v 6.04962560e+03 5.81584106e+03 3.28814222e+01
v 6.05092193e+03 5.81719061e+03 3.18382307e+01
v 6.05090719e+03 5.81680220e+03 3.42904995e+01
v 6.05275569e+03 5.81774177e+03 3.56354814e+01
v 6.04878892e+03 5.81421102e+03 2.62849640e+01
v 6.04887152e+03 5.82523749e+03 3.22498852e+01
v 6.04917575e+03 5.82380399e+03 3.21871068e+01
v 6.04940416e+03 5.82480616e+03 3.28126830e+01
v 6.04086472e+03 5.82898789e+03 2.96941016e+01
v 6.04286919e+03 5.82841800e+03 3.00311685e+01
v 6.04690400e+03 5.82290100e+03 3.16681147e+01
v 6.05075000e+03 5.82437740e+03 3.23723392e+01
v 6.06008793e+03 5.81574587e+03 3.45842902e+01
v 6.05665813e+03 5.81642939e+03 3.66953771e+01
v 6.06161810e+03 5.81667852e+03 3.48538158e+01
v 6.05933645e+03 5.82602386e+03 3.28148823e+01
v 6.06264696e+03 5.82617349e+03 3.28695827e+01
v 6.05620565e+03 5.81942685e+03 3.69376017e+01
v 6.05361835e+03 5.81796845e+03 3.61396467e+01
v 6.05257493e+03 5.81651395e+03 3.40909142e+01
v 6.05818511e+03 5.81934599e+03 3.57115527e+01
v 6.05846129e+03 5.81846194e+03 3.45393071e+01
v 6.05748677e+03 5.82021642e+03 3.42455812e+01
v 6.05453430e+03 5.81956862e+03 3.55851354e+01
v 6.05008464e+03 5.82020409e+03 3.20566306e+01
v 6.05046647e+03 5.81459913e+03 3.05242951e+01
v 6.06219029e+03 5.82494021e+03 3.21362583e+01
v 6.06261941e+03 5.81752522e+03 3.41659610e+01
v 6.06137697e+03 5.82204641e+03 3.35083920e+01
v 6.04732636e+03 5.81758722e+03 2.35937256e+01
v 6.04282746e+03 5.82585497e+03 2.28206093e+01
v 6.04356296e+03 5.82507006e+03 2.35726098e+01
v 6.04420451e+03 5.82326168e+03 2.01707384e+01
v 6.04315104e+03 5.82520360e+03 1.91533821e+01
v 6.04459776e+03 5.82266848e+03 2.40327845e+01
v 6.04147644e+03 5.82888269e+03 1.67819961e+01
v 6.04190020e+03 5.82787475e+03 2.11775510e+01
v 6.04502462e+03 5.82073586e+03 2.96198193e+01
v 6.04523499e+03 5.82111474e+03 1.70099913e+01
v 6.04411304e+03 5.82325721e+03 1.56687488e+01
v 6.04631095e+03 5.81904389e+03 2.10237641e+01
v 6.04182553e+03 5.82908620e+03 2.22772429e+01
v 6.04129771e+03 5.82897725e+03 2.43051626e+01
v 6.04961379e+03 5.81340389e+03 2.39434736e+01
v 6.04361929e+03 5.82494436e+03 2.04047401e+01
v 6.04889100e+03 5.81408821e+03 1.94899797e+01
v 6.04979073e+03 5.81299640e+03 1.69589880e+01
v 6.04373133e+03 5.82437041e+03 1.00000921e+01
v 6.05021495e+03 5.81261853e+03 1.30482828e+01
v 6.04594976e+03 5.81964582e+03 1.51589465e+01
v 6.04611458e+03 5.82002517e+03 1.72422786e+01
v 6.04470756e+03 5.82257973e+03 1.75568737e+01
v 6.04998185e+03 5.81250955e+03 2.06595200e+01
v 6.05838122e+03 5.81396927e+03 3.65200827e+01
v 6.04600321e+03 5.82009621e+03 2.41016384e+01
v 6.05820774e+03 5.81681053e+03 3.54508297e+01
v 6.05735844e+03 5.81897688e+03 3.55912322e+01
v 6.06098456e+03 5.82211862e+03 3.25097023e+01
v 6.05984497e+03 5.82140554e+03 3.27852563e+01
v 6.05945511e+03 5.81646364e+03 3.46257825e+01
v 6.05821601e+03 5.81229813e+03 3.65885930e+01
v 6.04653475e+03 5.81865130e+03 2.40486496e+01
v 6.04928461e+03 5.81817871e+03 3.16228269e+01
v 6.04492050e+03 5.82723488e+03 3.16117890e+01
v 6.05997276e+03 5.82606014e+03 3.29483794e+01
v 6.05509981e+03 5.81499506e+03 3.51858270e+01
v 6.04756911e+03 5.81703589e+03 2.06282403e+01
v 6.04720401e+03 5.81726259e+03 1.92724436e+01
v 6.04577496e+03 5.81979566e+03 1.93129146e+01
v 6.04425042e+03 5.82330761e+03 1.21635410e+01
v 6.04318886e+03 5.82493529e+03 1.15866390e+01
v 6.04818269e+03 5.81501950e+03 2.07107377e+01
v 6.04302790e+03 5.82903315e+03 2.05499586e+01
v 6.04157766e+03 5.82905454e+03 2.03809141e+01
v 6.05244132e+03 5.81245556e+03 3.28134187e+01
v 6.06027346e+03 5.84155110e+03 8.88392174e+00
v 6.06253320e+03 5.83969628e+03 8.10172060e+00
v 6.04697138e+03 5.84087360e+03 9.61824981e+00
v 6.04607954e+03 5.83865459e+03 8.88139085e+00
v 6.04547232e+03 5.84038498e+03 9.70650879e+00
v 6.04486252e+03 5.83913096e+03 8.67394984e+00
v 6.05909424e+03 5.83862464e+03 8.44381327e+00
v 6.05316443e+03 5.84013133e+03 8.75244309e+00
v 6.05291255e+03 5.83733111e+03 8.51910770e+00
v 6.05113281e+03 5.84086190e+03 8.79148640e+00
v 6.04935566e+03 5.83446878e+03 8.77707428e+00
v 6.05035004e+03 5.83755973e+03 8.56261340e+00
v 6.05188664e+03 5.84307054e+03 8.14829560e+00
v 6.05202884e+03 5.84205949e+03 9.49176670e+00
v 6.04594460e+03 5.84262606e+03 8.48174469e+00
v 6.04677746e+03 5.84165786e+03 8.73023852e+00
v 6.04870096e+03 5.84123788e+03 8.95479068e+00
v 6.05778505e+03 5.84168847e+03 7.92296619e+00
v 6.05418306e+03 5.84189708e+03 8.13228828e+00
v 6.05781468e+03 5.84050948e+03 8.50762418e+00
v 6.05402326e+03 5.84321746e+03 8.40771026e+00
v 6.05911822e+03 5.84031506e+03 9.23929457e+00
v 6.05879316e+03 5.84145922e+03 8.61281056e+00
v 6.05585273e+03 5.83265334e+03 8.85895648e+00
v 6.05806035e+03 5.83585911e+03 8.21105353e+00
v 6.06126050e+03 5.83392736e+03 9.09372551e+00
v 6.05303735e+03 5.83878531e+03 8.87605776e+00
v 6.05554056e+03 5.83958455e+03 8.94542448e+00
v 6.04804442e+03 5.83921920e+03 9.08925918e+00
v 6.04582462e+03 5.83613833e+03 8.64298733e+00
v 6.04578680e+03 5.83762694e+03 9.66687410e+00
v 6.04636166e+03 5.83702347e+03 9.61884008e+00
v 6.04751481e+03 5.83828044e+03 9.64276337e+00
v 6.04316754e+03 5.83920815e+03 8.35129751e+00
v 6.04399103e+03 5.83564917e+03 8.56817321e+00
v 6.04148647e+03 5.83495997e+03 8.46858177e+00
v 6.03900381e+03 5.84020481e+03 8.49054661e+00
v 6.04315444e+03 5.83470084e+03 8.91746188e+00
v 6.03759279e+03 5.83687695e+03 8.56458422e+00
v 6.04424293e+03 5.82974361e+03 9.82100546e+00
v 6.04697204e+03 5.83030583e+03 9.42295626e+00
v 6.04214554e+03 5.83135213e+03 8.62574035e+00
v 6.04426686e+03 5.83241765e+03 8.58687161e+00
v 6.05071957e+03 5.83168765e+03 1.04853584e+01
v 6.05004788e+03 5.83266856e+03 9.51353983e+00
v 6.06170856e+03 5.83325352e+03 1.00604493e+01
v 6.05643843e+03 5.83209745e+03 9.61375719e+00
v 6.05871680e+03 5.83313594e+03 9.52861424e+00
v 6.04910112e+03 5.83645815e+03 8.60103158e+00
v 6.04525659e+03 5.83798113e+03 8.59811146e+00
v 6.05767435e+03 5.83850923e+03 8.27430988e+00
v 6.03803296e+03 5.83151479e+03 8.75740871e+00
v 6.04152525e+03 5.82892370e+03 9.61023558e+00
v 6.04278020e+03 5.82996634e+03 9.54669855e+00
v 6.04824271e+03 5.83161497e+03 9.15855903e+00
v 6.05115487e+03 5.84246038e+03 8.49332604e+00
v 6.03961611e+03 5.84373913e+03 8.32836369e+00
v 6.03415151e+03 5.84377433e+03 8.89133428e+00
v 6.04140119e+03 5.82900375e+03 1.17905679e+01
v 6.03519588e+03 5.83230328e+03 8.62065367e+00
v 6.03310831e+03 5.84245925e+03 8.54061817e+00
v 6.03295789e+03 5.84370121e+03 8.85561877e+00
v 6.05294464e+03 5.84259328e+03 8.56233046e+00
v 6.06061499e+03 5.84033179e+03 9.05503445e+00
v 6.06234211e+03 5.84262458e+03 8.45308062e+00
v 6.03290101e+03 5.84391636e+03 1.05155878e+01
v 6.03371843e+03 5.84357720e+03 1.01501569e+01
v 6.05330525e+03 5.83149185e+03 1.32887345e+01
v 6.05632511e+03 5.83217563e+03 1.25941962e+01
v 6.05851527e+03 5.83262213e+03 1.03307764e+01
v 6.05865163e+03 5.84242991e+03 9.38003960e+00
v 6.06026816e+03 5.84314503e+03 9.45623651e+00
v 6.05845556e+03 5.84321930e+03 9.30888884e+00
v 6.05992626e+03 5.83298065e+03 1.18650120e+01
v 6.04605129e+03 5.82986232e+03 1.09011157e+01
v 6.06009930e+03 5.83268460e+03 1.04337064e+01
v 6.05226547e+03 5.83147406e+03 1.01912676e+01
v 6.05254837e+03 5.83154049e+03 1.17097201e+01
v 6.05740183e+03 5.84276356e+03 8.12151702e+00
v 6.04727492e+03 5.83024669e+03 1.55136502e+01
v 6.04605443e+03 5.82972153e+03 1.37039539e+01
v 6.04592649e+03 5.82968922e+03 1.70864645e+01
v 6.04852615e+03 5.83032612e+03 1.72623372e+01
v 6.05128211e+03 5.83053682e+03 1.36105729e+01
v 6.04520788e+03 5.82979318e+03 1.25870982e+01
v 6.05411993e+03 5.83170427e+03 1.50429944e+01
v 6.05034893e+03 5.83097359e+03 1.43759412e+01
v 6.04942966e+03 5.83007755e+03 1.35850936e+01
v 6.05130594e+03 5.83058156e+03 1.67269997e+01
v 6.04831454e+03 5.83042304e+03 1.33080524e+01
v 6.04866193e+03 5.83122285e+03 1.24593068e+01
v 6.04802532e+03 5.83026825e+03 1.42693762e+01
v 6.05951029e+03 5.83263904e+03 1.36962540e+01
v 6.04776494e+03 5.83057884e+03 1.12583121e+01
v 6.04946248e+03 5.83151250e+03 1.05526489e+01
v 6.04341615e+03 5.82942752e+03 1.15845313e+01
v 6.05206789e+03 5.84143409e+03 8.91349103e+00
v 6.05250791e+03 5.83122706e+03 1.76856180e+01
v 6.04447109e+03 5.84140081e+03 8.28991328e+00
v 6.05035748e+03 5.83126572e+03 2.68758090e+01
v 6.05044349e+03 5.83162839e+03 2.69094706e+01
v 6.05191224e+03 5.83111896e+03 2.80227991e+01
v 6.05129402e+03 5.83053106e+03 2.79280589e+01
v 6.04926240e+03 5.82995515e+03 2.77568110e+01
v 6.05105871e+03 5.83162799e+03 2.60779966e+01
v 6.04539949e+03 5.83005932e+03 2.87598784e+01
v 6.04338029e+03 5.82976198e+03 2.96591178e+01
v 6.05235181e+03 5.83159074e+03 2.98316540e+01
v 6.05147190e+03 5.83141024e+03 2.89616092e+01
v 6.05339593e+03 5.83130422e+03 2.79042000e+01
v 6.05975281e+03 5.83241732e+03 2.76140736e+01
v 6.06132909e+03 5.83335956e+03 2.82365103e+01
v 6.05849063e+03 5.83258298e+03 2.79758566e+01
v 6.05162644e+03 5.83190236e+03 1.94229336e+01
v 6.04195745e+03 5.82955312e+03 2.97830427e+01
v 6.04881659e+03 5.83011002e+03 2.71434336e+01
v 6.04979300e+03 5.83016667e+03 2.71072832e+01
v 6.05622632e+03 5.83191365e+03 2.79363791e+01
v 6.05360781e+03 5.82967217e+03 3.05711194e+01
v 6.05500559e+03 5.83181545e+03 2.75620785e+01
v 6.05274668e+03 5.83163396e+03 2.62028985e+01
v 6.04421480e+03 5.82932136e+03 2.79648229e+01
v 6.04653029e+03 5.82964014e+03 2.78979142e+01
v 6.05114745e+03 5.83194528e+03 2.35535312e+01
v 6.05136988e+03 5.83052107e+03 2.03415882e+01
v 6.05197374e+03 5.83095057e+03 2.11254643e+01
v 6.05121744e+03 5.83162711e+03 2.21931650e+01
v 6.05023682e+03 5.83154207e+03 2.31509369e+01
v 6.05368523e+03 5.83149985e+03 2.48649237e+01
v 6.04898386e+03 5.83116607e+03 2.59162451e+01
v 6.05162283e+03 5.83143571e+03 2.54617586e+01
v 6.05208760e+03 5.83097625e+03 2.44383033e+01
v 6.05980205e+03 5.83283185e+03 2.00391204e+01
v 6.05105244e+03 5.83047648e+03 2.38332502e+01
v 6.05587538e+03 5.83194826e+03 2.41596652e+01
v 6.04756945e+03 5.83028758e+03 1.87325790e+01
v 6.04305850e+03 5.82901920e+03 2.39105898e+01
v 6.05171552e+03 5.83095238e+03 2.38480185e+01
v 6.05187156e+03 5.83107334e+03 2.03282535e+01
v 6.04983617e+03 5.83048127e+03 1.74758736e+01
v 6.05020833e+03 5.83133167e+03 1.68656680e+01
v 6.04309716e+03 5.82906074e+03 1.72629864e+01
v 6.04830193e+03 5.81486575e+03 9.34269086e+00
v 6.03237130e+03 5.81505554e+03 1.01778445e+01
v 6.03342328e+03 5.81594023e+03 1.02088749e+01
v 6.04835371e+03 5.81421576e+03 9.65838377e+00
v 6.04771463e+03 5.81748168e+03 9.22566875e+00
v 6.04655795e+03 5.81816876e+03 1.12986028e+01
v 6.04594311e+03 5.81318667e+03 9.90852738e+00
v 6.04529055e+03 5.81297400e+03 9.86749077e+00
v 6.03338407e+03 5.81455322e+03 1.06572430e+01
v 6.03335925e+03 5.81271111e+03 1.00689766e+01
v 6.03121234e+03 5.81856543e+03 9.55730942e+00
v 6.03223324e+03 5.81874253e+03 1.02271685e+01
v 6.03469826e+03 5.81238387e+03 9.89401421e+00
v 6.04137611e+03 5.82846708e+03 1.11091600e+01
v 6.04612609e+03 5.81926253e+03 1.14443030e+01
v 6.04941920e+03 5.81353645e+03 1.05562459e+01
v 6.04846941e+03 5.81449592e+03 1.06828400e+01
v 6.04756445e+03 5.81820807e+03 9.82851089e+00
v 6.04667392e+03 5.81354344e+03 1.04208132e+01
v 6.04761829e+03 5.81587791e+03 1.12065183e+01
v 6.04887259e+03 5.81402121e+03 1.20745347e+01
v 6.04749646e+03 5.81664549e+03 1.21063201e+01
v 6.04402621e+03 5.82354520e+03 1.40075410e+01
v 6.04550459e+03 5.82047881e+03 1.31534313e+01
v 6.04611713e+03 5.81986544e+03 1.36055020e+01
v 6.04867089e+03 5.81431643e+03 1.55287492e+01
v 6.04489644e+03 5.82221354e+03 1.39897914e+01
v 6.04140698e+03 5.82888322e+03 1.49419746e+01
v 6.04148697e+03 5.82900587e+03 1.35270132e+01
v 6.04970374e+03 5.81358264e+03 1.31399929e+01
v 6.04718461e+03 5.81731256e+03 1.56452251e+01
v 6.04484292e+03 5.82256337e+03 2.09205717e+01
v 6.04299350e+03 5.82476516e+03 2.96874645e+01
v 6.04570848e+03 5.82505711e+03 3.02720158e+01
v 6.04749899e+03 5.81711247e+03 2.79980586e+01
v 6.04751672e+03 5.81641139e+03 2.60985405e+01
v 6.04472149e+03 5.82208199e+03 2.62179289e+01
v 6.04482026e+03 5.82247772e+03 2.72504162e+01
v 6.04485947e+03 5.82761938e+03 3.01991758e+01
v 6.05840754e+03 5.82445534e+03 3.22735581e+01
v 6.05486445e+03 5.82420957e+03 3.21721176e+01
v 6.05528038e+03 5.82543932e+03 3.24026178e+01
v 6.04447195e+03 5.82609329e+03 3.01348584e+01
v 6.05325072e+03 5.82061588e+03 3.25762884e+01
v 6.04895330e+03 5.81905805e+03 3.02779471e+01
v 6.05278806e+03 5.81856278e+03 3.21933656e+01
v 6.05392570e+03 5.81798707e+03 3.34433175e+01
v 6.05455900e+03 5.82029741e+03 3.26930100e+01
v 6.04986907e+03 5.81582016e+03 3.32594166e+01
v 6.05886449e+03 5.82556522e+03 3.30139171e+01
v 6.05912910e+03 5.81995861e+03 3.42968608e+01
v 6.05654742e+03 5.81294843e+03 3.53477621e+01
v 6.05992673e+03 5.81992416e+03 3.40314338e+01
v 6.06220936e+03 5.81728763e+03 3.50912672e+01
v 6.06157882e+03 5.81820829e+03 3.39917447e+01
v 6.06165804e+03 5.81612996e+03 3.41472802e+01
v 6.06171177e+03 5.82116580e+03 3.34909588e+01
v 6.05886735e+03 5.81412057e+03 3.58007504e+01
v 6.05757749e+03 5.81634208e+03 3.72523447e+01
v 6.05780899e+03 5.81563400e+03 3.66897216e+01
v 6.05838831e+03 5.81739669e+03 3.52596400e+01
v 6.05776514e+03 5.81638419e+03 3.58687401e+01
v 6.05706383e+03 5.81700100e+03 3.64515090e+01
v 6.05521192e+03 5.81971017e+03 3.63481076e+01
v 6.04874146e+03 5.81424091e+03 2.30086477e+01
v 6.04431595e+03 5.82276037e+03 2.26617307e+01
v 6.04609372e+03 5.82010592e+03 2.04208935e+01
v 6.04143606e+03 5.82853860e+03 1.95162172e+01
v 6.04354153e+03 5.82511987e+03 1.70196296e+01
v 6.04747597e+03 5.81715297e+03 1.77991964e+01
v 6.04820091e+03 5.84222321e+03 8.20218134e+00
v 6.04980494e+03 5.84273827e+03 8.40494120e+00
v 6.05821001e+03 5.84385742e+03 8.16757496e+00
v 6.03100000e+03 5.81783129e+03 9.59472373e+00
v 6.03100000e+03 5.81859014e+03 9.47316244e+00
v 6.03100000e+03 5.82089074e+03 9.35657180e+00
v 6.03100000e+03 5.82087494e+03 9.35243005e+00
v 6.03100000e+03 5.81967938e+03 1.00517491e+01
v 6.03100000e+03 5.81914463e+03 1.00099234e+01
v 6.03100000e+03 5.81663225e+03 9.19774344e+00
v 6.03100000e+03 5.81628225e+03 9.01916061e+00
v 6.03100000e+03 5.81879073e+03 9.66987299e+00
v 6.03100000e+03 5.82084683e+03 9.35778908e+00
v 6.03100000e+03 5.82086344e+03 9.34892814e+00
v 6.03100000e+03 5.81458217e+03 9.08814249e+00
v 6.03100000e+03 5.81612815e+03 9.00184649e+00
v 6.03100000e+03 5.81283611e+03 9.08381543e+00
v 6.03100000e+03 5.82284725e+03 8.95422626e+00
v 6.03100000e+03 5.82249551e+03 8.94457174e+00
v 6.03100000e+03 5.82672088e+03 8.85640127e+00
v 6.03100000e+03 5.82573339e+03 8.86909019e+00
v 6.03100000e+03 5.82988746e+03 8.87712262e+00
v 6.03100000e+03 5.82087029e+03 9.34930776e+00
v 6.03100000e+03 5.82232482e+03 9.42423554e+00
v 6.03100000e+03 5.84372996e+03 8.91965703e+00
v 6.03100000e+03 5.84381255e+03 8.94031416e+00
v 6.03100000e+03 5.84082954e+03 8.68083571e+00
v 6.03100000e+03 5.84214370e+03 8.67781757e+00
v 6.03100000e+03 5.83695150e+03 8.63543466e+00
v 6.03100000e+03 5.83238178e+03 8.75215546e+00
v 6.03100000e+03 5.84281513e+03 8.64391092e+00
v 6.06275000e+03 5.82716227e+03 3.24325200e+01
v 6.06275000e+03 5.82698319e+03 3.24694343e+01
v 6.06275000e+03 5.82517442e+03 3.22954787e+01
v 6.06275000e+03 5.82589327e+03 3.27116861e+01
v 6.06275000e+03 5.82830316e+03 3.22506779e+01
v 6.06275000e+03 5.82976457e+03 3.19559941e+01
v 6.06275000e+03 5.81417413e+03 3.51470519e+01
v 6.06275000e+03 5.81412643e+03 3.51316895e+01
v 6.06275000e+03 5.81753144e+03 3.43347803e+01
v 6.06275000e+03 5.81759841e+03 3.42908773e+01
v 6.06275000e+03 5.81519048e+03 3.51564154e+01
v 6.06275000e+03 5.81647440e+03 3.51646774e+01
v 6.06275000e+03 5.81571794e+03 3.51460253e+01
v 6.06275000e+03 5.81344997e+03 3.32845476e+01
v 6.06275000e+03 5.81400789e+03 3.31934196e+01
v 6.06275000e+03 5.82271028e+03 3.18010599e+01
v 6.06275000e+03 5.82280561e+03 3.24721661e+01
v 6.06275000e+03 5.82325580e+03 3.18752730e+01
v 6.06275000e+03 5.82347274e+03 3.19733009e+01
v 6.06275000e+03 5.81764175e+03 3.41406907e+01
v 6.06275000e+03 5.82671155e+03 3.24124815e+01
v 6.06275000e+03 5.82676172e+03 3.24291840e+01
v 6.06275000e+03 5.82661105e+03 3.24298545e+01
v 6.06275000e+03 5.81922832e+03 3.33565185e+01
v 6.06275000e+03 5.81993482e+03 3.33087274e+01
v 6.06275000e+03 5.81741639e+03 3.51027144e+01
v 6.06275000e+03 5.81413375e+03 3.50479003e+01
v 6.06275000e+03 5.81416437e+03 3.35731144e+01
v 6.06275000e+03 5.81328239e+03 3.33527768e+01
v 6.06275000e+03 5.82010600e+03 3.32940981e+01
v 6.06275000e+03 5.81871651e+03 3.34954535e+01
v 6.06275000e+03 5.81824950e+03 3.39990598e+01
v 6.06275000e+03 5.82247787e+03 3.29909197e+01
v 6.06275000e+03 5.82615959e+03 3.28155346e+01
v 6.06275000e+03 5.82767591e+03 3.23741714e+01
v 6.06275000e+03 5.82460105e+03 3.21656698e+01
v 6.06275000e+03 5.83347331e+03 1.56218868e+01
v 6.06275000e+03 5.83360059e+03 1.41098122e+01
v 6.06275000e+03 5.83408053e+03 2.96596943e+01
v 6.06275000e+03 5.83361971e+03 2.98182173e+01
v 6.06275000e+03 5.83125082e+03 3.16551356e+01
v 6.06275000e+03 5.83157382e+03 3.06019784e+01
v 6.06275000e+03 5.83245456e+03 3.01217166e+01
v 6.06275000e+03 5.83164589e+03 3.05002141e+01
v 6.06275000e+03 5.83363081e+03 2.61807694e+01
v 6.06275000e+03 5.83335900e+03 2.73915286e+01
v 6.06275000e+03 5.83342612e+03 1.72743651e+01
v 6.06275000e+03 5.83358249e+03 1.85496951e+01
v 6.06275000e+03 5.83352880e+03 2.04755626e+01
v 6.06275000e+03 5.83350928e+03 2.06809200e+01
v 6.06275000e+03 5.83352176e+03 2.09434294e+01
v 6.06275000e+03 5.83350466e+03 2.47580387e+01
v 6.06275000e+03 5.83313912e+03 2.40624278e+01
v 6.06275000e+03 5.83362116e+03 2.27379225e+01
v 6.06275000e+03 5.83158670e+03 3.05475005e+01
v 6.06275000e+03 5.83339851e+03 2.79733976e+01
v 6.06275000e+03 5.83331019e+03 2.76918605e+01
v 6.06275000e+03 5.84314567e+03 8.42269022e+00
v 6.06275000e+03 5.83349915e+03 1.10117273e+01
v 6.06275000e+03 5.83353634e+03 1.18772525e+01
v 6.06275000e+03 5.83353093e+03 1.30174861e+01
v 6.06275000e+03 5.83334068e+03 9.30784260e+00
v 6.06275000e+03 5.83352256e+03 8.97787170e+00
v 6.06275000e+03 5.83412234e+03 8.96244082e+00
v 6.06275000e+03 5.84274449e+03 8.48295581e+00
v 6.06275000e+03 5.84245901e+03 8.52072400e+00
v 6.06275000e+03 5.83990011e+03 8.24045933e+00
v 6.06275000e+03 5.84208555e+03 8.57351812e+00
v 6.06275000e+03 5.83983827e+03 8.16857687e+00
v 6.06275000e+03 5.83972667e+03 8.10082264e+00
v 6.06275000e+03 5.83357731e+03 2.32680426e+01
v 6.06275000e+03 5.83958014e+03 8.11215273e+00
v 6.06275000e+03 5.83678840e+03 8.25751502e+00
v 6.06275000e+03 5.83473798e+03 8.65739463e+00
v 6.05693193e+03 5.81225000e+03 3.54009737e+01
v 6.05821683e+03 5.81225000e+03 3.65689152e+01
v 6.05102394e+03 5.81225000e+03 3.03216638e+01
v 6.05047769e+03 5.81225000e+03 3.00365771e+01
v 6.04955226e+03 5.81225000e+03 2.87541032e+01
v 6.04930868e+03 5.81225000e+03 2.91831091e+01
v 6.04970350e+03 5.81225000e+03 1.56556786e+01
v 6.04996925e+03 5.81225000e+03 1.64347466e+01
v 6.04999224e+03 5.81225000e+03 1.77853457e+01
v 6.04971045e+03 5.81225000e+03 1.95273300e+01
v 6.05004361e+03 5.81225000e+03 2.05062751e+01
v 6.05003476e+03 5.81225000e+03 2.12947148e+01
v 6.04979743e+03 5.81225000e+03 2.30560378e+01
v 6.04996297e+03 5.81225000e+03 2.34095943e+01
v 6.04998435e+03 5.81225000e+03 2.47877217e+01
v 6.05135750e+03 5.81225000e+03 3.17495353e+01
v 6.05127694e+03 5.81225000e+03 3.18832889e+01
v 6.04970058e+03 5.81225000e+03 2.62586341e+01
v 6.05283368e+03 5.81225000e+03 3.29789276e+01
v 6.05500326e+03 5.81225000e+03 3.42557118e+01
v 6.05828356e+03 5.81225000e+03 3.65899128e+01
v 6.05824014e+03 5.81225000e+03 3.65897720e+01
v 6.05909565e+03 5.81225000e+03 3.65825748e+01
v 6.05891049e+03 5.81225000e+03 3.66305281e+01
v 6.05926325e+03 5.81225000e+03 3.63646520e+01
v 6.05657915e+03 5.81225000e+03 3.51698852e+01
v 6.05593793e+03 5.81225000e+03 3.47818510e+01
v 6.05970167e+03 5.81225000e+03 3.58530513e+01
v 6.05249973e+03 5.81225000e+03 3.27889697e+01
v 6.05160775e+03 5.81225000e+03 3.21280552e+01
v 6.05138631e+03 5.81225000e+03 3.03270828e+01
v 6.04967380e+03 5.81225000e+03 2.97220144e+01
v 6.04924720e+03 5.81225000e+03 2.94301732e+01
v 6.05010544e+03 5.81225000e+03 2.69412435e+01
v 6.05005323e+03 5.81225000e+03 2.76892713e+01
v 6.04986677e+03 5.81225000e+03 1.16729701e+01
v 6.05007683e+03 5.81225000e+03 9.61248295e+00
v 6.05026913e+03 5.81225000e+03 1.31873809e+01
v 6.05012649e+03 5.81225000e+03 1.25971615e+01
v 6.04999232e+03 5.81225000e+03 1.46004715e+01
v 6.05021449e+03 5.81225000e+03 1.37569314e+01
v 6.04979132e+03 5.81225000e+03 1.20600407e+01
v 6.04814633e+03 5.81225000e+03 9.35103202e+00
v 6.04639977e+03 5.81225000e+03 9.53996916e+00
v 6.04825547e+03 5.81225000e+03 9.35120161e+00
v 6.04829335e+03 5.81225000e+03 9.33124092e+00
v 6.03471284e+03 5.81225000e+03 9.83792655e+00
v 6.03376128e+03 5.81225000e+03 9.86556517e+00
v 6.03832036e+03 5.81225000e+03 9.22003233e+00
v 6.03902704e+03 5.81225000e+03 9.24640758e+00
v 6.03544492e+03 5.81225000e+03 9.43558181e+00
v 6.03310238e+03 5.81225000e+03 9.53514099e+00
v 6.04056953e+03 5.81225000e+03 9.28993589e+00
v 6.04382476e+03 5.81225000e+03 9.20971332e+00
v 6.05007057e+03 5.81225000e+03 9.60032067e+00
v 6.04928395e+03 5.81225000e+03 9.33649967e+00
v 6.04456375e+03 5.81225000e+03 9.24587147e+00
v 6.04517998e+03 5.81225000e+03 9.16404551e+00
v 6.03564028e+03 5.81225000e+03 9.43001499e+00
v 6.03217977e+03 5.81225000e+03 9.10596115e+00
v 6.03278672e+03 5.81225000e+03 9.11810157e+00
v 6.03264861e+03 5.81225000e+03 9.11533914e+00
v 6.03100000e+03 5.81225000e+03 9.12786642e+00
v 6.06255896e+03 5.81225000e+03 3.38405310e+01
v 6.06275000e+03 5.81225000e+03 3.37059733e+01
v 6.06176041e+03 5.84400000e+03 8.44028953e+00
v 6.03510776e+03 5.84400000e+03 9.78578901e+00
v 6.03494702e+03 5.84400000e+03 8.87349185e+00
v 6.03522028e+03 5.84400000e+03 1.03564499e+01
v 6.05630464e+03 5.84400000e+03 7.87034738e+00
v 6.05604257e+03 5.84400000e+03 7.85948761e+00
v 6.03290355e+03 5.84400000e+03 1.05297315e+01
v 6.03388059e+03 5.84400000e+03 1.04889161e+01
v 6.03284315e+03 5.84400000e+03 9.05598964e+00
v 6.03284670e+03 5.84400000e+03 8.87134379e+00
v 6.03286780e+03 5.84400000e+03 1.05075849e+01
v 6.03845156e+03 5.84400000e+03 8.51872043e+00
v 6.05849581e+03 5.84400000e+03 8.12786004e+00
v 6.05837382e+03 5.84400000e+03 8.17769632e+00
v 6.05721045e+03 5.84400000e+03 8.00695061e+00
v 6.05234198e+03 5.84400000e+03 8.18507116e+00
v 6.05187126e+03 5.84400000e+03 8.25125285e+00
v 6.05826016e+03 5.84400000e+03 8.16562176e+00
v 6.05583155e+03 5.84400000e+03 7.93050485e+00
v 6.05305194e+03 5.84400000e+03 8.27227611e+00
v 6.06050293e+03 5.84400000e+03 8.73825504e+00
v 6.05937833e+03 5.84400000e+03 8.68558130e+00
v 6.04867655e+03 5.84400000e+03 8.43247397e+00
v 6.04530182e+03 5.84400000e+03 8.50272920e+00
v 6.04075634e+03 5.84400000e+03 8.29841464e+00
v 6.04447221e+03 5.84400000e+03 8.22276821e+00
v 6.03997286e+03 5.84400000e+03 8.33537114e+00
v 6.03979057e+03 5.84400000e+03 8.37363573e+00
v 6.03930473e+03 5.84400000e+03 8.42571842e+00
v 6.03260007e+03 5.84400000e+03 8.82527872e+00
v 6.04503528e+03 5.84400000e+03 8.30819834e+00
v 6.05046234e+03 5.84400000e+03 8.39674084e+00
v 6.06115667e+03 5.84400000e+03 8.76856423e+00
v 6.03109345e+03 5.84400000e+03 8.90455128e+00
v 6.03100000e+03 5.84400000e+03 8.90946786e+00
v 6.06261487e+03 5.84400000e+03 8.40554842e+00
v 6.06275000e+03 5.84400000e+03 8.40005459e+00
vt 0.21740061 0.51184052
vt 0.22707173 0.51219344
vt 0.22705331 0.53757942
vt 0.18807973 0.59973723
vt 0.23726854 0.5155127
vt 0.24766876 0.59548545
vt 0.13619712 0.51653636
vt 0.25352573 0.52880466
vt 0.21183762 0.6598413
vt 0.11522689 0.58830428
vt 0.15330906 0.50091004
vt 0.2652584 0.56164408
vt 0.14884079 0.70238543
vt 0.11033057 0.702613
vt 0.063101232 0.54590058
vt 0.20417325 0.50089431
vt 0.12920812 0.50091827
vt 0.27414095 0.54174173
vt 0.26497892 0.58261973
vt 0.17877519 0.73162073
vt 0.1004137 0.66284776
vt 0.075209565 0.5050621
vt 0.041683901 0.56880939
vt 0.2157196 0.50089025
vt 0.11816654 0.50092208
vt 0.27494273 0.53158247
vt 0.26262853 0.59396493
vt 0.14905417 0.72165298
vt 0.11871878 0.73533404
vt 0.034133334 0.74413651
vt 0.086399727 0.60983151
vt 0.052461114 0.58604658
vt 0.15707493 0.73979509
vt 0.011384311 0.65512669
vt 0.076287575 0.50093377
vt 0.033622585 0.58976698
vt 0.16517152 0.75775087
vt 0.069455452 0.81427693
vt 0.0038425515 0.66654414
vt 0.01742127 0.62277615
vt 0.16287799 0.76983064
vt 0.11377924 0.80194116
vt 0.0038791511 0.77654856
vt 0.0038582298 0.71164107
vt 0.003840893 0.66104829
vt 0.0039349198 0.63562852
vt 0.10693119 0.88572925
vt 0.0038933484 0.81552368
vt 0.003863387 0.72707069
vt 0.0038275807 0.63597
vt 0.17803934 0.79937989
vt 0.16776156 0.85575736
vt 0.0039369985 0.94752103
vt 0.0039179446 0.88692677
vt 0.0038339857 0.65837705
vt 0.003827553 0.63572311
vt 0.18793735 0.77771544
vt 0.12899619 0.93772072
vt 0.0039436868 0.96805477
vt 0.0038275688 0.63565046
vt 0.16832258 0.76142985
vt 0.210788 0.77422529
vt 0.21119098 0.81601828
vt 0.036889497 0.97297591
vt 0.19405146 0.92212802
vt 0.1938168 0.8516959
vt 0.13858329 0.99294299
vt 0.2068978 0.86651254
vt 0.21443127 0.95638233
vt 0.0039475122 0.97854626
vt 0.25343835 0.78299975
vt 0.053191647 0.99351567
vt 0.23554924 0.87414575
vt 0.22053111 0.92091048
vt 0.0039486671 0.99283808
vt 0.27330264 0.80345106
vt 0.06562297 0.99703783
vt 0.034541491 0.99237961
vt 0.1564011 0.99701351
vt 0.22668366 0.9029429
vt 0.23005258 0.94049215
vt 0.29071176 0.84803987
vt 0.12038612 0.99702322
vt 0.21446277 0.99699539
vt 0.14415877 0.99701715
vt 0.23954211 0.913459
vt 0.25347912 0.94812018
vt 0.0039488249 0.99412835
vt 0.30150944 0.81990129
vt 0.28674686 0.87912679
vt 0.13371815 0.99701977
vt 0.23745878 0.97551775
vt 0.14131007 0.99701774
vt 0.23495299 0.89739639
vt 0.2504642 0.96038306
vt 0.02895233 0.99705017
vt 0.39221865 0.81963992
vt 0.30626741 0.89633304
vt 0.24393271 0.88796473
vt 0.22325973 0.99699175
vt 0.26195684 0.90759891
vt 0.2702437 0.92226934
vt 0.27271518 0.9692142
vt 0.0054102689 0.99705708
vt 0.032805372 0.9970485
vt 0.4267371 0.86972481
vt 0.34630612 0.89274824
vt 0.22742204 0.99698865
vt 0.280514 0.95380914
vt 0.0039501623 0.9970575
vt 0.43696404 0.82716
vt 0.31851208 0.94792354
vt 0.28015316 0.9969722
vt 0.2977784 0.97725219
vt 0.47671887 0.83951694
vt 0.42071846 0.91113448
vt 0.35025296 0.9364984
vt 0.49999496 0.84255719
vt 0.38737497 0.9279412
vt 0.44290289 0.91292906
vt 0.33312407 0.95685822
vt 0.30805677 0.99696344
vt 0.31886858 0.97290254
vt 0.50000191 0.85217941
vt 0.49999174 0.83318543
vt 0.42291835 0.94238567
vt 0.34825897 0.91546631
vt 0.49664652 0.92965913
vt 0.44327617 0.93933469
vt 0.36618578 0.9640888
vt 0.33250985 0.96662527
vt 0.330073 0.9969576
vt 0.33030999 0.98243558
vt 0.50001729 0.88422084
vt 0.50003326 0.92784321
vt 0.46666563 0.93959016
vt 0.34683362 0.97496939
vt 0.3374289 0.99695581
vt 0.43821064 0.9572196
vt 0.42246875 0.96081287
vt 0.50003409 0.93013281
vt 0.4613376 0.95864528
vt 0.36369219 0.98471814
vt 0.41648391 0.9776113
vt 0.50003386 0.931876
vt 0.49367106 0.97541189
vt 0.39525485 0.99693996
vt 0.34852096 0.99695146
vt 0.4359946 0.97238052
vt 0.43293577 0.9847163
vt 0.39934954 0.99693853
vt 0.50003326 0.93284166
vt 0.46125564 0.98354542
vt 0.39195675 0.99694043
vt 0.42911664 0.99469852
vt 0.50004017 0.96698624
vt 0.48458907 0.9969058
vt 0.41350114 0.99693274
vt 0.50004268 0.97282213
vt 0.47515151 0.99690598
vt 0.49794063 0.99690181
vt 0.46493721 0.99690956
vt 0.42990097 0.99692601
vt 0.50004458 0.97728312
vt 0.50004739 0.98355204
vt 0.44736597 0.9969157
vt 0.43167683 0.99692535
vt 0.50005198 0.99690115
vt 0.43358344 0.99692518
vt 0.83717865 0.57655489
vt 0.83673459 0.60356379
vt 0.81411064 0.60642374
vt 0.77213991 0.60281706
vt 0.83286881 0.63255024
vt 0.76838577 0.55175889
vt 0.81296873 0.55599713
vt 0.74236673 0.57536602
vt 0.74800223 0.63422167
vt 0.8058694 0.53341562
vt 0.83838075 0.54894811
vt 0.73431671 0.59611923
vt 0.72738719 0.55286056
vt 0.73600596 0.61493325
vt 0.78748882 0.65881848
vt 0.74694991 0.52614105
vt 0.7260083 0.58732039
vt 0.7327227 0.53927112
vt 0.71231598 0.57261783
vt 0.72410417 0.63791537
vt 0.81368548 0.65795076
vt 0.75396699 0.66382289
vt 0.76632363 0.49986255
vt 0.83944094 0.52075028
vt 0.71714205 0.60492462
vt 0.69950795 0.54919863
vt 0.7068373 0.55583918
vt 0.68458527 0.62477088
vt 0.73151356 0.65243411
vt 0.84120649 0.66387558
vt 0.81343764 0.68801069
vt 0.77542943 0.69755852
vt 0.72114617 0.53390658
vt 0.81042707 0.50099754
vt 0.73520505 0.50712025
vt 0.83809358 0.4987092
vt 0.70150763 0.6085
vt 0.70675361 0.593086
vt 0.68298954 0.55530918
vt 0.69996208 0.63956577
vt 0.71520221 0.65213913
vt 0.74395055 0.68083572
vt 0.71517313 0.66301626
vt 0.70046329 0.54392815
vt 0.77947813 0.48241419
vt 0.73057628 0.4919588
vt 0.83941162 0.47210389
vt 0.69409084 0.5883373
vt 0.66464263 0.55713475
vt 0.6958918 0.64671665
vt 0.68548733 0.64462101
vt 0.67320698 0.61060327
vt 0.84070206 0.69721544
vt 0.79548877 0.71928918
vt 0.74641073 0.70164585
vt 0.68015194 0.52622485
vt 0.69847029 0.50691062
vt 0.7390278 0.46000302
vt 0.8076756 0.46792841
vt 0.71339715 0.49742281
vt 0.6779843 0.58154607
vt 0.68381685 0.54426634
vt 0.65782678 0.625489
vt 0.6829049 0.59983158
vt 0.69810158 0.65798259
vt 0.83866918 0.72369778
vt 0.7765218 0.72936517
vt 0.75913131 0.71761024
vt 0.7296111 0.69363743
vt 0.71980411 0.68290603
vt 0.76624423 0.45649374
vt 0.72461897 0.47654587
vt 0.67471164 0.5979991
vt 0.65461498 0.57848555
vt 0.67045414 0.5402962
vt 0.66364771 0.6428237
vt 0.65516841 0.60223579
vt 0.69429862 0.67685401
vt 0.68793488 0.65341091
vt 0.80825037 0.74377
vt 0.73371732 0.72606087
vt 0.68417788 0.49666166
vt 0.70036387 0.49345511
vt 0.81722492 0.43496454
vt 0.75156099 0.43261611
vt 0.79453897 0.44005811
vt 0.71190715 0.44656062
vt 0.59601688 0.57807046
vt 0.63913059 0.51541317
vt 0.67727208 0.65226674
vt 0.64617735 0.66643786
vt 0.63584429 0.60803032
vt 0.67842394 0.6754868
vt 0.83060116 0.74611008
vt 0.78137153 0.74663365
vt 0.72312194 0.70492983
vt 0.70814562 0.69227576
vt 0.65196514 0.48907906
vt 0.83749914 0.43896824
vt 0.68710309 0.48173255
vt 0.5209533 0.54298788
vt 0.53645593 0.51959538
vt 0.67145538 0.66128802
vt 0.61168361 0.6545639
vt 0.60729605 0.63350129
vt 0.69269699 0.69554818
vt 0.84802878 0.74633229
vt 0.71627152 0.71486521
vt 0.70784128 0.70433962
vt 0.67060131 0.48680091
vt 0.73086447 0.4247179
vt 0.69216686 0.44516838
vt 0.53238583 0.57082438
vt 0.59804559 0.60598922
vt 0.60436481 0.47676229
vt 0.61088085 0.68410212
vt 0.66075885 0.68638867
vt 0.74738139 0.74257451
vt 0.71838808 0.74141359
vt 0.69378883 0.70041847
vt 0.66372883 0.46463448
vt 0.70199877 0.4271692
vt 0.68322891 0.46733207
vt 0.54975188 0.58927912
vt 0.50330597 0.54551494
vt 0.50325382 0.52005625
vt 0.55435097 0.49266791
vt 0.56575531 0.65723604
vt 0.55410814 0.63206166
vt 0.68588513 0.69551069
vt 0.68418056 0.71600342
vt 0.60260838 0.43136293
vt 0.6681692 0.44153851
vt 0.50328004 0.59423655
vt 0.50322014 0.56457001
vt 0.50315112 0.49650198
vt 0.5476101 0.46362382
vt 0.65086085 0.71355605
vt 0.5739767 0.68654591
vt 0.68711275 0.68425554
vt 0.67710614 0.70336902
vt 0.68084204 0.72915637
vt 0.56985223 0.4410255
vt 0.61137873 0.41800779
vt 0.50329548 0.59744239
vt 0.50318259 0.47998345
vt 0.50316435 0.46250015
vt 0.62539303 0.70696962
vt 0.57049 0.7114386
vt 0.53918034 0.68263626
vt 0.54742002 0.65538406
vt 0.66699851 0.74205297
vt 0.67414594 0.71573341
vt 0.56635964 0.42718536
vt 0.50329071 0.60142523
vt 0.50317752 0.44935602
vt 0.54508376 0.44263351
vt 0.62353921 0.7382828
vt 0.60627621 0.71257353
vt 0.55088931 0.70658433
vt 0.52537084 0.65428603
vt 0.50324881 0.62860835
vt 0.51958418 0.43539262
vt 0.5705474 0.73377198
vt 0.52567309 0.7134428
vt 0.50325924 0.42374259
vt 0.51639438 0.69228375
vt 0.50328434 0.63686395
vt 0.52612585 0.41844773
vt 0.52293038 0.73347354
vt 0.50328684 0.68131793
vt 0.5034802 0.70070112
vt 0.50358111 0.65038073
vt 0.50313604 0.41812843
vt 0.5034619 0.70949292
vt 0.50335103 0.65991193
vt 0.50351602 0.70545197
vt 0.50303757 0.73322636
vt 0.19429862 0.42685395
vt 0.20814563 0.4422757
vt 0.1858851 0.44551069
vt 0.062328752 0.08986336
vt 0.081256822 0.082317293
vt 0.11124696 0.091930687
vt 0.1064335 0.12017643
vt 0.075072192 0.05654645
vt 0.092769705 0.058411777
vt 0.13097905 0.12047756
vt 0.075821199 0.12976909
vt 0.04522929 0.039821327
vt 0.12838386 0.081509054
vt 0.17432676 0.13833338
vt 0.11110014 0.14575619
vt 0.053994082 0.15225142
vt 0.019315423 0.074459434
vt 0.12425205 0.042288601
vt 0.12681818 0.0666641
vt 0.18090732 0.080942452
vt 0.15959933 0.10719311
vt 0.013588462 0.13414532
vt 0.013749425 0.052045882
vt 0.16554892 0.047149539
vt 0.14882071 0.16681957
vt 0.17225721 0.11489105
vt 0.080890551 0.16718996
vt 0.01404479 0.1627242
vt 0.011822829 0.085550904
vt 0.015822623 0.041006148
vt 0.19762692 0.046305954
vt 0.16997388 0.17123383
vt 0.12456191 0.17554557
vt 0.077211522 0.19941568
vt 0.0038582708 0.035682261
vt 0.19926283 0.078565896
vt 0.18688206 0.17593193
vt 0.14486793 0.20389992
vt 0.21995319 0.12227386
vt 0.031138299 0.23058492
vt 0.22697952 0.091584861
vt 0.21548629 0.14624316
vt 0.11163383 0.21551991
vt 0.083900318 0.21949553
vt 0.018703302 0.20456249
vt 0.23870227 0.077210069
vt 0.17108716 0.20229465
vt 0.21962799 0.17999119
vt 0.12566912 0.22779304
vt 0.24306314 0.15200692
vt 0.065867774 0.25601709
vt 0.013385965 0.24856919
vt 0.011609426 0.19153053
vt 0.20511867 0.058013499
vt 0.27318969 0.091511726
vt 0.16869877 0.22038335
vt 0.21633397 0.20228565
vt 0.14984114 0.24790031
vt 0.11950267 0.25377136
vt 0.07418298 0.3071872
vt 0.011578715 0.27868664
vt 0.012250399 0.21871275
vt 0.2357 0.048327744
vt 0.2638422 0.069605291
vt 0.1852345 0.22915053
vt 0.26770279 0.1447413
vt 0.010331173 0.31278706
vt 0.081757717 0.26844668
vt 0.21643561 0.048326433
vt 0.25749463 0.048893869
vt 0.28358644 0.068745732
vt 0.22190087 0.22379225
vt 0.254576 0.22445053
vt 0.12261549 0.27546567
vt 0.28475079 0.10931563
vt 0.27237427 0.20620006
vt 0.047557075 0.34988773
vt 0.30479422 0.085726917
vt 0.26709697 0.053264797
vt 0.2292701 0.2569977
vt 0.16827121 0.27705896
vt 0.30176336 0.10806406
vt 0.30376494 0.14692402
vt 0.2936793 0.16795564
vt 0.088630855 0.32621729
vt 0.012402924 0.33942503
vt 0.13177685 0.30893624
vt 0.30431411 0.091548622
vt 0.30612797 0.054331481
vt 0.19227128 0.27599251
vt 0.26925322 0.26040053
vt 0.306454 0.10055661
vt 0.30560425 0.13122892
vt 0.30561361 0.18044245
vt 0.11513967 0.3427797
vt 0.0086810589 0.36105347
vt 0.30608803 0.054130316
vt 0.2124975 0.26962602
vt 0.30185419 0.22507942
vt 0.17739148 0.31195098
vt 0.30736586 0.10997826
vt 0.307019 0.11866367
vt 0.30546275 0.15952396
vt 0.30382124 0.20676476
vt 0.082492337 0.36144292
vt 0.12676562 0.32547468
vt 0.30106884 0.048391581
vt 0.23049085 0.3076179
vt 0.26999241 0.31109917
vt 0.30589569 0.23476017
vt 0.16208754 0.32384098
vt 0.15292135 0.36086679
vt 0.28675991 0.27589488
vt 0.30594969 0.22259563
vt 0.30438706 0.26147527
vt 0.16993335 0.3435638
vt 0.22038384 0.33759755
vt 0.26496646 0.34839475
vt 0.30558494 0.28862876
vt 0.20715934 0.36054009
vt 0.29424757 0.3266902
vt 0.30377907 0.31075817
vt 0.30544424 0.26728833
vt 0.30284059 0.34900558
vt 0.24664731 0.36016989
vt 0.30636406 0.3221615
vt 0.30603328 0.33361
vt 0.30128798 0.35512006
vt 0.28405577 0.3599754
vt 0.24986939 0.3662985
vt 0.26126033 0.37181062
vt 0.3008965 0.35880786
vt 0.71376449 0.98535037
vt 0.70495725 0.99571216
vt 0.6834721 0.9950431
vt 0.63922489 0.96508861
vt 0.6488663 0.98466259
vt 0.73851383 0.94864845
vt 0.77769911 0.95885009
vt 0.66004634 0.93117106
vt 0.76332253 0.93742061
vt 0.59098577 0.91587645
vt 0.71526897 0.92389983
vt 0.77909297 0.93991476
vt 0.64525878 0.91173148
vt 0.76689184 0.92001343
vt 0.74532396 0.89864403
vt 0.58049273 0.89816195
vt 0.67579305 0.9006201
vt 0.77863067 0.90672106
vt 0.50510395 0.88148105
vt 0.71759206 0.8897419
vt 0.50511873 0.88077164
vt 0.50473022 0.89606649
vt 0.57482117 0.87909174
vt 0.66711158 0.88270694
vt 0.50518894 0.87959093
vt 0.53692788 0.87804437
vt 0.62554932 0.86797416
vt 0.55229038 0.8596555
vt 0.50615138 0.86619878
vt 0.5274443 0.84636384
vt 0.57392615 0.85500944
vt 0.50754088 0.84937978
vt 0.50808996 0.84233373
vt 0.87642336 0.84599209
vt 0.88266641 0.83028448
vt 0.88902521 0.85900873
vt 0.87023294 0.866467
vt 0.86299312 0.83930486
vt 0.90176654 0.87045175
vt 0.85778856 0.8075887
vt 0.9259643 0.84969425
vt 0.82683116 0.84353364
vt 0.82135344 0.80963701
vt 0.90385926 0.80571491
vt 0.93000197 0.81886077
vt 0.83133548 0.8649317
vt 0.78655869 0.81118762
vt 0.81687599 0.79573691
vt 0.88936663 0.79375994
vt 0.81504035 0.85817587
vt 0.80504692 0.84951109
vt 0.84875333 0.79362285
vt 0.93129408 0.79575175
vt 0.74720252 0.81429803
vt 0.78283447 0.79583484
vt 0.83602417 0.75668657
vt 0.93366617 0.76055121
vt 0.76136798 0.80132806
vt 0.75916445 0.78787714
vt 0.76562721 0.76033109
vt 0.89027894 0.75422478
vt 0.74151766 0.80150139
vt 0.71519011 0.7841078
vt 0.69184935 0.76349205
vt 0.70867848 0.81594926
vt 0.69271147 0.77892578
vt 0.70097208 0.79346383
vt 0.39102459 0.71689898
vt 0.38051254 0.72898829
vt 0.37379548 0.71233225
vt 0.38905549 0.68589973
vt 0.38836068 0.74196541
vt 0.36835006 0.74118888
vt 0.36585543 0.67077482
vt 0.41010624 0.69131327
vt 0.39736184 0.7310226
vt 0.37489322 0.7469573
vt 0.3501035 0.72962189
vt 0.38578951 0.67089427
vt 0.34494552 0.70061755
vt 0.42235145 0.6676923
vt 0.40217414 0.66481364
vt 0.30367282 0.67873019
vt 0.4146176 0.73050553
vt 0.42407709 0.68820548
vt 0.32195279 0.71371531
vt 0.42831603 0.72222352
vt 0.45785365 0.66472769
vt 0.27775991 0.68978941
vt 0.47627863 0.6826508
vt 0.46067989 0.70268208
vt 0.28281468 0.67385578
vt 0.47453624 0.67118192
vt 0.25617945 0.66251206
vt 0.47817039 0.69781029
vt 0.48314536 0.66030014
vt 0.25328261 0.67399108
vt 0.49195653 0.68195963
vt 0.25546786 0.68316865
vt 0.56445163 0.29236102
vt 0.55731905 0.27309978
vt 0.56606376 0.27675503
vt 0.56606221 0.28798342
vt 0.55974501 0.30326879
vt 0.56606251 0.26779711
vt 0.56606221 0.2921437
vt 0.56606936 0.29920137
vt 0.53564876 0.29853666
vt 0.56605917 0.25016898
vt 0.56607008 0.30077177
vt 0.52072096 0.28099293
vt 0.56607211 0.30781418
vt 0.56022835 0.24532479
vt 0.56607014 0.30155551
vt 0.56607544 0.31584042
vt 0.56607074 0.30501574
vt 0.56605929 0.24678004
vt 0.498209 0.26554155
vt 0.56608015 0.32564229
vt 0.50534523 0.28287458
vt 0.50151831 0.23430693
vt 0.49555829 0.29843038
vt 0.51272458 0.29004019
vt 0.44284785 0.26172024
vt 0.53846049 0.22901475
vt 0.47807422 0.35202312
vt 0.52266544 0.29060274
vt 0.44935009 0.28093094
vt 0.46112838 0.1983332
vt 0.52064723 0.21787608
vt 0.56609124 0.34847975
vt 0.42554751 0.29824722
vt 0.42114466 0.28522646
vt 0.41760984 0.20557284
vt 0.5661025 0.37170523
vt 0.41421768 0.27671081
vt 0.39920482 0.20968652
vt 0.37855747 0.26436162
vt 0.39888558 0.23118109
vt 0.69794095 0.32087106
vt 0.69348156 0.31186849
vt 0.70731479 0.31673241
vt 0.72783107 0.32795763
vt 0.69523078 0.33625698
vt 0.73160398 0.30585247
vt 0.74190116 0.31940746
vt 0.70428509 0.32803613
vt 0.67274988 0.30417401
vt 0.70370227 0.28958195
vt 0.75636107 0.33038014
vt 0.72469294 0.33507293
vt 0.67571974 0.34431392
vt 0.69112635 0.28787726
vt 0.71881086 0.3377865
vt 0.76058578 0.30330044
vt 0.72221822 0.27894557
vt 0.77360487 0.31092405
vt 0.71477723 0.34867275
vt 0.64597714 0.277637
vt 0.6677078 0.27728605
vt 0.75599992 0.29161572
vt 0.70681125 0.27129072
vt 0.76942796 0.34298599
vt 0.75513864 0.34029901
vt 0.70347297 0.35910422
vt 0.64350253 0.27896899
vt 0.72746772 0.35996342
vt 0.70786422 0.26906252
vt 0.73129326 0.25511718
vt 0.71510893 0.36437923
vt 0.67596847 0.35751081
vt 0.64383501 0.34264755
vt 0.65421516 0.27451569
vt 0.74899888 0.36800706
vt 0.76520777 0.26068503
vt 0.71683818 0.26525342
vt 0.72373575 0.25851482
vt 0.70367074 0.37057918
vt 0.64693046 0.35672694
vt 0.62923419 0.29004383
vt 0.64607441 0.35267705
vt 0.72110122 0.36932462
vt 0.77992165 0.26120245
vt 0.74172473 0.25181741
vt 0.76767081 0.36487418
vt 0.62825793 0.28652674
vt 0.64787698 0.35933965
vt 0.74425232 0.25098842
vt 0.65108269 0.36622602
vt 0.77927387 0.23853219
vt 0.65213871 0.36680418
vt 0.65130472 0.36672884
vt 0.60154295 0.95648915
vt 0.63013864 0.96529901
vt 0.59381086 0.9627865
vt 0.76014614 0.21796447
vt 0.73833275 0.19202572
vt 0.75078815 0.19238997
vt 0.7608043 0.21748793
vt 0.7088843 0.22385377
vt 0.74803829 0.18641478
vt 0.76098597 0.21793985
vt 0.69933355 0.18761051
vt 0.74304008 0.17588103
vt 0.73575461 0.1609301
vt 0.65794623 0.21816087
vt 0.71884328 0.12565857
vt 0.69205672 0.22745723
vt 0.6590836 0.15951407
vt 0.71300131 0.12116015
vt 0.70040524 0.24205172
vt 0.66473275 0.23066998
vt 0.64752138 0.19971693
vt 0.71624023 0.1202966
vt 0.68747717 0.23249018
vt 0.64453858 0.23371905
vt 0.65496278 0.11723012
vt 0.64002186 0.21568024
vt 0.64767683 0.1528551
vt 0.70928729 0.1044054
vt 0.64614177 0.24211013
vt 0.67911959 0.09983927
vt 0.64386702 0.18439162
vt 0.70670855 0.098515272
vt 0.63534606 0.24556452
vt 0.62987584 0.23323131
vt 0.64738894 0.11921042
vt 0.64218217 0.14617193
vt 0.64137512 0.12943238
vt 0.64420718 0.11060703
vt 0.64203495 0.10752904
vt 0.84910071 0.99462277
vt 0.82893342 0.98659801
vt 0.84881771 0.97371
vt 0.86499953 0.97622579
vt 0.82756644 0.98772001
vt 0.81880909 0.97531831
vt 0.87670088 0.9566915
vt 0.88249302 0.97548848
vt 0.83985049 0.99558103
vt 0.81811374 0.97931361
vt 0.85182965 0.9494859
vt 0.89388007 0.95445353
vt 0.81559163 0.97770029
vt 0.8824333 0.94236082
vt 0.91862798 0.95166665
vt 0.91673243 0.93320215
vt 0.90090501 0.93210018
vt 0.93289334 0.91300684
vt 0.93754083 0.92216069
vt 0.95127755 0.91247529
vt 0.94089878 0.93097687
vt 0.93619108 0.93705726
vt 0.95117217 0.91284233
vt 0.95131838 0.91259056
vt 0.95137858 0.91251177
vt 0.80636746 0.89211804
vt 0.79489726 0.8949421
vt 0.79450935 0.89137501
vt 0.81035984 0.89721841
vt 0.79137677 0.89258921
vt 0.82509905 0.88966113
vt 0.7921412 0.91373026
vt 0.78585023 0.89468825
vt 0.82873774 0.91108203
vt 0.83056617 0.88855743
vt 0.85197377 0.90242684
vt 0.83297384 0.88844943
vt 0.84975088 0.91537821
vt 0.85713065 0.88896865
vt 0.88638675 0.92887229
vt 0.8935802 0.91478699
vt 0.89358556 0.92188978
vt 0.89357948 0.91278708
vt 0.89359182 0.93338686
vt 0.89357698 0.90599787
vt 0.88441283 0.88892758
vt 0.8935712 0.88919425
vt 0.53814155 0.99587131
vt 0.52633327 0.98709005
vt 0.53437603 0.97669727
vt 0.55953413 0.96836573
vt 0.51591152 0.9847548
vt 0.56123435 0.96826887
vt 0.53232294 0.97187555
vt 0.50624192 0.97745311
vt 0.56513089 0.9944762
vt 0.56182474 0.96803051
vt 0.51332539 0.9691329
vt 0.57725662 0.96718949
vt 0.5037244 0.97052634
vt 0.62079817 0.99591273
vt 0.59934902 0.99447739
vt 0.60326743 0.98090225
vt 0.59673643 0.98425359
vt 0.56731045 0.98641121
vt 0.95728827 0.9773652
vt 0.93405896 0.98204023
vt 0.91483718 0.97770178
vt 0.95812201 0.97627497
vt 0.95757544 0.97752649
vt 0.91119689 0.98977602
vt 0.95770514 0.96138161
vt 0.95822132 0.97708827
vt 0.94381136 0.98361456
vt 0.90975761 0.96733046
vt 0.92642385 0.99126893
vt 0.95982361 0.95657814
vt 0.93666822 0.98661822
vt 0.92257625 0.96765506
vt 0.9136669 0.99618948
vt 0.94616514 0.95802307
vt 0.75655854 0.98386627
vt 0.75508922 0.99621129
vt 0.72334516 0.98314321
vt 0.77223742 0.98448646
vt 0.51075947 0.96551102
vt 0.51499087 0.94365084
vt 0.52762443 0.96151471
vt 0.50310349 0.9366523
vt 0.54004377 0.94244057
vt 0.51553744 0.92982024
vt 0.50788033 0.96305513
vt 0.53438467 0.92622912
vt 0.50838172 0.91833115
vt 0.52008808 0.92021513
vt 0.95090699 0.94708127
vt 0.97216582 0.91707236
vt 0.97783989 0.94785285
vt 0.96241242 0.95810241
vt 0.94161743 0.93357217
vt 0.98760802 0.94421673
vt 0.97414726 0.96534407
vt 0.94786894 0.91991913
vt 0.9876011 0.93073559
vt 0.98761332 0.95381677
vt 0.98759633 0.92281181
vt 0.98761523 0.95905292
vt 0.66428483 0.99031466
vt 0.64165127 0.99634284
vt 0.62065905 0.99493277
vt 0.79479146 0.99693763
vt 0.78592849 0.97511423
vt 0.80851209 0.97634077
vt 0.80424684 0.95386994
vt 0.81170529 0.957093
vt 0.89144516 0.9969728
vt 0.86321074 0.9862929
vt 0.88377857 0.97982705
vt 0.90414298 0.98946583
vt 0.91055626 0.88133723
vt 0.92465782 0.87500799
vt 0.91840023 0.88526171
vt 0.92219234 0.902026
vt 0.93790305 0.87229204
vt 0.94935095 0.89890015
vt 0.94909227 0.90119171
vt 0.94943494 0.87702203
vt 0.96980649 0.99565232
vt 0.96867311 0.97826397
vt 0.97656363 0.97889948
vt 0.95686322 0.98497981
vt 0.96780014 0.97394484
vt 0.96213412 0.9753902
vt 0.96298188 0.96302927
vt 0.55066895 0.92539138
vt 0.55549717 0.90869695
vt 0.56752092 0.92504299
vt 0.56910837 0.93370664
vt 0.53909701 0.90520692
vt 0.56525397 0.91123468
vt 0.53685224 0.93056864
vt 0.55015528 0.9327175
vt 0.53548992 0.9093048
vt 0.53582758 0.93076807
vt 0.53554159 0.90658933
vt 0.53633314 0.93117326
vt 0.62854403 0.99667388
vt 0.62941784 0.96405244
vt 0.64430153 0.97417533
vt 0.59007519 0.9808023
vt 0.5827629 0.96293652
vt 0.61283076 0.96449769
vt 0.57656741 0.96387506
vt 0.56688946 0.93619347
vt 0.59656298 0.9601357
vt 0.56229037 0.94931775
vt 0.5456745 0.9636628
vt 0.53828305 0.94980812
vt 0.53639746 0.95255721
vt 0.53717345 0.96442229
vt 0.53595185 0.95159805
vt 0.53566164 0.94918072
vt 0.97224665 0.98952806
vt 0.98580742 0.99335468
vt 0.98976666 0.9960832
vt 0.9792068 0.97845072
vt 0.99266022 0.99380487
vt 0.98888981 0.97062105
vt 0.49698621 0.98540366
vt 0.52127111 0.98923498
vt 0.5106703 0.99687999
vt 0.91017592 0.98063594
vt 0.89465624 0.97067267
vt 0.90997541 0.96134979
vt 0.90094823 0.95511317
vt 0.73811865 0.98963296
vt 0.72304869 0.99685389
vt 0.71545076 0.98574835
vt 0.78832066 0.98102856
vt 0.79042709 0.99670458
vt 0.78101158 0.99307251
vt 0.76952738 0.97240478
vt 0.78811949 0.94546801
vt 0.79283011 0.95096719
vt 0.78538841 0.96523672
vt 0.79286474 0.96341848
vt 0.80155408 0.9408024
vt 0.82522607 0.96448267
vt 0.816401 0.94599444
vt 0.83595109 0.94125175
vt 0.62977272 0.98921156
vt 0.62114584 0.99633682
vt 0.61332798 0.97501367
vt 0.81676453 0.99411911
vt 0.81236786 0.99553716
vt 0.81448066 0.97528058
vt 0.80897439 0.99135101
vt 0.5707221 0.95632493
vt 0.56091005 0.96507126
vt 0.562069 0.95652717
vt 0.56376195 0.94524759
vt 0.55716133 0.96015155
vt 0.55030853 0.96060175
vt 0.55320209 0.96288007
vt 0.0043758582 0.99703342
vt 0.0043359282 0.99572664
vt 0.019642683 0.99702883
vt 0.52726185 0.99680674
vt 0.51936281 0.98985237
vt 0.52895057 0.98904997
vt 0.56591368 0.98978227
vt 0.57449883 0.99288845
vt 0.56731826 0.99587882
vt 0.57396781 0.98830718
usemtl Tile_+031_+024_L19_000021_0
f 103/170 276/171 275/172
f 116/351 273/352 272/353
f 243/412 271/394 270/404
f 192/513 227/514 191/515
f 263/675 471/676 595/677
f 243/412 269/419 6/427
f 193/516 197/517 192/513
f 180/526 208/530 266/533
f 226/547 483/548 143/549
f 160/619 215/620 262/621
f 156/771 154/772 258/773
f 259/643 187/653 258/633
f 219/579 229/580 523/581
f 144/385 235/390 254/380
f 253/379 252/361 145/384
f 250/356 117/366 118/360
f 445/413 249/431 248/423
f 236/381 239/387 238/375
f 233/398 234/415 185/407
f 71/605 149/601 525/598
f 1/698 222/688 221/692
f 259/643 142/642 187/653
f 176/685 178/695 163/697
f 175/679 216/687 176/685
f 267/606 218/602 147/590
f 157/627 215/620 159/623
f 176/685 221/692 222/688
f 162/776 161/777 217/778
f 229/580 150/583 148/587
f 202/709 468/706 201/708
f 2/873 203/874 202/875
f 202/796 198/797 2/798
f 200/710 202/709 201/708
f 196/879 195/880 194/881
f 193/516 192/513 191/515
f 214/525 209/521 193/516
f 208/480 210/481 214/482
f 213/522 179/527 182/519
f 149/601 71/605 196/611
f 228/830 170/831 139/832
f 228/806 174/807 127/808
f 171/553 467/558 172/550
f 170/809 228/806 127/808
f 168/467 166/472 165/477
f 266/533 189/537 180/526
f 185/407 186/432 183/424
f 183/424 186/432 184/442
f 181/531 182/519 179/527
f 177/704 164/705 178/695
f 154/630 156/626 155/622
f 161/777 162/776 527/780
f 215/620 160/619 159/623
f 158/639 157/627 534/638
f 141/866 473/867 230/868
f 147/590 229/580 148/587
f 489/395 270/404 145/384
f 451/396 235/390 144/385
f 144/385 271/394 486/403
f 450/389 123/397 489/395
f 489/395 123/397 270/404
f 249/431 445/413 601/430
f 252/361 450/389 145/384
f 236/381 488/374 242/362
f 489/395 145/384 450/389
f 253/379 241/372 252/361
f 242/362 488/374 114/363
f 238/375 487/392 103/400
f 238/375 447/369 114/363
f 238/375 114/363 236/381
f 242/362 254/380 236/381
f 103/170 419/176 238/180
f 487/392 276/409 103/400
f 419/176 125/179 238/180
f 241/372 254/380 242/362
f 114/363 488/374 236/381
f 241/372 253/379 144/385
f 239/387 236/381 247/391
f 239/387 244/399 487/392
f 239/387 487/392 238/375
f 239/387 247/391 233/398
f 236/381 235/390 247/391
f 233/398 247/391 235/390
f 248/423 484/438 274/420
f 269/419 274/420 6/427
f 243/412 486/403 271/394
f 248/423 249/431 603/441
f 123/397 274/420 270/404
f 270/404 269/419 243/412
f 274/420 123/397 248/423
f 269/419 270/404 274/420
f 254/380 241/372 144/385
f 486/403 243/412 5/405
f 254/380 235/390 236/381
f 451/396 144/385 5/405
f 486/403 5/405 144/385
f 232/445 264/437 6/427
f 235/390 451/396 485/406
f 484/438 255/446 606/457
f 255/446 484/438 248/423
f 235/390 485/406 233/398
f 276/409 487/392 244/399
f 245/408 244/399 239/387
f 257/428 5/405 264/437
f 456/434 457/453 184/442
f 485/406 5/405 237/421
f 485/406 237/421 233/398
f 237/421 234/415 233/398
f 484/438 207/456 6/427
f 257/428 264/437 133/447
f 264/437 455/455 133/447
f 6/427 274/420 484/438
f 232/445 455/455 264/437
f 246/460 484/438 607/462
f 207/456 484/438 246/460
f 455/455 207/456 169/465
f 138/833 128/834 610/835
f 166/472 135/478 165/477
f 134/458 190/463 184/442
f 167/532 204/524 265/523
f 455/455 454/464 133/447
f 245/408 239/387 132/414
f 237/421 456/434 185/407
f 239/387 233/398 185/407
f 245/199 132/222 126/200
f 237/421 185/407 234/415
f 257/428 133/447 456/434
f 237/421 5/405 257/428
f 456/434 237/421 257/428
f 126/200 414/190 245/199
f 183/424 132/414 185/407
f 455/455 6/427 207/456
f 207/456 246/460 609/466
f 2/908 468/909 3/910
f 202/796 200/802 137/799
f 482/646 481/637 258/633
f 226/547 163/555 164/551
f 164/551 483/548 226/547
f 164/705 163/697 178/695
f 171/608 460/603 463/613
f 220/889 177/890 188/891
f 176/685 268/682 175/679
f 221/692 206/702 1/698
f 483/548 220/552 143/549
f 471/676 175/679 268/682
f 224/625 140/624 470/634
f 268/682 277/689 613/686
f 268/682 176/685 222/688
f 221/563 163/555 466/554
f 466/554 206/566 221/563
f 142/642 220/664 187/653
f 142/557 143/549 220/552
f 482/646 187/653 216/661
f 187/892 220/889 188/891
f 178/695 176/685 187/691
f 187/691 176/685 216/687
f 178/695 187/691 188/700
f 223/629 142/642 259/643
f 178/695 188/700 177/704
f 220/552 483/548 177/556
f 177/556 483/548 164/551
f 478/649 481/637 482/646
f 482/694 216/687 478/690
f 187/653 482/646 258/633
f 154/772 480/774 258/773
f 160/619 156/626 159/623
f 476/654 472/640 544/648
f 480/774 154/772 259/775
f 223/629 259/643 154/630
f 472/640 476/654 151/636
f 154/630 155/622 223/629
f 142/642 223/629 151/636
f 223/629 155/622 224/625
f 473/781 161/777 532/786
f 141/785 475/789 217/778
f 224/625 155/622 262/621
f 475/632 215/620 157/627
f 258/633 159/623 156/626
f 258/633 481/637 159/623
f 217/778 161/777 473/781
f 156/626 160/619 155/622
f 262/621 155/622 160/619
f 479/644 477/631 481/637
f 472/640 470/634 140/624
f 256/650 477/631 479/644
f 159/623 477/631 157/627
f 217/778 475/789 158/791
f 547/779 217/778 548/782
f 534/638 477/631 549/645
f 617/658 175/657 618/666
f 477/631 159/623 481/637
f 175/657 256/650 479/644
f 471/676 263/675 175/679
f 175/657 263/670 615/668
f 478/690 216/687 175/679
f 478/649 479/644 481/637
f 175/657 479/644 478/649
f 477/631 256/650 617/658
f 217/778 158/791 535/787
f 471/676 268/682 614/684
f 475/632 157/627 158/639
f 231/662 476/654 545/663
f 231/662 151/636 476/654
f 544/648 474/635 551/656
f 474/635 472/640 140/624
f 474/635 230/641 540/647
f 141/628 140/624 215/620
f 141/785 217/778 473/781
f 141/628 215/620 475/632
f 262/621 215/620 140/624
f 230/641 474/635 141/628
f 261/562 225/559 151/565
f 147/590 218/602 469/599
f 537/576 231/568 553/578
f 543/586 219/579 554/585
f 219/579 150/583 229/580
f 152/573 260/571 231/568
f 231/568 260/571 261/562
f 148/886 267/887 147/888
f 149/601 218/602 267/606
f 148/587 149/601 267/606
f 149/601 469/599 218/602
f 459/597 469/599 149/601
f 460/603 461/607 194/612
f 214/617 193/618 460/603
f 196/611 194/612 461/607
f 459/597 147/590 469/599
f 172/550 143/549 171/553
f 194/612 195/615 460/603
f 262/621 140/624 224/625
f 151/565 225/559 142/557
f 225/559 143/549 142/557
f 163/555 226/547 466/554
f 4/564 205/570 206/566
f 223/629 224/625 151/636
f 224/625 470/634 151/636
f 226/547 172/550 466/554
f 261/562 171/553 225/559
f 465/560 4/564 466/554
f 466/554 172/550 465/560
f 463/561 467/558 171/553
f 463/863 465/864 467/865
f 198/797 202/796 137/799
f 465/560 204/567 4/564
f 1/698 205/707 201/708
f 206/566 466/554 4/564
f 1/698 206/702 205/707
f 240/535 179/527 452/539
f 196/483 208/480 214/482
f 197/517 227/514 192/513
f 166/472 174/476 135/478
f 199/805 228/803 136/801
f 201/574 205/570 3/569
f 200/913 3/910 203/912
f 200/821 167/822 137/823
f 202/914 203/912 468/909
f 3/910 468/909 203/912
f 3/569 200/577 201/574
f 128/812 170/809 127/808
f 201/708 468/706 1/698
f 277/689 268/682 222/688
f 222/688 2/696 277/689
f 1/698 2/696 222/688
f 182/519 265/523 227/514
f 197/517 182/519 227/514
f 277/689 2/696 138/701
f 464/528 167/532 265/523
f 200/877 203/874 7/876
f 227/514 465/520 463/518
f 465/520 227/514 204/524
f 167/575 7/572 204/567
f 227/514 265/523 204/524
f 204/567 7/572 3/569
f 138/800 198/797 228/803
f 198/797 138/800 2/798
f 198/797 136/801 228/803
f 464/528 265/523 182/519
f 228/806 199/810 174/807
f 165/536 167/532 464/528
f 137/823 165/824 135/825
f 464/528 168/540 165/536
f 167/822 165/824 137/823
f 181/531 464/528 182/519
f 213/522 182/519 197/517
f 464/528 181/531 240/535
f 133/447 454/464 190/463
f 181/531 179/527 240/535
f 453/534 462/538 452/539
f 453/534 179/527 180/526
f 452/539 462/538 212/542
f 453/534 180/526 462/538
f 180/526 189/537 462/538
f 210/529 208/530 209/521
f 179/527 213/522 180/526
f 214/482 195/484 196/483
f 208/480 196/483 129/485
f 193/516 209/521 197/517
f 180/526 213/522 197/517
f 208/530 180/526 209/521
f 197/517 209/521 180/526
f 132/222 131/235 126/200
f 208/480 129/485 266/486
f 70/490 129/485 146/487
f 212/542 392/545 211/543
f 130/488 63/493 458/491
f 266/486 129/485 130/488
f 458/491 266/486 130/488
f 462/538 458/541 212/542
f 458/541 462/538 189/537
f 266/533 458/541 189/537
f 196/483 146/487 129/485
f 396/492 70/490 146/487
f 196/611 461/607 149/601
f 71/489 146/487 196/483
f 148/587 150/583 521/591
f 525/598 148/587 555/594
f 149/601 461/607 459/597
f 461/607 460/603 459/597
f 459/597 460/603 153/600
f 152/592 229/580 147/590
f 171/608 261/609 153/600
f 153/600 152/592 459/597
f 147/590 459/597 152/592
f 277/689 138/701 611/703
f 463/518 191/515 227/514
f 193/618 191/616 460/603
f 460/603 191/616 463/613
f 460/603 195/615 214/617
f 261/609 260/604 153/600
f 598/811 174/807 626/814
f 174/807 199/810 135/813
f 190/463 134/458 133/447
f 168/540 464/528 240/535
f 63/493 77/497 458/491
f 212/542 458/541 77/544
f 168/467 240/459 190/463
f 184/442 457/453 134/458
f 184/442 240/459 452/452
f 452/452 183/424 184/442
f 134/458 456/434 133/447
f 454/464 169/465 168/467
f 166/472 168/467 169/465
f 174/476 169/465 600/475
f 207/456 173/468 169/465
f 169/465 454/464 455/455
f 173/468 207/456 612/469
f 599/471 173/468 629/474
f 452/452 211/443 183/424
f 452/539 212/542 211/543
f 179/527 453/534 452/539
f 240/459 184/442 190/463
f 185/407 456/434 184/442
f 184/442 186/432 185/407
f 132/414 239/387 185/407
f 131/433 132/414 183/424
f 438/758 426/759 119/760
f 116/351 447/369 433/364
f 493/736 430/737 494/738
f 447/193 448/205 336/216
f 439/393 441/388 425/383
f 272/353 118/360 434/367
f 252/361 241/372 242/362
f 429/711 432/712 120/713
f 121/716 120/713 432/712
f 440/402 439/393 436/411
f 427/762 21/765 119/760
f 434/367 425/383 441/388
f 431/742 430/737 37/739
f 431/726 36/724 39/727
f 13/359 330/370 10/377
f 336/376 330/370 433/364
f 443/368 272/353 434/367
f 250/356 118/360 272/353
f 14/378 425/383 434/367
f 436/411 439/393 420/417
f 437/401 439/393 425/383
f 32/410 420/417 439/393
f 449/422 445/413 440/402
f 441/388 122/386 434/367
f 441/388 439/393 440/402
f 336/376 433/364 447/369
f 373/228 336/216 124/203
f 447/193 125/179 448/205
f 601/430 449/422 634/440
f 242/362 442/354 446/357
f 114/363 115/358 242/362
f 446/357 252/361 242/362
f 123/397 445/413 248/423
f 122/386 252/361 434/367
f 123/397 450/389 122/386
f 443/368 444/373 252/361
f 445/413 123/397 440/402
f 252/361 444/373 434/367
f 272/353 443/368 252/361
f 446/357 272/353 252/361
f 272/353 442/354 116/351
f 442/354 242/362 115/358
f 446/357 442/354 272/353
f 123/397 441/388 440/402
f 441/388 123/397 122/386
f 442/354 115/358 116/351
f 448/205 124/203 336/216
f 271/394 145/384 270/404
f 255/446 248/423 604/451
f 21/1 427/2 20/3
f 633/439 440/402 636/435
f 440/402 435/418 630/425
f 437/27 14/6 424/19
f 425/857 14/858 437/859
f 423/766 438/758 639/763
f 437/401 32/410 439/393
f 438/826 423/827 31/828
f 31/828 426/829 438/826
f 434/367 40/371 14/378
f 437/401 424/416 32/410
f 435/418 436/411 423/426
f 423/426 436/411 420/417
f 423/26 420/18 31/8
f 422/717 428/714 120/713
f 40/371 117/366 250/356
f 15/365 250/356 30/355
f 30/355 250/356 273/352
f 433/364 330/370 13/359
f 433/364 13/359 116/351
f 121/716 35/721 422/717
f 421/718 428/714 422/717
f 120/713 121/716 422/717
f 431/726 37/725 36/724
f 431/726 28/729 497/731
f 428/714 421/718 429/711
f 120/713 428/714 429/711
f 426/759 427/762 119/760
f 20/3 426/5 31/8
f 20/3 427/2 426/5
f 35/721 36/724 422/717
f 23/7 35/15 121/22
f 641/715 429/711 642/719
f 121/716 432/712 641/715
f 429/750 421/748 33/746
f 422/717 36/724 34/722
f 28/729 26/728 29/730
f 34/744 37/739 499/741
f 430/737 431/742 498/743
f 28/729 431/726 26/728
f 431/726 39/727 26/728
f 497/731 29/730 502/733
f 421/718 422/717 34/722
f 33/746 421/748 34/744
f 36/23 38/32 39/36
f 21/1 23/7 647/11
f 631/436 423/426 649/444
f 438/758 119/760 637/761
f 20/3 31/8 14/6
f 15/365 40/371 250/356
f 38/32 36/23 22/10
f 32/12 424/19 14/6
f 420/18 32/12 31/8
f 22/10 27/31 38/32
f 26/40 39/36 38/32
f 23/7 22/10 35/15
f 25/21 24/34 27/31
f 36/23 35/15 22/10
f 37/725 34/722 36/724
f 655/751 504/749 656/753
f 33/746 34/744 500/745
f 26/40 24/34 29/46
f 643/25 121/22 653/35
f 507/39 8/30 510/44
f 9/29 18/13 17/28
f 9/29 19/14 18/13
f 8/30 24/34 25/21
f 25/21 19/14 8/30
f 27/31 26/40 38/32
f 19/14 25/21 22/10
f 27/31 22/10 25/21
f 24/34 26/40 27/31
f 22/10 23/7 16/4
f 16/4 21/1 20/3
f 16/4 23/7 21/1
f 13/20 11/33 17/28
f 18/13 19/14 16/4
f 15/9 18/13 16/4
f 17/28 11/33 9/29
f 16/4 19/14 22/10
f 30/355 13/359 15/365
f 40/371 15/365 14/378
f 15/9 16/4 14/6
f 32/12 14/6 31/8
f 14/6 16/4 20/3
f 10/37 12/41 11/33
f 10/37 11/33 13/20
f 8/30 19/14 9/29
f 7/876 203/874 2/873
f 3/910 7/911 2/908
f 5/405 243/412 6/427
f 264/437 5/405 6/427
f 5/405 485/406 451/396
f 205/570 4/564 3/569
f 231/568 261/562 151/565
f 143/549 225/559 171/553
f 1/698 468/706 2/696
f 126/200 131/235 399/223
f 211/443 131/433 183/424
f 253/379 145/384 144/385
f 447/193 238/180 125/179
f 244/174 275/172 276/171
f 144/385 145/384 271/394
f 126/200 110/184 414/190
f 128/812 127/808 597/815
f 232/445 6/427 455/455
f 210/529 209/521 214/525
f 163/697 221/692 176/685
f 480/672 259/673 258/674
f 529/869 473/867 546/870
f 474/635 140/624 141/628
f 151/636 470/634 472/640
f 229/580 152/592 539/588
f 172/550 467/558 465/560
f 172/550 226/547 143/549
f 4/564 204/567 3/569
f 7/876 167/878 200/877
f 138/833 139/832 128/834
f 170/831 128/834 139/832
f 139/832 138/833 228/830
f 198/797 137/799 136/801
f 199/805 136/801 135/804
f 137/799 135/804 136/801
f 130/488 129/485 70/490
f 153/600 460/603 171/608
f 260/604 152/592 153/600
f 174/476 166/472 169/465
f 168/467 190/463 454/464
f 457/453 456/434 134/458
f 13/359 30/355 116/351
f 13/20 18/13 15/9
f 440/402 436/411 435/418
f 252/361 122/386 450/389
f 646/752 33/746 655/751
f 30/355 273/352 116/351
f 125/179 124/203 448/205
f 273/352 250/356 272/353
f 434/367 118/360 40/371
f 443/368 434/367 444/373
f 251/429 449/422 440/402
f 40/371 118/360 117/366
f 116/351 115/358 114/363
f 9/29 11/33 12/41
f 447/369 116/351 114/363
f 634/440 251/429 635/449
f 638/764 21/765 652/768
f 495/50 24/34 513/55
f 17/28 18/13 13/20
f 91/232 41/261 113/246
f 410/293 49/282 43/257
f 111/292 106/269 112/279
f 110/184 53/201 82/191
f 103/170 275/172 104/173
f 102/217 100/188 97/207
f 99/186 97/207 100/188
f 98/271 50/270 557/295
f 366/231 96/195 95/208
f 93/285 94/308 81/297
f 45/283 43/257 41/261
f 85/234 87/219 86/210
f 125/179 419/176 359/175
f 84/298 80/320 51/330
f 82/191 83/198 69/178
f 51/330 80/320 79/319
f 109/507 78/505 59/509
f 60/838 62/839 61/840
f 88/495 396/492 71/489
f 76/250 64/287 74/288
f 74/499 64/494 75/496
f 73/510 109/507 59/509
f 52/224 72/238 54/211
f 70/490 75/496 64/494
f 399/223 131/235 384/249
f 46/183 69/178 68/189
f 66/502 109/507 67/506
f 65/212 407/239 55/247
f 53/201 52/224 54/211
f 55/348 57/349 56/350
f 567/294 49/282 568/304
f 48/206 47/194 46/183
f 41/261 43/257 42/243
f 90/187 89/202 357/185
f 369/204 357/185 89/202
f 107/225 89/202 418/213
f 375/218 98/271 363/258
f 375/218 42/243 43/257
f 46/183 101/181 104/173
f 47/194 101/181 46/183
f 96/195 417/196 95/208
f 375/218 108/244 366/231
f 366/231 95/208 375/218
f 417/196 100/188 95/208
f 413/177 100/188 360/182
f 108/244 107/225 366/231
f 375/218 363/258 108/244
f 418/213 89/202 90/187
f 90/187 360/182 96/195
f 96/792 418/793 90/794
f 359/175 357/185 125/179
f 87/219 411/248 415/259
f 391/230 42/243 375/218
f 413/177 101/181 99/186
f 102/217 97/207 48/206
f 47/194 97/207 99/186
f 91/232 92/245 406/260
f 104/173 275/172 244/174
f 101/181 413/177 104/173
f 104/173 69/178 46/183
f 101/181 47/194 99/186
f 49/282 50/270 43/257
f 43/257 45/283 410/293
f 84/298 81/297 80/320
f 375/218 95/208 100/188
f 100/188 391/230 375/218
f 113/246 42/243 391/230
f 113/246 391/230 416/242
f 403/221 113/246 416/242
f 402/233 403/221 416/242
f 402/901 416/902 102/903
f 570/314 84/298 571/324
f 415/259 411/248 409/272
f 401/220 92/245 91/232
f 384/249 383/236 399/223
f 82/191 69/178 110/184
f 126/200 53/201 110/184
f 65/212 85/234 86/210
f 65/212 83/198 82/191
f 408/262 409/272 411/248
f 82/191 54/211 65/212
f 65/212 86/210 83/198
f 44/274 412/273 81/297
f 68/189 69/178 83/198
f 68/189 86/210 87/219
f 83/198 86/210 68/189
f 85/234 411/248 87/219
f 408/262 411/248 85/234
f 93/285 412/273 406/260
f 408/262 382/309 56/299
f 409/272 92/245 415/259
f 409/272 408/262 398/286
f 55/247 408/262 85/234
f 406/260 409/272 398/286
f 81/297 94/308 79/319
f 80/320 81/297 79/319
f 68/189 405/209 404/197
f 79/319 58/336 51/330
f 410/293 45/283 84/298
f 68/189 404/197 46/183
f 404/197 91/232 403/221
f 404/197 48/206 46/183
f 404/197 401/220 91/232
f 64/494 77/497 63/493
f 380/300 61/289 394/278
f 75/496 70/490 396/492
f 88/495 71/489 562/498
f 88/495 75/496 396/492
f 75/496 66/502 67/506
f 396/492 146/487 71/489
f 564/504 88/495 575/500
f 67/327 73/333 395/328
f 389/334 59/339 576/344
f 78/505 109/507 66/502
f 566/341 389/334 577/346
f 560/511 78/505 563/508
f 78/505 66/502 88/495
f 63/493 130/488 64/494
f 130/488 70/490 64/494
f 77/264 64/287 76/250
f 53/201 400/237 52/224
f 395/328 390/318 93/285
f 398/286 387/307 93/285
f 387/307 397/317 93/285
f 395/328 397/317 67/327
f 397/317 387/307 67/327
f 67/506 109/507 73/510
f 385/503 75/496 67/506
f 73/333 390/318 395/328
f 73/333 59/339 389/334
f 79/319 94/308 388/329
f 389/334 58/336 79/319
f 56/299 60/310 398/286
f 398/286 60/310 387/307
f 387/307 379/322 386/311
f 74/288 386/311 380/300
f 385/321 386/311 74/288
f 383/236 384/249 77/264
f 75/496 385/503 74/499
f 76/250 383/236 77/264
f 60/310 379/322 387/307
f 62/839 60/838 56/841
f 72/238 52/224 76/250
f 57/844 378/843 56/841
f 55/893 382/894 378/895
f 393/265 72/238 76/250
f 386/311 379/322 380/300
f 381/277 380/300 394/278
f 378/843 57/844 377/842
f 378/904 377/905 55/906
f 61/840 377/842 57/844
f 61/289 380/300 60/310
f 76/250 381/277 393/265
f 57/266 394/278 61/289
f 384/546 392/545 212/542
f 131/235 211/276 392/263
f 384/546 212/542 77/544
f 131/235 392/263 384/249
f 47/194 48/206 97/207
f 102/217 391/230 100/188
f 318/254 352/240 371/227
f 372/256 371/227 368/241
f 351/306 353/326 347/312
f 331/57 319/51 12/41
f 73/333 388/329 390/318
f 365/229 364/226 105/252
f 112/279 361/251 345/267
f 111/292 355/290 321/281
f 695/161 578/165 696/168
f 368/241 371/227 367/215
f 43/257 50/270 375/218
f 309/99 326/90 310/101
f 373/228 352/240 317/255
f 334/67 314/58 376/69
f 344/845 335/846 661/847
f 352/240 362/214 371/227
f 106/269 368/241 105/252
f 372/256 318/254 371/227
f 579/325 351/306 580/316
f 351/306 347/312 346/284
f 368/241 106/269 372/256
f 98/271 370/296 346/284
f 345/267 363/258 346/284
f 362/214 373/228 124/203
f 362/214 358/192 371/227
f 362/214 352/240 373/228
f 98/271 346/284 363/258
f 345/267 361/251 107/225
f 107/225 108/244 363/258
f 359/175 413/177 360/182
f 369/204 89/202 364/226
f 357/185 369/204 358/192
f 361/251 112/279 106/269
f 106/269 105/252 361/251
f 364/226 365/229 369/204
f 105/252 364/226 361/251
f 105/252 368/241 365/229
f 365/229 367/215 369/204
f 367/215 371/227 358/192
f 369/204 367/215 358/192
f 351/306 370/296 98/271
f 296/130 356/144 664/151
f 345/267 346/284 324/301
f 355/290 354/302 321/281
f 354/302 355/290 345/267
f 325/323 347/312 353/326
f 353/326 323/332 325/323
f 331/253 336/216 373/228
f 313/52 319/51 320/63
f 344/845 343/851 339/849
f 668/853 343/851 670/854
f 343/851 344/845 663/848
f 306/102 289/98 294/109
f 339/849 335/846 344/845
f 662/77 334/67 671/83
f 310/101 281/86 308/94
f 324/301 301/313 354/302
f 297/126 305/119 328/116
f 309/99 307/73 326/90
f 326/90 289/98 310/101
f 310/101 308/94 309/99
f 278/142 300/139 299/129
f 347/312 325/323 324/301
f 10/377 330/370 12/382
f 313/52 316/47 329/42
f 330/268 336/216 331/253
f 307/73 312/68 320/63
f 319/51 329/42 12/41
f 319/51 313/52 329/42
f 320/63 315/66 313/52
f 326/90 307/73 288/82
f 313/52 312/68 311/65
f 313/52 315/66 312/68
f 294/109 280/87 306/102
f 306/102 281/86 310/101
f 283/74 327/80 281/86
f 281/86 327/80 308/94
f 307/73 309/99 308/94
f 299/129 297/126 328/116
f 305/119 285/117 304/127
f 289/98 287/112 294/109
f 328/116 284/120 299/129
f 328/116 305/119 286/107
f 307/73 311/65 312/68
f 308/860 327/861 307/862
f 307/73 327/80 311/65
f 303/338 325/323 323/332
f 324/301 325/323 301/313
f 303/338 323/332 582/335
f 318/71 320/63 317/62
f 301/97 302/106 288/82
f 288/82 286/107 289/98
f 289/98 326/90 288/82
f 285/117 287/112 286/107
f 316/47 313/52 314/58
f 280/87 282/81 281/86
f 295/140 297/126 300/139
f 311/65 376/69 314/58
f 333/123 291/131 290/133
f 282/81 376/69 283/74
f 311/65 283/74 376/69
f 279/128 342/146 278/142
f 356/144 295/140 350/150
f 664/151 492/155 674/158
f 348/149 300/139 278/142
f 491/114 290/133 675/138
f 350/898 492/899 356/900
f 342/146 349/153 278/142
f 342/146 279/128 587/152
f 279/128 278/142 341/136
f 340/137 298/143 290/133
f 491/114 333/123 290/133
f 295/140 300/139 348/149
f 294/109 287/112 491/114
f 280/87 294/109 490/103
f 292/92 490/103 491/114
f 675/138 298/143 679/148
f 296/130 298/143 340/137
f 295/140 296/130 297/126
f 348/149 350/150 295/140
f 287/112 374/121 291/131
f 296/130 374/121 285/117
f 296/130 305/119 297/126
f 299/129 300/139 297/126
f 296/130 285/117 305/119
f 299/129 284/120 341/136
f 299/129 341/136 278/142
f 350/150 348/149 349/153
f 672/169 350/150 681/166
f 278/142 349/153 348/149
f 340/137 291/131 374/121
f 340/137 290/133 291/131
f 282/81 283/74 281/86
f 293/95 376/69 280/87
f 285/117 374/121 287/112
f 491/114 490/103 294/109
f 684/79 376/69 685/84
f 335/72 338/64 334/67
f 338/64 335/72 339/78
f 514/75 339/78 515/88
f 516/53 316/47 517/59
f 511/43 337/38 519/48
f 517/59 338/64 520/70
f 9/29 329/42 337/38
f 337/38 8/30 9/29
f 316/47 337/38 329/42
f 316/47 314/58 338/64
f 338/64 314/58 334/67
f 302/106 301/97 325/111
f 48/206 402/233 102/217
f 53/201 54/211 82/191
f 574/331 51/330 591/337
f 345/267 355/290 112/279
f 100/188 413/177 99/186
f 41/261 42/243 113/246
f 107/225 364/226 89/202
f 126/200 399/223 53/201
f 415/882 401/883 87/884
f 401/883 405/885 87/884
f 569/303 410/293 570/314
f 93/285 397/317 395/328
f 383/236 400/237 53/201
f 406/260 92/245 409/272
f 72/238 393/265 394/278
f 107/225 418/213 366/231
f 418/793 96/792 366/795
f 345/267 107/225 363/258
f 359/175 90/187 357/185
f 417/196 96/195 360/182
f 360/182 90/187 359/175
f 125/179 357/185 358/192
f 103/170 104/173 359/175
f 419/176 103/170 359/175
f 104/173 413/177 359/175
f 382/309 55/247 56/299
f 44/274 81/297 84/298
f 391/230 102/217 416/242
f 403/221 48/206 404/197
f 401/220 404/197 405/209
f 244/174 110/184 69/178
f 104/173 244/174 69/178
f 415/259 92/245 401/220
f 244/174 245/199 414/190
f 414/190 110/184 244/174
f 45/283 44/274 84/298
f 62/896 382/894 408/897
f 54/211 72/238 407/239
f 407/239 65/212 54/211
f 412/273 93/285 81/297
f 405/209 68/189 87/219
f 412/273 44/274 91/232
f 406/260 412/273 91/232
f 408/262 56/299 398/286
f 56/841 378/843 62/839
f 85/234 65/212 55/247
f 407/239 57/266 55/247
f 72/238 57/266 407/239
f 57/266 72/238 394/278
f 398/286 93/285 406/260
f 387/307 386/311 67/327
f 51/330 58/336 565/340
f 403/221 402/233 48/206
f 41/261 91/232 44/274
f 91/232 113/246 403/221
f 45/283 41/261 44/274
f 389/334 388/329 73/333
f 76/250 52/224 400/237
f 88/495 66/502 75/496
f 389/334 79/319 388/329
f 394/278 393/265 381/277
f 53/201 399/223 383/236
f 390/318 94/308 93/285
f 67/327 386/311 385/321
f 61/840 62/839 377/842
f 390/318 388/329 94/308
f 76/250 74/288 381/277
f 76/250 400/237 383/236
f 62/896 378/895 382/894
f 381/277 74/288 380/300
f 380/300 379/322 60/310
f 62/907 55/906 377/905
f 106/269 111/292 321/281
f 324/301 346/284 347/312
f 9/29 12/41 329/42
f 100/188 417/196 360/182
f 281/86 306/102 280/87
f 580/316 98/271 581/315
f 321/281 354/302 322/291
f 320/63 288/82 307/73
f 332/280 372/256 322/291
f 286/818 304/819 285/820
f 332/76 288/82 320/63
f 286/107 302/106 328/116
f 322/89 288/82 332/76
f 373/228 317/255 331/253
f 112/279 355/290 111/292
f 293/95 280/87 490/103
f 321/281 372/256 106/269
f 361/251 364/226 107/225
f 368/241 367/215 365/229
f 358/192 362/214 124/203
f 346/284 370/296 351/306
f 50/270 98/271 375/218
f 125/179 358/192 124/203
f 323/332 353/326 351/306
f 302/106 325/111 303/115
f 324/301 354/302 345/267
f 332/280 318/254 372/256
f 317/255 352/240 318/254
f 301/97 288/82 322/89
f 330/61 331/57 12/41
f 287/112 333/123 491/114
f 298/143 296/130 665/147
f 374/121 296/130 340/137
f 354/302 301/313 322/291
f 279/128 284/120 302/106
f 320/63 319/51 317/62
f 320/63 312/68 315/66
f 313/52 311/65 314/58
f 286/107 305/119 304/127
f 310/101 289/98 306/102
f 283/74 311/65 327/80
f 302/106 284/120 328/116
f 289/98 286/107 287/112
f 372/256 321/281 322/291
f 286/107 288/82 302/106
f 318/71 332/76 320/63
f 592/135 302/106 593/134
f 331/57 317/62 319/51
f 302/106 303/115 584/118
f 295/140 356/144 296/130
f 685/84 292/92 690/100
f 349/153 342/146 660/157
f 680/162 349/153 692/160
f 682/113 491/114 691/122
f 282/81 280/87 376/69
f 292/92 293/95 490/103
f 291/131 333/123 287/112
f 279/128 341/136 284/120
f 376/69 293/95 292/92
f 62/275 408/262 55/247
f 493/736 37/739 430/737
f 494/738 430/737 501/740
f 495/50 29/46 24/34
f 496/56 29/46 495/50
f 497/731 28/729 29/730
f 498/732 431/726 497/731
f 499/741 37/739 493/736
f 500/745 34/744 499/741
f 501/740 430/737 498/743
f 502/733 29/730 503/734
f 503/734 29/730 512/735
f 504/749 33/746 505/747
f 505/747 33/746 500/745
f 504/749 506/756 654/755
f 507/39 24/34 8/30
f 508/45 24/34 507/39
f 509/49 8/30 511/43
f 510/44 8/30 509/49
f 511/43 8/30 337/38
f 512/60 29/46 496/56
f 513/918 24/919 508/920
f 514/75 338/64 339/78
f 515/88 339/78 689/96
f 516/53 337/38 316/47
f 517/59 316/47 338/64
f 518/54 337/38 516/53
f 519/48 337/38 518/54
f 520/70 338/64 514/75
f 521/591 150/583 522/595
f 522/595 150/583 542/593
f 523/581 229/580 556/584
f 524/582 219/579 523/581
f 525/598 149/601 148/587
f 526/610 71/605 525/598
f 527/780 162/776 528/783
f 528/783 162/776 547/779
f 529/869 230/868 473/867
f 530/871 230/868 529/869
f 531/784 161/777 527/780
f 532/786 161/777 533/788
f 533/788 161/777 531/784
f 534/638 157/627 477/631
f 535/652 158/639 534/638
f 536/921 152/922 537/923
f 537/576 152/573 231/568
f 538/924 152/922 536/921
f 539/588 152/592 538/596
f 540/872 230/868 530/871
f 541/589 150/583 543/586
f 542/593 150/583 541/589
f 543/586 150/583 219/579
f 544/648 472/640 474/635
f 545/663 476/654 544/648
f 546/790 473/781 532/786
f 547/779 162/776 217/778
f 548/782 217/778 535/787
f 549/645 477/631 622/651
f 550/667 231/662 545/663
f 551/656 474/635 552/655
f 552/655 474/635 540/647
f 553/669 231/662 550/667
f 554/585 219/579 524/582
f 555/594 148/587 521/591
f 556/584 229/580 539/588
f 557/295 50/270 567/294
f 558/305 98/271 557/295
f 559/512 59/509 560/511
f 560/511 59/509 78/505
f 561/614 71/605 526/610
f 562/498 71/489 561/501
f 563/508 78/505 564/504
f 564/504 78/505 88/495
f 565/340 58/336 566/341
f 566/341 58/336 389/334
f 567/294 50/270 49/282
f 568/304 49/282 569/303
f 569/303 49/282 410/293
f 570/314 410/293 84/298
f 571/324 84/298 574/331
f 572/345 51/330 565/340
f 573/342 51/330 572/345
f 574/331 84/298 51/330
f 575/500 88/495 562/498
f 576/344 59/339 559/347
f 577/346 389/334 576/344
f 578/165 342/146 585/164
f 579/325 323/332 351/306
f 580/316 351/306 98/271
f 581/315 98/271 558/305
f 582/335 323/332 579/325
f 583/343 303/338 582/335
f 584/118 303/115 583/125
f 585/164 342/146 586/159
f 586/159 342/146 588/156
f 587/152 279/128 589/145
f 588/156 342/146 587/152
f 589/145 279/128 590/141
f 590/141 279/128 592/135
f 591/337 51/330 573/342
f 592/135 279/128 302/106
f 593/134 302/106 594/124
f 594/124 302/106 584/118
f 595/677 471/676 620/680
f 596/678 263/675 595/677
f 597/815 127/808 598/811
f 598/811 127/808 174/807
f 599/471 169/465 173/468
f 600/475 169/465 599/471
f 601/430 445/413 449/422
f 602/450 249/431 601/430
f 603/441 249/431 602/450
f 604/451 248/423 603/441
f 605/461 255/446 604/451
f 606/457 255/446 605/461
f 607/462 484/438 606/457
f 608/470 246/460 607/462
f 609/466 246/460 608/470
f 610/835 128/834 625/837
f 611/836 138/833 610/835
f 612/469 207/456 609/466
f 613/686 277/689 623/693
f 614/684 268/682 613/686
f 615/668 263/670 616/671
f 616/681 263/675 596/678
f 617/658 256/650 175/657
f 618/666 175/657 615/668
f 619/660 477/631 617/658
f 620/680 471/676 621/683
f 621/683 471/676 614/684
f 622/651 477/631 619/660
f 623/693 277/689 624/699
f 624/699 277/689 611/703
f 625/817 128/812 597/815
f 626/814 174/807 627/816
f 627/479 174/476 600/475
f 628/473 173/468 612/469
f 629/474 173/468 628/473
f 630/425 435/418 631/436
f 631/436 435/418 423/426
f 632/448 251/429 633/439
f 633/439 251/429 440/402
f 634/440 449/422 251/429
f 635/449 251/429 632/448
f 636/435 440/402 630/425
f 637/761 119/760 638/764
f 638/764 119/760 21/765
f 639/763 438/758 637/761
f 640/767 423/766 639/763
f 641/715 432/712 429/711
f 642/754 429/750 646/752
f 643/25 23/7 121/22
f 644/17 23/7 643/25
f 645/720 121/716 641/715
f 646/752 429/750 33/746
f 647/11 23/7 644/17
f 648/16 21/1 647/11
f 649/444 423/426 650/454
f 650/769 423/766 640/767
f 651/24 21/1 648/16
f 652/768 21/765 651/770
f 653/723 121/716 645/720
f 654/755 506/756 657/757
f 655/751 33/746 504/749
f 656/753 504/749 654/755
f 658/659 549/645 622/651
f 659/665 549/645 658/659
f 660/157 342/146 695/161
f 661/847 335/846 662/850
f 662/77 335/72 334/67
f 663/848 344/845 661/847
f 664/151 356/144 492/155
f 665/147 296/130 664/151
f 666/915 343/916 667/917
f 667/852 343/851 663/848
f 668/853 339/849 343/851
f 669/855 339/849 668/853
f 670/854 343/851 666/856
f 671/83 334/67 688/91
f 672/169 492/155 350/150
f 673/167 492/155 672/169
f 674/158 492/155 677/163
f 675/138 290/133 298/143
f 676/132 491/114 675/138
f 677/163 492/155 673/167
f 678/154 298/143 665/147
f 679/148 298/143 678/154
f 680/162 350/150 349/153
f 681/166 350/150 680/162
f 682/113 292/92 491/114
f 683/108 292/92 682/113
f 684/79 334/67 376/69
f 685/84 376/69 292/92
f 686/85 334/67 684/79
f 687/93 334/67 686/85
f 688/91 334/67 687/93
f 689/96 339/78 669/105
f 690/100 292/92 683/108
f 691/122 491/114 676/132
f 692/160 349/153 660/157
f 693/104 515/88 689/96
f 694/110 515/88 693/104
f 695/161 342/146 578/165
usemtl Tile_+031_+024_L19_000021_untextured
