mtllib Tile_+031_+023_L19_000011.mtl
v 6.09628674e+03 5.51873702e+03 1.10621738e+01
v 6.09387975e+03 5.52377474e+03 9.62042688e+00
v 6.09532538e+03 5.52505770e+03 9.78609722e+00
v 6.09709005e+03 5.52447261e+03 9.44473643e+00
v 6.09639241e+03 5.52104715e+03 9.57103795e+00
v 6.09717596e+03 5.52011669e+03 1.11400681e+01
v 6.09922402e+03 5.52198275e+03 9.59307093e+00
v 6.09669710e+03 5.52977979e+03 1.01864611e+01
v 6.09757313e+03 5.53129902e+03 9.24765941e+00
v 6.09683271e+03 5.52946483e+03 9.14913348e+00
v 6.09356850e+03 5.52996006e+03 9.33214910e+00
v 6.09455155e+03 5.52875672e+03 9.29216689e+00
v 6.09597357e+03 5.52557881e+03 9.19631985e+00
v 6.09735396e+03 5.52539316e+03 9.32722171e+00
v 6.09463305e+03 5.52577353e+03 9.47292194e+00
v 6.09502587e+03 5.52939512e+03 9.66405884e+00
v 6.09613088e+03 5.52722649e+03 9.28772036e+00
v 6.09509464e+03 5.53136828e+03 1.09938156e+01
v 6.09523565e+03 5.53006559e+03 1.10431712e+01
v 6.09368971e+03 5.53015084e+03 1.11348754e+01
v 6.10083148e+03 5.52845729e+03 9.12612910e+00
v 6.09606355e+03 5.51298128e+03 1.21510730e+01
v 6.09424363e+03 5.50844152e+03 1.20260657e+01
v 6.10233616e+03 5.50493139e+03 1.17324305e+01
v 6.09912829e+03 5.51069569e+03 1.20541202e+01
v 6.09643155e+03 5.51599255e+03 1.24326364e+01
v 6.09823839e+03 5.51469323e+03 1.27104986e+01
v 6.09623971e+03 5.51734494e+03 1.19765575e+01
v 6.09452523e+03 5.52284537e+03 1.50276515e+01
v 6.09617350e+03 5.52620473e+03 1.53683545e+01
v 6.09879754e+03 5.51880610e+03 1.22017416e+01
v 6.09446374e+03 5.52127451e+03 1.64411979e+01
v 6.09646715e+03 5.52398085e+03 1.56152747e+01
v 6.09568856e+03 5.52265277e+03 1.63886430e+01
v 6.09637561e+03 5.52350350e+03 1.61717106e+01
v 6.09582336e+03 5.52394260e+03 1.70956285e+01
v 6.09601013e+03 5.52463373e+03 1.67863479e+01
v 6.09388161e+03 5.50292669e+03 1.21992975e+01
v 6.10017078e+03 5.50000000e+03 1.20610574e+01
v 6.09438910e+03 5.52936503e+03 1.71003228e+01
v 6.09561024e+03 5.52786856e+03 1.59254172e+01
v 6.09641159e+03 5.52639474e+03 1.67939136e+01
v 6.09635034e+03 5.52631270e+03 1.78704394e+01
v 6.09588463e+03 5.52403653e+03 1.82894681e+01
v 6.09522626e+03 5.52216660e+03 1.77045236e+01
v 6.09501921e+03 5.52326501e+03 1.79664056e+01
v 6.09664456e+03 5.52556464e+03 1.67877183e+01
v 6.09744884e+03 5.52523371e+03 1.59536724e+01
v 6.09647174e+03 5.52802523e+03 2.29263009e+01
v 6.09666350e+03 5.52900515e+03 2.26226787e+01
v 6.09666161e+03 5.52837917e+03 2.16098341e+01
v 6.09541242e+03 5.52836093e+03 2.33284381e+01
v 6.09655462e+03 5.52741329e+03 2.38532234e+01
v 6.09621577e+03 5.52953248e+03 2.14939625e+01
v 6.09463811e+03 5.52944861e+03 2.14460625e+01
v 6.09424709e+03 5.52916957e+03 2.25653493e+01
v 6.09570712e+03 5.53018862e+03 2.17451025e+01
v 6.09698459e+03 5.52665381e+03 2.25436515e+01
v 6.09650326e+03 5.52612689e+03 2.20457464e+01
v 6.09508429e+03 5.52489716e+03 2.16743072e+01
v 6.09491358e+03 5.52499404e+03 2.27324819e+01
v 6.09413869e+03 5.52579275e+03 2.36449650e+01
v 6.09390793e+03 5.52487149e+03 2.25709241e+01
v 6.09482142e+03 5.52351537e+03 2.24411620e+01
v 6.09487702e+03 5.52414412e+03 2.28123881e+01
v 6.09364346e+03 5.52518688e+03 2.31718819e+01
v 6.09363939e+03 5.52377109e+03 2.06652841e+01
v 6.09423084e+03 5.52333482e+03 2.18120482e+01
v 6.09563955e+03 5.52585765e+03 2.24024676e+01
v 6.09658149e+03 5.52701093e+03 2.16649326e+01
v 6.09662048e+03 5.52616664e+03 2.30596133e+01
v 6.09584649e+03 5.52553878e+03 2.32222589e+01
v 6.09441947e+03 5.52331109e+03 1.85420961e+01
v 6.09573112e+03 5.52427059e+03 1.95207916e+01
v 6.09440401e+03 5.52378809e+03 2.08972383e+01
v 6.09420760e+03 5.52306587e+03 1.94987749e+01
v 6.09535996e+03 5.52348905e+03 2.00841902e+01
v 6.09383845e+03 5.52251915e+03 1.91584022e+01
v 6.09413689e+03 5.52164337e+03 1.78740251e+01
v 6.09355932e+03 5.53000219e+03 2.09255363e+01
v 6.09418870e+03 5.53011003e+03 2.01013874e+01
v 6.09537732e+03 5.52928315e+03 2.24386893e+01
v 6.09548341e+03 5.52965214e+03 2.05536369e+01
v 6.09703178e+03 5.52759375e+03 2.09714291e+01
v 6.09678488e+03 5.52805432e+03 2.02558986e+01
v 6.09587398e+03 5.52626887e+03 2.08597925e+01
v 6.09647246e+03 5.52667857e+03 2.00079650e+01
v 6.09556995e+03 5.52453354e+03 2.05427007e+01
v 6.09559118e+03 5.52531442e+03 2.05148270e+01
v 6.09368622e+03 5.52924709e+03 1.86027963e+01
v 6.09590569e+03 5.52856457e+03 1.84809115e+01
v 6.09673079e+03 5.52514254e+03 1.95565898e+01
v 6.09406130e+03 5.52961326e+03 1.80345678e+01
v 6.09695935e+03 5.52763912e+03 1.92715683e+01
v 6.09630640e+03 5.52505576e+03 1.80189995e+01
v 6.09627171e+03 5.52757314e+03 1.74745932e+01
v 6.09352269e+03 5.53046045e+03 1.80164250e+01
v 6.09483498e+03 5.52952859e+03 1.88071036e+01
v 6.10040623e+03 5.52088948e+03 1.10264359e+01
v 6.09369404e+03 5.51881468e+03 1.11910475e+01
v 6.09820522e+03 5.52650464e+03 9.48832128e+00
v 6.09960728e+03 5.51733734e+03 1.21009710e+01
v 6.09602319e+03 5.52642582e+03 2.47611318e+01
v 6.09482105e+03 5.52621151e+03 2.47439041e+01
v 6.09671860e+03 5.52568367e+03 2.42073023e+01
v 6.09443041e+03 5.52946789e+03 2.43054972e+01
v 6.09530548e+03 5.52948698e+03 2.55309489e+01
v 6.09488590e+03 5.52661334e+03 2.71048106e+01
v 6.09396164e+03 5.52627948e+03 2.78643159e+01
v 6.09384995e+03 5.52835258e+03 2.77909656e+01
v 6.09407178e+03 5.52723079e+03 2.78770466e+01
v 6.09452390e+03 5.52876367e+03 2.71577534e+01
v 6.09515073e+03 5.52806246e+03 2.66323858e+01
v 6.09554246e+03 5.52600273e+03 2.61872070e+01
v 6.09492859e+03 5.52707260e+03 2.64354841e+01
v 6.09502762e+03 5.52773296e+03 2.73699597e+01
v 6.09450910e+03 5.53046314e+03 2.63778739e+01
v 6.09535457e+03 5.52895496e+03 2.69186159e+01
v 6.09554385e+03 5.52839010e+03 2.49136496e+01
v 6.09378673e+03 5.53067900e+03 2.57708140e+01
v 6.09694156e+03 5.52624371e+03 2.45330830e+01
v 6.09465106e+03 5.52685801e+03 2.51215110e+01
v 6.09546163e+03 5.52718564e+03 2.45012912e+01
v 6.09423182e+03 5.52533727e+03 2.58325488e+01
v 6.09354419e+03 5.52455221e+03 2.46481537e+01
v 6.09486810e+03 5.52950289e+03 2.62673984e+01
v 6.09370213e+03 5.52546397e+03 2.46118443e+01
v 6.09505349e+03 5.52586268e+03 2.75598203e+01
v 6.11062074e+03 5.51904056e+03 1.08123186e+01
v 6.10880961e+03 5.51552832e+03 1.10066561e+01
v 6.10654019e+03 5.51989451e+03 1.16094986e+01
v 6.11251408e+03 5.53107090e+03 9.06490564e+00
v 6.11021912e+03 5.52933320e+03 9.08677973e+00
v 6.11222071e+03 5.52758622e+03 8.85062742e+00
v 6.10298915e+03 5.50000000e+03 1.16182365e+01
v 6.10733472e+03 5.50527716e+03 1.12770974e+01
v 6.10838196e+03 5.50303601e+03 1.12379876e+01
v 6.10196527e+03 5.52196796e+03 1.10177547e+01
v 6.10184683e+03 5.52023567e+03 1.16122263e+01
v 6.11744432e+03 5.52624773e+03 9.63587418e+00
v 6.11883164e+03 5.52494025e+03 8.88851448e+00
v 6.11342411e+03 5.51708184e+03 1.03621369e+01
v 6.11263759e+03 5.52056283e+03 1.06315787e+01
v 6.10971506e+03 5.50781672e+03 1.10896970e+01
v 6.11487469e+03 5.50985259e+03 1.00106413e+01
v 6.11457775e+03 5.51288657e+03 1.42596055e+01
v 6.11369071e+03 5.51189710e+03 1.39697229e+01
v 6.11670154e+03 5.51567469e+03 1.41247913e+01
v 6.11524524e+03 5.51558468e+03 1.36383234e+01
v 6.11483019e+03 5.51156612e+03 1.07146941e+01
v 6.11513444e+03 5.51420607e+03 1.25240533e+01
v 6.11526815e+03 5.50670784e+03 1.02316206e+01
v 6.11483343e+03 5.50261157e+03 1.11464184e+01
v 6.11419049e+03 5.50000000e+03 1.03723128e+01
v 6.11511801e+03 5.50648219e+03 1.19947807e+01
v 6.11542325e+03 5.50528889e+03 1.15672439e+01
v 6.11396688e+03 5.50404849e+03 1.13364950e+01
v 6.11776857e+03 5.50400756e+03 1.06828626e+01
v 6.11726695e+03 5.50416753e+03 1.11632111e+01
v 6.11611573e+03 5.50590414e+03 1.24982212e+01
v 6.11684392e+03 5.50514988e+03 1.25437767e+01
v 6.11425037e+03 5.50810351e+03 1.25237588e+01
v 6.11522495e+03 5.50563314e+03 1.37942551e+01
v 6.11513866e+03 5.50606124e+03 1.43160707e+01
v 6.11621614e+03 5.50354346e+03 1.08422479e+01
v 6.11603815e+03 5.50586205e+03 1.09479131e+01
v 6.10699700e+03 5.52298987e+03 1.16067357e+01
v 6.11010995e+03 5.52118427e+03 1.13830724e+01
v 6.11082258e+03 5.52266396e+03 9.99284827e+00
v 6.11082010e+03 5.52351709e+03 9.18915511e+00
v 6.11757733e+03 5.52817972e+03 9.03586027e+00
v 6.11559037e+03 5.50691606e+03 1.35098171e+01
v 6.11646894e+03 5.50605667e+03 1.00061916e+01
v 6.10561213e+03 5.52298682e+03 1.10733113e+01
v 6.10479010e+03 5.52227114e+03 1.11915933e+01
v 6.11744428e+03 5.51463708e+03 1.58481568e+01
v 6.11495032e+03 5.51428218e+03 1.34565766e+01
v 6.10323337e+03 5.51494292e+03 1.23092107e+01
v 6.10438143e+03 5.51606800e+03 1.23800755e+01
v 6.10676081e+03 5.52336351e+03 1.01268758e+01
v 6.10849612e+03 5.52311702e+03 1.04902452e+01
v 6.10618452e+03 5.51742811e+03 1.12170979e+01
v 6.10630986e+03 5.51490075e+03 1.14991237e+01
v 6.10393906e+03 5.51856729e+03 1.16614535e+01
v 6.11645693e+03 5.50919607e+03 1.01212977e+01
v 6.11522141e+03 5.51013414e+03 1.07834924e+01
v 6.10109585e+03 5.51758893e+03 1.22414735e+01
v 6.11668813e+03 5.51026233e+03 1.62041308e+01
v 6.11658220e+03 5.50859213e+03 1.62559923e+01
v 6.11762013e+03 5.50542437e+03 1.43677530e+01
v 6.11657687e+03 5.50435228e+03 1.42129001e+01
v 6.11779741e+03 5.50763688e+03 1.60563512e+01
v 6.11764022e+03 5.50642644e+03 1.67344662e+01
v 6.11559080e+03 5.51246708e+03 1.60007606e+01
v 6.11508374e+03 5.51365753e+03 1.47769444e+01
v 6.11658534e+03 5.50670763e+03 1.64561719e+01
v 6.11447111e+03 5.50892988e+03 1.36073524e+01
v 6.11379893e+03 5.51034987e+03 1.49316117e+01
v 6.11466237e+03 5.50778141e+03 1.35236552e+01
v 6.11512663e+03 5.50843004e+03 1.40131656e+01
v 6.11624240e+03 5.50768576e+03 1.54312616e+01
v 6.11692348e+03 5.50769899e+03 1.54178673e+01
v 6.11744678e+03 5.51008024e+03 1.63496585e+01
v 6.11787243e+03 5.50938647e+03 1.63647976e+01
v 6.11583832e+03 5.50758044e+03 1.44955840e+01
v 6.11640771e+03 5.50680392e+03 1.44894771e+01
v 6.11689249e+03 5.50604006e+03 1.42183686e+01
v 6.11540701e+03 5.50876415e+03 1.54315777e+01
v 6.11483138e+03 5.51327987e+03 1.03010153e+01
v 6.11607459e+03 5.50509457e+03 1.36019880e+01
v 6.10388127e+03 5.51232292e+03 1.18683530e+01
v 6.11603803e+03 5.50607326e+03 1.59039618e+01
v 6.10377478e+03 5.52106665e+03 1.17146497e+01
v 6.11520231e+03 5.50989595e+03 1.54380305e+01
v 6.11521030e+03 5.51207750e+03 1.55834852e+01
v 6.11486323e+03 5.51102969e+03 1.56115540e+01
v 6.11436379e+03 5.51173512e+03 1.56118346e+01
v 6.11726261e+03 5.50521516e+03 1.56203444e+01
v 6.11696349e+03 5.51257265e+03 1.60142440e+01
v 6.11784227e+03 5.51099093e+03 1.65174832e+01
v 6.11800540e+03 5.50456331e+03 1.42476713e+01
v 6.11729027e+03 5.51952269e+03 9.60958212e+00
v 6.11630754e+03 5.52036599e+03 9.48837045e+00
v 6.11749989e+03 5.50389981e+03 1.35301453e+01
v 6.11702267e+03 5.50411348e+03 1.30323960e+01
v 6.11815560e+03 5.50356942e+03 1.02402589e+01
v 6.11822895e+03 5.50000000e+03 1.11859055e+01
v 6.11733047e+03 5.50000000e+03 1.14038233e+01
v 6.11742476e+03 5.50049335e+03 1.14993153e+01
v 6.11670380e+03 5.50107016e+03 1.11898283e+01
v 6.11595407e+03 5.50913831e+03 9.78676377e+00
v 6.11655366e+03 5.50416009e+03 1.01857825e+01
v 6.11525432e+03 5.50504511e+03 1.03345400e+01
v 6.11683329e+03 5.50667946e+03 1.03110513e+01
v 6.11600803e+03 5.50768173e+03 1.04012003e+01
v 6.11887707e+03 5.50413521e+03 1.49653964e+01
v 6.11829591e+03 5.50483139e+03 1.52956450e+01
v 6.11568260e+03 5.51450616e+03 1.43581825e+01
v 6.11710922e+03 5.51433734e+03 1.51466124e+01
v 6.11382830e+03 5.51043995e+03 1.25758302e+01
v 6.10126579e+03 5.52291365e+03 9.60419673e+00
v 6.12185701e+03 5.51218616e+03 1.18170445e+01
v 6.12235027e+03 5.51357313e+03 1.33978630e+01
v 6.12144809e+03 5.51379092e+03 1.42527721e+01
v 6.12198841e+03 5.51317685e+03 1.40986509e+01
v 6.12058716e+03 5.50998406e+03 1.51982855e+01
v 6.12187757e+03 5.51111824e+03 1.44354020e+01
v 6.11848357e+03 5.51585081e+03 1.44953398e+01
v 6.11929821e+03 5.51542244e+03 1.48195086e+01
v 6.12066179e+03 5.50914974e+03 1.58556973e+01
v 6.11959621e+03 5.50753132e+03 1.55031009e+01
v 6.12522200e+03 5.50000000e+03 1.19502733e+01
v 6.12053856e+03 5.52550098e+03 9.37983043e+00
v 6.12419663e+03 5.52390822e+03 8.75871228e+00
v 6.12191017e+03 5.51066637e+03 9.56738891e+00
v 6.12160129e+03 5.51176533e+03 1.02329646e+01
v 6.12201137e+03 5.52059559e+03 9.00547226e+00
v 6.12441702e+03 5.51949167e+03 9.08357261e+00
v 6.12273921e+03 5.51784336e+03 8.99549666e+00
v 6.12152037e+03 5.52786455e+03 8.94465421e+00
v 6.12333845e+03 5.51178790e+03 9.48055471e+00
v 6.12343813e+03 5.50938429e+03 9.27077309e+00
v 6.12202471e+03 5.51152715e+03 9.27769566e+00
v 6.12236095e+03 5.50805105e+03 9.96865937e+00
v 6.12231355e+03 5.50932539e+03 9.81405350e+00
v 6.12522561e+03 5.50790377e+03 9.30835898e+00
v 6.12512899e+03 5.50247388e+03 1.00235980e+01
v 6.12332241e+03 5.50531411e+03 9.56548570e+00
v 6.12306046e+03 5.50117901e+03 9.81524135e+00
v 6.12108164e+03 5.50000000e+03 9.66224799e+00
v 6.12110254e+03 5.50734917e+03 1.19239040e+01
v 6.12199684e+03 5.50825384e+03 1.21472537e+01
v 6.12452455e+03 5.50237494e+03 1.01976699e+01
v 6.11943970e+03 5.51426716e+03 9.89252404e+00
v 6.12038236e+03 5.51259619e+03 9.45939720e+00
v 6.12193206e+03 5.50000000e+03 1.02095497e+01
v 6.12101993e+03 5.50349522e+03 9.65553329e+00
v 6.12321488e+03 5.51409004e+03 9.18629906e+00
v 6.12516471e+03 5.50248471e+03 1.18313793e+01
v 6.12147001e+03 5.51392375e+03 1.28372188e+01
v 6.11963652e+03 5.50524217e+03 1.20882105e+01
v 6.12023736e+03 5.51475691e+03 1.36729377e+01
v 6.12324885e+03 5.50000000e+03 1.19162245e+01
v 6.12303855e+03 5.50132217e+03 1.17612835e+01
v 6.11882341e+03 5.50445162e+03 1.00806875e+01
v 6.12047143e+03 5.50672380e+03 1.07764710e+01
v 6.12065144e+03 5.50526759e+03 1.47958902e+01
v 6.12022256e+03 5.50484244e+03 1.38239221e+01
v 6.11827834e+03 5.50626255e+03 1.59261948e+01
v 6.11872959e+03 5.50540593e+03 1.56189119e+01
v 6.11865505e+03 5.50427991e+03 1.31657916e+01
v 6.11963772e+03 5.50398222e+03 1.41159084e+01
v 6.11992872e+03 5.50183387e+03 1.00596701e+01
v 6.12218423e+03 5.50000000e+03 1.18167193e+01
v 6.12097228e+03 5.50657345e+03 9.82711112e+00
v 6.12115751e+03 5.50830238e+03 1.46389555e+01
v 6.12103440e+03 5.50786159e+03 1.32083579e+01
v 6.12054592e+03 5.51890717e+03 9.20102034e+00
v 6.12030349e+03 5.51526682e+03 9.30396456e+00
v 6.11893039e+03 5.51420107e+03 1.53022269e+01
v 6.12021791e+03 5.51530062e+03 1.51595650e+01
v 6.11886650e+03 5.51523520e+03 1.24576358e+01
v 6.11925876e+03 5.52759382e+03 8.89981851e+00
v 6.11776532e+03 5.52087939e+03 9.08246496e+00
v 6.11849749e+03 5.51948788e+03 1.04071918e+01
v 6.11746215e+03 5.51524814e+03 1.07925014e+01
v 6.11664981e+03 5.51516751e+03 1.20371690e+01
v 6.11704450e+03 5.52572338e+03 8.94036889e+00
v 6.11381137e+03 5.52401171e+03 9.13338148e+00
v 6.11477833e+03 5.50932566e+03 1.20594222e+01
v 6.11809996e+03 5.50404213e+03 1.22166584e+01
v 6.11701424e+03 5.50496461e+03 1.09774561e+01
v 6.11929950e+03 5.51434508e+03 1.07945248e+01
v 6.10827462e+03 5.52398885e+03 9.51821382e+00
v 6.10428547e+03 5.52405498e+03 9.29313095e+00
v 6.10641837e+03 5.52582580e+03 9.23572616e+00
v 6.10647243e+03 5.52765513e+03 9.09694461e+00
v 6.10887344e+03 5.52791011e+03 8.92700555e+00
v 6.11581982e+03 5.51496893e+03 1.03409366e+01
v 6.11569090e+03 5.51407150e+03 1.07275100e+01
v 6.11691238e+03 5.50287603e+03 1.00537619e+01
v 6.11331882e+03 5.52258028e+03 9.13551374e+00
v 6.11194074e+03 5.52249683e+03 9.37252738e+00
v 6.11454785e+03 5.52117850e+03 9.45589897e+00
v 6.11005597e+03 5.50419594e+03 1.08700715e+01
v 6.11105771e+03 5.50000000e+03 1.06298344e+01
v 6.11311742e+03 5.50346210e+03 1.05599251e+01
v 6.11522573e+03 5.50170973e+03 1.14201586e+01
v 6.11797820e+03 5.50300825e+03 1.02057894e+01
v 6.11731291e+03 5.50461172e+03 1.02960057e+01
v 6.11619865e+03 5.50490784e+03 1.08068929e+01
v 6.11393671e+03 5.50552445e+03 1.03931527e+01
v 6.11567306e+03 5.52100233e+03 9.67668162e+00
v 6.11206986e+03 5.52203530e+03 1.07162471e+01
v 6.11540618e+03 5.51842146e+03 9.77534006e+00
v 6.10906133e+03 5.52247216e+03 1.05814343e+01
v 6.11786409e+03 5.51585277e+03 9.92311144e+00
v 6.11520995e+03 5.50618614e+03 1.31417852e+01
v 6.11828369e+03 5.51801114e+03 9.89095079e+00
v 6.11537449e+03 5.50000000e+03 1.07043387e+01
v 6.11659950e+03 5.51508896e+03 1.46647809e+01
v 6.11533483e+03 5.51561536e+03 1.45985463e+01
v 6.10192225e+03 5.51204349e+03 1.20346440e+01
v 6.10301177e+03 5.51240907e+03 1.23097521e+01
v 6.10108968e+03 5.51402021e+03 1.28432481e+01
v 6.10903583e+03 5.50000000e+03 1.10119959e+01
v 6.10894593e+03 5.50000000e+03 1.10276214e+01
v 6.11718040e+03 5.51322705e+03 1.56546500e+01
v 6.11837032e+03 5.51391500e+03 1.62218842e+01
v 6.11867693e+03 5.51214867e+03 1.59184281e+01
v 6.11716352e+03 5.51143709e+03 1.58033009e+01
v 6.11578201e+03 5.51147611e+03 1.56862530e+01
v 6.11837163e+03 5.51087628e+03 1.60421650e+01
v 6.11551065e+03 5.51022120e+03 1.59412694e+01
v 6.11785197e+03 5.50525018e+03 1.65847590e+01
v 6.11809440e+03 5.50558303e+03 1.67171646e+01
v 6.11583797e+03 5.50728646e+03 1.51648860e+01
v 6.11926080e+03 5.50964935e+03 1.56027837e+01
v 6.11798952e+03 5.50842481e+03 1.58871985e+01
v 6.11839354e+03 5.50695070e+03 1.60106249e+01
v 6.11941307e+03 5.50000000e+03 9.89845122e+00
v 6.11903175e+03 5.51286111e+03 1.49208476e+01
v 6.12021025e+03 5.51390077e+03 1.44304694e+01
v 6.12036649e+03 5.50820583e+03 1.55479571e+01
v 6.11976852e+03 5.50740453e+03 1.47575974e+01
v 6.12036617e+03 5.50684406e+03 1.41391490e+01
v 6.12010953e+03 5.52652645e+03 9.10058333e+00
v 6.12093275e+03 5.50627330e+03 1.33769185e+01
v 6.12236338e+03 5.50999227e+03 1.40919014e+01
v 6.12205718e+03 5.51196996e+03 1.30928311e+01
v 6.11906099e+03 5.51915202e+03 9.54756796e+00
v 6.11855943e+03 5.50152166e+03 1.09658977e+01
v 6.12160467e+03 5.51363445e+03 1.55465714e+01
v 6.12156521e+03 5.51210803e+03 1.54410314e+01
v 6.12196378e+03 5.51299359e+03 1.54518309e+01
v 6.12112133e+03 5.51104016e+03 1.50858457e+01
v 6.11990539e+03 5.51461658e+03 1.53293132e+01
v 6.12204253e+03 5.50023939e+03 1.16681910e+01
v 6.11944694e+03 5.51229391e+03 1.50784489e+01
v 6.11968820e+03 5.50648893e+03 1.61139915e+01
v 6.11937921e+03 5.50506607e+03 1.47302056e+01
v 6.11971022e+03 5.51080173e+03 1.53460158e+01
v 6.12016815e+03 5.50597678e+03 1.51927791e+01
v 6.09350000e+03 5.52680811e+03 2.81334587e+01
v 6.09350000e+03 5.52631766e+03 2.80984349e+01
v 6.09350000e+03 5.52501866e+03 2.56135941e+01
v 6.09350000e+03 5.52507062e+03 2.65577943e+01
v 6.09350000e+03 5.52593009e+03 2.76257799e+01
v 6.09350000e+03 5.52547190e+03 2.73056110e+01
v 6.09350000e+03 5.52529552e+03 2.64241600e+01
v 6.09350000e+03 5.52458889e+03 2.47475987e+01
v 6.09350000e+03 5.52455654e+03 2.46291069e+01
v 6.09350000e+03 5.53028269e+03 2.61183924e+01
v 6.09350000e+03 5.52986862e+03 2.66240140e+01
v 6.09350000e+03 5.52954492e+03 2.66176856e+01
v 6.09350000e+03 5.52929169e+03 2.68886323e+01
v 6.09350000e+03 5.52510160e+03 2.33441829e+01
v 6.09350000e+03 5.52960017e+03 2.39613262e+01
v 6.09350000e+03 5.53013364e+03 2.31249043e+01
v 6.09350000e+03 5.52967114e+03 2.43271944e+01
v 6.09350000e+03 5.53010877e+03 2.49200992e+01
v 6.09350000e+03 5.53056317e+03 2.56328612e+01
v 6.09350000e+03 5.52883746e+03 2.73738232e+01
v 6.09350000e+03 5.52845060e+03 2.77075259e+01
v 6.09350000e+03 5.52744408e+03 2.74943981e+01
v 6.09350000e+03 5.52710228e+03 2.79114927e+01
v 6.09350000e+03 5.52811318e+03 2.75345627e+01
v 6.09350000e+03 5.52129671e+03 1.78554090e+01
v 6.09350000e+03 5.52114812e+03 1.74634158e+01
v 6.09350000e+03 5.52374926e+03 1.98301119e+01
v 6.09350000e+03 5.52357351e+03 1.88186146e+01
v 6.09350000e+03 5.53018140e+03 1.74700081e+01
v 6.09350000e+03 5.53046608e+03 1.79976869e+01
v 6.09350000e+03 5.52170856e+03 1.86949629e+01
v 6.09350000e+03 5.52163047e+03 1.80642931e+01
v 6.09350000e+03 5.50000000e+03 1.25312313e+01
v 6.09350000e+03 5.50236720e+03 1.22845075e+01
v 6.09350000e+03 5.51688294e+03 1.18991589e+01
v 6.09350000e+03 5.51728798e+03 1.17673398e+01
v 6.09350000e+03 5.53011851e+03 1.73581835e+01
v 6.09350000e+03 5.52771074e+03 1.59994156e+01
v 6.09350000e+03 5.52385143e+03 9.74396516e+00
v 6.09350000e+03 5.52378088e+03 1.01404955e+01
v 6.09350000e+03 5.53033802e+03 2.29093550e+01
v 6.09350000e+03 5.53008580e+03 2.12472962e+01
v 6.09350000e+03 5.52327106e+03 1.88240053e+01
v 6.09350000e+03 5.52276933e+03 1.90001931e+01
v 6.09350000e+03 5.52928459e+03 1.86281358e+01
v 6.09350000e+03 5.53043705e+03 1.80339315e+01
v 6.09350000e+03 5.52224124e+03 1.92619582e+01
v 6.09350000e+03 5.52261252e+03 1.91149059e+01
v 6.09350000e+03 5.52383702e+03 2.12775465e+01
v 6.09350000e+03 5.52383174e+03 2.14038331e+01
v 6.09350000e+03 5.52468720e+03 2.16378247e+01
v 6.09350000e+03 5.52473954e+03 2.17265504e+01
v 6.09350000e+03 5.52384276e+03 2.14094997e+01
v 6.09350000e+03 5.52513532e+03 2.30233246e+01
v 6.09350000e+03 5.52487464e+03 2.21135189e+01
v 6.09350000e+03 5.52465318e+03 2.16208929e+01
v 6.09350000e+03 5.53004925e+03 2.10489865e+01
v 6.09350000e+03 5.52713509e+03 1.56341035e+01
v 6.09350000e+03 5.52622327e+03 1.53228288e+01
v 6.09350000e+03 5.52128634e+03 1.55290588e+01
v 6.09350000e+03 5.52161211e+03 1.52239845e+01
v 6.09350000e+03 5.52122343e+03 1.67785413e+01
v 6.09350000e+03 5.50762792e+03 1.20910137e+01
v 6.09350000e+03 5.50292481e+03 1.22211280e+01
v 6.09350000e+03 5.50834838e+03 1.20128492e+01
v 6.09350000e+03 5.50957436e+03 1.19967144e+01
v 6.09350000e+03 5.52524321e+03 1.51466743e+01
v 6.09350000e+03 5.52324269e+03 1.49991371e+01
v 6.09350000e+03 5.51860579e+03 1.12557594e+01
v 6.09350000e+03 5.51949231e+03 1.04473108e+01
v 6.09350000e+03 5.53115015e+03 1.12835079e+01
v 6.09350000e+03 5.53104859e+03 1.12892680e+01
v 6.09350000e+03 5.53070697e+03 1.12341564e+01
v 6.09350000e+03 5.53018958e+03 1.11155965e+01
v 6.09350000e+03 5.52020145e+03 9.65207618e+00
v 6.09350000e+03 5.51461519e+03 1.21450171e+01
v 6.09350000e+03 5.51320564e+03 1.20231214e+01
v 6.09350000e+03 5.52711654e+03 9.40062471e+00
v 6.09350000e+03 5.52628228e+03 9.47318125e+00
v 6.09350000e+03 5.53012990e+03 1.09321953e+01
v 6.09350000e+03 5.52984716e+03 9.33762732e+00
v 6.09350000e+03 5.52810269e+03 9.36149899e+00
v 6.09350000e+03 5.52399118e+03 9.61163679e+00
v 6.09350000e+03 5.52523866e+03 9.52689671e+00
v 6.09350000e+03 5.52365704e+03 9.65188375e+00
v 6.09350000e+03 5.52165884e+03 9.56562450e+00
v 6.09350000e+03 5.52038202e+03 9.53417693e+00
v 6.09350000e+03 5.52925093e+03 1.87370025e+01
v 6.09350000e+03 5.52997526e+03 2.08847964e+01
v 6.09350000e+03 5.52998555e+03 2.09396205e+01
v 6.09350000e+03 5.52996051e+03 9.33458157e+00
v 6.12525000e+03 5.50240682e+03 1.17829054e+01
v 6.12525000e+03 5.50236808e+03 1.01536344e+01
v 6.12525000e+03 5.50791490e+03 9.30919438e+00
v 6.12525000e+03 5.50793554e+03 9.30911228e+00
v 6.12525000e+03 5.50090663e+03 1.19201774e+01
v 6.12525000e+03 5.50004743e+03 1.19491568e+01
v 6.12525000e+03 5.50234605e+03 1.18412677e+01
v 6.12525000e+03 5.50000000e+03 1.19393301e+01
v 6.12525000e+03 5.52464155e+03 8.80112608e+00
v 6.12525000e+03 5.52325973e+03 8.74480027e+00
v 6.12525000e+03 5.50544222e+03 9.51159677e+00
v 6.12525000e+03 5.50788152e+03 9.30965285e+00
v 6.12525000e+03 5.50287458e+03 9.71890567e+00
v 6.12525000e+03 5.50241134e+03 9.98180303e+00
v 6.12525000e+03 5.51025094e+03 9.18304345e+00
v 6.12525000e+03 5.50796175e+03 9.30471623e+00
v 6.12525000e+03 5.50790256e+03 9.30926313e+00
v 6.12525000e+03 5.51440906e+03 9.20477413e+00
v 6.12525000e+03 5.51119896e+03 9.26230857e+00
v 6.12525000e+03 5.51773396e+03 9.07584621e+00
v 6.12525000e+03 5.51630415e+03 9.04728736e+00
v 6.12525000e+03 5.52792884e+03 8.96703117e+00
v 6.12525000e+03 5.51987128e+03 9.00424186e+00
v 6.12525000e+03 5.52095836e+03 8.85245843e+00
v 6.12525000e+03 5.51519848e+03 9.10509529e+00
v 6.09632994e+03 5.53150000e+03 9.61563370e+00
v 6.09562729e+03 5.53150000e+03 1.01706566e+01
v 6.09744000e+03 5.53150000e+03 9.25278706e+00
v 6.09755828e+03 5.53150000e+03 9.24524538e+00
v 6.09766900e+03 5.53150000e+03 9.25111481e+00
v 6.09473512e+03 5.53150000e+03 1.06671283e+01
v 6.11243566e+03 5.53150000e+03 9.05732037e+00
v 6.11230413e+03 5.53150000e+03 9.07508409e+00
v 6.11027953e+03 5.53150000e+03 9.05306736e+00
v 6.10903340e+03 5.53150000e+03 9.05020388e+00
v 6.11950695e+03 5.53150000e+03 9.05494217e+00
v 6.11362525e+03 5.53150000e+03 9.06578322e+00
v 6.10888613e+03 5.53150000e+03 9.03746296e+00
v 6.10873007e+03 5.53150000e+03 9.04902298e+00
v 6.11285070e+03 5.53150000e+03 9.06607954e+00
v 6.10352629e+03 5.53150000e+03 9.15894311e+00
v 6.10577966e+03 5.53150000e+03 9.15165813e+00
v 6.10131672e+03 5.53150000e+03 9.23604229e+00
v 6.09779783e+03 5.53150000e+03 9.25393955e+00
v 6.12134786e+03 5.53150000e+03 9.01505862e+00
v 6.09429741e+03 5.53150000e+03 1.09694004e+01
v 6.09350000e+03 5.53150000e+03 1.10375904e+01
v 6.12524018e+03 5.53150000e+03 9.03709439e+00
v 6.12525000e+03 5.53150000e+03 9.03714994e+00
vt 0.004120932 0.50449771
vt 0.010102512 0.55022866
vt 0.0041359821 0.54148769
vt 0.10835812 0.50446844
vt 0.0041395929 0.55020106
vt 0.14222129 0.581514
vt 0.0041650124 0.6236887
vt 0.15240081 0.50445855
vt 0.015789228 0.63639814
vt 0.2203315 0.58689576
vt 0.092123352 0.67159474
vt 0.0041696308 0.6349467
vt 0.25753969 0.62656635
vt 0.23668395 0.55187279
vt 0.13578622 0.69264019
vt 0.044246871 0.70732176
vt 0.004176036 0.65410292
vt 0.16639957 0.69699788
vt 0.26285079 0.56999189
vt 0.24548328 0.50443411
vt 0.12277719 0.7235229
vt 0.07823059 0.73405468
vt 0.20436396 0.73726809
vt 0.31068635 0.5585131
vt 0.24688816 0.50443375
vt 0.27848482 0.50442725
vt 0.15280849 0.69834423
vt 0.050008766 0.75436854
vt 0.0041940836 0.71084172
vt 0.15628375 0.73793459
vt 0.24343207 0.7470659
vt 0.32350034 0.59073484
vt 0.099640578 0.77536809
vt 0.047023706 0.77550507
vt 0.0041996995 0.73286486
vt 0.17422713 0.75550753
vt 0.33751994 0.71191025
vt 0.20242186 0.77676165
vt 0.3239525 0.56766361
vt 0.34408629 0.58323896
vt 0.32743797 0.5044139
vt 0.0042142356 0.76830095
vt 0.16733672 0.7945683
vt 0.12289912 0.7792902
vt 0.33818293 0.6583612
vt 0.3155497 0.77132261
vt 0.20798689 0.81529361
vt 0.33748755 0.54520905
vt 0.35910088 0.55976582
vt 0.34431216 0.60922015
vt 0.047776911 0.79726505
vt 0.0042179264 0.77463102
vt 0.27175122 0.8019377
vt 0.35297248 0.73829639
vt 0.36438599 0.56940544
vt 0.36307397 0.5990417
vt 0.34360921 0.53111303
vt 0.086994633 0.79832065
vt 0.0072645899 0.79849041
vt 0.13465449 0.82064795
vt 0.35504746 0.64719725
vt 0.30327454 0.82571471
vt 0.38492393 0.75210017
vt 0.16478176 0.83362138
vt 0.26377389 0.83543026
vt 0.36998609 0.54934138
vt 0.35883504 0.58108473
vt 0.36876634 0.60876805
vt 0.34593388 0.50440466
vt 0.061677087 0.81881726
vt 0.0042455117 0.80908668
vt 0.0042309626 0.79522675
vt 0.35587558 0.62443191
vt 0.36290082 0.64809406
vt 0.34653381 0.79224998
vt 0.1806588 0.85244155
vt 0.21514022 0.86365664
vt 0.36670381 0.52111447
vt 0.37625018 0.57645714
vt 0.11215553 0.83087683
vt 0.049458336 0.83337492
vt 0.0042589987 0.82017475
vt 0.13652125 0.84772027
vt 0.33314013 0.83533645
vt 0.29441017 0.84872431
vt 0.3914915 0.78582311
vt 0.38663846 0.55140042
vt 0.37648746 0.50438792
vt 0.093706787 0.84797919
vt 0.36063102 0.8226316
vt 0.42304438 0.74293828
vt 0.37598041 0.8094489
vt 0.19350822 0.86362106
vt 0.17280652 0.88033509
vt 0.37796214 0.51209521
vt 0.12561421 0.86251402
vt 0.0042613801 0.82299733
vt 0.060377944 0.88689566
vt 0.31394759 0.8572486
vt 0.40364686 0.80364871
vt 0.40953526 0.72731727
vt 0.39483327 0.808891
vt 0.39570329 0.528162
vt 0.39052898 0.50438547
vt 0.00426745 0.84294736
vt 0.11886206 0.94914055
vt 0.010211059 0.87600589
vt 0.38341653 0.83065009
vt 0.42685214 0.79981881
vt 0.42426127 0.70120764
vt 0.41711119 0.53304213
vt 0.064507611 0.90127915
vt 0.032803509 0.8960433
vt 0.32165107 0.87961233
vt 0.46853051 0.72453749
vt 0.44992003 0.68449736
vt 0.38941264 0.56016743
vt 0.40904692 0.50439203
vt 0.004276488 0.87416852
vt 0.077812195 0.91864014
vt 0.021993276 0.90723473
vt 0.37217999 0.9063428
vt 0.27490905 0.87189847
vt 0.46111944 0.78318763
vt 0.44976082 0.826195
vt 0.4341749 0.5589993
vt 0.383362 0.56701112
vt 0.4351213 0.50438595
vt 0.045406684 0.92993146
vt 0.056385819 0.96490359
vt 0.042941552 0.90418816
vt 0.0042786803 0.87938988
vt 0.4001008 0.89409781
vt 0.29681844 0.93547505
vt 0.47044608 0.68856287
vt 0.50034225 0.75912404
vt 0.39985377 0.57395017
vt 0.067963086 0.99355817
vt 0.0042860475 0.89888263
vt 0.0042763259 0.8772049
vt 0.37842116 0.91452694
vt 0.38051665 0.94471955
vt 0.24451783 0.94055212
vt 0.47199395 0.65100777
vt 0.50033075 0.72951174
vt 0.50033593 0.7418474
vt 0.50034916 0.7814647
vt 0.48734263 0.80893314
vt 0.48392534 0.87794626
vt 0.43344381 0.60709536
vt 0.46604457 0.52279651
vt 0.020737255 0.95384938
vt 0.12645794 0.99667954
vt 0.0042919973 0.91518974
vt 0.0042971224 0.92822576
vt 0.40678781 0.9355576
vt 0.30141729 0.9899199
vt 0.20614286 0.90799403
vt 0.26554945 0.96277964
vt 0.45441538 0.65008795
vt 0.50030994 0.66454107
vt 0.50031376 0.67935318
vt 0.50036085 0.81486112
vt 0.50038123 0.86780834
vt 0.42676818 0.90284574
vt 0.47016165 0.58740878
vt 0.44840246 0.50437629
vt 0.028147189 0.96381843
vt 0.071474895 0.99669725
vt 0.16098368 0.99666911
vt 0.4200733 0.91887373
vt 0.41068357 0.99658912
vt 0.20699857 0.93657845
vt 0.23513412 0.87927938
vt 0.24703382 0.99664223
vt 0.45514756 0.63017464
vt 0.44812238 0.6710453
vt 0.49991542 0.6278652
vt 0.50036824 0.83184838
vt 0.50038755 0.88939881
vt 0.44212645 0.939776
vt 0.48892245 0.54147178
vt 0.0043025999 0.94363487
vt 0.0053826338 0.97265625
vt 0.069461934 0.9966979
vt 0.31878155 0.99661881
vt 0.26650476 0.99663591
vt 0.2447329 0.99664313
vt 0.50029689 0.62877107
vt 0.4983694 0.54301637
vt 0.004311725 0.97089249
vt 0.067732044 0.9966985
vt 0.1961928 0.99665779
vt 0.30667919 0.99662274
vt 0.43944839 0.99658018
vt 0.29813895 0.99662542
vt 0.2422943 0.99664378
vt 0.50029671 0.62836158
vt 0.50028157 0.58940136
vt 0.50040209 0.94076139
vt 0.50026602 0.54927975
vt 0.0043123364 0.9726637
vt 0.30019435 0.99662495
vt 0.50026596 0.99656022
vt 0.50029659 0.62803906
vt 0.50029641 0.62751746
vt 0.50026041 0.54203904
vt 0.50029653 0.62784612
vt 0.50041926 0.99656022
vt 0.17280652 0.38033509
vt 0.11886206 0.44914055
vt 0.093706787 0.34797919
vt 0.63248968 0.94193715
vt 0.61156708 0.94064903
vt 0.62011439 0.92627484
vt 0.63822949 0.91346896
vt 0.61668932 0.95642966
vt 0.60062051 0.93806314
vt 0.65018326 0.92574143
vt 0.62156969 0.90710664
vt 0.63910997 0.9600507
vt 0.60813445 0.91849095
vt 0.65380418 0.91105431
vt 0.64913279 0.93913418
vt 0.63890404 0.90331912
vt 0.60821152 0.90750676
vt 0.60469562 0.95431018
vt 0.63179451 0.98133385
vt 0.60012996 0.93794322
vt 0.65842289 0.93205535
vt 0.62268776 0.89055336
vt 0.60044879 0.93982035
vt 0.60916203 0.98108011
vt 0.60555357 0.92115968
vt 0.65201032 0.89631945
vt 0.61270124 0.90501559
vt 0.60742748 0.9673726
vt 0.61369926 0.98763061
vt 0.60589296 0.91656047
vt 0.66303933 0.90419996
vt 0.60580254 0.89721274
vt 0.64583635 0.88143653
vt 0.62273461 0.99104077
vt 0.66172504 0.89397156
vt 0.60348916 0.87688047
vt 0.63296443 0.87346166
vt 0.61753392 0.99614918
vt 0.59688985 0.88913304
vt 0.62496644 0.87082839
vt 0.65713948 0.86855555
vt 0.59408951 0.87587863
vt 0.61208314 0.86058241
vt 0.672952 0.88459885
vt 0.59397942 0.85400802
vt 0.62432241 0.85417902
vt 0.64503944 0.85493106
vt 0.67454708 0.87668222
vt 0.5989843 0.84018224
vt 0.6725539 0.85993695
vt 0.58410656 0.84800768
vt 0.62387556 0.83458018
vt 0.63907772 0.83328152
vt 0.65207136 0.8359586
vt 0.57904941 0.82459581
vt 0.60578007 0.82955372
vt 0.57199061 0.83903956
vt 0.62222314 0.81679207
vt 0.63133532 0.81437719
vt 0.64822608 0.81604487
vt 0.57726228 0.84952855
vt 0.57122642 0.82942379
vt 0.5973959 0.82063669
vt 0.6078198 0.80165744
vt 0.56792104 0.82501125
vt 0.57936287 0.80092269
vt 0.62455463 0.79961348
vt 0.65467232 0.79980344
vt 0.63040119 0.79300976
vt 0.65364128 0.82020414
vt 0.56645423 0.81863564
vt 0.59570032 0.78613174
vt 0.56721151 0.80883181
vt 0.56785494 0.7906487
vt 0.57108927 0.78744686
vt 0.82043785 0.96173894
vt 0.83517694 0.95987988
vt 0.84684676 0.97240555
vt 0.83321059 0.97694176
vt 0.84335953 0.94426584
vt 0.82114589 0.98014039
vt 0.80701339 0.95847785
vt 0.82440996 0.99632126
vt 0.80109525 0.98275036
vt 0.79302651 0.96236813
vt 0.79554069 0.99304193
vt 0.78251171 0.97205913
vt 0.77939749 0.97740889
vt 0.77831823 0.96199673
vt 0.75868666 0.97667259
vt 0.78620887 0.94560969
vt 0.76165801 0.95384526
vt 0.7412374 0.97741443
vt 0.76794589 0.94468451
vt 0.72580802 0.96705502
vt 0.75034505 0.94666409
vt 0.78937811 0.920789
vt 0.76071942 0.92866915
vt 0.79419172 0.93842602
vt 0.72470152 0.93080038
vt 0.74665391 0.92376989
vt 0.79552287 0.95630223
vt 0.77794051 0.89918381
vt 0.70304525 0.95343196
vt 0.75920373 0.89724493
vt 0.80217755 0.9480148
vt 0.71502316 0.90522754
vt 0.73794407 0.90575761
vt 0.73974508 0.89281541
vt 0.69058526 0.90046489
vt 0.89189351 0.91143906
vt 0.89887315 0.89233869
vt 0.91904372 0.90802628
vt 0.91393608 0.93068868
vt 0.85857731 0.88615131
vt 0.95919389 0.89642704
vt 0.93476355 0.9259733
vt 0.85950798 0.93411887
vt 0.85497123 0.90320826
vt 0.88068348 0.91608769
vt 0.83743405 0.8936131
vt 0.81703848 0.88709784
vt 0.83356833 0.91520232
vt 0.51129836 0.89428532
vt 0.51942146 0.87880844
vt 0.52960157 0.88280261
vt 0.5305565 0.89803225
vt 0.52826315 0.86768174
vt 0.54264772 0.89567745
vt 0.52450687 0.90906596
vt 0.54433841 0.86844707
vt 0.51367444 0.87010193
vt 0.53897697 0.90772516
vt 0.51290017 0.91678965
vt 0.52349389 0.85061646
vt 0.55689591 0.90459555
vt 0.55352366 0.89500928
vt 0.52658272 0.92687786
vt 0.53895265 0.92291588
vt 0.54489177 0.84787238
vt 0.50449777 0.86139894
vt 0.55608875 0.9192608
vt 0.56124765 0.8745653
vt 0.5325678 0.83638805
vt 0.50576228 0.84380555
vt 0.57162708 0.90601945
vt 0.56463605 0.88750631
vt 0.53724545 0.93179959
vt 0.5098682 0.832573
vt 0.544743 0.82746387
vt 0.56533819 0.91423899
vt 0.5751332 0.90143085
vt 0.58052981 0.88803422
vt 0.53045666 0.93306857
vt 0.541318 0.92773187
vt 0.51773566 0.82208598
vt 0.55791414 0.83272046
vt 0.53609461 0.81592125
vt 0.5599823 0.92015719
vt 0.5796138 0.90036488
vt 0.56805927 0.81781518
vt 0.55529076 0.81327254
vt 0.52254134 0.80751061
vt 0.53070825 0.79781353
vt 0.71243536 0.78898764
vt 0.73259795 0.80139166
vt 0.72595084 0.81223428
vt 0.71409965 0.8150847
vt 0.73442852 0.78636974
vt 0.75430214 0.80549967
vt 0.69089127 0.80937499
vt 0.73213291 0.82646012
vt 0.71777374 0.77503866
vt 0.74040955 0.82467079
vt 0.69408405 0.7916894
vt 0.69570446 0.81445044
vt 0.73142081 0.77405757
vt 0.70713162 0.77483535
vt 0.75953335 0.77240455
vt 0.74518782 0.84455162
vt 0.71247238 0.75954026
vt 0.776187 0.79768366
vt 0.76133341 0.82350576
vt 0.72895008 0.75513852
vt 0.74073243 0.76333338
vt 0.7750333 0.81072664
vt 0.7572304 0.84682512
vt 0.73225462 0.73675984
vt 0.73892993 0.75258249
vt 0.78338647 0.82722676
vt 0.75074786 0.85569143
vt 0.73604268 0.74195808
vt 0.7903232 0.84390664
vt 0.76917338 0.87193501
vt 0.79094613 0.86775577
vt 0.79655522 0.85774142
vt 0.851794 0.85637605
vt 0.86403793 0.83629125
vt 0.88118935 0.86214304
vt 0.86954248 0.87167513
vt 0.84279478 0.81887001
vt 0.87854862 0.83551651
vt 0.86463964 0.80883133
vt 0.88145638 0.84630418
vt 0.87807518 0.82978922
vt 0.88447613 0.8589378
vt 0.88160855 0.8199439
vt 0.86095136 0.79448515
vt 0.88296294 0.8177191
vt 0.87988156 0.78702313
vt 0.88127768 0.79202867
vt 0.85033709 0.78413022
vt 0.88103378 0.78893328
vt 0.85074013 0.80469859
vt 0.87168747 0.77675414
vt 0.88061035 0.78702283
vt 0.83918953 0.79904854
vt 0.8586781 0.75637037
vt 0.87305999 0.74951959
vt 0.88054174 0.78616625
vt 0.82132292 0.77513784
vt 0.83713293 0.74941063
vt 0.8757208 0.75110781
vt 0.87017918 0.74367255
vt 0.8759433 0.74965936
vt 0.81609303 0.75906527
vt 0.58023381 0.73230159
vt 0.56395686 0.71991909
vt 0.60289711 0.70737731
vt 0.60881156 0.7150324
vt 0.55948716 0.74571776
vt 0.5731163 0.69905221
vt 0.62448257 0.71432567
vt 0.54627371 0.71733832
vt 0.54619527 0.68931699
vt 0.62088156 0.70686316
vt 0.54690969 0.70744634
vt 0.57963091 0.67013639
vt 0.62003005 0.70534933
vt 0.62473565 0.71393502
vt 0.53385234 0.70487458
vt 0.56728315 0.66157842
vt 0.58742577 0.67726445
vt 0.52310419 0.70263624
vt 0.55401117 0.65399915
vt 0.51378912 0.6817354
vt 0.51354831 0.64914465
vt 0.52691942 0.64069533
vt 0.50483686 0.63337898
vt 0.90304035 0.82854807
vt 0.88532376 0.8441627
vt 0.87842447 0.83041292
vt 0.89543897 0.8083365
vt 0.91015875 0.85037649
vt 0.91214186 0.80964863
vt 0.9398787 0.83945501
vt 0.89196742 0.85579681
vt 0.91023648 0.77504843
vt 0.9340359 0.86174518
vt 0.90613121 0.86662042
vt 0.9295727 0.77364373
vt 0.92150968 0.87105381
vt 0.95553225 0.84690487
vt 0.89334399 0.86781746
vt 0.96914929 0.82634628
vt 0.95190209 0.8590951
vt 0.97182792 0.80754459
vt 0.96965259 0.86388791
vt 0.94878596 0.77194333
vt 0.99460179 0.83116961
vt 0.98447388 0.86342406
vt 0.9873715 0.84273887
vt 0.72391921 0.72840273
vt 0.71298027 0.69643819
vt 0.74242049 0.72122025
vt 0.69221461 0.7159977
vt 0.73760635 0.68825024
vt 0.69854671 0.67013991
vt 0.69823003 0.73957533
vt 0.72917277 0.66948682
vt 0.6692456 0.70321238
vt 0.68341011 0.72713506
vt 0.65544772 0.71231318
vt 0.64475477 0.66105855
vt 0.7310127 0.65668112
vt 0.66808522 0.72516394
vt 0.64631552 0.68625796
vt 0.66753852 0.64876318
vt 0.69611168 0.65611827
vt 0.66463178 0.74532658
vt 0.65536761 0.72267795
vt 0.62951916 0.65006399
vt 0.63737446 0.64628619
vt 0.65370119 0.7436167
vt 0.80961657 0.68511051
vt 0.79345143 0.68197584
vt 0.80217344 0.66656744
vt 0.82399273 0.67916548
vt 0.79913878 0.71810007
vt 0.78113532 0.67435247
vt 0.82181466 0.70981944
vt 0.78464383 0.70564938
vt 0.80969822 0.72340143
vt 0.7784223 0.69108135
vt 0.83004856 0.70394242
vt 0.7779848 0.71449649
vt 0.80210143 0.74246901
vt 0.76968479 0.68316138
vt 0.83374673 0.71438551
vt 0.84127748 0.69757116
vt 0.78056335 0.73205078
vt 0.82429266 0.74684834
vt 0.82352191 0.729967
vt 0.84429902 0.6729269
vt 0.84694618 0.70683122
vt 0.75343102 0.70417511
vt 0.8431437 0.73609984
vt 0.86443186 0.69296706
vt 0.85966325 0.71519351
vt 0.85286391 0.72158861
vt 0.89621043 0.71726245
vt 0.89178908 0.73345566
vt 0.87895346 0.7224009
vt 0.88734812 0.702245
vt 0.91769719 0.70044756
vt 0.90425354 0.73299831
vt 0.88321662 0.67812073
vt 0.9201079 0.72822428
vt 0.89717764 0.74558604
vt 0.90001273 0.6691553
vt 0.94347769 0.72069895
vt 0.9128387 0.74158597
vt 0.94304693 0.6794914
vt 0.95690495 0.69736683
vt 0.92952418 0.74336851
vt 0.94718337 0.66515923
vt 0.97879577 0.66725945
vt 0.59304106 0.61317134
vt 0.55191588 0.58994693
vt 0.58349472 0.56348157
vt 0.57236511 0.61758888
vt 0.54696238 0.56243432
vt 0.55322367 0.60429788
vt 0.52434582 0.58272326
vt 0.56521356 0.55575943
vt 0.53597718 0.60637426
vt 0.5141837 0.56383765
vt 0.53592032 0.55583245
vt 0.5346415 0.62138617
vt 0.51838303 0.6149314
vt 0.50313389 0.55012071
vt 0.56598473 0.99362946
vt 0.53134584 0.99631757
vt 0.48110101 0.99411738
vt 0.65535992 0.99413276
vt 0.66116792 0.97094834
vt 0.67546916 0.99132788
vt 0.6394729 0.98972613
vt 0.68926245 0.99007767
vt 0.62923789 0.9838329
vt 0.70533806 0.99571621
vt 0.9466778 0.97245115
vt 0.93299133 0.92709494
vt 0.94231337 0.94427371
vt 0.9459033 0.95779032
vt 0.92672259 0.97652352
vt 0.93663937 0.92788273
vt 0.95160937 0.99463797
vt 0.91503471 0.95243275
vt 0.93603468 0.92643672
vt 0.95010972 0.99510157
vt 0.95269907 0.98094207
vt 0.90969634 0.94210804
vt 0.93588549 0.99501467
vt 0.95677596 0.99085826
vt 0.94506603 0.99594176
vt 0.93742758 0.99687541
vt 0.43310696 0.67423701
vt 0.41773263 0.68456805
vt 0.42537606 0.6662997
vt 0.43845654 0.6542964
vt 0.40408647 0.67525208
vt 0.41229734 0.65934551
vt 0.42759824 0.63737464
vt 0.39593902 0.65869141
vt 0.41622159 0.63490665
vt 0.43503883 0.63012171
vt 0.39457425 0.64321399
vt 0.38257727 0.66829371
vt 0.37837628 0.65057218
vt 0.38863561 0.67805439
vt 0.40750027 0.63162243
vt 0.42339614 0.62422657
vt 0.39524129 0.62368953
vt 0.44807804 0.62207109
vt 0.86596805 0.97664088
vt 0.86532718 0.99532747
vt 0.85917616 0.99552637
vt 0.85527408 0.97624683
vt 0.87631172 0.98829138
vt 0.84796327 0.96351135
vt 0.88684767 0.97464198
vt 0.86427611 0.95915431
vt 0.88706112 0.99053586
vt 0.88174587 0.95811903
vt 0.90178043 0.97400731
vt 0.90079713 0.96430218
vt 0.87374419 0.94582468
vt 0.8955785 0.94913983
vt 0.89005107 0.93290943
vt 0.68608755 0.957856
vt 0.68039411 0.96504039
vt 0.66739273 0.95708013
vt 0.66310608 0.94259435
vt 0.66272378 0.94410527
vt 0.68990761 0.94743931
vt 0.66143399 0.96564633
vt 0.66335434 0.94208187
vt 0.66173583 0.94982636
vt 0.66926676 0.93208778
vt 0.65982866 0.96274602
vt 0.66934717 0.93191963
vt 0.68306774 0.93559307
vt 0.6693095 0.93051296
vt 0.67172033 0.92352641
vt 0.66995895 0.91300756
vt 0.53131527 0.77675819
vt 0.50712436 0.77821159
vt 0.50537658 0.74999583
vt 0.52848852 0.75353312
vt 0.50417858 0.77501643
vt 0.55432534 0.76295638
vt 0.50430685 0.75002497
vt 0.50413793 0.77800989
vt 0.55665773 0.74611402
vt 0.53321171 0.96378297
vt 0.52807379 0.99069637
vt 0.51844841 0.9793337
vt 0.51810956 0.95475549
vt 0.54481852 0.9747541
vt 0.5247941 0.95277411
vt 0.50651324 0.97405118
vt 0.5415287 0.99548036
vt 0.50474733 0.9562782
vt 0.55188632 0.98379374
vt 0.59734923 0.77040112
vt 0.60131317 0.7435869
vt 0.62270999 0.75557756
vt 0.64204913 0.76160252
vt 0.6247828 0.72953653
vt 0.64589864 0.7522729
vt 0.62102973 0.77504349
vt 0.6467908 0.72853208
vt 0.64277047 0.74876767
vt 0.59914869 0.7714203
vt 0.63491279 0.77684927
vt 0.6340906 0.77695978
vt 0.6348114 0.77691025
vt 0.96232063 0.94615805
vt 0.97856236 0.94336492
vt 0.98862505 0.94789904
vt 0.97783637 0.95468354
vt 0.97620302 0.92686146
vt 0.97110432 0.9643507
vt 0.95182753 0.92709565
vt 0.9525587 0.95297539
vt 0.94095588 0.92767847
vt 0.79243422 0.89974064
vt 0.80369115 0.89584827
vt 0.80951804 0.91089618
vt 0.80760723 0.93361497
vt 0.82649577 0.9049679
vt 0.82191491 0.92145902
vt 0.78453147 0.91016328
vt 0.042971998 0.98454791
vt 0.033564061 0.99607074
vt 0.0037080157 0.98548621
vt 0.56658548 0.96411878
vt 0.57131189 0.98232979
vt 0.5547744 0.97761291
vt 0.55359936 0.96108162
vt 0.55038851 0.99627972
vt 0.065045968 0.98813719
vt 0.052315943 0.99652988
vt 0.034387112 0.9922756
vt 0.58372283 0.96708113
vt 0.58318102 0.99474561
vt 0.58189994 0.99425465
vt 0.58190453 0.96941555
vt 0.59322578 0.96996677
vt 0.58194047 0.99533558
vt 0.58187401 0.96665025
vt 0.72037965 0.98337853
vt 0.70760828 0.99624431
vt 0.70742917 0.98380762
vt 0.71009362 0.96974212
vt 0.72734773 0.97500539
vt 0.71469039 0.96927285
vt 0.72231692 0.97076803
vt 0.73870671 0.98526156
vt 0.72451597 0.99212182
vt 0.72825235 0.98551482
vt 0.74204594 0.99582779
vt 0.72298181 0.98658389
vt 0.74405146 0.98782974
vt 0.84587866 0.99080539
vt 0.84035629 0.99626559
vt 0.83194423 0.9833259
vt 0.85271573 0.99537408
vt 0.75605857 0.99687344
vt 0.77330709 0.98598039
vt 0.77307755 0.98650682
vt 0.75455284 0.99461746
vt 0.77350634 0.98604023
vt 0.75804442 0.98330551
vt 0.89453048 0.99515766
vt 0.90593964 0.98642826
vt 0.91016507 0.99048501
vt 0.90990454 0.99694699
vt 0.91033977 0.98391724
vt 0.91737026 0.98260844
vt 0.92707682 0.98174495
vt 0.91807628 0.9956392
vt 0.92119235 0.99462456
vt 0.0059837089 0.99516219
vt 0.0040606288 0.98849165
vt 0.0092513943 0.98985082
vt 0.010631281 0.98728186
vt 0.016686317 0.99653912
vt 0.010755274 0.98864484
vt 0.016635092 0.99024785
vt 0.50334322 0.98781097
vt 0.50955319 0.98746097
vt 0.50385642 0.99544454
usemtl Tile_+031_+023_L19_000011_0
f 104/213 127/214 62/215
f 124/217 104/213 114/221
f 114/333 104/334 122/335
f 109/347 111/348 384/357
f 52/349 119/340 53/344
f 128/228 109/243 388/238
f 118/346 126/356 112/345
f 124/217 128/228 389/233
f 107/406 106/407 120/408
f 72/216 105/219 104/213
f 125/218 124/217 386/227
f 122/335 104/334 123/337
f 113/338 116/342 115/336
f 117/725 120/726 393/727
f 112/345 126/356 395/361
f 53/344 121/350 71/354
f 108/339 109/347 128/343
f 122/335 115/336 114/333
f 115/336 122/335 113/338
f 104/213 62/215 72/216
f 72/216 62/215 61/220
f 64/241 68/248 75/245
f 125/218 127/214 124/217
f 66/222 125/218 392/229
f 125/218 66/222 62/215
f 127/214 104/213 124/217
f 53/344 119/340 123/337
f 123/337 119/340 122/335
f 105/219 121/230 103/224
f 53/344 123/337 103/341
f 103/341 121/350 53/344
f 121/230 105/219 71/223
f 105/219 72/216 71/223
f 127/214 125/218 62/215
f 52/410 56/412 106/407
f 91/436 96/437 40/438
f 65/620 61/621 63/622
f 106/407 56/412 398/414
f 119/340 52/349 107/352
f 55/687 56/688 82/689
f 119/340 118/346 113/338
f 120/408 117/409 107/406
f 107/352 117/362 126/356
f 126/356 117/362 394/369
f 126/356 118/346 107/352
f 108/339 115/336 116/342
f 112/345 110/351 116/342
f 111/348 108/339 116/342
f 128/228 124/217 114/221
f 114/333 115/336 108/339
f 114/333 108/339 128/343
f 116/342 113/338 112/345
f 118/346 112/345 113/338
f 110/351 112/345 396/355
f 109/347 108/339 111/348
f 405/709 110/710 407/711
f 110/351 111/348 116/342
f 32/275 79/264 408/274
f 45/272 46/265 79/264
f 34/273 45/272 32/275
f 92/256 94/259 87/250
f 60/231 75/245 88/249
f 76/702 67/703 410/704
f 105/219 103/224 104/213
f 33/455 29/456 30/444
f 40/438 93/439 91/436
f 97/442 40/438 412/445
f 416/1 38/2 417/3
f 1/51 28/34 102/33
f 94/440 96/437 91/436
f 37/268 33/278 48/277
f 101/120 10/130 17/129
f 2/107 3/113 15/121
f 418/42 28/34 419/52
f 16/168 12/152 10/130
f 27/22 102/33 28/34
f 28/34 1/51 100/59
f 47/269 37/268 48/277
f 42/446 30/444 96/437
f 41/441 40/438 96/437
f 55/417 83/421 80/419
f 399/416 55/417 424/418
f 424/418 80/419 425/420
f 48/453 33/455 30/444
f 88/249 74/255 92/256
f 83/421 57/423 54/426
f 95/262 47/269 43/263
f 92/256 95/262 43/263
f 67/251 75/245 68/248
f 87/250 94/259 85/257
f 84/253 87/250 85/257
f 70/244 86/242 87/250
f 85/430 91/431 83/421
f 60/231 88/249 89/246
f 50/359 54/371 57/370
f 90/428 98/427 93/433
f 428/719 97/720 429/721
f 90/722 93/724 97/720
f 97/442 93/439 40/438
f 95/262 44/261 37/268
f 43/443 96/437 94/440
f 92/256 43/263 94/259
f 43/443 42/446 96/437
f 32/275 29/281 34/273
f 74/255 88/249 77/252
f 44/261 95/262 74/255
f 73/258 46/265 44/261
f 59/235 86/242 70/244
f 414/266 78/260 430/270
f 79/264 73/258 78/260
f 77/252 76/254 73/258
f 78/706 76/702 411/705
f 76/254 77/252 75/245
f 73/258 76/254 78/260
f 75/245 67/251 76/254
f 73/258 44/261 74/255
f 74/255 77/252 73/258
f 87/250 86/242 89/246
f 75/245 60/231 64/241
f 86/242 60/231 89/246
f 87/250 89/246 88/249
f 92/256 87/250 88/249
f 84/253 70/244 87/250
f 84/372 85/373 54/371
f 57/370 82/366 50/359
f 84/372 51/367 70/365
f 55/687 82/689 57/690
f 81/424 80/419 83/421
f 75/245 77/252 88/249
f 432/633 68/632 433/631
f 434/623 63/622 435/624
f 433/631 64/625 436/629
f 64/625 65/620 434/623
f 66/222 63/226 62/215
f 435/624 66/626 438/628
f 58/358 53/344 71/354
f 56/688 52/691 82/689
f 54/371 50/359 51/367
f 54/371 51/367 84/372
f 49/353 52/349 53/344
f 82/366 52/349 50/359
f 49/353 70/365 51/367
f 50/359 49/353 51/367
f 52/349 49/353 50/359
f 53/344 58/358 49/353
f 71/223 59/235 58/240
f 59/235 71/223 69/225
f 58/240 59/235 70/244
f 70/365 49/353 58/358
f 69/225 72/216 61/220
f 64/241 60/231 65/236
f 60/231 61/220 65/236
f 61/220 62/215 63/226
f 61/220 60/231 69/225
f 441/447 30/444 442/451
f 48/453 30/444 42/446
f 41/441 96/437 30/444
f 45/272 34/273 46/265
f 36/267 46/265 34/273
f 44/261 46/265 36/267
f 29/281 32/275 443/283
f 18/571 9/572 500/573
f 412/445 41/441 420/448
f 36/267 37/268 44/261
f 37/268 36/267 35/276
f 42/446 43/443 47/450
f 42/279 47/269 48/277
f 32/275 45/272 79/264
f 35/276 33/278 37/268
f 34/273 35/276 36/267
f 33/278 35/276 34/273
f 29/281 33/278 34/273
f 38/2 23/9 446/7
f 24/6 23/9 38/2
f 39/4 24/6 38/2
f 25/11 27/22 22/16
f 19/636 20/637 11/638
f 450/454 29/456 451/457
f 28/34 26/28 27/22
f 6/70 31/58 99/80
f 17/129 10/130 12/152
f 19/575 18/571 454/577
f 20/583 19/575 455/580
f 1/51 31/58 6/70
f 453/71 1/51 458/82
f 22/16 26/28 459/35
f 22/16 23/9 25/11
f 449/17 22/16 460/29
f 26/28 22/16 27/22
f 15/121 17/129 461/155
f 14/112 101/120 17/129
f 3/113 14/112 13/131
f 12/152 11/184 464/191
f 9/572 8/578 10/582
f 466/132 15/121 467/139
f 15/121 13/131 17/129
f 8/641 19/636 16/639
f 19/575 9/572 18/571
f 11/638 16/639 19/636
f 3/113 13/131 15/121
f 19/575 8/578 9/572
f 99/80 7/89 6/70
f 1/51 6/70 5/81
f 5/81 6/70 7/89
f 4/98 2/107 5/81
f 3/113 2/107 4/98
f 4/98 14/112 3/113
f 4/98 5/81 7/89
f 458/82 5/81 470/97
f 107/406 52/410 106/407
f 104/334 103/341 123/337
f 120/408 106/407 400/411
f 122/335 119/340 113/338
f 107/352 118/346 119/340
f 98/427 90/428 81/424
f 91/431 85/430 94/435
f 73/258 79/264 46/265
f 21/106 10/130 101/120
f 17/129 13/131 14/112
f 461/155 12/152 465/183
f 57/423 83/421 55/417
f 98/427 83/421 91/431
f 80/419 81/424 90/428
f 80/419 90/428 471/432
f 98/427 91/431 93/433
f 37/268 47/269 95/262
f 92/256 74/255 95/262
f 83/421 54/426 85/430
f 98/427 81/424 83/421
f 72/216 69/225 71/223
f 86/242 59/235 60/231
f 59/235 69/225 60/231
f 5/81 2/107 469/105
f 11/638 20/637 463/640
f 419/52 100/59 452/72
f 24/6 25/11 23/9
f 12/152 16/168 11/184
f 10/644 8/641 16/639
f 234/677 173/678 166/679
f 195/504 238/505 177/506
f 156/682 155/680 166/679
f 224/587 191/588 225/589
f 222/564 304/565 223/566
f 190/285 221/286 236/287
f 172/300 199/303 155/306
f 217/519 216/524 215/514
f 213/64 184/43 131/47
f 210/645 190/646 207/647
f 168/65 131/47 129/53
f 207/647 206/651 164/648
f 184/43 139/60 187/44
f 182/38 131/47 184/43
f 189/374 204/375 203/376
f 198/304 197/305 200/301
f 199/303 172/300 200/301
f 195/504 146/507 194/510
f 196/390 193/393 192/386
f 102/33 187/44 31/58
f 185/314 186/317 145/318
f 214/302 198/304 200/301
f 191/649 221/652 190/646
f 157/39 153/48 165/49
f 240/309 197/305 198/304
f 311/590 159/593 158/596
f 327/24 154/41 153/48
f 147/547 151/548 150/549
f 307/553 149/555 148/559
f 140/141 308/122 141/133
f 133/159 132/157 508/187
f 99/80 139/60 138/83
f 135/8 137/14 136/10
f 129/53 131/47 130/31
f 248/482 302/483 148/484
f 352/518 194/510 215/514
f 354/529 352/518 216/524
f 338/308 163/315 164/311
f 354/385 214/380 188/377
f 189/374 188/377 214/380
f 190/285 237/288 218/290
f 206/651 172/653 164/648
f 155/599 160/594 338/598
f 205/298 208/299 200/301
f 163/600 338/598 210/591
f 146/507 217/519 215/514
f 208/299 205/298 357/296
f 357/296 201/297 208/299
f 214/302 200/301 208/299
f 146/507 215/514 194/510
f 203/376 204/375 358/379
f 207/291 212/293 206/294
f 351/522 188/526 220/521
f 290/605 356/606 355/607
f 355/397 356/401 193/393
f 355/607 237/608 290/605
f 355/397 193/393 196/390
f 220/381 188/377 203/376
f 289/398 360/394 192/386
f 192/386 193/393 289/398
f 196/295 212/293 355/292
f 196/390 202/382 201/387
f 196/390 192/386 202/382
f 359/378 204/375 189/374
f 189/374 203/376 188/377
f 201/387 202/382 189/374
f 359/378 189/374 202/382
f 355/292 218/290 237/288
f 207/291 190/285 218/290
f 202/382 192/386 359/378
f 201/297 357/296 212/293
f 212/293 207/291 218/290
f 214/380 208/384 189/374
f 208/384 201/387 189/374
f 212/293 196/295 201/297
f 193/393 356/401 289/398
f 215/514 216/524 352/518
f 219/512 194/510 352/518
f 148/517 341/513 176/515
f 239/511 238/505 348/508
f 352/518 351/522 219/512
f 217/519 147/523 198/527
f 217/519 214/528 216/524
f 214/528 354/529 216/524
f 352/518 354/529 188/526
f 358/379 353/383 203/376
f 248/525 176/515 349/520
f 195/504 194/510 219/512
f 351/522 352/518 188/526
f 219/512 351/522 220/521
f 353/383 220/381 203/376
f 348/508 349/520 176/515
f 348/508 219/512 350/516
f 350/516 219/512 220/521
f 139/60 213/64 138/83
f 148/517 176/515 248/525
f 341/513 238/505 239/511
f 176/515 239/511 348/508
f 238/505 195/504 348/508
f 219/512 348/508 195/504
f 198/527 214/528 217/519
f 146/507 147/523 217/519
f 177/552 151/548 146/550
f 341/513 342/509 238/505
f 181/320 314/321 180/322
f 138/83 175/76 315/94
f 345/21 102/33 27/22
f 178/30 179/36 187/44
f 187/44 139/60 31/58
f 7/89 99/80 241/96
f 139/60 99/80 31/58
f 31/58 1/51 102/33
f 25/11 24/6 343/15
f 345/21 343/15 344/27
f 25/11 343/15 345/21
f 345/21 27/22 25/11
f 24/6 136/10 144/13
f 24/6 135/8 136/10
f 182/38 184/43 183/23
f 179/36 178/30 183/23
f 130/31 182/38 183/23
f 130/31 183/23 144/13
f 167/323 168/327 181/320
f 143/62 129/53 142/46
f 182/38 130/31 131/47
f 174/326 167/323 180/322
f 131/47 168/65 167/77
f 131/47 175/76 213/64
f 213/64 139/60 184/43
f 175/76 138/83 213/64
f 184/43 179/36 183/23
f 211/692 344/693 343/694
f 343/15 24/6 211/18
f 144/13 211/18 24/6
f 211/18 144/13 183/23
f 211/18 183/23 178/30
f 175/76 131/47 167/77
f 167/77 174/93 175/76
f 146/507 195/504 177/506
f 147/547 146/550 151/548
f 342/558 149/555 177/552
f 151/548 177/552 149/555
f 238/505 342/509 177/506
f 342/509 341/513 148/517
f 149/555 342/558 148/559
f 168/327 336/329 181/320
f 143/62 335/75 324/84
f 232/55 165/49 321/66
f 142/46 129/53 130/31
f 144/13 209/37 130/31
f 307/553 320/551 151/548
f 151/548 320/551 150/549
f 321/66 230/78 329/87
f 233/40 173/56 152/50
f 197/305 310/310 162/307
f 156/682 166/679 233/681
f 155/306 162/307 235/312
f 136/10 137/14 325/19
f 161/592 156/597 312/595
f 331/67 232/55 330/79
f 210/591 161/592 225/589
f 165/49 153/48 328/57
f 228/88 230/78 340/69
f 229/95 230/78 228/88
f 165/49 328/57 230/78
f 312/595 159/593 161/592
f 191/588 210/591 225/589
f 155/306 338/308 172/300
f 162/307 310/310 185/314
f 210/591 338/598 160/594
f 161/592 210/591 160/594
f 147/313 240/309 198/304
f 155/599 156/597 160/594
f 311/590 225/589 161/592
f 172/300 206/294 205/298
f 205/298 200/301 172/300
f 162/307 155/306 199/303
f 164/648 163/650 210/645
f 210/645 191/649 190/646
f 200/301 197/305 199/303
f 197/305 240/309 310/310
f 197/305 162/307 199/303
f 225/589 311/590 224/587
f 221/652 191/649 224/654
f 291/530 221/531 224/532
f 311/533 291/530 224/532
f 7/561 241/562 315/563
f 335/75 142/46 337/63
f 322/331 323/330 334/332
f 337/63 339/86 335/75
f 324/84 335/75 223/90
f 157/39 332/32 327/24
f 209/37 319/54 142/46
f 306/489 313/487 337/494
f 319/54 337/63 142/46
f 233/603 331/601 156/597
f 152/50 231/61 145/45
f 332/32 233/40 144/13
f 321/66 329/87 330/79
f 234/68 235/73 152/50
f 321/66 165/49 230/78
f 209/554 150/549 320/551
f 332/32 144/13 327/24
f 152/50 144/13 233/40
f 233/40 332/32 165/49
f 157/39 165/49 332/32
f 328/57 153/48 154/41
f 234/677 155/680 235/683
f 157/39 327/24 153/48
f 165/49 232/55 233/40
f 331/67 233/40 232/55
f 312/595 331/601 330/602
f 312/595 330/602 158/596
f 158/596 330/602 329/604
f 230/78 229/95 329/87
f 329/87 226/117 158/127
f 154/41 340/69 328/57
f 328/57 340/69 230/78
f 144/13 325/19 327/24
f 327/24 325/19 326/26
f 325/19 137/14 326/26
f 130/31 209/37 142/46
f 168/65 129/53 143/62
f 334/332 169/328 168/327
f 143/62 334/85 168/65
f 181/320 336/329 169/328
f 168/327 169/328 336/329
f 334/85 324/84 322/99
f 142/46 335/75 143/62
f 223/566 333/568 324/570
f 170/324 314/321 181/320
f 170/324 169/328 323/330
f 143/62 324/84 334/85
f 334/332 323/330 169/328
f 324/570 333/568 304/565
f 335/75 339/86 222/92
f 304/565 333/568 223/566
f 322/99 324/84 304/108
f 181/320 169/328 170/324
f 323/330 322/331 170/324
f 309/114 322/99 304/108
f 145/45 144/13 152/50
f 330/79 232/55 321/66
f 152/50 173/56 234/68
f 320/551 319/557 209/554
f 185/74 145/45 231/61
f 307/553 306/556 320/551
f 319/557 320/551 306/556
f 185/74 231/61 235/73
f 306/556 337/560 319/557
f 308/122 309/114 304/108
f 171/142 140/141 303/156
f 171/142 132/157 134/134
f 171/142 134/134 308/122
f 308/122 134/134 309/114
f 308/684 140/685 171/686
f 132/157 171/142 510/172
f 309/114 134/134 170/123
f 170/123 316/158 314/174
f 132/157 133/159 134/134
f 317/173 318/143 512/188
f 318/143 316/158 170/123
f 134/134 133/159 318/143
f 318/143 133/159 509/175
f 515/170 317/173 516/193
f 10/130 21/106 9/138
f 318/143 317/173 316/158
f 317/173 21/106 316/158
f 9/138 21/106 517/153
f 14/112 21/106 101/120
f 315/94 241/96 138/83
f 138/83 241/96 99/80
f 316/158 315/94 314/174
f 175/76 174/93 315/94
f 7/89 21/106 4/98
f 14/112 4/98 21/106
f 145/318 186/317 150/316
f 186/317 240/309 150/316
f 173/678 233/681 166/679
f 212/293 357/296 206/294
f 357/296 205/298 206/294
f 306/489 307/486 302/483
f 307/553 151/548 149/555
f 158/596 159/593 312/595
f 155/680 234/677 166/679
f 240/309 147/313 150/316
f 240/309 186/317 310/310
f 136/10 325/19 144/13
f 172/300 338/308 164/311
f 209/37 144/13 145/45
f 102/33 345/21 178/30
f 210/645 207/647 164/648
f 212/293 218/290 355/292
f 302/483 307/486 148/484
f 176/515 341/513 239/511
f 187/44 102/33 178/30
f 179/36 184/43 187/44
f 344/27 178/30 345/21
f 180/322 167/323 181/320
f 178/30 344/27 211/18
f 156/597 331/601 312/595
f 161/592 160/594 156/597
f 159/593 311/590 161/592
f 235/73 231/61 152/50
f 335/75 222/92 223/90
f 209/319 145/318 150/316
f 185/314 235/312 162/307
f 170/123 322/99 309/114
f 304/565 222/564 305/567
f 315/94 316/158 21/106
f 170/123 134/134 318/143
f 174/326 180/322 315/325
f 315/325 180/322 314/321
f 315/210 21/211 7/212
f 185/314 310/310 186/317
f 297/459 366/460 368/461
f 300/668 377/669 301/670
f 263/116 261/135 278/115
f 267/695 279/696 475/697
f 268/166 295/150 277/126
f 268/166 262/144 264/176
f 381/541 288/537 287/544
f 279/655 273/656 284/657
f 279/696 267/695 273/699
f 479/661 252/665 480/666
f 243/492 280/490 282/485
f 286/542 271/543 281/534
f 243/492 242/496 280/490
f 279/655 283/658 479/661
f 284/657 273/656 269/659
f 283/658 284/657 294/660
f 262/144 263/116 265/160
f 268/166 277/126 269/151
f 270/128 276/167 269/151
f 266/178 268/166 485/199
f 269/151 273/182 268/166
f 264/467 272/464 271/462
f 269/151 277/126 270/128
f 487/201 267/190 488/207
f 264/176 295/150 268/166
f 489/161 266/178 490/189
f 273/182 267/190 268/166
f 268/166 266/178 262/144
f 265/160 264/176 262/144
f 263/116 262/144 261/135
f 263/116 255/177 265/160
f 257/125 259/124 258/148
f 494/147 259/124 495/136
f 522/204 496/200 523/209
f 260/181 254/149 483/180
f 254/149 141/133 257/125
f 484/164 257/125 498/179
f 495/136 278/115 499/146
f 261/135 262/144 489/161
f 278/115 261/135 492/145
f 260/181 253/165 254/149
f 300/668 248/673 349/675
f 236/287 237/288 190/285
f 358/379 251/388 250/391
f 248/673 300/668 249/671
f 243/492 244/495 245/500
f 373/404 363/403 379/396
f 363/491 373/499 244/495
f 374/402 373/404 379/396
f 158/127 226/117 285/137
f 284/657 283/658 279/655
f 371/100 298/109 304/108
f 244/495 243/492 282/485
f 381/612 290/605 236/610
f 236/538 292/535 381/541
f 297/459 296/463 366/460
f 369/465 296/463 297/459
f 247/472 246/468 369/465
f 366/618 365/616 383/614
f 290/605 237/608 236/610
f 251/615 380/611 365/616
f 296/463 246/468 250/471
f 245/500 244/495 373/499
f 289/609 380/611 360/613
f 364/469 296/463 250/471
f 380/611 383/614 365/616
f 380/611 381/612 383/614
f 287/617 383/614 381/612
f 380/611 289/609 290/605
f 251/388 358/379 359/378
f 251/473 364/469 250/471
f 359/378 192/386 251/388
f 380/611 251/615 360/613
f 382/392 376/399 379/396
f 358/379 204/375 359/378
f 192/386 360/394 251/388
f 379/396 350/389 382/392
f 290/605 381/612 380/611
f 382/392 358/379 246/395
f 358/379 250/391 246/395
f 374/402 375/405 373/404
f 370/474 247/472 369/465
f 362/674 300/668 350/676
f 382/392 246/395 376/399
f 349/675 350/676 300/668
f 382/392 350/389 358/379
f 350/389 353/383 358/379
f 220/381 353/383 350/389
f 350/389 379/396 362/400
f 350/516 349/520 348/508
f 373/499 375/503 245/500
f 301/670 249/671 300/668
f 282/485 248/482 301/488
f 363/491 282/485 301/488
f 248/673 249/671 301/670
f 376/475 246/468 247/472
f 301/670 377/669 363/672
f 379/396 376/399 374/402
f 363/491 244/495 282/485
f 245/481 375/480 370/474
f 374/477 247/472 370/474
f 374/477 376/475 247/472
f 375/480 374/477 370/474
f 363/672 377/669 300/668
f 305/567 371/569 304/565
f 243/479 245/481 370/474
f 242/476 370/474 265/470
f 293/111 372/103 229/95
f 291/530 292/535 236/538
f 264/546 286/542 295/545
f 158/536 285/539 281/534
f 291/530 311/533 281/534
f 276/662 378/663 284/657
f 221/286 291/289 236/287
f 294/660 284/657 378/663
f 294/660 378/663 276/662
f 368/619 366/618 287/617
f 288/537 292/535 281/534
f 297/459 272/464 369/465
f 297/459 271/462 272/464
f 287/544 288/537 368/540
f 288/537 381/541 292/535
f 305/102 222/92 339/86
f 274/101 299/91 337/63
f 275/497 256/493 263/502
f 329/87 372/103 293/111
f 285/539 286/542 281/534
f 372/103 329/87 229/95
f 274/498 313/487 275/497
f 226/117 293/111 277/126
f 285/137 226/117 277/126
f 295/545 286/542 285/539
f 226/117 329/87 293/111
f 295/150 285/137 277/126
f 265/470 272/464 264/467
f 293/111 270/128 277/126
f 259/124 298/109 278/115
f 299/91 278/115 298/109
f 299/91 298/109 371/100
f 371/100 305/102 339/86
f 299/91 274/101 275/110
f 339/86 299/91 371/100
f 298/109 257/125 304/108
f 257/125 141/133 304/108
f 254/149 253/165 141/133
f 510/172 260/181 519/195
f 303/156 141/133 367/171
f 253/165 367/171 141/133
f 303/156 367/171 260/181
f 304/108 141/133 308/122
f 171/142 303/156 260/181
f 280/490 242/496 256/493
f 242/476 243/479 370/474
f 302/483 248/482 282/485
f 271/543 368/540 281/534
f 269/659 276/662 284/657
f 369/465 272/464 265/470
f 257/125 258/148 497/163
f 256/493 255/501 263/502
f 265/470 370/474 369/465
f 368/461 271/462 297/459
f 290/605 289/609 356/606
f 280/490 313/487 282/485
f 296/463 369/465 246/468
f 368/540 288/537 281/534
f 366/460 296/463 365/466
f 366/618 383/614 287/617
f 296/463 364/469 365/466
f 364/469 251/473 365/466
f 363/403 362/400 379/396
f 300/668 362/674 363/672
f 313/487 302/483 282/485
f 311/533 158/536 281/534
f 292/535 291/530 281/534
f 255/501 256/493 242/496
f 271/543 286/542 264/546
f 275/497 313/487 256/493
f 270/128 293/111 361/118
f 278/115 299/91 263/116
f 275/110 263/116 299/91
f 339/86 337/63 299/91
f 313/487 274/498 337/494
f 298/109 259/124 257/125
f 260/181 367/171 253/165
f 140/141 141/133 303/156
f 265/470 255/478 242/476
f 313/487 306/489 302/483
f 280/490 256/493 313/487
f 227/104 229/95 228/88
f 39/4 135/8 24/6
f 135/8 347/20 137/14
f 137/14 347/20 346/25
f 326/26 137/14 346/25
f 154/41 327/24 326/26
f 227/104 293/111 229/95
f 361/118 293/111 227/104
f 384/357 111/348 406/364
f 385/363 109/347 384/357
f 386/730 124/731 387/732
f 387/732 124/731 390/733
f 388/238 109/243 385/247
f 389/233 128/228 388/238
f 390/237 124/217 389/233
f 391/232 125/218 386/227
f 392/229 125/218 391/232
f 393/727 120/726 402/729
f 394/728 117/725 393/727
f 395/361 126/356 394/369
f 396/355 112/345 395/361
f 397/234 66/222 392/229
f 398/414 56/412 399/416
f 399/416 56/412 55/417
f 400/411 106/407 398/414
f 401/413 120/408 400/411
f 402/415 120/408 401/413
f 403/360 110/351 396/355
f 404/368 110/351 403/360
f 405/709 111/712 110/710
f 406/714 111/712 405/709
f 407/711 110/710 404/713
f 408/274 79/264 415/271
f 409/280 32/275 408/274
f 410/635 67/634 432/633
f 411/705 76/702 410/704
f 412/445 40/438 41/441
f 413/449 97/442 412/445
f 414/266 79/264 78/260
f 415/271 79/264 414/266
f 416/1 39/4 38/2
f 417/3 38/2 447/5
f 418/42 26/28 28/34
f 419/52 28/34 100/59
f 420/448 41/441 421/452
f 421/452 41/441 441/447
f 422/140 2/107 466/132
f 423/738 2/739 422/740
f 424/418 55/417 80/419
f 425/420 80/419 440/422
f 426/707 78/706 411/705
f 427/708 78/706 426/707
f 428/719 90/722 97/720
f 429/721 97/720 413/723
f 430/734 78/735 431/736
f 431/736 78/735 427/737
f 432/633 67/634 68/632
f 433/631 68/632 64/625
f 434/623 65/620 63/622
f 435/624 63/622 66/626
f 436/629 64/625 439/627
f 437/239 66/222 397/234
f 438/628 66/626 437/630
f 439/627 64/625 434/623
f 440/422 80/419 473/425
f 441/447 41/441 30/444
f 442/451 30/444 450/454
f 443/283 32/275 445/282
f 444/284 29/281 443/283
f 445/282 32/275 409/280
f 446/7 23/9 448/12
f 447/5 38/2 446/7
f 448/12 23/9 449/17
f 449/17 23/9 22/16
f 450/454 30/444 29/456
f 451/457 29/456 444/458
f 452/72 100/59 453/71
f 453/71 100/59 1/51
f 454/577 18/571 520/581
f 455/580 19/575 454/577
f 456/585 20/583 455/580
f 457/586 20/583 456/585
f 458/82 1/51 5/81
f 459/35 26/28 418/42
f 460/29 22/16 459/35
f 461/155 17/129 12/152
f 462/154 15/121 461/155
f 463/640 20/637 457/643
f 464/191 11/184 474/202
f 465/183 12/152 464/191
f 466/132 2/107 15/121
f 467/139 15/121 462/154
f 468/741 2/742 423/743
f 469/105 2/107 468/119
f 470/97 5/81 469/105
f 471/432 90/428 428/434
f 472/429 80/419 471/432
f 473/425 80/419 472/429
f 474/642 11/638 463/640
f 475/697 279/696 481/700
f 476/698 267/695 475/697
f 477/205 266/178 491/208
f 478/198 266/178 477/205
f 479/661 283/658 252/665
f 480/666 252/665 482/667
f 481/664 279/655 479/661
f 483/180 254/149 484/164
f 484/164 254/149 257/125
f 485/199 268/166 487/201
f 486/206 266/178 485/199
f 487/201 268/166 267/190
f 488/701 267/695 476/698
f 489/161 262/144 266/178
f 490/189 266/178 478/198
f 491/208 266/178 486/206
f 492/145 261/135 493/162
f 493/162 261/135 489/161
f 494/147 258/148 259/124
f 495/136 259/124 278/115
f 496/200 260/181 483/180
f 497/163 258/148 494/147
f 498/179 257/125 497/163
f 499/146 278/115 492/145
f 500/573 9/572 502/576
f 501/574 18/571 500/573
f 502/576 9/572 503/579
f 503/192 9/138 504/185
f 504/185 9/138 518/169
f 505/715 18/716 501/717
f 506/203 132/157 514/194
f 507/196 132/157 506/203
f 508/187 132/157 507/196
f 509/175 133/159 508/187
f 510/172 171/142 260/181
f 511/186 132/157 510/172
f 512/188 318/143 509/175
f 513/197 317/173 512/188
f 514/194 132/157 511/186
f 515/170 21/106 317/173
f 516/193 317/173 513/197
f 517/153 21/106 515/170
f 518/169 9/138 517/153
f 519/195 260/181 522/204
f 520/718 18/716 505/715
f 521/584 454/577 520/581
f 522/204 260/181 496/200
usemtl Tile_+031_+023_L19_000011_untextured
