mtllib Tile_+031_+023_L19_000130.mtl
v 6.19592304e+03 5.58511577e+03 1.11779679e+01
v 6.19555040e+03 5.58505886e+03 1.15600941e+01
v 6.19486392e+03 5.56265715e+03 2.59718167e+01
v 6.20083833e+03 5.56904793e+03 2.52507524e+01
v 6.20052114e+03 5.57062744e+03 2.39748700e+01
v 6.20591479e+03 5.57374419e+03 2.09874886e+01
v 6.20967366e+03 5.57603558e+03 2.32320304e+01
v 6.20167123e+03 5.57423236e+03 2.13381582e+01
v 6.20096384e+03 5.57517059e+03 2.24774927e+01
v 6.20047158e+03 5.57553699e+03 2.11225922e+01
v 6.20347639e+03 5.57190665e+03 2.43819625e+01
v 6.20823504e+03 5.57365900e+03 2.43014495e+01
v 6.20241395e+03 5.57273461e+03 2.37951661e+01
v 6.20174034e+03 5.57316526e+03 2.25473526e+01
v 6.20309832e+03 5.57246768e+03 2.36579228e+01
v 6.20298988e+03 5.57239098e+03 2.21028274e+01
v 6.20080528e+03 5.57501505e+03 1.98794403e+01
v 6.20099272e+03 5.57685888e+03 1.57342496e+01
v 6.20025798e+03 5.57667982e+03 1.78326290e+01
v 6.19964365e+03 5.57717947e+03 1.60189147e+01
v 6.19918598e+03 5.57902478e+03 1.70376546e+01
v 6.20350391e+03 5.57740952e+03 1.87380963e+01
v 6.20200979e+03 5.57742061e+03 1.85672474e+01
v 6.19921567e+03 5.57884859e+03 2.01545767e+01
v 6.19933664e+03 5.57814130e+03 1.93940548e+01
v 6.20848122e+03 5.58130660e+03 1.86178691e+01
v 6.20762147e+03 5.58031087e+03 1.86438771e+01
v 6.20610624e+03 5.58563406e+03 2.31490113e+01
v 6.20622856e+03 5.58582698e+03 2.10912830e+01
v 6.20014321e+03 5.57671858e+03 1.44183832e+01
v 6.19959102e+03 5.57731553e+03 1.16068426e+01
v 6.19812843e+03 5.57993332e+03 1.60963345e+01
v 6.19830653e+03 5.58013008e+03 1.89157038e+01
v 6.20384817e+03 5.58167169e+03 1.54034107e+01
v 6.20442914e+03 5.58166838e+03 1.80999025e+01
v 6.20327415e+03 5.58146801e+03 1.86347177e+01
v 6.20591971e+03 5.58132849e+03 1.36366685e+01
v 6.20160037e+03 5.57745355e+03 1.52813725e+01
v 6.20242949e+03 5.59321719e+03 1.90379616e+01
v 6.20325815e+03 5.59139321e+03 1.72592920e+01
v 6.20727643e+03 5.58449764e+03 2.07329463e+01
v 6.20782407e+03 5.58282163e+03 2.12260061e+01
v 6.20487248e+03 5.57357791e+03 2.33300368e+01
v 6.20979883e+03 5.57524541e+03 2.41886366e+01
v 6.20791116e+03 5.58832319e+03 2.69219562e+01
v 6.20770404e+03 5.59175630e+03 2.90405835e+01
v 6.19800850e+03 5.58008687e+03 2.06354809e+01
v 6.19896697e+03 5.57934580e+03 2.20344311e+01
v 6.20935197e+03 5.57963229e+03 2.13722378e+01
v 6.21006050e+03 5.57870594e+03 2.09689640e+01
v 6.20547811e+03 5.58721573e+03 1.92993633e+01
v 6.20572646e+03 5.58756745e+03 2.07891081e+01
v 6.21076166e+03 5.57651035e+03 2.03116827e+01
v 6.20948180e+03 5.57912606e+03 1.95317258e+01
v 6.20785403e+03 5.57890772e+03 1.88240754e+01
v 6.20644689e+03 5.58017481e+03 1.85166356e+01
v 6.20753838e+03 5.58520011e+03 2.57297124e+01
v 6.20788206e+03 5.58443143e+03 2.68183758e+01
v 6.20418351e+03 5.59186960e+03 2.47398297e+01
v 6.20208475e+03 5.59359142e+03 2.31666087e+01
v 6.20635905e+03 5.58546740e+03 1.77849563e+01
v 6.20256838e+03 5.57298150e+03 2.52300612e+01
v 6.20251634e+03 5.57312074e+03 2.16775049e+01
v 6.20180412e+03 5.57922929e+03 1.64013567e+01
v 6.20165411e+03 5.56791651e+03 2.65489978e+01
v 6.20170292e+03 5.57962140e+03 1.85650850e+01
v 6.20431949e+03 5.57921621e+03 1.91236164e+01
v 6.20160126e+03 5.57780914e+03 1.75381450e+01
v 6.20411110e+03 5.59031219e+03 1.51233514e+01
v 6.20290854e+03 5.59222705e+03 1.41452770e+01
v 6.21094109e+03 5.57698117e+03 2.10526466e+01
v 6.20354060e+03 5.59102726e+03 1.98040000e+01
v 6.20317221e+03 5.59179325e+03 2.17378972e+01
v 6.20680538e+03 5.58446496e+03 1.97454669e+01
v 6.20370333e+03 5.56313658e+03 3.11779990e+01
v 6.20315717e+03 5.56336065e+03 3.14292179e+01
v 6.20042735e+03 5.57032790e+03 2.65368849e+01
v 6.19974034e+03 5.57019006e+03 2.73727395e+01
v 6.20435073e+03 5.59257264e+03 2.52482677e+01
v 6.20225960e+03 5.56706911e+03 2.65232627e+01
v 6.20156647e+03 5.56573443e+03 2.71330303e+01
v 6.20244057e+03 5.57283520e+03 2.01976613e+01
v 6.19653621e+03 5.58365017e+03 1.38780056e+01
v 6.19797274e+03 5.58078659e+03 1.42722203e+01
v 6.20270662e+03 5.59346090e+03 1.56782538e+01
v 6.20273762e+03 5.59343277e+03 1.72659729e+01
v 6.19927728e+03 5.56595444e+03 2.80961984e+01
v 6.20009487e+03 5.57698232e+03 2.22497647e+01
v 6.20750365e+03 5.58535978e+03 2.49086461e+01
v 6.20826503e+03 5.58148820e+03 2.32813914e+01
v 6.20483169e+03 5.58865936e+03 2.08093063e+01
v 6.20785271e+03 5.59200600e+03 2.99535812e+01
v 6.20869945e+03 5.59219796e+03 3.00897053e+01
v 6.20891898e+03 5.57539719e+03 2.03056379e+01
v 6.20485730e+03 5.58845898e+03 1.67783194e+01
v 6.20756936e+03 5.58330109e+03 1.60313917e+01
v 6.20825117e+03 5.58213369e+03 1.72119526e+01
v 6.20791031e+03 5.58188894e+03 1.55340290e+01
v 6.21024220e+03 5.59373677e+03 3.30679912e+01
v 6.21405140e+03 5.59143399e+03 2.99170339e+01
v 6.20650874e+03 5.58437660e+03 1.24753886e+01
v 6.20526430e+03 5.58311718e+03 1.24677426e+01
v 6.20467027e+03 5.58348888e+03 1.26331764e+01
v 6.20290558e+03 5.58287358e+03 1.31625638e+01
v 6.20571727e+03 5.58701994e+03 1.11760279e+01
v 6.20611016e+03 5.58579546e+03 1.34532772e+01
v 6.20615992e+03 5.58565419e+03 1.13931491e+01
v 6.20440939e+03 5.58605586e+03 1.17949094e+01
v 6.20278301e+03 5.58656354e+03 1.31720797e+01
v 6.20369874e+03 5.58767520e+03 1.13727668e+01
v 6.19597998e+03 5.58743538e+03 1.18567941e+01
v 6.19765392e+03 5.58667932e+03 1.25724915e+01
v 6.20496614e+03 5.58483885e+03 1.23111667e+01
v 6.20140576e+03 5.58988698e+03 1.09105740e+01
v 6.20093497e+03 5.59014793e+03 1.27824911e+01
v 6.20123533e+03 5.59092035e+03 1.14144821e+01
v 6.19618974e+03 5.58914335e+03 1.31542016e+01
v 6.19976838e+03 5.59133489e+03 1.32766065e+01
v 6.20521596e+03 5.58805056e+03 1.18526855e+01
v 6.19987241e+03 5.59194535e+03 1.32685763e+01
v 6.19927731e+03 5.58866919e+03 1.39289435e+01
v 6.20222262e+03 5.58751762e+03 1.32009927e+01
v 6.20113154e+03 5.58502109e+03 1.39627315e+01
v 6.19973255e+03 5.58259723e+03 1.31750339e+01
v 6.19867424e+03 5.58587815e+03 1.32321421e+01
v 6.20379450e+03 5.58398235e+03 1.32268913e+01
v 6.20414523e+03 5.58972474e+03 1.37486071e+01
v 6.20342817e+03 5.59123942e+03 1.11942475e+01
v 6.20093707e+03 5.58303045e+03 1.33133985e+01
v 6.20431772e+03 5.58195280e+03 1.18316805e+01
v 6.20724771e+03 5.58384922e+03 1.37283187e+01
v 6.19703681e+03 5.58386162e+03 1.12332501e+01
v 6.19628293e+03 5.58438150e+03 1.09490406e+01
v 6.20495319e+03 5.58789512e+03 1.11638984e+01
v 6.20200133e+03 5.58861907e+03 1.31715355e+01
v 6.19690754e+03 5.58287028e+03 1.21960812e+01
v 6.19771659e+03 5.58293952e+03 1.16165590e+01
v 6.20306408e+03 5.58842650e+03 1.07359700e+01
v 6.20426133e+03 5.58982144e+03 1.11270311e+01
v 6.20223476e+03 5.59099413e+03 1.07179005e+01
v 6.20395363e+03 5.59072274e+03 1.21485633e+01
v 6.19736605e+03 5.58798578e+03 1.32414173e+01
v 6.19727835e+03 5.59249283e+03 1.39349914e+01
v 6.19956229e+03 5.59350441e+03 1.15064680e+01
v 6.20552711e+03 5.58139866e+03 1.19722538e+01
v 6.20377504e+03 5.58186529e+03 1.19983841e+01
v 6.20281069e+03 5.58135967e+03 1.42171480e+01
v 6.20200312e+03 5.58053653e+03 1.11442412e+01
v 6.20365313e+03 5.58157801e+03 1.26787454e+01
v 6.20192836e+03 5.58010234e+03 1.39175143e+01
v 6.20180778e+03 5.57936374e+03 1.15409301e+01
v 6.20094456e+03 5.58176311e+03 1.24327707e+01
v 6.19904807e+03 5.57897509e+03 1.37883686e+01
v 6.19917567e+03 5.57913520e+03 1.17563866e+01
v 6.20165486e+03 5.57877719e+03 1.26815763e+01
v 6.20156711e+03 5.57754463e+03 1.35150550e+01
v 6.20085913e+03 5.57827224e+03 1.19492787e+01
v 6.20035029e+03 5.57669458e+03 1.14585051e+01
v 6.19823468e+03 5.57981130e+03 1.12414439e+01
v 6.19929417e+03 5.58129716e+03 1.17793307e+01
v 6.20620955e+03 5.58251757e+03 1.30109012e+01
v 6.19980164e+03 5.57967600e+03 1.16430259e+01
v 6.20278207e+03 5.58143505e+03 1.11598163e+01
v 6.20070721e+03 5.57993660e+03 1.16241369e+01
v 6.20719409e+03 5.58366499e+03 1.30835033e+01
v 6.20225741e+03 5.58946562e+03 1.08069285e+01
v 6.20025819e+03 5.59225248e+03 1.13139464e+01
v 6.20017665e+03 5.59347047e+03 1.08195761e+01
v 6.19770292e+03 5.58135827e+03 1.09299759e+01
v 6.20246952e+03 5.59367003e+03 1.13690233e+01
v 6.20300208e+03 5.59192663e+03 1.13516785e+01
v 6.20194736e+03 5.59398550e+03 1.41102827e+01
v 6.20154122e+03 5.57779344e+03 1.46811086e+01
v 6.20221494e+03 5.58067517e+03 1.55456652e+01
v 6.20564992e+03 5.58108164e+03 1.85481462e+01
v 6.20700975e+03 5.58469314e+03 1.53003462e+01
v 6.19502845e+03 5.59364615e+03 1.32739952e+01
v 6.20559155e+03 5.58764944e+03 1.59346412e+01
v 6.20157437e+03 5.57236523e+03 2.33049716e+01
v 6.20767121e+03 5.58180531e+03 1.68872914e+01
v 6.20897469e+03 5.58029132e+03 1.88162585e+01
v 6.20688844e+03 5.57498413e+03 1.98306278e+01
v 6.20508877e+03 5.57715956e+03 1.91527634e+01
v 6.19384383e+03 5.59273771e+03 1.29964657e+01
v 6.19226194e+03 5.56962677e+03 2.05210054e+01
v 6.19334147e+03 5.56836385e+03 2.06505266e+01
v 6.19052324e+03 5.57331306e+03 1.65396689e+01
v 6.18970161e+03 5.57457133e+03 1.75740580e+01
v 6.19183142e+03 5.59358297e+03 2.24141344e+01
v 6.19139383e+03 5.59248620e+03 2.07525598e+01
v 6.19175857e+03 5.57124550e+03 2.05550206e+01
v 6.19096569e+03 5.57203409e+03 2.10288466e+01
v 6.19419434e+03 5.56345644e+03 1.96653756e+01
v 6.19439737e+03 5.56371482e+03 2.35735177e+01
v 6.19130554e+03 5.59351330e+03 1.49909537e+01
v 6.19160877e+03 5.59306229e+03 1.71416232e+01
v 6.19466315e+03 5.58722864e+03 1.42368590e+01
v 6.19546458e+03 5.58567733e+03 1.90592053e+01
v 6.19169583e+03 5.59364513e+03 1.87046406e+01
v 6.19432247e+03 5.56403266e+03 2.07587761e+01
v 6.19416156e+03 5.56393492e+03 1.79301426e+01
v 6.19354884e+03 5.56558630e+03 2.53931548e+01
v 6.19195568e+03 5.59309486e+03 1.36826608e+01
v 6.19279873e+03 5.59113967e+03 1.34104790e+01
v 6.19219592e+03 5.59206495e+03 1.95821790e+01
v 6.19496701e+03 5.58658151e+03 1.14960178e+01
v 6.19446515e+03 5.58729071e+03 1.10628251e+01
v 6.19347767e+03 5.58948492e+03 1.17116424e+01
v 6.19664342e+03 5.58361127e+03 1.13006773e+01
v 6.19207901e+03 5.56959187e+03 1.33779092e+01
v 6.19216765e+03 5.56867727e+03 1.23028665e+01
v 6.19308498e+03 5.56825959e+03 1.28079491e+01
v 6.19323183e+03 5.56764340e+03 1.48995608e+01
v 6.19162638e+03 5.56945454e+03 1.25733438e+01
v 6.19271081e+03 5.56780797e+03 1.23323986e+01
v 6.19274493e+03 5.56676403e+03 1.31784146e+01
v 6.19173843e+03 5.56642246e+03 1.27665014e+01
v 6.19048283e+03 5.57352068e+03 1.21045145e+01
v 6.19088232e+03 5.57202237e+03 1.30634579e+01
v 6.18933850e+03 5.57588976e+03 1.25706661e+01
v 6.18954575e+03 5.57475538e+03 1.22254499e+01
v 6.18736522e+03 5.57893226e+03 1.36858011e+01
v 6.18806990e+03 5.57891992e+03 1.23741593e+01
v 6.18854631e+03 5.57820424e+03 1.07278447e+01
v 6.18847703e+03 5.57677013e+03 1.30992503e+01
v 6.18843093e+03 5.57663637e+03 1.19000594e+01
v 6.18816193e+03 5.56301172e+03 1.19599305e+01
v 6.18846951e+03 5.56716952e+03 1.21617203e+01
v 6.18926050e+03 5.57255537e+03 1.25645511e+01
v 6.18877512e+03 5.57200504e+03 1.25069872e+01
v 6.18802622e+03 5.57858346e+03 2.05260994e+01
v 6.18851903e+03 5.57682476e+03 2.09372332e+01
v 6.18964837e+03 5.57428097e+03 2.24496775e+01
v 6.19496188e+03 5.58653887e+03 2.12965189e+01
v 6.19371567e+03 5.58917877e+03 2.07541974e+01
v 6.19618073e+03 5.58417762e+03 2.06802011e+01
v 6.19597625e+03 5.58495608e+03 2.24648182e+01
v 6.19550925e+03 5.58491706e+03 2.00858220e+01
v 6.19362192e+03 5.58940856e+03 2.24464197e+01
v 6.19104009e+03 5.58319175e+03 2.42508462e+01
v 6.19286910e+03 5.58990057e+03 2.08154450e+01
v 6.19264951e+03 5.59126216e+03 2.12540879e+01
v 6.19676902e+03 5.57838924e+03 2.33041417e+01
v 6.19677554e+03 5.58263597e+03 2.09349360e+01
v 6.19216768e+03 5.59218969e+03 2.21397772e+01
v 6.19164618e+03 5.59327192e+03 1.95888959e+01
v 6.19319996e+03 5.59004020e+03 1.90319243e+01
v 6.18953407e+03 5.57611395e+03 2.08290770e+01
v 6.19314301e+03 5.56269302e+03 2.14324787e+01
v 6.19107780e+03 5.57153017e+03 2.24872694e+01
v 6.19313459e+03 5.56747892e+03 2.24897753e+01
v 6.19350659e+03 5.56770634e+03 2.04607948e+01
v 6.19526550e+03 5.56837460e+03 2.35514304e+01
v 6.18976779e+03 5.57447285e+03 2.06627299e+01
v 6.19059207e+03 5.57381348e+03 2.07312727e+01
v 6.19311933e+03 5.56625194e+03 2.24191160e+01
v 6.19273664e+03 5.56690398e+03 1.91286801e+01
v 6.19341446e+03 5.56309759e+03 2.34703226e+01
v 6.18900560e+03 5.57572259e+03 1.93671648e+01
v 6.19290318e+03 5.56705443e+03 2.28112210e+01
v 6.19371691e+03 5.56304202e+03 1.66629092e+01
v 6.19392879e+03 5.56469512e+03 1.53132776e+01
v 6.19314767e+03 5.56632106e+03 1.81618077e+01
v 6.19315274e+03 5.56763419e+03 1.96075802e+01
v 6.19338918e+03 5.56735267e+03 1.77643184e+01
v 6.19224066e+03 5.56962461e+03 1.63995502e+01
v 6.19234653e+03 5.56923241e+03 1.90354092e+01
v 6.19310286e+03 5.56863538e+03 1.65336616e+01
v 6.19140291e+03 5.57120547e+03 1.91576983e+01
v 6.19154228e+03 5.57102823e+03 1.46473462e+01
v 6.19292372e+03 5.56666516e+03 1.54838957e+01
v 6.19204187e+03 5.56225378e+03 1.80843244e+01
v 6.19411638e+03 5.56339659e+03 1.48807768e+01
v 6.19169893e+03 5.57122904e+03 1.53946027e+01
v 6.19636054e+03 5.58398675e+03 1.78286924e+01
v 6.18822027e+03 5.57759793e+03 1.72730977e+01
v 6.18727058e+03 5.57939051e+03 1.56052845e+01
v 6.19566032e+03 5.58485571e+03 1.56911655e+01
v 6.19299780e+03 5.58983550e+03 1.58519274e+01
v 6.18743929e+03 5.57605356e+03 1.19875127e+01
v 6.18770773e+03 5.56955674e+03 1.21259330e+01
v 6.19336097e+03 5.56483659e+03 1.32227460e+01
v 6.19355338e+03 5.56302860e+03 1.35866911e+01
v 6.18917446e+03 5.57592466e+03 1.58184697e+01
v 6.18984777e+03 5.57242918e+03 1.21050477e+01
v 6.18841142e+03 5.57287864e+03 1.24963414e+01
v 6.19002172e+03 5.57381994e+03 1.39822017e+01
v 6.19267801e+03 5.59095572e+03 1.59830702e+01
v 6.19018297e+03 5.57354626e+03 1.91926837e+01
v 6.19732233e+03 5.58210669e+03 1.85220664e+01
v 6.19425505e+03 5.58753347e+03 1.68559728e+01
v 6.19372687e+03 5.58918300e+03 1.71707713e+01
v 6.19448183e+03 5.58751582e+03 1.89512218e+01
v 6.19038954e+03 5.59385518e+03 2.28051891e+01
v 6.19424348e+03 5.59062911e+03 1.25599466e+01
v 6.19375026e+03 5.57334917e+03 2.36552111e+01
v 6.19591752e+03 5.56513649e+03 3.02873757e+01
v 6.19675675e+03 5.56508574e+03 2.94669009e+01
v 6.19750525e+03 5.56723482e+03 3.18908929e+01
v 6.19523813e+03 5.56639186e+03 3.10586865e+01
v 6.19825474e+03 5.56847007e+03 3.04693383e+01
v 6.19515198e+03 5.56654416e+03 3.03396516e+01
v 6.19421092e+03 5.56680208e+03 2.93185517e+01
v 6.19718275e+03 5.56656846e+03 3.19246267e+01
v 6.19610651e+03 5.56531454e+03 3.09712732e+01
v 6.19446537e+03 5.56226138e+03 2.61075378e+01
v 6.19388593e+03 5.56535435e+03 2.75275308e+01
v 6.19343703e+03 5.56686797e+03 2.75324424e+01
v 6.19250584e+03 5.56709479e+03 2.64859863e+01
v 6.19471622e+03 5.56305235e+03 2.66731744e+01
v 6.19646469e+03 5.56452055e+03 2.77398588e+01
v 6.19511847e+03 5.56383030e+03 2.77317497e+01
v 6.19539331e+03 5.56423123e+03 2.90761383e+01
v 6.19122674e+03 5.57810386e+03 2.35947404e+01
v 6.19154836e+03 5.57794090e+03 2.55144293e+01
v 6.19238534e+03 5.57845130e+03 2.52802524e+01
v 6.19314819e+03 5.57886487e+03 2.42740325e+01
v 6.19197377e+03 5.57901016e+03 2.41508736e+01
v 6.19204425e+03 5.57873487e+03 2.60557300e+01
v 6.19106630e+03 5.57847000e+03 2.52830408e+01
v 6.19138468e+03 5.57834008e+03 2.59523361e+01
v 6.19439458e+03 5.57336436e+03 2.55388962e+01
v 6.19383640e+03 5.57344173e+03 2.59425234e+01
v 6.19550952e+03 5.56857922e+03 2.65776884e+01
v 6.19463215e+03 5.57439015e+03 2.42328519e+01
v 6.19356026e+03 5.57374995e+03 2.51021187e+01
v 6.19444846e+03 5.57414279e+03 2.58429736e+01
v 6.19464419e+03 5.57362877e+03 2.40595546e+01
v 6.18845741e+03 5.58819982e+03 2.42290912e+01
v 6.19263316e+03 5.56704741e+03 2.53846203e+01
v 6.19482659e+03 5.57382177e+03 2.55470160e+01
v 6.19505040e+03 5.57522896e+03 2.42468690e+01
v 6.19379981e+03 5.57410036e+03 2.37513014e+01
v 6.19626069e+03 5.57294977e+03 2.42622618e+01
v 6.19774757e+03 5.56959552e+03 2.45218375e+01
v 6.19443829e+03 5.58825035e+03 1.10644015e+01
v 6.18835804e+03 5.57121001e+03 1.28590332e+01
v 6.19000405e+03 5.57120193e+03 1.21723202e+01
v 6.18782226e+03 5.57228292e+03 1.18977136e+01
v 6.19055413e+03 5.57227873e+03 1.20666665e+01
v 6.19077155e+03 5.57151184e+03 1.23123960e+01
v 6.19175177e+03 5.57076859e+03 1.23599016e+01
v 6.18908703e+03 5.56884099e+03 1.19217284e+01
v 6.18773477e+03 5.57469879e+03 1.23325226e+01
v 6.18912402e+03 5.57445815e+03 1.21087937e+01
v 6.18773317e+03 5.57364613e+03 1.26150733e+01
v 6.18827057e+03 5.57911291e+03 1.09913877e+01
v 6.18850243e+03 5.57550377e+03 1.20482708e+01
v 6.19062871e+03 5.56645898e+03 1.20926633e+01
v 6.18749671e+03 5.57068852e+03 1.29722017e+01
v 6.19381067e+03 5.56384814e+03 1.31874052e+01
v 6.19198604e+03 5.56328916e+03 1.23431844e+01
v 6.21664398e+03 5.56958861e+03 3.09394915e+01
v 6.21653652e+03 5.57024747e+03 3.09799217e+01
v 6.21602577e+03 5.57721515e+03 2.98613802e+01
v 6.21883041e+03 5.57684570e+03 3.29702702e+01
v 6.19783079e+03 5.58137628e+03 2.23781745e+01
v 6.20505194e+03 5.58133572e+03 1.56983688e+01
v 6.20653878e+03 5.58131348e+03 1.76498377e+01
v 6.20276737e+03 5.57562602e+03 1.92945980e+01
v 6.20428351e+03 5.58923558e+03 2.31553010e+01
v 6.21074648e+03 5.57638306e+03 2.16005639e+01
v 6.20592642e+03 5.58846496e+03 2.49228862e+01
v 6.20630001e+03 5.58744167e+03 2.68329484e+01
v 6.20417039e+03 5.59059723e+03 2.07199090e+01
v 6.20962754e+03 5.58162090e+03 2.48966229e+01
v 6.20269596e+03 5.59354765e+03 2.03854099e+01
v 6.21095636e+03 5.58231851e+03 2.69235383e+01
v 6.20943314e+03 5.58150356e+03 2.68176974e+01
v 6.21503307e+03 5.59156614e+03 2.87202639e+01
v 6.21526904e+03 5.58843423e+03 3.02376659e+01
v 6.20108771e+03 5.56686872e+03 2.78511715e+01
v 6.20053405e+03 5.56689234e+03 2.92876688e+01
v 6.19945377e+03 5.56920714e+03 2.92366214e+01
v 6.20914038e+03 5.58176580e+03 2.62460561e+01
v 6.19991086e+03 5.57067808e+03 2.46989014e+01
v 6.20066213e+03 5.57640121e+03 1.87947928e+01
v 6.19911143e+03 5.57775404e+03 2.09943290e+01
v 6.20444376e+03 5.59027013e+03 1.72691464e+01
v 6.19756223e+03 5.58145061e+03 2.11627731e+01
v 6.19683844e+03 5.58243541e+03 1.62733822e+01
v 6.20712910e+03 5.58464505e+03 1.67924485e+01
v 6.20395375e+03 5.59030739e+03 1.86003621e+01
v 6.20539895e+03 5.58122163e+03 1.67698129e+01
v 6.20788607e+03 5.58242113e+03 1.99788120e+01
v 6.20782426e+03 5.58074978e+03 1.75819394e+01
v 6.20223249e+03 5.58076819e+03 1.81629180e+01
v 6.19991016e+03 5.57704368e+03 1.92954047e+01
v 6.20867887e+03 5.57565398e+03 1.95989848e+01
v 6.20218956e+03 5.57402367e+03 1.99328027e+01
v 6.20310171e+03 5.57232326e+03 2.03864073e+01
v 6.20407080e+03 5.57369187e+03 1.95704732e+01
v 6.20042749e+03 5.57119668e+03 2.33536750e+01
v 6.19874190e+03 5.57889441e+03 2.28152142e+01
v 6.19940228e+03 5.57563140e+03 2.28430058e+01
v 6.19932691e+03 5.57824289e+03 2.24341267e+01
v 6.20880208e+03 5.58056334e+03 1.94801898e+01
v 6.20879801e+03 5.58148323e+03 2.07549724e+01
v 6.21057257e+03 5.57700543e+03 2.30946458e+01
v 6.21148950e+03 5.57603393e+03 2.39983743e+01
v 6.21348049e+03 5.57467382e+03 2.54117188e+01
v 6.21709787e+03 5.57217737e+03 2.81537689e+01
v 6.21698340e+03 5.57411739e+03 2.94206489e+01
v 6.21611841e+03 5.59245281e+03 2.67378878e+01
v 6.21247481e+03 5.57937099e+03 2.69929425e+01
v 6.21019900e+03 5.58022381e+03 2.48376915e+01
v 6.21166680e+03 5.57731312e+03 2.47910429e+01
v 6.21028292e+03 5.57972997e+03 2.49082650e+01
v 6.21070002e+03 5.57878783e+03 2.64903346e+01
v 6.21105776e+03 5.57859780e+03 2.49029715e+01
v 6.21264629e+03 5.57161235e+03 2.70048871e+01
v 6.21121041e+03 5.57863252e+03 2.68723546e+01
v 6.20864674e+03 5.58311149e+03 2.47825990e+01
v 6.20329330e+03 5.59341509e+03 2.66561169e+01
v 6.20530604e+03 5.58958647e+03 2.53274933e+01
v 6.20597900e+03 5.58914005e+03 2.50467400e+01
v 6.20306431e+03 5.57229837e+03 2.52700427e+01
v 6.20170741e+03 5.57265612e+03 2.52870677e+01
v 6.20620458e+03 5.57335333e+03 2.42202142e+01
v 6.20697647e+03 5.58636383e+03 2.48569491e+01
v 6.20745087e+03 5.58633781e+03 2.50923781e+01
v 6.20222432e+03 5.57181311e+03 2.54538624e+01
v 6.20892300e+03 5.58546552e+03 2.66038935e+01
v 6.20942484e+03 5.58498591e+03 2.66275941e+01
v 6.20642344e+03 5.59110874e+03 2.68131523e+01
v 6.20475273e+03 5.59051277e+03 2.67568805e+01
v 6.20545023e+03 5.59168554e+03 2.61534370e+01
v 6.21050743e+03 5.58643335e+03 2.90487694e+01
v 6.21244933e+03 5.58265826e+03 2.90888734e+01
v 6.21161209e+03 5.58475095e+03 2.91028683e+01
v 6.21313688e+03 5.58324025e+03 3.00227681e+01
v 6.21356864e+03 5.58096943e+03 2.92464734e+01
v 6.21098380e+03 5.58611293e+03 2.98757819e+01
v 6.21168284e+03 5.58667630e+03 3.02139881e+01
v 6.20908078e+03 5.58923108e+03 2.90830309e+01
v 6.20763448e+03 5.59273210e+03 2.93399560e+01
v 6.21018685e+03 5.58909206e+03 3.00255056e+01
v 6.21513099e+03 5.58419172e+03 3.30052706e+01
v 6.21256753e+03 5.58917273e+03 3.30206706e+01
v 6.21592101e+03 5.58861200e+03 2.97655284e+01
v 6.21397389e+03 5.58014147e+03 2.97077440e+01
v 6.21483448e+03 5.58023553e+03 3.01836599e+01
v 6.21686326e+03 5.58529056e+03 3.01836283e+01
v 6.21635572e+03 5.56871249e+03 2.99511944e+01
v 6.21403013e+03 5.56465602e+03 3.29266397e+01
v 6.21721807e+03 5.56428444e+03 3.08582699e+01
v 6.21153570e+03 5.56335736e+03 3.28594639e+01
v 6.21662816e+03 5.56601110e+03 3.29756060e+01
v 6.20711477e+03 5.56371382e+03 3.00642520e+01
v 6.20424546e+03 5.56260270e+03 2.98760137e+01
v 6.21178326e+03 5.56681285e+03 2.95289688e+01
v 6.20899621e+03 5.56623693e+03 2.91722649e+01
v 6.20554711e+03 5.56779459e+03 2.71160366e+01
v 6.20725796e+03 5.56806170e+03 2.85618010e+01
v 6.20953111e+03 5.56871701e+03 3.05604843e+01
v 6.21118197e+03 5.56546522e+03 3.05203769e+01
v 6.20272767e+03 5.56384789e+03 3.03012498e+01
v 6.20262337e+03 5.56391636e+03 2.86186126e+01
v 6.21071807e+03 5.56981050e+03 2.91472960e+01
v 6.19917765e+03 5.56827585e+03 3.04022242e+01
v 6.19946658e+03 5.56711985e+03 3.09645027e+01
v 6.19884161e+03 5.56835712e+03 3.10717642e+01
v 6.19774013e+03 5.56530313e+03 2.85263114e+01
v 6.19916110e+03 5.56428547e+03 2.84609039e+01
v 6.19962489e+03 5.56705251e+03 3.02793069e+01
v 6.20319488e+03 5.56256514e+03 2.97272626e+01
v 6.20328214e+03 5.56402860e+03 3.11541945e+01
v 6.20352763e+03 5.56406910e+03 2.87815675e+01
v 6.19953420e+03 5.56242917e+03 2.84862867e+01
v 6.20201998e+03 5.57115265e+03 2.43517820e+01
v 6.20254185e+03 5.57055237e+03 2.43986812e+01
v 6.19969480e+03 5.57081739e+03 2.65458014e+01
v 6.20142562e+03 5.57149484e+03 2.36404545e+01
v 6.21600792e+03 5.57001722e+03 2.90723674e+01
v 6.21046863e+03 5.56978007e+03 2.82272009e+01
v 6.21831179e+03 5.59346744e+03 1.81694853e+01
v 6.21800901e+03 5.59295661e+03 1.57892328e+01
v 6.21882169e+03 5.59359875e+03 1.41248897e+01
v 6.21823821e+03 5.59331624e+03 2.08598114e+01
v 6.21843835e+03 5.59161002e+03 2.46840824e+01
v 6.21746753e+03 5.59312514e+03 2.47718861e+01
v 6.21802286e+03 5.59226464e+03 2.52397463e+01
v 6.21753402e+03 5.58956850e+03 2.68896364e+01
v 6.21741476e+03 5.58573528e+03 2.95558542e+01
v 6.21792193e+03 5.59344867e+03 2.42761039e+01
v 6.21762917e+03 5.59330095e+03 2.66844392e+01
v 6.21724875e+03 5.58001554e+03 3.30359977e+01
v 6.21865650e+03 5.58241232e+03 2.99066923e+01
v 6.21769135e+03 5.57461686e+03 3.01852810e+01
v 6.21732090e+03 5.56909365e+03 2.99406257e+01
v 6.21729744e+03 5.56225881e+03 4.77482262e+01
v 6.21730849e+03 5.56282926e+03 2.92027885e+01
v 6.21875018e+03 5.56351338e+03 2.93623118e+01
v 6.21720887e+03 5.57023939e+03 2.93009529e+01
v 6.21601259e+03 5.56992631e+03 3.04476651e+01
v 6.21867227e+03 5.59352151e+03 1.19346567e+01
v 6.18725000e+03 5.57942690e+03 1.55810719e+01
v 6.18725000e+03 5.57944760e+03 1.56084330e+01
v 6.18725000e+03 5.57715567e+03 1.09776222e+01
v 6.18725000e+03 5.57744016e+03 1.07557551e+01
v 6.18725000e+03 5.56291767e+03 1.19894969e+01
v 6.18725000e+03 5.57053984e+03 1.26236931e+01
v 6.18725000e+03 5.56985987e+03 1.20055991e+01
v 6.18725000e+03 5.57924417e+03 1.06691637e+01
v 6.18725000e+03 5.57938730e+03 1.07266324e+01
v 6.18725000e+03 5.56932631e+03 1.21318042e+01
v 6.18725000e+03 5.57364204e+03 1.23073427e+01
v 6.18725000e+03 5.57407369e+03 1.21910602e+01
v 6.18725000e+03 5.57313655e+03 1.20204563e+01
v 6.18725000e+03 5.57260056e+03 1.19099139e+01
v 6.18725000e+03 5.57461913e+03 1.21014459e+01
v 6.18725000e+03 5.57121711e+03 1.18804702e+01
v 6.18725000e+03 5.57534867e+03 1.29217901e+01
v 6.18725000e+03 5.57932641e+03 1.10804474e+01
v 6.18725000e+03 5.57909062e+03 1.27760125e+01
v 6.18725000e+03 5.57926448e+03 1.34490046e+01
v 6.18725000e+03 5.57655092e+03 1.14892857e+01
v 6.18725000e+03 5.57068217e+03 1.20317764e+01
v 6.18725000e+03 5.57054063e+03 1.21892341e+01
v 6.18725000e+03 5.57565489e+03 1.26968520e+01
v 6.18725000e+03 5.57547015e+03 1.29647704e+01
v 6.18725000e+03 5.57912404e+03 1.94003596e+01
v 6.18725000e+03 5.57926760e+03 1.94311495e+01
v 6.18725000e+03 5.58688669e+03 2.36785456e+01
v 6.18725000e+03 5.59057095e+03 2.42600027e+01
v 6.18725000e+03 5.59348538e+03 2.45945492e+01
v 6.18725000e+03 5.59306905e+03 2.38966608e+01
v 6.18725000e+03 5.58371014e+03 2.32088302e+01
v 6.18725000e+03 5.57914661e+03 2.24442550e+01
v 6.18725000e+03 5.57910622e+03 1.92259195e+01
v 6.18725000e+03 5.57915585e+03 1.89472834e+01
v 6.18725000e+03 5.57943472e+03 1.57047916e+01
v 6.18725000e+03 5.57950695e+03 1.75340709e+01
v 6.18725000e+03 5.57916235e+03 1.37343926e+01
v 6.18725000e+03 5.57600296e+03 1.18117152e+01
v 6.18725000e+03 5.57915858e+03 2.25155569e+01
v 6.18725000e+03 5.57911309e+03 2.25078708e+01
v 6.18725000e+03 5.57919290e+03 2.25203720e+01
v 6.18725000e+03 5.57911848e+03 2.24769573e+01
v 6.18725000e+03 5.56622387e+03 1.21591802e+01
v 6.18725000e+03 5.56714556e+03 1.21676620e+01
v 6.21900000e+03 5.59288624e+03 2.31437007e+01
v 6.21900000e+03 5.59292946e+03 2.31129479e+01
v 6.21900000e+03 5.59335176e+03 1.33490336e+01
v 6.21900000e+03 5.59315948e+03 1.14274357e+01
v 6.21900000e+03 5.59324209e+03 1.39852157e+01
v 6.21900000e+03 5.59366397e+03 1.04445586e+01
v 6.21900000e+03 5.58199119e+03 2.97463720e+01
v 6.21900000e+03 5.58145100e+03 3.01010550e+01
v 6.21900000e+03 5.57636168e+03 3.28760080e+01
v 6.21900000e+03 5.57117839e+03 2.97597950e+01
v 6.21900000e+03 5.56282866e+03 4.07980370e+01
v 6.21900000e+03 5.56267455e+03 4.20818406e+01
v 6.21900000e+03 5.56269781e+03 4.86491263e+01
v 6.21900000e+03 5.56297798e+03 4.77932676e+01
v 6.21900000e+03 5.57677879e+03 3.28282521e+01
v 6.21900000e+03 5.57022475e+03 2.99608500e+01
v 6.21900000e+03 5.57072761e+03 2.96736592e+01
v 6.21900000e+03 5.56989931e+03 3.01309601e+01
v 6.21900000e+03 5.57650942e+03 3.29823592e+01
v 6.21900000e+03 5.56347716e+03 2.94983488e+01
v 6.21900000e+03 5.56369668e+03 2.94201596e+01
v 6.21900000e+03 5.56278466e+03 3.03696514e+01
v 6.21900000e+03 5.56282124e+03 2.96860363e+01
v 6.21900000e+03 5.56273631e+03 3.41788735e+01
v 6.21900000e+03 5.56277145e+03 3.16344777e+01
v 6.21900000e+03 5.56728048e+03 3.28872189e+01
v 6.21900000e+03 5.56864247e+03 3.13758798e+01
v 6.21900000e+03 5.56668968e+03 3.24724682e+01
v 6.21900000e+03 5.56458016e+03 3.04477837e+01
v 6.21900000e+03 5.56691526e+03 3.27095659e+01
v 6.21900000e+03 5.56283461e+03 4.55846450e+01
v 6.21900000e+03 5.56289793e+03 4.73264022e+01
v 6.21900000e+03 5.56296930e+03 3.91454293e+01
v 6.21900000e+03 5.56269252e+03 4.38022720e+01
v 6.21900000e+03 5.56296871e+03 3.86921573e+01
v 6.21900000e+03 5.56275714e+03 3.62789029e+01
v 6.21900000e+03 5.56243945e+03 5.00512912e+01
v 6.21900000e+03 5.56278711e+03 3.74341080e+01
v 6.21900000e+03 5.58260124e+03 2.93864529e+01
v 6.21900000e+03 5.58224068e+03 2.96226567e+01
v 6.21900000e+03 5.58688493e+03 2.68181094e+01
v 6.21900000e+03 5.58652853e+03 2.70521316e+01
v 6.21900000e+03 5.58467682e+03 2.82302279e+01
v 6.21900000e+03 5.58921552e+03 2.55163185e+01
v 6.21900000e+03 5.59018610e+03 2.67989402e+01
v 6.21900000e+03 5.59065653e+03 2.61899585e+01
v 6.21900000e+03 5.59283987e+03 2.31867763e+01
v 6.21900000e+03 5.59278645e+03 2.32056242e+01
v 6.21900000e+03 5.59287948e+03 2.31493263e+01
v 6.21900000e+03 5.59038046e+03 2.48158961e+01
v 6.21900000e+03 5.59261448e+03 1.99395224e+01
v 6.21900000e+03 5.59241561e+03 2.01713727e+01
v 6.21900000e+03 5.59288102e+03 2.30120403e+01
v 6.21900000e+03 5.59297606e+03 1.46025656e+01
v 6.21900000e+03 5.59325894e+03 1.41313233e+01
v 6.21900000e+03 5.59228334e+03 1.53671794e+01
v 6.21900000e+03 5.59247217e+03 1.60284377e+01
v 6.21900000e+03 5.59230925e+03 1.83435587e+01
v 6.21900000e+03 5.59247633e+03 1.95024259e+01
v 6.21900000e+03 5.59292344e+03 2.30834975e+01
v 6.21900000e+03 5.56433656e+03 3.00450187e+01
v 6.18912845e+03 5.56225000e+03 1.22462921e+01
v 6.18821172e+03 5.56225000e+03 1.21285367e+01
v 6.19106632e+03 5.56225000e+03 1.24725344e+01
v 6.19146830e+03 5.56225000e+03 1.28192434e+01
v 6.19149703e+03 5.56225000e+03 1.28382744e+01
v 6.18772583e+03 5.56225000e+03 1.20118855e+01
v 6.19555186e+03 5.56225000e+03 2.68748046e+01
v 6.19536619e+03 5.56225000e+03 2.63114841e+01
v 6.19292371e+03 5.56225000e+03 2.41158620e+01
v 6.19164270e+03 5.56225000e+03 2.33065993e+01
v 6.19417314e+03 5.56225000e+03 2.50765114e+01
v 6.19396417e+03 5.56225000e+03 2.46399025e+01
v 6.19384439e+03 5.56225000e+03 2.45572130e+01
v 6.19402255e+03 5.56225000e+03 2.64944675e+01
v 6.19487388e+03 5.56225000e+03 2.60624020e+01
v 6.19441496e+03 5.56225000e+03 2.61460319e+01
v 6.19446518e+03 5.56225000e+03 2.61116836e+01
v 6.19446969e+03 5.56225000e+03 2.61095968e+01
v 6.19653032e+03 5.56225000e+03 2.73033902e+01
v 6.19205357e+03 5.56225000e+03 1.48126189e+01
v 6.19203529e+03 5.56225000e+03 1.80478462e+01
v 6.19177830e+03 5.56225000e+03 1.98181787e+01
v 6.19203020e+03 5.56225000e+03 1.81126933e+01
v 6.19203575e+03 5.56225000e+03 1.80808866e+01
v 6.19194179e+03 5.56225000e+03 2.03900741e+01
v 6.19190130e+03 5.56225000e+03 2.24241156e+01
v 6.19208346e+03 5.56225000e+03 1.44286369e+01
v 6.20396990e+03 5.56225000e+03 3.01000234e+01
v 6.20366327e+03 5.56225000e+03 2.99162440e+01
v 6.20282184e+03 5.56225000e+03 2.97859875e+01
v 6.20169387e+03 5.56225000e+03 2.93407974e+01
v 6.20098790e+03 5.56225000e+03 2.91029850e+01
v 6.19963860e+03 5.56225000e+03 2.86341884e+01
v 6.19906872e+03 5.56225000e+03 2.82722134e+01
v 6.20939133e+03 5.56225000e+03 3.28855534e+01
v 6.21161969e+03 5.56225000e+03 3.16442141e+01
v 6.21403943e+03 5.56225000e+03 3.03745043e+01
v 6.21260598e+03 5.56225000e+03 3.11276538e+01
v 6.20805318e+03 5.56225000e+03 3.21559418e+01
v 6.20661165e+03 5.56225000e+03 3.13490862e+01
v 6.20419196e+03 5.56225000e+03 3.02072215e+01
v 6.20453266e+03 5.56225000e+03 3.03766291e+01
v 6.21548264e+03 5.56225000e+03 2.96214152e+01
v 6.21790698e+03 5.56225000e+03 4.04634914e+01
v 6.21732316e+03 5.56225000e+03 4.78090024e+01
v 6.21734073e+03 5.56225000e+03 2.85573139e+01
v 6.21734153e+03 5.56225000e+03 2.85544363e+01
v 6.21766555e+03 5.56225000e+03 2.92055566e+01
v 6.21779195e+03 5.56225000e+03 2.92417695e+01
v 6.21773140e+03 5.56225000e+03 2.92113091e+01
v 6.21799677e+03 5.56225000e+03 3.31067519e+01
v 6.21785910e+03 5.56225000e+03 4.39724110e+01
v 6.21730219e+03 5.56225000e+03 4.77479072e+01
v 6.21744365e+03 5.56225000e+03 4.73405243e+01
v 6.21785773e+03 5.56225000e+03 4.01420492e+01
v 6.21791489e+03 5.56225000e+03 4.36926966e+01
v 6.21786304e+03 5.56225000e+03 3.75592398e+01
v 6.21792963e+03 5.56225000e+03 3.73340048e+01
v 6.18725000e+03 5.56225000e+03 1.20247236e+01
v 6.21798798e+03 5.56225000e+03 4.08455376e+01
v 6.21792405e+03 5.56225000e+03 4.33359369e+01
v 6.21825154e+03 5.56225000e+03 4.90315091e+01
v 6.21860981e+03 5.56225000e+03 5.00118204e+01
v 6.21762693e+03 5.56225000e+03 4.68938750e+01
v 6.21774154e+03 5.56225000e+03 2.92164102e+01
v 6.21794612e+03 5.56225000e+03 3.06606914e+01
v 6.21779811e+03 5.56225000e+03 2.92984940e+01
v 6.21799120e+03 5.56225000e+03 3.28379340e+01
v 6.21801270e+03 5.56225000e+03 3.36829213e+01
v 6.21795493e+03 5.56225000e+03 3.65227822e+01
v 6.21763144e+03 5.56225000e+03 4.68600065e+01
v 6.21762920e+03 5.56225000e+03 4.68883308e+01
v 6.21786287e+03 5.56225000e+03 3.76424090e+01
v 6.21794409e+03 5.56225000e+03 3.70556210e+01
v 6.21875089e+03 5.56225000e+03 5.03978582e+01
v 6.21900000e+03 5.56225000e+03 5.08692402e+01
v 6.19228193e+03 5.59400000e+03 1.43023283e+01
v 6.19296699e+03 5.59400000e+03 1.34283636e+01
v 6.19373653e+03 5.59400000e+03 1.28522553e+01
v 6.19369200e+03 5.59400000e+03 1.28387992e+01
v 6.19224717e+03 5.59400000e+03 1.51576662e+01
v 6.19221766e+03 5.59400000e+03 2.03901595e+01
v 6.19218888e+03 5.59400000e+03 2.16031708e+01
v 6.18808082e+03 5.59400000e+03 2.48196404e+01
v 6.18996429e+03 5.59400000e+03 2.33742778e+01
v 6.19019378e+03 5.59400000e+03 2.29641283e+01
v 6.19027048e+03 5.59400000e+03 2.28696937e+01
v 6.19033879e+03 5.59400000e+03 2.28620799e+01
v 6.19155759e+03 5.59400000e+03 2.26049070e+01
v 6.19251297e+03 5.59400000e+03 2.15961455e+01
v 6.19240541e+03 5.59400000e+03 2.20467623e+01
v 6.19200808e+03 5.59400000e+03 2.25244925e+01
v 6.19266496e+03 5.59400000e+03 2.24185726e+01
v 6.19235855e+03 5.59400000e+03 1.92605430e+01
v 6.19241104e+03 5.59400000e+03 1.88934657e+01
v 6.19266685e+03 5.59400000e+03 1.99600966e+01
v 6.19237603e+03 5.59400000e+03 1.84414648e+01
v 6.19198739e+03 5.59400000e+03 1.66518174e+01
v 6.19193949e+03 5.59400000e+03 1.72550850e+01
v 6.19485313e+03 5.59400000e+03 1.27954457e+01
v 6.19527155e+03 5.59400000e+03 1.29491878e+01
v 6.19366664e+03 5.59400000e+03 1.28488417e+01
v 6.19186211e+03 5.59400000e+03 1.61574883e+01
v 6.19923434e+03 5.59400000e+03 1.19306085e+01
v 6.19894584e+03 5.59400000e+03 1.31685490e+01
v 6.20178391e+03 5.59400000e+03 1.09133618e+01
v 6.20129999e+03 5.59400000e+03 1.08963333e+01
v 6.20194045e+03 5.59400000e+03 1.40996938e+01
v 6.20193982e+03 5.59400000e+03 1.41078624e+01
v 6.19570641e+03 5.59400000e+03 1.32386457e+01
v 6.19782880e+03 5.59400000e+03 1.34983862e+01
v 6.19941012e+03 5.59400000e+03 1.15764841e+01
v 6.19965257e+03 5.59400000e+03 1.13026468e+01
v 6.19999469e+03 5.59400000e+03 1.07826141e+01
v 6.20193492e+03 5.59400000e+03 1.39075404e+01
v 6.20203349e+03 5.59400000e+03 1.11005550e+01
v 6.20194134e+03 5.59400000e+03 1.40658672e+01
v 6.20056955e+03 5.59400000e+03 1.07008187e+01
v 6.20203062e+03 5.59400000e+03 1.88619214e+01
v 6.20203894e+03 5.59400000e+03 2.01030299e+01
v 6.21472293e+03 5.59400000e+03 2.75663913e+01
v 6.21369495e+03 5.59400000e+03 2.89034654e+01
v 6.21100254e+03 5.59400000e+03 3.19611923e+01
v 6.21026625e+03 5.59400000e+03 3.28698543e+01
v 6.20664007e+03 5.59400000e+03 2.90058290e+01
v 6.20653994e+03 5.59400000e+03 2.89257429e+01
v 6.21529776e+03 5.59400000e+03 2.68170943e+01
v 6.21250957e+03 5.59400000e+03 3.01123508e+01
v 6.20675188e+03 5.59400000e+03 2.91112259e+01
v 6.20894025e+03 5.59400000e+03 3.16238454e+01
v 6.21009873e+03 5.59400000e+03 3.30692077e+01
v 6.20592761e+03 5.59400000e+03 2.81418634e+01
v 6.20472555e+03 5.59400000e+03 2.66148168e+01
v 6.20621899e+03 5.59400000e+03 2.85206854e+01
v 6.20635340e+03 5.59400000e+03 2.86648889e+01
v 6.21266948e+03 5.59400000e+03 2.99304762e+01
v 6.20428201e+03 5.59400000e+03 2.68233930e+01
v 6.20301902e+03 5.59400000e+03 2.59072455e+01
v 6.20306858e+03 5.59400000e+03 2.47411052e+01
v 6.20224192e+03 5.59400000e+03 2.36545071e+01
v 6.20231978e+03 5.59400000e+03 2.06875897e+01
v 6.20193855e+03 5.59400000e+03 1.42117396e+01
v 6.20194132e+03 5.59400000e+03 1.41150785e+01
v 6.20213125e+03 5.59400000e+03 1.65052385e+01
v 6.20213166e+03 5.59400000e+03 1.71986518e+01
v 6.20194378e+03 5.59400000e+03 1.78080571e+01
v 6.20187807e+03 5.59400000e+03 2.31735403e+01
v 6.20193245e+03 5.59400000e+03 2.25419411e+01
v 6.21616995e+03 5.59400000e+03 2.56549240e+01
v 6.21844730e+03 5.59400000e+03 2.31237729e+01
v 6.21861864e+03 5.59400000e+03 1.41285086e+01
v 6.21867244e+03 5.59400000e+03 1.29648287e+01
v 6.21855862e+03 5.59400000e+03 1.14228975e+01
v 6.21717491e+03 5.59400000e+03 2.55679585e+01
v 6.21677616e+03 5.59400000e+03 2.53163302e+01
v 6.21733127e+03 5.59400000e+03 2.46941965e+01
v 6.21805049e+03 5.59400000e+03 2.13006011e+01
v 6.21801975e+03 5.59400000e+03 2.05612203e+01
v 6.21831638e+03 5.59400000e+03 1.98842947e+01
v 6.21809140e+03 5.59400000e+03 1.80035665e+01
v 6.21781144e+03 5.59400000e+03 1.66209283e+01
v 6.21851739e+03 5.59400000e+03 1.44811804e+01
v 6.21786103e+03 5.59400000e+03 1.56096659e+01
v 6.21811263e+03 5.59400000e+03 1.85612973e+01
v 6.21709277e+03 5.59400000e+03 2.49148741e+01
v 6.18725000e+03 5.59400000e+03 2.52427257e+01
v 6.21745008e+03 5.59400000e+03 2.45178332e+01
v 6.21843132e+03 5.59400000e+03 2.31461137e+01
v 6.21839259e+03 5.59400000e+03 2.26064438e+01
v 6.21867992e+03 5.59400000e+03 1.09741111e+01
v 6.21881744e+03 5.59400000e+03 1.04653095e+01
v 6.21897341e+03 5.59400000e+03 1.03549684e+01
v 6.21900000e+03 5.59400000e+03 1.03361598e+01
v 6.21837855e+03 5.59400000e+03 2.25431976e+01
v 6.21839081e+03 5.59400000e+03 2.25896348e+01
vt 0.10244764 0.54420185
vt 0.12401674 0.54302937
vt 0.11135971 0.55577493
vt 0.093777433 0.56071359
vt 0.13215461 0.5430907
vt 0.10647423 0.57757252
vt 0.076060496 0.53870696
vt 0.074913166 0.60407174
vt 0.071799405 0.55572867
vt 0.13594694 0.5530147
vt 0.11843985 0.59701729
vt 0.1326101 0.58454835
vt 0.078847334 0.61928767
vt 0.11449585 0.61215562
vt 0.098093487 0.62707907
vt 0.068442918 0.62283891
vt 0.084452026 0.63788319
vt 0.11207851 0.6352191
vt 0.071326539 0.64789629
vt 0.10769135 0.64722693
vt 0.09047471 0.65322304
vt 0.148481 0.67593235
vt 0.071927249 0.66206956
vt 0.14408788 0.65265948
vt 0.097511768 0.66950929
vt 0.14207602 0.62090266
vt 0.17726444 0.62953538
vt 0.10989084 0.71280432
vt 0.073442794 0.68367314
vt 0.16854192 0.66100264
vt 0.07487721 0.72333264
vt 0.13951825 0.71288002
vt 0.1890973 0.65155745
vt 0.19174899 0.68039107
vt 0.10846014 0.72453368
vt 0.18787274 0.70800614
vt 0.076036051 0.73931658
vt 0.21126644 0.72537994
vt 0.16204031 0.73296809
vt 0.21516106 0.65702343
vt 0.21144187 0.69981945
vt 0.093417883 0.75608617
vt 0.21665764 0.71517563
vt 0.22332306 0.68314809
vt 0.17768824 0.75640786
vt 0.21030843 0.76177329
vt 0.16094089 0.77534205
vt 0.21234284 0.74400592
vt 0.20919405 0.7772156
vt 0.097473778 0.77509749
vt 0.1306621 0.78345066
vt 0.068358481 0.77390265
vt 0.073916093 0.74990833
vt 0.23199359 0.78540313
vt 0.084714517 0.85545802
vt 0.23481803 0.77670074
vt 0.21066104 0.85725427
vt 0.050809838 0.8126933
vt 0.259352 0.76984572
vt 0.26136208 0.84094888
vt 0.12819493 0.87587529
vt 0.01911371 0.88541663
vt 0.2665247 0.80083531
vt 0.28069285 0.85698891
vt 0.1245412 0.88744068
vt 0.03175056 0.91724038
vt 0.26578891 0.90118736
vt 0.14894421 0.90807164
vt 0.13172393 0.92499977
vt 0.0071256105 0.93382734
vt 0.049958754 0.9107461
vt 0.27939299 0.89626783
vt 0.21885194 0.93699157
vt 0.18509963 0.87989223
vt 0.054696001 0.9347471
vt 0.0034489853 0.92583281
vt 0.038579766 0.93583876
vt 0.3044126 0.91552615
vt 0.17442331 0.91249537
vt 0.26659867 0.93100679
vt 0.11648931 0.99536771
vt 0.00950485 0.93881953
vt 0.31416094 0.90929925
vt 0.28883812 0.92622799
vt 0.14988641 0.94601768
vt 0.23651126 0.96296132
vt 0.16042906 0.99437475
vt 0.070706204 0.99613637
vt 0.018702177 0.96488404
vt 0.33292389 0.89334393
vt 0.28138283 0.92445737
vt 0.26521465 0.94148344
vt 0.21661098 0.97938353
vt 0.028671449 0.99500179
vt 0.33279237 0.89723331
vt 0.27721694 0.93188184
vt 0.19813742 0.99440444
vt 0.26991838 0.93784779
vt 0.34065884 0.89024484
vt 0.27298421 0.93551528
vt 0.4783276 0.91612548
vt 0.43339962 0.9164803
vt 0.48150223 0.87670434
vt 0.52733499 0.91389084
vt 0.43517882 0.94000274
vt 0.45537674 0.84256476
vt 0.52808756 0.86696702
vt 0.48883295 0.93626738
vt 0.42636982 0.99531835
vt 0.4321835 0.87677938
vt 0.48088291 0.8540954
vt 0.50479782 0.84158337
vt 0.53849411 0.8695212
vt 0.53320837 0.93927175
vt 0.41265473 0.96877497
vt 0.39394122 0.91661334
vt 0.4440867 0.84117407
vt 0.46410906 0.83677977
vt 0.52088851 0.84228563
vt 0.53397936 0.8524006
vt 0.58655447 0.87250423
vt 0.53538883 0.9253335
vt 0.50630176 0.99173993
vt 0.42168698 0.99541348
vt 0.3955934 0.92067981
vt 0.39248681 0.91203654
vt 0.39472178 0.91845739
vt 0.42723313 0.85557872
vt 0.55872858 0.91583782
vt 0.3914389 0.90918601
vt 0.41964331 0.92458153
vt 0.40441725 0.83713245
vt 0.41678563 0.86346966
vt 0.59359425 0.91193068
vt 0.59373653 0.98846811
vt 0.43117878 0.92880726
vt 0.63830608 0.87138623
vt 0.59107339 0.93194962
vt 0.38916707 0.90232962
vt 0.39620075 0.84818727
vt 0.62518936 0.91504771
vt 0.64499605 0.93326426
vt 0.63956159 0.91903108
vt 0.66679811 0.98584837
vt 0.37979507 0.87441003
vt 0.69518363 0.92436236
vt 0.72205287 0.98268557
vt 0.70975214 0.83782858
vt 0.74335307 0.92941159
vt 0.77175993 0.88818485
vt 0.65987235 0.82847077
vt 0.74459785 0.91140032
vt 0.67581224 0.81101042
vt 0.72992927 0.98060507
vt 0.80011714 0.91819155
vt 0.7279287 0.9825632
vt 0.80622154 0.91465318
vt 0.85592955 0.54840624
vt 0.84629411 0.4566974
vt 0.89514583 0.54214716
vt 0.86989379 0.55276674
vt 0.81417716 0.52000904
vt 0.87958133 0.47067142
vt 0.87624669 0.57776594
vt 0.79185653 0.56299812
vt 0.91835839 0.48972654
vt 0.90312767 0.62714589
vt 0.86970741 0.56466174
vt 0.85670638 0.56014264
vt 0.96025461 0.51474249
vt 0.84654254 0.63458681
vt 0.94426429 0.58404553
vt 0.81362534 0.70220566
vt 0.94310486 0.62485462
vt 0.98078781 0.54550278
vt 0.89078414 0.72976553
vt 0.82819432 0.63686407
vt 0.81652415 0.62271225
vt 0.9339627 0.63503391
vt 0.96866602 0.57684082
vt 0.85402018 0.79934794
vt 0.91974437 0.67382222
vt 0.75440574 0.63922274
vt 0.80353212 0.8688398
vt 0.75440562 0.63851207
vt 0.77329642 0.78047037
vt 0.82606494 0.86458284
vt 0.75440586 0.63975906
vt 0.75444216 0.81752545
vt 0.75443065 0.75996411
vt 0.8027392 0.87110227
vt 0.75442028 0.71033466
vt 0.75445926 0.85656196
vt 0.82178617 0.87109858
vt 0.82882613 0.87109703
vt 0.6397453 0.58176506
vt 0.63136995 0.61521041
vt 0.59450614 0.59756726
vt 0.59636933 0.55824435
vt 0.64233112 0.60933173
vt 0.61338961 0.65321636
vt 0.6296342 0.56252515
vt 0.57648832 0.59515297
vt 0.64313221 0.60142851
vt 0.63912207 0.64009982
vt 0.63411218 0.65330446
vt 0.57810646 0.64491278
vt 0.52868754 0.57124007
vt 0.64263451 0.61855245
vt 0.62451065 0.67000687
vt 0.5990392 0.6792475
vt 0.56252539 0.61645305
vt 0.56844205 0.53185689
vt 0.63735652 0.69764763
vt 0.57821906 0.67164087
vt 0.53392285 0.64397752
vt 0.53562915 0.6111387
vt 0.53084785 0.52183443
vt 0.61533952 0.69279599
vt 0.56639248 0.69796658
vt 0.56252319 0.67179775
vt 0.51752901 0.52891529
vt 0.51691693 0.68030465
vt 0.50142974 0.64597714
vt 0.49208888 0.52969253
vt 0.48847458 0.5935666
vt 0.46569842 0.56625509
vt 0.49052471 0.524629
vt 0.48786527 0.69899809
vt 0.49029684 0.6612134
vt 0.47160518 0.62725079
vt 0.45221201 0.54030955
vt 0.47775647 0.52115488
vt 0.47546396 0.67111456
vt 0.43865064 0.6382122
vt 0.41568819 0.57266307
vt 0.46446928 0.52661884
vt 0.44643474 0.60275459
vt 0.42557615 0.52099025
vt 0.44804031 0.53312945
vt 0.44967917 0.67484397
vt 0.40011755 0.52545804
vt 0.42497432 0.69817889
vt 0.40417722 0.64449775
vt 0.40251762 0.60036886
vt 0.38299173 0.56573856
vt 0.42775241 0.67890131
vt 0.38446903 0.53476119
vt 0.40545574 0.67040163
vt 0.38280836 0.61628616
vt 0.35586518 0.53160048
vt 0.38876563 0.69334006
vt 0.3800942 0.66434532
vt 0.36923695 0.65217763
vt 0.35357222 0.59975934
vt 0.34381732 0.57564521
vt 0.38376021 0.70450103
vt 0.34216508 0.53032291
vt 0.37073669 0.69922972
vt 0.36514419 0.67606223
vt 0.34251949 0.628609
vt 0.34992272 0.65082288
vt 0.34785813 0.69680667
vt 0.33596358 0.64406598
vt 0.31647202 0.70044148
vt 0.31527492 0.65981293
vt 0.32484367 0.67881298
vt 0.29858115 0.68343985
vt 0.28291523 0.70125777
vt 0.29230309 0.66262078
vt 0.27733302 0.68941367
vt 0.27374914 0.66611552
vt 0.26429781 0.72062528
vt 0.26390153 0.69629359
vt 0.27247062 0.72155368
vt 0.26222861 0.66994286
vt 0.27500162 0.74428678
vt 0.25388095 0.73207951
vt 0.26209384 0.74530375
vt 0.0069847703 0.80454981
vt 0.031105816 0.78961521
vt 0.030906593 0.79058766
vt 0.020315835 0.81031024
vt 0.003986205 0.79099798
vt 0.031145269 0.78962016
vt 0.016236614 0.82584989
vt 0.029522337 0.78336966
vt 0.0097593758 0.82660294
vt 0.027420955 0.7765367
vt 0.014630255 0.83196926
vt 0.004831994 0.78377855
vt 0.011790704 0.83949637
vt 0.027394872 0.77645195
vt 0.027368914 0.77601194
vt 0.0054797609 0.75666994
vt 0.02472255 0.73115396
vt 0.0069663893 0.72898662
vt 0.024080731 0.72683275
vt 0.0071312813 0.70217675
vt 0.02397055 0.72127706
vt 0.023201428 0.68249494
vt 0.024121284 0.67648065
vt 0.0054692975 0.68204647
vt 0.0039452203 0.65617621
vt 0.024679124 0.67143393
vt 0.024581801 0.63246572
vt 0.024578562 0.6311692
vt 0.003944492 0.64910972
vt 0.0058601224 0.62963045
vt 0.023814166 0.6277051
vt 0.0061616437 0.61164194
vt 0.023644591 0.62337512
vt 0.023512496 0.61507535
vt 0.0063511902 0.57891595
vt 0.022808468 0.57084042
vt 0.022981599 0.56184602
vt 0.0059375549 0.53922021
vt 0.0057772552 0.51949048
vt 0.023041066 0.55765092
vt 0.023522709 0.52367342
vt 0.02519308 0.50232983
vt 0.025262637 0.501441
vt 0.0053768842 0.50880516
vt 0.14909813 0.40338433
vt 0.15107705 0.43473953
vt 0.12106877 0.39930648
vt 0.12449553 0.3754279
vt 0.17474264 0.398799
vt 0.099786274 0.39876485
vt 0.155047 0.35222822
vt 0.20214371 0.40598387
vt 0.17219993 0.382514
vt 0.088078953 0.43440485
vt 0.0577715 0.38275069
vt 0.11902045 0.32408643
vt 0.22398394 0.43741018
vt 0.10955837 0.46445745
vt 0.067926437 0.3978259
vt 0.070670523 0.36434114
vt 0.1027926 0.33634055
vt 0.1487637 0.28507924
vt 0.2082471 0.38646263
vt 0.22744553 0.39949232
vt 0.16391084 0.46462178
vt 0.14622632 0.46366233
vt 0.049876839 0.4611786
vt 0.04450294 0.41258281
vt 0.01944435 0.37064511
vt 0.080184467 0.28922164
vt 0.17023245 0.31447482
vt 0.22793576 0.36563218
vt 0.25738242 0.40844375
vt 0.20327103 0.4629547
vt 0.12654449 0.49379021
vt 0.08960554 0.47046357
vt 0.011922675 0.43406928
vt 0.074323103 0.34477055
vt 0.050740425 0.34317964
vt 0.07159292 0.31095016
vt 0.18378174 0.28988492
vt 0.17168531 0.3377378
vt 0.11088771 0.26059794
vt 0.19366063 0.32563198
vt 0.24058737 0.37892932
vt 0.30264395 0.43514395
vt 0.14962487 0.46827775
vt 0.23078954 0.46537364
vt 0.17957354 0.49404973
vt 0.01237738 0.4608652
vt 0.01643594 0.39234298
vt 0.018328695 0.34411931
vt 0.036605038 0.2951138
vt 0.15108834 0.25321645
vt 0.1287834 0.25022274
vt 0.2146658 0.34420657
vt 0.245566 0.36877644
vt 0.26542434 0.37979722
vt 0.26194176 0.46514308
vt 0.275114 0.40282965
vt 0.16641292 0.47723097
vt 0.22561996 0.48533392
vt 0.25436223 0.46434402
vt 0.0070995204 0.44232833
vt 0.0120656 0.47878015
vt 0.007585207 0.39664704
vt 0.0057913628 0.38702089
vt 0.0063720583 0.34233731
vt 0.053995967 0.24967372
vt 0.21597587 0.31732631
vt 0.17154045 0.26946372
vt 0.11142582 0.2492519
vt 0.28303337 0.46562338
vt 0.30533317 0.40434575
vt 0.0047765058 0.43412763
vt 0.02216096 0.49037617
vt 0.0051210928 0.42448282
vt 0.0057336767 0.36782527
vt 0.0051757083 0.35135716
vt 0.0063668289 0.33162159
vt 0.017723791 0.31954652
vt 0.041476391 0.25185859
vt 0.1860649 0.27963287
vt 0.27804679 0.48957652
vt 0.30524233 0.46396095
vt 0.31262484 0.41183347
vt 0.23123017 0.49453664
vt 0.005391499 0.29421169
vt 0.013212179 0.25265646
vt 0.04987938 0.23955905
vt 0.31090122 0.39207011
vt 0.32235384 0.45012349
vt 0.005128941 0.29577458
vt 0.28351954 0.49641043
vt 0.005146232 0.29428679
vt 0.0051046209 0.29106635
vt 0.0041300962 0.24448025
vt 0.0051366631 0.29417211
vt 0.0057229782 0.24790007
vt 0.0051461607 0.29352641
vt 0.0051406343 0.29404724
vt 0.65117389 0.38952178
vt 0.61964488 0.37426019
vt 0.64700943 0.37541413
vt 0.61523271 0.41177732
vt 0.64069086 0.35366493
vt 0.65862119 0.414711
vt 0.56945854 0.37696087
vt 0.66605121 0.4356637
vt 0.56790191 0.43047583
vt 0.6672098 0.43922669
vt 0.57016546 0.44196922
vt 0.62051541 0.43521255
vt 0.67812794 0.47463948
vt 0.5999614 0.49559247
vt 0.67999244 0.49581116
vt 0.51243252 0.49567217
vt 0.6834622 0.49201423
vt 0.51509494 0.44157743
vt 0.68467587 0.49586684
vt 0.46225661 0.43585348
vt 0.51725525 0.42769945
vt 0.43927485 0.4965471
vt 0.38393307 0.49617475
vt 0.46238342 0.42576444
vt 0.52168643 0.37556583
vt 0.44645953 0.4395833
vt 0.49111733 0.40264219
vt 0.45739189 0.43026221
vt 0.51675248 0.38001907
vt 0.55395055 0.3495549
vt 0.38177803 0.49332654
vt 0.45393798 0.43283385
vt 0.37804902 0.49638247
vt 0.40593109 0.10453707
vt 0.38860536 0.10961831
vt 0.40141284 0.077303171
vt 0.41475022 0.083691001
vt 0.4135592 0.13156241
vt 0.39017549 0.075980961
vt 0.43543005 0.10018957
vt 0.39800462 0.15125591
vt 0.4354957 0.1507206
vt 0.36659956 0.072203934
vt 0.43523431 0.094318867
vt 0.40464643 0.17858499
vt 0.36690292 0.10830134
vt 0.43894821 0.068502963
vt 0.43559095 0.15014648
vt 0.39562398 0.19521743
vt 0.37042242 0.15047723
vt 0.43725243 0.17696124
vt 0.43558851 0.15065801
vt 0.39972034 0.23916852
vt 0.35415992 0.14388686
vt 0.43562427 0.15113783
vt 0.42226017 0.20438027
vt 0.37164769 0.21627182
vt 0.36473742 0.1640088
vt 0.43621883 0.18614447
vt 0.41478679 0.23606992
vt 0.37844941 0.26375693
vt 0.35167497 0.17161053
vt 0.43650472 0.21749192
vt 0.42339391 0.25609291
vt 0.4381642 0.23058295
vt 0.3634361 0.260333
vt 0.41187146 0.27819884
vt 0.35404551 0.21625638
vt 0.34840316 0.18547648
vt 0.4241558 0.2545619
vt 0.42206869 0.26328158
vt 0.43001485 0.24579591
vt 0.3635864 0.27703989
vt 0.36158052 0.22112912
vt 0.4071835 0.28835809
vt 0.32327387 0.28342575
vt 0.32770634 0.23633385
vt 0.42304751 0.28487575
vt 0.37964073 0.29766828
vt 0.29448837 0.25544119
vt 0.36090484 0.29538977
vt 0.39353615 0.30484426
vt 0.26467851 0.28969854
vt 0.35693955 0.32468796
vt 0.38608342 0.32582819
vt 0.27335015 0.3031565
vt 0.26526436 0.26174343
vt 0.3073965 0.34946787
vt 0.25455564 0.24156511
vt 0.3546384 0.34269571
vt 0.36984494 0.34481305
vt 0.35627246 0.3541308
vt 0.32981458 0.37099928
vt 0.34137669 0.37145799
vt 0.30527771 0.36012256
vt 0.76705801 0.32648706
vt 0.77767885 0.30064428
vt 0.78964025 0.31851041
vt 0.78340107 0.35145521
vt 0.7926904 0.28135532
vt 0.80191195 0.36564106
vt 0.75389194 0.35703874
vt 0.79310513 0.26636076
vt 0.82003593 0.29527962
vt 0.83705294 0.34760255
vt 0.78173256 0.37118047
vt 0.78103697 0.37118083
vt 0.81676555 0.26860595
vt 0.81250739 0.37116683
vt 0.79918015 0.37117535
vt 0.78064066 0.37118083
vt 0.80093789 0.25527281
vt 0.83840883 0.27718586
vt 0.87759054 0.33904141
vt 0.84566677 0.37115359
vt 0.80571616 0.37117177
vt 0.76970148 0.37117887
vt 0.81587243 0.23236871
vt 0.86826754 0.28784782
vt 0.84290844 0.25677723
vt 0.87596196 0.32950336
vt 0.86312449 0.37115103
vt 0.75898665 0.37117404
vt 0.85883886 0.24424738
vt 0.82149482 0.22089612
vt 0.9108395 0.28705812
vt 0.87535918 0.19297802
vt 0.83326817 0.21276635
vt 0.91429132 0.26984656
vt 0.89722109 0.23083627
vt 0.84388036 0.19835144
vt 0.82711917 0.20885599
vt 0.92304289 0.25493634
vt 0.89418042 0.19973963
vt 0.86851978 0.17267996
vt 0.89430165 0.17994583
vt 0.93883371 0.21459943
vt 0.84366709 0.17365092
vt 0.92493957 0.19728005
vt 0.87644261 0.14734781
vt 0.95715624 0.2279852
vt 0.9230268 0.17482269
vt 0.95252252 0.20689029
vt 0.89059365 0.15141529
vt 0.85196429 0.14947373
vt 0.94846934 0.24700874
vt 0.91085124 0.16078728
vt 0.93853396 0.18153214
vt 0.89295506 0.12540573
vt 0.86665756 0.13889992
vt 0.93737876 0.27231872
vt 0.97582448 0.24072766
vt 0.98125511 0.22075313
vt 0.94701582 0.18289834
vt 0.9077884 0.14245963
vt 0.88500243 0.10076195
vt 0.95698333 0.27575064
vt 0.96891749 0.26207191
vt 0.96180439 0.20108098
vt 0.87314016 0.11046678
vt 0.36485919 0.76607811
vt 0.36554393 0.7991333
vt 0.36119857 0.78686571
vt 0.35827178 0.75754821
vt 0.37216741 0.78155929
vt 0.35951743 0.79668051
vt 0.37254456 0.75828016
vt 0.37233278 0.79954827
vt 0.35977399 0.79890823
vt 0.37215692 0.7510398
vt 0.37265649 0.80525583
vt 0.35544565 0.80630487
vt 0.36599183 0.74217457
vt 0.35833234 0.82747924
vt 0.37171742 0.74283123
vt 0.37476301 0.82451952
vt 0.34484926 0.81845284
vt 0.37121576 0.7406714
vt 0.37491584 0.84016085
vt 0.36515108 0.86271197
vt 0.37113026 0.74030322
vt 0.37400463 0.86049956
vt 0.34773183 0.82846463
vt 0.34522495 0.86403346
vt 0.37393242 0.86897987
vt 0.34777167 0.88168204
vt 0.37326711 0.88863432
vt 0.34988087 0.88829148
vt 0.37421796 0.8998974
vt 0.363058 0.90424287
vt 0.37411389 0.91113186
vt 0.34683865 0.89196807
vt 0.35393512 0.93519402
vt 0.37304869 0.92918038
vt 0.35458317 0.93626207
vt 0.37300888 0.92985487
vt 0.37300304 0.93010706
vt 0.35467505 0.93670946
vt 0.37282327 0.93786764
vt 0.35401407 0.9372077
vt 0.37287459 0.93825799
vt 0.37602594 0.96222579
vt 0.37640741 0.96528524
vt 0.36607823 0.95744801
vt 0.36259192 0.96661389
vt 0.35391065 0.93729812
vt 0.37717417 0.96938384
vt 0.34764332 0.97264934
vt 0.35330483 0.93789667
vt 0.37690511 0.97914153
vt 0.36474615 0.99531657
vt 0.33629999 0.96329665
vt 0.35248798 0.93821895
vt 0.31569067 0.96439648
vt 0.31990221 0.98527336
vt 0.51595056 0.10031956
vt 0.54445302 0.10903645
vt 0.53743112 0.12448287
vt 0.51209235 0.14927489
vt 0.54042387 0.09622848
vt 0.49476138 0.14985758
vt 0.5278157 0.15460289
vt 0.50784987 0.084080815
vt 0.52729809 0.17092282
vt 0.45620194 0.096007645
vt 0.50829858 0.084080517
vt 0.50157309 0.08408618
vt 0.51881605 0.18450862
vt 0.46102649 0.16097009
vt 0.47129649 0.08409816
vt 0.44195214 0.094542503
vt 0.45697397 0.084103942
vt 0.47068658 0.18708611
vt 0.4419668 0.14620042
vt 0.44938326 0.084107518
vt 0.51035935 0.19665372
vt 0.44913608 0.19827485
vt 0.44197136 0.16060179
vt 0.44194835 0.084109843
vt 0.51232773 0.21718723
vt 0.48502403 0.22396886
vt 0.44198284 0.19467658
vt 0.45929667 0.22409695
vt 0.4419871 0.20301467
vt 0.49701604 0.22880602
vt 0.46582183 0.23652059
vt 0.44583422 0.21595186
vt 0.44198298 0.21363342
vt 0.48258922 0.24314618
vt 0.44199094 0.21586293
vt 0.49362579 0.24079216
vt 0.47340801 0.24511653
vt 0.44199547 0.22422284
vt 0.49251759 0.26019776
vt 0.4601436 0.25017256
vt 0.45094216 0.2408731
vt 0.47129068 0.27485269
vt 0.44200212 0.24583912
vt 0.4778803 0.27949363
vt 0.44954827 0.26216692
vt 0.44200349 0.25421286
vt 0.46158442 0.29119426
vt 0.44200253 0.26210845
vt 0.47464353 0.29721612
vt 0.44958213 0.27861756
vt 0.46047473 0.30889291
vt 0.44200614 0.26885414
vt 0.44497624 0.29979068
vt 0.44200367 0.28876877
vt 0.44201002 0.27737749
vt 0.44200796 0.29355556
vt 0.44200376 0.29066652
vt 0.78416806 0.099764824
vt 0.78672767 0.13567376
vt 0.76500428 0.096178412
vt 0.76905704 0.087610841
vt 0.77473801 0.12822396
vt 0.75319272 0.086832225
vt 0.77989942 0.17254758
vt 0.74016172 0.15118915
vt 0.73958594 0.10412514
vt 0.75977248 0.15414387
vt 0.73865414 0.090606153
vt 0.71567935 0.12397051
vt 0.72071052 0.088820279
vt 0.74644113 0.19177061
vt 0.7138173 0.13603896
vt 0.77438259 0.20079803
vt 0.71227908 0.1935398
vt 0.69728321 0.099045277
vt 0.7756142 0.21479821
vt 0.74028218 0.21492225
vt 0.66615701 0.11313033
vt 0.70385563 0.086720943
vt 0.76518321 0.21800536
vt 0.71398246 0.2159211
vt 0.67659593 0.15322751
vt 0.67336017 0.084805727
vt 0.69152927 0.083192527
vt 0.77649236 0.2451489
vt 0.70558631 0.24461085
vt 0.69767803 0.22231638
vt 0.65341109 0.16866988
vt 0.64977139 0.085866868
vt 0.67110896 0.19372529
vt 0.63255668 0.19600004
vt 0.63073832 0.14171302
vt 0.63227046 0.091840267
vt 0.65723121 0.24362147
vt 0.66991323 0.21861804
vt 0.61421949 0.099023879
vt 0.65524954 0.21644342
vt 0.60079002 0.16376299
vt 0.61582887 0.080269217
vt 0.63035148 0.22007799
vt 0.57309407 0.19332063
vt 0.56915689 0.13768673
vt 0.61373764 0.22027963
vt 0.57238513 0.18906218
vt 0.57284057 0.19603306
vt 0.56839544 0.1392228
vt 0.57628965 0.10779113
vt 0.56737202 0.16755801
vt 0.56821126 0.1377461
vt 0.56850648 0.13730365
vt 0.57300836 0.24404097
vt 0.58550721 0.21455503
vt 0.5722729 0.10851699
vt 0.57293135 0.24356836
vt 0.57079303 0.19664508
vt 0.57253003 0.24308974
vt 0.83294737 0.9880529
vt 0.87939274 0.95065594
vt 0.87773967 0.9931404
vt 0.82301432 0.93593991
vt 0.91629314 0.98631001
vt 0.80143076 0.94914246
vt 0.84474474 0.92271942
vt 0.91723758 0.99116403
vt 0.90745836 0.94358659
vt 0.78658015 0.95820367
vt 0.8727234 0.90438813
vt 0.9187696 0.99616426
vt 0.90644056 0.93631083
vt 0.78995156 0.98290539
vt 0.87466282 0.91742259
vt 0.90376085 0.92320305
vt 0.7530266 0.97970533
vt 0.87273544 0.9043467
vt 0.89923185 0.92160898
vt 0.47330236 0.80413091
vt 0.4979161 0.7844553
vt 0.50690806 0.79036707
vt 0.50837696 0.80566871
vt 0.4758743 0.77954632
vt 0.50601101 0.78490722
vt 0.49427715 0.77082711
vt 0.45120904 0.77452374
vt 0.44719163 0.75589854
vt 0.44133326 0.79432184
vt 0.50477272 0.77944845
vt 0.4938769 0.75094497
vt 0.46482092 0.80786848
vt 0.43508267 0.77183115
vt 0.50302601 0.77045554
vt 0.4963513 0.75639892
vt 0.41330558 0.79183924
vt 0.42450738 0.76263541
vt 0.50008714 0.76299167
vt 0.40504071 0.75675911
vt 0.3789593 0.79102653
vt 0.3906996 0.75855696
vt 0.70915478 0.70615637
vt 0.67986584 0.71315867
vt 0.70403236 0.69233167
vt 0.71259248 0.68248916
vt 0.7005586 0.72890121
vt 0.6582877 0.729303
vt 0.71264386 0.73226404
vt 0.70362794 0.7454406
vt 0.64216924 0.72784966
vt 0.64788574 0.7546066
vt 0.69209391 0.77625346
vt 0.62871659 0.74561387
vt 0.6905787 0.80380982
vt 0.65222168 0.77783781
vt 0.68120092 0.79730898
vt 0.68475968 0.80841732
vt 0.66102582 0.79694778
vt 0.6631034 0.80710965
vt 0.15188627 0.50906122
vt 0.14167176 0.50524467
vt 0.14900109 0.50346839
vt 0.13983826 0.51720554
vt 0.14133479 0.50136608
vt 0.16883333 0.54382837
vt 0.13498403 0.50233072
vt 0.16712379 0.51255995
vt 0.14702913 0.53683096
vt 0.13503757 0.50221384
vt 0.12806676 0.50655365
vt 0.21412043 0.5240528
vt 0.15177681 0.55505335
vt 0.13496725 0.50223929
vt 0.13418444 0.50263596
vt 0.2066558 0.52017379
vt 0.18963625 0.55993664
vt 0.17404231 0.56788301
vt 0.21054664 0.54599643
vt 0.16101903 0.57762933
vt 0.24978292 0.54731202
vt 0.21437362 0.56182146
vt 0.23506775 0.58391798
vt 0.22108471 0.59676677
vt 0.24368286 0.56844962
vt 0.16416907 0.58654964
vt 0.21869086 0.60470986
vt 0.15193877 0.60091829
vt 0.18243495 0.61009675
vt 0.18826282 0.61730969
vt 0.21044508 0.62094575
vt 0.58664709 0.82043922
vt 0.59121311 0.81633478
vt 0.6150164 0.82905972
vt 0.57895845 0.84148228
vt 0.60319746 0.79635358
vt 0.59110337 0.87074864
vt 0.63872671 0.78299606
vt 0.56699216 0.86209089
vt 0.60450536 0.78863615
vt 0.61099851 0.77389783
vt 0.61896795 0.77146482
vt 0.62611771 0.75086677
vt 0.72913182 0.48322171
vt 0.71915561 0.50845587
vt 0.70557624 0.48854882
vt 0.72242278 0.44011968
vt 0.74241352 0.52215409
vt 0.69453156 0.50878334
vt 0.74040526 0.44692641
vt 0.69707328 0.46635258
vt 0.76455063 0.49634832
vt 0.71775252 0.54885226
vt 0.74976373 0.46477503
vt 0.70464104 0.44117188
vt 0.76791966 0.47861451
vt 0.76903147 0.50606519
vt 0.7374934 0.55501318
vt 0.7011385 0.55769444
vt 0.76202708 0.45224595
vt 0.69218856 0.45582938
vt 0.78878856 0.49033237
vt 0.76398343 0.5406118
vt 0.78777111 0.44505179
vt 0.78139311 0.51233196
vt 0.76693833 0.5577392
vt 0.78865713 0.54337287
vt 0.79007077 0.55935454
vt 0.9418214 0.97175974
vt 0.9715957 0.96882421
vt 0.96543199 0.98500484
vt 0.95835131 0.99594051
vt 0.9780913 0.95859897
vt 0.95212388 0.99594492
vt 0.96392387 0.92668349
vt 0.94264764 0.9959448
vt 0.98683417 0.9363271
vt 0.98684394 0.94368339
vt 0.98684484 0.92117375
vt 0.38227943 0.99235189
vt 0.37822527 0.95138443
vt 0.38987339 0.96644902
vt 0.38942289 0.98331916
vt 0.39663967 0.95962191
vt 0.39430046 0.98259717
vt 0.39200997 0.95051885
vt 0.39267531 0.98905087
vt 0.38055322 0.94162446
vt 0.39657611 0.99370468
vt 0.39280522 0.94532931
vt 0.38668883 0.9964388
vt 0.39228469 0.9391312
vt 0.385732 0.923527
vt 0.2939072 0.92637843
vt 0.29782557 0.93799144
vt 0.29413339 0.99646801
vt 0.88391888 0.86965698
vt 0.87383562 0.90147454
vt 0.81738251 0.89498353
vt 0.83421069 0.87301689
vt 0.94280899 0.8943913
vt 0.92217839 0.89884967
vt 0.93848193 0.89087063
vt 0.9464426 0.91670114
vt 0.91105872 0.88649672
vt 0.95888948 0.91149312
vt 0.94425708 0.93311405
vt 0.90936649 0.8987568
vt 0.95200789 0.90241963
vt 0.91541982 0.92892778
vt 0.91304266 0.9163959
vt 0.9603411 0.90777439
vt 0.96564281 0.92042577
vt 0.55335015 0.85968691
vt 0.5680868 0.8160525
vt 0.56700552 0.82720578
vt 0.54021293 0.86044079
vt 0.5686726 0.82006425
vt 0.54732966 0.87109679
vt 0.53445792 0.84945953
vt 0.56922919 0.81825757
vt 0.56972384 0.81768906
vt 0.30997455 0.8059426
vt 0.32683045 0.78915572
vt 0.34055492 0.80121922
vt 0.34035587 0.81978232
vt 0.28479901 0.78730273
vt 0.31103998 0.84053755
vt 0.2854023 0.80315828
vt 0.29516685 0.81914097
vt 0.32725134 0.92555869
vt 0.31695101 0.9332462
vt 0.35309422 0.87878895
vt 0.84764451 0.8398931
vt 0.86631328 0.83105016
vt 0.88448203 0.83969653
vt 0.8514486 0.81218553
vt 0.8753469 0.78965169
vt 0.50715703 0.7925505
vt 0.51963907 0.80465072
vt 0.50902724 0.81365705
vt 0.54361814 0.80406511
vt 0.51466841 0.83529198
vt 0.53300947 0.81032914
vt 0.50454056 0.8359282
vt 0.53411525 0.82289547
vt 0.52340543 0.83974487
vt 0.55115169 0.81439131
vt 0.4041791 0.94875818
vt 0.40764984 0.96717215
vt 0.40298411 0.99587095
vt 0.92749661 0.95034331
vt 0.94280273 0.95672435
vt 0.92654663 0.95185912
vt 0.94123477 0.97577649
vt 0.92694813 0.95679307
vt 0.93117481 0.99363124
vt 0.92850065 0.98069942
vt 0.92734247 0.99143678
vt 0.92801803 0.99516904
vt 0.90997672 0.81561393
vt 0.93317288 0.79597294
vt 0.93574601 0.83194745
vt 0.92182052 0.83447146
vt 0.9406535 0.8218801
vt 0.9306407 0.83906507
vt 0.94258642 0.79711485
vt 0.62884533 0.83461356
vt 0.63452524 0.79842973
vt 0.65679508 0.83886743
vt 0.64155209 0.8005982
vt 0.31698418 0.96402049
vt 0.32518575 0.94219333
vt 0.34277681 0.92433172
vt 0.28644571 0.95197719
vt 0.26981777 0.96337342
vt 0.27354205 0.94028789
vt 0.28601268 0.96470934
vt 0.28134659 0.98071295
vt 0.8336466 0.92122513
vt 0.81673002 0.89437777
vt 0.84678704 0.90577424
vt 0.81863934 0.92465818
vt 0.83275831 0.93286145
vt 0.82101554 0.93107212
vt 0.98846024 0.98217005
vt 0.99294817 0.96058404
vt 0.99111015 0.99602705
vt 0.97720748 0.99513096
vt 0.98191613 0.96147597
vt 0.9724859 0.97040737
vt 0.31046498 0.95469654
vt 0.31888849 0.95715481
vt 0.31454226 0.96421653
vt 0.30238408 0.96190482
vt 0.31535381 0.93554628
vt 0.30073151 0.92972124
vt 0.89670742 0.91047865
vt 0.89113408 0.91793674
vt 0.89016193 0.9087261
vt 0.89522535 0.88214451
vt 0.88298035 0.91778928
vt 0.8789745 0.88899863
vt 0.32151163 0.86186123
vt 0.33804697 0.84870601
vt 0.34389424 0.87099361
vt 0.33696133 0.87099385
vt 0.33543676 0.83772659
vt 0.31723815 0.87100899
vt 0.72373968 0.82516873
vt 0.72199577 0.80730575
vt 0.74475145 0.81652361
vt 0.73368818 0.8382237
vt 0.74097872 0.83992875
vt 0.72561586 0.84063113
vt 0.75243115 0.82902551
vt 0.788629 0.90215266
vt 0.78443825 0.877635
vt 0.7952553 0.8717711
vt 0.79654145 0.89311856
vt 0.81166703 0.88729876
vt 0.79734421 0.90236688
vt 0.24022602 0.97504932
vt 0.25090662 0.95336109
vt 0.25995937 0.95849985
vt 0.25995976 0.9594807
vt 0.25995147 0.94983375
vt 0.24079445 0.97947437
vt 0.25995985 0.95965773
vt 0.23736376 0.97899419
vt 0.25996035 0.96053779
vt 0.25104505 0.98062581
vt 0.98151416 0.88922495
vt 0.9796347 0.90268672
vt 0.96451724 0.90486306
vt 0.95607787 0.89187998
vt 0.97925544 0.91455126
vt 0.96527797 0.91801
vt 0.14714062 0.90452564
vt 0.14494318 0.93271959
vt 0.13861328 0.92327344
vt 0.12885496 0.9049831
vt 0.99553013 0.8894406
vt 0.98870629 0.9025833
vt 0.97354549 0.8745454
vt 0.013287199 0.97989351
vt 0.0062971762 0.97581434
vt 0.015649572 0.95563626
vt 0.0047136266 0.95226109
vt 0.30731675 0.87202758
vt 0.29897204 0.86839288
vt 0.29703289 0.84842944
vt 0.31209582 0.84458202
vt 0.28476766 0.85378051
vt 0.73742819 0.99542773
vt 0.74147439 0.97033781
vt 0.75790143 0.99651283
vt 0.026514105 0.99535257
vt 0.012379078 0.99690723
vt 0.003006042 0.99027944
vt 0.67580193 0.98687482
vt 0.69524699 0.98453069
vt 0.6992411 0.99559683
vt 0.7739898 0.9897837
vt 0.75418967 0.99374563
vt 0.77397472 0.98300946
vt 0.76959169 0.99528283
vt 0.7724641 0.98044938
vt 0.36206785 0.99524355
vt 0.34897399 0.99244732
vt 0.34682435 0.9776715
vt 0.0043349331 0.99595314
vt 0.0041785529 0.99595851
vt 0.0053591151 0.98944688
usemtl Tile_+031_+023_L19_000130_0
f 273/454 262/455 351/456
f 204/516 208/517 295/518
f 195/196 196/197 288/198
f 679/543 203/522 680/537
f 499/911 224/912 500/913
f 352/636 351/637 282/638
f 283/640 352/636 606/643
f 283/640 351/637 352/636
f 352/636 282/638 217/639
f 216/693 271/694 212/695
f 342/705 210/701 270/704
f 349/641 352/636 217/639
f 349/641 227/645 352/636
f 227/645 349/641 228/649
f 343/653 281/657 228/649
f 281/657 350/667 502/668
f 504/962 347/963 505/964
f 277/737 222/742 225/731
f 507/683 344/685 508/687
f 339/676 346/680 507/683
f 221/679 345/677 218/674
f 230/666 337/663 338/661
f 505/964 223/965 514/966
f 184/519 177/521 681/526
f 295/518 184/519 204/516
f 2/225 209/237 133/233
f 280/916 226/914 499/911
f 219/710 340/719 341/714
f 349/641 211/648 228/649
f 341/714 342/705 219/710
f 338/661 341/665 285/669
f 342/660 341/665 338/661
f 342/705 214/703 210/701
f 212/695 266/700 210/701
f 221/679 348/682 345/677
f 220/684 226/686 348/682
f 345/677 348/682 346/680
f 226/686 280/688 348/682
f 348/682 344/685 346/680
f 224/912 223/921 347/918
f 346/680 286/675 345/677
f 286/675 285/669 345/677
f 338/661 337/663 281/657
f 285/669 230/666 338/661
f 271/694 213/697 212/695
f 230/666 339/676 512/673
f 502/1074 337/1075 519/1076
f 348/682 280/688 520/691
f 341/665 340/671 285/669
f 286/1068 229/1069 285/1070
f 285/669 229/672 230/666
f 270/704 219/710 342/705
f 343/653 211/648 214/656
f 218/674 285/669 340/671
f 211/648 349/641 215/644
f 338/661 343/653 342/660
f 210/701 211/698 212/695
f 287/713 221/724 218/718
f 224/912 225/917 222/920
f 83/227 2/225 197/208
f 204/199 197/208 208/213
f 336/520 111/528 117/524
f 117/524 295/518 336/520
f 117/524 143/525 295/518
f 208/517 336/520 295/518
f 207/523 336/520 208/517
f 336/520 207/523 111/528
f 1/538 133/545 112/540
f 296/158 251/159 334/160
f 309/493 202/481 310/495
f 256/477 194/473 202/481
f 230/666 229/672 286/675
f 318/1049 319/1050 316/1051
f 522/740 231/747 523/750
f 330/486 253/497 260/494
f 233/165 333/169 332/164
f 315/1008 321/1009 320/1010
f 609/811 3/812 610/813
f 324/496 335/500 330/486
f 322/1002 331/1003 327/1004
f 255/730 192/722 233/729
f 256/477 257/478 263/470
f 266/700 270/704 210/701
f 278/226 198/224 275/231
f 247/207 293/216 292/212
f 196/197 199/205 246/206
f 198/224 290/235 275/231
f 189/890 246/891 684/892
f 235/221 293/216 247/207
f 269/709 274/707 266/700
f 326/996 296/997 323/998
f 525/189 294/184 527/193
f 240/173 329/186 524/190
f 232/738 259/726 248/735
f 185/712 186/715 251/720
f 316/990 314/991 317/992
f 240/173 239/181 294/184
f 686/924 294/925 687/926
f 329/186 240/173 294/184
f 317/171 314/178 233/165
f 240/173 317/171 243/167
f 243/167 332/164 334/160
f 296/1007 328/1006 322/1002
f 613/491 194/473 614/484
f 250/162 251/159 296/158
f 296/997 326/996 333/1000
f 260/494 256/477 330/486
f 614/484 258/480 615/490
f 328/161 296/158 334/160
f 335/166 334/160 253/163
f 3/487 310/495 202/481
f 194/473 3/487 202/481
f 331/1003 322/1002 328/1006
f 308/501 303/504 324/496
f 306/817 3/812 616/821
f 335/500 253/497 330/486
f 251/159 253/163 334/160
f 243/167 317/171 332/164
f 317/171 233/165 332/164
f 325/168 332/164 333/169
f 332/164 325/168 328/161
f 334/160 332/164 328/161
f 323/998 327/999 326/996
f 296/1007 322/1002 323/1005
f 333/1000 326/996 325/1001
f 330/486 309/493 324/496
f 327/1004 323/1005 322/1002
f 320/1010 321/1009 319/1012
f 314/1011 315/1008 320/1010
f 316/990 319/994 315/993
f 319/994 321/995 315/993
f 330/486 256/477 202/481
f 316/990 315/993 314/991
f 318/177 317/171 240/173
f 240/173 314/178 318/177
f 317/1052 318/1049 316/1051
f 318/1013 320/1010 319/1012
f 318/1013 314/1011 320/1010
f 310/495 307/499 309/493
f 303/504 308/501 307/499
f 324/496 309/493 308/501
f 309/493 307/499 308/501
f 617/815 306/817 620/820
f 307/499 310/495 312/502
f 312/502 313/505 307/499
f 304/514 299/513 300/512
f 307/499 313/505 303/504
f 303/504 302/510 301/508
f 301/508 324/496 303/504
f 313/823 311/816 298/828
f 297/830 305/836 300/838
f 313/823 312/819 311/816
f 311/816 312/819 310/814
f 311/816 310/814 609/811
f 301/508 302/510 300/512
f 299/513 301/508 300/512
f 297/511 300/512 302/510
f 305/836 304/839 300/838
f 298/828 297/830 313/823
f 297/511 302/510 303/504
f 690/191 189/187 691/194
f 296/158 333/169 233/165
f 112/540 111/528 1/538
f 83/227 278/226 275/231
f 143/525 177/521 295/518
f 190/210 189/214 245/219
f 246/891 199/898 696/896
f 293/216 291/217 292/212
f 292/212 279/203 247/207
f 197/208 291/217 293/216
f 279/203 288/198 247/207
f 205/201 247/207 288/198
f 196/197 205/201 288/198
f 236/234 290/235 198/224
f 237/229 238/230 234/223
f 289/725 259/726 187/717
f 269/709 289/725 187/717
f 270/904 274/905 269/906
f 259/726 232/738 522/740
f 284/727 259/726 276/733
f 199/205 196/197 700/200
f 289/725 192/722 255/730
f 276/733 259/726 530/736
f 532/741 276/733 533/743
f 197/208 204/199 279/203
f 222/742 277/737 497/745
f 197/208 278/226 83/227
f 279/203 204/199 288/198
f 269/709 187/717 270/704
f 197/208 292/212 291/217
f 187/717 188/723 287/713
f 287/713 188/723 284/727
f 225/731 287/713 284/727
f 270/704 287/713 219/710
f 337/663 350/667 281/657
f 284/727 276/733 225/731
f 276/733 277/737 225/731
f 349/641 217/639 215/644
f 265/699 268/702 213/697
f 212/695 213/697 266/700
f 282/459 351/456 262/455
f 216/463 282/459 262/455
f 271/466 216/463 262/455
f 201/461 261/458 193/465
f 270/704 266/700 274/707
f 272/462 273/454 622/460
f 263/470 201/461 200/469
f 624/471 272/462 625/475
f 263/470 265/474 271/466
f 271/694 265/699 213/697
f 271/466 262/455 201/461
f 267/706 266/700 265/699
f 266/700 268/702 265/699
f 213/697 268/702 266/700
f 185/712 191/716 269/709
f 266/700 267/706 269/709
f 257/478 264/482 265/474
f 265/474 263/470 257/478
f 252/489 264/482 257/478
f 261/458 201/461 262/455
f 201/461 263/470 271/466
f 261/458 272/462 193/465
f 194/473 200/469 193/465
f 252/711 186/715 267/706
f 186/715 185/712 267/706
f 265/699 264/708 267/706
f 289/725 269/709 192/722
f 259/726 254/732 248/735
f 254/732 259/726 289/725
f 249/476 193/465 624/471
f 185/712 269/709 267/706
f 251/488 252/489 257/478
f 256/477 260/494 251/488
f 254/732 289/725 255/730
f 250/721 191/716 185/712
f 233/729 254/732 255/730
f 192/722 250/721 233/729
f 251/720 186/715 252/711
f 194/473 256/477 200/469
f 251/720 250/721 185/712
f 612/485 249/476 628/483
f 194/473 249/476 258/480
f 233/165 250/162 296/158
f 237/229 236/234 238/230
f 243/167 357/182 237/176
f 233/165 314/178 536/183
f 536/183 240/173 538/188
f 240/173 243/167 237/176
f 240/173 237/176 239/181
f 239/181 189/187 294/184
f 198/224 238/230 236/234
f 239/220 237/229 234/223
f 293/216 235/221 234/223
f 237/229 244/241 236/234
f 241/215 239/220 235/221
f 241/215 247/207 242/211
f 205/201 190/210 242/211
f 190/210 205/201 246/206
f 245/219 242/211 190/210
f 189/214 239/220 245/219
f 239/220 242/211 245/219
f 232/738 233/729 537/746
f 133/233 1/228 2/225
f 282/638 216/642 217/639
f 343/653 228/649 211/648
f 345/677 285/669 218/674
f 211/698 215/696 212/695
f 352/636 227/645 603/650
f 501/651 228/649 540/654
f 195/196 288/198 204/199
f 204/199 203/202 195/196
f 228/649 281/657 506/662
f 224/912 226/914 225/917
f 514/966 222/967 515/968
f 348/682 221/679 220/684
f 220/728 287/713 225/731
f 184/519 203/522 204/516
f 212/695 215/696 216/693
f 218/718 340/719 219/710
f 221/724 287/713 220/728
f 216/642 215/644 217/639
f 83/227 136/232 2/225
f 281/657 343/653 338/661
f 286/675 346/680 339/676
f 337/663 230/666 518/670
f 286/675 339/676 230/666
f 513/689 348/682 521/692
f 214/656 342/660 343/653
f 219/710 287/713 218/718
f 214/703 211/698 210/701
f 209/237 2/225 136/232
f 226/734 220/728 225/731
f 206/222 207/218 197/208
f 208/213 197/208 207/218
f 207/523 206/532 111/528
f 111/528 206/532 1/538
f 2/225 1/228 206/222
f 251/488 260/494 253/497
f 252/711 267/706 264/708
f 293/216 234/223 198/224
f 261/458 273/454 272/462
f 313/505 297/511 303/504
f 187/717 287/713 270/704
f 238/230 198/224 234/223
f 233/729 232/738 248/735
f 327/999 325/1001 326/996
f 257/478 256/477 251/488
f 249/476 194/473 193/465
f 309/493 330/486 202/481
f 327/1056 331/1057 325/1058
f 325/1058 331/1057 328/1059
f 283/457 273/454 351/456
f 223/921 224/912 222/920
f 293/216 198/224 197/208
f 700/200 195/196 705/204
f 278/226 197/208 198/224
f 246/206 205/201 196/197
f 247/207 205/201 242/211
f 269/709 191/716 192/722
f 188/723 187/717 259/726
f 233/729 248/735 254/732
f 284/727 188/723 259/726
f 279/203 292/212 197/208
f 262/455 273/454 261/458
f 622/460 283/457 629/464
f 193/465 200/469 201/461
f 200/469 256/477 263/470
f 250/721 192/722 191/716
f 239/220 234/223 235/221
f 241/215 235/221 247/207
f 529/751 232/738 539/749
f 241/215 242/211 239/220
f 190/210 246/206 189/214
f 203/522 184/519 682/527
f 177/521 184/519 295/518
f 2/225 206/222 197/208
f 29/324 28/325 52/326
f 54/377 53/410 71/393
f 20/255 25/254 19/261
f 120/771 144/772 706/773
f 168/777 167/775 140/779
f 168/777 140/779 708/782
f 712/529 143/525 713/535
f 115/780 118/783 135/787
f 69/359 40/358 70/372
f 172/407 70/372 85/400
f 175/944 35/945 36/946
f 112/540 125/544 142/533
f 150/854 174/855 147/856
f 120/534 143/525 117/524
f 112/540 132/548 137/551
f 139/933 138/934 110/935
f 171/401 170/408 140/409
f 102/1 130/2 145/3
f 110/1071 134/1072 119/1073
f 714/776 168/777 715/781
f 143/525 120/534 707/542
f 170/408 172/407 717/415
f 170/408 171/401 70/372
f 168/777 144/772 167/775
f 116/778 167/775 120/771
f 708/416 170/408 718/418
f 116/778 140/779 167/775
f 140/779 114/784 166/788
f 139/933 140/937 138/934
f 137/1053 136/1054 169/1055
f 125/544 112/540 124/547
f 164/564 162/560 157/569
f 145/3 161/4 102/1
f 159/565 162/560 169/558
f 137/551 169/558 160/555
f 154/570 31/580 158/576
f 148/567 163/562 152/556
f 162/560 154/570 158/576
f 158/576 157/569 162/560
f 162/560 159/565 154/570
f 161/4 145/3 37/6
f 124/547 137/551 160/555
f 157/870 155/864 151/860
f 30/256 31/251 153/246
f 104/559 129/554 152/556
f 148/857 151/860 150/854
f 108/566 105/578 134/577
f 110/571 108/566 134/577
f 147/856 149/861 148/857
f 145/3 130/2 146/5
f 124/547 152/556 129/554
f 37/6 98/8 161/4
f 150/854 147/856 148/857
f 107/572 108/566 113/561
f 151/575 148/567 164/564
f 146/871 163/865 149/861
f 157/870 158/874 155/864
f 125/544 121/539 142/533
f 122/549 135/546 125/544
f 102/579 103/563 130/574
f 126/557 129/554 104/559
f 70/372 128/388 127/349
f 123/550 126/557 109/553
f 109/553 126/557 113/561
f 124/547 129/554 123/550
f 123/550 129/554 126/557
f 125/544 123/550 122/549
f 118/541 121/539 135/546
f 117/524 121/539 118/541
f 120/771 118/783 115/780
f 127/349 119/362 106/341
f 118/541 120/534 117/524
f 121/539 125/544 135/546
f 121/539 117/524 142/533
f 171/401 140/409 128/388
f 128/959 141/960 127/961
f 111/528 112/540 142/533
f 117/524 111/528 142/533
f 139/933 110/935 119/936
f 135/546 122/549 109/553
f 113/561 103/563 101/573
f 132/548 112/540 133/545
f 209/552 132/548 133/545
f 123/550 125/544 124/547
f 101/573 107/572 113/561
f 108/566 110/571 109/553
f 105/374 107/373 106/341
f 103/563 126/557 104/559
f 103/563 102/579 101/573
f 96/363 98/389 97/375
f 82/272 8/268 63/271
f 72/334 73/347 39/348
f 74/332 41/328 29/324
f 50/379 54/377 71/393
f 66/27 67/24 36/26
f 96/363 382/361 176/350
f 30/872 18/875 38/867
f 36/946 35/945 34/948
f 386/17 27/21 26/19
f 55/25 54/29 181/23
f 15/46 11/49 43/45
f 17/266 10/267 8/268
f 13/275 15/273 14/269
f 11/49 471/54 12/51
f 10/267 9/265 8/268
f 63/271 14/269 15/273
f 9/265 14/269 8/268
f 11/278 15/273 62/277
f 51/327 61/330 29/324
f 47/249 24/253 33/244
f 27/21 56/20 55/25
f 435/101 46/102 45/103
f 375/842 369/843 368/844
f 6/39 43/45 7/42
f 376/793 4/794 5/795
f 77/797 78/800 65/798
f 372/802 80/801 78/800
f 324/496 472/503 335/500
f 65/798 4/794 77/797
f 411/55 444/75 474/71
f 445/81 448/88 444/75
f 366/367 375/381 413/353
f 46/102 436/131 727/127
f 57/380 89/344 58/368
f 89/344 57/380 421/366
f 391/38 16/48 15/46
f 368/844 369/843 406/846
f 406/846 408/850 405/848
f 376/793 5/795 393/796
f 632/84 458/72 633/78
f 457/1020 458/1021 466/1022
f 461/837 304/839 305/836
f 465/834 461/837 305/836
f 465/809 373/806 460/807
f 462/515 301/508 299/513
f 299/840 304/839 461/837
f 78/506 324/496 301/508
f 459/65 451/69 411/55
f 453/57 452/79 454/74
f 453/57 475/61 411/55
f 80/60 453/57 471/54
f 451/69 444/75 411/55
f 43/45 6/39 391/38
f 14/949 179/950 13/951
f 12/51 419/47 11/49
f 453/57 411/55 12/51
f 471/54 453/57 12/51
f 5/958 470/956 393/952
f 473/954 393/952 470/956
f 80/60 471/54 4/63
f 473/954 470/956 422/957
f 11/1043 417/1044 422/1045
f 376/793 472/799 77/797
f 422/957 418/953 473/954
f 470/56 471/54 11/49
f 422/1045 470/1046 11/1043
f 391/38 15/46 43/45
f 335/166 393/170 334/160
f 78/506 472/503 324/496
f 78/800 77/797 472/799
f 374/803 78/800 301/805
f 472/503 376/507 335/500
f 4/794 376/793 77/797
f 4/63 471/54 5/59
f 81/804 80/801 372/802
f 80/801 65/798 78/800
f 78/800 374/803 372/802
f 81/831 87/832 464/829
f 468/67 453/57 81/64
f 453/57 80/60 81/64
f 81/64 458/72 468/67
f 87/832 81/831 372/835
f 4/794 65/798 80/801
f 453/57 468/67 449/73
f 633/78 81/64 634/83
f 469/822 463/827 311/816
f 634/83 469/90 635/95
f 469/822 81/831 464/829
f 450/971 468/972 467/973
f 7/42 43/45 419/47
f 461/837 462/841 299/840
f 305/836 297/830 465/834
f 76/1023 457/1020 466/1022
f 75/1024 76/1023 466/1022
f 466/1022 450/1026 75/1024
f 373/833 465/834 297/830
f 87/832 373/833 463/827
f 469/822 464/829 463/827
f 298/828 463/827 373/833
f 372/835 373/833 87/832
f 301/805 460/807 374/803
f 461/810 465/809 460/807
f 460/807 462/808 461/810
f 301/805 462/808 460/807
f 455/68 459/65 453/57
f 468/972 458/977 457/975
f 449/73 447/87 456/85
f 467/973 468/972 457/975
f 450/80 449/73 468/67
f 76/976 75/974 467/973
f 455/68 452/79 456/85
f 456/85 452/79 449/73
f 452/79 453/57 449/73
f 455/68 454/74 452/79
f 459/65 475/61 453/57
f 459/907 455/908 456/909
f 451/910 459/907 456/909
f 75/974 450/971 467/973
f 445/752 446/753 448/754
f 447/87 445/81 451/69
f 639/755 445/752 640/757
f 445/752 447/765 638/761
f 445/81 444/75 451/69
f 76/1023 467/1025 457/1020
f 637/97 449/73 641/93
f 642/86 450/80 644/92
f 430/129 439/123 434/114
f 442/142 441/143 405/137
f 723/421 404/422 729/423
f 438/135 431/138 442/142
f 431/138 432/141 442/142
f 431/138 429/134 432/141
f 438/436 443/438 371/431
f 439/434 438/436 371/431
f 93/105 435/101 99/109
f 439/434 371/431 100/432
f 99/109 437/108 439/123
f 725/433 100/432 730/430
f 727/127 93/105 731/125
f 99/435 439/434 100/432
f 439/123 430/129 438/135
f 438/135 430/129 431/138
f 439/123 437/108 434/114
f 436/131 46/102 92/136
f 435/101 437/108 99/109
f 732/115 99/109 733/124
f 428/104 435/101 45/103
f 428/104 434/114 437/108
f 93/1079 92/1080 46/1081
f 436/131 92/136 93/105
f 736/130 425/110 737/126
f 730/430 370/424 738/428
f 437/108 435/101 428/104
f 434/114 433/122 430/129
f 428/104 433/122 434/114
f 428/104 430/129 433/122
f 430/129 428/104 368/121
f 405/137 432/141 429/134
f 442/142 432/141 441/143
f 441/143 432/141 405/137
f 431/138 430/129 429/134
f 368/121 405/137 429/134
f 429/134 430/129 368/121
f 363/337 361/333 28/325
f 734/139 427/133 736/130
f 426/128 427/133 59/132
f 425/110 46/102 728/116
f 423/107 428/104 45/103
f 57/119 58/120 423/107
f 364/978 420/979 45/980
f 428/104 424/113 368/121
f 423/107 424/113 428/104
f 58/120 424/113 423/107
f 408/850 409/851 405/848
f 399/365 408/378 90/336
f 413/845 368/844 424/847
f 89/344 413/353 58/368
f 420/979 421/981 45/980
f 413/845 424/847 58/849
f 413/353 90/336 366/367
f 57/119 423/107 421/112
f 421/112 423/107 45/103
f 364/111 45/103 416/106
f 426/128 59/132 415/117
f 427/133 426/128 425/110
f 415/117 425/110 426/128
f 425/110 416/106 46/102
f 416/106 45/103 46/102
f 43/45 11/49 419/47
f 414/1014 79/1015 735/1016
f 422/1045 62/1047 418/1048
f 418/953 62/955 13/951
f 82/43 391/38 392/36
f 13/951 179/950 418/953
f 422/1045 417/1044 62/1047
f 59/346 414/395 740/384
f 94/35 6/39 7/42
f 420/345 28/325 89/344
f 89/344 421/366 420/345
f 12/51 44/50 419/47
f 62/277 417/279 11/278
f 44/50 7/42 419/47
f 399/365 400/411 407/404
f 408/378 406/382 90/336
f 375/381 366/367 406/382
f 90/336 413/353 89/344
f 28/325 90/336 89/344
f 90/336 406/382 366/367
f 183/22 55/25 56/20
f 363/118 364/111 416/106
f 363/118 416/106 415/117
f 59/346 361/333 363/337
f 420/345 363/337 28/325
f 361/333 91/329 28/325
f 72/334 365/338 73/347
f 59/346 60/356 361/333
f 60/356 59/346 741/369
f 427/133 79/140 59/132
f 420/345 364/354 363/337
f 79/1015 414/1014 59/1018
f 402/150 403/152 355/146
f 408/378 399/365 410/392
f 12/51 411/55 400/52
f 400/52 44/50 12/51
f 407/404 410/392 399/365
f 408/378 410/392 409/403
f 368/844 406/846 405/848
f 407/404 412/413 409/403
f 407/404 409/403 410/392
f 355/146 405/137 401/148
f 407/151 400/153 401/148
f 405/137 407/151 401/148
f 7/42 44/50 400/52
f 411/55 401/58 400/52
f 402/62 401/58 411/55
f 362/405 71/393 53/410
f 94/35 53/31 389/28
f 90/336 49/352 399/365
f 399/53 7/42 400/52
f 30/872 173/862 156/866
f 362/405 399/365 71/393
f 50/379 399/365 49/352
f 53/31 94/35 362/37
f 54/377 50/379 49/352
f 90/336 42/331 398/343
f 42/331 385/342 398/343
f 49/352 397/364 54/377
f 41/328 42/331 28/325
f 52/326 51/327 29/324
f 51/327 72/334 383/339
f 51/327 52/326 91/329
f 42/331 41/328 74/332
f 61/330 74/332 29/324
f 183/22 67/24 66/27
f 385/342 42/331 74/332
f 181/376 54/377 397/364
f 398/343 385/342 397/364
f 26/351 397/364 385/342
f 397/364 49/352 398/343
f 398/343 49/352 90/336
f 22/30 23/33 360/34
f 68/873 23/876 66/868
f 396/259 378/260 24/253
f 25/254 24/253 378/260
f 361/333 73/347 365/338
f 86/371 85/400 70/372
f 722/386 367/370 743/385
f 72/334 91/329 365/338
f 91/329 361/333 365/338
f 42/331 90/336 28/325
f 60/356 73/347 361/333
f 396/174 394/179 243/167
f 9/265 88/263 396/259
f 396/259 48/252 394/257
f 24/253 48/252 396/259
f 48/252 357/243 394/257
f 47/249 380/247 357/243
f 357/243 48/252 47/249
f 243/167 395/172 396/174
f 395/172 9/180 396/174
f 10/267 17/266 88/263
f 473/954 179/950 393/952
f 393/170 243/167 334/160
f 243/167 393/170 395/172
f 179/950 14/949 393/952
f 393/170 14/175 395/172
f 14/175 9/180 395/172
f 63/271 16/274 391/276
f 82/272 390/270 8/268
f 390/270 17/266 8/268
f 392/36 182/32 183/22
f 88/263 9/265 10/267
f 388/262 88/263 17/266
f 388/262 17/266 377/264
f 94/35 389/28 182/32
f 6/39 94/35 182/32
f 360/34 390/41 392/36
f 391/38 6/39 182/32
f 392/36 391/38 182/32
f 55/25 183/22 389/28
f 389/28 53/31 55/25
f 183/22 360/34 392/36
f 183/22 182/32 389/28
f 388/262 25/254 378/260
f 357/182 243/167 394/179
f 17/44 390/41 360/34
f 360/34 23/33 377/40
f 68/873 18/875 19/877
f 23/33 22/30 66/27
f 377/264 19/261 388/262
f 25/254 20/255 21/250
f 33/244 25/254 21/250
f 25/254 388/262 19/261
f 22/30 183/22 66/27
f 183/22 22/30 360/34
f 173/862 64/858 150/854
f 19/877 18/875 30/872
f 30/256 20/255 19/261
f 38/867 64/858 173/862
f 21/250 32/245 33/244
f 156/866 173/862 150/854
f 37/6 358/11 98/8
f 176/350 106/341 131/360
f 178/335 127/349 106/341
f 119/362 134/391 105/374
f 176/350 61/330 106/341
f 61/330 178/335 106/341
f 84/236 32/245 153/246
f 290/235 33/244 32/245
f 147/856 174/855 34/859
f 151/860 155/864 150/854
f 387/863 174/855 64/858
f 180/13 98/8 358/11
f 382/361 61/330 176/350
f 178/335 95/340 127/349
f 95/340 69/359 127/349
f 69/359 379/357 40/358
f 746/399 86/371 747/387
f 86/371 70/372 40/358
f 744/412 85/400 746/399
f 137/551 132/548 209/552
f 178/335 61/330 51/327
f 131/360 101/390 165/402
f 181/23 26/19 27/21
f 96/363 97/375 26/351
f 180/13 97/16 98/8
f 26/351 61/330 96/363
f 61/982 382/983 96/984
f 397/364 26/351 181/376
f 27/21 55/25 181/23
f 26/19 97/16 386/17
f 26/351 385/342 61/330
f 35/945 384/947 34/948
f 95/340 51/327 383/339
f 39/348 383/339 72/334
f 384/947 35/945 175/944
f 358/11 34/12 384/14
f 175/18 359/15 384/14
f 56/20 386/17 175/18
f 359/15 175/18 386/17
f 27/21 386/17 56/20
f 175/18 36/26 67/24
f 174/855 387/863 34/859
f 175/18 183/22 56/20
f 387/863 66/868 36/869
f 83/227 275/231 381/238
f 64/858 66/868 387/863
f 387/863 36/869 34/859
f 379/357 95/340 383/339
f 69/359 95/340 379/357
f 747/387 39/348 748/398
f 39/348 86/371 40/358
f 383/339 39/348 40/358
f 381/238 290/235 84/236
f 290/235 381/238 275/231
f 152/556 160/555 162/560
f 127/938 141/940 139/933
f 33/244 380/247 47/249
f 357/243 380/247 244/241
f 244/241 290/235 236/234
f 33/244 290/235 244/241
f 244/241 380/247 33/244
f 37/6 34/12 358/11
f 64/858 174/855 150/854
f 126/557 103/563 113/561
f 102/1 161/4 101/7
f 164/564 148/567 152/556
f 30/256 158/258 31/251
f 135/787 114/784 115/780
f 153/246 20/255 30/256
f 391/276 82/272 63/271
f 159/242 169/239 84/236
f 109/791 138/790 135/787
f 146/5 149/10 37/6
f 70/372 172/407 170/408
f 144/772 120/771 167/775
f 70/372 171/401 128/388
f 139/933 128/939 140/937
f 166/788 114/784 135/787
f 154/248 153/246 31/251
f 162/560 164/564 152/556
f 137/551 124/547 112/540
f 151/575 164/564 157/569
f 160/555 152/556 124/547
f 162/560 160/555 169/558
f 153/246 154/248 159/242
f 163/562 146/568 104/559
f 34/12 37/6 149/10
f 136/232 84/236 169/239
f 159/242 84/236 153/246
f 109/791 110/792 138/790
f 131/360 165/402 98/389
f 37/6 145/3 146/5
f 163/865 148/857 149/861
f 152/556 163/562 104/559
f 83/227 84/236 136/232
f 158/874 30/872 156/866
f 156/866 155/864 158/874
f 131/360 107/373 101/390
f 119/936 127/938 139/933
f 114/784 140/779 116/778
f 116/778 115/780 114/784
f 115/780 116/778 120/771
f 138/790 166/788 135/787
f 139/933 141/940 128/939
f 166/788 138/790 140/779
f 105/578 108/566 107/572
f 107/373 131/360 106/341
f 146/568 130/574 103/563
f 136/232 137/240 209/237
f 104/559 146/568 103/563
f 109/553 113/561 108/566
f 106/341 119/362 105/374
f 161/4 165/9 101/7
f 64/858 38/867 68/873
f 19/877 377/878 68/873
f 96/363 176/350 131/360
f 377/40 17/44 360/34
f 147/856 34/859 149/861
f 21/250 20/255 153/246
f 88/263 388/262 378/260
f 376/507 393/509 335/500
f 15/273 16/274 63/271
f 87/832 463/827 464/829
f 453/57 454/74 455/68
f 451/69 456/85 447/87
f 631/96 466/91 632/84
f 355/146 442/142 405/137
f 369/406 375/381 406/382
f 15/273 13/275 62/277
f 401/148 402/150 355/146
f 311/816 463/827 298/828
f 469/822 311/816 621/818
f 372/802 374/803 373/806
f 459/65 411/55 475/61
f 470/56 5/59 471/54
f 374/803 460/807 373/806
f 297/830 298/828 373/833
f 370/424 100/432 371/431
f 435/101 93/105 46/102
f 425/110 415/117 416/106
f 413/845 375/842 368/844
f 418/953 179/950 473/954
f 367/370 73/347 60/356
f 33/244 24/253 25/254
f 363/337 415/355 59/346
f 91/329 72/334 51/327
f 412/852 405/848 409/851
f 399/365 50/379 71/393
f 407/853 405/848 412/852
f 399/1065 362/1066 7/1067
f 28/325 29/324 41/328
f 91/329 52/326 28/325
f 47/249 48/252 24/253
f 175/18 67/24 183/22
f 367/370 39/348 73/347
f 743/385 60/356 750/396
f 396/259 88/263 378/260
f 94/35 7/42 362/37
f 14/269 63/271 8/268
f 54/29 55/25 53/31
f 390/41 82/43 392/36
f 153/246 32/245 21/250
f 66/868 64/858 68/873
f 377/878 23/876 68/873
f 38/867 18/875 68/873
f 131/360 98/389 96/363
f 97/16 180/13 386/17
f 38/867 173/862 30/872
f 165/9 161/4 98/8
f 150/854 155/864 156/866
f 109/553 122/549 123/550
f 358/11 384/14 359/15
f 180/13 358/11 359/15
f 95/340 178/335 51/327
f 127/349 69/359 70/372
f 180/13 359/15 386/17
f 74/332 61/330 385/342
f 383/339 40/358 379/357
f 84/236 290/235 32/245
f 84/236 83/227 381/238
f 244/241 237/229 357/243
f 496/581 478/582 544/583
f 755/587 545/584 772/590
f 489/149 402/150 356/147
f 550/154 402/150 551/155
f 554/280 491/281 647/282
f 549/446 356/443 556/451
f 354/1060 353/1061 490/1062
f 402/62 411/55 494/66
f 484/441 483/427 371/431
f 404/879 482/880 486/881
f 404/879 486/881 756/882
f 402/62 494/66 557/70
f 474/71 494/66 411/55
f 354/1027 494/1028 474/1029
f 557/70 490/77 559/82
f 444/1064 490/1062 353/1061
f 490/1062 494/1063 354/1060
f 444/1031 353/1032 495/1030
f 495/1030 353/1032 354/1027
f 446/753 492/766 493/770
f 495/1030 474/1029 444/1031
f 492/766 446/753 648/762
f 493/1033 492/1034 650/1035
f 651/1041 561/1038 667/1039
f 490/77 448/88 567/94
f 444/75 448/88 490/77
f 448/754 446/753 569/756
f 573/291 572/295 673/294
f 577/311 565/314 672/313
f 578/288 554/280 665/286
f 487/144 355/146 356/147
f 487/442 356/443 488/440
f 489/149 403/152 402/150
f 403/152 489/149 355/146
f 356/147 355/146 489/149
f 488/440 443/438 438/436
f 371/431 443/438 484/441
f 440/941 371/942 483/943
f 371/431 440/429 370/424
f 483/427 370/424 440/429
f 484/441 443/438 488/440
f 438/436 487/442 488/440
f 355/146 487/144 442/142
f 487/144 438/135 442/142
f 404/879 480/883 482/880
f 582/445 484/441 583/449
f 370/424 483/427 404/422
f 482/628 481/625 486/631
f 404/879 483/885 480/883
f 484/441 488/440 580/444
f 480/883 483/885 586/887
f 588/629 480/632 589/633
f 542/620 485/624 590/626
f 485/624 482/628 588/629
f 592/608 479/610 593/612
f 762/602 477/594 763/599
f 595/592 477/594 597/597
f 477/594 478/582 764/591
f 761/607 476/600 766/605
f 601/615 594/613 776/614
f 754/585 496/581 755/587
f 653/316 563/318 670/319
f 656/287 555/284 666/289
f 495/1030 354/1027 474/1029
f 481/625 485/624 758/623
f 446/753 493/770 562/767
f 658/298 553/299 663/300
f 756/630 481/625 767/627
f 485/624 481/625 482/628
f 597/597 476/600 598/603
f 497/745 277/737 498/744
f 498/744 277/737 532/741
f 499/911 226/914 224/912
f 500/913 224/912 504/915
f 608/655 501/651 661/659
f 501/651 227/645 228/649
f 502/1074 350/1077 337/1075
f 503/664 281/657 502/668
f 504/915 224/912 347/918
f 505/964 347/963 223/965
f 506/662 281/657 503/664
f 507/683 346/680 344/685
f 508/687 344/685 511/690
f 509/681 339/676 507/683
f 510/678 339/676 509/681
f 511/690 344/685 513/689
f 512/673 339/676 510/678
f 513/689 344/685 348/682
f 514/966 223/965 222/967
f 515/968 222/967 516/969
f 516/969 222/967 534/970
f 517/919 280/916 499/911
f 518/670 230/666 512/673
f 519/1076 337/1075 518/1078
f 520/923 280/916 535/922
f 521/692 348/682 520/691
f 522/740 232/738 231/747
f 523/750 231/747 529/751
f 524/190 329/186 525/189
f 525/189 329/186 294/184
f 527/930 294/925 526/927
f 528/192 240/173 524/190
f 529/751 231/747 232/738
f 530/736 259/726 522/740
f 531/739 276/733 530/736
f 532/741 277/737 276/733
f 533/743 276/733 531/739
f 534/748 222/742 497/745
f 535/922 280/916 517/919
f 536/183 314/178 240/173
f 537/185 233/165 536/183
f 538/188 240/173 528/192
f 539/749 232/738 537/746
f 540/654 228/649 541/658
f 541/658 228/649 506/662
f 758/623 542/620 769/622
f 542/620 543/618 752/619
f 544/583 478/582 546/586
f 545/584 496/581 544/583
f 546/586 478/582 596/589
f 772/590 547/593 773/595
f 548/452 488/440 549/446
f 549/446 488/440 356/443
f 550/154 356/147 402/150
f 551/155 402/150 558/157
f 553/299 552/303 646/302
f 555/284 491/281 554/280
f 556/451 356/443 560/453
f 557/70 494/66 490/77
f 558/76 402/62 557/70
f 559/82 490/77 568/89
f 560/156 356/147 550/154
f 561/1038 493/1033 652/1036
f 562/1040 493/1033 561/1038
f 563/318 564/323 651/322
f 565/314 566/317 653/316
f 567/763 448/754 571/759
f 568/89 490/77 567/94
f 569/756 446/753 570/760
f 570/760 446/753 602/764
f 571/759 448/754 569/756
f 666/289 573/291 674/293
f 646/302 574/304 657/305
f 654/296 575/297 658/298
f 574/304 576/308 659/307
f 660/310 577/311 676/312
f 659/307 579/309 660/310
f 580/444 488/440 581/448
f 581/448 488/440 548/452
f 582/445 483/427 484/441
f 583/449 484/441 584/447
f 584/447 484/441 580/444
f 585/450 483/427 582/445
f 586/887 483/885 585/889
f 587/888 480/883 586/887
f 588/629 482/628 480/632
f 589/633 480/632 591/634
f 590/626 485/624 588/629
f 591/634 480/632 587/635
f 760/609 592/608 761/607
f 593/612 479/610 594/613
f 594/613 479/610 759/611
f 595/592 478/582 477/594
f 596/589 478/582 595/592
f 597/597 477/594 476/600
f 598/603 476/600 599/604
f 599/604 476/600 600/606
f 600/606 476/600 592/608
f 771/617 601/615 777/616
f 602/764 446/753 562/767
f 603/650 227/645 604/652
f 604/652 227/645 608/655
f 605/647 352/636 603/650
f 606/643 352/636 605/647
f 607/646 283/640 606/643
f 608/655 227/645 501/651
f 609/811 310/814 3/812
f 610/813 3/812 617/815
f 611/492 258/480 612/485
f 612/485 258/480 249/476
f 613/491 3/487 194/473
f 614/484 194/473 258/480
f 615/490 258/480 611/492
f 616/498 3/487 613/491
f 617/815 3/812 306/817
f 618/825 306/817 616/821
f 619/824 306/817 618/825
f 620/820 306/817 619/824
f 621/818 311/816 609/811
f 622/460 273/454 283/457
f 623/468 272/462 622/460
f 624/471 193/465 272/462
f 625/475 272/462 626/472
f 626/472 272/462 623/468
f 627/479 249/476 624/471
f 628/483 249/476 627/479
f 629/464 283/457 607/467
f 630/100 450/80 631/96
f 631/96 450/80 466/91
f 632/84 466/91 458/72
f 633/78 458/72 81/64
f 634/83 81/64 469/90
f 635/95 469/90 636/99
f 636/826 469/822 621/818
f 637/97 447/87 449/73
f 638/761 447/765 637/768
f 639/755 446/753 445/752
f 640/757 445/752 638/761
f 641/93 449/73 642/86
f 642/86 449/73 450/80
f 643/98 450/80 630/100
f 644/92 450/80 643/98
f 645/758 446/753 639/755
f 646/302 552/303 574/304
f 647/282 491/281 655/285
f 648/762 446/753 645/758
f 649/769 492/766 648/762
f 650/1035 492/1034 649/1037
f 651/1041 564/1042 561/1038
f 652/1036 493/1033 650/1035
f 653/316 566/317 563/318
f 654/296 572/295 575/297
f 655/1082 491/1083 656/1084
f 656/287 491/281 555/284
f 657/305 574/304 675/306
f 658/298 575/297 553/299
f 659/307 576/308 579/309
f 660/310 579/309 577/311
f 662/301 553/299 646/302
f 663/300 553/299 662/301
f 664/283 554/280 647/282
f 665/286 554/280 664/283
f 666/289 555/284 573/291
f 667/1039 561/1038 652/1036
f 668/320 563/318 669/321
f 669/321 563/318 651/322
f 670/319 563/318 668/320
f 671/315 565/314 653/316
f 672/313 565/314 671/315
f 673/294 572/295 654/296
f 674/293 573/291 673/294
f 675/306 574/304 659/307
f 676/312 577/311 672/313
f 677/290 578/288 665/286
f 678/292 578/288 677/290
f 679/985 195/986 203/987
f 680/537 203/522 704/531
f 681/526 177/521 702/530
f 682/527 184/519 681/526
f 683/988 195/986 679/985
f 684/892 246/891 698/894
f 685/893 189/890 684/892
f 686/924 526/927 294/925
f 687/926 294/925 688/928
f 688/928 294/925 689/931
f 689/931 294/925 690/932
f 690/191 294/184 189/187
f 691/194 189/187 694/195
f 692/895 189/890 685/893
f 693/897 189/890 692/895
f 694/901 189/890 695/899
f 695/899 189/890 693/897
f 696/896 199/898 697/900
f 697/900 199/898 699/902
f 698/894 246/891 696/896
f 699/902 199/898 701/903
f 700/200 196/197 195/196
f 701/209 199/205 700/200
f 702/530 177/521 703/536
f 703/536 177/521 712/529
f 704/531 203/522 682/527
f 705/989 195/986 683/988
f 706/773 144/772 714/776
f 707/774 120/771 706/773
f 708/416 140/409 170/408
f 709/786 168/777 708/782
f 710/420 172/407 711/417
f 711/417 172/407 745/414
f 712/529 177/521 143/525
f 713/535 143/525 707/542
f 714/776 144/772 168/777
f 715/781 168/777 716/785
f 716/785 168/777 720/789
f 717/415 172/407 719/419
f 718/418 170/408 717/415
f 719/419 172/407 710/420
f 720/789 168/777 709/786
f 721/397 39/348 722/386
f 722/386 39/348 367/370
f 723/421 370/424 404/422
f 724/426 370/424 723/421
f 725/433 99/435 100/432
f 726/437 99/435 725/433
f 727/127 436/131 93/105
f 728/116 46/102 727/127
f 729/423 404/422 751/425
f 730/430 100/432 370/424
f 731/125 93/105 732/115
f 732/115 93/105 99/109
f 733/439 99/435 726/437
f 734/139 79/140 427/133
f 735/145 79/140 734/139
f 736/130 427/133 425/110
f 737/126 425/110 728/116
f 738/428 370/424 724/426
f 739/1017 414/1014 735/1016
f 740/1019 414/1014 739/1017
f 741/369 59/346 740/384
f 742/383 60/356 741/369
f 743/385 367/370 60/356
f 744/412 172/407 85/400
f 745/414 172/407 744/412
f 746/399 85/400 86/371
f 747/387 86/371 39/348
f 748/398 39/348 721/397
f 749/394 60/356 742/383
f 750/396 60/356 749/394
f 751/886 404/879 757/884
f 752/619 543/618 771/617
f 753/588 478/582 754/585
f 754/585 478/582 496/581
f 755/587 496/581 545/584
f 756/630 486/631 481/625
f 757/884 404/879 756/882
f 758/623 485/624 542/620
f 759/611 479/610 760/609
f 760/609 479/610 592/608
f 761/607 592/608 476/600
f 762/602 476/600 477/594
f 763/599 477/594 765/596
f 764/591 478/582 753/588
f 765/596 477/594 764/591
f 766/605 476/600 762/602
f 767/627 481/625 758/623
f 768/929 526/927 686/924
f 769/622 542/620 770/621
f 770/621 542/620 752/619
f 771/617 543/618 601/615
f 772/590 545/584 547/593
f 773/595 547/593 774/598
f 774/598 547/593 775/601
f 776/614 594/613 759/611
f 777/616 601/615 776/614
usemtl Tile_+031_+023_L19_000130_untextured
