mtllib Tile_+031_+023_L19_000114.mtl
v 6.22056520e+03 5.53732399e+03 2.60330096e+01
v 6.21911186e+03 5.53370603e+03 2.19125852e+01
v 6.23626998e+03 5.55327779e+03 1.09459971e+01
v 6.24333225e+03 5.53174010e+03 1.26616111e+01
v 6.24291677e+03 5.53199086e+03 1.18314898e+01
v 6.24533923e+03 5.53589156e+03 1.08716985e+01
v 6.25000000e+03 5.53117676e+03 1.06559409e+01
v 6.24293906e+03 5.53154698e+03 1.11029227e+01
v 6.22804663e+03 5.53131212e+03 1.54073631e+01
v 6.22870226e+03 5.53303874e+03 1.55473386e+01
v 6.22826727e+03 5.53210772e+03 1.62100876e+01
v 6.23439538e+03 5.53361664e+03 1.47009269e+01
v 6.23303182e+03 5.53373973e+03 1.42421024e+01
v 6.23140099e+03 5.53415091e+03 1.49706422e+01
v 6.23584727e+03 5.53113572e+03 1.18057515e+01
v 6.22582700e+03 5.56219604e+03 1.47449526e+01
v 6.22554367e+03 5.56113654e+03 1.46095488e+01
v 6.23190457e+03 5.55602424e+03 1.41357428e+01
v 6.22938791e+03 5.55997558e+03 1.53769843e+01
v 6.22736317e+03 5.56251966e+03 1.78170482e+01
v 6.22694343e+03 5.56260768e+03 1.63601791e+01
v 6.22556348e+03 5.56127588e+03 2.13520614e+01
v 6.22652014e+03 5.55928109e+03 2.10942139e+01
v 6.22279667e+03 5.53133629e+03 1.42047650e+01
v 6.22976634e+03 5.53390742e+03 1.58483733e+01
v 6.22825458e+03 5.53414901e+03 1.93837641e+01
v 6.22791189e+03 5.53381909e+03 1.33430847e+01
v 6.22845733e+03 5.53342686e+03 1.40596705e+01
v 6.22116601e+03 5.53324300e+03 2.21319595e+01
v 6.22077270e+03 5.53325940e+03 2.06950580e+01
v 6.22236073e+03 5.54917926e+03 2.42143613e+01
v 6.22141854e+03 5.54765496e+03 2.60847478e+01
v 6.21959209e+03 5.55779137e+03 2.51414268e+01
v 6.22170411e+03 5.55440157e+03 2.44221538e+01
v 6.22087494e+03 5.55257440e+03 2.38315965e+01
v 6.22582876e+03 5.56123355e+03 2.00626776e+01
v 6.22017205e+03 5.55011298e+03 2.62626641e+01
v 6.22935764e+03 5.53111526e+03 2.34896398e+01
v 6.23037750e+03 5.53107159e+03 2.41297703e+01
v 6.23427699e+03 5.53460363e+03 2.02289869e+01
v 6.23313884e+03 5.53495748e+03 2.11371348e+01
v 6.23214382e+03 5.53453265e+03 2.00841566e+01
v 6.23145614e+03 5.53476618e+03 2.09114555e+01
v 6.22869066e+03 5.54275083e+03 1.99854424e+01
v 6.22948728e+03 5.54110921e+03 1.92826226e+01
v 6.23010354e+03 5.53483367e+03 1.94892370e+01
v 6.23066880e+03 5.53490579e+03 1.77296881e+01
v 6.22426246e+03 5.53512776e+03 2.22271034e+01
v 6.22900188e+03 5.53484953e+03 2.11549376e+01
v 6.22819989e+03 5.53294336e+03 2.11686321e+01
v 6.22858250e+03 5.53229774e+03 2.06780634e+01
v 6.22394159e+03 5.55780427e+03 2.51797684e+01
v 6.22664969e+03 5.55931510e+03 2.67196783e+01
v 6.22214162e+03 5.53104001e+03 1.75324795e+01
v 6.22039250e+03 5.53305177e+03 1.89390756e+01
v 6.22336002e+03 5.55680844e+03 1.72909418e+01
v 6.22196828e+03 5.55650363e+03 1.71664634e+01
v 6.22351810e+03 5.55233024e+03 1.58851041e+01
v 6.22323940e+03 5.55305630e+03 1.83532789e+01
v 6.22673456e+03 5.56175559e+03 2.00614027e+01
v 6.22477938e+03 5.55842265e+03 1.44548239e+01
v 6.22293527e+03 5.55784648e+03 1.49078557e+01
v 6.22805416e+03 5.53105604e+03 1.78281922e+01
v 6.22759977e+03 5.53311704e+03 1.82298952e+01
v 6.22828372e+03 5.53134024e+03 1.66503541e+01
v 6.22085209e+03 5.53276881e+03 1.55623681e+01
v 6.22843900e+03 5.53180173e+03 1.42923010e+01
v 6.22788663e+03 5.53169591e+03 1.84542865e+01
v 6.22876454e+03 5.54134365e+03 1.84947262e+01
v 6.22578246e+03 5.54834688e+03 1.91311434e+01
v 6.22601921e+03 5.54668172e+03 1.88424115e+01
v 6.22411687e+03 5.55147426e+03 2.02958379e+01
v 6.22301677e+03 5.55206599e+03 1.78360467e+01
v 6.22616743e+03 5.53598253e+03 1.49484187e+01
v 6.22321081e+03 5.53453048e+03 1.63307846e+01
v 6.21884229e+03 5.53131825e+03 2.09026908e+01
v 6.22076533e+03 5.53175167e+03 1.89581086e+01
v 6.22680389e+03 5.54621957e+03 1.50605534e+01
v 6.22573606e+03 5.54731575e+03 1.65170420e+01
v 6.23177110e+03 5.53530005e+03 1.85604942e+01
v 6.23305308e+03 5.53544536e+03 1.69147800e+01
v 6.22358328e+03 5.55133188e+03 1.87028306e+01
v 6.22344915e+03 5.55110029e+03 1.76896955e+01
v 6.22661086e+03 5.55922423e+03 1.43936153e+01
v 6.22733021e+03 5.56249249e+03 1.45234332e+01
v 6.23127505e+03 5.55648218e+03 1.52881052e+01
v 6.21859736e+03 5.56009506e+03 3.38433536e+01
v 6.21949129e+03 5.55847143e+03 3.11526761e+01
v 6.21904457e+03 5.55247499e+03 2.60974102e+01
v 6.23037568e+03 5.53309033e+03 2.27664864e+01
v 6.23142297e+03 5.53328471e+03 2.42496019e+01
v 6.22502929e+03 5.53772030e+03 2.83615664e+01
v 6.22269476e+03 5.53922298e+03 3.01483897e+01
v 6.22234311e+03 5.55671319e+03 1.45208317e+01
v 6.22297392e+03 5.55422566e+03 1.72671454e+01
v 6.23180283e+03 5.55758333e+03 1.09153168e+01
v 6.23093320e+03 5.55916750e+03 1.08447703e+01
v 6.22943497e+03 5.53603807e+03 1.19028253e+01
v 6.22812488e+03 5.53661316e+03 1.22099253e+01
v 6.23130101e+03 5.53475479e+03 1.26544190e+01
v 6.23209060e+03 5.53295596e+03 1.29131972e+01
v 6.23189712e+03 5.53394766e+03 1.21053984e+01
v 6.22745010e+03 5.53333744e+03 1.25696763e+01
v 6.22289941e+03 5.53409227e+03 1.20162104e+01
v 6.22440062e+03 5.53547027e+03 1.23060076e+01
v 6.22747568e+03 5.53512418e+03 1.36059570e+01
v 6.22732161e+03 5.53436579e+03 1.33928578e+01
v 6.22659809e+03 5.53488789e+03 1.20786801e+01
v 6.23367118e+03 5.53325295e+03 1.31136546e+01
v 6.23339405e+03 5.53362106e+03 1.19102819e+01
v 6.22863107e+03 5.56223533e+03 1.41980264e+01
v 6.22996746e+03 5.55972709e+03 1.40839339e+01
v 6.23041594e+03 5.56247311e+03 1.16386587e+01
v 6.22868851e+03 5.56242950e+03 1.17583416e+01
v 6.22699033e+03 5.53637188e+03 1.37145678e+01
v 6.22613568e+03 5.53625576e+03 1.24564015e+01
v 6.22678093e+03 5.53613128e+03 1.20494689e+01
v 6.23041934e+03 5.53791738e+03 1.55610454e+01
v 6.22936873e+03 5.53755998e+03 1.51427853e+01
v 6.23168597e+03 5.53652132e+03 1.22758161e+01
v 6.23055632e+03 5.53535325e+03 1.18608094e+01
v 6.23133396e+03 5.53826361e+03 1.30756245e+01
v 6.22894479e+03 5.53475336e+03 1.30024957e+01
v 6.23159716e+03 5.53370247e+03 1.37446775e+01
v 6.23002635e+03 5.53420873e+03 1.39093826e+01
v 6.23456518e+03 5.53493986e+03 1.62815030e+01
v 6.22744154e+03 5.53151231e+03 1.19814501e+01
v 6.22831325e+03 5.56069363e+03 1.46829694e+01
v 6.22779367e+03 5.56258663e+03 1.51999626e+01
v 6.22571527e+03 5.56180903e+03 1.64013452e+01
v 6.22850003e+03 5.56162995e+03 1.53477282e+01
v 6.22942511e+03 5.55852925e+03 1.46084508e+01
v 6.22855867e+03 5.55685356e+03 1.44186072e+01
v 6.22526155e+03 5.55836996e+03 1.63121284e+01
v 6.22183229e+03 5.55640560e+03 1.52621815e+01
v 6.22235219e+03 5.55691471e+03 1.60268277e+01
v 6.22388701e+03 5.55884443e+03 1.48750965e+01
v 6.22433826e+03 5.55863601e+03 1.64890195e+01
v 6.22372734e+03 5.55785629e+03 1.66706053e+01
v 6.22735662e+03 5.55712192e+03 1.46282949e+01
v 6.22572833e+03 5.56109949e+03 1.85938505e+01
v 6.22592071e+03 5.56145054e+03 1.81015972e+01
v 6.22663421e+03 5.55930324e+03 1.82850271e+01
v 6.22503920e+03 5.55837981e+03 2.00403760e+01
v 6.22416152e+03 5.55791612e+03 1.80637141e+01
v 6.22690863e+03 5.56212808e+03 2.38698860e+01
v 6.22705462e+03 5.56244023e+03 2.18555421e+01
v 6.22575144e+03 5.56168487e+03 2.22049679e+01
v 6.22551230e+03 5.56144295e+03 2.42327137e+01
v 6.22356350e+03 5.55776184e+03 2.16859054e+01
v 6.22250834e+03 5.55720578e+03 2.11324170e+01
v 6.22656772e+03 5.55923226e+03 2.38076803e+01
v 6.22427685e+03 5.55807868e+03 2.14842865e+01
v 6.22508348e+03 5.55837352e+03 2.26027612e+01
v 6.22245675e+03 5.55708096e+03 3.88392176e+01
v 6.22660914e+03 5.55926202e+03 3.92582444e+01
v 6.22610807e+03 5.56025013e+03 3.82991881e+01
v 6.22661440e+03 5.55921615e+03 3.49470206e+01
v 6.22545720e+03 5.56140355e+03 2.86756755e+01
v 6.22487070e+03 5.55832365e+03 3.87379079e+01
v 6.22379595e+03 5.55781908e+03 3.49978776e+01
v 6.21933886e+03 5.55876670e+03 3.51526110e+01
v 6.21966223e+03 5.55794335e+03 3.87514690e+01
v 6.22513412e+03 5.56232875e+03 2.46758543e+01
v 6.22479395e+03 5.56273831e+03 2.60171423e+01
v 6.22661726e+03 5.55924340e+03 3.01893676e+01
v 6.21852872e+03 5.56034543e+03 2.83482045e+01
v 6.21885686e+03 5.55931296e+03 2.62582704e+01
v 6.21954043e+03 5.55844932e+03 2.60017695e+01
v 6.22655365e+03 5.56205702e+03 2.46085621e+01
v 6.22790231e+03 5.53697288e+03 2.54041469e+01
v 6.22928331e+03 5.53434564e+03 2.26317681e+01
v 6.22960774e+03 5.53481617e+03 2.24501216e+01
v 6.22928194e+03 5.53939764e+03 2.18954629e+01
v 6.22560303e+03 5.54239681e+03 2.44768308e+01
v 6.22495679e+03 5.54381175e+03 2.44353388e+01
v 6.22384377e+03 5.54535912e+03 2.49191348e+01
v 6.22262436e+03 5.54724186e+03 2.52058828e+01
v 6.22409645e+03 5.54246230e+03 2.61765108e+01
v 6.22282379e+03 5.54530978e+03 2.60754715e+01
v 6.22475529e+03 5.54299772e+03 2.58260163e+01
v 6.22611222e+03 5.54064199e+03 2.52392547e+01
v 6.22680244e+03 5.53642220e+03 1.94781265e+01
v 6.22981257e+03 5.53797223e+03 2.22850072e+01
v 6.22155251e+03 5.53378330e+03 2.53886972e+01
v 6.23277102e+03 5.53271798e+03 2.43816208e+01
v 6.23358216e+03 5.53266123e+03 2.30132484e+01
v 6.23020764e+03 5.53508335e+03 2.20616024e+01
v 6.23289185e+03 5.53142515e+03 2.52983412e+01
v 6.23306770e+03 5.53154523e+03 2.36930970e+01
v 6.23005137e+03 5.53189019e+03 2.48897380e+01
v 6.23066011e+03 5.53128877e+03 2.63529811e+01
v 6.23001831e+03 5.53146687e+03 2.36146324e+01
v 6.23326186e+03 5.53319579e+03 2.35826200e+01
v 6.23351979e+03 5.53368132e+03 2.22163416e+01
v 6.23416378e+03 5.53175821e+03 2.28162153e+01
v 6.23091505e+03 5.53389558e+03 2.30085784e+01
v 6.23210153e+03 5.53475000e+03 2.30544423e+01
v 6.23218926e+03 5.53434699e+03 2.38289794e+01
v 6.22992734e+03 5.53256062e+03 2.31145320e+01
v 6.22531320e+03 5.54000082e+03 2.62877996e+01
v 6.23430773e+03 5.53133087e+03 2.36405174e+01
v 6.23199327e+03 5.53216551e+03 2.55219592e+01
v 6.23068590e+03 5.53261934e+03 2.51692070e+01
v 6.22898179e+03 5.53100067e+03 2.28817376e+01
v 6.22822169e+03 5.53185841e+03 2.17876914e+01
v 6.22882042e+03 5.53184877e+03 2.28047251e+01
v 6.22831601e+03 5.53268494e+03 2.24388322e+01
v 6.22816989e+03 5.53103207e+03 2.13393655e+01
v 6.23242478e+03 5.53426914e+03 2.18924058e+01
v 6.23168549e+03 5.53413216e+03 2.17998828e+01
v 6.22948273e+03 5.53327446e+03 2.24823216e+01
v 6.22868128e+03 5.53406258e+03 2.09552478e+01
v 6.21922311e+03 5.53264314e+03 2.17605112e+01
v 6.21995332e+03 5.53203032e+03 2.10721146e+01
v 6.21901002e+03 5.53977950e+03 2.57124769e+01
v 6.22102560e+03 5.55033910e+03 2.56300466e+01
v 6.22215203e+03 5.54781777e+03 2.58950727e+01
v 6.22054902e+03 5.55188056e+03 2.46996465e+01
v 6.22300426e+03 5.55400434e+03 2.53826788e+01
v 6.22264960e+03 5.55427793e+03 2.56935232e+01
v 6.21943895e+03 5.55412593e+03 2.45478836e+01
v 6.22067497e+03 5.55616204e+03 2.47834542e+01
v 6.22174390e+03 5.55612027e+03 2.44349895e+01
v 6.22635214e+03 5.54713450e+03 2.03695120e+01
v 6.22247790e+03 5.55384307e+03 2.54568033e+01
v 6.22221258e+03 5.55361509e+03 2.42974065e+01
v 6.22180866e+03 5.55670459e+03 2.44790622e+01
v 6.22064968e+03 5.55618329e+03 2.65437351e+01
v 6.22301334e+03 5.55391652e+03 2.40846217e+01
v 6.22295607e+03 5.55397606e+03 2.21640221e+01
v 6.22285825e+03 5.55448800e+03 2.37866940e+01
v 6.22295287e+03 5.55415998e+03 2.11215825e+01
v 6.22227720e+03 5.55470495e+03 2.18231024e+01
v 6.22231337e+03 5.55471473e+03 2.06879553e+01
v 6.22162085e+03 5.55613020e+03 2.13027154e+01
v 6.22185768e+03 5.55329091e+03 2.23639752e+01
v 6.22316483e+03 5.55346732e+03 2.02679318e+01
v 6.22331428e+03 5.55756731e+03 2.90401112e+01
v 6.22262705e+03 5.55458158e+03 2.47120740e+01
v 6.22064325e+03 5.55619383e+03 3.88244696e+01
v 6.22063596e+03 5.55625274e+03 2.97496173e+01
v 6.22069267e+03 5.55621459e+03 3.37545719e+01
v 6.22916342e+03 5.53332067e+03 2.17995404e+01
v 6.22361068e+03 5.55760004e+03 1.92874467e+01
v 6.21956051e+03 5.54564222e+03 3.02445285e+01
v 6.23070504e+03 5.53230672e+03 2.60979176e+01
v 6.23162706e+03 5.53166923e+03 2.64634424e+01
v 6.22422578e+03 5.53637366e+03 3.01017718e+01
v 6.22645302e+03 5.53627947e+03 2.79942246e+01
v 6.22475275e+03 5.53544242e+03 3.05197940e+01
v 6.22373485e+03 5.53488852e+03 2.87278218e+01
v 6.22289391e+03 5.54269182e+03 2.78857450e+01
v 6.22090112e+03 5.54290078e+03 3.01097133e+01
v 6.23403555e+03 5.53572960e+03 2.02798029e+01
v 6.23263777e+03 5.53630668e+03 1.94263501e+01
v 6.23343187e+03 5.53531179e+03 2.04543142e+01
v 6.23430659e+03 5.53606647e+03 1.94206680e+01
v 6.23075680e+03 5.53839696e+03 1.70701094e+01
v 6.23076743e+03 5.53843454e+03 1.87579365e+01
v 6.23317462e+03 5.53603859e+03 1.85554665e+01
v 6.23269281e+03 5.53556997e+03 1.95849248e+01
v 6.23402257e+03 5.53625011e+03 1.75008250e+01
v 6.23083489e+03 5.53851402e+03 2.08645557e+01
v 6.23065232e+03 5.53918547e+03 1.98778392e+01
v 6.21876064e+03 5.53236623e+03 2.09696914e+01
v 6.22759267e+03 5.53268661e+03 1.91178279e+01
v 6.22034618e+03 5.53304130e+03 1.69285662e+01
v 6.22536765e+03 5.53612230e+03 1.92200718e+01
v 6.22514927e+03 5.53608198e+03 1.69418338e+01
v 6.22281231e+03 5.55460214e+03 1.96607110e+01
v 6.22190547e+03 5.55610441e+03 1.93131975e+01
v 6.22196986e+03 5.55656317e+03 1.98092362e+01
v 6.22702159e+03 5.54587440e+03 1.93538543e+01
v 6.22613259e+03 5.54626195e+03 1.65493131e+01
v 6.22565695e+03 5.54860035e+03 1.66191233e+01
v 6.22213691e+03 5.55679605e+03 2.32908199e+01
v 6.22968209e+03 5.54072874e+03 1.52517898e+01
v 6.22400059e+03 5.53553331e+03 1.74760273e+01
v 6.22839535e+03 5.54245025e+03 1.88061188e+01
v 6.22839680e+03 5.54325776e+03 1.51720543e+01
v 6.22861661e+03 5.54144024e+03 1.68110109e+01
v 6.22442875e+03 5.55074260e+03 1.83027605e+01
v 6.22439718e+03 5.55091375e+03 1.54001149e+01
v 6.22796088e+03 5.53682403e+03 1.65661599e+01
v 6.22247845e+03 5.53411089e+03 1.44855486e+01
v 6.22266518e+03 5.53250408e+03 1.29658238e+01
v 6.22197994e+03 5.55583240e+03 1.68067594e+01
v 6.22287551e+03 5.55424803e+03 1.48054186e+01
v 6.22470603e+03 5.55061536e+03 1.27250378e+01
v 6.22986016e+03 5.55520447e+03 1.32287229e+01
v 6.22989897e+03 5.55656508e+03 1.41267037e+01
v 6.23069045e+03 5.55591241e+03 1.35327910e+01
v 6.22988692e+03 5.55843135e+03 1.51572616e+01
v 6.23065410e+03 5.55841889e+03 1.27188684e+01
v 6.23064769e+03 5.55645031e+03 1.43327499e+01
v 6.23148431e+03 5.55588543e+03 1.63321165e+01
v 6.22783186e+03 5.55404077e+03 1.33489266e+01
v 6.22317383e+03 5.55362034e+03 1.40901222e+01
v 6.22367246e+03 5.55450686e+03 1.44805904e+01
v 6.22504374e+03 5.55525461e+03 1.43123070e+01
v 6.23039595e+03 5.54001101e+03 1.48999790e+01
v 6.23072192e+03 5.53923157e+03 1.21262194e+01
v 6.23127749e+03 5.55543904e+03 1.64460942e+01
v 6.23216155e+03 5.55545456e+03 1.46030494e+01
v 6.23186501e+03 5.55563752e+03 1.60426399e+01
v 6.23100155e+03 5.55630535e+03 1.52707622e+01
v 6.21968881e+03 5.55279973e+03 2.56360635e+01
v 6.22934733e+03 5.56093024e+03 1.17093173e+01
v 6.23082078e+03 5.55419641e+03 1.28149110e+01
v 6.23137749e+03 5.55502006e+03 1.37459063e+01
v 6.22851916e+03 5.56200390e+03 1.28003492e+01
v 6.23120806e+03 5.55501686e+03 1.52006116e+01
v 6.23277181e+03 5.53732285e+03 1.10429646e+01
v 6.23206288e+03 5.53731605e+03 1.13915394e+01
v 6.22758877e+03 5.54537248e+03 1.12058875e+01
v 6.22844467e+03 5.54301277e+03 1.15279614e+01
v 6.22919564e+03 5.54884838e+03 1.22117756e+01
v 6.23064843e+03 5.55828339e+03 1.16128249e+01
v 6.23005867e+03 5.56107896e+03 1.08925309e+01
v 6.23101959e+03 5.56221820e+03 1.07429808e+01
v 6.22582373e+03 5.54816955e+03 1.22601114e+01
v 6.22999384e+03 5.55258504e+03 1.21183659e+01
v 6.23195604e+03 5.55409283e+03 1.27770996e+01
v 6.22694854e+03 5.55123533e+03 1.24507446e+01
v 6.23258164e+03 5.55481240e+03 1.21896793e+01
v 6.23191390e+03 5.53960960e+03 1.09993062e+01
v 6.23172216e+03 5.53805839e+03 1.09122032e+01
v 6.23386517e+03 5.55775835e+03 1.09713934e+01
v 6.23244769e+03 5.55467314e+03 1.35342924e+01
v 6.23312488e+03 5.54810086e+03 1.10255552e+01
v 6.23016154e+03 5.54112436e+03 1.09236251e+01
v 6.22982519e+03 5.55936824e+03 1.09673168e+01
v 6.22629956e+03 5.54844076e+03 1.20525711e+01
v 6.22961596e+03 5.55942421e+03 1.25441425e+01
v 6.22658197e+03 5.54626851e+03 1.26934315e+01
v 6.22674920e+03 5.54703025e+03 1.19514114e+01
v 6.23437219e+03 5.55116398e+03 1.21639932e+01
v 6.23156567e+03 5.53746168e+03 1.25640038e+01
v 6.22679662e+03 5.53389032e+03 1.19428524e+01
v 6.22464269e+03 5.53320579e+03 1.19348939e+01
v 6.22712081e+03 5.53586499e+03 1.20243232e+01
v 6.22954818e+03 5.54087862e+03 1.15089892e+01
v 6.23274792e+03 5.53316566e+03 1.20826863e+01
v 6.23272708e+03 5.53577607e+03 1.09343768e+01
v 6.23266877e+03 5.53552302e+03 1.25359867e+01
v 6.23042446e+03 5.54030168e+03 1.15623477e+01
v 6.22943187e+03 5.53738033e+03 1.22738801e+01
v 6.22896144e+03 5.54145888e+03 1.28616330e+01
v 6.23032420e+03 5.53697069e+03 1.18300834e+01
v 6.23417257e+03 5.53866374e+03 1.09062304e+01
v 6.23351321e+03 5.53389516e+03 1.09429942e+01
v 6.25000000e+03 5.55047276e+03 1.07476621e+01
v 6.25000000e+03 5.54618981e+03 1.08852792e+01
v 6.25000000e+03 5.53780007e+03 1.07818850e+01
v 6.25000000e+03 5.54470479e+03 1.12227154e+01
v 6.25000000e+03 5.54363191e+03 1.09353835e+01
v 6.25000000e+03 5.56168591e+03 1.09238397e+01
v 6.25000000e+03 5.55444697e+03 1.08494785e+01
v 6.23450046e+03 5.53189452e+03 1.30294303e+01
v 6.23558627e+03 5.53254790e+03 1.48280784e+01
v 6.23517096e+03 5.53262431e+03 2.06182818e+01
v 6.23478538e+03 5.53466470e+03 1.92138834e+01
v 6.23657289e+03 5.53425507e+03 1.61192360e+01
v 6.23415651e+03 5.53256748e+03 1.09229647e+01
v 6.23482886e+03 5.53167621e+03 1.17098370e+01
v 6.23539886e+03 5.53198924e+03 1.08715579e+01
v 6.24365869e+03 5.53153250e+03 1.07767732e+01
v 6.24607943e+03 5.54364613e+03 1.09280670e+01
v 6.24767693e+03 5.54934481e+03 1.08598326e+01
v 6.23511179e+03 5.53105519e+03 2.16417805e+01
v 6.23442793e+03 5.53276273e+03 2.25031398e+01
v 6.23553884e+03 5.53170647e+03 2.13610401e+01
v 6.23481355e+03 5.53385015e+03 2.07212412e+01
v 6.23600643e+03 5.53178852e+03 1.92712806e+01
v 6.23609756e+03 5.53373456e+03 1.73096627e+01
v 6.23630204e+03 5.53280946e+03 1.72816614e+01
v 6.23572150e+03 5.53236676e+03 1.80008546e+01
v 6.23525763e+03 5.53146968e+03 2.02067913e+01
v 6.23471156e+03 5.53109332e+03 2.26601559e+01
v 6.23590523e+03 5.53505904e+03 1.83699766e+01
v 6.23562623e+03 5.53356024e+03 1.84670454e+01
v 6.23467616e+03 5.53576740e+03 1.86741586e+01
v 6.23708822e+03 5.53211394e+03 1.77215625e+01
v 6.23587136e+03 5.53452541e+03 1.69708334e+01
v 6.23779194e+03 5.53242742e+03 1.58910720e+01
v 6.23734352e+03 5.53293179e+03 1.70229660e+01
v 6.23791420e+03 5.53226305e+03 1.66387125e+01
v 6.23596230e+03 5.53174640e+03 1.82680338e+01
v 6.24905155e+03 5.54487809e+03 1.13615149e+01
v 6.24767768e+03 5.54458415e+03 1.09466552e+01
v 6.24145366e+03 5.53491327e+03 1.08390145e+01
v 6.24880327e+03 5.54907496e+03 1.10338865e+01
v 6.24705804e+03 5.54450949e+03 1.10479892e+01
v 6.23669032e+03 5.53409019e+03 1.10127505e+01
v 6.23627129e+03 5.53107898e+03 1.08977693e+01
v 6.23759321e+03 5.54363533e+03 1.09812505e+01
v 6.24181145e+03 5.53363790e+03 1.11210664e+01
v 6.23857532e+03 5.53274939e+03 1.08209064e+01
v 6.24228207e+03 5.53111119e+03 1.08320872e+01
v 6.23912051e+03 5.53769194e+03 1.09181009e+01
v 6.24598137e+03 5.54664871e+03 1.08793734e+01
v 6.24636448e+03 5.54984554e+03 1.10523116e+01
v 6.24724959e+03 5.55573145e+03 1.07506734e+01
v 6.24424629e+03 5.56124766e+03 1.07107963e+01
v 6.24396634e+03 5.55819052e+03 1.09813411e+01
v 6.23761607e+03 5.55004490e+03 1.09998407e+01
v 6.24239486e+03 5.53366446e+03 1.10095146e+01
v 6.23857801e+03 5.53116581e+03 1.09184605e+01
v 6.23756086e+03 5.53111845e+03 1.31380339e+01
v 6.24306119e+03 5.55442299e+03 1.09020141e+01
v 6.24299446e+03 5.53113928e+03 1.26713554e+01
v 6.24214587e+03 5.53317101e+03 1.26336447e+01
v 6.24261733e+03 5.53297124e+03 1.28596659e+01
v 6.24216273e+03 5.53351591e+03 1.18324378e+01
v 6.24311981e+03 5.54932617e+03 1.10291598e+01
v 6.21850000e+03 5.53800661e+03 2.37756893e+01
v 6.21850000e+03 5.53524141e+03 2.20673891e+01
v 6.21850000e+03 5.54289945e+03 2.70662856e+01
v 6.21850000e+03 5.54379519e+03 2.76653803e+01
v 6.21850000e+03 5.54605671e+03 2.91420941e+01
v 6.21850000e+03 5.54762227e+03 3.00776157e+01
v 6.21850000e+03 5.56040089e+03 2.84246233e+01
v 6.21850000e+03 5.56039379e+03 3.09380798e+01
v 6.21850000e+03 5.53224415e+03 2.02998839e+01
v 6.21850000e+03 5.53191408e+03 2.02157578e+01
v 6.21850000e+03 5.53417429e+03 2.14217960e+01
v 6.21850000e+03 5.53247481e+03 2.03077855e+01
v 6.21850000e+03 5.54249755e+03 2.68221432e+01
v 6.21850000e+03 5.54133254e+03 2.60618067e+01
v 6.21850000e+03 5.55246213e+03 2.70809024e+01
v 6.21850000e+03 5.55208562e+03 2.72729282e+01
v 6.21850000e+03 5.55152922e+03 2.77293825e+01
v 6.21850000e+03 5.54917543e+03 2.94497190e+01
v 6.21850000e+03 5.53939154e+03 2.47596186e+01
v 6.21850000e+03 5.54042889e+03 2.55119617e+01
v 6.21850000e+03 5.55639015e+03 2.49771156e+01
v 6.21850000e+03 5.55549506e+03 2.48342703e+01
v 6.21850000e+03 5.56253100e+03 3.05077297e+01
v 6.21850000e+03 5.56258482e+03 2.95021606e+01
v 6.21850000e+03 5.56040938e+03 2.83777138e+01
v 6.21850000e+03 5.55909345e+03 2.62358335e+01
v 6.21850000e+03 5.55885773e+03 2.62924525e+01
v 6.21850000e+03 5.56037064e+03 2.82393333e+01
v 6.21850000e+03 5.56004454e+03 2.67789771e+01
v 6.21850000e+03 5.55824701e+03 2.60326160e+01
v 6.21850000e+03 5.55841086e+03 2.62432706e+01
v 6.21850000e+03 5.56038605e+03 2.83465244e+01
v 6.21850000e+03 5.56048889e+03 3.24744391e+01
v 6.21850000e+03 5.56249003e+03 3.39277110e+01
v 6.21850000e+03 5.56251157e+03 3.23682366e+01
v 6.21850000e+03 5.56037513e+03 3.61943958e+01
v 6.21850000e+03 5.56028677e+03 3.79329394e+01
v 6.21850000e+03 5.56029091e+03 3.41834379e+01
v 6.21850000e+03 5.56031464e+03 3.38090407e+01
v 6.21850000e+03 5.56265265e+03 3.81939394e+01
v 6.21850000e+03 5.56251700e+03 3.66466939e+01
v 6.21850000e+03 5.56253622e+03 3.73873476e+01
v 6.21850000e+03 5.54874779e+03 2.97414719e+01
v 6.21850000e+03 5.55696189e+03 2.50757730e+01
v 6.21850000e+03 5.56022891e+03 3.92235126e+01
v 6.22715222e+03 5.53100000e+03 1.19831946e+01
v 6.22493323e+03 5.53100000e+03 1.20117350e+01
v 6.22471720e+03 5.53100000e+03 1.20351275e+01
v 6.22476240e+03 5.53100000e+03 1.20125599e+01
v 6.22753306e+03 5.53100000e+03 1.19549854e+01
v 6.22788901e+03 5.53100000e+03 1.19870756e+01
v 6.22358256e+03 5.53100000e+03 1.26470145e+01
v 6.22319433e+03 5.53100000e+03 1.36406719e+01
v 6.22830416e+03 5.53100000e+03 1.24234104e+01
v 6.22944479e+03 5.53100000e+03 2.34963156e+01
v 6.22948413e+03 5.53100000e+03 2.32592962e+01
v 6.22826250e+03 5.53100000e+03 1.64741584e+01
v 6.22808975e+03 5.53100000e+03 1.55724592e+01
v 6.22833835e+03 5.53100000e+03 2.04041449e+01
v 6.22820582e+03 5.53100000e+03 2.01993856e+01
v 6.22029802e+03 5.53100000e+03 2.04416937e+01
v 6.22050416e+03 5.53100000e+03 1.99971602e+01
v 6.22805526e+03 5.53100000e+03 1.79045773e+01
v 6.22802066e+03 5.53100000e+03 1.78306338e+01
v 6.22146288e+03 5.53100000e+03 1.88462066e+01
v 6.22791337e+03 5.53100000e+03 1.90648239e+01
v 6.22797087e+03 5.53100000e+03 1.87204687e+01
v 6.22820621e+03 5.53100000e+03 2.13591840e+01
v 6.22818440e+03 5.53100000e+03 2.12232651e+01
v 6.21965432e+03 5.53100000e+03 2.13261549e+01
v 6.21912549e+03 5.53100000e+03 2.11244197e+01
v 6.22898348e+03 5.53100000e+03 2.28811399e+01
v 6.22898171e+03 5.53100000e+03 2.28805261e+01
v 6.22827752e+03 5.53100000e+03 2.06670590e+01
v 6.23220517e+03 5.53100000e+03 2.62917998e+01
v 6.23146125e+03 5.53100000e+03 2.66226734e+01
v 6.23134064e+03 5.53100000e+03 2.65948971e+01
v 6.23065642e+03 5.53100000e+03 2.61975214e+01
v 6.23025733e+03 5.53100000e+03 2.54842152e+01
v 6.23241821e+03 5.53100000e+03 2.60053752e+01
v 6.22014156e+03 5.53100000e+03 2.09942534e+01
v 6.23040545e+03 5.53100000e+03 2.41509923e+01
v 6.23037421e+03 5.53100000e+03 2.40968159e+01
v 6.23027106e+03 5.53100000e+03 2.44236126e+01
v 6.23004965e+03 5.53100000e+03 2.50147031e+01
v 6.23273311e+03 5.53100000e+03 2.57395383e+01
v 6.23308015e+03 5.53100000e+03 2.51211554e+01
v 6.23319716e+03 5.53100000e+03 2.42754639e+01
v 6.22855396e+03 5.53100000e+03 1.28541997e+01
v 6.22219750e+03 5.53100000e+03 1.74623322e+01
v 6.22305021e+03 5.53100000e+03 1.43932005e+01
v 6.22831886e+03 5.53100000e+03 1.49055551e+01
v 6.22871546e+03 5.53100000e+03 1.39848639e+01
v 6.22205524e+03 5.53100000e+03 1.77542028e+01
v 6.21851848e+03 5.53100000e+03 2.09119074e+01
v 6.22806514e+03 5.53100000e+03 1.69610632e+01
v 6.22219768e+03 5.53100000e+03 1.75594520e+01
v 6.22221977e+03 5.53100000e+03 1.76857300e+01
v 6.22304294e+03 5.53100000e+03 1.40795273e+01
v 6.24310127e+03 5.53100000e+03 1.25691842e+01
v 6.24326934e+03 5.53100000e+03 1.13490682e+01
v 6.24313664e+03 5.53100000e+03 1.26813871e+01
v 6.24363101e+03 5.53100000e+03 1.26988151e+01
v 6.24349052e+03 5.53100000e+03 1.23333641e+01
v 6.24995176e+03 5.53100000e+03 1.06537235e+01
v 6.24982399e+03 5.53100000e+03 1.06639394e+01
v 6.23711542e+03 5.53100000e+03 1.60156287e+01
v 6.23666496e+03 5.53100000e+03 1.78370452e+01
v 6.24304049e+03 5.53100000e+03 1.10295038e+01
v 6.24339464e+03 5.53100000e+03 1.18224143e+01
v 6.23855757e+03 5.53100000e+03 1.11022971e+01
v 6.23819114e+03 5.53100000e+03 1.10722188e+01
v 6.25000000e+03 5.53100000e+03 1.06562402e+01
v 6.24223239e+03 5.53100000e+03 1.08318189e+01
v 6.24209293e+03 5.53100000e+03 1.08362474e+01
v 6.24236611e+03 5.53100000e+03 1.08354176e+01
v 6.24385456e+03 5.53100000e+03 1.07990642e+01
v 6.24373809e+03 5.53100000e+03 1.11297117e+01
v 6.24230230e+03 5.53100000e+03 1.08270159e+01
v 6.23513253e+03 5.53100000e+03 1.22115902e+01
v 6.23585953e+03 5.53100000e+03 1.20756390e+01
v 6.24189105e+03 5.53100000e+03 1.08182224e+01
v 6.23619058e+03 5.53100000e+03 1.17184243e+01
v 6.23642590e+03 5.53100000e+03 1.09873069e+01
v 6.23706522e+03 5.53100000e+03 1.58317398e+01
v 6.23771127e+03 5.53100000e+03 1.31355386e+01
v 6.23772964e+03 5.53100000e+03 1.28763932e+01
v 6.23748718e+03 5.53100000e+03 1.27615077e+01
v 6.23759874e+03 5.53100000e+03 1.32840933e+01
v 6.23716222e+03 5.53100000e+03 1.30632436e+01
v 6.23437225e+03 5.53100000e+03 1.27085941e+01
v 6.23443699e+03 5.53100000e+03 1.24851985e+01
v 6.23904954e+03 5.53100000e+03 1.07535573e+01
v 6.23870018e+03 5.53100000e+03 1.08833808e+01
v 6.24486874e+03 5.53100000e+03 1.07652787e+01
v 6.24410482e+03 5.53100000e+03 1.07428806e+01
v 6.23657734e+03 5.53100000e+03 1.79586158e+01
v 6.23506585e+03 5.53100000e+03 2.16758387e+01
v 6.23466973e+03 5.53100000e+03 2.26312664e+01
v 6.23548192e+03 5.53100000e+03 1.46084839e+01
v 6.23592700e+03 5.53100000e+03 1.48256300e+01
v 6.23640386e+03 5.53100000e+03 1.80434684e+01
v 6.23534344e+03 5.53100000e+03 1.80700170e+01
v 6.23534351e+03 5.53100000e+03 1.80780463e+01
v 6.23517975e+03 5.53100000e+03 1.98053887e+01
v 6.23469918e+03 5.53100000e+03 2.04019049e+01
v 6.23499721e+03 5.53100000e+03 2.14865109e+01
v 6.23507699e+03 5.53100000e+03 2.16293390e+01
v 6.23538780e+03 5.53100000e+03 1.94442565e+01
v 6.23429893e+03 5.53100000e+03 2.35970215e+01
v 6.23457051e+03 5.53100000e+03 2.35917023e+01
v 6.23471366e+03 5.53100000e+03 2.29627684e+01
v 6.23460893e+03 5.53100000e+03 2.34172767e+01
v 6.23445906e+03 5.53100000e+03 1.28454515e+01
v 6.21850000e+03 5.53100000e+03 2.08988630e+01
v 6.23156215e+03 5.56275000e+03 1.07711950e+01
v 6.23097133e+03 5.56275000e+03 1.08126876e+01
v 6.23548375e+03 5.56275000e+03 1.09071574e+01
v 6.23181586e+03 5.56275000e+03 1.07609962e+01
v 6.22818045e+03 5.56275000e+03 1.51901844e+01
v 6.22863122e+03 5.56275000e+03 1.41411960e+01
v 6.22978341e+03 5.56275000e+03 1.18552635e+01
v 6.22871809e+03 5.56275000e+03 1.19449411e+01
v 6.23056968e+03 5.56275000e+03 1.14092713e+01
v 6.22816627e+03 5.56275000e+03 1.52398877e+01
v 6.22811122e+03 5.56275000e+03 1.52326152e+01
v 6.22869970e+03 5.56275000e+03 1.31332284e+01
v 6.22866928e+03 5.56275000e+03 1.24289959e+01
v 6.22496121e+03 5.56275000e+03 2.52142409e+01
v 6.22479029e+03 5.56275000e+03 2.60266795e+01
v 6.22478782e+03 5.56275000e+03 2.60337383e+01
v 6.22808229e+03 5.56275000e+03 1.54860322e+01
v 6.22773122e+03 5.56275000e+03 1.75111979e+01
v 6.22784173e+03 5.56275000e+03 2.41988069e+01
v 6.22694798e+03 5.56275000e+03 2.42146818e+01
v 6.22777949e+03 5.56275000e+03 2.22603056e+01
v 6.22809385e+03 5.56275000e+03 2.37721670e+01
v 6.21893167e+03 5.56275000e+03 3.03885207e+01
v 6.22536186e+03 5.56275000e+03 2.49556447e+01
v 6.22476430e+03 5.56275000e+03 2.89579209e+01
v 6.22615368e+03 5.56275000e+03 2.45234367e+01
v 6.22667065e+03 5.56275000e+03 2.43669091e+01
v 6.22683331e+03 5.56275000e+03 2.44692520e+01
v 6.22802343e+03 5.56275000e+03 1.85938179e+01
v 6.22855891e+03 5.56275000e+03 2.02469959e+01
v 6.21902777e+03 5.56275000e+03 3.41928266e+01
v 6.21898511e+03 5.56275000e+03 3.62898499e+01
v 6.22477405e+03 5.56275000e+03 3.04620375e+01
v 6.22479276e+03 5.56275000e+03 3.40837477e+01
v 6.22480556e+03 5.56275000e+03 3.58131584e+01
v 6.22480403e+03 5.56275000e+03 3.83033462e+01
v 6.22765119e+03 5.56275000e+03 2.17285805e+01
v 6.22784799e+03 5.56275000e+03 2.13196509e+01
v 6.22781167e+03 5.56275000e+03 1.77592150e+01
v 6.24295719e+03 5.56275000e+03 1.07903013e+01
v 6.24178733e+03 5.56275000e+03 1.09645137e+01
v 6.24928936e+03 5.56275000e+03 1.09132339e+01
v 6.24878487e+03 5.56275000e+03 1.08979451e+01
v 6.24847447e+03 5.56275000e+03 1.08850680e+01
v 6.24725785e+03 5.56275000e+03 1.08827130e+01
v 6.23644113e+03 5.56275000e+03 1.08865452e+01
v 6.23828940e+03 5.56275000e+03 1.08765005e+01
v 6.24501709e+03 5.56275000e+03 1.07757648e+01
v 6.24349244e+03 5.56275000e+03 1.06935559e+01
v 6.23953589e+03 5.56275000e+03 1.09134665e+01
v 6.25000000e+03 5.56275000e+03 1.14035776e+01
v 6.21884932e+03 5.56275000e+03 2.96306254e+01
v 6.21854451e+03 5.56275000e+03 2.94772830e+01
v 6.21850000e+03 5.56275000e+03 2.94548949e+01
v 6.21898723e+03 5.56275000e+03 3.27261425e+01
v 6.21895872e+03 5.56275000e+03 3.16950463e+01
v 6.21865400e+03 5.56275000e+03 3.83473912e+01
v 6.21870331e+03 5.56275000e+03 3.81806023e+01
v 6.21896084e+03 5.56275000e+03 3.67571275e+01
v 6.21892603e+03 5.56275000e+03 3.74271903e+01
v 6.22090547e+03 5.55633908e+03 3.93401543e+01
v 6.22106706e+03 5.55639984e+03 3.93401588e+01
v 6.22653106e+03 5.55921929e+03 3.93403038e+01
v 6.22487480e+03 5.55832252e+03 3.93402601e+01
v 6.22267266e+03 5.55708088e+03 3.93402023e+01
v 6.22389443e+03 5.55748210e+03 3.93402361e+01
v 6.22660858e+03 5.55926181e+03 3.93403058e+01
v 6.22243891e+03 5.55707095e+03 3.93401954e+01
v 6.22461699e+03 5.55783574e+03 3.93402554e+01
v 6.22064411e+03 5.55620506e+03 3.93401474e+01
v 6.22043671e+03 5.55661096e+03 3.93401388e+01
v 6.21967221e+03 5.55797959e+03 3.93401078e+01
v 6.21923710e+03 5.55816960e+03 3.93400938e+01
v 6.22620126e+03 5.56005264e+03 3.93402890e+01
v 6.22596220e+03 5.56058531e+03 3.93402786e+01
v 6.22595763e+03 5.56096971e+03 3.93402762e+01
v 6.21850000e+03 5.56265414e+03 3.93400447e+01
v 6.21870576e+03 5.55953091e+03 3.93400698e+01
v 6.21850000e+03 5.56005806e+03 3.93400605e+01
v 6.21863853e+03 5.56274153e+03 3.93400483e+01
v 6.22524823e+03 5.56232871e+03 3.93402469e+01
v 6.22502831e+03 5.56275000e+03 3.93402378e+01
v 6.21865196e+03 5.56275000e+03 3.93400487e+01
vt 0.089656793 0.85991848
vt 0.10101454 0.90385449
vt 0.082231134 0.90805173
vt 0.046086702 0.87888962
vt 0.12195887 0.89934313
vt 0.070592195 0.94090647
vt 0.041970391 0.9283905
vt 0.024654485 0.8672114
vt 0.12135639 0.87809229
vt 0.11455894 0.93003118
vt 0.040805683 0.80641806
vt 0.13636608 0.86234033
vt 0.13432963 0.88914669
vt 0.09719599 0.96385461
vt 0.0038939423 0.90169179
vt 0.016863704 0.85336572
vt 0.075851522 0.81609643
vt 0.12344544 0.83717352
vt 0.11397564 0.95262295
vt 0.081847079 0.99196839
vt 0.012196918 0.863168
vt 0.013147612 0.9193927
vt 0.065701932 0.77243817
vt 0.1450576 0.87519819
vt 0.10011119 0.9784773
vt 0.089080907 0.99343055
vt 0.053924207 0.97078985
vt 0.028024022 0.93498135
vt 0.058263145 0.76820087
vt 0.1109534 0.77879113
vt 0.058355026 0.98734194
vt 0.072721541 0.75039756
vt 0.1918496 0.81494665
vt 0.094903089 0.99598092
vt 0.085840642 0.7244978
vt 0.1723586 0.76710254
vt 0.16389035 0.87196225
vt 0.094043024 0.99598122
vt 0.24254395 0.79745573
vt 0.22152816 0.84797716
vt 0.12602217 0.65811038
vt 0.24215458 0.69730604
vt 0.18397523 0.91799825
vt 0.1886826 0.61964285
vt 0.32853618 0.78619742
vt 0.32764754 0.8658371
vt 0.1517508 0.91527456
vt 0.20929171 0.99598545
vt 0.1533943 0.63443244
vt 0.2659893 0.60443312
vt 0.37323657 0.74434888
vt 0.22425105 0.9959808
vt 0.13817178 0.94003236
vt 0.13953824 0.98770028
vt 0.15039164 0.61019647
vt 0.22799805 0.54816693
vt 0.37475291 0.69743246
vt 0.25313061 0.9959715
vt 0.15198249 0.99600542
vt 0.16678718 0.59869707
vt 0.25744697 0.52720928
vt 0.17835538 0.54513639
vt 0.30243194 0.56100518
vt 0.39004672 0.71091628
vt 0.37923667 0.79429597
vt 0.34180874 0.92469954
vt 0.12451626 0.96990299
vt 0.14801811 0.99600661
vt 0.1660817 0.57452989
vt 0.20781007 0.51534736
vt 0.18840052 0.52438819
vt 0.36314869 0.57627094
vt 0.39973015 0.71208072
vt 0.39974371 0.78646719
vt 0.39310005 0.88626212
vt 0.27260655 0.99596483
vt 0.138786 0.99600923
vt 0.30801249 0.54107296
vt 0.22143695 0.50111985
vt 0.33686924 0.50816983
vt 0.43598428 0.60606885
vt 0.43601194 0.69719028
vt 0.43602547 0.73715818
vt 0.30778489 0.99595296
vt 0.34620169 0.97246879
vt 0.31535664 0.50159323
vt 0.25747976 0.50246477
vt 0.43595228 0.5025804
vt 0.42119351 0.71666265
vt 0.41733924 0.78224343
vt 0.43604881 0.80408078
vt 0.32606611 0.99594867
vt 0.39326298 0.99592602
vt 0.30924654 0.49985814
vt 0.25143218 0.49987447
vt 0.26484856 0.49987316
vt 0.4332011 0.4998194
vt 0.43601391 0.71395129
vt 0.4360677 0.86617714
vt 0.33443055 0.99594688
vt 0.35825238 0.99593836
vt 0.41227275 0.99591982
vt 0.31240079 0.49985695
vt 0.2238512 0.49988425
vt 0.25715724 0.49987233
vt 0.25938824 0.4998737
vt 0.35577381 0.4998436
vt 0.43519771 0.49981892
vt 0.41712266 0.9959181
vt 0.31457984 0.49985629
vt 0.34383786 0.49984765
vt 0.43595138 0.49981862
vt 0.42500511 0.99591541
vt 0.31567225 0.499856
vt 0.33992672 0.49984837
vt 0.43610343 0.9792853
vt 0.43610305 0.99590713
vt 0.2850706 0.23299313
vt 0.28736344 0.2021156
vt 0.31917512 0.19461095
vt 0.32633451 0.25353205
vt 0.23252656 0.23421532
vt 0.29669768 0.18816882
vt 0.30797973 0.25617701
vt 0.36749169 0.23727965
vt 0.27870226 0.29116619
vt 0.22879907 0.18517077
vt 0.26766732 0.17821193
vt 0.32190886 0.28776526
vt 0.29051858 0.25766915
vt 0.36113054 0.19983661
vt 0.36488533 0.27717489
vt 0.22336538 0.29952359
vt 0.20354028 0.20533508
vt 0.2971442 0.28815216
vt 0.39346939 0.24481863
vt 0.37693873 0.27422333
vt 0.30099404 0.30505723
vt 0.19125941 0.18500113
vt 0.18820305 0.23555768
vt 0.19021694 0.17198765
vt 0.37726784 0.30381536
vt 0.42467657 0.22767138
vt 0.39343971 0.27571929
vt 0.37916929 0.28627384
vt 0.26510188 0.38170683
vt 0.20577011 0.26149273
vt 0.41382775 0.21814179
vt 0.42364651 0.26058209
vt 0.4055326 0.27771866
vt 0.35821766 0.37725693
vt 0.17265862 0.3334285
vt 0.17692158 0.18181914
vt 0.20335586 0.28374308
vt 0.22134878 0.28655368
vt 0.46210223 0.23330516
vt 0.29458693 0.39035529
vt 0.15979475 0.29740357
vt 0.24083175 0.38291115
vt 0.15654756 0.16648716
vt 0.17309499 0.228468
vt 0.1948697 0.29038256
vt 0.41175687 0.30281872
vt 0.4626596 0.21864641
vt 0.45309323 0.25536031
vt 0.43002221 0.29291445
vt 0.32948604 0.39585233
vt 0.30129367 0.41320622
vt 0.14917424 0.31197912
vt 0.14856915 0.28405297
vt 0.25529045 0.40490019
vt 0.21284826 0.39606822
vt 0.15995127 0.19127768
vt 0.14813103 0.26129019
vt 0.41878358 0.34086365
vt 0.46246797 0.2579456
vt 0.45739099 0.28900778
vt 0.34087941 0.40639472
vt 0.25265351 0.41605794
vt 0.1490805 0.34019303
vt 0.14908414 0.39919305
vt 0.13646542 0.17212743
vt 0.14211354 0.20347905
vt 0.42287874 0.31341231
vt 0.41598436 0.37007201
vt 0.43519413 0.30988747
vt 0.34394178 0.41454566
vt 0.26454183 0.44668245
vt 0.20976149 0.41805553
vt 0.12933509 0.19779456
vt 0.38394552 0.40147746
vt 0.46327299 0.29368716
vt 0.45980522 0.31792682
vt 0.38700056 0.41669828
vt 0.32953629 0.49095893
vt 0.18024574 0.45632505
vt 0.12371884 0.17897463
vt 0.40873989 0.38657188
vt 0.43531772 0.32561606
vt 0.28187206 0.48976123
vt 0.14998312 0.44676828
vt 0.11544735 0.1964013
vt 0.11867546 0.16938376
vt 0.42769545 0.40189582
vt 0.42030656 0.32823128
vt 0.42809734 0.3491568
vt 0.3861329 0.47478193
vt 0.21796231 0.49117517
vt 0.16742432 0.49026632
vt 0.42786866 0.41371286
vt 0.44786721 0.38406676
vt 0.46638548 0.35783011
vt 0.38021266 0.48027438
vt 0.41871962 0.44299281
vt 0.15071309 0.49568439
vt 0.097589284 0.17371577
vt 0.42642274 0.43480068
vt 0.41906172 0.35419011
vt 0.4587667 0.35975069
vt 0.36463195 0.48885483
vt 0.094504341 0.1968087
vt 0.43163496 0.43084741
vt 0.43106574 0.36298972
vt 0.093783922 0.21046001
vt 0.065855294 0.17517942
vt 0.47362396 0.38947886
vt 0.42033949 0.37160397
vt 0.062921971 0.19012898
vt 0.042814516 0.17525584
vt 0.055814326 0.20592999
vt 0.03100008 0.20397693
vt 0.025601795 0.18456203
vt 0.019548213 0.20366687
vt 0.025805689 0.16816223
vt 0.019079676 0.20018637
vt 0.010738282 0.18086243
vt 0.01403901 0.19173098
vt 0.006882098 0.16582328
vt 0.0087699583 0.18493485
vt 0.006371439 0.1778214
vt 0.004667989 0.16627103
vt 0.51772422 0.70970786
vt 0.54644269 0.68302375
vt 0.54464 0.72432339
vt 0.51827002 0.74764061
vt 0.52085936 0.65523505
vt 0.54494768 0.76469034
vt 0.50492042 0.730735
vt 0.54564619 0.62592477
vt 0.50226098 0.68076903
vt 0.4983004 0.7857976
vt 0.49235237 0.69908231
vt 0.492724 0.73361397
vt 0.51441854 0.62652647
vt 0.5095669 0.65457749
vt 0.5466134 0.80744994
vt 0.46225101 0.70799273
vt 0.49574414 0.65953797
vt 0.4661082 0.75864571
vt 0.54562622 0.85890472
vt 0.50459415 0.62880385
vt 0.46187282 0.66927385
vt 0.48357847 0.67275417
vt 0.46084031 0.77588069
vt 0.47411567 0.72571206
vt 0.48779619 0.84247619
vt 0.47005048 0.65139252
vt 0.48450381 0.63183355
vt 0.45441613 0.73127317
vt 0.4416624 0.91255784
vt 0.44095516 0.80621803
vt 0.44117433 0.85316551
vt 0.54533309 0.92922086
vt 0.4593271 0.64133418
vt 0.44119826 0.78040075
vt 0.49619114 0.93026763
vt 0.46860591 0.63008952
vt 0.51468641 0.98546708
vt 0.44074917 0.98734832
vt 0.54549849 0.99260509
vt 0.47228998 0.9874301
vt 0.54410917 0.99384272
vt 0.49527961 0.9961192
vt 0.44810379 0.99493134
vt 0.51472795 0.99436855
vt 0.54548788 0.99381554
vt 0.50784785 0.99606454
vt 0.47533536 0.99529701
vt 0.47196367 0.99482894
vt 0.44541475 0.99485832
vt 0.4408282 0.99490649
vt 0.81310147 0.76445627
vt 0.82204497 0.7878685
vt 0.7557748 0.82405758
vt 0.79729319 0.75745112
vt 0.82728165 0.72610152
vt 0.82254082 0.81416303
vt 0.77334023 0.77918518
vt 0.80664784 0.86881566
vt 0.74390286 0.75330859
vt 0.77303475 0.71154094
vt 0.79614478 0.71290064
vt 0.82412618 0.84699637
vt 0.77412039 0.91682565
vt 0.73618615 0.8192333
vt 0.75747484 0.73436952
vt 0.71291208 0.86606622
vt 0.73329616 0.78358746
vt 0.74648994 0.71422994
vt 0.75254381 0.7084384
vt 0.75012898 0.95668852
vt 0.71431434 0.79150409
vt 0.71829408 0.71123075
vt 0.66756749 0.91442382
vt 0.69462049 0.77383024
vt 0.68180865 0.7448504
vt 0.70423275 0.96722001
vt 0.6574437 0.86377376
vt 0.65314603 0.84107822
vt 0.68645918 0.70666528
vt 0.72173977 0.99547338
vt 0.62885398 0.85704184
vt 0.6466158 0.81358373
vt 0.6489051 0.7614758
vt 0.64600587 0.78221267
vt 0.7167657 0.45925295
vt 0.66707695 0.53264332
vt 0.64919716 0.48771071
vt 0.69121248 0.45952785
vt 0.72446615 0.52492958
vt 0.62411463 0.52104032
vt 0.70742661 0.44883746
vt 0.73332232 0.4561125
vt 0.7156055 0.58865285
vt 0.62815511 0.50357056
vt 0.64596593 0.60794759
vt 0.73324865 0.43064505
vt 0.73584837 0.44140083
vt 0.61239398 0.51565874
vt 0.58096236 0.53718007
vt 0.73675424 0.43012393
vt 0.74528003 0.45112514
vt 0.69482338 0.61367214
vt 0.59866357 0.52475429
vt 0.5748558 0.54121983
vt 0.7520718 0.43922192
vt 0.71089071 0.62163198
vt 0.58356392 0.60058224
vt 0.7598564 0.45049071
vt 0.74177009 0.42838824
vt 0.53703737 0.5972895
vt 0.75793707 0.44378674
vt 0.75573421 0.43635064
vt 0.56124598 0.55097067
vt 0.75566709 0.43603486
vt 0.5268842 0.57510185
vt 0.5030964 0.59062755
vt 0.90146118 0.77984095
vt 0.90763575 0.78455544
vt 0.88937849 0.7825489
vt 0.89612573 0.75562698
vt 0.91661799 0.77143341
vt 0.8793819 0.75707304
vt 0.91163385 0.7990799
vt 0.91056973 0.7570352
vt 0.93640608 0.80498499
vt 0.94438499 0.76660538
vt 0.91666585 0.82182962
vt 0.9490577 0.77998519
vt 0.94528127 0.81807357
vt 0.94815946 0.78771394
vt 0.95055389 0.77094221
vt 0.93239945 0.82923114
vt 0.94903487 0.81384349
vt 0.9475891 0.80429685
vt 0.951841 0.76783901
vt 0.94401145 0.83670032
vt 0.919496 0.8499037
vt 0.94987172 0.82119441
vt 0.94925791 0.83474851
vt 0.9014551 0.86866969
vt 0.9499777 0.83989
vt 0.94006336 0.85762191
vt 0.92607534 0.8626858
vt 0.95014924 0.85137963
vt 0.94917625 0.85149825
vt 0.92000145 0.89466381
vt 0.95002496 0.85264426
vt 0.95055234 0.86735636
vt 0.9012447 0.89338624
vt 0.92842543 0.89200443
vt 0.95034021 0.86310512
vt 0.94950849 0.88497335
vt 0.91078866 0.90979242
vt 0.88812542 0.89710897
vt 0.94903165 0.88875031
vt 0.93642223 0.90516651
vt 0.9103446 0.92155004
vt 0.89478499 0.92018986
vt 0.92352509 0.91326183
vt 0.88645685 0.91931713
vt 0.94925481 0.89186925
vt 0.93441552 0.92349738
vt 0.919595 0.93474174
vt 0.90991718 0.93243009
vt 0.89572895 0.93833601
vt 0.94959843 0.89873397
vt 0.94672453 0.92725623
vt 0.94916499 0.9001469
vt 0.9436307 0.93813443
vt 0.93589783 0.94416076
vt 0.91598392 0.96825713
vt 0.90319252 0.96009725
vt 0.94952124 0.90074533
vt 0.94061345 0.95455635
vt 0.92935914 0.96099526
vt 0.88426828 0.95823741
vt 0.94673491 0.92724031
vt 0.92067796 0.98158151
vt 0.87845016 0.94633514
vt 0.94506747 0.93908238
vt 0.94209021 0.95788091
vt 0.93631721 0.98651648
vt 0.94171315 0.95421046
vt 0.94289827 0.96425873
vt 0.94215286 0.97219837
vt 0.92703778 0.99458891
vt 0.94071811 0.98488683
vt 0.93781227 0.99669737
vt 0.93824816 0.99541605
vt 0.62772983 0.72727162
vt 0.60445011 0.7684862
vt 0.60467756 0.69998586
vt 0.61972296 0.70687538
vt 0.62793547 0.72752619
vt 0.566414 0.69354904
vt 0.62683243 0.71522939
vt 0.62807429 0.77266198
vt 0.62791973 0.72742236
vt 0.56706148 0.73879802
vt 0.6280064 0.79592472
vt 0.56623244 0.79227626
vt 0.56584382 0.86576128
vt 0.62787318 0.85192817
vt 0.5838092 0.91747206
vt 0.62778497 0.87867862
vt 0.56651503 0.93241221
vt 0.62778515 0.91715467
vt 0.56651539 0.93367887
vt 0.5950287 0.93392462
vt 0.58039379 0.93356889
vt 0.61893833 0.93371564
vt 0.5895167 0.93356937
vt 0.62635034 0.93365085
vt 0.9149459 0.61949992
vt 0.88206476 0.57590985
vt 0.91555512 0.53998911
vt 0.95388925 0.59813124
vt 0.88109076 0.57708263
vt 0.89887673 0.54332852
vt 0.95495504 0.54855591
vt 0.9548105 0.66010076
vt 0.88120174 0.6159147
vt 0.88096958 0.57636583
vt 0.88152152 0.57419074
vt 0.95541281 0.52138871
vt 0.90977722 0.68126655
vt 0.8798511 0.63974535
vt 0.88130224 0.57586175
vt 0.88616729 0.55131531
vt 0.95481074 0.73831844
vt 0.88609487 0.66073006
vt 0.92359775 0.73677886
vt 0.88148797 0.69711936
vt 0.88234168 0.66020262
vt 0.94754547 0.7462464
vt 0.88268143 0.66596544
vt 0.92314678 0.74593019
vt 0.95465803 0.74629939
vt 0.88275492 0.72390008
vt 0.91766083 0.74519116
vt 0.8835851 0.74378753
vt 0.89485407 0.74536061
vt 0.88602251 0.7454263
vt 0.071076207 0.60174322
vt 0.080072008 0.6180445
vt 0.073855288 0.62942231
vt 0.055001725 0.60079396
vt 0.050146364 0.62286997
vt 0.07543093 0.58415711
vt 0.047087811 0.63878322
vt 0.040426943 0.61484516
vt 0.047965467 0.57104504
vt 0.064704068 0.64414072
vt 0.035703123 0.60178798
vt 0.028406892 0.5715754
vt 0.062285982 0.56531477
vt 0.045074385 0.66155922
vt 0.028705915 0.63156915
vt 0.023712056 0.61142099
vt 0.059449393 0.54782462
vt 0.078213386 0.57161027
vt 0.028313592 0.65503788
vt 0.060833532 0.664038
vt 0.013033246 0.58244729
vt 0.038068712 0.53587162
vt 0.07962171 0.56364125
vt 0.025859704 0.66939521
vt 0.056364808 0.67765886
vt 0.021064401 0.65285885
vt 0.016750798 0.62318021
vt 0.010538496 0.60793698
vt 0.011797336 0.56949562
vt 0.010786084 0.5505355
vt 0.056793388 0.52731788
vt 0.082322642 0.54890668
vt 0.023578009 0.66363513
vt 0.027402997 0.67474234
vt 0.04085644 0.67862928
vt 0.02021876 0.64055407
vt 0.010266379 0.62190574
vt 0.0092306491 0.61237299
vt 0.007112714 0.59149122
vt 0.010525827 0.53733289
vt 0.037068725 0.5162943
vt 0.075506464 0.53729796
vt 0.0099884169 0.61927068
vt 0.0066817296 0.59246367
vt 0.020859128 0.53312719
vt 0.049656458 0.51040739
vt 0.032794181 0.68430626
vt 0.0095500508 0.60816056
vt 0.022781314 0.51781476
vt 0.040831991 0.49500787
vt 0.0074541573 0.52092803
vt 0.016926566 0.50677335
vt 0.006698037 0.49011433
vt 0.0035344372 0.50004184
vt 0.55812413 0.35820216
vt 0.5367626 0.36503714
vt 0.54781598 0.33950233
vt 0.57229811 0.33529407
vt 0.53498214 0.39336205
vt 0.5804919 0.35026997
vt 0.56216133 0.32331508
vt 0.50319535 0.389036
vt 0.55892158 0.40441537
vt 0.58385748 0.37040603
vt 0.5523653 0.32217371
vt 0.51433152 0.40281749
vt 0.54431123 0.41601557
vt 0.60534304 0.35414141
vt 0.55742532 0.43139499
vt 0.59580666 0.41489506
vt 0.60923088 0.38286811
vt 0.51416266 0.42590129
vt 0.57886142 0.42899173
vt 0.53381044 0.43258166
vt 0.6252802 0.37542182
vt 0.56598938 0.44548768
vt 0.53978127 0.44488865
vt 0.60460556 0.44154066
vt 0.6330291 0.43755007
vt 0.6293366 0.35380566
vt 0.57256633 0.45000303
vt 0.54380584 0.45696604
vt 0.62183416 0.4669469
vt 0.5529635 0.45826185
vt 0.5834623 0.46330035
vt 0.6123693 0.48676318
vt 0.55731809 0.46758199
vt 0.60317129 0.48172313
vt 0.59137362 0.49264801
vt 0.56803143 0.47691947
vt 0.57948375 0.47497606
vt 0.57340109 0.49615926
vt 0.8527655 0.61490571
vt 0.84289581 0.56983614
vt 0.86643046 0.55358762
vt 0.8246088 0.58915257
vt 0.82216555 0.64228928
vt 0.81694657 0.56313372
vt 0.83746976 0.66782594
vt 0.82137436 0.64107156
vt 0.81819016 0.57952476
vt 0.85855168 0.63718736
vt 0.82373101 0.66448319
vt 0.81864911 0.59148699
vt 0.82137316 0.64255881
vt 0.81867474 0.58670354
vt 0.8585487 0.66784143
vt 0.82183057 0.64597106
vt 0.82681119 0.68500119
vt 0.82747209 0.69243181
vt 0.84433097 0.70248115
vt 0.82797217 0.70136774
vt 0.86048633 0.69346774
vt 0.8295393 0.70791894
vt 0.85604799 0.71484089
vt 0.77434301 0.59022707
vt 0.77687544 0.61301327
vt 0.75340879 0.63222849
vt 0.75449008 0.58903718
vt 0.7900939 0.6144228
vt 0.77577168 0.63233888
vt 0.75326747 0.5289253
vt 0.78058392 0.58270049
vt 0.75297803 0.67430693
vt 0.77374995 0.52823102
vt 0.80503047 0.58035839
vt 0.80187625 0.64218903
vt 0.77778983 0.67659175
vt 0.78441322 0.55565858
vt 0.81251228 0.59354347
vt 0.81009799 0.64119995
vt 0.78279263 0.6455366
vt 0.79066944 0.52993816
vt 0.81590086 0.62022239
vt 0.81117475 0.58019847
vt 0.80363244 0.55687594
vt 0.81135726 0.6352964
vt 0.81090802 0.64968807
vt 0.79646498 0.67329907
vt 0.79317969 0.68403006
vt 0.81288987 0.67371589
vt 0.80558413 0.67813289
vt 0.81127793 0.67977619
vt 0.80485016 0.68182456
vt 0.55935395 0.8883872
vt 0.55960745 0.91271693
vt 0.55125076 0.8941378
vt 0.55156064 0.87804163
vt 0.55081004 0.91703373
vt 0.55184966 0.85765231
vt 0.55936205 0.95508844
vt 0.55911809 0.85936564
vt 0.55132991 0.94969791
vt 0.5585292 0.84364784
vt 0.55161458 0.95696592
vt 0.55277902 0.84577727
vt 0.5591687 0.9666217
vt 0.55626011 0.84316897
vt 0.5520227 0.96738803
vt 0.55676836 0.84278816
vt 0.55457962 0.97897547
vt 0.55794054 0.97911072
vt 0.55514568 0.98154074
vt 0.55542803 0.99701244
vt 0.5551843 0.99701577
vt 0.55794239 0.99697852
vt 0.63111341 0.64518285
vt 0.62928206 0.63065207
vt 0.6502676 0.62360704
vt 0.65255427 0.64628959
vt 0.58889836 0.66448045
vt 0.63945818 0.61511576
vt 0.67535049 0.63139606
vt 0.65419465 0.66377455
vt 0.56722188 0.63770431
vt 0.61122638 0.615798
vt 0.67225558 0.61491191
vt 0.66183126 0.68442941
vt 0.70087874 0.63120902
vt 0.69860023 0.66549146
vt 0.59979677 0.68281519
vt 0.69621199 0.64805615
vt 0.69116694 0.68418348
vt 0.70510018 0.63240635
vt 0.70523006 0.64870232
vt 0.70898771 0.68022704
vt 0.70545256 0.63932574
vt 0.70572352 0.66288519
vt 0.70909035 0.68099999
vt 0.84088206 0.90432274
vt 0.83900911 0.93225425
vt 0.80971825 0.91997355
vt 0.85177243 0.92598748
vt 0.81194544 0.94776535
vt 0.85376871 0.94278711
vt 0.86064035 0.93029022
vt 0.78022617 0.94140947
vt 0.82702303 0.94862479
vt 0.8598662 0.9460296
vt 0.85296798 0.95041704
vt 0.78675562 0.93141615
vt 0.78509569 0.96175033
vt 0.82365566 0.95490062
vt 0.7760554 0.9478783
vt 0.77957749 0.97754991
vt 0.76667607 0.97089303
vt 0.76547962 0.97484952
vt 0.76221997 0.9795835
vt 0.7638309 0.98519248
vt 0.76050097 0.98112881
vt 0.75356054 0.99625933
vt 0.63952303 0.94862479
vt 0.65150911 0.93225425
vt 0.66294777 0.94182241
vt 0.98458952 0.90459138
vt 0.98318803 0.91334319
vt 0.95992494 0.90579152
vt 0.95956415 0.90363151
vt 0.9566381 0.93363595
vt 0.97512841 0.93316317
vt 0.95600206 0.93588614
vt 0.96188045 0.94694722
vt 0.95474499 0.9382211
vt 0.94706792 0.94579911
vt 0.96276897 0.96044564
vt 0.94706833 0.94590783
vt 0.94736958 0.96419257
vt 0.9458583 0.97052133
vt 0.95291996 0.9771297
vt 0.94237089 0.98190701
vt 0.94610435 0.99616349
vt 0.94451302 0.99463385
vt 0.9582181 0.99176413
vt 0.94508851 0.99603397
vt 0.94500721 0.99674237
vt 0.84104192 0.5351755
vt 0.82938814 0.51063353
vt 0.84426624 0.50464571
vt 0.85979432 0.53184706
vt 0.81630647 0.5274626
vt 0.83996785 0.48423833
vt 0.86477071 0.50585002
vt 0.85441458 0.55805445
vt 0.8615011 0.48715788
vt 0.89312178 0.52735609
vt 0.8649053 0.55337775
vt 0.87662852 0.49226028
vt 0.886747 0.51152134
vt 0.88202637 0.54305917
vt 0.89985365 0.52710187
vt 0.86639053 0.97731751
vt 0.86023408 0.99552613
vt 0.84256649 0.963893
vt 0.86694688 0.95881695
vt 0.84605914 0.97903526
vt 0.85089153 0.95237368
vt 0.85419905 0.99632668
vt 0.80970418 0.97295582
vt 0.83810526 0.95568907
vt 0.84436369 0.981637
vt 0.80653775 0.96221131
vt 0.78442609 0.97497445
vt 0.47137818 0.57541597
vt 0.44046339 0.56445169
vt 0.47252995 0.54094899
vt 0.47323656 0.54094899
vt 0.44414282 0.58927524
vt 0.45479369 0.54094887
vt 0.47590575 0.54094815
vt 0.50480169 0.62111497
vt 0.51510113 0.54894048
vt 0.46760276 0.61079621
vt 0.5019381 0.60168767
vt 0.51057786 0.54093719
vt 0.50503671 0.58610082
vt 0.51011127 0.61695266
vt 0.5165289 0.54093552
vt 0.0099213216 0.99636102
vt 0.0037678266 0.97779143
vt 0.015348168 0.9208855
vt 0.8281253 0.8573401
vt 0.82944918 0.90252531
vt 0.82465595 0.86411798
vt 0.84827399 0.8697803
vt 0.81578249 0.88605922
vt 0.83610153 0.82884377
vt 0.86370063 0.90314841
vt 0.83677834 0.82655591
vt 0.8720293 0.86258531
vt 0.8478924 0.8364228
vt 0.87275207 0.83679986
vt 0.58665138 0.98262566
vt 0.57914948 0.99452138
vt 0.5682084 0.99703789
vt 0.56990474 0.99210131
vt 0.61086959 0.97903562
vt 0.57106185 0.98487246
vt 0.59998429 0.99488026
vt 0.57314229 0.96646768
vt 0.60765952 0.9922843
vt 0.60953343 0.96554619
vt 0.56690931 0.97353268
vt 0.63327634 0.96113145
vt 0.61632061 0.96919495
vt 0.56550092 0.96827424
vt 0.87622416 0.82192588
vt 0.8830089 0.81331539
vt 0.89459282 0.82234299
vt 0.89164615 0.83374441
vt 0.8479352 0.81232226
vt 0.89750981 0.80363655
vt 0.90936106 0.83904749
vt 0.02816467 0.80787504
vt 0.021572178 0.78577757
vt 0.034873139 0.76806176
vt 0.039725043 0.76911145
vt 0.027706278 0.7573452
vt 0.039270382 0.7729885
vt 0.0044266409 0.75961185
vt 0.033765841 0.8039549
vt 0.035019036 0.80776441
vt 0.049613118 0.73679912
vt 0.040938012 0.72337604
vt 0.050920092 0.72604948
vt 0.046894725 0.7375707
vt 0.049135771 0.72043937
vt 0.04988908 0.73830825
vt 0.01276619 0.74047387
vt 0.041718587 0.71130937
vt 0.041390765 0.7444734
vt 0.0038333361 0.72434145
vt 0.019146608 0.74643475
vt 0.043879315 0.71154863
vt 0.053742088 0.74354959
vt 0.043381937 0.71080917
vt 0.067110345 0.67843449
vt 0.085998669 0.65572166
vt 0.10584531 0.68290794
vt 0.10585493 0.65287882
vt 0.1077942 0.63648725
vt 0.030489035 0.98901731
vt 0.033054031 0.99475759
vt 0.02556262 0.99683869
vt 0.018898705 0.97769648
vt 0.041519742 0.97977895
vt 0.02866072 0.96595395
vt 0.03655237 0.95993602
vt 0.019508986 0.95490414
vt 0.90750194 0.98304296
vt 0.89844787 0.99527764
vt 0.87861168 0.96842682
vt 0.8939327 0.96388692
vt 0.9160248 0.97154444
vt 0.62874883 0.90688467
vt 0.63216996 0.89588904
vt 0.64464509 0.91384041
vt 0.62900937 0.92337716
vt 0.65960735 0.92281973
vt 0.64255017 0.93413502
vt 0.85432094 0.77111077
vt 0.8767609 0.77592182
vt 0.84852773 0.80355364
vt 0.87120396 0.7893579
vt 0.8808229 0.78304797
vt 0.86547846 0.79909509
vt 0.87563103 0.78998077
vt 0.85173064 0.80826658
vt 0.62428814 0.99452049
vt 0.61392558 0.99646527
vt 0.62653148 0.97653842
vt 0.63734907 0.95820278
vt 0.61697698 0.97002292
vt 0.95700145 0.97252226
vt 0.97904861 0.97612822
vt 0.9928605 0.99635428
vt 0.1346544 0.99521482
vt 0.12177438 0.98900336
vt 0.11349566 0.96514374
vt 0.66295314 0.98027694
vt 0.65292841 0.95986027
vt 0.67103273 0.98027581
vt 0.64701843 0.97369862
vt 0.6691981 0.9694463
vt 0.65057564 0.98027676
vt 0.67357296 0.98027402
vt 0.64431232 0.98027635
vt 0.74145353 0.97767645
vt 0.76817715 0.95697355
vt 0.76807791 0.96152699
vt 0.74775332 0.97683901
vt 0.76290518 0.95610154
vt 0.74094146 0.9802835
vt 0.74267662 0.9722625
vt 0.73918295 0.97802365
vt 0.73889285 0.97405648
vt 0.68235749 0.96405989
vt 0.70025265 0.97186577
vt 0.67955828 0.96778393
vt 0.67605239 0.9655562
vt 0.69378442 0.98088717
vt 0.015136262 0.99547577
vt 0.012594368 0.98208821
vt 0.016741203 0.97025275
vt 0.055944804 0.97513074
vt 0.041281153 0.99511963
vt 0.041422281 0.97914809
vt 0.035919413 0.99124926
vt 0.73443556 0.99445802
vt 0.72281003 0.99514258
vt 0.74110812 0.98019964
vt 0.11428431 0.99648976
vt 0.11292587 0.98567355
vt 0.12820788 0.99551982
vt 0.11253249 0.99183035
vt 0.10542417 0.98516178
vt 0.10545251 0.98515356
vt 0.10997685 0.99548787
vt 0.10542752 0.98514062
vt 0.11197437 0.99523962
vt 0.003808731 0.99118096
vt 0.0069893068 0.99189931
vt 0.0048417798 0.99513036
vt 0.0033659057 0.99048322
vt 0.0049633514 0.99093139
vt 0.0036411905 0.99569893
vt 0.0058924085 0.9922694
vt 0.0047077048 0.99198353
vt 0.0057914052 0.99153346
vt 0.0054614232 0.99685037
vt 0.012676816 0.99282861
vt 0.013525387 0.99228448
vt 0.012333553 0.99476612
vt 0.014902854 0.99579185
vt 0.0041962443 0.99553734
vt 0.0034395161 0.99522692
vt 0.0039471947 0.99340284
usemtl Tile_+031_+023_L19_000114_0
f 2/326 1/327 417/328
f 298/1 133/2 140/3
f 334/23 325/17 290/11
f 78/118 336/119 322/120
f 306/825 297/826 304/827
f 219/198 35/185 308/204
f 323/18 338/33 326/37
f 78/118 322/120 276/121
f 341/747 287/748 464/749
f 313/735 304/736 296/737
f 295/651 319/652 333/653
f 125/720 100/721 121/722
f 107/358 27/359 106/360
f 20/797 21/798 129/799
f 327/160 347/153 303/173
f 327/49 351/44 332/41
f 351/44 345/69 352/62
f 110/228 352/225 346/221
f 314/60 345/69 351/44
f 118/292 259/293 183/294
f 10/368 64/378 26/381
f 13/539 12/540 109/541
f 110/228 346/221 100/224
f 96/47 326/37 329/43
f 294/742 296/737 307/739
f 97/53 96/47 329/43
f 321/54 329/43 574/48
f 97/656 320/661 333/653
f 314/60 351/44 328/55
f 332/41 331/36 316/35
f 315/197 328/182 339/190
f 463/753 341/747 465/750
f 105/756 104/751 117/754
f 281/122 278/140 349/134
f 121/722 120/725 350/728
f 339/833 122/834 348/835
f 122/296 119/295 348/302
f 348/302 119/295 99/301
f 278/140 302/161 347/153
f 351/44 327/49 328/55
f 343/139 349/134 278/140
f 311/832 305/830 313/828
f 281/122 317/127 336/119
f 105/313 116/309 74/300
f 107/358 108/361 103/362
f 337/32 334/23 322/29
f 66/577 287/578 104/579
f 317/127 349/134 343/139
f 317/127 281/122 349/134
f 117/310 115/306 116/309
f 278/140 347/153 343/139
f 348/835 350/836 339/833
f 345/216 346/221 352/225
f 121/722 350/728 98/726
f 344/545 101/542 109/541
f 346/221 120/202 100/224
f 339/190 120/202 315/197
f 127/367 103/362 340/365
f 120/837 339/833 350/836
f 100/721 125/720 124/724
f 331/36 332/41 351/44
f 336/119 317/127 316/128
f 468/582 24/580 469/585
f 127/755 340/759 341/747
f 108/757 117/754 341/747
f 322/29 334/23 290/11
f 104/751 341/747 117/754
f 117/310 116/309 105/313
f 99/732 117/734 342/729
f 340/759 108/757 341/747
f 328/182 303/173 339/190
f 303/173 122/183 339/190
f 121/722 100/721 120/725
f 344/838 110/839 102/840
f 318/30 338/33 323/18
f 316/35 318/30 337/32
f 336/119 316/128 337/123
f 322/120 336/119 337/123
f 334/23 318/30 325/17
f 318/30 323/18 325/17
f 309/657 335/654 333/653
f 331/36 338/33 318/30
f 310/790 324/791 330/792
f 320/844 321/845 114/846
f 114/846 113/847 578/849
f 323/794 324/791 310/790
f 298/1 310/12 291/9
f 335/654 309/657 112/658
f 311/738 313/735 296/737
f 335/654 112/658 295/651
f 326/659 319/652 18/655
f 307/739 296/737 304/736
f 306/825 305/830 18/831
f 323/18 310/12 298/1
f 111/664 131/667 19/662
f 290/11 325/17 298/1
f 18/796 330/792 326/795
f 326/795 330/792 324/791
f 115/306 74/300 116/309
f 326/795 324/791 323/794
f 293/13 291/9 310/12
f 290/131 284/125 322/120
f 290/11 298/1 300/8
f 309/657 312/666 111/664
f 330/792 18/796 311/793
f 141/600 36/601 23/602
f 332/141 317/127 343/139
f 113/847 321/845 573/848
f 98/726 342/729 123/723
f 97/656 333/653 319/652
f 327/160 332/141 347/153
f 120/202 345/216 314/203
f 328/182 315/197 314/203
f 321/54 97/53 329/43
f 321/54 320/67 97/53
f 320/661 309/657 333/653
f 326/659 96/660 319/652
f 332/141 343/139 347/153
f 331/36 318/30 316/35
f 328/182 327/160 303/173
f 350/728 348/731 98/726
f 104/751 287/748 341/747
f 314/203 315/197 120/202
f 316/128 317/127 332/141
f 129/26 131/25 581/34
f 583/669 312/666 584/671
f 233/184 235/186 234/199
f 141/600 143/603 84/606
f 144/242 143/243 23/244
f 298/1 301/4 300/8
f 278/140 281/122 282/147
f 132/10 133/2 292/5
f 237/175 35/185 31/151
f 18/831 305/830 311/832
f 311/24 293/13 310/12
f 307/739 86/744 294/742
f 135/156 288/165 95/149
f 64/378 267/384 26/381
f 419/345 246/351 420/354
f 135/274 94/277 62/268
f 312/666 309/657 114/663
f 278/140 259/174 302/161
f 265/158 260/170 44/133
f 55/591 30/597 215/595
f 238/163 271/166 233/184
f 198/576 210/574 211/575
f 69/154 45/162 278/140
f 122/183 302/161 259/174
f 69/154 280/155 44/133
f 212/398 244/394 50/387
f 90/405 212/398 200/404
f 88/455 167/456 169/457
f 246/195 180/168 32/187
f 180/168 246/195 253/188
f 246/195 254/200 253/188
f 236/193 235/186 272/177
f 35/674 34/675 222/676
f 89/210 308/204 222/211
f 34/888 221/889 240/890
f 226/679 221/684 34/675
f 185/330 252/334 1/327
f 205/408 38/410 207/403
f 250/311 185/314 48/307
f 188/572 197/573 43/569
f 228/264 277/259 52/251
f 179/860 181/861 176/862
f 71/135 275/130 79/124
f 165/431 159/432 149/433
f 423/459 88/455 424/463
f 165/431 164/434 585/437
f 158/273 161/276 243/270
f 239/266 166/260 243/270
f 18/831 86/829 306/825
f 10/559 25/555 125/552
f 104/320 286/316 66/324
f 473/380 9/370 474/379
f 125/552 25/555 14/548
f 74/300 270/308 279/312
f 122/296 259/293 118/292
f 304/736 297/741 307/739
f 260/170 259/174 278/140
f 261/553 263/551 81/547
f 183/294 285/298 119/295
f 278/140 282/147 69/154
f 263/551 126/543 81/547
f 45/162 44/133 260/170
f 306/825 313/828 305/830
f 298/1 291/9 292/5
f 306/825 86/829 297/826
f 294/742 132/745 296/737
f 311/793 310/790 330/792
f 119/295 285/298 99/301
f 306/825 304/827 313/828
f 132/745 292/743 296/737
f 296/737 293/740 311/738
f 292/5 291/9 293/13
f 319/652 295/651 18/655
f 296/737 292/743 293/740
f 292/5 133/2 298/1
f 122/183 303/173 302/161
f 285/298 115/306 99/301
f 284/125 276/121 322/120
f 78/118 281/122 336/119
f 58/136 284/125 290/131
f 301/4 298/1 140/3
f 140/3 61/7 301/4
f 135/156 289/143 94/164
f 299/16 300/8 289/21
f 289/21 300/8 94/15
f 300/8 299/16 290/11
f 289/143 58/136 290/131
f 290/131 299/148 289/143
f 57/176 272/177 288/165
f 289/143 95/149 58/136
f 139/258 56/263 136/267
f 284/125 283/132 276/121
f 284/125 58/136 73/144
f 57/262 136/267 56/263
f 288/165 135/156 57/176
f 135/274 136/267 57/262
f 183/294 269/305 74/300
f 104/320 105/313 286/316
f 74/300 285/298 183/294
f 59/150 95/149 271/166
f 72/142 283/132 82/145
f 271/166 238/163 59/150
f 144/242 153/248 245/252
f 235/186 271/166 272/177
f 71/135 225/138 274/126
f 225/138 72/142 31/151
f 72/142 238/163 31/151
f 225/138 70/129 72/142
f 271/166 235/186 233/184
f 153/248 150/253 245/252
f 150/253 151/265 273/257
f 44/133 274/126 225/138
f 78/118 275/130 274/126
f 238/163 72/142 59/150
f 95/149 288/165 272/177
f 57/857 56/858 145/859
f 272/177 273/192 236/193
f 145/250 245/252 273/257
f 95/149 272/177 271/166
f 279/312 270/308 269/305
f 273/257 57/262 145/250
f 83/137 283/132 284/125
f 70/129 276/121 283/132
f 72/142 70/129 283/132
f 275/130 71/135 274/126
f 276/121 70/129 79/124
f 44/762 280/763 281/764
f 282/147 281/122 280/155
f 281/122 274/126 44/133
f 80/557 256/560 261/553
f 270/308 74/300 269/305
f 48/307 269/305 183/294
f 174/152 264/169 265/158
f 48/307 75/315 279/312
f 260/170 278/140 45/162
f 184/299 183/294 260/297
f 475/396 267/384 476/393
f 267/384 64/378 68/383
f 77/583 55/591 477/594
f 279/312 269/305 48/307
f 55/323 75/315 30/319
f 75/315 55/323 268/325
f 55/591 77/583 268/586
f 48/307 30/319 75/315
f 482/389 68/383 483/392
f 76/346 266/338 425/341
f 183/294 259/293 260/297
f 50/387 213/390 26/381
f 26/381 267/384 50/387
f 213/390 244/394 172/399
f 213/390 49/395 26/381
f 425/341 2/326 428/337
f 76/346 215/342 266/338
f 214/333 2/326 266/338
f 486/349 76/346 487/352
f 485/407 206/397 490/402
f 50/387 244/394 213/390
f 261/553 256/560 258/561
f 257/852 255/853 262/854
f 262/854 256/856 80/855
f 174/152 265/158 44/133
f 184/180 264/169 174/152
f 260/297 264/303 184/299
f 210/485 198/486 199/487
f 80/557 46/562 42/565
f 260/170 265/158 264/169
f 41/571 257/568 42/565
f 42/565 257/568 80/557
f 255/566 258/561 256/560
f 256/856 262/854 255/853
f 185/314 250/311 252/317
f 93/336 254/348 419/345
f 161/276 155/281 241/279
f 249/343 93/336 252/334
f 252/334 251/347 249/343
f 249/209 250/201 92/196
f 249/209 251/215 250/201
f 250/311 251/321 252/317
f 250/201 171/181 92/196
f 93/336 1/327 252/334
f 179/179 253/188 201/189
f 171/181 201/189 92/196
f 253/188 92/196 201/189
f 197/573 211/575 43/569
f 248/427 247/419 192/423
f 492/429 192/423 493/430
f 191/416 192/423 247/419
f 38/410 193/411 207/403
f 203/498 248/519 491/518
f 248/519 203/498 247/509
f 176/146 177/157 180/168
f 180/168 177/157 178/167
f 1/327 93/336 216/331
f 216/331 93/336 429/340
f 242/458 243/462 88/455
f 89/210 222/211 431/222
f 229/461 242/458 169/457
f 222/676 34/675 223/678
f 37/194 89/210 432/217
f 217/191 37/194 31/151
f 160/278 156/280 634/282
f 166/260 239/266 52/251
f 633/284 155/281 639/289
f 243/462 241/471 162/467
f 241/279 243/270 161/276
f 243/462 162/467 88/455
f 241/471 163/473 162/467
f 163/473 241/471 642/476
f 185/330 2/326 214/333
f 244/394 212/398 172/399
f 35/820 237/821 230/822
f 232/206 231/205 234/199
f 154/245 52/251 150/253
f 233/824 231/823 237/821
f 238/163 237/175 31/151
f 232/206 234/199 236/193
f 236/269 277/259 228/264
f 234/199 235/186 236/193
f 228/212 232/206 236/193
f 240/223 232/206 224/219
f 232/206 228/212 224/219
f 227/677 230/680 220/683
f 220/683 226/679 227/677
f 227/677 226/679 34/675
f 230/680 227/677 35/674
f 218/892 32/893 178/894
f 220/227 230/218 240/223
f 230/218 232/206 240/223
f 240/890 221/889 220/891
f 222/676 223/678 437/681
f 52/251 239/266 228/264
f 223/275 228/264 229/271
f 228/264 239/266 229/271
f 33/686 223/678 169/689
f 224/696 34/697 240/698
f 31/151 176/146 225/138
f 224/682 228/687 223/678
f 223/466 229/461 169/457
f 34/675 224/682 223/678
f 308/204 89/210 219/198
f 221/684 226/679 220/683
f 178/167 32/187 180/168
f 218/178 31/151 32/187
f 31/151 37/194 32/187
f 217/191 31/151 35/185
f 35/185 219/198 217/191
f 217/191 219/198 37/194
f 219/198 89/210 37/194
f 185/330 1/327 2/326
f 214/322 30/319 29/318
f 214/333 266/338 215/342
f 185/314 214/322 29/318
f 30/597 214/599 215/595
f 206/397 51/391 475/396
f 205/408 209/409 484/414
f 207/403 208/400 206/397
f 472/898 205/899 488/900
f 208/400 50/387 206/397
f 205/408 207/403 206/397
f 206/397 209/409 205/408
f 173/401 172/399 197/406
f 188/572 173/570 197/573
f 90/405 197/406 172/399
f 212/398 208/400 200/404
f 204/412 91/413 90/405
f 208/400 207/403 200/404
f 200/404 191/416 204/412
f 197/573 198/576 211/575
f 212/398 90/405 172/399
f 195/488 210/485 199/487
f 210/485 195/488 41/490
f 211/575 210/574 43/569
f 41/571 43/569 210/574
f 191/416 39/415 500/422
f 189/503 203/498 496/508
f 495/426 191/416 501/425
f 190/499 189/503 503/510
f 186/491 91/494 203/498
f 203/498 189/503 186/491
f 186/491 189/503 190/499
f 204/504 203/498 91/494
f 203/498 204/504 247/509
f 204/412 191/416 247/419
f 91/494 186/491 199/487
f 39/415 191/416 200/404
f 200/404 193/411 39/415
f 197/406 91/413 199/417
f 90/405 200/404 204/412
f 193/411 200/404 207/403
f 199/417 198/420 197/406
f 173/570 188/572 46/562
f 199/487 194/489 195/488
f 186/491 194/489 199/487
f 190/499 187/492 186/491
f 187/492 194/489 186/491
f 195/488 194/489 187/492
f 184/299 171/304 183/294
f 48/307 171/304 250/311
f 182/172 201/189 171/181
f 201/189 182/172 179/179
f 181/171 179/179 175/159
f 182/172 175/159 179/179
f 179/179 176/146 180/168
f 31/151 218/178 178/167
f 178/167 177/157 31/151
f 44/133 176/146 174/152
f 182/172 174/152 175/159
f 171/181 174/152 182/172
f 172/399 173/401 49/395
f 176/146 175/159 174/152
f 31/151 177/157 176/146
f 49/567 173/570 46/562
f 49/395 213/390 172/399
f 154/245 152/247 52/251
f 152/436 149/433 159/432
f 149/433 164/434 165/431
f 168/460 169/457 167/456
f 168/460 167/456 444/465
f 446/690 169/689 447/691
f 159/432 165/431 587/435
f 53/440 159/432 166/442
f 53/440 152/436 159/432
f 597/863 149/864 598/865
f 170/624 146/623 591/626
f 60/604 20/610 600/614
f 154/245 144/242 23/244
f 162/467 87/472 88/455
f 451/629 450/630 626/631
f 452/474 163/473 453/480
f 87/472 162/467 452/474
f 458/641 456/646 629/645
f 638/449 157/445 645/451
f 158/273 156/280 160/278
f 166/442 159/432 158/443
f 158/443 157/445 156/447
f 158/443 159/432 604/441
f 637/283 160/278 640/287
f 166/260 158/273 243/270
f 158/273 160/278 161/276
f 157/445 158/443 605/444
f 647/450 607/448 652/452
f 145/250 138/255 134/246
f 134/246 138/255 61/254
f 608/615 60/604 609/621
f 147/611 148/616 22/605
f 144/242 154/245 153/248
f 60/604 147/611 22/605
f 149/612 152/608 22/605
f 154/245 23/244 152/247
f 149/612 148/616 146/623
f 153/248 154/245 150/253
f 150/253 277/259 151/265
f 22/605 148/616 149/612
f 147/611 146/623 148/616
f 142/607 130/613 20/610
f 139/258 138/255 145/250
f 130/613 16/617 21/620
f 143/243 144/242 134/246
f 60/604 142/607 20/610
f 141/600 142/607 60/604
f 60/604 36/601 141/600
f 130/613 142/607 17/609
f 142/607 141/600 17/609
f 86/744 19/746 294/742
f 295/651 112/658 18/655
f 131/667 111/664 576/670
f 17/609 141/600 84/606
f 84/6 61/7 140/3
f 140/3 133/2 84/6
f 137/261 139/258 62/268
f 137/261 138/255 139/258
f 61/254 138/255 137/261
f 136/267 135/274 62/268
f 84/249 143/243 134/246
f 134/246 61/254 84/249
f 84/6 133/2 132/10
f 19/19 131/25 128/14
f 20/797 129/799 582/800
f 85/801 129/799 21/798
f 17/609 16/617 130/613
f 128/14 131/25 129/26
f 85/20 128/14 129/26
f 125/720 123/723 28/727
f 67/366 127/367 470/369
f 126/543 13/539 81/547
f 24/580 54/581 506/584
f 47/554 46/562 80/557
f 24/580 287/578 66/577
f 342/729 106/733 123/723
f 66/324 286/316 75/315
f 100/842 102/840 110/839
f 123/723 125/720 121/722
f 14/548 81/547 13/539
f 110/549 344/545 109/541
f 13/539 109/541 101/542
f 124/544 13/539 101/542
f 124/544 125/552 14/548
f 103/362 27/359 107/358
f 123/723 106/733 27/730
f 115/306 117/310 99/301
f 122/296 118/292 119/295
f 342/760 117/754 108/757
f 303/173 347/153 302/161
f 106/360 342/363 108/361
f 108/361 107/358 106/360
f 67/366 28/364 103/362
f 28/364 27/359 103/362
f 67/366 103/362 127/367
f 108/361 340/365 103/362
f 346/221 345/216 120/202
f 101/841 344/838 102/840
f 121/722 98/726 123/723
f 124/843 101/841 100/842
f 102/840 100/842 101/841
f 348/731 99/732 98/726
f 342/729 98/726 99/732
f 114/663 309/657 320/661
f 337/32 318/30 334/23
f 321/845 113/847 114/846
f 335/654 295/651 333/653
f 309/657 111/664 112/658
f 325/17 323/18 298/1
f 312/666 114/663 579/668
f 319/652 96/660 97/656
f 85/801 21/798 16/803
f 65/377 11/373 9/370
f 54/581 77/583 481/587
f 128/14 85/20 84/6
f 598/865 170/867 599/869
f 86/744 307/739 297/741
f 17/27 84/6 85/20
f 82/145 283/132 83/137
f 73/144 82/145 83/137
f 289/143 135/156 95/149
f 61/7 300/8 301/4
f 80/557 261/553 81/547
f 276/121 79/124 78/118
f 66/577 268/586 77/583
f 253/188 93/208 92/196
f 197/406 90/405 91/413
f 232/206 230/218 231/205
f 74/300 115/306 285/298
f 81/547 47/554 80/557
f 508/374 67/366 509/375
f 77/583 54/581 66/577
f 64/378 11/373 65/377
f 68/383 64/378 65/377
f 480/385 65/377 512/382
f 14/548 25/555 47/554
f 81/547 14/548 47/554
f 63/386 68/383 65/377
f 183/294 171/304 48/307
f 64/378 10/368 11/373
f 119/295 118/292 183/294
f 281/122 78/118 274/126
f 79/124 275/130 78/118
f 145/250 134/246 144/242
f 68/383 63/386 479/388
f 61/7 137/28 62/22
f 62/22 94/15 61/7
f 300/8 61/7 94/15
f 145/250 56/263 139/258
f 73/144 58/136 59/150
f 58/136 95/149 59/150
f 62/268 139/258 136/267
f 73/144 83/137 284/125
f 66/577 54/581 24/580
f 268/325 66/324 75/315
f 279/312 75/315 74/300
f 286/316 105/313 74/300
f 75/315 286/316 74/300
f 236/269 273/257 151/265
f 44/133 45/162 69/154
f 245/252 150/253 273/257
f 52/251 277/259 150/253
f 72/142 82/145 73/144
f 70/129 225/138 71/135
f 73/144 59/150 72/142
f 273/192 272/177 57/176
f 143/603 141/600 23/602
f 71/135 79/124 70/129
f 69/154 282/147 280/155
f 477/594 215/595 497/596
f 51/391 50/387 267/384
f 26/563 49/567 46/562
f 48/307 185/314 29/318
f 51/391 206/397 50/387
f 80/855 257/852 262/854
f 46/562 47/554 26/563
f 188/572 43/569 46/562
f 46/562 43/569 42/565
f 43/569 41/571 42/565
f 257/502 41/490 40/497
f 249/209 92/196 93/208
f 253/188 254/200 93/208
f 39/415 38/410 471/421
f 180/168 253/188 179/179
f 242/458 88/455 169/457
f 437/681 33/686 460/688
f 32/187 37/194 246/195
f 242/272 229/271 239/266
f 246/195 37/194 434/207
f 243/270 242/272 239/266
f 155/281 161/276 160/278
f 277/259 236/269 151/265
f 238/163 233/184 237/175
f 231/205 233/184 234/199
f 237/821 231/823 230/822
f 34/675 35/674 227/677
f 308/204 35/185 222/211
f 169/689 168/693 443/692
f 417/328 216/331 435/335
f 48/307 29/318 30/319
f 208/400 212/398 50/387
f 39/415 193/411 38/410
f 176/146 44/133 225/138
f 184/180 174/152 171/181
f 176/146 181/171 175/159
f 592/622 147/611 608/615
f 166/260 52/251 53/256
f 152/247 53/256 52/251
f 449/468 87/472 455/475
f 22/605 36/601 60/604
f 152/608 23/602 22/605
f 36/601 22/605 23/602
f 146/623 170/624 149/612
f 144/242 245/252 145/250
f 132/10 128/14 84/6
f 19/662 112/658 111/664
f 112/658 19/662 18/655
f 86/665 18/655 19/662
f 294/742 19/746 132/745
f 128/14 132/10 19/19
f 17/27 85/20 16/31
f 21/620 20/610 130/613
f 10/559 26/563 25/555
f 123/723 27/730 28/727
f 28/364 67/366 10/368
f 11/373 10/368 9/370
f 10/368 67/366 9/370
f 28/564 10/559 125/552
f 25/555 26/563 47/554
f 13/539 124/544 14/548
f 516/806 8/807 517/808
f 411/46 403/65 404/75
f 4/814 412/809 518/811
f 5/776 4/777 519/778
f 392/787 398/788 408/785
f 406/66 405/85 611/92
f 389/524 378/529 382/506
f 352/62 365/71 395/56
f 369/57 6/72 355/81
f 416/45 407/39 397/42
f 359/99 358/116 613/113
f 401/50 392/63 369/57
f 411/46 416/45 402/51
f 404/75 359/99 614/109
f 403/65 402/51 370/74
f 414/782 4/777 415/780
f 412/809 4/814 414/816
f 8/807 412/809 413/812
f 398/815 8/807 413/812
f 415/780 413/784 414/782
f 414/816 413/812 412/809
f 4/777 5/776 415/780
f 5/776 368/783 415/780
f 398/78 399/61 400/86
f 403/65 411/46 402/51
f 402/51 394/64 370/74
f 369/57 391/73 394/64
f 402/51 416/45 397/42
f 365/229 366/232 367/234
f 7/88 6/72 368/80
f 359/99 404/75 353/91
f 525/810 400/813 532/817
f 398/788 415/780 408/785
f 399/61 395/56 367/70
f 396/238 15/236 539/240
f 386/699 388/700 523/701
f 360/231 366/232 365/229
f 366/232 360/231 547/233
f 352/225 110/228 365/229
f 326/37 338/33 3/40
f 331/36 407/39 338/33
f 338/33 407/39 3/40
f 3/40 407/39 411/46
f 574/48 3/40 617/52
f 617/52 411/46 618/58
f 403/65 370/74 404/75
f 406/66 411/46 404/75
f 405/85 404/75 616/93
f 406/66 404/75 405/85
f 392/63 6/72 369/57
f 369/57 357/82 391/73
f 401/50 395/56 399/61
f 351/44 397/42 331/36
f 528/95 396/79 540/104
f 369/57 397/42 401/50
f 401/50 397/42 351/44
f 538/94 399/61 549/96
f 399/61 398/78 392/63
f 396/79 409/87 399/61
f 549/96 409/87 550/106
f 401/50 351/44 395/56
f 354/83 370/74 394/64
f 353/91 404/75 370/74
f 394/64 391/73 354/83
f 357/82 390/89 391/73
f 370/74 393/90 353/91
f 354/83 391/73 390/89
f 354/83 390/89 356/98
f 7/88 355/81 6/72
f 354/83 353/91 393/90
f 369/57 394/64 402/51
f 399/61 392/63 401/50
f 331/36 397/42 407/39
f 369/57 402/51 397/42
f 407/39 416/45 411/46
f 15/236 396/238 367/234
f 365/71 367/70 395/56
f 395/56 351/44 352/62
f 326/37 3/40 329/43
f 364/534 385/530 376/525
f 524/703 384/704 553/705
f 554/528 380/512 555/532
f 382/506 376/525 381/515
f 381/515 383/526 363/501
f 362/496 373/505 379/513
f 375/514 389/524 382/506
f 196/500 380/512 373/505
f 374/493 40/497 41/490
f 382/506 378/529 376/525
f 556/765 386/766 557/767
f 377/533 389/524 384/535
f 386/766 361/768 364/771
f 559/708 375/709 560/710
f 388/538 387/536 384/535
f 376/525 377/533 387/536
f 384/535 387/536 377/533
f 378/529 389/524 377/533
f 376/525 387/536 364/534
f 385/550 364/546 126/543
f 388/538 386/537 387/536
f 386/537 364/534 387/536
f 376/525 385/530 381/515
f 376/525 378/529 377/533
f 261/553 383/558 263/551
f 258/561 383/558 261/553
f 553/705 389/706 558/707
f 383/558 381/556 263/551
f 381/515 363/501 382/506
f 255/507 257/502 40/497
f 375/709 379/713 561/712
f 371/523 373/505 380/512
f 373/505 362/496 372/495
f 373/717 371/715 379/713
f 562/714 371/715 563/716
f 362/496 374/493 195/488
f 255/507 40/497 363/501
f 383/526 258/516 363/501
f 258/516 255/507 363/501
f 382/506 362/496 375/514
f 40/497 374/493 363/501
f 202/880 190/881 566/882
f 372/495 195/488 187/492
f 190/499 196/500 187/492
f 196/500 372/495 187/492
f 195/488 374/493 41/490
f 372/495 196/500 373/505
f 195/488 372/495 362/496
f 196/500 202/511 567/521
f 568/522 196/500 569/527
f 190/499 202/511 196/500
f 410/871 15/872 537/873
f 368/783 408/785 415/780
f 398/815 400/813 8/807
f 393/90 370/74 354/83
f 357/82 369/57 355/81
f 413/885 415/886 398/887
f 522/97 368/80 551/107
f 368/783 5/776 526/781
f 392/787 408/785 368/783
f 536/237 366/232 548/235
f 539/875 410/871 544/877
f 366/232 15/236 367/234
f 365/229 110/228 109/230
f 109/230 360/231 365/229
f 618/58 406/66 621/76
f 367/70 396/79 399/61
f 368/80 6/72 392/63
f 360/774 109/775 12/773
f 362/496 379/513 375/514
f 12/540 13/539 126/543
f 12/540 126/543 364/546
f 364/771 361/768 12/773
f 126/543 263/551 385/550
f 381/556 385/550 263/551
f 382/506 363/501 362/496
f 363/501 374/493 362/496
f 547/772 361/768 570/770
f 361/768 360/774 12/773
f 356/98 390/89 357/82
f 417/328 1/327 216/331
f 418/329 2/326 417/328
f 419/345 254/348 246/351
f 420/354 246/351 421/356
f 421/356 246/351 422/357
f 422/220 246/195 459/213
f 423/459 167/456 88/455
f 424/463 88/455 449/468
f 425/341 266/338 2/326
f 426/350 76/346 425/341
f 427/332 2/326 418/329
f 428/337 2/326 427/332
f 429/340 93/336 419/345
f 430/344 216/331 429/340
f 431/222 222/211 438/226
f 432/217 89/210 431/222
f 433/214 37/194 432/217
f 434/207 37/194 433/214
f 435/335 216/331 436/339
f 436/339 216/331 430/344
f 437/681 223/678 33/686
f 438/685 222/676 437/681
f 440/638 439/636 594/634
f 441/464 167/456 423/459
f 442/694 168/693 445/695
f 443/692 168/693 442/694
f 444/465 167/456 448/469
f 445/470 168/460 444/465
f 446/690 33/686 169/689
f 447/691 169/689 443/692
f 448/469 167/456 441/464
f 449/468 88/455 87/472
f 594/634 451/629 627/632
f 452/474 162/467 163/473
f 453/480 163/473 461/482
f 454/477 87/472 452/474
f 455/475 87/472 454/477
f 602/633 457/635 603/637
f 630/639 458/641 631/643
f 511/353 426/350 571/355
f 459/213 246/195 434/207
f 460/688 33/686 446/690
f 461/482 163/473 644/481
f 462/758 127/755 463/753
f 463/753 127/755 341/747
f 464/749 287/748 468/752
f 465/750 341/747 464/749
f 466/761 127/755 462/758
f 467/372 127/367 466/376
f 468/582 287/578 24/580
f 469/585 24/580 515/590
f 470/369 127/367 467/372
f 471/903 38/901 472/898
f 472/898 38/901 205/899
f 473/380 65/377 9/370
f 474/379 9/370 508/374
f 475/396 51/391 267/384
f 476/393 267/384 482/389
f 477/594 55/591 215/595
f 478/593 77/583 477/594
f 479/388 63/386 480/385
f 480/385 63/386 65/377
f 481/587 77/583 478/593
f 482/389 267/384 68/383
f 483/392 68/383 479/388
f 484/918 209/919 485/920
f 485/407 209/409 206/397
f 486/349 215/342 76/346
f 487/352 76/346 511/353
f 488/900 205/899 489/902
f 489/418 205/408 484/414
f 490/402 206/397 475/396
f 491/518 248/519 492/531
f 492/429 248/427 192/423
f 493/430 192/423 494/428
f 494/428 192/423 495/426
f 495/426 192/423 191/416
f 496/508 203/498 491/518
f 497/596 215/595 486/598
f 498/910 39/911 499/912
f 499/424 39/415 471/421
f 500/913 39/911 498/910
f 501/425 191/416 500/422
f 502/517 189/503 496/508
f 503/510 189/503 502/517
f 504/520 190/499 503/510
f 505/371 67/366 470/369
f 506/584 54/581 513/589
f 507/588 24/580 506/584
f 508/374 9/370 67/366
f 509/375 67/366 505/371
f 510/592 54/581 481/587
f 511/353 76/346 426/350
f 512/382 65/377 473/380
f 513/914 54/915 514/916
f 514/916 54/915 510/917
f 515/590 24/580 507/588
f 516/806 412/809 8/807
f 517/808 8/807 525/810
f 518/811 412/809 516/806
f 519/818 4/814 518/811
f 520/779 5/776 519/778
f 521/108 7/88 522/97
f 522/97 7/88 368/80
f 523/701 388/700 524/703
f 524/703 388/700 384/704
f 525/810 8/807 400/813
f 526/781 5/776 520/779
f 527/105 409/87 528/95
f 528/95 409/87 396/79
f 529/112 7/88 521/108
f 530/110 400/86 531/103
f 531/103 400/86 538/94
f 532/817 400/813 535/819
f 533/789 368/783 534/786
f 534/786 368/783 526/781
f 535/114 400/86 530/110
f 536/237 15/236 366/232
f 537/239 15/236 536/237
f 538/94 400/86 399/61
f 539/875 15/872 410/871
f 540/241 396/238 539/240
f 541/702 386/699 523/701
f 542/878 410/871 545/876
f 543/879 410/871 542/878
f 544/877 410/871 543/879
f 545/876 410/871 546/874
f 546/874 410/871 537/873
f 547/772 360/774 361/768
f 548/235 366/232 547/233
f 549/96 399/61 409/87
f 550/904 409/905 527/906
f 551/107 368/80 552/111
f 552/111 368/80 533/115
f 553/705 384/704 389/706
f 554/528 371/523 380/512
f 555/907 380/908 568/909
f 556/765 361/768 386/766
f 557/767 386/766 541/769
f 558/707 389/706 559/708
f 559/708 389/706 375/709
f 560/710 375/709 565/711
f 561/712 379/713 562/714
f 562/714 379/713 371/715
f 563/716 371/715 564/718
f 564/718 371/715 554/719
f 565/711 375/709 561/712
f 566/882 190/881 504/884
f 567/883 202/880 566/882
f 568/522 380/512 196/500
f 569/527 196/500 567/521
f 570/770 361/768 556/765
f 572/68 321/54 575/59
f 573/77 321/54 572/68
f 574/48 329/43 3/40
f 575/59 321/54 574/48
f 576/670 111/664 577/672
f 577/672 111/664 583/669
f 578/849 113/847 580/850
f 579/851 114/846 578/849
f 580/850 113/847 573/848
f 581/673 131/667 576/670
f 582/38 129/26 581/34
f 583/669 111/664 312/666
f 584/671 312/666 579/668
f 585/870 164/866 595/868
f 586/439 165/431 585/437
f 587/435 165/431 586/439
f 588/802 20/797 582/800
f 589/804 20/797 588/802
f 590/627 146/623 593/625
f 591/895 146/896 590/897
f 592/622 146/623 147/611
f 593/625 146/623 592/622
f 594/634 439/636 451/629
f 595/868 164/866 597/863
f 596/438 159/432 587/435
f 597/863 164/866 149/864
f 598/865 149/864 170/867
f 599/628 170/624 591/626
f 600/614 20/610 610/619
f 601/618 60/604 600/614
f 602/633 450/630 457/635
f 603/637 457/635 630/639
f 604/441 159/432 596/438
f 605/444 158/443 604/441
f 606/446 157/445 605/444
f 607/448 157/445 606/446
f 608/615 147/611 60/604
f 609/621 60/604 601/618
f 610/805 20/797 589/804
f 611/92 405/85 620/100
f 612/84 406/66 611/92
f 613/113 358/116 622/117
f 614/109 359/99 613/113
f 615/102 404/75 614/109
f 616/93 404/75 615/102
f 617/52 3/40 411/46
f 618/58 411/46 406/66
f 619/101 405/85 616/93
f 620/100 405/85 619/101
f 621/76 406/66 612/84
f 623/640 440/638 594/634
f 624/642 440/638 623/640
f 625/644 440/638 624/642
f 626/631 450/630 602/633
f 627/632 451/629 626/631
f 628/647 456/646 651/648
f 629/645 456/646 628/647
f 630/639 457/635 458/641
f 631/643 458/641 629/645
f 632/290 241/279 633/284
f 633/284 241/279 155/281
f 634/282 156/280 638/286
f 635/285 160/278 634/282
f 636/288 155/281 637/283
f 637/283 155/281 160/278
f 638/449 156/447 157/445
f 639/289 155/281 636/288
f 640/287 160/278 635/285
f 641/291 241/279 632/290
f 642/476 241/471 641/479
f 643/478 163/473 642/476
f 644/481 163/473 643/478
f 645/451 157/445 646/453
f 646/453 157/445 647/450
f 647/450 157/445 607/448
f 649/483 461/482 644/481
f 650/484 461/482 649/483
f 651/648 456/646 648/650
f 652/452 607/448 653/454
f 654/649 628/647 651/648
usemtl Tile_+031_+023_L19_000114_untextured
