mtllib Tile_+031_+023_L19_000302.mtl
v 6.13458718e+03 5.65786625e+03 9.21318289e+00
v 6.13546835e+03 5.65624934e+03 9.45613839e+00
v 6.12828927e+03 5.66128184e+03 9.10283819e+00
v 6.12584927e+03 5.65937598e+03 9.10763202e+00
v 6.13287035e+03 5.66677406e+03 9.12868753e+00
v 6.13531197e+03 5.66686223e+03 9.11163637e+00
v 6.13279731e+03 5.66512040e+03 9.25749544e+00
v 6.13424553e+03 5.66339052e+03 8.97993687e+00
v 6.12798548e+03 5.66375149e+03 9.02478325e+00
v 6.13505995e+03 5.66739323e+03 1.02611922e+01
v 6.13848457e+03 5.68610162e+03 9.37235005e+00
v 6.13734729e+03 5.68546823e+03 9.65097007e+00
v 6.13507041e+03 5.68513660e+03 9.52165444e+00
v 6.13407904e+03 5.66775534e+03 9.69522626e+00
v 6.13306077e+03 5.68527345e+03 1.00312421e+01
v 6.14025063e+03 5.66737252e+03 9.38295353e+00
v 6.13795019e+03 5.66377409e+03 9.17765886e+00
v 6.13348772e+03 5.68276880e+03 9.72981298e+00
v 6.13594006e+03 5.66842112e+03 9.34541054e+00
v 6.13523873e+03 5.68373087e+03 9.77706434e+00
v 6.13671772e+03 5.66846172e+03 9.34214933e+00
v 6.13833825e+03 5.66941885e+03 9.27585433e+00
v 6.13703420e+03 5.65748210e+03 9.41793349e+00
v 6.13704030e+03 5.66933566e+03 9.69017251e+00
v 6.13541264e+03 5.66823868e+03 1.05705014e+01
v 6.12592813e+03 5.68546806e+03 1.00709110e+01
v 6.12988453e+03 5.68525982e+03 9.82610633e+00
v 6.12899151e+03 5.68198280e+03 1.00985694e+01
v 6.12826574e+03 5.68645531e+03 1.03731084e+01
v 6.12849577e+03 5.68742288e+03 9.93789785e+00
v 6.12905016e+03 5.67997956e+03 9.94617773e+00
v 6.13270015e+03 5.68209291e+03 1.00443806e+01
v 6.12985358e+03 5.66508146e+03 9.11768180e+00
v 6.12716191e+03 5.66350937e+03 1.01691675e+01
v 6.12526831e+03 5.66225197e+03 9.91187168e+00
v 6.12756004e+03 5.66210772e+03 1.00387862e+01
v 6.12527562e+03 5.66101942e+03 1.01613668e+01
v 6.12660107e+03 5.68304596e+03 1.00585749e+01
v 6.12721577e+03 5.67959177e+03 1.01109073e+01
v 6.12674299e+03 5.66309051e+03 1.13934871e+01
v 6.12539139e+03 5.66235078e+03 1.23519544e+01
v 6.12963201e+03 5.66499013e+03 1.21413286e+01
v 6.13136132e+03 5.66590370e+03 1.13486303e+01
v 6.12886124e+03 5.66426051e+03 1.35573065e+01
v 6.12638234e+03 5.66316485e+03 1.23265038e+01
v 6.12671191e+03 5.66288694e+03 1.35879903e+01
v 6.12816387e+03 5.66572442e+03 1.45449222e+01
v 6.13120092e+03 5.66571507e+03 1.35646253e+01
v 6.12816273e+03 5.66646140e+03 1.45609286e+01
v 6.13129678e+03 5.66780289e+03 1.44256221e+01
v 6.12936901e+03 5.66646987e+03 1.47832238e+01
v 6.13413435e+03 5.66752513e+03 1.35643202e+01
v 6.12806805e+03 5.66397090e+03 1.23764937e+01
v 6.13509842e+03 5.66742219e+03 1.27552210e+01
v 6.13405854e+03 5.66777458e+03 1.17085648e+01
v 6.13498941e+03 5.66742020e+03 1.16170639e+01
v 6.13291627e+03 5.66693431e+03 1.22410069e+01
v 6.13203070e+03 5.66668293e+03 1.23240831e+01
v 6.13057056e+03 5.66574914e+03 1.22214210e+01
v 6.13559035e+03 5.66733110e+03 1.40481399e+01
v 6.13470842e+03 5.66717106e+03 1.34813811e+01
v 6.12776414e+03 5.66818623e+03 1.52000757e+01
v 6.12673157e+03 5.66703839e+03 1.51633805e+01
v 6.12560374e+03 5.66386647e+03 1.43396597e+01
v 6.12662659e+03 5.67517646e+03 1.47326168e+01
v 6.12487266e+03 5.67511021e+03 1.55137468e+01
v 6.12478874e+03 5.67671573e+03 1.38811022e+01
v 6.12511834e+03 5.67751820e+03 1.33237239e+01
v 6.12799019e+03 5.67788181e+03 1.43051513e+01
v 6.12622491e+03 5.67626416e+03 1.43077362e+01
v 6.12727223e+03 5.67885112e+03 1.36720667e+01
v 6.12764241e+03 5.67687716e+03 1.53874157e+01
v 6.12508141e+03 5.67553889e+03 1.47185798e+01
v 6.12482532e+03 5.66513028e+03 1.46855973e+01
v 6.12824053e+03 5.67163810e+03 1.62949965e+01
v 6.12696606e+03 5.67223111e+03 1.57815128e+01
v 6.13072251e+03 5.67542111e+03 1.62220462e+01
v 6.13091490e+03 5.67499260e+03 1.68562068e+01
v 6.12548391e+03 5.68317943e+03 1.01721948e+01
v 6.12829950e+03 5.68376490e+03 9.93456972e+00
v 6.12600235e+03 5.67841786e+03 1.33621876e+01
v 6.12637608e+03 5.67820640e+03 1.17082065e+01
v 6.12654256e+03 5.67837095e+03 1.09331467e+01
v 6.12559354e+03 5.67873144e+03 1.03404539e+01
v 6.12586203e+03 5.67779947e+03 1.05456640e+01
v 6.12806078e+03 5.67913781e+03 1.11070333e+01
v 6.12569718e+03 5.68456842e+03 1.06012696e+01
v 6.12659279e+03 5.68335447e+03 1.11819768e+01
v 6.13148584e+03 5.68153213e+03 1.57800209e+01
v 6.13378879e+03 5.68285227e+03 1.52848817e+01
v 6.13516636e+03 5.68362610e+03 1.36625916e+01
v 6.13198388e+03 5.68132930e+03 1.40815184e+01
v 6.13261832e+03 5.68226735e+03 1.33112505e+01
v 6.13638361e+03 5.68429037e+03 1.18308798e+01
v 6.13314709e+03 5.68230637e+03 1.24741961e+01
v 6.12621180e+03 5.68442673e+03 1.15564071e+01
v 6.12811525e+03 5.68427297e+03 1.12280066e+01
v 6.12858013e+03 5.68606390e+03 1.07819674e+01
v 6.12921048e+03 5.68500699e+03 1.07288985e+01
v 6.12746335e+03 5.68527918e+03 1.15127459e+01
v 6.13215452e+03 5.68148887e+03 1.23407934e+01
v 6.13599981e+03 5.68434308e+03 1.42303980e+01
v 6.13729502e+03 5.68364729e+03 1.40200155e+01
v 6.13734656e+03 5.68497623e+03 1.35807778e+01
v 6.12971909e+03 5.68041240e+03 1.32741907e+01
v 6.12899318e+03 5.67991707e+03 1.44130170e+01
v 6.13105073e+03 5.68096206e+03 1.21969125e+01
v 6.12926087e+03 5.67972034e+03 1.17963981e+01
v 6.13714344e+03 5.66936102e+03 1.10064911e+01
v 6.13669507e+03 5.66842452e+03 1.18785355e+01
v 6.13677563e+03 5.66838339e+03 1.30913091e+01
v 6.13736246e+03 5.66977951e+03 1.21127208e+01
v 6.13580400e+03 5.66864385e+03 1.21942939e+01
v 6.13815240e+03 5.66912589e+03 1.33214689e+01
v 6.13129125e+03 5.68131802e+03 1.32979127e+01
v 6.13118724e+03 5.67816873e+03 1.50495444e+01
v 6.13211602e+03 5.67902655e+03 1.58818186e+01
v 6.13056552e+03 5.67954916e+03 1.50129651e+01
v 6.12941122e+03 5.67781567e+03 1.42331886e+01
v 6.13779029e+03 5.67256610e+03 1.61013495e+01
v 6.13805334e+03 5.66903474e+03 1.53474814e+01
v 6.13484251e+03 5.67119819e+03 1.63515495e+01
v 6.13486848e+03 5.67095500e+03 1.46040888e+01
v 6.13313448e+03 5.66913379e+03 1.50962294e+01
v 6.13766729e+03 5.68515253e+03 9.95355679e+00
v 6.13458350e+03 5.66972501e+03 1.42879514e+01
v 6.13632286e+03 5.68132724e+03 1.47564504e+01
v 6.13737787e+03 5.68001340e+03 1.52955936e+01
v 6.13050131e+03 5.66752028e+03 1.49671953e+01
v 6.12804339e+03 5.66964516e+03 1.56179373e+01
v 6.12960048e+03 5.67614622e+03 1.49559400e+01
v 6.12898266e+03 5.67452111e+03 1.54271774e+01
v 6.13110516e+03 5.67099442e+03 1.54488121e+01
v 6.13728069e+03 5.65903875e+03 9.44005868e+00
v 6.12990796e+03 5.67626531e+03 1.64041638e+01
v 6.12719761e+03 5.67108935e+03 1.64686797e+01
v 6.12663040e+03 5.67026164e+03 1.64209369e+01
v 6.12755082e+03 5.67170049e+03 1.72830777e+01
v 6.13117968e+03 5.67201467e+03 1.59212511e+01
v 6.13223492e+03 5.67417323e+03 1.61784661e+01
v 6.13060411e+03 5.67420065e+03 1.60496003e+01
v 6.13156432e+03 5.67469126e+03 1.60081278e+01
v 6.13129873e+03 5.67568690e+03 1.56527361e+01
v 6.13324826e+03 5.67340687e+03 1.59145440e+01
v 6.12589133e+03 5.67294254e+03 1.54252293e+01
v 6.13027764e+03 5.67496690e+03 1.55362807e+01
v 6.13429491e+03 5.67520443e+03 1.95620102e+01
v 6.13340095e+03 5.67663088e+03 1.93180599e+01
v 6.13419072e+03 5.67587194e+03 1.74311735e+01
v 6.13482288e+03 5.67424663e+03 1.74117350e+01
v 6.13474914e+03 5.67346319e+03 1.67701711e+01
v 6.13795323e+03 5.67526096e+03 1.68033984e+01
v 6.13641281e+03 5.67426112e+03 1.67697496e+01
v 6.13639687e+03 5.67511418e+03 1.75480161e+01
v 6.13400599e+03 5.67500479e+03 1.67522938e+01
v 6.13559450e+03 5.67415351e+03 1.75028866e+01
v 6.13559292e+03 5.67151017e+03 1.51253489e+01
v 6.13767242e+03 5.67289796e+03 1.63837890e+01
v 6.13382487e+03 5.67245821e+03 1.54425679e+01
v 6.13248540e+03 5.66865870e+03 1.53951726e+01
v 6.12666161e+03 5.66525997e+03 1.54615567e+01
v 6.12706246e+03 5.66811076e+03 1.60718544e+01
v 6.12953507e+03 5.66708382e+03 1.54340050e+01
v 6.12588718e+03 5.66861331e+03 1.58286372e+01
v 6.12714508e+03 5.66897538e+03 1.56816372e+01
v 6.12530080e+03 5.66736506e+03 1.54106682e+01
v 6.13251389e+03 5.67582180e+03 1.65758681e+01
v 6.13520850e+03 5.67377761e+03 2.05413690e+01
v 6.13505363e+03 5.67377264e+03 1.97013743e+01
v 6.13810328e+03 5.67565459e+03 2.04764170e+01
v 6.13730341e+03 5.67508697e+03 1.96820467e+01
v 6.13578197e+03 5.67425446e+03 1.92790100e+01
v 6.13355475e+03 5.67702975e+03 1.69320806e+01
v 6.13477307e+03 5.67722106e+03 1.75094693e+01
v 6.13358286e+03 5.67636860e+03 1.73653281e+01
v 6.13437204e+03 5.67555369e+03 1.87540705e+01
v 6.13477420e+03 5.67721919e+03 1.88604463e+01
v 6.13612836e+03 5.67876100e+03 1.67620600e+01
v 6.13558429e+03 5.67810778e+03 1.73649711e+01
v 6.13554995e+03 5.67616862e+03 2.18422680e+01
v 6.13320130e+03 5.67684051e+03 2.05210666e+01
v 6.13631802e+03 5.67861684e+03 2.04267142e+01
v 6.13107120e+03 5.67773501e+03 1.65105388e+01
v 6.13423634e+03 5.67945474e+03 1.65481394e+01
v 6.13854925e+03 5.67818278e+03 1.62971253e+01
v 6.13618011e+03 5.67847672e+03 1.91873104e+01
v 6.13636151e+03 5.67830347e+03 1.73059819e+01
v 6.13691125e+03 5.67657732e+03 1.78891657e+01
v 6.13659116e+03 5.68125071e+03 1.62919325e+01
v 6.13773832e+03 5.67554940e+03 1.87030945e+01
v 6.13654430e+03 5.67514955e+03 1.88882577e+01
v 6.13539641e+03 5.68076768e+03 1.60863683e+01
v 6.13224765e+03 5.68189405e+03 1.61423335e+01
v 6.13087549e+03 5.67677311e+03 1.57832785e+01
v 6.13043551e+03 5.67632777e+03 1.64629357e+01
v 6.13355831e+03 5.67983998e+03 1.61107216e+01
v 6.13079488e+03 5.67789601e+03 1.59700336e+01
v 6.12999528e+03 5.67592236e+03 1.54825366e+01
v 6.13124417e+03 5.67509507e+03 1.65324556e+01
v 6.13053534e+03 5.67686776e+03 1.49596566e+01
v 6.13797856e+03 5.67619113e+03 1.68519450e+01
v 6.13675425e+03 5.68197252e+03 1.42898364e+01
v 6.13782121e+03 5.67602555e+03 1.95378325e+01
v 6.15598827e+03 5.67285657e+03 2.18827003e+01
v 6.15517376e+03 5.67342857e+03 2.14559798e+01
v 6.14840128e+03 5.66436443e+03 1.86440178e+01
v 6.14812254e+03 5.66598028e+03 1.96841535e+01
v 6.14870688e+03 5.66555848e+03 1.86077372e+01
v 6.14655760e+03 5.66540390e+03 1.86739643e+01
v 6.14570750e+03 5.66558948e+03 1.89539511e+01
v 6.15585844e+03 5.66592655e+03 1.57020473e+01
v 6.15520677e+03 5.66602582e+03 1.50169105e+01
v 6.15547605e+03 5.66672535e+03 1.44621067e+01
v 6.14887182e+03 5.66731675e+03 1.63937211e+01
v 6.14786610e+03 5.66647762e+03 1.59403019e+01
v 6.15571112e+03 5.66665818e+03 1.82584837e+01
v 6.14947298e+03 5.66345528e+03 1.60230028e+01
v 6.14912192e+03 5.66344705e+03 1.51168616e+01
v 6.15226609e+03 5.67273835e+03 1.89046435e+01
v 6.15152401e+03 5.67293007e+03 1.76541204e+01
v 6.15227109e+03 5.67340710e+03 1.80563178e+01
v 6.15174805e+03 5.67019862e+03 1.83773017e+01
v 6.15104946e+03 5.67066164e+03 1.82529261e+01
v 6.14881976e+03 5.66409782e+03 1.47088512e+01
v 6.15220989e+03 5.67349968e+03 1.55443075e+01
v 6.15195144e+03 5.66992427e+03 1.77082417e+01
v 6.14685157e+03 5.66820683e+03 1.86102152e+01
v 6.14611475e+03 5.66725543e+03 1.84634239e+01
v 6.14600831e+03 5.66799631e+03 1.86618194e+01
v 6.14555505e+03 5.66762547e+03 1.75862931e+01
v 6.15458110e+03 5.67451373e+03 1.48719655e+01
v 6.15552922e+03 5.67222607e+03 1.36200951e+01
v 6.13825758e+03 5.66941941e+03 1.17711908e+01
v 6.13887902e+03 5.66947692e+03 1.32786218e+01
v 6.14766631e+03 5.66603763e+03 1.88223890e+01
v 6.14721674e+03 5.66511666e+03 1.93904919e+01
v 6.15438004e+03 5.66570450e+03 1.66823839e+01
v 6.15326960e+03 5.66632600e+03 1.58838227e+01
v 6.15492561e+03 5.66987090e+03 9.29297282e+00
v 6.14838883e+03 5.66288296e+03 1.47663918e+01
v 6.14880020e+03 5.66287488e+03 1.36906623e+01
v 6.14962873e+03 5.66266536e+03 1.16738003e+01
v 6.14823411e+03 5.66157825e+03 1.17561436e+01
v 6.14770247e+03 5.66517582e+03 1.38861970e+01
v 6.14948571e+03 5.66452003e+03 1.57812056e+01
v 6.14599885e+03 5.66504330e+03 1.47096621e+01
v 6.14505197e+03 5.66592439e+03 1.41595510e+01
v 6.14740718e+03 5.66211243e+03 1.24783012e+01
v 6.14930377e+03 5.66352972e+03 1.41021671e+01
v 6.14946775e+03 5.66319402e+03 1.26792760e+01
v 6.14520777e+03 5.66403884e+03 1.67956297e+01
v 6.14520723e+03 5.66415394e+03 1.54213217e+01
v 6.14752759e+03 5.66428998e+03 1.91112795e+01
v 6.14749595e+03 5.66342002e+03 1.76713207e+01
v 6.14523887e+03 5.66668351e+03 1.50831951e+01
v 6.14574361e+03 5.66781652e+03 1.68014208e+01
v 6.15582293e+03 5.66633057e+03 1.66934336e+01
v 6.15477398e+03 5.66597419e+03 1.59260334e+01
v 6.15512696e+03 5.66912784e+03 1.36858359e+01
v 6.15222257e+03 5.66765492e+03 1.54154199e+01
v 6.13958606e+03 5.67109404e+03 1.17957579e+01
v 6.13872208e+03 5.67071941e+03 1.08172488e+01
v 6.15493772e+03 5.67504028e+03 1.63849885e+01
v 6.15435427e+03 5.67496375e+03 1.58068468e+01
v 6.15442263e+03 5.66717040e+03 1.91774557e+01
v 6.15464936e+03 5.66676635e+03 1.74274871e+01
v 6.14924290e+03 5.66777598e+03 1.55380424e+01
v 6.14981503e+03 5.66727908e+03 1.59171192e+01
v 6.15120585e+03 5.67043466e+03 1.67924696e+01
v 6.15122090e+03 5.67181568e+03 1.74672848e+01
v 6.14366441e+03 5.67282331e+03 1.27789810e+01
v 6.14301462e+03 5.67195984e+03 1.43522675e+01
v 6.15626522e+03 5.67182081e+03 2.13901755e+01
v 6.15509625e+03 5.67171005e+03 2.20109181e+01
v 6.15202545e+03 5.67185736e+03 1.84407025e+01
v 6.15286177e+03 5.67449375e+03 1.73056610e+01
v 6.15191505e+03 5.66740250e+03 1.77885992e+01
v 6.15170808e+03 5.66925808e+03 1.88833757e+01
v 6.15359964e+03 5.66776204e+03 1.97866434e+01
v 6.15215891e+03 5.66864155e+03 1.85922433e+01
v 6.15465629e+03 5.66804150e+03 2.06645343e+01
v 6.15460002e+03 5.66907409e+03 2.07684568e+01
v 6.15419693e+03 5.67013910e+03 2.13522185e+01
v 6.15622156e+03 5.67031684e+03 2.04074586e+01
v 6.15313527e+03 5.67040168e+03 2.10153971e+01
v 6.15242839e+03 5.67173558e+03 2.02626702e+01
v 6.14806183e+03 5.66330192e+03 1.69067172e+01
v 6.15345946e+03 5.66921261e+03 2.02164435e+01
v 6.14874678e+03 5.66665240e+03 1.42957348e+01
v 6.14807516e+03 5.66745912e+03 1.52532977e+01
v 6.15324837e+03 5.66961749e+03 2.11413145e+01
v 6.14220124e+03 5.67798353e+03 1.54622624e+01
v 6.14186130e+03 5.67451531e+03 1.43105419e+01
v 6.15631375e+03 5.67442775e+03 1.69349625e+01
v 6.14511236e+03 5.68207952e+03 1.62777926e+01
v 6.14663395e+03 5.68166619e+03 1.59644401e+01
v 6.15569119e+03 5.67413688e+03 1.88548915e+01
v 6.15085254e+03 5.67990780e+03 1.44618914e+01
v 6.15076905e+03 5.68343602e+03 1.55179177e+01
v 6.15361102e+03 5.68508474e+03 1.54957101e+01
v 6.14581210e+03 5.68479451e+03 1.54354868e+01
v 6.14719003e+03 5.68662230e+03 1.50750285e+01
v 6.14652437e+03 5.67607789e+03 1.39569963e+01
v 6.14793750e+03 5.67834239e+03 1.45032516e+01
v 6.14562389e+03 5.67453586e+03 1.35814608e+01
v 6.15641835e+03 5.68256019e+03 1.40752466e+01
v 6.15578808e+03 5.68084695e+03 1.35295739e+01
v 6.14014670e+03 5.67555253e+03 1.54235578e+01
v 6.13954103e+03 5.67740570e+03 1.59344489e+01
v 6.13971276e+03 5.68097212e+03 1.54430033e+01
v 6.15102654e+03 5.67148204e+03 1.54230645e+01
v 6.14724127e+03 5.67779155e+03 1.48562764e+01
v 6.14283059e+03 5.68054489e+03 1.63140391e+01
v 6.14477109e+03 5.68056126e+03 1.59683640e+01
v 6.15484479e+03 5.68057114e+03 1.04194461e+01
v 6.14143649e+03 5.68642868e+03 1.41959995e+01
v 6.14047407e+03 5.68380127e+03 1.47118088e+01
v 6.14406722e+03 5.67353598e+03 1.36154735e+01
v 6.13870386e+03 5.68467114e+03 1.41849790e+01
v 6.15333183e+03 5.68257622e+03 1.46340719e+01
v 6.13786716e+03 5.67567940e+03 1.72179417e+01
v 6.14664236e+03 5.66194592e+03 1.46126113e+01
v 6.14619636e+03 5.66329718e+03 1.46918559e+01
v 6.14104939e+03 5.67170029e+03 1.11497041e+01
v 6.14098597e+03 5.67183190e+03 9.74147504e+00
v 6.14661432e+03 5.66375274e+03 1.87414073e+01
v 6.15428814e+03 5.66723234e+03 2.01063529e+01
v 6.15523397e+03 5.66732580e+03 1.98034001e+01
v 6.15432473e+03 5.67108329e+03 2.17325803e+01
v 6.15188583e+03 5.66937083e+03 2.01551184e+01
v 6.14967059e+03 5.67832988e+03 1.40750784e+01
v 6.14622587e+03 5.68767263e+03 1.46724567e+01
v 6.14650909e+03 5.67496341e+03 9.39160575e+00
v 6.14970941e+03 5.67705391e+03 9.28759059e+00
v 6.15119044e+03 5.67644906e+03 9.36660566e+00
v 6.15132496e+03 5.67805463e+03 1.35366236e+01
v 6.15139228e+03 5.67842404e+03 1.17643065e+01
v 6.14607939e+03 5.66822181e+03 1.81018409e+01
v 6.15442774e+03 5.68033742e+03 1.24044069e+01
v 6.14084923e+03 5.68691543e+03 1.21507570e+01
v 6.14936465e+03 5.66238305e+03 1.23098277e+01
v 6.15631081e+03 5.66930263e+03 2.05573183e+01
v 6.14815866e+03 5.66449925e+03 9.32771003e+00
v 6.14669786e+03 5.66414013e+03 9.35667800e+00
v 6.15089954e+03 5.67812173e+03 9.83536811e+00
v 6.14290982e+03 5.66088617e+03 9.69340681e+00
v 6.14358845e+03 5.66057544e+03 1.00948448e+01
v 6.14657734e+03 5.66229720e+03 1.24822389e+01
v 6.15206187e+03 5.67880193e+03 9.85091967e+00
v 6.14380634e+03 5.67286448e+03 1.13366630e+01
v 6.14415540e+03 5.67385974e+03 1.25041034e+01
v 6.15339692e+03 5.67958328e+03 1.03593428e+01
v 6.15265694e+03 5.67799205e+03 9.51216075e+00
v 6.14937570e+03 5.66512548e+03 9.73293266e+00
v 6.14720478e+03 5.66688393e+03 9.21450938e+00
v 6.14830959e+03 5.66276270e+03 9.78040782e+00
v 6.14804350e+03 5.66271372e+03 1.01525618e+01
v 6.14839522e+03 5.66394913e+03 1.00344400e+01
v 6.15409994e+03 5.67828620e+03 1.01641080e+01
v 6.15351003e+03 5.67725287e+03 9.33465896e+00
v 6.14427652e+03 5.67374256e+03 9.25914330e+00
v 6.14624944e+03 5.66240588e+03 9.35865211e+00
v 6.14671424e+03 5.66355056e+03 1.00968190e+01
v 6.14842828e+03 5.66214476e+03 9.47849532e+00
v 6.13833256e+03 5.65702847e+03 9.54970449e+00
v 6.14115657e+03 5.65692250e+03 9.40232246e+00
v 6.13964525e+03 5.67133907e+03 9.91465981e+00
v 6.13856952e+03 5.67025822e+03 9.33309074e+00
v 6.14752321e+03 5.66399358e+03 1.30508066e+01
v 6.14808982e+03 5.66398328e+03 1.24367061e+01
v 6.14634401e+03 5.66350124e+03 1.69518933e+01
v 6.14986807e+03 5.66557164e+03 1.64686446e+01
v 6.14733438e+03 5.66818933e+03 1.60312920e+01
v 6.14709333e+03 5.66730906e+03 1.47016350e+01
v 6.14642236e+03 5.66831449e+03 1.62487203e+01
v 6.15594329e+03 5.67467764e+03 1.51442527e+01
v 6.14739069e+03 5.66281325e+03 1.09334048e+01
v 6.14748914e+03 5.66353356e+03 1.11847976e+01
v 6.14652871e+03 5.66364946e+03 1.22950445e+01
v 6.14816145e+03 5.66386496e+03 1.14539266e+01
v 6.14686719e+03 5.66780935e+03 1.72224180e+01
v 6.14786865e+03 5.66735766e+03 1.76917978e+01
v 6.15290407e+03 5.67908633e+03 1.35753362e+01
v 6.15258764e+03 5.67494374e+03 9.08402180e+00
v 6.15635395e+03 5.66831910e+03 9.17116056e+00
v 6.15115204e+03 5.67149922e+03 9.24046637e+00
v 6.15502217e+03 5.67255291e+03 9.21400383e+00
v 6.15171747e+03 5.65929429e+03 9.46282408e+00
v 6.14089044e+03 5.66096869e+03 1.04664008e+01
v 6.13991634e+03 5.66079485e+03 9.27418322e+00
v 6.14126461e+03 5.66185771e+03 9.34689294e+00
v 6.15545244e+03 5.66422299e+03 9.34201854e+00
v 6.15518680e+03 5.66748935e+03 9.43943086e+00
v 6.15160334e+03 5.66772472e+03 9.28754785e+00
v 6.15237260e+03 5.67048245e+03 9.11759772e+00
v 6.14536164e+03 5.67047967e+03 9.01971145e+00
v 6.14075449e+03 5.68707939e+03 9.79256797e+00
v 6.15639138e+03 5.67786220e+03 9.03593907e+00
v 6.15078125e+03 5.66052993e+03 9.78308986e+00
v 6.15038279e+03 5.66209265e+03 9.37535711e+00
v 6.15095334e+03 5.65947440e+03 1.00108413e+01
v 6.14964078e+03 5.66017628e+03 1.02036693e+01
v 6.14912126e+03 5.65832794e+03 9.51209482e+00
v 6.15301180e+03 5.65824833e+03 9.51608753e+00
v 6.15456627e+03 5.65975456e+03 9.51643270e+00
v 6.15132726e+03 5.66692540e+03 9.45833496e+00
v 6.15001276e+03 5.66616923e+03 9.30170696e+00
v 6.15129445e+03 5.66446360e+03 9.46336098e+00
v 6.15000434e+03 5.66460720e+03 1.00668487e+01
v 6.14879370e+03 5.66309950e+03 9.39185705e+00
v 6.15645250e+03 5.65787787e+03 9.64422299e+00
v 6.15423021e+03 5.65691837e+03 9.59993177e+00
v 6.15459454e+03 5.65821001e+03 1.00257541e+01
v 6.15612013e+03 5.65878480e+03 1.00267781e+01
v 6.14397944e+03 5.67268440e+03 9.24373168e+00
v 6.14792886e+03 5.67631136e+03 9.67670291e+00
v 6.14234991e+03 5.66099579e+03 9.74441089e+00
v 6.14503288e+03 5.66435967e+03 9.40572007e+00
v 6.14190973e+03 5.65950767e+03 9.65573259e+00
v 6.14336063e+03 5.66294540e+03 9.23358551e+00
v 6.14471433e+03 5.66198659e+03 9.76221080e+00
v 6.14361651e+03 5.65967383e+03 9.47784440e+00
v 6.14395063e+03 5.66160884e+03 1.00936912e+01
v 6.14556667e+03 5.65978190e+03 9.40248118e+00
v 6.14552302e+03 5.66286868e+03 1.04820967e+01
v 6.14987900e+03 5.66100398e+03 1.01381463e+01
v 6.14308513e+03 5.66534696e+03 9.17317480e+00
v 6.14537080e+03 5.66344133e+03 1.04380794e+01
v 6.14832888e+03 5.66001208e+03 9.35210756e+00
v 6.14860299e+03 5.66373688e+03 1.03797980e+01
v 6.14167379e+03 5.66107547e+03 1.05089994e+01
v 6.14107312e+03 5.65932971e+03 9.55411943e+00
v 6.14049873e+03 5.65818712e+03 9.75726035e+00
v 6.14084594e+03 5.65956209e+03 1.03082329e+01
v 6.13982440e+03 5.66009450e+03 9.80724654e+00
v 6.14260691e+03 5.67301480e+03 9.66606491e+00
v 6.14069094e+03 5.67078268e+03 9.36117100e+00
v 6.14229906e+03 5.67164433e+03 9.27963137e+00
v 6.13955567e+03 5.65674802e+03 9.42790307e+00
v 6.14433375e+03 5.68718438e+03 1.54397253e+01
v 6.14149999e+03 5.68539998e+03 1.54058819e+01
v 6.13865465e+03 5.68367960e+03 1.54072579e+01
v 6.14925467e+03 5.67916997e+03 1.55046372e+01
v 6.14015574e+03 5.67081210e+03 9.61755052e+00
v 6.13973291e+03 5.68657255e+03 1.35849439e+01
v 6.14331177e+03 5.68579133e+03 1.46292712e+01
v 6.14513367e+03 5.67463682e+03 9.94566664e+00
v 6.14877528e+03 5.68661045e+03 1.54370281e+01
v 6.15363201e+03 5.68118638e+03 1.43928134e+01
v 6.14947013e+03 5.67696737e+03 1.35668846e+01
v 6.15268939e+03 5.67924340e+03 1.24691026e+01
v 6.15631157e+03 5.68419704e+03 1.46209998e+01
v 6.14726907e+03 5.66679151e+03 1.33086991e+01
v 6.14345254e+03 5.67556625e+03 1.54780710e+01
v 6.14490900e+03 5.67656041e+03 1.45451897e+01
v 6.14631458e+03 5.67749289e+03 1.54327569e+01
v 6.14377926e+03 5.67506621e+03 1.43063377e+01
v 6.13964563e+03 5.66990342e+03 1.60812167e+01
v 6.14120579e+03 5.67404173e+03 1.44951433e+01
v 6.15219468e+03 5.68115166e+03 1.54499402e+01
v 6.15164200e+03 5.66845780e+03 1.64349322e+01
v 6.15096563e+03 5.66983405e+03 1.60108500e+01
v 6.14070972e+03 5.67085122e+03 1.19174918e+01
v 6.14036470e+03 5.67062566e+03 1.30141076e+01
v 6.14219882e+03 5.67189635e+03 1.25997434e+01
v 6.14213201e+03 5.67151616e+03 1.34453292e+01
v 6.14288771e+03 5.67320881e+03 1.20614846e+01
v 6.14086663e+03 5.67159443e+03 1.23523650e+01
v 6.14122890e+03 5.67206780e+03 1.21163162e+01
v 6.13986786e+03 5.67041697e+03 1.45919893e+01
v 6.14029807e+03 5.67070062e+03 1.09980255e+01
v 6.14225893e+03 5.67181718e+03 1.16717852e+01
v 6.14296977e+03 5.67288176e+03 1.13451690e+01
v 6.14420680e+03 5.67283980e+03 1.36348156e+01
v 6.14622274e+03 5.67523212e+03 1.24757681e+01
v 6.14737351e+03 5.67607854e+03 1.28124428e+01
v 6.14841762e+03 5.67657346e+03 1.14983216e+01
v 6.14890320e+03 5.66305585e+03 1.08473957e+01
v 6.14969468e+03 5.67739968e+03 1.26410608e+01
v 6.14778615e+03 5.66452214e+03 1.23123042e+01
v 6.14857817e+03 5.66636062e+03 1.34821926e+01
v 6.13869222e+03 5.65797437e+03 1.06887946e+01
v 6.13787123e+03 5.65798221e+03 1.07738042e+01
v 6.13897346e+03 5.65916686e+03 1.06230553e+01
v 6.14528540e+03 5.66498966e+03 1.33212777e+01
v 6.14554866e+03 5.66323645e+03 1.28804661e+01
v 6.14541917e+03 5.66375037e+03 1.39314238e+01
v 6.14539679e+03 5.66434605e+03 1.40137059e+01
v 6.14543044e+03 5.66502651e+03 1.59382463e+01
v 6.14787348e+03 5.66213657e+03 1.42848977e+01
v 6.14974974e+03 5.66323127e+03 1.19759373e+01
v 6.14845414e+03 5.66313689e+03 1.53471588e+01
v 6.14678808e+03 5.66323699e+03 1.48588279e+01
v 6.14749552e+03 5.66161768e+03 1.15414488e+01
v 6.15429661e+03 5.68191992e+03 1.45149743e+01
v 6.14795795e+03 5.68146671e+03 1.54494394e+01
v 6.13997092e+03 5.65926018e+03 1.03981970e+01
v 6.15214981e+03 5.66889569e+03 1.50614086e+01
v 6.15513373e+03 5.68285469e+03 1.54875732e+01
v 6.14874783e+03 5.66259487e+03 1.62065608e+01
v 6.14933977e+03 5.66603039e+03 1.74190920e+01
v 6.14976489e+03 5.66637119e+03 1.73200667e+01
v 6.14947465e+03 5.66533005e+03 1.78269180e+01
v 6.15274248e+03 5.66684704e+03 1.72500622e+01
v 6.15351711e+03 5.66740892e+03 1.74321206e+01
v 6.15418192e+03 5.66591331e+03 1.73601257e+01
v 6.14591966e+03 5.66560689e+03 1.70313189e+01
v 6.14517331e+03 5.66461809e+03 1.80618012e+01
v 6.14602551e+03 5.66431093e+03 1.80308268e+01
v 6.14878657e+03 5.66350788e+03 1.83758968e+01
v 6.14911365e+03 5.66334688e+03 1.72153676e+01
v 6.14939788e+03 5.66418873e+03 1.78506108e+01
v 6.14717151e+03 5.66665432e+03 1.82624948e+01
v 6.14833384e+03 5.66616503e+03 1.79445219e+01
v 6.14576076e+03 5.66320593e+03 1.65096121e+01
v 6.14722445e+03 5.66383908e+03 1.55950660e+01
v 6.14677470e+03 5.66365161e+03 1.76650215e+01
v 6.15317503e+03 5.66666985e+03 1.66024673e+01
v 6.14548992e+03 5.66685598e+03 1.62342841e+01
v 6.14052933e+03 5.67462573e+03 1.51218889e+01
v 6.15562902e+03 5.67419044e+03 1.72217872e+01
v 6.15112352e+03 5.67082094e+03 1.53081915e+01
v 6.15136400e+03 5.66886403e+03 1.73938424e+01
v 6.14980644e+03 5.66711598e+03 1.77713814e+01
v 6.14845969e+03 5.66703025e+03 1.72906687e+01
v 6.15006467e+03 5.66764668e+03 1.74782815e+01
v 6.14752736e+03 5.66689521e+03 1.67550986e+01
v 6.14057131e+03 5.67462847e+03 1.63718133e+01
v 6.14693706e+03 5.66336144e+03 1.86971684e+01
v 6.14578903e+03 5.66619079e+03 1.79567560e+01
v 6.14640528e+03 5.66638559e+03 1.87767254e+01
v 6.13944402e+03 5.67351877e+03 1.54298948e+01
v 6.15311900e+03 5.67180876e+03 2.13644440e+01
v 6.15565263e+03 5.66928139e+03 2.04128135e+01
v 6.15531826e+03 5.66840934e+03 2.09388257e+01
v 6.15642570e+03 5.66733290e+03 1.93820843e+01
v 6.15594971e+03 5.66677811e+03 1.95910318e+01
v 6.15322592e+03 5.67237677e+03 2.01220313e+01
v 6.15362780e+03 5.67291569e+03 2.01964636e+01
v 6.15553226e+03 5.67426906e+03 2.03141282e+01
v 6.15418192e+03 5.67380598e+03 1.93868627e+01
v 6.15459772e+03 5.67361916e+03 2.04275941e+01
v 6.15463225e+03 5.67223906e+03 2.09386359e+01
v 6.15334975e+03 5.67435347e+03 1.88715416e+01
v 6.15170164e+03 5.67091480e+03 1.89604123e+01
v 6.15338224e+03 5.66808185e+03 1.77498701e+01
v 6.15322691e+03 5.67277789e+03 1.88279000e+01
v 6.14173127e+03 5.68007483e+03 1.62658298e+01
v 6.14219799e+03 5.68077365e+03 1.74399041e+01
v 6.14286750e+03 5.68294614e+03 1.54556627e+01
v 6.14207331e+03 5.68120681e+03 1.60067543e+01
v 6.14536292e+03 5.68165489e+03 1.66962381e+01
v 6.15373980e+03 5.68713366e+03 1.62819775e+01
v 6.15639645e+03 5.68671531e+03 1.54709325e+01
v 6.15594789e+03 5.68746887e+03 1.60809376e+01
v 6.15108375e+03 5.68584480e+03 1.62543232e+01
v 6.15141040e+03 5.68472136e+03 1.60274520e+01
v 6.14148180e+03 5.68074655e+03 1.59191231e+01
v 6.14502356e+03 5.67980992e+03 1.54954735e+01
v 6.12475000e+03 5.66930466e+03 1.63216514e+01
v 6.12475000e+03 5.66856691e+03 1.60003969e+01
v 6.12475000e+03 5.67046054e+03 1.59149752e+01
v 6.12475000e+03 5.67201217e+03 1.54399305e+01
v 6.12475000e+03 5.66782592e+03 1.57883555e+01
v 6.12475000e+03 5.66764236e+03 1.56927068e+01
v 6.12475000e+03 5.66704070e+03 1.54127338e+01
v 6.12475000e+03 5.66500220e+03 1.47463855e+01
v 6.12475000e+03 5.66411579e+03 1.49347346e+01
v 6.12475000e+03 5.66514867e+03 1.47092107e+01
v 6.12475000e+03 5.67330470e+03 1.50438636e+01
v 6.12475000e+03 5.67498392e+03 1.54343434e+01
v 6.12475000e+03 5.67662486e+03 1.39035892e+01
v 6.12475000e+03 5.67670254e+03 1.38751291e+01
v 6.12475000e+03 5.68193777e+03 1.02121187e+01
v 6.12475000e+03 5.68249464e+03 1.06484814e+01
v 6.12475000e+03 5.67852094e+03 1.03833205e+01
v 6.12475000e+03 5.67782490e+03 1.03179707e+01
v 6.12475000e+03 5.68477298e+03 1.01458219e+01
v 6.12475000e+03 5.68408407e+03 1.01706508e+01
v 6.12475000e+03 5.68295476e+03 1.05587556e+01
v 6.12475000e+03 5.67867831e+03 1.03324986e+01
v 6.12475000e+03 5.68170519e+03 1.02113123e+01
v 6.12475000e+03 5.68165673e+03 1.02135384e+01
v 6.12475000e+03 5.67721128e+03 1.04175436e+01
v 6.12475000e+03 5.67699474e+03 1.14770745e+01
v 6.12475000e+03 5.67729447e+03 1.33535360e+01
v 6.12475000e+03 5.67717025e+03 1.29493355e+01
v 6.12475000e+03 5.67719530e+03 1.26155931e+01
v 6.12475000e+03 5.67515280e+03 1.46994060e+01
v 6.12475000e+03 5.66389980e+03 1.49757131e+01
v 6.12475000e+03 5.66320519e+03 1.42715214e+01
v 6.12475000e+03 5.66352398e+03 1.44504466e+01
v 6.12475000e+03 5.66162570e+03 1.35859936e+01
v 6.12475000e+03 5.66179641e+03 1.29120728e+01
v 6.12475000e+03 5.66242848e+03 1.39431766e+01
v 6.12475000e+03 5.65643447e+03 9.12525018e+00
v 6.12475000e+03 5.65694534e+03 9.12145871e+00
v 6.12475000e+03 5.66001665e+03 1.00859475e+01
v 6.12475000e+03 5.66118256e+03 1.01205513e+01
v 6.12475000e+03 5.66186990e+03 1.18470429e+01
v 6.12475000e+03 5.65884476e+03 9.09221582e+00
v 6.12475000e+03 5.66186671e+03 1.07015448e+01
v 6.12475000e+03 5.66181539e+03 1.14441924e+01
v 6.12475000e+03 5.65972004e+03 9.96287076e+00
v 6.12475000e+03 5.66190726e+03 9.97392066e+00
v 6.12475000e+03 5.68182318e+03 1.02091261e+01
v 6.12475000e+03 5.68582074e+03 1.01426322e+01
v 6.15650000e+03 5.66637541e+03 1.50167557e+01
v 6.15650000e+03 5.66607072e+03 1.54877626e+01
v 6.15650000e+03 5.67449742e+03 1.70316868e+01
v 6.15650000e+03 5.67451817e+03 1.68963889e+01
v 6.15650000e+03 5.67331014e+03 2.08504761e+01
v 6.15650000e+03 5.67403484e+03 2.00561699e+01
v 6.15650000e+03 5.67456316e+03 1.43754068e+01
v 6.15650000e+03 5.67417229e+03 1.42052490e+01
v 6.15650000e+03 5.66678406e+03 1.82603115e+01
v 6.15650000e+03 5.66659776e+03 1.74639799e+01
v 6.15650000e+03 5.68659739e+03 1.54725042e+01
v 6.15650000e+03 5.68424644e+03 1.47095325e+01
v 6.15650000e+03 5.68670454e+03 1.54518698e+01
v 6.15650000e+03 5.68679409e+03 1.54621663e+01
v 6.15650000e+03 5.68747062e+03 1.58156524e+01
v 6.15650000e+03 5.66728869e+03 1.90416348e+01
v 6.15650000e+03 5.66716573e+03 1.87522879e+01
v 6.15650000e+03 5.67377168e+03 1.83368894e+01
v 6.15650000e+03 5.67406384e+03 1.75598659e+01
v 6.15650000e+03 5.66734645e+03 1.93960404e+01
v 6.15650000e+03 5.66756929e+03 1.95547220e+01
v 6.15650000e+03 5.67407385e+03 1.88418795e+01
v 6.15650000e+03 5.67433327e+03 1.71578005e+01
v 6.15650000e+03 5.66717089e+03 1.85706319e+01
v 6.15650000e+03 5.66988289e+03 2.08056110e+01
v 6.15650000e+03 5.67065661e+03 2.07859415e+01
v 6.15650000e+03 5.67416515e+03 1.94885848e+01
v 6.15650000e+03 5.67419845e+03 1.98715552e+01
v 6.15650000e+03 5.66757018e+03 1.97120257e+01
v 6.15650000e+03 5.66866250e+03 2.04999397e+01
v 6.15650000e+03 5.66929676e+03 2.06275030e+01
v 6.15650000e+03 5.67190564e+03 2.13178974e+01
v 6.15650000e+03 5.67158633e+03 2.13777100e+01
v 6.15650000e+03 5.66950088e+03 2.09841297e+01
v 6.15650000e+03 5.66959397e+03 2.08541846e+01
v 6.15650000e+03 5.67239448e+03 2.11126977e+01
v 6.15650000e+03 5.67310345e+03 2.11810864e+01
v 6.15650000e+03 5.66801072e+03 2.03746330e+01
v 6.15650000e+03 5.66813861e+03 2.05098574e+01
v 6.15650000e+03 5.66575322e+03 1.63396035e+01
v 6.15650000e+03 5.66648909e+03 1.69692668e+01
v 6.15650000e+03 5.66579784e+03 1.64557382e+01
v 6.15650000e+03 5.66968937e+03 1.25486221e+01
v 6.15650000e+03 5.66928192e+03 1.25114791e+01
v 6.15650000e+03 5.67453536e+03 1.65726686e+01
v 6.15650000e+03 5.67194628e+03 1.28938058e+01
v 6.15650000e+03 5.68264550e+03 1.41065809e+01
v 6.15650000e+03 5.68418632e+03 1.46236443e+01
v 6.15650000e+03 5.65778358e+03 9.64216523e+00
v 6.15650000e+03 5.65656547e+03 9.75142912e+00
v 6.15650000e+03 5.68161685e+03 1.23158713e+01
v 6.15650000e+03 5.68161035e+03 1.02267583e+01
v 6.15650000e+03 5.66821225e+03 9.20725462e+00
v 6.15650000e+03 5.66814406e+03 9.17915746e+00
v 6.15650000e+03 5.65888406e+03 9.59975495e+00
v 6.15650000e+03 5.65973380e+03 9.60739015e+00
v 6.15650000e+03 5.66647676e+03 1.45095941e+01
v 6.15650000e+03 5.67986324e+03 1.01550095e+01
v 6.15650000e+03 5.68021979e+03 1.02062746e+01
v 6.15650000e+03 5.66663041e+03 1.41721680e+01
v 6.15650000e+03 5.67459689e+03 1.45390177e+01
v 6.15650000e+03 5.67481374e+03 1.50658096e+01
v 6.15650000e+03 5.68129527e+03 1.35591290e+01
v 6.15650000e+03 5.68158780e+03 1.25000280e+01
v 6.15650000e+03 5.68256096e+03 1.40586517e+01
v 6.15650000e+03 5.68161784e+03 1.23975134e+01
v 6.15650000e+03 5.68258296e+03 1.40656548e+01
v 6.15650000e+03 5.68262567e+03 1.40803374e+01
v 6.15650000e+03 5.65788084e+03 9.64219026e+00
v 6.15650000e+03 5.67262598e+03 9.23940229e+00
v 6.15650000e+03 5.67317712e+03 9.23947601e+00
v 6.15650000e+03 5.66858192e+03 9.28698768e+00
v 6.15650000e+03 5.66999481e+03 9.71701294e+00
v 6.15650000e+03 5.67833760e+03 9.26992125e+00
v 6.15650000e+03 5.67794666e+03 9.03527970e+00
v 6.15650000e+03 5.67094998e+03 9.67952031e+00
v 6.15650000e+03 5.66669326e+03 9.39540183e+00
v 6.15650000e+03 5.66528464e+03 9.43962765e+00
v 6.15650000e+03 5.66335227e+03 9.37285878e+00
v 6.15650000e+03 5.65604584e+03 9.59668789e+00
v 6.15650000e+03 5.66002947e+03 9.54822775e+00
v 6.15650000e+03 5.65984528e+03 9.55624384e+00
v 6.15650000e+03 5.67783344e+03 9.04115370e+00
v 6.15650000e+03 5.67773212e+03 9.04531177e+00
v 6.15650000e+03 5.67460682e+03 9.20267094e+00
v 6.15650000e+03 5.66829408e+03 2.04435461e+01
v 6.15650000e+03 5.66833446e+03 9.28356857e+00
v 6.15650000e+03 5.66721837e+03 1.34832680e+01
v 6.15650000e+03 5.66782581e+03 1.32209737e+01
v 6.12850823e+03 5.65600000e+03 9.26042163e+00
v 6.12993500e+03 5.65600000e+03 9.24625961e+00
v 6.13789772e+03 5.65600000e+03 9.40130109e+00
v 6.13592175e+03 5.65600000e+03 9.44632013e+00
v 6.13554003e+03 5.65600000e+03 9.45841444e+00
v 6.13189616e+03 5.65600000e+03 9.26506665e+00
v 6.13544406e+03 5.65600000e+03 9.45351962e+00
v 6.13459174e+03 5.65600000e+03 9.24021781e+00
v 6.13315720e+03 5.65600000e+03 9.25069495e+00
v 6.14328443e+03 5.65600000e+03 9.51448916e+00
v 6.14348076e+03 5.65600000e+03 9.51940619e+00
v 6.13986815e+03 5.65600000e+03 1.04099627e+01
v 6.13932416e+03 5.65600000e+03 9.41370553e+00
v 6.14012185e+03 5.65600000e+03 1.04408053e+01
v 6.13852700e+03 5.65600000e+03 9.48458959e+00
v 6.14817466e+03 5.65600000e+03 9.54043981e+00
v 6.14891609e+03 5.65600000e+03 9.51970539e+00
v 6.15327725e+03 5.65600000e+03 9.50893099e+00
v 6.15383605e+03 5.65600000e+03 9.55530247e+00
v 6.15000891e+03 5.65600000e+03 9.49963724e+00
v 6.15300021e+03 5.65600000e+03 9.49554010e+00
v 6.12536580e+03 5.65600000e+03 9.15774470e+00
v 6.12475000e+03 5.65600000e+03 9.13762398e+00
v 6.15636671e+03 5.65600000e+03 9.59277788e+00
v 6.15650000e+03 5.65600000e+03 9.59475159e+00
v 6.13274006e+03 5.68775000e+03 9.67082939e+00
v 6.13278922e+03 5.68775000e+03 9.67403343e+00
v 6.12885478e+03 5.68775000e+03 9.94897845e+00
v 6.12872286e+03 5.68775000e+03 1.00112290e+01
v 6.12996106e+03 5.68775000e+03 9.93765308e+00
v 6.12585176e+03 5.68775000e+03 1.00441410e+01
v 6.13470703e+03 5.68775000e+03 9.69694636e+00
v 6.13572668e+03 5.68775000e+03 9.61012136e+00
v 6.13669823e+03 5.68775000e+03 9.60660046e+00
v 6.13517134e+03 5.68775000e+03 9.58022559e+00
v 6.14607455e+03 5.68775000e+03 1.46235153e+01
v 6.14621831e+03 5.68775000e+03 1.46331162e+01
v 6.14811025e+03 5.68775000e+03 1.54345510e+01
v 6.14628808e+03 5.68775000e+03 1.47146994e+01
v 6.15424304e+03 5.68775000e+03 1.61835020e+01
v 6.15388560e+03 5.68775000e+03 1.61765086e+01
v 6.15446666e+03 5.68775000e+03 1.62676295e+01
v 6.15331774e+03 5.68775000e+03 1.61631422e+01
v 6.15282089e+03 5.68775000e+03 1.59096831e+01
v 6.15574235e+03 5.68775000e+03 1.61316441e+01
v 6.15602442e+03 5.68775000e+03 1.62623102e+01
v 6.15168625e+03 5.68775000e+03 1.57098578e+01
v 6.15008229e+03 5.68775000e+03 1.53974904e+01
v 6.14895168e+03 5.68775000e+03 1.51169422e+01
v 6.14253079e+03 5.68775000e+03 1.38524080e+01
v 6.14314316e+03 5.68775000e+03 1.40451336e+01
v 6.14195929e+03 5.68775000e+03 1.06229347e+01
v 6.14179859e+03 5.68775000e+03 9.58919326e+00
v 6.14197381e+03 5.68775000e+03 1.26595189e+01
v 6.14163574e+03 5.68775000e+03 1.35085621e+01
v 6.14219289e+03 5.68775000e+03 1.21597351e+01
v 6.14146525e+03 5.68775000e+03 9.44415509e+00
v 6.14410290e+03 5.68775000e+03 1.47095550e+01
v 6.14374700e+03 5.68775000e+03 1.41258008e+01
v 6.14468660e+03 5.68775000e+03 1.48469885e+01
v 6.14065509e+03 5.68775000e+03 9.76944904e+00
v 6.13943492e+03 5.68775000e+03 9.54009063e+00
v 6.13811121e+03 5.68775000e+03 9.57390832e+00
v 6.13862209e+03 5.68775000e+03 9.43187502e+00
v 6.12535286e+03 5.68775000e+03 1.00765903e+01
v 6.12475000e+03 5.68775000e+03 1.01158004e+01
v 6.15639287e+03 5.68775000e+03 1.60843690e+01
v 6.15650000e+03 5.68775000e+03 1.60326306e+01
vt 0.22376993 0.85802978
vt 0.18509537 0.88773984
vt 0.1769973 0.84973067
vt 0.19960566 0.90197027
vt 0.1599268 0.86082149
vt 0.21383733 0.90591121
vt 0.19937192 0.93341279
vt 0.16117582 0.89744258
vt 0.16421583 0.85146737
vt 0.25148037 0.90668273
vt 0.15137985 0.93809623
vt 0.25195915 0.85997969
vt 0.20028332 0.95223957
vt 0.14860962 0.89890623
vt 0.30857968 0.88663149
vt 0.16132383 0.9525075
vt 0.12574625 0.89238727
vt 0.32121372 0.88580394
vt 0.2812241 0.90045452
vt 0.19395635 0.9711529
vt 0.099980503 0.94791043
vt 0.34105939 0.85205603
vt 0.30821165 0.9188447
vt 0.30498701 0.90289795
vt 0.12007452 0.9741261
vt 0.11298323 0.89881545
vt 0.31357768 0.84643292
vt 0.35081658 0.87679493
vt 0.31671742 0.94887114
vt 0.17315662 0.98387438
vt 0.10177918 0.9771288
vt 0.096662357 0.90433919
vt 0.089119859 0.8943845
vt 0.33672583 0.84279209
vt 0.35098872 0.89260209
vt 0.369957 0.85110891
vt 0.31076157 0.96834695
vt 0.35614237 0.93128735
vt 0.18987027 0.98166776
vt 0.11170927 0.98654652
vt 0.087167688 0.9716084
vt 0.083528444 0.93029112
vt 0.37855664 0.8868472
vt 0.36849314 0.96484679
vt 0.41200823 0.94418746
vt 0.18413274 0.99573094
vt 0.08248648 0.94762903
vt 0.073483422 0.90266937
vt 0.39515802 0.86442685
vt 0.38681939 0.96182513
vt 0.40865293 0.93031669
vt 0.063062474 0.95441937
vt 0.060091093 0.92480767
vt 0.073795766 0.94045568
vt 0.067004465 0.89382315
vt 0.43333739 0.88321805
vt 0.40489626 0.89201385
vt 0.38065487 0.97660708
vt 0.44578192 0.94219482
vt 0.054473028 0.97485983
vt 0.41949445 0.88449895
vt 0.44101232 0.84873503
vt 0.46111637 0.9259392
vt 0.047977306 0.96412873
vt 0.043513395 0.90612888
vt 0.45559677 0.86640638
vt 0.51474094 0.92697161
vt 0.041451424 0.95403373
vt 0.044503648 0.94178176
vt 0.017601704 0.89123619
vt 0.47452703 0.84643513
vt 0.45761028 0.88855904
vt 0.53433436 0.94016975
vt 0.48474598 0.87794256
vt 0.039835483 0.95126671
vt 0.018687841 0.91465378
vt 0.50399333 0.84613287
vt 0.56594032 0.92339325
vt 0.42978522 0.961339
vt 0.51300925 0.88793486
vt 0.034538362 0.94240427
vt 0.008773135 0.90477306
vt 0.58564383 0.95149994
vt 0.54024744 0.89058858
vt 0.54001516 0.95753324
vt 0.53187805 0.87019175
vt 0.0068693021 0.90246516
vt 0.016586535 0.91411972
vt 0.017877763 0.91562688
vt 0.59297866 0.88562119
vt 0.56593895 0.88458449
vt 0.0035659715 0.89476573
vt 0.57994193 0.86197984
vt 0.61625034 0.92004114
vt 0.57922328 0.96394199
vt 0.54691541 0.87426722
vt 0.55672145 0.84339565
vt 0.61654735 0.91781503
vt 0.61709291 0.93637115
vt 0.56458545 0.97188646
vt 0.58563048 0.96148795
vt 0.56985766 0.84313482
vt 0.59584391 0.88522941
vt 0.6174919 0.91895813
vt 0.61828077 0.9200834
vt 0.60045397 0.95283926
vt 0.5817467 0.86252451
vt 0.59295768 0.95697695
vt 0.58100247 0.8612262
vt 0.59531552 0.88398629
vt 0.62423652 0.93028754
vt 0.61691701 0.94168013
vt 0.59756982 0.95412868
vt 0.58157235 0.8621273
vt 0.58119625 0.8615303
vt 0.62055475 0.94020522
vt 0.62531173 0.93612599
vt 0.62669492 0.93493986
vt 0.41571274 0.71349114
vt 0.42192802 0.69158947
vt 0.42859644 0.71728075
vt 0.38612193 0.69385612
vt 0.43332979 0.67869008
vt 0.38622677 0.67459506
vt 0.45779124 0.7380513
vt 0.37801537 0.67714727
vt 0.39519489 0.64892316
vt 0.52640885 0.71160924
vt 0.37802085 0.68847209
vt 0.37800989 0.65893012
vt 0.37800366 0.60296732
vt 0.43672234 0.59615844
vt 0.50378555 0.73864341
vt 0.37800992 0.65429664
vt 0.37800628 0.61094964
vt 0.45901588 0.59615135
vt 0.5430879 0.76584834
vt 0.50493681 0.76448286
vt 0.37801626 0.64062858
vt 0.38762289 0.59617531
vt 0.53171623 0.62528825
vt 0.5842939 0.71758187
vt 0.3780013 0.59617865
vt 0.48965889 0.59614122
vt 0.62025404 0.77379411
vt 0.50936282 0.59613502
vt 0.56994665 0.61927164
vt 0.66453552 0.74213219
vt 0.59038472 0.80577868
vt 0.53177774 0.59612781
vt 0.5454734 0.60001719
vt 0.63607007 0.68761998
vt 0.72891265 0.76612616
vt 0.7001341 0.82232094
vt 0.56505805 0.79083115
vt 0.54509264 0.59612149
vt 0.5834319 0.59610951
vt 0.66882735 0.7046057
vt 0.69496137 0.72669363
vt 0.62715137 0.82707596
vt 0.55290681 0.79020071
vt 0.57009852 0.80448163
vt 0.54659212 0.59612095
vt 0.55255663 0.59611917
vt 0.59022963 0.61217582
vt 0.6617673 0.67242801
vt 0.72097641 0.72325528
vt 0.79061174 0.83822006
vt 0.65228367 0.84053189
vt 0.59400189 0.81889224
vt 0.59326345 0.59610558
vt 0.68996763 0.68961245
vt 0.65301859 0.6741432
vt 0.67802876 0.68371081
vt 0.74380362 0.72885954
vt 0.70022398 0.7123332
vt 0.81306249 0.89203507
vt 0.79764372 0.77924055
vt 0.67854542 0.85677493
vt 0.63176191 0.84346509
vt 0.61080843 0.83576977
vt 0.60571998 0.59610224
vt 0.67280591 0.65348357
vt 0.67236441 0.6675657
vt 0.74748838 0.72025597
vt 0.76281816 0.73863447
vt 0.7212202 0.71403623
vt 0.85108852 0.85466462
vt 0.71808118 0.89237034
vt 0.79332381 0.76675099
vt 0.80967957 0.82232797
vt 0.65709615 0.86194038
vt 0.68319255 0.87330711
vt 0.60934091 0.60778874
vt 0.70327884 0.65516305
vt 0.64613438 0.65089434
vt 0.7727828 0.75494385
vt 0.87418246 0.86441028
vt 0.79123533 0.91556025
vt 0.7927987 0.72828525
vt 0.85363245 0.77554333
vt 0.63435626 0.61050713
vt 0.71396095 0.69615984
vt 0.64244527 0.67538452
vt 0.77263391 0.73053002
vt 0.84956521 0.81275785
vt 0.87419015 0.88674986
vt 0.87417966 0.85579866
vt 0.81415546 0.93966079
vt 0.76809818 0.92501938
vt 0.85776776 0.72450584
vt 0.61420757 0.59609008
vt 0.62407947 0.63026679
vt 0.74644029 0.65874612
vt 0.62950474 0.65174389
vt 0.63306266 0.64811885
vt 0.87416047 0.81468207
vt 0.87420791 0.93558419
vt 0.87416577 0.82960695
vt 0.82748353 0.92810839
vt 0.78669274 0.94169301
vt 0.778543 0.69124448
vt 0.87414008 0.74108791
vt 0.87187678 0.78850478
vt 0.61817116 0.59608853
vt 0.5958401 0.62694299
vt 0.75881076 0.63242579
vt 0.74800265 0.69206774
vt 0.74614745 0.70172071
vt 0.75371826 0.70698452
vt 0.87415862 0.79260945
vt 0.87251157 0.93761742
vt 0.83669597 0.94424343
vt 0.80485749 0.95231509
vt 0.79938215 0.64751238
vt 0.87413108 0.71089518
vt 0.87414771 0.76309818
vt 0.87415773 0.78576899
vt 0.66759807 0.5960812
vt 0.76692903 0.6612972
vt 0.77065635 0.67422938
vt 0.87420845 0.93716741
vt 0.8257153 0.96451223
vt 0.84389645 0.65468919
vt 0.784756 0.66682106
vt 0.87411213 0.65897453
vt 0.87415773 0.78683412
vt 0.87415743 0.78874302
vt 0.78743678 0.6503253
vt 0.67066574 0.59608018
vt 0.87420911 0.93893659
vt 0.87420505 0.96887279
vt 0.84834266 0.9799397
vt 0.81960016 0.63116217
vt 0.74400795 0.59605616
vt 0.87420821 0.94504279
vt 0.87411112 0.65609646
vt 0.82373655 0.59603059
vt 0.84432411 0.6305505
vt 0.75559306 0.59605259
vt 0.87420619 0.97444338
vt 0.87410992 0.6543541
vt 0.81940794 0.59603214
vt 0.8386302 0.61037445
vt 0.86816448 0.63952398
vt 0.77266878 0.59604728
vt 0.87421298 0.99617082
vt 0.83246738 0.59602731
vt 0.8740921 0.60484749
vt 0.87335783 0.62535506
vt 0.87410569 0.64107698
vt 0.87409139 0.5967297
vt 0.87409961 0.62388146
vt 0.87200862 0.59601414
vt 0.87410009 0.62540126
vt 0.87409115 0.59601343
vt 0.25228366 0.36451983
vt 0.29044789 0.37571537
vt 0.24695569 0.39017057
vt 0.2096166 0.37547147
vt 0.30022186 0.34181249
vt 0.22545877 0.36396646
vt 0.27458179 0.33849639
vt 0.31491074 0.36850667
vt 0.21064666 0.35656774
vt 0.25233677 0.35083461
vt 0.30018428 0.33250672
vt 0.32618529 0.34740716
vt 0.29919216 0.38432038
vt 0.27956015 0.3106519
vt 0.29342198 0.32550913
vt 0.31476662 0.33802199
vt 0.19853964 0.35242265
vt 0.23471318 0.32565695
vt 0.31612068 0.3255564
vt 0.20972162 0.32704568
vt 0.24554189 0.31627274
vt 0.3120198 0.30103737
vt 0.33317369 0.32018048
vt 0.17229687 0.33015257
vt 0.28680801 0.28624314
vt 0.31463617 0.26729655
vt 0.3291871 0.33744359
vt 0.17163698 0.3453607
vt 0.32218757 0.28682476
vt 0.32423478 0.34308279
vt 0.33852094 0.30023539
vt 0.14680076 0.35546553
vt 0.1532255 0.33358586
vt 0.35784563 0.27827138
vt 0.36000633 0.32822114
vt 0.16063413 0.37329042
vt 0.33038735 0.25366229
vt 0.3694602 0.29312533
vt 0.34388703 0.33998549
vt 0.18907692 0.40040976
vt 0.14481165 0.38410389
vt 0.11302157 0.34869707
vt 0.36290243 0.25653887
vt 0.40673456 0.324642
vt 0.40485394 0.34643739
vt 0.38402328 0.28353345
vt 0.34945706 0.24949872
vt 0.37657925 0.27501971
vt 0.40545821 0.30580509
vt 0.35173357 0.35308409
vt 0.17836756 0.42473078
vt 0.10171689 0.37324727
vt 0.3633827 0.25615835
vt 0.36443546 0.25690597
vt 0.43603826 0.33931786
vt 0.16752852 0.42898268
vt 0.18553048 0.43478084
vt 0.11517607 0.39231855
vt 0.075292245 0.37317961
vt 0.38668793 0.28220671
vt 0.40943161 0.28808188
vt 0.35535604 0.24734461
vt 0.38438952 0.2736972
vt 0.4204098 0.34075314
vt 0.44797552 0.31370735
vt 0.13777414 0.42126089
vt 0.17244647 0.44746423
vt 0.23593579 0.41361797
vt 0.095758446 0.40063876
vt 0.070527636 0.38142514
vt 0.082255371 0.36049205
vt 0.42694795 0.29972935
vt 0.40939221 0.34911013
vt 0.46364054 0.32466012
vt 0.17060477 0.44377488
vt 0.22024028 0.38061339
vt 0.13205005 0.45776373
vt 0.065827899 0.38843709
vt 0.15527126 0.46002531
vt 0.08980915 0.44036162
vt 0.063065454 0.39805436
vt 0.054314725 0.44005078
vt 0.068941399 0.41121215
vt 0.04213921 0.46006531
vt 0.047585662 0.41988146
vt 0.058523342 0.40544057
vt 0.034551948 0.49657708
vt 0.047714848 0.4173758
vt 0.016525434 0.4663552
vt 0.031878382 0.44652885
vt 0.046595808 0.41894698
vt 0.025323318 0.45190156
vt 0.0040429877 0.48598421
vt 0.046053872 0.42049617
vt 0.19853964 0.60242265
vt 0.21064666 0.60656774
vt 0.22024028 0.63061345
vt 0.18907692 0.6504097
vt 0.31491342 0.59579682
vt 0.29765567 0.58354312
vt 0.32293698 0.58309364
vt 0.35055336 0.58227491
vt 0.25406361 0.58982944
vt 0.3112362 0.56866044
vt 0.36414465 0.59988034
vt 0.32946181 0.56602097
vt 0.27807713 0.6147145
vt 0.29118425 0.57084107
vt 0.3951588 0.58789229
vt 0.31846994 0.62177181
vt 0.36314145 0.55942214
vt 0.23690771 0.59874403
vt 0.23304646 0.56164634
vt 0.29852897 0.53279757
vt 0.41223958 0.55711341
vt 0.36275882 0.53023231
vt 0.21476035 0.58910638
vt 0.25206041 0.52922416
vt 0.41428286 0.58247662
vt 0.38305274 0.54825068
vt 0.28232181 0.52795291
vt 0.15404636 0.56786942
vt 0.20916073 0.53265244
vt 0.42243233 0.53892386
vt 0.40857181 0.545026
vt 0.38785708 0.53177953
vt 0.17047931 0.58968794
vt 0.44372991 0.55324996
vt 0.41556689 0.53483999
vt 0.13230954 0.57598376
vt 0.15334578 0.53091353
vt 0.44161043 0.57085145
vt 0.44140628 0.53656983
vt 0.13618608 0.58897984
vt 0.12979822 0.56834805
vt 0.13244417 0.54422116
vt 0.44188252 0.57607341
vt 0.13426483 0.52798939
vt 0.43397126 0.58191466
vt 0.138072 0.52549022
vt 0.44056508 0.5822829
vt 0.66702068 0.4337129
vt 0.66440094 0.45568067
vt 0.63965672 0.41868979
vt 0.6999774 0.4608497
vt 0.63299459 0.45782447
vt 0.70497215 0.45591241
vt 0.67466736 0.49651104
vt 0.6587342 0.49651539
vt 0.58336806 0.45762944
vt 0.71775419 0.47074336
vt 0.66599053 0.49651414
vt 0.68984801 0.49650615
vt 0.62876862 0.49652535
vt 0.5703029 0.37512821
vt 0.6280005 0.49652559
vt 0.75322151 0.48600554
vt 0.71192622 0.4964993
vt 0.56939471 0.4064278
vt 0.58457506 0.49653721
vt 0.75167203 0.49648458
vt 0.7199105 0.49649805
vt 0.55859309 0.43427825
vt 0.56728935 0.49654269
vt 0.73260969 0.49649292
vt 0.76433492 0.4964835
vt 0.53204989 0.42305225
vt 0.56167829 0.49143344
vt 0.5031181 0.40211058
vt 0.56297898 0.47019094
vt 0.50311875 0.40395415
vt 0.54163635 0.36907673
vt 0.50311929 0.40574461
vt 0.5031178 0.4013533
vt 0.5145933 0.42514235
vt 0.50310129 0.35481423
vt 0.50311667 0.4144417
vt 0.50309986 0.35235488
vt 0.50312012 0.42163205
vt 0.51628172 0.35564005
vt 0.50309712 0.34147984
vt 0.52046973 0.34107476
vt 0.50309283 0.331891
vt 0.039505254 0.74880135
vt 0.058255497 0.7885828
vt 0.02000588 0.78856921
vt 0.02019137 0.73815078
vt 0.089296184 0.74535817
vt 0.043975838 0.80591178
vt 0.0054296395 0.77085847
vt 0.058712125 0.74090195
vt 0.097646609 0.77391291
vt 0.015531087 0.80607426
vt 0.080420524 0.79402399
vt 0.0033467952 0.79327488
vt 0.0055211601 0.7384851
vt 0.11756274 0.74001038
vt 0.15135624 0.77880728
vt 0.11384027 0.80662221
vt 0.14253353 0.74860632
vt 0.12102717 0.79202658
vt 0.14662333 0.80666602
vt 0.16306438 0.74917275
vt 0.17566232 0.80762964
vt 0.18663928 0.75747156
vt 0.17489967 0.79011244
vt 0.20642403 0.78953117
vt 0.22738205 0.80766571
vt 0.21371099 0.75870764
vt 0.24342796 0.7915715
vt 0.24374034 0.78867871
vt 0.2437496 0.78995085
vt 0.24029467 0.80830133
vt 0.24370314 0.75611228
vt 0.91217107 0.49380475
vt 0.90040231 0.49589854
vt 0.87893212 0.47880286
vt 0.9204815 0.45946568
vt 0.86872947 0.45254618
vt 0.84431398 0.47821277
vt 0.89968663 0.43936408
vt 0.82304847 0.47205222
vt 0.92041558 0.43562049
vt 0.88530183 0.44047552
vt 0.82740676 0.44684678
vt 0.92067224 0.40753841
vt 0.93293703 0.43009609
vt 0.87196791 0.42282957
vt 0.77671605 0.46123099
vt 0.84209251 0.4308027
vt 0.93390471 0.41097766
vt 0.8594054 0.43537802
vt 0.78928852 0.44187015
vt 0.81426984 0.42999458
vt 0.84585452 0.38909656
vt 0.93548298 0.39086747
vt 0.94276041 0.42045993
vt 0.75446343 0.43685979
vt 0.89836711 0.39519614
vt 0.75783134 0.44738883
vt 0.76718038 0.42355549
vt 0.79064333 0.41280442
vt 0.79872549 0.39793605
vt 0.95148206 0.40372896
vt 0.76109016 0.45733702
vt 0.75519043 0.42870396
vt 0.78551459 0.42694944
vt 0.81215364 0.38216782
vt 0.76242709 0.46203226
vt 0.75551462 0.41445118
vt 0.76494813 0.38928175
vt 0.75551772 0.39855009
vt 0.7552914 0.40848815
vt 0.75569862 0.38874555
vt 0.25713953 0.73549551
vt 0.21100858 0.71882808
vt 0.23477662 0.70242554
vt 0.2591767 0.70539749
vt 0.2046763 0.69824672
vt 0.29199561 0.72191358
vt 0.25236586 0.68278718
vt 0.22277954 0.68584287
vt 0.19748138 0.70927036
vt 0.27178559 0.70473146
vt 0.28541836 0.7457847
vt 0.26263779 0.68139112
vt 0.24650496 0.66792959
vt 0.21457753 0.66290808
vt 0.23392895 0.68416369
vt 0.19171368 0.70758528
vt 0.30043241 0.69875574
vt 0.34675181 0.71812463
vt 0.20313866 0.68122363
vt 0.27785802 0.66229421
vt 0.33133575 0.7048651
vt 0.29255077 0.67688984
vt 0.26381272 0.64475453
vt 0.23453479 0.64661825
vt 0.22326711 0.6451447
vt 0.31397694 0.68559223
vt 0.30682689 0.68228626
vt 0.36170182 0.69232684
vt 0.24489769 0.64839947
vt 0.29504424 0.64812672
vt 0.272659 0.6422053
vt 0.32224876 0.68070555
vt 0.30001858 0.66851509
vt 0.36946899 0.7060703
vt 0.35328943 0.67824018
vt 0.31728309 0.66775781
vt 0.33481926 0.69076848
vt 0.30614457 0.64484721
vt 0.36400434 0.67116737
vt 0.33515739 0.6775775
vt 0.35228795 0.66937262
vt 0.31728187 0.64622915
vt 0.34806558 0.64318216
vt 0.33461276 0.64317513
vt 0.36528763 0.64150584
vt 0.49314794 0.47877467
vt 0.48118567 0.46472144
vt 0.49748197 0.46402746
vt 0.50016189 0.47055453
vt 0.4838649 0.47862399
vt 0.49659228 0.45968711
vt 0.47872788 0.4883604
vt 0.49524131 0.45577723
vt 0.45621073 0.49608636
vt 0.49006888 0.44454366
vt 0.430998 0.48589557
vt 0.45553374 0.43425804
vt 0.48472282 0.43571943
vt 0.41913784 0.46958393
vt 0.47190806 0.41406697
vt 0.38894001 0.45658273
vt 0.46832103 0.40946674
vt 0.38186774 0.45024055
vt 0.43345314 0.39387274
vt 0.44845164 0.38484889
vt 0.37938192 0.41750962
vt 0.42884955 0.36657774
vt 0.40106902 0.38216424
vt 0.42540786 0.36299735
vt 0.96490961 0.96484721
vt 0.91133952 0.96774155
vt 0.94963443 0.95346731
vt 0.95948642 0.93945301
vt 0.93914622 0.9953559
vt 0.90943277 0.95583296
vt 0.959252 0.90957683
vt 0.92301238 0.94915271
vt 0.94109887 0.94447589
vt 0.91977489 0.92315656
vt 0.93898833 0.92504156
vt 0.91138011 0.92469388
vt 0.93073624 0.91010666
vt 0.90273285 0.91234511
vt 0.93244177 0.8948788
vt 0.98460865 0.89216864
vt 0.96000749 0.87751615
vt 0.88141334 0.89683473
vt 0.98409379 0.8738538
vt 0.9305799 0.88900524
vt 0.89358819 0.87754625
vt 0.87934315 0.86999983
vt 0.043231983 0.57397521
vt 0.057469565 0.55576575
vt 0.089994356 0.5870741
vt 0.036050133 0.58614951
vt 0.038113311 0.54332435
vt 0.089057483 0.57164466
vt 0.061669149 0.62027764
vt 0.037243892 0.56487441
vt 0.044390213 0.53576428
vt 0.085349269 0.545425
vt 0.031698361 0.53858691
vt 0.067823879 0.51724207
vt 0.093373857 0.53798056
vt 0.0039678859 0.51715398
vt 0.12448353 0.51957202
vt 0.004237473 0.50043964
vt 0.10165671 0.50506544
vt 0.12749141 0.50022912
vt 0.63295424 0.92346287
vt 0.64380264 0.92849016
vt 0.64288771 0.95368052
vt 0.6304934 0.94698268
vt 0.65402842 0.91296017
vt 0.67929953 0.95293951
vt 0.63029253 0.93418109
vt 0.63030219 0.95378894
vt 0.63855147 0.89521092
vt 0.68680578 0.92845225
vt 0.66667265 0.9626348
vt 0.63011122 0.92719328
vt 0.63025069 0.96341473
vt 0.62997162 0.91760826
vt 0.66317952 0.90425706
vt 0.66031688 0.9792105
vt 0.63000226 0.92475647
vt 0.64530092 0.97560495
vt 0.62977046 0.89366907
vt 0.629987 0.92262012
vt 0.65992081 0.89135218
vt 0.69761038 0.90443671
vt 0.63023376 0.96917886
vt 0.62990564 0.88626635
vt 0.62992561 0.88386387
vt 0.65146172 0.99563128
vt 0.63034308 0.9725101
vt 0.63082713 0.98690689
vt 0.71954519 0.98623925
vt 0.70682663 0.99518502
vt 0.7055999 0.96832824
vt 0.7238735 0.97005862
vt 0.72755605 0.99333346
vt 0.69354516 0.95854145
vt 0.72754818 0.97902369
vt 0.72755092 0.99010074
vt 0.69154817 0.94379264
vt 0.72754318 0.97138357
vt 0.72319579 0.94656849
vt 0.72754079 0.96639377
vt 0.6978482 0.92715514
vt 0.72754341 0.95187247
vt 0.71430087 0.93039221
vt 0.72753924 0.93978274
vt 0.70906544 0.91676313
vt 0.72458321 0.93071944
vt 0.69872361 0.91102159
vt 0.72753406 0.91253108
vt 0.7275368 0.920717
vt 0.70775682 0.89984387
vt 0.72753567 0.9149608
vt 0.72753507 0.91053391
vt 0.72753847 0.93062609
vt 0.72754097 0.9036566
vt 0.72638291 0.89995271
vt 0.71894026 0.89128447
vt 0.97643143 0.79684901
vt 0.95211023 0.80053741
vt 0.8781212 0.80857199
vt 0.96863413 0.81722903
vt 0.9246828 0.83737087
vt 0.9835273 0.8162986
vt 0.9501282 0.83213496
vt 0.93563032 0.83933103
vt 0.90808314 0.85718578
vt 0.96876013 0.82849222
vt 0.92198265 0.85870737
vt 0.94867301 0.84507054
vt 0.94395924 0.85708153
vt 0.92031866 0.8702178
vt 0.96543634 0.84868854
vt 0.33572569 0.78568292
vt 0.31715584 0.79127216
vt 0.32622311 0.76578116
vt 0.35119489 0.7791608
vt 0.34639567 0.80290949
vt 0.34906304 0.75866115
vt 0.36045545 0.80743122
vt 0.32919106 0.75417697
vt 0.3808437 0.77736968
vt 0.34373108 0.72127312
vt 0.38465863 0.75915122
vt 0.37163693 0.80783087
vt 0.36437196 0.71195304
vt 0.38213831 0.73935753
vt 0.90280819 0.69476813
vt 0.91836089 0.6718384
vt 0.92364126 0.69833779
vt 0.90596986 0.70694554
vt 0.90766644 0.67494142
vt 0.93698215 0.68158782
vt 0.92923582 0.73099887
vt 0.87831908 0.71339118
vt 0.90490335 0.66059577
vt 0.9219802 0.65797371
vt 0.90713954 0.73270768
vt 0.89770216 0.72311318
vt 0.88852292 0.72406739
vt 0.922086 0.65144086
vt 0.89085889 0.74632257
vt 0.011630039 0.84471852
vt 0.034323826 0.85698688
vt 0.01255784 0.86696023
vt 0.060993031 0.85569149
vt 0.024021572 0.87093055
vt 0.031780761 0.82807922
vt 0.050959282 0.86762357
vt 0.0039844164 0.82204187
vt 0.050056495 0.83124179
vt 0.019538486 0.82252401
vt 0.092393763 0.83901429
vt 0.067396879 0.82673001
vt 0.095886067 0.81998545
vt 0.1668293 0.70383835
vt 0.13141088 0.71464396
vt 0.14051379 0.69117087
vt 0.16150592 0.68226749
vt 0.15430927 0.72162884
vt 0.12978531 0.69805497
vt 0.14618674 0.66915059
vt 0.18252088 0.69535303
vt 0.14843333 0.73502696
vt 0.17107658 0.73232073
vt 0.16167524 0.66183901
vt 0.16827981 0.67299378
vt 0.18020463 0.7059772
vt 0.17938633 0.72177148
vt 0.16894886 0.65485179
vt 0.18861234 0.67252719
vt 0.1925946 0.70801604
vt 0.15773484 0.74699569
vt 0.18837546 0.6614933
vt 0.018105172 0.64086807
vt 0.020456854 0.62549502
vt 0.02547056 0.63331974
vt 0.03572239 0.65090644
vt 0.0053916918 0.63442683
vt 0.020446608 0.65560532
vt 0.015746342 0.60505402
vt 0.0094228443 0.64330387
vt 0.030408004 0.68300807
vt 0.0035487278 0.65770876
vt 0.033744618 0.61724424
vt 0.016594809 0.67337281
vt 0.053152651 0.66136086
vt 0.019217223 0.59677106
vt 0.061458744 0.62440825
vt 0.047181025 0.68174392
vt 0.024972644 0.59370625
vt 0.056232646 0.61175096
vt 0.077183098 0.65113956
vt 0.056319382 0.67450595
vt 0.080632985 0.64361078
vt 0.063891403 0.6735574
vt 0.083996877 0.67545098
vt 0.074776106 0.67992771
vt 0.37850615 0.79331815
vt 0.39034763 0.78479707
vt 0.38218385 0.80203104
vt 0.38640994 0.77288908
vt 0.39207351 0.79987836
vt 0.401723 0.76448107
vt 0.40933141 0.79234928
vt 0.40576723 0.74632245
vt 0.40263754 0.80614203
vt 0.42819974 0.76148015
vt 0.41681758 0.77886659
vt 0.41844362 0.80814576
vt 0.42432249 0.74367988
vt 0.43569368 0.79413247
vt 0.44206399 0.75383079
vt 0.41777605 0.73235917
vt 0.44372144 0.77517664
vt 0.4380964 0.7323004
vt 0.42961389 0.72076666
vt 0.9484092 0.55845916
vt 0.9390763 0.55973864
vt 0.94757318 0.54730803
vt 0.95857644 0.5829196
vt 0.92377865 0.55220115
vt 0.92231745 0.57568073
vt 0.96146959 0.56875348
vt 0.93489617 0.59846193
vt 0.9099766 0.55423421
vt 0.94464135 0.60551739
vt 0.91596526 0.59359562
vt 0.90742016 0.57864523
vt 0.93019325 0.61432791
vt 0.91641223 0.61397856
vt 0.90195978 0.56306136
vt 0.89834911 0.60221618
vt 0.89699149 0.58035696
vt 0.87965888 0.55550641
vt 0.90191877 0.62104678
vt 0.88060486 0.57252133
vt 0.87802571 0.60606492
vt 0.87991363 0.58852422
vt 0.22269246 0.91589415
vt 0.23587988 0.92539138
vt 0.22491156 0.92488098
vt 0.27055392 0.91799498
vt 0.22516759 0.9539544
vt 0.25460124 0.92772442
vt 0.25462911 0.9487896
vt 0.276665 0.97383904
vt 0.2765986 0.95538139
vt 0.22211739 0.97327214
vt 0.27728426 0.92526126
vt 0.25700405 0.99661374
vt 0.30367509 0.45221031
vt 0.31807551 0.44008982
vt 0.3182542 0.45928258
vt 0.31033096 0.42930025
vt 0.28827465 0.43353373
vt 0.27805102 0.45003408
vt 0.28610116 0.41890597
vt 0.27176246 0.44085133
vt 0.29488066 0.46279556
vt 0.3110958 0.41940582
vt 0.25841147 0.44774348
vt 0.28314099 0.46219963
vt 0.27733219 0.41542476
vt 0.25407177 0.46904629
vt 0.25764999 0.42801052
vt 0.28735557 0.4764244
vt 0.26816574 0.46902722
vt 0.28019348 0.47819471
vt 0.26843706 0.48478377
vt 0.25517774 0.48791236
vt 0.27966222 0.4954583
vt 0.27351257 0.78719282
vt 0.27949792 0.77649868
vt 0.2956354 0.78949976
vt 0.27702454 0.80192733
vt 0.25578594 0.77673203
vt 0.29646164 0.77307153
vt 0.29366025 0.81446666
vt 0.27027702 0.79819107
vt 0.2862322 0.76279539
vt 0.30658156 0.78238827
vt 0.27320388 0.82994676
vt 0.3060244 0.80222142
vt 0.25407949 0.78878891
vt 0.30655146 0.78430498
vt 0.30638728 0.77032495
vt 0.28576285 0.84012657
vt 0.30610025 0.79430866
vt 0.30589497 0.81499368
vt 0.29729208 0.83527869
vt 0.30564222 0.82094324
vt 0.30564338 0.82370937
vt 0.30556077 0.82852113
vt 0.30436835 0.83386159
vt 0.30551937 0.83412755
vt 0.46659487 0.5578407
vt 0.4715015 0.53630453
vt 0.49562517 0.54161024
vt 0.45233998 0.54937756
vt 0.47860166 0.52103245
vt 0.4571853 0.53868771
vt 0.45537812 0.51570821
vt 0.51087761 0.52010632
vt 0.44300953 0.54928446
vt 0.47353315 0.49818748
vt 0.49274066 0.50417018
vt 0.4469741 0.52658248
vt 0.44079307 0.50384945
vt 0.51643479 0.50902796
vt 0.4680616 0.80386162
vt 0.47692126 0.81321967
vt 0.44883749 0.82813299
vt 0.4460443 0.80532545
vt 0.45676675 0.83911502
vt 0.44165754 0.79470837
vt 0.46685541 0.78845429
vt 0.45986697 0.77166903
vt 0.47314796 0.80358177
vt 0.4632431 0.76700789
vt 0.49221665 0.80044228
vt 0.47713482 0.78321368
vt 0.4892303 0.76649642
vt 0.9681437 0.72874534
vt 0.97097868 0.74101979
vt 0.95044583 0.70715338
vt 0.96268505 0.70823467
vt 0.98722059 0.70714295
vt 0.94556767 0.73766685
vt 0.99490029 0.74264169
vt 0.94104928 0.75643927
vt 0.99661601 0.75585151
vt 0.97505701 0.77819967
vt 0.14798428 0.62892956
vt 0.14227751 0.64563382
vt 0.12818129 0.65249336
vt 0.13015635 0.6314221
vt 0.16555229 0.64178026
vt 0.1185965 0.63877308
vt 0.11763149 0.59973848
vt 0.16777468 0.61975253
vt 0.098233774 0.65277141
vt 0.15395495 0.59723854
vt 0.1627678 0.59628248
vt 0.099319667 0.6274116
vt 0.14587884 0.82648551
vt 0.15876518 0.83024669
vt 0.15621872 0.83683789
vt 0.13903414 0.84090716
vt 0.12900765 0.82616198
vt 0.15065612 0.85002184
vt 0.11940348 0.82537758
vt 0.14710821 0.86038506
vt 0.1203372 0.84236741
vt 0.13059472 0.85345441
vt 0.16057728 0.86182994
vt 0.10449859 0.83767015
vt 0.13650411 0.87051219
vt 0.12342844 0.86254537
vt 0.09853024 0.82808512
vt 0.10156455 0.84996682
vt 0.11380802 0.85596251
vt 0.51906025 0.81369114
vt 0.517537 0.78874683
vt 0.53276688 0.80900043
vt 0.53035915 0.8389225
vt 0.50874645 0.79905248
vt 0.53773981 0.79582107
vt 0.51521075 0.82656497
vt 0.53896779 0.82241833
vt 0.50418985 0.80440563
vt 0.52622026 0.77902538
vt 0.54265618 0.78176111
vt 0.54809088 0.79791689
vt 0.55066323 0.81104904
vt 0.77980906 0.99661779
vt 0.77368784 0.98958689
vt 0.7920714 0.98508185
vt 0.75856656 0.99021488
vt 0.80315977 0.95409948
vt 0.80538517 0.96737486
vt 0.78909904 0.95415348
vt 0.75345731 0.99544036
vt 0.75345719 0.99393004
vt 0.75344294 0.95291114
vt 0.78358305 0.9376837
vt 0.75344074 0.94594818
vt 0.75343806 0.93753445
vt 0.042423815 0.99515963
vt 0.034318909 0.99082017
vt 0.043796483 0.9857688
vt 0.030187946 0.97186667
vt 0.043834865 0.96927834
vt 0.013613784 0.9773314
vt 0.040563501 0.95693707
vt 0.013153745 0.96645373
vt 0.028302066 0.95125997
vt 0.0032269072 0.97079003
vt 0.0049209269 0.95498586
vt 0.012114523 0.94026947
vt 0.0851129 0.71501893
vt 0.071226969 0.70266944
vt 0.092560701 0.68912768
vt 0.10408991 0.70349205
vt 0.066727497 0.69049156
vt 0.12138756 0.68662691
vt 0.08601445 0.67246294
vt 0.10899673 0.67454451
vt 0.11618217 0.65902174
vt 0.98852545 0.64987254
vt 0.98985088 0.67273694
vt 0.9792465 0.6415242
vt 0.97728366 0.66569364
vt 0.97237873 0.68293506
vt 0.9529196 0.64930034
vt 0.95876276 0.67453253
vt 0.95762265 0.63382554
vt 0.94199878 0.68261331
vt 0.94472879 0.65279543
vt 0.94909644 0.63321865
vt 0.50046206 0.57578623
vt 0.5014227 0.56111932
vt 0.50930291 0.58018529
vt 0.50696552 0.59049296
vt 0.49107414 0.54888278
vt 0.50923318 0.55262625
vt 0.49474326 0.58531922
vt 0.49347302 0.54364854
vt 0.47606632 0.57512134
vt 0.47192675 0.57020605
vt 0.50136763 0.53835428
vt 0.51094246 0.54665303
vt 0.099948592 0.99633193
vt 0.065483645 0.98639679
vt 0.084073044 0.97917712
vt 0.093406431 0.98347992
vt 0.079477064 0.99474245
vt 0.069878437 0.97298658
vt 0.10871125 0.99408656
vt 0.5544166 0.56591678
vt 0.57420784 0.5609163
vt 0.56216198 0.57957613
vt 0.53537142 0.58300829
vt 0.56472009 0.54667675
vt 0.54255366 0.58923215
vt 0.5413205 0.56113458
vt 0.54610485 0.5519731
vt 0.12856185 0.97905964
vt 0.14675823 0.98742181
vt 0.14984049 0.99517113
vt 0.16814338 0.98349136
vt 0.22199036 0.95610893
vt 0.22028276 0.98134899
vt 0.21770445 0.96313417
vt 0.20671062 0.96877456
vt 0.20967817 0.9956485
vt 0.30715737 0.98502034
vt 0.28267804 0.99655014
vt 0.2699286 0.97835469
vt 0.32354897 0.97407794
vt 0.32582924 0.99424803
vt 0.31658596 0.99519306
vt 0.35084042 0.98870909
vt 0.3631745 0.97488636
vt 0.35537553 0.98933589
vt 0.34746674 0.98145998
vt 0.36367068 0.98750001
vt 0.356343 0.99634647
vt 0.37830046 0.98950338
vt 0.38127741 0.97567576
vt 0.43120271 0.97412562
vt 0.41565701 0.97299331
vt 0.41081953 0.96327859
vt 0.41013369 0.98548293
vt 0.42591715 0.98759526
vt 0.41109803 0.9903459
vt 0.43313152 0.99688888
vt 0.44403559 0.98217523
vt 0.40304592 0.96836686
vt 0.40067384 0.98415446
vt 0.37944764 0.98436636
vt 0.38663435 0.96541715
vt 0.38758603 0.99659246
vt 0.47537988 0.99565428
vt 0.47583175 0.98286289
vt 0.48769855 0.98234922
vt 0.45756441 0.98317343
vt 0.49308333 0.99569052
vt 0.48774698 0.97197211
vt 0.49699107 0.98905039
vt 0.51686001 0.98922741
vt 0.20135784 0.99541402
vt 0.19144335 0.97765005
vt 0.20714982 0.97294867
vt 0.53073585 0.99562782
vt 0.52008337 0.98102939
vt 0.54174805 0.97224629
vt 0.67496508 0.98079854
vt 0.69695121 0.98054636
vt 0.68040603 0.99590486
vt 0.55942148 0.99649537
vt 0.55045933 0.98332965
vt 0.57211041 0.97756892
vt 0.013349912 0.99547017
vt 0.0030979984 0.97845101
vt 0.015305568 0.97784901
vt 0.020887252 0.98034859
vt 0.030252445 0.99601561
vt 0.01916538 0.99607563
vt 0.043060869 0.9947983
vt 0.051192086 0.98896509
vt 0.047452264 0.99494046
vt 0.048867844 0.99654001
vt 0.051967908 0.99132591
vt 0.007569294 0.99426556
vt 0.0037606782 0.99157834
vt 0.0044859042 0.99131095
vt 0.0075793839 0.99640876
usemtl Tile_+031_+023_L19_000302_0
f 34/119 36/120 9/121
f 203/622 188/623 182/624
f 121/1 126/2 60/3
f 178/837 179/838 187/839
f 92/375 93/376 115/377
f 187/631 188/623 201/630
f 176/921 147/922 175/923
f 185/633 128/638 189/636
f 184/277 173/278 178/279
f 143/1061 199/1062 142/1063
f 199/1062 143/1061 77/1064
f 194/292 200/295 131/299
f 170/600 168/601 171/602
f 65/314 132/311 72/307
f 141/326 146/315 75/321
f 122/617 158/614 151/613
f 171/602 191/608 152/606
f 63/53 166/69 161/65
f 196/286 90/296 193/294
f 202/293 90/296 196/286
f 89/297 106/301 118/290
f 178/634 187/631 201/630
f 192/282 127/285 196/286
f 127/285 202/293 196/286
f 116/291 119/298 200/295
f 146/1068 198/1069 131/1070
f 135/303 194/292 131/299
f 131/299 200/295 119/298
f 167/284 183/281 143/288
f 78/1065 199/1062 77/1064
f 116/1095 200/1096 197/1097
f 78/1074 77/1072 146/1068
f 146/1068 135/1071 198/1069
f 135/303 195/306 194/292
f 183/281 197/287 194/292
f 194/292 143/288 183/281
f 143/1061 194/1067 195/1066
f 196/286 184/277 192/282
f 196/286 118/290 117/283
f 197/287 183/281 117/283
f 174/842 177/843 179/838
f 184/277 196/286 117/283
f 118/290 196/286 193/294
f 127/285 192/282 189/280
f 193/294 89/297 118/290
f 173/840 175/847 148/845
f 181/844 177/843 148/845
f 181/844 180/848 182/846
f 168/929 180/930 181/928
f 170/600 180/604 168/601
f 182/624 180/628 170/625
f 179/838 186/841 187/839
f 171/602 172/607 191/608
f 150/925 169/927 147/922
f 191/608 154/610 152/606
f 190/603 171/602 152/606
f 154/610 191/608 172/607
f 178/634 185/633 189/636
f 187/631 186/627 188/623
f 182/846 186/841 181/844
f 189/280 192/282 184/277
f 178/279 189/280 184/277
f 167/284 173/278 183/281
f 183/281 173/278 184/277
f 177/843 181/844 186/841
f 181/928 148/926 147/922
f 173/840 174/842 179/838
f 179/838 178/837 173/840
f 177/843 174/842 173/840
f 148/845 177/843 173/840
f 167/740 155/741 175/742
f 175/289 173/278 167/284
f 167/740 143/747 140/745
f 155/741 149/744 175/742
f 169/605 156/609 172/607
f 172/607 156/609 154/610
f 169/605 172/607 171/602
f 168/601 169/605 171/602
f 168/929 181/928 147/922
f 137/41 164/52 165/47
f 137/41 130/21 136/31
f 136/340 138/349 76/320
f 130/21 139/16 75/25
f 130/21 137/41 165/47
f 164/52 137/41 560/60
f 162/54 165/47 164/52
f 151/743 155/741 167/740
f 562/341 145/325 563/348
f 133/11 139/16 130/21
f 164/52 166/69 63/53
f 47/55 63/53 161/65
f 166/69 164/52 565/75
f 165/47 162/54 62/42
f 63/53 162/54 164/52
f 63/53 49/48 62/42
f 129/26 163/32 51/33
f 47/55 161/65 64/70
f 161/65 166/69 74/76
f 50/17 160/14 133/11
f 159/7 144/13 133/11
f 121/1 157/6 123/4
f 124/491 160/492 50/493
f 136/31 130/21 75/25
f 157/620 158/614 122/617
f 133/11 126/2 159/7
f 65/314 145/325 76/320
f 570/337 66/322 571/336
f 167/740 140/745 151/743
f 140/20 142/39 141/30
f 132/311 75/321 146/315
f 76/320 132/311 65/314
f 140/20 139/16 144/13
f 143/747 142/749 140/745
f 141/30 142/39 78/46
f 146/1068 141/1075 78/1074
f 140/745 144/748 151/743
f 139/16 140/20 75/25
f 139/16 133/11 144/13
f 137/331 136/340 76/320
f 138/1092 75/1093 76/1094
f 138/40 136/31 75/25
f 76/320 145/325 137/331
f 123/752 122/750 159/751
f 122/750 144/748 159/751
f 158/614 157/620 120/619
f 144/748 122/750 151/743
f 153/612 156/609 151/613
f 158/614 153/612 151/613
f 150/746 155/741 151/743
f 154/610 156/609 153/612
f 152/606 154/610 153/612
f 156/609 150/611 151/613
f 155/741 150/746 149/744
f 163/32 49/48 51/33
f 133/11 160/14 124/8
f 91/379 92/375 90/383
f 121/531 60/532 111/533
f 202/293 103/304 102/300
f 96/998 88/999 97/1000
f 71/302 81/313 70/310
f 126/2 52/5 60/3
f 126/2 124/8 52/5
f 14/502 55/499 57/497
f 98/1003 99/1005 27/1006
f 56/503 55/499 10/507
f 135/1071 146/1068 77/1072
f 8/128 6/137 7/133
f 55/499 14/502 10/507
f 110/545 111/533 113/538
f 140/20 141/30 75/25
f 124/8 126/2 133/11
f 147/922 176/921 150/925
f 94/389 125/399 20/394
f 120/10 157/6 121/1
f 119/298 118/290 71/302
f 116/291 197/287 117/283
f 117/283 118/290 116/291
f 71/302 69/305 119/298
f 72/307 132/311 131/299
f 119/298 72/307 131/299
f 129/26 50/17 130/21
f 130/21 50/17 133/11
f 163/32 129/26 130/21
f 142/1063 199/1062 78/1065
f 123/4 126/2 121/1
f 116/291 118/290 119/298
f 126/2 123/4 159/7
f 202/371 127/372 128/373
f 113/538 25/544 110/545
f 50/493 52/494 124/491
f 108/387 86/396 82/391
f 121/531 111/533 114/534
f 114/534 111/533 112/537
f 21/554 110/545 19/555
f 109/543 112/537 111/533
f 111/533 110/545 109/543
f 110/545 21/554 109/543
f 107/382 101/380 32/390
f 71/385 106/381 105/378
f 31/392 86/396 108/387
f 71/385 108/387 82/391
f 105/378 108/387 71/385
f 118/290 106/301 71/302
f 89/386 92/375 106/381
f 92/375 115/377 105/378
f 106/381 92/375 105/378
f 115/377 101/380 107/382
f 20/418 13/419 18/420
f 32/390 101/380 95/384
f 8/128 33/125 3/123
f 98/973 29/974 100/975
f 97/1000 38/1002 80/1004
f 80/1004 99/1005 97/1000
f 80/1004 27/1006 99/1005
f 98/1003 100/1001 97/1000
f 27/426 30/444 98/446
f 30/976 29/974 98/973
f 18/420 15/422 27/426
f 18/397 32/390 20/394
f 102/388 104/393 94/389
f 94/389 91/379 102/388
f 102/388 91/379 90/383
f 102/300 90/296 202/293
f 104/309 102/300 103/304
f 101/380 115/377 93/376
f 91/379 95/384 93/376
f 32/390 95/384 94/389
f 94/389 20/394 32/390
f 89/297 193/294 90/296
f 92/375 91/379 93/376
f 97/1000 99/1005 98/1003
f 88/999 38/1002 97/1000
f 97/1000 100/1001 96/998
f 96/978 100/975 87/977
f 79/1030 26/1031 578/1032
f 87/1034 26/1031 79/1030
f 87/977 100/975 29/974
f 38/1076 88/1077 87/1078
f 576/454 39/448 581/452
f 39/448 31/431 582/445
f 31/431 28/435 80/439
f 80/439 38/443 31/431
f 82/391 83/401 84/405
f 85/458 84/456 577/457
f 36/120 3/123 9/121
f 86/396 39/402 83/401
f 31/392 39/402 86/396
f 83/401 39/402 84/405
f 81/395 82/391 85/400
f 83/401 82/391 86/396
f 131/1070 198/1069 135/1071
f 67/319 70/310 81/313
f 70/310 67/319 73/324
f 66/322 70/310 73/324
f 573/329 68/323 586/338
f 82/391 81/395 71/385
f 69/305 70/310 72/307
f 117/283 183/281 184/277
f 69/305 71/302 70/310
f 81/313 68/323 67/319
f 587/413 81/395 588/408
f 70/310 66/322 65/314
f 66/322 145/325 65/314
f 75/321 132/311 76/320
f 72/307 119/298 69/305
f 70/310 65/314 72/307
f 571/336 73/324 589/339
f 73/324 67/319 572/330
f 64/505 44/501 47/498
f 64/70 74/76 568/82
f 74/76 64/70 161/65
f 46/509 41/517 45/523
f 40/518 46/509 45/523
f 41/517 46/509 593/514
f 593/514 64/505 595/516
f 130/21 165/47 62/42
f 162/54 63/53 62/42
f 64/505 46/509 44/501
f 42/506 59/508 48/495
f 49/48 47/55 51/33
f 150/611 156/609 169/605
f 50/17 129/26 51/33
f 52/494 48/495 57/497
f 52/5 61/9 60/3
f 49/48 163/32 62/42
f 163/32 130/21 62/42
f 63/53 47/55 49/48
f 48/495 51/496 47/498
f 42/506 44/501 53/510
f 40/518 53/510 46/509
f 44/501 46/509 53/510
f 56/549 25/544 54/535
f 113/538 54/535 25/544
f 57/497 58/500 43/504
f 60/532 61/539 54/535
f 54/535 61/539 52/546
f 48/495 58/500 57/497
f 10/507 25/513 56/503
f 52/494 55/499 56/503
f 56/549 54/535 52/546
f 57/497 55/499 52/494
f 48/495 59/508 43/504
f 43/504 42/506 33/511
f 48/495 43/504 58/500
f 42/506 53/510 33/511
f 33/511 53/510 34/519
f 33/511 14/502 43/504
f 596/131 4/127 597/135
f 14/502 57/497 43/504
f 8/128 3/123 697/132
f 41/517 40/518 45/523
f 602/528 40/518 603/529
f 35/527 34/519 40/518
f 4/127 3/123 37/124
f 53/510 40/518 34/519
f 34/519 9/524 33/511
f 1/141 2/151 23/147
f 699/157 2/151 700/164
f 8/128 7/133 33/125
f 36/120 34/119 35/122
f 5/515 14/502 33/511
f 722/432 15/422 723/430
f 31/431 18/420 27/426
f 3/123 36/120 37/124
f 35/122 37/124 36/120
f 10/507 14/502 6/512
f 599/126 35/122 605/129
f 582/445 38/443 606/447
f 26/979 30/976 724/980
f 724/440 27/426 726/436
f 32/390 18/397 31/392
f 728/425 13/419 731/428
f 25/513 10/507 6/512
f 6/512 19/520 25/513
f 23/696 134/697 17/698
f 6/137 22/149 21/155
f 12/421 13/419 20/418
f 15/422 18/420 13/419
f 1/141 23/147 17/142
f 5/138 7/133 6/137
f 17/142 6/137 8/128
f 21/155 19/161 6/137
f 17/142 16/145 6/137
f 17/142 8/128 1/141
f 5/138 33/125 7/133
f 14/502 5/515 6/512
f 1/141 8/128 698/136
f 703/156 1/141 704/150
f 697/132 596/131 718/140
f 88/1077 96/1080 87/1078
f 33/125 9/121 3/123
f 149/924 150/925 176/921
f 131/299 132/311 146/315
f 186/627 182/624 188/623
f 195/1066 77/1064 143/1061
f 77/1072 195/1073 135/1071
f 200/295 194/292 197/287
f 127/639 189/636 128/638
f 186/841 179/838 177/843
f 148/926 175/923 147/922
f 175/923 149/924 176/921
f 168/929 147/922 169/927
f 74/76 166/69 566/81
f 123/621 157/620 122/617
f 21/554 24/559 109/543
f 43/504 59/508 42/506
f 38/443 79/451 574/449
f 95/384 91/379 94/389
f 108/387 105/378 107/382
f 82/391 84/405 85/400
f 107/382 105/378 115/377
f 24/559 22/553 109/543
f 92/375 89/386 90/383
f 31/392 108/387 32/390
f 50/493 48/495 52/494
f 111/533 60/532 54/535
f 113/538 111/533 54/535
f 25/544 19/555 110/545
f 32/390 108/387 107/382
f 125/423 12/421 20/418
f 27/426 28/435 31/431
f 93/376 95/384 101/380
f 29/974 30/976 87/977
f 26/979 87/977 30/976
f 79/1079 38/1076 87/1078
f 81/395 85/400 585/404
f 40/518 41/517 600/526
f 44/501 48/495 47/498
f 48/495 50/493 51/496
f 48/495 44/501 42/506
f 80/439 28/435 27/426
f 4/127 37/124 598/130
f 13/419 12/421 729/424
f 104/393 445/403 340/398
f 229/986 227/987 338/988
f 333/189 335/199 334/210
f 250/1007 249/1008 341/1009
f 204/668 205/669 274/670
f 322/1057 493/1058 323/1059
f 294/640 521/641 297/642
f 319/308 442/312 317/317
f 211/576 213/577 608/578
f 273/671 274/670 329/673
f 202/371 128/373 310/374
f 313/50 309/29 314/45
f 232/594 311/593 225/596
f 128/352 185/344 310/316
f 308/23 293/18 309/29
f 306/93 499/91 495/96
f 303/49 305/36 304/56
f 302/358 301/356 295/353
f 279/753 330/754 280/755
f 280/755 278/758 277/759
f 262/550 261/552 234/540
f 270/931 275/932 219/933
f 290/711 267/712 289/713
f 271/558 474/564 272/548
f 546/756 279/753 280/755
f 232/594 231/598 614/599
f 338/796 230/797 229/798
f 227/943 229/944 228/945
f 218/772 249/773 224/774
f 219/933 221/936 220/934
f 223/935 270/931 269/938
f 213/577 212/580 258/582
f 213/577 260/586 259/587
f 237/870 258/871 257/872
f 255/803 519/801 256/799
f 253/960 254/961 206/962
f 490/1013 241/1010 240/1011
f 211/576 212/580 213/577
f 208/967 207/963 206/962
f 253/960 206/962 207/963
f 550/342 446/345 441/334
f 332/361 448/360 734/366
f 317/317 558/327 551/332
f 295/353 301/356 446/345
f 317/317 310/316 558/327
f 310/316 317/317 442/312
f 454/35 455/43 292/38
f 293/18 292/38 309/29
f 308/23 309/29 185/37
f 278/894 523/895 277/896
f 523/895 461/898 277/896
f 455/43 559/51 292/38
f 456/57 304/56 559/51
f 313/351 314/355 295/353
f 549/1089 313/1090 551/1091
f 496/63 296/59 559/51
f 292/38 559/51 314/45
f 455/43 456/57 559/51
f 304/56 496/63 559/51
f 557/73 556/85 295/79
f 298/74 460/80 299/67
f 320/84 299/67 460/80
f 295/79 296/59 557/73
f 300/78 320/84 499/91
f 298/74 443/72 331/66
f 496/63 443/72 298/74
f 320/84 300/78 299/67
f 460/80 449/86 320/84
f 618/98 452/90 619/103
f 499/91 452/90 300/78
f 452/90 554/94 553/83
f 738/106 555/99 741/112
f 557/73 553/83 556/85
f 555/99 554/94 621/105
f 556/85 553/83 740/95
f 555/99 553/83 554/94
f 222/815 545/816 223/817
f 296/59 496/63 299/67
f 294/640 376/648 263/644
f 270/931 223/935 275/932
f 557/73 296/59 299/67
f 295/1085 314/1086 552/1087
f 557/73 299/67 300/78
f 448/360 556/363 744/365
f 448/360 302/358 295/353
f 309/29 313/50 548/44
f 309/29 292/38 314/45
f 185/344 548/333 310/316
f 223/817 545/816 275/819
f 185/37 309/29 548/44
f 201/630 152/632 185/633
f 226/899 222/897 223/902
f 152/632 201/630 321/626
f 549/343 551/332 558/327
f 314/45 559/51 296/59
f 295/1085 552/1087 296/1088
f 313/351 295/353 550/342
f 296/1088 552/1087 314/1086
f 550/342 317/317 551/332
f 551/332 313/351 550/342
f 170/625 203/622 182/624
f 170/600 171/602 190/603
f 548/333 549/343 558/327
f 548/44 313/50 549/58
f 185/633 152/632 528/635
f 152/632 321/626 190/629
f 201/630 188/623 321/626
f 188/623 203/622 321/626
f 203/622 170/625 190/629
f 203/622 190/629 321/626
f 201/630 185/633 178/634
f 219/933 220/934 270/931
f 230/797 228/800 229/798
f 541/650 542/655 297/642
f 545/816 222/815 330/818
f 278/821 330/818 222/815
f 277/759 504/763 546/756
f 227/943 228/945 513/946
f 230/797 530/802 228/800
f 287/849 500/850 511/851
f 268/790 526/794 502/793
f 311/940 270/931 225/937
f 278/894 222/897 523/895
f 382/947 227/943 513/946
f 252/863 515/856 251/859
f 519/801 530/802 230/797
f 546/756 280/755 277/759
f 219/823 275/819 286/820
f 275/819 545/816 286/820
f 505/764 266/768 265/760
f 504/763 505/764 546/756
f 501/791 502/793 524/795
f 623/891 537/888 624/890
f 546/756 265/760 279/753
f 330/754 278/758 280/755
f 219/823 538/826 547/829
f 538/826 539/831 547/829
f 539/831 541/834 547/829
f 540/657 542/655 205/665
f 541/834 544/832 547/829
f 276/942 225/937 221/936
f 219/823 547/829 544/832
f 219/933 544/939 221/936
f 544/939 276/942 221/936
f 294/640 297/642 625/643
f 276/649 544/645 521/641
f 297/642 521/641 544/645
f 508/809 530/802 507/806
f 328/885 265/880 216/876
f 624/890 216/876 631/889
f 216/876 537/888 328/885
f 284/678 342/685 632/683
f 297/642 544/645 541/650
f 540/657 205/665 613/666
f 274/670 273/671 204/668
f 273/671 284/678 633/681
f 612/672 204/668 644/675
f 543/830 274/833 205/835
f 204/668 273/671 643/674
f 539/831 543/830 542/836
f 542/836 541/834 539/831
f 329/828 274/833 543/830
f 539/831 538/826 533/825
f 533/825 538/826 286/820
f 329/828 543/830 533/825
f 539/831 533/825 543/830
f 219/823 286/820 538/826
f 542/655 540/657 297/642
f 330/818 286/820 545/816
f 291/761 330/754 288/757
f 284/678 534/682 342/685
f 282/680 281/686 535/684
f 330/754 279/753 288/757
f 281/766 279/753 327/765
f 328/689 536/694 636/693
f 535/684 328/689 645/691
f 265/760 328/769 327/765
f 328/689 537/695 536/694
f 328/769 281/766 327/765
f 281/766 282/762 279/753
f 279/753 265/760 327/765
f 288/757 282/762 291/761
f 279/753 282/762 288/757
f 533/825 286/820 285/822
f 329/828 285/822 283/827
f 285/822 286/820 330/818
f 330/818 291/824 285/822
f 291/824 283/827 285/822
f 285/822 329/828 533/825
f 329/673 283/676 273/671
f 534/682 284/678 282/680
f 282/762 283/770 291/761
f 284/678 273/671 283/676
f 535/684 281/686 328/689
f 283/676 282/680 284/678
f 282/680 535/684 534/682
f 326/866 517/860 529/864
f 257/872 266/873 237/870
f 254/961 253/960 529/964
f 254/961 510/965 206/962
f 208/967 510/965 512/971
f 531/804 228/800 530/802
f 266/873 216/876 265/880
f 617/881 257/872 648/886
f 525/949 514/951 501/954
f 206/962 510/965 208/967
f 235/952 207/956 514/951
f 207/956 208/959 514/951
f 208/959 503/958 514/951
f 514/951 513/946 235/952
f 509/865 209/867 508/862
f 236/869 209/867 326/866
f 214/1037 215/1038 525/1039
f 530/802 519/801 507/806
f 210/953 209/950 531/948
f 235/952 513/946 209/950
f 508/809 210/807 530/802
f 513/946 228/945 531/948
f 513/946 531/948 209/950
f 530/802 210/807 531/804
f 326/866 209/867 509/865
f 207/956 235/952 236/955
f 235/952 209/950 236/955
f 508/862 209/867 210/868
f 326/968 529/964 253/960
f 323/861 493/855 515/856
f 517/860 254/857 529/864
f 269/938 270/931 522/941
f 458/12 120/10 121/1
f 371/854 517/860 509/865
f 470/536 458/541 121/531
f 459/15 532/19 120/10
f 311/593 259/587 522/591
f 214/1037 267/1044 290/1041
f 158/614 120/619 532/616
f 152/606 158/614 528/615
f 528/615 158/614 532/616
f 520/618 528/615 532/616
f 528/635 520/637 185/633
f 522/906 462/900 269/905
f 260/904 518/901 461/898
f 375/992 256/990 381/989
f 521/641 263/644 276/649
f 498/903 462/900 522/906
f 276/649 263/644 264/654
f 225/937 220/934 221/936
f 256/799 230/797 338/796
f 270/931 220/934 225/937
f 226/899 223/902 269/905
f 526/1040 268/1043 214/1037
f 527/993 382/991 525/995
f 546/756 505/764 265/760
f 524/1042 526/1040 525/1039
f 526/794 524/795 502/793
f 525/1039 526/1040 214/1037
f 513/946 514/951 525/949
f 459/15 520/24 532/19
f 527/993 373/994 381/989
f 518/767 504/763 277/759
f 267/792 268/790 289/786
f 259/587 232/594 650/592
f 525/949 501/954 524/957
f 376/648 231/660 264/654
f 264/654 263/644 376/648
f 264/654 231/660 225/661
f 520/24 459/15 308/23
f 519/801 230/797 256/799
f 256/722 375/717 255/719
f 373/994 215/996 290/997
f 523/895 226/899 462/900
f 290/1041 215/1038 214/1037
f 527/993 215/996 373/994
f 226/899 269/905 462/900
f 326/866 509/865 517/860
f 500/850 287/849 492/852
f 260/904 238/907 518/901
f 238/584 213/577 258/582
f 287/849 516/853 492/852
f 323/861 515/856 252/863
f 489/805 255/803 246/808
f 516/853 493/855 492/852
f 244/782 289/786 245/775
f 245/775 289/786 372/784
f 213/577 238/584 260/586
f 218/772 224/774 245/775
f 266/873 257/872 216/876
f 257/872 211/875 647/879
f 266/873 506/877 237/870
f 501/791 503/787 372/784
f 518/767 506/771 266/768
f 507/806 519/801 489/805
f 372/784 268/790 502/793
f 252/810 251/812 489/805
f 507/806 489/805 508/809
f 254/857 517/860 371/854
f 371/854 515/856 516/853
f 500/781 217/777 511/783
f 251/859 515/856 371/854
f 511/783 217/777 512/780
f 511/970 512/971 510/965
f 372/784 512/780 245/775
f 254/961 287/969 510/965
f 511/970 510/965 287/969
f 508/862 371/854 509/865
f 518/882 238/874 506/877
f 502/793 501/791 372/784
f 505/764 518/767 266/768
f 504/763 518/767 505/764
f 512/780 372/784 503/787
f 237/870 506/877 238/874
f 125/423 11/427 12/421
f 436/192 438/169 415/179
f 447/460 475/461 351/462
f 370/908 369/909 249/910
f 421/1045 425/1046 428/1047
f 234/540 114/534 233/542
f 500/781 492/779 218/772
f 556/363 448/360 295/353
f 396/154 355/153 386/168
f 379/725 377/726 348/727
f 248/1012 243/1014 341/1009
f 480/788 481/789 244/782
f 222/897 226/899 523/895
f 218/772 217/777 500/781
f 434/708 389/706 435/703
f 249/910 250/911 370/908
f 17/142 427/148 16/145
f 437/1049 471/1050 444/1051
f 293/18 454/35 292/38
f 361/463 447/460 351/462
f 498/589 522/591 259/587
f 351/462 350/466 361/463
f 466/551 465/567 467/565
f 305/36 303/49 455/43
f 245/775 224/774 369/778
f 477/468 450/475 476/470
f 241/1010 341/1009 249/1008
f 240/858 492/852 493/855
f 331/66 304/56 450/62
f 452/90 306/93 654/107
f 335/199 345/221 334/210
f 746/335 316/328 747/346
f 317/317 445/318 319/308
f 22/553 233/542 109/543
f 497/707 435/703 484/702
f 484/702 482/705 497/707
f 482/705 484/702 483/699
f 366/202 433/213 365/165
f 379/918 480/916 380/914
f 403/227 366/202 706/239
f 421/172 423/174 424/195
f 377/726 494/730 348/727
f 298/74 299/67 496/63
f 333/467 334/473 416/464
f 451/482 352/481 339/483
f 315/253 352/243 359/233
f 242/1018 478/1019 491/1020
f 404/254 412/264 413/259
f 392/211 400/222 388/235
f 224/912 249/910 369/909
f 656/273 413/259 657/269
f 389/706 431/709 391/704
f 345/476 337/474 416/464
f 22/149 24/162 21/155
f 553/83 300/78 452/90
f 294/640 263/644 521/641
f 553/83 557/73 300/78
f 394/178 408/200 392/211
f 355/153 354/186 407/197
f 211/875 257/872 258/871
f 258/871 212/878 211/875
f 248/1012 241/1010 490/1013
f 414/265 411/270 662/271
f 244/782 369/778 370/785
f 248/1012 490/1013 348/1016
f 241/1010 249/1008 240/1011
f 241/1010 248/1012 341/1009
f 218/772 492/779 240/776
f 249/773 218/772 240/776
f 341/1024 242/1018 250/1021
f 480/916 370/908 380/914
f 380/914 370/908 491/913
f 242/1018 491/1020 250/1021
f 486/728 487/736 485/732
f 357/1022 243/1026 494/1027
f 248/1012 348/1016 494/1017
f 322/731 486/728 348/727
f 242/1018 341/1024 243/1026
f 377/726 357/734 494/730
f 494/1017 243/1014 248/1012
f 493/1058 322/1057 240/1060
f 322/1015 490/1013 240/1011
f 322/731 323/735 486/728
f 490/1013 322/1015 348/1016
f 246/808 488/813 252/810
f 247/721 255/719 453/716
f 323/735 487/736 486/728
f 453/716 485/724 247/721
f 247/811 485/814 488/813
f 252/739 488/737 487/736
f 272/548 466/551 271/558
f 246/808 247/811 488/813
f 487/736 323/735 252/739
f 487/736 488/737 485/732
f 379/725 486/728 485/732
f 493/855 516/853 515/856
f 519/801 255/803 489/805
f 431/709 389/706 434/708
f 429/214 424/195 403/227
f 435/703 497/707 434/708
f 428/1047 425/1046 363/1048
f 485/724 453/716 379/723
f 486/728 379/725 348/727
f 430/1023 478/1019 356/1025
f 434/708 497/707 482/705
f 23/696 365/701 483/699
f 482/226 365/165 433/213
f 434/1081 432/1082 419/1083
f 365/701 482/705 483/699
f 23/696 483/699 134/697
f 484/702 134/697 483/699
f 430/1023 491/1020 478/1019
f 427/148 391/152 420/158
f 402/240 426/241 429/214
f 352/481 315/485 339/483
f 260/586 498/589 259/587
f 244/782 481/789 289/786
f 480/720 453/716 481/718
f 289/713 481/718 453/716
f 450/62 304/56 305/36
f 305/465 476/470 450/475
f 477/468 337/474 479/477
f 477/468 479/477 450/475
f 315/253 359/233 665/252
f 232/594 259/587 311/593
f 450/475 479/477 336/478
f 393/201 385/224 239/206
f 416/464 477/468 475/461
f 447/460 416/464 475/461
f 475/461 477/468 476/470
f 351/462 475/461 305/465
f 467/565 465/567 472/570
f 350/569 473/571 436/573
f 415/472 361/463 350/466
f 453/716 480/720 379/723
f 467/565 473/571 350/569
f 436/573 415/575 350/569
f 22/553 368/561 262/550
f 325/180 437/160 438/169
f 463/557 464/547 261/552
f 324/566 463/557 437/568
f 325/572 438/574 472/570
f 262/550 233/542 22/553
f 109/543 233/542 112/537
f 114/534 234/540 470/536
f 463/557 471/563 437/568
f 324/566 325/572 472/570
f 261/1053 367/1052 471/1050
f 261/552 262/550 367/560
f 467/565 472/570 473/571
f 472/570 438/574 436/573
f 472/570 465/567 469/562
f 469/562 324/566 472/570
f 436/573 473/571 472/570
f 469/562 468/556 324/566
f 261/552 471/563 463/557
f 468/556 463/557 324/566
f 234/540 233/542 262/550
f 464/547 466/551 470/536
f 464/547 463/557 468/556
f 469/562 465/567 466/551
f 468/556 469/562 466/551
f 351/462 318/469 271/471
f 271/558 466/551 467/565
f 468/556 466/551 464/547
f 261/552 464/547 234/540
f 272/548 458/541 470/536
f 271/1104 318/1105 474/1106
f 305/465 318/469 351/462
f 293/18 318/22 457/28
f 466/551 272/548 470/536
f 305/36 457/28 318/22
f 474/34 318/22 272/27
f 272/27 318/22 458/12
f 318/22 293/18 458/12
f 470/536 234/540 464/547
f 114/534 470/536 121/531
f 293/18 459/15 458/12
f 308/23 459/15 293/18
f 458/12 459/15 120/10
f 508/862 251/859 371/854
f 311/940 522/941 270/931
f 457/28 305/36 455/43
f 252/810 489/805 246/808
f 457/28 454/35 293/18
f 312/61 456/57 303/49
f 455/43 303/49 456/57
f 304/56 312/61 303/49
f 255/803 247/811 246/808
f 255/719 374/714 453/716
f 453/716 374/714 289/713
f 268/1043 267/1044 214/1037
f 382/991 381/989 227/987
f 461/898 523/895 462/900
f 225/596 231/598 232/594
f 614/664 376/648 668/663
f 331/66 450/62 336/71
f 337/474 336/478 479/477
f 449/86 460/80 298/74
f 337/474 383/480 336/478
f 499/91 320/84 495/96
f 383/77 306/93 449/86
f 320/84 449/86 495/96
f 306/93 307/97 670/102
f 383/77 449/86 298/74
f 298/74 331/66 383/77
f 336/71 383/77 331/66
f 671/486 339/483 673/488
f 451/482 337/474 352/481
f 449/86 306/93 495/96
f 335/199 353/209 345/221
f 352/243 353/209 359/233
f 750/406 445/403 751/410
f 317/317 441/334 316/328
f 748/412 340/398 752/411
f 446/345 440/359 754/357
f 747/346 446/345 755/354
f 125/399 94/389 340/398
f 316/328 445/318 317/317
f 437/1049 444/1051 367/1052
f 340/398 94/389 104/393
f 103/304 319/308 104/309
f 340/398 397/407 125/399
f 304/56 331/66 443/72
f 437/160 22/149 396/154
f 319/308 445/318 104/309
f 446/345 550/342 295/353
f 316/328 441/334 446/345
f 332/361 301/356 302/358
f 440/359 332/361 732/364
f 456/57 312/61 304/56
f 443/72 496/63 304/56
f 332/361 302/358 448/360
f 440/359 446/345 301/356
f 440/359 301/356 332/361
f 317/317 550/342 441/334
f 442/312 319/308 202/293
f 319/308 103/304 202/293
f 152/606 153/612 158/614
f 202/293 310/316 442/312
f 433/710 434/708 482/705
f 11/427 397/433 757/437
f 427/148 355/153 16/145
f 520/24 308/23 185/37
f 434/1081 433/1084 432/1082
f 366/202 439/194 708/212
f 365/165 23/147 699/157
f 484/702 435/703 134/697
f 366/202 432/216 433/213
f 435/703 390/700 134/697
f 709/182 365/165 711/171
f 391/152 427/148 17/142
f 11/427 125/423 397/433
f 759/434 11/427 760/438
f 367/181 368/170 437/160
f 427/148 420/158 418/159
f 390/700 17/698 134/697
f 391/152 346/166 420/158
f 430/1023 356/1025 410/1028
f 429/214 426/241 364/228
f 424/195 429/214 362/203
f 358/917 363/920 378/919
f 358/185 354/186 343/175
f 402/240 399/245 426/241
f 363/1048 425/1046 421/1045
f 419/196 422/183 417/173
f 346/166 417/173 422/183
f 421/1054 428/1055 418/1056
f 362/203 429/214 364/228
f 390/700 391/704 17/698
f 419/196 432/216 366/202
f 366/202 422/183 419/196
f 424/195 422/183 366/202
f 431/1098 417/1099 391/1100
f 423/174 347/184 424/195
f 347/184 422/183 424/195
f 347/184 346/166 422/183
f 419/196 417/173 431/204
f 346/166 347/184 423/174
f 363/187 344/167 428/176
f 362/203 421/172 424/195
f 423/174 421/172 420/158
f 403/227 402/240 429/214
f 344/167 418/159 428/176
f 363/733 357/734 377/726
f 358/1029 430/1023 410/1028
f 407/197 408/200 406/190
f 426/241 400/222 364/228
f 356/229 364/228 410/230
f 344/167 343/175 355/153
f 346/166 423/174 420/158
f 361/463 333/467 447/460
f 333/467 416/464 447/460
f 396/154 333/189 361/193
f 354/186 358/185 409/205
f 394/178 393/201 395/191
f 384/177 360/220 353/209
f 410/230 408/200 358/185
f 394/178 395/191 386/168
f 394/178 406/190 408/200
f 387/188 395/191 239/206
f 239/206 385/224 679/231
f 398/232 360/220 384/177
f 665/252 398/232 681/256
f 345/476 349/479 337/474
f 353/209 335/199 384/177
f 387/188 239/206 680/217
f 661/238 393/201 684/237
f 408/200 409/205 358/185
f 407/197 354/186 409/205
f 384/177 335/199 333/189
f 355/153 407/197 406/190
f 406/190 394/178 355/153
f 392/211 393/201 394/178
f 685/223 392/211 686/236
f 400/222 399/245 388/235
f 392/211 388/235 405/244
f 399/245 402/240 401/249
f 413/259 405/244 404/254
f 413/259 414/265 405/244
f 414/265 413/259 411/270
f 412/264 404/254 714/258
f 657/269 412/264 687/272
f 400/222 408/200 410/230
f 388/235 403/227 713/260
f 388/235 401/249 403/227
f 358/185 344/167 363/187
f 388/235 404/254 405/244
f 688/246 405/244 689/257
f 333/189 396/154 384/177
f 384/177 387/188 678/198
f 355/153 394/178 386/168
f 386/168 387/188 384/177
f 387/188 386/168 395/191
f 16/145 22/149 6/137
f 408/200 400/222 392/211
f 355/153 427/148 418/159
f 355/153 396/154 16/145
f 389/706 391/704 390/700
f 421/172 418/159 420/158
f 339/483 307/484 383/480
f 383/480 451/482 339/483
f 437/568 325/572 324/566
f 205/835 542/836 543/830
f 290/711 289/713 374/714
f 742/116 622/111 763/117
f 548/333 558/327 310/316
f 634/652 540/657 635/662
f 381/989 256/990 338/988
f 338/988 227/987 381/989
f 326/968 253/960 236/966
f 527/993 381/989 382/991
f 534/682 535/684 646/687
f 637/688 534/682 693/690
f 503/972 208/967 512/971
f 236/966 253/960 207/963
f 215/996 527/993 525/995
f 382/947 513/946 525/949
f 373/994 375/992 381/989
f 518/901 277/896 461/898
f 225/661 276/649 264/654
f 376/648 294/640 652/653
f 374/714 255/719 375/717
f 462/900 498/903 461/898
f 290/711 374/714 373/715
f 514/951 503/958 501/954
f 375/717 373/715 374/714
f 461/898 498/903 260/904
f 289/786 268/790 372/784
f 287/849 254/857 371/854
f 245/775 217/777 218/772
f 258/871 237/870 238/874
f 508/809 489/805 251/812
f 516/853 287/849 371/854
f 217/777 245/775 512/780
f 337/474 451/482 383/480
f 386/168 384/177 396/154
f 357/1022 242/1018 243/1026
f 476/470 305/465 475/461
f 306/93 452/90 499/91
f 477/468 416/464 337/474
f 380/914 378/919 379/918
f 377/726 379/725 378/729
f 478/1019 242/1018 357/1022
f 434/215 419/196 431/204
f 426/241 399/245 400/222
f 360/220 398/232 359/233
f 405/244 414/265 663/262
f 369/778 244/782 245/775
f 250/911 491/913 370/908
f 430/915 380/914 491/913
f 363/733 377/726 378/729
f 358/185 343/175 344/167
f 478/1019 357/1022 356/1025
f 244/782 370/785 480/788
f 349/234 345/221 353/209
f 349/234 353/209 352/243
f 353/209 360/220 359/233
f 271/558 467/565 350/569
f 112/537 233/542 114/534
f 367/1052 444/1051 471/1050
f 271/471 350/466 351/462
f 455/43 454/35 457/28
f 307/97 306/93 383/77
f 339/483 315/485 658/487
f 349/479 352/481 337/474
f 367/560 262/550 368/561
f 22/149 437/160 368/170
f 439/194 366/202 365/165
f 390/700 435/703 389/706
f 403/227 424/195 366/202
f 363/187 362/203 356/229
f 356/738 357/734 363/733
f 362/203 364/228 356/229
f 362/203 363/187 421/172
f 417/173 346/166 391/152
f 438/169 396/154 415/179
f 416/464 334/473 345/476
f 393/201 239/206 395/191
f 408/200 407/197 409/205
f 402/240 403/227 401/249
f 388/235 399/245 401/249
f 714/258 388/235 717/263
f 364/228 400/222 410/230
f 361/193 415/179 396/154
f 22/149 16/145 396/154
f 396/154 438/169 437/160
f 691/218 384/177 692/207
f 355/153 418/159 344/167
f 695/585 259/587 696/588
f 380/914 358/917 378/919
f 430/915 358/917 380/914
f 343/175 354/186 355/153
f 560/350 137/331 562/341
f 561/64 164/52 560/60
f 562/341 137/331 145/325
f 563/348 145/325 570/337
f 564/68 164/52 561/64
f 565/75 164/52 564/68
f 566/81 166/69 565/75
f 567/88 74/76 569/89
f 568/82 74/76 567/88
f 569/89 74/76 566/81
f 570/337 145/325 66/322
f 571/336 66/322 73/324
f 572/330 67/319 573/329
f 573/329 67/319 68/323
f 574/449 79/451 575/453
f 575/453 79/451 580/455
f 576/454 84/456 39/448
f 577/457 84/456 576/454
f 578/1032 26/1031 607/1035
f 579/1033 79/1030 578/1032
f 580/1036 79/1030 579/1033
f 581/452 39/448 583/450
f 582/445 31/431 38/443
f 583/450 39/448 582/445
f 584/459 85/458 577/457
f 585/404 85/400 584/409
f 586/417 68/415 587/413
f 587/413 68/415 81/395
f 588/408 81/395 585/404
f 589/339 73/324 572/330
f 590/87 64/70 568/82
f 591/521 64/505 592/525
f 592/92 64/70 590/87
f 593/514 46/509 64/505
f 594/522 41/517 593/514
f 595/516 64/505 591/521
f 596/131 3/123 4/127
f 597/135 4/127 601/139
f 598/130 37/124 599/126
f 599/126 37/124 35/122
f 600/526 41/517 594/522
f 601/139 4/127 604/134
f 602/528 35/527 40/518
f 603/529 40/518 600/526
f 604/134 4/127 598/130
f 605/530 35/527 602/528
f 606/447 38/443 574/449
f 607/983 26/979 727/982
f 608/578 213/577 664/581
f 609/579 211/576 608/578
f 610/656 294/640 630/651
f 611/659 294/640 610/656
f 612/672 205/669 204/668
f 613/666 205/665 612/667
f 614/664 231/660 376/648
f 615/597 232/594 614/599
f 616/887 216/876 617/881
f 617/881 216/876 257/872
f 618/98 554/94 452/90
f 619/103 452/90 655/110
f 620/104 554/94 618/98
f 621/105 554/94 620/104
f 622/111 555/99 621/105
f 623/891 536/892 537/888
f 624/890 537/888 216/876
f 625/643 297/642 629/647
f 626/646 294/640 625/643
f 627/893 536/892 623/891
f 628/1112 536/1113 627/1114
f 629/647 297/642 634/652
f 630/651 294/640 626/646
f 631/889 216/876 616/887
f 632/1107 342/1108 642/1109
f 633/681 284/678 632/683
f 634/652 297/642 540/657
f 635/662 540/657 613/666
f 636/1115 536/1113 628/1112
f 637/688 342/685 534/682
f 638/692 342/685 637/688
f 639/677 273/671 640/679
f 640/679 273/671 633/681
f 641/1110 342/1108 638/1111
f 642/1109 342/1108 641/1110
f 643/674 273/671 639/677
f 644/675 204/668 643/674
f 645/691 328/689 636/693
f 646/687 535/684 645/691
f 647/879 211/875 609/884
f 648/886 257/872 649/883
f 649/883 257/872 647/879
f 650/592 232/594 653/595
f 651/590 259/587 650/592
f 652/653 294/640 611/659
f 653/595 232/594 615/597
f 654/107 306/93 675/114
f 655/110 452/90 654/107
f 656/273 411/270 413/259
f 657/269 413/259 412/264
f 658/487 315/485 659/490
f 659/267 315/253 666/261
f 660/247 385/224 661/238
f 661/238 385/224 393/201
f 662/271 411/270 676/275
f 663/262 414/265 662/271
f 664/581 213/577 667/583
f 665/252 359/233 398/232
f 666/261 315/253 665/252
f 667/583 213/577 695/585
f 668/663 376/648 669/658
f 669/658 376/648 652/653
f 670/489 307/484 671/486
f 671/486 307/484 339/483
f 672/109 306/93 670/102
f 673/488 339/483 658/487
f 674/115 306/93 672/109
f 675/114 306/93 674/115
f 676/275 411/270 656/273
f 677/208 387/188 683/219
f 678/198 387/188 677/208
f 679/231 385/224 694/248
f 680/217 239/206 679/231
f 681/256 398/232 682/251
f 682/251 398/232 690/242
f 683/219 387/188 680/217
f 684/237 393/201 685/223
f 685/223 393/201 392/211
f 686/236 392/211 688/246
f 687/272 412/264 715/268
f 688/246 392/211 405/244
f 689/257 405/244 663/262
f 690/242 398/232 691/218
f 691/218 398/232 384/177
f 692/207 384/177 678/198
f 693/690 534/682 646/687
f 694/248 385/224 660/247
f 695/585 213/577 259/587
f 696/588 259/587 651/590
f 697/132 3/123 596/131
f 698/136 8/128 697/132
f 699/157 23/147 2/151
f 700/164 2/151 701/163
f 701/163 2/151 703/156
f 702/144 1/141 698/136
f 703/156 2/151 1/141
f 704/150 1/141 705/146
f 705/146 1/141 702/144
f 706/239 366/202 710/225
f 707/250 403/227 706/239
f 708/1101 439/1102 709/1103
f 709/182 439/194 365/165
f 710/225 366/202 708/212
f 711/171 365/165 699/157
f 712/255 403/227 707/250
f 713/260 403/227 712/255
f 714/258 404/254 388/235
f 715/268 412/264 714/258
f 716/266 388/235 713/260
f 717/263 388/235 716/266
f 718/140 596/131 719/143
f 720/274 687/272 715/268
f 721/276 687/272 720/274
f 722/432 27/426 15/422
f 723/430 15/422 728/425
f 724/440 30/444 27/426
f 725/981 26/979 724/980
f 726/436 27/426 722/432
f 727/982 26/979 725/981
f 728/425 15/422 13/419
f 729/424 12/421 730/429
f 730/429 12/421 759/434
f 731/428 13/419 729/424
f 732/364 332/361 733/367
f 733/367 332/361 735/370
f 734/366 448/360 745/368
f 735/370 332/361 734/366
f 736/113 553/83 738/106
f 737/108 553/83 736/113
f 738/106 553/83 555/99
f 739/101 553/83 737/108
f 740/95 553/83 739/101
f 741/112 555/99 742/116
f 742/116 555/99 622/111
f 743/100 556/85 740/95
f 744/365 556/363 743/369
f 745/368 448/360 744/365
f 746/335 445/318 316/328
f 747/346 316/328 446/345
f 748/412 397/407 340/398
f 749/414 397/407 748/412
f 750/406 340/398 445/403
f 751/347 445/318 746/335
f 752/411 340/398 750/406
f 753/416 397/407 749/414
f 754/357 440/359 756/362
f 755/354 446/345 754/357
f 756/362 440/359 732/364
f 757/437 397/433 753/442
f 758/441 11/427 757/437
f 759/434 12/421 11/427
f 760/438 11/427 758/441
f 761/984 607/983 727/982
f 762/985 607/983 761/984
f 763/117 622/111 764/118
usemtl Tile_+031_+023_L19_000302_untextured
