mtllib Tile_+031_+023_L19_000120.mtl
v 6.12767657e+03 5.59336591e+03 2.28376462e+01
v 6.12878952e+03 5.59279051e+03 2.32389306e+01
v 6.13030792e+03 5.59363046e+03 2.25208963e+01
v 6.12699366e+03 5.59396082e+03 2.32539591e+01
v 6.12894901e+03 5.59339213e+03 2.38061264e+01
v 6.12987522e+03 5.59359416e+03 2.46198179e+01
v 6.12950901e+03 5.59332773e+03 2.06274937e+01
v 6.12877551e+03 5.59334538e+03 2.46868352e+01
v 6.12988015e+03 5.59297714e+03 2.19533956e+01
v 6.12839842e+03 5.59290829e+03 2.24180592e+01
v 6.12929134e+03 5.59380609e+03 2.54799818e+01
v 6.13314831e+03 5.58804952e+03 1.14890927e+01
v 6.13301041e+03 5.58845928e+03 1.22718840e+01
v 6.13436378e+03 5.58560063e+03 1.33827006e+01
v 6.13397939e+03 5.58643746e+03 1.45121935e+01
v 6.13106184e+03 5.58861844e+03 1.57087891e+01
v 6.13133953e+03 5.58906991e+03 1.47671882e+01
v 6.13147293e+03 5.58821170e+03 1.56548256e+01
v 6.13013861e+03 5.59391635e+03 1.86185809e+01
v 6.12977280e+03 5.59355502e+03 1.68554690e+01
v 6.12899698e+03 5.59309996e+03 1.66187939e+01
v 6.13029910e+03 5.59343827e+03 1.54376929e+01
v 6.12913330e+03 5.59240682e+03 1.48204381e+01
v 6.12831921e+03 5.59218325e+03 1.25162476e+01
v 6.13086647e+03 5.58799199e+03 1.55454097e+01
v 6.12741265e+03 5.59156062e+03 1.00118394e+01
v 6.12805420e+03 5.58955105e+03 9.84285744e+00
v 6.13065536e+03 5.59368808e+03 1.78088755e+01
v 6.13468749e+03 5.56972763e+03 1.28115743e+01
v 6.13514441e+03 5.56655024e+03 1.20456196e+01
v 6.13616571e+03 5.57127514e+03 1.25455967e+01
v 6.13529790e+03 5.56695411e+03 1.05409768e+01
v 6.13322576e+03 5.57276799e+03 1.20136594e+01
v 6.13242180e+03 5.57889434e+03 1.22200263e+01
v 6.13385032e+03 5.57567112e+03 1.20392769e+01
v 6.13206096e+03 5.57701151e+03 1.08555790e+01
v 6.13193944e+03 5.57707522e+03 1.24893900e+01
v 6.13634412e+03 5.57695057e+03 1.25056482e+01
v 6.13542437e+03 5.57614893e+03 1.28351701e+01
v 6.13187997e+03 5.57883450e+03 1.27348526e+01
v 6.13303364e+03 5.57524479e+03 1.28166064e+01
v 6.13111548e+03 5.58626250e+03 1.54778091e+01
v 6.13140627e+03 5.58554352e+03 1.49592932e+01
v 6.13079770e+03 5.58557561e+03 1.40679389e+01
v 6.13074428e+03 5.58799450e+03 1.48177351e+01
v 6.13121083e+03 5.57725311e+03 1.10596265e+01
v 6.13121798e+03 5.57914982e+03 1.21093664e+01
v 6.13191747e+03 5.58508403e+03 1.24692594e+01
v 6.13161664e+03 5.58499071e+03 1.39506862e+01
v 6.13029889e+03 5.58767620e+03 1.41105851e+01
v 6.13055029e+03 5.58863087e+03 1.43111981e+01
v 6.12981549e+03 5.58579506e+03 1.28435223e+01
v 6.12871679e+03 5.58735604e+03 1.22757648e+01
v 6.13060038e+03 5.58549040e+03 1.19049909e+01
v 6.13037091e+03 5.58652532e+03 1.23159605e+01
v 6.13357628e+03 5.58913617e+03 1.35335583e+01
v 6.13312937e+03 5.58825888e+03 1.43292999e+01
v 6.13447221e+03 5.58646718e+03 1.45503535e+01
v 6.13295825e+03 5.58624957e+03 1.32783984e+01
v 6.13230143e+03 5.58537034e+03 1.42818458e+01
v 6.13309429e+03 5.58790254e+03 1.34932009e+01
v 6.13319238e+03 5.58616671e+03 1.31743478e+01
v 6.13332504e+03 5.58663054e+03 1.17353032e+01
v 6.13119255e+03 5.58106763e+03 1.28491398e+01
v 6.13171137e+03 5.58254928e+03 1.18637444e+01
v 6.13405906e+03 5.57540999e+03 1.07246086e+01
v 6.13186469e+03 5.58663125e+03 1.51731308e+01
v 6.13279926e+03 5.58773714e+03 1.38268710e+01
v 6.13299285e+03 5.58641692e+03 1.32930070e+01
v 6.12874973e+03 5.58935882e+03 1.28740660e+01
v 6.12794323e+03 5.59152484e+03 1.28724963e+01
v 6.13274107e+03 5.58879102e+03 1.37417277e+01
v 6.13410735e+03 5.58840915e+03 1.46294296e+01
v 6.13212144e+03 5.58846221e+03 1.27499735e+01
v 6.13260846e+03 5.58811240e+03 1.23853707e+01
v 6.13362915e+03 5.58745361e+03 1.41423372e+01
v 6.12980837e+03 5.59302898e+03 1.43482332e+01
v 6.13206645e+03 5.58880888e+03 1.44066194e+01
v 6.13468006e+03 5.58892232e+03 1.35739009e+01
v 6.13510586e+03 5.58738578e+03 1.22553471e+01
v 6.13426708e+03 5.58737660e+03 1.42335929e+01
v 6.13525756e+03 5.58689018e+03 1.33210198e+01
v 6.12833015e+03 5.59226725e+03 1.50975303e+01
v 6.12759121e+03 5.59088269e+03 1.23156618e+01
v 6.12675588e+03 5.59371359e+03 1.24929435e+01
v 6.13155867e+03 5.58207348e+03 1.19778908e+01
v 6.13874151e+03 5.57723901e+03 1.28137045e+01
v 6.13194487e+03 5.58586155e+03 1.54845433e+01
v 6.13065467e+03 5.58795906e+03 1.30378969e+01
v 6.13013757e+03 5.58226585e+03 1.19586764e+01
v 6.13019048e+03 5.58761979e+03 1.12527597e+01
v 6.12740521e+03 5.59341607e+03 1.35974244e+01
v 6.12896338e+03 5.59039235e+03 1.20192687e+01
v 6.13471853e+03 5.58580413e+03 1.24926494e+01
v 6.12753929e+03 5.59293729e+03 1.47291065e+01
v 6.12799517e+03 5.59219299e+03 1.37127234e+01
v 6.13137038e+03 5.58851424e+03 1.29359987e+01
v 6.12773702e+03 5.59080697e+03 1.10975293e+01
v 6.12854202e+03 5.58829954e+03 1.00826283e+01
v 6.12944222e+03 5.59035295e+03 1.06696940e+01
v 6.12816561e+03 5.59329375e+03 1.17628236e+01
v 6.12975662e+03 5.58904192e+03 1.11238562e+01
v 6.13113272e+03 5.58695078e+03 1.49270516e+01
v 6.13496276e+03 5.58596319e+03 1.12065699e+01
v 6.13424641e+03 5.58903434e+03 1.23873446e+01
v 6.13461718e+03 5.58906356e+03 1.11717712e+01
v 6.13344548e+03 5.58899126e+03 1.14572762e+01
v 6.13156798e+03 5.58934557e+03 1.13824776e+01
v 6.13063978e+03 5.58901982e+03 1.14539444e+01
v 6.13406728e+03 5.58370360e+03 1.18262485e+01
v 6.13612710e+03 5.58452514e+03 1.07941574e+01
v 6.13512462e+03 5.58478290e+03 1.11984185e+01
v 6.13419752e+03 5.58555134e+03 1.11355459e+01
v 6.13367479e+03 5.58581175e+03 1.24796569e+01
v 6.13822366e+03 5.58645341e+03 1.09369897e+01
v 6.13697470e+03 5.58519167e+03 1.13339944e+01
v 6.13552648e+03 5.58619855e+03 1.09493652e+01
v 6.13183462e+03 5.58333486e+03 1.11061691e+01
v 6.13221834e+03 5.58251727e+03 1.00634717e+01
v 6.13259226e+03 5.58580886e+03 1.11142265e+01
v 6.13271039e+03 5.58818087e+03 1.11687946e+01
v 6.13307760e+03 5.59005666e+03 1.08158772e+01
v 6.13556458e+03 5.59077020e+03 1.07847975e+01
v 6.12801805e+03 5.59395642e+03 1.35659073e+01
v 6.13081870e+03 5.58548829e+03 1.11137275e+01
v 6.12671435e+03 5.59356284e+03 9.93245912e+00
v 6.13208090e+03 5.59048506e+03 1.09078207e+01
v 6.12864345e+03 5.59325921e+03 1.05806618e+01
v 6.13098510e+03 5.59237713e+03 1.06596703e+01
v 6.13306715e+03 5.58656212e+03 1.11914455e+01
v 6.12506779e+03 5.58524937e+03 1.06985210e+01
v 6.12962642e+03 5.58466172e+03 1.06349119e+01
v 6.12876045e+03 5.58685939e+03 1.04561544e+01
v 6.13528557e+03 5.58409240e+03 9.82450124e+00
v 6.12529029e+03 5.58430964e+03 1.12183882e+01
v 6.13481001e+03 5.58397542e+03 1.11364744e+01
v 6.13339121e+03 5.58317169e+03 9.86456121e+00
v 6.13321912e+03 5.58408682e+03 1.10632862e+01
v 6.13179750e+03 5.58497206e+03 1.09864686e+01
v 6.13773053e+03 5.58458785e+03 1.14309965e+01
v 6.13037322e+03 5.58206914e+03 1.02042250e+01
v 6.13127960e+03 5.57844841e+03 1.04053586e+01
v 6.13108840e+03 5.58046629e+03 1.01021530e+01
v 6.13242335e+03 5.58048214e+03 1.01636491e+01
v 6.13273697e+03 5.57500140e+03 1.06436239e+01
v 6.13796871e+03 5.58404473e+03 9.91165185e+00
v 6.12519911e+03 5.58109477e+03 9.93215611e+00
v 6.12583776e+03 5.58183605e+03 1.11087011e+01
v 6.13609521e+03 5.58342853e+03 9.92904746e+00
v 6.13761936e+03 5.58288177e+03 1.00646413e+01
v 6.13643811e+03 5.58153706e+03 9.70180858e+00
v 6.12845030e+03 5.58560242e+03 9.80791971e+00
v 6.12739433e+03 5.57343373e+03 1.00227808e+01
v 6.12834460e+03 5.57174784e+03 1.08171151e+01
v 6.12959433e+03 5.57206834e+03 1.07197167e+01
v 6.12944084e+03 5.58186482e+03 1.01335391e+01
v 6.12773809e+03 5.57351478e+03 1.07006981e+01
v 6.13212765e+03 5.57604806e+03 9.76511000e+00
v 6.13470529e+03 5.57586371e+03 9.92553890e+00
v 6.13417411e+03 5.57033070e+03 9.46618776e+00
v 6.13274955e+03 5.57053409e+03 9.86523391e+00
v 6.13398783e+03 5.57126789e+03 9.82626939e+00
v 6.13765000e+03 5.58495657e+03 1.19773094e+01
v 6.12912648e+03 5.57836454e+03 9.77579896e+00
v 6.12987289e+03 5.58367926e+03 9.90643300e+00
v 6.12869087e+03 5.58456343e+03 1.00547296e+01
v 6.12624440e+03 5.58198976e+03 9.85708342e+00
v 6.12573320e+03 5.59096394e+03 9.91383049e+00
v 6.12750036e+03 5.58703360e+03 9.88896170e+00
v 6.12856012e+03 5.57510930e+03 9.69397717e+00
v 6.12892866e+03 5.57393739e+03 1.06852980e+01
v 6.13099110e+03 5.57708082e+03 9.77053504e+00
v 6.13490331e+03 5.57715431e+03 1.02396890e+01
v 6.13365640e+03 5.57656232e+03 1.02169205e+01
v 6.13766554e+03 5.57790694e+03 1.07913705e+01
v 6.13700667e+03 5.57815277e+03 1.05019411e+01
v 6.13206579e+03 5.57682381e+03 9.66219912e+00
v 6.13098328e+03 5.57962241e+03 9.95080746e+00
v 6.13322799e+03 5.57305508e+03 9.79394170e+00
v 6.12966172e+03 5.57222755e+03 9.56725757e+00
v 6.12828575e+03 5.57135473e+03 9.70490309e+00
v 6.12540331e+03 5.58583014e+03 9.79796142e+00
v 6.12675080e+03 5.58339812e+03 9.53253480e+00
v 6.12490348e+03 5.58774821e+03 9.69273598e+00
v 6.12849337e+03 5.57670450e+03 9.39165868e+00
v 6.13276631e+03 5.57917296e+03 9.85857125e+00
v 6.12631635e+03 5.58030071e+03 9.67394311e+00
v 6.12632550e+03 5.57756385e+03 1.00781958e+01
v 6.12724289e+03 5.57444419e+03 9.96848523e+00
v 6.12553341e+03 5.56751304e+03 9.32357266e+00
v 6.12519072e+03 5.57307927e+03 9.46115979e+00
v 6.12560207e+03 5.57635432e+03 9.53120471e+00
v 6.12852876e+03 5.56414339e+03 9.16247585e+00
v 6.12903362e+03 5.57043894e+03 9.50954520e+00
v 6.12927026e+03 5.56897716e+03 9.73451829e+00
v 6.13080337e+03 5.56950634e+03 9.22700405e+00
v 6.13026440e+03 5.56723056e+03 9.44128022e+00
v 6.12898149e+03 5.57138202e+03 9.96108628e+00
v 6.13003379e+03 5.57214588e+03 9.23901571e+00
v 6.13071659e+03 5.57560323e+03 9.79477379e+00
v 6.12917667e+03 5.57455721e+03 9.43730303e+00
v 6.12677775e+03 5.57573339e+03 9.36474673e+00
v 6.12809965e+03 5.57474907e+03 1.02233136e+01
v 6.12950912e+03 5.56633444e+03 9.46852784e+00
v 6.13258178e+03 5.56879780e+03 9.48209114e+00
v 6.13646216e+03 5.57672220e+03 9.92279429e+00
v 6.13622505e+03 5.57841282e+03 1.04969411e+01
v 6.13401661e+03 5.57798060e+03 9.62680796e+00
v 6.13490227e+03 5.56729375e+03 9.47454165e+00
v 6.13270041e+03 5.57458020e+03 9.69775852e+00
v 6.13718577e+03 5.57714280e+03 1.13441130e+01
v 6.13414330e+03 5.58195288e+03 9.82946530e+00
v 6.13374449e+03 5.58064247e+03 9.63220215e+00
v 6.13581201e+03 5.57738516e+03 1.05076541e+01
v 6.13843313e+03 5.58027381e+03 1.00903969e+01
v 6.13015136e+03 5.56453938e+03 9.52562639e+00
v 6.13168383e+03 5.56591756e+03 9.23654851e+00
v 6.13070746e+03 5.56258418e+03 9.52158419e+00
v 6.13066187e+03 5.56374694e+03 1.03603864e+01
v 6.13028183e+03 5.56561510e+03 9.21382590e+00
v 6.13184412e+03 5.56427836e+03 1.03998448e+01
v 6.13043680e+03 5.56482709e+03 1.00116804e+01
v 6.13465603e+03 5.56537526e+03 9.35478764e+00
v 6.13296373e+03 5.56470579e+03 8.96510312e+00
v 6.13631333e+03 5.56303352e+03 9.26521622e+00
v 6.13611897e+03 5.56403010e+03 1.08326127e+01
v 6.13683334e+03 5.56298528e+03 1.28117199e+01
v 6.13630686e+03 5.56514979e+03 1.27830606e+01
v 6.13754119e+03 5.56296790e+03 1.24037137e+01
v 6.13738920e+03 5.56386138e+03 1.18479711e+01
v 6.13688952e+03 5.56513903e+03 1.20425345e+01
v 6.13256873e+03 5.58695716e+03 1.17279443e+01
v 6.13162646e+03 5.58715303e+03 1.51034655e+01
v 6.12925094e+03 5.59329455e+03 1.53011473e+01
v 6.15141971e+03 5.56965821e+03 1.28777804e+01
v 6.15003047e+03 5.56773080e+03 1.30662254e+01
v 6.13995359e+03 5.56376279e+03 1.10335984e+01
v 6.14162430e+03 5.57851215e+03 1.17581177e+01
v 6.14225615e+03 5.57793105e+03 1.15613789e+01
v 6.12797546e+03 5.59318645e+03 1.57377357e+01
v 6.12850601e+03 5.59387551e+03 2.11618626e+01
v 6.12870212e+03 5.59294175e+03 1.57678190e+01
v 6.14616947e+03 5.58073720e+03 1.09126607e+01
v 6.14551912e+03 5.58038216e+03 1.23326293e+01
v 6.13958460e+03 5.56694210e+03 1.03641574e+01
v 6.14760327e+03 5.56242195e+03 1.16789827e+01
v 6.14824503e+03 5.56316867e+03 1.15399216e+01
v 6.13905713e+03 5.56622496e+03 1.19201246e+01
v 6.14786601e+03 5.56901929e+03 1.15476312e+01
v 6.14920531e+03 5.56865754e+03 1.28292001e+01
v 6.15153027e+03 5.57014330e+03 1.15984819e+01
v 6.15248440e+03 5.56948621e+03 1.10097926e+01
v 6.14366341e+03 5.56895577e+03 1.04030226e+01
v 6.14469734e+03 5.56941031e+03 1.23402887e+01
v 6.13906801e+03 5.57968257e+03 1.05798012e+01
v 6.13902892e+03 5.57815639e+03 1.09516064e+01
v 6.15596456e+03 5.59384761e+03 3.19071303e+01
v 6.14892819e+03 5.56317882e+03 1.26971583e+01
v 6.14284258e+03 5.57200774e+03 1.25400494e+01
v 6.14241685e+03 5.57544215e+03 1.28365621e+01
v 6.14385070e+03 5.57333770e+03 1.13120625e+01
v 6.14474996e+03 5.57238413e+03 1.18065291e+01
v 6.14283808e+03 5.57525804e+03 1.20351928e+01
v 6.14903957e+03 5.56939696e+03 1.17576454e+01
v 6.15025420e+03 5.57005681e+03 1.17894890e+01
v 6.14792408e+03 5.57196376e+03 1.10127178e+01
v 6.15026632e+03 5.57240874e+03 1.09741631e+01
v 6.14527788e+03 5.57044205e+03 1.13990958e+01
v 6.14673453e+03 5.56951705e+03 1.17351634e+01
v 6.14626412e+03 5.57075101e+03 1.10216776e+01
v 6.14751431e+03 5.57074339e+03 1.21070187e+01
v 6.15070293e+03 5.57111050e+03 1.11918766e+01
v 6.15035492e+03 5.57114927e+03 1.22201995e+01
v 6.14866840e+03 5.57001628e+03 1.23224538e+01
v 6.14361971e+03 5.57975595e+03 1.20380551e+01
v 6.14490320e+03 5.57897562e+03 1.26271749e+01
v 6.14198360e+03 5.57714312e+03 1.25929061e+01
v 6.14128486e+03 5.57887012e+03 1.13413745e+01
v 6.14362739e+03 5.58063053e+03 1.09470500e+01
v 6.14195565e+03 5.57719130e+03 1.15165275e+01
v 6.14492447e+03 5.58071273e+03 1.10836509e+01
v 6.15254948e+03 5.56834132e+03 1.11259062e+01
v 6.15194951e+03 5.56832971e+03 1.28801734e+01
v 6.15219253e+03 5.56917241e+03 1.23062291e+01
v 6.14626181e+03 5.56915524e+03 1.19619089e+01
v 6.14513188e+03 5.57075079e+03 1.24203700e+01
v 6.14488463e+03 5.56981971e+03 1.06822953e+01
v 6.14478896e+03 5.56983639e+03 1.16300332e+01
v 6.14312362e+03 5.56851884e+03 1.23773148e+01
v 6.14535617e+03 5.56972333e+03 1.28935328e+01
v 6.14612494e+03 5.56780162e+03 1.18024686e+01
v 6.14662520e+03 5.56630488e+03 1.28551970e+01
v 6.14420414e+03 5.57245722e+03 1.28521123e+01
v 6.14541118e+03 5.56896553e+03 1.24848224e+01
v 6.14595541e+03 5.56842639e+03 1.28402458e+01
v 6.14718646e+03 5.56836241e+03 1.17116994e+01
v 6.14674812e+03 5.56790164e+03 1.12211303e+01
v 6.14597103e+03 5.56790741e+03 1.03149997e+01
v 6.14268611e+03 5.56851506e+03 1.10833596e+01
v 6.14690123e+03 5.56705338e+03 1.15573368e+01
v 6.14700509e+03 5.56718314e+03 1.19883505e+01
v 6.15124159e+03 5.56780496e+03 1.13146213e+01
v 6.14895852e+03 5.56670669e+03 1.13050312e+01
v 6.14293333e+03 5.57755926e+03 1.10657797e+01
v 6.14346887e+03 5.57801176e+03 1.18456007e+01
v 6.14607120e+03 5.57956903e+03 1.21092243e+01
v 6.14060585e+03 5.57926698e+03 1.17102089e+01
v 6.14073688e+03 5.57884154e+03 1.28008530e+01
v 6.14130572e+03 5.57626958e+03 1.25959491e+01
v 6.14887686e+03 5.56682336e+03 1.23188445e+01
v 6.14612858e+03 5.56764161e+03 1.33161160e+01
v 6.14064755e+03 5.57045933e+03 1.25627564e+01
v 6.13963943e+03 5.56677938e+03 1.24089481e+01
v 6.13913846e+03 5.57833076e+03 1.26483445e+01
v 6.13910324e+03 5.58206531e+03 1.03545459e+01
v 6.13846945e+03 5.58339903e+03 1.19607453e+01
v 6.13895459e+03 5.58246034e+03 1.10966506e+01
v 6.13879419e+03 5.58464404e+03 1.15648455e+01
v 6.13958275e+03 5.58430599e+03 1.09186717e+01
v 6.14270352e+03 5.59212160e+03 1.07294111e+01
v 6.14987901e+03 5.59188657e+03 1.11471743e+01
v 6.15150967e+03 5.59186635e+03 1.07860401e+01
v 6.14915344e+03 5.59280480e+03 1.07754980e+01
v 6.14892955e+03 5.59022073e+03 1.07576298e+01
v 6.15506490e+03 5.58293473e+03 1.08849676e+01
v 6.14315695e+03 5.58476573e+03 1.08108741e+01
v 6.14076597e+03 5.58335409e+03 1.09052126e+01
v 6.14226782e+03 5.57967978e+03 1.10278993e+01
v 6.14503435e+03 5.57806485e+03 1.09995071e+01
v 6.14803317e+03 5.58563965e+03 1.07602933e+01
v 6.14365464e+03 5.58192733e+03 1.07838015e+01
v 6.14630093e+03 5.57909827e+03 1.11234620e+01
v 6.14127798e+03 5.58110412e+03 1.04054790e+01
v 6.14089740e+03 5.57999096e+03 1.08763354e+01
v 6.14491221e+03 5.57368634e+03 1.09564339e+01
v 6.14898794e+03 5.57612602e+03 1.08896366e+01
v 6.14407447e+03 5.56773202e+03 1.04934727e+01
v 6.15157164e+03 5.57171302e+03 1.10154059e+01
v 6.14808788e+03 5.57441088e+03 1.11930524e+01
v 6.15444346e+03 5.57584209e+03 1.10437428e+01
v 6.14250167e+03 5.57574636e+03 1.12217403e+01
v 6.14947846e+03 5.57174818e+03 1.23630256e+01
v 6.15315178e+03 5.58914947e+03 1.06102779e+01
v 6.14157445e+03 5.56785925e+03 1.04129069e+01
v 6.13962778e+03 5.56696743e+03 1.14506252e+01
v 6.14378200e+03 5.57603109e+03 1.07744197e+01
v 6.14021664e+03 5.56558632e+03 1.01960698e+01
v 6.14097911e+03 5.56354303e+03 1.01396869e+01
v 6.14449109e+03 5.56492224e+03 1.01836155e+01
v 6.14500204e+03 5.56298563e+03 1.03046261e+01
v 6.14626265e+03 5.56413106e+03 1.04790291e+01
v 6.14785248e+03 5.56383331e+03 1.15762077e+01
v 6.14690961e+03 5.56506745e+03 1.09917598e+01
v 6.14654784e+03 5.56565610e+03 1.03690977e+01
v 6.14706865e+03 5.56429956e+03 1.10322730e+01
v 6.15194483e+03 5.56587576e+03 1.10397598e+01
v 6.14853497e+03 5.56468608e+03 1.07534793e+01
v 6.14916020e+03 5.56295853e+03 1.11386448e+01
v 6.13791241e+03 5.56513890e+03 1.20212421e+01
v 6.14779599e+03 5.56519778e+03 1.24754860e+01
v 6.14714286e+03 5.56500806e+03 1.26162653e+01
v 6.14757543e+03 5.56621965e+03 1.18914408e+01
v 6.13961927e+03 5.56461011e+03 1.18440400e+01
v 6.14800960e+03 5.56522136e+03 1.08583476e+01
v 6.13968263e+03 5.56392954e+03 1.22959280e+01
v 6.14701125e+03 5.56642402e+03 1.33886833e+01
v 6.14662913e+03 5.56766671e+03 1.33077455e+01
v 6.12475000e+03 5.58600376e+03 1.01727815e+01
v 6.12475000e+03 5.58644161e+03 9.71000970e+00
v 6.12475000e+03 5.56728058e+03 9.24861667e+00
v 6.12475000e+03 5.58297051e+03 1.10932686e+01
v 6.12475000e+03 5.58181465e+03 1.10432492e+01
v 6.12475000e+03 5.57340666e+03 9.47053970e+00
v 6.12475000e+03 5.56933405e+03 9.37063977e+00
v 6.12475000e+03 5.56764807e+03 9.30306206e+00
v 6.12475000e+03 5.57666338e+03 9.55172424e+00
v 6.12475000e+03 5.57950191e+03 9.53650890e+00
v 6.12475000e+03 5.57977453e+03 9.57523957e+00
v 6.12475000e+03 5.57646698e+03 9.65347132e+00
v 6.12475000e+03 5.57609703e+03 9.52974749e+00
v 6.12475000e+03 5.58018309e+03 9.61997029e+00
v 6.12475000e+03 5.57996688e+03 9.54690159e+00
v 6.12475000e+03 5.58784293e+03 9.97371583e+00
v 6.12475000e+03 5.58800878e+03 9.87321539e+00
v 6.12475000e+03 5.58822875e+03 9.70410749e+00
v 6.12475000e+03 5.59131456e+03 9.85409303e+00
v 6.12475000e+03 5.58158153e+03 1.06791494e+01
v 6.12475000e+03 5.58485092e+03 1.08056514e+01
v 6.12475000e+03 5.58411672e+03 1.11640278e+01
v 6.12475000e+03 5.58740586e+03 9.68478707e+00
v 6.12475000e+03 5.58143893e+03 1.00224500e+01
v 6.12475000e+03 5.58533814e+03 1.06775369e+01
v 6.15650000e+03 5.58983895e+03 1.07675982e+01
v 6.15650000e+03 5.59062357e+03 1.07456577e+01
v 6.15650000e+03 5.56226357e+03 1.11207066e+01
v 6.15650000e+03 5.56247885e+03 1.11448184e+01
v 6.15650000e+03 5.57048659e+03 1.11621513e+01
v 6.15650000e+03 5.57025060e+03 1.11627489e+01
v 6.15650000e+03 5.57053647e+03 1.11640324e+01
v 6.15650000e+03 5.58319466e+03 1.08719936e+01
v 6.15650000e+03 5.58214243e+03 1.09175220e+01
v 6.15650000e+03 5.59140182e+03 1.07518362e+01
v 6.15650000e+03 5.57086177e+03 1.11589655e+01
v 6.15650000e+03 5.57396634e+03 1.13188305e+01
v 6.15650000e+03 5.57773476e+03 1.10199952e+01
v 6.15650000e+03 5.57067644e+03 1.11611381e+01
v 6.15650000e+03 5.57688312e+03 1.09821955e+01
v 6.15650000e+03 5.57056775e+03 1.11609736e+01
v 6.15650000e+03 5.57495198e+03 1.11252257e+01
v 6.15650000e+03 5.57062138e+03 1.11618406e+01
v 6.15650000e+03 5.59314933e+03 3.19252804e+01
v 6.15650000e+03 5.59375468e+03 3.12637285e+01
v 6.15650000e+03 5.59374122e+03 3.29147832e+01
v 6.15650000e+03 5.59394430e+03 3.37454714e+01
v 6.13715733e+03 5.56225000e+03 1.27883725e+01
v 6.13666060e+03 5.56225000e+03 1.21416158e+01
v 6.13090124e+03 5.56225000e+03 9.46259551e+00
v 6.13044211e+03 5.56225000e+03 9.23409090e+00
v 6.13660187e+03 5.56225000e+03 1.20482890e+01
v 6.13652583e+03 5.56225000e+03 9.22658284e+00
v 6.13569449e+03 5.56225000e+03 9.25420442e+00
v 6.13477077e+03 5.56225000e+03 9.19019892e+00
v 6.13279142e+03 5.56225000e+03 9.07587019e+00
v 6.13296449e+03 5.56225000e+03 9.03452184e+00
v 6.13683007e+03 5.56225000e+03 1.06657746e+01
v 6.13139291e+03 5.56225000e+03 1.03168071e+01
v 6.13246512e+03 5.56225000e+03 1.02397040e+01
v 6.13122561e+03 5.56225000e+03 1.03140237e+01
v 6.13271762e+03 5.56225000e+03 9.34817228e+00
v 6.13104702e+03 5.56225000e+03 9.94855441e+00
v 6.12523242e+03 5.56225000e+03 9.12154209e+00
v 6.12715369e+03 5.56225000e+03 9.10240997e+00
v 6.12883546e+03 5.56225000e+03 9.12769954e+00
v 6.13687849e+03 5.56225000e+03 1.10160510e+01
v 6.13660842e+03 5.56225000e+03 1.19822617e+01
v 6.14006034e+03 5.56225000e+03 1.04819362e+01
v 6.14060821e+03 5.56225000e+03 1.19648556e+01
v 6.15118944e+03 5.56225000e+03 1.11226556e+01
v 6.15027108e+03 5.56225000e+03 1.09934025e+01
v 6.13734708e+03 5.56225000e+03 1.26751694e+01
v 6.13784227e+03 5.56225000e+03 1.23870503e+01
v 6.13960580e+03 5.56225000e+03 1.22851737e+01
v 6.14721701e+03 5.56225000e+03 1.27120750e+01
v 6.14726823e+03 5.56225000e+03 1.19524774e+01
v 6.14454711e+03 5.56225000e+03 1.04978141e+01
v 6.14235751e+03 5.56225000e+03 1.01725427e+01
v 6.14946981e+03 5.56225000e+03 1.36440269e+01
v 6.14951670e+03 5.56225000e+03 1.28366565e+01
v 6.14948012e+03 5.56225000e+03 1.11861628e+01
v 6.14709539e+03 5.56225000e+03 1.14148469e+01
v 6.14056918e+03 5.56225000e+03 1.22328384e+01
v 6.14061299e+03 5.56225000e+03 1.21621287e+01
v 6.15645736e+03 5.56225000e+03 1.11204348e+01
v 6.14455420e+03 5.56225000e+03 1.04962040e+01
v 6.15335927e+03 5.56225000e+03 1.10905711e+01
v 6.14662117e+03 5.56225000e+03 1.11401030e+01
v 6.14457070e+03 5.56225000e+03 1.05067526e+01
v 6.15592089e+03 5.56225000e+03 1.11361366e+01
v 6.14118236e+03 5.56225000e+03 1.01539154e+01
v 6.14455756e+03 5.56225000e+03 1.04990195e+01
v 6.14016445e+03 5.56225000e+03 1.03980575e+01
v 6.14859349e+03 5.56225000e+03 1.32800293e+01
v 6.12495256e+03 5.56225000e+03 9.09754636e+00
v 6.12475000e+03 5.56225000e+03 9.08017802e+00
v 6.15650000e+03 5.56225000e+03 1.11431191e+01
v 6.15397075e+03 5.56225000e+03 1.11085683e+01
v 6.15397791e+03 5.56225000e+03 1.11087790e+01
v 6.13072786e+03 5.59400000e+03 1.84129168e+01
v 6.13049665e+03 5.59400000e+03 1.85620972e+01
v 6.12920603e+03 5.59400000e+03 1.06079166e+01
v 6.13045246e+03 5.59400000e+03 1.06540491e+01
v 6.12658688e+03 5.59400000e+03 9.92736956e+00
v 6.12652023e+03 5.59400000e+03 9.92163365e+00
v 6.12866324e+03 5.59400000e+03 1.08655947e+01
v 6.12891817e+03 5.59400000e+03 1.07096754e+01
v 6.12623886e+03 5.59400000e+03 9.95308916e+00
v 6.12480428e+03 5.59400000e+03 9.99227567e+00
v 6.13214173e+03 5.59400000e+03 1.06063726e+01
v 6.12847078e+03 5.59400000e+03 1.13354781e+01
v 6.13339456e+03 5.59400000e+03 1.06331253e+01
v 6.12664946e+03 5.59400000e+03 1.08575306e+01
v 6.12669621e+03 5.59400000e+03 1.24974781e+01
v 6.13431832e+03 5.59400000e+03 1.06338815e+01
v 6.12714277e+03 5.59400000e+03 1.27034771e+01
v 6.12904780e+03 5.59400000e+03 1.21318587e+01
v 6.13070579e+03 5.59400000e+03 1.36706877e+01
v 6.12918965e+03 5.59400000e+03 1.67437322e+01
v 6.12811038e+03 5.59400000e+03 1.62678097e+01
v 6.12997262e+03 5.59400000e+03 1.82714021e+01
v 6.12949125e+03 5.59400000e+03 1.68208684e+01
v 6.13087617e+03 5.59400000e+03 2.31989148e+01
v 6.13063687e+03 5.59400000e+03 2.25414913e+01
v 6.12838322e+03 5.59400000e+03 2.44228400e+01
v 6.12861922e+03 5.59400000e+03 2.53659137e+01
v 6.12929698e+03 5.59400000e+03 2.55106842e+01
v 6.12946701e+03 5.59400000e+03 2.53728687e+01
v 6.12887043e+03 5.59400000e+03 2.54924483e+01
v 6.13073071e+03 5.59400000e+03 2.40347664e+01
v 6.13058279e+03 5.59400000e+03 2.37081273e+01
v 6.12697618e+03 5.59400000e+03 2.33771507e+01
v 6.12670526e+03 5.59400000e+03 2.35036288e+01
v 6.12704358e+03 5.59400000e+03 2.32996988e+01
v 6.12849213e+03 5.59400000e+03 2.39570244e+01
v 6.12835094e+03 5.59400000e+03 2.34305508e+01
v 6.12761486e+03 5.59400000e+03 2.33246619e+01
v 6.12826723e+03 5.59400000e+03 2.33670554e+01
v 6.12832474e+03 5.59400000e+03 2.33978053e+01
v 6.12688612e+03 5.59400000e+03 2.32563195e+01
v 6.13071408e+03 5.59400000e+03 1.78318104e+01
v 6.13029223e+03 5.59400000e+03 1.86723570e+01
v 6.13007839e+03 5.59400000e+03 1.86999232e+01
v 6.13008163e+03 5.59400000e+03 1.86152132e+01
v 6.12688076e+03 5.59400000e+03 2.18725504e+01
v 6.12773057e+03 5.59400000e+03 2.17898868e+01
v 6.12652379e+03 5.59400000e+03 2.31112559e+01
v 6.13050294e+03 5.59400000e+03 2.23617047e+01
v 6.12962153e+03 5.59400000e+03 1.98194985e+01
v 6.13020040e+03 5.59400000e+03 2.02339299e+01
v 6.12888111e+03 5.59400000e+03 2.01273714e+01
v 6.12844555e+03 5.59400000e+03 2.09622638e+01
v 6.13037375e+03 5.59400000e+03 2.20156703e+01
v 6.13021597e+03 5.59400000e+03 2.12755525e+01
v 6.13035295e+03 5.59400000e+03 2.02998984e+01
v 6.13032677e+03 5.59400000e+03 2.02626215e+01
v 6.13059955e+03 5.59400000e+03 1.50092635e+01
v 6.13071836e+03 5.59400000e+03 1.38243346e+01
v 6.12799626e+03 5.59400000e+03 1.35207101e+01
v 6.12806851e+03 5.59400000e+03 1.38072099e+01
v 6.13077780e+03 5.59400000e+03 1.71792238e+01
v 6.13039947e+03 5.59400000e+03 1.66224241e+01
v 6.13085957e+03 5.59400000e+03 1.76232791e+01
v 6.13067486e+03 5.59400000e+03 1.60327766e+01
v 6.12772438e+03 5.59400000e+03 1.59185065e+01
v 6.13827195e+03 5.59400000e+03 1.07231121e+01
v 6.12990737e+03 5.59400000e+03 2.48182359e+01
v 6.12841971e+03 5.59400000e+03 2.11043759e+01
v 6.13043941e+03 5.59400000e+03 2.48419671e+01
v 6.12809957e+03 5.59400000e+03 2.13984976e+01
v 6.12819424e+03 5.59400000e+03 1.47601789e+01
v 6.15552876e+03 5.59400000e+03 1.07500034e+01
v 6.15572117e+03 5.59400000e+03 1.07436943e+01
v 6.14069197e+03 5.59400000e+03 1.07111951e+01
v 6.14714072e+03 5.59400000e+03 1.06812392e+01
v 6.14328263e+03 5.59400000e+03 1.06886302e+01
v 6.14233953e+03 5.59400000e+03 1.06446346e+01
v 6.14202096e+03 5.59400000e+03 1.07537366e+01
v 6.14830565e+03 5.59400000e+03 1.07376743e+01
v 6.15003843e+03 5.59400000e+03 1.07077025e+01
v 6.15187819e+03 5.59400000e+03 1.06819612e+01
v 6.15596793e+03 5.59400000e+03 3.25395385e+01
v 6.15587026e+03 5.59400000e+03 3.23087531e+01
v 6.15642951e+03 5.59400000e+03 3.37833868e+01
v 6.15593137e+03 5.59400000e+03 3.19668800e+01
v 6.12505553e+03 5.59400000e+03 9.98541259e+00
v 6.12475000e+03 5.59400000e+03 9.98801246e+00
v 6.15582487e+03 5.59400000e+03 1.07475246e+01
v 6.15583294e+03 5.59400000e+03 1.07478227e+01
v 6.15650000e+03 5.59400000e+03 1.07463163e+01
v 6.15628027e+03 5.59400000e+03 3.33812191e+01
v 6.15650000e+03 5.59400000e+03 3.37970913e+01
v 6.15602416e+03 5.59400000e+03 3.18917506e+01
v 6.15650000e+03 5.59400000e+03 3.13485180e+01
vt 0.077683359 0.93318307
vt 0.098647065 0.93673074
vt 0.057750892 0.95309269
vt 0.044927869 0.93634635
vt 0.11322749 0.97009337
vt 0.011914364 0.93554503
vt 0.055745017 0.97167951
vt 0.12058327 0.94159698
vt 0.010038522 0.97534126
vt 0.084873438 0.98130929
vt 0.15745457 0.94410264
vt 0.0052684667 0.95011741
vt 0.1425038 0.97970605
vt 0.048833594 0.98163718
vt 0.039638028 0.99536461
vt 0.19489363 0.96336341
vt 0.0055727288 0.97555715
vt 0.0048658438 0.93561202
vt 0.19919625 0.93656427
vt 0.2187179 0.97821462
vt 0.22662042 0.93497646
vt 0.17303751 0.93243402
vt 0.2462317 0.9650166
vt 0.25495487 0.97578114
vt 0.256623 0.93815011
vt 0.28042659 0.97044373
vt 0.27323565 0.94698012
vt 0.23798582 0.93161464
vt 0.31351644 0.97607416
vt 0.27428654 0.92643285
vt 0.28210443 0.94539386
vt 0.35006663 0.96172148
vt 0.28480819 0.92678541
vt 0.4027606 0.97425318
vt 0.31508729 0.94163871
vt 0.29626793 0.9277699
vt 0.45099288 0.96036643
vt 0.34597763 0.92769897
vt 0.47838682 0.97288811
vt 0.44620594 0.93782389
vt 0.32085821 0.92654586
vt 0.37631664 0.92810726
vt 0.51261878 0.97238845
vt 0.49315131 0.94128925
vt 0.39087114 0.92204702
vt 0.52200174 0.96097082
vt 0.5086 0.91653389
vt 0.52162671 0.95940465
vt 0.43883362 0.92083156
vt 0.52517313 0.97201419
vt 0.52307743 0.93852371
vt 0.52166826 0.95839816
vt 0.52338761 0.94403857
vt 0.52113104 0.91564208
vt 0.11046188 0.62459552
vt 0.10164929 0.62091839
vt 0.10417252 0.60247552
vt 0.13308057 0.60885191
vt 0.089691304 0.61448777
vt 0.15260695 0.62856412
vt 0.11984009 0.59844673
vt 0.074397095 0.59161019
vt 0.14362301 0.60516888
vt 0.11108239 0.69602919
vt 0.099253386 0.58986074
vt 0.0876384 0.58561069
vt 0.064610563 0.61851984
vt 0.16150466 0.60028374
vt 0.22263631 0.7171092
vt 0.096265845 0.66936392
vt 0.050820861 0.567586
vt 0.052189644 0.60544997
vt 0.072033636 0.63028646
vt 0.15641938 0.58082831
vt 0.17383215 0.59500384
vt 0.15340228 0.74648184
vt 0.072219111 0.68489236
vt 0.052759919 0.5798673
vt 0.064241081 0.63645631
vt 0.16400552 0.566167
vt 0.22968291 0.60217023
vt 0.19121543 0.74646968
vt 0.091627754 0.74650276
vt 0.077954032 0.66823757
vt 0.077193938 0.74650741
vt 0.073305517 0.65352386
vt 0.19231538 0.5801245
vt 0.30587915 0.6158011
vt 0.21198048 0.74646258
vt 0.066467628 0.65558153
vt 0.057618733 0.74651402
vt 0.20031042 0.54497075
vt 0.31990838 0.68737614
vt 0.23744535 0.55781782
vt 0.21695951 0.74646199
vt 0.048620686 0.67378378
vt 0.039537419 0.72116202
vt 0.16633545 0.5600009
vt 0.29197785 0.74643731
vt 0.41573524 0.57349968
vt 0.27673215 0.53920794
vt 0.23169491 0.74645674
vt 0.056646734 0.69159031
vt 0.031223144 0.74652213
vt 0.19435233 0.5275749
vt 0.15585911 0.53201461
vt 0.32341954 0.7277512
vt 0.3858774 0.6706177
vt 0.25727668 0.53883034
vt 0.034114879 0.66869795
vt 0.011748126 0.74652886
vt 0.015419428 0.68954176
vt 0.21576181 0.52270442
vt 0.14315745 0.57276845
vt 0.31017923 0.74643087
vt 0.33474737 0.71339643
vt 0.43819505 0.6813724
vt 0.36023092 0.71307576
vt 0.32074776 0.46714395
vt 0.23701103 0.53755367
vt 0.020319695 0.66905087
vt 0.0029544437 0.7349571
vt 0.20039508 0.5100553
vt 0.16577008 0.5227685
vt 0.12469795 0.55176663
vt 0.14862373 0.5909394
vt 0.33725455 0.74642235
vt 0.43819931 0.69363236
vt 0.43816015 0.57755387
vt 0.42304069 0.74639416
vt 0.2787753 0.51359695
vt 0.40598738 0.46267837
vt 0.23687303 0.52387798
vt 0.0072491383 0.74652934
vt 0.18978284 0.51625621
vt 0.20569187 0.5044564
vt 0.12134334 0.50294375
vt 0.11934696 0.58132064
vt 0.086844832 0.49620986
vt 0.42604724 0.7463932
vt 0.43815428 0.56111234
vt 0.36600122 0.74641323
vt 0.25898117 0.49745727
vt 0.4380942 0.38484895
vt 0.0032638835 0.74652916
vt 0.1335548 0.49887645
vt 0.16514701 0.49891841
vt 0.088841952 0.55827427
vt 0.42766744 0.74639261
vt 0.25705108 0.42904383
vt 0.43813071 0.49224126
vt 0.43809325 0.38195318
vt 0.43810797 0.43335664
vt 0.23450978 0.49662763
vt 0.10068779 0.48328859
vt 0.11488417 0.48688853
vt 0.10670085 0.59169877
vt 0.082606405 0.53780299
vt 0.43820316 0.70579255
vt 0.30667195 0.44034636
vt 0.23940566 0.46568805
vt 0.43812686 0.47893476
vt 0.36109433 0.39817625
vt 0.43811533 0.4487592
vt 0.21556398 0.49537528
vt 0.25691649 0.51167321
vt 0.081202045 0.47404522
vt 0.12504673 0.47653198
vt 0.1438448 0.49502915
vt 0.077096172 0.57732177
vt 0.067311928 0.51484466
vt 0.42779353 0.74639261
vt 0.30410233 0.40211254
vt 0.22614919 0.4895674
vt 0.43809295 0.38109291
vt 0.3407028 0.40905392
vt 0.097591147 0.46312696
vt 0.058764294 0.56710052
vt 0.061956 0.53529954
vt 0.43821639 0.74638927
vt 0.27815908 0.38317162
vt 0.43809271 0.38025498
vt 0.34751555 0.3887645
vt 0.29767999 0.38303572
vt 0.37534514 0.36337757
vt 0.36043289 0.37364388
vt 0.32837194 0.3987233
vt 0.28549424 0.36388165
vt 0.4380925 0.37976617
vt 0.31570646 0.37166673
vt 0.37635472 0.34548712
vt 0.34206545 0.38936228
vt 0.30317345 0.35610014
vt 0.43809226 0.37898678
vt 0.34049147 0.37229705
vt 0.29255009 0.34583831
vt 0.32150978 0.36199337
vt 0.36689562 0.30696654
vt 0.32408255 0.35042882
vt 0.27810335 0.3582285
vt 0.35591385 0.33711135
vt 0.38897738 0.25030619
vt 0.28970695 0.32741034
vt 0.28570476 0.33864558
vt 0.32023528 0.3199625
vt 0.39853168 0.25030291
vt 0.35507324 0.25031686
vt 0.35868716 0.36605251
vt 0.31894743 0.32177615
vt 0.31361392 0.28839773
vt 0.43809107 0.37529939
vt 0.32336968 0.26139778
vt 0.33696806 0.33594197
vt 0.29861486 0.31235385
vt 0.30540642 0.29676318
vt 0.39864355 0.25030285
vt 0.34072539 0.25032276
vt 0.28821653 0.29436255
vt 0.30906615 0.26468199
vt 0.4290024 0.25029278
vt 0.32836431 0.2503249
vt 0.29069716 0.28236306
vt 0.30293554 0.27506876
vt 0.43805197 0.25386548
vt 0.25043625 0.29211372
vt 0.29903319 0.25301641
vt 0.43738496 0.25029022
vt 0.27810925 0.27973968
vt 0.28257459 0.30356818
vt 0.29109991 0.2503348
vt 0.43805116 0.25050199
vt 0.25840864 0.2618503
vt 0.27357385 0.33874834
vt 0.25166273 0.25035632
vt 0.28369358 0.25033987
vt 0.43805084 0.25028974
vt 0.25129411 0.25035655
vt 0.25140503 0.2503565
vt 0.24393691 0.33601588
vt 0.25145742 0.2503565
vt 0.21708548 0.25037074
vt 0.23752135 0.35513991
vt 0.1836509 0.30251151
vt 0.19555493 0.27058166
vt 0.22224042 0.3482523
vt 0.25660393 0.36863023
vt 0.20487559 0.33801728
vt 0.19872406 0.25037688
vt 0.17378011 0.32369727
vt 0.17952116 0.27401203
vt 0.18281609 0.25037968
vt 0.18118839 0.25037944
vt 0.72558939 0.50043565
vt 0.68853259 0.53003478
vt 0.71841836 0.50044012
vt 0.72256261 0.50565755
vt 0.69331557 0.5004493
vt 0.71388328 0.53621054
vt 0.66703814 0.50045812
vt 0.70385808 0.56426215
vt 0.63701797 0.50046766
vt 0.70013589 0.60555357
vt 0.71593112 0.55302101
vt 0.64174515 0.58269942
vt 0.69644868 0.62839735
vt 0.71566421 0.5782606
vt 0.63641703 0.66967261
vt 0.62950408 0.57907188
vt 0.72409987 0.61381912
vt 0.73783869 0.55773973
vt 0.62953234 0.6747902
vt 0.63264555 0.50046933
vt 0.62950528 0.58481342
vt 0.71208829 0.65506583
vt 0.68476528 0.64270848
vt 0.62951297 0.61115634
vt 0.64286 0.72084266
vt 0.62948072 0.50047052
vt 0.69563329 0.64312899
vt 0.76199555 0.66925073
vt 0.67084348 0.67519444
vt 0.75783455 0.53880173
vt 0.62954521 0.71682686
vt 0.66122907 0.7111361
vt 0.70627099 0.65634066
vt 0.69870549 0.69274551
vt 0.75450629 0.62986183
vt 0.66848302 0.69098425
vt 0.75512838 0.50042975
vt 0.75188076 0.60273671
vt 0.62954557 0.72260612
vt 0.654163 0.73973274
vt 0.72276765 0.70907843
vt 0.77385861 0.64132148
vt 0.75783306 0.50042927
vt 0.78427529 0.54924989
vt 0.62954783 0.72567582
vt 0.62956238 0.77002823
vt 0.68804038 0.72630084
vt 0.68907142 0.70137262
vt 0.75376111 0.69308442
vt 0.77676898 0.62668037
vt 0.78605443 0.50041866
vt 0.78813106 0.57922405
vt 0.81016004 0.51265264
vt 0.62956327 0.77428758
vt 0.65403891 0.78250027
vt 0.74481821 0.71602201
vt 0.69793642 0.75223219
vt 0.8004868 0.50041336
vt 0.66084474 0.83089656
vt 0.74385691 0.72814441
vt 0.70286149 0.80691934
vt 0.72706467 0.73216462
vt 0.8134768 0.50040936
vt 0.62956458 0.77729321
vt 0.65292108 0.8088904
vt 0.72695315 0.77187538
vt 0.62956476 0.78067076
vt 0.69115788 0.8490898
vt 0.63979918 0.86890137
vt 0.63658291 0.79491067
vt 0.728598 0.78505909
vt 0.6874072 0.86532772
vt 0.70962441 0.83527005
vt 0.63200021 0.89887488
vt 0.71743023 0.8101064
vt 0.62956613 0.80028963
vt 0.70576924 0.85061538
vt 0.67257053 0.887694
vt 0.62959534 0.87845981
vt 0.69225168 0.88496011
vt 0.64497823 0.94911444
vt 0.62960052 0.89352649
vt 0.62958741 0.87161386
vt 0.68885058 0.90746719
vt 0.6812377 0.92702693
vt 0.62960446 0.90638399
vt 0.62959915 0.90035301
vt 0.67122155 0.95842826
vt 0.62961823 0.95459855
vt 0.66032165 0.98971736
vt 0.6304782 0.99655706
vt 0.65289402 0.99655014
vt 0.62963015 0.99655735
vt 0.63440406 0.99655586
vt 0.65729094 0.99654901
vt 0.65833223 0.99654865
vt 0.75307322 0.93976516
vt 0.80199534 0.87772578
vt 0.79043287 0.95388007
vt 0.77888691 0.85355079
vt 0.8422693 0.97089601
vt 0.80416691 0.78201377
vt 0.87201995 0.86495584
vt 0.80481219 0.96640438
vt 0.85625136 0.80746299
vt 0.90632564 0.88913894
vt 0.84847921 0.98795432
vt 0.91070127 0.83462483
vt 0.88233292 0.95573771
vt 0.87345529 0.99592578
vt 0.94558477 0.85342884
vt 0.89968723 0.94280112
vt 0.92759854 0.89615226
vt 0.5593375 0.98822039
vt 0.54721797 0.99631149
vt 0.54393727 0.9927029
vt 0.56720793 0.97158873
vt 0.57074606 0.98516703
vt 0.53452218 0.97391123
vt 0.54633254 0.96266127
vt 0.050383266 0.92590594
vt 0.028087497 0.92572039
vt 0.035957936 0.90908873
vt 0.066232577 0.91733563
vt 0.060903564 0.90354323
vt 0.096576549 0.92344886
vt 0.037540417 0.90149927
vt 0.09161143 0.90576679
vt 0.058032788 0.89059788
vt 0.11133042 0.90176147
vt 0.10846329 0.88845938
vt 0.14524975 0.91165614
vt 0.15084924 0.92477208
vt 0.15444991 0.9011367
vt 0.17753531 0.91834939
vt 0.17840779 0.90371996
vt 0.17641599 0.88962495
vt 0.21008117 0.92361552
vt 0.14911215 0.88532555
vt 0.19909227 0.90456051
vt 0.18646935 0.89965296
vt 0.21692288 0.90815049
vt 0.2065088 0.89992434
vt 0.2841683 0.85068274
vt 0.22270806 0.86706722
vt 0.24157873 0.85879612
vt 0.30477524 0.85250777
vt 0.2243067 0.8501817
vt 0.28280222 0.88615429
vt 0.33306524 0.87741542
vt 0.22783199 0.88544875
vt 0.3344321 0.84529543
vt 0.32179338 0.89534289
vt 0.22784804 0.90310055
vt 0.33854479 0.87312967
vt 0.2858997 0.8970595
vt 0.39721251 0.88780802
vt 0.3873089 0.87078065
vt 0.38569939 0.85853493
vt 0.40329668 0.87425089
vt 0.34852764 0.85918546
vt 0.37145939 0.8519817
vt 0.45351055 0.8851248
vt 0.46606511 0.89274967
vt 0.42885435 0.88669133
vt 0.46795067 0.87766039
vt 0.41061017 0.89741474
vt 0.52441823 0.89345074
vt 0.46720427 0.86070937
vt 0.4171657 0.88629311
vt 0.51939815 0.87296724
vt 0.55190241 0.89333421
vt 0.49971643 0.86220813
vt 0.56275856 0.90219748
vt 0.53527331 0.86273015
vt 0.55750072 0.88200939
vt 0.55843103 0.86731392
vt 0.12353534 0.84911489
vt 0.12058795 0.83229214
vt 0.13142295 0.83183753
vt 0.13240469 0.83860874
vt 0.073593058 0.83555299
vt 0.076616369 0.85398418
vt 0.029409664 0.84347475
vt 0.10634992 0.85906696
vt 0.06244484 0.8688696
vt 0.098549359 0.86951661
vt 0.0043773269 0.87051749
vt 0.012322311 0.85604197
vt 0.23379079 0.7935499
vt 0.22106169 0.81591356
vt 0.20742799 0.80707037
vt 0.27524844 0.80531085
vt 0.18919162 0.81035638
vt 0.23274651 0.83356512
vt 0.26301616 0.79297668
vt 0.15934817 0.8224839
vt 0.27487198 0.82546473
vt 0.25180465 0.83864194
vt 0.18610808 0.83675873
vt 0.28875995 0.83731794
vt 0.1624009 0.83989775
vt 0.37818253 0.77689171
vt 0.38903934 0.78534728
vt 0.39673939 0.79798776
vt 0.40035737 0.77957207
vt 0.4013373 0.81976211
vt 0.41200724 0.81591153
vt 0.42635888 0.80856889
vt 0.41276506 0.8299768
vt 0.41044673 0.76689053
vt 0.42146635 0.75992072
vt 0.42280352 0.82283044
vt 0.42804813 0.77274895
vt 0.43631124 0.82560074
vt 0.44697192 0.79792422
vt 0.41780734 0.84333718
vt 0.44711313 0.80032867
vt 0.43151864 0.84724277
vt 0.44573703 0.81871808
vt 0.44342539 0.84372598
vt 0.44658172 0.83472937
vt 0.44774035 0.85267705
vt 0.44300756 0.86263835
vt 0.44866794 0.85965866
vt 0.44700193 0.86280602
vt 0.44715044 0.87187588
vt 0.96884227 0.987966
vt 0.96403182 0.96850026
vt 0.98527551 0.95817369
vt 0.98857117 0.98362082
vt 0.94718695 0.97233903
vt 0.97487217 0.94865745
vt 0.99401981 0.98203671
vt 0.97198683 0.99664932
vt 0.92662978 0.98335582
vt 0.94430411 0.94912028
vt 0.99621534 0.95699579
vt 0.94892853 0.99581736
vt 0.91024375 0.97025025
vt 0.91373128 0.98093271
vt 0.91151768 0.95553046
vt 0.9179306 0.99026656
vt 0.93859303 0.98887372
vt 0.69629401 0.91494077
vt 0.70317787 0.93428588
vt 0.6971879 0.9394176
vt 0.69334555 0.92121482
vt 0.72390699 0.93807918
vt 0.70874953 0.96724147
vt 0.69644624 0.93871808
vt 0.69172466 0.91506916
vt 0.71094799 0.94981569
vt 0.69671011 0.9431541
vt 0.72400218 0.95954698
vt 0.69717222 0.95705068
vt 0.69547558 0.96927714
vt 0.71510422 0.97265524
vt 0.69687772 0.97691721
vt 0.7137745 0.98671609
vt 0.70079511 0.99147213
vt 0.7096737 0.99656159
vt 0.70188946 0.99478012
vt 0.51824039 0.77820569
vt 0.4985607 0.79486072
vt 0.48450607 0.77881622
vt 0.50224721 0.7528953
vt 0.50896233 0.80098408
vt 0.48128834 0.79233682
vt 0.48149055 0.7674067
vt 0.51880592 0.7471714
vt 0.49727863 0.80132043
vt 0.52094108 0.79482424
vt 0.4817743 0.80313969
vt 0.47090983 0.78513902
vt 0.46530467 0.74766535
vt 0.4671025 0.79803771
vt 0.48495197 0.73905355
vt 0.48063534 0.80956429
vt 0.47296292 0.80794787
vt 0.46176362 0.73660171
vt 0.44069496 0.73042399
vt 0.55326164 0.91194093
vt 0.54979694 0.93310678
vt 0.53564417 0.92408806
vt 0.53522104 0.90275997
vt 0.56782556 0.91925234
vt 0.57283843 0.90478945
vt 0.57743138 0.92094314
vt 0.59097338 0.89784068
vt 0.59395552 0.92352247
vt 0.61486953 0.90779233
vt 0.69564068 0.91258168
vt 0.6909045 0.89906257
vt 0.7123242 0.89514577
vt 0.7227056 0.90142238
vt 0.69887114 0.87626845
vt 0.72609925 0.89239496
vt 0.70188439 0.91850412
vt 0.70942479 0.87313694
vt 0.72387928 0.88112807
vt 0.72792119 0.89778459
vt 0.73318666 0.91095793
vt 0.72583127 0.86703432
vt 0.70501864 0.86125159
vt 0.72981238 0.9007318
vt 0.72902989 0.91782564
vt 0.72546154 0.86642677
vt 0.69884616 0.87261176
vt 0.71549463 0.8583377
vt 0.73111677 0.92297029
vt 0.72367495 0.86572552
vt 0.71631306 0.93160743
vt 0.72698486 0.93423921
vt 0.91915488 0.78882015
vt 0.94057298 0.79136741
vt 0.94370729 0.8052386
vt 0.9051829 0.79601043
vt 0.93534112 0.77928662
vt 0.90905672 0.80809796
vt 0.91880715 0.75988334
vt 0.94552392 0.76065725
vt 0.89557439 0.80376887
vt 0.90843236 0.76624465
vt 0.89304388 0.79523784
vt 0.89654404 0.80706477
vt 0.90459126 0.75158089
vt 0.8840273 0.77377975
vt 0.87910169 0.76208967
vt 0.95342308 0.73662961
vt 0.87890351 0.75904918
vt 0.878878 0.76089823
vt 0.21866895 0.83461463
vt 0.21174513 0.85505152
vt 0.18666168 0.83769882
vt 0.23310736 0.8479073
vt 0.1660057 0.84184062
vt 0.2000694 0.866561
vt 0.16017199 0.87017781
vt 0.53447807 0.94268191
vt 0.55674052 0.95588899
vt 0.54204273 0.95561725
vt 0.56372404 0.93146837
vt 0.55315113 0.96549082
vt 0.57507718 0.95977485
vt 0.59290314 0.93125117
vt 0.58817399 0.9437139
vt 0.60787076 0.9490416
vt 0.59509379 0.86806118
vt 0.58234453 0.86671501
vt 0.55297154 0.8331691
vt 0.60539484 0.85781002
vt 0.54860973 0.84935141
vt 0.60461974 0.86971188
vt 0.55981249 0.86639637
vt 0.53441858 0.84243274
vt 0.59478331 0.87190604
vt 0.57673889 0.87168872
vt 0.54274327 0.8612653
vt 0.53930521 0.85681415
vt 0.034451813 0.81181961
vt 0.059991807 0.81364727
vt 0.041871216 0.83989114
vt 0.015005122 0.82918465
vt 0.061868597 0.83081502
vt 0.0040633772 0.81761819
vt 0.074654602 0.81749976
vt 0.96166068 0.88911271
vt 0.97491133 0.88237351
vt 0.98121977 0.89478934
vt 0.96580583 0.90117836
vt 0.97002548 0.86859828
vt 0.96661913 0.90175819
vt 0.95657724 0.89912021
vt 0.95822513 0.87673867
vt 0.96698964 0.90229875
vt 0.94804978 0.89653015
vt 0.96344805 0.87177676
vt 0.94620264 0.8760913
vt 0.97948045 0.90631366
vt 0.94849581 0.8974973
vt 0.9462685 0.89651167
vt 0.96797901 0.86814207
vt 0.94114387 0.89357632
vt 0.96898329 0.91037357
vt 0.94754177 0.89849156
vt 0.94370824 0.89976186
vt 0.96834564 0.86610287
vt 0.96743923 0.91700447
vt 0.97732991 0.9187035
vt 0.9912371 0.92129195
vt 0.97077096 0.93143177
vt 0.98156488 0.93368512
vt 0.97432393 0.93384975
vt 0.31072763 0.80262637
vt 0.32460991 0.80981576
vt 0.31473413 0.82408404
vt 0.30146694 0.8199513
vt 0.33630326 0.81239957
vt 0.30902773 0.83477628
vt 0.29105741 0.80280048
vt 0.33265498 0.78607267
vt 0.33644477 0.83873743
vt 0.29366574 0.83904946
vt 0.32526273 0.83411932
vt 0.28437588 0.82138252
vt 0.30357727 0.78857279
vt 0.34735951 0.78803861
vt 0.31557941 0.78654259
vt 0.34784088 0.81556726
vt 0.28523448 0.78414196
vt 0.317231 0.8053751
vt 0.34904724 0.83299148
vt 0.51657927 0.82607275
vt 0.47348526 0.83396673
vt 0.47247535 0.81920213
vt 0.50421059 0.80771804
vt 0.49439114 0.83952463
vt 0.52110821 0.79816568
vt 0.53113943 0.83439082
vt 0.53001541 0.81962079
vt 0.53649193 0.80111825
vt 0.74432296 0.83138758
vt 0.75440717 0.81297231
vt 0.76352102 0.84571362
vt 0.75981128 0.84753102
vt 0.74253976 0.80831563
vt 0.75011128 0.86008644
vt 0.72692508 0.81172627
vt 0.73966885 0.85374486
vt 0.72350591 0.82382053
vt 0.73601663 0.87087303
vt 0.72650576 0.85723686
vt 0.58874148 0.79059869
vt 0.5666284 0.76812857
vt 0.54984003 0.7460916
vt 0.59072781 0.75408113
vt 0.55952436 0.78367752
vt 0.54442775 0.75157702
vt 0.56377101 0.80095208
vt 0.54119587 0.77191103
vt 0.55051953 0.80460119
vt 0.57904273 0.80816168
vt 0.53693432 0.78648245
vt 0.53567356 0.75252736
vt 0.39385629 0.97500467
vt 0.42791101 0.99686682
vt 0.39409214 0.97939837
vt 0.45349783 0.97850019
vt 0.39489937 0.99381626
vt 0.15582506 0.82410735
vt 0.13243207 0.81389272
vt 0.15582418 0.82168823
vt 0.12413497 0.83111465
vt 0.15059249 0.80936682
vt 0.15582974 0.83902621
vt 0.11555011 0.80852103
vt 0.15581976 0.81687117
vt 0.12003947 0.80142409
vt 0.098510303 0.82165611
vt 0.15581436 0.81178248
vt 0.10322898 0.80138427
vt 0.98201275 0.8631888
vt 0.96716899 0.85182774
vt 0.99387735 0.84665275
vt 0.99401772 0.85962331
vt 0.98179728 0.82823819
vt 0.98592091 0.87011904
vt 0.96067822 0.84763515
vt 0.99118048 0.8313514
vt 0.95140487 0.85779268
vt 0.96329516 0.81552893
vt 0.98574996 0.8222574
vt 0.94971639 0.84661376
vt 0.94429761 0.82889163
vt 0.94227773 0.8465206
vt 0.96064728 0.81511676
vt 0.051650837 0.77912807
vt 0.058695037 0.75921565
vt 0.059060968 0.79433745
vt 0.043512847 0.7891804
vt 0.037066881 0.75865072
vt 0.040837742 0.79037225
vt 0.037738226 0.76766443
vt 0.01812958 0.79554796
vt 0.016370431 0.76483345
vt 0.027947322 0.80628246
vt 0.0096490309 0.77702701
vt 0.0132739 0.80887997
vt 0.0048336955 0.76586366
vt 0.5797863 0.969724
vt 0.56867373 0.98388755
vt 0.56653297 0.96675968
vt 0.58249646 0.95846039
vt 0.59167433 0.99691314
vt 0.61943078 0.98406482
vt 0.60399169 0.98463851
vt 0.61175382 0.99307144
vt 0.62806642 0.82527757
vt 0.61157459 0.82390165
vt 0.62065303 0.80259097
vt 0.62264967 0.80110049
vt 0.61758971 0.83091402
vt 0.64239258 0.8127358
vt 0.60236228 0.83941215
vt 0.63150495 0.83089042
vt 0.59677458 0.82544184
vt 0.38350949 0.81870306
vt 0.39023748 0.81955707
vt 0.38206324 0.83777738
vt 0.3784779 0.84039664
vt 0.36581334 0.81151396
vt 0.35911644 0.83692789
vt 0.38493377 0.80280459
vt 0.35603619 0.83725286
vt 0.34845105 0.80538076
vt 0.13332231 0.79127365
vt 0.14954261 0.80841494
vt 0.12832214 0.79527414
vt 0.16731903 0.80912578
vt 0.14824705 0.78364891
vt 0.13438812 0.76587307
vt 0.16114753 0.78747094
vt 0.16014297 0.77081597
vt 0.16165267 0.78666735
vt 0.15964478 0.99640411
vt 0.16487223 0.97872031
vt 0.16892247 0.98417479
vt 0.12953301 0.98372251
vt 0.13057251 0.99500114
vt 0.10007619 0.79966182
vt 0.094973274 0.78339779
vt 0.099298075 0.78902739
vt 0.078212596 0.78972626
vt 0.10189477 0.78190255
vt 0.079362281 0.80489326
vt 0.088442363 0.77505875
vt 0.066175073 0.80825734
vt 0.073782332 0.76919019
vt 0.065461807 0.79696864
vt 0.065997072 0.77414596
vt 0.35648084 0.7890451
vt 0.36439815 0.80916429
vt 0.34690505 0.79583108
vt 0.34675694 0.76974332
vt 0.38532019 0.79509884
vt 0.36612582 0.7728976
vt 0.67598665 0.97916359
vt 0.6816597 0.983473
vt 0.6769985 0.99111766
vt 0.67830139 0.96958107
vt 0.67748195 0.99682951
vt 0.6756705 0.97592205
vt 0.69070262 0.96868539
vt 0.67856038 0.99607146
vt 0.67586499 0.97050077
vt 0.68144268 0.95817107
vt 0.67616338 0.96907049
vt 0.67769241 0.95931613
vt 0.18331534 0.98708248
vt 0.19411185 0.97748947
vt 0.20285851 0.99551463
vt 0.17484267 0.98426914
vt 0.20662296 0.98553497
vt 0.7956028 0.9950214
vt 0.80443323 0.98314875
vt 0.80338514 0.99367297
vt 0.80011332 0.99536532
vt 0.79283762 0.9665277
vt 0.79722065 0.99654251
vt 0.79270214 0.98992699
vt 0.79419529 0.99647933
vt 0.78590268 0.96747643
vt 0.79424179 0.99523711
vt 0.52779418 0.97129005
vt 0.53237695 0.97400814
vt 0.53115141 0.99660182
vt 0.45891315 0.97185314
vt 0.48228854 0.98126614
vt 0.45691654 0.99611622
vt 0.10613268 0.99332565
vt 0.086325288 0.9959119
vt 0.10473616 0.98321635
vt 0.08276397 0.99072278
vt 0.21532837 0.9903574
vt 0.21703148 0.9775933
vt 0.22101924 0.98337036
vt 0.21135131 0.9901408
vt 0.2278841 0.97921306
vt 0.21313222 0.99258381
vt 0.20762853 0.99592167
vt 0.0070350422 0.9952727
vt 0.0032379276 0.97942942
vt 0.010539081 0.98280656
vt 0.01590623 0.99377567
vt 0.0069790236 0.97679329
vt 0.012299613 0.98165327
vt 0.019475192 0.98602116
vt 0.016799437 0.99660194
vt 0.020447258 0.98662108
vt 0.029247755 0.98527122
vt 0.018927239 0.99696785
vt 0.029804075 0.99691421
vt 0.027863376 0.99220717
vt 0.03234046 0.99527055
vt 0.03570484 0.99254197
vt 0.0044385372 0.9968639
vt 0.0054698708 0.99575639
vt 0.0055363607 0.99694037
usemtl Tile_+031_+023_L19_000120_0
f 131/601 135/602 167/603
f 19/817 28/818 468/819
f 15/751 76/752 69/753
f 18/715 233/716 78/717
f 417/253 193/254 418/255
f 27/1 99/2 98/3
f 117/55 104/56 112/57
f 212/148 137/170 213/158
f 199/274 196/269 179/280
f 368/335 182/321 369/331
f 207/137 215/106 208/139
f 186/396 66/397 174/398
f 128/122 100/112 129/97
f 13/647 74/648 72/649
f 138/62 110/66 112/57
f 208/139 186/171 174/167
f 174/398 66/397 159/400
f 143/21 47/23 90/16
f 132/11 90/16 53/5
f 112/57 110/66 136/65
f 48/675 120/676 62/677
f 206/442 211/443 175/444
f 98/3 26/4 27/1
f 79/686 80/687 117/688
f 126/6 26/4 98/3
f 62/677 59/678 48/675
f 80/687 82/690 94/693
f 37/26 46/27 36/31
f 177/33 158/36 36/31
f 230/567 231/568 228/569
f 228/569 227/572 229/570
f 416/46 30/37 419/48
f 228/39 30/37 227/43
f 229/570 230/567 228/569
f 68/719 61/725 57/722
f 67/721 88/726 60/727
f 217/270 224/282 196/269
f 160/302 205/290 209/304
f 205/290 224/282 223/296
f 224/282 205/290 196/269
f 421/310 224/282 422/303
f 224/282 217/270 423/289
f 32/40 209/49 225/47
f 223/296 224/282 225/305
f 426/703 219/704 428/705
f 216/711 219/704 222/709
f 209/304 205/290 223/296
f 222/709 221/706 217/712
f 423/698 221/699 429/700
f 217/712 220/714 222/709
f 220/263 204/260 216/258
f 155/743 154/744 198/745
f 222/709 219/704 221/706
f 428/705 218/707 430/710
f 431/261 370/268 463/272
f 197/266 220/263 217/270
f 193/254 216/258 204/260
f 193/254 190/264 431/261
f 218/256 216/258 193/254
f 151/125 149/138 212/148
f 119/404 86/402 144/399
f 213/158 144/179 186/171
f 144/179 213/158 119/178
f 212/148 149/138 134/157
f 470/111 129/97 471/104
f 136/65 111/61 112/57
f 150/114 151/125 215/106
f 206/168 214/156 173/155
f 151/125 212/148 208/139
f 200/293 172/314 164/309
f 172/30 142/25 178/28
f 156/313 164/309 178/318
f 187/307 167/317 147/322
f 213/158 208/139 212/148
f 208/139 173/155 207/137
f 146/126 149/138 150/114
f 204/260 197/266 195/262
f 201/286 170/300 180/285
f 194/265 198/279 181/275
f 158/308 177/312 200/293
f 196/269 205/290 161/287
f 194/265 196/269 199/274
f 179/280 210/301 200/293
f 177/312 172/314 200/293
f 215/106 151/125 208/139
f 208/139 213/158 186/171
f 210/301 158/308 200/293
f 172/314 178/318 164/309
f 199/274 179/280 201/286
f 200/293 201/286 179/280
f 180/285 199/274 201/286
f 201/286 200/293 185/299
f 199/274 180/285 198/279
f 170/300 201/286 185/299
f 196/269 195/262 197/266
f 193/254 204/260 195/262
f 195/262 194/265 193/254
f 193/254 194/265 191/267
f 202/284 191/267 189/288
f 190/264 191/267 373/271
f 203/812 189/813 157/814
f 190/264 193/254 191/267
f 194/265 181/275 191/267
f 153/281 191/267 181/275
f 170/300 185/299 202/284
f 170/815 189/813 203/812
f 192/277 202/284 188/292
f 192/277 191/267 202/284
f 377/298 188/292 378/306
f 373/271 192/277 380/283
f 187/307 147/322 381/319
f 99/336 27/337 169/330
f 169/330 152/324 133/332
f 132/329 166/320 165/325
f 169/330 168/333 184/326
f 166/320 152/324 183/311
f 167/317 187/307 183/311
f 26/340 126/342 168/333
f 385/338 168/333 386/341
f 167/317 183/311 182/321
f 183/311 185/299 156/313
f 183/311 187/307 185/299
f 169/330 184/326 183/311
f 183/311 184/326 182/321
f 188/292 185/299 187/307
f 378/306 187/307 382/316
f 168/333 126/342 476/344
f 169/330 133/332 99/336
f 168/333 169/330 27/337
f 27/337 26/340 168/333
f 182/604 131/601 167/603
f 180/746 155/743 198/745
f 170/748 203/750 171/749
f 162/294 179/280 161/287
f 111/61 134/157 149/138
f 46/27 172/30 177/33
f 173/155 174/167 159/177
f 171/749 155/743 170/748
f 156/313 141/327 165/325
f 158/36 210/41 145/35
f 141/19 143/21 90/16
f 154/778 181/779 198/780
f 143/323 141/327 156/313
f 153/781 181/779 154/778
f 166/320 132/329 152/324
f 133/332 152/324 132/329
f 148/605 167/603 135/602
f 149/138 151/125 150/114
f 134/585 136/586 137/587
f 174/167 173/155 208/139
f 159/177 206/168 173/155
f 176/146 206/168 175/169
f 144/399 86/402 34/401
f 209/49 32/40 160/45
f 33/32 162/42 160/45
f 160/302 162/294 161/287
f 44/516 103/517 50/518
f 76/752 15/751 81/755
f 154/778 157/782 153/781
f 157/747 154/744 155/743
f 153/816 157/814 189/813
f 145/35 36/31 158/36
f 145/35 33/32 36/31
f 34/401 66/397 144/399
f 41/349 31/350 39/351
f 35/450 38/447 66/445
f 47/23 143/21 142/25
f 65/407 86/402 119/404
f 111/592 140/593 116/594
f 146/595 140/593 111/592
f 111/61 116/58 112/57
f 167/603 148/605 147/608
f 112/57 113/59 138/62
f 139/72 138/62 120/67
f 118/78 138/62 139/72
f 136/586 110/590 119/589
f 125/411 54/410 65/407
f 62/827 69/828 76/829
f 123/64 117/55 115/60
f 134/585 111/588 136/586
f 146/126 111/61 149/138
f 113/59 130/73 120/67
f 106/70 123/64 122/77
f 165/325 166/320 156/313
f 119/589 137/587 136/586
f 132/11 165/22 141/19
f 147/608 148/605 372/611
f 53/5 133/8 132/11
f 135/844 131/845 388/846
f 17/655 97/651 89/662
f 102/533 91/530 109/528
f 129/97 127/103 122/77
f 101/430 128/431 474/432
f 127/103 129/97 100/112
f 478/91 122/77 480/85
f 481/12 85/9 482/17
f 128/431 101/430 100/434
f 100/112 102/121 127/103
f 109/110 108/96 127/103
f 480/85 123/64 483/83
f 120/67 130/73 232/79
f 117/55 123/64 106/70
f 107/659 13/647 105/653
f 122/77 107/84 106/70
f 72/649 56/650 13/647
f 52/440 91/436 70/438
f 65/407 118/413 125/411
f 139/414 125/411 118/413
f 113/697 104/691 94/693
f 117/55 112/57 116/58
f 115/60 117/55 116/58
f 114/730 113/731 14/732
f 65/591 119/589 110/590
f 138/62 65/71 110/66
f 55/441 91/436 52/440
f 100/434 101/430 93/435
f 84/455 71/456 96/457
f 71/456 24/458 96/457
f 99/2 133/8 53/5
f 85/497 92/498 124/499
f 84/7 85/9 98/3
f 75/760 13/761 61/762
f 70/10 71/14 84/7
f 122/77 121/90 107/84
f 108/654 109/660 97/651
f 121/90 12/86 107/84
f 12/86 232/79 130/73
f 130/734 63/736 12/738
f 106/663 107/659 105/653
f 73/656 79/658 56/650
f 80/687 94/693 104/691
f 25/526 45/521 103/517
f 101/430 24/437 93/435
f 70/438 91/436 93/435
f 100/434 93/435 91/436
f 98/3 99/2 53/5
f 85/9 84/7 96/15
f 79/658 105/653 56/650
f 70/10 84/7 53/5
f 24/458 23/460 83/459
f 78/657 72/649 17/655
f 24/458 101/463 77/461
f 51/527 50/518 45/521
f 79/686 73/695 81/692
f 79/686 82/690 80/687
f 57/722 78/717 68/719
f 77/461 101/463 479/464
f 13/849 75/850 74/851
f 72/649 78/657 57/652
f 96/501 92/498 85/497
f 71/439 70/438 93/435
f 52/13 53/5 90/16
f 55/519 50/518 89/522
f 14/732 62/733 114/730
f 54/410 52/409 65/407
f 55/412 52/409 54/410
f 52/409 64/405 65/407
f 13/740 12/738 61/737
f 113/697 94/693 14/696
f 56/650 72/649 57/652
f 76/739 61/737 62/733
f 55/519 44/516 50/518
f 69/765 62/767 232/764
f 48/675 49/682 44/685
f 70/10 53/5 52/13
f 64/20 52/13 90/16
f 34/401 40/408 41/406
f 39/351 87/353 38/356
f 69/724 68/719 67/721
f 40/24 37/26 41/29
f 87/353 39/351 31/350
f 34/401 86/402 64/405
f 90/16 47/23 64/20
f 40/408 34/401 64/405
f 47/23 37/26 40/24
f 35/450 41/453 39/451
f 36/31 33/32 37/26
f 41/406 35/403 34/401
f 30/37 33/32 32/40
f 31/350 29/352 228/354
f 31/350 41/349 29/352
f 29/34 33/32 30/37
f 33/32 29/34 41/29
f 45/521 25/526 17/529
f 44/516 43/525 42/520
f 1/620 10/621 2/622
f 8/642 6/643 11/645
f 6/643 8/642 5/632
f 18/531 16/532 25/526
f 77/461 234/465 242/462
f 17/718 16/720 18/715
f 76/739 57/741 61/737
f 30/37 228/39 29/34
f 231/568 230/567 359/571
f 20/821 19/817 489/823
f 2/545 10/546 9/547
f 494/644 11/645 497/646
f 498/563 5/551 499/559
f 5/632 8/642 493/641
f 506/623 2/622 507/625
f 2/622 5/632 504/628
f 5/551 3/548 491/555
f 20/821 28/818 19/817
f 82/690 79/686 81/692
f 505/626 1/620 506/623
f 1/620 4/629 508/634
f 3/548 5/551 2/545
f 9/547 3/548 2/545
f 519/557 241/549 520/561
f 521/550 9/547 522/553
f 241/624 10/621 1/620
f 9/547 241/549 7/552
f 523/556 7/552 524/560
f 58/758 15/751 14/756
f 82/690 81/692 58/694
f 67/721 233/716 42/723
f 233/524 103/517 42/520
f 60/680 49/682 48/675
f 89/522 50/518 51/527
f 48/675 59/678 60/680
f 45/521 50/518 103/517
f 60/680 43/684 49/682
f 57/759 76/752 73/757
f 61/762 68/763 75/760
f 69/753 59/754 15/751
f 59/729 69/724 60/727
f 103/517 44/516 42/520
f 60/727 88/726 43/728
f 68/719 78/717 233/716
f 81/755 15/751 58/758
f 233/524 18/531 25/526
f 88/726 67/721 42/723
f 76/752 81/755 73/757
f 43/728 88/726 42/723
f 233/716 67/721 68/719
f 17/529 51/527 45/521
f 24/458 77/461 23/460
f 22/467 77/461 486/468
f 92/498 95/505 240/502
f 124/499 92/498 240/502
f 95/505 92/498 96/501
f 51/665 17/655 89/662
f 72/649 97/651 17/655
f 56/650 57/652 73/656
f 529/475 20/471 530/473
f 530/473 22/467 532/474
f 83/507 242/510 240/502
f 77/461 22/467 234/465
f 25/526 16/532 17/529
f 234/465 22/467 242/462
f 25/526 103/517 233/524
f 78/717 17/718 18/715
f 21/469 242/462 22/467
f 22/467 20/471 21/469
f 487/513 20/514 490/515
f 240/502 21/512 488/511
f 240/502 242/510 21/512
f 83/459 23/460 242/462
f 185/299 200/293 164/309
f 53/5 84/7 98/3
f 371/607 135/602 389/610
f 203/750 157/747 171/749
f 12/86 121/90 232/79
f 108/96 121/90 122/77
f 56/650 105/653 13/647
f 112/57 104/56 113/59
f 95/505 96/501 83/507
f 179/38 162/42 33/32
f 220/714 216/711 222/709
f 173/155 214/156 207/137
f 185/299 188/292 202/284
f 183/311 152/324 169/330
f 206/442 159/448 66/445
f 109/528 91/530 55/519
f 89/522 109/528 55/519
f 139/679 120/676 48/675
f 226/44 30/37 32/40
f 226/44 225/47 425/51
f 419/48 226/44 435/52
f 196/269 197/266 217/270
f 225/47 226/44 32/40
f 225/305 209/304 223/296
f 160/302 161/287 205/290
f 216/711 218/707 219/704
f 204/260 220/263 197/266
f 177/33 36/31 46/27
f 134/157 137/170 212/148
f 117/688 106/689 79/686
f 170/300 202/284 189/288
f 206/168 176/146 214/156
f 171/749 157/747 155/743
f 198/279 194/265 199/274
f 179/280 196/269 161/287
f 194/265 195/262 196/269
f 153/281 189/288 191/267
f 180/746 170/748 155/743
f 183/311 156/313 166/320
f 186/396 144/399 66/397
f 185/299 164/309 156/313
f 125/681 139/679 48/675
f 48/675 54/683 125/681
f 369/331 184/326 390/334
f 137/170 119/178 213/158
f 176/146 207/137 214/156
f 178/318 143/323 156/313
f 178/28 142/25 143/21
f 211/443 206/442 66/445
f 38/447 211/443 66/445
f 33/32 160/45 32/40
f 172/30 46/27 142/25
f 64/405 86/402 65/407
f 118/78 65/71 138/62
f 114/730 63/736 130/734
f 117/688 80/687 104/691
f 138/62 113/59 120/67
f 102/121 109/110 127/103
f 122/77 127/103 108/96
f 90/16 132/11 141/19
f 232/764 75/760 68/763
f 82/690 14/696 94/693
f 62/767 120/768 232/764
f 59/735 62/733 14/732
f 71/439 93/435 24/437
f 484/500 124/499 527/503
f 97/651 74/648 108/654
f 89/662 97/651 109/660
f 74/648 75/664 121/661
f 13/740 107/742 12/738
f 108/654 74/648 121/661
f 63/736 62/733 61/737
f 106/663 105/653 79/658
f 102/533 100/534 91/530
f 126/6 98/3 85/9
f 82/690 58/694 14/696
f 74/648 97/651 72/649
f 121/766 75/760 232/764
f 68/763 69/765 232/764
f 64/20 47/23 40/24
f 12/738 63/736 61/737
f 44/516 55/519 54/523
f 60/727 69/724 67/721
f 63/736 114/730 62/733
f 54/683 48/675 44/685
f 37/26 47/23 46/27
f 39/451 38/447 35/450
f 145/35 210/41 179/38
f 33/32 145/35 179/38
f 35/403 66/397 34/401
f 142/25 46/27 47/23
f 37/26 33/32 41/29
f 496/837 6/838 535/839
f 15/751 59/754 14/756
f 9/547 10/546 241/549
f 241/624 1/620 514/627
f 44/685 49/682 43/684
f 528/506 240/502 539/508
f 83/459 96/457 24/458
f 23/460 77/461 242/462
f 240/502 95/505 83/507
f 113/731 114/730 130/734
f 292/480 300/481 353/482
f 251/535 235/536 284/537
f 229/570 227/572 440/575
f 443/783 246/784 444/785
f 360/769 366/770 361/771
f 258/786 358/791 247/789
f 248/415 313/416 359/417
f 366/833 367/834 292/835
f 301/775 367/772 362/773
f 317/599 315/598 327/600
f 348/244 349/225 347/243
f 295/366 311/367 367/368
f 343/108 325/100 393/117
f 293/365 259/358 290/363
f 267/542 266/544 342/543
f 250/199 235/208 265/195
f 335/383 262/380 270/381
f 207/137 176/146 255/124
f 327/87 315/98 333/92
f 140/593 146/595 316/597
f 115/60 319/75 320/69
f 540/130 343/108 541/140
f 313/416 345/418 289/420
f 248/574 363/573 237/579
f 295/366 367/368 285/369
f 286/376 268/377 262/380
f 294/488 295/496 290/495
f 283/666 310/667 303/668
f 290/373 286/376 293/378
f 301/203 250/199 296/196
f 285/375 269/379 268/377
f 249/193 274/190 269/188
f 329/613 332/614 276/615
f 332/131 329/143 336/119
f 307/135 334/105 255/124
f 87/353 308/362 314/359
f 290/495 254/493 294/488
f 294/488 288/492 291/484
f 358/791 258/786 447/790
f 367/772 366/770 360/769
f 292/480 361/483 366/487
f 291/484 300/481 292/480
f 367/834 311/836 292/835
f 301/371 297/372 285/369
f 361/483 292/480 353/482
f 313/416 248/415 345/418
f 303/776 362/773 364/774
f 362/773 367/772 360/769
f 360/769 364/774 362/773
f 228/419 359/417 313/416
f 360/486 361/483 353/482
f 228/419 231/422 359/417
f 246/784 258/786 247/789
f 363/573 365/576 451/581
f 229/570 365/576 363/573
f 365/576 229/570 442/580
f 230/567 229/570 363/573
f 350/232 349/225 445/237
f 298/233 337/239 349/225
f 356/198 358/212 438/207
f 450/230 352/223 456/235
f 437/583 363/573 452/584
f 353/482 364/490 360/486
f 303/205 357/210 356/198
f 310/777 362/773 303/776
f 248/415 245/421 345/418
f 300/481 298/489 354/485
f 354/485 353/482 300/481
f 446/241 348/244 459/248
f 364/215 353/218 357/210
f 356/198 357/210 358/212
f 247/219 358/212 357/210
f 352/223 355/222 351/228
f 357/210 355/222 352/223
f 352/223 247/219 357/210
f 398/211 397/194 466/206
f 282/191 356/198 397/194
f 337/239 347/243 349/225
f 349/225 350/232 351/228
f 355/222 353/218 349/225
f 349/225 354/229 298/233
f 349/225 351/228 355/222
f 349/225 353/218 354/229
f 457/234 351/228 460/240
f 351/228 350/232 454/238
f 348/244 237/250 436/252
f 347/243 344/247 245/249
f 335/150 329/143 346/161
f 341/386 304/389 280/388
f 534/76 320/69 542/82
f 344/425 299/423 245/421
f 146/126 150/114 315/98
f 327/87 319/75 317/80
f 176/146 175/169 256/147
f 255/124 256/147 307/135
f 315/98 215/106 333/92
f 345/418 245/421 299/423
f 347/243 337/239 344/247
f 270/181 266/173 335/150
f 116/594 140/593 163/596
f 320/69 324/93 543/99
f 343/108 322/118 324/93
f 341/386 280/388 263/384
f 320/69 326/81 330/88
f 332/614 306/617 276/615
f 336/119 325/100 243/101
f 401/141 340/132 405/151
f 403/144 336/119 406/152
f 266/173 339/160 335/150
f 261/382 335/383 341/386
f 273/192 342/187 274/190
f 283/666 235/672 236/670
f 356/198 282/191 302/201
f 338/163 272/183 251/186
f 274/190 342/187 271/184
f 290/373 295/374 285/375
f 267/176 272/183 338/163
f 236/213 250/199 310/209
f 251/186 252/185 338/163
f 252/185 282/191 399/189
f 252/538 251/535 284/537
f 325/100 336/119 340/132
f 266/173 267/176 336/119
f 336/119 267/176 338/163
f 337/239 298/233 253/242
f 298/233 287/246 253/242
f 339/160 336/119 335/150
f 331/94 279/120 281/109
f 215/106 255/124 334/105
f 331/94 333/92 334/105
f 307/449 314/452 308/454
f 334/105 307/135 278/123
f 334/105 333/92 215/106
f 337/239 299/245 344/247
f 263/384 261/382 341/386
f 253/242 299/245 337/239
f 304/618 329/613 305/616
f 307/449 256/446 211/443
f 293/378 261/382 263/384
f 288/492 294/488 254/493
f 336/119 329/143 335/150
f 341/386 335/383 304/389
f 334/105 278/123 328/113
f 328/113 238/136 275/133
f 308/390 238/392 307/394
f 260/385 277/387 308/390
f 276/615 305/616 329/613
f 335/383 346/391 304/389
f 326/81 331/94 330/88
f 328/113 279/120 331/94
f 304/174 346/161 329/143
f 256/446 175/444 211/443
f 327/87 326/81 319/75
f 333/92 331/94 326/81
f 326/81 327/87 333/92
f 243/101 330/88 331/94
f 331/94 281/109 243/101
f 320/69 123/64 115/60
f 309/361 308/362 87/353
f 324/93 321/116 323/107
f 325/100 343/108 324/93
f 548/127 322/118 549/142
f 541/140 394/128 556/149
f 322/118 321/116 324/93
f 324/93 330/88 325/100
f 319/75 326/81 320/69
f 543/99 323/107 547/115
f 320/69 330/88 324/93
f 323/107 321/116 322/118
f 115/60 116/58 163/63
f 318/68 163/63 316/74
f 163/63 318/68 115/60
f 315/598 317/599 316/597
f 318/68 316/74 317/80
f 317/80 319/75 318/68
f 238/392 278/395 307/394
f 309/361 260/364 308/362
f 38/447 314/452 307/449
f 87/353 314/359 38/356
f 211/443 38/447 307/449
f 308/390 277/387 238/392
f 238/136 239/165 305/154
f 280/388 239/393 238/392
f 277/387 280/388 238/392
f 244/794 276/795 306/796
f 299/423 289/420 345/418
f 313/357 289/360 312/355
f 362/214 310/209 301/203
f 289/360 259/358 312/355
f 312/355 259/358 87/353
f 259/358 309/361 87/353
f 31/350 312/355 87/353
f 312/355 31/350 313/357
f 313/357 31/350 228/354
f 289/420 254/424 290/426
f 292/480 311/491 294/488
f 264/197 274/190 249/193
f 367/368 301/371 285/369
f 294/488 291/484 292/480
f 259/358 289/360 290/363
f 268/377 286/376 285/375
f 235/672 283/666 284/673
f 302/669 283/666 303/668
f 302/669 282/671 283/666
f 283/666 236/670 310/667
f 342/187 266/173 271/184
f 302/201 303/205 356/198
f 283/666 282/671 284/673
f 301/203 296/196 297/204
f 249/193 296/196 250/199
f 250/199 301/203 310/209
f 269/188 285/200 296/196
f 249/193 269/188 296/196
f 298/489 291/484 288/492
f 253/427 287/429 288/428
f 289/420 299/423 254/424
f 300/481 291/484 298/489
f 285/200 297/204 296/196
f 282/671 252/674 284/673
f 265/195 273/192 274/190
f 264/197 265/195 274/190
f 265/539 272/540 273/541
f 266/173 270/181 271/184
f 269/188 271/184 270/181
f 274/190 271/184 269/188
f 270/381 268/377 269/379
f 272/540 267/542 273/541
f 265/539 251/535 272/540
f 265/195 264/197 250/199
f 235/536 251/535 265/539
f 286/376 262/380 293/378
f 267/542 342/543 273/541
f 293/378 262/380 261/382
f 262/380 335/383 261/382
f 339/160 266/173 336/119
f 406/152 338/163 410/175
f 243/619 306/617 332/614
f 304/389 239/393 280/388
f 281/799 244/794 243/797
f 281/109 279/120 275/133
f 328/113 278/123 238/136
f 275/133 279/120 328/113
f 305/154 275/133 238/136
f 260/385 263/384 277/387
f 280/388 277/387 263/384
f 244/794 281/799 275/798
f 276/166 275/133 305/154
f 276/795 244/794 275/798
f 260/385 293/378 263/384
f 293/365 260/364 259/358
f 550/800 413/801 559/802
f 338/163 252/185 408/182
f 328/113 331/94 334/105
f 256/147 255/124 176/146
f 146/595 315/598 316/597
f 115/60 318/68 319/75
f 288/428 254/424 253/427
f 248/574 359/571 230/567
f 363/573 248/574 230/567
f 352/223 246/226 247/219
f 245/582 248/574 237/579
f 353/218 355/222 357/210
f 303/205 364/215 357/210
f 347/243 245/249 237/250
f 237/250 348/244 347/243
f 215/106 315/98 150/114
f 215/106 207/137 255/124
f 268/377 270/381 262/380
f 325/100 330/88 243/101
f 305/154 239/165 304/174
f 336/119 243/101 332/131
f 286/376 290/373 285/375
f 299/423 253/427 254/424
f 163/596 140/593 316/597
f 311/367 295/366 294/370
f 264/197 249/193 250/199
f 250/199 236/213 235/208
f 288/492 287/494 298/489
f 244/794 306/796 243/797
f 260/364 309/361 259/358
f 368/606 131/601 182/604
f 369/331 182/321 184/326
f 370/268 190/264 375/273
f 371/607 148/605 135/602
f 372/611 148/605 371/607
f 373/271 191/267 192/277
f 374/276 190/264 373/271
f 375/273 190/264 374/276
f 376/297 192/277 377/298
f 377/298 192/277 188/292
f 378/306 188/292 187/307
f 379/291 192/277 376/297
f 380/283 192/277 379/291
f 381/319 147/322 391/328
f 382/316 187/307 381/319
f 383/855 184/856 384/857
f 384/857 184/856 385/858
f 385/338 184/326 168/333
f 386/341 168/333 477/343
f 387/612 147/608 372/611
f 388/846 131/845 392/848
f 389/847 135/844 388/846
f 390/334 184/326 383/339
f 391/852 147/853 387/854
f 392/609 131/601 368/606
f 393/117 325/100 400/129
f 394/128 343/108 393/117
f 453/227 396/224 458/220
f 397/194 356/198 455/202
f 458/220 398/211 467/216
f 399/189 282/191 397/194
f 400/129 325/100 401/141
f 401/141 325/100 340/132
f 556/149 402/159 557/172
f 403/144 340/132 336/119
f 404/153 340/132 403/144
f 405/151 340/132 407/162
f 406/152 336/119 338/163
f 407/162 340/132 409/164
f 408/182 252/185 399/189
f 409/164 340/132 404/153
f 410/175 338/163 408/182
f 411/806 257/803 412/809
f 412/809 257/803 561/810
f 413/801 257/803 411/806
f 413/801 414/807 552/804
f 415/50 227/43 416/46
f 416/46 227/43 30/37
f 417/253 218/256 193/254
f 418/255 193/254 433/257
f 419/48 30/37 226/44
f 420/315 225/305 421/310
f 421/310 225/305 224/282
f 422/303 224/282 424/295
f 423/698 217/701 221/699
f 424/295 224/282 423/289
f 425/51 225/47 420/54
f 426/703 221/706 219/704
f 427/708 221/706 426/703
f 428/705 219/704 218/707
f 429/700 221/699 427/702
f 430/710 218/707 417/713
f 431/261 190/264 370/268
f 432/259 193/254 431/261
f 433/257 193/254 432/259
f 434/53 226/44 425/51
f 435/52 226/44 434/53
f 436/830 237/831 437/832
f 437/583 237/579 363/573
f 438/207 358/212 439/217
f 439/217 358/212 449/221
f 440/575 227/572 415/578
f 441/577 229/570 440/575
f 442/580 229/570 441/577
f 443/783 258/786 246/784
f 444/785 246/784 450/787
f 445/237 349/225 446/241
f 446/241 349/225 348/244
f 447/790 258/786 462/788
f 448/792 358/791 447/790
f 449/793 358/791 448/792
f 450/230 246/226 352/223
f 451/581 365/576 442/580
f 452/584 363/573 451/581
f 453/227 395/231 396/224
f 454/238 350/232 445/237
f 455/202 356/198 438/207
f 456/235 352/223 457/234
f 457/234 352/223 351/228
f 458/220 396/224 398/211
f 459/248 348/244 461/251
f 460/240 351/228 454/238
f 461/251 348/244 436/252
f 462/788 258/786 443/783
f 463/272 370/268 464/278
f 465/236 395/231 453/227
f 466/206 397/194 455/202
f 467/216 398/211 466/206
f 468/479 28/476 509/478
f 469/820 19/817 468/819
f 470/111 128/122 129/97
f 471/104 129/97 478/91
f 472/18 126/6 481/12
f 473/347 126/342 472/348
f 474/145 128/122 475/134
f 475/134 128/122 470/111
f 476/344 126/342 473/347
f 477/343 168/333 554/346
f 478/91 129/97 122/77
f 479/433 101/430 474/432
f 480/85 122/77 123/64
f 481/12 126/6 85/9
f 482/504 85/497 484/500
f 483/83 123/64 534/76
f 484/500 85/497 124/499
f 485/466 77/461 479/464
f 486/468 77/461 485/466
f 487/513 21/512 20/514
f 488/511 21/512 487/513
f 489/823 19/817 512/826
f 490/825 20/821 489/823
f 491/555 3/548 492/558
f 492/558 3/548 516/554
f 493/641 8/642 494/644
f 494/644 8/642 11/645
f 495/842 11/840 496/837
f 496/837 11/840 6/838
f 497/843 11/840 495/842
f 498/563 6/565 5/551
f 499/559 5/551 491/555
f 500/638 4/629 502/633
f 501/639 4/629 500/638
f 502/633 4/629 505/626
f 503/637 5/632 493/641
f 504/628 5/632 503/637
f 505/626 4/629 1/620
f 506/623 1/620 2/622
f 507/625 2/622 504/628
f 508/634 4/629 501/639
f 509/478 28/476 531/477
f 510/822 19/817 469/820
f 511/824 19/817 510/822
f 512/826 19/817 511/824
f 513/631 1/620 515/636
f 514/627 1/620 513/631
f 515/636 1/620 508/634
f 516/554 3/548 521/550
f 517/562 7/552 519/557
f 518/564 7/552 517/562
f 519/557 7/552 241/549
f 520/640 241/624 536/635
f 521/550 3/548 9/547
f 522/553 9/547 523/556
f 523/556 9/547 7/552
f 524/560 7/552 518/564
f 525/472 22/467 526/470
f 526/470 22/467 486/468
f 527/503 124/499 528/506
f 528/506 124/499 240/502
f 529/475 28/476 20/471
f 530/473 20/471 22/467
f 531/477 28/476 529/475
f 532/474 22/467 525/472
f 533/509 240/502 488/511
f 534/76 123/64 320/69
f 535/839 6/838 537/841
f 536/635 241/624 538/630
f 537/566 6/565 498/563
f 538/630 241/624 514/627
f 539/508 240/502 533/509
f 540/130 322/118 343/108
f 541/140 343/108 394/128
f 542/82 320/69 546/89
f 543/99 324/93 323/107
f 544/102 320/69 543/99
f 545/95 320/69 544/102
f 546/89 320/69 545/95
f 547/115 323/107 548/127
f 548/127 323/107 322/118
f 549/142 322/118 540/130
f 550/800 257/803 413/801
f 551/805 257/803 550/800
f 552/859 414/860 560/861
f 553/808 257/803 551/805
f 554/346 168/333 476/344
f 555/345 386/341 477/343
f 556/149 394/128 402/159
f 557/172 402/159 558/180
f 559/802 413/801 552/804
f 561/810 257/803 553/808
f 562/811 412/809 561/810
usemtl Tile_+031_+023_L19_000120_untextured
