mtllib Tile_+032_+023_L21_00013200.mtl
v 6.46789621e+03 5.59777986e+03 2.40132417e+00
v 6.46719578e+03 5.59974807e+03 2.29174320e+00
v 6.46776052e+03 5.59915263e+03 2.41737151e+00
v 6.46751917e+03 5.59817723e+03 2.45731205e+00
v 6.46639370e+03 5.59781375e+03 2.32952396e+00
v 6.46739856e+03 5.60684894e+03 2.28564012e+00
v 6.46735051e+03 5.60875414e+03 2.19692078e+00
v 6.46178458e+03 5.60454831e+03 2.30552988e+00
v 6.46322860e+03 5.60540397e+03 2.24910392e+00
v 6.46359875e+03 5.60974121e+03 2.21605936e+00
v 6.46402088e+03 5.61187633e+03 2.18200046e+00
v 6.46687075e+03 5.61113070e+03 2.21754408e+00
v 6.46540875e+03 5.60699379e+03 2.26262492e+00
v 6.46432823e+03 5.60520751e+03 2.19735299e+00
v 6.46469328e+03 5.60878599e+03 2.20083233e+00
v 6.46835454e+03 5.60248670e+03 2.26233311e+00
v 6.46815813e+03 5.60457262e+03 2.35341040e+00
v 6.46467521e+03 5.60444352e+03 2.27437596e+00
v 6.46875868e+03 5.60591258e+03 2.22795719e+00
v 6.46712698e+03 5.60546380e+03 2.21440810e+00
v 6.46628511e+03 5.60287618e+03 2.29637725e+00
v 6.46500611e+03 5.60049981e+03 2.31726329e+00
v 6.46230514e+03 5.60289981e+03 2.31516331e+00
v 6.46179757e+03 5.60215257e+03 2.30692465e+00
v 6.46173730e+03 5.60122309e+03 2.28289029e+00
v 6.46776125e+03 5.60114986e+03 2.29871442e+00
v 6.46288026e+03 5.61037010e+03 2.17462738e+00
v 6.46239327e+03 5.60938459e+03 2.17102077e+00
v 6.46247887e+03 5.61198937e+03 2.19645965e+00
v 6.46236539e+03 5.60084735e+03 2.33090907e+00
v 6.46205365e+03 5.60739846e+03 2.26632248e+00
v 6.46838963e+03 5.61465999e+03 2.22720170e+00
v 6.46789854e+03 5.59978747e+03 2.47719925e+00
v 6.46825463e+03 5.60076167e+03 2.42171366e+00
v 6.46876772e+03 5.60092782e+03 2.36783855e+00
v 6.46699685e+03 5.59780110e+03 2.47954669e+00
v 6.46749761e+03 5.59393849e+03 2.48875201e+00
v 6.46880193e+03 5.59473667e+03 2.34096088e+00
v 6.46494660e+03 5.59446714e+03 2.39273559e+00
v 6.46517183e+03 5.59557781e+03 2.40551410e+00
v 6.46634241e+03 5.59382168e+03 2.53084102e+00
v 6.46338100e+03 5.59932204e+03 2.30823540e+00
v 6.46165676e+03 5.59974556e+03 2.32465452e+00
v 6.46182061e+03 5.59891505e+03 2.33404059e+00
v 6.46644683e+03 5.59696523e+03 2.48278930e+00
v 6.46709911e+03 5.59718543e+03 2.50455343e+00
v 6.46875037e+03 5.59736220e+03 2.44408825e+00
v 6.46378924e+03 5.59494676e+03 2.42364065e+00
v 6.46649667e+03 5.61737104e+03 2.22211296e+00
v 6.46806897e+03 5.61872188e+03 2.21169010e+00
v 6.46498383e+03 5.61337840e+03 2.26379572e+00
v 6.46346754e+03 5.62148555e+03 2.25816730e+00
v 6.46151202e+03 5.61982232e+03 2.25258180e+00
v 6.46611735e+03 5.61403228e+03 2.18970995e+00
v 6.46423050e+03 5.61773193e+03 2.30703388e+00
v 6.46381025e+03 5.62020296e+03 2.28448516e+00
v 6.46648858e+03 5.62134102e+03 2.26462167e+00
v 6.46552523e+03 5.61817860e+03 2.24562588e+00
v 6.46868605e+03 5.62063347e+03 2.23853492e+00
v 6.46242466e+03 5.61507699e+03 2.20884534e+00
v 6.46379478e+03 5.61522006e+03 2.28007869e+00
v 6.46848658e+03 5.61221640e+03 2.18493959e+00
v 6.46198076e+03 5.62438447e+03 2.26181809e+00
v 6.46753452e+03 5.62423321e+03 2.28244795e+00
v 6.46644313e+03 5.61542574e+03 2.26262835e+00
v 6.46151957e+03 5.60552743e+03 2.23603774e+00
v 6.46864686e+03 5.60170732e+03 2.37260983e+00
v 6.46334236e+03 5.60832828e+03 2.20362722e+00
v 6.46573115e+03 5.59380371e+03 2.61372843e+00
v 6.46572052e+03 5.59471233e+03 2.50339101e+00
v 6.46553494e+03 5.59600491e+03 2.36467239e+00
v 6.46810559e+03 5.59666448e+03 2.45035503e+00
v 6.46867804e+03 5.59589167e+03 2.36215153e+00
v 6.46740418e+03 5.59607764e+03 2.53358776e+00
v 6.46578485e+03 5.59520603e+03 2.54505642e+00
v 6.46176568e+03 5.59534699e+03 2.43035821e+00
v 6.46208619e+03 5.59765101e+03 2.38188676e+00
v 6.46682072e+03 5.59452595e+03 2.55786979e+00
v 6.46626940e+03 5.59604746e+03 2.49917380e+00
v 6.46729506e+03 5.59521430e+03 2.49439230e+00
v 6.46317066e+03 5.61692808e+03 2.23938022e+00
v 6.46115592e+03 5.61725678e+03 2.24818922e+00
v 6.46503289e+03 5.62460150e+03 2.21106180e+00
v 6.46327914e+03 5.62280996e+03 2.28970768e+00
v 6.46175116e+03 5.62175038e+03 2.27909296e+00
v 6.46216585e+03 5.61827591e+03 2.26288777e+00
v 6.46799732e+03 5.59493403e+03 2.52694648e+00
v 6.46100581e+03 5.61638784e+03 2.25198464e+00
v 6.46026801e+03 5.61179163e+03 2.20362681e+00
v 6.46044537e+03 5.61010302e+03 2.27708682e+00
v 6.46166797e+03 5.61327748e+03 2.28412968e+00
v 6.44336248e+03 5.62070470e+03 2.40544951e+00
v 6.44001611e+03 5.61985427e+03 2.42895869e+00
v 6.45822559e+03 5.61012911e+03 2.21129347e+00
v 6.45712288e+03 5.61079163e+03 2.27256941e+00
v 6.45957048e+03 5.61124188e+03 2.26358099e+00
v 6.45979939e+03 5.60274376e+03 2.38584792e+00
v 6.45899294e+03 5.60208113e+03 2.35123639e+00
v 6.46068968e+03 5.60359337e+03 2.30916686e+00
v 6.46025772e+03 5.60892812e+03 2.22192786e+00
v 6.46063406e+03 5.60501694e+03 2.32770251e+00
v 6.45958006e+03 5.60427804e+03 2.26805029e+00
v 6.45847646e+03 5.60890042e+03 2.18845489e+00
v 6.45690928e+03 5.61299298e+03 2.27592177e+00
v 6.45603290e+03 5.61103585e+03 2.18298724e+00
v 6.45678418e+03 5.60435113e+03 2.31103961e+00
v 6.45704704e+03 5.60692692e+03 2.35223365e+00
v 6.45853455e+03 5.60482952e+03 2.37662096e+00
v 6.45800777e+03 5.60442330e+03 2.29683249e+00
v 6.45495336e+03 5.60518527e+03 2.32834090e+00
v 6.45554849e+03 5.60683753e+03 2.28466124e+00
v 6.45724843e+03 5.61971110e+03 2.29349009e+00
v 6.45955405e+03 5.62134881e+03 2.30391692e+00
v 6.45906245e+03 5.61797193e+03 2.27426839e+00
v 6.45789210e+03 5.62239857e+03 2.31646271e+00
v 6.45509687e+03 5.61414544e+03 2.23699517e+00
v 6.45576525e+03 5.61303070e+03 2.29708139e+00
v 6.45786562e+03 5.61656137e+03 2.23921566e+00
v 6.45725778e+03 5.61480653e+03 2.23229764e+00
v 6.45548550e+03 5.61906822e+03 2.34634002e+00
v 6.46002490e+03 5.61943492e+03 2.33090016e+00
v 6.46108837e+03 5.61476531e+03 2.25490780e+00
v 6.46024888e+03 5.61524968e+03 2.28910573e+00
v 6.46053467e+03 5.62385961e+03 2.29511844e+00
v 6.45890980e+03 5.62338836e+03 2.25187975e+00
v 6.45586265e+03 5.62443136e+03 2.32933081e+00
v 6.45607852e+03 5.62125907e+03 2.32048054e+00
v 6.45856617e+03 5.62467124e+03 2.31213594e+00
v 6.46015821e+03 5.61320861e+03 2.24904316e+00
v 6.45586705e+03 5.61676118e+03 2.28027457e+00
v 6.45835111e+03 5.61472562e+03 2.28722768e+00
v 6.46014070e+03 5.61434846e+03 2.18356413e+00
v 6.45621092e+03 5.61955038e+03 2.33610934e+00
v 6.46085469e+03 5.62165413e+03 2.24557934e+00
v 6.45895333e+03 5.61545964e+03 2.18740862e+00
v 6.44926196e+03 5.61265749e+03 2.28475004e+00
v 6.44688767e+03 5.61192160e+03 2.25482762e+00
v 6.45352456e+03 5.61903510e+03 2.32474094e+00
v 6.45230505e+03 5.61989775e+03 2.33353463e+00
v 6.44822354e+03 5.61382931e+03 2.34948832e+00
v 6.45649049e+03 5.60945841e+03 2.25177607e+00
v 6.45554249e+03 5.61187049e+03 2.31383932e+00
v 6.45500180e+03 5.61077386e+03 2.27416266e+00
v 6.44857574e+03 5.60889122e+03 2.37229995e+00
v 6.44970033e+03 5.60994475e+03 2.27636735e+00
v 6.45275389e+03 5.60174763e+03 2.45440340e+00
v 6.45296421e+03 5.60097948e+03 2.60654376e+00
v 6.45846653e+03 5.59650049e+03 2.48350005e+00
v 6.45377608e+03 5.59371630e+03 2.54265886e+00
v 6.45910236e+03 5.59751430e+03 2.38443268e+00
v 6.45828215e+03 5.59894208e+03 2.49451233e+00
v 6.45965411e+03 5.59764318e+03 2.44090006e+00
v 6.45512467e+03 5.60422740e+03 2.46188170e+00
v 6.43778687e+03 5.60987600e+03 2.36352963e+00
v 6.45635565e+03 5.60243649e+03 2.38427714e+00
v 6.45782634e+03 5.60126322e+03 2.51073423e+00
v 6.46036755e+03 5.60166993e+03 2.30853132e+00
v 6.46072335e+03 5.60069056e+03 2.32181884e+00
v 6.46148111e+03 5.60367903e+03 2.24271690e+00
v 6.45897084e+03 5.60986182e+03 2.28116678e+00
v 6.45935194e+03 5.61049276e+03 2.21835060e+00
v 6.46071467e+03 5.60622859e+03 2.26131294e+00
v 6.46075568e+03 5.59903462e+03 2.39280681e+00
v 6.46048926e+03 5.59691465e+03 2.37336564e+00
v 6.45645978e+03 5.59756741e+03 2.40370115e+00
v 6.45459150e+03 5.59964254e+03 2.48644581e+00
v 6.45962141e+03 5.60067931e+03 2.46662571e+00
v 6.45954390e+03 5.60167436e+03 2.40643925e+00
v 6.45383495e+03 5.59714764e+03 2.43707753e+00
v 6.46130850e+03 5.60161067e+03 2.32053464e+00
v 6.45883098e+03 5.60606956e+03 2.30703187e+00
v 6.44186748e+03 5.62194203e+03 2.44188608e+00
v 6.43938642e+03 5.62224370e+03 2.41600334e+00
v 6.43988383e+03 5.62278539e+03 2.45328142e+00
v 6.44005390e+03 5.61775615e+03 2.43544062e+00
v 6.43811029e+03 5.62011270e+03 2.46161288e+00
v 6.43850932e+03 5.61519706e+03 2.43377569e+00
v 6.43763256e+03 5.61764721e+03 2.44610990e+00
v 6.45258871e+03 5.61833335e+03 2.27281313e+00
v 6.45086007e+03 5.61589290e+03 2.33814152e+00
v 6.45018775e+03 5.61732873e+03 2.36400788e+00
v 6.45105347e+03 5.62019444e+03 2.29927513e+00
v 6.45480720e+03 5.61916684e+03 2.28726731e+00
v 6.45399490e+03 5.61694806e+03 2.24616561e+00
v 6.45402978e+03 5.62249180e+03 2.32169254e+00
v 6.44950904e+03 5.62181921e+03 2.35215143e+00
v 6.44769517e+03 5.61855228e+03 2.36595050e+00
v 6.45145172e+03 5.61790580e+03 2.37358777e+00
v 6.44500980e+03 5.61352335e+03 2.37317798e+00
v 6.44409214e+03 5.61571229e+03 2.42972528e+00
v 6.44738951e+03 5.61552607e+03 2.37003009e+00
v 6.44556972e+03 5.61857018e+03 2.41635818e+00
v 6.45142003e+03 5.62215818e+03 2.31228402e+00
v 6.44334437e+03 5.61936853e+03 2.41636823e+00
v 6.44653056e+03 5.62484854e+03 2.39764635e+00
v 6.45420662e+03 5.62367006e+03 2.28946658e+00
v 6.45021568e+03 5.62461902e+03 2.38995479e+00
v 6.44884167e+03 5.62300600e+03 2.35473816e+00
v 6.45306639e+03 5.62418805e+03 2.38741971e+00
v 6.44443837e+03 5.62460666e+03 2.41559296e+00
v 6.43787004e+03 5.60801327e+03 2.42759821e+00
v 6.43983250e+03 5.60791334e+03 2.45955174e+00
v 6.44211785e+03 5.60291291e+03 2.51881519e+00
v 6.44278864e+03 5.60210098e+03 2.68918206e+00
v 6.44826040e+03 5.59982700e+03 2.47610561e+00
v 6.44863265e+03 5.60216913e+03 2.43171953e+00
v 6.45372807e+03 5.60157900e+03 2.46281383e+00
v 6.44986658e+03 5.60063465e+03 2.47502349e+00
v 6.45076548e+03 5.59916741e+03 2.46976152e+00
v 6.45060013e+03 5.60037298e+03 2.57230015e+00
v 6.44888354e+03 5.59378359e+03 2.59763342e+00
v 6.44605903e+03 5.59596131e+03 2.48896430e+00
v 6.45545325e+03 5.60129734e+03 2.46236062e+00
v 6.45456661e+03 5.60240100e+03 2.38713345e+00
v 6.44745534e+03 5.60256576e+03 2.51024165e+00
v 6.44342583e+03 5.60318602e+03 2.47564546e+00
v 6.45043186e+03 5.60249955e+03 2.44268437e+00
v 6.45111777e+03 5.60141165e+03 2.45866051e+00
v 6.45029946e+03 5.60140385e+03 2.50710815e+00
v 6.45040529e+03 5.60322222e+03 2.48039453e+00
v 6.45008269e+03 5.60424872e+03 2.47301397e+00
v 6.45376479e+03 5.60288251e+03 2.51376317e+00
v 6.45256568e+03 5.60381809e+03 2.40967177e+00
v 6.44994751e+03 5.60829450e+03 2.37146763e+00
v 6.44934065e+03 5.60515420e+03 2.41046417e+00
v 6.45467034e+03 5.60331927e+03 2.41913001e+00
v 6.44375168e+03 5.60576353e+03 2.50962857e+00
v 6.44576519e+03 5.60892644e+03 2.36760975e+00
v 6.44596214e+03 5.60572738e+03 2.51635337e+00
v 6.43752042e+03 5.61116674e+03 2.46200872e+00
v 6.43925837e+03 5.60891651e+03 2.36029256e+00
v 6.44953192e+03 5.60861105e+03 2.42385878e+00
v 6.44620230e+03 5.60426306e+03 2.43609424e+00
v 6.44823720e+03 5.60479003e+03 2.33680568e+00
v 6.45274867e+03 5.61136857e+03 2.25229658e+00
v 6.45145128e+03 5.61165384e+03 2.33432911e+00
v 6.45362466e+03 5.61110757e+03 2.15952051e+00
v 6.44178948e+03 5.61077620e+03 2.33199548e+00
v 6.44325633e+03 5.60908820e+03 2.33379679e+00
v 6.44377657e+03 5.61151417e+03 2.37524606e+00
v 6.44656590e+03 5.61052334e+03 2.31216780e+00
v 6.44428915e+03 5.61028238e+03 2.33670596e+00
v 6.43878795e+03 5.61265148e+03 2.39295470e+00
v 6.44069766e+03 5.61405250e+03 2.41590042e+00
v 6.44013674e+03 5.61056035e+03 2.35877226e+00
v 6.44700640e+03 5.60902257e+03 2.41338427e+00
v 6.44747303e+03 5.61068449e+03 2.26007388e+00
v 6.44822368e+03 5.61031661e+03 2.31818204e+00
v 6.44555280e+03 5.61180402e+03 2.32153872e+00
v 6.44478514e+03 5.61196024e+03 2.27273199e+00
v 6.45326618e+03 5.61003085e+03 2.24440879e+00
v 6.45356799e+03 5.61308298e+03 2.32246708e+00
v 6.45452045e+03 5.61189696e+03 2.23546068e+00
v 6.45452007e+03 5.61327397e+03 2.32376412e+00
v 6.45345607e+03 5.61192280e+03 2.33669537e+00
v 6.45220632e+03 5.61261647e+03 2.30814144e+00
v 6.45049298e+03 5.61228212e+03 2.21783603e+00
v 6.45145209e+03 5.61066093e+03 2.33619460e+00
v 6.45178436e+03 5.61002044e+03 2.38373954e+00
v 6.45035809e+03 5.60538495e+03 2.32546009e+00
v 6.43987186e+03 5.60541139e+03 2.43121032e+00
v 6.44129287e+03 5.60513233e+03 2.46328830e+00
v 6.44725701e+03 5.60418455e+03 2.44376914e+00
v 6.45217302e+03 5.61434740e+03 2.28288433e+00
v 6.45073497e+03 5.61301636e+03 2.27216447e+00
v 6.44246887e+03 5.60882480e+03 2.39921461e+00
v 6.44470045e+03 5.60823418e+03 2.33096788e+00
v 6.44208609e+03 5.60422362e+03 2.40482906e+00
v 6.44780852e+03 5.60630944e+03 2.38326769e+00
v 6.44755026e+03 5.60754052e+03 2.31294549e+00
v 6.44762527e+03 5.60368462e+03 2.35490142e+00
v 6.45348796e+03 5.60549976e+03 2.36936501e+00
v 6.45144052e+03 5.60859425e+03 2.28884711e+00
v 6.45533582e+03 5.60922907e+03 2.30755585e+00
v 6.44902081e+03 5.61104587e+03 2.32500116e+00
v 6.44940589e+03 5.61141973e+03 2.24843670e+00
v 6.45056913e+03 5.61115674e+03 2.35359454e+00
v 6.44916883e+03 5.61367551e+03 2.25382896e+00
v 6.45277182e+03 5.61691083e+03 2.31099553e+00
v 6.44787993e+03 5.62392438e+03 2.33220698e+00
v 6.44698961e+03 5.62159161e+03 2.38079889e+00
v 6.44313258e+03 5.61740848e+03 2.37952077e+00
v 6.43768839e+03 5.62455124e+03 2.39481399e+00
v 6.44309077e+03 5.61387749e+03 2.40572013e+00
v 6.44156226e+03 5.62502491e+03 2.40567416e+00
v 6.44331804e+03 5.62370638e+03 2.39004359e+00
v 6.44550743e+03 5.62253355e+03 2.44891194e+00
v 6.43769727e+03 5.62135034e+03 2.42553779e+00
v 6.44260045e+03 5.61246347e+03 2.32928811e+00
v 6.44087804e+03 5.61195052e+03 2.42602345e+00
v 6.45353636e+03 5.60814791e+03 2.29114897e+00
v 6.45237065e+03 5.60878231e+03 2.31682011e+00
v 6.45430889e+03 5.61538713e+03 2.25525313e+00
v 6.44115573e+03 5.60783880e+03 2.41728052e+00
v 6.44146803e+03 5.61740940e+03 2.37440761e+00
v 6.44213836e+03 5.61630225e+03 2.45293559e+00
v 6.44526298e+03 5.62332224e+03 2.37641226e+00
v 6.45197353e+03 5.60192167e+03 2.41993688e+00
v 6.45234253e+03 5.60097944e+03 2.47901764e+00
v 6.45153735e+03 5.60367561e+03 2.31770523e+00
v 6.45215594e+03 5.60696807e+03 2.36940003e+00
v 6.44124173e+03 5.60319726e+03 2.45231647e+00
v 6.43971241e+03 5.60343826e+03 2.51714271e+00
v 6.43789389e+03 5.60378577e+03 2.45294620e+00
v 6.44234098e+03 5.60163130e+03 2.60005270e+00
v 6.43985567e+03 5.60001991e+03 2.61353364e+00
v 6.43993122e+03 5.60185291e+03 2.56261824e+00
v 6.44109422e+03 5.60068168e+03 2.59905860e+00
v 6.43868544e+03 5.60236471e+03 2.55442328e+00
v 6.43745880e+03 5.60241675e+03 2.46956848e+00
v 6.45128997e+03 5.60206872e+03 2.51694145e+00
v 6.44723959e+03 5.60095367e+03 2.56666147e+00
v 6.44564846e+03 5.60160346e+03 2.42565123e+00
v 6.44169195e+03 5.60035421e+03 2.55913087e+00
v 6.44421437e+03 5.60197075e+03 2.56092953e+00
v 6.44500226e+03 5.60369478e+03 2.40444344e+00
v 6.45732990e+03 5.59767710e+03 2.45994458e+00
v 6.44476727e+03 5.59990624e+03 2.55369953e+00
v 6.44542470e+03 5.59904579e+03 2.45356796e+00
v 6.44756242e+03 5.59634323e+03 2.62395866e+00
v 6.44777191e+03 5.59736516e+03 2.44104380e+00
v 6.44859375e+03 5.59726535e+03 2.47788949e+00
v 6.45822876e+03 5.59480873e+03 2.42760852e+00
v 6.45676412e+03 5.59877506e+03 2.45499171e+00
v 6.46072034e+03 5.59374902e+03 2.46995831e+00
v 6.45170604e+03 5.59434427e+03 2.51954810e+00
v 6.45025940e+03 5.59683571e+03 2.46494567e+00
v 6.43839314e+03 5.59730408e+03 2.55622119e+00
v 6.43948641e+03 5.61357311e+03 2.43735347e+00
v 6.43865715e+03 5.60107743e+03 2.68364927e+00
v 6.44599068e+03 5.60040585e+03 2.46776648e+00
v 6.44691118e+03 5.59866275e+03 2.48734907e+00
v 6.44148872e+03 5.59751086e+03 2.49709676e+00
v 6.44220729e+03 5.59974184e+03 2.56656587e+00
v 6.43766542e+03 5.60094594e+03 2.58861375e+00
v 6.45195154e+03 5.60468085e+03 2.28061828e+00
v 6.45162304e+03 5.59721969e+03 2.46961455e+00
v 6.45227647e+03 5.59981021e+03 2.43185025e+00
v 6.45668150e+03 5.60076360e+03 2.53665737e+00
v 6.45566349e+03 5.60033962e+03 2.42359102e+00
v 6.45361685e+03 5.60402592e+03 2.36523332e+00
v 6.43821557e+03 5.60171403e+03 2.73451781e+00
v 6.45411970e+03 5.59854205e+03 2.50314798e+00
v 6.45878199e+03 5.60109877e+03 2.56141717e+00
v 6.44409933e+03 5.60128857e+03 2.52516842e+00
v 6.44004677e+03 5.59639863e+03 2.58329491e+00
v 6.44237950e+03 5.59712836e+03 2.53761234e+00
v 6.44180777e+03 5.59407035e+03 2.58490120e+00
v 6.43916671e+03 5.59385219e+03 2.55272235e+00
v 6.45943411e+03 5.61469642e+03 2.27305125e+00
v 6.44694996e+03 5.59661080e+03 2.53343978e+00
v 6.43810476e+03 5.60563230e+03 2.50331415e+00
v 6.44398034e+03 5.59641626e+03 2.57242958e+00
v 6.44450133e+03 5.59773571e+03 2.49286952e+00
v 6.44106697e+03 5.60189383e+03 2.60758888e+00
v 6.45936968e+03 5.60720280e+03 2.31816638e+00
v 6.43743750e+03 5.61146404e+03 2.46919916e+00
v 6.43743750e+03 5.61121904e+03 2.45978220e+00
v 6.43743750e+03 5.61755309e+03 2.45025527e+00
v 6.43743750e+03 5.61591677e+03 2.45384221e+00
v 6.43743750e+03 5.60346449e+03 2.52240646e+00
v 6.43743750e+03 5.60376016e+03 2.48520647e+00
v 6.43743750e+03 5.59468403e+03 2.62040724e+00
v 6.43743750e+03 5.59513316e+03 2.63024022e+00
v 6.43743750e+03 5.60515425e+03 2.48479193e+00
v 6.43743750e+03 5.60587541e+03 2.51685393e+00
v 6.43743750e+03 5.60243544e+03 2.47438265e+00
v 6.43743750e+03 5.60118595e+03 2.54912088e+00
v 6.43743750e+03 5.60166456e+03 2.56708629e+00
v 6.43743750e+03 5.60402813e+03 2.45522538e+00
v 6.43743750e+03 5.60772276e+03 2.45208587e+00
v 6.43743750e+03 5.59923879e+03 2.64907188e+00
v 6.43743750e+03 5.59983235e+03 2.61994143e+00
v 6.43743750e+03 5.59693433e+03 2.48160512e+00
v 6.43743750e+03 5.59871460e+03 2.63044470e+00
v 6.43743750e+03 5.59569196e+03 2.61164266e+00
v 6.43743750e+03 5.60242638e+03 2.47272946e+00
v 6.43743750e+03 5.60076087e+03 2.59978401e+00
v 6.43743750e+03 5.60237985e+03 2.46981847e+00
v 6.43743750e+03 5.60241098e+03 2.46988706e+00
v 6.43743750e+03 5.60964714e+03 2.37029930e+00
v 6.43743750e+03 5.60807759e+03 2.42406961e+00
v 6.43743750e+03 5.61111081e+03 2.45916747e+00
v 6.43743750e+03 5.61463083e+03 2.44877776e+00
v 6.43743750e+03 5.62102724e+03 2.43152226e+00
v 6.43743750e+03 5.62147482e+03 2.42681760e+00
v 6.43743750e+03 5.61794636e+03 2.44775016e+00
v 6.43743750e+03 5.61316811e+03 2.48074901e+00
v 6.43743750e+03 5.62459232e+03 2.40630247e+00
v 6.43743750e+03 5.62418728e+03 2.40071037e+00
v 6.43743750e+03 5.61397716e+03 2.48828131e+00
v 6.43743750e+03 5.60999316e+03 2.37737604e+00
v 6.46881250e+03 5.61472279e+03 2.21923696e+00
v 6.46881250e+03 5.61493187e+03 2.21516518e+00
v 6.46881250e+03 5.59754245e+03 2.43585338e+00
v 6.46881250e+03 5.59847318e+03 2.38572201e+00
v 6.46881250e+03 5.59605096e+03 2.35233726e+00
v 6.46881250e+03 5.59733067e+03 2.43293306e+00
v 6.46881250e+03 5.62082016e+03 2.23768687e+00
v 6.46881250e+03 5.62060087e+03 2.23828491e+00
v 6.46881250e+03 5.59468552e+03 2.34300582e+00
v 6.46881250e+03 5.60101593e+03 2.36001595e+00
v 6.46881250e+03 5.60161191e+03 2.35044324e+00
v 6.46881250e+03 5.60211313e+03 2.37742490e+00
v 6.46881250e+03 5.60255807e+03 2.34714480e+00
v 6.46881250e+03 5.59583338e+03 2.36560976e+00
v 6.46881250e+03 5.59474650e+03 2.34155183e+00
v 6.46881250e+03 5.60677765e+03 2.26606376e+00
v 6.46881250e+03 5.60694005e+03 2.27477031e+00
v 6.46881250e+03 5.60010248e+03 2.39959372e+00
v 6.46881250e+03 5.60002226e+03 2.38982128e+00
v 6.46881250e+03 5.60840361e+03 2.19975184e+00
v 6.46881250e+03 5.60719665e+03 2.26279124e+00
v 6.46881250e+03 5.61071688e+03 2.21329857e+00
v 6.46881250e+03 5.61151063e+03 2.19716259e+00
v 6.46881250e+03 5.61658855e+03 2.22528444e+00
v 6.46881250e+03 5.61749134e+03 2.22419646e+00
v 6.46881250e+03 5.61859192e+03 2.20132102e+00
v 6.46881250e+03 5.62047472e+03 2.23437273e+00
v 6.46881250e+03 5.61450007e+03 2.20854693e+00
v 6.46881250e+03 5.61415250e+03 2.21458605e+00
v 6.46881250e+03 5.61776061e+03 2.22168498e+00
v 6.46881250e+03 5.62351304e+03 2.29257612e+00
v 6.46881250e+03 5.62303345e+03 2.29126242e+00
v 6.46881250e+03 5.62131193e+03 2.25301279e+00
v 6.46881250e+03 5.60029812e+03 2.39379219e+00
v 6.46881250e+03 5.60611223e+03 2.23659112e+00
v 6.46881250e+03 5.60590828e+03 2.22560004e+00
v 6.46881250e+03 5.61260548e+03 2.21966019e+00
v 6.46881250e+03 5.60585561e+03 2.23074684e+00
v 6.46881250e+03 5.61022204e+03 2.20903966e+00
v 6.46881250e+03 5.60489654e+03 2.30675621e+00
v 6.46881250e+03 5.60438827e+03 2.29291159e+00
v 6.46881250e+03 5.59473726e+03 2.34108160e+00
v 6.46881250e+03 5.59740833e+03 2.43347403e+00
v 6.46881250e+03 5.60076498e+03 2.37157554e+00
v 6.46881250e+03 5.60096466e+03 2.36836211e+00
v 6.46881250e+03 5.60323194e+03 2.25295868e+00
v 6.46881250e+03 5.60367005e+03 2.26881380e+00
v 6.46881250e+03 5.59979402e+03 2.38790092e+00
v 6.44584900e+03 5.59368750e+03 2.59882217e+00
v 6.44604937e+03 5.59368750e+03 2.59868074e+00
v 6.45405115e+03 5.59368750e+03 2.54361476e+00
v 6.45377079e+03 5.59368750e+03 2.54316009e+00
v 6.46070427e+03 5.59368750e+03 2.47151145e+00
v 6.46062028e+03 5.59368750e+03 2.46798374e+00
v 6.45886436e+03 5.59368750e+03 2.44847259e+00
v 6.45137767e+03 5.59368750e+03 2.53808594e+00
v 6.44893480e+03 5.59368750e+03 2.59791348e+00
v 6.45373299e+03 5.59368750e+03 2.54340682e+00
v 6.45864028e+03 5.59368750e+03 2.43211365e+00
v 6.45702664e+03 5.59368750e+03 2.52786894e+00
v 6.43913125e+03 5.59368750e+03 2.55733982e+00
v 6.44583978e+03 5.59368750e+03 2.59868960e+00
v 6.44577259e+03 5.59368750e+03 2.59850956e+00
v 6.43926633e+03 5.59368750e+03 2.56174820e+00
v 6.44156673e+03 5.59368750e+03 2.59836110e+00
v 6.44877206e+03 5.59368750e+03 2.59587429e+00
v 6.46081120e+03 5.59368750e+03 2.46819603e+00
v 6.45688394e+03 5.59368750e+03 2.54662668e+00
v 6.44584517e+03 5.59368750e+03 2.59842209e+00
v 6.44883244e+03 5.59368750e+03 2.59917045e+00
v 6.46176764e+03 5.59368750e+03 2.44421795e+00
v 6.46245507e+03 5.59368750e+03 2.44079958e+00
v 6.46744480e+03 5.59368750e+03 2.48252501e+00
v 6.46710444e+03 5.59368750e+03 2.46420064e+00
v 6.46485624e+03 5.59368750e+03 2.47282425e+00
v 6.46344094e+03 5.59368750e+03 2.44708234e+00
v 6.46823933e+03 5.59368750e+03 2.35098634e+00
v 6.46548494e+03 5.59368750e+03 2.56676535e+00
v 6.46501677e+03 5.59368750e+03 2.46221331e+00
v 6.46567353e+03 5.59368750e+03 2.58881149e+00
v 6.46779088e+03 5.59368750e+03 2.42271455e+00
v 6.46638557e+03 5.59368750e+03 2.50376953e+00
v 6.46618324e+03 5.59368750e+03 2.51541152e+00
v 6.43895093e+03 5.59368750e+03 2.56639306e+00
v 6.43743750e+03 5.59368750e+03 2.63979806e+00
v 6.46824725e+03 5.59368750e+03 2.35131096e+00
v 6.46881250e+03 5.59368750e+03 2.37446220e+00
v 6.43774366e+03 5.62506250e+03 2.39270704e+00
v 6.43756958e+03 5.62506250e+03 2.40178990e+00
v 6.44153138e+03 5.62506250e+03 2.40536974e+00
v 6.44158828e+03 5.62506250e+03 2.40417376e+00
v 6.43875723e+03 5.62506250e+03 2.42212445e+00
v 6.43878613e+03 5.62506250e+03 2.42276445e+00
v 6.44698813e+03 5.62506250e+03 2.39033586e+00
v 6.44861352e+03 5.62506250e+03 2.34292176e+00
v 6.44995478e+03 5.62506250e+03 2.37930056e+00
v 6.44915108e+03 5.62506250e+03 2.35370868e+00
v 6.45807995e+03 5.62506250e+03 2.30318861e+00
v 6.45598842e+03 5.62506250e+03 2.31134774e+00
v 6.43947875e+03 5.62506250e+03 2.41851082e+00
v 6.43878949e+03 5.62506250e+03 2.42296156e+00
v 6.44656523e+03 5.62506250e+03 2.39610212e+00
v 6.45339608e+03 5.62506250e+03 2.36443986e+00
v 6.45532595e+03 5.62506250e+03 2.32755176e+00
v 6.45127755e+03 5.62506250e+03 2.35298755e+00
v 6.45064227e+03 5.62506250e+03 2.37807559e+00
v 6.44423729e+03 5.62506250e+03 2.41291637e+00
v 6.44478629e+03 5.62506250e+03 2.39837260e+00
v 6.44403953e+03 5.62506250e+03 2.39892725e+00
v 6.45254803e+03 5.62506250e+03 2.34040307e+00
v 6.44637048e+03 5.62506250e+03 2.39105684e+00
v 6.45847947e+03 5.62506250e+03 2.31040684e+00
v 6.45872383e+03 5.62506250e+03 2.29076734e+00
v 6.46099380e+03 5.62506250e+03 2.28215664e+00
v 6.46053543e+03 5.62506250e+03 2.29892053e+00
v 6.46116099e+03 5.62506250e+03 2.29574475e+00
v 6.45884347e+03 5.62506250e+03 2.31133911e+00
v 6.46180015e+03 5.62506250e+03 2.27744758e+00
v 6.46514477e+03 5.62506250e+03 2.21891295e+00
v 6.46488582e+03 5.62506250e+03 2.21067500e+00
v 6.46458694e+03 5.62506250e+03 2.22377027e+00
v 6.46782887e+03 5.62506250e+03 2.27424212e+00
v 6.46693316e+03 5.62506250e+03 2.27251471e+00
v 6.46738159e+03 5.62506250e+03 2.27787760e+00
v 6.46234056e+03 5.62506250e+03 2.26284289e+00
v 6.43764277e+03 5.62506250e+03 2.39797139e+00
v 6.43743750e+03 5.62506250e+03 2.40777045e+00
v 6.46880728e+03 5.62506250e+03 2.22716619e+00
v 6.46881250e+03 5.62506250e+03 2.22708329e+00
vt 0.023347097 0.40479147
vt 0.077052064 0.39806163
vt 0.11609539 0.4718225
vt 0.07587973 0.47410041
vt 0.016921496 0.34867501
vt 0.12023567 0.38956589
vt 0.058443051 0.50459599
vt 0.016238868 0.47715735
vt 0.072184637 0.33809429
vt 0.003063675 0.39026952
vt 0.19496854 0.40872395
vt 0.15601425 0.50177646
vt 0.0030700499 0.41218621
vt 0.04096185 0.30547661
vt 0.0030532582 0.35604519
vt 0.11866266 0.33075607
vt 0.14433539 0.36194175
vt 0.085154556 0.55454654
vt 0.013730954 0.53377092
vt 0.0030896957 0.46833187
vt 0.0036844593 0.30707186
vt 0.078817993 0.28990972
vt 0.0030499436 0.34790057
vt 0.18504076 0.33039248
vt 0.17995073 0.5097751
vt 0.13538703 0.56109083
vt 0.005643303 0.57299972
vt 0.0031104842 0.52681899
vt 0.003093821 0.47911632
vt 0.0030461934 0.33891398
vt 0.026671195 0.28570265
vt 0.040086307 0.26635164
vt 0.1133352 0.29114139
vt 0.14528513 0.32210451
vt 0.23295823 0.34584063
vt 0.2238318 0.4838056
vt 0.1076961 0.59678781
vt 0.044182073 0.6181125
vt 0.003122885 0.57130098
vt 0.0031137303 0.53733492
vt 0.0030371484 0.30764014
vt 0.0030274678 0.28420997
vt 0.076502994 0.23420137
vt 0.15205204 0.2831502
vt 0.11415138 0.25430179
vt 0.26214796 0.40760356
vt 0.20899208 0.29344898
vt 0.16566007 0.29741859
vt 0.25619724 0.50483346
vt 0.19578472 0.58349884
vt 0.16005066 0.61236215
vt 0.10223508 0.66067284
vt 0.0031261356 0.5820359
vt 0.0031239365 0.57459009
vt 0.0030370967 0.30736476
vt 0.0030367044 0.30595058
vt 0.0030231623 0.26966435
vt 0.0099468241 0.26236719
vt 0.032028336 0.15167767
vt 0.1323152 0.24434435
vt 0.26943427 0.36309922
vt 0.25257635 0.28227466
vt 0.21135159 0.54605818
vt 0.065417722 0.64611506
vt 0.0031426481 0.63382566
vt 0.0030370092 0.30689669
vt 0.0030017395 0.2104848
vt 0.082275651 0.12414253
vt 0.14797112 0.22572792
vt 0.2054899 0.27271789
vt 0.31043643 0.46269608
vt 0.33128625 0.37909645
vt 0.28054923 0.55335939
vt 0.17496458 0.65533054
vt 0.035738267 0.69547939
vt 0.0030178344 0.25674438
vt 0.0030082399 0.2285248
vt 0.0029970007 0.19455403
vt 0.0029617525 0.085707366
vt 0.31827182 0.42527771
vt 0.29391983 0.50774205
vt 0.30749819 0.3115015
vt 0.3014881 0.36070263
vt 0.22577581 0.23069918
vt 0.23328471 0.64454949
vt 0.24977164 0.59229136
vt 0.14604196 0.72903204
vt 0.082706004 0.77323961
vt 0.0031504417 0.65841401
vt 0.0029828371 0.14045119
vt 0.0029676727 0.10269082
vt 0.0029575536 0.072057843
vt 0.12611221 0.15793258
vt 0.3832995 0.48558635
vt 0.34161469 0.5037353
vt 0.30092418 0.26250815
vt 0.36482403 0.39015204
vt 0.31267723 0.34550673
vt 0.26296416 0.2458728
vt 0.30812144 0.55824906
vt 0.2054157 0.71108341
vt 0.22644359 0.59704751
vt 0.29034346 0.59585291
vt 0.12568185 0.76268852
vt 0.17627047 0.76264405
vt 0.0091157993 0.7699526
vt 0.0031577677 0.67828095
vt 0.055504784 0.046760798
vt 0.21767332 0.16473663
vt 0.15317987 0.14629823
vt 0.33093011 0.54705989
vt 0.33193919 0.22825807
vt 0.38736558 0.36262435
vt 0.24575007 0.20454419
vt 0.30562836 0.70539236
vt 0.08157818 0.83700591
vt 0.02365873 0.84487838
vt 0.0031864988 0.76709384
vt 0.003170311 0.71736282
vt 0.048944738 0.041757464
vt 0.13577287 0.053364456
vt 0.37067088 0.49520987
vt 0.39575002 0.39715642
vt 0.37580544 0.53574461
vt 0.29092219 0.1928876
vt 0.34327677 0.29943681
vt 0.3309598 0.65381694
vt 0.25035039 0.79792547
vt 0.011119163 0.88249707
vt 0.0031904264 0.77904594
vt 0.002947307 0.041771054
vt 0.054425184 0.041755855
vt 0.05853064 0.041754425
vt 0.20182449 0.12463969
vt 0.29207969 0.13052362
vt 0.45040473 0.44525194
vt 0.35516337 0.56921566
vt 0.34204507 0.15040141
vt 0.38076189 0.25278813
vt 0.39715981 0.33142382
vt 0.44417205 0.37574267
vt 0.41110915 0.71650732
vt 0.31494772 0.79736155
vt 0.18272576 0.82221067
vt 0.36250904 0.6181941
vt 0.18328966 0.86281961
vt 0.062464613 0.90963149
vt 0.0032211184 0.87268013
vt 0.12844305 0.041731119
vt 0.26499721 0.11079419
vt 0.25830913 0.041688979
vt 0.43914139 0.53802252
vt 0.42867938 0.49468309
vt 0.40222016 0.57256937
vt 0.39266336 0.13732761
vt 0.3170698 0.15344357
vt 0.39392474 0.27616072
vt 0.40806699 0.20818734
vt 0.39796114 0.30946106
vt 0.43157312 0.34519511
vt 0.39068967 0.76015097
vt 0.3596895 0.64913499
vt 0.29353398 0.88973886
vt 0.13786526 0.90043831
vt 0.010881727 0.97977889
vt 0.0032256301 0.88628298
vt 0.25626698 0.041689634
vt 0.3106887 0.12238401
vt 0.42905039 0.55749226
vt 0.49087268 0.40061408
vt 0.45694906 0.50038898
vt 0.36687192 0.58057547
vt 0.35081533 0.044579327
vt 0.40305117 0.24482661
vt 0.4628256 0.34951347
vt 0.42910972 0.7776767
vt 0.4072805 0.62908649
vt 0.41703019 0.84723788
vt 0.370107 0.8966319
vt 0.2160261 0.98139644
vt 0.077586293 0.92608875
vt 0.043370109 0.99530613
vt 0.2584728 0.041688919
vt 0.25858912 0.041688859
vt 0.4684647 0.5789876
vt 0.53540671 0.39104241
vt 0.4923715 0.48109734
vt 0.42903554 0.58766878
vt 0.43660378 0.061593115
vt 0.43411073 0.14898425
vt 0.41879612 0.27639073
vt 0.42403454 0.29635757
vt 0.44481015 0.29188341
vt 0.46367145 0.79066145
vt 0.45099834 0.66952479
vt 0.24849543 0.91837955
vt 0.3498359 0.93270731
vt 0.39991999 0.60677493
vt 0.18196893 0.95404685
vt 0.12862012 0.99413633
vt 0.044248298 0.99530584
vt 0.0032529186 0.96872008
vt 0.01256648 0.99531662
vt 0.48417994 0.53832674
vt 0.49477553 0.35582036
vt 0.42661694 0.041635513
vt 0.50133467 0.1467731
vt 0.45399594 0.227709
vt 0.46852404 0.28658563
vt 0.45506442 0.8382079
vt 0.4692215 0.74742591
vt 0.4519926 0.61691791
vt 0.42818967 0.90691584
vt 0.27961433 0.98872727
vt 0.32061648 0.96062821
vt 0.39160976 0.9817155
vt 0.24107556 0.94235313
vt 0.065298319 0.9952991
vt 0.044350322 0.99530578
vt 0.0032567794 0.98102987
vt 0.0095000062 0.99531752
vt 0.26467878 0.041686893
vt 0.49508715 0.57104832
vt 0.52678484 0.33433241
vt 0.55351114 0.44125265
vt 0.49925712 0.32106572
vt 0.53693521 0.56089056
vt 0.35237244 0.041658461
vt 0.49950939 0.042486966
vt 0.45601416 0.26324272
vt 0.49211922 0.8119787
vt 0.49338058 0.63108242
vt 0.50639504 0.74854624
vt 0.34292269 0.99521041
vt 0.38368529 0.99519652
vt 0.12941143 0.99527854
vt 0.12768182 0.99527907
vt 0.0072757243 0.99531817
vt 0.3474265 0.04166013
vt 0.48996747 0.59582329
vt 0.5406006 0.36192691
vt 0.59104085 0.3656739
vt 0.54707074 0.51393759
vt 0.34926131 0.041659474
vt 0.49819946 0.041612208
vt 0.58111304 0.15950561
vt 0.51000106 0.18914795
vt 0.47490513 0.26323527
vt 0.49812931 0.28145105
vt 0.50750798 0.91702914
vt 0.53110319 0.8159706
vt 0.53985864 0.66335881
vt 0.51592213 0.70110369
vt 0.47824407 0.96858972
vt 0.2935231 0.99522555
vt 0.35925981 0.99520493
vt 0.40457922 0.99518979
vt 0.20390952 0.99525446
vt 0.22660471 0.99524713
vt 0.0032613743 0.99531937
vt 0.52231807 0.59502935
vt 0.52362394 0.30642635
vt 0.57799673 0.30748737
vt 0.59905428 0.44395351
vt 0.58216667 0.52089751
vt 0.5682767 0.56884462
vt 0.49934837 0.04161185
vt 0.52435112 0.22258931
vt 0.60755742 0.1628297
vt 0.52231807 0.63687736
vt 0.56329054 0.7428478
vt 0.42388716 0.995184
vt 0.28067023 0.99522966
vt 0.20991947 0.99525225
vt 0.27475145 0.99523163
vt 0.55337763 0.59421313
vt 0.65326381 0.41788006
vt 0.50786901 0.041609049
vt 0.59037304 0.19620425
vt 0.64208949 0.12705857
vt 0.55055803 0.2728737
vt 0.51289481 0.95283741
vt 0.56976068 0.87954396
vt 0.56015939 0.62947232
vt 0.46249956 0.99517167
vt 0.65814608 0.29666179
vt 0.64251983 0.50392079
vt 0.6282292 0.36785537
vt 0.60139894 0.56140995
vt 0.59492886 0.62831485
vt 0.55693913 0.24376559
vt 0.63650978 0.20126462
vt 0.66142565 0.15786582
vt 0.56323117 0.97595769
vt 0.57376736 0.82761234
vt 0.55171555 0.81296551
vt 0.60553926 0.6834296
vt 0.48827296 0.9951629
vt 0.58787996 0.25663906
vt 0.62267911 0.27181268
vt 0.64424127 0.3801946
vt 0.66964686 0.45231569
vt 0.59396243 0.041581094
vt 0.67819452 0.16177607
vt 0.6053018 0.83248723
vt 0.62489027 0.91415763
vt 0.62402952 0.73675609
vt 0.65172046 0.26680428
vt 0.67601311 0.36342573
vt 0.63490707 0.54126501
vt 0.69665515 0.50474441
vt 0.69699645 0.59177196
vt 0.59829974 0.041580021
vt 0.70357049 0.13962781
vt 0.54692614 0.99514455
vt 0.64539874 0.98322171
vt 0.63876539 0.68095875
vt 0.67488527 0.28429288
vt 0.70972896 0.34260559
vt 0.65755248 0.53313279
vt 0.67579049 0.5750699
vt 0.7080521 0.38587081
vt 0.70236844 0.54044878
vt 0.6348477 0.075646341
vt 0.67722994 0.25404948
vt 0.71055996 0.043414414
vt 0.7116878 0.20405447
vt 0.56706011 0.99513835
vt 0.67538983 0.88223737
vt 0.6558311 0.94423032
vt 0.6306259 0.99511784
vt 0.66041654 0.77961326
vt 0.65707761 0.70326287
vt 0.68266129 0.31679189
vt 0.66914231 0.55230576
vt 0.71051544 0.42269558
vt 0.76156414 0.5185973
vt 0.69367236 0.63483691
vt 0.64734358 0.041565895
vt 0.65415347 0.041563392
vt 0.7423467 0.091970026
vt 0.70751846 0.041545689
vt 0.74405324 0.20041132
vt 0.70521766 0.95853585
vt 0.64276785 0.99511379
vt 0.67167991 0.68006098
vt 0.69991988 0.28415191
vt 0.71072322 0.25438339
vt 0.72851604 0.28234142
vt 0.74301445 0.37161726
vt 0.73497134 0.40137833
vt 0.77637416 0.54854387
vt 0.75122082 0.45823669
vt 0.73955679 0.63691443
vt 0.71332085 0.041543841
vt 0.7521112 0.16199124
vt 0.71007103 0.041544795
vt 0.73908192 0.22565371
vt 0.68968052 0.82406569
vt 0.70525247 0.9950937
vt 0.65019476 0.99511176
vt 0.71946383 0.73145092
vt 0.69644743 0.69686693
vt 0.74338543 0.29880613
vt 0.73378414 0.34520251
vt 0.79820341 0.52942288
vt 0.7903977 0.48648417
vt 0.76419073 0.59775984
vt 0.72195691 0.6821385
vt 0.69315296 0.6694802
vt 0.74238938 0.041534841
vt 0.80384248 0.079786599
vt 0.79148102 0.2127654
vt 0.71492285 0.89150476
vt 0.7348823 0.83582616
vt 0.65383041 0.99511015
vt 0.7191835 0.99508953
vt 0.74154532 0.27055871
vt 0.75881875 0.32151091
vt 0.78691036 0.397609
vt 0.85318458 0.44590491
vt 0.76257324 0.69159883
vt 0.84586859 0.098952115
vt 0.76062924 0.25913209
vt 0.74216861 0.8944208
vt 0.72403443 0.75785822
vt 0.72426432 0.99508762
vt 0.83145922 0.50038153
vt 0.81105459 0.59430957
vt 0.8403334 0.6399492
vt 0.76328164 0.041528165
vt 0.83901268 0.065199137
vt 0.84088248 0.24854398
vt 0.74917293 0.97447371
vt 0.78526318 0.74784881
vt 0.75473785 0.78882134
vt 0.83086562 0.36840445
vt 0.82032943 0.39162862
vt 0.89765924 0.57161963
vt 0.91221702 0.49938726
vt 0.80421352 0.69593203
vt 0.79324406 0.041518331
vt 0.86253363 0.072641253
vt 0.8362571 0.041503847
vt 0.88302726 0.16689581
vt 0.79433024 0.8863554
vt 0.78861696 0.92660815
vt 0.74369007 0.99508166
vt 0.91365647 0.44148266
vt 0.88470417 0.70215726
vt 0.86284524 0.045024514
vt 0.86449248 0.087644219
vt 0.84113616 0.041502476
vt 0.85690933 0.11192948
vt 0.90742379 0.22567594
vt 0.84193605 0.9810403
vt 0.81748021 0.77226758
vt 0.80473286 0.84737146
vt 0.76011437 0.9950766
vt 0.87977737 0.32075405
vt 0.9566685 0.55902386
vt 0.94385535 0.67886639
vt 0.90539074 0.3993898
vt 0.95662999 0.44423807
vt 0.85683519 0.78583109
vt 0.8747912 0.65981215
vt 0.88142461 0.045566201
vt 0.85536242 0.041495919
vt 0.89596754 0.066965103
vt 0.88462996 0.14110434
vt 0.91723287 0.1779291
vt 0.92462301 0.26827341
vt 0.82838702 0.9950552
vt 0.88614362 0.88193315
vt 0.95666373 0.54398495
vt 0.94677877 0.60460091
vt 0.95662856 0.43930244
vt 0.95663273 0.45203662
vt 0.88635141 0.76127875
vt 0.86109346 0.041493654
vt 0.91039175 0.087881684
vt 0.87922829 0.11321306
vt 0.90445584 0.14778966
vt 0.92457849 0.20757151
vt 0.90135437 0.16650254
vt 0.93961114 0.25646836
vt 0.83747095 0.99505246
vt 0.94266814 0.30889714
vt 0.93671739 0.37229246
vt 0.95664608 0.48871952
vt 0.95667672 0.58314764
vt 0.95498514 0.41301268
vt 0.93415016 0.80231804
vt 0.87658614 0.041490018
vt 0.91653538 0.049105465
vt 0.91371584 0.11411834
vt 0.92868912 0.16584957
vt 0.92877817 0.22686315
vt 0.95154232 0.28520548
vt 0.91795999 0.96982145
vt 0.84534067 0.99504977
vt 0.95668697 0.61642176
vt 0.95662266 0.4190796
vt 0.95672607 0.7374745
vt 0.95673496 0.76491201
vt 0.88273555 0.04148823
vt 0.90458411 0.041481853
vt 0.93173128 0.079356253
vt 0.9565593 0.2339915
vt 0.95655984 0.23642915
vt 0.95520771 0.26151389
vt 0.95679271 0.94792128
vt 0.9529224 0.86040813
vt 0.95658016 0.29753697
vt 0.95659393 0.33154207
vt 0.95662028 0.41128051
vt 0.95670229 0.6634388
vt 0.95662093 0.41288143
vt 0.95670998 0.68712515
vt 0.95673764 0.77309573
vt 0.91492784 0.041478157
vt 0.95618713 0.073353589
vt 0.95243269 0.10845697
vt 0.93504053 0.13194823
vt 0.9565571 0.22705489
vt 0.95656192 0.24237514
vt 0.95656973 0.26419151
vt 0.956788 0.93334579
vt 0.95665091 0.99501354
vt 0.8996917 0.99503118
vt 0.95674628 0.79836118
vt 0.95658523 0.31106025
vt 0.95657581 0.28230464
vt 0.95659792 0.34485662
vt 0.95660913 0.3821314
vt 0.95670587 0.67400199
vt 0.95670784 0.68077064
vt 0.92544746 0.041475892
vt 0.93907803 0.041472793
vt 0.95464379 0.1531468
vt 0.95654416 0.18691206
vt 0.95656699 0.25656438
vt 0.95656908 0.26263326
vt 0.9568094 0.99501348
vt 0.92691404 0.9950223
vt 0.91332024 0.99502665
vt 0.9567641 0.85558242
vt 0.95677191 0.88102633
vt 0.95660442 0.36668438
vt 0.9565078 0.07179904
vt 0.95651859 0.10668397
vt 0.95653385 0.15862459
vt 0.95676523 0.85941613
vt 0.95676744 0.86608064
vt 0.93931895 0.041472733
vt 0.95650834 0.07337153
vt 0.95650846 0.073652387
vt 0.95652103 0.11329693
vt 0.9565326 0.15454841
vt 0.95649731 0.041466713
vt 0.95653182 0.15218812
vt 0.10521145 0.036644757
vt 0.04358156 0.03906554
vt 0.0037596298 0.037983
usemtl Tile_+032_+023_L21_00013200_0
f 352/1 261/2 294/3
f 248/111 275/137 137/103
f 237/223 143/227 253/261
f 356/302 100/311 103/287
f 24/364 99/319 170/349
f 171/277 102/309 101/322
f 319/114 354/109 351/135
f 305/44 314/60 334/69
f 326/189 327/155 211/173
f 223/175 336/141 300/160
f 328/59 346/68 306/43
f 236/188 277/154 258/169
f 207/249 214/262 222/226
f 155/263 106/242 153/241
f 30/384 25/378 43/358
f 118/307 114/332 112/305
f 324/279 317/269 151/292
f 350/346 131/317 129/338
f 244/52 177/75 329/64
f 231/7 202/4 294/3
f 177/75 178/106 359/118
f 266/12 231/7 294/3
f 228/49 270/71 246/81
f 204/48 305/44 345/70
f 347/110 354/109 334/69
f 166/268 343/247 169/207
f 211/173 320/168 441/184
f 334/69 354/109 318/84
f 234/72 225/97 269/80
f 301/136 273/153 224/94
f 284/74 240/50 189/85
f 288/129 173/147 283/165
f 154/19 201/8 231/7
f 240/50 284/74 289/51
f 281/163 195/214 287/196
f 192/128 187/143 281/163
f 484/182 173/147 485/201
f 100/522 356/523 171/524
f 141/265 107/264 103/287
f 175/88 295/104 93/116
f 199/254 193/213 185/250
f 350/346 123/363 135/333
f 294/3 202/4 352/1
f 320/168 351/135 212/150
f 341/205 222/226 226/224
f 363/92 346/68 364/79
f 257/198 136/145 277/154
f 309/14 342/31 330/32
f 215/82 234/72 271/98
f 147/248 299/230 338/208
f 351/135 321/156 332/125
f 129/338 132/370 350/346
f 63/394 124/344 85/385
f 346/68 349/108 348/121
f 446/342 148/280 447/340
f 448/206 211/173 449/228
f 348/121 347/110 346/68
f 317/269 148/280 150/293
f 167/325 344/308 151/292
f 340/291 166/268 324/279
f 315/47 345/70 313/62
f 332/125 319/114 351/135
f 215/82 206/126 234/72
f 320/168 211/173 322/138
f 331/99 313/62 318/84
f 233/61 229/46 316/35
f 148/280 152/304 150/293
f 158/348 43/358 25/378
f 144/95 270/71 224/94
f 97/334 168/318 157/347
f 345/70 315/47 204/48
f 227/11 267/36 239/25
f 227/11 216/24 316/35
f 311/192 298/193 300/160
f 219/157 206/126 208/139
f 66/351 162/336 101/322
f 97/334 157/347 170/349
f 23/379 159/365 99/319
f 77/356 44/343 164/314
f 222/226 341/205 223/175
f 338/208 218/191 209/158
f 300/160 336/141 221/113
f 327/155 337/190 209/158
f 300/160 217/159 311/192
f 310/21 304/5 361/30
f 245/18 231/7 266/12
f 302/16 307/22 355/33
f 368/57 342/31 369/42
f 304/5 352/1 365/10
f 227/11 268/17 216/24
f 355/33 307/22 308/45
f 347/110 333/93 346/68
f 334/69 314/60 346/68
f 366/13 201/8 371/20
f 372/67 335/58 373/77
f 308/45 314/60 355/33
f 305/44 355/33 314/60
f 334/69 318/84 345/70
f 353/134 212/150 354/109
f 347/110 348/121 353/134
f 454/151 348/121 455/167
f 348/121 349/108 456/133
f 364/79 328/59 376/91
f 166/268 213/281 207/249
f 212/150 351/135 354/109
f 211/173 327/155 322/138
f 164/314 148/280 325/326
f 149/229 326/189 448/206
f 149/229 169/207 326/189
f 76/341 164/314 325/326
f 151/292 156/300 324/279
f 452/313 148/280 460/303
f 322/138 321/156 320/168
f 321/156 351/135 320/168
f 347/110 353/134 354/109
f 354/109 319/114 318/84
f 165/246 149/229 317/269
f 208/139 210/174 219/157
f 313/62 316/35 315/47
f 346/68 314/60 306/43
f 312/96 215/82 313/62
f 218/191 298/193 311/192
f 303/9 309/14 307/22
f 302/16 262/6 303/9
f 268/17 227/11 262/6
f 304/5 310/21 309/14
f 306/43 308/45 307/22
f 302/16 355/33 305/44
f 203/34 302/16 305/44
f 303/9 261/2 304/5
f 302/16 268/17 262/6
f 260/123 301/136 224/94
f 106/242 109/288 171/277
f 206/126 221/113 234/72
f 301/136 292/171 273/153
f 220/140 217/159 300/160
f 299/230 146/209 298/193
f 43/358 163/327 44/343
f 156/300 344/308 98/286
f 98/286 344/308 168/318
f 98/286 102/309 109/288
f 167/325 168/318 344/308
f 338/208 209/158 337/190
f 153/241 226/224 155/263
f 291/187 301/136 110/186
f 291/187 274/243 143/227
f 291/187 111/225 274/243
f 301/136 336/141 272/170
f 166/268 338/208 343/247
f 338/208 298/193 218/191
f 310/21 342/31 309/14
f 205/112 332/125 322/138
f 205/112 312/96 332/125
f 322/138 327/155 205/112
f 156/300 339/299 324/279
f 147/248 166/268 207/249
f 317/269 324/279 165/246
f 110/186 272/170 341/205
f 155/263 98/286 106/242
f 171/277 108/301 102/309
f 155/263 213/281 339/299
f 213/281 340/291 339/299
f 223/175 300/160 298/193
f 169/207 343/247 338/208
f 332/125 321/156 322/138
f 337/190 327/155 169/207
f 336/141 260/123 221/113
f 313/62 233/61 316/35
f 316/35 216/24 315/47
f 308/45 306/43 314/60
f 302/16 303/9 307/22
f 333/93 347/110 334/69
f 313/62 331/99 312/96
f 332/125 331/99 319/114
f 346/68 333/93 334/69
f 328/59 330/32 372/67
f 330/32 306/43 307/22
f 282/105 194/144 92/146
f 176/117 288/129 178/106
f 243/38 329/64 177/75
f 201/8 154/19 381/28
f 215/82 233/61 313/62
f 189/85 249/86 137/103
f 239/25 266/12 227/11
f 249/86 189/85 250/102
f 284/74 244/52 289/51
f 341/205 226/224 110/186
f 293/253 184/233 264/195
f 129/338 122/369 132/370
f 133/295 127/283 183/251
f 193/213 139/210 185/250
f 93/116 295/104 282/105
f 246/81 270/71 144/95
f 143/227 237/223 251/204
f 246/81 144/95 248/111
f 227/11 294/3 262/6
f 130/271 184/233 293/253
f 350/346 135/333 131/317
f 281/163 187/143 186/179
f 127/283 185/250 183/251
f 103/287 107/264 171/277
f 114/332 118/307 135/333
f 183/251 120/296 133/295
f 139/210 193/213 182/178
f 179/194 139/210 188/176
f 291/187 251/204 292/171
f 238/26 290/37 245/18
f 241/73 137/103 249/86
f 244/52 290/37 289/51
f 266/12 294/3 227/11
f 290/37 238/26 289/51
f 243/38 230/27 245/18
f 172/164 285/200 174/181
f 486/255 280/215 487/234
f 281/163 280/215 195/214
f 287/196 200/180 92/146
f 198/197 197/216 488/235
f 197/216 193/213 199/254
f 126/294 128/316 490/331
f 85/385 124/344 134/374
f 174/181 285/200 492/218
f 172/164 286/199 285/200
f 307/22 309/14 330/32
f 178/106 288/129 385/148
f 264/195 184/233 279/211
f 139/210 182/178 188/176
f 200/180 297/217 195/214
f 172/164 92/146 200/180
f 191/115 140/127 180/142
f 244/52 295/104 175/88
f 270/71 269/80 224/94
f 291/187 292/171 301/136
f 130/271 120/296 183/251
f 116/252 293/253 264/195
f 256/212 252/232 264/195
f 200/180 285/200 286/199
f 173/147 176/117 93/116
f 192/128 281/163 92/146
f 200/180 286/199 172/164
f 195/214 297/217 287/196
f 199/254 185/250 196/282
f 142/276 105/266 104/290
f 160/320 94/310 103/287
f 253/261 255/240 237/223
f 258/169 277/154 145/124
f 251/204 259/152 292/171
f 242/63 228/49 241/73
f 252/232 256/212 255/240
f 265/177 236/188 256/212
f 275/137 145/124 277/154
f 179/194 279/211 138/231
f 282/105 296/87 284/74
f 265/177 180/142 278/162
f 296/87 295/104 244/52
f 495/298 126/294 496/315
f 483/236 200/180 501/258
f 497/272 199/254 502/285
f 198/197 186/179 197/216
f 199/254 196/282 126/294
f 500/259 195/214 503/275
f 92/146 194/144 192/128
f 281/163 287/196 92/146
f 186/179 193/213 197/216
f 191/115 192/128 190/101
f 181/161 187/143 191/115
f 189/85 191/115 190/101
f 181/161 180/142 188/176
f 186/179 187/143 182/178
f 126/294 196/282 185/250
f 138/231 184/233 183/251
f 182/178 181/161 188/176
f 188/176 180/142 179/194
f 282/105 295/104 296/87
f 175/88 178/106 177/75
f 175/88 177/75 244/52
f 244/52 284/74 296/87
f 175/88 93/116 176/117
f 485/201 174/181 493/219
f 172/164 174/181 173/147
f 189/85 190/101 284/74
f 357/53 243/38 388/65
f 386/166 283/165 390/202
f 282/105 190/101 192/128
f 178/106 175/88 176/117
f 191/115 187/143 192/128
f 192/128 194/144 282/105
f 182/178 193/213 186/179
f 288/129 176/117 173/147
f 280/215 281/163 198/197
f 172/164 173/147 93/116
f 287/196 297/217 200/180
f 185/250 139/210 183/251
f 181/161 182/178 187/143
f 279/211 180/142 264/195
f 136/145 257/198 265/177
f 140/127 278/162 180/142
f 265/177 278/162 136/145
f 136/145 276/172 277/154
f 275/137 276/172 136/145
f 141/265 105/266 274/243
f 251/204 291/187 143/227
f 273/153 259/152 224/94
f 137/103 241/73 247/100
f 336/141 223/175 272/170
f 217/159 220/140 206/126
f 234/72 263/83 271/98
f 270/71 228/49 229/46
f 145/124 232/122 224/94
f 234/72 269/80 229/46
f 216/24 268/17 203/34
f 267/36 228/49 239/25
f 266/12 238/26 245/18
f 240/50 289/51 238/26
f 264/195 180/142 265/177
f 228/49 242/63 239/25
f 263/83 233/61 215/82
f 261/2 303/9 262/6
f 259/152 258/169 145/124
f 221/113 225/97 234/72
f 225/97 221/113 260/123
f 259/152 235/185 258/169
f 256/212 264/195 265/177
f 265/177 257/198 236/188
f 277/154 276/172 275/137
f 255/240 256/212 235/185
f 116/252 252/232 254/270
f 142/276 117/284 253/261
f 117/284 254/270 253/261
f 255/240 253/261 252/232
f 259/152 251/204 235/185
f 248/111 145/124 275/137
f 140/127 191/115 189/85
f 249/86 250/102 240/50
f 253/261 254/270 252/232
f 246/81 248/111 247/100
f 246/81 241/73 228/49
f 241/73 246/81 247/100
f 243/38 245/18 244/52
f 245/18 290/37 244/52
f 240/50 242/63 241/73
f 239/25 242/63 240/50
f 249/86 240/50 241/73
f 266/12 239/25 238/26
f 238/26 239/25 240/50
f 240/50 250/102 189/85
f 237/223 255/240 235/185
f 256/212 236/188 235/185
f 263/83 234/72 233/61
f 336/141 301/136 260/123
f 229/46 233/61 234/72
f 224/94 232/122 144/95
f 230/27 154/19 231/7
f 227/11 316/35 229/46
f 227/11 229/46 228/49
f 222/226 214/262 226/224
f 262/6 294/3 261/2
f 269/80 225/97 224/94
f 222/226 223/175 146/209
f 298/193 146/209 223/175
f 219/157 210/174 218/191
f 327/155 209/158 205/112
f 221/113 220/140 300/160
f 217/159 219/157 218/191
f 215/82 271/98 263/83
f 312/96 331/99 332/125
f 315/47 216/24 204/48
f 312/96 205/112 215/82
f 218/191 311/192 217/159
f 318/84 319/114 331/99
f 345/70 318/84 313/62
f 213/281 155/263 214/262
f 338/208 166/268 147/248
f 326/189 169/207 327/155
f 212/150 353/134 454/151
f 209/158 210/174 208/139
f 208/139 205/112 209/158
f 146/209 207/249 222/226
f 213/281 214/262 207/249
f 218/191 210/174 209/158
f 206/126 205/112 208/139
f 305/44 204/48 203/34
f 334/69 345/70 305/44
f 203/34 268/17 302/16
f 369/42 310/21 379/56
f 328/59 306/43 330/32
f 261/2 352/1 304/5
f 352/1 202/4 201/8
f 231/7 201/8 202/4
f 154/19 230/27 383/39
f 245/18 230/27 231/7
f 388/65 177/75 391/89
f 226/224 153/241 110/186
f 150/293 152/304 151/292
f 148/280 317/269 149/229
f 337/190 169/207 338/208
f 220/140 221/113 206/126
f 147/248 146/209 299/230
f 299/230 298/193 338/208
f 110/186 111/225 291/187
f 144/95 232/122 145/124
f 145/124 248/111 144/95
f 247/100 248/111 137/103
f 224/94 259/152 145/124
f 253/261 143/227 142/276
f 136/145 278/162 140/127
f 237/223 235/185 251/204
f 107/264 141/265 111/225
f 264/195 252/232 116/252
f 116/252 130/271 293/253
f 244/52 329/64 243/38
f 137/103 140/127 189/85
f 139/210 138/231 183/251
f 137/103 136/145 140/127
f 279/211 184/233 138/231
f 135/333 88/362 114/332
f 279/211 179/194 180/142
f 139/210 179/194 138/231
f 281/163 186/179 198/197
f 53/375 134/374 113/329
f 115/306 125/330 128/316
f 130/271 118/307 112/305
f 133/295 112/305 127/283
f 53/375 121/359 82/386
f 132/370 123/363 350/346
f 89/312 129/338 131/317
f 131/317 119/297 104/290
f 131/317 135/333 118/307
f 116/252 119/297 130/271
f 91/354 129/338 89/312
f 88/362 82/386 121/359
f 128/316 124/344 507/360
f 126/294 127/283 115/306
f 115/306 128/316 126/294
f 128/316 125/330 124/344
f 125/330 113/329 124/344
f 508/387 63/394 510/408
f 113/329 121/359 53/375
f 123/363 132/370 122/369
f 123/363 122/369 88/362
f 113/329 134/374 124/344
f 60/382 122/369 91/354
f 60/382 88/362 122/369
f 85/385 134/374 53/375
f 88/362 121/359 114/332
f 112/305 133/295 120/296
f 130/271 112/305 120/296
f 104/290 117/284 142/276
f 130/271 119/297 118/307
f 104/290 89/312 131/317
f 122/369 129/338 91/354
f 131/317 118/307 119/297
f 123/363 88/362 135/333
f 116/252 117/284 104/290
f 112/305 115/306 127/283
f 127/283 126/294 185/250
f 113/329 125/330 115/306
f 112/305 114/332 113/329
f 114/332 121/359 113/329
f 86/396 53/375 82/386
f 106/242 111/225 110/186
f 109/288 106/242 98/286
f 171/277 356/302 103/287
f 109/288 108/301 171/277
f 171/277 107/264 106/242
f 104/290 105/266 95/289
f 100/311 90/323 103/287
f 141/265 274/243 111/225
f 102/309 99/319 101/322
f 90/323 100/311 28/337
f 110/186 153/241 106/242
f 97/334 99/319 98/286
f 94/310 96/321 95/289
f 96/321 94/310 161/335
f 98/286 168/318 97/334
f 143/227 274/243 105/266
f 111/225 106/242 107/264
f 102/309 108/301 109/288
f 99/319 102/309 98/286
f 99/319 24/364 23/379
f 162/336 171/277 101/322
f 170/349 99/319 97/334
f 25/378 170/349 158/348
f 148/280 149/229 443/278
f 151/292 152/304 167/325
f 76/341 325/326 459/355
f 169/207 149/229 165/246
f 167/325 158/348 168/318
f 324/279 339/299 340/291
f 163/327 167/325 152/304
f 43/358 158/348 163/327
f 164/314 152/304 148/280
f 167/325 163/327 158/348
f 156/300 151/292 344/308
f 150/293 151/292 317/269
f 447/340 323/324 451/339
f 165/246 324/279 166/268
f 152/304 164/314 163/327
f 165/246 166/268 169/207
f 100/311 162/336 31/353
f 31/353 162/336 66/351
f 141/265 103/287 95/289
f 162/336 100/311 171/277
f 104/290 95/289 89/312
f 143/227 105/266 142/276
f 94/310 160/320 161/335
f 90/323 161/335 160/320
f 103/287 94/310 95/289
f 105/266 141/265 95/289
f 90/323 96/321 161/335
f 89/312 96/321 90/323
f 101/322 99/319 8/350
f 8/350 66/351 101/322
f 99/319 159/365 8/350
f 158/348 157/347 168/318
f 44/343 163/327 164/314
f 339/299 156/300 155/263
f 158/348 170/349 157/347
f 137/103 275/137 136/145
f 259/152 273/153 292/171
f 487/234 198/197 489/256
f 206/126 219/157 217/159
f 216/24 203/34 204/48
f 96/321 89/312 95/289
f 183/251 184/233 130/271
f 236/188 258/169 235/185
f 155/263 156/300 98/286
f 224/94 225/97 260/123
f 228/49 267/36 227/11
f 272/170 110/186 301/136
f 441/184 212/150 461/183
f 309/14 303/9 304/5
f 335/58 330/32 342/31
f 155/263 226/224 214/262
f 146/209 147/248 207/249
f 90/323 160/320 103/287
f 341/205 272/170 223/175
f 92/146 172/164 93/116
f 277/154 236/188 257/198
f 92/146 93/116 282/105
f 284/74 190/101 282/105
f 115/306 112/305 113/329
f 181/161 191/115 180/142
f 116/252 254/270 117/284
f 269/80 270/71 229/46
f 166/268 340/291 213/281
f 206/126 215/82 205/112
f 119/297 116/252 104/290
f 91/354 89/312 29/368
f 1/457 4/431 46/443
f 89/312 90/323 27/352
f 47/500 1/457 72/484
f 31/353 28/337 100/311
f 48/372 76/341 463/371
f 1/457 47/500 395/512
f 58/425 55/417 81/395
f 47/500 73/483 397/518
f 5/405 22/393 40/383
f 13/381 15/388 68/367
f 23/379 22/393 18/397
f 60/382 81/395 88/362
f 86/396 81/395 55/417
f 30/384 22/393 23/379
f 13/381 20/423 6/409
f 38/482 73/483 87/468
f 78/429 80/441 75/412
f 79/442 75/412 80/441
f 37/455 87/468 80/441
f 69/411 41/427 70/403
f 75/412 79/442 71/414
f 28/337 68/367 10/366
f 67/459 35/471 402/487
f 16/448 67/459 404/474
f 73/483 74/456 80/441
f 37/455 78/429 41/427
f 1/457 74/456 72/484
f 42/373 77/356 40/383
f 80/441 45/430 79/442
f 470/428 39/392 471/413
f 80/441 78/429 37/455
f 78/429 70/403 41/427
f 80/441 87/468 73/483
f 406/511 38/482 407/517
f 46/443 74/456 1/457
f 76/341 48/372 77/356
f 39/392 48/372 467/404
f 5/405 40/383 71/414
f 70/403 75/412 40/383
f 46/443 45/430 74/456
f 73/483 72/484 74/456
f 72/484 73/483 47/500
f 71/414 79/442 45/430
f 70/403 39/392 69/411
f 77/356 164/314 76/341
f 68/367 28/337 31/353
f 6/409 20/423 408/437
f 16/448 26/432 67/459
f 410/470 3/444 411/469
f 34/446 35/471 67/459
f 66/351 9/380 31/353
f 65/410 58/425 61/401
f 61/401 51/390 65/410
f 62/436 12/399 414/421
f 49/439 58/425 65/410
f 56/418 52/406 86/396
f 52/406 84/407 85/385
f 63/394 84/407 83/416
f 511/461 64/460 515/490
f 57/434 83/416 52/406
f 91/354 29/368 60/382
f 56/418 58/425 57/434
f 49/439 32/422 416/464
f 82/386 88/362 81/395
f 81/395 61/401 58/425
f 32/422 65/410 54/426
f 29/368 11/389 51/390
f 59/473 50/453 418/491
f 57/434 64/460 83/416
f 63/394 83/416 513/433
f 84/407 52/406 83/416
f 423/472 57/434 424/488
f 12/399 62/436 32/422
f 51/390 61/401 60/382
f 424/488 59/473 425/508
f 57/434 58/425 50/453
f 55/417 58/425 56/418
f 85/385 84/407 63/394
f 57/434 52/406 56/418
f 60/382 29/368 51/390
f 51/390 54/426 65/410
f 86/396 82/386 81/395
f 53/375 52/406 85/385
f 53/375 86/396 52/406
f 56/418 86/396 55/417
f 60/382 61/401 81/395
f 49/439 65/410 32/422
f 51/390 12/399 32/422
f 32/422 54/426 51/390
f 50/453 49/439 417/465
f 58/425 49/439 50/453
f 26/432 34/446 67/459
f 34/446 33/458 410/470
f 32/422 62/436 415/451
f 13/381 31/353 9/380
f 7/400 12/399 15/388
f 2/415 26/432 22/393
f 18/397 21/420 13/381
f 23/379 24/364 30/384
f 29/368 27/352 10/366
f 20/423 21/420 17/449
f 28/337 27/352 90/323
f 7/400 15/388 13/381
f 26/432 16/448 21/420
f 21/420 20/423 13/381
f 24/364 170/349 25/378
f 8/350 159/365 23/379
f 9/380 23/379 18/397
f 22/393 21/420 18/397
f 80/441 74/456 45/430
f 75/412 70/403 78/429
f 71/414 40/383 75/412
f 77/356 48/372 40/383
f 2/415 22/393 5/405
f 2/415 33/458 34/446
f 5/405 46/443 36/445
f 466/467 41/427 474/466
f 45/430 46/443 5/405
f 21/420 22/393 26/432
f 44/343 42/373 43/358
f 44/343 77/356 42/373
f 22/393 42/373 40/383
f 30/384 42/373 22/393
f 5/405 71/414 45/430
f 41/427 69/411 472/440
f 39/392 70/403 40/383
f 469/499 37/455 473/498
f 38/482 87/468 37/455
f 4/431 36/445 46/443
f 35/471 34/446 426/486
f 34/446 26/432 2/415
f 10/366 68/367 15/388
f 9/380 14/398 13/381
f 414/421 7/400 431/435
f 68/367 31/353 13/381
f 28/337 10/366 27/352
f 10/366 15/388 12/399
f 51/390 11/389 12/399
f 10/366 12/399 11/389
f 10/366 11/389 29/368
f 9/380 8/350 23/379
f 8/350 9/380 66/351
f 7/400 6/409 409/424
f 430/476 17/449 432/495
f 408/437 19/452 427/463
f 13/381 14/398 18/397
f 13/381 6/409 7/400
f 17/449 16/448 438/475
f 17/449 19/452 20/423
f 25/378 30/384 24/364
f 18/397 14/398 9/380
f 17/449 21/420 16/448
f 43/358 42/373 30/384
f 40/383 48/372 39/392
f 2/415 5/405 4/431
f 4/431 1/457 3/444
f 3/444 2/415 4/431
f 2/415 3/444 33/458
f 5/405 36/445 4/431
f 411/469 1/457 440/485
f 89/312 27/352 29/368
f 50/453 59/473 57/434
f 357/53 230/27 243/38
f 358/54 230/27 357/53
f 359/118 178/106 387/130
f 360/119 177/75 359/118
f 361/30 304/5 362/23
f 362/23 304/5 370/15
f 363/92 349/108 346/68
f 364/79 346/68 328/59
f 365/10 352/1 366/13
f 366/13 352/1 201/8
f 367/41 310/21 361/30
f 368/57 335/58 342/31
f 369/42 342/31 310/21
f 370/15 304/5 365/10
f 371/20 201/8 382/29
f 372/67 330/32 335/58
f 373/77 335/58 378/76
f 476/120 363/92 477/131
f 374/90 328/59 375/78
f 375/78 328/59 372/67
f 376/91 328/59 374/90
f 377/55 310/21 367/41
f 378/76 335/58 368/57
f 379/56 310/21 380/66
f 380/66 310/21 377/55
f 381/28 154/19 392/40
f 382/29 201/8 381/28
f 383/39 230/27 358/54
f 384/107 177/75 360/119
f 385/148 288/129 386/166
f 386/166 288/129 283/165
f 387/130 178/106 385/148
f 388/65 243/38 177/75
f 389/220 283/165 481/238
f 390/202 283/165 389/220
f 391/89 177/75 384/107
f 392/40 154/19 383/39
f 393/497 32/422 420/496
f 394/479 32/422 393/497
f 395/512 47/500 435/519
f 396/501 1/457 395/512
f 397/518 73/483 406/511
f 398/521 47/500 397/518
f 399/514 59/473 400/513
f 400/513 59/473 419/507
f 401/510 38/482 469/499
f 402/487 35/471 437/503
f 403/493 67/459 402/487
f 404/474 67/459 403/493
f 405/492 16/448 404/474
f 406/511 73/483 38/482
f 407/517 38/482 434/516
f 408/437 20/423 19/452
f 409/424 6/409 408/437
f 410/470 33/458 3/444
f 411/469 3/444 1/457
f 412/450 7/400 413/438
f 413/438 7/400 409/424
f 414/421 12/399 7/400
f 415/451 62/436 414/421
f 520/489 423/472 521/504
f 416/464 32/422 394/479
f 417/465 49/439 416/464
f 418/491 50/453 422/480
f 419/507 59/473 418/491
f 420/496 32/422 421/477
f 421/477 32/422 429/462
f 422/480 50/453 417/465
f 423/472 64/460 57/434
f 424/488 57/434 59/473
f 425/508 59/473 399/514
f 426/486 34/446 410/470
f 427/463 19/452 428/478
f 428/478 19/452 430/476
f 429/462 32/422 415/451
f 430/476 19/452 17/449
f 431/435 7/400 412/450
f 432/495 17/449 433/509
f 433/509 17/449 439/494
f 434/516 38/482 401/510
f 435/519 47/500 398/521
f 436/502 35/471 426/486
f 437/503 35/471 436/502
f 438/475 16/448 405/492
f 439/494 17/449 438/475
f 440/485 1/457 396/501
f 441/184 320/168 212/150
f 442/222 211/173 441/184
f 443/278 149/229 444/267
f 444/267 149/229 450/245
f 445/357 325/326 446/342
f 446/342 325/326 148/280
f 447/340 148/280 323/324
f 448/206 326/189 211/173
f 449/228 211/173 462/244
f 450/245 149/229 448/206
f 451/339 323/324 452/313
f 452/313 323/324 148/280
f 453/132 349/108 476/120
f 454/151 353/134 348/121
f 455/167 348/121 457/149
f 456/133 349/108 453/132
f 457/149 348/121 456/133
f 458/239 211/173 442/222
f 459/355 325/326 445/357
f 460/303 148/280 443/278
f 461/183 212/150 454/151
f 462/244 211/173 458/239
f 463/371 76/341 459/355
f 464/391 48/372 463/371
f 465/481 37/455 466/467
f 466/467 37/455 41/427
f 467/404 48/372 468/402
f 468/402 48/372 464/391
f 469/499 38/482 37/455
f 470/428 69/411 39/392
f 471/413 39/392 467/404
f 472/440 69/411 470/428
f 473/498 37/455 465/481
f 474/466 41/427 475/454
f 475/454 41/427 472/440
f 476/120 349/108 363/92
f 478/515 401/510 469/499
f 479/520 401/510 478/515
f 480/203 283/165 484/182
f 481/238 283/165 518/221
f 482/237 285/200 483/236
f 483/236 285/200 200/180
f 484/182 283/165 173/147
f 485/201 173/147 174/181
f 486/255 195/214 280/215
f 487/234 280/215 198/197
f 488/235 197/216 498/257
f 489/256 198/197 488/235
f 490/331 128/316 504/345
f 491/328 126/294 490/331
f 492/218 285/200 482/237
f 493/219 174/181 492/218
f 494/273 195/214 486/255
f 495/298 199/254 126/294
f 496/315 126/294 491/328
f 497/272 197/216 199/254
f 498/257 197/216 497/272
f 499/274 200/180 500/259
f 500/259 200/180 195/214
f 501/258 200/180 499/274
f 502/285 199/254 495/298
f 503/275 195/214 494/273
f 504/345 128/316 505/361
f 505/361 128/316 509/376
f 506/377 124/344 508/387
f 507/360 124/344 506/377
f 508/387 124/344 63/394
f 509/376 128/316 507/360
f 510/408 63/394 517/419
f 511/461 83/416 64/460
f 512/447 83/416 511/461
f 513/433 83/416 512/447
f 514/505 64/460 520/489
f 515/490 64/460 516/506
f 516/506 64/460 514/505
f 517/419 63/394 513/433
f 518/221 283/165 480/203
f 519/260 389/220 481/238
f 520/489 64/460 423/472
usemtl Tile_+032_+023_L21_00013200_untextured
