mtllib Tile_+032_+023_L19_000230.mtl
v 6.33394636e+03 5.69873658e+03 1.43830453e+00
v 6.33677681e+03 5.69449562e+03 1.42194006e+00
v 6.33546721e+03 5.69192801e+03 1.56944805e+00
v 6.32653165e+03 5.70723135e+03 1.65122809e+01
v 6.32628596e+03 5.70691414e+03 1.37830586e+01
v 6.32680199e+03 5.70588349e+03 1.64077205e+01
v 6.31589869e+03 5.71816620e+03 1.87873306e+01
v 6.31517752e+03 5.71544413e+03 1.87929622e+01
v 6.32662067e+03 5.70773547e+03 1.87113193e+01
v 6.31828703e+03 5.71715452e+03 1.88089013e+01
v 6.31797965e+03 5.70879102e+03 1.88044449e+01
v 6.31225185e+03 5.70647463e+03 3.09034233e+01
v 6.31350651e+03 5.71765001e+03 3.43013902e+01
v 6.31247962e+03 5.71672065e+03 2.09289428e+01
v 6.31431177e+03 5.71450734e+03 1.87430266e+01
v 6.31386456e+03 5.71645667e+03 1.89063860e+01
v 6.31228849e+03 5.70347121e+03 3.32184953e+01
v 6.32555009e+03 5.71469410e+03 7.81062124e+00
v 6.32580030e+03 5.71489346e+03 6.78445132e+00
v 6.32607616e+03 5.71364032e+03 6.80550926e+00
v 6.32545226e+03 5.71770474e+03 3.64849833e+00
v 6.32585899e+03 5.71643080e+03 3.01561039e+00
v 6.32799187e+03 5.71383909e+03 1.84287691e+00
v 6.32614812e+03 5.71363332e+03 2.98091603e+00
v 6.32727748e+03 5.71328647e+03 8.77126268e+00
v 6.32604564e+03 5.71362665e+03 7.51363589e+00
v 6.32542251e+03 5.71772344e+03 7.80493218e+00
v 6.32664254e+03 5.71584953e+03 1.00966446e+01
v 6.32671300e+03 5.71153586e+03 6.98473031e+00
v 6.32631671e+03 5.71219296e+03 7.39475794e+00
v 6.32648878e+03 5.70575252e+03 8.14907665e+00
v 6.32587092e+03 5.70726269e+03 7.21709681e+00
v 6.32650725e+03 5.70706875e+03 1.15207611e+01
v 6.32632175e+03 5.70714197e+03 8.24522940e+00
v 6.32570022e+03 5.70892974e+03 6.65106685e+00
v 6.32597705e+03 5.70971710e+03 7.41105484e+00
v 6.32667942e+03 5.70848577e+03 8.30336695e+00
v 6.32615231e+03 5.70769459e+03 6.24917519e+00
v 6.32605406e+03 5.70563797e+03 1.07173229e+01
v 6.32718256e+03 5.70470874e+03 1.14466899e+01
v 6.32583872e+03 5.71585356e+03 7.96594252e+00
v 6.32310177e+03 5.68891182e+03 1.86261841e+01
v 6.31506801e+03 5.69163484e+03 1.88946121e+01
v 6.31883843e+03 5.69024893e+03 1.86338913e+01
v 6.31903519e+03 5.68774079e+03 1.86195527e+01
v 6.32400149e+03 5.69467556e+03 1.85986555e+01
v 6.32083525e+03 5.69580138e+03 1.86972635e+01
v 6.32008311e+03 5.69250372e+03 1.86245574e+01
v 6.31781775e+03 5.69188948e+03 1.86947022e+01
v 6.32574781e+03 5.70082125e+03 1.86425583e+01
v 6.32607956e+03 5.70577586e+03 1.41383600e+01
v 6.31964412e+03 5.70587162e+03 1.86620215e+01
v 6.32111814e+03 5.71642657e+03 1.85992082e+01
v 6.31736454e+03 5.70436430e+03 1.87123254e+01
v 6.31945497e+03 5.70118295e+03 1.87532568e+01
v 6.31488672e+03 5.69064652e+03 1.86223737e+01
v 6.31646328e+03 5.68968908e+03 1.88198985e+01
v 6.31757222e+03 5.69581031e+03 1.88955706e+01
v 6.31363155e+03 5.69619611e+03 1.89272399e+01
v 6.31453566e+03 5.68826447e+03 1.88551332e+01
v 6.31537327e+03 5.68898220e+03 1.86663257e+01
v 6.31654389e+03 5.68822131e+03 1.88118205e+01
v 6.31701968e+03 5.71199345e+03 1.85408153e+01
v 6.31588371e+03 5.70921802e+03 1.88380163e+01
v 6.31271065e+03 5.68761832e+03 1.86278039e+01
v 6.31288833e+03 5.68978923e+03 1.87903696e+01
v 6.31287495e+03 5.69481667e+03 1.88698555e+01
v 6.31723739e+03 5.69679257e+03 1.85700737e+01
v 6.31423827e+03 5.70107978e+03 1.87609316e+01
v 6.31328021e+03 5.70356788e+03 1.87043085e+01
v 6.31501804e+03 5.69526127e+03 1.86970603e+01
v 6.31337346e+03 5.69317400e+03 1.88826217e+01
v 6.31395936e+03 5.69398883e+03 1.86881383e+01
v 6.31241184e+03 5.68861053e+03 1.88273391e+01
v 6.31591106e+03 5.70781563e+03 2.08996360e+01
v 6.31584174e+03 5.70705199e+03 1.90552032e+01
v 6.31595511e+03 5.71417529e+03 1.85870856e+01
v 6.31600758e+03 5.70598562e+03 1.87242849e+01
v 6.31593546e+03 5.70424027e+03 1.90035294e+01
v 6.31469826e+03 5.70357698e+03 1.88215837e+01
v 6.31557282e+03 5.71417866e+03 1.89709206e+01
v 6.31571888e+03 5.71007371e+03 1.90462746e+01
v 6.31455653e+03 5.71438016e+03 1.98019471e+01
v 6.31985091e+03 5.71121973e+03 1.86121758e+01
v 6.32727726e+03 5.71380140e+03 1.87111557e+01
v 6.32703351e+03 5.70093613e+03 1.90202966e+01
v 6.31834066e+03 5.69470820e+03 1.87846213e+01
v 6.31518078e+03 5.69453544e+03 1.88578160e+01
v 6.31723889e+03 5.69378253e+03 1.86524962e+01
v 6.31839405e+03 5.69290160e+03 1.88198897e+01
v 6.31356272e+03 5.69245109e+03 1.86764821e+01
v 6.32723952e+03 5.70357568e+03 1.87883925e+01
v 6.32666222e+03 5.70565451e+03 1.87852843e+01
v 6.31861090e+03 5.69120609e+03 1.88799110e+01
v 6.31594738e+03 5.68737057e+03 1.86258030e+01
v 6.31438732e+03 5.71702696e+03 1.86704307e+01
v 6.31341137e+03 5.71791079e+03 2.81457403e+01
v 6.31626433e+03 5.71867568e+03 2.14697603e+01
v 6.31351226e+03 5.71732271e+03 2.15376447e+01
v 6.31227130e+03 5.70659147e+03 3.38131322e+01
v 6.31366940e+03 5.71752487e+03 3.64106791e+01
v 6.31301250e+03 5.71695541e+03 3.60294065e+01
v 6.31339461e+03 5.71727025e+03 3.14242201e+01
v 6.31343719e+03 5.71726405e+03 2.69921234e+01
v 6.31308210e+03 5.71707953e+03 2.51586340e+01
v 6.31408768e+03 5.71011431e+03 2.07071628e+01
v 6.31470144e+03 5.71240250e+03 2.07443816e+01
v 6.31254640e+03 5.71436032e+03 2.06504473e+01
v 6.31381232e+03 5.71636335e+03 2.08477992e+01
v 6.31434253e+03 5.71693943e+03 2.13167749e+01
v 6.31446591e+03 5.71400482e+03 2.08324597e+01
v 6.31584311e+03 5.71087604e+03 2.08428025e+01
v 6.31438295e+03 5.70573627e+03 2.08867437e+01
v 6.31592320e+03 5.70420416e+03 2.09257889e+01
v 6.31392371e+03 5.70374705e+03 2.08287151e+01
v 6.31564826e+03 5.71385254e+03 2.08948989e+01
v 6.31569356e+03 5.71379440e+03 1.99609853e+01
v 6.31228883e+03 5.70349837e+03 2.08118153e+01
v 6.31239335e+03 5.70363967e+03 2.57202273e+01
v 6.32725063e+03 5.70873719e+03 1.16007270e+01
v 6.32692233e+03 5.71500474e+03 7.03889486e+00
v 6.32600386e+03 5.71574664e+03 7.19507391e+00
v 6.32633758e+03 5.71755627e+03 6.85428456e+00
v 6.32652723e+03 5.71242884e+03 6.69773347e+00
v 6.32635219e+03 5.71723096e+03 4.69883603e+00
v 6.32567751e+03 5.71541592e+03 1.98967757e+00
v 6.32530242e+03 5.71743945e+03 1.66754330e+00
v 6.32658531e+03 5.71569510e+03 1.60869539e+00
v 6.32604212e+03 5.71848323e+03 2.35982857e+00
v 6.32675213e+03 5.71881285e+03 1.91209554e+00
v 6.32725968e+03 5.71431967e+03 4.92710506e+00
v 6.32612234e+03 5.70852542e+03 6.13549523e+00
v 6.32673940e+03 5.70794046e+03 8.85497815e+00
v 6.32652909e+03 5.70563876e+03 6.21971481e+00
v 6.32639462e+03 5.70560017e+03 1.29515637e+01
v 6.32683704e+03 5.70498758e+03 8.81774991e+00
v 6.32702277e+03 5.70884092e+03 6.73651619e+00
v 6.33085442e+03 5.69290031e+03 1.42797492e+01
v 6.33009139e+03 5.69380375e+03 1.55148377e+01
v 6.32902847e+03 5.69783359e+03 1.64450139e+01
v 6.32945188e+03 5.69614463e+03 1.69003266e+01
v 6.33089992e+03 5.69160016e+03 1.67858694e+01
v 6.33108692e+03 5.69008794e+03 1.44845945e+01
v 6.33040856e+03 5.69252722e+03 1.68747813e+01
v 6.33116160e+03 5.69004111e+03 1.87391093e+01
v 6.33143299e+03 5.69000565e+03 1.68055465e+01
v 6.33078244e+03 5.69161706e+03 1.36230301e+01
v 6.33028115e+03 5.69228981e+03 1.53920089e+01
v 6.33120450e+03 5.68971744e+03 1.28971840e+01
v 6.33148914e+03 5.68941994e+03 1.52613848e+01
v 6.33188057e+03 5.68794347e+03 1.66265643e+01
v 6.33153070e+03 5.68858798e+03 1.56603925e+01
v 6.33213530e+03 5.68885250e+03 1.43862752e+01
v 6.33184029e+03 5.68765631e+03 1.36336893e+01
v 6.32972485e+03 5.69486758e+03 1.87121023e+01
v 6.32868840e+03 5.69821889e+03 1.74327636e+01
v 6.32902392e+03 5.69766454e+03 1.88134841e+01
v 6.32958360e+03 5.69559515e+03 1.49904443e+01
v 6.32915208e+03 5.69707755e+03 1.49931438e+01
v 6.32924091e+03 5.69741708e+03 1.26485312e+01
v 6.32858903e+03 5.69892997e+03 1.44567887e+01
v 6.32961170e+03 5.69628656e+03 1.43876803e+01
v 6.32953038e+03 5.69573238e+03 1.25268650e+01
v 6.32991319e+03 5.69459053e+03 1.41498775e+01
v 6.33028139e+03 5.69359862e+03 1.71803807e+01
v 6.32698856e+03 5.70857875e+03 1.47984760e+01
v 6.32759060e+03 5.70914143e+03 1.85892119e+01
v 6.32762206e+03 5.70903124e+03 1.51280834e+01
v 6.32697179e+03 5.70782720e+03 1.61903680e+01
v 6.32782202e+03 5.70991265e+03 1.81601334e+01
v 6.32792991e+03 5.70144273e+03 1.51986422e+01
v 6.32902442e+03 5.70039186e+03 1.45066913e+01
v 6.32850032e+03 5.69959594e+03 1.51409535e+01
v 6.32763738e+03 5.70195341e+03 1.60610194e+01
v 6.32770348e+03 5.70196120e+03 1.87452110e+01
v 6.32806928e+03 5.70116565e+03 1.73921104e+01
v 6.32840211e+03 5.69988693e+03 1.87025753e+01
v 6.32659028e+03 5.70569493e+03 1.74551785e+01
v 6.32739828e+03 5.70333414e+03 1.51403156e+01
v 6.32709777e+03 5.70395020e+03 1.56566928e+01
v 6.32815293e+03 5.70019027e+03 1.72455650e+01
v 6.32819909e+03 5.71074075e+03 1.87117786e+01
v 6.32840866e+03 5.70089798e+03 1.46203643e+01
v 6.32858565e+03 5.70034888e+03 1.31355338e+01
v 6.32749566e+03 5.70185270e+03 1.36479853e+01
v 6.32818371e+03 5.71047270e+03 1.37670999e+01
v 6.32720827e+03 5.70321676e+03 1.33776425e+01
v 6.32814793e+03 5.70422520e+03 1.46007326e+01
v 6.32769059e+03 5.70437119e+03 1.35301898e+01
v 6.32697425e+03 5.70465586e+03 1.39129381e+01
v 6.32700831e+03 5.70476623e+03 1.50123199e+01
v 6.33054622e+03 5.69227844e+03 1.87988419e+01
v 6.33142536e+03 5.68966027e+03 1.07407288e+01
v 6.33098851e+03 5.68877718e+03 1.04234208e+01
v 6.33044519e+03 5.69326175e+03 1.27187310e+01
v 6.33080521e+03 5.69265956e+03 6.59167775e+00
v 6.33073516e+03 5.69164935e+03 8.49981105e+00
v 6.32973019e+03 5.69430902e+03 1.29537237e+01
v 6.32806019e+03 5.70399236e+03 1.23087954e+01
v 6.32750239e+03 5.70339010e+03 1.16789158e+01
v 6.32770801e+03 5.70985649e+03 1.30939381e+01
v 6.33146995e+03 5.68831632e+03 1.22973787e+01
v 6.32687879e+03 5.71037514e+03 7.18341934e+00
v 6.32783067e+03 5.71105610e+03 7.29549623e+00
v 6.32688305e+03 5.71080023e+03 6.90160234e+00
v 6.32714934e+03 5.71334749e+03 7.10199507e+00
v 6.32766973e+03 5.71324374e+03 6.87872424e+00
v 6.32878299e+03 5.70926354e+03 6.79182784e+00
v 6.32733809e+03 5.70978853e+03 6.73870628e+00
v 6.32802354e+03 5.71058329e+03 8.96801476e+00
v 6.32967568e+03 5.69556103e+03 1.04361509e+01
v 6.32884723e+03 5.69617691e+03 1.04346622e+01
v 6.34279784e+03 5.70912928e+03 1.83739548e+00
v 6.33678394e+03 5.71647582e+03 1.71466349e+00
v 6.34384858e+03 5.71760821e+03 1.93158342e+00
v 6.32802619e+03 5.70984422e+03 7.27954782e+00
v 6.33763358e+03 5.70989305e+03 1.62555768e+00
v 6.33220856e+03 5.70740729e+03 1.39806704e+00
v 6.32700555e+03 5.71104632e+03 3.46089880e+00
v 6.32659534e+03 5.71229173e+03 2.72943494e+00
v 6.32822554e+03 5.71105214e+03 2.76890812e+00
v 6.32826614e+03 5.71078698e+03 4.87684505e+00
v 6.32972896e+03 5.70836874e+03 2.72150665e+00
v 6.33038092e+03 5.70857138e+03 1.83120700e+00
v 6.33061811e+03 5.71147241e+03 1.39652149e+00
v 6.33565802e+03 5.68910343e+03 1.79659915e+00
v 6.33307533e+03 5.70252721e+03 1.41293686e+00
v 6.33080104e+03 5.70538304e+03 1.84178942e+00
v 6.33790317e+03 5.70122363e+03 1.63073626e+00
v 6.34301707e+03 5.70561678e+03 1.78248441e+00
v 6.33258608e+03 5.69896609e+03 2.40346513e+00
v 6.33213208e+03 5.70082627e+03 1.84471342e+00
v 6.33163334e+03 5.70238907e+03 2.36137907e+00
v 6.32988850e+03 5.70508187e+03 5.10848336e+00
v 6.32989850e+03 5.70576452e+03 3.08917143e+00
v 6.33096624e+03 5.70135965e+03 5.18651922e+00
v 6.33357311e+03 5.69358360e+03 4.34589012e+00
v 6.33262386e+03 5.69554906e+03 5.19226199e+00
v 6.33448238e+03 5.68928416e+03 5.04232404e+00
v 6.33440983e+03 5.69037121e+03 3.64178606e+00
v 6.33400112e+03 5.69417644e+03 2.16176847e+00
v 6.33356042e+03 5.69276447e+03 6.95525203e+00
v 6.33007122e+03 5.69502272e+03 6.06298631e+00
v 6.33068007e+03 5.69683946e+03 6.03501839e+00
v 6.33175824e+03 5.69678341e+03 7.20622322e+00
v 6.32972399e+03 5.70599690e+03 6.95338995e+00
v 6.32906375e+03 5.69760675e+03 8.34126008e+00
v 6.32874715e+03 5.69813805e+03 6.39856582e+00
v 6.32951320e+03 5.69833483e+03 6.00684952e+00
v 6.32900448e+03 5.69948911e+03 6.63561160e+00
v 6.32905140e+03 5.70828875e+03 5.03875493e+00
v 6.32709341e+03 5.70653685e+03 6.27969741e+00
v 6.33289438e+03 5.69729174e+03 2.22814170e+00
v 6.33447901e+03 5.68968797e+03 6.82599575e+00
v 6.33229094e+03 5.68953988e+03 6.45575556e+00
v 6.33224261e+03 5.69208313e+03 5.98550837e+00
v 6.33120966e+03 5.69244891e+03 6.14223536e+00
v 6.33003175e+03 5.69369934e+03 6.55295431e+00
v 6.33155867e+03 5.69415521e+03 6.27078855e+00
v 6.33281650e+03 5.69329288e+03 6.98533101e+00
v 6.33321239e+03 5.68947785e+03 6.58699423e+00
v 6.32908408e+03 5.69679094e+03 6.49891216e+00
v 6.33095947e+03 5.68990782e+03 6.64226953e+00
v 6.33220447e+03 5.68812706e+03 6.27131632e+00
v 6.33180199e+03 5.68742628e+03 6.47808368e+00
v 6.33298441e+03 5.69149779e+03 6.28234822e+00
v 6.33188594e+03 5.68790367e+03 8.63312943e+00
v 6.33401719e+03 5.68786390e+03 6.49359635e+00
v 6.33141349e+03 5.68941734e+03 8.76438553e+00
v 6.33082211e+03 5.69065838e+03 9.80053457e+00
v 6.33421756e+03 5.68891081e+03 7.16497099e+00
v 6.33312644e+03 5.69243732e+03 7.19966737e+00
v 6.33161197e+03 5.68880064e+03 7.27245715e+00
v 6.33285117e+03 5.68887310e+03 6.22301107e+00
v 6.32843933e+03 5.69943446e+03 8.15493587e+00
v 6.32827429e+03 5.70058511e+03 7.33483467e+00
v 6.33050580e+03 5.69985206e+03 6.61738966e+00
v 6.33251127e+03 5.69504355e+03 6.97604224e+00
v 6.33120123e+03 5.69315372e+03 8.22266377e+00
v 6.33196898e+03 5.69827804e+03 6.89162513e+00
v 6.33072586e+03 5.70059733e+03 7.16507696e+00
v 6.33284622e+03 5.69533306e+03 6.81277690e+00
v 6.33194832e+03 5.69528077e+03 6.35092467e+00
v 6.33126370e+03 5.69880784e+03 6.84067392e+00
v 6.33027960e+03 5.69337288e+03 9.04613282e+00
v 6.33012359e+03 5.69243169e+03 1.04433125e+01
v 6.32951732e+03 5.69693347e+03 8.14627906e+00
v 6.32990821e+03 5.69421933e+03 9.22315404e+00
v 6.32845978e+03 5.69929646e+03 1.00745041e+01
v 6.32753998e+03 5.70219454e+03 9.02447929e+00
v 6.32714366e+03 5.70311859e+03 1.02993720e+01
v 6.32714405e+03 5.70386234e+03 9.03001484e+00
v 6.32741804e+03 5.70525248e+03 7.79763463e+00
v 6.33142072e+03 5.68866047e+03 9.82729439e+00
v 6.33373292e+03 5.69072731e+03 6.96205776e+00
v 6.32913441e+03 5.70354603e+03 7.11228213e+00
v 6.32850029e+03 5.70439299e+03 9.25436212e+00
v 6.32920517e+03 5.70466435e+03 8.32368546e+00
v 6.32873023e+03 5.70769298e+03 7.12541065e+00
v 6.32943653e+03 5.70495097e+03 7.21247710e+00
v 6.32945865e+03 5.69597375e+03 8.24575656e+00
v 6.32999961e+03 5.70411675e+03 7.21519354e+00
v 6.32900781e+03 5.70081855e+03 6.77446687e+00
v 6.32829838e+03 5.70484930e+03 9.03807921e+00
v 6.32745262e+03 5.70980693e+03 9.17424549e+00
v 6.32725706e+03 5.70898281e+03 8.58502290e+00
v 6.32834477e+03 5.70094959e+03 7.73339924e+00
v 6.32816607e+03 5.70027528e+03 9.50005744e+00
v 6.33071353e+03 5.70260399e+03 6.98727879e+00
v 6.32793305e+03 5.70328601e+03 8.40664939e+00
v 6.33158473e+03 5.70043586e+03 3.98136914e+00
v 6.32779268e+03 5.70580013e+03 6.84836445e+00
v 6.32931856e+03 5.69604240e+03 9.57719636e+00
v 6.33197929e+03 5.68778739e+03 1.05992647e+01
v 6.33028506e+03 5.69346896e+03 1.06738527e+01
v 6.33070154e+03 5.69158086e+03 1.10417345e+01
v 6.33056612e+03 5.69051273e+03 1.06018319e+01
v 6.33162790e+03 5.68872527e+03 1.16148249e+01
v 6.33062243e+03 5.69272110e+03 1.17113338e+01
v 6.33118011e+03 5.69024813e+03 1.17682817e+01
v 6.32985448e+03 5.69428766e+03 1.19699922e+01
v 6.32742166e+03 5.70240624e+03 1.17307397e+01
v 6.32830885e+03 5.70102809e+03 1.07805621e+01
v 6.32936796e+03 5.69442129e+03 1.04690502e+01
v 6.32853614e+03 5.69957149e+03 1.18253329e+01
v 6.32853664e+03 5.69858429e+03 1.20189536e+01
v 6.32965211e+03 5.69582571e+03 1.15652161e+01
v 6.32920390e+03 5.69731440e+03 1.02173195e+01
v 6.32894120e+03 5.70047796e+03 1.18875918e+01
v 6.32784922e+03 5.70017661e+03 1.05994999e+01
v 6.32832878e+03 5.69808526e+03 1.04289666e+01
v 6.32731339e+03 5.70484743e+03 1.04401465e+01
v 6.32680536e+03 5.70402522e+03 1.07031563e+01
v 6.32719862e+03 5.70177497e+03 1.05768549e+01
v 6.32784087e+03 5.70473655e+03 1.25627424e+01
v 6.32728652e+03 5.70380968e+03 1.29169672e+01
v 6.32924775e+03 5.69707800e+03 1.12369431e+01
v 6.32887826e+03 5.69790045e+03 9.72944088e+00
v 6.31225000e+03 5.70647667e+03 3.08779482e+01
v 6.31225000e+03 5.70651574e+03 3.08852465e+01
v 6.31225000e+03 5.71655844e+03 2.09114476e+01
v 6.31225000e+03 5.71449965e+03 2.06689392e+01
v 6.31225000e+03 5.71643639e+03 3.56754075e+01
v 6.31225000e+03 5.71694400e+03 3.57674016e+01
v 6.31225000e+03 5.71644403e+03 3.08364429e+01
v 6.31225000e+03 5.71642169e+03 2.81425983e+01
v 6.31225000e+03 5.69865215e+03 1.87180122e+01
v 6.31225000e+03 5.70070450e+03 1.87234708e+01
v 6.31225000e+03 5.69241978e+03 1.87308193e+01
v 6.31225000e+03 5.69260123e+03 1.86896046e+01
v 6.31225000e+03 5.68965040e+03 1.88124104e+01
v 6.31225000e+03 5.68863173e+03 1.88318509e+01
v 6.31225000e+03 5.69525930e+03 1.88148303e+01
v 6.31225000e+03 5.69496474e+03 1.90083504e+01
v 6.31225000e+03 5.69469162e+03 1.88415468e+01
v 6.31225000e+03 5.70353902e+03 2.47226023e+01
v 6.31225000e+03 5.70346202e+03 2.74338918e+01
v 6.31225000e+03 5.70343534e+03 3.31994707e+01
v 6.31225000e+03 5.70347884e+03 3.32062890e+01
v 6.31225000e+03 5.70343543e+03 3.17459072e+01
v 6.31225000e+03 5.70347402e+03 2.07209445e+01
v 6.31225000e+03 5.70322176e+03 1.86982679e+01
v 6.31225000e+03 5.70416862e+03 2.12696519e+01
v 6.31225000e+03 5.70509486e+03 2.41929962e+01
v 6.31225000e+03 5.70640901e+03 3.08520230e+01
v 6.31225000e+03 5.70466778e+03 2.60577944e+01
v 6.31225000e+03 5.70405310e+03 2.08029325e+01
v 6.31225000e+03 5.70645558e+03 2.07727366e+01
v 6.31225000e+03 5.70625555e+03 2.07696130e+01
v 6.31225000e+03 5.70682216e+03 2.07587020e+01
v 6.31225000e+03 5.70950512e+03 2.08698894e+01
v 6.31225000e+03 5.71319381e+03 2.06739831e+01
v 6.31225000e+03 5.71256246e+03 2.06900131e+01
v 6.31225000e+03 5.71237835e+03 2.06881463e+01
v 6.31225000e+03 5.71401104e+03 2.08811024e+01
v 6.31225000e+03 5.71425509e+03 2.07273612e+01
v 6.31225000e+03 5.71654099e+03 2.11780145e+01
v 6.31225000e+03 5.71646505e+03 2.44741230e+01
v 6.31225000e+03 5.71642939e+03 2.63428304e+01
v 6.31225000e+03 5.71647392e+03 2.52220530e+01
v 6.31225000e+03 5.70658299e+03 3.38052783e+01
v 6.31225000e+03 5.70696246e+03 3.38781402e+01
v 6.31225000e+03 5.70656157e+03 3.37998102e+01
v 6.31225000e+03 5.70700438e+03 3.32998996e+01
v 6.31225000e+03 5.71647377e+03 3.24098336e+01
v 6.31225000e+03 5.71650050e+03 3.15940462e+01
v 6.31225000e+03 5.71807944e+03 3.59355783e+01
v 6.31225000e+03 5.71844911e+03 3.60077974e+01
v 6.31225000e+03 5.69284868e+03 1.87482200e+01
v 6.31225000e+03 5.69096440e+03 1.86494061e+01
v 6.31225000e+03 5.69013210e+03 1.87611978e+01
v 6.31225000e+03 5.68743573e+03 1.87207318e+01
v 6.31225000e+03 5.68766900e+03 1.86310245e+01
v 6.31225000e+03 5.68978388e+03 1.87715222e+01
v 6.31225000e+03 5.69333809e+03 1.88921894e+01
v 6.31225000e+03 5.69391985e+03 1.87697558e+01
v 6.31225000e+03 5.69653866e+03 1.88095356e+01
v 6.31225000e+03 5.69588556e+03 1.88118117e+01
v 6.31225000e+03 5.69425514e+03 1.87451126e+01
v 6.31225000e+03 5.70236894e+03 1.87137478e+01
v 6.31225000e+03 5.70105204e+03 1.87384831e+01
v 6.31225000e+03 5.69564229e+03 1.87442834e+01
v 6.31225000e+03 5.69130912e+03 1.87312401e+01
v 6.31225000e+03 5.69687239e+03 1.86607849e+01
v 6.31225000e+03 5.69191796e+03 1.88959659e+01
v 6.31225000e+03 5.68992733e+03 1.87965275e+01
v 6.31225000e+03 5.68857354e+03 1.88171922e+01
v 6.34400000e+03 5.70041691e+03 1.86312137e+00
v 6.34400000e+03 5.70298617e+03 1.84124286e+00
v 6.34400000e+03 5.70920850e+03 1.84816694e+00
v 6.34400000e+03 5.70649335e+03 1.80438254e+00
v 6.34400000e+03 5.69086714e+03 1.69254205e+00
v 6.34400000e+03 5.69130449e+03 1.69474084e+00
v 6.34400000e+03 5.71888076e+03 1.97303515e+00
v 6.34400000e+03 5.71773531e+03 1.92922183e+00
v 6.34400000e+03 5.71016429e+03 1.90960097e+00
v 6.34400000e+03 5.71361170e+03 1.97524544e+00
v 6.34400000e+03 5.71734203e+03 1.93905081e+00
v 6.34400000e+03 5.70540422e+03 1.82750940e+00
v 6.34400000e+03 5.70576662e+03 1.78764482e+00
v 6.31901444e+03 5.68725000e+03 1.86255350e+01
v 6.31611464e+03 5.68725000e+03 1.86271751e+01
v 6.31571139e+03 5.68725000e+03 1.86703300e+01
v 6.31482419e+03 5.68725000e+03 1.88273353e+01
v 6.31378371e+03 5.68725000e+03 1.87187581e+01
v 6.32394395e+03 5.68725000e+03 1.86149877e+01
v 6.32359115e+03 5.68725000e+03 1.86770907e+01
v 6.32122257e+03 5.68725000e+03 1.86370263e+01
v 6.32217726e+03 5.68725000e+03 1.86231641e+01
v 6.33573372e+03 5.68725000e+03 3.07382151e+00
v 6.33606119e+03 5.68725000e+03 2.12910632e+00
v 6.33203857e+03 5.68725000e+03 1.23768086e+01
v 6.33203109e+03 5.68725000e+03 1.18528485e+01
v 6.33198146e+03 5.68725000e+03 1.35132628e+01
v 6.33189549e+03 5.68725000e+03 1.33738588e+01
v 6.33207480e+03 5.68725000e+03 1.17529163e+01
v 6.33209276e+03 5.68725000e+03 1.14583100e+01
v 6.33182634e+03 5.68725000e+03 1.05724002e+01
v 6.33438549e+03 5.68725000e+03 6.67435047e+00
v 6.33385995e+03 5.68725000e+03 6.32955727e+00
v 6.33471694e+03 5.68725000e+03 7.06627336e+00
v 6.33501761e+03 5.68725000e+03 6.98838644e+00
v 6.33205224e+03 5.68725000e+03 8.46768254e+00
v 6.33195608e+03 5.68725000e+03 9.18955390e+00
v 6.33520599e+03 5.68725000e+03 6.86347521e+00
v 6.33271115e+03 5.68725000e+03 6.15077007e+00
v 6.33199540e+03 5.68725000e+03 6.41947513e+00
v 6.33185671e+03 5.68725000e+03 6.53582102e+00
v 6.33512377e+03 5.68725000e+03 5.69645808e+00
v 6.33508193e+03 5.68725000e+03 5.05059213e+00
v 6.33828866e+03 5.68725000e+03 1.40212473e+00
v 6.34146714e+03 5.68725000e+03 1.60553523e+00
v 6.34189305e+03 5.68725000e+03 1.63500374e+00
v 6.33690370e+03 5.68725000e+03 1.51182289e+00
v 6.33712409e+03 5.68725000e+03 1.49300572e+00
v 6.33669091e+03 5.68725000e+03 1.59421177e+00
v 6.32514213e+03 5.68725000e+03 1.86388612e+01
v 6.32730114e+03 5.68725000e+03 1.86566278e+01
v 6.33200512e+03 5.68725000e+03 1.87142180e+01
v 6.33206914e+03 5.68725000e+03 1.71375034e+01
v 6.33196143e+03 5.68725000e+03 1.70698018e+01
v 6.33211058e+03 5.68725000e+03 1.64933235e+01
v 6.33187900e+03 5.68725000e+03 1.53400144e+01
v 6.33209363e+03 5.68725000e+03 1.38251023e+01
v 6.33199874e+03 5.68725000e+03 1.01744464e+01
v 6.33187145e+03 5.68725000e+03 6.67729136e+00
v 6.33186572e+03 5.68725000e+03 1.45156222e+01
v 6.31310815e+03 5.68725000e+03 1.87513171e+01
v 6.31225000e+03 5.68725000e+03 1.87926754e+01
v 6.34266397e+03 5.68725000e+03 1.64940261e+00
v 6.34400000e+03 5.68725000e+03 1.65715777e+00
v 6.32592197e+03 5.71900000e+03 4.85929887e+00
v 6.32594305e+03 5.71900000e+03 6.83273558e+00
v 6.32565686e+03 5.71900000e+03 3.91521090e+00
v 6.32590208e+03 5.71900000e+03 4.20398106e+00
v 6.32590666e+03 5.71900000e+03 3.13998281e+00
v 6.32651241e+03 5.71900000e+03 2.42093663e+00
v 6.32671239e+03 5.71900000e+03 1.89196782e+00
v 6.32559018e+03 5.71900000e+03 7.31994800e+00
v 6.32574989e+03 5.71900000e+03 1.74336602e+01
v 6.32567211e+03 5.71900000e+03 1.06887214e+01
v 6.32538034e+03 5.71900000e+03 9.20783460e+00
v 6.31700690e+03 5.71900000e+03 2.12907177e+01
v 6.31726644e+03 5.71900000e+03 2.11502463e+01
v 6.31620693e+03 5.71900000e+03 2.14602387e+01
v 6.31639986e+03 5.71900000e+03 2.14543617e+01
v 6.31725601e+03 5.71900000e+03 2.08038379e+01
v 6.31274798e+03 5.71900000e+03 2.44973815e+01
v 6.31290140e+03 5.71900000e+03 2.58810698e+01
v 6.31286639e+03 5.71900000e+03 3.49868207e+01
v 6.31293537e+03 5.71900000e+03 3.64343644e+01
v 6.31443569e+03 5.71900000e+03 2.14769137e+01
v 6.31714162e+03 5.71900000e+03 1.87824593e+01
v 6.31721782e+03 5.71900000e+03 2.05102112e+01
v 6.31679555e+03 5.71900000e+03 2.14742938e+01
v 6.32575530e+03 5.71900000e+03 1.87641405e+01
v 6.32477248e+03 5.71900000e+03 1.87388518e+01
v 6.31799216e+03 5.71900000e+03 1.87858777e+01
v 6.32031350e+03 5.71900000e+03 1.87658169e+01
v 6.32078945e+03 5.71900000e+03 1.87360980e+01
v 6.32220802e+03 5.71900000e+03 1.87156108e+01
v 6.32532891e+03 5.71900000e+03 7.60272950e+00
v 6.32520416e+03 5.71900000e+03 8.54590111e+00
v 6.32892602e+03 5.71900000e+03 1.41262677e+00
v 6.32891098e+03 5.71900000e+03 1.41239908e+00
v 6.32880826e+03 5.71900000e+03 1.43409725e+00
v 6.32677685e+03 5.71900000e+03 1.84784308e+00
v 6.32761713e+03 5.71900000e+03 1.70633667e+00
v 6.32868124e+03 5.71900000e+03 1.42758474e+00
v 6.32960895e+03 5.71900000e+03 1.44180628e+00
v 6.33619226e+03 5.71900000e+03 1.74055940e+00
v 6.31280329e+03 5.71900000e+03 2.14775719e+01
v 6.31276036e+03 5.71900000e+03 2.38215063e+01
v 6.31287159e+03 5.71900000e+03 2.56122775e+01
v 6.31288720e+03 5.71900000e+03 3.03968797e+01
v 6.31287217e+03 5.71900000e+03 3.37117379e+01
v 6.31291489e+03 5.71900000e+03 3.60046410e+01
v 6.31225000e+03 5.71900000e+03 3.61359852e+01
v 6.31287155e+03 5.71900000e+03 2.76619782e+01
v 6.34136545e+03 5.71900000e+03 1.90810706e+00
v 6.34400000e+03 5.71900000e+03 1.97655052e+00
vt 0.010078368 0.9396193
vt 0.024268722 0.9439804
vt 0.0042317128 0.97124189
vt 0.046234041 0.91497087
vt 0.026887417 0.99269176
vt 0.059021167 0.99560988
vt 0.017410843 0.91175455
vt 0.040406521 0.9956134
vt 0.057036631 0.99561059
vt 0.060626496 0.99560958
vt 0.024394859 0.89079213
vt 0.027275478 0.99561638
vt 0.087262549 0.87798226
vt 0.049860068 0.87141502
vt 0.026267642 0.99561632
vt 0.083536558 0.83265078
vt 0.060861528 0.99560952
vt 0.030789407 0.8713237
vt 0.11209281 0.81445652
vt 0.090084776 0.78283054
vt 0.18362534 0.95612651
vt 0.12561122 0.73820043
vt 0.071531959 0.99560577
vt 0.19686876 0.85326707
vt 0.10306815 0.73604053
vt 0.20103729 0.7178055
vt 0.17439285 0.99556965
vt 0.27755427 0.84130496
vt 0.1108592 0.71162403
vt 0.13920163 0.67896712
vt 0.25522214 0.99554187
vt 0.28096259 0.78642142
vt 0.29634234 0.85747033
vt 0.18340628 0.61268771
vt 0.29638571 0.99366492
vt 0.29629359 0.70516741
vt 0.29633823 0.84253645
vt 0.29635903 0.91133553
vt 0.25665408 0.49944919
vt 0.16292889 0.5725739
vt 0.29638627 0.99552792
vt 0.29401392 0.97378242
vt 0.29630685 0.74531245
vt 0.29624945 0.562787
vt 0.29632503 0.80011261
vt 0.2633085 0.49944675
vt 0.20699251 0.49946719
vt 0.18535122 0.49947321
vt 0.29638043 0.97576761
vt 0.29631925 0.7830947
vt 0.29624727 0.5559535
vt 0.29632154 0.78875756
vt 0.29637831 0.96962237
vt 0.188795 0.49947226
vt 0.16589335 0.52843672
vt 0.27535394 0.4994427
vt 0.18202537 0.49947351
vt 0.29622939 0.4994359
vt 0.17217961 0.49947172
vt 0.60875225 0.49940467
vt 0.56082982 0.50130409
vt 0.56344259 0.49941933
vt 0.60907894 0.50707316
vt 0.5571413 0.499421
vt 0.67262542 0.52534997
vt 0.57015234 0.51459217
vt 0.53877336 0.51527631
vt 0.64325422 0.49939334
vt 0.60601717 0.54626393
vt 0.55186689 0.52648854
vt 0.54327673 0.49942404
vt 0.65817159 0.49938869
vt 0.6254769 0.58148897
vt 0.56890011 0.53752649
vt 0.51025677 0.50519156
vt 0.68026298 0.49938101
vt 0.63724488 0.63301075
vt 0.60246378 0.5612185
vt 0.5442735 0.55249643
vt 0.51304215 0.53910989
vt 0.50559056 0.52069461
vt 0.52702051 0.4994303
vt 0.68577623 0.49937975
vt 0.59908485 0.58771265
vt 0.6867131 0.61540461
vt 0.59007645 0.57190228
vt 0.54710782 0.56793571
vt 0.50305712 0.50234008
vt 0.50305939 0.50598568
vt 0.70449764 0.4993735
vt 0.59826016 0.61594152
vt 0.61570448 0.71710467
vt 0.77614075 0.61837482
vt 0.50307584 0.55747646
vt 0.50307661 0.56286204
vt 0.50306726 0.53694355
vt 0.51646435 0.4994334
vt 0.50306171 0.52011752
vt 0.73823225 0.49936235
vt 0.58625752 0.633165
vt 0.58104187 0.60148472
vt 0.52359438 0.58069927
vt 0.58103454 0.64851755
vt 0.71403009 0.71142226
vt 0.79856533 0.54295337
vt 0.50307029 0.54447067
vt 0.50307775 0.57237375
vt 0.50306183 0.52102661
vt 0.50306839 0.5390296
vt 0.50305533 0.49943739
vt 0.54634774 0.62460089
vt 0.54888505 0.61325753
vt 0.52979946 0.60472441
vt 0.52063835 0.59199381
vt 0.58305788 0.76682454
vt 0.61868483 0.79036546
vt 0.76520157 0.66208017
vt 0.7889607 0.5779143
vt 0.50308222 0.58021623
vt 0.5030688 0.54127073
vt 0.81173158 0.49933803
vt 0.52468574 0.63921279
vt 0.50308418 0.58691764
vt 0.5341925 0.71551895
vt 0.7277028 0.81945246
vt 0.75549829 0.69680947
vt 0.50308365 0.58305174
vt 0.50310212 0.64457333
vt 0.50309879 0.63436848
vt 0.50308496 0.59456325
vt 0.59269047 0.8359884
vt 0.56072444 0.76489103
vt 0.50311393 0.67759752
vt 0.72834069 0.78693646
vt 0.62194359 0.87392956
vt 0.73411536 0.71320724
vt 0.50310558 0.64978915
vt 0.50309837 0.63056809
vt 0.51285762 0.61766338
vt 0.50308937 0.6036545
vt 0.56186336 0.7921645
vt 0.54139179 0.75453502
vt 0.50312424 0.70966578
vt 0.73735034 0.75445163
vt 0.64177066 0.95528054
vt 0.74459213 0.72922325
vt 0.50309563 0.62458318
vt 0.50309241 0.61571288
vt 0.50309134 0.60889363
vt 0.59753549 0.96666718
vt 0.57771009 0.88603401
vt 0.51923597 0.75440115
vt 0.50312585 0.71509588
vt 0.73799282 0.91422981
vt 0.50309181 0.61997873
vt 0.55994296 0.84267062
vt 0.50313729 0.74899828
vt 0.50313276 0.73567277
vt 0.6292091 0.99549305
vt 0.75238091 0.86640221
vt 0.71423775 0.99546552
vt 0.56108665 0.92013031
vt 0.63664627 0.99549097
vt 0.59293771 0.99550468
vt 0.69888145 0.99547076
vt 0.56022298 0.98248714
vt 0.55736935 0.85603988
vt 0.65881175 0.99548393
vt 0.57964808 0.99550903
vt 0.54894078 0.9399581
vt 0.55510867 0.92018139
vt 0.53660321 0.96469522
vt 0.52842939 0.95578474
vt 0.53540903 0.92532563
vt 0.18624277 0.47252262
vt 0.13911954 0.47596425
vt 0.14372574 0.45465571
vt 0.23617154 0.44517183
vt 0.16708052 0.48355788
vt 0.09838777 0.48218715
vt 0.25522274 0.46696717
vt 0.2189047 0.42785209
vt 0.13753948 0.48149538
vt 0.043535355 0.46227127
vt 0.29550704 0.43819267
vt 0.16589539 0.40627515
vt 0.24559326 0.39852333
vt 0.10964137 0.44367594
vt 0.049144529 0.48512965
vt 0.11109402 0.48577684
vt 0.30936053 0.46116084
vt 0.11475112 0.40893143
vt 0.19130622 0.40479857
vt 0.22034726 0.3936621
vt 0.059112135 0.43983638
vt 0.010727485 0.47404999
vt 0.068938598 0.4883576
vt 0.097004242 0.4896304
vt 0.30488929 0.40821505
vt 0.28133675 0.46954095
vt 0.34596491 0.43152362
vt 0.17827219 0.38322657
vt 0.032521211 0.41074711
vt 0.011032518 0.46554548
vt 0.010128339 0.48937178
vt 0.040281069 0.49428767
vt 0.29307041 0.38645774
vt 0.29696542 0.47036546
vt 0.36139888 0.45373636
vt 0.073003106 0.39889985
vt 0.0063136378 0.43421042
vt 0.011493403 0.49235326
vt 0.34216732 0.39509523
vt 0.38623798 0.4257701
vt 0.0039426275 0.41912645
vt 0.013672542 0.49545878
vt 0.34024912 0.37782276
vt 0.39020836 0.3964169
vt 0.39896864 0.41415471
vt 0.80375177 0.40661401
vt 0.7875942 0.38174736
vt 0.80544156 0.37338805
vt 0.78589159 0.39684552
vt 0.78929996 0.36584675
vt 0.78078306 0.41234797
vt 0.77380854 0.39276183
vt 0.77836353 0.37192112
vt 0.792988 0.3423385
vt 0.78744048 0.42018932
vt 0.76640123 0.38516945
vt 0.77479333 0.34537208
vt 0.80744499 0.42563337
vt 0.77707082 0.427463
vt 0.76341468 0.36528575
vt 0.789011 0.43685955
vt 0.76468712 0.41218728
vt 0.75161833 0.38682365
vt 0.74801832 0.34514171
vt 0.80674857 0.45815653
vt 0.77624184 0.44697368
vt 0.77350354 0.40452242
vt 0.76585805 0.43854493
vt 0.74269253 0.37021416
vt 0.76344419 0.33380878
vt 0.74290395 0.41631943
vt 0.7276957 0.37046123
vt 0.72639996 0.32372135
vt 0.80454063 0.47495872
vt 0.77003843 0.49475807
vt 0.74397117 0.4527961
vt 0.71665394 0.35174668
vt 0.72226709 0.30711716
vt 0.74385971 0.49371272
vt 0.73522663 0.43902469
vt 0.71724027 0.38586193
vt 0.72105694 0.3180564
vt 0.71615881 0.36960536
vt 0.80368215 0.49514407
vt 0.73052675 0.47238183
vt 0.72535944 0.4290663
vt 0.71640372 0.40613115
vt 0.70292705 0.330845
vt 0.70195228 0.30583405
vt 0.70073855 0.36027688
vt 0.7153452 0.47049695
vt 0.7156384 0.42578876
vt 0.70989513 0.49225783
vt 0.70468605 0.38669628
vt 0.70515329 0.43758243
vt 0.69468963 0.42725211
vt 0.67296988 0.33296633
vt 0.68212581 0.30382496
vt 0.68958932 0.39028031
vt 0.67804867 0.35460669
vt 0.6826396 0.36686128
vt 0.68347788 0.47298956
vt 0.67649794 0.45707572
vt 0.66947073 0.39853728
vt 0.66044337 0.30519307
vt 0.66803604 0.36146814
vt 0.67391223 0.49347931
vt 0.66455001 0.43493599
vt 0.66121602 0.3290363
vt 0.6482228 0.35211462
vt 0.64930779 0.4638359
vt 0.65097982 0.42477322
vt 0.66427362 0.37710458
vt 0.64673084 0.33133894
vt 0.65179193 0.36658508
vt 0.62889105 0.49157083
vt 0.64049506 0.43452567
vt 0.6427809 0.39685893
vt 0.64382213 0.38170195
vt 0.61012155 0.30510771
vt 0.63970697 0.36450028
vt 0.6077069 0.46722633
vt 0.61146623 0.44215429
vt 0.62407875 0.42128664
vt 0.63023138 0.29665262
vt 0.61845213 0.3460595
vt 0.58665818 0.49205136
vt 0.61965173 0.38825864
vt 0.62037212 0.40368968
vt 0.58721179 0.29605424
vt 0.5980013 0.32750857
vt 0.62327194 0.36664569
vt 0.59091812 0.46283406
vt 0.5952037 0.42150313
vt 0.59173226 0.30402482
vt 0.60431522 0.34276068
vt 0.60575593 0.36761981
vt 0.58770853 0.44065118
vt 0.5751617 0.46057439
vt 0.60205835 0.39859426
vt 0.54916251 0.30606186
vt 0.5764997 0.33410114
vt 0.55046892 0.49068737
vt 0.57581967 0.41246426
vt 0.59322786 0.38296711
vt 0.59041828 0.3652249
vt 0.55145377 0.42570573
vt 0.54018676 0.33751255
vt 0.57554394 0.37318635
vt 0.54542083 0.40126586
vt 0.55362087 0.38371211
vt 0.56105959 0.35438752
vt 0.53012836 0.31444633
vt 0.52918822 0.42181855
vt 0.54384959 0.36760104
vt 0.50850844 0.30256712
vt 0.55965185 0.36752504
vt 0.5288958 0.38096863
vt 0.51185435 0.41192788
vt 0.53993964 0.43681401
vt 0.52858424 0.35424888
vt 0.5155226 0.33502913
vt 0.52314734 0.39215708
vt 0.52708286 0.44332343
vt 0.53175694 0.36460912
vt 0.50499392 0.33240402
vt 0.50503951 0.38432682
vt 0.51609522 0.45747584
vt 0.50501192 0.39233106
vt 0.51343101 0.3649413
vt 0.50558817 0.30552036
vt 0.50529885 0.34375221
vt 0.50489932 0.38266426
vt 0.50550616 0.43820632
vt 0.50546616 0.40803611
vt 0.50563657 0.30339748
vt 0.50555444 0.42561698
vt 0.50475252 0.45517725
vt 0.50518829 0.40991294
vt 0.50515485 0.3587119
vt 0.50484341 0.378097
vt 0.50482488 0.41435248
vt 0.50570756 0.3653273
vt 0.81106418 0.81535339
vt 0.79916513 0.80923098
vt 0.81308812 0.80525118
vt 0.83324522 0.80711341
vt 0.787588 0.80760753
vt 0.83324236 0.81797826
vt 0.78155094 0.8115499
vt 0.85162807 0.82253361
vt 0.82052708 0.8396908
vt 0.85287911 0.8073945
vt 0.77721035 0.84174174
vt 0.86374819 0.8149792
vt 0.86113083 0.86126214
vt 0.77459401 0.91613251
vt 0.86632407 0.82664365
vt 0.89565051 0.82505089
vt 0.82783747 0.99377418
vt 0.88743168 0.81213534
vt 0.91412252 0.8478514
vt 0.91173553 0.97574073
vt 0.7783013 0.99282652
vt 0.9127906 0.81912225
vt 0.91524887 0.83725083
vt 0.91225588 0.87135094
vt 0.91169626 0.99631131
vt 0.91445643 0.82294005
vt 0.91054118 0.81233901
vt 0.91068268 0.78180015
vt 0.88270634 0.77855062
vt 0.9108119 0.77163196
vt 0.83539134 0.78123218
vt 0.91237736 0.76665175
vt 0.87444586 0.75073969
vt 0.8952089 0.76086909
vt 0.83270001 0.74815965
vt 0.77858275 0.7792291
vt 0.86113167 0.73354018
vt 0.89238799 0.72969037
vt 0.79032892 0.7549327
vt 0.81071222 0.74394518
vt 0.44242194 0.81123447
vt 0.46039134 0.78123218
vt 0.51243168 0.81213534
vt 0.40358275 0.7792291
vt 0.37854919 0.8084662
vt 0.35029021 0.85495353
vt 0.35396329 0.82991678
vt 0.36876291 0.85256761
vt 0.32030153 0.86051977
vt 0.37179306 0.806059
vt 0.34008956 0.89180905
vt 0.3156642 0.84229416
vt 0.34436211 0.79416704
vt 0.31926686 0.89739788
vt 0.31566083 0.83242911
vt 0.31566587 0.85506147
vt 0.37283859 0.75823903
vt 0.31567842 0.89486462
vt 0.34837145 0.90080333
vt 0.31566894 0.85887629
vt 0.31565991 0.82955235
vt 0.34895146 0.7257567
vt 0.31567088 0.86269802
vt 0.33539763 0.90679413
vt 0.31564322 0.78465629
vt 0.37300968 0.70180911
vt 0.31562895 0.73700774
vt 0.37840664 0.92792118
vt 0.31563097 0.74273586
vt 0.34176633 0.69467783
vt 0.37751162 0.93298906
vt 0.31562796 0.73388231
vt 0.34983563 0.93299788
vt 0.38052624 0.93298811
vt 0.31561643 0.69946855
vt 0.32432923 0.93300611
vt 0.38670868 0.9329859
vt 0.31622016 0.69080055
vt 0.0072392067 0.69656163
vt 0.0032143015 0.67545474
vt 0.015189572 0.67852926
vt 0.030699447 0.70222533
vt 0.0084709562 0.65440357
vt 0.007296226 0.71733296
vt 0.042533733 0.68590343
vt 0.033414114 0.65515774
vt 0.034135111 0.71386403
vt 0.023891149 0.62677395
vt 0.033954687 0.74521983
vt 0.050246302 0.65426576
vt 0.053550404 0.67762125
vt 0.053218953 0.63079381
vt 0.047125921 0.61320961
vt 0.062006447 0.62707853
vt 0.041665412 0.58655155
vt 0.066766672 0.59972262
vt 0.057805285 0.58083248
vt 0.037737414 0.54684353
vt 0.069389544 0.57167989
vt 0.058542103 0.54108936
vt 0.072937846 0.54011434
vt 0.047919706 0.52953458
vt 0.088634044 0.53124386
vt 0.057186022 0.51901615
vt 0.067295 0.53067017
vt 0.085505806 0.51489294
vt 0.081073113 0.55963099
vt 0.05089115 0.50806659
vt 0.091255315 0.5052973
vt 0.065099865 0.50531065
vt 0.096429586 0.505292
vt 0.083047859 0.5053032
vt 0.053913064 0.50531185
vt 0.051744621 0.50531143
vt 0.95718616 0.84922737
vt 0.95709336 0.91725373
vt 0.9407903 0.91116399
vt 0.94047964 0.86988324
vt 0.96697962 0.86739337
vt 0.94164509 0.92280591
vt 0.9406181 0.842318
vt 0.98154694 0.8142035
vt 0.96322685 0.961236
vt 0.94122702 0.93528557
vt 0.95324528 0.82209086
vt 0.98193109 0.83091021
vt 0.98159444 0.80381268
vt 0.95099908 0.9887473
vt 0.98192626 0.9041574
vt 0.94061798 0.98528606
vt 0.94131178 0.82517773
vt 0.95838678 0.76548326
vt 0.98202372 0.83493805
vt 0.98175919 0.76777726
vt 0.96181208 0.99297673
vt 0.98183995 0.95498216
vt 0.98190743 0.86230922
vt 0.94118476 0.81371462
vt 0.94587141 0.75888014
vt 0.98180676 0.97453231
vt 0.94238394 0.76327121
vt 0.98195082 0.98997802
vt 0.94265378 0.75919902
vt 0.98201168 0.99649918
vt 0.38396621 0.62044895
vt 0.37969989 0.59335244
vt 0.40716261 0.58141464
vt 0.4072561 0.63249308
vt 0.38840404 0.58157259
vt 0.42120755 0.59097791
vt 0.38556659 0.65573049
vt 0.40602672 0.56446165
vt 0.42861289 0.58182025
vt 0.43579507 0.63374931
vt 0.4036105 0.66712958
vt 0.44171843 0.56540275
vt 0.38706335 0.55194807
vt 0.45237657 0.59568453
vt 0.38605043 0.67324173
vt 0.42873141 0.55380499
vt 0.41399428 0.5496971
vt 0.4393805 0.58693147
vt 0.43182263 0.68275928
vt 0.45465854 0.6567511
vt 0.39215803 0.70973772
vt 0.45685443 0.5631789
vt 0.44230968 0.68877095
vt 0.42097452 0.70493174
vt 0.46647182 0.66758639
vt 0.40966508 0.70953006
vt 0.44363537 0.74208868
vt 0.41739547 0.74323261
vt 0.45611876 0.73523033
vt 0.46709293 0.59298253
vt 0.38810515 0.72565246
vt 0.47032839 0.74378252
vt 0.38796917 0.7463969
vt 0.45611876 0.92273033
vt 0.47032839 0.93128246
vt 0.41739547 0.93073261
vt 0.45459035 0.87729555
vt 0.4615261 0.88668668
vt 0.45963421 0.89807892
vt 0.47591579 0.88685489
vt 0.45653206 0.85614413
vt 0.4883343 0.89555293
vt 0.45905507 0.84526396
vt 0.44133779 0.84969056
vt 0.48782724 0.8618331
vt 0.4875699 0.90896958
vt 0.485708 0.83262235
vt 0.4976958 0.89398646
vt 0.4913747 0.91223508
vt 0.47277868 0.82414639
vt 0.50235188 0.87796795
vt 0.50585103 0.91003531
vt 0.4956612 0.92284602
vt 0.52305675 0.93470156
vt 0.50113678 0.93316424
vt 0.5172528 0.94151998
vt 0.52892715 0.96261609
vt 0.50598973 0.95184267
vt 0.54386723 0.99645871
vt 0.51347232 0.96880209
vt 0.52361059 0.97980678
vt 0.88222951 0.66395897
vt 0.87978959 0.58899188
vt 0.88990879 0.5965538
vt 0.90403885 0.64193213
vt 0.88024151 0.64904338
vt 0.88814771 0.58932984
vt 0.89748663 0.67022353
vt 0.87929368 0.58770108
vt 0.87903291 0.69052744
vt 0.92509198 0.74522686
vt 0.92506635 0.74561024
vt 0.92405754 0.74478614
vt 0.89288479 0.52421027
vt 0.90649748 0.52735996
vt 0.91835266 0.55400455
vt 0.87134141 0.5565908
vt 0.96346039 0.53911471
vt 0.85990119 0.52902281
vt 0.96973085 0.52406979
vt 0.96448904 0.55352175
vt 0.8430649 0.52412307
vt 0.81660986 0.52971309
vt 0.81608456 0.55922079
vt 0.12508601 0.65009034
vt 0.12106741 0.62796581
vt 0.13051349 0.63783324
vt 0.10822464 0.63472509
vt 0.10237312 0.6113925
vt 0.11746925 0.66616571
vt 0.06730321 0.62196726
vt 0.12318048 0.66825831
vt 0.098237082 0.66012108
vt 0.11776735 0.6836586
vt 0.10271382 0.67761672
vt 0.39062151 0.90014315
vt 0.37843081 0.89288145
vt 0.38005126 0.86258084
vt 0.39210576 0.85885096
vt 0.44599524 0.8981005
vt 0.44588131 0.89269221
vt 0.44302714 0.90010542
vt 0.42151541 0.86090457
vt 0.43108243 0.90260828
vt 0.44544923 0.88808703
vt 0.44060907 0.90281677
vt 0.44460437 0.86109537
vt 0.48759255 0.99548781
vt 0.45309401 0.96237189
vt 0.46452251 0.94731486
vt 0.48536241 0.96614921
vt 0.44240066 0.99423611
vt 0.47665566 0.94185096
vt 0.48875245 0.92963207
vt 0.44199798 0.9700073
vt 0.34325013 0.99248999
vt 0.31788704 0.99123526
vt 0.33334377 0.95931137
vt 0.35547492 0.9613319
vt 0.31729764 0.98976284
vt 0.37417036 0.99566799
vt 0.31748337 0.95800513
vt 0.37436077 0.96634221
vt 0.42438811 0.96471572
vt 0.4261761 0.993038
vt 0.38019091 0.97455239
vt 0.37948474 0.9606452
vt 0.424986 0.96472704
vt 0.38010728 0.97491223
vt 0.42341021 0.96397722
vt 0.37946507 0.97467154
vt 0.43217182 0.9899931
vt 0.42440918 0.96449953
vt 0.42562607 0.99303645
vt 0.43154547 0.99540448
vt 0.42594224 0.99317539
vt 0.74230427 0.97935045
vt 0.72306532 0.98219371
vt 0.74645478 0.96276432
vt 0.77232575 0.96647882
vt 0.72420472 0.99676555
vt 0.72853529 0.9669655
vt 0.77193415 0.99663723
vt 0.73934615 0.99506539
vt 0.050881054 0.82979381
vt 0.035895329 0.85264844
vt 0.032543294 0.83496481
vt 0.051981989 0.85584325
vt 0.0042433329 0.84274113
vt 0.043539356 0.86975127
vt 0.006534209 0.86058563
vt 0.020965144 0.87095594
vt 0.39164487 0.93358219
vt 0.40607384 0.94704765
vt 0.37788633 0.9488014
vt 0.36375797 0.94510025
vt 0.44088316 0.9413169
vt 0.44955999 0.96461999
vt 0.43510783 0.94176525
vt 0.45845103 0.95283341
vt 0.4265075 0.95423961
vt 0.45862305 0.94027066
vt 0.42650127 0.94256008
vt 0.46655363 0.93969935
vt 0.34020859 0.99625784
vt 0.31360868 0.9966833
vt 0.30135289 0.99013305
vt 0.34810299 0.86811751
vt 0.36790136 0.87622899
vt 0.3528339 0.89499438
vt 0.37761167 0.86648303
vt 0.37224674 0.90185624
vt 0.3740657 0.88960987
vt 0.37846076 0.87570524
vt 0.37991562 0.8671481
vt 0.92745394 0.98665047
vt 0.93861812 0.97588843
vt 0.9378913 0.99662113
vt 0.92592031 0.9660098
vt 0.0040242579 0.97203356
vt 0.01361888 0.9802466
vt 0.01765161 0.99580294
vt 0.54353201 0.99463683
vt 0.55436754 0.98924923
vt 0.54314089 0.99636412
vt 0.54299468 0.9879173
usemtl Tile_+032_+023_L19_000230_0
f 30/358 29/359 124/360
f 111/403 107/404 116/405
f 127/669 129/670 21/671
f 125/386 21/391 474/389
f 39/502 136/503 34/504
f 34/504 33/505 39/502
f 33/505 5/512 135/508
f 38/518 32/509 134/514
f 38/538 132/539 35/540
f 474/673 129/670 476/674
f 126/1 128/2 127/3
f 476/674 130/672 477/675
f 24/392 126/394 22/390
f 472/385 125/386 475/387
f 41/372 122/369 27/373
f 20/361 18/365 26/363
f 122/369 41/372 18/365
f 122/369 123/375 27/373
f 20/361 26/363 30/358
f 124/360 20/361 30/358
f 26/363 25/366 30/358
f 18/365 41/372 28/370
f 28/370 25/366 18/365
f 108/406 14/411 341/415
f 114/423 75/414 113/419
f 421/60 95/61 422/62
f 110/597 109/598 16/599
f 47/77 68/103 58/100
f 104/472 103/473 345/474
f 104/472 97/476 103/473
f 103/473 97/476 13/480
f 49/86 90/84 91/102
f 72/114 91/102 90/84
f 64/575 82/576 112/577
f 112/577 75/578 64/575
f 10/150 11/131 84/135
f 88/112 73/113 89/101
f 74/81 66/80 351/96
f 33/505 120/511 5/512
f 84/135 9/125 53/145
f 54/115 55/92 52/116
f 68/103 47/77 55/92
f 83/638 117/639 15/640
f 135/508 39/502 33/505
f 115/617 118/618 70/619
f 69/124 68/103 54/115
f 114/622 115/617 80/620
f 70/619 118/618 361/621
f 119/563 118/564 363/565
f 357/571 12/573 365/574
f 339/572 119/563 366/569
f 118/564 119/563 356/567
f 115/427 113/419 368/424
f 70/619 80/620 115/617
f 78/583 76/580 79/584
f 115/427 114/423 113/419
f 76/580 75/578 79/584
f 75/578 114/585 79/584
f 75/414 106/410 113/419
f 367/432 115/427 369/429
f 112/407 106/410 75/414
f 368/424 106/410 370/426
f 107/404 112/407 116/405
f 82/576 117/579 112/577
f 117/639 83/638 116/642
f 117/579 116/582 112/577
f 83/638 111/645 116/642
f 107/404 106/410 112/407
f 111/403 108/406 107/404
f 14/411 109/408 110/416
f 14/496 99/489 105/482
f 99/421 110/416 98/425
f 109/644 111/645 83/638
f 483/603 110/597 484/601
f 484/601 96/600 487/602
f 16/599 96/600 110/597
f 16/641 109/644 83/638
f 108/406 109/408 14/411
f 110/416 99/421 14/411
f 108/406 111/403 109/408
f 107/404 108/406 372/409
f 106/410 107/404 373/412
f 104/472 99/489 512/491
f 377/498 105/482 378/495
f 104/472 105/482 99/489
f 105/482 104/472 379/478
f 97/476 104/472 488/479
f 12/625 100/626 17/627
f 359/630 100/626 383/635
f 103/473 102/485 343/487
f 13/480 97/476 515/486
f 387/658 101/659 388/660
f 101/492 102/485 13/480
f 101/492 13/480 490/497
f 99/421 98/425 485/428
f 487/602 7/604 494/606
f 44/69 57/74 45/63
f 57/74 61/70 45/63
f 61/70 62/66 45/63
f 66/80 56/79 390/94
f 62/66 95/61 45/63
f 56/79 66/80 57/74
f 95/61 62/66 60/67
f 424/71 65/75 425/82
f 48/73 94/78 44/69
f 9/125 50/104 93/134
f 46/85 50/104 55/92
f 47/77 87/91 90/84
f 73/113 88/112 71/111
f 79/132 80/142 69/124
f 50/104 52/116 55/92
f 55/92 54/115 68/103
f 44/69 94/78 49/86
f 90/84 89/101 73/113
f 73/113 72/114 90/84
f 87/91 88/112 89/101
f 57/74 44/69 56/79
f 43/87 56/79 44/69
f 54/115 79/132 69/124
f 67/139 73/113 71/111
f 61/70 74/81 60/67
f 71/111 88/112 87/91
f 87/91 89/101 90/84
f 48/73 42/65 47/77
f 53/145 85/154 496/161
f 52/116 9/125 84/135
f 10/150 7/166 77/162
f 77/162 63/151 10/150
f 77/162 81/171 82/167
f 77/162 8/170 81/171
f 52/116 11/131 54/115
f 78/141 79/132 54/115
f 64/156 78/141 63/151
f 11/131 63/151 78/141
f 76/580 78/583 64/575
f 82/167 64/156 77/162
f 16/173 15/174 8/170
f 84/135 53/145 10/150
f 82/576 81/581 117/579
f 8/170 96/172 16/173
f 395/130 73/113 396/140
f 65/75 60/67 74/81
f 389/123 72/114 395/130
f 73/113 67/139 355/148
f 71/111 59/122 398/129
f 80/142 70/152 69/124
f 397/128 68/103 404/137
f 353/147 71/111 402/138
f 43/87 91/102 349/119
f 403/95 43/87 405/107
f 66/80 74/81 61/70
f 393/89 74/81 407/98
f 425/82 392/88 468/97
f 43/87 49/86 91/102
f 60/67 62/66 61/70
f 423/64 60/67 424/71
f 58/100 68/103 59/122
f 71/111 58/100 59/122
f 8/170 77/162 7/166
f 63/151 77/162 64/156
f 68/103 69/124 347/133
f 84/135 11/131 52/116
f 493/169 10/150 498/164
f 47/77 58/100 87/91
f 499/159 53/145 500/163
f 50/104 9/125 52/116
f 9/125 85/154 53/145
f 90/84 49/86 48/73
f 47/77 42/65 46/85
f 42/65 45/63 421/60
f 42/65 44/69 45/63
f 48/73 49/86 94/78
f 47/77 46/85 55/92
f 90/84 48/73 47/77
f 49/86 43/87 44/69
f 135/220 40/221 39/222
f 32/509 38/518 35/517
f 136/503 31/506 34/504
f 27/373 123/375 479/379
f 134/514 32/509 31/506
f 35/540 132/539 137/541
f 34/504 31/506 32/509
f 32/509 36/513 34/504
f 35/517 36/513 32/509
f 127/395 22/390 126/394
f 21/391 125/386 22/390
f 127/395 21/391 22/390
f 24/392 22/390 131/388
f 18/365 20/361 19/367
f 20/559 121/558 19/561
f 121/558 122/562 19/561
f 18/365 19/367 122/369
f 482/376 27/373 503/380
f 25/366 26/363 18/365
f 15/174 81/171 8/170
f 63/151 11/131 10/150
f 64/575 75/578 76/580
f 58/100 71/111 87/91
f 42/65 48/73 44/69
f 12/625 17/627 360/628
f 80/620 79/624 114/622
f 100/626 12/625 340/629
f 13/480 102/485 103/473
f 61/70 57/74 66/80
f 7/166 96/172 8/170
f 83/638 15/640 16/641
f 78/141 54/115 11/131
f 117/639 81/643 15/640
f 69/124 70/152 362/157
f 6/522 51/516 5/512
f 135/508 5/512 51/516
f 28/370 41/372 27/373
f 36/513 37/510 34/504
f 3/40 2/34 1/30
f 333/227 291/234 292/231
f 321/302 195/314 319/319
f 38/538 134/545 252/542
f 39/222 332/224 136/228
f 332/224 39/222 40/221
f 286/320 315/311 319/319
f 250/436 248/437 249/438
f 280/175 282/176 238/177
f 268/463 261/458 274/462
f 273/459 264/461 255/457
f 230/32 229/26 408/36
f 269/322 267/336 265/330
f 317/331 320/325 193/329
f 133/507 305/515 120/511
f 20/559 124/556 206/557
f 208/552 216/549 299/546
f 206/557 207/555 121/558
f 217/24 214/21 218/19
f 226/203 239/184 430/211
f 223/213 221/218 222/214
f 222/393 219/396 24/392
f 134/646 293/647 312/648
f 243/445 259/450 283/449
f 3/210 241/192 240/195
f 238/177 237/188 241/192
f 227/22 228/20 233/25
f 328/280 338/274 331/275
f 31/649 136/651 293/647
f 136/228 332/224 292/231
f 290/238 291/234 334/243
f 315/311 286/320 285/310
f 212/289 313/284 328/280
f 289/264 331/275 338/274
f 298/586 302/587 300/588
f 204/553 216/549 208/552
f 247/271 289/264 338/274
f 323/246 330/257 308/251
f 289/264 308/251 330/257
f 120/511 305/515 201/521
f 321/302 324/306 211/295
f 334/243 291/234 322/237
f 292/596 297/591 136/595
f 332/224 333/227 292/231
f 120/511 166/520 5/512
f 331/275 326/273 328/280
f 323/246 329/255 330/257
f 163/292 327/293 160/278
f 331/275 289/264 326/273
f 325/268 326/273 289/264
f 161/270 325/268 184/261
f 189/225 199/226 335/223
f 325/268 330/257 329/255
f 201/521 168/524 120/511
f 327/293 321/302 211/295
f 163/292 321/302 327/293
f 325/268 329/255 184/261
f 336/241 187/236 200/230
f 187/236 322/237 200/230
f 322/237 185/245 323/246
f 200/230 322/237 291/234
f 186/526 201/521 305/515
f 320/325 317/331 316/323
f 236/178 234/185 309/181
f 147/318 319/319 195/314
f 202/337 154/333 432/343
f 149/324 320/325 147/318
f 320/325 319/319 147/318
f 202/337 318/332 149/324
f 318/332 202/337 433/341
f 315/311 288/300 324/306
f 314/344 318/332 436/347
f 294/335 194/339 314/344
f 280/175 245/179 282/176
f 193/329 270/326 317/331
f 269/322 270/326 193/329
f 194/339 318/332 314/344
f 281/444 277/439 284/442
f 275/262 289/264 247/271
f 314/344 267/336 294/335
f 254/189 242/180 295/197
f 309/181 246/191 302/200
f 309/181 234/185 246/191
f 243/299 262/279 258/294
f 284/442 280/448 281/444
f 309/446 281/444 280/448
f 260/190 272/198 242/180
f 197/316 279/305 285/310
f 260/190 242/180 278/183
f 246/548 299/546 137/541
f 312/648 293/647 300/650
f 248/437 262/440 249/438
f 232/194 233/187 311/182
f 313/284 301/288 247/271
f 134/545 312/544 252/542
f 137/541 132/539 38/538
f 137/541 209/543 35/540
f 222/214 208/209 251/201
f 312/544 246/548 137/541
f 203/523 36/513 35/517
f 298/586 297/591 296/589
f 209/543 203/547 35/540
f 133/507 37/510 305/515
f 303/252 307/247 276/256
f 296/589 310/594 303/592
f 312/544 300/551 246/548
f 246/191 300/208 302/200
f 310/244 307/247 303/252
f 299/546 246/548 208/552
f 309/590 302/587 296/589
f 309/446 303/441 281/444
f 302/587 298/586 296/589
f 203/523 305/515 36/513
f 37/510 36/513 306/519
f 37/681 306/682 305/683
f 297/591 304/593 136/595
f 304/653 293/647 136/651
f 292/231 290/238 310/244
f 292/231 291/234 290/238
f 338/274 328/280 247/271
f 247/271 287/283 262/279
f 197/316 285/310 286/320
f 315/311 285/310 288/300
f 258/294 288/300 279/305
f 301/288 287/283 247/271
f 286/320 316/323 197/316
f 260/453 278/451 283/449
f 278/183 282/176 245/179
f 242/180 282/176 278/183
f 303/441 277/439 281/444
f 283/449 278/451 245/447
f 250/436 249/438 277/439
f 275/262 250/263 276/256
f 295/197 242/180 272/198
f 271/206 254/189 295/197
f 295/464 266/456 271/460
f 271/460 268/463 439/466
f 270/326 269/322 197/316
f 294/335 267/336 269/322
f 273/327 269/322 265/330
f 274/462 264/461 268/463
f 266/654 295/655 272/656
f 239/184 242/180 254/189
f 261/458 271/460 266/456
f 256/454 257/452 263/455
f 254/189 271/206 442/212
f 263/315 257/304 196/309
f 274/462 255/457 264/461
f 263/455 273/459 255/457
f 446/467 265/465 447/470
f 256/454 255/457 261/458
f 266/456 256/454 261/458
f 255/457 274/462 261/458
f 260/453 259/450 256/454
f 258/294 257/304 243/299
f 244/443 243/445 283/449
f 259/450 260/453 283/449
f 237/188 238/177 239/184
f 238/177 242/180 239/184
f 239/184 254/189 449/196
f 226/203 3/210 240/195
f 239/184 240/195 237/188
f 241/192 3/210 1/202
f 234/185 236/178 233/187
f 236/178 311/182 233/187
f 253/186 241/192 1/202
f 1/202 232/194 231/193
f 228/20 218/19 224/16
f 235/199 223/213 251/201
f 235/199 228/207 223/213
f 234/185 251/201 246/191
f 262/440 244/443 249/438
f 262/279 248/272 247/271
f 234/185 235/199 251/201
f 283/449 245/447 244/443
f 280/175 238/177 236/178
f 238/177 311/182 236/178
f 410/37 230/32 411/45
f 412/51 229/26 453/46
f 230/32 213/28 217/24
f 218/19 227/22 229/26
f 227/22 218/19 228/20
f 227/22 1/30 229/26
f 229/26 230/32 217/24
f 1/202 231/193 253/186
f 227/22 232/29 1/30
f 2/34 3/40 454/48
f 229/26 1/30 2/34
f 225/13 218/19 504/17
f 23/4 225/13 505/10
f 222/401 131/399 207/398
f 224/16 225/13 23/4
f 508/8 128/2 509/9
f 128/2 23/4 506/6
f 24/7 220/11 23/4
f 219/396 220/397 24/392
f 219/18 221/14 220/11
f 121/558 207/555 123/560
f 125/386 123/375 131/388
f 207/398 131/399 123/400
f 215/42 214/21 417/38
f 214/21 213/28 416/33
f 217/24 213/28 214/21
f 205/550 203/547 209/543
f 123/560 122/562 121/558
f 210/368 203/364 25/366
f 209/543 216/549 204/553
f 204/553 207/555 206/557
f 204/553 208/552 207/555
f 20/559 206/557 121/558
f 204/553 29/554 205/550
f 210/368 25/366 186/371
f 290/238 323/246 308/251
f 211/295 313/284 212/289
f 160/278 326/273 161/270
f 50/104 86/136 175/146
f 199/226 200/230 40/221
f 155/290 192/301 165/296
f 85/374 28/370 480/377
f 85/374 186/371 28/370
f 152/338 153/328 150/334
f 191/235 190/229 51/232
f 333/227 332/224 40/221
f 157/281 155/290 140/277
f 141/285 140/277 155/290
f 186/526 170/530 201/521
f 318/332 194/339 193/329
f 145/105 42/65 458/99
f 142/313 144/307 192/301
f 50/104 177/126 86/136
f 50/104 157/117 177/126
f 140/277 141/285 159/282
f 145/609 151/610 152/611
f 177/267 157/281 156/276
f 155/93 50/104 46/85
f 177/126 175/146 86/136
f 155/93 157/117 50/104
f 92/144 50/104 175/146
f 176/259 181/265 171/254
f 50/104 92/144 93/134
f 178/532 4/527 9/529
f 4/527 169/525 9/529
f 85/374 182/378 186/371
f 93/534 178/532 9/529
f 85/154 9/125 182/160
f 9/666 167/667 170/668
f 170/535 182/536 9/537
f 179/242 180/240 92/249
f 174/250 179/242 175/253
f 92/249 175/253 179/242
f 93/258 92/249 178/248
f 175/253 177/267 176/259
f 173/269 181/265 177/267
f 174/250 176/259 171/254
f 171/254 173/269 172/266
f 170/530 186/526 182/533
f 9/529 169/525 166/520
f 166/520 168/524 167/528
f 170/530 167/528 168/524
f 167/528 9/529 166/520
f 178/532 6/522 4/527
f 180/240 178/248 92/249
f 180/240 191/235 6/239
f 6/239 191/235 51/232
f 188/233 190/229 191/235
f 173/269 161/270 172/266
f 180/240 188/233 191/235
f 179/242 187/236 188/233
f 187/236 179/242 185/245
f 169/525 4/527 5/512
f 166/520 169/525 5/512
f 174/250 171/254 185/245
f 172/266 184/261 183/260
f 171/254 181/265 173/269
f 172/266 161/270 184/261
f 138/308 139/297 148/312
f 172/266 183/260 171/254
f 141/285 155/290 165/296
f 144/307 165/296 192/301
f 152/338 151/342 154/333
f 152/611 150/614 146/612
f 148/312 142/313 147/318
f 145/609 146/612 143/615
f 139/297 141/285 165/296
f 142/313 145/317 143/321
f 143/615 146/612 150/614
f 162/286 158/291 164/298
f 163/292 162/286 164/298
f 161/270 173/269 140/277
f 173/269 156/276 140/277
f 141/285 158/291 159/282
f 162/286 159/282 158/291
f 145/105 192/118 155/93
f 46/85 42/65 155/93
f 145/317 142/313 192/301
f 145/105 155/93 42/65
f 152/611 146/612 145/609
f 316/323 317/331 270/326
f 212/289 337/287 327/293
f 327/293 337/287 160/278
f 275/262 247/271 248/272
f 269/322 193/329 294/335
f 309/181 280/175 236/178
f 235/199 234/185 233/187
f 228/207 235/199 233/187
f 319/319 315/311 321/302
f 160/278 337/287 328/280
f 185/245 322/237 187/236
f 164/298 158/291 139/297
f 149/324 318/332 320/325
f 324/306 321/302 315/311
f 312/544 137/541 252/542
f 299/546 209/543 137/541
f 187/236 336/241 189/225
f 221/14 224/16 23/4
f 196/309 257/304 258/294
f 217/24 218/19 229/26
f 253/186 311/182 238/177
f 231/193 311/182 253/186
f 223/213 224/217 221/218
f 324/306 288/300 211/295
f 308/251 289/264 275/262
f 247/271 328/280 313/284
f 303/252 276/256 250/263
f 288/300 285/310 279/305
f 293/647 304/653 298/652
f 298/586 304/593 297/591
f 328/280 337/287 212/289
f 301/288 313/284 211/295
f 330/257 325/268 289/264
f 198/303 164/298 138/308
f 189/225 188/233 187/236
f 300/650 293/647 298/652
f 34/504 133/507 33/505
f 297/591 292/596 310/594
f 323/246 334/243 322/237
f 323/246 290/238 334/243
f 135/220 335/223 40/221
f 33/505 133/507 120/511
f 188/233 189/225 190/229
f 212/289 327/293 211/295
f 326/273 160/278 328/280
f 336/677 199/678 189/679
f 198/303 321/302 163/292
f 160/278 162/286 163/292
f 185/245 184/261 329/255
f 200/680 199/678 336/677
f 185/245 329/255 323/246
f 135/220 51/232 190/229
f 185/245 183/260 184/261
f 305/515 210/531 186/526
f 291/234 333/227 200/230
f 316/323 286/320 319/319
f 316/323 319/319 320/325
f 321/302 198/303 195/314
f 198/303 163/292 164/298
f 320/325 318/332 193/329
f 288/300 301/288 211/295
f 194/339 294/335 193/329
f 444/346 314/344 465/354
f 197/316 316/323 270/326
f 256/454 266/456 260/453
f 266/654 272/656 260/657
f 265/330 267/336 443/340
f 245/447 284/442 244/443
f 238/177 282/176 242/180
f 287/283 301/288 262/279
f 303/441 250/436 277/439
f 262/279 301/288 258/294
f 246/191 251/201 208/209
f 310/594 296/589 297/591
f 299/546 216/549 209/543
f 30/358 205/362 29/359
f 137/541 38/538 252/542
f 309/590 296/589 303/592
f 210/531 305/515 203/523
f 134/646 31/649 293/647
f 133/507 34/504 37/510
f 290/238 307/247 310/244
f 279/305 196/309 258/294
f 308/251 307/247 290/238
f 305/515 306/519 36/513
f 276/256 307/247 308/251
f 301/288 288/300 258/294
f 280/448 284/442 245/447
f 262/440 243/445 244/443
f 284/442 277/439 249/438
f 248/272 250/263 275/262
f 308/251 275/262 276/256
f 263/315 196/309 197/316
f 196/309 279/305 197/316
f 271/460 261/458 268/463
f 197/316 269/322 263/315
f 440/469 264/461 446/467
f 269/322 273/327 263/315
f 263/455 255/457 256/454
f 259/450 243/445 257/452
f 257/452 256/454 259/450
f 240/195 239/184 226/203
f 241/192 237/188 240/195
f 241/192 253/186 238/177
f 311/182 231/193 232/194
f 224/217 223/213 228/207
f 222/214 251/201 223/213
f 224/16 218/19 225/13
f 284/442 249/438 244/443
f 229/26 2/34 452/39
f 227/22 233/25 232/29
f 454/48 226/55 456/57
f 504/17 214/21 510/23
f 128/2 126/1 23/4
f 221/218 219/219 222/214
f 127/3 128/2 130/5
f 220/11 221/14 23/4
f 130/672 129/670 127/669
f 23/4 126/1 24/7
f 24/392 131/388 222/393
f 207/398 208/402 222/401
f 214/21 215/42 414/35
f 204/553 205/550 209/543
f 124/556 29/554 204/553
f 30/358 25/366 203/364
f 124/556 204/553 206/557
f 203/364 205/362 30/358
f 148/312 139/297 144/307
f 335/223 199/226 40/221
f 40/221 200/230 333/227
f 326/273 325/268 161/270
f 144/307 142/313 148/312
f 335/223 135/220 189/225
f 190/229 189/225 135/220
f 154/333 202/337 149/324
f 153/328 154/333 149/324
f 151/610 145/609 459/613
f 156/276 173/269 177/267
f 177/267 181/265 176/259
f 4/527 6/522 5/512
f 186/371 25/366 28/370
f 185/245 179/242 174/250
f 6/239 178/248 180/240
f 180/240 179/242 188/233
f 168/524 201/521 170/530
f 120/511 168/524 166/520
f 171/254 183/260 185/245
f 159/282 162/286 160/278
f 139/297 138/308 164/298
f 149/324 147/318 142/313
f 143/321 149/324 142/313
f 154/333 151/342 463/348
f 143/321 150/334 153/328
f 138/308 148/312 147/318
f 152/338 154/333 153/328
f 149/324 143/321 153/328
f 165/296 144/307 139/297
f 138/308 195/314 198/303
f 147/318 195/314 138/308
f 161/270 159/282 160/278
f 139/297 158/291 141/285
f 159/282 161/270 140/277
f 140/277 156/276 157/281
f 265/465 264/461 273/459
f 131/388 22/390 125/386
f 176/259 174/250 175/253
f 339/572 12/573 119/563
f 340/629 12/625 339/634
f 341/500 14/496 377/498
f 342/420 108/406 341/415
f 343/665 102/661 344/663
f 344/663 102/661 387/658
f 345/474 103/473 386/477
f 346/475 104/472 345/474
f 347/133 69/124 348/143
f 348/143 69/124 401/153
f 349/119 91/102 350/127
f 350/127 91/102 389/123
f 351/96 66/80 394/109
f 352/108 74/81 351/96
f 353/147 67/139 71/111
f 354/155 67/139 353/147
f 355/148 67/139 354/155
f 356/567 119/563 357/571
f 357/571 119/563 12/573
f 358/632 17/627 359/630
f 359/630 17/627 100/626
f 360/628 17/627 358/632
f 361/570 118/564 356/567
f 362/623 70/619 361/621
f 363/565 118/564 367/568
f 364/566 119/563 363/565
f 365/631 12/625 360/628
f 366/569 119/563 364/566
f 367/432 118/435 115/427
f 368/424 113/419 106/410
f 369/429 115/427 368/424
f 370/426 106/410 371/422
f 371/422 106/410 374/418
f 372/409 108/406 375/413
f 373/412 107/404 372/409
f 374/418 106/410 373/412
f 375/413 108/406 376/417
f 376/417 108/406 342/420
f 377/498 14/496 105/482
f 378/495 105/482 380/488
f 379/478 104/472 346/475
f 380/488 105/482 379/478
f 381/637 100/626 382/636
f 382/636 100/626 384/633
f 383/635 100/626 381/637
f 384/633 100/626 340/629
f 385/481 103/473 343/487
f 386/477 103/473 385/481
f 387/658 102/661 101/659
f 388/660 101/659 491/662
f 389/123 91/102 72/114
f 390/94 56/79 403/95
f 391/106 66/80 390/94
f 392/88 65/75 393/89
f 393/89 65/75 74/81
f 394/109 66/80 406/120
f 395/130 72/114 73/113
f 396/140 73/113 399/149
f 397/128 59/122 68/103
f 398/129 59/122 397/128
f 399/149 73/113 355/148
f 400/158 69/124 362/157
f 401/153 69/124 400/158
f 402/138 71/111 398/129
f 403/95 56/79 43/87
f 404/137 68/103 347/133
f 405/107 43/87 349/119
f 406/120 66/80 391/106
f 407/98 74/81 352/108
f 408/36 229/26 413/44
f 409/43 230/32 408/36
f 410/37 213/28 230/32
f 411/45 230/32 420/52
f 413/44 229/26 412/51
f 414/35 215/42 415/49
f 415/49 215/42 418/53
f 416/33 213/28 410/37
f 417/38 214/21 416/33
f 418/53 215/42 417/38
f 419/50 230/32 409/43
f 520/31 414/35 521/41
f 420/52 230/32 419/50
f 421/60 45/63 95/61
f 422/62 95/61 423/64
f 423/64 95/61 60/67
f 424/71 60/67 65/75
f 425/82 65/75 392/88
f 426/83 42/65 427/76
f 427/76 42/65 429/72
f 428/68 42/65 421/60
f 429/72 42/65 428/68
f 430/211 239/184 450/204
f 431/215 226/203 430/211
f 432/343 154/333 435/349
f 433/341 202/337 432/343
f 434/353 154/333 464/356
f 435/349 154/333 434/353
f 436/347 318/332 433/341
f 437/355 314/344 436/347
f 438/357 314/344 437/355
f 439/466 268/463 440/469
f 440/469 268/463 264/461
f 441/468 271/460 439/466
f 442/212 271/206 441/216
f 443/340 267/336 444/346
f 444/346 267/336 314/344
f 445/205 254/189 442/212
f 446/467 264/461 265/465
f 447/470 265/465 448/471
f 448/350 265/330 466/345
f 449/196 254/189 445/205
f 450/204 239/184 449/196
f 451/47 2/34 455/54
f 452/39 2/34 451/47
f 453/46 229/26 452/39
f 454/48 3/40 226/55
f 455/54 2/34 454/48
f 456/57 226/55 431/59
f 457/90 42/65 426/83
f 458/99 42/65 457/90
f 459/121 145/105 458/99
f 460/616 151/610 459/613
f 461/684 151/685 460/686
f 462/687 151/685 461/684
f 463/348 151/342 462/352
f 464/356 154/333 467/351
f 465/354 314/344 438/357
f 466/345 265/330 443/340
f 467/351 154/333 463/348
f 468/97 392/88 469/110
f 470/56 412/51 453/46
f 471/58 412/51 470/56
f 472/385 123/375 125/386
f 473/384 123/375 472/385
f 474/673 21/671 129/670
f 475/387 125/386 474/389
f 476/674 129/670 130/672
f 477/675 130/672 478/676
f 478/15 130/5 507/12
f 479/379 123/375 473/384
f 480/377 28/370 481/381
f 481/381 28/370 482/376
f 482/376 28/370 27/373
f 483/603 98/605 110/597
f 484/601 110/597 96/600
f 485/428 98/425 486/431
f 486/431 98/425 495/434
f 487/602 96/600 7/604
f 488/479 104/472 513/484
f 489/490 97/476 514/483
f 490/497 13/480 516/493
f 491/501 101/492 517/499
f 492/430 99/421 485/428
f 493/169 7/166 10/150
f 494/606 7/604 493/608
f 495/607 98/605 483/603
f 496/382 85/374 480/377
f 497/165 53/145 496/161
f 498/164 10/150 499/159
f 499/159 10/150 53/145
f 500/163 53/145 501/168
f 501/168 53/145 497/165
f 502/383 27/373 479/379
f 503/380 27/373 502/383
f 504/17 218/19 214/21
f 505/10 225/13 504/17
f 506/6 23/4 505/10
f 507/12 130/5 508/8
f 508/8 130/5 128/2
f 509/9 128/2 506/6
f 510/23 214/21 511/27
f 511/27 214/21 520/31
f 512/433 99/421 492/430
f 513/484 104/472 512/491
f 514/483 97/476 488/479
f 515/486 97/476 519/494
f 516/493 13/480 515/486
f 517/499 101/492 490/497
f 518/664 388/660 491/662
f 519/494 97/476 489/490
f 520/31 214/21 414/35
usemtl Tile_+032_+023_L19_000230_untextured
