mtllib Tile_+032_+023_L18_00020.mtl
v 6.31172450e+03 5.67395566e+03 1.90356058e+01
v 6.31198092e+03 5.67312551e+03 1.70449288e+01
v 6.31064035e+03 5.64074756e+03 9.04300976e+00
v 6.31111928e+03 5.64352108e+03 6.18257811e+00
v 6.31297665e+03 5.63996576e+03 7.27638149e+00
v 6.30951272e+03 5.64614764e+03 6.14112246e+00
v 6.30820186e+03 5.64666781e+03 6.94774921e+00
v 6.30603712e+03 5.64011073e+03 6.24186281e+00
v 6.30371190e+03 5.64501687e+03 6.07997071e+00
v 6.30351704e+03 5.64430282e+03 6.76246354e+00
v 6.30582417e+03 5.64458842e+03 6.32134668e+00
v 6.31064272e+03 5.63246019e+03 6.10148605e+00
v 6.30707356e+03 5.64586161e+03 6.68625849e+00
v 6.30400985e+03 5.63914814e+03 6.20064903e+00
v 6.29452997e+03 5.64018776e+03 6.14732086e+00
v 6.29891715e+03 5.64454463e+03 6.23599189e+00
v 6.28798328e+03 5.64468787e+03 6.04656298e+00
v 6.29258751e+03 5.64609861e+03 6.13183875e+00
v 6.28976294e+03 5.65181300e+03 6.21315570e+00
v 6.29471959e+03 5.64407032e+03 6.10030505e+00
v 6.30069273e+03 5.64399854e+03 6.46824672e+00
v 6.30386077e+03 5.64615346e+03 6.60082568e+00
v 6.28952828e+03 5.64932899e+03 8.34063859e+00
v 6.29099940e+03 5.64564999e+03 9.61773392e+00
v 6.30173477e+03 5.64319908e+03 6.88861976e+00
v 6.29452808e+03 5.64003651e+03 9.67860507e+00
v 6.29696763e+03 5.64371798e+03 6.87298797e+00
v 6.29923790e+03 5.64316331e+03 8.70451358e+00
v 6.30232822e+03 5.64474339e+03 9.67039676e+00
v 6.30413999e+03 5.64745444e+03 6.11137849e+00
v 6.30141443e+03 5.64546379e+03 7.64279176e+00
v 6.29488439e+03 5.64223934e+03 7.24243989e+00
v 6.30433115e+03 5.63945573e+03 7.74709082e+00
v 6.28745023e+03 5.65500747e+03 6.08296494e+00
v 6.30558267e+03 5.64023967e+03 7.87018739e+00
v 6.30683733e+03 5.64733284e+03 9.75724420e+00
v 6.30665392e+03 5.64741121e+03 8.63973191e+00
v 6.30529280e+03 5.64684760e+03 8.35619800e+00
v 6.30567476e+03 5.64844617e+03 7.13958975e+00
v 6.30689620e+03 5.64714822e+03 6.01098960e+00
v 6.30680301e+03 5.64838864e+03 7.49703989e+00
v 6.30379975e+03 5.64767582e+03 6.95564701e+00
v 6.30293740e+03 5.64201526e+03 7.84087282e+00
v 6.30158618e+03 5.64879855e+03 9.69912901e+00
v 6.29241159e+03 5.65346389e+03 9.67280233e+00
v 6.29627593e+03 5.65543157e+03 9.77526121e+00
v 6.29238074e+03 5.65338547e+03 1.67283729e+01
v 6.30790467e+03 5.65246314e+03 9.64271013e+00
v 6.28881403e+03 5.65947393e+03 1.68822062e+01
v 6.28468570e+03 5.65630728e+03 9.62581129e+00
v 6.30152757e+03 5.64865597e+03 1.98702260e+01
v 6.28772269e+03 5.66147873e+03 9.65836954e+00
v 6.29162342e+03 5.66111938e+03 1.68012111e+01
v 6.29120936e+03 5.66176585e+03 1.98682282e+01
v 6.30400327e+03 5.65928612e+03 1.98498411e+01
v 6.30351626e+03 5.65652037e+03 1.97676982e+01
v 6.29301853e+03 5.67232056e+03 1.66957981e+01
v 6.29576249e+03 5.67139783e+03 1.76738491e+01
v 6.29207222e+03 5.66336277e+03 1.66606316e+01
v 6.29615812e+03 5.66310446e+03 1.98465098e+01
v 6.29899458e+03 5.66086578e+03 1.99305398e+01
v 6.29203142e+03 5.62663610e+03 6.08200889e+00
v 6.29838222e+03 5.67386844e+03 1.87057141e+01
v 6.29649139e+03 5.67352919e+03 1.67585590e+01
v 6.29605428e+03 5.65536827e+03 1.67916956e+01
v 6.28429430e+03 5.66724081e+03 1.67832447e+01
v 6.29131328e+03 5.67002034e+03 1.66657669e+01
v 6.28529798e+03 5.62656499e+03 6.22962704e+00
v 6.25260126e+03 5.62495019e+03 1.95609383e+01
v 6.25000000e+03 5.62462467e+03 1.59945688e+01
v 6.31020222e+03 5.67687584e+03 1.87916158e+01
v 6.31189330e+03 5.65494089e+03 1.70311117e+01
v 6.31235016e+03 5.67189726e+03 1.98453517e+01
v 6.31267090e+03 5.65530034e+03 1.78916128e+01
v 6.30824514e+03 5.65277950e+03 1.97736460e+01
v 6.30975795e+03 5.65354346e+03 1.70283955e+01
v 6.30900536e+03 5.65792213e+03 1.98492396e+01
v 6.31177347e+03 5.65051963e+03 1.66471349e+01
v 6.31000344e+03 5.64920315e+03 1.39393952e+01
v 6.30892716e+03 5.65112829e+03 1.32107750e+01
v 6.31227133e+03 5.64542058e+03 9.63157979e+00
v 6.31224369e+03 5.64529809e+03 1.68122639e+01
v 6.30796772e+03 5.65236042e+03 1.67702369e+01
v 6.31252363e+03 5.68595819e+03 1.87941405e+01
v 6.30950617e+03 5.68299879e+03 1.88097295e+01
v 6.30866357e+03 5.68773233e+03 1.87688258e+01
v 6.30962404e+03 5.68540660e+03 1.87411985e+01
v 6.30582221e+03 5.68227450e+03 1.86864867e+01
v 6.30794098e+03 5.66915538e+03 2.00251915e+01
v 6.30706709e+03 5.67129824e+03 1.99737499e+01
v 6.31050878e+03 5.66506202e+03 1.99634506e+01
v 6.31129653e+03 5.66176649e+03 1.98913788e+01
v 6.30975840e+03 5.66753492e+03 1.96642371e+01
v 6.31035371e+03 5.67596660e+03 1.99607343e+01
v 6.30339587e+03 5.66688002e+03 1.98374227e+01
v 6.31297413e+03 5.64009265e+03 6.16396453e+00
v 6.31287068e+03 5.63724959e+03 9.73470021e+00
v 6.31051736e+03 5.64830169e+03 9.63122607e+00
v 6.25000000e+03 5.64661426e+03 2.00749820e+01
v 6.25000000e+03 5.64481295e+03 1.70875974e+01
v 6.25154167e+03 5.64364899e+03 1.99605005e+01
v 6.25046219e+03 5.64281440e+03 1.81268279e+01
v 6.25226462e+03 5.64439492e+03 1.91000516e+01
v 6.25294794e+03 5.64537299e+03 1.87336842e+01
v 6.25152371e+03 5.64599627e+03 1.65553391e+01
v 6.25183104e+03 5.63987080e+03 1.74564864e+01
v 6.25053949e+03 5.64107131e+03 1.69934011e+01
v 6.25075897e+03 5.64671651e+03 1.65904740e+01
v 6.25205804e+03 5.64566061e+03 1.59324570e+01
v 6.25278786e+03 5.64270801e+03 1.83032681e+01
v 6.25284586e+03 5.64174661e+03 1.70530561e+01
v 6.25070171e+03 5.64218652e+03 2.24468137e+01
v 6.25013763e+03 5.64131214e+03 2.09473350e+01
v 6.25192237e+03 5.64179966e+03 1.64982001e+01
v 6.25000000e+03 5.66984910e+03 5.98710699e+00
v 6.25712951e+03 5.68642148e+03 5.92540730e+00
v 6.26030102e+03 5.68406528e+03 6.16944552e+00
v 6.26531442e+03 5.68668627e+03 6.13190244e+00
v 6.25814301e+03 5.67530458e+03 5.95150225e+00
v 6.26079121e+03 5.64149204e+03 1.03175375e+01
v 6.26325762e+03 5.64114394e+03 1.01002488e+01
v 6.25925595e+03 5.65922964e+03 6.25513912e+00
v 6.26340549e+03 5.65518726e+03 6.29201292e+00
v 6.25446522e+03 5.66871839e+03 6.15423351e+00
v 6.25000000e+03 5.66491941e+03 6.13052146e+00
v 6.25000000e+03 5.66126084e+03 6.23351742e+00
v 6.25815749e+03 5.64569285e+03 9.64918145e+00
v 6.25958634e+03 5.64621106e+03 1.04283719e+01
v 6.25352461e+03 5.64483692e+03 1.59784780e+01
v 6.26109105e+03 5.64833436e+03 1.01274113e+01
v 6.25724370e+03 5.64760650e+03 1.05962164e+01
v 6.25944186e+03 5.64685831e+03 9.95590718e+00
v 6.26149983e+03 5.64724191e+03 1.05394960e+01
v 6.26018516e+03 5.64468119e+03 9.90961214e+00
v 6.25880375e+03 5.64784715e+03 1.08214617e+01
v 6.25809059e+03 5.64907138e+03 9.77447379e+00
v 6.25997583e+03 5.65015965e+03 1.00660790e+01
v 6.25908715e+03 5.65061768e+03 1.06939336e+01
v 6.25790872e+03 5.65033617e+03 1.02449683e+01
v 6.26224162e+03 5.64614961e+03 9.91813476e+00
v 6.26214377e+03 5.64524211e+03 1.04249334e+01
v 6.26257338e+03 5.64357880e+03 9.89978416e+00
v 6.25050458e+03 5.64059512e+03 9.34339896e+00
v 6.25000000e+03 5.63507934e+03 9.54078627e+00
v 6.25512863e+03 5.65042414e+03 9.68383868e+00
v 6.25620645e+03 5.64942523e+03 1.04142663e+01
v 6.25550526e+03 5.64492652e+03 9.69355721e+00
v 6.25165945e+03 5.64585011e+03 8.77922981e+00
v 6.25358989e+03 5.64434821e+03 1.02799201e+01
v 6.25239701e+03 5.64243713e+03 9.52453623e+00
v 6.25492548e+03 5.64818541e+03 1.04312978e+01
v 6.25473253e+03 5.64727408e+03 8.62181865e+00
v 6.25496669e+03 5.65172230e+03 1.01367006e+01
v 6.25634502e+03 5.65158311e+03 1.02331556e+01
v 6.25703357e+03 5.65375483e+03 9.42858502e+00
v 6.25561302e+03 5.65465870e+03 9.32201276e+00
v 6.25755504e+03 5.65178534e+03 1.00341445e+01
v 6.25762249e+03 5.65352099e+03 1.03934868e+01
v 6.25138174e+03 5.64391088e+03 1.52583657e+01
v 6.25150746e+03 5.63987824e+03 1.41458856e+01
v 6.25326959e+03 5.64274751e+03 1.59792976e+01
v 6.26033654e+03 5.64204895e+03 9.47420356e+00
v 6.25672302e+03 5.64658587e+03 9.84815762e+00
v 6.26030879e+03 5.65241794e+03 1.01072165e+01
v 6.25885494e+03 5.64363109e+03 9.64665833e+00
v 6.26130183e+03 5.65129804e+03 9.40331131e+00
v 6.26000787e+03 5.65379205e+03 9.11914121e+00
v 6.25827159e+03 5.65411830e+03 9.65925506e+00
v 6.25795478e+03 5.64037505e+03 9.63261856e+00
v 6.26308459e+03 5.63830218e+03 9.53982301e+00
v 6.25928946e+03 5.63721631e+03 9.73091230e+00
v 6.25819797e+03 5.63524621e+03 9.50904417e+00
v 6.26325881e+03 5.63725123e+03 9.65266336e+00
v 6.26091719e+03 5.63995560e+03 9.50316247e+00
v 6.26365637e+03 5.63573187e+03 9.58506731e+00
v 6.25289652e+03 5.63245129e+03 9.67678712e+00
v 6.26206899e+03 5.65402728e+03 8.82030324e+00
v 6.26297332e+03 5.65208313e+03 8.28988302e+00
v 6.26169688e+03 5.65728302e+03 8.46101606e+00
v 6.25000000e+03 5.64239340e+03 9.81906118e+00
v 6.25000000e+03 5.63927042e+03 1.30692698e+01
v 6.25000000e+03 5.64461683e+03 9.30346040e+00
v 6.25000000e+03 5.63941370e+03 1.07763790e+01
v 6.25450032e+03 5.65050436e+03 8.44315843e+00
v 6.25234332e+03 5.64964082e+03 8.56535225e+00
v 6.25378449e+03 5.65246494e+03 7.50775023e+00
v 6.25211019e+03 5.65128813e+03 9.60165998e+00
v 6.25056352e+03 5.65130262e+03 8.55662765e+00
v 6.25000000e+03 5.64697009e+03 8.59036212e+00
v 6.25000000e+03 5.64903980e+03 8.91100880e+00
v 6.25459164e+03 5.65402570e+03 8.76451603e+00
v 6.25000000e+03 5.65165318e+03 8.68434697e+00
v 6.25000000e+03 5.65285500e+03 7.62728236e+00
v 6.25467991e+03 5.65641672e+03 7.00096014e+00
v 6.26317886e+03 5.64871188e+03 9.92805899e+00
v 6.26318698e+03 5.64702263e+03 1.01217554e+01
v 6.25688438e+03 5.65525223e+03 9.73175900e+00
v 6.26230440e+03 5.65057354e+03 8.98611999e+00
v 6.25830070e+03 5.65687561e+03 9.41034225e+00
v 6.25513725e+03 5.65708654e+03 8.73248396e+00
v 6.25644035e+03 5.65656368e+03 9.78341535e+00
v 6.25901200e+03 5.65568091e+03 9.22637994e+00
v 6.25000000e+03 5.65443256e+03 7.66543046e+00
v 6.25564288e+03 5.65921770e+03 6.47193379e+00
v 6.26486331e+03 5.66019491e+03 6.09131449e+00
v 6.26371180e+03 5.64980571e+03 9.23283023e+00
v 6.26304159e+03 5.65569016e+03 7.35858453e+00
v 6.25950040e+03 5.65858258e+03 8.46711371e+00
v 6.25865537e+03 5.65975710e+03 8.60286840e+00
v 6.25508876e+03 5.65824805e+03 8.90436579e+00
v 6.25662126e+03 5.65940011e+03 8.53052808e+00
v 6.25000000e+03 5.65865128e+03 6.47844057e+00
v 6.25000000e+03 5.64069236e+03 9.69031452e+00
v 6.25000000e+03 5.63837703e+03 9.98012728e+00
v 6.25153732e+03 5.64497700e+03 2.08773125e+01
v 6.25386249e+03 5.62552124e+03 1.27796455e+01
v 6.25213981e+03 5.62611633e+03 1.31788276e+01
v 6.25325578e+03 5.63993112e+03 1.75168350e+01
v 6.25000000e+03 5.62511842e+03 1.17596244e+01
v 6.25114637e+03 5.62643653e+03 1.06794195e+01
v 6.25385053e+03 5.62640472e+03 1.12514608e+01
v 6.25237458e+03 5.62752795e+03 9.64738235e+00
v 6.25000000e+03 5.62769760e+03 9.62333861e+00
v 6.26306595e+03 5.62585492e+03 1.35361500e+01
v 6.26412641e+03 5.62455596e+03 1.42319178e+01
v 6.25553325e+03 5.62722802e+03 1.04907212e+01
v 6.25806337e+03 5.62769938e+03 1.02644912e+01
v 6.25596203e+03 5.62953518e+03 9.56382717e+00
v 6.26362130e+03 5.62842377e+03 9.43931034e+00
v 6.26245489e+03 5.62638665e+03 1.02361038e+01
v 6.25000000e+03 5.62502288e+03 2.01494094e+01
v 6.25128205e+03 5.62534569e+03 2.04643284e+01
v 6.26392666e+03 5.62616998e+03 1.78550366e+01
v 6.26279573e+03 5.62526605e+03 1.82925096e+01
v 6.25371916e+03 5.63999221e+03 1.62418402e+01
v 6.25000000e+03 5.64069811e+03 2.27878799e+01
v 6.25000000e+03 5.64099867e+03 1.36172649e+01
v 6.25000000e+03 5.64018194e+03 1.47765948e+01
v 6.25000000e+03 5.63938728e+03 1.73635479e+01
v 6.25015290e+03 5.64335315e+03 2.06181225e+01
v 6.25000000e+03 5.64186564e+03 1.98653363e+01
v 6.25000000e+03 5.63787522e+03 1.97358994e+01
v 6.25000000e+03 5.63807564e+03 2.05494455e+01
v 6.25000000e+03 5.64247548e+03 2.33325103e+01
v 6.25000000e+03 5.64003117e+03 2.21255832e+01
v 6.25000000e+03 5.63975625e+03 2.11847866e+01
v 6.25000000e+03 5.64308456e+03 2.47413838e+01
v 6.25000000e+03 5.64495263e+03 2.36706165e+01
v 6.25000000e+03 5.64716783e+03 2.31114732e+01
v 6.25000000e+03 5.64499442e+03 1.56703185e+01
v 6.25000000e+03 5.63961382e+03 1.25968117e+01
v 6.25000000e+03 5.64276988e+03 2.00841622e+01
v 6.25000000e+03 5.64273780e+03 1.90849447e+01
v 6.25000000e+03 5.63637275e+03 1.04115701e+01
v 6.27299125e+03 5.63048973e+03 1.21033597e+01
v 6.27261924e+03 5.62981535e+03 1.12004463e+01
v 6.27395224e+03 5.62852607e+03 1.00805009e+01
v 6.27708099e+03 5.62673753e+03 9.90250430e+00
v 6.27469444e+03 5.62525009e+03 9.58171504e+00
v 6.27420400e+03 5.63146156e+03 1.14570973e+01
v 6.27755670e+03 5.62530215e+03 1.03267676e+01
v 6.28009475e+03 5.62641943e+03 9.87020510e+00
v 6.27763704e+03 5.62763572e+03 1.02993719e+01
v 6.27849061e+03 5.62990102e+03 9.71464611e+00
v 6.27749470e+03 5.62891413e+03 9.65825285e+00
v 6.27691037e+03 5.63263066e+03 8.79688243e+00
v 6.27677883e+03 5.63162773e+03 9.87668624e+00
v 6.27154582e+03 5.62784477e+03 9.57846934e+00
v 6.27560186e+03 5.62916914e+03 1.00991383e+01
v 6.27403392e+03 5.63039382e+03 1.05334844e+01
v 6.27067227e+03 5.62976818e+03 1.15946173e+01
v 6.27118034e+03 5.62904385e+03 9.61961885e+00
v 6.28268370e+03 5.62730781e+03 9.08749843e+00
v 6.28544678e+03 5.62587482e+03 8.58936382e+00
v 6.28328463e+03 5.62934462e+03 8.07052652e+00
v 6.28420787e+03 5.62585908e+03 9.05255717e+00
v 6.28141316e+03 5.62643010e+03 9.09601704e+00
v 6.28255061e+03 5.62530867e+03 8.72880827e+00
v 6.27968045e+03 5.62955282e+03 8.75778170e+00
v 6.28047315e+03 5.62871425e+03 9.19339543e+00
v 6.28162429e+03 5.63075141e+03 8.58664075e+00
v 6.28141207e+03 5.63210711e+03 7.85144348e+00
v 6.28237590e+03 5.63000054e+03 6.28601919e+00
v 6.27893661e+03 5.63274448e+03 8.76185097e+00
v 6.27517381e+03 5.62829137e+03 9.57305893e+00
v 6.27059668e+03 5.63013324e+03 9.63925298e+00
v 6.26817510e+03 5.63101098e+03 9.71007303e+00
v 6.26628700e+03 5.62520017e+03 1.21818211e+01
v 6.26786757e+03 5.62472527e+03 9.47029746e+00
v 6.27336242e+03 5.62641842e+03 1.02474328e+01
v 6.27516709e+03 5.63204813e+03 1.01617785e+01
v 6.27033475e+03 5.63095556e+03 1.19292499e+01
v 6.26627259e+03 5.62613126e+03 1.34313627e+01
v 6.26883758e+03 5.62488880e+03 1.28234637e+01
v 6.27215478e+03 5.63246327e+03 1.26256382e+01
v 6.26798138e+03 5.63339595e+03 9.67353704e+00
v 6.26416680e+03 5.62592063e+03 1.40783176e+01
v 6.26612944e+03 5.63383714e+03 9.49330873e+00
v 6.26933426e+03 5.62481455e+03 1.62243015e+01
v 6.26679084e+03 5.62565014e+03 1.72101878e+01
v 6.26809792e+03 5.62709021e+03 1.39792269e+01
v 6.26621527e+03 5.62534321e+03 1.89690615e+01
v 6.26453672e+03 5.62580829e+03 1.94003002e+01
v 6.26704978e+03 5.62470694e+03 1.85001302e+01
v 6.26873300e+03 5.62532960e+03 1.65999342e+01
v 6.27021387e+03 5.62463089e+03 1.41805041e+01
v 6.26823476e+03 5.62477445e+03 1.60262347e+01
v 6.26656810e+03 5.62567591e+03 1.45599329e+01
v 6.26789845e+03 5.62499663e+03 1.45474576e+01
v 6.26885408e+03 5.63347562e+03 1.22716585e+01
v 6.28422855e+03 5.66736488e+03 9.68154147e+00
v 6.27859386e+03 5.66666691e+03 9.68445762e+00
v 6.27582981e+03 5.68166731e+03 1.11482139e+01
v 6.27403817e+03 5.68460516e+03 1.40715977e+01
v 6.25152045e+03 5.64492594e+03 1.79543170e+01
v 6.25042199e+03 5.64042759e+03 1.85697515e+01
v 6.25263995e+03 5.64438235e+03 1.75522699e+01
v 6.25062040e+03 5.63815167e+03 1.86174978e+01
v 6.25176153e+03 5.64022136e+03 2.06313222e+01
v 6.25156365e+03 5.63851001e+03 1.98303573e+01
v 6.25427073e+03 5.64118171e+03 1.64135905e+01
v 6.25210717e+03 5.63913006e+03 1.61524422e+01
v 6.25042943e+03 5.64519762e+03 2.11934478e+01
v 6.25088618e+03 5.64545649e+03 2.31687025e+01
v 6.25034351e+03 5.64421910e+03 2.23903054e+01
v 6.27421378e+03 5.63999711e+03 7.58765276e+00
v 6.27274921e+03 5.64124839e+03 8.70036870e+00
v 6.27370419e+03 5.66928257e+03 6.10383702e+00
v 6.27658315e+03 5.67429609e+03 6.04539954e+00
v 6.26903637e+03 5.68581726e+03 6.76955660e+00
v 6.26743762e+03 5.68763479e+03 6.83933861e+00
v 6.27122406e+03 5.67998289e+03 8.46608746e+00
v 6.27207179e+03 5.68184958e+03 6.02060075e+00
v 6.27325366e+03 5.68591020e+03 9.70330828e+00
v 6.28408789e+03 5.66152879e+03 6.13524985e+00
v 6.26677215e+03 5.68708953e+03 8.77187757e+00
v 6.28599461e+03 5.65811376e+03 6.22557338e+00
v 6.28255908e+03 5.66352395e+03 6.15893416e+00
v 6.27058042e+03 5.68392374e+03 6.30321655e+00
v 6.27461205e+03 5.67409691e+03 8.53000854e+00
v 6.28130600e+03 5.66291504e+03 8.64241318e+00
v 6.27809808e+03 5.65646716e+03 6.06420827e+00
v 6.27916633e+03 5.67024826e+03 6.07565166e+00
v 6.27782471e+03 5.67126130e+03 6.64122750e+00
v 6.27498370e+03 5.67628983e+03 6.25909463e+00
v 6.26465218e+03 5.62497888e+03 1.23719267e+01
v 6.27390601e+03 5.64045239e+03 9.77131206e+00
v 6.27426634e+03 5.63932076e+03 6.54709830e+00
v 6.27727362e+03 5.64242919e+03 5.95931684e+00
v 6.27867012e+03 5.67659745e+03 1.67332583e+01
v 6.28711220e+03 5.66251332e+03 1.41394571e+01
v 6.28323894e+03 5.66902319e+03 1.40570791e+01
v 6.27780788e+03 5.67810479e+03 1.38801850e+01
v 6.28556684e+03 5.68170931e+03 1.67726312e+01
v 6.28835832e+03 5.67834685e+03 1.67557388e+01
v 6.28774505e+03 5.68732258e+03 1.67682372e+01
v 6.28128905e+03 5.68680935e+03 1.66376710e+01
v 6.28516246e+03 5.68506430e+03 1.67608061e+01
v 6.28774876e+03 5.68451085e+03 1.67607253e+01
v 6.28439629e+03 5.68417542e+03 1.71371537e+01
v 6.26482718e+03 5.65218313e+03 8.52570606e+00
v 6.27442327e+03 5.63283055e+03 1.12515328e+01
v 6.28047591e+03 5.67398720e+03 1.45127267e+01
v 6.28826650e+03 5.67511346e+03 1.66744128e+01
v 6.28773641e+03 5.68073560e+03 1.67748564e+01
v 6.27079207e+03 5.67949626e+03 6.14099936e+00
v 6.27503051e+03 5.63861006e+03 8.01936868e+00
v 6.27425832e+03 5.63926012e+03 6.41555766e+00
v 6.27254433e+03 5.64165103e+03 6.21201112e+00
v 6.26914204e+03 5.64720076e+03 6.23315464e+00
v 6.28105034e+03 5.66667488e+03 6.08393434e+00
v 6.26581395e+03 5.65178832e+03 6.28344310e+00
v 6.27904666e+03 5.63479005e+03 8.12659408e+00
v 6.27677767e+03 5.63531720e+03 8.84363537e+00
v 6.27662985e+03 5.63700394e+03 8.38371084e+00
v 6.27390675e+03 5.63519553e+03 1.07829470e+01
v 6.27840314e+03 5.63488267e+03 6.25993537e+00
v 6.27567698e+03 5.63808645e+03 6.22988077e+00
v 6.27410519e+03 5.63957264e+03 6.71123535e+00
v 6.27204334e+03 5.64328819e+03 8.65606645e+00
v 6.26988960e+03 5.64658215e+03 8.24881137e+00
v 6.27161993e+03 5.64440931e+03 7.89590576e+00
v 6.26902017e+03 5.64462509e+03 9.04619868e+00
v 6.26860887e+03 5.64868762e+03 7.92231819e+00
v 6.26773469e+03 5.64570496e+03 8.65139903e+00
v 6.26648916e+03 5.64705200e+03 9.14844655e+00
v 6.27298764e+03 5.64004933e+03 6.52452511e+00
v 6.27396112e+03 5.63782872e+03 9.40613218e+00
v 6.27479563e+03 5.63658200e+03 9.84193491e+00
v 6.26728046e+03 5.64416459e+03 9.58610520e+00
v 6.26780694e+03 5.64867059e+03 8.70616999e+00
v 6.26671870e+03 5.64832910e+03 8.45001333e+00
v 6.26682642e+03 5.65096304e+03 8.20996025e+00
v 6.27384275e+03 5.67897185e+03 6.07940496e+00
v 6.28145830e+03 5.67212850e+03 9.69697829e+00
v 6.27043026e+03 5.68084098e+03 9.68727018e+00
v 6.27785979e+03 5.67803901e+03 9.64120724e+00
v 6.27030761e+03 5.64126836e+03 9.07695506e+00
v 6.26867309e+03 5.63953984e+03 1.04072359e+01
v 6.26979455e+03 5.63974880e+03 1.10169003e+01
v 6.26766174e+03 5.64071451e+03 9.85762561e+00
v 6.26959925e+03 5.63651800e+03 1.11268172e+01
v 6.26842294e+03 5.63763722e+03 9.67432144e+00
v 6.26861151e+03 5.63619612e+03 1.00106443e+01
v 6.26705747e+03 5.63551136e+03 1.06235556e+01
v 6.26874236e+03 5.63495134e+03 9.76937121e+00
v 6.27346108e+03 5.63837017e+03 1.07419612e+01
v 6.27395494e+03 5.63403995e+03 1.06811276e+01
v 6.27095582e+03 5.63723977e+03 1.09972204e+01
v 6.26652523e+03 5.63639276e+03 9.95449245e+00
v 6.27266053e+03 5.63913746e+03 1.18253340e+01
v 6.27141002e+03 5.63995236e+03 1.13861918e+01
v 6.27330940e+03 5.63648414e+03 1.19546189e+01
v 6.27171834e+03 5.63443769e+03 1.16648435e+01
v 6.27101351e+03 5.63357813e+03 1.20874891e+01
v 6.26971538e+03 5.63477568e+03 1.05684468e+01
v 6.26906579e+03 5.63847556e+03 1.13739196e+01
v 6.26688406e+03 5.63830943e+03 1.00145444e+01
v 6.26511294e+03 5.64006076e+03 1.01269972e+01
v 6.26397135e+03 5.64089379e+03 1.06845904e+01
v 6.26556948e+03 5.63731280e+03 9.75261081e+00
v 6.26565717e+03 5.64634748e+03 9.59426018e+00
v 6.26450264e+03 5.64270712e+03 1.05842420e+01
v 6.26695103e+03 5.64232850e+03 9.60868248e+00
v 6.26484566e+03 5.64491988e+03 9.71986329e+00
v 6.26378735e+03 5.64466059e+03 1.07647578e+01
v 6.26480847e+03 5.64837972e+03 8.90255052e+00
v 6.26463730e+03 5.65397268e+03 7.75374480e+00
v 6.26545496e+03 5.65013769e+03 9.75242069e+00
v 6.26599389e+03 5.65022297e+03 8.88285645e+00
v 6.30228745e+03 5.67364613e+03 1.87959110e+01
v 6.29300362e+03 5.66598609e+03 1.67652551e+01
v 6.29209309e+03 5.67501460e+03 1.71002051e+01
v 6.29419868e+03 5.66504260e+03 1.98074661e+01
v 6.29146298e+03 5.64900689e+03 6.09687669e+00
v 6.29390536e+03 5.67597508e+03 1.67642099e+01
v 6.29486759e+03 5.66943594e+03 1.67682511e+01
v 6.29194074e+03 5.67819883e+03 1.67103050e+01
v 6.29096427e+03 5.67497862e+03 1.67222595e+01
v 6.29608210e+03 5.67781757e+03 1.68360384e+01
v 6.29317941e+03 5.68000148e+03 1.72325796e+01
v 6.29036643e+03 5.67424075e+03 1.72059147e+01
v 6.29244703e+03 5.67081557e+03 1.72241629e+01
v 6.29436065e+03 5.65685808e+03 1.68221924e+01
v 6.29465298e+03 5.66686404e+03 1.69948003e+01
v 6.29390426e+03 5.66495213e+03 1.73890639e+01
v 6.29462639e+03 5.65671193e+03 1.99004091e+01
v 6.29349071e+03 5.66559853e+03 1.83340705e+01
v 6.29396964e+03 5.66547752e+03 1.70308372e+01
v 6.29193482e+03 5.68477085e+03 1.88359880e+01
v 6.28980222e+03 5.68104359e+03 1.66764426e+01
v 6.29076884e+03 5.67858610e+03 1.72355153e+01
v 6.29396972e+03 5.68128020e+03 1.68152250e+01
v 6.29531018e+03 5.66853014e+03 1.98943214e+01
v 6.29509049e+03 5.67657476e+03 1.72671733e+01
v 6.29670303e+03 5.67201671e+03 1.73547734e+01
v 6.29054479e+03 5.68366806e+03 1.69869220e+01
v 6.29162514e+03 5.68534456e+03 1.68190701e+01
v 6.28877595e+03 5.68212496e+03 1.72314703e+01
v 6.29407998e+03 5.68670688e+03 1.86503086e+01
v 6.29834869e+03 5.67150930e+03 1.72847369e+01
v 6.29842885e+03 5.67149647e+03 1.98680113e+01
v 6.30354232e+03 5.67311442e+03 1.99105541e+01
v 6.29887614e+03 5.67213813e+03 1.89365879e+01
v 6.30098812e+03 5.68296656e+03 1.87164212e+01
v 6.30676810e+03 5.68568785e+03 1.89123529e+01
v 6.29830101e+03 5.67408292e+03 1.68460046e+01
v 6.30394501e+03 5.68748704e+03 1.88702310e+01
v 6.30011557e+03 5.68603164e+03 1.86914859e+01
v 6.30528741e+03 5.68459283e+03 1.87366453e+01
v 6.30312032e+03 5.67011349e+03 1.99612615e+01
v 6.30519940e+03 5.66446544e+03 1.98819340e+01
v 6.29900094e+03 5.66619731e+03 1.99032703e+01
v 6.29889159e+03 5.65781902e+03 1.98121198e+01
v 6.30404870e+03 5.66184657e+03 1.98141040e+01
v 6.30006722e+03 5.66403313e+03 1.99299977e+01
v 6.31299999e+03 5.62880821e+03 6.07340676e+00
v 6.31299999e+03 5.63148787e+03 6.11794816e+00
v 6.31299999e+03 5.63732650e+03 9.52650627e+00
v 6.31299999e+03 5.63731613e+03 9.67808593e+00
v 6.31299999e+03 5.64582427e+03 9.67693312e+00
v 6.31299999e+03 5.64492395e+03 9.63018226e+00
v 6.31299999e+03 5.63732626e+03 9.73223853e+00
v 6.31299999e+03 5.64004002e+03 6.16769254e+00
v 6.31299999e+03 5.64007251e+03 6.17807937e+00
v 6.31299999e+03 5.63572127e+03 6.26314487e+00
v 6.31299999e+03 5.63384696e+03 6.15265388e+00
v 6.31299999e+03 5.64971690e+03 1.66737526e+01
v 6.31299999e+03 5.65293083e+03 1.67277769e+01
v 6.31299999e+03 5.67060158e+03 1.69626188e+01
v 6.31299999e+03 5.67035995e+03 1.91421269e+01
v 6.31299999e+03 5.67604732e+03 1.87704549e+01
v 6.31299999e+03 5.67455462e+03 1.89249023e+01
v 6.31299999e+03 5.67412442e+03 1.68736431e+01
v 6.31299999e+03 5.67449641e+03 1.75435150e+01
v 6.31299999e+03 5.66097455e+03 1.98900872e+01
v 6.31299999e+03 5.67038731e+03 1.98500026e+01
v 6.31299999e+03 5.65822996e+03 1.98655587e+01
v 6.31299999e+03 5.68479215e+03 1.87965436e+01
v 6.31299999e+03 5.68588683e+03 1.87891938e+01
v 6.31299999e+03 5.67692333e+03 1.87409259e+01
v 6.31299999e+03 5.68160647e+03 1.86434248e+01
v 6.31299999e+03 5.68634562e+03 1.87879924e+01
v 6.31299999e+03 5.68768144e+03 1.87675661e+01
v 6.31299999e+03 5.68425872e+03 1.87981323e+01
v 6.31299999e+03 5.68438471e+03 1.87945028e+01
v 6.31299999e+03 5.68220025e+03 1.87242968e+01
v 6.31299999e+03 5.68265144e+03 1.88217847e+01
v 6.31299999e+03 5.65560784e+03 1.98281728e+01
v 6.31299999e+03 5.64557677e+03 1.67990349e+01
v 6.31299999e+03 5.64574324e+03 1.51072315e+01
v 6.31299999e+03 5.65386794e+03 1.67966946e+01
v 6.31299999e+03 5.64919069e+03 1.66829066e+01
v 6.31299999e+03 5.65423746e+03 1.68451814e+01
v 6.31299999e+03 5.65550292e+03 1.80133247e+01
v 6.31299999e+03 5.65547986e+03 1.77528758e+01
v 6.31299999e+03 5.65475322e+03 1.74439715e+01
v 6.31299999e+03 5.67264113e+03 1.69900063e+01
v 6.31299999e+03 5.63994990e+03 7.26854213e+00
v 6.31299999e+03 5.63991992e+03 7.29029322e+00
v 6.31299999e+03 5.63877620e+03 8.23959820e+00
v 6.26168643e+03 5.62450001e+03 1.84058038e+01
v 6.26273783e+03 5.62450001e+03 1.73261141e+01
v 6.25011526e+03 5.62450001e+03 1.59689634e+01
v 6.25016932e+03 5.62450001e+03 1.58608184e+01
v 6.25204677e+03 5.62450001e+03 2.08633153e+01
v 6.25064229e+03 5.62450001e+03 2.10665914e+01
v 6.26270361e+03 5.62450001e+03 1.90705059e+01
v 6.26254280e+03 5.62450001e+03 1.89949098e+01
v 6.25295761e+03 5.62450001e+03 1.94628556e+01
v 6.25269101e+03 5.62450001e+03 2.01330517e+01
v 6.25000000e+03 5.62450001e+03 2.07294251e+01
v 6.26396176e+03 5.62450001e+03 1.42738682e+01
v 6.26407743e+03 5.62450001e+03 1.42636394e+01
v 6.26157106e+03 5.62450001e+03 1.01756996e+01
v 6.26249415e+03 5.62450001e+03 1.06362310e+01
v 6.25601645e+03 5.62450001e+03 1.03396166e+01
v 6.25506906e+03 5.62450001e+03 1.07573905e+01
v 6.25990532e+03 5.62450001e+03 1.02275404e+01
v 6.26189047e+03 5.62450001e+03 1.43918312e+01
v 6.25481732e+03 5.62450001e+03 1.16938916e+01
v 6.25000000e+03 5.62450001e+03 1.51861555e+01
v 6.25239384e+03 5.62450001e+03 1.35561711e+01
v 6.25333882e+03 5.62450001e+03 1.32440427e+01
v 6.25396951e+03 5.62450001e+03 1.31010784e+01
v 6.25455967e+03 5.62450001e+03 1.24748275e+01
v 6.25268114e+03 5.62450001e+03 1.90628947e+01
v 6.26056533e+03 5.62450001e+03 1.01729592e+01
v 6.26272339e+03 5.62450001e+03 1.18539583e+01
v 6.25047345e+03 5.62450001e+03 1.24020257e+01
v 6.25095612e+03 5.62450001e+03 1.28102402e+01
v 6.26944230e+03 5.62450001e+03 1.58778571e+01
v 6.26931479e+03 5.62450001e+03 1.62690907e+01
v 6.26774230e+03 5.62450001e+03 1.58367990e+01
v 6.26732409e+03 5.62450001e+03 1.49081018e+01
v 6.26854514e+03 5.62450001e+03 1.77385647e+01
v 6.26815494e+03 5.62450001e+03 1.83269712e+01
v 6.26664751e+03 5.62450001e+03 1.60472073e+01
v 6.26781343e+03 5.62450001e+03 1.85284459e+01
v 6.26630893e+03 5.62450001e+03 1.89119346e+01
v 6.26699701e+03 5.62450001e+03 1.85283451e+01
v 6.26751782e+03 5.62450001e+03 1.86349580e+01
v 6.26388610e+03 5.62450001e+03 1.96294773e+01
v 6.26398037e+03 5.62450001e+03 1.98063391e+01
v 6.26438950e+03 5.62450001e+03 1.96808355e+01
v 6.26588780e+03 5.62450001e+03 1.93831929e+01
v 6.26451237e+03 5.62450001e+03 1.59833841e+01
v 6.26326992e+03 5.62450001e+03 1.65360424e+01
v 6.26534702e+03 5.62450001e+03 1.59640175e+01
v 6.26616575e+03 5.62450001e+03 1.34998916e+01
v 6.26628953e+03 5.62450001e+03 1.39220008e+01
v 6.26456644e+03 5.62450001e+03 1.04440686e+01
v 6.26793067e+03 5.62450001e+03 9.50895306e+00
v 6.26804569e+03 5.62450001e+03 9.47121683e+00
v 6.27506986e+03 5.62450001e+03 9.56652666e+00
v 6.27397832e+03 5.62450001e+03 9.56424687e+00
v 6.27748184e+03 5.62450001e+03 1.01878250e+01
v 6.26774758e+03 5.62450001e+03 9.75234343e+00
v 6.26484656e+03 5.62450001e+03 1.03975559e+01
v 6.28296339e+03 5.62450001e+03 8.62920717e+00
v 6.28217775e+03 5.62450001e+03 9.34416526e+00
v 6.28498948e+03 5.62450001e+03 8.97111292e+00
v 6.28533257e+03 5.62450001e+03 8.59829037e+00
v 6.28607270e+03 5.62450001e+03 7.88193401e+00
v 6.28616463e+03 5.62450001e+03 6.37327434e+00
v 6.28604161e+03 5.62450001e+03 8.48877318e+00
v 6.28453364e+03 5.62450001e+03 9.14064748e+00
v 6.28091547e+03 5.62450001e+03 9.81133233e+00
v 6.28051375e+03 5.62450001e+03 1.00465139e+01
v 6.28180780e+03 5.62450001e+03 9.61707904e+00
v 6.28364584e+03 5.62450001e+03 8.96230009e+00
v 6.27787673e+03 5.62450001e+03 1.00537444e+01
v 6.27858713e+03 5.62450001e+03 9.85450543e+00
v 6.26717314e+03 5.62450001e+03 1.41329630e+01
v 6.26426966e+03 5.62450001e+03 1.41814586e+01
v 6.26523681e+03 5.62450001e+03 1.28337635e+01
v 6.26620402e+03 5.62450001e+03 1.28456003e+01
v 6.26418165e+03 5.62450001e+03 1.43455512e+01
v 6.26826490e+03 5.62450001e+03 1.18370334e+01
v 6.26968357e+03 5.62450001e+03 1.34618699e+01
v 6.27013431e+03 5.62450001e+03 1.40093684e+01
v 6.26482772e+03 5.62450001e+03 1.12764641e+01
v 6.26387360e+03 5.62450001e+03 1.18052369e+01
v 6.27018922e+03 5.62450001e+03 1.41933397e+01
v 6.27021808e+03 5.62450001e+03 1.41107557e+01
v 6.26539649e+03 5.62450001e+03 1.10456554e+01
v 6.26694079e+03 5.62450001e+03 1.12070919e+01
v 6.26672134e+03 5.62450001e+03 9.86857508e+00
v 6.27114279e+03 5.62450001e+03 9.53215484e+00
v 6.28986636e+03 5.62450001e+03 6.29518624e+00
v 6.30365163e+03 5.62450001e+03 5.95800973e+00
v 6.30369358e+03 5.62450001e+03 5.95761265e+00
v 6.30369881e+03 5.62450001e+03 5.95765149e+00
v 6.30370616e+03 5.62450001e+03 5.95766427e+00
v 6.29155783e+03 5.62450001e+03 6.20518110e+00
v 6.31293852e+03 5.62450001e+03 6.08616113e+00
v 6.25000000e+03 5.62450001e+03 1.26899371e+01
v 6.31211980e+03 5.62450001e+03 6.07476609e+00
v 6.31299999e+03 5.62450001e+03 6.08516881e+00
v 6.26528052e+03 5.68799999e+03 6.13724374e+00
v 6.25892969e+03 5.68799999e+03 5.97798823e+00
v 6.25778625e+03 5.68799999e+03 5.96295441e+00
v 6.25714381e+03 5.68799999e+03 5.95153062e+00
v 6.25645259e+03 5.68799999e+03 5.92922366e+00
v 6.26619721e+03 5.68799999e+03 9.09127747e+00
v 6.26614070e+03 5.68799999e+03 9.70169557e+00
v 6.26619599e+03 5.68799999e+03 8.86291770e+00
v 6.26739963e+03 5.68799999e+03 6.74933910e+00
v 6.26640219e+03 5.68799999e+03 6.32682540e+00
v 6.26914047e+03 5.68799999e+03 9.69857964e+00
v 6.26653836e+03 5.68799999e+03 8.39765686e+00
v 6.26569214e+03 5.68799999e+03 6.19479333e+00
v 6.27116257e+03 5.68799999e+03 9.70292504e+00
v 6.27197577e+03 5.68799999e+03 9.73224785e+00
v 6.27196906e+03 5.68799999e+03 1.14625495e+01
v 6.27190995e+03 5.68799999e+03 1.67165905e+01
v 6.27195922e+03 5.68799999e+03 1.55863969e+01
v 6.28111520e+03 5.68799999e+03 1.66957415e+01
v 6.28166556e+03 5.68799999e+03 1.66836444e+01
v 6.27196127e+03 5.68799999e+03 1.38659013e+01
v 6.27780363e+03 5.68799999e+03 1.66617799e+01
v 6.28048755e+03 5.68799999e+03 1.66612697e+01
v 6.28776771e+03 5.68799999e+03 1.67676509e+01
v 6.28709877e+03 5.68799999e+03 1.67792517e+01
v 6.26670970e+03 5.68799999e+03 8.18222232e+00
v 6.26700942e+03 5.68799999e+03 7.72092232e+00
v 6.30312219e+03 5.68799999e+03 1.88353864e+01
v 6.30061180e+03 5.68799999e+03 1.87223253e+01
v 6.30857932e+03 5.68799999e+03 1.87708631e+01
v 6.30841866e+03 5.68799999e+03 1.87984974e+01
v 6.30428620e+03 5.68799999e+03 1.88633111e+01
v 6.29790658e+03 5.68799999e+03 1.87173912e+01
v 6.29005071e+03 5.68799999e+03 1.67960683e+01
v 6.29439048e+03 5.68799999e+03 1.86680922e+01
v 6.29538695e+03 5.68799999e+03 1.86934905e+01
v 6.29149055e+03 5.68799999e+03 1.86844889e+01
v 6.29002951e+03 5.68799999e+03 1.87419533e+01
v 6.29003759e+03 5.68799999e+03 1.81812191e+01
v 6.30950702e+03 5.68799999e+03 1.87697231e+01
v 6.25519386e+03 5.68799999e+03 5.83971092e+00
v 6.25000000e+03 5.68799999e+03 5.68115888e+00
v 6.31299999e+03 5.68799999e+03 1.87688771e+01
vt 0.037903931 0.84586787
vt 0.0029999323 0.78761643
vt 0.11911809 0.77925187
vt 0.066654667 0.89731425
vt 0.0030098108 0.8161996
vt 0.075307034 0.77172416
vt 0.18821058 0.85022694
vt 0.0030231497 0.85471368
vt 0.047078494 0.77163893
vt 0.10771491 0.74013227
vt 0.22250576 0.75009537
vt 0.12270916 0.986215
vt 0.058764908 0.98416805
vt 0.039544947 0.74975616
vt 0.12652256 0.71357179
vt 0.15251201 0.67772323
vt 0.24559608 0.82983577
vt 0.083535008 0.96575099
vt 0.1654852 0.93002892
vt 0.043647099 0.9965055
vt 0.0029918519 0.76722807
vt 0.21602979 0.64042586
vt 0.25737479 0.80521488
vt 0.2308863 0.85775781
vt 0.19822356 0.90496743
vt 0.1638419 0.96461844
vt 0.0030709223 0.99651939
vt 0.053480469 0.99650186
vt 0.0029740171 0.7342636
vt 0.17907856 0.63435733
vt 0.29970449 0.65804434
vt 0.26931372 0.78962398
vt 0.22040403 0.86567295
vt 0.12244766 0.99647856
vt 0.18931781 0.92592448
vt 0.21071559 0.8893882
vt 0.17548975 0.94841164
vt 0.15178093 0.97941345
vt 0.058880497 0.99650002
vt 0.032536432 0.71888268
vt 0.19126457 0.61811346
vt 0.33128479 0.51700401
vt 0.2955659 0.73866773
vt 0.28420085 0.76293862
vt 0.07283254 0.99649537
vt 0.12566307 0.99647725
vt 0.13929485 0.99361664
vt 0.063899525 0.99649835
vt 0.0029702554 0.72193909
vt 0.35083866 0.62287003
vt 0.22483331 0.58146423
vt 0.31362513 0.71370435
vt 0.13120958 0.9964748
vt 0.13899952 0.99647033
vt 0.0073632505 0.70980531
vt 0.42206326 0.50028682
vt 0.35233018 0.65320241
vt 0.20354337 0.60650086
vt 0.25585803 0.54331231
vt 0.32690036 0.69177777
vt 0.0029608379 0.71254486
vt 0.42239106 0.50028676
vt 0.32757869 0.50031632
vt 0.33567822 0.66905373
vt 0.19246194 0.61567295
vt 0.27867854 0.51646483
vt 0.42489749 0.61472368
vt 0.31436348 0.5003202
vt 0.28544316 0.5003292
vt 0.42243192 0.5002867
vt 0.38512415 0.65689671
vt 0.47670063 0.56245762
vt 0.36988756 0.65044039
vt 0.40712953 0.64637434
vt 0.42248932 0.5002867
vt 0.44073778 0.62223864
vt 0.35360622 0.63889205
vt 0.39899313 0.65262479
vt 0.48822036 0.50026488
vt 0.43908495 0.65722084
vt 0.42258534 0.66057467
vt 0.40462813 0.66406465
vt 0.49461657 0.50026274
vt 0.48045129 0.64886951
vt 0.4237482 0.66945148
vt 0.42105713 0.65499336
vt 0.49510783 0.53392053
vt 0.49493378 0.62208021
vt 0.46790692 0.6693939
vt 0.41651639 0.63711822
vt 0.4259358 0.67961699
vt 0.49509686 0.50026256
vt 0.49511436 0.55485523
vt 0.49513569 0.62166893
vt 0.44884694 0.6671629
vt 0.49512011 0.57328558
vt 0.49512419 0.58792818
vt 0.49513572 0.62192273
vt 0.45766228 0.67345715
vt 0.44746855 0.67721814
vt 0.078492507 0.48470891
vt 0.094977267 0.46136081
vt 0.13150844 0.48409462
vt 0.069678403 0.49419117
vt 0.11767484 0.4634757
vt 0.1973642 0.49162853
vt 0.013172972 0.48928529
vt 0.13727005 0.46012926
vt 0.0047883913 0.49179387
vt 0.048882049 0.46516788
vt 0.16277438 0.46536124
vt 0.0045844037 0.49613953
vt 0.0047836504 0.49024421
vt 0.068641976 0.46186322
vt 0.0301816 0.47022325
vt 0.17464714 0.4587521
vt 0.006023813 0.48591387
vt 0.011808385 0.4729017
vt 0.20620674 0.45875943
vt 0.006644506 0.48386514
vt 0.0091429641 0.47176856
vt 0.23315892 0.4819898
vt 0.0077300863 0.47970682
vt 0.23348254 0.45974535
vt 0.29114157 0.48894447
vt 0.2528317 0.4579345
vt 0.28337777 0.45814091
vt 0.31015173 0.4577474
vt 0.34064266 0.45645148
vt 0.35698718 0.47614646
vt 0.36622497 0.45487136
vt 0.38778311 0.48637944
vt 0.3904289 0.45645994
vt 0.41219372 0.45260251
vt 0.4254649 0.46307188
vt 0.4383781 0.46047741
vt 0.43942297 0.48478061
vt 0.33593124 0.26320034
vt 0.32529548 0.25267959
vt 0.34664115 0.26211476
vt 0.33288541 0.27640676
vt 0.32729265 0.26901942
vt 0.34724519 0.24178016
vt 0.31544527 0.25631732
vt 0.32506296 0.23479545
vt 0.35206699 0.25595808
vt 0.31334752 0.26991057
vt 0.30516538 0.23360372
vt 0.33568725 0.23166859
vt 0.31973812 0.27635378
vt 0.30070323 0.26315689
vt 0.31490982 0.278346
vt 0.30770484 0.28779405
vt 0.28843418 0.25250924
vt 0.29271504 0.27314323
vt 0.28137445 0.27359003
vt 0.28947222 0.23419958
vt 0.28492412 0.28774661
vt 0.27171332 0.27254206
vt 0.2716139 0.23915416
vt 0.2926777 0.29056573
vt 0.25787702 0.28295773
vt 0.27403858 0.25873685
vt 0.26251331 0.25138277
vt 0.25925002 0.27216947
vt 0.24423797 0.24955875
vt 0.26969191 0.29424882
vt 0.24589413 0.275168
vt 0.2463558 0.25939173
vt 0.25038984 0.29353684
vt 0.23147273 0.28592455
vt 0.249461 0.2647658
vt 0.23334049 0.26634872
vt 0.26224586 0.30034739
vt 0.22920246 0.27700722
vt 0.22781996 0.26071995
vt 0.25264862 0.30190128
vt 0.23042741 0.29805404
vt 0.21523291 0.27842015
vt 0.2227169 0.25495285
vt 0.23611952 0.30710083
vt 0.2113869 0.29227823
vt 0.20518377 0.26326746
vt 0.23919173 0.31574154
vt 0.22290397 0.31523043
vt 0.20218344 0.28084809
vt 0.24928705 0.30924392
vt 0.20543171 0.30456203
vt 0.17678469 0.27534866
vt 0.19374095 0.31202698
vt 0.17909877 0.29563683
vt 0.16325042 0.2847237
vt 0.18204391 0.31660354
vt 0.17572652 0.31272
vt 0.16619608 0.30612838
vt 0.17482702 0.32431632
vt 0.1571873 0.32283801
vt 0.15453875 0.30726427
vt 0.14599165 0.30522466
vt 0.16276686 0.33299881
vt 0.15228257 0.28808141
vt 0.15434717 0.34112865
vt 0.13867213 0.32076907
vt 0.13993365 0.33843118
vt 0.1295049 0.3076455
vt 0.14070064 0.347682
vt 0.12914193 0.32236725
vt 0.12374429 0.32870674
vt 0.12842828 0.35134357
vt 0.15418817 0.35758543
vt 0.11114226 0.30404383
vt 0.1335381 0.36547953
vt 0.098460741 0.31928653
vt 0.1153995 0.33574778
vt 0.11434136 0.3580448
vt 0.10715206 0.33400738
vt 0.085883021 0.31031573
vt 0.11078964 0.34538418
vt 0.12613246 0.37011784
vt 0.094897851 0.32910407
vt 0.07624837 0.33192009
vt 0.094174877 0.29578078
vt 0.091673672 0.34912091
vt 0.067033634 0.32621491
vt 0.059762064 0.31072628
vt 0.078332663 0.34161937
vt 0.058227029 0.32933015
vt 0.067097344 0.30127323
vt 0.071788408 0.35060555
vt 0.050570276 0.34655535
vt 0.042852007 0.31075823
vt 0.042105626 0.33876884
vt 0.071423218 0.35694802
vt 0.036824305 0.35443348
vt 0.03776801 0.3284061
vt 0.062035773 0.36484647
vt 0.039417796 0.35678458
vt 0.031064199 0.35022658
vt 0.021553377 0.33072585
vt 0.013624906 0.324193
vt 0.056438778 0.36746275
vt 0.051852982 0.36397558
vt 0.028675733 0.34788716
vt 0.029826989 0.33968318
vt 0.05898799 0.3694734
vt 0.010526166 0.3353709
vt 0.013468825 0.3377375
vt 0.02360305 0.34249997
vt 0.0083108116 0.33283079
vt 0.019198865 0.34077311
vt 0.0037339681 0.32962674
vt 0.21337286 0.10934192
vt 0.17032178 0.10927802
vt 0.19614105 0.078444183
vt 0.2668457 0.10976392
vt 0.1982922 0.1315248
vt 0.11627713 0.10798979
vt 0.25746602 0.13258898
vt 0.29002795 0.078799427
vt 0.1156339 0.12958175
vt 0.068352163 0.078439176
vt 0.28468135 0.14636081
vt 0.3393884 0.11022091
vt 0.15391284 0.13433838
vt 0.2144767 0.14560717
vt 0.083799981 0.11599255
vt 0.045029785 0.1079241
vt 0.12920359 0.14413458
vt 0.056928273 0.13041896
vt 0.014850554 0.092997313
vt 0.3398068 0.1458903
vt 0.27104568 0.17337817
vt 0.022730498 0.1033746
vt 0.0031607223 0.077651501
vt 0.28448746 0.16518456
vt 0.025650216 0.14304626
vt 0.025875127 0.1164974
vt 0.025899502 0.10768884
vt 0.32400852 0.16674638
vt 0.02584108 0.13752258
vt 0.025847273 0.12874019
vt 0.34069633 0.17087138
vt 0.32603705 0.18340808
vt 0.27849978 0.18064451
vt 0.36353472 0.80183917
vt 0.38575187 0.82599467
vt 0.35692361 0.8442294
vt 0.34823167 0.81698608
vt 0.39407656 0.80908412
vt 0.38129604 0.86739618
vt 0.32486886 0.79139364
vt 0.43417338 0.81244874
vt 0.38568851 0.78434169
vt 0.41794425 0.8565793
vt 0.38487697 0.76053965
vt 0.42517728 0.79199195
vt 0.42008957 0.83131754
vt 0.42124903 0.88002336
vt 0.35155156 0.75190091
vt 0.48180059 0.79134762
vt 0.47565413 0.81709576
vt 0.42481565 0.77198827
vt 0.45560312 0.84908152
vt 0.44878146 0.86582512
vt 0.41145337 0.88418579
vt 0.4054471 0.68894595
vt 0.46979979 0.83641875
vt 0.4210043 0.75038236
vt 0.49005798 0.87049222
vt 0.47447026 0.90228868
vt 0.45793939 0.72114468
vt 0.46389118 0.7613194
vt 0.47329599 0.90939802
vt 0.49510694 0.78515625
vt 0.4013263 0.95700562
vt 0.49510014 0.76371408
vt 0.49513099 0.85869408
vt 0.43909127 0.95158684
vt 0.38094464 0.88593292
vt 0.49509373 0.74322891
vt 0.43491867 0.96969998
vt 0.49515176 0.9029181
vt 0.34736603 0.98624492
vt 0.44648835 0.97825032
vt 0.39451739 0.98095405
vt 0.49515414 0.90976214
vt 0.33060089 0.97112417
vt 0.46787345 0.95723546
vt 0.42443764 0.99231392
vt 0.49516657 0.9463498
vt 0.32713908 0.99635381
vt 0.37726441 0.99633735
vt 0.46880081 0.97604662
vt 0.46130288 0.99421877
vt 0.41801089 0.99632359
vt 0.31572431 0.9963572
vt 0.34979501 0.99634653
vt 0.35757983 0.99634385
vt 0.39839897 0.9963305
vt 0.49516758 0.95098835
vt 0.49517235 0.96706986
vt 0.46064535 0.99631011
vt 0.42710459 0.99632055
vt 0.49516815 0.95451283
vt 0.49517271 0.96805418
vt 0.49145505 0.98034835
vt 0.49517372 0.9712373
vt 0.49517769 0.98337394
vt 0.4951812 0.99381018
vt 0.49517652 0.97978961
vt 0.46789297 0.99630773
vt 0.49518201 0.99629891
vt 0.45938995 0.99631035
vt 0.72003758 0.88482904
vt 0.7380656 0.88459826
vt 0.73438841 0.90206581
vt 0.72873932 0.93942398
vt 0.744497 0.87485999
vt 0.75938809 0.91516125
vt 0.74465513 0.93349814
vt 0.67542541 0.90073532
vt 0.73571038 0.85932499
vt 0.75937879 0.88758975
vt 0.75938952 0.91973102
vt 0.75939208 0.92695928
vt 0.75940096 0.94928932
vt 0.67164528 0.9401558
vt 0.6972481 0.8631832
vt 0.75937837 0.8820765
vt 0.75939661 0.93500537
vt 0.75940144 0.95115691
vt 0.68645376 0.95761836
vt 0.6597746 0.93751657
vt 0.6767084 0.84198189
vt 0.73437887 0.84220523
vt 0.75764477 0.96998656
vt 0.68990612 0.97146648
vt 0.65929991 0.95441246
vt 0.6600377 0.90926296
vt 0.63535613 0.89939201
vt 0.75940371 0.9629848
vt 0.73328352 0.99673808
vt 0.67338157 0.96777129
vt 0.70853943 0.97295976
vt 0.65156305 0.9359225
vt 0.63361651 0.84501886
vt 0.75940573 0.96999359
vt 0.75940514 0.97126704
vt 0.67775702 0.97723126
vt 0.68929815 0.98574001
vt 0.63783199 0.95230067
vt 0.63863993 0.92025745
vt 0.6192314 0.85917008
vt 0.72391486 0.9942463
vt 0.7594133 0.99368799
vt 0.75940508 0.97055769
vt 0.66803288 0.97704089
vt 0.70898837 0.99530321
vt 0.63132364 0.94582772
vt 0.65151823 0.964661
vt 0.62936473 0.93890405
vt 0.62664002 0.9218697
vt 0.59979171 0.88201463
vt 0.61956841 0.84287035
vt 0.66649115 0.96189189
vt 0.67913556 0.98667854
vt 0.61715776 0.94933999
vt 0.63272971 0.96977007
vt 0.622284 0.91600865
vt 0.6099205 0.90591097
vt 0.60430765 0.87006974
vt 0.60219532 0.84129047
vt 0.6328572 0.84246635
vt 0.6567722 0.97465652
vt 0.66552597 0.98757333
vt 0.61033964 0.93338442
vt 0.62011737 0.9639076
vt 0.64191204 0.97871941
vt 0.60172117 0.91627502
vt 0.59381121 0.90092063
vt 0.59256208 0.85159242
vt 0.58683175 0.89124006
vt 0.58144426 0.87317383
vt 0.58380705 0.83910233
vt 0.65023226 0.98451364
vt 0.59734637 0.93192607
vt 0.58976996 0.91358179
vt 0.58471072 0.91109103
vt 0.57433355 0.8801403
vt 0.56294775 0.85585839
vt 0.59025437 0.93107021
vt 0.58172184 0.92766494
vt 0.57886291 0.89728796
vt 0.56465054 0.88928866
vt 0.55620623 0.87096977
vt 0.56763893 0.84009933
vt 0.57318401 0.92346483
vt 0.57698786 0.90918231
vt 0.55684036 0.87930405
vt 0.54088295 0.86295611
vt 0.54996032 0.84306192
vt 0.56741673 0.9008407
vt 0.54779154 0.88973427
vt 0.54670012 0.87954289
vt 0.52869737 0.87263072
vt 0.54722077 0.83941168
vt 0.55008239 0.85738599
vt 0.5589208 0.91527766
vt 0.55753732 0.90099066
vt 0.51000947 0.8678385
vt 0.52375728 0.88168389
vt 0.54621375 0.89780802
vt 0.50478572 0.87646157
vt 0.55534315 0.91083533
vt 0.53082287 0.89220625
vt 0.53265578 0.89940715
vt 0.81477004 0.84962589
vt 0.80371779 0.7885834
vt 0.88643479 0.8131544
vt 0.84496462 0.86498815
vt 0.75441879 0.87185973
vt 0.83127111 0.74471867
vt 0.89222193 0.78147161
vt 0.92745554 0.80168992
vt 0.93580782 0.84176838
vt 0.95620906 0.80925035
vt 0.96990472 0.7867372
vt 0.97456586 0.72289908
vt 0.97559619 0.78285533
vt 0.97557634 0.72349769
vt 0.97559816 0.78988892
vt 0.95091528 0.98712182
vt 0.9752326 0.9697991
vt 0.97039264 0.98688191
vt 0.92998576 0.97002423
vt 0.98147744 0.98808676
vt 0.93474507 0.97840023
vt 0.9958269 0.97019643
vt 0.9164781 0.98139441
vt 0.99120677 0.98666161
vt 0.89811903 0.96951973
vt 0.88793874 0.9845832
vt 0.85466611 0.96856463
vt 0.86563265 0.98210865
vt 0.84710079 0.98430729
vt 0.82563883 0.98134452
vt 0.80566633 0.9674961
vt 0.81725001 0.98699337
vt 0.80235416 0.98681241
vt 0.78731722 0.97818363
vt 0.79150343 0.99526924
vt 0.79460448 0.96947932
vt 0.78567713 0.97115129
vt 0.61093354 0.69723141
vt 0.6327337 0.67095518
vt 0.62788093 0.68961883
vt 0.62798703 0.71911317
vt 0.55703998 0.65731251
vt 0.64402151 0.69202024
vt 0.6077829 0.72344351
vt 0.63600314 0.70046848
vt 0.57752681 0.73708725
vt 0.63200861 0.64569479
vt 0.65156364 0.67281592
vt 0.62796509 0.74107993
vt 0.60179263 0.71649933
vt 0.50425476 0.74641252
vt 0.60095513 0.58419895
vt 0.6530844 0.64463425
vt 0.66072142 0.66978985
vt 0.6498276 0.71252072
vt 0.5502997 0.74639785
vt 0.65579885 0.60589689
vt 0.64840901 0.63886893
vt 0.67657995 0.69385755
vt 0.6582731 0.72561646
vt 0.5804711 0.74638796
vt 0.57126796 0.74639106
vt 0.66171134 0.55388248
vt 0.66190118 0.64491075
vt 0.62814385 0.7463721
vt 0.62291771 0.74637377
vt 0.57617128 0.74638933
vt 0.66899395 0.57437444
vt 0.67606407 0.65241146
vt 0.6459797 0.7463662
vt 0.67602384 0.56629133
vt 0.68356496 0.60132176
vt 0.66912681 0.62386298
vt 0.69307423 0.66680014
vt 0.66465503 0.61210418
vt 0.68188047 0.58122814
vt 0.69626135 0.63329637
vt 0.67039996 0.68386751
vt 0.68532145 0.65709114
vt 0.67653811 0.5703975
vt 0.69055593 0.61664259
vt 0.69790739 0.62147677
vt 0.71039999 0.63761741
vt 0.20101954 0.97758049
vt 0.20975582 0.96458769
vt 0.22601512 0.97352326
vt 0.17077158 0.98478317
vt 0.25793913 0.96116054
vt 0.17508505 0.96624219
vt 0.25359538 0.97407228
vt 0.16017951 0.98127514
vt 0.279163 0.97550309
vt 0.15962163 0.96999323
vt 0.16036832 0.98580354
vt 0.29027814 0.95900977
vt 0.26991662 0.98200572
vt 0.29678032 0.97222584
vt 0.30466288 0.960356
vt 0.288158 0.99008328
vt 0.31624928 0.96165895
vt 0.2993741 0.98574883
vt 0.3268601 0.95689338
vt 0.31270209 0.98332363
vt 0.30507919 0.99534386
vt 0.30858406 0.96761394
vt 0.59622347 0.98071808
vt 0.63172776 0.9957189
vt 0.53340942 0.99508923
vt 0.5647909 0.97996926
vt 0.62993574 0.98136646
vt 0.52832651 0.9794513
vt 0.5043025 0.9938826
vt 0.50432724 0.98955876
vt 0.50436658 0.97887069
vt 0.50446492 0.96432698
vt 0.54816264 0.95505118
vt 0.57525635 0.96190155
vt 0.53396535 0.93775421
vt 0.57120287 0.94426429
vt 0.51431996 0.94162625
vt 0.55050141 0.93327695
vt 0.5954228 0.93667591
vt 0.61471361 0.9528529
vt 0.5970996 0.93133634
vt 0.61574197 0.9614808
vt 0.85868424 0.95585394
vt 0.85433412 0.94737256
vt 0.87149453 0.94293308
vt 0.8817597 0.93691427
vt 0.86147273 0.93534887
vt 0.90492916 0.93680835
vt 0.84757745 0.944206
vt 0.91695404 0.95787704
vt 0.93378752 0.93601686
vt 0.86014885 0.96460044
vt 0.93447632 0.9446407
vt 0.94832867 0.96272969
vt 0.93404263 0.93612838
vt 0.93485379 0.94473994
vt 0.94865882 0.96118224
vt 0.93469417 0.94458187
vt 0.94094193 0.95170361
vt 0.33599386 0.85345972
vt 0.33640602 0.93266845
vt 0.26937914 0.90928012
vt 0.27031761 0.85468996
vt 0.25405774 0.93351614
vt 0.69257236 0.72843003
vt 0.74820107 0.72888184
vt 0.74796021 0.78450507
vt 0.69140083 0.8077507
vt 0.75175542 0.80786127
vt 0.80040824 0.93978524
vt 0.78814673 0.95000625
vt 0.78575218 0.93230653
vt 0.81428713 0.91911584
vt 0.81788343 0.94706464
vt 0.82529384 0.93317509
vt 0.8148008 0.88899487
vt 0.82585835 0.93904668
vt 0.82415158 0.95323014
vt 0.82335663 0.91396999
vt 0.82085991 0.89022672
vt 0.82608086 0.94147092
vt 0.8268882 0.9647944
vt 0.82303935 0.91091764
vt 0.826388 0.9475702
vt 0.82683641 0.95489687
vt 0.82682413 0.9534294
vt 0.86583281 0.91046107
vt 0.87790066 0.91066158
vt 0.87857163 0.92016917
vt 0.88029236 0.93255997
vt 0.89902788 0.90677881
vt 0.8518734 0.93278533
vt 0.91318983 0.93139333
vt 0.88185936 0.9136045
vt 0.84680039 0.90774262
vt 0.91646218 0.90843296
vt 0.62947029 0.75586814
vt 0.64111853 0.78018707
vt 0.63023281 0.8082583
vt 0.65511513 0.7822482
vt 0.66175514 0.74893844
vt 0.6839053 0.79677808
vt 0.68371886 0.7441417
vt 0.68753362 0.74621856
vt 0.68778402 0.78607416
vt 0.68833047 0.79816145
vt 0.22126953 0.94544852
vt 0.22082837 0.9573279
vt 0.20603579 0.96495235
vt 0.20159417 0.94574308
vt 0.20628306 0.93866825
vt 0.21659288 0.93604553
vt 0.19103804 0.95054102
vt 0.22862078 0.93591785
vt 0.19524302 0.94633526
vt 0.23305254 0.93735498
vt 0.19173558 0.94893104
vt 0.23413809 0.94585592
vt 0.19108373 0.94941163
vt 0.24048774 0.94048971
vt 0.24944736 0.94125855
vt 0.24597292 0.95768499
vt 0.25595126 0.9546113
vt 0.23736197 0.96034676
vt 0.97930747 0.93589681
vt 0.97450435 0.92488939
vt 0.97671431 0.91693622
vt 0.98638713 0.92722619
vt 0.97471952 0.93174344
vt 0.9941743 0.92024529
vt 0.99555933 0.93584877
vt 0.96846062 0.92864013
vt 0.99307442 0.94216311
vt 0.96511906 0.93454325
vt 0.98598039 0.94884914
vt 0.97320414 0.94438481
vt 0.96035689 0.94643456
vt 0.98980665 0.96003681
vt 0.97265863 0.95331323
vt 0.95574397 0.9407385
vt 0.97686571 0.96398419
vt 0.95384711 0.93384814
vt 0.96344727 0.92491984
vt 0.95088822 0.91708881
vt 0.94221598 0.92652524
vt 0.96129394 0.90246177
vt 0.94083399 0.92063355
vt 0.94500142 0.9114086
vt 0.55559272 0.92710537
vt 0.55461836 0.91997486
vt 0.55684745 0.92651504
vt 0.54549235 0.91531342
vt 0.56352836 0.92194271
vt 0.54636604 0.9314698
vt 0.55531472 0.91374695
vt 0.54085827 0.9277482
vt 0.55115652 0.90773296
vt 0.54563129 0.93283111
vt 0.5279054 0.92527843
vt 0.54145497 0.90358734
vt 0.52330136 0.91137516
vt 0.52159661 0.92272395
vt 0.53493977 0.90349764
vt 0.51570368 0.92331272
vt 0.52478904 0.90422624
vt 0.51801175 0.92410779
vt 0.51303667 0.92179358
vt 0.51624215 0.9026916
vt 0.50824249 0.90733051
vt 0.51230961 0.90375513
vt 0.50998724 0.91731423
vt 0.50371534 0.90528774
vt 0.20425498 0.91243315
vt 0.2031052 0.90187603
vt 0.21389943 0.8937856
vt 0.22332498 0.90236342
vt 0.22035581 0.91192687
vt 0.2479469 0.89754498
vt 0.21405475 0.92122889
vt 0.22014888 0.92558652
vt 0.19056027 0.9335537
vt 0.25238183 0.91846138
vt 0.91569543 0.84612411
vt 0.90659833 0.86189365
vt 0.88419515 0.8435806
vt 0.89295489 0.83113432
vt 0.9229213 0.86373061
vt 0.89436084 0.87041253
vt 0.88214046 0.82798314
vt 0.92416215 0.83747929
vt 0.92936033 0.85306412
vt 0.88507009 0.86591858
vt 0.87945545 0.82943797
vt 0.93760979 0.84577119
vt 0.31700507 0.83985186
vt 0.28609839 0.78376508
vt 0.31866196 0.78521085
vt 0.28545085 0.83878481
vt 0.90236455 0.89549297
vt 0.895262 0.90208358
vt 0.86011672 0.89811087
vt 0.8769142 0.89369941
vt 0.88909543 0.8808136
vt 0.87013501 0.8842687
vt 0.87807536 0.88455749
vt 0.87490445 0.87551957
vt 0.84889722 0.88302523
vt 0.87764895 0.87800604
vt 0.86395401 0.87906069
vt 0.84710807 0.8940317
vt 0.84730834 0.89739394
vt 0.3601197 0.85713619
vt 0.36454371 0.87369782
vt 0.34817237 0.88243032
vt 0.34844834 0.86139393
vt 0.37740779 0.8731699
vt 0.36262244 0.88252723
vt 0.34816089 0.84971887
vt 0.37376288 0.88299686
vt 0.35260323 0.89397854
vt 0.34766316 0.90292627
vt 0.50667942 0.81800908
vt 0.50880355 0.81057137
vt 0.51834238 0.8299858
vt 0.50314605 0.8326031
vt 0.52795529 0.8160637
vt 0.5216409 0.83840621
vt 0.52971464 0.82934326
vt 0.52208936 0.80477047
vt 0.53167725 0.84027761
vt 0.54119211 0.81920111
vt 0.53176463 0.79388362
vt 0.53733206 0.81153488
vt 0.52573454 0.78970015
vt 0.55578494 0.81458962
vt 0.50364816 0.79081726
vt 0.53423679 0.78921866
vt 0.55124873 0.80320609
vt 0.55408609 0.79670656
vt 0.5530203 0.79130566
vt 0.77481955 0.90223044
vt 0.78891826 0.8807897
vt 0.78475058 0.91025615
vt 0.77594233 0.91363609
vt 0.78760433 0.88066089
vt 0.79089743 0.91065764
vt 0.77204859 0.90720004
vt 0.78442854 0.91741955
vt 0.77210647 0.89931941
vt 0.78727758 0.87977499
vt 0.77043664 0.9018212
vt 0.78829944 0.87507194
vt 0.78830868 0.91597581
vt 0.16107136 0.98547256
vt 0.20405504 0.98497713
vt 0.18628216 0.98989946
vt 0.17095537 0.99255872
vt 0.19420363 0.99633205
vt 0.20398632 0.98842514
vt 0.96340096 0.83237416
vt 0.97232163 0.84463018
vt 0.96440583 0.85886669
vt 0.95124143 0.84653497
vt 0.98199934 0.83231664
vt 0.98046952 0.85843003
vt 0.9506287 0.85955232
vt 0.97641551 0.86514568
vt 0.96146291 0.87019491
vt 0.94257438 0.8595739
vt 0.97265792 0.86701965
vt 0.9801051 0.86683196
vt 0.95410001 0.86817336
vt 0.94458568 0.86368787
vt 0.94060808 0.85466599
vt 0.94918644 0.86715883
vt 0.25690967 0.84837902
vt 0.24964438 0.84989667
vt 0.24491659 0.84622669
vt 0.25863418 0.85915452
vt 0.23762891 0.86579508
vt 0.24743187 0.86331201
vt 0.26242331 0.87362868
vt 0.2407233 0.87238306
vt 0.24742518 0.88339019
vt 0.25622717 0.88588297
vt 0.92509639 0.8902719
vt 0.93811655 0.88000798
vt 0.93808663 0.88937783
vt 0.93405503 0.90164906
vt 0.95042926 0.89425063
vt 0.94553548 0.90934062
vt 0.9277702 0.9114868
vt 0.94120443 0.9172197
vt 0.95157284 0.9024784
vt 0.565759 0.81910861
vt 0.57803965 0.80947173
vt 0.57782173 0.82022625
vt 0.56884027 0.82532287
vt 0.60256022 0.83504534
vt 0.5841828 0.83901465
vt 0.33564636 0.9620409
vt 0.33166543 0.95478755
vt 0.33726767 0.95514894
vt 0.33187178 0.96472609
vt 0.33784974 0.95041144
vt 0.3412877 0.94480592
vt 0.33224258 0.94604009
vt 0.31670347 0.9467513
vt 0.34176654 0.94201303
vt 0.33030045 0.93741643
vt 0.33654249 0.93383586
vt 0.34161291 0.93886298
vt 0.34537771 0.93384749
vt 0.34440637 0.92708343
vt 0.95782918 0.88921428
vt 0.9674198 0.88092619
vt 0.96405673 0.90536094
vt 0.96184558 0.90325338
vt 0.97050101 0.90576661
vt 0.95732993 0.88960892
vt 0.96261662 0.90634763
vt 0.97363096 0.89496034
vt 0.95715535 0.88895261
vt 0.96726924 0.91844225
vt 0.98279387 0.88628608
vt 0.24180697 0.99475312
vt 0.2191076 0.99522036
vt 0.20682707 0.98715466
vt 0.24297285 0.98231971
vt 0.49739414 0.89014107
vt 0.49848914 0.88836777
vt 0.49857074 0.88928258
vt 0.5042941 0.90170586
vt 0.52306467 0.88021135
vt 0.48882794 0.88789934
vt 0.82428086 0.89678812
vt 0.81684208 0.88742602
vt 0.82381481 0.87824965
vt 0.83732146 0.89073318
vt 0.83937705 0.87720424
vt 0.83801687 0.90314978
vt 0.84803611 0.87880075
vt 0.84439468 0.89900827
vt 0.92440993 0.89197463
vt 0.92383683 0.90293497
vt 0.89438379 0.87880749
vt 0.92670327 0.88862514
vt 0.58557928 0.96141267
vt 0.60863149 0.96578395
vt 0.5942778 0.98007238
vt 0.58117551 0.97826785
vt 0.60240811 0.97933507
vt 0.78221273 0.97984177
vt 0.77157694 0.9903813
vt 0.76885194 0.98420119
vt 0.77052778 0.9754535
vt 0.7805075 0.99630922
vt 0.78388065 0.96887416
vt 0.78840572 0.98154199
vt 0.23751234 0.97829831
vt 0.25009948 0.97536451
vt 0.25282529 0.99574417
vt 0.26561168 0.99087065
vt 0.25915158 0.97572327
vt 0.56202024 0.98066658
vt 0.55140734 0.96355343
vt 0.56410855 0.96201533
vt 0.5775795 0.96451277
vt 0.99566138 0.9129777
vt 0.98115122 0.91261899
vt 0.99143964 0.88989246
vt 0.9787249 0.9179554
vt 0.97991443 0.89825767
vt 0.97256827 0.90786153
vt 0.50374293 0.92774236
vt 0.51274866 0.94211161
vt 0.51093483 0.94964224
vt 0.5308736 0.92824477
vt 0.50603956 0.92307961
vt 0.18658629 0.93700814
vt 0.19374406 0.93911552
vt 0.19386393 0.95119649
vt 0.17581391 0.95197165
vt 0.19080016 0.96544218
vt 0.16470413 0.99192911
vt 0.14790261 0.99643588
vt 0.13626043 0.99345201
vt 0.77252775 0.93962157
vt 0.77815986 0.95984203
vt 0.76940203 0.96545696
vt 0.78820437 0.96277201
vt 0.85755295 0.95266962
vt 0.85067058 0.96229666
vt 0.847902 0.95299268
vt 0.83252198 0.94354147
vt 0.84131563 0.96577895
vt 0.63311231 0.97909302
vt 0.64130044 0.98014498
vt 0.63698441 0.98458755
vt 0.63254225 0.98062009
vt 0.63970369 0.98774761
vt 0.62918085 0.97884548
vt 0.64937538 0.99472308
vt 0.65201646 0.99676472
vt 0.65418297 0.98550564
vt 0.17461652 0.99362582
vt 0.17189986 0.99589682
vt 0.15209764 0.99137747
vt 0.86549777 0.99368739
vt 0.8732816 0.9823395
vt 0.88163298 0.99521929
vt 0.86424834 0.99306959
vt 0.86459661 0.9935832
vt 0.86474872 0.98423576
vt 0.86378527 0.99395591
vt 0.91944015 0.98039812
vt 0.92701995 0.98551106
vt 0.92241269 0.9962855
vt 0.91095597 0.99391538
vt 0.2167702 0.99273056
vt 0.20894043 0.99671578
vt 0.19947769 0.99069136
vt 0.26125133 0.99688596
vt 0.2688314 0.99106419
vt 0.27916247 0.98930162
vt 0.84765822 0.98430282
vt 0.84896231 0.99533802
vt 0.83296198 0.99141461
vt 0.93181968 0.98114365
vt 0.93079549 0.99634063
vt 0.92988914 0.99560958
vt 0.92638594 0.98314959
vt 0.94009429 0.99272937
vt 0.93020785 0.99702549
vt 0.50381207 0.98430145
vt 0.49896559 0.99655628
vt 0.49558148 0.98652208
vt 0.85259694 0.99655628
vt 0.84775043 0.98430145
vt 0.85840404 0.9890908
vt 0.63908553 0.99601912
vt 0.62860531 0.9966498
vt 0.63878572 0.98527217
vt 0.0052092331 0.99637032
vt 0.0041154027 0.99679029
vt 0.0052655814 0.99518484
vt 0.0052627618 0.99678874
vt 0.15295583 0.9943319
vt 0.15474367 0.9938826
vt 0.15361905 0.99661082
vt 0.0041984161 0.99631011
vt 0.0035408875 0.99421877
vt 0.0054538059 0.99631035
usemtl Tile_+032_+023_L18_00020_0
f 222/799 220/800 217/801
f 69/780 70/781 232/782
f 528/688 234/689 529/690
f 69/780 232/782 526/783
f 527/787 231/785 532/792
f 228/354 226/355 227/356
f 216/805 221/802 217/801
f 221/802 222/799 217/801
f 221/358 226/355 228/354
f 227/356 230/360 229/357
f 222/362 221/358 228/354
f 537/363 221/358 538/369
f 172/361 176/368 228/354
f 223/375 222/362 176/368
f 228/354 176/368 222/362
f 229/357 228/354 227/356
f 172/361 228/354 229/357
f 533/948 224/949 540/950
f 219/804 220/800 223/803
f 220/800 219/804 217/801
f 216/805 217/801 543/807
f 184/435 153/444 191/445
f 240/664 253/665 102/666
f 201/138 199/139 200/140
f 199/139 211/143 200/140
f 199/139 202/144 179/148
f 179/472 122/473 208/474
f 122/473 204/478 209/476
f 202/144 167/151 179/148
f 202/144 197/142 168/147
f 165/410 147/403 169/380
f 110/875 111/876 161/877
f 169/380 147/403 150/393
f 200/140 156/141 201/138
f 145/439 184/435 151/429
f 195/162 206/165 198/159
f 171/379 172/361 173/373
f 124/1 126/2 205/3
f 116/13 118/12 620/34
f 160/751 322/752 239/753
f 145/439 153/444 184/435
f 211/143 210/146 200/140
f 204/887 194/888 210/889
f 200/891 210/889 194/888
f 212/21 203/29 194/14
f 211/480 209/476 204/478
f 208/145 209/149 211/143
f 199/139 208/145 211/143
f 210/889 211/890 204/887
f 208/145 199/139 179/148
f 194/450 191/445 200/453
f 122/473 209/476 208/474
f 194/14 204/9 126/2
f 194/14 203/29 186/40
f 124/1 115/8 125/5
f 203/29 193/49 186/40
f 142/416 141/426 134/419
f 195/162 198/159 166/156
f 167/151 164/155 166/156
f 166/156 198/159 177/154
f 177/154 167/151 166/156
f 177/154 179/148 167/151
f 168/147 167/151 202/144
f 156/141 197/142 201/138
f 145/439 151/429 146/434
f 190/436 185/430 188/441
f 156/451 200/453 191/445
f 148/421 182/412 150/393
f 182/412 148/421 189/424
f 184/435 186/440 185/430
f 156/451 191/445 153/444
f 186/440 184/435 191/445
f 186/927 187/928 185/929
f 184/435 185/430 152/423
f 148/421 152/423 185/430
f 148/421 185/430 189/424
f 192/61 188/55 193/49
f 188/930 187/928 186/927
f 186/40 193/49 188/55
f 191/445 194/450 186/440
f 207/157 179/148 177/154
f 198/159 178/163 177/154
f 165/410 162/409 134/419
f 175/367 173/373 172/361
f 172/361 169/380 144/374
f 169/380 171/379 174/392
f 152/423 147/403 151/429
f 180/404 143/386 150/393
f 150/393 149/411 148/421
f 169/380 150/393 143/386
f 147/403 152/423 148/421
f 170/385 174/392 171/379
f 175/367 172/361 229/357
f 173/373 170/385 171/379
f 170/385 121/401 174/392
f 137/158 166/156 164/155
f 158/152 157/153 168/147
f 166/156 137/158 195/162
f 133/432 130/437 128/427
f 134/419 141/426 140/431
f 139/449 146/434 136/442
f 134/419 127/420 165/410
f 120/402 142/416 134/419
f 120/402 162/409 169/380
f 165/410 169/380 162/409
f 127/420 132/428 163/422
f 165/410 127/420 147/403
f 127/420 163/422 147/403
f 128/427 127/420 134/419
f 154/443 157/452 156/451
f 197/142 156/141 168/147
f 202/144 199/139 197/142
f 139/449 157/452 154/443
f 167/151 168/147 157/153
f 157/153 164/155 167/151
f 157/452 155/455 156/451
f 199/139 201/138 197/142
f 155/150 168/147 156/141
f 184/435 152/423 151/429
f 156/451 153/444 154/443
f 154/443 153/444 145/439
f 148/421 149/411 147/403
f 180/404 150/393 182/412
f 171/379 169/380 172/361
f 144/793 143/794 214/795
f 160/751 238/754 181/757
f 239/753 238/754 160/751
f 159/722 161/723 160/724
f 145/439 146/434 154/443
f 147/403 163/422 151/429
f 250/965 100/966 108/967
f 137/448 138/454 139/449
f 157/452 158/456 155/455
f 157/452 139/449 138/454
f 135/438 137/448 136/442
f 131/433 136/442 146/434
f 146/434 139/449 154/443
f 139/449 136/442 137/448
f 136/442 131/433 135/438
f 131/433 163/422 132/428
f 135/438 131/433 132/428
f 132/428 127/420 128/427
f 128/427 134/419 133/432
f 162/409 120/402 134/419
f 140/431 133/432 134/419
f 196/170 195/162 130/167
f 138/161 137/158 157/153
f 135/438 132/428 130/437
f 164/155 157/153 137/158
f 137/448 135/438 130/437
f 132/428 128/427 130/437
f 140/177 196/170 133/174
f 137/158 130/167 195/162
f 140/177 141/187 142/184
f 142/416 120/402 121/401
f 120/402 174/392 121/401
f 122/6 205/3 126/2
f 125/5 126/2 124/1
f 204/9 122/6 126/2
f 126/2 212/21 194/14
f 115/8 124/1 119/4
f 119/4 124/1 205/3
f 123/10 205/3 122/6
f 119/4 116/13 115/8
f 119/4 117/18 116/13
f 117/18 119/4 118/12
f 116/13 117/18 118/12
f 114/919 111/920 110/921
f 108/815 105/816 109/817
f 109/817 105/816 104/819
f 315/820 100/818 99/821
f 163/422 131/433 146/434
f 248/677 247/680 112/675
f 243/684 242/686 320/683
f 112/675 240/664 325/674
f 112/675 236/676 113/673
f 112/675 325/674 248/677
f 320/683 319/682 246/681
f 323/824 215/823 99/821
f 320/683 246/681 243/684
f 113/673 241/671 240/664
f 215/670 101/667 103/669
f 246/681 319/682 113/673
f 240/664 112/675 113/673
f 240/664 101/667 215/670
f 249/908 324/909 99/910
f 315/820 99/821 215/823
f 240/664 323/672 325/674
f 323/672 240/664 215/670
f 324/909 248/911 325/913
f 323/912 99/910 324/909
f 106/756 322/752 218/758
f 322/752 106/756 239/753
f 161/723 321/727 160/724
f 106/825 114/826 107/827
f 160/751 235/755 322/752
f 321/727 235/731 160/724
f 237/725 159/722 160/724
f 161/723 159/722 129/726
f 129/726 159/722 109/730
f 250/729 108/733 159/722
f 159/722 108/733 109/730
f 110/921 102/922 114/919
f 129/879 109/881 317/878
f 107/827 114/826 102/829
f 241/830 107/827 102/829
f 106/756 318/759 239/753
f 111/892 218/893 235/894
f 315/820 104/819 105/816
f 235/894 321/895 111/892
f 218/893 111/892 106/896
f 319/682 320/683 106/685
f 103/880 110/875 317/878
f 241/830 316/828 107/827
f 316/828 113/832 319/831
f 103/669 101/667 102/666
f 110/921 103/923 102/922
f 242/686 318/687 320/683
f 320/683 318/687 106/685
f 103/822 104/819 315/820
f 215/823 103/822 315/820
f 102/666 101/667 240/664
f 524/784 69/780 547/788
f 70/781 231/785 232/782
f 535/365 227/356 548/364
f 227/356 226/355 539/359
f 541/808 216/805 546/812
f 217/801 219/804 550/806
f 185/430 190/436 189/424
f 253/665 240/664 252/668
f 174/392 120/402 169/380
f 237/725 160/724 251/728
f 143/794 183/797 214/795
f 179/472 207/477 123/475
f 123/475 122/473 179/472
f 188/441 185/430 187/447
f 147/403 149/411 150/393
f 130/167 133/174 196/170
f 168/147 155/150 158/152
f 146/434 151/429 163/422
f 144/374 176/368 172/361
f 144/374 169/380 143/386
f 244/678 112/675 247/680
f 161/877 129/879 317/878
f 111/892 321/895 161/897
f 100/818 105/816 108/815
f 239/753 318/759 242/760
f 324/909 325/913 323/912
f 241/830 113/832 316/828
f 245/679 113/673 236/676
f 161/877 317/878 110/875
f 111/892 114/898 106/896
f 235/755 218/758 322/752
f 104/882 317/878 109/881
f 107/827 316/828 106/825
f 315/820 105/816 100/818
f 106/825 316/828 319/831
f 104/882 103/880 317/878
f 311/252 395/253 312/254
f 414/204 416/202 415/206
f 225/951 297/953 224/949
f 269/223 291/216 260/218
f 554/840 309/841 555/842
f 556/710 305/708 557/706
f 305/708 299/711 307/709
f 300/700 307/709 554/707
f 557/706 300/700 559/703
f 233/691 303/695 302/698
f 304/936 302/937 560/938
f 559/703 304/701 562/705
f 233/691 302/698 300/700
f 302/937 303/944 564/943
f 303/695 233/691 563/693
f 288/646 293/647 301/648
f 280/227 279/224 264/221
f 567/699 300/700 569/702
f 306/854 294/855 299/856
f 272/761 268/762 256/763
f 271/764 272/761 256/763
f 272/931 271/932 286/933
f 262/230 277/232 280/227
f 295/209 292/212 255/215
f 259/771 257/765 290/768
f 374/211 389/205 376/207
f 285/772 257/765 259/771
f 268/762 290/768 257/765
f 269/770 285/772 265/774
f 255/215 260/218 295/209
f 308/846 293/849 570/848
f 301/847 293/849 308/846
f 257/765 269/770 270/767
f 287/384 229/357 268/382
f 257/765 285/772 269/770
f 287/934 286/933 292/935
f 260/769 270/767 269/770
f 261/778 259/771 575/776
f 259/771 290/768 268/762
f 229/357 289/376 268/382
f 285/772 258/777 265/774
f 268/382 272/394 287/384
f 229/357 230/360 572/366
f 279/224 280/227 281/225
f 275/231 280/227 273/235
f 264/221 263/229 262/230
f 275/231 281/225 280/227
f 281/225 284/217 279/224
f 275/540 283/541 282/542
f 283/541 275/540 274/543
f 274/543 68/545 283/541
f 68/545 274/543 584/547
f 582/246 276/239 587/247
f 276/239 274/240 273/235
f 275/231 273/235 274/240
f 264/221 279/224 284/217
f 280/227 264/221 262/230
f 588/234 262/230 589/237
f 581/243 277/232 590/238
f 587/247 278/244 591/250
f 277/232 278/244 276/239
f 273/235 277/232 276/239
f 262/230 261/236 592/241
f 262/230 263/229 258/233
f 264/221 265/226 263/229
f 284/217 266/213 264/221
f 258/233 261/236 262/230
f 285/772 259/771 258/777
f 259/771 261/778 258/777
f 265/226 264/221 267/220
f 269/223 265/226 267/220
f 258/959 263/960 265/961
f 267/220 291/216 269/223
f 256/763 270/767 260/769
f 256/763 255/766 271/764
f 256/763 257/765 270/767
f 260/769 255/766 256/763
f 256/763 268/762 257/765
f 309/841 308/846 571/845
f 308/846 309/841 301/847
f 294/855 301/864 309/861
f 346/968 225/969 595/970
f 288/850 346/853 596/852
f 288/646 301/648 294/649
f 599/650 306/652 600/654
f 409/197 417/196 402/200
f 426/181 425/178 196/170
f 366/19 328/7 345/25
f 206/165 427/168 429/172
f 298/372 229/357 296/377
f 416/202 409/197 402/200
f 173/373 175/367 421/378
f 367/553 388/557 389/555
f 292/935 286/933 271/932
f 362/214 408/208 295/209
f 267/220 266/213 291/216
f 332/101 394/102 340/103
f 399/418 418/400 403/414
f 287/384 296/377 229/357
f 377/544 378/551 375/548
f 396/104 332/101 340/103
f 625/109 396/104 626/112
f 118/12 331/47 628/54
f 366/19 118/12 328/7
f 330/38 331/47 118/12
f 428/479 372/481 123/475
f 361/164 178/163 198/159
f 361/164 429/172 430/169
f 429/172 392/173 430/169
f 198/159 206/165 361/164
f 427/168 195/162 422/171
f 385/179 386/175 422/171
f 177/154 178/163 361/164
f 123/475 207/477 428/479
f 177/154 428/160 207/157
f 361/164 428/160 177/154
f 361/164 393/166 428/160
f 393/166 430/169 392/173
f 372/481 428/479 393/482
f 430/169 393/166 361/164
f 175/367 298/372 421/378
f 170/385 173/373 421/378
f 298/372 175/367 229/357
f 296/377 405/383 298/372
f 405/962 410/963 421/964
f 390/182 424/188 383/186
f 390/182 385/179 422/171
f 420/399 423/407 142/416
f 121/401 420/399 142/416
f 390/182 422/171 425/178
f 196/170 422/171 195/162
f 423/185 424/188 390/182
f 425/178 426/181 423/185
f 429/172 427/168 386/175
f 386/175 392/173 429/172
f 420/399 419/391 423/407
f 196/170 140/177 426/181
f 425/178 422/171 196/170
f 142/184 423/185 426/181
f 426/181 140/177 142/184
f 390/182 425/178 423/185
f 170/385 420/399 121/401
f 401/408 424/417 419/391
f 418/400 419/391 421/378
f 419/391 424/417 423/407
f 419/391 420/399 170/385
f 170/385 421/378 419/391
f 421/378 410/405 418/400
f 415/206 310/210 292/212
f 287/384 292/398 310/390
f 416/406 406/389 310/390
f 399/418 401/408 418/400
f 402/415 404/397 416/406
f 310/390 296/377 287/384
f 409/197 412/195 400/194
f 417/196 409/197 400/194
f 412/195 327/192 400/194
f 411/198 327/192 412/195
f 310/210 415/206 416/202
f 292/212 271/219 255/215
f 292/212 295/209 415/206
f 415/206 295/209 414/204
f 409/197 411/198 412/195
f 413/203 409/197 414/204
f 414/204 408/208 413/203
f 306/854 299/856 552/857
f 266/213 408/208 291/216
f 376/207 389/205 413/203
f 327/192 411/198 407/199
f 409/197 407/199 411/198
f 409/197 416/202 414/204
f 408/208 362/214 291/216
f 347/201 327/192 407/199
f 387/492 369/487 326/490
f 407/560 388/557 347/559
f 406/389 296/377 310/390
f 402/415 417/425 403/414
f 410/405 405/383 404/397
f 418/400 410/405 403/414
f 405/383 296/377 406/389
f 410/405 404/397 403/414
f 405/383 406/389 404/397
f 404/397 406/389 416/406
f 403/414 404/397 402/415
f 399/193 417/196 400/194
f 403/414 417/425 399/418
f 327/192 398/191 400/194
f 398/191 401/190 399/193
f 424/188 401/190 383/186
f 380/189 398/191 327/192
f 314/269 313/266 353/260
f 312/106 396/104 340/103
f 396/261 312/254 397/257
f 397/257 334/267 396/261
f 313/266 314/269 334/267
f 396/104 336/107 332/101
f 630/270 334/267 633/273
f 397/257 353/260 313/266
f 395/253 311/252 352/256
f 395/253 352/256 353/260
f 352/256 350/268 363/264
f 395/253 353/260 397/257
f 395/253 397/257 312/254
f 312/106 341/122 50/125
f 50/259 52/255 312/254
f 311/252 52/255 351/258
f 352/256 311/252 351/258
f 352/256 351/258 66/265
f 342/11 17/31 34/43
f 371/119 341/122 312/106
f 342/11 338/23 371/17
f 366/19 333/37 339/26
f 339/26 330/38 118/12
f 332/101 336/107 339/110
f 339/110 336/107 330/115
f 339/110 333/114 332/101
f 391/176 384/180 393/166
f 370/483 382/486 369/487
f 381/183 384/180 391/176
f 391/176 386/175 381/183
f 391/176 392/173 386/175
f 385/179 381/183 386/175
f 370/483 384/484 381/485
f 370/483 381/485 382/486
f 380/488 382/486 381/485
f 369/487 382/486 380/488
f 383/186 380/189 381/183
f 383/186 385/179 390/182
f 383/186 401/190 398/191
f 398/191 380/189 383/186
f 375/548 367/553 374/552
f 367/553 347/559 388/557
f 327/489 326/490 369/487
f 326/490 379/493 387/492
f 378/58 349/22 368/65
f 326/883 367/884 349/885
f 379/886 326/883 349/885
f 367/553 368/554 387/556
f 367/553 375/548 378/551
f 374/552 373/546 375/548
f 284/217 373/222 374/211
f 375/548 373/546 377/544
f 373/222 284/217 281/225
f 389/555 374/552 367/553
f 376/207 408/208 266/213
f 266/213 374/211 376/207
f 266/213 284/217 374/211
f 281/225 275/231 282/228
f 281/225 282/228 373/222
f 283/541 377/544 282/542
f 379/869 368/870 348/871
f 387/874 379/869 367/872
f 349/22 369/30 379/41
f 367/553 378/551 368/554
f 17/31 349/22 62/42
f 342/11 371/17 328/7
f 123/10 372/15 205/3
f 205/3 328/7 119/4
f 205/3 372/15 370/16
f 368/945 379/946 369/947
f 367/872 379/869 348/871
f 369/558 387/556 368/554
f 377/51 283/59 62/42
f 283/59 68/66 62/42
f 377/51 62/42 349/22
f 370/16 369/30 349/22
f 349/22 342/11 370/16
f 342/11 328/7 205/3
f 17/31 342/11 349/22
f 342/11 34/43 337/44
f 119/4 328/7 118/12
f 339/26 118/12 366/19
f 394/35 366/19 345/25
f 422/171 386/175 427/168
f 314/269 350/268 636/276
f 354/494 355/495 365/496
f 364/503 355/495 350/498
f 421/378 298/372 405/383
f 392/173 391/176 393/166
f 294/855 307/858 299/856
f 360/506 358/500 357/502
f 635/277 314/269 640/281
f 314/269 353/260 350/268
f 350/498 354/494 357/502
f 359/497 356/505 358/500
f 358/500 354/494 359/497
f 636/507 357/502 641/512
f 357/502 354/494 360/506
f 639/517 356/505 644/522
f 357/502 358/500 356/505
f 360/506 354/494 358/500
f 350/498 355/495 354/494
f 352/256 363/264 353/260
f 66/265 350/268 352/256
f 351/258 49/262 66/265
f 350/498 66/508 364/503
f 349/873 348/871 368/870
f 367/872 348/871 349/873
f 309/861 307/858 294/855
f 305/708 307/709 300/700
f 302/698 304/701 300/700
f 523/694 233/691 568/696
f 602/655 288/646 606/653
f 288/646 294/649 599/650
f 346/657 224/661 297/663
f 570/848 288/850 597/851
f 289/376 229/357 579/371
f 268/382 289/376 574/388
f 576/773 268/762 609/775
f 272/931 286/933 287/934
f 277/232 273/235 280/227
f 266/213 267/220 264/221
f 260/218 291/216 362/214
f 549/660 346/657 603/659
f 346/968 297/972 225/969
f 371/119 338/124 341/122
f 311/252 312/254 52/255
f 206/165 429/172 361/164
f 427/168 206/165 195/162
f 260/218 362/214 295/209
f 329/108 340/103 345/105
f 370/483 393/482 384/484
f 342/11 335/32 338/23
f 394/102 345/105 340/103
f 342/11 205/3 370/16
f 393/482 370/483 372/481
f 418/400 401/408 419/391
f 408/208 376/207 413/203
f 408/208 414/204 295/209
f 413/203 389/205 407/199
f 407/199 409/197 413/203
f 389/555 388/557 407/560
f 398/191 399/193 400/194
f 337/127 50/125 335/126
f 397/257 313/266 334/267
f 332/904 333/905 366/906
f 330/115 336/107 331/118
f 343/116 371/119 312/106
f 50/125 337/127 34/128
f 338/124 335/126 341/122
f 50/125 341/122 335/126
f 366/906 394/907 332/904
f 344/111 343/116 312/106
f 329/108 344/111 312/106
f 312/106 340/103 329/108
f 343/24 344/33 328/7
f 335/32 342/11 337/44
f 328/7 344/33 329/36
f 380/488 327/489 369/487
f 383/186 381/183 385/179
f 327/489 347/491 326/490
f 367/553 326/561 347/559
f 377/544 373/546 282/542
f 349/22 378/58 377/51
f 329/36 345/25 328/7
f 371/17 343/24 328/7
f 353/260 363/264 350/268
f 628/121 336/107 646/123
f 60/285 473/286 454/287
f 62/42 68/66 585/69
f 15/50 62/42 611/56
f 14/67 15/50 612/62
f 12/72 14/67 613/70
f 52/255 50/259 45/263
f 63/712 467/713 64/714
f 45/457 24/458 44/459
f 10/86 25/74 43/90
f 50/125 23/130 24/132
f 23/130 435/131 18/133
f 65/734 45/735 46/736
f 24/458 45/457 50/461
f 49/262 351/258 52/255
f 48/636 80/637 83/638
f 48/465 44/459 36/464
f 44/459 46/460 45/457
f 26/571 28/572 29/573
f 39/955 41/956 37/957
f 44/459 29/463 36/464
f 26/462 29/463 44/459
f 24/458 26/462 44/459
f 48/465 36/464 98/466
f 37/582 41/583 7/584
f 29/573 31/575 42/578
f 37/579 36/581 29/573
f 14/834 8/835 35/836
f 11/899 13/900 38/901
f 37/579 29/573 42/578
f 42/914 38/915 37/916
f 10/838 43/839 35/836
f 33/837 35/836 43/839
f 10/838 35/836 8/835
f 4/84 6/89 11/80
f 11/80 6/89 13/95
f 23/130 19/129 435/131
f 19/129 23/130 50/125
f 10/86 9/81 25/74
f 27/73 32/77 15/50
f 18/133 20/134 23/130
f 33/865 43/866 25/867
f 14/868 33/865 25/867
f 16/71 21/78 31/82
f 11/917 42/914 30/918
f 9/81 11/80 22/85
f 27/574 28/572 26/571
f 26/137 24/132 32/135
f 14/67 12/72 8/76
f 58/537 64/533 57/529
f 6/89 7/99 13/95
f 30/91 22/85 11/80
f 8/76 12/72 11/80
f 4/84 11/80 12/72
f 14/67 25/74 16/71
f 9/81 10/86 8/76
f 11/80 9/81 8/76
f 15/50 14/67 16/71
f 21/78 9/81 22/85
f 31/82 21/78 22/85
f 15/50 16/71 27/73
f 20/134 15/136 32/135
f 15/50 17/31 62/42
f 15/50 20/57 17/31
f 20/57 18/64 17/31
f 77/312 56/308 75/311
f 437/717 462/719 461/716
f 463/298 431/305 462/290
f 75/311 56/308 474/295
f 61/293 55/302 475/296
f 459/501 451/499 359/497
f 433/520 439/509 442/514
f 438/510 436/525 440/530
f 456/715 461/716 63/712
f 440/562 63/563 450/564
f 445/532 437/528 432/524
f 432/974 448/975 449/976
f 95/297 473/286 472/292
f 445/626 449/627 448/628
f 55/302 474/295 56/308
f 434/629 448/628 59/630
f 434/288 60/285 454/287
f 448/628 434/629 445/626
f 434/288 54/291 60/285
f 61/293 60/285 474/295
f 54/632 434/629 59/630
f 448/977 432/978 446/979
f 63/712 461/716 464/718
f 474/295 447/299 51/306
f 60/285 61/293 476/289
f 454/287 473/286 462/290
f 473/286 60/285 476/289
f 61/293 475/296 476/289
f 475/296 92/300 472/292
f 77/312 55/302 56/308
f 475/296 55/302 92/300
f 51/306 75/311 474/295
f 448/628 446/633 59/630
f 471/294 89/303 90/304
f 471/294 463/298 462/290
f 92/300 91/301 472/292
f 94/310 71/313 431/305
f 73/309 94/310 463/298
f 90/304 73/309 463/298
f 95/297 471/294 473/286
f 471/294 462/290 473/286
f 472/292 473/286 476/289
f 471/294 95/297 89/303
f 95/297 93/307 89/303
f 463/298 471/294 90/304
f 469/325 468/329 647/335
f 88/318 470/321 465/315
f 470/321 466/324 468/329
f 88/318 85/328 466/324
f 86/334 468/329 466/324
f 466/324 470/321 88/318
f 87/333 466/324 85/328
f 468/329 86/334 649/342
f 470/321 469/325 465/315
f 469/325 470/321 468/329
f 465/315 71/313 88/318
f 465/315 469/325 460/323
f 86/334 466/324 87/333
f 63/319 465/315 460/323
f 44/604 48/605 83/606
f 44/599 51/600 65/601
f 76/609 75/610 83/611
f 63/712 464/718 431/720
f 55/302 77/312 92/300
f 432/524 449/536 445/532
f 464/718 462/719 431/720
f 475/296 472/292 476/289
f 431/305 463/298 94/310
f 71/313 465/315 431/305
f 63/319 431/305 465/315
f 63/563 440/562 467/566
f 461/716 456/715 437/717
f 64/714 456/715 63/712
f 64/533 467/539 440/530
f 356/505 359/497 457/511
f 354/494 365/496 359/497
f 457/511 458/516 356/505
f 643/521 458/516 653/526
f 460/323 450/327 63/319
f 450/327 460/323 656/331
f 460/323 469/325 652/332
f 450/564 458/567 453/565
f 451/499 457/511 359/497
f 458/567 450/564 657/568
f 64/533 436/525 57/529
f 453/565 440/562 450/564
f 455/535 436/525 64/533
f 364/503 442/514 439/509
f 438/510 452/504 355/495
f 47/271 65/282 444/279
f 459/501 365/496 451/499
f 451/499 438/510 453/515
f 438/510 451/499 452/504
f 452/504 451/499 355/495
f 438/924 441/925 453/926
f 456/538 64/533 58/537
f 437/528 58/537 57/529
f 436/525 455/535 440/530
f 454/721 462/719 437/717
f 434/629 454/631 445/626
f 454/631 437/634 445/626
f 447/299 474/295 54/291
f 51/600 447/603 65/601
f 54/291 474/295 60/285
f 447/283 444/279 65/282
f 447/283 54/284 53/275
f 444/279 447/283 53/275
f 59/630 53/635 54/632
f 59/519 432/524 67/513
f 442/514 364/503 67/513
f 49/262 53/275 59/272
f 53/275 49/262 47/271
f 432/524 59/519 446/527
f 437/528 57/529 443/531
f 443/531 67/513 437/528
f 47/271 444/279 53/275
f 67/513 66/508 59/519
f 47/737 45/735 65/734
f 47/271 49/262 45/263
f 66/265 49/262 59/272
f 66/508 67/513 364/503
f 453/515 441/534 440/530
f 439/509 433/520 438/510
f 355/495 439/509 438/510
f 440/530 441/534 438/510
f 440/530 455/535 64/533
f 433/520 57/529 436/525
f 67/513 443/531 57/529
f 451/499 365/496 355/495
f 16/577 28/572 27/574
f 16/577 31/575 28/572
f 20/134 32/135 24/132
f 32/576 27/574 26/571
f 24/132 23/130 20/134
f 19/52 17/31 435/60
f 45/263 49/262 52/255
f 65/601 46/602 44/599
f 37/957 38/958 39/955
f 13/900 40/903 39/902
f 41/583 40/586 7/584
f 39/902 38/901 13/900
f 40/100 13/95 7/99
f 42/914 11/917 38/915
f 41/583 39/588 40/586
f 35/836 33/837 14/834
f 34/43 17/31 19/52
f 34/128 19/129 50/125
f 21/78 25/74 9/81
f 28/572 31/575 29/573
f 42/578 31/575 30/580
f 31/82 22/85 30/91
f 25/74 21/78 16/71
f 435/60 17/31 18/64
f 57/529 433/520 67/513
f 436/525 438/510 433/520
f 55/302 61/293 474/295
f 51/607 83/606 75/608
f 51/607 44/604 83/606
f 462/719 464/718 461/716
f 365/496 459/501 359/497
f 453/515 458/516 457/511
f 67/513 432/524 437/528
f 456/538 58/537 437/528
f 457/511 451/499 453/515
f 433/520 442/514 67/513
f 355/495 364/503 439/509
f 4/587 96/590 3/589
f 36/591 37/582 3/589
f 97/468 81/467 36/464
f 482/469 97/468 483/470
f 3/589 97/593 36/591
f 81/467 98/466 36/464
f 37/582 7/584 6/585
f 484/94 12/72 486/97
f 472/292 91/301 95/297
f 93/307 95/297 91/301
f 91/301 92/300 73/309
f 71/738 94/739 73/740
f 83/638 80/637 79/639
f 74/617 75/610 72/613
f 490/746 73/740 491/749
f 492/742 1/741 493/744
f 1/741 73/740 2/743
f 1/741 2/743 494/745
f 89/303 93/307 73/309
f 73/309 92/300 496/314
f 496/314 77/312 498/316
f 73/309 90/304 89/303
f 93/307 91/301 73/309
f 86/334 87/333 84/346
f 86/334 84/346 503/348
f 87/333 85/328 505/341
f 85/328 88/318 502/330
f 498/316 75/311 509/320
f 81/642 82/641 79/639
f 98/640 81/642 79/639
f 82/641 81/642 481/643
f 78/612 83/611 82/615
f 79/639 82/641 83/638
f 76/609 78/612 489/614
f 76/609 83/611 78/612
f 72/613 76/609 512/616
f 509/621 74/617 515/624
f 76/609 72/613 75/610
f 74/617 72/613 514/620
f 5/592 96/590 485/594
f 96/88 4/84 12/72
f 6/585 4/587 37/582
f 80/637 48/636 79/639
f 98/640 79/639 48/636
f 96/590 5/592 3/589
f 3/589 5/592 520/595
f 479/596 3/589 521/598
f 4/587 3/589 37/582
f 71/738 73/740 1/741
f 499/347 87/333 506/345
f 78/612 82/615 510/619
f 88/318 71/313 492/322
f 220/800 222/799 223/803
f 190/436 188/441 192/446
f 254/796 144/793 214/795
f 143/794 213/798 183/797
f 213/413 143/386 180/404
f 223/375 176/368 144/374
f 115/8 116/13 660/20
f 248/911 324/909 249/908
f 245/679 246/681 113/673
f 112/675 244/678 236/676
f 102/829 253/833 241/830
f 252/668 240/664 241/671
f 160/724 181/732 251/728
f 250/729 159/722 237/725
f 477/87 12/72 616/83
f 478/93 12/72 477/87
f 479/596 97/593 3/589
f 480/983 97/984 479/985
f 481/471 81/467 482/469
f 482/469 81/467 97/468
f 483/986 97/984 480/983
f 484/94 96/88 12/72
f 485/98 96/88 484/94
f 486/97 12/72 487/96
f 487/96 12/72 478/93
f 488/618 78/612 513/622
f 489/614 78/612 488/618
f 490/746 2/743 73/740
f 491/749 73/740 497/750
f 492/742 71/738 1/741
f 493/980 1/981 495/982
f 494/745 2/743 518/748
f 495/747 1/741 494/745
f 496/314 92/300 77/312
f 497/317 73/309 496/314
f 498/316 77/312 75/311
f 499/347 84/346 87/333
f 500/350 84/346 499/347
f 501/326 88/318 492/322
f 502/330 88/318 501/326
f 503/348 84/346 500/350
f 504/349 86/334 503/348
f 659/351 504/349 662/352
f 505/341 85/328 508/344
f 506/345 87/333 505/341
f 507/340 85/328 502/330
f 508/344 85/328 507/340
f 509/621 75/610 74/617
f 510/645 82/641 511/644
f 511/644 82/641 481/643
f 512/616 76/609 489/614
f 513/622 78/612 510/619
f 514/620 72/613 512/616
f 515/624 74/617 516/625
f 516/625 74/617 517/623
f 517/623 74/617 514/620
f 518/748 2/743 490/746
f 519/597 5/592 485/594
f 520/595 5/592 519/597
f 521/598 3/589 520/595
f 522/692 234/689 523/694
f 523/694 234/689 233/691
f 524/784 70/781 69/780
f 525/789 70/781 524/784
f 526/783 232/782 527/787
f 527/787 232/782 231/785
f 528/688 233/691 234/689
f 529/690 234/689 522/692
f 530/790 69/780 531/786
f 531/786 69/780 526/783
f 533/948 225/951 224/949
f 534/952 225/951 533/948
f 535/365 230/360 227/356
f 536/370 230/360 535/365
f 537/363 226/355 221/358
f 538/813 221/802 541/808
f 539/359 226/355 537/363
f 540/662 224/661 549/660
f 541/808 221/802 216/805
f 542/791 70/781 525/789
f 543/807 217/801 551/809
f 544/811 216/805 543/807
f 545/814 216/805 544/811
f 546/812 216/805 545/814
f 547/788 69/780 530/790
f 548/364 227/356 539/359
f 549/660 224/661 346/657
f 550/806 219/804 617/810
f 551/809 217/801 550/806
f 552/857 299/856 553/860
f 553/860 299/856 556/863
f 554/840 307/843 309/841
f 555/842 309/841 594/844
f 556/710 299/711 305/708
f 557/706 305/708 300/700
f 558/704 300/700 554/707
f 559/703 300/700 304/701
f 560/938 302/937 566/940
f 561/939 304/936 560/938
f 562/941 304/936 561/939
f 563/693 233/691 528/688
f 564/697 303/695 563/693
f 565/942 302/937 564/943
f 566/940 302/937 565/942
f 567/699 233/691 300/700
f 568/696 233/691 567/699
f 569/702 300/700 558/704
f 570/848 293/849 288/850
f 571/845 308/846 570/848
f 572/366 230/360 536/370
f 573/987 289/988 578/989
f 574/388 289/376 573/396
f 575/776 259/771 576/773
f 576/773 259/771 268/762
f 577/779 261/778 575/776
f 578/387 289/376 608/381
f 579/371 229/357 572/366
f 580/248 278/244 581/243
f 581/243 278/244 277/232
f 582/246 274/240 276/239
f 583/249 274/240 582/246
f 584/547 274/543 586/550
f 585/549 68/545 584/547
f 586/251 274/240 583/249
f 587/247 276/239 278/244
f 588/234 277/232 262/230
f 589/237 262/230 593/242
f 590/238 277/232 588/234
f 591/250 278/244 580/248
f 592/241 261/236 577/245
f 593/242 262/230 592/241
f 594/844 309/841 571/845
f 595/970 225/969 598/973
f 596/971 346/968 595/970
f 597/851 288/850 596/852
f 598/954 225/951 534/952
f 599/650 294/649 306/652
f 600/654 306/652 601/656
f 601/656 306/652 605/658
f 602/655 346/657 288/646
f 603/659 346/657 602/655
f 604/859 306/854 552/857
f 605/862 306/854 604/859
f 606/653 288/646 607/651
f 607/651 288/646 599/650
f 608/381 289/376 579/371
f 609/395 268/382 574/388
f 610/68 62/42 585/69
f 611/56 62/42 615/63
f 612/62 15/50 611/56
f 613/70 14/67 612/62
f 614/75 12/72 613/70
f 615/63 62/42 610/68
f 616/83 12/72 618/79
f 618/79 12/72 614/75
f 619/92 477/87 616/83
f 620/34 118/12 632/46
f 621/45 116/13 620/34
f 622/48 116/13 621/45
f 623/39 116/13 622/48
f 624/28 116/13 623/39
f 625/109 336/107 396/104
f 626/274 396/261 630/270
f 627/113 336/107 625/109
f 628/121 331/118 336/107
f 629/53 118/12 628/54
f 630/270 396/261 334/267
f 631/117 336/107 627/113
f 632/46 118/12 629/53
f 633/273 334/267 634/278
f 634/278 334/267 635/277
f 635/277 334/267 314/269
f 636/507 350/498 357/502
f 637/280 314/269 636/276
f 638/523 357/502 639/517
f 639/517 357/502 356/505
f 640/281 314/269 637/280
f 641/512 357/502 642/518
f 642/518 357/502 638/523
f 643/521 356/505 458/516
f 644/522 356/505 643/521
f 645/120 336/107 631/117
f 646/123 336/107 645/120
f 647/335 468/329 651/343
f 648/339 469/325 647/335
f 649/990 86/991 650/992
f 650/353 86/334 659/351
f 651/343 468/329 649/342
f 652/332 469/325 648/339
f 653/570 458/567 658/569
f 654/337 460/323 655/338
f 655/338 460/323 652/332
f 656/331 460/323 654/337
f 657/336 450/327 656/331
f 658/569 458/567 657/568
f 659/351 86/334 504/349
f 660/20 116/13 624/28
f 661/27 115/8 660/20
usemtl Tile_+032_+023_L18_00020_untextured
