mtllib Tile_+032_+023_L13.mtl
v 6.50000000e+03 5.51148833e+03 7.68313693e+00
v 6.50000000e+03 5.50241491e+03 7.68836658e+00
v 6.34533066e+03 5.50000000e+03 2.67596059e+01
v 6.34144317e+03 5.50000000e+03 2.70249701e+01
v 6.34413353e+03 5.50000000e+03 2.31590095e+01
v 6.25000000e+03 5.62288803e+03 8.39916008e+00
v 6.25000000e+03 5.61920048e+03 2.00159866e+01
v 6.32447226e+03 5.55831610e+03 2.04543411e+01
v 6.32691960e+03 5.57448252e+03 2.61841439e+01
v 6.34115249e+03 5.55989637e+03 2.20755143e+01
v 6.33724610e+03 5.58602275e+03 2.15147302e+01
v 6.33192405e+03 5.58428767e+03 2.17876007e+01
v 6.33312405e+03 5.58250983e+03 2.76009354e+01
v 6.33521696e+03 5.58307165e+03 2.32596502e+01
v 6.33688789e+03 5.58303880e+03 2.60343009e+01
v 6.33605210e+03 5.58359405e+03 1.74008842e+01
v 6.32856356e+03 5.54273452e+03 2.37451187e+01
v 6.35701753e+03 5.52647196e+03 1.45719496e+01
v 6.33435578e+03 5.52764480e+03 2.34662179e+01
v 6.34168861e+03 5.51058332e+03 2.00306487e+01
v 6.33037711e+03 5.52392212e+03 1.87705825e+01
v 6.33112957e+03 5.51769586e+03 2.41538859e+01
v 6.31305353e+03 5.54981166e+03 2.80388127e+01
v 6.34429739e+03 5.51185472e+03 2.54109450e+01
v 6.32315606e+03 5.50000000e+03 2.20428697e+01
v 6.34141638e+03 5.50123048e+03 2.79299367e+01
v 6.34142286e+03 5.50125399e+03 2.76188862e+01
v 6.33544895e+03 5.50000000e+03 2.73884551e+01
v 6.33679699e+03 5.52610208e+03 2.68989383e+01
v 6.34321611e+03 5.50222702e+03 2.18233323e+01
v 6.34413353e+03 5.50000000e+03 2.31590095e+01
v 6.32786655e+03 5.53574223e+03 1.17066583e+01
v 6.33593138e+03 5.50000000e+03 1.36268961e+01
v 6.32897731e+03 5.50000000e+03 1.44125458e+01
v 6.34129951e+03 5.50495620e+03 1.67399785e+01
v 6.34906210e+03 5.50000000e+03 1.42638941e+01
v 6.35216638e+03 5.50438445e+03 1.03570288e+01
v 6.33177139e+03 5.60261080e+03 1.98831422e+01
v 6.32474648e+03 5.60524691e+03 1.77786441e+01
v 6.33125702e+03 5.61628622e+03 1.47713641e+01
v 6.33514835e+03 5.58304984e+03 2.35637032e+01
v 6.33392063e+03 5.59541647e+03 2.15855484e+01
v 6.32791897e+03 5.58229190e+03 2.10895708e+01
v 6.35197867e+03 5.61403193e+03 1.88349204e+01
v 6.32320103e+03 5.60118263e+03 2.26837398e+01
v 6.34661697e+03 5.63461786e+03 1.57652968e+01
v 6.32968932e+03 5.57125270e+03 1.90728808e+01
v 6.32962594e+03 5.58055767e+03 1.54384744e+01
v 6.36539352e+03 5.57324629e+03 1.17596941e+01
v 6.33592987e+03 5.57933286e+03 1.03040227e+01
v 6.31972879e+03 5.57063593e+03 2.40071064e+01
v 6.31878119e+03 5.55836876e+03 1.21537142e+01
v 6.30042213e+03 5.59197067e+03 1.10024310e+01
v 6.31311552e+03 5.59922763e+03 1.77324045e+01
v 6.30845954e+03 5.54029985e+03 1.36915319e+01
v 6.30659848e+03 5.54816095e+03 1.12527714e+01
v 6.33567003e+03 5.68413077e+03 2.32868346e+00
v 6.31397539e+03 5.75000000e+03 1.05765450e+01
v 6.31986561e+03 5.60783526e+03 1.25409881e+01
v 6.31964286e+03 5.61770035e+03 1.32446990e+01
v 6.31389740e+03 5.60305569e+03 6.40183714e+00
v 6.34070407e+03 5.57052462e+03 9.77108595e+00
v 6.31311308e+03 5.57862256e+03 7.87464705e+00
v 6.31078466e+03 5.59178719e+03 1.70872474e+01
v 6.30926885e+03 5.50000000e+03 1.07410399e+01
v 6.31201349e+03 5.50128301e+03 1.64783346e+01
v 6.31138817e+03 5.50181858e+03 1.85795147e+01
v 6.30487401e+03 5.65075263e+03 1.45604857e+01
v 6.28504132e+03 5.62419209e+03 7.31760056e+00
v 6.30475183e+03 5.57558661e+03 2.15875067e+01
v 6.28883231e+03 5.61665387e+03 7.60879901e+00
v 6.28682492e+03 5.61655925e+03 7.94792194e+00
v 6.28676630e+03 5.61692948e+03 1.01220551e+01
v 6.28970440e+03 5.61627362e+03 8.19985399e+00
v 6.28817423e+03 5.61491608e+03 1.71259629e+01
v 6.29116586e+03 5.61464729e+03 6.93480938e+00
v 6.28859541e+03 5.61503888e+03 7.20546730e+00
v 6.29216332e+03 5.61597775e+03 1.48749644e+01
v 6.28213427e+03 5.60564484e+03 1.39027712e+01
v 6.26074838e+03 5.50000000e+03 1.19386017e+01
v 6.30270539e+03 5.52406200e+03 1.37326675e+01
v 6.29541174e+03 5.55999510e+03 1.34914378e+01
v 6.30926885e+03 5.50000000e+03 1.07410399e+01
v 6.30810988e+03 5.50000000e+03 2.19578088e+01
v 6.31716320e+03 5.53876956e+03 2.12017261e+01
v 6.31129221e+03 5.54453037e+03 1.58470207e+01
v 6.30672436e+03 5.53688097e+03 2.03401349e+01
v 6.25000000e+03 5.50000000e+03 1.12410097e+01
v 6.25000000e+03 5.62516584e+03 9.73873481e+00
v 6.31655974e+03 5.50000000e+03 1.52982304e+01
v 6.31129944e+03 5.50259239e+03 1.94625257e+01
v 6.31464354e+03 5.57475125e+03 2.52329472e+01
v 6.32059377e+03 5.56609321e+03 2.24816081e+01
v 6.32138871e+03 5.57504635e+03 2.37632078e+01
v 6.31958583e+03 5.57112306e+03 2.43219470e+01
v 6.30693116e+03 5.58773218e+03 2.61311592e+01
v 6.32423893e+03 5.58779714e+03 2.46980150e+01
v 6.32017128e+03 5.58376951e+03 1.05339005e+01
v 6.32154354e+03 5.57777495e+03 1.84417995e+01
v 6.32282893e+03 5.58015480e+03 2.69674734e+01
v 6.31450444e+03 5.50230596e+03 2.11302606e+01
v 6.33160818e+03 5.60538498e+03 7.96955607e+00
v 6.31390648e+03 5.58817766e+03 2.87180431e+01
v 6.30716762e+03 5.58930478e+03 1.38816811e+01
v 6.32093139e+03 5.71027499e+03 1.96438113e+01
v 6.26026615e+03 5.70270605e+03 1.14652041e+01
v 6.30372061e+03 5.60812810e+03 2.06272297e+01
v 6.32826163e+03 5.57511831e+03 9.03415249e+00
v 6.31312885e+03 5.50474110e+03 2.19361618e+01
v 6.31729319e+03 5.58628870e+03 2.48552236e+01
v 6.30750992e+03 5.59581673e+03 2.72825387e+01
v 6.30894727e+03 5.59107264e+03 2.31766003e+01
v 6.32429752e+03 5.59420172e+03 2.36800963e+01
v 6.32049130e+03 5.59699546e+03 1.67872121e+01
v 6.33026981e+03 5.59823360e+03 2.33529244e+01
v 6.34798249e+03 5.50000000e+03 2.48177246e+01
v 6.34770335e+03 5.50000000e+03 2.54900850e+01
v 6.34765004e+03 5.50000000e+03 2.49817844e+01
v 6.25928702e+03 5.75000000e+03 1.62805025e+01
v 6.25804940e+03 5.75000000e+03 1.50073468e+01
v 6.50000000e+03 5.50000000e+03 4.04123474e+00
v 6.48362253e+03 5.50000000e+03 3.03506487e+00
v 6.25436514e+03 5.75000000e+03 4.30262006e+00
v 6.29409673e+03 5.75000000e+03 1.27065236e+01
v 6.25000000e+03 5.64594060e+03 1.88628249e+01
v 6.25000000e+03 5.64273780e+03 1.90849447e+01
v 6.25881628e+03 5.75000000e+03 1.65023544e+01
v 6.25000000e+03 5.74042580e+03 6.10192907e+00
v 6.25000000e+03 5.66324988e+03 6.76190188e+00
v 6.26977289e+03 5.56796511e+03 1.15830905e+01
v 6.25000000e+03 5.58444778e+03 1.31136175e+01
v 6.25000000e+03 5.58315943e+03 1.35459189e+01
v 6.26263277e+03 5.59097686e+03 1.27415123e+01
v 6.25000000e+03 5.58487623e+03 1.12420824e+01
v 6.25625634e+03 5.55598417e+03 1.11067946e+01
v 6.25599551e+03 5.55389368e+03 1.27041428e+01
v 6.25927307e+03 5.54856908e+03 1.36178162e+01
v 6.25542375e+03 5.55588940e+03 1.35303735e+01
v 6.25486034e+03 5.55378475e+03 1.10076068e+01
v 6.27056977e+03 5.62438364e+03 1.17856609e+01
v 6.25744111e+03 5.55045114e+03 1.19329034e+01
v 6.25791505e+03 5.54980347e+03 1.13560743e+01
v 6.25000000e+03 5.51319767e+03 1.29386055e+01
v 6.25825484e+03 5.54961798e+03 1.26722354e+01
v 6.25689171e+03 5.55195909e+03 1.27995228e+01
v 6.25692545e+03 5.55115348e+03 1.13244027e+01
v 6.25601949e+03 5.55264746e+03 1.33254470e+01
v 6.25000000e+03 5.54668868e+03 1.08553409e+01
v 6.25723573e+03 5.55068137e+03 1.18589989e+01
v 6.25788381e+03 5.54880464e+03 1.35820910e+01
v 6.24996861e+03 5.50551519e+03 1.74650381e+01
v 6.26388283e+03 5.61339118e+03 1.75489980e+01
v 6.34450450e+03 5.72018222e+03 4.63660618e+00
v 6.34452732e+03 5.72034439e+03 7.04618235e+00
v 6.34496574e+03 5.71975914e+03 7.38145208e+00
v 6.34436016e+03 5.71970002e+03 6.96052190e+00
v 6.37960519e+03 5.69810091e+03 2.61254324e+00
v 6.34537464e+03 5.75000000e+03 1.85164681e+00
v 6.33029017e+03 5.74455806e+03 6.16652677e+00
v 6.33102680e+03 5.74367681e+03 6.40758792e+00
v 6.33111244e+03 5.74461956e+03 4.67804052e+00
v 6.33163539e+03 5.74456159e+03 7.17184790e+00
v 6.34191123e+03 5.65556351e+03 6.10443326e+00
v 6.34380093e+03 5.65646440e+03 6.79060282e+00
v 6.34181558e+03 5.65535406e+03 6.49858046e+00
v 6.34177298e+03 5.65546092e+03 6.39822769e+00
v 6.34199127e+03 5.65542267e+03 6.41016934e+00
v 6.34822249e+03 5.64212095e+03 7.06216001e+00
v 6.33387638e+03 5.59090330e+03 1.05168192e+01
v 6.34729519e+03 5.51436570e+03 9.66309136e+00
v 6.33270947e+03 5.59666719e+03 1.75920810e+01
v 6.33392293e+03 5.60041082e+03 2.13635946e+01
v 6.33392775e+03 5.59172483e+03 1.67656764e+01
v 6.33303033e+03 5.59676119e+03 1.82172712e+01
v 6.33314121e+03 5.59134573e+03 1.82029601e+01
v 6.33269334e+03 5.59236699e+03 2.02961657e+01
v 6.25000000e+03 5.64276988e+03 2.00841622e+01
v 6.25000000e+03 5.64186564e+03 1.98653363e+01
v 6.50000000e+03 5.51970201e+03 2.47905123e+00
v 6.49290838e+03 5.50837181e+03 8.22221844e+00
v 6.50000000e+03 5.75000000e+03 2.51541458e+00
v 6.48515584e+03 5.61261280e+03 5.96002406e+00
v 6.48925160e+03 5.61255210e+03 4.61549332e+00
v 6.49268296e+03 5.50218065e+03 7.72091078e+00
v 6.49275479e+03 5.50217729e+03 7.78995032e+00
v 6.48733965e+03 5.61275042e+03 2.65919612e+00
v 6.48423251e+03 5.57965962e+03 8.86238319e+00
v 6.48296158e+03 5.58084434e+03 6.99297666e+00
v 6.48566429e+03 5.58029150e+03 6.41994542e+00
v 6.48391341e+03 5.57074937e+03 6.38801510e+00
v 6.48153484e+03 5.56960404e+03 6.37515035e+00
v 6.48198803e+03 5.57121810e+03 9.45370779e+00
v 6.48214791e+03 5.57286373e+03 7.16795159e+00
v 6.45878918e+03 5.54719138e+03 3.20741176e+00
v 6.48748301e+03 5.61407833e+03 7.34258212e+00
v 6.48528154e+03 5.60358855e+03 5.33550644e+00
v 6.48933139e+03 5.60192772e+03 6.02268101e+00
v 6.48714068e+03 5.60454898e+03 7.87142994e+00
v 6.48771024e+03 5.60204803e+03 8.64475004e+00
v 6.48379238e+03 5.57873100e+03 5.05470616e+00
v 6.47530516e+03 5.54169085e+03 7.20465937e+00
v 6.47639243e+03 5.54407960e+03 7.01861183e+00
v 6.47747640e+03 5.54291811e+03 8.54767974e+00
v 6.47706559e+03 5.54131013e+03 6.68400377e+00
v 6.48922646e+03 5.51018731e+03 4.13124161e+00
v 6.49196159e+03 5.50864137e+03 3.38494583e+00
v 6.49476515e+03 5.50276273e+03 5.65497576e+00
v 6.49268338e+03 5.50225385e+03 7.66562557e+00
v 6.49235113e+03 5.50224587e+03 8.01071477e+00
v 6.49425115e+03 5.50169593e+03 7.39138172e+00
v 6.37255512e+03 5.60293778e+03 2.64835677e+00
v 6.48779928e+03 5.61284662e+03 2.62749681e+00
v 6.48733289e+03 5.61297701e+03 2.74898556e+00
v 6.48620521e+03 5.66206513e+03 2.55479280e+00
v 6.48599980e+03 5.66206163e+03 2.33367537e+00
v 6.48097622e+03 5.66215493e+03 2.09128831e+00
v 6.48591273e+03 5.66204479e+03 2.78162507e+00
v 6.48657250e+03 5.66083288e+03 7.04357774e+00
v 6.47544262e+03 5.70451610e+03 1.97625792e+00
v 6.47627439e+03 5.70900248e+03 8.05220238e+00
v 6.47923572e+03 5.70907741e+03 6.51546043e+00
v 6.47672882e+03 5.70779868e+03 4.85525013e+00
v 6.47917424e+03 5.70922981e+03 6.64316507e+00
v 6.47919275e+03 5.70935481e+03 6.63694319e+00
v 6.47775748e+03 5.71156585e+03 6.45703519e+00
v 6.47913615e+03 5.70936215e+03 6.69765157e+00
v 6.47920740e+03 5.70936386e+03 6.65358622e+00
v 6.48450360e+03 5.67631312e+03 7.28716003e+00
v 6.48515457e+03 5.67267314e+03 7.31784643e+00
v 6.48668626e+03 5.67429243e+03 8.38324762e+00
v 6.48652923e+03 5.67361477e+03 4.25269834e+00
v 6.48934827e+03 5.65043963e+03 8.93328730e+00
v 6.48761995e+03 5.64771692e+03 5.96961477e+00
v 6.49024921e+03 5.65089385e+03 4.68639541e+00
v 6.48666675e+03 5.65055485e+03 6.56918894e+00
v 6.45493127e+03 5.53523490e+03 7.15396563e+00
v 6.45467002e+03 5.53478024e+03 9.28777681e+00
v 6.44897995e+03 5.68868522e+03 2.19829866e+00
v 6.43180828e+03 5.72300815e+03 1.17580928e+01
v 6.42496764e+03 5.71624792e+03 2.34012128e+00
v 6.44900679e+03 5.68871525e+03 2.19079805e+00
v 6.44895356e+03 5.68871841e+03 2.19387813e+00
v 6.45253334e+03 5.54501337e+03 8.86693721e+00
v 6.45353314e+03 5.54653944e+03 6.93022736e+00
v 6.45326850e+03 5.53491159e+03 1.20759031e+01
v 6.45444010e+03 5.53468683e+03 8.11191830e+00
v 6.45544289e+03 5.53336708e+03 9.02293575e+00
v 6.45367333e+03 5.53394515e+03 6.64641740e+00
v 6.45611908e+03 5.53351064e+03 7.45018868e+00
v 6.45076722e+03 5.54520692e+03 7.09011698e+00
v 6.45185234e+03 5.54608756e+03 7.22824482e+00
v 6.45158288e+03 5.54623934e+03 1.03615014e+01
v 6.45124881e+03 5.54521142e+03 7.52720973e+00
v 6.45172058e+03 5.54695317e+03 6.68078523e+00
v 6.45478399e+03 5.53174267e+03 9.02855771e+00
v 6.45479961e+03 5.53464601e+03 8.48347440e+00
v 6.45049144e+03 5.54480070e+03 8.63875400e+00
v 6.38558659e+03 5.50000000e+03 4.31555887e+00
v 6.44880894e+03 5.68903990e+03 2.21006880e+00
v 6.43662163e+03 5.72795225e+03 2.14159636e+00
v 6.44902824e+03 5.68882781e+03 2.19455271e+00
v 6.44381224e+03 5.69217759e+03 2.26277723e+00
v 6.41435754e+03 5.75000000e+03 1.99614138e+00
v 6.36005551e+03 5.56099717e+03 1.75105521e+01
v 6.35994723e+03 5.55978431e+03 2.62841507e+01
v 6.36877681e+03 5.50989683e+03 1.72421152e+01
v 6.36026666e+03 5.50000000e+03 9.14787331e+00
v 6.36385912e+03 5.51620179e+03 2.13580390e+01
v 6.36022943e+03 5.50693971e+03 1.53139066e+01
v 6.36477365e+03 5.50751124e+03 2.30420001e+01
v 6.36006920e+03 5.55223181e+03 1.82899001e+01
v 6.34644653e+03 5.71231064e+03 6.11741648e+00
v 6.34720333e+03 5.71224001e+03 5.40917133e+00
v 6.36218268e+03 5.72916860e+03 5.40226935e+00
v 6.36395362e+03 5.74281782e+03 3.06975429e+00
v 6.36579451e+03 5.73263290e+03 2.98537179e+00
v 6.36814605e+03 5.73290473e+03 7.57683351e+00
v 6.36450034e+03 5.72475257e+03 3.55574934e+00
v 6.36311735e+03 5.73840205e+03 3.05356908e+00
v 6.36674581e+03 5.73222466e+03 1.05374952e+01
v 6.36851552e+03 5.69697910e+03 5.53051866e+00
v 6.36651520e+03 5.69667121e+03 4.75589621e+00
v 6.36765182e+03 5.69562318e+03 5.92910559e+00
v 6.36761484e+03 5.69660535e+03 8.53922191e+00
v 6.34843011e+03 5.50000000e+03 2.38742310e+01
v 6.34730232e+03 5.50114697e+03 2.49354773e+01
v 6.32897731e+03 5.50000000e+03 1.44125458e+01
v 6.29044100e+03 5.58872307e+03 2.13823259e+01
v 6.28033414e+03 5.58608240e+03 1.32832917e+01
v 6.28080615e+03 5.58602040e+03 1.30492934e+01
v 6.28052836e+03 5.58590728e+03 1.30540256e+01
v 6.28657672e+03 5.61653428e+03 8.26332582e+00
v 6.28333256e+03 5.59376182e+03 1.30868389e+01
v 6.25000000e+03 5.63770101e+03 1.96821378e+01
v 6.25000000e+03 5.64339552e+03 2.45290134e+01
v 6.25000000e+03 5.75000000e+03 2.19329221e+01
v 6.25000000e+03 5.63988345e+03 1.45071979e+01
v 6.27426634e+03 5.63932076e+03 6.54709830e+00
v 6.28065531e+03 5.58604090e+03 1.31132558e+01
v 6.28055913e+03 5.58614881e+03 1.31648863e+01
v 6.27425832e+03 5.63926012e+03 6.41555766e+00
v 6.27254433e+03 5.64165103e+03 6.21201112e+00
v 6.27319061e+03 5.63801859e+03 1.13122562e+01
v 6.27410519e+03 5.63957264e+03 6.71123535e+00
v 6.27298764e+03 5.64004933e+03 6.52452511e+00
v 6.30462802e+03 5.59820740e+03 2.20771581e+01
v 6.29853297e+03 5.61525122e+03 1.65405787e+01
v 6.29660133e+03 5.74225373e+03 3.53840945e+01
v 6.28868131e+03 5.61074766e+03 2.00492126e+01
v 6.29492764e+03 5.61507750e+03 1.71788174e+01
v 6.29400297e+03 5.61402413e+03 1.77387557e+01
v 6.29394120e+03 5.61401295e+03 1.76849370e+01
v 6.43069269e+03 5.72377976e+03 1.38408214e+01
v 6.42575367e+03 5.72294918e+03 3.80617282e+00
v 6.43046928e+03 5.72495685e+03 9.49066262e+00
v 6.43041915e+03 5.72465757e+03 9.71009173e+00
v 6.43015242e+03 5.72452199e+03 1.00044633e+01
v 6.43056096e+03 5.72507474e+03 9.38366960e+00
v 6.39646561e+03 5.67811610e+03 1.07270016e+01
v 6.39790738e+03 5.68594392e+03 9.67426986e+00
v 6.41029265e+03 5.71986352e+03 9.34530407e+00
v 6.41196944e+03 5.71873603e+03 1.16481643e+01
v 6.39863306e+03 5.68287065e+03 4.37941416e+00
v 6.39945685e+03 5.68277296e+03 2.93619052e+00
v 6.40019235e+03 5.68841661e+03 2.34001027e+01
v 6.41220273e+03 5.56025100e+03 6.48059847e+00
v 6.41190008e+03 5.56083028e+03 3.78867067e+00
v 6.41174887e+03 5.56082531e+03 4.07741356e+00
v 6.41072908e+03 5.56035111e+03 3.18613819e+00
v 6.41108836e+03 5.56037042e+03 5.95119353e+00
v 6.41183463e+03 5.56073402e+03 3.71098426e+00
v 6.40875618e+03 5.57234237e+03 5.38543110e+00
v 6.40885059e+03 5.57198117e+03 7.06401534e+00
v 6.40882901e+03 5.57195520e+03 6.92586707e+00
v 6.40850634e+03 5.57213415e+03 6.06512873e+00
v 6.40883686e+03 5.57198405e+03 6.99256455e+00
v 6.40875303e+03 5.57205628e+03 6.57971315e+00
v 6.40854840e+03 5.57184668e+03 6.01907290e+00
v 6.40882314e+03 5.57195642e+03 6.91881333e+00
v 6.40880998e+03 5.57197352e+03 6.95092050e+00
v 6.40231151e+03 5.59474953e+03 5.41539860e+00
v 6.40212554e+03 5.59529206e+03 5.88958547e+00
v 6.40523866e+03 5.58340998e+03 7.06778997e+00
v 6.40559500e+03 5.58368773e+03 4.55666381e+00
v 6.40245984e+03 5.59494495e+03 6.15649943e+00
v 6.40223013e+03 5.59511791e+03 4.98158708e+00
v 6.40533026e+03 5.58444208e+03 6.51646828e+00
v 6.40430994e+03 5.58369159e+03 5.94438537e+00
v 6.39022046e+03 5.55581272e+03 3.04984553e+00
v 6.40135469e+03 5.68197939e+03 2.64631917e+00
v 6.41176074e+03 5.71884694e+03 6.11538764e+00
v 6.41233996e+03 5.71957012e+03 9.24509590e+00
v 6.41115229e+03 5.72507866e+03 9.29171648e+00
v 6.41004410e+03 5.72348622e+03 4.98484120e+00
v 6.41224910e+03 5.72715942e+03 6.12879340e+00
v 6.40175248e+03 5.67993485e+03 1.95963179e+01
v 6.40008767e+03 5.68251883e+03 5.64048652e+00
v 6.40784102e+03 5.70377041e+03 9.46228529e+00
v 6.40834361e+03 5.70423527e+03 5.61721101e+00
v 6.40619233e+03 5.70358348e+03 5.50111097e+00
v 6.40715995e+03 5.70142885e+03 6.44415957e+00
v 6.40087083e+03 5.70081565e+03 9.69176569e+00
v 6.39831703e+03 5.70017552e+03 1.08802029e+01
v 6.39724055e+03 5.69777030e+03 6.63092076e+00
v 6.39947820e+03 5.70236556e+03 6.83392655e+00
v 6.40826557e+03 5.72501268e+03 7.41101318e+00
v 6.38375662e+03 5.56770111e+03 2.95167420e+00
v 6.38296323e+03 5.56997378e+03 6.54606889e+00
v 6.38072618e+03 5.56881139e+03 6.37453092e+00
v 6.38295460e+03 5.57004457e+03 4.13966776e+00
v 6.37116270e+03 5.53759181e+03 1.38178191e+01
v 6.36944009e+03 5.53808778e+03 1.27440990e+01
v 6.36987796e+03 5.53848760e+03 1.55669812e+01
v 6.37137889e+03 5.53949639e+03 1.25627288e+01
v 6.37138887e+03 5.52052199e+03 1.39357058e+01
v 6.37057955e+03 5.52020850e+03 1.21542379e+01
v 6.37160195e+03 5.51953025e+03 1.24378911e+01
v 6.37140427e+03 5.52060038e+03 1.23740182e+01
v 6.39459962e+03 5.68393759e+03 1.70915416e+01
v 6.37241178e+03 5.67765271e+03 4.45704381e+00
v 6.37222294e+03 5.67649355e+03 6.10091224e+00
v 6.37120145e+03 5.67778776e+03 6.02482193e+00
v 6.37286728e+03 5.67823387e+03 7.99263712e+00
v 6.39269196e+03 5.68257029e+03 1.70254875e+01
v 6.39488095e+03 5.68395479e+03 1.66181451e+01
v 6.39444711e+03 5.68384069e+03 1.70086615e+01
v 6.35197392e+03 5.61884242e+03 6.08716504e+00
v 6.34853130e+03 5.50000000e+03 2.33701901e+01
v 6.34817510e+03 5.50000000e+03 2.35571935e+01
v 6.35309689e+03 5.50859119e+03 1.97022307e+01
v 6.35127314e+03 5.51037892e+03 2.10952676e+01
v 6.35180946e+03 5.51020133e+03 1.96546380e+01
v 6.34808040e+03 5.50622231e+03 2.19253104e+01
v 6.34646418e+03 5.71298684e+03 5.67293530e+00
v 6.34619910e+03 5.71202329e+03 4.26140129e+00
v 6.35496750e+03 5.61901195e+03 6.89224665e+00
v 6.35014774e+03 5.70351030e+03 6.18980530e+00
v 6.34970405e+03 5.70352133e+03 5.16272968e+00
v 6.34941124e+03 5.70416600e+03 5.58834410e+00
v 6.34974078e+03 5.70346306e+03 7.47433531e+00
v 6.35301178e+03 5.62514329e+03 7.06096112e+00
v 6.35563692e+03 5.61695095e+03 6.84073938e+00
v 6.35493855e+03 5.61804133e+03 7.06884213e+00
v 6.35380936e+03 5.55671972e+03 2.20625194e+01
vt 0.12569749 0.90157968
vt 0.10376291 0.90752888
vt 0.10439087 0.90477753
vt 0.036500506 0.93046504
vt 0.14275974 0.87266445
vt 0.080095276 0.79069924
vt 0.080275126 0.79196078
vt 0.075807929 0.80043662
vt 0.08390215 0.78969675
vt 0.079818234 0.78901422
vt 0.069539227 0.77351189
vt 0.079110995 0.78934824
vt 0.092987083 0.77300715
vt 0.079120077 0.79567093
vt 0.07950335 0.78883356
vt 0.072868653 0.76264352
vt 0.10752254 0.80498207
vt 0.078872427 0.74749482
vt 0.1240865 0.79046392
vt 0.1178842 0.74947762
vt 0.068516873 0.75062501
vt 0.089290157 0.73982096
vt 0.067185819 0.77705586
vt 0.070739217 0.74172848
vt 0.13652442 0.76860094
vt 0.089212336 0.73998272
vt 0.065116718 0.76867276
vt 0.069281086 0.74000007
vt 0.10346889 0.73489887
vt 0.14050211 0.75478947
vt 0.08926487 0.74012434
vt 0.089403771 0.73863757
vt 0.062812664 0.77006233
vt 0.070338987 0.73999941
vt 0.13732612 0.73907948
vt 0.089208744 0.74018085
vt 0.064695545 0.77307069
vt 0.057947047 0.76996505
vt 0.06011283 0.72871208
vt 0.047556039 0.74686152
vt 0.1028945 0.69968128
vt 0.045268055 0.77402836
vt 0.069895737 0.74037075
vt 0.094359778 0.69371378
vt 0.13231032 0.71103019
vt 0.056909353 0.77323127
vt 0.12412384 0.70179266
vt 0.1210342 0.70125741
vt 0.043239586 0.7317878
vt 0.043274015 0.73032427
vt 0.043060731 0.73359942
vt 0.042064793 0.72961378
vt 0.035546664 0.72796738
vt 0.050237127 0.87501061
vt 0.069257706 0.88564646
vt 0.050230954 0.87503409
vt 0.067911893 0.79477924
vt 0.047500525 0.8730309
vt 0.13417751 0.84557498
vt 0.050216656 0.87500316
vt 0.070520729 0.88898253
vt 0.03671487 0.93046588
vt 0.071180575 0.89190519
vt 0.070569299 0.88925654
vt 0.070506692 0.88920677
vt 0.18590787 0.87491453
vt 0.16166189 0.88071674
vt 0.17930235 0.87509537
vt 0.18898223 0.8898018
vt 0.20839943 0.85218865
vt 0.18903001 0.89119869
vt 0.20625682 0.91572917
vt 0.1890647 0.89111286
vt 0.18938377 0.89281285
vt 0.18908949 0.89098585
vt 0.17809466 0.87575138
vt 0.23227663 0.91412377
vt 0.18906179 0.89180529
vt 0.22933032 0.92216539
vt 0.23099574 0.92646664
vt 0.23065065 0.92286968
vt 0.23140399 0.93181008
vt 0.23524389 0.92846966
vt 0.22792751 0.93151248
vt 0.23353003 0.92371243
vt 0.34530011 0.91580164
vt 0.32571906 0.92451191
vt 0.28464806 0.92554975
vt 0.35256037 0.91016495
vt 0.32699612 0.93224907
vt 0.32578251 0.92626369
vt 0.34950727 0.91821569
vt 0.33719704 0.89602757
vt 0.32569563 0.92775655
vt 0.34968463 0.92047542
vt 0.3231532 0.93196297
vt 0.28565302 0.76666844
vt 0.28986016 0.80151534
vt 0.28690049 0.79441911
vt 0.29061344 0.80016875
vt 0.31395742 0.78731894
vt 0.31686401 0.75978035
vt 0.34849122 0.74421871
vt 0.3260648 0.72272182
vt 0.31663164 0.68857729
vt 0.31859159 0.68626618
vt 0.31852195 0.68667924
vt 0.3110936 0.72453547
vt 0.30991268 0.72968137
vt 0.31103489 0.72445571
vt 0.31106359 0.72480953
vt 0.31105396 0.7244615
vt 0.31103337 0.72449195
vt 0.35535806 0.93230426
vt 0.35449377 0.93081486
vt 0.41147542 0.92146397
vt 0.34925941 0.84013855
vt 0.22397603 0.82097208
vt 0.22922401 0.82096827
vt 0.22395922 0.82635427
vt 0.22397748 0.83385944
vt 0.24615847 0.87954557
vt 0.23364142 0.88733804
vt 0.24971406 0.84445202
vt 0.24373293 0.90759718
vt 0.2270398 0.87564242
vt 0.25291619 0.82095361
vt 0.25677311 0.85880584
vt 0.25071853 0.89476389
vt 0.23903108 0.90496588
vt 0.26200244 0.85585177
vt 0.25554699 0.89394277
vt 0.25178289 0.90662146
vt 0.23889542 0.90485549
vt 0.23895741 0.9049859
vt 0.27148649 0.83497125
vt 0.25954401 0.89921612
vt 0.25802985 0.88992304
vt 0.23880053 0.90502644
vt 0.23968236 0.92412955
vt 0.23891044 0.90509129
vt 0.26253814 0.82094514
vt 0.2615408 0.89367592
vt 0.24026589 0.91252506
vt 0.26855478 0.82577986
vt 0.26203191 0.90130502
vt 0.23015821 0.90981215
vt 0.26848972 0.87942946
vt 0.22398867 0.90343982
vt 0.25022048 0.92654377
vt 0.2645711 0.90151232
vt 0.26034537 0.87789249
vt 0.24287768 0.92910707
vt 0.24861094 0.91077173
vt 0.26640958 0.90202862
vt 0.24263184 0.93317968
vt 0.24547754 0.93230641
vt 0.2454474 0.93229556
vt 0.24592942 0.93333519
vt 0.34653553 0.82874584
vt 0.35288167 0.92927647
vt 0.34780955 0.89714992
vt 0.41080377 0.92563504
vt 0.43208906 0.92468035
vt 0.43179697 0.92737234
vt 0.4321501 0.92503792
vt 0.4320977 0.92476356
vt 0.46016878 0.9239077
vt 0.18994176 0.90950781
vt 0.16168953 0.91459262
vt 0.17135186 0.88377786
vt 0.17646796 0.88564968
vt 0.16436952 0.93353897
vt 0.20914145 0.91442025
vt 0.445761 0.8931638
vt 0.4473727 0.92918408
vt 0.4109073 0.88725328
vt 0.45401132 0.92867857
vt 0.45389727 0.93247628
vt 0.45969832 0.92628908
vt 0.42837232 0.71659553
vt 0.40895012 0.80128974
vt 0.41322029 0.75063384
vt 0.41316742 0.75056565
vt 0.45793724 0.75053096
vt 0.45799688 0.75073695
vt 0.45835853 0.75324982
vt 0.03998486 0.92531013
vt 0.038995501 0.92554641
vt 0.037439391 0.91870278
vt 0.041216947 0.91998369
vt 0.039069027 0.92545187
vt 0.079492405 0.91338843
vt 0.035887733 0.93211794
vt 0.053762045 0.92769349
vt 0.051141392 0.92762524
vt 0.053163059 0.92548037
vt 0.034650028 0.85309565
vt 0.19353144 0.77660698
vt 0.17794645 0.76361495
vt 0.19650783 0.76469022
vt 0.19734679 0.76557696
vt 0.18258852 0.77959287
vt 0.17683463 0.76413226
vt 0.17722043 0.78337848
vt 0.17056298 0.78555501
vt 0.18637273 0.79456151
vt 0.16878773 0.78301191
vt 0.17731494 0.79464269
vt 0.15823796 0.76300532
vt 0.18105464 0.79638076
vt 0.16995549 0.78462708
vt 0.18086225 0.79726726
vt 0.18178482 0.79778385
vt 0.16956997 0.78352928
vt 0.18184765 0.80122817
vt 0.18104239 0.79648197
vt 0.25604129 0.80836099
vt 0.25029093 0.80402553
vt 0.25029832 0.79629219
vt 0.25620556 0.78184086
vt 0.25814193 0.79336327
vt 0.23824978 0.77419257
vt 0.23353606 0.79363316
vt 0.26118308 0.77207315
vt 0.241308 0.79639661
vt 0.23033337 0.79019886
vt 0.2632775 0.78549594
vt 0.25849354 0.75467402
vt 0.2306252 0.78462249
vt 0.22811544 0.79385412
vt 0.22147244 0.75391889
vt 0.22747757 0.79357743
vt 0.23241681 0.77590132
vt 0.25421152 0.73813677
vt 0.22752205 0.79418576
vt 0.22551736 0.77520806
vt 0.22790097 0.79667354
vt 0.22852208 0.79965454
vt 0.22909395 0.79991114
vt 0.051272895 0.8018294
vt 0.051222689 0.80053127
vt 0.053596724 0.79674435
vt 0.051701527 0.8025189
vt 0.069506451 0.80222344
vt 0.050968818 0.80072784
vt 0.051656414 0.80322587
vt 0.050086737 0.80100226
vt 0.050314941 0.80103999
vt 0.048614163 0.80053842
vt 0.050693247 0.79989147
vt 0.035456989 0.79284394
vt 0.049497232 0.80032504
vt 0.049676638 0.79836386
vt 0.048474114 0.79885828
vt 0.40961641 0.9296397
vt 0.44390607 0.92788601
vt 0.44445691 0.93089122
vt 0.44390178 0.9262678
vt 0.036465641 0.92903429
vt 0.036885314 0.92701876
vt 0.037081506 0.9270336
vt 0.037908759 0.93015915
vt 0.069108203 0.92934072
vt 0.036590308 0.93154198
vt 0.037008509 0.92711031
vt 0.10138956 0.91581434
vt 0.10258482 0.91498423
vt 0.096027605 0.92905056
vt 0.10141846 0.91893709
vt 0.13228473 0.93042642
vt 0.035008885 0.85925817
vt 0.035020668 0.85936701
vt 0.035240855 0.85925019
vt 0.044661041 0.92697513
vt 0.1952146 0.92562479
vt 0.18640022 0.93097585
vt 0.19162317 0.92551214
vt 0.19449791 0.92349255
vt 0.16164081 0.91998428
vt 0.10242725 0.91973698
vt 0.096584737 0.91824174
vt 0.12798069 0.91951466
vt 0.099928953 0.92504352
vt 0.10007656 0.92942774
vt 0.099742778 0.9278847
vt 0.1001595 0.92560011
vt 0.099863909 0.92492318
vt 0.10001334 0.92532593
vt 0.10455302 0.9286359
vt 0.10797819 0.9197067
vt 0.11527655 0.9197163
vt 0.09625791 0.91918081
vt 0.12931478 0.91588926
vt 0.099384263 0.91947001
vt 0.095797032 0.91939342
vt 0.35311842 0.77161282
vt 0.34995839 0.77374709
vt 0.3504293 0.76770949
vt 0.3518925 0.75065523
vt 0.34773842 0.77088261
vt 0.35853302 0.76439834
vt 0.36242801 0.76006913
vt 0.35986581 0.74903899
vt 0.36022669 0.77179801
vt 0.35759482 0.77476788
vt 0.35914478 0.78192395
vt 0.3696256 0.77387375
vt 0.35657743 0.77597213
vt 0.37699428 0.78771675
vt 0.37386984 0.79329073
vt 0.37884897 0.80236411
vt 0.41203961 0.92631644
vt 0.41111457 0.92462838
vt 0.43784469 0.87397361
vt 0.41025692 0.9260596
vt 0.096775375 0.93072599
vt 0.12522432 0.92317891
vt 0.12492205 0.92448097
vt 0.1251356 0.92291224
vt 0.12679678 0.80237234
vt 0.098424986 0.79890776
vt 0.12635887 0.80181259
vt 0.12644365 0.80003792
vt 0.1770813 0.79621708
vt 0.17702341 0.79282397
vt 0.17644146 0.79296303
vt 0.16078553 0.78747678
vt 0.17977487 0.80782604
vt 0.17582205 0.79187936
vt 0.17715773 0.79286569
vt 0.1771712 0.79286379
vt 0.18566623 0.79892999
vt 0.036141161 0.8065154
vt 0.039860163 0.78589034
vt 0.041654628 0.79226995
vt 0.063957423 0.77169394
vt 0.037181035 0.78395098
vt 0.039592493 0.78375924
vt 0.04010151 0.78941429
vt 0.036900476 0.77879411
vt 0.24607241 0.80833703
vt 0.22134311 0.80291998
vt 0.24810655 0.79931402
vt 0.057823315 0.93089861
vt 0.033843111 0.92791998
vt 0.0611175 0.9281106
vt 0.047651671 0.67756474
vt 0.03549483 0.67807543
vt 0.058580093 0.64613909
vt 0.034883663 0.87999284
vt 0.03587389 0.87901378
vt 0.046046738 0.93254226
vt 0.051535614 0.79905933
vt 0.051404573 0.79517996
vt 0.059888184 0.77642882
vt 0.047556788 0.79423434
vt 0.049712893 0.79286838
vt 0.034541119 0.80741102
vt 0.37186816 0.79072917
vt 0.34672102 0.80681008
vt 0.34747434 0.79786968
vt 0.28866699 0.91822946
vt 0.30738571 0.89602184
vt 0.30904555 0.91457105
vt 0.30900085 0.91679716
vt 0.28563938 0.91720849
vt 0.28409049 0.92648101
vt 0.28390604 0.92340994
vt 0.28378361 0.9233427
vt 0.3013868 0.80515742
vt 0.30189943 0.80387992
vt 0.30304274 0.80270702
vt 0.30500871 0.80148685
vt 0.28411722 0.79655582
vt 0.30241907 0.80265266
vt 0.30047095 0.795771
vt 0.30199045 0.80306804
vt 0.3026498 0.80216849
vt 0.30230659 0.80286533
vt 0.038744032 0.90836364
vt 0.055020221 0.89123011
vt 0.036577001 0.92610127
vt 0.038926262 0.90700984
vt 0.052876063 0.91043723
vt 0.043381661 0.91532737
vt 0.036182653 0.91898984
vt 0.035169907 0.91176409
vt 0.04904414 0.93070579
vt 0.17937694 0.80381578
vt 0.17860627 0.807769
vt 0.17619868 0.80608183
vt 0.16148825 0.80124378
vt 0.10774063 0.66883409
vt 0.10625423 0.67848676
vt 0.10093717 0.67367315
vt 0.11147093 0.67447191
vt 0.095771924 0.67785132
vt 0.11838731 0.67631739
vt 0.099874735 0.66426301
vt 0.11514597 0.66725767
vt 0.10306983 0.67651188
vt 0.24064149 0.80237293
vt 0.23941012 0.80724907
vt 0.22110616 0.79080164
vt 0.16006888 0.68282604
vt 0.16268602 0.66786569
vt 0.17905822 0.66247678
vt 0.35821298 0.79750907
vt 0.36007875 0.79457659
vt 0.35954618 0.79662502
vt 0.3599765 0.79303759
vt 0.35748011 0.7943989
vt 0.36303598 0.79718381
vt 0.35321435 0.78451657
vt 0.3574926 0.79386437
vt 0.3603625 0.78709638
vt 0.36087957 0.80260944
vt 0.35582688 0.79710042
vt 0.36609745 0.78695977
vt 0.34797192 0.79066783
vt 0.35649985 0.79977781
vt 0.22994316 0.68175197
vt 0.2277322 0.67539424
vt 0.23707992 0.66592693
vt 0.23613259 0.67756796
vt 0.22312592 0.66645533
vt 0.24105734 0.67544079
vt 0.23989606 0.67909878
vt 0.41020006 0.80271047
vt 0.42800546 0.79889917
vt 0.42852491 0.80119193
vt 0.30530065 0.66059464
vt 0.30366111 0.66898984
vt 0.29079962 0.68070579
vt 0.28696769 0.66043723
vt 0.034458764 0.92501718
vt 0.055765383 0.92821503
vt 0.05572807 0.9285692
vt 0.16202575 0.9085322
vt 0.16718195 0.90158546
vt 0.16479337 0.91673803
vt 0.16077691 0.93298525
vt 0.10008752 0.67583621
vt 0.099075474 0.6754238
vt 0.099206872 0.67525113
vt 0.099998608 0.67374581
vt 0.11432904 0.67111325
vt 0.10336679 0.66121709
vt 0.35867202 0.6747731
vt 0.35604808 0.67326272
vt 0.36062276 0.6707207
vt 0.36080596 0.68238246
vt 0.35719636 0.67047906
vt 0.35841563 0.66464436
vt 0.36166725 0.6521433
vt 0.3482115 0.64579916
vt 0.41818976 0.68180841
vt 0.41135067 0.66233039
vt 0.42218375 0.66640121
vt 0.42361224 0.67085445
vt 0.42389855 0.67668557
vt 0.035609126 0.55221486
vt 0.038377158 0.54240972
vt 0.049890146 0.54118788
vt 0.41387951 0.89687228
vt 0.42028531 0.90289736
vt 0.41244739 0.90513062
vt 0.415564 0.9078691
vt 0.40918261 0.92666698
vt 0.1009672 0.53739458
vt 0.11308847 0.53927469
vt 0.09897466 0.54448962
vt 0.099191941 0.55215567
vt 0.35538027 0.67859375
vt 0.34835595 0.66226745
vt 0.35714224 0.67907739
vt 0.35845315 0.67842376
vt 0.35898572 0.67242575
vt 0.36022246 0.67303222
vt 0.36104283 0.67639148
vt 0.36372453 0.6707617
vt 0.35963643 0.67451417
vt 0.049938917 0.9270854
vt 0.034306977 0.90113437
vt 0.052448817 0.9304651
vt 0.04991293 0.9270823
vt 0.1719978 0.55206996
vt 0.1685331 0.55238777
vt 0.17300723 0.54610968
vt 0.17515257 0.54709864
vt 0.16956216 0.53853959
vt 0.16123113 0.54641992
vt 0.17694433 0.53997183
vt 0.16384883 0.5553683
vt 0.16718668 0.55696267
vt 0.22819598 0.52504325
vt 0.2289934 0.54549706
vt 0.22522506 0.55110705
vt 0.22085389 0.55231893
vt 0.2339755 0.53421259
vt 0.23781498 0.53681809
vt 0.23856583 0.547521
vt 0.29263932 0.54336321
vt 0.28959817 0.52207315
vt 0.30048293 0.54629219
vt 0.30049035 0.55402553
vt 0.28750375 0.53549594
vt 0.28557211 0.54098594
vt 0.03352277 0.65004325
vt 0.038949296 0.67591429
vt 0.038711507 0.67592108
vt 0.040864863 0.67731893
vt 0.043233551 0.80132413
vt 0.041111723 0.79655468
vt 0.048995834 0.80418372
vt 0.034892395 0.79386902
vt 0.051595345 0.7902
vt 0.35830924 0.54145455
vt 0.36207655 0.55516756
vt 0.35393381 0.5463866
vt 0.35429561 0.54046851
vt 0.35695514 0.53438926
vt 0.3488552 0.53678536
vt 0.17301549 0.80436403
vt 0.16154149 0.80040276
vt 0.1732184 0.80145168
vt 0.17439304 0.80102623
vt 0.1741721 0.79857183
vt 0.17322104 0.80122793
vt 0.045747451 0.54823017
vt 0.045347292 0.55445409
vt 0.040476199 0.54311585
vt 0.051932063 0.54378974
vt 0.036697488 0.53865761
vt 0.04068939 0.55444264
vt 0.41203716 0.54344916
vt 0.41205183 0.54237199
vt 0.42508084 0.54214501
vt 0.41194147 0.5520137
vt 0.29858848 0.55785191
vt 0.29163098 0.5517025
vt 0.28691787 0.53784037
vt 0.29269195 0.54280865
vt 0.29920724 0.55343723
vt 0.34921849 0.91524214
vt 0.35774064 0.91102159
vt 0.35273272 0.92615259
vt 0.047546968 0.93131667
vt 0.045535628 0.93196213
vt 0.035150234 0.92633069
vt 0.042924386 0.43206805
vt 0.040902033 0.41527706
vt 0.046895273 0.41394109
vt 0.036672015 0.41802156
vt 0.047230273 0.91966468
vt 0.035976857 0.92516226
vt 0.034660108 0.92256218
vt 0.03639793 0.92799228
vt 0.09613736 0.41666001
vt 0.10204562 0.40603805
vt 0.10906204 0.41747153
vt 0.1042334 0.42823195
vt 0.22748283 0.80350816
vt 0.22549637 0.80552876
vt 0.22415233 0.79788834
vt 0.23164044 0.78818291
vt 0.22122614 0.79651928
vt 0.22415206 0.78326577
vt 0.03398101 0.92747009
vt 0.046682522 0.92796332
vt 0.034512207 0.93002117
vt 0.042696666 0.92096388
vt 0.045223009 0.92383099
vt 0.040187791 0.92409497
vt 0.034968723 0.93016458
vt 0.35906982 0.92601335
vt 0.36080778 0.92890412
vt 0.35260677 0.93301213
vt 0.35597894 0.92700654
vt 0.35936248 0.91982639
vt 0.34715134 0.92165488
vt 0.36026335 0.92039406
vt 0.16174422 0.41781127
vt 0.17190248 0.41413206
vt 0.16531144 0.42669809
vt 0.17221452 0.42609155
vt 0.04852039 0.65359712
vt 0.045479059 0.6616416
vt 0.040634364 0.66027391
vt 0.044980951 0.66758418
vt 0.036653515 0.68273127
vt 0.035960723 0.67172205
vt 0.35148209 0.55668247
vt 0.3514531 0.54541016
vt 0.35939926 0.55367076
vt 0.34647927 0.54409075
vt 0.35427418 0.54488599
vt 0.22677307 0.42424053
vt 0.22357041 0.41709632
vt 0.23575734 0.41884911
vt 0.22886734 0.42793453
vt 0.29503968 0.42624432
vt 0.29276532 0.42470998
vt 0.29256448 0.4235068
vt 0.29695824 0.4223516
vt 0.28688243 0.41480815
vt 0.35558888 0.41519576
vt 0.35410044 0.42390394
vt 0.34764594 0.40849304
vt 0.34672534 0.43198597
vt 0.35791376 0.42504966
vt 0.41594467 0.42646366
vt 0.41443729 0.40935946
vt 0.41879347 0.40471298
vt 0.41324148 0.41586345
vt 0.41091254 0.41317385
vt 0.40908983 0.4183898
vt 0.41116655 0.42380089
vt 0.42066288 0.4146992
vt 0.10306773 0.80044109
vt 0.099145092 0.80471909
vt 0.10095883 0.78309298
vt 0.10429543 0.80030555
vt 0.10333312 0.79974449
vt 0.035164408 0.90620643
vt 0.036566615 0.92686045
vt 0.033995014 0.91839176
vt 0.034245543 0.92276001
vt 0.033271171 0.92575735
vt 0.034276377 0.9173373
vt 0.044996034 0.92427719
vt 0.040626351 0.92379653
vt 0.03967075 0.92956728
vt 0.036322493 0.2953378
vt 0.034996599 0.29428738
vt 0.047643732 0.2910952
vt 0.03659815 0.30647939
vt 0.10043825 0.2920351
vt 0.09960223 0.28284693
vt 0.10317761 0.28013062
vt 0.1064424 0.30166698
vt 0.041472044 0.80552548
vt 0.035817407 0.79770803
vt 0.045458399 0.79765242
vt 0.16601774 0.30372125
vt 0.16046524 0.28969342
vt 0.16687652 0.28968883
vt 0.16839442 0.29397196
vt 0.17233005 0.29646176
vt 0.034509297 0.920941
vt 0.044799373 0.92132229
vt 0.048399553 0.92583686
vt 0.22295986 0.30014831
vt 0.22413039 0.29550523
vt 0.2331205 0.2888115
vt 0.22801755 0.30295807
vt 0.28576151 0.29152817
vt 0.29688695 0.29965776
vt 0.28828326 0.30251461
vt 0.29748678 0.29277891
vt 0.16332293 0.80426979
vt 0.16057187 0.80635422
vt 0.16331665 0.80400974
vt 0.16629073 0.80398518
vt 0.16220453 0.79927474
vt 0.17206971 0.80083477
vt 0.16347149 0.80294818
vt 0.29790929 0.79591095
vt 0.28604198 0.79775411
vt 0.28571498 0.79637992
vt 0.28732431 0.80302751
vt 0.28540519 0.7990309
vt 0.41673249 0.79583609
vt 0.41733852 0.80275446
vt 0.41609082 0.80594152
vt 0.40833235 0.79896605
vt 0.4223468 0.79407239
vt 0.35239103 0.30345714
vt 0.34769368 0.28434473
vt 0.35621694 0.29047
vt 0.22460672 0.79936147
vt 0.23445651 0.79899532
vt 0.22503479 0.80445409
vt 0.23161957 0.79378974
vt 0.41292724 0.30635405
vt 0.41676733 0.3036474
vt 0.41581973 0.30731601
vt 0.41682488 0.3016426
vt 0.41007316 0.29349887
vt 0.41855332 0.30457008
vt 0.41871083 0.30444658
vt 0.41980407 0.30124432
vt 0.41894963 0.29612219
vt 0.41654679 0.29589862
vt 0.41314685 0.29373014
vt 0.4211534 0.28746277
vt 0.10457971 0.92394036
vt 0.10118656 0.92656302
vt 0.09613657 0.92273092
vt 0.10277804 0.9161014
vt 0.098034918 0.90835917
vt 0.033395905 0.17286652
vt 0.039553307 0.16310149
vt 0.045441046 0.17865896
vt 0.047073234 0.30781394
vt 0.03801351 0.30400819
vt 0.04063978 0.29631352
vt 0.04435955 0.29341996
vt 0.036577296 0.28679669
vt 0.28869754 0.80450368
vt 0.29394192 0.79315823
vt 0.29229075 0.80540216
vt 0.28563184 0.79636121
vt 0.041831728 0.92510802
vt 0.041539524 0.92646897
vt 0.033935897 0.91588736
vt 0.22574914 0.68318653
vt 0.22359103 0.67563635
vt 0.22810374 0.66365761
vt 0.037174992 0.9250899
vt 0.036804676 0.91765368
vt 0.041548986 0.93080837
vt 0.037414797 0.9272871
vt 0.041636694 0.92561889
vt 0.041636329 0.92687732
vt 0.035466786 0.93324965
vt 0.10426981 0.16178536
vt 0.1042916 0.16873199
vt 0.10073929 0.17724901
vt 0.098829396 0.16546851
vt 0.044116065 0.92663532
vt 0.03523428 0.93266624
vt 0.033882197 0.92788512
vt 0.038244482 0.93320632
vt 0.039519794 0.92408371
vt 0.039637446 0.92432821
vt 0.037503585 0.91692394
vt 0.0396812 0.92416507
vt 0.03563682 0.92600274
vt 0.040149551 0.92289639
vt 0.28494447 0.66963911
vt 0.28748405 0.67852604
vt 0.28405181 0.67639351
vt 0.28662479 0.66565323
vt 0.28725481 0.66269386
vt 0.28590849 0.66450161
vt 0.28631285 0.66310835
vt 0.34808192 0.66897196
vt 0.35203689 0.66468841
vt 0.35423365 0.67201376
vt 0.35378912 0.680502
vt 0.35619086 0.67434573
vt 0.34667176 0.67373312
vt 0.34846082 0.66251528
vt 0.34938368 0.68063033
vt 0.3518115 0.67885715
vt 0.41448632 0.67971027
vt 0.41114801 0.67896229
vt 0.41583416 0.67651594
vt 0.41543052 0.67374516
vt 0.41535488 0.67073619
vt 0.4152256 0.66497183
vt 0.16062705 0.55006397
vt 0.1634979 0.55078578
vt 0.16844824 0.55642653
vt 0.16346826 0.55076301
vt 0.16253027 0.5476191
vt 0.16565791 0.5488627
vt 0.16390891 0.5496009
vt 0.038532712 0.92298263
vt 0.035096433 0.91827893
vt 0.035210449 0.91651177
vt 0.034563489 0.92753965
vt 0.35014758 0.91928345
vt 0.35091698 0.91094011
vt 0.35311449 0.92641276
vt 0.34924525 0.9184581
vt 0.41944948 0.66996855
vt 0.41772297 0.6796841
vt 0.40880156 0.68130016
vt 0.040056314 0.92010212
vt 0.036980145 0.93177849
vt 0.038362667 0.9161526
vt 0.040888738 0.93082201
vt 0.16631688 0.16732907
vt 0.16693951 0.17801738
vt 0.16497241 0.17881399
vt 0.16303141 0.18259031
vt 0.16203865 0.17667681
vt 0.15955475 0.17585009
vt 0.16068983 0.79197735
vt 0.16570364 0.78981847
vt 0.16525929 0.8075195
vt 0.28941616 0.55650991
vt 0.28532502 0.55253917
vt 0.28877115 0.54280555
vt 0.28631762 0.53623801
vt 0.28376031 0.4272666
vt 0.28838891 0.41426337
vt 0.28724512 0.43156224
vt 0.28492963 0.43185699
vt 0.22729295 0.17616415
vt 0.22712012 0.17663091
vt 0.22968206 0.160182
vt 0.22415879 0.17788005
vt 0.22700451 0.17906988
vt 0.10007828 0.29730529
vt 0.10010829 0.30356038
vt 0.098252773 0.30629396
vt 0.1042088 0.301768
vt 0.10643038 0.29557025
vt 0.10480806 0.30474484
vt 0.036992051 0.42688066
vt 0.034604978 0.42219388
vt 0.041674729 0.42690253
vt 0.29011148 0.17900819
vt 0.28376547 0.16841996
vt 0.29154772 0.16179669
vt 0.096220382 0.4226774
vt 0.10685955 0.41841996
vt 0.10051351 0.42900819
vt 0.34952039 0.78732401
vt 0.35027999 0.80062461
vt 0.34676212 0.79773235
vt 0.35140917 0.80306959
vt 0.34615988 0.80394739
vt 0.035796892 0.66518247
vt 0.042644665 0.67256582
vt 0.034325168 0.67624807
vt 0.033705816 0.67706966
vt 0.35683271 0.18106395
vt 0.35457036 0.17709452
vt 0.356713 0.16751736
vt 0.34694728 0.16414016
vt 0.3526637 0.17603016
vt 0.098584339 0.5556525
vt 0.10337943 0.54820776
vt 0.1050598 0.55495572
vt 0.10700717 0.5369761
vt 0.15958066 0.42904848
vt 0.1616732 0.42488557
vt 0.16440828 0.43036795
vt 0.16822742 0.42689312
vt 0.22562271 0.43326372
vt 0.2225875 0.42366576
vt 0.22347032 0.41439623
vt 0.41226617 0.16567367
vt 0.41955045 0.16958135
vt 0.41716865 0.18129474
vt 0.41025519 0.17401826
vt 0.042033393 0.92211968
vt 0.040019244 0.92423952
vt 0.034766637 0.92681491
vt 0.041370139 0.91892272
vt 0.042085852 0.92403007
vt 0.036436301 0.93257719
vt 0.035263117 0.92743528
vt 0.412568 0.42598945
vt 0.41356072 0.42649132
vt 0.40952229 0.42655742
vt 0.41341335 0.42405492
vt 0.16119123 0.30571556
vt 0.16089387 0.30143476
vt 0.16240948 0.30039304
vt 0.16046186 0.30118883
vt 0.16087891 0.30047679
vt 0.15847181 0.30084586
vt 0.1595166 0.29597908
vt 0.22540569 0.68249226
vt 0.22459294 0.68205833
vt 0.22509149 0.68079406
vt 0.22518449 0.68192697
vt 0.28704339 0.67293853
vt 0.28586003 0.67701542
vt 0.28471419 0.67302251
vt 0.28473428 0.67594141
vt 0.29013944 0.29503316
vt 0.28750944 0.30122018
vt 0.28383344 0.29718989
vt 0.039534185 0.92972541
vt 0.036380198 0.92409974
vt 0.039933078 0.92883325
vt 0.036436632 0.92561579
vt 0.037246607 0.9253372
vt 0.035444915 0.93024135
vt 0.41176212 0.67660576
vt 0.41215667 0.67691058
vt 0.41216478 0.67698807
vt 0.41226113 0.6759429
vt 0.037358649 0.55501342
vt 0.037197288 0.55340779
vt 0.036485281 0.55210602
vt 0.037646819 0.55226171
vt 0.098236099 0.54755431
vt 0.097517274 0.54791266
vt 0.099004522 0.54871804
vt 0.097826175 0.55158705
vt 0.035362549 0.93224061
vt 0.040600274 0.92838174
vt 0.039166812 0.93291724
vt 0.040234312 0.92258489
vt 0.036756303 0.92890143
vt 0.34795409 0.29677618
vt 0.35072541 0.30195105
vt 0.35055605 0.30722898
vt 0.03522753 0.18047523
vt 0.035774395 0.17455715
vt 0.037768822 0.17423737
vt 0.034227379 0.17652386
vt 0.034193344 0.17622918
vt 0.033379905 0.17890662
vt 0.10344636 0.17187858
vt 0.10139997 0.17819917
vt 0.099137068 0.17695034
vt 0.098351419 0.17133331
vt 0.096681111 0.17975008
vt 0.22773431 0.17258489
vt 0.22666681 0.18291724
vt 0.22441407 0.17269737
vt 0.22113009 0.17912591
vt 0.2223727 0.18338764
vt 0.16180654 0.55298018
vt 0.16377614 0.55450177
vt 0.16271611 0.55712283
vt 0.16160703 0.55595946
vt 0.28653646 0.17323458
vt 0.28727427 0.1765101
vt 0.28626952 0.17637515
vt 0.22511172 0.55595946
vt 0.22294261 0.55450177
vt 0.22491221 0.55298018
vt 0.22400264 0.55712283
vt 0.040006749 0.93270099
vt 0.03731228 0.92861593
vt 0.038275484 0.92304558
vt 0.035726368 0.93203402
vt 0.34982333 0.17655236
vt 0.35002315 0.17757994
vt 0.34854725 0.17947352
vt 0.34715933 0.17370689
vt 0.34943539 0.17454511
vt 0.35038155 0.16850543
vt 0.3496604 0.18073821
vt 0.47717476 0.92078614
vt 0.47650838 0.92708778
vt 0.47319788 0.92757356
vt 0.53831816 0.92705071
vt 0.53479147 0.93293333
vt 0.53679055 0.92133981
vt 0.47076911 0.92293853
vt 0.47307822 0.92594141
vt 0.47195247 0.92701542
vt 0.47309831 0.92302257
vt 0.60041809 0.92808068
vt 0.5992319 0.92522502
vt 0.60069203 0.92432344
vt 0.034795575 0.93006098
vt 0.034681614 0.92593503
vt 0.037777696 0.91810977
vt 0.53648168 0.92713255
vt 0.53917515 0.92669791
vt 0.53731936 0.93201774
vt 0.66046751 0.92401838
vt 0.66102648 0.92754692
vt 0.66046661 0.9281494
vt 0.66046637 0.92787617
vt 0.66046637 0.92811126
vt 0.66046619 0.92811984
vt 0.66046619 0.92647994
vt 0.66350549 0.92708796
vt 0.5995605 0.9270249
vt 0.59981489 0.92696673
vt 0.59951788 0.92610329
vt 0.59915841 0.92696428
vt 0.6608063 0.92646748
vt 0.66168207 0.92613328
vt 0.66176516 0.92979324
vt 0.66132599 0.92860633
vt 0.66218299 0.92685246
vt 0.66163564 0.92682493
vt 0.6623264 0.92841083
vt 0.66194808 0.92727435
vt 0.72350091 0.93039197
vt 0.72361207 0.92899776
vt 0.72380602 0.9304933
vt 0.72455245 0.93078429
vt 0.72460347 0.9296239
vt 0.72509712 0.93344486
vt 0.72446144 0.92999995
vt 0.72463059 0.92812639
vt 0.72461027 0.92873847
vt 0.0379165 0.92824435
vt 0.036815524 0.92572629
vt 0.037873533 0.92607838
vt 0.036363013 0.93057674
vt 0.78633332 0.92686129
vt 0.78460318 0.92494571
vt 0.78625739 0.92499459
vt 0.78508836 0.92853636
vt 0.03436223 0.93289554
vt 0.034386534 0.93026137
vt 0.039641406 0.92594302
vt 0.037839893 0.92555511
vt 0.84740263 0.92758638
vt 0.84606665 0.92635959
vt 0.84781891 0.92625922
vt 0.84767288 0.9235363
vt 0.72388566 0.9292773
vt 0.72135347 0.92367733
vt 0.72513312 0.92102277
vt 0.72609955 0.926328
vt 0.78935426 0.92205751
vt 0.7888301 0.92892981
vt 0.78556412 0.92335743
vt 0.78611726 0.93059248
vt 0.85015815 0.92249566
vt 0.84998906 0.92857349
vt 0.84806043 0.92249751
vt 0.85020775 0.92249596
vt 0.037015468 0.91939342
vt 0.037606694 0.91908634
vt 0.036554586 0.91918081
vt 0.038635716 0.93137312
vt 0.90986449 0.92205751
vt 0.91365463 0.92335743
vt 0.91310149 0.93059248
vt 0.91038865 0.92892981
vt 0.91136283 0.92878217
vt 0.91143394 0.92658406
vt 0.91292357 0.93225151
vt 0.4756715 0.80447352
vt 0.4741956 0.80257994
vt 0.47478336 0.79954511
vt 0.47417933 0.80115336
vt 0.47303793 0.8040092
vt 0.47401413 0.79791331
vt 0.53813756 0.80747783
vt 0.54025888 0.80415618
vt 0.53740144 0.8080312
vt 0.5372197 0.80826968
vt 0.53805161 0.80575615
vt 0.53735155 0.80796248
vt 0.53737152 0.80803829
vt 0.53575921 0.80353141
vt 0.53490645 0.79953897
vt 0.53798258 0.80084878
vt 0.53498852 0.80253547
vt 0.039910644 0.92736119
vt 0.035076581 0.91840714
vt 0.039408624 0.92274749
vt 0.039602637 0.92253309
vt 0.040604208 0.92148602
vt 0.039567821 0.92249548
vt 0.039865661 0.92561209
vt 0.036483552 0.9212544
vt 0.040117111 0.92492568
vt 0.039539792 0.93032992
vt 0.040348642 0.9242934
vt 0.59752989 0.80527848
vt 0.59683394 0.80401838
vt 0.60006219 0.80255973
vt 0.59818757 0.80205476
vt 0.59849322 0.80183136
vt 0.5997752 0.79613119
vt 0.59657526 0.79874498
vt 0.59677547 0.80031407
vt 0.59571552 0.79911703
vt 0.5962469 0.80144954
vt 0.036927734 0.923765
vt 0.038927533 0.92453569
vt 0.038308036 0.92702413
vt 0.037272345 0.92636448
vt 0.035910714 0.92702413
vt 0.035291217 0.92453569
vt 0.036946405 0.92636448
vt 0.037291016 0.923765
vt 0.66308582 0.80424821
vt 0.66244262 0.80581933
vt 0.66175592 0.80361605
vt 0.66263729 0.80199134
vt 0.72496283 0.80361605
vt 0.72427613 0.80581933
vt 0.72408146 0.80199134
vt 0.72363293 0.80424821
vt 0.78691214 0.80729544
vt 0.7865383 0.80729651
vt 0.7871421 0.80729538
vt 0.84658569 0.79589045
vt 0.84686714 0.80328238
vt 0.84592593 0.80548799
vt 0.84641844 0.80682176
vt 0.91059315 0.80465657
vt 0.91014498 0.80171204
vt 0.91112685 0.80101204
vt 0.91059422 0.80234671
vt 0.53519279 0.68271923
vt 0.5345735 0.68205082
vt 0.53488564 0.67882049
vt 0.5363782 0.68200123
vt 0.59829527 0.67874002
vt 0.59814852 0.6810956
vt 0.5968439 0.68162972
vt 0.59687406 0.679335
vt 0.66090822 0.68027377
vt 0.66092134 0.68028402
vt 0.66091466 0.68025708
vt 0.66092801 0.68028116
vt 0.66088057 0.68035483
vt 0.66091752 0.68025589
vt 0.66088259 0.68063498
vt 0.66076028 0.68043125
vt 0.66078085 0.68015051
vt 0.72241378 0.68214011
vt 0.72226876 0.67985487
vt 0.72143954 0.67987537
vt 0.72230268 0.67674506
vt 0.78664553 0.67908156
vt 0.78660601 0.67944157
vt 0.78671771 0.67927188
vt 0.78655463 0.67961109
vt 0.84671128 0.67682648
vt 0.84684116 0.67609096
vt 0.84621316 0.67609429
vt 0.84666616 0.67581832
vt 0.91172969 0.67671746
vt 0.91209948 0.67664862
vt 0.91173863 0.67737806
vt 0.91160953 0.67643797
vt 0.28443009 0.55088788
vt 0.28426999 0.55157554
vt 0.28441301 0.55094612
vt 0.28462929 0.55093461
vt 0.34727481 0.55224484
vt 0.34821767 0.55604589
vt 0.34691745 0.55477118
vt 0.34867498 0.55361497
vt 0.41125834 0.55277741
vt 0.41050911 0.55442154
vt 0.41074318 0.55089128
vt 0.40970948 0.55163646
vt 0.47230339 0.55442154
vt 0.47155416 0.55277741
vt 0.47310302 0.55163646
vt 0.47206932 0.55089128
vt 0.53594685 0.55434072
vt 0.53466398 0.5560956
vt 0.53593844 0.554335
vt 0.5359686 0.55662972
vt 0.53591764 0.55439252
vt 0.53589654 0.55425417
vt 0.53587943 0.55406082
vt 0.53451723 0.55374002
vt 0.59829354 0.55175054
vt 0.5985074 0.55117863
vt 0.59828323 0.55159354
vt 0.59821182 0.55112135
usemtl Tile_+032_+023_L13_0
f 88/118 80/119 151/120
f 130/123 135/126 143/121
f 144/241 142/242 148/243
f 148/243 143/245 150/244
f 147/248 150/244 137/247
f 137/371 144/372 145/373
f 146/1055 148/1056 141/1057
f 134/252 136/253 147/248
f 137/247 150/244 143/245
f 137/371 143/375 144/372
f 144/241 150/244 141/246
f 142/1059 141/1057 148/1056
f 150/244 147/248 141/246
f 150/244 144/241 148/243
f 142/378 146/379 149/376
f 147/248 137/247 138/250
f 138/444 136/445 139/446
f 147/248 145/249 141/246
f 138/250 134/252 147/248
f 148/1056 146/1055 135/1058
f 142/378 144/372 143/375
f 135/374 142/378 143/375
f 144/372 141/380 149/376
f 141/246 145/249 146/251
f 145/373 144/372 149/376
f 146/379 142/378 135/374
f 148/377 135/374 145/373
f 137/371 145/373 135/374
f 135/255 139/254 147/248
f 139/254 148/243 147/248
f 134/448 135/447 130/449
f 136/859 138/860 137/861
f 135/447 134/448 138/444
f 134/252 139/254 136/253
f 133/199 6/200 134/201
f 132/725 131/726 133/727
f 130/123 133/147 131/149
f 131/381 6/382 130/383
f 132/348 130/349 6/350
f 295/863 177/864 125/865
f 295/863 178/866 177/864
f 125/865 126/867 297/869
f 126/867 178/866 297/869
f 294/868 297/869 178/866
f 125/865 177/864 126/867
f 79/385 152/386 7/387
f 88/878 151/879 143/880
f 80/119 143/121 151/120
f 148/243 139/254 134/252
f 136/859 137/861 135/862
f 147/248 136/253 135/255
f 142/378 149/376 141/380
f 149/376 146/379 145/373
f 147/881 148/882 145/883
f 89/433 7/434 133/435
f 7/387 152/386 133/389
f 152/203 89/204 6/200
f 133/435 79/436 89/433
f 79/430 6/431 89/432
f 7/387 6/388 79/385
f 135/447 138/444 139/446
f 134/570 130/571 132/572
f 133/199 134/201 132/202
f 131/381 134/384 6/382
f 294/868 178/866 295/863
f 6/200 133/199 152/203
f 79/140 309/153 75/156
f 288/125 79/140 293/144
f 79/207 140/205 152/203
f 89/204 152/203 140/205
f 143/121 80/119 82/122
f 82/122 130/123 143/121
f 79/207 69/209 140/205
f 69/209 79/207 292/211
f 79/207 75/216 72/217
f 72/6 73/7 79/8
f 292/211 72/217 75/216
f 75/216 73/213 292/211
f 72/6 69/9 73/7
f 79/140 130/123 289/139
f 79/140 291/134 290/130
f 130/123 291/134 289/139
f 82/122 288/125 130/123
f 79/140 133/147 130/123
f 293/144 79/140 290/130
f 289/139 291/134 288/125
f 300/141 289/139 288/125
f 130/123 290/130 291/134
f 130/123 288/125 290/130
f 288/125 291/134 299/135
f 299/135 290/130 288/125
f 288/125 293/144 300/141
f 293/144 290/130 300/141
f 79/140 300/141 291/134
f 79/140 289/139 300/141
f 89/204 140/205 303/206
f 305/884 302/885 303/886
f 129/210 89/204 302/208
f 303/325 304/326 305/327
f 69/333 129/328 301/332
f 303/325 140/329 129/328
f 304/326 303/325 129/328
f 140/205 301/212 305/215
f 304/326 301/332 298/331
f 305/327 304/326 140/329
f 129/328 302/330 304/326
f 140/205 69/209 301/212
f 68/13 129/17 69/9
f 301/332 304/326 302/330
f 140/329 304/326 298/331
f 302/330 305/327 301/332
f 68/13 106/19 129/17
f 106/169 124/170 123/171
f 300/141 299/135 291/134
f 290/130 299/135 300/141
f 129/328 298/331 301/332
f 140/406 298/407 129/408
f 106/169 308/173 124/170
f 69/209 292/211 73/213
f 89/204 303/206 302/208
f 123/171 128/172 106/169
f 78/577 75/578 107/579
f 107/579 307/580 78/577
f 75/764 311/765 107/766
f 53/588 306/589 107/590
f 288/125 53/154 107/150
f 79/140 107/150 309/153
f 309/153 107/150 311/157
f 75/764 312/767 311/765
f 311/765 312/767 78/768
f 309/153 311/157 310/159
f 310/159 312/158 309/153
f 75/156 309/153 312/158
f 307/769 310/770 311/765
f 307/475 61/476 310/477
f 306/594 104/595 288/596
f 61/394 54/395 104/396
f 79/140 288/125 107/150
f 111/599 54/600 288/601
f 96/899 306/900 111/901
f 54/779 112/780 288/781
f 288/601 96/602 111/599
f 70/129 96/133 288/125
f 70/129 82/122 92/132
f 82/122 70/129 288/125
f 23/613 56/614 82/615
f 77/12 74/15 71/10
f 74/537 77/538 61/539
f 75/540 74/537 61/539
f 77/480 76/479 61/476
f 81/124 85/128 82/122
f 83/127 81/124 80/119
f 81/124 82/122 80/119
f 61/11 68/13 69/9
f 292/211 79/207 77/214
f 78/478 61/476 76/479
f 77/480 79/482 73/481
f 72/217 292/211 77/214
f 71/10 73/7 75/14
f 75/14 61/11 71/10
f 71/10 74/15 73/7
f 69/9 72/6 71/10
f 69/9 71/10 61/11
f 53/904 104/905 64/906
f 105/20 124/30 308/25
f 106/19 68/13 105/20
f 87/618 55/617 86/616
f 53/546 61/547 306/548
f 70/398 104/396 54/395
f 306/594 61/597 104/595
f 54/902 306/900 96/899
f 78/768 312/767 310/770
f 107/579 61/582 307/580
f 307/769 311/765 78/768
f 61/476 78/478 310/477
f 104/595 53/598 288/596
f 96/899 112/903 54/902
f 306/799 288/800 112/801
f 23/458 82/459 55/460
f 23/458 55/460 87/461
f 74/483 76/479 73/481
f 77/480 73/481 76/479
f 77/12 71/10 72/6
f 76/581 74/583 75/578
f 75/578 78/577 76/581
f 85/463 55/464 82/465
f 112/801 111/802 306/799
f 51/803 95/804 52/805
f 97/808 113/809 114/810
f 110/814 97/815 112/816
f 47/913 9/914 94/915
f 97/488 110/489 43/490
f 9/143 43/146 100/137
f 113/297 115/298 45/299
f 94/915 99/916 47/913
f 52/584 63/585 47/586
f 47/608 99/609 52/610
f 97/837 114/838 45/839
f 45/514 39/515 97/516
f 98/518 97/516 39/515
f 54/395 59/397 40/399
f 107/590 54/591 40/592
f 98/631 39/632 114/633
f 39/711 61/712 114/713
f 113/634 98/631 114/633
f 61/300 98/302 113/297
f 114/838 61/840 45/839
f 113/297 45/299 61/300
f 70/552 64/553 98/554
f 70/611 52/610 99/609
f 107/590 306/589 54/591
f 54/918 111/919 64/920
f 111/841 112/842 103/843
f 110/934 112/935 64/936
f 100/137 92/132 9/143
f 110/489 103/496 96/495
f 94/807 92/806 95/804
f 52/848 86/849 23/850
f 52/626 92/627 93/628
f 93/628 51/629 94/630
f 23/458 87/461 85/462
f 67/938 91/939 101/940
f 90/945 101/946 84/947
f 101/1060 109/1061 84/1062
f 91/1035 109/1036 66/1037
f 84/1062 109/1061 91/1063
f 84/1062 91/1063 67/1064
f 82/497 52/498 93/499
f 101/1032 91/1033 66/1034
f 109/944 101/940 65/943
f 101/940 90/941 67/938
f 67/1029 66/1030 109/1031
f 81/124 32/131 85/128
f 90/941 65/943 66/942
f 32/658 8/659 85/660
f 52/498 56/501 55/502
f 83/127 32/131 81/124
f 82/497 56/501 52/498
f 40/16 68/13 61/11
f 98/302 63/303 108/305
f 52/308 32/310 62/307
f 52/308 62/307 63/303
f 61/300 63/303 98/302
f 107/706 60/707 59/708
f 40/592 60/593 107/590
f 105/20 57/29 58/35
f 105/20 308/25 106/19
f 105/20 58/35 124/30
f 85/619 87/618 86/616
f 52/661 8/659 32/658
f 54/703 53/704 70/705
f 63/400 64/402 104/396
f 70/398 63/400 104/396
f 54/395 64/402 63/400
f 8/504 62/505 17/506
f 96/698 103/699 97/700
f 82/497 93/499 94/500
f 85/619 86/616 52/620
f 40/399 59/397 102/401
f 100/1009 43/1010 99/1011
f 103/843 112/842 97/844
f 111/919 110/921 64/920
f 98/492 110/489 70/493
f 82/510 95/511 51/512
f 23/850 8/851 52/848
f 92/806 52/805 95/804
f 97/700 98/702 64/701
f 99/1011 94/1012 100/1009
f 98/492 43/490 110/489
f 47/519 70/520 43/521
f 63/585 70/587 47/586
f 96/495 70/493 110/489
f 112/935 96/937 64/936
f 103/922 110/921 111/919
f 92/917 94/915 9/914
f 70/129 92/132 100/137
f 100/832 94/833 70/834
f 94/833 52/835 70/834
f 92/627 51/629 93/628
f 94/513 95/511 82/510
f 23/218 85/219 17/220
f 66/942 65/943 101/940
f 84/1062 67/1064 65/1065
f 65/1065 67/1064 109/1061
f 66/942 67/938 90/941
f 60/707 102/710 59/708
f 61/300 53/304 63/303
f 40/820 61/821 60/822
f 60/817 61/818 102/819
f 61/709 107/706 59/708
f 61/394 59/397 54/395
f 64/553 70/552 53/555
f 64/701 96/698 97/700
f 99/609 43/612 70/611
f 23/613 86/616 56/614
f 52/498 55/502 85/503
f 54/679 63/680 53/681
f 17/506 85/507 8/504
f 92/132 82/122 51/138
f 56/614 86/616 55/617
f 52/835 94/833 51/836
f 21/674 19/675 29/676
f 10/148 15/155 13/151
f 26/662 24/663 27/664
f 28/686 31/687 26/688
f 10/221 8/222 23/218
f 10/42 11/38 14/46
f 13/907 12/908 43/909
f 40/16 45/23 44/21
f 40/823 38/824 39/825
f 15/525 10/526 41/527
f 102/786 39/787 38/788
f 35/531 20/532 37/533
f 267/535 37/533 20/532
f 33/782 20/783 34/784
f 24/224 18/223 17/220
f 17/220 29/226 24/224
f 24/541 29/542 32/543
f 30/689 31/687 28/686
f 24/654 20/655 25/656
f 24/654 25/656 31/657
f 25/732 26/733 31/734
f 31/666 27/664 24/663
f 31/666 4/668 27/664
f 22/440 20/441 29/442
f 27/664 28/665 26/662
f 25/667 28/665 27/664
f 27/664 4/668 25/667
f 4/715 26/716 25/717
f 4/239 24/224 26/240
f 3/238 24/224 4/239
f 23/218 17/220 10/221
f 22/440 29/442 17/443
f 21/573 22/574 19/575
f 18/223 10/221 17/220
f 13/907 15/912 14/911
f 10/148 9/143 8/152
f 12/529 41/527 10/526
f 10/556 14/557 12/558
f 12/908 13/907 41/910
f 12/558 14/557 15/559
f 15/525 41/527 11/528
f 43/146 9/143 10/148
f 11/38 44/21 42/33
f 172/27 42/33 44/21
f 11/812 42/813 176/811
f 113/809 97/808 176/811
f 12/450 11/451 48/452
f 115/758 113/759 42/760
f 172/826 38/824 40/823
f 42/33 172/27 115/37
f 68/13 40/16 46/18
f 42/409 175/410 176/411
f 11/414 175/410 173/412
f 174/413 171/416 172/419
f 172/419 171/416 115/422
f 172/419 102/415 174/413
f 12/450 48/452 97/453
f 97/488 43/490 12/491
f 11/451 16/454 48/452
f 47/519 43/521 48/522
f 49/457 10/456 16/454
f 62/307 108/305 63/303
f 173/762 171/761 113/759
f 40/421 102/415 172/419
f 173/412 174/413 102/415
f 102/786 38/788 115/789
f 169/763 173/762 113/759
f 102/786 171/790 173/791
f 39/515 45/514 40/517
f 169/466 98/467 50/468
f 8/504 47/508 62/505
f 48/452 16/454 10/456
f 32/131 83/127 170/136
f 170/646 33/647 36/648
f 102/714 61/712 39/711
f 62/307 50/309 108/305
f 47/519 48/522 108/523
f 62/471 49/472 50/473
f 105/20 46/18 163/22
f 46/290 168/291 164/292
f 57/294 164/292 168/291
f 163/22 57/29 166/31
f 46/18 166/31 167/26
f 167/26 163/22 46/18
f 163/22 166/31 165/36
f 164/351 166/352 105/353
f 105/317 165/318 164/319
f 46/18 164/32 165/36
f 166/31 46/18 165/36
f 57/29 163/22 164/32
f 161/972 162/973 160/974
f 154/1154 155/1155 153/1156
f 160/974 159/975 161/972
f 57/29 157/41 58/35
f 157/41 158/45 58/35
f 160/974 162/973 159/975
f 156/1157 155/1155 154/1154
f 153/1156 155/1155 156/1157
f 154/1154 153/1156 156/1157
f 57/29 105/20 166/31
f 105/20 68/13 46/18
f 164/32 167/26 166/31
f 164/32 163/22 167/26
f 33/696 35/695 30/689
f 22/423 21/424 170/425
f 170/136 34/142 35/145
f 43/490 98/492 169/494
f 16/454 11/451 50/455
f 30/682 25/683 20/684
f 287/685 25/683 30/682
f 32/427 170/425 21/424
f 36/948 35/949 37/950
f 34/534 20/532 35/531
f 34/142 170/136 83/127
f 32/543 21/544 24/541
f 9/509 47/508 8/504
f 97/808 11/812 176/811
f 29/676 19/675 32/678
f 20/545 24/541 21/544
f 28/686 287/690 30/689
f 17/311 32/310 19/312
f 22/574 17/576 19/575
f 49/40 11/38 10/42
f 13/907 14/911 41/910
f 11/961 12/962 15/963
f 11/528 41/527 14/530
f 13/151 43/146 10/148
f 175/721 169/722 113/723
f 38/824 172/826 45/827
f 45/299 115/298 38/301
f 97/418 175/410 11/414
f 45/23 172/27 44/21
f 44/21 46/18 40/16
f 113/723 176/724 175/721
f 113/759 171/761 42/760
f 173/412 175/410 42/409
f 171/416 174/413 42/409
f 173/412 42/409 174/413
f 50/468 48/469 10/470
f 115/789 171/790 102/786
f 169/417 11/414 173/412
f 48/469 50/468 98/467
f 98/302 108/305 48/306
f 37/649 170/646 36/648
f 47/639 108/640 50/641
f 105/317 163/320 165/318
f 161/972 159/975 162/973
f 33/782 30/785 20/783
f 170/425 20/426 22/423
f 48/522 43/521 169/524
f 10/642 47/639 50/641
f 30/689 35/695 36/694
f 169/728 175/729 97/730
f 32/310 17/311 62/307
f 33/696 170/697 35/695
f 10/221 62/225 47/228
f 97/730 48/731 169/728
f 50/473 49/472 16/474
f 50/420 11/414 169/417
f 29/676 20/677 21/674
f 5/964 286/965 285/966
f 284/1093 281/1094 282/1095
f 282/1095 281/1094 283/1096
f 157/97 280/98 278/99
f 277/354 276/355 158/356
f 284/1093 282/1095 283/1096
f 277/345 263/346 274/347
f 280/342 263/343 278/344
f 158/651 279/652 277/653
f 278/357 276/355 277/354
f 280/1001 277/1002 275/1003
f 158/334 280/335 275/336
f 276/48 279/47 157/41
f 158/45 157/41 279/47
f 157/359 274/358 276/355
f 158/334 275/336 263/337
f 18/560 170/561 267/562
f 18/223 24/224 393/227
f 37/749 267/750 270/751
f 258/232 18/223 268/234
f 267/237 258/232 268/234
f 18/560 267/562 266/563
f 258/232 49/229 18/223
f 271/1025 264/1026 265/1027
f 393/603 391/604 392/605
f 20/426 390/428 393/429
f 286/965 5/964 118/967
f 391/621 20/622 18/623
f 393/971 286/965 3/970
f 270/751 268/752 37/749
f 170/828 18/829 392/830
f 271/1013 404/1014 264/1015
f 390/624 392/625 391/621
f 267/535 20/532 391/536
f 18/223 393/227 390/230
f 393/693 30/689 36/694
f 285/1017 393/1018 5/1019
f 388/692 389/691 30/689
f 3/970 5/964 393/971
f 116/233 286/231 24/224
f 285/1017 388/1020 393/1018
f 393/227 24/224 286/231
f 3/970 286/965 117/969
f 24/224 3/238 117/236
f 286/965 118/967 117/969
f 265/1027 404/1028 271/1025
f 44/21 387/24 46/18
f 49/40 44/21 11/38
f 44/21 49/40 403/43
f 403/276 46/277 401/278
f 403/296 396/293 46/290
f 170/646 37/649 269/650
f 387/549 402/550 211/551
f 49/40 211/39 402/28
f 403/1021 402/1022 396/1023
f 387/279 403/276 401/278
f 57/294 168/291 401/295
f 57/280 401/278 46/277
f 46/18 387/24 57/29
f 387/24 44/21 402/28
f 403/43 49/40 402/28
f 403/635 387/636 211/637
f 44/638 403/635 211/637
f 396/293 401/295 168/291
f 168/291 46/290 396/293
f 400/1130 399/1131 398/1132
f 400/1130 397/1133 399/1131
f 398/1132 397/1133 400/1130
f 398/1132 399/1131 397/1133
f 272/1126 273/1127 394/1128
f 394/1128 273/1127 395/1129
f 273/1127 272/1126 395/1129
f 272/1126 394/1128 395/1129
f 396/1023 402/1022 44/1024
f 211/39 396/34 44/21
f 387/1046 401/1047 396/1048
f 57/29 387/24 396/34
f 266/564 270/565 269/566
f 268/845 269/846 37/847
f 170/425 390/428 20/426
f 274/358 158/356 276/355
f 277/390 274/391 278/392
f 280/335 274/338 263/337
f 280/335 158/334 274/338
f 275/1003 277/1002 279/1004
f 275/336 279/340 276/339
f 157/393 278/392 274/391
f 263/337 276/339 278/341
f 268/718 266/719 267/720
f 404/1014 265/1016 264/1015
f 392/605 18/607 20/606
f 36/754 267/755 393/756
f 393/756 267/755 391/757
f 393/603 392/605 20/606
f 391/621 18/623 390/624
f 390/831 170/828 392/830
f 285/966 286/965 116/968
f 31/687 30/689 389/691
f 49/229 62/225 18/223
f 211/39 57/29 396/34
f 10/221 18/223 62/225
f 266/564 269/566 18/567
f 268/643 18/644 269/645
f 269/566 270/565 267/568
f 393/693 388/692 30/689
f 267/568 170/569 269/566
f 275/336 276/339 263/337
f 157/97 263/101 277/100
f 384/188 379/189 320/190
f 319/742 356/743 385/744
f 379/189 386/192 320/190
f 325/735 385/736 379/737
f 325/194 320/190 386/192
f 356/771 379/772 384/773
f 356/740 386/739 385/736
f 386/739 379/737 385/736
f 386/775 319/776 325/777
f 319/776 386/775 384/778
f 320/190 319/191 384/188
f 383/870 382/871 381/872
f 383/870 381/872 380/873
f 381/872 382/871 380/873
f 383/870 380/873 382/871
f 284/1093 283/1096 281/1094
f 364/874 363/875 365/876
f 277/100 280/98 157/97
f 157/41 57/29 211/39
f 370/267 367/268 49/269
f 258/160 211/161 370/162
f 349/66 211/67 367/68
f 376/887 375/888 378/889
f 211/39 49/40 368/49
f 377/890 376/887 378/889
f 377/890 375/888 376/887
f 373/891 371/892 374/893
f 371/892 373/891 372/894
f 374/893 372/894 373/891
f 374/893 371/892 372/894
f 369/270 49/269 367/268
f 49/229 258/232 370/235
f 369/51 368/49 49/40
f 367/52 370/50 368/49
f 258/70 349/66 369/76
f 349/53 368/49 369/51
f 258/70 194/72 349/66
f 384/741 386/739 356/740
f 356/771 325/774 379/772
f 319/738 385/736 325/735
f 258/70 367/68 211/67
f 268/752 270/751 266/753
f 378/889 375/888 377/890
f 349/53 367/52 368/49
f 368/49 370/50 211/39
f 258/271 369/270 367/268
f 360/895 359/896 361/897
f 240/363 157/364 324/365
f 325/795 356/796 320/797
f 365/876 363/875 362/877
f 358/898 360/895 361/897
f 358/898 359/896 360/895
f 240/363 324/365 357/366
f 240/86 350/87 211/88
f 320/797 356/796 350/798
f 357/403 320/404 240/405
f 350/746 356/743 357/745
f 319/191 320/190 211/193
f 157/669 323/670 324/671
f 211/88 324/91 323/94
f 157/41 211/39 320/44
f 354/923 355/924 353/925
f 322/1114 352/1115 321/1116
f 351/927 321/928 352/929
f 366/930 355/931 354/932
f 260/102 263/101 157/97
f 211/88 350/87 324/91
f 323/747 357/745 319/742
f 366/930 353/933 355/931
f 314/281 260/282 157/283
f 194/181 211/182 327/183
f 327/183 331/184 194/181
f 329/69 331/75 327/73
f 340/1105 336/1106 339/1107
f 194/163 331/164 326/165
f 326/74 329/69 194/72
f 349/66 194/72 329/69
f 332/1111 337/1109 334/1110
f 337/1109 339/1107 334/1110
f 211/67 349/66 329/69
f 326/74 330/78 329/69
f 331/75 329/69 330/78
f 332/1111 338/1113 335/1112
f 340/1105 338/1113 337/1109
f 335/1112 338/1113 340/1105
f 341/1118 346/1119 345/1120
f 346/1119 342/1121 345/1120
f 347/1122 344/1123 348/1124
f 341/1118 345/1120 342/1121
f 346/1119 341/1118 342/1121
f 333/1108 340/1105 339/1107
f 335/1112 337/1109 332/1111
f 334/1110 339/1107 336/1106
f 338/1113 332/1111 339/1107
f 337/1109 338/1113 339/1107
f 340/1105 333/1108 335/1112
f 336/1106 340/1105 337/1109
f 335/1112 333/1108 336/1106
f 337/1109 335/1112 336/1106
f 333/1108 334/1110 336/1106
f 334/1110 333/1108 332/1111
f 333/1108 339/1107 332/1111
f 326/321 211/322 330/323
f 330/78 328/71 331/75
f 328/71 329/69 327/73
f 211/67 329/69 328/71
f 326/165 331/164 328/166
f 328/166 327/167 326/165
f 330/323 211/322 328/324
f 326/165 327/167 211/168
f 343/1125 348/1124 344/1123
f 347/1122 343/1125 344/1123
f 347/1122 348/1124 343/1125
f 356/743 319/742 357/745
f 323/670 320/672 357/673
f 322/1114 351/1117 352/1115
f 364/951 362/952 363/953
f 350/87 240/86 320/90
f 364/951 365/954 362/952
f 211/88 323/94 319/96
f 320/672 323/670 157/669
f 366/926 354/923 353/925
f 322/1114 321/1116 351/1117
f 350/746 357/745 324/748
f 358/955 361/956 359/957
f 157/364 240/363 314/367
f 239/286 318/288 315/284
f 313/958 316/959 260/960
f 314/1089 316/1090 239/1091
f 316/289 317/287 315/284
f 313/1092 239/1091 316/1090
f 316/289 315/284 318/288
f 318/288 239/286 260/282
f 317/287 313/285 315/284
f 260/282 315/284 313/285
f 314/367 313/368 317/369
f 317/369 316/370 314/367
f 315/284 314/281 239/286
f 260/282 314/281 315/284
f 314/367 240/363 313/368
f 219/104 260/102 216/105
f 316/289 318/288 260/282
f 263/101 260/102 181/103
f 259/111 261/108 242/113
f 238/110 259/111 242/113
f 240/86 211/88 260/89
f 262/109 261/108 259/111
f 238/110 261/108 260/102
f 260/102 259/111 238/110
f 216/105 260/102 261/108
f 242/484 216/485 262/486
f 238/54 216/55 241/56
f 241/112 261/108 238/110
f 260/102 262/109 259/111
f 238/54 242/60 262/58
f 216/105 261/108 262/109
f 211/88 262/93 260/89
f 244/976 254/977 252/978
f 255/984 249/985 247/986
f 194/72 258/70 122/77
f 257/982 250/980 244/976
f 257/982 253/983 251/981
f 257/982 252/978 250/980
f 254/977 253/983 243/979
f 244/976 253/983 257/982
f 247/986 245/989 256/990
f 245/989 255/984 237/987
f 255/993 248/994 249/995
f 255/984 247/986 237/987
f 248/991 236/992 249/985
f 236/992 237/987 256/990
f 236/992 246/988 245/989
f 249/985 236/992 256/990
f 249/985 256/990 246/988
f 255/993 245/996 248/994
f 248/991 245/989 247/986
f 237/987 247/986 256/990
f 246/988 248/991 247/986
f 245/989 246/988 256/990
f 247/986 249/985 246/988
f 245/989 237/987 236/992
f 254/977 250/980 253/983
f 244/976 243/979 253/983
f 243/979 257/982 251/981
f 251/981 254/977 243/979
f 252/978 243/979 244/976
f 250/980 252/978 251/981
f 252/978 257/982 243/979
f 251/981 253/983 250/980
f 254/977 244/976 250/980
f 242/484 241/487 216/485
f 261/108 241/112 242/113
f 262/58 211/57 238/54
f 240/86 239/92 313/95
f 260/89 239/92 240/86
f 219/104 181/103 260/102
f 211/57 216/55 238/54
f 254/977 251/981 252/978
f 248/991 246/988 236/992
f 233/1134 232/1135 235/1136
f 227/1146 220/1147 224/1148
f 235/997 234/998 233/999
f 219/1 218/2 214/3
f 230/1097 229/1098 231/1099
f 219/104 216/105 218/107
f 232/1000 234/998 235/997
f 233/1134 234/1137 232/1135
f 222/1101 220/1102 225/1103
f 231/1099 228/1100 230/1097
f 230/1005 228/1006 229/1007
f 231/1008 229/1007 228/1006
f 223/1151 227/1146 222/1153
f 221/1152 222/1153 227/1146
f 221/1152 225/1149 226/1150
f 227/1146 225/1149 221/1152
f 223/1151 222/1153 224/1148
f 226/1150 220/1147 227/1146
f 225/1149 220/1147 226/1150
f 222/1101 225/1103 224/1104
f 222/1153 221/1152 220/1147
f 225/1149 227/1146 224/1148
f 221/1152 223/1151 220/1147
f 220/1147 223/1151 224/1148
f 226/1150 223/1151 221/1152
f 226/1150 227/1146 223/1151
f 219/437 214/438 217/439
f 218/195 216/196 217/197
f 181/103 219/104 217/106
f 215/61 179/59 218/63
f 214/3 218/2 179/4
f 216/196 181/198 217/197
f 211/57 179/59 216/55
f 214/64 181/62 215/61
f 179/4 181/5 214/3
f 216/55 215/61 181/62
f 218/63 217/65 215/61
f 214/64 215/61 217/65
f 216/55 179/59 215/61
f 194/256 183/257 195/258
f 213/272 186/273 212/274
f 212/274 179/275 213/272
f 183/260 212/261 186/262
f 194/181 186/185 211/182
f 211/182 186/185 213/186
f 194/175 179/176 212/177
f 182/263 186/262 194/264
f 182/263 195/265 213/266
f 211/182 213/186 195/187
f 183/313 213/314 179/315
f 195/114 183/115 211/116
f 1/82 179/84 205/79
f 2/83 180/80 208/85
f 194/256 212/259 183/257
f 210/1038 2/1039 185/1040
f 206/178 180/179 179/176
f 2/852 207/853 122/854
f 208/1043 185/1040 2/1039
f 180/1049 122/1050 209/1051
f 122/1050 207/1053 209/1051
f 207/1042 210/1038 208/1043
f 207/1042 208/1043 180/1045
f 209/1041 210/1038 185/1040
f 210/1038 209/1041 208/1043
f 209/1051 207/1053 184/1054
f 184/1044 208/1043 209/1041
f 2/1039 210/1038 207/1042
f 180/1049 209/1051 185/1052
f 185/1052 207/1053 180/1049
f 180/179 206/178 122/180
f 194/72 122/77 205/79
f 180/80 1/82 194/72
f 179/856 180/857 205/858
f 194/360 1/361 206/362
f 194/72 205/79 180/80
f 204/1066 203/1067 201/1068
f 204/1066 201/1068 202/1069
f 203/1067 202/1069 201/1068
f 202/1069 203/1067 204/1066
f 196/1070 197/1071 199/1072
f 199/1072 198/1073 196/1070
f 199/1074 197/1075 198/1076
f 188/1078 187/1079 189/1080
f 189/1080 200/1081 188/1078
f 189/1082 187/1083 200/1084
f 193/1138 192/1139 190/1140
f 191/1141 190/1140 192/1139
f 192/1142 193/1143 191/1144
f 191/1144 193/1143 190/1145
f 185/1052 184/1054 207/1053
f 208/1043 184/1044 185/1040
f 182/316 213/314 183/313
f 186/262 182/263 183/260
f 179/117 211/116 183/115
f 179/176 194/175 206/178
f 122/77 206/81 205/79
f 205/79 206/81 1/82
f 196/1077 198/1076 197/1075
f 195/265 182/263 194/264
f 187/1083 188/1085 200/1084
f 121/855 2/852 122/854
f 1/82 180/80 2/83
f 106/169 128/172 129/174
f 116/233 24/224 117/236
f 127/1086 120/1087 119/1088
f 128/792 123/793 296/794
usemtl Tile_+032_+023_L13_untextured
