mtllib Tile_+032_+023_L19_000033.mtl
v 6.34601256e+03 5.62413030e+03 1.96387798e+01
v 6.34622531e+03 5.61852865e+03 1.98607651e+01
v 6.34812701e+03 5.59469660e+03 2.03251320e+01
v 6.34898459e+03 5.59920221e+03 2.00847241e+01
v 6.34596134e+03 5.60716440e+03 2.01825243e+01
v 6.34794362e+03 5.60302040e+03 2.01113303e+01
v 6.34926053e+03 5.61184699e+03 1.97398718e+01
v 6.36041929e+03 5.60998060e+03 4.02392600e+00
v 6.36098377e+03 5.61047830e+03 3.99976984e+00
v 6.35784997e+03 5.61348864e+03 2.04318399e+00
v 6.35668953e+03 5.61651122e+03 2.10951463e+00
v 6.36127601e+03 5.61012718e+03 4.73648079e+00
v 6.36270078e+03 5.60728314e+03 3.55651342e+00
v 6.36273066e+03 5.61021664e+03 2.24798478e+00
v 6.36287048e+03 5.60477972e+03 5.78803946e+00
v 6.36265434e+03 5.60534246e+03 4.52944557e+00
v 6.35816607e+03 5.60875975e+03 3.68969717e+00
v 6.36039490e+03 5.60740319e+03 4.27726401e+00
v 6.36321405e+03 5.60310772e+03 6.59759792e+00
v 6.36316046e+03 5.60340709e+03 4.86990246e+00
v 6.36365757e+03 5.60171147e+03 6.33639308e+00
v 6.35665597e+03 5.61230731e+03 2.47586517e+00
v 6.35610396e+03 5.61520192e+03 3.97550930e+00
v 6.36222143e+03 5.60658956e+03 4.67446944e+00
v 6.36184140e+03 5.60570658e+03 5.23689166e+00
v 6.36099121e+03 5.60624345e+03 5.01323927e+00
v 6.36114710e+03 5.60491520e+03 4.67658377e+00
v 6.36104307e+03 5.60739258e+03 4.61279791e+00
v 6.35898442e+03 5.60404821e+03 1.12965852e+01
v 6.35965384e+03 5.60122219e+03 1.14937367e+01
v 6.35782648e+03 5.60236048e+03 9.51451292e+00
v 6.35760925e+03 5.60061613e+03 9.70472561e+00
v 6.35664928e+03 5.60132934e+03 7.01182289e+00
v 6.35691494e+03 5.60135847e+03 8.63684214e+00
v 6.35769402e+03 5.60086716e+03 1.02973192e+01
v 6.35631248e+03 5.60492656e+03 7.11947379e+00
v 6.35586579e+03 5.60679371e+03 6.77624337e+00
v 6.35713690e+03 5.60374317e+03 6.78772609e+00
v 6.36420710e+03 5.60388586e+03 3.82145205e+00
v 6.35821805e+03 5.59665110e+03 8.60859497e+00
v 6.35749733e+03 5.59886008e+03 7.44244112e+00
v 6.36001607e+03 5.60090245e+03 7.11367455e+00
v 6.35914273e+03 5.60324700e+03 7.14799574e+00
v 6.36014784e+03 5.60107335e+03 6.01299560e+00
v 6.36574699e+03 5.59436880e+03 8.65179639e+00
v 6.36525912e+03 5.59619219e+03 8.38317142e+00
v 6.36586521e+03 5.59467548e+03 8.19098890e+00
v 6.36251930e+03 5.60126933e+03 6.49263738e+00
v 6.36283684e+03 5.60019155e+03 6.81282331e+00
v 6.35823843e+03 5.59773800e+03 1.03869630e+01
v 6.35757341e+03 5.60047364e+03 6.40889041e+00
v 6.35704435e+03 5.60819948e+03 7.52614600e+00
v 6.35664409e+03 5.60849945e+03 8.58885812e+00
v 6.35894726e+03 5.60002324e+03 6.51568883e+00
v 6.35726213e+03 5.61001793e+03 9.86075307e+00
v 6.35650255e+03 5.61267744e+03 8.72583292e+00
v 6.36147171e+03 5.60879227e+03 4.94710308e+00
v 6.36253895e+03 5.61044516e+03 5.40008201e+00
v 6.36241765e+03 5.60984985e+03 5.23072255e+00
v 6.36186599e+03 5.60349673e+03 5.61045110e+00
v 6.35828032e+03 5.60751510e+03 6.95382236e+00
v 6.35571315e+03 5.60776028e+03 7.29435035e+00
v 6.35897165e+03 5.59808974e+03 1.15190076e+01
v 6.36445621e+03 5.59404030e+03 8.67381344e+00
v 6.36497689e+03 5.59594398e+03 8.91589084e+00
v 6.35871224e+03 5.59594395e+03 7.66263803e+00
v 6.35796984e+03 5.59681837e+03 7.29450126e+00
v 6.35615118e+03 5.59505715e+03 1.95368160e+01
v 6.36480993e+03 5.59680688e+03 7.80717934e+00
v 6.36398662e+03 5.59626548e+03 7.84795830e+00
v 6.35894547e+03 5.59852429e+03 1.60203110e+01
v 6.35861614e+03 5.59479655e+03 1.68751180e+01
v 6.35363634e+03 5.61646726e+03 6.19195839e+00
v 6.35456738e+03 5.61632449e+03 6.51042838e+00
v 6.35313125e+03 5.61710790e+03 7.75171695e+00
v 6.35935152e+03 5.60349394e+03 5.11582695e+00
v 6.36456807e+03 5.59818551e+03 7.80715581e+00
v 6.36424816e+03 5.59843839e+03 7.12833476e+00
v 6.36469386e+03 5.59830958e+03 6.61991378e+00
v 6.36961201e+03 5.61086884e+03 2.24305674e+00
v 6.36530568e+03 5.60693545e+03 2.35259859e+00
v 6.36126598e+03 5.61089669e+03 2.89947647e+00
v 6.36064152e+03 5.61317663e+03 2.09086786e+00
v 6.36699557e+03 5.59445409e+03 7.63630644e+00
v 6.36375427e+03 5.59777151e+03 7.79559552e+00
v 6.35791998e+03 5.62482187e+03 1.79620037e+00
v 6.36446479e+03 5.62202408e+03 2.19100576e+00
v 6.37349314e+03 5.61726975e+03 2.27234191e+00
v 6.36039524e+03 5.62017071e+03 1.93938806e+00
v 6.36571847e+03 5.61436644e+03 2.11371450e+00
v 6.36792228e+03 5.60764246e+03 2.36736101e+00
v 6.36388226e+03 5.60711231e+03 2.53109899e+00
v 6.36460489e+03 5.60836734e+03 2.72079707e+00
v 6.35880683e+03 5.61206787e+03 2.40850145e+00
v 6.36447194e+03 5.61118942e+03 2.20161856e+00
v 6.36358089e+03 5.61376997e+03 2.16354911e+00
v 6.35714821e+03 5.61247201e+03 2.06355779e+00
v 6.35774342e+03 5.60929669e+03 3.32659114e+00
v 6.35692832e+03 5.61200754e+03 4.69121962e+00
v 6.36020072e+03 5.61209949e+03 3.25054595e+00
v 6.36233380e+03 5.61175730e+03 2.21035010e+00
v 6.36856816e+03 5.60546889e+03 2.45047103e+00
v 6.36847594e+03 5.60728833e+03 2.78096511e+00
v 6.36345100e+03 5.60785523e+03 2.33282478e+00
v 6.36044457e+03 5.60909291e+03 4.52408979e+00
v 6.36055056e+03 5.61133332e+03 3.59973899e+00
v 6.36003419e+03 5.61095162e+03 3.65589740e+00
v 6.35816674e+03 5.60757313e+03 5.22661432e+00
v 6.35735337e+03 5.61093433e+03 6.70150239e+00
v 6.35919342e+03 5.61119021e+03 2.86218053e+00
v 6.36114303e+03 5.61020603e+03 3.49564091e+00
v 6.36301436e+03 5.60967272e+03 4.24763767e+00
v 6.36518577e+03 5.60228215e+03 2.64425256e+00
v 6.36577102e+03 5.60565916e+03 2.61227521e+00
v 6.36756624e+03 5.60100583e+03 2.48463748e+00
v 6.36814312e+03 5.59614009e+03 2.62678787e+00
v 6.36710150e+03 5.59503519e+03 2.84229085e+00
v 6.36617563e+03 5.59796261e+03 2.80771103e+00
v 6.36551408e+03 5.60051489e+03 2.75251548e+00
v 6.36437787e+03 5.60503774e+03 2.52057029e+00
v 6.35569965e+03 5.61680709e+03 3.16214891e+00
v 6.35601291e+03 5.62009802e+03 2.14310779e+00
v 6.36236096e+03 5.60960977e+03 3.25963347e+00
v 6.36377520e+03 5.60586673e+03 3.94175666e+00
v 6.35702014e+03 5.61057994e+03 3.36746901e+00
v 6.35728448e+03 5.61077988e+03 2.88824959e+00
v 6.35279106e+03 5.62143822e+03 6.04381805e+00
v 6.35252148e+03 5.62000093e+03 6.20107275e+00
v 6.36191624e+03 5.60834438e+03 4.43654577e+00
v 6.36804181e+03 5.59367968e+03 2.65863437e+00
v 6.36378871e+03 5.60047783e+03 6.42402888e+00
v 6.36397138e+03 5.59994518e+03 7.03632580e+00
v 6.36007326e+03 5.59882118e+03 6.15759759e+00
v 6.36075441e+03 5.59821853e+03 7.33568836e+00
v 6.36560461e+03 5.60028655e+03 5.06782035e+00
v 6.35959267e+03 5.60309693e+03 6.89309453e+00
v 6.34799549e+03 5.61698478e+03 1.96978781e+01
v 6.34908629e+03 5.61578048e+03 1.91126375e+01
v 6.35312829e+03 5.61405140e+03 1.68295220e+01
v 6.35165157e+03 5.61958904e+03 1.68340026e+01
v 6.37429791e+03 5.62523762e+03 2.21259570e+00
v 6.37224889e+03 5.60713584e+03 2.46497419e+00
v 6.36907149e+03 5.60685720e+03 2.44119828e+00
v 6.37076298e+03 5.60230187e+03 2.41585720e+00
v 6.36906988e+03 5.60450039e+03 2.73323267e+00
v 6.37505995e+03 5.59812615e+03 2.49074472e+00
v 6.37135620e+03 5.59756255e+03 2.60027941e+00
v 6.35170733e+03 5.61926271e+03 1.39127587e+01
v 6.35244871e+03 5.61708231e+03 1.40404430e+01
v 6.35235744e+03 5.61711978e+03 1.22016183e+01
v 6.35352130e+03 5.62413077e+03 2.89056344e+00
v 6.35463904e+03 5.62340753e+03 2.03856187e+00
v 6.35490282e+03 5.61904971e+03 5.13679341e+00
v 6.35414869e+03 5.62250207e+03 3.32954186e+00
v 6.35529172e+03 5.60733186e+03 7.73415488e+00
v 6.35786686e+03 5.60786942e+03 1.11372047e+01
v 6.35334336e+03 5.61657632e+03 1.06634860e+01
v 6.35515173e+03 5.61771967e+03 1.11954391e+01
v 6.35216574e+03 5.61847113e+03 1.02139937e+01
v 6.35527883e+03 5.60637778e+03 7.26670621e+00
v 6.35441277e+03 5.60086699e+03 1.67460527e+01
v 6.35406480e+03 5.60236081e+03 1.94957699e+01
v 6.35506405e+03 5.60739004e+03 1.67979420e+01
v 6.35623076e+03 5.60490548e+03 1.60680855e+01
v 6.34759870e+03 5.62471250e+03 1.95352331e+01
v 6.35221919e+03 5.60886487e+03 1.95180036e+01
v 6.35510428e+03 5.61778067e+03 8.60252325e+00
v 6.35448701e+03 5.61709324e+03 7.63376427e+00
v 6.35864854e+03 5.59778396e+03 6.70219529e+00
v 6.36052681e+03 5.59731841e+03 7.80556204e+00
v 6.36169045e+03 5.59729937e+03 6.94928839e+00
v 6.35672985e+03 5.60509907e+03 8.72420982e+00
v 6.35769905e+03 5.59974373e+03 1.04210276e+01
v 6.35918028e+03 5.59854617e+03 6.66968584e+00
v 6.35431450e+03 5.61693525e+03 5.94936333e+00
v 6.35518125e+03 5.61705700e+03 6.88305033e+00
v 6.35290454e+03 5.62358265e+03 6.91804193e+00
v 6.35368235e+03 5.62341001e+03 6.88691224e+00
v 6.35539223e+03 5.61762296e+03 6.95572822e+00
v 6.35478247e+03 5.61690901e+03 7.01399806e+00
v 6.35234614e+03 5.61711537e+03 1.62525265e+01
v 6.35507799e+03 5.61785776e+03 1.60782862e+01
v 6.35603165e+03 5.61467922e+03 1.60885720e+01
v 6.35125540e+03 5.62043324e+03 8.81940361e+00
v 6.35027813e+03 5.62424841e+03 9.29982739e+00
v 6.35243731e+03 5.61709708e+03 9.25315511e+00
v 6.35221423e+03 5.61703563e+03 8.81775297e+00
v 6.35177640e+03 5.61883399e+03 8.51669584e+00
v 6.35338640e+03 5.62355854e+03 7.07833795e+00
v 6.35301178e+03 5.62514329e+03 7.06096112e+00
v 6.35473631e+03 5.61734249e+03 6.76645054e+00
v 6.35076724e+03 5.62288624e+03 7.48924563e+00
v 6.35156370e+03 5.62265415e+03 6.08186683e+00
v 6.35043634e+03 5.62426013e+03 6.00236635e+00
v 6.35585872e+03 5.61623506e+03 6.79563906e+00
v 6.35760171e+03 5.60575306e+03 7.11684021e+00
v 6.35489167e+03 5.61777123e+03 7.13681954e+00
v 6.35417456e+03 5.62019745e+03 7.03237568e+00
v 6.35613915e+03 5.61382385e+03 7.25699245e+00
v 6.35724620e+03 5.60962949e+03 7.69680349e+00
v 6.35964978e+03 5.60937625e+03 3.39740759e+00
v 6.35543860e+03 5.61926863e+03 3.03052191e+00
v 6.35455327e+03 5.62097259e+03 2.83076196e+00
v 6.35351517e+03 5.62002015e+03 6.08789199e+00
v 6.35548197e+03 5.61740114e+03 6.64743380e+00
v 6.35684727e+03 5.60291403e+03 7.40347797e+00
v 6.36240797e+03 5.59960091e+03 6.17556104e+00
v 6.36342687e+03 5.59825892e+03 7.06506264e+00
v 6.35249334e+03 5.60161808e+03 1.96419251e+01
v 6.35354972e+03 5.59775056e+03 1.97091064e+01
v 6.35641790e+03 5.59391194e+03 1.67591529e+01
v 6.35872322e+03 5.59615523e+03 1.62118061e+01
v 6.35548137e+03 5.59711478e+03 1.66770377e+01
v 6.35757741e+03 5.59851122e+03 1.68933383e+01
v 6.35645664e+03 5.60259469e+03 1.68281449e+01
v 6.35482727e+03 5.59980220e+03 1.95440244e+01
v 6.35346197e+03 5.60085333e+03 1.91564080e+01
v 6.35460610e+03 5.59453486e+03 1.96452510e+01
v 6.35477594e+03 5.59552266e+03 1.90169626e+01
v 6.35241820e+03 5.60773758e+03 1.67610067e+01
v 6.35346565e+03 5.60896974e+03 1.67626156e+01
v 6.35436064e+03 5.60966974e+03 1.69257574e+01
v 6.35253496e+03 5.61128533e+03 1.67146103e+01
v 6.35313769e+03 5.60520869e+03 1.66793239e+01
v 6.35199365e+03 5.60934753e+03 1.74304245e+01
v 6.34985789e+03 5.61665380e+03 1.68217161e+01
v 6.35001378e+03 5.61627549e+03 1.94761495e+01
v 6.35002979e+03 5.61215036e+03 1.90467916e+01
v 6.35020314e+03 5.60999543e+03 1.96256078e+01
v 6.35251892e+03 5.61009288e+03 1.72938605e+01
v 6.35488126e+03 5.60972287e+03 1.60995551e+01
v 6.35367933e+03 5.61353547e+03 1.60215654e+01
v 6.35774660e+03 5.60875454e+03 1.60923578e+01
v 6.35703617e+03 5.60216757e+03 1.60437981e+01
v 6.35081878e+03 5.61328204e+03 1.68130664e+01
v 6.35161868e+03 5.61057073e+03 1.67937389e+01
v 6.34966059e+03 5.61763881e+03 1.70924861e+01
v 6.35007337e+03 5.61730351e+03 1.91106333e+01
v 6.34949680e+03 5.61792670e+03 1.94808926e+01
v 6.34765485e+03 5.62413086e+03 1.68078079e+01
v 6.34976358e+03 5.61368783e+03 1.90362668e+01
v 6.34899812e+03 5.61939511e+03 1.67858599e+01
v 6.35123987e+03 5.61211980e+03 1.94699180e+01
v 6.35232955e+03 5.60484660e+03 1.91068252e+01
v 6.35128383e+03 5.60771561e+03 1.90221190e+01
v 6.35054499e+03 5.60788855e+03 1.97251191e+01
v 6.34825548e+03 5.61835418e+03 1.92262271e+01
v 6.35077378e+03 5.61080367e+03 1.91122620e+01
v 6.34686964e+03 5.62292909e+03 1.92535193e+01
v 6.35414416e+03 5.59821026e+03 1.90524818e+01
v 6.36626841e+03 5.59738030e+03 6.49399902e+00
v 6.36196560e+03 5.60860453e+03 3.73759415e+00
v 6.35949571e+03 5.60534742e+03 4.31525616e+00
v 6.36237841e+03 5.60373459e+03 6.03196348e+00
v 6.36187392e+03 5.60479160e+03 5.87207675e+00
v 6.36425030e+03 5.60209080e+03 4.70819872e+00
v 6.35862326e+03 5.60707276e+03 4.48407112e+00
v 6.36001485e+03 5.60236688e+03 5.38655976e+00
v 6.36060448e+03 5.59938222e+03 6.02007291e+00
v 6.36063417e+03 5.60022162e+03 6.25362982e+00
v 6.36411199e+03 5.60017073e+03 6.11129626e+00
v 6.36523848e+03 5.59965292e+03 6.04229861e+00
v 6.36120973e+03 5.59840697e+03 6.32440670e+00
v 6.36191434e+03 5.60185547e+03 6.04496860e+00
v 6.36226796e+03 5.60294969e+03 6.41437675e+00
v 6.36200047e+03 5.59575397e+03 7.87295178e+00
v 6.36186674e+03 5.59612620e+03 7.24822966e+00
v 6.36518717e+03 5.59658890e+03 7.26138500e+00
v 6.36194647e+03 5.59400360e+03 9.09991397e+00
v 6.36136922e+03 5.59641412e+03 8.59908726e+00
v 6.36048747e+03 5.59583359e+03 8.87535704e+00
v 6.36043622e+03 5.59380245e+03 9.20675249e+00
v 6.35882512e+03 5.59500013e+03 8.43128024e+00
v 6.35887362e+03 5.59358717e+03 9.55777561e+00
v 6.35854579e+03 5.60061781e+03 1.18845591e+01
v 6.35746099e+03 5.60047116e+03 1.61645521e+01
v 6.35856202e+03 5.60072027e+03 1.60016312e+01
v 6.35989025e+03 5.60129024e+03 1.61036676e+01
v 6.35979134e+03 5.59583883e+03 1.60517274e+01
v 6.35794755e+03 5.59860210e+03 1.62039907e+01
v 6.35862256e+03 5.60041254e+03 1.32407767e+01
v 6.35876031e+03 5.60049628e+03 1.52104944e+01
v 6.36004982e+03 5.60110786e+03 1.47983441e+01
v 6.36009463e+03 5.60099078e+03 1.26505168e+01
v 6.35930499e+03 5.60298105e+03 1.39303662e+01
v 6.34350000e+03 5.61195167e+03 2.02500499e+01
v 6.34350000e+03 5.61161323e+03 2.02607871e+01
v 6.34350000e+03 5.59559821e+03 2.06783670e+01
v 6.34350000e+03 5.60435537e+03 2.04465634e+01
v 6.34350000e+03 5.60622639e+03 2.04052502e+01
v 6.34350000e+03 5.60088920e+03 2.05317318e+01
v 6.34350000e+03 5.62245869e+03 1.99114790e+01
v 6.34350000e+03 5.60015208e+03 2.05440036e+01
v 6.34350000e+03 5.61238172e+03 2.02404502e+01
v 6.34350000e+03 5.62072375e+03 1.99855129e+01
v 6.34350000e+03 5.61215818e+03 2.02438308e+01
v 6.37525000e+03 5.59418592e+03 2.53427260e+00
v 6.37525000e+03 5.59515209e+03 2.52230886e+00
v 6.37525000e+03 5.61345701e+03 2.47549905e+00
v 6.37525000e+03 5.60964347e+03 2.37120370e+00
v 6.37525000e+03 5.61554727e+03 2.28545593e+00
v 6.37525000e+03 5.61709875e+03 2.29264062e+00
v 6.37525000e+03 5.61346944e+03 2.47514718e+00
v 6.37525000e+03 5.61345964e+03 2.47551455e+00
v 6.37525000e+03 5.60279814e+03 2.54673353e+00
v 6.37525000e+03 5.60424079e+03 2.54851811e+00
v 6.37525000e+03 5.60787509e+03 2.46185448e+00
v 6.37525000e+03 5.59377822e+03 2.54306829e+00
v 6.37525000e+03 5.59792638e+03 2.51227073e+00
v 6.37525000e+03 5.59802523e+03 2.49881474e+00
v 6.37525000e+03 5.59872425e+03 2.50254716e+00
v 6.37525000e+03 5.62440190e+03 2.26536289e+00
v 6.37525000e+03 5.62059261e+03 2.23245468e+00
v 6.37525000e+03 5.62324420e+03 2.21539316e+00
v 6.37525000e+03 5.61846513e+03 2.27309854e+00
v 6.34501296e+03 5.59350000e+03 2.06058487e+01
v 6.34609774e+03 5.59350000e+03 2.05243406e+01
v 6.34759298e+03 5.59350000e+03 2.03925831e+01
v 6.35899257e+03 5.59350000e+03 1.68916754e+01
v 6.35935302e+03 5.59350000e+03 1.63534533e+01
v 6.36735062e+03 5.59350000e+03 5.56453642e+00
v 6.36732499e+03 5.59350000e+03 7.48089253e+00
v 6.36045531e+03 5.59350000e+03 1.60645729e+01
v 6.36038805e+03 5.59350000e+03 1.43818186e+01
v 6.35699513e+03 5.59350000e+03 1.67881351e+01
v 6.35653862e+03 5.59350000e+03 1.67516877e+01
v 6.36033223e+03 5.59350000e+03 1.14491351e+01
v 6.35963476e+03 5.59350000e+03 1.61553688e+01
v 6.35947886e+03 5.59350000e+03 1.61802853e+01
v 6.36654289e+03 5.59350000e+03 8.10280741e+00
v 6.36619092e+03 5.59350000e+03 8.29167912e+00
v 6.36597172e+03 5.59350000e+03 8.82989233e+00
v 6.36591086e+03 5.59350000e+03 8.95248445e+00
v 6.36297789e+03 5.59350000e+03 8.51627416e+00
v 6.36459150e+03 5.59350000e+03 8.67423375e+00
v 6.36518752e+03 5.59350000e+03 8.90346294e+00
v 6.36466008e+03 5.59350000e+03 8.85201254e+00
v 6.35892755e+03 5.59350000e+03 9.50989767e+00
v 6.35890467e+03 5.59350000e+03 9.57340677e+00
v 6.35894490e+03 5.59350000e+03 9.61647602e+00
v 6.36265248e+03 5.59350000e+03 8.57526907e+00
v 6.36197350e+03 5.59350000e+03 8.97588918e+00
v 6.36174126e+03 5.59350000e+03 8.89502039e+00
v 6.36073882e+03 5.59350000e+03 9.02744493e+00
v 6.35931734e+03 5.59350000e+03 8.61166466e+00
v 6.36031137e+03 5.59350000e+03 9.12695663e+00
v 6.36273703e+03 5.59350000e+03 8.47243025e+00
v 6.36052424e+03 5.59350000e+03 9.17788130e+00
v 6.36273667e+03 5.59350000e+03 8.45714605e+00
v 6.36279656e+03 5.59350000e+03 8.47550078e+00
v 6.36749782e+03 5.59350000e+03 2.79765283e+00
v 6.36801609e+03 5.59350000e+03 2.67102682e+00
v 6.36721921e+03 5.59350000e+03 7.78041873e+00
v 6.35531743e+03 5.59350000e+03 1.91819883e+01
v 6.35485105e+03 5.59350000e+03 1.96714697e+01
v 6.35654916e+03 5.59350000e+03 1.73369568e+01
v 6.35659805e+03 5.59350000e+03 1.95199955e+01
v 6.35538459e+03 5.59350000e+03 1.91699158e+01
v 6.35259959e+03 5.59350000e+03 1.99264834e+01
v 6.35304758e+03 5.59350000e+03 1.98688665e+01
v 6.34828826e+03 5.59350000e+03 2.03400689e+01
v 6.35152851e+03 5.59350000e+03 2.00303904e+01
v 6.37018871e+03 5.59350000e+03 2.67059411e+00
v 6.36926920e+03 5.59350000e+03 2.67121332e+00
v 6.37519819e+03 5.59350000e+03 2.55091766e+00
v 6.37271408e+03 5.59350000e+03 2.63950107e+00
v 6.36825933e+03 5.59350000e+03 2.66282770e+00
v 6.34399885e+03 5.59350000e+03 2.06959525e+01
v 6.34350000e+03 5.59350000e+03 2.07463522e+01
v 6.37513181e+03 5.59350000e+03 2.55328472e+00
v 6.37525000e+03 5.59350000e+03 2.55016889e+00
v 6.34491144e+03 5.62525000e+03 1.97176047e+01
v 6.34567836e+03 5.62525000e+03 1.96392011e+01
v 6.34628144e+03 5.62525000e+03 1.92420942e+01
v 6.35773793e+03 5.62525000e+03 1.78109647e+00
v 6.35789679e+03 5.62525000e+03 1.81284931e+00
v 6.36153075e+03 5.62525000e+03 2.01117328e+00
v 6.36483011e+03 5.62525000e+03 2.11343905e+00
v 6.35807767e+03 5.62525000e+03 1.92929213e+00
v 6.35802953e+03 5.62525000e+03 1.80212445e+00
v 6.35001840e+03 5.62525000e+03 1.67930434e+01
v 6.34887838e+03 5.62525000e+03 1.67958727e+01
v 6.34678880e+03 5.62525000e+03 1.92781252e+01
v 6.34744298e+03 5.62525000e+03 1.95282398e+01
v 6.34734693e+03 5.62525000e+03 1.67941485e+01
v 6.35000349e+03 5.62525000e+03 1.13334457e+01
v 6.35282641e+03 5.62525000e+03 7.08199086e+00
v 6.35296792e+03 5.62525000e+03 7.06237421e+00
v 6.35294740e+03 5.62525000e+03 6.98829393e+00
v 6.35129143e+03 5.62525000e+03 5.99828800e+00
v 6.35126452e+03 5.62525000e+03 6.00017640e+00
v 6.35406192e+03 5.62525000e+03 2.31390739e+00
v 6.35456999e+03 5.62525000e+03 1.88979787e+00
v 6.35305685e+03 5.62525000e+03 5.02538583e+00
v 6.35305534e+03 5.62525000e+03 5.13595523e+00
v 6.35337815e+03 5.62525000e+03 2.78378717e+00
v 6.35348958e+03 5.62525000e+03 2.64223475e+00
v 6.35688747e+03 5.62525000e+03 1.80070757e+00
v 6.35118065e+03 5.62525000e+03 5.99759860e+00
v 6.34990466e+03 5.62525000e+03 6.11126089e+00
v 6.35307788e+03 5.62525000e+03 6.93604511e+00
v 6.35298877e+03 5.62525000e+03 7.05500159e+00
v 6.35258240e+03 5.62525000e+03 6.99942517e+00
v 6.35312938e+03 5.62525000e+03 6.81803192e+00
v 6.35305052e+03 5.62525000e+03 5.27174801e+00
v 6.35317311e+03 5.62525000e+03 6.81576716e+00
v 6.35134391e+03 5.62525000e+03 6.04762263e+00
v 6.35316365e+03 5.62525000e+03 6.89533605e+00
v 6.34997176e+03 5.62525000e+03 9.13126862e+00
v 6.34990298e+03 5.62525000e+03 8.72435426e+00
v 6.34979814e+03 5.62525000e+03 6.53992335e+00
v 6.35001065e+03 5.62525000e+03 8.03634100e+00
v 6.34999578e+03 5.62525000e+03 9.96571729e+00
v 6.34999868e+03 5.62525000e+03 1.09367796e+01
v 6.34743740e+03 5.62525000e+03 1.91756713e+01
v 6.35304663e+03 5.62525000e+03 5.19329614e+00
v 6.37430165e+03 5.62525000e+03 2.21281638e+00
v 6.37439446e+03 5.62525000e+03 2.23866666e+00
v 6.37429023e+03 5.62525000e+03 2.21248107e+00
v 6.37429575e+03 5.62525000e+03 2.21239063e+00
v 6.37426130e+03 5.62525000e+03 2.21190123e+00
v 6.34350000e+03 5.62525000e+03 1.98501688e+01
v 6.37430311e+03 5.62525000e+03 2.21280705e+00
v 6.37435266e+03 5.62525000e+03 2.21249112e+00
v 6.37525000e+03 5.62525000e+03 2.44628766e+00
vt 0.043047898 0.71275294
vt 0.094626911 0.7859062
vt 0.0046127168 0.78756618
vt 0.0046108775 0.782278
vt 0.11467684 0.72404885
vt 0.074887097 0.86619151
vt 0.0045819068 0.69810683
vt 0.074001037 0.64799309
vt 0.10934734 0.75697178
vt 0.0046138358 0.790793
vt 0.091931775 0.84737414
vt 0.0045719491 0.6688714
vt 0.14508931 0.62606323
vt 0.14084385 0.73929739
vt 0.10665638 0.79064906
vt 0.004615007 0.79428583
vt 0.10250473 0.81467366
vt 0.10642209 0.85510051
vt 0.0045534009 0.61471152
vt 0.1425527 0.67651498
vt 0.090247244 0.58832848
vt 0.12622869 0.7213496
vt 0.11827368 0.76960254
vt 0.047233798 0.89032203
vt 0.098352455 0.88090354
vt 0.16964893 0.63766181
vt 0.16157492 0.56562686
vt 0.12555882 0.79016143
vt 0.043940552 0.97785139
vt 0.0046602399 0.92463326
vt 0.078961909 0.8875916
vt 0.0045495247 0.60319376
vt 0.16022612 0.61411357
vt 0.076821826 0.51793003
vt 0.0046698959 0.95174247
vt 0.057330877 0.95908165
vt 0.068728298 0.98694122
vt 0.0045248894 0.53203785
vt 0.18154913 0.59767902
vt 0.02815525 0.49924624
vt 0.14670491 0.49921429
vt 0.17087319 0.57281303
vt 0.026740167 0.99535161
vt 0.045106001 0.49924153
vt 0.12996812 0.4992187
vt 0.17806539 0.51537657
vt 0.18073156 0.53081608
vt 0.0046847472 0.99535751
vt 0.03872424 0.99534845
vt 0.048152149 0.99534917
vt 0.012308612 0.49925053
vt 0.20221138 0.52353048
vt 0.068470724 0.49923521
vt 0.079335123 0.49923217
vt 0.15370552 0.49921256
vt 0.056079276 0.99534625
vt 0.0045134667 0.49925256
vt 0.18188724 0.49920535
vt 0.066297956 0.99534059
vt 0.18918021 0.49920762
vt 0.19022983 0.49920738
vt 0.20918605 0.4991979
vt 0.23370993 0.63411558
vt 0.22033125 0.63183641
vt 0.22071591 0.61796117
vt 0.23675846 0.61325455
vt 0.22915415 0.63961035
vt 0.20831198 0.62240326
vt 0.21993415 0.59156179
vt 0.25343722 0.63907129
vt 0.22239423 0.65297604
vt 0.21432339 0.64701402
vt 0.23005781 0.5913896
vt 0.2515409 0.62977183
vt 0.20119688 0.65075374
vt 0.18512239 0.61277515
vt 0.24846503 0.5788359
vt 0.24370812 0.60625887
vt 0.21693596 0.66495252
vt 0.1951661 0.66447341
vt 0.17136717 0.64435184
vt 0.19224806 0.58640587
vt 0.17852554 0.62117028
vt 0.22384265 0.68179166
vt 0.16925628 0.67079985
vt 0.16155927 0.66822505
vt 0.20587349 0.55944467
vt 0.23357877 0.64615667
vt 0.18022671 0.68668139
vt 0.25027603 0.65960485
vt 0.16210924 0.73391467
vt 0.26977253 0.69104695
vt 0.25646868 0.63552964
vt 0.22003169 0.79107708
vt 0.28368166 0.65072095
vt 0.15155487 0.7899617
vt 0.30317593 0.70035654
vt 0.2677111 0.59862804
vt 0.18138079 0.86376554
vt 0.36399341 0.64568549
vt 0.42466834 0.74567991
vt 0.28573865 0.60662031
vt 0.13010611 0.84168088
vt 0.28362504 0.82001311
vt 0.29668567 0.58424675
vt 0.45209759 0.68609488
vt 0.45209765 0.68628919
vt 0.1290382 0.87047118
vt 0.23779897 0.87043476
vt 0.3375735 0.59528053
vt 0.45209759 0.68613595
vt 0.4520795 0.62650919
vt 0.43728384 0.87017477
vt 0.45211038 0.71875715
vt 0.27444351 0.58701587
vt 0.16525003 0.87046027
vt 0.18309464 0.87045449
vt 0.2893503 0.87041712
vt 0.34765345 0.56131423
vt 0.3555252 0.58300424
vt 0.40517327 0.58734167
vt 0.45213655 0.79759133
vt 0.45211816 0.74299896
vt 0.28217703 0.55459821
vt 0.17853871 0.87045616
vt 0.34621784 0.58974046
vt 0.30394718 0.56429988
vt 0.38193205 0.51181865
vt 0.45206949 0.59887737
vt 0.43671188 0.87036836
vt 0.45215017 0.83902258
vt 0.45212531 0.76434898
vt 0.1810205 0.87045503
vt 0.3319754 0.49158359
vt 0.45205009 0.54209042
vt 0.45204279 0.51954901
vt 0.43716392 0.87036824
vt 0.45215544 0.85711122
vt 0.29478511 0.5115366
vt 0.18384533 0.87045306
vt 0.3554846 0.54617625
vt 0.44905028 0.44655043
vt 0.43725023 0.87036818
vt 0.43879217 0.87036741
vt 0.29990476 0.48392051
vt 0.4520227 0.45589459
vt 0.39117488 0.43776184
vt 0.43734238 0.87036812
vt 0.45215762 0.87036115
vt 0.43813944 0.87036788
vt 0.31022793 0.44403708
vt 0.45201921 0.44497257
vt 0.45199937 0.38498276
vt 0.43736526 0.87036812
vt 0.34096295 0.41555184
vt 0.45201856 0.44342774
vt 0.4520044 0.40007937
vt 0.41237077 0.37427711
vt 0.32467937 0.39829093
vt 0.37291145 0.37428963
vt 0.45014906 0.37426567
vt 0.33936718 0.3771081
vt 0.35854408 0.37429428
vt 0.45118624 0.37426537
vt 0.33086473 0.37430203
vt 0.45199719 0.37861228
vt 0.33896425 0.3743006
vt 0.34276494 0.37429947
vt 0.4519957 0.37426513
vt 0.051348429 0.29556549
vt 0.085191786 0.28161943
vt 0.091442034 0.29466629
vt 0.091989391 0.3059842
vt 0.041216195 0.28288984
vt 0.11957558 0.27706933
vt 0.12152643 0.29242629
vt 0.031831875 0.30867088
vt 0.0074840533 0.29510391
vt 0.1152587 0.26802886
vt 0.15801187 0.30196321
vt 0.0089235902 0.30028743
vt 0.082089573 0.33384132
vt 0.0082810428 0.29715449
vt 0.0032889526 0.28470045
vt 0.12119921 0.26034361
vt 0.14874639 0.28937799
vt 0.14295363 0.33184111
vt 0.010763855 0.30966872
vt 0.030011285 0.33662707
vt 0.193289 0.28796482
vt 0.21357803 0.32855952
vt 0.12509854 0.35831934
vt 0.048269488 0.36194056
vt 0.23593484 0.29857618
vt 0.27224258 0.35194224
vt 0.020977531 0.33185995
vt 0.16677472 0.35642761
vt 0.023254979 0.34233642
vt 0.24236892 0.25513726
vt 0.27131686 0.28458428
vt 0.25459501 0.32754248
vt 0.26743177 0.3104471
vt 0.023311879 0.33680826
vt 0.022993771 0.36284518
vt 0.27319011 0.29881901
vt 0.28053296 0.3324672
vt 0.33861434 0.25121117
vt 0.33375511 0.28247017
vt 0.28885284 0.32205594
vt 0.32530868 0.34977257
vt 0.30637994 0.31148702
vt 0.34418613 0.29459578
vt 0.30051377 0.32575995
vt 0.29924288 0.37184638
vt 0.34463558 0.32434165
vt 0.39042103 0.24941534
vt 0.39342713 0.28579754
vt 0.39293563 0.34737366
vt 0.43349883 0.28953838
vt 0.39933199 0.32203633
vt 0.41488281 0.32298422
vt 0.16400614 0.047466636
vt 0.18816468 0.041202843
vt 0.18595591 0.049465477
vt 0.20806971 0.069125712
vt 0.21354555 0.035819471
vt 0.13627738 0.07638061
vt 0.19027799 0.099315763
vt 0.15443289 0.052093625
vt 0.25957021 0.058639646
vt 0.27613696 0.10193294
vt 0.1350124 0.10253507
vt 0.12716155 0.063944697
vt 0.27771533 0.027469516
vt 0.23836453 0.10966867
vt 0.17066625 0.11570424
vt 0.070093267 0.073674977
vt 0.2854203 0.046389759
vt 0.32226178 0.077632606
vt 0.30273676 0.10910743
vt 0.063234285 0.10042489
vt 0.097973086 0.059814155
vt 0.32389763 0.043615341
vt 0.29518029 0.10006535
vt 0.2988587 0.10491925
vt 0.30218622 0.13091528
vt 0.17653906 0.14856333
vt 0.030512627 0.086539984
vt 0.33473465 0.027771473
vt 0.29088569 0.10479599
vt 0.2196559 0.13179559
vt 0.15532179 0.13189143
vt 0.028316543 0.10390568
vt 0.35280332 0.04215163
vt 0.39284775 0.10538292
vt 0.30108309 0.17053288
vt 0.2517285 0.24475121
vt 0.14173281 0.16764486
vt 0.015922066 0.08929646
vt 0.37748793 0.050051332
vt 0.38976124 0.028230131
vt 0.42302623 0.08138746
vt 0.15561929 0.24336231
vt 0.0031852711 0.086334288
vt 0.42301163 0.079292655
vt 0.42303932 0.080197334
vt 0.42262083 0.10467201
vt 0.30339855 0.24547106
vt 0.034589093 0.24176347
vt 0.42300752 0.07759428
vt 0.40441364 0.044193625
vt 0.062340885 0.20917112
vt 0.41978857 0.033030093
vt 0.031295657 0.22140056
vt 0.034341827 0.17189604
vt 0.42198786 0.042286813
vt 0.4181549 0.025003374
vt 0.42162991 0.039782882
vt 0.02937589 0.18843549
vt 0.079707853 0.16911864
vt 0.18609172 0.37794882
vt 0.21840045 0.37407976
vt 0.20193078 0.39843845
vt 0.17138116 0.4009136
vt 0.2293257 0.39546424
vt 0.20279635 0.41592795
vt 0.14209209 0.38394356
vt 0.22319625 0.41640782
vt 0.23181051 0.37167138
vt 0.17233706 0.42400634
vt 0.14621791 0.41907614
vt 0.24969955 0.40900034
vt 0.269719 0.3670125
vt 0.19343643 0.43358785
vt 0.21372677 0.42979002
vt 0.11524954 0.3894735
vt 0.25294489 0.39822698
vt 0.1206383 0.44594538
vt 0.16779971 0.44821841
vt 0.11142577 0.42117786
vt 0.26399517 0.38545477
vt 0.14525861 0.44661617
vt 0.10530582 0.43918532
vt 0.075125195 0.39480829
vt 0.12723158 0.45130754
vt 0.090656929 0.45553255
vt 0.066381417 0.44641411
vt 0.11853269 0.46029299
vt 0.027892383 0.39939952
vt 0.063261442 0.46703023
vt 0.095669009 0.46502519
vt 0.020602174 0.46742725
vt 0.089847803 0.4729864
vt 0.031858247 0.4818781
vt 0.0048282938 0.44021416
vt 0.06901148 0.47624832
vt 0.057245273 0.48321849
vt 0.010675336 0.48025137
vt 0.0037696201 0.40155989
vt 0.0050083371 0.46646702
vt 0.028468652 0.49004489
vt 0.013225947 0.48521626
vt 0.0057741622 0.47126275
vt 0.014813159 0.49403185
vt 0.055853575 0.49327153
vt 0.015253916 0.49611419
vt 0.64787525 0.9041357
vt 0.62393475 0.94268876
vt 0.62215072 0.90196562
vt 0.63595808 0.88357896
vt 0.6693148 0.94006276
vt 0.60856128 0.91081131
vt 0.65985346 0.86909533
vt 0.6934796 0.89008915
vt 0.59588242 0.86722344
vt 0.6256547 0.91110688
vt 0.63648951 0.85944569
vt 0.73144484 0.93637818
vt 0.57612163 0.91079116
vt 0.61876541 0.93861753
vt 0.69238198 0.86483806
vt 0.73263657 0.86986184
vt 0.57880086 0.93230391
vt 0.55968803 0.88451338
vt 0.71818602 0.86169946
vt 0.7454716 0.89370555
vt 0.51073772 0.89683223
vt 0.56313914 0.86508989
vt 0.61535835 0.95726132
vt 0.50411046 0.93331385
vt 0.5323956 0.88368922
vt 0.54715449 0.87408733
vt 0.58547091 0.99407935
vt 0.50915402 0.89800781
vt 0.50388879 0.97359985
vt 0.50921762 0.89642894
vt 0.61611867 0.98522031
vt 0.54158825 0.99602616
vt 0.50930017 0.89712095
vt 0.50363386 0.99697959
vt 0.50780982 0.88713801
vt 0.76967311 0.8301689
vt 0.77033079 0.84432244
vt 0.75540197 0.83727401
vt 0.75369585 0.8198508
vt 0.78644919 0.83612877
vt 0.75859344 0.80971551
vt 0.78248227 0.85653001
vt 0.80008256 0.86138272
vt 0.77488381 0.86595052
vt 0.79344463 0.81297326
vt 0.81968862 0.83057761
vt 0.79287684 0.86954629
vt 0.82979721 0.84676683
vt 0.80437559 0.87693912
vt 0.79487193 0.88757765
vt 0.84629494 0.86213899
vt 0.82194734 0.8759684
vt 0.82518476 0.89019024
vt 0.84864998 0.89561176
vt 0.81033117 0.89765584
vt 0.86565065 0.87682879
vt 0.82602423 0.90714598
vt 0.83731842 0.90305287
vt 0.87415528 0.89187437
vt 0.85891098 0.92303622
vt 0.83182687 0.9184109
vt 0.88542694 0.90970057
vt 0.85008669 0.93104327
vt 0.89995229 0.92145938
vt 0.85103166 0.94275045
vt 0.88157046 0.94849461
vt 0.86297566 0.93672752
vt 0.92877543 0.95817202
vt 0.92830944 0.95897341
vt 0.86782581 0.95333099
vt 0.92689842 0.96124816
vt 0.87266463 0.96743727
vt 0.90807217 0.97483057
vt 0.87823188 0.97145337
vt 0.91433859 0.97939628
vt 0.91380721 0.98191744
vt 0.89357269 0.98589957
vt 0.90970182 0.98784757
vt 0.90407121 0.99576008
vt 0.22646202 0.95192724
vt 0.25851226 0.95778829
vt 0.26502562 0.9788456
vt 0.23972674 0.9694615
vt 0.22936679 0.93011498
vt 0.29179144 0.9780488
vt 0.25588137 0.98872209
vt 0.21273118 0.95789814
vt 0.18040994 0.93005401
vt 0.28799957 0.95542049
vt 0.27851444 0.98950481
vt 0.18832295 0.95004523
vt 0.18076852 0.91331893
vt 0.22945002 0.92182666
vt 0.29416493 0.99415815
vt 0.31393793 0.98310232
vt 0.27003101 0.99691999
vt 0.14617179 0.90958232
vt 0.19919972 0.91021311
vt 0.15617919 0.93442208
vt 0.16014224 0.9061588
vt 0.12844047 0.9192965
vt 0.17976591 0.88671333
vt 0.16876765 0.89195323
vt 0.55769747 0.74479312
vt 0.51764309 0.73534572
vt 0.55254847 0.70007789
vt 0.64959663 0.66193819
vt 0.51682228 0.70116961
vt 0.64961481 0.65587592
vt 0.64951134 0.74553162
vt 0.5177018 0.67325097
vt 0.64963078 0.6410085
vt 0.53899419 0.6425311
vt 0.63341218 0.63058555
vt 0.57193571 0.62267661
vt 0.51711762 0.62785578
vt 0.64971381 0.62829745
vt 0.54580796 0.61747384
vt 0.5168997 0.62189573
vt 0.56126571 0.57902473
vt 0.64993817 0.62227076
vt 0.60491782 0.57841778
vt 0.5150581 0.60275865
vt 0.61102223 0.60223031
vt 0.50364673 0.5777452
vt 0.64959604 0.61140662
vt 0.63310421 0.57958651
vt 0.65029079 0.58912194
vt 0.64995056 0.58223438
vt 0.96525002 0.84382451
vt 0.97273523 0.86567646
vt 0.95081258 0.84927285
vt 0.9515782 0.86410499
vt 0.94707847 0.85521919
vt 0.94150394 0.8769173
vt 0.94075465 0.85281402
vt 0.98359394 0.88861227
vt 0.9448114 0.85446393
vt 0.9408347 0.91683143
vt 0.98711145 0.88210022
vt 0.96980709 0.91194552
vt 0.98486197 0.93369758
vt 0.98348403 0.96199393
vt 0.94195509 0.99119473
vt 0.98509073 0.99576384
vt 0.33883467 0.95602602
vt 0.36811286 0.95155567
vt 0.34397689 0.9928599
vt 0.33141115 0.98776484
vt 0.44423014 0.9535526
vt 0.31712681 0.9923113
vt 0.45287406 0.9961313
vt 0.46215728 0.95375335
vt 0.46157104 0.99074471
vt 0.46153408 0.9962045
vt 0.69503891 0.72897834
vt 0.68474609 0.72622019
vt 0.6972217 0.67801577
vt 0.70623028 0.69106376
vt 0.67343956 0.74838167
vt 0.66921824 0.72592396
vt 0.70380503 0.68436909
vt 0.71405303 0.68874621
vt 0.67521334 0.78187972
vt 0.6866203 0.67070448
vt 0.71075439 0.67990494
vt 0.68736607 0.77917862
vt 0.65002763 0.80794895
vt 0.68274033 0.78149909
vt 0.65426773 0.76738656
vt 0.70116329 0.66846597
vt 0.71545762 0.68528277
vt 0.65084696 0.80794823
vt 0.67689514 0.80626297
vt 0.67399895 0.80793095
vt 0.67018735 0.80793297
vt 0.64960724 0.80794907
vt 0.67589056 0.80793118
vt 0.63666171 0.79248655
vt 0.67927057 0.80793101
vt 0.64829677 0.80794954
vt 0.62835795 0.80795491
vt 0.48268735 0.99543297
vt 0.48771334 0.96937972
vt 0.49123594 0.9954319
vt 0.49986604 0.96667862
vt 0.49191931 0.99543172
vt 0.44658807 0.91537863
vt 0.50901377 0.84439182
vt 0.48352459 0.9328534
vt 0.46571153 0.93285912
vt 0.46755308 0.84137547
vt 0.44178259 0.93286693
vt 0.47789168 0.81392694
vt 0.76673037 0.95470095
vt 0.77977639 0.96515155
vt 0.7781499 0.9924922
vt 0.7548607 0.98767769
vt 0.78092694 0.93668878
vt 0.80467314 0.97190124
vt 0.75609869 0.95446754
vt 0.75862026 0.94380969
vt 0.7952131 0.99095982
vt 0.76276618 0.92710125
vt 0.80755162 0.95302486
vt 0.77973247 0.99534589
vt 0.7784521 0.92108101
vt 0.81073338 0.92159456
vt 0.77641672 0.99567664
vt 0.77157277 0.90809947
vt 0.80336022 0.91181606
vt 0.82015914 0.93963069
vt 0.7897715 0.90253556
vt 0.78216469 0.89404935
vt 0.1125571 0.98475975
vt 0.134863 0.97867107
vt 0.1337987 0.99673146
vt 0.11122929 0.99495512
vt 0.11008167 0.95578438
vt 0.13475041 0.94762427
vt 0.11037964 0.93465126
vt 0.13007101 0.92851168
vt 0.10001372 0.90820038
vt 0.09715569 0.90043771
vt 0.22809389 0.9914825
vt 0.21105044 0.99536419
vt 0.16834705 0.98735142
vt 0.64285374 0.99577665
vt 0.63672292 0.96808416
vt 0.65734744 0.97315997
vt 0.65496337 0.99135292
vt 0.62945396 0.98029035
vt 0.63826382 0.94954211
vt 0.66197056 0.98003656
vt 0.66270125 0.96121925
vt 0.6756736 0.97214633
vt 0.85214412 0.97266179
vt 0.82830298 0.99595636
vt 0.81621641 0.98580587
vt 0.81560385 0.98383117
vt 0.82113659 0.99587721
vt 0.85826778 0.96374524
vt 0.81560647 0.98362559
vt 0.11198725 0.9967047
vt 0.075064093 0.99511844
vt 0.096657559 0.98872423
vt 0.75220555 0.99599946
vt 0.74447852 0.99371493
vt 0.74942523 0.9789449
vt 0.7260654 0.97103876
vt 0.72271878 0.98209423
vt 0.74130219 0.96312171
vt 0.14466521 0.96667862
vt 0.15513611 0.99376297
vt 0.15549515 0.99543035
vt 0.15276071 0.99543101
vt 0.15681793 0.96937972
vt 0.14341736 0.99376297
vt 0.13757217 0.96899909
vt 0.14631353 0.99543095
vt 0.14410211 0.99543041
vt 0.14238252 0.99543107
vt 0.24999529 0.99608231
vt 0.2221119 0.98265988
vt 0.23149987 0.97578508
vt 0.67513585 0.9802925
vt 0.6609565 0.9963603
vt 0.66219884 0.98921931
vt 0.68221813 0.98586851
vt 0.65942776 0.99188405
vt 0.67813134 0.97891307
vt 0.69077265 0.97369999
vt 0.70135498 0.98654556
vt 0.69805634 0.99538684
vt 0.7075882 0.98423386
vt 0.70830435 0.99100971
vt 0.17319913 0.99034393
vt 0.16309807 0.99691653
vt 0.15169643 0.99171507
vt 0.61955464 0.981574
vt 0.62603796 0.98494792
vt 0.6241768 0.99545026
vt 0.61250407 0.9870559
vt 0.08202146 0.99531311
vt 0.074944824 0.99308074
vt 0.08184886 0.99322337
vt 0.07184808 0.99597895
vt 0.070204236 0.99628323
vt 0.071202479 0.99375385
usemtl Tile_+032_+023_L19_000033_0
f 5/1 7/2 286/3
f 289/12 5/1 290/7
f 288/38 4/21 293/32
f 3/34 4/21 316/40
f 26/362 25/363 24/364
f 49/384 132/387 131/383
f 12/63 8/64 105/65
f 98/222 126/223 125/224
f 120/281 92/282 124/283
f 83/84 100/79 106/71
f 110/75 97/85 22/86
f 115/134 102/119 114/127
f 116/155 118/151 117/159
f 104/98 93/102 95/95
f 110/75 107/72 94/80
f 113/287 120/281 39/284
f 124/283 39/284 120/281
f 58/554 123/555 111/556
f 110/75 94/80 97/85
f 107/72 106/71 100/79
f 99/225 109/228 108/227
f 28/365 26/362 24/364
f 126/81 110/75 22/86
f 57/66 12/63 105/65
f 95/95 14/93 104/98
f 91/110 81/105 102/119
f 96/92 101/90 95/95
f 107/72 100/79 94/80
f 58/554 111/556 12/557
f 123/555 14/559 111/556
f 83/84 82/88 101/90
f 104/98 92/115 81/105
f 120/124 114/127 81/105
f 81/105 92/115 120/124
f 104/289 14/293 13/285
f 95/95 93/102 81/105
f 119/145 115/134 113/139
f 118/151 116/155 115/134
f 113/139 115/134 114/127
f 114/127 120/124 113/139
f 81/105 114/127 102/119
f 14/93 101/90 82/88
f 96/92 83/84 101/90
f 89/94 90/97 88/101
f 16/286 15/294 20/290
f 89/94 88/101 87/104
f 86/99 89/94 87/104
f 86/99 87/104 377/109
f 89/94 83/84 96/92
f 89/94 11/91 83/84
f 90/97 89/94 96/92
f 83/84 10/89 94/80
f 80/100 90/97 95/95
f 81/105 91/110 80/100
f 81/105 93/102 104/98
f 101/90 14/93 95/95
f 95/95 81/105 80/100
f 96/92 95/95 90/97
f 77/313 79/306 78/311
f 18/69 28/73 57/66
f 258/374 76/372 44/377
f 73/456 75/457 74/458
f 69/396 70/392 46/398
f 65/400 46/398 70/392
f 251/307 262/303 79/306
f 38/406 196/407 37/408
f 36/409 38/406 37/408
f 31/327 30/328 32/329
f 62/416 37/408 52/411
f 57/66 59/74 58/70
f 118/151 115/134 119/145
f 50/339 40/344 41/335
f 47/314 46/317 45/321
f 42/253 260/259 44/248
f 261/298 131/305 132/308
f 94/80 100/79 83/84
f 42/424 136/419 43/410
f 39/284 16/286 20/290
f 15/294 16/286 25/295
f 19/299 21/302 20/290
f 17/76 257/82 18/69
f 98/222 125/224 99/225
f 9/67 8/64 12/63
f 63/343 279/358 323/360
f 212/170 71/171 280/172
f 284/279 30/275 285/272
f 282/541 283/542 278/543
f 281/349 282/357 71/353
f 283/274 285/272 278/269
f 281/545 284/546 283/542
f 283/274 284/279 285/272
f 282/541 281/545 283/542
f 156/258 55/247 233/263
f 30/275 29/280 156/258
f 285/272 30/275 156/258
f 30/548 284/546 275/547
f 281/545 275/547 284/546
f 277/175 276/176 280/172
f 214/173 280/172 276/176
f 71/353 279/358 63/343
f 278/269 285/272 156/258
f 233/263 278/269 156/258
f 164/190 234/186 278/185
f 214/173 212/170 280/172
f 282/179 277/175 71/171
f 234/186 215/180 276/176
f 233/199 164/190 278/185
f 214/173 213/182 72/177
f 319/188 211/189 325/196
f 280/172 71/171 277/175
f 278/185 234/186 276/176
f 212/170 279/174 71/171
f 212/170 214/173 72/177
f 328/178 212/170 329/183
f 277/544 282/541 278/543
f 132/308 78/311 79/306
f 84/312 251/307 47/314
f 65/400 64/399 45/403
f 330/318 47/314 331/322
f 332/324 45/321 333/326
f 65/325 45/321 46/317
f 35/336 275/340 173/332
f 333/405 64/399 336/404
f 26/362 28/365 18/367
f 111/556 82/561 9/560
f 274/347 63/343 327/350
f 275/340 63/343 173/332
f 31/327 34/330 206/333
f 50/339 41/335 173/332
f 35/549 32/550 30/548
f 41/335 34/330 173/332
f 34/330 32/329 173/332
f 270/521 271/522 272/523
f 269/524 270/521 272/523
f 64/399 65/400 70/392
f 343/592 272/593 344/594
f 273/526 271/522 170/525
f 272/523 271/522 273/526
f 273/351 274/347 338/356
f 272/523 273/526 345/529
f 274/347 273/351 40/344
f 61/232 109/228 200/236
f 82/561 106/562 9/560
f 61/415 52/411 196/407
f 61/415 196/407 43/410
f 33/417 51/414 38/406
f 21/302 261/298 20/290
f 252/297 129/292 13/285
f 21/302 131/305 261/298
f 264/378 265/375 60/369
f 254/373 60/369 265/375
f 25/363 26/362 27/366
f 19/376 254/373 265/375
f 12/63 57/66 58/70
f 52/411 61/415 200/421
f 43/410 196/407 38/406
f 44/248 136/241 42/253
f 263/536 133/539 134/533
f 208/386 207/380 263/385
f 263/385 171/388 208/386
f 208/386 132/387 49/384
f 79/306 261/298 132/308
f 48/379 49/384 131/383
f 208/386 78/389 132/387
f 70/392 85/393 208/386
f 54/418 42/424 43/410
f 41/335 33/337 34/330
f 51/414 41/425 67/427
f 170/525 271/522 270/521
f 170/525 270/521 267/528
f 171/388 267/390 208/386
f 41/335 40/344 67/348
f 133/539 174/537 134/533
f 171/530 263/536 134/533
f 174/537 169/534 170/525
f 70/392 208/386 267/390
f 67/538 66/531 169/534
f 66/531 273/526 170/525
f 170/525 169/534 66/531
f 67/348 40/344 66/352
f 266/563 269/564 341/565
f 267/528 270/521 266/527
f 267/568 266/563 347/566
f 256/291 135/300 119/296
f 334/397 70/392 350/395
f 251/307 268/310 47/314
f 69/316 268/310 77/313
f 77/391 85/393 70/392
f 130/162 117/159 351/165
f 77/313 268/310 79/306
f 47/314 268/310 46/317
f 70/392 267/390 349/394
f 78/389 208/386 77/391
f 208/386 85/393 77/391
f 46/317 268/310 69/316
f 70/392 69/396 77/391
f 20/290 261/298 256/291
f 262/303 135/300 256/291
f 19/299 20/290 15/294
f 48/379 131/383 21/381
f 264/378 44/377 207/380
f 262/303 261/298 79/306
f 259/382 263/385 207/380
f 251/307 118/304 135/300
f 135/300 262/303 251/307
f 135/300 118/304 119/296
f 207/380 44/377 259/382
f 76/372 258/374 60/369
f 51/414 33/417 41/425
f 54/418 259/428 42/424
f 259/540 133/539 263/536
f 207/380 208/386 49/384
f 174/426 133/429 54/418
f 207/380 48/379 264/378
f 21/381 19/376 48/379
f 19/376 265/375 48/379
f 264/378 48/379 265/375
f 258/374 264/378 60/369
f 76/237 136/241 44/248
f 27/366 60/369 255/368
f 129/78 57/66 24/77
f 17/229 108/227 257/233
f 76/237 253/242 257/233
f 92/282 104/289 13/285
f 124/283 92/282 13/285
f 255/368 25/363 27/366
f 15/370 254/373 19/376
f 25/363 255/368 15/370
f 16/286 24/288 25/295
f 15/370 255/368 254/373
f 60/369 254/373 255/368
f 27/366 253/371 76/372
f 76/372 60/369 27/366
f 257/233 108/227 76/237
f 43/410 136/419 61/415
f 136/241 76/237 61/232
f 61/232 76/237 108/227
f 108/227 98/222 99/225
f 58/573 59/574 112/575
f 58/554 112/558 123/555
f 106/71 82/88 83/84
f 14/559 82/561 111/556
f 126/81 98/83 201/68
f 17/229 98/222 108/227
f 201/68 8/64 107/72
f 9/67 106/71 8/64
f 106/71 107/72 8/64
f 257/82 253/87 18/69
f 201/68 18/69 105/65
f 24/288 16/286 124/283
f 124/283 13/285 24/288
f 39/284 256/291 113/287
f 39/284 20/290 256/291
f 57/66 28/73 24/77
f 111/556 9/560 12/557
f 252/576 112/575 59/574
f 129/78 59/74 57/66
f 129/577 252/576 59/574
f 113/287 256/291 119/296
f 110/75 201/68 107/72
f 110/75 126/81 201/68
f 14/293 123/301 252/297
f 22/226 125/224 126/223
f 98/83 17/76 201/68
f 252/297 13/285 14/293
f 251/307 84/312 117/309
f 118/304 251/307 117/309
f 117/309 84/312 321/315
f 216/39 217/33 250/42
f 243/28 228/15 248/23
f 241/17 138/11 7/2
f 2/24 137/6 1/29
f 140/430 181/431 148/432
f 236/213 223/211 235/215
f 218/46 68/52 219/47
f 240/514 140/515 381/516
f 2/24 1/29 292/35
f 246/5 229/9 7/2
f 5/1 246/5 7/2
f 246/5 6/8 209/13
f 162/26 209/13 217/33
f 5/1 6/8 246/5
f 374/50 165/37 383/56
f 249/36 1/29 137/6
f 286/3 137/6 296/10
f 137/6 2/24 294/16
f 137/6 247/31 249/36
f 246/5 245/22 166/14
f 162/26 217/33 216/39
f 162/26 166/14 244/20
f 244/20 246/5 209/13
f 244/20 245/22 246/5
f 220/201 221/202 230/209
f 243/210 225/206 235/215
f 221/202 223/211 230/209
f 55/247 56/251 183/257
f 166/195 243/210 229/214
f 166/14 229/9 246/5
f 227/18 239/25 137/6
f 247/31 137/6 239/25
f 237/472 242/473 239/474
f 239/25 165/37 247/31
f 137/6 138/11 227/18
f 138/11 137/6 7/2
f 227/18 138/11 241/17
f 240/476 165/478 239/474
f 198/482 204/483 175/484
f 140/515 242/518 237/520
f 227/477 238/475 239/474
f 237/221 226/220 140/219
f 239/474 238/475 237/472
f 227/218 226/220 237/221
f 238/475 227/477 237/472
f 165/37 249/36 247/31
f 249/36 165/37 1/29
f 140/219 226/220 139/212
f 183/207 182/216 232/208
f 181/217 140/219 139/212
f 181/217 232/208 182/216
f 232/208 181/217 139/212
f 231/200 233/199 183/207
f 231/200 222/205 163/194
f 163/194 215/180 164/190
f 231/200 164/190 233/199
f 231/200 163/194 164/190
f 232/208 139/212 222/205
f 232/208 231/200 183/207
f 224/191 220/201 166/195
f 228/15 241/17 7/2
f 222/205 231/200 232/208
f 225/206 236/213 235/215
f 213/182 161/187 216/192
f 224/191 163/194 221/202
f 139/212 235/215 223/211
f 225/206 220/201 230/209
f 225/206 166/195 220/201
f 225/206 230/209 236/213
f 223/211 236/213 230/209
f 243/210 235/215 227/218
f 243/28 227/18 241/17
f 7/2 229/9 228/15
f 229/9 248/23 228/15
f 229/570 243/571 248/572
f 241/17 228/15 243/28
f 245/22 244/20 166/14
f 163/194 224/191 215/180
f 161/187 215/180 224/191
f 223/211 221/202 222/205
f 222/205 139/212 223/211
f 220/201 224/191 221/202
f 164/190 215/180 234/186
f 163/194 222/205 221/202
f 356/198 68/193 357/204
f 68/52 218/46 354/60
f 218/46 210/27 359/41
f 71/353 63/343 281/349
f 250/42 68/52 216/39
f 250/42 210/27 219/47
f 218/46 219/47 210/27
f 162/197 216/192 161/187
f 210/27 217/33 209/13
f 250/42 219/47 68/52
f 215/180 161/187 214/173
f 215/180 214/173 276/176
f 212/170 72/177 320/181
f 68/193 211/189 213/182
f 4/21 3/34 210/27
f 210/27 209/13 4/21
f 359/41 3/34 362/45
f 4/21 6/8 291/19
f 167/461 168/459 75/457
f 176/492 205/498 191/488
f 155/422 160/412 62/416
f 195/231 205/244 176/250
f 203/254 122/249 152/261
f 127/486 204/483 198/482
f 199/235 167/246 56/251
f 203/254 152/261 154/260
f 198/482 189/495 177/490
f 190/584 189/585 387/586
f 387/501 178/493 389/504
f 160/345 155/342 172/334
f 53/252 55/247 156/258
f 18/69 201/68 17/76
f 150/468 149/469 158/465
f 38/406 36/409 206/413
f 179/245 205/244 153/239
f 11/234 121/238 23/230
f 11/91 22/86 10/89
f 121/238 11/234 202/243
f 22/86 97/85 10/89
f 55/247 53/252 200/236
f 169/423 51/414 67/427
f 8/64 201/68 105/65
f 206/413 33/417 38/406
f 160/412 37/408 62/416
f 199/235 55/247 200/236
f 73/491 175/484 128/487
f 195/231 23/230 153/239
f 197/464 168/459 167/461
f 175/484 176/492 191/488
f 109/228 99/225 195/231
f 99/225 23/230 195/231
f 175/484 73/491 74/497
f 205/244 195/231 153/239
f 179/245 197/240 195/231
f 195/598 176/599 179/600
f 191/606 180/607 168/608
f 74/458 75/457 168/459
f 205/498 179/489 191/488
f 127/486 193/496 128/487
f 204/483 127/486 128/487
f 178/255 179/245 153/239
f 204/483 128/487 175/484
f 193/496 127/486 390/494
f 203/254 202/243 122/249
f 11/234 122/249 202/243
f 121/238 202/243 153/239
f 122/96 11/91 89/94
f 122/96 89/94 86/99
f 392/273 152/261 393/277
f 154/260 151/271 394/270
f 105/65 18/69 57/66
f 177/490 189/495 190/500
f 127/486 198/482 177/490
f 109/228 199/235 200/236
f 53/420 52/411 200/421
f 37/408 196/407 52/411
f 53/589 155/590 62/591
f 52/411 53/420 62/416
f 156/338 172/334 155/342
f 186/463 157/467 158/465
f 74/458 180/460 176/462
f 75/457 187/466 186/463
f 197/240 167/246 199/235
f 197/240 199/235 195/231
f 199/235 109/228 195/231
f 175/484 191/488 197/485
f 197/485 179/489 198/482
f 178/493 198/482 179/489
f 178/493 189/495 198/482
f 158/465 167/461 186/463
f 197/609 191/606 168/608
f 390/494 177/490 407/499
f 178/579 190/580 402/581
f 409/443 184/441 410/447
f 158/256 56/251 167/246
f 128/446 193/448 184/441
f 193/448 192/450 184/441
f 192/450 194/453 400/455
f 172/334 206/333 36/341
f 167/461 75/457 186/463
f 184/441 159/439 188/444
f 410/447 192/450 412/452
f 158/465 157/467 150/468
f 150/468 157/467 186/463
f 187/445 75/449 188/444
f 188/444 159/439 187/445
f 186/442 187/445 159/439
f 206/333 172/334 31/327
f 34/330 33/337 206/333
f 148/432 185/440 413/438
f 159/439 184/441 148/432
f 233/263 55/247 183/257
f 183/257 56/251 158/256
f 182/268 183/257 158/256
f 386/433 148/432 414/435
f 181/471 182/470 149/469
f 182/470 158/465 149/469
f 202/243 203/254 153/239
f 179/600 176/599 180/601
f 191/602 179/600 180/601
f 177/583 190/580 178/579
f 404/511 178/512 406/513
f 24/288 13/285 129/292
f 74/497 176/492 175/484
f 117/159 130/162 116/155
f 10/89 97/85 94/80
f 61/232 108/227 109/228
f 252/576 123/578 112/575
f 10/89 83/84 11/91
f 275/547 35/549 30/548
f 268/310 251/307 79/306
f 48/379 207/380 49/384
f 170/525 134/533 174/537
f 99/225 125/224 22/226
f 275/340 281/349 63/343
f 277/175 278/185 276/176
f 173/332 32/329 35/336
f 50/339 63/343 274/347
f 156/338 29/331 172/334
f 172/334 29/331 31/327
f 31/327 29/331 30/328
f 63/343 50/339 173/332
f 32/329 34/330 31/327
f 273/351 66/352 40/344
f 50/339 274/347 40/344
f 51/414 54/418 43/410
f 43/410 38/406 51/414
f 267/528 171/530 170/525
f 270/521 269/524 266/527
f 134/533 170/525 171/530
f 133/429 259/428 54/418
f 44/248 260/259 259/264
f 54/418 51/414 169/423
f 261/298 262/303 256/291
f 259/264 260/259 42/253
f 258/374 44/377 264/378
f 27/366 26/362 18/367
f 18/367 253/371 27/366
f 39/284 124/283 16/286
f 240/514 242/518 140/515
f 6/8 4/21 209/13
f 162/197 161/187 166/195
f 209/13 162/26 244/20
f 166/195 225/206 243/210
f 242/473 240/476 239/474
f 165/478 240/476 385/479
f 213/182 211/189 72/177
f 226/220 235/215 139/212
f 235/215 226/220 227/218
f 161/187 224/191 166/195
f 250/42 217/33 210/27
f 213/182 214/173 161/187
f 213/182 216/192 68/193
f 23/230 121/238 153/239
f 152/103 122/96 86/99
f 152/261 151/271 154/260
f 23/230 22/226 11/234
f 56/251 55/247 199/235
f 155/342 53/346 156/338
f 75/449 73/451 128/446
f 168/459 180/460 74/458
f 153/239 203/254 154/260
f 405/262 153/239 416/266
f 153/239 154/260 395/265
f 393/108 86/99 398/116
f 194/453 192/450 193/448
f 194/505 193/496 391/503
f 37/408 160/412 36/409
f 188/444 75/449 128/446
f 36/341 160/345 172/334
f 197/485 198/482 175/484
f 184/441 188/444 128/446
f 150/437 186/442 159/439
f 148/432 150/437 159/439
f 148/432 184/441 185/440
f 149/434 150/437 148/432
f 149/434 148/432 181/431
f 169/423 174/426 54/418
f 22/226 23/230 99/225
f 80/100 91/110 143/120
f 363/160 116/155 364/163
f 146/142 147/147 297/153
f 147/147 144/128 115/134
f 102/551 145/552 144/553
f 303/107 90/97 304/111
f 102/119 143/120 103/126
f 142/121 144/128 305/136
f 142/121 80/100 144/128
f 102/119 115/134 145/141
f 365/164 297/153 370/161
f 364/163 130/162 367/168
f 305/136 146/142 311/146
f 147/147 146/142 144/128
f 103/126 91/110 102/119
f 144/128 143/120 102/119
f 300/112 142/121 307/129
f 141/113 88/101 313/122
f 87/104 88/101 141/113
f 144/128 145/141 115/134
f 90/97 80/100 299/106
f 115/134 116/155 147/147
f 91/603 103/604 143/605
f 378/118 141/113 421/130
f 80/100 143/120 144/128
f 286/3 7/2 137/6
f 287/4 5/1 286/3
f 316/40 288/38 368/51
f 289/12 6/8 5/1
f 290/7 5/1 287/4
f 291/19 6/8 289/12
f 292/35 1/29 372/43
f 293/32 4/21 291/19
f 294/16 2/24 295/30
f 295/30 2/24 292/35
f 296/10 137/6 294/16
f 297/153 147/147 366/158
f 298/157 146/142 297/153
f 299/106 80/100 300/112
f 300/112 80/100 142/121
f 301/114 88/101 303/107
f 302/123 88/101 301/114
f 303/107 88/101 90/97
f 304/111 90/97 299/106
f 305/136 144/128 146/142
f 306/135 142/121 305/136
f 307/129 142/121 306/135
f 309/156 146/142 298/157
f 310/152 146/142 309/156
f 311/146 146/142 310/152
f 312/138 141/113 314/131
f 418/144 312/138 425/149
f 313/122 88/101 315/132
f 314/131 141/113 313/122
f 315/132 88/101 302/123
f 316/40 4/21 288/38
f 317/44 3/34 316/40
f 318/53 3/34 317/44
f 319/188 72/177 211/189
f 320/181 72/177 319/188
f 321/315 84/312 322/320
f 322/320 84/312 353/323
f 323/184 279/174 328/178
f 324/355 63/343 323/360
f 325/196 211/189 326/203
f 326/203 211/189 356/198
f 327/350 63/343 324/355
f 328/178 279/174 212/170
f 329/183 212/170 320/181
f 330/318 84/312 47/314
f 331/322 47/314 332/324
f 332/324 47/314 45/321
f 333/405 45/403 64/399
f 334/397 64/399 70/392
f 335/401 64/399 334/397
f 336/404 64/399 337/402
f 337/402 64/399 335/401
f 338/356 274/347 339/359
f 339/359 274/347 340/354
f 340/354 274/347 327/350
f 341/565 269/564 342/567
f 342/597 269/595 343/592
f 343/592 269/595 272/593
f 344/594 272/593 348/596
f 345/361 273/351 338/356
f 346/532 272/523 345/529
f 347/566 266/563 341/565
f 348/535 272/523 346/532
f 349/569 267/568 347/566
f 350/395 70/392 349/394
f 351/319 117/309 321/315
f 352/167 130/162 351/165
f 353/323 84/312 330/318
f 354/60 218/46 355/58
f 355/58 218/46 360/55
f 356/198 211/189 68/193
f 357/62 68/52 358/61
f 358/61 68/52 354/60
f 359/41 210/27 3/34
f 360/55 218/46 359/41
f 361/54 3/34 318/53
f 362/45 3/34 361/54
f 363/160 147/147 116/155
f 364/163 116/155 130/162
f 365/164 308/166 297/153
f 366/158 147/147 363/160
f 367/168 130/162 352/167
f 368/51 288/38 369/57
f 370/161 297/153 366/158
f 371/169 308/166 365/164
f 372/43 1/29 373/49
f 373/49 1/29 374/50
f 374/50 1/29 165/37
f 375/125 86/99 376/133
f 376/133 86/99 379/140
f 377/109 87/104 378/118
f 378/118 87/104 141/113
f 379/610 86/611 380/612
f 380/117 86/99 377/109
f 381/436 140/430 386/433
f 382/517 240/514 381/516
f 383/56 165/37 384/59
f 384/481 165/478 415/480
f 385/519 240/514 382/517
f 386/433 140/430 148/432
f 387/501 189/495 178/493
f 388/587 190/584 387/586
f 389/504 178/493 408/506
f 390/494 127/486 177/490
f 391/503 193/496 390/494
f 392/273 151/271 152/261
f 393/108 152/103 86/99
f 394/270 151/271 396/276
f 395/265 154/260 394/270
f 396/276 151/271 397/278
f 397/278 151/271 392/273
f 398/116 86/99 375/125
f 399/507 194/505 391/503
f 400/508 194/505 399/507
f 401/588 190/584 388/587
f 402/613 190/614 401/615
f 403/509 177/510 404/511
f 404/511 177/510 178/512
f 405/262 178/255 153/239
f 406/267 178/255 405/262
f 407/499 177/490 403/502
f 408/582 178/579 402/581
f 409/443 185/440 184/441
f 410/447 184/441 192/450
f 411/454 192/450 400/455
f 412/452 192/450 411/454
f 413/438 185/440 409/443
f 414/435 148/432 413/438
f 415/480 165/478 385/479
f 416/266 153/239 395/265
f 417/148 141/113 423/154
f 418/144 141/113 312/138
f 419/137 141/113 420/143
f 420/143 141/113 417/148
f 421/130 141/113 419/137
f 422/48 292/35 372/43
f 423/154 141/113 424/150
f 424/150 141/113 418/144
usemtl Tile_+032_+023_L19_000033_untextured
