mtllib Tile_+032_+023_L20_0001020.mtl
v 6.40369620e+03 5.54803462e+03 3.15150364e+00
v 6.40598309e+03 5.54713377e+03 3.25936856e+00
v 6.40051350e+03 5.54801703e+03 3.28323512e+00
v 6.39984379e+03 5.54890303e+03 3.27687382e+00
v 6.40036987e+03 5.54855513e+03 3.16447397e+00
v 6.40111691e+03 5.56018617e+03 3.14451640e+00
v 6.39768851e+03 5.56049098e+03 3.08325268e+00
v 6.39756598e+03 5.55227887e+03 3.12910980e+00
v 6.39690020e+03 5.55184410e+03 3.26851493e+00
v 6.39692160e+03 5.55343311e+03 3.08285010e+00
v 6.39651897e+03 5.55090362e+03 3.07016025e+00
v 6.39815633e+03 5.55100755e+03 3.01444489e+00
v 6.39995579e+03 5.54665348e+03 3.08227155e+00
v 6.39879076e+03 5.54756209e+03 3.28169598e+00
v 6.40158179e+03 5.54811802e+03 3.14682566e+00
v 6.40204786e+03 5.54842794e+03 3.37378402e+00
v 6.40043460e+03 5.54975841e+03 3.29624218e+00
v 6.39966093e+03 5.54990027e+03 3.59053237e+00
v 6.40460846e+03 5.55221192e+03 3.23269702e+00
v 6.40532005e+03 5.55321701e+03 3.12103420e+00
v 6.40037621e+03 5.55089569e+03 3.16625425e+00
v 6.40486392e+03 5.55114471e+03 3.44363879e+00
v 6.40418186e+03 5.54592489e+03 3.22995946e+00
v 6.40572466e+03 5.54846586e+03 3.31312429e+00
v 6.40591629e+03 5.54564770e+03 3.61231416e+00
v 6.40356563e+03 5.54275583e+03 3.24367787e+00
v 6.40476425e+03 5.54419127e+03 3.27412983e+00
v 6.40362923e+03 5.53922076e+03 3.21253187e+00
v 6.40582458e+03 5.53803157e+03 3.35868062e+00
v 6.40557193e+03 5.53500747e+03 3.40608125e+00
v 6.39939730e+03 5.54203040e+03 3.15347186e+00
v 6.40089376e+03 5.53566918e+03 3.24243058e+00
v 6.39727876e+03 5.53820664e+03 3.16519573e+00
v 6.39754909e+03 5.53369520e+03 3.38584428e+00
v 6.39932275e+03 5.53261584e+03 3.28870641e+00
v 6.40133859e+03 5.53127270e+03 3.30306010e+00
v 6.40340604e+03 5.53267230e+03 3.36440750e+00
v 6.40430029e+03 5.53378405e+03 3.54768478e+00
v 6.40637342e+03 5.54462841e+03 3.51124421e+00
v 6.40146853e+03 5.55881983e+03 2.99667945e+00
v 6.40361834e+03 5.54986985e+03 3.29134566e+00
v 6.40289081e+03 5.54625656e+03 3.32455776e+00
v 6.40272529e+03 5.54747518e+03 3.20477993e+00
v 6.39928964e+03 5.55683988e+03 3.55620525e+00
v 6.39930980e+03 5.55781432e+03 3.23172869e+00
v 6.39827370e+03 5.55751171e+03 3.06716841e+00
v 6.39794752e+03 5.54760005e+03 3.21122392e+00
v 6.39835582e+03 5.54738988e+03 3.37125225e+00
v 6.39972711e+03 5.55457992e+03 3.05869125e+00
v 6.40173516e+03 5.54910608e+03 3.18886793e+00
v 6.40043859e+03 5.55640433e+03 3.08468595e+00
v 6.39832788e+03 5.55961977e+03 3.29332366e+00
v 6.40140892e+03 5.54985850e+03 3.45378694e+00
v 6.39802251e+03 5.54910403e+03 3.15572166e+00
v 6.39906936e+03 5.55003206e+03 3.26844072e+00
v 6.39954173e+03 5.54792114e+03 3.52842299e+00
v 6.39908514e+03 5.54865084e+03 3.14324247e+00
v 6.40528459e+03 5.53323857e+03 3.36939902e+00
v 6.40467956e+03 5.53453348e+03 4.15445655e+00
v 6.40440461e+03 5.53527234e+03 3.38015748e+00
v 6.40635773e+03 5.53430400e+03 3.54202183e+00
v 6.40625884e+03 5.54031762e+03 3.37171230e+00
v 6.40217778e+03 5.54498708e+03 3.12149644e+00
v 6.40308112e+03 5.53592970e+03 3.18586224e+00
v 6.40174517e+03 5.53357520e+03 3.52863190e+00
v 6.40245437e+03 5.53341437e+03 3.45576182e+00
v 6.40498915e+03 5.53416193e+03 3.65016314e+00
v 6.40494111e+03 5.53495254e+03 3.67136024e+00
v 6.39739034e+03 5.54993162e+03 3.21052816e+00
v 6.40370003e+03 5.53349378e+03 3.64866615e+00
v 6.40240178e+03 5.53445477e+03 3.40136344e+00
v 6.40293760e+03 5.53408113e+03 3.80908267e+00
v 6.40400167e+03 5.53416861e+03 4.26121454e+00
v 6.40202939e+03 5.53679720e+03 3.29171217e+00
v 6.40299845e+03 5.53363329e+03 3.84241888e+00
v 6.40161580e+03 5.53577813e+03 3.46871142e+00
v 6.40123882e+03 5.54060930e+03 3.29775016e+00
v 6.40537966e+03 5.55047279e+03 3.36090447e+00
v 6.40566976e+03 5.54947254e+03 3.52781333e+00
v 6.40429303e+03 5.55915062e+03 3.02190469e+00
v 6.40297374e+03 5.55805789e+03 3.15457507e+00
v 6.39820847e+03 5.54647949e+03 3.10439295e+00
v 6.39748691e+03 5.55832793e+03 3.18569216e+00
v 6.39842720e+03 5.55593364e+03 3.07936916e+00
v 6.40487260e+03 5.53935811e+03 3.42207921e+00
v 6.39635467e+03 5.55738900e+03 2.97259360e+00
v 6.40468516e+03 5.56214340e+03 3.08293991e+00
v 6.39691007e+03 5.54673150e+03 3.06213387e+00
v 6.37869386e+03 5.55332528e+03 3.54935288e+00
v 6.37875678e+03 5.55390021e+03 5.46754304e+00
v 6.38123048e+03 5.53583815e+03 1.02824192e+01
v 6.38103410e+03 5.53618740e+03 9.58979659e+00
v 6.37556514e+03 5.55583772e+03 1.06369857e+01
v 6.37594698e+03 5.55561542e+03 1.10706534e+01
v 6.38262260e+03 5.53207825e+03 1.01513138e+01
v 6.38178814e+03 5.53136892e+03 9.65131269e+00
v 6.38341275e+03 5.53542712e+03 6.71800680e+00
v 6.38283038e+03 5.53800087e+03 7.01774933e+00
v 6.38169830e+03 5.54481844e+03 8.30756080e+00
v 6.38213176e+03 5.54303340e+03 8.76383147e+00
v 6.38163777e+03 5.54506311e+03 8.82372856e+00
v 6.37937591e+03 5.54233811e+03 1.09840658e+01
v 6.37915718e+03 5.54346932e+03 1.08166889e+01
v 6.37942286e+03 5.55646425e+03 6.83628558e+00
v 6.37835341e+03 5.55715237e+03 6.97219716e+00
v 6.37911158e+03 5.55459626e+03 8.10414976e+00
v 6.37899825e+03 5.55500015e+03 8.64442869e+00
v 6.37945785e+03 5.55532042e+03 8.28646086e+00
v 6.37871516e+03 5.55375859e+03 6.96559446e+00
v 6.37903357e+03 5.55523989e+03 6.23358382e+00
v 6.37966294e+03 5.55603802e+03 6.24594950e+00
v 6.37889816e+03 5.55561895e+03 4.94836545e+00
v 6.38368240e+03 5.53430851e+03 5.36185529e+00
v 6.38241611e+03 5.53923071e+03 6.45192911e+00
v 6.38321003e+03 5.53969928e+03 8.76668376e+00
v 6.38215716e+03 5.54003828e+03 5.22624626e+00
v 6.38204638e+03 5.53609014e+03 5.03460888e+00
v 6.38510382e+03 5.53158355e+03 5.47894449e+00
v 6.37693171e+03 5.55998800e+03 8.32867151e+00
v 6.37744731e+03 5.56053800e+03 7.62678473e+00
v 6.38355448e+03 5.53504579e+03 2.96470117e+00
v 6.38399416e+03 5.53750109e+03 3.15975062e+00
v 6.37966855e+03 5.55602208e+03 4.78417953e+00
v 6.37967959e+03 5.55590021e+03 4.15087533e+00
v 6.38240911e+03 5.54078959e+03 3.34299259e+00
v 6.38220905e+03 5.53776917e+03 3.32615806e+00
v 6.38241804e+03 5.53685144e+03 3.33170645e+00
v 6.38202075e+03 5.54195852e+03 3.49020117e+00
v 6.38235409e+03 5.54141476e+03 3.13355132e+00
v 6.38609933e+03 5.55917880e+03 5.80576945e+00
v 6.38541515e+03 5.56116900e+03 6.23858176e+00
v 6.38788711e+03 5.53130575e+03 3.16141001e+00
v 6.39010315e+03 5.53117368e+03 3.38304052e+00
v 6.37993296e+03 5.54913014e+03 5.97964552e+00
v 6.38043130e+03 5.54870879e+03 8.14190289e+00
v 6.38260488e+03 5.53925409e+03 3.06399833e+00
v 6.38402929e+03 5.54042589e+03 3.49128323e+00
v 6.37968165e+03 5.56024575e+03 3.04169176e+00
v 6.37854575e+03 5.56088419e+03 3.22081317e+00
v 6.38075361e+03 5.55425269e+03 3.12334396e+00
v 6.38076711e+03 5.55658702e+03 3.03933189e+00
v 6.38452132e+03 5.55775369e+03 3.28618509e+00
v 6.38414564e+03 5.55730131e+03 3.04619200e+00
v 6.38278598e+03 5.53584773e+03 3.37881405e+00
v 6.38400915e+03 5.53376855e+03 3.30010336e+00
v 6.38500051e+03 5.55733944e+03 3.15138345e+00
v 6.38590968e+03 5.56031577e+03 4.65912213e+00
v 6.38547386e+03 5.55764709e+03 3.68001548e+00
v 6.38530581e+03 5.55774067e+03 4.43014445e+00
v 6.38470689e+03 5.55781055e+03 3.89567891e+00
v 6.37872557e+03 5.55666531e+03 5.49375518e+00
v 6.38582327e+03 5.55782552e+03 4.58355134e+00
v 6.38627327e+03 5.55804812e+03 3.49816950e+00
v 6.37772940e+03 5.54829147e+03 1.02219711e+01
v 6.37747843e+03 5.54971539e+03 1.03655022e+01
v 6.39487692e+03 5.56132796e+03 2.99944852e+00
v 6.39370105e+03 5.56104416e+03 2.96144211e+00
v 6.39480571e+03 5.54740941e+03 3.27956487e+00
v 6.39604761e+03 5.54844493e+03 3.02969197e+00
v 6.39507886e+03 5.55857296e+03 3.54455179e+00
v 6.39547611e+03 5.55763302e+03 3.08230155e+00
v 6.39471100e+03 5.54959207e+03 3.18750835e+00
v 6.39505483e+03 5.55212930e+03 3.00261580e+00
v 6.39158719e+03 5.54468924e+03 3.03145445e+00
v 6.39280677e+03 5.53965060e+03 3.16223298e+00
v 6.39479964e+03 5.55923773e+03 3.22841688e+00
v 6.39568614e+03 5.55856256e+03 3.14750391e+00
v 6.39583137e+03 5.55518011e+03 3.04184546e+00
v 6.39611384e+03 5.55395227e+03 3.21568902e+00
v 6.39022136e+03 5.54297714e+03 3.14481780e+00
v 6.39374853e+03 5.54580939e+03 3.07492239e+00
v 6.39461997e+03 5.54847447e+03 3.15770828e+00
v 6.39250948e+03 5.54880390e+03 3.01434922e+00
v 6.39245732e+03 5.55723844e+03 3.11916795e+00
v 6.39161347e+03 5.55903908e+03 3.26874125e+00
v 6.38133763e+03 5.53709493e+03 4.41696868e+00
v 6.38513607e+03 5.53226256e+03 8.81814698e+00
v 6.38536174e+03 5.53121301e+03 7.55321197e+00
v 6.38259277e+03 5.54040671e+03 7.62505665e+00
v 6.38157165e+03 5.54401103e+03 7.40956657e+00
v 6.38256166e+03 5.54119636e+03 8.81473884e+00
v 6.38201685e+03 5.54220090e+03 7.72574008e+00
v 6.38353984e+03 5.53785181e+03 9.02453590e+00
v 6.38232278e+03 5.54093143e+03 6.25166138e+00
v 6.38657638e+03 5.55809678e+03 5.79253982e+00
v 6.38551238e+03 5.55824441e+03 5.89068907e+00
v 6.38624079e+03 5.55798069e+03 4.69061140e+00
v 6.38154202e+03 5.54347361e+03 3.39908924e+00
v 6.38146126e+03 5.54396016e+03 5.64050391e+00
v 6.38343134e+03 5.55882368e+03 6.06548950e+00
v 6.38387690e+03 5.55785967e+03 5.75525953e+00
v 6.38612674e+03 5.55865916e+03 6.11059762e+00
v 6.38506018e+03 5.56124313e+03 6.41196130e+00
v 6.38527023e+03 5.56214122e+03 6.08259072e+00
v 6.38386271e+03 5.55826086e+03 6.11826645e+00
v 6.38333690e+03 5.55963949e+03 5.97244797e+00
v 6.38363400e+03 5.55892061e+03 5.22379018e+00
v 6.38359432e+03 5.55940646e+03 6.38772609e+00
v 6.38224147e+03 5.54183146e+03 4.41768040e+00
v 6.38291493e+03 5.56135290e+03 6.26421827e+00
v 6.39459872e+03 5.55738878e+03 3.01737852e+00
v 6.39569069e+03 5.55642845e+03 3.22643463e+00
v 6.39231765e+03 5.53216986e+03 3.30726495e+00
v 6.38636977e+03 5.55837234e+03 3.52486082e+00
v 6.38461192e+03 5.55805389e+03 4.88141086e+00
v 6.38108044e+03 5.54556237e+03 3.29526440e+00
v 6.38491092e+03 5.53204468e+03 4.19487273e+00
v 6.38246632e+03 5.53575893e+03 4.16064907e+00
v 6.38481227e+03 5.53206186e+03 5.03583152e+00
v 6.38459142e+03 5.53158385e+03 6.29909899e+00
v 6.38465477e+03 5.53304821e+03 6.10660056e+00
v 6.38463263e+03 5.53311325e+03 3.49796836e+00
v 6.38474771e+03 5.53268765e+03 5.16158133e+00
v 6.38396273e+03 5.53624590e+03 8.41746409e+00
v 6.38492594e+03 5.53182728e+03 7.39801907e+00
v 6.38425354e+03 5.53420760e+03 7.59996680e+00
v 6.38523463e+03 5.56220356e+03 3.55180754e+00
v 6.39522807e+03 5.55958587e+03 3.00064484e+00
v 6.38296166e+03 5.56262415e+03 3.65020748e+00
v 6.38296012e+03 5.56061450e+03 4.75536724e+00
v 6.38276147e+03 5.56194714e+03 5.29605811e+00
v 6.38256268e+03 5.56241126e+03 4.37887676e+00
v 6.37999375e+03 5.55610845e+03 7.79280728e+00
v 6.38020101e+03 5.55593083e+03 8.84558013e+00
v 6.38030456e+03 5.54986582e+03 8.37664971e+00
v 6.38130539e+03 5.54617399e+03 9.01557444e+00
v 6.38100879e+03 5.54600234e+03 6.78735311e+00
v 6.38062389e+03 5.54660412e+03 5.50225302e+00
v 6.38111749e+03 5.54552419e+03 7.74596826e+00
v 6.38098122e+03 5.54763217e+03 8.51691519e+00
v 6.37909158e+03 5.55533920e+03 7.11647619e+00
v 6.37881744e+03 5.55508874e+03 4.26779565e+00
v 6.37848790e+03 5.55437011e+03 3.34253190e+00
v 6.37808406e+03 5.55764197e+03 6.84138711e+00
v 6.37822174e+03 5.55875166e+03 4.47565574e+00
v 6.37725985e+03 5.55791303e+03 8.87878376e+00
v 6.37715800e+03 5.56061248e+03 4.37965957e+00
v 6.37672403e+03 5.56218669e+03 5.95064388e+00
v 6.37769379e+03 5.55988336e+03 5.97671396e+00
v 6.37762227e+03 5.55933893e+03 6.93223984e+00
v 6.37822882e+03 5.55772090e+03 4.44609816e+00
v 6.38125828e+03 5.54541722e+03 5.94309855e+00
v 6.37980529e+03 5.54806527e+03 3.97918256e+00
v 6.37938191e+03 5.55184914e+03 7.03455177e+00
v 6.38132575e+03 5.53815520e+03 4.52696585e+00
v 6.38039522e+03 5.54659303e+03 3.57800397e+00
v 6.38017661e+03 5.55579694e+03 8.52411947e+00
v 6.37628150e+03 5.56233972e+03 8.28713289e+00
v 6.37710844e+03 5.56144942e+03 3.56540942e+00
v 6.37859425e+03 5.55821961e+03 3.49046958e+00
v 6.37670138e+03 5.56252612e+03 3.76664900e+00
v 6.37943077e+03 5.55621042e+03 5.16743936e+00
v 6.37958306e+03 5.55617841e+03 4.09535810e+00
v 6.38185931e+03 5.53847855e+03 3.72706452e+00
v 6.38106975e+03 5.54579958e+03 3.95963808e+00
v 6.37732569e+03 5.56107325e+03 7.10737377e+00
v 6.37908037e+03 5.55359130e+03 8.11516752e+00
v 6.37987357e+03 5.55646879e+03 8.72733140e+00
v 6.38552586e+03 5.53278006e+03 3.39044653e+00
v 6.38579712e+03 5.53347860e+03 3.08738976e+00
v 6.38513715e+03 5.53310929e+03 3.19174070e+00
v 6.38493440e+03 5.53254519e+03 3.33612158e+00
v 6.38533683e+03 5.53164901e+03 3.13312019e+00
v 6.38668080e+03 5.53272752e+03 3.42881295e+00
v 6.38772548e+03 5.53283637e+03 3.30082730e+00
v 6.38648005e+03 5.54472034e+03 3.09940893e+00
v 6.38737592e+03 5.54411921e+03 3.31987195e+00
v 6.38906808e+03 5.53173945e+03 3.31897084e+00
v 6.39052424e+03 5.54698058e+03 3.06651387e+00
v 6.38982746e+03 5.55342647e+03 2.99204423e+00
v 6.39075146e+03 5.55109822e+03 3.16780408e+00
v 6.38816920e+03 5.55044738e+03 3.20661396e+00
v 6.38710700e+03 5.55023177e+03 3.21364454e+00
v 6.38476709e+03 5.55313989e+03 3.03762954e+00
v 6.38700609e+03 5.55348579e+03 3.16646849e+00
v 6.38737741e+03 5.54660830e+03 3.35567059e+00
v 6.38716311e+03 5.54528436e+03 3.26647753e+00
v 6.38535581e+03 5.53723889e+03 3.19070528e+00
v 6.38573349e+03 5.53801290e+03 3.06907839e+00
v 6.38797277e+03 5.54301329e+03 3.07082420e+00
v 6.38869350e+03 5.54074180e+03 3.24968436e+00
v 6.38724077e+03 5.53520024e+03 3.14843860e+00
v 6.38770479e+03 5.55179050e+03 3.07813246e+00
v 6.38635083e+03 5.54289783e+03 3.13768178e+00
v 6.38827836e+03 5.54464763e+03 3.10730222e+00
v 6.38985764e+03 5.54447703e+03 3.21818729e+00
v 6.38732839e+03 5.54793211e+03 3.11853301e+00
v 6.38362405e+03 5.54542126e+03 3.18390402e+00
v 6.38390468e+03 5.54329571e+03 3.20439431e+00
v 6.38972371e+03 5.53405409e+03 3.15125367e+00
v 6.38475946e+03 5.54301589e+03 3.10674026e+00
v 6.38534718e+03 5.54480762e+03 3.10754251e+00
v 6.38590780e+03 5.54671366e+03 3.20589078e+00
v 6.38387796e+03 5.54116736e+03 3.28474945e+00
v 6.38452961e+03 5.54621799e+03 3.46544307e+00
v 6.38208625e+03 5.54386826e+03 3.10433933e+00
v 6.38309939e+03 5.54281232e+03 3.17767233e+00
v 6.38450802e+03 5.53356027e+03 3.06888020e+00
v 6.38430918e+03 5.53475583e+03 2.97330673e+00
v 6.38280076e+03 5.54060981e+03 3.14078217e+00
v 6.38057939e+03 5.54731384e+03 3.17584965e+00
v 6.37927882e+03 5.55238518e+03 3.42090577e+00
v 6.38021324e+03 5.55334369e+03 3.10963073e+00
v 6.38041102e+03 5.55169427e+03 3.23823402e+00
v 6.37922035e+03 5.55004365e+03 3.61879242e+00
v 6.37947321e+03 5.55098969e+03 3.76855754e+00
v 6.38175140e+03 5.54331804e+03 3.19533104e+00
v 6.38423685e+03 5.55819825e+03 4.94464743e+00
v 6.38312613e+03 5.53633033e+03 2.91597959e+00
v 6.38199088e+03 5.53957605e+03 4.22940559e+00
v 6.38593406e+03 5.55992236e+03 3.39331557e+00
v 6.38615270e+03 5.56051744e+03 2.97981095e+00
v 6.38349283e+03 5.56020097e+03 3.59284518e+00
v 6.38408867e+03 5.55920708e+03 3.44726408e+00
v 6.38719704e+03 5.55713704e+03 2.97575124e+00
v 6.38682789e+03 5.55880020e+03 2.91834521e+00
v 6.38634363e+03 5.55728692e+03 3.21906930e+00
v 6.38174107e+03 5.56173139e+03 3.43135227e+00
v 6.38135140e+03 5.56223939e+03 3.06467376e+00
v 6.38397568e+03 5.55895545e+03 4.24597121e+00
v 6.38899625e+03 5.54751151e+03 3.20442850e+00
v 6.38394098e+03 5.55987524e+03 3.59196175e+00
v 6.38367885e+03 5.56107909e+03 3.38682666e+00
v 6.39442124e+03 5.56070635e+03 3.22514431e+00
v 6.37779039e+03 5.55716505e+03 9.51104252e+00
v 6.37849695e+03 5.55666612e+03 8.30191595e+00
v 6.38031417e+03 5.54702960e+03 3.34733917e+00
v 6.38394362e+03 5.54741940e+03 3.10228020e+00
v 6.38265207e+03 5.55175187e+03 3.13032612e+00
v 6.38202955e+03 5.54924467e+03 3.10737417e+00
v 6.37974133e+03 5.55572227e+03 3.75722910e+00
v 6.38009477e+03 5.55537059e+03 3.64466205e+00
v 6.37967290e+03 5.54887644e+03 3.35219646e+00
v 6.37879502e+03 5.55661038e+03 3.71262789e+00
v 6.37911616e+03 5.55225109e+03 4.20823062e+00
v 6.38266815e+03 5.54634910e+03 3.27928487e+00
v 6.38244337e+03 5.56215112e+03 2.93706102e+00
v 6.37838851e+03 5.55964837e+03 3.10486563e+00
v 6.37947891e+03 5.55027429e+03 5.45903934e+00
v 6.37753534e+03 5.55989733e+03 3.53012767e+00
v 6.37721171e+03 5.56058039e+03 3.44205788e+00
v 6.37765387e+03 5.56137962e+03 3.19523066e+00
v 6.37923609e+03 5.56173878e+03 2.96016753e+00
v 6.38095376e+03 5.55829869e+03 3.04645108e+00
v 6.37862876e+03 5.55737741e+03 3.39816601e+00
v 6.38235563e+03 5.56118687e+03 2.96765802e+00
v 6.38154428e+03 5.56063795e+03 3.03319678e+00
v 6.38224206e+03 5.55739830e+03 3.35454880e+00
v 6.38217681e+03 5.55548067e+03 3.14888243e+00
v 6.37926091e+03 5.55690484e+03 3.06513206e+00
v 6.37530316e+03 5.56153058e+03 9.50597118e+00
v 6.37606432e+03 5.56091760e+03 9.36369717e+00
v 6.37555393e+03 5.56231419e+03 9.41888470e+00
v 6.37525722e+03 5.56079765e+03 1.01627259e+01
v 6.37601455e+03 5.56177480e+03 9.13291229e+00
v 6.37524355e+03 5.55800878e+03 1.03253956e+01
v 6.37556187e+03 5.55719783e+03 1.07956269e+01
v 6.37616281e+03 5.55580915e+03 1.12647379e+01
v 6.37658754e+03 5.55581997e+03 1.11723908e+01
v 6.37650774e+03 5.55504975e+03 1.27639139e+01
v 6.37652551e+03 5.55457794e+03 1.24072968e+01
v 6.37596818e+03 5.55494220e+03 1.15684613e+01
v 6.37692120e+03 5.55567837e+03 1.07468629e+01
v 6.37650441e+03 5.55546499e+03 1.25372554e+01
v 6.37618269e+03 5.55542028e+03 1.22236653e+01
v 6.37647710e+03 5.55633716e+03 1.07938374e+01
v 6.37685806e+03 5.55602086e+03 1.04293192e+01
v 6.37852350e+03 5.54675482e+03 1.08969126e+01
v 6.37941599e+03 5.54531992e+03 1.10053524e+01
v 6.37926161e+03 5.54476874e+03 1.10671311e+01
v 6.37888127e+03 5.54569766e+03 1.10822139e+01
v 6.37890188e+03 5.54296904e+03 1.09375625e+01
v 6.37803440e+03 5.54400663e+03 1.05498497e+01
v 6.37867079e+03 5.54438659e+03 1.04219779e+01
v 6.37838993e+03 5.54529957e+03 1.05239992e+01
v 6.37969500e+03 5.54434947e+03 1.10711808e+01
v 6.38018666e+03 5.54258226e+03 1.10062637e+01
v 6.37582667e+03 5.55502693e+03 1.05451064e+01
v 6.37825572e+03 5.54296461e+03 1.13826694e+01
v 6.37987906e+03 5.54648200e+03 1.04318780e+01
v 6.37762683e+03 5.54353578e+03 1.09754840e+01
v 6.37717548e+03 5.54308426e+03 1.06437553e+01
v 6.37622813e+03 5.55455034e+03 1.11509938e+01
v 6.37682615e+03 5.55438891e+03 1.20326910e+01
v 6.37703601e+03 5.55518577e+03 1.18495572e+01
v 6.37679681e+03 5.55541597e+03 1.23722181e+01
v 6.37686690e+03 5.55453942e+03 1.13574990e+01
v 6.37719652e+03 5.55485981e+03 1.04241968e+01
v 6.37747349e+03 5.55168449e+03 1.09350621e+01
v 6.37807333e+03 5.55159720e+03 1.05044008e+01
v 6.37797263e+03 5.55021151e+03 1.05658764e+01
v 6.37749484e+03 5.55055165e+03 1.06254438e+01
v 6.37828917e+03 5.54866467e+03 1.05781883e+01
v 6.37656132e+03 5.55311619e+03 1.08153784e+01
v 6.37701776e+03 5.55191422e+03 1.08734710e+01
v 6.37798169e+03 5.54939190e+03 1.06314060e+01
v 6.37729979e+03 5.54232183e+03 1.08956316e+01
v 6.37705439e+03 5.55261148e+03 1.10856809e+01
v 6.37577587e+03 5.55470724e+03 1.01933224e+01
v 6.37654359e+03 5.55427064e+03 1.11524573e+01
v 6.37684151e+03 5.55412317e+03 1.10328086e+01
v 6.37516580e+03 5.55651008e+03 1.05208007e+01
v 6.37597686e+03 5.55616966e+03 1.10070617e+01
v 6.38421315e+03 5.53129736e+03 1.05148247e+01
v 6.38319297e+03 5.53216860e+03 1.05320700e+01
v 6.38244845e+03 5.53439503e+03 1.11263493e+01
v 6.38352729e+03 5.53453953e+03 1.01415011e+01
v 6.38371259e+03 5.53234203e+03 1.05002549e+01
v 6.38390169e+03 5.53369482e+03 1.04343262e+01
v 6.38280482e+03 5.53365733e+03 1.09831606e+01
v 6.38229089e+03 5.53328203e+03 1.08060831e+01
v 6.38244835e+03 5.53381443e+03 1.11121740e+01
v 6.38270169e+03 5.53292938e+03 1.09126836e+01
v 6.38059991e+03 5.54163843e+03 1.08058360e+01
v 6.38133169e+03 5.54193121e+03 1.04213436e+01
v 6.38084011e+03 5.54089187e+03 1.05344087e+01
v 6.38035455e+03 5.54080767e+03 1.04757153e+01
v 6.37995133e+03 5.53973154e+03 9.59543470e+00
v 6.38035737e+03 5.53982811e+03 1.00998623e+01
v 6.38026568e+03 5.53913851e+03 9.62180262e+00
v 6.38006369e+03 5.53309127e+03 1.06111190e+01
v 6.37997913e+03 5.53262702e+03 1.02807109e+01
v 6.38049758e+03 5.53314328e+03 9.77521602e+00
v 6.37985287e+03 5.53465033e+03 1.06500923e+01
v 6.38012257e+03 5.53424366e+03 1.07370459e+01
v 6.38179257e+03 5.53399982e+03 1.00488940e+01
v 6.38150145e+03 5.53474482e+03 1.05074475e+01
v 6.37783723e+03 5.53433442e+03 9.75960431e+00
v 6.37849640e+03 5.53396740e+03 1.09583350e+01
v 6.37730700e+03 5.54190305e+03 1.00266268e+01
v 6.37716794e+03 5.54291291e+03 9.77069870e+00
v 6.37863921e+03 5.54114702e+03 1.07624411e+01
v 6.37829338e+03 5.54171498e+03 1.11890253e+01
v 6.38108563e+03 5.53909632e+03 1.08700564e+01
v 6.38056710e+03 5.53886631e+03 1.04449188e+01
v 6.37987571e+03 5.54071650e+03 1.02944975e+01
v 6.37924169e+03 5.54054175e+03 1.03061836e+01
v 6.37979524e+03 5.53512468e+03 9.81288318e+00
v 6.37961646e+03 5.54140874e+03 1.04100431e+01
v 6.37814794e+03 5.54067272e+03 9.82706579e+00
v 6.37759742e+03 5.54121444e+03 1.00527210e+01
v 6.38030632e+03 5.53523871e+03 1.03734527e+01
v 6.37727386e+03 5.54135355e+03 9.83978941e+00
v 6.38137088e+03 5.54033945e+03 1.04700642e+01
v 6.38162385e+03 5.54127357e+03 1.00818300e+01
v 6.37972097e+03 5.53286069e+03 1.05177205e+01
v 6.37927087e+03 5.53274399e+03 9.82096289e+00
v 6.37959114e+03 5.53334548e+03 1.02695632e+01
v 6.37833247e+03 5.53436690e+03 1.07225847e+01
v 6.37831724e+03 5.53467883e+03 9.95759544e+00
v 6.38107152e+03 5.53495512e+03 1.05484611e+01
v 6.38013728e+03 5.53370225e+03 9.94080621e+00
v 6.37984421e+03 5.53394594e+03 9.95001686e+00
v 6.37932541e+03 5.53370417e+03 9.91438782e+00
v 6.37975166e+03 5.53355530e+03 1.01123674e+01
v 6.38099863e+03 5.53545831e+03 1.01551187e+01
v 6.38126249e+03 5.53685598e+03 1.03682764e+01
v 6.38092709e+03 5.53804274e+03 1.00374369e+01
v 6.37704735e+03 5.55101271e+03 1.05099229e+01
v 6.37893194e+03 5.54208703e+03 1.10503124e+01
v 6.37799678e+03 5.54123116e+03 1.08201505e+01
v 6.38150284e+03 5.53530415e+03 1.05007643e+01
v 6.38111191e+03 5.53460624e+03 1.04455098e+01
v 6.38215685e+03 5.53421969e+03 1.09594383e+01
v 6.38171407e+03 5.53534028e+03 1.08662423e+01
v 6.38048385e+03 5.53440950e+03 1.08360171e+01
v 6.38102717e+03 5.53396561e+03 9.83190045e+00
v 6.38284611e+03 5.53626836e+03 1.03841073e+01
v 6.38165196e+03 5.53662515e+03 1.09180414e+01
v 6.38217522e+03 5.53618596e+03 1.09010092e+01
v 6.38227562e+03 5.53951826e+03 1.02776774e+01
v 6.38130542e+03 5.53824558e+03 1.07593352e+01
v 6.38164862e+03 5.53741816e+03 1.07753483e+01
v 6.38340449e+03 5.53539880e+03 1.04010582e+01
v 6.38425113e+03 5.53231270e+03 1.00496604e+01
v 6.38330496e+03 5.53127036e+03 1.05485347e+01
v 6.37568211e+03 5.55803967e+03 1.05978431e+01
v 6.37589428e+03 5.55911688e+03 1.03770588e+01
v 6.37586919e+03 5.56031079e+03 1.01817467e+01
v 6.37500079e+03 5.55884523e+03 1.05319270e+01
v 6.37501680e+03 5.55978207e+03 1.05884440e+01
v 6.37521425e+03 5.55727270e+03 1.02266732e+01
v 6.37541470e+03 5.55914079e+03 1.06099216e+01
v 6.37746404e+03 5.55708873e+03 1.02258516e+01
v 6.37628283e+03 5.55855952e+03 9.87639921e+00
v 6.37598232e+03 5.55717953e+03 1.09818450e+01
v 6.37502828e+03 5.55807091e+03 9.34715813e+00
v 6.37767836e+03 5.54484603e+03 1.02277801e+01
v 6.37813595e+03 5.54580610e+03 1.02211944e+01
v 6.37722337e+03 5.55301602e+03 1.08573187e+01
v 6.37767376e+03 5.54777411e+03 9.63033109e+00
v 6.38161142e+03 5.53379530e+03 9.73971191e+00
v 6.38008440e+03 5.53463815e+03 1.08785552e+01
v 6.38235420e+03 5.53838113e+03 1.01813760e+01
v 6.38269056e+03 5.53914567e+03 9.74497158e+00
v 6.37733017e+03 5.54560835e+03 9.62124880e+00
v 6.37748909e+03 5.54410865e+03 1.01048935e+01
v 6.37749191e+03 5.54372604e+03 1.04760392e+01
v 6.38039935e+03 5.54466665e+03 1.00171221e+01
v 6.38093452e+03 5.54348356e+03 1.02779954e+01
v 6.37915504e+03 5.54716611e+03 1.08466561e+01
v 6.37711305e+03 5.54463303e+03 9.77150579e+00
v 6.38128357e+03 5.54386623e+03 9.60615194e+00
v 6.38013694e+03 5.54784995e+03 9.54309200e+00
v 6.37768335e+03 5.55282892e+03 1.01441569e+01
v 6.37924412e+03 5.53430939e+03 1.07574045e+01
v 6.37888614e+03 5.53375813e+03 1.07448421e+01
v 6.37969131e+03 5.53430594e+03 9.95925952e+00
v 6.37611280e+03 5.53743898e+03 9.64838677e+00
v 6.37643501e+03 5.54362967e+03 9.60041995e+00
v 6.37659710e+03 5.54142881e+03 9.58399579e+00
v 6.37769096e+03 5.55563696e+03 9.47538007e+00
v 6.37854188e+03 5.53851110e+03 9.61176748e+00
v 6.37644808e+03 5.55152798e+03 9.70385225e+00
v 6.37591126e+03 5.55157953e+03 9.60370056e+00
v 6.37698948e+03 5.55037356e+03 9.55638967e+00
v 6.37690599e+03 5.54976094e+03 9.57068724e+00
v 6.37624201e+03 5.55279413e+03 9.52195967e+00
v 6.37887828e+03 5.55380578e+03 9.09101252e+00
v 6.37918309e+03 5.54936209e+03 9.98357720e+00
v 6.38220504e+03 5.54231601e+03 9.01609544e+00
v 6.37931539e+03 5.53964875e+03 9.69160844e+00
v 6.37677112e+03 5.55467420e+03 1.26148339e+01
v 6.37937352e+03 5.53506357e+03 9.64377277e+00
v 6.37860970e+03 5.53524559e+03 9.71026758e+00
v 6.37795154e+03 5.53356713e+03 9.75227798e+00
v 6.37857386e+03 5.53340541e+03 9.96277788e+00
v 6.37950898e+03 5.53439708e+03 9.82452884e+00
v 6.37900776e+03 5.53481603e+03 9.94991765e+00
v 6.37870369e+03 5.53175833e+03 9.64281864e+00
v 6.38034424e+03 5.53197232e+03 9.68851173e+00
v 6.38105615e+03 5.53332173e+03 9.62643570e+00
v 6.38074099e+03 5.53756476e+03 9.59424001e+00
v 6.38018431e+03 5.53580703e+03 9.68001116e+00
v 6.38044621e+03 5.53831836e+03 9.66656124e+00
v 6.38319714e+03 5.53697096e+03 9.57396895e+00
v 6.38321467e+03 5.53877438e+03 8.97112317e+00
v 6.38447070e+03 5.53482688e+03 8.54035477e+00
v 6.38196301e+03 5.53239462e+03 9.61213045e+00
v 6.37963439e+03 5.53219224e+03 9.80781948e+00
v 6.38459396e+03 5.53388362e+03 8.98340972e+00
v 6.38410325e+03 5.53544032e+03 9.04468347e+00
v 6.37981602e+03 5.55131433e+03 8.84574865e+00
v 6.38044210e+03 5.54855542e+03 8.97583015e+00
v 6.38153701e+03 5.54450772e+03 9.26697242e+00
v 6.38395614e+03 5.53617106e+03 9.17108176e+00
v 6.38078497e+03 5.54760041e+03 9.16733098e+00
v 6.38000194e+03 5.55030331e+03 9.12737773e+00
v 6.37903965e+03 5.55039109e+03 1.00991115e+01
v 6.37951643e+03 5.54841336e+03 1.01798788e+01
v 6.37718064e+03 5.55913598e+03 7.84987026e+00
v 6.37683421e+03 5.55931181e+03 8.90090552e+00
v 6.37888126e+03 5.55640162e+03 8.54371731e+00
v 6.37949241e+03 5.55598898e+03 8.64139004e+00
v 6.37797408e+03 5.55429148e+03 9.76481075e+00
v 6.38482015e+03 5.53264517e+03 7.47268483e+00
v 6.37567131e+03 5.55431157e+03 9.52396185e+00
v 6.37900229e+03 5.55664976e+03 7.82233548e+00
v 6.37859613e+03 5.55618417e+03 8.70854914e+00
v 6.39400546e+03 5.55857945e+03 3.03733194e+00
v 6.37941352e+03 5.55249316e+03 9.05052896e+00
v 6.38373586e+03 5.54256388e+03 3.39490909e+00
v 6.38268911e+03 5.54139093e+03 3.02600213e+00
v 6.39048939e+03 5.55636829e+03 3.01562247e+00
v 6.39029499e+03 5.53594214e+03 3.21834198e+00
v 6.37964812e+03 5.55018366e+03 3.16526745e+00
v 6.37973022e+03 5.55106747e+03 3.39741847e+00
v 6.38750028e+03 5.56134050e+03 2.87721355e+00
v 6.37755481e+03 5.56027271e+03 3.22137786e+00
v 6.38322584e+03 5.55603390e+03 3.00709524e+00
v 6.38301045e+03 5.56098848e+03 3.13698962e+00
v 6.38531827e+03 5.55024492e+03 3.09347582e+00
v 6.38453483e+03 5.55234429e+03 3.24961082e+00
v 6.38973338e+03 5.55019962e+03 3.05968224e+00
v 6.38533349e+03 5.55524686e+03 2.90568964e+00
v 6.39343826e+03 5.55957311e+03 2.96914309e+00
v 6.39215503e+03 5.56086060e+03 3.01484049e+00
v 6.38052352e+03 5.55562960e+03 3.24246657e+00
v 6.38344680e+03 5.55880421e+03 3.04014546e+00
v 6.38653817e+03 5.55805298e+03 3.11421458e+00
v 6.38863228e+03 5.55763658e+03 3.11677607e+00
v 6.39639295e+03 5.55940487e+03 3.13691675e+00
v 6.37990629e+03 5.55606501e+03 3.53478575e+00
v 6.38461662e+03 5.55506369e+03 3.03172287e+00
v 6.37910902e+03 5.55830535e+03 3.16044839e+00
v 6.39226452e+03 5.55242514e+03 3.06253991e+00
v 6.37890264e+03 5.55361715e+03 3.30120947e+00
v 6.38569607e+03 5.54317361e+03 3.33702537e+00
v 6.38274466e+03 5.53718623e+03 3.04398222e+00
v 6.39037570e+03 5.55944010e+03 3.14452969e+00
v 6.38867755e+03 5.55941915e+03 3.30976053e+00
v 6.39290857e+03 5.55859456e+03 3.26979842e+00
v 6.38950585e+03 5.56052283e+03 2.99327046e+00
v 6.37487500e+03 5.55799401e+03 9.32595839e+00
v 6.37487500e+03 5.55770560e+03 9.52066528e+00
v 6.37487500e+03 5.56094390e+03 1.03870443e+01
v 6.37487500e+03 5.56016407e+03 1.05549263e+01
v 6.37487500e+03 5.54212806e+03 9.59107459e+00
v 6.37487500e+03 5.54029117e+03 9.67342685e+00
v 6.37487500e+03 5.55604630e+03 1.05948013e+01
v 6.37487500e+03 5.55641953e+03 1.04935411e+01
v 6.37487500e+03 5.53721594e+03 9.68173043e+00
v 6.37487500e+03 5.53805157e+03 9.64343729e+00
v 6.37487500e+03 5.54279116e+03 9.58119103e+00
v 6.37487500e+03 5.55824869e+03 9.33675756e+00
v 6.37487500e+03 5.55437954e+03 9.72533951e+00
v 6.37487500e+03 5.55413495e+03 9.73800563e+00
v 6.37487500e+03 5.56099227e+03 1.03146484e+01
v 6.37487500e+03 5.54574240e+03 9.63974779e+00
v 6.37487500e+03 5.54762232e+03 9.61527477e+00
v 6.37487500e+03 5.55846877e+03 9.49877226e+00
v 6.37487500e+03 5.55470107e+03 1.03104491e+01
v 6.37487500e+03 5.53225389e+03 9.66253043e+00
v 6.37487500e+03 5.53247499e+03 9.67617124e+00
v 6.37487500e+03 5.53369392e+03 9.66043693e+00
v 6.37487500e+03 5.53258285e+03 9.67752694e+00
v 6.37487500e+03 5.54304859e+03 9.58326381e+00
v 6.37487500e+03 5.54418262e+03 9.54507826e+00
v 6.37487500e+03 5.54487175e+03 9.54179842e+00
v 6.37487500e+03 5.55303536e+03 9.59725581e+00
v 6.37487500e+03 5.55725820e+03 9.91350932e+00
v 6.37487500e+03 5.55287372e+03 9.58220833e+00
v 6.37487500e+03 5.53601276e+03 9.66771652e+00
v 6.37487500e+03 5.53185117e+03 9.66844783e+00
v 6.37487500e+03 5.55512351e+03 1.05993436e+01
v 6.37487500e+03 5.55480620e+03 1.04922460e+01
v 6.37487500e+03 5.55861763e+03 9.85580946e+00
v 6.37487500e+03 5.55962711e+03 1.04468793e+01
v 6.37487500e+03 5.55917369e+03 1.04268895e+01
v 6.37487500e+03 5.55885987e+03 1.01428125e+01
v 6.37487500e+03 5.55557153e+03 1.06737859e+01
v 6.37487500e+03 5.55695655e+03 1.00479064e+01
v 6.37487500e+03 5.56221017e+03 1.02525506e+01
v 6.37487500e+03 5.56190784e+03 1.01811668e+01
v 6.37487500e+03 5.56148011e+03 1.03123633e+01
v 6.37487500e+03 5.56172077e+03 1.01237408e+01
v 6.40637500e+03 5.53689567e+03 3.38737830e+00
v 6.40637500e+03 5.53503417e+03 3.41918127e+00
v 6.40637500e+03 5.54377497e+03 3.26150279e+00
v 6.40637500e+03 5.54462704e+03 3.51095005e+00
v 6.40637500e+03 5.54463568e+03 3.51051902e+00
v 6.40637500e+03 5.54658602e+03 3.44247995e+00
v 6.40637500e+03 5.54747681e+03 3.22581702e+00
v 6.40637500e+03 5.54831715e+03 3.24287489e+00
v 6.40637500e+03 5.53783188e+03 3.34563754e+00
v 6.40637500e+03 5.54915266e+03 3.24743112e+00
v 6.40637500e+03 5.54883317e+03 3.35123684e+00
v 6.40637500e+03 5.56244711e+03 3.05797389e+00
v 6.40637500e+03 5.53843549e+03 3.34580768e+00
v 6.40637500e+03 5.54319546e+03 3.24827088e+00
v 6.40637500e+03 5.53344322e+03 3.42995787e+00
v 6.40637500e+03 5.53375610e+03 3.43373880e+00
v 6.40637500e+03 5.53431850e+03 3.53995361e+00
v 6.40637500e+03 5.54055537e+03 3.36240965e+00
v 6.40637500e+03 5.55026969e+03 3.14404713e+00
v 6.40637500e+03 5.55161597e+03 3.14754221e+00
v 6.40637500e+03 5.56168299e+03 3.04049962e+00
v 6.40637500e+03 5.55755747e+03 3.09861204e+00
v 6.40637500e+03 5.54033223e+03 3.36816334e+00
v 6.40637500e+03 5.53423128e+03 3.53304492e+00
v 6.40637500e+03 5.53259737e+03 3.49824288e+00
v 6.40637500e+03 5.55610905e+03 3.11585739e+00
v 6.40637500e+03 5.55266581e+03 3.15450415e+00
v 6.38538536e+03 5.53112500e+03 7.63411954e+00
v 6.38538028e+03 5.53112500e+03 7.53606493e+00
v 6.38535787e+03 5.53112500e+03 3.14285562e+00
v 6.38576258e+03 5.53112500e+03 3.12450214e+00
v 6.38505086e+03 5.53112500e+03 3.40490415e+00
v 6.38495305e+03 5.53112500e+03 3.47817367e+00
v 6.38744869e+03 5.53112500e+03 3.14969314e+00
v 6.38785148e+03 5.53112500e+03 3.16862689e+00
v 6.38494824e+03 5.53112500e+03 3.60746495e+00
v 6.38301458e+03 5.53112500e+03 1.02617751e+01
v 6.38332839e+03 5.53112500e+03 1.05338737e+01
v 6.38524227e+03 5.53112500e+03 9.09934962e+00
v 6.38509715e+03 5.53112500e+03 9.30442387e+00
v 6.38541494e+03 5.53112500e+03 8.80929618e+00
v 6.38470798e+03 5.53112500e+03 1.02015960e+01
v 6.38111894e+03 5.53112500e+03 9.65433181e+00
v 6.37999904e+03 5.53112500e+03 9.69061385e+00
v 6.38185208e+03 5.53112500e+03 9.64376602e+00
v 6.38459887e+03 5.53112500e+03 1.02869573e+01
v 6.38425100e+03 5.53112500e+03 1.04839811e+01
v 6.38240424e+03 5.53112500e+03 9.90245699e+00
v 6.38346576e+03 5.53112500e+03 1.05170893e+01
v 6.39015827e+03 5.53112500e+03 3.38226861e+00
v 6.39199955e+03 5.53112500e+03 3.33182677e+00
v 6.39008992e+03 5.53112500e+03 3.37589085e+00
v 6.38485670e+03 5.53112500e+03 6.08127382e+00
v 6.38512902e+03 5.53112500e+03 5.64531278e+00
v 6.38533222e+03 5.53112500e+03 7.30460987e+00
v 6.39238395e+03 5.53112500e+03 3.36695014e+00
v 6.39268079e+03 5.53112500e+03 3.32288442e+00
v 6.39230836e+03 5.53112500e+03 3.41144527e+00
v 6.39543846e+03 5.53112500e+03 3.37140853e+00
v 6.39718760e+03 5.53112500e+03 3.40662896e+00
v 6.38809030e+03 5.53112500e+03 3.16186784e+00
v 6.37870523e+03 5.53112500e+03 9.65211372e+00
v 6.38499636e+03 5.53112500e+03 4.04353898e+00
v 6.40229180e+03 5.53112500e+03 3.47359556e+00
v 6.40153784e+03 5.53112500e+03 3.33115896e+00
v 6.39847575e+03 5.53112500e+03 3.33580384e+00
v 6.40445003e+03 5.53112500e+03 3.42493429e+00
v 6.40618296e+03 5.53112500e+03 3.39760676e+00
v 6.40273264e+03 5.53112500e+03 3.43011601e+00
v 6.40387263e+03 5.53112500e+03 3.41800170e+00
v 6.40244418e+03 5.53112500e+03 3.45792198e+00
v 6.40134391e+03 5.53112500e+03 3.33366603e+00
v 6.40129394e+03 5.53112500e+03 3.31386612e+00
v 6.39980959e+03 5.53112500e+03 3.36529527e+00
v 6.39928178e+03 5.53112500e+03 3.27046993e+00
v 6.37588592e+03 5.53112500e+03 9.67199066e+00
v 6.37559273e+03 5.53112500e+03 9.67405774e+00
v 6.37487500e+03 5.53112500e+03 9.65776965e+00
v 6.40635724e+03 5.53112500e+03 3.42323909e+00
v 6.40637500e+03 5.53112500e+03 3.42585073e+00
v 6.37986962e+03 5.56262500e+03 3.02753495e+00
v 6.38024487e+03 5.56262500e+03 3.02627266e+00
v 6.37682556e+03 5.56262500e+03 3.38387162e+00
v 6.37674953e+03 5.56262500e+03 3.57269063e+00
v 6.37662068e+03 5.56262500e+03 5.94862291e+00
v 6.37654344e+03 5.56262500e+03 5.39246643e+00
v 6.38754802e+03 5.56262500e+03 2.93952803e+00
v 6.38698135e+03 5.56262500e+03 2.88514236e+00
v 6.38296133e+03 5.56262500e+03 3.65013150e+00
v 6.38296151e+03 5.56262500e+03 3.65016558e+00
v 6.38589656e+03 5.56262500e+03 2.95466712e+00
v 6.37827394e+03 5.56262500e+03 3.13196051e+00
v 6.37880926e+03 5.56262500e+03 2.99092822e+00
v 6.37689924e+03 5.56262500e+03 3.35941873e+00
v 6.37686647e+03 5.56262500e+03 3.35438543e+00
v 6.38073219e+03 5.56262500e+03 3.04741007e+00
v 6.38148114e+03 5.56262500e+03 3.00980823e+00
v 6.39066291e+03 5.56262500e+03 2.99485840e+00
v 6.38986946e+03 5.56262500e+03 2.98799257e+00
v 6.38537236e+03 5.56262500e+03 3.04597072e+00
v 6.38559142e+03 5.56262500e+03 2.94362784e+00
v 6.38905898e+03 5.56262500e+03 2.94495690e+00
v 6.38519079e+03 5.56262500e+03 3.36678321e+00
v 6.38511457e+03 5.56262500e+03 3.47657518e+00
v 6.38230943e+03 5.56262500e+03 2.90629965e+00
v 6.39233539e+03 5.56262500e+03 2.97371937e+00
v 6.39303033e+03 5.56262500e+03 2.95136833e+00
v 6.39374507e+03 5.56262500e+03 3.13008627e+00
v 6.39383241e+03 5.56262500e+03 3.13066438e+00
v 6.38296138e+03 5.56262500e+03 3.65067940e+00
v 6.37618132e+03 5.56262500e+03 7.66957456e+00
v 6.37618513e+03 5.56262500e+03 7.65962152e+00
v 6.37617445e+03 5.56262500e+03 7.72831546e+00
v 6.38244050e+03 5.56262500e+03 3.08907848e+00
v 6.38269553e+03 5.56262500e+03 3.34996459e+00
v 6.37966328e+03 5.56262500e+03 3.00093603e+00
v 6.37624331e+03 5.56262500e+03 7.96925928e+00
v 6.38301756e+03 5.56262500e+03 3.46173646e+00
v 6.37505665e+03 5.56262500e+03 1.01208741e+01
v 6.37542909e+03 5.56262500e+03 9.65008167e+00
v 6.38464231e+03 5.56262500e+03 6.46683294e+00
v 6.38477904e+03 5.56262500e+03 6.39675831e+00
v 6.37548857e+03 5.56262500e+03 9.40997136e+00
v 6.37616251e+03 5.56262500e+03 8.36513409e+00
v 6.37580855e+03 5.56262500e+03 9.06957779e+00
v 6.37552253e+03 5.56262500e+03 9.35232874e+00
v 6.37619240e+03 5.56262500e+03 8.30960723e+00
v 6.38310796e+03 5.56262500e+03 6.40645317e+00
v 6.38287888e+03 5.56262500e+03 6.38949787e+00
v 6.37665223e+03 5.56262500e+03 3.76646725e+00
v 6.37621667e+03 5.56262500e+03 8.15949287e+00
v 6.38263031e+03 5.56262500e+03 5.47284519e+00
v 6.38254171e+03 5.56262500e+03 5.19655634e+00
v 6.37619887e+03 5.56262500e+03 7.56114114e+00
v 6.38254962e+03 5.56262500e+03 4.39193566e+00
v 6.38250236e+03 5.56262500e+03 4.50514661e+00
v 6.38264769e+03 5.56262500e+03 5.98023822e+00
v 6.38513961e+03 5.56262500e+03 6.06721100e+00
v 6.38512859e+03 5.56262500e+03 5.45720867e+00
v 6.38263578e+03 5.56262500e+03 6.18493859e+00
v 6.38510500e+03 5.56262500e+03 6.13728813e+00
v 6.38496864e+03 5.56262500e+03 6.21950007e+00
v 6.39713484e+03 5.56262500e+03 3.03714399e+00
v 6.39554638e+03 5.56262500e+03 2.99690654e+00
v 6.40387441e+03 5.56262500e+03 3.06941741e+00
v 6.40296114e+03 5.56262500e+03 3.01704891e+00
v 6.40139438e+03 5.56262500e+03 3.08698808e+00
v 6.40446712e+03 5.56262500e+03 3.08525106e+00
v 6.39866365e+03 5.56262500e+03 3.06210183e+00
v 6.37487500e+03 5.56262500e+03 1.01859105e+01
v 6.40566955e+03 5.56262500e+03 3.06786387e+00
v 6.40637500e+03 5.56262500e+03 3.05766296e+00
vt 0.13541356 0.75570875
vt 0.10594565 0.74662495
vt 0.14460292 0.71108031
vt 0.1725474 0.75412607
vt 0.10397353 0.79726499
vt 0.11318696 0.67041749
vt 0.17129478 0.6691879
vt 0.13794412 0.85181904
vt 0.11341038 0.8020823
vt 0.085673779 0.8228153
vt 0.10288341 0.72568178
vt 0.1367273 0.6700542
vt 0.1846966 0.69283056
vt 0.150708 0.67572039
vt 0.12671056 0.85576749
vt 0.15683423 0.86495346
vt 0.097784325 0.85616785
vt 0.071863659 0.80825973
vt 0.078102902 0.7101059
vt 0.13963221 0.60952157
vt 0.20461671 0.72774673
vt 0.20782571 0.63242656
vt 0.16158046 0.59843493
vt 0.12927517 0.87593204
vt 0.18127139 0.83155501
vt 0.13309331 0.89560121
vt 0.10903454 0.85716254
vt 0.072728559 0.85873216
vt 0.053127725 0.77594924
vt 0.06989941 0.64411652
vt 0.095082931 0.59605521
vt 0.20717417 0.85444099
vt 0.1816895 0.58444881
vt 0.19607438 0.90184259
vt 0.15743573 0.91187125
vt 0.10272824 0.86806846
vt 0.053316247 0.83739525
vt 0.088593274 0.89573359
vt 0.046012115 0.75202727
vt 0.038560547 0.66885233
vt 0.12092965 0.57746005
vt 0.23680176 0.65315127
vt 0.23535903 0.85838157
vt 0.22411966 0.55359292
vt 0.17290415 0.51855326
vt 0.14026932 0.57467186
vt 0.12421378 0.9408074
vt 0.17978692 0.91241074
vt 0.141954 0.96246237
vt 0.055779997 0.88244838
vt 0.050104216 0.81219262
vt 0.04445637 0.80537194
vt 0.048606887 0.70860708
vt 0.050804757 0.59330416
vt 0.10278641 0.56442046
vt 0.23559931 0.62373495
vt 0.24133964 0.71993673
vt 0.22755593 0.88972747
vt 0.23803809 0.59569669
vt 0.19566971 0.52412736
vt 0.15212093 0.52305907
vt 0.13744412 0.53982604
vt 0.21311748 0.8901307
vt 0.20321217 0.94978833
vt 0.16834483 0.94092047
vt 0.097038701 0.906326
vt 0.033494122 0.84577334
vt 0.041979745 0.82365417
vt 0.063561998 0.94401801
vt 0.039805081 0.81463015
vt 0.033706948 0.72680008
vt 0.078289956 0.56789041
vt 0.038879246 0.63443995
vt 0.039642591 0.69211167
vt 0.090867721 0.5434612
vt 0.11354405 0.52729523
vt 0.25438976 0.62294734
vt 0.2606034 0.68766069
vt 0.2515724 0.8002336
vt 0.24167797 0.889539
vt 0.26573306 0.57783806
vt 0.21169795 0.39148676
vt 0.17768547 0.47907084
vt 0.13512972 0.99627745
vt 0.22009593 0.91588873
vt 0.17313936 0.99625117
vt 0.08919967 0.93249017
vt 0.031500079 0.88263768
vt 0.074243173 0.95846105
vt 0.039045915 0.93371034
vt 0.023306824 0.77905583
vt 0.028762478 0.75923347
vt 0.26562294 0.71240962
vt 0.25528306 0.76790899
vt 0.24972431 0.8330909
vt 0.2469068 0.864802
vt 0.23800918 0.90704477
vt 0.14023948 0.50915408
vt 0.14809242 0.48004293
vt 0.12085196 0.99628562
vt 0.1425872 0.99627173
vt 0.22356078 0.95460784
vt 0.18358201 0.99624425
vt 0.16247302 0.9962588
vt 0.082858846 0.9532305
vt 0.095096417 0.92391223
vt 0.066152617 0.97279155
vt 0.041530076 0.99633586
vt 0.070622735 0.50259721
vt 0.10580147 0.480138
vt 0.12845364 0.52498847
vt 0.27206609 0.66206574
vt 0.28215382 0.69038314
vt 0.26591313 0.75423884
vt 0.25846973 0.85837317
vt 0.24967439 0.88926661
vt 0.2984468 0.45407218
vt 0.28038314 0.64027733
vt 0.15756665 0.42024326
vt 0.11683615 0.99628842
vt 0.20559382 0.9962303
vt 0.091653667 0.95560586
vt 0.022023598 0.91799599
vt 0.075402372 0.98384178
vt 0.061029907 0.98617256
vt 0.04646885 0.99633271
vt 0.033189118 0.97301513
vt 0.057390459 0.54719543
vt 0.094551779 0.48750925
vt 0.11812659 0.48427784
vt 0.12674484 0.47701633
vt 0.27438846 0.72385025
vt 0.24365146 0.91620868
vt 0.23303522 0.94570535
vt 0.27054805 0.35344034
vt 0.28281987 0.57119286
vt 0.2793892 0.60068905
vt 0.11859982 0.34844083
vt 0.11395198 0.9962886
vt 0.21474025 0.99622476
vt 0.07871899 0.99630654
vt 0.024097254 0.95052207
vt 0.075365089 0.99631292
vt 0.038814671 0.99633807
vt 0.063455477 0.49220896
vt 0.04837377 0.5743258
vt 0.083951525 0.47479266
vt 0.094190247 0.43148541
vt 0.30284181 0.78440166
vt 0.28573918 0.82004535
vt 0.2733731 0.88307464
vt 0.25898048 0.91143221
vt 0.23903738 0.96206725
vt 0.27408454 0.23468339
vt 0.3181138 0.28661656
vt 0.30581757 0.57575822
vt 0.29436675 0.62833953
vt 0.17862375 0.29389238
vt 0.22414531 0.99621576
vt 0.08295615 0.99630195
vt 0.012361502 0.96357101
vt 0.073641911 0.99631703
vt 0.052882358 0.99632818
vt 0.062739722 0.99632239
vt 0.027575022 0.99634552
vt 0.020528181 0.99634778
vt 0.066212401 0.48811561
vt 0.047311194 0.58582187
vt 0.078547254 0.43738449
vt 0.092324995 0.46824425
vt 0.096176773 0.41196358
vt 0.29416376 0.66469443
vt 0.31136796 0.68741751
vt 0.28372586 0.86158514
vt 0.20522721 0.19457906
vt 0.33306432 0.31629807
vt 0.2847605 0.59515083
vt 0.32722309 0.61429298
vt 0.29048634 0.59968138
vt 0.13842447 0.27439106
vt 0.0024333287 0.99635589
vt 0.011052742 0.93443513
vt 0.077429108 0.38113844
vt 0.36707398 0.72202629
vt 0.29708901 0.84388459
vt 0.2973617 0.86953902
vt 0.27603659 0.94001091
vt 0.22529474 0.99621499
vt 0.21000202 0.16707265
vt 0.29742414 0.20625871
vt 0.3276149 0.28947467
vt 0.32267565 0.41664749
vt 0.33505383 0.53187513
vt 0.31316143 0.61164182
vt 0.30036902 0.6091221
vt 0.30435121 0.63496912
vt 0.11362453 0.32806844
vt 0.1710978 0.24420071
vt 0.0020021941 0.99635625
vt 0.074137025 0.43801302
vt 0.08001221 0.416821
vt 0.095705226 0.3349821
vt 0.30194566 0.66121519
vt 0.3455849 0.87592024
vt 0.3540324 0.66038543
vt 0.31221321 0.83241761
vt 0.28444561 0.91706979
vt 0.26875928 0.99618834
vt 0.24785382 0.99620253
vt 0.24629544 0.16704834
vt 0.20609485 0.1670745
vt 0.26931578 0.16703284
vt 0.32930759 0.23148656
vt 0.33795434 0.2546351
vt 0.34690353 0.2934562
vt 0.35413107 0.38007921
vt 0.35330877 0.47312993
vt 0.34226945 0.59736145
vt 0.31127462 0.62580884
vt 0.11941768 0.22908729
vt 0.14479221 0.21216238
vt 0.17607699 0.16837496
vt 0.079260275 0.32670677
vt 0.074856408 0.42155313
vt 0.3121303 0.65747899
vt 0.37644467 0.74847817
vt 0.32495224 0.66010278
vt 0.37042949 0.69392943
vt 0.32115617 0.9319573
vt 0.20509952 0.16707444
vt 0.28626984 0.167023
vt 0.32394889 0.17088693
vt 0.36908975 0.51090324
vt 0.33335617 0.62244332
vt 0.34444153 0.56528139
vt 0.32924536 0.64029884
vt 0.13104126 0.20930386
vt 0.099841319 0.26272118
vt 0.16245742 0.18327737
vt 0.17680232 0.16709328
vt 0.08427839 0.30417639
vt 0.072210684 0.34205103
vt 0.36295423 0.90467411
vt 0.32577956 0.8959915
vt 0.37721515 0.67623985
vt 0.28887978 0.99617487
vt 0.20103608 0.16707838
vt 0.29687873 0.16701716
vt 0.33864149 0.22724831
vt 0.32336056 0.16699928
vt 0.33649188 0.16698819
vt 0.36431742 0.27613866
vt 0.38874277 0.40892595
vt 0.39028731 0.49993181
vt 0.36143267 0.55654156
vt 0.35505056 0.61207962
vt 0.11584158 0.21069747
vt 0.10245229 0.23124808
vt 0.14691421 0.17187393
vt 0.17590272 0.16709393
vt 0.089909963 0.27036011
vt 0.074957281 0.31789249
vt 0.39034766 0.86272013
vt 0.38102725 0.64990598
vt 0.32481894 0.99615115
vt 0.30382445 0.16701114
vt 0.3457993 0.23299974
vt 0.32401806 0.16699857
vt 0.32657033 0.16699696
vt 0.34500062 0.244789
vt 0.38301775 0.34875584
vt 0.37049374 0.38368058
vt 0.39028496 0.48467791
vt 0.39026773 0.52239203
vt 0.38425478 0.54922438
vt 0.11335146 0.18093145
vt 0.11072916 0.21937007
vt 0.095885225 0.23673105
vt 0.079795025 0.29146868
vt 0.39031038 0.6414845
vt 0.34543997 0.99613893
vt 0.39034131 0.8245942
vt 0.39036581 0.9713136
vt 0.38174757 0.62341094
vt 0.35116428 0.20770884
vt 0.33849752 0.16698712
vt 0.35900086 0.24707526
vt 0.3796792 0.26915634
vt 0.39027259 0.41518307
vt 0.39028847 0.52235591
vt 0.38514364 0.58834612
vt 0.10805686 0.204521
vt 0.10408609 0.2194736
vt 0.11895265 0.167135
vt 0.14958772 0.1671145
vt 0.39031613 0.67088902
vt 0.35745907 0.99613029
vt 0.39032626 0.73395991
vt 0.39036891 0.99142671
vt 0.39030686 0.61949205
vt 0.39030799 0.63307333
vt 0.35503408 0.22932476
vt 0.34229425 0.16698509
vt 0.36792526 0.25667518
vt 0.37137416 0.26771164
vt 0.39025673 0.31885141
vt 0.39026371 0.35938334
vt 0.39027157 0.40930963
vt 0.39028853 0.52258337
vt 0.3902975 0.57392168
vt 0.10958292 0.16713649
vt 0.14114347 0.16712016
vt 0.11362609 0.16713816
vt 0.14644454 0.1671164
vt 0.39032185 0.70632589
vt 0.36812729 0.98344654
vt 0.39030343 0.59737295
vt 0.36293641 0.23696178
vt 0.35729796 0.16697562
vt 0.37200323 0.2469008
vt 0.39024851 0.26985216
vt 0.39026114 0.34349531
vt 0.1082949 0.16713613
vt 0.36525962 0.99612498
vt 0.38108501 0.99611497
vt 0.37589037 0.22259808
vt 0.36489704 0.16697055
vt 0.39001685 0.2506305
vt 0.39036965 0.99610913
vt 0.39024425 0.25101209
vt 0.3902429 0.23621023
vt 0.38770458 0.16695619
vt 0.39024159 0.22797459
vt 0.39024395 0.24871647
vt 0.39023733 0.20570886
vt 0.38999808 0.16695428
vt 0.39023176 0.1669541
vt 0.48213241 0.89398277
vt 0.4603326 0.88944513
vt 0.46601692 0.85437512
vt 0.48501363 0.83865327
vt 0.47699487 0.9285261
vt 0.44720685 0.86125571
vt 0.47713429 0.78400278
vt 0.50024199 0.8740682
vt 0.48956126 0.91664362
vt 0.45450222 0.92318928
vt 0.44580853 0.83733588
vt 0.44944212 0.88783514
vt 0.51257801 0.83660996
vt 0.46693605 0.78665662
vt 0.50934345 0.91453576
vt 0.49851349 0.93096769
vt 0.45756146 0.95964336
vt 0.46109486 0.82973599
vt 0.44053575 0.85473108
vt 0.44028848 0.89029485
vt 0.50714308 0.81211621
vt 0.53519315 0.88209093
vt 0.48840323 0.96335667
vt 0.47642937 0.96994996
vt 0.43946472 0.93116111
vt 0.45280746 0.82680523
vt 0.43979469 0.84201634
vt 0.50742579 0.7900809
vt 0.52754194 0.82311565
vt 0.4523204 0.80447495
vt 0.53131157 0.93075663
vt 0.50838679 0.93422508
vt 0.43985981 0.93722898
vt 0.43899491 0.92274517
vt 0.43908271 0.89236951
vt 0.44016656 0.80108547
vt 0.43922982 0.88408136
vt 0.49493432 0.7762534
vt 0.52144158 0.78966832
vt 0.45874932 0.7815159
vt 0.54131758 0.82490641
vt 0.55616176 0.923778
vt 0.49987537 0.96981227
vt 0.44091725 0.96252072
vt 0.4390972 0.88984835
vt 0.44030055 0.79000354
vt 0.54405671 0.80106056
vt 0.44028822 0.7866205
vt 0.55226988 0.8682003
vt 0.5441587 0.93004817
vt 0.52082598 0.94771469
vt 0.53390855 0.78961539
vt 0.55792081 0.812271
vt 0.56345254 0.83682495
vt 0.56702441 0.89652163
vt 0.55039829 0.95243055
vt 0.54140389 0.96629655
vt 0.51267213 0.97129786
vt 0.55207771 0.77920616
vt 0.57251465 0.78582025
vt 0.57457179 0.86166638
vt 0.57733834 0.9267444
vt 0.58647144 0.81348467
vt 0.59185398 0.90016937
vt 0.55635816 0.96799028
vt 0.58089256 0.96436381
vt 0.53084457 0.98635125
vt 0.61618835 0.84696853
vt 0.61653584 0.89230454
vt 0.6023255 0.92566341
vt 0.55413491 0.98990119
vt 0.59282458 0.93260497
vt 0.52055514 0.99088395
vt 0.54250747 0.98680758
vt 0.58872676 0.79038382
vt 0.60967422 0.78885007
vt 0.56947255 0.97673309
vt 0.5902133 0.9739753
vt 0.58077008 0.77999592
vt 0.63738865 0.90175259
vt 0.63801122 0.78628862
vt 0.62665075 0.9141261
vt 0.62305778 0.9402017
vt 0.57808238 0.98052669
vt 0.61142117 0.97062868
vt 0.60708708 0.78265381
vt 0.64388919 0.87689787
vt 0.64111125 0.8033489
vt 0.6299845 0.9275831
vt 0.6154325 0.95098805
vt 0.60177606 0.99432218
vt 0.58841413 0.98800975
vt 0.63562822 0.85431588
vt 0.64529097 0.9330821
vt 0.6532408 0.79603517
vt 0.62822026 0.96532625
vt 0.62602603 0.99663937
vt 0.6527487 0.84484076
vt 0.66508114 0.92023331
vt 0.67393357 0.80790246
vt 0.67020363 0.95096779
vt 0.639368 0.99532193
vt 0.68054092 0.91215444
vt 0.66520143 0.93816423
vt 0.68737656 0.85808301
vt 0.65912271 0.78999293
vt 0.65317041 0.97682589
vt 0.67851841 0.93392467
vt 0.70345086 0.84566092
vt 0.66208386 0.7838822
vt 0.66401297 0.99056882
vt 0.69588387 0.91766906
vt 0.70117813 0.79942334
vt 0.72412056 0.88540757
vt 0.68481374 0.79142904
vt 0.67919773 0.97007757
vt 0.69240719 0.9656713
vt 0.70237684 0.93824977
vt 0.71274984 0.80101705
vt 0.73007333 0.81291962
vt 0.71599168 0.93080825
vt 0.70182759 0.78530997
vt 0.71305847 0.7899816
vt 0.7524243 0.84571296
vt 0.68580455 0.98642176
vt 0.74752051 0.91316485
vt 0.73137206 0.79149503
vt 0.74515492 0.79681802
vt 0.75069332 0.88498974
vt 0.73237044 0.93692899
vt 0.75926232 0.79138613
vt 0.76902962 0.86277449
vt 0.75084692 0.93931723
vt 0.76046228 0.9116509
vt 0.74836963 0.78899616
vt 0.76767218 0.81297469
vt 0.77432054 0.82967758
vt 0.77015322 0.88530701
vt 0.76600409 0.92583436
vt 0.77336431 0.79432237
vt 0.7689026 0.91384912
vt 0.77583718 0.80467379
vt 0.61779052 0.61914539
vt 0.63079417 0.64501208
vt 0.6194616 0.64946198
vt 0.61177832 0.63998467
vt 0.64523357 0.62614965
vt 0.62974495 0.65888697
vt 0.61724544 0.66413963
vt 0.60818315 0.58053815
vt 0.65725684 0.67726851
vt 0.63727534 0.66647708
vt 0.60845691 0.65925825
vt 0.60914344 0.59888935
vt 0.65883505 0.56982887
vt 0.64768887 0.67112607
vt 0.67957073 0.66511571
vt 0.6285246 0.67341495
vt 0.61609143 0.67712808
vt 0.59984767 0.64971137
vt 0.60554796 0.68617153
vt 0.6109125 0.6085695
vt 0.60216874 0.60154188
vt 0.59929872 0.54044038
vt 0.68669236 0.62867367
vt 0.6511929 0.68605721
vt 0.68900585 0.64582568
vt 0.67474455 0.68404365
vt 0.64073884 0.68175197
vt 0.60456967 0.63619775
vt 0.59666151 0.65940952
vt 0.61070788 0.62557548
vt 0.5893454 0.59574747
vt 0.59088022 0.54035056
vt 0.62261987 0.54124004
vt 0.69825745 0.61113274
vt 0.68823302 0.65736002
vt 0.68400508 0.68886936
vt 0.63782418 0.69811189
vt 0.61502492 0.68904591
vt 0.58870614 0.63727629
vt 0.58864909 0.64789259
vt 0.59356529 0.67855096
vt 0.59685886 0.61008525
vt 0.56750715 0.59449852
vt 0.58024126 0.57695127
vt 0.65105277 0.54090863
vt 0.69214946 0.64035589
vt 0.70637608 0.54101866
vt 0.69388855 0.62432015
vt 0.66626346 0.69718039
vt 0.6486249 0.70211887
vt 0.6867919 0.67490137
vt 0.69862825 0.65639019
vt 0.67918479 0.69555938
vt 0.5822978 0.65264511
vt 0.57112789 0.66775477
vt 0.57416868 0.6066047
vt 0.58761191 0.54037488
vt 0.66166186 0.54128075
vt 0.69746935 0.65078783
vt 0.72048193 0.54117453
vt 0.67693692 0.54112363
vt 0.69785476 0.63233513
vt 0.69426203 0.66708523
vt 0.68596703 0.70409381
vt 0.69039673 0.69450361
vt 0.58144903 0.61853212
vt 0.57064736 0.63735557
vt 0.57902902 0.61038333
vt 0.56480891 0.61226183
vt 0.55512458 0.59807229
vt 0.57321435 0.54000795
vt 0.72185129 0.54115945
vt 0.7029292 0.63851607
vt 0.66919994 0.71177173
vt 0.65913111 0.71027517
vt 0.69441944 0.67477578
vt 0.70626616 0.64739561
vt 0.70319927 0.6598599
vt 0.68551201 0.71268392
vt 0.58717686 0.60467213
vt 0.57546961 0.62378371
vt 0.56580329 0.65760857
vt 0.70799917 0.61371589
vt 0.69942677 0.67424309
vt 0.69306815 0.70412064
vt 0.69732368 0.68366611
vt 0.55905616 0.63183749
vt 0.55880576 0.66059899
vt 0.55262202 0.62288523
vt 0.5644654 0.53998464
vt 0.72465819 0.54101974
vt 0.71005642 0.63034183
vt 0.69751769 0.73241055
vt 0.70815957 0.65932167
vt 0.70629418 0.66660202
vt 0.69482547 0.69440985
vt 0.69974124 0.72393274
vt 0.55400854 0.64889866
vt 0.52763033 0.60620952
vt 0.55341268 0.54097795
vt 0.7309652 0.63014269
vt 0.71845543 0.64517385
vt 0.70558596 0.64546746
vt 0.71082395 0.6571486
vt 0.7029534 0.68627661
vt 0.70252401 0.70630842
vt 0.53536499 0.65294647
vt 0.52106696 0.61344194
vt 0.50240266 0.58772671
vt 0.7390058 0.63026297
vt 0.70488864 0.7322582
vt 0.71405584 0.67159188
vt 0.70511729 0.6989817
vt 0.71164477 0.72551072
vt 0.54058433 0.63870984
vt 0.50298947 0.60904431
vt 0.52954578 0.54075873
vt 0.73899436 0.56468463
vt 0.73901141 0.66083455
vt 0.7254616 0.65351582
vt 0.71698105 0.66265702
vt 0.71112645 0.68488538
vt 0.7269237 0.72667354
vt 0.51633406 0.63007587
vt 0.49237478 0.61204296
vt 0.4628756 0.54049999
vt 0.72977096 0.54107344
vt 0.72825551 0.66887915
vt 0.71612448 0.73615801
vt 0.71994698 0.66630262
vt 0.72290027 0.70588732
vt 0.50710058 0.62344515
vt 0.49669459 0.62258875
vt 0.49462524 0.58953983
vt 0.46082357 0.54065299
vt 0.73899317 0.5578649
vt 0.73901576 0.68659937
vt 0.73592186 0.70218575
vt 0.72578204 0.74379653
vt 0.47799495 0.61466211
vt 0.48651856 0.60045147
vt 0.47931057 0.56487429
vt 0.73899007 0.54095638
vt 0.73901868 0.70359838
vt 0.73718643 0.74656183
vt 0.47996804 0.57840145
vt 0.44686472 0.5420782
vt 0.73902303 0.7190727
vt 0.73902833 0.73691219
vt 0.47507605 0.60341573
vt 0.46389121 0.57178915
vt 0.44375938 0.5419547
vt 0.73903179 0.74695969
vt 0.46622571 0.60640585
vt 0.44462404 0.55851507
vt 0.45981392 0.59220099
vt 0.44703257 0.60093033
vt 0.43960643 0.5676657
vt 0.44516 0.59518039
vt 0.44160765 0.58780956
vt 0.78858542 0.69442558
vt 0.76773429 0.68070519
vt 0.7740308 0.63561314
vt 0.79095441 0.63795251
vt 0.75149286 0.71197593
vt 0.76053095 0.64646375
vt 0.81035441 0.63710868
vt 0.75428748 0.68266612
vt 0.77235073 0.70578241
vt 0.80607486 0.68275309
vt 0.79347277 0.71137351
vt 0.82203442 0.66102755
vt 0.81128496 0.70416641
vt 0.8074351 0.71419197
vt 0.82413691 0.61749721
vt 0.83391333 0.6825676
vt 0.84112167 0.61643124
vt 0.84022772 0.64905894
vt 0.82720405 0.70600623
vt 0.85021251 0.6794703
vt 0.83211088 0.71087039
vt 0.85820436 0.63915157
vt 0.8593542 0.66065425
vt 0.84563768 0.68846381
vt 0.83890313 0.71658075
vt 0.84762508 0.60486221
vt 0.85649341 0.69077939
vt 0.83053583 0.72846979
vt 0.87069941 0.62567782
vt 0.85446614 0.57169253
vt 0.84195203 0.60770822
vt 0.86990774 0.69592917
vt 0.84323078 0.73051894
vt 0.84948909 0.70176166
vt 0.83435977 0.74128234
vt 0.88480127 0.65721589
vt 0.84420425 0.58743006
vt 0.88229913 0.6849404
vt 0.85764295 0.70292377
vt 0.8456921 0.73766476
vt 0.85206574 0.709126
vt 0.89044976 0.62254244
vt 0.86214721 0.56871825
vt 0.83926541 0.5599438
vt 0.84061295 0.74565351
vt 0.88610184 0.59432691
vt 0.90876746 0.6585114
vt 0.89406615 0.67036605
vt 0.8621918 0.50913084
vt 0.84616476 0.53488314
vt 0.8312887 0.57824314
vt 0.89806503 0.60343665
vt 0.89741522 0.68153441
vt 0.87479067 0.50346726
vt 0.88575959 0.56579393
vt 0.83612812 0.52147508
vt 0.8325448 0.54560232
vt 0.90147728 0.57701063
vt 0.91491574 0.63278472
vt 0.86593777 0.47874767
vt 0.84505767 0.49174315
vt 0.83476996 0.49417919
vt 0.92567378 0.62248492
vt 0.90776312 0.68176746
vt 0.91859996 0.66233337
vt 0.89312416 0.4818669
vt 0.8554607 0.48139906
vt 0.89193678 0.53864574
vt 0.83231878 0.51063001
vt 0.9308539 0.59549671
vt 0.92281812 0.67136514
vt 0.92723531 0.64146537
vt 0.90423816 0.502249
vt 0.88465214 0.46302789
vt 0.86370003 0.46414447
vt 0.84567446 0.46881539
vt 0.83132899 0.47759557
vt 0.90877318 0.56267589
vt 0.8307659 0.49609536
vt 0.93496889 0.58012068
vt 0.93508697 0.59700245
vt 0.91332 0.68026984
vt 0.93518001 0.63146949
vt 0.92934901 0.66621828
vt 0.92340744 0.66932851
vt 0.90350735 0.4793542
vt 0.89757258 0.47188896
vt 0.93501252 0.58160949
vt 0.93734246 0.61810946
vt 0.93489647 0.5953148
vt 0.93455869 0.66039747
vt 0.93228042 0.66019398
vt 0.91474974 0.47810149
vt 0.92617416 0.53520513
vt 0.828206 0.4870441
vt 0.93494463 0.57983673
vt 0.93457276 0.586555
vt 0.93474215 0.59142953
vt 0.93916577 0.62830496
vt 0.93824059 0.66021329
vt 0.91042215 0.46314377
vt 0.93938214 0.63009179
vt 0.9421348 0.65228695
vt 0.93045855 0.48105025
vt 0.93087184 0.46977788
vt 0.93485725 0.57731384
vt 0.93976086 0.63655388
vt 0.94329309 0.65601921
vt 0.93266565 0.52125531
vt 0.93061095 0.46858186
vt 0.93217152 0.53364885
vt 0.93135619 0.47520971
vt 0.9319762 0.48101509
vt 0.85462451 0.93295634
vt 0.85113668 0.94360107
vt 0.83959049 0.94899601
vt 0.84339827 0.92830557
vt 0.85963744 0.95689535
vt 0.84490103 0.96147084
vt 0.84720933 0.92304492
vt 0.83801728 0.93434113
vt 0.85313481 0.96384025
vt 0.83845043 0.9666574
vt 0.8484717 0.9186492
vt 0.83231455 0.93787485
vt 0.86136431 0.98536462
vt 0.84887677 0.98461717
vt 0.82875407 0.94666684
vt 0.84406644 0.97093701
vt 0.85865277 0.91478235
vt 0.85557532 0.9964422
vt 0.86571217 0.98205739
vt 0.82323188 0.96603847
vt 0.85233229 0.90467763
vt 0.82783145 0.93994248
vt 0.86190641 0.99459636
vt 0.86517763 0.95972747
vt 0.85056436 0.99661535
vt 0.81992835 0.95019054
vt 0.82635838 0.97686189
vt 0.82138032 0.93747944
vt 0.81128997 0.96021152
vt 0.81775677 0.93819773
vt 0.81395108 0.9734419
vt 0.80905366 0.93921405
vt 0.81238216 0.93575454
vt 0.80321562 0.94333959
vt 0.79956567 0.96829438
vt 0.8014285 0.95137
vt 0.80585867 0.93810034
vt 0.80891764 0.93524075
vt 0.798877 0.98031962
vt 0.78842402 0.9794085
vt 0.79851949 0.95910734
vt 0.78930479 0.97264504
vt 0.79475081 0.9675402
vt 0.78285551 0.9802202
vt 0.90817344 0.99302375
vt 0.89651632 0.97051728
vt 0.91678256 0.98722619
vt 0.92027122 0.99523407
vt 0.89659727 0.98237211
vt 0.91252702 0.95659077
vt 0.92749178 0.99153346
vt 0.8813675 0.96803302
vt 0.89383405 0.95285279
vt 0.92464668 0.95343471
vt 0.88494319 0.98652846
vt 0.93586123 0.95424306
vt 0.87709409 0.95442599
vt 0.87906104 0.96795744
vt 0.94908112 0.9590044
vt 0.87756366 0.95794845
vt 0.88244301 0.98385543
vt 0.95094365 0.98109233
vt 0.88303453 0.98681527
vt 0.95865953 0.9886319
vt 0.9447152 0.89203942
vt 0.94085962 0.8925972
vt 0.93006021 0.87418568
vt 0.94824255 0.86560214
vt 0.94305623 0.91242087
vt 0.92860609 0.89905119
vt 0.9275732 0.85363424
vt 0.90395558 0.88683307
vt 0.91850364 0.85806566
vt 0.94791758 0.84851563
vt 0.92868656 0.92067969
vt 0.88639724 0.90277016
vt 0.8791343 0.86056209
vt 0.90218282 0.8535955
vt 0.93802297 0.92274511
vt 0.91808641 0.91918534
vt 0.89458936 0.92826873
vt 0.87956214 0.87825626
vt 0.92238885 0.93085951
vt 0.87729919 0.9081369
vt 0.8768087 0.90041745
vt 0.87912196 0.86056024
vt 0.8791222 0.86057508
vt 0.87739694 0.92178166
vt 0.87658888 0.88176686
vt 0.87943196 0.85572326
vt 0.87912291 0.86056179
vt 0.87684959 0.87890947
vt 0.87733185 0.92721725
vt 0.87867582 0.93358201
vt 0.81943947 0.77515239
vt 0.81169868 0.78873318
vt 0.78355837 0.77965814
vt 0.84592718 0.79445469
vt 0.78855705 0.7918222
vt 0.85146147 0.77891576
vt 0.81730783 0.82416606
vt 0.85199857 0.78898478
vt 0.84492648 0.86581039
vt 0.78341222 0.82591718
vt 0.85222417 0.79250896
vt 0.83079207 0.87053585
vt 0.80071211 0.85681456
vt 0.85216975 0.84837353
vt 0.78404498 0.85504389
vt 0.85213315 0.8655417
vt 0.79330456 0.86587298
vt 0.85223544 0.86771309
vt 0.96426988 0.80921137
vt 0.97530514 0.76761264
vt 0.96622378 0.80921131
vt 0.97023302 0.76973069
vt 0.97324115 0.79539144
vt 0.94235355 0.80922663
vt 0.98545939 0.69590592
vt 0.968934 0.80921268
vt 0.93959188 0.7728889
vt 0.9492861 0.71727371
vt 0.97088271 0.80921286
vt 0.93908155 0.80922902
vt 0.95311749 0.68454808
vt 0.41000995 0.97602624
vt 0.40893301 0.99644923
vt 0.39739838 0.98974127
vt 0.3939541 0.95759511
vt 0.4060972 0.93383813
vt 0.39247164 0.93375385
vt 0.39465138 0.89830971
vt 0.4054029 0.90413582
vt 0.40602466 0.89429939
vt 0.40501529 0.8773284
vt 0.43411338 0.69737571
vt 0.42692715 0.6943419
vt 0.42882159 0.67426723
vt 0.44092947 0.67201626
vt 0.41886625 0.71158683
vt 0.42139959 0.65916908
vt 0.44341338 0.67631781
vt 0.43904459 0.65561104
vt 0.43152121 0.73555624
vt 0.41923738 0.68415892
vt 0.44023338 0.70047796
vt 0.44447085 0.66177952
vt 0.44510809 0.7277236
vt 0.40837207 0.73308814
vt 0.41656908 0.66917896
vt 0.44121718 0.74393392
vt 0.40966696 0.74693972
vt 0.42865971 0.97884595
vt 0.42325783 0.96532005
vt 0.43576154 0.9614526
vt 0.43532181 0.99574357
vt 0.42073682 0.98704201
vt 0.42787978 0.95318437
vt 0.43893626 0.99140841
vt 0.41460261 0.98018062
vt 0.40803549 0.958978
vt 0.44408709 0.97410828
vt 0.6993103 0.98995036
vt 0.68930668 0.98420876
vt 0.70174295 0.96508563
vt 0.70971155 0.99547863
vt 0.71559471 0.97035211
vt 0.4751541 0.97023666
vt 0.48072255 0.98561138
vt 0.46421421 0.99020326
vt 0.45975208 0.96755385
vt 0.47427198 0.99159557
vt 0.45596805 0.99520588
vt 0.45505121 0.98786473
vt 0.73469752 0.99334747
vt 0.72846723 0.99700469
vt 0.7296021 0.97482216
vt 0.73764032 0.961716
vt 0.72376853 0.98637927
vt 0.72955161 0.95182782
vt 0.72095925 0.9625212
vt 0.10026225 0.98614538
vt 0.09578608 0.99562293
vt 0.098120883 0.95656508
vt 0.1021295 0.95205861
vt 0.74433357 0.96207911
vt 0.7559104 0.96431887
vt 0.75719082 0.97012031
vt 0.74977529 0.97899163
vt 0.757635 0.98438245
vt 0.73680645 0.96574181
vt 0.74612379 0.99486297
vt 0.74131268 0.99614561
vt 0.72257614 0.99480504
vt 0.71334291 0.99673766
vt 0.71584314 0.96576023
vt 0.087688208 0.97338969
vt 0.089677021 0.96720779
vt 0.093796328 0.97905385
vt 0.091940999 0.99671656
vt 0.77538878 0.99521071
vt 0.76793534 0.98377949
vt 0.78129256 0.96704435
vt 0.47827241 0.97144109
vt 0.48849344 0.97227365
vt 0.48847038 0.99611998
vt 0.49457261 0.97208077
vt 0.50623995 0.972
vt 0.5003019 0.99564421
usemtl Tile_+032_+023_L20_0001020_0
f 275/1 274/2 283/3
f 583/68 332/52 578/51
f 270/4 586/21 174/32
f 440/480 522/481 437/482
f 390/640 549/641 543/642
f 340/705 250/699 338/713
f 557/634 394/635 399/637
f 577/64 593/65 590/48
f 216/338 556/339 211/340
f 136/183 126/242 589/223
f 183/368 546/369 214/352
f 397/521 430/500 441/499
f 305/450 333/452 566/459
f 568/49 312/47 316/26
f 205/817 308/818 320/819
f 278/197 299/238 260/220
f 275/1 270/4 315/8
f 338/713 569/726 340/705
f 717/108 347/69 718/126
f 350/715 345/706 334/700
f 561/467 543/458 257/463
f 270/4 581/16 315/8
f 152/888 149/889 148/890
f 251/743 249/732 719/744
f 204/894 153/891 580/899
f 54/118 159/77 88/81
f 206/128 301/54 246/146
f 201/43 560/58 174/32
f 142/36 314/66 579/38
f 585/714 250/699 345/706
f 302/464 587/472 89/465
f 281/119 284/131 291/110
f 668/311 262/292 669/323
f 286/45 164/60 269/33
f 592/63 576/85 175/34
f 157/102 577/64 576/85
f 89/465 587/472 233/468
f 592/63 174/32 560/58
f 288/75 295/55 328/31
f 278/197 122/202 299/238
f 581/16 564/25 175/34
f 275/1 575/9 584/5
f 347/69 344/50 579/38
f 341/725 569/726 342/740
f 312/47 568/49 724/84
f 728/166 343/127 729/165
f 342/161 139/142 730/181
f 583/68 331/70 332/52
f 287/20 273/12 572/6
f 140/29 329/19 274/2
f 317/15 146/27 575/9
f 312/847 311/848 580/849
f 581/16 591/35 316/26
f 334/700 253/701 583/716
f 317/895 580/899 153/891
f 284/131 280/99 267/98
f 284/131 588/130 291/110
f 277/62 285/61 321/23
f 589/223 127/262 309/241
f 132/259 263/276 667/294
f 284/131 266/111 292/76
f 285/61 267/98 280/99
f 285/61 280/99 170/83
f 290/198 565/158 282/180
f 173/22 574/7 269/33
f 571/105 337/124 346/89
f 576/85 577/64 175/34
f 582/152 218/133 167/116
f 593/65 591/35 590/48
f 586/21 271/13 173/22
f 10/114 169/94 163/57
f 279/138 278/197 282/180
f 349/18 274/2 570/10
f 591/35 581/16 590/48
f 593/65 577/64 734/103
f 313/87 571/105 579/38
f 253/701 124/718 583/716
f 344/50 347/69 138/90
f 585/88 344/50 138/90
f 580/24 315/8 316/26
f 160/80 161/96 167/116
f 585/88 138/90 338/123
f 141/37 350/67 583/68
f 273/12 283/3 572/6
f 274/2 573/11 572/6
f 320/819 322/825 314/823
f 83/151 582/152 167/116
f 572/6 329/19 330/30
f 315/8 580/24 317/15
f 568/49 593/65 735/86
f 348/28 143/17 579/38
f 316/26 312/47 580/24
f 141/37 583/68 578/51
f 276/46 277/62 321/23
f 165/82 170/83 281/119
f 301/54 330/30 566/40
f 330/30 329/19 566/40
f 173/22 271/13 574/7
f 291/110 292/76 288/75
f 565/158 165/82 279/138
f 208/358 144/365 127/376
f 121/261 309/241 144/279
f 586/21 163/57 201/43
f 86/115 46/174 83/151
f 122/202 136/183 589/223
f 282/180 278/197 260/220
f 137/171 279/138 291/110
f 284/131 292/76 588/130
f 294/148 563/169 300/201
f 328/31 295/55 293/41
f 170/83 164/60 286/45
f 128/412 129/416 307/423
f 329/19 573/11 274/2
f 274/2 349/18 140/29
f 274/2 584/5 570/10
f 287/20 321/23 272/14
f 173/22 162/42 586/21
f 163/57 168/79 201/43
f 574/7 272/14 321/23
f 217/850 312/847 736/852
f 718/126 319/125 732/163
f 579/38 346/89 347/69
f 733/164 337/124 741/162
f 742/121 157/102 743/140
f 157/102 576/85 560/58
f 571/105 313/87 323/122
f 744/159 156/153 745/188
f 325/661 559/656 326/665
f 499/433 369/439 376/434
f 550/453 501/448 504/438
f 719/744 342/740 731/749
f 294/148 137/171 291/110
f 165/82 281/119 279/138
f 279/138 281/119 291/110
f 392/604 459/620 516/613
f 270/4 283/3 574/7
f 484/662 367/659 512/657
f 146/27 143/17 575/9
f 293/41 292/76 277/62
f 305/450 566/459 567/460
f 245/378 310/390 116/391
f 451/544 442/530 493/555
f 124/479 112/474 232/473
f 469/553 465/558 406/572
f 544/445 504/438 547/441
f 529/956 450/957 449/958
f 481/703 479/686 596/710
f 399/753 378/754 93/755
f 543/642 561/643 390/640
f 108/938 247/939 224/940
f 533/488 535/493 522/481
f 90/461 244/451 335/457
f 540/599 447/581 530/580
f 561/643 519/646 390/640
f 521/409 415/415 445/403
f 100/407 101/426 545/420
f 559/656 512/657 555/651
f 479/686 552/681 119/691
f 267/98 285/61 277/62
f 397/521 433/507 379/518
f 514/625 459/620 395/629
f 479/686 481/703 483/692
f 519/470 561/467 257/463
f 182/401 100/407 181/399
f 448/583 446/600 421/591
f 494/394 468/395 183/368
f 535/493 420/489 522/481
f 432/946 461/947 440/948
f 394/635 398/633 401/636
f 360/684 523/674 386/672
f 514/625 516/613 459/620
f 502/522 510/523 511/487
f 449/927 429/928 506/929
f 477/677 485/675 478/687
f 258/942 553/944 554/941
f 294/148 562/170 297/147
f 320/819 314/823 150/820
f 556/339 215/349 210/343
f 219/829 323/830 320/819
f 348/28 579/38 344/50
f 305/450 339/446 243/437
f 566/40 304/53 567/74
f 216/338 541/342 556/339
f 315/8 317/15 275/1
f 500/422 415/415 521/409
f 747/719 256/717 748/735
f 262/377 212/351 207/367
f 241/688 151/689 334/700
f 248/709 120/697 747/719
f 573/11 329/19 572/6
f 543/458 548/455 225/449
f 236/668 552/681 485/675
f 750/143 571/105 751/141
f 569/182 338/123 342/161
f 343/127 138/90 717/108
f 287/20 276/46 321/23
f 242/430 189/405 255/425
f 143/17 348/28 570/10
f 669/385 207/367 672/383
f 591/35 568/49 316/26
f 306/456 335/457 339/446
f 565/158 290/198 203/175
f 168/79 202/95 201/43
f 174/32 564/25 270/4
f 175/34 590/48 581/16
f 554/941 224/940 258/942
f 520/647 549/641 393/644
f 491/578 489/568 154/587
f 136/396 254/384 126/389
f 296/109 307/167 563/169
f 541/342 538/346 542/353
f 468/395 536/388 183/368
f 556/339 177/347 215/349
f 473/404 469/410 468/395
f 476/624 95/602 673/628
f 456/515 442/530 451/544
f 506/929 529/930 449/927
f 527/959 454/960 507/961
f 598/501 511/487 604/511
f 257/463 109/466 106/471
f 111/696 252/695 104/683
f 365/766 362/761 360/770
f 518/630 557/634 515/621
f 364/679 360/684 386/672
f 120/697 248/709 355/702
f 234/682 551/685 236/668
f 355/702 352/698 119/691
f 352/698 479/686 119/691
f 515/621 557/634 606/631
f 596/710 354/704 608/724
f 609/579 517/588 610/596
f 400/638 383/639 394/635
f 518/630 514/625 395/629
f 244/451 134/442 339/446
f 520/647 548/645 549/641
f 519/646 555/651 505/649
f 559/656 555/651 107/654
f 558/920 326/921 258/922
f 491/578 517/588 496/549
f 543/458 244/451 257/463
f 160/80 166/97 560/58
f 512/657 559/656 325/661
f 553/944 559/945 554/941
f 240/694 120/697 551/685
f 223/690 104/683 558/676
f 751/141 323/122 754/160
f 519/646 107/654 555/651
f 107/943 108/938 554/941
f 554/941 559/945 107/943
f 559/656 553/670 326/665
f 119/691 552/681 551/685
f 223/878 247/879 108/880
f 554/941 108/938 224/940
f 544/445 225/449 548/455
f 544/445 548/455 520/454
f 376/434 500/422 499/433
f 543/642 549/641 548/645
f 226/431 230/436 547/441
f 499/433 545/420 226/431
f 183/368 536/388 546/369
f 522/481 513/484 533/488
f 376/534 370/561 103/533
f 545/420 499/433 503/427
f 545/420 101/426 226/431
f 230/436 135/440 544/445
f 544/445 135/440 225/449
f 244/451 543/458 225/449
f 547/441 230/436 544/445
f 541/342 542/353 407/360
f 226/431 101/426 229/417
f 115/379 537/387 183/368
f 216/338 538/346 541/342
f 214/352 542/353 538/346
f 506/929 454/933 528/932
f 675/362 475/354 676/370
f 541/342 177/347 556/339
f 475/354 177/347 541/342
f 542/353 546/369 407/360
f 474/380 407/360 546/369
f 406/572 465/558 464/576
f 265/221 290/198 282/180
f 184/398 179/392 114/386
f 115/379 181/399 495/393
f 537/387 115/379 495/393
f 100/407 545/420 521/409
f 534/494 524/504 438/514
f 526/562 530/580 447/581
f 90/461 109/466 244/451
f 452/905 423/906 467/907
f 467/584 532/601 492/592
f 450/527 529/525 525/502
f 423/906 452/905 421/909
f 103/533 370/561 374/546
f 536/388 474/380 546/369
f 513/484 534/494 533/488
f 474/380 536/388 468/395
f 434/408 472/411 494/394
f 494/394 471/402 434/408
f 534/494 92/505 533/488
f 535/493 458/503 435/506
f 420/489 535/493 435/506
f 438/514 442/530 534/494
f 524/504 508/531 438/514
f 442/530 456/515 534/494
f 423/906 532/910 467/907
f 424/542 508/531 453/557
f 613/570 526/562 614/551
f 509/492 428/513 525/502
f 524/504 529/525 528/538
f 452/905 467/907 425/908
f 428/513 509/492 615/526
f 529/930 506/929 528/932
f 452/574 453/557 455/573
f 528/538 508/531 524/504
f 526/562 527/571 429/552
f 513/484 525/502 524/504
f 513/484 509/492 525/502
f 428/513 450/527 525/502
f 446/600 447/581 540/599
f 447/581 527/571 526/562
f 423/906 422/912 531/913
f 455/573 453/557 454/556
f 447/581 454/556 527/571
f 531/607 540/599 530/580
f 96/617 531/607 679/616
f 448/583 455/573 454/556
f 540/599 531/607 422/609
f 469/553 473/554 457/528
f 539/610 95/602 492/592
f 413/797 408/798 410/799
f 435/506 458/503 472/529
f 614/551 428/513 616/539
f 407/360 409/361 541/342
f 423/906 531/913 532/910
f 96/617 539/610 531/607
f 534/494 513/484 524/504
f 425/563 453/557 452/574
f 508/531 528/538 454/556
f 453/557 508/531 454/556
f 417/496 418/485 419/495
f 440/480 441/499 443/491
f 495/393 494/394 537/387
f 468/395 494/394 473/404
f 545/420 503/427 521/409
f 513/484 522/481 440/480
f 418/485 522/481 420/489
f 445/403 181/399 521/409
f 495/393 181/399 445/403
f 499/433 226/431 504/438
f 226/431 547/441 504/438
f 544/445 520/454 504/438
f 520/454 550/453 504/438
f 555/651 388/655 505/649
f 393/462 501/448 520/454
f 377/520 376/534 102/508
f 484/662 486/671 366/666
f 366/666 359/673 363/663
f 485/675 484/662 236/668
f 485/675 552/681 479/686
f 501/586 368/594 371/577
f 516/613 517/588 392/604
f 518/630 394/635 557/634
f 512/657 388/655 555/651
f 354/704 479/686 352/698
f 325/661 484/662 512/657
f 514/625 515/621 516/613
f 515/621 514/625 518/630
f 496/549 510/523 502/522
f 509/492 513/484 511/487
f 497/535 502/522 431/510
f 443/491 511/487 440/480
f 431/510 502/522 511/487
f 511/487 443/491 430/500
f 511/487 513/484 440/480
f 505/649 390/640 519/646
f 618/550 496/549 619/569
f 482/778 487/784 595/785
f 517/588 515/621 620/614
f 361/765 384/771 523/775
f 386/672 523/674 385/664
f 362/761 378/754 383/757
f 397/521 441/499 461/509
f 382/915 498/916 431/917
f 604/511 510/523 617/536
f 413/608 411/593 95/602
f 429/928 507/931 506/929
f 419/495 420/489 435/506
f 357/772 482/778 402/767
f 483/692 477/677 478/687
f 94/758 362/761 365/766
f 486/779 357/772 403/762
f 155/595 517/588 491/578
f 398/653 390/640 490/652
f 366/666 486/671 403/678
f 512/657 367/659 388/655
f 398/653 490/652 401/658
f 399/753 93/755 625/756
f 401/636 400/638 394/635
f 488/548 375/566 489/568
f 498/547 497/535 431/510
f 612/763 399/753 626/759
f 611/786 356/781 627/788
f 484/662 366/666 367/659
f 480/787 481/792 628/794
f 487/784 482/778 356/781
f 484/662 485/675 477/677
f 388/655 367/659 363/663
f 402/767 93/755 403/762
f 523/674 384/667 385/664
f 483/791 481/792 480/787
f 402/767 403/762 357/772
f 483/791 480/787 477/783
f 627/788 480/787 630/793
f 93/755 402/767 600/764
f 402/767 482/778 621/782
f 480/787 356/781 477/783
f 483/692 478/687 479/686
f 489/568 491/578 496/549
f 368/594 489/568 371/577
f 505/649 388/655 490/652
f 155/595 392/604 517/588
f 155/595 396/611 391/612
f 396/611 393/603 391/612
f 390/640 391/648 393/644
f 504/438 380/444 499/433
f 376/434 377/428 500/422
f 376/534 369/567 370/561
f 504/438 501/448 380/444
f 521/409 503/427 500/422
f 497/535 488/548 502/522
f 369/567 501/586 371/577
f 499/433 500/422 503/427
f 460/497 372/519 379/518
f 501/448 550/453 520/454
f 373/560 498/547 381/545
f 489/568 368/594 154/587
f 507/931 454/933 506/929
f 497/535 498/547 373/560
f 488/548 497/535 373/560
f 496/549 502/522 488/548
f 373/560 374/546 488/548
f 374/546 375/566 488/548
f 489/568 496/549 488/548
f 444/414 471/402 445/403
f 439/490 436/486 414/498
f 472/411 473/404 494/394
f 442/530 438/514 424/542
f 500/422 377/428 415/415
f 445/403 471/402 495/393
f 102/508 414/498 377/520
f 426/585 411/593 464/576
f 425/563 466/565 493/555
f 91/532 469/553 457/528
f 406/803 468/811 470/814
f 541/342 409/361 475/354
f 426/585 492/592 95/602
f 427/564 467/584 492/592
f 533/488 458/503 535/493
f 492/592 532/601 539/610
f 457/528 458/503 92/505
f 92/505 534/494 456/515
f 91/532 92/505 456/515
f 452/574 455/573 421/591
f 448/583 421/591 455/573
f 436/486 437/482 418/485
f 447/581 448/583 454/556
f 451/544 463/575 427/564
f 524/504 525/502 529/525
f 447/581 446/600 448/583
f 397/918 382/915 431/917
f 416/421 444/414 445/403
f 437/482 432/483 440/480
f 441/499 440/480 461/509
f 424/542 493/555 442/530
f 441/499 430/500 443/491
f 414/498 102/508 439/490
f 432/483 437/482 436/486
f 432/483 436/486 439/490
f 508/531 424/542 438/514
f 417/496 416/517 414/498
f 417/496 434/516 416/517
f 430/919 397/918 431/917
f 429/552 527/571 507/582
f 428/513 526/562 429/552
f 424/542 453/557 425/563
f 493/555 424/542 425/563
f 446/600 422/609 421/591
f 423/906 421/909 422/912
f 418/485 420/489 419/495
f 436/486 418/485 417/496
f 414/429 416/421 415/415
f 411/593 413/608 412/590
f 413/797 410/799 412/800
f 409/802 407/806 410/799
f 475/805 409/802 408/798
f 427/564 463/575 467/584
f 408/798 405/801 404/804
f 476/807 404/804 405/801
f 405/618 95/602 476/624
f 95/602 411/593 426/585
f 475/805 408/798 404/804
f 678/809 404/804 682/812
f 408/798 409/802 410/799
f 407/806 474/808 406/803
f 91/532 465/558 469/553
f 472/529 434/516 435/506
f 469/816 470/814 468/811
f 445/403 415/415 416/421
f 458/503 457/528 472/529
f 434/408 444/414 416/421
f 434/516 417/496 419/495
f 419/495 435/506 434/516
f 436/486 417/496 414/498
f 377/428 414/429 415/415
f 434/408 471/402 444/414
f 473/554 472/529 457/528
f 406/803 470/814 469/816
f 413/608 95/602 405/618
f 405/801 408/798 413/797
f 410/799 407/806 406/803
f 412/800 410/799 406/803
f 406/572 464/576 412/590
f 406/803 474/808 468/811
f 466/565 451/544 493/555
f 465/558 91/532 462/543
f 466/911 425/908 467/907
f 467/907 463/914 466/911
f 465/558 427/564 464/576
f 462/543 91/532 456/515
f 451/544 462/543 456/515
f 451/544 427/564 462/543
f 465/558 462/543 427/564
f 429/552 449/541 428/513
f 449/541 450/527 428/513
f 400/949 401/950 387/951
f 397/521 461/509 433/507
f 432/483 439/490 460/497
f 432/483 433/507 461/509
f 433/507 432/483 460/497
f 460/497 102/508 372/519
f 433/507 460/497 379/518
f 392/604 389/619 459/620
f 498/547 382/559 381/545
f 395/629 459/620 389/619
f 378/754 399/753 383/757
f 501/448 369/439 380/444
f 381/545 379/518 373/560
f 484/662 477/677 486/671
f 489/568 375/566 371/577
f 501/586 393/603 368/594
f 372/519 103/533 374/546
f 374/546 370/561 375/566
f 374/546 373/560 372/519
f 369/439 499/433 380/444
f 370/561 371/577 375/566
f 371/577 370/561 369/567
f 363/663 367/659 366/666
f 365/934 364/935 358/936
f 477/783 357/772 486/779
f 755/742 353/722 756/746
f 363/663 359/673 364/679
f 362/761 361/765 360/770
f 358/680 364/679 359/673
f 482/778 357/772 356/781
f 477/783 356/781 357/772
f 398/633 395/629 389/619
f 389/650 390/640 398/653
f 93/755 94/758 403/762
f 366/666 358/680 359/673
f 366/666 403/678 358/680
f 94/758 378/754 362/761
f 383/639 399/637 394/635
f 368/594 393/603 154/587
f 387/951 384/952 400/949
f 388/655 401/658 490/652
f 388/655 363/663 385/664
f 397/521 379/518 381/545
f 381/545 382/559 397/521
f 398/633 394/635 395/629
f 394/635 518/630 395/629
f 393/603 396/611 155/595
f 392/604 391/612 389/619
f 384/667 387/660 385/664
f 387/660 401/658 388/655
f 364/679 386/672 363/663
f 386/672 385/664 363/663
f 385/664 387/660 388/655
f 362/761 383/757 361/765
f 360/770 361/765 523/775
f 361/765 383/757 384/771
f 635/723 351/711 636/731
f 351/711 353/722 634/730
f 354/704 352/698 351/711
f 757/865 131/866 758/867
f 355/702 248/709 760/720
f 355/702 353/722 351/711
f 352/698 355/702 351/711
f 353/722 355/702 761/728
f 331/734 583/716 124/718
f 340/705 341/725 237/712
f 232/473 331/477 124/479
f 151/689 241/688 105/669
f 235/693 250/699 340/705
f 250/699 585/714 338/713
f 350/715 585/714 345/706
f 306/456 567/460 302/464
f 200/873 193/868 764/870
f 350/67 344/50 585/88
f 141/37 349/18 348/28
f 347/69 346/89 318/107
f 241/688 334/700 345/706
f 233/468 331/477 232/473
f 249/732 341/725 342/740
f 350/67 141/37 344/50
f 320/819 308/818 197/822
f 579/38 143/17 142/36
f 157/102 166/97 324/134
f 568/49 591/35 593/65
f 194/855 131/858 147/853
f 185/861 187/856 130/859
f 322/825 320/819 323/830
f 269/33 321/23 286/45
f 197/822 220/824 320/819
f 317/895 153/891 148/890
f 313/87 322/106 323/122
f 570/10 584/5 143/17
f 315/8 581/16 316/26
f 579/38 314/66 313/87
f 312/847 217/850 311/848
f 583/716 350/715 334/700
f 140/29 578/51 332/52
f 141/37 578/51 140/29
f 319/125 318/107 337/124
f 344/50 141/37 348/28
f 340/705 569/726 341/725
f 338/123 138/90 139/142
f 579/38 571/105 346/89
f 323/830 219/829 725/838
f 347/69 318/107 319/125
f 233/91 587/92 303/39
f 572/6 283/3 274/2
f 293/41 287/20 328/31
f 272/14 273/12 287/20
f 291/110 588/130 292/76
f 206/128 188/145 296/109
f 328/31 336/72 288/75
f 321/23 269/33 574/7
f 89/465 335/457 302/464
f 124/887 123/886 112/884
f 339/446 335/457 244/451
f 334/700 151/689 253/701
f 301/447 243/437 327/443
f 140/29 303/39 329/19
f 567/74 304/53 302/71
f 332/52 331/70 303/39
f 233/91 303/39 331/70
f 270/4 564/25 581/16
f 228/435 242/430 255/425
f 301/447 333/452 243/437
f 276/46 287/20 293/41
f 129/200 563/169 307/167
f 114/386 98/359 245/378
f 199/400 125/397 128/412
f 328/31 330/30 301/54
f 325/661 326/665 105/669
f 212/293 261/277 298/258
f 144/365 208/358 145/344
f 563/169 297/147 296/109
f 288/75 292/76 295/55
f 291/110 289/129 294/148
f 292/76 266/111 277/62
f 277/62 276/46 293/41
f 295/55 292/76 293/41
f 288/75 289/129 291/110
f 203/175 290/198 133/222
f 285/61 286/45 321/23
f 184/398 199/400 189/405
f 328/31 572/6 330/30
f 282/180 565/158 279/138
f 170/83 286/45 285/61
f 289/129 562/170 294/148
f 203/175 133/222 686/240
f 268/239 290/198 265/221
f 572/6 328/31 287/20
f 264/237 265/221 282/180
f 280/99 284/131 281/119
f 132/259 265/221 264/237
f 268/239 265/221 132/259
f 317/15 575/9 275/1
f 283/3 273/12 272/14
f 270/4 275/1 283/3
f 204/894 187/898 152/888
f 171/44 165/82 88/81
f 270/4 574/7 271/13
f 173/22 269/33 171/44
f 290/198 268/239 133/222
f 284/131 267/98 266/111
f 118/348 210/343 689/356
f 264/237 282/180 260/220
f 263/276 132/259 264/237
f 261/277 262/292 259/257
f 259/257 260/220 261/277
f 264/237 260/220 259/257
f 176/366 127/376 254/384
f 122/202 278/197 137/171
f 191/821 190/827 197/822
f 278/197 279/138 137/171
f 262/292 263/276 259/257
f 261/277 260/220 298/258
f 212/293 262/292 261/277
f 176/366 208/358 127/376
f 125/397 310/390 254/384
f 299/238 298/258 260/220
f 294/148 300/201 136/183
f 127/262 144/279 309/241
f 122/202 589/223 309/241
f 289/129 288/75 296/109
f 308/818 205/817 191/821
f 128/412 188/413 199/400
f 289/129 297/147 562/170
f 188/145 307/167 296/109
f 567/460 306/456 305/450
f 302/464 335/457 306/456
f 339/446 305/450 306/456
f 252/885 112/884 123/886
f 243/437 333/452 305/450
f 303/39 140/29 332/52
f 304/53 303/39 302/71
f 303/39 587/92 302/71
f 333/73 301/54 566/40
f 246/432 255/425 206/418
f 301/54 336/72 328/31
f 288/75 336/72 301/54
f 563/169 294/148 297/147
f 296/109 288/75 301/54
f 307/423 188/413 128/412
f 300/201 129/200 125/224
f 563/169 129/200 300/201
f 296/109 301/54 206/128
f 136/183 300/201 125/224
f 299/238 145/278 298/258
f 245/378 254/384 310/390
f 252/695 123/708 253/701
f 251/743 238/733 249/732
f 241/688 345/706 250/699
f 238/733 237/712 249/732
f 722/748 251/743 766/752
f 235/693 340/705 237/712
f 237/712 341/725 249/732
f 222/834 220/824 221/828
f 228/435 246/432 243/437
f 246/432 228/435 255/425
f 242/430 227/424 189/405
f 97/345 117/350 98/359
f 116/391 184/398 114/386
f 228/435 227/424 242/430
f 257/463 244/451 109/466
f 339/446 134/442 243/437
f 243/437 134/442 228/435
f 229/417 180/406 189/405
f 234/682 105/669 241/688
f 239/707 235/693 237/712
f 191/821 197/822 308/818
f 120/697 240/694 239/707
f 236/668 325/661 105/669
f 241/688 235/693 234/682
f 90/461 233/468 232/473
f 135/440 230/436 228/435
f 99/419 180/406 229/417
f 230/436 226/431 228/435
f 229/417 227/424 226/431
f 225/449 134/442 244/451
f 223/923 258/922 224/925
f 227/424 228/435 226/431
f 224/925 247/926 223/923
f 748/735 238/733 770/745
f 223/690 111/696 104/683
f 223/923 558/920 258/922
f 109/466 231/475 106/471
f 326/921 553/924 258/922
f 106/471 107/476 257/463
f 231/881 111/882 223/878
f 108/880 231/881 223/878
f 237/712 238/733 256/717
f 551/685 552/681 236/668
f 326/665 558/676 105/669
f 120/697 119/691 551/685
f 234/682 240/694 551/685
f 240/694 234/682 235/693
f 235/693 239/707 240/694
f 239/707 256/717 120/697
f 256/717 239/707 237/712
f 197/822 196/832 200/833
f 746/839 222/834 771/844
f 200/833 221/828 197/822
f 222/834 221/828 769/837
f 197/822 221/828 220/824
f 768/836 200/833 773/840
f 192/903 186/896 185/900
f 147/853 130/859 187/856
f 320/819 220/824 219/829
f 311/848 147/853 204/851
f 166/97 218/133 156/153
f 222/834 219/829 220/824
f 217/850 194/855 147/853
f 193/868 200/873 198/874
f 198/835 196/832 190/827
f 195/877 192/871 198/874
f 192/871 193/868 198/874
f 200/833 196/832 198/835
f 192/863 185/861 130/859
f 198/835 190/827 195/831
f 197/822 190/827 196/832
f 195/904 191/901 186/896
f 758/867 194/869 778/872
f 131/866 193/868 192/871
f 130/859 131/858 192/863
f 187/898 185/900 152/888
f 185/900 186/896 152/888
f 186/896 192/903 195/904
f 191/821 195/831 190/827
f 191/901 205/892 186/896
f 184/398 180/406 182/401
f 189/405 180/406 184/398
f 184/398 182/401 179/392
f 115/379 183/368 98/359
f 181/399 179/392 182/401
f 100/407 182/401 180/406
f 100/407 521/409 181/399
f 115/379 179/392 181/399
f 664/372 177/347 677/371
f 213/355 211/340 118/348
f 118/348 209/363 213/355
f 546/369 542/353 214/352
f 183/368 214/352 98/359
f 214/352 538/346 216/338
f 211/340 113/341 216/338
f 210/343 215/349 178/357
f 97/345 214/352 216/338
f 113/341 211/340 145/344
f 213/355 207/367 212/351
f 211/340 213/355 212/351
f 689/356 178/357 691/374
f 211/340 556/339 210/343
f 211/340 210/343 118/348
f 213/355 209/363 207/367
f 188/413 189/405 199/400
f 184/398 116/391 199/400
f 208/358 176/366 117/350
f 212/351 145/344 211/340
f 125/397 116/391 310/390
f 113/341 145/344 117/350
f 118/348 207/367 209/363
f 188/413 206/418 189/405
f 320/819 150/820 205/817
f 149/889 205/892 150/897
f 205/892 149/889 152/888
f 186/896 205/892 152/888
f 165/82 33/135 31/117
f 34/154 165/82 203/175
f 159/77 69/112 11/78
f 171/44 158/59 173/22
f 86/115 202/95 168/79
f 201/43 202/95 161/96
f 160/80 560/58 201/43
f 161/96 86/115 167/116
f 86/115 161/96 202/95
f 592/63 175/34 174/32
f 83/151 167/116 86/115
f 163/57 586/21 162/42
f 172/56 162/42 173/22
f 34/154 33/135 165/82
f 165/82 565/158 203/175
f 34/154 203/175 693/189
f 162/42 159/77 11/78
f 88/81 31/117 82/136
f 88/81 158/59 171/44
f 586/21 270/4 271/13
f 168/79 169/94 10/114
f 166/97 160/80 167/116
f 560/58 576/85 592/63
f 10/114 86/115 168/79
f 158/59 172/56 173/22
f 164/60 170/83 165/82
f 171/44 164/60 165/82
f 11/78 9/93 163/57
f 165/82 31/117 88/81
f 162/42 172/56 159/77
f 11/78 163/57 162/42
f 586/21 201/43 174/32
f 167/116 218/133 166/97
f 201/43 161/96 160/80
f 169/94 168/79 163/57
f 156/153 7/187 779/208
f 88/81 159/77 158/59
f 166/97 157/102 560/58
f 582/152 156/153 218/133
f 156/153 324/134 166/97
f 577/64 590/48 175/34
f 157/102 324/134 156/153
f 235/693 241/688 250/699
f 117/350 176/366 98/359
f 145/278 299/238 121/261
f 152/888 148/890 153/891
f 329/19 304/53 566/40
f 252/695 151/689 104/683
f 142/902 146/893 150/897
f 149/889 150/897 146/893
f 146/893 317/895 148/890
f 148/890 149/889 146/893
f 314/823 142/826 150/820
f 139/142 342/161 338/123
f 311/848 204/851 580/849
f 314/66 322/106 313/87
f 348/28 349/18 570/10
f 143/17 584/5 575/9
f 281/119 170/83 280/99
f 272/14 574/7 283/3
f 303/39 304/53 329/19
f 140/29 349/18 141/37
f 584/5 274/2 275/1
f 318/107 346/89 337/124
f 138/90 343/127 139/142
f 143/17 146/27 142/36
f 174/32 175/34 564/25
f 136/183 122/202 137/171
f 159/77 172/56 158/59
f 7/187 156/153 582/152
f 125/397 199/400 116/391
f 231/881 110/883 111/882
f 495/393 471/402 494/394
f 485/675 479/686 478/687
f 121/261 299/238 122/202
f 466/565 463/575 451/544
f 94/937 365/934 358/936
f 189/405 227/424 229/417
f 225/449 135/440 134/442
f 688/260 132/259 697/295
f 133/222 268/239 132/259
f 147/853 131/858 130/859
f 121/375 144/365 145/344
f 206/418 255/425 189/405
f 145/278 212/293 298/258
f 127/376 126/389 254/384
f 698/589 613/570 712/597
f 110/469 90/461 112/474
f 111/882 110/883 112/884
f 297/147 289/129 296/109
f 90/461 110/469 109/466
f 106/471 108/478 107/476
f 364/777 365/766 360/770
f 517/588 516/613 515/621
f 105/669 234/682 236/668
f 119/691 120/697 355/702
f 484/662 325/661 236/668
f 151/689 105/669 104/683
f 376/534 103/533 102/508
f 101/426 99/419 229/417
f 101/426 100/407 99/419
f 92/505 458/503 533/488
f 680/598 530/580 698/589
f 531/607 539/610 532/601
f 446/600 540/599 422/609
f 95/602 539/610 96/617
f 95/602 96/617 681/623
f 183/368 537/387 494/394
f 522/481 418/485 437/482
f 491/578 154/587 155/595
f 511/487 430/500 431/510
f 392/604 155/595 391/612
f 378/754 94/758 93/755
f 390/640 505/649 490/652
f 549/641 390/640 393/644
f 379/953 372/954 373/955
f 412/590 464/576 411/593
f 92/505 91/532 457/528
f 427/564 426/585 464/576
f 426/585 427/564 492/592
f 683/810 476/807 685/813
f 102/508 460/497 439/490
f 372/519 102/508 103/533
f 384/771 383/757 400/776
f 94/758 358/768 403/762
f 155/595 154/587 393/603
f 390/640 389/650 391/648
f 105/669 558/676 104/683
f 277/62 266/111 267/98
f 194/855 217/850 740/857
f 90/461 89/465 233/468
f 253/701 123/708 124/718
f 151/689 252/695 253/701
f 89/465 90/461 335/457
f 243/437 246/432 327/443
f 127/262 589/223 126/242
f 309/241 121/261 122/202
f 245/378 176/366 254/384
f 152/888 153/891 204/894
f 264/237 259/257 263/276
f 254/384 136/396 125/397
f 137/171 294/148 136/183
f 301/54 327/168 246/146
f 125/397 129/416 128/412
f 245/378 98/359 176/366
f 252/885 111/882 112/884
f 228/435 134/442 135/440
f 110/469 231/475 109/466
f 232/473 112/474 90/461
f 108/478 106/471 231/475
f 180/406 99/419 100/407
f 107/476 519/470 257/463
f 311/848 217/850 147/853
f 204/851 147/853 187/856
f 179/392 115/379 114/386
f 178/357 215/349 177/347
f 214/352 97/345 98/359
f 98/359 114/386 115/379
f 97/345 216/338 113/341
f 117/350 97/345 113/341
f 672/383 118/348 699/373
f 245/378 116/391 114/386
f 145/344 208/358 117/350
f 269/33 164/60 171/44
f 9/93 10/114 163/57
f 637/306 30/288 638/321
f 67/320 59/304 73/287
f 31/117 63/193 15/178
f 39/274 27/233 639/254
f 700/251 36/232 701/269
f 45/186 52/207 83/151
f 86/115 10/114 84/150
f 24/284 79/264 41/205
f 25/275 39/274 641/309
f 24/284 2/291 643/317
f 56/195 57/157 14/179
f 81/204 20/226 80/243
f 6/229 80/243 782/281
f 47/137 48/177 14/179
f 57/157 47/137 14/179
f 12/113 55/172 21/173
f 28/216 29/271 85/272
f 646/280 79/264 647/301
f 81/204 49/149 19/184
f 787/325 648/299 788/329
f 80/243 6/229 81/204
f 781/297 87/316 784/324
f 73/287 72/270 75/267
f 86/115 84/150 46/174
f 73/287 60/252 72/270
f 64/215 74/176 76/191
f 15/178 13/156 31/117
f 639/254 26/217 650/273
f 30/288 58/326 651/333
f 78/245 22/228 41/205
f 29/271 62/253 85/272
f 638/321 61/328 653/330
f 70/302 38/318 73/287
f 58/326 67/320 38/318
f 81/204 51/206 49/149
f 51/206 45/186 44/185
f 59/304 68/305 60/252
f 77/192 31/117 74/176
f 70/302 73/287 75/267
f 88/81 47/137 54/118
f 31/117 77/192 28/216
f 71/214 64/215 76/191
f 71/214 66/249 75/267
f 30/288 67/320 58/326
f 35/190 34/154 696/212
f 75/267 66/249 37/285
f 65/213 71/214 32/155
f 35/190 36/232 65/213
f 650/273 62/253 654/289
f 75/267 72/270 71/214
f 63/193 23/255 42/235
f 15/178 63/193 43/218
f 18/203 17/225 21/173
f 49/149 51/206 44/185
f 49/149 8/132 12/113
f 49/149 84/150 10/114
f 7/187 582/152 83/151
f 54/118 47/137 57/157
f 50/236 16/234 1/256
f 43/218 1/256 16/234
f 55/172 57/157 4/196
f 88/81 82/136 47/137
f 31/117 13/156 82/136
f 13/156 3/194 56/195
f 82/136 13/156 14/179
f 48/177 82/136 14/179
f 41/205 53/227 50/236
f 41/205 21/173 53/227
f 83/151 52/207 7/187
f 648/299 80/243 657/283
f 20/226 78/245 646/280
f 27/233 25/275 23/255
f 41/205 1/256 24/284
f 26/217 27/233 63/193
f 62/253 29/271 649/307
f 28/216 85/272 62/253
f 61/328 30/288 652/331
f 29/271 28/216 60/252
f 73/287 59/304 60/252
f 30/288 68/305 59/304
f 73/287 38/318 67/320
f 60/252 68/305 30/288
f 64/215 71/214 60/252
f 59/304 67/320 30/288
f 703/327 37/285 706/319
f 705/303 66/249 707/286
f 66/249 65/213 700/251
f 37/285 70/302 75/267
f 60/252 28/216 64/215
f 71/214 76/191 32/155
f 28/216 74/176 64/215
f 77/192 74/176 28/216
f 34/154 35/190 32/155
f 62/253 26/217 28/216
f 28/216 26/217 31/117
f 58/326 38/318 37/285
f 38/318 70/302 37/285
f 709/250 35/190 710/266
f 32/155 35/190 65/213
f 71/214 65/213 66/249
f 33/135 34/154 32/155
f 31/117 33/135 32/155
f 26/217 63/193 31/117
f 32/155 76/191 74/176
f 60/252 30/288 29/271
f 79/264 24/284 644/300
f 41/205 22/228 19/184
f 78/245 20/226 22/228
f 41/205 79/264 78/245
f 6/229 40/244 81/204
f 658/263 20/226 662/282
f 84/150 44/185 46/174
f 49/149 21/173 19/184
f 17/225 18/203 4/196
f 21/173 49/149 12/113
f 20/226 19/184 22/228
f 15/178 43/218 16/234
f 56/195 14/179 13/156
f 50/236 15/178 16/234
f 11/78 69/112 12/113
f 4/196 18/203 55/172
f 8/132 10/114 9/93
f 15/178 3/194 13/156
f 41/205 50/236 1/256
f 4/196 57/157 56/195
f 12/113 54/118 55/172
f 45/186 6/229 52/207
f 40/244 45/186 51/206
f 23/255 1/256 42/235
f 15/178 50/236 5/219
f 5/219 3/194 15/178
f 50/236 53/227 17/225
f 159/77 54/118 69/112
f 82/136 48/177 47/137
f 10/114 8/132 49/149
f 44/185 84/150 49/149
f 12/113 8/132 9/93
f 55/172 18/203 21/173
f 1/256 43/218 42/235
f 50/236 17/225 5/219
f 4/196 5/219 17/225
f 25/275 27/233 39/274
f 19/184 20/226 81/204
f 40/244 6/229 45/186
f 2/291 25/275 642/310
f 7/187 52/207 6/229
f 32/155 74/176 31/117
f 3/194 5/219 4/196
f 83/151 46/174 45/186
f 45/186 46/174 44/185
f 779/208 6/229 785/246
f 9/93 11/78 12/113
f 60/252 71/214 72/270
f 21/173 17/225 53/227
f 81/204 40/244 51/206
f 55/172 54/118 57/157
f 12/113 69/112 54/118
f 63/193 42/235 43/218
f 2/291 1/256 23/255
f 41/205 19/184 21/173
f 1/256 2/291 24/284
f 56/195 3/194 4/196
f 25/275 2/291 23/255
f 23/255 63/193 27/233
f 594/790 487/784 605/789
f 595/785 487/784 594/790
f 596/710 479/686 354/704
f 597/721 481/703 596/710
f 598/501 509/492 511/487
f 599/512 509/492 598/501
f 600/764 402/767 601/774
f 601/774 402/767 632/780
f 602/537 509/492 603/524
f 603/524 509/492 599/512
f 604/511 511/487 510/523
f 605/789 487/784 611/786
f 606/773 557/769 612/763
f 607/626 515/621 606/631
f 608/724 354/704 635/723
f 609/579 496/549 517/588
f 610/596 517/588 622/605
f 611/786 487/784 356/781
f 612/763 557/769 399/753
f 613/570 530/580 526/562
f 614/551 526/562 428/513
f 615/526 509/492 623/540
f 616/539 428/513 615/526
f 617/536 510/523 618/550
f 618/550 510/523 496/549
f 619/569 496/549 609/579
f 620/614 515/621 607/626
f 621/782 482/778 595/785
f 622/605 517/588 620/614
f 623/540 509/492 602/537
f 712/597 624/606 713/615
f 625/756 93/755 631/760
f 626/759 399/753 625/756
f 627/788 356/781 480/787
f 628/794 481/792 597/796
f 629/795 480/787 628/794
f 630/793 480/787 629/795
f 631/760 93/755 600/764
f 632/780 402/767 621/782
f 634/730 353/722 633/739
f 635/723 354/704 351/711
f 636/731 351/711 634/730
f 637/306 29/271 30/288
f 638/321 30/288 61/328
f 639/254 27/233 26/217
f 640/290 39/274 639/254
f 641/309 39/274 640/290
f 642/310 25/275 641/309
f 643/317 2/291 642/310
f 644/300 24/284 643/317
f 645/322 29/271 637/306
f 646/280 78/245 79/264
f 647/301 79/264 644/300
f 648/299 87/316 80/243
f 649/307 29/271 645/322
f 650/273 26/217 62/253
f 651/333 58/326 661/335
f 652/331 30/288 651/333
f 653/330 61/328 660/334
f 654/289 62/253 659/308
f 655/296 20/226 646/280
f 656/315 20/226 655/296
f 657/283 80/243 658/263
f 658/263 80/243 20/226
f 659/308 62/253 649/307
f 660/334 61/328 652/331
f 661/335 58/326 704/332
f 662/282 20/226 663/298
f 663/298 20/226 656/315
f 664/372 178/357 177/347
f 665/382 178/357 664/372
f 666/313 263/276 668/311
f 667/294 263/276 666/313
f 668/311 263/276 262/292
f 669/385 262/377 207/367
f 670/312 132/259 667/294
f 671/314 132/259 670/312
f 672/383 207/367 118/348
f 673/628 95/602 684/627
f 674/632 476/624 673/628
f 675/362 177/347 475/354
f 676/370 475/354 678/381
f 677/371 177/347 675/362
f 678/809 475/805 404/804
f 679/616 531/607 680/598
f 680/598 531/607 530/580
f 681/623 96/617 679/616
f 682/812 404/804 683/810
f 683/810 404/804 476/807
f 684/627 95/602 681/623
f 685/813 476/807 674/815
f 686/240 133/222 688/260
f 687/247 203/175 686/240
f 688/260 133/222 132/259
f 689/356 210/343 178/357
f 690/364 118/348 689/356
f 691/374 178/357 665/382
f 692/211 203/175 694/230
f 693/189 203/175 692/211
f 694/230 203/175 687/247
f 695/210 34/154 693/189
f 696/212 34/154 695/210
f 697/295 132/259 671/314
f 698/589 530/580 613/570
f 699/373 118/348 690/364
f 700/251 65/213 36/232
f 701/269 36/232 708/268
f 702/231 35/190 696/212
f 703/327 58/326 37/285
f 704/332 58/326 703/327
f 705/303 37/285 66/249
f 706/319 37/285 705/303
f 707/286 66/249 700/251
f 708/268 36/232 709/250
f 709/250 36/232 35/190
f 710/266 35/190 711/248
f 711/248 35/190 702/231
f 712/597 613/570 624/606
f 713/615 624/606 714/622
f 715/336 661/335 704/332
f 716/337 661/335 715/336
f 717/108 138/90 347/69
f 718/126 347/69 319/125
f 719/744 249/732 342/740
f 720/751 251/743 719/744
f 721/750 238/733 722/748
f 722/748 238/733 251/743
f 723/101 568/49 738/104
f 724/84 568/49 723/101
f 725/838 219/829 726/843
f 726/843 219/829 746/839
f 727/100 312/47 724/84
f 728/166 139/142 343/127
f 729/165 343/127 752/144
f 730/181 139/142 728/166
f 731/199 342/161 730/181
f 732/163 319/125 733/164
f 733/164 319/125 337/124
f 734/103 577/64 742/121
f 735/86 593/65 734/103
f 736/139 312/47 737/120
f 737/120 312/47 727/100
f 738/104 568/49 735/86
f 739/854 217/850 736/852
f 740/857 217/850 739/854
f 741/162 337/124 750/143
f 742/121 577/64 157/102
f 743/140 157/102 744/159
f 744/159 157/102 156/153
f 745/188 156/153 780/209
f 746/839 219/829 222/834
f 747/719 120/697 256/717
f 748/735 256/717 238/733
f 749/727 248/709 747/719
f 750/143 337/124 571/105
f 751/141 571/105 323/122
f 752/144 343/127 717/108
f 753/736 248/709 749/727
f 754/842 323/830 725/838
f 755/742 633/739 353/722
f 756/746 353/722 759/741
f 757/865 193/868 131/866
f 758/867 131/866 194/869
f 759/741 353/722 762/738
f 760/720 248/709 763/729
f 761/728 355/702 760/720
f 762/738 353/722 761/728
f 763/729 248/709 767/737
f 764/870 193/868 757/865
f 765/876 200/873 764/870
f 766/752 251/743 720/751
f 767/737 248/709 753/736
f 768/836 221/828 200/833
f 769/837 221/828 768/836
f 770/745 238/733 721/750
f 771/844 222/834 772/841
f 772/841 222/834 769/837
f 773/840 200/833 776/845
f 774/862 194/855 775/860
f 775/860 194/855 740/857
f 776/845 200/833 765/846
f 777/864 194/855 774/862
f 778/872 194/869 777/875
f 779/208 7/187 6/229
f 780/209 156/153 779/208
f 781/297 80/243 87/316
f 782/281 80/243 781/297
f 783/265 6/229 782/281
f 784/324 87/316 787/325
f 785/246 6/229 783/265
f 786/747 633/739 755/742
f 787/325 87/316 648/299
usemtl Tile_+032_+023_L20_0001020_untextured
