mtllib Tile_+032_+023_L19_000031.mtl
v 6.34401045e+03 5.56482969e+03 2.46485710e+01
v 6.34355810e+03 5.56518760e+03 2.52951415e+01
v 6.34355353e+03 5.56354440e+03 2.42254676e+01
v 6.34449976e+03 5.57505485e+03 2.10542101e+01
v 6.34362189e+03 5.58159081e+03 2.10596951e+01
v 6.34813067e+03 5.58208869e+03 2.06238732e+01
v 6.34480399e+03 5.56768303e+03 2.14933941e+01
v 6.34513638e+03 5.56551645e+03 2.13074895e+01
v 6.34408868e+03 5.56829857e+03 2.10469686e+01
v 6.34492808e+03 5.56701224e+03 2.27393857e+01
v 6.34431739e+03 5.56754262e+03 2.34552180e+01
v 6.34555195e+03 5.56600823e+03 2.33815582e+01
v 6.34614477e+03 5.56566553e+03 2.33252065e+01
v 6.34607566e+03 5.56240631e+03 2.56573645e+01
v 6.34407997e+03 5.58539770e+03 2.09729804e+01
v 6.34441628e+03 5.57070914e+03 1.63529833e+01
v 6.34408481e+03 5.56916798e+03 1.62380733e+01
v 6.34484128e+03 5.56446742e+03 2.40596119e+01
v 6.34558525e+03 5.56539849e+03 2.38321203e+01
v 6.34573225e+03 5.56371455e+03 2.48255189e+01
v 6.34501544e+03 5.56640310e+03 2.40847120e+01
v 6.34446135e+03 5.56385440e+03 2.39789851e+01
v 6.34393604e+03 5.56690115e+03 2.42147733e+01
v 6.34402957e+03 5.56833104e+03 2.41817610e+01
v 6.34622111e+03 5.57769094e+03 2.09785377e+01
v 6.34396249e+03 5.56828626e+03 2.24512940e+01
v 6.34363791e+03 5.56962037e+03 2.33629796e+01
v 6.34477678e+03 5.56828239e+03 1.51526898e+01
v 6.34510452e+03 5.56290279e+03 2.47965694e+01
v 6.34522437e+03 5.56277035e+03 1.02064537e+01
v 6.34402979e+03 5.56718477e+03 1.84522406e+01
v 6.34425692e+03 5.59241453e+03 2.07050501e+01
v 6.34477487e+03 5.56917608e+03 1.60547156e+01
v 6.34415796e+03 5.57028967e+03 1.05376545e+01
v 6.34557288e+03 5.57009554e+03 1.52201164e+01
v 6.34561342e+03 5.58906442e+03 2.06426139e+01
v 6.34492154e+03 5.56504696e+03 2.36986053e+01
v 6.34655557e+03 5.57495254e+03 1.68903585e+01
v 6.34633429e+03 5.57499584e+03 2.10258666e+01
v 6.34561697e+03 5.56467722e+03 2.08580597e+01
v 6.34578113e+03 5.56376392e+03 1.96351415e+01
v 6.34544631e+03 5.56589830e+03 1.87916063e+01
v 6.34584416e+03 5.56470537e+03 1.91984536e+01
v 6.34497607e+03 5.57107865e+03 1.52757338e+01
v 6.34444989e+03 5.57307455e+03 1.17632184e+01
v 6.34541003e+03 5.56249874e+03 1.09688902e+01
v 6.34564045e+03 5.56230446e+03 1.33342465e+01
v 6.34382057e+03 5.56461360e+03 1.23449973e+01
v 6.34466766e+03 5.56257947e+03 1.21163868e+01
v 6.34382625e+03 5.56714600e+03 1.19894085e+01
v 6.34505176e+03 5.56714073e+03 1.44185689e+01
v 6.34461587e+03 5.56992529e+03 1.39054819e+01
v 6.34374384e+03 5.56942238e+03 1.21463538e+01
v 6.34476881e+03 5.56854258e+03 1.39485476e+01
v 6.34469045e+03 5.57503918e+03 1.13129880e+01
v 6.34618164e+03 5.57495978e+03 1.22079716e+01
v 6.34453692e+03 5.57165656e+03 1.07300473e+01
v 6.34383221e+03 5.56877926e+03 1.11988925e+01
v 6.34407208e+03 5.56882115e+03 1.06262546e+01
v 6.34407134e+03 5.56780246e+03 1.00806901e+01
v 6.34548311e+03 5.57421313e+03 1.08613891e+01
v 6.34671706e+03 5.56445289e+03 9.89116036e+00
v 6.34423795e+03 5.56658694e+03 9.94972760e+00
v 6.34598346e+03 5.57053075e+03 1.00701866e+01
v 6.34394789e+03 5.57130882e+03 1.53784767e+01
v 6.34695456e+03 5.57392039e+03 9.82535642e+00
v 6.34635563e+03 5.56441182e+03 2.18186824e+01
v 6.34425619e+03 5.56720480e+03 1.65573323e+01
v 6.34476166e+03 5.56740870e+03 1.55838750e+01
v 6.34635091e+03 5.56331864e+03 1.56885436e+01
v 6.34528910e+03 5.56444611e+03 1.45674909e+01
v 6.34543739e+03 5.56614814e+03 1.68541473e+01
v 6.34533017e+03 5.56696918e+03 1.56954520e+01
v 6.34494523e+03 5.56688603e+03 1.99390036e+01
v 6.34678468e+03 5.56325217e+03 1.95129665e+01
v 6.34758886e+03 5.56372517e+03 1.82271038e+01
v 6.34596931e+03 5.56532727e+03 1.78000271e+01
v 6.34662581e+03 5.56459335e+03 2.54997911e+01
v 6.36335254e+03 5.56396394e+03 1.65971858e+01
v 6.36240535e+03 5.56339245e+03 1.46996127e+01
v 6.35321065e+03 5.56336098e+03 9.68740610e+00
v 6.34757410e+03 5.56260906e+03 1.03713709e+01
v 6.36414490e+03 5.56468784e+03 1.66842606e+01
v 6.36289085e+03 5.56438263e+03 1.68333473e+01
v 6.36350004e+03 5.56576467e+03 1.64203789e+01
v 6.35635422e+03 5.57163634e+03 9.62885312e+00
v 6.35788492e+03 5.57187345e+03 9.73073570e+00
v 6.36110658e+03 5.59149900e+03 8.98686622e+00
v 6.36209047e+03 5.59132038e+03 8.43909481e+00
v 6.36041718e+03 5.58986495e+03 9.54943056e+00
v 6.36002115e+03 5.59036581e+03 1.01354462e+01
v 6.36276272e+03 5.59342137e+03 8.49334512e+00
v 6.36412092e+03 5.58105757e+03 1.48483294e+01
v 6.36335712e+03 5.58041841e+03 1.41060258e+01
v 6.36321699e+03 5.57807209e+03 1.06181329e+01
v 6.36332514e+03 5.57880963e+03 1.11650432e+01
v 6.36099383e+03 5.56419934e+03 9.54905619e+00
v 6.35840076e+03 5.56559984e+03 9.33724417e+00
v 6.36261054e+03 5.58205481e+03 1.03090342e+01
v 6.36219408e+03 5.58324280e+03 1.01390534e+01
v 6.35306947e+03 5.56681700e+03 9.53571017e+00
v 6.35386207e+03 5.56579595e+03 9.60380590e+00
v 6.35668316e+03 5.56892250e+03 9.59407962e+00
v 6.35784984e+03 5.56789699e+03 1.14766516e+01
v 6.35743237e+03 5.56760428e+03 9.69793338e+00
v 6.36016665e+03 5.56266930e+03 9.60494684e+00
v 6.35772649e+03 5.56435520e+03 9.56594813e+00
v 6.36283900e+03 5.58512268e+03 1.60418513e+01
v 6.36145114e+03 5.59278805e+03 8.60535397e+00
v 6.36602799e+03 5.59287906e+03 9.16739032e+00
v 6.36616332e+03 5.58967279e+03 9.10897046e+00
v 6.35704128e+03 5.59195552e+03 1.95033117e+01
v 6.36446560e+03 5.57932062e+03 9.64506833e+00
v 6.36549488e+03 5.57933784e+03 8.85431763e+00
v 6.36520209e+03 5.57764004e+03 9.63165030e+00
v 6.36574923e+03 5.58887647e+03 8.67783051e+00
v 6.36690811e+03 5.58738742e+03 9.77104342e+00
v 6.36852504e+03 5.57108493e+03 9.25400881e+00
v 6.36756779e+03 5.56995443e+03 9.63103270e+00
v 6.36696510e+03 5.57169672e+03 9.13630514e+00
v 6.36852237e+03 5.58183845e+03 9.50432419e+00
v 6.36661763e+03 5.58204023e+03 8.75706629e+00
v 6.36879605e+03 5.56802048e+03 9.37216560e+00
v 6.36526736e+03 5.56500957e+03 9.51221333e+00
v 6.36843708e+03 5.56397733e+03 9.51409435e+00
v 6.36701735e+03 5.57831411e+03 8.90495057e+00
v 6.36399560e+03 5.58123090e+03 1.60177942e+01
v 6.36315284e+03 5.56687671e+03 1.41205152e+01
v 6.36308902e+03 5.56596290e+03 1.53172870e+01
v 6.36190572e+03 5.56544889e+03 1.46683211e+01
v 6.35942983e+03 5.56582110e+03 9.73612414e+00
v 6.36133348e+03 5.56500566e+03 1.02888993e+01
v 6.36431233e+03 5.57588307e+03 1.03098044e+01
v 6.36496258e+03 5.57395111e+03 1.02623354e+01
v 6.36668912e+03 5.57506816e+03 8.90589012e+00
v 6.36591227e+03 5.57732331e+03 8.90832782e+00
v 6.35939485e+03 5.57012734e+03 1.18879353e+01
v 6.36025663e+03 5.56790858e+03 1.18476018e+01
v 6.35873764e+03 5.56865928e+03 1.19498186e+01
v 6.36286937e+03 5.56287771e+03 1.34770356e+01
v 6.36246178e+03 5.56323148e+03 1.14727100e+01
v 6.36643989e+03 5.57395195e+03 9.24566469e+00
v 6.36326861e+03 5.57960919e+03 1.43107166e+01
v 6.36315441e+03 5.58044026e+03 1.22690318e+01
v 6.36086021e+03 5.56766089e+03 1.08612494e+01
v 6.35960963e+03 5.56765120e+03 1.08193882e+01
v 6.36110722e+03 5.58745996e+03 8.87758561e+00
v 6.36273939e+03 5.58742044e+03 8.60495199e+00
v 6.36802077e+03 5.58055646e+03 9.32915612e+00
v 6.36442180e+03 5.58132644e+03 9.02848527e+00
v 6.36633351e+03 5.58378037e+03 8.72212048e+00
v 6.36763597e+03 5.58499716e+03 9.76740515e+00
v 6.36032965e+03 5.59047944e+03 1.61787095e+01
v 6.36122800e+03 5.59077820e+03 1.60795219e+01
v 6.36192628e+03 5.58528464e+03 1.61703603e+01
v 6.35960507e+03 5.59305653e+03 1.61750207e+01
v 6.36381768e+03 5.57799056e+03 9.92369357e+00
v 6.35867628e+03 5.57010734e+03 1.12322767e+01
v 6.35894744e+03 5.57104805e+03 9.20398561e+00
v 6.36268034e+03 5.56711143e+03 1.17475772e+01
v 6.36403711e+03 5.56717315e+03 1.19307581e+01
v 6.36325349e+03 5.56670689e+03 1.23745183e+01
v 6.36437590e+03 5.56617885e+03 1.39916613e+01
v 6.36447811e+03 5.56624349e+03 1.26307726e+01
v 6.36489949e+03 5.57391676e+03 1.68047802e+01
v 6.36214025e+03 5.57404209e+03 1.68334175e+01
v 6.36132383e+03 5.56404745e+03 1.29218249e+01
v 6.35947766e+03 5.57724461e+03 1.97281375e+01
v 6.36058700e+03 5.57417776e+03 1.96771403e+01
v 6.35951460e+03 5.59170196e+03 1.69146373e+01
v 6.36149380e+03 5.58482126e+03 1.68941157e+01
v 6.35789842e+03 5.58885983e+03 1.66675977e+01
v 6.35869165e+03 5.58012032e+03 1.96388006e+01
v 6.35969082e+03 5.57886755e+03 1.91422184e+01
v 6.35921498e+03 5.56260862e+03 1.89417231e+01
v 6.35608921e+03 5.57663710e+03 2.00471239e+01
v 6.36065347e+03 5.57593245e+03 1.90187937e+01
v 6.35754285e+03 5.58346773e+03 1.97174688e+01
v 6.36249652e+03 5.58925929e+03 8.49446760e+00
v 6.36352850e+03 5.57383544e+03 9.39776138e+00
v 6.36468374e+03 5.57290214e+03 9.22800332e+00
v 6.36470763e+03 5.56537667e+03 1.52006178e+01
v 6.36509637e+03 5.56543051e+03 1.39373826e+01
v 6.36522451e+03 5.56442818e+03 1.28653197e+01
v 6.35819206e+03 5.58420471e+03 1.90501351e+01
v 6.36078409e+03 5.57889010e+03 1.67387281e+01
v 6.36334947e+03 5.57927815e+03 1.68266258e+01
v 6.35940749e+03 5.56229655e+03 2.01572878e+01
v 6.35601245e+03 5.57315052e+03 9.44798006e+00
v 6.35527702e+03 5.57447756e+03 1.99994122e+01
v 6.35339502e+03 5.57465147e+03 2.03603078e+01
v 6.36783123e+03 5.59220852e+03 2.76010066e+00
v 6.36804181e+03 5.59367968e+03 2.65863437e+00
v 6.36483834e+03 5.57078899e+03 9.59203149e+00
v 6.36542426e+03 5.56849814e+03 9.91301998e+00
v 6.35866897e+03 5.56949548e+03 1.24426273e+01
v 6.35870216e+03 5.57164055e+03 1.24652497e+01
v 6.36877766e+03 5.57380379e+03 8.96941282e+00
v 6.36381757e+03 5.58136521e+03 1.13475772e+01
v 6.36369220e+03 5.58128666e+03 1.29571201e+01
v 6.36047578e+03 5.58028176e+03 1.95230167e+01
v 6.36120519e+03 5.58743992e+03 1.62104766e+01
v 6.35296595e+03 5.57458874e+03 1.19305482e+01
v 6.35405506e+03 5.57452813e+03 1.67837844e+01
v 6.34917161e+03 5.56265734e+03 2.34223692e+01
v 6.34872716e+03 5.56337643e+03 2.38879973e+01
v 6.37316110e+03 5.57516942e+03 6.32786233e+00
v 6.37367767e+03 5.57430183e+03 5.46764259e+00
v 6.37264736e+03 5.57289432e+03 8.39155287e+00
v 6.37297249e+03 5.57117358e+03 7.72828601e+00
v 6.37077728e+03 5.56604832e+03 1.20600553e+01
v 6.37156400e+03 5.56648021e+03 1.24261311e+01
v 6.37030943e+03 5.56788883e+03 1.00391899e+01
v 6.37122292e+03 5.56692164e+03 9.65036385e+00
v 6.37208821e+03 5.56586046e+03 9.77605276e+00
v 6.37066067e+03 5.56513471e+03 1.01164692e+01
v 6.37191409e+03 5.56842968e+03 9.92809377e+00
v 6.37073740e+03 5.56915181e+03 1.01084961e+01
v 6.36833491e+03 5.58990301e+03 8.43312609e+00
v 6.36884056e+03 5.58553768e+03 8.38446241e+00
v 6.36948227e+03 5.57059537e+03 9.39037318e+00
v 6.37208693e+03 5.56970023e+03 1.00299028e+01
v 6.37190128e+03 5.57125929e+03 1.16374452e+01
v 6.36882267e+03 5.57659800e+03 8.93572594e+00
v 6.36973689e+03 5.57953028e+03 9.35579969e+00
v 6.37184598e+03 5.56576301e+03 1.46900391e+01
v 6.37103338e+03 5.56629001e+03 1.48950001e+01
v 6.37309487e+03 5.56505246e+03 9.58835711e+00
v 6.36974867e+03 5.56620732e+03 1.00866299e+01
v 6.37047538e+03 5.56532397e+03 9.75622470e+00
v 6.37239543e+03 5.56609464e+03 1.18039236e+01
v 6.37112560e+03 5.58067113e+03 7.25507582e+00
v 6.37187693e+03 5.57866124e+03 3.04453505e+00
v 6.37426632e+03 5.56978169e+03 3.90299894e+00
v 6.37426205e+03 5.56997127e+03 6.08587453e+00
v 6.37419193e+03 5.57102113e+03 5.49092927e+00
v 6.37345347e+03 5.57304032e+03 6.01127160e+00
v 6.37348032e+03 5.57232816e+03 6.68588165e+00
v 6.37322572e+03 5.57417274e+03 3.42688728e+00
v 6.37383158e+03 5.57105554e+03 7.37909078e+00
v 6.37304035e+03 5.57357929e+03 7.27118034e+00
v 6.37248186e+03 5.57426374e+03 7.84635022e+00
v 6.37429552e+03 5.57119808e+03 6.78525862e+00
v 6.37338940e+03 5.57467298e+03 7.07534566e+00
v 6.37376888e+03 5.57017928e+03 7.90369241e+00
v 6.37240776e+03 5.57612969e+03 7.86985816e+00
v 6.37181161e+03 5.57506770e+03 8.12191065e+00
v 6.37477857e+03 5.56810691e+03 6.82214785e+00
v 6.37444769e+03 5.56914031e+03 7.71157117e+00
v 6.37433647e+03 5.57402490e+03 3.44348446e+00
v 6.37470432e+03 5.57017359e+03 3.35646546e+00
v 6.36793128e+03 5.59174405e+03 7.19485983e+00
v 6.36854175e+03 5.58989230e+03 3.32565146e+00
v 6.37064196e+03 5.58972519e+03 2.65510247e+00
v 6.36943584e+03 5.59074742e+03 2.99056051e+00
v 6.37339077e+03 5.58180880e+03 2.83063740e+00
v 6.37111328e+03 5.58067395e+03 3.22865288e+00
v 6.37244190e+03 5.57676291e+03 6.68979085e+00
v 6.37176412e+03 5.57907646e+03 7.76075613e+00
v 6.37209063e+03 5.57768981e+03 7.94269573e+00
v 6.37080838e+03 5.57905642e+03 7.94369678e+00
v 6.37008052e+03 5.58099970e+03 8.31654551e+00
v 6.37150161e+03 5.57698914e+03 8.38327831e+00
v 6.37091276e+03 5.58220711e+03 3.10327369e+00
v 6.37012407e+03 5.58220521e+03 8.35045470e+00
v 6.36989542e+03 5.58479355e+03 7.91125427e+00
v 6.36919658e+03 5.58342012e+03 8.50145910e+00
v 6.37129590e+03 5.57537553e+03 9.16495412e+00
v 6.36981857e+03 5.59221201e+03 2.69288674e+00
v 6.36866822e+03 5.59133328e+03 2.65781106e+00
v 6.36889978e+03 5.58830103e+03 3.04560256e+00
v 6.37039413e+03 5.58413343e+03 2.95709935e+00
v 6.36972609e+03 5.57413079e+03 9.63342204e+00
v 6.36916422e+03 5.57541325e+03 9.60188694e+00
v 6.36900828e+03 5.57250747e+03 9.38143762e+00
v 6.36885865e+03 5.57154852e+03 9.77717452e+00
v 6.36992782e+03 5.57347447e+03 1.03189475e+01
v 6.37233351e+03 5.57173918e+03 9.51804793e+00
v 6.37395196e+03 5.56866929e+03 9.01435963e+00
v 6.37214824e+03 5.57301057e+03 9.17096619e+00
v 6.36944835e+03 5.56898125e+03 9.49370538e+00
v 6.37391775e+03 5.57155632e+03 3.25012248e+00
v 6.37304458e+03 5.56681037e+03 1.00777237e+01
v 6.37271617e+03 5.56778521e+03 1.00500264e+01
v 6.37306997e+03 5.56368836e+03 9.41548444e+00
v 6.37232813e+03 5.56265362e+03 9.97813574e+00
v 6.37349128e+03 5.56708446e+03 9.43039530e+00
v 6.37380421e+03 5.56479767e+03 9.67679937e+00
v 6.36838723e+03 5.58403373e+03 9.40966901e+00
v 6.36868319e+03 5.58288777e+03 9.96837809e+00
v 6.36931333e+03 5.58132080e+03 9.76102881e+00
v 6.36950195e+03 5.58238050e+03 9.37669618e+00
v 6.36779608e+03 5.58383976e+03 9.39020998e+00
v 6.36866497e+03 5.57774380e+03 9.08492127e+00
v 6.36797686e+03 5.57868024e+03 9.41549532e+00
v 6.37335334e+03 5.57292566e+03 3.03318021e+00
v 6.36971559e+03 5.58595473e+03 2.86190291e+00
v 6.37396577e+03 5.56346259e+03 1.00302345e+01
v 6.37513576e+03 5.56318711e+03 1.00692787e+01
v 6.37437520e+03 5.56420003e+03 9.35629342e+00
v 6.37372723e+03 5.56798004e+03 9.58878808e+00
v 6.37446649e+03 5.56719868e+03 8.78560657e+00
v 6.37430706e+03 5.56574772e+03 9.36701512e+00
v 6.37116188e+03 5.57352554e+03 9.86765615e+00
v 6.36749528e+03 5.58609385e+03 9.35758423e+00
v 6.37108192e+03 5.56373055e+03 1.13159858e+01
v 6.37221897e+03 5.56482064e+03 1.21920649e+01
v 6.37243697e+03 5.56520295e+03 1.16859660e+01
v 6.37173261e+03 5.56467213e+03 1.03347390e+01
v 6.37060372e+03 5.56344169e+03 1.01612345e+01
v 6.37174922e+03 5.56354148e+03 9.44764068e+00
v 6.37101333e+03 5.56302377e+03 9.85807790e+00
v 6.37236394e+03 5.56491785e+03 1.02866735e+01
v 6.37210968e+03 5.56577145e+03 1.06589867e+01
v 6.37001343e+03 5.56571520e+03 1.10412961e+01
v 6.37044348e+03 5.56372043e+03 1.14448786e+01
v 6.37266152e+03 5.56552111e+03 1.09472608e+01
v 6.37360502e+03 5.56231854e+03 9.70057695e+00
v 6.37369156e+03 5.56546030e+03 1.01490217e+01
v 6.37206395e+03 5.57251998e+03 1.14406681e+01
v 6.37146017e+03 5.57304919e+03 1.20908286e+01
v 6.36945373e+03 5.56799961e+03 9.90241636e+00
v 6.37028885e+03 5.56946132e+03 1.11866637e+01
v 6.36966891e+03 5.56997757e+03 1.18582309e+01
v 6.36890614e+03 5.57105919e+03 1.14869101e+01
v 6.36949918e+03 5.57052677e+03 1.05107473e+01
v 6.37055150e+03 5.57751269e+03 9.07347724e+00
v 6.36978999e+03 5.56958879e+03 1.00781144e+01
v 6.36941486e+03 5.56442189e+03 1.15436019e+01
v 6.36908995e+03 5.56572450e+03 1.10645186e+01
v 6.36903963e+03 5.56481200e+03 1.01839127e+01
v 6.36882146e+03 5.56570121e+03 9.94244106e+00
v 6.36980198e+03 5.56629269e+03 1.35408010e+01
v 6.36842385e+03 5.57220651e+03 1.05427793e+01
v 6.36853870e+03 5.57210245e+03 1.19361253e+01
v 6.37103303e+03 5.56415000e+03 1.45427579e+01
v 6.37060559e+03 5.56414050e+03 1.22812610e+01
v 6.37022523e+03 5.56413859e+03 1.33371703e+01
v 6.37266554e+03 5.56587592e+03 1.27313456e+01
v 6.37211135e+03 5.56635809e+03 1.36688908e+01
v 6.36980091e+03 5.56523444e+03 1.42027819e+01
v 6.36942949e+03 5.57107630e+03 1.36485273e+01
v 6.37004241e+03 5.57006438e+03 1.29606212e+01
v 6.37198506e+03 5.56511032e+03 1.42182821e+01
v 6.37087221e+03 5.57007220e+03 1.18704533e+01
v 6.37146828e+03 5.57061757e+03 1.31273379e+01
v 6.37126050e+03 5.56957729e+03 1.05562533e+01
v 6.37018844e+03 5.57549830e+03 9.59221475e+00
v 6.36982911e+03 5.57353375e+03 1.14159764e+01
v 6.36955741e+03 5.57058972e+03 1.25757806e+01
v 6.36917535e+03 5.56510373e+03 1.27889624e+01
v 6.37016057e+03 5.56597026e+03 1.48681694e+01
v 6.37078404e+03 5.56583701e+03 1.61999440e+01
v 6.37096314e+03 5.57246426e+03 1.31587928e+01
v 6.37035678e+03 5.57189154e+03 1.51950187e+01
v 6.37037284e+03 5.57073532e+03 1.38479574e+01
v 6.36984597e+03 5.57104195e+03 1.48178274e+01
v 6.37028288e+03 5.56507897e+03 1.57103071e+01
v 6.37102026e+03 5.56532926e+03 1.61559094e+01
v 6.36984957e+03 5.57240618e+03 1.38924302e+01
v 6.37046325e+03 5.57128834e+03 1.52484393e+01
v 6.36893161e+03 5.57102207e+03 1.30971862e+01
v 6.37103080e+03 5.57133835e+03 1.41956254e+01
v 6.36972317e+03 5.57172374e+03 1.46774266e+01
v 6.37254895e+03 5.57686861e+03 2.93326172e+00
v 6.37206918e+03 5.58583929e+03 2.76009184e+00
v 6.37430942e+03 5.58872699e+03 2.68558190e+00
v 6.35462133e+03 5.57473730e+03 1.02052841e+01
v 6.34794823e+03 5.57038315e+03 9.95371008e+00
v 6.35441177e+03 5.57416776e+03 9.47845028e+00
v 6.34782641e+03 5.57468220e+03 9.96296037e+00
v 6.35493004e+03 5.57186337e+03 9.91297264e+00
v 6.35536050e+03 5.57249187e+03 9.29290754e+00
v 6.35492799e+03 5.56850072e+03 1.15482759e+01
v 6.35448800e+03 5.56938329e+03 1.05134063e+01
v 6.35786525e+03 5.57163604e+03 1.12684966e+01
v 6.35420364e+03 5.57145475e+03 1.01530279e+01
v 6.35582141e+03 5.57174152e+03 1.18837604e+01
v 6.34857511e+03 5.57226138e+03 9.74011216e+00
v 6.34798501e+03 5.57490716e+03 1.12046856e+01
v 6.34882320e+03 5.57465367e+03 9.99681927e+00
v 6.35025117e+03 5.57468979e+03 9.41084429e+00
v 6.35573035e+03 5.56790701e+03 9.39789435e+00
v 6.35542564e+03 5.56615277e+03 9.52634469e+00
v 6.35528177e+03 5.56768176e+03 1.11719621e+01
v 6.34719243e+03 5.56266075e+03 1.51786452e+01
v 6.34872887e+03 5.56292745e+03 2.01142149e+01
v 6.34887433e+03 5.56343482e+03 1.88581109e+01
v 6.35339660e+03 5.57173634e+03 9.89363111e+00
v 6.35329674e+03 5.57128516e+03 1.18465466e+01
v 6.34694347e+03 5.56283132e+03 2.11990267e+01
v 6.34751963e+03 5.56249850e+03 1.64971211e+01
v 6.34735897e+03 5.56543491e+03 2.46497631e+01
v 6.36067253e+03 5.58834093e+03 1.00550067e+01
v 6.36115930e+03 5.58604602e+03 9.72291781e+00
v 6.36157566e+03 5.58912869e+03 9.14353476e+00
v 6.36038558e+03 5.57041014e+03 1.05974148e+01
v 6.35575666e+03 5.56898417e+03 1.18710589e+01
v 6.35545889e+03 5.56846900e+03 1.12424641e+01
v 6.35786407e+03 5.57415517e+03 9.86964550e+00
v 6.35923982e+03 5.57259311e+03 9.45373736e+00
v 6.36126982e+03 5.57213455e+03 9.49678935e+00
v 6.36249154e+03 5.57034124e+03 1.18861977e+01
v 6.36059530e+03 5.57405122e+03 9.07026664e+00
v 6.36204770e+03 5.57139491e+03 9.94770012e+00
v 6.36265554e+03 5.56230666e+03 9.69636404e+00
v 6.36341507e+03 5.56341857e+03 9.77857121e+00
v 6.36130563e+03 5.56375370e+03 1.04703751e+01
v 6.36249179e+03 5.56294200e+03 1.02974151e+01
v 6.36463421e+03 5.56331658e+03 1.29095215e+01
v 6.36510557e+03 5.56657269e+03 9.80327721e+00
v 6.36586694e+03 5.57620635e+03 9.85163811e+00
v 6.36396264e+03 5.57669060e+03 1.09714993e+01
v 6.36228774e+03 5.57069797e+03 1.07529070e+01
v 6.36125669e+03 5.56511538e+03 1.25699313e+01
v 6.36315572e+03 5.56868600e+03 1.17703811e+01
v 6.36166574e+03 5.56801641e+03 1.19201595e+01
v 6.36306671e+03 5.58060633e+03 1.62892310e+01
v 6.36205006e+03 5.57393155e+03 1.10692044e+01
v 6.36154847e+03 5.56641917e+03 1.20693700e+01
v 6.35467238e+03 5.57438345e+03 1.17375228e+01
v 6.36458539e+03 5.56735863e+03 1.15503596e+01
v 6.36495452e+03 5.56880719e+03 1.16453227e+01
v 6.36442201e+03 5.57477943e+03 1.04183596e+01
v 6.36169767e+03 5.56739429e+03 1.14397491e+01
v 6.36116708e+03 5.56676556e+03 1.09663495e+01
v 6.36444746e+03 5.56992785e+03 1.04593716e+01
v 6.34881748e+03 5.57480291e+03 1.44862798e+01
v 6.35649266e+03 5.57138537e+03 1.24810266e+01
v 6.35496450e+03 5.57170605e+03 1.15557260e+01
v 6.35667166e+03 5.56937604e+03 1.25331855e+01
v 6.35094779e+03 5.57452014e+03 1.19778933e+01
v 6.35076056e+03 5.57482510e+03 1.02667976e+01
v 6.35490515e+03 5.57078930e+03 1.16075105e+01
v 6.35734802e+03 5.56907367e+03 1.24170074e+01
v 6.35339932e+03 5.56847144e+03 1.17676236e+01
v 6.35323208e+03 5.56877295e+03 9.82297565e+00
v 6.35434587e+03 5.57112870e+03 1.05405958e+01
v 6.35445543e+03 5.56790024e+03 1.16044927e+01
v 6.35009782e+03 5.56320764e+03 1.09905468e+01
v 6.34905995e+03 5.56357651e+03 9.83731308e+00
v 6.35623195e+03 5.57437267e+03 1.22456939e+01
v 6.34714101e+03 5.57418837e+03 1.09719515e+01
v 6.34922551e+03 5.56856317e+03 9.52663512e+00
v 6.34842502e+03 5.56284214e+03 1.09007453e+01
v 6.35080948e+03 5.57093691e+03 9.36175696e+00
v 6.35050385e+03 5.56370447e+03 9.80081027e+00
v 6.35862597e+03 5.56700220e+03 9.63674178e+00
v 6.35282831e+03 5.57220115e+03 9.42345568e+00
v 6.35520218e+03 5.56654586e+03 1.04637219e+01
v 6.35351143e+03 5.56670273e+03 1.06930673e+01
v 6.35906839e+03 5.56680503e+03 9.39180798e+00
v 6.35258888e+03 5.57469235e+03 9.58493630e+00
v 6.35681501e+03 5.57332795e+03 1.00362410e+01
v 6.35644641e+03 5.57437314e+03 9.43515958e+00
v 6.35638251e+03 5.56908307e+03 1.07790251e+01
v 6.34903212e+03 5.58797997e+03 2.04089748e+01
v 6.35542750e+03 5.59106464e+03 1.97331706e+01
v 6.35252150e+03 5.59315069e+03 1.99443477e+01
v 6.35400527e+03 5.58529631e+03 2.00385143e+01
v 6.35130615e+03 5.57824373e+03 2.04848059e+01
v 6.35199902e+03 5.57660190e+03 2.04274023e+01
v 6.35019863e+03 5.57672043e+03 2.06046993e+01
v 6.34864837e+03 5.57487817e+03 2.08534974e+01
v 6.34846517e+03 5.56305130e+03 2.06559838e+01
v 6.35005745e+03 5.56278726e+03 1.93860297e+01
v 6.35752775e+03 5.56244244e+03 1.90790060e+01
v 6.35714441e+03 5.57438358e+03 1.99633838e+01
v 6.35641790e+03 5.59391194e+03 1.67591529e+01
v 6.35535656e+03 5.59344307e+03 1.91565001e+01
v 6.35826808e+03 5.58778504e+03 1.95068172e+01
v 6.35668823e+03 5.58724012e+03 1.96133879e+01
v 6.35598275e+03 5.59135425e+03 1.90183772e+01
v 6.35668136e+03 5.58903022e+03 1.91026696e+01
v 6.34848263e+03 5.56481166e+03 2.45278224e+01
v 6.34775024e+03 5.56370574e+03 2.52830530e+01
v 6.34706554e+03 5.56308057e+03 2.53601359e+01
v 6.34806489e+03 5.56285899e+03 2.55927113e+01
v 6.34864302e+03 5.56332078e+03 2.49016406e+01
v 6.36737752e+03 5.59282467e+03 7.88242604e+00
v 6.36734408e+03 5.58984084e+03 8.90848514e+00
v 6.36043622e+03 5.59380245e+03 9.20675249e+00
v 6.35887362e+03 5.59358717e+03 9.55777561e+00
v 6.35975755e+03 5.59215839e+03 8.77298865e+00
v 6.36222773e+03 5.58650363e+03 9.27730090e+00
v 6.36289968e+03 5.58525703e+03 9.20592517e+00
v 6.36185079e+03 5.58506470e+03 9.21773683e+00
v 6.36168568e+03 5.58473782e+03 1.01129644e+01
v 6.36112112e+03 5.59083877e+03 1.14086215e+01
v 6.35892422e+03 5.57410427e+03 9.24734749e+00
v 6.36294616e+03 5.58120851e+03 9.98487198e+00
v 6.36277127e+03 5.58077333e+03 1.09261206e+01
v 6.36373181e+03 5.58137911e+03 9.88088614e+00
v 6.36237295e+03 5.58287533e+03 9.79761570e+00
v 6.36330124e+03 5.58250633e+03 9.90544390e+00
v 6.36297612e+03 5.58427293e+03 1.13134741e+01
v 6.36316267e+03 5.57953721e+03 9.72214646e+00
v 6.36150256e+03 5.59027525e+03 9.28933845e+00
v 6.36265641e+03 5.57336473e+03 9.08373803e+00
v 6.35983825e+03 5.56629164e+03 1.07296277e+01
v 6.36081575e+03 5.56592217e+03 1.07820871e+01
v 6.36283536e+03 5.58405742e+03 1.02760324e+01
v 6.36513260e+03 5.56555183e+03 1.09141236e+01
v 6.36425534e+03 5.56457762e+03 9.88003670e+00
v 6.36628191e+03 5.56863374e+03 9.20571430e+00
v 6.36531607e+03 5.56557594e+03 1.21279124e+01
v 6.36524339e+03 5.56422627e+03 1.15491738e+01
v 6.36399413e+03 5.58409753e+03 8.77098788e+00
v 6.36482183e+03 5.57382839e+03 1.19115795e+01
v 6.36408790e+03 5.56996962e+03 1.19318220e+01
v 6.36700774e+03 5.58848133e+03 9.23195742e+00
v 6.36632069e+03 5.59303168e+03 8.33179526e+00
v 6.36591308e+03 5.58674334e+03 8.77278396e+00
v 6.36491010e+03 5.59283744e+03 9.07053813e+00
v 6.36776459e+03 5.58799489e+03 8.68486573e+00
v 6.36267932e+03 5.56655502e+03 1.29979394e+01
v 6.36518715e+03 5.56595400e+03 1.33714605e+01
v 6.36253603e+03 5.58273069e+03 1.62555822e+01
v 6.36421058e+03 5.56370077e+03 1.50369985e+01
v 6.36431265e+03 5.56491775e+03 1.57591205e+01
v 6.36480495e+03 5.56433772e+03 1.49338336e+01
v 6.36179457e+03 5.57575272e+03 1.95281534e+01
v 6.36215747e+03 5.57407998e+03 1.92802606e+01
v 6.36227525e+03 5.56512867e+03 1.63579996e+01
v 6.35906352e+03 5.58463041e+03 1.66926531e+01
v 6.35763948e+03 5.58625517e+03 1.90982369e+01
v 6.35897954e+03 5.58133138e+03 1.90130508e+01
v 6.35900939e+03 5.56227063e+03 2.08679644e+01
v 6.35924063e+03 5.58451504e+03 1.95125860e+01
v 6.34350000e+03 5.57298259e+03 1.17579525e+01
v 6.34350000e+03 5.57492662e+03 1.21087905e+01
v 6.34350000e+03 5.56537081e+03 2.53334241e+01
v 6.34350000e+03 5.56521858e+03 2.53385217e+01
v 6.34350000e+03 5.56967053e+03 2.37729761e+01
v 6.34350000e+03 5.56962891e+03 2.33847390e+01
v 6.34350000e+03 5.57051653e+03 1.05876359e+01
v 6.34350000e+03 5.57034533e+03 1.07310738e+01
v 6.34350000e+03 5.56888823e+03 1.72194088e+01
v 6.34350000e+03 5.56904729e+03 1.72095002e+01
v 6.34350000e+03 5.56678381e+03 2.46114159e+01
v 6.34350000e+03 5.56588436e+03 2.48270773e+01
v 6.34350000e+03 5.57514993e+03 2.11171928e+01
v 6.34350000e+03 5.57829134e+03 2.11898947e+01
v 6.34350000e+03 5.57901360e+03 2.12037919e+01
v 6.34350000e+03 5.56892984e+03 2.24733745e+01
v 6.34350000e+03 5.56896945e+03 2.21786346e+01
v 6.34350000e+03 5.56953371e+03 2.40095759e+01
v 6.34350000e+03 5.56939994e+03 2.29507975e+01
v 6.34350000e+03 5.56950397e+03 2.16906590e+01
v 6.34350000e+03 5.57929934e+03 2.11932446e+01
v 6.34350000e+03 5.58081411e+03 2.11122748e+01
v 6.34350000e+03 5.57112246e+03 1.53787112e+01
v 6.34350000e+03 5.57076276e+03 1.58199889e+01
v 6.34350000e+03 5.58417429e+03 2.10987392e+01
v 6.34350000e+03 5.58559991e+03 2.10044869e+01
v 6.34350000e+03 5.58153147e+03 2.10870028e+01
v 6.34350000e+03 5.56319621e+03 2.43132999e+01
v 6.34350000e+03 5.56352464e+03 2.42347594e+01
v 6.34350000e+03 5.56356089e+03 2.42718306e+01
v 6.34350000e+03 5.56538323e+03 2.52514460e+01
v 6.34350000e+03 5.56496859e+03 2.53361929e+01
v 6.34350000e+03 5.56451574e+03 2.52644314e+01
v 6.34350000e+03 5.56725819e+03 2.43879825e+01
v 6.34350000e+03 5.56426501e+03 2.46761543e+01
v 6.34350000e+03 5.56797388e+03 2.43899495e+01
v 6.34350000e+03 5.59121648e+03 2.07995212e+01
v 6.34350000e+03 5.59240731e+03 2.07780883e+01
v 6.34350000e+03 5.59289832e+03 2.07658477e+01
v 6.34350000e+03 5.57010020e+03 1.62215180e+01
v 6.34350000e+03 5.56958245e+03 1.61951181e+01
v 6.34350000e+03 5.56857559e+03 1.73520433e+01
v 6.34350000e+03 5.56986482e+03 2.04685492e+01
v 6.34350000e+03 5.56880006e+03 1.85775417e+01
v 6.34350000e+03 5.57516884e+03 1.67831784e+01
v 6.34350000e+03 5.57514800e+03 1.56656490e+01
v 6.34350000e+03 5.56971278e+03 1.23550329e+01
v 6.34350000e+03 5.57009641e+03 1.29785719e+01
v 6.34350000e+03 5.57019726e+03 1.09928870e+01
v 6.34350000e+03 5.57082080e+03 1.06725952e+01
v 6.34350000e+03 5.57177035e+03 1.08259219e+01
v 6.34350000e+03 5.56238585e+03 9.97065133e+00
v 6.34350000e+03 5.56474416e+03 9.90106880e+00
v 6.34350000e+03 5.56614083e+03 1.02687545e+01
v 6.34350000e+03 5.56599575e+03 9.93445074e+00
v 6.34350000e+03 5.56236159e+03 9.97998815e+00
v 6.34350000e+03 5.56699036e+03 1.03067918e+01
v 6.34350000e+03 5.56235872e+03 1.00766536e+01
v 6.34350000e+03 5.56269721e+03 1.10126872e+01
v 6.34350000e+03 5.56235200e+03 1.00024069e+01
v 6.34350000e+03 5.56764687e+03 1.06589376e+01
v 6.34350000e+03 5.57194298e+03 1.10045969e+01
v 6.34350000e+03 5.57496568e+03 1.21029689e+01
v 6.34350000e+03 5.57496445e+03 1.21165173e+01
v 6.34350000e+03 5.57050580e+03 1.40421627e+01
v 6.34350000e+03 5.57070731e+03 1.42547412e+01
v 6.34350000e+03 5.57088733e+03 1.45544841e+01
v 6.34350000e+03 5.56482532e+03 1.19617290e+01
v 6.34350000e+03 5.56451179e+03 1.19825406e+01
v 6.34350000e+03 5.57514367e+03 1.44914860e+01
v 6.34350000e+03 5.57513422e+03 2.01767895e+01
v 6.34350000e+03 5.56844387e+03 1.78591061e+01
v 6.34350000e+03 5.56942556e+03 1.12225300e+01
v 6.34350000e+03 5.56970957e+03 1.17898048e+01
v 6.34350000e+03 5.56962528e+03 1.10043463e+01
v 6.34350000e+03 5.56675585e+03 1.16858857e+01
v 6.34350000e+03 5.56316660e+03 1.12896160e+01
v 6.37525000e+03 5.57383756e+03 2.95829909e+00
v 6.37525000e+03 5.57384018e+03 2.97821714e+00
v 6.37525000e+03 5.56683533e+03 6.32739479e+00
v 6.37525000e+03 5.56610861e+03 8.66516752e+00
v 6.37525000e+03 5.59377822e+03 2.54306829e+00
v 6.37525000e+03 5.58855788e+03 2.67630310e+00
v 6.37525000e+03 5.58582797e+03 2.70008317e+00
v 6.37525000e+03 5.58122133e+03 2.77531270e+00
v 6.37525000e+03 5.57379291e+03 2.94503527e+00
v 6.37525000e+03 5.56744350e+03 3.21489538e+00
v 6.37525000e+03 5.56709225e+03 3.27375670e+00
v 6.37525000e+03 5.56972380e+03 3.24253539e+00
v 6.37525000e+03 5.57390437e+03 2.94148516e+00
v 6.37525000e+03 5.57656092e+03 2.87738303e+00
v 6.37525000e+03 5.57736508e+03 2.92301149e+00
v 6.37525000e+03 5.57965994e+03 2.82494847e+00
v 6.37525000e+03 5.56702445e+03 4.07635619e+00
v 6.37525000e+03 5.56294865e+03 9.89160460e+00
v 6.37525000e+03 5.56609985e+03 8.67398128e+00
v 6.37525000e+03 5.56610321e+03 8.67285960e+00
v 6.37525000e+03 5.56347566e+03 9.70664606e+00
v 6.37525000e+03 5.56446004e+03 9.00165588e+00
v 6.37525000e+03 5.56413376e+03 9.00517311e+00
v 6.37525000e+03 5.57340159e+03 2.98986787e+00
v 6.34524496e+03 5.56225000e+03 2.51816980e+01
v 6.34463864e+03 5.56225000e+03 2.51820013e+01
v 6.34596491e+03 5.56225000e+03 2.56547211e+01
v 6.34660215e+03 5.56225000e+03 1.01338613e+01
v 6.34623098e+03 5.56225000e+03 1.01681857e+01
v 6.34559281e+03 5.56225000e+03 1.08070294e+01
v 6.34560135e+03 5.56225000e+03 1.02318133e+01
v 6.34548398e+03 5.56225000e+03 1.09566037e+01
v 6.34569959e+03 5.56225000e+03 1.14200127e+01
v 6.34399073e+03 5.56225000e+03 2.47309015e+01
v 6.34438055e+03 5.56225000e+03 2.51573007e+01
v 6.34570348e+03 5.56225000e+03 1.32613984e+01
v 6.35901766e+03 5.56225000e+03 2.08694722e+01
v 6.35940860e+03 5.56225000e+03 2.01911394e+01
v 6.36875891e+03 5.56225000e+03 9.52592293e+00
v 6.36662830e+03 5.56225000e+03 9.55610453e+00
v 6.35899873e+03 5.56225000e+03 2.08707535e+01
v 6.35895261e+03 5.56225000e+03 2.08290805e+01
v 6.35939095e+03 5.56225000e+03 1.90986986e+01
v 6.35995846e+03 5.56225000e+03 1.90903072e+01
v 6.35923538e+03 5.56225000e+03 2.01718492e+01
v 6.35776336e+03 5.56225000e+03 1.95435088e+01
v 6.35748277e+03 5.56225000e+03 1.90723240e+01
v 6.35862311e+03 5.56225000e+03 1.96634943e+01
v 6.35955775e+03 5.56225000e+03 1.88027128e+01
v 6.35881183e+03 5.56225000e+03 1.86611277e+01
v 6.36479867e+03 5.56225000e+03 9.56610107e+00
v 6.36011451e+03 5.56225000e+03 9.61439505e+00
v 6.35944919e+03 5.56225000e+03 9.62870753e+00
v 6.35747436e+03 5.56225000e+03 9.64967556e+00
v 6.34896950e+03 5.56225000e+03 2.39141324e+01
v 6.34920363e+03 5.56225000e+03 2.32917594e+01
v 6.34683886e+03 5.56225000e+03 2.51411523e+01
v 6.34634583e+03 5.56225000e+03 2.54317616e+01
v 6.34986974e+03 5.56225000e+03 1.82632304e+01
v 6.35015498e+03 5.56225000e+03 1.92684037e+01
v 6.34616104e+03 5.56225000e+03 2.56407340e+01
v 6.34827417e+03 5.56225000e+03 2.21986045e+01
v 6.34845742e+03 5.56225000e+03 2.24004434e+01
v 6.34874013e+03 5.56225000e+03 2.26885809e+01
v 6.34873253e+03 5.56225000e+03 2.42376790e+01
v 6.34826518e+03 5.56225000e+03 2.53642136e+01
v 6.34783065e+03 5.56225000e+03 2.54026804e+01
v 6.34714410e+03 5.56225000e+03 2.52249635e+01
v 6.34862008e+03 5.56225000e+03 2.49440004e+01
v 6.34968587e+03 5.56225000e+03 1.80177922e+01
v 6.35746247e+03 5.56225000e+03 1.89015295e+01
v 6.34795284e+03 5.56225000e+03 1.64163422e+01
v 6.34793178e+03 5.56225000e+03 1.57650066e+01
v 6.35013628e+03 5.56225000e+03 1.99307825e+01
v 6.34920277e+03 5.56225000e+03 2.04233026e+01
v 6.34914532e+03 5.56225000e+03 2.06174238e+01
v 6.35008675e+03 5.56225000e+03 1.99637442e+01
v 6.34831963e+03 5.56225000e+03 2.10307374e+01
v 6.35515445e+03 5.56225000e+03 9.69289766e+00
v 6.35423099e+03 5.56225000e+03 9.74183875e+00
v 6.35363374e+03 5.56225000e+03 9.76309646e+00
v 6.35283030e+03 5.56225000e+03 9.84025848e+00
v 6.34692839e+03 5.56225000e+03 1.02286886e+01
v 6.35188058e+03 5.56225000e+03 9.88792718e+00
v 6.34762914e+03 5.56225000e+03 1.03199185e+01
v 6.34811424e+03 5.56225000e+03 1.08907184e+01
v 6.34842427e+03 5.56225000e+03 1.11142912e+01
v 6.34850946e+03 5.56225000e+03 1.10069845e+01
v 6.34872022e+03 5.56225000e+03 1.11535101e+01
v 6.35015288e+03 5.56225000e+03 1.11559172e+01
v 6.35942841e+03 5.56225000e+03 2.01248465e+01
v 6.36378473e+03 5.56225000e+03 9.71689578e+00
v 6.36270286e+03 5.56225000e+03 9.69399569e+00
v 6.36260044e+03 5.56225000e+03 9.69606197e+00
v 6.34956901e+03 5.56225000e+03 1.79277822e+01
v 6.34885346e+03 5.56225000e+03 1.73101193e+01
v 6.34783311e+03 5.56225000e+03 2.11752639e+01
v 6.34574881e+03 5.56225000e+03 1.33863583e+01
v 6.34722587e+03 5.56225000e+03 1.48140316e+01
v 6.35107262e+03 5.56225000e+03 9.93337801e+00
v 6.35023182e+03 5.56225000e+03 1.09553772e+01
v 6.37164121e+03 5.56225000e+03 1.02306887e+01
v 6.37244367e+03 5.56225000e+03 1.00153835e+01
v 6.37370180e+03 5.56225000e+03 9.79745028e+00
v 6.37362629e+03 5.56225000e+03 9.68499447e+00
v 6.37468584e+03 5.56225000e+03 1.03671648e+01
v 6.36981441e+03 5.56225000e+03 9.59425938e+00
v 6.37069363e+03 5.56225000e+03 9.73938048e+00
v 6.37113668e+03 5.56225000e+03 1.02596295e+01
v 6.37357166e+03 5.56225000e+03 9.72074075e+00
v 6.37429497e+03 5.56225000e+03 1.03817294e+01
v 6.34389647e+03 5.56225000e+03 2.47043903e+01
v 6.34350000e+03 5.56225000e+03 2.45928898e+01
v 6.37478345e+03 5.56225000e+03 1.02589984e+01
v 6.37525000e+03 5.56225000e+03 9.74195971e+00
v 6.34536121e+03 5.59400000e+03 2.05601543e+01
v 6.34694567e+03 5.59400000e+03 2.04411017e+01
v 6.34781612e+03 5.59400000e+03 2.03643988e+01
v 6.35884740e+03 5.59400000e+03 1.68852903e+01
v 6.35906885e+03 5.59400000e+03 1.65546258e+01
v 6.36716456e+03 5.59400000e+03 6.65026035e+00
v 6.36715236e+03 5.59400000e+03 7.56233815e+00
v 6.36031337e+03 5.59400000e+03 1.60618268e+01
v 6.36023375e+03 5.59400000e+03 1.40699519e+01
v 6.36018401e+03 5.59400000e+03 1.14567468e+01
v 6.35663672e+03 5.59400000e+03 1.67706962e+01
v 6.35966823e+03 5.59400000e+03 1.61332123e+01
v 6.35933657e+03 5.59400000e+03 1.61862208e+01
v 6.36678012e+03 5.59400000e+03 7.85833468e+00
v 6.36605238e+03 5.59400000e+03 8.24885020e+00
v 6.36592642e+03 5.59400000e+03 8.55813262e+00
v 6.36581655e+03 5.59400000e+03 8.77943820e+00
v 6.36434594e+03 5.59400000e+03 8.66206214e+00
v 6.36446630e+03 5.59400000e+03 8.67384479e+00
v 6.36451076e+03 5.59400000e+03 8.69094365e+00
v 6.36447142e+03 5.59400000e+03 8.68710582e+00
v 6.35888261e+03 5.59400000e+03 9.73759480e+00
v 6.36195152e+03 5.59400000e+03 9.09616000e+00
v 6.36194667e+03 5.59400000e+03 9.09902654e+00
v 6.36050680e+03 5.59400000e+03 9.16078823e+00
v 6.36044121e+03 5.59400000e+03 9.17452097e+00
v 6.36191942e+03 5.59400000e+03 9.10182782e+00
v 6.36194500e+03 5.59400000e+03 9.09844790e+00
v 6.36017048e+03 5.59400000e+03 9.07884423e+00
v 6.35885945e+03 5.59400000e+03 9.22864650e+00
v 6.35915328e+03 5.59400000e+03 8.55154253e+00
v 6.35878529e+03 5.59400000e+03 9.42988516e+00
v 6.36257364e+03 5.59400000e+03 8.33944879e+00
v 6.36257105e+03 5.59400000e+03 8.22698419e+00
v 6.36301172e+03 5.59400000e+03 8.36204238e+00
v 6.36736874e+03 5.59400000e+03 2.81219097e+00
v 6.36781961e+03 5.59400000e+03 2.70203355e+00
v 6.36710201e+03 5.59400000e+03 7.70489579e+00
v 6.35497375e+03 5.59400000e+03 1.94058140e+01
v 6.35473270e+03 5.59400000e+03 1.96588021e+01
v 6.35639740e+03 5.59400000e+03 1.69727258e+01
v 6.35645456e+03 5.59400000e+03 1.95253965e+01
v 6.35563074e+03 5.59400000e+03 1.92877262e+01
v 6.35271135e+03 5.59400000e+03 1.99009134e+01
v 6.35380058e+03 5.59400000e+03 1.97608266e+01
v 6.34822088e+03 5.59400000e+03 2.03338275e+01
v 6.35010720e+03 5.59400000e+03 2.01535475e+01
v 6.35639216e+03 5.59400000e+03 1.67568954e+01
v 6.36805500e+03 5.59400000e+03 2.65448835e+00
v 6.35881044e+03 5.59400000e+03 9.64024362e+00
v 6.37033240e+03 5.59400000e+03 2.66194021e+00
v 6.36905594e+03 5.59400000e+03 2.66279979e+00
v 6.37254696e+03 5.59400000e+03 2.63467391e+00
v 6.34387998e+03 5.59400000e+03 2.06917620e+01
v 6.34350000e+03 5.59400000e+03 2.07301517e+01
v 6.37502180e+03 5.59400000e+03 2.54642115e+00
v 6.37525000e+03 5.59400000e+03 2.53828368e+00
vt 0.052952103 0.60285169
vt 0.031426094 0.6109885
vt 0.047152139 0.60285324
vt 0.054761704 0.63727367
vt 0.037313424 0.6028558
vt 0.068137906 0.60845482
vt 0.0044835545 0.60499156
vt 0.058048528 0.60284913
vt 0.091365606 0.62356889
vt 0.0044833217 0.60461241
vt 0.0044963127 0.64184093
vt 0.068996713 0.60284472
vt 0.093981467 0.7014879
vt 0.016035501 0.67063034
vt 0.11392773 0.62556124
vt 0.0045022517 0.66139692
vt 0.074027993 0.72992748
vt 0.15622126 0.62018156
vt 0.11874507 0.73857129
vt 0.043327723 0.73224258
vt 0.13543083 0.60282731
vt 0.15403457 0.6741842
vt 0.083835028 0.75927389
vt 0.013436814 0.68962252
vt 0.12280586 0.60283101
vt 0.15027089 0.60282296
vt 0.16641311 0.6582256
vt 0.15029499 0.75831419
vt 0.087720573 0.79664981
vt 0.058521356 0.78520346
vt 0.0044990284 0.66366053
vt 0.01344702 0.70553446
vt 0.16282551 0.60281962
vt 0.19084671 0.6637938
vt 0.15658185 0.70474255
vt 0.11003988 0.7972126
vt 0.072146304 0.79710102
vt 0.020723293 0.74983448
vt 0.0045028776 0.67693418
vt 0.014797411 0.72848046
vt 0.17215787 0.60281682
vt 0.22678806 0.6356945
vt 0.15916663 0.75104415
vt 0.14656471 0.79723895
vt 0.035519041 0.78977501
vt 0.004502032 0.6871888
vt 0.18658762 0.60281259
vt 0.22283679 0.60280126
vt 0.23733257 0.655141
vt 0.17177227 0.74663782
vt 0.17504592 0.78903413
vt 0.019358421 0.77198124
vt 0.004517932 0.73678148
vt 0.25369391 0.60279143
vt 0.19561812 0.69120359
vt 0.26490667 0.60933959
vt 0.18986374 0.76284516
vt 0.02313252 0.80268174
vt 0.0045160251 0.77054918
vt 0.0045209224 0.75161672
vt 0.0045173978 0.73202813
vt 0.24085493 0.67704898
vt 0.27783981 0.63324285
vt 0.18312716 0.753021
vt 0.20005201 0.77313179
vt 0.0045217108 0.80092138
vt 0.0045196814 0.7543124
vt 0.0045148339 0.72935176
vt 0.26408979 0.60278821
vt 0.22220723 0.68646193
vt 0.2477697 0.6739682
vt 0.25340828 0.65858912
vt 0.20538232 0.74946928
vt 0.20683889 0.79223323
vt 0.22929956 0.75316536
vt 0.0045219772 0.80153179
vt 0.21050876 0.70706403
vt 0.21258594 0.77589452
vt 0.22898377 0.78881621
vt 0.2504769 0.76440591
vt 0.24590363 0.74026811
vt 0.24555565 0.78802145
vt 0.28219298 0.75723016
vt 0.27166826 0.78718573
vt 0.29433823 0.74566501
vt 0.30386958 0.77644873
vt 0.31749466 0.78379619
vt 0.33554274 0.76920903
vt 0.33794335 0.73618674
vt 0.33989275 0.78558797
vt 0.33182126 0.72272497
vt 0.37118408 0.75036353
vt 0.36298779 0.78560328
vt 0.34708303 0.70038593
vt 0.36049294 0.7025072
vt 0.35403964 0.82082564
vt 0.38058653 0.72313237
vt 0.39951798 0.78327906
vt 0.32974178 0.81577784
vt 0.36689156 0.80304611
vt 0.34209499 0.67030334
vt 0.39977142 0.69291055
vt 0.39555368 0.74079525
vt 0.40311015 0.76301897
vt 0.34366119 0.84323245
vt 0.34461853 0.64588153
vt 0.40555879 0.80841899
vt 0.41433108 0.78837734
vt 0.32202795 0.8487137
vt 0.35476464 0.83828688
vt 0.39414024 0.62973654
vt 0.41050646 0.73313975
vt 0.4002358 0.82693887
vt 0.4174718 0.7781148
vt 0.33216178 0.86949533
vt 0.34825373 0.86976665
vt 0.36586875 0.60275578
vt 0.41463861 0.66456813
vt 0.40996704 0.70791823
vt 0.42156279 0.80974281
vt 0.3720367 0.85376263
vt 0.43675962 0.77891076
vt 0.31180364 0.87288535
vt 0.33728051 0.60276496
vt 0.39916012 0.60274529
vt 0.41004136 0.69257605
vt 0.42725194 0.84122086
vt 0.39777586 0.84484136
vt 0.32070389 0.90166086
vt 0.33149487 0.90084243
vt 0.36581156 0.91198695
vt 0.31566522 0.62102884
vt 0.41565156 0.60273921
vt 0.42340949 0.69083947
vt 0.43887129 0.80782294
vt 0.41453055 0.8727473
vt 0.38702485 0.85947376
vt 0.30842596 0.8989982
vt 0.38772145 0.88879031
vt 0.32143599 0.60276866
vt 0.43438548 0.61482072
vt 0.42599285 0.65076524
vt 0.43010217 0.71057075
vt 0.31398162 0.91927558
vt 0.32482955 0.9441455
vt 0.40791669 0.90072262
vt 0.30379283 0.60365987
vt 0.4293876 0.60273337
vt 0.42798382 0.62134993
vt 0.43768248 0.67572618
vt 0.44848639 0.69928318
vt 0.41530141 0.71740377
vt 0.30670568 0.94351035
vt 0.29948026 0.92504692
vt 0.36138144 0.93917847
vt 0.39556351 0.90881729
vt 0.3045319 0.60277432
vt 0.30123031 0.61358207
vt 0.43630427 0.60272616
vt 0.44589132 0.62291032
vt 0.45119593 0.65913951
vt 0.45119232 0.71913373
vt 0.38422656 0.94009268
vt 0.41087365 0.91728318
vt 0.44418791 0.60272384
vt 0.44562709 0.64056826
vt 0.45492607 0.60902929
vt 0.46692312 0.6465112
vt 0.46101433 0.68920809
vt 0.48034033 0.70302558
vt 0.29668322 0.93078637
vt 0.38172626 0.95817435
vt 0.39807621 0.92520779
vt 0.46652922 0.62519884
vt 0.46614045 0.67397416
vt 0.45549336 0.64440495
vt 0.47681856 0.69225168
vt 0.35482669 0.98547673
vt 0.39346415 0.94312036
vt 0.45672894 0.60272187
vt 0.47487912 0.60378999
vt 0.47624198 0.65287542
vt 0.47312927 0.6782608
vt 0.48837513 0.6800468
vt 0.37953842 0.97531486
vt 0.47800434 0.64252567
vt 0.4858698 0.65737069
vt 0.37036547 0.99552602
vt 0.47435734 0.60271901
vt 0.48051775 0.62166077
vt 0.4752112 0.60271907
vt 0.47638988 0.60271764
vt 0.48692679 0.63318777
vt 0.50061315 0.6628747
vt 0.48565122 0.60270894
vt 0.49879709 0.6173501
vt 0.50060105 0.63724935
vt 0.50061321 0.66292721
vt 0.49175888 0.60270715
vt 0.5005877 0.62186158
vt 0.50059932 0.63215125
vt 0.50058293 0.61362529
vt 0.49328521 0.60270768
vt 0.50058115 0.60271025
vt 0.9118554 0.83188725
vt 0.91902298 0.77056491
vt 0.94864154 0.8216629
vt 0.94872725 0.83415776
vt 0.88180983 0.78167129
vt 0.947173 0.76804382
vt 0.93082529 0.84116518
vt 0.857189 0.78108835
vt 0.94909173 0.83644027
vt 0.88344204 0.8525449
vt 0.95142442 0.84071833
vt 0.88976192 0.86597627
vt 0.80140674 0.85301244
vt 0.94134951 0.85373378
vt 0.8611626 0.86664259
vt 0.81935161 0.86398023
vt 0.73542893 0.85038644
vt 0.95669812 0.85098386
vt 0.94135606 0.86763948
vt 0.87338018 0.87750548
vt 0.78745914 0.87068731
vt 0.76391995 0.86664641
vt 0.81879854 0.78138936
vt 0.85895872 0.88941306
vt 0.83679819 0.88439596
vt 0.80181646 0.88636899
vt 0.7475487 0.87077212
vt 0.78866935 0.78455102
vt 0.95761019 0.85604972
vt 0.77085251 0.88422066
vt 0.78380698 0.8960374
vt 0.75754994 0.89450586
vt 0.71537495 0.86766297
vt 0.75824535 0.78986812
vt 0.95840591 0.8598088
vt 0.72969639 0.89248276
vt 0.70872545 0.8585996
vt 0.7355693 0.79566717
vt 0.67179161 0.84764892
vt 0.68716413 0.86378968
vt 0.69586492 0.89027983
vt 0.70217448 0.7951299
vt 0.63026661 0.8071326
vt 0.68173343 0.87628669
vt 0.64452237 0.84350228
vt 0.66327024 0.86619383
vt 0.66088611 0.89406705
vt 0.67249006 0.7954241
vt 0.63599342 0.85388809
vt 0.62877131 0.83136958
vt 0.65289026 0.87745988
vt 0.61293274 0.84478307
vt 0.63690448 0.87201142
vt 0.61208045 0.80534536
vt 0.62338382 0.86282063
vt 0.61674756 0.88317889
vt 0.5890342 0.80933154
vt 0.60287833 0.85631549
vt 0.59057403 0.87806559
vt 0.62197196 0.8967675
vt 0.56194103 0.82216108
vt 0.56419271 0.81034875
vt 0.60302925 0.90475553
vt 0.63624758 0.9111262
vt 0.57963181 0.83986479
vt 0.61033785 0.78815496
vt 0.58271444 0.86788881
vt 0.57103795 0.8785733
vt 0.62748498 0.941046
vt 0.61578524 0.92997414
vt 0.58132648 0.85614383
vt 0.5645895 0.85122073
vt 0.52244753 0.81442696
vt 0.60492098 0.79015785
vt 0.54880595 0.89781654
vt 0.64448416 0.92584532
vt 0.59951305 0.93824595
vt 0.53503662 0.86436188
vt 0.51758528 0.81647813
vt 0.55401176 0.80668676
vt 0.57659149 0.92065603
vt 0.55173671 0.8750385
vt 0.62298769 0.96104288
vt 0.6460169 0.94123477
vt 0.59376425 0.96375096
vt 0.6069091 0.97869956
vt 0.51664448 0.82764155
vt 0.52472073 0.89643735
vt 0.61944884 0.9949165
vt 0.63025302 0.97880942
vt 0.51401973 0.85894769
vt 0.5039531 0.89334762
vt 0.61032748 0.99706608
vt 0.50387847 0.89347148
vt 0.69194442 0.71560097
vt 0.68932068 0.74123347
vt 0.62050176 0.74399948
vt 0.59839219 0.7191292
vt 0.74257445 0.73933327
vt 0.54688811 0.74693137
vt 0.68233496 0.68856305
vt 0.76034832 0.71189594
vt 0.51987755 0.72377306
vt 0.59100407 0.68863404
vt 0.81042361 0.73678935
vt 0.52033621 0.74704432
vt 0.50391901 0.69196451
vt 0.79404682 0.68409932
vt 0.6461423 0.6786958
vt 0.8425113 0.70967394
vt 0.72247809 0.67479408
vt 0.68696898 0.67469281
vt 0.61206293 0.68139327
vt 0.84391516 0.71162027
vt 0.77183294 0.67244232
vt 0.83138841 0.68233079
vt 0.67991149 0.66350579
vt 0.6165365 0.66547883
vt 0.84360969 0.73560154
vt 0.84394306 0.70959735
vt 0.77165109 0.65985441
vt 0.81358796 0.67046678
vt 0.84269249 0.70689118
vt 0.83025783 0.67656726
vt 0.82389706 0.65736032
vt 0.82889086 0.66990215
vt 0.82719529 0.66553968
vt 0.54737097 0.61914039
vt 0.51869243 0.6195032
vt 0.55090082 0.55570233
vt 0.58357584 0.61645663
vt 0.5030598 0.55430746
vt 0.66825587 0.55379444
vt 0.50304329 0.60617292
vt 0.50308597 0.53712809
vt 0.58633709 0.51873416
vt 0.65783119 0.6088587
vt 0.50302243 0.62062371
vt 0.54511178 0.48396295
vt 0.65126914 0.47950476
vt 0.68732864 0.60305393
vt 0.50310218 0.51913261
vt 0.57331097 0.46868449
vt 0.61980575 0.4797383
vt 0.70239282 0.48411441
vt 0.71654302 0.60246962
vt 0.50324476 0.48220569
vt 0.5606001 0.46277893
vt 0.61670583 0.45445102
vt 0.79479271 0.55416906
vt 0.67804396 0.47614938
vt 0.5032441 0.48200202
vt 0.53470272 0.46093291
vt 0.57099408 0.44894952
vt 0.64534253 0.44385052
vt 0.79352134 0.46553642
vt 0.67703664 0.45377141
vt 0.77042395 0.59792519
vt 0.5217908 0.47029579
vt 0.55787504 0.44436389
vt 0.58657366 0.44951767
vt 0.60885036 0.440853
vt 0.77075571 0.43509209
vt 0.83795029 0.55372429
vt 0.70577264 0.44110262
vt 0.79500914 0.59176171
vt 0.67413998 0.44084847
vt 0.81668335 0.43984562
vt 0.74463093 0.43773705
vt 0.83685058 0.4785015
vt 0.72804034 0.44727826
vt 0.83898771 0.45364279
vt 0.12081744 0.43489349
vt 0.10961343 0.42650205
vt 0.12162562 0.40980941
vt 0.16879378 0.40999663
vt 0.10861373 0.45404732
vt 0.1821949 0.48231298
vt 0.15557081 0.3950054
vt 0.1159207 0.46271884
vt 0.09652479 0.45795703
vt 0.27515638 0.41292113
vt 0.16595939 0.39466244
vt 0.13606453 0.39710069
vt 0.084139787 0.41009808
vt 0.11240714 0.48824942
vt 0.20176658 0.38998765
vt 0.27385369 0.48419321
vt 0.11896639 0.48090303
vt 0.1800666 0.3951987
vt 0.12204628 0.39165503
vt 0.14937854 0.3894667
vt 0.049688894 0.40654278
vt 0.11594941 0.40687388
vt 0.091185547 0.49646366
vt 0.23842004 0.39510131
vt 0.32632968 0.45438027
vt 0.0031531798 0.4201526
vt 0.073215373 0.40250778
vt 0.095797315 0.38802648
vt 0.0042201858 0.49482483
vt 0.22355843 0.37630767
vt 0.27147698 0.39702469
vt 0.32650793 0.41449702
vt 0.32605952 0.48465514
vt 0.018992247 0.39788449
vt 0.070038743 0.3901121
vt 0.26254752 0.38716912
vt 0.32443008 0.38960946
vt 0.0045875628 0.39438629
vt 0.03622039 0.39585954
vt 0.29974294 0.37582195
vt 0.33071178 0.39207828
vt 0.33078989 0.38435113
vt 0.3309449 0.39080411
vt 0.32984808 0.37309366
vt 0.33102736 0.38765728
vt 0.37963149 0.49539626
vt 0.39014843 0.49038935
vt 0.38667762 0.495395
vt 0.38684946 0.4674024
vt 0.39035618 0.49539423
vt 0.41790244 0.46744758
vt 0.39992416 0.45372361
vt 0.40599573 0.4953891
vt 0.41191134 0.44456238
vt 0.39793301 0.43120241
vt 0.42594045 0.49538267
vt 0.43075585 0.42858714
vt 0.48805475 0.41297126
vt 0.40352237 0.40633959
vt 0.46054336 0.4953717
vt 0.45303538 0.36786145
vt 0.4162598 0.36967617
vt 0.50277847 0.49189353
vt 0.47366393 0.30487752
vt 0.49921396 0.49535996
vt 0.50275046 0.41032428
vt 0.42685166 0.34121394
vt 0.50273639 0.36766905
vt 0.5027796 0.49535888
vt 0.50271219 0.29568946
vt 0.43494383 0.31111109
vt 0.50270367 0.27129215
vt 0.44999176 0.25570238
vt 0.50269091 0.23543388
vt 0.50268739 0.22286928
vt 0.46048436 0.22769016
vt 0.50267321 0.18135995
vt 0.50267267 0.18031591
vt 0.47103941 0.18555897
vt 0.0044312524 0.12489295
vt 0.04694831 0.11549979
vt 0.004434743 0.13617814
vt 0.020037808 0.074318707
vt 0.076811813 0.18420887
vt 0.0044162157 0.075808823
vt 0.048702434 0.073387623
vt 0.0044363141 0.140643
vt 0.084861711 0.071538866
vt 0.0063539688 0.17644805
vt 0.12641114 0.12411612
vt 0.0044449377 0.16431212
vt 0.013531815 0.23592949
vt 0.10909683 0.10031897
vt 0.16862607 0.23430389
vt 0.0044488674 0.17552125
vt 0.090929322 0.27625793
vt 0.0044621024 0.21681541
vt 0.13722953 0.098459423
vt 0.2011438 0.098992467
vt 0.037514511 0.29321778
vt 0.0044704322 0.23909175
vt 0.15903312 0.067977309
vt 0.22389558 0.20571733
vt 0.14548288 0.35703766
vt 0.071960211 0.37032807
vt 0.016335398 0.34556979
vt 0.2418296 0.15340877
vt 0.21056238 0.26466662
vt 0.078284949 0.37032628
vt 0.19088127 0.32443035
vt 0.058358386 0.3703317
vt 0.0045012813 0.32685304
vt 0.21762106 0.063776433
vt 0.25409546 0.10847068
vt 0.24634139 0.17233616
vt 0.22542676 0.24927682
vt 0.10776106 0.37031847
vt 0.1800407 0.3702997
vt 0.033599738 0.37033862
vt 0.0045075612 0.34546006
vt 0.25744128 0.13383377
vt 0.23405108 0.21723574
vt 0.2697089 0.15592331
vt 0.21047011 0.292642
vt 0.23525161 0.27317399
vt 0.14845407 0.37030768
vt 0.16547501 0.37030345
vt 0.18381007 0.37030089
vt 0.010453785 0.37034488
vt 0.0045101913 0.35313231
vt 0.27141416 0.060545683
vt 0.27246934 0.087968826
vt 0.2504313 0.22207493
vt 0.19956703 0.32895952
vt 0.18979174 0.36159927
vt 0.19407707 0.37029868
vt 0.004516189 0.37034643
vt 0.2902922 0.085149884
vt 0.21610399 0.33834445
vt 0.20694651 0.37029225
vt 0.29595694 0.059013724
vt 0.086618774 0.9707036
vt 0.070854656 0.9464106
vt 0.09655802 0.93841481
vt 0.11487044 0.9617309
vt 0.050795723 0.99046743
vt 0.082125202 0.93111038
vt 0.097046956 0.97142106
vt 0.12342952 0.94272912
vt 0.070281483 0.99204308
vt 0.032715533 0.97957176
vt 0.070520476 0.91146523
vt 0.1133245 0.91798866
vt 0.10738801 0.98230213
vt 0.090174451 0.97800386
vt 0.1394774 0.95752323
vt 0.019975228 0.97208077
vt 0.033087231 0.9952721
vt 0.053595379 0.90988541
vt 0.079823628 0.90542048
vt 0.097074673 0.89970428
vt 0.12750281 0.9728601
vt 0.12697047 0.8943854
vt 0.13816251 0.93572909
vt 0.023802422 0.95532906
vt 0.047301933 0.93596327
vt 0.049433514 0.89077282
vt 0.099832945 0.86968344
vt 0.1250346 0.98394036
vt 0.15161891 0.95802885
vt 0.15739676 0.97252297
vt 0.01795003 0.97929251
vt 0.020570252 0.96002263
vt 0.025897527 0.95205176
vt 0.027907282 0.92039692
vt 0.085011654 0.88418263
vt 0.13919075 0.98458332
vt 0.12459085 0.86502028
vt 0.15022881 0.89719355
vt 0.15204006 0.95346403
vt 0.015271447 0.9697566
vt 0.030938879 0.93578339
vt 0.032242525 0.92874968
vt 0.031643882 0.90130496
vt 0.059255254 0.85000396
vt 0.147836 0.87791675
vt 0.12097986 0.85035992
vt 0.14643447 0.88572139
vt 0.16157055 0.92748684
vt 0.15773076 0.94626433
vt 0.15662564 0.96583056
vt 0.15950876 0.97885484
vt 0.015275178 0.92503655
vt 0.011220581 0.90988451
vt 0.0097459275 0.88787884
vt 0.037159737 0.86281705
vt 0.083400235 0.83263004
vt 0.15116474 0.87608749
vt 0.13010931 0.84431505
vt 0.10979912 0.85216928
vt 0.15906475 0.97277045
vt 0.15805234 0.98243904
vt 0.015932564 0.92802197
vt 0.0051659625 0.91850209
vt 0.0045994362 0.91802353
vt 0.0076438626 0.89183629
vt 0.011082041 0.8863923
vt 0.042626187 0.84215248
vt 0.056575291 0.81202018
vt 0.11480673 0.83219504
vt 0.0043842145 0.90771031
vt 0.019263068 0.87625289
vt 0.02955967 0.86167687
vt 0.14745423 0.86141866
vt 0.054756384 0.81286824
vt 0.029799206 0.85150754
vt 0.15285845 0.87605435
vt 0.037869297 0.8361786
vt 0.055274446 0.81088781
vt 0.15855479 0.86064839
vt 0.62525338 0.27848065
vt 0.60186803 0.29997456
vt 0.55650884 0.2793597
vt 0.6350705 0.24847764
vt 0.63952947 0.28770494
vt 0.5825457 0.3204937
vt 0.65063882 0.2519052
vt 0.6236462 0.30088347
vt 0.64642745 0.26727837
vt 0.50410503 0.3353225
vt 0.61260873 0.3129819
vt 0.65070152 0.25196218
vt 0.64260453 0.24219406
vt 0.63404697 0.31612879
vt 0.66846168 0.26717782
vt 0.53709686 0.35077155
vt 0.60396487 0.33490354
vt 0.66274816 0.28946728
vt 0.65105331 0.25219977
vt 0.65072298 0.25197208
vt 0.56143445 0.34856337
vt 0.58108306 0.3396582
vt 0.66928947 0.26398116
vt 0.67363065 0.26619202
vt 0.55170929 0.36992681
vt 0.59084934 0.35647565
vt 0.67013621 0.26459622
vt 0.68675965 0.27114928
vt 0.57328188 0.35939342
vt 0.57253957 0.37014341
vt 0.85115045 0.97000682
vt 0.8727203 0.97075576
vt 0.87182826 0.9961015
vt 0.84715921 0.98596931
vt 0.86825114 0.93940735
vt 0.88893408 0.99415028
vt 0.82881534 0.9760015
vt 0.83335626 0.93380809
vt 0.87354779 0.94093847
vt 0.88558924 0.96529621
vt 0.85816258 0.9260357
vt 0.87937421 0.95010316
vt 0.87350273 0.93324888
vt 0.88865054 0.96854752
vt 0.78699994 0.97497076
vt 0.85793316 0.92012304
vt 0.86918998 0.92502773
vt 0.79488629 0.9340573
vt 0.84216064 0.91417575
vt 0.75318432 0.95699614
vt 0.79926914 0.92682546
vt 0.82861179 0.92653823
vt 0.76090008 0.93364644
vt 0.79450393 0.92654598
vt 0.77406383 0.91471338
vt 0.76693177 0.91010684
vt 0.23742324 0.94855762
vt 0.23138788 0.98310852
vt 0.21373014 0.96697831
vt 0.19359592 0.96194446
vt 0.25844041 0.95650899
vt 0.22290477 0.9903686
vt 0.18760315 0.9794234
vt 0.20339783 0.94807422
vt 0.25633109 0.98021001
vt 0.24626608 0.99513227
vt 0.15986854 0.95364738
vt 0.27458838 0.96092463
vt 0.16463172 0.97638124
vt 0.28207549 0.99551761
vt 0.29404789 0.96884745
vt 0.29207811 0.99360389
vt 0.4886747 0.94705874
vt 0.51240653 0.93532228
vt 0.49895185 0.9699946
vt 0.48760012 0.96012002
vt 0.5473389 0.97332114
vt 0.48812938 0.99363649
vt 0.46695831 0.95353615
vt 0.53442347 0.93699932
vt 0.55770981 0.94745564
vt 0.45639029 0.95826304
vt 0.55027413 0.9228555
vt 0.57227963 0.96750593
vt 0.45360425 0.98966032
vt 0.44209918 0.95215106
vt 0.57147193 0.9238112
vt 0.53492504 0.92728311
vt 0.44312483 0.99523431
vt 0.92759383 0.931373
vt 0.94148296 0.96246743
vt 0.92820877 0.99688691
vt 0.91463435 0.98715162
vt 0.9509809 0.9483999
vt 0.93624496 0.99638397
vt 0.90841615 0.96198791
vt 0.94411278 0.91873384
vt 0.91111714 0.92800176
vt 0.93197614 0.89738393
vt 0.94861341 0.90246207
vt 0.91304821 0.89737105
vt 0.95885932 0.8943783
vt 0.89235675 0.92572117
vt 0.92406619 0.88332289
vt 0.94432056 0.8751421
vt 0.8857016 0.90849072
vt 0.95050412 0.87412786
vt 0.87807351 0.92002857
vt 0.95952064 0.89385974
vt 0.20342669 0.93269563
vt 0.20539607 0.91814631
vt 0.22300731 0.92965925
vt 0.22873379 0.91673875
vt 0.20888732 0.90622526
vt 0.19380131 0.90563059
vt 0.2409239 0.89676583
vt 0.20681868 0.88619822
vt 0.22239929 0.88917506
vt 0.19201876 0.87430501
vt 0.237849 0.8729254
vt 0.21340868 0.87601608
vt 0.22255737 0.86973011
vt 0.20724477 0.85956186
vt 0.24760501 0.86685324
vt 0.23862453 0.85989547
vt 0.23721898 0.85032833
vt 0.22257486 0.82581174
vt 0.25459436 0.84395337
vt 0.24691692 0.81828356
vt 0.27696556 0.84961087
vt 0.27378565 0.82727551
vt 0.46404621 0.80072945
vt 0.4655157 0.82191503
vt 0.44979796 0.79733014
vt 0.46278489 0.79167098
vt 0.47441691 0.80621749
vt 0.44865099 0.82970142
vt 0.45684627 0.78209519
vt 0.44183251 0.82786632
vt 0.44265711 0.77725375
vt 0.47669345 0.77989554
vt 0.44182542 0.81381035
vt 0.44183758 0.83528078
vt 0.44182023 0.77751118
vt 0.46688148 0.76721513
vt 0.49065188 0.79361588
vt 0.45012003 0.85204339
vt 0.44181901 0.78850925
vt 0.44182047 0.77694511
vt 0.4595941 0.75701392
vt 0.48204294 0.75944448
vt 0.49751684 0.76997757
vt 0.50212198 0.80676973
vt 0.44184116 0.84646356
vt 0.44181788 0.77181262
vt 0.45556179 0.75701547
vt 0.46906796 0.75701088
vt 0.5082193 0.77974319
vt 0.51967746 0.79702687
vt 0.44185355 0.8708396
vt 0.44947585 0.75702155
vt 0.4939732 0.75700319
vt 0.48031163 0.75700271
vt 0.51312792 0.7665081
vt 0.44800326 0.75702232
vt 0.48626614 0.75700289
vt 0.48337638 0.75700182
vt 0.52217162 0.7737273
vt 0.4418098 0.75702536
vt 0.49874172 0.7570008
vt 0.51625699 0.75699383
vt 0.50946707 0.75699568
vt 0.52180731 0.75699604
vt 0.97883749 0.75288492
vt 0.96200573 0.76480395
vt 0.95788491 0.74097866
vt 0.97607315 0.73042417
vt 0.96087903 0.77683413
vt 0.9480105 0.7540381
vt 0.95759338 0.71683836
vt 0.95230567 0.77657402
vt 0.94180077 0.73388565
vt 0.97741669 0.7189225
vt 0.94783753 0.69386941
vt 0.96881664 0.70047963
vt 0.98320758 0.70558465
vt 0.96151763 0.67988455
vt 0.98801666 0.68883467
vt 0.94721037 0.67656249
vt 0.97201353 0.66476804
vt 0.98298961 0.62030244
vt 0.96589261 0.61841881
vt 0.95970684 0.59693706
vt 0.99303889 0.59985697
vt 0.94727051 0.60554695
vt 0.9446488 0.62126493
vt 0.897816 0.58734405
vt 0.89717221 0.60399133
vt 0.87964493 0.57853657
vt 0.87964505 0.57869178
vt 0.87964422 0.57673585
vt 0.87964529 0.57928026
vt 0.88867569 0.55296022
vt 0.8796528 0.59857345
vt 0.87963456 0.55573058
vt 0.87963104 0.54857111
vt 0.90588647 0.7212435
vt 0.88197595 0.71492493
vt 0.88181245 0.69657719
vt 0.90666616 0.68866169
vt 0.89886135 0.74476087
vt 0.8809545 0.66477418
vt 0.92525768 0.68756747
vt 0.91562885 0.74614561
vt 0.87823075 0.64668673
vt 0.92334205 0.66721106
vt 0.91946763 0.71958566
vt 0.92000967 0.7316705
vt 0.89386815 0.63890183
vt 0.93854529 0.67528296
vt 0.91581953 0.64022171
vt 0.9362101 0.65624583
vt 0.93199337 0.63488781
vt 0.94679588 0.63814873
vt 0.066033088 0.53151882
vt 0.083243094 0.53825283
vt 0.07309024 0.54896057
vt 0.039919343 0.5327186
vt 0.094013095 0.53262758
vt 0.091774605 0.55774456
vt 0.046624374 0.54965568
vt 0.057181329 0.50698626
vt 0.07910917 0.5189327
vt 0.096756391 0.54656208
vt 0.024396975 0.55205995
vt 0.036296155 0.50742567
vt 0.064734429 0.50450349
vt 0.095310971 0.52090794
vt 0.01632927 0.51482946
vt 0.076903485 0.50107884
vt 0.10915283 0.50922632
vt 0.0030632187 0.53709126
vt 0.11034503 0.49150467
vt 0.86296397 0.7549541
vt 0.87562162 0.72223479
vt 0.88461077 0.75153261
vt 0.87351656 0.76745188
vt 0.84697318 0.71559364
vt 0.88246357 0.77051425
vt 0.86709315 0.77663338
vt 0.84717524 0.69890428
vt 0.866817 0.68337178
vt 0.8750217 0.77824408
vt 0.87484974 0.7003634
vt 0.29229027 0.65516937
vt 0.28597429 0.64232588
vt 0.29338011 0.64076418
vt 0.31797674 0.65442395
vt 0.28485474 0.62263405
vt 0.3245495 0.64640474
vt 0.29724211 0.69072616
vt 0.31086427 0.62522995
vt 0.3343167 0.66236615
vt 0.31835961 0.68563259
vt 0.28790709 0.67136216
vt 0.32069814 0.62474823
vt 0.33357435 0.64755154
vt 0.30963746 0.71499133
vt 0.33051705 0.63481134
vt 0.32371786 0.69240355
vt 0.73414361 0.93329769
vt 0.73732227 0.94976896
vt 0.70476395 0.93598241
vt 0.75230843 0.93259507
vt 0.70992607 0.96545905
vt 0.66657609 0.96521252
vt 0.65998584 0.93471128
vt 0.48326486 0.86254716
vt 0.49622688 0.84599036
vt 0.50516719 0.86700958
vt 0.48798132 0.87825865
vt 0.47750226 0.84534383
vt 0.5115307 0.84623796
vt 0.47303671 0.87612915
vt 0.49786109 0.88554037
vt 0.47535926 0.85821205
vt 0.48752069 0.833547
vt 0.51545119 0.81681943
vt 0.47954744 0.89398813
vt 0.48902082 0.90143079
vt 0.47966307 0.81689525
vt 0.50262231 0.82438564
vt 0.49473488 0.81613922
vt 0.43712169 0.93762743
vt 0.41698176 0.94741482
vt 0.40999046 0.9256494
vt 0.44848517 0.90679038
vt 0.43404809 0.96485877
vt 0.41880777 0.90954083
vt 0.41250223 0.96551561
vt 0.40966967 0.90089917
vt 0.43568945 0.89398533
vt 0.41507837 0.88850808
vt 0.42709178 0.88049048
vt 0.11457471 0.98862427
vt 0.082241148 0.98104084
vt 0.16047177 0.99515665
vt 0.26718733 0.87298936
vt 0.25503132 0.88452607
vt 0.25446248 0.8681007
vt 0.2716693 0.86376047
vt 0.27447653 0.89904469
vt 0.28475934 0.86742473
vt 0.25725374 0.90620041
vt 0.28585005 0.88470781
vt 0.28533188 0.91680026
vt 0.30108234 0.8777464
vt 0.27517474 0.92394584
vt 0.29477173 0.90536678
vt 0.30756608 0.86741757
vt 0.27757978 0.93356848
vt 0.17114998 0.8454482
vt 0.16964124 0.82664895
vt 0.18559237 0.84620041
vt 0.18745795 0.86792016
vt 0.15926991 0.81592166
vt 0.17838112 0.8096174
vt 0.19738959 0.84972322
vt 0.18177345 0.87037504
vt 0.1642445 0.80206126
vt 0.20412712 0.82976657
vt 0.51379049 0.66093034
vt 0.50378793 0.64048672
vt 0.52386123 0.64574289
vt 0.54015613 0.65889341
vt 0.52004904 0.63006592
vt 0.53719336 0.67118186
vt 0.54892987 0.66934568
vt 0.5374549 0.68262911
vt 0.54654735 0.63251054
vt 0.55233818 0.66145885
vt 0.56161857 0.66982383
vt 0.56750369 0.63232177
vt 0.56753397 0.65106148
vt 0.83441663 0.6676985
vt 0.84641641 0.66064668
vt 0.86181682 0.68394548
vt 0.82542115 0.63851702
vt 0.85811538 0.64390802
vt 0.82118124 0.65709126
vt 0.84762669 0.62803745
vt 0.87253881 0.64416468
vt 0.81664795 0.64223349
vt 0.82580352 0.62526751
vt 0.86255479 0.63077378
vt 0.85063708 0.62308049
vt 0.87670279 0.62687099
vt 0.95284224 0.99574202
vt 0.95757693 0.96802163
vt 0.98276728 0.96314615
vt 0.99253345 0.98749906
vt 0.942168 0.98225242
vt 0.99806088 0.95863771
vt 0.98831266 0.95767915
vt 0.66089272 0.89558446
vt 0.66973412 0.89413023
vt 0.66317922 0.91845715
vt 0.67732966 0.92034101
vt 0.65954465 0.92927438
vt 0.67418057 0.90104312
vt 0.70169216 0.93350232
vt 0.70019758 0.90483105
vt 0.71203429 0.9237619
vt 0.32712066 0.94905192
vt 0.32218909 0.96077877
vt 0.31751591 0.95878339
vt 0.31741104 0.9502666
vt 0.34390825 0.95294034
vt 0.31883156 0.96134478
vt 0.34381336 0.9533093
vt 0.3162275 0.96748263
vt 0.34388012 0.95437837
vt 0.31748745 0.995709
vt 0.33196297 0.97980714
vt 0.31618607 0.99464518
vt 0.34723595 0.96684819
vt 0.117667 0.79775953
vt 0.13518046 0.81117153
vt 0.1185401 0.81429398
vt 0.10939995 0.82622457
vt 0.13061465 0.8385846
vt 0.10837993 0.82434541
vt 0.12789451 0.83778811
vt 0.13171485 0.83993721
vt 0.097521469 0.811225
vt 0.1369168 0.83159012
vt 0.72357035 0.90076393
vt 0.75440907 0.89946127
vt 0.73674697 0.91308445
vt 0.73310322 0.92283481
vt 0.7575534 0.9262923
vt 0.76588118 0.91088235
vt 0.74388593 0.93321538
vt 0.73624015 0.93087846
vt 0.39696711 0.99543524
vt 0.39378124 0.9732306
vt 0.41250426 0.97899801
vt 0.39915955 0.95770448
vt 0.014469218 0.9953084
vt 0.0059133521 0.97755492
vt 0.0038559202 0.95845461
vt 0.69197655 0.96594709
vt 0.72882342 0.96323878
vt 0.71368808 0.98035967
vt 0.58322191 0.96124518
vt 0.59877169 0.97225916
vt 0.59895867 0.99061137
vt 0.58154404 0.99514872
vt 0.35195351 0.96176779
vt 0.34594387 0.98869741
vt 0.33145514 0.99659938
vt 0.42021814 0.99004793
vt 0.4431015 0.9953202
vt 0.42649943 0.99487442
vt 0.42539158 0.97705358
vt 0.40955731 0.98081684
vt 0.72798097 0.98065066
vt 0.73064071 0.96413749
vt 0.73663914 0.97180867
vt 0.72585487 0.98103118
vt 0.74880087 0.96815109
vt 0.72577304 0.96516484
vt 0.7534076 0.96168137
vt 0.72525001 0.98038131
vt 0.73396277 0.95743954
vt 0.75305319 0.95802206
vt 0.7234115 0.96116573
vt 0.51903039 0.98740315
vt 0.53247881 0.97926599
vt 0.52764738 0.99126565
vt 0.52336824 0.99537498
vt 0.50488102 0.97142756
vt 0.53433985 0.98228556
vt 0.07447011 0.98738545
vt 0.088857971 0.99526942
vt 0.074472025 0.98769861
vt 0.10629382 0.99531913
vt 0.90051281 0.95367652
vt 0.88748312 0.96431243
vt 0.87814736 0.9460628
vt 0.91067988 0.94122368
vt 0.91026384 0.94045824
vt 0.16853438 0.94947022
vt 0.17544246 0.93263191
vt 0.18255647 0.93314582
vt 0.18279712 0.94101191
vt 0.15954046 0.93191034
vt 0.18270017 0.92124295
vt 0.18323533 0.94920063
vt 0.18281424 0.91720498
vt 0.28424203 0.95088279
vt 0.30204502 0.94169629
vt 0.29774475 0.96555865
vt 0.28809795 0.96532893
vt 0.31225714 0.95874804
vt 0.15642926 0.99636316
vt 0.14458336 0.98639238
vt 0.1593792 0.9934544
vt 0.16782439 0.99104601
vt 0.16582696 0.97864068
vt 0.17001207 0.98792344
vt 0.18536869 0.98444676
vt 0.18938147 0.9959439
vt 0.18584539 0.99660665
vt 0.17892143 0.99521565
vt 0.199855 0.98939747
vt 0.189668 0.99680334
vt 0.17509435 0.9860425
vt 0.19218691 0.99557549
vt 0.19199589 0.99682331
vt 0.30812299 0.99689609
vt 0.30141959 0.98548722
vt 0.31521544 0.99151367
vt 0.31662536 0.97790939
vt 0.34935445 0.98004109
vt 0.36466816 0.99684113
vt 0.34858969 0.98571086
vt 0.3482202 0.99686939
vt 0.10477921 0.99080461
vt 0.11955217 0.99098551
vt 0.10621233 0.99631506
vt 0.0040500918 0.98485541
vt 0.0099400375 0.99565798
vt 0.0097290697 0.99580598
vt 0.0038385261 0.98564553
vt 0.010707861 0.99537081
vt 0.010014104 0.99586016
vt 0.0035399008 0.98468792
vt 0.0064458014 0.98571104
vt 0.011133776 0.99329704
vt 0.023669872 0.99209785
vt 0.017991539 0.99526632
vt 0.015975062 0.99035579
vt 0.02149995 0.99642813
vt 0.019421387 0.98800635
vt 0.02250915 0.98791945
vt 0.022580495 0.9854452
vt 0.028694341 0.99357611
vt 0.019234238 0.99580431
vt 0.028711278 0.99183279
vt 0.028087458 0.9903785
vt 0.024041213 0.99645871
vt 0.020028524 0.99354243
vt 0.0046475446 0.99673867
vt 0.0037619874 0.99607438
vt 0.0046470454 0.99528086
usemtl Tile_+032_+023_L19_000031_0
f 13/518 67/519 8/520
f 37/728 21/729 1/730
f 13/518 8/520 10/521
f 7/525 26/532 10/521
f 39/332 4/333 38/334
f 40/523 43/536 42/537
f 7/525 9/540 26/532
f 20/737 29/741 14/747
f 28/993 35/994 33/995
f 17/996 33/995 16/997
f 11/538 21/530 10/521
f 538/574 17/590 539/593
f 1/730 23/733 540/735
f 11/538 26/532 27/547
f 543/456 25/457 544/458
f 4/459 39/462 25/457
f 20/737 22/734 29/741
f 19/732 37/728 18/731
f 545/546 9/540 546/556
f 11/538 23/545 21/530
f 20/737 78/742 19/732
f 24/553 27/547 534/568
f 21/530 19/531 12/524
f 11/538 10/521 26/532
f 12/524 10/521 21/530
f 27/547 26/532 545/546
f 7/525 10/521 8/520
f 550/463 5/465 551/467
f 15/468 5/465 6/460
f 16/1049 65/1050 552/1051
f 5/465 15/468 554/473
f 14/747 29/741 631/753
f 1/1068 2/1069 561/1070
f 22/734 20/737 18/731
f 19/732 18/731 20/737
f 1/730 18/731 37/728
f 37/728 19/732 21/729
f 22/734 18/731 1/730
f 2/1069 1/1068 541/1072
f 21/729 23/733 1/730
f 22/734 3/736 29/741
f 3/736 22/734 1/730
f 559/740 1/730 564/744
f 563/739 24/743 565/750
f 457/472 36/476 15/468
f 555/477 32/482 566/488
f 31/539 7/525 74/529
f 77/552 42/537 43/536
f 54/627 52/628 35/629
f 72/544 71/573 51/586
f 72/544 77/552 70/561
f 73/576 72/544 51/586
f 28/630 54/627 35/629
f 73/576 51/586 69/563
f 72/544 73/576 69/563
f 35/994 44/998 16/997
f 52/628 44/632 35/629
f 17/996 16/997 569/999
f 16/1049 44/1053 65/1050
f 47/585 71/573 70/561
f 69/563 28/575 68/554
f 68/554 72/544 69/563
f 68/554 28/575 538/574
f 16/997 33/995 35/994
f 28/993 33/995 17/996
f 41/528 43/536 40/523
f 74/529 42/537 72/544
f 77/552 72/544 42/537
f 76/543 77/552 43/536
f 42/537 74/529 40/523
f 8/520 40/523 74/529
f 723/487 36/476 724/481
f 41/528 40/523 67/519
f 31/539 9/540 7/525
f 52/628 53/631 576/635
f 634/1 30/2 635/3
f 57/38 34/40 64/20
f 579/53 57/38 580/60
f 66/30 61/45 57/38
f 30/970 46/971 636/972
f 30/2 62/4 581/7
f 583/31 60/24 586/39
f 55/363 61/357 56/343
f 59/32 60/24 64/20
f 63/14 64/20 60/24
f 64/20 34/40 59/32
f 49/980 47/979 46/971
f 46/971 30/970 585/974
f 586/39 59/32 590/46
f 57/38 45/52 530/59
f 45/52 57/38 61/45
f 531/66 55/58 592/76
f 592/356 56/343 593/351
f 44/632 52/628 594/636
f 65/1050 44/1053 595/1056
f 53/631 52/628 54/627
f 54/627 51/633 50/634
f 47/646 49/649 48/644
f 10/521 12/524 13/518
f 56/343 38/334 575/339
f 41/528 76/543 43/536
f 574/336 4/333 600/338
f 544/458 6/460 550/463
f 23/545 11/538 24/553
f 11/538 27/547 24/553
f 70/561 71/573 72/544
f 31/539 68/554 571/562
f 67/519 40/523 8/520
f 573/555 31/539 601/564
f 640/757 557/751 718/761
f 632/746 3/736 641/752
f 19/531 13/518 12/524
f 15/468 36/476 32/482
f 53/631 58/637 602/643
f 8/520 74/529 7/525
f 31/539 74/529 72/544
f 31/539 72/544 68/554
f 602/1062 59/1063 604/1064
f 582/11 63/14 584/16
f 590/645 50/634 605/648
f 51/633 71/641 50/634
f 45/52 61/45 55/58
f 59/1063 34/1066 578/1065
f 71/641 48/644 50/634
f 59/642 58/637 50/634
f 639/977 47/979 642/981
f 50/634 53/631 54/627
f 587/978 46/971 589/976
f 69/563 51/586 28/575
f 58/637 53/631 50/634
f 51/633 54/627 28/630
f 598/650 49/649 606/651
f 50/634 48/644 597/647
f 71/641 47/646 48/644
f 178/479 173/483 527/491
f 525/299 529/300 201/301
f 200/377 144/378 199/379
f 194/89 427/91 195/94
f 454/78 189/65 87/75
f 188/1088 528/1089 643/1090
f 166/307 186/302 522/304
f 89/597 179/598 116/599
f 173/483 168/490 174/497
f 725/320 156/326 726/328
f 170/312 172/306 171/305
f 177/508 522/514 201/499
f 98/49 97/63 131/72
f 83/706 520/707 85/708
f 163/714 164/718 162/716
f 128/712 163/714 162/716
f 181/88 120/92 142/93
f 159/653 158/654 397/655
f 130/890 129/891 128/892
f 118/103 120/92 119/97
f 113/115 115/105 114/116
f 252/205 192/206 727/207
f 146/821 145/822 138/823
f 96/389 144/378 143/385
f 139/669 138/670 137/671
f 505/95 120/92 194/89
f 424/410 134/414 133/415
f 159/81 401/80 87/75
f 98/49 107/42 106/56
f 103/835 105/832 104/824
f 494/396 100/383 99/388
f 97/839 132/837 131/836
f 88/601 90/610 498/604
f 88/601 89/597 109/605
f 127/393 93/384 108/382
f 83/1057 85/1058 84/1059
f 519/803 80/804 140/805
f 169/507 177/508 168/490
f 177/508 174/497 168/490
f 173/483 174/497 201/499
f 527/491 201/499 529/509
f 185/498 526/492 178/479
f 529/509 526/492 185/498
f 648/1092 188/1088 651/1095
f 526/492 472/484 178/479
f 471/501 472/484 526/492
f 176/475 468/489 168/490
f 173/483 178/479 176/475
f 176/475 168/490 173/483
f 527/491 185/498 178/479
f 471/501 526/492 529/509
f 471/303 529/300 525/299
f 468/350 204/337 166/354
f 651/1023 175/1024 654/1025
f 525/299 171/305 172/306
f 172/306 471/303 525/299
f 166/354 204/337 442/349
f 197/674 196/672 137/671
f 137/658 158/654 197/662
f 435/675 196/672 197/674
f 435/675 139/669 196/672
f 96/389 497/404 492/398
f 137/671 196/672 139/669
f 138/823 139/827 104/824
f 419/360 442/349 404/367
f 137/671 138/670 403/673
f 525/299 186/302 171/305
f 469/314 172/306 170/312
f 730/401 489/386 731/408
f 153/319 170/312 202/315
f 112/309 471/303 172/306
f 469/314 170/312 725/320
f 171/305 155/316 202/315
f 171/305 202/315 170/312
f 154/325 156/326 153/319
f 170/312 153/319 156/326
f 202/315 108/321 154/325
f 156/326 154/325 729/329
f 153/319 202/315 154/325
f 486/617 508/612 148/602
f 155/316 108/321 202/315
f 171/305 518/313 155/316
f 489/386 154/392 108/382
f 171/305 187/308 518/313
f 186/302 187/308 171/305
f 169/507 523/517 522/514
f 186/302 201/301 522/304
f 177/508 169/507 522/514
f 166/307 165/311 186/302
f 163/714 182/710 183/713
f 167/686 80/687 84/688
f 83/810 79/807 519/803
f 84/688 524/689 167/686
f 128/892 516/895 415/893
f 184/715 183/713 521/711
f 163/714 183/713 517/717
f 524/894 85/896 129/891
f 415/893 130/890 128/892
f 130/890 524/894 129/891
f 523/310 166/307 522/304
f 163/714 128/712 182/710
f 183/713 182/710 521/711
f 128/712 129/709 182/710
f 182/710 520/707 521/711
f 520/707 182/710 129/709
f 129/709 85/708 520/707
f 519/803 521/813 520/814
f 410/806 519/803 140/805
f 183/713 184/715 517/717
f 160/720 162/716 164/718
f 85/1058 524/1061 84/1059
f 410/806 140/805 141/808
f 184/809 521/813 519/803
f 84/1059 79/1060 83/1057
f 519/803 79/807 80/804
f 79/691 84/688 80/687
f 519/803 520/814 83/810
f 418/317 127/322 518/313
f 108/321 155/316 518/313
f 187/308 418/317 518/313
f 187/308 186/302 165/311
f 127/322 108/321 518/313
f 510/680 416/677 161/683
f 138/670 417/676 403/673
f 410/806 507/812 184/809
f 410/806 184/809 519/803
f 161/721 160/720 164/718
f 141/693 140/690 167/686
f 184/715 506/719 517/717
f 164/718 506/719 422/722
f 506/719 164/718 517/717
f 422/722 161/721 164/718
f 164/718 163/714 517/717
f 448/828 146/821 104/824
f 420/898 415/893 516/895
f 140/690 80/687 167/686
f 130/692 415/694 167/686
f 162/897 516/895 128/892
f 162/897 160/899 516/895
f 516/895 160/899 425/900
f 420/898 516/895 425/900
f 160/679 417/676 425/684
f 492/398 144/378 96/389
f 180/372 419/360 404/367
f 413/397 143/385 509/402
f 94/381 200/377 93/384
f 144/378 94/381 143/385
f 93/384 200/377 108/382
f 200/377 199/379 496/380
f 496/380 108/382 200/377
f 150/130 508/145 502/153
f 496/380 489/386 108/382
f 151/155 293/163 152/172
f 134/376 509/374 180/372
f 149/139 122/131 126/121
f 125/111 123/102 124/106
f 195/94 411/101 505/95
f 142/93 120/92 198/98
f 198/98 135/100 142/93
f 224/113 126/121 135/100
f 122/131 149/139 291/146
f 122/131 121/156 293/163
f 144/1001 492/1002 199/1003
f 295/137 225/136 149/139
f 293/163 151/155 122/131
f 515/219 511/224 117/228
f 151/155 152/172 513/178
f 117/228 305/229 515/219
f 515/219 305/229 220/220
f 511/224 515/219 481/216
f 110/223 512/218 736/222
f 117/787 511/788 116/789
f 122/131 151/155 508/145
f 739/797 116/789 740/795
f 514/793 110/794 741/798
f 110/223 481/216 512/218
f 110/794 514/793 111/791
f 116/789 513/790 117/787
f 508/612 151/606 148/602
f 511/788 111/791 116/789
f 111/791 511/788 481/792
f 481/792 110/794 111/791
f 148/602 151/606 116/599
f 150/130 122/131 508/145
f 740/795 514/793 742/796
f 116/789 111/791 514/793
f 117/188 513/178 305/185
f 157/411 95/403 413/397
f 113/115 114/116 150/130
f 150/130 114/116 122/131
f 502/153 494/154 495/144
f 495/144 150/130 502/153
f 493/129 491/138 497/123
f 150/130 493/129 113/115
f 122/131 114/116 126/121
f 126/121 136/110 135/100
f 180/87 181/88 134/90
f 134/414 424/410 509/402
f 413/397 133/415 157/411
f 424/410 133/415 413/397
f 134/90 142/93 412/96
f 510/726 161/721 423/724
f 403/659 510/665 427/663
f 133/99 115/105 157/109
f 510/726 423/724 195/725
f 506/816 184/809 507/812
f 427/91 194/89 405/85
f 506/816 507/812 503/818
f 410/806 407/815 507/812
f 161/683 416/677 160/679
f 407/815 504/817 507/812
f 195/725 427/727 510/726
f 504/817 503/818 507/812
f 504/817 124/819 503/818
f 506/816 503/818 411/820
f 124/106 123/102 505/95
f 124/819 411/820 503/818
f 194/89 181/88 405/85
f 142/93 135/100 412/96
f 119/97 120/92 505/95
f 120/92 181/88 194/89
f 115/105 412/96 136/110
f 142/93 134/90 181/88
f 407/815 124/819 504/817
f 411/101 124/106 505/95
f 646/117 124/106 657/124
f 180/87 499/86 181/88
f 499/86 402/83 405/85
f 405/85 181/88 499/86
f 488/394 496/380 502/387
f 490/373 404/367 442/349
f 442/349 400/375 490/373
f 499/86 180/87 404/84
f 491/138 493/129 495/144
f 487/625 488/626 502/621
f 493/129 150/130 495/144
f 99/388 491/395 494/396
f 497/123 157/109 113/115
f 486/617 485/618 487/625
f 404/84 401/80 402/83
f 405/85 402/83 159/81
f 659/54 107/42 660/48
f 106/701 406/698 408/695
f 500/829 146/821 452/833
f 452/833 131/836 500/829
f 426/825 145/822 146/821
f 408/695 132/697 97/700
f 132/837 501/834 500/829
f 500/829 131/836 132/837
f 414/656 403/659 427/663
f 405/660 414/656 427/663
f 132/697 420/699 426/702
f 426/825 501/834 132/837
f 408/695 141/693 167/686
f 510/680 403/673 416/677
f 417/826 138/823 145/822
f 167/686 415/694 408/695
f 104/824 435/831 103/835
f 97/700 106/701 408/695
f 146/821 500/829 426/825
f 500/829 501/834 426/825
f 197/662 158/654 376/661
f 496/380 100/383 502/387
f 100/171 494/154 502/153
f 96/389 95/403 157/411
f 497/404 96/389 157/411
f 496/380 199/379 100/383
f 497/404 491/395 492/398
f 494/154 491/138 495/144
f 199/1003 492/1002 491/1004
f 484/416 483/413 91/407
f 401/80 454/78 87/75
f 455/74 454/78 400/79
f 91/407 90/412 484/416
f 395/622 488/626 487/625
f 179/598 498/604 396/607
f 91/407 489/386 394/400
f 394/400 489/386 395/391
f 496/380 395/391 489/386
f 489/386 91/407 483/413
f 731/408 483/413 743/417
f 89/597 92/600 744/603
f 147/406 90/412 394/400
f 88/601 484/614 90/610
f 396/607 498/604 90/610
f 90/610 147/613 396/607
f 147/613 395/622 485/618
f 147/613 485/618 148/602
f 92/600 89/597 116/599
f 179/598 89/597 88/601
f 109/605 89/597 745/608
f 395/622 487/625 485/618
f 748/615 109/605 749/616
f 88/601 498/604 179/598
f 751/418 484/416 752/420
f 484/614 482/611 750/620
f 484/614 88/601 482/611
f 757/422 193/423 758/424
f 480/211 252/205 728/208
f 735/215 480/211 759/213
f 480/211 512/218 481/216
f 481/216 219/214 480/211
f 252/205 480/211 219/214
f 468/350 190/345 204/337
f 457/472 6/460 460/470
f 205/533 479/534 661/548
f 457/472 15/468 6/460
f 428/340 203/344 204/337
f 175/1024 467/1029 652/1027
f 443/352 380/347 56/343
f 663/758 14/747 664/762
f 169/362 468/350 166/354
f 38/334 428/340 204/337
f 14/747 477/748 20/737
f 462/474 463/469 464/464
f 25/457 464/464 6/460
f 668/550 67/519 669/541
f 39/462 464/464 25/457
f 191/341 190/345 468/350
f 477/748 478/760 476/754
f 669/541 205/533 670/549
f 206/527 205/533 67/519
f 205/533 206/527 479/534
f 67/519 475/522 206/527
f 393/526 13/518 19/531
f 479/764 475/755 476/754
f 461/466 6/460 464/464
f 78/742 393/749 19/732
f 20/737 477/748 78/742
f 475/755 393/749 78/742
f 78/742 477/748 476/754
f 476/754 475/755 78/742
f 476/754 478/760 479/764
f 478/760 477/748 663/758
f 479/764 478/760 672/767
f 206/527 475/522 479/534
f 13/518 393/526 475/522
f 458/486 473/510 470/511
f 458/486 470/511 760/504
f 112/309 469/314 762/318
f 473/510 458/486 474/500
f 112/515 473/510 471/501
f 457/472 460/470 459/480
f 767/485 459/480 768/493
f 172/306 469/314 112/309
f 90/412 91/407 394/400
f 473/510 112/515 470/511
f 473/510 474/500 471/501
f 458/486 472/484 474/500
f 471/501 474/500 472/484
f 459/480 458/486 761/494
f 470/511 112/515 763/516
f 70/561 392/572 386/584
f 38/334 204/337 464/335
f 388/560 466/570 665/582
f 76/543 392/572 70/561
f 386/584 392/572 678/589
f 436/954 375/955 438/956
f 47/585 70/561 386/584
f 76/543 41/528 75/535
f 387/551 76/543 75/535
f 387/551 388/560 76/543
f 75/535 391/542 387/551
f 681/569 465/559 682/579
f 464/335 204/337 191/341
f 204/337 190/345 191/341
f 435/831 104/824 139/827
f 680/581 387/551 683/580
f 176/475 462/474 191/478
f 460/470 461/466 176/475
f 461/466 462/474 176/475
f 176/475 191/478 468/489
f 191/478 462/474 464/464
f 464/464 463/469 461/466
f 462/474 461/466 463/469
f 460/470 6/460 461/466
f 460/470 178/479 472/484
f 460/470 472/484 458/486
f 459/480 460/470 458/486
f 724/481 457/472 767/485
f 391/542 465/559 387/551
f 464/335 39/332 38/334
f 527/491 173/483 201/499
f 381/365 382/366 380/347
f 384/34 107/42 98/49
f 101/867 451/868 437/869
f 451/928 102/929 450/930
f 368/361 455/369 442/349
f 435/675 431/678 398/682
f 199/379 99/388 100/383
f 449/28 453/44 382/36
f 157/109 115/105 113/115
f 66/364 443/352 61/357
f 433/353 453/359 203/344
f 382/366 433/353 380/347
f 398/1005 456/1006 103/1007
f 449/28 389/43 377/50
f 431/678 435/675 197/674
f 385/931 399/937 374/934
f 455/74 370/51 189/65
f 103/939 456/940 399/937
f 438/956 377/960 389/959
f 102/929 384/932 450/930
f 383/936 399/937 385/931
f 385/931 439/933 451/928
f 101/867 102/870 451/868
f 451/928 450/930 385/931
f 437/35 449/28 101/22
f 436/871 390/872 437/869
f 381/29 379/23 446/19
f 444/13 441/9 447/15
f 104/824 105/832 448/828
f 383/936 103/939 399/937
f 370/371 455/369 368/361
f 389/43 449/28 437/35
f 189/65 454/78 455/74
f 453/44 449/28 370/51
f 370/371 368/361 453/359
f 446/19 449/28 382/36
f 189/65 373/57 87/75
f 86/73 87/75 373/57
f 373/57 370/51 449/28
f 102/27 81/18 384/34
f 444/13 101/22 446/19
f 448/62 105/70 383/55
f 449/28 446/19 101/22
f 447/15 81/18 444/13
f 101/22 444/13 81/18
f 81/18 102/27 101/22
f 383/55 384/34 98/49
f 105/70 103/77 383/55
f 383/55 98/49 448/62
f 447/983 441/984 440/985
f 82/6 62/4 634/1
f 660/48 81/18 685/47
f 107/42 384/34 81/18
f 445/1034 82/1035 692/1036
f 374/934 439/933 385/931
f 441/9 62/4 82/6
f 63/14 62/4 444/13
f 443/352 56/343 61/357
f 62/4 441/9 444/13
f 381/29 371/37 379/23
f 446/19 379/23 369/17
f 57/38 64/20 66/30
f 442/349 455/369 400/375
f 66/364 371/358 443/352
f 372/961 377/962 430/963
f 64/20 63/14 369/17
f 441/984 445/992 693/990
f 436/935 451/928 439/933
f 390/957 436/954 438/956
f 87/657 86/664 376/661
f 374/969 398/967 434/964
f 389/959 390/957 438/956
f 197/674 429/681 431/678
f 86/664 372/667 378/666
f 436/871 437/869 451/868
f 438/966 375/968 434/964
f 103/835 435/831 398/838
f 378/965 430/963 434/964
f 375/955 436/954 374/958
f 438/966 434/964 377/962
f 430/963 377/962 434/964
f 375/968 374/969 434/964
f 433/353 203/344 432/348
f 38/334 56/343 428/340
f 371/358 380/347 443/352
f 380/347 432/348 428/340
f 380/347 433/353 432/348
f 203/344 368/361 421/355
f 203/344 421/355 442/349
f 434/964 398/967 378/965
f 398/682 431/678 378/685
f 431/678 429/681 378/685
f 378/685 429/681 197/674
f 203/344 428/340 432/348
f 56/343 380/347 428/340
f 513/901 116/902 151/903
f 185/498 527/491 529/509
f 419/360 180/372 509/374
f 201/499 174/497 177/508
f 195/94 505/95 194/89
f 426/825 425/830 145/822
f 94/1011 93/1012 127/1013
f 411/723 195/725 422/722
f 416/677 417/676 160/679
f 136/110 114/116 115/105
f 482/611 88/601 109/605
f 201/301 186/302 525/299
f 649/1028 188/1026 697/1030
f 468/489 169/507 168/490
f 442/349 421/355 368/361
f 204/337 203/344 442/349
f 414/656 159/653 397/655
f 104/824 146/821 138/823
f 158/654 159/653 87/657
f 87/657 376/661 158/654
f 442/349 419/360 166/354
f 130/692 167/686 524/689
f 509/374 165/368 419/360
f 165/368 166/354 419/360
f 126/121 295/137 149/139
f 143/385 94/381 418/390
f 127/1013 418/1014 94/1011
f 509/402 143/385 165/405
f 143/385 418/390 187/399
f 143/385 187/399 165/405
f 417/676 416/677 403/673
f 161/721 422/722 423/724
f 420/699 132/697 415/694
f 143/385 413/397 96/389
f 200/377 94/381 144/378
f 502/621 508/612 486/617
f 152/172 293/163 289/179
f 114/116 136/110 126/121
f 515/219 219/214 481/216
f 496/380 488/394 395/391
f 152/172 305/185 513/178
f 116/599 179/598 148/602
f 113/115 493/129 497/123
f 195/725 423/724 422/722
f 499/86 404/84 402/83
f 509/402 424/410 413/397
f 133/99 134/90 412/96
f 411/723 422/722 506/719
f 409/811 407/815 410/806
f 123/102 119/97 505/95
f 135/1008 136/1009 412/1010
f 408/695 409/696 141/693
f 698/140 406/147 699/157
f 657/124 407/132 698/140
f 405/660 159/653 414/656
f 406/698 106/701 658/703
f 398/938 399/937 456/940
f 404/84 490/82 401/80
f 403/659 414/656 397/655
f 454/78 401/80 400/79
f 401/80 159/81 402/83
f 490/82 400/79 401/80
f 106/56 97/63 98/49
f 146/821 448/828 452/833
f 452/71 448/62 98/49
f 398/938 374/934 399/937
f 420/699 425/704 426/702
f 406/698 409/696 408/695
f 407/132 409/158 406/147
f 137/658 403/659 397/655
f 132/697 408/695 415/694
f 425/830 417/826 145/822
f 158/654 137/658 397/655
f 413/397 95/403 96/389
f 487/625 502/621 486/617
f 491/395 99/388 199/379
f 147/613 148/602 396/607
f 395/391 147/406 394/400
f 148/602 179/598 396/607
f 148/602 485/618 486/617
f 392/572 76/543 701/583
f 76/543 388/560 676/571
f 391/542 75/535 67/519
f 75/535 41/528 67/519
f 684/1018 391/1019 703/1020
f 475/522 67/519 13/518
f 467/1029 175/1024 656/1031
f 70/561 77/552 76/543
f 466/570 388/560 387/551
f 178/479 460/470 176/475
f 704/591 386/584 705/594
f 383/936 385/931 384/932
f 380/347 371/358 381/365
f 373/57 449/28 377/50
f 372/64 86/73 373/57
f 450/930 384/932 385/931
f 690/21 447/15 706/25
f 64/20 369/17 379/23
f 390/872 389/873 437/869
f 446/19 382/36 381/29
f 372/64 373/57 377/50
f 452/71 98/49 131/72
f 378/666 376/661 86/664
f 66/30 379/23 371/37
f 444/13 446/19 369/17
f 370/51 373/57 189/65
f 453/359 433/353 382/366
f 66/30 64/20 379/23
f 440/985 441/984 694/987
f 447/983 440/985 696/986
f 441/1038 82/1035 445/1034
f 444/13 369/17 63/14
f 372/667 430/668 378/666
f 436/935 439/933 374/934
f 197/662 376/661 378/666
f 453/359 368/361 203/344
f 141/808 409/811 410/806
f 166/354 523/370 169/362
f 133/99 412/96 115/105
f 343/874 345/875 346/876
f 327/245 268/251 263/248
f 607/1040 250/1041 608/1042
f 284/169 301/177 217/151
f 296/258 282/261 251/266
f 290/235 292/234 267/225
f 269/427 270/428 255/430
f 269/427 255/430 254/433
f 774/436 611/439 777/441
f 772/432 367/434 774/436
f 770/426 269/427 773/429
f 193/423 192/425 269/427
f 297/438 366/437 254/433
f 282/261 296/258 237/256
f 250/1044 239/1045 296/1046
f 234/265 251/266 282/261
f 297/438 272/443 366/437
f 613/444 256/440 614/446
f 367/434 269/427 254/433
f 608/1047 296/1046 615/1048
f 616/277 234/265 617/283
f 233/449 365/452 620/451
f 256/440 233/449 621/450
f 271/435 255/430 253/431
f 256/440 366/437 272/443
f 271/435 297/438 254/433
f 254/433 366/437 367/434
f 272/443 264/447 256/440
f 242/257 241/259 244/253
f 346/289 223/281 320/274
f 245/272 210/263 278/267
f 283/175 319/182 303/187
f 354/287 363/290 320/274
f 357/885 356/877 361/886
f 212/941 211/942 333/943
f 336/770 358/771 341/772
f 226/918 340/919 227/920
f 337/851 316/852 306/853
f 336/857 338/861 337/851
f 350/882 324/878 343/874
f 352/775 341/772 358/771
f 322/126 123/102 229/118
f 360/840 335/841 342/842
f 323/883 328/887 347/888
f 340/919 212/923 227/920
f 231/863 339/859 308/856
f 313/176 309/166 285/174
f 235/276 245/272 248/282
f 291/146 292/164 121/156
f 225/240 262/231 291/236
f 126/121 294/128 295/137
f 321/273 349/288 354/287
f 276/904 334/905 275/906
f 123/102 125/111 229/118
f 291/236 262/231 265/226
f 292/234 291/236 265/226
f 224/113 348/120 327/127
f 295/137 294/128 225/136
f 246/250 263/248 247/255
f 296/258 239/247 237/256
f 617/283 248/282 623/291
f 310/784 316/782 329/781
f 285/174 318/181 288/186
f 355/293 361/297 363/290
f 344/860 226/866 359/864
f 358/771 353/777 352/775
f 359/774 353/777 358/771
f 358/771 336/770 359/774
f 336/857 344/860 359/864
f 357/845 361/849 355/846
f 343/874 346/876 356/877
f 360/294 355/293 354/287
f 227/920 353/921 226/918
f 364/843 357/845 355/846
f 353/921 227/920 352/924
f 363/881 361/886 356/877
f 360/840 364/843 355/846
f 359/925 226/918 353/921
f 320/274 321/273 354/287
f 346/876 363/881 356/877
f 212/923 333/927 227/920
f 342/842 364/843 360/840
f 363/290 346/289 320/274
f 355/293 363/290 354/287
f 345/875 323/883 347/888
f 356/877 357/885 342/880
f 350/912 362/914 335/910
f 342/917 362/914 350/912
f 335/910 362/914 342/917
f 222/884 345/875 347/888
f 349/844 335/841 360/840
f 304/268 277/280 321/273
f 360/294 354/287 349/288
f 324/878 323/883 345/875
f 337/779 329/781 316/782
f 223/879 345/875 222/884
f 346/876 345/875 223/879
f 339/859 344/860 307/854
f 350/882 343/874 342/880
f 227/920 333/927 352/924
f 356/877 342/880 343/874
f 339/922 231/926 340/919
f 339/922 340/919 226/918
f 344/860 339/859 226/866
f 336/857 307/854 344/860
f 307/854 308/856 339/859
f 313/862 317/865 308/856
f 307/854 336/857 337/851
f 228/168 215/161 313/176
f 308/856 307/854 306/853
f 333/943 211/942 315/945
f 351/776 329/781 337/779
f 338/773 351/776 337/779
f 341/772 351/776 338/773
f 333/778 341/772 352/775
f 333/778 351/776 341/772
f 333/778 330/780 351/776
f 343/874 324/878 345/875
f 325/908 324/915 350/912
f 275/848 334/850 335/841
f 224/113 274/107 348/120
f 335/841 349/844 277/847
f 304/122 348/120 273/108
f 328/913 324/915 325/908
f 349/288 321/273 277/280
f 277/847 275/848 335/841
f 273/108 277/114 304/122
f 304/268 280/264 268/251
f 275/104 198/98 120/92
f 221/112 118/103 123/102
f 119/97 123/102 118/103
f 276/904 326/911 325/908
f 328/887 323/883 324/878
f 221/909 281/916 328/913
f 328/887 218/889 347/888
f 335/910 325/908 350/912
f 335/910 334/905 325/908
f 334/905 276/904 325/908
f 330/780 332/785 331/783
f 330/948 333/943 315/945
f 235/276 248/282 234/265
f 123/102 322/126 281/119
f 229/951 332/953 330/948
f 328/913 326/911 221/909
f 331/783 332/785 125/786
f 229/118 213/134 322/126
f 229/951 315/945 230/952
f 125/786 310/784 331/783
f 351/776 330/780 329/781
f 330/780 331/783 329/781
f 331/783 310/784 329/781
f 312/141 125/111 713/133
f 310/149 125/111 312/141
f 306/853 316/852 310/855
f 216/947 230/952 315/945
f 212/941 231/946 314/944
f 231/946 317/949 314/944
f 708/165 312/141 715/159
f 214/150 213/134 230/142
f 311/160 312/141 286/167
f 310/149 312/141 311/160
f 310/855 309/858 306/853
f 311/160 309/166 310/149
f 307/854 337/851 306/853
f 306/853 309/858 308/856
f 218/143 213/134 217/151
f 213/134 214/150 217/151
f 317/1077 313/1078 314/1079
f 315/945 211/942 216/947
f 216/947 211/942 314/944
f 280/264 304/268 321/273
f 222/285 278/267 223/281
f 320/274 223/281 278/267
f 320/274 280/264 321/273
f 278/267 280/264 320/274
f 248/282 279/279 302/292
f 284/169 217/151 214/150
f 283/175 284/169 214/150
f 319/182 228/168 288/186
f 298/190 288/186 318/181
f 303/187 287/183 283/175
f 286/167 285/174 311/160
f 318/181 286/167 709/180
f 309/166 311/160 285/174
f 313/1078 215/1080 314/1079
f 308/856 317/865 231/863
f 283/175 228/168 319/182
f 228/168 285/174 288/186
f 319/182 288/186 303/187
f 287/183 302/184 301/177
f 298/190 318/181 710/192
f 288/186 298/190 300/193
f 712/199 298/190 717/195
f 302/184 279/170 301/177
f 327/245 263/248 261/237
f 268/251 247/255 263/248
f 258/243 239/247 232/221
f 348/120 268/135 327/127
f 232/221 272/232 297/227
f 152/172 289/179 305/185
f 219/214 266/217 271/212
f 268/135 348/120 304/122
f 280/264 209/260 268/251
f 261/237 262/231 225/240
f 249/286 245/272 279/279
f 302/184 303/187 625/194
f 628/197 300/193 629/201
f 288/186 300/193 303/187
f 300/193 299/196 627/200
f 235/276 243/275 240/271
f 610/296 302/292 626/298
f 301/177 284/169 287/183
f 303/187 302/184 287/183
f 215/950 230/952 216/947
f 215/161 214/150 230/142
f 283/175 287/183 284/169
f 279/170 217/151 301/177
f 222/162 217/151 279/170
f 278/267 222/285 279/279
f 281/119 322/126 213/134
f 209/260 280/264 278/267
f 279/279 245/272 278/267
f 237/256 238/262 236/269
f 198/98 274/107 135/100
f 118/907 276/904 275/906
f 275/104 277/114 273/108
f 224/113 135/100 274/107
f 348/120 274/107 273/108
f 125/1015 332/1016 229/1017
f 218/143 281/119 213/134
f 248/282 249/286 279/279
f 120/92 118/103 275/104
f 225/136 291/146 149/139
f 289/179 293/163 290/173
f 290/173 121/156 292/164
f 291/146 121/156 122/131
f 121/156 290/173 293/163
f 220/220 305/229 289/230
f 289/230 267/225 220/220
f 225/240 327/245 261/237
f 242/257 247/255 268/251
f 265/226 266/217 267/225
f 266/217 220/220 267/225
f 232/221 257/242 264/238
f 232/221 262/231 261/237
f 232/221 261/237 259/241
f 232/221 266/217 265/226
f 260/244 263/248 246/250
f 263/248 260/244 261/237
f 258/243 246/250 244/253
f 238/262 237/256 241/259
f 260/244 258/243 259/241
f 260/244 246/250 258/243
f 232/221 259/241 258/243
f 261/237 260/244 259/241
f 264/238 272/232 232/221
f 271/212 232/221 297/227
f 252/205 219/214 271/212
f 266/217 232/221 271/212
f 270/428 192/425 253/431
f 269/427 192/425 270/428
f 367/434 366/437 256/440
f 264/238 257/242 233/246
f 232/221 233/246 257/242
f 365/252 233/246 239/247
f 365/452 239/455 607/454
f 253/209 192/206 252/205
f 208/254 207/249 244/253
f 245/272 249/286 248/282
f 246/250 247/255 242/257
f 242/257 268/251 209/260
f 240/271 210/263 245/272
f 244/253 241/259 237/256
f 240/271 245/272 235/276
f 235/276 236/269 243/275
f 244/253 207/249 258/243
f 210/263 240/271 238/262
f 241/259 242/257 238/262
f 258/243 207/249 239/247
f 242/257 210/263 238/262
f 240/271 243/275 238/262
f 208/254 244/253 237/256
f 208/254 237/256 239/247
f 236/269 234/265 237/256
f 234/265 282/261 237/256
f 236/269 235/276 234/265
f 315/945 229/951 330/948
f 265/226 267/225 292/234
f 233/449 256/440 264/447
f 255/430 270/428 253/431
f 615/270 251/266 630/278
f 239/247 233/246 232/221
f 271/435 254/433 255/430
f 314/944 215/950 216/947
f 213/134 229/118 230/142
f 357/845 364/843 342/842
f 283/175 214/150 228/168
f 224/113 327/127 225/136
f 225/136 294/128 224/113
f 276/904 118/907 221/909
f 219/214 515/219 220/220
f 220/220 266/217 219/214
f 217/151 222/162 218/143
f 244/253 246/250 242/257
f 212/923 340/919 231/926
f 222/884 347/888 218/889
f 341/772 338/773 336/770
f 286/167 318/181 285/174
f 123/102 281/119 221/112
f 325/908 326/911 328/913
f 221/909 326/911 276/904
f 198/98 273/108 274/107
f 328/152 281/119 218/143
f 313/862 308/856 309/858
f 212/941 314/944 211/942
f 214/150 215/161 228/168
f 285/174 228/168 313/176
f 298/190 299/196 300/193
f 278/267 210/263 209/260
f 273/108 198/98 275/104
f 265/226 262/231 232/221
f 224/113 294/128 126/121
f 289/230 290/235 267/225
f 210/263 242/257 209/260
f 271/212 253/209 252/205
f 208/254 239/247 207/249
f 243/275 236/269 238/262
f 530/59 45/52 531/66
f 531/66 45/52 55/58
f 532/1076 2/1069 560/1075
f 533/1073 2/1069 532/1076
f 534/568 27/547 535/577
f 535/577 27/547 548/567
f 536/61 34/40 579/53
f 537/68 34/40 536/61
f 538/574 28/575 17/590
f 539/593 17/590 570/596
f 540/735 23/733 563/739
f 541/738 1/730 540/735
f 542/461 4/459 543/456
f 543/456 4/459 25/457
f 544/458 25/457 6/460
f 545/546 26/532 9/540
f 546/556 9/540 549/566
f 547/578 24/553 534/568
f 548/567 27/547 545/546
f 549/566 9/540 572/565
f 550/463 6/460 5/465
f 551/467 5/465 556/471
f 552/1051 65/1050 596/1054
f 553/1052 16/1049 552/1051
f 554/473 15/468 555/477
f 555/477 15/468 32/482
f 556/471 5/465 554/473
f 557/751 3/736 558/745
f 558/745 3/736 559/740
f 559/740 3/736 1/730
f 560/1075 2/1069 541/1072
f 561/1070 2/1069 533/1073
f 562/1071 1/1068 561/1070
f 563/739 23/733 24/743
f 564/1074 1/1068 562/1071
f 565/750 24/743 547/756
f 566/488 32/482 567/496
f 567/496 32/482 568/506
f 568/506 32/482 775/505
f 569/1055 16/1049 553/1052
f 570/1000 17/996 569/999
f 571/562 68/554 538/574
f 572/565 9/540 573/555
f 573/555 9/540 31/539
f 574/336 38/334 4/333
f 575/339 38/334 574/336
f 576/635 53/631 603/639
f 577/638 52/628 576/635
f 578/1065 34/1066 537/1067
f 579/53 34/40 57/38
f 580/60 57/38 591/67
f 581/7 62/4 582/11
f 582/11 62/4 63/14
f 583/31 63/14 60/24
f 584/1085 63/1086 583/1087
f 585/10 30/2 581/7
f 586/39 60/24 59/32
f 587/978 49/980 46/971
f 588/982 49/980 587/978
f 589/976 46/971 585/974
f 590/645 59/642 50/634
f 591/67 57/38 530/59
f 592/356 55/363 56/343
f 593/351 56/343 599/346
f 594/636 52/628 577/638
f 595/640 44/632 594/636
f 596/1054 65/1050 595/1056
f 597/647 48/644 598/650
f 598/650 48/644 49/649
f 599/346 56/343 575/339
f 600/338 4/333 542/342
f 601/564 31/539 571/562
f 602/643 58/637 59/642
f 603/639 53/631 602/643
f 604/1064 59/1063 578/1065
f 605/648 50/634 597/647
f 606/651 49/649 588/652
f 607/1040 239/1043 250/1041
f 608/1047 250/1044 296/1046
f 609/295 248/282 610/296
f 610/296 248/282 302/292
f 611/439 367/434 612/442
f 612/442 367/434 613/444
f 613/444 367/434 256/440
f 614/446 256/440 622/448
f 615/270 296/258 251/266
f 616/277 251/266 234/265
f 617/283 234/265 248/282
f 618/284 251/266 616/277
f 619/453 365/452 607/454
f 620/451 365/452 619/453
f 621/450 233/449 620/451
f 622/448 256/440 621/450
f 623/291 248/282 609/295
f 624/202 299/196 712/199
f 625/194 303/187 628/197
f 626/198 302/184 625/194
f 627/1107 299/1108 624/1109
f 628/197 303/187 300/193
f 629/201 300/193 627/200
f 630/278 251/266 618/284
f 631/753 29/741 632/746
f 632/746 29/741 3/736
f 633/759 14/747 631/753
f 634/1 62/4 30/2
f 635/3 30/2 637/5
f 636/972 46/971 638/975
f 637/973 30/970 636/972
f 638/975 46/971 639/977
f 639/977 46/971 47/979
f 640/757 3/736 557/751
f 641/752 3/736 640/757
f 642/595 47/585 704/591
f 643/1090 528/1089 647/1093
f 644/1091 188/1088 643/1090
f 645/125 125/111 646/117
f 646/117 125/111 124/106
f 647/1093 528/1089 648/1092
f 648/1092 528/1089 188/1088
f 649/1028 175/1024 188/1026
f 650/1096 175/1097 649/1098
f 651/1023 188/1026 175/1024
f 652/1100 467/1101 653/1102
f 653/1102 467/1101 677/1103
f 654/1025 175/1024 652/1027
f 655/1099 175/1097 650/1096
f 656/1031 175/1024 655/1033
f 657/124 124/106 407/132
f 658/69 106/56 659/54
f 659/54 106/56 107/42
f 660/48 107/42 81/18
f 661/1081 479/1082 671/1083
f 662/557 205/533 661/548
f 663/758 477/748 14/747
f 664/762 14/747 667/763
f 665/582 466/570 666/587
f 666/587 466/570 680/581
f 667/763 14/747 633/759
f 668/550 391/542 67/519
f 669/541 67/519 205/533
f 670/549 205/533 662/557
f 671/1083 479/1082 675/1084
f 672/767 478/760 673/768
f 673/768 478/760 674/766
f 674/766 478/760 663/758
f 675/769 479/764 672/767
f 676/571 388/560 665/582
f 677/1032 467/1029 656/1031
f 678/589 392/572 702/588
f 679/592 386/584 678/589
f 680/581 466/570 387/551
f 681/569 387/551 465/559
f 682/1022 465/1021 684/1018
f 683/580 387/551 681/569
f 684/1018 465/1021 391/1019
f 685/47 81/18 686/41
f 686/41 81/18 687/33
f 687/33 81/18 688/26
f 688/26 81/18 690/21
f 689/8 82/6 634/1
f 690/21 81/18 447/15
f 691/12 82/6 689/8
f 692/1036 82/1035 691/1039
f 693/1037 445/1034 692/1036
f 694/987 441/984 693/990
f 695/989 440/985 694/987
f 696/986 440/985 695/989
f 697/1094 188/1088 644/1091
f 698/140 407/132 406/147
f 699/1110 406/1111 700/1112
f 700/705 406/698 658/703
f 701/583 76/543 676/571
f 702/588 392/572 701/583
f 703/558 391/542 668/550
f 704/591 47/585 386/584
f 705/594 386/584 679/592
f 706/991 447/983 707/988
f 707/988 447/983 696/986
f 708/165 286/167 312/141
f 709/180 286/167 708/165
f 710/192 318/181 711/191
f 711/191 318/181 716/189
f 712/199 299/196 298/190
f 713/133 125/111 645/125
f 714/148 312/141 713/133
f 715/159 312/141 714/148
f 716/189 318/181 709/180
f 717/195 298/190 710/192
f 718/761 557/751 719/765
f 720/203 624/202 712/199
f 721/204 624/202 720/203
f 722/495 32/482 723/487
f 723/487 32/482 36/476
f 724/481 36/476 457/472
f 725/320 170/312 156/326
f 726/328 156/326 734/330
f 727/207 192/206 757/210
f 728/208 252/205 727/207
f 729/409 154/392 730/401
f 730/401 154/392 489/386
f 731/408 489/386 483/413
f 732/327 469/314 725/320
f 733/331 156/326 729/329
f 734/330 156/326 733/331
f 735/215 512/218 480/211
f 736/222 512/218 735/215
f 737/233 110/223 736/222
f 738/239 110/223 737/233
f 739/797 92/799 116/789
f 740/795 116/789 514/793
f 741/798 110/794 738/800
f 742/796 514/793 741/798
f 743/417 483/413 771/419
f 744/603 92/600 754/609
f 745/608 89/597 744/603
f 746/619 482/611 748/615
f 747/623 482/611 746/619
f 748/615 482/611 109/605
f 749/616 109/605 745/608
f 750/620 482/611 747/623
f 751/418 483/413 484/416
f 752/624 484/614 750/620
f 753/421 483/413 751/418
f 754/1104 92/1105 755/1106
f 755/802 92/799 756/801
f 756/801 92/799 739/797
f 757/422 192/425 193/423
f 758/424 193/423 770/426
f 759/213 480/211 728/208
f 760/504 470/511 764/512
f 761/494 458/486 760/504
f 762/318 469/314 769/324
f 763/323 112/309 762/318
f 764/512 470/511 763/516
f 765/502 459/480 766/503
f 766/503 459/480 761/494
f 767/485 457/472 459/480
f 768/493 459/480 765/502
f 769/324 469/314 732/327
f 770/426 193/423 269/427
f 771/419 483/413 753/421
f 772/432 269/427 367/434
f 773/429 269/427 772/432
f 774/436 367/434 611/439
f 775/505 32/482 722/495
f 776/513 568/506 775/505
f 777/441 611/439 778/445
usemtl Tile_+032_+023_L19_000031_untextured
