mtllib Tile_+032_+023_L20_0001110.mtl
v 6.50000000e+03 5.52544903e+03 3.08628174e+00
v 6.50000000e+03 5.52524523e+03 3.08108516e+00
v 6.50000000e+03 5.52423672e+03 3.17325263e+00
v 6.49915779e+03 5.52433766e+03 3.16342725e+00
v 6.50000000e+03 5.52623205e+03 2.93811120e+00
v 6.50000000e+03 5.52581929e+03 2.99389666e+00
v 6.49984058e+03 5.52629395e+03 2.94552300e+00
v 6.50000000e+03 5.52632675e+03 2.92971375e+00
v 6.50000000e+03 5.50091162e+03 4.16252111e+00
v 6.50000000e+03 5.50016309e+03 4.70305170e+00
v 6.49932964e+03 5.50072170e+03 4.25546624e+00
v 6.50000000e+03 5.51325816e+03 3.41447746e+00
v 6.50000000e+03 5.51280567e+03 3.42035163e+00
v 6.50000000e+03 5.51249142e+03 3.70960318e+00
v 6.50000000e+03 5.51240827e+03 3.91519219e+00
v 6.49894017e+03 5.51238513e+03 3.18382207e+00
v 6.50000000e+03 5.52135035e+03 3.02974708e+00
v 6.50000000e+03 5.52070427e+03 3.07187492e+00
v 6.50000000e+03 5.51904061e+03 3.01499031e+00
v 6.50000000e+03 5.51401583e+03 3.35672393e+00
v 6.50000000e+03 5.51421513e+03 3.32803016e+00
v 6.50000000e+03 5.50515257e+03 9.33055962e+00
v 6.50000000e+03 5.50469605e+03 9.31909167e+00
v 6.50000000e+03 5.50698718e+03 9.34455365e+00
v 6.50000000e+03 5.50587082e+03 9.35249502e+00
v 6.49830084e+03 5.50758368e+03 9.39160335e+00
v 6.50000000e+03 5.51857971e+03 3.00661398e+00
v 6.50000000e+03 5.50004044e+03 4.21587892e+00
v 6.50000000e+03 5.50000141e+03 4.05085007e+00
v 6.49964473e+03 5.50007790e+03 4.73362978e+00
v 6.50000000e+03 5.51711423e+03 2.90164472e+00
v 6.50000000e+03 5.51700604e+03 2.88014076e+00
v 6.50000000e+03 5.51690021e+03 2.88631208e+00
v 6.50000000e+03 5.52773160e+03 3.16647122e+00
v 6.50000000e+03 5.52684833e+03 2.99588838e+00
v 6.50000000e+03 5.52272240e+03 3.02440513e+00
v 6.49909031e+03 5.52247531e+03 2.89411580e+00
v 6.50000000e+03 5.51847950e+03 2.99840738e+00
v 6.50000000e+03 5.51849357e+03 2.99552815e+00
v 6.50000000e+03 5.51498481e+03 3.14211228e+00
v 6.49816381e+03 5.51616221e+03 2.82286715e+00
v 6.50000000e+03 5.51029736e+03 5.99484888e+00
v 6.50000000e+03 5.51017353e+03 6.93442365e+00
v 6.50000000e+03 5.52299510e+03 3.07379121e+00
v 6.50000000e+03 5.51087298e+03 5.00274572e+00
v 6.50000000e+03 5.51166956e+03 4.93299972e+00
v 6.50000000e+03 5.51038378e+03 5.10068745e+00
v 6.50000000e+03 5.51033779e+03 5.50854436e+00
v 6.50000000e+03 5.51026196e+03 7.47502798e+00
v 6.49894241e+03 5.51016876e+03 7.21161523e+00
v 6.50000000e+03 5.51032655e+03 8.82535156e+00
v 6.50000000e+03 5.50800693e+03 9.36846207e+00
v 6.50000000e+03 5.50948072e+03 9.28416293e+00
v 6.50000000e+03 5.51006587e+03 9.21194899e+00
v 6.50000000e+03 5.50307747e+03 8.07112897e+00
v 6.50000000e+03 5.50265520e+03 7.36047539e+00
v 6.50000000e+03 5.50262297e+03 7.32014042e+00
v 6.49989525e+03 5.50271039e+03 7.45120822e+00
v 6.50000000e+03 5.50255783e+03 7.14814996e+00
v 6.50000000e+03 5.50255266e+03 7.01480456e+00
v 6.50000000e+03 5.50340969e+03 9.41363635e+00
v 6.50000000e+03 5.50313276e+03 9.18900608e+00
v 6.49886854e+03 5.50317448e+03 9.41286758e+00
v 6.50000000e+03 5.50305504e+03 5.49783157e+00
v 6.50000000e+03 5.50300769e+03 3.99119017e+00
v 6.49855134e+03 5.50292319e+03 5.77126242e+00
v 6.50000000e+03 5.50292074e+03 6.28172593e+00
v 6.50000000e+03 5.50297080e+03 6.01868131e+00
v 6.49956892e+03 5.50285951e+03 6.35329874e+00
v 6.50000000e+03 5.50272835e+03 6.59233965e+00
v 6.49988336e+03 5.50000000e+03 4.09455983e+00
v 6.49086805e+03 5.50000000e+03 5.22023481e+00
v 6.49028888e+03 5.50000000e+03 5.18680665e+00
v 6.49049615e+03 5.50024477e+03 5.24034988e+00
v 6.49324962e+03 5.50000000e+03 4.72650360e+00
v 6.49322020e+03 5.50000000e+03 4.74002160e+00
v 6.49320285e+03 5.50037674e+03 4.21156000e+00
v 6.49009268e+03 5.50000000e+03 3.61986264e+00
v 6.49003803e+03 5.50000000e+03 3.53366716e+00
v 6.47703315e+03 5.50000000e+03 3.22735152e+00
v 6.47271179e+03 5.50000000e+03 3.20636954e+00
v 6.49002209e+03 5.50000000e+03 4.88090987e+00
v 6.49013011e+03 5.50000000e+03 4.74034347e+00
v 6.50000000e+03 5.50000000e+03 4.04123474e+00
v 6.49979024e+03 5.50000000e+03 4.13713135e+00
v 6.49640876e+03 5.50000000e+03 4.37934773e+00
v 6.49581217e+03 5.50000000e+03 4.30997645e+00
v 6.49710696e+03 5.50000000e+03 4.30041918e+00
v 6.49700074e+03 5.50028281e+03 3.81267145e+00
v 6.49832860e+03 5.50000000e+03 4.57008806e+00
v 6.49806151e+03 5.50000000e+03 4.57451087e+00
v 6.49791278e+03 5.50000000e+03 4.48221388e+00
v 6.49835651e+03 5.50023957e+03 4.51763948e+00
v 6.49732152e+03 5.50000000e+03 4.32324766e+00
v 6.49763690e+03 5.50000000e+03 4.46924914e+00
v 6.49747978e+03 5.50055666e+03 3.69817710e+00
v 6.49951527e+03 5.50000000e+03 4.04356027e+00
v 6.49536905e+03 5.50000000e+03 4.78380435e+00
v 6.49560139e+03 5.50023895e+03 4.00047088e+00
v 6.49123389e+03 5.50000000e+03 5.07584280e+00
v 6.49107792e+03 5.50000000e+03 5.15322934e+00
v 6.49201914e+03 5.50000000e+03 4.95032366e+00
v 6.49019368e+03 5.50000000e+03 5.19683005e+00
v 6.49012607e+03 5.50000000e+03 5.01815731e+00
v 6.49395861e+03 5.50000000e+03 4.29130161e+00
v 6.49520538e+03 5.50019231e+03 4.45190270e+00
v 6.49012386e+03 5.50000000e+03 3.69253063e+00
v 6.50000000e+03 5.51850716e+03 3.00082110e+00
v 6.49785744e+03 5.51099933e+03 4.51335919e+00
v 6.49871728e+03 5.51064119e+03 4.91974365e+00
v 6.49809632e+03 5.51045339e+03 4.69861972e+00
v 6.50000000e+03 5.51030411e+03 5.88111868e+00
v 6.50000000e+03 5.50307849e+03 9.07826476e+00
v 6.49841713e+03 5.51193843e+03 5.21147381e+00
v 6.49941458e+03 5.51223223e+03 4.72357592e+00
v 6.49655499e+03 5.51136912e+03 4.60952257e+00
v 6.49789078e+03 5.51214061e+03 4.83601023e+00
v 6.49969733e+03 5.51047653e+03 4.98895482e+00
v 6.50000000e+03 5.51214060e+03 4.69849189e+00
v 6.49937445e+03 5.51023636e+03 5.08925711e+00
v 6.49737093e+03 5.51004618e+03 5.15943535e+00
v 6.49520421e+03 5.50994448e+03 5.36973402e+00
v 6.49863031e+03 5.51026581e+03 5.11986562e+00
v 6.49712695e+03 5.51060744e+03 4.56247442e+00
v 6.49745785e+03 5.51242822e+03 3.77113684e+00
v 6.49744956e+03 5.51220119e+03 4.17356926e+00
v 6.49660626e+03 5.51213530e+03 3.83326827e+00
v 6.49884877e+03 5.51219091e+03 3.39407605e+00
v 6.49662926e+03 5.51193191e+03 4.57897520e+00
v 6.49622029e+03 5.51091301e+03 4.33053269e+00
v 6.49736300e+03 5.51008615e+03 9.02698127e+00
v 6.49541327e+03 5.50738902e+03 9.34556040e+00
v 6.49578135e+03 5.50482884e+03 9.36723145e+00
v 6.49794098e+03 5.50989946e+03 9.43689065e+00
v 6.49699154e+03 5.50952182e+03 9.35016693e+00
v 6.49825897e+03 5.50296260e+03 4.06231006e+00
v 6.49654091e+03 5.50106428e+03 3.59156079e+00
v 6.49712336e+03 5.50287062e+03 3.44543952e+00
v 6.49707963e+03 5.50275247e+03 4.38197536e+00
v 6.49671888e+03 5.50266233e+03 3.66665073e+00
v 6.49871080e+03 5.50136586e+03 4.31785843e+00
v 6.49907126e+03 5.50256455e+03 3.40844096e+00
v 6.50000000e+03 5.50117092e+03 4.02994998e+00
v 6.49711513e+03 5.51757741e+03 3.11452167e+00
v 6.49786323e+03 5.52709069e+03 3.30746856e+00
v 6.49849169e+03 5.52616911e+03 3.30813074e+00
v 6.49751343e+03 5.52222995e+03 3.10463361e+00
v 6.49722785e+03 5.52547322e+03 3.32582553e+00
v 6.49666381e+03 5.52628909e+03 2.82807122e+00
v 6.49666531e+03 5.52792958e+03 3.11550951e+00
v 6.49463802e+03 5.52326906e+03 3.06722639e+00
v 6.49692719e+03 5.53029472e+03 3.05972691e+00
v 6.50000000e+03 5.52897347e+03 3.13576277e+00
v 6.49914056e+03 5.50000000e+03 4.68820936e+00
v 6.49892943e+03 5.50034565e+03 4.79590010e+00
v 6.49846566e+03 5.50238211e+03 3.61782121e+00
v 6.49910915e+03 5.50290606e+03 3.62725295e+00
v 6.49834235e+03 5.50276294e+03 3.63692256e+00
v 6.49774848e+03 5.50196036e+03 3.56919644e+00
v 6.50000000e+03 5.50268120e+03 3.50706318e+00
v 6.49558463e+03 5.50266273e+03 6.04333520e+00
v 6.49563865e+03 5.50267475e+03 7.19858365e+00
v 6.49703788e+03 5.50277395e+03 5.92320050e+00
v 6.49612972e+03 5.50252588e+03 3.68643797e+00
v 6.49549569e+03 5.50133163e+03 3.68749857e+00
v 6.49870400e+03 5.50000000e+03 4.73111425e+00
v 6.49868793e+03 5.51397453e+03 3.28083022e+00
v 6.49697802e+03 5.51508408e+03 3.07165477e+00
v 6.50000000e+03 5.50194655e+03 3.64658293e+00
v 6.49748004e+03 5.51322445e+03 3.44703026e+00
v 6.49827115e+03 5.52898068e+03 3.34839516e+00
v 6.49580028e+03 5.51211649e+03 3.70817806e+00
v 6.49632395e+03 5.51050868e+03 4.12906391e+00
v 6.49519195e+03 5.51051210e+03 3.97974193e+00
v 6.49488411e+03 5.51385616e+03 3.19204223e+00
v 6.49582187e+03 5.50995568e+03 6.95724944e+00
v 6.49886692e+03 5.50297091e+03 7.55327909e+00
v 6.49842091e+03 5.50291903e+03 9.08781842e+00
v 6.49612301e+03 5.50270999e+03 9.03547913e+00
v 6.49717771e+03 5.50264441e+03 6.78369786e+00
v 6.49762434e+03 5.50307849e+03 9.30021392e+00
v 6.49571813e+03 5.50291599e+03 9.29740843e+00
v 6.49540797e+03 5.51591260e+03 2.83191410e+00
v 6.49584465e+03 5.50270606e+03 3.82255478e+00
v 6.49555651e+03 5.51037214e+03 4.05816648e+00
v 6.49551585e+03 5.51015799e+03 4.35625167e+00
v 6.49554599e+03 5.50233956e+03 3.59892898e+00
v 6.49149556e+03 5.50726924e+03 3.61274400e+00
v 6.48989334e+03 5.50727967e+03 3.63496795e+00
v 6.49298895e+03 5.51018701e+03 3.71902995e+00
v 6.49452798e+03 5.50983753e+03 3.81266831e+00
v 6.48999607e+03 5.50395919e+03 4.00783659e+00
v 6.49015528e+03 5.50445549e+03 3.88505950e+00
v 6.48891607e+03 5.50000000e+03 3.25697566e+00
v 6.49430100e+03 5.50925449e+03 5.35181709e+00
v 6.49309597e+03 5.50821110e+03 4.76404097e+00
v 6.49292492e+03 5.50808826e+03 6.37438352e+00
v 6.49067384e+03 5.50071388e+03 4.71371601e+00
v 6.48993090e+03 5.50556984e+03 3.73869807e+00
v 6.48953444e+03 5.50555320e+03 3.94459306e+00
v 6.49429989e+03 5.50944590e+03 5.93357059e+00
v 6.49445290e+03 5.50946070e+03 6.61282019e+00
v 6.49402436e+03 5.50872327e+03 8.07577242e+00
v 6.49418108e+03 5.50935250e+03 7.78707108e+00
v 6.49313119e+03 5.50335354e+03 7.55824211e+00
v 6.49235678e+03 5.50382453e+03 8.24971509e+00
v 6.49230925e+03 5.50425926e+03 7.35525908e+00
v 6.49141087e+03 5.50984674e+03 3.51239427e+00
v 6.49087621e+03 5.51001248e+03 3.53821680e+00
v 6.49116923e+03 5.51064243e+03 3.23845915e+00
v 6.49492198e+03 5.50292743e+03 5.94132125e+00
v 6.49531656e+03 5.50253751e+03 5.50987511e+00
v 6.49316344e+03 5.50429186e+03 6.28846659e+00
v 6.49375032e+03 5.50400768e+03 6.36768681e+00
v 6.49510689e+03 5.50221195e+03 3.77456933e+00
v 6.49363116e+03 5.51119438e+03 3.58174770e+00
v 6.47409551e+03 5.52565916e+03 3.20770197e+00
v 6.47367071e+03 5.52659250e+03 3.33594883e+00
v 6.47531970e+03 5.52673991e+03 3.43815963e+00
v 6.49387550e+03 5.51570523e+03 3.36714549e+00
v 6.49187667e+03 5.51594228e+03 2.89031687e+00
v 6.48506547e+03 5.52696951e+03 3.42904537e+00
v 6.48872513e+03 5.52674358e+03 3.40573854e+00
v 6.48774187e+03 5.52854893e+03 3.40880047e+00
v 6.47591658e+03 5.52922936e+03 3.14120460e+00
v 6.47490927e+03 5.52853739e+03 3.31563691e+00
v 6.48690365e+03 5.52554536e+03 3.24143270e+00
v 6.48845936e+03 5.52571736e+03 3.12903876e+00
v 6.47454387e+03 5.53115731e+03 5.80131431e+00
v 6.48960830e+03 5.50717445e+03 3.95324411e+00
v 6.48945655e+03 5.50835031e+03 3.95439650e+00
v 6.49232054e+03 5.50823543e+03 4.44892276e+00
v 6.49110656e+03 5.50805971e+03 3.35042558e+00
v 6.49510544e+03 5.50988066e+03 9.00454401e+00
v 6.49184073e+03 5.50621747e+03 4.87733356e+00
v 6.49188289e+03 5.50551254e+03 4.99626600e+00
v 6.49253675e+03 5.50796859e+03 7.98705656e+00
v 6.49350203e+03 5.50846185e+03 8.36825942e+00
v 6.49273215e+03 5.50851387e+03 9.12455714e+00
v 6.49391790e+03 5.50869881e+03 9.47627933e+00
v 6.49347020e+03 5.50291418e+03 6.71549217e+00
v 6.49235725e+03 5.50361960e+03 4.62638244e+00
v 6.49198001e+03 5.50320589e+03 4.04474684e+00
v 6.49184263e+03 5.50396782e+03 3.99987764e+00
v 6.49174448e+03 5.50266801e+03 4.47354910e+00
v 6.49238183e+03 5.50317446e+03 5.02057060e+00
v 6.49358983e+03 5.50402909e+03 5.39963061e+00
v 6.49224366e+03 5.50067725e+03 4.28963129e+00
v 6.49268296e+03 5.50218065e+03 7.72091078e+00
v 6.49275479e+03 5.50217729e+03 7.78995032e+00
v 6.46892282e+03 5.52559973e+03 3.30843211e+00
v 6.46956500e+03 5.52936073e+03 3.24442262e+00
v 6.47009345e+03 5.52815537e+03 3.31349443e+00
v 6.49382253e+03 5.52651788e+03 3.15130686e+00
v 6.49100701e+03 5.52521193e+03 3.22852373e+00
v 6.49504906e+03 5.52815061e+03 3.07790702e+00
v 6.47385713e+03 5.53025447e+03 3.61588436e+00
v 6.47293270e+03 5.52964551e+03 3.70832285e+00
v 6.47331466e+03 5.52788239e+03 3.16430774e+00
v 6.47405750e+03 5.53130416e+03 3.35920055e+00
v 6.47343233e+03 5.53062253e+03 3.37507722e+00
v 6.48245429e+03 5.52828760e+03 3.02113844e+00
v 6.48277610e+03 5.52703073e+03 3.26272146e+00
v 6.47454697e+03 5.52956507e+03 3.42899770e+00
v 6.48109649e+03 5.52674858e+03 3.27075727e+00
v 6.48157305e+03 5.52764510e+03 3.25018145e+00
v 6.47887829e+03 5.52857687e+03 3.09724946e+00
v 6.47721395e+03 5.52904455e+03 3.19517269e+00
v 6.48081126e+03 5.52969855e+03 3.06660090e+00
v 6.47600746e+03 5.53042283e+03 3.16319018e+00
v 6.47466634e+03 5.52418817e+03 3.37020759e+00
v 6.47095309e+03 5.52529125e+03 3.31422461e+00
v 6.47498734e+03 5.53010018e+03 3.69757962e+00
v 6.47844137e+03 5.52549667e+03 3.11404296e+00
v 6.47636966e+03 5.52592199e+03 3.44840637e+00
v 6.49201464e+03 5.52878435e+03 3.01812338e+00
v 6.49082537e+03 5.52880436e+03 3.45377982e+00
v 6.49130941e+03 5.52954201e+03 3.14557950e+00
v 6.49489964e+03 5.52564702e+03 3.01323227e+00
v 6.48331945e+03 5.52914326e+03 3.10431581e+00
v 6.48465592e+03 5.52846486e+03 3.07506901e+00
v 6.47296232e+03 5.52491961e+03 3.12917338e+00
v 6.47906572e+03 5.52737662e+03 3.22953598e+00
v 6.47726188e+03 5.52803427e+03 3.52081645e+00
v 6.47401371e+03 5.53108943e+03 8.17219625e+00
v 6.47480581e+03 5.53127773e+03 7.73778589e+00
v 6.47321620e+03 5.53121093e+03 7.84432718e+00
v 6.47316334e+03 5.53122431e+03 7.01496433e+00
v 6.47367412e+03 5.53099199e+03 5.70438751e+00
v 6.47372852e+03 5.53093007e+03 7.25878050e+00
v 6.47165600e+03 5.52114191e+03 3.17779864e+00
v 6.46928708e+03 5.52191529e+03 3.19094212e+00
v 6.46995296e+03 5.52482782e+03 3.18307426e+00
v 6.47256797e+03 5.53115117e+03 3.44299372e+00
v 6.47145065e+03 5.53048552e+03 3.43075955e+00
v 6.47257366e+03 5.53115862e+03 5.74084189e+00
v 6.47265999e+03 5.53125945e+03 6.46932151e+00
v 6.48067845e+03 5.52814015e+03 3.53753936e+00
v 6.47056633e+03 5.52936452e+03 3.75941234e+00
v 6.47197244e+03 5.52872273e+03 3.70667938e+00
v 6.49044964e+03 5.51672449e+03 2.92624159e+00
v 6.49088917e+03 5.51739162e+03 3.21485542e+00
v 6.47307421e+03 5.52876554e+03 3.73836877e+00
v 6.49022906e+03 5.51496079e+03 2.98549066e+00
v 6.48871765e+03 5.51562008e+03 2.87190024e+00
v 6.49463112e+03 5.51483529e+03 2.96593320e+00
v 6.49459866e+03 5.51211678e+03 4.42925276e+00
v 6.49415172e+03 5.50818536e+03 5.76506230e+00
v 6.49389002e+03 5.50816804e+03 6.82446014e+00
v 6.49404372e+03 5.51188280e+03 4.89602917e+00
v 6.48942967e+03 5.50580916e+03 4.28721425e+00
v 6.48918936e+03 5.51059094e+03 4.59007393e+00
v 6.48977259e+03 5.51061646e+03 3.76526505e+00
v 6.48950493e+03 5.51016688e+03 4.17587373e+00
v 6.49167399e+03 5.50569645e+03 4.15074931e+00
v 6.49203230e+03 5.50425933e+03 4.06815375e+00
v 6.49162027e+03 5.50528486e+03 5.68889139e+00
v 6.48966645e+03 5.50974349e+03 4.29545912e+00
v 6.48913827e+03 5.50882090e+03 5.25750902e+00
v 6.48955095e+03 5.50969512e+03 4.80278451e+00
v 6.48939187e+03 5.50691608e+03 4.95933726e+00
v 6.48914609e+03 5.50791550e+03 4.53163873e+00
v 6.48982670e+03 5.50521153e+03 3.61857747e+00
v 6.48962146e+03 5.50466704e+03 3.95367812e+00
v 6.48975593e+03 5.50610566e+03 3.85133568e+00
v 6.48974320e+03 5.50940600e+03 3.82843096e+00
v 6.48936339e+03 5.50919053e+03 3.97819576e+00
v 6.48912854e+03 5.50953848e+03 5.44720711e+00
v 6.49088821e+03 5.50528881e+03 3.99364231e+00
v 6.49352541e+03 5.50858288e+03 4.56533567e+00
v 6.49313567e+03 5.50854643e+03 3.78885946e+00
v 6.49195342e+03 5.50574853e+03 4.41263537e+00
v 6.49227991e+03 5.50705211e+03 4.25228008e+00
v 6.49157680e+03 5.50787347e+03 5.21527005e+00
v 6.49420223e+03 5.50936105e+03 4.71689995e+00
v 6.49392960e+03 5.50941110e+03 4.34576539e+00
v 6.49202602e+03 5.50791661e+03 4.36512477e+00
v 6.49396809e+03 5.52948863e+03 3.05544819e+00
v 6.49060138e+03 5.51914246e+03 2.97309094e+00
v 6.49080683e+03 5.51800813e+03 2.79266678e+00
v 6.47410084e+03 5.52879987e+03 3.40654406e+00
v 6.47705603e+03 5.52462248e+03 3.29755292e+00
v 6.48984572e+03 5.50859061e+03 3.44514376e+00
v 6.48904342e+03 5.50799189e+03 3.28530061e+00
v 6.48933123e+03 5.50669126e+03 3.51382759e+00
v 6.49047672e+03 5.50525806e+03 3.76807254e+00
v 6.49129840e+03 5.50627897e+03 3.59774556e+00
v 6.48901661e+03 5.51026211e+03 3.93914872e+00
v 6.49211639e+03 5.50538239e+03 4.25584648e+00
v 6.49014821e+03 5.50683334e+03 3.62924965e+00
v 6.49048167e+03 5.50470610e+03 4.54212875e+00
v 6.48889416e+03 5.50998305e+03 3.42214765e+00
v 6.48917357e+03 5.50844569e+03 3.73071756e+00
v 6.49181907e+03 5.50795877e+03 6.49797713e+00
v 6.48999061e+03 5.50989351e+03 3.92814311e+00
v 6.49225677e+03 5.50694340e+03 3.90350897e+00
v 6.48544868e+03 5.50492494e+03 4.24914866e+00
v 6.48617988e+03 5.50487289e+03 3.96688418e+00
v 6.48589218e+03 5.50545618e+03 4.87854898e+00
v 6.48626263e+03 5.50510945e+03 4.92330852e+00
v 6.49223619e+03 5.50455205e+03 4.25971070e+00
v 6.47581669e+03 5.50671994e+03 3.32987375e+00
v 6.47701031e+03 5.50597068e+03 3.38158748e+00
v 6.48569036e+03 5.50494173e+03 3.69850847e+00
v 6.48856998e+03 5.51051326e+03 3.18765923e+00
v 6.49036782e+03 5.51168860e+03 3.81584054e+00
v 6.49129971e+03 5.51121397e+03 3.36976660e+00
v 6.47581003e+03 5.50620580e+03 3.60979128e+00
v 6.48549794e+03 5.50454584e+03 4.43989219e+00
v 6.48605277e+03 5.50564997e+03 3.49291149e+00
v 6.48582194e+03 5.50554197e+03 5.61729025e+00
v 6.49215806e+03 5.50962562e+03 3.92603684e+00
v 6.49207920e+03 5.50911046e+03 3.75138374e+00
v 6.49073925e+03 5.50923004e+03 3.61199728e+00
v 6.49437921e+03 5.51062025e+03 3.92866991e+00
v 6.49439866e+03 5.51150985e+03 4.75917805e+00
v 6.49412873e+03 5.51161068e+03 4.11921439e+00
v 6.49476404e+03 5.51179756e+03 4.69002998e+00
v 6.49463947e+03 5.51275554e+03 3.65832801e+00
v 6.49148515e+03 5.51159455e+03 3.69839040e+00
v 6.49193587e+03 5.51160512e+03 3.39972596e+00
v 6.49303067e+03 5.51194345e+03 4.68609050e+00
v 6.49200811e+03 5.51174686e+03 3.89886568e+00
v 6.49249194e+03 5.51175790e+03 3.88718175e+00
v 6.49355682e+03 5.51171524e+03 3.76085890e+00
v 6.49273430e+03 5.51175849e+03 4.51214050e+00
v 6.49033671e+03 5.51082637e+03 3.46457940e+00
v 6.48926771e+03 5.51065048e+03 3.83930306e+00
v 6.49225315e+03 5.51179420e+03 3.58295392e+00
v 6.49204109e+03 5.51173888e+03 4.06240214e+00
v 6.49013040e+03 5.51105109e+03 3.97145944e+00
v 6.49061942e+03 5.51120547e+03 3.62143507e+00
v 6.49303419e+03 5.51490222e+03 3.04719968e+00
v 6.48896090e+03 5.51004236e+03 5.33413985e+00
v 6.49170910e+03 5.51182916e+03 3.68542186e+00
v 6.49320341e+03 5.51221807e+03 4.05814438e+00
v 6.49273888e+03 5.51267631e+03 3.43927732e+00
v 6.49182100e+03 5.50861921e+03 3.48787834e+00
v 6.49206988e+03 5.50804933e+03 3.94216525e+00
v 6.48955687e+03 5.50522434e+03 4.98880861e+00
v 6.49123721e+03 5.50643891e+03 6.21620609e+00
v 6.49126329e+03 5.50635033e+03 7.93280893e+00
v 6.49074610e+03 5.50584325e+03 7.35828701e+00
v 6.48964968e+03 5.50396613e+03 4.77732708e+00
v 6.49146374e+03 5.50697465e+03 5.94703087e+00
v 6.49161354e+03 5.50680737e+03 8.20492025e+00
v 6.49184349e+03 5.50444170e+03 5.87109971e+00
v 6.49185415e+03 5.50448043e+03 8.10149031e+00
v 6.49228934e+03 5.50425099e+03 6.09262066e+00
v 6.49118314e+03 5.50587628e+03 8.25703770e+00
v 6.49152383e+03 5.50494375e+03 6.76167396e+00
v 6.49165056e+03 5.50546855e+03 8.56990958e+00
v 6.49155937e+03 5.50614709e+03 8.63001932e+00
v 6.49163911e+03 5.50465507e+03 9.25626499e+00
v 6.49154491e+03 5.50772388e+03 6.09223255e+00
v 6.49164094e+03 5.50780267e+03 8.54390088e+00
v 6.49182258e+03 5.50785493e+03 7.40727491e+00
v 6.49265224e+03 5.50757122e+03 7.16301315e+00
v 6.49152035e+03 5.50813104e+03 9.09392163e+00
v 6.49496030e+03 5.50975733e+03 7.30214052e+00
v 6.49129046e+03 5.50503468e+03 4.06691332e+00
v 6.49197125e+03 5.50435576e+03 4.92810397e+00
v 6.48549453e+03 5.50539034e+03 5.17939607e+00
v 6.48545703e+03 5.50441266e+03 5.97835394e+00
v 6.48591993e+03 5.50468369e+03 6.03839975e+00
v 6.48542452e+03 5.50530069e+03 5.86674648e+00
v 6.47796480e+03 5.52259810e+03 3.18003861e+00
v 6.47773527e+03 5.52039089e+03 3.11580349e+00
v 6.47268611e+03 5.52275847e+03 3.32378558e+00
v 6.47013089e+03 5.51819061e+03 3.17234707e+00
v 6.47977158e+03 5.52397218e+03 3.28502977e+00
v 6.49461600e+03 5.51101347e+03 4.49544208e+00
v 6.49460231e+03 5.50950546e+03 8.51457774e+00
v 6.49340926e+03 5.50908835e+03 4.27220756e+00
v 6.49454800e+03 5.50863232e+03 6.95934757e+00
v 6.49440436e+03 5.50919241e+03 7.19763409e+00
v 6.49446905e+03 5.50834338e+03 6.30605848e+00
v 6.49395902e+03 5.50829332e+03 7.50308652e+00
v 6.49094050e+03 5.50591313e+03 6.18075370e+00
v 6.48929926e+03 5.50541737e+03 4.94983654e+00
v 6.49451648e+03 5.50733771e+03 9.60382945e+00
v 6.49448947e+03 5.50843492e+03 9.65351437e+00
v 6.49472877e+03 5.50958286e+03 9.31805785e+00
v 6.49496669e+03 5.50871848e+03 9.46840350e+00
v 6.49330639e+03 5.50179729e+03 7.53950521e+00
v 6.49434373e+03 5.50187174e+03 7.65439090e+00
v 6.49253790e+03 5.50244064e+03 7.77729894e+00
v 6.49246565e+03 5.50235125e+03 8.34768283e+00
v 6.49504206e+03 5.50216426e+03 8.01886451e+00
v 6.49501719e+03 5.50269377e+03 8.65758712e+00
v 6.49268338e+03 5.50225385e+03 7.66562557e+00
v 6.49235113e+03 5.50224587e+03 8.01071477e+00
v 6.49502572e+03 5.50206616e+03 7.27944114e+00
v 6.49550052e+03 5.50259321e+03 8.16214080e+00
v 6.49337878e+03 5.50225027e+03 8.27036054e+00
v 6.49279769e+03 5.50194744e+03 7.63851164e+00
v 6.49209161e+03 5.50372451e+03 8.64708114e+00
v 6.49217745e+03 5.50312405e+03 8.71656088e+00
v 6.49356329e+03 5.50274860e+03 8.58050020e+00
v 6.49457360e+03 5.50361121e+03 8.93704970e+00
v 6.49198744e+03 5.50560633e+03 9.56440625e+00
v 6.49339239e+03 5.50373867e+03 8.79663164e+00
v 6.49275656e+03 5.50432418e+03 8.88183582e+00
v 6.49205534e+03 5.50425378e+03 9.06071817e+00
v 6.49161464e+03 5.50621024e+03 9.21797407e+00
v 6.49423664e+03 5.50596845e+03 9.66960804e+00
v 6.49154785e+03 5.50543928e+03 9.19284043e+00
v 6.49213638e+03 5.50614873e+03 9.49083491e+00
v 6.49134011e+03 5.50685742e+03 9.15365630e+00
v 6.49159137e+03 5.50780223e+03 9.49725475e+00
v 6.49247447e+03 5.50704111e+03 9.41925692e+00
v 6.49205239e+03 5.50822390e+03 9.36083091e+00
v 6.49265389e+03 5.50835856e+03 9.51793579e+00
v 6.49150903e+03 5.50732447e+03 9.18650514e+00
v 6.49442827e+03 5.50895157e+03 9.19372109e+00
v 6.49397626e+03 5.50352924e+03 5.34905443e+00
v 6.49296971e+03 5.50358508e+03 5.09209503e+00
v 6.49319669e+03 5.50295896e+03 5.48779175e+00
v 6.49259392e+03 5.50276361e+03 5.74409975e+00
v 6.49201816e+03 5.50263848e+03 5.46206436e+00
v 6.49433063e+03 5.50272329e+03 6.46035868e+00
v 6.49373698e+03 5.50301493e+03 5.62506992e+00
v 6.49518932e+03 5.50258872e+03 6.59880149e+00
v 6.49447111e+03 5.50204900e+03 7.09362232e+00
v 6.49376395e+03 5.50239376e+03 5.37674905e+00
v 6.49488166e+03 5.50223287e+03 5.58824402e+00
v 6.49378243e+03 5.50178584e+03 5.28899931e+00
v 6.49480534e+03 5.50172517e+03 5.35096403e+00
v 6.49439493e+03 5.50171850e+03 4.63572922e+00
v 6.49296372e+03 5.50199894e+03 5.56526292e+00
v 6.49548695e+03 5.50253628e+03 4.87837648e+00
v 6.49137050e+03 5.50065572e+03 4.44064142e+00
v 6.49290680e+03 5.50412993e+03 4.98127779e+00
v 6.49210401e+03 5.50433026e+03 4.64980946e+00
v 6.49272102e+03 5.50152370e+03 4.82308440e+00
v 6.49007587e+03 5.50024227e+03 5.30909393e+00
v 6.48984474e+03 5.50113289e+03 5.03345119e+00
v 6.49009868e+03 5.50092113e+03 4.47998569e+00
v 6.48977603e+03 5.50196084e+03 4.02620779e+00
v 6.49032643e+03 5.50279435e+03 4.54015285e+00
v 6.49037040e+03 5.50260862e+03 3.83313109e+00
v 6.49391061e+03 5.50350417e+03 6.18180513e+00
v 6.48974022e+03 5.50294416e+03 5.09090019e+00
v 6.48996218e+03 5.50355788e+03 4.89359851e+00
v 6.49078447e+03 5.50303411e+03 4.80726694e+00
v 6.49022990e+03 5.50316662e+03 4.90591120e+00
v 6.49089840e+03 5.50258077e+03 4.70932386e+00
v 6.48937872e+03 5.50490024e+03 5.25570988e+00
v 6.49244461e+03 5.50209355e+03 5.36706871e+00
v 6.49150982e+03 5.50262920e+03 4.02633311e+00
v 6.49142031e+03 5.50269580e+03 4.27163672e+00
v 6.49379105e+03 5.50252344e+03 6.78939093e+00
v 6.48983799e+03 5.50198208e+03 5.01904954e+00
v 6.49002391e+03 5.50248963e+03 3.83934546e+00
v 6.48578351e+03 5.50423805e+03 5.88406788e+00
v 6.48527995e+03 5.50490062e+03 5.32552983e+00
v 6.48610143e+03 5.50435647e+03 5.34731550e+00
v 6.48633977e+03 5.50470455e+03 5.48999985e+00
v 6.48945283e+03 5.50404873e+03 4.84477043e+00
v 6.48600259e+03 5.50457807e+03 4.49210830e+00
v 6.49066778e+03 5.50343601e+03 4.65468558e+00
v 6.49132884e+03 5.50348311e+03 4.20215140e+00
v 6.48985902e+03 5.50376026e+03 4.26104662e+00
v 6.49506258e+03 5.50083610e+03 4.02339268e+00
v 6.49376559e+03 5.50092576e+03 3.87504621e+00
v 6.49505324e+03 5.50235929e+03 4.04141593e+00
v 6.49037649e+03 5.50213616e+03 3.73715020e+00
v 6.49298723e+03 5.50140772e+03 4.27315532e+00
v 6.49440184e+03 5.50165721e+03 4.27622000e+00
v 6.49466816e+03 5.50124322e+03 4.04027282e+00
v 6.49217062e+03 5.50108427e+03 4.22527317e+00
v 6.49103552e+03 5.50241187e+03 3.93160315e+00
v 6.48963130e+03 5.50318259e+03 3.50153238e+00
v 6.48948163e+03 5.50165206e+03 3.23210820e+00
v 6.48910962e+03 5.50478725e+03 3.24457203e+00
v 6.49024036e+03 5.50416830e+03 4.75820350e+00
v 6.49082661e+03 5.50422476e+03 4.62805489e+00
v 6.49258693e+03 5.50147170e+03 4.30477121e+00
v 6.48555827e+03 5.50447154e+03 3.79991690e+00
v 6.48617660e+03 5.50466784e+03 3.67415854e+00
v 6.49291855e+03 5.50952882e+03 4.17645027e+00
v 6.49209627e+03 5.50205593e+03 3.88716683e+00
v 6.49121646e+03 5.50181225e+03 4.07581030e+00
v 6.49271720e+03 5.50201114e+03 4.14267339e+00
v 6.49030622e+03 5.50105780e+03 4.18659811e+00
v 6.48539360e+03 5.50462939e+03 3.71492111e+00
v 6.49019281e+03 5.50404127e+03 3.99149477e+00
v 6.48912413e+03 5.50489237e+03 4.58458072e+00
v 6.48926317e+03 5.50485722e+03 3.74783454e+00
v 6.46886322e+03 5.52085413e+03 3.04770857e+00
v 6.47421077e+03 5.52212607e+03 3.11436212e+00
v 6.47134562e+03 5.51284096e+03 3.15201889e+00
v 6.47281438e+03 5.51167223e+03 3.44841149e+00
v 6.47262222e+03 5.51033042e+03 3.15250251e+00
v 6.47357083e+03 5.51164374e+03 3.35169116e+00
v 6.48023033e+03 5.51271714e+03 3.10434197e+00
v 6.47684598e+03 5.51065352e+03 3.07808311e+00
v 6.47896583e+03 5.51487944e+03 2.98372092e+00
v 6.47895843e+03 5.51412803e+03 3.11567108e+00
v 6.47780078e+03 5.51605441e+03 3.00691585e+00
v 6.47334671e+03 5.51301007e+03 3.38591926e+00
v 6.47391856e+03 5.51311585e+03 3.43402090e+00
v 6.47410658e+03 5.51187234e+03 3.45427394e+00
v 6.47372413e+03 5.51383508e+03 2.99114264e+00
v 6.47263335e+03 5.51309241e+03 3.52829410e+00
v 6.47784980e+03 5.50789796e+03 3.33632515e+00
v 6.47646778e+03 5.50552676e+03 3.76207482e+00
v 6.47676557e+03 5.50415718e+03 3.22676360e+00
v 6.48628584e+03 5.50423133e+03 3.32432170e+00
v 6.48535932e+03 5.50432696e+03 3.44272822e+00
v 6.48525397e+03 5.50481960e+03 3.33397591e+00
v 6.47548851e+03 5.50609934e+03 3.35467913e+00
v 6.47610524e+03 5.50590253e+03 3.77414425e+00
v 6.48933316e+03 5.50563817e+03 3.58170535e+00
v 6.48650007e+03 5.50509332e+03 3.58215667e+00
v 6.47002022e+03 5.51112919e+03 3.16003302e+00
v 6.47085003e+03 5.50000000e+03 3.14057618e+00
v 6.47293905e+03 5.50619731e+03 3.25682736e+00
v 6.47579982e+03 5.51225018e+03 3.33661994e+00
v 6.47471280e+03 5.51157249e+03 3.79278027e+00
v 6.48624312e+03 5.50668474e+03 3.26436132e+00
v 6.48884212e+03 5.50702969e+03 3.30171800e+00
v 6.48124240e+03 5.52492326e+03 3.33439164e+00
v 6.48403505e+03 5.52530026e+03 3.15277150e+00
v 6.49206260e+03 5.52655119e+03 3.40390648e+00
v 6.47227993e+03 5.52764727e+03 3.30809189e+00
v 6.48925446e+03 5.51278103e+03 3.04584888e+00
v 6.48831141e+03 5.50579002e+03 3.35209698e+00
v 6.49022055e+03 5.50382477e+03 4.44222300e+00
v 6.48730871e+03 5.50482209e+03 3.23390692e+00
v 6.49105100e+03 5.51400741e+03 3.00187615e+00
v 6.49004380e+03 5.51316127e+03 3.15101084e+00
v 6.49147107e+03 5.51235646e+03 3.53972951e+00
v 6.48793166e+03 5.52265723e+03 3.01417212e+00
v 6.48938368e+03 5.52128176e+03 3.34263195e+00
v 6.47239543e+03 5.51415508e+03 3.04246012e+00
v 6.48104551e+03 5.50877307e+03 3.28043605e+00
v 6.48356495e+03 5.50902933e+03 3.28695059e+00
v 6.48184611e+03 5.52205127e+03 3.11873972e+00
v 6.48003827e+03 5.51391669e+03 3.32797163e+00
v 6.48002684e+03 5.50520556e+03 3.21925888e+00
v 6.48373882e+03 5.50567036e+03 3.27203351e+00
v 6.47585958e+03 5.50624314e+03 4.25568236e+00
v 6.46913745e+03 5.51411182e+03 2.97705995e+00
v 6.47466695e+03 5.51302689e+03 3.21230317e+00
v 6.47484120e+03 5.51047359e+03 3.26312537e+00
v 6.48103880e+03 5.51425780e+03 3.04569038e+00
v 6.48790006e+03 5.52425484e+03 3.22468673e+00
v 6.47400858e+03 5.51656501e+03 3.17245587e+00
v 6.47546891e+03 5.50538562e+03 3.52125498e+00
v 6.48543623e+03 5.52319934e+03 3.18525854e+00
v 6.48558352e+03 5.50935407e+03 3.23930163e+00
v 6.48982772e+03 5.51793422e+03 2.93333550e+00
v 6.49404752e+03 5.51716048e+03 2.98353805e+00
v 6.49338788e+03 5.52094415e+03 3.22691854e+00
v 6.48410322e+03 5.50311629e+03 3.27474122e+00
v 6.48587136e+03 5.50315895e+03 3.22583190e+00
v 6.47501390e+03 5.51236931e+03 3.66047593e+00
v 6.48017112e+03 5.50000000e+03 3.19799573e+00
v 6.48988590e+03 5.52331486e+03 3.19858588e+00
v 6.48979510e+03 5.50048387e+03 3.38199565e+00
v 6.49001415e+03 5.52943707e+03 3.08925321e+00
v 6.48931648e+03 5.51726168e+03 2.77825955e+00
v 6.48785774e+03 5.51266783e+03 3.11543386e+00
v 6.48455229e+03 5.51108432e+03 3.04762112e+00
v 6.48927571e+03 5.51412696e+03 3.25301245e+00
v 6.48806668e+03 5.51483743e+03 3.21411470e+00
v 6.49120978e+03 5.52706422e+03 3.37995416e+00
v 6.48653542e+03 5.52064519e+03 3.09406726e+00
v 6.48754782e+03 5.51852150e+03 3.08880409e+00
v 6.47807220e+03 5.51262352e+03 3.08321634e+00
v 6.48301104e+03 5.51546491e+03 3.19172415e+00
v 6.48090019e+03 5.51658289e+03 2.95934474e+00
v 6.47385580e+03 5.50441591e+03 3.29780755e+00
v 6.47576028e+03 5.51493944e+03 3.03603351e+00
v 6.49203640e+03 5.51792208e+03 2.96308680e+00
v 6.47544826e+03 5.51300756e+03 3.11311200e+00
v 6.48742155e+03 5.52995047e+03 3.08075371e+00
v 6.48668054e+03 5.51488556e+03 2.96719102e+00
v 6.48550300e+03 5.51695086e+03 2.99003118e+00
v 6.48314750e+03 5.51367226e+03 3.07023503e+00
v 6.48629998e+03 5.51420077e+03 3.13423108e+00
v 6.48714136e+03 5.51604601e+03 3.04801289e+00
v 6.48890337e+03 5.52882621e+03 2.98871338e+00
v 6.48922674e+03 5.52780378e+03 3.34920855e+00
v 6.49128577e+03 5.52050207e+03 2.87332487e+00
v 6.48166101e+03 5.51930449e+03 3.16514729e+00
v 6.47555860e+03 5.52120215e+03 3.12650625e+00
v 6.48215247e+03 5.51466492e+03 2.92246087e+00
v 6.48452560e+03 5.52108948e+03 3.13461646e+00
v 6.48072602e+03 5.52590831e+03 3.13212438e+00
v 6.47958885e+03 5.51066724e+03 3.16024464e+00
v 6.46881109e+03 5.50000000e+03 3.15007265e+00
v 6.48265281e+03 5.51843359e+03 3.27110652e+00
v 6.48358937e+03 5.52008494e+03 3.02055342e+00
v 6.49110846e+03 5.52196012e+03 2.97076184e+00
v 6.46862500e+03 5.52103101e+03 3.10274363e+00
v 6.46862500e+03 5.52191835e+03 3.25827547e+00
v 6.46862500e+03 5.52250650e+03 3.20520902e+00
v 6.46862500e+03 5.53071436e+03 3.21626700e+00
v 6.46862500e+03 5.50396451e+03 3.20497709e+00
v 6.46862500e+03 5.50643368e+03 3.24896539e+00
v 6.46862500e+03 5.50074995e+03 3.16116149e+00
v 6.46862500e+03 5.50856461e+03 3.16088102e+00
v 6.46862500e+03 5.50910944e+03 3.15566562e+00
v 6.46862500e+03 5.52979751e+03 3.23634797e+00
v 6.46862500e+03 5.52045441e+03 3.05625949e+00
v 6.46862500e+03 5.51821952e+03 3.13563219e+00
v 6.46862500e+03 5.51152630e+03 3.20847386e+00
v 6.46862500e+03 5.50000000e+03 3.14578215e+00
v 6.46862500e+03 5.50012422e+03 3.14945613e+00
v 6.46862500e+03 5.51458338e+03 2.98518365e+00
v 6.46862500e+03 5.51526963e+03 3.01248852e+00
v 6.46862500e+03 5.52078572e+03 3.04571968e+00
v 6.46862500e+03 5.52089474e+03 3.06190504e+00
v 6.46862500e+03 5.51381052e+03 3.02982402e+00
v 6.46862500e+03 5.52459949e+03 3.20907679e+00
v 6.46862500e+03 5.52542364e+03 3.30042234e+00
v 6.46862500e+03 5.52895681e+03 3.25598423e+00
v 6.46862500e+03 5.52557318e+03 3.32354236e+00
v 6.46862500e+03 5.52568253e+03 3.30870160e+00
v 6.46862500e+03 5.51409703e+03 2.98851606e+00
v 6.47362759e+03 5.53137500e+03 8.16082790e+00
v 6.47321399e+03 5.53137500e+03 7.94983851e+00
v 6.49073780e+03 5.53137500e+03 3.05410707e+00
v 6.48874394e+03 5.53137500e+03 3.05261570e+00
v 6.47147401e+03 5.53137500e+03 3.51433716e+00
v 6.47224496e+03 5.53137500e+03 3.47907014e+00
v 6.46953679e+03 5.53137500e+03 3.20035047e+00
v 6.47378547e+03 5.53137500e+03 3.43429325e+00
v 6.47407962e+03 5.53137500e+03 3.35588972e+00
v 6.47031991e+03 5.53137500e+03 3.19910750e+00
v 6.47717692e+03 5.53137500e+03 3.08198672e+00
v 6.47631951e+03 5.53137500e+03 3.10583496e+00
v 6.48529372e+03 5.53137500e+03 3.06157983e+00
v 6.48262924e+03 5.53137500e+03 3.06795377e+00
v 6.48689902e+03 5.53137500e+03 3.06148933e+00
v 6.49286827e+03 5.53137500e+03 3.07928558e+00
v 6.49403977e+03 5.53137500e+03 3.03940121e+00
v 6.49235376e+03 5.53137500e+03 3.05363615e+00
v 6.47521900e+03 5.53137500e+03 3.33878162e+00
v 6.49571396e+03 5.53137500e+03 3.04576756e+00
v 6.47308986e+03 5.53137500e+03 7.07661903e+00
v 6.47266624e+03 5.53137500e+03 6.58869200e+00
v 6.47491513e+03 5.53137500e+03 5.84773395e+00
v 6.47453740e+03 5.53137500e+03 5.41885403e+00
v 6.47100345e+03 5.53137500e+03 3.29791583e+00
v 6.47256569e+03 5.53137500e+03 3.43381439e+00
v 6.47274033e+03 5.53137500e+03 3.55806333e+00
v 6.47409645e+03 5.53137500e+03 8.20984987e+00
v 6.47312815e+03 5.53137500e+03 7.76667507e+00
v 6.47476168e+03 5.53137500e+03 7.84937540e+00
v 6.47438255e+03 5.53137500e+03 8.13038554e+00
v 6.47493265e+03 5.53137500e+03 7.70644222e+00
v 6.47357677e+03 5.53137500e+03 5.07769643e+00
v 6.47404863e+03 5.53137500e+03 5.20237946e+00
v 6.47496035e+03 5.53137500e+03 7.37522279e+00
v 6.47254202e+03 5.53137500e+03 6.53221616e+00
v 6.47245208e+03 5.53137500e+03 6.37974750e+00
v 6.47228165e+03 5.53137500e+03 5.86629660e+00
v 6.47268052e+03 5.53137500e+03 4.99003059e+00
v 6.47297472e+03 5.53137500e+03 4.83714186e+00
v 6.48819236e+03 5.53137500e+03 3.09416049e+00
v 6.48129047e+03 5.53137500e+03 3.05152753e+00
v 6.47494429e+03 5.53137500e+03 3.34632015e+00
v 6.49987326e+03 5.53137500e+03 3.02700024e+00
v 6.50000000e+03 5.53137500e+03 3.02768384e+00
v 6.49772750e+03 5.53137500e+03 3.03863243e+00
v 6.46862500e+03 5.53137500e+03 3.19815817e+00
vt 0.0020528259 0.72185218
vt 0.010859495 0.74536192
vt 0.0020551211 0.74544805
vt 0.005220165 0.71714723
vt 0.0020581749 0.76109016
vt 0.0020526398 0.71822894
vt 0.022063993 0.64629972
vt 0.01972645 0.82281291
vt 0.002052329 0.71533
vt 0.0020507989 0.70651877
vt 0.042356253 0.7247743
vt 0.0020671505 0.81675172
vt 0.0020403953 0.64708221
vt 0.073619217 0.60303456
vt 0.0060305796 0.84334826
vt 0.056059286 0.7677542
vt 0.0088383136 0.53783906
vt 0.094250463 0.72634345
vt 0.0020698034 0.83866799
vt 0.033026025 0.83512688
vt 0.0020288997 0.56863403
vt 0.052159756 0.53896022
vt 0.1231906 0.70475006
vt 0.0020702207 0.84264457
vt 0.021607637 0.91130358
vt 0.076332189 0.75092626
vt 0.059743263 0.82522905
vt 0.0020262124 0.55038399
vt 0.038193583 0.50401944
vt 0.069826804 0.53043938
vt 0.12625146 0.76344621
vt 0.17538653 0.67582315
vt 0.0020708372 0.84555292
vt 0.069168083 0.86970901
vt 0.014586587 0.94336486
vt 0.082396358 0.80575836
vt 0.074813962 0.84488571
vt 0.002024085 0.53744984
vt 0.020562081 0.45850724
vt 0.055314012 0.51068902
vt 0.096906155 0.55979085
vt 0.064800769 0.50849569
vt 0.1778601 0.74887115
vt 0.12404405 0.58942544
vt 0.0020854552 0.93263102
vt 0.050679412 0.89777231
vt 0.027896419 0.94344866
vt 0.0020224459 0.52982962
vt 0.0020108558 0.46907949
vt 0.055157892 0.43724227
vt 0.057715956 0.47292036
vt 0.082357928 0.50893438
vt 0.072404779 0.51130307
vt 0.15028146 0.79997146
vt 0.16526003 0.60345423
vt 0.20103297 0.6965645
vt 0.064440839 0.90401852
vt 0.046591435 0.92636937
vt 0.0020892685 0.95498914
vt 0.039663423 0.9732585
vt 0.11417504 0.81728894
vt 0.091094561 0.87361318
vt 0.0020009654 0.40480566
vt 0.059351929 0.32732069
vt 0.092748046 0.50841522
vt 0.097417288 0.48826647
vt 0.074899264 0.47823077
vt 0.16984273 0.82525128
vt 0.19332133 0.57370031
vt 0.13953109 0.55816829
vt 0.18856992 0.65265191
vt 0.21348535 0.7232697
vt 0.085645869 0.92142141
vt 0.0020934141 0.97937244
vt 0.024633897 0.99692726
vt 0.001998568 0.39031619
vt 0.097617976 0.3411935
vt 0.067775413 0.4721576
vt 0.086964168 0.49143618
vt 0.13942805 0.53818309
vt 0.20698045 0.83525628
vt 0.1326016 0.84052867
vt 0.18190399 0.55243695
vt 0.16709231 0.54161727
vt 0.2264656 0.61319971
vt 0.22560284 0.77937108
vt 0.074896358 0.92840737
vt 0.061241735 0.92749786
vt 0.014220612 0.99693394
vt 0.059364069 0.95090181
vt 0.033722077 0.99691969
vt 0.10505244 0.85185188
vt 0.099044964 0.93981814
vt 0.0019885264 0.33364403
vt 0.084663518 0.44102883
vt 0.093251213 0.32469165
vt 0.12763762 0.49817991
vt 0.19024633 0.88128591
vt 0.16298254 0.85145569
vt 0.19512926 0.52602673
vt 0.15378398 0.53254974
vt 0.2402087 0.71143746
vt 0.080831654 0.94875324
vt 0.0020964369 0.99694186
vt 0.066015244 0.97688621
vt 0.039976999 0.99691206
vt 0.11692474 0.90801781
vt 0.11629494 0.93489122
vt 0.086687028 0.96297592
vt 0.0019783245 0.26797885
vt 0.12465745 0.37250459
vt 0.097524464 0.32751578
vt 0.092985779 0.30570805
vt 0.082955703 0.47024572
vt 0.11132398 0.44579965
vt 0.15633479 0.50065053
vt 0.22068654 0.87963533
vt 0.1679111 0.87379682
vt 0.14091064 0.89051723
vt 0.23704994 0.54005396
vt 0.2587842 0.76493531
vt 0.25366172 0.65495056
vt 0.071659975 0.96709013
vt 0.054523252 0.99095124
vt 0.10025834 0.97155643
vt 0.031548388 0.1625275
vt 0.11348588 0.3212564
vt 0.10144689 0.31944525
vt 0.07153406 0.27993709
vt 0.24512485 0.84174836
vt 0.174252 0.89763534
vt 0.19748208 0.93746513
vt 0.24211492 0.55826485
vt 0.25775728 0.4992733
vt 0.27808288 0.72833776
vt 0.25836888 0.80741948
vt 0.27717748 0.62143648
vt 0.074331261 0.99500841
vt 0.050228771 0.99690604
vt 0.13842483 0.92244095
vt 0.16413306 0.95225501
vt 0.0044362228 0.16254491
vt 0.056303859 0.16251034
vt 0.14779557 0.44613957
vt 0.15359542 0.30088526
vt 0.11022528 0.27303231
vt 0.10626616 0.30944908
vt 0.26934883 0.87359583
vt 0.16235569 0.91080391
vt 0.18597493 0.91471833
vt 0.21525066 0.91941255
vt 0.2482467 0.58912086
vt 0.16715561 0.39575082
vt 0.21379806 0.45719057
vt 0.28477105 0.78240466
vt 0.28397682 0.63931519
vt 0.070713691 0.99689347
vt 0.054494008 0.99690402
vt 0.11581367 0.99687004
vt 0.089776479 0.99688268
vt 0.0019649109 0.18249077
vt 0.26581311 0.84631109
vt 0.25628206 0.9216162
vt 0.25203192 0.95889723
vt 0.26054394 0.55696893
vt 0.26920676 0.57778287
vt 0.22750117 0.41116369
vt 0.30102408 0.74636972
vt 0.29968652 0.83284593
vt 0.29808611 0.62487125
vt 0.2942692 0.67144036
vt 0.056815062 0.99690044
vt 0.074625768 0.99689221
vt 0.10441237 0.99687701
vt 0.17051244 0.99683505
vt 0.086123452 0.99688494
vt 0.0019623307 0.16584992
vt 0.20065808 0.4025442
vt 0.15549177 0.16244614
vt 0.11376543 0.16247272
vt 0.27602395 0.90178776
vt 0.22374417 0.99680036
vt 0.18831411 0.99682325
vt 0.2766172 0.53806329
vt 0.26721802 0.44196665
vt 0.29224145 0.60713822
vt 0.29699793 0.64127475
vt 0.0019618319 0.16254658
vt 0.20295572 0.31321335
vt 0.20779023 0.24528635
vt 0.30238923 0.88210207
vt 0.27173197 0.92898726
vt 0.2450902 0.99678653
vt 0.27633083 0.50227284
vt 0.23626018 0.3401686
vt 0.27350169 0.37490696
vt 0.34796184 0.78114784
vt 0.3033765 0.70759374
vt 0.31121385 0.58632398
vt 0.31334567 0.63897282
vt 0.27177414 0.16236973
vt 0.31372693 0.86845046
vt 0.28650379 0.94522136
vt 0.29728445 0.92838198
vt 0.26228759 0.99677479
vt 0.28682745 0.51237649
vt 0.28930023 0.56023473
vt 0.29112318 0.473198
vt 0.33713132 0.86755353
vt 0.33132693 0.71932679
vt 0.22309862 0.29057395
vt 0.2313021 0.2464065
vt 0.3131026 0.92784661
vt 0.29613507 0.99675351
vt 0.26962236 0.99677074
vt 0.30022544 0.53487295
vt 0.27082062 0.34931946
vt 0.28796193 0.4562434
vt 0.35145134 0.8443867
vt 0.3861917 0.75348806
vt 0.32659966 0.5586518
vt 0.34008434 0.6187011
vt 0.23372246 0.31264746
vt 0.23681711 0.27492052
vt 0.30372709 0.94800007
vt 0.31762263 0.99673957
vt 0.30579874 0.49095458
vt 0.27732092 0.34031123
vt 0.26375782 0.31635481
vt 0.29446846 0.46035057
vt 0.3824062 0.83973932
vt 0.37491444 0.8614499
vt 0.40806547 0.80952609
vt 0.38087532 0.62976038
vt 0.33778694 0.57999468
vt 0.22889838 0.29381204
vt 0.23966703 0.29783851
vt 0.27436846 0.28968173
vt 0.2244963 0.27746981
vt 0.3390806 0.94655901
vt 0.32446402 0.99673474
vt 0.32265946 0.49945128
vt 0.30598113 0.4706893
vt 0.35119238 0.53081423
vt 0.25042176 0.29062408
vt 0.30351698 0.4605751
vt 0.35344842 0.91096556
vt 0.40716279 0.76000309
vt 0.41924977 0.71289265
vt 0.34783471 0.55685937
vt 0.35817057 0.58550513
vt 0.22495079 0.2855078
vt 0.23540458 0.29197276
vt 0.27930188 0.20630056
vt 0.31619534 0.47599411
vt 0.3089602 0.4769268
vt 0.29070917 0.45027387
vt 0.39921474 0.85823542
vt 0.39086205 0.8827498
vt 0.37493852 0.90507281
vt 0.41925296 0.73007548
vt 0.41925961 0.77381563
vt 0.41924316 0.66864991
vt 0.37904185 0.56345379
vt 0.28346351 0.17522818
vt 0.37843159 0.96797073
vt 0.340042 0.99672526
vt 0.3479301 0.50153828
vt 0.32882828 0.48725051
vt 0.31197739 0.47097141
vt 0.3017807 0.44537866
vt 0.41926923 0.83365619
vt 0.41925892 0.76656425
vt 0.41926399 0.8068341
vt 0.41924098 0.65410209
vt 0.39481661 0.59211981
vt 0.28669032 0.16235542
vt 0.36336231 0.48453248
vt 0.31936753 0.4750216
vt 0.29787871 0.42862314
vt 0.41928476 0.93280518
vt 0.41927007 0.83907616
vt 0.39629394 0.93300837
vt 0.41923597 0.61742103
vt 0.40177196 0.53392804
vt 0.41923571 0.61454421
vt 0.38570556 0.51398778
vt 0.36230385 0.99671072
vt 0.33451638 0.46003026
vt 0.28609842 0.42546022
vt 0.30498776 0.42421103
vt 0.41715521 0.86154979
vt 0.41921932 0.54031438
vt 0.4192352 0.6117295
vt 0.38907829 0.99669349
vt 0.37407836 0.48502356
vt 0.32597119 0.43324339
vt 0.29605347 0.40781468
vt 0.31491834 0.41831732
vt 0.4192791 0.89977825
vt 0.41927254 0.84892452
vt 0.41761088 0.99667519
vt 0.41922444 0.56078655
vt 0.40512013 0.49165833
vt 0.38540399 0.49280727
vt 0.34643349 0.42393434
vt 0.2828075 0.41249913
vt 0.31386921 0.40462065
vt 0.30093521 0.37669176
vt 0.41927698 0.8762911
vt 0.41927487 0.85990232
vt 0.41929615 0.99667406
vt 0.41921234 0.50282919
vt 0.32502773 0.41573238
vt 0.34445751 0.44474965
vt 0.28417099 0.39081991
vt 0.31043625 0.39156258
vt 0.41927537 0.86242104
vt 0.33846968 0.41259003
vt 0.35526362 0.44186568
vt 0.32791436 0.38961083
vt 0.28479671 0.35595274
vt 0.3061018 0.35566193
vt 0.33155 0.40401244
vt 0.35956535 0.43243915
vt 0.34760228 0.45519567
vt 0.31373882 0.37639761
vt 0.36010996 0.4381389
vt 0.368936 0.45251292
vt 0.28818381 0.34408087
vt 0.31621951 0.34698504
vt 0.37031454 0.44176233
vt 0.34471184 0.46839404
vt 0.30347607 0.3293283
vt 0.37338576 0.46463531
vt 0.38098842 0.44437474
vt 0.28296232 0.32472849
vt 0.31217563 0.31520253
vt 0.37437606 0.47960222
vt 0.29254395 0.3021822
vt 0.30846232 0.31382424
vt 0.39070398 0.45479143
vt 0.3911491 0.48513716
vt 0.29801348 0.30299276
vt 0.31434271 0.30546647
vt 0.39387619 0.44026738
vt 0.29259986 0.28749049
vt 0.30336049 0.29622972
vt 0.31322151 0.27560318
vt 0.40213186 0.44525272
vt 0.39814347 0.47974974
vt 0.31593204 0.28338313
vt 0.29718372 0.27468503
vt 0.31069884 0.26785344
vt 0.41919273 0.47259021
vt 0.28938672 0.27318639
vt 0.41516238 0.44086391
vt 0.3038629 0.25496405
vt 0.29506797 0.25370973
vt 0.41918862 0.45140457
vt 0.3125219 0.24758863
vt 0.41918555 0.438393
vt 0.29661649 0.24301803
vt 0.30507505 0.23402411
vt 0.28924182 0.24654496
vt 0.30938351 0.23327899
vt 0.29813036 0.2309624
vt 0.29052737 0.23665005
vt 0.39214346 0.33638936
vt 0.38083294 0.33440208
vt 0.3900384 0.31365341
vt 0.40514603 0.34447563
vt 0.38875335 0.34897834
vt 0.37486961 0.29894274
vt 0.4024044 0.31891626
vt 0.40249768 0.36858392
vt 0.38908198 0.34953457
vt 0.36837271 0.31474102
vt 0.38237593 0.29628837
vt 0.40906161 0.33645862
vt 0.38850448 0.29404777
vt 0.36508104 0.31995142
vt 0.3643032 0.30341107
vt 0.38485304 0.26743555
vt 0.40736285 0.32354069
vt 0.41473502 0.35874593
vt 0.37380514 0.27912343
vt 0.41729164 0.31394595
vt 0.42526314 0.33326912
vt 0.36013004 0.30867964
vt 0.36009419 0.2689625
vt 0.38091993 0.25679588
vt 0.42296013 0.37022042
vt 0.35346681 0.30107921
vt 0.34900689 0.2809301
vt 0.37581953 0.24574769
vt 0.43185055 0.3219552
vt 0.43711087 0.33474499
vt 0.34574181 0.26738685
vt 0.37027833 0.23449719
vt 0.42820856 0.31187856
vt 0.42968383 0.36266142
vt 0.34566814 0.29046941
vt 0.35343146 0.23345381
vt 0.33974963 0.28486621
vt 0.36734623 0.22219861
vt 0.44077766 0.32616651
vt 0.43096206 0.37150967
vt 0.3432717 0.28771323
vt 0.33815756 0.24020833
vt 0.33666837 0.28114694
vt 0.44374147 0.33351952
vt 0.33353701 0.27040625
vt 0.3486335 0.21529323
vt 0.32794675 0.26319808
vt 0.3432582 0.2008391
vt 0.35291144 0.20941049
vt 0.33500749 0.2800554
vt 0.32783186 0.27274722
vt 0.32633916 0.24409926
vt 0.33202422 0.27627265
vt 0.32295558 0.26618224
vt 0.31791791 0.25801986
vt 0.32817873 0.20307785
vt 0.31459853 0.25097632
vt 0.32227242 0.22309399
vt 0.33377367 0.18651396
vt 0.3202979 0.22983283
vt 0.38862097 0.055026412
vt 0.39258498 0.033772349
vt 0.40768096 0.044688821
vt 0.40533274 0.071920753
vt 0.4051443 0.030987859
vt 0.39658949 0.088030756
vt 0.42157668 0.068401635
vt 0.42767647 0.043166161
vt 0.3869431 0.08609736
vt 0.38601017 0.12329435
vt 0.43818876 0.10187733
vt 0.38121819 0.09713608
vt 0.43731144 0.04926163
vt 0.41694534 0.13323349
vt 0.37996721 0.11870956
vt 0.46352953 0.053714573
vt 0.43313801 0.17230463
vt 0.38806176 0.13821417
vt 0.380889 0.13991565
vt 0.47285298 0.17763263
vt 0.42080098 0.17089659
vt 0.39271641 0.1627593
vt 0.48064104 0.056341887
vt 0.45485443 0.23095787
vt 0.42043388 0.20107746
vt 0.38057321 0.18370223
vt 0.49621055 0.098187625
vt 0.46791342 0.24133581
vt 0.42700049 0.20887637
vt 0.39518893 0.19899577
vt 0.37711677 0.1577214
vt 0.38691714 0.19529963
vt 0.49620384 0.062801778
vt 0.49621543 0.13050187
vt 0.49623552 0.24589884
vt 0.45996913 0.2464835
vt 0.42373368 0.23265767
vt 0.41959915 0.21529746
vt 0.4125756 0.2083444
vt 0.49622047 0.16121018
vt 0.49623221 0.22980165
vt 0.42891878 0.24085152
vt 0.49622479 0.18926024
vt 0.40652424 0.40942484
vt 0.39500269 0.38968116
vt 0.40811148 0.38977373
vt 0.41067401 0.42615253
vt 0.37875012 0.418455
vt 0.41744992 0.37845612
vt 0.41622809 0.41479504
vt 0.37722424 0.38461626
vt 0.39254907 0.42923129
vt 0.41743562 0.39269978
vt 0.41754901 0.43383181
vt 0.44031084 0.38464522
vt 0.4285503 0.42162055
vt 0.45851314 0.37429905
vt 0.45631325 0.39729458
vt 0.48215684 0.38173938
vt 0.45639753 0.42431366
vt 0.47478676 0.37755847
vt 0.4820731 0.41798699
vt 0.46699679 0.42332047
vt 0.44388798 0.4274829
vt 0.4793607 0.43012524
vt 0.48265207 0.4220686
vt 0.4830288 0.42713261
vt 0.48201153 0.83951437
vt 0.48961824 0.84289366
vt 0.48575401 0.84729749
vt 0.47548902 0.85096776
vt 0.49732488 0.84323311
vt 0.4811126 0.87368208
vt 0.47628033 0.84329456
vt 0.50203341 0.86232394
vt 0.48232293 0.9045521
vt 0.4671385 0.86285782
vt 0.46726644 0.85322332
vt 0.5014559 0.90236104
vt 0.50255537 0.83868647
vt 0.47885579 0.89001143
vt 0.47254825 0.88152093
vt 0.52136374 0.89955908
vt 0.51749694 0.85541683
vt 0.47342825 0.90314007
vt 0.48301893 0.93456101
vt 0.45900664 0.87999415
vt 0.44872019 0.85150719
vt 0.50336516 0.92401153
vt 0.51871097 0.84336871
vt 0.4771373 0.91846478
vt 0.47327739 0.89034528
vt 0.54046625 0.85421669
vt 0.51961249 0.98544139
vt 0.5287599 0.84404659
vt 0.47525501 0.93332624
vt 0.44513613 0.86630148
vt 0.54042637 0.89350289
vt 0.52548885 0.94605607
vt 0.52844757 0.83657992
vt 0.47541043 0.95300281
vt 0.48937941 0.98245406
vt 0.44807553 0.88807702
vt 0.44339845 0.85256791
vt 0.54046738 0.90655744
vt 0.54039013 0.96029651
vt 0.53483176 0.91454428
vt 0.46635053 0.94186419
vt 0.48123017 0.95906836
vt 0.5090037 0.99159372
vt 0.54064858 0.83996296
vt 0.54038018 0.98639756
vt 0.53921247 0.94228733
vt 0.54068583 0.93017828
vt 0.45339495 0.9595812
vt 0.46794152 0.92829216
vt 0.47478759 0.97231942
vt 0.52538192 0.99530584
vt 0.48391759 0.99022496
vt 0.54049218 0.91311097
vt 0.54034954 0.98955113
vt 0.54062676 0.93967181
vt 0.5405941 0.92015189
vt 0.45269239 0.93825531
vt 0.54064471 0.93845797
vt 0.54068178 0.93366045
vt 0.44589159 0.94148809
vt 0.54019666 0.99682152
vt 0.44519833 0.94660556
vt 0.43982801 0.95259053
vt 0.44127977 0.96190017
vt 0.59510422 0.8562367
vt 0.58916932 0.86977541
vt 0.57831031 0.84237909
vt 0.59845585 0.87194014
vt 0.57679892 0.85170102
vt 0.60223573 0.8915751
vt 0.5995301 0.85077858
vt 0.56597948 0.85702252
vt 0.56782216 0.8820551
vt 0.59576434 0.90899807
vt 0.61363834 0.86835396
vt 0.6102708 0.84931922
vt 0.56408173 0.84563714
vt 0.58013618 0.90119588
vt 0.58792001 0.90897781
vt 0.61360371 0.86019009
vt 0.56991601 0.90549231
vt 0.59725326 0.94141179
vt 0.58197141 0.96056557
vt 0.56601894 0.91516
vt 0.58904636 0.95461941
vt 0.5686214 0.97060001
vt 0.56740373 0.93932688
vt 0.59559774 0.96317303
vt 0.59093523 0.97146922
vt 0.56458473 0.98630255
vt 0.58207947 0.98741436
vt 0.57537651 0.98792982
vt 0.58994412 0.98696363
vt 0.56877613 0.99633938
vt 0.69455117 0.98358154
vt 0.68458867 0.92784393
vt 0.69660985 0.93806088
vt 0.66324395 0.98363078
vt 0.6931116 0.88471067
vt 0.66311693 0.87899238
vt 0.6413573 0.93435383
vt 0.68867207 0.85614789
vt 0.62667209 0.97750908
vt 0.6455909 0.87703609
vt 0.67730272 0.84827965
vt 0.65537143 0.99590385
vt 0.62669533 0.94125032
vt 0.62665421 0.89780641
vt 0.6528551 0.86446178
vt 0.66615641 0.8596918
vt 0.62682706 0.98940963
vt 0.62674087 0.92707467
vt 0.62665933 0.90092665
vt 0.62663084 0.88752168
vt 0.64417011 0.86958861
vt 0.63532716 0.87655097
vt 0.63072652 0.87260425
vt 0.62659997 0.87621343
vt 0.74185091 0.98988342
vt 0.73528469 0.97180641
vt 0.74769473 0.96071643
vt 0.75497407 0.96799982
vt 0.73340827 0.99268192
vt 0.74063069 0.95264369
vt 0.75211549 0.94632947
vt 0.74893993 0.99691296
vt 0.72718984 0.98463613
vt 0.72963923 0.94050068
vt 0.73992038 0.9378314
vt 0.77091652 0.9368602
vt 0.76183468 0.98662186
vt 0.74351299 0.93251842
vt 0.76850486 0.95758677
vt 0.75387174 0.92881668
vt 0.7639581 0.99691486
vt 0.73707628 0.92240286
vt 0.76373833 0.91610837
vt 0.77848881 0.97116011
vt 0.77086121 0.99229723
vt 0.72564131 0.89048254
vt 0.7468133 0.91585249
vt 0.77538919 0.91816074
vt 0.75121969 0.90165234
vt 0.77628672 0.9418565
vt 0.73865199 0.90463787
vt 0.76815116 0.86531448
vt 0.76100594 0.87442929
vt 0.77673316 0.98486483
vt 0.74032927 0.88980013
vt 0.77842945 0.88473916
vt 0.75363278 0.86932981
vt 0.77897543 0.99580699
vt 0.74031574 0.87309837
vt 0.77377045 0.86318767
vt 0.75764734 0.84879154
vt 0.72077829 0.86432493
vt 0.77217323 0.85211527
vt 0.74245715 0.863096
vt 0.75025606 0.86097187
vt 0.73299134 0.84946382
vt 0.81566387 0.96859789
vt 0.81404901 0.97833014
vt 0.80167043 0.99455392
vt 0.80521601 0.96503896
vt 0.80908316 0.9895345
vt 0.79467046 0.97802407
vt 0.81142038 0.94619995
vt 0.82010132 0.97945625
vt 0.79396158 0.99380654
vt 0.79806978 0.93095058
vt 0.80545759 0.90790808
vt 0.82714295 0.92230046
vt 0.78785145 0.99549329
vt 0.78291059 0.94643354
vt 0.81130761 0.91385865
vt 0.81915271 0.91994315
vt 0.78788549 0.98030537
vt 0.78672183 0.96998262
vt 0.78412598 0.91661835
vt 0.79599547 0.90404087
vt 0.80740887 0.88382101
vt 0.82545125 0.89736962
vt 0.83344543 0.89590132
vt 0.81816131 0.88599265
vt 0.80887794 0.87682348
vt 0.87527955 0.94316953
vt 0.88275349 0.95568085
vt 0.8786878 0.96114326
vt 0.87091845 0.95553017
vt 0.8856678 0.96713841
vt 0.87389147 0.98611856
vt 0.86265379 0.93973231
vt 0.88880754 0.95768547
vt 0.86505139 0.96745765
vt 0.86015493 0.94808877
vt 0.88459522 0.97779304
vt 0.88899606 0.96853471
vt 0.85958064 0.93490231
vt 0.88088357 0.9935053
vt 0.89478683 0.96030903
vt 0.85649818 0.96827394
vt 0.85042238 0.93928605
vt 0.8915351 0.98171639
vt 0.89974535 0.95012891
vt 0.84583324 0.94933975
vt 0.88497049 0.99549401
vt 0.90491581 0.95234603
vt 0.90088743 0.96303421
vt 0.93270153 0.93651038
vt 0.94233245 0.93852347
vt 0.93818063 0.96346563
vt 0.92622274 0.93615294
vt 0.9333514 0.97062576
vt 0.92667133 0.90765196
vt 0.92910463 0.97071987
vt 0.92205429 0.91544807
vt 0.92605585 0.97381032
vt 0.92718089 0.98242193
vt 0.91524351 0.91851056
vt 0.92215991 0.89556521
vt 0.91907251 0.95661032
vt 0.90846235 0.99107116
vt 0.90891147 0.9783932
vt 0.91594595 0.99525714
vt 0.92995101 0.97242159
vt 0.92665529 0.9881705
vt 0.97508216 0.99188823
vt 0.96982664 0.99658161
vt 0.96512324 0.98880672
vt 0.96772182 0.97776538
vt 0.93971258 0.98108643
vt 0.9890213 0.98844916
vt 0.98693782 0.97118551
vt 0.95125425 0.96289158
vt 0.96782702 0.95059961
vt 0.94023448 0.96348464
vt 0.43932316 0.88499933
vt 0.43798876 0.87847447
vt 0.45781019 0.89331806
vt 0.45218787 0.9229092
vt 0.42379823 0.89781737
vt 0.45805261 0.90508378
vt 0.43174055 0.91983867
vt 0.42374954 0.8919788
vt 0.46937296 0.8962903
vt 0.46918669 0.91695547
vt 0.44526032 0.93396389
vt 0.42357039 0.88272399
vt 0.42395627 0.9198035
vt 0.42422277 0.92844725
vt 0.85863131 0.92447555
vt 0.86931866 0.93259078
vt 0.86401838 0.93371093
vt 0.85851079 0.92809916
vt 0.86561584 0.9078095
vt 0.85792768 0.90285808
vt 0.87977099 0.92241848
vt 0.85120845 0.88866448
vt 0.87636614 0.87111032
vt 0.87912863 0.92583823
vt 0.85012078 0.86907256
vt 0.85686541 0.90524799
vt 0.88119161 0.87356073
vt 0.86487186 0.86749905
vt 0.87407559 0.93309319
vt 0.88140744 0.92214286
vt 0.84837627 0.88688469
vt 0.8512271 0.89239603
vt 0.88177967 0.91349286
vt 0.87616396 0.86226279
vt 0.8461107 0.8734253
vt 0.84957278 0.89089072
vt 0.85143244 0.85061777
vt 0.86965513 0.85648996
vt 0.85535288 0.84669131
vt 0.8633706 0.85312015
vt 0.9567256 0.8823086
vt 0.95087433 0.87117237
vt 0.98197049 0.8870399
vt 0.97571695 0.8976171
vt 0.95275229 0.89496684
vt 0.98265421 0.91735983
vt 0.94696635 0.89468741
vt 0.95577461 0.92713588
vt 0.94798338 0.91120827
vt 0.93914604 0.90751171
vt 0.97099751 0.93129909
vt 0.96176565 0.93339676
vt 0.79907131 0.82156312
vt 0.80150849 0.83492458
vt 0.79006988 0.81911719
vt 0.80792588 0.83535683
vt 0.79028928 0.83225065
vt 0.80767626 0.84888369
vt 0.79965413 0.85942584
vt 0.79149204 0.85788864
vt 0.80241299 0.87007785
vt 0.79164839 0.87179333
vt 0.78581959 0.85404122
vt 0.78240794 0.86419392
vt 0.78420711 0.82710117
vt 0.78012478 0.84616077
vt 0.77534068 0.86253232
vt 0.77417594 0.82664883
vt 0.77039212 0.84565645
vt 0.77106816 0.83141893
vt 0.7679885 0.83915323
vt 0.92367661 0.89142084
vt 0.91713047 0.89810711
vt 0.92028499 0.8884269
vt 0.92784476 0.87598151
vt 0.90478039 0.89157653
vt 0.92433465 0.87029094
vt 0.90659183 0.89581645
vt 0.91332388 0.87458348
vt 0.93005198 0.8610273
vt 0.89212179 0.90147537
vt 0.90325898 0.87298322
vt 0.91901428 0.86187851
vt 0.9228856 0.85945404
vt 0.8985737 0.89016712
vt 0.90856075 0.86479986
vt 0.90143764 0.88085318
vt 0.91686773 0.85163903
vt 0.89275801 0.88785952
vt 0.8941741 0.87387484
vt 0.82546473 0.85971433
vt 0.81505984 0.83583826
vt 0.82311934 0.85084581
vt 0.83780152 0.8714112
vt 0.81462151 0.83246619
vt 0.83310288 0.84228009
vt 0.82026476 0.83648467
vt 0.84050459 0.8524878
vt 0.83722711 0.83107823
vt 0.84431648 0.86576068
vt 0.81722087 0.82905972
vt 0.84997684 0.85448551
vt 0.84963447 0.83506155
vt 0.55995923 0.94226032
vt 0.5606854 0.95103127
vt 0.55755091 0.95995843
vt 0.55136096 0.95999867
vt 0.56529039 0.94395411
vt 0.5620293 0.98247981
vt 0.55798715 0.97617412
vt 0.55184501 0.94477683
vt 0.55981076 0.9292981
vt 0.55375111 0.9877547
vt 0.550403 0.99279934
vt 0.54896474 0.93585193
vt 0.55689323 0.99571949
vt 0.45618221 0.98050767
vt 0.45013976 0.99651903
vt 0.44484642 0.99353695
vt 0.45223108 0.96928257
vt 0.44424921 0.97527033
vt 0.43664712 0.99248016
vt 0.43467915 0.99017835
vt 0.43929499 0.99471444
vt 0.42477271 0.98472893
vt 0.42431509 0.96077627
vt 0.4352549 0.96735191
vt 0.59590846 0.96041769
vt 0.60075867 0.94035268
vt 0.60382015 0.96554267
vt 0.60084862 0.98198038
vt 0.61126125 0.95070899
vt 0.61405188 0.98050255
vt 0.61150199 0.93475842
vt 0.61090761 0.96700448
vt 0.60002667 0.99627954
vt 0.6259228 0.94647419
vt 0.62645131 0.96469319
vt 0.99472469 0.94286478
vt 0.99282044 0.96388817
vt 0.98912686 0.9278841
vt 0.99276221 0.92435414
vt 0.99861783 0.9550451
vt 0.98178756 0.95500201
vt 0.97059458 0.93243921
vt 0.97154474 0.94995803
vt 0.71640396 0.98218215
vt 0.70910776 0.97920787
vt 0.71502703 0.95469284
vt 0.71931148 0.95627785
vt 0.71064615 0.99584889
vt 0.70578671 0.96771824
vt 0.72120339 0.99256688
vt 0.70520109 0.98668253
vt 0.71102154 0.93893492
vt 0.8352592 0.98269123
vt 0.82215899 0.97880697
vt 0.82742292 0.96407497
vt 0.83381289 0.96523154
vt 0.82450902 0.99655348
vt 0.8251422 0.94425088
vt 0.83486652 0.99457079
vt 0.85398227 0.90812206
vt 0.84616172 0.9174152
vt 0.85072726 0.9065367
vt 0.8398717 0.91263586
vt 0.82969964 0.9149605
vt 0.83227146 0.93358135
vt 0.71190554 0.90645427
vt 0.70531654 0.90399766
vt 0.72895777 0.90067041
vt 0.7084021 0.91426867
vt 0.71122825 0.91685539
vt 0.70999414 0.93368441
vt 0.70509714 0.92907757
vt 0.86069381 0.99009478
vt 0.85722834 0.96791679
vt 0.86519969 0.98355967
vt 0.86885768 0.99536246
vt 0.85298455 0.98654622
vt 0.86247712 0.97211152
vt 0.86714697 0.9749434
vt 0.84584504 0.966887
vt 0.86414629 0.97022682
vt 0.43644306 0.86815393
vt 0.42586887 0.85742503
vt 0.43217292 0.8453359
vt 0.44360167 0.87056202
vt 0.4233909 0.82376713
vt 0.44384187 0.84741509
vt 0.43913695 0.82846308
vt 0.8963877 0.93149859
vt 0.88837194 0.94976753
vt 0.88470489 0.9261713
vt 0.89701635 0.90931135
vt 0.4215036 0.99153328
vt 0.42024466 0.95880562
vt 0.42142829 0.96313262
vt 0.42001033 0.99531627
vt 0.42099854 0.96115535
vt 0.47054353 0.99677181
vt 0.46278343 0.99333262
vt 0.47247657 0.97551721
vt 0.47745925 0.98602837
vt 0.46348017 0.97382063
vt 0.47869462 0.97926474
vt 0.481805 0.99125195
vt 0.014785634 0.99704343
vt 0.0023166826 0.99583739
vt 0.020681178 0.99669999
vt 0.0049136393 0.99636763
vt 0.0020499029 0.99294204
vt 0.0083338507 0.99378783
vt 0.018220261 0.99522591
vt 0.59628218 0.97701424
vt 0.59589911 0.98151559
vt 0.58766431 0.99581963
vt 0.59676957 0.97938651
vt 0.60047185 0.9813689
vt 0.70967966 0.93920159
vt 0.70295244 0.96517521
vt 0.69752741 0.95087349
vt 0.84990817 0.98287427
vt 0.84415323 0.99585718
vt 0.84434479 0.97772241
vt 0.83781165 0.97087181
vt 0.45921808 0.97212583
vt 0.46203017 0.99350876
vt 0.4594388 0.99131209
vt 0.46155551 0.97044617
vt 0.45992842 0.99669015
vt 0.62371403 0.98078477
vt 0.61866075 0.99527711
vt 0.62373847 0.97598511
vt 0.62363756 0.99499506
vt 0.62208861 0.97716129
vt 0.62373936 0.97571033
vt 0.62077081 0.97831964
vt 0.61688161 0.97565365
vt 0.61157399 0.99345332
vt 0.89292943 0.9966839
vt 0.89598441 0.97781068
vt 0.90553999 0.99427009
vt 0.89387751 0.98180526
vt 0.58260286 0.9875198
vt 0.57988787 0.99522567
vt 0.58127284 0.98785794
vt 0.58576226 0.9933365
vt 0.590693 0.98719388
vt 0.5513612 0.97754365
vt 0.5443815 0.99610984
vt 0.5413397 0.98495412
vt 0.42409739 0.98909682
vt 0.43468365 0.99504471
vt 0.42810816 0.99529719
vt 0.93880481 0.9923864
vt 0.9373008 0.97845078
vt 0.9422965 0.9842695
vt 0.93117017 0.9873088
vt 0.9392181 0.99624127
vt 0.69964844 0.99635679
vt 0.69632977 0.98165369
vt 0.70023292 0.98032165
vt 0.6895631 0.98863685
vt 0.47093433 0.99638194
vt 0.47634229 0.98837668
vt 0.47750244 0.99637681
vt 0.48151141 0.99637562
vt 0.72104836 0.98185003
vt 0.72564489 0.98158765
vt 0.72553641 0.99684924
vt 0.72179377 0.97989297
vt 0.5994069 0.99055946
vt 0.59519798 0.9970662
vt 0.59167504 0.9880296
vt 0.0081306826 0.99567533
vt 0.0092530604 0.99529129
vt 0.0090761157 0.99544442
vt 0.0021248017 0.99640006
vt 0.0094365226 0.99535102
usemtl Tile_+032_+023_L20_0001110_0
f 475/614 433/615 203/616
f 240/621 475/614 238/617
f 657/1 292/2 658/3
f 576/39 552/29 604/17
f 380/894 390/895 395/896
f 303/88 341/87 257/123
f 652/144 597/153 556/116
f 458/429 448/430 459/431
f 615/210 151/197 656/168
f 650/72 629/102 611/86
f 254/209 585/202 255/169
f 429/16 291/11 648/18
f 440/803 508/804 400/805
f 635/41 560/44 609/14
f 260/138 257/123 273/109
f 271/36 551/26 427/31
f 618/79 605/52 563/67
f 244/354 316/349 421/348
f 564/30 635/41 609/14
f 287/746 285/747 683/748
f 352/772 365/773 344/774
f 654/71 647/32 632/69
f 341/87 226/73 264/103
f 431/54 427/31 599/43
f 304/207 626/184 591/216
f 224/163 223/148 645/181
f 636/200 615/210 339/171
f 280/132 263/98 222/117
f 647/32 655/56 599/43
f 270/125 225/93 268/108
f 274/82 431/54 583/68
f 273/109 264/103 226/73
f 226/73 225/93 273/109
f 641/100 607/84 556/116
f 648/18 609/14 428/23
f 579/66 637/65 618/79
f 259/57 303/88 300/58
f 647/32 560/44 633/55
f 637/65 579/66 635/41
f 654/71 640/85 655/56
f 628/191 255/169 585/202
f 636/200 302/170 221/199
f 254/209 279/219 149/232
f 151/197 148/231 279/219
f 175/244 306/250 393/221
f 651/99 283/119 274/82
f 656/168 595/135 339/171
f 210/271 216/289 381/270
f 302/170 340/187 613/156
f 620/155 595/135 656/168
f 254/209 276/213 628/191
f 254/209 256/247 338/240
f 579/66 631/97 559/80
f 609/14 596/22 564/30
f 647/32 599/43 428/23
f 430/7 609/14 291/11
f 641/100 649/83 607/84
f 629/102 650/72 640/85
f 259/57 341/87 303/88
f 599/43 655/56 650/72
f 606/95 554/50 362/77
f 687/106 294/124 688/139
f 661/110 578/64 662/94
f 653/142 577/126 661/110
f 553/51 555/78 561/42
f 664/76 576/39 665/63
f 268/108 219/62 284/107
f 689/89 252/35 692/75
f 430/7 550/4 667/10
f 430/7 292/2 550/4
f 605/52 637/65 635/41
f 573/128 567/147 363/127
f 564/30 605/52 635/41
f 648/18 428/23 427/31
f 596/22 609/14 604/17
f 648/18 427/31 551/26
f 281/151 222/117 638/164
f 265/118 283/119 651/99
f 601/145 619/179 616/190
f 619/179 601/145 568/146
f 601/145 363/127 568/146
f 654/71 655/56 647/32
f 280/132 281/151 638/164
f 607/84 633/55 558/70
f 632/69 633/55 649/83
f 625/154 641/100 597/153
f 599/43 583/68 431/54
f 611/86 227/130 222/117
f 275/92 342/61 274/82
f 560/44 647/32 609/14
f 566/111 557/115 606/95
f 579/66 606/95 557/115
f 552/29 596/22 604/17
f 560/44 558/70 633/55
f 586/46 253/25 218/34
f 265/118 651/99 583/68
f 647/32 428/23 609/14
f 583/68 651/99 274/82
f 270/125 269/141 693/159
f 568/146 634/129 81/143
f 80/180 619/179 568/146
f 597/153 598/178 625/154
f 640/85 654/71 632/69
f 632/69 642/120 640/85
f 269/141 266/131 262/150
f 565/40 553/51 561/42
f 338/240 256/247 152/266
f 591/216 393/221 304/207
f 594/121 595/135 620/155
f 623/137 613/156 630/122
f 630/122 613/156 595/135
f 640/85 643/152 623/137
f 151/197 279/219 254/209
f 144/234 614/222 183/251
f 280/132 638/164 695/182
f 639/133 627/165 305/166
f 222/117 224/163 638/164
f 221/199 301/186 305/166
f 642/120 639/133 640/85
f 623/137 305/166 301/186
f 569/224 617/212 194/201
f 636/200 614/222 615/210
f 645/181 628/191 277/204
f 698/241 338/240 699/267
f 305/166 643/152 639/133
f 656/168 255/169 620/155
f 646/198 339/171 615/210
f 594/121 611/86 629/102
f 595/135 594/121 629/102
f 639/133 642/120 624/134
f 614/222 220/235 183/251
f 571/211 581/195 602/189
f 642/120 641/100 624/134
f 620/155 255/169 608/136
f 640/85 639/133 643/152
f 305/166 623/137 643/152
f 227/130 608/136 228/162
f 638/164 644/192 622/203
f 622/203 644/192 645/181
f 638/164 224/163 644/192
f 645/181 644/192 224/163
f 332/560 235/561 356/562
f 83/927 79/928 107/929
f 187/496 164/497 184/498
f 382/899 396/898 390/895
f 571/211 546/252 364/236
f 647/32 633/55 632/69
f 534/254 194/201 621/265
f 560/44 635/41 579/66
f 445/552 446/536 455/543
f 469/586 474/587 406/578
f 436/624 204/619 420/623
f 135/452 443/465 444/457
f 210/271 367/246 387/257
f 367/246 392/230 387/257
f 615/210 656/168 646/198
f 622/203 278/225 698/241
f 206/656 457/657 414/658
f 650/72 611/86 599/43
f 348/776 388/778 365/773
f 500/870 503/871 514/872
f 506/874 503/871 500/870
f 183/251 306/250 175/244
f 311/472 345/473 574/474
f 199/815 323/814 346/819
f 617/212 569/224 570/239
f 370/223 581/195 571/211
f 508/804 519/809 404/807
f 362/77 578/64 572/96
f 566/111 363/127 601/145
f 366/208 592/206 587/194
f 540/835 358/836 520/837
f 274/82 283/119 275/92
f 130/329 116/335 376/333
f 233/309 398/317 208/291
f 578/64 634/129 610/113
f 450/436 182/441 460/435
f 448/972 451/973 455/974
f 407/666 411/665 317/675
f 542/784 544/785 510/786
f 699/267 152/266 702/288
f 217/37 218/34 282/27
f 297/753 288/751 703/757
f 692/75 295/60 707/91
f 607/84 600/101 556/116
f 217/37 282/27 429/16
f 191/306 190/297 541/314
f 541/314 336/319 191/306
f 174/320 432/326 375/315
f 355/290 326/307 374/298
f 331/650 399/652 232/641
f 232/641 196/642 331/650
f 395/256 389/255 593/227
f 332/338 315/341 349/345
f 626/184 587/194 592/206
f 420/623 204/619 433/615
f 200/808 311/806 400/805
f 575/839 358/836 540/835
f 445/552 455/543 456/555
f 455/543 250/557 456/555
f 640/85 630/122 629/102
f 202/631 201/640 437/636
f 444/457 442/453 132/445
f 521/821 504/816 506/820
f 200/808 199/815 325/811
f 408/659 206/656 414/658
f 322/777 319/782 394/779
f 334/568 415/576 354/579
f 536/907 193/908 589/909
f 519/484 508/482 548/478
f 598/178 602/189 581/195
f 464/660 414/658 457/657
f 77/369 105/370 525/371
f 457/657 458/663 464/660
f 179/530 182/547 450/545
f 484/916 512/917 481/918
f 512/704 484/705 445/706
f 489/505 487/515 528/516
f 528/516 529/506 489/505
f 79/487 499/486 534/485
f 188/323 356/331 399/327
f 542/388 532/397 543/389
f 381/270 367/246 210/271
f 556/116 597/153 641/100
f 581/195 590/245 588/229
f 535/238 588/229 590/245
f 636/200 221/199 614/222
f 302/170 301/186 221/199
f 255/169 628/191 223/148
f 613/156 623/137 302/170
f 497/848 496/849 74/850
f 521/359 522/358 537/353
f 524/374 106/378 99/383
f 210/271 208/291 372/299
f 582/217 535/238 345/228
f 626/184 627/165 624/134
f 516/878 423/879 357/880
f 625/154 612/167 624/134
f 575/237 590/245 581/195
f 373/308 331/321 541/314
f 399/327 398/317 188/323
f 379/268 172/278 175/244
f 541/314 434/324 336/319
f 533/483 499/486 519/484
f 636/200 340/187 302/170
f 592/206 591/216 626/184
f 122/635 186/651 335/648
f 612/167 365/185 624/134
f 535/477 549/481 574/474
f 389/255 384/279 396/269
f 356/331 188/323 347/334
f 615/210 614/222 144/234
f 339/171 646/198 656/168
f 612/167 581/195 344/196
f 227/130 611/86 608/136
f 283/119 265/118 298/149
f 554/50 606/95 563/67
f 566/111 652/144 557/115
f 631/97 556/116 559/80
f 283/119 298/149 269/141
f 573/954 603/955 368/956
f 557/115 631/97 579/66
f 633/55 607/84 649/83
f 562/53 563/67 605/52
f 259/57 218/34 226/73
f 291/11 609/14 648/18
f 611/86 594/121 608/136
f 556/116 600/101 559/80
f 641/100 632/69 649/83
f 555/78 563/67 561/42
f 584/81 611/86 222/117
f 669/49 604/17 676/48
f 362/951 603/952 573/953
f 351/347 421/348 329/344
f 357/992 364/993 546/994
f 601/145 602/189 598/178
f 600/101 607/84 558/70
f 584/81 599/43 611/86
f 597/153 601/145 598/178
f 580/114 618/79 563/67
f 564/30 596/22 561/42
f 565/40 561/42 596/22
f 619/179 194/201 616/190
f 498/408 545/402 527/398
f 570/900 571/901 617/902
f 567/147 573/128 610/113
f 527/398 501/407 514/412
f 102/376 77/369 248/372
f 554/50 552/29 576/39
f 637/65 605/52 618/79
f 609/14 430/7 604/17
f 527/398 514/412 498/408
f 404/807 400/805 508/804
f 597/153 566/111 601/145
f 581/195 612/167 598/178
f 366/208 593/227 592/206
f 192/915 589/909 547/912
f 616/190 617/212 571/211
f 426/882 371/885 423/879
f 194/201 617/212 616/190
f 616/190 602/189 601/145
f 574/474 549/481 548/478
f 579/66 618/79 580/114
f 81/143 634/129 578/64
f 578/64 577/126 81/143
f 534/485 621/489 79/487
f 514/872 513/875 498/876
f 544/785 509/790 245/788
f 554/50 578/64 362/77
f 497/491 513/488 499/486
f 81/143 80/180 568/146
f 568/146 567/147 610/113
f 571/211 602/189 616/190
f 311/472 574/474 440/475
f 572/96 610/113 573/128
f 571/901 570/900 546/903
f 539/842 570/846 569/843
f 568/146 610/113 634/129
f 362/77 363/127 566/111
f 576/39 578/64 554/50
f 596/22 552/29 565/40
f 563/67 562/53 561/42
f 559/80 558/70 560/44
f 641/100 625/154 624/134
f 652/144 566/111 597/153
f 631/97 557/115 556/116
f 563/67 555/78 554/50
f 552/29 554/50 553/51
f 551/26 429/16 648/18
f 642/120 632/69 641/100
f 429/16 293/8 291/11
f 677/12 251/15 678/19
f 429/16 551/26 271/36
f 553/51 554/50 555/78
f 606/95 580/114 563/67
f 426/882 423/879 516/878
f 564/30 562/53 605/52
f 606/95 362/77 566/111
f 342/61 271/36 427/31
f 594/121 620/155 608/136
f 305/166 627/165 626/184
f 337/567 399/572 356/562
f 593/227 366/208 380/243
f 592/206 593/227 591/216
f 371/887 518/888 360/889
f 389/255 397/242 593/227
f 175/244 591/216 397/242
f 590/245 575/237 569/224
f 521/910 589/909 523/913
f 588/229 535/238 582/217
f 535/238 590/245 569/224
f 372/299 541/314 190/297
f 366/208 587/194 365/185
f 382/822 390/823 386/824
f 375/834 432/833 377/829
f 259/57 300/58 586/46
f 209/280 210/271 387/257
f 599/43 584/81 583/68
f 391/781 365/773 388/778
f 210/271 372/299 190/297
f 603/955 362/957 368/956
f 343/681 326/682 327/683
f 370/223 358/253 575/237
f 581/195 588/229 582/217
f 366/208 391/218 392/230
f 331/321 434/324 541/314
f 581/195 370/223 575/237
f 365/185 391/218 366/208
f 322/777 353/775 344/774
f 398/317 399/327 331/321
f 569/843 540/835 539/842
f 538/385 531/380 528/375
f 536/356 521/359 537/353
f 351/911 193/908 536/907
f 537/353 351/347 536/356
f 194/201 534/254 535/238
f 526/499 187/496 184/498
f 535/238 569/224 194/201
f 543/389 532/397 527/398
f 208/291 209/280 374/298
f 425/891 518/888 371/887
f 393/221 591/216 175/244
f 530/379 529/381 525/371
f 530/379 524/374 215/384
f 529/381 530/379 215/384
f 184/498 491/501 526/499
f 215/502 526/499 529/506
f 215/502 187/496 526/499
f 531/380 248/372 528/375
f 495/525 528/516 487/515
f 482/920 481/918 512/917
f 422/676 494/680 493/679
f 476/715 482/709 502/711
f 489/505 526/499 491/501
f 483/921 481/918 211/922
f 212/509 486/520 488/510
f 489/505 529/506 526/499
f 99/383 165/387 524/374
f 528/375 525/371 529/381
f 524/374 530/379 525/371
f 198/393 492/386 543/389
f 241/707 512/704 445/706
f 535/477 533/483 549/481
f 519/484 548/478 549/481
f 534/485 533/483 535/477
f 503/492 519/484 513/488
f 497/491 82/490 496/493
f 369/838 539/842 540/835
f 533/483 519/484 549/481
f 310/722 376/723 378/724
f 369/881 424/884 516/878
f 507/932 500/933 532/934
f 544/785 245/788 510/786
f 510/401 532/397 542/388
f 404/807 523/818 192/813
f 548/478 440/475 574/474
f 540/835 569/843 575/839
f 192/915 523/913 589/909
f 421/348 351/347 537/353
f 324/810 193/817 323/814
f 536/907 589/909 521/910
f 517/841 515/844 369/838
f 358/892 360/889 518/888
f 546/903 539/904 369/905
f 570/900 539/904 546/903
f 537/353 522/358 244/354
f 522/358 511/364 243/361
f 532/397 501/407 527/398
f 369/838 520/837 517/841
f 479/859 490/860 478/861
f 532/934 511/935 507/932
f 534/485 499/486 533/483
f 198/393 527/398 545/402
f 248/372 531/380 492/386
f 545/402 498/408 198/393
f 544/785 538/787 495/789
f 198/393 543/389 527/398
f 542/388 543/389 531/380
f 531/380 538/385 542/388
f 544/785 542/784 538/787
f 503/871 513/875 514/872
f 503/812 506/820 504/816
f 162/514 454/537 449/529
f 486/520 487/515 488/510
f 528/516 495/525 538/532
f 73/976 496/977 103/978
f 514/872 501/873 500/870
f 79/487 82/490 499/486
f 74/850 498/851 497/848
f 82/490 104/494 496/493
f 495/525 487/515 490/531
f 494/800 242/797 493/798
f 82/490 497/491 499/486
f 509/790 495/789 490/792
f 74/850 198/852 498/851
f 488/510 489/505 491/501
f 488/510 487/515 489/505
f 523/818 504/816 521/821
f 509/790 480/791 245/788
f 487/865 485/863 490/860
f 491/501 212/509 488/510
f 485/863 487/865 486/868
f 486/868 211/869 485/863
f 485/863 482/866 478/861
f 490/860 485/863 478/861
f 162/514 453/524 483/519
f 482/866 485/863 211/869
f 446/536 484/544 453/524
f 241/707 447/712 205/716
f 162/514 483/519 161/504
f 482/866 476/864 478/861
f 481/918 483/921 453/919
f 479/793 477/795 480/791
f 479/859 478/861 477/862
f 502/711 214/714 476/715
f 493/679 213/671 422/676
f 236/563 332/560 349/566
f 212/509 491/501 161/504
f 211/922 481/918 482/920
f 511/364 505/363 507/367
f 404/807 504/816 523/818
f 213/671 409/670 422/676
f 476/678 247/677 493/679
f 214/667 247/677 476/678
f 439/569 235/561 317/565
f 494/575 422/570 236/563
f 518/840 425/847 515/844
f 521/359 505/363 522/358
f 520/837 358/836 518/840
f 515/844 517/841 518/840
f 424/845 515/844 425/847
f 515/844 424/845 369/838
f 477/862 476/864 493/867
f 241/707 502/711 482/709
f 477/862 478/861 476/864
f 477/795 246/794 480/791
f 497/877 498/876 513/875
f 522/358 505/363 511/364
f 480/791 509/790 479/793
f 509/790 490/792 479/793
f 510/937 245/938 511/935
f 501/936 532/934 500/933
f 544/785 495/789 509/790
f 242/797 316/801 244/799
f 242/797 494/800 316/801
f 532/934 510/937 511/935
f 477/795 242/797 246/794
f 519/809 503/812 404/807
f 504/816 404/807 503/812
f 506/365 500/368 507/367
f 505/363 521/359 506/365
f 133/439 460/435 182/441
f 205/716 447/712 457/717
f 460/435 462/432 459/431
f 458/429 462/432 463/434
f 414/440 464/437 463/434
f 461/438 463/434 462/432
f 463/434 464/437 458/429
f 451/946 250/947 455/948
f 450/436 460/435 459/431
f 455/433 450/436 459/431
f 452/713 448/721 458/719
f 448/430 455/433 459/431
f 458/429 459/431 462/432
f 458/719 457/717 452/713
f 457/717 447/712 452/713
f 453/919 484/916 481/918
f 241/707 456/708 451/710
f 445/706 456/708 241/707
f 447/975 451/973 448/972
f 446/536 449/529 455/543
f 450/545 454/537 179/530
f 453/524 162/514 449/529
f 449/529 446/536 453/524
f 447/712 241/707 451/710
f 452/558 456/555 250/557
f 456/708 452/713 451/710
f 452/713 447/712 249/720
f 249/949 451/946 452/950
f 449/529 454/537 450/545
f 450/545 455/543 449/529
f 448/559 452/558 250/557
f 250/1000 447/1001 448/1002
f 445/552 484/544 446/536
f 376/333 432/326 130/329
f 202/631 437/636 435/627
f 203/616 436/624 438/620
f 442/453 441/449 132/445
f 444/457 443/465 475/466
f 442/453 475/466 240/467
f 444/457 475/466 442/453
f 443/618 433/615 475/614
f 461/438 462/432 133/439
f 441/449 442/453 473/458
f 473/458 471/450 441/449
f 441/449 466/442 132/445
f 438/620 435/627 309/629
f 132/445 466/442 133/439
f 470/589 419/585 474/587
f 471/450 468/446 466/442
f 416/633 419/643 472/634
f 240/467 473/458 442/453
f 472/634 473/630 239/626
f 239/626 416/633 472/634
f 473/458 472/460 471/450
f 419/643 470/647 472/634
f 470/454 471/450 472/460
f 470/454 469/459 465/447
f 470/589 474/587 469/586
f 468/446 471/450 470/454
f 465/447 468/446 470/454
f 469/586 413/584 465/588
f 412/661 413/672 410/673
f 461/438 467/443 414/440
f 461/438 468/446 465/447
f 467/443 461/438 465/447
f 463/434 461/438 414/440
f 133/439 466/442 461/438
f 461/438 466/442 468/446
f 471/450 466/442 441/449
f 412/661 467/664 465/668
f 234/590 176/591 420/592
f 580/114 606/95 579/66
f 231/684 327/683 319/686
f 371/887 426/893 425/891
f 424/884 426/882 516/878
f 426/981 424/982 425/983
f 359/883 357/880 423/879
f 562/53 564/30 561/42
f 422/676 407/666 317/675
f 374/298 233/309 208/291
f 320/691 318/685 314/692
f 315/341 329/344 421/348
f 406/578 474/587 419/585
f 412/661 410/673 403/669
f 420/592 176/591 122/594
f 419/585 416/581 406/578
f 354/579 415/576 417/582
f 417/923 237/924 418/925
f 416/581 417/582 415/576
f 406/578 416/581 415/576
f 402/580 413/584 406/578
f 406/578 413/584 469/586
f 412/661 408/659 414/658
f 413/672 412/661 465/668
f 467/664 412/661 414/658
f 411/665 408/659 412/661
f 413/584 402/580 410/583
f 407/666 409/670 207/662
f 207/662 408/659 407/666
f 402/580 403/577 410/583
f 405/573 401/574 406/578
f 324/810 400/805 404/807
f 403/577 402/580 401/574
f 440/803 400/805 311/806
f 415/576 405/573 406/578
f 317/675 411/665 439/674
f 405/573 334/568 235/561
f 411/665 407/666 408/659
f 235/561 401/574 405/573
f 324/810 404/807 192/813
f 409/670 213/671 207/662
f 401/574 439/569 403/577
f 411/665 403/669 439/674
f 401/574 235/561 439/569
f 202/631 436/624 420/623
f 422/676 409/670 407/666
f 418/925 354/926 417/923
f 418/625 309/629 197/632
f 237/628 417/639 416/633
f 195/644 335/648 308/638
f 435/627 437/636 309/629
f 238/617 438/620 418/625
f 438/620 238/617 203/616
f 437/636 201/640 195/644
f 418/625 438/620 309/629
f 237/628 416/633 239/626
f 433/615 234/622 420/623
f 436/624 435/627 438/620
f 385/827 386/824 384/828
f 308/638 437/636 195/644
f 394/701 328/694 312/698
f 320/691 312/698 328/694
f 147/220 615/210 144/234
f 202/631 420/623 122/635
f 129/726 307/725 378/724
f 443/618 234/622 433/615
f 310/825 382/822 386/824
f 342/61 427/31 431/54
f 396/728 382/727 307/725
f 600/101 558/70 559/80
f 272/20 293/8 429/16
f 222/117 263/98 584/81
f 374/298 326/307 343/316
f 344/196 581/195 582/217
f 371/887 360/889 359/890
f 371/885 359/883 423/879
f 571/211 364/236 370/223
f 369/881 516/878 357/880
f 345/228 344/196 582/217
f 366/208 392/230 367/246
f 573/128 368/112 572/96
f 572/96 368/112 362/77
f 573/128 363/127 362/77
f 363/127 567/147 568/146
f 370/223 364/236 358/253
f 349/566 361/571 236/563
f 359/890 360/889 358/892
f 357/880 359/883 358/886
f 325/697 350/693 230/690
f 324/810 200/808 400/805
f 347/334 350/330 325/337
f 313/695 314/692 355/688
f 232/641 337/649 334/645
f 354/637 232/641 334/645
f 186/651 191/655 335/648
f 346/819 323/814 193/817
f 351/347 329/344 346/340
f 347/334 188/323 350/330
f 346/340 329/344 347/334
f 316/349 361/352 349/345
f 347/334 315/341 332/338
f 343/316 233/309 374/298
f 347/334 325/337 346/340
f 325/811 199/815 346/819
f 356/331 347/334 332/338
f 535/477 574/474 345/473
f 352/772 344/774 353/775
f 189/687 343/681 231/684
f 331/321 373/308 398/317
f 189/687 230/690 350/693
f 345/473 311/472 322/476
f 344/479 345/473 322/476
f 398/317 373/308 208/291
f 373/308 372/299 208/291
f 397/242 396/269 379/268
f 310/825 385/827 377/829
f 395/984 384/985 383/986
f 352/772 348/776 365/773
f 348/776 352/772 353/775
f 353/775 394/779 348/776
f 313/695 387/699 392/702
f 391/703 313/695 392/702
f 391/781 388/778 312/780
f 396/898 384/897 390/895
f 389/255 381/270 216/289
f 395/1004 383/1005 389/1006
f 377/829 376/831 310/825
f 374/298 209/280 355/290
f 385/827 310/825 386/824
f 348/776 312/780 388/778
f 313/695 355/688 387/699
f 330/646 196/642 308/638
f 312/780 348/776 394/779
f 399/652 337/649 232/641
f 386/824 390/823 383/826
f 384/828 389/832 216/830
f 383/987 381/988 389/989
f 390/991 380/990 383/987
f 395/896 390/895 384/897
f 380/243 367/246 381/270
f 172/729 379/730 307/725
f 377/829 385/827 216/830
f 307/725 379/730 396/728
f 116/335 129/339 376/333
f 216/289 191/306 375/315
f 375/834 377/829 216/830
f 432/326 174/320 130/329
f 191/306 186/325 174/320
f 186/325 185/328 174/320
f 434/654 330/646 336/653
f 335/648 330/646 308/638
f 356/562 333/564 337/567
f 191/655 336/653 335/648
f 235/561 334/568 333/564
f 434/654 331/650 330/646
f 331/650 196/642 330/646
f 508/482 440/475 548/478
f 327/683 231/684 343/681
f 327/683 326/682 318/685
f 232/641 197/632 196/642
f 394/779 353/775 322/777
f 200/808 324/810 323/814
f 322/689 321/696 230/690
f 319/782 328/783 394/779
f 318/685 355/688 314/692
f 318/685 320/691 319/686
f 356/562 235/561 333/564
f 235/561 236/563 317/565
f 315/341 421/348 316/349
f 334/568 337/567 333/564
f 312/698 314/692 313/695
f 312/698 313/695 391/703
f 230/690 321/696 311/700
f 311/472 321/480 322/476
f 328/694 319/686 320/691
f 312/698 320/691 314/692
f 319/686 327/683 318/685
f 382/727 310/722 307/725
f 197/632 309/629 308/638
f 129/726 172/729 307/725
f 376/723 129/726 378/724
f 310/722 378/724 307/725
f 432/833 376/831 377/829
f 220/235 393/221 306/250
f 304/207 221/199 305/166
f 255/169 656/168 151/197
f 591/216 593/227 397/242
f 257/123 258/90 303/88
f 294/124 261/105 260/138
f 303/88 258/90 300/58
f 300/58 253/25 586/46
f 219/62 275/92 284/107
f 295/60 252/35 299/47
f 265/118 266/131 298/149
f 219/62 217/37 342/61
f 223/148 228/162 255/169
f 252/35 253/25 299/47
f 300/58 299/47 253/25
f 613/156 340/187 339/171
f 294/124 295/60 261/105
f 291/11 293/8 292/2
f 289/759 229/754 290/750
f 286/752 285/747 290/750
f 703/958 287/959 711/960
f 285/747 286/752 712/755
f 290/750 285/747 287/746
f 277/204 278/225 622/203
f 583/68 584/81 263/98
f 254/209 255/169 151/197
f 255/169 228/162 608/136
f 293/8 272/20 251/15
f 286/752 229/754 705/758
f 290/750 287/746 288/751
f 290/750 288/751 297/753
f 286/752 290/750 229/754
f 297/753 296/756 290/750
f 296/756 289/759 290/750
f 296/756 297/753 719/762
f 289/759 296/756 721/768
f 706/765 289/759 716/769
f 267/140 283/119 269/141
f 265/118 263/98 266/131
f 341/87 264/103 257/123
f 685/214 622/203 700/226
f 266/131 263/98 262/150
f 269/141 298/149 266/131
f 261/105 257/123 260/138
f 226/73 341/87 259/57
f 257/123 261/105 258/90
f 149/232 150/260 256/247
f 273/109 270/125 260/138
f 294/124 260/138 690/157
f 283/119 267/140 284/107
f 260/138 270/125 701/160
f 272/20 429/16 282/27
f 280/132 222/117 281/151
f 624/134 627/165 639/133
f 276/213 278/225 277/204
f 295/60 258/90 261/105
f 217/37 271/36 342/61
f 253/25 251/15 272/20
f 342/61 275/92 219/62
f 267/140 269/141 268/108
f 277/204 628/191 276/213
f 304/207 393/221 221/199
f 269/141 280/132 696/183
f 263/98 265/118 583/68
f 270/125 268/108 269/141
f 300/58 295/60 299/47
f 251/15 253/25 252/35
f 251/15 252/35 679/45
f 250/1000 249/1003 447/1001
f 451/946 249/949 250/947
f 203/616 238/617 475/614
f 437/636 308/638 309/629
f 275/92 283/119 284/107
f 267/140 268/108 284/107
f 280/132 269/141 262/150
f 361/571 494/575 236/563
f 652/144 556/116 557/115
f 429/16 271/36 217/37
f 223/148 227/130 228/162
f 552/29 553/51 565/40
f 272/20 282/27 218/34
f 225/93 226/73 219/62
f 595/135 629/102 630/122
f 254/209 149/232 256/247
f 227/130 223/148 222/117
f 623/137 630/122 640/85
f 220/235 614/222 221/199
f 645/181 223/148 628/191
f 183/251 220/235 306/250
f 270/125 273/109 225/93
f 219/62 218/34 217/37
f 579/66 559/80 560/44
f 259/57 586/46 218/34
f 280/132 262/150 263/98
f 612/167 625/154 598/178
f 253/25 272/20 218/34
f 628/191 585/202 254/209
f 587/194 624/134 365/185
f 338/240 276/213 254/209
f 393/221 220/235 221/199
f 595/135 613/156 339/171
f 277/204 622/203 645/181
f 335/648 336/653 330/646
f 292/2 430/7 291/11
f 340/187 636/200 339/171
f 610/113 572/96 578/64
f 604/17 430/7 668/13
f 165/387 215/384 524/374
f 161/504 483/519 211/513
f 258/90 295/60 300/58
f 210/271 209/280 208/291
f 344/196 365/185 612/167
f 624/134 587/194 626/184
f 191/306 174/320 375/315
f 408/659 207/662 206/656
f 626/184 304/207 305/166
f 311/806 200/808 325/811
f 319/686 322/689 231/684
f 133/439 462/432 460/435
f 105/370 524/374 525/371
f 198/852 74/850 101/853
f 623/137 301/186 302/170
f 216/289 210/271 190/297
f 335/648 195/644 122/635
f 397/242 389/255 396/269
f 428/23 599/43 427/31
f 218/34 219/62 226/73
f 357/906 546/903 369/905
f 650/72 655/56 640/85
f 520/837 369/838 540/835
f 547/912 193/908 192/915
f 193/908 547/912 589/909
f 338/240 278/225 276/213
f 659/5 293/8 677/12
f 395/256 593/227 380/243
f 355/290 209/280 387/257
f 379/268 175/244 397/242
f 191/306 216/289 190/297
f 188/323 189/322 350/330
f 361/802 316/801 494/800
f 165/387 187/392 215/384
f 241/707 482/709 512/704
f 248/372 525/371 528/375
f 99/383 137/391 165/387
f 248/372 77/369 525/371
f 105/370 106/378 524/374
f 492/858 198/852 248/857
f 214/667 213/671 247/677
f 492/386 531/380 543/389
f 245/788 246/794 243/796
f 537/353 244/354 421/348
f 244/354 522/358 243/361
f 499/486 513/488 519/484
f 214/714 502/711 241/707
f 518/840 517/841 520/837
f 248/857 198/852 102/856
f 102/856 198/852 100/854
f 98/382 99/383 106/378
f 486/520 212/509 211/513
f 211/513 212/509 161/504
f 214/714 241/707 205/716
f 493/798 242/797 477/795
f 247/677 213/671 493/679
f 214/667 206/656 207/662
f 207/662 213/671 214/667
f 243/796 242/797 244/799
f 511/364 245/366 243/361
f 246/794 245/788 480/791
f 242/797 243/796 246/794
f 505/363 506/365 507/367
f 234/470 443/465 135/452
f 214/714 205/716 206/718
f 206/718 205/716 457/717
f 403/669 411/665 412/661
f 239/626 240/621 238/617
f 240/621 239/626 473/630
f 435/627 436/624 202/631
f 239/626 238/617 237/628
f 418/625 237/628 238/617
f 317/565 236/563 422/570
f 323/814 199/815 200/808
f 415/576 334/568 405/573
f 401/574 402/580 406/578
f 235/561 332/560 236/563
f 324/810 192/813 193/817
f 418/625 197/632 354/637
f 204/619 203/616 433/615
f 204/619 436/624 203/616
f 131/593 176/591 234/590
f 201/640 202/631 122/635
f 195/644 201/640 122/635
f 216/830 385/827 384/828
f 355/688 318/685 326/682
f 541/314 372/299 373/308
f 398/317 233/309 188/323
f 189/322 188/323 233/309
f 367/246 380/243 366/208
f 358/995 364/993 357/992
f 325/697 230/690 311/700
f 193/908 351/911 346/914
f 354/637 197/632 232/641
f 329/344 315/341 347/334
f 349/345 315/341 316/349
f 230/690 189/687 231/684
f 343/316 189/322 233/309
f 231/684 322/689 230/690
f 384/828 386/824 383/826
f 381/988 383/987 380/990
f 308/638 196/642 197/632
f 219/62 268/108 225/93
f 257/123 264/103 273/109
f 224/163 222/117 223/148
f 274/82 342/61 431/54
f 128/732 16/733 125/734
f 146/258 4/233 2/272
f 4/233 148/231 151/197
f 726/302 153/281 727/312
f 146/258 7/292 153/281
f 148/231 149/232 279/219
f 150/260 145/259 171/283
f 44/262 37/248 36/273
f 145/259 146/258 153/281
f 184/498 163/507 161/504
f 123/599 121/595 50/596
f 131/464 135/452 134/456
f 164/396 187/392 165/387
f 144/234 41/276 32/286
f 11/420 143/426 169/424
f 139/503 163/507 184/498
f 11/420 169/424 142/416
f 173/600 186/597 121/595
f 41/276 167/285 21/293
f 173/332 185/328 186/325
f 164/396 137/391 140/400
f 178/522 181/538 179/530
f 167/285 170/287 16/304
f 147/220 144/234 18/249
f 147/220 37/248 4/233
f 184/498 140/500 139/503
f 184/498 164/497 140/500
f 115/738 15/736 128/732
f 136/512 158/518 157/523
f 151/197 615/210 147/220
f 175/244 170/287 168/264
f 130/329 174/320 173/332
f 121/595 124/605 173/600
f 21/293 16/304 13/313
f 172/278 127/296 170/287
f 153/281 171/283 145/259
f 144/234 183/251 168/264
f 172/729 129/726 127/731
f 174/320 185/328 173/332
f 138/406 159/404 156/414
f 41/276 168/264 167/285
f 138/406 140/400 137/391
f 137/391 89/395 96/399
f 166/419 154/422 155/415
f 164/396 165/387 137/391
f 96/399 159/404 137/391
f 136/512 138/508 158/518
f 156/414 158/417 138/406
f 161/504 163/507 162/514
f 65/521 142/528 160/539
f 157/523 158/518 142/528
f 10/425 11/420 30/423
f 96/399 141/410 159/404
f 158/417 156/414 142/416
f 137/391 159/404 138/406
f 65/521 136/512 157/523
f 136/512 66/511 139/503
f 11/420 141/410 155/415
f 95/405 89/395 94/409
f 30/423 11/420 155/415
f 154/422 30/423 155/415
f 155/415 141/410 93/413
f 166/419 155/415 93/413
f 166/419 93/413 90/421
f 60/542 69/535 70/551
f 66/511 69/535 177/527
f 162/514 163/507 180/517
f 491/501 184/498 161/504
f 66/511 180/517 163/507
f 66/511 64/526 68/533
f 66/511 163/507 139/503
f 63/451 26/448 181/444
f 23/455 63/451 61/461
f 133/439 182/441 181/444
f 178/522 66/511 177/527
f 162/514 180/517 178/522
f 62/549 178/522 113/540
f 63/546 181/538 178/522
f 179/530 454/537 162/514
f 182/547 179/530 181/538
f 178/522 177/527 55/534
f 179/530 162/514 178/522
f 55/534 177/527 58/541
f 177/527 60/542 58/541
f 176/591 131/593 121/595
f 51/598 131/593 134/601
f 135/452 444/457 132/445
f 54/606 51/598 134/601
f 26/448 135/452 132/445
f 26/448 134/456 135/452
f 53/469 26/448 52/471
f 131/593 50/596 121/595
f 133/439 181/444 26/448
f 63/451 23/455 26/448
f 133/439 26/448 132/445
f 131/593 51/598 50/596
f 116/335 130/329 124/336
f 124/336 130/329 173/332
f 48/609 123/599 112/603
f 117/735 128/732 125/734
f 127/740 129/741 126/737
f 110/610 123/599 120/611
f 170/287 125/305 16/304
f 16/733 128/732 15/736
f 109/342 116/335 124/336
f 125/305 170/287 127/296
f 117/735 115/738 128/732
f 127/740 126/737 125/734
f 124/605 121/595 111/604
f 186/597 122/594 121/595
f 118/612 120/611 48/609
f 110/350 46/355 114/351
f 45/360 118/357 47/362
f 120/611 118/612 110/610
f 121/595 123/599 111/604
f 15/736 115/738 119/744
f 117/735 126/737 129/741
f 45/360 46/355 118/357
f 117/343 109/342 114/351
f 109/342 117/343 116/335
f 114/742 46/745 115/738
f 110/350 118/357 46/355
f 125/734 126/737 117/735
f 115/738 117/735 114/742
f 117/343 129/339 116/335
f 168/264 183/251 175/244
f 152/266 150/260 171/283
f 7/292 146/258 1/282
f 153/281 152/266 171/283
f 148/231 4/233 146/258
f 153/281 7/292 34/300
f 16/304 21/293 167/285
f 151/197 147/220 4/233
f 145/259 150/260 149/232
f 148/231 145/259 149/232
f 17/261 37/248 147/220
f 39/275 144/234 31/284
f 146/258 145/259 148/231
f 144/234 39/275 19/263
f 41/276 144/234 168/264
f 150/260 152/266 256/247
f 96/399 93/413 141/410
f 11/420 9/428 143/426
f 141/410 11/420 142/416
f 124/336 111/346 109/342
f 142/416 156/414 141/410
f 170/287 175/244 172/278
f 141/410 156/414 159/404
f 93/413 96/399 92/411
f 170/287 167/285 168/264
f 111/604 123/599 110/610
f 138/508 136/512 139/503
f 89/395 137/391 99/383
f 139/503 140/500 138/508
f 65/521 66/511 136/512
f 89/395 99/383 86/394
f 60/542 177/527 69/535
f 178/522 180/517 66/511
f 54/463 134/456 26/448
f 135/452 131/464 234/470
f 112/603 50/596 42/608
f 121/595 122/594 176/591
f 51/598 49/602 50/596
f 109/342 111/346 110/350
f 114/351 109/342 110/350
f 27/1007 39/1008 108/1009
f 39/1008 38/1011 108/1009
f 8/318 7/292 5/311
f 5/311 7/292 6/301
f 2/272 4/233 3/274
f 1/282 146/258 2/272
f 33/294 41/276 40/303
f 21/293 40/303 41/276
f 6/301 7/292 1/282
f 44/262 4/233 37/248
f 36/273 37/248 17/261
f 35/310 7/292 8/318
f 7/292 35/310 34/300
f 41/276 33/294 32/286
f 31/284 144/234 32/286
f 160/427 142/416 169/424
f 28/963 30/964 29/965
f 19/1010 39/1008 27/1007
f 25/462 26/448 23/455
f 24/468 26/448 25/462
f 18/249 144/234 19/263
f 17/261 147/220 18/249
f 13/743 16/733 14/739
f 14/739 16/733 15/736
f 12/939 21/940 13/941
f 9/428 11/420 10/425
f 157/523 142/528 65/521
f 29/965 30/964 71/967
f 10/966 30/964 28/963
f 70/551 69/535 67/548
f 67/548 69/535 68/533
f 68/533 69/535 66/511
f 64/526 66/511 65/521
f 61/556 63/546 62/549
f 63/546 178/522 62/549
f 178/522 55/534 113/540
f 58/541 60/542 59/554
f 57/553 58/541 59/554
f 56/550 58/541 57/553
f 55/534 58/541 56/550
f 53/469 54/463 26/448
f 52/471 26/448 24/468
f 23/943 22/944 25/945
f 48/609 120/611 123/599
f 112/603 123/599 50/596
f 43/607 50/596 49/602
f 47/613 118/612 48/609
f 119/744 115/738 46/745
f 21/940 12/939 20/942
f 4/233 44/262 3/274
f 42/608 50/596 43/607
f 83/927 82/930 79/928
f 75/373 77/369 76/377
f 73/976 74/979 496/977
f 72/980 74/979 73/976
f 194/201 79/277 621/265
f 107/929 79/928 78/931
f 105/370 77/369 75/373
f 98/382 106/378 105/370
f 103/495 496/493 104/494
f 77/369 102/376 76/377
f 74/850 72/855 101/853
f 100/854 198/852 101/853
f 87/390 99/383 98/382
f 30/964 154/971 97/970
f 85/969 30/964 97/970
f 92/411 96/399 95/405
f 96/399 89/395 95/405
f 94/409 89/395 88/403
f 91/418 93/413 92/411
f 90/421 93/413 91/418
f 88/403 89/395 86/394
f 86/394 99/383 87/390
f 71/967 30/964 85/969
f 84/968 29/965 71/967
f 657/1 550/4 292/2
f 658/3 292/2 659/5
f 659/5 292/2 293/8
f 661/110 577/126 578/64
f 662/94 578/64 664/76
f 663/161 653/142 661/110
f 664/76 578/64 576/39
f 665/63 576/39 669/49
f 666/59 252/35 660/74
f 667/10 550/4 674/9
f 668/13 430/7 667/10
f 669/49 576/39 604/17
f 670/188 653/142 671/177
f 671/177 653/142 663/161
f 672/28 604/17 673/21
f 673/21 604/17 668/13
f 674/9 550/4 675/6
f 675/6 550/4 657/1
f 676/48 604/17 682/38
f 677/12 293/8 251/15
f 678/19 251/15 680/24
f 679/45 252/35 666/59
f 680/24 251/15 681/33
f 681/33 251/15 679/45
f 682/38 604/17 672/28
f 683/996 285/997 710/998
f 684/749 287/746 683/748
f 685/214 638/164 622/203
f 686/215 638/164 685/214
f 687/106 295/60 294/124
f 688/139 294/124 708/158
f 689/89 660/74 252/35
f 690/157 260/138 691/173
f 691/173 260/138 725/176
f 692/75 252/35 295/60
f 693/159 269/141 724/175
f 694/174 270/125 693/159
f 695/182 638/164 697/193
f 696/183 280/132 695/182
f 697/193 638/164 723/205
f 698/241 278/225 338/240
f 699/267 338/240 152/266
f 700/226 622/203 698/241
f 701/160 270/125 694/174
f 702/288 152/266 728/295
f 703/958 288/961 287/959
f 704/763 297/753 703/757
f 705/758 229/754 706/765
f 706/765 229/754 289/759
f 707/91 295/60 687/106
f 708/158 294/124 709/172
f 709/172 294/124 690/157
f 710/998 285/997 713/999
f 711/960 287/959 684/962
f 712/755 286/752 714/761
f 713/760 285/747 712/755
f 714/761 286/752 717/764
f 715/771 289/759 722/770
f 716/769 289/759 715/771
f 717/764 286/752 705/758
f 718/767 297/753 704/763
f 719/762 297/753 718/767
f 720/766 296/756 719/762
f 721/768 296/756 720/766
f 722/770 289/759 721/768
f 723/205 638/164 686/215
f 724/175 269/141 696/183
f 725/176 260/138 701/160
f 726/302 152/266 153/281
f 728/295 152/266 726/302
f 729/104 660/74 689/89
usemtl Tile_+032_+023_L20_0001110_untextured
